v 0.036500001 0.029000001 0.1073
v 0.036500001 0 0.1073
v 0.036500001 0 0.11
v 0.036500001 0.029000001 0.11
v 0.036500001 0 0.1055
v 0.036500001 0.029000001 0.1055
v 0.036500001 0.029000001 0.1038
v 0.036500001 0 0.1038
v 0.036500001 0 0.102
v 0.036500001 0.029000001 0.102
v 0.036500001 0.029000001 0.1003
v 0.036500001 0 0.1003
v 0.036500001 0 0.098500004
v 0.036500001 0.029000001 0.098500004
v 0.036500001 0.029000001 0.096800003
v 0.036500001 0 0.096800003
v 0.036500001 0 0.095
v 0.036500001 0.029000001 0.095
v 0.036500001 0.029000001 0.093299999
v 0.036500001 0 0.093299999
v 0.036500001 0 0.091499996
v 0.036500001 0.029000001 0.091499996
v 0.036500001 0.029000001 0.089799995
v 0.036500001 0 0.089799995
v 0.039000001 0.029000001 0.102
v 0.039000001 0 0.102
v 0.039000001 0 0.1038
v 0.039000001 0.029000001 0.1038
v 0.036500001 0 0.088000002
v 0.036500001 0.029000001 0.088000002
v 0.036500001 0.029000001 0.086300001
v 0.036500001 0 0.086300001
v 0.039000001 0.029000001 0.095
v 0.039000001 0 0.095
v 0.039000001 0 0.096800003
v 0.039000001 0.029000001 0.096800003
v 0.036500001 0 0.084499998
v 0.036500001 0.029000001 0.084499998
v 0.036500001 0.029000001 0.082799997
v 0.036500001 0 0.082799997
v 0.036500001 0 0.081000004
v 0.036500001 0.029000001 0.081000004
v 0.036500001 0.029000001 0.079299998
v 0.036500001 0 0.079299998
v 0.036500001 0 0.0775
v 0.036500001 0.029000001 0.0775
v 0.036500001 0.029000001 0.075799999
v 0.036500001 0 0.075799999
v 0.039000001 0.029000001 0.091499996
v 0.039000001 0 0.091499996
v 0.039000001 0 0.093299999
v 0.039000001 0.029000001 0.093299999
v 0.039000001 0.029000001 0.0775
v 0.039000001 0 0.0775
v 0.039000001 0 0.079299998
v 0.039000001 0.029000001 0.079299998
v 0.039000001 0.029000001 0.084499998
v 0.039000001 0 0.084499998
v 0.039000001 0 0.086300001
v 0.039000001 0.029000001 0.086300001
v 0.036500001 0 0.074000001
v 0.036500001 0.029000001 0.074000001
v 0.036500001 0.029000001 0.0723
v 0.036500001 0 0.0723
v 0.039000001 0.029000001 0.088000002
v 0.039000001 0 0.088000002
v 0.039000001 0 0.089799995
v 0.039000001 0.029000001 0.089799995
v 0.036500001 0 0.070500002
v 0.036500001 0.029000001 0.070500002
v 0.036500001 0.029000001 0.068800001
v 0.036500001 0 0.068800001
v 0.039000001 0.029000001 0.081000004
v 0.039000001 0 0.081000004
v 0.039000001 0 0.082799997
v 0.039000001 0.029000001 0.082799997
v 0.036500001 0 0.066999998
v 0.036500001 0.029000001 0.066999998
v 0.036500001 0.029000001 0.065300002
v 0.036500001 0 0.065300002
v 0.036500001 0 0.063499999
v 0.036500001 0.029000001 0.063499999
v 0.036500001 0.029000001 0.061799998
v 0.036500001 0 0.061799998
v 0.039000001 0.029000001 0.06
v 0.039000001 0 0.06
v 0.039000001 0 0.061799998
v 0.039000001 0.029000001 0.061799998
v 0.036500001 0 0.06
v 0.036500001 0.029000001 0.06
v 0.036500001 0.029000001 0.058299999
v 0.036500001 0 0.058299999
v 0.036500001 0 0.056500001
v 0.036500001 0.029000001 0.056500001
v 0.036500001 0.029000001 0.0548
v 0.036500001 0 0.0548
v 0.036500001 0.029000001 0.1055
v 0.036500001 0 0.1055
v 0.039000001 0 0.1055
v 0.039000001 0.029000001 0.1055
v 0.039000001 0.029000001 0.070500002
v 0.039000001 0 0.070500002
v 0.039000001 0 0.0723
v 0.039000001 0.029000001 0.0723
v 0.036500001 0 0.053000002
v 0.036500001 0.029000001 0.053000002
v 0.036500001 0.029000001 0.051300001
v 0.036500001 0 0.051300001
v 0.039000001 0.029000001 0.063499999
v 0.039000001 0 0.063499999
v 0.039000001 0 0.065300002
v 0.039000001 0.029000001 0.065300002
v 0.036500001 0.029000001 0.102
v 0.036500001 0 0.102
v 0.039000001 0 0.102
v 0.039000001 0.029000001 0.102
v 0.039000001 0.029000001 0.045999999
v 0.039000001 0 0.045999999
v 0.039000001 0 0.047800002
v 0.039000001 0.029000001 0.047800002
v 0.036500001 0 0.1038
v 0.036500001 0.029000001 0.1038
v 0.039000001 0.029000001 0.1038
v 0.039000001 0 0.1038
v 0.039000001 0.029000001 0.098500004
v 0.039000001 0 0.098500004
v 0.039000001 0 0.1003
v 0.039000001 0.029000001 0.1003
v 0.036500001 0 0.045999999
v 0.036500001 0.029000001 0.045999999
v 0.036500001 0.029000001 0.044299998
v 0.036500001 0 0.044299998
v 0.039000001 0.029000001 0.1055
v 0.039000001 0 0.1055
v 0.039000001 0 0.1073
v 0.039000001 0.029000001 0.1073
v 0.036500001 0.029000001 0.098500004
v 0.036500001 0 0.098500004
v 0.039000001 0 0.098500004
v 0.039000001 0.029000001 0.098500004
v 0.036500001 0 0.0425
v 0.036500001 0.029000001 0.0425
v 0.036500001 0.029000001 0.040799999
v 0.036500001 0 0.040799999
v 0.036500001 0 0.1003
v 0.036500001 0.029000001 0.1003
v 0.039000001 0.029000001 0.1003
v 0.039000001 0 0.1003
v 0.036500001 0.029000001 0.081000004
v 0.036500001 0 0.081000004
v 0.039000001 0 0.081000004
v 0.039000001 0.029000001 0.081000004
v 0.036500001 0 0.039000001
v 0.036500001 0.029000001 0.039000001
v 0.036500001 0.029000001 0.0373
v 0.036500001 0 0.0373
v 0.036500001 0.029000001 0.095
v 0.036500001 0 0.095
v 0.039000001 0 0.095
v 0.039000001 0.029000001 0.095
v 0.036500001 0 0.049499998
v 0.036500001 0.029000001 0.049499998
v 0.036500001 0.029000001 0.047800002
v 0.036500001 0 0.047800002
v 0.039000001 0.029000001 0.074000001
v 0.039000001 0 0.074000001
v 0.039000001 0 0.075799999
v 0.039000001 0.029000001 0.075799999
v 0.036500001 0 0.096800003
v 0.036500001 0.029000001 0.096800003
v 0.039000001 0.029000001 0.096800003
v 0.039000001 0 0.096800003
v 0.036500001 0 0.0355
v 0.036500001 0.029000001 0.0355
v 0.036500001 0.029000001 0.033800001
v 0.036500001 0 0.033800001
v 0.036500001 0.029000001 0.091499996
v 0.036500001 0 0.091499996
v 0.039000001 0 0.091499996
v 0.039000001 0.029000001 0.091499996
v 0.036500001 0 0.093299999
v 0.036500001 0.029000001 0.093299999
v 0.039000001 0.029000001 0.093299999
v 0.039000001 0 0.093299999
v 0.036500001 0 0.079299998
v 0.036500001 0.029000001 0.079299998
v 0.039000001 0.029000001 0.079299998
v 0.039000001 0 0.079299998
v 0.039000001 0.029000001 0.066999998
v 0.039000001 0 0.066999998
v 0.039000001 0 0.068800001
v 0.039000001 0.029000001 0.068800001
v 0.036500001 0 0.032
v 0.036500001 0.029000001 0.032
v 0.036500001 0.029000001 0.0303
v 0.036500001 0 0.0303
v 0.036500001 0.029000001 0.088000002
v 0.036500001 0 0.088000002
v 0.039000001 0 0.088000002
v 0.039000001 0.029000001 0.088000002
v 0.036500001 0.029000001 0.0775
v 0.036500001 0 0.0775
v 0.039000001 0 0.0775
v 0.039000001 0.029000001 0.0775
v 0.036500001 0.029000001 0.070500002
v 0.036500001 0 0.070500002
v 0.039000001 0 0.070500002
v 0.039000001 0.029000001 0.070500002
v 0.036500001 0 0.0723
v 0.036500001 0.029000001 0.0723
v 0.039000001 0.029000001 0.0723
v 0.039000001 0 0.0723
v 0.036500001 0 0.028499999
v 0.036500001 0.029000001 0.028499999
v 0.036500001 0.029000001 0.026800001
v 0.036500001 0 0.026800001
v 0.036500001 0.029000001 0.063499999
v 0.036500001 0 0.063499999
v 0.039000001 0 0.063499999
v 0.039000001 0.029000001 0.063499999
v 0.036500001 0 0.089799995
v 0.036500001 0.029000001 0.089799995
v 0.039000001 0.029000001 0.089799995
v 0.039000001 0 0.089799995
v 0.039000001 0.029000001 0.056500001
v 0.039000001 0 0.056500001
v 0.039000001 0 0.058299999
v 0.039000001 0.029000001 0.058299999
v 0.036500001 0 0.025
v 0.036500001 0.029000001 0.025
v 0.036500001 0.029000001 0.023299999
v 0.036500001 0 0.023299999
v 0.036500001 0 0.075799999
v 0.036500001 0.029000001 0.075799999
v 0.039000001 0.029000001 0.075799999
v 0.039000001 0 0.075799999
v 0.036500001 0 0.082799997
v 0.036500001 0.029000001 0.082799997
v 0.039000001 0.029000001 0.082799997
v 0.039000001 0 0.082799997
v 0.036500001 0 0.065300002
v 0.036500001 0.029000001 0.065300002
v 0.039000001 0.029000001 0.065300002
v 0.039000001 0 0.065300002
v 0.036500001 0.029000001 0.06
v 0.036500001 0 0.06
v 0.039000001 0 0.06
v 0.039000001 0.029000001 0.06
v 0.036500001 0 0.021500001
v 0.036500001 0.029000001 0.021500001
v 0.036500001 0.029000001 0.0198
v 0.036500001 0 0.0198
v 0.036500001 0.029000001 0.084499998
v 0.036500001 0 0.084499998
v 0.039000001 0 0.084499998
v 0.039000001 0.029000001 0.084499998
v 0.039000001 0.029000001 0.0355
v 0.039000001 0 0.0355
v 0.039000001 0 0.0373
v 0.039000001 0.029000001 0.0373
v 0.036500001 0.029000001 0.056500001
v 0.036500001 0 0.056500001
v 0.039000001 0 0.056500001
v 0.039000001 0.029000001 0.056500001
v 0.036500001 0 0.018
v 0.036500001 0.029000001 0.018
v 0.036500001 0.029000001 0.0163
v 0.036500001 0 0.0163
v 0.039000001 0.029000001 0.039000001
v 0.039000001 0 0.039000001
v 0.039000001 0 0.040799999
v 0.039000001 0.029000001 0.040799999
v 0.036500001 0 0.1073
v 0.036500001 0.029000001 0.1073
v 0.039000001 0.029000001 0.1073
v 0.039000001 0 0.1073
v 0.036500001 0 0.086300001
v 0.036500001 0.029000001 0.086300001
v 0.039000001 0.029000001 0.086300001
v 0.039000001 0 0.086300001
v 0.036500001 0.029000001 0.0355
v 0.036500001 0 0.0355
v 0.039000001 0 0.0355
v 0.039000001 0.029000001 0.0355
v 0.036500001 0 0.0145
v 0.036500001 0.029000001 0.0145
v 0.036500001 0.029000001 0.0128
v 0.036500001 0 0.0128
v 0.036500001 0.029000001 0.074000001
v 0.036500001 0 0.074000001
v 0.039000001 0 0.074000001
v 0.039000001 0.029000001 0.074000001
v 0.036500001 0.029000001 0.0425
v 0.036500001 0 0.0425
v 0.039000001 0 0.0425
v 0.039000001 0.029000001 0.0425
v 0.039000001 0.029000001 0.028499999
v 0.039000001 0 0.028499999
v 0.039000001 0 0.0303
v 0.039000001 0.029000001 0.0303
v 0.039000001 0.029000001 0.018
v 0.039000001 0 0.018
v 0.039000001 0 0.0198
v 0.039000001 0.029000001 0.0198
v 0.036500001 0 0.011
v 0.036500001 0.029000001 0.011
v 0.036500001 0.029000001 0.0093000001
v 0.036500001 0 0.0093000001
v 0.039000001 0.029000001 0.032
v 0.039000001 0 0.032
v 0.039000001 0 0.033800001
v 0.039000001 0.029000001 0.033800001
v 0.036500001 0 0.0548
v 0.036500001 0.029000001 0.0548
v 0.039000001 0.029000001 0.0548
v 0.039000001 0 0.0548
v 0.039000001 0.029000001 0.0425
v 0.039000001 0 0.0425
v 0.039000001 0 0.044299998
v 0.039000001 0.029000001 0.044299998
v 0.036500001 0 0.0075
v 0.036500001 0.029000001 0.0075
v 0.036500001 0.029000001 0.0057999998
v 0.036500001 0 0.0057999998
v 0.039000001 0.029000001 0.011
v 0.039000001 0 0.011
v 0.039000001 0 0.0128
v 0.039000001 0.029000001 0.0128
v 0.039000001 0.029000001 0.021500001
v 0.039000001 0 0.021500001
v 0.039000001 0 0.023299999
v 0.039000001 0.029000001 0.023299999
v 0.036500001 0.029000001 0.039000001
v 0.036500001 0 0.039000001
v 0.039000001 0 0.039000001
v 0.039000001 0.029000001 0.039000001
v 0.036500001 0.029000001 0.011
v 0.036500001 0 0.011
v 0.039000001 0 0.011
v 0.039000001 0.029000001 0.011
v 0.036500001 0.029000001 0.053000002
v 0.036500001 0 0.053000002
v 0.039000001 0 0.053000002
v 0.039000001 0.029000001 0.053000002
v 0.036500001 0 0.051300001
v 0.036500001 0.029000001 0.051300001
v 0.039000001 0.029000001 0.051300001
v 0.039000001 0 0.051300001
v 0.036500001 0 0.044299998
v 0.036500001 0.029000001 0.044299998
v 0.039000001 0.029000001 0.044299998
v 0.039000001 0 0.044299998
v 0.036500001 0.029000001 0.028499999
v 0.036500001 0 0.028499999
v 0.039000001 0 0.028499999
v 0.039000001 0.029000001 0.028499999
v 0.036500001 0 0.0373
v 0.036500001 0.029000001 0.0373
v 0.039000001 0.029000001 0.0373
v 0.039000001 0 0.0373
v 0.039000001 0.029000001 0.053000002
v 0.039000001 0 0.053000002
v 0.039000001 0 0.0548
v 0.039000001 0.029000001 0.0548
v 0.036500001 0.029000001 0.049499998
v 0.036500001 0 0.049499998
v 0.039000001 0 0.049499998
v 0.039000001 0.029000001 0.049499998
v 0.039000001 0.029000001 0.0075
v 0.039000001 0 0.0075
v 0.039000001 0 0.0093000001
v 0.039000001 0.029000001 0.0093000001
v 0.036500001 0 0.023299999
v 0.036500001 0.029000001 0.023299999
v 0.039000001 0.029000001 0.023299999
v 0.039000001 0 0.023299999
v 0.039000001 0.029000001 0.1073
v 0.036500001 0.029000001 0.1073
v 0.036500001 0.029000001 0.11
v 0.041999998 0.029000001 0.11
v 0.041999998 0.029000001 0.0030000001
v 0.036500001 0.029000001 0.0030000001
v 0.036500001 0.029000001 0.0040000001
v 0.039000001 0.029000001 0.0040000001
v 0.039000001 0.029000001 0.0057999998
v 0.036500001 0.029000001 0.0057999998
v 0.036500001 0.029000001 0.0075
v 0.039000001 0.029000001 0.0075
v 0.039000001 0.029000001 0.0093000001
v 0.036500001 0.029000001 0.0093000001
v 0.036500001 0.029000001 0.011
v 0.039000001 0.029000001 0.011
v 0.039000001 0.029000001 0.0128
v 0.036500001 0.029000001 0.0128
v 0.036500001 0.029000001 0.0145
v 0.039000001 0.029000001 0.0145
v 0.039000001 0.029000001 0.0163
v 0.036500001 0.029000001 0.0163
v 0.036500001 0.029000001 0.018
v 0.039000001 0.029000001 0.018
v 0.039000001 0.029000001 0.0198
v 0.036500001 0.029000001 0.0198
v 0.036500001 0.029000001 0.021500001
v 0.039000001 0.029000001 0.021500001
v 0.039000001 0.029000001 0.023299999
v 0.036500001 0.029000001 0.023299999
v 0.036500001 0.029000001 0.025
v 0.039000001 0.029000001 0.025
v 0.039000001 0.029000001 0.026800001
v 0.036500001 0.029000001 0.026800001
v 0.036500001 0.029000001 0.028499999
v 0.039000001 0.029000001 0.028499999
v 0.039000001 0.029000001 0.0303
v 0.036500001 0.029000001 0.0303
v 0.036500001 0.029000001 0.032
v 0.039000001 0.029000001 0.032
v 0.039000001 0.029000001 0.033800001
v 0.036500001 0.029000001 0.033800001
v 0.036500001 0.029000001 0.0355
v 0.039000001 0.029000001 0.0355
v 0.039000001 0.029000001 0.0373
v 0.036500001 0.029000001 0.0373
v 0.036500001 0.029000001 0.039000001
v 0.039000001 0.029000001 0.039000001
v 0.039000001 0.029000001 0.040799999
v 0.036500001 0.029000001 0.040799999
v 0.036500001 0.029000001 0.0425
v 0.039000001 0.029000001 0.0425
v 0.039000001 0.029000001 0.044299998
v 0.036500001 0.029000001 0.044299998
v 0.036500001 0.029000001 0.045999999
v 0.039000001 0.029000001 0.045999999
v 0.039000001 0.029000001 0.047800002
v 0.036500001 0.029000001 0.047800002
v 0.036500001 0.029000001 0.049499998
v 0.039000001 0.029000001 0.049499998
v 0.039000001 0.029000001 0.051300001
v 0.036500001 0.029000001 0.051300001
v 0.036500001 0.029000001 0.053000002
v 0.039000001 0.029000001 0.053000002
v 0.039000001 0.029000001 0.0548
v 0.036500001 0.029000001 0.0548
v 0.036500001 0.029000001 0.056500001
v 0.039000001 0.029000001 0.056500001
v 0.039000001 0.029000001 0.058299999
v 0.036500001 0.029000001 0.058299999
v 0.036500001 0.029000001 0.06
v 0.039000001 0.029000001 0.06
v 0.039000001 0.029000001 0.061799998
v 0.036500001 0.029000001 0.061799998
v 0.036500001 0.029000001 0.063499999
v 0.039000001 0.029000001 0.063499999
v 0.039000001 0.029000001 0.065300002
v 0.036500001 0.029000001 0.065300002
v 0.036500001 0.029000001 0.066999998
v 0.039000001 0.029000001 0.066999998
v 0.039000001 0.029000001 0.068800001
v 0.036500001 0.029000001 0.068800001
v 0.036500001 0.029000001 0.070500002
v 0.039000001 0.029000001 0.070500002
v 0.039000001 0.029000001 0.0723
v 0.036500001 0.029000001 0.0723
v 0.036500001 0.029000001 0.074000001
v 0.039000001 0.029000001 0.074000001
v 0.039000001 0.029000001 0.075799999
v 0.036500001 0.029000001 0.075799999
v 0.036500001 0.029000001 0.0775
v 0.039000001 0.029000001 0.0775
v 0.039000001 0.029000001 0.079299998
v 0.036500001 0.029000001 0.079299998
v 0.036500001 0.029000001 0.081000004
v 0.039000001 0.029000001 0.081000004
v 0.039000001 0.029000001 0.082799997
v 0.036500001 0.029000001 0.082799997
v 0.036500001 0.029000001 0.084499998
v 0.039000001 0.029000001 0.084499998
v 0.039000001 0.029000001 0.086300001
v 0.036500001 0.029000001 0.086300001
v 0.036500001 0.029000001 0.088000002
v 0.039000001 0.029000001 0.088000002
v 0.039000001 0.029000001 0.089799995
v 0.036500001 0.029000001 0.089799995
v 0.036500001 0.029000001 0.091499996
v 0.039000001 0.029000001 0.091499996
v 0.039000001 0.029000001 0.093299999
v 0.036500001 0.029000001 0.093299999
v 0.036500001 0.029000001 0.095
v 0.039000001 0.029000001 0.095
v 0.039000001 0.029000001 0.096800003
v 0.036500001 0.029000001 0.096800003
v 0.036500001 0.029000001 0.098500004
v 0.039000001 0.029000001 0.098500004
v 0.039000001 0.029000001 0.1003
v 0.036500001 0.029000001 0.1003
v 0.036500001 0.029000001 0.102
v 0.039000001 0.029000001 0.102
v 0.039000001 0.029000001 0.1038
v 0.036500001 0.029000001 0.1038
v 0.036500001 0.029000001 0.1055
v 0.039000001 0.029000001 0.1055
v 0.036500001 0.029000001 0.066999998
v 0.036500001 0 0.066999998
v 0.039000001 0 0.066999998
v 0.039000001 0.029000001 0.066999998
v 0.036500001 0 0.061799998
v 0.036500001 0.029000001 0.061799998
v 0.039000001 0.029000001 0.061799998
v 0.039000001 0 0.061799998
v 0.036500001 0 0.0163
v 0.036500001 0.029000001 0.0163
v 0.039000001 0.029000001 0.0163
v 0.039000001 0 0.0163
v 0.036500001 0.029000001 0.025
v 0.036500001 0 0.025
v 0.039000001 0 0.025
v 0.039000001 0.029000001 0.025
v 0.036500001 0 0.026800001
v 0.036500001 0.029000001 0.026800001
v 0.039000001 0.029000001 0.026800001
v 0.039000001 0 0.026800001
v 0.036500001 0 0.047800002
v 0.036500001 0.029000001 0.047800002
v 0.039000001 0.029000001 0.047800002
v 0.039000001 0 0.047800002
v 0.036500001 0 0.040799999
v 0.036500001 0.029000001 0.040799999
v 0.039000001 0.029000001 0.040799999
v 0.039000001 0 0.040799999
v 0.036500001 0 0.0128
v 0.036500001 0.029000001 0.0128
v 0.039000001 0.029000001 0.0128
v 0.039000001 0 0.0128
v 0.036500001 0 0.033800001
v 0.036500001 0.029000001 0.033800001
v 0.039000001 0.029000001 0.033800001
v 0.039000001 0 0.033800001
v 0.039000001 0.029000001 0.025
v 0.039000001 0 0.025
v 0.039000001 0 0.026800001
v 0.039000001 0.029000001 0.026800001
v 0.036500001 0.029000001 0.0075
v 0.036500001 0 0.0075
v 0.039000001 0 0.0075
v 0.039000001 0.029000001 0.0075
v 0.036500001 0.029000001 0.018
v 0.036500001 0 0.018
v 0.039000001 0 0.018
v 0.039000001 0.029000001 0.018
v 0.036500001 0.029000001 0.0040000001
v 0.036500001 0 0.0040000001
v 0.039000001 0 0.0040000001
v 0.039000001 0.029000001 0.0040000001
v 0.036500001 0 0.0198
v 0.036500001 0.029000001 0.0198
v 0.039000001 0.029000001 0.0198
v 0.039000001 0 0.0198
v 0.036500001 0 0.0057999998
v 0.036500001 0.029000001 0.0057999998
v 0.039000001 0.029000001 0.0057999998
v 0.039000001 0 0.0057999998
v 0.036500001 0 0.0303
v 0.036500001 0.029000001 0.0303
v 0.039000001 0.029000001 0.0303
v 0.039000001 0 0.0303
v 0.036500001 0.029000001 0.032
v 0.036500001 0 0.032
v 0.039000001 0 0.032
v 0.039000001 0.029000001 0.032
v 0.039000001 0.029000001 0.049499998
v 0.039000001 0 0.049499998
v 0.039000001 0 0.051300001
v 0.039000001 0.029000001 0.051300001
v 0.036500001 0 0.058299999
v 0.036500001 0.029000001 0.058299999
v 0.039000001 0.029000001 0.058299999
v 0.039000001 0 0.058299999
v 0.039000001 0.029000001 0.0040000001
v 0.039000001 0 0.0040000001
v 0.039000001 0 0.0057999998
v 0.039000001 0.029000001 0.0057999998
v 0.036500001 0.029000001 0.021500001
v 0.036500001 0 0.021500001
v 0.039000001 0 0.021500001
v 0.039000001 0.029000001 0.021500001
v 0.036500001 0.029000001 0.0145
v 0.036500001 0 0.0145
v 0.039000001 0 0.0145
v 0.039000001 0.029000001 0.0145
v 0.039000001 0.029000001 0.0145
v 0.039000001 0 0.0145
v 0.039000001 0 0.0163
v 0.039000001 0.029000001 0.0163
v 0.036500001 0.029000001 0.045999999
v 0.036500001 0 0.045999999
v 0.039000001 0 0.045999999
v 0.039000001 0.029000001 0.045999999
v 0.036500001 0 0.068800001
v 0.036500001 0.029000001 0.068800001
v 0.039000001 0.029000001 0.068800001
v 0.039000001 0 0.068800001
v 0.036500001 0 0.0093000001
v 0.036500001 0.029000001 0.0093000001
v 0.039000001 0.029000001 0.0093000001
v 0.039000001 0 0.0093000001
v 0.036500001 0 0.0030000001
v 0.036500001 0.029000001 0.0030000001
v 0.041999998 0.029000001 0.0030000001
v 0.041999998 0 0.0030000001
v 0.036500001 0.029000001 0.11
v 0.036500001 0 0.11
v 0.041999998 0 0.11
v 0.041999998 0.029000001 0.11
v 0.036500001 0 0.0040000001
v 0.036500001 0.029000001 0.0040000001
v 0.036500001 0.029000001 0.0030000001
v 0.036500001 0 0.0030000001
v 0.039000001 0 0.1055
v 0.036500001 0 0.1055
v 0.036500001 0 0.1038
v 0.039000001 0 0.1038
v 0.039000001 0 0.102
v 0.036500001 0 0.102
v 0.036500001 0 0.1003
v 0.039000001 0 0.1003
v 0.039000001 0 0.098500004
v 0.036500001 0 0.098500004
v 0.036500001 0 0.096800003
v 0.039000001 0 0.096800003
v 0.039000001 0 0.095
v 0.036500001 0 0.095
v 0.036500001 0 0.093299999
v 0.039000001 0 0.093299999
v 0.039000001 0 0.091499996
v 0.036500001 0 0.091499996
v 0.036500001 0 0.089799995
v 0.039000001 0 0.089799995
v 0.039000001 0 0.088000002
v 0.036500001 0 0.088000002
v 0.036500001 0 0.086300001
v 0.039000001 0 0.086300001
v 0.039000001 0 0.084499998
v 0.036500001 0 0.084499998
v 0.036500001 0 0.082799997
v 0.039000001 0 0.082799997
v 0.039000001 0 0.081000004
v 0.036500001 0 0.081000004
v 0.036500001 0 0.079299998
v 0.039000001 0 0.079299998
v 0.039000001 0 0.0775
v 0.036500001 0 0.0775
v 0.036500001 0 0.075799999
v 0.039000001 0 0.075799999
v 0.039000001 0 0.074000001
v 0.036500001 0 0.074000001
v 0.036500001 0 0.0723
v 0.039000001 0 0.0723
v 0.039000001 0 0.070500002
v 0.036500001 0 0.070500002
v 0.036500001 0 0.068800001
v 0.039000001 0 0.068800001
v 0.039000001 0 0.066999998
v 0.036500001 0 0.066999998
v 0.036500001 0 0.065300002
v 0.039000001 0 0.065300002
v 0.039000001 0 0.063499999
v 0.036500001 0 0.063499999
v 0.036500001 0 0.061799998
v 0.039000001 0 0.061799998
v 0.039000001 0 0.06
v 0.036500001 0 0.06
v 0.036500001 0 0.058299999
v 0.039000001 0 0.058299999
v 0.039000001 0 0.056500001
v 0.036500001 0 0.056500001
v 0.036500001 0 0.0548
v 0.039000001 0 0.0548
v 0.039000001 0 0.053000002
v 0.036500001 0 0.053000002
v 0.036500001 0 0.051300001
v 0.039000001 0 0.051300001
v 0.039000001 0 0.049499998
v 0.036500001 0 0.049499998
v 0.036500001 0 0.047800002
v 0.039000001 0 0.047800002
v 0.039000001 0 0.045999999
v 0.036500001 0 0.045999999
v 0.036500001 0 0.044299998
v 0.039000001 0 0.044299998
v 0.039000001 0 0.0425
v 0.036500001 0 0.0425
v 0.036500001 0 0.040799999
v 0.039000001 0 0.040799999
v 0.039000001 0 0.039000001
v 0.036500001 0 0.039000001
v 0.036500001 0 0.0373
v 0.039000001 0 0.0373
v 0.039000001 0 0.0355
v 0.036500001 0 0.0355
v 0.036500001 0 0.033800001
v 0.039000001 0 0.033800001
v 0.039000001 0 0.032
v 0.036500001 0 0.032
v 0.036500001 0 0.0303
v 0.039000001 0 0.0303
v 0.039000001 0 0.028499999
v 0.036500001 0 0.028499999
v 0.036500001 0 0.026800001
v 0.039000001 0 0.026800001
v 0.039000001 0 0.025
v 0.036500001 0 0.025
v 0.036500001 0 0.023299999
v 0.039000001 0 0.023299999
v 0.039000001 0 0.021500001
v 0.036500001 0 0.021500001
v 0.036500001 0 0.0198
v 0.039000001 0 0.0198
v 0.039000001 0 0.018
v 0.036500001 0 0.018
v 0.036500001 0 0.0163
v 0.039000001 0 0.0163
v 0.039000001 0 0.0145
v 0.036500001 0 0.0145
v 0.036500001 0 0.0128
v 0.039000001 0 0.0128
v 0.039000001 0 0.011
v 0.036500001 0 0.011
v 0.036500001 0 0.0093000001
v 0.039000001 0 0.0093000001
v 0.039000001 0 0.0075
v 0.036500001 0 0.0075
v 0.036500001 0 0.0057999998
v 0.039000001 0 0.0057999998
v 0.039000001 0 0.0040000001
v 0.036500001 0 0.0040000001
v 0.036500001 0 0.0030000001
v 0.041999998 0 0.0030000001
v 0.041999998 0 0.11
v 0.036500001 0 0.11
v 0.036500001 0 0.1073
v 0.039000001 0 0.1073
v 0.041999998 0 0.0030000001
v 0.041999998 0.029000001 0.0030000001
v 0.041999998 0.029000001 0.11
v 0.041999998 0 0.11
f 1 2 4
f 4 2 3
f 5 6 8
f 8 6 7
f 9 10 12
f 12 10 11
f 13 14 16
f 16 14 15
f 17 18 20
f 20 18 19
f 21 22 24
f 24 22 23
f 25 26 28
f 28 26 27
f 29 30 32
f 32 30 31
f 33 34 36
f 36 34 35
f 37 38 40
f 40 38 39
f 41 42 44
f 44 42 43
f 45 46 48
f 48 46 47
f 49 50 52
f 52 50 51
f 53 54 56
f 56 54 55
f 57 58 60
f 60 58 59
f 61 62 64
f 64 62 63
f 65 66 68
f 68 66 67
f 69 70 72
f 72 70 71
f 73 74 76
f 76 74 75
f 77 78 80
f 80 78 79
f 81 82 84
f 84 82 83
f 85 86 88
f 88 86 87
f 89 90 92
f 92 90 91
f 93 94 96
f 96 94 95
f 98 99 97
f 97 99 100
f 101 102 104
f 104 102 103
f 105 106 108
f 108 106 107
f 109 110 112
f 112 110 111
f 114 115 113
f 113 115 116
f 117 118 120
f 120 118 119
f 122 123 121
f 121 123 124
f 125 126 128
f 128 126 127
f 129 130 132
f 132 130 131
f 133 134 136
f 136 134 135
f 138 139 137
f 137 139 140
f 141 142 144
f 144 142 143
f 146 147 145
f 145 147 148
f 150 151 149
f 149 151 152
f 153 154 156
f 156 154 155
f 158 159 157
f 157 159 160
f 161 162 164
f 164 162 163
f 165 166 168
f 168 166 167
f 170 171 169
f 169 171 172
f 173 174 176
f 176 174 175
f 178 179 177
f 177 179 180
f 182 183 181
f 181 183 184
f 186 187 185
f 185 187 188
f 189 190 192
f 192 190 191
f 193 194 196
f 196 194 195
f 198 199 197
f 197 199 200
f 202 203 201
f 201 203 204
f 206 207 205
f 205 207 208
f 210 211 209
f 209 211 212
f 213 214 216
f 216 214 215
f 218 219 217
f 217 219 220
f 222 223 221
f 221 223 224
f 225 226 228
f 228 226 227
f 229 230 232
f 232 230 231
f 234 235 233
f 233 235 236
f 238 239 237
f 237 239 240
f 242 243 241
f 241 243 244
f 246 247 245
f 245 247 248
f 249 250 252
f 252 250 251
f 254 255 253
f 253 255 256
f 257 258 260
f 260 258 259
f 262 263 261
f 261 263 264
f 265 266 268
f 268 266 267
f 269 270 272
f 272 270 271
f 274 275 273
f 273 275 276
f 278 279 277
f 277 279 280
f 282 283 281
f 281 283 284
f 285 286 288
f 288 286 287
f 290 291 289
f 289 291 292
f 294 295 293
f 293 295 296
f 297 298 300
f 300 298 299
f 301 302 304
f 304 302 303
f 305 306 308
f 308 306 307
f 309 310 312
f 312 310 311
f 314 315 313
f 313 315 316
f 317 318 320
f 320 318 319
f 321 322 324
f 324 322 323
f 325 326 328
f 328 326 327
f 329 330 332
f 332 330 331
f 334 335 333
f 333 335 336
f 338 339 337
f 337 339 340
f 342 343 341
f 341 343 344
f 346 347 345
f 345 347 348
f 350 351 349
f 349 351 352
f 354 355 353
f 353 355 356
f 358 359 357
f 357 359 360
f 361 362 364
f 364 362 363
f 366 367 365
f 365 367 368
f 369 370 372
f 372 370 371
f 374 375 373
f 373 375 376
f 378 379 377
f 377 379 380
f 377 380 500
f 500 380 497
f 500 497 498
f 381 444 380
f 380 444 445
f 380 445 448
f 448 445 446
f 448 446 447
f 382 384 381
f 381 384 385
f 381 385 388
f 388 385 386
f 388 386 387
f 382 383 384
f 388 389 381
f 381 389 392
f 381 392 393
f 389 390 392
f 392 390 391
f 381 393 396
f 396 393 394
f 396 394 395
f 396 397 381
f 381 397 400
f 381 400 401
f 397 398 400
f 400 398 399
f 381 401 404
f 404 401 402
f 404 402 403
f 404 405 381
f 381 405 408
f 381 408 409
f 405 406 408
f 408 406 407
f 381 409 412
f 412 409 410
f 412 410 411
f 412 413 381
f 381 413 416
f 381 416 417
f 413 414 416
f 416 414 415
f 381 417 420
f 420 417 418
f 420 418 419
f 420 421 381
f 381 421 424
f 381 424 425
f 421 422 424
f 424 422 423
f 381 425 428
f 428 425 426
f 428 426 427
f 428 429 381
f 381 429 432
f 381 432 433
f 429 430 432
f 432 430 431
f 381 433 436
f 436 433 434
f 436 434 435
f 436 437 381
f 381 437 440
f 381 440 441
f 437 438 440
f 440 438 439
f 381 441 444
f 444 441 442
f 444 442 443
f 448 449 380
f 380 449 452
f 380 452 453
f 449 450 452
f 452 450 451
f 380 453 456
f 456 453 454
f 456 454 455
f 456 457 380
f 380 457 460
f 380 460 461
f 457 458 460
f 460 458 459
f 380 461 464
f 464 461 462
f 464 462 463
f 464 465 380
f 380 465 468
f 380 468 469
f 465 466 468
f 468 466 467
f 380 469 472
f 472 469 470
f 472 470 471
f 472 473 380
f 380 473 476
f 380 476 477
f 473 474 476
f 476 474 475
f 380 477 480
f 480 477 478
f 480 478 479
f 480 481 380
f 380 481 484
f 380 484 485
f 481 482 484
f 484 482 483
f 380 485 488
f 488 485 486
f 488 486 487
f 488 489 380
f 380 489 492
f 380 492 493
f 489 490 492
f 492 490 491
f 380 493 496
f 496 493 494
f 496 494 495
f 496 497 380
f 498 499 500
f 502 503 501
f 501 503 504
f 506 507 505
f 505 507 508
f 510 511 509
f 509 511 512
f 514 515 513
f 513 515 516
f 518 519 517
f 517 519 520
f 522 523 521
f 521 523 524
f 526 527 525
f 525 527 528
f 530 531 529
f 529 531 532
f 534 535 533
f 533 535 536
f 537 538 540
f 540 538 539
f 542 543 541
f 541 543 544
f 546 547 545
f 545 547 548
f 550 551 549
f 549 551 552
f 554 555 553
f 553 555 556
f 558 559 557
f 557 559 560
f 562 563 561
f 561 563 564
f 566 567 565
f 565 567 568
f 569 570 572
f 572 570 571
f 574 575 573
f 573 575 576
f 577 578 580
f 580 578 579
f 582 583 581
f 581 583 584
f 586 587 585
f 585 587 588
f 589 590 592
f 592 590 591
f 594 595 593
f 593 595 596
f 598 599 597
f 597 599 600
f 602 603 601
f 601 603 604
f 606 607 605
f 605 607 608
f 610 611 609
f 609 611 612
f 613 614 616
f 616 614 615
f 618 620 617
f 617 620 737
f 617 737 740
f 740 737 738
f 740 738 739
f 618 619 620
f 620 621 737
f 737 621 624
f 737 624 625
f 621 622 624
f 624 622 623
f 737 625 628
f 628 625 626
f 628 626 627
f 628 629 737
f 737 629 632
f 737 632 633
f 629 630 632
f 632 630 631
f 737 633 636
f 636 633 634
f 636 634 635
f 636 637 737
f 737 637 640
f 737 640 641
f 637 638 640
f 640 638 639
f 737 641 644
f 644 641 642
f 644 642 643
f 644 645 737
f 737 645 648
f 737 648 649
f 645 646 648
f 648 646 647
f 737 649 652
f 652 649 650
f 652 650 651
f 652 653 737
f 737 653 656
f 737 656 657
f 653 654 656
f 656 654 655
f 737 657 660
f 660 657 658
f 660 658 659
f 660 661 737
f 737 661 664
f 737 664 665
f 661 662 664
f 664 662 663
f 737 665 668
f 668 665 666
f 668 666 667
f 668 669 737
f 737 669 672
f 737 672 673
f 669 670 672
f 672 670 671
f 674 676 673
f 673 676 736
f 673 736 737
f 674 675 676
f 676 677 736
f 736 677 680
f 736 680 681
f 677 678 680
f 680 678 679
f 736 681 684
f 684 681 682
f 684 682 683
f 684 685 736
f 736 685 688
f 736 688 689
f 685 686 688
f 688 686 687
f 736 689 692
f 692 689 690
f 692 690 691
f 692 693 736
f 736 693 696
f 736 696 697
f 693 694 696
f 696 694 695
f 736 697 700
f 700 697 698
f 700 698 699
f 700 701 736
f 736 701 704
f 736 704 705
f 701 702 704
f 704 702 703
f 736 705 708
f 708 705 706
f 708 706 707
f 708 709 736
f 736 709 712
f 736 712 713
f 709 710 712
f 712 710 711
f 736 713 716
f 716 713 714
f 716 714 715
f 716 717 736
f 736 717 720
f 736 720 721
f 717 718 720
f 720 718 719
f 736 721 724
f 724 721 722
f 724 722 723
f 724 725 736
f 736 725 728
f 736 728 729
f 725 726 728
f 728 726 727
f 736 729 732
f 732 729 730
f 732 730 731
f 732 733 736
f 736 733 735
f 735 733 734
f 741 742 744
f 744 742 743
