v -0.012474999 0.0083030498 0.095310001
v -0.012474999 0.0083030498 0.020309999
v 0.012474999 0.0083030498 0.020309999
v 0.012474999 0.0083030498 0.095310001
v -0.012474999 0.00930305 0.095310001
v -0.012474999 0.00930305 0.020309999
v -0.012474999 0.0083030498 0.020309999
v -0.012474999 0.0083030498 0.095310001
v 0.012474999 0.00930305 0.095310001
v 0.012474999 0.00930305 0.020309999
v -0.012474999 0.00930305 0.020309999
v -0.012474999 0.00930305 0.095310001
v 0.012474999 0.00930305 0.020309999
v 0.012474999 0.0083030498 0.020309999
v -0.012474999 0.0083030498 0.020309999
v -0.012474999 0.00930305 0.020309999
v 0.012474999 0.0083030498 0.095310001
v 0.012474999 0.0083030498 0.020309999
v 0.012474999 0.00930305 0.020309999
v 0.012474999 0.00930305 0.095310001
v 0.012474999 0.0083030498 0.095310001
v 0.012474999 0.00930305 0.095310001
v -0.012474999 0.00930305 0.095310001
v -0.012474999 0.0083030498 0.095310001
f 1 2 4
f 4 2 3
f 5 6 8
f 8 6 7
f 9 10 12
f 12 10 11
f 14 15 13
f 13 15 16
f 17 18 20
f 20 18 19
f 22 23 21
f 21 23 24
