v 0.47200001 0.66 0.43
v 0.47219498 0.66384438 0.43
v 0.47277786 0.66764931 0.43
v 0.47374271 0.67137581 0.43
v 0.47507961 0.6749855 0.43
v 0.47677483 0.67844147 0.43
v 0.478811 0.68170822 0.43
v 0.48116718 0.68475212 0.43
v 0.48381927 0.68754211 0.43
v 0.48673996 0.69004951 0.43
v 0.48989937 0.69224846 0.43
v 0.49326504 0.69411659 0.43
v 0.49680241 0.69563461 0.43
v 0.5004752 0.69678696 0.43
v 0.50424576 0.6975618 0.43
v 0.50807533 0.6979512 0.43
v 0.51192467 0.6979512 0.43
v 0.51575424 0.6975618 0.43
v 0.5195248 0.69678696 0.43
v 0.52319759 0.69563461 0.43
v 0.52673496 0.69411659 0.43
v 0.53010063 0.69224846 0.43
v 0.53326004 0.69004951 0.43
v 0.53618073 0.68754211 0.43
v 0.53883282 0.68475212 0.43
v 0.541189 0.68170822 0.43
v 0.54322517 0.67844147 0.43
v 0.54492039 0.6749855 0.43
v 0.54625729 0.67137581 0.43
v 0.54722214 0.66764931 0.43
v 0.54780502 0.66384438 0.43
v 0.54799999 0.66 0.43
v 0.54780502 0.65615562 0.43
v 0.54722214 0.65235069 0.43
v 0.54625729 0.64862419 0.43
v 0.54492039 0.6450145 0.43
v 0.54322517 0.64155853 0.43
v 0.541189 0.63829182 0.43
v 0.53883282 0.63524784 0.43
v 0.53618073 0.63245789 0.43
v 0.53326004 0.62995052 0.43
v 0.53010063 0.6277515 0.43
v 0.52673496 0.62588345 0.43
v 0.52319759 0.62436543 0.43
v 0.5195248 0.62321308 0.43
v 0.51575424 0.6224382 0.43
v 0.51192467 0.62204876 0.43
v 0.50807533 0.62204876 0.43
v 0.50424576 0.6224382 0.43
v 0.5004752 0.62321308 0.43
v 0.49680241 0.62436543 0.43
v 0.49326504 0.62588345 0.43
v 0.48989937 0.6277515 0.43
v 0.48673996 0.62995052 0.43
v 0.48381927 0.63245789 0.43
v 0.48116718 0.63524784 0.43
v 0.478811 0.63829182 0.43
v 0.47677483 0.64155853 0.43
v 0.47507961 0.6450145 0.43
v 0.47374271 0.64862419 0.43
v 0.47277786 0.65235069 0.43
v 0.47219498 0.65615562 0.43
v 0.47200001 0.66 0.39
v 0.47219498 0.65615562 0.39
v 0.47277786 0.65235069 0.39
v 0.47374271 0.64862419 0.39
v 0.47507961 0.6450145 0.39
v 0.47677483 0.64155853 0.39
v 0.478811 0.63829182 0.39
v 0.48116718 0.63524784 0.39
v 0.48381927 0.63245789 0.39
v 0.48673996 0.62995052 0.39
v 0.48989937 0.6277515 0.39
v 0.49326504 0.62588345 0.39
v 0.49680241 0.62436543 0.39
v 0.5004752 0.62321308 0.39
v 0.50424576 0.6224382 0.39
v 0.50807533 0.62204876 0.39
v 0.51192467 0.62204876 0.39
v 0.51575424 0.6224382 0.39
v 0.5195248 0.62321308 0.39
v 0.52319759 0.62436543 0.39
v 0.52673496 0.62588345 0.39
v 0.53010063 0.6277515 0.39
v 0.53326004 0.62995052 0.39
v 0.53618073 0.63245789 0.39
v 0.53883282 0.63524784 0.39
v 0.541189 0.63829182 0.39
v 0.54322517 0.64155853 0.39
v 0.54492039 0.6450145 0.39
v 0.54625729 0.64862419 0.39
v 0.54722214 0.65235069 0.39
v 0.54780502 0.65615562 0.39
v 0.54799999 0.66 0.39
v 0.54780502 0.66384438 0.39
v 0.54722214 0.66764931 0.39
v 0.54625729 0.67137581 0.39
v 0.54492039 0.6749855 0.39
v 0.54322517 0.67844147 0.39
v 0.541189 0.68170822 0.39
v 0.53883282 0.68475212 0.39
v 0.53618073 0.68754211 0.39
v 0.53326004 0.69004951 0.39
v 0.53010063 0.69224846 0.39
v 0.52673496 0.69411659 0.39
v 0.52319759 0.69563461 0.39
v 0.5195248 0.69678696 0.39
v 0.51575424 0.6975618 0.39
v 0.51192467 0.6979512 0.39
v 0.50807533 0.6979512 0.39
v 0.50424576 0.6975618 0.39
v 0.5004752 0.69678696 0.39
v 0.49680241 0.69563461 0.39
v 0.49326504 0.69411659 0.39
v 0.48989937 0.69224846 0.39
v 0.48673996 0.69004951 0.39
v 0.48381927 0.68754211 0.39
v 0.48116718 0.68475212 0.39
v 0.478811 0.68170822 0.39
v 0.47677483 0.67844147 0.39
v 0.47507961 0.6749855 0.39
v 0.47374271 0.67137581 0.39
v 0.47277786 0.66764931 0.39
v 0.47219498 0.66384438 0.39
v 0.47200001 0.66 0.39
v 0.47200001 0.66 0.43
v 0.47200001 0.66 0.39
v 0.47219498 0.66384438 0.39
v 0.47277786 0.66764931 0.39
v 0.47374271 0.67137581 0.39
v 0.47507961 0.6749855 0.39
v 0.47677483 0.67844147 0.39
v 0.478811 0.68170822 0.39
v 0.48116718 0.68475212 0.39
v 0.48381927 0.68754211 0.39
v 0.48673996 0.69004951 0.39
v 0.48989937 0.69224846 0.39
v 0.49326504 0.69411659 0.39
v 0.49680241 0.69563461 0.39
v 0.5004752 0.69678696 0.39
v 0.50424576 0.6975618 0.39
v 0.50807533 0.6979512 0.39
v 0.51192467 0.6979512 0.39
v 0.51575424 0.6975618 0.39
v 0.5195248 0.69678696 0.39
v 0.52319759 0.69563461 0.39
v 0.52673496 0.69411659 0.39
v 0.53010063 0.69224846 0.39
v 0.53326004 0.69004951 0.39
v 0.53618073 0.68754211 0.39
v 0.53883282 0.68475212 0.39
v 0.541189 0.68170822 0.39
v 0.54322517 0.67844147 0.39
v 0.54492039 0.6749855 0.39
v 0.54625729 0.67137581 0.39
v 0.54722214 0.66764931 0.39
v 0.54780502 0.66384438 0.39
v 0.54799999 0.66 0.39
v 0.54780502 0.65615562 0.39
v 0.54722214 0.65235069 0.39
v 0.54625729 0.64862419 0.39
v 0.54492039 0.6450145 0.39
v 0.54322517 0.64155853 0.39
v 0.541189 0.63829182 0.39
v 0.53883282 0.63524784 0.39
v 0.53618073 0.63245789 0.39
v 0.53326004 0.62995052 0.39
v 0.53010063 0.6277515 0.39
v 0.52673496 0.62588345 0.39
v 0.52319759 0.62436543 0.39
v 0.5195248 0.62321308 0.39
v 0.51575424 0.6224382 0.39
v 0.51192467 0.62204876 0.39
v 0.50807533 0.62204876 0.39
v 0.50424576 0.6224382 0.39
v 0.5004752 0.62321308 0.39
v 0.49680241 0.62436543 0.39
v 0.49326504 0.62588345 0.39
v 0.48989937 0.6277515 0.39
v 0.48673996 0.62995052 0.39
v 0.48381927 0.63245789 0.39
v 0.48116718 0.63524784 0.39
v 0.478811 0.63829182 0.39
v 0.47677483 0.64155853 0.39
v 0.47507961 0.6450145 0.39
v 0.47374271 0.64862419 0.39
v 0.47277786 0.65235069 0.39
v 0.47219498 0.65615562 0.39
v 0.47200001 0.66 0.43
v 0.47219498 0.65615562 0.43
v 0.47277786 0.65235069 0.43
v 0.47374271 0.64862419 0.43
v 0.47507961 0.6450145 0.43
v 0.47677483 0.64155853 0.43
v 0.478811 0.63829182 0.43
v 0.48116718 0.63524784 0.43
v 0.48381927 0.63245789 0.43
v 0.48673996 0.62995052 0.43
v 0.48989937 0.6277515 0.43
v 0.49326504 0.62588345 0.43
v 0.49680241 0.62436543 0.43
v 0.5004752 0.62321308 0.43
v 0.50424576 0.6224382 0.43
v 0.50807533 0.62204876 0.43
v 0.51192467 0.62204876 0.43
v 0.51575424 0.6224382 0.43
v 0.5195248 0.62321308 0.43
v 0.52319759 0.62436543 0.43
v 0.52673496 0.62588345 0.43
v 0.53010063 0.6277515 0.43
v 0.53326004 0.62995052 0.43
v 0.53618073 0.63245789 0.43
v 0.53883282 0.63524784 0.43
v 0.541189 0.63829182 0.43
v 0.54322517 0.64155853 0.43
v 0.54492039 0.6450145 0.43
v 0.54625729 0.64862419 0.43
v 0.54722214 0.65235069 0.43
v 0.54780502 0.65615562 0.43
v 0.54799999 0.66 0.43
v 0.54780502 0.66384438 0.43
v 0.54722214 0.66764931 0.43
v 0.54625729 0.67137581 0.43
v 0.54492039 0.6749855 0.43
v 0.54322517 0.67844147 0.43
v 0.541189 0.68170822 0.43
v 0.53883282 0.68475212 0.43
v 0.53618073 0.68754211 0.43
v 0.53326004 0.69004951 0.43
v 0.53010063 0.69224846 0.43
v 0.52673496 0.69411659 0.43
v 0.52319759 0.69563461 0.43
v 0.5195248 0.69678696 0.43
v 0.51575424 0.6975618 0.43
v 0.51192467 0.6979512 0.43
v 0.50807533 0.6979512 0.43
v 0.50424576 0.6975618 0.43
v 0.5004752 0.69678696 0.43
v 0.49680241 0.69563461 0.43
v 0.49326504 0.69411659 0.43
v 0.48989937 0.69224846 0.43
v 0.48673996 0.69004951 0.43
v 0.48381927 0.68754211 0.43
v 0.48116718 0.68475212 0.43
v 0.478811 0.68170822 0.43
v 0.47677483 0.67844147 0.43
v 0.47507961 0.6749855 0.43
v 0.47374271 0.67137581 0.43
v 0.47277786 0.66764931 0.43
v 0.47219498 0.66384438 0.43
f 2 124 1
f 1 124 125
f 126 63 62
f 62 63 64
f 62 64 61
f 61 64 65
f 61 65 60
f 60 65 66
f 60 66 59
f 59 66 67
f 59 67 58
f 58 67 68
f 58 68 57
f 57 68 69
f 57 69 56
f 56 69 70
f 56 70 55
f 55 70 71
f 55 71 54
f 54 71 72
f 54 72 53
f 53 72 73
f 53 73 52
f 52 73 74
f 52 74 51
f 51 74 75
f 51 75 50
f 50 75 76
f 50 76 49
f 49 76 77
f 49 77 48
f 48 77 78
f 48 78 47
f 47 78 79
f 47 79 46
f 46 79 80
f 46 80 45
f 45 80 81
f 45 81 44
f 44 81 82
f 44 82 43
f 43 82 83
f 43 83 42
f 42 83 84
f 42 84 41
f 41 84 85
f 41 85 40
f 40 85 86
f 40 86 39
f 39 86 87
f 39 87 38
f 38 87 88
f 38 88 37
f 37 88 89
f 37 89 36
f 36 89 90
f 36 90 35
f 35 90 91
f 35 91 34
f 34 91 92
f 34 92 33
f 33 92 93
f 33 93 32
f 32 93 94
f 32 94 31
f 31 94 95
f 31 95 30
f 30 95 96
f 30 96 29
f 29 96 97
f 29 97 28
f 28 97 98
f 28 98 27
f 27 98 99
f 27 99 26
f 26 99 100
f 26 100 25
f 25 100 101
f 25 101 24
f 24 101 102
f 24 102 23
f 23 102 103
f 23 103 22
f 22 103 104
f 22 104 21
f 21 104 105
f 21 105 20
f 20 105 106
f 20 106 19
f 19 106 107
f 19 107 18
f 18 107 108
f 18 108 17
f 17 108 109
f 17 109 16
f 16 109 110
f 16 110 15
f 15 110 111
f 15 111 14
f 14 111 112
f 14 112 13
f 13 112 113
f 13 113 12
f 12 113 114
f 12 114 11
f 11 114 115
f 11 115 10
f 10 115 116
f 10 116 9
f 9 116 117
f 9 117 8
f 8 117 118
f 8 118 7
f 7 118 119
f 7 119 6
f 6 119 120
f 6 120 5
f 5 120 121
f 5 121 4
f 4 121 122
f 4 122 3
f 3 122 123
f 3 123 2
f 2 123 124
f 128 157 127
f 127 157 158
f 127 158 188
f 188 158 159
f 188 159 187
f 187 159 160
f 187 160 186
f 186 160 161
f 186 161 185
f 185 161 162
f 185 162 184
f 184 162 163
f 184 163 183
f 183 163 164
f 183 164 182
f 182 164 165
f 182 165 181
f 181 165 166
f 181 166 180
f 180 166 167
f 180 167 179
f 179 167 168
f 179 168 178
f 178 168 169
f 178 169 177
f 177 169 170
f 177 170 176
f 176 170 171
f 176 171 175
f 175 171 172
f 175 172 174
f 174 172 173
f 157 128 156
f 156 128 129
f 156 129 155
f 155 129 130
f 155 130 154
f 154 130 131
f 154 131 153
f 153 131 132
f 153 132 152
f 152 132 133
f 152 133 151
f 151 133 134
f 151 134 150
f 150 134 135
f 150 135 149
f 149 135 136
f 149 136 148
f 148 136 137
f 148 137 147
f 147 137 138
f 147 138 146
f 146 138 139
f 146 139 145
f 145 139 140
f 145 140 144
f 144 140 141
f 144 141 143
f 143 141 142
f 190 219 189
f 189 219 220
f 189 220 250
f 250 220 221
f 250 221 249
f 249 221 222
f 249 222 248
f 248 222 223
f 248 223 247
f 247 223 224
f 247 224 246
f 246 224 225
f 246 225 245
f 245 225 226
f 245 226 244
f 244 226 227
f 244 227 243
f 243 227 228
f 243 228 242
f 242 228 229
f 242 229 241
f 241 229 230
f 241 230 240
f 240 230 231
f 240 231 239
f 239 231 232
f 239 232 238
f 238 232 233
f 238 233 237
f 237 233 234
f 237 234 236
f 236 234 235
f 219 190 218
f 218 190 191
f 218 191 217
f 217 191 192
f 217 192 216
f 216 192 193
f 216 193 215
f 215 193 194
f 215 194 214
f 214 194 195
f 214 195 213
f 213 195 196
f 213 196 212
f 212 196 197
f 212 197 211
f 211 197 198
f 211 198 210
f 210 198 199
f 210 199 209
f 209 199 200
f 209 200 208
f 208 200 201
f 208 201 207
f 207 201 202
f 207 202 206
f 206 202 203
f 206 203 205
f 205 203 204
