v 0.11335894 0.10472115 9.9999998e-05
v 0.11299565 0.10414007 9.9999998e-05
v 0.11287456 0.10339877 9.9999998e-05
v 0.11287456 0.10339877 0.000125
v 0.11299565 0.10414007 0.000125
v 0.11335894 0.10472115 0.000125
v 0.11457265 0.1052221 9.9999998e-05
v 0.11390455 0.10509686 9.9999998e-05
v 0.11335894 0.10472115 9.9999998e-05
v 0.11335894 0.10472115 0.000125
v 0.11390455 0.10509686 0.000125
v 0.11457265 0.1052221 0.000125
v 0.11287456 0.10339877 9.9999998e-05
v 0.11299059 0.10268049 9.9999998e-05
v 0.11333868 0.10211692 9.9999998e-05
v 0.11333868 0.10211692 0.000125
v 0.11299059 0.10268049 0.000125
v 0.11287456 0.10339877 0.000125
v 0.11553588 0.10493847 9.9999998e-05
v 0.11507683 0.1051512 9.9999998e-05
v 0.11457265 0.1052221 9.9999998e-05
v 0.11457265 0.1052221 0.000125
v 0.11507683 0.1051512 0.000125
v 0.11553588 0.10493847 0.000125
v 0.11333868 0.10211692 9.9999998e-05
v 0.11385437 0.10175225 9.9999998e-05
v 0.11447319 0.1016307 9.9999998e-05
v 0.11447319 0.1016307 0.000125
v 0.11385437 0.10175225 0.000125
v 0.11333868 0.10211692 0.000125
v 0.11619891 0.10412994 9.9999998e-05
v 0.11591989 0.10459453 9.9999998e-05
v 0.11553588 0.10493847 9.9999998e-05
v 0.11553588 0.10493847 0.000125
v 0.11591989 0.10459453 0.000125
v 0.11619891 0.10412994 0.000125
v 0.11447319 0.1016307 9.9999998e-05
v 0.11486042 0.10167996 9.9999998e-05
v 0.1152191 0.10182776 9.9999998e-05
v 0.1152191 0.10182776 0.000125
v 0.11486042 0.10167996 0.000125
v 0.11447319 0.1016307 0.000125
v 0.11642545 0.1026105 9.9999998e-05
v 0.11636881 0.10348763 9.9999998e-05
v 0.11619891 0.10412994 9.9999998e-05
v 0.11619891 0.10412994 0.000125
v 0.11636881 0.10348763 0.000125
v 0.11642545 0.1026105 0.000125
v 0.1152191 0.10182776 9.9999998e-05
v 0.11576241 0.10234161 9.9999998e-05
v 0.11576241 0.10234161 0.000125
v 0.1152191 0.10182776 0.000125
v 0.11620075 0.10096214 9.9999998e-05
v 0.11636927 0.10168088 9.9999998e-05
v 0.11642545 0.1026105 9.9999998e-05
v 0.11642545 0.1026105 0.000125
v 0.11636927 0.10168088 0.000125
v 0.11620075 0.10096214 0.000125
v 0.11576241 0.10234161 9.9999998e-05
v 0.1157661 0.10220901 9.9999998e-05
v 0.1157661 0.10220901 0.000125
v 0.11576241 0.10234161 0.000125
v 0.1155322 0.10002837 9.9999998e-05
v 0.11592127 0.10042205 9.9999998e-05
v 0.11620075 0.10096214 9.9999998e-05
v 0.11620075 0.10096214 0.000125
v 0.11592127 0.10042205 0.000125
v 0.1155322 0.10002837 0.000125
v 0.1157661 0.10220901 9.9999998e-05
v 0.11566665 0.10139864 9.9999998e-05
v 0.11566665 0.10139864 0.000125
v 0.1157661 0.10220901 0.000125
v 0.11449161 0.099707909 9.9999998e-05
v 0.11505012 0.099788027 9.9999998e-05
v 0.1155322 0.10002837 9.9999998e-05
v 0.1155322 0.10002837 0.000125
v 0.11505012 0.099788027 0.000125
v 0.11449161 0.099707909 0.000125
v 0.11566665 0.10139864 9.9999998e-05
v 0.11541985 0.10076692 9.9999998e-05
v 0.11541985 0.10076692 0.000125
v 0.11566665 0.10139864 0.000125
v 0.11345654 0.10005969 9.9999998e-05
v 0.11391606 0.099795856 9.9999998e-05
v 0.11449161 0.099707909 9.9999998e-05
v 0.11449161 0.099707909 0.000125
v 0.11391606 0.099795856 0.000125
v 0.11345654 0.10005969 0.000125
v 0.11541985 0.10076692 9.9999998e-05
v 0.1150423 0.10039304 9.9999998e-05
v 0.1150423 0.10039304 0.000125
v 0.11541985 0.10076692 0.000125
v 0.11297401 0.10104871 9.9999998e-05
v 0.11313517 0.10048283 9.9999998e-05
v 0.11345654 0.10005969 9.9999998e-05
v 0.11345654 0.10005969 0.000125
v 0.11313517 0.10048283 0.000125
v 0.11297401 0.10104871 0.000125
v 0.1150423 0.10039304 9.9999998e-05
v 0.11450634 0.10025307 9.9999998e-05
v 0.11450634 0.10025307 0.000125
v 0.1150423 0.10039304 0.000125
v 0.11450634 0.10025307 9.9999998e-05
v 0.11418128 0.10030372 9.9999998e-05
v 0.11392067 0.10045567 9.9999998e-05
v 0.11392067 0.10045567 0.000125
v 0.11418128 0.10030372 0.000125
v 0.11450634 0.10025307 0.000125
v 0.11392067 0.10045567 9.9999998e-05
v 0.11372912 0.10071995 9.9999998e-05
v 0.11361126 0.10110764 9.9999998e-05
v 0.11361126 0.10110764 0.000125
v 0.11372912 0.10071995 0.000125
v 0.11392067 0.10045567 0.000125
v 0.11361126 0.10110764 9.9999998e-05
v 0.11297401 0.10104871 9.9999998e-05
v 0.11297401 0.10104871 0.000125
v 0.11361126 0.10110764 0.000125
v 0.11297401 0.10104871 0.000125
v 0.11313517 0.10048283 0.000125
v 0.11345654 0.10005969 0.000125
v 0.11391606 0.099795856 0.000125
v 0.11449161 0.099707909 0.000125
v 0.11505012 0.099788027 0.000125
v 0.1155322 0.10002837 0.000125
v 0.11592127 0.10042205 0.000125
v 0.11620075 0.10096214 0.000125
v 0.11636927 0.10168088 0.000125
v 0.11642545 0.1026105 0.000125
v 0.11636881 0.10348763 0.000125
v 0.11619891 0.10412994 0.000125
v 0.11591989 0.10459453 0.000125
v 0.11553588 0.10493847 0.000125
v 0.11507683 0.1051512 0.000125
v 0.11457265 0.1052221 0.000125
v 0.11390455 0.10509686 0.000125
v 0.11335894 0.10472115 0.000125
v 0.11299565 0.10414007 0.000125
v 0.11287456 0.10339877 0.000125
v 0.11299059 0.10268049 0.000125
v 0.11333868 0.10211692 0.000125
v 0.11385437 0.10175225 0.000125
v 0.11447319 0.1016307 0.000125
v 0.11486042 0.10167996 0.000125
v 0.1152191 0.10182776 0.000125
v 0.11576241 0.10234161 0.000125
v 0.1157661 0.10220901 0.000125
v 0.11566665 0.10139864 0.000125
v 0.11541985 0.10076692 0.000125
v 0.1150423 0.10039304 0.000125
v 0.11450634 0.10025307 0.000125
v 0.11418128 0.10030372 0.000125
v 0.11392067 0.10045567 0.000125
v 0.11372912 0.10071995 0.000125
v 0.11361126 0.10110764 0.000125
v 0.11568874 0.10343192 0.000125
v 0.11561461 0.10292315 0.000125
v 0.11539223 0.10253868 0.000125
v 0.11505472 0.10229694 0.000125
v 0.11463527 0.10221637 0.000125
v 0.11421489 0.10229694 0.000125
v 0.11386725 0.10253868 0.000125
v 0.11363381 0.10290933 0.000125
v 0.113556 0.10337667 0.000125
v 0.11363796 0.10389789 0.000125
v 0.11388383 0.10431228 0.000125
v 0.11424021 0.10458302 0.000125
v 0.11465368 0.10467326 0.000125
v 0.11505012 0.10458946 0.000125
v 0.11538486 0.10433806 0.000125
v 0.11561277 0.10394393 0.000125
v 0.11568874 0.10343192 9.9999998e-05
v 0.11561461 0.10292315 9.9999998e-05
v 0.11539223 0.10253868 9.9999998e-05
v 0.11539223 0.10253868 0.000125
v 0.11561461 0.10292315 0.000125
v 0.11568874 0.10343192 0.000125
v 0.11539223 0.10253868 9.9999998e-05
v 0.11505472 0.10229694 9.9999998e-05
v 0.11463527 0.10221637 9.9999998e-05
v 0.11463527 0.10221637 0.000125
v 0.11505472 0.10229694 0.000125
v 0.11539223 0.10253868 0.000125
v 0.11345654 0.10005969 9.9999998e-05
v 0.11313517 0.10048283 9.9999998e-05
v 0.11297401 0.10104871 9.9999998e-05
v 0.11361126 0.10110764 9.9999998e-05
v 0.11372912 0.10071995 9.9999998e-05
v 0.11392067 0.10045567 9.9999998e-05
v 0.11418128 0.10030372 9.9999998e-05
v 0.11450634 0.10025307 9.9999998e-05
v 0.1150423 0.10039304 9.9999998e-05
v 0.11541985 0.10076692 9.9999998e-05
v 0.11566665 0.10139864 9.9999998e-05
v 0.1157661 0.10220901 9.9999998e-05
v 0.11576241 0.10234161 9.9999998e-05
v 0.1152191 0.10182776 9.9999998e-05
v 0.11486042 0.10167996 9.9999998e-05
v 0.11447319 0.1016307 9.9999998e-05
v 0.11385437 0.10175225 9.9999998e-05
v 0.11333868 0.10211692 9.9999998e-05
v 0.11299059 0.10268049 9.9999998e-05
v 0.11287456 0.10339877 9.9999998e-05
v 0.11299565 0.10414007 9.9999998e-05
v 0.11335894 0.10472115 9.9999998e-05
v 0.11390455 0.10509686 9.9999998e-05
v 0.11457265 0.1052221 9.9999998e-05
v 0.11507683 0.1051512 9.9999998e-05
v 0.11553588 0.10493847 9.9999998e-05
v 0.11591989 0.10459453 9.9999998e-05
v 0.11619891 0.10412994 9.9999998e-05
v 0.11636881 0.10348763 9.9999998e-05
v 0.11642545 0.1026105 9.9999998e-05
v 0.11636927 0.10168088 9.9999998e-05
v 0.11620075 0.10096214 9.9999998e-05
v 0.11592127 0.10042205 9.9999998e-05
v 0.1155322 0.10002837 9.9999998e-05
v 0.11505012 0.099788027 9.9999998e-05
v 0.11449161 0.099707909 9.9999998e-05
v 0.11391606 0.099795856 9.9999998e-05
v 0.11539223 0.10253868 9.9999998e-05
v 0.11561461 0.10292315 9.9999998e-05
v 0.11568874 0.10343192 9.9999998e-05
v 0.11561277 0.10394393 9.9999998e-05
v 0.11538486 0.10433806 9.9999998e-05
v 0.11505012 0.10458946 9.9999998e-05
v 0.11465368 0.10467326 9.9999998e-05
v 0.11424021 0.10458302 9.9999998e-05
v 0.11388383 0.10431228 9.9999998e-05
v 0.11363796 0.10389789 9.9999998e-05
v 0.113556 0.10337667 9.9999998e-05
v 0.11363381 0.10290933 9.9999998e-05
v 0.11386725 0.10253868 9.9999998e-05
v 0.11421489 0.10229694 9.9999998e-05
v 0.11463527 0.10221637 9.9999998e-05
v 0.11505472 0.10229694 9.9999998e-05
v 0.11463527 0.10221637 9.9999998e-05
v 0.11421489 0.10229694 9.9999998e-05
v 0.11386725 0.10253868 9.9999998e-05
v 0.11386725 0.10253868 0.000125
v 0.11421489 0.10229694 0.000125
v 0.11463527 0.10221637 0.000125
v 0.11386725 0.10253868 9.9999998e-05
v 0.11363381 0.10290933 9.9999998e-05
v 0.113556 0.10337667 9.9999998e-05
v 0.113556 0.10337667 0.000125
v 0.11363381 0.10290933 0.000125
v 0.11386725 0.10253868 0.000125
v 0.113556 0.10337667 9.9999998e-05
v 0.11363796 0.10389789 9.9999998e-05
v 0.11388383 0.10431228 9.9999998e-05
v 0.11388383 0.10431228 0.000125
v 0.11363796 0.10389789 0.000125
v 0.113556 0.10337667 0.000125
v 0.11388383 0.10431228 9.9999998e-05
v 0.11424021 0.10458302 9.9999998e-05
v 0.11465368 0.10467326 9.9999998e-05
v 0.11465368 0.10467326 0.000125
v 0.11424021 0.10458302 0.000125
v 0.11388383 0.10431228 0.000125
v 0.11465368 0.10467326 9.9999998e-05
v 0.11505012 0.10458946 9.9999998e-05
v 0.11538486 0.10433806 9.9999998e-05
v 0.11538486 0.10433806 0.000125
v 0.11505012 0.10458946 0.000125
v 0.11465368 0.10467326 0.000125
v 0.11538486 0.10433806 9.9999998e-05
v 0.11561277 0.10394393 9.9999998e-05
v 0.11568874 0.10343192 9.9999998e-05
v 0.11568874 0.10343192 0.000125
v 0.11561277 0.10394393 0.000125
v 0.11538486 0.10433806 0.000125
f 1 2 6
f 6 2 5
f 5 2 3
f 5 3 4
f 7 8 12
f 12 8 11
f 11 8 9
f 11 9 10
f 13 14 18
f 18 14 17
f 17 14 15
f 17 15 16
f 19 20 24
f 24 20 23
f 23 20 21
f 23 21 22
f 25 26 30
f 30 26 29
f 29 26 27
f 29 27 28
f 31 32 36
f 36 32 35
f 35 32 33
f 35 33 34
f 37 38 42
f 42 38 41
f 41 38 39
f 41 39 40
f 43 44 48
f 48 44 47
f 47 44 45
f 47 45 46
f 49 50 52
f 52 50 51
f 53 54 58
f 58 54 57
f 57 54 55
f 57 55 56
f 59 60 62
f 62 60 61
f 63 64 68
f 68 64 67
f 67 64 65
f 67 65 66
f 69 70 72
f 72 70 71
f 73 74 78
f 78 74 77
f 77 74 75
f 77 75 76
f 79 80 82
f 82 80 81
f 83 84 88
f 88 84 87
f 87 84 85
f 87 85 86
f 89 90 92
f 92 90 91
f 93 94 98
f 98 94 97
f 97 94 95
f 97 95 96
f 99 100 102
f 102 100 101
f 103 104 108
f 108 104 107
f 107 104 105
f 107 105 106
f 109 110 114
f 114 110 113
f 113 110 111
f 113 111 112
f 115 116 118
f 118 116 117
f 119 120 155
f 155 120 154
f 154 120 121
f 154 121 153
f 153 121 122
f 153 122 152
f 152 122 123
f 152 123 151
f 151 123 124
f 151 124 150
f 150 124 125
f 150 125 149
f 149 125 126
f 149 126 148
f 148 126 127
f 148 127 128
f 148 128 147
f 147 128 129
f 147 129 146
f 146 129 157
f 146 157 158
f 129 130 157
f 157 130 156
f 156 130 131
f 156 131 171
f 171 131 132
f 171 132 170
f 170 132 133
f 170 133 169
f 169 133 134
f 169 134 168
f 168 134 135
f 168 135 167
f 167 135 136
f 167 136 166
f 166 136 137
f 166 137 165
f 165 137 138
f 165 138 164
f 164 138 139
f 164 139 140
f 164 140 163
f 163 140 141
f 163 141 162
f 162 141 142
f 162 142 161
f 161 142 143
f 161 143 160
f 160 143 144
f 160 144 159
f 159 144 145
f 159 145 158
f 158 145 146
f 172 173 177
f 177 173 176
f 176 173 174
f 176 174 175
f 178 179 183
f 183 179 182
f 182 179 180
f 182 180 181
f 185 188 184
f 184 188 189
f 184 189 220
f 220 189 190
f 220 190 219
f 219 190 191
f 219 191 218
f 218 191 192
f 218 192 217
f 217 192 193
f 217 193 216
f 216 193 194
f 216 194 215
f 215 194 214
f 214 194 195
f 214 195 213
f 213 195 196
f 213 196 222
f 222 196 221
f 221 196 197
f 221 197 236
f 236 197 198
f 236 198 235
f 235 198 199
f 235 199 234
f 234 199 200
f 234 200 233
f 233 200 201
f 233 201 232
f 232 201 202
f 232 202 231
f 231 202 203
f 231 203 204
f 186 187 185
f 185 187 188
f 231 204 230
f 230 204 205
f 230 205 229
f 229 205 206
f 229 206 228
f 228 206 207
f 228 207 227
f 227 207 208
f 227 208 226
f 226 208 209
f 226 209 225
f 225 209 210
f 225 210 224
f 224 210 211
f 224 211 223
f 223 211 212
f 223 212 222
f 222 212 213
f 237 238 242
f 242 238 241
f 241 238 239
f 241 239 240
f 243 244 248
f 248 244 247
f 247 244 245
f 247 245 246
f 249 250 254
f 254 250 253
f 253 250 251
f 253 251 252
f 255 256 260
f 260 256 259
f 259 256 257
f 259 257 258
f 261 262 266
f 266 262 265
f 265 262 263
f 265 263 264
f 267 268 272
f 272 268 271
f 271 268 269
f 271 269 270
