v -0.1935 -0.20799999 0.37299999
v -0.19331772 -0.20926779 0.37299999
v -0.19278564 -0.21043289 0.37299999
v -0.19194687 -0.21140087 0.37299999
v -0.19086937 -0.21209335 0.37299999
v -0.18964041 -0.2124542 0.37299999
v -0.18835958 -0.2124542 0.37299999
v -0.18713064 -0.21209335 0.37299999
v -0.18605312 -0.21140087 0.37299999
v -0.18521437 -0.21043289 0.37299999
v -0.18468227 -0.20926779 0.37299999
v -0.18450001 -0.20799999 0.37299999
v -0.18468227 -0.2067322 0.37299999
v -0.18521437 -0.20556711 0.37299999
v -0.18605312 -0.20459913 0.37299999
v -0.18713064 -0.20390665 0.37299999
v -0.18835958 -0.2035458 0.37299999
v -0.18964041 -0.2035458 0.37299999
v -0.19086937 -0.20390665 0.37299999
v -0.19194687 -0.20459913 0.37299999
v -0.19278564 -0.20556711 0.37299999
v -0.19331772 -0.2067322 0.37299999
v -0.1935 -0.20799999 0.37299999
v -0.19331772 -0.2067322 0.37299999
v -0.19278564 -0.20556711 0.37299999
v -0.19194687 -0.20459913 0.37299999
v -0.19086937 -0.20390665 0.37299999
v -0.18964041 -0.2035458 0.37299999
v -0.18835958 -0.2035458 0.37299999
v -0.18713064 -0.20390665 0.37299999
v -0.18605312 -0.20459913 0.37299999
v -0.18521437 -0.20556711 0.37299999
v -0.18468227 -0.2067322 0.37299999
v -0.18450001 -0.20799999 0.37299999
v -0.18468227 -0.20926779 0.37299999
v -0.18521437 -0.21043289 0.37299999
v -0.18605312 -0.21140087 0.37299999
v -0.18713064 -0.21209335 0.37299999
v -0.18835958 -0.2124542 0.37299999
v -0.18964041 -0.2124542 0.37299999
v -0.19086937 -0.21209335 0.37299999
v -0.19194687 -0.21140087 0.37299999
v -0.19278564 -0.21043289 0.37299999
v -0.19331772 -0.20926779 0.37299999
v -0.1935 -0.20799999 0.365
v -0.19331772 -0.20926779 0.365
v -0.19278564 -0.21043289 0.365
v -0.19194687 -0.21140087 0.365
v -0.19086937 -0.21209335 0.365
v -0.18964041 -0.2124542 0.365
v -0.18835958 -0.2124542 0.365
v -0.18713064 -0.21209335 0.365
v -0.18605312 -0.21140087 0.365
v -0.18521437 -0.21043289 0.365
v -0.18468227 -0.20926779 0.365
v -0.18450001 -0.20799999 0.365
v -0.18468227 -0.2067322 0.365
v -0.18521437 -0.20556711 0.365
v -0.18605312 -0.20459913 0.365
v -0.18713064 -0.20390665 0.365
v -0.18835958 -0.2035458 0.365
v -0.18964041 -0.2035458 0.365
v -0.19086937 -0.20390665 0.365
v -0.19194687 -0.20459913 0.365
v -0.19278564 -0.20556711 0.365
v -0.19331772 -0.2067322 0.365
v -0.1935 -0.20799999 0.365
v -0.1935 -0.20799999 0.37299999
v -0.1935 -0.20799999 0.365
v -0.19331772 -0.2067322 0.365
v -0.19278564 -0.20556711 0.365
v -0.19194687 -0.20459913 0.365
v -0.19086937 -0.20390665 0.365
v -0.18964041 -0.2035458 0.365
v -0.18835958 -0.2035458 0.365
v -0.18713064 -0.20390665 0.365
v -0.18605312 -0.20459913 0.365
v -0.18521437 -0.20556711 0.365
v -0.18468227 -0.2067322 0.365
v -0.18450001 -0.20799999 0.365
v -0.18468227 -0.20926779 0.365
v -0.18521437 -0.21043289 0.365
v -0.18605312 -0.21140087 0.365
v -0.18713064 -0.21209335 0.365
v -0.18835958 -0.2124542 0.365
v -0.18964041 -0.2124542 0.365
v -0.19086937 -0.21209335 0.365
v -0.19194687 -0.21140087 0.365
v -0.19278564 -0.21043289 0.365
v -0.19331772 -0.20926779 0.365
f 2 11 1
f 1 11 12
f 1 12 22
f 22 12 13
f 22 13 21
f 21 13 14
f 21 14 20
f 20 14 15
f 20 15 19
f 19 15 16
f 19 16 18
f 18 16 17
f 11 2 10
f 10 2 3
f 10 3 9
f 9 3 4
f 9 4 8
f 8 4 5
f 8 5 7
f 7 5 6
f 24 66 23
f 23 66 67
f 68 45 44
f 44 45 46
f 44 46 47
f 24 25 66
f 66 25 65
f 65 25 26
f 65 26 64
f 64 26 27
f 64 27 63
f 63 27 28
f 63 28 62
f 62 28 29
f 62 29 61
f 61 29 30
f 61 30 60
f 60 30 31
f 60 31 59
f 59 31 32
f 59 32 58
f 58 32 33
f 58 33 57
f 57 33 34
f 57 34 56
f 56 34 35
f 56 35 55
f 55 35 36
f 55 36 54
f 54 36 37
f 54 37 53
f 53 37 38
f 53 38 52
f 52 38 39
f 52 39 51
f 51 39 40
f 51 40 50
f 50 40 41
f 50 41 49
f 49 41 42
f 49 42 48
f 48 42 43
f 48 43 47
f 47 43 44
f 70 79 69
f 69 79 80
f 69 80 90
f 90 80 81
f 90 81 89
f 89 81 82
f 89 82 88
f 88 82 83
f 88 83 87
f 87 83 84
f 87 84 86
f 86 84 85
f 79 70 78
f 78 70 71
f 78 71 77
f 77 71 72
f 77 72 76
f 76 72 73
f 76 73 75
f 75 73 74
