v 0.12776044 0.0078000003 9.9999998e-05
v 0.12828568 0.0078000003 9.9999998e-05
v 0.12828568 0.0078000003 0.000125
v 0.12776044 0.0078000003 0.000125
v 0.12828568 0.0078000003 9.9999998e-05
v 0.12956426 0.011482674 9.9999998e-05
v 0.12956426 0.011482674 0.000125
v 0.12828568 0.0078000003 0.000125
v 0.12648786 0.011545702 9.9999998e-05
v 0.12776044 0.0078000003 9.9999998e-05
v 0.12776044 0.0078000003 0.000125
v 0.12648786 0.011545702 0.000125
v 0.12956426 0.011482674 9.9999998e-05
v 0.12956426 0.0078000003 9.9999998e-05
v 0.12956426 0.0078000003 0.000125
v 0.12956426 0.011482674 0.000125
v 0.12648786 0.0078000003 9.9999998e-05
v 0.12648786 0.011545702 9.9999998e-05
v 0.12648786 0.011545702 0.000125
v 0.12648786 0.0078000003 0.000125
v 0.12956426 0.0078000003 9.9999998e-05
v 0.13012551 0.0078000003 9.9999998e-05
v 0.13012551 0.0078000003 0.000125
v 0.12956426 0.0078000003 0.000125
v 0.1259266 0.0078000003 0.000125
v 0.12648786 0.0078000003 0.000125
v 0.12648786 0.011545702 0.000125
v 0.12776044 0.0078000003 0.000125
v 0.12828568 0.0078000003 0.000125
v 0.12956426 0.011482674 0.000125
v 0.12956426 0.0078000003 0.000125
v 0.13012551 0.0078000003 0.000125
v 0.13012551 0.0122 0.000125
v 0.12934216 0.0122 0.000125
v 0.12828868 0.0091386086 0.000125
v 0.12815062 0.0087296724 0.000125
v 0.12805457 0.0084332883 0.000125
v 0.12796904 0.008704161 0.000125
v 0.12784448 0.0090845841 0.000125
v 0.126803 0.0122 0.000125
v 0.1259266 0.0122 0.000125
v 0.13012551 0.0078000003 9.9999998e-05
v 0.13012551 0.0122 9.9999998e-05
v 0.13012551 0.0122 0.000125
v 0.13012551 0.0078000003 0.000125
v 0.1259266 0.0078000003 9.9999998e-05
v 0.12648786 0.0078000003 9.9999998e-05
v 0.12648786 0.0078000003 0.000125
v 0.1259266 0.0078000003 0.000125
v 0.13012551 0.0122 9.9999998e-05
v 0.12934216 0.0122 9.9999998e-05
v 0.12934216 0.0122 0.000125
v 0.13012551 0.0122 0.000125
v 0.12648786 0.0078000003 9.9999998e-05
v 0.1259266 0.0078000003 9.9999998e-05
v 0.1259266 0.0122 9.9999998e-05
v 0.126803 0.0122 9.9999998e-05
v 0.12784448 0.0090845841 9.9999998e-05
v 0.12796904 0.008704161 9.9999998e-05
v 0.12805457 0.0084332883 9.9999998e-05
v 0.12815062 0.0087296724 9.9999998e-05
v 0.12828868 0.0091386086 9.9999998e-05
v 0.12934216 0.0122 9.9999998e-05
v 0.13012551 0.0122 9.9999998e-05
v 0.13012551 0.0078000003 9.9999998e-05
v 0.12956426 0.0078000003 9.9999998e-05
v 0.12956426 0.011482674 9.9999998e-05
v 0.12828568 0.0078000003 9.9999998e-05
v 0.12776044 0.0078000003 9.9999998e-05
v 0.12648786 0.011545702 9.9999998e-05
v 0.12934216 0.0122 9.9999998e-05
v 0.12828868 0.0091386086 9.9999998e-05
v 0.12828868 0.0091386086 0.000125
v 0.12934216 0.0122 0.000125
v 0.12828868 0.0091386086 9.9999998e-05
v 0.12815062 0.0087296724 9.9999998e-05
v 0.12805457 0.0084332883 9.9999998e-05
v 0.12805457 0.0084332883 0.000125
v 0.12815062 0.0087296724 0.000125
v 0.12828868 0.0091386086 0.000125
v 0.12805457 0.0084332883 9.9999998e-05
v 0.12796904 0.008704161 9.9999998e-05
v 0.12784448 0.0090845841 9.9999998e-05
v 0.12784448 0.0090845841 0.000125
v 0.12796904 0.008704161 0.000125
v 0.12805457 0.0084332883 0.000125
v 0.12784448 0.0090845841 9.9999998e-05
v 0.126803 0.0122 9.9999998e-05
v 0.126803 0.0122 0.000125
v 0.12784448 0.0090845841 0.000125
v 0.126803 0.0122 9.9999998e-05
v 0.1259266 0.0122 9.9999998e-05
v 0.1259266 0.0122 0.000125
v 0.126803 0.0122 0.000125
v 0.1259266 0.0122 9.9999998e-05
v 0.1259266 0.0078000003 9.9999998e-05
v 0.1259266 0.0078000003 0.000125
v 0.1259266 0.0122 0.000125
f 1 2 4
f 4 2 3
f 5 6 8
f 8 6 7
f 9 10 12
f 12 10 11
f 13 14 16
f 16 14 15
f 17 18 20
f 20 18 19
f 21 22 24
f 24 22 23
f 26 27 25
f 25 27 41
f 41 27 40
f 40 27 39
f 39 27 28
f 39 28 38
f 38 28 37
f 37 28 29
f 37 29 36
f 36 29 35
f 35 29 30
f 35 30 34
f 34 30 33
f 33 30 32
f 32 30 31
f 42 43 45
f 45 43 44
f 46 47 49
f 49 47 48
f 50 51 53
f 53 51 52
f 54 55 70
f 70 55 56
f 70 56 57
f 57 58 70
f 70 58 69
f 69 58 59
f 69 59 60
f 69 60 68
f 68 60 61
f 68 61 62
f 68 62 67
f 67 62 63
f 67 63 64
f 64 65 67
f 67 65 66
f 71 72 74
f 74 72 73
f 75 76 80
f 80 76 79
f 79 76 77
f 79 77 78
f 81 82 86
f 86 82 85
f 85 82 83
f 85 83 84
f 87 88 90
f 90 88 89
f 91 92 94
f 94 92 93
f 95 96 98
f 98 96 97
