v 0.74 0.18700001 0.32400002
v 0.74 0.33299999 0.32400002
v 0.72 0.33299999 0.32400002
v 0.72 0.18700001 0.32400002
v 0.72 0.18700001 0.32400002
v 0.72 0.18700001 0.314
v 0.74 0.18700001 0.314
v 0.74 0.18700001 0.32400002
v 0.72 0.33299999 0.32400002
v 0.72 0.33299999 0.314
v 0.72 0.18700001 0.314
v 0.72 0.18700001 0.32400002
v 0.74 0.33299999 0.32400002
v 0.74 0.33299999 0.314
v 0.72 0.33299999 0.314
v 0.72 0.33299999 0.32400002
v 0.74 0.18700001 0.32400002
v 0.74 0.18700001 0.314
v 0.74 0.33299999 0.314
v 0.74 0.33299999 0.32400002
v 0.74 0.33299999 0.314
v 0.74 0.18700001 0.314
v 0.72 0.18700001 0.314
v 0.72 0.33299999 0.314
f 2 3 1
f 1 3 4
f 5 6 8
f 8 6 7
f 9 10 12
f 12 10 11
f 13 14 16
f 16 14 15
f 17 18 20
f 20 18 19
f 22 23 21
f 21 23 24
