v -0.17325205 -0.2982 0.13183424
v -0.1722963 -0.2982 0.13229008
v -0.17113234 -0.2982 0.13244202
v -0.17113234 -0.29832001 0.13244202
v -0.1722963 -0.29832001 0.13229008
v -0.17325205 -0.29832001 0.13183424
v -0.17444883 -0.2982 0.13020226
v -0.17397707 -0.2982 0.13112236
v -0.17325205 -0.2982 0.13183424
v -0.17325205 -0.29832001 0.13183424
v -0.17397707 -0.29832001 0.13112236
v -0.17444883 -0.29832001 0.13020226
v -0.17113234 -0.2982 0.13244202
v -0.17012312 -0.2982 0.13230508
v -0.16930149 -0.2982 0.13189427
v -0.16930149 -0.29832001 0.13189427
v -0.17012312 -0.29832001 0.13230508
v -0.17113234 -0.29832001 0.13244202
v -0.17479399 -0.2982 0.12809004
v -0.1747077 -0.2982 0.12916209
v -0.17444883 -0.2982 0.13020226
v -0.17444883 -0.29832001 0.13020226
v -0.1747077 -0.29832001 0.12916209
v -0.17479399 -0.29832001 0.12809004
v -0.16930149 -0.2982 0.13189427
v -0.16865995 -0.2982 0.13118332
v -0.16819099 -0.2982 0.13014598
v -0.16819099 -0.29832001 0.13014598
v -0.16865995 -0.29832001 0.13118332
v -0.16930149 -0.29832001 0.13189427
v -0.17438505 -0.2982 0.12564017
v -0.17469175 -0.2982 0.12677601
v -0.17479399 -0.2982 0.12809004
v -0.17479399 -0.29832001 0.12809004
v -0.17469175 -0.29832001 0.12677601
v -0.17438505 -0.29832001 0.12564017
v -0.16819099 -0.2982 0.13014598
v -0.16675785 -0.2982 0.13048363
v -0.16675785 -0.29832001 0.13048363
v -0.16819099 -0.29832001 0.13014598
v -0.17311323 -0.2982 0.12407572
v -0.17386263 -0.2982 0.12472569
v -0.17438505 -0.2982 0.12564017
v -0.17438505 -0.29832001 0.12564017
v -0.17386263 -0.29832001 0.12472569
v -0.17311323 -0.29832001 0.12407572
v -0.16675785 -0.2982 0.13048363
v -0.16702187 -0.2982 0.13120255
v -0.16737125 -0.2982 0.13183612
v -0.16780598 -0.2982 0.13238434
v -0.16832605 -0.2982 0.1328472
v -0.16832605 -0.29832001 0.1328472
v -0.16780598 -0.29832001 0.13238434
v -0.16737125 -0.29832001 0.13183612
v -0.16702187 -0.29832001 0.13120255
v -0.16675785 -0.29832001 0.13048363
v -0.17124489 -0.2982 0.12355798
v -0.1722147 -0.2982 0.12368741
v -0.17311323 -0.2982 0.12407572
v -0.17311323 -0.29832001 0.12407572
v -0.1722147 -0.29832001 0.12368741
v -0.17124489 -0.29832001 0.12355798
v -0.16832605 -0.2982 0.1328472
v -0.16892164 -0.2982 0.13321487
v -0.16958288 -0.2982 0.13347749
v -0.17030977 -0.2982 0.13363506
v -0.17110231 -0.2982 0.13368758
v -0.17110231 -0.29832001 0.13368758
v -0.17030977 -0.29832001 0.13363506
v -0.16958288 -0.29832001 0.13347749
v -0.16892164 -0.29832001 0.13321487
v -0.16832605 -0.29832001 0.1328472
v -0.16917395 -0.2982 0.12426331
v -0.17011562 -0.2982 0.12373431
v -0.17124489 -0.2982 0.12355798
v -0.17124489 -0.29832001 0.12355798
v -0.17011562 -0.29832001 0.12373431
v -0.16917395 -0.29832001 0.12426331
v -0.17110231 -0.2982 0.13368758
v -0.17249701 -0.2982 0.13352158
v -0.17376978 -0.2982 0.13302353
v -0.17376978 -0.29832001 0.13302353
v -0.17249701 -0.29832001 0.13352158
v -0.17110231 -0.29832001 0.13368758
v -0.16802591 -0.29832001 0.12635675
v -0.16821022 -0.29832001 0.12570537
v -0.168463 -0.29832001 0.12513932
v -0.16878424 -0.29832001 0.12465864
v -0.16917395 -0.29832001 0.12426331
v -0.17011562 -0.29832001 0.12373431
v -0.17124489 -0.29832001 0.12355798
v -0.1722147 -0.29832001 0.12368741
v -0.17311323 -0.29832001 0.12407572
v -0.17386263 -0.29832001 0.12472569
v -0.17438505 -0.29832001 0.12564017
v -0.17469175 -0.29832001 0.12677601
v -0.17479399 -0.29832001 0.12809004
v -0.1747077 -0.29832001 0.12916209
v -0.17444883 -0.29832001 0.13020226
v -0.17397707 -0.29832001 0.13112236
v -0.17325205 -0.29832001 0.13183424
v -0.1722963 -0.29832001 0.13229008
v -0.17113234 -0.29832001 0.13244202
v -0.17012312 -0.29832001 0.13230508
v -0.16930149 -0.29832001 0.13189427
v -0.16865995 -0.29832001 0.13118332
v -0.16819099 -0.29832001 0.13014598
v -0.16675785 -0.29832001 0.13048363
v -0.16702187 -0.29832001 0.13120255
v -0.16737125 -0.29832001 0.13183612
v -0.16780598 -0.29832001 0.13238434
v -0.16832605 -0.29832001 0.1328472
v -0.16892164 -0.29832001 0.13321487
v -0.16958288 -0.29832001 0.13347749
v -0.17030977 -0.29832001 0.13363506
v -0.17110231 -0.29832001 0.13368758
v -0.17249701 -0.29832001 0.13352158
v -0.17376978 -0.29832001 0.13302353
v -0.17434097 -0.29832001 0.13265306
v -0.17484278 -0.29832001 0.13220566
v -0.17527515 -0.29832001 0.13168136
v -0.17563812 -0.29832001 0.13108015
v -0.17613054 -0.29832001 0.12969109
v -0.17629467 -0.29832001 0.12808253
v -0.17614929 -0.29832001 0.12655746
v -0.17571316 -0.29832001 0.1251337
v -0.17538912 -0.29832001 0.1244877
v -0.17499846 -0.29832001 0.12392283
v -0.17454123 -0.29832001 0.1234391
v -0.17401739 -0.29832001 0.12303649
v -0.17341877 -0.29832001 0.12271971
v -0.17273712 -0.29832001 0.12249344
v -0.17197248 -0.29832001 0.12235767
v -0.17112482 -0.29832001 0.12231241
v -0.17029875 -0.29832001 0.12237127
v -0.1695388 -0.29832001 0.12254784
v -0.16884497 -0.29832001 0.12284211
v -0.16821726 -0.29832001 0.12325409
v -0.16766834 -0.29832001 0.12377816
v -0.16721087 -0.29832001 0.12440868
v -0.16684483 -0.29832001 0.12514565
v -0.16657026 -0.29832001 0.12598908
v -0.17376978 -0.2982 0.13302353
v -0.17434097 -0.2982 0.13265306
v -0.17484278 -0.2982 0.13220566
v -0.17527515 -0.2982 0.13168136
v -0.17563812 -0.2982 0.13108015
v -0.17563812 -0.29832001 0.13108015
v -0.17527515 -0.29832001 0.13168136
v -0.17484278 -0.29832001 0.13220566
v -0.17434097 -0.29832001 0.13265306
v -0.17376978 -0.29832001 0.13302353
v -0.16802591 -0.2982 0.12635675
v -0.16821022 -0.2982 0.12570537
v -0.168463 -0.2982 0.12513932
v -0.16878424 -0.2982 0.12465864
v -0.16917395 -0.2982 0.12426331
v -0.16917395 -0.29832001 0.12426331
v -0.16878424 -0.29832001 0.12465864
v -0.168463 -0.29832001 0.12513932
v -0.16821022 -0.29832001 0.12570537
v -0.16802591 -0.29832001 0.12635675
v -0.17563812 -0.2982 0.13108015
v -0.17613054 -0.2982 0.12969109
v -0.17629467 -0.2982 0.12808253
v -0.17629467 -0.29832001 0.12808253
v -0.17613054 -0.29832001 0.12969109
v -0.17563812 -0.29832001 0.13108015
v -0.16917395 -0.2982 0.12426331
v -0.16878424 -0.2982 0.12465864
v -0.168463 -0.2982 0.12513932
v -0.16821022 -0.2982 0.12570537
v -0.16802591 -0.2982 0.12635675
v -0.16657026 -0.2982 0.12598908
v -0.16684483 -0.2982 0.12514565
v -0.16721087 -0.2982 0.12440868
v -0.16766834 -0.2982 0.12377816
v -0.16821726 -0.2982 0.12325409
v -0.16884497 -0.2982 0.12284211
v -0.1695388 -0.2982 0.12254784
v -0.17029875 -0.2982 0.12237127
v -0.17112482 -0.2982 0.12231241
v -0.17197248 -0.2982 0.12235767
v -0.17273712 -0.2982 0.12249344
v -0.17341877 -0.2982 0.12271971
v -0.17401739 -0.2982 0.12303649
v -0.17454123 -0.2982 0.1234391
v -0.17499846 -0.2982 0.12392283
v -0.17538912 -0.2982 0.1244877
v -0.17571316 -0.2982 0.1251337
v -0.17614929 -0.2982 0.12655746
v -0.17629467 -0.2982 0.12808253
v -0.17613054 -0.2982 0.12969109
v -0.17563812 -0.2982 0.13108015
v -0.17527515 -0.2982 0.13168136
v -0.17484278 -0.2982 0.13220566
v -0.17434097 -0.2982 0.13265306
v -0.17376978 -0.2982 0.13302353
v -0.17249701 -0.2982 0.13352158
v -0.17110231 -0.2982 0.13368758
v -0.17030977 -0.2982 0.13363506
v -0.16958288 -0.2982 0.13347749
v -0.16892164 -0.2982 0.13321487
v -0.16832605 -0.2982 0.1328472
v -0.16780598 -0.2982 0.13238434
v -0.16737125 -0.2982 0.13183612
v -0.16702187 -0.2982 0.13120255
v -0.16675785 -0.2982 0.13048363
v -0.16819099 -0.2982 0.13014598
v -0.16865995 -0.2982 0.13118332
v -0.16930149 -0.2982 0.13189427
v -0.17012312 -0.2982 0.13230508
v -0.17113234 -0.2982 0.13244202
v -0.1722963 -0.2982 0.13229008
v -0.17325205 -0.2982 0.13183424
v -0.17397707 -0.2982 0.13112236
v -0.17444883 -0.2982 0.13020226
v -0.1747077 -0.2982 0.12916209
v -0.17479399 -0.2982 0.12809004
v -0.17469175 -0.2982 0.12677601
v -0.17438505 -0.2982 0.12564017
v -0.17386263 -0.2982 0.12472569
v -0.17311323 -0.2982 0.12407572
v -0.1722147 -0.2982 0.12368741
v -0.17124489 -0.2982 0.12355798
v -0.17011562 -0.2982 0.12373431
v -0.17629467 -0.2982 0.12808253
v -0.17614929 -0.2982 0.12655746
v -0.17571316 -0.2982 0.1251337
v -0.17571316 -0.29832001 0.1251337
v -0.17614929 -0.29832001 0.12655746
v -0.17629467 -0.29832001 0.12808253
v -0.17571316 -0.2982 0.1251337
v -0.17538912 -0.2982 0.1244877
v -0.17499846 -0.2982 0.12392283
v -0.17454123 -0.2982 0.1234391
v -0.17401739 -0.2982 0.12303649
v -0.17401739 -0.29832001 0.12303649
v -0.17454123 -0.29832001 0.1234391
v -0.17499846 -0.29832001 0.12392283
v -0.17538912 -0.29832001 0.1244877
v -0.17571316 -0.29832001 0.1251337
v -0.17401739 -0.2982 0.12303649
v -0.17341877 -0.2982 0.12271971
v -0.17273712 -0.2982 0.12249344
v -0.17197248 -0.2982 0.12235767
v -0.17112482 -0.2982 0.12231241
v -0.17112482 -0.29832001 0.12231241
v -0.17197248 -0.29832001 0.12235767
v -0.17273712 -0.29832001 0.12249344
v -0.17341877 -0.29832001 0.12271971
v -0.17401739 -0.29832001 0.12303649
v -0.17112482 -0.2982 0.12231241
v -0.17029875 -0.2982 0.12237127
v -0.1695388 -0.2982 0.12254784
v -0.16884497 -0.2982 0.12284211
v -0.16821726 -0.2982 0.12325409
v -0.16821726 -0.29832001 0.12325409
v -0.16884497 -0.29832001 0.12284211
v -0.1695388 -0.29832001 0.12254784
v -0.17029875 -0.29832001 0.12237127
v -0.17112482 -0.29832001 0.12231241
v -0.16821726 -0.2982 0.12325409
v -0.16766834 -0.2982 0.12377816
v -0.16721087 -0.2982 0.12440868
v -0.16684483 -0.2982 0.12514565
v -0.16657026 -0.2982 0.12598908
v -0.16657026 -0.29832001 0.12598908
v -0.16684483 -0.29832001 0.12514565
v -0.16721087 -0.29832001 0.12440868
v -0.16766834 -0.29832001 0.12377816
v -0.16821726 -0.29832001 0.12325409
v -0.16657026 -0.2982 0.12598908
v -0.16802591 -0.2982 0.12635675
v -0.16802591 -0.29832001 0.12635675
v -0.16657026 -0.29832001 0.12598908
f 1 2 6
f 6 2 5
f 5 2 3
f 5 3 4
f 7 8 12
f 12 8 11
f 11 8 9
f 11 9 10
f 13 14 18
f 18 14 17
f 17 14 15
f 17 15 16
f 19 20 24
f 24 20 23
f 23 20 21
f 23 21 22
f 25 26 30
f 30 26 29
f 29 26 27
f 29 27 28
f 31 32 36
f 36 32 35
f 35 32 33
f 35 33 34
f 37 38 40
f 40 38 39
f 41 42 46
f 46 42 45
f 45 42 43
f 45 43 44
f 47 48 56
f 56 48 55
f 55 48 49
f 55 49 54
f 54 49 50
f 54 50 53
f 53 50 51
f 53 51 52
f 57 58 62
f 62 58 61
f 61 58 59
f 61 59 60
f 63 64 72
f 72 64 71
f 71 64 65
f 71 65 70
f 70 65 66
f 70 66 69
f 69 66 67
f 69 67 68
f 73 74 78
f 78 74 77
f 77 74 75
f 77 75 76
f 79 80 84
f 84 80 83
f 83 80 81
f 83 81 82
f 142 85 141
f 141 85 86
f 141 86 140
f 140 86 87
f 140 87 139
f 139 87 88
f 139 88 138
f 138 88 89
f 138 89 137
f 137 89 136
f 136 89 90
f 136 90 135
f 135 90 91
f 135 91 134
f 134 91 133
f 133 91 92
f 133 92 132
f 132 92 93
f 132 93 131
f 131 93 130
f 130 93 94
f 130 94 129
f 129 94 128
f 128 94 127
f 127 94 95
f 127 95 126
f 126 95 96
f 126 96 125
f 125 96 97
f 125 97 124
f 124 97 98
f 124 98 123
f 123 98 99
f 123 99 122
f 122 99 121
f 121 99 100
f 121 100 120
f 120 100 119
f 119 100 101
f 119 101 118
f 118 101 102
f 118 102 117
f 117 102 103
f 117 103 116
f 116 103 115
f 115 103 104
f 115 104 114
f 114 104 105
f 114 105 113
f 113 105 112
f 112 105 106
f 112 106 111
f 111 106 110
f 110 106 107
f 110 107 109
f 109 107 108
f 143 144 152
f 152 144 151
f 151 144 145
f 151 145 150
f 150 145 146
f 150 146 149
f 149 146 147
f 149 147 148
f 153 154 162
f 162 154 161
f 161 154 155
f 161 155 160
f 160 155 156
f 160 156 159
f 159 156 157
f 159 157 158
f 163 164 168
f 168 164 167
f 167 164 165
f 167 165 166
f 170 178 169
f 169 178 179
f 169 179 180
f 178 170 177
f 177 170 171
f 177 171 176
f 176 171 172
f 176 172 175
f 175 172 173
f 175 173 174
f 169 180 226
f 226 180 181
f 226 181 225
f 225 181 182
f 225 182 183
f 225 183 224
f 224 183 184
f 224 184 223
f 223 184 185
f 223 185 186
f 223 186 222
f 222 186 187
f 222 187 188
f 188 189 222
f 222 189 221
f 221 189 190
f 221 190 220
f 220 190 191
f 220 191 219
f 219 191 192
f 219 192 218
f 218 192 193
f 218 193 217
f 217 193 194
f 217 194 195
f 217 195 216
f 216 195 196
f 216 196 197
f 216 197 215
f 215 197 198
f 215 198 214
f 214 198 199
f 214 199 213
f 213 199 200
f 213 200 201
f 213 201 212
f 212 201 202
f 212 202 211
f 211 202 203
f 211 203 204
f 211 204 210
f 210 204 205
f 210 205 206
f 210 206 209
f 209 206 207
f 209 207 208
f 227 228 232
f 232 228 231
f 231 228 229
f 231 229 230
f 233 234 242
f 242 234 241
f 241 234 235
f 241 235 240
f 240 235 236
f 240 236 239
f 239 236 237
f 239 237 238
f 243 244 252
f 252 244 251
f 251 244 245
f 251 245 250
f 250 245 246
f 250 246 249
f 249 246 247
f 249 247 248
f 253 254 262
f 262 254 261
f 261 254 255
f 261 255 260
f 260 255 256
f 260 256 259
f 259 256 257
f 259 257 258
f 263 264 272
f 272 264 271
f 271 264 265
f 271 265 270
f 270 265 266
f 270 266 269
f 269 266 267
f 269 267 268
f 273 274 276
f 276 274 275
