v 0.1739748 -0.29625 0.1150404
v 0.17375952 -0.29625 0.115241
v 0.17375952 -0.29632999 0.115241
v 0.1739748 -0.29632999 0.1150404
v 0.17406916 -0.29625 0.1148431
v 0.1739748 -0.29625 0.1150404
v 0.1739748 -0.29632999 0.1150404
v 0.17406916 -0.29632999 0.1148431
v 0.1741081 -0.29625 0.11462791
v 0.17406916 -0.29625 0.1148431
v 0.17406916 -0.29632999 0.1148431
v 0.1741081 -0.29632999 0.11462791
v 0.17408892 -0.29625 0.11441007
v 0.1741081 -0.29625 0.11462791
v 0.1741081 -0.29632999 0.11462791
v 0.17408892 -0.29632999 0.11441007
v 0.17401293 -0.29625 0.114205
v 0.17408892 -0.29625 0.11441007
v 0.17408892 -0.29632999 0.11441007
v 0.17401293 -0.29632999 0.114205
v 0.17255013 -0.29625 0.11361571
v 0.17337511 -0.29625 0.11370367
v 0.17373951 -0.29625 0.11389112
v 0.17401293 -0.29625 0.114205
v 0.17401293 -0.29632999 0.114205
v 0.17373951 -0.29632999 0.11389112
v 0.17337511 -0.29632999 0.11370367
v 0.17255013 -0.29632999 0.11361571
v 0.17351189 -0.29625 0.11539999
v 0.17375952 -0.29625 0.115241
v 0.1739748 -0.29625 0.1150404
v 0.17406916 -0.29625 0.1148431
v 0.1741081 -0.29625 0.11462791
v 0.17408892 -0.29625 0.11441007
v 0.17401293 -0.29625 0.114205
v 0.17373951 -0.29625 0.11389112
v 0.17337511 -0.29625 0.11370367
v 0.17255013 -0.29625 0.11361571
v 0.17226925 -0.29625 0.11365607
v 0.17200356 -0.29625 0.11375565
v 0.17176535 -0.29625 0.11390981
v 0.17156567 -0.29625 0.1141114
v 0.17146488 -0.29625 0.11433941
v 0.1714304 -0.29625 0.1145863
v 0.17146488 -0.29625 0.11483319
v 0.17156567 -0.29625 0.11506119
v 0.17184685 -0.29625 0.11532682
v 0.1721884 -0.29625 0.11550838
v 0.17256586 -0.29625 0.11559286
v 0.17295221 -0.29625 0.11557422
v 0.17323988 -0.29625 0.11551227
v 0.17226925 -0.29625 0.11365607
v 0.17255013 -0.29625 0.11361571
v 0.17255013 -0.29632999 0.11361571
v 0.17226925 -0.29632999 0.11365607
v 0.17375952 -0.29625 0.115241
v 0.17351189 -0.29625 0.11539999
v 0.17351189 -0.29632999 0.11539999
v 0.17375952 -0.29632999 0.115241
v 0.17200356 -0.29625 0.11375565
v 0.17226925 -0.29625 0.11365607
v 0.17226925 -0.29632999 0.11365607
v 0.17200356 -0.29632999 0.11375565
v 0.17176535 -0.29625 0.11390981
v 0.17200356 -0.29625 0.11375565
v 0.17200356 -0.29632999 0.11375565
v 0.17176535 -0.29632999 0.11390981
v 0.17156567 -0.29625 0.1141114
v 0.17176535 -0.29625 0.11390981
v 0.17176535 -0.29632999 0.11390981
v 0.17156567 -0.29632999 0.1141114
v 0.17323988 -0.29625 0.11551227
v 0.17295221 -0.29625 0.11557422
v 0.17295221 -0.29632999 0.11557422
v 0.17323988 -0.29632999 0.11551227
v 0.17146488 -0.29625 0.11433941
v 0.17156567 -0.29625 0.1141114
v 0.17156567 -0.29632999 0.1141114
v 0.17146488 -0.29632999 0.11433941
v 0.17295221 -0.29625 0.11557422
v 0.17256586 -0.29625 0.11559286
v 0.17256586 -0.29632999 0.11559286
v 0.17295221 -0.29632999 0.11557422
v 0.1714304 -0.29625 0.1145863
v 0.17146488 -0.29625 0.11433941
v 0.17146488 -0.29632999 0.11433941
v 0.1714304 -0.29632999 0.1145863
v 0.17256586 -0.29625 0.11559286
v 0.1721884 -0.29625 0.11550838
v 0.1721884 -0.29632999 0.11550838
v 0.17256586 -0.29632999 0.11559286
v 0.17146488 -0.29625 0.11483319
v 0.1714304 -0.29625 0.1145863
v 0.1714304 -0.29632999 0.1145863
v 0.17146488 -0.29632999 0.11483319
v 0.1721884 -0.29625 0.11550838
v 0.17184685 -0.29625 0.11532682
v 0.17184685 -0.29632999 0.11532682
v 0.1721884 -0.29632999 0.11550838
v 0.17156567 -0.29625 0.11506119
v 0.17146488 -0.29625 0.11483319
v 0.17146488 -0.29632999 0.11483319
v 0.17156567 -0.29632999 0.11506119
v 0.17184685 -0.29625 0.11532682
v 0.17156567 -0.29625 0.11506119
v 0.17156567 -0.29632999 0.11506119
v 0.17184685 -0.29632999 0.11532682
v 0.17375952 -0.29632999 0.115241
v 0.17351189 -0.29632999 0.11539999
v 0.17323988 -0.29632999 0.11551227
v 0.17295221 -0.29632999 0.11557422
v 0.17256586 -0.29632999 0.11559286
v 0.1721884 -0.29632999 0.11550838
v 0.17184685 -0.29632999 0.11532682
v 0.17156567 -0.29632999 0.11506119
v 0.17146488 -0.29632999 0.11483319
v 0.1714304 -0.29632999 0.1145863
v 0.17146488 -0.29632999 0.11433941
v 0.17156567 -0.29632999 0.1141114
v 0.17176535 -0.29632999 0.11390981
v 0.17200356 -0.29632999 0.11375565
v 0.17226925 -0.29632999 0.11365607
v 0.17255013 -0.29632999 0.11361571
v 0.17337511 -0.29632999 0.11370367
v 0.17373951 -0.29632999 0.11389112
v 0.17401293 -0.29632999 0.114205
v 0.17408892 -0.29632999 0.11441007
v 0.1741081 -0.29632999 0.11462791
v 0.17406916 -0.29632999 0.1148431
v 0.1739748 -0.29632999 0.1150404
v 0.17351189 -0.29625 0.11539999
v 0.17323988 -0.29625 0.11551227
v 0.17323988 -0.29632999 0.11551227
v 0.17351189 -0.29632999 0.11539999
f 1 2 4
f 4 2 3
f 5 6 8
f 8 6 7
f 9 10 12
f 12 10 11
f 13 14 16
f 16 14 15
f 17 18 20
f 20 18 19
f 21 22 28
f 28 22 27
f 27 22 23
f 27 23 26
f 26 23 24
f 26 24 25
f 51 29 44
f 44 29 30
f 44 30 32
f 32 30 31
f 32 33 44
f 44 33 34
f 44 34 35
f 44 35 43
f 43 35 36
f 43 36 42
f 42 36 41
f 41 36 37
f 41 37 40
f 40 37 38
f 40 38 39
f 51 44 50
f 50 44 45
f 50 45 46
f 46 47 50
f 50 47 48
f 50 48 49
f 52 53 55
f 55 53 54
f 56 57 59
f 59 57 58
f 60 61 63
f 63 61 62
f 64 65 67
f 67 65 66
f 68 69 71
f 71 69 70
f 72 73 75
f 75 73 74
f 76 77 79
f 79 77 78
f 80 81 83
f 83 81 82
f 84 85 87
f 87 85 86
f 88 89 91
f 91 89 90
f 92 93 95
f 95 93 94
f 96 97 99
f 99 97 98
f 100 101 103
f 103 101 102
f 104 105 107
f 107 105 106
f 109 117 108
f 108 117 129
f 108 129 130
f 109 110 117
f 117 110 111
f 117 111 116
f 116 111 115
f 115 111 114
f 114 111 113
f 113 111 112
f 118 126 117
f 117 126 127
f 117 127 128
f 126 118 125
f 125 118 119
f 125 119 120
f 125 120 124
f 124 120 121
f 124 121 123
f 123 121 122
f 128 129 117
f 131 132 134
f 134 132 133
