v -0.191 0.118 0.595
v -0.191 0.12257606 0.59349285
v -0.191 0.12702915 0.5916539
v -0.191 0.13133528 0.58949306
v -0.191 0.1354712 0.58702206
v -0.191 0.13941462 0.58425415
v -0.191 0.14314425 0.5812043
v -0.191 0.14664 0.57788895
v -0.191 0.14988298 0.57432594
v -0.191 0.15285574 0.57053455
v -0.191 0.15554221 0.56653522
v -0.191 0.15792792 0.56234951
v -0.191 0.16 0.55799999
v -0.191 0.16 0.31
v -0.191 0.118 0.31
v -0.185 0.16 0.55799999
v -0.185 0.15792792 0.56234951
v -0.185 0.15554221 0.56653522
v -0.185 0.15285574 0.57053455
v -0.185 0.14988298 0.57432594
v -0.185 0.14664 0.57788895
v -0.185 0.14314425 0.5812043
v -0.185 0.13941462 0.58425415
v -0.185 0.1354712 0.58702206
v -0.185 0.13133528 0.58949306
v -0.185 0.12702915 0.5916539
v -0.185 0.12257606 0.59349285
v -0.185 0.118 0.595
v -0.185 0.118 0.31
v -0.185 0.16 0.31
v -0.191 0.16 0.55799999
v -0.191 0.15792792 0.56234951
v -0.191 0.15554221 0.56653522
v -0.191 0.15285574 0.57053455
v -0.191 0.14988298 0.57432594
v -0.191 0.14664 0.57788895
v -0.191 0.14314425 0.5812043
v -0.191 0.13941462 0.58425415
v -0.191 0.1354712 0.58702206
v -0.191 0.13133528 0.58949306
v -0.191 0.12702915 0.5916539
v -0.191 0.12257606 0.59349285
v -0.191 0.118 0.595
v -0.185 0.118 0.595
v -0.185 0.12257606 0.59349285
v -0.185 0.12702915 0.5916539
v -0.185 0.13133528 0.58949306
v -0.185 0.1354712 0.58702206
v -0.185 0.13941462 0.58425415
v -0.185 0.14314425 0.5812043
v -0.185 0.14664 0.57788895
v -0.185 0.14988298 0.57432594
v -0.185 0.15285574 0.57053455
v -0.185 0.15554221 0.56653522
v -0.185 0.15792792 0.56234951
v -0.185 0.16 0.55799999
v -0.191 0.118 0.595
v -0.191 0.118 0.31
v -0.185 0.118 0.31
v -0.185 0.118 0.595
v -0.191 0.118 0.31
v -0.191 0.16 0.31
v -0.185 0.16 0.31
v -0.185 0.118 0.31
v -0.191 0.16 0.31
v -0.191 0.16 0.55799999
v -0.185 0.16 0.55799999
v -0.185 0.16 0.31
f 1 2 15
f 15 2 3
f 15 3 4
f 4 5 15
f 15 5 6
f 15 6 7
f 15 7 14
f 14 7 8
f 14 8 9
f 9 10 14
f 14 10 11
f 14 11 12
f 12 13 14
f 16 17 30
f 30 17 18
f 30 18 19
f 19 20 30
f 30 20 21
f 30 21 22
f 30 22 29
f 29 22 23
f 29 23 24
f 24 25 29
f 29 25 26
f 29 26 27
f 27 28 29
f 56 31 55
f 55 31 32
f 55 32 54
f 54 32 33
f 54 33 53
f 53 33 34
f 53 34 52
f 52 34 35
f 52 35 51
f 51 35 36
f 51 36 50
f 50 36 37
f 50 37 49
f 49 37 38
f 49 38 48
f 48 38 39
f 48 39 47
f 47 39 40
f 47 40 46
f 46 40 41
f 46 41 45
f 45 41 42
f 45 42 44
f 44 42 43
f 57 58 60
f 60 58 59
f 61 62 64
f 64 62 63
f 65 66 68
f 68 66 67
