v 0.21 0.285 0.58700001
v 0.21 0.28418653 0.58717293
v 0.21 0.28351372 0.58766174
v 0.21 0.28309788 0.58838196
v 0.21 0.28301096 0.58920906
v 0.21 0.28326796 0.59
v 0.21 0.28382442 0.59061802
v 0.21 0.28458418 0.59095631
v 0.21 0.28541582 0.59095631
v 0.21 0.28617558 0.59061802
v 0.21 0.28673204 0.59
v 0.21 0.28698904 0.58920906
v 0.21 0.28690212 0.58838196
v 0.21 0.28648628 0.58766174
v 0.21 0.28581347 0.58717293
v 0.35 0.285 0.58700001
v 0.35 0.28581347 0.58717293
v 0.35 0.28648628 0.58766174
v 0.35 0.28690212 0.58838196
v 0.35 0.28698904 0.58920906
v 0.35 0.28673204 0.59
v 0.35 0.28617558 0.59061802
v 0.35 0.28541582 0.59095631
v 0.35 0.28458418 0.59095631
v 0.35 0.28382442 0.59061802
v 0.35 0.28326796 0.59
v 0.35 0.28301096 0.58920906
v 0.35 0.28309788 0.58838196
v 0.35 0.28351372 0.58766174
v 0.35 0.28418653 0.58717293
v 0.21 0.285 0.58700001
v 0.21 0.28581347 0.58717293
v 0.21 0.28648628 0.58766174
v 0.21 0.28690212 0.58838196
v 0.21 0.28698904 0.58920906
v 0.21 0.28673204 0.59
v 0.21 0.28617558 0.59061802
v 0.21 0.28541582 0.59095631
v 0.21 0.28458418 0.59095631
v 0.21 0.28382442 0.59061802
v 0.21 0.28326796 0.59
v 0.21 0.28301096 0.58920906
v 0.21 0.28309788 0.58838196
v 0.21 0.28351372 0.58766174
v 0.21 0.28418653 0.58717293
v 0.35 0.285 0.58700001
v 0.35 0.28418653 0.58717293
v 0.35 0.28351372 0.58766174
v 0.35 0.28309788 0.58838196
v 0.35 0.28301096 0.58920906
v 0.35 0.28326796 0.59
v 0.35 0.28382442 0.59061802
v 0.35 0.28458418 0.59095631
v 0.35 0.28541582 0.59095631
v 0.35 0.28617558 0.59061802
v 0.35 0.28673204 0.59
v 0.35 0.28698904 0.58920906
v 0.35 0.28690212 0.58838196
v 0.35 0.28648628 0.58766174
v 0.35 0.28581347 0.58717293
v 0.21 0.28458418 0.59095631
v 0.35 0.28458418 0.59095631
f 1 2 15
f 15 2 14
f 14 2 3
f 14 3 13
f 13 3 4
f 13 4 12
f 12 4 5
f 12 5 11
f 11 5 6
f 11 6 10
f 10 6 7
f 10 7 9
f 9 7 8
f 16 17 30
f 30 17 18
f 30 18 29
f 29 18 19
f 29 19 28
f 28 19 20
f 28 20 27
f 27 20 21
f 27 21 26
f 26 21 22
f 26 22 25
f 25 22 23
f 25 23 24
f 32 60 31
f 31 60 46
f 31 46 45
f 45 46 47
f 45 47 48
f 32 33 60
f 60 33 59
f 59 33 34
f 59 34 58
f 58 34 35
f 58 35 57
f 57 35 36
f 57 36 56
f 56 36 37
f 56 37 55
f 55 37 38
f 55 38 54
f 54 38 61
f 54 61 53
f 62 39 40
f 62 40 52
f 52 40 41
f 52 41 51
f 51 41 42
f 51 42 50
f 50 42 43
f 50 43 49
f 49 43 44
f 49 44 48
f 48 44 45
