v -0.113 -0.028 0.345
v -0.113 -0.132 0.345
v -0.113 -0.132 0.32099998
v -0.113 -0.028 0.32099998
v -0.113 -0.24 0.495
v -0.113 -0.24021294 0.50107105
v -0.113 -0.2400515 0.50714367
v -0.113 -0.23951628 0.51319485
v -0.113 -0.23860933 0.51920151
v -0.113 -0.23733408 0.52514095
v -0.113 -0.23569536 0.53099052
v -0.113 -0.23369944 0.53672802
v -0.113 -0.23135386 0.5423317
v -0.113 -0.22866753 0.54778027
v -0.113 -0.22565069 0.55305298
v -0.113 -0.22231476 0.55812981
v -0.113 -0.21867243 0.56299156
v -0.113 -0.21473753 0.56761967
v -0.113 -0.210525 0.57199661
v -0.113 -0.20605085 0.57610573
v -0.113 -0.20133207 0.57993145
v -0.113 -0.19638659 0.58345921
v -0.113 -0.19123318 0.58667561
v -0.113 -0.18589144 0.58956844
v -0.113 -0.18038162 0.59212677
v -0.113 -0.17472467 0.59434078
v -0.113 -0.16894209 0.59620216
v -0.113 -0.16305584 0.59770374
v -0.113 -0.15708824 0.59883991
v -0.113 -0.151062 0.59960629
v -0.113 -0.145 0.6
v -0.113 0.14 0.6
v -0.113 0.14 0.315
v -0.113 -0.3 0.315
v -0.11 -0.132 0.345
v -0.11 -0.028 0.345
v -0.11 -0.028 0.32099998
v -0.11 -0.132 0.32099998
v -0.11 -0.145 0.6
v -0.11 -0.151062 0.59960629
v -0.11 -0.15708824 0.59883991
v -0.11 -0.16305584 0.59770374
v -0.11 -0.16894209 0.59620216
v -0.11 -0.17472467 0.59434078
v -0.11 -0.18038162 0.59212677
v -0.11 -0.18589144 0.58956844
v -0.11 -0.19123318 0.58667561
v -0.11 -0.19638659 0.58345921
v -0.11 -0.20133207 0.57993145
v -0.11 -0.20605085 0.57610573
v -0.11 -0.210525 0.57199661
v -0.11 -0.21473753 0.56761967
v -0.11 -0.21867243 0.56299156
v -0.11 -0.22231476 0.55812981
v -0.11 -0.22565069 0.55305298
v -0.11 -0.22866753 0.54778027
v -0.11 -0.23135386 0.5423317
v -0.11 -0.23369944 0.53672802
v -0.11 -0.23569536 0.53099052
v -0.11 -0.23733408 0.52514095
v -0.11 -0.23860933 0.51920151
v -0.11 -0.23951628 0.51319485
v -0.11 -0.2400515 0.50714367
v -0.11 -0.24021294 0.50107105
v -0.11 -0.24 0.495
v -0.11 -0.3 0.315
v -0.11 0.14 0.315
v -0.11 0.14 0.6
v -0.113 -0.145 0.6
v -0.113 -0.151062 0.59960629
v -0.113 -0.15708824 0.59883991
v -0.113 -0.16305584 0.59770374
v -0.113 -0.16894209 0.59620216
v -0.113 -0.17472467 0.59434078
v -0.113 -0.18038162 0.59212677
v -0.113 -0.18589144 0.58956844
v -0.113 -0.19123318 0.58667561
v -0.113 -0.19638659 0.58345921
v -0.113 -0.20133207 0.57993145
v -0.113 -0.20605085 0.57610573
v -0.113 -0.210525 0.57199661
v -0.113 -0.21473753 0.56761967
v -0.113 -0.21867243 0.56299156
v -0.113 -0.22231476 0.55812981
v -0.113 -0.22565069 0.55305298
v -0.113 -0.22866753 0.54778027
v -0.113 -0.23135386 0.5423317
v -0.113 -0.23369944 0.53672802
v -0.113 -0.23569536 0.53099052
v -0.113 -0.23733408 0.52514095
v -0.113 -0.23860933 0.51920151
v -0.113 -0.23951628 0.51319485
v -0.113 -0.2400515 0.50714367
v -0.113 -0.24021294 0.50107105
v -0.113 -0.24 0.495
v -0.11 -0.24 0.495
v -0.11 -0.24021294 0.50107105
v -0.11 -0.2400515 0.50714367
v -0.11 -0.23951628 0.51319485
v -0.11 -0.23860933 0.51920151
v -0.11 -0.23733408 0.52514095
v -0.11 -0.23569536 0.53099052
v -0.11 -0.23369944 0.53672802
v -0.11 -0.23135386 0.5423317
v -0.11 -0.22866753 0.54778027
v -0.11 -0.22565069 0.55305298
v -0.11 -0.22231476 0.55812981
v -0.11 -0.21867243 0.56299156
v -0.11 -0.21473753 0.56761967
v -0.11 -0.210525 0.57199661
v -0.11 -0.20605085 0.57610573
v -0.11 -0.20133207 0.57993145
v -0.11 -0.19638659 0.58345921
v -0.11 -0.19123318 0.58667561
v -0.11 -0.18589144 0.58956844
v -0.11 -0.18038162 0.59212677
v -0.11 -0.17472467 0.59434078
v -0.11 -0.16894209 0.59620216
v -0.11 -0.16305584 0.59770374
v -0.11 -0.15708824 0.59883991
v -0.11 -0.151062 0.59960629
v -0.11 -0.145 0.6
v -0.113 -0.24 0.495
v -0.113 -0.3 0.315
v -0.11 -0.3 0.315
v -0.11 -0.24 0.495
v -0.113 -0.3 0.315
v -0.113 0.14 0.315
v -0.11 0.14 0.315
v -0.11 -0.3 0.315
v -0.113 0.14 0.315
v -0.113 0.14 0.6
v -0.11 0.14 0.6
v -0.11 0.14 0.315
v -0.113 0.14 0.6
v -0.113 -0.145 0.6
v -0.11 -0.145 0.6
v -0.11 0.14 0.6
v -0.11 -0.132 0.32099998
v -0.11 -0.028 0.32099998
v -0.113 -0.028 0.32099998
v -0.113 -0.132 0.32099998
v -0.11 -0.132 0.345
v -0.11 -0.132 0.32099998
v -0.113 -0.132 0.32099998
v -0.113 -0.132 0.345
v -0.11 -0.028 0.32099998
v -0.11 -0.028 0.345
v -0.113 -0.028 0.345
v -0.113 -0.028 0.32099998
v -0.11 -0.028 0.345
v -0.11 -0.132 0.345
v -0.113 -0.132 0.345
v -0.113 -0.028 0.345
f 2 5 1
f 1 5 31
f 1 31 32
f 5 2 34
f 34 2 3
f 34 3 4
f 34 4 33
f 33 4 1
f 33 1 32
f 5 6 31
f 31 6 7
f 31 7 8
f 8 9 31
f 31 9 10
f 31 10 11
f 11 12 31
f 31 12 13
f 31 13 14
f 14 15 31
f 31 15 16
f 31 16 17
f 17 18 31
f 31 18 19
f 31 19 20
f 20 21 31
f 31 21 22
f 31 22 23
f 23 24 31
f 31 24 25
f 31 25 26
f 26 27 31
f 31 27 28
f 31 28 29
f 29 30 31
f 36 65 35
f 35 65 66
f 35 66 38
f 38 66 37
f 37 66 67
f 37 67 36
f 36 67 68
f 36 68 39
f 40 41 39
f 39 41 42
f 39 42 43
f 43 44 39
f 39 44 45
f 39 45 46
f 46 47 39
f 39 47 48
f 39 48 49
f 49 50 39
f 39 50 51
f 39 51 52
f 52 53 39
f 39 53 54
f 39 54 55
f 55 56 39
f 39 56 57
f 39 57 58
f 58 59 39
f 39 59 60
f 39 60 61
f 61 62 39
f 39 62 63
f 39 63 64
f 64 65 39
f 39 65 36
f 122 69 121
f 121 69 70
f 121 70 120
f 120 70 71
f 120 71 119
f 119 71 72
f 119 72 118
f 118 72 73
f 118 73 117
f 117 73 74
f 117 74 116
f 116 74 75
f 116 75 115
f 115 75 76
f 115 76 114
f 114 76 77
f 114 77 113
f 113 77 78
f 113 78 112
f 112 78 79
f 112 79 111
f 111 79 80
f 111 80 110
f 110 80 81
f 110 81 109
f 109 81 82
f 109 82 108
f 108 82 83
f 108 83 107
f 107 83 84
f 107 84 106
f 106 84 85
f 106 85 105
f 105 85 86
f 105 86 104
f 104 86 87
f 104 87 103
f 103 87 88
f 103 88 102
f 102 88 89
f 102 89 101
f 101 89 90
f 101 90 100
f 100 90 91
f 100 91 99
f 99 91 92
f 99 92 98
f 98 92 93
f 98 93 97
f 97 93 94
f 97 94 96
f 96 94 95
f 123 124 126
f 126 124 125
f 127 128 130
f 130 128 129
f 131 132 134
f 134 132 133
f 135 136 138
f 138 136 137
f 139 140 142
f 142 140 141
f 143 144 146
f 146 144 145
f 147 148 150
f 150 148 149
f 151 152 154
f 154 152 153
