v 0.046437654 0.14063807 9.9999998e-05
v 0.04661119 0.14143861 9.9999998e-05
v 0.046669035 0.14245634 9.9999998e-05
v 0.046669035 0.14245634 0.000125
v 0.04661119 0.14143861 0.000125
v 0.046437654 0.14063807 0.000125
v 0.045745707 0.13956848 9.9999998e-05
v 0.046148982 0.14002469 9.9999998e-05
v 0.046437654 0.14063807 9.9999998e-05
v 0.046437654 0.14063807 0.000125
v 0.046148982 0.14002469 0.000125
v 0.045745707 0.13956848 0.000125
v 0.046669035 0.14245634 9.9999998e-05
v 0.046633019 0.14331037 9.9999998e-05
v 0.046524973 0.14396903 9.9999998e-05
v 0.046524973 0.14396903 0.000125
v 0.046633019 0.14331037 0.000125
v 0.046669035 0.14245634 0.000125
v 0.044582272 0.13919086 9.9999998e-05
v 0.045224562 0.13928527 9.9999998e-05
v 0.045745707 0.13956848 9.9999998e-05
v 0.045745707 0.13956848 0.000125
v 0.045224562 0.13928527 0.000125
v 0.044582272 0.13919086 0.000125
v 0.046524973 0.14396903 9.9999998e-05
v 0.046353621 0.14448745 9.9999998e-05
v 0.046127701 0.14492074 9.9999998e-05
v 0.046127701 0.14492074 0.000125
v 0.046353621 0.14448745 0.000125
v 0.046524973 0.14396903 0.000125
v 0.043128519 0.13985443 9.9999998e-05
v 0.04375608 0.13935676 9.9999998e-05
v 0.044582272 0.13919086 9.9999998e-05
v 0.044582272 0.13919086 0.000125
v 0.04375608 0.13935676 0.000125
v 0.043128519 0.13985443 0.000125
v 0.046127701 0.14492074 9.9999998e-05
v 0.045840659 0.14526562 9.9999998e-05
v 0.045485954 0.14551883 9.9999998e-05
v 0.045485954 0.14551883 0.000125
v 0.045840659 0.14526562 0.000125
v 0.046127701 0.14492074 0.000125
v 0.042495503 0.14245634 9.9999998e-05
v 0.042535067 0.1416176 9.9999998e-05
v 0.042653756 0.14090437 9.9999998e-05
v 0.042851577 0.14031665 9.9999998e-05
v 0.043128519 0.13985443 9.9999998e-05
v 0.043128519 0.13985443 0.000125
v 0.042851577 0.14031665 0.000125
v 0.042653756 0.14090437 0.000125
v 0.042535067 0.1416176 0.000125
v 0.042495503 0.14245634 0.000125
v 0.045485954 0.14551883 9.9999998e-05
v 0.045065765 0.14567435 9.9999998e-05
v 0.044582272 0.14572619 9.9999998e-05
v 0.044582272 0.14572619 0.000125
v 0.045065765 0.14567435 0.000125
v 0.045485954 0.14551883 0.000125
v 0.044582272 0.14572619 9.9999998e-05
v 0.043943253 0.14563233 9.9999998e-05
v 0.043423195 0.14535075 9.9999998e-05
v 0.043423195 0.14535075 0.000125
v 0.043943253 0.14563233 0.000125
v 0.044582272 0.14572619 0.000125
v 0.043423195 0.14535075 9.9999998e-05
v 0.043019376 0.14489618 9.9999998e-05
v 0.042729063 0.14428335 9.9999998e-05
v 0.042729063 0.14428335 0.000125
v 0.043019376 0.14489618 0.000125
v 0.043423195 0.14535075 0.000125
v 0.042729063 0.14428335 9.9999998e-05
v 0.042553892 0.14348063 9.9999998e-05
v 0.042495503 0.14245634 9.9999998e-05
v 0.042495503 0.14245634 0.000125
v 0.042553892 0.14348063 0.000125
v 0.042729063 0.14428335 0.000125
v 0.042495503 0.14245634 0.000125
v 0.042535067 0.1416176 0.000125
v 0.042653756 0.14090437 0.000125
v 0.042851577 0.14031665 0.000125
v 0.043128519 0.13985443 0.000125
v 0.04375608 0.13935676 0.000125
v 0.044582272 0.13919086 0.000125
v 0.045224562 0.13928527 0.000125
v 0.045745707 0.13956848 0.000125
v 0.046148982 0.14002469 0.000125
v 0.046437654 0.14063807 0.000125
v 0.04661119 0.14143861 0.000125
v 0.046669035 0.14245634 0.000125
v 0.046633019 0.14331037 0.000125
v 0.046524973 0.14396903 0.000125
v 0.046353621 0.14448745 0.000125
v 0.046127701 0.14492074 0.000125
v 0.045840659 0.14526562 0.000125
v 0.045485954 0.14551883 0.000125
v 0.045065765 0.14567435 0.000125
v 0.044582272 0.14572619 0.000125
v 0.043943253 0.14563233 0.000125
v 0.043423195 0.14535075 0.000125
v 0.043019376 0.14489618 0.000125
v 0.042729063 0.14428335 0.000125
v 0.042553892 0.14348063 0.000125
v 0.043303142 0.14245634 0.000125
v 0.043328519 0.1431824 0.000125
v 0.043404641 0.14378458 0.000125
v 0.043531518 0.1442629 0.000125
v 0.043709145 0.14461733 0.000125
v 0.044086771 0.14496112 0.000125
v 0.044573536 0.14507571 0.000125
v 0.045078311 0.14494584 0.000125
v 0.045492501 0.14455621 0.000125
v 0.045653896 0.14423015 0.000125
v 0.045769172 0.14377149 0.000125
v 0.045838342 0.14318022 0.000125
v 0.045861397 0.14245634 0.000125
v 0.045838342 0.14173602 0.000125
v 0.045769172 0.14114666 0.000125
v 0.045653896 0.14068827 0.000125
v 0.045492501 0.14036084 0.000125
v 0.045080495 0.13996794 0.000125
v 0.044582272 0.13983697 0.000125
v 0.044084044 0.13996739 0.000125
v 0.043672037 0.14035867 0.000125
v 0.043510647 0.14068541 0.000125
v 0.043395367 0.14114393 0.000125
v 0.043326197 0.14173425 0.000125
v 0.043303142 0.14245634 9.9999998e-05
v 0.043328519 0.1431824 9.9999998e-05
v 0.043404641 0.14378458 9.9999998e-05
v 0.043531518 0.1442629 9.9999998e-05
v 0.043709145 0.14461733 9.9999998e-05
v 0.043709145 0.14461733 0.000125
v 0.043531518 0.1442629 0.000125
v 0.043404641 0.14378458 0.000125
v 0.043328519 0.1431824 0.000125
v 0.043303142 0.14245634 0.000125
v 0.043709145 0.14461733 9.9999998e-05
v 0.044086771 0.14496112 9.9999998e-05
v 0.044573536 0.14507571 9.9999998e-05
v 0.044573536 0.14507571 0.000125
v 0.044086771 0.14496112 0.000125
v 0.043709145 0.14461733 0.000125
v 0.043128519 0.13985443 9.9999998e-05
v 0.042851577 0.14031665 9.9999998e-05
v 0.042653756 0.14090437 9.9999998e-05
v 0.042535067 0.1416176 9.9999998e-05
v 0.042495503 0.14245634 9.9999998e-05
v 0.042553892 0.14348063 9.9999998e-05
v 0.042729063 0.14428335 9.9999998e-05
v 0.043019376 0.14489618 9.9999998e-05
v 0.043423195 0.14535075 9.9999998e-05
v 0.043943253 0.14563233 9.9999998e-05
v 0.044582272 0.14572619 9.9999998e-05
v 0.045065765 0.14567435 9.9999998e-05
v 0.045485954 0.14551883 9.9999998e-05
v 0.045840659 0.14526562 9.9999998e-05
v 0.046127701 0.14492074 9.9999998e-05
v 0.046353621 0.14448745 9.9999998e-05
v 0.046524973 0.14396903 9.9999998e-05
v 0.046633019 0.14331037 9.9999998e-05
v 0.046669035 0.14245634 9.9999998e-05
v 0.04661119 0.14143861 9.9999998e-05
v 0.046437654 0.14063807 9.9999998e-05
v 0.046148982 0.14002469 9.9999998e-05
v 0.045745707 0.13956848 9.9999998e-05
v 0.045224562 0.13928527 9.9999998e-05
v 0.044582272 0.13919086 9.9999998e-05
v 0.04375608 0.13935676 9.9999998e-05
v 0.043709145 0.14461733 9.9999998e-05
v 0.043531518 0.1442629 9.9999998e-05
v 0.043404641 0.14378458 9.9999998e-05
v 0.043328519 0.1431824 9.9999998e-05
v 0.043303142 0.14245634 9.9999998e-05
v 0.043326197 0.14173425 9.9999998e-05
v 0.043395367 0.14114393 9.9999998e-05
v 0.043510647 0.14068541 9.9999998e-05
v 0.043672037 0.14035867 9.9999998e-05
v 0.044084044 0.13996739 9.9999998e-05
v 0.044582272 0.13983697 9.9999998e-05
v 0.045080495 0.13996794 9.9999998e-05
v 0.045492501 0.14036084 9.9999998e-05
v 0.045653896 0.14068827 9.9999998e-05
v 0.045769172 0.14114666 9.9999998e-05
v 0.045838342 0.14173602 9.9999998e-05
v 0.045861397 0.14245634 9.9999998e-05
v 0.045838342 0.14318022 9.9999998e-05
v 0.045769172 0.14377149 9.9999998e-05
v 0.045653896 0.14423015 9.9999998e-05
v 0.045492501 0.14455621 9.9999998e-05
v 0.045078311 0.14494584 9.9999998e-05
v 0.044573536 0.14507571 9.9999998e-05
v 0.044086771 0.14496112 9.9999998e-05
v 0.044573536 0.14507571 9.9999998e-05
v 0.045078311 0.14494584 9.9999998e-05
v 0.045492501 0.14455621 9.9999998e-05
v 0.045492501 0.14455621 0.000125
v 0.045078311 0.14494584 0.000125
v 0.044573536 0.14507571 0.000125
v 0.045492501 0.14455621 9.9999998e-05
v 0.045653896 0.14423015 9.9999998e-05
v 0.045769172 0.14377149 9.9999998e-05
v 0.045838342 0.14318022 9.9999998e-05
v 0.045861397 0.14245634 9.9999998e-05
v 0.045861397 0.14245634 0.000125
v 0.045838342 0.14318022 0.000125
v 0.045769172 0.14377149 0.000125
v 0.045653896 0.14423015 0.000125
v 0.045492501 0.14455621 0.000125
v 0.045861397 0.14245634 9.9999998e-05
v 0.045838342 0.14173602 9.9999998e-05
v 0.045769172 0.14114666 9.9999998e-05
v 0.045653896 0.14068827 9.9999998e-05
v 0.045492501 0.14036084 9.9999998e-05
v 0.045492501 0.14036084 0.000125
v 0.045653896 0.14068827 0.000125
v 0.045769172 0.14114666 0.000125
v 0.045838342 0.14173602 0.000125
v 0.045861397 0.14245634 0.000125
v 0.045492501 0.14036084 9.9999998e-05
v 0.045080495 0.13996794 9.9999998e-05
v 0.044582272 0.13983697 9.9999998e-05
v 0.044582272 0.13983697 0.000125
v 0.045080495 0.13996794 0.000125
v 0.045492501 0.14036084 0.000125
v 0.044582272 0.13983697 9.9999998e-05
v 0.044084044 0.13996739 9.9999998e-05
v 0.043672037 0.14035867 9.9999998e-05
v 0.043672037 0.14035867 0.000125
v 0.044084044 0.13996739 0.000125
v 0.044582272 0.13983697 0.000125
v 0.043672037 0.14035867 9.9999998e-05
v 0.043510647 0.14068541 9.9999998e-05
v 0.043395367 0.14114393 9.9999998e-05
v 0.043326197 0.14173425 9.9999998e-05
v 0.043303142 0.14245634 9.9999998e-05
v 0.043303142 0.14245634 0.000125
v 0.043326197 0.14173425 0.000125
v 0.043395367 0.14114393 0.000125
v 0.043510647 0.14068541 0.000125
v 0.043672037 0.14035867 0.000125
f 1 2 6
f 6 2 5
f 5 2 3
f 5 3 4
f 7 8 12
f 12 8 11
f 11 8 9
f 11 9 10
f 13 14 18
f 18 14 17
f 17 14 15
f 17 15 16
f 19 20 24
f 24 20 23
f 23 20 21
f 23 21 22
f 25 26 30
f 30 26 29
f 29 26 27
f 29 27 28
f 31 32 36
f 36 32 35
f 35 32 33
f 35 33 34
f 37 38 42
f 42 38 41
f 41 38 39
f 41 39 40
f 43 44 52
f 52 44 51
f 51 44 45
f 51 45 50
f 50 45 46
f 50 46 49
f 49 46 47
f 49 47 48
f 53 54 58
f 58 54 57
f 57 54 55
f 57 55 56
f 59 60 64
f 64 60 63
f 63 60 61
f 63 61 62
f 65 66 70
f 70 66 69
f 69 66 67
f 69 67 68
f 71 72 76
f 76 72 75
f 75 72 73
f 75 73 74
f 78 103 77
f 77 103 104
f 77 104 102
f 102 104 105
f 102 105 101
f 101 105 106
f 101 106 100
f 100 106 107
f 100 107 99
f 99 107 108
f 99 108 98
f 98 108 109
f 98 109 97
f 97 109 96
f 96 109 110
f 96 110 95
f 95 110 111
f 95 111 94
f 94 111 93
f 93 111 112
f 93 112 92
f 92 112 113
f 92 113 91
f 91 113 114
f 91 114 90
f 90 114 115
f 90 115 89
f 89 115 116
f 89 116 88
f 88 116 117
f 88 117 87
f 87 117 118
f 87 118 86
f 86 118 119
f 86 119 85
f 85 119 120
f 85 120 84
f 84 120 121
f 84 121 83
f 83 121 122
f 83 122 82
f 82 122 123
f 82 123 81
f 81 123 124
f 81 124 80
f 80 124 125
f 80 125 79
f 79 125 126
f 79 126 78
f 78 126 103
f 127 128 136
f 136 128 135
f 135 128 129
f 135 129 134
f 134 129 130
f 134 130 133
f 133 130 131
f 133 131 132
f 137 138 142
f 142 138 141
f 141 138 139
f 141 139 140
f 144 176 143
f 143 176 177
f 143 177 168
f 168 177 178
f 168 178 167
f 167 178 179
f 167 179 166
f 166 179 180
f 166 180 165
f 165 180 181
f 165 181 164
f 164 181 182
f 164 182 163
f 163 182 183
f 163 183 162
f 162 183 184
f 162 184 161
f 161 184 185
f 161 185 160
f 160 185 186
f 160 186 159
f 159 186 187
f 159 187 158
f 158 187 188
f 158 188 157
f 157 188 189
f 157 189 156
f 156 189 155
f 155 189 190
f 155 190 154
f 154 190 191
f 154 191 153
f 153 191 152
f 152 191 192
f 152 192 151
f 151 192 169
f 151 169 150
f 150 169 170
f 150 170 149
f 149 170 171
f 149 171 148
f 148 171 172
f 148 172 147
f 147 172 173
f 147 173 146
f 146 173 174
f 146 174 145
f 145 174 175
f 145 175 144
f 144 175 176
f 193 194 198
f 198 194 197
f 197 194 195
f 197 195 196
f 199 200 208
f 208 200 207
f 207 200 201
f 207 201 206
f 206 201 202
f 206 202 205
f 205 202 203
f 205 203 204
f 209 210 218
f 218 210 217
f 217 210 211
f 217 211 216
f 216 211 212
f 216 212 215
f 215 212 213
f 215 213 214
f 219 220 224
f 224 220 223
f 223 220 221
f 223 221 222
f 225 226 230
f 230 226 229
f 229 226 227
f 229 227 228
f 231 232 240
f 240 232 239
f 239 232 233
f 239 233 238
f 238 233 234
f 238 234 237
f 237 234 235
f 237 235 236
