v 0.17262142 -0.29875 0.24332851
v 0.17292578 -0.29875 0.24285
v 0.17292578 -0.29886999 0.24285
v 0.17262142 -0.29886999 0.24332851
v 0.17292578 -0.29875 0.24285
v 0.1733086 -0.29875 0.24285
v 0.1733086 -0.29886999 0.24285
v 0.17292578 -0.29886999 0.24285
v 0.17240177 -0.29875 0.24364544
v 0.17262142 -0.29875 0.24332851
v 0.17262142 -0.29886999 0.24332851
v 0.17240177 -0.29886999 0.24364544
v 0.1733086 -0.29875 0.24285
v 0.17290854 -0.29875 0.24347599
v 0.17290854 -0.29886999 0.24347599
v 0.1733086 -0.29886999 0.24285
v 0.17224724 -0.29875 0.24379919
v 0.17240177 -0.29875 0.24364544
v 0.17240177 -0.29886999 0.24364544
v 0.17224724 -0.29886999 0.24379919
v 0.17290854 -0.29875 0.24347599
v 0.17265593 -0.29875 0.24378193
v 0.17265593 -0.29886999 0.24378193
v 0.17290854 -0.29886999 0.24347599
v 0.17210838 -0.29875 0.24386036
v 0.17224724 -0.29875 0.24379919
v 0.17224724 -0.29886999 0.24379919
v 0.17210838 -0.29886999 0.24386036
v 0.17265593 -0.29875 0.24378193
v 0.17247238 -0.29875 0.24389645
v 0.17247238 -0.29886999 0.24389645
v 0.17265593 -0.29886999 0.24378193
v 0.17193895 -0.29875 0.24387135
v 0.17210838 -0.29875 0.24386036
v 0.17210838 -0.29886999 0.24386036
v 0.17193895 -0.29886999 0.24387135
v 0.17247238 -0.29875 0.24389645
v 0.17276026 -0.29875 0.24397255
v 0.17296186 -0.29875 0.24410982
v 0.17296186 -0.29886999 0.24410982
v 0.17276026 -0.29886999 0.24397255
v 0.17247238 -0.29886999 0.24389645
v 0.17158594 -0.29875 0.24387135
v 0.17193895 -0.29875 0.24387135
v 0.17193895 -0.29886999 0.24387135
v 0.17158594 -0.29886999 0.24387135
v 0.17296186 -0.29875 0.24410982
v 0.17312033 -0.29875 0.24452244
v 0.17312033 -0.29886999 0.24452244
v 0.17296186 -0.29886999 0.24410982
v 0.17158594 -0.29875 0.24285
v 0.17158594 -0.29875 0.24387135
v 0.17158594 -0.29886999 0.24387135
v 0.17158594 -0.29886999 0.24285
v 0.17312033 -0.29875 0.24452244
v 0.17302462 -0.29875 0.24486917
v 0.17302462 -0.29886999 0.24486917
v 0.17312033 -0.29886999 0.24452244
v 0.17128159 -0.29875 0.24285
v 0.17158594 -0.29875 0.24285
v 0.17158594 -0.29886999 0.24285
v 0.17128159 -0.29886999 0.24285
v 0.17302462 -0.29875 0.24486917
v 0.1727689 -0.29875 0.24508802
v 0.1727689 -0.29886999 0.24508802
v 0.17302462 -0.29886999 0.24486917
v 0.1727689 -0.29875 0.24508802
v 0.17230137 -0.29875 0.24514999
v 0.17230137 -0.29886999 0.24514999
v 0.1727689 -0.29886999 0.24508802
v 0.17230137 -0.29875 0.24514999
v 0.17128159 -0.29875 0.24514999
v 0.17128159 -0.29886999 0.24514999
v 0.17230137 -0.29886999 0.24514999
v 0.17128159 -0.29875 0.24514999
v 0.17128159 -0.29875 0.24285
v 0.17128159 -0.29886999 0.24285
v 0.17128159 -0.29886999 0.24514999
v 0.17128159 -0.29886999 0.24285
v 0.17158594 -0.29886999 0.24285
v 0.17158594 -0.29886999 0.24387135
v 0.17193895 -0.29886999 0.24387135
v 0.17210838 -0.29886999 0.24386036
v 0.17224724 -0.29886999 0.24379919
v 0.17240177 -0.29886999 0.24364544
v 0.17262142 -0.29886999 0.24332851
v 0.17292578 -0.29886999 0.24285
v 0.1733086 -0.29886999 0.24285
v 0.17290854 -0.29886999 0.24347599
v 0.17265593 -0.29886999 0.24378193
v 0.17247238 -0.29886999 0.24389645
v 0.17276026 -0.29886999 0.24397255
v 0.17296186 -0.29886999 0.24410982
v 0.17312033 -0.29886999 0.24452244
v 0.17302462 -0.29886999 0.24486917
v 0.1727689 -0.29886999 0.24508802
v 0.17230137 -0.29886999 0.24514999
v 0.17128159 -0.29886999 0.24514999
v 0.17158594 -0.29886999 0.24413492
v 0.17158594 -0.29886999 0.24489584
v 0.17231392 -0.29886999 0.24489584
v 0.1726881 -0.29886999 0.24479073
v 0.17280655 -0.29886999 0.24452244
v 0.17274536 -0.29886999 0.24431614
v 0.17256651 -0.29886999 0.24417807
v 0.17224018 -0.29886999 0.24413492
v 0.17158594 -0.29875 0.24413492
v 0.17158594 -0.29875 0.24489584
v 0.17158594 -0.29886999 0.24489584
v 0.17158594 -0.29886999 0.24413492
v 0.17158594 -0.29875 0.24489584
v 0.17231392 -0.29875 0.24489584
v 0.17231392 -0.29886999 0.24489584
v 0.17158594 -0.29886999 0.24489584
v 0.17158594 -0.29875 0.24285
v 0.17128159 -0.29875 0.24285
v 0.17128159 -0.29875 0.24514999
v 0.17230137 -0.29875 0.24514999
v 0.1727689 -0.29875 0.24508802
v 0.17302462 -0.29875 0.24486917
v 0.17312033 -0.29875 0.24452244
v 0.17296186 -0.29875 0.24410982
v 0.17276026 -0.29875 0.24397255
v 0.17247238 -0.29875 0.24389645
v 0.17265593 -0.29875 0.24378193
v 0.17290854 -0.29875 0.24347599
v 0.1733086 -0.29875 0.24285
v 0.17292578 -0.29875 0.24285
v 0.17262142 -0.29875 0.24332851
v 0.17240177 -0.29875 0.24364544
v 0.17224724 -0.29875 0.24379919
v 0.17210838 -0.29875 0.24386036
v 0.17193895 -0.29875 0.24387135
v 0.17158594 -0.29875 0.24387135
v 0.17158594 -0.29875 0.24489584
v 0.17158594 -0.29875 0.24413492
v 0.17224018 -0.29875 0.24413492
v 0.17256651 -0.29875 0.24417807
v 0.17274536 -0.29875 0.24431614
v 0.17280655 -0.29875 0.24452244
v 0.1726881 -0.29875 0.24479073
v 0.17231392 -0.29875 0.24489584
v 0.17231392 -0.29875 0.24489584
v 0.1726881 -0.29875 0.24479073
v 0.1726881 -0.29886999 0.24479073
v 0.17231392 -0.29886999 0.24489584
v 0.1726881 -0.29875 0.24479073
v 0.17280655 -0.29875 0.24452244
v 0.17280655 -0.29886999 0.24452244
v 0.1726881 -0.29886999 0.24479073
v 0.17280655 -0.29875 0.24452244
v 0.17274536 -0.29875 0.24431614
v 0.17274536 -0.29886999 0.24431614
v 0.17280655 -0.29886999 0.24452244
v 0.17274536 -0.29875 0.24431614
v 0.17256651 -0.29875 0.24417807
v 0.17256651 -0.29886999 0.24417807
v 0.17274536 -0.29886999 0.24431614
v 0.17256651 -0.29875 0.24417807
v 0.17224018 -0.29875 0.24413492
v 0.17224018 -0.29886999 0.24413492
v 0.17256651 -0.29886999 0.24417807
v 0.17224018 -0.29875 0.24413492
v 0.17158594 -0.29875 0.24413492
v 0.17158594 -0.29886999 0.24413492
v 0.17224018 -0.29886999 0.24413492
f 1 2 4
f 4 2 3
f 5 6 8
f 8 6 7
f 9 10 12
f 12 10 11
f 13 14 16
f 16 14 15
f 17 18 20
f 20 18 19
f 21 22 24
f 24 22 23
f 25 26 28
f 28 26 27
f 29 30 32
f 32 30 31
f 33 34 36
f 36 34 35
f 37 38 42
f 42 38 41
f 41 38 39
f 41 39 40
f 43 44 46
f 46 44 45
f 47 48 50
f 50 48 49
f 51 52 54
f 54 52 53
f 55 56 58
f 58 56 57
f 59 60 62
f 62 60 61
f 63 64 66
f 66 64 65
f 67 68 70
f 70 68 69
f 71 72 74
f 74 72 73
f 75 76 78
f 78 76 77
f 80 81 79
f 79 81 98
f 98 81 99
f 98 99 100
f 81 82 99
f 99 82 106
f 106 82 83
f 106 83 84
f 106 84 91
f 91 84 85
f 91 85 90
f 90 85 86
f 90 86 89
f 89 86 87
f 89 87 88
f 106 91 105
f 105 91 92
f 105 92 104
f 104 92 93
f 104 93 103
f 103 93 94
f 103 94 95
f 103 95 102
f 102 95 96
f 102 96 101
f 101 96 97
f 101 97 100
f 100 97 98
f 107 108 110
f 110 108 109
f 111 112 114
f 114 112 113
f 115 116 134
f 134 116 117
f 134 117 136
f 136 117 135
f 135 117 118
f 135 118 142
f 142 118 119
f 142 119 141
f 141 119 120
f 141 120 140
f 140 120 121
f 140 121 122
f 140 122 139
f 139 122 123
f 139 123 138
f 138 123 124
f 138 124 137
f 137 124 131
f 137 131 132
f 131 124 130
f 130 124 125
f 130 125 129
f 129 125 126
f 129 126 128
f 128 126 127
f 132 133 137
f 137 133 136
f 136 133 134
f 143 144 146
f 146 144 145
f 147 148 150
f 150 148 149
f 151 152 154
f 154 152 153
f 155 156 158
f 158 156 157
f 159 160 162
f 162 160 161
f 163 164 166
f 166 164 165
