v 0.81684998 0.22317606 0.3607011
v 0.81684998 0.096491251 0.27629372
v 0.98084999 0.096491251 0.27629372
v 0.98084999 0.22317606 0.3607011
v 0.81684998 0.2233424 0.36045147
v 0.81684998 0.22317606 0.3607011
v 0.98084999 0.22317606 0.3607011
v 0.98084999 0.2233424 0.36045147
v 0.81684998 0.096657591 0.27604404
v 0.81684998 0.2233424 0.36045147
v 0.98084999 0.2233424 0.36045147
v 0.98084999 0.096657591 0.27604404
v 0.81684998 0.096491251 0.27629372
v 0.81684998 0.096657591 0.27604404
v 0.98084999 0.096657591 0.27604404
v 0.98084999 0.096491251 0.27629372
v 0.98084999 0.096491251 0.27629372
v 0.98084999 0.096657591 0.27604404
v 0.98084999 0.2233424 0.36045147
v 0.98084999 0.22317606 0.3607011
v 0.81684998 0.096657591 0.27604404
v 0.81684998 0.096491251 0.27629372
v 0.81684998 0.22317606 0.3607011
v 0.81684998 0.2233424 0.36045147
f 1 2 4
f 4 2 3
f 5 6 8
f 8 6 7
f 9 10 12
f 12 10 11
f 13 14 16
f 16 14 15
f 18 19 17
f 17 19 20
f 21 22 24
f 24 22 23
