v 0.029660983 -0.29870001 0.19494884
v 0.030389495 -0.29870001 0.19513403
v 0.030389495 -0.29882 0.19513403
v 0.029660983 -0.29882 0.19494884
v 0.030389495 -0.29870001 0.19513403
v 0.030688779 -0.29870001 0.19536297
v 0.030911324 -0.29870001 0.1956794
v 0.030911324 -0.29882 0.1956794
v 0.030688779 -0.29882 0.19536297
v 0.030389495 -0.29882 0.19513403
v 0.028903821 -0.29870001 0.19515348
v 0.029259892 -0.29870001 0.195
v 0.029660983 -0.29870001 0.19494884
v 0.029660983 -0.29882 0.19494884
v 0.029259892 -0.29882 0.195
v 0.028903821 -0.29882 0.19515348
v 0.030911324 -0.29870001 0.1956794
v 0.031049454 -0.29870001 0.19606361
v 0.031095498 -0.29870001 0.19649591
v 0.031095498 -0.29882 0.19649591
v 0.031049454 -0.29882 0.19606361
v 0.030911324 -0.29882 0.1956794
v 0.028398364 -0.29870001 0.19571215
v 0.028610675 -0.29870001 0.19539547
v 0.028903821 -0.29870001 0.19515348
v 0.028903821 -0.29882 0.19515348
v 0.028610675 -0.29882 0.19539547
v 0.028398364 -0.29882 0.19571215
v 0.031095498 -0.29870001 0.19649591
v 0.030920532 -0.29870001 0.19730116
v 0.030920532 -0.29882 0.19730116
v 0.031095498 -0.29882 0.19649591
v 0.028226466 -0.29870001 0.19646112
v 0.028398364 -0.29870001 0.19571215
v 0.028398364 -0.29882 0.19571215
v 0.028226466 -0.29882 0.19646112
v 0.030920532 -0.29870001 0.19730116
v 0.030705917 -0.29870001 0.19761707
v 0.030412006 -0.29870001 0.19785471
v 0.030412006 -0.29882 0.19785471
v 0.030705917 -0.29882 0.19761707
v 0.030920532 -0.29882 0.19730116
v 0.030412006 -0.29870001 0.19785471
v 0.030057981 -0.29870001 0.19800358
v 0.029663029 -0.29870001 0.19805321
v 0.029663029 -0.29882 0.19805321
v 0.030057981 -0.29882 0.19800358
v 0.030412006 -0.29882 0.19785471
v 0.029663029 -0.29870001 0.19805321
v 0.029086971 -0.29870001 0.19794756
v 0.028627558 -0.29870001 0.19763063
v 0.028627558 -0.29882 0.19763063
v 0.029086971 -0.29882 0.19794756
v 0.029663029 -0.29882 0.19805321
v 0.028627558 -0.29870001 0.19763063
v 0.02832674 -0.29870001 0.19712696
v 0.028226466 -0.29870001 0.19646112
v 0.028226466 -0.29882 0.19646112
v 0.02832674 -0.29882 0.19712696
v 0.028627558 -0.29882 0.19763063
v 0.028226466 -0.29882 0.19646112
v 0.028398364 -0.29882 0.19571215
v 0.028610675 -0.29882 0.19539547
v 0.028903821 -0.29882 0.19515348
v 0.029259892 -0.29882 0.195
v 0.029660983 -0.29882 0.19494884
v 0.030389495 -0.29882 0.19513403
v 0.030688779 -0.29882 0.19536297
v 0.030911324 -0.29882 0.1956794
v 0.031049454 -0.29882 0.19606361
v 0.031095498 -0.29882 0.19649591
v 0.030920532 -0.29882 0.19730116
v 0.030705917 -0.29882 0.19761707
v 0.030412006 -0.29882 0.19785471
v 0.030057981 -0.29882 0.19800358
v 0.029663029 -0.29882 0.19805321
v 0.029086971 -0.29882 0.19794756
v 0.028627558 -0.29882 0.19763063
v 0.02832674 -0.29882 0.19712696
v 0.028635743 -0.29882 0.19645498
v 0.028711715 -0.29882 0.19703539
v 0.028939631 -0.29882 0.19742189
v 0.029272935 -0.29882 0.19763906
v 0.029665074 -0.29882 0.19771147
v 0.030200205 -0.29882 0.19756105
v 0.030562415 -0.29882 0.19713745
v 0.030686221 -0.29882 0.19649796
v 0.03061383 -0.29882 0.19598482
v 0.030396657 -0.29882 0.19560368
v 0.030067446 -0.29882 0.19536732
v 0.029658935 -0.29882 0.19528854
v 0.029256053 -0.29882 0.19536655
v 0.028927352 -0.29882 0.19560061
v 0.028708646 -0.29882 0.19597025
v 0.028939631 -0.29870001 0.19742189
v 0.029272935 -0.29870001 0.19763906
v 0.029665074 -0.29870001 0.19771147
v 0.029665074 -0.29882 0.19771147
v 0.029272935 -0.29882 0.19763906
v 0.028939631 -0.29882 0.19742189
v 0.028635743 -0.29870001 0.19645498
v 0.028711715 -0.29870001 0.19703539
v 0.028939631 -0.29870001 0.19742189
v 0.028939631 -0.29882 0.19742189
v 0.028711715 -0.29882 0.19703539
v 0.028635743 -0.29882 0.19645498
v 0.029665074 -0.29870001 0.19771147
v 0.030200205 -0.29870001 0.19756105
v 0.030200205 -0.29882 0.19756105
v 0.029665074 -0.29882 0.19771147
v 0.028398364 -0.29870001 0.19571215
v 0.028226466 -0.29870001 0.19646112
v 0.02832674 -0.29870001 0.19712696
v 0.028627558 -0.29870001 0.19763063
v 0.029086971 -0.29870001 0.19794756
v 0.029663029 -0.29870001 0.19805321
v 0.030057981 -0.29870001 0.19800358
v 0.030412006 -0.29870001 0.19785471
v 0.030705917 -0.29870001 0.19761707
v 0.030920532 -0.29870001 0.19730116
v 0.031095498 -0.29870001 0.19649591
v 0.031049454 -0.29870001 0.19606361
v 0.030911324 -0.29870001 0.1956794
v 0.030688779 -0.29870001 0.19536297
v 0.030389495 -0.29870001 0.19513403
v 0.029660983 -0.29870001 0.19494884
v 0.029259892 -0.29870001 0.195
v 0.028903821 -0.29870001 0.19515348
v 0.028610675 -0.29870001 0.19539547
v 0.028939631 -0.29870001 0.19742189
v 0.028711715 -0.29870001 0.19703539
v 0.028635743 -0.29870001 0.19645498
v 0.028708646 -0.29870001 0.19597025
v 0.028927352 -0.29870001 0.19560061
v 0.029256053 -0.29870001 0.19536655
v 0.029658935 -0.29870001 0.19528854
v 0.030067446 -0.29870001 0.19536732
v 0.030396657 -0.29870001 0.19560368
v 0.03061383 -0.29870001 0.19598482
v 0.030686221 -0.29870001 0.19649796
v 0.030562415 -0.29870001 0.19713745
v 0.030200205 -0.29870001 0.19756105
v 0.029665074 -0.29870001 0.19771147
v 0.029272935 -0.29870001 0.19763906
v 0.030200205 -0.29870001 0.19756105
v 0.030562415 -0.29870001 0.19713745
v 0.030562415 -0.29882 0.19713745
v 0.030200205 -0.29882 0.19756105
v 0.030562415 -0.29870001 0.19713745
v 0.030686221 -0.29870001 0.19649796
v 0.030686221 -0.29882 0.19649796
v 0.030562415 -0.29882 0.19713745
v 0.030686221 -0.29870001 0.19649796
v 0.03061383 -0.29870001 0.19598482
v 0.030396657 -0.29870001 0.19560368
v 0.030396657 -0.29882 0.19560368
v 0.03061383 -0.29882 0.19598482
v 0.030686221 -0.29882 0.19649796
v 0.030396657 -0.29870001 0.19560368
v 0.030067446 -0.29870001 0.19536732
v 0.029658935 -0.29870001 0.19528854
v 0.029658935 -0.29882 0.19528854
v 0.030067446 -0.29882 0.19536732
v 0.030396657 -0.29882 0.19560368
v 0.029658935 -0.29870001 0.19528854
v 0.029256053 -0.29870001 0.19536655
v 0.028927352 -0.29870001 0.19560061
v 0.028927352 -0.29882 0.19560061
v 0.029256053 -0.29882 0.19536655
v 0.029658935 -0.29882 0.19528854
v 0.028927352 -0.29870001 0.19560061
v 0.028708646 -0.29870001 0.19597025
v 0.028635743 -0.29870001 0.19645498
v 0.028635743 -0.29882 0.19645498
v 0.028708646 -0.29882 0.19597025
v 0.028927352 -0.29882 0.19560061
f 1 2 4
f 4 2 3
f 5 6 10
f 10 6 9
f 9 6 7
f 9 7 8
f 11 12 16
f 16 12 15
f 15 12 13
f 15 13 14
f 17 18 22
f 22 18 21
f 21 18 19
f 21 19 20
f 23 24 28
f 28 24 27
f 27 24 25
f 27 25 26
f 29 30 32
f 32 30 31
f 33 34 36
f 36 34 35
f 37 38 42
f 42 38 41
f 41 38 39
f 41 39 40
f 43 44 48
f 48 44 47
f 47 44 45
f 47 45 46
f 49 50 54
f 54 50 53
f 53 50 51
f 53 51 52
f 55 56 60
f 60 56 59
f 59 56 57
f 59 57 58
f 62 94 61
f 61 94 80
f 61 80 79
f 79 80 81
f 79 81 78
f 78 81 82
f 78 82 77
f 77 82 83
f 77 83 76
f 76 83 84
f 76 84 75
f 75 84 85
f 75 85 74
f 74 85 73
f 73 85 86
f 73 86 72
f 72 86 71
f 71 86 87
f 71 87 70
f 70 87 88
f 70 88 69
f 69 88 89
f 69 89 68
f 68 89 67
f 67 89 90
f 67 90 66
f 66 90 91
f 66 91 65
f 65 91 92
f 65 92 64
f 64 92 93
f 64 93 63
f 63 93 94
f 63 94 62
f 95 96 100
f 100 96 99
f 99 96 97
f 99 97 98
f 101 102 106
f 106 102 105
f 105 102 103
f 105 103 104
f 107 108 110
f 110 108 109
f 129 111 133
f 133 111 112
f 133 112 132
f 132 112 113
f 132 113 131
f 131 113 114
f 131 114 130
f 130 114 115
f 130 115 144
f 144 115 116
f 144 116 143
f 143 116 117
f 143 117 142
f 142 117 118
f 142 118 119
f 142 119 141
f 141 119 120
f 141 120 121
f 141 121 140
f 140 121 122
f 140 122 139
f 139 122 123
f 139 123 138
f 138 123 124
f 138 124 125
f 138 125 137
f 137 125 126
f 137 126 136
f 136 126 127
f 136 127 135
f 135 127 128
f 135 128 134
f 134 128 129
f 134 129 133
f 145 146 148
f 148 146 147
f 149 150 152
f 152 150 151
f 153 154 158
f 158 154 157
f 157 154 155
f 157 155 156
f 159 160 164
f 164 160 163
f 163 160 161
f 163 161 162
f 165 166 170
f 170 166 169
f 169 166 167
f 169 167 168
f 171 172 176
f 176 172 175
f 175 172 173
f 175 173 174
