v 0.095033426 -0.29870001 0.19562414
v 0.095430422 -0.29870001 0.195
v 0.095430422 -0.29882 0.195
v 0.095033426 -0.29882 0.19562414
v 0.095430422 -0.29870001 0.195
v 0.095929737 -0.29870001 0.195
v 0.095929737 -0.29882 0.195
v 0.095430422 -0.29882 0.195
v 0.094746933 -0.29870001 0.19603752
v 0.095033426 -0.29870001 0.19562414
v 0.095033426 -0.29882 0.19562414
v 0.094746933 -0.29882 0.19603752
v 0.095929737 -0.29870001 0.195
v 0.095407915 -0.29870001 0.1958165
v 0.095407915 -0.29882 0.1958165
v 0.095929737 -0.29882 0.195
v 0.094545364 -0.29870001 0.19623806
v 0.094746933 -0.29870001 0.19603752
v 0.094746933 -0.29882 0.19603752
v 0.094545364 -0.29882 0.19623806
v 0.095407915 -0.29870001 0.1958165
v 0.095078449 -0.29870001 0.19621555
v 0.095078449 -0.29882 0.19621555
v 0.095407915 -0.29882 0.1958165
v 0.094364252 -0.29870001 0.19631786
v 0.094545364 -0.29870001 0.19623806
v 0.094545364 -0.29882 0.19623806
v 0.094364252 -0.29882 0.19631786
v 0.095078449 -0.29870001 0.19621555
v 0.09483902 -0.29870001 0.19636494
v 0.09483902 -0.29882 0.19636494
v 0.095078449 -0.29882 0.19621555
v 0.094143248 -0.29870001 0.19633219
v 0.094364252 -0.29870001 0.19631786
v 0.094364252 -0.29882 0.19631786
v 0.094143248 -0.29882 0.19633219
v 0.09483902 -0.29870001 0.19636494
v 0.095214529 -0.29870001 0.1964642
v 0.095477486 -0.29870001 0.19664324
v 0.095477486 -0.29882 0.19664324
v 0.095214529 -0.29882 0.1964642
v 0.09483902 -0.29882 0.19636494
v 0.093682814 -0.29870001 0.19633219
v 0.094143248 -0.29870001 0.19633219
v 0.094143248 -0.29882 0.19633219
v 0.093682814 -0.29882 0.19633219
v 0.095477486 -0.29870001 0.19664324
v 0.095632505 -0.29870001 0.19688728
v 0.095684175 -0.29870001 0.19718145
v 0.095684175 -0.29882 0.19718145
v 0.095632505 -0.29882 0.19688728
v 0.095477486 -0.29882 0.19664324
v 0.093682814 -0.29870001 0.195
v 0.093682814 -0.29870001 0.19633219
v 0.093682814 -0.29882 0.19633219
v 0.093682814 -0.29882 0.195
v 0.095684175 -0.29870001 0.19718145
v 0.095559349 -0.29870001 0.19763371
v 0.095559349 -0.29882 0.19763371
v 0.095684175 -0.29882 0.19718145
v 0.093285809 -0.29870001 0.195
v 0.093682814 -0.29870001 0.195
v 0.093682814 -0.29882 0.195
v 0.093285809 -0.29882 0.195
v 0.095559349 -0.29870001 0.19763371
v 0.095225782 -0.29870001 0.19791916
v 0.095225782 -0.29882 0.19791916
v 0.095559349 -0.29882 0.19763371
v 0.095225782 -0.29870001 0.19791916
v 0.094968967 -0.29870001 0.19797979
v 0.094615965 -0.29870001 0.19799999
v 0.094615965 -0.29882 0.19799999
v 0.094968967 -0.29882 0.19797979
v 0.095225782 -0.29882 0.19791916
v 0.094615965 -0.29870001 0.19799999
v 0.093285809 -0.29870001 0.19799999
v 0.093285809 -0.29882 0.19799999
v 0.094615965 -0.29882 0.19799999
v 0.093285809 -0.29870001 0.19799999
v 0.093285809 -0.29870001 0.195
v 0.093285809 -0.29882 0.195
v 0.093285809 -0.29882 0.19799999
v 0.093285809 -0.29882 0.195
v 0.093682814 -0.29882 0.195
v 0.093682814 -0.29882 0.19633219
v 0.094143248 -0.29882 0.19633219
v 0.094364252 -0.29882 0.19631786
v 0.094545364 -0.29882 0.19623806
v 0.094746933 -0.29882 0.19603752
v 0.095033426 -0.29882 0.19562414
v 0.095430422 -0.29882 0.195
v 0.095929737 -0.29882 0.195
v 0.095407915 -0.29882 0.1958165
v 0.095078449 -0.29882 0.19621555
v 0.09483902 -0.29882 0.19636494
v 0.095214529 -0.29882 0.1964642
v 0.095477486 -0.29882 0.19664324
v 0.095632505 -0.29882 0.19688728
v 0.095684175 -0.29882 0.19718145
v 0.095559349 -0.29882 0.19763371
v 0.095225782 -0.29882 0.19791916
v 0.094968967 -0.29882 0.19797979
v 0.094615965 -0.29882 0.19799999
v 0.093285809 -0.29882 0.19799999
v 0.093682814 -0.29882 0.19667599
v 0.093682814 -0.29882 0.19766848
v 0.09463233 -0.29882 0.19766848
v 0.094921131 -0.29882 0.1976342
v 0.095120392 -0.29882 0.19753138
v 0.095274897 -0.29882 0.19718145
v 0.095195093 -0.29882 0.19691235
v 0.094961805 -0.29882 0.19673227
v 0.094536152 -0.29882 0.19667599
v 0.093682814 -0.29870001 0.19667599
v 0.093682814 -0.29870001 0.19766848
v 0.093682814 -0.29882 0.19766848
v 0.093682814 -0.29882 0.19667599
v 0.093682814 -0.29870001 0.19766848
v 0.09463233 -0.29870001 0.19766848
v 0.09463233 -0.29882 0.19766848
v 0.093682814 -0.29882 0.19766848
v 0.093682814 -0.29870001 0.195
v 0.093285809 -0.29870001 0.195
v 0.093285809 -0.29870001 0.19799999
v 0.094615965 -0.29870001 0.19799999
v 0.094968967 -0.29870001 0.19797979
v 0.095225782 -0.29870001 0.19791916
v 0.095559349 -0.29870001 0.19763371
v 0.095684175 -0.29870001 0.19718145
v 0.095632505 -0.29870001 0.19688728
v 0.095477486 -0.29870001 0.19664324
v 0.095214529 -0.29870001 0.1964642
v 0.09483902 -0.29870001 0.19636494
v 0.095078449 -0.29870001 0.19621555
v 0.095407915 -0.29870001 0.1958165
v 0.095929737 -0.29870001 0.195
v 0.095430422 -0.29870001 0.195
v 0.095033426 -0.29870001 0.19562414
v 0.094746933 -0.29870001 0.19603752
v 0.094545364 -0.29870001 0.19623806
v 0.094364252 -0.29870001 0.19631786
v 0.094143248 -0.29870001 0.19633219
v 0.093682814 -0.29870001 0.19633219
v 0.093682814 -0.29870001 0.19766848
v 0.093682814 -0.29870001 0.19667599
v 0.094536152 -0.29870001 0.19667599
v 0.094961805 -0.29870001 0.19673227
v 0.095195093 -0.29870001 0.19691235
v 0.095274897 -0.29870001 0.19718145
v 0.095120392 -0.29870001 0.19753138
v 0.094921131 -0.29870001 0.1976342
v 0.09463233 -0.29870001 0.19766848
v 0.09463233 -0.29870001 0.19766848
v 0.094921131 -0.29870001 0.1976342
v 0.095120392 -0.29870001 0.19753138
v 0.095120392 -0.29882 0.19753138
v 0.094921131 -0.29882 0.1976342
v 0.09463233 -0.29882 0.19766848
v 0.095120392 -0.29870001 0.19753138
v 0.095274897 -0.29870001 0.19718145
v 0.095274897 -0.29882 0.19718145
v 0.095120392 -0.29882 0.19753138
v 0.095274897 -0.29870001 0.19718145
v 0.095195093 -0.29870001 0.19691235
v 0.095195093 -0.29882 0.19691235
v 0.095274897 -0.29882 0.19718145
v 0.095195093 -0.29870001 0.19691235
v 0.094961805 -0.29870001 0.19673227
v 0.094961805 -0.29882 0.19673227
v 0.095195093 -0.29882 0.19691235
v 0.094961805 -0.29870001 0.19673227
v 0.094536152 -0.29870001 0.19667599
v 0.094536152 -0.29882 0.19667599
v 0.094961805 -0.29882 0.19673227
v 0.094536152 -0.29870001 0.19667599
v 0.093682814 -0.29870001 0.19667599
v 0.093682814 -0.29882 0.19667599
v 0.094536152 -0.29882 0.19667599
f 1 2 4
f 4 2 3
f 5 6 8
f 8 6 7
f 9 10 12
f 12 10 11
f 13 14 16
f 16 14 15
f 17 18 20
f 20 18 19
f 21 22 24
f 24 22 23
f 25 26 28
f 28 26 27
f 29 30 32
f 32 30 31
f 33 34 36
f 36 34 35
f 37 38 42
f 42 38 41
f 41 38 39
f 41 39 40
f 43 44 46
f 46 44 45
f 47 48 52
f 52 48 51
f 51 48 49
f 51 49 50
f 53 54 56
f 56 54 55
f 57 58 60
f 60 58 59
f 61 62 64
f 64 62 63
f 65 66 68
f 68 66 67
f 69 70 74
f 74 70 73
f 73 70 71
f 73 71 72
f 75 76 78
f 78 76 77
f 79 80 82
f 82 80 81
f 84 85 83
f 83 85 104
f 104 85 105
f 104 105 106
f 85 86 105
f 105 86 113
f 113 86 87
f 113 87 88
f 113 88 95
f 95 88 89
f 95 89 94
f 94 89 90
f 94 90 93
f 93 90 91
f 93 91 92
f 113 95 112
f 112 95 96
f 112 96 111
f 111 96 97
f 111 97 98
f 111 98 110
f 110 98 99
f 110 99 100
f 110 100 109
f 109 100 101
f 109 101 108
f 108 101 102
f 108 102 107
f 107 102 103
f 107 103 106
f 106 103 104
f 114 115 117
f 117 115 116
f 118 119 121
f 121 119 120
f 122 123 143
f 143 123 124
f 143 124 145
f 145 124 144
f 144 124 125
f 144 125 152
f 152 125 126
f 152 126 151
f 151 126 127
f 151 127 150
f 150 127 128
f 150 128 149
f 149 128 129
f 149 129 130
f 149 130 148
f 148 130 131
f 148 131 132
f 148 132 147
f 147 132 133
f 147 133 146
f 146 133 140
f 146 140 141
f 140 133 139
f 139 133 134
f 139 134 138
f 138 134 135
f 138 135 137
f 137 135 136
f 141 142 146
f 146 142 145
f 145 142 143
f 153 154 158
f 158 154 157
f 157 154 155
f 157 155 156
f 159 160 162
f 162 160 161
f 163 164 166
f 166 164 165
f 167 168 170
f 170 168 169
f 171 172 174
f 174 172 173
f 175 176 178
f 178 176 177
