v 0.16978485 -0.29875 0.24281078
v 0.17034338 -0.29875 0.24295277
v 0.17034338 -0.29886999 0.24295277
v 0.16978485 -0.29886999 0.24281078
v 0.17034338 -0.29875 0.24295277
v 0.17074345 -0.29875 0.24337088
v 0.17074345 -0.29886999 0.24337088
v 0.17034338 -0.29886999 0.24295277
v 0.16920437 -0.29875 0.24296766
v 0.16978485 -0.29875 0.24281078
v 0.16978485 -0.29886999 0.24281078
v 0.16920437 -0.29886999 0.24296766
v 0.17074345 -0.29875 0.24337088
v 0.17088465 -0.29875 0.24399687
v 0.17088465 -0.29886999 0.24399687
v 0.17074345 -0.29886999 0.24337088
v 0.16881685 -0.29875 0.24339598
v 0.16920437 -0.29875 0.24296766
v 0.16920437 -0.29886999 0.24296766
v 0.16881685 -0.29886999 0.24339598
v 0.17088465 -0.29875 0.24399687
v 0.1707505 -0.29875 0.24461422
v 0.1707505 -0.29886999 0.24461422
v 0.17088465 -0.29886999 0.24399687
v 0.16868505 -0.29875 0.24397018
v 0.16881685 -0.29875 0.24339598
v 0.16881685 -0.29886999 0.24339598
v 0.16868505 -0.29886999 0.24397018
v 0.1707505 -0.29875 0.24461422
v 0.17036064 -0.29875 0.2450386
v 0.17036064 -0.29886999 0.2450386
v 0.1707505 -0.29886999 0.24461422
v 0.17036064 -0.29875 0.2450386
v 0.16978643 -0.29875 0.24519079
v 0.16978643 -0.29886999 0.24519079
v 0.17036064 -0.29886999 0.2450386
v 0.16978643 -0.29875 0.24519079
v 0.16934479 -0.29875 0.24510981
v 0.16899256 -0.29875 0.24486681
v 0.16899256 -0.29886999 0.24486681
v 0.16934479 -0.29886999 0.24510981
v 0.16978643 -0.29886999 0.24519079
v 0.16899256 -0.29875 0.24486681
v 0.16876194 -0.29875 0.24448067
v 0.16868505 -0.29875 0.24397018
v 0.16868505 -0.29886999 0.24397018
v 0.16876194 -0.29886999 0.24448067
v 0.16899256 -0.29886999 0.24486681
v 0.16868505 -0.29886999 0.24397018
v 0.16881685 -0.29886999 0.24339598
v 0.16920437 -0.29886999 0.24296766
v 0.16978485 -0.29886999 0.24281078
v 0.17034338 -0.29886999 0.24295277
v 0.17074345 -0.29886999 0.24337088
v 0.17088465 -0.29886999 0.24399687
v 0.1707505 -0.29886999 0.24461422
v 0.17036064 -0.29886999 0.2450386
v 0.16978643 -0.29886999 0.24519079
v 0.16934479 -0.29886999 0.24510981
v 0.16899256 -0.29886999 0.24486681
v 0.16876194 -0.29886999 0.24448067
v 0.16899883 -0.29886999 0.24396549
v 0.16905708 -0.29886999 0.24441046
v 0.16923182 -0.29886999 0.24470678
v 0.16948736 -0.29886999 0.24487329
v 0.169788 -0.29886999 0.24492878
v 0.17019827 -0.29886999 0.24481348
v 0.17047596 -0.29886999 0.24448872
v 0.17057087 -0.29886999 0.24399843
v 0.17051537 -0.29886999 0.24360502
v 0.17034887 -0.29886999 0.24331282
v 0.17009647 -0.29886999 0.24313162
v 0.16978329 -0.29886999 0.24307121
v 0.16947441 -0.29886999 0.24313103
v 0.16922241 -0.29886999 0.24331047
v 0.16905474 -0.29886999 0.24359385
v 0.16923182 -0.29875 0.24470678
v 0.16948736 -0.29875 0.24487329
v 0.169788 -0.29875 0.24492878
v 0.169788 -0.29886999 0.24492878
v 0.16948736 -0.29886999 0.24487329
v 0.16923182 -0.29886999 0.24470678
v 0.16899883 -0.29875 0.24396549
v 0.16905708 -0.29875 0.24441046
v 0.16923182 -0.29875 0.24470678
v 0.16923182 -0.29886999 0.24470678
v 0.16905708 -0.29886999 0.24441046
v 0.16899883 -0.29886999 0.24396549
v 0.169788 -0.29875 0.24492878
v 0.17019827 -0.29875 0.24481348
v 0.17019827 -0.29886999 0.24481348
v 0.169788 -0.29886999 0.24492878
v 0.16881685 -0.29875 0.24339598
v 0.16868505 -0.29875 0.24397018
v 0.16876194 -0.29875 0.24448067
v 0.16899256 -0.29875 0.24486681
v 0.16934479 -0.29875 0.24510981
v 0.16978643 -0.29875 0.24519079
v 0.17036064 -0.29875 0.2450386
v 0.1707505 -0.29875 0.24461422
v 0.17088465 -0.29875 0.24399687
v 0.17074345 -0.29875 0.24337088
v 0.17034338 -0.29875 0.24295277
v 0.16978485 -0.29875 0.24281078
v 0.16920437 -0.29875 0.24296766
v 0.16923182 -0.29875 0.24470678
v 0.16905708 -0.29875 0.24441046
v 0.16899883 -0.29875 0.24396549
v 0.16905474 -0.29875 0.24359385
v 0.16922241 -0.29875 0.24331047
v 0.16947441 -0.29875 0.24313103
v 0.16978329 -0.29875 0.24307121
v 0.17009647 -0.29875 0.24313162
v 0.17034887 -0.29875 0.24331282
v 0.17051537 -0.29875 0.24360502
v 0.17057087 -0.29875 0.24399843
v 0.17047596 -0.29875 0.24448872
v 0.17019827 -0.29875 0.24481348
v 0.169788 -0.29875 0.24492878
v 0.16948736 -0.29875 0.24487329
v 0.17019827 -0.29875 0.24481348
v 0.17047596 -0.29875 0.24448872
v 0.17047596 -0.29886999 0.24448872
v 0.17019827 -0.29886999 0.24481348
v 0.17047596 -0.29875 0.24448872
v 0.17057087 -0.29875 0.24399843
v 0.17057087 -0.29886999 0.24399843
v 0.17047596 -0.29886999 0.24448872
v 0.17057087 -0.29875 0.24399843
v 0.17051537 -0.29875 0.24360502
v 0.17034887 -0.29875 0.24331282
v 0.17034887 -0.29886999 0.24331282
v 0.17051537 -0.29886999 0.24360502
v 0.17057087 -0.29886999 0.24399843
v 0.17034887 -0.29875 0.24331282
v 0.17009647 -0.29875 0.24313162
v 0.16978329 -0.29875 0.24307121
v 0.16978329 -0.29886999 0.24307121
v 0.17009647 -0.29886999 0.24313162
v 0.17034887 -0.29886999 0.24331282
v 0.16978329 -0.29875 0.24307121
v 0.16947441 -0.29875 0.24313103
v 0.16922241 -0.29875 0.24331047
v 0.16922241 -0.29886999 0.24331047
v 0.16947441 -0.29886999 0.24313103
v 0.16978329 -0.29886999 0.24307121
v 0.16922241 -0.29875 0.24331047
v 0.16905474 -0.29875 0.24359385
v 0.16899883 -0.29875 0.24396549
v 0.16899883 -0.29886999 0.24396549
v 0.16905474 -0.29886999 0.24359385
v 0.16922241 -0.29886999 0.24331047
f 1 2 4
f 4 2 3
f 5 6 8
f 8 6 7
f 9 10 12
f 12 10 11
f 13 14 16
f 16 14 15
f 17 18 20
f 20 18 19
f 21 22 24
f 24 22 23
f 25 26 28
f 28 26 27
f 29 30 32
f 32 30 31
f 33 34 36
f 36 34 35
f 37 38 42
f 42 38 41
f 41 38 39
f 41 39 40
f 43 44 48
f 48 44 47
f 47 44 45
f 47 45 46
f 50 76 49
f 49 76 62
f 49 62 61
f 61 62 63
f 61 63 60
f 60 63 64
f 60 64 59
f 59 64 65
f 59 65 58
f 58 65 66
f 58 66 67
f 76 50 75
f 75 50 51
f 75 51 74
f 74 51 52
f 74 52 73
f 73 52 72
f 72 52 53
f 72 53 71
f 71 53 54
f 71 54 70
f 70 54 55
f 70 55 69
f 69 55 68
f 68 55 56
f 68 56 57
f 68 57 67
f 67 57 58
f 77 78 82
f 82 78 81
f 81 78 79
f 81 79 80
f 83 84 88
f 88 84 87
f 87 84 85
f 87 85 86
f 89 90 92
f 92 90 91
f 94 109 93
f 93 109 110
f 93 110 105
f 105 110 111
f 105 111 104
f 104 111 112
f 104 112 113
f 109 94 108
f 108 94 95
f 108 95 107
f 107 95 96
f 107 96 106
f 106 96 97
f 106 97 120
f 120 97 98
f 120 98 119
f 119 98 118
f 118 98 99
f 118 99 117
f 117 99 100
f 117 100 101
f 102 115 101
f 101 115 116
f 101 116 117
f 115 102 114
f 114 102 103
f 114 103 113
f 113 103 104
f 121 122 124
f 124 122 123
f 125 126 128
f 128 126 127
f 129 130 134
f 134 130 133
f 133 130 131
f 133 131 132
f 135 136 140
f 140 136 139
f 139 136 137
f 139 137 138
f 141 142 146
f 146 142 145
f 145 142 143
f 145 143 144
f 147 148 152
f 152 148 151
f 151 148 149
f 151 149 150
