v 0.96674347 -9.9999998e-05 0.081319933
v 0.96616463 -9.9999998e-05 0.080773039
v 0.96616463 -0.00017999999 0.080773039
v 0.96674347 -0.00017999999 0.081319933
v 0.97017151 -9.9999998e-05 0.081470575
v 0.97068138 -9.9999998e-05 0.081143236
v 0.97112457 -9.9999998e-05 0.080730219
v 0.97131882 -9.9999998e-05 0.080324039
v 0.97139908 -9.9999998e-05 0.079880991
v 0.97135956 -9.9999998e-05 0.079432483
v 0.97120308 -9.9999998e-05 0.079010291
v 0.97064018 -9.9999998e-05 0.078364091
v 0.96988991 -9.9999998e-05 0.077978153
v 0.96904335 -9.9999998e-05 0.077804976
v 0.96819145 -9.9999998e-05 0.07779706
v 0.96761314 -9.9999998e-05 0.077880149
v 0.96706612 -9.9999998e-05 0.078085146
v 0.9665757 -9.9999998e-05 0.078402538
v 0.96616463 -9.9999998e-05 0.078817601
v 0.96595711 -9.9999998e-05 0.079287014
v 0.96588615 -9.9999998e-05 0.079795322
v 0.96595711 -9.9999998e-05 0.080303621
v 0.96616463 -9.9999998e-05 0.080773039
v 0.96674347 -9.9999998e-05 0.081319933
v 0.96744667 -9.9999998e-05 0.081693726
v 0.9682238 -9.9999998e-05 0.081867657
v 0.96901924 -9.9999998e-05 0.081829262
v 0.96961151 -9.9999998e-05 0.081701717
v 0.97135956 -9.9999998e-05 0.079432483
v 0.97139908 -9.9999998e-05 0.079880991
v 0.97139908 -0.00017999999 0.079880991
v 0.97135956 -0.00017999999 0.079432483
v 0.97139908 -9.9999998e-05 0.079880991
v 0.97131882 -9.9999998e-05 0.080324039
v 0.97131882 -0.00017999999 0.080324039
v 0.97139908 -0.00017999999 0.079880991
v 0.96761314 -9.9999998e-05 0.077880149
v 0.96819145 -9.9999998e-05 0.07779706
v 0.96819145 -0.00017999999 0.07779706
v 0.96761314 -0.00017999999 0.077880149
v 0.97120308 -9.9999998e-05 0.079010291
v 0.97135956 -9.9999998e-05 0.079432483
v 0.97135956 -0.00017999999 0.079432483
v 0.97120308 -0.00017999999 0.079010291
v 0.97112457 -9.9999998e-05 0.080730219
v 0.97068138 -9.9999998e-05 0.081143236
v 0.97068138 -0.00017999999 0.081143236
v 0.97112457 -0.00017999999 0.080730219
v 0.96819145 -9.9999998e-05 0.07779706
v 0.96904335 -9.9999998e-05 0.077804976
v 0.96988991 -9.9999998e-05 0.077978153
v 0.97064018 -9.9999998e-05 0.078364091
v 0.97120308 -9.9999998e-05 0.079010291
v 0.97120308 -0.00017999999 0.079010291
v 0.97064018 -0.00017999999 0.078364091
v 0.96988991 -0.00017999999 0.077978153
v 0.96904335 -0.00017999999 0.077804976
v 0.96819145 -0.00017999999 0.07779706
v 0.97068138 -9.9999998e-05 0.081143236
v 0.97017151 -9.9999998e-05 0.081470575
v 0.97017151 -0.00017999999 0.081470575
v 0.97068138 -0.00017999999 0.081143236
v 0.97131882 -9.9999998e-05 0.080324039
v 0.97112457 -9.9999998e-05 0.080730219
v 0.97112457 -0.00017999999 0.080730219
v 0.97131882 -0.00017999999 0.080324039
v 0.96744667 -9.9999998e-05 0.081693726
v 0.96674347 -9.9999998e-05 0.081319933
v 0.96674347 -0.00017999999 0.081319933
v 0.96744667 -0.00017999999 0.081693726
v 0.97017151 -9.9999998e-05 0.081470575
v 0.96961151 -9.9999998e-05 0.081701717
v 0.96961151 -0.00017999999 0.081701717
v 0.97017151 -0.00017999999 0.081470575
v 0.96616463 -9.9999998e-05 0.078817601
v 0.9665757 -9.9999998e-05 0.078402538
v 0.9665757 -0.00017999999 0.078402538
v 0.96616463 -0.00017999999 0.078817601
v 0.97068138 -0.00017999999 0.081143236
v 0.97017151 -0.00017999999 0.081470575
v 0.96961151 -0.00017999999 0.081701717
v 0.96901924 -0.00017999999 0.081829262
v 0.9682238 -0.00017999999 0.081867657
v 0.96744667 -0.00017999999 0.081693726
v 0.96674347 -0.00017999999 0.081319933
v 0.96616463 -0.00017999999 0.080773039
v 0.96595711 -0.00017999999 0.080303621
v 0.96588615 -0.00017999999 0.079795322
v 0.96595711 -0.00017999999 0.079287014
v 0.96616463 -0.00017999999 0.078817601
v 0.9665757 -0.00017999999 0.078402538
v 0.96706612 -0.00017999999 0.078085146
v 0.96761314 -0.00017999999 0.077880149
v 0.96819145 -0.00017999999 0.07779706
v 0.96904335 -0.00017999999 0.077804976
v 0.96988991 -0.00017999999 0.077978153
v 0.97064018 -0.00017999999 0.078364091
v 0.97120308 -0.00017999999 0.079010291
v 0.97135956 -0.00017999999 0.079432483
v 0.97139908 -0.00017999999 0.079880991
v 0.97131882 -0.00017999999 0.080324039
v 0.97112457 -0.00017999999 0.080730219
v 0.96595711 -9.9999998e-05 0.079287014
v 0.96616463 -9.9999998e-05 0.078817601
v 0.96616463 -0.00017999999 0.078817601
v 0.96595711 -0.00017999999 0.079287014
v 0.96961151 -9.9999998e-05 0.081701717
v 0.96901924 -9.9999998e-05 0.081829262
v 0.96901924 -0.00017999999 0.081829262
v 0.96961151 -0.00017999999 0.081701717
v 0.96706612 -9.9999998e-05 0.078085146
v 0.96761314 -9.9999998e-05 0.077880149
v 0.96761314 -0.00017999999 0.077880149
v 0.96706612 -0.00017999999 0.078085146
v 0.9682238 -9.9999998e-05 0.081867657
v 0.96744667 -9.9999998e-05 0.081693726
v 0.96744667 -0.00017999999 0.081693726
v 0.9682238 -0.00017999999 0.081867657
v 0.9665757 -9.9999998e-05 0.078402538
v 0.96706612 -9.9999998e-05 0.078085146
v 0.96706612 -0.00017999999 0.078085146
v 0.9665757 -0.00017999999 0.078402538
v 0.96901924 -9.9999998e-05 0.081829262
v 0.9682238 -9.9999998e-05 0.081867657
v 0.9682238 -0.00017999999 0.081867657
v 0.96901924 -0.00017999999 0.081829262
v 0.96588615 -9.9999998e-05 0.079795322
v 0.96595711 -9.9999998e-05 0.079287014
v 0.96595711 -0.00017999999 0.079287014
v 0.96588615 -0.00017999999 0.079795322
v 0.96616463 -9.9999998e-05 0.080773039
v 0.96595711 -9.9999998e-05 0.080303621
v 0.96595711 -0.00017999999 0.080303621
v 0.96616463 -0.00017999999 0.080773039
v 0.96595711 -9.9999998e-05 0.080303621
v 0.96588615 -9.9999998e-05 0.079795322
v 0.96588615 -0.00017999999 0.079795322
v 0.96595711 -0.00017999999 0.080303621
f 1 2 4
f 4 2 3
f 28 5 21
f 21 5 6
f 21 6 8
f 8 6 7
f 8 9 21
f 21 9 10
f 21 10 11
f 21 11 20
f 20 11 12
f 20 12 19
f 19 12 18
f 18 12 13
f 18 13 14
f 14 15 18
f 18 15 17
f 17 15 16
f 28 21 27
f 27 21 22
f 27 22 23
f 23 24 27
f 27 24 25
f 27 25 26
f 29 30 32
f 32 30 31
f 33 34 36
f 36 34 35
f 37 38 40
f 40 38 39
f 41 42 44
f 44 42 43
f 45 46 48
f 48 46 47
f 49 50 58
f 58 50 57
f 57 50 51
f 57 51 56
f 56 51 52
f 56 52 55
f 55 52 53
f 55 53 54
f 59 60 62
f 62 60 61
f 63 64 66
f 66 64 65
f 67 68 70
f 70 68 69
f 71 72 74
f 74 72 73
f 75 76 78
f 78 76 77
f 80 88 79
f 79 88 101
f 79 101 102
f 80 81 88
f 88 81 82
f 88 82 87
f 87 82 86
f 86 82 85
f 85 82 84
f 84 82 83
f 89 98 88
f 88 98 99
f 88 99 100
f 98 89 97
f 97 89 90
f 97 90 91
f 92 94 91
f 91 94 95
f 91 95 96
f 92 93 94
f 96 97 91
f 100 101 88
f 103 104 106
f 106 104 105
f 107 108 110
f 110 108 109
f 111 112 114
f 114 112 113
f 115 116 118
f 118 116 117
f 119 120 122
f 122 120 121
f 123 124 126
f 126 124 125
f 127 128 130
f 130 128 129
f 131 132 134
f 134 132 133
f 135 136 138
f 138 136 137
