v 0.129 0.028 0.44099998
v 0.12880301 0.030502951 0.44099998
v 0.12821691 0.032944272 0.44099998
v 0.12725611 0.035263848 0.44099998
v 0.12594427 0.037404563 0.44099998
v 0.12431371 0.039313707 0.44099998
v 0.12240457 0.040944271 0.44099998
v 0.12026384 0.042256103 0.44099998
v 0.11794427 0.043216906 0.44099998
v 0.11550295 0.043803015 0.44099998
v 0.113 0.044000001 0.44099998
v 0.11049705 0.043803015 0.44099998
v 0.10805573 0.043216906 0.44099998
v 0.10573615 0.042256103 0.44099998
v 0.10359544 0.040944271 0.44099998
v 0.10168629 0.039313707 0.44099998
v 0.10005573 0.037404563 0.44099998
v 0.098743896 0.035263848 0.44099998
v 0.097783098 0.032944272 0.44099998
v 0.097196989 0.030502951 0.44099998
v 0.096999998 0.028 0.44099998
v 0.097196989 0.025497048 0.44099998
v 0.097783098 0.023055727 0.44099998
v 0.098743896 0.020736153 0.44099998
v 0.10005573 0.018595436 0.44099998
v 0.10168629 0.016686292 0.44099998
v 0.10359544 0.015055728 0.44099998
v 0.10573615 0.013743895 0.44099998
v 0.10805573 0.012783096 0.44099998
v 0.11049705 0.012196987 0.44099998
v 0.113 0.012 0.44099998
v 0.11550295 0.012196987 0.44099998
v 0.11794427 0.012783096 0.44099998
v 0.12026384 0.013743895 0.44099998
v 0.12240457 0.015055728 0.44099998
v 0.12431371 0.016686292 0.44099998
v 0.12594427 0.018595436 0.44099998
v 0.12725611 0.020736153 0.44099998
v 0.12821691 0.023055727 0.44099998
v 0.12880301 0.025497048 0.44099998
v 0.146 0.028 0.31299999
v 0.14580655 0.024432073 0.31299999
v 0.14522848 0.020905976 0.31299999
v 0.14427256 0.01746305 0.31299999
v 0.14294999 0.01414366 0.31299999
v 0.14127628 0.010986723 0.31299999
v 0.13927107 0.0080292511 0.31299999
v 0.13695786 0.0053059179 0.31299999
v 0.13436375 0.0028486523 0.31299999
v 0.13151917 0.00068626307 0.31299999
v 0.12845748 -0.0011558975 0.31299999
v 0.12521456 -0.0026562318 0.31299999
v 0.12182843 -0.0037971497 0.31299999
v 0.1183388 -0.0045652753 0.31299999
v 0.11478659 -0.0049516025 0.31299999
v 0.11121342 -0.0049516025 0.31299999
v 0.10766119 -0.0045652753 0.31299999
v 0.10417156 -0.0037971497 0.31299999
v 0.10078544 -0.0026562318 0.31299999
v 0.097542524 -0.0011558975 0.31299999
v 0.094480829 0.00068626307 0.31299999
v 0.091636257 0.0028486523 0.31299999
v 0.089042149 0.0053059179 0.31299999
v 0.086728926 0.0080292511 0.31299999
v 0.084723711 0.010986723 0.31299999
v 0.083050013 0.01414366 0.31299999
v 0.081727448 0.01746305 0.31299999
v 0.080771523 0.020905976 0.31299999
v 0.080193443 0.024432073 0.31299999
v 0.08 0.028 0.31299999
v 0.080193443 0.031567929 0.31299999
v 0.080771523 0.035094025 0.31299999
v 0.081727448 0.038536952 0.31299999
v 0.083050013 0.041856341 0.31299999
v 0.084723711 0.045013275 0.31299999
v 0.086728926 0.047970748 0.31299999
v 0.089042149 0.050694084 0.31299999
v 0.091636257 0.05315135 0.31299999
v 0.094480829 0.055313735 0.31299999
v 0.097542524 0.057155895 0.31299999
v 0.10078544 0.05865623 0.31299999
v 0.10417156 0.059797149 0.31299999
v 0.10766119 0.060565276 0.31299999
v 0.11121342 0.060951605 0.31299999
v 0.11478659 0.060951605 0.31299999
v 0.1183388 0.060565276 0.31299999
v 0.12182843 0.059797149 0.31299999
v 0.12521456 0.05865623 0.31299999
v 0.12845748 0.057155895 0.31299999
v 0.13151917 0.055313735 0.31299999
v 0.13436375 0.05315135 0.31299999
v 0.13695786 0.050694084 0.31299999
v 0.13927107 0.047970748 0.31299999
v 0.14127628 0.045013275 0.31299999
v 0.14294999 0.041856341 0.31299999
v 0.14427256 0.038536952 0.31299999
v 0.14522848 0.035094025 0.31299999
v 0.14580655 0.031567929 0.31299999
v 0.146 0.028 0.31299999
v 0.14580655 0.031567929 0.31299999
v 0.14522848 0.035094025 0.31299999
v 0.14427256 0.038536952 0.31299999
v 0.14294999 0.041856341 0.31299999
v 0.14127628 0.045013275 0.31299999
v 0.13927107 0.047970748 0.31299999
v 0.13695786 0.050694084 0.31299999
v 0.13436375 0.05315135 0.31299999
v 0.13151917 0.055313735 0.31299999
v 0.12845748 0.057155895 0.31299999
v 0.12521456 0.05865623 0.31299999
v 0.12182843 0.059797149 0.31299999
v 0.1183388 0.060565276 0.31299999
v 0.11478659 0.060951605 0.31299999
v 0.11121342 0.060951605 0.31299999
v 0.10766119 0.060565276 0.31299999
v 0.10417156 0.059797149 0.31299999
v 0.10078544 0.05865623 0.31299999
v 0.097542524 0.057155895 0.31299999
v 0.094480829 0.055313735 0.31299999
v 0.091636257 0.05315135 0.31299999
v 0.089042149 0.050694084 0.31299999
v 0.086728926 0.047970748 0.31299999
v 0.084723711 0.045013275 0.31299999
v 0.083050013 0.041856341 0.31299999
v 0.081727448 0.038536952 0.31299999
v 0.080771523 0.035094025 0.31299999
v 0.080193443 0.031567929 0.31299999
v 0.08 0.028 0.31299999
v 0.080193443 0.024432073 0.31299999
v 0.080771523 0.020905976 0.31299999
v 0.081727448 0.01746305 0.31299999
v 0.083050013 0.01414366 0.31299999
v 0.084723711 0.010986723 0.31299999
v 0.086728926 0.0080292511 0.31299999
v 0.089042149 0.0053059179 0.31299999
v 0.091636257 0.0028486523 0.31299999
v 0.094480829 0.00068626307 0.31299999
v 0.097542524 -0.0011558975 0.31299999
v 0.10078544 -0.0026562318 0.31299999
v 0.10417156 -0.0037971497 0.31299999
v 0.10766119 -0.0045652753 0.31299999
v 0.11121342 -0.0049516025 0.31299999
v 0.11478659 -0.0049516025 0.31299999
v 0.1183388 -0.0045652753 0.31299999
v 0.12182843 -0.0037971497 0.31299999
v 0.12521456 -0.0026562318 0.31299999
v 0.12845748 -0.0011558975 0.31299999
v 0.13151917 0.00068626307 0.31299999
v 0.13436375 0.0028486523 0.31299999
v 0.13695786 0.0053059179 0.31299999
v 0.13927107 0.0080292511 0.31299999
v 0.14127628 0.010986723 0.31299999
v 0.14294999 0.01414366 0.31299999
v 0.14427256 0.01746305 0.31299999
v 0.14522848 0.020905976 0.31299999
v 0.14580655 0.024432073 0.31299999
v 0.146 0.028 0.39900002
v 0.14580655 0.024432073 0.39900002
v 0.14522848 0.020905976 0.39900002
v 0.14427256 0.01746305 0.39900002
v 0.14294999 0.01414366 0.39900002
v 0.14127628 0.010986723 0.39900002
v 0.13927107 0.0080292511 0.39900002
v 0.13695786 0.0053059179 0.39900002
v 0.13436375 0.0028486523 0.39900002
v 0.13151917 0.00068626307 0.39900002
v 0.12845748 -0.0011558975 0.39900002
v 0.12521456 -0.0026562318 0.39900002
v 0.12182843 -0.0037971497 0.39900002
v 0.1183388 -0.0045652753 0.39900002
v 0.11478659 -0.0049516025 0.39900002
v 0.11121342 -0.0049516025 0.39900002
v 0.10766119 -0.0045652753 0.39900002
v 0.10417156 -0.0037971497 0.39900002
v 0.10078544 -0.0026562318 0.39900002
v 0.097542524 -0.0011558975 0.39900002
v 0.094480829 0.00068626307 0.39900002
v 0.091636257 0.0028486523 0.39900002
v 0.089042149 0.0053059179 0.39900002
v 0.086728926 0.0080292511 0.39900002
v 0.084723711 0.010986723 0.39900002
v 0.083050013 0.01414366 0.39900002
v 0.081727448 0.01746305 0.39900002
v 0.080771523 0.020905976 0.39900002
v 0.080193443 0.024432073 0.39900002
v 0.08 0.028 0.39900002
v 0.080193443 0.031567929 0.39900002
v 0.080771523 0.035094025 0.39900002
v 0.081727448 0.038536952 0.39900002
v 0.083050013 0.041856341 0.39900002
v 0.084723711 0.045013275 0.39900002
v 0.086728926 0.047970748 0.39900002
v 0.089042149 0.050694084 0.39900002
v 0.091636257 0.05315135 0.39900002
v 0.094480829 0.055313735 0.39900002
v 0.097542524 0.057155895 0.39900002
v 0.10078544 0.05865623 0.39900002
v 0.10417156 0.059797149 0.39900002
v 0.10766119 0.060565276 0.39900002
v 0.11121342 0.060951605 0.39900002
v 0.11478659 0.060951605 0.39900002
v 0.1183388 0.060565276 0.39900002
v 0.12182843 0.059797149 0.39900002
v 0.12521456 0.05865623 0.39900002
v 0.12845748 0.057155895 0.39900002
v 0.13151917 0.055313735 0.39900002
v 0.13436375 0.05315135 0.39900002
v 0.13695786 0.050694084 0.39900002
v 0.13927107 0.047970748 0.39900002
v 0.14127628 0.045013275 0.39900002
v 0.14294999 0.041856341 0.39900002
v 0.14427256 0.038536952 0.39900002
v 0.14522848 0.035094025 0.39900002
v 0.14580655 0.031567929 0.39900002
v 0.08 0.028 0.31299999
v 0.08 0.028 0.39900002
v 0.146 0.028 0.39900002
v 0.14580655 0.031567929 0.39900002
v 0.14522848 0.035094025 0.39900002
v 0.14427256 0.038536952 0.39900002
v 0.14294999 0.041856341 0.39900002
v 0.14127628 0.045013275 0.39900002
v 0.13927107 0.047970748 0.39900002
v 0.13695786 0.050694084 0.39900002
v 0.13436375 0.05315135 0.39900002
v 0.13151917 0.055313735 0.39900002
v 0.12845748 0.057155895 0.39900002
v 0.12521456 0.05865623 0.39900002
v 0.12182843 0.059797149 0.39900002
v 0.1183388 0.060565276 0.39900002
v 0.11478659 0.060951605 0.39900002
v 0.11121342 0.060951605 0.39900002
v 0.10766119 0.060565276 0.39900002
v 0.10417156 0.059797149 0.39900002
v 0.10078544 0.05865623 0.39900002
v 0.097542524 0.057155895 0.39900002
v 0.094480829 0.055313735 0.39900002
v 0.091636257 0.05315135 0.39900002
v 0.089042149 0.050694084 0.39900002
v 0.086728926 0.047970748 0.39900002
v 0.084723711 0.045013275 0.39900002
v 0.083050013 0.041856341 0.39900002
v 0.081727448 0.038536952 0.39900002
v 0.080771523 0.035094025 0.39900002
v 0.080193443 0.031567929 0.39900002
v 0.08 0.028 0.39900002
v 0.080193443 0.024432073 0.39900002
v 0.080771523 0.020905976 0.39900002
v 0.081727448 0.01746305 0.39900002
v 0.083050013 0.01414366 0.39900002
v 0.084723711 0.010986723 0.39900002
v 0.086728926 0.0080292511 0.39900002
v 0.089042149 0.0053059179 0.39900002
v 0.091636257 0.0028486523 0.39900002
v 0.094480829 0.00068626307 0.39900002
v 0.097542524 -0.0011558975 0.39900002
v 0.10078544 -0.0026562318 0.39900002
v 0.10417156 -0.0037971497 0.39900002
v 0.10766119 -0.0045652753 0.39900002
v 0.11121342 -0.0049516025 0.39900002
v 0.11478659 -0.0049516025 0.39900002
v 0.1183388 -0.0045652753 0.39900002
v 0.12182843 -0.0037971497 0.39900002
v 0.12521456 -0.0026562318 0.39900002
v 0.12845748 -0.0011558975 0.39900002
v 0.13151917 0.00068626307 0.39900002
v 0.13436375 0.0028486523 0.39900002
v 0.13695786 0.0053059179 0.39900002
v 0.13927107 0.0080292511 0.39900002
v 0.14127628 0.010986723 0.39900002
v 0.14294999 0.01414366 0.39900002
v 0.14427256 0.01746305 0.39900002
v 0.14522848 0.020905976 0.39900002
v 0.14580655 0.024432073 0.39900002
v 0.129 0.028 0.43099998
v 0.12880301 0.025497048 0.43099998
v 0.12821691 0.023055727 0.43099998
v 0.12725611 0.020736153 0.43099998
v 0.12594427 0.018595436 0.43099998
v 0.12431371 0.016686292 0.43099998
v 0.12240457 0.015055728 0.43099998
v 0.12026384 0.013743895 0.43099998
v 0.11794427 0.012783096 0.43099998
v 0.11550295 0.012196987 0.43099998
v 0.113 0.012 0.43099998
v 0.11049705 0.012196987 0.43099998
v 0.10805573 0.012783096 0.43099998
v 0.10573615 0.013743895 0.43099998
v 0.10359544 0.015055728 0.43099998
v 0.10168629 0.016686292 0.43099998
v 0.10005573 0.018595436 0.43099998
v 0.098743896 0.020736153 0.43099998
v 0.097783098 0.023055727 0.43099998
v 0.097196989 0.025497048 0.43099998
v 0.096999998 0.028 0.43099998
v 0.097196989 0.030502951 0.43099998
v 0.097783098 0.032944272 0.43099998
v 0.098743896 0.035263848 0.43099998
v 0.10005573 0.037404563 0.43099998
v 0.10168629 0.039313707 0.43099998
v 0.10359544 0.040944271 0.43099998
v 0.10573615 0.042256103 0.43099998
v 0.10805573 0.043216906 0.43099998
v 0.11049705 0.043803015 0.43099998
v 0.113 0.044000001 0.43099998
v 0.11550295 0.043803015 0.43099998
v 0.11794427 0.043216906 0.43099998
v 0.12026384 0.042256103 0.43099998
v 0.12240457 0.040944271 0.43099998
v 0.12431371 0.039313707 0.43099998
v 0.12594427 0.037404563 0.43099998
v 0.12725611 0.035263848 0.43099998
v 0.12821691 0.032944272 0.43099998
v 0.12880301 0.030502951 0.43099998
v 0.08 0.028 0.39900002
v 0.096999998 0.028 0.43099998
v 0.079876285 0.028 0.40247997
v 0.079876285 0.028 0.40247997
v 0.080117188 0.028 0.40595379
v 0.080117188 0.028 0.40595379
v 0.080720072 0.028 0.40938335
v 0.080720072 0.028 0.40938335
v 0.081678324 0.028 0.41273106
v 0.081678324 0.028 0.41273106
v 0.082981434 0.028 0.41596024
v 0.082981434 0.028 0.41596024
v 0.084615107 0.028 0.41903538
v 0.084615107 0.028 0.41903538
v 0.086561432 0.028 0.4219228
v 0.086561432 0.028 0.4219228
v 0.088799057 0.028 0.42459084
v 0.088799057 0.028 0.42459084
v 0.091303444 0.028 0.42701027
v 0.091303444 0.028 0.42701027
v 0.094047117 0.028 0.42915447
v 0.094047117 0.028 0.42915447
v 0.095798836 0.020041893 0.42915447
v 0.099240294 0.014966115 0.42915447
v 0.10236389 0.012312909 0.42915447
v 0.10792956 0.0097379524 0.42915447
v 0.11807043 0.0097379524 0.42915447
v 0.12363611 0.012312909 0.42915447
v 0.12675971 0.014966115 0.42915447
v 0.13020117 0.020041893 0.42915447
v 0.13020117 0.035958109 0.42915447
v 0.12675971 0.041033883 0.42915447
v 0.12363611 0.043687091 0.42915447
v 0.11807043 0.04626205 0.42915447
v 0.10792956 0.04626205 0.42915447
v 0.10236389 0.043687091 0.42915447
v 0.099240294 0.041033883 0.42915447
v 0.095798836 0.035958109 0.42915447
v 0.14592955 0.031581304 0.40247997
v 0.14569005 0.031555257 0.40595379
v 0.1450907 0.031490073 0.40938335
v 0.14413807 0.031386468 0.41273106
v 0.1428426 0.031245577 0.41596024
v 0.1412185 0.031068947 0.41903538
v 0.13928358 0.030858512 0.4219228
v 0.13705908 0.030616581 0.42459084
v 0.13456937 0.030345809 0.42701027
v 0.13184177 0.030049167 0.42915447
v 0.13195288 0.028 0.42915447
v 0.13469656 0.028 0.42701027
v 0.13720095 0.028 0.42459084
v 0.13943857 0.028 0.4219228
v 0.14138489 0.028 0.41903538
v 0.14301856 0.028 0.41596024
v 0.14432167 0.028 0.41273106
v 0.14527992 0.028 0.40938335
v 0.14588281 0.028 0.40595379
v 0.14612371 0.028 0.40247997
v 0.1453493 0.035120621 0.40247997
v 0.14511403 0.035068831 0.40595379
v 0.14452524 0.034939229 0.40938335
v 0.14358939 0.034733233 0.41273106
v 0.14231675 0.034453104 0.41596024
v 0.14072126 0.034101913 0.41903538
v 0.13882045 0.03368351 0.4219228
v 0.13663514 0.033202488 0.42459084
v 0.1341893 0.032664118 0.42701027
v 0.13150977 0.032074308 0.42915447
v 0.14438979 0.038576453 0.40247997
v 0.1441615 0.038499532 0.40595379
v 0.14359017 0.03830703 0.40938335
v 0.14268209 0.038001058 0.41273106
v 0.14144719 0.037584975 0.41596024
v 0.13989903 0.037063339 0.41903538
v 0.13805459 0.036441875 0.4219228
v 0.1359341 0.035727398 0.42459084
v 0.13356081 0.034927745 0.42701027
v 0.13096076 0.034051683 0.42915447
v 0.14306227 0.041908288 0.40247997
v 0.14284363 0.041807132 0.40595379
v 0.14229647 0.041553988 0.40938335
v 0.14142678 0.041151628 0.41273106
v 0.14024411 0.040604467 0.41596024
v 0.13876143 0.039918506 0.41903538
v 0.13699499 0.039101267 0.4219228
v 0.13496418 0.038161712 0.42459084
v 0.13269126 0.037110147 0.42701027
v 0.14138229 0.045077062 0.40247997
v 0.14117587 0.04495286 0.40595379
v 0.14065928 0.044642038 0.40938335
v 0.1398382 0.044148011 0.41273106
v 0.13872162 0.043476186 0.41596024
v 0.1373218 0.042633939 0.41903538
v 0.13565408 0.041630507 0.4219228
v 0.13373675 0.04047689 0.42459084
v 0.13159085 0.039185743 0.42701027
v 0.12923991 0.03777123 0.42915447
v 0.13936956 0.048045621 0.40247997
v 0.13917778 0.047899828 0.40595379
v 0.13869782 0.047534981 0.40938335
v 0.13793497 0.04695507 0.41273106
v 0.13689757 0.046166463 0.41596024
v 0.13559701 0.045177803 0.41903538
v 0.13404756 0.043999939 0.4219228
v 0.13226621 0.042645788 0.42459084
v 0.13027248 0.041130199 0.42701027
v 0.12808825 0.039469795 0.42915447
v 0.13704767 0.050779161 0.40247997
v 0.13687277 0.050613489 0.40595379
v 0.13643508 0.050198889 0.40938335
v 0.13573939 0.0495399 0.41273106
v 0.13479334 0.048643751 0.41596024
v 0.1336073 0.047520275 0.41903538
v 0.13219428 0.046181788 0.4219228
v 0.13056977 0.044642978 0.42459084
v 0.1287516 0.042920713 0.42701027
v 0.13444384 0.05324564 0.40247997
v 0.13428788 0.053062029 0.40595379
v 0.13389758 0.052602534 0.40938335
v 0.13327723 0.051872191 0.41273106
v 0.13243361 0.050879011 0.41596024
v 0.13137599 0.049633884 0.41903538
v 0.13011597 0.048150473 0.4219228
v 0.12866735 0.046445041 0.42459084
v 0.12704605 0.044536295 0.42701027
v 0.12526983 0.042445168 0.42915447
v 0.1315886 0.055416136 0.40247997
v 0.13145341 0.055216742 0.40595379
v 0.13111507 0.054717741 0.40938335
v 0.13057732 0.053924603 0.41273106
v 0.12984603 0.052846036 0.41596024
v 0.12892923 0.051493859 0.41903538
v 0.12783698 0.049882913 0.4219228
v 0.12658126 0.048030853 0.42459084
v 0.12517583 0.045958004 0.42701027
v 0.12851542 0.057265201 0.40247997
v 0.12840259 0.05705236 0.40595379
v 0.12812019 0.056519704 0.40938335
v 0.12767134 0.055673075 0.41273106
v 0.12706095 0.054521766 0.41596024
v 0.12629572 0.053078394 0.41903538
v 0.12538404 0.05135879 0.4219228
v 0.12433593 0.049381824 0.42459084
v 0.12316285 0.04716917 0.42701027
v 0.12187769 0.044745097 0.42915447
v 0.12526035 0.058771162 0.40247997
v 0.12517118 0.058547363 0.40595379
v 0.12494803 0.057987299 0.40938335
v 0.12459334 0.057097106 0.41273106
v 0.12411101 0.05588655 0.41596024
v 0.12350633 0.054368901 0.41903538
v 0.12278592 0.052560816 0.4219228
v 0.12195769 0.050482111 0.42459084
v 0.12103072 0.048155599 0.42701027
v 0.12001518 0.045606785 0.42915447
v 0.12186153 0.059916358 0.40247997
v 0.12179708 0.059684234 0.40595379
v 0.1216358 0.059103322 0.40938335
v 0.12137943 0.058179998 0.41273106
v 0.12103082 0.056924386 0.41596024
v 0.12059377 0.055350261 0.41903538
v 0.12007307 0.053474879 0.4219228
v 0.11947444 0.051318817 0.42459084
v 0.11880445 0.048905721 0.42701027
v 0.11835882 0.060687361 0.40247997
v 0.11831985 0.060449629 0.40595379
v 0.11822231 0.059854689 0.40938335
v 0.11806728 0.058909059 0.41273106
v 0.11785646 0.057623115 0.41596024
v 0.11759216 0.056010962 0.41903538
v 0.11727729 0.054090281 0.4219228
v 0.11691527 0.051882133 0.42459084
v 0.11651011 0.049410739 0.42701027
v 0.11606624 0.046703205 0.42915447
v 0.11479328 0.061075139 0.40247997
v 0.11478024 0.060834584 0.40595379
v 0.1147476 0.060232582 0.40938335
v 0.11469572 0.059275737 0.41273106
v 0.11462517 0.057974539 0.41596024
v 0.11453672 0.05634326 0.41903538
v 0.11443135 0.054399791 0.4219228
v 0.11431022 0.052165451 0.42459084
v 0.11417462 0.049664741 0.42701027
v 0.11402609 0.046925082 0.42915447
v 0.11120672 0.061075139 0.40247997
v 0.11121976 0.060834584 0.40595379
v 0.1112524 0.060232582 0.40938335
v 0.11130428 0.059275737 0.41273106
v 0.11137483 0.057974539 0.41596024
v 0.11146327 0.05634326 0.41903538
v 0.11156864 0.054399791 0.4219228
v 0.11168979 0.052165451 0.42459084
v 0.11182537 0.049664741 0.42701027
v 0.11197392 0.046925082 0.42915447
v 0.10764118 0.060687361 0.40247997
v 0.10768015 0.060449629 0.40595379
v 0.10777769 0.059854689 0.40938335
v 0.10793272 0.058909059 0.41273106
v 0.10814354 0.057623115 0.41596024
v 0.10840783 0.056010962 0.41903538
v 0.10872272 0.054090281 0.4219228
v 0.10908472 0.051882133 0.42459084
v 0.10948989 0.049410739 0.42701027
v 0.10993377 0.046703205 0.42915447
v 0.10413847 0.059916358 0.40247997
v 0.10420292 0.059684234 0.40595379
v 0.1043642 0.059103322 0.40938335
v 0.10462056 0.058179998 0.41273106
v 0.10496919 0.056924386 0.41596024
v 0.10540624 0.055350261 0.41903538
v 0.10592693 0.053474879 0.4219228
v 0.10652556 0.051318817 0.42459084
v 0.10719556 0.048905721 0.42701027
v 0.10073965 0.058771162 0.40247997
v 0.10082882 0.058547363 0.40595379
v 0.10105197 0.057987299 0.40938335
v 0.10140665 0.057097106 0.41273106
v 0.10188898 0.05588655 0.41596024
v 0.10249367 0.054368901 0.41903538
v 0.10321407 0.052560816 0.4219228
v 0.10404231 0.050482111 0.42459084
v 0.10496927 0.048155599 0.42701027
v 0.10598481 0.045606785 0.42915447
v 0.09748457 0.057265201 0.40247997
v 0.097597418 0.05705236 0.40595379
v 0.09787981 0.056519704 0.40938335
v 0.098328667 0.055673075 0.41273106
v 0.098939047 0.054521766 0.41596024
v 0.099704275 0.053078394 0.41903538
v 0.10061595 0.05135879 0.4219228
v 0.10166408 0.049381824 0.42459084
v 0.10283715 0.04716917 0.42701027
v 0.10412231 0.044745097 0.42915447
v 0.094411402 0.055416136 0.40247997
v 0.094546595 0.055216742 0.40595379
v 0.09488492 0.054717741 0.40938335
v 0.095422678 0.053924603 0.41273106
v 0.096153975 0.052846036 0.41596024
v 0.09707077 0.051493859 0.41903538
v 0.098163013 0.049882913 0.4219228
v 0.099418745 0.048030853 0.42459084
v 0.10082417 0.045958004 0.42701027
v 0.091556158 0.05324564 0.40247997
v 0.091712122 0.053062029 0.40595379
v 0.092102423 0.052602534 0.40938335
v 0.092722778 0.051872191 0.41273106
v 0.093566389 0.050879011 0.41596024
v 0.094624014 0.049633884 0.41903538
v 0.095884037 0.048150473 0.4219228
v 0.09733264 0.046445041 0.42459084
v 0.098953943 0.044536295 0.42701027
v 0.10073016 0.042445168 0.42915447
v 0.088952332 0.050779161 0.40247997
v 0.089127226 0.050613489 0.40595379
v 0.089564924 0.050198889 0.40938335
v 0.090260611 0.0495399 0.41273106
v 0.091206656 0.048643751 0.41596024
v 0.092392702 0.047520275 0.41903538
v 0.093805723 0.046181788 0.4219228
v 0.095430222 0.044642978 0.42459084
v 0.097248392 0.042920713 0.42701027
v 0.08663044 0.048045621 0.40247997
v 0.086822224 0.047899828 0.40595379
v 0.087302179 0.047534981 0.40938335
v 0.088065033 0.04695507 0.41273106
v 0.08910243 0.046166463 0.41596024
v 0.090402985 0.045177803 0.41903538
v 0.091952438 0.043999939 0.4219228
v 0.093733797 0.042645788 0.42459084
v 0.09572752 0.041130199 0.42701027
v 0.097911739 0.039469795 0.42915447
v 0.08461771 0.045077062 0.40247997
v 0.084824123 0.04495286 0.40595379
v 0.08534071 0.044642038 0.40938335
v 0.086161795 0.044148011 0.41273106
v 0.087278376 0.043476186 0.41596024
v 0.088678207 0.042633939 0.41903538
v 0.090345926 0.041630507 0.4219228
v 0.09226325 0.04047689 0.42459084
v 0.094409151 0.039185743 0.42701027
v 0.096760092 0.03777123 0.42915447
v 0.082937727 0.041908288 0.40247997
v 0.083156366 0.041807132 0.40595379
v 0.083703537 0.041553988 0.40938335
v 0.084573221 0.041151628 0.41273106
v 0.085755892 0.040604467 0.41596024
v 0.087238569 0.039918506 0.41903538
v 0.089005003 0.039101267 0.4219228
v 0.091035814 0.038161712 0.42459084
v 0.093308735 0.037110147 0.42701027
v 0.081610203 0.038576453 0.40247997
v 0.081838503 0.038499532 0.40595379
v 0.08240983 0.03830703 0.40938335
v 0.083317919 0.038001058 0.41273106
v 0.084552813 0.037584975 0.41596024
v 0.086100969 0.037063339 0.41903538
v 0.087945404 0.036441875 0.4219228
v 0.090065899 0.035727398 0.42459084
v 0.092439184 0.034927745 0.42701027
v 0.095039244 0.034051683 0.42915447
v 0.080650702 0.035120621 0.40247997
v 0.080885973 0.035068831 0.40595379
v 0.081474762 0.034939229 0.40938335
v 0.082410612 0.034733233 0.41273106
v 0.083683252 0.034453104 0.41596024
v 0.08527873 0.034101913 0.41903538
v 0.087179556 0.03368351 0.4219228
v 0.089364862 0.033202488 0.42459084
v 0.091810694 0.032664118 0.42701027
v 0.094490223 0.032074308 0.42915447
v 0.080070457 0.031581304 0.40247997
v 0.080309954 0.031555257 0.40595379
v 0.0809093 0.031490073 0.40938335
v 0.081861935 0.031386468 0.41273106
v 0.083157406 0.031245577 0.41596024
v 0.084781504 0.031068947 0.41903538
v 0.086716413 0.030858512 0.4219228
v 0.088940926 0.030616581 0.42459084
v 0.091430626 0.030345809 0.42701027
v 0.09415822 0.030049167 0.42915447
v 0.080070457 0.024418697 0.40247997
v 0.080309954 0.024444742 0.40595379
v 0.0809093 0.024509926 0.40938335
v 0.081861935 0.024613531 0.41273106
v 0.083157406 0.024754422 0.41596024
v 0.084781504 0.024931054 0.41903538
v 0.086716413 0.025141487 0.4219228
v 0.088940926 0.025383418 0.42459084
v 0.091430626 0.02565419 0.42701027
v 0.09415822 0.025950832 0.42915447
v 0.080650702 0.020879381 0.40247997
v 0.080885973 0.020931168 0.40595379
v 0.081474762 0.02106077 0.40938335
v 0.082410612 0.021266766 0.41273106
v 0.083683252 0.021546896 0.41596024
v 0.08527873 0.021898088 0.41903538
v 0.087179556 0.022316489 0.4219228
v 0.089364862 0.022797513 0.42459084
v 0.091810694 0.023335881 0.42701027
v 0.094490223 0.023925691 0.42915447
v 0.081610203 0.017423546 0.40247997
v 0.081838503 0.017500468 0.40595379
v 0.08240983 0.01769297 0.40938335
v 0.083317919 0.017998942 0.41273106
v 0.084552813 0.018415027 0.41596024
v 0.086100969 0.018936661 0.41903538
v 0.087945404 0.019558125 0.4219228
v 0.090065899 0.020272601 0.42459084
v 0.092439184 0.021072257 0.42701027
v 0.095039244 0.021948316 0.42915447
v 0.082937727 0.014091712 0.40247997
v 0.083156366 0.014192866 0.40595379
v 0.083703537 0.014446011 0.40938335
v 0.084573221 0.014848371 0.41273106
v 0.085755892 0.015395532 0.41596024
v 0.087238569 0.016081494 0.41903538
v 0.089005003 0.016898733 0.4219228
v 0.091035814 0.017838287 0.42459084
v 0.093308735 0.018889852 0.42701027
v 0.08461771 0.010922941 0.40247997
v 0.084824123 0.01104714 0.40595379
v 0.08534071 0.01135796 0.40938335
v 0.086161795 0.01185199 0.41273106
v 0.087278376 0.012523813 0.41596024
v 0.088678207 0.01336606 0.41903538
v 0.090345926 0.014369495 0.4219228
v 0.09226325 0.015523111 0.42459084
v 0.094409151 0.016814256 0.42701027
v 0.096760092 0.018228769 0.42915447
v 0.08663044 0.0079543811 0.40247997
v 0.086822224 0.0081001711 0.40595379
v 0.087302179 0.0084650213 0.40938335
v 0.088065033 0.0090449309 0.41273106
v 0.08910243 0.0098335385 0.41596024
v 0.090402985 0.010822196 0.41903538
v 0.091952438 0.012000061 0.4219228
v 0.093733797 0.013354213 0.42459084
v 0.09572752 0.014869802 0.42701027
v 0.097911739 0.016530205 0.42915447
v 0.088952332 0.0052208388 0.40247997
v 0.089127226 0.0053865093 0.40595379
v 0.089564924 0.0058011127 0.40938335
v 0.090260611 0.0064601016 0.41273106
v 0.091206656 0.0073562491 0.41596024
v 0.092392702 0.0084797263 0.41903538
v 0.093805723 0.0098182118 0.4219228
v 0.095430222 0.011357025 0.42459084
v 0.097248392 0.013079288 0.42701027
v 0.091556158 0.0027543607 0.40247997
v 0.091712122 0.0029379699 0.40595379
v 0.092102423 0.0033974656 0.40938335
v 0.092722778 0.0041278088 0.41273106
v 0.093566389 0.0051209891 0.41596024
v 0.094624014 0.006366114 0.41903538
v 0.095884037 0.007849527 0.4219228
v 0.09733264 0.0095549595 0.42459084
v 0.098953943 0.011463706 0.42701027
v 0.10073016 0.013554834 0.42915447
v 0.094411402 0.00058386486 0.40247997
v 0.094546595 0.00078325972 0.40595379
v 0.09488492 0.0012822607 0.40938335
v 0.095422678 0.0020753953 0.41273106
v 0.096153975 0.0031539643 0.41596024
v 0.09707077 0.0045061389 0.41903538
v 0.098163013 0.0061170888 0.4219228
v 0.099418745 0.0079691458 0.42459084
v 0.10082417 0.010041997 0.42701027
v 0.09748457 -0.0012652019 0.40247997
v 0.097597418 -0.001052359 0.40595379
v 0.09787981 -0.00051970299 0.40938335
v 0.098328667 0.00032692399 0.41273106
v 0.098939047 0.0014782366 0.41596024
v 0.099704275 0.0029216078 0.41903538
v 0.10061595 0.0046412072 0.4219228
v 0.10166408 0.0066181755 0.42459084
v 0.10283715 0.0088308293 0.42701027
v 0.10412231 0.011254902 0.42915447
v 0.10073965 -0.0027711609 0.40247997
v 0.10082882 -0.0025473651 0.40595379
v 0.10105197 -0.0019872993 0.40938335
v 0.10140665 -0.0010971057 0.41273106
v 0.10188898 0.00011345229 0.41596024
v 0.10249367 0.0016310979 0.41903538
v 0.10321407 0.0034391865 0.4219228
v 0.10404231 0.0055178875 0.42459084
v 0.10496927 0.0078444022 0.42701027
v 0.10598481 0.010393215 0.42915447
v 0.10413847 -0.0039163563 0.40247997
v 0.10420292 -0.0036842316 0.40595379
v 0.1043642 -0.0031033221 0.40938335
v 0.10462056 -0.0021799985 0.41273106
v 0.10496919 -0.00092438772 0.41596024
v 0.10540624 0.00064973943 0.41903538
v 0.10592693 0.0025251186 0.4219228
v 0.10652556 0.0046811813 0.42459084
v 0.10719556 0.0070942813 0.42701027
v 0.10764118 -0.0046873614 0.40247997
v 0.10768015 -0.0044496292 0.40595379
v 0.10777769 -0.0038546866 0.40938335
v 0.10793272 -0.0029090583 0.41273106
v 0.10814354 -0.0016231157 0.41596024
v 0.10840783 -1.0962335e-05 0.41903538
v 0.10872272 0.0019097205 0.4219228
v 0.10908472 0.0041178674 0.42459084
v 0.10948989 0.0065892607 0.42701027
v 0.10993377 0.0092967951 0.42915447
v 0.11120672 -0.005075137 0.40247997
v 0.11121976 -0.0048345849 0.40595379
v 0.1112524 -0.0042325842 0.40938335
v 0.11130428 -0.0032757378 0.41273106
v 0.11137483 -0.0019745398 0.41596024
v 0.11146327 -0.00034326117 0.41903538
v 0.11156864 0.0016002071 0.4219228
v 0.11168979 0.0038345498 0.42459084
v 0.11182537 0.0063352615 0.42701027
v 0.11197392 0.0090749156 0.42915447
v 0.11479328 -0.005075137 0.40247997
v 0.11478024 -0.0048345849 0.40595379
v 0.1147476 -0.0042325842 0.40938335
v 0.11469572 -0.0032757378 0.41273106
v 0.11462517 -0.0019745398 0.41596024
v 0.11453672 -0.00034326117 0.41903538
v 0.11443135 0.0016002071 0.4219228
v 0.11431022 0.0038345498 0.42459084
v 0.11417462 0.0063352615 0.42701027
v 0.11402609 0.0090749156 0.42915447
v 0.11835882 -0.0046873614 0.40247997
v 0.11831985 -0.0044496292 0.40595379
v 0.11822231 -0.0038546866 0.40938335
v 0.11806728 -0.0029090583 0.41273106
v 0.11785646 -0.0016231157 0.41596024
v 0.11759216 -1.0962335e-05 0.41903538
v 0.11727729 0.0019097205 0.4219228
v 0.11691527 0.0041178674 0.42459084
v 0.11651011 0.0065892607 0.42701027
v 0.11606624 0.0092967951 0.42915447
v 0.12186153 -0.0039163563 0.40247997
v 0.12179708 -0.0036842316 0.40595379
v 0.1216358 -0.0031033221 0.40938335
v 0.12137943 -0.0021799985 0.41273106
v 0.12103082 -0.00092438772 0.41596024
v 0.12059377 0.00064973943 0.41903538
v 0.12007307 0.0025251186 0.4219228
v 0.11947444 0.0046811813 0.42459084
v 0.11880445 0.0070942813 0.42701027
v 0.12526035 -0.0027711609 0.40247997
v 0.12517118 -0.0025473651 0.40595379
v 0.12494803 -0.0019872993 0.40938335
v 0.12459334 -0.0010971057 0.41273106
v 0.12411101 0.00011345229 0.41596024
v 0.12350633 0.0016310979 0.41903538
v 0.12278592 0.0034391865 0.4219228
v 0.12195769 0.0055178875 0.42459084
v 0.12103072 0.0078444022 0.42701027
v 0.12001518 0.010393215 0.42915447
v 0.12851542 -0.0012652019 0.40247997
v 0.12840259 -0.001052359 0.40595379
v 0.12812019 -0.00051970299 0.40938335
v 0.12767134 0.00032692399 0.41273106
v 0.12706095 0.0014782366 0.41596024
v 0.12629572 0.0029216078 0.41903538
v 0.12538404 0.0046412072 0.4219228
v 0.12433593 0.0066181755 0.42459084
v 0.12316285 0.0088308293 0.42701027
v 0.12187769 0.011254902 0.42915447
v 0.1315886 0.00058386486 0.40247997
v 0.13145341 0.00078325972 0.40595379
v 0.13111507 0.0012822607 0.40938335
v 0.13057732 0.0020753953 0.41273106
v 0.12984603 0.0031539643 0.41596024
v 0.12892923 0.0045061389 0.41903538
v 0.12783698 0.0061170888 0.4219228
v 0.12658126 0.0079691458 0.42459084
v 0.12517583 0.010041997 0.42701027
v 0.13444384 0.0027543607 0.40247997
v 0.13428788 0.0029379699 0.40595379
v 0.13389758 0.0033974656 0.40938335
v 0.13327723 0.0041278088 0.41273106
v 0.13243361 0.0051209891 0.41596024
v 0.13137599 0.006366114 0.41903538
v 0.13011597 0.007849527 0.4219228
v 0.12866735 0.0095549595 0.42459084
v 0.12704605 0.011463706 0.42701027
v 0.12526983 0.013554834 0.42915447
v 0.13704767 0.0052208388 0.40247997
v 0.13687277 0.0053865093 0.40595379
v 0.13643508 0.0058011127 0.40938335
v 0.13573939 0.0064601016 0.41273106
v 0.13479334 0.0073562491 0.41596024
v 0.1336073 0.0084797263 0.41903538
v 0.13219428 0.0098182118 0.4219228
v 0.13056977 0.011357025 0.42459084
v 0.1287516 0.013079288 0.42701027
v 0.13936956 0.0079543811 0.40247997
v 0.13917778 0.0081001711 0.40595379
v 0.13869782 0.0084650213 0.40938335
v 0.13793497 0.0090449309 0.41273106
v 0.13689757 0.0098335385 0.41596024
v 0.13559701 0.010822196 0.41903538
v 0.13404756 0.012000061 0.4219228
v 0.13226621 0.013354213 0.42459084
v 0.13027248 0.014869802 0.42701027
v 0.12808825 0.016530205 0.42915447
v 0.14138229 0.010922941 0.40247997
v 0.14117587 0.01104714 0.40595379
v 0.14065928 0.01135796 0.40938335
v 0.1398382 0.01185199 0.41273106
v 0.13872162 0.012523813 0.41596024
v 0.1373218 0.01336606 0.41903538
v 0.13565408 0.014369495 0.4219228
v 0.13373675 0.015523111 0.42459084
v 0.13159085 0.016814256 0.42701027
v 0.12923991 0.018228769 0.42915447
v 0.14306227 0.014091712 0.40247997
v 0.14284363 0.014192866 0.40595379
v 0.14229647 0.014446011 0.40938335
v 0.14142678 0.014848371 0.41273106
v 0.14024411 0.015395532 0.41596024
v 0.13876143 0.016081494 0.41903538
v 0.13699499 0.016898733 0.4219228
v 0.13496418 0.017838287 0.42459084
v 0.13269126 0.018889852 0.42701027
v 0.14438979 0.017423546 0.40247997
v 0.1441615 0.017500468 0.40595379
v 0.14359017 0.01769297 0.40938335
v 0.14268209 0.017998942 0.41273106
v 0.14144719 0.018415027 0.41596024
v 0.13989903 0.018936661 0.41903538
v 0.13805459 0.019558125 0.4219228
v 0.1359341 0.020272601 0.42459084
v 0.13356081 0.021072257 0.42701027
v 0.13096076 0.021948316 0.42915447
v 0.1453493 0.020879381 0.40247997
v 0.14511403 0.020931168 0.40595379
v 0.14452524 0.02106077 0.40938335
v 0.14358939 0.021266766 0.41273106
v 0.14231675 0.021546896 0.41596024
v 0.14072126 0.021898088 0.41903538
v 0.13882045 0.022316489 0.4219228
v 0.13663514 0.022797513 0.42459084
v 0.1341893 0.023335881 0.42701027
v 0.13150977 0.023925691 0.42915447
v 0.14592955 0.024418697 0.40247997
v 0.14569005 0.024444742 0.40595379
v 0.1450907 0.024509926 0.40938335
v 0.14413807 0.024613531 0.41273106
v 0.1428426 0.024754422 0.41596024
v 0.1412185 0.024931054 0.41903538
v 0.13928358 0.025141487 0.4219228
v 0.13705908 0.025383418 0.42459084
v 0.13456937 0.02565419 0.42701027
v 0.13184177 0.025950832 0.42915447
v 0.129 0.028 0.43099998
v 0.12880301 0.030502951 0.43099998
v 0.12821691 0.032944272 0.43099998
v 0.12725611 0.035263848 0.43099998
v 0.12594427 0.037404563 0.43099998
v 0.12431371 0.039313707 0.43099998
v 0.12240457 0.040944271 0.43099998
v 0.12026384 0.042256103 0.43099998
v 0.11794427 0.043216906 0.43099998
v 0.11550295 0.043803015 0.43099998
v 0.113 0.044000001 0.43099998
v 0.11049705 0.043803015 0.43099998
v 0.10805573 0.043216906 0.43099998
v 0.10573615 0.042256103 0.43099998
v 0.10359544 0.040944271 0.43099998
v 0.10168629 0.039313707 0.43099998
v 0.10005573 0.037404563 0.43099998
v 0.098743896 0.035263848 0.43099998
v 0.097783098 0.032944272 0.43099998
v 0.097196989 0.030502951 0.43099998
v 0.096999998 0.028 0.43099998
v 0.097196989 0.025497048 0.43099998
v 0.097783098 0.023055727 0.43099998
v 0.098743896 0.020736153 0.43099998
v 0.10005573 0.018595436 0.43099998
v 0.10168629 0.016686292 0.43099998
v 0.10359544 0.015055728 0.43099998
v 0.10573615 0.013743895 0.43099998
v 0.10805573 0.012783096 0.43099998
v 0.11049705 0.012196987 0.43099998
v 0.113 0.012 0.43099998
v 0.11550295 0.012196987 0.43099998
v 0.11794427 0.012783096 0.43099998
v 0.12026384 0.013743895 0.43099998
v 0.12240457 0.015055728 0.43099998
v 0.12431371 0.016686292 0.43099998
v 0.12594427 0.018595436 0.43099998
v 0.12725611 0.020736153 0.43099998
v 0.12821691 0.023055727 0.43099998
v 0.12880301 0.025497048 0.43099998
v 0.129 0.028 0.44099998
v 0.12880301 0.025497048 0.44099998
v 0.12821691 0.023055727 0.44099998
v 0.12725611 0.020736153 0.44099998
v 0.12594427 0.018595436 0.44099998
v 0.12431371 0.016686292 0.44099998
v 0.12240457 0.015055728 0.44099998
v 0.12026384 0.013743895 0.44099998
v 0.11794427 0.012783096 0.44099998
v 0.11550295 0.012196987 0.44099998
v 0.113 0.012 0.44099998
v 0.11049705 0.012196987 0.44099998
v 0.10805573 0.012783096 0.44099998
v 0.10573615 0.013743895 0.44099998
v 0.10359544 0.015055728 0.44099998
v 0.10168629 0.016686292 0.44099998
v 0.10005573 0.018595436 0.44099998
v 0.098743896 0.020736153 0.44099998
v 0.097783098 0.023055727 0.44099998
v 0.097196989 0.025497048 0.44099998
v 0.096999998 0.028 0.44099998
v 0.097196989 0.030502951 0.44099998
v 0.097783098 0.032944272 0.44099998
v 0.098743896 0.035263848 0.44099998
v 0.10005573 0.037404563 0.44099998
v 0.10168629 0.039313707 0.44099998
v 0.10359544 0.040944271 0.44099998
v 0.10573615 0.042256103 0.44099998
v 0.10805573 0.043216906 0.44099998
v 0.11049705 0.043803015 0.44099998
v 0.113 0.044000001 0.44099998
v 0.11550295 0.043803015 0.44099998
v 0.11794427 0.043216906 0.44099998
v 0.12026384 0.042256103 0.44099998
v 0.12240457 0.040944271 0.44099998
v 0.12431371 0.039313707 0.44099998
v 0.12594427 0.037404563 0.44099998
v 0.12725611 0.035263848 0.44099998
v 0.12821691 0.032944272 0.44099998
v 0.12880301 0.030502951 0.44099998
v 0.096999998 0.028 0.43099998
v 0.096999998 0.028 0.44099998
f 2 20 1
f 1 20 21
f 1 21 40
f 40 21 22
f 40 22 39
f 39 22 23
f 39 23 38
f 38 23 24
f 38 24 37
f 37 24 25
f 37 25 36
f 36 25 26
f 36 26 35
f 35 26 27
f 35 27 34
f 34 27 28
f 34 28 33
f 33 28 29
f 33 29 32
f 32 29 30
f 32 30 31
f 20 2 19
f 19 2 3
f 19 3 18
f 18 3 4
f 18 4 17
f 17 4 5
f 17 5 16
f 16 5 6
f 16 6 15
f 15 6 7
f 15 7 14
f 14 7 8
f 14 8 13
f 13 8 9
f 13 9 12
f 12 9 10
f 12 10 11
f 42 69 41
f 41 69 70
f 41 70 98
f 98 70 71
f 98 71 97
f 97 71 72
f 97 72 96
f 96 72 73
f 96 73 95
f 95 73 74
f 95 74 94
f 94 74 75
f 94 75 93
f 93 75 76
f 93 76 92
f 92 76 77
f 92 77 91
f 91 77 78
f 91 78 90
f 90 78 79
f 90 79 89
f 89 79 80
f 89 80 88
f 88 80 81
f 88 81 87
f 87 81 82
f 87 82 86
f 86 82 83
f 86 83 85
f 85 83 84
f 69 42 68
f 68 42 43
f 68 43 67
f 67 43 44
f 67 44 66
f 66 44 45
f 66 45 65
f 65 45 46
f 65 46 64
f 64 46 47
f 64 47 63
f 63 47 48
f 63 48 62
f 62 48 49
f 62 49 61
f 61 49 50
f 61 50 60
f 60 50 51
f 60 51 59
f 59 51 52
f 59 52 58
f 58 52 53
f 58 53 57
f 57 53 54
f 57 54 56
f 56 54 55
f 100 157 99
f 99 157 158
f 99 158 156
f 156 158 159
f 156 159 155
f 155 159 160
f 155 160 154
f 154 160 161
f 154 161 153
f 153 161 162
f 153 162 152
f 152 162 163
f 152 163 151
f 151 163 164
f 151 164 150
f 150 164 165
f 150 165 149
f 149 165 166
f 149 166 148
f 148 166 167
f 148 167 147
f 147 167 168
f 147 168 146
f 146 168 169
f 146 169 145
f 145 169 170
f 145 170 144
f 144 170 171
f 144 171 143
f 143 171 172
f 143 172 142
f 142 172 173
f 142 173 141
f 141 173 174
f 141 174 140
f 140 174 175
f 140 175 139
f 139 175 176
f 139 176 138
f 138 176 177
f 138 177 137
f 137 177 178
f 137 178 136
f 136 178 179
f 136 179 135
f 135 179 180
f 135 180 134
f 134 180 181
f 134 181 133
f 133 181 182
f 133 182 132
f 132 182 183
f 132 183 131
f 131 183 184
f 131 184 130
f 130 184 185
f 130 185 129
f 129 185 128
f 128 185 216
f 215 186 127
f 127 186 187
f 127 187 188
f 157 100 214
f 214 100 101
f 214 101 213
f 213 101 102
f 213 102 212
f 212 102 103
f 212 103 211
f 211 103 104
f 211 104 210
f 210 104 105
f 210 105 209
f 209 105 106
f 209 106 208
f 208 106 107
f 208 107 207
f 207 107 108
f 207 108 206
f 206 108 109
f 206 109 205
f 205 109 110
f 205 110 204
f 204 110 111
f 204 111 203
f 203 111 112
f 203 112 202
f 202 112 113
f 202 113 201
f 201 113 114
f 201 114 200
f 200 114 115
f 200 115 199
f 199 115 116
f 199 116 198
f 198 116 117
f 198 117 197
f 197 117 118
f 197 118 196
f 196 118 119
f 196 119 195
f 195 119 120
f 195 120 194
f 194 120 121
f 194 121 193
f 193 121 122
f 193 122 192
f 192 122 123
f 192 123 191
f 191 123 124
f 191 124 190
f 190 124 125
f 190 125 189
f 189 125 126
f 189 126 188
f 188 126 127
f 218 353 217
f 217 353 372
f 217 372 274
f 274 372 897
f 274 897 273
f 273 897 887
f 273 887 272
f 272 887 877
f 272 877 271
f 271 877 868
f 271 868 270
f 270 868 858
f 270 858 269
f 269 858 848
f 269 848 268
f 268 848 839
f 268 839 267
f 267 839 829
f 267 829 266
f 266 829 820
f 266 820 265
f 265 820 810
f 265 810 264
f 264 810 800
f 264 800 263
f 263 800 791
f 263 791 262
f 262 791 781
f 262 781 261
f 261 781 771
f 261 771 260
f 260 771 761
f 260 761 259
f 259 761 751
f 259 751 258
f 258 751 742
f 258 742 257
f 257 742 732
f 257 732 256
f 256 732 722
f 256 722 255
f 255 722 713
f 255 713 254
f 254 713 703
f 254 703 253
f 253 703 694
f 253 694 252
f 252 694 684
f 252 684 251
f 251 684 674
f 251 674 250
f 250 674 665
f 250 665 249
f 249 665 655
f 249 655 248
f 248 655 645
f 248 645 247
f 247 645 635
f 247 635 246
f 246 635 318
f 315 317 245
f 245 317 625
f 245 625 244
f 244 625 615
f 244 615 243
f 243 615 605
f 243 605 242
f 242 605 596
f 242 596 241
f 241 596 586
f 241 586 240
f 240 586 576
f 240 576 239
f 239 576 567
f 239 567 238
f 238 567 557
f 238 557 237
f 237 557 548
f 237 548 236
f 236 548 538
f 236 538 235
f 235 538 528
f 235 528 234
f 234 528 519
f 234 519 233
f 233 519 509
f 233 509 232
f 232 509 499
f 232 499 231
f 231 499 489
f 231 489 230
f 230 489 479
f 230 479 229
f 229 479 470
f 229 470 228
f 228 470 460
f 228 460 227
f 227 460 450
f 227 450 226
f 226 450 441
f 226 441 225
f 225 441 431
f 225 431 224
f 224 431 422
f 224 422 223
f 223 422 412
f 223 412 222
f 222 412 402
f 222 402 221
f 221 402 393
f 221 393 220
f 220 393 383
f 220 383 219
f 219 383 373
f 219 373 218
f 218 373 353
f 276 906 275
f 275 906 363
f 275 363 362
f 362 363 364
f 362 364 361
f 361 364 365
f 361 365 360
f 360 365 366
f 360 366 359
f 359 366 367
f 359 367 358
f 358 367 368
f 358 368 357
f 357 368 369
f 357 369 356
f 356 369 370
f 356 370 355
f 355 370 371
f 355 371 354
f 354 371 372
f 372 371 897
f 906 276 896
f 896 276 277
f 896 277 886
f 886 277 344
f 886 344 876
f 876 344 866
f 876 866 865
f 876 865 875
f 875 865 864
f 875 864 874
f 874 864 863
f 874 863 873
f 873 863 862
f 873 862 872
f 872 862 861
f 872 861 871
f 871 861 860
f 871 860 870
f 870 860 859
f 870 859 869
f 869 859 858
f 858 859 848
f 277 278 344
f 344 278 867
f 344 867 866
f 866 867 856
f 866 856 855
f 866 855 865
f 865 855 854
f 865 854 864
f 864 854 853
f 864 853 863
f 863 853 852
f 863 852 862
f 862 852 851
f 862 851 861
f 861 851 850
f 861 850 860
f 860 850 849
f 860 849 859
f 859 849 848
f 848 849 839
f 278 279 867
f 867 279 857
f 867 857 856
f 856 857 847
f 856 847 846
f 856 846 855
f 855 846 845
f 855 845 854
f 854 845 844
f 854 844 853
f 853 844 843
f 853 843 852
f 852 843 842
f 852 842 851
f 851 842 841
f 851 841 850
f 850 841 840
f 850 840 849
f 849 840 839
f 839 840 829
f 857 279 343
f 343 279 280
f 343 280 838
f 838 280 281
f 838 281 342
f 342 281 282
f 342 282 819
f 819 282 809
f 819 809 808
f 808 809 799
f 808 799 798
f 808 798 807
f 807 798 797
f 807 797 806
f 806 797 796
f 806 796 805
f 805 796 795
f 805 795 804
f 804 795 794
f 804 794 803
f 803 794 793
f 803 793 802
f 802 793 792
f 802 792 801
f 801 792 791
f 791 792 781
f 282 283 809
f 809 283 341
f 809 341 799
f 799 341 789
f 799 789 788
f 799 788 798
f 798 788 787
f 798 787 797
f 797 787 786
f 797 786 796
f 796 786 785
f 796 785 795
f 795 785 784
f 795 784 794
f 794 784 783
f 794 783 793
f 793 783 782
f 793 782 792
f 792 782 781
f 781 782 771
f 283 284 341
f 341 284 790
f 341 790 789
f 789 790 779
f 789 779 778
f 789 778 788
f 788 778 777
f 788 777 787
f 787 777 776
f 787 776 786
f 786 776 775
f 786 775 785
f 785 775 774
f 785 774 784
f 784 774 773
f 784 773 783
f 783 773 772
f 783 772 782
f 782 772 771
f 771 772 761
f 790 284 780
f 780 284 285
f 780 285 770
f 770 285 286
f 770 286 760
f 760 286 340
f 760 340 750
f 750 340 740
f 750 740 739
f 750 739 749
f 749 739 738
f 749 738 748
f 748 738 737
f 748 737 747
f 747 737 736
f 747 736 746
f 746 736 735
f 746 735 745
f 745 735 734
f 745 734 744
f 744 734 733
f 744 733 743
f 743 733 732
f 732 733 722
f 286 287 340
f 340 287 741
f 340 741 740
f 740 741 730
f 740 730 729
f 740 729 739
f 739 729 728
f 739 728 738
f 738 728 727
f 738 727 737
f 737 727 726
f 737 726 736
f 736 726 725
f 736 725 735
f 735 725 724
f 735 724 734
f 734 724 723
f 734 723 733
f 733 723 722
f 722 723 713
f 287 288 741
f 741 288 731
f 741 731 730
f 730 731 721
f 730 721 720
f 730 720 729
f 729 720 719
f 729 719 728
f 728 719 718
f 728 718 727
f 727 718 717
f 727 717 726
f 726 717 716
f 726 716 725
f 725 716 715
f 725 715 724
f 724 715 714
f 724 714 723
f 723 714 713
f 713 714 703
f 731 288 339
f 339 288 289
f 339 289 712
f 712 289 290
f 712 290 338
f 338 290 291
f 338 291 693
f 693 291 683
f 693 683 682
f 682 683 673
f 682 673 672
f 682 672 681
f 681 672 671
f 681 671 680
f 680 671 670
f 680 670 679
f 679 670 669
f 679 669 678
f 678 669 668
f 678 668 677
f 677 668 667
f 677 667 676
f 676 667 666
f 676 666 675
f 675 666 665
f 665 666 655
f 291 292 683
f 683 292 337
f 683 337 673
f 673 337 663
f 673 663 662
f 673 662 672
f 672 662 661
f 672 661 671
f 671 661 660
f 671 660 670
f 670 660 659
f 670 659 669
f 669 659 658
f 669 658 668
f 668 658 657
f 668 657 667
f 667 657 656
f 667 656 666
f 666 656 655
f 655 656 645
f 292 293 337
f 337 293 664
f 337 664 663
f 663 664 653
f 663 653 652
f 663 652 662
f 662 652 651
f 662 651 661
f 661 651 650
f 661 650 660
f 660 650 649
f 660 649 659
f 659 649 648
f 659 648 658
f 658 648 647
f 658 647 657
f 657 647 646
f 657 646 656
f 656 646 645
f 645 646 635
f 664 293 654
f 654 293 294
f 654 294 644
f 644 294 316
f 644 316 336
f 335 295 634
f 335 634 633
f 633 634 623
f 633 623 622
f 622 623 613
f 622 613 612
f 612 613 604
f 612 604 603
f 603 604 594
f 603 594 593
f 593 594 584
f 593 584 583
f 583 584 575
f 583 575 574
f 574 575 565
f 574 565 564
f 564 565 556
f 564 556 555
f 555 556 546
f 555 546 545
f 545 546 536
f 545 536 535
f 535 536 527
f 535 527 526
f 526 527 517
f 526 517 516
f 516 517 507
f 516 507 506
f 506 507 497
f 506 497 496
f 496 497 487
f 496 487 486
f 486 487 478
f 486 478 477
f 477 478 468
f 477 468 467
f 467 468 458
f 467 458 457
f 457 458 449
f 457 449 448
f 448 449 439
f 448 439 438
f 438 439 430
f 438 430 429
f 429 430 420
f 429 420 419
f 419 420 410
f 419 410 409
f 409 410 401
f 409 401 400
f 400 401 391
f 400 391 390
f 390 391 381
f 390 381 380
f 380 381 361
f 380 361 360
f 295 296 634
f 634 296 624
f 634 624 623
f 623 624 613
f 296 297 624
f 624 297 614
f 624 614 613
f 613 614 604
f 614 297 352
f 352 297 298
f 352 298 595
f 595 298 299
f 595 299 585
f 585 299 351
f 585 351 575
f 575 351 565
f 299 300 351
f 351 300 566
f 351 566 565
f 565 566 556
f 300 301 566
f 566 301 350
f 566 350 556
f 556 350 546
f 301 302 350
f 350 302 547
f 350 547 546
f 546 547 536
f 547 302 537
f 537 302 303
f 537 303 349
f 349 303 304
f 349 304 518
f 518 304 508
f 518 508 507
f 507 508 497
f 304 305 508
f 508 305 498
f 508 498 497
f 497 498 487
f 305 306 498
f 498 306 488
f 498 488 487
f 487 488 478
f 488 306 348
f 348 306 307
f 348 307 469
f 469 307 308
f 469 308 459
f 459 308 347
f 459 347 449
f 449 347 439
f 308 309 347
f 347 309 440
f 347 440 439
f 439 440 430
f 309 310 440
f 440 310 346
f 440 346 430
f 430 346 420
f 310 311 346
f 346 311 421
f 346 421 420
f 420 421 410
f 421 311 411
f 411 311 312
f 411 312 345
f 345 312 313
f 345 313 392
f 392 313 382
f 392 382 381
f 381 382 361
f 313 314 382
f 382 314 362
f 382 362 361
f 314 275 362
f 317 319 625
f 625 319 626
f 625 626 615
f 615 626 616
f 615 616 605
f 605 616 606
f 605 606 596
f 596 606 597
f 596 597 586
f 586 597 587
f 586 587 576
f 576 587 577
f 576 577 567
f 567 577 568
f 567 568 557
f 557 568 558
f 557 558 548
f 548 558 549
f 548 549 538
f 538 549 539
f 538 539 528
f 528 539 529
f 528 529 519
f 519 529 520
f 519 520 509
f 509 520 510
f 509 510 499
f 499 510 500
f 499 500 489
f 489 500 490
f 489 490 479
f 479 490 480
f 479 480 470
f 470 480 471
f 470 471 460
f 460 471 461
f 460 461 450
f 450 461 451
f 450 451 441
f 441 451 442
f 441 442 431
f 431 442 432
f 431 432 422
f 422 432 423
f 422 423 412
f 412 423 413
f 412 413 402
f 402 413 403
f 402 403 393
f 393 403 394
f 393 394 383
f 383 394 384
f 383 384 373
f 373 384 374
f 373 374 353
f 353 374 354
f 353 354 372
f 319 321 626
f 626 321 627
f 626 627 616
f 616 627 617
f 616 617 607
f 616 607 606
f 606 607 598
f 606 598 597
f 597 598 588
f 597 588 587
f 587 588 578
f 587 578 577
f 577 578 569
f 577 569 568
f 568 569 559
f 568 559 558
f 558 559 550
f 558 550 549
f 549 550 540
f 549 540 539
f 539 540 530
f 539 530 529
f 529 530 521
f 529 521 520
f 520 521 511
f 520 511 510
f 510 511 501
f 510 501 500
f 500 501 491
f 500 491 490
f 490 491 481
f 490 481 480
f 480 481 472
f 480 472 471
f 471 472 462
f 471 462 461
f 461 462 452
f 461 452 451
f 451 452 443
f 451 443 442
f 442 443 433
f 442 433 432
f 432 433 424
f 432 424 423
f 423 424 414
f 423 414 413
f 413 414 404
f 413 404 403
f 403 404 395
f 403 395 394
f 394 395 385
f 394 385 384
f 384 385 375
f 384 375 374
f 374 375 355
f 374 355 354
f 320 318 636
f 636 318 635
f 636 635 646
f 321 323 627
f 627 323 628
f 627 628 617
f 617 628 618
f 617 618 608
f 617 608 607
f 607 608 599
f 607 599 598
f 598 599 589
f 598 589 588
f 588 589 579
f 588 579 578
f 578 579 570
f 578 570 569
f 569 570 560
f 569 560 559
f 559 560 551
f 559 551 550
f 550 551 541
f 550 541 540
f 540 541 531
f 540 531 530
f 530 531 522
f 530 522 521
f 521 522 512
f 521 512 511
f 511 512 502
f 511 502 501
f 501 502 492
f 501 492 491
f 491 492 482
f 491 482 481
f 481 482 473
f 481 473 472
f 472 473 463
f 472 463 462
f 462 463 453
f 462 453 452
f 452 453 444
f 452 444 443
f 443 444 434
f 443 434 433
f 433 434 425
f 433 425 424
f 424 425 415
f 424 415 414
f 414 415 405
f 414 405 404
f 404 405 396
f 404 396 395
f 395 396 386
f 395 386 385
f 385 386 376
f 385 376 375
f 375 376 356
f 375 356 355
f 322 320 637
f 637 320 636
f 637 636 647
f 647 636 646
f 323 325 628
f 628 325 629
f 628 629 618
f 618 629 619
f 618 619 609
f 618 609 608
f 608 609 600
f 608 600 599
f 599 600 590
f 599 590 589
f 589 590 580
f 589 580 579
f 579 580 571
f 579 571 570
f 570 571 561
f 570 561 560
f 560 561 552
f 560 552 551
f 551 552 542
f 551 542 541
f 541 542 532
f 541 532 531
f 531 532 523
f 531 523 522
f 522 523 513
f 522 513 512
f 512 513 503
f 512 503 502
f 502 503 493
f 502 493 492
f 492 493 483
f 492 483 482
f 482 483 474
f 482 474 473
f 473 474 464
f 473 464 463
f 463 464 454
f 463 454 453
f 453 454 445
f 453 445 444
f 444 445 435
f 444 435 434
f 434 435 426
f 434 426 425
f 425 426 416
f 425 416 415
f 415 416 406
f 415 406 405
f 405 406 397
f 405 397 396
f 396 397 387
f 396 387 386
f 386 387 377
f 386 377 376
f 376 377 357
f 376 357 356
f 324 322 638
f 638 322 637
f 638 637 648
f 648 637 647
f 325 327 629
f 629 327 630
f 629 630 619
f 619 630 620
f 619 620 610
f 619 610 609
f 609 610 601
f 609 601 600
f 600 601 591
f 600 591 590
f 590 591 581
f 590 581 580
f 580 581 572
f 580 572 571
f 571 572 562
f 571 562 561
f 561 562 553
f 561 553 552
f 552 553 543
f 552 543 542
f 542 543 533
f 542 533 532
f 532 533 524
f 532 524 523
f 523 524 514
f 523 514 513
f 513 514 504
f 513 504 503
f 503 504 494
f 503 494 493
f 493 494 484
f 493 484 483
f 483 484 475
f 483 475 474
f 474 475 465
f 474 465 464
f 464 465 455
f 464 455 454
f 454 455 446
f 454 446 445
f 445 446 436
f 445 436 435
f 435 436 427
f 435 427 426
f 426 427 417
f 426 417 416
f 416 417 407
f 416 407 406
f 406 407 398
f 406 398 397
f 397 398 388
f 397 388 387
f 387 388 378
f 387 378 377
f 377 378 358
f 377 358 357
f 326 324 639
f 639 324 638
f 639 638 649
f 649 638 648
f 327 329 630
f 630 329 631
f 630 631 620
f 620 631 621
f 620 621 611
f 620 611 610
f 610 611 602
f 610 602 601
f 601 602 592
f 601 592 591
f 591 592 582
f 591 582 581
f 581 582 573
f 581 573 572
f 572 573 563
f 572 563 562
f 562 563 554
f 562 554 553
f 553 554 544
f 553 544 543
f 543 544 534
f 543 534 533
f 533 534 525
f 533 525 524
f 524 525 515
f 524 515 514
f 514 515 505
f 514 505 504
f 504 505 495
f 504 495 494
f 494 495 485
f 494 485 484
f 484 485 476
f 484 476 475
f 475 476 466
f 475 466 465
f 465 466 456
f 465 456 455
f 455 456 447
f 455 447 446
f 446 447 437
f 446 437 436
f 436 437 428
f 436 428 427
f 427 428 418
f 427 418 417
f 417 418 408
f 417 408 407
f 407 408 399
f 407 399 398
f 398 399 389
f 398 389 388
f 388 389 379
f 388 379 378
f 378 379 359
f 378 359 358
f 328 326 640
f 640 326 639
f 640 639 650
f 650 639 649
f 329 331 631
f 631 331 632
f 631 632 621
f 621 632 622
f 621 622 612
f 621 612 611
f 611 612 603
f 611 603 602
f 602 603 593
f 602 593 592
f 592 593 583
f 592 583 582
f 582 583 574
f 582 574 573
f 573 574 564
f 573 564 563
f 563 564 555
f 563 555 554
f 554 555 545
f 554 545 544
f 544 545 535
f 544 535 534
f 534 535 526
f 534 526 525
f 525 526 516
f 525 516 515
f 515 516 506
f 515 506 505
f 505 506 496
f 505 496 495
f 495 496 486
f 495 486 485
f 485 486 477
f 485 477 476
f 476 477 467
f 476 467 466
f 466 467 457
f 466 457 456
f 456 457 448
f 456 448 447
f 447 448 438
f 447 438 437
f 437 438 429
f 437 429 428
f 428 429 419
f 428 419 418
f 418 419 409
f 418 409 408
f 408 409 400
f 408 400 399
f 399 400 390
f 399 390 389
f 389 390 380
f 389 380 379
f 379 380 360
f 379 360 359
f 330 328 641
f 641 328 640
f 641 640 651
f 651 640 650
f 331 333 632
f 632 333 633
f 632 633 622
f 332 330 642
f 642 330 641
f 642 641 652
f 652 641 651
f 644 336 334
f 333 335 633
f 334 332 643
f 643 332 642
f 643 642 653
f 653 642 652
f 364 363 905
f 905 363 906
f 905 906 895
f 895 906 896
f 895 896 885
f 885 896 886
f 885 886 876
f 365 364 905
f 365 905 904
f 904 905 895
f 904 895 894
f 894 895 885
f 894 885 884
f 884 885 876
f 884 876 875
f 366 365 904
f 366 904 903
f 903 904 894
f 903 894 893
f 893 894 884
f 893 884 883
f 883 884 875
f 883 875 874
f 367 366 903
f 367 903 902
f 902 903 893
f 902 893 892
f 892 893 883
f 892 883 882
f 882 883 874
f 882 874 873
f 368 367 902
f 368 902 901
f 901 902 892
f 901 892 891
f 891 892 882
f 891 882 881
f 881 882 873
f 881 873 872
f 369 368 901
f 369 901 900
f 900 901 891
f 900 891 890
f 890 891 881
f 890 881 880
f 880 881 872
f 880 872 871
f 370 369 900
f 370 900 899
f 899 900 890
f 899 890 889
f 889 890 880
f 889 880 879
f 879 880 871
f 879 871 870
f 371 370 899
f 371 899 898
f 898 899 889
f 898 889 888
f 888 889 879
f 888 879 878
f 878 879 870
f 878 870 869
f 345 392 391
f 391 392 381
f 411 345 401
f 401 345 391
f 421 411 410
f 410 411 401
f 469 459 458
f 458 459 449
f 348 469 468
f 468 469 458
f 488 348 478
f 478 348 468
f 349 518 517
f 517 518 507
f 537 349 527
f 527 349 517
f 547 537 536
f 536 537 527
f 595 585 584
f 584 585 575
f 352 595 594
f 594 595 584
f 614 352 604
f 604 352 594
f 654 644 643
f 643 644 334
f 654 643 653
f 664 654 653
f 675 665 674
f 675 674 685
f 685 674 684
f 685 684 695
f 695 684 694
f 695 694 704
f 704 694 703
f 704 703 714
f 676 675 685
f 676 685 686
f 686 685 695
f 686 695 696
f 696 695 704
f 696 704 705
f 705 704 714
f 705 714 715
f 677 676 686
f 677 686 687
f 687 686 696
f 687 696 697
f 697 696 705
f 697 705 706
f 706 705 715
f 706 715 716
f 678 677 687
f 678 687 688
f 688 687 697
f 688 697 698
f 698 697 706
f 698 706 707
f 707 706 716
f 707 716 717
f 679 678 688
f 679 688 689
f 689 688 698
f 689 698 699
f 699 698 707
f 699 707 708
f 708 707 717
f 708 717 718
f 680 679 689
f 680 689 690
f 690 689 699
f 690 699 700
f 700 699 708
f 700 708 709
f 709 708 718
f 709 718 719
f 681 680 690
f 681 690 691
f 691 690 700
f 691 700 701
f 701 700 709
f 701 709 710
f 710 709 719
f 710 719 720
f 682 681 691
f 682 691 692
f 692 691 701
f 692 701 702
f 702 701 710
f 702 710 711
f 711 710 720
f 711 720 721
f 338 693 692
f 692 693 682
f 712 338 702
f 702 338 692
f 339 712 711
f 711 712 702
f 731 339 721
f 721 339 711
f 743 732 742
f 743 742 752
f 752 742 751
f 752 751 762
f 762 751 761
f 762 761 772
f 744 743 752
f 744 752 753
f 753 752 762
f 753 762 763
f 763 762 772
f 763 772 773
f 745 744 753
f 745 753 754
f 754 753 763
f 754 763 764
f 764 763 773
f 764 773 774
f 746 745 754
f 746 754 755
f 755 754 764
f 755 764 765
f 765 764 774
f 765 774 775
f 747 746 755
f 747 755 756
f 756 755 765
f 756 765 766
f 766 765 775
f 766 775 776
f 748 747 756
f 748 756 757
f 757 756 766
f 757 766 767
f 767 766 776
f 767 776 777
f 749 748 757
f 749 757 758
f 758 757 767
f 758 767 768
f 768 767 777
f 768 777 778
f 750 749 758
f 750 758 759
f 759 758 768
f 759 768 769
f 769 768 778
f 769 778 779
f 770 760 759
f 759 760 750
f 780 770 769
f 769 770 759
f 790 780 779
f 779 780 769
f 801 791 800
f 801 800 811
f 811 800 810
f 811 810 821
f 821 810 820
f 821 820 830
f 830 820 829
f 830 829 840
f 802 801 811
f 802 811 812
f 812 811 821
f 812 821 822
f 822 821 830
f 822 830 831
f 831 830 840
f 831 840 841
f 803 802 812
f 803 812 813
f 813 812 822
f 813 822 823
f 823 822 831
f 823 831 832
f 832 831 841
f 832 841 842
f 804 803 813
f 804 813 814
f 814 813 823
f 814 823 824
f 824 823 832
f 824 832 833
f 833 832 842
f 833 842 843
f 805 804 814
f 805 814 815
f 815 814 824
f 815 824 825
f 825 824 833
f 825 833 834
f 834 833 843
f 834 843 844
f 806 805 815
f 806 815 816
f 816 815 825
f 816 825 826
f 826 825 834
f 826 834 835
f 835 834 844
f 835 844 845
f 807 806 816
f 807 816 817
f 817 816 826
f 817 826 827
f 827 826 835
f 827 835 836
f 836 835 845
f 836 845 846
f 808 807 817
f 808 817 818
f 818 817 827
f 818 827 828
f 828 827 836
f 828 836 837
f 837 836 846
f 837 846 847
f 342 819 818
f 818 819 808
f 838 342 828
f 828 342 818
f 343 838 837
f 837 838 828
f 857 343 847
f 847 343 837
f 869 858 868
f 878 869 868
f 878 868 877
f 888 878 877
f 888 877 887
f 898 888 887
f 898 887 897
f 371 898 897
f 908 986 907
f 907 986 947
f 907 947 946
f 946 947 948
f 946 948 945
f 945 948 949
f 945 949 944
f 944 949 950
f 944 950 943
f 943 950 951
f 943 951 942
f 942 951 952
f 942 952 941
f 941 952 953
f 941 953 940
f 940 953 954
f 940 954 939
f 939 954 955
f 939 955 938
f 938 955 956
f 938 956 937
f 937 956 957
f 937 957 936
f 936 957 958
f 936 958 935
f 935 958 959
f 935 959 934
f 934 959 960
f 934 960 933
f 933 960 961
f 933 961 932
f 932 961 962
f 932 962 931
f 931 962 963
f 931 963 930
f 930 963 964
f 930 964 929
f 929 964 965
f 929 965 928
f 928 965 966
f 928 966 927
f 927 966 988
f 987 967 926
f 926 967 968
f 926 968 925
f 925 968 969
f 925 969 924
f 924 969 970
f 924 970 923
f 923 970 971
f 923 971 922
f 922 971 972
f 922 972 921
f 921 972 973
f 921 973 920
f 920 973 974
f 920 974 919
f 919 974 975
f 919 975 918
f 918 975 976
f 918 976 917
f 917 976 977
f 917 977 916
f 916 977 978
f 916 978 915
f 915 978 979
f 915 979 914
f 914 979 980
f 914 980 913
f 913 980 981
f 913 981 912
f 912 981 982
f 912 982 911
f 911 982 983
f 911 983 910
f 910 983 984
f 910 984 909
f 909 984 985
f 909 985 908
f 908 985 986
