v 0.019543997 0.12592954 9.9999998e-05
v 0.020140178 0.12603452 9.9999998e-05
v 0.020140178 0.12603452 0.000125
v 0.019543997 0.12592954 0.000125
v 0.020140178 0.12603452 9.9999998e-05
v 0.020663779 0.12593472 9.9999998e-05
v 0.020663779 0.12593472 0.000125
v 0.020140178 0.12603452 0.000125
v 0.019138336 0.12565348 9.9999998e-05
v 0.019543997 0.12592954 9.9999998e-05
v 0.019543997 0.12592954 0.000125
v 0.019138336 0.12565348 0.000125
v 0.020663779 0.12593472 9.9999998e-05
v 0.021026671 0.12566903 9.9999998e-05
v 0.021026671 0.12566903 0.000125
v 0.020663779 0.12593472 0.000125
v 0.018898568 0.12527762 9.9999998e-05
v 0.019138336 0.12565348 9.9999998e-05
v 0.019138336 0.12565348 0.000125
v 0.018898568 0.12527762 0.000125
v 0.021026671 0.12566903 9.9999998e-05
v 0.021239223 0.12521282 9.9999998e-05
v 0.021239223 0.12521282 0.000125
v 0.021026671 0.12566903 0.000125
v 0.018753411 0.12451296 9.9999998e-05
v 0.018898568 0.12527762 9.9999998e-05
v 0.018898568 0.12527762 0.000125
v 0.018753411 0.12451296 0.000125
v 0.021239223 0.12521282 9.9999998e-05
v 0.021692839 0.12533725 9.9999998e-05
v 0.021692839 0.12533725 0.000125
v 0.021239223 0.12521282 0.000125
v 0.018928376 0.12366276 9.9999998e-05
v 0.018797152 0.12404638 9.9999998e-05
v 0.018753411 0.12451296 9.9999998e-05
v 0.018753411 0.12451296 0.000125
v 0.018797152 0.12404638 0.000125
v 0.018928376 0.12366276 0.000125
v 0.021692839 0.12533725 9.9999998e-05
v 0.021405118 0.12595935 9.9999998e-05
v 0.021405118 0.12595935 0.000125
v 0.021692839 0.12533725 0.000125
v 0.019437722 0.12315471 9.9999998e-05
v 0.019143196 0.12336467 9.9999998e-05
v 0.018928376 0.12366276 9.9999998e-05
v 0.018928376 0.12366276 0.000125
v 0.019143196 0.12336467 0.000125
v 0.019437722 0.12315471 0.000125
v 0.021405118 0.12595935 9.9999998e-05
v 0.020882812 0.12633131 9.9999998e-05
v 0.020882812 0.12633131 0.000125
v 0.021405118 0.12595935 0.000125
v 0.020147953 0.12298882 9.9999998e-05
v 0.019437722 0.12315471 9.9999998e-05
v 0.019437722 0.12315471 0.000125
v 0.020147953 0.12298882 0.000125
v 0.020882812 0.12633131 9.9999998e-05
v 0.020137587 0.12646481 9.9999998e-05
v 0.020137587 0.12646481 0.000125
v 0.020882812 0.12633131 0.000125
v 0.020785608 0.12311453 9.9999998e-05
v 0.020147953 0.12298882 9.9999998e-05
v 0.020147953 0.12298882 0.000125
v 0.020785608 0.12311453 0.000125
v 0.020137587 0.12646481 9.9999998e-05
v 0.019602968 0.12640648 9.9999998e-05
v 0.019134448 0.12623152 9.9999998e-05
v 0.019134448 0.12623152 0.000125
v 0.019602968 0.12640648 0.000125
v 0.020137587 0.12646481 0.000125
v 0.021257367 0.12338281 9.9999998e-05
v 0.020785608 0.12311453 9.9999998e-05
v 0.020785608 0.12311453 0.000125
v 0.021257367 0.12338281 0.000125
v 0.019134448 0.12623152 9.9999998e-05
v 0.018749847 0.12593634 9.9999998e-05
v 0.018466985 0.1255174 9.9999998e-05
v 0.018466985 0.1255174 0.000125
v 0.018749847 0.12593634 0.000125
v 0.019134448 0.12623152 0.000125
v 0.021257367 0.12409045 9.9999998e-05
v 0.021257367 0.12338281 9.9999998e-05
v 0.021257367 0.12338281 0.000125
v 0.021257367 0.12409045 0.000125
v 0.018466985 0.1255174 9.9999998e-05
v 0.018292991 0.12501809 9.9999998e-05
v 0.018234993 0.12448186 9.9999998e-05
v 0.018234993 0.12448186 0.000125
v 0.018292991 0.12501809 0.000125
v 0.018466985 0.1255174 0.000125
v 0.020140178 0.12409045 0.000125
v 0.021257367 0.12409045 0.000125
v 0.021257367 0.12338281 0.000125
v 0.020785608 0.12311453 0.000125
v 0.020147953 0.12298882 0.000125
v 0.019437722 0.12315471 0.000125
v 0.019143196 0.12336467 0.000125
v 0.018928376 0.12366276 0.000125
v 0.018797152 0.12404638 0.000125
v 0.018753411 0.12451296 0.000125
v 0.018898568 0.12527762 0.000125
v 0.019138336 0.12565348 0.000125
v 0.019543997 0.12592954 0.000125
v 0.020140178 0.12603452 0.000125
v 0.020663779 0.12593472 0.000125
v 0.021026671 0.12566903 0.000125
v 0.021239223 0.12521282 0.000125
v 0.021692839 0.12533725 0.000125
v 0.021405118 0.12595935 0.000125
v 0.020882812 0.12633131 0.000125
v 0.020137587 0.12646481 0.000125
v 0.019602968 0.12640648 0.000125
v 0.019134448 0.12623152 0.000125
v 0.018749847 0.12593634 0.000125
v 0.018466985 0.1255174 0.000125
v 0.018292991 0.12501809 0.000125
v 0.018234993 0.12448186 0.000125
v 0.018293315 0.12394854 0.000125
v 0.018468281 0.12346835 0.000125
v 0.018757623 0.1230682 0.000125
v 0.019159073 0.12277496 0.000125
v 0.019642173 0.12259514 0.000125
v 0.020176468 0.1225352 0.000125
v 0.020985198 0.12268424 0.000125
v 0.021749864 0.12312879 0.000125
v 0.021749864 0.12453888 0.000125
v 0.020140178 0.12453629 0.000125
v 0.018234993 0.12448186 9.9999998e-05
v 0.018293315 0.12394854 9.9999998e-05
v 0.018468281 0.12346835 9.9999998e-05
v 0.018468281 0.12346835 0.000125
v 0.018293315 0.12394854 0.000125
v 0.018234993 0.12448186 0.000125
v 0.020140178 0.12409045 9.9999998e-05
v 0.021257367 0.12409045 9.9999998e-05
v 0.021257367 0.12409045 0.000125
v 0.020140178 0.12409045 0.000125
v 0.018468281 0.12346835 9.9999998e-05
v 0.018757623 0.1230682 9.9999998e-05
v 0.019159073 0.12277496 9.9999998e-05
v 0.019159073 0.12277496 0.000125
v 0.018757623 0.1230682 0.000125
v 0.018468281 0.12346835 0.000125
v 0.021257367 0.12409045 9.9999998e-05
v 0.020140178 0.12409045 9.9999998e-05
v 0.020140178 0.12453629 9.9999998e-05
v 0.021749864 0.12453888 9.9999998e-05
v 0.021749864 0.12312879 9.9999998e-05
v 0.020985198 0.12268424 9.9999998e-05
v 0.020176468 0.1225352 9.9999998e-05
v 0.019642173 0.12259514 9.9999998e-05
v 0.019159073 0.12277496 9.9999998e-05
v 0.018757623 0.1230682 9.9999998e-05
v 0.018468281 0.12346835 9.9999998e-05
v 0.018293315 0.12394854 9.9999998e-05
v 0.018234993 0.12448186 9.9999998e-05
v 0.018292991 0.12501809 9.9999998e-05
v 0.018466985 0.1255174 9.9999998e-05
v 0.018749847 0.12593634 9.9999998e-05
v 0.019134448 0.12623152 9.9999998e-05
v 0.019602968 0.12640648 9.9999998e-05
v 0.020137587 0.12646481 9.9999998e-05
v 0.020882812 0.12633131 9.9999998e-05
v 0.021405118 0.12595935 9.9999998e-05
v 0.021692839 0.12533725 9.9999998e-05
v 0.021239223 0.12521282 9.9999998e-05
v 0.021026671 0.12566903 9.9999998e-05
v 0.020663779 0.12593472 9.9999998e-05
v 0.020140178 0.12603452 9.9999998e-05
v 0.019543997 0.12592954 9.9999998e-05
v 0.019138336 0.12565348 9.9999998e-05
v 0.018898568 0.12527762 9.9999998e-05
v 0.018753411 0.12451296 9.9999998e-05
v 0.018797152 0.12404638 9.9999998e-05
v 0.018928376 0.12366276 9.9999998e-05
v 0.019143196 0.12336467 9.9999998e-05
v 0.019437722 0.12315471 9.9999998e-05
v 0.020147953 0.12298882 9.9999998e-05
v 0.020785608 0.12311453 9.9999998e-05
v 0.021257367 0.12338281 9.9999998e-05
v 0.019159073 0.12277496 9.9999998e-05
v 0.019642173 0.12259514 9.9999998e-05
v 0.020176468 0.1225352 9.9999998e-05
v 0.020176468 0.1225352 0.000125
v 0.019642173 0.12259514 0.000125
v 0.019159073 0.12277496 0.000125
v 0.020176468 0.1225352 9.9999998e-05
v 0.020985198 0.12268424 9.9999998e-05
v 0.020985198 0.12268424 0.000125
v 0.020176468 0.1225352 0.000125
v 0.020985198 0.12268424 9.9999998e-05
v 0.021749864 0.12312879 9.9999998e-05
v 0.021749864 0.12312879 0.000125
v 0.020985198 0.12268424 0.000125
v 0.021749864 0.12312879 9.9999998e-05
v 0.021749864 0.12453888 9.9999998e-05
v 0.021749864 0.12453888 0.000125
v 0.021749864 0.12312879 0.000125
v 0.021749864 0.12453888 9.9999998e-05
v 0.020140178 0.12453629 9.9999998e-05
v 0.020140178 0.12453629 0.000125
v 0.021749864 0.12453888 0.000125
v 0.020140178 0.12453629 9.9999998e-05
v 0.020140178 0.12409045 9.9999998e-05
v 0.020140178 0.12409045 0.000125
v 0.020140178 0.12453629 0.000125
f 1 2 4
f 4 2 3
f 5 6 8
f 8 6 7
f 9 10 12
f 12 10 11
f 13 14 16
f 16 14 15
f 17 18 20
f 20 18 19
f 21 22 24
f 24 22 23
f 25 26 28
f 28 26 27
f 29 30 32
f 32 30 31
f 33 34 38
f 38 34 37
f 37 34 35
f 37 35 36
f 39 40 42
f 42 40 41
f 43 44 48
f 48 44 47
f 47 44 45
f 47 45 46
f 49 50 52
f 52 50 51
f 53 54 56
f 56 54 55
f 57 58 60
f 60 58 59
f 61 62 64
f 64 62 63
f 65 66 70
f 70 66 69
f 69 66 67
f 69 67 68
f 71 72 74
f 74 72 73
f 75 76 80
f 80 76 79
f 79 76 77
f 79 77 78
f 81 82 84
f 84 82 83
f 85 86 90
f 90 86 89
f 89 86 87
f 89 87 88
f 91 92 127
f 127 92 126
f 126 92 125
f 125 92 93
f 125 93 124
f 124 93 94
f 124 94 123
f 123 94 95
f 123 95 122
f 122 95 96
f 122 96 121
f 121 96 97
f 121 97 120
f 120 97 98
f 120 98 119
f 119 98 99
f 119 99 118
f 118 99 117
f 117 99 100
f 117 100 116
f 116 100 101
f 116 101 115
f 115 101 114
f 114 101 102
f 114 102 113
f 113 102 103
f 113 103 112
f 112 103 104
f 112 104 111
f 111 104 105
f 111 105 110
f 110 105 106
f 110 106 109
f 109 106 107
f 109 107 108
f 128 129 133
f 133 129 132
f 132 129 130
f 132 130 131
f 134 135 137
f 137 135 136
f 138 139 143
f 143 139 142
f 142 139 140
f 142 140 141
f 145 146 144
f 144 146 147
f 144 147 148
f 144 148 180
f 180 148 149
f 180 149 179
f 179 149 150
f 179 150 178
f 178 150 151
f 178 151 177
f 177 151 152
f 177 152 176
f 176 152 153
f 176 153 175
f 175 153 154
f 175 154 174
f 174 154 155
f 174 155 156
f 174 156 173
f 173 156 157
f 173 157 172
f 172 157 158
f 172 158 159
f 172 159 171
f 171 159 160
f 171 160 170
f 170 160 161
f 170 161 169
f 169 161 162
f 169 162 168
f 168 162 163
f 168 163 167
f 167 163 164
f 167 164 166
f 166 164 165
f 181 182 186
f 186 182 185
f 185 182 183
f 185 183 184
f 187 188 190
f 190 188 189
f 191 192 194
f 194 192 193
f 195 196 198
f 198 196 197
f 199 200 202
f 202 200 201
f 203 204 206
f 206 204 205
