v 0.068000002 0.195 0.201
v 0.068000002 0.23299999 0.201
v 0.146 0.23299999 0.201
v 0.146 0.195 0.201
v 0.146 0.195 0.201
v 0.146 0.23299999 0.201
v 0.146 0.23299999 0.226
v 0.146 0.195 0.226
v 0.068000002 0.23299999 0.226
v 0.068000002 0.195 0.226
v 0.146 0.195 0.226
v 0.146 0.23299999 0.226
v 0.146 0.23299999 0.201
v 0.068000002 0.23299999 0.201
v 0.068000002 0.23299999 0.226
v 0.146 0.23299999 0.226
v 0.068000002 0.195 0.201
v 0.146 0.195 0.201
v 0.146 0.195 0.226
v 0.068000002 0.195 0.226
v 0.068000002 0.23299999 0.201
v 0.068000002 0.195 0.201
v 0.068000002 0.195 0.226
v 0.068000002 0.23299999 0.226
f 2 3 1
f 1 3 4
f 5 6 8
f 8 6 7
f 10 11 9
f 9 11 12
f 13 14 16
f 16 14 15
f 17 18 20
f 20 18 19
f 21 22 24
f 24 22 23
