v 0.20799999 0.14 0.54
v 0.20799999 0.075 0.54
v 0.205 0.075 0.54
v 0.205 0.14 0.54
v 0.205 -0.24 0.495
v 0.205 -0.3 0.315
v 0.20799999 -0.3 0.315
v 0.20799999 -0.24 0.495
v 0.205 0.075 0.4
v 0.20799999 0.075 0.4
v 0.20799999 0 0.4
v 0.205 0 0.4
v 0.205 0.14 0.6
v 0.205 -0.145 0.6
v 0.20799999 -0.145 0.6
v 0.20799999 0.14 0.6
v 0.20799999 0.075 0.54
v 0.20799999 0.14 0.54
v 0.20799999 0.14 0.6
v 0.20799999 -0.145 0.6
v 0.20799999 -0.151062 0.59960629
v 0.20799999 -0.15708824 0.59883991
v 0.20799999 -0.16305584 0.59770374
v 0.20799999 -0.16894209 0.59620216
v 0.20799999 -0.17472467 0.59434078
v 0.20799999 -0.18038162 0.59212677
v 0.20799999 -0.18589144 0.58956844
v 0.20799999 -0.19123318 0.58667561
v 0.20799999 -0.19638659 0.58345921
v 0.20799999 -0.20133207 0.57993145
v 0.20799999 -0.20605085 0.57610573
v 0.20799999 -0.210525 0.57199661
v 0.20799999 -0.21473753 0.56761967
v 0.20799999 -0.21867243 0.56299156
v 0.20799999 -0.22231476 0.55812981
v 0.20799999 -0.22565069 0.55305298
v 0.20799999 -0.22866753 0.54778027
v 0.20799999 -0.23135386 0.5423317
v 0.20799999 -0.23369944 0.53672802
v 0.20799999 -0.23569536 0.53099052
v 0.20799999 -0.23733408 0.52514095
v 0.20799999 -0.23860933 0.51920151
v 0.20799999 -0.23951628 0.51319485
v 0.20799999 -0.2400515 0.50714367
v 0.20799999 -0.24021294 0.50107105
v 0.20799999 -0.24 0.495
v 0.20799999 -0.3 0.315
v 0.20799999 0 0.315
v 0.20799999 0 0.4
v 0.20799999 0.075 0.4
v 0.205 0.14 0.54
v 0.205 0.075 0.54
v 0.205 0.075 0.4
v 0.205 0 0.4
v 0.205 0 0.315
v 0.205 -0.3 0.315
v 0.205 -0.24 0.495
v 0.205 -0.24021294 0.50107105
v 0.205 -0.2400515 0.50714367
v 0.205 -0.23951628 0.51319485
v 0.205 -0.23860933 0.51920151
v 0.205 -0.23733408 0.52514095
v 0.205 -0.23569536 0.53099052
v 0.205 -0.23369944 0.53672802
v 0.205 -0.23135386 0.5423317
v 0.205 -0.22866753 0.54778027
v 0.205 -0.22565069 0.55305298
v 0.205 -0.22231476 0.55812981
v 0.205 -0.21867243 0.56299156
v 0.205 -0.21473753 0.56761967
v 0.205 -0.210525 0.57199661
v 0.205 -0.20605085 0.57610573
v 0.205 -0.20133207 0.57993145
v 0.205 -0.19638659 0.58345921
v 0.205 -0.19123318 0.58667561
v 0.205 -0.18589144 0.58956844
v 0.205 -0.18038162 0.59212677
v 0.205 -0.17472467 0.59434078
v 0.205 -0.16894209 0.59620216
v 0.205 -0.16305584 0.59770374
v 0.205 -0.15708824 0.59883991
v 0.205 -0.151062 0.59960629
v 0.205 -0.145 0.6
v 0.205 0.14 0.6
v 0.205 -0.145 0.6
v 0.205 -0.151062 0.59960629
v 0.205 -0.15708824 0.59883991
v 0.205 -0.16305584 0.59770374
v 0.205 -0.16894209 0.59620216
v 0.205 -0.17472467 0.59434078
v 0.205 -0.18038162 0.59212677
v 0.205 -0.18589144 0.58956844
v 0.205 -0.19123318 0.58667561
v 0.205 -0.19638659 0.58345921
v 0.205 -0.20133207 0.57993145
v 0.205 -0.20605085 0.57610573
v 0.205 -0.210525 0.57199661
v 0.205 -0.21473753 0.56761967
v 0.205 -0.21867243 0.56299156
v 0.205 -0.22231476 0.55812981
v 0.205 -0.22565069 0.55305298
v 0.205 -0.22866753 0.54778027
v 0.205 -0.23135386 0.5423317
v 0.205 -0.23369944 0.53672802
v 0.205 -0.23569536 0.53099052
v 0.205 -0.23733408 0.52514095
v 0.205 -0.23860933 0.51920151
v 0.205 -0.23951628 0.51319485
v 0.205 -0.2400515 0.50714367
v 0.205 -0.24021294 0.50107105
v 0.205 -0.24 0.495
v 0.20799999 -0.24 0.495
v 0.20799999 -0.24021294 0.50107105
v 0.20799999 -0.2400515 0.50714367
v 0.20799999 -0.23951628 0.51319485
v 0.20799999 -0.23860933 0.51920151
v 0.20799999 -0.23733408 0.52514095
v 0.20799999 -0.23569536 0.53099052
v 0.20799999 -0.23369944 0.53672802
v 0.20799999 -0.23135386 0.5423317
v 0.20799999 -0.22866753 0.54778027
v 0.20799999 -0.22565069 0.55305298
v 0.20799999 -0.22231476 0.55812981
v 0.20799999 -0.21867243 0.56299156
v 0.20799999 -0.21473753 0.56761967
v 0.20799999 -0.210525 0.57199661
v 0.20799999 -0.20605085 0.57610573
v 0.20799999 -0.20133207 0.57993145
v 0.20799999 -0.19638659 0.58345921
v 0.20799999 -0.19123318 0.58667561
v 0.20799999 -0.18589144 0.58956844
v 0.20799999 -0.18038162 0.59212677
v 0.20799999 -0.17472467 0.59434078
v 0.20799999 -0.16894209 0.59620216
v 0.20799999 -0.16305584 0.59770374
v 0.20799999 -0.15708824 0.59883991
v 0.20799999 -0.151062 0.59960629
v 0.20799999 -0.145 0.6
v 0.20799999 0.14 0.54
v 0.205 0.14 0.54
v 0.205 0.14 0.6
v 0.20799999 0.14 0.6
v 0.205 0 0.315
v 0.20799999 0 0.315
v 0.20799999 -0.3 0.315
v 0.205 -0.3 0.315
v 0.20799999 0 0.4
v 0.20799999 0 0.315
v 0.205 0 0.315
v 0.205 0 0.4
v 0.20799999 0.075 0.54
v 0.20799999 0.075 0.4
v 0.205 0.075 0.4
v 0.205 0.075 0.54
f 2 3 1
f 1 3 4
f 5 6 8
f 8 6 7
f 10 11 9
f 9 11 12
f 13 14 16
f 16 14 15
f 18 19 17
f 17 19 20
f 17 20 49
f 49 20 45
f 49 45 46
f 21 22 20
f 20 22 23
f 20 23 24
f 24 25 20
f 20 25 26
f 20 26 27
f 27 28 20
f 20 28 29
f 20 29 30
f 30 31 20
f 20 31 32
f 20 32 33
f 33 34 20
f 20 34 35
f 20 35 36
f 36 37 20
f 20 37 38
f 20 38 39
f 39 40 20
f 20 40 41
f 20 41 42
f 42 43 20
f 20 43 44
f 20 44 45
f 46 47 49
f 49 47 48
f 49 50 17
f 51 52 84
f 84 52 83
f 83 52 54
f 83 54 58
f 58 54 57
f 57 54 56
f 56 54 55
f 52 53 54
f 58 59 83
f 83 59 60
f 83 60 61
f 61 62 83
f 83 62 63
f 83 63 64
f 64 65 83
f 83 65 66
f 83 66 67
f 67 68 83
f 83 68 69
f 83 69 70
f 70 71 83
f 83 71 72
f 83 72 73
f 73 74 83
f 83 74 75
f 83 75 76
f 76 77 83
f 83 77 78
f 83 78 79
f 79 80 83
f 83 80 81
f 83 81 82
f 138 85 137
f 137 85 86
f 137 86 136
f 136 86 87
f 136 87 135
f 135 87 88
f 135 88 134
f 134 88 89
f 134 89 133
f 133 89 90
f 133 90 132
f 132 90 91
f 132 91 131
f 131 91 92
f 131 92 130
f 130 92 93
f 130 93 129
f 129 93 94
f 129 94 128
f 128 94 95
f 128 95 127
f 127 95 96
f 127 96 126
f 126 96 97
f 126 97 125
f 125 97 98
f 125 98 124
f 124 98 99
f 124 99 123
f 123 99 100
f 123 100 122
f 122 100 101
f 122 101 121
f 121 101 102
f 121 102 120
f 120 102 103
f 120 103 119
f 119 103 104
f 119 104 118
f 118 104 105
f 118 105 117
f 117 105 106
f 117 106 116
f 116 106 107
f 116 107 115
f 115 107 108
f 115 108 114
f 114 108 109
f 114 109 113
f 113 109 110
f 113 110 112
f 112 110 111
f 140 141 139
f 139 141 142
f 144 145 143
f 143 145 146
f 147 148 150
f 150 148 149
f 151 152 154
f 154 152 153
