v 0.70599998 0.26 0.38400002
v 0.70619705 0.26306906 0.38400002
v 0.7067849 0.2660877 0.38400002
v 0.70775398 0.2690064 0.38400002
v 0.70908836 0.27177723 0.38400002
v 0.71076607 0.27435465 0.38400002
v 0.71275963 0.27669638 0.38400002
v 0.71503624 0.27876396 0.38400002
v 0.71755859 0.28052343 0.38400002
v 0.72028519 0.2819459 0.38400002
v 0.72317131 0.28300802 0.38400002
v 0.72616959 0.28369236 0.38400002
v 0.72923073 0.28398767 0.38400002
v 0.73230453 0.2838891 0.38400002
v 0.7353405 0.28339827 0.38400002
v 0.73828873 0.28252325 0.38400002
v 0.74110092 0.28127838 0.38400002
v 0.74373077 0.27968414 0.38400002
v 0.74613525 0.27776667 0.38400002
v 0.74827469 0.27555748 0.38400002
v 0.75011414 0.27309284 0.38400002
v 0.75162323 0.27041321 0.38400002
v 0.75277733 0.2675626 0.38400002
v 0.75355743 0.2645878 0.38400002
v 0.75395065 0.26153769 0.38400002
v 0.75395065 0.25846231 0.38400002
v 0.75355743 0.2554122 0.38400002
v 0.75277733 0.2524374 0.38400002
v 0.75162323 0.24958679 0.38400002
v 0.75011414 0.24690716 0.38400002
v 0.74827469 0.24444252 0.38400002
v 0.74613525 0.24223333 0.38400002
v 0.74373077 0.24031586 0.38400002
v 0.74110092 0.23872162 0.38400002
v 0.73828873 0.23747675 0.38400002
v 0.7353405 0.23660173 0.38400002
v 0.73230453 0.2361109 0.38400002
v 0.72923073 0.23601233 0.38400002
v 0.72616959 0.23630764 0.38400002
v 0.72317131 0.23699198 0.38400002
v 0.72028519 0.2380541 0.38400002
v 0.71755859 0.23947657 0.38400002
v 0.71503624 0.24123604 0.38400002
v 0.71275963 0.24330362 0.38400002
v 0.71076607 0.24564535 0.38400002
v 0.70908836 0.24822277 0.38400002
v 0.70775398 0.2509936 0.38400002
v 0.7067849 0.2539123 0.38400002
v 0.70619705 0.25693094 0.38400002
v 0.70599998 0.26 0.39
v 0.70619705 0.25693094 0.39
v 0.7067849 0.2539123 0.39
v 0.70775398 0.2509936 0.39
v 0.70908836 0.24822277 0.39
v 0.71076607 0.24564535 0.39
v 0.71275963 0.24330362 0.39
v 0.71503624 0.24123604 0.39
v 0.71755859 0.23947657 0.39
v 0.72028519 0.2380541 0.39
v 0.72317131 0.23699198 0.39
v 0.72616959 0.23630764 0.39
v 0.72923073 0.23601233 0.39
v 0.73230453 0.2361109 0.39
v 0.7353405 0.23660173 0.39
v 0.73828873 0.23747675 0.39
v 0.74110092 0.23872162 0.39
v 0.74373077 0.24031586 0.39
v 0.74613525 0.24223333 0.39
v 0.74827469 0.24444252 0.39
v 0.75011414 0.24690716 0.39
v 0.75162323 0.24958679 0.39
v 0.75277733 0.2524374 0.39
v 0.75355743 0.2554122 0.39
v 0.75395065 0.25846231 0.39
v 0.75395065 0.26153769 0.39
v 0.75355743 0.2645878 0.39
v 0.75277733 0.2675626 0.39
v 0.75162323 0.27041321 0.39
v 0.75011414 0.27309284 0.39
v 0.74827469 0.27555748 0.39
v 0.74613525 0.27776667 0.39
v 0.74373077 0.27968414 0.39
v 0.74110092 0.28127838 0.39
v 0.73828873 0.28252325 0.39
v 0.7353405 0.28339827 0.39
v 0.73230453 0.2838891 0.39
v 0.72923073 0.28398767 0.39
v 0.72616959 0.28369236 0.39
v 0.72317131 0.28300802 0.39
v 0.72028519 0.2819459 0.39
v 0.71755859 0.28052343 0.39
v 0.71503624 0.27876396 0.39
v 0.71275963 0.27669638 0.39
v 0.71076607 0.27435465 0.39
v 0.70908836 0.27177723 0.39
v 0.70775398 0.2690064 0.39
v 0.7067849 0.2660877 0.39
v 0.70619705 0.26306906 0.39
v 0.70599998 0.26 0.39
v 0.70619705 0.26306906 0.39
v 0.7067849 0.2660877 0.39
v 0.70775398 0.2690064 0.39
v 0.70908836 0.27177723 0.39
v 0.71076607 0.27435465 0.39
v 0.71275963 0.27669638 0.39
v 0.71503624 0.27876396 0.39
v 0.71755859 0.28052343 0.39
v 0.72028519 0.2819459 0.39
v 0.72317131 0.28300802 0.39
v 0.72616959 0.28369236 0.39
v 0.72923073 0.28398767 0.39
v 0.73230453 0.2838891 0.39
v 0.7353405 0.28339827 0.39
v 0.73828873 0.28252325 0.39
v 0.74110092 0.28127838 0.39
v 0.74373077 0.27968414 0.39
v 0.74613525 0.27776667 0.39
v 0.74827469 0.27555748 0.39
v 0.75011414 0.27309284 0.39
v 0.75162323 0.27041321 0.39
v 0.75277733 0.2675626 0.39
v 0.75355743 0.2645878 0.39
v 0.75395065 0.26153769 0.39
v 0.75395065 0.25846231 0.39
v 0.75355743 0.2554122 0.39
v 0.75277733 0.2524374 0.39
v 0.75162323 0.24958679 0.39
v 0.75011414 0.24690716 0.39
v 0.74827469 0.24444252 0.39
v 0.74613525 0.24223333 0.39
v 0.74373077 0.24031586 0.39
v 0.74110092 0.23872162 0.39
v 0.73828873 0.23747675 0.39
v 0.7353405 0.23660173 0.39
v 0.73230453 0.2361109 0.39
v 0.72923073 0.23601233 0.39
v 0.72616959 0.23630764 0.39
v 0.72317131 0.23699198 0.39
v 0.72028519 0.2380541 0.39
v 0.71755859 0.23947657 0.39
v 0.71503624 0.24123604 0.39
v 0.71275963 0.24330362 0.39
v 0.71076607 0.24564535 0.39
v 0.70908836 0.24822277 0.39
v 0.70775398 0.2509936 0.39
v 0.7067849 0.2539123 0.39
v 0.70619705 0.25693094 0.39
v 0.70599998 0.26 0.38400002
v 0.70619705 0.25693094 0.38400002
v 0.7067849 0.2539123 0.38400002
v 0.70775398 0.2509936 0.38400002
v 0.70908836 0.24822277 0.38400002
v 0.71076607 0.24564535 0.38400002
v 0.71275963 0.24330362 0.38400002
v 0.71503624 0.24123604 0.38400002
v 0.71755859 0.23947657 0.38400002
v 0.72028519 0.2380541 0.38400002
v 0.72317131 0.23699198 0.38400002
v 0.72616959 0.23630764 0.38400002
v 0.72923073 0.23601233 0.38400002
v 0.73230453 0.2361109 0.38400002
v 0.7353405 0.23660173 0.38400002
v 0.73828873 0.23747675 0.38400002
v 0.74110092 0.23872162 0.38400002
v 0.74373077 0.24031586 0.38400002
v 0.74613525 0.24223333 0.38400002
v 0.74827469 0.24444252 0.38400002
v 0.75011414 0.24690716 0.38400002
v 0.75162323 0.24958679 0.38400002
v 0.75277733 0.2524374 0.38400002
v 0.75355743 0.2554122 0.38400002
v 0.75395065 0.25846231 0.38400002
v 0.75395065 0.26153769 0.38400002
v 0.75355743 0.2645878 0.38400002
v 0.75277733 0.2675626 0.38400002
v 0.75162323 0.27041321 0.38400002
v 0.75011414 0.27309284 0.38400002
v 0.74827469 0.27555748 0.38400002
v 0.74613525 0.27776667 0.38400002
v 0.74373077 0.27968414 0.38400002
v 0.74110092 0.28127838 0.38400002
v 0.73828873 0.28252325 0.38400002
v 0.7353405 0.28339827 0.38400002
v 0.73230453 0.2838891 0.38400002
v 0.72923073 0.28398767 0.38400002
v 0.72616959 0.28369236 0.38400002
v 0.72317131 0.28300802 0.38400002
v 0.72028519 0.2819459 0.38400002
v 0.71755859 0.28052343 0.38400002
v 0.71503624 0.27876396 0.38400002
v 0.71275963 0.27669638 0.38400002
v 0.71076607 0.27435465 0.38400002
v 0.70908836 0.27177723 0.38400002
v 0.70775398 0.2690064 0.38400002
v 0.7067849 0.2660877 0.38400002
v 0.70619705 0.26306906 0.38400002
v 0.70599998 0.26 0.38400002
v 0.70599998 0.26 0.39
f 49 1 28
f 28 1 2
f 28 2 3
f 3 4 28
f 28 4 5
f 28 5 6
f 6 7 28
f 28 7 8
f 28 8 9
f 9 10 28
f 28 10 11
f 28 11 12
f 12 13 28
f 28 13 14
f 28 14 15
f 15 16 28
f 28 16 17
f 28 17 18
f 18 19 28
f 28 19 20
f 28 20 21
f 21 22 28
f 28 22 23
f 28 23 27
f 27 23 24
f 27 24 26
f 26 24 25
f 29 47 28
f 28 47 48
f 28 48 49
f 47 29 46
f 46 29 30
f 46 30 45
f 45 30 31
f 45 31 44
f 44 31 32
f 44 32 43
f 43 32 33
f 43 33 42
f 42 33 34
f 42 34 41
f 41 34 35
f 41 35 40
f 40 35 36
f 40 36 39
f 39 36 37
f 39 37 38
f 98 50 72
f 72 50 51
f 72 51 52
f 52 53 72
f 72 53 71
f 71 53 54
f 71 54 70
f 70 54 55
f 70 55 69
f 69 55 56
f 69 56 68
f 68 56 57
f 68 57 67
f 67 57 58
f 67 58 66
f 66 58 59
f 66 59 65
f 65 59 60
f 65 60 64
f 64 60 61
f 64 61 63
f 63 61 62
f 73 77 72
f 72 77 78
f 72 78 79
f 77 73 76
f 76 73 74
f 76 74 75
f 79 80 72
f 72 80 81
f 72 81 82
f 82 83 72
f 72 83 84
f 72 84 85
f 85 86 72
f 72 86 87
f 72 87 88
f 88 89 72
f 72 89 90
f 72 90 91
f 91 92 72
f 72 92 93
f 72 93 94
f 94 95 72
f 72 95 96
f 72 96 97
f 97 98 72
f 100 196 99
f 99 196 197
f 198 148 147
f 147 148 149
f 147 149 146
f 146 149 150
f 146 150 145
f 145 150 151
f 145 151 144
f 144 151 152
f 144 152 143
f 143 152 153
f 143 153 142
f 142 153 154
f 142 154 141
f 141 154 155
f 141 155 140
f 140 155 156
f 140 156 139
f 139 156 157
f 139 157 138
f 138 157 158
f 138 158 137
f 137 158 159
f 137 159 136
f 136 159 160
f 136 160 135
f 135 160 161
f 135 161 134
f 134 161 162
f 134 162 133
f 133 162 163
f 133 163 132
f 132 163 164
f 132 164 131
f 131 164 165
f 131 165 130
f 130 165 166
f 130 166 129
f 129 166 167
f 129 167 128
f 128 167 168
f 128 168 127
f 127 168 169
f 127 169 126
f 126 169 170
f 126 170 125
f 125 170 171
f 125 171 124
f 124 171 172
f 124 172 123
f 123 172 173
f 123 173 122
f 122 173 174
f 122 174 121
f 121 174 175
f 121 175 120
f 120 175 176
f 120 176 119
f 119 176 177
f 119 177 118
f 118 177 178
f 118 178 117
f 117 178 179
f 117 179 116
f 116 179 180
f 116 180 115
f 115 180 181
f 115 181 114
f 114 181 182
f 114 182 113
f 113 182 183
f 113 183 112
f 112 183 184
f 112 184 111
f 111 184 185
f 111 185 110
f 110 185 186
f 110 186 109
f 109 186 187
f 109 187 108
f 108 187 188
f 108 188 107
f 107 188 189
f 107 189 106
f 106 189 190
f 106 190 105
f 105 190 191
f 105 191 104
f 104 191 192
f 104 192 103
f 103 192 193
f 103 193 102
f 102 193 194
f 102 194 101
f 101 194 195
f 101 195 100
f 100 195 196
