v 0.52799999 0.68199997 0.34299999
v 0.52799999 0.68199997 0.184
v 0.49200001 0.68199997 0.184
v 0.49200001 0.68199997 0.34299999
v 0.52799999 0.64 0.34299999
v 0.52799999 0.64 0.184
v 0.52799999 0.68199997 0.184
v 0.52799999 0.68199997 0.34299999
v 0.52799999 0.64 0.34299999
v 0.52799999 0.68199997 0.34299999
v 0.49200001 0.68199997 0.34299999
v 0.49200001 0.64 0.34299999
v 0.49200001 0.64 0.34299999
v 0.49200001 0.64 0.184
v 0.52799999 0.64 0.184
v 0.52799999 0.64 0.34299999
v 0.52799999 0.68199997 0.184
v 0.52799999 0.64 0.184
v 0.49200001 0.64 0.184
v 0.49200001 0.68199997 0.184
v 0.49200001 0.68199997 0.34299999
v 0.49200001 0.68199997 0.184
v 0.49200001 0.64 0.184
v 0.49200001 0.64 0.34299999
f 1 2 4
f 4 2 3
f 5 6 8
f 8 6 7
f 10 11 9
f 9 11 12
f 13 14 16
f 16 14 15
f 18 19 17
f 17 19 20
f 21 22 24
f 24 22 23
