v -0.16469986 -0.2982 0.10159072
v -0.16558775 -0.2982 0.10174479
v -0.16633595 -0.2982 0.10220702
v -0.16633595 -0.29832001 0.10220702
v -0.16558775 -0.29832001 0.10174479
v -0.16469986 -0.29832001 0.10159072
v -0.16633595 -0.2982 0.10220702
v -0.16689129 -0.2982 0.10297519
v -0.16720055 -0.2982 0.10404707
v -0.16720055 -0.29832001 0.10404707
v -0.16689129 -0.29832001 0.10297519
v -0.16633595 -0.29832001 0.10220702
v -0.16720055 -0.2982 0.10404707
v -0.16887653 -0.2982 0.10390518
v -0.16887653 -0.29832001 0.10390518
v -0.16720055 -0.29832001 0.10404707
v -0.16675716 -0.2982 0.10830355
v -0.16605661 -0.2982 0.11179741
v -0.16605661 -0.29832001 0.11179741
v -0.16675716 -0.29832001 0.10830355
v -0.16430082 -0.2982 0.10911937
v -0.16493652 -0.2982 0.10906838
v -0.1655578 -0.2982 0.10891541
v -0.16616468 -0.2982 0.10866047
v -0.16675716 -0.2982 0.10830355
v -0.16675716 -0.29832001 0.10830355
v -0.16616468 -0.29832001 0.10866047
v -0.1655578 -0.29832001 0.10891541
v -0.16493652 -0.29832001 0.10906838
v -0.16430082 -0.29832001 0.10911937
v -0.16605661 -0.2982 0.11179741
v -0.16086903 -0.2982 0.11179741
v -0.16086903 -0.29832001 0.11179741
v -0.16605661 -0.29832001 0.11179741
v -0.16142769 -0.2982 0.10793997
v -0.16204622 -0.2982 0.10845596
v -0.16273125 -0.2982 0.10882452
v -0.16348278 -0.2982 0.10904566
v -0.16430082 -0.2982 0.10911937
v -0.16430082 -0.29832001 0.10911937
v -0.16348278 -0.29832001 0.10904566
v -0.16273125 -0.29832001 0.10882452
v -0.16204622 -0.29832001 0.10845596
v -0.16142769 -0.29832001 0.10793997
v -0.16086903 -0.2982 0.11179741
v -0.16086903 -0.2982 0.11332265
v -0.16086903 -0.29832001 0.11332265
v -0.16086903 -0.29832001 0.11179741
v -0.16025717 -0.2982 0.10490723
v -0.16033031 -0.2982 0.10579178
v -0.16054979 -0.2982 0.10659208
v -0.16091558 -0.2982 0.10730815
v -0.16142769 -0.2982 0.10793997
v -0.16142769 -0.29832001 0.10793997
v -0.16091558 -0.29832001 0.10730815
v -0.16054979 -0.29832001 0.10659208
v -0.16033031 -0.29832001 0.10579178
v -0.16025717 -0.29832001 0.10490723
v -0.16086903 -0.2982 0.11332265
v -0.16733356 -0.2982 0.11332265
v -0.16733356 -0.29832001 0.11332265
v -0.16086903 -0.29832001 0.11332265
v -0.16128582 -0.2982 0.10185676
v -0.16083578 -0.2982 0.10252958
v -0.16051434 -0.2982 0.10326228
v -0.16032145 -0.2982 0.10405482
v -0.16025717 -0.2982 0.10490723
v -0.16025717 -0.29832001 0.10490723
v -0.16032145 -0.29832001 0.10405482
v -0.16051434 -0.29832001 0.10326228
v -0.16083578 -0.29832001 0.10252958
v -0.16128582 -0.29832001 0.10185676
v -0.16733356 -0.2982 0.11332265
v -0.16859278 -0.2982 0.10664529
v -0.16859278 -0.29832001 0.10664529
v -0.16733356 -0.29832001 0.11332265
v -0.16469986 -0.2982 0.10027831
v -0.1636751 -0.2982 0.10037696
v -0.16276449 -0.2982 0.10067292
v -0.16196808 -0.2982 0.10116618
v -0.16128582 -0.2982 0.10185676
v -0.16128582 -0.29832001 0.10185676
v -0.16196808 -0.29832001 0.10116618
v -0.16276449 -0.29832001 0.10067292
v -0.1636751 -0.29832001 0.10037696
v -0.16469986 -0.29832001 0.10027831
v -0.16859278 -0.2982 0.10664529
v -0.16709414 -0.2982 0.1064502
v -0.16709414 -0.29832001 0.1064502
v -0.16859278 -0.29832001 0.10664529
v -0.16759516 -0.2982 0.10127149
v -0.16699354 -0.2982 0.10083697
v -0.16631046 -0.2982 0.1005266
v -0.1655459 -0.2982 0.10034039
v -0.16469986 -0.2982 0.10027831
v -0.16469986 -0.29832001 0.10027831
v -0.1655459 -0.29832001 0.10034039
v -0.16631046 -0.29832001 0.1005266
v -0.16699354 -0.29832001 0.10083697
v -0.16759516 -0.29832001 0.10127149
v -0.16709414 -0.2982 0.1064502
v -0.16667292 -0.2982 0.10695677
v -0.1661187 -0.2982 0.10735914
v -0.1661187 -0.29832001 0.10735914
v -0.16667292 -0.29832001 0.10695677
v -0.16709414 -0.29832001 0.1064502
v -0.16887653 -0.29832001 0.10390518
v -0.16873659 -0.29832001 0.10312538
v -0.16847639 -0.29832001 0.1024265
v -0.16809591 -0.29832001 0.10180854
v -0.16759516 -0.29832001 0.10127149
v -0.16699354 -0.29832001 0.10083697
v -0.16631046 -0.29832001 0.1005266
v -0.1655459 -0.29832001 0.10034039
v -0.16469986 -0.29832001 0.10027831
v -0.1636751 -0.29832001 0.10037696
v -0.16276449 -0.29832001 0.10067292
v -0.16196808 -0.29832001 0.10116618
v -0.16128582 -0.29832001 0.10185676
v -0.16083578 -0.29832001 0.10252958
v -0.16051434 -0.29832001 0.10326228
v -0.16032145 -0.29832001 0.10405482
v -0.16025717 -0.29832001 0.10490723
v -0.16033031 -0.29832001 0.10579178
v -0.16054979 -0.29832001 0.10659208
v -0.16091558 -0.29832001 0.10730815
v -0.16142769 -0.29832001 0.10793997
v -0.16204622 -0.29832001 0.10845596
v -0.16273125 -0.29832001 0.10882452
v -0.16348278 -0.29832001 0.10904566
v -0.16430082 -0.29832001 0.10911937
v -0.16493652 -0.29832001 0.10906838
v -0.1655578 -0.29832001 0.10891541
v -0.16616468 -0.29832001 0.10866047
v -0.16675716 -0.29832001 0.10830355
v -0.16605661 -0.29832001 0.11179741
v -0.16086903 -0.29832001 0.11179741
v -0.16086903 -0.29832001 0.11332265
v -0.16733356 -0.29832001 0.11332265
v -0.16859278 -0.29832001 0.10664529
v -0.16709414 -0.29832001 0.1064502
v -0.16667292 -0.29832001 0.10695677
v -0.1661187 -0.29832001 0.10735914
v -0.16546026 -0.29832001 0.10762184
v -0.16472647 -0.29832001 0.10770941
v -0.16413538 -0.29832001 0.10766008
v -0.16360359 -0.29832001 0.1075121
v -0.16313112 -0.29832001 0.10726547
v -0.16271793 -0.29832001 0.10692019
v -0.16238235 -0.29832001 0.10648955
v -0.16214266 -0.29832001 0.10598687
v -0.16199883 -0.29832001 0.10541213
v -0.16195089 -0.29832001 0.10476535
v -0.16200077 -0.29832001 0.10408254
v -0.16215042 -0.29832001 0.10347067
v -0.16239981 -0.29832001 0.10292974
v -0.16274899 -0.29832001 0.10245975
v -0.16317019 -0.29832001 0.10207955
v -0.16363575 -0.29832001 0.10180798
v -0.16414564 -0.29832001 0.10164504
v -0.16469986 -0.29832001 0.10159072
v -0.16558775 -0.29832001 0.10174479
v -0.16633595 -0.29832001 0.10220702
v -0.16689129 -0.29832001 0.10297519
v -0.16720055 -0.29832001 0.10404707
v -0.1661187 -0.2982 0.10735914
v -0.16546026 -0.2982 0.10762184
v -0.16472647 -0.2982 0.10770941
v -0.16472647 -0.29832001 0.10770941
v -0.16546026 -0.29832001 0.10762184
v -0.1661187 -0.29832001 0.10735914
v -0.16887653 -0.2982 0.10390518
v -0.16873659 -0.2982 0.10312538
v -0.16847639 -0.2982 0.1024265
v -0.16809591 -0.2982 0.10180854
v -0.16759516 -0.2982 0.10127149
v -0.16759516 -0.29832001 0.10127149
v -0.16809591 -0.29832001 0.10180854
v -0.16847639 -0.29832001 0.1024265
v -0.16873659 -0.29832001 0.10312538
v -0.16887653 -0.29832001 0.10390518
v -0.16472647 -0.2982 0.10770941
v -0.16413538 -0.2982 0.10766008
v -0.16360359 -0.2982 0.1075121
v -0.16313112 -0.2982 0.10726547
v -0.16271793 -0.2982 0.10692019
v -0.16271793 -0.29832001 0.10692019
v -0.16313112 -0.29832001 0.10726547
v -0.16360359 -0.29832001 0.1075121
v -0.16413538 -0.29832001 0.10766008
v -0.16472647 -0.29832001 0.10770941
v -0.16759516 -0.2982 0.10127149
v -0.16809591 -0.2982 0.10180854
v -0.16847639 -0.2982 0.1024265
v -0.16873659 -0.2982 0.10312538
v -0.16887653 -0.2982 0.10390518
v -0.16720055 -0.2982 0.10404707
v -0.16689129 -0.2982 0.10297519
v -0.16633595 -0.2982 0.10220702
v -0.16558775 -0.2982 0.10174479
v -0.16469986 -0.2982 0.10159072
v -0.16414564 -0.2982 0.10164504
v -0.16363575 -0.2982 0.10180798
v -0.16317019 -0.2982 0.10207955
v -0.16274899 -0.2982 0.10245975
v -0.16239981 -0.2982 0.10292974
v -0.16215042 -0.2982 0.10347067
v -0.16200077 -0.2982 0.10408254
v -0.16195089 -0.2982 0.10476535
v -0.16199883 -0.2982 0.10541213
v -0.16214266 -0.2982 0.10598687
v -0.16238235 -0.2982 0.10648955
v -0.16271793 -0.2982 0.10692019
v -0.16313112 -0.2982 0.10726547
v -0.16360359 -0.2982 0.1075121
v -0.16413538 -0.2982 0.10766008
v -0.16472647 -0.2982 0.10770941
v -0.16546026 -0.2982 0.10762184
v -0.1661187 -0.2982 0.10735914
v -0.16667292 -0.2982 0.10695677
v -0.16709414 -0.2982 0.1064502
v -0.16859278 -0.2982 0.10664529
v -0.16733356 -0.2982 0.11332265
v -0.16086903 -0.2982 0.11332265
v -0.16086903 -0.2982 0.11179741
v -0.16605661 -0.2982 0.11179741
v -0.16675716 -0.2982 0.10830355
v -0.16616468 -0.2982 0.10866047
v -0.1655578 -0.2982 0.10891541
v -0.16493652 -0.2982 0.10906838
v -0.16430082 -0.2982 0.10911937
v -0.16348278 -0.2982 0.10904566
v -0.16273125 -0.2982 0.10882452
v -0.16204622 -0.2982 0.10845596
v -0.16142769 -0.2982 0.10793997
v -0.16091558 -0.2982 0.10730815
v -0.16054979 -0.2982 0.10659208
v -0.16033031 -0.2982 0.10579178
v -0.16025717 -0.2982 0.10490723
v -0.16032145 -0.2982 0.10405482
v -0.16051434 -0.2982 0.10326228
v -0.16083578 -0.2982 0.10252958
v -0.16128582 -0.2982 0.10185676
v -0.16196808 -0.2982 0.10116618
v -0.16276449 -0.2982 0.10067292
v -0.1636751 -0.2982 0.10037696
v -0.16469986 -0.2982 0.10027831
v -0.1655459 -0.2982 0.10034039
v -0.16631046 -0.2982 0.1005266
v -0.16699354 -0.2982 0.10083697
v -0.16271793 -0.2982 0.10692019
v -0.16238235 -0.2982 0.10648955
v -0.16214266 -0.2982 0.10598687
v -0.16199883 -0.2982 0.10541213
v -0.16195089 -0.2982 0.10476535
v -0.16195089 -0.29832001 0.10476535
v -0.16199883 -0.29832001 0.10541213
v -0.16214266 -0.29832001 0.10598687
v -0.16238235 -0.29832001 0.10648955
v -0.16271793 -0.29832001 0.10692019
v -0.16195089 -0.2982 0.10476535
v -0.16200077 -0.2982 0.10408254
v -0.16215042 -0.2982 0.10347067
v -0.16239981 -0.2982 0.10292974
v -0.16274899 -0.2982 0.10245975
v -0.16274899 -0.29832001 0.10245975
v -0.16239981 -0.29832001 0.10292974
v -0.16215042 -0.29832001 0.10347067
v -0.16200077 -0.29832001 0.10408254
v -0.16195089 -0.29832001 0.10476535
v -0.16274899 -0.2982 0.10245975
v -0.16317019 -0.2982 0.10207955
v -0.16363575 -0.2982 0.10180798
v -0.16414564 -0.2982 0.10164504
v -0.16469986 -0.2982 0.10159072
v -0.16469986 -0.29832001 0.10159072
v -0.16414564 -0.29832001 0.10164504
v -0.16363575 -0.29832001 0.10180798
v -0.16317019 -0.29832001 0.10207955
v -0.16274899 -0.29832001 0.10245975
f 1 2 6
f 6 2 5
f 5 2 3
f 5 3 4
f 7 8 12
f 12 8 11
f 11 8 9
f 11 9 10
f 13 14 16
f 16 14 15
f 17 18 20
f 20 18 19
f 21 22 30
f 30 22 29
f 29 22 23
f 29 23 28
f 28 23 24
f 28 24 27
f 27 24 25
f 27 25 26
f 31 32 34
f 34 32 33
f 35 36 44
f 44 36 43
f 43 36 37
f 43 37 42
f 42 37 38
f 42 38 41
f 41 38 39
f 41 39 40
f 45 46 48
f 48 46 47
f 49 50 58
f 58 50 57
f 57 50 51
f 57 51 56
f 56 51 52
f 56 52 55
f 55 52 53
f 55 53 54
f 59 60 62
f 62 60 61
f 63 64 72
f 72 64 71
f 71 64 65
f 71 65 70
f 70 65 66
f 70 66 69
f 69 66 67
f 69 67 68
f 73 74 76
f 76 74 75
f 77 78 86
f 86 78 85
f 85 78 79
f 85 79 84
f 84 79 80
f 84 80 83
f 83 80 81
f 83 81 82
f 87 88 90
f 90 88 89
f 91 92 100
f 100 92 99
f 99 92 93
f 99 93 98
f 98 93 94
f 98 94 97
f 97 94 95
f 97 95 96
f 101 102 106
f 106 102 105
f 105 102 103
f 105 103 104
f 107 108 165
f 165 108 109
f 165 109 164
f 164 109 110
f 164 110 111
f 111 112 164
f 164 112 163
f 163 112 113
f 163 113 162
f 162 113 114
f 162 114 161
f 161 114 115
f 161 115 160
f 160 115 116
f 160 116 159
f 159 116 117
f 159 117 158
f 158 117 157
f 157 117 118
f 157 118 156
f 156 118 119
f 156 119 155
f 155 119 120
f 155 120 154
f 154 120 121
f 154 121 122
f 154 122 153
f 153 122 123
f 153 123 124
f 153 124 152
f 152 124 125
f 152 125 151
f 151 125 126
f 151 126 127
f 151 127 150
f 150 127 128
f 150 128 149
f 149 128 129
f 149 129 148
f 148 129 147
f 147 129 130
f 147 130 146
f 146 130 131
f 146 131 145
f 145 131 132
f 145 132 144
f 144 132 133
f 144 133 134
f 144 134 143
f 143 134 135
f 143 135 142
f 142 135 141
f 141 135 140
f 140 135 139
f 139 135 136
f 139 136 138
f 138 136 137
f 166 167 171
f 171 167 170
f 170 167 168
f 170 168 169
f 172 173 181
f 181 173 180
f 180 173 174
f 180 174 179
f 179 174 175
f 179 175 178
f 178 175 176
f 178 176 177
f 182 183 191
f 191 183 190
f 190 183 184
f 190 184 189
f 189 184 185
f 189 185 188
f 188 185 186
f 188 186 187
f 250 192 198
f 198 192 193
f 198 193 194
f 198 194 197
f 197 194 195
f 197 195 196
f 198 199 250
f 250 199 249
f 249 199 200
f 249 200 248
f 248 200 201
f 248 201 247
f 247 201 202
f 247 202 246
f 246 202 203
f 246 203 245
f 245 203 204
f 245 204 205
f 245 205 244
f 244 205 206
f 244 206 243
f 243 206 207
f 243 207 242
f 242 207 208
f 242 208 241
f 241 208 240
f 240 208 209
f 240 209 239
f 239 209 238
f 238 209 210
f 238 210 237
f 237 210 211
f 237 211 236
f 236 211 235
f 235 211 212
f 235 212 234
f 234 212 213
f 234 213 233
f 233 213 214
f 233 214 215
f 233 215 232
f 232 215 216
f 232 216 231
f 231 216 217
f 231 217 230
f 230 217 218
f 230 218 229
f 229 218 228
f 228 218 219
f 228 219 227
f 227 219 220
f 227 220 221
f 221 222 227
f 227 222 223
f 227 223 226
f 226 223 224
f 226 224 225
f 251 252 260
f 260 252 259
f 259 252 253
f 259 253 258
f 258 253 254
f 258 254 257
f 257 254 255
f 257 255 256
f 261 262 270
f 270 262 269
f 269 262 263
f 269 263 268
f 268 263 264
f 268 264 267
f 267 264 265
f 267 265 266
f 271 272 280
f 280 272 279
f 279 272 273
f 279 273 278
f 278 273 274
f 278 274 277
f 277 274 275
f 277 275 276
