v 0.039000001 0.109 0.535
v 0.039273601 0.10976608 0.53517292
v 0.039499893 0.1103997 0.53566174
v 0.03963975 0.1107913 0.53638195
v 0.039668987 0.11087317 0.53720905
v 0.039582553 0.11063114 0.53799999
v 0.039395387 0.11010709 0.53861805
v 0.039139857 0.10939159 0.5389563
v 0.038860145 0.1086084 0.5389563
v 0.038604612 0.10789291 0.53861805
v 0.038417449 0.10736885 0.53799999
v 0.038331013 0.10712684 0.53720905
v 0.03836025 0.1072087 0.53638195
v 0.038500106 0.1076003 0.53566174
v 0.038726399 0.10823392 0.53517292
v -0.045 0.139 0.535
v -0.0452736 0.13823392 0.53517292
v -0.045499892 0.1376003 0.53566174
v -0.045639749 0.1372087 0.53638195
v -0.045668988 0.13712684 0.53720905
v -0.045582552 0.13736885 0.53799999
v -0.045395389 0.13789291 0.53861805
v -0.045139856 0.1386084 0.5389563
v -0.044860144 0.13939159 0.5389563
v -0.044604611 0.14010709 0.53861805
v -0.044417448 0.14063114 0.53799999
v -0.044331012 0.14087317 0.53720905
v -0.044360251 0.1407913 0.53638195
v -0.044500108 0.1403997 0.53566174
v -0.0447264 0.13976608 0.53517292
v -0.045 0.139 0.535
v -0.0447264 0.13976608 0.53517292
v -0.044500108 0.1403997 0.53566174
v -0.044360251 0.1407913 0.53638195
v -0.044331012 0.14087317 0.53720905
v -0.044417448 0.14063114 0.53799999
v -0.044604611 0.14010709 0.53861805
v -0.044860144 0.13939159 0.5389563
v -0.045139856 0.1386084 0.5389563
v -0.045395389 0.13789291 0.53861805
v -0.045582552 0.13736885 0.53799999
v -0.045668988 0.13712684 0.53720905
v -0.045639749 0.1372087 0.53638195
v -0.045499892 0.1376003 0.53566174
v -0.0452736 0.13823392 0.53517292
v 0.039000001 0.109 0.535
v 0.038726399 0.10823392 0.53517292
v 0.038500106 0.1076003 0.53566174
v 0.03836025 0.1072087 0.53638195
v 0.038331013 0.10712684 0.53720905
v 0.038417449 0.10736885 0.53799999
v 0.038604612 0.10789291 0.53861805
v 0.038860145 0.1086084 0.5389563
v 0.039139857 0.10939159 0.5389563
v 0.039395387 0.11010709 0.53861805
v 0.039582553 0.11063114 0.53799999
v 0.039668987 0.11087317 0.53720905
v 0.03963975 0.1107913 0.53638195
v 0.039499893 0.1103997 0.53566174
v 0.039273601 0.10976608 0.53517292
v 0.039000001 0.109 0.535
v -0.045 0.139 0.535
f 1 2 15
f 15 2 3
f 15 3 14
f 14 3 4
f 14 4 13
f 13 4 5
f 13 5 12
f 12 5 6
f 12 6 11
f 11 6 7
f 11 7 10
f 10 7 8
f 10 8 9
f 16 17 30
f 30 17 29
f 29 17 18
f 29 18 28
f 28 18 19
f 28 19 27
f 27 19 20
f 27 20 26
f 26 20 21
f 26 21 25
f 25 21 22
f 25 22 24
f 24 22 23
f 32 60 31
f 31 60 61
f 62 46 45
f 45 46 47
f 45 47 48
f 32 33 60
f 60 33 59
f 59 33 34
f 59 34 58
f 58 34 35
f 58 35 57
f 57 35 36
f 57 36 56
f 56 36 37
f 56 37 55
f 55 37 38
f 55 38 54
f 54 38 39
f 54 39 53
f 53 39 40
f 53 40 52
f 52 40 41
f 52 41 51
f 51 41 42
f 51 42 50
f 50 42 43
f 50 43 49
f 49 43 44
f 49 44 48
f 48 44 45
