v 0.035 -0.29629999 0.098000002
v 0.035 -0.29610001 0.098000002
v 0.098000002 -0.29610001 0.098000002
v 0.098000002 -0.29629999 0.098000002
v 0.035 -0.29610001 0.123
v 0.035 -0.29629999 0.123
v 0.098000002 -0.29629999 0.123
v 0.098000002 -0.29610001 0.123
v 0.035 -0.29610001 0.098000002
v 0.035 -0.29629999 0.098000002
v 0.035 -0.29629999 0.123
v 0.035 -0.29610001 0.123
v 0.035 -0.29629999 0.098000002
v 0.098000002 -0.29629999 0.098000002
v 0.098000002 -0.29629999 0.123
v 0.035 -0.29629999 0.123
v 0.098000002 -0.29629999 0.098000002
v 0.098000002 -0.29610001 0.098000002
v 0.098000002 -0.29610001 0.123
v 0.098000002 -0.29629999 0.123
v 0.098000002 -0.29610001 0.098000002
v 0.035 -0.29610001 0.098000002
v 0.035 -0.29610001 0.123
v 0.098000002 -0.29610001 0.123
f 2 3 1
f 1 3 4
f 6 7 5
f 5 7 8
f 9 10 12
f 12 10 11
f 13 14 16
f 16 14 15
f 17 18 20
f 20 18 19
f 21 22 24
f 24 22 23
