v 0.057613916 -0.29934999 0.26844748
v 0.057841063 -0.29934999 0.26883884
v 0.05802319 -0.29934999 0.26932129
v 0.05802319 -0.29947001 0.26932129
v 0.057841063 -0.29947001 0.26883884
v 0.057613916 -0.29947001 0.26844748
v 0.057067533 -0.29934999 0.26790314
v 0.057613916 -0.29934999 0.26844748
v 0.057613916 -0.29947001 0.26844748
v 0.057067533 -0.29947001 0.26790314
v 0.05802319 -0.29934999 0.26932129
v 0.058142905 -0.29934999 0.26988813
v 0.058182812 -0.29934999 0.27053274
v 0.058182812 -0.29947001 0.27053274
v 0.058142905 -0.29947001 0.26988813
v 0.05802319 -0.29947001 0.26932129
v 0.056351295 -0.29934999 0.26760231
v 0.057067533 -0.29934999 0.26790314
v 0.057067533 -0.29947001 0.26790314
v 0.056351295 -0.29947001 0.26760231
v 0.058182812 -0.29934999 0.27053274
v 0.05812398 -0.29934999 0.27129042
v 0.057947478 -0.29934999 0.27195908
v 0.057947478 -0.29947001 0.27195908
v 0.05812398 -0.29947001 0.27129042
v 0.058182812 -0.29947001 0.27053274
v 0.055387449 -0.29934999 0.2675
v 0.056351295 -0.29934999 0.26760231
v 0.056351295 -0.29947001 0.26760231
v 0.055387449 -0.29947001 0.2675
v 0.057947478 -0.29934999 0.27195908
v 0.057652287 -0.29934999 0.27252745
v 0.057237382 -0.29934999 0.27298431
v 0.057237382 -0.29947001 0.27298431
v 0.057652287 -0.29947001 0.27252745
v 0.057947478 -0.29947001 0.27195908
v 0.057237382 -0.29934999 0.27298431
v 0.056835265 -0.29934999 0.27324728
v 0.056357436 -0.29934999 0.27341406
v 0.056357436 -0.29947001 0.27341406
v 0.056835265 -0.29947001 0.27324728
v 0.057237382 -0.29947001 0.27298431
v 0.053222375 -0.29934999 0.2675
v 0.055387449 -0.29934999 0.2675
v 0.055387449 -0.29947001 0.2675
v 0.053222375 -0.29947001 0.2675
v 0.054016371 -0.29934999 0.27279196
v 0.055276942 -0.29934999 0.27279196
v 0.055276942 -0.29947001 0.27279196
v 0.054016371 -0.29947001 0.27279196
v 0.055289221 -0.29934999 0.2735
v 0.053222375 -0.29934999 0.2735
v 0.053222375 -0.29947001 0.2735
v 0.055289221 -0.29947001 0.2735
v 0.056357436 -0.29934999 0.27341406
v 0.055906205 -0.29934999 0.27347851
v 0.055289221 -0.29934999 0.2735
v 0.055289221 -0.29947001 0.2735
v 0.055906205 -0.29947001 0.27347851
v 0.056357436 -0.29947001 0.27341406
v 0.053222375 -0.29934999 0.2735
v 0.053222375 -0.29934999 0.2675
v 0.053222375 -0.29947001 0.2675
v 0.053222375 -0.29947001 0.2735
v 0.053222375 -0.29947001 0.2675
v 0.055387449 -0.29947001 0.2675
v 0.056351295 -0.29947001 0.26760231
v 0.057067533 -0.29947001 0.26790314
v 0.057613916 -0.29947001 0.26844748
v 0.057841063 -0.29947001 0.26883884
v 0.05802319 -0.29947001 0.26932129
v 0.058142905 -0.29947001 0.26988813
v 0.058182812 -0.29947001 0.27053274
v 0.05812398 -0.29947001 0.27129042
v 0.057947478 -0.29947001 0.27195908
v 0.057652287 -0.29947001 0.27252745
v 0.057237382 -0.29947001 0.27298431
v 0.056835265 -0.29947001 0.27324728
v 0.056357436 -0.29947001 0.27341406
v 0.055906205 -0.29947001 0.27347851
v 0.055289221 -0.29947001 0.2735
v 0.053222375 -0.29947001 0.2735
v 0.054016371 -0.29947001 0.26820805
v 0.054016371 -0.29947001 0.27279196
v 0.055276942 -0.29947001 0.27279196
v 0.05588779 -0.29947001 0.27276125
v 0.056304231 -0.29947001 0.27266916
v 0.056712995 -0.29947001 0.27241388
v 0.057055254 -0.29947001 0.27199181
v 0.057287006 -0.29947001 0.27137739
v 0.057364254 -0.29947001 0.27054502
v 0.057324862 -0.29947001 0.26991627
v 0.057206683 -0.29947001 0.26938881
v 0.057017908 -0.29947001 0.26896061
v 0.05676671 -0.29947001 0.26862961
v 0.056228514 -0.29947001 0.26831856
v 0.055826912 -0.29947001 0.26823568
v 0.055297408 -0.29947001 0.26820805
v 0.055276942 -0.29934999 0.27279196
v 0.05588779 -0.29934999 0.27276125
v 0.056304231 -0.29934999 0.27266916
v 0.056304231 -0.29947001 0.27266916
v 0.05588779 -0.29947001 0.27276125
v 0.055276942 -0.29947001 0.27279196
v 0.054016371 -0.29934999 0.26820805
v 0.054016371 -0.29934999 0.27279196
v 0.054016371 -0.29947001 0.27279196
v 0.054016371 -0.29947001 0.26820805
v 0.056304231 -0.29934999 0.27266916
v 0.056712995 -0.29934999 0.27241388
v 0.057055254 -0.29934999 0.27199181
v 0.057055254 -0.29947001 0.27199181
v 0.056712995 -0.29947001 0.27241388
v 0.056304231 -0.29947001 0.27266916
v 0.055387449 -0.29934999 0.2675
v 0.053222375 -0.29934999 0.2675
v 0.053222375 -0.29934999 0.2735
v 0.055289221 -0.29934999 0.2735
v 0.055906205 -0.29934999 0.27347851
v 0.056357436 -0.29934999 0.27341406
v 0.056835265 -0.29934999 0.27324728
v 0.057237382 -0.29934999 0.27298431
v 0.057652287 -0.29934999 0.27252745
v 0.057947478 -0.29934999 0.27195908
v 0.05812398 -0.29934999 0.27129042
v 0.058182812 -0.29934999 0.27053274
v 0.058142905 -0.29934999 0.26988813
v 0.05802319 -0.29934999 0.26932129
v 0.057841063 -0.29934999 0.26883884
v 0.057613916 -0.29934999 0.26844748
v 0.057067533 -0.29934999 0.26790314
v 0.056351295 -0.29934999 0.26760231
v 0.054016371 -0.29934999 0.27279196
v 0.054016371 -0.29934999 0.26820805
v 0.055297408 -0.29934999 0.26820805
v 0.055826912 -0.29934999 0.26823568
v 0.056228514 -0.29934999 0.26831856
v 0.05676671 -0.29934999 0.26862961
v 0.057017908 -0.29934999 0.26896061
v 0.057206683 -0.29934999 0.26938881
v 0.057324862 -0.29934999 0.26991627
v 0.057364254 -0.29934999 0.27054502
v 0.057287006 -0.29934999 0.27137739
v 0.057055254 -0.29934999 0.27199181
v 0.056712995 -0.29934999 0.27241388
v 0.056304231 -0.29934999 0.27266916
v 0.05588779 -0.29934999 0.27276125
v 0.055276942 -0.29934999 0.27279196
v 0.057055254 -0.29934999 0.27199181
v 0.057287006 -0.29934999 0.27137739
v 0.057364254 -0.29934999 0.27054502
v 0.057364254 -0.29947001 0.27054502
v 0.057287006 -0.29947001 0.27137739
v 0.057055254 -0.29947001 0.27199181
v 0.057364254 -0.29934999 0.27054502
v 0.057324862 -0.29934999 0.26991627
v 0.057206683 -0.29934999 0.26938881
v 0.057206683 -0.29947001 0.26938881
v 0.057324862 -0.29947001 0.26991627
v 0.057364254 -0.29947001 0.27054502
v 0.057206683 -0.29934999 0.26938881
v 0.057017908 -0.29934999 0.26896061
v 0.05676671 -0.29934999 0.26862961
v 0.05676671 -0.29947001 0.26862961
v 0.057017908 -0.29947001 0.26896061
v 0.057206683 -0.29947001 0.26938881
v 0.05676671 -0.29934999 0.26862961
v 0.056228514 -0.29934999 0.26831856
v 0.056228514 -0.29947001 0.26831856
v 0.05676671 -0.29947001 0.26862961
v 0.056228514 -0.29934999 0.26831856
v 0.055826912 -0.29934999 0.26823568
v 0.055297408 -0.29934999 0.26820805
v 0.055297408 -0.29947001 0.26820805
v 0.055826912 -0.29947001 0.26823568
v 0.056228514 -0.29947001 0.26831856
v 0.055297408 -0.29934999 0.26820805
v 0.054016371 -0.29934999 0.26820805
v 0.054016371 -0.29947001 0.26820805
v 0.055297408 -0.29947001 0.26820805
f 1 2 6
f 6 2 5
f 5 2 3
f 5 3 4
f 7 8 10
f 10 8 9
f 11 12 16
f 16 12 15
f 15 12 13
f 15 13 14
f 17 18 20
f 20 18 19
f 21 22 26
f 26 22 25
f 25 22 23
f 25 23 24
f 27 28 30
f 30 28 29
f 31 32 36
f 36 32 35
f 35 32 33
f 35 33 34
f 37 38 42
f 42 38 41
f 41 38 39
f 41 39 40
f 43 44 46
f 46 44 45
f 47 48 50
f 50 48 49
f 51 52 54
f 54 52 53
f 55 56 60
f 60 56 59
f 59 56 57
f 59 57 58
f 61 62 64
f 64 62 63
f 66 83 65
f 65 83 84
f 65 84 82
f 82 84 81
f 81 84 85
f 81 85 80
f 80 85 86
f 80 86 79
f 79 86 87
f 79 87 78
f 78 87 88
f 78 88 77
f 77 88 89
f 77 89 76
f 76 89 75
f 75 89 90
f 75 90 74
f 74 90 91
f 74 91 73
f 73 91 72
f 72 91 92
f 72 92 71
f 71 92 93
f 71 93 70
f 70 93 94
f 70 94 69
f 69 94 95
f 69 95 68
f 68 95 96
f 68 96 67
f 67 96 97
f 67 97 66
f 66 97 98
f 66 98 83
f 99 100 104
f 104 100 103
f 103 100 101
f 103 101 102
f 105 106 108
f 108 106 107
f 109 110 114
f 114 110 113
f 113 110 111
f 113 111 112
f 116 134 115
f 115 134 135
f 115 135 136
f 134 116 133
f 133 116 117
f 133 117 118
f 133 118 148
f 148 118 119
f 148 119 147
f 147 119 120
f 147 120 146
f 146 120 121
f 146 121 145
f 145 121 122
f 145 122 144
f 144 122 123
f 144 123 124
f 144 124 143
f 143 124 125
f 143 125 142
f 142 125 126
f 142 126 127
f 142 127 141
f 141 127 128
f 141 128 140
f 140 128 129
f 140 129 139
f 139 129 130
f 139 130 138
f 138 130 131
f 138 131 137
f 137 131 132
f 137 132 136
f 136 132 115
f 149 150 154
f 154 150 153
f 153 150 151
f 153 151 152
f 155 156 160
f 160 156 159
f 159 156 157
f 159 157 158
f 161 162 166
f 166 162 165
f 165 162 163
f 165 163 164
f 167 168 170
f 170 168 169
f 171 172 176
f 176 172 175
f 175 172 173
f 175 173 174
f 177 178 180
f 180 178 179
