v 0.052042499 0.075608525 9.9999998e-05
v 0.052206874 0.07606298 9.9999998e-05
v 0.052261667 0.07655334 9.9999998e-05
v 0.052261667 0.07655334 0.000125
v 0.052206874 0.07606298 0.000125
v 0.052042499 0.075608525 0.000125
v 0.051440248 0.074939971 9.9999998e-05
v 0.051782351 0.075223141 9.9999998e-05
v 0.052042499 0.075608525 9.9999998e-05
v 0.052042499 0.075608525 0.000125
v 0.051782351 0.075223141 0.000125
v 0.051440248 0.074939971 0.000125
v 0.052261667 0.07655334 9.9999998e-05
v 0.052145176 0.077255507 9.9999998e-05
v 0.051795702 0.077814937 9.9999998e-05
v 0.051795702 0.077814937 0.000125
v 0.052145176 0.077255507 0.000125
v 0.052261667 0.07655334 0.000125
v 0.050570941 0.074707913 9.9999998e-05
v 0.05103138 0.07476593 9.9999998e-05
v 0.051440248 0.074939971 9.9999998e-05
v 0.051440248 0.074939971 0.000125
v 0.05103138 0.07476593 0.000125
v 0.050570941 0.074707913 0.000125
v 0.051795702 0.077814937 9.9999998e-05
v 0.051280475 0.078180985 9.9999998e-05
v 0.050666714 0.078303003 9.9999998e-05
v 0.050666714 0.078303003 0.000125
v 0.051280475 0.078180985 0.000125
v 0.051795702 0.077814937 0.000125
v 0.049219098 0.075317531 9.9999998e-05
v 0.049818587 0.074860315 9.9999998e-05
v 0.050570941 0.074707913 9.9999998e-05
v 0.050570941 0.074707913 0.000125
v 0.049818587 0.074860315 0.000125
v 0.049219098 0.075317531 0.000125
v 0.050666714 0.078303003 9.9999998e-05
v 0.049941063 0.078126192 9.9999998e-05
v 0.049941063 0.078126192 0.000125
v 0.050666714 0.078303003 0.000125
v 0.048696046 0.077326875 9.9999998e-05
v 0.048728733 0.076676393 9.9999998e-05
v 0.048826809 0.076124678 9.9999998e-05
v 0.048990264 0.075671721 9.9999998e-05
v 0.049219098 0.075317531 9.9999998e-05
v 0.049219098 0.075317531 0.000125
v 0.048990264 0.075671721 0.000125
v 0.048826809 0.076124678 0.000125
v 0.048728733 0.076676393 0.000125
v 0.048696046 0.077326875 0.000125
v 0.049941063 0.078126192 9.9999998e-05
v 0.04962152 0.077902422 9.9999998e-05
v 0.049355388 0.07758472 9.9999998e-05
v 0.049355388 0.07758472 0.000125
v 0.04962152 0.077902422 0.000125
v 0.049941063 0.078126192 0.000125
v 0.049274354 0.079603276 9.9999998e-05
v 0.049021344 0.079194407 9.9999998e-05
v 0.048840623 0.078678718 9.9999998e-05
v 0.04873219 0.078056207 9.9999998e-05
v 0.048696046 0.077326875 9.9999998e-05
v 0.048696046 0.077326875 0.000125
v 0.04873219 0.078056207 0.000125
v 0.048840623 0.078678718 0.000125
v 0.049021344 0.079194407 0.000125
v 0.049274354 0.079603276 0.000125
v 0.049355388 0.07758472 9.9999998e-05
v 0.049406037 0.078302078 9.9999998e-05
v 0.049543247 0.078833423 9.9999998e-05
v 0.049543247 0.078833423 0.000125
v 0.049406037 0.078302078 0.000125
v 0.049355388 0.07758472 0.000125
v 0.050633559 0.080222101 9.9999998e-05
v 0.049866471 0.080067396 9.9999998e-05
v 0.049274354 0.079603276 9.9999998e-05
v 0.049274354 0.079603276 0.000125
v 0.049866471 0.080067396 0.000125
v 0.050633559 0.080222101 0.000125
v 0.049543247 0.078833423 9.9999998e-05
v 0.049756889 0.07921927 9.9999998e-05
v 0.050036836 0.079500136 9.9999998e-05
v 0.050036836 0.079500136 0.000125
v 0.049756889 0.07921927 0.000125
v 0.049543247 0.078833423 0.000125
v 0.051677833 0.079864802 9.9999998e-05
v 0.05121325 0.08013278 9.9999998e-05
v 0.050633559 0.080222101 9.9999998e-05
v 0.050633559 0.080222101 0.000125
v 0.05121325 0.08013278 0.000125
v 0.051677833 0.079864802 0.000125
v 0.050036836 0.079500136 9.9999998e-05
v 0.050593042 0.079676943 9.9999998e-05
v 0.050593042 0.079676943 0.000125
v 0.050036836 0.079500136 0.000125
v 0.052165895 0.078877625 9.9999998e-05
v 0.05200336 0.079439359 9.9999998e-05
v 0.051677833 0.079864802 9.9999998e-05
v 0.051677833 0.079864802 0.000125
v 0.05200336 0.079439359 0.000125
v 0.052165895 0.078877625 0.000125
v 0.050593042 0.079676943 9.9999998e-05
v 0.050955868 0.079606037 9.9999998e-05
v 0.05125607 0.079393315 9.9999998e-05
v 0.05125607 0.079393315 0.000125
v 0.050955868 0.079606037 0.000125
v 0.050593042 0.079676943 0.000125
v 0.05125607 0.079393315 9.9999998e-05
v 0.051399727 0.079163098 9.9999998e-05
v 0.051506548 0.078826056 9.9999998e-05
v 0.051506548 0.078826056 0.000125
v 0.051399727 0.079163098 0.000125
v 0.05125607 0.079393315 0.000125
v 0.051506548 0.078826056 9.9999998e-05
v 0.052165895 0.078877625 9.9999998e-05
v 0.052165895 0.078877625 0.000125
v 0.051506548 0.078826056 0.000125
v 0.049458528 0.076549659 0.000125
v 0.0495368 0.077022529 0.000125
v 0.049771624 0.07739502 0.000125
v 0.050118794 0.077636747 0.000125
v 0.050534105 0.077717328 0.000125
v 0.050948501 0.077636747 0.000125
v 0.051285539 0.07739502 0.000125
v 0.051509309 0.077013316 0.000125
v 0.0515839 0.076512823 0.000125
v 0.051508389 0.075991611 0.000125
v 0.051281857 0.07559195 0.000125
v 0.050950341 0.075337791 0.000125
v 0.050559893 0.075253067 0.000125
v 0.050011053 0.075416985 0.000125
v 0.049604025 0.075893998 0.000125
v 0.052165895 0.078877625 0.000125
v 0.05200336 0.079439359 0.000125
v 0.051677833 0.079864802 0.000125
v 0.05121325 0.08013278 0.000125
v 0.050633559 0.080222101 0.000125
v 0.049866471 0.080067396 0.000125
v 0.049274354 0.079603276 0.000125
v 0.049021344 0.079194407 0.000125
v 0.048840623 0.078678718 0.000125
v 0.04873219 0.078056207 0.000125
v 0.048696046 0.077326875 0.000125
v 0.048728733 0.076676393 0.000125
v 0.048826809 0.076124678 0.000125
v 0.048990264 0.075671721 0.000125
v 0.049219098 0.075317531 0.000125
v 0.049818587 0.074860315 0.000125
v 0.050570941 0.074707913 0.000125
v 0.05103138 0.07476593 0.000125
v 0.051440248 0.074939971 0.000125
v 0.051782351 0.075223141 0.000125
v 0.052042499 0.075608525 0.000125
v 0.052206874 0.07606298 0.000125
v 0.052261667 0.07655334 0.000125
v 0.052145176 0.077255507 0.000125
v 0.051795702 0.077814937 0.000125
v 0.051280475 0.078180985 0.000125
v 0.050666714 0.078303003 0.000125
v 0.049941063 0.078126192 0.000125
v 0.04962152 0.077902422 0.000125
v 0.049355388 0.07758472 0.000125
v 0.049406037 0.078302078 0.000125
v 0.049543247 0.078833423 0.000125
v 0.049756889 0.07921927 0.000125
v 0.050036836 0.079500136 0.000125
v 0.050593042 0.079676943 0.000125
v 0.050955868 0.079606037 0.000125
v 0.05125607 0.079393315 0.000125
v 0.051399727 0.079163098 0.000125
v 0.051506548 0.078826056 0.000125
v 0.049771624 0.07739502 9.9999998e-05
v 0.050118794 0.077636747 9.9999998e-05
v 0.050534105 0.077717328 9.9999998e-05
v 0.050534105 0.077717328 0.000125
v 0.050118794 0.077636747 0.000125
v 0.049771624 0.07739502 0.000125
v 0.049458528 0.076549659 9.9999998e-05
v 0.0495368 0.077022529 9.9999998e-05
v 0.049771624 0.07739502 9.9999998e-05
v 0.049771624 0.07739502 0.000125
v 0.0495368 0.077022529 0.000125
v 0.049458528 0.076549659 0.000125
v 0.050534105 0.077717328 9.9999998e-05
v 0.050948501 0.077636747 9.9999998e-05
v 0.051285539 0.07739502 9.9999998e-05
v 0.051285539 0.07739502 0.000125
v 0.050948501 0.077636747 0.000125
v 0.050534105 0.077717328 0.000125
v 0.049771624 0.07739502 9.9999998e-05
v 0.0495368 0.077022529 9.9999998e-05
v 0.049458528 0.076549659 9.9999998e-05
v 0.049604025 0.075893998 9.9999998e-05
v 0.050011053 0.075416985 9.9999998e-05
v 0.050559893 0.075253067 9.9999998e-05
v 0.050950341 0.075337791 9.9999998e-05
v 0.051281857 0.07559195 9.9999998e-05
v 0.051508389 0.075991611 9.9999998e-05
v 0.0515839 0.076512823 9.9999998e-05
v 0.051509309 0.077013316 9.9999998e-05
v 0.051285539 0.07739502 9.9999998e-05
v 0.050948501 0.077636747 9.9999998e-05
v 0.050534105 0.077717328 9.9999998e-05
v 0.050118794 0.077636747 9.9999998e-05
v 0.051677833 0.079864802 9.9999998e-05
v 0.05200336 0.079439359 9.9999998e-05
v 0.052165895 0.078877625 9.9999998e-05
v 0.051506548 0.078826056 9.9999998e-05
v 0.051399727 0.079163098 9.9999998e-05
v 0.05125607 0.079393315 9.9999998e-05
v 0.050955868 0.079606037 9.9999998e-05
v 0.050593042 0.079676943 9.9999998e-05
v 0.050036836 0.079500136 9.9999998e-05
v 0.049756889 0.07921927 9.9999998e-05
v 0.049543247 0.078833423 9.9999998e-05
v 0.049406037 0.078302078 9.9999998e-05
v 0.049355388 0.07758472 9.9999998e-05
v 0.04962152 0.077902422 9.9999998e-05
v 0.049941063 0.078126192 9.9999998e-05
v 0.050666714 0.078303003 9.9999998e-05
v 0.051280475 0.078180985 9.9999998e-05
v 0.051795702 0.077814937 9.9999998e-05
v 0.052145176 0.077255507 9.9999998e-05
v 0.052261667 0.07655334 9.9999998e-05
v 0.052206874 0.07606298 9.9999998e-05
v 0.052042499 0.075608525 9.9999998e-05
v 0.051782351 0.075223141 9.9999998e-05
v 0.051440248 0.074939971 9.9999998e-05
v 0.05103138 0.07476593 9.9999998e-05
v 0.050570941 0.074707913 9.9999998e-05
v 0.049818587 0.074860315 9.9999998e-05
v 0.049219098 0.075317531 9.9999998e-05
v 0.048990264 0.075671721 9.9999998e-05
v 0.048826809 0.076124678 9.9999998e-05
v 0.048728733 0.076676393 9.9999998e-05
v 0.048696046 0.077326875 9.9999998e-05
v 0.04873219 0.078056207 9.9999998e-05
v 0.048840623 0.078678718 9.9999998e-05
v 0.049021344 0.079194407 9.9999998e-05
v 0.049274354 0.079603276 9.9999998e-05
v 0.049866471 0.080067396 9.9999998e-05
v 0.050633559 0.080222101 9.9999998e-05
v 0.05121325 0.08013278 9.9999998e-05
v 0.051285539 0.07739502 9.9999998e-05
v 0.051509309 0.077013316 9.9999998e-05
v 0.0515839 0.076512823 9.9999998e-05
v 0.0515839 0.076512823 0.000125
v 0.051509309 0.077013316 0.000125
v 0.051285539 0.07739502 0.000125
v 0.0515839 0.076512823 9.9999998e-05
v 0.051508389 0.075991611 9.9999998e-05
v 0.051281857 0.07559195 9.9999998e-05
v 0.051281857 0.07559195 0.000125
v 0.051508389 0.075991611 0.000125
v 0.0515839 0.076512823 0.000125
v 0.051281857 0.07559195 9.9999998e-05
v 0.050950341 0.075337791 9.9999998e-05
v 0.050559893 0.075253067 9.9999998e-05
v 0.050559893 0.075253067 0.000125
v 0.050950341 0.075337791 0.000125
v 0.051281857 0.07559195 0.000125
v 0.050559893 0.075253067 9.9999998e-05
v 0.050011053 0.075416985 9.9999998e-05
v 0.050011053 0.075416985 0.000125
v 0.050559893 0.075253067 0.000125
v 0.050011053 0.075416985 9.9999998e-05
v 0.049604025 0.075893998 9.9999998e-05
v 0.049604025 0.075893998 0.000125
v 0.050011053 0.075416985 0.000125
v 0.049604025 0.075893998 9.9999998e-05
v 0.049458528 0.076549659 9.9999998e-05
v 0.049458528 0.076549659 0.000125
v 0.049604025 0.075893998 0.000125
f 1 2 6
f 6 2 5
f 5 2 3
f 5 3 4
f 7 8 12
f 12 8 11
f 11 8 9
f 11 9 10
f 13 14 18
f 18 14 17
f 17 14 15
f 17 15 16
f 19 20 24
f 24 20 23
f 23 20 21
f 23 21 22
f 25 26 30
f 30 26 29
f 29 26 27
f 29 27 28
f 31 32 36
f 36 32 35
f 35 32 33
f 35 33 34
f 37 38 40
f 40 38 39
f 41 42 50
f 50 42 49
f 49 42 43
f 49 43 48
f 48 43 44
f 48 44 47
f 47 44 45
f 47 45 46
f 51 52 56
f 56 52 55
f 55 52 53
f 55 53 54
f 57 58 66
f 66 58 65
f 65 58 59
f 65 59 64
f 64 59 60
f 64 60 63
f 63 60 61
f 63 61 62
f 67 68 72
f 72 68 71
f 71 68 69
f 71 69 70
f 73 74 78
f 78 74 77
f 77 74 75
f 77 75 76
f 79 80 84
f 84 80 83
f 83 80 81
f 83 81 82
f 85 86 90
f 90 86 89
f 89 86 87
f 89 87 88
f 91 92 94
f 94 92 93
f 95 96 100
f 100 96 99
f 99 96 97
f 99 97 98
f 101 102 106
f 106 102 105
f 105 102 103
f 105 103 104
f 107 108 112
f 112 108 111
f 111 108 109
f 111 109 110
f 113 114 116
f 116 114 115
f 118 143 117
f 117 143 144
f 117 144 145
f 143 118 161
f 161 118 119
f 161 119 160
f 160 119 159
f 159 119 120
f 159 120 121
f 159 121 158
f 158 121 122
f 158 122 157
f 157 122 123
f 157 123 156
f 156 123 124
f 156 124 155
f 155 124 125
f 155 125 154
f 154 125 153
f 153 125 126
f 153 126 152
f 152 126 151
f 151 126 127
f 151 127 150
f 150 127 128
f 150 128 149
f 149 128 129
f 149 129 148
f 148 129 130
f 148 130 147
f 147 130 131
f 147 131 146
f 146 131 145
f 145 131 117
f 132 133 170
f 170 133 169
f 169 133 134
f 169 134 168
f 168 134 135
f 168 135 167
f 167 135 136
f 167 136 166
f 166 136 137
f 166 137 165
f 165 137 164
f 164 137 138
f 164 138 163
f 163 138 139
f 163 139 162
f 162 139 140
f 162 140 141
f 162 141 161
f 161 141 142
f 161 142 143
f 171 172 176
f 176 172 175
f 175 172 173
f 175 173 174
f 177 178 182
f 182 178 181
f 181 178 179
f 181 179 180
f 183 184 188
f 188 184 187
f 187 184 185
f 187 185 186
f 190 216 189
f 189 216 217
f 189 217 218
f 216 190 234
f 234 190 191
f 234 191 233
f 233 191 232
f 232 191 192
f 232 192 231
f 231 192 230
f 230 192 193
f 230 193 229
f 229 193 194
f 229 194 228
f 228 194 195
f 228 195 227
f 227 195 196
f 227 196 226
f 226 196 197
f 226 197 225
f 225 197 224
f 224 197 198
f 224 198 223
f 223 198 222
f 222 198 199
f 222 199 221
f 221 199 200
f 221 200 220
f 220 200 201
f 220 201 219
f 219 201 202
f 219 202 218
f 218 202 203
f 218 203 189
f 205 208 204
f 204 208 209
f 204 209 242
f 242 209 210
f 242 210 241
f 241 210 211
f 241 211 240
f 240 211 212
f 240 212 213
f 206 207 205
f 205 207 208
f 240 213 239
f 239 213 214
f 239 214 238
f 238 214 215
f 238 215 237
f 237 215 236
f 236 215 216
f 236 216 235
f 235 216 234
f 243 244 248
f 248 244 247
f 247 244 245
f 247 245 246
f 249 250 254
f 254 250 253
f 253 250 251
f 253 251 252
f 255 256 260
f 260 256 259
f 259 256 257
f 259 257 258
f 261 262 264
f 264 262 263
f 265 266 268
f 268 266 267
f 269 270 272
f 272 270 271
