v -0.015 -0.021500001 0.33889999
v -0.015 -0.020675621 0.33871185
v -0.015 -0.02001452 0.33818462
v -0.015 -0.019647636 0.33742279
v -0.015 -0.019647636 0.33657722
v -0.015 -0.02001452 0.33581535
v -0.015 -0.020675621 0.33528816
v -0.015 -0.021500001 0.33509998
v -0.015 -0.022324378 0.33528816
v -0.015 -0.02298548 0.33581535
v -0.015 -0.023352363 0.33657722
v -0.015 -0.023352363 0.33742279
v -0.015 -0.02298548 0.33818462
v -0.015 -0.022324378 0.33871185
v -0.015 -0.0255 0.36200001
v -0.015 -0.0255 0.33099998
v -0.015 -0.0175 0.33099998
v -0.015 -0.0175 0.36200001
v -0.022 -0.021500001 0.33889999
v -0.022 -0.022324378 0.33871185
v -0.022 -0.02298548 0.33818462
v -0.022 -0.023352363 0.33742279
v -0.022 -0.023352363 0.33657722
v -0.022 -0.02298548 0.33581535
v -0.022 -0.022324378 0.33528816
v -0.022 -0.021500001 0.33509998
v -0.022 -0.020675621 0.33528816
v -0.022 -0.02001452 0.33581535
v -0.022 -0.019647636 0.33657722
v -0.022 -0.019647636 0.33742279
v -0.022 -0.02001452 0.33818462
v -0.022 -0.020675621 0.33871185
v -0.022 -0.0175 0.36200001
v -0.022 -0.0175 0.33099998
v -0.022 -0.0255 0.33099998
v -0.022 -0.0255 0.36200001
v -0.015 -0.0175 0.36200001
v -0.015 -0.0175 0.33099998
v -0.022 -0.0175 0.33099998
v -0.022 -0.0175 0.36200001
v -0.022 -0.0255 0.36200001
v -0.022 -0.0255 0.33099998
v -0.015 -0.0255 0.33099998
v -0.015 -0.0255 0.36200001
v -0.015 -0.0175 0.33099998
v -0.015 -0.0255 0.33099998
v -0.022 -0.0255 0.33099998
v -0.022 -0.0175 0.33099998
v -0.022 -0.021500001 0.33889999
v -0.022 -0.020675621 0.33871185
v -0.022 -0.02001452 0.33818462
v -0.022 -0.019647636 0.33742279
v -0.022 -0.019647636 0.33657722
v -0.022 -0.02001452 0.33581535
v -0.022 -0.020675621 0.33528816
v -0.022 -0.021500001 0.33509998
v -0.022 -0.022324378 0.33528816
v -0.022 -0.02298548 0.33581535
v -0.022 -0.023352363 0.33657722
v -0.022 -0.023352363 0.33742279
v -0.022 -0.02298548 0.33818462
v -0.022 -0.022324378 0.33871185
v -0.015 -0.021500001 0.33889999
v -0.015 -0.022324378 0.33871185
v -0.015 -0.02298548 0.33818462
v -0.015 -0.023352363 0.33742279
v -0.015 -0.023352363 0.33657722
v -0.015 -0.02298548 0.33581535
v -0.015 -0.022324378 0.33528816
v -0.015 -0.021500001 0.33509998
v -0.015 -0.020675621 0.33528816
v -0.015 -0.02001452 0.33581535
v -0.015 -0.019647636 0.33657722
v -0.015 -0.019647636 0.33742279
v -0.015 -0.02001452 0.33818462
v -0.015 -0.020675621 0.33871185
v -0.015 -0.021500001 0.33889999
v -0.022 -0.021500001 0.33889999
v -0.015 -0.0255 0.36200001
v -0.015 -0.0175 0.36200001
v -0.022 -0.0175 0.36200001
v -0.022 -0.0255 0.36200001
f 2 18 1
f 1 18 15
f 1 15 14
f 14 15 13
f 13 15 12
f 12 15 16
f 12 16 11
f 11 16 10
f 10 16 9
f 9 16 8
f 8 16 17
f 8 17 7
f 7 17 6
f 6 17 5
f 5 17 4
f 4 17 18
f 4 18 3
f 3 18 2
f 20 36 19
f 19 36 33
f 19 33 32
f 32 33 31
f 31 33 30
f 30 33 34
f 30 34 29
f 29 34 28
f 28 34 27
f 27 34 26
f 26 34 35
f 26 35 25
f 25 35 24
f 24 35 23
f 23 35 22
f 22 35 36
f 22 36 21
f 21 36 20
f 37 38 40
f 40 38 39
f 41 42 44
f 44 42 43
f 46 47 45
f 45 47 48
f 50 76 49
f 49 76 77
f 78 63 62
f 62 63 64
f 62 64 61
f 61 64 65
f 61 65 60
f 60 65 66
f 60 66 59
f 59 66 67
f 59 67 58
f 58 67 68
f 58 68 57
f 57 68 69
f 57 69 56
f 56 69 70
f 56 70 55
f 55 70 71
f 55 71 54
f 54 71 72
f 54 72 53
f 53 72 73
f 53 73 52
f 52 73 74
f 52 74 51
f 51 74 75
f 51 75 50
f 50 75 76
f 80 81 79
f 79 81 82
