v 0.13436044 0.008319236 9.9999998e-05
v 0.13165921 0.008319236 9.9999998e-05
v 0.13165921 0.008319236 0.000125
v 0.13436044 0.008319236 0.000125
v 0.13436044 0.0078000003 9.9999998e-05
v 0.13436044 0.008319236 9.9999998e-05
v 0.13436044 0.008319236 0.000125
v 0.13436044 0.0078000003 0.000125
v 0.13165921 0.008319236 9.9999998e-05
v 0.13165921 0.0098169172 9.9999998e-05
v 0.13165921 0.0098169172 0.000125
v 0.13165921 0.008319236 0.000125
v 0.13107695 0.0078000003 0.000125
v 0.13436044 0.0078000003 0.000125
v 0.13436044 0.008319236 0.000125
v 0.13165921 0.008319236 0.000125
v 0.13165921 0.0098169172 0.000125
v 0.13409331 0.0098169172 0.000125
v 0.13409331 0.010333152 0.000125
v 0.13165921 0.010333152 0.000125
v 0.13165921 0.011680764 0.000125
v 0.13425839 0.011680764 0.000125
v 0.13425839 0.0122 0.000125
v 0.13107695 0.0122 0.000125
v 0.13165921 0.0098169172 9.9999998e-05
v 0.13409331 0.0098169172 9.9999998e-05
v 0.13409331 0.0098169172 0.000125
v 0.13165921 0.0098169172 0.000125
v 0.13107695 0.0078000003 9.9999998e-05
v 0.13436044 0.0078000003 9.9999998e-05
v 0.13436044 0.0078000003 0.000125
v 0.13107695 0.0078000003 0.000125
v 0.13409331 0.0098169172 9.9999998e-05
v 0.13409331 0.010333152 9.9999998e-05
v 0.13409331 0.010333152 0.000125
v 0.13409331 0.0098169172 0.000125
v 0.13436044 0.0078000003 9.9999998e-05
v 0.13107695 0.0078000003 9.9999998e-05
v 0.13107695 0.0122 9.9999998e-05
v 0.13425839 0.0122 9.9999998e-05
v 0.13425839 0.011680764 9.9999998e-05
v 0.13165921 0.011680764 9.9999998e-05
v 0.13165921 0.010333152 9.9999998e-05
v 0.13409331 0.010333152 9.9999998e-05
v 0.13409331 0.0098169172 9.9999998e-05
v 0.13165921 0.0098169172 9.9999998e-05
v 0.13165921 0.008319236 9.9999998e-05
v 0.13436044 0.008319236 9.9999998e-05
v 0.13409331 0.010333152 9.9999998e-05
v 0.13165921 0.010333152 9.9999998e-05
v 0.13165921 0.010333152 0.000125
v 0.13409331 0.010333152 0.000125
v 0.13165921 0.010333152 9.9999998e-05
v 0.13165921 0.011680764 9.9999998e-05
v 0.13165921 0.011680764 0.000125
v 0.13165921 0.010333152 0.000125
v 0.13165921 0.011680764 9.9999998e-05
v 0.13425839 0.011680764 9.9999998e-05
v 0.13425839 0.011680764 0.000125
v 0.13165921 0.011680764 0.000125
v 0.13425839 0.011680764 9.9999998e-05
v 0.13425839 0.0122 9.9999998e-05
v 0.13425839 0.0122 0.000125
v 0.13425839 0.011680764 0.000125
v 0.13425839 0.0122 9.9999998e-05
v 0.13107695 0.0122 9.9999998e-05
v 0.13107695 0.0122 0.000125
v 0.13425839 0.0122 0.000125
v 0.13107695 0.0122 9.9999998e-05
v 0.13107695 0.0078000003 9.9999998e-05
v 0.13107695 0.0078000003 0.000125
v 0.13107695 0.0122 0.000125
f 1 2 4
f 4 2 3
f 5 6 8
f 8 6 7
f 9 10 12
f 12 10 11
f 14 16 13
f 13 16 17
f 13 17 24
f 24 17 20
f 24 20 21
f 14 15 16
f 17 18 20
f 20 18 19
f 22 23 21
f 21 23 24
f 25 26 28
f 28 26 27
f 29 30 32
f 32 30 31
f 33 34 36
f 36 34 35
f 48 37 47
f 47 37 38
f 47 38 46
f 46 38 39
f 46 39 43
f 43 39 42
f 42 39 40
f 42 40 41
f 43 44 46
f 46 44 45
f 49 50 52
f 52 50 51
f 53 54 56
f 56 54 55
f 57 58 60
f 60 58 59
f 61 62 64
f 64 62 63
f 65 66 68
f 68 66 67
f 69 70 72
f 72 70 71
