v 0.09 -0.081000004 0.38299999
v 0.09 -0.081000004 0.39700001
v 0.146 -0.081000004 0.39700001
v 0.146 -0.081000004 0.38299999
v 0.146 -0.070999999 0.38299999
v 0.146 -0.081000004 0.38299999
v 0.146 -0.081000004 0.39700001
v 0.146 -0.070999999 0.39700001
v 0.146 -0.088000002 0.40299999
v 0.146 -0.088000002 0.38099998
v 0.146 -0.064000001 0.38099998
v 0.146 -0.064000001 0.40299999
v 0.09 -0.070999999 0.38299999
v 0.09 -0.081000004 0.38299999
v 0.146 -0.081000004 0.38299999
v 0.146 -0.070999999 0.38299999
v 0.09 -0.088000002 0.40299999
v 0.09 -0.088000002 0.38099998
v 0.146 -0.088000002 0.38099998
v 0.146 -0.088000002 0.40299999
v 0.146 -0.064000001 0.38099998
v 0.146 -0.088000002 0.38099998
v 0.09 -0.088000002 0.38099998
v 0.09 -0.064000001 0.38099998
v 0.09 -0.070999999 0.39700001
v 0.09 -0.070999999 0.38299999
v 0.146 -0.070999999 0.38299999
v 0.146 -0.070999999 0.39700001
v 0.146 -0.088000002 0.40299999
v 0.146 -0.064000001 0.40299999
v 0.09 -0.064000001 0.40299999
v 0.09 -0.088000002 0.40299999
v 0.09 -0.081000004 0.39700001
v 0.09 -0.070999999 0.39700001
v 0.146 -0.070999999 0.39700001
v 0.146 -0.081000004 0.39700001
v 0.09 -0.081000004 0.38299999
v 0.09 -0.070999999 0.38299999
v 0.09 -0.070999999 0.39700001
v 0.09 -0.081000004 0.39700001
v 0.09 -0.064000001 0.40299999
v 0.09 -0.064000001 0.38099998
v 0.09 -0.088000002 0.38099998
v 0.09 -0.088000002 0.40299999
v 0.146 -0.064000001 0.40299999
v 0.146 -0.064000001 0.38099998
v 0.09 -0.064000001 0.38099998
v 0.09 -0.064000001 0.40299999
f 1 2 4
f 4 2 3
f 6 10 5
f 5 10 11
f 5 11 8
f 8 11 12
f 8 12 9
f 6 7 10
f 10 7 9
f 9 7 8
f 14 15 13
f 13 15 16
f 17 18 20
f 20 18 19
f 22 23 21
f 21 23 24
f 25 26 28
f 28 26 27
f 30 31 29
f 29 31 32
f 34 35 33
f 33 35 36
f 40 37 43
f 43 37 38
f 43 38 42
f 42 38 39
f 42 39 41
f 41 39 44
f 44 39 40
f 44 40 43
f 45 46 48
f 48 46 47
