v -0.15303473 -0.299 0.28488605
v -0.15233515 -0.299 0.28472477
v -0.15164521 -0.299 0.28483324
v -0.15099703 -0.299 0.28511087
v -0.15042271 -0.299 0.285457
v -0.15042271 -0.29908001 0.285457
v -0.15099703 -0.29908001 0.28511087
v -0.15164521 -0.29908001 0.28483324
v -0.15233515 -0.29908001 0.28472477
v -0.15303473 -0.29908001 0.28488605
v -0.15455626 -0.299 0.28776356
v -0.15442129 -0.299 0.28798811
v -0.15442129 -0.29908001 0.28798811
v -0.15455626 -0.29908001 0.28776356
v -0.1535143 -0.299 0.28644756
v -0.15364306 -0.299 0.28618938
v -0.15364306 -0.29908001 0.28618938
v -0.1535143 -0.29908001 0.28644756
v -0.15165067 -0.299 0.28598669
v -0.15168243 -0.299 0.28606436
v -0.15168243 -0.29908001 0.28606436
v -0.15165067 -0.29908001 0.28598669
v -0.15042271 -0.299 0.285457
v -0.15044164 -0.299 0.28561176
v -0.15044164 -0.29908001 0.28561176
v -0.15042271 -0.29908001 0.285457
v -0.15442129 -0.299 0.28798811
v -0.15424757 -0.299 0.2881842
v -0.15424757 -0.29908001 0.2881842
v -0.15442129 -0.29908001 0.28798811
v -0.15319744 -0.299 0.28820032
v -0.15313535 -0.299 0.2877422
v -0.15322099 -0.299 0.28730146
v -0.1535143 -0.299 0.28644756
v -0.1535143 -0.29908001 0.28644756
v -0.15322099 -0.29908001 0.28730146
v -0.15313535 -0.29908001 0.2877422
v -0.15319744 -0.29908001 0.28820032
v -0.15160454 -0.299 0.2859166
v -0.15165067 -0.299 0.28598669
v -0.15165067 -0.29908001 0.28598669
v -0.15160454 -0.29908001 0.2859166
v -0.15044164 -0.299 0.28561176
v -0.15047333 -0.299 0.28576445
v -0.15047333 -0.29908001 0.28576445
v -0.15044164 -0.29908001 0.28561176
v -0.15424757 -0.299 0.2881842
v -0.15404093 -0.299 0.28834524
v -0.15404093 -0.29908001 0.28834524
v -0.15424757 -0.29908001 0.2881842
v -0.15331281 -0.299 0.2883334
v -0.15319744 -0.299 0.28820032
v -0.15319744 -0.29908001 0.28820032
v -0.15331281 -0.29908001 0.2883334
v -0.15057401 -0.299 0.28605932
v -0.15107322 -0.299 0.28583595
v -0.15134517 -0.299 0.28581203
v -0.15160454 -0.299 0.2859166
v -0.15160454 -0.29908001 0.2859166
v -0.15134517 -0.29908001 0.28581203
v -0.15107322 -0.29908001 0.28583595
v -0.15057401 -0.29908001 0.28605932
v -0.15047333 -0.299 0.28576445
v -0.15051755 -0.299 0.28591398
v -0.15051755 -0.29908001 0.28591398
v -0.15047333 -0.29908001 0.28576445
v -0.15404093 -0.299 0.28834524
v -0.15380834 -0.299 0.28846581
v -0.15380834 -0.29908001 0.28846581
v -0.15404093 -0.29908001 0.28834524
v -0.15051755 -0.299 0.28591398
v -0.15057401 -0.299 0.28605932
v -0.15057401 -0.29908001 0.28605932
v -0.15051755 -0.29908001 0.28591398
v -0.15380834 -0.299 0.28846581
v -0.15363232 -0.299 0.28847225
v -0.15363232 -0.29908001 0.28847225
v -0.15380834 -0.29908001 0.28846581
v -0.15363232 -0.299 0.28847225
v -0.15346215 -0.299 0.28842678
v -0.15346215 -0.29908001 0.28842678
v -0.15363232 -0.29908001 0.28847225
v -0.16831856 -0.299 0.28718407
v -0.16803345 -0.299 0.28796017
v -0.167826 -0.299 0.28831169
v -0.16753639 -0.299 0.28860569
v -0.16753639 -0.29908001 0.28860569
v -0.167826 -0.29908001 0.28831169
v -0.16803345 -0.29908001 0.28796017
v -0.16831856 -0.29908001 0.28718407
v -0.15346215 -0.299 0.28842678
v -0.15331281 -0.299 0.2883334
v -0.15331281 -0.29908001 0.2883334
v -0.15346215 -0.29908001 0.28842678
v -0.15331281 -0.29908001 0.2883334
v -0.15319744 -0.29908001 0.28820032
v -0.15313535 -0.29908001 0.2877422
v -0.15322099 -0.29908001 0.28730146
v -0.1535143 -0.29908001 0.28644756
v -0.15364306 -0.29908001 0.28618938
v -0.15382829 -0.29908001 0.28596821
v -0.15405984 -0.29908001 0.28579611
v -0.15432503 -0.29908001 0.28568251
v -0.15447342 -0.29908001 0.28568579
v -0.15461562 -0.29908001 0.28572838
v -0.15474139 -0.29908001 0.28580719
v -0.15484172 -0.29908001 0.2859166
v -0.15492276 -0.29908001 0.28639465
v -0.15485849 -0.29908001 0.28686363
v -0.15455626 -0.29908001 0.28776356
v -0.15442129 -0.29908001 0.28798811
v -0.15424757 -0.29908001 0.2881842
v -0.15404093 -0.29908001 0.28834524
v -0.15380834 -0.29908001 0.28846581
v -0.15363232 -0.29908001 0.28847225
v -0.15346215 -0.29908001 0.28842678
v -0.1680241 -0.29908001 0.28715811
v -0.16831856 -0.29908001 0.28718407
v -0.16803345 -0.29908001 0.28796017
v -0.167826 -0.29908001 0.28831169
v -0.16753639 -0.29908001 0.28860569
v -0.167085 -0.29908001 0.28869417
v -0.1668704 -0.29908001 0.28863939
v -0.16672565 -0.29908001 0.28846581
v -0.16671951 -0.29908001 0.28815893
v -0.16679762 -0.29908001 0.28786209
v -0.16695398 -0.29908001 0.28759796
v -0.1671767 -0.29908001 0.28738674
v -0.16744425 -0.29908001 0.28726103
v -0.16772964 -0.29908001 0.28718403
v -0.15051755 -0.29908001 0.28591398
v -0.15057401 -0.29908001 0.28605932
v -0.15107322 -0.29908001 0.28583595
v -0.15134517 -0.29908001 0.28581203
v -0.15160454 -0.29908001 0.2859166
v -0.15165067 -0.29908001 0.28598669
v -0.15168243 -0.29908001 0.28606436
v -0.15169867 -0.29908001 0.2861467
v -0.15169874 -0.29908001 0.2862306
v -0.15090229 -0.29908001 0.28905956
v -0.15266932 -0.29908001 0.28907669
v -0.1528092 -0.29908001 0.28863708
v -0.15287267 -0.29908001 0.28872246
v -0.1529416 -0.29908001 0.28880348
v -0.15301571 -0.29908001 0.28887981
v -0.15309467 -0.29908001 0.28895109
v -0.15359316 -0.29908001 0.28917599
v -0.15414518 -0.29908001 0.28922586
v -0.15522139 -0.29908001 0.28898249
v -0.15590066 -0.29908001 0.28855345
v -0.15645282 -0.29908001 0.28798443
v -0.15682673 -0.29908001 0.28729284
v -0.15697129 -0.29908001 0.28649609
v -0.15784839 -0.29908001 0.28588055
v -0.15835384 -0.29908001 0.28574099
v -0.15889248 -0.29908001 0.28581953
v -0.15909685 -0.29908001 0.28601843
v -0.1591915 -0.29908001 0.28628662
v -0.15917794 -0.29908001 0.28688433
v -0.15891889 -0.29908001 0.28776533
v -0.15866652 -0.29908001 0.2881348
v -0.1582873 -0.29908001 0.28840015
v -0.15799835 -0.29908001 0.28845644
v -0.15772279 -0.29908001 0.28839443
v -0.15723963 -0.29908001 0.28807186
v -0.15717601 -0.29908001 0.28827282
v -0.15711813 -0.29908001 0.28847551
v -0.15706606 -0.29908001 0.28867977
v -0.15701982 -0.29908001 0.28888544
v -0.15768683 -0.29908001 0.28915253
v -0.15843359 -0.29908001 0.28920231
v -0.15917714 -0.29908001 0.28907009
v -0.15983452 -0.29908001 0.28879124
v -0.16039795 -0.29908001 0.2883758
v -0.16086933 -0.29908001 0.28782707
v -0.16118013 -0.29908001 0.28717024
v -0.16126184 -0.29908001 0.28643044
v -0.16137384 -0.29908001 0.2863316
v -0.16149244 -0.29908001 0.28624079
v -0.16161707 -0.29908001 0.28615847
v -0.16174713 -0.29908001 0.28608501
v -0.16221031 -0.29908001 0.2859009
v -0.16245768 -0.29908001 0.28589071
v -0.16268633 -0.29908001 0.28600794
v -0.16272392 -0.29908001 0.28608473
v -0.16274965 -0.29908001 0.28616627
v -0.16276291 -0.29908001 0.28625072
v -0.1627634 -0.29908001 0.28633623
v -0.16199835 -0.29908001 0.28911951
v -0.16396807 -0.29908001 0.28910238
v -0.16468744 -0.29908001 0.28663311
v -0.16509472 -0.29908001 0.2863859
v -0.16552193 -0.29908001 0.28617498
v -0.16596582 -0.29908001 0.28600193
v -0.16642307 -0.29908001 0.28586807
v -0.16738758 -0.29908001 0.28573246
v -0.16786383 -0.29908001 0.285795
v -0.16828146 -0.29908001 0.28600794
v -0.16836971 -0.29908001 0.28613922
v -0.16842464 -0.29908001 0.28628756
v -0.16844315 -0.29908001 0.28644466
v -0.16842419 -0.29908001 0.28660172
v -0.1676297 -0.29908001 0.2865815
v -0.16685341 -0.29908001 0.28668629
v -0.16614885 -0.29908001 0.28695217
v -0.16556953 -0.29908001 0.28741529
v -0.16543085 -0.29908001 0.28766191
v -0.16535383 -0.29908001 0.28793417
v -0.16534275 -0.29908001 0.2882169
v -0.16539825 -0.29908001 0.28849436
v -0.16555241 -0.29908001 0.28874556
v -0.16626245 -0.29908001 0.28913874
v -0.16710283 -0.29908001 0.28926189
v -0.16796946 -0.29908001 0.28918112
v -0.16875818 -0.29908001 0.28896252
v -0.16942581 -0.29908001 0.28858994
v -0.16996059 -0.29908001 0.28804356
v -0.17031878 -0.29908001 0.28736809
v -0.17047098 -0.29908001 0.28661884
v -0.17039253 -0.29908001 0.28620176
v -0.17021584 -0.29908001 0.28581593
v -0.16995131 -0.29908001 0.28548405
v -0.16961458 -0.29908001 0.28522577
v -0.1690185 -0.29908001 0.28496004
v -0.16839787 -0.29908001 0.28482883
v -0.16712603 -0.29908001 0.28489355
v -0.16588524 -0.29908001 0.28526711
v -0.16476166 -0.29908001 0.2857967
v -0.16473097 -0.29908001 0.28576958
v -0.16473026 -0.29908001 0.28575102
v -0.16461372 -0.29908001 0.28543554
v -0.16441557 -0.29908001 0.2851638
v -0.16415085 -0.29908001 0.28495636
v -0.16383961 -0.29908001 0.28482897
v -0.16306261 -0.29908001 0.28481728
v -0.16233164 -0.29908001 0.28499239
v -0.16165098 -0.29908001 0.28531631
v -0.16102491 -0.29908001 0.28575102
v -0.16071398 -0.29908001 0.28534824
v -0.16029734 -0.29908001 0.28505306
v -0.15981056 -0.29908001 0.28486063
v -0.15928927 -0.29908001 0.28476616
v -0.15928927 -0.29908001 0.28478045
v -0.15859007 -0.29908001 0.28484249
v -0.15794544 -0.29908001 0.28505413
v -0.15680287 -0.29908001 0.2857967
v -0.15661659 -0.29908001 0.28549738
v -0.1563798 -0.29908001 0.28523621
v -0.15610014 -0.29908001 0.28502155
v -0.15578661 -0.29908001 0.28486036
v -0.1551782 -0.29908001 0.28476149
v -0.15456552 -0.29908001 0.28482891
v -0.15399318 -0.29908001 0.28505774
v -0.15350288 -0.29908001 0.28543131
v -0.15341729 -0.29908001 0.28527056
v -0.15330911 -0.29908001 0.28512407
v -0.15318067 -0.29908001 0.28499498
v -0.15303473 -0.29908001 0.28488605
v -0.15233515 -0.29908001 0.28472477
v -0.15164521 -0.29908001 0.28483324
v -0.15099703 -0.29908001 0.28511087
v -0.15042271 -0.29908001 0.285457
v -0.15044164 -0.29908001 0.28561176
v -0.15047333 -0.29908001 0.28576445
v -0.16753639 -0.299 0.28860569
v -0.167085 -0.299 0.28869417
v -0.1668704 -0.299 0.28863939
v -0.16672565 -0.299 0.28846581
v -0.16672565 -0.29908001 0.28846581
v -0.1668704 -0.29908001 0.28863939
v -0.167085 -0.29908001 0.28869417
v -0.16753639 -0.29908001 0.28860569
v -0.1680241 -0.299 0.28715811
v -0.16831856 -0.299 0.28718407
v -0.16831856 -0.29908001 0.28718407
v -0.1680241 -0.29908001 0.28715811
v -0.16672565 -0.299 0.28846581
v -0.16671951 -0.299 0.28815893
v -0.16671951 -0.29908001 0.28815893
v -0.16672565 -0.29908001 0.28846581
v -0.15319744 -0.299 0.28820032
v -0.15331281 -0.299 0.2883334
v -0.15346215 -0.299 0.28842678
v -0.15363232 -0.299 0.28847225
v -0.15380834 -0.299 0.28846581
v -0.15404093 -0.299 0.28834524
v -0.15424757 -0.299 0.2881842
v -0.15442129 -0.299 0.28798811
v -0.15455626 -0.299 0.28776356
v -0.15485849 -0.299 0.28686363
v -0.15492276 -0.299 0.28639465
v -0.15484172 -0.299 0.2859166
v -0.15474139 -0.299 0.28580719
v -0.15461562 -0.299 0.28572838
v -0.15447342 -0.299 0.28568579
v -0.15432503 -0.299 0.28568251
v -0.15405984 -0.299 0.28579611
v -0.15382829 -0.299 0.28596821
v -0.15364306 -0.299 0.28618938
v -0.1535143 -0.299 0.28644756
v -0.15322099 -0.299 0.28730146
v -0.15313535 -0.299 0.2877422
v -0.16831856 -0.299 0.28718407
v -0.1680241 -0.299 0.28715811
v -0.16772964 -0.299 0.28718403
v -0.16744425 -0.299 0.28726103
v -0.1671767 -0.299 0.28738674
v -0.16695398 -0.299 0.28759796
v -0.16679762 -0.299 0.28786209
v -0.16671951 -0.299 0.28815893
v -0.16672565 -0.299 0.28846581
v -0.1668704 -0.299 0.28863939
v -0.167085 -0.299 0.28869417
v -0.16753639 -0.299 0.28860569
v -0.167826 -0.299 0.28831169
v -0.16803345 -0.299 0.28796017
v -0.15057401 -0.299 0.28605932
v -0.15051755 -0.299 0.28591398
v -0.15047333 -0.299 0.28576445
v -0.15044164 -0.299 0.28561176
v -0.15042271 -0.299 0.285457
v -0.15099703 -0.299 0.28511087
v -0.15164521 -0.299 0.28483324
v -0.15233515 -0.299 0.28472477
v -0.15303473 -0.299 0.28488605
v -0.15318067 -0.299 0.28499498
v -0.15330911 -0.299 0.28512407
v -0.15341729 -0.299 0.28527056
v -0.15350288 -0.299 0.28543131
v -0.15399318 -0.299 0.28505774
v -0.15456552 -0.299 0.28482891
v -0.1551782 -0.299 0.28476149
v -0.15578661 -0.299 0.28486036
v -0.15610014 -0.299 0.28502155
v -0.1563798 -0.299 0.28523621
v -0.15661659 -0.299 0.28549738
v -0.15680287 -0.299 0.2857967
v -0.15794544 -0.299 0.28505413
v -0.15859007 -0.299 0.28484249
v -0.15928927 -0.299 0.28478045
v -0.15928927 -0.299 0.28476616
v -0.15981056 -0.299 0.28486063
v -0.16029734 -0.299 0.28505306
v -0.16071398 -0.299 0.28534824
v -0.16102491 -0.299 0.28575102
v -0.16165098 -0.299 0.28531631
v -0.16233164 -0.299 0.28499239
v -0.16306261 -0.299 0.28481728
v -0.16383961 -0.299 0.28482897
v -0.16415085 -0.299 0.28495636
v -0.16441557 -0.299 0.2851638
v -0.16461372 -0.299 0.28543554
v -0.16473026 -0.299 0.28575102
v -0.16473097 -0.299 0.28576958
v -0.16476166 -0.299 0.2857967
v -0.16588524 -0.299 0.28526711
v -0.16712603 -0.299 0.28489355
v -0.16839787 -0.299 0.28482883
v -0.1690185 -0.299 0.28496004
v -0.16961458 -0.299 0.28522577
v -0.16995131 -0.299 0.28548405
v -0.17021584 -0.299 0.28581593
v -0.17039253 -0.299 0.28620176
v -0.17047098 -0.299 0.28661884
v -0.17031878 -0.299 0.28736809
v -0.16996059 -0.299 0.28804356
v -0.16942581 -0.299 0.28858994
v -0.16875818 -0.299 0.28896252
v -0.16796946 -0.299 0.28918112
v -0.16710283 -0.299 0.28926189
v -0.16626245 -0.299 0.28913874
v -0.16555241 -0.299 0.28874556
v -0.16539825 -0.299 0.28849436
v -0.16534275 -0.299 0.2882169
v -0.16535383 -0.299 0.28793417
v -0.16543085 -0.299 0.28766191
v -0.16556953 -0.299 0.28741529
v -0.16614885 -0.299 0.28695217
v -0.16685341 -0.299 0.28668629
v -0.1676297 -0.299 0.2865815
v -0.16842419 -0.299 0.28660172
v -0.16844315 -0.299 0.28644466
v -0.16842464 -0.299 0.28628756
v -0.16836971 -0.299 0.28613922
v -0.16828146 -0.299 0.28600794
v -0.16786383 -0.299 0.285795
v -0.16738758 -0.299 0.28573246
v -0.16642307 -0.299 0.28586807
v -0.16596582 -0.299 0.28600193
v -0.16552193 -0.299 0.28617498
v -0.16509472 -0.299 0.2863859
v -0.16468744 -0.299 0.28663311
v -0.16396807 -0.299 0.28910238
v -0.16199835 -0.299 0.28911951
v -0.1627634 -0.299 0.28633623
v -0.16276291 -0.299 0.28625072
v -0.16274965 -0.299 0.28616627
v -0.16272392 -0.299 0.28608473
v -0.16268633 -0.299 0.28600794
v -0.16245768 -0.299 0.28589071
v -0.16221031 -0.299 0.2859009
v -0.16174713 -0.299 0.28608501
v -0.16161707 -0.299 0.28615847
v -0.16149244 -0.299 0.28624079
v -0.16137384 -0.299 0.2863316
v -0.16126184 -0.299 0.28643044
v -0.16118013 -0.299 0.28717024
v -0.16086933 -0.299 0.28782707
v -0.16039795 -0.299 0.2883758
v -0.15983452 -0.299 0.28879124
v -0.15917714 -0.299 0.28907009
v -0.15843359 -0.299 0.28920231
v -0.15768683 -0.299 0.28915253
v -0.15701982 -0.299 0.28888544
v -0.15706606 -0.299 0.28867977
v -0.15711813 -0.299 0.28847551
v -0.15717601 -0.299 0.28827282
v -0.15723963 -0.299 0.28807186
v -0.15772279 -0.299 0.28839443
v -0.15799835 -0.299 0.28845644
v -0.1582873 -0.299 0.28840015
v -0.15866652 -0.299 0.2881348
v -0.15891889 -0.299 0.28776533
v -0.15917794 -0.299 0.28688433
v -0.1591915 -0.299 0.28628662
v -0.15909685 -0.299 0.28601843
v -0.15889248 -0.299 0.28581953
v -0.15835384 -0.299 0.28574099
v -0.15784839 -0.299 0.28588055
v -0.15697129 -0.299 0.28649609
v -0.15682673 -0.299 0.28729284
v -0.15645282 -0.299 0.28798443
v -0.15590066 -0.299 0.28855345
v -0.15522139 -0.299 0.28898249
v -0.15414518 -0.299 0.28922586
v -0.15359316 -0.299 0.28917599
v -0.15309467 -0.299 0.28895109
v -0.15301571 -0.299 0.28887981
v -0.1529416 -0.299 0.28880348
v -0.15287267 -0.299 0.28872246
v -0.1528092 -0.299 0.28863708
v -0.15266932 -0.299 0.28907669
v -0.15090229 -0.299 0.28905956
v -0.15169874 -0.299 0.2862306
v -0.15169867 -0.299 0.2861467
v -0.15168243 -0.299 0.28606436
v -0.15165067 -0.299 0.28598669
v -0.15160454 -0.299 0.2859166
v -0.15134517 -0.299 0.28581203
v -0.15107322 -0.299 0.28583595
v -0.16671951 -0.299 0.28815893
v -0.16679762 -0.299 0.28786209
v -0.16679762 -0.29908001 0.28786209
v -0.16671951 -0.29908001 0.28815893
v -0.16679762 -0.299 0.28786209
v -0.16695398 -0.299 0.28759796
v -0.16695398 -0.29908001 0.28759796
v -0.16679762 -0.29908001 0.28786209
v -0.16695398 -0.299 0.28759796
v -0.1671767 -0.299 0.28738674
v -0.1671767 -0.29908001 0.28738674
v -0.16695398 -0.29908001 0.28759796
v -0.1671767 -0.299 0.28738674
v -0.16744425 -0.299 0.28726103
v -0.16744425 -0.29908001 0.28726103
v -0.1671767 -0.29908001 0.28738674
v -0.16744425 -0.299 0.28726103
v -0.16772964 -0.299 0.28718403
v -0.16772964 -0.29908001 0.28718403
v -0.16744425 -0.29908001 0.28726103
v -0.16772964 -0.299 0.28718403
v -0.1680241 -0.299 0.28715811
v -0.1680241 -0.29908001 0.28715811
v -0.16772964 -0.29908001 0.28718403
v -0.16836971 -0.299 0.28613922
v -0.16842464 -0.299 0.28628756
v -0.16842464 -0.29908001 0.28628756
v -0.16836971 -0.29908001 0.28613922
v -0.16842464 -0.299 0.28628756
v -0.16844315 -0.299 0.28644466
v -0.16844315 -0.29908001 0.28644466
v -0.16842464 -0.29908001 0.28628756
v -0.16828146 -0.299 0.28600794
v -0.16836971 -0.299 0.28613922
v -0.16836971 -0.29908001 0.28613922
v -0.16828146 -0.29908001 0.28600794
v -0.16844315 -0.299 0.28644466
v -0.16842419 -0.299 0.28660172
v -0.16842419 -0.29908001 0.28660172
v -0.16844315 -0.29908001 0.28644466
v -0.16642307 -0.299 0.28586807
v -0.16738758 -0.299 0.28573246
v -0.16786383 -0.299 0.285795
v -0.16828146 -0.299 0.28600794
v -0.16828146 -0.29908001 0.28600794
v -0.16786383 -0.29908001 0.285795
v -0.16738758 -0.29908001 0.28573246
v -0.16642307 -0.29908001 0.28586807
v -0.16842419 -0.299 0.28660172
v -0.1676297 -0.299 0.2865815
v -0.16685341 -0.299 0.28668629
v -0.16614885 -0.299 0.28695217
v -0.16556953 -0.299 0.28741529
v -0.16556953 -0.29908001 0.28741529
v -0.16614885 -0.29908001 0.28695217
v -0.16685341 -0.29908001 0.28668629
v -0.1676297 -0.29908001 0.2865815
v -0.16842419 -0.29908001 0.28660172
v -0.16596582 -0.299 0.28600193
v -0.16642307 -0.299 0.28586807
v -0.16642307 -0.29908001 0.28586807
v -0.16596582 -0.29908001 0.28600193
v -0.16556953 -0.299 0.28741529
v -0.16543085 -0.299 0.28766191
v -0.16543085 -0.29908001 0.28766191
v -0.16556953 -0.29908001 0.28741529
v -0.16552193 -0.299 0.28617498
v -0.16596582 -0.299 0.28600193
v -0.16596582 -0.29908001 0.28600193
v -0.16552193 -0.29908001 0.28617498
v -0.16543085 -0.299 0.28766191
v -0.16535383 -0.299 0.28793417
v -0.16535383 -0.29908001 0.28793417
v -0.16543085 -0.29908001 0.28766191
v -0.16509472 -0.299 0.2863859
v -0.16552193 -0.299 0.28617498
v -0.16552193 -0.29908001 0.28617498
v -0.16509472 -0.29908001 0.2863859
v -0.16535383 -0.299 0.28793417
v -0.16534275 -0.299 0.2882169
v -0.16534275 -0.29908001 0.2882169
v -0.16535383 -0.29908001 0.28793417
v -0.16468744 -0.299 0.28663311
v -0.16509472 -0.299 0.2863859
v -0.16509472 -0.29908001 0.2863859
v -0.16468744 -0.29908001 0.28663311
v -0.16534275 -0.299 0.2882169
v -0.16539825 -0.299 0.28849436
v -0.16539825 -0.29908001 0.28849436
v -0.16534275 -0.29908001 0.2882169
v -0.16396807 -0.299 0.28910238
v -0.16468744 -0.299 0.28663311
v -0.16468744 -0.29908001 0.28663311
v -0.16396807 -0.29908001 0.28910238
v -0.16539825 -0.299 0.28849436
v -0.16555241 -0.299 0.28874556
v -0.16555241 -0.29908001 0.28874556
v -0.16539825 -0.29908001 0.28849436
v -0.16199835 -0.299 0.28911951
v -0.16396807 -0.299 0.28910238
v -0.16396807 -0.29908001 0.28910238
v -0.16199835 -0.29908001 0.28911951
v -0.16555241 -0.299 0.28874556
v -0.16626245 -0.299 0.28913874
v -0.16710283 -0.299 0.28926189
v -0.16796946 -0.299 0.28918112
v -0.16875818 -0.299 0.28896252
v -0.16875818 -0.29908001 0.28896252
v -0.16796946 -0.29908001 0.28918112
v -0.16710283 -0.29908001 0.28926189
v -0.16626245 -0.29908001 0.28913874
v -0.16555241 -0.29908001 0.28874556
v -0.1627634 -0.299 0.28633623
v -0.16199835 -0.299 0.28911951
v -0.16199835 -0.29908001 0.28911951
v -0.1627634 -0.29908001 0.28633623
v -0.16875818 -0.299 0.28896252
v -0.16942581 -0.299 0.28858994
v -0.16942581 -0.29908001 0.28858994
v -0.16875818 -0.29908001 0.28896252
v -0.16276291 -0.299 0.28625072
v -0.1627634 -0.299 0.28633623
v -0.1627634 -0.29908001 0.28633623
v -0.16276291 -0.29908001 0.28625072
v -0.16942581 -0.299 0.28858994
v -0.16996059 -0.299 0.28804356
v -0.16996059 -0.29908001 0.28804356
v -0.16942581 -0.29908001 0.28858994
v -0.16274965 -0.299 0.28616627
v -0.16276291 -0.299 0.28625072
v -0.16276291 -0.29908001 0.28625072
v -0.16274965 -0.29908001 0.28616627
v -0.16996059 -0.299 0.28804356
v -0.17031878 -0.299 0.28736809
v -0.17031878 -0.29908001 0.28736809
v -0.16996059 -0.29908001 0.28804356
v -0.16272392 -0.299 0.28608473
v -0.16274965 -0.299 0.28616627
v -0.16274965 -0.29908001 0.28616627
v -0.16272392 -0.29908001 0.28608473
v -0.17031878 -0.299 0.28736809
v -0.17047098 -0.299 0.28661884
v -0.17047098 -0.29908001 0.28661884
v -0.17031878 -0.29908001 0.28736809
v -0.16268633 -0.299 0.28600794
v -0.16272392 -0.299 0.28608473
v -0.16272392 -0.29908001 0.28608473
v -0.16268633 -0.29908001 0.28600794
v -0.17047098 -0.299 0.28661884
v -0.17039253 -0.299 0.28620176
v -0.17039253 -0.29908001 0.28620176
v -0.17047098 -0.29908001 0.28661884
v -0.16174713 -0.299 0.28608501
v -0.16221031 -0.299 0.2859009
v -0.16245768 -0.299 0.28589071
v -0.16268633 -0.299 0.28600794
v -0.16268633 -0.29908001 0.28600794
v -0.16245768 -0.29908001 0.28589071
v -0.16221031 -0.29908001 0.2859009
v -0.16174713 -0.29908001 0.28608501
v -0.17039253 -0.299 0.28620176
v -0.17021584 -0.299 0.28581593
v -0.17021584 -0.29908001 0.28581593
v -0.17039253 -0.29908001 0.28620176
v -0.16161707 -0.299 0.28615847
v -0.16174713 -0.299 0.28608501
v -0.16174713 -0.29908001 0.28608501
v -0.16161707 -0.29908001 0.28615847
v -0.17021584 -0.299 0.28581593
v -0.16995131 -0.299 0.28548405
v -0.16995131 -0.29908001 0.28548405
v -0.17021584 -0.29908001 0.28581593
v -0.16149244 -0.299 0.28624079
v -0.16161707 -0.299 0.28615847
v -0.16161707 -0.29908001 0.28615847
v -0.16149244 -0.29908001 0.28624079
v -0.16995131 -0.299 0.28548405
v -0.16961458 -0.299 0.28522577
v -0.16961458 -0.29908001 0.28522577
v -0.16995131 -0.29908001 0.28548405
v -0.16137384 -0.299 0.2863316
v -0.16149244 -0.299 0.28624079
v -0.16149244 -0.29908001 0.28624079
v -0.16137384 -0.29908001 0.2863316
v -0.16961458 -0.299 0.28522577
v -0.1690185 -0.299 0.28496004
v -0.16839787 -0.299 0.28482883
v -0.16712603 -0.299 0.28489355
v -0.16588524 -0.299 0.28526711
v -0.16476166 -0.299 0.2857967
v -0.16476166 -0.29908001 0.2857967
v -0.16588524 -0.29908001 0.28526711
v -0.16712603 -0.29908001 0.28489355
v -0.16839787 -0.29908001 0.28482883
v -0.1690185 -0.29908001 0.28496004
v -0.16961458 -0.29908001 0.28522577
v -0.16126184 -0.299 0.28643044
v -0.16137384 -0.299 0.2863316
v -0.16137384 -0.29908001 0.2863316
v -0.16126184 -0.29908001 0.28643044
v -0.16476166 -0.299 0.2857967
v -0.16473097 -0.299 0.28576958
v -0.16473026 -0.299 0.28575102
v -0.16473026 -0.29908001 0.28575102
v -0.16473097 -0.29908001 0.28576958
v -0.16476166 -0.29908001 0.2857967
v -0.15983452 -0.299 0.28879124
v -0.16039795 -0.299 0.2883758
v -0.16086933 -0.299 0.28782707
v -0.16118013 -0.299 0.28717024
v -0.16126184 -0.299 0.28643044
v -0.16126184 -0.29908001 0.28643044
v -0.16118013 -0.29908001 0.28717024
v -0.16086933 -0.29908001 0.28782707
v -0.16039795 -0.29908001 0.2883758
v -0.15983452 -0.29908001 0.28879124
v -0.16473026 -0.299 0.28575102
v -0.16461372 -0.299 0.28543554
v -0.16461372 -0.29908001 0.28543554
v -0.16473026 -0.29908001 0.28575102
v -0.15701982 -0.299 0.28888544
v -0.15768683 -0.299 0.28915253
v -0.15843359 -0.299 0.28920231
v -0.15917714 -0.299 0.28907009
v -0.15983452 -0.299 0.28879124
v -0.15983452 -0.29908001 0.28879124
v -0.15917714 -0.29908001 0.28907009
v -0.15843359 -0.29908001 0.28920231
v -0.15768683 -0.29908001 0.28915253
v -0.15701982 -0.29908001 0.28888544
v -0.16461372 -0.299 0.28543554
v -0.16441557 -0.299 0.2851638
v -0.16441557 -0.29908001 0.2851638
v -0.16461372 -0.29908001 0.28543554
v -0.15706606 -0.299 0.28867977
v -0.15701982 -0.299 0.28888544
v -0.15701982 -0.29908001 0.28888544
v -0.15706606 -0.29908001 0.28867977
v -0.16441557 -0.299 0.2851638
v -0.16415085 -0.299 0.28495636
v -0.16415085 -0.29908001 0.28495636
v -0.16441557 -0.29908001 0.2851638
v -0.15711813 -0.299 0.28847551
v -0.15706606 -0.299 0.28867977
v -0.15706606 -0.29908001 0.28867977
v -0.15711813 -0.29908001 0.28847551
v -0.16415085 -0.299 0.28495636
v -0.16383961 -0.299 0.28482897
v -0.16383961 -0.29908001 0.28482897
v -0.16415085 -0.29908001 0.28495636
v -0.15717601 -0.299 0.28827282
v -0.15711813 -0.299 0.28847551
v -0.15711813 -0.29908001 0.28847551
v -0.15717601 -0.29908001 0.28827282
v -0.16383961 -0.299 0.28482897
v -0.16306261 -0.299 0.28481728
v -0.16233164 -0.299 0.28499239
v -0.16165098 -0.299 0.28531631
v -0.16102491 -0.299 0.28575102
v -0.16102491 -0.29908001 0.28575102
v -0.16165098 -0.29908001 0.28531631
v -0.16233164 -0.29908001 0.28499239
v -0.16306261 -0.29908001 0.28481728
v -0.16383961 -0.29908001 0.28482897
v -0.15723963 -0.299 0.28807186
v -0.15717601 -0.299 0.28827282
v -0.15717601 -0.29908001 0.28827282
v -0.15723963 -0.29908001 0.28807186
v -0.16102491 -0.299 0.28575102
v -0.16071398 -0.299 0.28534824
v -0.16029734 -0.299 0.28505306
v -0.15981056 -0.299 0.28486063
v -0.15928927 -0.299 0.28476616
v -0.15928927 -0.29908001 0.28476616
v -0.15981056 -0.29908001 0.28486063
v -0.16029734 -0.29908001 0.28505306
v -0.16071398 -0.29908001 0.28534824
v -0.16102491 -0.29908001 0.28575102
v -0.1582873 -0.299 0.28840015
v -0.15799835 -0.299 0.28845644
v -0.15772279 -0.299 0.28839443
v -0.15723963 -0.299 0.28807186
v -0.15723963 -0.29908001 0.28807186
v -0.15772279 -0.29908001 0.28839443
v -0.15799835 -0.29908001 0.28845644
v -0.1582873 -0.29908001 0.28840015
v -0.15928927 -0.299 0.28476616
v -0.15928927 -0.299 0.28478045
v -0.15928927 -0.29908001 0.28478045
v -0.15928927 -0.29908001 0.28476616
v -0.15917794 -0.299 0.28688433
v -0.15891889 -0.299 0.28776533
v -0.15866652 -0.299 0.2881348
v -0.1582873 -0.299 0.28840015
v -0.1582873 -0.29908001 0.28840015
v -0.15866652 -0.29908001 0.2881348
v -0.15891889 -0.29908001 0.28776533
v -0.15917794 -0.29908001 0.28688433
v -0.15928927 -0.299 0.28478045
v -0.15859007 -0.299 0.28484249
v -0.15794544 -0.299 0.28505413
v -0.15680287 -0.299 0.2857967
v -0.15680287 -0.29908001 0.2857967
v -0.15794544 -0.29908001 0.28505413
v -0.15859007 -0.29908001 0.28484249
v -0.15928927 -0.29908001 0.28478045
v -0.15889248 -0.299 0.28581953
v -0.15909685 -0.299 0.28601843
v -0.1591915 -0.299 0.28628662
v -0.15917794 -0.299 0.28688433
v -0.15917794 -0.29908001 0.28688433
v -0.1591915 -0.29908001 0.28628662
v -0.15909685 -0.29908001 0.28601843
v -0.15889248 -0.29908001 0.28581953
v -0.15680287 -0.299 0.2857967
v -0.15661659 -0.299 0.28549738
v -0.15661659 -0.29908001 0.28549738
v -0.15680287 -0.29908001 0.2857967
v -0.15697129 -0.299 0.28649609
v -0.15784839 -0.299 0.28588055
v -0.15835384 -0.299 0.28574099
v -0.15889248 -0.299 0.28581953
v -0.15889248 -0.29908001 0.28581953
v -0.15835384 -0.29908001 0.28574099
v -0.15784839 -0.29908001 0.28588055
v -0.15697129 -0.29908001 0.28649609
v -0.15661659 -0.299 0.28549738
v -0.1563798 -0.299 0.28523621
v -0.1563798 -0.29908001 0.28523621
v -0.15661659 -0.29908001 0.28549738
v -0.15522139 -0.299 0.28898249
v -0.15590066 -0.299 0.28855345
v -0.15645282 -0.299 0.28798443
v -0.15682673 -0.299 0.28729284
v -0.15697129 -0.299 0.28649609
v -0.15697129 -0.29908001 0.28649609
v -0.15682673 -0.29908001 0.28729284
v -0.15645282 -0.29908001 0.28798443
v -0.15590066 -0.29908001 0.28855345
v -0.15522139 -0.29908001 0.28898249
v -0.1563798 -0.299 0.28523621
v -0.15610014 -0.299 0.28502155
v -0.15610014 -0.29908001 0.28502155
v -0.1563798 -0.29908001 0.28523621
v -0.15309467 -0.299 0.28895109
v -0.15359316 -0.299 0.28917599
v -0.15414518 -0.299 0.28922586
v -0.15522139 -0.299 0.28898249
v -0.15522139 -0.29908001 0.28898249
v -0.15414518 -0.29908001 0.28922586
v -0.15359316 -0.29908001 0.28917599
v -0.15309467 -0.29908001 0.28895109
v -0.15610014 -0.299 0.28502155
v -0.15578661 -0.299 0.28486036
v -0.15578661 -0.29908001 0.28486036
v -0.15610014 -0.29908001 0.28502155
v -0.15301571 -0.299 0.28887981
v -0.15309467 -0.299 0.28895109
v -0.15309467 -0.29908001 0.28895109
v -0.15301571 -0.29908001 0.28887981
v -0.15578661 -0.299 0.28486036
v -0.1551782 -0.299 0.28476149
v -0.1551782 -0.29908001 0.28476149
v -0.15578661 -0.29908001 0.28486036
v -0.1529416 -0.299 0.28880348
v -0.15301571 -0.299 0.28887981
v -0.15301571 -0.29908001 0.28887981
v -0.1529416 -0.29908001 0.28880348
v -0.1551782 -0.299 0.28476149
v -0.15456552 -0.299 0.28482891
v -0.15456552 -0.29908001 0.28482891
v -0.1551782 -0.29908001 0.28476149
v -0.15287267 -0.299 0.28872246
v -0.1529416 -0.299 0.28880348
v -0.1529416 -0.29908001 0.28880348
v -0.15287267 -0.29908001 0.28872246
v -0.15456552 -0.299 0.28482891
v -0.15399318 -0.299 0.28505774
v -0.15399318 -0.29908001 0.28505774
v -0.15456552 -0.29908001 0.28482891
v -0.1528092 -0.299 0.28863708
v -0.15287267 -0.299 0.28872246
v -0.15287267 -0.29908001 0.28872246
v -0.1528092 -0.29908001 0.28863708
v -0.15399318 -0.299 0.28505774
v -0.15350288 -0.299 0.28543131
v -0.15350288 -0.29908001 0.28543131
v -0.15399318 -0.29908001 0.28505774
v -0.15266932 -0.299 0.28907669
v -0.1528092 -0.299 0.28863708
v -0.1528092 -0.29908001 0.28863708
v -0.15266932 -0.29908001 0.28907669
v -0.15350288 -0.299 0.28543131
v -0.15341729 -0.299 0.28527056
v -0.15341729 -0.29908001 0.28527056
v -0.15350288 -0.29908001 0.28543131
v -0.15447342 -0.299 0.28568579
v -0.15461562 -0.299 0.28572838
v -0.15461562 -0.29908001 0.28572838
v -0.15447342 -0.29908001 0.28568579
v -0.15432503 -0.299 0.28568251
v -0.15447342 -0.299 0.28568579
v -0.15447342 -0.29908001 0.28568579
v -0.15432503 -0.29908001 0.28568251
v -0.15090229 -0.299 0.28905956
v -0.15266932 -0.299 0.28907669
v -0.15266932 -0.29908001 0.28907669
v -0.15090229 -0.29908001 0.28905956
v -0.15341729 -0.299 0.28527056
v -0.15330911 -0.299 0.28512407
v -0.15330911 -0.29908001 0.28512407
v -0.15341729 -0.29908001 0.28527056
v -0.15461562 -0.299 0.28572838
v -0.15474139 -0.299 0.28580719
v -0.15474139 -0.29908001 0.28580719
v -0.15461562 -0.29908001 0.28572838
v -0.15405984 -0.299 0.28579611
v -0.15432503 -0.299 0.28568251
v -0.15432503 -0.29908001 0.28568251
v -0.15405984 -0.29908001 0.28579611
v -0.15169874 -0.299 0.2862306
v -0.15090229 -0.299 0.28905956
v -0.15090229 -0.29908001 0.28905956
v -0.15169874 -0.29908001 0.2862306
v -0.15330911 -0.299 0.28512407
v -0.15318067 -0.299 0.28499498
v -0.15318067 -0.29908001 0.28499498
v -0.15330911 -0.29908001 0.28512407
v -0.15474139 -0.299 0.28580719
v -0.15484172 -0.299 0.2859166
v -0.15484172 -0.29908001 0.2859166
v -0.15474139 -0.29908001 0.28580719
v -0.15382829 -0.299 0.28596821
v -0.15405984 -0.299 0.28579611
v -0.15405984 -0.29908001 0.28579611
v -0.15382829 -0.29908001 0.28596821
v -0.15169867 -0.299 0.2861467
v -0.15169874 -0.299 0.2862306
v -0.15169874 -0.29908001 0.2862306
v -0.15169867 -0.29908001 0.2861467
v -0.15318067 -0.299 0.28499498
v -0.15303473 -0.299 0.28488605
v -0.15303473 -0.29908001 0.28488605
v -0.15318067 -0.29908001 0.28499498
v -0.15484172 -0.299 0.2859166
v -0.15492276 -0.299 0.28639465
v -0.15485849 -0.299 0.28686363
v -0.15455626 -0.299 0.28776356
v -0.15455626 -0.29908001 0.28776356
v -0.15485849 -0.29908001 0.28686363
v -0.15492276 -0.29908001 0.28639465
v -0.15484172 -0.29908001 0.2859166
v -0.15364306 -0.299 0.28618938
v -0.15382829 -0.299 0.28596821
v -0.15382829 -0.29908001 0.28596821
v -0.15364306 -0.29908001 0.28618938
v -0.15168243 -0.299 0.28606436
v -0.15169867 -0.299 0.2861467
v -0.15169867 -0.29908001 0.2861467
v -0.15168243 -0.29908001 0.28606436
f 1 2 10
f 10 2 9
f 9 2 3
f 9 3 8
f 8 3 4
f 8 4 7
f 7 4 5
f 7 5 6
f 11 12 14
f 14 12 13
f 15 16 18
f 18 16 17
f 19 20 22
f 22 20 21
f 23 24 26
f 26 24 25
f 27 28 30
f 30 28 29
f 31 32 38
f 38 32 37
f 37 32 33
f 37 33 36
f 36 33 34
f 36 34 35
f 39 40 42
f 42 40 41
f 43 44 46
f 46 44 45
f 47 48 50
f 50 48 49
f 51 52 54
f 54 52 53
f 55 56 62
f 62 56 61
f 61 56 57
f 61 57 60
f 60 57 58
f 60 58 59
f 63 64 66
f 66 64 65
f 67 68 70
f 70 68 69
f 71 72 74
f 74 72 73
f 75 76 78
f 78 76 77
f 79 80 82
f 82 80 81
f 83 84 90
f 90 84 89
f 89 84 85
f 89 85 88
f 88 85 86
f 88 86 87
f 91 92 94
f 94 92 93
f 116 95 142
f 142 95 96
f 142 96 140
f 140 96 97
f 140 97 139
f 139 97 98
f 139 98 99
f 99 100 139
f 139 100 138
f 138 100 137
f 137 100 101
f 137 101 136
f 136 101 135
f 135 101 102
f 135 102 134
f 134 102 254
f 134 254 262
f 262 254 255
f 262 255 261
f 261 255 256
f 261 256 257
f 102 103 254
f 254 103 104
f 254 104 248
f 248 104 247
f 247 104 105
f 247 105 246
f 246 105 106
f 246 106 107
f 107 108 246
f 246 108 153
f 246 153 154
f 108 109 153
f 153 109 152
f 152 109 110
f 152 110 151
f 151 110 111
f 151 111 112
f 151 112 150
f 150 112 113
f 150 113 114
f 115 143 114
f 114 143 144
f 114 144 149
f 149 144 145
f 149 145 146
f 143 115 142
f 142 115 116
f 118 202 117
f 117 202 203
f 117 203 204
f 119 218 118
f 118 218 219
f 118 219 202
f 202 219 201
f 201 219 220
f 201 220 200
f 200 220 199
f 199 220 198
f 198 220 221
f 198 221 197
f 197 221 222
f 197 222 196
f 196 222 223
f 196 223 227
f 227 223 224
f 227 224 226
f 226 224 225
f 218 119 217
f 217 119 120
f 217 120 216
f 216 120 121
f 216 121 215
f 215 121 122
f 215 122 214
f 214 122 213
f 213 122 212
f 212 122 211
f 211 122 123
f 211 123 210
f 210 123 124
f 210 124 209
f 209 124 125
f 209 125 208
f 208 125 126
f 208 126 207
f 207 126 127
f 207 127 206
f 206 127 128
f 206 128 205
f 205 128 129
f 205 129 130
f 205 130 204
f 204 130 117
f 132 133 131
f 131 133 264
f 264 133 134
f 264 134 263
f 263 134 262
f 140 141 142
f 146 147 149
f 149 147 148
f 149 150 114
f 154 155 246
f 246 155 245
f 245 155 239
f 245 239 240
f 155 156 239
f 239 156 238
f 238 156 157
f 238 157 180
f 180 157 179
f 179 157 158
f 179 158 178
f 178 158 177
f 177 158 159
f 177 159 176
f 176 159 160
f 176 160 175
f 175 160 161
f 175 161 174
f 174 161 162
f 174 162 173
f 173 162 163
f 173 163 168
f 168 163 167
f 167 163 164
f 167 164 166
f 166 164 165
f 168 169 173
f 173 169 172
f 172 169 170
f 172 170 171
f 180 181 238
f 238 181 182
f 238 182 183
f 184 229 183
f 183 229 230
f 183 230 231
f 229 184 228
f 228 184 185
f 228 185 193
f 193 185 186
f 193 186 192
f 192 186 187
f 192 187 188
f 192 188 191
f 191 188 189
f 191 189 190
f 193 194 228
f 228 194 195
f 228 195 227
f 227 195 196
f 183 231 237
f 237 231 232
f 237 232 236
f 236 232 233
f 236 233 235
f 235 233 234
f 237 238 183
f 240 241 245
f 245 241 244
f 244 241 243
f 243 241 242
f 254 248 253
f 253 248 249
f 253 249 250
f 251 252 250
f 250 252 253
f 261 257 260
f 260 257 258
f 260 258 259
f 265 266 272
f 272 266 271
f 271 266 267
f 271 267 270
f 270 267 268
f 270 268 269
f 273 274 276
f 276 274 275
f 277 278 280
f 280 278 279
f 282 441 281
f 281 441 443
f 281 443 302
f 302 443 444
f 302 444 301
f 301 444 300
f 300 444 299
f 299 444 445
f 299 445 446
f 282 283 441
f 441 283 284
f 441 284 440
f 440 284 285
f 440 285 439
f 439 285 434
f 439 434 438
f 438 434 437
f 437 434 436
f 436 434 435
f 434 285 433
f 433 285 286
f 433 286 287
f 433 287 432
f 432 287 288
f 432 288 289
f 432 289 431
f 431 289 290
f 431 290 430
f 430 290 291
f 430 291 337
f 337 291 292
f 337 292 293
f 293 294 337
f 337 294 336
f 336 294 295
f 336 295 335
f 335 295 329
f 335 329 330
f 295 296 329
f 329 296 297
f 329 297 449
f 449 297 448
f 448 297 298
f 448 298 447
f 447 298 446
f 446 298 299
f 304 381 303
f 303 381 364
f 303 364 365
f 305 379 304
f 304 379 380
f 304 380 381
f 379 305 378
f 378 305 306
f 378 306 307
f 378 307 377
f 377 307 308
f 377 308 376
f 376 308 309
f 376 309 375
f 375 309 310
f 375 310 374
f 374 310 311
f 374 311 373
f 373 311 312
f 373 312 372
f 372 312 313
f 372 313 371
f 371 313 370
f 370 313 369
f 369 313 368
f 368 313 314
f 368 314 367
f 367 314 315
f 367 315 366
f 366 315 316
f 366 316 365
f 365 316 303
f 317 318 450
f 450 318 319
f 450 319 449
f 449 319 320
f 449 320 321
f 322 328 321
f 321 328 329
f 321 329 449
f 323 326 322
f 322 326 327
f 322 327 328
f 324 325 323
f 323 325 326
f 331 333 330
f 330 333 334
f 330 334 335
f 331 332 333
f 338 428 337
f 337 428 429
f 337 429 430
f 339 342 338
f 338 342 343
f 338 343 344
f 339 340 342
f 342 340 341
f 345 427 344
f 344 427 428
f 344 428 338
f 346 400 345
f 345 400 401
f 345 401 402
f 347 351 346
f 346 351 352
f 346 352 400
f 400 352 353
f 400 353 354
f 351 347 350
f 350 347 348
f 350 348 349
f 400 354 399
f 399 354 355
f 399 355 398
f 398 355 390
f 398 390 397
f 397 390 391
f 397 391 396
f 396 391 395
f 395 391 392
f 395 392 394
f 394 392 393
f 356 388 355
f 355 388 389
f 355 389 390
f 357 359 356
f 356 359 360
f 356 360 387
f 387 360 361
f 387 361 386
f 386 361 362
f 386 362 385
f 385 362 363
f 385 363 384
f 384 363 383
f 383 363 382
f 382 363 364
f 382 364 381
f 357 358 359
f 387 388 356
f 402 403 345
f 345 403 426
f 345 426 427
f 403 404 426
f 426 404 425
f 425 404 405
f 425 405 406
f 425 406 424
f 424 406 407
f 424 407 423
f 423 407 408
f 423 408 422
f 422 408 409
f 422 409 421
f 421 409 410
f 421 410 420
f 420 410 415
f 420 415 416
f 415 410 414
f 414 410 411
f 414 411 413
f 413 411 412
f 420 416 419
f 419 416 417
f 419 417 418
f 441 442 443
f 451 452 454
f 454 452 453
f 455 456 458
f 458 456 457
f 459 460 462
f 462 460 461
f 463 464 466
f 466 464 465
f 467 468 470
f 470 468 469
f 471 472 474
f 474 472 473
f 475 476 478
f 478 476 477
f 479 480 482
f 482 480 481
f 483 484 486
f 486 484 485
f 487 488 490
f 490 488 489
f 491 492 498
f 498 492 497
f 497 492 493
f 497 493 496
f 496 493 494
f 496 494 495
f 499 500 508
f 508 500 507
f 507 500 501
f 507 501 506
f 506 501 502
f 506 502 505
f 505 502 503
f 505 503 504
f 509 510 512
f 512 510 511
f 513 514 516
f 516 514 515
f 517 518 520
f 520 518 519
f 521 522 524
f 524 522 523
f 525 526 528
f 528 526 527
f 529 530 532
f 532 530 531
f 533 534 536
f 536 534 535
f 537 538 540
f 540 538 539
f 541 542 544
f 544 542 543
f 545 546 548
f 548 546 547
f 549 550 552
f 552 550 551
f 553 554 562
f 562 554 561
f 561 554 555
f 561 555 560
f 560 555 556
f 560 556 559
f 559 556 557
f 559 557 558
f 563 564 566
f 566 564 565
f 567 568 570
f 570 568 569
f 571 572 574
f 574 572 573
f 575 576 578
f 578 576 577
f 579 580 582
f 582 580 581
f 583 584 586
f 586 584 585
f 587 588 590
f 590 588 589
f 591 592 594
f 594 592 593
f 595 596 598
f 598 596 597
f 599 600 602
f 602 600 601
f 603 604 610
f 610 604 609
f 609 604 605
f 609 605 608
f 608 605 606
f 608 606 607
f 611 612 614
f 614 612 613
f 615 616 618
f 618 616 617
f 619 620 622
f 622 620 621
f 623 624 626
f 626 624 625
f 627 628 630
f 630 628 629
f 631 632 634
f 634 632 633
f 635 636 646
f 646 636 645
f 645 636 637
f 645 637 644
f 644 637 638
f 644 638 643
f 643 638 639
f 643 639 642
f 642 639 640
f 642 640 641
f 647 648 650
f 650 648 649
f 651 652 656
f 656 652 655
f 655 652 653
f 655 653 654
f 657 658 666
f 666 658 665
f 665 658 659
f 665 659 664
f 664 659 660
f 664 660 663
f 663 660 661
f 663 661 662
f 667 668 670
f 670 668 669
f 671 672 680
f 680 672 679
f 679 672 673
f 679 673 678
f 678 673 674
f 678 674 677
f 677 674 675
f 677 675 676
f 681 682 684
f 684 682 683
f 685 686 688
f 688 686 687
f 689 690 692
f 692 690 691
f 693 694 696
f 696 694 695
f 697 698 700
f 700 698 699
f 701 702 704
f 704 702 703
f 705 706 714
f 714 706 713
f 713 706 707
f 713 707 712
f 712 707 708
f 712 708 711
f 711 708 709
f 711 709 710
f 715 716 718
f 718 716 717
f 719 720 728
f 728 720 727
f 727 720 721
f 727 721 726
f 726 721 722
f 726 722 725
f 725 722 723
f 725 723 724
f 729 730 736
f 736 730 735
f 735 730 731
f 735 731 734
f 734 731 732
f 734 732 733
f 737 738 740
f 740 738 739
f 741 742 748
f 748 742 747
f 747 742 743
f 747 743 746
f 746 743 744
f 746 744 745
f 749 750 756
f 756 750 755
f 755 750 751
f 755 751 754
f 754 751 752
f 754 752 753
f 757 758 764
f 764 758 763
f 763 758 759
f 763 759 762
f 762 759 760
f 762 760 761
f 765 766 768
f 768 766 767
f 769 770 776
f 776 770 775
f 775 770 771
f 775 771 774
f 774 771 772
f 774 772 773
f 777 778 780
f 780 778 779
f 781 782 790
f 790 782 789
f 789 782 783
f 789 783 788
f 788 783 784
f 788 784 787
f 787 784 785
f 787 785 786
f 791 792 794
f 794 792 793
f 795 796 802
f 802 796 801
f 801 796 797
f 801 797 800
f 800 797 798
f 800 798 799
f 803 804 806
f 806 804 805
f 807 808 810
f 810 808 809
f 811 812 814
f 814 812 813
f 815 816 818
f 818 816 817
f 819 820 822
f 822 820 821
f 823 824 826
f 826 824 825
f 827 828 830
f 830 828 829
f 831 832 834
f 834 832 833
f 835 836 838
f 838 836 837
f 839 840 842
f 842 840 841
f 843 844 846
f 846 844 845
f 847 848 850
f 850 848 849
f 851 852 854
f 854 852 853
f 855 856 858
f 858 856 857
f 859 860 862
f 862 860 861
f 863 864 866
f 866 864 865
f 867 868 870
f 870 868 869
f 871 872 874
f 874 872 873
f 875 876 878
f 878 876 877
f 879 880 882
f 882 880 881
f 883 884 886
f 886 884 885
f 887 888 890
f 890 888 889
f 891 892 894
f 894 892 893
f 895 896 902
f 902 896 901
f 901 896 897
f 901 897 900
f 900 897 898
f 900 898 899
f 903 904 906
f 906 904 905
f 907 908 910
f 910 908 909
