v 0.16917456 -0.29875 0.25292093
v 0.16957541 -0.29875 0.25280954
v 0.16957541 -0.29886999 0.25280954
v 0.16917456 -0.29886999 0.25292093
v 0.16957541 -0.29875 0.25280954
v 0.16973465 -0.29875 0.25248009
v 0.16973465 -0.29886999 0.25248009
v 0.16957541 -0.29886999 0.25280954
v 0.16877214 -0.29875 0.25281975
v 0.16917456 -0.29875 0.25292093
v 0.16917456 -0.29886999 0.25292093
v 0.16877214 -0.29886999 0.25281975
v 0.16973465 -0.29875 0.25248009
v 0.17002647 -0.29875 0.25250204
v 0.17002647 -0.29886999 0.25250204
v 0.16973465 -0.29886999 0.25248009
v 0.16864584 -0.29875 0.25257578
v 0.16877214 -0.29875 0.25281975
v 0.16877214 -0.29886999 0.25281975
v 0.16864584 -0.29886999 0.25257578
v 0.17002647 -0.29875 0.25250204
v 0.1699135 -0.29875 0.25286446
v 0.1699135 -0.29886999 0.25286446
v 0.17002647 -0.29886999 0.25250204
v 0.16873528 -0.29875 0.25237183
v 0.16864584 -0.29875 0.25257578
v 0.16864584 -0.29886999 0.25257578
v 0.16873528 -0.29886999 0.25237183
v 0.1699135 -0.29875 0.25286446
v 0.16961306 -0.29875 0.25310686
v 0.16961306 -0.29886999 0.25310686
v 0.1699135 -0.29886999 0.25286446
v 0.16919416 -0.29875 0.25220787
v 0.16889393 -0.29875 0.25229084
v 0.16873528 -0.29875 0.25237183
v 0.16873528 -0.29886999 0.25237183
v 0.16889393 -0.29886999 0.25229084
v 0.16919416 -0.29886999 0.25220787
v 0.16961306 -0.29875 0.25310686
v 0.16916201 -0.29875 0.25318922
v 0.16916201 -0.29886999 0.25318922
v 0.16961306 -0.29886999 0.25310686
v 0.16970327 -0.29875 0.2520612
v 0.16950697 -0.29875 0.25212923
v 0.16919416 -0.29875 0.25220787
v 0.16919416 -0.29886999 0.25220787
v 0.16950697 -0.29886999 0.25212923
v 0.16970327 -0.29886999 0.2520612
v 0.16916201 -0.29875 0.25318922
v 0.16873997 -0.29875 0.25311077
v 0.16873997 -0.29886999 0.25311077
v 0.16916201 -0.29886999 0.25318922
v 0.16999979 -0.29875 0.25182663
v 0.16970327 -0.29875 0.2520612
v 0.16970327 -0.29886999 0.2520612
v 0.16999979 -0.29886999 0.25182663
v 0.16873997 -0.29875 0.25311077
v 0.16845129 -0.29875 0.25288094
v 0.16845129 -0.29886999 0.25288094
v 0.16873997 -0.29886999 0.25311077
v 0.1700955 -0.29875 0.25149952
v 0.16999979 -0.29875 0.25182663
v 0.16999979 -0.29886999 0.25182663
v 0.1700955 -0.29886999 0.25149952
v 0.16845129 -0.29875 0.25288094
v 0.16835245 -0.29875 0.25255539
v 0.16835245 -0.29886999 0.25255539
v 0.16845129 -0.29886999 0.25288094
v 0.16999039 -0.29875 0.25115358
v 0.1700955 -0.29875 0.25149952
v 0.1700955 -0.29886999 0.25149952
v 0.16999039 -0.29886999 0.25115358
v 0.16835245 -0.29875 0.25255539
v 0.16843325 -0.29875 0.25226906
v 0.16843325 -0.29886999 0.25226906
v 0.16835245 -0.29886999 0.25255539
v 0.16968838 -0.29875 0.25090099
v 0.16999039 -0.29875 0.25115358
v 0.16999039 -0.29886999 0.25115358
v 0.16968838 -0.29886999 0.25090099
v 0.16843325 -0.29875 0.25226906
v 0.16867878 -0.29875 0.25205492
v 0.16867878 -0.29886999 0.25205492
v 0.16843325 -0.29886999 0.25226906
v 0.16924517 -0.29875 0.25081078
v 0.16968838 -0.29875 0.25090099
v 0.16968838 -0.29886999 0.25090099
v 0.16924517 -0.29886999 0.25081078
v 0.16867878 -0.29875 0.25205492
v 0.16912279 -0.29875 0.25191135
v 0.16912279 -0.29886999 0.25191135
v 0.16867878 -0.29886999 0.25205492
v 0.16872192 -0.29875 0.25090178
v 0.16924517 -0.29875 0.25081078
v 0.16924517 -0.29886999 0.25081078
v 0.16872192 -0.29886999 0.25090178
v 0.16912279 -0.29875 0.25191135
v 0.16938362 -0.29875 0.25184526
v 0.16953226 -0.29875 0.25179918
v 0.16953226 -0.29886999 0.25179918
v 0.16938362 -0.29886999 0.25184526
v 0.16912279 -0.29886999 0.25191135
v 0.1683909 -0.29875 0.25117554
v 0.16872192 -0.29875 0.25090178
v 0.16872192 -0.29886999 0.25090178
v 0.1683909 -0.29886999 0.25117554
v 0.16953226 -0.29875 0.25179918
v 0.16973936 -0.29875 0.25166348
v 0.16973936 -0.29886999 0.25166348
v 0.16953226 -0.29886999 0.25179918
v 0.1682646 -0.29886999 0.25158895
v 0.1683909 -0.29886999 0.25117554
v 0.16872192 -0.29886999 0.25090178
v 0.16924517 -0.29886999 0.25081078
v 0.16968838 -0.29886999 0.25090099
v 0.16999039 -0.29886999 0.25115358
v 0.1700955 -0.29886999 0.25149952
v 0.16999979 -0.29886999 0.25182663
v 0.16970327 -0.29886999 0.2520612
v 0.16950697 -0.29886999 0.25212923
v 0.16919416 -0.29886999 0.25220787
v 0.16889393 -0.29886999 0.25229084
v 0.16873528 -0.29886999 0.25237183
v 0.16864584 -0.29886999 0.25257578
v 0.16877214 -0.29886999 0.25281975
v 0.16917456 -0.29886999 0.25292093
v 0.16957541 -0.29886999 0.25280954
v 0.16973465 -0.29886999 0.25248009
v 0.17002647 -0.29886999 0.25250204
v 0.1699135 -0.29886999 0.25286446
v 0.16961306 -0.29886999 0.25310686
v 0.16916201 -0.29886999 0.25318922
v 0.16873997 -0.29886999 0.25311077
v 0.16845129 -0.29886999 0.25288094
v 0.16835245 -0.29886999 0.25255539
v 0.16843325 -0.29886999 0.25226906
v 0.16867878 -0.29886999 0.25205492
v 0.16912279 -0.29886999 0.25191135
v 0.16938362 -0.29886999 0.25184526
v 0.16953226 -0.29886999 0.25179918
v 0.16973936 -0.29886999 0.25166348
v 0.16980211 -0.29886999 0.25147442
v 0.16973701 -0.29886999 0.25127752
v 0.16953854 -0.29886999 0.25113554
v 0.16923103 -0.29886999 0.25108377
v 0.16887804 -0.29886999 0.25115202
v 0.16864662 -0.29886999 0.25133087
v 0.16855171 -0.29886999 0.25161406
v 0.16973936 -0.29875 0.25166348
v 0.16980211 -0.29875 0.25147442
v 0.16980211 -0.29886999 0.25147442
v 0.16973936 -0.29886999 0.25166348
v 0.1682646 -0.29875 0.25158895
v 0.1683909 -0.29875 0.25117554
v 0.1683909 -0.29886999 0.25117554
v 0.1682646 -0.29886999 0.25158895
v 0.16980211 -0.29875 0.25147442
v 0.16973701 -0.29875 0.25127752
v 0.16973701 -0.29886999 0.25127752
v 0.16980211 -0.29886999 0.25147442
v 0.1683909 -0.29875 0.25117554
v 0.1682646 -0.29875 0.25158895
v 0.16855171 -0.29875 0.25161406
v 0.16864662 -0.29875 0.25133087
v 0.16887804 -0.29875 0.25115202
v 0.16923103 -0.29875 0.25108377
v 0.16953854 -0.29875 0.25113554
v 0.16973701 -0.29875 0.25127752
v 0.16980211 -0.29875 0.25147442
v 0.16973936 -0.29875 0.25166348
v 0.16953226 -0.29875 0.25179918
v 0.16938362 -0.29875 0.25184526
v 0.16912279 -0.29875 0.25191135
v 0.16867878 -0.29875 0.25205492
v 0.16843325 -0.29875 0.25226906
v 0.16835245 -0.29875 0.25255539
v 0.16845129 -0.29875 0.25288094
v 0.16873997 -0.29875 0.25311077
v 0.16916201 -0.29875 0.25318922
v 0.16961306 -0.29875 0.25310686
v 0.1699135 -0.29875 0.25286446
v 0.17002647 -0.29875 0.25250204
v 0.16973465 -0.29875 0.25248009
v 0.16957541 -0.29875 0.25280954
v 0.16917456 -0.29875 0.25292093
v 0.16877214 -0.29875 0.25281975
v 0.16864584 -0.29875 0.25257578
v 0.16873528 -0.29875 0.25237183
v 0.16889393 -0.29875 0.25229084
v 0.16919416 -0.29875 0.25220787
v 0.16950697 -0.29875 0.25212923
v 0.16970327 -0.29875 0.2520612
v 0.16999979 -0.29875 0.25182663
v 0.1700955 -0.29875 0.25149952
v 0.16999039 -0.29875 0.25115358
v 0.16968838 -0.29875 0.25090099
v 0.16924517 -0.29875 0.25081078
v 0.16872192 -0.29875 0.25090178
v 0.16973701 -0.29875 0.25127752
v 0.16953854 -0.29875 0.25113554
v 0.16953854 -0.29886999 0.25113554
v 0.16973701 -0.29886999 0.25127752
v 0.16953854 -0.29875 0.25113554
v 0.16923103 -0.29875 0.25108377
v 0.16923103 -0.29886999 0.25108377
v 0.16953854 -0.29886999 0.25113554
v 0.16923103 -0.29875 0.25108377
v 0.16887804 -0.29875 0.25115202
v 0.16887804 -0.29886999 0.25115202
v 0.16923103 -0.29886999 0.25108377
v 0.16887804 -0.29875 0.25115202
v 0.16864662 -0.29875 0.25133087
v 0.16864662 -0.29886999 0.25133087
v 0.16887804 -0.29886999 0.25115202
v 0.16864662 -0.29875 0.25133087
v 0.16855171 -0.29875 0.25161406
v 0.16855171 -0.29886999 0.25161406
v 0.16864662 -0.29886999 0.25133087
v 0.16855171 -0.29875 0.25161406
v 0.1682646 -0.29875 0.25158895
v 0.1682646 -0.29886999 0.25158895
v 0.16855171 -0.29886999 0.25161406
f 1 2 4
f 4 2 3
f 5 6 8
f 8 6 7
f 9 10 12
f 12 10 11
f 13 14 16
f 16 14 15
f 17 18 20
f 20 18 19
f 21 22 24
f 24 22 23
f 25 26 28
f 28 26 27
f 29 30 32
f 32 30 31
f 33 34 38
f 38 34 37
f 37 34 35
f 37 35 36
f 39 40 42
f 42 40 41
f 43 44 48
f 48 44 47
f 47 44 45
f 47 45 46
f 49 50 52
f 52 50 51
f 53 54 56
f 56 54 55
f 57 58 60
f 60 58 59
f 61 62 64
f 64 62 63
f 65 66 68
f 68 66 67
f 69 70 72
f 72 70 71
f 73 74 76
f 76 74 75
f 77 78 80
f 80 78 79
f 81 82 84
f 84 82 83
f 85 86 88
f 88 86 87
f 89 90 92
f 92 90 91
f 93 94 96
f 96 94 95
f 97 98 102
f 102 98 101
f 101 98 99
f 101 99 100
f 103 104 106
f 106 104 105
f 107 108 110
f 110 108 109
f 111 112 148
f 148 112 147
f 147 112 113
f 147 113 146
f 146 113 114
f 146 114 145
f 145 114 144
f 144 114 115
f 144 115 143
f 143 115 116
f 143 116 142
f 142 116 117
f 142 117 118
f 142 118 141
f 141 118 119
f 141 119 140
f 140 119 120
f 140 120 139
f 139 120 121
f 139 121 138
f 138 121 122
f 138 122 137
f 137 122 123
f 137 123 136
f 136 123 124
f 136 124 135
f 135 124 134
f 134 124 125
f 134 125 133
f 133 125 126
f 133 126 132
f 132 126 131
f 131 126 127
f 131 127 130
f 130 127 128
f 130 128 129
f 149 150 152
f 152 150 151
f 153 154 156
f 156 154 155
f 157 158 160
f 160 158 159
f 162 163 161
f 161 163 164
f 161 164 198
f 198 164 165
f 198 165 197
f 197 165 166
f 197 166 167
f 197 167 196
f 196 167 168
f 196 168 195
f 195 168 169
f 195 169 194
f 194 169 193
f 193 169 170
f 193 170 192
f 192 170 171
f 192 171 191
f 191 171 172
f 191 172 190
f 190 172 173
f 190 173 189
f 189 173 174
f 189 174 188
f 188 174 175
f 188 175 187
f 187 175 176
f 187 176 177
f 187 177 186
f 186 177 178
f 186 178 185
f 185 178 179
f 185 179 180
f 185 180 184
f 184 180 181
f 184 181 183
f 183 181 182
f 199 200 202
f 202 200 201
f 203 204 206
f 206 204 205
f 207 208 210
f 210 208 209
f 211 212 214
f 214 212 213
f 215 216 218
f 218 216 217
f 219 220 222
f 222 220 221
