v -0.1935 -0.24 0.37299999
v -0.19331772 -0.2412678 0.37299999
v -0.19278564 -0.24243288 0.37299999
v -0.19194687 -0.24340088 0.37299999
v -0.19086937 -0.24409334 0.37299999
v -0.18964041 -0.24445419 0.37299999
v -0.18835958 -0.24445419 0.37299999
v -0.18713064 -0.24409334 0.37299999
v -0.18605312 -0.24340088 0.37299999
v -0.18521437 -0.24243288 0.37299999
v -0.18468227 -0.2412678 0.37299999
v -0.18450001 -0.24 0.37299999
v -0.18468227 -0.2387322 0.37299999
v -0.18521437 -0.23756712 0.37299999
v -0.18605312 -0.23659912 0.37299999
v -0.18713064 -0.23590666 0.37299999
v -0.18835958 -0.23554581 0.37299999
v -0.18964041 -0.23554581 0.37299999
v -0.19086937 -0.23590666 0.37299999
v -0.19194687 -0.23659912 0.37299999
v -0.19278564 -0.23756712 0.37299999
v -0.19331772 -0.2387322 0.37299999
v -0.1935 -0.24 0.365
v -0.19331772 -0.2387322 0.365
v -0.19278564 -0.23756712 0.365
v -0.19194687 -0.23659912 0.365
v -0.19086937 -0.23590666 0.365
v -0.18964041 -0.23554581 0.365
v -0.18835958 -0.23554581 0.365
v -0.18713064 -0.23590666 0.365
v -0.18605312 -0.23659912 0.365
v -0.18521437 -0.23756712 0.365
v -0.18468227 -0.2387322 0.365
v -0.18450001 -0.24 0.365
v -0.18468227 -0.2412678 0.365
v -0.18521437 -0.24243288 0.365
v -0.18605312 -0.24340088 0.365
v -0.18713064 -0.24409334 0.365
v -0.18835958 -0.24445419 0.365
v -0.18964041 -0.24445419 0.365
v -0.19086937 -0.24409334 0.365
v -0.19194687 -0.24340088 0.365
v -0.19278564 -0.24243288 0.365
v -0.19331772 -0.2412678 0.365
v -0.1935 -0.24 0.37299999
v -0.19331772 -0.2387322 0.37299999
v -0.19278564 -0.23756712 0.37299999
v -0.19194687 -0.23659912 0.37299999
v -0.19086937 -0.23590666 0.37299999
v -0.18964041 -0.23554581 0.37299999
v -0.18835958 -0.23554581 0.37299999
v -0.18713064 -0.23590666 0.37299999
v -0.18605312 -0.23659912 0.37299999
v -0.18521437 -0.23756712 0.37299999
v -0.18468227 -0.2387322 0.37299999
v -0.18450001 -0.24 0.37299999
v -0.18468227 -0.2412678 0.37299999
v -0.18521437 -0.24243288 0.37299999
v -0.18605312 -0.24340088 0.37299999
v -0.18713064 -0.24409334 0.37299999
v -0.18835958 -0.24445419 0.37299999
v -0.18964041 -0.24445419 0.37299999
v -0.19086937 -0.24409334 0.37299999
v -0.19194687 -0.24340088 0.37299999
v -0.19278564 -0.24243288 0.37299999
v -0.19331772 -0.2412678 0.37299999
v -0.1935 -0.24 0.365
v -0.19331772 -0.2412678 0.365
v -0.19278564 -0.24243288 0.365
v -0.19194687 -0.24340088 0.365
v -0.19086937 -0.24409334 0.365
v -0.18964041 -0.24445419 0.365
v -0.18835958 -0.24445419 0.365
v -0.18713064 -0.24409334 0.365
v -0.18605312 -0.24340088 0.365
v -0.18521437 -0.24243288 0.365
v -0.18468227 -0.2412678 0.365
v -0.18450001 -0.24 0.365
v -0.18468227 -0.2387322 0.365
v -0.18521437 -0.23756712 0.365
v -0.18605312 -0.23659912 0.365
v -0.18713064 -0.23590666 0.365
v -0.18835958 -0.23554581 0.365
v -0.18964041 -0.23554581 0.365
v -0.19086937 -0.23590666 0.365
v -0.19194687 -0.23659912 0.365
v -0.19278564 -0.23756712 0.365
v -0.19331772 -0.2387322 0.365
v -0.1935 -0.24 0.365
v -0.1935 -0.24 0.37299999
f 2 11 1
f 1 11 12
f 1 12 22
f 22 12 13
f 22 13 21
f 21 13 14
f 21 14 20
f 20 14 15
f 20 15 19
f 19 15 16
f 19 16 18
f 18 16 17
f 11 2 10
f 10 2 3
f 10 3 9
f 9 3 4
f 9 4 8
f 8 4 5
f 8 5 7
f 7 5 6
f 24 33 23
f 23 33 34
f 23 34 44
f 44 34 35
f 44 35 43
f 43 35 36
f 43 36 42
f 42 36 37
f 42 37 41
f 41 37 38
f 41 38 40
f 40 38 39
f 33 24 32
f 32 24 25
f 32 25 31
f 31 25 26
f 31 26 30
f 30 26 27
f 30 27 29
f 29 27 28
f 46 88 45
f 45 88 89
f 90 67 66
f 66 67 68
f 66 68 69
f 46 47 88
f 88 47 87
f 87 47 48
f 87 48 86
f 86 48 49
f 86 49 85
f 85 49 50
f 85 50 84
f 84 50 51
f 84 51 83
f 83 51 52
f 83 52 82
f 82 52 53
f 82 53 81
f 81 53 54
f 81 54 80
f 80 54 55
f 80 55 79
f 79 55 56
f 79 56 78
f 78 56 57
f 78 57 77
f 77 57 58
f 77 58 76
f 76 58 59
f 76 59 75
f 75 59 60
f 75 60 74
f 74 60 61
f 74 61 73
f 73 61 62
f 73 62 72
f 72 62 63
f 72 63 71
f 71 63 64
f 71 64 70
f 70 64 65
f 70 65 69
f 69 65 66
