v 0.13589693 0.12439114 9.9999998e-05
v 0.1378721 0.12439114 9.9999998e-05
v 0.1378721 0.12439114 0.000125
v 0.13589693 0.12439114 0.000125
v 0.13589693 0.1226 9.9999998e-05
v 0.13589693 0.12439114 9.9999998e-05
v 0.13589693 0.12439114 0.000125
v 0.13589693 0.1226 0.000125
v 0.1378721 0.12439114 9.9999998e-05
v 0.1378721 0.1226 9.9999998e-05
v 0.1378721 0.1226 0.000125
v 0.1378721 0.12439114 0.000125
v 0.13539407 0.1226 0.000125
v 0.13589693 0.1226 0.000125
v 0.13589693 0.12439114 0.000125
v 0.1378721 0.12439114 0.000125
v 0.1378721 0.1226 0.000125
v 0.13837497 0.1226 0.000125
v 0.13837497 0.1264 0.000125
v 0.1378721 0.1264 0.000125
v 0.1378721 0.12483956 0.000125
v 0.13589693 0.12483956 0.000125
v 0.13589693 0.1264 0.000125
v 0.13539407 0.1264 0.000125
v 0.1378721 0.1226 9.9999998e-05
v 0.13837497 0.1226 9.9999998e-05
v 0.13837497 0.1226 0.000125
v 0.1378721 0.1226 0.000125
v 0.13539407 0.1226 9.9999998e-05
v 0.13589693 0.1226 9.9999998e-05
v 0.13589693 0.1226 0.000125
v 0.13539407 0.1226 0.000125
v 0.13837497 0.1226 9.9999998e-05
v 0.13837497 0.1264 9.9999998e-05
v 0.13837497 0.1264 0.000125
v 0.13837497 0.1226 0.000125
v 0.13589693 0.1226 9.9999998e-05
v 0.13539407 0.1226 9.9999998e-05
v 0.13539407 0.1264 9.9999998e-05
v 0.13589693 0.1264 9.9999998e-05
v 0.13589693 0.12483956 9.9999998e-05
v 0.1378721 0.12483956 9.9999998e-05
v 0.1378721 0.1264 9.9999998e-05
v 0.13837497 0.1264 9.9999998e-05
v 0.13837497 0.1226 9.9999998e-05
v 0.1378721 0.1226 9.9999998e-05
v 0.1378721 0.12439114 9.9999998e-05
v 0.13589693 0.12439114 9.9999998e-05
v 0.13837497 0.1264 9.9999998e-05
v 0.1378721 0.1264 9.9999998e-05
v 0.1378721 0.1264 0.000125
v 0.13837497 0.1264 0.000125
v 0.1378721 0.1264 9.9999998e-05
v 0.1378721 0.12483956 9.9999998e-05
v 0.1378721 0.12483956 0.000125
v 0.1378721 0.1264 0.000125
v 0.1378721 0.12483956 9.9999998e-05
v 0.13589693 0.12483956 9.9999998e-05
v 0.13589693 0.12483956 0.000125
v 0.1378721 0.12483956 0.000125
v 0.13589693 0.12483956 9.9999998e-05
v 0.13589693 0.1264 9.9999998e-05
v 0.13589693 0.1264 0.000125
v 0.13589693 0.12483956 0.000125
v 0.13589693 0.1264 9.9999998e-05
v 0.13539407 0.1264 9.9999998e-05
v 0.13539407 0.1264 0.000125
v 0.13589693 0.1264 0.000125
v 0.13539407 0.1264 9.9999998e-05
v 0.13539407 0.1226 9.9999998e-05
v 0.13539407 0.1226 0.000125
v 0.13539407 0.1264 0.000125
f 1 2 4
f 4 2 3
f 5 6 8
f 8 6 7
f 9 10 12
f 12 10 11
f 14 15 13
f 13 15 24
f 24 15 22
f 24 22 23
f 15 16 22
f 22 16 21
f 21 16 19
f 21 19 20
f 17 18 16
f 16 18 19
f 25 26 28
f 28 26 27
f 29 30 32
f 32 30 31
f 33 34 36
f 36 34 35
f 37 38 48
f 48 38 39
f 48 39 41
f 41 39 40
f 41 42 48
f 48 42 47
f 47 42 44
f 47 44 45
f 42 43 44
f 45 46 47
f 49 50 52
f 52 50 51
f 53 54 56
f 56 54 55
f 57 58 60
f 60 58 59
f 61 62 64
f 64 62 63
f 65 66 68
f 68 66 67
f 69 70 72
f 72 70 71
