v 0.046999998 0.36 0.44
v 0.046999998 0.36 0.43888229
v 0.044000001 0.36 0.43888229
v 0.044000001 0.36 0.44
v 0.046999998 0.36212685 0.44
v 0.046999998 0.36 0.44
v 0.044000001 0.36 0.44
v 0.044000001 0.36212685 0.44
v 0.046999998 0.36 0.44
v 0.046999998 0.36212685 0.44
v 0.046999998 0.38726326 0.45299267
v 0.046999998 0.41256023 0.46566986
v 0.046999998 0.43801384 0.47802956
v 0.046999998 0.46362007 0.49006985
v 0.046999998 0.48937492 0.50178886
v 0.046999998 0.51527439 0.51318474
v 0.046999998 0.54131439 0.52425568
v 0.046999998 0.56749088 0.535
v 0.046999998 0.3 0.535
v 0.046999998 0.28953014 0.53480335
v 0.046999998 0.27907307 0.53421368
v 0.046999998 0.26864145 0.53323166
v 0.046999998 0.25824806 0.53185852
v 0.046999998 0.24790554 0.53009594
v 0.046999998 0.2376265 0.52794605
v 0.046999998 0.22742344 0.52541145
v 0.046999998 0.21730879 0.52249527
v 0.046999998 0.2072949 0.51920105
v 0.046999998 0.19739395 0.51553276
v 0.046999998 0.18761803 0.51149494
v 0.046999998 0.17797901 0.50709248
v 0.046999998 0.16848866 0.5023307
v 0.046999998 0.15915854 0.4972155
v 0.046999998 0.15 0.49175301
v 0.046999998 0.14102422 0.48594994
v 0.046999998 0.13224213 0.47981335
v 0.046999998 0.12366443 0.47335068
v 0.046999998 0.11530156 0.46656986
v 0.046999998 0.10716372 0.45947914
v 0.046999998 0.099260817 0.45208714
v 0.046999998 0.091602488 0.44440289
v 0.046999998 0.084198055 0.43643574
v 0.046999998 0.077056551 0.42819534
v 0.046999998 0.070186667 0.41969185
v 0.046999998 0.063596773 0.41093552
v 0.046999998 0.057294903 0.40193707
v 0.046999998 0.051288729 0.39270748
v 0.046999998 0.04558557 0.38325794
v 0.046999998 0.04019238 0.37360001
v 0.046999998 0.035115721 0.36374542
v 0.046999998 0.030361786 0.35370621
v 0.046999998 0.025936363 0.34349461
v 0.046999998 0.021844845 0.33312302
v 0.046999998 0.018092214 0.3226041
v 0.046999998 0.014683045 0.31195068
v 0.046999998 0.011621491 0.30117575
v 0.046999998 0.0089112818 0.2902924
v 0.046999998 0.00655572 0.27931389
v 0.046999998 0.0045576742 0.26825363
v 0.046999998 0.0029195794 0.25712507
v 0.046999998 0.0016434313 0.24594179
v 0.046999998 0.00073078491 0.23471739
v 0.046999998 0.0001827519 0.22346556
v 0.046999998 0 0.21219999
v 0.046999998 0 0.2032
v 0.046999998 0.022543859 0.22100811
v 0.046999998 0.045312104 0.23852844
v 0.046999998 0.068301063 0.25575815
v 0.046999998 0.091507025 0.27269444
v 0.046999998 0.11492624 0.2893346
v 0.046999998 0.13855494 0.30567595
v 0.046999998 0.1623893 0.32171585
v 0.046999998 0.18642548 0.33745167
v 0.046999998 0.2106596 0.35288094
v 0.046999998 0.23508776 0.3680011
v 0.046999998 0.259706 0.38280979
v 0.046999998 0.28451036 0.39730453
v 0.046999998 0.30949684 0.41148308
v 0.046999998 0.33466141 0.42534306
v 0.046999998 0.36 0.43888229
v 0.046999998 0.36212685 0.44
v 0.044000001 0.36212685 0.44
v 0.044000001 0.38726326 0.45299267
v 0.044000001 0.41256023 0.46566986
v 0.044000001 0.43801384 0.47802956
v 0.044000001 0.46362007 0.49006985
v 0.044000001 0.48937492 0.50178886
v 0.044000001 0.51527439 0.51318474
v 0.044000001 0.54131439 0.52425568
v 0.044000001 0.56749088 0.535
v 0.046999998 0.56749088 0.535
v 0.046999998 0.54131439 0.52425568
v 0.046999998 0.51527439 0.51318474
v 0.046999998 0.48937492 0.50178886
v 0.046999998 0.46362007 0.49006985
v 0.046999998 0.43801384 0.47802956
v 0.046999998 0.41256023 0.46566986
v 0.046999998 0.38726326 0.45299267
v 0.044000001 0.36212685 0.44
v 0.044000001 0.36 0.44
v 0.044000001 0.36 0.43888229
v 0.044000001 0.33466141 0.42534306
v 0.044000001 0.30949684 0.41148308
v 0.044000001 0.28451036 0.39730453
v 0.044000001 0.259706 0.38280979
v 0.044000001 0.23508776 0.3680011
v 0.044000001 0.2106596 0.35288094
v 0.044000001 0.18642548 0.33745167
v 0.044000001 0.1623893 0.32171585
v 0.044000001 0.13855494 0.30567595
v 0.044000001 0.11492624 0.2893346
v 0.044000001 0.091507025 0.27269444
v 0.044000001 0.068301063 0.25575815
v 0.044000001 0.045312104 0.23852844
v 0.044000001 0.022543859 0.22100811
v 0.044000001 0 0.2032
v 0.044000001 0 0.21219999
v 0.044000001 0.0001827519 0.22346556
v 0.044000001 0.00073078491 0.23471739
v 0.044000001 0.0016434313 0.24594179
v 0.044000001 0.0029195794 0.25712507
v 0.044000001 0.0045576742 0.26825363
v 0.044000001 0.00655572 0.27931389
v 0.044000001 0.0089112818 0.2902924
v 0.044000001 0.011621491 0.30117575
v 0.044000001 0.014683045 0.31195068
v 0.044000001 0.018092214 0.3226041
v 0.044000001 0.021844845 0.33312302
v 0.044000001 0.025936363 0.34349461
v 0.044000001 0.030361786 0.35370621
v 0.044000001 0.035115721 0.36374542
v 0.044000001 0.04019238 0.37360001
v 0.044000001 0.04558557 0.38325794
v 0.044000001 0.051288729 0.39270748
v 0.044000001 0.057294903 0.40193707
v 0.044000001 0.063596773 0.41093552
v 0.044000001 0.070186667 0.41969185
v 0.044000001 0.077056551 0.42819534
v 0.044000001 0.084198055 0.43643574
v 0.044000001 0.091602488 0.44440289
v 0.044000001 0.099260817 0.45208714
v 0.044000001 0.10716372 0.45947914
v 0.044000001 0.11530156 0.46656986
v 0.044000001 0.12366443 0.47335068
v 0.044000001 0.13224213 0.47981335
v 0.044000001 0.14102422 0.48594994
v 0.044000001 0.15 0.49175301
v 0.044000001 0.15915854 0.4972155
v 0.044000001 0.16848866 0.5023307
v 0.044000001 0.17797901 0.50709248
v 0.044000001 0.18761803 0.51149494
v 0.044000001 0.19739395 0.51553276
v 0.044000001 0.2072949 0.51920105
v 0.044000001 0.21730879 0.52249527
v 0.044000001 0.22742344 0.52541145
v 0.044000001 0.2376265 0.52794605
v 0.044000001 0.24790554 0.53009594
v 0.044000001 0.25824806 0.53185852
v 0.044000001 0.26864145 0.53323166
v 0.044000001 0.27907307 0.53421368
v 0.044000001 0.28953014 0.53480335
v 0.044000001 0.3 0.535
v 0.044000001 0.56749088 0.535
v 0.044000001 0.54131439 0.52425568
v 0.044000001 0.51527439 0.51318474
v 0.044000001 0.48937492 0.50178886
v 0.044000001 0.46362007 0.49006985
v 0.044000001 0.43801384 0.47802956
v 0.044000001 0.41256023 0.46566986
v 0.044000001 0.38726326 0.45299267
v 0.044000001 0.36 0.43888229
v 0.046999998 0.36 0.43888229
v 0.046999998 0.33466141 0.42534306
v 0.046999998 0.30949684 0.41148308
v 0.046999998 0.28451036 0.39730453
v 0.046999998 0.259706 0.38280979
v 0.046999998 0.23508776 0.3680011
v 0.046999998 0.2106596 0.35288094
v 0.046999998 0.18642548 0.33745167
v 0.046999998 0.1623893 0.32171585
v 0.046999998 0.13855494 0.30567595
v 0.046999998 0.11492624 0.2893346
v 0.046999998 0.091507025 0.27269444
v 0.046999998 0.068301063 0.25575815
v 0.046999998 0.045312104 0.23852844
v 0.046999998 0.022543859 0.22100811
v 0.046999998 0 0.2032
v 0.044000001 0 0.2032
v 0.044000001 0.022543859 0.22100811
v 0.044000001 0.045312104 0.23852844
v 0.044000001 0.068301063 0.25575815
v 0.044000001 0.091507025 0.27269444
v 0.044000001 0.11492624 0.2893346
v 0.044000001 0.13855494 0.30567595
v 0.044000001 0.1623893 0.32171585
v 0.044000001 0.18642548 0.33745167
v 0.044000001 0.2106596 0.35288094
v 0.044000001 0.23508776 0.3680011
v 0.044000001 0.259706 0.38280979
v 0.044000001 0.28451036 0.39730453
v 0.044000001 0.30949684 0.41148308
v 0.044000001 0.33466141 0.42534306
v 0.044000001 0.56749088 0.535
v 0.044000001 0.3 0.535
v 0.046999998 0.3 0.535
v 0.046999998 0.56749088 0.535
v 0.044000001 0.3 0.535
v 0.044000001 0.28953014 0.53480335
v 0.044000001 0.27907307 0.53421368
v 0.044000001 0.26864145 0.53323166
v 0.044000001 0.25824806 0.53185852
v 0.044000001 0.24790554 0.53009594
v 0.044000001 0.2376265 0.52794605
v 0.044000001 0.22742344 0.52541145
v 0.044000001 0.21730879 0.52249527
v 0.044000001 0.2072949 0.51920105
v 0.044000001 0.19739395 0.51553276
v 0.044000001 0.18761803 0.51149494
v 0.044000001 0.17797901 0.50709248
v 0.044000001 0.16848866 0.5023307
v 0.044000001 0.15915854 0.4972155
v 0.044000001 0.15 0.49175301
v 0.044000001 0.14102422 0.48594994
v 0.044000001 0.13224213 0.47981335
v 0.044000001 0.12366443 0.47335068
v 0.044000001 0.11530156 0.46656986
v 0.044000001 0.10716372 0.45947914
v 0.044000001 0.099260817 0.45208714
v 0.044000001 0.091602488 0.44440289
v 0.044000001 0.084198055 0.43643574
v 0.044000001 0.077056551 0.42819534
v 0.044000001 0.070186667 0.41969185
v 0.044000001 0.063596773 0.41093552
v 0.044000001 0.057294903 0.40193707
v 0.044000001 0.051288729 0.39270748
v 0.044000001 0.04558557 0.38325794
v 0.044000001 0.04019238 0.37360001
v 0.044000001 0.035115721 0.36374542
v 0.044000001 0.030361786 0.35370621
v 0.044000001 0.025936363 0.34349461
v 0.044000001 0.021844845 0.33312302
v 0.044000001 0.018092214 0.3226041
v 0.044000001 0.014683045 0.31195068
v 0.044000001 0.011621491 0.30117575
v 0.044000001 0.0089112818 0.2902924
v 0.044000001 0.00655572 0.27931389
v 0.044000001 0.0045576742 0.26825363
v 0.044000001 0.0029195794 0.25712507
v 0.044000001 0.0016434313 0.24594179
v 0.044000001 0.00073078491 0.23471739
v 0.044000001 0.0001827519 0.22346556
v 0.044000001 0 0.21219999
v 0.046999998 0 0.21219999
v 0.046999998 0.0001827519 0.22346556
v 0.046999998 0.00073078491 0.23471739
v 0.046999998 0.0016434313 0.24594179
v 0.046999998 0.0029195794 0.25712507
v 0.046999998 0.0045576742 0.26825363
v 0.046999998 0.00655572 0.27931389
v 0.046999998 0.0089112818 0.2902924
v 0.046999998 0.011621491 0.30117575
v 0.046999998 0.014683045 0.31195068
v 0.046999998 0.018092214 0.3226041
v 0.046999998 0.021844845 0.33312302
v 0.046999998 0.025936363 0.34349461
v 0.046999998 0.030361786 0.35370621
v 0.046999998 0.035115721 0.36374542
v 0.046999998 0.04019238 0.37360001
v 0.046999998 0.04558557 0.38325794
v 0.046999998 0.051288729 0.39270748
v 0.046999998 0.057294903 0.40193707
v 0.046999998 0.063596773 0.41093552
v 0.046999998 0.070186667 0.41969185
v 0.046999998 0.077056551 0.42819534
v 0.046999998 0.084198055 0.43643574
v 0.046999998 0.091602488 0.44440289
v 0.046999998 0.099260817 0.45208714
v 0.046999998 0.10716372 0.45947914
v 0.046999998 0.11530156 0.46656986
v 0.046999998 0.12366443 0.47335068
v 0.046999998 0.13224213 0.47981335
v 0.046999998 0.14102422 0.48594994
v 0.046999998 0.15 0.49175301
v 0.046999998 0.15915854 0.4972155
v 0.046999998 0.16848866 0.5023307
v 0.046999998 0.17797901 0.50709248
v 0.046999998 0.18761803 0.51149494
v 0.046999998 0.19739395 0.51553276
v 0.046999998 0.2072949 0.51920105
v 0.046999998 0.21730879 0.52249527
v 0.046999998 0.22742344 0.52541145
v 0.046999998 0.2376265 0.52794605
v 0.046999998 0.24790554 0.53009594
v 0.046999998 0.25824806 0.53185852
v 0.046999998 0.26864145 0.53323166
v 0.046999998 0.27907307 0.53421368
v 0.046999998 0.28953014 0.53480335
v 0.046999998 0.3 0.535
v 0.044000001 0 0.21219999
v 0.044000001 0 0.2032
v 0.046999998 0 0.2032
v 0.046999998 0 0.21219999
f 1 2 4
f 4 2 3
f 6 7 5
f 5 7 8
f 10 11 9
f 9 11 19
f 9 19 20
f 11 12 19
f 19 12 13
f 19 13 14
f 14 15 19
f 19 15 16
f 19 16 17
f 17 18 19
f 20 21 9
f 9 21 22
f 9 22 23
f 23 24 9
f 9 24 79
f 9 79 80
f 24 25 79
f 79 25 26
f 79 26 27
f 27 28 79
f 79 28 29
f 79 29 30
f 79 30 78
f 78 30 31
f 78 31 32
f 32 33 78
f 78 33 34
f 78 34 77
f 77 34 35
f 77 35 36
f 36 37 77
f 77 37 38
f 77 38 76
f 76 38 39
f 76 39 40
f 40 41 76
f 76 41 75
f 75 41 42
f 75 42 43
f 43 44 75
f 75 44 74
f 74 44 45
f 74 45 46
f 46 47 74
f 74 47 73
f 73 47 48
f 73 48 49
f 73 49 72
f 72 49 50
f 72 50 51
f 72 51 71
f 71 51 52
f 71 52 53
f 53 54 71
f 71 54 70
f 70 54 55
f 70 55 56
f 70 56 69
f 69 56 57
f 69 57 58
f 69 58 68
f 68 58 59
f 68 59 60
f 68 60 67
f 67 60 61
f 67 61 62
f 67 62 66
f 66 62 63
f 66 63 64
f 64 65 66
f 81 82 98
f 98 82 83
f 98 83 97
f 97 83 84
f 97 84 96
f 96 84 85
f 96 85 95
f 95 85 86
f 95 86 94
f 94 86 87
f 94 87 93
f 93 87 88
f 93 88 92
f 92 88 89
f 92 89 91
f 91 89 90
f 99 100 170
f 170 100 162
f 170 162 169
f 169 162 168
f 168 162 167
f 167 162 166
f 166 162 165
f 165 162 164
f 164 162 163
f 101 102 100
f 100 102 157
f 100 157 158
f 103 151 102
f 102 151 152
f 102 152 153
f 104 147 103
f 103 147 148
f 103 148 149
f 105 143 104
f 104 143 144
f 104 144 145
f 106 140 105
f 105 140 141
f 105 141 142
f 107 137 106
f 106 137 138
f 106 138 139
f 108 134 107
f 107 134 135
f 107 135 136
f 109 132 108
f 108 132 133
f 108 133 134
f 110 130 109
f 109 130 131
f 109 131 132
f 111 127 110
f 110 127 128
f 110 128 129
f 112 125 111
f 111 125 126
f 111 126 127
f 113 123 112
f 112 123 124
f 112 124 125
f 114 121 113
f 113 121 122
f 113 122 123
f 115 119 114
f 114 119 120
f 114 120 121
f 116 117 115
f 115 117 118
f 115 118 119
f 129 130 110
f 136 137 107
f 139 140 106
f 142 143 105
f 145 146 104
f 104 146 147
f 149 150 103
f 103 150 151
f 153 154 102
f 102 154 155
f 102 155 156
f 156 157 102
f 158 159 100
f 100 159 160
f 100 160 161
f 161 162 100
f 171 172 202
f 202 172 173
f 202 173 201
f 201 173 174
f 201 174 200
f 200 174 175
f 200 175 199
f 199 175 176
f 199 176 198
f 198 176 177
f 198 177 197
f 197 177 178
f 197 178 196
f 196 178 179
f 196 179 195
f 195 179 180
f 195 180 194
f 194 180 181
f 194 181 193
f 193 181 182
f 193 182 192
f 192 182 183
f 192 183 191
f 191 183 184
f 191 184 190
f 190 184 185
f 190 185 189
f 189 185 186
f 189 186 188
f 188 186 187
f 203 204 206
f 206 204 205
f 207 208 298
f 298 208 297
f 297 208 209
f 297 209 296
f 296 209 210
f 296 210 295
f 295 210 211
f 295 211 294
f 294 211 212
f 294 212 293
f 293 212 213
f 293 213 292
f 292 213 214
f 292 214 291
f 291 214 215
f 291 215 290
f 290 215 216
f 290 216 289
f 289 216 217
f 289 217 288
f 288 217 218
f 288 218 287
f 287 218 219
f 287 219 286
f 286 219 220
f 286 220 285
f 285 220 221
f 285 221 284
f 284 221 222
f 284 222 283
f 283 222 223
f 283 223 282
f 282 223 224
f 282 224 281
f 281 224 225
f 281 225 280
f 280 225 226
f 280 226 279
f 279 226 227
f 279 227 278
f 278 227 228
f 278 228 277
f 277 228 229
f 277 229 276
f 276 229 230
f 276 230 275
f 275 230 231
f 275 231 274
f 274 231 232
f 274 232 273
f 273 232 233
f 273 233 272
f 272 233 234
f 272 234 271
f 271 234 235
f 271 235 270
f 270 235 236
f 270 236 269
f 269 236 237
f 269 237 268
f 268 237 238
f 268 238 267
f 267 238 239
f 267 239 266
f 266 239 240
f 266 240 265
f 265 240 241
f 265 241 264
f 264 241 242
f 264 242 263
f 263 242 243
f 263 243 262
f 262 243 244
f 262 244 261
f 261 244 245
f 261 245 260
f 260 245 246
f 260 246 259
f 259 246 247
f 259 247 258
f 258 247 248
f 258 248 257
f 257 248 249
f 257 249 256
f 256 249 250
f 256 250 255
f 255 250 251
f 255 251 254
f 254 251 252
f 254 252 253
f 299 300 302
f 302 300 301
