v 0.09159461 0.0498 0.000125
v 0.09159461 0.055222101 0.000125
v 0.091167326 0.055222101 0.000125
v 0.090933428 0.054866643 0.000125
v 0.090577965 0.054500136 0.000125
v 0.089605522 0.053866577 0.000125
v 0.089605522 0.053225646 0.000125
v 0.090303545 0.053568211 0.000125
v 0.090931587 0.054024963 0.000125
v 0.090931587 0.0498 0.000125
v 0.09159461 0.055222101 9.9999998e-05
v 0.091167326 0.055222101 9.9999998e-05
v 0.091167326 0.055222101 0.000125
v 0.09159461 0.055222101 0.000125
v 0.09159461 0.0498 9.9999998e-05
v 0.09159461 0.055222101 9.9999998e-05
v 0.09159461 0.055222101 0.000125
v 0.09159461 0.0498 0.000125
v 0.091167326 0.055222101 9.9999998e-05
v 0.090933428 0.054866643 9.9999998e-05
v 0.090577965 0.054500136 9.9999998e-05
v 0.090577965 0.054500136 0.000125
v 0.090933428 0.054866643 0.000125
v 0.091167326 0.055222101 0.000125
v 0.09159461 0.055222101 9.9999998e-05
v 0.09159461 0.0498 9.9999998e-05
v 0.090931587 0.0498 9.9999998e-05
v 0.090931587 0.054024963 9.9999998e-05
v 0.090303545 0.053568211 9.9999998e-05
v 0.089605522 0.053225646 9.9999998e-05
v 0.089605522 0.053866577 9.9999998e-05
v 0.090577965 0.054500136 9.9999998e-05
v 0.090933428 0.054866643 9.9999998e-05
v 0.091167326 0.055222101 9.9999998e-05
v 0.090577965 0.054500136 9.9999998e-05
v 0.089605522 0.053866577 9.9999998e-05
v 0.089605522 0.053866577 0.000125
v 0.090577965 0.054500136 0.000125
v 0.089605522 0.053866577 9.9999998e-05
v 0.089605522 0.053225646 9.9999998e-05
v 0.089605522 0.053225646 0.000125
v 0.089605522 0.053866577 0.000125
v 0.089605522 0.053225646 9.9999998e-05
v 0.090303545 0.053568211 9.9999998e-05
v 0.090303545 0.053568211 0.000125
v 0.089605522 0.053225646 0.000125
v 0.090303545 0.053568211 9.9999998e-05
v 0.090931587 0.054024963 9.9999998e-05
v 0.090931587 0.054024963 0.000125
v 0.090303545 0.053568211 0.000125
v 0.090931587 0.054024963 9.9999998e-05
v 0.090931587 0.0498 9.9999998e-05
v 0.090931587 0.0498 0.000125
v 0.090931587 0.054024963 0.000125
v 0.090931587 0.0498 9.9999998e-05
v 0.09159461 0.0498 9.9999998e-05
v 0.09159461 0.0498 0.000125
v 0.090931587 0.0498 0.000125
f 10 1 9
f 9 1 2
f 9 2 3
f 3 4 9
f 9 4 5
f 9 5 8
f 8 5 6
f 8 6 7
f 11 12 14
f 14 12 13
f 15 16 18
f 18 16 17
f 19 20 24
f 24 20 23
f 23 20 21
f 23 21 22
f 34 25 28
f 28 25 26
f 28 26 27
f 29 32 28
f 28 32 33
f 28 33 34
f 30 31 29
f 29 31 32
f 35 36 38
f 38 36 37
f 39 40 42
f 42 40 41
f 43 44 46
f 46 44 45
f 47 48 50
f 50 48 49
f 51 52 54
f 54 52 53
f 55 56 58
f 58 56 57
