v 0.12181173 -0.29870001 0.221
v 0.12141474 -0.29870001 0.221
v 0.12141474 -0.29870001 0.224
v 0.12181173 -0.29870001 0.224
v 0.12141474 -0.29882 0.221
v 0.12181173 -0.29882 0.221
v 0.12181173 -0.29882 0.224
v 0.12141474 -0.29882 0.224
v 0.12141474 -0.29870001 0.221
v 0.12181173 -0.29870001 0.221
v 0.12181173 -0.29882 0.221
v 0.12141474 -0.29882 0.221
v 0.12181173 -0.29870001 0.221
v 0.12181173 -0.29870001 0.224
v 0.12181173 -0.29882 0.224
v 0.12181173 -0.29882 0.221
v 0.12181173 -0.29870001 0.224
v 0.12141474 -0.29870001 0.224
v 0.12141474 -0.29882 0.224
v 0.12181173 -0.29882 0.224
v 0.12141474 -0.29870001 0.224
v 0.12141474 -0.29870001 0.221
v 0.12141474 -0.29882 0.221
v 0.12141474 -0.29882 0.224
f 1 2 4
f 4 2 3
f 5 6 8
f 8 6 7
f 9 10 12
f 12 10 11
f 13 14 16
f 16 14 15
f 17 18 20
f 20 18 19
f 21 22 24
f 24 22 23
