v 0.16980133 -0.29875 0.26688923
v 0.17007589 -0.29875 0.26700453
v 0.17007589 -0.29886999 0.26700453
v 0.16980133 -0.29886999 0.26688923
v 0.17050341 -0.29875 0.26801254
v 0.17041321 -0.29875 0.2685593
v 0.17041321 -0.29886999 0.2685593
v 0.17050341 -0.29886999 0.26801254
v 0.16996058 -0.29875 0.26728302
v 0.16975426 -0.29875 0.26716377
v 0.16975426 -0.29886999 0.26716377
v 0.16996058 -0.29886999 0.26728302
v 0.17018963 -0.29875 0.26801725
v 0.17012922 -0.29875 0.26757404
v 0.17012922 -0.29886999 0.26757404
v 0.17018963 -0.29886999 0.26801725
v 0.16978329 -0.29875 0.26883152
v 0.17007118 -0.29875 0.26857185
v 0.17007118 -0.29886999 0.26857185
v 0.16978329 -0.29886999 0.26883152
v 0.16860191 -0.29875 0.26915001
v 0.16860191 -0.29875 0.26684999
v 0.16860191 -0.29886999 0.26684999
v 0.16860191 -0.29886999 0.26915001
v 0.16980368 -0.29875 0.26911705
v 0.16939421 -0.29875 0.26915001
v 0.16939421 -0.29886999 0.26915001
v 0.16980368 -0.29886999 0.26911705
v 0.17044222 -0.29875 0.26754816
v 0.17050341 -0.29875 0.26801254
v 0.17050341 -0.29886999 0.26801254
v 0.17044222 -0.29886999 0.26754816
v 0.16890627 -0.29875 0.26887857
v 0.1693895 -0.29875 0.26887857
v 0.1693895 -0.29886999 0.26887857
v 0.16890627 -0.29886999 0.26887857
v 0.17007589 -0.29875 0.26700453
v 0.17028534 -0.29875 0.26721319
v 0.17028534 -0.29886999 0.26721319
v 0.17007589 -0.29886999 0.26700453
v 0.16939421 -0.29875 0.26915001
v 0.16860191 -0.29875 0.26915001
v 0.16860191 -0.29886999 0.26915001
v 0.16939421 -0.29886999 0.26915001
v 0.17014099 -0.29875 0.26895231
v 0.16980368 -0.29875 0.26911705
v 0.16980368 -0.29886999 0.26911705
v 0.17014099 -0.29886999 0.26895231
v 0.1693895 -0.29875 0.26887857
v 0.16978329 -0.29875 0.26883152
v 0.16978329 -0.29886999 0.26883152
v 0.1693895 -0.29886999 0.26887857
v 0.16939734 -0.29875 0.26712141
v 0.16890627 -0.29875 0.26712141
v 0.16890627 -0.29886999 0.26712141
v 0.16939734 -0.29886999 0.26712141
v 0.16943186 -0.29875 0.26684999
v 0.16860191 -0.29875 0.26684999
v 0.16860191 -0.29875 0.26915001
v 0.16939421 -0.29875 0.26915001
v 0.16980368 -0.29875 0.26911705
v 0.17014099 -0.29875 0.26895231
v 0.17041321 -0.29875 0.2685593
v 0.17050341 -0.29875 0.26801254
v 0.17044222 -0.29875 0.26754816
v 0.17028534 -0.29875 0.26721319
v 0.17007589 -0.29875 0.26700453
v 0.16980133 -0.29875 0.26688923
v 0.16890627 -0.29875 0.26887857
v 0.16890627 -0.29875 0.26712141
v 0.16939734 -0.29875 0.26712141
v 0.16975426 -0.29875 0.26716377
v 0.16996058 -0.29875 0.26728302
v 0.17012922 -0.29875 0.26757404
v 0.17018963 -0.29875 0.26801725
v 0.17016003 -0.29875 0.26833633
v 0.17007118 -0.29875 0.26857185
v 0.16978329 -0.29875 0.26883152
v 0.1693895 -0.29875 0.26887857
v 0.17007118 -0.29875 0.26857185
v 0.17016003 -0.29875 0.26833633
v 0.17018963 -0.29875 0.26801725
v 0.17018963 -0.29886999 0.26801725
v 0.17016003 -0.29886999 0.26833633
v 0.17007118 -0.29886999 0.26857185
v 0.16860191 -0.29875 0.26684999
v 0.16943186 -0.29875 0.26684999
v 0.16943186 -0.29886999 0.26684999
v 0.16860191 -0.29886999 0.26684999
v 0.16890627 -0.29875 0.26712141
v 0.16890627 -0.29875 0.26887857
v 0.16890627 -0.29886999 0.26887857
v 0.16890627 -0.29886999 0.26712141
v 0.17012922 -0.29875 0.26757404
v 0.16996058 -0.29875 0.26728302
v 0.16996058 -0.29886999 0.26728302
v 0.17012922 -0.29886999 0.26757404
v 0.17041321 -0.29875 0.2685593
v 0.17014099 -0.29875 0.26895231
v 0.17014099 -0.29886999 0.26895231
v 0.17041321 -0.29886999 0.2685593
v 0.16860191 -0.29886999 0.26684999
v 0.16943186 -0.29886999 0.26684999
v 0.16980133 -0.29886999 0.26688923
v 0.17007589 -0.29886999 0.26700453
v 0.17028534 -0.29886999 0.26721319
v 0.17044222 -0.29886999 0.26754816
v 0.17050341 -0.29886999 0.26801254
v 0.17041321 -0.29886999 0.2685593
v 0.17014099 -0.29886999 0.26895231
v 0.16980368 -0.29886999 0.26911705
v 0.16939421 -0.29886999 0.26915001
v 0.16860191 -0.29886999 0.26915001
v 0.16890627 -0.29886999 0.26712141
v 0.16890627 -0.29886999 0.26887857
v 0.1693895 -0.29886999 0.26887857
v 0.16978329 -0.29886999 0.26883152
v 0.17007118 -0.29886999 0.26857185
v 0.17016003 -0.29886999 0.26833633
v 0.17018963 -0.29886999 0.26801725
v 0.17012922 -0.29886999 0.26757404
v 0.16996058 -0.29886999 0.26728302
v 0.16975426 -0.29886999 0.26716377
v 0.16939734 -0.29886999 0.26712141
v 0.16975426 -0.29875 0.26716377
v 0.16939734 -0.29875 0.26712141
v 0.16939734 -0.29886999 0.26712141
v 0.16975426 -0.29886999 0.26716377
v 0.16943186 -0.29875 0.26684999
v 0.16980133 -0.29875 0.26688923
v 0.16980133 -0.29886999 0.26688923
v 0.16943186 -0.29886999 0.26684999
v 0.17028534 -0.29875 0.26721319
v 0.17044222 -0.29875 0.26754816
v 0.17044222 -0.29886999 0.26754816
v 0.17028534 -0.29886999 0.26721319
f 1 2 4
f 4 2 3
f 5 6 8
f 8 6 7
f 9 10 12
f 12 10 11
f 13 14 16
f 16 14 15
f 17 18 20
f 20 18 19
f 21 22 24
f 24 22 23
f 25 26 28
f 28 26 27
f 29 30 32
f 32 30 31
f 33 34 36
f 36 34 35
f 37 38 40
f 40 38 39
f 41 42 44
f 44 42 43
f 45 46 48
f 48 46 47
f 49 50 52
f 52 50 51
f 53 54 56
f 56 54 55
f 58 70 57
f 57 70 71
f 57 71 72
f 70 58 69
f 69 58 59
f 69 59 60
f 69 60 79
f 79 60 61
f 79 61 78
f 78 61 62
f 78 62 77
f 77 62 63
f 77 63 76
f 76 63 64
f 76 64 75
f 75 64 65
f 75 65 74
f 74 65 66
f 74 66 73
f 73 66 67
f 73 67 72
f 72 67 68
f 72 68 57
f 80 81 85
f 85 81 84
f 84 81 82
f 84 82 83
f 86 87 89
f 89 87 88
f 90 91 93
f 93 91 92
f 94 95 97
f 97 95 96
f 98 99 101
f 101 99 100
f 103 114 102
f 102 114 115
f 102 115 113
f 113 115 112
f 112 115 116
f 112 116 111
f 111 116 117
f 111 117 110
f 110 117 118
f 110 118 109
f 109 118 119
f 109 119 108
f 108 119 120
f 108 120 107
f 107 120 121
f 107 121 106
f 106 121 122
f 106 122 105
f 105 122 123
f 105 123 104
f 104 123 103
f 103 123 124
f 103 124 114
f 125 126 128
f 128 126 127
f 129 130 132
f 132 130 131
f 133 134 136
f 136 134 135
