v 0.01028397 0.053041472 9.9999998e-05
v 0.010574965 0.054492769 9.9999998e-05
v 0.010574965 0.054492769 0.000125
v 0.01028397 0.053041472 0.000125
v 0.011304297 0.053380356 9.9999998e-05
v 0.010782162 0.053295636 9.9999998e-05
v 0.01028397 0.053041472 9.9999998e-05
v 0.01028397 0.053041472 0.000125
v 0.010782162 0.053295636 0.000125
v 0.011304297 0.053380356 0.000125
v 0.010574965 0.054492769 9.9999998e-05
v 0.012729809 0.054492769 9.9999998e-05
v 0.012729809 0.054492769 0.000125
v 0.010574965 0.054492769 0.000125
v 0.012497749 0.052890449 9.9999998e-05
v 0.011956276 0.05325788 9.9999998e-05
v 0.011304297 0.053380356 9.9999998e-05
v 0.011304297 0.053380356 0.000125
v 0.011956276 0.05325788 0.000125
v 0.012497749 0.052890449 0.000125
v 0.012729809 0.054492769 9.9999998e-05
v 0.012729809 0.055126328 9.9999998e-05
v 0.012729809 0.055126328 0.000125
v 0.012729809 0.054492769 0.000125
v 0.012983971 0.051630697 9.9999998e-05
v 0.012862415 0.052330561 9.9999998e-05
v 0.012497749 0.052890449 9.9999998e-05
v 0.012497749 0.052890449 0.000125
v 0.012862415 0.052330561 0.000125
v 0.012983971 0.051630697 0.000125
v 0.012729809 0.055126328 9.9999998e-05
v 0.010044543 0.055126328 9.9999998e-05
v 0.010044543 0.055126328 0.000125
v 0.012729809 0.055126328 0.000125
v 0.012556685 0.050363574 9.9999998e-05
v 0.01287715 0.050947409 9.9999998e-05
v 0.012983971 0.051630697 9.9999998e-05
v 0.012983971 0.051630697 0.000125
v 0.01287715 0.050947409 0.000125
v 0.012556685 0.050363574 0.000125
v 0.010044543 0.055126328 9.9999998e-05
v 0.0095214868 0.052352662 9.9999998e-05
v 0.0095214868 0.052352662 0.000125
v 0.010044543 0.055126328 0.000125
v 0.011138541 0.049707913 9.9999998e-05
v 0.011942463 0.049871826 9.9999998e-05
v 0.012556685 0.050363574 9.9999998e-05
v 0.012556685 0.050363574 0.000125
v 0.011942463 0.049871826 0.000125
v 0.011138541 0.049707913 0.000125
v 0.0095214868 0.052352662 9.9999998e-05
v 0.010143998 0.052271624 9.9999998e-05
v 0.010143998 0.052271624 0.000125
v 0.0095214868 0.052352662 0.000125
v 0.0099358797 0.050120463 9.9999998e-05
v 0.010469526 0.049811049 9.9999998e-05
v 0.011138541 0.049707913 9.9999998e-05
v 0.011138541 0.049707913 0.000125
v 0.010469526 0.049811049 0.000125
v 0.0099358797 0.050120463 0.000125
v 0.010143998 0.052271624 9.9999998e-05
v 0.010549182 0.052649183 9.9999998e-05
v 0.010549182 0.052649183 0.000125
v 0.010143998 0.052271624 0.000125
v 0.009403615 0.051214461 0.000125
v 0.0095698327 0.050600238 0.000125
v 0.0099358797 0.050120463 0.000125
v 0.010469526 0.049811049 0.000125
v 0.011138541 0.049707913 0.000125
v 0.011942463 0.049871826 0.000125
v 0.012556685 0.050363574 0.000125
v 0.01287715 0.050947409 0.000125
v 0.012983971 0.051630697 0.000125
v 0.012862415 0.052330561 0.000125
v 0.012497749 0.052890449 0.000125
v 0.011956276 0.05325788 0.000125
v 0.011304297 0.053380356 0.000125
v 0.010782162 0.053295636 0.000125
v 0.01028397 0.053041472 0.000125
v 0.010574965 0.054492769 0.000125
v 0.012729809 0.054492769 0.000125
v 0.012729809 0.055126328 0.000125
v 0.010044543 0.055126328 0.000125
v 0.0095214868 0.052352662 0.000125
v 0.010143998 0.052271624 0.000125
v 0.010549182 0.052649183 0.000125
v 0.01112749 0.052794681 0.000125
v 0.011593912 0.052712722 0.000125
v 0.011961801 0.05246685 0.000125
v 0.012200768 0.052079163 0.000125
v 0.012280424 0.05157176 0.000125
v 0.012197545 0.051033969 0.000125
v 0.011948909 0.050614052 0.000125
v 0.01158056 0.050343313 0.000125
v 0.011138541 0.050253067 0.000125
v 0.010769731 0.050317068 0.000125
v 0.010458935 0.050509071 0.000125
v 0.010228257 0.050828156 0.000125
v 0.010099795 0.051273398 0.000125
v 0.010549182 0.052649183 9.9999998e-05
v 0.01112749 0.052794681 9.9999998e-05
v 0.01112749 0.052794681 0.000125
v 0.010549182 0.052649183 0.000125
v 0.009403615 0.051214461 9.9999998e-05
v 0.0095698327 0.050600238 9.9999998e-05
v 0.0099358797 0.050120463 9.9999998e-05
v 0.0099358797 0.050120463 0.000125
v 0.0095698327 0.050600238 0.000125
v 0.009403615 0.051214461 0.000125
v 0.01112749 0.052794681 9.9999998e-05
v 0.011593912 0.052712722 9.9999998e-05
v 0.011961801 0.05246685 9.9999998e-05
v 0.011961801 0.05246685 0.000125
v 0.011593912 0.052712722 0.000125
v 0.01112749 0.052794681 0.000125
v 0.0099358797 0.050120463 9.9999998e-05
v 0.0095698327 0.050600238 9.9999998e-05
v 0.009403615 0.051214461 9.9999998e-05
v 0.010099795 0.051273398 9.9999998e-05
v 0.010228257 0.050828156 9.9999998e-05
v 0.010458935 0.050509071 9.9999998e-05
v 0.010769731 0.050317068 9.9999998e-05
v 0.011138541 0.050253067 9.9999998e-05
v 0.01158056 0.050343313 9.9999998e-05
v 0.011948909 0.050614052 9.9999998e-05
v 0.012197545 0.051033969 9.9999998e-05
v 0.012280424 0.05157176 9.9999998e-05
v 0.012200768 0.052079163 9.9999998e-05
v 0.011961801 0.05246685 9.9999998e-05
v 0.011593912 0.052712722 9.9999998e-05
v 0.01112749 0.052794681 9.9999998e-05
v 0.010549182 0.052649183 9.9999998e-05
v 0.010143998 0.052271624 9.9999998e-05
v 0.0095214868 0.052352662 9.9999998e-05
v 0.010044543 0.055126328 9.9999998e-05
v 0.012729809 0.055126328 9.9999998e-05
v 0.012729809 0.054492769 9.9999998e-05
v 0.010574965 0.054492769 9.9999998e-05
v 0.01028397 0.053041472 9.9999998e-05
v 0.010782162 0.053295636 9.9999998e-05
v 0.011304297 0.053380356 9.9999998e-05
v 0.011956276 0.05325788 9.9999998e-05
v 0.012497749 0.052890449 9.9999998e-05
v 0.012862415 0.052330561 9.9999998e-05
v 0.012983971 0.051630697 9.9999998e-05
v 0.01287715 0.050947409 9.9999998e-05
v 0.012556685 0.050363574 9.9999998e-05
v 0.011942463 0.049871826 9.9999998e-05
v 0.011138541 0.049707913 9.9999998e-05
v 0.010469526 0.049811049 9.9999998e-05
v 0.011961801 0.05246685 9.9999998e-05
v 0.012200768 0.052079163 9.9999998e-05
v 0.012280424 0.05157176 9.9999998e-05
v 0.012280424 0.05157176 0.000125
v 0.012200768 0.052079163 0.000125
v 0.011961801 0.05246685 0.000125
v 0.012280424 0.05157176 9.9999998e-05
v 0.012197545 0.051033969 9.9999998e-05
v 0.011948909 0.050614052 9.9999998e-05
v 0.011948909 0.050614052 0.000125
v 0.012197545 0.051033969 0.000125
v 0.012280424 0.05157176 0.000125
v 0.011948909 0.050614052 9.9999998e-05
v 0.01158056 0.050343313 9.9999998e-05
v 0.011138541 0.050253067 9.9999998e-05
v 0.011138541 0.050253067 0.000125
v 0.01158056 0.050343313 0.000125
v 0.011948909 0.050614052 0.000125
v 0.011138541 0.050253067 9.9999998e-05
v 0.010769731 0.050317068 9.9999998e-05
v 0.010458935 0.050509071 9.9999998e-05
v 0.010458935 0.050509071 0.000125
v 0.010769731 0.050317068 0.000125
v 0.011138541 0.050253067 0.000125
v 0.010458935 0.050509071 9.9999998e-05
v 0.010228257 0.050828156 9.9999998e-05
v 0.010099795 0.051273398 9.9999998e-05
v 0.010099795 0.051273398 0.000125
v 0.010228257 0.050828156 0.000125
v 0.010458935 0.050509071 0.000125
v 0.010099795 0.051273398 9.9999998e-05
v 0.009403615 0.051214461 9.9999998e-05
v 0.009403615 0.051214461 0.000125
v 0.010099795 0.051273398 0.000125
f 1 2 4
f 4 2 3
f 5 6 10
f 10 6 9
f 9 6 7
f 9 7 8
f 11 12 14
f 14 12 13
f 15 16 20
f 20 16 19
f 19 16 17
f 19 17 18
f 21 22 24
f 24 22 23
f 25 26 30
f 30 26 29
f 29 26 27
f 29 27 28
f 31 32 34
f 34 32 33
f 35 36 40
f 40 36 39
f 39 36 37
f 39 37 38
f 41 42 44
f 44 42 43
f 45 46 50
f 50 46 49
f 49 46 47
f 49 47 48
f 51 52 54
f 54 52 53
f 55 56 60
f 60 56 59
f 59 56 57
f 59 57 58
f 61 62 64
f 64 62 63
f 65 66 99
f 99 66 98
f 98 66 67
f 98 67 97
f 97 67 68
f 97 68 96
f 96 68 69
f 96 69 95
f 95 69 94
f 94 69 70
f 94 70 93
f 93 70 71
f 93 71 92
f 92 71 72
f 92 72 91
f 91 72 73
f 91 73 74
f 91 74 90
f 90 74 75
f 90 75 89
f 89 75 76
f 89 76 88
f 88 76 77
f 88 77 87
f 87 77 78
f 87 78 86
f 86 78 79
f 86 79 85
f 85 79 84
f 84 79 83
f 83 79 80
f 83 80 82
f 82 80 81
f 100 101 103
f 103 101 102
f 104 105 109
f 109 105 108
f 108 105 106
f 108 106 107
f 110 111 115
f 115 111 114
f 114 111 112
f 114 112 113
f 117 120 116
f 116 120 121
f 116 121 150
f 150 121 122
f 150 122 149
f 149 122 123
f 149 123 124
f 118 119 117
f 117 119 120
f 149 124 148
f 148 124 125
f 148 125 147
f 147 125 126
f 147 126 146
f 146 126 127
f 146 127 145
f 145 127 144
f 144 127 128
f 144 128 143
f 143 128 129
f 143 129 142
f 142 129 130
f 142 130 141
f 141 130 131
f 141 131 140
f 140 131 132
f 140 132 139
f 139 132 133
f 139 133 134
f 134 135 139
f 139 135 138
f 138 135 136
f 138 136 137
f 151 152 156
f 156 152 155
f 155 152 153
f 155 153 154
f 157 158 162
f 162 158 161
f 161 158 159
f 161 159 160
f 163 164 168
f 168 164 167
f 167 164 165
f 167 165 166
f 169 170 174
f 174 170 173
f 173 170 171
f 173 171 172
f 175 176 180
f 180 176 179
f 179 176 177
f 179 177 178
f 181 182 184
f 184 182 183
