v 0.096686907 -0.29870001 0.19603956
v 0.09717804 -0.29870001 0.19651842
v 0.09717804 -0.29882 0.19651842
v 0.096686907 -0.29882 0.19603956
v 0.096686907 -0.29870001 0.195
v 0.096686907 -0.29870001 0.19603956
v 0.096686907 -0.29882 0.19603956
v 0.096686907 -0.29882 0.195
v 0.09717804 -0.29870001 0.19651842
v 0.09824625 -0.29870001 0.195
v 0.09824625 -0.29882 0.195
v 0.09717804 -0.29882 0.19651842
v 0.096289902 -0.29882 0.195
v 0.096686907 -0.29882 0.195
v 0.096686907 -0.29882 0.19603956
v 0.09717804 -0.29882 0.19651842
v 0.09824625 -0.29882 0.195
v 0.098770123 -0.29882 0.195
v 0.097456341 -0.29882 0.19678444
v 0.098714867 -0.29882 0.19799999
v 0.09817667 -0.29882 0.19799999
v 0.096686907 -0.29882 0.19651228
v 0.096686907 -0.29882 0.19799999
v 0.096289902 -0.29882 0.19799999
v 0.09824625 -0.29870001 0.195
v 0.098770123 -0.29870001 0.195
v 0.098770123 -0.29882 0.195
v 0.09824625 -0.29882 0.195
v 0.096289902 -0.29870001 0.195
v 0.096686907 -0.29870001 0.195
v 0.096686907 -0.29882 0.195
v 0.096289902 -0.29882 0.195
v 0.098770123 -0.29870001 0.195
v 0.097456341 -0.29870001 0.19678444
v 0.097456341 -0.29882 0.19678444
v 0.098770123 -0.29882 0.195
v 0.096686907 -0.29870001 0.195
v 0.096289902 -0.29870001 0.195
v 0.096289902 -0.29870001 0.19799999
v 0.096686907 -0.29870001 0.19799999
v 0.096686907 -0.29870001 0.19651228
v 0.09817667 -0.29870001 0.19799999
v 0.098714867 -0.29870001 0.19799999
v 0.097456341 -0.29870001 0.19678444
v 0.098770123 -0.29870001 0.195
v 0.09824625 -0.29870001 0.195
v 0.09717804 -0.29870001 0.19651842
v 0.096686907 -0.29870001 0.19603956
v 0.097456341 -0.29870001 0.19678444
v 0.098714867 -0.29870001 0.19799999
v 0.098714867 -0.29882 0.19799999
v 0.097456341 -0.29882 0.19678444
v 0.098714867 -0.29870001 0.19799999
v 0.09817667 -0.29870001 0.19799999
v 0.09817667 -0.29882 0.19799999
v 0.098714867 -0.29882 0.19799999
v 0.09817667 -0.29870001 0.19799999
v 0.096686907 -0.29870001 0.19651228
v 0.096686907 -0.29882 0.19651228
v 0.09817667 -0.29882 0.19799999
v 0.096686907 -0.29870001 0.19651228
v 0.096686907 -0.29870001 0.19799999
v 0.096686907 -0.29882 0.19799999
v 0.096686907 -0.29882 0.19651228
v 0.096686907 -0.29870001 0.19799999
v 0.096289902 -0.29870001 0.19799999
v 0.096289902 -0.29882 0.19799999
v 0.096686907 -0.29882 0.19799999
v 0.096289902 -0.29870001 0.19799999
v 0.096289902 -0.29870001 0.195
v 0.096289902 -0.29882 0.195
v 0.096289902 -0.29882 0.19799999
f 1 2 4
f 4 2 3
f 5 6 8
f 8 6 7
f 9 10 12
f 12 10 11
f 14 15 13
f 13 15 22
f 13 22 24
f 24 22 23
f 15 16 22
f 22 16 19
f 22 19 21
f 21 19 20
f 16 17 19
f 19 17 18
f 25 26 28
f 28 26 27
f 29 30 32
f 32 30 31
f 33 34 36
f 36 34 35
f 37 38 48
f 48 38 41
f 48 41 47
f 47 41 44
f 47 44 46
f 46 44 45
f 38 39 41
f 41 39 40
f 41 42 44
f 44 42 43
f 49 50 52
f 52 50 51
f 53 54 56
f 56 54 55
f 57 58 60
f 60 58 59
f 61 62 64
f 64 62 63
f 65 66 68
f 68 66 67
f 69 70 72
f 72 70 71
