v -0.15076876 -0.2982 0.10321794
v -0.15056314 -0.2982 0.10397585
v -0.15041627 -0.2982 0.10484405
v -0.15032814 -0.2982 0.10582253
v -0.15029877 -0.2982 0.10691133
v -0.15029877 -0.29832001 0.10691133
v -0.15032814 -0.29832001 0.10582253
v -0.15041627 -0.29832001 0.10484405
v -0.15056314 -0.29832001 0.10397585
v -0.15076876 -0.29832001 0.10321794
v -0.15217428 -0.2982 0.10104536
v -0.15135513 -0.2982 0.10197203
v -0.15076876 -0.2982 0.10321794
v -0.15076876 -0.29832001 0.10321794
v -0.15135513 -0.29832001 0.10197203
v -0.15217428 -0.29832001 0.10104536
v -0.15029877 -0.2982 0.10691133
v -0.15031706 -0.2982 0.10782829
v -0.15037193 -0.2982 0.10864606
v -0.15046338 -0.2982 0.10936461
v -0.1505914 -0.2982 0.10998397
v -0.1505914 -0.29832001 0.10998397
v -0.15046338 -0.29832001 0.10936461
v -0.15037193 -0.29832001 0.10864606
v -0.15031706 -0.29832001 0.10782829
v -0.15029877 -0.29832001 0.10691133
v -0.15453752 -0.2982 0.10027831
v -0.15385443 -0.2982 0.10032625
v -0.15323286 -0.2982 0.10047007
v -0.15267282 -0.2982 0.10070977
v -0.15217428 -0.2982 0.10104536
v -0.15217428 -0.29832001 0.10104536
v -0.15267282 -0.29832001 0.10070977
v -0.15323286 -0.29832001 0.10047007
v -0.15385443 -0.29832001 0.10032625
v -0.15453752 -0.29832001 0.10027831
v -0.1505914 -0.2982 0.10998397
v -0.15093946 -0.2982 0.11103701
v -0.15139836 -0.2982 0.11191712
v -0.15139836 -0.29832001 0.11191712
v -0.15093946 -0.29832001 0.11103701
v -0.1505914 -0.29832001 0.10998397
v -0.15749045 -0.2982 0.1016262
v -0.15690352 -0.2982 0.10103649
v -0.15621572 -0.2982 0.10061528
v -0.15542706 -0.2982 0.10036255
v -0.15453752 -0.2982 0.10027831
v -0.15453752 -0.29832001 0.10027831
v -0.15542706 -0.29832001 0.10036255
v -0.15621572 -0.29832001 0.10061528
v -0.15690352 -0.29832001 0.10103649
v -0.15749045 -0.29832001 0.1016262
v -0.15139836 -0.2982 0.11191712
v -0.15198141 -0.2982 0.11261766
v -0.15270191 -0.2982 0.11313199
v -0.15270191 -0.29832001 0.11313199
v -0.15198141 -0.29832001 0.11261766
v -0.15139836 -0.29832001 0.11191712
v -0.15877626 -0.2982 0.10691133
v -0.1586959 -0.2982 0.10520762
v -0.15845481 -0.2982 0.10375887
v -0.158053 -0.2982 0.10256506
v -0.15749045 -0.2982 0.1016262
v -0.15749045 -0.29832001 0.1016262
v -0.158053 -0.29832001 0.10256506
v -0.15845481 -0.29832001 0.10375887
v -0.1586959 -0.29832001 0.10520762
v -0.15877626 -0.29832001 0.10691133
v -0.15270191 -0.2982 0.11313199
v -0.15355542 -0.2982 0.1134479
v -0.15453752 -0.2982 0.11355321
v -0.15453752 -0.29832001 0.11355321
v -0.15355542 -0.29832001 0.1134479
v -0.15270191 -0.29832001 0.11313199
v -0.15453752 -0.2982 0.11355321
v -0.15521672 -0.2982 0.11350554
v -0.15583552 -0.2982 0.11336255
v -0.15639391 -0.2982 0.11312423
v -0.15689188 -0.2982 0.11279058
v -0.15689188 -0.29832001 0.11279058
v -0.15639391 -0.29832001 0.11312423
v -0.15583552 -0.29832001 0.11336255
v -0.15521672 -0.29832001 0.11350554
v -0.15453752 -0.29832001 0.11355321
v -0.15689188 -0.2982 0.11279058
v -0.15771214 -0.2982 0.11186724
v -0.15830184 -0.2982 0.11062244
v -0.15830184 -0.29832001 0.11062244
v -0.15771214 -0.29832001 0.11186724
v -0.15689188 -0.29832001 0.11279058
v -0.15830184 -0.2982 0.11062244
v -0.1585094 -0.2982 0.10986342
v -0.15865766 -0.2982 0.1089919
v -0.15874661 -0.2982 0.10800786
v -0.15877626 -0.2982 0.10691133
v -0.15877626 -0.29832001 0.10691133
v -0.15874661 -0.29832001 0.10800786
v -0.15865766 -0.29832001 0.1089919
v -0.1585094 -0.29832001 0.10986342
v -0.15830184 -0.29832001 0.11062244
v -0.15877626 -0.29832001 0.10691133
v -0.1586959 -0.29832001 0.10520762
v -0.15845481 -0.29832001 0.10375887
v -0.158053 -0.29832001 0.10256506
v -0.15749045 -0.29832001 0.1016262
v -0.15690352 -0.29832001 0.10103649
v -0.15621572 -0.29832001 0.10061528
v -0.15542706 -0.29832001 0.10036255
v -0.15453752 -0.29832001 0.10027831
v -0.15385443 -0.29832001 0.10032625
v -0.15323286 -0.29832001 0.10047007
v -0.15267282 -0.29832001 0.10070977
v -0.15217428 -0.29832001 0.10104536
v -0.15135513 -0.29832001 0.10197203
v -0.15076876 -0.29832001 0.10321794
v -0.15056314 -0.29832001 0.10397585
v -0.15041627 -0.29832001 0.10484405
v -0.15032814 -0.29832001 0.10582253
v -0.15029877 -0.29832001 0.10691133
v -0.15031706 -0.29832001 0.10782829
v -0.15037193 -0.29832001 0.10864606
v -0.15046338 -0.29832001 0.10936461
v -0.1505914 -0.29832001 0.10998397
v -0.15093946 -0.29832001 0.11103701
v -0.15139836 -0.29832001 0.11191712
v -0.15198141 -0.29832001 0.11261766
v -0.15270191 -0.29832001 0.11313199
v -0.15355542 -0.29832001 0.1134479
v -0.15453752 -0.29832001 0.11355321
v -0.15521672 -0.29832001 0.11350554
v -0.15583552 -0.29832001 0.11336255
v -0.15639391 -0.29832001 0.11312423
v -0.15689188 -0.29832001 0.11279058
v -0.15771214 -0.29832001 0.11186724
v -0.15830184 -0.29832001 0.11062244
v -0.1585094 -0.29832001 0.10986342
v -0.15865766 -0.29832001 0.1089919
v -0.15874661 -0.29832001 0.10800786
v -0.15713574 -0.29832001 0.10691133
v -0.1570842 -0.29832001 0.10838613
v -0.15692957 -0.29832001 0.10960931
v -0.15667186 -0.29832001 0.11058087
v -0.15631105 -0.29832001 0.11130082
v -0.15595524 -0.29832001 0.11170817
v -0.15554399 -0.29832001 0.11199915
v -0.15507733 -0.29832001 0.11217373
v -0.15455525 -0.29832001 0.11223192
v -0.15401959 -0.29832001 0.11216597
v -0.15352993 -0.29832001 0.11196811
v -0.15308627 -0.29832001 0.11163835
v -0.15268861 -0.29832001 0.11117667
v -0.15236078 -0.29832001 0.11051436
v -0.15212662 -0.29832001 0.10958271
v -0.15198612 -0.29832001 0.10838169
v -0.15193929 -0.29832001 0.10691133
v -0.15198612 -0.29832001 0.10544816
v -0.15212662 -0.29832001 0.10425102
v -0.15236078 -0.29832001 0.10331991
v -0.15268861 -0.29832001 0.10265484
v -0.15308517 -0.29832001 0.10218929
v -0.1535255 -0.29832001 0.10185676
v -0.15400962 -0.29832001 0.10165723
v -0.15453752 -0.29832001 0.10159072
v -0.15506542 -0.29832001 0.10165695
v -0.15554955 -0.29832001 0.10185564
v -0.15598988 -0.29832001 0.10218679
v -0.15638642 -0.29832001 0.1026504
v -0.15671425 -0.29832001 0.10331409
v -0.15694841 -0.29832001 0.10424548
v -0.15708891 -0.29832001 0.10544456
v -0.15713574 -0.2982 0.10691133
v -0.1570842 -0.2982 0.10838613
v -0.15692957 -0.2982 0.10960931
v -0.15667186 -0.2982 0.11058087
v -0.15631105 -0.2982 0.11130082
v -0.15631105 -0.29832001 0.11130082
v -0.15667186 -0.29832001 0.11058087
v -0.15692957 -0.29832001 0.10960931
v -0.1570842 -0.29832001 0.10838613
v -0.15713574 -0.29832001 0.10691133
v -0.15631105 -0.2982 0.11130082
v -0.15595524 -0.2982 0.11170817
v -0.15554399 -0.2982 0.11199915
v -0.15507733 -0.2982 0.11217373
v -0.15455525 -0.2982 0.11223192
v -0.15455525 -0.29832001 0.11223192
v -0.15507733 -0.29832001 0.11217373
v -0.15554399 -0.29832001 0.11199915
v -0.15595524 -0.29832001 0.11170817
v -0.15631105 -0.29832001 0.11130082
v -0.15749045 -0.2982 0.1016262
v -0.158053 -0.2982 0.10256506
v -0.15845481 -0.2982 0.10375887
v -0.1586959 -0.2982 0.10520762
v -0.15877626 -0.2982 0.10691133
v -0.15874661 -0.2982 0.10800786
v -0.15865766 -0.2982 0.1089919
v -0.1585094 -0.2982 0.10986342
v -0.15830184 -0.2982 0.11062244
v -0.15771214 -0.2982 0.11186724
v -0.15689188 -0.2982 0.11279058
v -0.15639391 -0.2982 0.11312423
v -0.15583552 -0.2982 0.11336255
v -0.15521672 -0.2982 0.11350554
v -0.15453752 -0.2982 0.11355321
v -0.15355542 -0.2982 0.1134479
v -0.15270191 -0.2982 0.11313199
v -0.15198141 -0.2982 0.11261766
v -0.15139836 -0.2982 0.11191712
v -0.15093946 -0.2982 0.11103701
v -0.1505914 -0.2982 0.10998397
v -0.15046338 -0.2982 0.10936461
v -0.15037193 -0.2982 0.10864606
v -0.15031706 -0.2982 0.10782829
v -0.15029877 -0.2982 0.10691133
v -0.15032814 -0.2982 0.10582253
v -0.15041627 -0.2982 0.10484405
v -0.15056314 -0.2982 0.10397585
v -0.15076876 -0.2982 0.10321794
v -0.15135513 -0.2982 0.10197203
v -0.15217428 -0.2982 0.10104536
v -0.15267282 -0.2982 0.10070977
v -0.15323286 -0.2982 0.10047007
v -0.15385443 -0.2982 0.10032625
v -0.15453752 -0.2982 0.10027831
v -0.15542706 -0.2982 0.10036255
v -0.15621572 -0.2982 0.10061528
v -0.15690352 -0.2982 0.10103649
v -0.15631105 -0.2982 0.11130082
v -0.15667186 -0.2982 0.11058087
v -0.15692957 -0.2982 0.10960931
v -0.1570842 -0.2982 0.10838613
v -0.15713574 -0.2982 0.10691133
v -0.15708891 -0.2982 0.10544456
v -0.15694841 -0.2982 0.10424548
v -0.15671425 -0.2982 0.10331409
v -0.15638642 -0.2982 0.1026504
v -0.15598988 -0.2982 0.10218679
v -0.15554955 -0.2982 0.10185564
v -0.15506542 -0.2982 0.10165695
v -0.15453752 -0.2982 0.10159072
v -0.15400962 -0.2982 0.10165723
v -0.1535255 -0.2982 0.10185676
v -0.15308517 -0.2982 0.10218929
v -0.15268861 -0.2982 0.10265484
v -0.15236078 -0.2982 0.10331991
v -0.15212662 -0.2982 0.10425102
v -0.15198612 -0.2982 0.10544816
v -0.15193929 -0.2982 0.10691133
v -0.15198612 -0.2982 0.10838169
v -0.15212662 -0.2982 0.10958271
v -0.15236078 -0.2982 0.11051436
v -0.15268861 -0.2982 0.11117667
v -0.15308627 -0.2982 0.11163835
v -0.15352993 -0.2982 0.11196811
v -0.15401959 -0.2982 0.11216597
v -0.15455525 -0.2982 0.11223192
v -0.15507733 -0.2982 0.11217373
v -0.15554399 -0.2982 0.11199915
v -0.15595524 -0.2982 0.11170817
v -0.15455525 -0.2982 0.11223192
v -0.15401959 -0.2982 0.11216597
v -0.15352993 -0.2982 0.11196811
v -0.15308627 -0.2982 0.11163835
v -0.15268861 -0.2982 0.11117667
v -0.15268861 -0.29832001 0.11117667
v -0.15308627 -0.29832001 0.11163835
v -0.15352993 -0.29832001 0.11196811
v -0.15401959 -0.29832001 0.11216597
v -0.15455525 -0.29832001 0.11223192
v -0.15268861 -0.2982 0.11117667
v -0.15236078 -0.2982 0.11051436
v -0.15212662 -0.2982 0.10958271
v -0.15198612 -0.2982 0.10838169
v -0.15193929 -0.2982 0.10691133
v -0.15193929 -0.29832001 0.10691133
v -0.15198612 -0.29832001 0.10838169
v -0.15212662 -0.29832001 0.10958271
v -0.15236078 -0.29832001 0.11051436
v -0.15268861 -0.29832001 0.11117667
v -0.15193929 -0.2982 0.10691133
v -0.15198612 -0.2982 0.10544816
v -0.15212662 -0.2982 0.10425102
v -0.15236078 -0.2982 0.10331991
v -0.15268861 -0.2982 0.10265484
v -0.15268861 -0.29832001 0.10265484
v -0.15236078 -0.29832001 0.10331991
v -0.15212662 -0.29832001 0.10425102
v -0.15198612 -0.29832001 0.10544816
v -0.15193929 -0.29832001 0.10691133
v -0.15268861 -0.2982 0.10265484
v -0.15308517 -0.2982 0.10218929
v -0.1535255 -0.2982 0.10185676
v -0.15400962 -0.2982 0.10165723
v -0.15453752 -0.2982 0.10159072
v -0.15453752 -0.29832001 0.10159072
v -0.15400962 -0.29832001 0.10165723
v -0.1535255 -0.29832001 0.10185676
v -0.15308517 -0.29832001 0.10218929
v -0.15268861 -0.29832001 0.10265484
v -0.15453752 -0.2982 0.10159072
v -0.15506542 -0.2982 0.10165695
v -0.15554955 -0.2982 0.10185564
v -0.15598988 -0.2982 0.10218679
v -0.15638642 -0.2982 0.1026504
v -0.15638642 -0.29832001 0.1026504
v -0.15598988 -0.29832001 0.10218679
v -0.15554955 -0.29832001 0.10185564
v -0.15506542 -0.29832001 0.10165695
v -0.15453752 -0.29832001 0.10159072
v -0.15638642 -0.2982 0.1026504
v -0.15671425 -0.2982 0.10331409
v -0.15694841 -0.2982 0.10424548
v -0.15708891 -0.2982 0.10544456
v -0.15713574 -0.2982 0.10691133
v -0.15713574 -0.29832001 0.10691133
v -0.15708891 -0.29832001 0.10544456
v -0.15694841 -0.29832001 0.10424548
v -0.15671425 -0.29832001 0.10331409
v -0.15638642 -0.29832001 0.1026504
f 1 2 10
f 10 2 9
f 9 2 3
f 9 3 8
f 8 3 4
f 8 4 7
f 7 4 5
f 7 5 6
f 11 12 16
f 16 12 15
f 15 12 13
f 15 13 14
f 17 18 26
f 26 18 25
f 25 18 19
f 25 19 24
f 24 19 20
f 24 20 23
f 23 20 21
f 23 21 22
f 27 28 36
f 36 28 35
f 35 28 29
f 35 29 34
f 34 29 30
f 34 30 33
f 33 30 31
f 33 31 32
f 37 38 42
f 42 38 41
f 41 38 39
f 41 39 40
f 43 44 52
f 52 44 51
f 51 44 45
f 51 45 50
f 50 45 46
f 50 46 49
f 49 46 47
f 49 47 48
f 53 54 58
f 58 54 57
f 57 54 55
f 57 55 56
f 59 60 68
f 68 60 67
f 67 60 61
f 67 61 66
f 66 61 62
f 66 62 65
f 65 62 63
f 65 63 64
f 69 70 74
f 74 70 73
f 73 70 71
f 73 71 72
f 75 76 84
f 84 76 83
f 83 76 77
f 83 77 82
f 82 77 78
f 82 78 81
f 81 78 79
f 81 79 80
f 85 86 90
f 90 86 89
f 89 86 87
f 89 87 88
f 91 92 100
f 100 92 99
f 99 92 93
f 99 93 98
f 98 93 94
f 98 94 97
f 97 94 95
f 97 95 96
f 138 101 139
f 139 101 102
f 139 102 170
f 170 102 103
f 170 103 169
f 169 103 104
f 169 104 168
f 168 104 105
f 168 105 167
f 167 105 106
f 167 106 166
f 166 106 107
f 166 107 165
f 165 107 108
f 165 108 164
f 164 108 109
f 164 109 163
f 163 109 162
f 162 109 110
f 162 110 161
f 161 110 111
f 161 111 112
f 161 112 160
f 160 112 113
f 160 113 159
f 159 113 114
f 159 114 158
f 158 114 115
f 158 115 157
f 157 115 116
f 157 116 156
f 156 116 117
f 156 117 118
f 156 118 155
f 155 118 119
f 155 119 120
f 155 120 154
f 154 120 121
f 154 121 122
f 154 122 153
f 153 122 123
f 153 123 124
f 153 124 152
f 152 124 125
f 152 125 151
f 151 125 126
f 151 126 150
f 150 126 127
f 150 127 149
f 149 127 128
f 149 128 148
f 148 128 129
f 148 129 147
f 147 129 146
f 146 129 130
f 146 130 145
f 145 130 131
f 145 131 144
f 144 131 132
f 144 132 133
f 144 133 143
f 143 133 134
f 143 134 142
f 142 134 135
f 142 135 141
f 141 135 136
f 141 136 140
f 140 136 137
f 140 137 138
f 140 138 139
f 171 172 180
f 180 172 179
f 179 172 173
f 179 173 178
f 178 173 174
f 178 174 177
f 177 174 175
f 177 175 176
f 181 182 190
f 190 182 189
f 189 182 183
f 189 183 188
f 188 183 184
f 188 184 187
f 187 184 185
f 187 185 186
f 192 236 191
f 191 236 237
f 191 237 228
f 228 237 238
f 228 238 227
f 227 238 239
f 227 239 226
f 226 239 240
f 226 240 225
f 225 240 241
f 225 241 242
f 236 192 235
f 235 192 193
f 235 193 234
f 234 193 194
f 234 194 233
f 233 194 195
f 233 195 196
f 233 196 232
f 232 196 197
f 232 197 198
f 232 198 231
f 231 198 199
f 231 199 230
f 230 199 200
f 230 200 229
f 229 200 201
f 229 201 260
f 260 201 202
f 260 202 203
f 260 203 259
f 259 203 204
f 259 204 258
f 258 204 205
f 258 205 257
f 257 205 256
f 256 205 206
f 256 206 255
f 255 206 207
f 255 207 254
f 254 207 208
f 254 208 253
f 253 208 209
f 253 209 252
f 252 209 210
f 252 210 251
f 251 210 211
f 251 211 212
f 251 212 250
f 250 212 213
f 250 213 214
f 250 214 249
f 249 214 215
f 249 215 216
f 249 216 248
f 248 216 217
f 248 217 218
f 248 218 247
f 247 218 219
f 247 219 246
f 246 219 220
f 246 220 245
f 245 220 221
f 245 221 244
f 244 221 222
f 244 222 243
f 243 222 223
f 243 223 224
f 243 224 242
f 242 224 225
f 261 262 270
f 270 262 269
f 269 262 263
f 269 263 268
f 268 263 264
f 268 264 267
f 267 264 265
f 267 265 266
f 271 272 280
f 280 272 279
f 279 272 273
f 279 273 278
f 278 273 274
f 278 274 277
f 277 274 275
f 277 275 276
f 281 282 290
f 290 282 289
f 289 282 283
f 289 283 288
f 288 283 284
f 288 284 287
f 287 284 285
f 287 285 286
f 291 292 300
f 300 292 299
f 299 292 293
f 299 293 298
f 298 293 294
f 298 294 297
f 297 294 295
f 297 295 296
f 301 302 310
f 310 302 309
f 309 302 303
f 309 303 308
f 308 303 304
f 308 304 307
f 307 304 305
f 307 305 306
f 311 312 320
f 320 312 319
f 319 312 313
f 319 313 318
f 318 313 314
f 318 314 317
f 317 314 315
f 317 315 316
