v -0.19540417 -0.2982 0.11153138
v -0.19487017 -0.2982 0.11184563
v -0.19427464 -0.2982 0.11207008
v -0.19361761 -0.2982 0.11220476
v -0.19289904 -0.2982 0.11224966
v -0.19289904 -0.29832001 0.11224966
v -0.19361761 -0.29832001 0.11220476
v -0.19427464 -0.29832001 0.11207008
v -0.19487017 -0.29832001 0.11184563
v -0.19540417 -0.29832001 0.11153138
v -0.19681856 -0.2982 0.10960266
v -0.19626101 -0.2982 0.11069006
v -0.19540417 -0.2982 0.11153138
v -0.19540417 -0.29832001 0.11153138
v -0.19626101 -0.29832001 0.11069006
v -0.19681856 -0.29832001 0.10960266
v -0.19289904 -0.2982 0.11224966
v -0.19170635 -0.2982 0.11208782
v -0.19073534 -0.2982 0.11160232
v -0.19073534 -0.29832001 0.11160232
v -0.19170635 -0.29832001 0.11208782
v -0.19289904 -0.29832001 0.11224966
v -0.19722647 -0.2982 0.10710641
v -0.19712448 -0.2982 0.10837337
v -0.19681856 -0.2982 0.10960266
v -0.19681856 -0.29832001 0.10960266
v -0.19712448 -0.29832001 0.10837337
v -0.19722647 -0.29832001 0.10710641
v -0.19073534 -0.2982 0.11160232
v -0.19033075 -0.2982 0.11123043
v -0.18997715 -0.2982 0.11076211
v -0.18967453 -0.2982 0.11019734
v -0.18942291 -0.2982 0.10953615
v -0.18942291 -0.29832001 0.10953615
v -0.18967453 -0.29832001 0.11019734
v -0.18997715 -0.29832001 0.11076211
v -0.19033075 -0.29832001 0.11123043
v -0.19073534 -0.29832001 0.11160232
v -0.19674318 -0.2982 0.10421112
v -0.19710564 -0.2982 0.10555346
v -0.19722647 -0.2982 0.10710641
v -0.19722647 -0.29832001 0.10710641
v -0.19710564 -0.29832001 0.10555346
v -0.19674318 -0.29832001 0.10421112
v -0.18942291 -0.2982 0.10953615
v -0.18772919 -0.2982 0.1099352
v -0.18772919 -0.29832001 0.1099352
v -0.18942291 -0.29832001 0.10953615
v -0.19524012 -0.2982 0.10236221
v -0.19571648 -0.2982 0.10270721
v -0.19612577 -0.2982 0.10313037
v -0.19646801 -0.2982 0.10363167
v -0.19674318 -0.2982 0.10421112
v -0.19674318 -0.29832001 0.10421112
v -0.19646801 -0.29832001 0.10363167
v -0.19612577 -0.29832001 0.10313037
v -0.19571648 -0.29832001 0.10270721
v -0.19524012 -0.29832001 0.10236221
v -0.18772919 -0.2982 0.1099352
v -0.18804123 -0.2982 0.11078483
v -0.18845413 -0.2982 0.11153359
v -0.1889679 -0.2982 0.11218149
v -0.18958254 -0.2982 0.11272851
v -0.18958254 -0.29832001 0.11272851
v -0.1889679 -0.29832001 0.11218149
v -0.18845413 -0.29832001 0.11153359
v -0.18804123 -0.29832001 0.11078483
v -0.18772919 -0.29832001 0.1099352
v -0.19303205 -0.2982 0.10175034
v -0.1941782 -0.2982 0.10190331
v -0.19524012 -0.2982 0.10236221
v -0.19524012 -0.29832001 0.10236221
v -0.1941782 -0.29832001 0.10190331
v -0.19303205 -0.29832001 0.10175034
v -0.18958254 -0.2982 0.11272851
v -0.19028641 -0.2982 0.11316303
v -0.19106787 -0.2982 0.1134734
v -0.19192692 -0.2982 0.11365962
v -0.19286358 -0.2982 0.11372169
v -0.19286358 -0.29832001 0.11372169
v -0.19192692 -0.29832001 0.11365962
v -0.19106787 -0.29832001 0.1134734
v -0.19028641 -0.29832001 0.11316303
v -0.18958254 -0.29832001 0.11272851
v -0.19058458 -0.2982 0.1025839
v -0.19111332 -0.2982 0.10221922
v -0.19169748 -0.2982 0.10195873
v -0.19233706 -0.2982 0.10180243
v -0.19303205 -0.2982 0.10175034
v -0.19303205 -0.29832001 0.10175034
v -0.19233706 -0.29832001 0.10180243
v -0.19169748 -0.29832001 0.10195873
v -0.19111332 -0.29832001 0.10221922
v -0.19058458 -0.29832001 0.1025839
v -0.19286358 -0.2982 0.11372169
v -0.19370573 -0.2982 0.11367264
v -0.19451185 -0.2982 0.1135255
v -0.19528194 -0.2982 0.11328025
v -0.19601603 -0.2982 0.11293691
v -0.19601603 -0.29832001 0.11293691
v -0.19528194 -0.29832001 0.11328025
v -0.19451185 -0.29832001 0.1135255
v -0.19370573 -0.29832001 0.11367264
v -0.19286358 -0.29832001 0.11372169
v -0.18922783 -0.29832001 0.10505798
v -0.18944565 -0.29832001 0.10428816
v -0.18974438 -0.29832001 0.1036192
v -0.19012402 -0.29832001 0.10305112
v -0.19058458 -0.29832001 0.1025839
v -0.19111332 -0.29832001 0.10221922
v -0.19169748 -0.29832001 0.10195873
v -0.19233706 -0.29832001 0.10180243
v -0.19303205 -0.29832001 0.10175034
v -0.1941782 -0.29832001 0.10190331
v -0.19524012 -0.29832001 0.10236221
v -0.19571648 -0.29832001 0.10270721
v -0.19612577 -0.29832001 0.10313037
v -0.19646801 -0.29832001 0.10363167
v -0.19674318 -0.29832001 0.10421112
v -0.19710564 -0.29832001 0.10555346
v -0.19722647 -0.29832001 0.10710641
v -0.19712448 -0.29832001 0.10837337
v -0.19681856 -0.29832001 0.10960266
v -0.19626101 -0.29832001 0.11069006
v -0.19540417 -0.29832001 0.11153138
v -0.19487017 -0.29832001 0.11184563
v -0.19427464 -0.29832001 0.11207008
v -0.19361761 -0.29832001 0.11220476
v -0.19289904 -0.29832001 0.11224966
v -0.19170635 -0.29832001 0.11208782
v -0.19073534 -0.29832001 0.11160232
v -0.19033075 -0.29832001 0.11123043
v -0.18997715 -0.29832001 0.11076211
v -0.18967453 -0.29832001 0.11019734
v -0.18942291 -0.29832001 0.10953615
v -0.18772919 -0.29832001 0.1099352
v -0.18804123 -0.29832001 0.11078483
v -0.18845413 -0.29832001 0.11153359
v -0.1889679 -0.29832001 0.11218149
v -0.18958254 -0.29832001 0.11272851
v -0.19028641 -0.29832001 0.11316303
v -0.19106787 -0.29832001 0.1134734
v -0.19192692 -0.29832001 0.11365962
v -0.19286358 -0.29832001 0.11372169
v -0.19370573 -0.29832001 0.11367264
v -0.19451185 -0.29832001 0.1135255
v -0.19528194 -0.29832001 0.11328025
v -0.19601603 -0.29832001 0.11293691
v -0.19669107 -0.29832001 0.11249907
v -0.19728411 -0.29832001 0.11197033
v -0.1977951 -0.29832001 0.1113507
v -0.19822409 -0.29832001 0.11064017
v -0.19856354 -0.29832001 0.10985179
v -0.19880602 -0.29832001 0.10899855
v -0.19895151 -0.29832001 0.10808047
v -0.199 -0.29832001 0.10709754
v -0.19882818 -0.29832001 0.10529519
v -0.19831276 -0.29832001 0.10361255
v -0.19792978 -0.29832001 0.1028491
v -0.19746811 -0.29832001 0.10218153
v -0.19692774 -0.29832001 0.10160984
v -0.19630867 -0.29832001 0.10113403
v -0.1956012 -0.29832001 0.10075966
v -0.19479561 -0.29832001 0.10049224
v -0.19389194 -0.29832001 0.10033179
v -0.19289019 -0.29832001 0.10027831
v -0.19191391 -0.29832001 0.10034786
v -0.19101578 -0.29832001 0.10055653
v -0.19019579 -0.29832001 0.10090431
v -0.18945396 -0.29832001 0.1013912
v -0.18880524 -0.29832001 0.10201056
v -0.18826458 -0.29832001 0.10275571
v -0.18783201 -0.29832001 0.10362668
v -0.1875075 -0.29832001 0.10462346
v -0.19601603 -0.2982 0.11293691
v -0.19669107 -0.2982 0.11249907
v -0.19728411 -0.2982 0.11197033
v -0.1977951 -0.2982 0.1113507
v -0.19822409 -0.2982 0.11064017
v -0.19822409 -0.29832001 0.11064017
v -0.1977951 -0.29832001 0.1113507
v -0.19728411 -0.29832001 0.11197033
v -0.19669107 -0.29832001 0.11249907
v -0.19601603 -0.29832001 0.11293691
v -0.18922783 -0.2982 0.10505798
v -0.18944565 -0.2982 0.10428816
v -0.18974438 -0.2982 0.1036192
v -0.19012402 -0.2982 0.10305112
v -0.19058458 -0.2982 0.1025839
v -0.19058458 -0.29832001 0.1025839
v -0.19012402 -0.29832001 0.10305112
v -0.18974438 -0.29832001 0.1036192
v -0.18944565 -0.29832001 0.10428816
v -0.18922783 -0.29832001 0.10505798
v -0.19822409 -0.2982 0.11064017
v -0.19856354 -0.2982 0.10985179
v -0.19880602 -0.2982 0.10899855
v -0.19895151 -0.2982 0.10808047
v -0.199 -0.2982 0.10709754
v -0.199 -0.29832001 0.10709754
v -0.19895151 -0.29832001 0.10808047
v -0.19880602 -0.29832001 0.10899855
v -0.19856354 -0.29832001 0.10985179
v -0.19822409 -0.29832001 0.11064017
v -0.19058458 -0.2982 0.1025839
v -0.19012402 -0.2982 0.10305112
v -0.18974438 -0.2982 0.1036192
v -0.18944565 -0.2982 0.10428816
v -0.18922783 -0.2982 0.10505798
v -0.1875075 -0.2982 0.10462346
v -0.18783201 -0.2982 0.10362668
v -0.18826458 -0.2982 0.10275571
v -0.18880524 -0.2982 0.10201056
v -0.18945396 -0.2982 0.1013912
v -0.19019579 -0.2982 0.10090431
v -0.19101578 -0.2982 0.10055653
v -0.19191391 -0.2982 0.10034786
v -0.19289019 -0.2982 0.10027831
v -0.19389194 -0.2982 0.10033179
v -0.19479561 -0.2982 0.10049224
v -0.1956012 -0.2982 0.10075966
v -0.19630867 -0.2982 0.10113403
v -0.19692774 -0.2982 0.10160984
v -0.19746811 -0.2982 0.10218153
v -0.19792978 -0.2982 0.1028491
v -0.19831276 -0.2982 0.10361255
v -0.19882818 -0.2982 0.10529519
v -0.199 -0.2982 0.10709754
v -0.19895151 -0.2982 0.10808047
v -0.19880602 -0.2982 0.10899855
v -0.19856354 -0.2982 0.10985179
v -0.19822409 -0.2982 0.11064017
v -0.1977951 -0.2982 0.1113507
v -0.19728411 -0.2982 0.11197033
v -0.19669107 -0.2982 0.11249907
v -0.19601603 -0.2982 0.11293691
v -0.19528194 -0.2982 0.11328025
v -0.19451185 -0.2982 0.1135255
v -0.19370573 -0.2982 0.11367264
v -0.19286358 -0.2982 0.11372169
v -0.19192692 -0.2982 0.11365962
v -0.19106787 -0.2982 0.1134734
v -0.19028641 -0.2982 0.11316303
v -0.18958254 -0.2982 0.11272851
v -0.1889679 -0.2982 0.11218149
v -0.18845413 -0.2982 0.11153359
v -0.18804123 -0.2982 0.11078483
v -0.18772919 -0.2982 0.1099352
v -0.18942291 -0.2982 0.10953615
v -0.18967453 -0.2982 0.11019734
v -0.18997715 -0.2982 0.11076211
v -0.19033075 -0.2982 0.11123043
v -0.19073534 -0.2982 0.11160232
v -0.19170635 -0.2982 0.11208782
v -0.19289904 -0.2982 0.11224966
v -0.19361761 -0.2982 0.11220476
v -0.19427464 -0.2982 0.11207008
v -0.19487017 -0.2982 0.11184563
v -0.19540417 -0.2982 0.11153138
v -0.19626101 -0.2982 0.11069006
v -0.19681856 -0.2982 0.10960266
v -0.19712448 -0.2982 0.10837337
v -0.19722647 -0.2982 0.10710641
v -0.19710564 -0.2982 0.10555346
v -0.19674318 -0.2982 0.10421112
v -0.19646801 -0.2982 0.10363167
v -0.19612577 -0.2982 0.10313037
v -0.19571648 -0.2982 0.10270721
v -0.19524012 -0.2982 0.10236221
v -0.1941782 -0.2982 0.10190331
v -0.19303205 -0.2982 0.10175034
v -0.19233706 -0.2982 0.10180243
v -0.19169748 -0.2982 0.10195873
v -0.19111332 -0.2982 0.10221922
v -0.199 -0.2982 0.10709754
v -0.19882818 -0.2982 0.10529519
v -0.19831276 -0.2982 0.10361255
v -0.19831276 -0.29832001 0.10361255
v -0.19882818 -0.29832001 0.10529519
v -0.199 -0.29832001 0.10709754
v -0.19831276 -0.2982 0.10361255
v -0.19792978 -0.2982 0.1028491
v -0.19746811 -0.2982 0.10218153
v -0.19692774 -0.2982 0.10160984
v -0.19630867 -0.2982 0.10113403
v -0.19630867 -0.29832001 0.10113403
v -0.19692774 -0.29832001 0.10160984
v -0.19746811 -0.29832001 0.10218153
v -0.19792978 -0.29832001 0.1028491
v -0.19831276 -0.29832001 0.10361255
v -0.19630867 -0.2982 0.10113403
v -0.1956012 -0.2982 0.10075966
v -0.19479561 -0.2982 0.10049224
v -0.19389194 -0.2982 0.10033179
v -0.19289019 -0.2982 0.10027831
v -0.19289019 -0.29832001 0.10027831
v -0.19389194 -0.29832001 0.10033179
v -0.19479561 -0.29832001 0.10049224
v -0.1956012 -0.29832001 0.10075966
v -0.19630867 -0.29832001 0.10113403
v -0.19289019 -0.2982 0.10027831
v -0.19191391 -0.2982 0.10034786
v -0.19101578 -0.2982 0.10055653
v -0.19019579 -0.2982 0.10090431
v -0.18945396 -0.2982 0.1013912
v -0.18945396 -0.29832001 0.1013912
v -0.19019579 -0.29832001 0.10090431
v -0.19101578 -0.29832001 0.10055653
v -0.19191391 -0.29832001 0.10034786
v -0.19289019 -0.29832001 0.10027831
v -0.18945396 -0.2982 0.1013912
v -0.18880524 -0.2982 0.10201056
v -0.18826458 -0.2982 0.10275571
v -0.18783201 -0.2982 0.10362668
v -0.1875075 -0.2982 0.10462346
v -0.1875075 -0.29832001 0.10462346
v -0.18783201 -0.29832001 0.10362668
v -0.18826458 -0.29832001 0.10275571
v -0.18880524 -0.29832001 0.10201056
v -0.18945396 -0.29832001 0.1013912
v -0.1875075 -0.2982 0.10462346
v -0.18922783 -0.2982 0.10505798
v -0.18922783 -0.29832001 0.10505798
v -0.1875075 -0.29832001 0.10462346
f 1 2 10
f 10 2 9
f 9 2 3
f 9 3 8
f 8 3 4
f 8 4 7
f 7 4 5
f 7 5 6
f 11 12 16
f 16 12 15
f 15 12 13
f 15 13 14
f 17 18 22
f 22 18 21
f 21 18 19
f 21 19 20
f 23 24 28
f 28 24 27
f 27 24 25
f 27 25 26
f 29 30 38
f 38 30 37
f 37 30 31
f 37 31 36
f 36 31 32
f 36 32 35
f 35 32 33
f 35 33 34
f 39 40 44
f 44 40 43
f 43 40 41
f 43 41 42
f 45 46 48
f 48 46 47
f 49 50 58
f 58 50 57
f 57 50 51
f 57 51 56
f 56 51 52
f 56 52 55
f 55 52 53
f 55 53 54
f 59 60 68
f 68 60 67
f 67 60 61
f 67 61 66
f 66 61 62
f 66 62 65
f 65 62 63
f 65 63 64
f 69 70 74
f 74 70 73
f 73 70 71
f 73 71 72
f 75 76 84
f 84 76 83
f 83 76 77
f 83 77 82
f 82 77 78
f 82 78 81
f 81 78 79
f 81 79 80
f 85 86 94
f 94 86 93
f 93 86 87
f 93 87 92
f 92 87 88
f 92 88 91
f 91 88 89
f 91 89 90
f 95 96 104
f 104 96 103
f 103 96 97
f 103 97 102
f 102 97 98
f 102 98 101
f 101 98 99
f 101 99 100
f 174 105 173
f 173 105 106
f 173 106 172
f 172 106 107
f 172 107 171
f 171 107 108
f 171 108 170
f 170 108 109
f 170 109 169
f 169 109 110
f 169 110 168
f 168 110 111
f 168 111 167
f 167 111 112
f 167 112 166
f 166 112 113
f 166 113 165
f 165 113 114
f 165 114 164
f 164 114 115
f 164 115 163
f 163 115 162
f 162 115 116
f 162 116 161
f 161 116 117
f 161 117 160
f 160 117 118
f 160 118 159
f 159 118 119
f 159 119 158
f 158 119 120
f 158 120 157
f 157 120 121
f 157 121 156
f 156 121 155
f 155 121 122
f 155 122 154
f 154 122 153
f 153 122 123
f 153 123 152
f 152 123 151
f 151 123 124
f 151 124 150
f 150 124 149
f 149 124 125
f 149 125 148
f 148 125 126
f 148 126 147
f 147 126 127
f 147 127 146
f 146 127 128
f 146 128 145
f 145 128 129
f 145 129 144
f 144 129 143
f 143 129 130
f 143 130 142
f 142 130 131
f 142 131 141
f 141 131 140
f 140 131 132
f 140 132 139
f 139 132 133
f 139 133 138
f 138 133 134
f 138 134 137
f 137 134 135
f 137 135 136
f 175 176 184
f 184 176 183
f 183 176 177
f 183 177 182
f 182 177 178
f 182 178 181
f 181 178 179
f 181 179 180
f 185 186 194
f 194 186 193
f 193 186 187
f 193 187 192
f 192 187 188
f 192 188 191
f 191 188 189
f 191 189 190
f 195 196 204
f 204 196 203
f 203 196 197
f 203 197 202
f 202 197 198
f 202 198 201
f 201 198 199
f 201 199 200
f 206 214 205
f 205 214 215
f 205 215 274
f 274 215 216
f 274 216 273
f 273 216 217
f 273 217 272
f 272 217 218
f 272 218 271
f 271 218 219
f 271 219 270
f 270 219 220
f 270 220 269
f 269 220 221
f 269 221 222
f 214 206 213
f 213 206 207
f 213 207 212
f 212 207 208
f 212 208 211
f 211 208 209
f 211 209 210
f 269 222 268
f 268 222 223
f 268 223 267
f 267 223 224
f 267 224 266
f 266 224 225
f 266 225 265
f 265 225 226
f 265 226 264
f 264 226 227
f 264 227 263
f 263 227 228
f 263 228 229
f 263 229 262
f 262 229 230
f 262 230 231
f 262 231 261
f 261 231 232
f 261 232 233
f 261 233 260
f 260 233 234
f 260 234 235
f 260 235 259
f 259 235 236
f 259 236 258
f 258 236 237
f 258 237 257
f 257 237 238
f 257 238 256
f 256 238 239
f 256 239 255
f 255 239 240
f 255 240 241
f 255 241 254
f 254 241 242
f 254 242 253
f 253 242 243
f 253 243 244
f 253 244 252
f 252 244 245
f 252 245 251
f 251 245 246
f 251 246 250
f 250 246 247
f 250 247 249
f 249 247 248
f 275 276 280
f 280 276 279
f 279 276 277
f 279 277 278
f 281 282 290
f 290 282 289
f 289 282 283
f 289 283 288
f 288 283 284
f 288 284 287
f 287 284 285
f 287 285 286
f 291 292 300
f 300 292 299
f 299 292 293
f 299 293 298
f 298 293 294
f 298 294 297
f 297 294 295
f 297 295 296
f 301 302 310
f 310 302 309
f 309 302 303
f 309 303 308
f 308 303 304
f 308 304 307
f 307 304 305
f 307 305 306
f 311 312 320
f 320 312 319
f 319 312 313
f 319 313 318
f 318 313 314
f 318 314 317
f 317 314 315
f 317 315 316
f 321 322 324
f 324 322 323
