v 0.15737544 0.10479114 9.9999998e-05
v 0.15684134 0.10511436 9.9999998e-05
v 0.15614515 0.1052221 9.9999998e-05
v 0.15614515 0.1052221 0.000125
v 0.15684134 0.10511436 0.000125
v 0.15737544 0.10479114 0.000125
v 0.15782851 0.10372292 9.9999998e-05
v 0.15771524 0.1043086 9.9999998e-05
v 0.15737544 0.10479114 9.9999998e-05
v 0.15737544 0.10479114 0.000125
v 0.15771524 0.1043086 0.000125
v 0.15782851 0.10372292 0.000125
v 0.15614515 0.1052221 9.9999998e-05
v 0.15545358 0.10512218 9.9999998e-05
v 0.15491856 0.10482244 9.9999998e-05
v 0.15491856 0.10482244 0.000125
v 0.15545358 0.10512218 0.000125
v 0.15614515 0.1052221 0.000125
v 0.1576959 0.10308567 9.9999998e-05
v 0.15782851 0.10372292 9.9999998e-05
v 0.15782851 0.10372292 0.000125
v 0.1576959 0.10308567 0.000125
v 0.15491856 0.10482244 9.9999998e-05
v 0.1545585 0.10433208 9.9999998e-05
v 0.15439181 0.1036603 9.9999998e-05
v 0.15439181 0.1036603 0.000125
v 0.1545585 0.10433208 0.000125
v 0.15491856 0.10482244 0.000125
v 0.15725573 0.10242633 9.9999998e-05
v 0.1576959 0.10308567 9.9999998e-05
v 0.1576959 0.10308567 0.000125
v 0.15725573 0.10242633 0.000125
v 0.15439181 0.1036603 9.9999998e-05
v 0.15507326 0.10359032 9.9999998e-05
v 0.15507326 0.10359032 0.000125
v 0.15439181 0.1036603 0.000125
v 0.15623356 0.10147599 9.9999998e-05
v 0.1568464 0.10201562 9.9999998e-05
v 0.15725573 0.10242633 9.9999998e-05
v 0.15725573 0.10242633 0.000125
v 0.1568464 0.10201562 0.000125
v 0.15623356 0.10147599 0.000125
v 0.15507326 0.10359032 9.9999998e-05
v 0.15514785 0.10404338 9.9999998e-05
v 0.15536426 0.10438595 9.9999998e-05
v 0.15536426 0.10438595 0.000125
v 0.15514785 0.10404338 0.000125
v 0.15507326 0.10359032 0.000125
v 0.1554674 0.10079638 9.9999998e-05
v 0.15574366 0.10105561 9.9999998e-05
v 0.15623356 0.10147599 9.9999998e-05
v 0.15623356 0.10147599 0.000125
v 0.15574366 0.10105561 0.000125
v 0.1554674 0.10079638 0.000125
v 0.15536426 0.10438595 9.9999998e-05
v 0.15569945 0.10460143 9.9999998e-05
v 0.15613042 0.10467326 9.9999998e-05
v 0.15613042 0.10467326 0.000125
v 0.15569945 0.10460143 0.000125
v 0.15536426 0.10438595 0.000125
v 0.15518744 0.10043724 9.9999998e-05
v 0.1554674 0.10079638 9.9999998e-05
v 0.1554674 0.10079638 0.000125
v 0.15518744 0.10043724 0.000125
v 0.15613042 0.10467326 9.9999998e-05
v 0.15654067 0.10460558 9.9999998e-05
v 0.15686528 0.10440252 9.9999998e-05
v 0.15686528 0.10440252 0.000125
v 0.15654067 0.10460558 0.000125
v 0.15613042 0.10467326 0.000125
v 0.15783588 0.10043724 0.000125
v 0.15518744 0.10043724 0.000125
v 0.1554674 0.10079638 0.000125
v 0.15574366 0.10105561 0.000125
v 0.15623356 0.10147599 0.000125
v 0.1568464 0.10201562 0.000125
v 0.15725573 0.10242633 0.000125
v 0.1576959 0.10308567 0.000125
v 0.15782851 0.10372292 0.000125
v 0.15771524 0.1043086 0.000125
v 0.15737544 0.10479114 0.000125
v 0.15684134 0.10511436 0.000125
v 0.15614515 0.1052221 0.000125
v 0.15545358 0.10512218 0.000125
v 0.15491856 0.10482244 0.000125
v 0.1545585 0.10433208 0.000125
v 0.15439181 0.1036603 0.000125
v 0.15507326 0.10359032 0.000125
v 0.15514785 0.10404338 0.000125
v 0.15536426 0.10438595 0.000125
v 0.15569945 0.10460143 0.000125
v 0.15613042 0.10467326 0.000125
v 0.15654067 0.10460558 0.000125
v 0.15686528 0.10440252 0.000125
v 0.15707662 0.10410093 0.000125
v 0.15714706 0.10373765 0.000125
v 0.15706971 0.10335043 0.000125
v 0.15683765 0.10294018 0.000125
v 0.15638551 0.10244337 0.000125
v 0.15564789 0.10179646 0.000125
v 0.15514739 0.10135996 0.000125
v 0.15478043 0.10097872 0.000125
v 0.15434393 0.10026044 0.000125
v 0.15426658 0.099799995 0.000125
v 0.15783588 0.099799995 0.000125
v 0.15686528 0.10440252 9.9999998e-05
v 0.15707662 0.10410093 9.9999998e-05
v 0.15714706 0.10373765 9.9999998e-05
v 0.15714706 0.10373765 0.000125
v 0.15707662 0.10410093 0.000125
v 0.15686528 0.10440252 0.000125
v 0.15783588 0.10043724 9.9999998e-05
v 0.15518744 0.10043724 9.9999998e-05
v 0.15518744 0.10043724 0.000125
v 0.15783588 0.10043724 0.000125
v 0.15714706 0.10373765 9.9999998e-05
v 0.15706971 0.10335043 9.9999998e-05
v 0.15683765 0.10294018 9.9999998e-05
v 0.15683765 0.10294018 0.000125
v 0.15706971 0.10335043 0.000125
v 0.15714706 0.10373765 0.000125
v 0.15518744 0.10043724 9.9999998e-05
v 0.15783588 0.10043724 9.9999998e-05
v 0.15783588 0.099799995 9.9999998e-05
v 0.15426658 0.099799995 9.9999998e-05
v 0.15434393 0.10026044 9.9999998e-05
v 0.15478043 0.10097872 9.9999998e-05
v 0.15514739 0.10135996 9.9999998e-05
v 0.15564789 0.10179646 9.9999998e-05
v 0.15638551 0.10244337 9.9999998e-05
v 0.15683765 0.10294018 9.9999998e-05
v 0.15706971 0.10335043 9.9999998e-05
v 0.15714706 0.10373765 9.9999998e-05
v 0.15707662 0.10410093 9.9999998e-05
v 0.15686528 0.10440252 9.9999998e-05
v 0.15654067 0.10460558 9.9999998e-05
v 0.15613042 0.10467326 9.9999998e-05
v 0.15569945 0.10460143 9.9999998e-05
v 0.15536426 0.10438595 9.9999998e-05
v 0.15514785 0.10404338 9.9999998e-05
v 0.15507326 0.10359032 9.9999998e-05
v 0.15439181 0.1036603 9.9999998e-05
v 0.1545585 0.10433208 9.9999998e-05
v 0.15491856 0.10482244 9.9999998e-05
v 0.15545358 0.10512218 9.9999998e-05
v 0.15614515 0.1052221 9.9999998e-05
v 0.15684134 0.10511436 9.9999998e-05
v 0.15737544 0.10479114 9.9999998e-05
v 0.15771524 0.1043086 9.9999998e-05
v 0.15782851 0.10372292 9.9999998e-05
v 0.1576959 0.10308567 9.9999998e-05
v 0.15725573 0.10242633 9.9999998e-05
v 0.1568464 0.10201562 9.9999998e-05
v 0.15623356 0.10147599 9.9999998e-05
v 0.15574366 0.10105561 9.9999998e-05
v 0.1554674 0.10079638 9.9999998e-05
v 0.15683765 0.10294018 9.9999998e-05
v 0.15638551 0.10244337 9.9999998e-05
v 0.15564789 0.10179646 9.9999998e-05
v 0.15564789 0.10179646 0.000125
v 0.15638551 0.10244337 0.000125
v 0.15683765 0.10294018 0.000125
v 0.15564789 0.10179646 9.9999998e-05
v 0.15514739 0.10135996 9.9999998e-05
v 0.15478043 0.10097872 9.9999998e-05
v 0.15478043 0.10097872 0.000125
v 0.15514739 0.10135996 0.000125
v 0.15564789 0.10179646 0.000125
v 0.15478043 0.10097872 9.9999998e-05
v 0.15434393 0.10026044 9.9999998e-05
v 0.15434393 0.10026044 0.000125
v 0.15478043 0.10097872 0.000125
v 0.15434393 0.10026044 9.9999998e-05
v 0.15426658 0.099799995 9.9999998e-05
v 0.15426658 0.099799995 0.000125
v 0.15434393 0.10026044 0.000125
v 0.15426658 0.099799995 9.9999998e-05
v 0.15783588 0.099799995 9.9999998e-05
v 0.15783588 0.099799995 0.000125
v 0.15426658 0.099799995 0.000125
v 0.15783588 0.099799995 9.9999998e-05
v 0.15783588 0.10043724 9.9999998e-05
v 0.15783588 0.10043724 0.000125
v 0.15783588 0.099799995 0.000125
f 1 2 6
f 6 2 5
f 5 2 3
f 5 3 4
f 7 8 12
f 12 8 11
f 11 8 9
f 11 9 10
f 13 14 18
f 18 14 17
f 17 14 15
f 17 15 16
f 19 20 22
f 22 20 21
f 23 24 28
f 28 24 27
f 27 24 25
f 27 25 26
f 29 30 32
f 32 30 31
f 33 34 36
f 36 34 35
f 37 38 42
f 42 38 41
f 41 38 39
f 41 39 40
f 43 44 48
f 48 44 47
f 47 44 45
f 47 45 46
f 49 50 54
f 54 50 53
f 53 50 51
f 53 51 52
f 55 56 60
f 60 56 59
f 59 56 57
f 59 57 58
f 61 62 64
f 64 62 63
f 65 66 70
f 70 66 69
f 69 66 67
f 69 67 68
f 71 72 105
f 105 72 104
f 104 72 103
f 103 72 102
f 102 72 101
f 101 72 73
f 101 73 74
f 101 74 100
f 100 74 75
f 100 75 99
f 99 75 76
f 99 76 98
f 98 76 77
f 98 77 97
f 97 77 78
f 97 78 96
f 96 78 79
f 96 79 80
f 96 80 95
f 95 80 81
f 95 81 94
f 94 81 82
f 94 82 93
f 93 82 83
f 93 83 92
f 92 83 91
f 91 83 84
f 91 84 90
f 90 84 85
f 90 85 89
f 89 85 86
f 89 86 88
f 88 86 87
f 106 107 111
f 111 107 110
f 110 107 108
f 110 108 109
f 112 113 115
f 115 113 114
f 116 117 121
f 121 117 120
f 120 117 118
f 120 118 119
f 123 124 122
f 122 124 125
f 122 125 126
f 126 127 122
f 122 127 128
f 122 128 156
f 156 128 155
f 155 128 129
f 155 129 154
f 154 129 130
f 154 130 153
f 153 130 131
f 153 131 152
f 152 131 132
f 152 132 151
f 151 132 133
f 151 133 150
f 150 133 149
f 149 133 134
f 149 134 148
f 148 134 135
f 148 135 147
f 147 135 136
f 147 136 146
f 146 136 137
f 146 137 138
f 146 138 145
f 145 138 139
f 145 139 144
f 144 139 140
f 144 140 143
f 143 140 141
f 143 141 142
f 157 158 162
f 162 158 161
f 161 158 159
f 161 159 160
f 163 164 168
f 168 164 167
f 167 164 165
f 167 165 166
f 169 170 172
f 172 170 171
f 173 174 176
f 176 174 175
f 177 178 180
f 180 178 179
f 181 182 184
f 184 182 183
