v 0.20799999 -0.3 0.03
v 0.20799999 0.3 0.03
v 0.21 0.3 0.03
v 0.21 -0.3 0.03
v 0.20799999 -0.3 0.03
v 0.21 -0.3 0.03
v 0.21 -0.3 0.31
v 0.20799999 -0.3 0.31
v 0.21 0.3 0.03
v 0.20799999 0.3 0.03
v 0.20799999 0.3 0.31
v 0.21 0.3 0.31
v 0.21 0 0.2
v 0.21 0 0.31
v 0.21 -0.3 0.31
v 0.21 -0.3 0.03
v 0.21 0.3 0.03
v 0.21 0.3 0.31
v 0.21 0.25 0.31
v 0.21 0.25 0.2
v 0.20799999 0 0.31
v 0.20799999 0 0.2
v 0.20799999 0.25 0.2
v 0.20799999 0.25 0.31
v 0.20799999 0.3 0.31
v 0.20799999 0.3 0.03
v 0.20799999 -0.3 0.03
v 0.20799999 -0.3 0.31
v 0.20799999 0.25 0.31
v 0.21 0.25 0.31
v 0.21 0.3 0.31
v 0.20799999 0.3 0.31
v 0.21 0 0.31
v 0.20799999 0 0.31
v 0.20799999 -0.3 0.31
v 0.21 -0.3 0.31
v 0.21 0 0.31
v 0.21 0 0.2
v 0.20799999 0 0.2
v 0.20799999 0 0.31
v 0.21 0 0.2
v 0.21 0.25 0.2
v 0.20799999 0.25 0.2
v 0.20799999 0 0.2
v 0.21 0.25 0.2
v 0.21 0.25 0.31
v 0.20799999 0.25 0.31
v 0.20799999 0.25 0.2
f 2 3 1
f 1 3 4
f 5 6 8
f 8 6 7
f 9 10 12
f 12 10 11
f 14 15 13
f 13 15 16
f 13 16 17
f 13 17 20
f 20 17 18
f 20 18 19
f 21 22 28
f 28 22 27
f 27 22 26
f 26 22 23
f 26 23 25
f 25 23 24
f 29 30 32
f 32 30 31
f 33 34 36
f 36 34 35
f 37 38 40
f 40 38 39
f 41 42 44
f 44 42 43
f 45 46 48
f 48 46 47
