v -0.03 -0.043000002 0.42299999
v -0.03 -0.04 0.42299999
v 0.088000002 -0.04 0.42299999
v 0.088000002 -0.043000002 0.42299999
v -0.03 -0.04 0.42299999
v -0.03 -0.04 0.45
v 0.088000002 -0.04 0.45
v 0.088000002 -0.04 0.42299999
v -0.03 -0.043000002 0.42299999
v -0.03 -0.043000002 0.45
v -0.03 -0.04 0.45
v -0.03 -0.04 0.42299999
v -0.03 -0.04 0.45
v -0.03 -0.043000002 0.45
v 0.088000002 -0.043000002 0.45
v 0.088000002 -0.04 0.45
v 0.088000002 -0.043000002 0.42299999
v 0.088000002 -0.04 0.42299999
v 0.088000002 -0.04 0.45
v 0.088000002 -0.043000002 0.45
v -0.03 -0.043000002 0.45
v -0.03 -0.043000002 0.42299999
v 0.088000002 -0.043000002 0.42299999
v 0.088000002 -0.043000002 0.45
f 2 3 1
f 1 3 4
f 6 7 5
f 5 7 8
f 9 10 12
f 12 10 11
f 14 15 13
f 13 15 16
f 17 18 20
f 20 18 19
f 22 23 21
f 21 23 24
