v -0.18 0.30299999 0.26299999
v -0.17980536 0.30299999 0.26021654
v -0.17922523 0.30299999 0.25748726
v -0.17827091 0.30299999 0.25486526
v -0.17696096 0.30299999 0.25240162
v -0.17532089 0.30299999 0.25014425
v -0.17338261 0.30299999 0.24813711
v -0.17118385 0.30299999 0.24641924
v -0.16876741 0.30299999 0.24502413
v -0.16618034 0.30299999 0.24397886
v -0.16347296 0.30299999 0.24330385
v -0.16069799 0.30299999 0.24301218
v -0.15790943 0.30299999 0.24310957
v -0.15516156 0.30299999 0.24359409
v -0.15250787 0.30299999 0.24445633
v -0.15 0.30299999 0.24567949
v -0.14768677 0.30299999 0.24723978
v -0.1456132 0.30299999 0.24910683
v -0.14381966 0.30299999 0.2512443
v -0.14234105 0.30299999 0.25361057
v -0.14120615 0.30299999 0.25615959
v -0.14043705 0.30299999 0.25884176
v -0.14004872 0.30299999 0.26160486
v -0.14004872 0.30299999 0.26439512
v -0.14043705 0.30299999 0.26715824
v -0.14120615 0.30299999 0.26984041
v -0.14234105 0.30299999 0.27238943
v -0.14381966 0.30299999 0.27475571
v -0.1456132 0.30299999 0.27689316
v -0.14768677 0.30299999 0.27876022
v -0.15 0.30299999 0.28032051
v -0.15250787 0.30299999 0.28154367
v -0.15516156 0.30299999 0.28240591
v -0.15790943 0.30299999 0.28289043
v -0.16069799 0.30299999 0.28298782
v -0.16347296 0.30299999 0.28269615
v -0.16618034 0.30299999 0.28202112
v -0.16876741 0.30299999 0.28097588
v -0.17118385 0.30299999 0.27958075
v -0.17338261 0.30299999 0.27786289
v -0.17532089 0.30299999 0.27585575
v -0.17696096 0.30299999 0.27359838
v -0.17827091 0.30299999 0.27113474
v -0.17922523 0.30299999 0.26851274
v -0.17980536 0.30299999 0.26578346
v -0.18 0.3 0.26299999
v -0.17980536 0.3 0.26578346
v -0.17922523 0.3 0.26851274
v -0.17827091 0.3 0.27113474
v -0.17696096 0.3 0.27359838
v -0.17532089 0.3 0.27585575
v -0.17338261 0.3 0.27786289
v -0.17118385 0.3 0.27958075
v -0.16876741 0.3 0.28097588
v -0.16618034 0.3 0.28202112
v -0.16347296 0.3 0.28269615
v -0.16069799 0.3 0.28298782
v -0.15790943 0.3 0.28289043
v -0.15516156 0.3 0.28240591
v -0.15250787 0.3 0.28154367
v -0.15 0.3 0.28032051
v -0.14768677 0.3 0.27876022
v -0.1456132 0.3 0.27689316
v -0.14381966 0.3 0.27475571
v -0.14234105 0.3 0.27238943
v -0.14120615 0.3 0.26984041
v -0.14043705 0.3 0.26715824
v -0.14004872 0.3 0.26439512
v -0.14004872 0.3 0.26160486
v -0.14043705 0.3 0.25884176
v -0.14120615 0.3 0.25615959
v -0.14234105 0.3 0.25361057
v -0.14381966 0.3 0.2512443
v -0.1456132 0.3 0.24910683
v -0.14768677 0.3 0.24723978
v -0.15 0.3 0.24567949
v -0.15250787 0.3 0.24445633
v -0.15516156 0.3 0.24359409
v -0.15790943 0.3 0.24310957
v -0.16069799 0.3 0.24301218
v -0.16347296 0.3 0.24330385
v -0.16618034 0.3 0.24397886
v -0.16876741 0.3 0.24502413
v -0.17118385 0.3 0.24641924
v -0.17338261 0.3 0.24813711
v -0.17532089 0.3 0.25014425
v -0.17696096 0.3 0.25240162
v -0.17827091 0.3 0.25486526
v -0.17922523 0.3 0.25748726
v -0.17980536 0.3 0.26021654
v -0.18 0.3 0.26299999
v -0.18 0.30299999 0.26299999
v -0.176 0.30299999 0.26299999
v -0.17580301 0.30299999 0.26049706
v -0.1752169 0.30299999 0.25805573
v -0.1742561 0.30299999 0.25573616
v -0.17294428 0.30299999 0.25359543
v -0.17131371 0.30299999 0.25168629
v -0.16940456 0.30299999 0.25005573
v -0.16726385 0.30299999 0.2487439
v -0.16494427 0.30299999 0.24778309
v -0.16250296 0.30299999 0.24719698
v -0.16 0.30299999 0.24700001
v -0.15749705 0.30299999 0.24719698
v -0.15505573 0.30299999 0.24778309
v -0.15273615 0.30299999 0.2487439
v -0.15059544 0.30299999 0.25005573
v -0.14868629 0.30299999 0.25168629
v -0.14705573 0.30299999 0.25359543
v -0.14574389 0.30299999 0.25573616
v -0.1447831 0.30299999 0.25805573
v -0.14419699 0.30299999 0.26049706
v -0.144 0.30299999 0.26299999
v -0.14419699 0.30299999 0.26550295
v -0.1447831 0.30299999 0.26794428
v -0.14574389 0.30299999 0.27026384
v -0.14705573 0.30299999 0.27240456
v -0.14868629 0.30299999 0.27431372
v -0.15059544 0.30299999 0.27594427
v -0.15273615 0.30299999 0.27725611
v -0.15505573 0.30299999 0.2782169
v -0.15749705 0.30299999 0.27880301
v -0.16 0.30299999 0.279
v -0.16250296 0.30299999 0.27880301
v -0.16494427 0.30299999 0.2782169
v -0.16726385 0.30299999 0.27725611
v -0.16940456 0.30299999 0.27594427
v -0.17131371 0.30299999 0.27431372
v -0.17294428 0.30299999 0.27240456
v -0.1742561 0.30299999 0.27026384
v -0.1752169 0.30299999 0.26794428
v -0.17580301 0.30299999 0.26550295
v -0.18 0.30299999 0.26299999
v -0.17980536 0.30299999 0.26578346
v -0.17922523 0.30299999 0.26851274
v -0.17827091 0.30299999 0.27113474
v -0.17696096 0.30299999 0.27359838
v -0.17532089 0.30299999 0.27585575
v -0.17338261 0.30299999 0.27786289
v -0.17118385 0.30299999 0.27958075
v -0.16876741 0.30299999 0.28097588
v -0.16618034 0.30299999 0.28202112
v -0.16347296 0.30299999 0.28269615
v -0.16069799 0.30299999 0.28298782
v -0.15790943 0.30299999 0.28289043
v -0.15516156 0.30299999 0.28240591
v -0.15250787 0.30299999 0.28154367
v -0.15 0.30299999 0.28032051
v -0.14768677 0.30299999 0.27876022
v -0.1456132 0.30299999 0.27689316
v -0.14381966 0.30299999 0.27475571
v -0.14234105 0.30299999 0.27238943
v -0.14120615 0.30299999 0.26984041
v -0.14043705 0.30299999 0.26715824
v -0.14004872 0.30299999 0.26439512
v -0.14004872 0.30299999 0.26160486
v -0.14043705 0.30299999 0.25884176
v -0.14120615 0.30299999 0.25615959
v -0.14234105 0.30299999 0.25361057
v -0.14381966 0.30299999 0.2512443
v -0.1456132 0.30299999 0.24910683
v -0.14768677 0.30299999 0.24723978
v -0.15 0.30299999 0.24567949
v -0.15250787 0.30299999 0.24445633
v -0.15516156 0.30299999 0.24359409
v -0.15790943 0.30299999 0.24310957
v -0.16069799 0.30299999 0.24301218
v -0.16347296 0.30299999 0.24330385
v -0.16618034 0.30299999 0.24397886
v -0.16876741 0.30299999 0.24502413
v -0.17118385 0.30299999 0.24641924
v -0.17338261 0.30299999 0.24813711
v -0.17532089 0.30299999 0.25014425
v -0.17696096 0.30299999 0.25240162
v -0.17827091 0.30299999 0.25486526
v -0.17922523 0.30299999 0.25748726
v -0.17980536 0.30299999 0.26021654
v -0.176 0.3 0.26299999
v -0.17580301 0.3 0.26550295
v -0.1752169 0.3 0.26794428
v -0.1742561 0.3 0.27026384
v -0.17294428 0.3 0.27240456
v -0.17131371 0.3 0.27431372
v -0.16940456 0.3 0.27594427
v -0.16726385 0.3 0.27725611
v -0.16494427 0.3 0.2782169
v -0.16250296 0.3 0.27880301
v -0.16 0.3 0.279
v -0.15749705 0.3 0.27880301
v -0.15505573 0.3 0.2782169
v -0.15273615 0.3 0.27725611
v -0.15059544 0.3 0.27594427
v -0.14868629 0.3 0.27431372
v -0.14705573 0.3 0.27240456
v -0.14574389 0.3 0.27026384
v -0.1447831 0.3 0.26794428
v -0.14419699 0.3 0.26550295
v -0.144 0.3 0.26299999
v -0.14419699 0.3 0.26049706
v -0.1447831 0.3 0.25805573
v -0.14574389 0.3 0.25573616
v -0.14705573 0.3 0.25359543
v -0.14868629 0.3 0.25168629
v -0.15059544 0.3 0.25005573
v -0.15273615 0.3 0.2487439
v -0.15505573 0.3 0.24778309
v -0.15749705 0.3 0.24719698
v -0.16 0.3 0.24700001
v -0.16250296 0.3 0.24719698
v -0.16494427 0.3 0.24778309
v -0.16726385 0.3 0.2487439
v -0.16940456 0.3 0.25005573
v -0.17131371 0.3 0.25168629
v -0.17294428 0.3 0.25359543
v -0.1742561 0.3 0.25573616
v -0.1752169 0.3 0.25805573
v -0.17580301 0.3 0.26049706
v -0.18 0.3 0.26299999
v -0.17980536 0.3 0.26021654
v -0.17922523 0.3 0.25748726
v -0.17827091 0.3 0.25486526
v -0.17696096 0.3 0.25240162
v -0.17532089 0.3 0.25014425
v -0.17338261 0.3 0.24813711
v -0.17118385 0.3 0.24641924
v -0.16876741 0.3 0.24502413
v -0.16618034 0.3 0.24397886
v -0.16347296 0.3 0.24330385
v -0.16069799 0.3 0.24301218
v -0.15790943 0.3 0.24310957
v -0.15516156 0.3 0.24359409
v -0.15250787 0.3 0.24445633
v -0.15 0.3 0.24567949
v -0.14768677 0.3 0.24723978
v -0.1456132 0.3 0.24910683
v -0.14381966 0.3 0.2512443
v -0.14234105 0.3 0.25361057
v -0.14120615 0.3 0.25615959
v -0.14043705 0.3 0.25884176
v -0.14004872 0.3 0.26160486
v -0.14004872 0.3 0.26439512
v -0.14043705 0.3 0.26715824
v -0.14120615 0.3 0.26984041
v -0.14234105 0.3 0.27238943
v -0.14381966 0.3 0.27475571
v -0.1456132 0.3 0.27689316
v -0.14768677 0.3 0.27876022
v -0.15 0.3 0.28032051
v -0.15250787 0.3 0.28154367
v -0.15516156 0.3 0.28240591
v -0.15790943 0.3 0.28289043
v -0.16069799 0.3 0.28298782
v -0.16347296 0.3 0.28269615
v -0.16618034 0.3 0.28202112
v -0.16876741 0.3 0.28097588
v -0.17118385 0.3 0.27958075
v -0.17338261 0.3 0.27786289
v -0.17532089 0.3 0.27585575
v -0.17696096 0.3 0.27359838
v -0.17827091 0.3 0.27113474
v -0.17922523 0.3 0.26851274
v -0.17980536 0.3 0.26578346
v -0.176 0.30299999 0.26299999
v -0.17580301 0.30299999 0.26550295
v -0.1752169 0.30299999 0.26794428
v -0.1742561 0.30299999 0.27026384
v -0.17294428 0.30299999 0.27240456
v -0.17131371 0.30299999 0.27431372
v -0.16940456 0.30299999 0.27594427
v -0.16726385 0.30299999 0.27725611
v -0.16494427 0.30299999 0.2782169
v -0.16250296 0.30299999 0.27880301
v -0.16 0.30299999 0.279
v -0.15749705 0.30299999 0.27880301
v -0.15505573 0.30299999 0.2782169
v -0.15273615 0.30299999 0.27725611
v -0.15059544 0.30299999 0.27594427
v -0.14868629 0.30299999 0.27431372
v -0.14705573 0.30299999 0.27240456
v -0.14574389 0.30299999 0.27026384
v -0.1447831 0.30299999 0.26794428
v -0.14419699 0.30299999 0.26550295
v -0.144 0.30299999 0.26299999
v -0.14419699 0.30299999 0.26049706
v -0.1447831 0.30299999 0.25805573
v -0.14574389 0.30299999 0.25573616
v -0.14705573 0.30299999 0.25359543
v -0.14868629 0.30299999 0.25168629
v -0.15059544 0.30299999 0.25005573
v -0.15273615 0.30299999 0.2487439
v -0.15505573 0.30299999 0.24778309
v -0.15749705 0.30299999 0.24719698
v -0.16 0.30299999 0.24700001
v -0.16250296 0.30299999 0.24719698
v -0.16494427 0.30299999 0.24778309
v -0.16726385 0.30299999 0.2487439
v -0.16940456 0.30299999 0.25005573
v -0.17131371 0.30299999 0.25168629
v -0.17294428 0.30299999 0.25359543
v -0.1742561 0.30299999 0.25573616
v -0.1752169 0.30299999 0.25805573
v -0.17580301 0.30299999 0.26049706
v -0.176 0.3 0.26299999
v -0.17580301 0.3 0.26049706
v -0.1752169 0.3 0.25805573
v -0.1742561 0.3 0.25573616
v -0.17294428 0.3 0.25359543
v -0.17131371 0.3 0.25168629
v -0.16940456 0.3 0.25005573
v -0.16726385 0.3 0.2487439
v -0.16494427 0.3 0.24778309
v -0.16250296 0.3 0.24719698
v -0.16 0.3 0.24700001
v -0.15749705 0.3 0.24719698
v -0.15505573 0.3 0.24778309
v -0.15273615 0.3 0.2487439
v -0.15059544 0.3 0.25005573
v -0.14868629 0.3 0.25168629
v -0.14705573 0.3 0.25359543
v -0.14574389 0.3 0.25573616
v -0.1447831 0.3 0.25805573
v -0.14419699 0.3 0.26049706
v -0.144 0.3 0.26299999
v -0.14419699 0.3 0.26550295
v -0.1447831 0.3 0.26794428
v -0.14574389 0.3 0.27026384
v -0.14705573 0.3 0.27240456
v -0.14868629 0.3 0.27431372
v -0.15059544 0.3 0.27594427
v -0.15273615 0.3 0.27725611
v -0.15505573 0.3 0.2782169
v -0.15749705 0.3 0.27880301
v -0.16 0.3 0.279
v -0.16250296 0.3 0.27880301
v -0.16494427 0.3 0.2782169
v -0.16726385 0.3 0.27725611
v -0.16940456 0.3 0.27594427
v -0.17131371 0.3 0.27431372
v -0.17294428 0.3 0.27240456
v -0.1742561 0.3 0.27026384
v -0.1752169 0.3 0.26794428
v -0.17580301 0.3 0.26550295
v -0.176 0.30299999 0.26299999
v -0.176 0.3 0.26299999
f 2 90 1
f 1 90 91
f 92 46 45
f 45 46 47
f 45 47 44
f 44 47 48
f 44 48 43
f 43 48 49
f 43 49 42
f 42 49 50
f 42 50 41
f 41 50 51
f 41 51 40
f 40 51 52
f 40 52 39
f 39 52 53
f 39 53 38
f 38 53 54
f 38 54 37
f 37 54 55
f 37 55 36
f 36 55 56
f 36 56 35
f 35 56 57
f 35 57 34
f 34 57 58
f 34 58 33
f 33 58 59
f 33 59 32
f 32 59 60
f 32 60 31
f 31 60 61
f 31 61 30
f 30 61 62
f 30 62 29
f 29 62 63
f 29 63 28
f 28 63 64
f 28 64 27
f 27 64 65
f 27 65 26
f 26 65 66
f 26 66 25
f 25 66 67
f 25 67 24
f 24 67 68
f 24 68 23
f 23 68 69
f 23 69 22
f 22 69 70
f 22 70 21
f 21 70 71
f 21 71 20
f 20 71 72
f 20 72 19
f 19 72 73
f 19 73 18
f 18 73 74
f 18 74 17
f 17 74 75
f 17 75 16
f 16 75 76
f 16 76 15
f 15 76 77
f 15 77 14
f 14 77 78
f 14 78 13
f 13 78 79
f 13 79 12
f 12 79 80
f 12 80 11
f 11 80 81
f 11 81 10
f 10 81 82
f 10 82 9
f 9 82 83
f 9 83 8
f 8 83 84
f 8 84 7
f 7 84 85
f 7 85 6
f 6 85 86
f 6 86 5
f 5 86 87
f 5 87 4
f 4 87 88
f 4 88 3
f 3 88 89
f 3 89 2
f 2 89 90
f 94 177 93
f 93 177 133
f 93 133 134
f 177 94 176
f 176 94 95
f 176 95 175
f 175 95 96
f 175 96 174
f 174 96 97
f 174 97 173
f 173 97 98
f 173 98 172
f 172 98 99
f 172 99 171
f 171 99 100
f 171 100 170
f 170 100 101
f 170 101 169
f 169 101 168
f 168 101 102
f 168 102 167
f 167 102 103
f 167 103 166
f 166 103 104
f 166 104 165
f 165 104 105
f 165 105 164
f 164 105 106
f 164 106 163
f 163 106 107
f 163 107 162
f 162 107 108
f 162 108 161
f 161 108 109
f 161 109 160
f 160 109 159
f 159 109 110
f 159 110 158
f 158 110 111
f 158 111 157
f 157 111 112
f 157 112 156
f 156 112 113
f 156 113 155
f 155 113 114
f 155 114 154
f 154 114 115
f 154 115 153
f 153 115 116
f 153 116 152
f 152 116 117
f 152 117 151
f 151 117 150
f 150 117 118
f 150 118 149
f 149 118 119
f 149 119 148
f 148 119 120
f 148 120 147
f 147 120 121
f 147 121 146
f 146 121 122
f 146 122 145
f 145 122 123
f 145 123 144
f 144 123 124
f 144 124 143
f 143 124 125
f 143 125 142
f 142 125 141
f 141 125 126
f 141 126 140
f 140 126 127
f 140 127 139
f 139 127 128
f 139 128 138
f 138 128 129
f 138 129 137
f 137 129 130
f 137 130 136
f 136 130 131
f 136 131 135
f 135 131 132
f 135 132 134
f 134 132 93
f 179 262 178
f 178 262 218
f 178 218 219
f 262 179 261
f 261 179 180
f 261 180 260
f 260 180 181
f 260 181 259
f 259 181 182
f 259 182 258
f 258 182 183
f 258 183 257
f 257 183 184
f 257 184 256
f 256 184 185
f 256 185 255
f 255 185 186
f 255 186 254
f 254 186 253
f 253 186 187
f 253 187 252
f 252 187 188
f 252 188 251
f 251 188 189
f 251 189 250
f 250 189 190
f 250 190 249
f 249 190 191
f 249 191 248
f 248 191 192
f 248 192 247
f 247 192 193
f 247 193 246
f 246 193 194
f 246 194 245
f 245 194 244
f 244 194 195
f 244 195 243
f 243 195 196
f 243 196 242
f 242 196 197
f 242 197 241
f 241 197 198
f 241 198 240
f 240 198 199
f 240 199 239
f 239 199 200
f 239 200 238
f 238 200 201
f 238 201 237
f 237 201 202
f 237 202 236
f 236 202 235
f 235 202 203
f 235 203 234
f 234 203 204
f 234 204 233
f 233 204 205
f 233 205 232
f 232 205 206
f 232 206 231
f 231 206 207
f 231 207 230
f 230 207 208
f 230 208 229
f 229 208 209
f 229 209 228
f 228 209 210
f 228 210 227
f 227 210 226
f 226 210 211
f 226 211 225
f 225 211 212
f 225 212 224
f 224 212 213
f 224 213 223
f 223 213 214
f 223 214 222
f 222 214 215
f 222 215 221
f 221 215 216
f 221 216 220
f 220 216 217
f 220 217 219
f 219 217 178
f 264 342 263
f 263 342 344
f 343 303 302
f 302 303 304
f 302 304 301
f 301 304 305
f 301 305 300
f 300 305 306
f 300 306 299
f 299 306 307
f 299 307 298
f 298 307 308
f 298 308 297
f 297 308 309
f 297 309 296
f 296 309 310
f 296 310 295
f 295 310 311
f 295 311 294
f 294 311 312
f 294 312 293
f 293 312 313
f 293 313 292
f 292 313 314
f 292 314 291
f 291 314 315
f 291 315 290
f 290 315 316
f 290 316 289
f 289 316 317
f 289 317 288
f 288 317 318
f 288 318 287
f 287 318 319
f 287 319 286
f 286 319 320
f 286 320 285
f 285 320 321
f 285 321 284
f 284 321 322
f 284 322 283
f 283 322 323
f 283 323 282
f 282 323 324
f 282 324 281
f 281 324 325
f 281 325 280
f 280 325 326
f 280 326 279
f 279 326 327
f 279 327 278
f 278 327 328
f 278 328 277
f 277 328 329
f 277 329 276
f 276 329 330
f 276 330 275
f 275 330 331
f 275 331 274
f 274 331 332
f 274 332 273
f 273 332 333
f 273 333 272
f 272 333 334
f 272 334 271
f 271 334 335
f 271 335 270
f 270 335 336
f 270 336 269
f 269 336 337
f 269 337 268
f 268 337 338
f 268 338 267
f 267 338 339
f 267 339 266
f 266 339 340
f 266 340 265
f 265 340 341
f 265 341 264
f 264 341 342
