v -0.16330259 -0.299 0.29132797
v -0.16353416 -0.299 0.29110922
v -0.16353416 -0.29908001 0.29110922
v -0.16330259 -0.29908001 0.29132797
v -0.16353416 -0.299 0.29110922
v -0.16361715 -0.299 0.29092146
v -0.16361715 -0.29908001 0.29092146
v -0.16353416 -0.29908001 0.29110922
v -0.16302132 -0.299 0.29147749
v -0.16330259 -0.299 0.29132797
v -0.16330259 -0.29908001 0.29132797
v -0.16302132 -0.29908001 0.29147749
v -0.16361715 -0.299 0.29092146
v -0.16364555 -0.299 0.29071814
v -0.16364555 -0.29908001 0.29071814
v -0.16361715 -0.29908001 0.29092146
v -0.16271048 -0.299 0.29154707
v -0.16302132 -0.299 0.29147749
v -0.16302132 -0.29908001 0.29147749
v -0.16271048 -0.29908001 0.29154707
v -0.16364555 -0.299 0.29071814
v -0.16361715 -0.299 0.29051481
v -0.16361715 -0.29908001 0.29051481
v -0.16364555 -0.29908001 0.29071814
v -0.16239229 -0.299 0.29153172
v -0.16271048 -0.299 0.29154707
v -0.16271048 -0.29908001 0.29154707
v -0.16239229 -0.29908001 0.29153172
v -0.16361715 -0.299 0.29051481
v -0.16353416 -0.299 0.29032703
v -0.16353416 -0.29908001 0.29032703
v -0.16361715 -0.29908001 0.29051481
v -0.16215538 -0.299 0.29148069
v -0.16239229 -0.299 0.29153172
v -0.16239229 -0.29908001 0.29153172
v -0.16215538 -0.29908001 0.29148069
v -0.16353416 -0.299 0.29032703
v -0.16336971 -0.299 0.29016102
v -0.16336971 -0.29908001 0.29016102
v -0.16353416 -0.29908001 0.29032703
v -0.16193138 -0.299 0.29138823
v -0.16215538 -0.299 0.29148069
v -0.16215538 -0.29908001 0.29148069
v -0.16193138 -0.29908001 0.29138823
v -0.16336971 -0.299 0.29016102
v -0.16317354 -0.299 0.29003407
v -0.16317354 -0.29908001 0.29003407
v -0.16336971 -0.29908001 0.29016102
v -0.16172747 -0.29908001 0.29125731
v -0.16193138 -0.29908001 0.29138823
v -0.16215538 -0.29908001 0.29148069
v -0.16239229 -0.29908001 0.29153172
v -0.16271048 -0.29908001 0.29154707
v -0.16302132 -0.29908001 0.29147749
v -0.16330259 -0.29908001 0.29132797
v -0.16353416 -0.29908001 0.29110922
v -0.16361715 -0.29908001 0.29092146
v -0.16364555 -0.29908001 0.29071814
v -0.16361715 -0.29908001 0.29051481
v -0.16353416 -0.29908001 0.29032703
v -0.16336971 -0.29908001 0.29016102
v -0.16317354 -0.29908001 0.29003407
v -0.16295473 -0.29908001 0.28995207
v -0.16272343 -0.29908001 0.28991882
v -0.16204403 -0.29908001 0.28999126
v -0.16174393 -0.29908001 0.29014563
v -0.16151876 -0.29908001 0.29040411
v -0.16145618 -0.29908001 0.29057299
v -0.16144037 -0.29908001 0.29075239
v -0.16147247 -0.29908001 0.29092962
v -0.16155016 -0.29908001 0.29109209
v -0.16317354 -0.299 0.29003407
v -0.16295473 -0.299 0.28995207
v -0.16295473 -0.29908001 0.28995207
v -0.16317354 -0.29908001 0.29003407
v -0.16172747 -0.299 0.29125731
v -0.16193138 -0.299 0.29138823
v -0.16193138 -0.29908001 0.29138823
v -0.16172747 -0.29908001 0.29125731
v -0.16295473 -0.299 0.28995207
v -0.16272343 -0.299 0.28991882
v -0.16272343 -0.29908001 0.28991882
v -0.16295473 -0.29908001 0.28995207
v -0.16193138 -0.299 0.29138823
v -0.16172747 -0.299 0.29125731
v -0.16155016 -0.299 0.29109209
v -0.16147247 -0.299 0.29092962
v -0.16144037 -0.299 0.29075239
v -0.16145618 -0.299 0.29057299
v -0.16151876 -0.299 0.29040411
v -0.16174393 -0.299 0.29014563
v -0.16204403 -0.299 0.28999126
v -0.16272343 -0.299 0.28991882
v -0.16295473 -0.299 0.28995207
v -0.16317354 -0.299 0.29003407
v -0.16336971 -0.299 0.29016102
v -0.16353416 -0.299 0.29032703
v -0.16361715 -0.299 0.29051481
v -0.16364555 -0.299 0.29071814
v -0.16361715 -0.299 0.29092146
v -0.16353416 -0.299 0.29110922
v -0.16330259 -0.299 0.29132797
v -0.16302132 -0.299 0.29147749
v -0.16271048 -0.299 0.29154707
v -0.16239229 -0.299 0.29153172
v -0.16215538 -0.299 0.29148069
v -0.16272343 -0.299 0.28991882
v -0.16204403 -0.299 0.28999126
v -0.16174393 -0.299 0.29014563
v -0.16151876 -0.299 0.29040411
v -0.16151876 -0.29908001 0.29040411
v -0.16174393 -0.29908001 0.29014563
v -0.16204403 -0.29908001 0.28999126
v -0.16272343 -0.29908001 0.28991882
v -0.16151876 -0.299 0.29040411
v -0.16145618 -0.299 0.29057299
v -0.16145618 -0.29908001 0.29057299
v -0.16151876 -0.29908001 0.29040411
v -0.16145618 -0.299 0.29057299
v -0.16144037 -0.299 0.29075239
v -0.16144037 -0.29908001 0.29075239
v -0.16145618 -0.29908001 0.29057299
v -0.16144037 -0.299 0.29075239
v -0.16147247 -0.299 0.29092962
v -0.16147247 -0.29908001 0.29092962
v -0.16144037 -0.29908001 0.29075239
v -0.16147247 -0.299 0.29092962
v -0.16155016 -0.299 0.29109209
v -0.16155016 -0.29908001 0.29109209
v -0.16147247 -0.29908001 0.29092962
v -0.16155016 -0.299 0.29109209
v -0.16172747 -0.299 0.29125731
v -0.16172747 -0.29908001 0.29125731
v -0.16155016 -0.29908001 0.29109209
f 1 2 4
f 4 2 3
f 5 6 8
f 8 6 7
f 9 10 12
f 12 10 11
f 13 14 16
f 16 14 15
f 17 18 20
f 20 18 19
f 21 22 24
f 24 22 23
f 25 26 28
f 28 26 27
f 29 30 32
f 32 30 31
f 33 34 36
f 36 34 35
f 37 38 40
f 40 38 39
f 41 42 44
f 44 42 43
f 45 46 48
f 48 46 47
f 50 58 49
f 49 58 70
f 49 70 71
f 50 51 58
f 58 51 52
f 58 52 57
f 57 52 56
f 56 52 55
f 55 52 54
f 54 52 53
f 59 67 58
f 58 67 68
f 58 68 69
f 67 59 66
f 66 59 60
f 66 60 61
f 66 61 65
f 65 61 62
f 65 62 64
f 64 62 63
f 69 70 58
f 72 73 75
f 75 73 74
f 76 77 79
f 79 77 78
f 80 81 83
f 83 81 82
f 106 84 99
f 99 84 85
f 99 85 87
f 87 85 86
f 87 88 99
f 99 88 89
f 99 89 90
f 99 90 98
f 98 90 91
f 98 91 97
f 97 91 96
f 96 91 92
f 96 92 95
f 95 92 93
f 95 93 94
f 106 99 105
f 105 99 100
f 105 100 101
f 101 102 105
f 105 102 103
f 105 103 104
f 107 108 114
f 114 108 113
f 113 108 109
f 113 109 112
f 112 109 110
f 112 110 111
f 115 116 118
f 118 116 117
f 119 120 122
f 122 120 121
f 123 124 126
f 126 124 125
f 127 128 130
f 130 128 129
f 131 132 134
f 134 132 133
