v 0.26799999 0.29 0.48599998
v 0.29200001 0.29 0.48599998
v 0.29200001 0.27799999 0.48599998
v 0.26799999 0.27799999 0.48599998
v 0.26799999 0.27799999 0.50799999
v 0.26799999 0.27799999 0.48599998
v 0.29200001 0.27799999 0.48599998
v 0.29200001 0.27799999 0.50799999
v 0.29200001 0.29 0.48599998
v 0.29200001 0.29 0.50799999
v 0.29200001 0.27799999 0.50799999
v 0.29200001 0.27799999 0.48599998
v 0.29200001 0.29 0.50799999
v 0.26799999 0.29 0.50799999
v 0.26799999 0.27799999 0.50799999
v 0.29200001 0.27799999 0.50799999
v 0.29200001 0.29 0.48599998
v 0.26799999 0.29 0.48599998
v 0.26799999 0.29 0.50799999
v 0.29200001 0.29 0.50799999
v 0.26799999 0.29 0.50799999
v 0.26799999 0.29 0.48599998
v 0.26799999 0.27799999 0.48599998
v 0.26799999 0.27799999 0.50799999
f 1 2 4
f 4 2 3
f 5 6 8
f 8 6 7
f 9 10 12
f 12 10 11
f 13 14 16
f 16 14 15
f 18 19 17
f 17 19 20
f 21 22 24
f 24 22 23
