v 0.135 0.065 4.9999999e-05
v 0.135 0.088800001 4.9999999e-05
v 0.1471 0.088800001 4.9999999e-05
v 0.1471 0.065 4.9999999e-05
v 0.135 0.088800001 8.9999996e-05
v 0.135 0.065 8.9999996e-05
v 0.1471 0.065 8.9999996e-05
v 0.1471 0.088800001 8.9999996e-05
v 0.135 0.088800001 4.9999999e-05
v 0.135 0.065 4.9999999e-05
v 0.135 0.065 8.9999996e-05
v 0.135 0.088800001 8.9999996e-05
v 0.135 0.065 4.9999999e-05
v 0.1471 0.065 4.9999999e-05
v 0.1471 0.065 8.9999996e-05
v 0.135 0.065 8.9999996e-05
v 0.1471 0.065 4.9999999e-05
v 0.1471 0.088800001 4.9999999e-05
v 0.1471 0.088800001 8.9999996e-05
v 0.1471 0.065 8.9999996e-05
v 0.1471 0.088800001 4.9999999e-05
v 0.135 0.088800001 4.9999999e-05
v 0.135 0.088800001 8.9999996e-05
v 0.1471 0.088800001 8.9999996e-05
f 2 3 1
f 1 3 4
f 6 7 5
f 5 7 8
f 9 10 12
f 12 10 11
f 13 14 16
f 16 14 15
f 17 18 20
f 20 18 19
f 21 22 24
f 24 22 23
