v 0.98885002 0.23 0.36488728
v 0.80885002 0.23 0.36488728
v 0.80885002 0.23166344 0.36239067
v 0.98885002 0.23166344 0.36239067
v 0.98885002 0.09 0.27160824
v 0.98885002 0.11284538 0.28787415
v 0.98885002 0.1358907 0.30385551
v 0.98885002 0.1591324 0.3195499
v 0.98885002 0.18256693 0.33495491
v 0.98885002 0.20619068 0.35006813
v 0.98885002 0.23 0.36488728
v 0.98885002 0.23166344 0.36239067
v 0.98885002 0.091663427 0.26911163
v 0.80885002 0.23 0.36488728
v 0.80885002 0.20619068 0.35006813
v 0.80885002 0.18256693 0.33495491
v 0.80885002 0.1591324 0.3195499
v 0.80885002 0.1358907 0.30385551
v 0.80885002 0.11284538 0.28787415
v 0.80885002 0.09 0.27160824
v 0.80885002 0.091663427 0.26911163
v 0.80885002 0.23166344 0.36239067
v 0.80885002 0.23166344 0.36239067
v 0.80885002 0.091663427 0.26911163
v 0.98885002 0.091663427 0.26911163
v 0.98885002 0.23166344 0.36239067
v 0.80885002 0.09 0.27160824
v 0.98885002 0.09 0.27160824
v 0.98885002 0.091663427 0.26911163
v 0.80885002 0.091663427 0.26911163
v 0.74885002 0 0.2032
v 0.74885002 0.022969344 0.22133978
v 0.74885002 0.046171508 0.23918079
v 0.74885002 0.069602609 0.25672005
v 0.74885002 0.093258715 0.27395464
v 0.74885002 0.11713588 0.29088163
v 0.74885002 0.14123008 0.30749825
v 0.74885002 0.1655373 0.32380165
v 0.74885002 0.19005346 0.33978912
v 0.74885002 0.21477448 0.35545803
v 0.74885002 0.23969618 0.3708057
v 0.74885002 0.2648144 0.38582958
v 0.74885002 0.29012493 0.40052715
v 0.74885002 0.31562357 0.41489594
v 0.74885002 0.341306 0.42893356
v 0.74885002 0.36716793 0.44263767
v 0.74885002 0.39320503 0.45600594
v 0.74885002 0.41941299 0.46903618
v 0.74885002 0.44578735 0.48172615
v 0.74885002 0.47232368 0.49407375
v 0.74885002 0.49901764 0.50607693
v 0.74885002 0.52586468 0.51773365
v 0.74885002 0.5528603 0.52904198
v 0.74885002 0.58 0.54
v 0.74885002 0.75 0.54
v 0.74885002 0.75 0.063499999
v 0.74885002 0 0.063499999
v 1.06 0.58 0.54
v 1.06 0.5528603 0.52904198
v 1.06 0.52586468 0.51773365
v 1.06 0.49901764 0.50607693
v 1.06 0.47232368 0.49407375
v 1.06 0.44578735 0.48172615
v 1.06 0.41941299 0.46903618
v 1.06 0.39320503 0.45600594
v 1.06 0.36716793 0.44263767
v 1.06 0.341306 0.42893356
v 1.06 0.31562357 0.41489594
v 1.06 0.29012493 0.40052715
v 1.06 0.2648144 0.38582958
v 1.06 0.23969618 0.3708057
v 1.06 0.21477448 0.35545803
v 1.06 0.19005346 0.33978912
v 1.06 0.1655373 0.32380165
v 1.06 0.14123008 0.30749825
v 1.06 0.11713588 0.29088163
v 1.06 0.093258715 0.27395464
v 1.06 0.069602609 0.25672005
v 1.06 0.046171508 0.23918079
v 1.06 0.022969344 0.22133978
v 1.06 0 0.2032
v 1.06 0 0.063499999
v 1.06 0.75 0.063499999
v 1.06 0.75 0.54
v 0.98885002 0.09 0.27160824
v 0.80885002 0.09 0.27160824
v 0.80885002 0.11284538 0.28787415
v 0.80885002 0.1358907 0.30385551
v 0.80885002 0.1591324 0.3195499
v 0.80885002 0.18256693 0.33495491
v 0.80885002 0.20619068 0.35006813
v 0.80885002 0.23 0.36488728
v 0.98885002 0.23 0.36488728
v 0.98885002 0.20619068 0.35006813
v 0.98885002 0.18256693 0.33495491
v 0.98885002 0.1591324 0.3195499
v 0.98885002 0.1358907 0.30385551
v 0.98885002 0.11284538 0.28787415
v 0.74885002 0.58 0.54
v 0.74885002 0.5528603 0.52904198
v 0.74885002 0.52586468 0.51773365
v 0.74885002 0.49901764 0.50607693
v 0.74885002 0.47232368 0.49407375
v 0.74885002 0.44578735 0.48172615
v 0.74885002 0.41941299 0.46903618
v 0.74885002 0.39320503 0.45600594
v 0.74885002 0.36716793 0.44263767
v 0.74885002 0.341306 0.42893356
v 0.74885002 0.31562357 0.41489594
v 0.74885002 0.29012493 0.40052715
v 0.74885002 0.2648144 0.38582958
v 0.74885002 0.23969618 0.3708057
v 0.74885002 0.21477448 0.35545803
v 0.74885002 0.19005346 0.33978912
v 0.74885002 0.1655373 0.32380165
v 0.74885002 0.14123008 0.30749825
v 0.74885002 0.11713588 0.29088163
v 0.74885002 0.093258715 0.27395464
v 0.74885002 0.069602609 0.25672005
v 0.74885002 0.046171508 0.23918079
v 0.74885002 0.022969344 0.22133978
v 0.74885002 0 0.2032
v 1.06 0 0.2032
v 1.06 0.022969344 0.22133978
v 1.06 0.046171508 0.23918079
v 1.06 0.069602609 0.25672005
v 1.06 0.093258715 0.27395464
v 1.06 0.11713588 0.29088163
v 1.06 0.14123008 0.30749825
v 1.06 0.1655373 0.32380165
v 1.06 0.19005346 0.33978912
v 1.06 0.21477448 0.35545803
v 1.06 0.23969618 0.3708057
v 1.06 0.2648144 0.38582958
v 1.06 0.29012493 0.40052715
v 1.06 0.31562357 0.41489594
v 1.06 0.341306 0.42893356
v 1.06 0.36716793 0.44263767
v 1.06 0.39320503 0.45600594
v 1.06 0.41941299 0.46903618
v 1.06 0.44578735 0.48172615
v 1.06 0.47232368 0.49407375
v 1.06 0.49901764 0.50607693
v 1.06 0.52586468 0.51773365
v 1.06 0.5528603 0.52904198
v 1.06 0.58 0.54
v 0.74885002 0 0.2032
v 0.74885002 0 0.063499999
v 1.06 0 0.063499999
v 1.06 0 0.2032
v 0.74885002 0 0.063499999
v 0.74885002 0.75 0.063499999
v 1.06 0.75 0.063499999
v 1.06 0 0.063499999
v 0.74885002 0.75 0.063499999
v 0.74885002 0.75 0.54
v 1.06 0.75 0.54
v 1.06 0.75 0.063499999
v 0.74885002 0.75 0.54
v 0.74885002 0.58 0.54
v 1.06 0.58 0.54
v 1.06 0.75 0.54
f 2 3 1
f 1 3 4
f 5 6 13
f 13 6 7
f 13 7 8
f 13 8 12
f 12 8 9
f 12 9 10
f 10 11 12
f 14 15 22
f 22 15 16
f 22 16 17
f 22 17 21
f 21 17 18
f 21 18 19
f 19 20 21
f 23 24 26
f 26 24 25
f 28 29 27
f 27 29 30
f 31 32 57
f 57 32 33
f 57 33 34
f 34 35 57
f 57 35 56
f 56 35 36
f 56 36 37
f 37 38 56
f 56 38 39
f 56 39 40
f 40 41 56
f 56 41 42
f 56 42 43
f 43 44 56
f 56 44 45
f 56 45 46
f 46 47 56
f 56 47 48
f 56 48 49
f 49 50 56
f 56 50 55
f 55 50 51
f 55 51 52
f 52 53 55
f 55 53 54
f 58 59 84
f 84 59 60
f 84 60 61
f 61 62 84
f 84 62 83
f 83 62 63
f 83 63 64
f 64 65 83
f 83 65 66
f 83 66 67
f 67 68 83
f 83 68 69
f 83 69 70
f 70 71 83
f 83 71 72
f 83 72 73
f 73 74 83
f 83 74 75
f 83 75 76
f 76 77 83
f 83 77 82
f 82 77 78
f 82 78 79
f 79 80 82
f 82 80 81
f 86 119 85
f 85 119 126
f 85 126 127
f 119 86 118
f 118 86 87
f 118 87 117
f 117 87 88
f 117 88 116
f 116 88 89
f 116 89 115
f 115 89 90
f 115 90 114
f 114 90 91
f 114 91 113
f 113 91 92
f 113 92 112
f 112 92 93
f 112 93 133
f 133 93 132
f 132 93 94
f 132 94 131
f 131 94 95
f 131 95 130
f 130 95 96
f 130 96 129
f 129 96 97
f 129 97 128
f 128 97 98
f 128 98 127
f 127 98 85
f 146 99 145
f 145 99 100
f 145 100 144
f 144 100 101
f 144 101 143
f 143 101 102
f 143 102 142
f 142 102 103
f 142 103 141
f 141 103 104
f 141 104 140
f 140 104 105
f 140 105 139
f 139 105 106
f 139 106 138
f 138 106 107
f 138 107 137
f 137 107 108
f 137 108 136
f 136 108 109
f 136 109 135
f 135 109 110
f 135 110 134
f 134 110 111
f 134 111 133
f 133 111 112
f 126 119 125
f 125 119 120
f 125 120 124
f 124 120 121
f 124 121 123
f 123 121 122
f 147 148 150
f 150 148 149
f 151 152 154
f 154 152 153
f 155 156 158
f 158 156 157
f 159 160 162
f 162 160 161
