v 0.107 0.029987066 0.4577729
v 0.10774066 0.02985347 0.45812675
v 0.10835325 0.029399395 0.45845871
v 0.10873185 0.028703351 0.45871132
v 0.10881101 0.027885692 0.45884094
v 0.10857701 0.027087796 0.45882519
v 0.10807034 0.02644763 0.45866673
v 0.10737861 0.026075883 0.45839298
v 0.1066214 0.026036832 0.4580513
v 0.10592965 0.02633723 0.45770073
v 0.10542298 0.026925139 0.45740192
v 0.105189 0.027698898 0.45720654
v 0.10526814 0.028524723 0.45714832
v 0.10564675 0.029259818 0.4572374
v 0.10625934 0.029777079 0.45745831
v 0.091000004 0.033987064 0.4927729
v 0.090259342 0.033777077 0.49245831
v 0.089646749 0.033259816 0.4922374
v 0.08926815 0.032524724 0.49214832
v 0.089188995 0.031698899 0.49220654
v 0.089422989 0.030925138 0.49240192
v 0.089929657 0.030337231 0.49270073
v 0.090621395 0.030036831 0.4930513
v 0.091378603 0.030075881 0.49339298
v 0.092070341 0.030447628 0.49366673
v 0.092577019 0.031087797 0.49382519
v 0.092811003 0.031885691 0.49384094
v 0.092731857 0.032703352 0.49371132
v 0.092353249 0.033399396 0.49345871
v 0.091740656 0.033853471 0.49312675
v 0.091000004 0.033987064 0.4927729
v 0.091740656 0.033853471 0.49312675
v 0.092353249 0.033399396 0.49345871
v 0.092731857 0.032703352 0.49371132
v 0.092811003 0.031885691 0.49384094
v 0.092577019 0.031087797 0.49382519
v 0.092070341 0.030447628 0.49366673
v 0.091378603 0.030075881 0.49339298
v 0.090621395 0.030036831 0.4930513
v 0.089929657 0.030337231 0.49270073
v 0.089422989 0.030925138 0.49240192
v 0.089188995 0.031698899 0.49220654
v 0.08926815 0.032524724 0.49214832
v 0.089646749 0.033259816 0.4922374
v 0.090259342 0.033777077 0.49245831
v 0.107 0.029987066 0.4577729
v 0.10625934 0.029777079 0.45745831
v 0.10564675 0.029259818 0.4572374
v 0.10526814 0.028524723 0.45714832
v 0.105189 0.027698898 0.45720654
v 0.10542298 0.026925139 0.45740192
v 0.10592965 0.02633723 0.45770073
v 0.1066214 0.026036832 0.4580513
v 0.10737861 0.026075883 0.45839298
v 0.10807034 0.02644763 0.45866673
v 0.10857701 0.027087796 0.45882519
v 0.10881101 0.027885692 0.45884094
v 0.10873185 0.028703351 0.45871132
v 0.10835325 0.029399395 0.45845871
v 0.10774066 0.02985347 0.45812675
v 0.107 0.029987066 0.4577729
v 0.091000004 0.033987064 0.4927729
f 1 2 15
f 15 2 3
f 15 3 14
f 14 3 4
f 14 4 13
f 13 4 5
f 13 5 12
f 12 5 6
f 12 6 11
f 11 6 7
f 11 7 10
f 10 7 8
f 10 8 9
f 16 17 30
f 30 17 29
f 29 17 18
f 29 18 28
f 28 18 19
f 28 19 27
f 27 19 20
f 27 20 26
f 26 20 21
f 26 21 25
f 25 21 22
f 25 22 24
f 24 22 23
f 32 60 31
f 31 60 61
f 62 46 45
f 45 46 47
f 45 47 48
f 32 33 60
f 60 33 59
f 59 33 34
f 59 34 58
f 58 34 35
f 58 35 57
f 57 35 36
f 57 36 56
f 56 36 37
f 56 37 55
f 55 37 38
f 55 38 54
f 54 38 39
f 54 39 53
f 53 39 40
f 53 40 52
f 52 40 41
f 52 41 51
f 51 41 42
f 51 42 50
f 50 42 43
f 50 43 49
f 49 43 44
f 49 44 48
f 48 44 45
