v 0.1121571 0.12602156 9.9999998e-05
v 0.11254169 0.12597554 9.9999998e-05
v 0.11281938 0.12583752 9.9999998e-05
v 0.11281938 0.12583752 0.000125
v 0.11254169 0.12597554 0.000125
v 0.1121571 0.12602156 0.000125
v 0.11281938 0.12583752 9.9999998e-05
v 0.11299726 0.12560942 9.9999998e-05
v 0.11308247 0.12529318 9.9999998e-05
v 0.11308247 0.12529318 0.000125
v 0.11299726 0.12560942 0.000125
v 0.11281938 0.12583752 0.000125
v 0.11149222 0.12585437 9.9999998e-05
v 0.11176277 0.12597976 9.9999998e-05
v 0.1121571 0.12602156 9.9999998e-05
v 0.1121571 0.12602156 0.000125
v 0.11176277 0.12597976 0.000125
v 0.11149222 0.12585437 0.000125
v 0.11308247 0.12529318 9.9999998e-05
v 0.1135646 0.12532947 9.9999998e-05
v 0.1135646 0.12532947 0.000125
v 0.11308247 0.12529318 0.000125
v 0.11128356 0.1254513 9.9999998e-05
v 0.11133573 0.12567 9.9999998e-05
v 0.11149222 0.12585437 9.9999998e-05
v 0.11149222 0.12585437 0.000125
v 0.11133573 0.12567 0.000125
v 0.11128356 0.1254513 0.000125
v 0.1135646 0.12532947 9.9999998e-05
v 0.11337796 0.12592824 9.9999998e-05
v 0.11337796 0.12592824 0.000125
v 0.1135646 0.12532947 0.000125
v 0.11143131 0.12511433 9.9999998e-05
v 0.11128356 0.1254513 9.9999998e-05
v 0.11128356 0.1254513 0.000125
v 0.11143131 0.12511433 0.000125
v 0.11337796 0.12592824 9.9999998e-05
v 0.11288158 0.12632872 9.9999998e-05
v 0.11288158 0.12632872 0.000125
v 0.11337796 0.12592824 0.000125
v 0.11218949 0.12484345 9.9999998e-05
v 0.11169343 0.12498051 9.9999998e-05
v 0.11143131 0.12511433 9.9999998e-05
v 0.11143131 0.12511433 0.000125
v 0.11169343 0.12498051 0.000125
v 0.11218949 0.12484345 0.000125
v 0.11288158 0.12632872 9.9999998e-05
v 0.11213635 0.12646481 9.9999998e-05
v 0.11213635 0.12646481 0.000125
v 0.11288158 0.12632872 0.000125
v 0.11303062 0.12460109 9.9999998e-05
v 0.11270629 0.12471353 9.9999998e-05
v 0.11218949 0.12484345 9.9999998e-05
v 0.11218949 0.12484345 0.000125
v 0.11270629 0.12471353 0.000125
v 0.11303062 0.12460109 0.000125
v 0.11213635 0.12646481 9.9999998e-05
v 0.11143909 0.1263352 9.9999998e-05
v 0.11143909 0.1263352 0.000125
v 0.11213635 0.12646481 0.000125
v 0.11352053 0.12421357 9.9999998e-05
v 0.11303062 0.12460109 9.9999998e-05
v 0.11303062 0.12460109 0.000125
v 0.11352053 0.12421357 0.000125
v 0.11143909 0.1263352 9.9999998e-05
v 0.11096214 0.12595546 9.9999998e-05
v 0.11096214 0.12595546 0.000125
v 0.11143909 0.1263352 0.000125
v 0.11367865 0.12367312 9.9999998e-05
v 0.11352053 0.12421357 9.9999998e-05
v 0.11352053 0.12421357 0.000125
v 0.11367865 0.12367312 0.000125
v 0.11096214 0.12595546 9.9999998e-05
v 0.11079884 0.12541759 9.9999998e-05
v 0.11079884 0.12541759 0.000125
v 0.11096214 0.12595546 0.000125
v 0.11350498 0.12310157 9.9999998e-05
v 0.11367865 0.12367312 9.9999998e-05
v 0.11367865 0.12367312 0.000125
v 0.11350498 0.12310157 0.000125
v 0.11079884 0.12541759 9.9999998e-05
v 0.11093233 0.12494454 9.9999998e-05
v 0.11093233 0.12494454 0.000125
v 0.11079884 0.12541759 0.000125
v 0.113006 0.12268424 9.9999998e-05
v 0.11350498 0.12310157 9.9999998e-05
v 0.11350498 0.12310157 0.000125
v 0.113006 0.12268424 0.000125
v 0.11093233 0.12494454 9.9999998e-05
v 0.111338 0.12459072 9.9999998e-05
v 0.111338 0.12459072 0.000125
v 0.11093233 0.12494454 0.000125
v 0.11227374 0.1225352 9.9999998e-05
v 0.113006 0.12268424 9.9999998e-05
v 0.113006 0.12268424 0.000125
v 0.11227374 0.1225352 0.000125
v 0.111338 0.12459072 9.9999998e-05
v 0.11162637 0.1244757 9.9999998e-05
v 0.11207155 0.12435355 9.9999998e-05
v 0.11207155 0.12435355 0.000125
v 0.11162637 0.1244757 0.000125
v 0.111338 0.12459072 0.000125
v 0.11140927 0.12268554 9.9999998e-05
v 0.11179971 0.12257278 9.9999998e-05
v 0.11227374 0.1225352 9.9999998e-05
v 0.11227374 0.1225352 0.000125
v 0.11179971 0.12257278 0.000125
v 0.11140927 0.12268554 0.000125
v 0.11207155 0.12435355 9.9999998e-05
v 0.11250249 0.12424436 9.9999998e-05
v 0.11274809 0.12416821 9.9999998e-05
v 0.11274809 0.12416821 0.000125
v 0.11250249 0.12424436 0.000125
v 0.11207155 0.12435355 0.000125
v 0.11086235 0.12313786 9.9999998e-05
v 0.11109822 0.12287379 9.9999998e-05
v 0.11140927 0.12268554 9.9999998e-05
v 0.11140927 0.12268554 0.000125
v 0.11109822 0.12287379 0.000125
v 0.11086235 0.12313786 0.000125
v 0.11274809 0.12416821 9.9999998e-05
v 0.11309025 0.123944 9.9999998e-05
v 0.11309025 0.123944 0.000125
v 0.11274809 0.12416821 0.000125
v 0.11065369 0.12382088 0.000125
v 0.11071103 0.1234596 0.000125
v 0.11086235 0.12313786 0.000125
v 0.11109822 0.12287379 0.000125
v 0.11140927 0.12268554 0.000125
v 0.11179971 0.12257278 0.000125
v 0.11227374 0.1225352 0.000125
v 0.113006 0.12268424 0.000125
v 0.11350498 0.12310157 0.000125
v 0.11367865 0.12367312 0.000125
v 0.11352053 0.12421357 0.000125
v 0.11303062 0.12460109 0.000125
v 0.11270629 0.12471353 0.000125
v 0.11218949 0.12484345 0.000125
v 0.11169343 0.12498051 0.000125
v 0.11143131 0.12511433 0.000125
v 0.11128356 0.1254513 0.000125
v 0.11133573 0.12567 0.000125
v 0.11149222 0.12585437 0.000125
v 0.11176277 0.12597976 0.000125
v 0.1121571 0.12602156 0.000125
v 0.11254169 0.12597554 0.000125
v 0.11281938 0.12583752 0.000125
v 0.11299726 0.12560942 0.000125
v 0.11308247 0.12529318 0.000125
v 0.1135646 0.12532947 0.000125
v 0.11337796 0.12592824 0.000125
v 0.11288158 0.12632872 0.000125
v 0.11213635 0.12646481 0.000125
v 0.11143909 0.1263352 0.000125
v 0.11096214 0.12595546 0.000125
v 0.11079884 0.12541759 0.000125
v 0.11093233 0.12494454 0.000125
v 0.111338 0.12459072 0.000125
v 0.11162637 0.1244757 0.000125
v 0.11207155 0.12435355 0.000125
v 0.11250249 0.12424436 0.000125
v 0.11274809 0.12416821 0.000125
v 0.11309025 0.123944 0.000125
v 0.11319393 0.12363165 0.000125
v 0.11308636 0.12330634 0.000125
v 0.11275846 0.12307176 0.000125
v 0.1122504 0.12298622 0.000125
v 0.11166718 0.12309897 0.000125
v 0.11128486 0.12339448 0.000125
v 0.11112803 0.12386234 0.000125
v 0.11309025 0.123944 9.9999998e-05
v 0.11319393 0.12363165 9.9999998e-05
v 0.11319393 0.12363165 0.000125
v 0.11309025 0.123944 0.000125
v 0.11065369 0.12382088 9.9999998e-05
v 0.11071103 0.1234596 9.9999998e-05
v 0.11086235 0.12313786 9.9999998e-05
v 0.11086235 0.12313786 0.000125
v 0.11071103 0.1234596 0.000125
v 0.11065369 0.12382088 0.000125
v 0.11319393 0.12363165 9.9999998e-05
v 0.11308636 0.12330634 9.9999998e-05
v 0.11308636 0.12330634 0.000125
v 0.11319393 0.12363165 0.000125
v 0.11086235 0.12313786 9.9999998e-05
v 0.11071103 0.1234596 9.9999998e-05
v 0.11065369 0.12382088 9.9999998e-05
v 0.11112803 0.12386234 9.9999998e-05
v 0.11128486 0.12339448 9.9999998e-05
v 0.11166718 0.12309897 9.9999998e-05
v 0.1122504 0.12298622 9.9999998e-05
v 0.11275846 0.12307176 9.9999998e-05
v 0.11308636 0.12330634 9.9999998e-05
v 0.11319393 0.12363165 9.9999998e-05
v 0.11309025 0.123944 9.9999998e-05
v 0.11274809 0.12416821 9.9999998e-05
v 0.11250249 0.12424436 9.9999998e-05
v 0.11207155 0.12435355 9.9999998e-05
v 0.11162637 0.1244757 9.9999998e-05
v 0.111338 0.12459072 9.9999998e-05
v 0.11093233 0.12494454 9.9999998e-05
v 0.11079884 0.12541759 9.9999998e-05
v 0.11096214 0.12595546 9.9999998e-05
v 0.11143909 0.1263352 9.9999998e-05
v 0.11213635 0.12646481 9.9999998e-05
v 0.11288158 0.12632872 9.9999998e-05
v 0.11337796 0.12592824 9.9999998e-05
v 0.1135646 0.12532947 9.9999998e-05
v 0.11308247 0.12529318 9.9999998e-05
v 0.11299726 0.12560942 9.9999998e-05
v 0.11281938 0.12583752 9.9999998e-05
v 0.11254169 0.12597554 9.9999998e-05
v 0.1121571 0.12602156 9.9999998e-05
v 0.11176277 0.12597976 9.9999998e-05
v 0.11149222 0.12585437 9.9999998e-05
v 0.11133573 0.12567 9.9999998e-05
v 0.11128356 0.1254513 9.9999998e-05
v 0.11143131 0.12511433 9.9999998e-05
v 0.11169343 0.12498051 9.9999998e-05
v 0.11218949 0.12484345 9.9999998e-05
v 0.11270629 0.12471353 9.9999998e-05
v 0.11303062 0.12460109 9.9999998e-05
v 0.11352053 0.12421357 9.9999998e-05
v 0.11367865 0.12367312 9.9999998e-05
v 0.11350498 0.12310157 9.9999998e-05
v 0.113006 0.12268424 9.9999998e-05
v 0.11227374 0.1225352 9.9999998e-05
v 0.11179971 0.12257278 9.9999998e-05
v 0.11140927 0.12268554 9.9999998e-05
v 0.11109822 0.12287379 9.9999998e-05
v 0.11308636 0.12330634 9.9999998e-05
v 0.11275846 0.12307176 9.9999998e-05
v 0.11275846 0.12307176 0.000125
v 0.11308636 0.12330634 0.000125
v 0.11275846 0.12307176 9.9999998e-05
v 0.1122504 0.12298622 9.9999998e-05
v 0.1122504 0.12298622 0.000125
v 0.11275846 0.12307176 0.000125
v 0.1122504 0.12298622 9.9999998e-05
v 0.11166718 0.12309897 9.9999998e-05
v 0.11166718 0.12309897 0.000125
v 0.1122504 0.12298622 0.000125
v 0.11166718 0.12309897 9.9999998e-05
v 0.11128486 0.12339448 9.9999998e-05
v 0.11128486 0.12339448 0.000125
v 0.11166718 0.12309897 0.000125
v 0.11128486 0.12339448 9.9999998e-05
v 0.11112803 0.12386234 9.9999998e-05
v 0.11112803 0.12386234 0.000125
v 0.11128486 0.12339448 0.000125
v 0.11112803 0.12386234 9.9999998e-05
v 0.11065369 0.12382088 9.9999998e-05
v 0.11065369 0.12382088 0.000125
v 0.11112803 0.12386234 0.000125
f 1 2 6
f 6 2 5
f 5 2 3
f 5 3 4
f 7 8 12
f 12 8 11
f 11 8 9
f 11 9 10
f 13 14 18
f 18 14 17
f 17 14 15
f 17 15 16
f 19 20 22
f 22 20 21
f 23 24 28
f 28 24 27
f 27 24 25
f 27 25 26
f 29 30 32
f 32 30 31
f 33 34 36
f 36 34 35
f 37 38 40
f 40 38 39
f 41 42 46
f 46 42 45
f 45 42 43
f 45 43 44
f 47 48 50
f 50 48 49
f 51 52 56
f 56 52 55
f 55 52 53
f 55 53 54
f 57 58 60
f 60 58 59
f 61 62 64
f 64 62 63
f 65 66 68
f 68 66 67
f 69 70 72
f 72 70 71
f 73 74 76
f 76 74 75
f 77 78 80
f 80 78 79
f 81 82 84
f 84 82 83
f 85 86 88
f 88 86 87
f 89 90 92
f 92 90 91
f 93 94 96
f 96 94 95
f 97 98 102
f 102 98 101
f 101 98 99
f 101 99 100
f 103 104 108
f 108 104 107
f 107 104 105
f 107 105 106
f 109 110 114
f 114 110 113
f 113 110 111
f 113 111 112
f 115 116 120
f 120 116 119
f 119 116 117
f 119 117 118
f 121 122 124
f 124 122 123
f 125 126 170
f 170 126 169
f 169 126 127
f 169 127 128
f 128 129 169
f 169 129 168
f 168 129 130
f 168 130 167
f 167 130 131
f 167 131 166
f 166 131 132
f 166 132 165
f 165 132 133
f 165 133 164
f 164 133 134
f 164 134 135
f 164 135 163
f 163 135 136
f 163 136 162
f 162 136 137
f 162 137 161
f 161 137 138
f 161 138 160
f 160 138 139
f 160 139 159
f 159 139 158
f 158 139 140
f 158 140 157
f 157 140 141
f 157 141 156
f 156 141 155
f 155 141 142
f 155 142 143
f 155 143 154
f 154 143 144
f 154 144 153
f 153 144 145
f 153 145 146
f 153 146 152
f 152 146 147
f 152 147 151
f 151 147 148
f 151 148 149
f 149 150 151
f 171 172 174
f 174 172 173
f 175 176 180
f 180 176 179
f 179 176 177
f 179 177 178
f 181 182 184
f 184 182 183
f 230 185 189
f 189 185 186
f 189 186 188
f 188 186 187
f 230 189 229
f 229 189 190
f 229 190 228
f 228 190 191
f 228 191 227
f 227 191 192
f 227 192 226
f 226 192 193
f 226 193 225
f 225 193 194
f 225 194 224
f 224 194 223
f 223 194 195
f 223 195 222
f 222 195 196
f 222 196 221
f 221 196 197
f 221 197 220
f 220 197 198
f 220 198 219
f 219 198 199
f 219 199 200
f 219 200 218
f 218 200 201
f 218 201 217
f 217 201 202
f 217 202 203
f 204 215 203
f 203 215 216
f 203 216 217
f 215 204 214
f 214 204 205
f 214 205 213
f 213 205 212
f 212 205 206
f 212 206 211
f 211 206 207
f 211 207 210
f 210 207 209
f 209 207 208
f 231 232 234
f 234 232 233
f 235 236 238
f 238 236 237
f 239 240 242
f 242 240 241
f 243 244 246
f 246 244 245
f 247 248 250
f 250 248 249
f 251 252 254
f 254 252 253
