v 0.092160301 -0.29870001 0.19590858
v 0.092510233 -0.29870001 0.195
v 0.092510233 -0.29882 0.195
v 0.092160301 -0.29882 0.19590858
v 0.092510233 -0.29870001 0.195
v 0.092962484 -0.29870001 0.195
v 0.092962484 -0.29882 0.195
v 0.092510233 -0.29882 0.195
v 0.090154839 -0.29882 0.195
v 0.090576401 -0.29882 0.195
v 0.090905867 -0.29882 0.19590858
v 0.092160301 -0.29882 0.19590858
v 0.092510233 -0.29882 0.195
v 0.092962484 -0.29882 0.195
v 0.091734648 -0.29882 0.19799999
v 0.091306953 -0.29882 0.19799999
v 0.09102046 -0.29882 0.19623192
v 0.091349936 -0.29882 0.19711187
v 0.091511593 -0.29882 0.19768486
v 0.091724424 -0.29882 0.19706276
v 0.092037516 -0.29882 0.19623192
v 0.092962484 -0.29870001 0.195
v 0.091734648 -0.29870001 0.19799999
v 0.091734648 -0.29882 0.19799999
v 0.092962484 -0.29882 0.195
v 0.091734648 -0.29870001 0.19799999
v 0.091306953 -0.29870001 0.19799999
v 0.091306953 -0.29882 0.19799999
v 0.091734648 -0.29882 0.19799999
v 0.090576401 -0.29870001 0.195
v 0.090154839 -0.29870001 0.195
v 0.091306953 -0.29870001 0.19799999
v 0.091734648 -0.29870001 0.19799999
v 0.092962484 -0.29870001 0.195
v 0.092510233 -0.29870001 0.195
v 0.092160301 -0.29870001 0.19590858
v 0.090905867 -0.29870001 0.19590858
v 0.091349936 -0.29870001 0.19711187
v 0.09102046 -0.29870001 0.19623192
v 0.092037516 -0.29870001 0.19623192
v 0.091724424 -0.29870001 0.19706276
v 0.091511593 -0.29870001 0.19768486
v 0.091306953 -0.29870001 0.19799999
v 0.090154839 -0.29870001 0.195
v 0.090154839 -0.29882 0.195
v 0.091306953 -0.29882 0.19799999
v 0.09102046 -0.29870001 0.19623192
v 0.091349936 -0.29870001 0.19711187
v 0.091349936 -0.29882 0.19711187
v 0.09102046 -0.29882 0.19623192
v 0.091349936 -0.29870001 0.19711187
v 0.091511593 -0.29870001 0.19768486
v 0.091511593 -0.29882 0.19768486
v 0.091349936 -0.29882 0.19711187
v 0.091511593 -0.29870001 0.19768486
v 0.091724424 -0.29870001 0.19706276
v 0.091724424 -0.29882 0.19706276
v 0.091511593 -0.29882 0.19768486
v 0.091724424 -0.29870001 0.19706276
v 0.092037516 -0.29870001 0.19623192
v 0.092037516 -0.29882 0.19623192
v 0.091724424 -0.29882 0.19706276
v 0.092037516 -0.29870001 0.19623192
v 0.09102046 -0.29870001 0.19623192
v 0.09102046 -0.29882 0.19623192
v 0.092037516 -0.29882 0.19623192
v 0.090576401 -0.29870001 0.195
v 0.090905867 -0.29870001 0.19590858
v 0.090905867 -0.29882 0.19590858
v 0.090576401 -0.29882 0.195
v 0.090154839 -0.29870001 0.195
v 0.090576401 -0.29870001 0.195
v 0.090576401 -0.29882 0.195
v 0.090154839 -0.29882 0.195
v 0.090905867 -0.29870001 0.19590858
v 0.092160301 -0.29870001 0.19590858
v 0.092160301 -0.29882 0.19590858
v 0.090905867 -0.29882 0.19590858
f 1 2 4
f 4 2 3
f 5 6 8
f 8 6 7
f 10 11 9
f 9 11 17
f 9 17 16
f 16 17 18
f 16 18 19
f 17 11 21
f 21 11 12
f 21 12 14
f 14 12 13
f 14 15 21
f 21 15 20
f 20 15 19
f 19 15 16
f 22 23 25
f 25 23 24
f 26 27 29
f 29 27 28
f 30 31 37
f 37 31 39
f 37 39 40
f 31 32 39
f 39 32 38
f 38 32 42
f 42 32 33
f 42 33 41
f 41 33 40
f 40 33 34
f 40 34 36
f 36 34 35
f 36 37 40
f 43 44 46
f 46 44 45
f 47 48 50
f 50 48 49
f 51 52 54
f 54 52 53
f 55 56 58
f 58 56 57
f 59 60 62
f 62 60 61
f 63 64 66
f 66 64 65
f 67 68 70
f 70 68 69
f 71 72 74
f 74 72 73
f 75 76 78
f 78 76 77
