v 0.16774372 -0.29875 0.2675466
v 0.16801201 -0.29875 0.26684999
v 0.16801201 -0.29886999 0.26684999
v 0.16774372 -0.29886999 0.2675466
v 0.16835873 -0.29875 0.26684999
v 0.16741739 -0.29875 0.26915001
v 0.16741739 -0.29886999 0.26915001
v 0.16835873 -0.29886999 0.26684999
v 0.16764959 -0.29875 0.26779448
v 0.16686985 -0.29875 0.26779448
v 0.16686985 -0.29886999 0.26779448
v 0.16764959 -0.29886999 0.26779448
v 0.16712244 -0.29875 0.2684691
v 0.16724638 -0.29875 0.26890839
v 0.16724638 -0.29886999 0.26890839
v 0.16712244 -0.29886999 0.2684691
v 0.16620621 -0.29886999 0.26684999
v 0.16652941 -0.29886999 0.26684999
v 0.166782 -0.29886999 0.2675466
v 0.16774372 -0.29886999 0.2675466
v 0.16801201 -0.29886999 0.26684999
v 0.16835873 -0.29886999 0.26684999
v 0.16741739 -0.29886999 0.26915001
v 0.1670895 -0.29886999 0.26915001
v 0.16686985 -0.29886999 0.26779448
v 0.16712244 -0.29886999 0.2684691
v 0.16724638 -0.29886999 0.26890839
v 0.16740955 -0.29886999 0.26843145
v 0.16764959 -0.29886999 0.26779448
v 0.16686985 -0.29875 0.26779448
v 0.16712244 -0.29875 0.2684691
v 0.16712244 -0.29886999 0.2684691
v 0.16686985 -0.29886999 0.26779448
v 0.16652941 -0.29875 0.26684999
v 0.166782 -0.29875 0.2675466
v 0.166782 -0.29886999 0.2675466
v 0.16652941 -0.29886999 0.26684999
v 0.16724638 -0.29875 0.26890839
v 0.16740955 -0.29875 0.26843145
v 0.16740955 -0.29886999 0.26843145
v 0.16724638 -0.29886999 0.26890839
v 0.16740955 -0.29875 0.26843145
v 0.16764959 -0.29875 0.26779448
v 0.16764959 -0.29886999 0.26779448
v 0.16740955 -0.29886999 0.26843145
v 0.16741739 -0.29875 0.26915001
v 0.1670895 -0.29875 0.26915001
v 0.1670895 -0.29886999 0.26915001
v 0.16741739 -0.29886999 0.26915001
v 0.16801201 -0.29875 0.26684999
v 0.16835873 -0.29875 0.26684999
v 0.16835873 -0.29886999 0.26684999
v 0.16801201 -0.29886999 0.26684999
v 0.166782 -0.29875 0.2675466
v 0.16774372 -0.29875 0.2675466
v 0.16774372 -0.29886999 0.2675466
v 0.166782 -0.29886999 0.2675466
v 0.1670895 -0.29875 0.26915001
v 0.16620621 -0.29875 0.26684999
v 0.16620621 -0.29886999 0.26684999
v 0.1670895 -0.29886999 0.26915001
v 0.16620621 -0.29875 0.26684999
v 0.16652941 -0.29875 0.26684999
v 0.16652941 -0.29886999 0.26684999
v 0.16620621 -0.29886999 0.26684999
v 0.16652941 -0.29875 0.26684999
v 0.16620621 -0.29875 0.26684999
v 0.1670895 -0.29875 0.26915001
v 0.16741739 -0.29875 0.26915001
v 0.16835873 -0.29875 0.26684999
v 0.16801201 -0.29875 0.26684999
v 0.16774372 -0.29875 0.2675466
v 0.166782 -0.29875 0.2675466
v 0.16712244 -0.29875 0.2684691
v 0.16686985 -0.29875 0.26779448
v 0.16764959 -0.29875 0.26779448
v 0.16740955 -0.29875 0.26843145
v 0.16724638 -0.29875 0.26890839
f 1 2 4
f 4 2 3
f 5 6 8
f 8 6 7
f 9 10 12
f 12 10 11
f 13 14 16
f 16 14 15
f 18 19 17
f 17 19 25
f 17 25 24
f 24 25 26
f 24 26 27
f 25 19 29
f 29 19 20
f 29 20 22
f 22 20 21
f 22 23 29
f 29 23 28
f 28 23 27
f 27 23 24
f 30 31 33
f 33 31 32
f 34 35 37
f 37 35 36
f 38 39 41
f 41 39 40
f 42 43 45
f 45 43 44
f 46 47 49
f 49 47 48
f 50 51 53
f 53 51 52
f 54 55 57
f 57 55 56
f 58 59 61
f 61 59 60
f 62 63 65
f 65 63 64
f 66 67 73
f 73 67 75
f 73 75 76
f 67 68 75
f 75 68 74
f 74 68 78
f 78 68 69
f 78 69 77
f 77 69 76
f 76 69 70
f 76 70 72
f 72 70 71
f 72 73 76
