v -0.20799999 0.29700001 0.025
v -0.20799999 0.3 0.025
v 0.20799999 0.3 0.025
v 0.20799999 0.29700001 0.025
v -0.176 0.3 0.26299999
v -0.17580301 0.3 0.26049706
v -0.1752169 0.3 0.25805573
v -0.1742561 0.3 0.25573616
v -0.17294428 0.3 0.25359543
v -0.17131371 0.3 0.25168629
v -0.16940456 0.3 0.25005573
v -0.16726385 0.3 0.2487439
v -0.16494427 0.3 0.24778309
v -0.16250296 0.3 0.24719698
v -0.16 0.3 0.24700001
v -0.15749705 0.3 0.24719698
v -0.15505573 0.3 0.24778309
v -0.15273615 0.3 0.2487439
v -0.15059544 0.3 0.25005573
v -0.14868629 0.3 0.25168629
v -0.14705573 0.3 0.25359543
v -0.14574389 0.3 0.25573616
v -0.1447831 0.3 0.25805573
v -0.14419699 0.3 0.26049706
v -0.144 0.3 0.26299999
v -0.14419699 0.3 0.26550295
v -0.1447831 0.3 0.26794428
v -0.14574389 0.3 0.27026384
v -0.14705573 0.3 0.27240456
v -0.14868629 0.3 0.27431372
v -0.15059544 0.3 0.27594427
v -0.15273615 0.3 0.27725611
v -0.15505573 0.3 0.2782169
v -0.15749705 0.3 0.27880301
v -0.16 0.3 0.279
v -0.16250296 0.3 0.27880301
v -0.16494427 0.3 0.2782169
v -0.16726385 0.3 0.27725611
v -0.16940456 0.3 0.27594427
v -0.17131371 0.3 0.27431372
v -0.17294428 0.3 0.27240456
v -0.1742561 0.3 0.27026384
v -0.1752169 0.3 0.26794428
v -0.17580301 0.3 0.26550295
v 0.20799999 0.3 0.025
v -0.20799999 0.3 0.025
v -0.20799999 0.3 0.30799999
v 0.20799999 0.3 0.30799999
v 0.20799999 0.29700001 0.025
v 0.20799999 0.3 0.025
v 0.20799999 0.3 0.30799999
v 0.20799999 0.29700001 0.30799999
v -0.176 0.29700001 0.26299999
v -0.17580301 0.29700001 0.26550295
v -0.1752169 0.29700001 0.26794428
v -0.1742561 0.29700001 0.27026384
v -0.17294428 0.29700001 0.27240456
v -0.17131371 0.29700001 0.27431372
v -0.16940456 0.29700001 0.27594427
v -0.16726385 0.29700001 0.27725611
v -0.16494427 0.29700001 0.2782169
v -0.16250296 0.29700001 0.27880301
v -0.16 0.29700001 0.279
v -0.15749705 0.29700001 0.27880301
v -0.15505573 0.29700001 0.2782169
v -0.15273615 0.29700001 0.27725611
v -0.15059544 0.29700001 0.27594427
v -0.14868629 0.29700001 0.27431372
v -0.14705573 0.29700001 0.27240456
v -0.14574389 0.29700001 0.27026384
v -0.1447831 0.29700001 0.26794428
v -0.14419699 0.29700001 0.26550295
v -0.144 0.29700001 0.26299999
v -0.14419699 0.29700001 0.26049706
v -0.1447831 0.29700001 0.25805573
v -0.14574389 0.29700001 0.25573616
v -0.14705573 0.29700001 0.25359543
v -0.14868629 0.29700001 0.25168629
v -0.15059544 0.29700001 0.25005573
v -0.15273615 0.29700001 0.2487439
v -0.15505573 0.29700001 0.24778309
v -0.15749705 0.29700001 0.24719698
v -0.16 0.29700001 0.24700001
v -0.16250296 0.29700001 0.24719698
v -0.16494427 0.29700001 0.24778309
v -0.16726385 0.29700001 0.2487439
v -0.16940456 0.29700001 0.25005573
v -0.17131371 0.29700001 0.25168629
v -0.17294428 0.29700001 0.25359543
v -0.1742561 0.29700001 0.25573616
v -0.1752169 0.29700001 0.25805573
v -0.17580301 0.29700001 0.26049706
v -0.20799999 0.29700001 0.025
v 0.20799999 0.29700001 0.025
v 0.20799999 0.29700001 0.30799999
v -0.20799999 0.29700001 0.30799999
v -0.20799999 0.3 0.025
v -0.20799999 0.29700001 0.025
v -0.20799999 0.29700001 0.30799999
v -0.20799999 0.3 0.30799999
v -0.20799999 0.3 0.30799999
v -0.20799999 0.29700001 0.30799999
v 0.20799999 0.29700001 0.30799999
v 0.20799999 0.3 0.30799999
v -0.176 0.3 0.26299999
v -0.17580301 0.3 0.26550295
v -0.1752169 0.3 0.26794428
v -0.1742561 0.3 0.27026384
v -0.17294428 0.3 0.27240456
v -0.17131371 0.3 0.27431372
v -0.16940456 0.3 0.27594427
v -0.16726385 0.3 0.27725611
v -0.16494427 0.3 0.2782169
v -0.16250296 0.3 0.27880301
v -0.16 0.3 0.279
v -0.15749705 0.3 0.27880301
v -0.15505573 0.3 0.2782169
v -0.15273615 0.3 0.27725611
v -0.15059544 0.3 0.27594427
v -0.14868629 0.3 0.27431372
v -0.14705573 0.3 0.27240456
v -0.14574389 0.3 0.27026384
v -0.1447831 0.3 0.26794428
v -0.14419699 0.3 0.26550295
v -0.144 0.3 0.26299999
v -0.14419699 0.3 0.26049706
v -0.1447831 0.3 0.25805573
v -0.14574389 0.3 0.25573616
v -0.14705573 0.3 0.25359543
v -0.14868629 0.3 0.25168629
v -0.15059544 0.3 0.25005573
v -0.15273615 0.3 0.2487439
v -0.15505573 0.3 0.24778309
v -0.15749705 0.3 0.24719698
v -0.16 0.3 0.24700001
v -0.16250296 0.3 0.24719698
v -0.16494427 0.3 0.24778309
v -0.16726385 0.3 0.2487439
v -0.16940456 0.3 0.25005573
v -0.17131371 0.3 0.25168629
v -0.17294428 0.3 0.25359543
v -0.1742561 0.3 0.25573616
v -0.1752169 0.3 0.25805573
v -0.17580301 0.3 0.26049706
v -0.176 0.29700001 0.26299999
v -0.17580301 0.29700001 0.26049706
v -0.1752169 0.29700001 0.25805573
v -0.1742561 0.29700001 0.25573616
v -0.17294428 0.29700001 0.25359543
v -0.17131371 0.29700001 0.25168629
v -0.16940456 0.29700001 0.25005573
v -0.16726385 0.29700001 0.2487439
v -0.16494427 0.29700001 0.24778309
v -0.16250296 0.29700001 0.24719698
v -0.16 0.29700001 0.24700001
v -0.15749705 0.29700001 0.24719698
v -0.15505573 0.29700001 0.24778309
v -0.15273615 0.29700001 0.2487439
v -0.15059544 0.29700001 0.25005573
v -0.14868629 0.29700001 0.25168629
v -0.14705573 0.29700001 0.25359543
v -0.14574389 0.29700001 0.25573616
v -0.1447831 0.29700001 0.25805573
v -0.14419699 0.29700001 0.26049706
v -0.144 0.29700001 0.26299999
v -0.14419699 0.29700001 0.26550295
v -0.1447831 0.29700001 0.26794428
v -0.14574389 0.29700001 0.27026384
v -0.14705573 0.29700001 0.27240456
v -0.14868629 0.29700001 0.27431372
v -0.15059544 0.29700001 0.27594427
v -0.15273615 0.29700001 0.27725611
v -0.15505573 0.29700001 0.2782169
v -0.15749705 0.29700001 0.27880301
v -0.16 0.29700001 0.279
v -0.16250296 0.29700001 0.27880301
v -0.16494427 0.29700001 0.2782169
v -0.16726385 0.29700001 0.27725611
v -0.16940456 0.29700001 0.27594427
v -0.17131371 0.29700001 0.27431372
v -0.17294428 0.29700001 0.27240456
v -0.1742561 0.29700001 0.27026384
v -0.1752169 0.29700001 0.26794428
v -0.17580301 0.29700001 0.26550295
v -0.176 0.3 0.26299999
v -0.176 0.29700001 0.26299999
f 2 3 1
f 1 3 4
f 44 5 47
f 47 5 6
f 47 6 7
f 7 8 47
f 47 8 46
f 46 8 9
f 46 9 10
f 10 11 46
f 46 11 12
f 46 12 13
f 13 14 46
f 46 14 15
f 46 15 16
f 16 17 46
f 46 17 18
f 46 18 45
f 45 18 19
f 45 19 20
f 45 20 48
f 48 20 21
f 48 21 22
f 22 23 48
f 48 23 24
f 48 24 25
f 25 26 48
f 48 26 27
f 48 27 28
f 28 29 48
f 48 29 30
f 48 30 31
f 31 32 48
f 48 32 47
f 47 32 33
f 47 33 34
f 34 35 47
f 47 35 36
f 47 36 37
f 37 38 47
f 47 38 39
f 47 39 40
f 40 41 47
f 47 41 42
f 47 42 43
f 43 44 47
f 49 50 52
f 52 50 51
f 92 53 96
f 96 53 54
f 96 54 55
f 55 56 96
f 96 56 57
f 96 57 58
f 58 59 96
f 96 59 60
f 96 60 61
f 61 62 96
f 96 62 63
f 96 63 64
f 64 65 96
f 96 65 66
f 96 66 95
f 95 66 67
f 95 67 68
f 68 69 95
f 95 69 70
f 95 70 71
f 71 72 95
f 95 72 73
f 95 73 74
f 74 75 95
f 95 75 76
f 95 76 77
f 77 78 95
f 95 78 94
f 94 78 79
f 94 79 80
f 94 80 93
f 93 80 81
f 93 81 82
f 82 83 93
f 93 83 84
f 93 84 85
f 85 86 93
f 93 86 87
f 93 87 88
f 88 89 93
f 93 89 90
f 93 90 96
f 96 90 91
f 96 91 92
f 97 98 100
f 100 98 99
f 102 103 101
f 101 103 104
f 106 184 105
f 105 184 186
f 185 145 144
f 144 145 146
f 144 146 143
f 143 146 147
f 143 147 142
f 142 147 148
f 142 148 141
f 141 148 149
f 141 149 140
f 140 149 150
f 140 150 139
f 139 150 151
f 139 151 138
f 138 151 152
f 138 152 137
f 137 152 153
f 137 153 136
f 136 153 154
f 136 154 135
f 135 154 155
f 135 155 134
f 134 155 156
f 134 156 133
f 133 156 157
f 133 157 132
f 132 157 158
f 132 158 131
f 131 158 159
f 131 159 130
f 130 159 160
f 130 160 129
f 129 160 161
f 129 161 128
f 128 161 162
f 128 162 127
f 127 162 163
f 127 163 126
f 126 163 164
f 126 164 125
f 125 164 165
f 125 165 124
f 124 165 166
f 124 166 123
f 123 166 167
f 123 167 122
f 122 167 168
f 122 168 121
f 121 168 169
f 121 169 120
f 120 169 170
f 120 170 119
f 119 170 171
f 119 171 118
f 118 171 172
f 118 172 117
f 117 172 173
f 117 173 116
f 116 173 174
f 116 174 115
f 115 174 175
f 115 175 114
f 114 175 176
f 114 176 113
f 113 176 177
f 113 177 112
f 112 177 178
f 112 178 111
f 111 178 179
f 111 179 110
f 110 179 180
f 110 180 109
f 109 180 181
f 109 181 108
f 108 181 182
f 108 182 107
f 107 182 183
f 107 183 106
f 106 183 184
