v 0.0259427 0.050608525 9.9999998e-05
v 0.026107078 0.05106298 9.9999998e-05
v 0.026161869 0.05155334 9.9999998e-05
v 0.026161869 0.05155334 0.000125
v 0.026107078 0.05106298 0.000125
v 0.0259427 0.050608525 0.000125
v 0.02534045 0.049939971 9.9999998e-05
v 0.025682554 0.050223141 9.9999998e-05
v 0.0259427 0.050608525 9.9999998e-05
v 0.0259427 0.050608525 0.000125
v 0.025682554 0.050223141 0.000125
v 0.02534045 0.049939971 0.000125
v 0.026161869 0.05155334 9.9999998e-05
v 0.02604538 0.052255507 9.9999998e-05
v 0.025695908 0.052814937 9.9999998e-05
v 0.025695908 0.052814937 0.000125
v 0.02604538 0.052255507 0.000125
v 0.026161869 0.05155334 0.000125
v 0.024471145 0.049707913 9.9999998e-05
v 0.024931583 0.04976593 9.9999998e-05
v 0.02534045 0.049939971 9.9999998e-05
v 0.02534045 0.049939971 0.000125
v 0.024931583 0.04976593 0.000125
v 0.024471145 0.049707913 0.000125
v 0.025695908 0.052814937 9.9999998e-05
v 0.025180678 0.053180985 9.9999998e-05
v 0.024566917 0.053303003 9.9999998e-05
v 0.024566917 0.053303003 0.000125
v 0.025180678 0.053180985 0.000125
v 0.025695908 0.052814937 0.000125
v 0.023119304 0.050317531 9.9999998e-05
v 0.023718791 0.049860315 9.9999998e-05
v 0.024471145 0.049707913 9.9999998e-05
v 0.024471145 0.049707913 0.000125
v 0.023718791 0.049860315 0.000125
v 0.023119304 0.050317531 0.000125
v 0.024566917 0.053303003 9.9999998e-05
v 0.023841269 0.053126192 9.9999998e-05
v 0.023841269 0.053126192 0.000125
v 0.024566917 0.053303003 0.000125
v 0.022596247 0.052326875 9.9999998e-05
v 0.022628939 0.051676393 9.9999998e-05
v 0.022727013 0.051124678 9.9999998e-05
v 0.022890468 0.050671721 9.9999998e-05
v 0.023119304 0.050317531 9.9999998e-05
v 0.023119304 0.050317531 0.000125
v 0.022890468 0.050671721 0.000125
v 0.022727013 0.051124678 0.000125
v 0.022628939 0.051676393 0.000125
v 0.022596247 0.052326875 0.000125
v 0.023841269 0.053126192 9.9999998e-05
v 0.023521726 0.052902422 9.9999998e-05
v 0.023255594 0.05258472 9.9999998e-05
v 0.023255594 0.05258472 0.000125
v 0.023521726 0.052902422 0.000125
v 0.023841269 0.053126192 0.000125
v 0.023174555 0.054603276 9.9999998e-05
v 0.022921546 0.054194407 9.9999998e-05
v 0.022740824 0.053678718 9.9999998e-05
v 0.022632391 0.053056207 9.9999998e-05
v 0.022596247 0.052326875 9.9999998e-05
v 0.022596247 0.052326875 0.000125
v 0.022632391 0.053056207 0.000125
v 0.022740824 0.053678718 0.000125
v 0.022921546 0.054194407 0.000125
v 0.023174555 0.054603276 0.000125
v 0.023255594 0.05258472 9.9999998e-05
v 0.023306241 0.053302078 9.9999998e-05
v 0.023443451 0.053833423 9.9999998e-05
v 0.023443451 0.053833423 0.000125
v 0.023306241 0.053302078 0.000125
v 0.023255594 0.05258472 0.000125
v 0.024533765 0.055222101 9.9999998e-05
v 0.023766677 0.055067396 9.9999998e-05
v 0.023174555 0.054603276 9.9999998e-05
v 0.023174555 0.054603276 0.000125
v 0.023766677 0.055067396 0.000125
v 0.024533765 0.055222101 0.000125
v 0.023443451 0.053833423 9.9999998e-05
v 0.023657093 0.05421927 9.9999998e-05
v 0.023937039 0.054500136 9.9999998e-05
v 0.023937039 0.054500136 0.000125
v 0.023657093 0.05421927 0.000125
v 0.023443451 0.053833423 0.000125
v 0.025578036 0.054864802 9.9999998e-05
v 0.025113454 0.055132775 9.9999998e-05
v 0.024533765 0.055222101 9.9999998e-05
v 0.024533765 0.055222101 0.000125
v 0.025113454 0.055132775 0.000125
v 0.025578036 0.054864802 0.000125
v 0.023937039 0.054500136 9.9999998e-05
v 0.024493246 0.054676943 9.9999998e-05
v 0.024493246 0.054676943 0.000125
v 0.023937039 0.054500136 0.000125
v 0.026066098 0.053877625 9.9999998e-05
v 0.025903563 0.054439359 9.9999998e-05
v 0.025578036 0.054864802 9.9999998e-05
v 0.025578036 0.054864802 0.000125
v 0.025903563 0.054439359 0.000125
v 0.026066098 0.053877625 0.000125
v 0.024493246 0.054676943 9.9999998e-05
v 0.024856071 0.054606037 9.9999998e-05
v 0.025156276 0.054393315 9.9999998e-05
v 0.025156276 0.054393315 0.000125
v 0.024856071 0.054606037 0.000125
v 0.024493246 0.054676943 0.000125
v 0.025156276 0.054393315 9.9999998e-05
v 0.025299931 0.054163098 9.9999998e-05
v 0.025406752 0.053826056 9.9999998e-05
v 0.025406752 0.053826056 0.000125
v 0.025299931 0.054163098 0.000125
v 0.025156276 0.054393315 0.000125
v 0.025406752 0.053826056 9.9999998e-05
v 0.026066098 0.053877625 9.9999998e-05
v 0.026066098 0.053877625 0.000125
v 0.025406752 0.053826056 0.000125
v 0.023358731 0.051549659 0.000125
v 0.023437004 0.052022529 0.000125
v 0.023671827 0.05239502 0.000125
v 0.024018998 0.052636747 0.000125
v 0.024434311 0.052717328 0.000125
v 0.024848704 0.052636747 0.000125
v 0.025185742 0.05239502 0.000125
v 0.025409515 0.052013316 0.000125
v 0.025484107 0.051512823 0.000125
v 0.025408595 0.050991611 0.000125
v 0.025182059 0.05059195 0.000125
v 0.024850545 0.050337791 0.000125
v 0.024460096 0.050253067 0.000125
v 0.023911254 0.050416985 0.000125
v 0.023504229 0.050893998 0.000125
v 0.026066098 0.053877625 0.000125
v 0.025903563 0.054439359 0.000125
v 0.025578036 0.054864802 0.000125
v 0.025113454 0.055132775 0.000125
v 0.024533765 0.055222101 0.000125
v 0.023766677 0.055067396 0.000125
v 0.023174555 0.054603276 0.000125
v 0.022921546 0.054194407 0.000125
v 0.022740824 0.053678718 0.000125
v 0.022632391 0.053056207 0.000125
v 0.022596247 0.052326875 0.000125
v 0.022628939 0.051676393 0.000125
v 0.022727013 0.051124678 0.000125
v 0.022890468 0.050671721 0.000125
v 0.023119304 0.050317531 0.000125
v 0.023718791 0.049860315 0.000125
v 0.024471145 0.049707913 0.000125
v 0.024931583 0.04976593 0.000125
v 0.02534045 0.049939971 0.000125
v 0.025682554 0.050223141 0.000125
v 0.0259427 0.050608525 0.000125
v 0.026107078 0.05106298 0.000125
v 0.026161869 0.05155334 0.000125
v 0.02604538 0.052255507 0.000125
v 0.025695908 0.052814937 0.000125
v 0.025180678 0.053180985 0.000125
v 0.024566917 0.053303003 0.000125
v 0.023841269 0.053126192 0.000125
v 0.023521726 0.052902422 0.000125
v 0.023255594 0.05258472 0.000125
v 0.023306241 0.053302078 0.000125
v 0.023443451 0.053833423 0.000125
v 0.023657093 0.05421927 0.000125
v 0.023937039 0.054500136 0.000125
v 0.024493246 0.054676943 0.000125
v 0.024856071 0.054606037 0.000125
v 0.025156276 0.054393315 0.000125
v 0.025299931 0.054163098 0.000125
v 0.025406752 0.053826056 0.000125
v 0.023671827 0.05239502 9.9999998e-05
v 0.024018998 0.052636747 9.9999998e-05
v 0.024434311 0.052717328 9.9999998e-05
v 0.024434311 0.052717328 0.000125
v 0.024018998 0.052636747 0.000125
v 0.023671827 0.05239502 0.000125
v 0.023358731 0.051549659 9.9999998e-05
v 0.023437004 0.052022529 9.9999998e-05
v 0.023671827 0.05239502 9.9999998e-05
v 0.023671827 0.05239502 0.000125
v 0.023437004 0.052022529 0.000125
v 0.023358731 0.051549659 0.000125
v 0.024434311 0.052717328 9.9999998e-05
v 0.024848704 0.052636747 9.9999998e-05
v 0.025185742 0.05239502 9.9999998e-05
v 0.025185742 0.05239502 0.000125
v 0.024848704 0.052636747 0.000125
v 0.024434311 0.052717328 0.000125
v 0.023671827 0.05239502 9.9999998e-05
v 0.023437004 0.052022529 9.9999998e-05
v 0.023358731 0.051549659 9.9999998e-05
v 0.023504229 0.050893998 9.9999998e-05
v 0.023911254 0.050416985 9.9999998e-05
v 0.024460096 0.050253067 9.9999998e-05
v 0.024850545 0.050337791 9.9999998e-05
v 0.025182059 0.05059195 9.9999998e-05
v 0.025408595 0.050991611 9.9999998e-05
v 0.025484107 0.051512823 9.9999998e-05
v 0.025409515 0.052013316 9.9999998e-05
v 0.025185742 0.05239502 9.9999998e-05
v 0.024848704 0.052636747 9.9999998e-05
v 0.024434311 0.052717328 9.9999998e-05
v 0.024018998 0.052636747 9.9999998e-05
v 0.025578036 0.054864802 9.9999998e-05
v 0.025903563 0.054439359 9.9999998e-05
v 0.026066098 0.053877625 9.9999998e-05
v 0.025406752 0.053826056 9.9999998e-05
v 0.025299931 0.054163098 9.9999998e-05
v 0.025156276 0.054393315 9.9999998e-05
v 0.024856071 0.054606037 9.9999998e-05
v 0.024493246 0.054676943 9.9999998e-05
v 0.023937039 0.054500136 9.9999998e-05
v 0.023657093 0.05421927 9.9999998e-05
v 0.023443451 0.053833423 9.9999998e-05
v 0.023306241 0.053302078 9.9999998e-05
v 0.023255594 0.05258472 9.9999998e-05
v 0.023521726 0.052902422 9.9999998e-05
v 0.023841269 0.053126192 9.9999998e-05
v 0.024566917 0.053303003 9.9999998e-05
v 0.025180678 0.053180985 9.9999998e-05
v 0.025695908 0.052814937 9.9999998e-05
v 0.02604538 0.052255507 9.9999998e-05
v 0.026161869 0.05155334 9.9999998e-05
v 0.026107078 0.05106298 9.9999998e-05
v 0.0259427 0.050608525 9.9999998e-05
v 0.025682554 0.050223141 9.9999998e-05
v 0.02534045 0.049939971 9.9999998e-05
v 0.024931583 0.04976593 9.9999998e-05
v 0.024471145 0.049707913 9.9999998e-05
v 0.023718791 0.049860315 9.9999998e-05
v 0.023119304 0.050317531 9.9999998e-05
v 0.022890468 0.050671721 9.9999998e-05
v 0.022727013 0.051124678 9.9999998e-05
v 0.022628939 0.051676393 9.9999998e-05
v 0.022596247 0.052326875 9.9999998e-05
v 0.022632391 0.053056207 9.9999998e-05
v 0.022740824 0.053678718 9.9999998e-05
v 0.022921546 0.054194407 9.9999998e-05
v 0.023174555 0.054603276 9.9999998e-05
v 0.023766677 0.055067396 9.9999998e-05
v 0.024533765 0.055222101 9.9999998e-05
v 0.025113454 0.055132775 9.9999998e-05
v 0.025185742 0.05239502 9.9999998e-05
v 0.025409515 0.052013316 9.9999998e-05
v 0.025484107 0.051512823 9.9999998e-05
v 0.025484107 0.051512823 0.000125
v 0.025409515 0.052013316 0.000125
v 0.025185742 0.05239502 0.000125
v 0.025484107 0.051512823 9.9999998e-05
v 0.025408595 0.050991611 9.9999998e-05
v 0.025182059 0.05059195 9.9999998e-05
v 0.025182059 0.05059195 0.000125
v 0.025408595 0.050991611 0.000125
v 0.025484107 0.051512823 0.000125
v 0.025182059 0.05059195 9.9999998e-05
v 0.024850545 0.050337791 9.9999998e-05
v 0.024460096 0.050253067 9.9999998e-05
v 0.024460096 0.050253067 0.000125
v 0.024850545 0.050337791 0.000125
v 0.025182059 0.05059195 0.000125
v 0.024460096 0.050253067 9.9999998e-05
v 0.023911254 0.050416985 9.9999998e-05
v 0.023911254 0.050416985 0.000125
v 0.024460096 0.050253067 0.000125
v 0.023911254 0.050416985 9.9999998e-05
v 0.023504229 0.050893998 9.9999998e-05
v 0.023504229 0.050893998 0.000125
v 0.023911254 0.050416985 0.000125
v 0.023504229 0.050893998 9.9999998e-05
v 0.023358731 0.051549659 9.9999998e-05
v 0.023358731 0.051549659 0.000125
v 0.023504229 0.050893998 0.000125
f 1 2 6
f 6 2 5
f 5 2 3
f 5 3 4
f 7 8 12
f 12 8 11
f 11 8 9
f 11 9 10
f 13 14 18
f 18 14 17
f 17 14 15
f 17 15 16
f 19 20 24
f 24 20 23
f 23 20 21
f 23 21 22
f 25 26 30
f 30 26 29
f 29 26 27
f 29 27 28
f 31 32 36
f 36 32 35
f 35 32 33
f 35 33 34
f 37 38 40
f 40 38 39
f 41 42 50
f 50 42 49
f 49 42 43
f 49 43 48
f 48 43 44
f 48 44 47
f 47 44 45
f 47 45 46
f 51 52 56
f 56 52 55
f 55 52 53
f 55 53 54
f 57 58 66
f 66 58 65
f 65 58 59
f 65 59 64
f 64 59 60
f 64 60 63
f 63 60 61
f 63 61 62
f 67 68 72
f 72 68 71
f 71 68 69
f 71 69 70
f 73 74 78
f 78 74 77
f 77 74 75
f 77 75 76
f 79 80 84
f 84 80 83
f 83 80 81
f 83 81 82
f 85 86 90
f 90 86 89
f 89 86 87
f 89 87 88
f 91 92 94
f 94 92 93
f 95 96 100
f 100 96 99
f 99 96 97
f 99 97 98
f 101 102 106
f 106 102 105
f 105 102 103
f 105 103 104
f 107 108 112
f 112 108 111
f 111 108 109
f 111 109 110
f 113 114 116
f 116 114 115
f 118 143 117
f 117 143 144
f 117 144 145
f 143 118 161
f 161 118 119
f 161 119 160
f 160 119 159
f 159 119 120
f 159 120 121
f 159 121 158
f 158 121 122
f 158 122 157
f 157 122 123
f 157 123 156
f 156 123 124
f 156 124 155
f 155 124 125
f 155 125 154
f 154 125 153
f 153 125 126
f 153 126 152
f 152 126 151
f 151 126 127
f 151 127 150
f 150 127 128
f 150 128 149
f 149 128 129
f 149 129 148
f 148 129 130
f 148 130 147
f 147 130 131
f 147 131 146
f 146 131 145
f 145 131 117
f 132 133 170
f 170 133 169
f 169 133 134
f 169 134 168
f 168 134 135
f 168 135 167
f 167 135 136
f 167 136 166
f 166 136 137
f 166 137 165
f 165 137 164
f 164 137 138
f 164 138 163
f 163 138 139
f 163 139 162
f 162 139 140
f 162 140 141
f 162 141 161
f 161 141 142
f 161 142 143
f 171 172 176
f 176 172 175
f 175 172 173
f 175 173 174
f 177 178 182
f 182 178 181
f 181 178 179
f 181 179 180
f 183 184 188
f 188 184 187
f 187 184 185
f 187 185 186
f 190 216 189
f 189 216 217
f 189 217 218
f 216 190 234
f 234 190 191
f 234 191 233
f 233 191 232
f 232 191 192
f 232 192 231
f 231 192 230
f 230 192 193
f 230 193 229
f 229 193 194
f 229 194 228
f 228 194 195
f 228 195 227
f 227 195 196
f 227 196 226
f 226 196 197
f 226 197 225
f 225 197 224
f 224 197 198
f 224 198 223
f 223 198 222
f 222 198 199
f 222 199 221
f 221 199 200
f 221 200 220
f 220 200 201
f 220 201 219
f 219 201 202
f 219 202 218
f 218 202 203
f 218 203 189
f 205 208 204
f 204 208 209
f 204 209 242
f 242 209 210
f 242 210 241
f 241 210 211
f 241 211 240
f 240 211 212
f 240 212 213
f 206 207 205
f 205 207 208
f 240 213 239
f 239 213 214
f 239 214 238
f 238 214 215
f 238 215 237
f 237 215 236
f 236 215 216
f 236 216 235
f 235 216 234
f 243 244 248
f 248 244 247
f 247 244 245
f 247 245 246
f 249 250 254
f 254 250 253
f 253 250 251
f 253 251 252
f 255 256 260
f 260 256 259
f 259 256 257
f 259 257 258
f 261 262 264
f 264 262 263
f 265 266 268
f 268 266 267
f 269 270 272
f 272 270 271
