v 0.045 -0.00022 0.065999999
v 0.054997272 -0.00022 0.065999999
v 0.054997272 -0.00022 0.067888131
v 0.047117324 -0.00022 0.067888131
v 0.047117324 -0.00022 0.081999998
v 0.045 -0.00022 0.081999998
v 0.054997272 -9.9999998e-05 0.065999999
v 0.045 -9.9999998e-05 0.065999999
v 0.045 -9.9999998e-05 0.081999998
v 0.047117324 -9.9999998e-05 0.081999998
v 0.047117324 -9.9999998e-05 0.067888131
v 0.054997272 -9.9999998e-05 0.067888131
v 0.045 -9.9999998e-05 0.065999999
v 0.054997272 -9.9999998e-05 0.065999999
v 0.054997272 -0.00022 0.065999999
v 0.045 -0.00022 0.065999999
v 0.054997272 -9.9999998e-05 0.065999999
v 0.054997272 -9.9999998e-05 0.067888131
v 0.054997272 -0.00022 0.067888131
v 0.054997272 -0.00022 0.065999999
v 0.054997272 -9.9999998e-05 0.067888131
v 0.047117324 -9.9999998e-05 0.067888131
v 0.047117324 -0.00022 0.067888131
v 0.054997272 -0.00022 0.067888131
v 0.047117324 -9.9999998e-05 0.067888131
v 0.047117324 -9.9999998e-05 0.081999998
v 0.047117324 -0.00022 0.081999998
v 0.047117324 -0.00022 0.067888131
v 0.047117324 -9.9999998e-05 0.081999998
v 0.045 -9.9999998e-05 0.081999998
v 0.045 -0.00022 0.081999998
v 0.047117324 -0.00022 0.081999998
v 0.045 -9.9999998e-05 0.081999998
v 0.045 -9.9999998e-05 0.065999999
v 0.045 -0.00022 0.065999999
v 0.045 -0.00022 0.081999998
f 6 1 4
f 4 1 2
f 4 2 3
f 4 5 6
f 12 7 11
f 11 7 8
f 11 8 9
f 9 10 11
f 13 14 16
f 16 14 15
f 17 18 20
f 20 18 19
f 21 22 24
f 24 22 23
f 25 26 28
f 28 26 27
f 29 30 32
f 32 30 31
f 33 34 36
f 36 34 35
