v 0.028878174 0.0078000003 9.9999998e-05
v 0.029361391 0.0091326058 9.9999998e-05
v 0.029361391 0.0091326058 0.000125
v 0.028878174 0.0078000003 0.000125
v 0.028259892 0.0078000003 9.9999998e-05
v 0.028878174 0.0078000003 9.9999998e-05
v 0.028878174 0.0078000003 0.000125
v 0.028259892 0.0078000003 0.000125
v 0.029361391 0.0091326058 9.9999998e-05
v 0.031201229 0.0091326058 9.9999998e-05
v 0.031201229 0.0091326058 0.000125
v 0.029361391 0.0091326058 0.000125
v 0.031201229 0.0091326058 9.9999998e-05
v 0.031714463 0.0078000003 9.9999998e-05
v 0.031714463 0.0078000003 0.000125
v 0.031201229 0.0091326058 0.000125
v 0.031714463 0.0078000003 9.9999998e-05
v 0.032377763 0.0078000003 9.9999998e-05
v 0.032377763 0.0078000003 0.000125
v 0.031714463 0.0078000003 0.000125
v 0.028259892 0.0078000003 0.000125
v 0.028878174 0.0078000003 0.000125
v 0.029361391 0.0091326058 0.000125
v 0.031201229 0.0091326058 0.000125
v 0.031714463 0.0078000003 0.000125
v 0.032377763 0.0078000003 0.000125
v 0.030576944 0.0122 0.000125
v 0.02994966 0.0122 0.000125
v 0.029529469 0.0096068215 0.000125
v 0.030012689 0.010897408 0.000125
v 0.030249796 0.01173779 0.000125
v 0.030378854 0.011331105 0.000125
v 0.030561938 0.010825375 0.000125
v 0.031021147 0.0096068215 0.000125
v 0.032377763 0.0078000003 9.9999998e-05
v 0.030576944 0.0122 9.9999998e-05
v 0.030576944 0.0122 0.000125
v 0.032377763 0.0078000003 0.000125
v 0.030576944 0.0122 9.9999998e-05
v 0.02994966 0.0122 9.9999998e-05
v 0.02994966 0.0122 0.000125
v 0.030576944 0.0122 0.000125
v 0.028878174 0.0078000003 9.9999998e-05
v 0.028259892 0.0078000003 9.9999998e-05
v 0.02994966 0.0122 9.9999998e-05
v 0.030576944 0.0122 9.9999998e-05
v 0.032377763 0.0078000003 9.9999998e-05
v 0.031714463 0.0078000003 9.9999998e-05
v 0.031201229 0.0091326058 9.9999998e-05
v 0.029361391 0.0091326058 9.9999998e-05
v 0.030012689 0.010897408 9.9999998e-05
v 0.029529469 0.0096068215 9.9999998e-05
v 0.031021147 0.0096068215 9.9999998e-05
v 0.030561938 0.010825375 9.9999998e-05
v 0.030378854 0.011331105 9.9999998e-05
v 0.030249796 0.01173779 9.9999998e-05
v 0.02994966 0.0122 9.9999998e-05
v 0.028259892 0.0078000003 9.9999998e-05
v 0.028259892 0.0078000003 0.000125
v 0.02994966 0.0122 0.000125
v 0.029529469 0.0096068215 9.9999998e-05
v 0.030012689 0.010897408 9.9999998e-05
v 0.030012689 0.010897408 0.000125
v 0.029529469 0.0096068215 0.000125
v 0.030012689 0.010897408 9.9999998e-05
v 0.030249796 0.01173779 9.9999998e-05
v 0.030249796 0.01173779 0.000125
v 0.030012689 0.010897408 0.000125
v 0.030249796 0.01173779 9.9999998e-05
v 0.030378854 0.011331105 9.9999998e-05
v 0.030561938 0.010825375 9.9999998e-05
v 0.030561938 0.010825375 0.000125
v 0.030378854 0.011331105 0.000125
v 0.030249796 0.01173779 0.000125
v 0.030561938 0.010825375 9.9999998e-05
v 0.031021147 0.0096068215 9.9999998e-05
v 0.031021147 0.0096068215 0.000125
v 0.030561938 0.010825375 0.000125
v 0.031021147 0.0096068215 9.9999998e-05
v 0.029529469 0.0096068215 9.9999998e-05
v 0.029529469 0.0096068215 0.000125
v 0.031021147 0.0096068215 0.000125
f 1 2 4
f 4 2 3
f 5 6 8
f 8 6 7
f 9 10 12
f 12 10 11
f 13 14 16
f 16 14 15
f 17 18 20
f 20 18 19
f 22 23 21
f 21 23 29
f 21 29 28
f 28 29 30
f 28 30 31
f 29 23 34
f 34 23 24
f 34 24 26
f 26 24 25
f 26 27 34
f 34 27 33
f 33 27 32
f 32 27 31
f 31 27 28
f 35 36 38
f 38 36 37
f 39 40 42
f 42 40 41
f 43 44 50
f 50 44 52
f 50 52 53
f 44 45 52
f 52 45 51
f 51 45 56
f 56 45 46
f 56 46 55
f 55 46 54
f 54 46 53
f 53 46 47
f 53 47 49
f 49 47 48
f 49 50 53
f 57 58 60
f 60 58 59
f 61 62 64
f 64 62 63
f 65 66 68
f 68 66 67
f 69 70 74
f 74 70 73
f 73 70 71
f 73 71 72
f 75 76 78
f 78 76 77
f 79 80 82
f 82 80 81
