v 0.031433902 0.1226 9.9999998e-05
v 0.031887517 0.1226 9.9999998e-05
v 0.031887517 0.1226 0.000125
v 0.031433902 0.1226 0.000125
v 0.031887517 0.1226 9.9999998e-05
v 0.032991748 0.12578049 9.9999998e-05
v 0.032991748 0.12578049 0.000125
v 0.031887517 0.1226 0.000125
v 0.033476467 0.1226 9.9999998e-05
v 0.033476467 0.1264 9.9999998e-05
v 0.033476467 0.1264 0.000125
v 0.033476467 0.1226 0.000125
v 0.029850135 0.1226 0.000125
v 0.030334854 0.1226 0.000125
v 0.030334854 0.12583492 0.000125
v 0.031433902 0.1226 0.000125
v 0.031887517 0.1226 0.000125
v 0.032991748 0.12578049 0.000125
v 0.032991748 0.1226 0.000125
v 0.033476467 0.1226 0.000125
v 0.033476467 0.1264 0.000125
v 0.032799931 0.1264 0.000125
v 0.031890111 0.12375607 0.000125
v 0.031770873 0.1234029 0.000125
v 0.031687927 0.12314693 0.000125
v 0.031614053 0.12338087 0.000125
v 0.031506481 0.12370941 0.000125
v 0.030607023 0.1264 0.000125
v 0.029850135 0.1264 0.000125
v 0.030334854 0.1226 9.9999998e-05
v 0.030334854 0.12583492 9.9999998e-05
v 0.030334854 0.12583492 0.000125
v 0.030334854 0.1226 0.000125
v 0.029850135 0.1264 9.9999998e-05
v 0.029850135 0.1226 9.9999998e-05
v 0.029850135 0.1226 0.000125
v 0.029850135 0.1264 0.000125
v 0.031687927 0.12314693 9.9999998e-05
v 0.031614053 0.12338087 9.9999998e-05
v 0.031506481 0.12370941 9.9999998e-05
v 0.031506481 0.12370941 0.000125
v 0.031614053 0.12338087 0.000125
v 0.031687927 0.12314693 0.000125
v 0.030334854 0.12583492 9.9999998e-05
v 0.031433902 0.1226 9.9999998e-05
v 0.031433902 0.1226 0.000125
v 0.030334854 0.12583492 0.000125
v 0.032991748 0.12578049 9.9999998e-05
v 0.032991748 0.1226 9.9999998e-05
v 0.032991748 0.1226 0.000125
v 0.032991748 0.12578049 0.000125
v 0.032799931 0.1264 9.9999998e-05
v 0.031890111 0.12375607 9.9999998e-05
v 0.031890111 0.12375607 0.000125
v 0.032799931 0.1264 0.000125
v 0.031890111 0.12375607 9.9999998e-05
v 0.031770873 0.1234029 9.9999998e-05
v 0.031687927 0.12314693 9.9999998e-05
v 0.031687927 0.12314693 0.000125
v 0.031770873 0.1234029 0.000125
v 0.031890111 0.12375607 0.000125
v 0.030607023 0.1264 9.9999998e-05
v 0.029850135 0.1264 9.9999998e-05
v 0.029850135 0.1264 0.000125
v 0.030607023 0.1264 0.000125
v 0.032991748 0.1226 9.9999998e-05
v 0.033476467 0.1226 9.9999998e-05
v 0.033476467 0.1226 0.000125
v 0.032991748 0.1226 0.000125
v 0.031506481 0.12370941 9.9999998e-05
v 0.030607023 0.1264 9.9999998e-05
v 0.030607023 0.1264 0.000125
v 0.031506481 0.12370941 0.000125
v 0.030334854 0.1226 9.9999998e-05
v 0.029850135 0.1226 9.9999998e-05
v 0.029850135 0.1264 9.9999998e-05
v 0.030607023 0.1264 9.9999998e-05
v 0.031506481 0.12370941 9.9999998e-05
v 0.031614053 0.12338087 9.9999998e-05
v 0.031687927 0.12314693 9.9999998e-05
v 0.031770873 0.1234029 9.9999998e-05
v 0.031890111 0.12375607 9.9999998e-05
v 0.032799931 0.1264 9.9999998e-05
v 0.033476467 0.1264 9.9999998e-05
v 0.033476467 0.1226 9.9999998e-05
v 0.032991748 0.1226 9.9999998e-05
v 0.032991748 0.12578049 9.9999998e-05
v 0.031887517 0.1226 9.9999998e-05
v 0.031433902 0.1226 9.9999998e-05
v 0.030334854 0.12583492 9.9999998e-05
v 0.033476467 0.1264 9.9999998e-05
v 0.032799931 0.1264 9.9999998e-05
v 0.032799931 0.1264 0.000125
v 0.033476467 0.1264 0.000125
v 0.029850135 0.1226 9.9999998e-05
v 0.030334854 0.1226 9.9999998e-05
v 0.030334854 0.1226 0.000125
v 0.029850135 0.1226 0.000125
f 1 2 4
f 4 2 3
f 5 6 8
f 8 6 7
f 9 10 12
f 12 10 11
f 14 15 13
f 13 15 29
f 29 15 28
f 28 15 27
f 27 15 16
f 27 16 26
f 26 16 25
f 25 16 17
f 25 17 24
f 24 17 23
f 23 17 18
f 23 18 22
f 22 18 21
f 21 18 20
f 20 18 19
f 30 31 33
f 33 31 32
f 34 35 37
f 37 35 36
f 38 39 43
f 43 39 42
f 42 39 40
f 42 40 41
f 44 45 47
f 47 45 46
f 48 49 51
f 51 49 50
f 52 53 55
f 55 53 54
f 56 57 61
f 61 57 60
f 60 57 58
f 60 58 59
f 62 63 65
f 65 63 64
f 66 67 69
f 69 67 68
f 70 71 73
f 73 71 72
f 74 75 90
f 90 75 76
f 90 76 77
f 77 78 90
f 90 78 89
f 89 78 79
f 89 79 80
f 89 80 88
f 88 80 81
f 88 81 82
f 88 82 87
f 87 82 83
f 87 83 84
f 84 85 87
f 87 85 86
f 91 92 94
f 94 92 93
f 95 96 98
f 98 96 97
