v 0.012 0.0086562073 0.0037599999
v 0.01269219 0.0087410897 0.0037599999
v 0.013335607 0.0089957368 0.0037599999
v 0.013335607 0.0089957368 0.0037850001
v 0.01269219 0.0087410897 0.0037850001
v 0.012 0.0086562073 0.0037850001
v 0.013335607 0.0089957368 0.0037599999
v 0.013884294 0.0094154584 0.0037599999
v 0.014292293 0.009995566 0.0037599999
v 0.014292293 0.009995566 0.0037850001
v 0.013884294 0.0094154584 0.0037850001
v 0.013335607 0.0089957368 0.0037850001
v 0.010611869 0.009031378 0.0037599999
v 0.011264666 0.00875 0.0037599999
v 0.012 0.0086562073 0.0037599999
v 0.012 0.0086562073 0.0037850001
v 0.011264666 0.00875 0.0037850001
v 0.010611869 0.009031378 0.0037850001
v 0.014292293 0.009995566 0.0037599999
v 0.014545531 0.010699948 0.0037599999
v 0.014629945 0.011492496 0.0037599999
v 0.014629945 0.011492496 0.0037850001
v 0.014545531 0.010699948 0.0037850001
v 0.014292293 0.009995566 0.0037850001
v 0.0096851981 0.010055593 0.0037599999
v 0.010074438 0.0094750166 0.0037599999
v 0.010611869 0.009031378 0.0037599999
v 0.010611869 0.009031378 0.0037850001
v 0.010074438 0.0094750166 0.0037850001
v 0.0096851981 0.010055593 0.0037850001
v 0.014629945 0.011492496 0.0037599999
v 0.014549752 0.012274258 0.0037599999
v 0.014309175 0.012968793 0.0037599999
v 0.014309175 0.012968793 0.0037850001
v 0.014549752 0.012274258 0.0037850001
v 0.014629945 0.011492496 0.0037850001
v 0.0093700546 0.011428717 0.0037599999
v 0.0094488406 0.010723397 0.0037599999
v 0.0096851981 0.010055593 0.0037599999
v 0.0096851981 0.010055593 0.0037850001
v 0.0094488406 0.010723397 0.0037850001
v 0.0093700546 0.011428717 0.0037850001
v 0.014309175 0.012968793 0.0037599999
v 0.013915715 0.013547962 0.0037599999
v 0.013376876 0.013983629 0.0037599999
v 0.013376876 0.013983629 0.0037850001
v 0.013915715 0.013547962 0.0037850001
v 0.014309175 0.012968793 0.0037850001
v 0.013376876 0.013983629 0.0037599999
v 0.012727832 0.014256566 0.0037599999
v 0.012003752 0.014347544 0.0037599999
v 0.012003752 0.014347544 0.0037850001
v 0.012727832 0.014256566 0.0037850001
v 0.013376876 0.013983629 0.0037850001
v 0.012003752 0.014347544 0.0037599999
v 0.011448969 0.014299123 0.0037599999
v 0.010947647 0.014153862 0.0037599999
v 0.010499787 0.01391176 0.0037599999
v 0.010105389 0.013572817 0.0037599999
v 0.010105389 0.013572817 0.0037850001
v 0.010499787 0.01391176 0.0037850001
v 0.010947647 0.014153862 0.0037850001
v 0.011448969 0.014299123 0.0037850001
v 0.012003752 0.014347544 0.0037850001
v 0.010105389 0.013572817 0.0037599999
v 0.0097836804 0.013148288 0.0037599999
v 0.0095538884 0.012649429 0.0037599999
v 0.0094160128 0.012076238 0.0037599999
v 0.0093700546 0.011428717 0.0037599999
v 0.0093700546 0.011428717 0.0037850001
v 0.0094160128 0.012076238 0.0037850001
v 0.0095538884 0.012649429 0.0037850001
v 0.0097836804 0.013148288 0.0037850001
v 0.010105389 0.013572817 0.0037850001
v 0.0093700546 0.011428717 0.0037850001
v 0.0094488406 0.010723397 0.0037850001
v 0.0096851981 0.010055593 0.0037850001
v 0.010074438 0.0094750166 0.0037850001
v 0.010611869 0.009031378 0.0037850001
v 0.011264666 0.00875 0.0037850001
v 0.012 0.0086562073 0.0037850001
v 0.01269219 0.0087410897 0.0037850001
v 0.013335607 0.0089957368 0.0037850001
v 0.013884294 0.0094154584 0.0037850001
v 0.014292293 0.009995566 0.0037850001
v 0.014545531 0.010699948 0.0037850001
v 0.014629945 0.011492496 0.0037850001
v 0.014549752 0.012274258 0.0037850001
v 0.014309175 0.012968793 0.0037850001
v 0.013915715 0.013547962 0.0037850001
v 0.013376876 0.013983629 0.0037850001
v 0.012727832 0.014256566 0.0037850001
v 0.012003752 0.014347544 0.0037850001
v 0.011448969 0.014299123 0.0037850001
v 0.010947647 0.014153862 0.0037850001
v 0.010499787 0.01391176 0.0037850001
v 0.010105389 0.013572817 0.0037850001
v 0.0097836804 0.013148288 0.0037850001
v 0.0095538884 0.012649429 0.0037850001
v 0.0094160128 0.012076238 0.0037850001
v 0.010120395 0.011417462 0.0037850001
v 0.010155216 0.011993935 0.0037850001
v 0.010259678 0.012481539 0.0037850001
v 0.01043378 0.012880275 0.0037850001
v 0.010677524 0.013190143 0.0037850001
v 0.011288583 0.013588293 0.0037850001
v 0.012007504 0.013721009 0.0037850001
v 0.01252477 0.013652072 0.0037850001
v 0.012988575 0.013445259 0.0037850001
v 0.013373125 0.013113233 0.0037850001
v 0.013652626 0.012668656 0.0037850001
v 0.013822861 0.012125127 0.0037850001
v 0.013879604 0.011496248 0.0037850001
v 0.013746889 0.010555508 0.0037850001
v 0.013348738 0.0098567528 0.0037850001
v 0.012745183 0.0094234312 0.0037850001
v 0.011996248 0.0092789906 0.0037850001
v 0.011257632 0.0094220239 0.0037850001
v 0.010655013 0.0098511255 0.0037850001
v 0.01025405 0.010528777 0.0037850001
v 0.010677524 0.013190143 0.0037599999
v 0.011288583 0.013588293 0.0037599999
v 0.012007504 0.013721009 0.0037599999
v 0.012007504 0.013721009 0.0037850001
v 0.011288583 0.013588293 0.0037850001
v 0.010677524 0.013190143 0.0037850001
v 0.010120395 0.011417462 0.0037599999
v 0.010155216 0.011993935 0.0037599999
v 0.010259678 0.012481539 0.0037599999
v 0.01043378 0.012880275 0.0037599999
v 0.010677524 0.013190143 0.0037599999
v 0.010677524 0.013190143 0.0037850001
v 0.01043378 0.012880275 0.0037850001
v 0.010259678 0.012481539 0.0037850001
v 0.010155216 0.011993935 0.0037850001
v 0.010120395 0.011417462 0.0037850001
v 0.012007504 0.013721009 0.0037599999
v 0.01252477 0.013652072 0.0037599999
v 0.012988575 0.013445259 0.0037599999
v 0.012988575 0.013445259 0.0037850001
v 0.01252477 0.013652072 0.0037850001
v 0.012007504 0.013721009 0.0037850001
v 0.0096851981 0.010055593 0.0037599999
v 0.0094488406 0.010723397 0.0037599999
v 0.0093700546 0.011428717 0.0037599999
v 0.0094160128 0.012076238 0.0037599999
v 0.0095538884 0.012649429 0.0037599999
v 0.0097836804 0.013148288 0.0037599999
v 0.010105389 0.013572817 0.0037599999
v 0.010499787 0.01391176 0.0037599999
v 0.010947647 0.014153862 0.0037599999
v 0.011448969 0.014299123 0.0037599999
v 0.012003752 0.014347544 0.0037599999
v 0.012727832 0.014256566 0.0037599999
v 0.013376876 0.013983629 0.0037599999
v 0.013915715 0.013547962 0.0037599999
v 0.014309175 0.012968793 0.0037599999
v 0.014549752 0.012274258 0.0037599999
v 0.014629945 0.011492496 0.0037599999
v 0.014545531 0.010699948 0.0037599999
v 0.014292293 0.009995566 0.0037599999
v 0.013884294 0.0094154584 0.0037599999
v 0.013335607 0.0089957368 0.0037599999
v 0.01269219 0.0087410897 0.0037599999
v 0.012 0.0086562073 0.0037599999
v 0.011264666 0.00875 0.0037599999
v 0.010611869 0.009031378 0.0037599999
v 0.010074438 0.0094750166 0.0037599999
v 0.010677524 0.013190143 0.0037599999
v 0.01043378 0.012880275 0.0037599999
v 0.010259678 0.012481539 0.0037599999
v 0.010155216 0.011993935 0.0037599999
v 0.010120395 0.011417462 0.0037599999
v 0.01025405 0.010528777 0.0037599999
v 0.010655013 0.0098511255 0.0037599999
v 0.011257632 0.0094220239 0.0037599999
v 0.011996248 0.0092789906 0.0037599999
v 0.012745183 0.0094234312 0.0037599999
v 0.013348738 0.0098567528 0.0037599999
v 0.013746889 0.010555508 0.0037599999
v 0.013879604 0.011496248 0.0037599999
v 0.013822861 0.012125127 0.0037599999
v 0.013652626 0.012668656 0.0037599999
v 0.013373125 0.013113233 0.0037599999
v 0.012988575 0.013445259 0.0037599999
v 0.01252477 0.013652072 0.0037599999
v 0.012007504 0.013721009 0.0037599999
v 0.011288583 0.013588293 0.0037599999
v 0.012988575 0.013445259 0.0037599999
v 0.013373125 0.013113233 0.0037599999
v 0.013652626 0.012668656 0.0037599999
v 0.013652626 0.012668656 0.0037850001
v 0.013373125 0.013113233 0.0037850001
v 0.012988575 0.013445259 0.0037850001
v 0.013652626 0.012668656 0.0037599999
v 0.013822861 0.012125127 0.0037599999
v 0.013879604 0.011496248 0.0037599999
v 0.013879604 0.011496248 0.0037850001
v 0.013822861 0.012125127 0.0037850001
v 0.013652626 0.012668656 0.0037850001
v 0.013879604 0.011496248 0.0037599999
v 0.013746889 0.010555508 0.0037599999
v 0.013348738 0.0098567528 0.0037599999
v 0.013348738 0.0098567528 0.0037850001
v 0.013746889 0.010555508 0.0037850001
v 0.013879604 0.011496248 0.0037850001
v 0.013348738 0.0098567528 0.0037599999
v 0.012745183 0.0094234312 0.0037599999
v 0.011996248 0.0092789906 0.0037599999
v 0.011996248 0.0092789906 0.0037850001
v 0.012745183 0.0094234312 0.0037850001
v 0.013348738 0.0098567528 0.0037850001
v 0.011996248 0.0092789906 0.0037599999
v 0.011257632 0.0094220239 0.0037599999
v 0.010655013 0.0098511255 0.0037599999
v 0.010655013 0.0098511255 0.0037850001
v 0.011257632 0.0094220239 0.0037850001
v 0.011996248 0.0092789906 0.0037850001
v 0.010655013 0.0098511255 0.0037599999
v 0.01025405 0.010528777 0.0037599999
v 0.010120395 0.011417462 0.0037599999
v 0.010120395 0.011417462 0.0037850001
v 0.01025405 0.010528777 0.0037850001
v 0.010655013 0.0098511255 0.0037850001
f 1 2 6
f 6 2 5
f 5 2 3
f 5 3 4
f 7 8 12
f 12 8 11
f 11 8 9
f 11 9 10
f 13 14 18
f 18 14 17
f 17 14 15
f 17 15 16
f 19 20 24
f 24 20 23
f 23 20 21
f 23 21 22
f 25 26 30
f 30 26 29
f 29 26 27
f 29 27 28
f 31 32 36
f 36 32 35
f 35 32 33
f 35 33 34
f 37 38 42
f 42 38 41
f 41 38 39
f 41 39 40
f 43 44 48
f 48 44 47
f 47 44 45
f 47 45 46
f 49 50 54
f 54 50 53
f 53 50 51
f 53 51 52
f 55 56 64
f 64 56 63
f 63 56 57
f 63 57 62
f 62 57 58
f 62 58 61
f 61 58 59
f 61 59 60
f 65 66 74
f 74 66 73
f 73 66 67
f 73 67 72
f 72 67 68
f 72 68 71
f 71 68 69
f 71 69 70
f 100 75 101
f 101 75 76
f 101 76 120
f 120 76 77
f 120 77 78
f 120 78 119
f 119 78 79
f 119 79 118
f 118 79 80
f 118 80 117
f 117 80 81
f 117 81 82
f 117 82 116
f 116 82 83
f 116 83 115
f 115 83 84
f 115 84 85
f 115 85 114
f 114 85 86
f 114 86 113
f 113 86 87
f 113 87 88
f 113 88 112
f 112 88 89
f 112 89 111
f 111 89 90
f 111 90 110
f 110 90 91
f 110 91 109
f 109 91 92
f 109 92 108
f 108 92 93
f 108 93 107
f 107 93 94
f 107 94 106
f 106 94 95
f 106 95 96
f 106 96 105
f 105 96 97
f 105 97 104
f 104 97 98
f 104 98 103
f 103 98 99
f 103 99 102
f 102 99 100
f 102 100 101
f 121 122 126
f 126 122 125
f 125 122 123
f 125 123 124
f 127 128 136
f 136 128 135
f 135 128 129
f 135 129 134
f 134 129 130
f 134 130 133
f 133 130 131
f 133 131 132
f 137 138 142
f 142 138 141
f 141 138 139
f 141 139 140
f 168 143 174
f 174 143 144
f 174 144 173
f 173 144 145
f 173 145 146
f 173 146 172
f 172 146 147
f 172 147 171
f 171 147 148
f 171 148 170
f 170 148 149
f 170 149 169
f 169 149 150
f 169 150 188
f 188 150 151
f 188 151 152
f 188 152 187
f 187 152 153
f 187 153 186
f 186 153 154
f 186 154 185
f 185 154 155
f 185 155 184
f 184 155 156
f 184 156 183
f 183 156 157
f 183 157 182
f 182 157 158
f 182 158 181
f 181 158 159
f 181 159 160
f 181 160 180
f 180 160 161
f 180 161 179
f 179 161 162
f 179 162 163
f 179 163 178
f 178 163 164
f 178 164 177
f 177 164 165
f 177 165 166
f 177 166 176
f 176 166 167
f 176 167 175
f 175 167 168
f 175 168 174
f 189 190 194
f 194 190 193
f 193 190 191
f 193 191 192
f 195 196 200
f 200 196 199
f 199 196 197
f 199 197 198
f 201 202 206
f 206 202 205
f 205 202 203
f 205 203 204
f 207 208 212
f 212 208 211
f 211 208 209
f 211 209 210
f 213 214 218
f 218 214 217
f 217 214 215
f 217 215 216
f 219 220 224
f 224 220 223
f 223 220 221
f 223 221 222
