v 0.10452599 0.1225352 9.9999998e-05
v 0.10500422 0.12259384 9.9999998e-05
v 0.10544877 0.12276978 9.9999998e-05
v 0.10544877 0.12276978 0.000125
v 0.10500422 0.12259384 0.000125
v 0.10452599 0.1225352 0.000125
v 0.10544877 0.12276978 9.9999998e-05
v 0.10582787 0.12305977 9.9999998e-05
v 0.10610975 0.12346057 9.9999998e-05
v 0.10610975 0.12346057 0.000125
v 0.10582787 0.12305977 0.000125
v 0.10544877 0.12276978 0.000125
v 0.10356691 0.12279441 9.9999998e-05
v 0.10401793 0.1226 9.9999998e-05
v 0.10452599 0.1225352 9.9999998e-05
v 0.10452599 0.1225352 0.000125
v 0.10401793 0.1226 0.000125
v 0.10356691 0.12279441 0.000125
v 0.10610975 0.12346057 9.9999998e-05
v 0.10628472 0.12394724 9.9999998e-05
v 0.10634304 0.12449482 9.9999998e-05
v 0.10634304 0.12449482 0.000125
v 0.10628472 0.12394724 0.000125
v 0.10610975 0.12346057 0.000125
v 0.10292667 0.12350204 9.9999998e-05
v 0.1031956 0.12310092 9.9999998e-05
v 0.10356691 0.12279441 9.9999998e-05
v 0.10356691 0.12279441 0.000125
v 0.1031956 0.12310092 0.000125
v 0.10292667 0.12350204 0.000125
v 0.10634304 0.12449482 9.9999998e-05
v 0.10628763 0.12503494 9.9999998e-05
v 0.10612142 0.1255148 9.9999998e-05
v 0.10612142 0.1255148 0.000125
v 0.10628763 0.12503494 0.000125
v 0.10634304 0.12449482 0.000125
v 0.10270893 0.12445075 9.9999998e-05
v 0.10276337 0.12396344 9.9999998e-05
v 0.10292667 0.12350204 9.9999998e-05
v 0.10292667 0.12350204 0.000125
v 0.10276337 0.12396344 0.000125
v 0.10270893 0.12445075 0.000125
v 0.10612142 0.1255148 9.9999998e-05
v 0.10584957 0.12591496 9.9999998e-05
v 0.10547729 0.12621596 9.9999998e-05
v 0.10547729 0.12621596 0.000125
v 0.10584957 0.12591496 0.000125
v 0.10612142 0.1255148 0.000125
v 0.10547729 0.12621596 9.9999998e-05
v 0.10502886 0.12640453 9.9999998e-05
v 0.10452858 0.12646739 9.9999998e-05
v 0.10452858 0.12646739 0.000125
v 0.10502886 0.12640453 0.000125
v 0.10547729 0.12621596 0.000125
v 0.10452858 0.12646739 9.9999998e-05
v 0.1037989 0.12633358 9.9999998e-05
v 0.10321698 0.12593213 9.9999998e-05
v 0.10321698 0.12593213 0.000125
v 0.1037989 0.12633358 0.000125
v 0.10452858 0.12646739 0.000125
v 0.10321698 0.12593213 9.9999998e-05
v 0.10283595 0.12529415 9.9999998e-05
v 0.10270893 0.12445075 9.9999998e-05
v 0.10270893 0.12445075 0.000125
v 0.10283595 0.12529415 0.000125
v 0.10321698 0.12593213 0.000125
v 0.10270893 0.12445075 0.000125
v 0.10276337 0.12396344 0.000125
v 0.10292667 0.12350204 0.000125
v 0.1031956 0.12310092 0.000125
v 0.10356691 0.12279441 0.000125
v 0.10401793 0.1226 0.000125
v 0.10452599 0.1225352 0.000125
v 0.10500422 0.12259384 0.000125
v 0.10544877 0.12276978 0.000125
v 0.10582787 0.12305977 0.000125
v 0.10610975 0.12346057 0.000125
v 0.10628472 0.12394724 0.000125
v 0.10634304 0.12449482 0.000125
v 0.10628763 0.12503494 0.000125
v 0.10612142 0.1255148 0.000125
v 0.10584957 0.12591496 0.000125
v 0.10547729 0.12621596 0.000125
v 0.10502886 0.12640453 0.000125
v 0.10452858 0.12646739 0.000125
v 0.1037989 0.12633358 0.000125
v 0.10321698 0.12593213 0.000125
v 0.10283595 0.12529415 0.000125
v 0.10322736 0.12444298 0.000125
v 0.10332358 0.12517816 0.000125
v 0.10361228 0.12566773 0.000125
v 0.10403446 0.12594282 0.000125
v 0.10453117 0.12603452 0.000125
v 0.10488855 0.12598689 0.000125
v 0.10520901 0.125844 0.000125
v 0.10547469 0.1256146 0.000125
v 0.1056678 0.12530744 0.000125
v 0.10582462 0.1244974 0.000125
v 0.10573293 0.12384745 0.000125
v 0.10545784 0.12336467 0.000125
v 0.10504085 0.12306528 0.000125
v 0.1045234 0.12296549 0.000125
v 0.10401308 0.12306431 0.000125
v 0.10359673 0.12336078 0.000125
v 0.10331969 0.12382897 0.000125
v 0.10361228 0.12566773 9.9999998e-05
v 0.10403446 0.12594282 9.9999998e-05
v 0.10453117 0.12603452 9.9999998e-05
v 0.10453117 0.12603452 0.000125
v 0.10403446 0.12594282 0.000125
v 0.10361228 0.12566773 0.000125
v 0.10322736 0.12444298 9.9999998e-05
v 0.10332358 0.12517816 9.9999998e-05
v 0.10361228 0.12566773 9.9999998e-05
v 0.10361228 0.12566773 0.000125
v 0.10332358 0.12517816 0.000125
v 0.10322736 0.12444298 0.000125
v 0.10453117 0.12603452 9.9999998e-05
v 0.10488855 0.12598689 9.9999998e-05
v 0.10520901 0.125844 9.9999998e-05
v 0.10520901 0.125844 0.000125
v 0.10488855 0.12598689 0.000125
v 0.10453117 0.12603452 0.000125
v 0.10292667 0.12350204 9.9999998e-05
v 0.10276337 0.12396344 9.9999998e-05
v 0.10270893 0.12445075 9.9999998e-05
v 0.10283595 0.12529415 9.9999998e-05
v 0.10321698 0.12593213 9.9999998e-05
v 0.1037989 0.12633358 9.9999998e-05
v 0.10452858 0.12646739 9.9999998e-05
v 0.10502886 0.12640453 9.9999998e-05
v 0.10547729 0.12621596 9.9999998e-05
v 0.10584957 0.12591496 9.9999998e-05
v 0.10612142 0.1255148 9.9999998e-05
v 0.10628763 0.12503494 9.9999998e-05
v 0.10634304 0.12449482 9.9999998e-05
v 0.10628472 0.12394724 9.9999998e-05
v 0.10610975 0.12346057 9.9999998e-05
v 0.10582787 0.12305977 9.9999998e-05
v 0.10544877 0.12276978 9.9999998e-05
v 0.10500422 0.12259384 9.9999998e-05
v 0.10452599 0.1225352 9.9999998e-05
v 0.10401793 0.1226 9.9999998e-05
v 0.10356691 0.12279441 9.9999998e-05
v 0.1031956 0.12310092 9.9999998e-05
v 0.10361228 0.12566773 9.9999998e-05
v 0.10332358 0.12517816 9.9999998e-05
v 0.10322736 0.12444298 9.9999998e-05
v 0.10331969 0.12382897 9.9999998e-05
v 0.10359673 0.12336078 9.9999998e-05
v 0.10401308 0.12306431 9.9999998e-05
v 0.1045234 0.12296549 9.9999998e-05
v 0.10504085 0.12306528 9.9999998e-05
v 0.10545784 0.12336467 9.9999998e-05
v 0.10573293 0.12384745 9.9999998e-05
v 0.10582462 0.1244974 9.9999998e-05
v 0.1056678 0.12530744 9.9999998e-05
v 0.10547469 0.1256146 9.9999998e-05
v 0.10520901 0.125844 9.9999998e-05
v 0.10488855 0.12598689 9.9999998e-05
v 0.10453117 0.12603452 9.9999998e-05
v 0.10403446 0.12594282 9.9999998e-05
v 0.10520901 0.125844 9.9999998e-05
v 0.10547469 0.1256146 9.9999998e-05
v 0.1056678 0.12530744 9.9999998e-05
v 0.1056678 0.12530744 0.000125
v 0.10547469 0.1256146 0.000125
v 0.10520901 0.125844 0.000125
v 0.1056678 0.12530744 9.9999998e-05
v 0.10582462 0.1244974 9.9999998e-05
v 0.10582462 0.1244974 0.000125
v 0.1056678 0.12530744 0.000125
v 0.10582462 0.1244974 9.9999998e-05
v 0.10573293 0.12384745 9.9999998e-05
v 0.10545784 0.12336467 9.9999998e-05
v 0.10545784 0.12336467 0.000125
v 0.10573293 0.12384745 0.000125
v 0.10582462 0.1244974 0.000125
v 0.10545784 0.12336467 9.9999998e-05
v 0.10504085 0.12306528 9.9999998e-05
v 0.1045234 0.12296549 9.9999998e-05
v 0.1045234 0.12296549 0.000125
v 0.10504085 0.12306528 0.000125
v 0.10545784 0.12336467 0.000125
v 0.1045234 0.12296549 9.9999998e-05
v 0.10401308 0.12306431 9.9999998e-05
v 0.10359673 0.12336078 9.9999998e-05
v 0.10359673 0.12336078 0.000125
v 0.10401308 0.12306431 0.000125
v 0.1045234 0.12296549 0.000125
v 0.10359673 0.12336078 9.9999998e-05
v 0.10331969 0.12382897 9.9999998e-05
v 0.10322736 0.12444298 9.9999998e-05
v 0.10322736 0.12444298 0.000125
v 0.10331969 0.12382897 0.000125
v 0.10359673 0.12336078 0.000125
f 1 2 6
f 6 2 5
f 5 2 3
f 5 3 4
f 7 8 12
f 12 8 11
f 11 8 9
f 11 9 10
f 13 14 18
f 18 14 17
f 17 14 15
f 17 15 16
f 19 20 24
f 24 20 23
f 23 20 21
f 23 21 22
f 25 26 30
f 30 26 29
f 29 26 27
f 29 27 28
f 31 32 36
f 36 32 35
f 35 32 33
f 35 33 34
f 37 38 42
f 42 38 41
f 41 38 39
f 41 39 40
f 43 44 48
f 48 44 47
f 47 44 45
f 47 45 46
f 49 50 54
f 54 50 53
f 53 50 51
f 53 51 52
f 55 56 60
f 60 56 59
f 59 56 57
f 59 57 58
f 61 62 66
f 66 62 65
f 65 62 63
f 65 63 64
f 88 67 89
f 89 67 68
f 89 68 105
f 105 68 69
f 105 69 70
f 105 70 104
f 104 70 71
f 104 71 103
f 103 71 72
f 103 72 102
f 102 72 73
f 102 73 74
f 102 74 101
f 101 74 75
f 101 75 100
f 100 75 76
f 100 76 77
f 100 77 99
f 99 77 78
f 99 78 98
f 98 78 79
f 98 79 80
f 98 80 97
f 97 80 81
f 97 81 82
f 97 82 96
f 96 82 83
f 96 83 95
f 95 83 84
f 95 84 94
f 94 84 85
f 94 85 93
f 93 85 92
f 92 85 86
f 92 86 91
f 91 86 87
f 91 87 90
f 90 87 88
f 90 88 89
f 106 107 111
f 111 107 110
f 110 107 108
f 110 108 109
f 112 113 117
f 117 113 116
f 116 113 114
f 116 114 115
f 118 119 123
f 123 119 122
f 122 119 120
f 122 120 121
f 145 124 149
f 149 124 125
f 149 125 148
f 148 125 126
f 148 126 127
f 148 127 147
f 147 127 128
f 147 128 146
f 146 128 129
f 146 129 162
f 162 129 130
f 162 130 161
f 161 130 160
f 160 130 131
f 160 131 159
f 159 131 132
f 159 132 158
f 158 132 133
f 158 133 157
f 157 133 134
f 157 134 135
f 157 135 156
f 156 135 136
f 156 136 137
f 156 137 155
f 155 137 138
f 155 138 154
f 154 138 139
f 154 139 140
f 154 140 153
f 153 140 141
f 153 141 152
f 152 141 142
f 152 142 143
f 152 143 151
f 151 143 144
f 151 144 150
f 150 144 145
f 150 145 149
f 163 164 168
f 168 164 167
f 167 164 165
f 167 165 166
f 169 170 172
f 172 170 171
f 173 174 178
f 178 174 177
f 177 174 175
f 177 175 176
f 179 180 184
f 184 180 183
f 183 180 181
f 183 181 182
f 185 186 190
f 190 186 189
f 189 186 187
f 189 187 188
f 191 192 196
f 196 192 195
f 195 192 193
f 195 193 194
