v 0.076141338 0.1393 9.9999998e-05
v 0.076844201 0.14123834 9.9999998e-05
v 0.076844201 0.14123834 0.000125
v 0.076141338 0.1393 0.000125
v 0.075242019 0.1393 9.9999998e-05
v 0.076141338 0.1393 9.9999998e-05
v 0.076141338 0.1393 0.000125
v 0.075242019 0.1393 0.000125
v 0.076844201 0.14123834 9.9999998e-05
v 0.079520326 0.14123834 9.9999998e-05
v 0.079520326 0.14123834 0.000125
v 0.076844201 0.14123834 0.000125
v 0.079520326 0.14123834 9.9999998e-05
v 0.080266848 0.1393 9.9999998e-05
v 0.080266848 0.1393 0.000125
v 0.079520326 0.14123834 0.000125
v 0.080266848 0.1393 9.9999998e-05
v 0.081231651 0.1393 9.9999998e-05
v 0.081231651 0.1393 0.000125
v 0.080266848 0.1393 0.000125
v 0.075242019 0.1393 0.000125
v 0.076141338 0.1393 0.000125
v 0.076844201 0.14123834 0.000125
v 0.079520326 0.14123834 0.000125
v 0.080266848 0.1393 0.000125
v 0.081231651 0.1393 0.000125
v 0.07861228 0.1457 0.000125
v 0.077699862 0.1457 0.000125
v 0.077088675 0.1419281 0.000125
v 0.077791543 0.14380532 0.000125
v 0.078136425 0.14502769 0.000125
v 0.078324146 0.14443615 0.000125
v 0.07859045 0.14370054 0.000125
v 0.079258389 0.1419281 0.000125
v 0.081231651 0.1393 9.9999998e-05
v 0.07861228 0.1457 9.9999998e-05
v 0.07861228 0.1457 0.000125
v 0.081231651 0.1393 0.000125
v 0.07861228 0.1457 9.9999998e-05
v 0.077699862 0.1457 9.9999998e-05
v 0.077699862 0.1457 0.000125
v 0.07861228 0.1457 0.000125
v 0.076141338 0.1393 9.9999998e-05
v 0.075242019 0.1393 9.9999998e-05
v 0.077699862 0.1457 9.9999998e-05
v 0.07861228 0.1457 9.9999998e-05
v 0.081231651 0.1393 9.9999998e-05
v 0.080266848 0.1393 9.9999998e-05
v 0.079520326 0.14123834 9.9999998e-05
v 0.076844201 0.14123834 9.9999998e-05
v 0.077791543 0.14380532 9.9999998e-05
v 0.077088675 0.1419281 9.9999998e-05
v 0.079258389 0.1419281 9.9999998e-05
v 0.07859045 0.14370054 9.9999998e-05
v 0.078324146 0.14443615 9.9999998e-05
v 0.078136425 0.14502769 9.9999998e-05
v 0.077699862 0.1457 9.9999998e-05
v 0.075242019 0.1393 9.9999998e-05
v 0.075242019 0.1393 0.000125
v 0.077699862 0.1457 0.000125
v 0.077088675 0.1419281 9.9999998e-05
v 0.077791543 0.14380532 9.9999998e-05
v 0.077791543 0.14380532 0.000125
v 0.077088675 0.1419281 0.000125
v 0.077791543 0.14380532 9.9999998e-05
v 0.078136425 0.14502769 9.9999998e-05
v 0.078136425 0.14502769 0.000125
v 0.077791543 0.14380532 0.000125
v 0.078136425 0.14502769 9.9999998e-05
v 0.078324146 0.14443615 9.9999998e-05
v 0.07859045 0.14370054 9.9999998e-05
v 0.07859045 0.14370054 0.000125
v 0.078324146 0.14443615 0.000125
v 0.078136425 0.14502769 0.000125
v 0.07859045 0.14370054 9.9999998e-05
v 0.079258389 0.1419281 9.9999998e-05
v 0.079258389 0.1419281 0.000125
v 0.07859045 0.14370054 0.000125
v 0.079258389 0.1419281 9.9999998e-05
v 0.077088675 0.1419281 9.9999998e-05
v 0.077088675 0.1419281 0.000125
v 0.079258389 0.1419281 0.000125
f 1 2 4
f 4 2 3
f 5 6 8
f 8 6 7
f 9 10 12
f 12 10 11
f 13 14 16
f 16 14 15
f 17 18 20
f 20 18 19
f 22 23 21
f 21 23 29
f 21 29 28
f 28 29 30
f 28 30 31
f 29 23 34
f 34 23 24
f 34 24 26
f 26 24 25
f 26 27 34
f 34 27 33
f 33 27 32
f 32 27 31
f 31 27 28
f 35 36 38
f 38 36 37
f 39 40 42
f 42 40 41
f 43 44 50
f 50 44 52
f 50 52 53
f 44 45 52
f 52 45 51
f 51 45 56
f 56 45 46
f 56 46 55
f 55 46 54
f 54 46 53
f 53 46 47
f 53 47 49
f 49 47 48
f 49 50 53
f 57 58 60
f 60 58 59
f 61 62 64
f 64 62 63
f 65 66 68
f 68 66 67
f 69 70 74
f 74 70 73
f 73 70 71
f 73 71 72
f 75 76 78
f 78 76 77
f 79 80 82
f 82 80 81
