v 0.076011391 0.099939976 9.9999998e-05
v 0.076353498 0.10022314 9.9999998e-05
v 0.076613641 0.10060853 9.9999998e-05
v 0.076613641 0.10060853 0.000125
v 0.076353498 0.10022314 0.000125
v 0.076011391 0.099939976 0.000125
v 0.076613641 0.10060853 9.9999998e-05
v 0.076778021 0.10106297 9.9999998e-05
v 0.076832809 0.10155334 9.9999998e-05
v 0.076832809 0.10155334 0.000125
v 0.076778021 0.10106297 0.000125
v 0.076613641 0.10060853 0.000125
v 0.075142088 0.099707909 9.9999998e-05
v 0.075602522 0.09976593 9.9999998e-05
v 0.076011391 0.099939976 9.9999998e-05
v 0.076011391 0.099939976 0.000125
v 0.075602522 0.09976593 0.000125
v 0.075142088 0.099707909 0.000125
v 0.076832809 0.10155334 9.9999998e-05
v 0.076716318 0.10225551 9.9999998e-05
v 0.076366849 0.10281494 9.9999998e-05
v 0.076366849 0.10281494 0.000125
v 0.076716318 0.10225551 0.000125
v 0.076832809 0.10155334 0.000125
v 0.073790245 0.10031753 9.9999998e-05
v 0.074389734 0.099860315 9.9999998e-05
v 0.075142088 0.099707909 9.9999998e-05
v 0.075142088 0.099707909 0.000125
v 0.074389734 0.099860315 0.000125
v 0.073790245 0.10031753 0.000125
v 0.076366849 0.10281494 9.9999998e-05
v 0.075851622 0.10318099 9.9999998e-05
v 0.075237861 0.103303 9.9999998e-05
v 0.075237861 0.103303 0.000125
v 0.075851622 0.10318099 0.000125
v 0.076366849 0.10281494 0.000125
v 0.073267188 0.10232688 9.9999998e-05
v 0.07329988 0.1016764 9.9999998e-05
v 0.073397956 0.10112468 9.9999998e-05
v 0.073561411 0.10067172 9.9999998e-05
v 0.073790245 0.10031753 9.9999998e-05
v 0.073790245 0.10031753 0.000125
v 0.073561411 0.10067172 0.000125
v 0.073397956 0.10112468 0.000125
v 0.07329988 0.1016764 0.000125
v 0.073267188 0.10232688 0.000125
v 0.075237861 0.103303 9.9999998e-05
v 0.07451221 0.10312619 9.9999998e-05
v 0.07451221 0.10312619 0.000125
v 0.075237861 0.103303 0.000125
v 0.073845496 0.10460327 9.9999998e-05
v 0.073592486 0.1041944 9.9999998e-05
v 0.073411765 0.10367871 9.9999998e-05
v 0.073303332 0.10305621 9.9999998e-05
v 0.073267188 0.10232688 9.9999998e-05
v 0.073267188 0.10232688 0.000125
v 0.073303332 0.10305621 0.000125
v 0.073411765 0.10367871 0.000125
v 0.073592486 0.1041944 0.000125
v 0.073845496 0.10460327 0.000125
v 0.07451221 0.10312619 9.9999998e-05
v 0.074192667 0.10290242 9.9999998e-05
v 0.073926535 0.10258472 9.9999998e-05
v 0.073926535 0.10258472 0.000125
v 0.074192667 0.10290242 0.000125
v 0.07451221 0.10312619 0.000125
v 0.075204706 0.1052221 9.9999998e-05
v 0.074437618 0.1050674 9.9999998e-05
v 0.073845496 0.10460327 9.9999998e-05
v 0.073845496 0.10460327 0.000125
v 0.074437618 0.1050674 0.000125
v 0.075204706 0.1052221 0.000125
v 0.073926535 0.10258472 9.9999998e-05
v 0.073977184 0.10330208 9.9999998e-05
v 0.074114394 0.10383343 9.9999998e-05
v 0.074114394 0.10383343 0.000125
v 0.073977184 0.10330208 0.000125
v 0.073926535 0.10258472 0.000125
v 0.07624898 0.1048648 9.9999998e-05
v 0.075784397 0.10513278 9.9999998e-05
v 0.075204706 0.1052221 9.9999998e-05
v 0.075204706 0.1052221 0.000125
v 0.075784397 0.10513278 0.000125
v 0.07624898 0.1048648 0.000125
v 0.074114394 0.10383343 9.9999998e-05
v 0.074328036 0.10421927 9.9999998e-05
v 0.074607983 0.10450013 9.9999998e-05
v 0.074607983 0.10450013 0.000125
v 0.074328036 0.10421927 0.000125
v 0.074114394 0.10383343 0.000125
v 0.076737041 0.10387763 9.9999998e-05
v 0.076574507 0.10443935 9.9999998e-05
v 0.07624898 0.1048648 9.9999998e-05
v 0.07624898 0.1048648 0.000125
v 0.076574507 0.10443935 0.000125
v 0.076737041 0.10387763 0.000125
v 0.074607983 0.10450013 9.9999998e-05
v 0.075164189 0.10467694 9.9999998e-05
v 0.075164189 0.10467694 0.000125
v 0.074607983 0.10450013 0.000125
v 0.075164189 0.10467694 9.9999998e-05
v 0.07552701 0.10460604 9.9999998e-05
v 0.075827217 0.10439331 9.9999998e-05
v 0.075827217 0.10439331 0.000125
v 0.07552701 0.10460604 0.000125
v 0.075164189 0.10467694 0.000125
v 0.075827217 0.10439331 9.9999998e-05
v 0.075970874 0.10416309 9.9999998e-05
v 0.076077695 0.10382606 9.9999998e-05
v 0.076077695 0.10382606 0.000125
v 0.075970874 0.10416309 0.000125
v 0.075827217 0.10439331 0.000125
v 0.076077695 0.10382606 9.9999998e-05
v 0.076737041 0.10387763 9.9999998e-05
v 0.076737041 0.10387763 0.000125
v 0.076077695 0.10382606 0.000125
v 0.076737041 0.10387763 0.000125
v 0.076574507 0.10443935 0.000125
v 0.07624898 0.1048648 0.000125
v 0.075784397 0.10513278 0.000125
v 0.075204706 0.1052221 0.000125
v 0.074437618 0.1050674 0.000125
v 0.073845496 0.10460327 0.000125
v 0.073592486 0.1041944 0.000125
v 0.073411765 0.10367871 0.000125
v 0.073303332 0.10305621 0.000125
v 0.073267188 0.10232688 0.000125
v 0.07329988 0.1016764 0.000125
v 0.073397956 0.10112468 0.000125
v 0.073561411 0.10067172 0.000125
v 0.073790245 0.10031753 0.000125
v 0.074389734 0.099860315 0.000125
v 0.075142088 0.099707909 0.000125
v 0.075602522 0.09976593 0.000125
v 0.076011391 0.099939976 0.000125
v 0.076353498 0.10022314 0.000125
v 0.076613641 0.10060853 0.000125
v 0.076778021 0.10106297 0.000125
v 0.076832809 0.10155334 0.000125
v 0.076716318 0.10225551 0.000125
v 0.076366849 0.10281494 0.000125
v 0.075851622 0.10318099 0.000125
v 0.075237861 0.103303 0.000125
v 0.07451221 0.10312619 0.000125
v 0.074192667 0.10290242 0.000125
v 0.073926535 0.10258472 0.000125
v 0.073977184 0.10330208 0.000125
v 0.074114394 0.10383343 0.000125
v 0.074328036 0.10421927 0.000125
v 0.074607983 0.10450013 0.000125
v 0.075164189 0.10467694 0.000125
v 0.07552701 0.10460604 0.000125
v 0.075827217 0.10439331 0.000125
v 0.075970874 0.10416309 0.000125
v 0.076077695 0.10382606 0.000125
v 0.074029675 0.10154965 0.000125
v 0.074107947 0.10202252 0.000125
v 0.074342771 0.10239502 0.000125
v 0.074689937 0.10263675 0.000125
v 0.075105252 0.10271732 0.000125
v 0.075519643 0.10263675 0.000125
v 0.075856686 0.10239502 0.000125
v 0.076080456 0.10201332 0.000125
v 0.076155047 0.10151282 0.000125
v 0.076079535 0.10099161 0.000125
v 0.075853 0.10059196 0.000125
v 0.075521488 0.10033779 0.000125
v 0.075131035 0.10025307 0.000125
v 0.074582195 0.10041698 0.000125
v 0.074175172 0.10089399 0.000125
v 0.074342771 0.10239502 9.9999998e-05
v 0.074689937 0.10263675 9.9999998e-05
v 0.075105252 0.10271732 9.9999998e-05
v 0.075105252 0.10271732 0.000125
v 0.074689937 0.10263675 0.000125
v 0.074342771 0.10239502 0.000125
v 0.074029675 0.10154965 9.9999998e-05
v 0.074107947 0.10202252 9.9999998e-05
v 0.074342771 0.10239502 9.9999998e-05
v 0.074342771 0.10239502 0.000125
v 0.074107947 0.10202252 0.000125
v 0.074029675 0.10154965 0.000125
v 0.075105252 0.10271732 9.9999998e-05
v 0.075519643 0.10263675 9.9999998e-05
v 0.075856686 0.10239502 9.9999998e-05
v 0.075856686 0.10239502 0.000125
v 0.075519643 0.10263675 0.000125
v 0.075105252 0.10271732 0.000125
v 0.07624898 0.1048648 9.9999998e-05
v 0.076574507 0.10443935 9.9999998e-05
v 0.076737041 0.10387763 9.9999998e-05
v 0.076077695 0.10382606 9.9999998e-05
v 0.075970874 0.10416309 9.9999998e-05
v 0.075827217 0.10439331 9.9999998e-05
v 0.07552701 0.10460604 9.9999998e-05
v 0.075164189 0.10467694 9.9999998e-05
v 0.074607983 0.10450013 9.9999998e-05
v 0.074328036 0.10421927 9.9999998e-05
v 0.074114394 0.10383343 9.9999998e-05
v 0.073977184 0.10330208 9.9999998e-05
v 0.073926535 0.10258472 9.9999998e-05
v 0.074192667 0.10290242 9.9999998e-05
v 0.07451221 0.10312619 9.9999998e-05
v 0.075237861 0.103303 9.9999998e-05
v 0.075851622 0.10318099 9.9999998e-05
v 0.076366849 0.10281494 9.9999998e-05
v 0.076716318 0.10225551 9.9999998e-05
v 0.076832809 0.10155334 9.9999998e-05
v 0.076778021 0.10106297 9.9999998e-05
v 0.076613641 0.10060853 9.9999998e-05
v 0.076353498 0.10022314 9.9999998e-05
v 0.076011391 0.099939976 9.9999998e-05
v 0.075602522 0.09976593 9.9999998e-05
v 0.075142088 0.099707909 9.9999998e-05
v 0.074389734 0.099860315 9.9999998e-05
v 0.073790245 0.10031753 9.9999998e-05
v 0.073561411 0.10067172 9.9999998e-05
v 0.073397956 0.10112468 9.9999998e-05
v 0.07329988 0.1016764 9.9999998e-05
v 0.073267188 0.10232688 9.9999998e-05
v 0.073303332 0.10305621 9.9999998e-05
v 0.073411765 0.10367871 9.9999998e-05
v 0.073592486 0.1041944 9.9999998e-05
v 0.073845496 0.10460327 9.9999998e-05
v 0.074437618 0.1050674 9.9999998e-05
v 0.075204706 0.1052221 9.9999998e-05
v 0.075784397 0.10513278 9.9999998e-05
v 0.074342771 0.10239502 9.9999998e-05
v 0.074107947 0.10202252 9.9999998e-05
v 0.074029675 0.10154965 9.9999998e-05
v 0.074175172 0.10089399 9.9999998e-05
v 0.074582195 0.10041698 9.9999998e-05
v 0.075131035 0.10025307 9.9999998e-05
v 0.075521488 0.10033779 9.9999998e-05
v 0.075853 0.10059196 9.9999998e-05
v 0.076079535 0.10099161 9.9999998e-05
v 0.076155047 0.10151282 9.9999998e-05
v 0.076080456 0.10201332 9.9999998e-05
v 0.075856686 0.10239502 9.9999998e-05
v 0.075519643 0.10263675 9.9999998e-05
v 0.075105252 0.10271732 9.9999998e-05
v 0.074689937 0.10263675 9.9999998e-05
v 0.075856686 0.10239502 9.9999998e-05
v 0.076080456 0.10201332 9.9999998e-05
v 0.076155047 0.10151282 9.9999998e-05
v 0.076155047 0.10151282 0.000125
v 0.076080456 0.10201332 0.000125
v 0.075856686 0.10239502 0.000125
v 0.076155047 0.10151282 9.9999998e-05
v 0.076079535 0.10099161 9.9999998e-05
v 0.075853 0.10059196 9.9999998e-05
v 0.075853 0.10059196 0.000125
v 0.076079535 0.10099161 0.000125
v 0.076155047 0.10151282 0.000125
v 0.075853 0.10059196 9.9999998e-05
v 0.075521488 0.10033779 9.9999998e-05
v 0.075131035 0.10025307 9.9999998e-05
v 0.075131035 0.10025307 0.000125
v 0.075521488 0.10033779 0.000125
v 0.075853 0.10059196 0.000125
v 0.075131035 0.10025307 9.9999998e-05
v 0.074582195 0.10041698 9.9999998e-05
v 0.074582195 0.10041698 0.000125
v 0.075131035 0.10025307 0.000125
v 0.074582195 0.10041698 9.9999998e-05
v 0.074175172 0.10089399 9.9999998e-05
v 0.074175172 0.10089399 0.000125
v 0.074582195 0.10041698 0.000125
v 0.074175172 0.10089399 9.9999998e-05
v 0.074029675 0.10154965 9.9999998e-05
v 0.074029675 0.10154965 0.000125
v 0.074175172 0.10089399 0.000125
f 1 2 6
f 6 2 5
f 5 2 3
f 5 3 4
f 7 8 12
f 12 8 11
f 11 8 9
f 11 9 10
f 13 14 18
f 18 14 17
f 17 14 15
f 17 15 16
f 19 20 24
f 24 20 23
f 23 20 21
f 23 21 22
f 25 26 30
f 30 26 29
f 29 26 27
f 29 27 28
f 31 32 36
f 36 32 35
f 35 32 33
f 35 33 34
f 37 38 46
f 46 38 45
f 45 38 39
f 45 39 44
f 44 39 40
f 44 40 43
f 43 40 41
f 43 41 42
f 47 48 50
f 50 48 49
f 51 52 60
f 60 52 59
f 59 52 53
f 59 53 58
f 58 53 54
f 58 54 57
f 57 54 55
f 57 55 56
f 61 62 66
f 66 62 65
f 65 62 63
f 65 63 64
f 67 68 72
f 72 68 71
f 71 68 69
f 71 69 70
f 73 74 78
f 78 74 77
f 77 74 75
f 77 75 76
f 79 80 84
f 84 80 83
f 83 80 81
f 83 81 82
f 85 86 90
f 90 86 89
f 89 86 87
f 89 87 88
f 91 92 96
f 96 92 95
f 95 92 93
f 95 93 94
f 97 98 100
f 100 98 99
f 101 102 106
f 106 102 105
f 105 102 103
f 105 103 104
f 107 108 112
f 112 108 111
f 111 108 109
f 111 109 110
f 113 114 116
f 116 114 115
f 117 118 155
f 155 118 154
f 154 118 119
f 154 119 153
f 153 119 120
f 153 120 152
f 152 120 121
f 152 121 151
f 151 121 122
f 151 122 150
f 150 122 149
f 149 122 123
f 149 123 148
f 148 123 124
f 148 124 147
f 147 124 125
f 147 125 126
f 147 126 146
f 146 126 127
f 146 127 128
f 129 156 128
f 128 156 157
f 128 157 146
f 146 157 158
f 146 158 145
f 145 158 144
f 144 158 159
f 144 159 160
f 129 130 156
f 156 130 170
f 170 130 131
f 170 131 132
f 170 132 169
f 169 132 133
f 169 133 168
f 168 133 134
f 168 134 167
f 167 134 135
f 167 135 166
f 166 135 136
f 166 136 165
f 165 136 137
f 165 137 138
f 165 138 164
f 164 138 139
f 164 139 140
f 164 140 163
f 163 140 141
f 163 141 162
f 162 141 142
f 162 142 161
f 161 142 143
f 161 143 160
f 160 143 144
f 171 172 176
f 176 172 175
f 175 172 173
f 175 173 174
f 177 178 182
f 182 178 181
f 181 178 179
f 181 179 180
f 183 184 188
f 188 184 187
f 187 184 185
f 187 185 186
f 190 193 189
f 189 193 194
f 189 194 227
f 227 194 195
f 227 195 226
f 226 195 196
f 226 196 225
f 225 196 197
f 225 197 198
f 191 192 190
f 190 192 193
f 225 198 224
f 224 198 199
f 224 199 223
f 223 199 200
f 223 200 222
f 222 200 221
f 221 200 201
f 221 201 220
f 220 201 219
f 219 201 229
f 219 229 230
f 229 201 228
f 228 201 202
f 228 202 203
f 204 241 203
f 203 241 242
f 203 242 228
f 241 204 240
f 240 204 205
f 240 205 239
f 239 205 206
f 239 206 238
f 238 206 207
f 238 207 237
f 237 207 208
f 237 208 209
f 237 209 236
f 236 209 210
f 236 210 211
f 236 211 235
f 235 211 212
f 235 212 234
f 234 212 213
f 234 213 233
f 233 213 214
f 233 214 232
f 232 214 215
f 232 215 231
f 231 215 216
f 231 216 217
f 231 217 230
f 230 217 218
f 230 218 219
f 243 244 248
f 248 244 247
f 247 244 245
f 247 245 246
f 249 250 254
f 254 250 253
f 253 250 251
f 253 251 252
f 255 256 260
f 260 256 259
f 259 256 257
f 259 257 258
f 261 262 264
f 264 262 263
f 265 266 268
f 268 266 267
f 269 270 272
f 272 270 271
