v 0.18957844 -9.9999998e-05 0.069345155
v 0.1898315 -9.9999998e-05 0.070277967
v 0.19001228 -9.9999998e-05 0.071346521
v 0.19012074 -9.9999998e-05 0.072550817
v 0.19015688 -9.9999998e-05 0.073890858
v 0.19015688 -0.00022 0.073890858
v 0.19012074 -0.00022 0.072550817
v 0.19001228 -0.00022 0.071346521
v 0.1898315 -0.00022 0.070277967
v 0.18957844 -0.00022 0.069345155
v 0.18784857 -9.9999998e-05 0.066671214
v 0.18838846 -9.9999998e-05 0.067192359
v 0.18885675 -9.9999998e-05 0.067811732
v 0.18925341 -9.9999998e-05 0.068529329
v 0.18957844 -9.9999998e-05 0.069345155
v 0.18957844 -0.00022 0.069345155
v 0.18925341 -0.00022 0.068529329
v 0.18885675 -0.00022 0.067811732
v 0.18838846 -0.00022 0.067192359
v 0.18784857 -0.00022 0.066671214
v 0.19015688 -9.9999998e-05 0.073890858
v 0.19013437 -9.9999998e-05 0.075019441
v 0.19006685 -9.9999998e-05 0.07602592
v 0.1899543 -9.9999998e-05 0.0769103
v 0.18979671 -9.9999998e-05 0.077672577
v 0.18979671 -0.00022 0.077672577
v 0.1899543 -0.00022 0.0769103
v 0.19006685 -0.00022 0.07602592
v 0.19013437 -0.00022 0.075019441
v 0.19015688 -0.00022 0.073890858
v 0.18493996 -9.9999998e-05 0.065727148
v 0.1857807 -9.9999998e-05 0.065786152
v 0.1865457 -9.9999998e-05 0.065963163
v 0.18723499 -9.9999998e-05 0.066258187
v 0.18784857 -9.9999998e-05 0.066671214
v 0.18784857 -0.00022 0.066671214
v 0.18723499 -0.00022 0.066258187
v 0.1865457 -0.00022 0.065963163
v 0.1857807 -0.00022 0.065786152
v 0.18493996 -0.00022 0.065727148
v 0.18979671 -9.9999998e-05 0.077672577
v 0.18936834 -9.9999998e-05 0.07896862
v 0.18880354 -9.9999998e-05 0.080051842
v 0.18880354 -0.00022 0.080051842
v 0.18936834 -0.00022 0.07896862
v 0.18979671 -0.00022 0.077672577
v 0.18130558 -9.9999998e-05 0.067386084
v 0.18202797 -9.9999998e-05 0.066660299
v 0.18287449 -9.9999998e-05 0.066141882
v 0.18384516 -9.9999998e-05 0.065830832
v 0.18493996 -9.9999998e-05 0.065727148
v 0.18493996 -0.00022 0.065727148
v 0.18384516 -0.00022 0.065830832
v 0.18287449 -0.00022 0.066141882
v 0.18202797 -0.00022 0.066660299
v 0.18130558 -0.00022 0.067386084
v 0.18880354 -9.9999998e-05 0.080051842
v 0.18808594 -9.9999998e-05 0.080914049
v 0.18719917 -9.9999998e-05 0.08154707
v 0.18719917 -0.00022 0.08154707
v 0.18808594 -0.00022 0.080914049
v 0.18880354 -0.00022 0.080051842
v 0.17972305 -9.9999998e-05 0.073890858
v 0.17982197 -9.9999998e-05 0.071793995
v 0.18011869 -9.9999998e-05 0.070010915
v 0.18061323 -9.9999998e-05 0.068541608
v 0.18130558 -9.9999998e-05 0.067386084
v 0.18130558 -0.00022 0.067386084
v 0.18061323 -0.00022 0.068541608
v 0.18011869 -0.00022 0.070010915
v 0.17982197 -0.00022 0.071793995
v 0.17972305 -0.00022 0.073890858
v 0.18719917 -9.9999998e-05 0.08154707
v 0.1861487 -9.9999998e-05 0.081935883
v 0.18493996 -9.9999998e-05 0.082065487
v 0.18493996 -0.00022 0.082065487
v 0.1861487 -0.00022 0.081935883
v 0.18719917 -0.00022 0.08154707
v 0.18493996 -9.9999998e-05 0.082065487
v 0.18410402 -9.9999998e-05 0.082006817
v 0.18334242 -9.9999998e-05 0.081830835
v 0.18265518 -9.9999998e-05 0.081537514
v 0.18204229 -9.9999998e-05 0.081126871
v 0.18204229 -0.00022 0.081126871
v 0.18265518 -0.00022 0.081537514
v 0.18334242 -0.00022 0.081830835
v 0.18410402 -0.00022 0.082006817
v 0.18493996 -0.00022 0.082065487
v 0.18204229 -9.9999998e-05 0.081126871
v 0.18150204 -9.9999998e-05 0.08060812
v 0.18103273 -9.9999998e-05 0.079990449
v 0.18063438 -9.9999998e-05 0.079273872
v 0.18030695 -9.9999998e-05 0.07845839
v 0.18030695 -0.00022 0.07845839
v 0.18063438 -0.00022 0.079273872
v 0.18103273 -0.00022 0.079990449
v 0.18150204 -0.00022 0.08060812
v 0.18204229 -0.00022 0.081126871
v 0.18030695 -9.9999998e-05 0.07845839
v 0.1800515 -9.9999998e-05 0.077524214
v 0.17986902 -9.9999998e-05 0.076451569
v 0.17975954 -9.9999998e-05 0.07524045
v 0.17972305 -9.9999998e-05 0.073890858
v 0.17972305 -0.00022 0.073890858
v 0.17975954 -0.00022 0.07524045
v 0.17986902 -0.00022 0.076451569
v 0.1800515 -0.00022 0.077524214
v 0.18030695 -0.00022 0.07845839
v 0.17972305 -0.00022 0.073890858
v 0.17982197 -0.00022 0.071793995
v 0.18011869 -0.00022 0.070010915
v 0.18061323 -0.00022 0.068541608
v 0.18130558 -0.00022 0.067386084
v 0.18202797 -0.00022 0.066660299
v 0.18287449 -0.00022 0.066141882
v 0.18384516 -0.00022 0.065830832
v 0.18493996 -0.00022 0.065727148
v 0.1857807 -0.00022 0.065786152
v 0.1865457 -0.00022 0.065963163
v 0.18723499 -0.00022 0.066258187
v 0.18784857 -0.00022 0.066671214
v 0.18838846 -0.00022 0.067192359
v 0.18885675 -0.00022 0.067811732
v 0.18925341 -0.00022 0.068529329
v 0.18957844 -0.00022 0.069345155
v 0.1898315 -0.00022 0.070277967
v 0.19001228 -0.00022 0.071346521
v 0.19012074 -0.00022 0.072550817
v 0.19015688 -0.00022 0.073890858
v 0.19013437 -0.00022 0.075019441
v 0.19006685 -0.00022 0.07602592
v 0.1899543 -0.00022 0.0769103
v 0.18979671 -0.00022 0.077672577
v 0.18936834 -0.00022 0.07896862
v 0.18880354 -0.00022 0.080051842
v 0.18808594 -0.00022 0.080914049
v 0.18719917 -0.00022 0.08154707
v 0.1861487 -0.00022 0.081935883
v 0.18493996 -0.00022 0.082065487
v 0.18410402 -0.00022 0.082006817
v 0.18334242 -0.00022 0.081830835
v 0.18265518 -0.00022 0.081537514
v 0.18204229 -0.00022 0.081126871
v 0.18150204 -0.00022 0.08060812
v 0.18103273 -0.00022 0.079990449
v 0.18063438 -0.00022 0.079273872
v 0.18030695 -0.00022 0.07845839
v 0.1800515 -0.00022 0.077524214
v 0.17986902 -0.00022 0.076451569
v 0.17975954 -0.00022 0.07524045
v 0.18174215 -0.00022 0.073890858
v 0.18180559 -0.00022 0.075706
v 0.18199591 -0.00022 0.077211456
v 0.1823131 -0.00022 0.07840723
v 0.18275715 -0.00022 0.079293313
v 0.18319508 -0.00022 0.079794679
v 0.18370123 -0.00022 0.080152798
v 0.18427557 -0.00022 0.08036767
v 0.18491814 -0.00022 0.080439291
v 0.18557741 -0.00022 0.080358114
v 0.18618008 -0.00022 0.080114594
v 0.18672611 -0.00022 0.079708729
v 0.18721554 -0.00022 0.079140515
v 0.18761902 -0.00022 0.078325377
v 0.18790722 -0.00022 0.077178717
v 0.18808014 -0.00022 0.075700545
v 0.18813778 -0.00022 0.073890858
v 0.18808014 -0.00022 0.072090039
v 0.18790722 -0.00022 0.070616646
v 0.18761902 -0.00022 0.069470668
v 0.18721554 -0.00022 0.068652115
v 0.18672749 -0.00022 0.068079128
v 0.18618553 -0.00022 0.067669849
v 0.18558969 -0.00022 0.067424283
v 0.18493996 -0.00022 0.067342424
v 0.18429024 -0.00022 0.06742394
v 0.1836944 -0.00022 0.067668486
v 0.18315245 -0.00022 0.068076057
v 0.18266439 -0.00022 0.068646655
v 0.18226091 -0.00022 0.069463506
v 0.18197271 -0.00022 0.070609822
v 0.18179979 -0.00022 0.072085605
v 0.18174215 -9.9999998e-05 0.073890858
v 0.18180559 -9.9999998e-05 0.075706
v 0.18199591 -9.9999998e-05 0.077211456
v 0.1823131 -9.9999998e-05 0.07840723
v 0.18275715 -9.9999998e-05 0.079293313
v 0.18275715 -0.00022 0.079293313
v 0.1823131 -0.00022 0.07840723
v 0.18199591 -0.00022 0.077211456
v 0.18180559 -0.00022 0.075706
v 0.18174215 -0.00022 0.073890858
v 0.18275715 -9.9999998e-05 0.079293313
v 0.18319508 -9.9999998e-05 0.079794679
v 0.18370123 -9.9999998e-05 0.080152798
v 0.18427557 -9.9999998e-05 0.08036767
v 0.18491814 -9.9999998e-05 0.080439291
v 0.18491814 -0.00022 0.080439291
v 0.18427557 -0.00022 0.08036767
v 0.18370123 -0.00022 0.080152798
v 0.18319508 -0.00022 0.079794679
v 0.18275715 -0.00022 0.079293313
v 0.18130558 -9.9999998e-05 0.067386084
v 0.18061323 -9.9999998e-05 0.068541608
v 0.18011869 -9.9999998e-05 0.070010915
v 0.17982197 -9.9999998e-05 0.071793995
v 0.17972305 -9.9999998e-05 0.073890858
v 0.17975954 -9.9999998e-05 0.07524045
v 0.17986902 -9.9999998e-05 0.076451569
v 0.1800515 -9.9999998e-05 0.077524214
v 0.18030695 -9.9999998e-05 0.07845839
v 0.18063438 -9.9999998e-05 0.079273872
v 0.18103273 -9.9999998e-05 0.079990449
v 0.18150204 -9.9999998e-05 0.08060812
v 0.18204229 -9.9999998e-05 0.081126871
v 0.18265518 -9.9999998e-05 0.081537514
v 0.18334242 -9.9999998e-05 0.081830835
v 0.18410402 -9.9999998e-05 0.082006817
v 0.18493996 -9.9999998e-05 0.082065487
v 0.1861487 -9.9999998e-05 0.081935883
v 0.18719917 -9.9999998e-05 0.08154707
v 0.18808594 -9.9999998e-05 0.080914049
v 0.18880354 -9.9999998e-05 0.080051842
v 0.18936834 -9.9999998e-05 0.07896862
v 0.18979671 -9.9999998e-05 0.077672577
v 0.1899543 -9.9999998e-05 0.0769103
v 0.19006685 -9.9999998e-05 0.07602592
v 0.19013437 -9.9999998e-05 0.075019441
v 0.19015688 -9.9999998e-05 0.073890858
v 0.19012074 -9.9999998e-05 0.072550817
v 0.19001228 -9.9999998e-05 0.071346521
v 0.1898315 -9.9999998e-05 0.070277967
v 0.18957844 -9.9999998e-05 0.069345155
v 0.18925341 -9.9999998e-05 0.068529329
v 0.18885675 -9.9999998e-05 0.067811732
v 0.18838846 -9.9999998e-05 0.067192359
v 0.18784857 -9.9999998e-05 0.066671214
v 0.18723499 -9.9999998e-05 0.066258187
v 0.1865457 -9.9999998e-05 0.065963163
v 0.1857807 -9.9999998e-05 0.065786152
v 0.18493996 -9.9999998e-05 0.065727148
v 0.18384516 -9.9999998e-05 0.065830832
v 0.18287449 -9.9999998e-05 0.066141882
v 0.18202797 -9.9999998e-05 0.066660299
v 0.18275715 -9.9999998e-05 0.079293313
v 0.1823131 -9.9999998e-05 0.07840723
v 0.18199591 -9.9999998e-05 0.077211456
v 0.18180559 -9.9999998e-05 0.075706
v 0.18174215 -9.9999998e-05 0.073890858
v 0.18179979 -9.9999998e-05 0.072085605
v 0.18197271 -9.9999998e-05 0.070609822
v 0.18226091 -9.9999998e-05 0.069463506
v 0.18266439 -9.9999998e-05 0.068646655
v 0.18315245 -9.9999998e-05 0.068076057
v 0.1836944 -9.9999998e-05 0.067668486
v 0.18429024 -9.9999998e-05 0.06742394
v 0.18493996 -9.9999998e-05 0.067342424
v 0.18558969 -9.9999998e-05 0.067424283
v 0.18618553 -9.9999998e-05 0.067669849
v 0.18672749 -9.9999998e-05 0.068079128
v 0.18721554 -9.9999998e-05 0.068652115
v 0.18761902 -9.9999998e-05 0.069470668
v 0.18790722 -9.9999998e-05 0.070616646
v 0.18808014 -9.9999998e-05 0.072090039
v 0.18813778 -9.9999998e-05 0.073890858
v 0.18808014 -9.9999998e-05 0.075700545
v 0.18790722 -9.9999998e-05 0.077178717
v 0.18761902 -9.9999998e-05 0.078325377
v 0.18721554 -9.9999998e-05 0.079140515
v 0.18672611 -9.9999998e-05 0.079708729
v 0.18618008 -9.9999998e-05 0.080114594
v 0.18557741 -9.9999998e-05 0.080358114
v 0.18491814 -9.9999998e-05 0.080439291
v 0.18427557 -9.9999998e-05 0.08036767
v 0.18370123 -9.9999998e-05 0.080152798
v 0.18319508 -9.9999998e-05 0.079794679
v 0.18491814 -9.9999998e-05 0.080439291
v 0.18557741 -9.9999998e-05 0.080358114
v 0.18618008 -9.9999998e-05 0.080114594
v 0.18672611 -9.9999998e-05 0.079708729
v 0.18721554 -9.9999998e-05 0.079140515
v 0.18721554 -0.00022 0.079140515
v 0.18672611 -0.00022 0.079708729
v 0.18618008 -0.00022 0.080114594
v 0.18557741 -0.00022 0.080358114
v 0.18491814 -0.00022 0.080439291
v 0.18721554 -9.9999998e-05 0.079140515
v 0.18761902 -9.9999998e-05 0.078325377
v 0.18790722 -9.9999998e-05 0.077178717
v 0.18808014 -9.9999998e-05 0.075700545
v 0.18813778 -9.9999998e-05 0.073890858
v 0.18813778 -0.00022 0.073890858
v 0.18808014 -0.00022 0.075700545
v 0.18790722 -0.00022 0.077178717
v 0.18761902 -0.00022 0.078325377
v 0.18721554 -0.00022 0.079140515
v 0.18813778 -9.9999998e-05 0.073890858
v 0.18808014 -9.9999998e-05 0.072090039
v 0.18790722 -9.9999998e-05 0.070616646
v 0.18761902 -9.9999998e-05 0.069470668
v 0.18721554 -9.9999998e-05 0.068652115
v 0.18721554 -0.00022 0.068652115
v 0.18761902 -0.00022 0.069470668
v 0.18790722 -0.00022 0.070616646
v 0.18808014 -0.00022 0.072090039
v 0.18813778 -0.00022 0.073890858
v 0.18721554 -9.9999998e-05 0.068652115
v 0.18672749 -9.9999998e-05 0.068079128
v 0.18618553 -9.9999998e-05 0.067669849
v 0.18558969 -9.9999998e-05 0.067424283
v 0.18493996 -9.9999998e-05 0.067342424
v 0.18493996 -0.00022 0.067342424
v 0.18558969 -0.00022 0.067424283
v 0.18618553 -0.00022 0.067669849
v 0.18672749 -0.00022 0.068079128
v 0.18721554 -0.00022 0.068652115
v 0.18493996 -9.9999998e-05 0.067342424
v 0.18429024 -9.9999998e-05 0.06742394
v 0.1836944 -9.9999998e-05 0.067668486
v 0.18315245 -9.9999998e-05 0.068076057
v 0.18266439 -9.9999998e-05 0.068646655
v 0.18266439 -0.00022 0.068646655
v 0.18315245 -0.00022 0.068076057
v 0.1836944 -0.00022 0.067668486
v 0.18429024 -0.00022 0.06742394
v 0.18493996 -0.00022 0.067342424
v 0.18266439 -9.9999998e-05 0.068646655
v 0.18226091 -9.9999998e-05 0.069463506
v 0.18197271 -9.9999998e-05 0.070609822
v 0.18179979 -9.9999998e-05 0.072085605
v 0.18174215 -9.9999998e-05 0.073890858
v 0.18174215 -0.00022 0.073890858
v 0.18179979 -0.00022 0.072085605
v 0.18197271 -0.00022 0.070609822
v 0.18226091 -0.00022 0.069463506
v 0.18266439 -0.00022 0.068646655
f 1 2 10
f 10 2 9
f 9 2 3
f 9 3 8
f 8 3 4
f 8 4 7
f 7 4 5
f 7 5 6
f 11 12 20
f 20 12 19
f 19 12 13
f 19 13 18
f 18 13 14
f 18 14 17
f 17 14 15
f 17 15 16
f 21 22 30
f 30 22 29
f 29 22 23
f 29 23 28
f 28 23 24
f 28 24 27
f 27 24 25
f 27 25 26
f 31 32 40
f 40 32 39
f 39 32 33
f 39 33 38
f 38 33 34
f 38 34 37
f 37 34 35
f 37 35 36
f 41 42 46
f 46 42 45
f 45 42 43
f 45 43 44
f 47 48 56
f 56 48 55
f 55 48 49
f 55 49 54
f 54 49 50
f 54 50 53
f 53 50 51
f 53 51 52
f 57 58 62
f 62 58 61
f 61 58 59
f 61 59 60
f 63 64 72
f 72 64 71
f 71 64 65
f 71 65 70
f 70 65 66
f 70 66 69
f 69 66 67
f 69 67 68
f 73 74 78
f 78 74 77
f 77 74 75
f 77 75 76
f 79 80 88
f 88 80 87
f 87 80 81
f 87 81 86
f 86 81 82
f 86 82 85
f 85 82 83
f 85 83 84
f 89 90 98
f 98 90 97
f 97 90 91
f 97 91 96
f 96 91 92
f 96 92 95
f 95 92 93
f 95 93 94
f 99 100 108
f 108 100 107
f 107 100 101
f 107 101 106
f 106 101 102
f 106 102 105
f 105 102 103
f 105 103 104
f 150 109 151
f 151 109 110
f 151 110 182
f 182 110 111
f 182 111 181
f 181 111 112
f 181 112 180
f 180 112 113
f 180 113 179
f 179 113 114
f 179 114 178
f 178 114 115
f 178 115 177
f 177 115 116
f 177 116 176
f 176 116 117
f 176 117 175
f 175 117 174
f 174 117 118
f 174 118 173
f 173 118 119
f 173 119 120
f 173 120 172
f 172 120 121
f 172 121 171
f 171 121 122
f 171 122 170
f 170 122 123
f 170 123 124
f 170 124 169
f 169 124 125
f 169 125 126
f 169 126 168
f 168 126 127
f 168 127 128
f 168 128 167
f 167 128 129
f 167 129 130
f 167 130 166
f 166 130 131
f 166 131 132
f 166 132 165
f 165 132 133
f 165 133 134
f 165 134 164
f 164 134 135
f 164 135 163
f 163 135 136
f 163 136 162
f 162 136 137
f 162 137 161
f 161 137 138
f 161 138 160
f 160 138 139
f 160 139 159
f 159 139 158
f 158 139 140
f 158 140 157
f 157 140 141
f 157 141 156
f 156 141 142
f 156 142 143
f 156 143 155
f 155 143 144
f 155 144 154
f 154 144 145
f 154 145 146
f 154 146 153
f 153 146 147
f 153 147 148
f 153 148 152
f 152 148 149
f 152 149 150
f 152 150 151
f 183 184 192
f 192 184 191
f 191 184 185
f 191 185 190
f 190 185 186
f 190 186 189
f 189 186 187
f 189 187 188
f 193 194 202
f 202 194 201
f 201 194 195
f 201 195 200
f 200 195 196
f 200 196 199
f 199 196 197
f 199 197 198
f 204 252 203
f 203 252 253
f 203 253 244
f 244 253 254
f 244 254 243
f 243 254 255
f 243 255 242
f 242 255 256
f 242 256 241
f 241 256 257
f 241 257 258
f 252 204 251
f 251 204 205
f 251 205 250
f 250 205 206
f 250 206 249
f 249 206 207
f 249 207 208
f 249 208 248
f 248 208 209
f 248 209 210
f 248 210 247
f 247 210 211
f 247 211 212
f 247 212 246
f 246 212 213
f 246 213 214
f 246 214 245
f 245 214 215
f 245 215 276
f 276 215 216
f 276 216 217
f 276 217 275
f 275 217 218
f 275 218 274
f 274 218 219
f 274 219 273
f 273 219 272
f 272 219 220
f 272 220 271
f 271 220 221
f 271 221 270
f 270 221 222
f 270 222 269
f 269 222 223
f 269 223 268
f 268 223 224
f 268 224 267
f 267 224 225
f 267 225 226
f 267 226 266
f 266 226 227
f 266 227 228
f 266 228 265
f 265 228 229
f 265 229 230
f 265 230 264
f 264 230 231
f 264 231 232
f 264 232 263
f 263 232 233
f 263 233 234
f 263 234 262
f 262 234 235
f 262 235 236
f 262 236 261
f 261 236 237
f 261 237 260
f 260 237 238
f 260 238 259
f 259 238 239
f 259 239 240
f 259 240 258
f 258 240 241
f 277 278 286
f 286 278 285
f 285 278 279
f 285 279 284
f 284 279 280
f 284 280 283
f 283 280 281
f 283 281 282
f 287 288 296
f 296 288 295
f 295 288 289
f 295 289 294
f 294 289 290
f 294 290 293
f 293 290 291
f 293 291 292
f 297 298 306
f 306 298 305
f 305 298 299
f 305 299 304
f 304 299 300
f 304 300 303
f 303 300 301
f 303 301 302
f 307 308 316
f 316 308 315
f 315 308 309
f 315 309 314
f 314 309 310
f 314 310 313
f 313 310 311
f 313 311 312
f 317 318 326
f 326 318 325
f 325 318 319
f 325 319 324
f 324 319 320
f 324 320 323
f 323 320 321
f 323 321 322
f 327 328 336
f 336 328 335
f 335 328 329
f 335 329 334
f 334 329 330
f 334 330 333
f 333 330 331
f 333 331 332
