v -0.205 -0.22700001 0.35099998
v -0.205 -0.221 0.35099998
v -0.209 -0.221 0.35099998
v -0.209 -0.22700001 0.35099998
v -0.205 -0.221 0.35099998
v -0.205 -0.221 0.34299999
v -0.209 -0.221 0.34299999
v -0.209 -0.221 0.35099998
v -0.205 -0.22700001 0.35099998
v -0.205 -0.22700001 0.34299999
v -0.205 -0.221 0.34299999
v -0.205 -0.221 0.35099998
v -0.209 -0.22700001 0.35099998
v -0.209 -0.22700001 0.34299999
v -0.205 -0.22700001 0.34299999
v -0.205 -0.22700001 0.35099998
v -0.209 -0.221 0.35099998
v -0.209 -0.221 0.34299999
v -0.209 -0.22700001 0.34299999
v -0.209 -0.22700001 0.35099998
v -0.205 -0.221 0.34299999
v -0.205 -0.22700001 0.34299999
v -0.209 -0.22700001 0.34299999
v -0.209 -0.221 0.34299999
f 2 3 1
f 1 3 4
f 5 6 8
f 8 6 7
f 9 10 12
f 12 10 11
f 13 14 16
f 16 14 15
f 17 18 20
f 20 18 19
f 22 23 21
f 21 23 24
