v 0.080820189 0.0093697137 9.9999998e-05
v 0.0819277 0.0078000003 9.9999998e-05
v 0.0819277 0.0078000003 0.000125
v 0.080820189 0.0093697137 0.000125
v 0.080628109 0.0096638477 9.9999998e-05
v 0.080820189 0.0093697137 9.9999998e-05
v 0.080820189 0.0093697137 0.000125
v 0.080628109 0.0096638477 0.000125
v 0.0819277 0.0078000003 9.9999998e-05
v 0.08264802 0.0078000003 9.9999998e-05
v 0.08264802 0.0078000003 0.000125
v 0.0819277 0.0078000003 0.000125
v 0.080418005 0.0093336976 9.9999998e-05
v 0.080628109 0.0096638477 9.9999998e-05
v 0.080628109 0.0096638477 0.000125
v 0.080418005 0.0093336976 0.000125
v 0.08264802 0.0078000003 9.9999998e-05
v 0.080982265 0.010126058 9.9999998e-05
v 0.080982265 0.010126058 0.000125
v 0.08264802 0.0078000003 0.000125
v 0.079313507 0.0078000003 9.9999998e-05
v 0.080418005 0.0093336976 9.9999998e-05
v 0.080418005 0.0093336976 0.000125
v 0.079313507 0.0078000003 0.000125
v 0.080982265 0.010126058 9.9999998e-05
v 0.082527971 0.0122 9.9999998e-05
v 0.082527971 0.0122 0.000125
v 0.080982265 0.010126058 0.000125
v 0.078614187 0.0078000003 0.000125
v 0.079313507 0.0078000003 0.000125
v 0.080418005 0.0093336976 0.000125
v 0.080628109 0.0096638477 0.000125
v 0.080820189 0.0093697137 0.000125
v 0.0819277 0.0078000003 0.000125
v 0.08264802 0.0078000003 0.000125
v 0.080982265 0.010126058 0.000125
v 0.082527971 0.0122 0.000125
v 0.081894684 0.0122 0.000125
v 0.081009274 0.011032469 0.000125
v 0.080661116 0.010531242 0.000125
v 0.080520058 0.010760846 0.000125
v 0.080306959 0.011071488 0.000125
v 0.079508595 0.0122 0.000125
v 0.078815279 0.0122 0.000125
v 0.080315962 0.010093043 0.000125
v 0.082527971 0.0122 9.9999998e-05
v 0.081894684 0.0122 9.9999998e-05
v 0.081894684 0.0122 0.000125
v 0.082527971 0.0122 0.000125
v 0.078614187 0.0078000003 9.9999998e-05
v 0.079313507 0.0078000003 9.9999998e-05
v 0.079313507 0.0078000003 0.000125
v 0.078614187 0.0078000003 0.000125
v 0.081894684 0.0122 9.9999998e-05
v 0.081009274 0.011032469 9.9999998e-05
v 0.081009274 0.011032469 0.000125
v 0.081894684 0.0122 0.000125
v 0.079313507 0.0078000003 9.9999998e-05
v 0.078614187 0.0078000003 9.9999998e-05
v 0.080315962 0.010093043 9.9999998e-05
v 0.078815279 0.0122 9.9999998e-05
v 0.079508595 0.0122 9.9999998e-05
v 0.080306959 0.011071488 9.9999998e-05
v 0.080520058 0.010760846 9.9999998e-05
v 0.080661116 0.010531242 9.9999998e-05
v 0.081009274 0.011032469 9.9999998e-05
v 0.081894684 0.0122 9.9999998e-05
v 0.082527971 0.0122 9.9999998e-05
v 0.080982265 0.010126058 9.9999998e-05
v 0.08264802 0.0078000003 9.9999998e-05
v 0.0819277 0.0078000003 9.9999998e-05
v 0.080820189 0.0093697137 9.9999998e-05
v 0.080628109 0.0096638477 9.9999998e-05
v 0.080418005 0.0093336976 9.9999998e-05
v 0.081009274 0.011032469 9.9999998e-05
v 0.080661116 0.010531242 9.9999998e-05
v 0.080661116 0.010531242 0.000125
v 0.081009274 0.011032469 0.000125
v 0.080661116 0.010531242 9.9999998e-05
v 0.080520058 0.010760846 9.9999998e-05
v 0.080306959 0.011071488 9.9999998e-05
v 0.080306959 0.011071488 0.000125
v 0.080520058 0.010760846 0.000125
v 0.080661116 0.010531242 0.000125
v 0.080306959 0.011071488 9.9999998e-05
v 0.079508595 0.0122 9.9999998e-05
v 0.079508595 0.0122 0.000125
v 0.080306959 0.011071488 0.000125
v 0.079508595 0.0122 9.9999998e-05
v 0.078815279 0.0122 9.9999998e-05
v 0.078815279 0.0122 0.000125
v 0.079508595 0.0122 0.000125
v 0.078815279 0.0122 9.9999998e-05
v 0.080315962 0.010093043 9.9999998e-05
v 0.080315962 0.010093043 0.000125
v 0.078815279 0.0122 0.000125
v 0.080315962 0.010093043 9.9999998e-05
v 0.078614187 0.0078000003 9.9999998e-05
v 0.078614187 0.0078000003 0.000125
v 0.080315962 0.010093043 0.000125
f 1 2 4
f 4 2 3
f 5 6 8
f 8 6 7
f 9 10 12
f 12 10 11
f 13 14 16
f 16 14 15
f 17 18 20
f 20 18 19
f 21 22 24
f 24 22 23
f 25 26 28
f 28 26 27
f 30 31 29
f 29 31 45
f 45 31 32
f 45 32 36
f 36 32 33
f 36 33 35
f 35 33 34
f 37 39 36
f 36 39 40
f 36 40 45
f 45 40 41
f 45 41 42
f 37 38 39
f 43 44 42
f 42 44 45
f 46 47 49
f 49 47 48
f 50 51 53
f 53 51 52
f 54 55 57
f 57 55 56
f 58 59 74
f 74 59 60
f 74 60 73
f 73 60 69
f 73 69 72
f 72 69 70
f 72 70 71
f 61 63 60
f 60 63 64
f 60 64 65
f 61 62 63
f 60 65 69
f 69 65 66
f 69 66 68
f 68 66 67
f 75 76 78
f 78 76 77
f 79 80 84
f 84 80 83
f 83 80 81
f 83 81 82
f 85 86 88
f 88 86 87
f 89 90 92
f 92 90 91
f 93 94 96
f 96 94 95
f 97 98 100
f 100 98 99
