v 0.54599998 0.61599998 0.086999998
v 0.54619576 0.61476395 0.086999998
v 0.54676392 0.61364887 0.086999998
v 0.54764885 0.61276394 0.086999998
v 0.54876392 0.61219578 0.086999998
v 0.55 0.61200001 0.086999998
v 0.55123608 0.61219578 0.086999998
v 0.55235115 0.61276394 0.086999998
v 0.55323608 0.61364887 0.086999998
v 0.55380424 0.61476395 0.086999998
v 0.55400002 0.61599998 0.086999998
v 0.55380424 0.61723606 0.086999998
v 0.55323608 0.61835114 0.086999998
v 0.55235115 0.61923607 0.086999998
v 0.55123608 0.61980423 0.086999998
v 0.55 0.62 0.086999998
v 0.54876392 0.61980423 0.086999998
v 0.54764885 0.61923607 0.086999998
v 0.54676392 0.61835114 0.086999998
v 0.54619576 0.61723606 0.086999998
v 0.54599998 0.61599998 0.086999998
v 0.54619576 0.61723606 0.086999998
v 0.54676392 0.61835114 0.086999998
v 0.54764885 0.61923607 0.086999998
v 0.54876392 0.61980423 0.086999998
v 0.55 0.62 0.086999998
v 0.55123608 0.61980423 0.086999998
v 0.55235115 0.61923607 0.086999998
v 0.55323608 0.61835114 0.086999998
v 0.55380424 0.61723606 0.086999998
v 0.55400002 0.61599998 0.086999998
v 0.55380424 0.61476395 0.086999998
v 0.55323608 0.61364887 0.086999998
v 0.55235115 0.61276394 0.086999998
v 0.55123608 0.61219578 0.086999998
v 0.55 0.61200001 0.086999998
v 0.54876392 0.61219578 0.086999998
v 0.54764885 0.61276394 0.086999998
v 0.54676392 0.61364887 0.086999998
v 0.54619576 0.61476395 0.086999998
v 0.54599998 0.61599998 0.083999996
v 0.54619576 0.61476395 0.083999996
v 0.54676392 0.61364887 0.083999996
v 0.54764885 0.61276394 0.083999996
v 0.54876392 0.61219578 0.083999996
v 0.55 0.61200001 0.083999996
v 0.55123608 0.61219578 0.083999996
v 0.55235115 0.61276394 0.083999996
v 0.55323608 0.61364887 0.083999996
v 0.55380424 0.61476395 0.083999996
v 0.55400002 0.61599998 0.083999996
v 0.55380424 0.61723606 0.083999996
v 0.55323608 0.61835114 0.083999996
v 0.55235115 0.61923607 0.083999996
v 0.55123608 0.61980423 0.083999996
v 0.55 0.62 0.083999996
v 0.54876392 0.61980423 0.083999996
v 0.54764885 0.61923607 0.083999996
v 0.54676392 0.61835114 0.083999996
v 0.54619576 0.61723606 0.083999996
v 0.54599998 0.61599998 0.083999996
v 0.54599998 0.61599998 0.086999998
v 0.54599998 0.61599998 0.083999996
v 0.54619576 0.61723606 0.083999996
v 0.54676392 0.61835114 0.083999996
v 0.54764885 0.61923607 0.083999996
v 0.54876392 0.61980423 0.083999996
v 0.55 0.62 0.083999996
v 0.55123608 0.61980423 0.083999996
v 0.55235115 0.61923607 0.083999996
v 0.55323608 0.61835114 0.083999996
v 0.55380424 0.61723606 0.083999996
v 0.55400002 0.61599998 0.083999996
v 0.55380424 0.61476395 0.083999996
v 0.55323608 0.61364887 0.083999996
v 0.55235115 0.61276394 0.083999996
v 0.55123608 0.61219578 0.083999996
v 0.55 0.61200001 0.083999996
v 0.54876392 0.61219578 0.083999996
v 0.54764885 0.61276394 0.083999996
v 0.54676392 0.61364887 0.083999996
v 0.54619576 0.61476395 0.083999996
f 2 10 1
f 1 10 11
f 1 11 20
f 20 11 12
f 20 12 19
f 19 12 13
f 19 13 18
f 18 13 14
f 18 14 17
f 17 14 15
f 17 15 16
f 10 2 9
f 9 2 3
f 9 3 8
f 8 3 4
f 8 4 7
f 7 4 5
f 7 5 6
f 22 60 21
f 21 60 61
f 62 41 40
f 40 41 42
f 40 42 39
f 39 42 43
f 39 43 38
f 38 43 44
f 38 44 37
f 37 44 45
f 37 45 36
f 36 45 46
f 36 46 35
f 35 46 47
f 35 47 34
f 34 47 48
f 34 48 33
f 33 48 49
f 33 49 32
f 32 49 50
f 32 50 31
f 31 50 51
f 31 51 30
f 30 51 52
f 30 52 29
f 29 52 53
f 29 53 28
f 28 53 54
f 28 54 27
f 27 54 55
f 27 55 26
f 26 55 56
f 26 56 25
f 25 56 57
f 25 57 24
f 24 57 58
f 24 58 23
f 23 58 59
f 23 59 22
f 22 59 60
f 64 72 63
f 63 72 73
f 63 73 82
f 82 73 74
f 82 74 81
f 81 74 75
f 81 75 80
f 80 75 76
f 80 76 79
f 79 76 77
f 79 77 78
f 72 64 71
f 71 64 65
f 71 65 70
f 70 65 66
f 70 66 69
f 69 66 67
f 69 67 68
