v 0.071537519 -0.29947001 0.2675
v 0.071537519 -0.29947001 0.27352455
v 0.071062756 -0.29947001 0.27352455
v 0.070802865 -0.29947001 0.2731296
v 0.070407915 -0.29947001 0.27272238
v 0.069327421 -0.29947001 0.27201841
v 0.069327421 -0.29947001 0.27130627
v 0.070103002 -0.29947001 0.2716869
v 0.070800819 -0.29947001 0.2721944
v 0.070800819 -0.29947001 0.2675
v 0.071537519 -0.29934999 0.27352455
v 0.071062756 -0.29934999 0.27352455
v 0.071062756 -0.29947001 0.27352455
v 0.071537519 -0.29947001 0.27352455
v 0.071537519 -0.29934999 0.2675
v 0.071537519 -0.29934999 0.27352455
v 0.071537519 -0.29947001 0.27352455
v 0.071537519 -0.29947001 0.2675
v 0.071062756 -0.29934999 0.27352455
v 0.070802865 -0.29934999 0.2731296
v 0.070407915 -0.29934999 0.27272238
v 0.070407915 -0.29947001 0.27272238
v 0.070802865 -0.29947001 0.2731296
v 0.071062756 -0.29947001 0.27352455
v 0.071537519 -0.29934999 0.27352455
v 0.071537519 -0.29934999 0.2675
v 0.070800819 -0.29934999 0.2675
v 0.070800819 -0.29934999 0.2721944
v 0.070103002 -0.29934999 0.2716869
v 0.069327421 -0.29934999 0.27130627
v 0.069327421 -0.29934999 0.27201841
v 0.070407915 -0.29934999 0.27272238
v 0.070802865 -0.29934999 0.2731296
v 0.071062756 -0.29934999 0.27352455
v 0.070407915 -0.29934999 0.27272238
v 0.069327421 -0.29934999 0.27201841
v 0.069327421 -0.29947001 0.27201841
v 0.070407915 -0.29947001 0.27272238
v 0.069327421 -0.29934999 0.27201841
v 0.069327421 -0.29934999 0.27130627
v 0.069327421 -0.29947001 0.27130627
v 0.069327421 -0.29947001 0.27201841
v 0.069327421 -0.29934999 0.27130627
v 0.070103002 -0.29934999 0.2716869
v 0.070103002 -0.29947001 0.2716869
v 0.069327421 -0.29947001 0.27130627
v 0.070103002 -0.29934999 0.2716869
v 0.070800819 -0.29934999 0.2721944
v 0.070800819 -0.29947001 0.2721944
v 0.070103002 -0.29947001 0.2716869
v 0.070800819 -0.29934999 0.2721944
v 0.070800819 -0.29934999 0.2675
v 0.070800819 -0.29947001 0.2675
v 0.070800819 -0.29947001 0.2721944
v 0.070800819 -0.29934999 0.2675
v 0.071537519 -0.29934999 0.2675
v 0.071537519 -0.29947001 0.2675
v 0.070800819 -0.29947001 0.2675
f 10 1 9
f 9 1 2
f 9 2 3
f 3 4 9
f 9 4 5
f 9 5 8
f 8 5 6
f 8 6 7
f 11 12 14
f 14 12 13
f 15 16 18
f 18 16 17
f 19 20 24
f 24 20 23
f 23 20 21
f 23 21 22
f 34 25 28
f 28 25 26
f 28 26 27
f 29 32 28
f 28 32 33
f 28 33 34
f 30 31 29
f 29 31 32
f 35 36 38
f 38 36 37
f 39 40 42
f 42 40 41
f 43 44 46
f 46 44 45
f 47 48 50
f 50 48 49
f 51 52 54
f 54 52 53
f 55 56 58
f 58 56 57
