v -0.01 -0.0447367 0.085310001
v -0.01 -0.0447367 0.030309999
v 0.01 -0.0447367 0.030309999
v 0.01 -0.0447367 0.085310001
v 0.01 -0.0447367 0.085310001
v 0.01 -0.0447367 0.030309999
v 0.01 -0.044716702 0.030309999
v 0.01 -0.044716702 0.085310001
v 0.01 -0.0447367 0.085310001
v 0.01 -0.044716702 0.085310001
v -0.01 -0.044716702 0.085310001
v -0.01 -0.0447367 0.085310001
v -0.01 -0.044716702 0.085310001
v -0.01 -0.044716702 0.030309999
v -0.01 -0.0447367 0.030309999
v -0.01 -0.0447367 0.085310001
v 0.01 -0.044716702 0.085310001
v 0.01 -0.044716702 0.030309999
v -0.01 -0.044716702 0.030309999
v -0.01 -0.044716702 0.085310001
v 0.01 -0.044716702 0.030309999
v 0.01 -0.0447367 0.030309999
v -0.01 -0.0447367 0.030309999
v -0.01 -0.044716702 0.030309999
f 1 2 4
f 4 2 3
f 5 6 8
f 8 6 7
f 10 11 9
f 9 11 12
f 13 14 16
f 16 14 15
f 17 18 20
f 20 18 19
f 22 23 21
f 21 23 24
