v -0.08 -0.0276 0.37299999
v -0.069899998 -0.0276 0.37299999
v -0.069899998 -0.0276 0.34700001
v -0.08 -0.0276 0.34700001
v -0.08 -0.0276 0.37299999
v -0.08 -0.0276 0.34700001
v -0.08 -0.0295 0.34700001
v -0.08 -0.0295 0.37299999
v -0.08 -0.0154 0.34700001
v -0.08 -0.0154 0.37299999
v -0.08 -0.0135 0.37299999
v -0.08 -0.0135 0.34700001
v -0.068000002 -0.0135 0.37299999
v -0.068000002 -0.0135 0.34700001
v -0.08 -0.0135 0.34700001
v -0.08 -0.0135 0.37299999
v -0.068000002 -0.0295 0.37299999
v -0.068000002 -0.0295 0.34700001
v -0.068000002 -0.0135 0.34700001
v -0.068000002 -0.0135 0.37299999
v -0.069899998 -0.0276 0.37299999
v -0.069899998 -0.0154 0.37299999
v -0.069899998 -0.0154 0.34700001
v -0.069899998 -0.0276 0.34700001
v -0.069899998 -0.0276 0.37299999
v -0.08 -0.0276 0.37299999
v -0.08 -0.0295 0.37299999
v -0.068000002 -0.0295 0.37299999
v -0.068000002 -0.0135 0.37299999
v -0.08 -0.0135 0.37299999
v -0.08 -0.0154 0.37299999
v -0.069899998 -0.0154 0.37299999
v -0.069899998 -0.0154 0.37299999
v -0.08 -0.0154 0.37299999
v -0.08 -0.0154 0.34700001
v -0.069899998 -0.0154 0.34700001
v -0.08 -0.0295 0.37299999
v -0.08 -0.0295 0.34700001
v -0.068000002 -0.0295 0.34700001
v -0.068000002 -0.0295 0.37299999
v -0.08 -0.0276 0.34700001
v -0.069899998 -0.0276 0.34700001
v -0.069899998 -0.0154 0.34700001
v -0.08 -0.0154 0.34700001
v -0.08 -0.0135 0.34700001
v -0.068000002 -0.0135 0.34700001
v -0.068000002 -0.0295 0.34700001
v -0.08 -0.0295 0.34700001
f 2 3 1
f 1 3 4
f 5 6 8
f 8 6 7
f 9 10 12
f 12 10 11
f 13 14 16
f 16 14 15
f 17 18 20
f 20 18 19
f 22 23 21
f 21 23 24
f 26 27 25
f 25 27 28
f 25 28 32
f 32 28 29
f 32 29 30
f 30 31 32
f 34 35 33
f 33 35 36
f 37 38 40
f 40 38 39
f 41 42 48
f 48 42 47
f 47 42 43
f 47 43 46
f 46 43 45
f 45 43 44
