v 0.93859093 -9.9999998e-05 0.077214575
v 0.93844948 -9.9999998e-05 0.076876111
v 0.93844948 -0.00017999999 0.076876111
v 0.93859093 -0.00017999999 0.077214575
v 0.93875992 -9.9999998e-05 0.07754014
v 0.93859093 -9.9999998e-05 0.077214575
v 0.93859093 -0.00017999999 0.077214575
v 0.93875992 -0.00017999999 0.07754014
v 0.93844948 -9.9999998e-05 0.076876111
v 0.93833664 -9.9999998e-05 0.076527085
v 0.93833664 -0.00017999999 0.076527085
v 0.93844948 -0.00017999999 0.076876111
v 0.93968987 -9.9999998e-05 0.077288699
v 0.93875992 -9.9999998e-05 0.07754014
v 0.93875992 -0.00017999999 0.07754014
v 0.93968987 -0.00017999999 0.077288699
v 0.93833664 -9.9999998e-05 0.076527085
v 0.93825317 -9.9999998e-05 0.076169906
v 0.93825317 -0.00017999999 0.076169906
v 0.93833664 -0.00017999999 0.076527085
v 0.94063408 -9.9999998e-05 0.077097354
v 0.93968987 -9.9999998e-05 0.077288699
v 0.93968987 -0.00017999999 0.077288699
v 0.94063408 -0.00017999999 0.077097354
v 0.93825317 -9.9999998e-05 0.076169906
v 0.93919655 -9.9999998e-05 0.07583158
v 0.93919655 -0.00017999999 0.07583158
v 0.93825317 -0.00017999999 0.076169906
v 0.94158852 -9.9999998e-05 0.076966887
v 0.94063408 -9.9999998e-05 0.077097354
v 0.94063408 -0.00017999999 0.077097354
v 0.94158852 -0.00017999999 0.076966887
v 0.93919655 -9.9999998e-05 0.07583158
v 0.94016121 -9.9999998e-05 0.075559783
v 0.94016121 -0.00017999999 0.075559783
v 0.93919655 -0.00017999999 0.07583158
v 0.94254944 -9.9999998e-05 0.07689784
v 0.94158852 -9.9999998e-05 0.076966887
v 0.94158852 -0.00017999999 0.076966887
v 0.94254944 -0.00017999999 0.07689784
v 0.94016121 -9.9999998e-05 0.075559783
v 0.94114243 -9.9999998e-05 0.075355835
v 0.94114243 -0.00017999999 0.075355835
v 0.94016121 -0.00017999999 0.075559783
v 0.94884399 -9.9999998e-05 0.088316479
v 0.947369 -9.9999998e-05 0.087335539
v 0.94619148 -9.9999998e-05 0.086147938
v 0.945261 -9.9999998e-05 0.084793243
v 0.94452721 -9.9999998e-05 0.083311014
v 0.94393951 -9.9999998e-05 0.081740799
v 0.94344765 -9.9999998e-05 0.080122156
v 0.94254944 -9.9999998e-05 0.07689784
v 0.94254944 -0.00017999999 0.07689784
v 0.94344765 -0.00017999999 0.080122156
v 0.94393951 -0.00017999999 0.081740799
v 0.94452721 -0.00017999999 0.083311014
v 0.945261 -0.00017999999 0.084793243
v 0.94619148 -0.00017999999 0.086147938
v 0.947369 -0.00017999999 0.087335539
v 0.94884399 -0.00017999999 0.088316479
v 0.94114243 -9.9999998e-05 0.075355835
v 0.94213554 -9.9999998e-05 0.075220728
v 0.94213554 -0.00017999999 0.075220728
v 0.94114243 -0.00017999999 0.075355835
v 0.9554882 -9.9999998e-05 0.088744678
v 0.95470711 -9.9999998e-05 0.089146614
v 0.95387093 -9.9999998e-05 0.089392328
v 0.95300018 -9.9999998e-05 0.089494858
v 0.95211525 -9.9999998e-05 0.089467258
v 0.95123665 -9.9999998e-05 0.089322577
v 0.9503849 -9.9999998e-05 0.089073858
v 0.94958054 -9.9999998e-05 0.08873414
v 0.94884399 -9.9999998e-05 0.088316479
v 0.94884399 -0.00017999999 0.088316479
v 0.94958054 -0.00017999999 0.08873414
v 0.9503849 -0.00017999999 0.089073858
v 0.95123665 -0.00017999999 0.089322577
v 0.95211525 -0.00017999999 0.089467258
v 0.95300018 -0.00017999999 0.089494858
v 0.95387093 -0.00017999999 0.089392328
v 0.95470711 -0.00017999999 0.089146614
v 0.9554882 -0.00017999999 0.088744678
v 0.94213554 -9.9999998e-05 0.075220728
v 0.94167389 -9.9999998e-05 0.073423333
v 0.94167389 -0.00017999999 0.073423333
v 0.94213554 -0.00017999999 0.075220728
v 0.95587593 -9.9999998e-05 0.08843379
v 0.9554882 -9.9999998e-05 0.088744678
v 0.9554882 -0.00017999999 0.088744678
v 0.95587593 -0.00017999999 0.08843379
v 0.94167389 -9.9999998e-05 0.073423333
v 0.94114723 -9.9999998e-05 0.071643901
v 0.94114723 -0.00017999999 0.071643901
v 0.94167389 -0.00017999999 0.073423333
v 0.95623001 -9.9999998e-05 0.088085041
v 0.95587593 -9.9999998e-05 0.08843379
v 0.95587593 -0.00017999999 0.08843379
v 0.95623001 -0.00017999999 0.088085041
v 0.94114723 -9.9999998e-05 0.071643901
v 0.94055626 -9.9999998e-05 0.069884787
v 0.94055626 -0.00017999999 0.069884787
v 0.94114723 -0.00017999999 0.071643901
v 0.95654671 -9.9999998e-05 0.087702045
v 0.95623001 -9.9999998e-05 0.088085041
v 0.95623001 -0.00017999999 0.088085041
v 0.95654671 -0.00017999999 0.087702045
v 0.94055626 -9.9999998e-05 0.069884787
v 0.93990173 -9.9999998e-05 0.068148313
v 0.93990173 -0.00017999999 0.068148313
v 0.94055626 -0.00017999999 0.069884787
v 0.95682274 -9.9999998e-05 0.087288799
v 0.95654671 -9.9999998e-05 0.087702045
v 0.95654671 -0.00017999999 0.087702045
v 0.95682274 -0.00017999999 0.087288799
v 0.93990173 -9.9999998e-05 0.068148313
v 0.93958771 -9.9999998e-05 0.067359715
v 0.93940598 -9.9999998e-05 0.066974111
v 0.93912384 -9.9999998e-05 0.066656752
v 0.93912384 -0.00017999999 0.066656752
v 0.93940598 -0.00017999999 0.066974111
v 0.93958771 -0.00017999999 0.067359715
v 0.93990173 -0.00017999999 0.068148313
v 0.95610909 -9.9999998e-05 0.081229782
v 0.9567234 -9.9999998e-05 0.082637157
v 0.95716438 -9.9999998e-05 0.08417098
v 0.95726494 -9.9999998e-05 0.084959593
v 0.95725616 -9.9999998e-05 0.085748959
v 0.95711609 -9.9999998e-05 0.086528788
v 0.95682274 -9.9999998e-05 0.087288799
v 0.95682274 -0.00017999999 0.087288799
v 0.95711609 -0.00017999999 0.086528788
v 0.95725616 -0.00017999999 0.085748959
v 0.95726494 -0.00017999999 0.084959593
v 0.95716438 -0.00017999999 0.08417098
v 0.9567234 -0.00017999999 0.082637157
v 0.95610909 -0.00017999999 0.081229782
v 0.93912384 -9.9999998e-05 0.066656752
v 0.93716309 -9.9999998e-05 0.067104354
v 0.93507378 -9.9999998e-05 0.067411456
v 0.93402786 -9.9999998e-05 0.067438302
v 0.93300598 -9.9999998e-05 0.067341204
v 0.9320269 -9.9999998e-05 0.067090554
v 0.93110939 -9.9999998e-05 0.066656752
v 0.93110939 -0.00017999999 0.066656752
v 0.9320269 -0.00017999999 0.067090554
v 0.93300598 -0.00017999999 0.067341204
v 0.93402786 -0.00017999999 0.067438302
v 0.93507378 -0.00017999999 0.067411456
v 0.93716309 -0.00017999999 0.067104354
v 0.93912384 -0.00017999999 0.066656752
v 0.95454079 -9.9999998e-05 0.079106083
v 0.95538406 -9.9999998e-05 0.080124273
v 0.95610909 -9.9999998e-05 0.081229782
v 0.95610909 -0.00017999999 0.081229782
v 0.95538406 -0.00017999999 0.080124273
v 0.95454079 -0.00017999999 0.079106083
v 0.93110939 -9.9999998e-05 0.066656752
v 0.93062439 -9.9999998e-05 0.066216002
v 0.93062439 -0.00017999999 0.066216002
v 0.93110939 -0.00017999999 0.066656752
v 0.9525425 -9.9999998e-05 0.07738081
v 0.95358963 -9.9999998e-05 0.078187809
v 0.95454079 -9.9999998e-05 0.079106083
v 0.95454079 -0.00017999999 0.079106083
v 0.95358963 -0.00017999999 0.078187809
v 0.9525425 -0.00017999999 0.07738081
v 0.93062439 -9.9999998e-05 0.066216002
v 0.93026474 -9.9999998e-05 0.065668154
v 0.93026474 -0.00017999999 0.065668154
v 0.93062439 -0.00017999999 0.066216002
v 0.95021278 -9.9999998e-05 0.07613903
v 0.9514122 -9.9999998e-05 0.076695056
v 0.9525425 -9.9999998e-05 0.07738081
v 0.9525425 -0.00017999999 0.07738081
v 0.9514122 -0.00017999999 0.076695056
v 0.95021278 -0.00017999999 0.07613903
v 0.93026474 -9.9999998e-05 0.065668154
v 0.93005325 -9.9999998e-05 0.065047874
v 0.93005325 -0.00017999999 0.065047874
v 0.93026474 -0.00017999999 0.065668154
v 0.9476664 -9.9999998e-05 0.075441966
v 0.94895897 -9.9999998e-05 0.075719604
v 0.95021278 -9.9999998e-05 0.07613903
v 0.95021278 -0.00017999999 0.07613903
v 0.94895897 -0.00017999999 0.075719604
v 0.9476664 -0.00017999999 0.075441966
v 0.93005325 -9.9999998e-05 0.065047874
v 0.9300032 -9.9999998e-05 0.064394436
v 0.9300032 -0.00017999999 0.064394436
v 0.93005325 -0.00017999999 0.065047874
v 0.9437912 -9.9999998e-05 0.065450664
v 0.94449661 -9.9999998e-05 0.066590099
v 0.94510025 -9.9999998e-05 0.067776537
v 0.94607941 -9.9999998e-05 0.070258975
v 0.9476664 -9.9999998e-05 0.075441966
v 0.9476664 -0.00017999999 0.075441966
v 0.94607941 -0.00017999999 0.070258975
v 0.94510025 -0.00017999999 0.067776537
v 0.94449661 -0.00017999999 0.066590099
v 0.9437912 -0.00017999999 0.065450664
v 0.9300032 -9.9999998e-05 0.064394436
v 0.93021759 -9.9999998e-05 0.063561416
v 0.93021759 -0.00017999999 0.063561416
v 0.9300032 -0.00017999999 0.064394436
v 0.94850822 -9.9999998e-05 0.064082031
v 0.9437912 -9.9999998e-05 0.065450664
v 0.9437912 -0.00017999999 0.065450664
v 0.94850822 -0.00017999999 0.064082031
v 0.93021759 -9.9999998e-05 0.063561416
v 0.93063477 -9.9999998e-05 0.062809181
v 0.93063477 -0.00017999999 0.062809181
v 0.93021759 -0.00017999999 0.063561416
v 0.95329697 -9.9999998e-05 0.062990723
v 0.94850822 -9.9999998e-05 0.064082031
v 0.94850822 -0.00017999999 0.064082031
v 0.95329697 -0.00017999999 0.062990723
v 0.93063477 -9.9999998e-05 0.062809181
v 0.93122787 -9.9999998e-05 0.06218616
v 0.93122787 -0.00017999999 0.06218616
v 0.93063477 -0.00017999999 0.062809181
v 0.95814125 -9.9999998e-05 0.062180448
v 0.95329697 -9.9999998e-05 0.062990723
v 0.95329697 -0.00017999999 0.062990723
v 0.95814125 -0.00017999999 0.062180448
v 0.93122787 -9.9999998e-05 0.06218616
v 0.93195869 -9.9999998e-05 0.061732464
v 0.93195869 -0.00017999999 0.061732464
v 0.93122787 -0.00017999999 0.06218616
v 0.96302452 -9.9999998e-05 0.061653967
v 0.95814125 -9.9999998e-05 0.062180448
v 0.95814125 -0.00017999999 0.062180448
v 0.96302452 -0.00017999999 0.061653967
v 0.93195869 -9.9999998e-05 0.061732464
v 0.93323349 -9.9999998e-05 0.061257167
v 0.93454895 -9.9999998e-05 0.061015792
v 0.93588257 -9.9999998e-05 0.060986671
v 0.93721214 -9.9999998e-05 0.061148152
v 0.93851524 -9.9999998e-05 0.061478572
v 0.93976959 -9.9999998e-05 0.061956267
v 0.94095291 -9.9999998e-05 0.062559581
v 0.94204277 -9.9999998e-05 0.063266845
v 0.94204277 -0.00017999999 0.063266845
v 0.94095291 -0.00017999999 0.062559581
v 0.93976959 -0.00017999999 0.061956267
v 0.93851524 -0.00017999999 0.061478572
v 0.93721214 -0.00017999999 0.061148152
v 0.93588257 -0.00017999999 0.060986671
v 0.93454895 -0.00017999999 0.061015792
v 0.93323349 -0.00017999999 0.061257167
v 0.93195869 -0.00017999999 0.061732464
v 0.96913025 -9.9999998e-05 0.061386275
v 0.96302452 -9.9999998e-05 0.061653967
v 0.96302452 -0.00017999999 0.061653967
v 0.96913025 -0.00017999999 0.061386275
v 0.94204277 -9.9999998e-05 0.063266845
v 0.94838005 -9.9999998e-05 0.061125851
v 0.94838005 -0.00017999999 0.061125851
v 0.94204277 -0.00017999999 0.063266845
v 0.97524147 -9.9999998e-05 0.061323204
v 0.96913025 -9.9999998e-05 0.061386275
v 0.96913025 -0.00017999999 0.061386275
v 0.97524147 -0.00017999999 0.061323204
v 0.94838005 -9.9999998e-05 0.061125851
v 0.95337318 -9.9999998e-05 0.059870248
v 0.95846863 -9.9999998e-05 0.05883677
v 0.96106331 -9.9999998e-05 0.058450165
v 0.96369385 -9.9999998e-05 0.058175292
v 0.96636375 -9.9999998e-05 0.058030887
v 0.96907639 -9.9999998e-05 0.058035684
v 0.96907639 -0.00017999999 0.058035684
v 0.96636375 -0.00017999999 0.058030887
v 0.96369385 -0.00017999999 0.058175292
v 0.96106331 -0.00017999999 0.058450165
v 0.95846863 -0.00017999999 0.05883677
v 0.95337318 -0.00017999999 0.059870248
v 0.94838005 -0.00017999999 0.061125851
v 0.98135147 -9.9999998e-05 0.061464825
v 0.97524147 -9.9999998e-05 0.061323204
v 0.97524147 -0.00017999999 0.061323204
v 0.98135147 -0.00017999999 0.061464825
v 0.96907639 -9.9999998e-05 0.058035684
v 0.96907639 -9.9999998e-05 0.058000002
v 0.96907639 -0.00017999999 0.058000002
v 0.96907639 -0.00017999999 0.058035684
v 0.98745323 -9.9999998e-05 0.06181097
v 0.98135147 -9.9999998e-05 0.061464825
v 0.98135147 -0.00017999999 0.061464825
v 0.98745323 -0.00017999999 0.06181097
v 0.96907639 -9.9999998e-05 0.058000002
v 0.97296516 -9.9999998e-05 0.05810132
v 0.97684898 -9.9999998e-05 0.058323779
v 0.97684898 -0.00017999999 0.058323779
v 0.97296516 -0.00017999999 0.05810132
v 0.96907639 -0.00017999999 0.058000002
v 0.99050934 -9.9999998e-05 0.062172437
v 0.98745323 -9.9999998e-05 0.06181097
v 0.98745323 -0.00017999999 0.06181097
v 0.99050934 -0.00017999999 0.062172437
v 0.97684898 -9.9999998e-05 0.058323779
v 0.98072395 -9.9999998e-05 0.058667154
v 0.98458633 -9.9999998e-05 0.059131117
v 0.98458633 -0.00017999999 0.059131117
v 0.98072395 -0.00017999999 0.058667154
v 0.97684898 -0.00017999999 0.058323779
v 0.99355217 -9.9999998e-05 0.062632251
v 0.99050934 -9.9999998e-05 0.062172437
v 0.99050934 -0.00017999999 0.062172437
v 0.99355217 -0.00017999999 0.062632251
v 0.98458633 -9.9999998e-05 0.059131117
v 0.98843239 -9.9999998e-05 0.059715219
v 0.99225838 -9.9999998e-05 0.060418882
v 0.99225838 -0.00017999999 0.060418882
v 0.98843239 -0.00017999999 0.059715219
v 0.98458633 -0.00017999999 0.059131117
v 0.9329007 -9.9999998e-05 0.063266845
v 0.93242615 -9.9999998e-05 0.063652225
v 0.93225441 -9.9999998e-05 0.063909144
v 0.93218704 -9.9999998e-05 0.064208884
v 0.93218704 -0.00017999999 0.064208884
v 0.93225441 -0.00017999999 0.063909144
v 0.93242615 -0.00017999999 0.063652225
v 0.9329007 -0.00017999999 0.063266845
v 0.93788925 -9.9999998e-05 0.064515758
v 0.93683876 -9.9999998e-05 0.063756599
v 0.93560371 -9.9999998e-05 0.063211536
v 0.93494202 -9.9999998e-05 0.0630586
v 0.93426422 -9.9999998e-05 0.063006358
v 0.93358047 -9.9999998e-05 0.063070531
v 0.9329007 -9.9999998e-05 0.063266845
v 0.9329007 -0.00017999999 0.063266845
v 0.93358047 -0.00017999999 0.063070531
v 0.93426422 -0.00017999999 0.063006358
v 0.93494202 -0.00017999999 0.0630586
v 0.93560371 -0.00017999999 0.063211536
v 0.93683876 -0.00017999999 0.063756599
v 0.93788925 -0.00017999999 0.064515758
v 0.9965786 -9.9999998e-05 0.063189936
v 0.99355217 -9.9999998e-05 0.062632251
v 0.99355217 -0.00017999999 0.062632251
v 0.9965786 -0.00017999999 0.063189936
v 0.99225838 -9.9999998e-05 0.060418882
v 0.99606056 -9.9999998e-05 0.061241436
v 0.99983528 -9.9999998e-05 0.062182074
v 0.99983528 -0.00017999999 0.062182074
v 0.99606056 -0.00017999999 0.061241436
v 0.99225838 -0.00017999999 0.060418882
v 0.93218704 -9.9999998e-05 0.064208884
v 0.93223755 -9.9999998e-05 0.064476166
v 0.93223755 -0.00017999999 0.064476166
v 0.93218704 -0.00017999999 0.064208884
v 0.93761803 -9.9999998e-05 0.064637079
v 0.93788925 -9.9999998e-05 0.064515758
v 0.93788925 -0.00017999999 0.064515758
v 0.93761803 -0.00017999999 0.064637079
v 0.99958549 -9.9999998e-05 0.063844914
v 0.9965786 -9.9999998e-05 0.063189936
v 0.9965786 -0.00017999999 0.063189936
v 0.99958549 -0.00017999999 0.063844914
v 0.99983528 -9.9999998e-05 0.062182074
v 0.99999229 -9.9999998e-05 0.062296262
v 0.99999229 -0.00017999999 0.062296262
v 0.99983528 -0.00017999999 0.062182074
v 0.93223755 -9.9999998e-05 0.064476166
v 0.93234947 -9.9999998e-05 0.064724083
v 0.93234947 -0.00017999999 0.064724083
v 0.93223755 -0.00017999999 0.064476166
v 0.99999229 -9.9999998e-05 0.062296262
v 0.99958549 -9.9999998e-05 0.063844914
v 0.99958549 -0.00017999999 0.063844914
v 0.99999229 -0.00017999999 0.062296262
v 0.93234947 -9.9999998e-05 0.064724083
v 0.93251656 -9.9999998e-05 0.064938736
v 0.93251656 -0.00017999999 0.064938736
v 0.93234947 -0.00017999999 0.064724083
v 0.94990822 -9.9999998e-05 0.083502522
v 0.9507637 -9.9999998e-05 0.085497503
v 0.9507637 -0.00017999999 0.085497503
v 0.94990822 -0.00017999999 0.083502522
v 0.93251656 -9.9999998e-05 0.064938736
v 0.93272942 -9.9999998e-05 0.065108104
v 0.93272942 -0.00017999999 0.065108104
v 0.93251656 -0.00017999999 0.064938736
v 0.9507637 -9.9999998e-05 0.085497503
v 0.95119537 -9.9999998e-05 0.086125975
v 0.9517334 -9.9999998e-05 0.086714296
v 0.95238251 -9.9999998e-05 0.087163467
v 0.95314735 -9.9999998e-05 0.087374439
v 0.95314735 -0.00017999999 0.087374439
v 0.95238251 -0.00017999999 0.087163467
v 0.9517334 -0.00017999999 0.086714296
v 0.95119537 -0.00017999999 0.086125975
v 0.9507637 -0.00017999999 0.085497503
v 0.93272942 -9.9999998e-05 0.065108104
v 0.93332558 -9.9999998e-05 0.065341063
v 0.93393784 -9.9999998e-05 0.06544096
v 0.93518707 -9.9999998e-05 0.065340934
v 0.93761803 -9.9999998e-05 0.064637079
v 0.93761803 -0.00017999999 0.064637079
v 0.93518707 -0.00017999999 0.065340934
v 0.93393784 -0.00017999999 0.06544096
v 0.93332558 -0.00017999999 0.065341063
v 0.93272942 -0.00017999999 0.065108104
v 0.93761803 -0.00017999999 0.064637079
v 0.93788925 -0.00017999999 0.064515758
v 0.93683876 -0.00017999999 0.063756599
v 0.93560371 -0.00017999999 0.063211536
v 0.93494202 -0.00017999999 0.0630586
v 0.93426422 -0.00017999999 0.063006358
v 0.93358047 -0.00017999999 0.063070531
v 0.9329007 -0.00017999999 0.063266845
v 0.93242615 -0.00017999999 0.063652225
v 0.93225441 -0.00017999999 0.063909144
v 0.93218704 -0.00017999999 0.064208884
v 0.93223755 -0.00017999999 0.064476166
v 0.93234947 -0.00017999999 0.064724083
v 0.93251656 -0.00017999999 0.064938736
v 0.93272942 -0.00017999999 0.065108104
v 0.93332558 -0.00017999999 0.065341063
v 0.93393784 -0.00017999999 0.06544096
v 0.93518707 -0.00017999999 0.065340934
v 0.94917755 -0.00017999999 0.081458492
v 0.94990822 -0.00017999999 0.083502522
v 0.9507637 -0.00017999999 0.085497503
v 0.95119537 -0.00017999999 0.086125975
v 0.9517334 -0.00017999999 0.086714296
v 0.95238251 -0.00017999999 0.087163467
v 0.95314735 -0.00017999999 0.087374439
v 0.95383606 -0.00017999999 0.087325373
v 0.95415298 -0.00017999999 0.087208843
v 0.95443909 -0.00017999999 0.086981926
v 0.95477005 -0.00017999999 0.086565952
v 0.95498558 -0.00017999999 0.086089506
v 0.95512871 -0.00017999999 0.085023804
v 0.95498405 -0.00017999999 0.083921976
v 0.95466751 -0.00017999999 0.082921171
v 0.9541787 -0.00017999999 0.081909094
v 0.95357521 -0.00017999999 0.080960884
v 0.95286537 -0.00017999999 0.080089464
v 0.95205887 -0.00017999999 0.079306712
v 0.95116653 -0.00017999999 0.07862329
v 0.95020073 -0.00017999999 0.07804852
v 0.94917442 -0.00017999999 0.077590232
v 0.94810173 -0.00017999999 0.077254677
v 0.94857468 -0.00017999999 0.079373217
v 0.99999229 -0.00017999999 0.062296262
v 0.99958549 -0.00017999999 0.063844914
v 0.9965786 -0.00017999999 0.063189936
v 0.99355217 -0.00017999999 0.062632251
v 0.99050934 -0.00017999999 0.062172437
v 0.98745323 -0.00017999999 0.06181097
v 0.98135147 -0.00017999999 0.061464825
v 0.97524147 -0.00017999999 0.061323204
v 0.96913025 -0.00017999999 0.061386275
v 0.96302452 -0.00017999999 0.061653967
v 0.95814125 -0.00017999999 0.062180448
v 0.95329697 -0.00017999999 0.062990723
v 0.94850822 -0.00017999999 0.064082031
v 0.9437912 -0.00017999999 0.065450664
v 0.94449661 -0.00017999999 0.066590099
v 0.94510025 -0.00017999999 0.067776537
v 0.94607941 -0.00017999999 0.070258975
v 0.9476664 -0.00017999999 0.075441966
v 0.94895897 -0.00017999999 0.075719604
v 0.95021278 -0.00017999999 0.07613903
v 0.9514122 -0.00017999999 0.076695056
v 0.9525425 -0.00017999999 0.07738081
v 0.95358963 -0.00017999999 0.078187809
v 0.95454079 -0.00017999999 0.079106083
v 0.95538406 -0.00017999999 0.080124273
v 0.95610909 -0.00017999999 0.081229782
v 0.9567234 -0.00017999999 0.082637157
v 0.95716438 -0.00017999999 0.08417098
v 0.95726494 -0.00017999999 0.084959593
v 0.95725616 -0.00017999999 0.085748959
v 0.95711609 -0.00017999999 0.086528788
v 0.95682274 -0.00017999999 0.087288799
v 0.95654671 -0.00017999999 0.087702045
v 0.95623001 -0.00017999999 0.088085041
v 0.95587593 -0.00017999999 0.08843379
v 0.9554882 -0.00017999999 0.088744678
v 0.95470711 -0.00017999999 0.089146614
v 0.95387093 -0.00017999999 0.089392328
v 0.95300018 -0.00017999999 0.089494858
v 0.95211525 -0.00017999999 0.089467258
v 0.95123665 -0.00017999999 0.089322577
v 0.9503849 -0.00017999999 0.089073858
v 0.94958054 -0.00017999999 0.08873414
v 0.94884399 -0.00017999999 0.088316479
v 0.947369 -0.00017999999 0.087335539
v 0.94619148 -0.00017999999 0.086147938
v 0.945261 -0.00017999999 0.084793243
v 0.94452721 -0.00017999999 0.083311014
v 0.94393951 -0.00017999999 0.081740799
v 0.94344765 -0.00017999999 0.080122156
v 0.94254944 -0.00017999999 0.07689784
v 0.94158852 -0.00017999999 0.076966887
v 0.94063408 -0.00017999999 0.077097354
v 0.93968987 -0.00017999999 0.077288699
v 0.93875992 -0.00017999999 0.07754014
v 0.93859093 -0.00017999999 0.077214575
v 0.93844948 -0.00017999999 0.076876111
v 0.93833664 -0.00017999999 0.076527085
v 0.93825317 -0.00017999999 0.076169906
v 0.93919655 -0.00017999999 0.07583158
v 0.94016121 -0.00017999999 0.075559783
v 0.94114243 -0.00017999999 0.075355835
v 0.94213554 -0.00017999999 0.075220728
v 0.94167389 -0.00017999999 0.073423333
v 0.94114723 -0.00017999999 0.071643901
v 0.94055626 -0.00017999999 0.069884787
v 0.93990173 -0.00017999999 0.068148313
v 0.93958771 -0.00017999999 0.067359715
v 0.93940598 -0.00017999999 0.066974111
v 0.93912384 -0.00017999999 0.066656752
v 0.93716309 -0.00017999999 0.067104354
v 0.93507378 -0.00017999999 0.067411456
v 0.93402786 -0.00017999999 0.067438302
v 0.93300598 -0.00017999999 0.067341204
v 0.9320269 -0.00017999999 0.067090554
v 0.93110939 -0.00017999999 0.066656752
v 0.93062439 -0.00017999999 0.066216002
v 0.93026474 -0.00017999999 0.065668154
v 0.93005325 -0.00017999999 0.065047874
v 0.9300032 -0.00017999999 0.064394436
v 0.93021759 -0.00017999999 0.063561416
v 0.93063477 -0.00017999999 0.062809181
v 0.93122787 -0.00017999999 0.06218616
v 0.93195869 -0.00017999999 0.061732464
v 0.93323349 -0.00017999999 0.061257167
v 0.93454895 -0.00017999999 0.061015792
v 0.93588257 -0.00017999999 0.060986671
v 0.93721214 -0.00017999999 0.061148152
v 0.93851524 -0.00017999999 0.061478572
v 0.93976959 -0.00017999999 0.061956267
v 0.94095291 -0.00017999999 0.062559581
v 0.94204277 -0.00017999999 0.063266845
v 0.94838005 -0.00017999999 0.061125851
v 0.95337318 -0.00017999999 0.059870248
v 0.95846863 -0.00017999999 0.05883677
v 0.96106331 -0.00017999999 0.058450165
v 0.96369385 -0.00017999999 0.058175292
v 0.96636375 -0.00017999999 0.058030887
v 0.96907639 -0.00017999999 0.058035684
v 0.96907639 -0.00017999999 0.058000002
v 0.97296516 -0.00017999999 0.05810132
v 0.97684898 -0.00017999999 0.058323779
v 0.98072395 -0.00017999999 0.058667154
v 0.98458633 -0.00017999999 0.059131117
v 0.98843239 -0.00017999999 0.059715219
v 0.99225838 -0.00017999999 0.060418882
v 0.99606056 -0.00017999999 0.061241436
v 0.99983528 -0.00017999999 0.062182074
v 0.95314735 -9.9999998e-05 0.087374439
v 0.95383606 -9.9999998e-05 0.087325373
v 0.95415298 -9.9999998e-05 0.087208843
v 0.95443909 -9.9999998e-05 0.086981926
v 0.95443909 -0.00017999999 0.086981926
v 0.95415298 -0.00017999999 0.087208843
v 0.95383606 -0.00017999999 0.087325373
v 0.95314735 -0.00017999999 0.087374439
v 0.94917755 -9.9999998e-05 0.081458492
v 0.94990822 -9.9999998e-05 0.083502522
v 0.94990822 -0.00017999999 0.083502522
v 0.94917755 -0.00017999999 0.081458492
v 0.95443909 -9.9999998e-05 0.086981926
v 0.95477005 -9.9999998e-05 0.086565952
v 0.95498558 -9.9999998e-05 0.086089506
v 0.95512871 -9.9999998e-05 0.085023804
v 0.95498405 -9.9999998e-05 0.083921976
v 0.95466751 -9.9999998e-05 0.082921171
v 0.95466751 -0.00017999999 0.082921171
v 0.95498405 -0.00017999999 0.083921976
v 0.95512871 -0.00017999999 0.085023804
v 0.95498558 -0.00017999999 0.086089506
v 0.95477005 -0.00017999999 0.086565952
v 0.95443909 -0.00017999999 0.086981926
v 0.93788925 -9.9999998e-05 0.064515758
v 0.93761803 -9.9999998e-05 0.064637079
v 0.93518707 -9.9999998e-05 0.065340934
v 0.93393784 -9.9999998e-05 0.06544096
v 0.93332558 -9.9999998e-05 0.065341063
v 0.93272942 -9.9999998e-05 0.065108104
v 0.93251656 -9.9999998e-05 0.064938736
v 0.93234947 -9.9999998e-05 0.064724083
v 0.93223755 -9.9999998e-05 0.064476166
v 0.93218704 -9.9999998e-05 0.064208884
v 0.93225441 -9.9999998e-05 0.063909144
v 0.93242615 -9.9999998e-05 0.063652225
v 0.9329007 -9.9999998e-05 0.063266845
v 0.93358047 -9.9999998e-05 0.063070531
v 0.93426422 -9.9999998e-05 0.063006358
v 0.93494202 -9.9999998e-05 0.0630586
v 0.93560371 -9.9999998e-05 0.063211536
v 0.93683876 -9.9999998e-05 0.063756599
v 0.94990822 -9.9999998e-05 0.083502522
v 0.94917755 -9.9999998e-05 0.081458492
v 0.94857468 -9.9999998e-05 0.079373217
v 0.94810173 -9.9999998e-05 0.077254677
v 0.94917442 -9.9999998e-05 0.077590232
v 0.95020073 -9.9999998e-05 0.07804852
v 0.95116653 -9.9999998e-05 0.07862329
v 0.95205887 -9.9999998e-05 0.079306712
v 0.95286537 -9.9999998e-05 0.080089464
v 0.95357521 -9.9999998e-05 0.080960884
v 0.9541787 -9.9999998e-05 0.081909094
v 0.95466751 -9.9999998e-05 0.082921171
v 0.95498405 -9.9999998e-05 0.083921976
v 0.95512871 -9.9999998e-05 0.085023804
v 0.95498558 -9.9999998e-05 0.086089506
v 0.95477005 -9.9999998e-05 0.086565952
v 0.95443909 -9.9999998e-05 0.086981926
v 0.95415298 -9.9999998e-05 0.087208843
v 0.95383606 -9.9999998e-05 0.087325373
v 0.95314735 -9.9999998e-05 0.087374439
v 0.95238251 -9.9999998e-05 0.087163467
v 0.9517334 -9.9999998e-05 0.086714296
v 0.95119537 -9.9999998e-05 0.086125975
v 0.9507637 -9.9999998e-05 0.085497503
v 0.99958549 -9.9999998e-05 0.063844914
v 0.99999229 -9.9999998e-05 0.062296262
v 0.99983528 -9.9999998e-05 0.062182074
v 0.99606056 -9.9999998e-05 0.061241436
v 0.99225838 -9.9999998e-05 0.060418882
v 0.98843239 -9.9999998e-05 0.059715219
v 0.98458633 -9.9999998e-05 0.059131117
v 0.98072395 -9.9999998e-05 0.058667154
v 0.97684898 -9.9999998e-05 0.058323779
v 0.97296516 -9.9999998e-05 0.05810132
v 0.96907639 -9.9999998e-05 0.058000002
v 0.96907639 -9.9999998e-05 0.058035684
v 0.96636375 -9.9999998e-05 0.058030887
v 0.96369385 -9.9999998e-05 0.058175292
v 0.96106331 -9.9999998e-05 0.058450165
v 0.95846863 -9.9999998e-05 0.05883677
v 0.95337318 -9.9999998e-05 0.059870248
v 0.94838005 -9.9999998e-05 0.061125851
v 0.94204277 -9.9999998e-05 0.063266845
v 0.94095291 -9.9999998e-05 0.062559581
v 0.93976959 -9.9999998e-05 0.061956267
v 0.93851524 -9.9999998e-05 0.061478572
v 0.93721214 -9.9999998e-05 0.061148152
v 0.93588257 -9.9999998e-05 0.060986671
v 0.93454895 -9.9999998e-05 0.061015792
v 0.93323349 -9.9999998e-05 0.061257167
v 0.93195869 -9.9999998e-05 0.061732464
v 0.93122787 -9.9999998e-05 0.06218616
v 0.93063477 -9.9999998e-05 0.062809181
v 0.93021759 -9.9999998e-05 0.063561416
v 0.9300032 -9.9999998e-05 0.064394436
v 0.93005325 -9.9999998e-05 0.065047874
v 0.93026474 -9.9999998e-05 0.065668154
v 0.93062439 -9.9999998e-05 0.066216002
v 0.93110939 -9.9999998e-05 0.066656752
v 0.9320269 -9.9999998e-05 0.067090554
v 0.93300598 -9.9999998e-05 0.067341204
v 0.93402786 -9.9999998e-05 0.067438302
v 0.93507378 -9.9999998e-05 0.067411456
v 0.93716309 -9.9999998e-05 0.067104354
v 0.93912384 -9.9999998e-05 0.066656752
v 0.93940598 -9.9999998e-05 0.066974111
v 0.93958771 -9.9999998e-05 0.067359715
v 0.93990173 -9.9999998e-05 0.068148313
v 0.94055626 -9.9999998e-05 0.069884787
v 0.94114723 -9.9999998e-05 0.071643901
v 0.94167389 -9.9999998e-05 0.073423333
v 0.94213554 -9.9999998e-05 0.075220728
v 0.94114243 -9.9999998e-05 0.075355835
v 0.94016121 -9.9999998e-05 0.075559783
v 0.93919655 -9.9999998e-05 0.07583158
v 0.93825317 -9.9999998e-05 0.076169906
v 0.93833664 -9.9999998e-05 0.076527085
v 0.93844948 -9.9999998e-05 0.076876111
v 0.93859093 -9.9999998e-05 0.077214575
v 0.93875992 -9.9999998e-05 0.07754014
v 0.93968987 -9.9999998e-05 0.077288699
v 0.94063408 -9.9999998e-05 0.077097354
v 0.94158852 -9.9999998e-05 0.076966887
v 0.94254944 -9.9999998e-05 0.07689784
v 0.94344765 -9.9999998e-05 0.080122156
v 0.94393951 -9.9999998e-05 0.081740799
v 0.94452721 -9.9999998e-05 0.083311014
v 0.945261 -9.9999998e-05 0.084793243
v 0.94619148 -9.9999998e-05 0.086147938
v 0.947369 -9.9999998e-05 0.087335539
v 0.94884399 -9.9999998e-05 0.088316479
v 0.94958054 -9.9999998e-05 0.08873414
v 0.9503849 -9.9999998e-05 0.089073858
v 0.95123665 -9.9999998e-05 0.089322577
v 0.95211525 -9.9999998e-05 0.089467258
v 0.95300018 -9.9999998e-05 0.089494858
v 0.95387093 -9.9999998e-05 0.089392328
v 0.95470711 -9.9999998e-05 0.089146614
v 0.9554882 -9.9999998e-05 0.088744678
v 0.95587593 -9.9999998e-05 0.08843379
v 0.95623001 -9.9999998e-05 0.088085041
v 0.95654671 -9.9999998e-05 0.087702045
v 0.95682274 -9.9999998e-05 0.087288799
v 0.95711609 -9.9999998e-05 0.086528788
v 0.95725616 -9.9999998e-05 0.085748959
v 0.95726494 -9.9999998e-05 0.084959593
v 0.95716438 -9.9999998e-05 0.08417098
v 0.9567234 -9.9999998e-05 0.082637157
v 0.95610909 -9.9999998e-05 0.081229782
v 0.95538406 -9.9999998e-05 0.080124273
v 0.95454079 -9.9999998e-05 0.079106083
v 0.95358963 -9.9999998e-05 0.078187809
v 0.9525425 -9.9999998e-05 0.07738081
v 0.9514122 -9.9999998e-05 0.076695056
v 0.95021278 -9.9999998e-05 0.07613903
v 0.94895897 -9.9999998e-05 0.075719604
v 0.9476664 -9.9999998e-05 0.075441966
v 0.94607941 -9.9999998e-05 0.070258975
v 0.94510025 -9.9999998e-05 0.067776537
v 0.94449661 -9.9999998e-05 0.066590099
v 0.9437912 -9.9999998e-05 0.065450664
v 0.94850822 -9.9999998e-05 0.064082031
v 0.95329697 -9.9999998e-05 0.062990723
v 0.95814125 -9.9999998e-05 0.062180448
v 0.96302452 -9.9999998e-05 0.061653967
v 0.96913025 -9.9999998e-05 0.061386275
v 0.97524147 -9.9999998e-05 0.061323204
v 0.98135147 -9.9999998e-05 0.061464825
v 0.98745323 -9.9999998e-05 0.06181097
v 0.99050934 -9.9999998e-05 0.062172437
v 0.99355217 -9.9999998e-05 0.062632251
v 0.9965786 -9.9999998e-05 0.063189936
v 0.95466751 -9.9999998e-05 0.082921171
v 0.9541787 -9.9999998e-05 0.081909094
v 0.95357521 -9.9999998e-05 0.080960884
v 0.95357521 -0.00017999999 0.080960884
v 0.9541787 -0.00017999999 0.081909094
v 0.95466751 -0.00017999999 0.082921171
v 0.95357521 -9.9999998e-05 0.080960884
v 0.95286537 -9.9999998e-05 0.080089464
v 0.95205887 -9.9999998e-05 0.079306712
v 0.95205887 -0.00017999999 0.079306712
v 0.95286537 -0.00017999999 0.080089464
v 0.95357521 -0.00017999999 0.080960884
v 0.95205887 -9.9999998e-05 0.079306712
v 0.95116653 -9.9999998e-05 0.07862329
v 0.95020073 -9.9999998e-05 0.07804852
v 0.95020073 -0.00017999999 0.07804852
v 0.95116653 -0.00017999999 0.07862329
v 0.95205887 -0.00017999999 0.079306712
v 0.95020073 -9.9999998e-05 0.07804852
v 0.94917442 -9.9999998e-05 0.077590232
v 0.94810173 -9.9999998e-05 0.077254677
v 0.94810173 -0.00017999999 0.077254677
v 0.94917442 -0.00017999999 0.077590232
v 0.95020073 -0.00017999999 0.07804852
v 0.94810173 -9.9999998e-05 0.077254677
v 0.94857468 -9.9999998e-05 0.079373217
v 0.94857468 -0.00017999999 0.079373217
v 0.94810173 -0.00017999999 0.077254677
v 0.94857468 -9.9999998e-05 0.079373217
v 0.94917755 -9.9999998e-05 0.081458492
v 0.94917755 -0.00017999999 0.081458492
v 0.94857468 -0.00017999999 0.079373217
f 1 2 4
f 4 2 3
f 5 6 8
f 8 6 7
f 9 10 12
f 12 10 11
f 13 14 16
f 16 14 15
f 17 18 20
f 20 18 19
f 21 22 24
f 24 22 23
f 25 26 28
f 28 26 27
f 29 30 32
f 32 30 31
f 33 34 36
f 36 34 35
f 37 38 40
f 40 38 39
f 41 42 44
f 44 42 43
f 45 46 60
f 60 46 59
f 59 46 47
f 59 47 58
f 58 47 48
f 58 48 57
f 57 48 49
f 57 49 56
f 56 49 50
f 56 50 55
f 55 50 51
f 55 51 54
f 54 51 52
f 54 52 53
f 61 62 64
f 64 62 63
f 65 66 82
f 82 66 81
f 81 66 67
f 81 67 80
f 80 67 68
f 80 68 79
f 79 68 69
f 79 69 78
f 78 69 70
f 78 70 77
f 77 70 71
f 77 71 76
f 76 71 72
f 76 72 75
f 75 72 73
f 75 73 74
f 83 84 86
f 86 84 85
f 87 88 90
f 90 88 89
f 91 92 94
f 94 92 93
f 95 96 98
f 98 96 97
f 99 100 102
f 102 100 101
f 103 104 106
f 106 104 105
f 107 108 110
f 110 108 109
f 111 112 114
f 114 112 113
f 115 116 122
f 122 116 121
f 121 116 117
f 121 117 120
f 120 117 118
f 120 118 119
f 123 124 136
f 136 124 135
f 135 124 125
f 135 125 134
f 134 125 126
f 134 126 133
f 133 126 127
f 133 127 132
f 132 127 128
f 132 128 131
f 131 128 129
f 131 129 130
f 137 138 150
f 150 138 149
f 149 138 139
f 149 139 148
f 148 139 140
f 148 140 147
f 147 140 141
f 147 141 146
f 146 141 142
f 146 142 145
f 145 142 143
f 145 143 144
f 151 152 156
f 156 152 155
f 155 152 153
f 155 153 154
f 157 158 160
f 160 158 159
f 161 162 166
f 166 162 165
f 165 162 163
f 165 163 164
f 167 168 170
f 170 168 169
f 171 172 176
f 176 172 175
f 175 172 173
f 175 173 174
f 177 178 180
f 180 178 179
f 181 182 186
f 186 182 185
f 185 182 183
f 185 183 184
f 187 188 190
f 190 188 189
f 191 192 200
f 200 192 199
f 199 192 193
f 199 193 198
f 198 193 194
f 198 194 197
f 197 194 195
f 197 195 196
f 201 202 204
f 204 202 203
f 205 206 208
f 208 206 207
f 209 210 212
f 212 210 211
f 213 214 216
f 216 214 215
f 217 218 220
f 220 218 219
f 221 222 224
f 224 222 223
f 225 226 228
f 228 226 227
f 229 230 232
f 232 230 231
f 233 234 250
f 250 234 249
f 249 234 235
f 249 235 248
f 248 235 236
f 248 236 247
f 247 236 237
f 247 237 246
f 246 237 238
f 246 238 245
f 245 238 239
f 245 239 244
f 244 239 240
f 244 240 243
f 243 240 241
f 243 241 242
f 251 252 254
f 254 252 253
f 255 256 258
f 258 256 257
f 259 260 262
f 262 260 261
f 263 264 276
f 276 264 275
f 275 264 265
f 275 265 274
f 274 265 266
f 274 266 273
f 273 266 267
f 273 267 272
f 272 267 268
f 272 268 271
f 271 268 269
f 271 269 270
f 277 278 280
f 280 278 279
f 281 282 284
f 284 282 283
f 285 286 288
f 288 286 287
f 289 290 294
f 294 290 293
f 293 290 291
f 293 291 292
f 295 296 298
f 298 296 297
f 299 300 304
f 304 300 303
f 303 300 301
f 303 301 302
f 305 306 308
f 308 306 307
f 309 310 314
f 314 310 313
f 313 310 311
f 313 311 312
f 315 316 322
f 322 316 321
f 321 316 317
f 321 317 320
f 320 317 318
f 320 318 319
f 323 324 336
f 336 324 335
f 335 324 325
f 335 325 334
f 334 325 326
f 334 326 333
f 333 326 327
f 333 327 332
f 332 327 328
f 332 328 331
f 331 328 329
f 331 329 330
f 337 338 340
f 340 338 339
f 341 342 346
f 346 342 345
f 345 342 343
f 345 343 344
f 347 348 350
f 350 348 349
f 351 352 354
f 354 352 353
f 355 356 358
f 358 356 357
f 359 360 362
f 362 360 361
f 363 364 366
f 366 364 365
f 367 368 370
f 370 368 369
f 371 372 374
f 374 372 373
f 375 376 378
f 378 376 377
f 379 380 382
f 382 380 381
f 383 384 392
f 392 384 391
f 391 384 385
f 391 385 390
f 390 385 386
f 390 386 389
f 389 386 387
f 389 387 388
f 393 394 402
f 402 394 401
f 401 394 395
f 401 395 400
f 400 395 396
f 400 396 399
f 399 396 397
f 399 397 398
f 420 403 514
f 514 403 404
f 514 404 458
f 458 404 536
f 458 536 457
f 457 536 537
f 457 537 456
f 456 537 538
f 456 538 455
f 455 538 539
f 455 539 454
f 454 539 540
f 454 540 541
f 536 404 535
f 535 404 405
f 535 405 534
f 534 405 406
f 534 406 533
f 533 406 532
f 532 406 407
f 532 407 531
f 531 407 530
f 530 407 408
f 530 408 529
f 529 408 528
f 528 408 409
f 528 409 527
f 527 409 410
f 527 410 526
f 526 410 411
f 526 411 525
f 525 411 412
f 525 412 413
f 525 413 524
f 524 413 414
f 524 414 523
f 523 414 415
f 523 415 416
f 523 416 522
f 522 416 417
f 522 417 521
f 521 417 418
f 521 418 520
f 520 418 419
f 520 419 519
f 519 419 518
f 518 419 517
f 517 419 516
f 516 419 420
f 516 420 515
f 515 420 514
f 422 492 421
f 421 492 493
f 421 493 494
f 492 422 491
f 491 422 423
f 491 423 490
f 490 423 424
f 490 424 489
f 489 424 425
f 489 425 488
f 488 425 426
f 488 426 487
f 487 426 486
f 486 426 427
f 486 427 485
f 485 427 484
f 484 427 483
f 483 427 482
f 482 427 481
f 481 427 480
f 480 427 428
f 480 428 479
f 479 428 478
f 478 428 429
f 478 429 477
f 477 429 430
f 477 430 476
f 476 430 431
f 476 431 475
f 475 431 432
f 475 432 474
f 474 432 433
f 474 433 473
f 473 433 472
f 472 433 434
f 472 434 471
f 471 434 435
f 471 435 436
f 471 436 470
f 470 436 437
f 470 437 469
f 469 437 438
f 469 438 468
f 468 438 439
f 468 439 467
f 467 439 440
f 467 440 466
f 466 440 441
f 466 441 465
f 465 441 442
f 465 442 464
f 464 442 443
f 464 443 463
f 463 443 462
f 462 443 495
f 462 495 507
f 507 495 506
f 506 495 496
f 506 496 505
f 505 496 497
f 505 497 504
f 504 497 502
f 504 502 503
f 495 443 494
f 494 443 444
f 494 444 421
f 446 447 445
f 445 447 552
f 552 447 551
f 551 447 448
f 551 448 550
f 550 448 449
f 550 449 549
f 549 449 450
f 549 450 548
f 548 450 451
f 548 451 547
f 547 451 452
f 547 452 546
f 546 452 545
f 545 452 453
f 545 453 543
f 543 453 542
f 542 453 454
f 542 454 541
f 458 459 514
f 514 459 513
f 513 459 512
f 512 459 460
f 512 460 511
f 511 460 510
f 510 460 461
f 510 461 509
f 509 461 508
f 508 461 462
f 508 462 507
f 502 497 501
f 501 497 498
f 501 498 500
f 500 498 499
f 543 544 545
f 553 554 560
f 560 554 559
f 559 554 555
f 559 555 558
f 558 555 556
f 558 556 557
f 561 562 564
f 564 562 563
f 565 566 576
f 576 566 575
f 575 566 567
f 575 567 574
f 574 567 568
f 574 568 573
f 573 568 569
f 573 569 572
f 572 569 570
f 572 570 571
f 578 659 577
f 577 659 715
f 577 715 637
f 637 715 716
f 637 716 636
f 636 716 717
f 636 717 635
f 635 717 718
f 635 718 634
f 634 718 719
f 634 719 633
f 633 719 632
f 632 719 631
f 631 719 720
f 631 720 630
f 630 720 628
f 630 628 629
f 578 579 659
f 659 579 658
f 658 579 657
f 657 579 580
f 657 580 656
f 656 580 655
f 655 580 654
f 654 580 653
f 653 580 581
f 653 581 652
f 652 581 582
f 652 582 651
f 651 582 583
f 651 583 650
f 650 583 584
f 650 584 585
f 650 585 649
f 649 585 586
f 649 586 648
f 648 586 587
f 648 587 588
f 648 588 647
f 647 588 589
f 647 589 646
f 646 589 590
f 646 590 645
f 645 590 591
f 645 591 644
f 644 591 643
f 643 591 592
f 643 592 642
f 642 592 641
f 641 592 593
f 641 593 640
f 640 593 639
f 639 593 594
f 639 594 638
f 638 594 577
f 638 577 637
f 596 681 595
f 595 681 682
f 595 682 618
f 618 682 683
f 618 683 617
f 617 683 684
f 617 684 616
f 616 684 685
f 616 685 615
f 615 685 686
f 615 686 687
f 597 679 596
f 596 679 680
f 596 680 681
f 597 598 679
f 679 598 678
f 678 598 711
f 678 711 666
f 666 711 665
f 665 711 712
f 665 712 664
f 664 712 663
f 663 712 713
f 663 713 662
f 662 713 661
f 661 713 714
f 661 714 660
f 660 714 659
f 659 714 715
f 599 709 598
f 598 709 710
f 598 710 711
f 709 599 708
f 708 599 600
f 708 600 707
f 707 600 601
f 707 601 706
f 706 601 602
f 706 602 705
f 705 602 603
f 705 603 704
f 704 603 604
f 704 604 703
f 703 604 605
f 703 605 702
f 702 605 606
f 702 606 607
f 702 607 701
f 701 607 608
f 701 608 700
f 700 608 699
f 699 608 609
f 699 609 698
f 698 609 610
f 698 610 697
f 697 610 611
f 697 611 696
f 696 611 612
f 696 612 695
f 695 612 613
f 695 613 694
f 694 613 693
f 693 613 614
f 693 614 692
f 692 614 691
f 691 614 690
f 690 614 689
f 689 614 688
f 688 614 687
f 687 614 615
f 619 620 726
f 726 620 621
f 726 621 622
f 726 622 725
f 725 622 623
f 725 623 724
f 724 623 624
f 724 624 723
f 723 624 625
f 723 625 722
f 722 625 626
f 722 626 721
f 721 626 627
f 721 627 628
f 666 667 678
f 678 667 677
f 677 667 668
f 677 668 676
f 676 668 669
f 676 669 671
f 671 669 670
f 671 672 676
f 676 672 675
f 675 672 673
f 675 673 674
f 720 721 628
f 727 728 732
f 732 728 731
f 731 728 729
f 731 729 730
f 733 734 738
f 738 734 737
f 737 734 735
f 737 735 736
f 739 740 744
f 744 740 743
f 743 740 741
f 743 741 742
f 745 746 750
f 750 746 749
f 749 746 747
f 749 747 748
f 751 752 754
f 754 752 753
f 755 756 758
f 758 756 757
