v 0.17549999 0.3 0.069000001
v 0.17569031 0.3 0.068043289
v 0.17623222 0.3 0.067232232
v 0.17704329 0.3 0.066690302
v 0.17799999 0.3 0.066500001
v 0.1789567 0.3 0.066690302
v 0.17976776 0.3 0.067232232
v 0.1803097 0.3 0.068043289
v 0.18049999 0.3 0.069000001
v 0.1803097 0.3 0.069956708
v 0.17976776 0.3 0.070767765
v 0.1789567 0.3 0.0713097
v 0.17799999 0.3 0.071500001
v 0.17704329 0.3 0.0713097
v 0.17623222 0.3 0.070767765
v 0.17569031 0.3 0.069956708
v 0.17549999 0.3008 0.069000001
v 0.17569031 0.3008 0.069956708
v 0.17623222 0.3008 0.070767765
v 0.17704329 0.3008 0.0713097
v 0.17799999 0.3008 0.071500001
v 0.1789567 0.3008 0.0713097
v 0.17976776 0.3008 0.070767765
v 0.1803097 0.3008 0.069956708
v 0.18049999 0.3008 0.069000001
v 0.1803097 0.3008 0.068043289
v 0.17976776 0.3008 0.067232232
v 0.1789567 0.3008 0.066690302
v 0.17799999 0.3008 0.066500001
v 0.17704329 0.3008 0.066690302
v 0.17623222 0.3008 0.067232232
v 0.17569031 0.3008 0.068043289
v 0.17549999 0.3008 0.069000001
v 0.17569031 0.3008 0.068043289
v 0.17623222 0.3008 0.067232232
v 0.17704329 0.3008 0.066690302
v 0.17799999 0.3008 0.066500001
v 0.1789567 0.3008 0.066690302
v 0.17976776 0.3008 0.067232232
v 0.1803097 0.3008 0.068043289
v 0.18049999 0.3008 0.069000001
v 0.1803097 0.3008 0.069956708
v 0.17976776 0.3008 0.070767765
v 0.1789567 0.3008 0.0713097
v 0.17799999 0.3008 0.071500001
v 0.17704329 0.3008 0.0713097
v 0.17623222 0.3008 0.070767765
v 0.17569031 0.3008 0.069956708
v 0.17549999 0.3 0.069000001
v 0.17569031 0.3 0.069956708
v 0.17623222 0.3 0.070767765
v 0.17704329 0.3 0.0713097
v 0.17799999 0.3 0.071500001
v 0.1789567 0.3 0.0713097
v 0.17976776 0.3 0.070767765
v 0.1803097 0.3 0.069956708
v 0.18049999 0.3 0.069000001
v 0.1803097 0.3 0.068043289
v 0.17976776 0.3 0.067232232
v 0.1789567 0.3 0.066690302
v 0.17799999 0.3 0.066500001
v 0.17704329 0.3 0.066690302
v 0.17623222 0.3 0.067232232
v 0.17569031 0.3 0.068043289
v 0.17549999 0.3 0.069000001
v 0.17549999 0.3008 0.069000001
f 2 8 1
f 1 8 9
f 1 9 16
f 16 9 10
f 16 10 15
f 15 10 11
f 15 11 14
f 14 11 12
f 14 12 13
f 8 2 7
f 7 2 3
f 7 3 6
f 6 3 4
f 6 4 5
f 18 24 17
f 17 24 25
f 17 25 32
f 32 25 26
f 32 26 31
f 31 26 27
f 31 27 30
f 30 27 28
f 30 28 29
f 24 18 23
f 23 18 19
f 23 19 22
f 22 19 20
f 22 20 21
f 34 64 33
f 33 64 65
f 66 49 48
f 48 49 50
f 48 50 47
f 47 50 51
f 47 51 46
f 46 51 52
f 46 52 45
f 45 52 53
f 45 53 44
f 44 53 54
f 44 54 43
f 43 54 55
f 43 55 42
f 42 55 56
f 42 56 41
f 41 56 57
f 41 57 40
f 40 57 58
f 40 58 39
f 39 58 59
f 39 59 38
f 38 59 60
f 38 60 37
f 37 60 61
f 37 61 36
f 36 61 62
f 36 62 35
f 35 62 63
f 35 63 34
f 34 63 64
