v 0.136 0.3016 0.117
v 0.136 0.30360001 0.117
v 0.16299999 0.30360001 0.117
v 0.16299999 0.3016 0.117
v 0.16299999 0.30360001 0.117
v 0.136 0.30360001 0.117
v 0.136 0.30360001 0.126
v 0.16299999 0.30360001 0.126
v 0.16299999 0.3016 0.117
v 0.16299999 0.30360001 0.117
v 0.16299999 0.30360001 0.126
v 0.16299999 0.3016 0.126
v 0.136 0.30360001 0.117
v 0.136 0.3016 0.117
v 0.136 0.3016 0.126
v 0.136 0.30360001 0.126
v 0.136 0.30360001 0.126
v 0.136 0.3016 0.126
v 0.16299999 0.3016 0.126
v 0.16299999 0.30360001 0.126
v 0.136 0.3016 0.117
v 0.16299999 0.3016 0.117
v 0.16299999 0.3016 0.126
v 0.136 0.3016 0.126
f 2 3 1
f 1 3 4
f 5 6 8
f 8 6 7
f 9 10 12
f 12 10 11
f 13 14 16
f 16 14 15
f 18 19 17
f 17 19 20
f 21 22 24
f 24 22 23
