v -0.18167257 -0.29832001 0.1005
v -0.17990791 -0.29832001 0.1005
v -0.17481787 -0.29832001 0.11349999
v -0.17657368 -0.29832001 0.11349999
v -0.18008526 -0.29832001 0.10405593
v -0.18078581 -0.29832001 0.10192769
v -0.18146862 -0.29832001 0.10405593
v -0.1848472 -0.29832001 0.11349999
v -0.1867094 -0.29832001 0.11349999
v -0.17990791 -0.2982 0.1005
v -0.17481787 -0.2982 0.11349999
v -0.17481787 -0.29832001 0.11349999
v -0.17990791 -0.29832001 0.1005
v -0.18167257 -0.2982 0.1005
v -0.17990791 -0.2982 0.1005
v -0.17990791 -0.29832001 0.1005
v -0.18167257 -0.29832001 0.1005
v -0.17481787 -0.2982 0.11349999
v -0.17657368 -0.2982 0.11349999
v -0.17657368 -0.29832001 0.11349999
v -0.17481787 -0.29832001 0.11349999
v -0.17990791 -0.2982 0.1005
v -0.18167257 -0.2982 0.1005
v -0.1867094 -0.2982 0.11349999
v -0.1848472 -0.2982 0.11349999
v -0.18146862 -0.2982 0.10405593
v -0.18078581 -0.2982 0.10192769
v -0.18008526 -0.2982 0.10405593
v -0.17657368 -0.2982 0.11349999
v -0.17481787 -0.2982 0.11349999
v -0.17657368 -0.2982 0.11349999
v -0.18008526 -0.2982 0.10405593
v -0.18008526 -0.29832001 0.10405593
v -0.17657368 -0.29832001 0.11349999
v -0.18008526 -0.2982 0.10405593
v -0.18078581 -0.2982 0.10192769
v -0.18078581 -0.29832001 0.10192769
v -0.18008526 -0.29832001 0.10405593
v -0.18078581 -0.2982 0.10192769
v -0.18146862 -0.2982 0.10405593
v -0.18146862 -0.29832001 0.10405593
v -0.18078581 -0.29832001 0.10192769
v -0.18146862 -0.2982 0.10405593
v -0.1848472 -0.2982 0.11349999
v -0.1848472 -0.29832001 0.11349999
v -0.18146862 -0.29832001 0.10405593
v -0.1848472 -0.2982 0.11349999
v -0.1867094 -0.2982 0.11349999
v -0.1867094 -0.29832001 0.11349999
v -0.1848472 -0.29832001 0.11349999
v -0.1867094 -0.2982 0.11349999
v -0.18167257 -0.2982 0.1005
v -0.18167257 -0.29832001 0.1005
v -0.1867094 -0.29832001 0.11349999
f 2 6 1
f 1 6 7
f 1 7 9
f 9 7 8
f 6 2 5
f 5 2 3
f 5 3 4
f 10 11 13
f 13 11 12
f 14 15 17
f 17 15 16
f 18 19 21
f 21 19 20
f 23 27 22
f 22 27 28
f 22 28 30
f 30 28 29
f 27 23 26
f 26 23 24
f 26 24 25
f 31 32 34
f 34 32 33
f 35 36 38
f 38 36 37
f 39 40 42
f 42 40 41
f 43 44 46
f 46 44 45
f 47 48 50
f 50 48 49
f 51 52 54
f 54 52 53
