v -0.102 -0.153 0.31299999
v -0.108 -0.153 0.31299999
v -0.108 -0.147 0.31299999
v -0.102 -0.147 0.31299999
v -0.108 -0.153 0.32400002
v -0.108 -0.153 0.31299999
v -0.102 -0.153 0.31299999
v -0.102 -0.153 0.32400002
v -0.102 -0.147 0.32400002
v -0.102 -0.147 0.31299999
v -0.108 -0.147 0.31299999
v -0.108 -0.147 0.32400002
v -0.108 -0.153 0.32400002
v -0.102 -0.153 0.32400002
v -0.102 -0.147 0.32400002
v -0.108 -0.147 0.32400002
v -0.108 -0.147 0.32400002
v -0.108 -0.147 0.31299999
v -0.108 -0.153 0.31299999
v -0.108 -0.153 0.32400002
v -0.102 -0.153 0.32400002
v -0.102 -0.153 0.31299999
v -0.102 -0.147 0.31299999
v -0.102 -0.147 0.32400002
f 2 3 1
f 1 3 4
f 5 6 8
f 8 6 7
f 9 10 12
f 12 10 11
f 14 15 13
f 13 15 16
f 17 18 20
f 20 18 19
f 21 22 24
f 24 22 23
