v -0.0060000002 -0.26700001 0.044000001
v -0.0060000002 -0.26700001 0.039000001
v 0.001 -0.26700001 0.039000001
v 0.001 -0.26700001 0.044000001
v 0.001 0.28299999 0.039000001
v 0.001 -0.26700001 0.039000001
v -0.0060000002 -0.26700001 0.039000001
v -0.0060000002 0.28299999 0.039000001
v 0.001 -0.26700001 0.044000001
v 0.001 0.28299999 0.044000001
v -0.0060000002 0.28299999 0.044000001
v -0.0060000002 -0.26700001 0.044000001
v 0.001 0.28299999 0.044000001
v 0.001 0.28299999 0.039000001
v -0.0060000002 0.28299999 0.039000001
v -0.0060000002 0.28299999 0.044000001
v 0.001 -0.26700001 0.044000001
v 0.001 -0.26700001 0.039000001
v 0.001 0.28299999 0.039000001
v 0.001 0.28299999 0.044000001
v -0.0060000002 0.28299999 0.044000001
v -0.0060000002 0.28299999 0.039000001
v -0.0060000002 -0.26700001 0.039000001
v -0.0060000002 -0.26700001 0.044000001
f 1 2 4
f 4 2 3
f 6 7 5
f 5 7 8
f 10 11 9
f 9 11 12
f 13 14 16
f 16 14 15
f 17 18 20
f 20 18 19
f 21 22 24
f 24 22 23
