v 0.48 0.62799999 0.24
v 0.48 0.62799999 0.083999996
v 0.54 0.62799999 0.083999996
v 0.54 0.62799999 0.24
v 0.48 0.69400002 0.24
v 0.48 0.69400002 0.083999996
v 0.48 0.62799999 0.083999996
v 0.48 0.62799999 0.24
v 0.53099998 0.685 0.24
v 0.48900002 0.685 0.24
v 0.48900002 0.685 0.083999996
v 0.53099998 0.685 0.083999996
v 0.53099998 0.63700001 0.24
v 0.53099998 0.685 0.24
v 0.53099998 0.685 0.083999996
v 0.53099998 0.63700001 0.083999996
v 0.48900002 0.63700001 0.083999996
v 0.53099998 0.63700001 0.083999996
v 0.53099998 0.685 0.083999996
v 0.48900002 0.685 0.083999996
v 0.54 0.69400002 0.083999996
v 0.54 0.62799999 0.083999996
v 0.48 0.62799999 0.083999996
v 0.48 0.69400002 0.083999996
v 0.53099998 0.63700001 0.24
v 0.48900002 0.63700001 0.24
v 0.48900002 0.685 0.24
v 0.53099998 0.685 0.24
v 0.54 0.62799999 0.24
v 0.54 0.69400002 0.24
v 0.48 0.69400002 0.24
v 0.48 0.62799999 0.24
v 0.48900002 0.63700001 0.24
v 0.53099998 0.63700001 0.24
v 0.53099998 0.63700001 0.083999996
v 0.48900002 0.63700001 0.083999996
v 0.54 0.69400002 0.24
v 0.54 0.69400002 0.083999996
v 0.48 0.69400002 0.083999996
v 0.48 0.69400002 0.24
v 0.54 0.62799999 0.24
v 0.54 0.62799999 0.083999996
v 0.54 0.69400002 0.083999996
v 0.54 0.69400002 0.24
v 0.48900002 0.685 0.24
v 0.48900002 0.63700001 0.24
v 0.48900002 0.63700001 0.083999996
v 0.48900002 0.685 0.083999996
f 1 2 4
f 4 2 3
f 5 6 8
f 8 6 7
f 10 11 9
f 9 11 12
f 14 15 13
f 13 15 16
f 20 17 23
f 23 17 18
f 23 18 22
f 22 18 19
f 22 19 21
f 21 19 20
f 21 20 24
f 24 20 23
f 28 25 29
f 29 25 26
f 29 26 32
f 32 26 27
f 32 27 31
f 31 27 28
f 31 28 30
f 30 28 29
f 34 35 33
f 33 35 36
f 37 38 40
f 40 38 39
f 41 42 44
f 44 42 43
f 46 47 45
f 45 47 48
