v -0.066999998 -0.0255 0.36200001
v -0.066999998 -0.0255 0.33099998
v -0.06 -0.0255 0.33099998
v -0.06 -0.0255 0.36200001
v -0.066999998 -0.021500001 0.33889999
v -0.066999998 -0.020675621 0.33871185
v -0.066999998 -0.02001452 0.33818462
v -0.066999998 -0.019647636 0.33742279
v -0.066999998 -0.019647636 0.33657722
v -0.066999998 -0.02001452 0.33581535
v -0.066999998 -0.020675621 0.33528816
v -0.066999998 -0.021500001 0.33509998
v -0.066999998 -0.022324378 0.33528816
v -0.066999998 -0.02298548 0.33581535
v -0.066999998 -0.023352363 0.33657722
v -0.066999998 -0.023352363 0.33742279
v -0.066999998 -0.02298548 0.33818462
v -0.066999998 -0.022324378 0.33871185
v -0.06 -0.021500001 0.33889999
v -0.06 -0.022324378 0.33871185
v -0.06 -0.02298548 0.33818462
v -0.06 -0.023352363 0.33742279
v -0.06 -0.023352363 0.33657722
v -0.06 -0.02298548 0.33581535
v -0.06 -0.022324378 0.33528816
v -0.06 -0.021500001 0.33509998
v -0.06 -0.020675621 0.33528816
v -0.06 -0.02001452 0.33581535
v -0.06 -0.019647636 0.33657722
v -0.06 -0.019647636 0.33742279
v -0.06 -0.02001452 0.33818462
v -0.06 -0.020675621 0.33871185
v -0.06 -0.021500001 0.33889999
v -0.066999998 -0.021500001 0.33889999
v -0.06 -0.0255 0.36200001
v -0.06 -0.0175 0.36200001
v -0.066999998 -0.0175 0.36200001
v -0.066999998 -0.0255 0.36200001
v -0.06 -0.0175 0.36200001
v -0.06 -0.0175 0.33099998
v -0.066999998 -0.0175 0.33099998
v -0.066999998 -0.0175 0.36200001
v -0.06 -0.0175 0.33099998
v -0.06 -0.0255 0.33099998
v -0.066999998 -0.0255 0.33099998
v -0.066999998 -0.0175 0.33099998
v -0.06 -0.021500001 0.33889999
v -0.06 -0.020675621 0.33871185
v -0.06 -0.02001452 0.33818462
v -0.06 -0.019647636 0.33742279
v -0.06 -0.019647636 0.33657722
v -0.06 -0.02001452 0.33581535
v -0.06 -0.020675621 0.33528816
v -0.06 -0.021500001 0.33509998
v -0.06 -0.022324378 0.33528816
v -0.06 -0.02298548 0.33581535
v -0.06 -0.023352363 0.33657722
v -0.06 -0.023352363 0.33742279
v -0.06 -0.02298548 0.33818462
v -0.06 -0.022324378 0.33871185
v -0.06 -0.0255 0.36200001
v -0.06 -0.0255 0.33099998
v -0.06 -0.0175 0.33099998
v -0.06 -0.0175 0.36200001
v -0.066999998 -0.021500001 0.33889999
v -0.066999998 -0.022324378 0.33871185
v -0.066999998 -0.02298548 0.33818462
v -0.066999998 -0.023352363 0.33742279
v -0.066999998 -0.023352363 0.33657722
v -0.066999998 -0.02298548 0.33581535
v -0.066999998 -0.022324378 0.33528816
v -0.066999998 -0.021500001 0.33509998
v -0.066999998 -0.020675621 0.33528816
v -0.066999998 -0.02001452 0.33581535
v -0.066999998 -0.019647636 0.33657722
v -0.066999998 -0.019647636 0.33742279
v -0.066999998 -0.02001452 0.33818462
v -0.066999998 -0.020675621 0.33871185
v -0.066999998 -0.0175 0.36200001
v -0.066999998 -0.0175 0.33099998
v -0.066999998 -0.0255 0.33099998
v -0.066999998 -0.0255 0.36200001
f 1 2 4
f 4 2 3
f 6 32 5
f 5 32 33
f 34 19 18
f 18 19 20
f 18 20 17
f 17 20 21
f 17 21 16
f 16 21 22
f 16 22 15
f 15 22 23
f 15 23 14
f 14 23 24
f 14 24 13
f 13 24 25
f 13 25 12
f 12 25 26
f 12 26 11
f 11 26 27
f 11 27 10
f 10 27 28
f 10 28 9
f 9 28 29
f 9 29 8
f 8 29 30
f 8 30 7
f 7 30 31
f 7 31 6
f 6 31 32
f 36 37 35
f 35 37 38
f 39 40 42
f 42 40 41
f 44 45 43
f 43 45 46
f 48 64 47
f 47 64 61
f 47 61 60
f 60 61 59
f 59 61 58
f 58 61 62
f 58 62 57
f 57 62 56
f 56 62 55
f 55 62 54
f 54 62 63
f 54 63 53
f 53 63 52
f 52 63 51
f 51 63 50
f 50 63 64
f 50 64 49
f 49 64 48
f 66 82 65
f 65 82 79
f 65 79 78
f 78 79 77
f 77 79 76
f 76 79 80
f 76 80 75
f 75 80 74
f 74 80 73
f 73 80 72
f 72 80 81
f 72 81 71
f 71 81 70
f 70 81 69
f 69 81 68
f 68 81 82
f 68 82 67
f 67 82 66
