v 0.012474999 0.0047683999 0.095310001
v 0.012474999 0.0047683999 0.020309999
v 0.012474999 0.0057683998 0.020309999
v 0.012474999 0.0057683998 0.095310001
v 0.012474999 0.0057683998 0.095310001
v 0.012474999 0.0057683998 0.020309999
v -0.012474999 0.0057683998 0.020309999
v -0.012474999 0.0057683998 0.095310001
v 0.012474999 0.0047683999 0.095310001
v 0.012474999 0.0057683998 0.095310001
v -0.012474999 0.0057683998 0.095310001
v -0.012474999 0.0047683999 0.095310001
v -0.012474999 0.0047683999 0.095310001
v -0.012474999 0.0047683999 0.020309999
v 0.012474999 0.0047683999 0.020309999
v 0.012474999 0.0047683999 0.095310001
v 0.012474999 0.0057683998 0.020309999
v 0.012474999 0.0047683999 0.020309999
v -0.012474999 0.0047683999 0.020309999
v -0.012474999 0.0057683998 0.020309999
v -0.012474999 0.0057683998 0.095310001
v -0.012474999 0.0057683998 0.020309999
v -0.012474999 0.0047683999 0.020309999
v -0.012474999 0.0047683999 0.095310001
f 1 2 4
f 4 2 3
f 5 6 8
f 8 6 7
f 10 11 9
f 9 11 12
f 13 14 16
f 16 14 15
f 18 19 17
f 17 19 20
f 21 22 24
f 24 22 23
