v 0.29200001 0.096000004 0.42360001
v 0.29200001 0.096125584 0.42360394
v 0.29200001 0.096250668 0.42361576
v 0.29200001 0.09637476 0.42363541
v 0.29200001 0.096497383 0.42366283
v 0.29200001 0.096618032 0.42369789
v 0.29200001 0.09673625 0.42374046
v 0.29200001 0.096851559 0.42379036
v 0.29200001 0.096963511 0.42384739
v 0.29200001 0.097071657 0.42391136
v 0.29200001 0.09717557 0.42398197
v 0.29200001 0.097274847 0.42405899
v 0.29200001 0.097369099 0.42414207
v 0.29200001 0.097457933 0.42423092
v 0.29200001 0.097541027 0.42432514
v 0.29200001 0.097618036 0.42442444
v 0.29200001 0.097688656 0.42452835
v 0.29200001 0.097752609 0.4246365
v 0.29200001 0.097809658 0.42474846
v 0.29200001 0.097859554 0.42486374
v 0.29200001 0.097902117 0.42498196
v 0.29200001 0.097937164 0.42510262
v 0.29200001 0.097964573 0.42522522
v 0.29200001 0.097984228 0.42534935
v 0.29200001 0.097996054 0.42547443
v 0.29200001 0.098000002 0.42560001
v 0.29200001 0.097996054 0.42572559
v 0.29200001 0.097984228 0.42585068
v 0.29200001 0.097964573 0.42597477
v 0.29200001 0.097937164 0.42609737
v 0.29200001 0.097902117 0.42621803
v 0.29200001 0.097859554 0.42633625
v 0.29200001 0.097809658 0.42645157
v 0.29200001 0.097752609 0.42656349
v 0.29200001 0.097688656 0.42667164
v 0.29200001 0.097618036 0.42677559
v 0.29200001 0.097541027 0.42687485
v 0.29200001 0.097457933 0.42696911
v 0.29200001 0.097369099 0.42705795
v 0.29200001 0.097274847 0.42714104
v 0.29200001 0.09717557 0.42721802
v 0.29200001 0.097071657 0.42728867
v 0.29200001 0.096963511 0.4273526
v 0.29200001 0.096851559 0.42740967
v 0.29200001 0.09673625 0.42745956
v 0.29200001 0.096618032 0.4275021
v 0.29200001 0.096497383 0.42753716
v 0.29200001 0.09637476 0.42756458
v 0.29200001 0.096250668 0.42758423
v 0.29200001 0.096125584 0.42759605
v 0.29200001 0.096000004 0.42759998
v 0.29200001 0.095874414 0.42759605
v 0.29200001 0.095749331 0.42758423
v 0.29200001 0.095625238 0.42756458
v 0.29200001 0.095502625 0.42753716
v 0.29200001 0.095381966 0.4275021
v 0.29200001 0.095263748 0.42745956
v 0.29200001 0.095148439 0.42740967
v 0.29200001 0.095036497 0.4273526
v 0.29200001 0.09492835 0.42728867
v 0.29200001 0.094824429 0.42721802
v 0.29200001 0.094725151 0.42714104
v 0.29200001 0.094630909 0.42705795
v 0.29200001 0.094542065 0.42696911
v 0.29200001 0.094458971 0.42687485
v 0.29200001 0.094381962 0.42677559
v 0.29200001 0.094311342 0.42667164
v 0.29200001 0.094247389 0.42656349
v 0.29200001 0.09419035 0.42645157
v 0.29200001 0.094140444 0.42633625
v 0.29200001 0.094097891 0.42621803
v 0.29200001 0.094062834 0.42609737
v 0.29200001 0.094035425 0.42597477
v 0.29200001 0.09401577 0.42585068
v 0.29200001 0.094003944 0.42572559
v 0.29200001 0.093999996 0.42560001
v 0.29200001 0.094003944 0.42547443
v 0.29200001 0.09401577 0.42534935
v 0.29200001 0.094035425 0.42522522
v 0.29200001 0.094062834 0.42510262
v 0.29200001 0.094097891 0.42498196
v 0.29200001 0.094140444 0.42486374
v 0.29200001 0.09419035 0.42474846
v 0.29200001 0.094247389 0.4246365
v 0.29200001 0.094311342 0.42452835
v 0.29200001 0.094381962 0.42442444
v 0.29200001 0.094458971 0.42432514
v 0.29200001 0.094542065 0.42423092
v 0.29200001 0.094630909 0.42414207
v 0.29200001 0.094725151 0.42405899
v 0.29200001 0.094824429 0.42398197
v 0.29200001 0.09492835 0.42391136
v 0.29200001 0.095036497 0.42384739
v 0.29200001 0.095148439 0.42379036
v 0.29200001 0.095263748 0.42374046
v 0.29200001 0.095381966 0.42369789
v 0.29200001 0.095502625 0.42366283
v 0.29200001 0.095625238 0.42363541
v 0.29200001 0.095749331 0.42361576
v 0.29200001 0.095874414 0.42360394
v 0.27299999 0.096000004 0.42360001
v 0.27299999 0.096125584 0.42360394
v 0.27299999 0.096250668 0.42361576
v 0.27299999 0.09637476 0.42363541
v 0.27299999 0.096497383 0.42366283
v 0.27299999 0.096618032 0.42369789
v 0.27299999 0.09673625 0.42374046
v 0.27299999 0.096851559 0.42379036
v 0.27299999 0.096963511 0.42384739
v 0.27299999 0.097071657 0.42391136
v 0.27299999 0.09717557 0.42398197
v 0.27299999 0.097274847 0.42405899
v 0.27299999 0.097369099 0.42414207
v 0.27299999 0.097457933 0.42423092
v 0.27299999 0.097541027 0.42432514
v 0.27299999 0.097618036 0.42442444
v 0.27299999 0.097688656 0.42452835
v 0.27299999 0.097752609 0.4246365
v 0.27299999 0.097809658 0.42474846
v 0.27299999 0.097859554 0.42486374
v 0.27299999 0.097902117 0.42498196
v 0.27299999 0.097937164 0.42510262
v 0.27299999 0.097964573 0.42522522
v 0.27299999 0.097984228 0.42534935
v 0.27299999 0.097996054 0.42547443
v 0.27299999 0.098000002 0.42560001
v 0.27299999 0.097996054 0.42572559
v 0.27299999 0.097984228 0.42585068
v 0.27299999 0.097964573 0.42597477
v 0.27299999 0.097937164 0.42609737
v 0.27299999 0.097902117 0.42621803
v 0.27299999 0.097859554 0.42633625
v 0.27299999 0.097809658 0.42645157
v 0.27299999 0.097752609 0.42656349
v 0.27299999 0.097688656 0.42667164
v 0.27299999 0.097618036 0.42677559
v 0.27299999 0.097541027 0.42687485
v 0.27299999 0.097457933 0.42696911
v 0.27299999 0.097369099 0.42705795
v 0.27299999 0.097274847 0.42714104
v 0.27299999 0.09717557 0.42721802
v 0.27299999 0.097071657 0.42728867
v 0.27299999 0.096963511 0.4273526
v 0.27299999 0.096851559 0.42740967
v 0.27299999 0.09673625 0.42745956
v 0.27299999 0.096618032 0.4275021
v 0.27299999 0.096497383 0.42753716
v 0.27299999 0.09637476 0.42756458
v 0.27299999 0.096250668 0.42758423
v 0.27299999 0.096125584 0.42759605
v 0.27299999 0.096000004 0.42759998
v 0.27299999 0.095874414 0.42759605
v 0.27299999 0.095749331 0.42758423
v 0.27299999 0.095625238 0.42756458
v 0.27299999 0.095502625 0.42753716
v 0.27299999 0.095381966 0.4275021
v 0.27299999 0.095263748 0.42745956
v 0.27299999 0.095148439 0.42740967
v 0.27299999 0.095036497 0.4273526
v 0.27299999 0.09492835 0.42728867
v 0.27299999 0.094824429 0.42721802
v 0.27299999 0.094725151 0.42714104
v 0.27299999 0.094630909 0.42705795
v 0.27299999 0.094542065 0.42696911
v 0.27299999 0.094458971 0.42687485
v 0.27299999 0.094381962 0.42677559
v 0.27299999 0.094311342 0.42667164
v 0.27299999 0.094247389 0.42656349
v 0.27299999 0.09419035 0.42645157
v 0.27299999 0.094140444 0.42633625
v 0.27299999 0.094097891 0.42621803
v 0.27299999 0.094062834 0.42609737
v 0.27299999 0.094035425 0.42597477
v 0.27299999 0.09401577 0.42585068
v 0.27299999 0.094003944 0.42572559
v 0.27299999 0.093999996 0.42560001
v 0.27299999 0.094003944 0.42547443
v 0.27299999 0.09401577 0.42534935
v 0.27299999 0.094035425 0.42522522
v 0.27299999 0.094062834 0.42510262
v 0.27299999 0.094097891 0.42498196
v 0.27299999 0.094140444 0.42486374
v 0.27299999 0.09419035 0.42474846
v 0.27299999 0.094247389 0.4246365
v 0.27299999 0.094311342 0.42452835
v 0.27299999 0.094381962 0.42442444
v 0.27299999 0.094458971 0.42432514
v 0.27299999 0.094542065 0.42423092
v 0.27299999 0.094630909 0.42414207
v 0.27299999 0.094725151 0.42405899
v 0.27299999 0.094824429 0.42398197
v 0.27299999 0.09492835 0.42391136
v 0.27299999 0.095036497 0.42384739
v 0.27299999 0.095148439 0.42379036
v 0.27299999 0.095263748 0.42374046
v 0.27299999 0.095381966 0.42369789
v 0.27299999 0.095502625 0.42366283
v 0.27299999 0.095625238 0.42363541
v 0.27299999 0.095749331 0.42361576
v 0.27299999 0.095874414 0.42360394
v 0.29200001 0.096000004 0.42360001
v 0.29200001 0.095874414 0.42360394
v 0.29200001 0.095749331 0.42361576
v 0.29200001 0.095625238 0.42363541
v 0.29200001 0.095502625 0.42366283
v 0.29200001 0.095381966 0.42369789
v 0.29200001 0.095263748 0.42374046
v 0.29200001 0.095148439 0.42379036
v 0.29200001 0.095036497 0.42384739
v 0.29200001 0.09492835 0.42391136
v 0.29200001 0.094824429 0.42398197
v 0.29200001 0.094725151 0.42405899
v 0.29200001 0.094630909 0.42414207
v 0.29200001 0.094542065 0.42423092
v 0.29200001 0.094458971 0.42432514
v 0.29200001 0.094381962 0.42442444
v 0.29200001 0.094311342 0.42452835
v 0.29200001 0.094247389 0.4246365
v 0.29200001 0.09419035 0.42474846
v 0.29200001 0.094140444 0.42486374
v 0.29200001 0.094097891 0.42498196
v 0.29200001 0.094062834 0.42510262
v 0.29200001 0.094035425 0.42522522
v 0.29200001 0.09401577 0.42534935
v 0.29200001 0.094003944 0.42547443
v 0.29200001 0.093999996 0.42560001
v 0.29200001 0.094003944 0.42572559
v 0.29200001 0.09401577 0.42585068
v 0.29200001 0.094035425 0.42597477
v 0.29200001 0.094062834 0.42609737
v 0.29200001 0.094097891 0.42621803
v 0.29200001 0.094140444 0.42633625
v 0.29200001 0.09419035 0.42645157
v 0.29200001 0.094247389 0.42656349
v 0.29200001 0.094311342 0.42667164
v 0.29200001 0.094381962 0.42677559
v 0.29200001 0.094458971 0.42687485
v 0.29200001 0.094542065 0.42696911
v 0.29200001 0.094630909 0.42705795
v 0.29200001 0.094725151 0.42714104
v 0.29200001 0.094824429 0.42721802
v 0.29200001 0.09492835 0.42728867
v 0.29200001 0.095036497 0.4273526
v 0.29200001 0.095148439 0.42740967
v 0.29200001 0.095263748 0.42745956
v 0.29200001 0.095381966 0.4275021
v 0.29200001 0.095502625 0.42753716
v 0.29200001 0.095625238 0.42756458
v 0.29200001 0.095749331 0.42758423
v 0.29200001 0.095874414 0.42759605
v 0.29200001 0.096000004 0.42759998
v 0.29200001 0.096125584 0.42759605
v 0.29200001 0.096250668 0.42758423
v 0.29200001 0.09637476 0.42756458
v 0.29200001 0.096497383 0.42753716
v 0.29200001 0.096618032 0.4275021
v 0.29200001 0.09673625 0.42745956
v 0.29200001 0.096851559 0.42740967
v 0.29200001 0.096963511 0.4273526
v 0.29200001 0.097071657 0.42728867
v 0.29200001 0.09717557 0.42721802
v 0.29200001 0.097274847 0.42714104
v 0.29200001 0.097369099 0.42705795
v 0.29200001 0.097457933 0.42696911
v 0.29200001 0.097541027 0.42687485
v 0.29200001 0.097618036 0.42677559
v 0.29200001 0.097688656 0.42667164
v 0.29200001 0.097752609 0.42656349
v 0.29200001 0.097809658 0.42645157
v 0.29200001 0.097859554 0.42633625
v 0.29200001 0.097902117 0.42621803
v 0.29200001 0.097937164 0.42609737
v 0.29200001 0.097964573 0.42597477
v 0.29200001 0.097984228 0.42585068
v 0.29200001 0.097996054 0.42572559
v 0.29200001 0.098000002 0.42560001
v 0.29200001 0.097996054 0.42547443
v 0.29200001 0.097984228 0.42534935
v 0.29200001 0.097964573 0.42522522
v 0.29200001 0.097937164 0.42510262
v 0.29200001 0.097902117 0.42498196
v 0.29200001 0.097859554 0.42486374
v 0.29200001 0.097809658 0.42474846
v 0.29200001 0.097752609 0.4246365
v 0.29200001 0.097688656 0.42452835
v 0.29200001 0.097618036 0.42442444
v 0.29200001 0.097541027 0.42432514
v 0.29200001 0.097457933 0.42423092
v 0.29200001 0.097369099 0.42414207
v 0.29200001 0.097274847 0.42405899
v 0.29200001 0.09717557 0.42398197
v 0.29200001 0.097071657 0.42391136
v 0.29200001 0.096963511 0.42384739
v 0.29200001 0.096851559 0.42379036
v 0.29200001 0.09673625 0.42374046
v 0.29200001 0.096618032 0.42369789
v 0.29200001 0.096497383 0.42366283
v 0.29200001 0.09637476 0.42363541
v 0.29200001 0.096250668 0.42361576
v 0.29200001 0.096125584 0.42360394
v 0.27299999 0.096000004 0.42759998
v 0.29200001 0.096000004 0.42759998
v 0.27299999 0.096000004 0.42360001
v 0.27299999 0.095874414 0.42360394
v 0.27299999 0.095749331 0.42361576
v 0.27299999 0.095625238 0.42363541
v 0.27299999 0.095502625 0.42366283
v 0.27299999 0.095381966 0.42369789
v 0.27299999 0.095263748 0.42374046
v 0.27299999 0.095148439 0.42379036
v 0.27299999 0.095036497 0.42384739
v 0.27299999 0.09492835 0.42391136
v 0.27299999 0.094824429 0.42398197
v 0.27299999 0.094725151 0.42405899
v 0.27299999 0.094630909 0.42414207
v 0.27299999 0.094542065 0.42423092
v 0.27299999 0.094458971 0.42432514
v 0.27299999 0.094381962 0.42442444
v 0.27299999 0.094311342 0.42452835
v 0.27299999 0.094247389 0.4246365
v 0.27299999 0.09419035 0.42474846
v 0.27299999 0.094140444 0.42486374
v 0.27299999 0.094097891 0.42498196
v 0.27299999 0.094062834 0.42510262
v 0.27299999 0.094035425 0.42522522
v 0.27299999 0.09401577 0.42534935
v 0.27299999 0.094003944 0.42547443
v 0.27299999 0.093999996 0.42560001
v 0.27299999 0.094003944 0.42572559
v 0.27299999 0.09401577 0.42585068
v 0.27299999 0.094035425 0.42597477
v 0.27299999 0.094062834 0.42609737
v 0.27299999 0.094097891 0.42621803
v 0.27299999 0.094140444 0.42633625
v 0.27299999 0.09419035 0.42645157
v 0.27299999 0.094247389 0.42656349
v 0.27299999 0.094311342 0.42667164
v 0.27299999 0.094381962 0.42677559
v 0.27299999 0.094458971 0.42687485
v 0.27299999 0.094542065 0.42696911
v 0.27299999 0.094630909 0.42705795
v 0.27299999 0.094725151 0.42714104
v 0.27299999 0.094824429 0.42721802
v 0.27299999 0.09492835 0.42728867
v 0.27299999 0.095036497 0.4273526
v 0.27299999 0.095148439 0.42740967
v 0.27299999 0.095263748 0.42745956
v 0.27299999 0.095381966 0.4275021
v 0.27299999 0.095502625 0.42753716
v 0.27299999 0.095625238 0.42756458
v 0.27299999 0.095749331 0.42758423
v 0.27299999 0.095874414 0.42759605
v 0.27299999 0.096000004 0.42759998
v 0.27299999 0.096125584 0.42759605
v 0.27299999 0.096250668 0.42758423
v 0.27299999 0.09637476 0.42756458
v 0.27299999 0.096497383 0.42753716
v 0.27299999 0.096618032 0.4275021
v 0.27299999 0.09673625 0.42745956
v 0.27299999 0.096851559 0.42740967
v 0.27299999 0.096963511 0.4273526
v 0.27299999 0.097071657 0.42728867
v 0.27299999 0.09717557 0.42721802
v 0.27299999 0.097274847 0.42714104
v 0.27299999 0.097369099 0.42705795
v 0.27299999 0.097457933 0.42696911
v 0.27299999 0.097541027 0.42687485
v 0.27299999 0.097618036 0.42677559
v 0.27299999 0.097688656 0.42667164
v 0.27299999 0.097752609 0.42656349
v 0.27299999 0.097809658 0.42645157
v 0.27299999 0.097859554 0.42633625
v 0.27299999 0.097902117 0.42621803
v 0.27299999 0.097937164 0.42609737
v 0.27299999 0.097964573 0.42597477
v 0.27299999 0.097984228 0.42585068
v 0.27299999 0.097996054 0.42572559
v 0.27299999 0.098000002 0.42560001
v 0.27299999 0.097996054 0.42547443
v 0.27299999 0.097984228 0.42534935
v 0.27299999 0.097964573 0.42522522
v 0.27299999 0.097937164 0.42510262
v 0.27299999 0.097902117 0.42498196
v 0.27299999 0.097859554 0.42486374
v 0.27299999 0.097809658 0.42474846
v 0.27299999 0.097752609 0.4246365
v 0.27299999 0.097688656 0.42452835
v 0.27299999 0.097618036 0.42442444
v 0.27299999 0.097541027 0.42432514
v 0.27299999 0.097457933 0.42423092
v 0.27299999 0.097369099 0.42414207
v 0.27299999 0.097274847 0.42405899
v 0.27299999 0.09717557 0.42398197
v 0.27299999 0.097071657 0.42391136
v 0.27299999 0.096963511 0.42384739
v 0.27299999 0.096851559 0.42379036
v 0.27299999 0.09673625 0.42374046
v 0.27299999 0.096618032 0.42369789
v 0.27299999 0.096497383 0.42366283
v 0.27299999 0.09637476 0.42363541
v 0.27299999 0.096250668 0.42361576
v 0.27299999 0.096125584 0.42360394
f 2 50 1
f 1 50 51
f 1 51 100
f 100 51 52
f 100 52 99
f 99 52 53
f 99 53 98
f 98 53 54
f 98 54 97
f 97 54 55
f 97 55 96
f 96 55 56
f 96 56 95
f 95 56 57
f 95 57 94
f 94 57 58
f 94 58 93
f 93 58 59
f 93 59 92
f 92 59 60
f 92 60 91
f 91 60 61
f 91 61 90
f 90 61 62
f 90 62 89
f 89 62 63
f 89 63 88
f 88 63 64
f 88 64 87
f 87 64 65
f 87 65 86
f 86 65 66
f 86 66 85
f 85 66 67
f 85 67 84
f 84 67 68
f 84 68 83
f 83 68 69
f 83 69 82
f 82 69 70
f 82 70 81
f 81 70 71
f 81 71 80
f 80 71 72
f 80 72 79
f 79 72 73
f 79 73 78
f 78 73 74
f 78 74 77
f 77 74 75
f 77 75 76
f 50 2 49
f 49 2 3
f 49 3 48
f 48 3 4
f 48 4 47
f 47 4 5
f 47 5 46
f 46 5 6
f 46 6 45
f 45 6 7
f 45 7 44
f 44 7 8
f 44 8 43
f 43 8 9
f 43 9 42
f 42 9 10
f 42 10 41
f 41 10 11
f 41 11 40
f 40 11 12
f 40 12 39
f 39 12 13
f 39 13 38
f 38 13 14
f 38 14 37
f 37 14 15
f 37 15 36
f 36 15 16
f 36 16 35
f 35 16 17
f 35 17 34
f 34 17 18
f 34 18 33
f 33 18 19
f 33 19 32
f 32 19 20
f 32 20 31
f 31 20 21
f 31 21 30
f 30 21 22
f 30 22 29
f 29 22 23
f 29 23 28
f 28 23 24
f 28 24 27
f 27 24 25
f 27 25 26
f 102 300 101
f 101 300 201
f 101 201 200
f 200 201 202
f 200 202 199
f 199 202 203
f 199 203 198
f 198 203 204
f 198 204 197
f 197 204 205
f 197 205 196
f 196 205 206
f 196 206 195
f 195 206 207
f 195 207 194
f 194 207 208
f 194 208 193
f 193 208 209
f 193 209 192
f 192 209 210
f 192 210 191
f 191 210 211
f 191 211 190
f 190 211 212
f 190 212 189
f 189 212 213
f 189 213 188
f 188 213 214
f 188 214 187
f 187 214 215
f 187 215 186
f 186 215 216
f 186 216 185
f 185 216 217
f 185 217 184
f 184 217 218
f 184 218 183
f 183 218 219
f 183 219 182
f 182 219 220
f 182 220 181
f 181 220 221
f 181 221 180
f 180 221 222
f 180 222 179
f 179 222 223
f 179 223 178
f 178 223 224
f 178 224 177
f 177 224 225
f 177 225 176
f 176 225 226
f 176 226 175
f 175 226 227
f 175 227 174
f 174 227 228
f 174 228 173
f 173 228 229
f 173 229 172
f 172 229 230
f 172 230 171
f 171 230 231
f 171 231 170
f 170 231 232
f 170 232 169
f 169 232 233
f 169 233 168
f 168 233 234
f 168 234 167
f 167 234 235
f 167 235 166
f 166 235 236
f 166 236 165
f 165 236 237
f 165 237 164
f 164 237 238
f 164 238 163
f 163 238 239
f 163 239 162
f 162 239 240
f 162 240 161
f 161 240 241
f 161 241 160
f 160 241 242
f 160 242 159
f 159 242 243
f 159 243 158
f 158 243 244
f 158 244 157
f 157 244 245
f 157 245 156
f 156 245 246
f 156 246 155
f 155 246 247
f 155 247 154
f 154 247 248
f 154 248 153
f 153 248 249
f 153 249 152
f 152 249 250
f 152 250 151
f 151 250 302
f 301 251 150
f 150 251 252
f 150 252 149
f 149 252 253
f 149 253 148
f 148 253 254
f 148 254 147
f 147 254 255
f 147 255 146
f 146 255 256
f 146 256 145
f 145 256 257
f 145 257 144
f 144 257 258
f 144 258 143
f 143 258 259
f 143 259 142
f 142 259 260
f 142 260 141
f 141 260 261
f 141 261 140
f 140 261 262
f 140 262 139
f 139 262 263
f 139 263 138
f 138 263 264
f 138 264 137
f 137 264 265
f 137 265 136
f 136 265 266
f 136 266 135
f 135 266 267
f 135 267 134
f 134 267 268
f 134 268 133
f 133 268 269
f 133 269 132
f 132 269 270
f 132 270 131
f 131 270 271
f 131 271 130
f 130 271 272
f 130 272 129
f 129 272 273
f 129 273 128
f 128 273 274
f 128 274 127
f 127 274 275
f 127 275 126
f 126 275 276
f 126 276 125
f 125 276 277
f 125 277 124
f 124 277 278
f 124 278 123
f 123 278 279
f 123 279 122
f 122 279 280
f 122 280 121
f 121 280 281
f 121 281 120
f 120 281 282
f 120 282 119
f 119 282 283
f 119 283 118
f 118 283 284
f 118 284 117
f 117 284 285
f 117 285 116
f 116 285 286
f 116 286 115
f 115 286 287
f 115 287 114
f 114 287 288
f 114 288 113
f 113 288 289
f 113 289 112
f 112 289 290
f 112 290 111
f 111 290 291
f 111 291 110
f 110 291 292
f 110 292 109
f 109 292 293
f 109 293 108
f 108 293 294
f 108 294 107
f 107 294 295
f 107 295 106
f 106 295 296
f 106 296 105
f 105 296 297
f 105 297 104
f 104 297 298
f 104 298 103
f 103 298 299
f 103 299 102
f 102 299 300
f 304 352 303
f 303 352 353
f 303 353 402
f 402 353 354
f 402 354 401
f 401 354 355
f 401 355 400
f 400 355 356
f 400 356 399
f 399 356 357
f 399 357 398
f 398 357 358
f 398 358 397
f 397 358 359
f 397 359 396
f 396 359 360
f 396 360 395
f 395 360 361
f 395 361 394
f 394 361 362
f 394 362 393
f 393 362 363
f 393 363 392
f 392 363 364
f 392 364 391
f 391 364 365
f 391 365 390
f 390 365 366
f 390 366 389
f 389 366 367
f 389 367 388
f 388 367 368
f 388 368 387
f 387 368 369
f 387 369 386
f 386 369 370
f 386 370 385
f 385 370 371
f 385 371 384
f 384 371 372
f 384 372 383
f 383 372 373
f 383 373 382
f 382 373 374
f 382 374 381
f 381 374 375
f 381 375 380
f 380 375 376
f 380 376 379
f 379 376 377
f 379 377 378
f 352 304 351
f 351 304 305
f 351 305 350
f 350 305 306
f 350 306 349
f 349 306 307
f 349 307 348
f 348 307 308
f 348 308 347
f 347 308 309
f 347 309 346
f 346 309 310
f 346 310 345
f 345 310 311
f 345 311 344
f 344 311 312
f 344 312 343
f 343 312 313
f 343 313 342
f 342 313 314
f 342 314 341
f 341 314 315
f 341 315 340
f 340 315 316
f 340 316 339
f 339 316 317
f 339 317 338
f 338 317 318
f 338 318 337
f 337 318 319
f 337 319 336
f 336 319 320
f 336 320 335
f 335 320 321
f 335 321 334
f 334 321 322
f 334 322 333
f 333 322 323
f 333 323 332
f 332 323 324
f 332 324 331
f 331 324 325
f 331 325 330
f 330 325 326
f 330 326 329
f 329 326 327
f 329 327 328
