v 0.089805727 0.14240396 9.9999998e-05
v 0.089846249 0.14307476 9.9999998e-05
v 0.089967804 0.14364216 9.9999998e-05
v 0.090170393 0.14410614 9.9999998e-05
v 0.090454025 0.14446671 9.9999998e-05
v 0.090454025 0.14446671 0.000125
v 0.090170393 0.14410614 0.000125
v 0.089967804 0.14364216 0.000125
v 0.089846249 0.14307476 0.000125
v 0.089805727 0.14240396 0.000125
v 0.092001629 0.14508445 9.9999998e-05
v 0.09260354 0.14500422 9.9999998e-05
v 0.093143244 0.14476357 9.9999998e-05
v 0.093143244 0.14476357 0.000125
v 0.09260354 0.14500422 0.000125
v 0.092001629 0.14508445 0.000125
v 0.089299316 0.14081923 9.9999998e-05
v 0.089024286 0.14159632 9.9999998e-05
v 0.08893261 0.14241705 9.9999998e-05
v 0.088986092 0.14317053 9.9999998e-05
v 0.089146528 0.14383752 9.9999998e-05
v 0.089413919 0.14441801 9.9999998e-05
v 0.089788265 0.144912 9.9999998e-05
v 0.090247202 0.14530642 9.9999998e-05
v 0.090768347 0.14558813 9.9999998e-05
v 0.0913517 0.14575716 9.9999998e-05
v 0.091997271 0.1458135 9.9999998e-05
v 0.092839832 0.14570764 9.9999998e-05
v 0.093595085 0.14539004 9.9999998e-05
v 0.094222097 0.14488308 9.9999998e-05
v 0.094679947 0.14420914 9.9999998e-05
v 0.094959888 0.14340096 9.9999998e-05
v 0.095053205 0.14249126 9.9999998e-05
v 0.094954977 0.14156903 9.9999998e-05
v 0.094660301 0.14074939 9.9999998e-05
v 0.094185534 0.14007435 9.9999998e-05
v 0.093547068 0.13958595 9.9999998e-05
v 0.092798367 0.13928963 9.9999998e-05
v 0.091992903 0.13919086 9.9999998e-05
v 0.091137247 0.1393 9.9999998e-05
v 0.090377626 0.13962742 9.9999998e-05
v 0.089752245 0.14014365 9.9999998e-05
v 0.090454025 0.14446671 9.9999998e-05
v 0.090170393 0.14410614 9.9999998e-05
v 0.089967804 0.14364216 9.9999998e-05
v 0.089846249 0.14307476 9.9999998e-05
v 0.089805727 0.14240396 9.9999998e-05
v 0.089961252 0.14136985 9.9999998e-05
v 0.090427828 0.14058131 9.9999998e-05
v 0.091129055 0.14008199 9.9999998e-05
v 0.091988544 0.13991555 9.9999998e-05
v 0.092860022 0.14008363 9.9999998e-05
v 0.093562346 0.14058785 9.9999998e-05
v 0.093832607 0.14095921 9.9999998e-05
v 0.09402565 0.14140096 9.9999998e-05
v 0.094141483 0.1419131 9.9999998e-05
v 0.094180088 0.14249563 9.9999998e-05
v 0.094114056 0.14322742 9.9999998e-05
v 0.093915958 0.14385989 9.9999998e-05
v 0.093590727 0.14437721 9.9999998e-05
v 0.093143244 0.14476357 9.9999998e-05
v 0.09260354 0.14500422 9.9999998e-05
v 0.092001629 0.14508445 9.9999998e-05
v 0.091165075 0.14493001 9.9999998e-05
v 0.093143244 0.14476357 9.9999998e-05
v 0.093590727 0.14437721 9.9999998e-05
v 0.093915958 0.14385989 9.9999998e-05
v 0.093915958 0.14385989 0.000125
v 0.093590727 0.14437721 0.000125
v 0.093143244 0.14476357 0.000125
v 0.093915958 0.14385989 9.9999998e-05
v 0.094114056 0.14322742 9.9999998e-05
v 0.094180088 0.14249563 9.9999998e-05
v 0.094180088 0.14249563 0.000125
v 0.094114056 0.14322742 0.000125
v 0.093915958 0.14385989 0.000125
v 0.094180088 0.14249563 9.9999998e-05
v 0.094141483 0.1419131 9.9999998e-05
v 0.09402565 0.14140096 9.9999998e-05
v 0.093832607 0.14095921 9.9999998e-05
v 0.093562346 0.14058785 9.9999998e-05
v 0.093562346 0.14058785 0.000125
v 0.093832607 0.14095921 0.000125
v 0.09402565 0.14140096 0.000125
v 0.094141483 0.1419131 0.000125
v 0.094180088 0.14249563 0.000125
v 0.093562346 0.14058785 9.9999998e-05
v 0.092860022 0.14008363 9.9999998e-05
v 0.091988544 0.13991555 9.9999998e-05
v 0.091988544 0.13991555 0.000125
v 0.092860022 0.14008363 0.000125
v 0.093562346 0.14058785 0.000125
v 0.091988544 0.13991555 9.9999998e-05
v 0.091129055 0.14008199 9.9999998e-05
v 0.090427828 0.14058131 9.9999998e-05
v 0.090427828 0.14058131 0.000125
v 0.091129055 0.14008199 0.000125
v 0.091988544 0.13991555 0.000125
v 0.090427828 0.14058131 9.9999998e-05
v 0.089961252 0.14136985 9.9999998e-05
v 0.089805727 0.14240396 9.9999998e-05
v 0.089805727 0.14240396 0.000125
v 0.089961252 0.14136985 0.000125
v 0.090427828 0.14058131 0.000125
v 0.091992903 0.13919086 9.9999998e-05
v 0.092798367 0.13928963 9.9999998e-05
v 0.093547068 0.13958595 9.9999998e-05
v 0.093547068 0.13958595 0.000125
v 0.092798367 0.13928963 0.000125
v 0.091992903 0.13919086 0.000125
v 0.093547068 0.13958595 9.9999998e-05
v 0.094185534 0.14007435 9.9999998e-05
v 0.094660301 0.14074939 9.9999998e-05
v 0.094660301 0.14074939 0.000125
v 0.094185534 0.14007435 0.000125
v 0.093547068 0.13958595 0.000125
v 0.090377626 0.13962742 9.9999998e-05
v 0.091137247 0.1393 9.9999998e-05
v 0.091992903 0.13919086 9.9999998e-05
v 0.091992903 0.13919086 0.000125
v 0.091137247 0.1393 0.000125
v 0.090377626 0.13962742 0.000125
v 0.094660301 0.14074939 9.9999998e-05
v 0.094954977 0.14156903 9.9999998e-05
v 0.095053205 0.14249126 9.9999998e-05
v 0.095053205 0.14249126 0.000125
v 0.094954977 0.14156903 0.000125
v 0.094660301 0.14074939 0.000125
v 0.089299316 0.14081923 9.9999998e-05
v 0.089752245 0.14014365 9.9999998e-05
v 0.090377626 0.13962742 9.9999998e-05
v 0.090377626 0.13962742 0.000125
v 0.089752245 0.14014365 0.000125
v 0.089299316 0.14081923 0.000125
v 0.095053205 0.14249126 9.9999998e-05
v 0.094959888 0.14340096 9.9999998e-05
v 0.094679947 0.14420914 9.9999998e-05
v 0.094679947 0.14420914 0.000125
v 0.094959888 0.14340096 0.000125
v 0.095053205 0.14249126 0.000125
v 0.08893261 0.14241705 9.9999998e-05
v 0.089024286 0.14159632 9.9999998e-05
v 0.089299316 0.14081923 9.9999998e-05
v 0.089299316 0.14081923 0.000125
v 0.089024286 0.14159632 0.000125
v 0.08893261 0.14241705 0.000125
v 0.094679947 0.14420914 9.9999998e-05
v 0.094222097 0.14488308 9.9999998e-05
v 0.093595085 0.14539004 9.9999998e-05
v 0.093595085 0.14539004 0.000125
v 0.094222097 0.14488308 0.000125
v 0.094679947 0.14420914 0.000125
v 0.093595085 0.14539004 9.9999998e-05
v 0.092839832 0.14570764 9.9999998e-05
v 0.091997271 0.1458135 9.9999998e-05
v 0.091997271 0.1458135 0.000125
v 0.092839832 0.14570764 0.000125
v 0.093595085 0.14539004 0.000125
v 0.091997271 0.1458135 9.9999998e-05
v 0.0913517 0.14575716 9.9999998e-05
v 0.090768347 0.14558813 9.9999998e-05
v 0.090247202 0.14530642 9.9999998e-05
v 0.089788265 0.144912 9.9999998e-05
v 0.089788265 0.144912 0.000125
v 0.090247202 0.14530642 0.000125
v 0.090768347 0.14558813 0.000125
v 0.0913517 0.14575716 0.000125
v 0.091997271 0.1458135 0.000125
v 0.089788265 0.144912 9.9999998e-05
v 0.089413919 0.14441801 9.9999998e-05
v 0.089146528 0.14383752 9.9999998e-05
v 0.088986092 0.14317053 9.9999998e-05
v 0.08893261 0.14241705 9.9999998e-05
v 0.08893261 0.14241705 0.000125
v 0.088986092 0.14317053 0.000125
v 0.089146528 0.14383752 0.000125
v 0.089413919 0.14441801 0.000125
v 0.089788265 0.144912 0.000125
v 0.08893261 0.14241705 0.000125
v 0.089024286 0.14159632 0.000125
v 0.089299316 0.14081923 0.000125
v 0.089752245 0.14014365 0.000125
v 0.090377626 0.13962742 0.000125
v 0.091137247 0.1393 0.000125
v 0.091992903 0.13919086 0.000125
v 0.092798367 0.13928963 0.000125
v 0.093547068 0.13958595 0.000125
v 0.094185534 0.14007435 0.000125
v 0.094660301 0.14074939 0.000125
v 0.094954977 0.14156903 0.000125
v 0.095053205 0.14249126 0.000125
v 0.094959888 0.14340096 0.000125
v 0.094679947 0.14420914 0.000125
v 0.094222097 0.14488308 0.000125
v 0.093595085 0.14539004 0.000125
v 0.092839832 0.14570764 0.000125
v 0.091997271 0.1458135 0.000125
v 0.0913517 0.14575716 0.000125
v 0.090768347 0.14558813 0.000125
v 0.090247202 0.14530642 0.000125
v 0.089788265 0.144912 0.000125
v 0.089413919 0.14441801 0.000125
v 0.089146528 0.14383752 0.000125
v 0.088986092 0.14317053 0.000125
v 0.089805727 0.14240396 0.000125
v 0.089846249 0.14307476 0.000125
v 0.089967804 0.14364216 0.000125
v 0.090170393 0.14410614 0.000125
v 0.090454025 0.14446671 0.000125
v 0.091165075 0.14493001 0.000125
v 0.092001629 0.14508445 0.000125
v 0.09260354 0.14500422 0.000125
v 0.093143244 0.14476357 0.000125
v 0.093590727 0.14437721 0.000125
v 0.093915958 0.14385989 0.000125
v 0.094114056 0.14322742 0.000125
v 0.094180088 0.14249563 0.000125
v 0.094141483 0.1419131 0.000125
v 0.09402565 0.14140096 0.000125
v 0.093832607 0.14095921 0.000125
v 0.093562346 0.14058785 0.000125
v 0.092860022 0.14008363 0.000125
v 0.091988544 0.13991555 0.000125
v 0.091129055 0.14008199 0.000125
v 0.090427828 0.14058131 0.000125
v 0.089961252 0.14136985 0.000125
v 0.090454025 0.14446671 9.9999998e-05
v 0.091165075 0.14493001 9.9999998e-05
v 0.092001629 0.14508445 9.9999998e-05
v 0.092001629 0.14508445 0.000125
v 0.091165075 0.14493001 0.000125
v 0.090454025 0.14446671 0.000125
f 1 2 10
f 10 2 9
f 9 2 3
f 9 3 8
f 8 3 4
f 8 4 7
f 7 4 5
f 7 5 6
f 11 12 16
f 16 12 15
f 15 12 13
f 15 13 14
f 42 17 48
f 48 17 18
f 48 18 47
f 47 18 19
f 47 19 20
f 47 20 46
f 46 20 21
f 46 21 45
f 45 21 22
f 45 22 44
f 44 22 23
f 44 23 43
f 43 23 24
f 43 24 64
f 64 24 25
f 64 25 26
f 64 26 63
f 63 26 27
f 63 27 62
f 62 27 28
f 62 28 61
f 61 28 29
f 61 29 60
f 60 29 30
f 60 30 59
f 59 30 31
f 59 31 58
f 58 31 32
f 58 32 57
f 57 32 33
f 57 33 56
f 56 33 34
f 56 34 55
f 55 34 35
f 55 35 54
f 54 35 36
f 54 36 53
f 53 36 37
f 53 37 52
f 52 37 38
f 52 38 51
f 51 38 39
f 51 39 40
f 51 40 50
f 50 40 41
f 50 41 49
f 49 41 42
f 49 42 48
f 65 66 70
f 70 66 69
f 69 66 67
f 69 67 68
f 71 72 76
f 76 72 75
f 75 72 73
f 75 73 74
f 77 78 86
f 86 78 85
f 85 78 79
f 85 79 84
f 84 79 80
f 84 80 83
f 83 80 81
f 83 81 82
f 87 88 92
f 92 88 91
f 91 88 89
f 91 89 90
f 93 94 98
f 98 94 97
f 97 94 95
f 97 95 96
f 99 100 104
f 104 100 103
f 103 100 101
f 103 101 102
f 105 106 110
f 110 106 109
f 109 106 107
f 109 107 108
f 111 112 116
f 116 112 115
f 115 112 113
f 115 113 114
f 117 118 122
f 122 118 121
f 121 118 119
f 121 119 120
f 123 124 128
f 128 124 127
f 127 124 125
f 127 125 126
f 129 130 134
f 134 130 133
f 133 130 131
f 133 131 132
f 135 136 140
f 140 136 139
f 139 136 137
f 139 137 138
f 141 142 146
f 146 142 145
f 145 142 143
f 145 143 144
f 147 148 152
f 152 148 151
f 151 148 149
f 151 149 150
f 153 154 158
f 158 154 157
f 157 154 155
f 157 155 156
f 159 160 168
f 168 160 167
f 167 160 161
f 167 161 166
f 166 161 162
f 166 162 165
f 165 162 163
f 165 163 164
f 169 170 178
f 178 170 177
f 177 170 171
f 177 171 176
f 176 171 172
f 176 172 175
f 175 172 173
f 175 173 174
f 204 179 205
f 205 179 180
f 205 180 226
f 226 180 181
f 226 181 182
f 226 182 225
f 225 182 183
f 225 183 224
f 224 183 184
f 224 184 223
f 223 184 185
f 223 185 186
f 223 186 222
f 222 186 187
f 222 187 221
f 221 187 188
f 221 188 220
f 220 188 189
f 220 189 219
f 219 189 190
f 219 190 218
f 218 190 191
f 218 191 217
f 217 191 192
f 217 192 216
f 216 192 193
f 216 193 215
f 215 193 194
f 215 194 214
f 214 194 195
f 214 195 213
f 213 195 196
f 213 196 212
f 212 196 197
f 212 197 211
f 211 197 198
f 211 198 210
f 210 198 199
f 210 199 200
f 210 200 209
f 209 200 201
f 209 201 208
f 208 201 202
f 208 202 207
f 207 202 203
f 207 203 206
f 206 203 204
f 206 204 205
f 227 228 232
f 232 228 231
f 231 228 229
f 231 229 230
