v 0.071778989 -0.29934999 0.258897
v 0.072218962 -0.29934999 0.25945566
v 0.072218962 -0.29947001 0.25945566
v 0.071778989 -0.29947001 0.258897
v 0.071220326 -0.29934999 0.26431787
v 0.070736871 -0.29934999 0.26445446
v 0.070117326 -0.29934999 0.26450001
v 0.070117326 -0.29947001 0.26450001
v 0.070736871 -0.29947001 0.26445446
v 0.071220326 -0.29947001 0.26431787
v 0.07004775 -0.29934999 0.26127081
v 0.070553718 -0.29934999 0.26124573
v 0.070925646 -0.29934999 0.26117054
v 0.070925646 -0.29947001 0.26117054
v 0.070553718 -0.29947001 0.26124573
v 0.07004775 -0.29947001 0.26127081
v 0.070925646 -0.29934999 0.26117054
v 0.071402454 -0.29934999 0.26082264
v 0.071402454 -0.29947001 0.26082264
v 0.070925646 -0.29947001 0.26117054
v 0.071122103 -0.29934999 0.25860027
v 0.071778989 -0.29934999 0.258897
v 0.071778989 -0.29947001 0.258897
v 0.071122103 -0.29947001 0.25860027
v 0.070117326 -0.29934999 0.26450001
v 0.067866302 -0.29934999 0.26450001
v 0.067866302 -0.29947001 0.26450001
v 0.070117326 -0.29947001 0.26450001
v 0.068660302 -0.29934999 0.26127081
v 0.07004775 -0.29934999 0.26127081
v 0.07004775 -0.29947001 0.26127081
v 0.068660302 -0.29947001 0.26127081
v 0.071402454 -0.29934999 0.26082264
v 0.071574354 -0.29934999 0.26023943
v 0.071574354 -0.29947001 0.26023943
v 0.071402454 -0.29947001 0.26082264
v 0.070154161 -0.29934999 0.2585
v 0.07068264 -0.29934999 0.25852507
v 0.071122103 -0.29934999 0.25860027
v 0.071122103 -0.29947001 0.25860027
v 0.07068264 -0.29947001 0.25852507
v 0.070154161 -0.29947001 0.2585
v 0.067866302 -0.29934999 0.26450001
v 0.067866302 -0.29934999 0.2585
v 0.067866302 -0.29947001 0.2585
v 0.067866302 -0.29947001 0.26450001
v 0.068660302 -0.29934999 0.25920805
v 0.068660302 -0.29934999 0.26127081
v 0.068660302 -0.29947001 0.26127081
v 0.068660302 -0.29947001 0.25920805
v 0.071574354 -0.29934999 0.26023943
v 0.07145566 -0.29934999 0.25973396
v 0.07145566 -0.29947001 0.25973396
v 0.071574354 -0.29947001 0.26023943
v 0.067866302 -0.29934999 0.2585
v 0.070154161 -0.29934999 0.2585
v 0.070154161 -0.29947001 0.2585
v 0.067866302 -0.29947001 0.2585
v 0.07145566 -0.29934999 0.25973396
v 0.071152797 -0.29934999 0.25940041
v 0.071152797 -0.29947001 0.25940041
v 0.07145566 -0.29947001 0.25973396
v 0.071152797 -0.29934999 0.25940041
v 0.070694408 -0.29934999 0.2592367
v 0.070694408 -0.29947001 0.2592367
v 0.071152797 -0.29947001 0.25940041
v 0.070694408 -0.29934999 0.2592367
v 0.070481582 -0.29934999 0.2592152
v 0.070154161 -0.29934999 0.25920805
v 0.070154161 -0.29947001 0.25920805
v 0.070481582 -0.29947001 0.2592152
v 0.070694408 -0.29947001 0.2592367
v 0.070154161 -0.29934999 0.25920805
v 0.068660302 -0.29934999 0.25920805
v 0.068660302 -0.29947001 0.25920805
v 0.070154161 -0.29947001 0.25920805
v 0.067866302 -0.29947001 0.2585
v 0.070154161 -0.29947001 0.2585
v 0.07068264 -0.29947001 0.25852507
v 0.071122103 -0.29947001 0.25860027
v 0.071778989 -0.29947001 0.258897
v 0.072218962 -0.29947001 0.25945566
v 0.072396998 -0.29947001 0.26023943
v 0.072323842 -0.29947001 0.26072851
v 0.072104363 -0.29947001 0.26114801
v 0.071748805 -0.29947001 0.26147646
v 0.071267395 -0.29947001 0.26169235
v 0.071635742 -0.29947001 0.26193384
v 0.071897683 -0.29947001 0.26224079
v 0.072054229 -0.29947001 0.26259174
v 0.072106414 -0.29947001 0.2629652
v 0.072047582 -0.29947001 0.26336988
v 0.071871076 -0.29947001 0.26375717
v 0.071590724 -0.29947001 0.26408663
v 0.071220326 -0.29947001 0.26431787
v 0.070736871 -0.29947001 0.26445446
v 0.070117326 -0.29947001 0.26450001
v 0.067866302 -0.29947001 0.26450001
v 0.068660302 -0.29947001 0.25920805
v 0.068660302 -0.29947001 0.26127081
v 0.07004775 -0.29947001 0.26127081
v 0.070553718 -0.29947001 0.26124573
v 0.070925646 -0.29947001 0.26117054
v 0.071402454 -0.29947001 0.26082264
v 0.071574354 -0.29947001 0.26023943
v 0.07145566 -0.29947001 0.25973396
v 0.071152797 -0.29947001 0.25940041
v 0.070694408 -0.29947001 0.2592367
v 0.070481582 -0.29947001 0.2592152
v 0.070154161 -0.29947001 0.25920805
v 0.068660302 -0.29947001 0.26197886
v 0.068660302 -0.29947001 0.26379194
v 0.069859481 -0.29947001 0.26379194
v 0.070410986 -0.29947001 0.26377098
v 0.070772171 -0.29947001 0.26370806
v 0.071181445 -0.29947001 0.26339701
v 0.071324692 -0.29947001 0.26287107
v 0.071171212 -0.29947001 0.2623472
v 0.070714869 -0.29947001 0.26204844
v 0.070410986 -0.29947001 0.26199625
v 0.069957709 -0.29947001 0.26197886
v 0.068660302 -0.29934999 0.26379194
v 0.069859481 -0.29934999 0.26379194
v 0.069859481 -0.29947001 0.26379194
v 0.068660302 -0.29947001 0.26379194
v 0.068660302 -0.29934999 0.26197886
v 0.068660302 -0.29934999 0.26379194
v 0.068660302 -0.29947001 0.26379194
v 0.068660302 -0.29947001 0.26197886
v 0.069859481 -0.29934999 0.26379194
v 0.070410986 -0.29934999 0.26377098
v 0.070772171 -0.29934999 0.26370806
v 0.070772171 -0.29947001 0.26370806
v 0.070410986 -0.29947001 0.26377098
v 0.069859481 -0.29947001 0.26379194
v 0.070154161 -0.29934999 0.2585
v 0.067866302 -0.29934999 0.2585
v 0.067866302 -0.29934999 0.26450001
v 0.070117326 -0.29934999 0.26450001
v 0.070736871 -0.29934999 0.26445446
v 0.071220326 -0.29934999 0.26431787
v 0.071590724 -0.29934999 0.26408663
v 0.071871076 -0.29934999 0.26375717
v 0.072047582 -0.29934999 0.26336988
v 0.072106414 -0.29934999 0.2629652
v 0.072054229 -0.29934999 0.26259174
v 0.071897683 -0.29934999 0.26224079
v 0.071635742 -0.29934999 0.26193384
v 0.071267395 -0.29934999 0.26169235
v 0.071748805 -0.29934999 0.26147646
v 0.072104363 -0.29934999 0.26114801
v 0.072323842 -0.29934999 0.26072851
v 0.072396998 -0.29934999 0.26023943
v 0.072218962 -0.29934999 0.25945566
v 0.071778989 -0.29934999 0.258897
v 0.071122103 -0.29934999 0.25860027
v 0.07068264 -0.29934999 0.25852507
v 0.068660302 -0.29934999 0.26127081
v 0.068660302 -0.29934999 0.25920805
v 0.070154161 -0.29934999 0.25920805
v 0.070481582 -0.29934999 0.2592152
v 0.070694408 -0.29934999 0.2592367
v 0.071152797 -0.29934999 0.25940041
v 0.07145566 -0.29934999 0.25973396
v 0.071574354 -0.29934999 0.26023943
v 0.071402454 -0.29934999 0.26082264
v 0.070925646 -0.29934999 0.26117054
v 0.070553718 -0.29934999 0.26124573
v 0.07004775 -0.29934999 0.26127081
v 0.068660302 -0.29934999 0.26379194
v 0.068660302 -0.29934999 0.26197886
v 0.069957709 -0.29934999 0.26197886
v 0.070410986 -0.29934999 0.26199625
v 0.070714869 -0.29934999 0.26204844
v 0.071171212 -0.29934999 0.2623472
v 0.071324692 -0.29934999 0.26287107
v 0.071181445 -0.29934999 0.26339701
v 0.070772171 -0.29934999 0.26370806
v 0.070410986 -0.29934999 0.26377098
v 0.069859481 -0.29934999 0.26379194
v 0.070772171 -0.29934999 0.26370806
v 0.071181445 -0.29934999 0.26339701
v 0.071181445 -0.29947001 0.26339701
v 0.070772171 -0.29947001 0.26370806
v 0.071181445 -0.29934999 0.26339701
v 0.071324692 -0.29934999 0.26287107
v 0.071324692 -0.29947001 0.26287107
v 0.071181445 -0.29947001 0.26339701
v 0.071324692 -0.29934999 0.26287107
v 0.071171212 -0.29934999 0.2623472
v 0.071171212 -0.29947001 0.2623472
v 0.071324692 -0.29947001 0.26287107
v 0.071171212 -0.29934999 0.2623472
v 0.070714869 -0.29934999 0.26204844
v 0.070714869 -0.29947001 0.26204844
v 0.071171212 -0.29947001 0.2623472
v 0.070714869 -0.29934999 0.26204844
v 0.070410986 -0.29934999 0.26199625
v 0.069957709 -0.29934999 0.26197886
v 0.069957709 -0.29947001 0.26197886
v 0.070410986 -0.29947001 0.26199625
v 0.070714869 -0.29947001 0.26204844
v 0.069957709 -0.29934999 0.26197886
v 0.068660302 -0.29934999 0.26197886
v 0.068660302 -0.29947001 0.26197886
v 0.069957709 -0.29947001 0.26197886
v 0.071267395 -0.29934999 0.26169235
v 0.071635742 -0.29934999 0.26193384
v 0.071897683 -0.29934999 0.26224079
v 0.071897683 -0.29947001 0.26224079
v 0.071635742 -0.29947001 0.26193384
v 0.071267395 -0.29947001 0.26169235
v 0.072104363 -0.29934999 0.26114801
v 0.071748805 -0.29934999 0.26147646
v 0.071267395 -0.29934999 0.26169235
v 0.071267395 -0.29947001 0.26169235
v 0.071748805 -0.29947001 0.26147646
v 0.072104363 -0.29947001 0.26114801
v 0.071897683 -0.29934999 0.26224079
v 0.072054229 -0.29934999 0.26259174
v 0.072106414 -0.29934999 0.2629652
v 0.072106414 -0.29947001 0.2629652
v 0.072054229 -0.29947001 0.26259174
v 0.071897683 -0.29947001 0.26224079
v 0.072396998 -0.29934999 0.26023943
v 0.072323842 -0.29934999 0.26072851
v 0.072104363 -0.29934999 0.26114801
v 0.072104363 -0.29947001 0.26114801
v 0.072323842 -0.29947001 0.26072851
v 0.072396998 -0.29947001 0.26023943
v 0.072106414 -0.29934999 0.2629652
v 0.072047582 -0.29934999 0.26336988
v 0.071871076 -0.29934999 0.26375717
v 0.071871076 -0.29947001 0.26375717
v 0.072047582 -0.29947001 0.26336988
v 0.072106414 -0.29947001 0.2629652
v 0.072218962 -0.29934999 0.25945566
v 0.072396998 -0.29934999 0.26023943
v 0.072396998 -0.29947001 0.26023943
v 0.072218962 -0.29947001 0.25945566
v 0.071871076 -0.29934999 0.26375717
v 0.071590724 -0.29934999 0.26408663
v 0.071220326 -0.29934999 0.26431787
v 0.071220326 -0.29947001 0.26431787
v 0.071590724 -0.29947001 0.26408663
v 0.071871076 -0.29947001 0.26375717
f 1 2 4
f 4 2 3
f 5 6 10
f 10 6 9
f 9 6 7
f 9 7 8
f 11 12 16
f 16 12 15
f 15 12 13
f 15 13 14
f 17 18 20
f 20 18 19
f 21 22 24
f 24 22 23
f 25 26 28
f 28 26 27
f 29 30 32
f 32 30 31
f 33 34 36
f 36 34 35
f 37 38 42
f 42 38 41
f 41 38 39
f 41 39 40
f 43 44 46
f 46 44 45
f 47 48 50
f 50 48 49
f 51 52 54
f 54 52 53
f 55 56 58
f 58 56 57
f 59 60 62
f 62 60 61
f 63 64 66
f 66 64 65
f 67 68 72
f 72 68 71
f 71 68 69
f 71 69 70
f 73 74 76
f 76 74 75
f 78 99 77
f 77 99 100
f 77 100 98
f 98 100 111
f 98 111 112
f 79 109 78
f 78 109 110
f 78 110 99
f 109 79 108
f 108 79 80
f 108 80 107
f 107 80 81
f 107 81 106
f 106 81 82
f 106 82 105
f 105 82 83
f 105 83 84
f 84 85 105
f 105 85 104
f 104 85 86
f 104 86 87
f 88 118 87
f 87 118 119
f 87 119 103
f 103 119 102
f 102 119 120
f 102 120 101
f 101 120 121
f 101 121 100
f 100 121 111
f 118 88 117
f 117 88 89
f 117 89 90
f 90 91 117
f 117 91 92
f 117 92 93
f 117 93 116
f 116 93 94
f 116 94 95
f 116 95 115
f 115 95 96
f 115 96 114
f 114 96 97
f 114 97 113
f 113 97 112
f 112 97 98
f 103 104 87
f 122 123 125
f 125 123 124
f 126 127 129
f 129 127 128
f 130 131 135
f 135 131 134
f 134 131 132
f 134 132 133
f 137 159 136
f 136 159 160
f 136 160 161
f 159 137 158
f 158 137 138
f 158 138 171
f 171 138 170
f 170 138 139
f 170 139 180
f 180 139 179
f 179 139 140
f 179 140 178
f 178 140 141
f 178 141 177
f 177 141 142
f 177 142 143
f 177 143 176
f 176 143 144
f 176 144 145
f 145 146 176
f 176 146 147
f 176 147 148
f 176 148 175
f 175 148 149
f 175 149 174
f 174 149 167
f 174 167 168
f 167 149 166
f 166 149 150
f 166 150 151
f 166 151 165
f 165 151 152
f 165 152 153
f 153 154 165
f 165 154 164
f 164 154 155
f 164 155 163
f 163 155 156
f 163 156 162
f 162 156 157
f 162 157 161
f 161 157 136
f 174 168 173
f 173 168 169
f 173 169 172
f 172 169 158
f 172 158 171
f 181 182 184
f 184 182 183
f 185 186 188
f 188 186 187
f 189 190 192
f 192 190 191
f 193 194 196
f 196 194 195
f 197 198 202
f 202 198 201
f 201 198 199
f 201 199 200
f 203 204 206
f 206 204 205
f 207 208 212
f 212 208 211
f 211 208 209
f 211 209 210
f 213 214 218
f 218 214 217
f 217 214 215
f 217 215 216
f 219 220 224
f 224 220 223
f 223 220 221
f 223 221 222
f 225 226 230
f 230 226 229
f 229 226 227
f 229 227 228
f 231 232 236
f 236 232 235
f 235 232 233
f 235 233 234
f 237 238 240
f 240 238 239
f 241 242 246
f 246 242 245
f 245 242 243
f 245 243 244
