v 0.12292906 -0.29870001 0.221
v 0.12292906 -0.29870001 0.2223629
v 0.12292906 -0.29882 0.2223629
v 0.12292906 -0.29882 0.221
v 0.12253206 -0.29882 0.221
v 0.12292906 -0.29882 0.221
v 0.12292906 -0.29882 0.2223629
v 0.12433697 -0.29882 0.2223629
v 0.12433697 -0.29882 0.22271692
v 0.12292906 -0.29882 0.22271692
v 0.12292906 -0.29882 0.22364597
v 0.12455593 -0.29882 0.22364597
v 0.12455593 -0.29882 0.224
v 0.12253206 -0.29882 0.224
v 0.12292906 -0.29870001 0.2223629
v 0.12433697 -0.29870001 0.2223629
v 0.12433697 -0.29882 0.2223629
v 0.12292906 -0.29882 0.2223629
v 0.12253206 -0.29870001 0.221
v 0.12292906 -0.29870001 0.221
v 0.12292906 -0.29882 0.221
v 0.12253206 -0.29882 0.221
v 0.12433697 -0.29870001 0.2223629
v 0.12433697 -0.29870001 0.22271692
v 0.12433697 -0.29882 0.22271692
v 0.12433697 -0.29882 0.2223629
v 0.12292906 -0.29870001 0.221
v 0.12253206 -0.29870001 0.221
v 0.12253206 -0.29870001 0.224
v 0.12455593 -0.29870001 0.224
v 0.12455593 -0.29870001 0.22364597
v 0.12292906 -0.29870001 0.22364597
v 0.12292906 -0.29870001 0.22271692
v 0.12433697 -0.29870001 0.22271692
v 0.12433697 -0.29870001 0.2223629
v 0.12292906 -0.29870001 0.2223629
v 0.12433697 -0.29870001 0.22271692
v 0.12292906 -0.29870001 0.22271692
v 0.12292906 -0.29882 0.22271692
v 0.12433697 -0.29882 0.22271692
v 0.12292906 -0.29870001 0.22271692
v 0.12292906 -0.29870001 0.22364597
v 0.12292906 -0.29882 0.22364597
v 0.12292906 -0.29882 0.22271692
v 0.12292906 -0.29870001 0.22364597
v 0.12455593 -0.29870001 0.22364597
v 0.12455593 -0.29882 0.22364597
v 0.12292906 -0.29882 0.22364597
v 0.12455593 -0.29870001 0.22364597
v 0.12455593 -0.29870001 0.224
v 0.12455593 -0.29882 0.224
v 0.12455593 -0.29882 0.22364597
v 0.12455593 -0.29870001 0.224
v 0.12253206 -0.29870001 0.224
v 0.12253206 -0.29882 0.224
v 0.12455593 -0.29882 0.224
v 0.12253206 -0.29870001 0.224
v 0.12253206 -0.29870001 0.221
v 0.12253206 -0.29882 0.221
v 0.12253206 -0.29882 0.224
f 1 2 4
f 4 2 3
f 6 7 5
f 5 7 14
f 14 7 10
f 14 10 11
f 7 8 10
f 10 8 9
f 12 13 11
f 11 13 14
f 15 16 18
f 18 16 17
f 19 20 22
f 22 20 21
f 23 24 26
f 26 24 25
f 27 28 36
f 36 28 29
f 36 29 33
f 33 29 32
f 32 29 30
f 32 30 31
f 33 34 36
f 36 34 35
f 37 38 40
f 40 38 39
f 41 42 44
f 44 42 43
f 45 46 48
f 48 46 47
f 49 50 52
f 52 50 51
f 53 54 56
f 56 54 55
f 57 58 60
f 60 58 59
