v 0.48700001 0.61700001 0.24
v 0.48700001 0.62799999 0.24
v 0.48200001 0.62799999 0.24
v 0.48200001 0.61700001 0.24
v 0.48200001 0.61700001 0.24
v 0.48200001 0.61700001 0.095
v 0.48700001 0.61700001 0.095
v 0.48700001 0.61700001 0.24
v 0.48700001 0.62799999 0.24
v 0.48700001 0.62799999 0.095
v 0.48200001 0.62799999 0.095
v 0.48200001 0.62799999 0.24
v 0.48700001 0.61700001 0.24
v 0.48700001 0.61700001 0.095
v 0.48700001 0.62799999 0.095
v 0.48700001 0.62799999 0.24
v 0.48700001 0.62799999 0.095
v 0.48700001 0.61700001 0.095
v 0.48200001 0.61700001 0.095
v 0.48200001 0.62799999 0.095
v 0.48200001 0.62799999 0.24
v 0.48200001 0.62799999 0.095
v 0.48200001 0.61700001 0.095
v 0.48200001 0.61700001 0.24
f 2 3 1
f 1 3 4
f 5 6 8
f 8 6 7
f 9 10 12
f 12 10 11
f 13 14 16
f 16 14 15
f 18 19 17
f 17 19 20
f 21 22 24
f 24 22 23
