v 0.17157026 -0.29886999 0.26684999
v 0.17187462 -0.29886999 0.26684999
v 0.17187462 -0.29886999 0.26782429
v 0.17279243 -0.29886999 0.26915001
v 0.17243786 -0.29886999 0.26915001
v 0.1719923 -0.29886999 0.26847382
v 0.17174128 -0.29886999 0.26806746
v 0.17150751 -0.29886999 0.26845655
v 0.1710541 -0.29886999 0.26915001
v 0.17068384 -0.29886999 0.26915001
v 0.17157026 -0.29886999 0.26782429
v 0.17068384 -0.29875 0.26915001
v 0.17157026 -0.29875 0.26782429
v 0.17157026 -0.29886999 0.26782429
v 0.17068384 -0.29886999 0.26915001
v 0.17187462 -0.29875 0.26684999
v 0.17157026 -0.29875 0.26684999
v 0.17157026 -0.29875 0.26782429
v 0.17068384 -0.29875 0.26915001
v 0.1710541 -0.29875 0.26915001
v 0.17150751 -0.29875 0.26845655
v 0.17174128 -0.29875 0.26806746
v 0.1719923 -0.29875 0.26847382
v 0.17243786 -0.29875 0.26915001
v 0.17279243 -0.29875 0.26915001
v 0.17187462 -0.29875 0.26782429
v 0.17279243 -0.29875 0.26915001
v 0.17243786 -0.29875 0.26915001
v 0.17243786 -0.29886999 0.26915001
v 0.17279243 -0.29886999 0.26915001
v 0.17243786 -0.29875 0.26915001
v 0.1719923 -0.29875 0.26847382
v 0.1719923 -0.29886999 0.26847382
v 0.17243786 -0.29886999 0.26915001
v 0.17187462 -0.29875 0.26684999
v 0.17187462 -0.29875 0.26782429
v 0.17187462 -0.29886999 0.26782429
v 0.17187462 -0.29886999 0.26684999
v 0.17157026 -0.29875 0.26684999
v 0.17187462 -0.29875 0.26684999
v 0.17187462 -0.29886999 0.26684999
v 0.17157026 -0.29886999 0.26684999
v 0.17187462 -0.29875 0.26782429
v 0.17279243 -0.29875 0.26915001
v 0.17279243 -0.29886999 0.26915001
v 0.17187462 -0.29886999 0.26782429
v 0.17150751 -0.29875 0.26845655
v 0.1710541 -0.29875 0.26915001
v 0.1710541 -0.29886999 0.26915001
v 0.17150751 -0.29886999 0.26845655
v 0.1710541 -0.29875 0.26915001
v 0.17068384 -0.29875 0.26915001
v 0.17068384 -0.29886999 0.26915001
v 0.1710541 -0.29886999 0.26915001
v 0.17174128 -0.29875 0.26806746
v 0.17150751 -0.29875 0.26845655
v 0.17150751 -0.29886999 0.26845655
v 0.17174128 -0.29886999 0.26806746
v 0.17157026 -0.29875 0.26782429
v 0.17157026 -0.29875 0.26684999
v 0.17157026 -0.29886999 0.26684999
v 0.17157026 -0.29886999 0.26782429
v 0.1719923 -0.29875 0.26847382
v 0.17174128 -0.29875 0.26806746
v 0.17174128 -0.29886999 0.26806746
v 0.1719923 -0.29886999 0.26847382
f 1 2 11
f 11 2 3
f 11 3 7
f 7 3 6
f 6 3 4
f 6 4 5
f 7 8 11
f 11 8 10
f 10 8 9
f 12 13 15
f 15 13 14
f 16 17 26
f 26 17 18
f 26 18 22
f 22 18 21
f 21 18 19
f 21 19 20
f 22 23 26
f 26 23 25
f 25 23 24
f 27 28 30
f 30 28 29
f 31 32 34
f 34 32 33
f 35 36 38
f 38 36 37
f 39 40 42
f 42 40 41
f 43 44 46
f 46 44 45
f 47 48 50
f 50 48 49
f 51 52 54
f 54 52 53
f 55 56 58
f 58 56 57
f 59 60 62
f 62 60 61
f 63 64 66
f 66 64 65
