v 0 0.75 0.54
v 0 0.58 0.54
v 0.044000001 0.58 0.54
v 0.044000001 0.75 0.54
v 0 0 0.2032
v 0 0 0.063499999
v 0.044000001 0 0.063499999
v 0.044000001 0 0.2032
v 0.044000001 0.36 0.43888229
v 0 0.36 0.43888229
v 0 0.33466141 0.42534306
v 0 0.30949684 0.41148308
v 0 0.28451036 0.39730453
v 0 0.259706 0.38280979
v 0 0.23508776 0.3680011
v 0 0.2106596 0.35288094
v 0 0.18642548 0.33745167
v 0 0.1623893 0.32171585
v 0 0.13855494 0.30567595
v 0 0.11492624 0.2893346
v 0 0.091507025 0.27269444
v 0 0.068301063 0.25575815
v 0 0.045312104 0.23852844
v 0 0.022543859 0.22100811
v 0 0 0.2032
v 0.044000001 0 0.2032
v 0.044000001 0.022543859 0.22100811
v 0.044000001 0.045312104 0.23852844
v 0.044000001 0.068301063 0.25575815
v 0.044000001 0.091507025 0.27269444
v 0.044000001 0.11492624 0.2893346
v 0.044000001 0.13855494 0.30567595
v 0.044000001 0.1623893 0.32171585
v 0.044000001 0.18642548 0.33745167
v 0.044000001 0.2106596 0.35288094
v 0.044000001 0.23508776 0.3680011
v 0.044000001 0.259706 0.38280979
v 0.044000001 0.28451036 0.39730453
v 0.044000001 0.30949684 0.41148308
v 0.044000001 0.33466141 0.42534306
v 0 0.3 0.15
v 0 0.3 0.35
v 0.044000001 0.3 0.35
v 0.044000001 0.3 0.15
v 0 0.36212685 0.44
v 0.044000001 0.36212685 0.44
v 0.044000001 0.38876427 0.45375595
v 0.044000001 0.41558167 0.46715763
v 0.044000001 0.44257435 0.48020264
v 0.044000001 0.46973755 0.49288872
v 0.044000001 0.49706654 0.50521362
v 0.044000001 0.5245565 0.51717522
v 0.044000001 0.55220261 0.52877132
v 0.044000001 0.58 0.54
v 0 0.58 0.54
v 0 0.55220261 0.52877132
v 0 0.5245565 0.51717522
v 0 0.49706654 0.50521362
v 0 0.46973755 0.49288872
v 0 0.44257435 0.48020264
v 0 0.41558167 0.46715763
v 0 0.38876427 0.45375595
v 0 0.36 0.35
v 0.044000001 0.36 0.35
v 0.044000001 0.3 0.35
v 0 0.3 0.35
v 0 0.605 0.44
v 0 0.605 0.15
v 0.044000001 0.605 0.15
v 0.044000001 0.605 0.44
v 0 0.605 0.44
v 0 0.36212685 0.44
v 0 0.38876427 0.45375595
v 0 0.41558167 0.46715763
v 0 0.44257435 0.48020264
v 0 0.46973755 0.49288872
v 0 0.49706654 0.50521362
v 0 0.5245565 0.51717522
v 0 0.55220261 0.52877132
v 0 0.58 0.54
v 0 0.75 0.54
v 0 0.75 0.063499999
v 0 0 0.063499999
v 0 0 0.2032
v 0 0.022543859 0.22100811
v 0 0.045312104 0.23852844
v 0 0.068301063 0.25575815
v 0 0.091507025 0.27269444
v 0 0.11492624 0.2893346
v 0 0.13855494 0.30567595
v 0 0.1623893 0.32171585
v 0 0.18642548 0.33745167
v 0 0.2106596 0.35288094
v 0 0.23508776 0.3680011
v 0 0.259706 0.38280979
v 0 0.28451036 0.39730453
v 0 0.30949684 0.41148308
v 0 0.33466141 0.42534306
v 0 0.36 0.43888229
v 0 0.36 0.35
v 0 0.3 0.35
v 0 0.3 0.15
v 0 0.605 0.15
v 0 0 0.063499999
v 0 0.75 0.063499999
v 0.044000001 0.75 0.063499999
v 0.044000001 0 0.063499999
v 0 0.36 0.43888229
v 0.044000001 0.36 0.43888229
v 0.044000001 0.36 0.35
v 0 0.36 0.35
v 0 0.36212685 0.44
v 0 0.605 0.44
v 0.044000001 0.605 0.44
v 0.044000001 0.36212685 0.44
v 0.044000001 0.36212685 0.44
v 0.044000001 0.605 0.44
v 0.044000001 0.605 0.15
v 0.044000001 0.3 0.15
v 0.044000001 0.3 0.35
v 0.044000001 0.36 0.35
v 0.044000001 0.36 0.43888229
v 0.044000001 0.33466141 0.42534306
v 0.044000001 0.30949684 0.41148308
v 0.044000001 0.28451036 0.39730453
v 0.044000001 0.259706 0.38280979
v 0.044000001 0.23508776 0.3680011
v 0.044000001 0.2106596 0.35288094
v 0.044000001 0.18642548 0.33745167
v 0.044000001 0.1623893 0.32171585
v 0.044000001 0.13855494 0.30567595
v 0.044000001 0.11492624 0.2893346
v 0.044000001 0.091507025 0.27269444
v 0.044000001 0.068301063 0.25575815
v 0.044000001 0.045312104 0.23852844
v 0.044000001 0.022543859 0.22100811
v 0.044000001 0 0.2032
v 0.044000001 0 0.063499999
v 0.044000001 0.75 0.063499999
v 0.044000001 0.75 0.54
v 0.044000001 0.58 0.54
v 0.044000001 0.55220261 0.52877132
v 0.044000001 0.5245565 0.51717522
v 0.044000001 0.49706654 0.50521362
v 0.044000001 0.46973755 0.49288872
v 0.044000001 0.44257435 0.48020264
v 0.044000001 0.41558167 0.46715763
v 0.044000001 0.38876427 0.45375595
v 0 0.75 0.063499999
v 0 0.75 0.54
v 0.044000001 0.75 0.54
v 0.044000001 0.75 0.063499999
v 0 0.605 0.15
v 0 0.3 0.15
v 0.044000001 0.3 0.15
v 0.044000001 0.605 0.15
f 1 2 4
f 4 2 3
f 5 6 8
f 8 6 7
f 9 10 40
f 40 10 11
f 40 11 39
f 39 11 12
f 39 12 38
f 38 12 13
f 38 13 37
f 37 13 14
f 37 14 36
f 36 14 15
f 36 15 35
f 35 15 16
f 35 16 34
f 34 16 17
f 34 17 33
f 33 17 18
f 33 18 32
f 32 18 19
f 32 19 31
f 31 19 20
f 31 20 30
f 30 20 21
f 30 21 29
f 29 21 22
f 29 22 28
f 28 22 23
f 28 23 27
f 27 23 24
f 27 24 26
f 26 24 25
f 41 42 44
f 44 42 43
f 45 46 62
f 62 46 47
f 62 47 61
f 61 47 48
f 61 48 60
f 60 48 49
f 60 49 59
f 59 49 50
f 59 50 58
f 58 50 51
f 58 51 57
f 57 51 52
f 57 52 56
f 56 52 53
f 56 53 55
f 55 53 54
f 64 65 63
f 63 65 66
f 67 68 70
f 70 68 69
f 72 73 71
f 71 73 74
f 71 74 75
f 75 76 71
f 71 76 77
f 71 77 78
f 78 79 71
f 71 79 80
f 71 80 81
f 81 82 71
f 71 82 103
f 103 82 102
f 102 82 83
f 102 83 84
f 84 85 102
f 102 85 86
f 102 86 87
f 87 88 102
f 102 88 89
f 102 89 90
f 90 91 102
f 102 91 101
f 101 91 92
f 101 92 93
f 93 94 101
f 101 94 95
f 101 95 96
f 101 96 100
f 100 96 97
f 100 97 98
f 98 99 100
f 104 105 107
f 107 105 106
f 109 110 108
f 108 110 111
f 113 114 112
f 112 114 115
f 116 117 148
f 148 117 147
f 147 117 146
f 146 117 145
f 145 117 144
f 144 117 143
f 143 117 142
f 142 117 141
f 141 117 140
f 140 117 139
f 139 117 118
f 139 118 119
f 120 130 119
f 119 130 131
f 119 131 132
f 121 125 120
f 120 125 126
f 120 126 127
f 122 123 121
f 121 123 124
f 121 124 125
f 127 128 120
f 120 128 129
f 120 129 130
f 132 133 119
f 119 133 134
f 119 134 135
f 135 136 119
f 119 136 137
f 119 137 138
f 138 139 119
f 149 150 152
f 152 150 151
f 153 154 156
f 156 154 155
