v 0.049959755 0.12339059 9.9999998e-05
v 0.050462618 0.1226 9.9999998e-05
v 0.050462618 0.1226 0.000125
v 0.049959755 0.12339059 0.000125
v 0.050462618 0.1226 9.9999998e-05
v 0.05109509 0.1226 9.9999998e-05
v 0.05109509 0.1226 0.000125
v 0.050462618 0.1226 0.000125
v 0.049596863 0.12391418 9.9999998e-05
v 0.049959755 0.12339059 9.9999998e-05
v 0.049959755 0.12339059 0.000125
v 0.049596863 0.12391418 0.000125
v 0.05109509 0.1226 9.9999998e-05
v 0.050434108 0.12363424 9.9999998e-05
v 0.050434108 0.12363424 0.000125
v 0.05109509 0.1226 0.000125
v 0.04934154 0.12416821 9.9999998e-05
v 0.049596863 0.12391418 9.9999998e-05
v 0.049596863 0.12391418 0.000125
v 0.04934154 0.12416821 0.000125
v 0.050434108 0.12363424 9.9999998e-05
v 0.05001678 0.1241397 9.9999998e-05
v 0.05001678 0.1241397 0.000125
v 0.050434108 0.12363424 0.000125
v 0.049112144 0.1242693 9.9999998e-05
v 0.04934154 0.12416821 9.9999998e-05
v 0.04934154 0.12416821 0.000125
v 0.049112144 0.1242693 0.000125
v 0.05001678 0.1241397 9.9999998e-05
v 0.049713507 0.12432892 9.9999998e-05
v 0.049713507 0.12432892 0.000125
v 0.05001678 0.1241397 0.000125
v 0.048832197 0.12428745 9.9999998e-05
v 0.049112144 0.1242693 9.9999998e-05
v 0.049112144 0.1242693 0.000125
v 0.048832197 0.12428745 0.000125
v 0.049713507 0.12432892 9.9999998e-05
v 0.050189157 0.12445464 9.9999998e-05
v 0.050522237 0.12468144 9.9999998e-05
v 0.050522237 0.12468144 0.000125
v 0.050189157 0.12445464 0.000125
v 0.049713507 0.12432892 0.000125
v 0.048248978 0.12428745 9.9999998e-05
v 0.048832197 0.12428745 9.9999998e-05
v 0.048832197 0.12428745 0.000125
v 0.048248978 0.12428745 0.000125
v 0.050522237 0.12468144 9.9999998e-05
v 0.050718589 0.12499055 9.9999998e-05
v 0.050784039 0.12536317 9.9999998e-05
v 0.050784039 0.12536317 0.000125
v 0.050718589 0.12499055 0.000125
v 0.050522237 0.12468144 0.000125
v 0.048248978 0.1226 9.9999998e-05
v 0.048248978 0.12428745 9.9999998e-05
v 0.048248978 0.12428745 0.000125
v 0.048248978 0.1226 0.000125
v 0.050784039 0.12536317 9.9999998e-05
v 0.05062592 0.12593601 9.9999998e-05
v 0.05062592 0.12593601 0.000125
v 0.050784039 0.12536317 0.000125
v 0.047746115 0.1226 9.9999998e-05
v 0.048248978 0.1226 9.9999998e-05
v 0.048248978 0.1226 0.000125
v 0.047746115 0.1226 0.000125
v 0.05062592 0.12593601 9.9999998e-05
v 0.050203409 0.12629762 9.9999998e-05
v 0.050203409 0.12629762 0.000125
v 0.05062592 0.12593601 0.000125
v 0.050203409 0.12629762 9.9999998e-05
v 0.049878106 0.12637441 9.9999998e-05
v 0.049430971 0.1264 9.9999998e-05
v 0.049430971 0.1264 0.000125
v 0.049878106 0.12637441 0.000125
v 0.050203409 0.12629762 0.000125
v 0.049430971 0.1264 9.9999998e-05
v 0.047746115 0.1264 9.9999998e-05
v 0.047746115 0.1264 0.000125
v 0.049430971 0.1264 0.000125
v 0.047746115 0.1264 9.9999998e-05
v 0.047746115 0.1226 9.9999998e-05
v 0.047746115 0.1226 0.000125
v 0.047746115 0.1264 0.000125
v 0.047746115 0.1226 0.000125
v 0.048248978 0.1226 0.000125
v 0.048248978 0.12428745 0.000125
v 0.048832197 0.12428745 0.000125
v 0.049112144 0.1242693 0.000125
v 0.04934154 0.12416821 0.000125
v 0.049596863 0.12391418 0.000125
v 0.049959755 0.12339059 0.000125
v 0.050462618 0.1226 0.000125
v 0.05109509 0.1226 0.000125
v 0.050434108 0.12363424 0.000125
v 0.05001678 0.1241397 0.000125
v 0.049713507 0.12432892 0.000125
v 0.050189157 0.12445464 0.000125
v 0.050522237 0.12468144 0.000125
v 0.050718589 0.12499055 0.000125
v 0.050784039 0.12536317 0.000125
v 0.05062592 0.12593601 0.000125
v 0.050203409 0.12629762 0.000125
v 0.049878106 0.12637441 0.000125
v 0.049430971 0.1264 0.000125
v 0.047746115 0.1264 0.000125
v 0.048248978 0.12472292 0.000125
v 0.048248978 0.12598008 0.000125
v 0.049451704 0.12598008 0.000125
v 0.049817514 0.12593666 0.000125
v 0.050069919 0.12580641 0.000125
v 0.050216699 0.12560877 0.000125
v 0.050265622 0.12536317 0.000125
v 0.050164528 0.12502231 0.000125
v 0.049869032 0.12479421 0.000125
v 0.049329877 0.12472292 0.000125
v 0.048248978 0.12472292 9.9999998e-05
v 0.048248978 0.12598008 9.9999998e-05
v 0.048248978 0.12598008 0.000125
v 0.048248978 0.12472292 0.000125
v 0.048248978 0.12598008 9.9999998e-05
v 0.049451704 0.12598008 9.9999998e-05
v 0.049451704 0.12598008 0.000125
v 0.048248978 0.12598008 0.000125
v 0.048248978 0.1226 9.9999998e-05
v 0.047746115 0.1226 9.9999998e-05
v 0.047746115 0.1264 9.9999998e-05
v 0.049430971 0.1264 9.9999998e-05
v 0.049878106 0.12637441 9.9999998e-05
v 0.050203409 0.12629762 9.9999998e-05
v 0.05062592 0.12593601 9.9999998e-05
v 0.050784039 0.12536317 9.9999998e-05
v 0.050718589 0.12499055 9.9999998e-05
v 0.050522237 0.12468144 9.9999998e-05
v 0.050189157 0.12445464 9.9999998e-05
v 0.049713507 0.12432892 9.9999998e-05
v 0.05001678 0.1241397 9.9999998e-05
v 0.050434108 0.12363424 9.9999998e-05
v 0.05109509 0.1226 9.9999998e-05
v 0.050462618 0.1226 9.9999998e-05
v 0.049959755 0.12339059 9.9999998e-05
v 0.049596863 0.12391418 9.9999998e-05
v 0.04934154 0.12416821 9.9999998e-05
v 0.049112144 0.1242693 9.9999998e-05
v 0.048832197 0.12428745 9.9999998e-05
v 0.048248978 0.12428745 9.9999998e-05
v 0.048248978 0.12598008 9.9999998e-05
v 0.048248978 0.12472292 9.9999998e-05
v 0.049329877 0.12472292 9.9999998e-05
v 0.049869032 0.12479421 9.9999998e-05
v 0.050164528 0.12502231 9.9999998e-05
v 0.050265622 0.12536317 9.9999998e-05
v 0.050216699 0.12560877 9.9999998e-05
v 0.050069919 0.12580641 9.9999998e-05
v 0.049817514 0.12593666 9.9999998e-05
v 0.049451704 0.12598008 9.9999998e-05
v 0.049451704 0.12598008 9.9999998e-05
v 0.049817514 0.12593666 9.9999998e-05
v 0.050069919 0.12580641 9.9999998e-05
v 0.050069919 0.12580641 0.000125
v 0.049817514 0.12593666 0.000125
v 0.049451704 0.12598008 0.000125
v 0.050069919 0.12580641 9.9999998e-05
v 0.050216699 0.12560877 9.9999998e-05
v 0.050265622 0.12536317 9.9999998e-05
v 0.050265622 0.12536317 0.000125
v 0.050216699 0.12560877 0.000125
v 0.050069919 0.12580641 0.000125
v 0.050265622 0.12536317 9.9999998e-05
v 0.050164528 0.12502231 9.9999998e-05
v 0.050164528 0.12502231 0.000125
v 0.050265622 0.12536317 0.000125
v 0.050164528 0.12502231 9.9999998e-05
v 0.049869032 0.12479421 9.9999998e-05
v 0.049869032 0.12479421 0.000125
v 0.050164528 0.12502231 0.000125
v 0.049869032 0.12479421 9.9999998e-05
v 0.049329877 0.12472292 9.9999998e-05
v 0.049329877 0.12472292 0.000125
v 0.049869032 0.12479421 0.000125
v 0.049329877 0.12472292 9.9999998e-05
v 0.048248978 0.12472292 9.9999998e-05
v 0.048248978 0.12472292 0.000125
v 0.049329877 0.12472292 0.000125
f 1 2 4
f 4 2 3
f 5 6 8
f 8 6 7
f 9 10 12
f 12 10 11
f 13 14 16
f 16 14 15
f 17 18 20
f 20 18 19
f 21 22 24
f 24 22 23
f 25 26 28
f 28 26 27
f 29 30 32
f 32 30 31
f 33 34 36
f 36 34 35
f 37 38 42
f 42 38 41
f 41 38 39
f 41 39 40
f 43 44 46
f 46 44 45
f 47 48 52
f 52 48 51
f 51 48 49
f 51 49 50
f 53 54 56
f 56 54 55
f 57 58 60
f 60 58 59
f 61 62 64
f 64 62 63
f 65 66 68
f 68 66 67
f 69 70 74
f 74 70 73
f 73 70 71
f 73 71 72
f 75 76 78
f 78 76 77
f 79 80 82
f 82 80 81
f 84 85 83
f 83 85 104
f 104 85 105
f 104 105 106
f 85 86 105
f 105 86 114
f 114 86 87
f 114 87 88
f 114 88 95
f 95 88 89
f 95 89 94
f 94 89 90
f 94 90 93
f 93 90 91
f 93 91 92
f 114 95 113
f 113 95 96
f 113 96 112
f 112 96 97
f 112 97 98
f 112 98 111
f 111 98 99
f 111 99 110
f 110 99 100
f 110 100 109
f 109 100 101
f 109 101 108
f 108 101 102
f 108 102 107
f 107 102 103
f 107 103 106
f 106 103 104
f 115 116 118
f 118 116 117
f 119 120 122
f 122 120 121
f 123 124 144
f 144 124 125
f 144 125 146
f 146 125 145
f 145 125 126
f 145 126 154
f 154 126 127
f 154 127 153
f 153 127 128
f 153 128 152
f 152 128 129
f 152 129 151
f 151 129 130
f 151 130 150
f 150 130 131
f 150 131 149
f 149 131 132
f 149 132 133
f 149 133 148
f 148 133 134
f 148 134 147
f 147 134 141
f 147 141 142
f 141 134 140
f 140 134 135
f 140 135 139
f 139 135 136
f 139 136 138
f 138 136 137
f 142 143 147
f 147 143 146
f 146 143 144
f 155 156 160
f 160 156 159
f 159 156 157
f 159 157 158
f 161 162 166
f 166 162 165
f 165 162 163
f 165 163 164
f 167 168 170
f 170 168 169
f 171 172 174
f 174 172 173
f 175 176 178
f 178 176 177
f 179 180 182
f 182 180 181
