v 0.1551753 -0.29870001 0.195
v 0.15555799 -0.29870001 0.195
v 0.15555799 -0.29882 0.195
v 0.1551753 -0.29882 0.195
v 0.15555799 -0.29870001 0.195
v 0.15638062 -0.29870001 0.19799999
v 0.15638062 -0.29882 0.19799999
v 0.15555799 -0.29882 0.195
v 0.15454297 -0.29870001 0.1972858
v 0.1551753 -0.29870001 0.195
v 0.1551753 -0.29882 0.195
v 0.15454297 -0.29882 0.1972858
v 0.15638062 -0.29870001 0.19799999
v 0.15598158 -0.29870001 0.19799999
v 0.15598158 -0.29882 0.19799999
v 0.15638062 -0.29882 0.19799999
v 0.15444884 -0.29870001 0.19763779
v 0.15447953 -0.29870001 0.19751705
v 0.15454297 -0.29870001 0.1972858
v 0.15454297 -0.29882 0.1972858
v 0.15447953 -0.29882 0.19751705
v 0.15444884 -0.29882 0.19763779
v 0.15598158 -0.29870001 0.19799999
v 0.15551091 -0.29870001 0.19607231
v 0.15551091 -0.29882 0.19607231
v 0.15598158 -0.29882 0.19799999
v 0.15436085 -0.29870001 0.1972858
v 0.15444884 -0.29870001 0.19763779
v 0.15444884 -0.29882 0.19763779
v 0.15436085 -0.29882 0.1972858
v 0.15551091 -0.29870001 0.19607231
v 0.15536153 -0.29870001 0.1954195
v 0.15536153 -0.29882 0.1954195
v 0.15551091 -0.29882 0.19607231
v 0.15372442 -0.29870001 0.195
v 0.15436085 -0.29870001 0.1972858
v 0.15436085 -0.29882 0.1972858
v 0.15372442 -0.29882 0.195
v 0.15536153 -0.29870001 0.1954195
v 0.15512824 -0.29870001 0.19648159
v 0.15512824 -0.29882 0.19648159
v 0.15536153 -0.29882 0.1954195
v 0.15252319 -0.29870001 0.19799999
v 0.15331923 -0.29870001 0.195
v 0.15331923 -0.29882 0.195
v 0.15252319 -0.29882 0.19799999
v 0.15338676 -0.29870001 0.19603342
v 0.15293042 -0.29870001 0.19799999
v 0.15293042 -0.29882 0.19799999
v 0.15338676 -0.29882 0.19603342
v 0.15351364 -0.29870001 0.1954195
v 0.15338676 -0.29870001 0.19603342
v 0.15338676 -0.29882 0.19603342
v 0.15351364 -0.29882 0.1954195
v 0.1536487 -0.29870001 0.19597408
v 0.15360471 -0.29870001 0.19579861
v 0.15351364 -0.29870001 0.1954195
v 0.15351364 -0.29882 0.1954195
v 0.15360471 -0.29882 0.19579861
v 0.1536487 -0.29882 0.19597408
v 0.15421965 -0.29870001 0.19799999
v 0.1536487 -0.29870001 0.19597408
v 0.1536487 -0.29882 0.19597408
v 0.15421965 -0.29882 0.19799999
v 0.15293042 -0.29870001 0.19799999
v 0.15252319 -0.29870001 0.19799999
v 0.15252319 -0.29882 0.19799999
v 0.15293042 -0.29882 0.19799999
v 0.15331923 -0.29882 0.195
v 0.15372442 -0.29882 0.195
v 0.15436085 -0.29882 0.1972858
v 0.15444884 -0.29882 0.19763779
v 0.15447953 -0.29882 0.19751705
v 0.15454297 -0.29882 0.1972858
v 0.1551753 -0.29882 0.195
v 0.15555799 -0.29882 0.195
v 0.15638062 -0.29882 0.19799999
v 0.15598158 -0.29882 0.19799999
v 0.15551091 -0.29882 0.19607231
v 0.15536153 -0.29882 0.1954195
v 0.15512824 -0.29882 0.19648159
v 0.1546985 -0.29882 0.19799999
v 0.15421965 -0.29882 0.19799999
v 0.1536487 -0.29882 0.19597408
v 0.15360471 -0.29882 0.19579861
v 0.15351364 -0.29882 0.1954195
v 0.15338676 -0.29882 0.19603342
v 0.15293042 -0.29882 0.19799999
v 0.15252319 -0.29882 0.19799999
v 0.15512824 -0.29870001 0.19648159
v 0.1546985 -0.29870001 0.19799999
v 0.1546985 -0.29882 0.19799999
v 0.15512824 -0.29882 0.19648159
v 0.15331923 -0.29870001 0.195
v 0.15372442 -0.29870001 0.195
v 0.15372442 -0.29882 0.195
v 0.15331923 -0.29882 0.195
v 0.1546985 -0.29870001 0.19799999
v 0.15421965 -0.29870001 0.19799999
v 0.15421965 -0.29882 0.19799999
v 0.1546985 -0.29882 0.19799999
v 0.15372442 -0.29870001 0.195
v 0.15331923 -0.29870001 0.195
v 0.15252319 -0.29870001 0.19799999
v 0.15293042 -0.29870001 0.19799999
v 0.15338676 -0.29870001 0.19603342
v 0.15351364 -0.29870001 0.1954195
v 0.15360471 -0.29870001 0.19579861
v 0.1536487 -0.29870001 0.19597408
v 0.15421965 -0.29870001 0.19799999
v 0.1546985 -0.29870001 0.19799999
v 0.15512824 -0.29870001 0.19648159
v 0.15536153 -0.29870001 0.1954195
v 0.15551091 -0.29870001 0.19607231
v 0.15598158 -0.29870001 0.19799999
v 0.15638062 -0.29870001 0.19799999
v 0.15555799 -0.29870001 0.195
v 0.1551753 -0.29870001 0.195
v 0.15454297 -0.29870001 0.1972858
v 0.15447953 -0.29870001 0.19751705
v 0.15444884 -0.29870001 0.19763779
v 0.15436085 -0.29870001 0.1972858
f 1 2 4
f 4 2 3
f 5 6 8
f 8 6 7
f 9 10 12
f 12 10 11
f 13 14 16
f 16 14 15
f 17 18 22
f 22 18 21
f 21 18 19
f 21 19 20
f 23 24 26
f 26 24 25
f 27 28 30
f 30 28 29
f 31 32 34
f 34 32 33
f 35 36 38
f 38 36 37
f 39 40 42
f 42 40 41
f 43 44 46
f 46 44 45
f 47 48 50
f 50 48 49
f 51 52 54
f 54 52 53
f 55 56 60
f 60 56 59
f 59 56 57
f 59 57 58
f 61 62 64
f 64 62 63
f 65 66 68
f 68 66 67
f 70 86 69
f 69 86 87
f 69 87 89
f 89 87 88
f 71 84 70
f 70 84 85
f 70 85 86
f 84 71 83
f 83 71 72
f 83 72 82
f 82 72 73
f 82 73 74
f 82 74 81
f 81 74 75
f 81 75 80
f 80 75 76
f 80 76 79
f 79 76 77
f 79 77 78
f 90 91 93
f 93 91 92
f 94 95 97
f 97 95 96
f 98 99 101
f 101 99 100
f 103 107 102
f 102 107 108
f 102 108 109
f 107 103 106
f 106 103 104
f 106 104 105
f 102 109 122
f 122 109 110
f 122 110 121
f 121 110 111
f 121 111 120
f 120 111 119
f 119 111 112
f 119 112 118
f 118 112 113
f 118 113 117
f 117 113 114
f 117 114 116
f 116 114 115
