v 0.095270119 -9.9999998e-05 0.065999999
v 0.097027283 -9.9999998e-05 0.070845838
v 0.097027283 -0.00022 0.070845838
v 0.095270119 -0.00022 0.065999999
v 0.093021822 -9.9999998e-05 0.065999999
v 0.095270119 -9.9999998e-05 0.065999999
v 0.095270119 -0.00022 0.065999999
v 0.093021822 -0.00022 0.065999999
v 0.097027283 -9.9999998e-05 0.070845838
v 0.10371759 -9.9999998e-05 0.070845838
v 0.10371759 -0.00022 0.070845838
v 0.097027283 -0.00022 0.070845838
v 0.10371759 -9.9999998e-05 0.070845838
v 0.1055839 -9.9999998e-05 0.065999999
v 0.1055839 -0.00022 0.065999999
v 0.10371759 -0.00022 0.070845838
v 0.1055839 -9.9999998e-05 0.065999999
v 0.1079959 -9.9999998e-05 0.065999999
v 0.1079959 -0.00022 0.065999999
v 0.1055839 -0.00022 0.065999999
v 0.093021822 -0.00022 0.065999999
v 0.095270119 -0.00022 0.065999999
v 0.097027283 -0.00022 0.070845838
v 0.10371759 -0.00022 0.070845838
v 0.1055839 -0.00022 0.065999999
v 0.1079959 -0.00022 0.065999999
v 0.10144747 -0.00022 0.081999998
v 0.099166431 -0.00022 0.081999998
v 0.097638464 -0.00022 0.072570257
v 0.099395628 -0.00022 0.077263298
v 0.099889488 -0.00022 0.07878581
v 0.10025784 -0.00022 0.080319233
v 0.10046794 -0.00022 0.079624829
v 0.10072715 -0.00022 0.07884038
v 0.10103547 -0.00022 0.077965894
v 0.1013929 -0.00022 0.077001362
v 0.10306275 -0.00022 0.072570257
v 0.1079959 -9.9999998e-05 0.065999999
v 0.10144747 -9.9999998e-05 0.081999998
v 0.10144747 -0.00022 0.081999998
v 0.1079959 -0.00022 0.065999999
v 0.10144747 -9.9999998e-05 0.081999998
v 0.099166431 -9.9999998e-05 0.081999998
v 0.099166431 -0.00022 0.081999998
v 0.10144747 -0.00022 0.081999998
v 0.095270119 -9.9999998e-05 0.065999999
v 0.093021822 -9.9999998e-05 0.065999999
v 0.099166431 -9.9999998e-05 0.081999998
v 0.10144747 -9.9999998e-05 0.081999998
v 0.1079959 -9.9999998e-05 0.065999999
v 0.1055839 -9.9999998e-05 0.065999999
v 0.10371759 -9.9999998e-05 0.070845838
v 0.097027283 -9.9999998e-05 0.070845838
v 0.099395628 -9.9999998e-05 0.077263298
v 0.097638464 -9.9999998e-05 0.072570257
v 0.10306275 -9.9999998e-05 0.072570257
v 0.1013929 -9.9999998e-05 0.077001362
v 0.10103547 -9.9999998e-05 0.077965894
v 0.10072715 -9.9999998e-05 0.07884038
v 0.10046794 -9.9999998e-05 0.079624829
v 0.10025784 -9.9999998e-05 0.080319233
v 0.099889488 -9.9999998e-05 0.07878581
v 0.099166431 -9.9999998e-05 0.081999998
v 0.093021822 -9.9999998e-05 0.065999999
v 0.093021822 -0.00022 0.065999999
v 0.099166431 -0.00022 0.081999998
v 0.097638464 -9.9999998e-05 0.072570257
v 0.099395628 -9.9999998e-05 0.077263298
v 0.099395628 -0.00022 0.077263298
v 0.097638464 -0.00022 0.072570257
v 0.099395628 -9.9999998e-05 0.077263298
v 0.099889488 -9.9999998e-05 0.07878581
v 0.10025784 -9.9999998e-05 0.080319233
v 0.10025784 -0.00022 0.080319233
v 0.099889488 -0.00022 0.07878581
v 0.099395628 -0.00022 0.077263298
v 0.10025784 -9.9999998e-05 0.080319233
v 0.10046794 -9.9999998e-05 0.079624829
v 0.10072715 -9.9999998e-05 0.07884038
v 0.10103547 -9.9999998e-05 0.077965894
v 0.1013929 -9.9999998e-05 0.077001362
v 0.1013929 -0.00022 0.077001362
v 0.10103547 -0.00022 0.077965894
v 0.10072715 -0.00022 0.07884038
v 0.10046794 -0.00022 0.079624829
v 0.10025784 -0.00022 0.080319233
v 0.1013929 -9.9999998e-05 0.077001362
v 0.10306275 -9.9999998e-05 0.072570257
v 0.10306275 -0.00022 0.072570257
v 0.1013929 -0.00022 0.077001362
v 0.10306275 -9.9999998e-05 0.072570257
v 0.097638464 -9.9999998e-05 0.072570257
v 0.097638464 -0.00022 0.072570257
v 0.10306275 -0.00022 0.072570257
f 1 2 4
f 4 2 3
f 5 6 8
f 8 6 7
f 9 10 12
f 12 10 11
f 13 14 16
f 16 14 15
f 17 18 20
f 20 18 19
f 22 23 21
f 21 23 29
f 21 29 28
f 28 29 30
f 28 30 31
f 29 23 37
f 37 23 24
f 37 24 26
f 26 24 25
f 26 27 37
f 37 27 36
f 36 27 35
f 35 27 34
f 34 27 33
f 33 27 32
f 32 27 28
f 32 28 31
f 38 39 41
f 41 39 40
f 42 43 45
f 45 43 44
f 46 47 53
f 53 47 55
f 53 55 56
f 47 48 55
f 55 48 54
f 54 48 62
f 62 48 61
f 61 48 49
f 61 49 60
f 60 49 59
f 59 49 58
f 58 49 57
f 57 49 56
f 56 49 50
f 56 50 52
f 52 50 51
f 52 53 56
f 63 64 66
f 66 64 65
f 67 68 70
f 70 68 69
f 71 72 76
f 76 72 75
f 75 72 73
f 75 73 74
f 77 78 86
f 86 78 85
f 85 78 79
f 85 79 84
f 84 79 80
f 84 80 83
f 83 80 81
f 83 81 82
f 87 88 90
f 90 88 89
f 91 92 94
f 94 92 93
