v -0.03 -0.043000002 0.45299999
v -0.03 -0.043000002 0.45
v 0.088000002 -0.043000002 0.45
v 0.088000002 -0.043000002 0.45299999
v -0.093000002 -0.01 0.45
v -0.03 -0.01 0.45
v -0.03 -0.01 0.45299999
v -0.093000002 -0.01 0.45299999
v 0.088000002 -0.043000002 0.45
v 0.088000002 0.039000001 0.45
v 0.088000002 0.039000001 0.45299999
v 0.088000002 -0.043000002 0.45299999
v 0.088000002 0.039000001 0.45
v -0.093000002 0.039000001 0.45
v -0.093000002 0.039000001 0.45299999
v 0.088000002 0.039000001 0.45299999
v -0.03 -0.01 0.45
v -0.03 -0.043000002 0.45
v -0.03 -0.043000002 0.45299999
v -0.03 -0.01 0.45299999
v -0.03 -0.01 0.45
v -0.093000002 -0.01 0.45
v -0.093000002 0.039000001 0.45
v 0.088000002 0.039000001 0.45
v 0.088000002 -0.043000002 0.45
v -0.03 -0.043000002 0.45
v -0.093000002 -0.01 0.45299999
v -0.03 -0.01 0.45299999
v -0.03 -0.043000002 0.45299999
v 0.088000002 -0.043000002 0.45299999
v 0.088000002 0.039000001 0.45299999
v -0.093000002 0.039000001 0.45299999
v -0.093000002 -0.01 0.45
v -0.093000002 -0.01 0.45299999
v -0.093000002 0.039000001 0.45299999
v -0.093000002 0.039000001 0.45
f 2 3 1
f 1 3 4
f 6 7 5
f 5 7 8
f 9 10 12
f 12 10 11
f 13 14 16
f 16 14 15
f 18 19 17
f 17 19 20
f 22 23 21
f 21 23 24
f 21 24 25
f 25 26 21
f 27 28 32
f 32 28 31
f 31 28 30
f 30 28 29
f 34 35 33
f 33 35 36
