v 0.48400002 0.26 0.38400002
v 0.48419708 0.2568049 0.38400002
v 0.48478527 0.25365824 0.38400002
v 0.48575573 0.25060772 0.38400002
v 0.4870937 0.24769957 0.38400002
v 0.48877888 0.24497787 0.38400002
v 0.49078575 0.24248392 0.38400002
v 0.49308392 0.24025547 0.38400002
v 0.4956385 0.23832634 0.38400002
v 0.4984108 0.23672575 0.38400002
v 0.50135876 0.23547798 0.38400002
v 0.50443775 0.23460194 0.38400002
v 0.50760101 0.23411091 0.38400002
v 0.51080067 0.23401234 0.38400002
v 0.51398819 0.23430769 0.38400002
v 0.51711525 0.23499254 0.38400002
v 0.52013443 0.23605646 0.38400002
v 0.52299999 0.23748335 0.38400002
v 0.52566849 0.23925156 0.38400002
v 0.52809948 0.24133429 0.38400002
v 0.53025608 0.24369999 0.38400002
v 0.53210564 0.24631277 0.38400002
v 0.53362011 0.24913303 0.38400002
v 0.5347765 0.25211803 0.38400002
v 0.53555729 0.25522251 0.38400002
v 0.5359507 0.25839941 0.38400002
v 0.5359507 0.26160059 0.38400002
v 0.53555729 0.26477749 0.38400002
v 0.5347765 0.26788197 0.38400002
v 0.53362011 0.27086697 0.38400002
v 0.53210564 0.27368723 0.38400002
v 0.53025608 0.27630001 0.38400002
v 0.52809948 0.27866571 0.38400002
v 0.52566849 0.28074844 0.38400002
v 0.52299999 0.28251665 0.38400002
v 0.52013443 0.28394354 0.38400002
v 0.51711525 0.28500746 0.38400002
v 0.51398819 0.28569231 0.38400002
v 0.51080067 0.28598766 0.38400002
v 0.50760101 0.28588909 0.38400002
v 0.50443775 0.28539806 0.38400002
v 0.50135876 0.28452202 0.38400002
v 0.4984108 0.28327425 0.38400002
v 0.4956385 0.28167366 0.38400002
v 0.49308392 0.27974453 0.38400002
v 0.49078575 0.27751608 0.38400002
v 0.48877888 0.27502213 0.38400002
v 0.4870937 0.27230043 0.38400002
v 0.48575573 0.26939228 0.38400002
v 0.48478527 0.26634176 0.38400002
v 0.48419708 0.2631951 0.38400002
v 0.48400002 0.26 0.38400002
v 0.48419708 0.2631951 0.38400002
v 0.48478527 0.26634176 0.38400002
v 0.48575573 0.26939228 0.38400002
v 0.4870937 0.27230043 0.38400002
v 0.48877888 0.27502213 0.38400002
v 0.49078575 0.27751608 0.38400002
v 0.49308392 0.27974453 0.38400002
v 0.4956385 0.28167366 0.38400002
v 0.4984108 0.28327425 0.38400002
v 0.50135876 0.28452202 0.38400002
v 0.50443775 0.28539806 0.38400002
v 0.50760101 0.28588909 0.38400002
v 0.51080067 0.28598766 0.38400002
v 0.51398819 0.28569231 0.38400002
v 0.51711525 0.28500746 0.38400002
v 0.52013443 0.28394354 0.38400002
v 0.52299999 0.28251665 0.38400002
v 0.52566849 0.28074844 0.38400002
v 0.52809948 0.27866571 0.38400002
v 0.53025608 0.27630001 0.38400002
v 0.53210564 0.27368723 0.38400002
v 0.53362011 0.27086697 0.38400002
v 0.5347765 0.26788197 0.38400002
v 0.53555729 0.26477749 0.38400002
v 0.5359507 0.26160059 0.38400002
v 0.5359507 0.25839941 0.38400002
v 0.53555729 0.25522251 0.38400002
v 0.5347765 0.25211803 0.38400002
v 0.53362011 0.24913303 0.38400002
v 0.53210564 0.24631277 0.38400002
v 0.53025608 0.24369999 0.38400002
v 0.52809948 0.24133429 0.38400002
v 0.52566849 0.23925156 0.38400002
v 0.52299999 0.23748335 0.38400002
v 0.52013443 0.23605646 0.38400002
v 0.51711525 0.23499254 0.38400002
v 0.51398819 0.23430769 0.38400002
v 0.51080067 0.23401234 0.38400002
v 0.50760101 0.23411091 0.38400002
v 0.50443775 0.23460194 0.38400002
v 0.50135876 0.23547798 0.38400002
v 0.4984108 0.23672575 0.38400002
v 0.4956385 0.23832634 0.38400002
v 0.49308392 0.24025547 0.38400002
v 0.49078575 0.24248392 0.38400002
v 0.48877888 0.24497787 0.38400002
v 0.4870937 0.24769957 0.38400002
v 0.48575573 0.25060772 0.38400002
v 0.48478527 0.25365824 0.38400002
v 0.48419708 0.2568049 0.38400002
v 0.48400002 0.26 0.35200001
v 0.48419708 0.2568049 0.35200001
v 0.48478527 0.25365824 0.35200001
v 0.48575573 0.25060772 0.35200001
v 0.4870937 0.24769957 0.35200001
v 0.48877888 0.24497787 0.35200001
v 0.49078575 0.24248392 0.35200001
v 0.49308392 0.24025547 0.35200001
v 0.4956385 0.23832634 0.35200001
v 0.4984108 0.23672575 0.35200001
v 0.50135876 0.23547798 0.35200001
v 0.50443775 0.23460194 0.35200001
v 0.50760101 0.23411091 0.35200001
v 0.51080067 0.23401234 0.35200001
v 0.51398819 0.23430769 0.35200001
v 0.51711525 0.23499254 0.35200001
v 0.52013443 0.23605646 0.35200001
v 0.52299999 0.23748335 0.35200001
v 0.52566849 0.23925156 0.35200001
v 0.52809948 0.24133429 0.35200001
v 0.53025608 0.24369999 0.35200001
v 0.53210564 0.24631277 0.35200001
v 0.53362011 0.24913303 0.35200001
v 0.5347765 0.25211803 0.35200001
v 0.53555729 0.25522251 0.35200001
v 0.5359507 0.25839941 0.35200001
v 0.5359507 0.26160059 0.35200001
v 0.53555729 0.26477749 0.35200001
v 0.5347765 0.26788197 0.35200001
v 0.53362011 0.27086697 0.35200001
v 0.53210564 0.27368723 0.35200001
v 0.53025608 0.27630001 0.35200001
v 0.52809948 0.27866571 0.35200001
v 0.52566849 0.28074844 0.35200001
v 0.52299999 0.28251665 0.35200001
v 0.52013443 0.28394354 0.35200001
v 0.51711525 0.28500746 0.35200001
v 0.51398819 0.28569231 0.35200001
v 0.51080067 0.28598766 0.35200001
v 0.50760101 0.28588909 0.35200001
v 0.50443775 0.28539806 0.35200001
v 0.50135876 0.28452202 0.35200001
v 0.4984108 0.28327425 0.35200001
v 0.4956385 0.28167366 0.35200001
v 0.49308392 0.27974453 0.35200001
v 0.49078575 0.27751608 0.35200001
v 0.48877888 0.27502213 0.35200001
v 0.4870937 0.27230043 0.35200001
v 0.48575573 0.26939228 0.35200001
v 0.48478527 0.26634176 0.35200001
v 0.48419708 0.2631951 0.35200001
v 0.48400002 0.26 0.35200001
v 0.48400002 0.26 0.38400002
v 0.48400002 0.26 0.35200001
v 0.48419708 0.2631951 0.35200001
v 0.48478527 0.26634176 0.35200001
v 0.48575573 0.26939228 0.35200001
v 0.4870937 0.27230043 0.35200001
v 0.48877888 0.27502213 0.35200001
v 0.49078575 0.27751608 0.35200001
v 0.49308392 0.27974453 0.35200001
v 0.4956385 0.28167366 0.35200001
v 0.4984108 0.28327425 0.35200001
v 0.50135876 0.28452202 0.35200001
v 0.50443775 0.28539806 0.35200001
v 0.50760101 0.28588909 0.35200001
v 0.51080067 0.28598766 0.35200001
v 0.51398819 0.28569231 0.35200001
v 0.51711525 0.28500746 0.35200001
v 0.52013443 0.28394354 0.35200001
v 0.52299999 0.28251665 0.35200001
v 0.52566849 0.28074844 0.35200001
v 0.52809948 0.27866571 0.35200001
v 0.53025608 0.27630001 0.35200001
v 0.53210564 0.27368723 0.35200001
v 0.53362011 0.27086697 0.35200001
v 0.5347765 0.26788197 0.35200001
v 0.53555729 0.26477749 0.35200001
v 0.5359507 0.26160059 0.35200001
v 0.5359507 0.25839941 0.35200001
v 0.53555729 0.25522251 0.35200001
v 0.5347765 0.25211803 0.35200001
v 0.53362011 0.24913303 0.35200001
v 0.53210564 0.24631277 0.35200001
v 0.53025608 0.24369999 0.35200001
v 0.52809948 0.24133429 0.35200001
v 0.52566849 0.23925156 0.35200001
v 0.52299999 0.23748335 0.35200001
v 0.52013443 0.23605646 0.35200001
v 0.51711525 0.23499254 0.35200001
v 0.51398819 0.23430769 0.35200001
v 0.51080067 0.23401234 0.35200001
v 0.50760101 0.23411091 0.35200001
v 0.50443775 0.23460194 0.35200001
v 0.50135876 0.23547798 0.35200001
v 0.4984108 0.23672575 0.35200001
v 0.4956385 0.23832634 0.35200001
v 0.49308392 0.24025547 0.35200001
v 0.49078575 0.24248392 0.35200001
v 0.48877888 0.24497787 0.35200001
v 0.4870937 0.24769957 0.35200001
v 0.48575573 0.25060772 0.35200001
v 0.48478527 0.25365824 0.35200001
v 0.48419708 0.2568049 0.35200001
f 1 2 51
f 51 2 50
f 50 2 3
f 50 3 49
f 49 3 48
f 48 3 47
f 47 3 46
f 46 3 45
f 45 3 44
f 44 3 43
f 43 3 42
f 42 3 41
f 41 3 40
f 40 3 39
f 39 3 38
f 38 3 37
f 37 3 36
f 36 3 35
f 35 3 34
f 34 3 33
f 33 3 32
f 32 3 31
f 31 3 30
f 30 3 29
f 29 3 28
f 28 3 27
f 27 3 26
f 26 3 25
f 25 3 24
f 24 3 4
f 24 4 23
f 23 4 5
f 23 5 22
f 22 5 6
f 22 6 21
f 21 6 7
f 21 7 20
f 20 7 8
f 20 8 19
f 19 8 9
f 19 9 18
f 18 9 10
f 18 10 17
f 17 10 11
f 17 11 16
f 16 11 12
f 16 12 15
f 15 12 13
f 15 13 14
f 53 153 52
f 52 153 154
f 155 103 102
f 102 103 104
f 102 104 101
f 101 104 105
f 101 105 100
f 100 105 106
f 100 106 99
f 99 106 107
f 99 107 98
f 98 107 108
f 98 108 97
f 97 108 109
f 97 109 96
f 96 109 110
f 96 110 95
f 95 110 111
f 95 111 94
f 94 111 112
f 94 112 93
f 93 112 113
f 93 113 92
f 92 113 114
f 92 114 91
f 91 114 115
f 91 115 90
f 90 115 116
f 90 116 89
f 89 116 117
f 89 117 88
f 88 117 118
f 88 118 87
f 87 118 119
f 87 119 86
f 86 119 120
f 86 120 85
f 85 120 121
f 85 121 84
f 84 121 122
f 84 122 83
f 83 122 123
f 83 123 82
f 82 123 124
f 82 124 81
f 81 124 125
f 81 125 80
f 80 125 126
f 80 126 79
f 79 126 127
f 79 127 78
f 78 127 128
f 78 128 77
f 77 128 129
f 77 129 76
f 76 129 130
f 76 130 75
f 75 130 131
f 75 131 74
f 74 131 132
f 74 132 73
f 73 132 133
f 73 133 72
f 72 133 134
f 72 134 71
f 71 134 135
f 71 135 70
f 70 135 136
f 70 136 69
f 69 136 137
f 69 137 68
f 68 137 138
f 68 138 67
f 67 138 139
f 67 139 66
f 66 139 140
f 66 140 65
f 65 140 141
f 65 141 64
f 64 141 142
f 64 142 63
f 63 142 143
f 63 143 62
f 62 143 144
f 62 144 61
f 61 144 145
f 61 145 60
f 60 145 146
f 60 146 59
f 59 146 147
f 59 147 58
f 58 147 148
f 58 148 57
f 57 148 149
f 57 149 56
f 56 149 150
f 56 150 55
f 55 150 151
f 55 151 54
f 54 151 152
f 54 152 53
f 53 152 153
f 156 157 206
f 206 157 158
f 206 158 205
f 205 158 159
f 205 159 160
f 160 161 205
f 205 161 162
f 205 162 163
f 163 164 205
f 205 164 165
f 205 165 166
f 166 167 205
f 205 167 168
f 205 168 169
f 169 170 205
f 205 170 171
f 205 171 172
f 172 173 205
f 205 173 174
f 205 174 175
f 175 176 205
f 205 176 177
f 205 177 178
f 178 179 205
f 205 179 180
f 205 180 181
f 181 182 205
f 205 182 183
f 205 183 184
f 205 184 204
f 204 184 185
f 204 185 203
f 203 185 186
f 203 186 202
f 202 186 187
f 202 187 201
f 201 187 188
f 201 188 200
f 200 188 189
f 200 189 199
f 199 189 190
f 199 190 198
f 198 190 191
f 198 191 197
f 197 191 192
f 197 192 196
f 196 192 193
f 196 193 195
f 195 193 194
