v -0.185 -0.204 0.31799999
v -0.119 -0.204 0.31799999
v -0.119 -0.204 0.34799999
v -0.185 -0.204 0.34799999
v -0.185 -0.204 0.31799999
v -0.185 -0.201 0.31799999
v -0.119 -0.201 0.31799999
v -0.119 -0.204 0.31799999
v -0.119 -0.201 0.31799999
v -0.185 -0.201 0.31799999
v -0.185 -0.201 0.34799999
v -0.119 -0.201 0.34799999
v -0.185 -0.201 0.34799999
v -0.185 -0.204 0.34799999
v -0.119 -0.204 0.34799999
v -0.119 -0.201 0.34799999
v -0.119 -0.204 0.31799999
v -0.119 -0.201 0.31799999
v -0.119 -0.201 0.34799999
v -0.119 -0.204 0.34799999
v -0.185 -0.201 0.31799999
v -0.185 -0.204 0.31799999
v -0.185 -0.204 0.34799999
v -0.185 -0.201 0.34799999
f 1 2 4
f 4 2 3
f 6 7 5
f 5 7 8
f 9 10 12
f 12 10 11
f 14 15 13
f 13 15 16
f 17 18 20
f 20 18 19
f 21 22 24
f 24 22 23
