v 0.17200001 -0.2625 0
v 0.17219749 -0.26024258 0
v 0.172784 -0.25805374 0
v 0.17374166 -0.256 0
v 0.17504143 -0.25414375 0
v 0.17664375 -0.25254143 0
v 0.1785 -0.25124166 0
v 0.18055374 -0.250284 0
v 0.18274258 -0.24969749 0
v 0.185 -0.24950001 0
v 0.18725742 -0.24969749 0
v 0.18944626 -0.250284 0
v 0.1915 -0.25124166 0
v 0.19335625 -0.25254143 0
v 0.19495857 -0.25414375 0
v 0.19625834 -0.256 0
v 0.197216 -0.25805374 0
v 0.19780251 -0.26024258 0
v 0.19799999 -0.2625 0
v 0.19780251 -0.26475742 0
v 0.197216 -0.26694626 0
v 0.19625834 -0.269 0
v 0.19495857 -0.27085625 0
v 0.19335625 -0.27245857 0
v 0.1915 -0.27375834 0
v 0.18944626 -0.274716 0
v 0.18725742 -0.27530251 0
v 0.185 -0.27549999 0
v 0.18274258 -0.27530251 0
v 0.18055374 -0.274716 0
v 0.1785 -0.27375834 0
v 0.17664375 -0.27245857 0
v 0.17504143 -0.27085625 0
v 0.17374166 -0.269 0
v 0.172784 -0.26694626 0
v 0.17219749 -0.26475742 0
v 0.17200001 -0.2625 0.024000001
v 0.17219749 -0.26475742 0.024000001
v 0.172784 -0.26694626 0.024000001
v 0.17374166 -0.269 0.024000001
v 0.17504143 -0.27085625 0.024000001
v 0.17664375 -0.27245857 0.024000001
v 0.1785 -0.27375834 0.024000001
v 0.18055374 -0.274716 0.024000001
v 0.18274258 -0.27530251 0.024000001
v 0.185 -0.27549999 0.024000001
v 0.18725742 -0.27530251 0.024000001
v 0.18944626 -0.274716 0.024000001
v 0.1915 -0.27375834 0.024000001
v 0.19335625 -0.27245857 0.024000001
v 0.19495857 -0.27085625 0.024000001
v 0.19625834 -0.269 0.024000001
v 0.197216 -0.26694626 0.024000001
v 0.19780251 -0.26475742 0.024000001
v 0.19799999 -0.2625 0.024000001
v 0.19780251 -0.26024258 0.024000001
v 0.197216 -0.25805374 0.024000001
v 0.19625834 -0.256 0.024000001
v 0.19495857 -0.25414375 0.024000001
v 0.19335625 -0.25254143 0.024000001
v 0.1915 -0.25124166 0.024000001
v 0.18944626 -0.250284 0.024000001
v 0.18725742 -0.24969749 0.024000001
v 0.185 -0.24950001 0.024000001
v 0.18274258 -0.24969749 0.024000001
v 0.18055374 -0.250284 0.024000001
v 0.1785 -0.25124166 0.024000001
v 0.17664375 -0.25254143 0.024000001
v 0.17504143 -0.25414375 0.024000001
v 0.17374166 -0.256 0.024000001
v 0.172784 -0.25805374 0.024000001
v 0.17219749 -0.26024258 0.024000001
v 0.17200001 -0.2625 0.024000001
v 0.17219749 -0.26024258 0.024000001
v 0.172784 -0.25805374 0.024000001
v 0.17374166 -0.256 0.024000001
v 0.17504143 -0.25414375 0.024000001
v 0.17664375 -0.25254143 0.024000001
v 0.1785 -0.25124166 0.024000001
v 0.18055374 -0.250284 0.024000001
v 0.18274258 -0.24969749 0.024000001
v 0.185 -0.24950001 0.024000001
v 0.18725742 -0.24969749 0.024000001
v 0.18944626 -0.250284 0.024000001
v 0.1915 -0.25124166 0.024000001
v 0.19335625 -0.25254143 0.024000001
v 0.19495857 -0.25414375 0.024000001
v 0.19625834 -0.256 0.024000001
v 0.197216 -0.25805374 0.024000001
v 0.19780251 -0.26024258 0.024000001
v 0.19799999 -0.2625 0.024000001
v 0.19780251 -0.26475742 0.024000001
v 0.197216 -0.26694626 0.024000001
v 0.19625834 -0.269 0.024000001
v 0.19495857 -0.27085625 0.024000001
v 0.19335625 -0.27245857 0.024000001
v 0.1915 -0.27375834 0.024000001
v 0.18944626 -0.274716 0.024000001
v 0.18725742 -0.27530251 0.024000001
v 0.185 -0.27549999 0.024000001
v 0.18274258 -0.27530251 0.024000001
v 0.18055374 -0.274716 0.024000001
v 0.1785 -0.27375834 0.024000001
v 0.17664375 -0.27245857 0.024000001
v 0.17504143 -0.27085625 0.024000001
v 0.17374166 -0.269 0.024000001
v 0.172784 -0.26694626 0.024000001
v 0.17219749 -0.26475742 0.024000001
v 0.17200001 -0.2625 0
v 0.17219749 -0.26475742 0
v 0.172784 -0.26694626 0
v 0.17374166 -0.269 0
v 0.17504143 -0.27085625 0
v 0.17664375 -0.27245857 0
v 0.1785 -0.27375834 0
v 0.18055374 -0.274716 0
v 0.18274258 -0.27530251 0
v 0.185 -0.27549999 0
v 0.18725742 -0.27530251 0
v 0.18944626 -0.274716 0
v 0.1915 -0.27375834 0
v 0.19335625 -0.27245857 0
v 0.19495857 -0.27085625 0
v 0.19625834 -0.269 0
v 0.197216 -0.26694626 0
v 0.19780251 -0.26475742 0
v 0.19799999 -0.2625 0
v 0.19780251 -0.26024258 0
v 0.197216 -0.25805374 0
v 0.19625834 -0.256 0
v 0.19495857 -0.25414375 0
v 0.19335625 -0.25254143 0
v 0.1915 -0.25124166 0
v 0.18944626 -0.250284 0
v 0.18725742 -0.24969749 0
v 0.185 -0.24950001 0
v 0.18274258 -0.24969749 0
v 0.18055374 -0.250284 0
v 0.1785 -0.25124166 0
v 0.17664375 -0.25254143 0
v 0.17504143 -0.25414375 0
v 0.17374166 -0.256 0
v 0.172784 -0.25805374 0
v 0.17219749 -0.26024258 0
v 0.17200001 -0.2625 0
v 0.17200001 -0.2625 0.024000001
f 2 18 1
f 1 18 19
f 1 19 36
f 36 19 20
f 36 20 35
f 35 20 21
f 35 21 34
f 34 21 22
f 34 22 33
f 33 22 23
f 33 23 32
f 32 23 24
f 32 24 31
f 31 24 25
f 31 25 30
f 30 25 26
f 30 26 29
f 29 26 27
f 29 27 28
f 18 2 17
f 17 2 3
f 17 3 16
f 16 3 4
f 16 4 15
f 15 4 5
f 15 5 14
f 14 5 6
f 14 6 13
f 13 6 7
f 13 7 12
f 12 7 8
f 12 8 11
f 11 8 9
f 11 9 10
f 38 54 37
f 37 54 55
f 37 55 72
f 72 55 56
f 72 56 71
f 71 56 57
f 71 57 70
f 70 57 58
f 70 58 69
f 69 58 59
f 69 59 68
f 68 59 60
f 68 60 67
f 67 60 61
f 67 61 66
f 66 61 62
f 66 62 65
f 65 62 63
f 65 63 64
f 54 38 53
f 53 38 39
f 53 39 52
f 52 39 40
f 52 40 51
f 51 40 41
f 51 41 50
f 50 41 42
f 50 42 49
f 49 42 43
f 49 43 48
f 48 43 44
f 48 44 47
f 47 44 45
f 47 45 46
f 74 144 73
f 73 144 145
f 146 109 108
f 108 109 110
f 108 110 107
f 107 110 111
f 107 111 106
f 106 111 112
f 106 112 105
f 105 112 113
f 105 113 104
f 104 113 114
f 104 114 103
f 103 114 115
f 103 115 102
f 102 115 116
f 102 116 101
f 101 116 117
f 101 117 100
f 100 117 118
f 100 118 99
f 99 118 119
f 99 119 98
f 98 119 120
f 98 120 97
f 97 120 121
f 97 121 96
f 96 121 122
f 96 122 95
f 95 122 123
f 95 123 94
f 94 123 124
f 94 124 93
f 93 124 125
f 93 125 92
f 92 125 126
f 92 126 91
f 91 126 127
f 91 127 90
f 90 127 128
f 90 128 89
f 89 128 129
f 89 129 88
f 88 129 130
f 88 130 87
f 87 130 131
f 87 131 86
f 86 131 132
f 86 132 85
f 85 132 133
f 85 133 84
f 84 133 134
f 84 134 83
f 83 134 135
f 83 135 82
f 82 135 136
f 82 136 81
f 81 136 137
f 81 137 80
f 80 137 138
f 80 138 79
f 79 138 139
f 79 139 78
f 78 139 140
f 78 140 77
f 77 140 141
f 77 141 76
f 76 141 142
f 76 142 75
f 75 142 143
f 75 143 74
f 74 143 144
