v 0.16340651 -0.29875 0.26879072
v 0.16352497 -0.29875 0.26852243
v 0.16352497 -0.29886999 0.26852243
v 0.16340651 -0.29886999 0.26879072
v 0.16230436 -0.29875 0.26684999
v 0.16200001 -0.29875 0.26684999
v 0.16200001 -0.29875 0.26915001
v 0.16301979 -0.29875 0.26915001
v 0.16348732 -0.29875 0.26908802
v 0.16374304 -0.29875 0.26886917
v 0.16383875 -0.29875 0.26852243
v 0.16368029 -0.29875 0.26810982
v 0.16347868 -0.29875 0.26797255
v 0.16319078 -0.29875 0.26789646
v 0.16337435 -0.29875 0.26778193
v 0.16362694 -0.29875 0.26747599
v 0.164027 -0.29875 0.26684999
v 0.1636442 -0.29875 0.26684999
v 0.16333984 -0.29875 0.26732851
v 0.16312019 -0.29875 0.26764544
v 0.16296566 -0.29875 0.26779919
v 0.16282681 -0.29875 0.26786037
v 0.16265738 -0.29875 0.26787134
v 0.16230436 -0.29875 0.26787134
v 0.16230436 -0.29875 0.26889584
v 0.16230436 -0.29875 0.26813492
v 0.1629586 -0.29875 0.26813492
v 0.16328493 -0.29875 0.26817806
v 0.16346378 -0.29875 0.26831614
v 0.16352497 -0.29875 0.26852243
v 0.16340651 -0.29875 0.26879072
v 0.16303234 -0.29875 0.26889584
v 0.16328493 -0.29875 0.26817806
v 0.1629586 -0.29875 0.26813492
v 0.1629586 -0.29886999 0.26813492
v 0.16328493 -0.29886999 0.26817806
v 0.16333984 -0.29875 0.26732851
v 0.1636442 -0.29875 0.26684999
v 0.1636442 -0.29886999 0.26684999
v 0.16333984 -0.29886999 0.26732851
v 0.16312019 -0.29875 0.26764544
v 0.16333984 -0.29875 0.26732851
v 0.16333984 -0.29886999 0.26732851
v 0.16312019 -0.29886999 0.26764544
v 0.16319078 -0.29875 0.26789646
v 0.16347868 -0.29875 0.26797255
v 0.16368029 -0.29875 0.26810982
v 0.16368029 -0.29886999 0.26810982
v 0.16347868 -0.29886999 0.26797255
v 0.16319078 -0.29886999 0.26789646
v 0.16265738 -0.29875 0.26787134
v 0.16282681 -0.29875 0.26786037
v 0.16282681 -0.29886999 0.26786037
v 0.16265738 -0.29886999 0.26787134
v 0.164027 -0.29875 0.26684999
v 0.16362694 -0.29875 0.26747599
v 0.16362694 -0.29886999 0.26747599
v 0.164027 -0.29886999 0.26684999
v 0.16230436 -0.29875 0.26813492
v 0.16230436 -0.29875 0.26889584
v 0.16230436 -0.29886999 0.26889584
v 0.16230436 -0.29886999 0.26813492
v 0.16200001 -0.29886999 0.26684999
v 0.16230436 -0.29886999 0.26684999
v 0.16230436 -0.29886999 0.26787134
v 0.16265738 -0.29886999 0.26787134
v 0.16282681 -0.29886999 0.26786037
v 0.16296566 -0.29886999 0.26779919
v 0.16312019 -0.29886999 0.26764544
v 0.16333984 -0.29886999 0.26732851
v 0.1636442 -0.29886999 0.26684999
v 0.164027 -0.29886999 0.26684999
v 0.16362694 -0.29886999 0.26747599
v 0.16337435 -0.29886999 0.26778193
v 0.16319078 -0.29886999 0.26789646
v 0.16347868 -0.29886999 0.26797255
v 0.16368029 -0.29886999 0.26810982
v 0.16383875 -0.29886999 0.26852243
v 0.16374304 -0.29886999 0.26886917
v 0.16348732 -0.29886999 0.26908802
v 0.16301979 -0.29886999 0.26915001
v 0.16200001 -0.29886999 0.26915001
v 0.16230436 -0.29886999 0.26813492
v 0.16230436 -0.29886999 0.26889584
v 0.16303234 -0.29886999 0.26889584
v 0.16340651 -0.29886999 0.26879072
v 0.16352497 -0.29886999 0.26852243
v 0.16346378 -0.29886999 0.26831614
v 0.16328493 -0.29886999 0.26817806
v 0.1629586 -0.29886999 0.26813492
v 0.16301979 -0.29875 0.26915001
v 0.16200001 -0.29875 0.26915001
v 0.16200001 -0.29886999 0.26915001
v 0.16301979 -0.29886999 0.26915001
v 0.1629586 -0.29875 0.26813492
v 0.16230436 -0.29875 0.26813492
v 0.16230436 -0.29886999 0.26813492
v 0.1629586 -0.29886999 0.26813492
v 0.16200001 -0.29875 0.26684999
v 0.16230436 -0.29875 0.26684999
v 0.16230436 -0.29886999 0.26684999
v 0.16200001 -0.29886999 0.26684999
v 0.16383875 -0.29875 0.26852243
v 0.16374304 -0.29875 0.26886917
v 0.16374304 -0.29886999 0.26886917
v 0.16383875 -0.29886999 0.26852243
v 0.16362694 -0.29875 0.26747599
v 0.16337435 -0.29875 0.26778193
v 0.16337435 -0.29886999 0.26778193
v 0.16362694 -0.29886999 0.26747599
v 0.16352497 -0.29875 0.26852243
v 0.16346378 -0.29875 0.26831614
v 0.16346378 -0.29886999 0.26831614
v 0.16352497 -0.29886999 0.26852243
v 0.16346378 -0.29875 0.26831614
v 0.16328493 -0.29875 0.26817806
v 0.16328493 -0.29886999 0.26817806
v 0.16346378 -0.29886999 0.26831614
v 0.1636442 -0.29875 0.26684999
v 0.164027 -0.29875 0.26684999
v 0.164027 -0.29886999 0.26684999
v 0.1636442 -0.29886999 0.26684999
v 0.16230436 -0.29875 0.26787134
v 0.16265738 -0.29875 0.26787134
v 0.16265738 -0.29886999 0.26787134
v 0.16230436 -0.29886999 0.26787134
v 0.16337435 -0.29875 0.26778193
v 0.16319078 -0.29875 0.26789646
v 0.16319078 -0.29886999 0.26789646
v 0.16337435 -0.29886999 0.26778193
v 0.16296566 -0.29875 0.26779919
v 0.16312019 -0.29875 0.26764544
v 0.16312019 -0.29886999 0.26764544
v 0.16296566 -0.29886999 0.26779919
v 0.16374304 -0.29875 0.26886917
v 0.16348732 -0.29875 0.26908802
v 0.16348732 -0.29886999 0.26908802
v 0.16374304 -0.29886999 0.26886917
v 0.16230436 -0.29875 0.26684999
v 0.16230436 -0.29875 0.26787134
v 0.16230436 -0.29886999 0.26787134
v 0.16230436 -0.29886999 0.26684999
v 0.16230436 -0.29875 0.26889584
v 0.16303234 -0.29875 0.26889584
v 0.16303234 -0.29886999 0.26889584
v 0.16230436 -0.29886999 0.26889584
v 0.16368029 -0.29875 0.26810982
v 0.16383875 -0.29875 0.26852243
v 0.16383875 -0.29886999 0.26852243
v 0.16368029 -0.29886999 0.26810982
v 0.16303234 -0.29875 0.26889584
v 0.16340651 -0.29875 0.26879072
v 0.16340651 -0.29886999 0.26879072
v 0.16303234 -0.29886999 0.26889584
v 0.16200001 -0.29875 0.26915001
v 0.16200001 -0.29875 0.26684999
v 0.16200001 -0.29886999 0.26684999
v 0.16200001 -0.29886999 0.26915001
v 0.16282681 -0.29875 0.26786037
v 0.16296566 -0.29875 0.26779919
v 0.16296566 -0.29886999 0.26779919
v 0.16282681 -0.29886999 0.26786037
v 0.16348732 -0.29875 0.26908802
v 0.16301979 -0.29875 0.26915001
v 0.16301979 -0.29886999 0.26915001
v 0.16348732 -0.29886999 0.26908802
f 1 2 4
f 4 2 3
f 5 6 24
f 24 6 7
f 24 7 26
f 26 7 25
f 25 7 8
f 25 8 32
f 32 8 9
f 32 9 31
f 31 9 10
f 31 10 30
f 30 10 11
f 30 11 12
f 30 12 29
f 29 12 13
f 29 13 28
f 28 13 14
f 28 14 27
f 27 14 21
f 27 21 22
f 21 14 20
f 20 14 15
f 20 15 19
f 19 15 16
f 19 16 18
f 18 16 17
f 22 23 27
f 27 23 26
f 26 23 24
f 33 34 36
f 36 34 35
f 37 38 40
f 40 38 39
f 41 42 44
f 44 42 43
f 45 46 50
f 50 46 49
f 49 46 47
f 49 47 48
f 51 52 54
f 54 52 53
f 55 56 58
f 58 56 57
f 59 60 62
f 62 60 61
f 64 65 63
f 63 65 82
f 82 65 83
f 82 83 84
f 65 66 83
f 83 66 90
f 90 66 67
f 90 67 68
f 90 68 75
f 75 68 69
f 75 69 74
f 74 69 70
f 74 70 73
f 73 70 71
f 73 71 72
f 90 75 89
f 89 75 76
f 89 76 88
f 88 76 77
f 88 77 87
f 87 77 78
f 87 78 79
f 87 79 86
f 86 79 80
f 86 80 85
f 85 80 81
f 85 81 84
f 84 81 82
f 91 92 94
f 94 92 93
f 95 96 98
f 98 96 97
f 99 100 102
f 102 100 101
f 103 104 106
f 106 104 105
f 107 108 110
f 110 108 109
f 111 112 114
f 114 112 113
f 115 116 118
f 118 116 117
f 119 120 122
f 122 120 121
f 123 124 126
f 126 124 125
f 127 128 130
f 130 128 129
f 131 132 134
f 134 132 133
f 135 136 138
f 138 136 137
f 139 140 142
f 142 140 141
f 143 144 146
f 146 144 145
f 147 148 150
f 150 148 149
f 151 152 154
f 154 152 153
f 155 156 158
f 158 156 157
f 159 160 162
f 162 160 161
f 163 164 166
f 166 164 165
