v 0.18358932 -0.29625 0.11185917
v 0.18379597 -0.29625 0.11180396
v 0.18379597 -0.29632999 0.11180396
v 0.18358932 -0.29632999 0.11185917
v 0.18337559 -0.29625 0.11185133
v 0.18358932 -0.29625 0.11185917
v 0.18358932 -0.29632999 0.11185917
v 0.18337559 -0.29632999 0.11185133
v 0.18309317 -0.29625 0.11170494
v 0.18337559 -0.29625 0.11185133
v 0.18337559 -0.29632999 0.11185133
v 0.18309317 -0.29632999 0.11170494
v 0.18284224 -0.29625 0.11150939
v 0.18309317 -0.29625 0.11170494
v 0.18309317 -0.29632999 0.11170494
v 0.18284224 -0.29632999 0.11150939
v 0.18263128 -0.29625 0.11127127
v 0.18284224 -0.29625 0.11150939
v 0.18284224 -0.29632999 0.11150939
v 0.18263128 -0.29632999 0.11127127
v 0.16575603 -0.29625 0.11029493
v 0.16611359 -0.29625 0.1102634
v 0.16647116 -0.29625 0.11029489
v 0.1668177 -0.29625 0.11038838
v 0.16714258 -0.29625 0.11054104
v 0.16741301 -0.29625 0.11079753
v 0.1676029 -0.29625 0.11111824
v 0.16769773 -0.29625 0.11147869
v 0.16769026 -0.29625 0.11185133
v 0.16751451 -0.29625 0.11206213
v 0.16725393 -0.29625 0.11212864
v 0.16670582 -0.29625 0.11202118
v 0.16635414 -0.29625 0.1116642
v 0.16610224 -0.29625 0.11123735
v 0.18411739 -0.29625 0.11152896
v 0.1839773 -0.29625 0.11169056
v 0.18379597 -0.29625 0.11180396
v 0.18358932 -0.29625 0.11185917
v 0.18337559 -0.29625 0.11185133
v 0.18309317 -0.29625 0.11170494
v 0.18284224 -0.29625 0.11150939
v 0.18263128 -0.29625 0.11127127
v 0.1824674 -0.29625 0.1109986
v 0.18210041 -0.29625 0.10990583
v 0.18202236 -0.29625 0.10933637
v 0.18212076 -0.29625 0.10875587
v 0.18224258 -0.29625 0.10862303
v 0.18239532 -0.29625 0.10852732
v 0.18256798 -0.29625 0.10847561
v 0.18274818 -0.29625 0.10847162
v 0.1830702 -0.29625 0.10860955
v 0.18335136 -0.29625 0.10881853
v 0.18357628 -0.29625 0.10908711
v 0.18373262 -0.29625 0.10940061
v 0.1840888 -0.29625 0.11043749
v 0.18419279 -0.29625 0.11097266
v 0.18730299 -0.29625 0.10892918
v 0.18737154 -0.29625 0.10875268
v 0.18742525 -0.29625 0.10857111
v 0.18746372 -0.29625 0.10838572
v 0.18748671 -0.29625 0.10819777
v 0.18678932 -0.29625 0.10777748
v 0.18600224 -0.29625 0.10744038
v 0.18516445 -0.29625 0.10730865
v 0.18431498 -0.29625 0.1075045
v 0.18413776 -0.29625 0.10763676
v 0.1839818 -0.29625 0.10779351
v 0.18385044 -0.29625 0.1079714
v 0.18374649 -0.29625 0.10816658
v 0.18315113 -0.29625 0.10771297
v 0.18245615 -0.29625 0.10743511
v 0.18171217 -0.29625 0.10735323
v 0.1809734 -0.29625 0.10747331
v 0.18059269 -0.29625 0.10766904
v 0.18025309 -0.29625 0.10792968
v 0.17996557 -0.29625 0.10824683
v 0.17973938 -0.29625 0.10861028
v 0.17907362 -0.29625 0.10810792
v 0.17835196 -0.29625 0.10770859
v 0.1775692 -0.29625 0.10745158
v 0.17672016 -0.29625 0.10737624
v 0.17672016 -0.29625 0.10735891
v 0.17608717 -0.29625 0.10747363
v 0.1754961 -0.29625 0.10770728
v 0.17499018 -0.29625 0.10806573
v 0.17461262 -0.29625 0.10855481
v 0.17385239 -0.29625 0.10802695
v 0.17302588 -0.29625 0.10763362
v 0.17213827 -0.29625 0.10742099
v 0.17119476 -0.29625 0.10743518
v 0.17081682 -0.29625 0.10758987
v 0.17049538 -0.29625 0.10784176
v 0.17025478 -0.29625 0.10817174
v 0.17011326 -0.29625 0.10855481
v 0.1701124 -0.29625 0.10857735
v 0.17007513 -0.29625 0.10861028
v 0.16871078 -0.29625 0.10796721
v 0.16720411 -0.29625 0.1075136
v 0.16643009 -0.29625 0.10741583
v 0.16565973 -0.29625 0.10743501
v 0.1649061 -0.29625 0.10759434
v 0.1641823 -0.29625 0.107917
v 0.1637734 -0.29625 0.10823064
v 0.16345221 -0.29625 0.10863361
v 0.16323765 -0.29625 0.10910214
v 0.1631424 -0.29625 0.10960859
v 0.16332722 -0.29625 0.11051839
v 0.16376213 -0.29625 0.11133861
v 0.16441151 -0.29625 0.11200208
v 0.16522221 -0.29625 0.11245448
v 0.16617996 -0.29625 0.11271993
v 0.16723227 -0.29625 0.11281801
v 0.16825274 -0.29625 0.11266848
v 0.16871153 -0.29625 0.11247576
v 0.16911495 -0.29625 0.11219104
v 0.16930212 -0.29625 0.111886
v 0.16936951 -0.29625 0.11154909
v 0.16935606 -0.29625 0.11120579
v 0.16926254 -0.29625 0.11087519
v 0.16909414 -0.29625 0.1105757
v 0.16839069 -0.29625 0.11001334
v 0.16753515 -0.29625 0.10969049
v 0.1665925 -0.29625 0.10956326
v 0.16562777 -0.29625 0.10958779
v 0.16560474 -0.29625 0.10939709
v 0.16562721 -0.29625 0.10920632
v 0.16569391 -0.29625 0.10902618
v 0.16580109 -0.29625 0.10886679
v 0.16630821 -0.29625 0.10860822
v 0.1668865 -0.29625 0.10853229
v 0.16805771 -0.29625 0.10869694
v 0.16861292 -0.29625 0.10885948
v 0.16915195 -0.29625 0.10906961
v 0.1696707 -0.29625 0.10932573
v 0.17016525 -0.29625 0.10962592
v 0.17103878 -0.29625 0.11262433
v 0.17343058 -0.29625 0.11264513
v 0.17250158 -0.29625 0.10926542
v 0.17250219 -0.29625 0.1091616
v 0.17251829 -0.29625 0.10905904
v 0.17254951 -0.29625 0.10896002
v 0.17259518 -0.29625 0.10886679
v 0.17287281 -0.29625 0.10872445
v 0.1731732 -0.29625 0.1087368
v 0.17373562 -0.29625 0.10896038
v 0.17389355 -0.29625 0.10904956
v 0.1740449 -0.29625 0.10914952
v 0.17418892 -0.29625 0.10925979
v 0.17432489 -0.29625 0.10937981
v 0.17442413 -0.29625 0.11027814
v 0.17480152 -0.29625 0.11107574
v 0.17537392 -0.29625 0.11174203
v 0.17605808 -0.29625 0.11224649
v 0.17685633 -0.29625 0.11258512
v 0.17775921 -0.29625 0.11274566
v 0.17866598 -0.29625 0.11268521
v 0.17947592 -0.29625 0.11236089
v 0.17941978 -0.29625 0.11211116
v 0.17935656 -0.29625 0.11186313
v 0.17928627 -0.29625 0.11161699
v 0.17920902 -0.29625 0.11137298
v 0.17862234 -0.29625 0.11176467
v 0.17828772 -0.29625 0.11183996
v 0.17793686 -0.29625 0.1117716
v 0.17747637 -0.29625 0.11144939
v 0.17716993 -0.29625 0.11100077
v 0.17685535 -0.29625 0.10993096
v 0.17683889 -0.29625 0.10920519
v 0.17695381 -0.29625 0.10887952
v 0.177202 -0.29625 0.10863801
v 0.17785604 -0.29625 0.10854262
v 0.17846981 -0.29625 0.1087121
v 0.17953485 -0.29625 0.10945953
v 0.17971039 -0.29625 0.11042704
v 0.18016443 -0.29625 0.11126681
v 0.1808349 -0.29625 0.11195776
v 0.18165974 -0.29625 0.11247874
v 0.18228846 -0.29625 0.11267752
v 0.18296656 -0.29625 0.11277425
v 0.18363688 -0.29625 0.1127137
v 0.18424219 -0.29625 0.11244061
v 0.18433807 -0.29625 0.11235405
v 0.18442806 -0.29625 0.11226137
v 0.18451176 -0.29625 0.11216299
v 0.18458883 -0.29625 0.11205932
v 0.18475868 -0.29625 0.11259314
v 0.18690435 -0.29625 0.11257234
v 0.18593725 -0.29625 0.10913716
v 0.18593735 -0.29625 0.10903526
v 0.18595705 -0.29625 0.10893529
v 0.18599562 -0.29625 0.10884098
v 0.18605164 -0.29625 0.10875587
v 0.18636658 -0.29625 0.1086289
v 0.18669682 -0.29625 0.10865793
v 0.1824674 -0.29625 0.1109986
v 0.18263128 -0.29625 0.11127127
v 0.18263128 -0.29632999 0.11127127
v 0.1824674 -0.29632999 0.1109986
v 0.1839773 -0.29625 0.11169056
v 0.18411739 -0.29625 0.11152896
v 0.18411739 -0.29632999 0.11152896
v 0.1839773 -0.29632999 0.11169056
v 0.18212076 -0.29625 0.10875587
v 0.18202236 -0.29625 0.10933637
v 0.18210041 -0.29625 0.10990583
v 0.1824674 -0.29625 0.1109986
v 0.1824674 -0.29632999 0.1109986
v 0.18210041 -0.29632999 0.10990583
v 0.18202236 -0.29632999 0.10933637
v 0.18212076 -0.29632999 0.10875587
v 0.16647116 -0.29625 0.11029489
v 0.16611359 -0.29625 0.1102634
v 0.16611359 -0.29632999 0.1102634
v 0.16647116 -0.29632999 0.11029489
v 0.18224258 -0.29625 0.10862303
v 0.18212076 -0.29625 0.10875587
v 0.18212076 -0.29632999 0.10875587
v 0.18224258 -0.29632999 0.10862303
v 0.1668177 -0.29625 0.11038838
v 0.16647116 -0.29625 0.11029489
v 0.16647116 -0.29632999 0.11029489
v 0.1668177 -0.29632999 0.11038838
v 0.18411739 -0.29625 0.11152896
v 0.18419279 -0.29625 0.11097266
v 0.1840888 -0.29625 0.11043749
v 0.18373262 -0.29625 0.10940061
v 0.18373262 -0.29632999 0.10940061
v 0.1840888 -0.29632999 0.11043749
v 0.18419279 -0.29632999 0.11097266
v 0.18411739 -0.29632999 0.11152896
v 0.18239532 -0.29625 0.10852732
v 0.18224258 -0.29625 0.10862303
v 0.18224258 -0.29632999 0.10862303
v 0.18239532 -0.29632999 0.10852732
v 0.16714258 -0.29625 0.11054104
v 0.1668177 -0.29625 0.11038838
v 0.1668177 -0.29632999 0.11038838
v 0.16714258 -0.29632999 0.11054104
v 0.18373262 -0.29625 0.10940061
v 0.18357628 -0.29625 0.10908711
v 0.18357628 -0.29632999 0.10908711
v 0.18373262 -0.29632999 0.10940061
v 0.18737154 -0.29625 0.10875268
v 0.18730299 -0.29625 0.10892918
v 0.18730299 -0.29632999 0.10892918
v 0.18737154 -0.29632999 0.10875268
v 0.18256798 -0.29625 0.10847561
v 0.18239532 -0.29625 0.10852732
v 0.18239532 -0.29632999 0.10852732
v 0.18256798 -0.29632999 0.10847561
v 0.16741301 -0.29625 0.11079753
v 0.16714258 -0.29625 0.11054104
v 0.16714258 -0.29632999 0.11054104
v 0.16741301 -0.29632999 0.11079753
v 0.18357628 -0.29625 0.10908711
v 0.18335136 -0.29625 0.10881853
v 0.18335136 -0.29632999 0.10881853
v 0.18357628 -0.29632999 0.10908711
v 0.18742525 -0.29625 0.10857111
v 0.18737154 -0.29625 0.10875268
v 0.18737154 -0.29632999 0.10875268
v 0.18742525 -0.29632999 0.10857111
v 0.18730299 -0.29625 0.10892918
v 0.18669682 -0.29625 0.10865793
v 0.18636658 -0.29625 0.1086289
v 0.18605164 -0.29625 0.10875587
v 0.18605164 -0.29632999 0.10875587
v 0.18636658 -0.29632999 0.1086289
v 0.18669682 -0.29632999 0.10865793
v 0.18730299 -0.29632999 0.10892918
v 0.16611359 -0.29625 0.1102634
v 0.16575603 -0.29625 0.11029493
v 0.16575603 -0.29632999 0.11029493
v 0.16611359 -0.29632999 0.1102634
v 0.18274818 -0.29625 0.10847162
v 0.18256798 -0.29625 0.10847561
v 0.18256798 -0.29632999 0.10847561
v 0.18274818 -0.29632999 0.10847162
v 0.1676029 -0.29625 0.11111824
v 0.16741301 -0.29625 0.11079753
v 0.16741301 -0.29632999 0.11079753
v 0.1676029 -0.29632999 0.11111824
v 0.18335136 -0.29625 0.10881853
v 0.1830702 -0.29625 0.10860955
v 0.1830702 -0.29632999 0.10860955
v 0.18335136 -0.29632999 0.10881853
v 0.18746372 -0.29625 0.10838572
v 0.18742525 -0.29625 0.10857111
v 0.18742525 -0.29632999 0.10857111
v 0.18746372 -0.29632999 0.10838572
v 0.18605164 -0.29625 0.10875587
v 0.18599562 -0.29625 0.10884098
v 0.18599562 -0.29632999 0.10884098
v 0.18605164 -0.29632999 0.10875587
v 0.16575603 -0.29625 0.11029493
v 0.16610224 -0.29625 0.11123735
v 0.16635414 -0.29625 0.1116642
v 0.16670582 -0.29625 0.11202118
v 0.16670582 -0.29632999 0.11202118
v 0.16635414 -0.29632999 0.1116642
v 0.16610224 -0.29632999 0.11123735
v 0.16575603 -0.29632999 0.11029493
v 0.1830702 -0.29625 0.10860955
v 0.18274818 -0.29625 0.10847162
v 0.18274818 -0.29632999 0.10847162
v 0.1830702 -0.29632999 0.10860955
v 0.16769773 -0.29625 0.11147869
v 0.1676029 -0.29625 0.11111824
v 0.1676029 -0.29632999 0.11111824
v 0.16769773 -0.29632999 0.11147869
v 0.18748671 -0.29625 0.10819777
v 0.18746372 -0.29625 0.10838572
v 0.18746372 -0.29632999 0.10838572
v 0.18748671 -0.29632999 0.10819777
v 0.18599562 -0.29625 0.10884098
v 0.18595705 -0.29625 0.10893529
v 0.18595705 -0.29632999 0.10893529
v 0.18599562 -0.29632999 0.10884098
v 0.16670582 -0.29625 0.11202118
v 0.16725393 -0.29625 0.11212864
v 0.16751451 -0.29625 0.11206213
v 0.16769026 -0.29625 0.11185133
v 0.16769026 -0.29632999 0.11185133
v 0.16751451 -0.29632999 0.11206213
v 0.16725393 -0.29632999 0.11212864
v 0.16670582 -0.29632999 0.11202118
v 0.16769026 -0.29625 0.11185133
v 0.16769773 -0.29625 0.11147869
v 0.16769773 -0.29632999 0.11147869
v 0.16769026 -0.29632999 0.11185133
v 0.18431498 -0.29625 0.1075045
v 0.18516445 -0.29625 0.10730865
v 0.18600224 -0.29625 0.10744038
v 0.18678932 -0.29625 0.10777748
v 0.18748671 -0.29625 0.10819777
v 0.18748671 -0.29632999 0.10819777
v 0.18678932 -0.29632999 0.10777748
v 0.18600224 -0.29632999 0.10744038
v 0.18516445 -0.29632999 0.10730865
v 0.18431498 -0.29632999 0.1075045
v 0.18595705 -0.29625 0.10893529
v 0.18593735 -0.29625 0.10903526
v 0.18593735 -0.29632999 0.10903526
v 0.18595705 -0.29632999 0.10893529
v 0.18413776 -0.29625 0.10763676
v 0.18431498 -0.29625 0.1075045
v 0.18431498 -0.29632999 0.1075045
v 0.18413776 -0.29632999 0.10763676
v 0.18593735 -0.29625 0.10903526
v 0.18593725 -0.29625 0.10913716
v 0.18593725 -0.29632999 0.10913716
v 0.18593735 -0.29632999 0.10903526
v 0.1839818 -0.29625 0.10779351
v 0.18413776 -0.29625 0.10763676
v 0.18413776 -0.29632999 0.10763676
v 0.1839818 -0.29632999 0.10779351
v 0.18593725 -0.29625 0.10913716
v 0.18690435 -0.29625 0.11257234
v 0.18690435 -0.29632999 0.11257234
v 0.18593725 -0.29632999 0.10913716
v 0.18385044 -0.29625 0.1079714
v 0.1839818 -0.29625 0.10779351
v 0.1839818 -0.29632999 0.10779351
v 0.18385044 -0.29632999 0.1079714
v 0.18374649 -0.29625 0.10816658
v 0.18385044 -0.29625 0.1079714
v 0.18385044 -0.29632999 0.1079714
v 0.18374649 -0.29632999 0.10816658
v 0.18475868 -0.29625 0.11259314
v 0.18458883 -0.29625 0.11205932
v 0.18458883 -0.29632999 0.11205932
v 0.18475868 -0.29632999 0.11259314
v 0.18245615 -0.29625 0.10743511
v 0.18315113 -0.29625 0.10771297
v 0.18315113 -0.29632999 0.10771297
v 0.18245615 -0.29632999 0.10743511
v 0.18315113 -0.29625 0.10771297
v 0.18374649 -0.29625 0.10816658
v 0.18374649 -0.29632999 0.10816658
v 0.18315113 -0.29632999 0.10771297
v 0.18171217 -0.29625 0.10735323
v 0.18245615 -0.29625 0.10743511
v 0.18245615 -0.29632999 0.10743511
v 0.18171217 -0.29632999 0.10735323
v 0.18458883 -0.29625 0.11205932
v 0.18451176 -0.29625 0.11216299
v 0.18451176 -0.29632999 0.11216299
v 0.18458883 -0.29632999 0.11205932
v 0.18451176 -0.29625 0.11216299
v 0.18442806 -0.29625 0.11226137
v 0.18442806 -0.29632999 0.11226137
v 0.18451176 -0.29632999 0.11216299
v 0.18442806 -0.29625 0.11226137
v 0.18433807 -0.29625 0.11235405
v 0.18433807 -0.29632999 0.11235405
v 0.18442806 -0.29632999 0.11226137
v 0.1809734 -0.29625 0.10747331
v 0.18171217 -0.29625 0.10735323
v 0.18171217 -0.29632999 0.10735323
v 0.1809734 -0.29632999 0.10747331
v 0.18433807 -0.29625 0.11235405
v 0.18424219 -0.29625 0.11244061
v 0.18424219 -0.29632999 0.11244061
v 0.18433807 -0.29632999 0.11235405
v 0.18059269 -0.29625 0.10766904
v 0.1809734 -0.29625 0.10747331
v 0.1809734 -0.29632999 0.10747331
v 0.18059269 -0.29632999 0.10766904
v 0.18424219 -0.29625 0.11244061
v 0.18363688 -0.29625 0.1127137
v 0.18296656 -0.29625 0.11277425
v 0.18228846 -0.29625 0.11267752
v 0.18165974 -0.29625 0.11247874
v 0.18165974 -0.29632999 0.11247874
v 0.18228846 -0.29632999 0.11267752
v 0.18296656 -0.29632999 0.11277425
v 0.18363688 -0.29632999 0.1127137
v 0.18424219 -0.29632999 0.11244061
v 0.18025309 -0.29625 0.10792968
v 0.18059269 -0.29625 0.10766904
v 0.18059269 -0.29632999 0.10766904
v 0.18025309 -0.29632999 0.10792968
v 0.18165974 -0.29625 0.11247874
v 0.1808349 -0.29625 0.11195776
v 0.18016443 -0.29625 0.11126681
v 0.17971039 -0.29625 0.11042704
v 0.17953485 -0.29625 0.10945953
v 0.17953485 -0.29632999 0.10945953
v 0.17971039 -0.29632999 0.11042704
v 0.18016443 -0.29632999 0.11126681
v 0.1808349 -0.29632999 0.11195776
v 0.18165974 -0.29632999 0.11247874
v 0.17996557 -0.29625 0.10824683
v 0.18025309 -0.29625 0.10792968
v 0.18025309 -0.29632999 0.10792968
v 0.17996557 -0.29632999 0.10824683
v 0.17953485 -0.29625 0.10945953
v 0.17846981 -0.29625 0.1087121
v 0.17785604 -0.29625 0.10854262
v 0.177202 -0.29625 0.10863801
v 0.177202 -0.29632999 0.10863801
v 0.17785604 -0.29632999 0.10854262
v 0.17846981 -0.29632999 0.1087121
v 0.17953485 -0.29632999 0.10945953
v 0.17973938 -0.29625 0.10861028
v 0.17996557 -0.29625 0.10824683
v 0.17996557 -0.29632999 0.10824683
v 0.17973938 -0.29632999 0.10861028
v 0.177202 -0.29625 0.10863801
v 0.17695381 -0.29625 0.10887952
v 0.17683889 -0.29625 0.10920519
v 0.17685535 -0.29625 0.10993096
v 0.17685535 -0.29632999 0.10993096
v 0.17683889 -0.29632999 0.10920519
v 0.17695381 -0.29632999 0.10887952
v 0.177202 -0.29632999 0.10863801
v 0.17672016 -0.29625 0.10737624
v 0.1775692 -0.29625 0.10745158
v 0.17835196 -0.29625 0.10770859
v 0.17907362 -0.29625 0.10810792
v 0.17973938 -0.29625 0.10861028
v 0.17973938 -0.29632999 0.10861028
v 0.17907362 -0.29632999 0.10810792
v 0.17835196 -0.29632999 0.10770859
v 0.1775692 -0.29632999 0.10745158
v 0.17672016 -0.29632999 0.10737624
v 0.17685535 -0.29625 0.10993096
v 0.17716993 -0.29625 0.11100077
v 0.17747637 -0.29625 0.11144939
v 0.17793686 -0.29625 0.1117716
v 0.17793686 -0.29632999 0.1117716
v 0.17747637 -0.29632999 0.11144939
v 0.17716993 -0.29632999 0.11100077
v 0.17685535 -0.29632999 0.10993096
v 0.17672016 -0.29625 0.10735891
v 0.17672016 -0.29625 0.10737624
v 0.17672016 -0.29632999 0.10737624
v 0.17672016 -0.29632999 0.10735891
v 0.17793686 -0.29625 0.1117716
v 0.17828772 -0.29625 0.11183996
v 0.17862234 -0.29625 0.11176467
v 0.17920902 -0.29625 0.11137298
v 0.17920902 -0.29632999 0.11137298
v 0.17862234 -0.29632999 0.11176467
v 0.17828772 -0.29632999 0.11183996
v 0.17793686 -0.29632999 0.1117716
v 0.17461262 -0.29625 0.10855481
v 0.17499018 -0.29625 0.10806573
v 0.1754961 -0.29625 0.10770728
v 0.17608717 -0.29625 0.10747363
v 0.17672016 -0.29625 0.10735891
v 0.17672016 -0.29632999 0.10735891
v 0.17608717 -0.29632999 0.10747363
v 0.1754961 -0.29632999 0.10770728
v 0.17499018 -0.29632999 0.10806573
v 0.17461262 -0.29632999 0.10855481
v 0.17920902 -0.29625 0.11137298
v 0.17928627 -0.29625 0.11161699
v 0.17928627 -0.29632999 0.11161699
v 0.17920902 -0.29632999 0.11137298
v 0.17119476 -0.29625 0.10743518
v 0.17213827 -0.29625 0.10742099
v 0.17302588 -0.29625 0.10763362
v 0.17385239 -0.29625 0.10802695
v 0.17461262 -0.29625 0.10855481
v 0.17461262 -0.29632999 0.10855481
v 0.17385239 -0.29632999 0.10802695
v 0.17302588 -0.29632999 0.10763362
v 0.17213827 -0.29632999 0.10742099
v 0.17119476 -0.29632999 0.10743518
v 0.17928627 -0.29625 0.11161699
v 0.17935656 -0.29625 0.11186313
v 0.17935656 -0.29632999 0.11186313
v 0.17928627 -0.29632999 0.11161699
v 0.17935656 -0.29625 0.11186313
v 0.17941978 -0.29625 0.11211116
v 0.17941978 -0.29632999 0.11211116
v 0.17935656 -0.29632999 0.11186313
v 0.17941978 -0.29625 0.11211116
v 0.17947592 -0.29625 0.11236089
v 0.17947592 -0.29632999 0.11236089
v 0.17941978 -0.29632999 0.11211116
v 0.17025478 -0.29625 0.10817174
v 0.17049538 -0.29625 0.10784176
v 0.17049538 -0.29632999 0.10784176
v 0.17025478 -0.29632999 0.10817174
v 0.17007513 -0.29625 0.10861028
v 0.1701124 -0.29625 0.10857735
v 0.17011326 -0.29625 0.10855481
v 0.17011326 -0.29632999 0.10855481
v 0.1701124 -0.29632999 0.10857735
v 0.17007513 -0.29632999 0.10861028
v 0.17011326 -0.29625 0.10855481
v 0.17025478 -0.29625 0.10817174
v 0.17025478 -0.29632999 0.10817174
v 0.17011326 -0.29632999 0.10855481
v 0.17605808 -0.29625 0.11224649
v 0.17537392 -0.29625 0.11174203
v 0.17480152 -0.29625 0.11107574
v 0.17442413 -0.29625 0.11027814
v 0.17432489 -0.29625 0.10937981
v 0.17432489 -0.29632999 0.10937981
v 0.17442413 -0.29632999 0.11027814
v 0.17480152 -0.29632999 0.11107574
v 0.17537392 -0.29632999 0.11174203
v 0.17605808 -0.29632999 0.11224649
v 0.17432489 -0.29625 0.10937981
v 0.17418892 -0.29625 0.10925979
v 0.17418892 -0.29632999 0.10925979
v 0.17432489 -0.29632999 0.10937981
v 0.1641823 -0.29625 0.107917
v 0.1649061 -0.29625 0.10759434
v 0.16565973 -0.29625 0.10743501
v 0.16643009 -0.29625 0.10741583
v 0.16720411 -0.29625 0.1075136
v 0.16871078 -0.29625 0.10796721
v 0.17007513 -0.29625 0.10861028
v 0.17007513 -0.29632999 0.10861028
v 0.16871078 -0.29632999 0.10796721
v 0.16720411 -0.29632999 0.1075136
v 0.16643009 -0.29632999 0.10741583
v 0.16565973 -0.29632999 0.10743501
v 0.1649061 -0.29632999 0.10759434
v 0.1641823 -0.29632999 0.107917
v 0.17418892 -0.29625 0.10925979
v 0.1740449 -0.29625 0.10914952
v 0.1740449 -0.29632999 0.10914952
v 0.17418892 -0.29632999 0.10925979
v 0.1637734 -0.29625 0.10823064
v 0.1641823 -0.29625 0.107917
v 0.1641823 -0.29632999 0.107917
v 0.1637734 -0.29632999 0.10823064
v 0.1740449 -0.29625 0.10914952
v 0.17389355 -0.29625 0.10904956
v 0.17389355 -0.29632999 0.10904956
v 0.1740449 -0.29632999 0.10914952
v 0.16345221 -0.29625 0.10863361
v 0.1637734 -0.29625 0.10823064
v 0.1637734 -0.29632999 0.10823064
v 0.16345221 -0.29632999 0.10863361
v 0.17389355 -0.29625 0.10904956
v 0.17373562 -0.29625 0.10896038
v 0.17373562 -0.29632999 0.10896038
v 0.17389355 -0.29632999 0.10904956
v 0.16323765 -0.29625 0.10910214
v 0.16345221 -0.29625 0.10863361
v 0.16345221 -0.29632999 0.10863361
v 0.16323765 -0.29632999 0.10910214
v 0.17373562 -0.29625 0.10896038
v 0.1731732 -0.29625 0.1087368
v 0.17287281 -0.29625 0.10872445
v 0.17259518 -0.29625 0.10886679
v 0.17259518 -0.29632999 0.10886679
v 0.17287281 -0.29632999 0.10872445
v 0.1731732 -0.29632999 0.1087368
v 0.17373562 -0.29632999 0.10896038
v 0.1631424 -0.29625 0.10960859
v 0.16323765 -0.29625 0.10910214
v 0.16323765 -0.29632999 0.10910214
v 0.1631424 -0.29632999 0.10960859
v 0.17259518 -0.29625 0.10886679
v 0.17254951 -0.29625 0.10896002
v 0.17254951 -0.29632999 0.10896002
v 0.17259518 -0.29632999 0.10886679
v 0.16332722 -0.29625 0.11051839
v 0.1631424 -0.29625 0.10960859
v 0.1631424 -0.29632999 0.10960859
v 0.16332722 -0.29632999 0.11051839
v 0.17251829 -0.29625 0.10905904
v 0.17250219 -0.29625 0.1091616
v 0.17250219 -0.29632999 0.1091616
v 0.17251829 -0.29632999 0.10905904
v 0.17254951 -0.29625 0.10896002
v 0.17251829 -0.29625 0.10905904
v 0.17251829 -0.29632999 0.10905904
v 0.17254951 -0.29632999 0.10896002
v 0.16376213 -0.29625 0.11133861
v 0.16332722 -0.29625 0.11051839
v 0.16332722 -0.29632999 0.11051839
v 0.16376213 -0.29632999 0.11133861
v 0.16441151 -0.29625 0.11200208
v 0.16376213 -0.29625 0.11133861
v 0.16376213 -0.29632999 0.11133861
v 0.16441151 -0.29632999 0.11200208
v 0.17250219 -0.29625 0.1091616
v 0.17250158 -0.29625 0.10926542
v 0.17250158 -0.29632999 0.10926542
v 0.17250219 -0.29632999 0.1091616
v 0.16522221 -0.29625 0.11245448
v 0.16441151 -0.29625 0.11200208
v 0.16441151 -0.29632999 0.11200208
v 0.16522221 -0.29632999 0.11245448
v 0.17250158 -0.29625 0.10926542
v 0.17343058 -0.29625 0.11264513
v 0.17343058 -0.29632999 0.11264513
v 0.17250158 -0.29632999 0.10926542
v 0.16911495 -0.29625 0.11219104
v 0.16871153 -0.29625 0.11247576
v 0.16825274 -0.29625 0.11266848
v 0.16723227 -0.29625 0.11281801
v 0.16617996 -0.29625 0.11271993
v 0.16522221 -0.29625 0.11245448
v 0.16522221 -0.29632999 0.11245448
v 0.16617996 -0.29632999 0.11271993
v 0.16723227 -0.29632999 0.11281801
v 0.16825274 -0.29632999 0.11266848
v 0.16871153 -0.29632999 0.11247576
v 0.16911495 -0.29632999 0.11219104
v 0.17343058 -0.29625 0.11264513
v 0.17103878 -0.29625 0.11262433
v 0.17103878 -0.29632999 0.11262433
v 0.17343058 -0.29632999 0.11264513
v 0.16930212 -0.29625 0.111886
v 0.16911495 -0.29625 0.11219104
v 0.16911495 -0.29632999 0.11219104
v 0.16930212 -0.29632999 0.111886
v 0.17103878 -0.29625 0.11262433
v 0.17016525 -0.29625 0.10962592
v 0.17016525 -0.29632999 0.10962592
v 0.17103878 -0.29632999 0.11262433
v 0.16936951 -0.29625 0.11154909
v 0.16930212 -0.29625 0.111886
v 0.16930212 -0.29632999 0.111886
v 0.16936951 -0.29632999 0.11154909
v 0.16935606 -0.29625 0.11120579
v 0.16936951 -0.29625 0.11154909
v 0.16936951 -0.29632999 0.11154909
v 0.16935606 -0.29632999 0.11120579
v 0.1696707 -0.29625 0.10932573
v 0.16915195 -0.29625 0.10906961
v 0.16915195 -0.29632999 0.10906961
v 0.1696707 -0.29632999 0.10932573
v 0.16915195 -0.29625 0.10906961
v 0.16861292 -0.29625 0.10885948
v 0.16861292 -0.29632999 0.10885948
v 0.16915195 -0.29632999 0.10906961
v 0.16909414 -0.29625 0.1105757
v 0.16926254 -0.29625 0.11087519
v 0.16926254 -0.29632999 0.11087519
v 0.16909414 -0.29632999 0.1105757
v 0.16805771 -0.29625 0.10869694
v 0.1668865 -0.29625 0.10853229
v 0.16630821 -0.29625 0.10860822
v 0.16580109 -0.29625 0.10886679
v 0.16580109 -0.29632999 0.10886679
v 0.16630821 -0.29632999 0.10860822
v 0.1668865 -0.29632999 0.10853229
v 0.16805771 -0.29632999 0.10869694
v 0.16861292 -0.29625 0.10885948
v 0.16805771 -0.29625 0.10869694
v 0.16805771 -0.29632999 0.10869694
v 0.16861292 -0.29632999 0.10885948
v 0.16562777 -0.29625 0.10958779
v 0.1665925 -0.29625 0.10956326
v 0.16753515 -0.29625 0.10969049
v 0.16839069 -0.29625 0.11001334
v 0.16909414 -0.29625 0.1105757
v 0.16909414 -0.29632999 0.1105757
v 0.16839069 -0.29632999 0.11001334
v 0.16753515 -0.29632999 0.10969049
v 0.1665925 -0.29632999 0.10956326
v 0.16562777 -0.29632999 0.10958779
v 0.16580109 -0.29625 0.10886679
v 0.16569391 -0.29625 0.10902618
v 0.16569391 -0.29632999 0.10902618
v 0.16580109 -0.29632999 0.10886679
v 0.16562721 -0.29625 0.10920632
v 0.16560474 -0.29625 0.10939709
v 0.16560474 -0.29632999 0.10939709
v 0.16562721 -0.29632999 0.10920632
v 0.16569391 -0.29625 0.10902618
v 0.16562721 -0.29625 0.10920632
v 0.16562721 -0.29632999 0.10920632
v 0.16569391 -0.29632999 0.10902618
v 0.16560474 -0.29625 0.10939709
v 0.16562777 -0.29625 0.10958779
v 0.16562777 -0.29632999 0.10958779
v 0.16560474 -0.29632999 0.10939709
v 0.17081682 -0.29625 0.10758987
v 0.17119476 -0.29625 0.10743518
v 0.17119476 -0.29632999 0.10743518
v 0.17081682 -0.29632999 0.10758987
v 0.17947592 -0.29625 0.11236089
v 0.17866598 -0.29625 0.11268521
v 0.17775921 -0.29625 0.11274566
v 0.17685633 -0.29625 0.11258512
v 0.17605808 -0.29625 0.11224649
v 0.17605808 -0.29632999 0.11224649
v 0.17685633 -0.29632999 0.11258512
v 0.17775921 -0.29632999 0.11274566
v 0.17866598 -0.29632999 0.11268521
v 0.17947592 -0.29632999 0.11236089
v 0.17016525 -0.29625 0.10962592
v 0.1696707 -0.29625 0.10932573
v 0.1696707 -0.29632999 0.10932573
v 0.17016525 -0.29632999 0.10962592
v 0.16926254 -0.29625 0.11087519
v 0.16935606 -0.29625 0.11120579
v 0.16935606 -0.29632999 0.11120579
v 0.16926254 -0.29632999 0.11087519
v 0.17049538 -0.29625 0.10784176
v 0.17081682 -0.29625 0.10758987
v 0.17081682 -0.29632999 0.10758987
v 0.17049538 -0.29632999 0.10784176
v 0.18690435 -0.29625 0.11257234
v 0.18475868 -0.29625 0.11259314
v 0.18475868 -0.29632999 0.11259314
v 0.18690435 -0.29632999 0.11257234
v 0.16611359 -0.29632999 0.1102634
v 0.16575603 -0.29632999 0.11029493
v 0.16610224 -0.29632999 0.11123735
v 0.16635414 -0.29632999 0.1116642
v 0.16670582 -0.29632999 0.11202118
v 0.16725393 -0.29632999 0.11212864
v 0.16751451 -0.29632999 0.11206213
v 0.16769026 -0.29632999 0.11185133
v 0.16769773 -0.29632999 0.11147869
v 0.1676029 -0.29632999 0.11111824
v 0.16741301 -0.29632999 0.11079753
v 0.16714258 -0.29632999 0.11054104
v 0.1668177 -0.29632999 0.11038838
v 0.16647116 -0.29632999 0.11029489
v 0.1839773 -0.29632999 0.11169056
v 0.18411739 -0.29632999 0.11152896
v 0.18419279 -0.29632999 0.11097266
v 0.1840888 -0.29632999 0.11043749
v 0.18373262 -0.29632999 0.10940061
v 0.18357628 -0.29632999 0.10908711
v 0.18335136 -0.29632999 0.10881853
v 0.1830702 -0.29632999 0.10860955
v 0.18274818 -0.29632999 0.10847162
v 0.18256798 -0.29632999 0.10847561
v 0.18239532 -0.29632999 0.10852732
v 0.18224258 -0.29632999 0.10862303
v 0.18212076 -0.29632999 0.10875587
v 0.18202236 -0.29632999 0.10933637
v 0.18210041 -0.29632999 0.10990583
v 0.1824674 -0.29632999 0.1109986
v 0.18263128 -0.29632999 0.11127127
v 0.18284224 -0.29632999 0.11150939
v 0.18309317 -0.29632999 0.11170494
v 0.18337559 -0.29632999 0.11185133
v 0.18358932 -0.29632999 0.11185917
v 0.18379597 -0.29632999 0.11180396
v 0.18737154 -0.29632999 0.10875268
v 0.18730299 -0.29632999 0.10892918
v 0.18669682 -0.29632999 0.10865793
v 0.18636658 -0.29632999 0.1086289
v 0.18605164 -0.29632999 0.10875587
v 0.18599562 -0.29632999 0.10884098
v 0.18595705 -0.29632999 0.10893529
v 0.18593735 -0.29632999 0.10903526
v 0.18593725 -0.29632999 0.10913716
v 0.18690435 -0.29632999 0.11257234
v 0.18475868 -0.29632999 0.11259314
v 0.18458883 -0.29632999 0.11205932
v 0.18451176 -0.29632999 0.11216299
v 0.18442806 -0.29632999 0.11226137
v 0.18433807 -0.29632999 0.11235405
v 0.18424219 -0.29632999 0.11244061
v 0.18363688 -0.29632999 0.1127137
v 0.18296656 -0.29632999 0.11277425
v 0.18228846 -0.29632999 0.11267752
v 0.18165974 -0.29632999 0.11247874
v 0.1808349 -0.29632999 0.11195776
v 0.18016443 -0.29632999 0.11126681
v 0.17971039 -0.29632999 0.11042704
v 0.17953485 -0.29632999 0.10945953
v 0.17846981 -0.29632999 0.1087121
v 0.17785604 -0.29632999 0.10854262
v 0.177202 -0.29632999 0.10863801
v 0.17695381 -0.29632999 0.10887952
v 0.17683889 -0.29632999 0.10920519
v 0.17685535 -0.29632999 0.10993096
v 0.17716993 -0.29632999 0.11100077
v 0.17747637 -0.29632999 0.11144939
v 0.17793686 -0.29632999 0.1117716
v 0.17828772 -0.29632999 0.11183996
v 0.17862234 -0.29632999 0.11176467
v 0.17920902 -0.29632999 0.11137298
v 0.17928627 -0.29632999 0.11161699
v 0.17935656 -0.29632999 0.11186313
v 0.17941978 -0.29632999 0.11211116
v 0.17947592 -0.29632999 0.11236089
v 0.17866598 -0.29632999 0.11268521
v 0.17775921 -0.29632999 0.11274566
v 0.17685633 -0.29632999 0.11258512
v 0.17605808 -0.29632999 0.11224649
v 0.17537392 -0.29632999 0.11174203
v 0.17480152 -0.29632999 0.11107574
v 0.17442413 -0.29632999 0.11027814
v 0.17432489 -0.29632999 0.10937981
v 0.17418892 -0.29632999 0.10925979
v 0.1740449 -0.29632999 0.10914952
v 0.17389355 -0.29632999 0.10904956
v 0.17373562 -0.29632999 0.10896038
v 0.1731732 -0.29632999 0.1087368
v 0.17287281 -0.29632999 0.10872445
v 0.17259518 -0.29632999 0.10886679
v 0.17254951 -0.29632999 0.10896002
v 0.17251829 -0.29632999 0.10905904
v 0.17250219 -0.29632999 0.1091616
v 0.17250158 -0.29632999 0.10926542
v 0.17343058 -0.29632999 0.11264513
v 0.17103878 -0.29632999 0.11262433
v 0.17016525 -0.29632999 0.10962592
v 0.1696707 -0.29632999 0.10932573
v 0.16915195 -0.29632999 0.10906961
v 0.16861292 -0.29632999 0.10885948
v 0.16805771 -0.29632999 0.10869694
v 0.1668865 -0.29632999 0.10853229
v 0.16630821 -0.29632999 0.10860822
v 0.16580109 -0.29632999 0.10886679
v 0.16569391 -0.29632999 0.10902618
v 0.16562721 -0.29632999 0.10920632
v 0.16560474 -0.29632999 0.10939709
v 0.16562777 -0.29632999 0.10958779
v 0.1665925 -0.29632999 0.10956326
v 0.16753515 -0.29632999 0.10969049
v 0.16839069 -0.29632999 0.11001334
v 0.16909414 -0.29632999 0.1105757
v 0.16926254 -0.29632999 0.11087519
v 0.16935606 -0.29632999 0.11120579
v 0.16936951 -0.29632999 0.11154909
v 0.16930212 -0.29632999 0.111886
v 0.16911495 -0.29632999 0.11219104
v 0.16871153 -0.29632999 0.11247576
v 0.16825274 -0.29632999 0.11266848
v 0.16723227 -0.29632999 0.11281801
v 0.16617996 -0.29632999 0.11271993
v 0.16522221 -0.29632999 0.11245448
v 0.16441151 -0.29632999 0.11200208
v 0.16376213 -0.29632999 0.11133861
v 0.16332722 -0.29632999 0.11051839
v 0.1631424 -0.29632999 0.10960859
v 0.16323765 -0.29632999 0.10910214
v 0.16345221 -0.29632999 0.10863361
v 0.1637734 -0.29632999 0.10823064
v 0.1641823 -0.29632999 0.107917
v 0.1649061 -0.29632999 0.10759434
v 0.16565973 -0.29632999 0.10743501
v 0.16643009 -0.29632999 0.10741583
v 0.16720411 -0.29632999 0.1075136
v 0.16871078 -0.29632999 0.10796721
v 0.17007513 -0.29632999 0.10861028
v 0.1701124 -0.29632999 0.10857735
v 0.17011326 -0.29632999 0.10855481
v 0.17025478 -0.29632999 0.10817174
v 0.17049538 -0.29632999 0.10784176
v 0.17081682 -0.29632999 0.10758987
v 0.17119476 -0.29632999 0.10743518
v 0.17213827 -0.29632999 0.10742099
v 0.17302588 -0.29632999 0.10763362
v 0.17385239 -0.29632999 0.10802695
v 0.17461262 -0.29632999 0.10855481
v 0.17499018 -0.29632999 0.10806573
v 0.1754961 -0.29632999 0.10770728
v 0.17608717 -0.29632999 0.10747363
v 0.17672016 -0.29632999 0.10735891
v 0.17672016 -0.29632999 0.10737624
v 0.1775692 -0.29632999 0.10745158
v 0.17835196 -0.29632999 0.10770859
v 0.17907362 -0.29632999 0.10810792
v 0.17973938 -0.29632999 0.10861028
v 0.17996557 -0.29632999 0.10824683
v 0.18025309 -0.29632999 0.10792968
v 0.18059269 -0.29632999 0.10766904
v 0.1809734 -0.29632999 0.10747331
v 0.18171217 -0.29632999 0.10735323
v 0.18245615 -0.29632999 0.10743511
v 0.18315113 -0.29632999 0.10771297
v 0.18374649 -0.29632999 0.10816658
v 0.18385044 -0.29632999 0.1079714
v 0.1839818 -0.29632999 0.10779351
v 0.18413776 -0.29632999 0.10763676
v 0.18431498 -0.29632999 0.1075045
v 0.18516445 -0.29632999 0.10730865
v 0.18600224 -0.29632999 0.10744038
v 0.18678932 -0.29632999 0.10777748
v 0.18748671 -0.29632999 0.10819777
v 0.18746372 -0.29632999 0.10838572
v 0.18742525 -0.29632999 0.10857111
v 0.18379597 -0.29625 0.11180396
v 0.1839773 -0.29625 0.11169056
v 0.1839773 -0.29632999 0.11169056
v 0.18379597 -0.29632999 0.11180396
f 1 2 4
f 4 2 3
f 5 6 8
f 8 6 7
f 9 10 12
f 12 10 11
f 13 14 16
f 16 14 15
f 17 18 20
f 20 18 19
f 22 124 21
f 21 124 106
f 21 106 107
f 23 122 22
f 22 122 123
f 22 123 124
f 122 23 121
f 121 23 24
f 121 24 25
f 121 25 120
f 120 25 26
f 120 26 119
f 119 26 27
f 119 27 118
f 118 27 28
f 118 28 117
f 117 28 29
f 117 29 116
f 116 29 30
f 116 30 115
f 115 30 31
f 115 31 114
f 114 31 113
f 113 31 112
f 112 31 111
f 111 31 110
f 110 31 32
f 110 32 109
f 109 32 33
f 109 33 108
f 108 33 34
f 108 34 107
f 107 34 21
f 36 185 35
f 35 185 187
f 35 187 56
f 56 187 188
f 56 188 55
f 55 188 54
f 54 188 53
f 53 188 189
f 53 189 190
f 36 37 185
f 185 37 38
f 185 38 184
f 184 38 39
f 184 39 183
f 183 39 177
f 183 177 182
f 182 177 181
f 181 177 178
f 181 178 180
f 180 178 179
f 177 39 176
f 176 39 40
f 176 40 41
f 176 41 175
f 175 41 42
f 175 42 43
f 175 43 174
f 174 43 44
f 174 44 173
f 173 44 45
f 173 45 77
f 77 45 46
f 77 46 47
f 47 48 77
f 77 48 76
f 76 48 49
f 76 49 75
f 75 49 69
f 75 69 70
f 49 50 69
f 69 50 51
f 69 51 193
f 193 51 192
f 192 51 52
f 192 52 191
f 191 52 190
f 190 52 53
f 57 58 194
f 194 58 59
f 194 59 193
f 193 59 60
f 193 60 61
f 62 68 61
f 61 68 69
f 61 69 193
f 63 66 62
f 62 66 67
f 62 67 68
f 64 65 63
f 63 65 66
f 71 73 70
f 70 73 74
f 70 74 75
f 71 72 73
f 78 171 77
f 77 171 172
f 77 172 173
f 171 78 85
f 85 78 79
f 85 79 84
f 84 79 83
f 83 79 80
f 83 80 81
f 81 82 83
f 171 85 170
f 170 85 86
f 170 86 169
f 169 86 146
f 169 146 147
f 87 143 86
f 86 143 144
f 86 144 145
f 88 92 87
f 87 92 93
f 87 93 143
f 143 93 94
f 143 94 95
f 92 88 91
f 91 88 89
f 91 89 90
f 143 95 142
f 142 95 96
f 142 96 141
f 141 96 133
f 141 133 140
f 140 133 134
f 140 134 139
f 139 134 138
f 138 134 135
f 138 135 137
f 137 135 136
f 97 131 96
f 96 131 132
f 96 132 133
f 98 101 97
f 97 101 102
f 97 102 130
f 130 102 103
f 130 103 129
f 129 103 104
f 129 104 128
f 128 104 105
f 128 105 127
f 127 105 126
f 126 105 125
f 125 105 106
f 125 106 124
f 98 99 101
f 101 99 100
f 130 131 97
f 145 146 86
f 169 147 168
f 168 147 148
f 168 148 149
f 168 149 167
f 167 149 150
f 167 150 166
f 166 150 151
f 166 151 165
f 165 151 152
f 165 152 164
f 164 152 153
f 164 153 163
f 163 153 158
f 163 158 159
f 158 153 157
f 157 153 154
f 157 154 156
f 156 154 155
f 163 159 162
f 162 159 160
f 162 160 161
f 185 186 187
f 195 196 198
f 198 196 197
f 199 200 202
f 202 200 201
f 203 204 210
f 210 204 209
f 209 204 205
f 209 205 208
f 208 205 206
f 208 206 207
f 211 212 214
f 214 212 213
f 215 216 218
f 218 216 217
f 219 220 222
f 222 220 221
f 223 224 230
f 230 224 229
f 229 224 225
f 229 225 228
f 228 225 226
f 228 226 227
f 231 232 234
f 234 232 233
f 235 236 238
f 238 236 237
f 239 240 242
f 242 240 241
f 243 244 246
f 246 244 245
f 247 248 250
f 250 248 249
f 251 252 254
f 254 252 253
f 255 256 258
f 258 256 257
f 259 260 262
f 262 260 261
f 263 264 270
f 270 264 269
f 269 264 265
f 269 265 268
f 268 265 266
f 268 266 267
f 271 272 274
f 274 272 273
f 275 276 278
f 278 276 277
f 279 280 282
f 282 280 281
f 283 284 286
f 286 284 285
f 287 288 290
f 290 288 289
f 291 292 294
f 294 292 293
f 295 296 302
f 302 296 301
f 301 296 297
f 301 297 300
f 300 297 298
f 300 298 299
f 303 304 306
f 306 304 305
f 307 308 310
f 310 308 309
f 311 312 314
f 314 312 313
f 315 316 318
f 318 316 317
f 319 320 326
f 326 320 325
f 325 320 321
f 325 321 324
f 324 321 322
f 324 322 323
f 327 328 330
f 330 328 329
f 331 332 340
f 340 332 339
f 339 332 333
f 339 333 338
f 338 333 334
f 338 334 337
f 337 334 335
f 337 335 336
f 341 342 344
f 344 342 343
f 345 346 348
f 348 346 347
f 349 350 352
f 352 350 351
f 353 354 356
f 356 354 355
f 357 358 360
f 360 358 359
f 361 362 364
f 364 362 363
f 365 366 368
f 368 366 367
f 369 370 372
f 372 370 371
f 373 374 376
f 376 374 375
f 377 378 380
f 380 378 379
f 381 382 384
f 384 382 383
f 385 386 388
f 388 386 387
f 389 390 392
f 392 390 391
f 393 394 396
f 396 394 395
f 397 398 400
f 400 398 399
f 401 402 404
f 404 402 403
f 405 406 408
f 408 406 407
f 409 410 418
f 418 410 417
f 417 410 411
f 417 411 416
f 416 411 412
f 416 412 415
f 415 412 413
f 415 413 414
f 419 420 422
f 422 420 421
f 423 424 432
f 432 424 431
f 431 424 425
f 431 425 430
f 430 425 426
f 430 426 429
f 429 426 427
f 429 427 428
f 433 434 436
f 436 434 435
f 437 438 444
f 444 438 443
f 443 438 439
f 443 439 442
f 442 439 440
f 442 440 441
f 445 446 448
f 448 446 447
f 449 450 456
f 456 450 455
f 455 450 451
f 455 451 454
f 454 451 452
f 454 452 453
f 457 458 466
f 466 458 465
f 465 458 459
f 465 459 464
f 464 459 460
f 464 460 463
f 463 460 461
f 463 461 462
f 467 468 474
f 474 468 473
f 473 468 469
f 473 469 472
f 472 469 470
f 472 470 471
f 475 476 478
f 478 476 477
f 479 480 486
f 486 480 485
f 485 480 481
f 485 481 484
f 484 481 482
f 484 482 483
f 487 488 496
f 496 488 495
f 495 488 489
f 495 489 494
f 494 489 490
f 494 490 493
f 493 490 491
f 493 491 492
f 497 498 500
f 500 498 499
f 501 502 510
f 510 502 509
f 509 502 503
f 509 503 508
f 508 503 504
f 508 504 507
f 507 504 505
f 507 505 506
f 511 512 514
f 514 512 513
f 515 516 518
f 518 516 517
f 519 520 522
f 522 520 521
f 523 524 526
f 526 524 525
f 527 528 532
f 532 528 531
f 531 528 529
f 531 529 530
f 533 534 536
f 536 534 535
f 537 538 546
f 546 538 545
f 545 538 539
f 545 539 544
f 544 539 540
f 544 540 543
f 543 540 541
f 543 541 542
f 547 548 550
f 550 548 549
f 551 552 564
f 564 552 563
f 563 552 553
f 563 553 562
f 562 553 554
f 562 554 561
f 561 554 555
f 561 555 560
f 560 555 556
f 560 556 559
f 559 556 557
f 559 557 558
f 565 566 568
f 568 566 567
f 569 570 572
f 572 570 571
f 573 574 576
f 576 574 575
f 577 578 580
f 580 578 579
f 581 582 584
f 584 582 583
f 585 586 588
f 588 586 587
f 589 590 596
f 596 590 595
f 595 590 591
f 595 591 594
f 594 591 592
f 594 592 593
f 597 598 600
f 600 598 599
f 601 602 604
f 604 602 603
f 605 606 608
f 608 606 607
f 609 610 612
f 612 610 611
f 613 614 616
f 616 614 615
f 617 618 620
f 620 618 619
f 621 622 624
f 624 622 623
f 625 626 628
f 628 626 627
f 629 630 632
f 632 630 631
f 633 634 636
f 636 634 635
f 637 638 648
f 648 638 647
f 647 638 639
f 647 639 646
f 646 639 640
f 646 640 645
f 645 640 641
f 645 641 644
f 644 641 642
f 644 642 643
f 649 650 652
f 652 650 651
f 653 654 656
f 656 654 655
f 657 658 660
f 660 658 659
f 661 662 664
f 664 662 663
f 665 666 668
f 668 666 667
f 669 670 672
f 672 670 671
f 673 674 676
f 676 674 675
f 677 678 680
f 680 678 679
f 681 682 688
f 688 682 687
f 687 682 683
f 687 683 686
f 686 683 684
f 686 684 685
f 689 690 692
f 692 690 691
f 693 694 702
f 702 694 701
f 701 694 695
f 701 695 700
f 700 695 696
f 700 696 699
f 699 696 697
f 699 697 698
f 703 704 706
f 706 704 705
f 707 708 710
f 710 708 709
f 711 712 714
f 714 712 713
f 715 716 718
f 718 716 717
f 719 720 722
f 722 720 721
f 723 724 732
f 732 724 731
f 731 724 725
f 731 725 730
f 730 725 726
f 730 726 729
f 729 726 727
f 729 727 728
f 733 734 736
f 736 734 735
f 737 738 740
f 740 738 739
f 741 742 744
f 744 742 743
f 745 746 748
f 748 746 747
f 750 857 749
f 749 857 858
f 749 858 859
f 751 874 750
f 750 874 875
f 750 875 857
f 857 875 856
f 856 875 876
f 856 876 855
f 855 876 854
f 854 876 853
f 853 876 877
f 853 877 852
f 852 877 878
f 852 878 851
f 851 878 879
f 851 879 884
f 884 879 880
f 884 880 883
f 883 880 882
f 882 880 881
f 874 751 873
f 873 751 752
f 873 752 872
f 872 752 753
f 872 753 871
f 871 753 754
f 871 754 870
f 870 754 869
f 869 754 868
f 868 754 867
f 867 754 866
f 866 754 755
f 866 755 865
f 865 755 756
f 865 756 864
f 864 756 757
f 864 757 863
f 863 757 758
f 863 758 862
f 862 758 759
f 862 759 861
f 861 759 760
f 861 760 860
f 860 760 761
f 860 761 762
f 860 762 859
f 859 762 749
f 784 763 796
f 796 763 764
f 796 764 794
f 794 764 765
f 794 765 793
f 793 765 766
f 793 766 767
f 767 768 793
f 793 768 792
f 792 768 791
f 791 768 769
f 791 769 790
f 790 769 789
f 789 769 770
f 789 770 788
f 788 770 912
f 788 912 920
f 920 912 913
f 920 913 919
f 919 913 914
f 919 914 915
f 770 771 912
f 912 771 772
f 912 772 906
f 906 772 905
f 905 772 773
f 905 773 904
f 904 773 774
f 904 774 775
f 775 776 904
f 904 776 808
f 904 808 809
f 776 777 808
f 808 777 807
f 807 777 778
f 807 778 806
f 806 778 779
f 806 779 780
f 806 780 805
f 805 780 781
f 805 781 782
f 783 797 782
f 782 797 798
f 782 798 804
f 804 798 799
f 804 799 800
f 797 783 796
f 796 783 784
f 786 787 785
f 785 787 922
f 922 787 788
f 922 788 921
f 921 788 920
f 794 795 796
f 804 800 803
f 803 800 801
f 803 801 802
f 804 805 782
f 809 810 904
f 904 810 903
f 903 810 896
f 903 896 902
f 902 896 897
f 902 897 898
f 810 811 896
f 896 811 895
f 895 811 812
f 895 812 835
f 835 812 834
f 834 812 813
f 834 813 833
f 833 813 832
f 832 813 814
f 832 814 831
f 831 814 815
f 831 815 830
f 830 815 816
f 830 816 829
f 829 816 817
f 829 817 828
f 828 817 818
f 828 818 823
f 823 818 822
f 822 818 819
f 822 819 821
f 821 819 820
f 823 824 828
f 828 824 827
f 827 824 825
f 827 825 826
f 835 836 895
f 895 836 837
f 895 837 838
f 839 886 838
f 838 886 887
f 838 887 888
f 886 839 885
f 885 839 840
f 885 840 848
f 848 840 841
f 848 841 847
f 847 841 842
f 847 842 843
f 847 843 846
f 846 843 844
f 846 844 845
f 848 849 885
f 885 849 850
f 885 850 884
f 884 850 851
f 838 888 894
f 894 888 889
f 894 889 893
f 893 889 890
f 893 890 892
f 892 890 891
f 894 895 838
f 899 900 898
f 898 900 901
f 898 901 902
f 912 906 911
f 911 906 907
f 911 907 908
f 909 910 908
f 908 910 911
f 919 915 918
f 918 915 916
f 918 916 917
f 923 924 926
f 926 924 925
