v 0.086610842 0.054676943 9.9999998e-05
v 0.08696538 0.054617085 9.9999998e-05
v 0.087248087 0.054437518 9.9999998e-05
v 0.087248087 0.054437518 0.000125
v 0.08696538 0.054617085 0.000125
v 0.086610842 0.054676943 0.000125
v 0.088176327 0.052266097 9.9999998e-05
v 0.087857704 0.052554793 9.9999998e-05
v 0.087432261 0.052724695 9.9999998e-05
v 0.087432261 0.052724695 0.000125
v 0.087857704 0.052554793 0.000125
v 0.088176327 0.052266097 0.000125
v 0.087248087 0.054437518 9.9999998e-05
v 0.087433186 0.05416678 9.9999998e-05
v 0.087494888 0.053833423 9.9999998e-05
v 0.087494888 0.053833423 0.000125
v 0.087433186 0.05416678 0.000125
v 0.087248087 0.054437518 0.000125
v 0.088441544 0.051394954 9.9999998e-05
v 0.088375235 0.051874266 9.9999998e-05
v 0.088176327 0.052266097 9.9999998e-05
v 0.088176327 0.052266097 0.000125
v 0.088375235 0.051874266 0.000125
v 0.088441544 0.051394954 0.000125
v 0.087494888 0.053833423 9.9999998e-05
v 0.087410164 0.053432846 9.9999998e-05
v 0.087156 0.053151979 9.9999998e-05
v 0.087156 0.053151979 0.000125
v 0.087410164 0.053432846 0.000125
v 0.087494888 0.053833423 0.000125
v 0.087925854 0.050195975 9.9999998e-05
v 0.088312616 0.050741591 9.9999998e-05
v 0.088441544 0.051394954 9.9999998e-05
v 0.088441544 0.051394954 0.000125
v 0.088312616 0.050741591 0.000125
v 0.087925854 0.050195975 0.000125
v 0.087156 0.053151979 9.9999998e-05
v 0.08679594 0.052986221 9.9999998e-05
v 0.086393518 0.05293097 9.9999998e-05
v 0.086393518 0.05293097 0.000125
v 0.08679594 0.052986221 0.000125
v 0.087156 0.053151979 0.000125
v 0.086621895 0.049704227 9.9999998e-05
v 0.087342024 0.049827166 9.9999998e-05
v 0.087925854 0.050195975 9.9999998e-05
v 0.087925854 0.050195975 0.000125
v 0.087342024 0.049827166 0.000125
v 0.086621895 0.049704227 0.000125
v 0.086393518 0.05293097 9.9999998e-05
v 0.086286697 0.052938337 9.9999998e-05
v 0.086286697 0.052938337 0.000125
v 0.086393518 0.05293097 0.000125
v 0.085441341 0.050127831 9.9999998e-05
v 0.085971298 0.049810128 9.9999998e-05
v 0.086621895 0.049704227 9.9999998e-05
v 0.086621895 0.049704227 0.000125
v 0.085971298 0.049810128 0.000125
v 0.085441341 0.050127831 0.000125
v 0.086286697 0.052938337 9.9999998e-05
v 0.086213026 0.052356343 9.9999998e-05
v 0.086213026 0.052356343 0.000125
v 0.086286697 0.052938337 0.000125
v 0.084905386 0.05122551 0.000125
v 0.085072527 0.050614052 0.000125
v 0.085441341 0.050127831 0.000125
v 0.085971298 0.049810128 0.000125
v 0.086621895 0.049704227 0.000125
v 0.087342024 0.049827166 0.000125
v 0.087925854 0.050195975 0.000125
v 0.088312616 0.050741591 0.000125
v 0.088441544 0.051394954 0.000125
v 0.088375235 0.051874266 0.000125
v 0.088176327 0.052266097 0.000125
v 0.087857704 0.052554793 0.000125
v 0.087432261 0.052724695 0.000125
v 0.087755489 0.052923603 0.000125
v 0.087988472 0.053181448 0.000125
v 0.088176327 0.053818688 0.000125
v 0.08812706 0.054176908 0.000125
v 0.087979259 0.054514871 0.000125
v 0.087738457 0.054808168 0.000125
v 0.087410164 0.055032401 0.000125
v 0.087020636 0.055174675 0.000125
v 0.086596107 0.055222101 0.000125
v 0.086007671 0.055130472 0.000125
v 0.085524216 0.054855595 0.000125
v 0.085170603 0.054414034 0.000125
v 0.084971695 0.053822374 0.000125
v 0.085634718 0.0537045 0.000125
v 0.085754433 0.054129944 0.000125
v 0.085966234 0.054433832 0.000125
v 0.086256313 0.054616165 0.000125
v 0.086610842 0.054676943 0.000125
v 0.08696538 0.054617085 0.000125
v 0.087248087 0.054437518 0.000125
v 0.087433186 0.05416678 0.000125
v 0.087494888 0.053833423 0.000125
v 0.087410164 0.053432846 0.000125
v 0.087156 0.053151979 0.000125
v 0.08679594 0.052986221 0.000125
v 0.086393518 0.05293097 0.000125
v 0.086286697 0.052938337 0.000125
v 0.086213026 0.052356343 0.000125
v 0.086680832 0.052430015 0.000125
v 0.087100754 0.052355886 0.000125
v 0.087439632 0.052133493 0.000125
v 0.087663403 0.051796913 0.000125
v 0.087737999 0.051380219 0.000125
v 0.087657413 0.050940042 0.000125
v 0.087415686 0.050577216 0.000125
v 0.087057009 0.050334105 0.000125
v 0.086625576 0.050253067 0.000125
v 0.086261377 0.050315228 0.000125
v 0.085957022 0.050501704 0.000125
v 0.085722666 0.050829077 0.000125
v 0.085568419 0.051313915 0.000125
v 0.086213026 0.052356343 9.9999998e-05
v 0.086680832 0.052430015 9.9999998e-05
v 0.086680832 0.052430015 0.000125
v 0.086213026 0.052356343 0.000125
v 0.084905386 0.05122551 9.9999998e-05
v 0.085072527 0.050614052 9.9999998e-05
v 0.085441341 0.050127831 9.9999998e-05
v 0.085441341 0.050127831 0.000125
v 0.085072527 0.050614052 0.000125
v 0.084905386 0.05122551 0.000125
v 0.086680832 0.052430015 9.9999998e-05
v 0.087100754 0.052355886 9.9999998e-05
v 0.087439632 0.052133493 9.9999998e-05
v 0.087439632 0.052133493 0.000125
v 0.087100754 0.052355886 0.000125
v 0.086680832 0.052430015 0.000125
v 0.085441341 0.050127831 9.9999998e-05
v 0.085072527 0.050614052 9.9999998e-05
v 0.084905386 0.05122551 9.9999998e-05
v 0.085568419 0.051313915 9.9999998e-05
v 0.085722666 0.050829077 9.9999998e-05
v 0.085957022 0.050501704 9.9999998e-05
v 0.086261377 0.050315228 9.9999998e-05
v 0.086625576 0.050253067 9.9999998e-05
v 0.087057009 0.050334105 9.9999998e-05
v 0.087415686 0.050577216 9.9999998e-05
v 0.087657413 0.050940042 9.9999998e-05
v 0.087737999 0.051380219 9.9999998e-05
v 0.087663403 0.051796913 9.9999998e-05
v 0.087439632 0.052133493 9.9999998e-05
v 0.087100754 0.052355886 9.9999998e-05
v 0.086680832 0.052430015 9.9999998e-05
v 0.086213026 0.052356343 9.9999998e-05
v 0.086286697 0.052938337 9.9999998e-05
v 0.086393518 0.05293097 9.9999998e-05
v 0.08679594 0.052986221 9.9999998e-05
v 0.087156 0.053151979 9.9999998e-05
v 0.087410164 0.053432846 9.9999998e-05
v 0.087494888 0.053833423 9.9999998e-05
v 0.087433186 0.05416678 9.9999998e-05
v 0.087248087 0.054437518 9.9999998e-05
v 0.08696538 0.054617085 9.9999998e-05
v 0.086610842 0.054676943 9.9999998e-05
v 0.086256313 0.054616165 9.9999998e-05
v 0.085966234 0.054433832 9.9999998e-05
v 0.085754433 0.054129944 9.9999998e-05
v 0.085634718 0.0537045 9.9999998e-05
v 0.084971695 0.053822374 9.9999998e-05
v 0.085170603 0.054414034 9.9999998e-05
v 0.085524216 0.054855595 9.9999998e-05
v 0.086007671 0.055130472 9.9999998e-05
v 0.086596107 0.055222101 9.9999998e-05
v 0.087020636 0.055174675 9.9999998e-05
v 0.087410164 0.055032401 9.9999998e-05
v 0.087738457 0.054808168 9.9999998e-05
v 0.087979259 0.054514871 9.9999998e-05
v 0.08812706 0.054176908 9.9999998e-05
v 0.088176327 0.053818688 9.9999998e-05
v 0.087988472 0.053181448 9.9999998e-05
v 0.087755489 0.052923603 9.9999998e-05
v 0.087432261 0.052724695 9.9999998e-05
v 0.087857704 0.052554793 9.9999998e-05
v 0.088176327 0.052266097 9.9999998e-05
v 0.088375235 0.051874266 9.9999998e-05
v 0.088441544 0.051394954 9.9999998e-05
v 0.088312616 0.050741591 9.9999998e-05
v 0.087925854 0.050195975 9.9999998e-05
v 0.087342024 0.049827166 9.9999998e-05
v 0.086621895 0.049704227 9.9999998e-05
v 0.085971298 0.049810128 9.9999998e-05
v 0.087439632 0.052133493 9.9999998e-05
v 0.087663403 0.051796913 9.9999998e-05
v 0.087737999 0.051380219 9.9999998e-05
v 0.087737999 0.051380219 0.000125
v 0.087663403 0.051796913 0.000125
v 0.087439632 0.052133493 0.000125
v 0.087737999 0.051380219 9.9999998e-05
v 0.087657413 0.050940042 9.9999998e-05
v 0.087415686 0.050577216 9.9999998e-05
v 0.087415686 0.050577216 0.000125
v 0.087657413 0.050940042 0.000125
v 0.087737999 0.051380219 0.000125
v 0.087415686 0.050577216 9.9999998e-05
v 0.087057009 0.050334105 9.9999998e-05
v 0.086625576 0.050253067 9.9999998e-05
v 0.086625576 0.050253067 0.000125
v 0.087057009 0.050334105 0.000125
v 0.087415686 0.050577216 0.000125
v 0.086625576 0.050253067 9.9999998e-05
v 0.086261377 0.050315228 9.9999998e-05
v 0.085957022 0.050501704 9.9999998e-05
v 0.085957022 0.050501704 0.000125
v 0.086261377 0.050315228 0.000125
v 0.086625576 0.050253067 0.000125
v 0.085957022 0.050501704 9.9999998e-05
v 0.085722666 0.050829077 9.9999998e-05
v 0.085568419 0.051313915 9.9999998e-05
v 0.085568419 0.051313915 0.000125
v 0.085722666 0.050829077 0.000125
v 0.085957022 0.050501704 0.000125
v 0.085568419 0.051313915 9.9999998e-05
v 0.084905386 0.05122551 9.9999998e-05
v 0.084905386 0.05122551 0.000125
v 0.085568419 0.051313915 0.000125
v 0.086596107 0.055222101 9.9999998e-05
v 0.086007671 0.055130472 9.9999998e-05
v 0.085524216 0.054855595 9.9999998e-05
v 0.085524216 0.054855595 0.000125
v 0.086007671 0.055130472 0.000125
v 0.086596107 0.055222101 0.000125
v 0.087410164 0.055032401 9.9999998e-05
v 0.087020636 0.055174675 9.9999998e-05
v 0.086596107 0.055222101 9.9999998e-05
v 0.086596107 0.055222101 0.000125
v 0.087020636 0.055174675 0.000125
v 0.087410164 0.055032401 0.000125
v 0.085524216 0.054855595 9.9999998e-05
v 0.085170603 0.054414034 9.9999998e-05
v 0.084971695 0.053822374 9.9999998e-05
v 0.084971695 0.053822374 0.000125
v 0.085170603 0.054414034 0.000125
v 0.085524216 0.054855595 0.000125
v 0.087979259 0.054514871 9.9999998e-05
v 0.087738457 0.054808168 9.9999998e-05
v 0.087410164 0.055032401 9.9999998e-05
v 0.087410164 0.055032401 0.000125
v 0.087738457 0.054808168 0.000125
v 0.087979259 0.054514871 0.000125
v 0.084971695 0.053822374 9.9999998e-05
v 0.085634718 0.0537045 9.9999998e-05
v 0.085634718 0.0537045 0.000125
v 0.084971695 0.053822374 0.000125
v 0.088176327 0.053818688 9.9999998e-05
v 0.08812706 0.054176908 9.9999998e-05
v 0.087979259 0.054514871 9.9999998e-05
v 0.087979259 0.054514871 0.000125
v 0.08812706 0.054176908 0.000125
v 0.088176327 0.053818688 0.000125
v 0.085634718 0.0537045 9.9999998e-05
v 0.085754433 0.054129944 9.9999998e-05
v 0.085966234 0.054433832 9.9999998e-05
v 0.085966234 0.054433832 0.000125
v 0.085754433 0.054129944 0.000125
v 0.085634718 0.0537045 0.000125
v 0.087988472 0.053181448 9.9999998e-05
v 0.088176327 0.053818688 9.9999998e-05
v 0.088176327 0.053818688 0.000125
v 0.087988472 0.053181448 0.000125
v 0.085966234 0.054433832 9.9999998e-05
v 0.086256313 0.054616165 9.9999998e-05
v 0.086610842 0.054676943 9.9999998e-05
v 0.086610842 0.054676943 0.000125
v 0.086256313 0.054616165 0.000125
v 0.085966234 0.054433832 0.000125
v 0.087432261 0.052724695 9.9999998e-05
v 0.087755489 0.052923603 9.9999998e-05
v 0.087988472 0.053181448 9.9999998e-05
v 0.087988472 0.053181448 0.000125
v 0.087755489 0.052923603 0.000125
v 0.087432261 0.052724695 0.000125
f 1 2 6
f 6 2 5
f 5 2 3
f 5 3 4
f 7 8 12
f 12 8 11
f 11 8 9
f 11 9 10
f 13 14 18
f 18 14 17
f 17 14 15
f 17 15 16
f 19 20 24
f 24 20 23
f 23 20 21
f 23 21 22
f 25 26 30
f 30 26 29
f 29 26 27
f 29 27 28
f 31 32 36
f 36 32 35
f 35 32 33
f 35 33 34
f 37 38 42
f 42 38 41
f 41 38 39
f 41 39 40
f 43 44 48
f 48 44 47
f 47 44 45
f 47 45 46
f 49 50 52
f 52 50 51
f 53 54 58
f 58 54 57
f 57 54 55
f 57 55 56
f 59 60 62
f 62 60 61
f 63 64 116
f 116 64 115
f 115 64 65
f 115 65 114
f 114 65 66
f 114 66 113
f 113 66 67
f 113 67 112
f 112 67 111
f 111 67 68
f 111 68 110
f 110 68 69
f 110 69 109
f 109 69 70
f 109 70 108
f 108 70 71
f 108 71 72
f 108 72 107
f 107 72 73
f 107 73 74
f 107 74 106
f 106 74 75
f 106 75 105
f 105 75 99
f 105 99 100
f 99 75 98
f 98 75 76
f 98 76 77
f 98 77 97
f 97 77 78
f 97 78 79
f 79 80 97
f 97 80 96
f 96 80 81
f 96 81 95
f 95 81 82
f 95 82 94
f 94 82 83
f 94 83 93
f 93 83 84
f 93 84 92
f 92 84 85
f 92 85 91
f 91 85 86
f 91 86 90
f 90 86 87
f 90 87 89
f 89 87 88
f 105 100 104
f 104 100 101
f 104 101 103
f 103 101 102
f 117 118 120
f 120 118 119
f 121 122 126
f 126 122 125
f 125 122 123
f 125 123 124
f 127 128 132
f 132 128 131
f 131 128 129
f 131 129 130
f 134 137 133
f 133 137 138
f 133 138 186
f 186 138 139
f 186 139 185
f 185 139 140
f 185 140 141
f 135 136 134
f 134 136 137
f 185 141 184
f 184 141 142
f 184 142 183
f 183 142 143
f 183 143 182
f 182 143 144
f 182 144 181
f 181 144 180
f 180 144 145
f 180 145 179
f 179 145 178
f 178 145 146
f 178 146 177
f 177 146 147
f 177 147 153
f 153 147 152
f 152 147 148
f 152 148 151
f 151 148 149
f 151 149 150
f 153 154 177
f 177 154 176
f 176 154 175
f 175 154 155
f 175 155 174
f 174 155 173
f 173 155 172
f 172 155 156
f 172 156 171
f 171 156 157
f 171 157 170
f 170 157 158
f 170 158 169
f 169 158 159
f 169 159 168
f 168 159 160
f 168 160 167
f 167 160 161
f 167 161 166
f 166 161 162
f 166 162 165
f 165 162 163
f 165 163 164
f 187 188 192
f 192 188 191
f 191 188 189
f 191 189 190
f 193 194 198
f 198 194 197
f 197 194 195
f 197 195 196
f 199 200 204
f 204 200 203
f 203 200 201
f 203 201 202
f 205 206 210
f 210 206 209
f 209 206 207
f 209 207 208
f 211 212 216
f 216 212 215
f 215 212 213
f 215 213 214
f 217 218 220
f 220 218 219
f 221 222 226
f 226 222 225
f 225 222 223
f 225 223 224
f 227 228 232
f 232 228 231
f 231 228 229
f 231 229 230
f 233 234 238
f 238 234 237
f 237 234 235
f 237 235 236
f 239 240 244
f 244 240 243
f 243 240 241
f 243 241 242
f 245 246 248
f 248 246 247
f 249 250 254
f 254 250 253
f 253 250 251
f 253 251 252
f 255 256 260
f 260 256 259
f 259 256 257
f 259 257 258
f 261 262 264
f 264 262 263
f 265 266 270
f 270 266 269
f 269 266 267
f 269 267 268
f 271 272 276
f 276 272 275
f 275 272 273
f 275 273 274
