v 0.066358118 -0.29870001 0.22370123
v 0.066661749 -0.29870001 0.22366489
v 0.06688097 -0.29870001 0.22355593
v 0.06688097 -0.29882 0.22355593
v 0.066661749 -0.29882 0.22366489
v 0.066358118 -0.29882 0.22370123
v 0.06688097 -0.29870001 0.22355593
v 0.067021403 -0.29870001 0.22337585
v 0.067088675 -0.29870001 0.2231262
v 0.067088675 -0.29882 0.2231262
v 0.067021403 -0.29882 0.22337585
v 0.06688097 -0.29882 0.22355593
v 0.06583322 -0.29870001 0.22356924
v 0.06604681 -0.29870001 0.22366823
v 0.066358118 -0.29870001 0.22370123
v 0.066358118 -0.29882 0.22370123
v 0.06604681 -0.29882 0.22366823
v 0.06583322 -0.29882 0.22356924
v 0.067088675 -0.29870001 0.2231262
v 0.067469306 -0.29870001 0.22315485
v 0.067469306 -0.29882 0.22315485
v 0.067088675 -0.29882 0.2231262
v 0.065668488 -0.29870001 0.22325102
v 0.06583322 -0.29870001 0.22356924
v 0.06583322 -0.29882 0.22356924
v 0.065668488 -0.29882 0.22325102
v 0.067469306 -0.29870001 0.22315485
v 0.067321963 -0.29870001 0.22362755
v 0.067321963 -0.29882 0.22362755
v 0.067469306 -0.29882 0.22315485
v 0.065785131 -0.29870001 0.222985
v 0.065668488 -0.29870001 0.22325102
v 0.065668488 -0.29882 0.22325102
v 0.065785131 -0.29882 0.222985
v 0.067321963 -0.29870001 0.22362755
v 0.066930079 -0.29870001 0.22394373
v 0.066930079 -0.29882 0.22394373
v 0.067321963 -0.29882 0.22362755
v 0.066383696 -0.29870001 0.22277115
v 0.065992069 -0.29870001 0.22287935
v 0.065785131 -0.29870001 0.222985
v 0.065785131 -0.29882 0.222985
v 0.065992069 -0.29882 0.22287935
v 0.066383696 -0.29882 0.22277115
v 0.066930079 -0.29870001 0.22394373
v 0.066341748 -0.29870001 0.22405115
v 0.066341748 -0.29882 0.22405115
v 0.066930079 -0.29882 0.22394373
v 0.067047749 -0.29870001 0.2225798
v 0.066791697 -0.29870001 0.22266857
v 0.066383696 -0.29870001 0.22277115
v 0.066383696 -0.29882 0.22277115
v 0.066791697 -0.29882 0.22266857
v 0.067047749 -0.29882 0.2225798
v 0.066341748 -0.29870001 0.22405115
v 0.065791268 -0.29870001 0.22394884
v 0.065791268 -0.29882 0.22394884
v 0.066341748 -0.29882 0.22405115
v 0.067434516 -0.29870001 0.22227386
v 0.067047749 -0.29870001 0.2225798
v 0.067047749 -0.29882 0.2225798
v 0.067434516 -0.29882 0.22227386
v 0.065791268 -0.29870001 0.22394884
v 0.065414734 -0.29870001 0.22364904
v 0.065414734 -0.29882 0.22364904
v 0.065791268 -0.29882 0.22394884
v 0.067559342 -0.29870001 0.22184721
v 0.067434516 -0.29870001 0.22227386
v 0.067434516 -0.29882 0.22227386
v 0.067559342 -0.29882 0.22184721
v 0.065414734 -0.29870001 0.22364904
v 0.065285811 -0.29870001 0.22322441
v 0.065285811 -0.29882 0.22322441
v 0.065414734 -0.29882 0.22364904
v 0.067422237 -0.29870001 0.22139597
v 0.067559342 -0.29870001 0.22184721
v 0.067559342 -0.29882 0.22184721
v 0.067422237 -0.29882 0.22139597
v 0.065285811 -0.29870001 0.22322441
v 0.065391202 -0.29870001 0.22285095
v 0.065391202 -0.29882 0.22285095
v 0.065285811 -0.29882 0.22322441
v 0.067028308 -0.29870001 0.22106651
v 0.067422237 -0.29870001 0.22139597
v 0.067422237 -0.29882 0.22139597
v 0.067028308 -0.29882 0.22106651
v 0.065391202 -0.29870001 0.22285095
v 0.06571146 -0.29870001 0.22257162
v 0.06571146 -0.29882 0.22257162
v 0.065391202 -0.29882 0.22285095
v 0.065545702 -0.29870001 0.22199659
v 0.065171213 -0.29870001 0.22196384
v 0.065171213 -0.29882 0.22196384
v 0.065545702 -0.29882 0.22199659
v 0.065971351 -0.29870001 0.22139393
v 0.065669508 -0.29870001 0.22162722
v 0.065669508 -0.29882 0.22162722
v 0.065971351 -0.29882 0.22139393
v 0.066431785 -0.29870001 0.22130491
v 0.065971351 -0.29870001 0.22139393
v 0.065971351 -0.29882 0.22139393
v 0.066431785 -0.29882 0.22130491
v 0.065669508 -0.29870001 0.22162722
v 0.065545702 -0.29870001 0.22199659
v 0.065545702 -0.29882 0.22199659
v 0.065669508 -0.29882 0.22162722
v 0.065335946 -0.29870001 0.22142462
v 0.065767736 -0.29870001 0.22106752
v 0.065767736 -0.29882 0.22106752
v 0.065335946 -0.29882 0.22142462
v 0.066290588 -0.29870001 0.22238438
v 0.066630797 -0.29870001 0.22229818
v 0.066824694 -0.29870001 0.22223806
v 0.066824694 -0.29882 0.22223806
v 0.066630797 -0.29882 0.22229818
v 0.066290588 -0.29882 0.22238438
v 0.06571146 -0.29870001 0.22257162
v 0.065939121 -0.29870001 0.22248081
v 0.066290588 -0.29870001 0.22238438
v 0.066290588 -0.29882 0.22238438
v 0.065939121 -0.29882 0.22248081
v 0.06571146 -0.29882 0.22257162
v 0.065767736 -0.29870001 0.22106752
v 0.066450205 -0.29870001 0.22094885
v 0.066450205 -0.29882 0.22094885
v 0.065767736 -0.29882 0.22106752
v 0.066450205 -0.29870001 0.22094885
v 0.067028308 -0.29870001 0.22106651
v 0.067028308 -0.29882 0.22106651
v 0.066450205 -0.29882 0.22094885
v 0.067094817 -0.29870001 0.22206104
v 0.067176671 -0.29870001 0.22181446
v 0.067176671 -0.29882 0.22181446
v 0.067094817 -0.29882 0.22206104
v 0.065171213 -0.29882 0.22196384
v 0.065335946 -0.29882 0.22142462
v 0.065767736 -0.29882 0.22106752
v 0.066450205 -0.29882 0.22094885
v 0.067028308 -0.29882 0.22106651
v 0.067422237 -0.29882 0.22139597
v 0.067559342 -0.29882 0.22184721
v 0.067434516 -0.29882 0.22227386
v 0.067047749 -0.29882 0.2225798
v 0.066791697 -0.29882 0.22266857
v 0.066383696 -0.29882 0.22277115
v 0.065992069 -0.29882 0.22287935
v 0.065785131 -0.29882 0.222985
v 0.065668488 -0.29882 0.22325102
v 0.06583322 -0.29882 0.22356924
v 0.06604681 -0.29882 0.22366823
v 0.066358118 -0.29882 0.22370123
v 0.066661749 -0.29882 0.22366489
v 0.06688097 -0.29882 0.22355593
v 0.067021403 -0.29882 0.22337585
v 0.067088675 -0.29882 0.2231262
v 0.067469306 -0.29882 0.22315485
v 0.067321963 -0.29882 0.22362755
v 0.066930079 -0.29882 0.22394373
v 0.066341748 -0.29882 0.22405115
v 0.065791268 -0.29882 0.22394884
v 0.065414734 -0.29882 0.22364904
v 0.065285811 -0.29882 0.22322441
v 0.065391202 -0.29882 0.22285095
v 0.06571146 -0.29882 0.22257162
v 0.065939121 -0.29882 0.22248081
v 0.066290588 -0.29882 0.22238438
v 0.066630797 -0.29882 0.22229818
v 0.066824694 -0.29882 0.22223806
v 0.067094817 -0.29882 0.22206104
v 0.067176671 -0.29882 0.22181446
v 0.067091746 -0.29882 0.22155764
v 0.066832876 -0.29882 0.22137243
v 0.066431785 -0.29882 0.22130491
v 0.065971351 -0.29882 0.22139393
v 0.065669508 -0.29882 0.22162722
v 0.065545702 -0.29882 0.22199659
v 0.066824694 -0.29870001 0.22223806
v 0.067094817 -0.29870001 0.22206104
v 0.067094817 -0.29882 0.22206104
v 0.066824694 -0.29882 0.22223806
v 0.067091746 -0.29870001 0.22155764
v 0.066832876 -0.29870001 0.22137243
v 0.066832876 -0.29882 0.22137243
v 0.067091746 -0.29882 0.22155764
v 0.065335946 -0.29870001 0.22142462
v 0.065171213 -0.29870001 0.22196384
v 0.065545702 -0.29870001 0.22199659
v 0.065669508 -0.29870001 0.22162722
v 0.065971351 -0.29870001 0.22139393
v 0.066431785 -0.29870001 0.22130491
v 0.066832876 -0.29870001 0.22137243
v 0.067091746 -0.29870001 0.22155764
v 0.067176671 -0.29870001 0.22181446
v 0.067094817 -0.29870001 0.22206104
v 0.066824694 -0.29870001 0.22223806
v 0.066630797 -0.29870001 0.22229818
v 0.066290588 -0.29870001 0.22238438
v 0.065939121 -0.29870001 0.22248081
v 0.06571146 -0.29870001 0.22257162
v 0.065391202 -0.29870001 0.22285095
v 0.065285811 -0.29870001 0.22322441
v 0.065414734 -0.29870001 0.22364904
v 0.065791268 -0.29870001 0.22394884
v 0.066341748 -0.29870001 0.22405115
v 0.066930079 -0.29870001 0.22394373
v 0.067321963 -0.29870001 0.22362755
v 0.067469306 -0.29870001 0.22315485
v 0.067088675 -0.29870001 0.2231262
v 0.067021403 -0.29870001 0.22337585
v 0.06688097 -0.29870001 0.22355593
v 0.066661749 -0.29870001 0.22366489
v 0.066358118 -0.29870001 0.22370123
v 0.06604681 -0.29870001 0.22366823
v 0.06583322 -0.29870001 0.22356924
v 0.065668488 -0.29870001 0.22325102
v 0.065785131 -0.29870001 0.222985
v 0.065992069 -0.29870001 0.22287935
v 0.066383696 -0.29870001 0.22277115
v 0.066791697 -0.29870001 0.22266857
v 0.067047749 -0.29870001 0.2225798
v 0.067434516 -0.29870001 0.22227386
v 0.067559342 -0.29870001 0.22184721
v 0.067422237 -0.29870001 0.22139597
v 0.067028308 -0.29870001 0.22106651
v 0.066450205 -0.29870001 0.22094885
v 0.065767736 -0.29870001 0.22106752
v 0.065171213 -0.29870001 0.22196384
v 0.065335946 -0.29870001 0.22142462
v 0.065335946 -0.29882 0.22142462
v 0.065171213 -0.29882 0.22196384
v 0.066832876 -0.29870001 0.22137243
v 0.066431785 -0.29870001 0.22130491
v 0.066431785 -0.29882 0.22130491
v 0.066832876 -0.29882 0.22137243
v 0.067176671 -0.29870001 0.22181446
v 0.067091746 -0.29870001 0.22155764
v 0.067091746 -0.29882 0.22155764
v 0.067176671 -0.29882 0.22181446
f 1 2 6
f 6 2 5
f 5 2 3
f 5 3 4
f 7 8 12
f 12 8 11
f 11 8 9
f 11 9 10
f 13 14 18
f 18 14 17
f 17 14 15
f 17 15 16
f 19 20 22
f 22 20 21
f 23 24 26
f 26 24 25
f 27 28 30
f 30 28 29
f 31 32 34
f 34 32 33
f 35 36 38
f 38 36 37
f 39 40 44
f 44 40 43
f 43 40 41
f 43 41 42
f 45 46 48
f 48 46 47
f 49 50 54
f 54 50 53
f 53 50 51
f 53 51 52
f 55 56 58
f 58 56 57
f 59 60 62
f 62 60 61
f 63 64 66
f 66 64 65
f 67 68 70
f 70 68 69
f 71 72 74
f 74 72 73
f 75 76 78
f 78 76 77
f 79 80 82
f 82 80 81
f 83 84 86
f 86 84 85
f 87 88 90
f 90 88 89
f 91 92 94
f 94 92 93
f 95 96 98
f 98 96 97
f 99 100 102
f 102 100 101
f 103 104 106
f 106 104 105
f 107 108 110
f 110 108 109
f 111 112 116
f 116 112 115
f 115 112 113
f 115 113 114
f 117 118 122
f 122 118 121
f 121 118 119
f 121 119 120
f 123 124 126
f 126 124 125
f 127 128 130
f 130 128 129
f 131 132 134
f 134 132 133
f 135 136 176
f 176 136 175
f 175 136 137
f 175 137 174
f 174 137 138
f 174 138 173
f 173 138 172
f 172 138 139
f 172 139 171
f 171 139 140
f 171 140 170
f 170 140 141
f 170 141 142
f 170 142 169
f 169 142 143
f 169 143 168
f 168 143 144
f 168 144 167
f 167 144 145
f 167 145 166
f 166 145 146
f 166 146 165
f 165 146 164
f 164 146 147
f 164 147 163
f 163 147 148
f 163 148 162
f 162 148 161
f 161 148 149
f 161 149 160
f 160 149 150
f 160 150 159
f 159 150 151
f 159 151 152
f 159 152 158
f 158 152 153
f 158 153 157
f 157 153 154
f 157 154 155
f 155 156 157
f 177 178 180
f 180 178 179
f 181 182 184
f 184 182 183
f 186 187 185
f 185 187 188
f 185 188 226
f 226 188 189
f 226 189 225
f 225 189 190
f 225 190 191
f 225 191 224
f 224 191 192
f 224 192 223
f 223 192 193
f 223 193 222
f 222 193 221
f 221 193 194
f 221 194 220
f 220 194 195
f 220 195 219
f 219 195 196
f 219 196 218
f 218 196 197
f 218 197 217
f 217 197 198
f 217 198 199
f 217 199 216
f 216 199 200
f 216 200 215
f 215 200 201
f 215 201 202
f 215 202 214
f 214 202 203
f 214 203 213
f 213 203 204
f 213 204 212
f 212 204 211
f 211 204 205
f 211 205 210
f 210 205 206
f 210 206 209
f 209 206 208
f 208 206 207
f 227 228 230
f 230 228 229
f 231 232 234
f 234 232 233
f 235 236 238
f 238 236 237
