v 0.061759892 -0.29934999 0.2675
v 0.061759892 -0.29934999 0.27004162
v 0.061759892 -0.29947001 0.27004162
v 0.061759892 -0.29947001 0.2675
v 0.061759892 -0.29934999 0.27004162
v 0.064154162 -0.29934999 0.2735
v 0.064154162 -0.29947001 0.2735
v 0.061759892 -0.29947001 0.27004162
v 0.060965896 -0.29947001 0.2675
v 0.061759892 -0.29947001 0.2675
v 0.061759892 -0.29947001 0.27004162
v 0.064154162 -0.29947001 0.2735
v 0.063229194 -0.29947001 0.2735
v 0.062066851 -0.29947001 0.27173601
v 0.061412005 -0.29947001 0.27067598
v 0.060802183 -0.29947001 0.271691
v 0.059619374 -0.29947001 0.2735
v 0.058653479 -0.29947001 0.2735
v 0.060965896 -0.29947001 0.27004162
v 0.064154162 -0.29934999 0.2735
v 0.063229194 -0.29934999 0.2735
v 0.063229194 -0.29947001 0.2735
v 0.064154162 -0.29947001 0.2735
v 0.060965896 -0.29934999 0.2675
v 0.061759892 -0.29934999 0.2675
v 0.061759892 -0.29947001 0.2675
v 0.060965896 -0.29947001 0.2675
v 0.063229194 -0.29934999 0.2735
v 0.062066851 -0.29934999 0.27173601
v 0.062066851 -0.29947001 0.27173601
v 0.063229194 -0.29947001 0.2735
v 0.061759892 -0.29934999 0.2675
v 0.060965896 -0.29934999 0.2675
v 0.060965896 -0.29934999 0.27004162
v 0.058653479 -0.29934999 0.2735
v 0.059619374 -0.29934999 0.2735
v 0.060802183 -0.29934999 0.271691
v 0.061412005 -0.29934999 0.27067598
v 0.062066851 -0.29934999 0.27173601
v 0.063229194 -0.29934999 0.2735
v 0.064154162 -0.29934999 0.2735
v 0.061759892 -0.29934999 0.27004162
v 0.062066851 -0.29934999 0.27173601
v 0.061412005 -0.29934999 0.27067598
v 0.061412005 -0.29947001 0.27067598
v 0.062066851 -0.29947001 0.27173601
v 0.061412005 -0.29934999 0.27067598
v 0.060802183 -0.29934999 0.271691
v 0.060802183 -0.29947001 0.271691
v 0.061412005 -0.29947001 0.27067598
v 0.060802183 -0.29934999 0.271691
v 0.059619374 -0.29934999 0.2735
v 0.059619374 -0.29947001 0.2735
v 0.060802183 -0.29947001 0.271691
v 0.059619374 -0.29934999 0.2735
v 0.058653479 -0.29934999 0.2735
v 0.058653479 -0.29947001 0.2735
v 0.059619374 -0.29947001 0.2735
v 0.058653479 -0.29934999 0.2735
v 0.060965896 -0.29934999 0.27004162
v 0.060965896 -0.29947001 0.27004162
v 0.058653479 -0.29947001 0.2735
v 0.060965896 -0.29934999 0.27004162
v 0.060965896 -0.29934999 0.2675
v 0.060965896 -0.29947001 0.2675
v 0.060965896 -0.29947001 0.27004162
f 1 2 4
f 4 2 3
f 5 6 8
f 8 6 7
f 9 10 19
f 19 10 11
f 19 11 15
f 15 11 14
f 14 11 12
f 14 12 13
f 15 16 19
f 19 16 18
f 18 16 17
f 20 21 23
f 23 21 22
f 24 25 27
f 27 25 26
f 28 29 31
f 31 29 30
f 32 33 42
f 42 33 34
f 42 34 38
f 38 34 37
f 37 34 35
f 37 35 36
f 38 39 42
f 42 39 41
f 41 39 40
f 43 44 46
f 46 44 45
f 47 48 50
f 50 48 49
f 51 52 54
f 54 52 53
f 55 56 58
f 58 56 57
f 59 60 62
f 62 60 61
f 63 64 66
f 66 64 65
