v 0.35 0.294 0.59200001
v 0.35 0.28200001 0.59200001
v 0.35200001 0.28200001 0.59200001
v 0.35200001 0.294 0.59200001
v 0.35200001 0.28200001 0.59200001
v 0.35200001 0.28200001 0.58
v 0.35200001 0.294 0.58
v 0.35200001 0.294 0.59200001
v 0.35 0.28200001 0.59200001
v 0.35 0.28200001 0.58
v 0.35200001 0.28200001 0.58
v 0.35200001 0.28200001 0.59200001
v 0.35 0.294 0.58
v 0.35 0.294 0.59200001
v 0.35200001 0.294 0.59200001
v 0.35200001 0.294 0.58
v 0.35 0.28200001 0.58
v 0.35 0.294 0.58
v 0.35200001 0.294 0.58
v 0.35200001 0.28200001 0.58
v 0.35 0.294 0.58
v 0.35 0.28200001 0.58
v 0.35 0.28200001 0.59200001
v 0.35 0.294 0.59200001
f 2 3 1
f 1 3 4
f 5 6 8
f 8 6 7
f 9 10 12
f 12 10 11
f 13 14 16
f 16 14 15
f 18 19 17
f 17 19 20
f 22 23 21
f 21 23 24
