v 0.036383765 0.078041472 9.9999998e-05
v 0.036674762 0.079492769 9.9999998e-05
v 0.036674762 0.079492769 0.000125
v 0.036383765 0.078041472 0.000125
v 0.037404094 0.078380356 9.9999998e-05
v 0.036881957 0.078295636 9.9999998e-05
v 0.036383765 0.078041472 9.9999998e-05
v 0.036383765 0.078041472 0.000125
v 0.036881957 0.078295636 0.000125
v 0.037404094 0.078380356 0.000125
v 0.036674762 0.079492769 9.9999998e-05
v 0.038829606 0.079492769 9.9999998e-05
v 0.038829606 0.079492769 0.000125
v 0.036674762 0.079492769 0.000125
v 0.038597546 0.077890449 9.9999998e-05
v 0.038056071 0.07825788 9.9999998e-05
v 0.037404094 0.078380356 9.9999998e-05
v 0.037404094 0.078380356 0.000125
v 0.038056071 0.07825788 0.000125
v 0.038597546 0.077890449 0.000125
v 0.038829606 0.079492769 9.9999998e-05
v 0.038829606 0.080126333 9.9999998e-05
v 0.038829606 0.080126333 0.000125
v 0.038829606 0.079492769 0.000125
v 0.039083767 0.076630697 9.9999998e-05
v 0.038962212 0.077330561 9.9999998e-05
v 0.038597546 0.077890449 9.9999998e-05
v 0.038597546 0.077890449 0.000125
v 0.038962212 0.077330561 0.000125
v 0.039083767 0.076630697 0.000125
v 0.038829606 0.080126333 9.9999998e-05
v 0.036144338 0.080126333 9.9999998e-05
v 0.036144338 0.080126333 0.000125
v 0.038829606 0.080126333 0.000125
v 0.03865648 0.075363574 9.9999998e-05
v 0.038976946 0.075947409 9.9999998e-05
v 0.039083767 0.076630697 9.9999998e-05
v 0.039083767 0.076630697 0.000125
v 0.038976946 0.075947409 0.000125
v 0.03865648 0.075363574 0.000125
v 0.036144338 0.080126333 9.9999998e-05
v 0.035621283 0.077352662 9.9999998e-05
v 0.035621283 0.077352662 0.000125
v 0.036144338 0.080126333 0.000125
v 0.037238336 0.074707913 9.9999998e-05
v 0.038042259 0.074871826 9.9999998e-05
v 0.03865648 0.075363574 9.9999998e-05
v 0.03865648 0.075363574 0.000125
v 0.038042259 0.074871826 0.000125
v 0.037238336 0.074707913 0.000125
v 0.035621283 0.077352662 9.9999998e-05
v 0.036243794 0.077271624 9.9999998e-05
v 0.036243794 0.077271624 0.000125
v 0.035621283 0.077352662 0.000125
v 0.036035676 0.075120463 9.9999998e-05
v 0.036569321 0.074811049 9.9999998e-05
v 0.037238336 0.074707913 9.9999998e-05
v 0.037238336 0.074707913 0.000125
v 0.036569321 0.074811049 0.000125
v 0.036035676 0.075120463 0.000125
v 0.036243794 0.077271624 9.9999998e-05
v 0.036648977 0.077649183 9.9999998e-05
v 0.036648977 0.077649183 0.000125
v 0.036243794 0.077271624 0.000125
v 0.035503411 0.076214461 0.000125
v 0.035669627 0.075600238 0.000125
v 0.036035676 0.075120463 0.000125
v 0.036569321 0.074811049 0.000125
v 0.037238336 0.074707913 0.000125
v 0.038042259 0.074871826 0.000125
v 0.03865648 0.075363574 0.000125
v 0.038976946 0.075947409 0.000125
v 0.039083767 0.076630697 0.000125
v 0.038962212 0.077330561 0.000125
v 0.038597546 0.077890449 0.000125
v 0.038056071 0.07825788 0.000125
v 0.037404094 0.078380356 0.000125
v 0.036881957 0.078295636 0.000125
v 0.036383765 0.078041472 0.000125
v 0.036674762 0.079492769 0.000125
v 0.038829606 0.079492769 0.000125
v 0.038829606 0.080126333 0.000125
v 0.036144338 0.080126333 0.000125
v 0.035621283 0.077352662 0.000125
v 0.036243794 0.077271624 0.000125
v 0.036648977 0.077649183 0.000125
v 0.037227285 0.077794681 0.000125
v 0.037693708 0.077712722 0.000125
v 0.038061597 0.07746685 0.000125
v 0.038300564 0.077079163 0.000125
v 0.03838022 0.07657176 0.000125
v 0.038297341 0.076033969 0.000125
v 0.038048704 0.075614052 0.000125
v 0.037680354 0.075343313 0.000125
v 0.037238336 0.075253067 0.000125
v 0.036869526 0.075317068 0.000125
v 0.036558731 0.075509071 0.000125
v 0.036328053 0.075828156 0.000125
v 0.036199591 0.076273398 0.000125
v 0.036648977 0.077649183 9.9999998e-05
v 0.037227285 0.077794681 9.9999998e-05
v 0.037227285 0.077794681 0.000125
v 0.036648977 0.077649183 0.000125
v 0.035503411 0.076214461 9.9999998e-05
v 0.035669627 0.075600238 9.9999998e-05
v 0.036035676 0.075120463 9.9999998e-05
v 0.036035676 0.075120463 0.000125
v 0.035669627 0.075600238 0.000125
v 0.035503411 0.076214461 0.000125
v 0.037227285 0.077794681 9.9999998e-05
v 0.037693708 0.077712722 9.9999998e-05
v 0.038061597 0.07746685 9.9999998e-05
v 0.038061597 0.07746685 0.000125
v 0.037693708 0.077712722 0.000125
v 0.037227285 0.077794681 0.000125
v 0.036035676 0.075120463 9.9999998e-05
v 0.035669627 0.075600238 9.9999998e-05
v 0.035503411 0.076214461 9.9999998e-05
v 0.036199591 0.076273398 9.9999998e-05
v 0.036328053 0.075828156 9.9999998e-05
v 0.036558731 0.075509071 9.9999998e-05
v 0.036869526 0.075317068 9.9999998e-05
v 0.037238336 0.075253067 9.9999998e-05
v 0.037680354 0.075343313 9.9999998e-05
v 0.038048704 0.075614052 9.9999998e-05
v 0.038297341 0.076033969 9.9999998e-05
v 0.03838022 0.07657176 9.9999998e-05
v 0.038300564 0.077079163 9.9999998e-05
v 0.038061597 0.07746685 9.9999998e-05
v 0.037693708 0.077712722 9.9999998e-05
v 0.037227285 0.077794681 9.9999998e-05
v 0.036648977 0.077649183 9.9999998e-05
v 0.036243794 0.077271624 9.9999998e-05
v 0.035621283 0.077352662 9.9999998e-05
v 0.036144338 0.080126333 9.9999998e-05
v 0.038829606 0.080126333 9.9999998e-05
v 0.038829606 0.079492769 9.9999998e-05
v 0.036674762 0.079492769 9.9999998e-05
v 0.036383765 0.078041472 9.9999998e-05
v 0.036881957 0.078295636 9.9999998e-05
v 0.037404094 0.078380356 9.9999998e-05
v 0.038056071 0.07825788 9.9999998e-05
v 0.038597546 0.077890449 9.9999998e-05
v 0.038962212 0.077330561 9.9999998e-05
v 0.039083767 0.076630697 9.9999998e-05
v 0.038976946 0.075947409 9.9999998e-05
v 0.03865648 0.075363574 9.9999998e-05
v 0.038042259 0.074871826 9.9999998e-05
v 0.037238336 0.074707913 9.9999998e-05
v 0.036569321 0.074811049 9.9999998e-05
v 0.038061597 0.07746685 9.9999998e-05
v 0.038300564 0.077079163 9.9999998e-05
v 0.03838022 0.07657176 9.9999998e-05
v 0.03838022 0.07657176 0.000125
v 0.038300564 0.077079163 0.000125
v 0.038061597 0.07746685 0.000125
v 0.03838022 0.07657176 9.9999998e-05
v 0.038297341 0.076033969 9.9999998e-05
v 0.038048704 0.075614052 9.9999998e-05
v 0.038048704 0.075614052 0.000125
v 0.038297341 0.076033969 0.000125
v 0.03838022 0.07657176 0.000125
v 0.038048704 0.075614052 9.9999998e-05
v 0.037680354 0.075343313 9.9999998e-05
v 0.037238336 0.075253067 9.9999998e-05
v 0.037238336 0.075253067 0.000125
v 0.037680354 0.075343313 0.000125
v 0.038048704 0.075614052 0.000125
v 0.037238336 0.075253067 9.9999998e-05
v 0.036869526 0.075317068 9.9999998e-05
v 0.036558731 0.075509071 9.9999998e-05
v 0.036558731 0.075509071 0.000125
v 0.036869526 0.075317068 0.000125
v 0.037238336 0.075253067 0.000125
v 0.036558731 0.075509071 9.9999998e-05
v 0.036328053 0.075828156 9.9999998e-05
v 0.036199591 0.076273398 9.9999998e-05
v 0.036199591 0.076273398 0.000125
v 0.036328053 0.075828156 0.000125
v 0.036558731 0.075509071 0.000125
v 0.036199591 0.076273398 9.9999998e-05
v 0.035503411 0.076214461 9.9999998e-05
v 0.035503411 0.076214461 0.000125
v 0.036199591 0.076273398 0.000125
f 1 2 4
f 4 2 3
f 5 6 10
f 10 6 9
f 9 6 7
f 9 7 8
f 11 12 14
f 14 12 13
f 15 16 20
f 20 16 19
f 19 16 17
f 19 17 18
f 21 22 24
f 24 22 23
f 25 26 30
f 30 26 29
f 29 26 27
f 29 27 28
f 31 32 34
f 34 32 33
f 35 36 40
f 40 36 39
f 39 36 37
f 39 37 38
f 41 42 44
f 44 42 43
f 45 46 50
f 50 46 49
f 49 46 47
f 49 47 48
f 51 52 54
f 54 52 53
f 55 56 60
f 60 56 59
f 59 56 57
f 59 57 58
f 61 62 64
f 64 62 63
f 65 66 99
f 99 66 98
f 98 66 67
f 98 67 97
f 97 67 68
f 97 68 96
f 96 68 69
f 96 69 95
f 95 69 94
f 94 69 70
f 94 70 93
f 93 70 71
f 93 71 92
f 92 71 72
f 92 72 91
f 91 72 73
f 91 73 74
f 91 74 90
f 90 74 75
f 90 75 89
f 89 75 76
f 89 76 88
f 88 76 77
f 88 77 87
f 87 77 78
f 87 78 86
f 86 78 79
f 86 79 85
f 85 79 84
f 84 79 83
f 83 79 80
f 83 80 82
f 82 80 81
f 100 101 103
f 103 101 102
f 104 105 109
f 109 105 108
f 108 105 106
f 108 106 107
f 110 111 115
f 115 111 114
f 114 111 112
f 114 112 113
f 117 120 116
f 116 120 121
f 116 121 150
f 150 121 122
f 150 122 149
f 149 122 123
f 149 123 124
f 118 119 117
f 117 119 120
f 149 124 148
f 148 124 125
f 148 125 147
f 147 125 126
f 147 126 146
f 146 126 127
f 146 127 145
f 145 127 144
f 144 127 128
f 144 128 143
f 143 128 129
f 143 129 142
f 142 129 130
f 142 130 141
f 141 130 131
f 141 131 140
f 140 131 132
f 140 132 139
f 139 132 133
f 139 133 134
f 134 135 139
f 139 135 138
f 138 135 136
f 138 136 137
f 151 152 156
f 156 152 155
f 155 152 153
f 155 153 154
f 157 158 162
f 162 158 161
f 161 158 159
f 161 159 160
f 163 164 168
f 168 164 167
f 167 164 165
f 167 165 166
f 169 170 174
f 174 170 173
f 173 170 171
f 173 171 172
f 175 176 180
f 180 176 179
f 179 176 177
f 179 177 178
f 181 182 184
f 184 182 183
