v 0.1675 -0.29860001 0.24799999
v 0.16767181 -0.29860001 0.24869709
v 0.16814791 -0.29860001 0.24923447
v 0.1688192 -0.29860001 0.24948906
v 0.1695319 -0.29860001 0.24940252
v 0.17012276 -0.29860001 0.24899467
v 0.17045641 -0.29860001 0.24835897
v 0.17045641 -0.29860001 0.24764103
v 0.17012276 -0.29860001 0.24700531
v 0.1695319 -0.29860001 0.24659748
v 0.1688192 -0.29860001 0.24651094
v 0.16814791 -0.29860001 0.24676552
v 0.16767181 -0.29860001 0.24730291
v 0.1675 -0.29885 0.24799999
v 0.16767181 -0.29885 0.24730291
v 0.16814791 -0.29885 0.24676552
v 0.1688192 -0.29885 0.24651094
v 0.1695319 -0.29885 0.24659748
v 0.17012276 -0.29885 0.24700531
v 0.17045641 -0.29885 0.24764103
v 0.17045641 -0.29885 0.24835897
v 0.17012276 -0.29885 0.24899467
v 0.1695319 -0.29885 0.24940252
v 0.1688192 -0.29885 0.24948906
v 0.16814791 -0.29885 0.24923447
v 0.16767181 -0.29885 0.24869709
v 0.1675 -0.29885 0.24799999
v 0.16767181 -0.29885 0.24869709
v 0.16814791 -0.29885 0.24923447
v 0.1688192 -0.29885 0.24948906
v 0.1695319 -0.29885 0.24940252
v 0.17012276 -0.29885 0.24899467
v 0.17045641 -0.29885 0.24835897
v 0.17045641 -0.29885 0.24764103
v 0.17012276 -0.29885 0.24700531
v 0.1695319 -0.29885 0.24659748
v 0.1688192 -0.29885 0.24651094
v 0.16814791 -0.29885 0.24676552
v 0.16767181 -0.29885 0.24730291
v 0.1675 -0.29860001 0.24799999
v 0.16767181 -0.29860001 0.24730291
v 0.16814791 -0.29860001 0.24676552
v 0.1688192 -0.29860001 0.24651094
v 0.1695319 -0.29860001 0.24659748
v 0.17012276 -0.29860001 0.24700531
v 0.17045641 -0.29860001 0.24764103
v 0.17045641 -0.29860001 0.24835897
v 0.17012276 -0.29860001 0.24899467
v 0.1695319 -0.29860001 0.24940252
v 0.1688192 -0.29860001 0.24948906
v 0.16814791 -0.29860001 0.24923447
v 0.16767181 -0.29860001 0.24869709
v 0.1675 -0.29860001 0.24799999
v 0.1675 -0.29885 0.24799999
f 1 2 13
f 13 2 12
f 12 2 3
f 12 3 11
f 11 3 4
f 11 4 10
f 10 4 5
f 10 5 9
f 9 5 6
f 9 6 8
f 8 6 7
f 14 15 26
f 26 15 16
f 26 16 25
f 25 16 17
f 25 17 24
f 24 17 18
f 24 18 23
f 23 18 19
f 23 19 22
f 22 19 20
f 22 20 21
f 28 52 27
f 27 52 53
f 54 40 39
f 39 40 41
f 39 41 38
f 38 41 42
f 38 42 37
f 37 42 43
f 37 43 36
f 36 43 44
f 36 44 35
f 35 44 45
f 35 45 34
f 34 45 46
f 34 46 33
f 33 46 47
f 33 47 32
f 32 47 48
f 32 48 31
f 31 48 49
f 31 49 30
f 30 49 50
f 30 50 29
f 29 50 51
f 29 51 28
f 28 51 52
