v 0.047815824 -0.29934999 0.2675
v 0.04847476 -0.29934999 0.26931719
v 0.04847476 -0.29947001 0.26931719
v 0.047815824 -0.29947001 0.2675
v 0.046972713 -0.29934999 0.2675
v 0.047815824 -0.29934999 0.2675
v 0.047815824 -0.29947001 0.2675
v 0.046972713 -0.29947001 0.2675
v 0.04847476 -0.29934999 0.26931719
v 0.050983629 -0.29934999 0.26931719
v 0.050983629 -0.29947001 0.26931719
v 0.04847476 -0.29947001 0.26931719
v 0.050983629 -0.29934999 0.26931719
v 0.051683493 -0.29934999 0.2675
v 0.051683493 -0.29947001 0.2675
v 0.050983629 -0.29947001 0.26931719
v 0.051683493 -0.29934999 0.2675
v 0.052587996 -0.29934999 0.2675
v 0.052587996 -0.29947001 0.2675
v 0.051683493 -0.29947001 0.2675
v 0.046972713 -0.29947001 0.2675
v 0.047815824 -0.29947001 0.2675
v 0.04847476 -0.29947001 0.26931719
v 0.050983629 -0.29947001 0.26931719
v 0.051683493 -0.29947001 0.2675
v 0.052587996 -0.29947001 0.2675
v 0.050132332 -0.29947001 0.2735
v 0.049276943 -0.29947001 0.2735
v 0.048703957 -0.29947001 0.26996386
v 0.049362893 -0.29947001 0.27172375
v 0.049686222 -0.29947001 0.27286972
v 0.049862208 -0.29947001 0.27231514
v 0.050111871 -0.29947001 0.27162552
v 0.050738063 -0.29947001 0.26996386
v 0.052587996 -0.29934999 0.2675
v 0.050132332 -0.29934999 0.2735
v 0.050132332 -0.29947001 0.2735
v 0.052587996 -0.29947001 0.2675
v 0.050132332 -0.29934999 0.2735
v 0.049276943 -0.29934999 0.2735
v 0.049276943 -0.29947001 0.2735
v 0.050132332 -0.29947001 0.2735
v 0.047815824 -0.29934999 0.2675
v 0.046972713 -0.29934999 0.2675
v 0.049276943 -0.29934999 0.2735
v 0.050132332 -0.29934999 0.2735
v 0.052587996 -0.29934999 0.2675
v 0.051683493 -0.29934999 0.2675
v 0.050983629 -0.29934999 0.26931719
v 0.04847476 -0.29934999 0.26931719
v 0.049362893 -0.29934999 0.27172375
v 0.048703957 -0.29934999 0.26996386
v 0.050738063 -0.29934999 0.26996386
v 0.050111871 -0.29934999 0.27162552
v 0.049862208 -0.29934999 0.27231514
v 0.049686222 -0.29934999 0.27286972
v 0.050738063 -0.29934999 0.26996386
v 0.048703957 -0.29934999 0.26996386
v 0.048703957 -0.29947001 0.26996386
v 0.050738063 -0.29947001 0.26996386
v 0.050111871 -0.29934999 0.27162552
v 0.050738063 -0.29934999 0.26996386
v 0.050738063 -0.29947001 0.26996386
v 0.050111871 -0.29947001 0.27162552
v 0.049686222 -0.29934999 0.27286972
v 0.049862208 -0.29934999 0.27231514
v 0.050111871 -0.29934999 0.27162552
v 0.050111871 -0.29947001 0.27162552
v 0.049862208 -0.29947001 0.27231514
v 0.049686222 -0.29947001 0.27286972
v 0.049362893 -0.29934999 0.27172375
v 0.049686222 -0.29934999 0.27286972
v 0.049686222 -0.29947001 0.27286972
v 0.049362893 -0.29947001 0.27172375
v 0.049276943 -0.29934999 0.2735
v 0.046972713 -0.29934999 0.2675
v 0.046972713 -0.29947001 0.2675
v 0.049276943 -0.29947001 0.2735
v 0.048703957 -0.29934999 0.26996386
v 0.049362893 -0.29934999 0.27172375
v 0.049362893 -0.29947001 0.27172375
v 0.048703957 -0.29947001 0.26996386
f 1 2 4
f 4 2 3
f 5 6 8
f 8 6 7
f 9 10 12
f 12 10 11
f 13 14 16
f 16 14 15
f 17 18 20
f 20 18 19
f 22 23 21
f 21 23 29
f 21 29 28
f 28 29 30
f 28 30 31
f 29 23 34
f 34 23 24
f 34 24 26
f 26 24 25
f 26 27 34
f 34 27 33
f 33 27 32
f 32 27 31
f 31 27 28
f 35 36 38
f 38 36 37
f 39 40 42
f 42 40 41
f 43 44 50
f 50 44 52
f 50 52 53
f 44 45 52
f 52 45 51
f 51 45 56
f 56 45 46
f 56 46 55
f 55 46 54
f 54 46 53
f 53 46 47
f 53 47 49
f 49 47 48
f 49 50 53
f 57 58 60
f 60 58 59
f 61 62 64
f 64 62 63
f 65 66 70
f 70 66 69
f 69 66 67
f 69 67 68
f 71 72 74
f 74 72 73
f 75 76 78
f 78 76 77
f 79 80 82
f 82 80 81
