v 0.044331512 -0.29672001 0.108
v 0.044874487 -0.29672001 0.108
v 0.046440654 -0.29672001 0.112
v 0.045900407 -0.29672001 0.112
v 0.044819918 -0.29672001 0.10909413
v 0.044604363 -0.29672001 0.10843929
v 0.044394269 -0.29672001 0.10909413
v 0.043354707 -0.29672001 0.112
v 0.04278172 -0.29672001 0.112
v 0.044874487 -0.2966 0.108
v 0.046440654 -0.2966 0.112
v 0.046440654 -0.29672001 0.112
v 0.044874487 -0.29672001 0.108
v 0.044331512 -0.2966 0.108
v 0.044874487 -0.2966 0.108
v 0.044874487 -0.29672001 0.108
v 0.044331512 -0.29672001 0.108
v 0.046440654 -0.2966 0.112
v 0.045900407 -0.2966 0.112
v 0.045900407 -0.29672001 0.112
v 0.046440654 -0.29672001 0.112
v 0.044874487 -0.2966 0.108
v 0.044331512 -0.2966 0.108
v 0.04278172 -0.2966 0.112
v 0.043354707 -0.2966 0.112
v 0.044394269 -0.2966 0.10909413
v 0.044604363 -0.2966 0.10843929
v 0.044819918 -0.2966 0.10909413
v 0.045900407 -0.2966 0.112
v 0.046440654 -0.2966 0.112
v 0.045900407 -0.2966 0.112
v 0.044819918 -0.2966 0.10909413
v 0.044819918 -0.29672001 0.10909413
v 0.045900407 -0.29672001 0.112
v 0.044819918 -0.2966 0.10909413
v 0.044604363 -0.2966 0.10843929
v 0.044604363 -0.29672001 0.10843929
v 0.044819918 -0.29672001 0.10909413
v 0.044604363 -0.2966 0.10843929
v 0.044394269 -0.2966 0.10909413
v 0.044394269 -0.29672001 0.10909413
v 0.044604363 -0.29672001 0.10843929
v 0.044394269 -0.2966 0.10909413
v 0.043354707 -0.2966 0.112
v 0.043354707 -0.29672001 0.112
v 0.044394269 -0.29672001 0.10909413
v 0.043354707 -0.2966 0.112
v 0.04278172 -0.2966 0.112
v 0.04278172 -0.29672001 0.112
v 0.043354707 -0.29672001 0.112
v 0.04278172 -0.2966 0.112
v 0.044331512 -0.2966 0.108
v 0.044331512 -0.29672001 0.108
v 0.04278172 -0.29672001 0.112
f 2 6 1
f 1 6 7
f 1 7 9
f 9 7 8
f 6 2 5
f 5 2 3
f 5 3 4
f 10 11 13
f 13 11 12
f 14 15 17
f 17 15 16
f 18 19 21
f 21 19 20
f 23 27 22
f 22 27 28
f 22 28 30
f 30 28 29
f 27 23 26
f 26 23 24
f 26 24 25
f 31 32 34
f 34 32 33
f 35 36 38
f 38 36 37
f 39 40 42
f 42 40 41
f 43 44 46
f 46 44 45
f 47 48 50
f 50 48 49
f 51 52 54
f 54 52 53
