v 0.224 0.285 0.59110001
v 0.224 0.28585415 0.59091843
v 0.224 0.28656061 0.59040516
v 0.224 0.28699722 0.58964893
v 0.224 0.28708849 0.58878048
v 0.224 0.28681866 0.58794998
v 0.224 0.28623434 0.58730106
v 0.224 0.28543661 0.58694588
v 0.224 0.28456339 0.58694588
v 0.224 0.28376566 0.58730106
v 0.224 0.28318134 0.58794998
v 0.224 0.28291151 0.58878048
v 0.224 0.28300278 0.58964893
v 0.224 0.28343939 0.59040516
v 0.224 0.28414585 0.59091843
v 0.224 0.285 0.58549999
v 0.224 0.28613646 0.58568962
v 0.224 0.28714975 0.58623802
v 0.224 0.28793009 0.58708569
v 0.224 0.28839291 0.58814079
v 0.224 0.28848804 0.58928902
v 0.224 0.2882052 0.59040592
v 0.224 0.28757504 0.59137047
v 0.224 0.28666582 0.59207817
v 0.224 0.28557608 0.59245228
v 0.224 0.28442392 0.59245228
v 0.224 0.28333418 0.59207817
v 0.224 0.28242496 0.59137047
v 0.224 0.2817948 0.59040592
v 0.224 0.28151196 0.58928902
v 0.224 0.28160709 0.58814079
v 0.224 0.28206991 0.58708569
v 0.224 0.28285025 0.58623802
v 0.224 0.28386354 0.58568962
v 0.216 0.285 0.59110001
v 0.216 0.28585415 0.59091843
v 0.216 0.28656061 0.59040516
v 0.216 0.28699722 0.58964893
v 0.216 0.28708849 0.58878048
v 0.216 0.28681866 0.58794998
v 0.216 0.28623434 0.58730106
v 0.216 0.28543661 0.58694588
v 0.216 0.28456339 0.58694588
v 0.216 0.28376566 0.58730106
v 0.216 0.28318134 0.58794998
v 0.216 0.28291151 0.58878048
v 0.216 0.28300278 0.58964893
v 0.216 0.28343939 0.59040516
v 0.216 0.28414585 0.59091843
v 0.224 0.285 0.59110001
v 0.224 0.28414585 0.59091843
v 0.224 0.28343939 0.59040516
v 0.224 0.28300278 0.58964893
v 0.224 0.28291151 0.58878048
v 0.224 0.28318134 0.58794998
v 0.224 0.28376566 0.58730106
v 0.224 0.28456339 0.58694588
v 0.224 0.28543661 0.58694588
v 0.224 0.28623434 0.58730106
v 0.224 0.28681866 0.58794998
v 0.224 0.28708849 0.58878048
v 0.224 0.28699722 0.58964893
v 0.224 0.28656061 0.59040516
v 0.224 0.28585415 0.59091843
v 0.224 0.285 0.59110001
v 0.216 0.285 0.59110001
v 0.216 0.285 0.59110001
v 0.216 0.28414585 0.59091843
v 0.216 0.28343939 0.59040516
v 0.216 0.28300278 0.58964893
v 0.216 0.28291151 0.58878048
v 0.216 0.28318134 0.58794998
v 0.216 0.28376566 0.58730106
v 0.216 0.28456339 0.58694588
v 0.216 0.28543661 0.58694588
v 0.216 0.28623434 0.58730106
v 0.216 0.28681866 0.58794998
v 0.216 0.28708849 0.58878048
v 0.216 0.28699722 0.58964893
v 0.216 0.28656061 0.59040516
v 0.216 0.28585415 0.59091843
v 0.216 0.285 0.58549999
v 0.216 0.28386354 0.58568962
v 0.216 0.28285025 0.58623802
v 0.216 0.28206991 0.58708569
v 0.216 0.28160709 0.58814079
v 0.216 0.28151196 0.58928902
v 0.216 0.2817948 0.59040592
v 0.216 0.28242496 0.59137047
v 0.216 0.28333418 0.59207817
v 0.216 0.28442392 0.59245228
v 0.216 0.28557608 0.59245228
v 0.216 0.28666582 0.59207817
v 0.216 0.28757504 0.59137047
v 0.216 0.2882052 0.59040592
v 0.216 0.28848804 0.58928902
v 0.216 0.28839291 0.58814079
v 0.216 0.28793009 0.58708569
v 0.216 0.28714975 0.58623802
v 0.216 0.28613646 0.58568962
v 0.216 0.285 0.58549999
v 0.216 0.28613646 0.58568962
v 0.216 0.28714975 0.58623802
v 0.216 0.28793009 0.58708569
v 0.216 0.28839291 0.58814079
v 0.216 0.28848804 0.58928902
v 0.216 0.2882052 0.59040592
v 0.216 0.28757504 0.59137047
v 0.216 0.28666582 0.59207817
v 0.216 0.28557608 0.59245228
v 0.216 0.28442392 0.59245228
v 0.216 0.28333418 0.59207817
v 0.216 0.28242496 0.59137047
v 0.216 0.2817948 0.59040592
v 0.216 0.28151196 0.58928902
v 0.216 0.28160709 0.58814079
v 0.216 0.28206991 0.58708569
v 0.216 0.28285025 0.58623802
v 0.216 0.28386354 0.58568962
v 0.224 0.285 0.58549999
v 0.224 0.28386354 0.58568962
v 0.224 0.28285025 0.58623802
v 0.224 0.28206991 0.58708569
v 0.224 0.28160709 0.58814079
v 0.224 0.28151196 0.58928902
v 0.224 0.2817948 0.59040592
v 0.224 0.28242496 0.59137047
v 0.224 0.28333418 0.59207817
v 0.224 0.28442392 0.59245228
v 0.224 0.28557608 0.59245228
v 0.224 0.28666582 0.59207817
v 0.224 0.28757504 0.59137047
v 0.224 0.2882052 0.59040592
v 0.224 0.28848804 0.58928902
v 0.224 0.28839291 0.58814079
v 0.224 0.28793009 0.58708569
v 0.224 0.28714975 0.58623802
v 0.224 0.28613646 0.58568962
v 0.216 0.28442392 0.59245228
v 0.224 0.28442392 0.59245228
f 2 25 1
f 1 25 26
f 1 26 15
f 15 26 27
f 15 27 14
f 14 27 28
f 14 28 29
f 25 2 24
f 24 2 3
f 24 3 23
f 23 3 22
f 22 3 4
f 22 4 21
f 21 4 5
f 21 5 20
f 20 5 6
f 20 6 19
f 19 6 7
f 19 7 18
f 18 7 17
f 17 7 8
f 17 8 16
f 16 8 9
f 16 9 34
f 34 9 10
f 34 10 33
f 33 10 32
f 32 10 11
f 32 11 31
f 31 11 12
f 31 12 30
f 30 12 13
f 30 13 29
f 29 13 14
f 36 64 35
f 35 64 65
f 66 50 49
f 49 50 51
f 49 51 48
f 48 51 52
f 48 52 47
f 47 52 53
f 47 53 46
f 46 53 54
f 46 54 45
f 45 54 55
f 45 55 44
f 44 55 56
f 44 56 43
f 43 56 57
f 43 57 42
f 42 57 58
f 42 58 41
f 41 58 59
f 41 59 40
f 40 59 60
f 40 60 39
f 39 60 61
f 39 61 38
f 38 61 62
f 38 62 37
f 37 62 63
f 37 63 36
f 36 63 64
f 68 91 67
f 67 91 92
f 67 92 81
f 81 92 93
f 81 93 80
f 80 93 94
f 80 94 95
f 91 68 90
f 90 68 69
f 90 69 89
f 89 69 88
f 88 69 70
f 88 70 87
f 87 70 71
f 87 71 86
f 86 71 72
f 86 72 85
f 85 72 73
f 85 73 84
f 84 73 83
f 83 73 74
f 83 74 82
f 82 74 75
f 82 75 100
f 100 75 76
f 100 76 99
f 99 76 98
f 98 76 77
f 98 77 97
f 97 77 78
f 97 78 96
f 96 78 79
f 96 79 95
f 95 79 80
f 102 120 101
f 101 120 121
f 101 121 119
f 119 121 122
f 119 122 118
f 118 122 123
f 118 123 117
f 117 123 124
f 117 124 116
f 116 124 125
f 116 125 115
f 115 125 126
f 115 126 114
f 114 126 127
f 114 127 113
f 113 127 128
f 113 128 112
f 112 128 140
f 112 140 111
f 139 129 130
f 139 130 110
f 110 130 131
f 110 131 109
f 109 131 132
f 109 132 108
f 108 132 133
f 108 133 107
f 107 133 134
f 107 134 106
f 106 134 135
f 106 135 105
f 105 135 136
f 105 136 104
f 104 136 137
f 104 137 103
f 103 137 138
f 103 138 102
f 102 138 120
