v 0.13097545 0.051092906 9.9999998e-05
v 0.13170478 0.051092906 9.9999998e-05
v 0.13170478 0.051092906 0.000125
v 0.13097545 0.051092906 0.000125
v 0.13097545 0.0498 9.9999998e-05
v 0.13097545 0.051092906 9.9999998e-05
v 0.13097545 0.051092906 0.000125
v 0.13097545 0.0498 0.000125
v 0.13170478 0.051092906 9.9999998e-05
v 0.13170478 0.051700683 9.9999998e-05
v 0.13170478 0.051700683 0.000125
v 0.13170478 0.051092906 0.000125
v 0.13031241 0.0498 9.9999998e-05
v 0.13097545 0.0498 9.9999998e-05
v 0.13097545 0.0498 0.000125
v 0.13031241 0.0498 0.000125
v 0.13170478 0.051700683 9.9999998e-05
v 0.13097545 0.051700683 9.9999998e-05
v 0.13097545 0.051700683 0.000125
v 0.13170478 0.051700683 0.000125
v 0.13097545 0.051700683 9.9999998e-05
v 0.13097545 0.0552 9.9999998e-05
v 0.13097545 0.0552 0.000125
v 0.13097545 0.051700683 0.000125
v 0.13031241 0.051700683 0.000125
v 0.12862169 0.051700683 0.000125
v 0.13031241 0.05413547 0.000125
v 0.13031241 0.0498 0.000125
v 0.13097545 0.0498 0.000125
v 0.13097545 0.051092906 0.000125
v 0.13170478 0.051092906 0.000125
v 0.13170478 0.051700683 0.000125
v 0.13097545 0.051700683 0.000125
v 0.13097545 0.0552 0.000125
v 0.13043397 0.0552 0.000125
v 0.12796971 0.051700683 0.000125
v 0.12796971 0.051092906 0.000125
v 0.13031241 0.051092906 0.000125
v 0.13097545 0.0552 9.9999998e-05
v 0.13043397 0.0552 9.9999998e-05
v 0.13043397 0.0552 0.000125
v 0.13097545 0.0552 0.000125
v 0.13043397 0.0552 9.9999998e-05
v 0.12796971 0.051700683 9.9999998e-05
v 0.12796971 0.051700683 0.000125
v 0.13043397 0.0552 0.000125
v 0.12862169 0.051700683 9.9999998e-05
v 0.13031241 0.051700683 9.9999998e-05
v 0.13031241 0.05413547 9.9999998e-05
v 0.13097545 0.0498 9.9999998e-05
v 0.13031241 0.0498 9.9999998e-05
v 0.13031241 0.051092906 9.9999998e-05
v 0.12796971 0.051092906 9.9999998e-05
v 0.12796971 0.051700683 9.9999998e-05
v 0.13043397 0.0552 9.9999998e-05
v 0.13097545 0.0552 9.9999998e-05
v 0.13097545 0.051700683 9.9999998e-05
v 0.13170478 0.051700683 9.9999998e-05
v 0.13170478 0.051092906 9.9999998e-05
v 0.13097545 0.051092906 9.9999998e-05
v 0.12796971 0.051700683 9.9999998e-05
v 0.12796971 0.051092906 9.9999998e-05
v 0.12796971 0.051092906 0.000125
v 0.12796971 0.051700683 0.000125
v 0.12796971 0.051092906 9.9999998e-05
v 0.13031241 0.051092906 9.9999998e-05
v 0.13031241 0.051092906 0.000125
v 0.12796971 0.051092906 0.000125
v 0.13031241 0.051092906 9.9999998e-05
v 0.13031241 0.0498 9.9999998e-05
v 0.13031241 0.0498 0.000125
v 0.13031241 0.051092906 0.000125
v 0.13031241 0.051700683 9.9999998e-05
v 0.12862169 0.051700683 9.9999998e-05
v 0.12862169 0.051700683 0.000125
v 0.13031241 0.051700683 0.000125
v 0.12862169 0.051700683 9.9999998e-05
v 0.13031241 0.05413547 9.9999998e-05
v 0.13031241 0.05413547 0.000125
v 0.12862169 0.051700683 0.000125
v 0.13031241 0.05413547 9.9999998e-05
v 0.13031241 0.051700683 9.9999998e-05
v 0.13031241 0.051700683 0.000125
v 0.13031241 0.05413547 0.000125
f 1 2 4
f 4 2 3
f 5 6 8
f 8 6 7
f 9 10 12
f 12 10 11
f 13 14 16
f 16 14 15
f 17 18 20
f 20 18 19
f 21 22 24
f 24 22 23
f 26 38 25
f 25 38 30
f 25 30 33
f 33 30 31
f 33 31 32
f 27 36 26
f 26 36 37
f 26 37 38
f 25 33 27
f 27 33 34
f 27 34 35
f 28 29 38
f 38 29 30
f 35 36 27
f 39 40 42
f 42 40 41
f 43 44 46
f 46 44 45
f 48 52 47
f 47 52 53
f 47 53 54
f 52 48 57
f 57 48 49
f 57 49 56
f 56 49 55
f 55 49 54
f 54 49 47
f 50 51 60
f 60 51 52
f 60 52 57
f 57 58 60
f 60 58 59
f 61 62 64
f 64 62 63
f 65 66 68
f 68 66 67
f 69 70 72
f 72 70 71
f 73 74 76
f 76 74 75
f 77 78 80
f 80 78 79
f 81 82 84
f 84 82 83
