v 0.14311828 0.080222101 9.9999998e-05
v 0.14252984 0.080130472 9.9999998e-05
v 0.14204638 0.079855595 9.9999998e-05
v 0.14204638 0.079855595 0.000125
v 0.14252984 0.080130472 0.000125
v 0.14311828 0.080222101 0.000125
v 0.14393233 0.080032396 9.9999998e-05
v 0.1435428 0.080174675 9.9999998e-05
v 0.14311828 0.080222101 9.9999998e-05
v 0.14311828 0.080222101 0.000125
v 0.1435428 0.080174675 0.000125
v 0.14393233 0.080032396 0.000125
v 0.14204638 0.079855595 9.9999998e-05
v 0.14169277 0.079414034 9.9999998e-05
v 0.14149386 0.078822374 9.9999998e-05
v 0.14149386 0.078822374 0.000125
v 0.14169277 0.079414034 0.000125
v 0.14204638 0.079855595 0.000125
v 0.14450143 0.079514871 9.9999998e-05
v 0.14426063 0.079808168 9.9999998e-05
v 0.14393233 0.080032396 9.9999998e-05
v 0.14393233 0.080032396 0.000125
v 0.14426063 0.079808168 0.000125
v 0.14450143 0.079514871 0.000125
v 0.14149386 0.078822374 9.9999998e-05
v 0.14215689 0.0787045 9.9999998e-05
v 0.14215689 0.0787045 0.000125
v 0.14149386 0.078822374 0.000125
v 0.1446985 0.078818688 9.9999998e-05
v 0.14464923 0.079176908 9.9999998e-05
v 0.14450143 0.079514871 9.9999998e-05
v 0.14450143 0.079514871 0.000125
v 0.14464923 0.079176908 0.000125
v 0.1446985 0.078818688 0.000125
v 0.14215689 0.0787045 9.9999998e-05
v 0.1422766 0.079129944 9.9999998e-05
v 0.1424884 0.079433832 9.9999998e-05
v 0.1424884 0.079433832 0.000125
v 0.1422766 0.079129944 0.000125
v 0.14215689 0.0787045 0.000125
v 0.14451064 0.078181448 9.9999998e-05
v 0.1446985 0.078818688 9.9999998e-05
v 0.1446985 0.078818688 0.000125
v 0.14451064 0.078181448 0.000125
v 0.1424884 0.079433832 9.9999998e-05
v 0.14277848 0.079616165 9.9999998e-05
v 0.14313301 0.079676943 9.9999998e-05
v 0.14313301 0.079676943 0.000125
v 0.14277848 0.079616165 0.000125
v 0.1424884 0.079433832 0.000125
v 0.14395443 0.077724695 9.9999998e-05
v 0.14427766 0.077923603 9.9999998e-05
v 0.14451064 0.078181448 9.9999998e-05
v 0.14451064 0.078181448 0.000125
v 0.14427766 0.077923603 0.000125
v 0.14395443 0.077724695 0.000125
v 0.14313301 0.079676943 9.9999998e-05
v 0.14348755 0.079617085 9.9999998e-05
v 0.14377026 0.079437518 9.9999998e-05
v 0.14377026 0.079437518 0.000125
v 0.14348755 0.079617085 0.000125
v 0.14313301 0.079676943 0.000125
v 0.1446985 0.077266097 9.9999998e-05
v 0.14437987 0.077554793 9.9999998e-05
v 0.14395443 0.077724695 9.9999998e-05
v 0.14395443 0.077724695 0.000125
v 0.14437987 0.077554793 0.000125
v 0.1446985 0.077266097 0.000125
v 0.14377026 0.079437518 9.9999998e-05
v 0.14395535 0.07916678 9.9999998e-05
v 0.14401706 0.078833423 9.9999998e-05
v 0.14401706 0.078833423 0.000125
v 0.14395535 0.07916678 0.000125
v 0.14377026 0.079437518 0.000125
v 0.14496371 0.076394954 9.9999998e-05
v 0.1448974 0.076874266 9.9999998e-05
v 0.1446985 0.077266097 9.9999998e-05
v 0.1446985 0.077266097 0.000125
v 0.1448974 0.076874266 0.000125
v 0.14496371 0.076394954 0.000125
v 0.14401706 0.078833423 9.9999998e-05
v 0.14393233 0.078432846 9.9999998e-05
v 0.14367817 0.078151979 9.9999998e-05
v 0.14367817 0.078151979 0.000125
v 0.14393233 0.078432846 0.000125
v 0.14401706 0.078833423 0.000125
v 0.14444802 0.075195975 9.9999998e-05
v 0.14483479 0.075741591 9.9999998e-05
v 0.14496371 0.076394954 9.9999998e-05
v 0.14496371 0.076394954 0.000125
v 0.14483479 0.075741591 0.000125
v 0.14444802 0.075195975 0.000125
v 0.14367817 0.078151979 9.9999998e-05
v 0.14331811 0.077986221 9.9999998e-05
v 0.14291569 0.07793097 9.9999998e-05
v 0.14291569 0.07793097 0.000125
v 0.14331811 0.077986221 0.000125
v 0.14367817 0.078151979 0.000125
v 0.14314406 0.074704227 9.9999998e-05
v 0.14386419 0.074827166 9.9999998e-05
v 0.14444802 0.075195975 9.9999998e-05
v 0.14444802 0.075195975 0.000125
v 0.14386419 0.074827166 0.000125
v 0.14314406 0.074704227 0.000125
v 0.14291569 0.07793097 9.9999998e-05
v 0.14280887 0.077938337 9.9999998e-05
v 0.14280887 0.077938337 0.000125
v 0.14291569 0.07793097 0.000125
v 0.14196351 0.075127831 9.9999998e-05
v 0.14249347 0.074810128 9.9999998e-05
v 0.14314406 0.074704227 9.9999998e-05
v 0.14314406 0.074704227 0.000125
v 0.14249347 0.074810128 0.000125
v 0.14196351 0.075127831 0.000125
v 0.14280887 0.077938337 9.9999998e-05
v 0.1427352 0.077356343 9.9999998e-05
v 0.1427352 0.077356343 0.000125
v 0.14280887 0.077938337 0.000125
v 0.14142756 0.07622551 0.000125
v 0.1415947 0.075614052 0.000125
v 0.14196351 0.075127831 0.000125
v 0.14249347 0.074810128 0.000125
v 0.14314406 0.074704227 0.000125
v 0.14386419 0.074827166 0.000125
v 0.14444802 0.075195975 0.000125
v 0.14483479 0.075741591 0.000125
v 0.14496371 0.076394954 0.000125
v 0.1448974 0.076874266 0.000125
v 0.1446985 0.077266097 0.000125
v 0.14437987 0.077554793 0.000125
v 0.14395443 0.077724695 0.000125
v 0.14427766 0.077923603 0.000125
v 0.14451064 0.078181448 0.000125
v 0.1446985 0.078818688 0.000125
v 0.14464923 0.079176908 0.000125
v 0.14450143 0.079514871 0.000125
v 0.14426063 0.079808168 0.000125
v 0.14393233 0.080032396 0.000125
v 0.1435428 0.080174675 0.000125
v 0.14311828 0.080222101 0.000125
v 0.14252984 0.080130472 0.000125
v 0.14204638 0.079855595 0.000125
v 0.14169277 0.079414034 0.000125
v 0.14149386 0.078822374 0.000125
v 0.14215689 0.0787045 0.000125
v 0.1422766 0.079129944 0.000125
v 0.1424884 0.079433832 0.000125
v 0.14277848 0.079616165 0.000125
v 0.14313301 0.079676943 0.000125
v 0.14348755 0.079617085 0.000125
v 0.14377026 0.079437518 0.000125
v 0.14395535 0.07916678 0.000125
v 0.14401706 0.078833423 0.000125
v 0.14393233 0.078432846 0.000125
v 0.14367817 0.078151979 0.000125
v 0.14331811 0.077986221 0.000125
v 0.14291569 0.07793097 0.000125
v 0.14280887 0.077938337 0.000125
v 0.1427352 0.077356343 0.000125
v 0.143203 0.077430015 0.000125
v 0.14362292 0.077355886 0.000125
v 0.1439618 0.077133493 0.000125
v 0.14418557 0.076796913 0.000125
v 0.14426017 0.076380219 0.000125
v 0.14417959 0.075940042 0.000125
v 0.14393785 0.075577216 0.000125
v 0.14357918 0.075334105 0.000125
v 0.14314775 0.075253067 0.000125
v 0.14278355 0.075315228 0.000125
v 0.14247919 0.075501704 0.000125
v 0.14224483 0.075829077 0.000125
v 0.14209059 0.076313915 0.000125
v 0.1427352 0.077356343 9.9999998e-05
v 0.143203 0.077430015 9.9999998e-05
v 0.143203 0.077430015 0.000125
v 0.1427352 0.077356343 0.000125
v 0.14142756 0.07622551 9.9999998e-05
v 0.1415947 0.075614052 9.9999998e-05
v 0.14196351 0.075127831 9.9999998e-05
v 0.14196351 0.075127831 0.000125
v 0.1415947 0.075614052 0.000125
v 0.14142756 0.07622551 0.000125
v 0.143203 0.077430015 9.9999998e-05
v 0.14362292 0.077355886 9.9999998e-05
v 0.1439618 0.077133493 9.9999998e-05
v 0.1439618 0.077133493 0.000125
v 0.14362292 0.077355886 0.000125
v 0.143203 0.077430015 0.000125
v 0.14196351 0.075127831 9.9999998e-05
v 0.1415947 0.075614052 9.9999998e-05
v 0.14142756 0.07622551 9.9999998e-05
v 0.14209059 0.076313915 9.9999998e-05
v 0.14224483 0.075829077 9.9999998e-05
v 0.14247919 0.075501704 9.9999998e-05
v 0.14278355 0.075315228 9.9999998e-05
v 0.14314775 0.075253067 9.9999998e-05
v 0.14357918 0.075334105 9.9999998e-05
v 0.14393785 0.075577216 9.9999998e-05
v 0.14417959 0.075940042 9.9999998e-05
v 0.14426017 0.076380219 9.9999998e-05
v 0.14418557 0.076796913 9.9999998e-05
v 0.1439618 0.077133493 9.9999998e-05
v 0.14362292 0.077355886 9.9999998e-05
v 0.143203 0.077430015 9.9999998e-05
v 0.1427352 0.077356343 9.9999998e-05
v 0.14280887 0.077938337 9.9999998e-05
v 0.14291569 0.07793097 9.9999998e-05
v 0.14331811 0.077986221 9.9999998e-05
v 0.14367817 0.078151979 9.9999998e-05
v 0.14393233 0.078432846 9.9999998e-05
v 0.14401706 0.078833423 9.9999998e-05
v 0.14395535 0.07916678 9.9999998e-05
v 0.14377026 0.079437518 9.9999998e-05
v 0.14348755 0.079617085 9.9999998e-05
v 0.14313301 0.079676943 9.9999998e-05
v 0.14277848 0.079616165 9.9999998e-05
v 0.1424884 0.079433832 9.9999998e-05
v 0.1422766 0.079129944 9.9999998e-05
v 0.14215689 0.0787045 9.9999998e-05
v 0.14149386 0.078822374 9.9999998e-05
v 0.14169277 0.079414034 9.9999998e-05
v 0.14204638 0.079855595 9.9999998e-05
v 0.14252984 0.080130472 9.9999998e-05
v 0.14311828 0.080222101 9.9999998e-05
v 0.1435428 0.080174675 9.9999998e-05
v 0.14393233 0.080032396 9.9999998e-05
v 0.14426063 0.079808168 9.9999998e-05
v 0.14450143 0.079514871 9.9999998e-05
v 0.14464923 0.079176908 9.9999998e-05
v 0.1446985 0.078818688 9.9999998e-05
v 0.14451064 0.078181448 9.9999998e-05
v 0.14427766 0.077923603 9.9999998e-05
v 0.14395443 0.077724695 9.9999998e-05
v 0.14437987 0.077554793 9.9999998e-05
v 0.1446985 0.077266097 9.9999998e-05
v 0.1448974 0.076874266 9.9999998e-05
v 0.14496371 0.076394954 9.9999998e-05
v 0.14483479 0.075741591 9.9999998e-05
v 0.14444802 0.075195975 9.9999998e-05
v 0.14386419 0.074827166 9.9999998e-05
v 0.14314406 0.074704227 9.9999998e-05
v 0.14249347 0.074810128 9.9999998e-05
v 0.1439618 0.077133493 9.9999998e-05
v 0.14418557 0.076796913 9.9999998e-05
v 0.14426017 0.076380219 9.9999998e-05
v 0.14426017 0.076380219 0.000125
v 0.14418557 0.076796913 0.000125
v 0.1439618 0.077133493 0.000125
v 0.14426017 0.076380219 9.9999998e-05
v 0.14417959 0.075940042 9.9999998e-05
v 0.14393785 0.075577216 9.9999998e-05
v 0.14393785 0.075577216 0.000125
v 0.14417959 0.075940042 0.000125
v 0.14426017 0.076380219 0.000125
v 0.14393785 0.075577216 9.9999998e-05
v 0.14357918 0.075334105 9.9999998e-05
v 0.14314775 0.075253067 9.9999998e-05
v 0.14314775 0.075253067 0.000125
v 0.14357918 0.075334105 0.000125
v 0.14393785 0.075577216 0.000125
v 0.14314775 0.075253067 9.9999998e-05
v 0.14278355 0.075315228 9.9999998e-05
v 0.14247919 0.075501704 9.9999998e-05
v 0.14247919 0.075501704 0.000125
v 0.14278355 0.075315228 0.000125
v 0.14314775 0.075253067 0.000125
v 0.14247919 0.075501704 9.9999998e-05
v 0.14224483 0.075829077 9.9999998e-05
v 0.14209059 0.076313915 9.9999998e-05
v 0.14209059 0.076313915 0.000125
v 0.14224483 0.075829077 0.000125
v 0.14247919 0.075501704 0.000125
v 0.14209059 0.076313915 9.9999998e-05
v 0.14142756 0.07622551 9.9999998e-05
v 0.14142756 0.07622551 0.000125
v 0.14209059 0.076313915 0.000125
f 1 2 6
f 6 2 5
f 5 2 3
f 5 3 4
f 7 8 12
f 12 8 11
f 11 8 9
f 11 9 10
f 13 14 18
f 18 14 17
f 17 14 15
f 17 15 16
f 19 20 24
f 24 20 23
f 23 20 21
f 23 21 22
f 25 26 28
f 28 26 27
f 29 30 34
f 34 30 33
f 33 30 31
f 33 31 32
f 35 36 40
f 40 36 39
f 39 36 37
f 39 37 38
f 41 42 44
f 44 42 43
f 45 46 50
f 50 46 49
f 49 46 47
f 49 47 48
f 51 52 56
f 56 52 55
f 55 52 53
f 55 53 54
f 57 58 62
f 62 58 61
f 61 58 59
f 61 59 60
f 63 64 68
f 68 64 67
f 67 64 65
f 67 65 66
f 69 70 74
f 74 70 73
f 73 70 71
f 73 71 72
f 75 76 80
f 80 76 79
f 79 76 77
f 79 77 78
f 81 82 86
f 86 82 85
f 85 82 83
f 85 83 84
f 87 88 92
f 92 88 91
f 91 88 89
f 91 89 90
f 93 94 98
f 98 94 97
f 97 94 95
f 97 95 96
f 99 100 104
f 104 100 103
f 103 100 101
f 103 101 102
f 105 106 108
f 108 106 107
f 109 110 114
f 114 110 113
f 113 110 111
f 113 111 112
f 115 116 118
f 118 116 117
f 119 120 172
f 172 120 171
f 171 120 121
f 171 121 170
f 170 121 122
f 170 122 169
f 169 122 123
f 169 123 168
f 168 123 167
f 167 123 124
f 167 124 166
f 166 124 125
f 166 125 165
f 165 125 126
f 165 126 164
f 164 126 127
f 164 127 128
f 164 128 163
f 163 128 129
f 163 129 130
f 163 130 162
f 162 130 131
f 162 131 161
f 161 131 155
f 161 155 156
f 155 131 154
f 154 131 132
f 154 132 133
f 154 133 153
f 153 133 134
f 153 134 135
f 135 136 153
f 153 136 152
f 152 136 137
f 152 137 151
f 151 137 138
f 151 138 150
f 150 138 139
f 150 139 149
f 149 139 140
f 149 140 148
f 148 140 141
f 148 141 147
f 147 141 142
f 147 142 146
f 146 142 143
f 146 143 145
f 145 143 144
f 161 156 160
f 160 156 157
f 160 157 159
f 159 157 158
f 173 174 176
f 176 174 175
f 177 178 182
f 182 178 181
f 181 178 179
f 181 179 180
f 183 184 188
f 188 184 187
f 187 184 185
f 187 185 186
f 190 193 189
f 189 193 194
f 189 194 242
f 242 194 195
f 242 195 241
f 241 195 196
f 241 196 197
f 191 192 190
f 190 192 193
f 241 197 240
f 240 197 198
f 240 198 239
f 239 198 199
f 239 199 238
f 238 199 200
f 238 200 237
f 237 200 236
f 236 200 201
f 236 201 235
f 235 201 234
f 234 201 202
f 234 202 233
f 233 202 203
f 233 203 209
f 209 203 208
f 208 203 204
f 208 204 207
f 207 204 205
f 207 205 206
f 209 210 233
f 233 210 232
f 232 210 231
f 231 210 211
f 231 211 230
f 230 211 229
f 229 211 228
f 228 211 212
f 228 212 227
f 227 212 213
f 227 213 226
f 226 213 214
f 226 214 225
f 225 214 215
f 225 215 224
f 224 215 216
f 224 216 223
f 223 216 217
f 223 217 222
f 222 217 218
f 222 218 221
f 221 218 219
f 221 219 220
f 243 244 248
f 248 244 247
f 247 244 245
f 247 245 246
f 249 250 254
f 254 250 253
f 253 250 251
f 253 251 252
f 255 256 260
f 260 256 259
f 259 256 257
f 259 257 258
f 261 262 266
f 266 262 265
f 265 262 263
f 265 263 264
f 267 268 272
f 272 268 271
f 271 268 269
f 271 269 270
f 273 274 276
f 276 274 275
