v 0.049788198 0.099799995 9.9999998e-05
v 0.049788198 0.1010929 9.9999998e-05
v 0.049788198 0.1010929 0.000125
v 0.049788198 0.099799995 0.000125
v 0.049788198 0.1010929 9.9999998e-05
v 0.05051753 0.1010929 9.9999998e-05
v 0.05051753 0.1010929 0.000125
v 0.049788198 0.1010929 0.000125
v 0.05051753 0.1010929 9.9999998e-05
v 0.05051753 0.10170068 9.9999998e-05
v 0.05051753 0.10170068 0.000125
v 0.05051753 0.1010929 0.000125
v 0.049125171 0.099799995 9.9999998e-05
v 0.049788198 0.099799995 9.9999998e-05
v 0.049788198 0.099799995 0.000125
v 0.049125171 0.099799995 0.000125
v 0.05051753 0.10170068 9.9999998e-05
v 0.049788198 0.10170068 9.9999998e-05
v 0.049788198 0.10170068 0.000125
v 0.05051753 0.10170068 0.000125
v 0.049788198 0.10170068 9.9999998e-05
v 0.049788198 0.1052 9.9999998e-05
v 0.049788198 0.1052 0.000125
v 0.049788198 0.10170068 0.000125
v 0.049125171 0.099799995 0.000125
v 0.049788198 0.099799995 0.000125
v 0.049788198 0.1010929 0.000125
v 0.05051753 0.1010929 0.000125
v 0.05051753 0.10170068 0.000125
v 0.049788198 0.10170068 0.000125
v 0.049788198 0.1052 0.000125
v 0.049246726 0.1052 0.000125
v 0.04678247 0.10170068 0.000125
v 0.04678247 0.1010929 0.000125
v 0.049125171 0.1010929 0.000125
v 0.049125171 0.10170068 0.000125
v 0.047434449 0.10170068 0.000125
v 0.049125171 0.10413548 0.000125
v 0.049788198 0.1052 9.9999998e-05
v 0.049246726 0.1052 9.9999998e-05
v 0.049246726 0.1052 0.000125
v 0.049788198 0.1052 0.000125
v 0.049246726 0.1052 9.9999998e-05
v 0.04678247 0.10170068 9.9999998e-05
v 0.04678247 0.10170068 0.000125
v 0.049246726 0.1052 0.000125
v 0.049788198 0.099799995 9.9999998e-05
v 0.049125171 0.099799995 9.9999998e-05
v 0.049125171 0.1010929 9.9999998e-05
v 0.04678247 0.1010929 9.9999998e-05
v 0.04678247 0.10170068 9.9999998e-05
v 0.049246726 0.1052 9.9999998e-05
v 0.049788198 0.1052 9.9999998e-05
v 0.049788198 0.10170068 9.9999998e-05
v 0.05051753 0.10170068 9.9999998e-05
v 0.05051753 0.1010929 9.9999998e-05
v 0.049788198 0.1010929 9.9999998e-05
v 0.047434449 0.10170068 9.9999998e-05
v 0.049125171 0.10170068 9.9999998e-05
v 0.049125171 0.10413548 9.9999998e-05
v 0.04678247 0.10170068 9.9999998e-05
v 0.04678247 0.1010929 9.9999998e-05
v 0.04678247 0.1010929 0.000125
v 0.04678247 0.10170068 0.000125
v 0.04678247 0.1010929 9.9999998e-05
v 0.049125171 0.1010929 9.9999998e-05
v 0.049125171 0.1010929 0.000125
v 0.04678247 0.1010929 0.000125
v 0.049125171 0.1010929 9.9999998e-05
v 0.049125171 0.099799995 9.9999998e-05
v 0.049125171 0.099799995 0.000125
v 0.049125171 0.1010929 0.000125
v 0.049125171 0.10170068 9.9999998e-05
v 0.047434449 0.10170068 9.9999998e-05
v 0.047434449 0.10170068 0.000125
v 0.049125171 0.10170068 0.000125
v 0.047434449 0.10170068 9.9999998e-05
v 0.049125171 0.10413548 9.9999998e-05
v 0.049125171 0.10413548 0.000125
v 0.047434449 0.10170068 0.000125
v 0.049125171 0.10413548 9.9999998e-05
v 0.049125171 0.10170068 9.9999998e-05
v 0.049125171 0.10170068 0.000125
v 0.049125171 0.10413548 0.000125
f 1 2 4
f 4 2 3
f 5 6 8
f 8 6 7
f 9 10 12
f 12 10 11
f 13 14 16
f 16 14 15
f 17 18 20
f 20 18 19
f 21 22 24
f 24 22 23
f 25 26 35
f 35 26 27
f 35 27 36
f 36 27 30
f 36 30 38
f 38 30 31
f 38 31 32
f 27 28 30
f 30 28 29
f 32 33 38
f 38 33 37
f 37 33 34
f 37 34 35
f 36 37 35
f 39 40 42
f 42 40 41
f 43 44 46
f 46 44 45
f 47 48 57
f 57 48 49
f 57 49 54
f 54 49 59
f 54 59 60
f 59 49 58
f 58 49 50
f 58 50 51
f 58 51 60
f 60 51 52
f 60 52 53
f 53 54 60
f 54 55 57
f 57 55 56
f 61 62 64
f 64 62 63
f 65 66 68
f 68 66 67
f 69 70 72
f 72 70 71
f 73 74 76
f 76 74 75
f 77 78 80
f 80 78 79
f 81 82 84
f 84 82 83
