ISO-10303-21;
HEADER;
/* Generated by software containing ST-Developer
 * from STEP Tools, Inc. (www.steptools.com) 
 */

FILE_DESCRIPTION(
/* description */ (''),
/* implementation_level */ '2;1');

FILE_NAME(
/* name */ 'ExHist-Robot-Drawer-Pulls-v01.step',
/* time_stamp */ '2026-09-14T18:35:45-07:00',
/* author */ (''),
/* organization */ (''),
/* preprocessor_version */ 'ST-DEVELOPER v20.2',
/* originating_system */ 'Autodesk Translation Framework v15.15.0.0',
/* authorisation */ '');

FILE_SCHEMA (('AUTOMOTIVE_DESIGN { 1 0 10303 214 3 1 1 }'));
ENDSEC;

DATA;
#10=MECHANICAL_DESIGN_GEOMETRIC_PRESENTATION_REPRESENTATION('',(#35,#36,
#37,#38),#1571);
#11=ITEM_DEFINED_TRANSFORMATION($,$,#981,#1049);
#12=ITEM_DEFINED_TRANSFORMATION($,$,#998,#1050);
#13=ITEM_DEFINED_TRANSFORMATION($,$,#1015,#1051);
#14=ITEM_DEFINED_TRANSFORMATION($,$,#1032,#1052);
#15=(
REPRESENTATION_RELATIONSHIP($,$,#1591,#1590)
REPRESENTATION_RELATIONSHIP_WITH_TRANSFORMATION(#11)
SHAPE_REPRESENTATION_RELATIONSHIP()
);
#16=(
REPRESENTATION_RELATIONSHIP($,$,#1592,#1590)
REPRESENTATION_RELATIONSHIP_WITH_TRANSFORMATION(#12)
SHAPE_REPRESENTATION_RELATIONSHIP()
);
#17=(
REPRESENTATION_RELATIONSHIP($,$,#1593,#1590)
REPRESENTATION_RELATIONSHIP_WITH_TRANSFORMATION(#13)
SHAPE_REPRESENTATION_RELATIONSHIP()
);
#18=(
REPRESENTATION_RELATIONSHIP($,$,#1594,#1590)
REPRESENTATION_RELATIONSHIP_WITH_TRANSFORMATION(#14)
SHAPE_REPRESENTATION_RELATIONSHIP()
);
#19=CONTEXT_DEPENDENT_SHAPE_REPRESENTATION(#15,#1586);
#20=CONTEXT_DEPENDENT_SHAPE_REPRESENTATION(#16,#1587);
#21=CONTEXT_DEPENDENT_SHAPE_REPRESENTATION(#17,#1588);
#22=CONTEXT_DEPENDENT_SHAPE_REPRESENTATION(#18,#1589);
#23=NEXT_ASSEMBLY_USAGE_OCCURRENCE(
'UNLOAD_DRAWER_OPEN_mm - robot pull CONCEPT:1',
'UNLOAD_DRAWER_OPEN_mm - robot pull CONCEPT:1',
'UNLOAD_DRAWER_OPEN_mm - robot pull CONCEPT:1',#1596,#1597,
'UNLOAD_DRAWER_OPEN_mm - robot pull CONCEPT:1');
#24=NEXT_ASSEMBLY_USAGE_OCCURRENCE(
'LOAD_DRAWER_OPEN_mm - robot pull CONCEPT:1',
'LOAD_DRAWER_OPEN_mm - robot pull CONCEPT:1',
'LOAD_DRAWER_OPEN_mm - robot pull CONCEPT:1',#1596,#1598,
'LOAD_DRAWER_OPEN_mm - robot pull CONCEPT:1');
#25=NEXT_ASSEMBLY_USAGE_OCCURRENCE(
'EST_DRAWER_SLIDER - robot pull CONCEPT:1',
'EST_DRAWER_SLIDER - robot pull CONCEPT:1',
'EST_DRAWER_SLIDER - robot pull CONCEPT:1',#1596,#1599,
'EST_DRAWER_SLIDER - robot pull CONCEPT:1');
#26=NEXT_ASSEMBLY_USAGE_OCCURRENCE(
'TS5025_DRAWER_OPEN_mm - robot pull CONCEPT:1',
'TS5025_DRAWER_OPEN_mm - robot pull CONCEPT:1',
'TS5025_DRAWER_OPEN_mm - robot pull CONCEPT:1',#1596,#1600,
'TS5025_DRAWER_OPEN_mm - robot pull CONCEPT:1');
#27=SHAPE_REPRESENTATION_RELATIONSHIP('SRR','None',#1591,#31);
#28=SHAPE_REPRESENTATION_RELATIONSHIP('SRR','None',#1592,#32);
#29=SHAPE_REPRESENTATION_RELATIONSHIP('SRR','None',#1593,#33);
#30=SHAPE_REPRESENTATION_RELATIONSHIP('SRR','None',#1594,#34);
#31=ADVANCED_BREP_SHAPE_REPRESENTATION('',(#39),#1567);
#32=ADVANCED_BREP_SHAPE_REPRESENTATION('',(#40),#1568);
#33=ADVANCED_BREP_SHAPE_REPRESENTATION('',(#41),#1569);
#34=ADVANCED_BREP_SHAPE_REPRESENTATION('',(#42),#1570);
#35=STYLED_ITEM('',(#1619),#39);
#36=STYLED_ITEM('',(#1619),#40);
#37=STYLED_ITEM('',(#1619),#41);
#38=STYLED_ITEM('',(#1619),#42);
#39=MANIFOLD_SOLID_BREP(
'U-pull 60 x 33 x 10 mm - two 3.3 mm mounting bores',#931);
#40=MANIFOLD_SOLID_BREP(
'U-pull 60 x 33 x 10 mm - two 3.3 mm mounting bores',#932);
#41=MANIFOLD_SOLID_BREP(
'U-pull 60 x 33 x 10 mm - two 3.3 mm mounting bores',#933);
#42=MANIFOLD_SOLID_BREP(
'U-pull 60 x 33 x 10 mm - two 3.3 mm mounting bores',#934);
#43=FACE_BOUND('',#153,.T.);
#44=FACE_BOUND('',#158,.T.);
#45=FACE_BOUND('',#159,.T.);
#46=FACE_BOUND('',#162,.T.);
#47=FACE_BOUND('',#169,.T.);
#48=FACE_BOUND('',#174,.T.);
#49=FACE_BOUND('',#175,.T.);
#50=FACE_BOUND('',#178,.T.);
#51=FACE_BOUND('',#185,.T.);
#52=FACE_BOUND('',#190,.T.);
#53=FACE_BOUND('',#191,.T.);
#54=FACE_BOUND('',#194,.T.);
#55=FACE_BOUND('',#201,.T.);
#56=FACE_BOUND('',#206,.T.);
#57=FACE_BOUND('',#207,.T.);
#58=FACE_BOUND('',#210,.T.);
#59=PLANE('',#988);
#60=PLANE('',#989);
#61=PLANE('',#990);
#62=PLANE('',#991);
#63=PLANE('',#992);
#64=PLANE('',#993);
#65=PLANE('',#994);
#66=PLANE('',#995);
#67=PLANE('',#996);
#68=PLANE('',#997);
#69=PLANE('',#1005);
#70=PLANE('',#1006);
#71=PLANE('',#1007);
#72=PLANE('',#1008);
#73=PLANE('',#1009);
#74=PLANE('',#1010);
#75=PLANE('',#1011);
#76=PLANE('',#1012);
#77=PLANE('',#1013);
#78=PLANE('',#1014);
#79=PLANE('',#1022);
#80=PLANE('',#1023);
#81=PLANE('',#1024);
#82=PLANE('',#1025);
#83=PLANE('',#1026);
#84=PLANE('',#1027);
#85=PLANE('',#1028);
#86=PLANE('',#1029);
#87=PLANE('',#1030);
#88=PLANE('',#1031);
#89=PLANE('',#1039);
#90=PLANE('',#1040);
#91=PLANE('',#1041);
#92=PLANE('',#1042);
#93=PLANE('',#1043);
#94=PLANE('',#1044);
#95=PLANE('',#1045);
#96=PLANE('',#1046);
#97=PLANE('',#1047);
#98=PLANE('',#1048);
#99=FACE_OUTER_BOUND('',#147,.T.);
#100=FACE_OUTER_BOUND('',#148,.T.);
#101=FACE_OUTER_BOUND('',#149,.T.);
#102=FACE_OUTER_BOUND('',#150,.T.);
#103=FACE_OUTER_BOUND('',#151,.T.);
#104=FACE_OUTER_BOUND('',#152,.T.);
#105=FACE_OUTER_BOUND('',#154,.T.);
#106=FACE_OUTER_BOUND('',#155,.T.);
#107=FACE_OUTER_BOUND('',#156,.T.);
#108=FACE_OUTER_BOUND('',#157,.T.);
#109=FACE_OUTER_BOUND('',#160,.T.);
#110=FACE_OUTER_BOUND('',#161,.T.);
#111=FACE_OUTER_BOUND('',#163,.T.);
#112=FACE_OUTER_BOUND('',#164,.T.);
#113=FACE_OUTER_BOUND('',#165,.T.);
#114=FACE_OUTER_BOUND('',#166,.T.);
#115=FACE_OUTER_BOUND('',#167,.T.);
#116=FACE_OUTER_BOUND('',#168,.T.);
#117=FACE_OUTER_BOUND('',#170,.T.);
#118=FACE_OUTER_BOUND('',#171,.T.);
#119=FACE_OUTER_BOUND('',#172,.T.);
#120=FACE_OUTER_BOUND('',#173,.T.);
#121=FACE_OUTER_BOUND('',#176,.T.);
#122=FACE_OUTER_BOUND('',#177,.T.);
#123=FACE_OUTER_BOUND('',#179,.T.);
#124=FACE_OUTER_BOUND('',#180,.T.);
#125=FACE_OUTER_BOUND('',#181,.T.);
#126=FACE_OUTER_BOUND('',#182,.T.);
#127=FACE_OUTER_BOUND('',#183,.T.);
#128=FACE_OUTER_BOUND('',#184,.T.);
#129=FACE_OUTER_BOUND('',#186,.T.);
#130=FACE_OUTER_BOUND('',#187,.T.);
#131=FACE_OUTER_BOUND('',#188,.T.);
#132=FACE_OUTER_BOUND('',#189,.T.);
#133=FACE_OUTER_BOUND('',#192,.T.);
#134=FACE_OUTER_BOUND('',#193,.T.);
#135=FACE_OUTER_BOUND('',#195,.T.);
#136=FACE_OUTER_BOUND('',#196,.T.);
#137=FACE_OUTER_BOUND('',#197,.T.);
#138=FACE_OUTER_BOUND('',#198,.T.);
#139=FACE_OUTER_BOUND('',#199,.T.);
#140=FACE_OUTER_BOUND('',#200,.T.);
#141=FACE_OUTER_BOUND('',#202,.T.);
#142=FACE_OUTER_BOUND('',#203,.T.);
#143=FACE_OUTER_BOUND('',#204,.T.);
#144=FACE_OUTER_BOUND('',#205,.T.);
#145=FACE_OUTER_BOUND('',#208,.T.);
#146=FACE_OUTER_BOUND('',#209,.T.);
#147=EDGE_LOOP('',(#635,#636,#637,#638));
#148=EDGE_LOOP('',(#639,#640,#641,#642));
#149=EDGE_LOOP('',(#643,#644,#645,#646));
#150=EDGE_LOOP('',(#647,#648,#649,#650));
#151=EDGE_LOOP('',(#651,#652,#653,#654));
#152=EDGE_LOOP('',(#655,#656,#657,#658));
#153=EDGE_LOOP('',(#659));
#154=EDGE_LOOP('',(#660,#661,#662,#663));
#155=EDGE_LOOP('',(#664,#665,#666,#667,#668,#669,#670,#671));
#156=EDGE_LOOP('',(#672,#673,#674,#675,#676,#677,#678,#679));
#157=EDGE_LOOP('',(#680,#681,#682,#683));
#158=EDGE_LOOP('',(#684));
#159=EDGE_LOOP('',(#685));
#160=EDGE_LOOP('',(#686,#687,#688,#689));
#161=EDGE_LOOP('',(#690,#691,#692,#693));
#162=EDGE_LOOP('',(#694));
#163=EDGE_LOOP('',(#695,#696,#697,#698));
#164=EDGE_LOOP('',(#699,#700,#701,#702));
#165=EDGE_LOOP('',(#703,#704,#705,#706));
#166=EDGE_LOOP('',(#707,#708,#709,#710));
#167=EDGE_LOOP('',(#711,#712,#713,#714));
#168=EDGE_LOOP('',(#715,#716,#717,#718));
#169=EDGE_LOOP('',(#719));
#170=EDGE_LOOP('',(#720,#721,#722,#723));
#171=EDGE_LOOP('',(#724,#725,#726,#727,#728,#729,#730,#731));
#172=EDGE_LOOP('',(#732,#733,#734,#735,#736,#737,#738,#739));
#173=EDGE_LOOP('',(#740,#741,#742,#743));
#174=EDGE_LOOP('',(#744));
#175=EDGE_LOOP('',(#745));
#176=EDGE_LOOP('',(#746,#747,#748,#749));
#177=EDGE_LOOP('',(#750,#751,#752,#753));
#178=EDGE_LOOP('',(#754));
#179=EDGE_LOOP('',(#755,#756,#757,#758));
#180=EDGE_LOOP('',(#759,#760,#761,#762));
#181=EDGE_LOOP('',(#763,#764,#765,#766));
#182=EDGE_LOOP('',(#767,#768,#769,#770));
#183=EDGE_LOOP('',(#771,#772,#773,#774));
#184=EDGE_LOOP('',(#775,#776,#777,#778));
#185=EDGE_LOOP('',(#779));
#186=EDGE_LOOP('',(#780,#781,#782,#783));
#187=EDGE_LOOP('',(#784,#785,#786,#787,#788,#789,#790,#791));
#188=EDGE_LOOP('',(#792,#793,#794,#795,#796,#797,#798,#799));
#189=EDGE_LOOP('',(#800,#801,#802,#803));
#190=EDGE_LOOP('',(#804));
#191=EDGE_LOOP('',(#805));
#192=EDGE_LOOP('',(#806,#807,#808,#809));
#193=EDGE_LOOP('',(#810,#811,#812,#813));
#194=EDGE_LOOP('',(#814));
#195=EDGE_LOOP('',(#815,#816,#817,#818));
#196=EDGE_LOOP('',(#819,#820,#821,#822));
#197=EDGE_LOOP('',(#823,#824,#825,#826));
#198=EDGE_LOOP('',(#827,#828,#829,#830));
#199=EDGE_LOOP('',(#831,#832,#833,#834));
#200=EDGE_LOOP('',(#835,#836,#837,#838));
#201=EDGE_LOOP('',(#839));
#202=EDGE_LOOP('',(#840,#841,#842,#843));
#203=EDGE_LOOP('',(#844,#845,#846,#847,#848,#849,#850,#851));
#204=EDGE_LOOP('',(#852,#853,#854,#855,#856,#857,#858,#859));
#205=EDGE_LOOP('',(#860,#861,#862,#863));
#206=EDGE_LOOP('',(#864));
#207=EDGE_LOOP('',(#865));
#208=EDGE_LOOP('',(#866,#867,#868,#869));
#209=EDGE_LOOP('',(#870,#871,#872,#873));
#210=EDGE_LOOP('',(#874));
#211=LINE('',#1309,#315);
#212=LINE('',#1315,#316);
#213=LINE('',#1320,#317);
#214=LINE('',#1322,#318);
#215=LINE('',#1324,#319);
#216=LINE('',#1325,#320);
#217=LINE('',#1329,#321);
#218=LINE('',#1331,#322);
#219=LINE('',#1333,#323);
#220=LINE('',#1334,#324);
#221=LINE('',#1337,#325);
#222=LINE('',#1339,#326);
#223=LINE('',#1340,#327);
#224=LINE('',#1342,#328);
#225=LINE('',#1343,#329);
#226=LINE('',#1346,#330);
#227=LINE('',#1348,#331);
#228=LINE('',#1349,#332);
#229=LINE('',#1353,#333);
#230=LINE('',#1354,#334);
#231=LINE('',#1355,#335);
#232=LINE('',#1358,#336);
#233=LINE('',#1360,#337);
#234=LINE('',#1361,#338);
#235=LINE('',#1363,#339);
#236=LINE('',#1365,#340);
#237=LINE('',#1372,#341);
#238=LINE('',#1378,#342);
#239=LINE('',#1383,#343);
#240=LINE('',#1385,#344);
#241=LINE('',#1387,#345);
#242=LINE('',#1388,#346);
#243=LINE('',#1392,#347);
#244=LINE('',#1394,#348);
#245=LINE('',#1396,#349);
#246=LINE('',#1397,#350);
#247=LINE('',#1400,#351);
#248=LINE('',#1402,#352);
#249=LINE('',#1403,#353);
#250=LINE('',#1405,#354);
#251=LINE('',#1406,#355);
#252=LINE('',#1409,#356);
#253=LINE('',#1411,#357);
#254=LINE('',#1412,#358);
#255=LINE('',#1416,#359);
#256=LINE('',#1417,#360);
#257=LINE('',#1418,#361);
#258=LINE('',#1421,#362);
#259=LINE('',#1423,#363);
#260=LINE('',#1424,#364);
#261=LINE('',#1426,#365);
#262=LINE('',#1428,#366);
#263=LINE('',#1435,#367);
#264=LINE('',#1441,#368);
#265=LINE('',#1446,#369);
#266=LINE('',#1448,#370);
#267=LINE('',#1450,#371);
#268=LINE('',#1451,#372);
#269=LINE('',#1455,#373);
#270=LINE('',#1457,#374);
#271=LINE('',#1459,#375);
#272=LINE('',#1460,#376);
#273=LINE('',#1463,#377);
#274=LINE('',#1465,#378);
#275=LINE('',#1466,#379);
#276=LINE('',#1468,#380);
#277=LINE('',#1469,#381);
#278=LINE('',#1472,#382);
#279=LINE('',#1474,#383);
#280=LINE('',#1475,#384);
#281=LINE('',#1479,#385);
#282=LINE('',#1480,#386);
#283=LINE('',#1481,#387);
#284=LINE('',#1484,#388);
#285=LINE('',#1486,#389);
#286=LINE('',#1487,#390);
#287=LINE('',#1489,#391);
#288=LINE('',#1491,#392);
#289=LINE('',#1498,#393);
#290=LINE('',#1504,#394);
#291=LINE('',#1509,#395);
#292=LINE('',#1511,#396);
#293=LINE('',#1513,#397);
#294=LINE('',#1514,#398);
#295=LINE('',#1518,#399);
#296=LINE('',#1520,#400);
#297=LINE('',#1522,#401);
#298=LINE('',#1523,#402);
#299=LINE('',#1526,#403);
#300=LINE('',#1528,#404);
#301=LINE('',#1529,#405);
#302=LINE('',#1531,#406);
#303=LINE('',#1532,#407);
#304=LINE('',#1535,#408);
#305=LINE('',#1537,#409);
#306=LINE('',#1538,#410);
#307=LINE('',#1542,#411);
#308=LINE('',#1543,#412);
#309=LINE('',#1544,#413);
#310=LINE('',#1547,#414);
#311=LINE('',#1549,#415);
#312=LINE('',#1550,#416);
#313=LINE('',#1552,#417);
#314=LINE('',#1554,#418);
#315=VECTOR('',#1061,1.65);
#316=VECTOR('',#1068,1.65);
#317=VECTOR('',#1073,10.);
#318=VECTOR('',#1074,10.);
#319=VECTOR('',#1075,10.);
#320=VECTOR('',#1076,10.);
#321=VECTOR('',#1079,10.);
#322=VECTOR('',#1080,10.);
#323=VECTOR('',#1081,10.);
#324=VECTOR('',#1082,10.);
#325=VECTOR('',#1085,10.);
#326=VECTOR('',#1086,10.);
#327=VECTOR('',#1087,10.);
#328=VECTOR('',#1090,10.);
#329=VECTOR('',#1091,10.);
#330=VECTOR('',#1094,10.);
#331=VECTOR('',#1095,10.);
#332=VECTOR('',#1096,10.);
#333=VECTOR('',#1099,10.);
#334=VECTOR('',#1100,10.);
#335=VECTOR('',#1101,10.);
#336=VECTOR('',#1104,10.);
#337=VECTOR('',#1105,10.);
#338=VECTOR('',#1106,10.);
#339=VECTOR('',#1109,10.);
#340=VECTOR('',#1112,10.);
#341=VECTOR('',#1121,1.65);
#342=VECTOR('',#1128,1.65);
#343=VECTOR('',#1133,10.);
#344=VECTOR('',#1134,10.);
#345=VECTOR('',#1135,10.);
#346=VECTOR('',#1136,10.);
#347=VECTOR('',#1139,10.);
#348=VECTOR('',#1140,10.);
#349=VECTOR('',#1141,10.);
#350=VECTOR('',#1142,10.);
#351=VECTOR('',#1145,10.);
#352=VECTOR('',#1146,10.);
#353=VECTOR('',#1147,10.);
#354=VECTOR('',#1150,10.);
#355=VECTOR('',#1151,10.);
#356=VECTOR('',#1154,10.);
#357=VECTOR('',#1155,10.);
#358=VECTOR('',#1156,10.);
#359=VECTOR('',#1159,10.);
#360=VECTOR('',#1160,10.);
#361=VECTOR('',#1161,10.);
#362=VECTOR('',#1164,10.);
#363=VECTOR('',#1165,10.);
#364=VECTOR('',#1166,10.);
#365=VECTOR('',#1169,10.);
#366=VECTOR('',#1172,10.);
#367=VECTOR('',#1181,1.65);
#368=VECTOR('',#1188,1.65);
#369=VECTOR('',#1193,10.);
#370=VECTOR('',#1194,10.);
#371=VECTOR('',#1195,10.);
#372=VECTOR('',#1196,10.);
#373=VECTOR('',#1199,10.);
#374=VECTOR('',#1200,10.);
#375=VECTOR('',#1201,10.);
#376=VECTOR('',#1202,10.);
#377=VECTOR('',#1205,10.);
#378=VECTOR('',#1206,10.);
#379=VECTOR('',#1207,10.);
#380=VECTOR('',#1210,10.);
#381=VECTOR('',#1211,10.);
#382=VECTOR('',#1214,10.);
#383=VECTOR('',#1215,10.);
#384=VECTOR('',#1216,10.);
#385=VECTOR('',#1219,10.);
#386=VECTOR('',#1220,10.);
#387=VECTOR('',#1221,10.);
#388=VECTOR('',#1224,10.);
#389=VECTOR('',#1225,10.);
#390=VECTOR('',#1226,10.);
#391=VECTOR('',#1229,10.);
#392=VECTOR('',#1232,10.);
#393=VECTOR('',#1241,1.65);
#394=VECTOR('',#1248,1.65);
#395=VECTOR('',#1253,10.);
#396=VECTOR('',#1254,10.);
#397=VECTOR('',#1255,10.);
#398=VECTOR('',#1256,10.);
#399=VECTOR('',#1259,10.);
#400=VECTOR('',#1260,10.);
#401=VECTOR('',#1261,10.);
#402=VECTOR('',#1262,10.);
#403=VECTOR('',#1265,10.);
#404=VECTOR('',#1266,10.);
#405=VECTOR('',#1267,10.);
#406=VECTOR('',#1270,10.);
#407=VECTOR('',#1271,10.);
#408=VECTOR('',#1274,10.);
#409=VECTOR('',#1275,10.);
#410=VECTOR('',#1276,10.);
#411=VECTOR('',#1279,10.);
#412=VECTOR('',#1280,10.);
#413=VECTOR('',#1281,10.);
#414=VECTOR('',#1284,10.);
#415=VECTOR('',#1285,10.);
#416=VECTOR('',#1286,10.);
#417=VECTOR('',#1289,10.);
#418=VECTOR('',#1292,10.);
#419=CIRCLE('',#983,1.65);
#420=CIRCLE('',#984,1.65);
#421=CIRCLE('',#986,1.65);
#422=CIRCLE('',#987,1.65);
#423=CIRCLE('',#1000,1.65);
#424=CIRCLE('',#1001,1.65);
#425=CIRCLE('',#1003,1.65);
#426=CIRCLE('',#1004,1.65);
#427=CIRCLE('',#1017,1.65);
#428=CIRCLE('',#1018,1.65);
#429=CIRCLE('',#1020,1.65);
#430=CIRCLE('',#1021,1.65);
#431=CIRCLE('',#1034,1.65);
#432=CIRCLE('',#1035,1.65);
#433=CIRCLE('',#1037,1.65);
#434=CIRCLE('',#1038,1.65);
#435=VERTEX_POINT('',#1306);
#436=VERTEX_POINT('',#1308);
#437=VERTEX_POINT('',#1312);
#438=VERTEX_POINT('',#1314);
#439=VERTEX_POINT('',#1318);
#440=VERTEX_POINT('',#1319);
#441=VERTEX_POINT('',#1321);
#442=VERTEX_POINT('',#1323);
#443=VERTEX_POINT('',#1327);
#444=VERTEX_POINT('',#1328);
#445=VERTEX_POINT('',#1330);
#446=VERTEX_POINT('',#1332);
#447=VERTEX_POINT('',#1336);
#448=VERTEX_POINT('',#1338);
#449=VERTEX_POINT('',#1345);
#450=VERTEX_POINT('',#1347);
#451=VERTEX_POINT('',#1351);
#452=VERTEX_POINT('',#1352);
#453=VERTEX_POINT('',#1357);
#454=VERTEX_POINT('',#1359);
#455=VERTEX_POINT('',#1369);
#456=VERTEX_POINT('',#1371);
#457=VERTEX_POINT('',#1375);
#458=VERTEX_POINT('',#1377);
#459=VERTEX_POINT('',#1381);
#460=VERTEX_POINT('',#1382);
#461=VERTEX_POINT('',#1384);
#462=VERTEX_POINT('',#1386);
#463=VERTEX_POINT('',#1390);
#464=VERTEX_POINT('',#1391);
#465=VERTEX_POINT('',#1393);
#466=VERTEX_POINT('',#1395);
#467=VERTEX_POINT('',#1399);
#468=VERTEX_POINT('',#1401);
#469=VERTEX_POINT('',#1408);
#470=VERTEX_POINT('',#1410);
#471=VERTEX_POINT('',#1414);
#472=VERTEX_POINT('',#1415);
#473=VERTEX_POINT('',#1420);
#474=VERTEX_POINT('',#1422);
#475=VERTEX_POINT('',#1432);
#476=VERTEX_POINT('',#1434);
#477=VERTEX_POINT('',#1438);
#478=VERTEX_POINT('',#1440);
#479=VERTEX_POINT('',#1444);
#480=VERTEX_POINT('',#1445);
#481=VERTEX_POINT('',#1447);
#482=VERTEX_POINT('',#1449);
#483=VERTEX_POINT('',#1453);
#484=VERTEX_POINT('',#1454);
#485=VERTEX_POINT('',#1456);
#486=VERTEX_POINT('',#1458);
#487=VERTEX_POINT('',#1462);
#488=VERTEX_POINT('',#1464);
#489=VERTEX_POINT('',#1471);
#490=VERTEX_POINT('',#1473);
#491=VERTEX_POINT('',#1477);
#492=VERTEX_POINT('',#1478);
#493=VERTEX_POINT('',#1483);
#494=VERTEX_POINT('',#1485);
#495=VERTEX_POINT('',#1495);
#496=VERTEX_POINT('',#1497);
#497=VERTEX_POINT('',#1501);
#498=VERTEX_POINT('',#1503);
#499=VERTEX_POINT('',#1507);
#500=VERTEX_POINT('',#1508);
#501=VERTEX_POINT('',#1510);
#502=VERTEX_POINT('',#1512);
#503=VERTEX_POINT('',#1516);
#504=VERTEX_POINT('',#1517);
#505=VERTEX_POINT('',#1519);
#506=VERTEX_POINT('',#1521);
#507=VERTEX_POINT('',#1525);
#508=VERTEX_POINT('',#1527);
#509=VERTEX_POINT('',#1534);
#510=VERTEX_POINT('',#1536);
#511=VERTEX_POINT('',#1540);
#512=VERTEX_POINT('',#1541);
#513=VERTEX_POINT('',#1546);
#514=VERTEX_POINT('',#1548);
#515=EDGE_CURVE('',#435,#435,#419,.T.);
#516=EDGE_CURVE('',#435,#436,#211,.T.);
#517=EDGE_CURVE('',#436,#436,#420,.T.);
#518=EDGE_CURVE('',#437,#437,#421,.T.);
#519=EDGE_CURVE('',#437,#438,#212,.T.);
#520=EDGE_CURVE('',#438,#438,#422,.T.);
#521=EDGE_CURVE('',#439,#440,#213,.T.);
#522=EDGE_CURVE('',#441,#439,#214,.T.);
#523=EDGE_CURVE('',#442,#441,#215,.T.);
#524=EDGE_CURVE('',#440,#442,#216,.T.);
#525=EDGE_CURVE('',#443,#444,#217,.T.);
#526=EDGE_CURVE('',#445,#443,#218,.T.);
#527=EDGE_CURVE('',#446,#445,#219,.T.);
#528=EDGE_CURVE('',#446,#444,#220,.T.);
#529=EDGE_CURVE('',#447,#441,#221,.T.);
#530=EDGE_CURVE('',#447,#448,#222,.T.);
#531=EDGE_CURVE('',#442,#448,#223,.T.);
#532=EDGE_CURVE('',#448,#443,#224,.T.);
#533=EDGE_CURVE('',#445,#447,#225,.T.);
#534=EDGE_CURVE('',#449,#440,#226,.T.);
#535=EDGE_CURVE('',#450,#449,#227,.T.);
#536=EDGE_CURVE('',#439,#450,#228,.T.);
#537=EDGE_CURVE('',#451,#452,#229,.T.);
#538=EDGE_CURVE('',#452,#449,#230,.T.);
#539=EDGE_CURVE('',#444,#451,#231,.T.);
#540=EDGE_CURVE('',#450,#453,#232,.T.);
#541=EDGE_CURVE('',#453,#454,#233,.T.);
#542=EDGE_CURVE('',#454,#446,#234,.T.);
#543=EDGE_CURVE('',#454,#451,#235,.T.);
#544=EDGE_CURVE('',#453,#452,#236,.T.);
#545=EDGE_CURVE('',#455,#455,#423,.T.);
#546=EDGE_CURVE('',#455,#456,#237,.T.);
#547=EDGE_CURVE('',#456,#456,#424,.T.);
#548=EDGE_CURVE('',#457,#457,#425,.T.);
#549=EDGE_CURVE('',#457,#458,#238,.T.);
#550=EDGE_CURVE('',#458,#458,#426,.T.);
#551=EDGE_CURVE('',#459,#460,#239,.T.);
#552=EDGE_CURVE('',#461,#459,#240,.T.);
#553=EDGE_CURVE('',#462,#461,#241,.T.);
#554=EDGE_CURVE('',#460,#462,#242,.T.);
#555=EDGE_CURVE('',#463,#464,#243,.T.);
#556=EDGE_CURVE('',#465,#463,#244,.T.);
#557=EDGE_CURVE('',#466,#465,#245,.T.);
#558=EDGE_CURVE('',#466,#464,#246,.T.);
#559=EDGE_CURVE('',#467,#461,#247,.T.);
#560=EDGE_CURVE('',#467,#468,#248,.T.);
#561=EDGE_CURVE('',#462,#468,#249,.T.);
#562=EDGE_CURVE('',#468,#463,#250,.T.);
#563=EDGE_CURVE('',#465,#467,#251,.T.);
#564=EDGE_CURVE('',#469,#460,#252,.T.);
#565=EDGE_CURVE('',#470,#469,#253,.T.);
#566=EDGE_CURVE('',#459,#470,#254,.T.);
#567=EDGE_CURVE('',#471,#472,#255,.T.);
#568=EDGE_CURVE('',#472,#469,#256,.T.);
#569=EDGE_CURVE('',#464,#471,#257,.T.);
#570=EDGE_CURVE('',#470,#473,#258,.T.);
#571=EDGE_CURVE('',#473,#474,#259,.T.);
#572=EDGE_CURVE('',#474,#466,#260,.T.);
#573=EDGE_CURVE('',#474,#471,#261,.T.);
#574=EDGE_CURVE('',#473,#472,#262,.T.);
#575=EDGE_CURVE('',#475,#475,#427,.T.);
#576=EDGE_CURVE('',#475,#476,#263,.T.);
#577=EDGE_CURVE('',#476,#476,#428,.T.);
#578=EDGE_CURVE('',#477,#477,#429,.T.);
#579=EDGE_CURVE('',#477,#478,#264,.T.);
#580=EDGE_CURVE('',#478,#478,#430,.T.);
#581=EDGE_CURVE('',#479,#480,#265,.T.);
#582=EDGE_CURVE('',#481,#479,#266,.T.);
#583=EDGE_CURVE('',#482,#481,#267,.T.);
#584=EDGE_CURVE('',#480,#482,#268,.T.);
#585=EDGE_CURVE('',#483,#484,#269,.T.);
#586=EDGE_CURVE('',#485,#483,#270,.T.);
#587=EDGE_CURVE('',#486,#485,#271,.T.);
#588=EDGE_CURVE('',#486,#484,#272,.T.);
#589=EDGE_CURVE('',#487,#481,#273,.T.);
#590=EDGE_CURVE('',#487,#488,#274,.T.);
#591=EDGE_CURVE('',#482,#488,#275,.T.);
#592=EDGE_CURVE('',#488,#483,#276,.T.);
#593=EDGE_CURVE('',#485,#487,#277,.T.);
#594=EDGE_CURVE('',#489,#480,#278,.T.);
#595=EDGE_CURVE('',#490,#489,#279,.T.);
#596=EDGE_CURVE('',#479,#490,#280,.T.);
#597=EDGE_CURVE('',#491,#492,#281,.T.);
#598=EDGE_CURVE('',#492,#489,#282,.T.);
#599=EDGE_CURVE('',#484,#491,#283,.T.);
#600=EDGE_CURVE('',#490,#493,#284,.T.);
#601=EDGE_CURVE('',#493,#494,#285,.T.);
#602=EDGE_CURVE('',#494,#486,#286,.T.);
#603=EDGE_CURVE('',#494,#491,#287,.T.);
#604=EDGE_CURVE('',#493,#492,#288,.T.);
#605=EDGE_CURVE('',#495,#495,#431,.T.);
#606=EDGE_CURVE('',#495,#496,#289,.T.);
#607=EDGE_CURVE('',#496,#496,#432,.T.);
#608=EDGE_CURVE('',#497,#497,#433,.T.);
#609=EDGE_CURVE('',#497,#498,#290,.T.);
#610=EDGE_CURVE('',#498,#498,#434,.T.);
#611=EDGE_CURVE('',#499,#500,#291,.T.);
#612=EDGE_CURVE('',#501,#499,#292,.T.);
#613=EDGE_CURVE('',#502,#501,#293,.T.);
#614=EDGE_CURVE('',#500,#502,#294,.T.);
#615=EDGE_CURVE('',#503,#504,#295,.T.);
#616=EDGE_CURVE('',#505,#503,#296,.T.);
#617=EDGE_CURVE('',#506,#505,#297,.T.);
#618=EDGE_CURVE('',#506,#504,#298,.T.);
#619=EDGE_CURVE('',#507,#501,#299,.T.);
#620=EDGE_CURVE('',#507,#508,#300,.T.);
#621=EDGE_CURVE('',#502,#508,#301,.T.);
#622=EDGE_CURVE('',#508,#503,#302,.T.);
#623=EDGE_CURVE('',#505,#507,#303,.T.);
#624=EDGE_CURVE('',#509,#500,#304,.T.);
#625=EDGE_CURVE('',#510,#509,#305,.T.);
#626=EDGE_CURVE('',#499,#510,#306,.T.);
#627=EDGE_CURVE('',#511,#512,#307,.T.);
#628=EDGE_CURVE('',#512,#509,#308,.T.);
#629=EDGE_CURVE('',#504,#511,#309,.T.);
#630=EDGE_CURVE('',#510,#513,#310,.T.);
#631=EDGE_CURVE('',#513,#514,#311,.T.);
#632=EDGE_CURVE('',#514,#506,#312,.T.);
#633=EDGE_CURVE('',#514,#511,#313,.T.);
#634=EDGE_CURVE('',#513,#512,#314,.T.);
#635=ORIENTED_EDGE('',*,*,#515,.F.);
#636=ORIENTED_EDGE('',*,*,#516,.T.);
#637=ORIENTED_EDGE('',*,*,#517,.F.);
#638=ORIENTED_EDGE('',*,*,#516,.F.);
#639=ORIENTED_EDGE('',*,*,#518,.F.);
#640=ORIENTED_EDGE('',*,*,#519,.T.);
#641=ORIENTED_EDGE('',*,*,#520,.F.);
#642=ORIENTED_EDGE('',*,*,#519,.F.);
#643=ORIENTED_EDGE('',*,*,#521,.F.);
#644=ORIENTED_EDGE('',*,*,#522,.F.);
#645=ORIENTED_EDGE('',*,*,#523,.F.);
#646=ORIENTED_EDGE('',*,*,#524,.F.);
#647=ORIENTED_EDGE('',*,*,#525,.F.);
#648=ORIENTED_EDGE('',*,*,#526,.F.);
#649=ORIENTED_EDGE('',*,*,#527,.F.);
#650=ORIENTED_EDGE('',*,*,#528,.T.);
#651=ORIENTED_EDGE('',*,*,#523,.T.);
#652=ORIENTED_EDGE('',*,*,#529,.F.);
#653=ORIENTED_EDGE('',*,*,#530,.T.);
#654=ORIENTED_EDGE('',*,*,#531,.F.);
#655=ORIENTED_EDGE('',*,*,#526,.T.);
#656=ORIENTED_EDGE('',*,*,#532,.F.);
#657=ORIENTED_EDGE('',*,*,#530,.F.);
#658=ORIENTED_EDGE('',*,*,#533,.F.);
#659=ORIENTED_EDGE('',*,*,#515,.T.);
#660=ORIENTED_EDGE('',*,*,#521,.T.);
#661=ORIENTED_EDGE('',*,*,#534,.F.);
#662=ORIENTED_EDGE('',*,*,#535,.F.);
#663=ORIENTED_EDGE('',*,*,#536,.F.);
#664=ORIENTED_EDGE('',*,*,#537,.T.);
#665=ORIENTED_EDGE('',*,*,#538,.T.);
#666=ORIENTED_EDGE('',*,*,#534,.T.);
#667=ORIENTED_EDGE('',*,*,#524,.T.);
#668=ORIENTED_EDGE('',*,*,#531,.T.);
#669=ORIENTED_EDGE('',*,*,#532,.T.);
#670=ORIENTED_EDGE('',*,*,#525,.T.);
#671=ORIENTED_EDGE('',*,*,#539,.T.);
#672=ORIENTED_EDGE('',*,*,#536,.T.);
#673=ORIENTED_EDGE('',*,*,#540,.T.);
#674=ORIENTED_EDGE('',*,*,#541,.T.);
#675=ORIENTED_EDGE('',*,*,#542,.T.);
#676=ORIENTED_EDGE('',*,*,#527,.T.);
#677=ORIENTED_EDGE('',*,*,#533,.T.);
#678=ORIENTED_EDGE('',*,*,#529,.T.);
#679=ORIENTED_EDGE('',*,*,#522,.T.);
#680=ORIENTED_EDGE('',*,*,#543,.T.);
#681=ORIENTED_EDGE('',*,*,#539,.F.);
#682=ORIENTED_EDGE('',*,*,#528,.F.);
#683=ORIENTED_EDGE('',*,*,#542,.F.);
#684=ORIENTED_EDGE('',*,*,#517,.T.);
#685=ORIENTED_EDGE('',*,*,#520,.T.);
#686=ORIENTED_EDGE('',*,*,#541,.F.);
#687=ORIENTED_EDGE('',*,*,#544,.T.);
#688=ORIENTED_EDGE('',*,*,#537,.F.);
#689=ORIENTED_EDGE('',*,*,#543,.F.);
#690=ORIENTED_EDGE('',*,*,#535,.T.);
#691=ORIENTED_EDGE('',*,*,#538,.F.);
#692=ORIENTED_EDGE('',*,*,#544,.F.);
#693=ORIENTED_EDGE('',*,*,#540,.F.);
#694=ORIENTED_EDGE('',*,*,#518,.T.);
#695=ORIENTED_EDGE('',*,*,#545,.F.);
#696=ORIENTED_EDGE('',*,*,#546,.T.);
#697=ORIENTED_EDGE('',*,*,#547,.F.);
#698=ORIENTED_EDGE('',*,*,#546,.F.);
#699=ORIENTED_EDGE('',*,*,#548,.F.);
#700=ORIENTED_EDGE('',*,*,#549,.T.);
#701=ORIENTED_EDGE('',*,*,#550,.F.);
#702=ORIENTED_EDGE('',*,*,#549,.F.);
#703=ORIENTED_EDGE('',*,*,#551,.F.);
#704=ORIENTED_EDGE('',*,*,#552,.F.);
#705=ORIENTED_EDGE('',*,*,#553,.F.);
#706=ORIENTED_EDGE('',*,*,#554,.F.);
#707=ORIENTED_EDGE('',*,*,#555,.F.);
#708=ORIENTED_EDGE('',*,*,#556,.F.);
#709=ORIENTED_EDGE('',*,*,#557,.F.);
#710=ORIENTED_EDGE('',*,*,#558,.T.);
#711=ORIENTED_EDGE('',*,*,#553,.T.);
#712=ORIENTED_EDGE('',*,*,#559,.F.);
#713=ORIENTED_EDGE('',*,*,#560,.T.);
#714=ORIENTED_EDGE('',*,*,#561,.F.);
#715=ORIENTED_EDGE('',*,*,#556,.T.);
#716=ORIENTED_EDGE('',*,*,#562,.F.);
#717=ORIENTED_EDGE('',*,*,#560,.F.);
#718=ORIENTED_EDGE('',*,*,#563,.F.);
#719=ORIENTED_EDGE('',*,*,#545,.T.);
#720=ORIENTED_EDGE('',*,*,#551,.T.);
#721=ORIENTED_EDGE('',*,*,#564,.F.);
#722=ORIENTED_EDGE('',*,*,#565,.F.);
#723=ORIENTED_EDGE('',*,*,#566,.F.);
#724=ORIENTED_EDGE('',*,*,#567,.T.);
#725=ORIENTED_EDGE('',*,*,#568,.T.);
#726=ORIENTED_EDGE('',*,*,#564,.T.);
#727=ORIENTED_EDGE('',*,*,#554,.T.);
#728=ORIENTED_EDGE('',*,*,#561,.T.);
#729=ORIENTED_EDGE('',*,*,#562,.T.);
#730=ORIENTED_EDGE('',*,*,#555,.T.);
#731=ORIENTED_EDGE('',*,*,#569,.T.);
#732=ORIENTED_EDGE('',*,*,#566,.T.);
#733=ORIENTED_EDGE('',*,*,#570,.T.);
#734=ORIENTED_EDGE('',*,*,#571,.T.);
#735=ORIENTED_EDGE('',*,*,#572,.T.);
#736=ORIENTED_EDGE('',*,*,#557,.T.);
#737=ORIENTED_EDGE('',*,*,#563,.T.);
#738=ORIENTED_EDGE('',*,*,#559,.T.);
#739=ORIENTED_EDGE('',*,*,#552,.T.);
#740=ORIENTED_EDGE('',*,*,#573,.T.);
#741=ORIENTED_EDGE('',*,*,#569,.F.);
#742=ORIENTED_EDGE('',*,*,#558,.F.);
#743=ORIENTED_EDGE('',*,*,#572,.F.);
#744=ORIENTED_EDGE('',*,*,#547,.T.);
#745=ORIENTED_EDGE('',*,*,#550,.T.);
#746=ORIENTED_EDGE('',*,*,#571,.F.);
#747=ORIENTED_EDGE('',*,*,#574,.T.);
#748=ORIENTED_EDGE('',*,*,#567,.F.);
#749=ORIENTED_EDGE('',*,*,#573,.F.);
#750=ORIENTED_EDGE('',*,*,#565,.T.);
#751=ORIENTED_EDGE('',*,*,#568,.F.);
#752=ORIENTED_EDGE('',*,*,#574,.F.);
#753=ORIENTED_EDGE('',*,*,#570,.F.);
#754=ORIENTED_EDGE('',*,*,#548,.T.);
#755=ORIENTED_EDGE('',*,*,#575,.F.);
#756=ORIENTED_EDGE('',*,*,#576,.T.);
#757=ORIENTED_EDGE('',*,*,#577,.F.);
#758=ORIENTED_EDGE('',*,*,#576,.F.);
#759=ORIENTED_EDGE('',*,*,#578,.F.);
#760=ORIENTED_EDGE('',*,*,#579,.T.);
#761=ORIENTED_EDGE('',*,*,#580,.F.);
#762=ORIENTED_EDGE('',*,*,#579,.F.);
#763=ORIENTED_EDGE('',*,*,#581,.F.);
#764=ORIENTED_EDGE('',*,*,#582,.F.);
#765=ORIENTED_EDGE('',*,*,#583,.F.);
#766=ORIENTED_EDGE('',*,*,#584,.F.);
#767=ORIENTED_EDGE('',*,*,#585,.F.);
#768=ORIENTED_EDGE('',*,*,#586,.F.);
#769=ORIENTED_EDGE('',*,*,#587,.F.);
#770=ORIENTED_EDGE('',*,*,#588,.T.);
#771=ORIENTED_EDGE('',*,*,#583,.T.);
#772=ORIENTED_EDGE('',*,*,#589,.F.);
#773=ORIENTED_EDGE('',*,*,#590,.T.);
#774=ORIENTED_EDGE('',*,*,#591,.F.);
#775=ORIENTED_EDGE('',*,*,#586,.T.);
#776=ORIENTED_EDGE('',*,*,#592,.F.);
#777=ORIENTED_EDGE('',*,*,#590,.F.);
#778=ORIENTED_EDGE('',*,*,#593,.F.);
#779=ORIENTED_EDGE('',*,*,#575,.T.);
#780=ORIENTED_EDGE('',*,*,#581,.T.);
#781=ORIENTED_EDGE('',*,*,#594,.F.);
#782=ORIENTED_EDGE('',*,*,#595,.F.);
#783=ORIENTED_EDGE('',*,*,#596,.F.);
#784=ORIENTED_EDGE('',*,*,#597,.T.);
#785=ORIENTED_EDGE('',*,*,#598,.T.);
#786=ORIENTED_EDGE('',*,*,#594,.T.);
#787=ORIENTED_EDGE('',*,*,#584,.T.);
#788=ORIENTED_EDGE('',*,*,#591,.T.);
#789=ORIENTED_EDGE('',*,*,#592,.T.);
#790=ORIENTED_EDGE('',*,*,#585,.T.);
#791=ORIENTED_EDGE('',*,*,#599,.T.);
#792=ORIENTED_EDGE('',*,*,#596,.T.);
#793=ORIENTED_EDGE('',*,*,#600,.T.);
#794=ORIENTED_EDGE('',*,*,#601,.T.);
#795=ORIENTED_EDGE('',*,*,#602,.T.);
#796=ORIENTED_EDGE('',*,*,#587,.T.);
#797=ORIENTED_EDGE('',*,*,#593,.T.);
#798=ORIENTED_EDGE('',*,*,#589,.T.);
#799=ORIENTED_EDGE('',*,*,#582,.T.);
#800=ORIENTED_EDGE('',*,*,#603,.T.);
#801=ORIENTED_EDGE('',*,*,#599,.F.);
#802=ORIENTED_EDGE('',*,*,#588,.F.);
#803=ORIENTED_EDGE('',*,*,#602,.F.);
#804=ORIENTED_EDGE('',*,*,#577,.T.);
#805=ORIENTED_EDGE('',*,*,#580,.T.);
#806=ORIENTED_EDGE('',*,*,#601,.F.);
#807=ORIENTED_EDGE('',*,*,#604,.T.);
#808=ORIENTED_EDGE('',*,*,#597,.F.);
#809=ORIENTED_EDGE('',*,*,#603,.F.);
#810=ORIENTED_EDGE('',*,*,#595,.T.);
#811=ORIENTED_EDGE('',*,*,#598,.F.);
#812=ORIENTED_EDGE('',*,*,#604,.F.);
#813=ORIENTED_EDGE('',*,*,#600,.F.);
#814=ORIENTED_EDGE('',*,*,#578,.T.);
#815=ORIENTED_EDGE('',*,*,#605,.F.);
#816=ORIENTED_EDGE('',*,*,#606,.T.);
#817=ORIENTED_EDGE('',*,*,#607,.F.);
#818=ORIENTED_EDGE('',*,*,#606,.F.);
#819=ORIENTED_EDGE('',*,*,#608,.F.);
#820=ORIENTED_EDGE('',*,*,#609,.T.);
#821=ORIENTED_EDGE('',*,*,#610,.F.);
#822=ORIENTED_EDGE('',*,*,#609,.F.);
#823=ORIENTED_EDGE('',*,*,#611,.F.);
#824=ORIENTED_EDGE('',*,*,#612,.F.);
#825=ORIENTED_EDGE('',*,*,#613,.F.);
#826=ORIENTED_EDGE('',*,*,#614,.F.);
#827=ORIENTED_EDGE('',*,*,#615,.F.);
#828=ORIENTED_EDGE('',*,*,#616,.F.);
#829=ORIENTED_EDGE('',*,*,#617,.F.);
#830=ORIENTED_EDGE('',*,*,#618,.T.);
#831=ORIENTED_EDGE('',*,*,#613,.T.);
#832=ORIENTED_EDGE('',*,*,#619,.F.);
#833=ORIENTED_EDGE('',*,*,#620,.T.);
#834=ORIENTED_EDGE('',*,*,#621,.F.);
#835=ORIENTED_EDGE('',*,*,#616,.T.);
#836=ORIENTED_EDGE('',*,*,#622,.F.);
#837=ORIENTED_EDGE('',*,*,#620,.F.);
#838=ORIENTED_EDGE('',*,*,#623,.F.);
#839=ORIENTED_EDGE('',*,*,#605,.T.);
#840=ORIENTED_EDGE('',*,*,#611,.T.);
#841=ORIENTED_EDGE('',*,*,#624,.F.);
#842=ORIENTED_EDGE('',*,*,#625,.F.);
#843=ORIENTED_EDGE('',*,*,#626,.F.);
#844=ORIENTED_EDGE('',*,*,#627,.T.);
#845=ORIENTED_EDGE('',*,*,#628,.T.);
#846=ORIENTED_EDGE('',*,*,#624,.T.);
#847=ORIENTED_EDGE('',*,*,#614,.T.);
#848=ORIENTED_EDGE('',*,*,#621,.T.);
#849=ORIENTED_EDGE('',*,*,#622,.T.);
#850=ORIENTED_EDGE('',*,*,#615,.T.);
#851=ORIENTED_EDGE('',*,*,#629,.T.);
#852=ORIENTED_EDGE('',*,*,#626,.T.);
#853=ORIENTED_EDGE('',*,*,#630,.T.);
#854=ORIENTED_EDGE('',*,*,#631,.T.);
#855=ORIENTED_EDGE('',*,*,#632,.T.);
#856=ORIENTED_EDGE('',*,*,#617,.T.);
#857=ORIENTED_EDGE('',*,*,#623,.T.);
#858=ORIENTED_EDGE('',*,*,#619,.T.);
#859=ORIENTED_EDGE('',*,*,#612,.T.);
#860=ORIENTED_EDGE('',*,*,#633,.T.);
#861=ORIENTED_EDGE('',*,*,#629,.F.);
#862=ORIENTED_EDGE('',*,*,#618,.F.);
#863=ORIENTED_EDGE('',*,*,#632,.F.);
#864=ORIENTED_EDGE('',*,*,#607,.T.);
#865=ORIENTED_EDGE('',*,*,#610,.T.);
#866=ORIENTED_EDGE('',*,*,#631,.F.);
#867=ORIENTED_EDGE('',*,*,#634,.T.);
#868=ORIENTED_EDGE('',*,*,#627,.F.);
#869=ORIENTED_EDGE('',*,*,#633,.F.);
#870=ORIENTED_EDGE('',*,*,#625,.T.);
#871=ORIENTED_EDGE('',*,*,#628,.F.);
#872=ORIENTED_EDGE('',*,*,#634,.F.);
#873=ORIENTED_EDGE('',*,*,#630,.F.);
#874=ORIENTED_EDGE('',*,*,#608,.T.);
#875=CYLINDRICAL_SURFACE('',#982,1.65);
#876=CYLINDRICAL_SURFACE('',#985,1.65);
#877=CYLINDRICAL_SURFACE('',#999,1.65);
#878=CYLINDRICAL_SURFACE('',#1002,1.65);
#879=CYLINDRICAL_SURFACE('',#1016,1.65);
#880=CYLINDRICAL_SURFACE('',#1019,1.65);
#881=CYLINDRICAL_SURFACE('',#1033,1.65);
#882=CYLINDRICAL_SURFACE('',#1036,1.65);
#883=ADVANCED_FACE('',(#99),#875,.F.);
#884=ADVANCED_FACE('',(#100),#876,.F.);
#885=ADVANCED_FACE('',(#101),#59,.F.);
#886=ADVANCED_FACE('',(#102),#60,.F.);
#887=ADVANCED_FACE('',(#103),#61,.F.);
#888=ADVANCED_FACE('',(#104,#43),#62,.F.);
#889=ADVANCED_FACE('',(#105),#63,.F.);
#890=ADVANCED_FACE('',(#106),#64,.F.);
#891=ADVANCED_FACE('',(#107),#65,.T.);
#892=ADVANCED_FACE('',(#108,#44,#45),#66,.F.);
#893=ADVANCED_FACE('',(#109),#67,.F.);
#894=ADVANCED_FACE('',(#110,#46),#68,.F.);
#895=ADVANCED_FACE('',(#111),#877,.F.);
#896=ADVANCED_FACE('',(#112),#878,.F.);
#897=ADVANCED_FACE('',(#113),#69,.F.);
#898=ADVANCED_FACE('',(#114),#70,.F.);
#899=ADVANCED_FACE('',(#115),#71,.F.);
#900=ADVANCED_FACE('',(#116,#47),#72,.F.);
#901=ADVANCED_FACE('',(#117),#73,.F.);
#902=ADVANCED_FACE('',(#118),#74,.F.);
#903=ADVANCED_FACE('',(#119),#75,.T.);
#904=ADVANCED_FACE('',(#120,#48,#49),#76,.F.);
#905=ADVANCED_FACE('',(#121),#77,.F.);
#906=ADVANCED_FACE('',(#122,#50),#78,.F.);
#907=ADVANCED_FACE('',(#123),#879,.F.);
#908=ADVANCED_FACE('',(#124),#880,.F.);
#909=ADVANCED_FACE('',(#125),#79,.F.);
#910=ADVANCED_FACE('',(#126),#80,.F.);
#911=ADVANCED_FACE('',(#127),#81,.F.);
#912=ADVANCED_FACE('',(#128,#51),#82,.F.);
#913=ADVANCED_FACE('',(#129),#83,.F.);
#914=ADVANCED_FACE('',(#130),#84,.F.);
#915=ADVANCED_FACE('',(#131),#85,.T.);
#916=ADVANCED_FACE('',(#132,#52,#53),#86,.F.);
#917=ADVANCED_FACE('',(#133),#87,.F.);
#918=ADVANCED_FACE('',(#134,#54),#88,.F.);
#919=ADVANCED_FACE('',(#135),#881,.F.);
#920=ADVANCED_FACE('',(#136),#882,.F.);
#921=ADVANCED_FACE('',(#137),#89,.F.);
#922=ADVANCED_FACE('',(#138),#90,.F.);
#923=ADVANCED_FACE('',(#139),#91,.F.);
#924=ADVANCED_FACE('',(#140,#55),#92,.F.);
#925=ADVANCED_FACE('',(#141),#93,.F.);
#926=ADVANCED_FACE('',(#142),#94,.F.);
#927=ADVANCED_FACE('',(#143),#95,.T.);
#928=ADVANCED_FACE('',(#144,#56,#57),#96,.F.);
#929=ADVANCED_FACE('',(#145),#97,.F.);
#930=ADVANCED_FACE('',(#146,#58),#98,.F.);
#931=CLOSED_SHELL('',(#883,#884,#885,#886,#887,#888,#889,#890,#891,#892,
#893,#894));
#932=CLOSED_SHELL('',(#895,#896,#897,#898,#899,#900,#901,#902,#903,#904,
#905,#906));
#933=CLOSED_SHELL('',(#907,#908,#909,#910,#911,#912,#913,#914,#915,#916,
#917,#918));
#934=CLOSED_SHELL('',(#919,#920,#921,#922,#923,#924,#925,#926,#927,#928,
#929,#930));
#935=DERIVED_UNIT_ELEMENT(#943,1.);
#936=DERIVED_UNIT_ELEMENT(#1573,-3.);
#937=DERIVED_UNIT_ELEMENT(#943,1.);
#938=DERIVED_UNIT_ELEMENT(#1573,-3.);
#939=DERIVED_UNIT_ELEMENT(#943,1.);
#940=DERIVED_UNIT_ELEMENT(#1573,-3.);
#941=DERIVED_UNIT_ELEMENT(#943,1.);
#942=DERIVED_UNIT_ELEMENT(#1573,-3.);
#943=(
MASS_UNIT()
NAMED_UNIT(*)
SI_UNIT(.KILO.,.GRAM.)
);
#944=DERIVED_UNIT((#935,#936));
#945=DERIVED_UNIT((#937,#938));
#946=DERIVED_UNIT((#939,#940));
#947=DERIVED_UNIT((#941,#942));
#948=MEASURE_REPRESENTATION_ITEM('density measure',
POSITIVE_RATIO_MEASURE(7850.),#944);
#949=MEASURE_REPRESENTATION_ITEM('density measure',
POSITIVE_RATIO_MEASURE(7850.),#945);
#950=MEASURE_REPRESENTATION_ITEM('density measure',
POSITIVE_RATIO_MEASURE(7850.),#946);
#951=MEASURE_REPRESENTATION_ITEM('density measure',
POSITIVE_RATIO_MEASURE(7850.),#947);
#952=PROPERTY_DEFINITION_REPRESENTATION(#972,#960);
#953=PROPERTY_DEFINITION_REPRESENTATION(#973,#961);
#954=PROPERTY_DEFINITION_REPRESENTATION(#974,#962);
#955=PROPERTY_DEFINITION_REPRESENTATION(#975,#963);
#956=PROPERTY_DEFINITION_REPRESENTATION(#976,#964);
#957=PROPERTY_DEFINITION_REPRESENTATION(#977,#965);
#958=PROPERTY_DEFINITION_REPRESENTATION(#978,#966);
#959=PROPERTY_DEFINITION_REPRESENTATION(#979,#967);
#960=REPRESENTATION('material name',(#968),#1567);
#961=REPRESENTATION('density',(#948),#1567);
#962=REPRESENTATION('material name',(#969),#1568);
#963=REPRESENTATION('density',(#949),#1568);
#964=REPRESENTATION('material name',(#970),#1569);
#965=REPRESENTATION('density',(#950),#1569);
#966=REPRESENTATION('material name',(#971),#1570);
#967=REPRESENTATION('density',(#951),#1570);
#968=DESCRIPTIVE_REPRESENTATION_ITEM('Steel','Steel');
#969=DESCRIPTIVE_REPRESENTATION_ITEM('Steel','Steel');
#970=DESCRIPTIVE_REPRESENTATION_ITEM('Steel','Steel');
#971=DESCRIPTIVE_REPRESENTATION_ITEM('Steel','Steel');
#972=PROPERTY_DEFINITION('material property','material name',#1597);
#973=PROPERTY_DEFINITION('material property','density of part',#1597);
#974=PROPERTY_DEFINITION('material property','material name',#1598);
#975=PROPERTY_DEFINITION('material property','density of part',#1598);
#976=PROPERTY_DEFINITION('material property','material name',#1599);
#977=PROPERTY_DEFINITION('material property','density of part',#1599);
#978=PROPERTY_DEFINITION('material property','material name',#1600);
#979=PROPERTY_DEFINITION('material property','density of part',#1600);
#980=AXIS2_PLACEMENT_3D('',#1303,#1053,#1054);
#981=AXIS2_PLACEMENT_3D('',#1304,#1055,#1056);
#982=AXIS2_PLACEMENT_3D('',#1305,#1057,#1058);
#983=AXIS2_PLACEMENT_3D('',#1307,#1059,#1060);
#984=AXIS2_PLACEMENT_3D('',#1310,#1062,#1063);
#985=AXIS2_PLACEMENT_3D('',#1311,#1064,#1065);
#986=AXIS2_PLACEMENT_3D('',#1313,#1066,#1067);
#987=AXIS2_PLACEMENT_3D('',#1316,#1069,#1070);
#988=AXIS2_PLACEMENT_3D('',#1317,#1071,#1072);
#989=AXIS2_PLACEMENT_3D('',#1326,#1077,#1078);
#990=AXIS2_PLACEMENT_3D('',#1335,#1083,#1084);
#991=AXIS2_PLACEMENT_3D('',#1341,#1088,#1089);
#992=AXIS2_PLACEMENT_3D('',#1344,#1092,#1093);
#993=AXIS2_PLACEMENT_3D('',#1350,#1097,#1098);
#994=AXIS2_PLACEMENT_3D('',#1356,#1102,#1103);
#995=AXIS2_PLACEMENT_3D('',#1362,#1107,#1108);
#996=AXIS2_PLACEMENT_3D('',#1364,#1110,#1111);
#997=AXIS2_PLACEMENT_3D('',#1366,#1113,#1114);
#998=AXIS2_PLACEMENT_3D('',#1367,#1115,#1116);
#999=AXIS2_PLACEMENT_3D('',#1368,#1117,#1118);
#1000=AXIS2_PLACEMENT_3D('',#1370,#1119,#1120);
#1001=AXIS2_PLACEMENT_3D('',#1373,#1122,#1123);
#1002=AXIS2_PLACEMENT_3D('',#1374,#1124,#1125);
#1003=AXIS2_PLACEMENT_3D('',#1376,#1126,#1127);
#1004=AXIS2_PLACEMENT_3D('',#1379,#1129,#1130);
#1005=AXIS2_PLACEMENT_3D('',#1380,#1131,#1132);
#1006=AXIS2_PLACEMENT_3D('',#1389,#1137,#1138);
#1007=AXIS2_PLACEMENT_3D('',#1398,#1143,#1144);
#1008=AXIS2_PLACEMENT_3D('',#1404,#1148,#1149);
#1009=AXIS2_PLACEMENT_3D('',#1407,#1152,#1153);
#1010=AXIS2_PLACEMENT_3D('',#1413,#1157,#1158);
#1011=AXIS2_PLACEMENT_3D('',#1419,#1162,#1163);
#1012=AXIS2_PLACEMENT_3D('',#1425,#1167,#1168);
#1013=AXIS2_PLACEMENT_3D('',#1427,#1170,#1171);
#1014=AXIS2_PLACEMENT_3D('',#1429,#1173,#1174);
#1015=AXIS2_PLACEMENT_3D('',#1430,#1175,#1176);
#1016=AXIS2_PLACEMENT_3D('',#1431,#1177,#1178);
#1017=AXIS2_PLACEMENT_3D('',#1433,#1179,#1180);
#1018=AXIS2_PLACEMENT_3D('',#1436,#1182,#1183);
#1019=AXIS2_PLACEMENT_3D('',#1437,#1184,#1185);
#1020=AXIS2_PLACEMENT_3D('',#1439,#1186,#1187);
#1021=AXIS2_PLACEMENT_3D('',#1442,#1189,#1190);
#1022=AXIS2_PLACEMENT_3D('',#1443,#1191,#1192);
#1023=AXIS2_PLACEMENT_3D('',#1452,#1197,#1198);
#1024=AXIS2_PLACEMENT_3D('',#1461,#1203,#1204);
#1025=AXIS2_PLACEMENT_3D('',#1467,#1208,#1209);
#1026=AXIS2_PLACEMENT_3D('',#1470,#1212,#1213);
#1027=AXIS2_PLACEMENT_3D('',#1476,#1217,#1218);
#1028=AXIS2_PLACEMENT_3D('',#1482,#1222,#1223);
#1029=AXIS2_PLACEMENT_3D('',#1488,#1227,#1228);
#1030=AXIS2_PLACEMENT_3D('',#1490,#1230,#1231);
#1031=AXIS2_PLACEMENT_3D('',#1492,#1233,#1234);
#1032=AXIS2_PLACEMENT_3D('',#1493,#1235,#1236);
#1033=AXIS2_PLACEMENT_3D('',#1494,#1237,#1238);
#1034=AXIS2_PLACEMENT_3D('',#1496,#1239,#1240);
#1035=AXIS2_PLACEMENT_3D('',#1499,#1242,#1243);
#1036=AXIS2_PLACEMENT_3D('',#1500,#1244,#1245);
#1037=AXIS2_PLACEMENT_3D('',#1502,#1246,#1247);
#1038=AXIS2_PLACEMENT_3D('',#1505,#1249,#1250);
#1039=AXIS2_PLACEMENT_3D('',#1506,#1251,#1252);
#1040=AXIS2_PLACEMENT_3D('',#1515,#1257,#1258);
#1041=AXIS2_PLACEMENT_3D('',#1524,#1263,#1264);
#1042=AXIS2_PLACEMENT_3D('',#1530,#1268,#1269);
#1043=AXIS2_PLACEMENT_3D('',#1533,#1272,#1273);
#1044=AXIS2_PLACEMENT_3D('',#1539,#1277,#1278);
#1045=AXIS2_PLACEMENT_3D('',#1545,#1282,#1283);
#1046=AXIS2_PLACEMENT_3D('',#1551,#1287,#1288);
#1047=AXIS2_PLACEMENT_3D('',#1553,#1290,#1291);
#1048=AXIS2_PLACEMENT_3D('',#1555,#1293,#1294);
#1049=AXIS2_PLACEMENT_3D('',#1556,#1295,#1296);
#1050=AXIS2_PLACEMENT_3D('',#1557,#1297,#1298);
#1051=AXIS2_PLACEMENT_3D('',#1558,#1299,#1300);
#1052=AXIS2_PLACEMENT_3D('',#1559,#1301,#1302);
#1053=DIRECTION('axis',(0.,0.,1.));
#1054=DIRECTION('refdir',(1.,0.,0.));
#1055=DIRECTION('axis',(0.,0.,1.));
#1056=DIRECTION('refdir',(1.,0.,0.));
#1057=DIRECTION('center_axis',(0.,-1.,0.));
#1058=DIRECTION('ref_axis',(1.,0.,0.));
#1059=DIRECTION('center_axis',(0.,-1.,0.));
#1060=DIRECTION('ref_axis',(1.,0.,0.));
#1061=DIRECTION('',(0.,-1.,0.));
#1062=DIRECTION('center_axis',(0.,1.,0.));
#1063=DIRECTION('ref_axis',(1.,0.,0.));
#1064=DIRECTION('center_axis',(0.,-1.,0.));
#1065=DIRECTION('ref_axis',(1.,0.,0.));
#1066=DIRECTION('center_axis',(0.,-1.,0.));
#1067=DIRECTION('ref_axis',(1.,0.,0.));
#1068=DIRECTION('',(0.,-1.,0.));
#1069=DIRECTION('center_axis',(0.,1.,0.));
#1070=DIRECTION('ref_axis',(1.,0.,0.));
#1071=DIRECTION('center_axis',(0.,-1.,0.));
#1072=DIRECTION('ref_axis',(0.,0.,-1.));
#1073=DIRECTION('',(0.,0.,-1.));
#1074=DIRECTION('',(-1.,0.,0.));
#1075=DIRECTION('',(0.,0.,1.));
#1076=DIRECTION('',(1.,0.,0.));
#1077=DIRECTION('center_axis',(-1.,0.,0.));
#1078=DIRECTION('ref_axis',(0.,0.,1.));
#1079=DIRECTION('',(0.,-1.,0.));
#1080=DIRECTION('',(0.,0.,-1.));
#1081=DIRECTION('',(0.,1.,0.));
#1082=DIRECTION('',(0.,0.,-1.));
#1083=DIRECTION('center_axis',(1.,0.,0.));
#1084=DIRECTION('ref_axis',(0.,0.,-1.));
#1085=DIRECTION('',(0.,-1.,0.));
#1086=DIRECTION('',(0.,0.,-1.));
#1087=DIRECTION('',(0.,1.,0.));
#1088=DIRECTION('center_axis',(0.,-1.,0.));
#1089=DIRECTION('ref_axis',(0.,0.,-1.));
#1090=DIRECTION('',(1.,0.,0.));
#1091=DIRECTION('',(-1.,0.,0.));
#1092=DIRECTION('center_axis',(-1.,0.,0.));
#1093=DIRECTION('ref_axis',(0.,0.,1.));
#1094=DIRECTION('',(0.,-1.,0.));
#1095=DIRECTION('',(0.,0.,-1.));
#1096=DIRECTION('',(0.,1.,0.));
#1097=DIRECTION('center_axis',(0.,0.,1.));
#1098=DIRECTION('ref_axis',(1.,0.,0.));
#1099=DIRECTION('',(0.,1.,0.));
#1100=DIRECTION('',(1.,0.,0.));
#1101=DIRECTION('',(-1.,0.,0.));
#1102=DIRECTION('center_axis',(0.,0.,1.));
#1103=DIRECTION('ref_axis',(1.,0.,0.));
#1104=DIRECTION('',(-1.,0.,0.));
#1105=DIRECTION('',(0.,-1.,0.));
#1106=DIRECTION('',(1.,0.,0.));
#1107=DIRECTION('center_axis',(0.,1.,0.));
#1108=DIRECTION('ref_axis',(0.,0.,1.));
#1109=DIRECTION('',(0.,0.,-1.));
#1110=DIRECTION('center_axis',(1.,0.,0.));
#1111=DIRECTION('ref_axis',(0.,0.,-1.));
#1112=DIRECTION('',(0.,0.,-1.));
#1113=DIRECTION('center_axis',(0.,-1.,0.));
#1114=DIRECTION('ref_axis',(0.,0.,-1.));
#1115=DIRECTION('axis',(0.,0.,1.));
#1116=DIRECTION('refdir',(1.,0.,0.));
#1117=DIRECTION('center_axis',(0.,-1.,0.));
#1118=DIRECTION('ref_axis',(1.,0.,0.));
#1119=DIRECTION('center_axis',(0.,-1.,0.));
#1120=DIRECTION('ref_axis',(1.,0.,0.));
#1121=DIRECTION('',(0.,-1.,0.));
#1122=DIRECTION('center_axis',(0.,1.,0.));
#1123=DIRECTION('ref_axis',(1.,0.,0.));
#1124=DIRECTION('center_axis',(0.,-1.,0.));
#1125=DIRECTION('ref_axis',(1.,0.,0.));
#1126=DIRECTION('center_axis',(0.,-1.,0.));
#1127=DIRECTION('ref_axis',(1.,0.,0.));
#1128=DIRECTION('',(0.,-1.,0.));
#1129=DIRECTION('center_axis',(0.,1.,0.));
#1130=DIRECTION('ref_axis',(1.,0.,0.));
#1131=DIRECTION('center_axis',(0.,-1.,0.));
#1132=DIRECTION('ref_axis',(0.,0.,-1.));
#1133=DIRECTION('',(0.,0.,-1.));
#1134=DIRECTION('',(-1.,0.,0.));
#1135=DIRECTION('',(0.,0.,1.));
#1136=DIRECTION('',(1.,0.,0.));
#1137=DIRECTION('center_axis',(-1.,0.,0.));
#1138=DIRECTION('ref_axis',(0.,0.,1.));
#1139=DIRECTION('',(0.,-1.,0.));
#1140=DIRECTION('',(0.,0.,-1.));
#1141=DIRECTION('',(0.,1.,0.));
#1142=DIRECTION('',(0.,0.,-1.));
#1143=DIRECTION('center_axis',(1.,0.,0.));
#1144=DIRECTION('ref_axis',(0.,0.,-1.));
#1145=DIRECTION('',(0.,-1.,0.));
#1146=DIRECTION('',(0.,0.,-1.));
#1147=DIRECTION('',(0.,1.,0.));
#1148=DIRECTION('center_axis',(0.,-1.,0.));
#1149=DIRECTION('ref_axis',(0.,0.,-1.));
#1150=DIRECTION('',(1.,0.,0.));
#1151=DIRECTION('',(-1.,0.,0.));
#1152=DIRECTION('center_axis',(-1.,0.,0.));
#1153=DIRECTION('ref_axis',(0.,0.,1.));
#1154=DIRECTION('',(0.,-1.,0.));
#1155=DIRECTION('',(0.,0.,-1.));
#1156=DIRECTION('',(0.,1.,0.));
#1157=DIRECTION('center_axis',(0.,0.,1.));
#1158=DIRECTION('ref_axis',(1.,0.,0.));
#1159=DIRECTION('',(0.,1.,0.));
#1160=DIRECTION('',(1.,0.,0.));
#1161=DIRECTION('',(-1.,0.,0.));
#1162=DIRECTION('center_axis',(0.,0.,1.));
#1163=DIRECTION('ref_axis',(1.,0.,0.));
#1164=DIRECTION('',(-1.,0.,0.));
#1165=DIRECTION('',(0.,-1.,0.));
#1166=DIRECTION('',(1.,0.,0.));
#1167=DIRECTION('center_axis',(0.,1.,0.));
#1168=DIRECTION('ref_axis',(0.,0.,1.));
#1169=DIRECTION('',(0.,0.,-1.));
#1170=DIRECTION('center_axis',(1.,0.,0.));
#1171=DIRECTION('ref_axis',(0.,0.,-1.));
#1172=DIRECTION('',(0.,0.,-1.));
#1173=DIRECTION('center_axis',(0.,-1.,0.));
#1174=DIRECTION('ref_axis',(0.,0.,-1.));
#1175=DIRECTION('axis',(0.,0.,1.));
#1176=DIRECTION('refdir',(1.,0.,0.));
#1177=DIRECTION('center_axis',(0.,-1.,0.));
#1178=DIRECTION('ref_axis',(1.,0.,0.));
#1179=DIRECTION('center_axis',(0.,-1.,0.));
#1180=DIRECTION('ref_axis',(1.,0.,0.));
#1181=DIRECTION('',(0.,-1.,0.));
#1182=DIRECTION('center_axis',(0.,1.,0.));
#1183=DIRECTION('ref_axis',(1.,0.,0.));
#1184=DIRECTION('center_axis',(0.,-1.,0.));
#1185=DIRECTION('ref_axis',(1.,0.,0.));
#1186=DIRECTION('center_axis',(0.,-1.,0.));
#1187=DIRECTION('ref_axis',(1.,0.,0.));
#1188=DIRECTION('',(0.,-1.,0.));
#1189=DIRECTION('center_axis',(0.,1.,0.));
#1190=DIRECTION('ref_axis',(1.,0.,0.));
#1191=DIRECTION('center_axis',(0.,-1.,0.));
#1192=DIRECTION('ref_axis',(0.,0.,-1.));
#1193=DIRECTION('',(0.,0.,-1.));
#1194=DIRECTION('',(-1.,0.,0.));
#1195=DIRECTION('',(0.,0.,1.));
#1196=DIRECTION('',(1.,0.,0.));
#1197=DIRECTION('center_axis',(-1.,0.,0.));
#1198=DIRECTION('ref_axis',(0.,0.,1.));
#1199=DIRECTION('',(0.,-1.,0.));
#1200=DIRECTION('',(0.,0.,-1.));
#1201=DIRECTION('',(0.,1.,0.));
#1202=DIRECTION('',(0.,0.,-1.));
#1203=DIRECTION('center_axis',(1.,0.,0.));
#1204=DIRECTION('ref_axis',(0.,0.,-1.));
#1205=DIRECTION('',(0.,-1.,0.));
#1206=DIRECTION('',(0.,0.,-1.));
#1207=DIRECTION('',(0.,1.,0.));
#1208=DIRECTION('center_axis',(0.,-1.,0.));
#1209=DIRECTION('ref_axis',(0.,0.,-1.));
#1210=DIRECTION('',(1.,0.,0.));
#1211=DIRECTION('',(-1.,0.,0.));
#1212=DIRECTION('center_axis',(-1.,0.,0.));
#1213=DIRECTION('ref_axis',(0.,0.,1.));
#1214=DIRECTION('',(0.,-1.,0.));
#1215=DIRECTION('',(0.,0.,-1.));
#1216=DIRECTION('',(0.,1.,0.));
#1217=DIRECTION('center_axis',(0.,0.,1.));
#1218=DIRECTION('ref_axis',(1.,0.,0.));
#1219=DIRECTION('',(0.,1.,0.));
#1220=DIRECTION('',(1.,0.,0.));
#1221=DIRECTION('',(-1.,0.,0.));
#1222=DIRECTION('center_axis',(0.,0.,1.));
#1223=DIRECTION('ref_axis',(1.,0.,0.));
#1224=DIRECTION('',(-1.,0.,0.));
#1225=DIRECTION('',(0.,-1.,0.));
#1226=DIRECTION('',(1.,0.,0.));
#1227=DIRECTION('center_axis',(0.,1.,0.));
#1228=DIRECTION('ref_axis',(0.,0.,1.));
#1229=DIRECTION('',(0.,0.,-1.));
#1230=DIRECTION('center_axis',(1.,0.,0.));
#1231=DIRECTION('ref_axis',(0.,0.,-1.));
#1232=DIRECTION('',(0.,0.,-1.));
#1233=DIRECTION('center_axis',(0.,-1.,0.));
#1234=DIRECTION('ref_axis',(0.,0.,-1.));
#1235=DIRECTION('axis',(0.,0.,1.));
#1236=DIRECTION('refdir',(1.,0.,0.));
#1237=DIRECTION('center_axis',(0.,-1.,0.));
#1238=DIRECTION('ref_axis',(1.,0.,0.));
#1239=DIRECTION('center_axis',(0.,-1.,0.));
#1240=DIRECTION('ref_axis',(1.,0.,0.));
#1241=DIRECTION('',(0.,-1.,0.));
#1242=DIRECTION('center_axis',(0.,1.,0.));
#1243=DIRECTION('ref_axis',(1.,0.,0.));
#1244=DIRECTION('center_axis',(0.,-1.,0.));
#1245=DIRECTION('ref_axis',(1.,0.,0.));
#1246=DIRECTION('center_axis',(0.,-1.,0.));
#1247=DIRECTION('ref_axis',(1.,0.,0.));
#1248=DIRECTION('',(0.,-1.,0.));
#1249=DIRECTION('center_axis',(0.,1.,0.));
#1250=DIRECTION('ref_axis',(1.,0.,0.));
#1251=DIRECTION('center_axis',(0.,-1.,0.));
#1252=DIRECTION('ref_axis',(0.,0.,-1.));
#1253=DIRECTION('',(0.,0.,-1.));
#1254=DIRECTION('',(-1.,0.,0.));
#1255=DIRECTION('',(0.,0.,1.));
#1256=DIRECTION('',(1.,0.,0.));
#1257=DIRECTION('center_axis',(-1.,0.,0.));
#1258=DIRECTION('ref_axis',(0.,0.,1.));
#1259=DIRECTION('',(0.,-1.,0.));
#1260=DIRECTION('',(0.,0.,-1.));
#1261=DIRECTION('',(0.,1.,0.));
#1262=DIRECTION('',(0.,0.,-1.));
#1263=DIRECTION('center_axis',(1.,0.,0.));
#1264=DIRECTION('ref_axis',(0.,0.,-1.));
#1265=DIRECTION('',(0.,-1.,0.));
#1266=DIRECTION('',(0.,0.,-1.));
#1267=DIRECTION('',(0.,1.,0.));
#1268=DIRECTION('center_axis',(0.,-1.,0.));
#1269=DIRECTION('ref_axis',(0.,0.,-1.));
#1270=DIRECTION('',(1.,0.,0.));
#1271=DIRECTION('',(-1.,0.,0.));
#1272=DIRECTION('center_axis',(-1.,0.,0.));
#1273=DIRECTION('ref_axis',(0.,0.,1.));
#1274=DIRECTION('',(0.,-1.,0.));
#1275=DIRECTION('',(0.,0.,-1.));
#1276=DIRECTION('',(0.,1.,0.));
#1277=DIRECTION('center_axis',(0.,0.,1.));
#1278=DIRECTION('ref_axis',(1.,0.,0.));
#1279=DIRECTION('',(0.,1.,0.));
#1280=DIRECTION('',(1.,0.,0.));
#1281=DIRECTION('',(-1.,0.,0.));
#1282=DIRECTION('center_axis',(0.,0.,1.));
#1283=DIRECTION('ref_axis',(1.,0.,0.));
#1284=DIRECTION('',(-1.,0.,0.));
#1285=DIRECTION('',(0.,-1.,0.));
#1286=DIRECTION('',(1.,0.,0.));
#1287=DIRECTION('center_axis',(0.,1.,0.));
#1288=DIRECTION('ref_axis',(0.,0.,1.));
#1289=DIRECTION('',(0.,0.,-1.));
#1290=DIRECTION('center_axis',(1.,0.,0.));
#1291=DIRECTION('ref_axis',(0.,0.,-1.));
#1292=DIRECTION('',(0.,0.,-1.));
#1293=DIRECTION('center_axis',(0.,-1.,0.));
#1294=DIRECTION('ref_axis',(0.,0.,-1.));
#1295=DIRECTION('',(0.,0.,1.));
#1296=DIRECTION('',(1.,0.,0.));
#1297=DIRECTION('',(0.,0.,1.));
#1298=DIRECTION('',(1.,0.,0.));
#1299=DIRECTION('',(0.,0.,1.));
#1300=DIRECTION('',(1.,0.,0.));
#1301=DIRECTION('',(0.,0.,1.));
#1302=DIRECTION('',(1.,0.,0.));
#1303=CARTESIAN_POINT('',(0.,0.,0.));
#1304=CARTESIAN_POINT('',(0.,0.,0.));
#1305=CARTESIAN_POINT('Origin',(544.424995803833,-316.5,169.099998474121));
#1306=CARTESIAN_POINT('',(542.774995803833,-300.,169.099998474121));
#1307=CARTESIAN_POINT('Origin',(544.424995803833,-300.,169.099998474121));
#1308=CARTESIAN_POINT('',(542.774995803833,-333.,169.099998474121));
#1309=CARTESIAN_POINT('',(542.774995803833,-316.5,169.099998474121));
#1310=CARTESIAN_POINT('Origin',(544.424995803833,-333.,169.099998474121));
#1311=CARTESIAN_POINT('Origin',(492.424995803833,-316.5,169.099998474121));
#1312=CARTESIAN_POINT('',(490.774995803833,-300.,169.099998474121));
#1313=CARTESIAN_POINT('Origin',(492.424995803833,-300.,169.099998474121));
#1314=CARTESIAN_POINT('',(490.774995803833,-333.,169.099998474121));
#1315=CARTESIAN_POINT('',(490.774995803833,-316.5,169.099998474121));
#1316=CARTESIAN_POINT('Origin',(492.424995803833,-333.,169.099998474121));
#1317=CARTESIAN_POINT('Origin',(518.424995803833,-327.,169.099998474121));
#1318=CARTESIAN_POINT('',(496.424995803833,-327.,174.099998474121));
#1319=CARTESIAN_POINT('',(496.424995803833,-327.,164.099998474121));
#1320=CARTESIAN_POINT('',(496.424995803833,-327.,169.099998474121));
#1321=CARTESIAN_POINT('',(540.424995803833,-327.,174.099998474121));
#1322=CARTESIAN_POINT('',(518.424995803833,-327.,174.099998474121));
#1323=CARTESIAN_POINT('',(540.424995803833,-327.,164.099998474121));
#1324=CARTESIAN_POINT('',(540.424995803833,-327.,169.099998474121));
#1325=CARTESIAN_POINT('',(518.424995803833,-327.,164.099998474121));
#1326=CARTESIAN_POINT('Origin',(548.424995803833,-316.5,169.099998474121));
#1327=CARTESIAN_POINT('',(548.424995803833,-300.,164.099998474121));
#1328=CARTESIAN_POINT('',(548.424995803833,-333.,164.099998474121));
#1329=CARTESIAN_POINT('',(548.424995803833,-316.5,164.099998474121));
#1330=CARTESIAN_POINT('',(548.424995803833,-300.,174.099998474121));
#1331=CARTESIAN_POINT('',(548.424995803833,-300.,169.099998474121));
#1332=CARTESIAN_POINT('',(548.424995803833,-333.,174.099998474121));
#1333=CARTESIAN_POINT('',(548.424995803833,-316.5,174.099998474121));
#1334=CARTESIAN_POINT('',(548.424995803833,-333.,169.099998474121));
#1335=CARTESIAN_POINT('Origin',(540.424995803833,-316.5,169.099998474121));
#1336=CARTESIAN_POINT('',(540.424995803833,-300.,174.099998474121));
#1337=CARTESIAN_POINT('',(540.424995803833,-316.5,174.099998474121));
#1338=CARTESIAN_POINT('',(540.424995803833,-300.,164.099998474121));
#1339=CARTESIAN_POINT('',(540.424995803833,-300.,169.099998474121));
#1340=CARTESIAN_POINT('',(540.424995803833,-316.5,164.099998474121));
#1341=CARTESIAN_POINT('Origin',(544.424995803833,-300.,169.099998474121));
#1342=CARTESIAN_POINT('',(544.424995803833,-300.,164.099998474121));
#1343=CARTESIAN_POINT('',(544.424995803833,-300.,174.099998474121));
#1344=CARTESIAN_POINT('Origin',(496.424995803833,-316.5,169.099998474121));
#1345=CARTESIAN_POINT('',(496.424995803833,-300.,164.099998474121));
#1346=CARTESIAN_POINT('',(496.424995803833,-316.5,164.099998474121));
#1347=CARTESIAN_POINT('',(496.424995803833,-300.,174.099998474121));
#1348=CARTESIAN_POINT('',(496.424995803833,-300.,169.099998474121));
#1349=CARTESIAN_POINT('',(496.424995803833,-316.5,174.099998474121));
#1350=CARTESIAN_POINT('Origin',(492.424995803833,-316.5,164.099998474121));
#1351=CARTESIAN_POINT('',(488.424995803833,-333.,164.099998474121));
#1352=CARTESIAN_POINT('',(488.424995803833,-300.,164.099998474121));
#1353=CARTESIAN_POINT('',(488.424995803833,-316.5,164.099998474121));
#1354=CARTESIAN_POINT('',(492.424995803833,-300.,164.099998474121));
#1355=CARTESIAN_POINT('',(518.424995803833,-333.,164.099998474121));
#1356=CARTESIAN_POINT('Origin',(492.424995803833,-316.5,174.099998474121));
#1357=CARTESIAN_POINT('',(488.424995803833,-300.,174.099998474121));
#1358=CARTESIAN_POINT('',(492.424995803833,-300.,174.099998474121));
#1359=CARTESIAN_POINT('',(488.424995803833,-333.,174.099998474121));
#1360=CARTESIAN_POINT('',(488.424995803833,-316.5,174.099998474121));
#1361=CARTESIAN_POINT('',(544.424995803833,-333.,174.099998474121));
#1362=CARTESIAN_POINT('Origin',(492.424995803833,-333.,169.099998474121));
#1363=CARTESIAN_POINT('',(488.424995803833,-333.,169.099998474121));
#1364=CARTESIAN_POINT('Origin',(488.424995803833,-316.5,169.099998474121));
#1365=CARTESIAN_POINT('',(488.424995803833,-300.,169.099998474121));
#1366=CARTESIAN_POINT('Origin',(492.424995803833,-300.,169.099998474121));
#1367=CARTESIAN_POINT('',(0.,0.,0.));
#1368=CARTESIAN_POINT('Origin',(1000.42499580383,-316.5,169.099998474121));
#1369=CARTESIAN_POINT('',(998.774995803833,-300.,169.099998474121));
#1370=CARTESIAN_POINT('Origin',(1000.42499580383,-300.,169.099998474121));
#1371=CARTESIAN_POINT('',(998.774995803833,-333.,169.099998474121));
#1372=CARTESIAN_POINT('',(998.774995803833,-316.5,169.099998474121));
#1373=CARTESIAN_POINT('Origin',(1000.42499580383,-333.,169.099998474121));
#1374=CARTESIAN_POINT('Origin',(948.424995803833,-316.5,169.099998474121));
#1375=CARTESIAN_POINT('',(946.774995803833,-300.,169.099998474121));
#1376=CARTESIAN_POINT('Origin',(948.424995803833,-300.,169.099998474121));
#1377=CARTESIAN_POINT('',(946.774995803833,-333.,169.099998474121));
#1378=CARTESIAN_POINT('',(946.774995803833,-316.5,169.099998474121));
#1379=CARTESIAN_POINT('Origin',(948.424995803833,-333.,169.099998474121));
#1380=CARTESIAN_POINT('Origin',(974.424995803833,-327.,169.099998474121));
#1381=CARTESIAN_POINT('',(952.424995803833,-327.,174.099998474121));
#1382=CARTESIAN_POINT('',(952.424995803833,-327.,164.099998474121));
#1383=CARTESIAN_POINT('',(952.424995803833,-327.,169.099998474121));
#1384=CARTESIAN_POINT('',(996.424995803833,-327.,174.099998474121));
#1385=CARTESIAN_POINT('',(974.424995803833,-327.,174.099998474121));
#1386=CARTESIAN_POINT('',(996.424995803833,-327.,164.099998474121));
#1387=CARTESIAN_POINT('',(996.424995803833,-327.,169.099998474121));
#1388=CARTESIAN_POINT('',(974.424995803833,-327.,164.099998474121));
#1389=CARTESIAN_POINT('Origin',(1004.42499580383,-316.5,169.099998474121));
#1390=CARTESIAN_POINT('',(1004.42499580383,-300.,164.099998474121));
#1391=CARTESIAN_POINT('',(1004.42499580383,-333.,164.099998474121));
#1392=CARTESIAN_POINT('',(1004.42499580383,-316.5,164.099998474121));
#1393=CARTESIAN_POINT('',(1004.42499580383,-300.,174.099998474121));
#1394=CARTESIAN_POINT('',(1004.42499580383,-300.,169.099998474121));
#1395=CARTESIAN_POINT('',(1004.42499580383,-333.,174.099998474121));
#1396=CARTESIAN_POINT('',(1004.42499580383,-316.5,174.099998474121));
#1397=CARTESIAN_POINT('',(1004.42499580383,-333.,169.099998474121));
#1398=CARTESIAN_POINT('Origin',(996.424995803833,-316.5,169.099998474121));
#1399=CARTESIAN_POINT('',(996.424995803833,-300.,174.099998474121));
#1400=CARTESIAN_POINT('',(996.424995803833,-316.5,174.099998474121));
#1401=CARTESIAN_POINT('',(996.424995803833,-300.,164.099998474121));
#1402=CARTESIAN_POINT('',(996.424995803833,-300.,169.099998474121));
#1403=CARTESIAN_POINT('',(996.424995803833,-316.5,164.099998474121));
#1404=CARTESIAN_POINT('Origin',(1000.42499580383,-300.,169.099998474121));
#1405=CARTESIAN_POINT('',(1000.42499580383,-300.,164.099998474121));
#1406=CARTESIAN_POINT('',(1000.42499580383,-300.,174.099998474121));
#1407=CARTESIAN_POINT('Origin',(952.424995803833,-316.5,169.099998474121));
#1408=CARTESIAN_POINT('',(952.424995803833,-300.,164.099998474121));
#1409=CARTESIAN_POINT('',(952.424995803833,-316.5,164.099998474121));
#1410=CARTESIAN_POINT('',(952.424995803833,-300.,174.099998474121));
#1411=CARTESIAN_POINT('',(952.424995803833,-300.,169.099998474121));
#1412=CARTESIAN_POINT('',(952.424995803833,-316.5,174.099998474121));
#1413=CARTESIAN_POINT('Origin',(948.424995803833,-316.5,164.099998474121));
#1414=CARTESIAN_POINT('',(944.424995803833,-333.,164.099998474121));
#1415=CARTESIAN_POINT('',(944.424995803833,-300.,164.099998474121));
#1416=CARTESIAN_POINT('',(944.424995803833,-316.5,164.099998474121));
#1417=CARTESIAN_POINT('',(948.424995803833,-300.,164.099998474121));
#1418=CARTESIAN_POINT('',(974.424995803833,-333.,164.099998474121));
#1419=CARTESIAN_POINT('Origin',(948.424995803833,-316.5,174.099998474121));
#1420=CARTESIAN_POINT('',(944.424995803833,-300.,174.099998474121));
#1421=CARTESIAN_POINT('',(948.424995803833,-300.,174.099998474121));
#1422=CARTESIAN_POINT('',(944.424995803833,-333.,174.099998474121));
#1423=CARTESIAN_POINT('',(944.424995803833,-316.5,174.099998474121));
#1424=CARTESIAN_POINT('',(1000.42499580383,-333.,174.099998474121));
#1425=CARTESIAN_POINT('Origin',(948.424995803833,-333.,169.099998474121));
#1426=CARTESIAN_POINT('',(944.424995803833,-333.,169.099998474121));
#1427=CARTESIAN_POINT('Origin',(944.424995803833,-316.5,169.099998474121));
#1428=CARTESIAN_POINT('',(944.424995803833,-300.,169.099998474121));
#1429=CARTESIAN_POINT('Origin',(948.424995803833,-300.,169.099998474121));
#1430=CARTESIAN_POINT('',(0.,0.,0.));
#1431=CARTESIAN_POINT('Origin',(-30.9999998807907,-308.500007629395,79.9999976158142));
#1432=CARTESIAN_POINT('',(-32.6499998807907,-292.000007629395,79.9999976158142));
#1433=CARTESIAN_POINT('Origin',(-30.9999998807907,-292.000007629395,79.9999976158142));
#1434=CARTESIAN_POINT('',(-32.6499998807907,-325.000007629395,79.9999976158142));
#1435=CARTESIAN_POINT('',(-32.6499998807907,-308.500007629395,79.9999976158142));
#1436=CARTESIAN_POINT('Origin',(-30.9999998807907,-325.000007629395,79.9999976158142));
#1437=CARTESIAN_POINT('Origin',(-82.9999998807907,-308.500007629395,79.9999976158142));
#1438=CARTESIAN_POINT('',(-84.6499998807907,-292.000007629395,79.9999976158142));
#1439=CARTESIAN_POINT('Origin',(-82.9999998807907,-292.000007629395,79.9999976158142));
#1440=CARTESIAN_POINT('',(-84.6499998807907,-325.000007629395,79.9999976158142));
#1441=CARTESIAN_POINT('',(-84.6499998807907,-308.500007629395,79.9999976158142));
#1442=CARTESIAN_POINT('Origin',(-82.9999998807907,-325.000007629395,79.9999976158142));
#1443=CARTESIAN_POINT('Origin',(-56.9999998807907,-319.000007629395,79.9999976158142));
#1444=CARTESIAN_POINT('',(-78.9999998807907,-319.000007629395,84.9999976158142));
#1445=CARTESIAN_POINT('',(-78.9999998807907,-319.000007629395,74.9999976158142));
#1446=CARTESIAN_POINT('',(-78.9999998807907,-319.000007629395,79.9999976158142));
#1447=CARTESIAN_POINT('',(-34.9999998807907,-319.000007629395,84.9999976158142));
#1448=CARTESIAN_POINT('',(-56.9999998807907,-319.000007629395,84.9999976158142));
#1449=CARTESIAN_POINT('',(-34.9999998807907,-319.000007629395,74.9999976158142));
#1450=CARTESIAN_POINT('',(-34.9999998807907,-319.000007629395,79.9999976158142));
#1451=CARTESIAN_POINT('',(-56.9999998807907,-319.000007629395,74.9999976158142));
#1452=CARTESIAN_POINT('Origin',(-26.9999998807907,-308.500007629395,79.9999976158142));
#1453=CARTESIAN_POINT('',(-26.9999998807907,-292.000007629395,74.9999976158142));
#1454=CARTESIAN_POINT('',(-26.9999998807907,-325.000007629395,74.9999976158142));
#1455=CARTESIAN_POINT('',(-26.9999998807907,-308.500007629395,74.9999976158142));
#1456=CARTESIAN_POINT('',(-26.9999998807907,-292.000007629395,84.9999976158142));
#1457=CARTESIAN_POINT('',(-26.9999998807907,-292.000007629395,79.9999976158142));
#1458=CARTESIAN_POINT('',(-26.9999998807907,-325.000007629395,84.9999976158142));
#1459=CARTESIAN_POINT('',(-26.9999998807907,-308.500007629395,84.9999976158142));
#1460=CARTESIAN_POINT('',(-26.9999998807907,-325.000007629395,79.9999976158142));
#1461=CARTESIAN_POINT('Origin',(-34.9999998807907,-308.500007629395,79.9999976158142));
#1462=CARTESIAN_POINT('',(-34.9999998807907,-292.000007629395,84.9999976158142));
#1463=CARTESIAN_POINT('',(-34.9999998807907,-308.500007629395,84.9999976158142));
#1464=CARTESIAN_POINT('',(-34.9999998807907,-292.000007629395,74.9999976158142));
#1465=CARTESIAN_POINT('',(-34.9999998807907,-292.000007629395,79.9999976158142));
#1466=CARTESIAN_POINT('',(-34.9999998807907,-308.500007629395,74.9999976158142));
#1467=CARTESIAN_POINT('Origin',(-30.9999998807907,-292.000007629395,79.9999976158142));
#1468=CARTESIAN_POINT('',(-30.9999998807907,-292.000007629395,74.9999976158142));
#1469=CARTESIAN_POINT('',(-30.9999998807907,-292.000007629395,84.9999976158142));
#1470=CARTESIAN_POINT('Origin',(-78.9999998807907,-308.500007629395,79.9999976158142));
#1471=CARTESIAN_POINT('',(-78.9999998807907,-292.000007629395,74.9999976158142));
#1472=CARTESIAN_POINT('',(-78.9999998807907,-308.500007629395,74.9999976158142));
#1473=CARTESIAN_POINT('',(-78.9999998807907,-292.000007629395,84.9999976158142));
#1474=CARTESIAN_POINT('',(-78.9999998807907,-292.000007629395,79.9999976158142));
#1475=CARTESIAN_POINT('',(-78.9999998807907,-308.500007629395,84.9999976158142));
#1476=CARTESIAN_POINT('Origin',(-82.9999998807907,-308.500007629395,74.9999976158142));
#1477=CARTESIAN_POINT('',(-86.9999998807907,-325.000007629395,74.9999976158142));
#1478=CARTESIAN_POINT('',(-86.9999998807907,-292.000007629395,74.9999976158142));
#1479=CARTESIAN_POINT('',(-86.9999998807907,-308.500007629395,74.9999976158142));
#1480=CARTESIAN_POINT('',(-82.9999998807907,-292.000007629395,74.9999976158142));
#1481=CARTESIAN_POINT('',(-56.9999998807907,-325.000007629395,74.9999976158142));
#1482=CARTESIAN_POINT('Origin',(-82.9999998807907,-308.500007629395,84.9999976158142));
#1483=CARTESIAN_POINT('',(-86.9999998807907,-292.000007629395,84.9999976158142));
#1484=CARTESIAN_POINT('',(-82.9999998807907,-292.000007629395,84.9999976158142));
#1485=CARTESIAN_POINT('',(-86.9999998807907,-325.000007629395,84.9999976158142));
#1486=CARTESIAN_POINT('',(-86.9999998807907,-308.500007629395,84.9999976158142));
#1487=CARTESIAN_POINT('',(-30.9999998807907,-325.000007629395,84.9999976158142));
#1488=CARTESIAN_POINT('Origin',(-82.9999998807907,-325.000007629395,79.9999976158142));
#1489=CARTESIAN_POINT('',(-86.9999998807907,-325.000007629395,79.9999976158142));
#1490=CARTESIAN_POINT('Origin',(-86.9999998807907,-308.500007629395,79.9999976158142));
#1491=CARTESIAN_POINT('',(-86.9999998807907,-292.000007629395,79.9999976158142));
#1492=CARTESIAN_POINT('Origin',(-82.9999998807907,-292.000007629395,79.9999976158142));
#1493=CARTESIAN_POINT('',(0.,0.,0.));
#1494=CARTESIAN_POINT('Origin',(306.,-316.5,167.5));
#1495=CARTESIAN_POINT('',(304.35,-300.,167.5));
#1496=CARTESIAN_POINT('Origin',(306.,-300.,167.5));
#1497=CARTESIAN_POINT('',(304.35,-333.,167.5));
#1498=CARTESIAN_POINT('',(304.35,-316.5,167.5));
#1499=CARTESIAN_POINT('Origin',(306.,-333.,167.5));
#1500=CARTESIAN_POINT('Origin',(254.,-316.5,167.5));
#1501=CARTESIAN_POINT('',(252.35,-300.,167.5));
#1502=CARTESIAN_POINT('Origin',(254.,-300.,167.5));
#1503=CARTESIAN_POINT('',(252.35,-333.,167.5));
#1504=CARTESIAN_POINT('',(252.35,-316.5,167.5));
#1505=CARTESIAN_POINT('Origin',(254.,-333.,167.5));
#1506=CARTESIAN_POINT('Origin',(280.,-327.,167.5));
#1507=CARTESIAN_POINT('',(258.,-327.,172.5));
#1508=CARTESIAN_POINT('',(258.,-327.,162.5));
#1509=CARTESIAN_POINT('',(258.,-327.,167.5));
#1510=CARTESIAN_POINT('',(302.,-327.,172.5));
#1511=CARTESIAN_POINT('',(280.,-327.,172.5));
#1512=CARTESIAN_POINT('',(302.,-327.,162.5));
#1513=CARTESIAN_POINT('',(302.,-327.,167.5));
#1514=CARTESIAN_POINT('',(280.,-327.,162.5));
#1515=CARTESIAN_POINT('Origin',(310.,-316.5,167.5));
#1516=CARTESIAN_POINT('',(310.,-300.,162.5));
#1517=CARTESIAN_POINT('',(310.,-333.,162.5));
#1518=CARTESIAN_POINT('',(310.,-316.5,162.5));
#1519=CARTESIAN_POINT('',(310.,-300.,172.5));
#1520=CARTESIAN_POINT('',(310.,-300.,167.5));
#1521=CARTESIAN_POINT('',(310.,-333.,172.5));
#1522=CARTESIAN_POINT('',(310.,-316.5,172.5));
#1523=CARTESIAN_POINT('',(310.,-333.,167.5));
#1524=CARTESIAN_POINT('Origin',(302.,-316.5,167.5));
#1525=CARTESIAN_POINT('',(302.,-300.,172.5));
#1526=CARTESIAN_POINT('',(302.,-316.5,172.5));
#1527=CARTESIAN_POINT('',(302.,-300.,162.5));
#1528=CARTESIAN_POINT('',(302.,-300.,167.5));
#1529=CARTESIAN_POINT('',(302.,-316.5,162.5));
#1530=CARTESIAN_POINT('Origin',(306.,-300.,167.5));
#1531=CARTESIAN_POINT('',(306.,-300.,162.5));
#1532=CARTESIAN_POINT('',(306.,-300.,172.5));
#1533=CARTESIAN_POINT('Origin',(258.,-316.5,167.5));
#1534=CARTESIAN_POINT('',(258.,-300.,162.5));
#1535=CARTESIAN_POINT('',(258.,-316.5,162.5));
#1536=CARTESIAN_POINT('',(258.,-300.,172.5));
#1537=CARTESIAN_POINT('',(258.,-300.,167.5));
#1538=CARTESIAN_POINT('',(258.,-316.5,172.5));
#1539=CARTESIAN_POINT('Origin',(254.,-316.5,162.5));
#1540=CARTESIAN_POINT('',(250.,-333.,162.5));
#1541=CARTESIAN_POINT('',(250.,-300.,162.5));
#1542=CARTESIAN_POINT('',(250.,-316.5,162.5));
#1543=CARTESIAN_POINT('',(254.,-300.,162.5));
#1544=CARTESIAN_POINT('',(280.,-333.,162.5));
#1545=CARTESIAN_POINT('Origin',(254.,-316.5,172.5));
#1546=CARTESIAN_POINT('',(250.,-300.,172.5));
#1547=CARTESIAN_POINT('',(254.,-300.,172.5));
#1548=CARTESIAN_POINT('',(250.,-333.,172.5));
#1549=CARTESIAN_POINT('',(250.,-316.5,172.5));
#1550=CARTESIAN_POINT('',(306.,-333.,172.5));
#1551=CARTESIAN_POINT('Origin',(254.,-333.,167.5));
#1552=CARTESIAN_POINT('',(250.,-333.,167.5));
#1553=CARTESIAN_POINT('Origin',(250.,-316.5,167.5));
#1554=CARTESIAN_POINT('',(250.,-300.,167.5));
#1555=CARTESIAN_POINT('Origin',(254.,-300.,167.5));
#1556=CARTESIAN_POINT('',(0.,0.,0.));
#1557=CARTESIAN_POINT('',(0.,0.,0.));
#1558=CARTESIAN_POINT('',(0.,0.,0.));
#1559=CARTESIAN_POINT('',(0.,0.,0.));
#1560=UNCERTAINTY_MEASURE_WITH_UNIT(LENGTH_MEASURE(0.01),#1572,
'DISTANCE_ACCURACY_VALUE',
'Maximum model space distance between geometric entities at asserted c
onnectivities');
#1561=UNCERTAINTY_MEASURE_WITH_UNIT(LENGTH_MEASURE(0.01),#1572,
'DISTANCE_ACCURACY_VALUE',
'Maximum model space distance between geometric entities at asserted c
onnectivities');
#1562=UNCERTAINTY_MEASURE_WITH_UNIT(LENGTH_MEASURE(0.01),#1572,
'DISTANCE_ACCURACY_VALUE',
'Maximum model space distance between geometric entities at asserted c
onnectivities');
#1563=UNCERTAINTY_MEASURE_WITH_UNIT(LENGTH_MEASURE(0.01),#1572,
'DISTANCE_ACCURACY_VALUE',
'Maximum model space distance between geometric entities at asserted c
onnectivities');
#1564=UNCERTAINTY_MEASURE_WITH_UNIT(LENGTH_MEASURE(0.01),#1572,
'DISTANCE_ACCURACY_VALUE',
'Maximum model space distance between geometric entities at asserted c
onnectivities');
#1565=UNCERTAINTY_MEASURE_WITH_UNIT(LENGTH_MEASURE(0.01),#1572,
'DISTANCE_ACCURACY_VALUE',
'Maximum model space distance between geometric entities at asserted c
onnectivities');
#1566=(
GEOMETRIC_REPRESENTATION_CONTEXT(3)
GLOBAL_UNCERTAINTY_ASSIGNED_CONTEXT((#1560))
GLOBAL_UNIT_ASSIGNED_CONTEXT((#1572,#1574,#1575))
REPRESENTATION_CONTEXT('','3D')
);
#1567=(
GEOMETRIC_REPRESENTATION_CONTEXT(3)
GLOBAL_UNCERTAINTY_ASSIGNED_CONTEXT((#1561))
GLOBAL_UNIT_ASSIGNED_CONTEXT((#1572,#1574,#1575))
REPRESENTATION_CONTEXT('','3D')
);
#1568=(
GEOMETRIC_REPRESENTATION_CONTEXT(3)
GLOBAL_UNCERTAINTY_ASSIGNED_CONTEXT((#1562))
GLOBAL_UNIT_ASSIGNED_CONTEXT((#1572,#1574,#1575))
REPRESENTATION_CONTEXT('','3D')
);
#1569=(
GEOMETRIC_REPRESENTATION_CONTEXT(3)
GLOBAL_UNCERTAINTY_ASSIGNED_CONTEXT((#1563))
GLOBAL_UNIT_ASSIGNED_CONTEXT((#1572,#1574,#1575))
REPRESENTATION_CONTEXT('','3D')
);
#1570=(
GEOMETRIC_REPRESENTATION_CONTEXT(3)
GLOBAL_UNCERTAINTY_ASSIGNED_CONTEXT((#1564))
GLOBAL_UNIT_ASSIGNED_CONTEXT((#1572,#1574,#1575))
REPRESENTATION_CONTEXT('','3D')
);
#1571=(
GEOMETRIC_REPRESENTATION_CONTEXT(3)
GLOBAL_UNCERTAINTY_ASSIGNED_CONTEXT((#1565))
GLOBAL_UNIT_ASSIGNED_CONTEXT((#1572,#1574,#1575))
REPRESENTATION_CONTEXT('','3D')
);
#1572=(
LENGTH_UNIT()
NAMED_UNIT(*)
SI_UNIT(.MILLI.,.METRE.)
);
#1573=(
LENGTH_UNIT()
NAMED_UNIT(*)
SI_UNIT($,.METRE.)
);
#1574=(
NAMED_UNIT(*)
PLANE_ANGLE_UNIT()
SI_UNIT($,.RADIAN.)
);
#1575=(
NAMED_UNIT(*)
SI_UNIT($,.STERADIAN.)
SOLID_ANGLE_UNIT()
);
#1576=SHAPE_DEFINITION_REPRESENTATION(#1581,#1590);
#1577=SHAPE_DEFINITION_REPRESENTATION(#1582,#1591);
#1578=SHAPE_DEFINITION_REPRESENTATION(#1583,#1592);
#1579=SHAPE_DEFINITION_REPRESENTATION(#1584,#1593);
#1580=SHAPE_DEFINITION_REPRESENTATION(#1585,#1594);
#1581=PRODUCT_DEFINITION_SHAPE('',$,#1596);
#1582=PRODUCT_DEFINITION_SHAPE('',$,#1597);
#1583=PRODUCT_DEFINITION_SHAPE('',$,#1598);
#1584=PRODUCT_DEFINITION_SHAPE('',$,#1599);
#1585=PRODUCT_DEFINITION_SHAPE('',$,#1600);
#1586=PRODUCT_DEFINITION_SHAPE($,$,#23);
#1587=PRODUCT_DEFINITION_SHAPE($,$,#24);
#1588=PRODUCT_DEFINITION_SHAPE($,$,#25);
#1589=PRODUCT_DEFINITION_SHAPE($,$,#26);
#1590=SHAPE_REPRESENTATION('',(#980,#1049,#1050,#1051,#1052),#1566);
#1591=SHAPE_REPRESENTATION('',(#981),#1567);
#1592=SHAPE_REPRESENTATION('',(#998),#1568);
#1593=SHAPE_REPRESENTATION('',(#1015),#1569);
#1594=SHAPE_REPRESENTATION('',(#1032),#1570);
#1595=PRODUCT_DEFINITION_CONTEXT('part definition',#1612,'design');
#1596=PRODUCT_DEFINITION('(Unsaved)','(Unsaved)',#1601,#1595);
#1597=PRODUCT_DEFINITION('UNLOAD_DRAWER_OPEN_mm - robot pull CONCEPT',
'UNLOAD_DRAWER_OPEN_mm - robot pull CONCEPT',#1602,#1595);
#1598=PRODUCT_DEFINITION('LOAD_DRAWER_OPEN_mm - robot pull CONCEPT',
'LOAD_DRAWER_OPEN_mm - robot pull CONCEPT',#1603,#1595);
#1599=PRODUCT_DEFINITION('EST_DRAWER_SLIDER - robot pull CONCEPT',
'EST_DRAWER_SLIDER - robot pull CONCEPT',#1604,#1595);
#1600=PRODUCT_DEFINITION('TS5025_DRAWER_OPEN_mm - robot pull CONCEPT',
'TS5025_DRAWER_OPEN_mm - robot pull CONCEPT',#1605,#1595);
#1601=PRODUCT_DEFINITION_FORMATION('',$,#1614);
#1602=PRODUCT_DEFINITION_FORMATION('',$,#1615);
#1603=PRODUCT_DEFINITION_FORMATION('',$,#1616);
#1604=PRODUCT_DEFINITION_FORMATION('',$,#1617);
#1605=PRODUCT_DEFINITION_FORMATION('',$,#1618);
#1606=PRODUCT_RELATED_PRODUCT_CATEGORY('(Unsaved)','(Unsaved)',(#1614));
#1607=PRODUCT_RELATED_PRODUCT_CATEGORY(
'UNLOAD_DRAWER_OPEN_mm - robot pull CONCEPT',
'UNLOAD_DRAWER_OPEN_mm - robot pull CONCEPT',(#1615));
#1608=PRODUCT_RELATED_PRODUCT_CATEGORY(
'LOAD_DRAWER_OPEN_mm - robot pull CONCEPT',
'LOAD_DRAWER_OPEN_mm - robot pull CONCEPT',(#1616));
#1609=PRODUCT_RELATED_PRODUCT_CATEGORY(
'EST_DRAWER_SLIDER - robot pull CONCEPT',
'EST_DRAWER_SLIDER - robot pull CONCEPT',(#1617));
#1610=PRODUCT_RELATED_PRODUCT_CATEGORY(
'TS5025_DRAWER_OPEN_mm - robot pull CONCEPT',
'TS5025_DRAWER_OPEN_mm - robot pull CONCEPT',(#1618));
#1611=APPLICATION_PROTOCOL_DEFINITION('international standard',
'automotive_design',2009,#1612);
#1612=APPLICATION_CONTEXT(
'Core Data for Automotive Mechanical Design Process');
#1613=PRODUCT_CONTEXT('part definition',#1612,'mechanical');
#1614=PRODUCT('(Unsaved)','(Unsaved)',$,(#1613));
#1615=PRODUCT('UNLOAD_DRAWER_OPEN_mm - robot pull CONCEPT',
'UNLOAD_DRAWER_OPEN_mm - robot pull CONCEPT',$,(#1613));
#1616=PRODUCT('LOAD_DRAWER_OPEN_mm - robot pull CONCEPT',
'LOAD_DRAWER_OPEN_mm - robot pull CONCEPT',$,(#1613));
#1617=PRODUCT('EST_DRAWER_SLIDER - robot pull CONCEPT',
'EST_DRAWER_SLIDER - robot pull CONCEPT',$,(#1613));
#1618=PRODUCT('TS5025_DRAWER_OPEN_mm - robot pull CONCEPT',
'TS5025_DRAWER_OPEN_mm - robot pull CONCEPT',$,(#1613));
#1619=PRESENTATION_STYLE_ASSIGNMENT((#1620));
#1620=SURFACE_STYLE_USAGE(.BOTH.,#1621);
#1621=SURFACE_SIDE_STYLE('',(#1622));
#1622=SURFACE_STYLE_FILL_AREA(#1623);
#1623=FILL_AREA_STYLE('Steel - Satin',(#1624));
#1624=FILL_AREA_STYLE_COLOUR('Steel - Satin',#1625);
#1625=COLOUR_RGB('Steel - Satin',0.627450980392157,0.627450980392157,0.627450980392157);
ENDSEC;
END-ISO-10303-21;
