v -0.0117999995 -0.0117999995 0.005
v -0.0117999995 0.0164999998 0.005
v 0.0117999995 0.0164999998 0.005
v 0.0117999995 -0.0117999995 0.005
v 0.0117999995 -0.0117999995 0.005
v 0.0117999995 0.0164999998 0.005
v 0.0117999995 0.0164999998 0.0129999995
v 0.0117999995 -0.0117999995 0.0129999995
v -0.0117999995 0.0164999998 0.0129999995
v -0.0117999995 -0.0117999995 0.0129999995
v 0.0117999995 -0.0117999995 0.0129999995
v 0.0117999995 0.0164999998 0.0129999995
v -0.0117999995 0.0164999998 0.005
v -0.0117999995 -0.0117999995 0.005
v -0.0117999995 -0.0117999995 0.0129999995
v -0.0117999995 0.0164999998 0.0129999995
v 0.0117999995 0.0164999998 0.005
v -0.0117999995 0.0164999998 0.005
v -0.0117999995 0.0164999998 0.0129999995
v 0.0117999995 0.0164999998 0.0129999995
v -0.0117999995 -0.0117999995 0.005
v 0.0117999995 -0.0117999995 0.005
v 0.0117999995 -0.0117999995 0.0129999995
v -0.0117999995 -0.0117999995 0.0129999995
f 2 3 1
f 1 3 4
f 5 6 8
f 8 6 7
f 10 11 9
f 9 11 12
f 13 14 16
f 16 14 15
f 17 18 20
f 20 18 19
f 21 22 24
f 24 22 23
