v -0.005 0.00200000003 0.0130499995
v -0.00490392625 0.00145374715 0.0130499995
v -0.00461939752 0.000928486362 0.0130499995
v -0.00415734798 0.000444403365 0.0130499995
v -0.00353553385 2.01010122e-05 0.0130499995
v -0.00277785122 -0.000328114927 0.0130499995
v -0.00191341713 -0.000586862676 0.0130499995
v -0.000975451618 -0.000746198818 0.0130499995
v 3.06161713e-19 -0.000799999982 0.0130499995
v 0.000975451618 -0.000746198818 0.0130499995
v 0.00191341713 -0.000586862676 0.0130499995
v 0.00277785122 -0.000328114927 0.0130499995
v 0.00353553385 2.01010122e-05 0.0130499995
v 0.00415734798 0.000444403365 0.0130499995
v 0.00461939752 0.000928486362 0.0130499995
v 0.00490392625 0.00145374715 0.0130499995
v 0.005 0.00200000003 0.0130499995
v 0.00490392625 0.00254625291 0.0130499995
v 0.00461939752 0.00307151347 0.0130499995
v 0.00415734798 0.00355559677 0.0130499995
v 0.00353553385 0.00397989899 0.0130499995
v 0.00277785122 0.00432811499 0.0130499995
v 0.00191341713 0.00458686262 0.0130499995
v 0.000975451618 0.00474619865 0.0130499995
v 3.06161713e-19 0.00479999989 0.0130499995
v -0.000975451618 0.00474619865 0.0130499995
v -0.00191341713 0.00458686262 0.0130499995
v -0.00277785122 0.00432811499 0.0130499995
v -0.00353553385 0.00397989899 0.0130499995
v -0.00415734798 0.00355559677 0.0130499995
v -0.00461939752 0.00307151347 0.0130499995
v -0.00490392625 0.00254625291 0.0130499995
v -0.005 0.00200000003 0.0129999995
v -0.00490392625 0.00254625291 0.0129999995
v -0.00461939752 0.00307151347 0.0129999995
v -0.00415734798 0.00355559677 0.0129999995
v -0.00353553385 0.00397989899 0.0129999995
v -0.00277785122 0.00432811499 0.0129999995
v -0.00191341713 0.00458686262 0.0129999995
v -0.000975451618 0.00474619865 0.0129999995
v 3.06161713e-19 0.00479999989 0.0129999995
v 0.000975451618 0.00474619865 0.0129999995
v 0.00191341713 0.00458686262 0.0129999995
v 0.00277785122 0.00432811499 0.0129999995
v 0.00353553385 0.00397989899 0.0129999995
v 0.00415734798 0.00355559677 0.0129999995
v 0.00461939752 0.00307151347 0.0129999995
v 0.00490392625 0.00254625291 0.0129999995
v 0.005 0.00200000003 0.0129999995
v 0.00490392625 0.00145374715 0.0129999995
v 0.00461939752 0.000928486362 0.0129999995
v 0.00415734798 0.000444403365 0.0129999995
v 0.00353553385 2.01010122e-05 0.0129999995
v 0.00277785122 -0.000328114927 0.0129999995
v 0.00191341713 -0.000586862676 0.0129999995
v 0.000975451618 -0.000746198818 0.0129999995
v 3.06161713e-19 -0.000799999982 0.0129999995
v -0.000975451618 -0.000746198818 0.0129999995
v -0.00191341713 -0.000586862676 0.0129999995
v -0.00277785122 -0.000328114927 0.0129999995
v -0.00353553385 2.01010122e-05 0.0129999995
v -0.00415734798 0.000444403365 0.0129999995
v -0.00461939752 0.000928486362 0.0129999995
v -0.00490392625 0.00145374715 0.0129999995
v -0.005 0.00200000003 0.0130499995
v -0.00490392625 0.00254625291 0.0130499995
v -0.00461939752 0.00307151347 0.0130499995
v -0.00415734798 0.00355559677 0.0130499995
v -0.00353553385 0.00397989899 0.0130499995
v -0.00277785122 0.00432811499 0.0130499995
v -0.00191341713 0.00458686262 0.0130499995
v -0.000975451618 0.00474619865 0.0130499995
v 3.06161713e-19 0.00479999989 0.0130499995
v 0.000975451618 0.00474619865 0.0130499995
v 0.00191341713 0.00458686262 0.0130499995
v 0.00277785122 0.00432811499 0.0130499995
v 0.00353553385 0.00397989899 0.0130499995
v 0.00415734798 0.00355559677 0.0130499995
v 0.00461939752 0.00307151347 0.0130499995
v 0.00490392625 0.00254625291 0.0130499995
v 0.005 0.00200000003 0.0130499995
v 0.00490392625 0.00145374715 0.0130499995
v 0.00461939752 0.000928486362 0.0130499995
v 0.00415734798 0.000444403365 0.0130499995
v 0.00353553385 2.01010122e-05 0.0130499995
v 0.00277785122 -0.000328114927 0.0130499995
v 0.00191341713 -0.000586862676 0.0130499995
v 0.000975451618 -0.000746198818 0.0130499995
v 3.06161713e-19 -0.000799999982 0.0130499995
v -0.000975451618 -0.000746198818 0.0130499995
v -0.00191341713 -0.000586862676 0.0130499995
v -0.00277785122 -0.000328114927 0.0130499995
v -0.00353553385 2.01010122e-05 0.0130499995
v -0.00415734798 0.000444403365 0.0130499995
v -0.00461939752 0.000928486362 0.0130499995
v -0.00490392625 0.00145374715 0.0130499995
v -0.005 0.00200000003 0.0129999995
v -0.00490392625 0.00145374715 0.0129999995
v -0.00461939752 0.000928486362 0.0129999995
v -0.00415734798 0.000444403365 0.0129999995
v -0.00353553385 2.01010122e-05 0.0129999995
v -0.00277785122 -0.000328114927 0.0129999995
v -0.00191341713 -0.000586862676 0.0129999995
v -0.000975451618 -0.000746198818 0.0129999995
v 3.06161713e-19 -0.000799999982 0.0129999995
v 0.000975451618 -0.000746198818 0.0129999995
v 0.00191341713 -0.000586862676 0.0129999995
v 0.00277785122 -0.000328114927 0.0129999995
v 0.00353553385 2.01010122e-05 0.0129999995
v 0.00415734798 0.000444403365 0.0129999995
v 0.00461939752 0.000928486362 0.0129999995
v 0.00490392625 0.00145374715 0.0129999995
v 0.005 0.00200000003 0.0129999995
v 0.00490392625 0.00254625291 0.0129999995
v 0.00461939752 0.00307151347 0.0129999995
v 0.00415734798 0.00355559677 0.0129999995
v 0.00353553385 0.00397989899 0.0129999995
v 0.00277785122 0.00432811499 0.0129999995
v 0.00191341713 0.00458686262 0.0129999995
v 0.000975451618 0.00474619865 0.0129999995
v 3.06161713e-19 0.00479999989 0.0129999995
v -0.000975451618 0.00474619865 0.0129999995
v -0.00191341713 0.00458686262 0.0129999995
v -0.00277785122 0.00432811499 0.0129999995
v -0.00353553385 0.00397989899 0.0129999995
v -0.00415734798 0.00355559677 0.0129999995
v -0.00461939752 0.00307151347 0.0129999995
v -0.00490392625 0.00254625291 0.0129999995
v -0.005 0.00200000003 0.0129999995
v -0.005 0.00200000003 0.0130499995
f 2 16 1
f 1 16 17
f 1 17 32
f 32 17 18
f 32 18 31
f 31 18 19
f 31 19 30
f 30 19 20
f 30 20 29
f 29 20 21
f 29 21 28
f 28 21 22
f 28 22 27
f 27 22 23
f 27 23 26
f 26 23 24
f 26 24 25
f 16 2 15
f 15 2 3
f 15 3 14
f 14 3 4
f 14 4 13
f 13 4 5
f 13 5 12
f 12 5 6
f 12 6 11
f 11 6 7
f 11 7 10
f 10 7 8
f 10 8 9
f 34 48 33
f 33 48 49
f 33 49 64
f 64 49 50
f 64 50 63
f 63 50 51
f 63 51 62
f 62 51 52
f 62 52 61
f 61 52 53
f 61 53 60
f 60 53 54
f 60 54 59
f 59 54 55
f 59 55 58
f 58 55 56
f 58 56 57
f 48 34 47
f 47 34 35
f 47 35 46
f 46 35 36
f 46 36 45
f 45 36 37
f 45 37 44
f 44 37 38
f 44 38 43
f 43 38 39
f 43 39 42
f 42 39 40
f 42 40 41
f 66 128 65
f 65 128 129
f 130 97 96
f 96 97 98
f 96 98 95
f 95 98 99
f 95 99 94
f 94 99 100
f 94 100 93
f 93 100 101
f 93 101 92
f 92 101 102
f 92 102 91
f 91 102 103
f 91 103 90
f 90 103 104
f 90 104 89
f 89 104 105
f 89 105 88
f 88 105 106
f 88 106 87
f 87 106 107
f 87 107 86
f 86 107 108
f 86 108 85
f 85 108 109
f 85 109 84
f 84 109 110
f 84 110 83
f 83 110 111
f 83 111 82
f 82 111 112
f 82 112 81
f 81 112 113
f 81 113 80
f 80 113 114
f 80 114 79
f 79 114 115
f 79 115 78
f 78 115 116
f 78 116 77
f 77 116 117
f 77 117 76
f 76 117 118
f 76 118 75
f 75 118 119
f 75 119 74
f 74 119 120
f 74 120 73
f 73 120 121
f 73 121 72
f 72 121 122
f 72 122 71
f 71 122 123
f 71 123 70
f 70 123 124
f 70 124 69
f 69 124 125
f 69 125 68
f 68 125 126
f 68 126 67
f 67 126 127
f 67 127 66
f 66 127 128
