v -0.00434976724 0.0661624653 0.058859576
v -0.00105675904 0.0661624651 0.0588595759
v -0.000956758962 0.0665813269 0.0589595758
v -0.00444976713 0.0665813271 0.0589595759
v -0.00105675911 0.0661624651 0.0525746977
v -0.00434976732 0.0661624653 0.0525746977
v -0.00444976721 0.0665813271 0.0524746978
v -0.00095675904 0.0665813269 0.0524746978
v -0.000956758962 0.0665813269 0.0589595758
v -0.001233507 0.0677780749 0.0586903077
v -0.00417301914 0.067778075 0.0586903077
v -0.00444976713 0.0665813271 0.0589595759
v -0.00095675904 0.0665813269 0.0524746978
v -0.00123350708 0.0677780749 0.0527439659
v -0.001233507 0.0677780749 0.0586903077
v -0.000956758962 0.0665813269 0.0589595758
v -0.00444976713 0.0665813271 0.0589595759
v -0.00417301914 0.067778075 0.0586903077
v -0.00417301921 0.067778075 0.052743966
v -0.00444976721 0.0665813271 0.0524746978
v -0.00434976732 0.0661624653 0.0525746977
v -0.00434976724 0.0661624653 0.058859576
v -0.00444976713 0.0665813271 0.0589595759
v -0.00444976721 0.0665813271 0.0524746978
v -0.00434976732 0.0661624653 0.0525746977
v -0.00105675911 0.0661624651 0.0525746977
v -0.00105675904 0.0661624651 0.0588595759
v -0.00434976724 0.0661624653 0.058859576
v -0.001233507 0.0677780749 0.0586903077
v -0.00123350708 0.0677780749 0.0527439659
v -0.00417301921 0.067778075 0.052743966
v -0.00417301914 0.067778075 0.0586903077
v -0.00105675904 0.0661624651 0.0588595759
v -0.00105675911 0.0661624651 0.0525746977
v -0.00095675904 0.0665813269 0.0524746978
v -0.000956758962 0.0665813269 0.0589595758
v -0.00444976721 0.0665813271 0.0524746978
v -0.00417301921 0.067778075 0.052743966
v -0.00123350708 0.0677780749 0.0527439659
v -0.00095675904 0.0665813269 0.0524746978
f 1 2 4
f 4 2 3
f 6 7 5
f 5 7 8
f 9 10 12
f 12 10 11
f 13 14 16
f 16 14 15
f 18 19 17
f 17 19 20
f 22 23 21
f 21 23 24
f 25 26 28
f 28 26 27
f 30 31 29
f 29 31 32
f 33 34 36
f 36 34 35
f 38 39 37
f 37 39 40
