v -0.00974781505 0.0661401528 0.0655107708
v -0.00974781505 0.0672401531 0.0655107708
v -0.00975772104 0.0672401531 0.0655206768
v -0.00975772104 0.0661401528 0.0655206768
v -0.00975772104 0.0661401528 0.0655206768
v -0.00975772104 0.0672401531 0.0655206768
v -0.010134022 0.0672401531 0.0655206768
v -0.010134022 0.0661401528 0.0655206768
v -0.00972802845 0.0661401528 0.0655305574
v -0.00972802845 0.0672401531 0.0655305574
v -0.00974781505 0.0672401531 0.0655107708
v -0.00974781505 0.0661401528 0.0655107708
v -0.010134022 0.0661401528 0.0655206768
v -0.010134022 0.0672401531 0.0655206768
v -0.010134022 0.0672401531 0.0662633727
v -0.010134022 0.0661401528 0.0662633727
v -0.00972802845 0.0661401528 0.0662633727
v -0.00972802845 0.0672401531 0.0662633727
v -0.00972802845 0.0672401531 0.0655305574
v -0.00972802845 0.0661401528 0.0655305574
v -0.00767814682 0.0661401528 0.0662633727
v -0.00767814682 0.0672401531 0.0662633727
v -0.00972802845 0.0672401531 0.0662633727
v -0.00972802845 0.0661401528 0.0662633727
v -0.010134022 0.0661401528 0.0662633727
v -0.010134022 0.0672401531 0.0662633727
v -0.0124908626 0.0672401531 0.0662633727
v -0.0124908626 0.0661401528 0.0662633727
v -0.00766826631 0.0661401528 0.0662732533
v -0.00766826631 0.0672401531 0.0662732533
v -0.00767814682 0.0672401531 0.0662633727
v -0.00767814682 0.0661401528 0.0662633727
v -0.00762866766 0.0661401528 0.0662336548
v -0.00762866766 0.0672401531 0.0662336548
v -0.00766826631 0.0672401531 0.0662732533
v -0.00766826631 0.0661401528 0.0662732533
v -0.0124908626 0.0661401528 0.0639461308
v -0.0124809566 0.0661401528 0.0639560368
v -0.010153834 0.0661401528 0.0639560368
v -0.0101539356 0.0661401528 0.0640022038
v -0.00971812245 0.0661401528 0.064016283
v -0.00971812245 0.0661401528 0.0639461308
v -0.00762866766 0.0661401528 0.0639461308
v -0.00762866766 0.0661401528 0.0662336548
v -0.00766826631 0.0661401528 0.0662732533
v -0.00767814682 0.0661401528 0.0662633727
v -0.00972802845 0.0661401528 0.0662633727
v -0.00972802845 0.0661401528 0.0655305574
v -0.00974781505 0.0661401528 0.0655107708
v -0.00975772104 0.0661401528 0.0655206768
v -0.010134022 0.0661401528 0.0655206768
v -0.010134022 0.0661401528 0.0662633727
v -0.0124908626 0.0661401528 0.0662633727
v -0.0124809566 0.0672401531 0.0639560368
v -0.0124908626 0.0672401531 0.0639461308
v -0.0124908626 0.0672401531 0.0662633727
v -0.010134022 0.0672401531 0.0662633727
v -0.010134022 0.0672401531 0.0655206768
v -0.00975772104 0.0672401531 0.0655206768
v -0.00974781505 0.0672401531 0.0655107708
v -0.00972802845 0.0672401531 0.0655305574
v -0.00972802845 0.0672401531 0.0662633727
v -0.00767814682 0.0672401531 0.0662633727
v -0.00766826631 0.0672401531 0.0662732533
v -0.00762866766 0.0672401531 0.0662336548
v -0.00762866766 0.0672401531 0.0639461308
v -0.00971812245 0.0672401531 0.0639461308
v -0.00971812245 0.0672401531 0.064016283
v -0.0101539356 0.0672401531 0.0640022038
v -0.010153834 0.0672401531 0.0639560368
v -0.00762866766 0.0661401528 0.0639461308
v -0.00762866766 0.0672401531 0.0639461308
v -0.00762866766 0.0672401531 0.0662336548
v -0.00762866766 0.0661401528 0.0662336548
v -0.0124908626 0.0661401528 0.0662633727
v -0.0124908626 0.0672401531 0.0662633727
v -0.0124908626 0.0672401531 0.0639461308
v -0.0124908626 0.0661401528 0.0639461308
v -0.00971812245 0.0661401528 0.0639461308
v -0.00971812245 0.0672401531 0.0639461308
v -0.00762866766 0.0672401531 0.0639461308
v -0.00762866766 0.0661401528 0.0639461308
v -0.00971812245 0.0661401528 0.064016283
v -0.00971812245 0.0672401531 0.064016283
v -0.00971812245 0.0672401531 0.0639461308
v -0.00971812245 0.0661401528 0.0639461308
v -0.0101539356 0.0661401528 0.0640022038
v -0.0101539356 0.0672401531 0.0640022038
v -0.00971812245 0.0672401531 0.064016283
v -0.00971812245 0.0661401528 0.064016283
v -0.010153834 0.0661401528 0.0639560368
v -0.010153834 0.0672401531 0.0639560368
v -0.0101539356 0.0672401531 0.0640022038
v -0.0101539356 0.0661401528 0.0640022038
v -0.0124809566 0.0661401528 0.0639560368
v -0.0124809566 0.0672401531 0.0639560368
v -0.010153834 0.0672401531 0.0639560368
v -0.010153834 0.0661401528 0.0639560368
v -0.0124908626 0.0661401528 0.0639461308
v -0.0124908626 0.0672401531 0.0639461308
v -0.0124809566 0.0672401531 0.0639560368
v -0.0124809566 0.0661401528 0.0639560368
f 2 3 1
f 1 3 4
f 6 7 5
f 5 7 8
f 10 11 9
f 9 11 12
f 14 15 13
f 13 15 16
f 18 19 17
f 17 19 20
f 22 23 21
f 21 23 24
f 26 27 25
f 25 27 28
f 30 31 29
f 29 31 32
f 34 35 33
f 33 35 36
f 37 38 53
f 53 38 51
f 53 51 52
f 39 40 38
f 38 40 51
f 40 41 51
f 51 41 49
f 51 49 50
f 42 43 41
f 41 43 49
f 49 43 48
f 48 43 44
f 48 44 46
f 46 44 45
f 46 47 48
f 55 56 54
f 54 56 58
f 54 58 69
f 69 58 68
f 68 58 60
f 68 60 66
f 66 60 61
f 66 61 65
f 65 61 63
f 65 63 64
f 56 57 58
f 58 59 60
f 61 62 63
f 66 67 68
f 69 70 54
f 72 73 71
f 71 73 74
f 76 77 75
f 75 77 78
f 80 81 79
f 79 81 82
f 84 85 83
f 83 85 86
f 88 89 87
f 87 89 90
f 92 93 91
f 91 93 94
f 96 97 95
f 95 97 98
f 100 101 99
f 99 101 102
v -0.0122878236 0.0661401528 0.0655107708
v -0.0122878236 0.0672401531 0.0655107708
v -0.0122977296 0.0672401531 0.0655206768
v -0.0122977296 0.0661401528 0.0655206768
v -0.0122977296 0.0661401528 0.0655206768
v -0.0122977296 0.0672401531 0.0655206768
v -0.0126740306 0.0672401531 0.0655206768
v -0.0126740306 0.0661401528 0.0655206768
v -0.012268037 0.0661401528 0.0655305574
v -0.012268037 0.0672401531 0.0655305574
v -0.0122878236 0.0672401531 0.0655107708
v -0.0122878236 0.0661401528 0.0655107708
v -0.0126740306 0.0661401528 0.0655206768
v -0.0126740306 0.0672401531 0.0655206768
v -0.0126740306 0.0672401531 0.0662633727
v -0.0126740306 0.0661401528 0.0662633727
v -0.012268037 0.0661401528 0.0662633727
v -0.012268037 0.0672401531 0.0662633727
v -0.012268037 0.0672401531 0.0655305574
v -0.012268037 0.0661401528 0.0655305574
v -0.0102181554 0.0661401528 0.0662633727
v -0.0102181554 0.0672401531 0.0662633727
v -0.012268037 0.0672401531 0.0662633727
v -0.012268037 0.0661401528 0.0662633727
v -0.0126740306 0.0661401528 0.0662633727
v -0.0126740306 0.0672401531 0.0662633727
v -0.0150308712 0.0672401531 0.0662633727
v -0.0150308712 0.0661401528 0.0662633727
v -0.0102082749 0.0661401528 0.0662732533
v -0.0102082749 0.0672401531 0.0662732533
v -0.0102181554 0.0672401531 0.0662633727
v -0.0102181554 0.0661401528 0.0662633727
v -0.0101686762 0.0661401528 0.0662336548
v -0.0101686762 0.0672401531 0.0662336548
v -0.0102082749 0.0672401531 0.0662732533
v -0.0102082749 0.0661401528 0.0662732533
v -0.0150308712 0.0661401528 0.0639461308
v -0.0150209652 0.0661401528 0.0639560368
v -0.0126938426 0.0661401528 0.0639560368
v -0.0126939442 0.0661401528 0.0640022038
v -0.012258131 0.0661401528 0.064016283
v -0.012258131 0.0661401528 0.0639461308
v -0.0101686762 0.0661401528 0.0639461308
v -0.0101686762 0.0661401528 0.0662336548
v -0.0102082749 0.0661401528 0.0662732533
v -0.0102181554 0.0661401528 0.0662633727
v -0.012268037 0.0661401528 0.0662633727
v -0.012268037 0.0661401528 0.0655305574
v -0.0122878236 0.0661401528 0.0655107708
v -0.0122977296 0.0661401528 0.0655206768
v -0.0126740306 0.0661401528 0.0655206768
v -0.0126740306 0.0661401528 0.0662633727
v -0.0150308712 0.0661401528 0.0662633727
v -0.0150209652 0.0672401531 0.0639560368
v -0.0150308712 0.0672401531 0.0639461308
v -0.0150308712 0.0672401531 0.0662633727
v -0.0126740306 0.0672401531 0.0662633727
v -0.0126740306 0.0672401531 0.0655206768
v -0.0122977296 0.0672401531 0.0655206768
v -0.0122878236 0.0672401531 0.0655107708
v -0.012268037 0.0672401531 0.0655305574
v -0.012268037 0.0672401531 0.0662633727
v -0.0102181554 0.0672401531 0.0662633727
v -0.0102082749 0.0672401531 0.0662732533
v -0.0101686762 0.0672401531 0.0662336548
v -0.0101686762 0.0672401531 0.0639461308
v -0.012258131 0.0672401531 0.0639461308
v -0.012258131 0.0672401531 0.064016283
v -0.0126939442 0.0672401531 0.0640022038
v -0.0126938426 0.0672401531 0.0639560368
v -0.0101686762 0.0661401528 0.0639461308
v -0.0101686762 0.0672401531 0.0639461308
v -0.0101686762 0.0672401531 0.0662336548
v -0.0101686762 0.0661401528 0.0662336548
v -0.0150308712 0.0661401528 0.0662633727
v -0.0150308712 0.0672401531 0.0662633727
v -0.0150308712 0.0672401531 0.0639461308
v -0.0150308712 0.0661401528 0.0639461308
v -0.012258131 0.0661401528 0.0639461308
v -0.012258131 0.0672401531 0.0639461308
v -0.0101686762 0.0672401531 0.0639461308
v -0.0101686762 0.0661401528 0.0639461308
v -0.012258131 0.0661401528 0.064016283
v -0.012258131 0.0672401531 0.064016283
v -0.012258131 0.0672401531 0.0639461308
v -0.012258131 0.0661401528 0.0639461308
v -0.0126939442 0.0661401528 0.0640022038
v -0.0126939442 0.0672401531 0.0640022038
v -0.012258131 0.0672401531 0.064016283
v -0.012258131 0.0661401528 0.064016283
v -0.0126938426 0.0661401528 0.0639560368
v -0.0126938426 0.0672401531 0.0639560368
v -0.0126939442 0.0672401531 0.0640022038
v -0.0126939442 0.0661401528 0.0640022038
v -0.0150209652 0.0661401528 0.0639560368
v -0.0150209652 0.0672401531 0.0639560368
v -0.0126938426 0.0672401531 0.0639560368
v -0.0126938426 0.0661401528 0.0639560368
v -0.0150308712 0.0661401528 0.0639461308
v -0.0150308712 0.0672401531 0.0639461308
v -0.0150209652 0.0672401531 0.0639560368
v -0.0150209652 0.0661401528 0.0639560368
f 104 105 103
f 103 105 106
f 108 109 107
f 107 109 110
f 112 113 111
f 111 113 114
f 116 117 115
f 115 117 118
f 120 121 119
f 119 121 122
f 124 125 123
f 123 125 126
f 128 129 127
f 127 129 130
f 132 133 131
f 131 133 134
f 136 137 135
f 135 137 138
f 139 140 155
f 155 140 153
f 155 153 154
f 141 142 140
f 140 142 153
f 142 143 153
f 153 143 151
f 153 151 152
f 144 145 143
f 143 145 151
f 151 145 150
f 150 145 146
f 150 146 148
f 148 146 147
f 148 149 150
f 157 158 156
f 156 158 160
f 156 160 171
f 171 160 170
f 170 160 162
f 170 162 168
f 168 162 163
f 168 163 167
f 167 163 165
f 167 165 166
f 158 159 160
f 160 161 162
f 163 164 165
f 168 169 170
f 171 172 156
f 174 175 173
f 173 175 176
f 178 179 177
f 177 179 180
f 182 183 181
f 181 183 184
f 186 187 185
f 185 187 188
f 190 191 189
f 189 191 192
f 194 195 193
f 193 195 196
f 198 199 197
f 197 199 200
f 202 203 201
f 201 203 204
v -0.0135548066 0.0661401528 0.0550407657
v -0.0135548066 0.0672401531 0.0550407657
v -0.0135647126 0.0672401531 0.0550506717
v -0.0135647126 0.0661401528 0.0550506717
v -0.0135647126 0.0661401528 0.0550506717
v -0.0135647126 0.0672401531 0.0550506717
v -0.0139410136 0.0672401531 0.0550506717
v -0.0139410136 0.0661401528 0.0550506717
v -0.01353502 0.0661401528 0.0550605523
v -0.01353502 0.0672401531 0.0550605523
v -0.0135548066 0.0672401531 0.0550407657
v -0.0135548066 0.0661401528 0.0550407657
v -0.0139410136 0.0661401528 0.0550506717
v -0.0139410136 0.0672401531 0.0550506717
v -0.0139410136 0.0672401531 0.0557933677
v -0.0139410136 0.0661401528 0.0557933677
v -0.01353502 0.0661401528 0.0557933677
v -0.01353502 0.0672401531 0.0557933677
v -0.01353502 0.0672401531 0.0550605523
v -0.01353502 0.0661401528 0.0550605523
v -0.0114851384 0.0661401528 0.0557933677
v -0.0114851384 0.0672401531 0.0557933677
v -0.01353502 0.0672401531 0.0557933677
v -0.01353502 0.0661401528 0.0557933677
v -0.0139410136 0.0661401528 0.0557933677
v -0.0139410136 0.0672401531 0.0557933677
v -0.0162978542 0.0672401531 0.0557933677
v -0.0162978542 0.0661401528 0.0557933677
v -0.0114752579 0.0661401528 0.0558032483
v -0.0114752579 0.0672401531 0.0558032483
v -0.0114851384 0.0672401531 0.0557933677
v -0.0114851384 0.0661401528 0.0557933677
v -0.0114356592 0.0661401528 0.0557636497
v -0.0114356592 0.0672401531 0.0557636497
v -0.0114752579 0.0672401531 0.0558032483
v -0.0114752579 0.0661401528 0.0558032483
v -0.0162978542 0.0661401528 0.0534761258
v -0.0162879482 0.0661401528 0.0534860318
v -0.0139608256 0.0661401528 0.0534860318
v -0.0139609272 0.0661401528 0.0535321988
v -0.013525114 0.0661401528 0.053546278
v -0.013525114 0.0661401528 0.0534761258
v -0.0114356592 0.0661401528 0.0534761258
v -0.0114356592 0.0661401528 0.0557636497
v -0.0114752579 0.0661401528 0.0558032483
v -0.0114851384 0.0661401528 0.0557933677
v -0.01353502 0.0661401528 0.0557933677
v -0.01353502 0.0661401528 0.0550605523
v -0.0135548066 0.0661401528 0.0550407657
v -0.0135647126 0.0661401528 0.0550506717
v -0.0139410136 0.0661401528 0.0550506717
v -0.0139410136 0.0661401528 0.0557933677
v -0.0162978542 0.0661401528 0.0557933677
v -0.0162879482 0.0672401531 0.0534860318
v -0.0162978542 0.0672401531 0.0534761258
v -0.0162978542 0.0672401531 0.0557933677
v -0.0139410136 0.0672401531 0.0557933677
v -0.0139410136 0.0672401531 0.0550506717
v -0.0135647126 0.0672401531 0.0550506717
v -0.0135548066 0.0672401531 0.0550407657
v -0.01353502 0.0672401531 0.0550605523
v -0.01353502 0.0672401531 0.0557933677
v -0.0114851384 0.0672401531 0.0557933677
v -0.0114752579 0.0672401531 0.0558032483
v -0.0114356592 0.0672401531 0.0557636497
v -0.0114356592 0.0672401531 0.0534761258
v -0.013525114 0.0672401531 0.0534761258
v -0.013525114 0.0672401531 0.053546278
v -0.0139609272 0.0672401531 0.0535321988
v -0.0139608256 0.0672401531 0.0534860318
v -0.0114356592 0.0661401528 0.0534761258
v -0.0114356592 0.0672401531 0.0534761258
v -0.0114356592 0.0672401531 0.0557636497
v -0.0114356592 0.0661401528 0.0557636497
v -0.0162978542 0.0661401528 0.0557933677
v -0.0162978542 0.0672401531 0.0557933677
v -0.0162978542 0.0672401531 0.0534761258
v -0.0162978542 0.0661401528 0.0534761258
v -0.013525114 0.0661401528 0.0534761258
v -0.013525114 0.0672401531 0.0534761258
v -0.0114356592 0.0672401531 0.0534761258
v -0.0114356592 0.0661401528 0.0534761258
v -0.013525114 0.0661401528 0.053546278
v -0.013525114 0.0672401531 0.053546278
v -0.013525114 0.0672401531 0.0534761258
v -0.013525114 0.0661401528 0.0534761258
v -0.0139609272 0.0661401528 0.0535321988
v -0.0139609272 0.0672401531 0.0535321988
v -0.013525114 0.0672401531 0.053546278
v -0.013525114 0.0661401528 0.053546278
v -0.0139608256 0.0661401528 0.0534860318
v -0.0139608256 0.0672401531 0.0534860318
v -0.0139609272 0.0672401531 0.0535321988
v -0.0139609272 0.0661401528 0.0535321988
v -0.0162879482 0.0661401528 0.0534860318
v -0.0162879482 0.0672401531 0.0534860318
v -0.0139608256 0.0672401531 0.0534860318
v -0.0139608256 0.0661401528 0.0534860318
v -0.0162978542 0.0661401528 0.0534761258
v -0.0162978542 0.0672401531 0.0534761258
v -0.0162879482 0.0672401531 0.0534860318
v -0.0162879482 0.0661401528 0.0534860318
f 206 207 205
f 205 207 208
f 210 211 209
f 209 211 212
f 214 215 213
f 213 215 216
f 218 219 217
f 217 219 220
f 222 223 221
f 221 223 224
f 226 227 225
f 225 227 228
f 230 231 229
f 229 231 232
f 234 235 233
f 233 235 236
f 238 239 237
f 237 239 240
f 241 242 257
f 257 242 255
f 257 255 256
f 243 244 242
f 242 244 255
f 244 245 255
f 255 245 253
f 255 253 254
f 246 247 245
f 245 247 253
f 253 247 252
f 252 247 248
f 252 248 250
f 250 248 249
f 250 251 252
f 259 260 258
f 258 260 262
f 258 262 273
f 273 262 272
f 272 262 264
f 272 264 270
f 270 264 265
f 270 265 269
f 269 265 267
f 269 267 268
f 260 261 262
f 262 263 264
f 265 266 267
f 270 271 272
f 273 274 258
f 276 277 275
f 275 277 278
f 280 281 279
f 279 281 282
f 284 285 283
f 283 285 286
f 288 289 287
f 287 289 290
f 292 293 291
f 291 293 294
f 296 297 295
f 295 297 298
f 300 301 299
f 299 301 302
f 304 305 303
f 303 305 306
v -0.0135548066 0.0661401528 0.0525007648
v -0.0135548066 0.0672401531 0.0525007648
v -0.0135647126 0.0672401531 0.0525106708
v -0.0135647126 0.0661401528 0.0525106708
v -0.0135647126 0.0661401528 0.0525106708
v -0.0135647126 0.0672401531 0.0525106708
v -0.0139410136 0.0672401531 0.0525106708
v -0.0139410136 0.0661401528 0.0525106708
v -0.01353502 0.0661401528 0.0525205514
v -0.01353502 0.0672401531 0.0525205514
v -0.0135548066 0.0672401531 0.0525007648
v -0.0135548066 0.0661401528 0.0525007648
v -0.0139410136 0.0661401528 0.0525106708
v -0.0139410136 0.0672401531 0.0525106708
v -0.0139410136 0.0672401531 0.0532533668
v -0.0139410136 0.0661401528 0.0532533668
v -0.01353502 0.0661401528 0.0532533668
v -0.01353502 0.0672401531 0.0532533668
v -0.01353502 0.0672401531 0.0525205514
v -0.01353502 0.0661401528 0.0525205514
v -0.0114851384 0.0661401528 0.0532533668
v -0.0114851384 0.0672401531 0.0532533668
v -0.01353502 0.0672401531 0.0532533668
v -0.01353502 0.0661401528 0.0532533668
v -0.0139410136 0.0661401528 0.0532533668
v -0.0139410136 0.0672401531 0.0532533668
v -0.0162978542 0.0672401531 0.0532533668
v -0.0162978542 0.0661401528 0.0532533668
v -0.0114752579 0.0661401528 0.0532632474
v -0.0114752579 0.0672401531 0.0532632474
v -0.0114851384 0.0672401531 0.0532533668
v -0.0114851384 0.0661401528 0.0532533668
v -0.0114356592 0.0661401528 0.0532236488
v -0.0114356592 0.0672401531 0.0532236488
v -0.0114752579 0.0672401531 0.0532632474
v -0.0114752579 0.0661401528 0.0532632474
v -0.0162978542 0.0661401528 0.0509361248
v -0.0162879482 0.0661401528 0.0509460308
v -0.0139608256 0.0661401528 0.0509460308
v -0.0139609272 0.0661401528 0.0509921978
v -0.013525114 0.0661401528 0.0510062771
v -0.013525114 0.0661401528 0.0509361248
v -0.0114356592 0.0661401528 0.0509361248
v -0.0114356592 0.0661401528 0.0532236488
v -0.0114752579 0.0661401528 0.0532632474
v -0.0114851384 0.0661401528 0.0532533668
v -0.01353502 0.0661401528 0.0532533668
v -0.01353502 0.0661401528 0.0525205514
v -0.0135548066 0.0661401528 0.0525007648
v -0.0135647126 0.0661401528 0.0525106708
v -0.0139410136 0.0661401528 0.0525106708
v -0.0139410136 0.0661401528 0.0532533668
v -0.0162978542 0.0661401528 0.0532533668
v -0.0162879482 0.0672401531 0.0509460308
v -0.0162978542 0.0672401531 0.0509361248
v -0.0162978542 0.0672401531 0.0532533668
v -0.0139410136 0.0672401531 0.0532533668
v -0.0139410136 0.0672401531 0.0525106708
v -0.0135647126 0.0672401531 0.0525106708
v -0.0135548066 0.0672401531 0.0525007648
v -0.01353502 0.0672401531 0.0525205514
v -0.01353502 0.0672401531 0.0532533668
v -0.0114851384 0.0672401531 0.0532533668
v -0.0114752579 0.0672401531 0.0532632474
v -0.0114356592 0.0672401531 0.0532236488
v -0.0114356592 0.0672401531 0.0509361248
v -0.013525114 0.0672401531 0.0509361248
v -0.013525114 0.0672401531 0.0510062771
v -0.0139609272 0.0672401531 0.0509921978
v -0.0139608256 0.0672401531 0.0509460308
v -0.0114356592 0.0661401528 0.0509361248
v -0.0114356592 0.0672401531 0.0509361248
v -0.0114356592 0.0672401531 0.0532236488
v -0.0114356592 0.0661401528 0.0532236488
v -0.0162978542 0.0661401528 0.0532533668
v -0.0162978542 0.0672401531 0.0532533668
v -0.0162978542 0.0672401531 0.0509361248
v -0.0162978542 0.0661401528 0.0509361248
v -0.013525114 0.0661401528 0.0509361248
v -0.013525114 0.0672401531 0.0509361248
v -0.0114356592 0.0672401531 0.0509361248
v -0.0114356592 0.0661401528 0.0509361248
v -0.013525114 0.0661401528 0.0510062771
v -0.013525114 0.0672401531 0.0510062771
v -0.013525114 0.0672401531 0.0509361248
v -0.013525114 0.0661401528 0.0509361248
v -0.0139609272 0.0661401528 0.0509921978
v -0.0139609272 0.0672401531 0.0509921978
v -0.013525114 0.0672401531 0.0510062771
v -0.013525114 0.0661401528 0.0510062771
v -0.0139608256 0.0661401528 0.0509460308
v -0.0139608256 0.0672401531 0.0509460308
v -0.0139609272 0.0672401531 0.0509921978
v -0.0139609272 0.0661401528 0.0509921978
v -0.0162879482 0.0661401528 0.0509460308
v -0.0162879482 0.0672401531 0.0509460308
v -0.0139608256 0.0672401531 0.0509460308
v -0.0139608256 0.0661401528 0.0509460308
v -0.0162978542 0.0661401528 0.0509361248
v -0.0162978542 0.0672401531 0.0509361248
v -0.0162879482 0.0672401531 0.0509460308
v -0.0162879482 0.0661401528 0.0509460308
f 308 309 307
f 307 309 310
f 312 313 311
f 311 313 314
f 316 317 315
f 315 317 318
f 320 321 319
f 319 321 322
f 324 325 323
f 323 325 326
f 328 329 327
f 327 329 330
f 332 333 331
f 331 333 334
f 336 337 335
f 335 337 338
f 340 341 339
f 339 341 342
f 343 344 359
f 359 344 357
f 359 357 358
f 345 346 344
f 344 346 357
f 346 347 357
f 357 347 355
f 357 355 356
f 348 349 347
f 347 349 355
f 355 349 354
f 354 349 350
f 354 350 352
f 352 350 351
f 352 353 354
f 361 362 360
f 360 362 364
f 360 364 375
f 375 364 374
f 374 364 366
f 374 366 372
f 372 366 367
f 372 367 371
f 371 367 369
f 371 369 370
f 362 363 364
f 364 365 366
f 367 368 369
f 372 373 374
f 375 376 360
f 378 379 377
f 377 379 380
f 382 383 381
f 381 383 384
f 386 387 385
f 385 387 388
f 390 391 389
f 389 391 392
f 394 395 393
f 393 395 396
f 398 399 397
f 397 399 400
f 402 403 401
f 401 403 404
f 406 407 405
f 405 407 408
v -0.0135548066 0.0661401528 0.0499607639
v -0.0135548066 0.0672401531 0.0499607639
v -0.0135647126 0.0672401531 0.0499706699
v -0.0135647126 0.0661401528 0.0499706699
v -0.0135647126 0.0661401528 0.0499706699
v -0.0135647126 0.0672401531 0.0499706699
v -0.0139410136 0.0672401531 0.0499706699
v -0.0139410136 0.0661401528 0.0499706699
v -0.01353502 0.0661401528 0.0499805505
v -0.01353502 0.0672401531 0.0499805505
v -0.0135548066 0.0672401531 0.0499607639
v -0.0135548066 0.0661401528 0.0499607639
v -0.0139410136 0.0661401528 0.0499706699
v -0.0139410136 0.0672401531 0.0499706699
v -0.0139410136 0.0672401531 0.0507133659
v -0.0139410136 0.0661401528 0.0507133659
v -0.01353502 0.0661401528 0.0507133659
v -0.01353502 0.0672401531 0.0507133659
v -0.01353502 0.0672401531 0.0499805505
v -0.01353502 0.0661401528 0.0499805505
v -0.0114851384 0.0661401528 0.0507133659
v -0.0114851384 0.0672401531 0.0507133659
v -0.01353502 0.0672401531 0.0507133659
v -0.01353502 0.0661401528 0.0507133659
v -0.0139410136 0.0661401528 0.0507133659
v -0.0139410136 0.0672401531 0.0507133659
v -0.0162978542 0.0672401531 0.0507133659
v -0.0162978542 0.0661401528 0.0507133659
v -0.0114752579 0.0661401528 0.0507232465
v -0.0114752579 0.0672401531 0.0507232465
v -0.0114851384 0.0672401531 0.0507133659
v -0.0114851384 0.0661401528 0.0507133659
v -0.0114356592 0.0661401528 0.0506836479
v -0.0114356592 0.0672401531 0.0506836479
v -0.0114752579 0.0672401531 0.0507232465
v -0.0114752579 0.0661401528 0.0507232465
v -0.0162978542 0.0661401528 0.0483961239
v -0.0162879482 0.0661401528 0.0484060299
v -0.0139608256 0.0661401528 0.0484060299
v -0.0139609272 0.0661401528 0.0484521969
v -0.013525114 0.0661401528 0.0484662761
v -0.013525114 0.0661401528 0.0483961239
v -0.0114356592 0.0661401528 0.0483961239
v -0.0114356592 0.0661401528 0.0506836479
v -0.0114752579 0.0661401528 0.0507232465
v -0.0114851384 0.0661401528 0.0507133659
v -0.01353502 0.0661401528 0.0507133659
v -0.01353502 0.0661401528 0.0499805505
v -0.0135548066 0.0661401528 0.0499607639
v -0.0135647126 0.0661401528 0.0499706699
v -0.0139410136 0.0661401528 0.0499706699
v -0.0139410136 0.0661401528 0.0507133659
v -0.0162978542 0.0661401528 0.0507133659
v -0.0162879482 0.0672401531 0.0484060299
v -0.0162978542 0.0672401531 0.0483961239
v -0.0162978542 0.0672401531 0.0507133659
v -0.0139410136 0.0672401531 0.0507133659
v -0.0139410136 0.0672401531 0.0499706699
v -0.0135647126 0.0672401531 0.0499706699
v -0.0135548066 0.0672401531 0.0499607639
v -0.01353502 0.0672401531 0.0499805505
v -0.01353502 0.0672401531 0.0507133659
v -0.0114851384 0.0672401531 0.0507133659
v -0.0114752579 0.0672401531 0.0507232465
v -0.0114356592 0.0672401531 0.0506836479
v -0.0114356592 0.0672401531 0.0483961239
v -0.013525114 0.0672401531 0.0483961239
v -0.013525114 0.0672401531 0.0484662761
v -0.0139609272 0.0672401531 0.0484521969
v -0.0139608256 0.0672401531 0.0484060299
v -0.0114356592 0.0661401528 0.0483961239
v -0.0114356592 0.0672401531 0.0483961239
v -0.0114356592 0.0672401531 0.0506836479
v -0.0114356592 0.0661401528 0.0506836479
v -0.0162978542 0.0661401528 0.0507133659
v -0.0162978542 0.0672401531 0.0507133659
v -0.0162978542 0.0672401531 0.0483961239
v -0.0162978542 0.0661401528 0.0483961239
v -0.013525114 0.0661401528 0.0483961239
v -0.013525114 0.0672401531 0.0483961239
v -0.0114356592 0.0672401531 0.0483961239
v -0.0114356592 0.0661401528 0.0483961239
v -0.013525114 0.0661401528 0.0484662761
v -0.013525114 0.0672401531 0.0484662761
v -0.013525114 0.0672401531 0.0483961239
v -0.013525114 0.0661401528 0.0483961239
v -0.0139609272 0.0661401528 0.0484521969
v -0.0139609272 0.0672401531 0.0484521969
v -0.013525114 0.0672401531 0.0484662761
v -0.013525114 0.0661401528 0.0484662761
v -0.0139608256 0.0661401528 0.0484060299
v -0.0139608256 0.0672401531 0.0484060299
v -0.0139609272 0.0672401531 0.0484521969
v -0.0139609272 0.0661401528 0.0484521969
v -0.0162879482 0.0661401528 0.0484060299
v -0.0162879482 0.0672401531 0.0484060299
v -0.0139608256 0.0672401531 0.0484060299
v -0.0139608256 0.0661401528 0.0484060299
v -0.0162978542 0.0661401528 0.0483961239
v -0.0162978542 0.0672401531 0.0483961239
v -0.0162879482 0.0672401531 0.0484060299
v -0.0162879482 0.0661401528 0.0484060299
f 410 411 409
f 409 411 412
f 414 415 413
f 413 415 416
f 418 419 417
f 417 419 420
f 422 423 421
f 421 423 424
f 426 427 425
f 425 427 428
f 430 431 429
f 429 431 432
f 434 435 433
f 433 435 436
f 438 439 437
f 437 439 440
f 442 443 441
f 441 443 444
f 445 446 461
f 461 446 459
f 461 459 460
f 447 448 446
f 446 448 459
f 448 449 459
f 459 449 457
f 459 457 458
f 450 451 449
f 449 451 457
f 457 451 456
f 456 451 452
f 456 452 454
f 454 452 453
f 454 455 456
f 463 464 462
f 462 464 466
f 462 466 477
f 477 466 476
f 476 466 468
f 476 468 474
f 474 468 469
f 474 469 473
f 473 469 471
f 473 471 472
f 464 465 466
f 466 467 468
f 469 470 471
f 474 475 476
f 477 478 462
f 480 481 479
f 479 481 482
f 484 485 483
f 483 485 486
f 488 489 487
f 487 489 490
f 492 493 491
f 491 493 494
f 496 497 495
f 495 497 498
f 500 501 499
f 499 501 502
f 504 505 503
f 503 505 506
f 508 509 507
f 507 509 510
