v -0.00673 0.358298 -0.023562
v -0.01673 0.358298 -0.023562
v -0.01673 0.358198 -0.023562
v -0.00673 0.358198 -0.023562
v -0.01673 0.358298 -0.033562
v -0.01673 0.358298 -0.023562
v -0.00673 0.358298 -0.023562
v -0.00673 0.358298 -0.033562
v -0.01673 0.358298 -0.023562
v -0.01673 0.358298 -0.033562
v -0.01673 0.358198 -0.033562
v -0.01673 0.358198 -0.023562
v -0.01673 0.358298 -0.033562
v -0.00673 0.358298 -0.033562
v -0.00673 0.358198 -0.033562
v -0.01673 0.358198 -0.033562
v -0.01673 0.358198 -0.023562
v -0.01673 0.358198 -0.033562
v -0.00673 0.358198 -0.033562
v -0.00673 0.358198 -0.023562
v -0.00673 0.358298 -0.033562
v -0.00673 0.358298 -0.023562
v -0.00673 0.358198 -0.023562
v -0.00673 0.358198 -0.033562
f 1 2 4
f 4 2 3
f 5 6 8
f 8 6 7
f 9 10 12
f 12 10 11
f 13 14 16
f 16 14 15
f 17 18 20
f 20 18 19
f 21 22 24
f 24 22 23
v -0.00298004512 0.0119027619 -0.0132563368
v -0.00298004512 0.0087273381 -0.0132604044
v -0.00298004512 0.00873041235 -0.0156604023
v -0.00298004512 0.0119058362 -0.0156563348
v -0.00573004518 0.00713962619 -0.0132624381
v -0.00848004524 0.0087273381 -0.0132604044
v -0.00848004524 0.00873041235 -0.0156604023
v -0.00573004518 0.00714270044 -0.0156624361
v -0.00848004524 0.0119027619 -0.0132563368
v -0.00573004518 0.0134904738 -0.0132543031
v -0.00573004518 0.0134935481 -0.015654301
v -0.00848004524 0.0119058362 -0.0156563348
v -0.0069945452 0.0103181243 -0.0156583686
v -0.00686932031 0.0108667698 -0.0156576658
v -0.00651844803 0.0113067493 -0.0156571022
v -0.00601142289 0.0115509196 -0.0156567894
v -0.00544866746 0.0115509196 -0.0156567894
v -0.00494164232 0.0113067493 -0.0156571022
v -0.00459077004 0.0108667698 -0.0156576658
v -0.00446554516 0.0103181243 -0.0156583686
v -0.00459077004 0.00976947871 -0.0156590714
v -0.00494164232 0.00932949919 -0.0156596349
v -0.00544866746 0.00908532896 -0.0156599477
v -0.00601142289 0.00908532896 -0.0156599477
v -0.00651844803 0.00932949919 -0.0156596349
v -0.00686932031 0.00976947871 -0.0156590714
v -0.0069945452 0.01031505 -0.0132583706
v -0.00686932031 0.00976640445 -0.0132590734
v -0.00651844803 0.00932642493 -0.013259637
v -0.00601142289 0.00908225471 -0.0132599497
v -0.00544866746 0.00908225471 -0.0132599497
v -0.00494164232 0.00932642493 -0.013259637
v -0.00459077004 0.00976640445 -0.0132590734
v -0.00446554516 0.01031505 -0.0132583706
v -0.00459077004 0.0108636956 -0.0132576678
v -0.00494164232 0.0113036751 -0.0132571042
v -0.00544866746 0.0115478453 -0.0132567915
v -0.00601142289 0.0115478453 -0.0132567915
v -0.00651844803 0.0113036751 -0.0132571042
v -0.00686932031 0.0108636956 -0.0132576678
v -0.0069945452 0.0103181243 -0.0156583686
v -0.0069945452 0.01031505 -0.0132583706
v -0.00848004524 0.0087273381 -0.0132604044
v -0.00848004524 0.0119027619 -0.0132563368
v -0.00848004524 0.0119058362 -0.0156563348
v -0.00848004524 0.00873041235 -0.0156604023
v -0.0069945452 0.01031505 -0.0132583706
v -0.00686932031 0.0108636956 -0.0132576678
v -0.00651844803 0.0113036751 -0.0132571042
v -0.00601142289 0.0115478453 -0.0132567915
v -0.00544866746 0.0115478453 -0.0132567915
v -0.00494164232 0.0113036751 -0.0132571042
v -0.00459077004 0.0108636956 -0.0132576678
v -0.00446554516 0.01031505 -0.0132583706
v -0.00459077004 0.00976640445 -0.0132590734
v -0.00494164232 0.00932642493 -0.013259637
v -0.00544866746 0.00908225471 -0.0132599497
v -0.00601142289 0.00908225471 -0.0132599497
v -0.00651844803 0.00932642493 -0.013259637
v -0.00686932031 0.00976640445 -0.0132590734
v -0.00298004512 0.0087273381 -0.0132604044
v -0.00298004512 0.0119027619 -0.0132563368
v -0.00573004518 0.0134904738 -0.0132543031
v -0.00848004524 0.0119027619 -0.0132563368
v -0.00848004524 0.0087273381 -0.0132604044
v -0.00573004518 0.00713962619 -0.0132624381
v -0.0069945452 0.0103181243 -0.0156583686
v -0.00686932031 0.00976947871 -0.0156590714
v -0.00651844803 0.00932949919 -0.0156596349
v -0.00601142289 0.00908532896 -0.0156599477
v -0.00544866746 0.00908532896 -0.0156599477
v -0.00494164232 0.00932949919 -0.0156596349
v -0.00459077004 0.00976947871 -0.0156590714
v -0.00446554516 0.0103181243 -0.0156583686
v -0.00459077004 0.0108667698 -0.0156576658
v -0.00494164232 0.0113067493 -0.0156571022
v -0.00544866746 0.0115509196 -0.0156567894
v -0.00601142289 0.0115509196 -0.0156567894
v -0.00651844803 0.0113067493 -0.0156571022
v -0.00686932031 0.0108667698 -0.0156576658
v -0.00298004512 0.0119058362 -0.0156563348
v -0.00298004512 0.00873041235 -0.0156604023
v -0.00573004518 0.00714270044 -0.0156624361
v -0.00848004524 0.00873041235 -0.0156604023
v -0.00848004524 0.0119058362 -0.0156563348
v -0.00573004518 0.0134935481 -0.015654301
v -0.00573004518 0.0134904738 -0.0132543031
v -0.00298004512 0.0119027619 -0.0132563368
v -0.00298004512 0.0119058362 -0.0156563348
v -0.00573004518 0.0134935481 -0.015654301
v -0.00298004512 0.0087273381 -0.0132604044
v -0.00573004518 0.00713962619 -0.0132624381
v -0.00573004518 0.00714270044 -0.0156624361
v -0.00298004512 0.00873041235 -0.0156604023
f 25 26 28
f 28 26 27
f 29 30 32
f 32 30 31
f 33 34 36
f 36 34 35
f 38 64 37
f 37 64 66
f 65 51 50
f 50 51 52
f 50 52 49
f 49 52 53
f 49 53 48
f 48 53 54
f 48 54 47
f 47 54 55
f 47 55 46
f 46 55 56
f 46 56 45
f 45 56 57
f 45 57 44
f 44 57 58
f 44 58 43
f 43 58 59
f 43 59 42
f 42 59 60
f 42 60 41
f 41 60 61
f 41 61 40
f 40 61 62
f 40 62 39
f 39 62 63
f 39 63 38
f 38 63 64
f 67 68 70
f 70 68 69
f 72 88 71
f 71 88 89
f 71 89 84
f 84 89 83
f 83 89 90
f 83 90 82
f 82 90 81
f 81 90 80
f 80 90 85
f 80 85 79
f 79 85 78
f 78 85 86
f 78 86 77
f 77 86 76
f 76 86 87
f 76 87 75
f 75 87 74
f 74 87 73
f 73 87 88
f 73 88 72
f 92 108 91
f 91 108 109
f 91 109 104
f 104 109 103
f 103 109 110
f 103 110 102
f 102 110 101
f 101 110 100
f 100 110 105
f 100 105 99
f 99 105 98
f 98 105 106
f 98 106 97
f 97 106 96
f 96 106 107
f 96 107 95
f 95 107 94
f 94 107 93
f 93 107 108
f 93 108 92
f 111 112 114
f 114 112 113
f 115 116 118
f 118 116 117
v 0.00901995488 0.0119027619 -0.0132563368
v 0.00901995488 0.0087273381 -0.0132604044
v 0.00901995488 0.00873041235 -0.0156604023
v 0.00901995488 0.0119058362 -0.0156563348
v 0.00626995482 0.00713962619 -0.0132624381
v 0.00351995476 0.0087273381 -0.0132604044
v 0.00351995476 0.00873041235 -0.0156604023
v 0.00626995482 0.00714270044 -0.0156624361
v 0.00351995476 0.0119027619 -0.0132563368
v 0.00626995482 0.0134904738 -0.0132543031
v 0.00626995482 0.0134935481 -0.015654301
v 0.00351995476 0.0119058362 -0.0156563348
v 0.0050054548 0.0103181243 -0.0156583686
v 0.00513067969 0.0108667698 -0.0156576658
v 0.00548155197 0.0113067493 -0.0156571022
v 0.00598857711 0.0115509196 -0.0156567894
v 0.00655133254 0.0115509196 -0.0156567894
v 0.00705835768 0.0113067493 -0.0156571022
v 0.00740922996 0.0108667698 -0.0156576658
v 0.00753445484 0.0103181243 -0.0156583686
v 0.00740922996 0.00976947871 -0.0156590714
v 0.00705835768 0.00932949919 -0.0156596349
v 0.00655133254 0.00908532896 -0.0156599477
v 0.00598857711 0.00908532896 -0.0156599477
v 0.00548155197 0.00932949919 -0.0156596349
v 0.00513067969 0.00976947871 -0.0156590714
v 0.0050054548 0.01031505 -0.0132583706
v 0.00513067969 0.00976640445 -0.0132590734
v 0.00548155197 0.00932642493 -0.013259637
v 0.00598857711 0.00908225471 -0.0132599497
v 0.00655133254 0.00908225471 -0.0132599497
v 0.00705835768 0.00932642493 -0.013259637
v 0.00740922996 0.00976640445 -0.0132590734
v 0.00753445484 0.01031505 -0.0132583706
v 0.00740922996 0.0108636956 -0.0132576678
v 0.00705835768 0.0113036751 -0.0132571042
v 0.00655133254 0.0115478453 -0.0132567915
v 0.00598857711 0.0115478453 -0.0132567915
v 0.00548155197 0.0113036751 -0.0132571042
v 0.00513067969 0.0108636956 -0.0132576678
v 0.0050054548 0.0103181243 -0.0156583686
v 0.0050054548 0.01031505 -0.0132583706
v 0.00351995476 0.0087273381 -0.0132604044
v 0.00351995476 0.0119027619 -0.0132563368
v 0.00351995476 0.0119058362 -0.0156563348
v 0.00351995476 0.00873041235 -0.0156604023
v 0.0050054548 0.01031505 -0.0132583706
v 0.00513067969 0.0108636956 -0.0132576678
v 0.00548155197 0.0113036751 -0.0132571042
v 0.00598857711 0.0115478453 -0.0132567915
v 0.00655133254 0.0115478453 -0.0132567915
v 0.00705835768 0.0113036751 -0.0132571042
v 0.00740922996 0.0108636956 -0.0132576678
v 0.00753445484 0.01031505 -0.0132583706
v 0.00740922996 0.00976640445 -0.0132590734
v 0.00705835768 0.00932642493 -0.013259637
v 0.00655133254 0.00908225471 -0.0132599497
v 0.00598857711 0.00908225471 -0.0132599497
v 0.00548155197 0.00932642493 -0.013259637
v 0.00513067969 0.00976640445 -0.0132590734
v 0.00901995488 0.0087273381 -0.0132604044
v 0.00901995488 0.0119027619 -0.0132563368
v 0.00626995482 0.0134904738 -0.0132543031
v 0.00351995476 0.0119027619 -0.0132563368
v 0.00351995476 0.0087273381 -0.0132604044
v 0.00626995482 0.00713962619 -0.0132624381
v 0.0050054548 0.0103181243 -0.0156583686
v 0.00513067969 0.00976947871 -0.0156590714
v 0.00548155197 0.00932949919 -0.0156596349
v 0.00598857711 0.00908532896 -0.0156599477
v 0.00655133254 0.00908532896 -0.0156599477
v 0.00705835768 0.00932949919 -0.0156596349
v 0.00740922996 0.00976947871 -0.0156590714
v 0.00753445484 0.0103181243 -0.0156583686
v 0.00740922996 0.0108667698 -0.0156576658
v 0.00705835768 0.0113067493 -0.0156571022
v 0.00655133254 0.0115509196 -0.0156567894
v 0.00598857711 0.0115509196 -0.0156567894
v 0.00548155197 0.0113067493 -0.0156571022
v 0.00513067969 0.0108667698 -0.0156576658
v 0.00901995488 0.0119058362 -0.0156563348
v 0.00901995488 0.00873041235 -0.0156604023
v 0.00626995482 0.00714270044 -0.0156624361
v 0.00351995476 0.00873041235 -0.0156604023
v 0.00351995476 0.0119058362 -0.0156563348
v 0.00626995482 0.0134935481 -0.015654301
v 0.00626995482 0.0134904738 -0.0132543031
v 0.00901995488 0.0119027619 -0.0132563368
v 0.00901995488 0.0119058362 -0.0156563348
v 0.00626995482 0.0134935481 -0.015654301
v 0.00901995488 0.0087273381 -0.0132604044
v 0.00626995482 0.00713962619 -0.0132624381
v 0.00626995482 0.00714270044 -0.0156624361
v 0.00901995488 0.00873041235 -0.0156604023
f 119 120 122
f 122 120 121
f 123 124 126
f 126 124 125
f 127 128 130
f 130 128 129
f 132 158 131
f 131 158 160
f 159 145 144
f 144 145 146
f 144 146 143
f 143 146 147
f 143 147 142
f 142 147 148
f 142 148 141
f 141 148 149
f 141 149 140
f 140 149 150
f 140 150 139
f 139 150 151
f 139 151 138
f 138 151 152
f 138 152 137
f 137 152 153
f 137 153 136
f 136 153 154
f 136 154 135
f 135 154 155
f 135 155 134
f 134 155 156
f 134 156 133
f 133 156 157
f 133 157 132
f 132 157 158
f 161 162 164
f 164 162 163
f 166 182 165
f 165 182 183
f 165 183 178
f 178 183 177
f 177 183 184
f 177 184 176
f 176 184 175
f 175 184 174
f 174 184 179
f 174 179 173
f 173 179 172
f 172 179 180
f 172 180 171
f 171 180 170
f 170 180 181
f 170 181 169
f 169 181 168
f 168 181 167
f 167 181 182
f 167 182 166
f 186 202 185
f 185 202 203
f 185 203 198
f 198 203 197
f 197 203 204
f 197 204 196
f 196 204 195
f 195 204 194
f 194 204 199
f 194 199 193
f 193 199 192
f 192 199 200
f 192 200 191
f 191 200 190
f 190 200 201
f 190 201 189
f 189 201 188
f 188 201 187
f 187 201 202
f 187 202 186
f 205 206 208
f 208 206 207
f 209 210 212
f 212 210 211
v -0.00483415243 0.00600992624 -0.0305698401
v -0.00797631886 0.00600992624 -0.0310282326
v -0.00797631886 0.00400992624 -0.0310282326
v -0.00483415243 0.00400992624 -0.0305698401
v -0.0050159064 0.00380992625 -0.0327365217
v -0.0047570008 0.00380992625 -0.0333376939
v -0.00483336802 0.00380992625 -0.033987777
v -0.00522454554 0.00380992625 -0.034512582
v -0.00582571775 0.00380992625 -0.0347714876
v -0.00647580089 0.00380992625 -0.0346951204
v -0.00700060588 0.00380992625 -0.0343039429
v -0.00725951149 0.00380992625 -0.0337027706
v -0.00718314427 0.00380992625 -0.0330526875
v -0.00679196674 0.00380992625 -0.0325278825
v -0.00619079453 0.00380992625 -0.0322689769
v -0.0055407114 0.00380992625 -0.0323453441
v -0.00892190133 0.00380992625 -0.0339452871
v -0.00709697037 0.00380992625 -0.0362560504
v -0.00418332519 0.00380992625 -0.0358309956
v -0.00309461096 0.00380992625 -0.0330951774
v -0.00491954191 0.00380992625 -0.0307844141
v -0.0078331871 0.00380992625 -0.0312094689
v -0.00286608972 0.00600992624 -0.0330618397
v -0.00404019343 0.00600992624 -0.0360122319
v -0.00418332519 0.00620992619 -0.0358309956
v -0.00309461096 0.00620992619 -0.0330951774
v -0.00418332519 0.00380992625 -0.0358309956
v -0.00709697037 0.00380992625 -0.0362560504
v -0.00718235985 0.00400992624 -0.0364706244
v -0.00404019343 0.00400992624 -0.0360122319
v -0.00797631886 0.00400992624 -0.0310282326
v -0.00915042257 0.00400992624 -0.0339786248
v -0.00892190133 0.00380992625 -0.0339452871
v -0.0078331871 0.00380992625 -0.0312094689
v -0.00915042257 0.00400992624 -0.0339786248
v -0.00718235985 0.00400992624 -0.0364706244
v -0.00709697037 0.00380992625 -0.0362560504
v -0.00892190133 0.00380992625 -0.0339452871
v -0.0050159064 0.00620992619 -0.0327365217
v -0.0055407114 0.00620992619 -0.0323453441
v -0.00619079453 0.00620992619 -0.0322689769
v -0.00679196674 0.00620992619 -0.0325278825
v -0.00718314427 0.00620992619 -0.0330526875
v -0.00725951149 0.00620992619 -0.0337027706
v -0.00700060588 0.00620992619 -0.0343039429
v -0.00647580089 0.00620992619 -0.0346951204
v -0.00582571775 0.00620992619 -0.0347714876
v -0.00522454554 0.00620992619 -0.034512582
v -0.00483336802 0.00620992619 -0.033987777
v -0.0047570008 0.00620992619 -0.0333376939
v -0.0078331871 0.00620992619 -0.0312094689
v -0.00491954191 0.00620992619 -0.0307844141
v -0.00309461096 0.00620992619 -0.0330951774
v -0.00418332519 0.00620992619 -0.0358309956
v -0.00709697037 0.00620992619 -0.0362560504
v -0.00892190133 0.00620992619 -0.0339452871
v -0.0078331871 0.00620992619 -0.0312094689
v -0.00892190133 0.00620992619 -0.0339452871
v -0.00915042257 0.00600992624 -0.0339786248
v -0.00797631886 0.00600992624 -0.0310282326
v -0.00491954191 0.00380992625 -0.0307844141
v -0.00309461096 0.00380992625 -0.0330951774
v -0.00286608972 0.00400992624 -0.0330618397
v -0.00483415243 0.00400992624 -0.0305698401
v -0.0050159064 0.00620992619 -0.0327365217
v -0.0047570008 0.00620992619 -0.0333376939
v -0.00483336802 0.00620992619 -0.033987777
v -0.00522454554 0.00620992619 -0.034512582
v -0.00582571775 0.00620992619 -0.0347714876
v -0.00647580089 0.00620992619 -0.0346951204
v -0.00700060588 0.00620992619 -0.0343039429
v -0.00725951149 0.00620992619 -0.0337027706
v -0.00718314427 0.00620992619 -0.0330526875
v -0.00679196674 0.00620992619 -0.0325278825
v -0.00619079453 0.00620992619 -0.0322689769
v -0.0055407114 0.00620992619 -0.0323453441
v -0.0050159064 0.00380992625 -0.0327365217
v -0.0055407114 0.00380992625 -0.0323453441
v -0.00619079453 0.00380992625 -0.0322689769
v -0.00679196674 0.00380992625 -0.0325278825
v -0.00718314427 0.00380992625 -0.0330526875
v -0.00725951149 0.00380992625 -0.0337027706
v -0.00700060588 0.00380992625 -0.0343039429
v -0.00647580089 0.00380992625 -0.0346951204
v -0.00582571775 0.00380992625 -0.0347714876
v -0.00522454554 0.00380992625 -0.034512582
v -0.00483336802 0.00380992625 -0.033987777
v -0.0047570008 0.00380992625 -0.0333376939
v -0.0050159064 0.00620992619 -0.0327365217
v -0.0050159064 0.00380992625 -0.0327365217
v -0.00892190133 0.00620992619 -0.0339452871
v -0.00709697037 0.00620992619 -0.0362560504
v -0.00718235985 0.00600992624 -0.0364706244
v -0.00915042257 0.00600992624 -0.0339786248
v -0.00309461096 0.00380992625 -0.0330951774
v -0.00418332519 0.00380992625 -0.0358309956
v -0.00404019343 0.00400992624 -0.0360122319
v -0.00286608972 0.00400992624 -0.0330618397
v -0.00286608972 0.00600992624 -0.0330618397
v -0.00483415243 0.00600992624 -0.0305698401
v -0.00483415243 0.00400992624 -0.0305698401
v -0.00286608972 0.00400992624 -0.0330618397
v -0.00718235985 0.00600992624 -0.0364706244
v -0.00404019343 0.00600992624 -0.0360122319
v -0.00404019343 0.00400992624 -0.0360122319
v -0.00718235985 0.00400992624 -0.0364706244
v -0.00709697037 0.00620992619 -0.0362560504
v -0.00418332519 0.00620992619 -0.0358309956
v -0.00404019343 0.00600992624 -0.0360122319
v -0.00718235985 0.00600992624 -0.0364706244
v -0.00404019343 0.00600992624 -0.0360122319
v -0.00286608972 0.00600992624 -0.0330618397
v -0.00286608972 0.00400992624 -0.0330618397
v -0.00404019343 0.00400992624 -0.0360122319
v -0.00483415243 0.00600992624 -0.0305698401
v -0.00286608972 0.00600992624 -0.0330618397
v -0.00309461096 0.00620992619 -0.0330951774
v -0.00491954191 0.00620992619 -0.0307844141
v -0.0078331871 0.00380992625 -0.0312094689
v -0.00491954191 0.00380992625 -0.0307844141
v -0.00483415243 0.00400992624 -0.0305698401
v -0.00797631886 0.00400992624 -0.0310282326
v -0.00915042257 0.00600992624 -0.0339786248
v -0.00718235985 0.00600992624 -0.0364706244
v -0.00718235985 0.00400992624 -0.0364706244
v -0.00915042257 0.00400992624 -0.0339786248
v -0.00797631886 0.00600992624 -0.0310282326
v -0.00915042257 0.00600992624 -0.0339786248
v -0.00915042257 0.00400992624 -0.0339786248
v -0.00797631886 0.00400992624 -0.0310282326
v -0.00491954191 0.00620992619 -0.0307844141
v -0.0078331871 0.00620992619 -0.0312094689
v -0.00797631886 0.00600992624 -0.0310282326
v -0.00483415243 0.00600992624 -0.0305698401
f 213 214 216
f 216 214 215
f 218 232 217
f 217 232 233
f 217 233 228
f 228 233 227
f 227 233 234
f 227 234 226
f 226 234 225
f 225 234 229
f 225 229 224
f 224 229 223
f 223 229 230
f 223 230 222
f 222 230 221
f 221 230 231
f 221 231 220
f 220 231 219
f 219 231 232
f 219 232 218
f 236 237 235
f 235 237 238
f 240 241 239
f 239 241 242
f 243 244 246
f 246 244 245
f 248 249 247
f 247 249 250
f 252 264 251
f 251 264 265
f 251 265 262
f 262 265 261
f 261 265 266
f 261 266 260
f 260 266 259
f 259 266 267
f 259 267 258
f 258 267 257
f 257 267 268
f 257 268 256
f 256 268 255
f 255 268 263
f 255 263 254
f 254 263 253
f 253 263 264
f 253 264 252
f 270 271 269
f 269 271 272
f 273 274 276
f 276 274 275
f 278 300 277
f 277 300 302
f 301 289 288
f 288 289 290
f 288 290 287
f 287 290 291
f 287 291 286
f 286 291 292
f 286 292 285
f 285 292 293
f 285 293 284
f 284 293 294
f 284 294 283
f 283 294 295
f 283 295 282
f 282 295 296
f 282 296 281
f 281 296 297
f 281 297 280
f 280 297 298
f 280 298 279
f 279 298 299
f 279 299 278
f 278 299 300
f 303 304 306
f 306 304 305
f 307 308 310
f 310 308 309
f 311 312 314
f 314 312 313
f 315 316 318
f 318 316 317
f 319 320 322
f 322 320 321
f 323 324 326
f 326 324 325
f 328 329 327
f 327 329 330
f 332 333 331
f 331 333 334
f 335 336 338
f 338 336 337
f 339 340 342
f 342 340 341
f 343 344 346
f 346 344 345
v 0.00227779489 0.00600992624 -0.0336661073
v 0.00273618745 0.00600992624 -0.0368082737
v 0.00273618745 0.00400992624 -0.0368082737
v 0.00227779489 0.00400992624 -0.0336661073
v 0.00444447648 0.00380992625 -0.0338478612
v 0.00504564869 0.00380992625 -0.0335889556
v 0.00569573182 0.00380992625 -0.0336653228
v 0.00622053681 0.00380992625 -0.0340565004
v 0.00647944242 0.00380992625 -0.0346576726
v 0.0064030752 0.00380992625 -0.0353077557
v 0.00601189768 0.00380992625 -0.0358325607
v 0.00541072546 0.00380992625 -0.0360914663
v 0.00476064233 0.00380992625 -0.0360150991
v 0.00423583734 0.00380992625 -0.0356239216
v 0.00397693173 0.00380992625 -0.0350227494
v 0.00405329895 0.00380992625 -0.0343726662
v 0.00565324189 0.00380992625 -0.0377538561
v 0.00796400527 0.00380992625 -0.0359289252
v 0.00753895046 0.00380992625 -0.03301528
v 0.00480313226 0.00380992625 -0.0319265658
v 0.00249236888 0.00380992625 -0.0337514967
v 0.0029174237 0.00380992625 -0.0366651419
v 0.00476979451 0.00600992624 -0.0316980445
v 0.0077201867 0.00600992624 -0.0328721482
v 0.00753895046 0.00620992619 -0.03301528
v 0.00480313226 0.00620992619 -0.0319265658
v 0.00753895046 0.00380992625 -0.03301528
v 0.00796400527 0.00380992625 -0.0359289252
v 0.00817857926 0.00400992624 -0.0360143147
v 0.0077201867 0.00400992624 -0.0328721482
v 0.00273618745 0.00400992624 -0.0368082737
v 0.00568657964 0.00400992624 -0.0379823774
v 0.00565324189 0.00380992625 -0.0377538561
v 0.0029174237 0.00380992625 -0.0366651419
v 0.00568657964 0.00400992624 -0.0379823774
v 0.00817857926 0.00400992624 -0.0360143147
v 0.00796400527 0.00380992625 -0.0359289252
v 0.00565324189 0.00380992625 -0.0377538561
v 0.00444447648 0.00620992619 -0.0338478612
v 0.00405329895 0.00620992619 -0.0343726662
v 0.00397693173 0.00620992619 -0.0350227494
v 0.00423583734 0.00620992619 -0.0356239216
v 0.00476064233 0.00620992619 -0.0360150991
v 0.00541072546 0.00620992619 -0.0360914663
v 0.00601189768 0.00620992619 -0.0358325607
v 0.0064030752 0.00620992619 -0.0353077557
v 0.00647944242 0.00620992619 -0.0346576726
v 0.00622053681 0.00620992619 -0.0340565004
v 0.00569573182 0.00620992619 -0.0336653228
v 0.00504564869 0.00620992619 -0.0335889556
v 0.0029174237 0.00620992619 -0.0366651419
v 0.00249236888 0.00620992619 -0.0337514967
v 0.00480313226 0.00620992619 -0.0319265658
v 0.00753895046 0.00620992619 -0.03301528
v 0.00796400527 0.00620992619 -0.0359289252
v 0.00565324189 0.00620992619 -0.0377538561
v 0.0029174237 0.00620992619 -0.0366651419
v 0.00565324189 0.00620992619 -0.0377538561
v 0.00568657964 0.00600992624 -0.0379823774
v 0.00273618745 0.00600992624 -0.0368082737
v 0.00249236888 0.00380992625 -0.0337514967
v 0.00480313226 0.00380992625 -0.0319265658
v 0.00476979451 0.00400992624 -0.0316980445
v 0.00227779489 0.00400992624 -0.0336661073
v 0.00444447648 0.00620992619 -0.0338478612
v 0.00504564869 0.00620992619 -0.0335889556
v 0.00569573182 0.00620992619 -0.0336653228
v 0.00622053681 0.00620992619 -0.0340565004
v 0.00647944242 0.00620992619 -0.0346576726
v 0.0064030752 0.00620992619 -0.0353077557
v 0.00601189768 0.00620992619 -0.0358325607
v 0.00541072546 0.00620992619 -0.0360914663
v 0.00476064233 0.00620992619 -0.0360150991
v 0.00423583734 0.00620992619 -0.0356239216
v 0.00397693173 0.00620992619 -0.0350227494
v 0.00405329895 0.00620992619 -0.0343726662
v 0.00444447648 0.00380992625 -0.0338478612
v 0.00405329895 0.00380992625 -0.0343726662
v 0.00397693173 0.00380992625 -0.0350227494
v 0.00423583734 0.00380992625 -0.0356239216
v 0.00476064233 0.00380992625 -0.0360150991
v 0.00541072546 0.00380992625 -0.0360914663
v 0.00601189768 0.00380992625 -0.0358325607
v 0.0064030752 0.00380992625 -0.0353077557
v 0.00647944242 0.00380992625 -0.0346576726
v 0.00622053681 0.00380992625 -0.0340565004
v 0.00569573182 0.00380992625 -0.0336653228
v 0.00504564869 0.00380992625 -0.0335889556
v 0.00444447648 0.00620992619 -0.0338478612
v 0.00444447648 0.00380992625 -0.0338478612
v 0.00565324189 0.00620992619 -0.0377538561
v 0.00796400527 0.00620992619 -0.0359289252
v 0.00817857926 0.00600992624 -0.0360143147
v 0.00568657964 0.00600992624 -0.0379823774
v 0.00480313226 0.00380992625 -0.0319265658
v 0.00753895046 0.00380992625 -0.03301528
v 0.0077201867 0.00400992624 -0.0328721482
v 0.00476979451 0.00400992624 -0.0316980445
v 0.00476979451 0.00600992624 -0.0316980445
v 0.00227779489 0.00600992624 -0.0336661073
v 0.00227779489 0.00400992624 -0.0336661073
v 0.00476979451 0.00400992624 -0.0316980445
v 0.00817857926 0.00600992624 -0.0360143147
v 0.0077201867 0.00600992624 -0.0328721482
v 0.0077201867 0.00400992624 -0.0328721482
v 0.00817857926 0.00400992624 -0.0360143147
v 0.00796400527 0.00620992619 -0.0359289252
v 0.00753895046 0.00620992619 -0.03301528
v 0.0077201867 0.00600992624 -0.0328721482
v 0.00817857926 0.00600992624 -0.0360143147
v 0.0077201867 0.00600992624 -0.0328721482
v 0.00476979451 0.00600992624 -0.0316980445
v 0.00476979451 0.00400992624 -0.0316980445
v 0.0077201867 0.00400992624 -0.0328721482
v 0.00227779489 0.00600992624 -0.0336661073
v 0.00476979451 0.00600992624 -0.0316980445
v 0.00480313226 0.00620992619 -0.0319265658
v 0.00249236888 0.00620992619 -0.0337514967
v 0.0029174237 0.00380992625 -0.0366651419
v 0.00249236888 0.00380992625 -0.0337514967
v 0.00227779489 0.00400992624 -0.0336661073
v 0.00273618745 0.00400992624 -0.0368082737
v 0.00568657964 0.00600992624 -0.0379823774
v 0.00817857926 0.00600992624 -0.0360143147
v 0.00817857926 0.00400992624 -0.0360143147
v 0.00568657964 0.00400992624 -0.0379823774
v 0.00273618745 0.00600992624 -0.0368082737
v 0.00568657964 0.00600992624 -0.0379823774
v 0.00568657964 0.00400992624 -0.0379823774
v 0.00273618745 0.00400992624 -0.0368082737
v 0.00249236888 0.00620992619 -0.0337514967
v 0.0029174237 0.00620992619 -0.0366651419
v 0.00273618745 0.00600992624 -0.0368082737
v 0.00227779489 0.00600992624 -0.0336661073
f 347 348 350
f 350 348 349
f 352 366 351
f 351 366 367
f 351 367 362
f 362 367 361
f 361 367 368
f 361 368 360
f 360 368 359
f 359 368 363
f 359 363 358
f 358 363 357
f 357 363 364
f 357 364 356
f 356 364 355
f 355 364 365
f 355 365 354
f 354 365 353
f 353 365 366
f 353 366 352
f 370 371 369
f 369 371 372
f 374 375 373
f 373 375 376
f 377 378 380
f 380 378 379
f 382 383 381
f 381 383 384
f 386 398 385
f 385 398 399
f 385 399 396
f 396 399 395
f 395 399 400
f 395 400 394
f 394 400 393
f 393 400 401
f 393 401 392
f 392 401 391
f 391 401 402
f 391 402 390
f 390 402 389
f 389 402 397
f 389 397 388
f 388 397 387
f 387 397 398
f 387 398 386
f 404 405 403
f 403 405 406
f 407 408 410
f 410 408 409
f 412 434 411
f 411 434 436
f 435 423 422
f 422 423 424
f 422 424 421
f 421 424 425
f 421 425 420
f 420 425 426
f 420 426 419
f 419 426 427
f 419 427 418
f 418 427 428
f 418 428 417
f 417 428 429
f 417 429 416
f 416 429 430
f 416 430 415
f 415 430 431
f 415 431 414
f 414 431 432
f 414 432 413
f 413 432 433
f 413 433 412
f 412 433 434
f 437 438 440
f 440 438 439
f 441 442 444
f 444 442 443
f 445 446 448
f 448 446 447
f 449 450 452
f 452 450 451
f 453 454 456
f 456 454 455
f 457 458 460
f 460 458 459
f 462 463 461
f 461 463 464
f 466 467 465
f 465 467 468
f 469 470 472
f 472 470 471
f 473 474 476
f 476 474 475
f 477 478 480
f 480 478 479
v 0.00537406208 0.00600992624 -0.0265541599
v 0.0085162285 0.00600992624 -0.0260957674
v 0.0085162285 0.00400992624 -0.0260957674
v 0.00537406208 0.00400992624 -0.0265541599
v 0.00555581605 0.00380992625 -0.0243874783
v 0.00529691044 0.00380992625 -0.0237863061
v 0.00537327766 0.00380992625 -0.023136223
v 0.00576445519 0.00380992625 -0.022611418
v 0.0063656274 0.00380992625 -0.0223525124
v 0.00701571053 0.00380992625 -0.0224288796
v 0.00754051552 0.00380992625 -0.0228200571
v 0.00779942113 0.00380992625 -0.0234212294
v 0.00772305391 0.00380992625 -0.0240713125
v 0.00733187639 0.00380992625 -0.0245961175
v 0.00673070417 0.00380992625 -0.0248550231
v 0.00608062104 0.00380992625 -0.0247786559
v 0.00946181097 0.00380992625 -0.0231787129
v 0.00763688002 0.00380992625 -0.0208679496
v 0.00472323483 0.00380992625 -0.0212930044
v 0.0036345206 0.00380992625 -0.0240288226
v 0.00545945156 0.00380992625 -0.0263395859
v 0.00837309674 0.00380992625 -0.0259145311
v 0.00340599936 0.00600992624 -0.0240621603
v 0.00458010307 0.00600992624 -0.0211117681
v 0.00472323483 0.00620992619 -0.0212930044
v 0.0036345206 0.00620992619 -0.0240288226
v 0.00472323483 0.00380992625 -0.0212930044
v 0.00763688002 0.00380992625 -0.0208679496
v 0.00772226949 0.00400992624 -0.0206533756
v 0.00458010307 0.00400992624 -0.0211117681
v 0.0085162285 0.00400992624 -0.0260957674
v 0.00969033221 0.00400992624 -0.0231453752
v 0.00946181097 0.00380992625 -0.0231787129
v 0.00837309674 0.00380992625 -0.0259145311
v 0.00969033221 0.00400992624 -0.0231453752
v 0.00772226949 0.00400992624 -0.0206533756
v 0.00763688002 0.00380992625 -0.0208679496
v 0.00946181097 0.00380992625 -0.0231787129
v 0.00555581605 0.00620992619 -0.0243874783
v 0.00608062104 0.00620992619 -0.0247786559
v 0.00673070417 0.00620992619 -0.0248550231
v 0.00733187639 0.00620992619 -0.0245961175
v 0.00772305391 0.00620992619 -0.0240713125
v 0.00779942113 0.00620992619 -0.0234212294
v 0.00754051552 0.00620992619 -0.0228200571
v 0.00701571053 0.00620992619 -0.0224288796
v 0.0063656274 0.00620992619 -0.0223525124
v 0.00576445519 0.00620992619 -0.022611418
v 0.00537327766 0.00620992619 -0.023136223
v 0.00529691044 0.00620992619 -0.0237863061
v 0.00837309674 0.00620992619 -0.0259145311
v 0.00545945156 0.00620992619 -0.0263395859
v 0.0036345206 0.00620992619 -0.0240288226
v 0.00472323483 0.00620992619 -0.0212930044
v 0.00763688002 0.00620992619 -0.0208679496
v 0.00946181097 0.00620992619 -0.0231787129
v 0.00837309674 0.00620992619 -0.0259145311
v 0.00946181097 0.00620992619 -0.0231787129
v 0.00969033221 0.00600992624 -0.0231453752
v 0.0085162285 0.00600992624 -0.0260957674
v 0.00545945156 0.00380992625 -0.0263395859
v 0.0036345206 0.00380992625 -0.0240288226
v 0.00340599936 0.00400992624 -0.0240621603
v 0.00537406208 0.00400992624 -0.0265541599
v 0.00555581605 0.00620992619 -0.0243874783
v 0.00529691044 0.00620992619 -0.0237863061
v 0.00537327766 0.00620992619 -0.023136223
v 0.00576445519 0.00620992619 -0.022611418
v 0.0063656274 0.00620992619 -0.0223525124
v 0.00701571053 0.00620992619 -0.0224288796
v 0.00754051552 0.00620992619 -0.0228200571
v 0.00779942113 0.00620992619 -0.0234212294
v 0.00772305391 0.00620992619 -0.0240713125
v 0.00733187639 0.00620992619 -0.0245961175
v 0.00673070417 0.00620992619 -0.0248550231
v 0.00608062104 0.00620992619 -0.0247786559
v 0.00555581605 0.00380992625 -0.0243874783
v 0.00608062104 0.00380992625 -0.0247786559
v 0.00673070417 0.00380992625 -0.0248550231
v 0.00733187639 0.00380992625 -0.0245961175
v 0.00772305391 0.00380992625 -0.0240713125
v 0.00779942113 0.00380992625 -0.0234212294
v 0.00754051552 0.00380992625 -0.0228200571
v 0.00701571053 0.00380992625 -0.0224288796
v 0.0063656274 0.00380992625 -0.0223525124
v 0.00576445519 0.00380992625 -0.022611418
v 0.00537327766 0.00380992625 -0.023136223
v 0.00529691044 0.00380992625 -0.0237863061
v 0.00555581605 0.00620992619 -0.0243874783
v 0.00555581605 0.00380992625 -0.0243874783
v 0.00946181097 0.00620992619 -0.0231787129
v 0.00763688002 0.00620992619 -0.0208679496
v 0.00772226949 0.00600992624 -0.0206533756
v 0.00969033221 0.00600992624 -0.0231453752
v 0.0036345206 0.00380992625 -0.0240288226
v 0.00472323483 0.00380992625 -0.0212930044
v 0.00458010307 0.00400992624 -0.0211117681
v 0.00340599936 0.00400992624 -0.0240621603
v 0.00340599936 0.00600992624 -0.0240621603
v 0.00537406208 0.00600992624 -0.0265541599
v 0.00537406208 0.00400992624 -0.0265541599
v 0.00340599936 0.00400992624 -0.0240621603
v 0.00772226949 0.00600992624 -0.0206533756
v 0.00458010307 0.00600992624 -0.0211117681
v 0.00458010307 0.00400992624 -0.0211117681
v 0.00772226949 0.00400992624 -0.0206533756
v 0.00763688002 0.00620992619 -0.0208679496
v 0.00472323483 0.00620992619 -0.0212930044
v 0.00458010307 0.00600992624 -0.0211117681
v 0.00772226949 0.00600992624 -0.0206533756
v 0.00458010307 0.00600992624 -0.0211117681
v 0.00340599936 0.00600992624 -0.0240621603
v 0.00340599936 0.00400992624 -0.0240621603
v 0.00458010307 0.00400992624 -0.0211117681
v 0.00537406208 0.00600992624 -0.0265541599
v 0.00340599936 0.00600992624 -0.0240621603
v 0.0036345206 0.00620992619 -0.0240288226
v 0.00545945156 0.00620992619 -0.0263395859
v 0.00837309674 0.00380992625 -0.0259145311
v 0.00545945156 0.00380992625 -0.0263395859
v 0.00537406208 0.00400992624 -0.0265541599
v 0.0085162285 0.00400992624 -0.0260957674
v 0.00969033221 0.00600992624 -0.0231453752
v 0.00772226949 0.00600992624 -0.0206533756
v 0.00772226949 0.00400992624 -0.0206533756
v 0.00969033221 0.00400992624 -0.0231453752
v 0.0085162285 0.00600992624 -0.0260957674
v 0.00969033221 0.00600992624 -0.0231453752
v 0.00969033221 0.00400992624 -0.0231453752
v 0.0085162285 0.00400992624 -0.0260957674
v 0.00545945156 0.00620992619 -0.0263395859
v 0.00837309674 0.00620992619 -0.0259145311
v 0.0085162285 0.00600992624 -0.0260957674
v 0.00537406208 0.00600992624 -0.0265541599
f 481 482 484
f 484 482 483
f 486 500 485
f 485 500 501
f 485 501 496
f 496 501 495
f 495 501 502
f 495 502 494
f 494 502 493
f 493 502 497
f 493 497 492
f 492 497 491
f 491 497 498
f 491 498 490
f 490 498 489
f 489 498 499
f 489 499 488
f 488 499 487
f 487 499 500
f 487 500 486
f 504 505 503
f 503 505 506
f 508 509 507
f 507 509 510
f 511 512 514
f 514 512 513
f 516 517 515
f 515 517 518
f 520 532 519
f 519 532 533
f 519 533 530
f 530 533 529
f 529 533 534
f 529 534 528
f 528 534 527
f 527 534 535
f 527 535 526
f 526 535 525
f 525 535 536
f 525 536 524
f 524 536 523
f 523 536 531
f 523 531 522
f 522 531 521
f 521 531 532
f 521 532 520
f 538 539 537
f 537 539 540
f 541 542 544
f 544 542 543
f 546 568 545
f 545 568 570
f 569 557 556
f 556 557 558
f 556 558 555
f 555 558 559
f 555 559 554
f 554 559 560
f 554 560 553
f 553 560 561
f 553 561 552
f 552 561 562
f 552 562 551
f 551 562 563
f 551 563 550
f 550 563 564
f 550 564 549
f 549 564 565
f 549 565 548
f 548 565 566
f 548 566 547
f 547 566 567
f 547 567 546
f 546 567 568
f 571 572 574
f 574 572 573
f 575 576 578
f 578 576 577
f 579 580 582
f 582 580 581
f 583 584 586
f 586 584 585
f 587 588 590
f 590 588 589
f 591 592 594
f 594 592 593
f 596 597 595
f 595 597 598
f 600 601 599
f 599 601 602
f 603 604 606
f 606 604 605
f 607 608 610
f 610 608 609
f 611 612 614
f 614 612 613
v -0.00173788525 0.00600992624 -0.0234578927
v -0.00219627781 0.00600992624 -0.0203157263
v -0.00219627781 0.00400992624 -0.0203157263
v -0.00173788525 0.00400992624 -0.0234578927
v -0.00390456683 0.00380992625 -0.0232761388
v -0.00450573904 0.00380992625 -0.0235350444
v -0.00515582218 0.00380992625 -0.0234586772
v -0.00568062717 0.00380992625 -0.0230674996
v -0.00593953278 0.00380992625 -0.0224663274
v -0.00586316556 0.00380992625 -0.0218162443
v -0.00547198803 0.00380992625 -0.0212914393
v -0.00487081582 0.00380992625 -0.0210325337
v -0.00422073269 0.00380992625 -0.0211089009
v -0.0036959277 0.00380992625 -0.0215000784
v -0.00343702209 0.00380992625 -0.0221012506
v -0.00351338931 0.00380992625 -0.0227513338
v -0.00511333224 0.00380992625 -0.0193701439
v -0.00742409562 0.00380992625 -0.0211950748
v -0.00699904081 0.00380992625 -0.02410872
v -0.00426322262 0.00380992625 -0.0251974342
v -0.00195245924 0.00380992625 -0.0233725033
v -0.00237751405 0.00380992625 -0.0204588581
v -0.00422988487 0.00600992624 -0.0254259555
v -0.00718027706 0.00600992624 -0.0242518518
v -0.00699904081 0.00620992619 -0.02410872
v -0.00426322262 0.00620992619 -0.0251974342
v -0.00699904081 0.00380992625 -0.02410872
v -0.00742409562 0.00380992625 -0.0211950748
v -0.00763866962 0.00400992624 -0.0211096853
v -0.00718027706 0.00400992624 -0.0242518518
v -0.00219627781 0.00400992624 -0.0203157263
v -0.00514667 0.00400992624 -0.0191416226
v -0.00511333224 0.00380992625 -0.0193701439
v -0.00237751405 0.00380992625 -0.0204588581
v -0.00514667 0.00400992624 -0.0191416226
v -0.00763866962 0.00400992624 -0.0211096853
v -0.00742409562 0.00380992625 -0.0211950748
v -0.00511333224 0.00380992625 -0.0193701439
v -0.00390456683 0.00620992619 -0.0232761388
v -0.00351338931 0.00620992619 -0.0227513338
v -0.00343702209 0.00620992619 -0.0221012506
v -0.0036959277 0.00620992619 -0.0215000784
v -0.00422073269 0.00620992619 -0.0211089009
v -0.00487081582 0.00620992619 -0.0210325337
v -0.00547198803 0.00620992619 -0.0212914393
v -0.00586316556 0.00620992619 -0.0218162443
v -0.00593953278 0.00620992619 -0.0224663274
v -0.00568062717 0.00620992619 -0.0230674996
v -0.00515582218 0.00620992619 -0.0234586772
v -0.00450573904 0.00620992619 -0.0235350444
v -0.00237751405 0.00620992619 -0.0204588581
v -0.00195245924 0.00620992619 -0.0233725033
v -0.00426322262 0.00620992619 -0.0251974342
v -0.00699904081 0.00620992619 -0.02410872
v -0.00742409562 0.00620992619 -0.0211950748
v -0.00511333224 0.00620992619 -0.0193701439
v -0.00237751405 0.00620992619 -0.0204588581
v -0.00511333224 0.00620992619 -0.0193701439
v -0.00514667 0.00600992624 -0.0191416226
v -0.00219627781 0.00600992624 -0.0203157263
v -0.00195245924 0.00380992625 -0.0233725033
v -0.00426322262 0.00380992625 -0.0251974342
v -0.00422988487 0.00400992624 -0.0254259555
v -0.00173788525 0.00400992624 -0.0234578927
v -0.00390456683 0.00620992619 -0.0232761388
v -0.00450573904 0.00620992619 -0.0235350444
v -0.00515582218 0.00620992619 -0.0234586772
v -0.00568062717 0.00620992619 -0.0230674996
v -0.00593953278 0.00620992619 -0.0224663274
v -0.00586316556 0.00620992619 -0.0218162443
v -0.00547198803 0.00620992619 -0.0212914393
v -0.00487081582 0.00620992619 -0.0210325337
v -0.00422073269 0.00620992619 -0.0211089009
v -0.0036959277 0.00620992619 -0.0215000784
v -0.00343702209 0.00620992619 -0.0221012506
v -0.00351338931 0.00620992619 -0.0227513338
v -0.00390456683 0.00380992625 -0.0232761388
v -0.00351338931 0.00380992625 -0.0227513338
v -0.00343702209 0.00380992625 -0.0221012506
v -0.0036959277 0.00380992625 -0.0215000784
v -0.00422073269 0.00380992625 -0.0211089009
v -0.00487081582 0.00380992625 -0.0210325337
v -0.00547198803 0.00380992625 -0.0212914393
v -0.00586316556 0.00380992625 -0.0218162443
v -0.00593953278 0.00380992625 -0.0224663274
v -0.00568062717 0.00380992625 -0.0230674996
v -0.00515582218 0.00380992625 -0.0234586772
v -0.00450573904 0.00380992625 -0.0235350444
v -0.00390456683 0.00620992619 -0.0232761388
v -0.00390456683 0.00380992625 -0.0232761388
v -0.00511333224 0.00620992619 -0.0193701439
v -0.00742409562 0.00620992619 -0.0211950748
v -0.00763866962 0.00600992624 -0.0211096853
v -0.00514667 0.00600992624 -0.0191416226
v -0.00426322262 0.00380992625 -0.0251974342
v -0.00699904081 0.00380992625 -0.02410872
v -0.00718027706 0.00400992624 -0.0242518518
v -0.00422988487 0.00400992624 -0.0254259555
v -0.00422988487 0.00600992624 -0.0254259555
v -0.00173788525 0.00600992624 -0.0234578927
v -0.00173788525 0.00400992624 -0.0234578927
v -0.00422988487 0.00400992624 -0.0254259555
v -0.00763866962 0.00600992624 -0.0211096853
v -0.00718027706 0.00600992624 -0.0242518518
v -0.00718027706 0.00400992624 -0.0242518518
v -0.00763866962 0.00400992624 -0.0211096853
v -0.00742409562 0.00620992619 -0.0211950748
v -0.00699904081 0.00620992619 -0.02410872
v -0.00718027706 0.00600992624 -0.0242518518
v -0.00763866962 0.00600992624 -0.0211096853
v -0.00718027706 0.00600992624 -0.0242518518
v -0.00422988487 0.00600992624 -0.0254259555
v -0.00422988487 0.00400992624 -0.0254259555
v -0.00718027706 0.00400992624 -0.0242518518
v -0.00173788525 0.00600992624 -0.0234578927
v -0.00422988487 0.00600992624 -0.0254259555
v -0.00426322262 0.00620992619 -0.0251974342
v -0.00195245924 0.00620992619 -0.0233725033
v -0.00237751405 0.00380992625 -0.0204588581
v -0.00195245924 0.00380992625 -0.0233725033
v -0.00173788525 0.00400992624 -0.0234578927
v -0.00219627781 0.00400992624 -0.0203157263
v -0.00514667 0.00600992624 -0.0191416226
v -0.00763866962 0.00600992624 -0.0211096853
v -0.00763866962 0.00400992624 -0.0211096853
v -0.00514667 0.00400992624 -0.0191416226
v -0.00219627781 0.00600992624 -0.0203157263
v -0.00514667 0.00600992624 -0.0191416226
v -0.00514667 0.00400992624 -0.0191416226
v -0.00219627781 0.00400992624 -0.0203157263
v -0.00195245924 0.00620992619 -0.0233725033
v -0.00237751405 0.00620992619 -0.0204588581
v -0.00219627781 0.00600992624 -0.0203157263
v -0.00173788525 0.00600992624 -0.0234578927
f 615 616 618
f 618 616 617
f 620 634 619
f 619 634 635
f 619 635 630
f 630 635 629
f 629 635 636
f 629 636 628
f 628 636 627
f 627 636 631
f 627 631 626
f 626 631 625
f 625 631 632
f 625 632 624
f 624 632 623
f 623 632 633
f 623 633 622
f 622 633 621
f 621 633 634
f 621 634 620
f 638 639 637
f 637 639 640
f 642 643 641
f 641 643 644
f 645 646 648
f 648 646 647
f 650 651 649
f 649 651 652
f 654 666 653
f 653 666 667
f 653 667 664
f 664 667 663
f 663 667 668
f 663 668 662
f 662 668 661
f 661 668 669
f 661 669 660
f 660 669 659
f 659 669 670
f 659 670 658
f 658 670 657
f 657 670 665
f 657 665 656
f 656 665 655
f 655 665 666
f 655 666 654
f 672 673 671
f 671 673 674
f 675 676 678
f 678 676 677
f 680 702 679
f 679 702 704
f 703 691 690
f 690 691 692
f 690 692 689
f 689 692 693
f 689 693 688
f 688 693 694
f 688 694 687
f 687 694 695
f 687 695 686
f 686 695 696
f 686 696 685
f 685 696 697
f 685 697 684
f 684 697 698
f 684 698 683
f 683 698 699
f 683 699 682
f 682 699 700
f 682 700 681
f 681 700 701
f 681 701 680
f 680 701 702
f 705 706 708
f 708 706 707
f 709 710 712
f 712 710 711
f 713 714 716
f 716 714 715
f 717 718 720
f 720 718 719
f 721 722 724
f 724 722 723
f 725 726 728
f 728 726 727
f 730 731 729
f 729 731 732
f 734 735 733
f 733 735 736
f 737 738 740
f 740 738 739
f 741 742 744
f 744 742 743
f 745 746 748
f 748 746 747
