v 0.00027 0.285298 -0.026562
v 0.00144557049 0.285298 -0.0269439661
v 0.00217211296 0.285298 -0.027943966
v 0.00217211296 0.285298 -0.029180034
v 0.00144557049 0.285298 -0.0301800339
v 0.00027 0.285298 -0.030562
v -0.000905570488 0.285298 -0.0301800339
v -0.00163211296 0.285298 -0.029180034
v -0.00163211296 0.285298 -0.027943966
v -0.000905570488 0.285298 -0.0269439661
v 0.00027 0.285298 -0.026562
v -0.000595904465 0.285329729 -0.026562
v -0.00099725316 0.285459836 -0.026562
v -0.00123000006 0.285798 -0.026562
v -0.00205885674 0.285798 -0.0276529202
v -0.00218827019 0.285798 -0.0290168713
v -0.00157937239 0.285798 -0.0302442074
v -0.000415038418 0.285798 -0.0309663132
v 0.000955038418 0.285798 -0.0309663132
v 0.00211937239 0.285798 -0.0302442074
v 0.00272827019 0.285798 -0.0290168713
v 0.00259885674 0.285798 -0.0276529202
v 0.00177000006 0.285798 -0.026562
v 0.00153725316 0.285459836 -0.026562
v 0.00113590447 0.285329729 -0.026562
v 0.00027 0.285298 -0.030562
v 0.00027 0.285444446 -0.0309155533
v 0.00204869692 0.285444446 -0.0270207502
v 0.00259959762 0.285444446 -0.0282270544
v 0.00241086741 0.285444446 -0.0295397014
v 0.00154242699 0.285444446 -0.0305419352
v -0.00100242699 0.285444446 -0.0305419352
v -0.00187086741 0.285444446 -0.0295397014
v -0.00205959762 0.285444446 -0.0282270544
v -0.00150869692 0.285444446 -0.0270207502
v 0.00027 0.285444446 -0.0309155533
v -0.000415038418 0.285798 -0.0309663132
v 0.00027 0.310298 -0.031062
v -0.00098 0.310298 -0.0307270635
v -0.00189506347 0.310298 -0.029812
v -0.00223 0.310298 -0.028562
v -0.00189506347 0.310298 -0.027312
v -0.00098 0.310298 -0.0263969365
v 0.00027 0.310298 -0.026062
v 0.00152 0.310298 -0.0263969365
v 0.00243506347 0.310298 -0.027312
v 0.00277 0.310298 -0.028562
v 0.00243506347 0.310298 -0.029812
v 0.00152 0.310298 -0.0307270635
v 0.00177000006 0.304898 -0.026562
v 0.000970000003 0.305298 -0.0261620001
v -0.000430000003 0.305298 -0.0261620001
v -0.00123000006 0.304898 -0.026562
v 0.00177000006 0.304898 -0.026562
v -0.00123000006 0.304898 -0.026562
v -0.00123000006 0.285798 -0.026562
v -0.00099725316 0.285459836 -0.026562
v -0.000595904465 0.285329729 -0.026562
v 0.00027 0.285298 -0.026562
v 0.00113590447 0.285329729 -0.026562
v 0.00153725316 0.285459836 -0.026562
v 0.00177000006 0.285798 -0.026562
v 0.00027 0.285298 -0.026562
v -0.000905570488 0.285298 -0.0269439661
v -0.00163211296 0.285298 -0.027943966
v -0.00163211296 0.285298 -0.029180034
v -0.000905570488 0.285298 -0.0301800339
v 0.00027 0.285298 -0.030562
v 0.00144557049 0.285298 -0.0301800339
v 0.00217211296 0.285298 -0.029180034
v 0.00217211296 0.285298 -0.027943966
v 0.00144557049 0.285298 -0.0269439661
v -0.000430000003 0.305298 -0.0261620001
v 0.000970000003 0.305298 -0.0261620001
v 0.00050614252 0.305298 -0.0260731777
v 3.38574801e-05 0.305298 -0.0260731777
v 0.00027 0.310298 -0.031062
v 0.00152 0.310298 -0.0307270635
v 0.00243506347 0.310298 -0.029812
v 0.00277 0.310298 -0.028562
v 0.00243506347 0.310298 -0.027312
v 0.00152 0.310298 -0.0263969365
v 0.00027 0.310298 -0.026062
v -0.00098 0.310298 -0.0263969365
v -0.00189506347 0.310298 -0.027312
v -0.00223 0.310298 -0.028562
v -0.00189506347 0.310298 -0.029812
v -0.00098 0.310298 -0.0307270635
v 0.00177000006 0.285798 -0.026562
v 0.00259885674 0.285798 -0.0276529202
v 0.00272827019 0.285798 -0.0290168713
v 0.00211937239 0.285798 -0.0302442074
v 0.000955038418 0.285798 -0.0309663132
v -0.000415038418 0.285798 -0.0309663132
v -0.00157937239 0.285798 -0.0302442074
v -0.00218827019 0.285798 -0.0290168713
v -0.00205885674 0.285798 -0.0276529202
v -0.00123000006 0.285798 -0.026562
v -0.00123000006 0.304898 -0.026562
v -0.000430000003 0.305298 -0.0261620001
v 3.38574801e-05 0.305298 -0.0260731777
v 0.00050614252 0.305298 -0.0260731777
v 0.000970000003 0.305298 -0.0261620001
v 0.00177000006 0.304898 -0.026562
v 0.000955038418 0.285798 -0.0309663132
v 0.00027 0.310298 -0.031062
f 1 2 25
f 25 2 28
f 25 28 24
f 24 28 23
f 23 28 22
f 22 28 29
f 22 29 21
f 21 29 30
f 21 30 20
f 20 30 31
f 20 31 19
f 19 31 36
f 19 36 18
f 37 27 32
f 37 32 17
f 17 32 33
f 17 33 16
f 16 33 34
f 16 34 15
f 15 34 35
f 15 35 14
f 14 35 13
f 13 35 10
f 13 10 12
f 12 10 11
f 2 3 28
f 28 3 29
f 3 4 29
f 29 4 30
f 4 5 30
f 30 5 31
f 5 26 31
f 31 26 36
f 27 6 32
f 32 6 7
f 32 7 33
f 33 7 8
f 33 8 34
f 34 8 9
f 34 9 35
f 35 9 10
f 39 43 38
f 38 43 44
f 38 44 49
f 49 44 45
f 49 45 48
f 48 45 46
f 48 46 47
f 43 39 42
f 42 39 40
f 42 40 41
f 51 52 50
f 50 52 53
f 55 59 54
f 54 59 60
f 54 60 61
f 56 57 55
f 55 57 58
f 55 58 59
f 61 62 54
f 64 67 63
f 63 67 68
f 63 68 72
f 72 68 69
f 72 69 71
f 71 69 70
f 65 66 64
f 64 66 67
f 74 75 73
f 73 75 76
f 78 105 77
f 106 93 94
f 106 94 88
f 88 94 95
f 88 95 87
f 87 95 96
f 87 96 86
f 86 96 97
f 86 97 85
f 85 97 98
f 85 98 99
f 105 78 92
f 92 78 79
f 92 79 91
f 91 79 80
f 91 80 90
f 90 80 81
f 90 81 104
f 104 81 82
f 104 82 103
f 103 82 83
f 103 83 102
f 102 83 101
f 101 83 100
f 100 83 84
f 100 84 99
f 99 84 85
f 89 90 104
v 0.00459464629 0.337677995 -0.007362
v 0.00459464629 0.338050066 -0.007362
v 0.00471110155 0.338050066 -0.007362
v 0.00471110155 0.336976336 -0.007362
v 0.00459464629 0.336976336 -0.007362
v 0.00459464629 0.337508806 -0.007362
v 0.00415719589 0.336976336 -0.007362
v 0.00399918755 0.336976336 -0.007362
v 0.00436878582 0.337411852 -0.007362
v 0.00398307403 0.338050066 -0.007362
v 0.00413688262 0.338050066 -0.007362
v 0.00444963833 0.337507101 -0.007362
v 0.00399918755 0.336976336 -0.007362
v 0.00415719589 0.336976336 -0.007362
v 0.00415719589 0.336976336 -0.007352
v 0.00399918755 0.336976336 -0.007352
v 0.00415719589 0.336976336 -0.007362
v 0.00459464629 0.337508806 -0.007362
v 0.00459464629 0.337508806 -0.007352
v 0.00415719589 0.336976336 -0.007352
v 0.00459464629 0.337508806 -0.007362
v 0.00459464629 0.336976336 -0.007362
v 0.00459464629 0.336976336 -0.007352
v 0.00459464629 0.337508806 -0.007352
v 0.00459464629 0.336976336 -0.007362
v 0.00471110155 0.336976336 -0.007362
v 0.00471110155 0.336976336 -0.007352
v 0.00459464629 0.336976336 -0.007352
v 0.00471110155 0.336976336 -0.007362
v 0.00471110155 0.338050066 -0.007362
v 0.00471110155 0.338050066 -0.007352
v 0.00471110155 0.336976336 -0.007352
v 0.00471110155 0.338050066 -0.007362
v 0.00459464629 0.338050066 -0.007362
v 0.00459464629 0.338050066 -0.007352
v 0.00471110155 0.338050066 -0.007352
v 0.00459464629 0.337677995 -0.007362
v 0.00444963833 0.337507101 -0.007362
v 0.00444963833 0.337507101 -0.007352
v 0.00459464629 0.337677995 -0.007352
v 0.00413688262 0.338050066 -0.007362
v 0.00398307403 0.338050066 -0.007362
v 0.00398307403 0.338050066 -0.007352
v 0.00413688262 0.338050066 -0.007352
v 0.00459464629 0.338050066 -0.007352
v 0.00459464629 0.337677995 -0.007352
v 0.00444963833 0.337507101 -0.007352
v 0.00413688262 0.338050066 -0.007352
v 0.00398307403 0.338050066 -0.007352
v 0.00436878582 0.337411852 -0.007352
v 0.00399918755 0.336976336 -0.007352
v 0.00415719589 0.336976336 -0.007352
v 0.00459464629 0.337508806 -0.007352
v 0.00459464629 0.336976336 -0.007352
v 0.00471110155 0.336976336 -0.007352
v 0.00471110155 0.338050066 -0.007352
v 0.00398307403 0.338050066 -0.007362
v 0.00436878582 0.337411852 -0.007362
v 0.00436878582 0.337411852 -0.007352
v 0.00398307403 0.338050066 -0.007352
v 0.00459464629 0.338050066 -0.007362
v 0.00459464629 0.337677995 -0.007362
v 0.00459464629 0.337677995 -0.007352
v 0.00459464629 0.338050066 -0.007352
v 0.00436878582 0.337411852 -0.007362
v 0.00399918755 0.336976336 -0.007362
v 0.00399918755 0.336976336 -0.007352
v 0.00436878582 0.337411852 -0.007352
v 0.00444963833 0.337507101 -0.007362
v 0.00413688262 0.338050066 -0.007362
v 0.00413688262 0.338050066 -0.007352
v 0.00444963833 0.337507101 -0.007352
f 108 109 107
f 107 109 112
f 107 112 118
f 118 112 115
f 118 115 117
f 117 115 116
f 109 110 112
f 112 110 111
f 112 113 115
f 115 113 114
f 119 120 122
f 122 120 121
f 123 124 126
f 126 124 125
f 127 128 130
f 130 128 129
f 131 132 134
f 134 132 133
f 135 136 138
f 138 136 137
f 139 140 142
f 142 140 141
f 143 144 146
f 146 144 145
f 147 148 150
f 150 148 149
f 151 152 162
f 162 152 159
f 162 159 161
f 161 159 160
f 152 153 159
f 159 153 156
f 159 156 158
f 158 156 157
f 153 154 156
f 156 154 155
f 163 164 166
f 166 164 165
f 167 168 170
f 170 168 169
f 171 172 174
f 174 172 173
f 175 176 178
f 178 176 177
