v -0.0156238355 0.063940153 0.049795997
v -0.0156238355 0.075140153 0.049795997
v -0.0156763627 0.075140153 0.0495780142
v -0.0156763627 0.063940153 0.0495780142
v -0.0156763627 0.063940153 0.0495780142
v -0.0156763627 0.075140153 0.0495780142
v -0.0156238355 0.075140153 0.0493542148
v -0.0156238355 0.063940153 0.0493542148
v -0.0155148187 0.063940153 0.0499634084
v -0.0155148187 0.075140153 0.0499634084
v -0.0156238355 0.075140153 0.049795997
v -0.0156238355 0.063940153 0.049795997
v -0.0156238355 0.063940153 0.0493542148
v -0.0156238355 0.075140153 0.0493542148
v -0.0156140819 0.075140153 0.0493444612
v -0.0156140819 0.063940153 0.0493444612
v -0.0153474327 0.063940153 0.0500723998
v -0.0153474327 0.075140153 0.0500723998
v -0.0155148187 0.075140153 0.0499634084
v -0.0155148187 0.063940153 0.0499634084
v -0.0151236079 0.063940153 0.0501229966
v -0.0151236079 0.075140153 0.0501229966
v -0.0153474327 0.075140153 0.0500723998
v -0.0153474327 0.063940153 0.0500723998
v -0.0156140819 0.063940153 0.0493444612
v -0.0156140819 0.075140153 0.0493444612
v -0.0155031601 0.075140153 0.0491712332
v -0.0155031601 0.063940153 0.0491712332
v -0.0148900549 0.063940153 0.0500723998
v -0.0148900549 0.075140153 0.0500723998
v -0.0151236079 0.075140153 0.0501229966
v -0.0151236079 0.063940153 0.0501229966
v -0.0147362833 0.063940153 0.0499672946
v -0.0147362833 0.075140153 0.0499672946
v -0.0148900549 0.075140153 0.0500723998
v -0.0148900549 0.063940153 0.0500723998
v -0.0153221343 0.063940153 0.0490641976
v -0.0151177659 0.063940153 0.0490155312
v -0.0149133975 0.063940153 0.0490641976
v -0.0147440811 0.063940153 0.0491751448
v -0.0146214499 0.063940153 0.0493561452
v -0.0145708531 0.063940153 0.04957997
v -0.0146214499 0.063940153 0.0498037948
v -0.0147362833 0.063940153 0.0499672946
v -0.0148900549 0.063940153 0.0500723998
v -0.0151236079 0.063940153 0.0501229966
v -0.0153474327 0.063940153 0.0500723998
v -0.0155148187 0.063940153 0.0499634084
v -0.0156238355 0.063940153 0.049795997
v -0.0156763627 0.063940153 0.0495780142
v -0.0156238355 0.063940153 0.0493542148
v -0.0156140819 0.063940153 0.0493444612
v -0.0155031601 0.063940153 0.0491712332
v -0.0151177659 0.075140153 0.0490155312
v -0.0153221343 0.075140153 0.0490641976
v -0.0155031601 0.075140153 0.0491712332
v -0.0156140819 0.075140153 0.0493444612
v -0.0156238355 0.075140153 0.0493542148
v -0.0156763627 0.075140153 0.0495780142
v -0.0156238355 0.075140153 0.049795997
v -0.0155148187 0.075140153 0.0499634084
v -0.0153474327 0.075140153 0.0500723998
v -0.0151236079 0.075140153 0.0501229966
v -0.0148900549 0.075140153 0.0500723998
v -0.0147362833 0.075140153 0.0499672946
v -0.0146214499 0.075140153 0.0498037948
v -0.0145708531 0.075140153 0.04957997
v -0.0146214499 0.075140153 0.0493561452
v -0.0147440811 0.075140153 0.0491751448
v -0.0149133975 0.075140153 0.0490641976
v -0.0146214499 0.063940153 0.0498037948
v -0.0146214499 0.075140153 0.0498037948
v -0.0147362833 0.075140153 0.0499672946
v -0.0147362833 0.063940153 0.0499672946
v -0.0155031601 0.063940153 0.0491712332
v -0.0155031601 0.075140153 0.0491712332
v -0.0153221343 0.075140153 0.0490641976
v -0.0153221343 0.063940153 0.0490641976
v -0.0145708531 0.063940153 0.04957997
v -0.0145708531 0.075140153 0.04957997
v -0.0146214499 0.075140153 0.0498037948
v -0.0146214499 0.063940153 0.0498037948
v -0.0146214499 0.063940153 0.0493561452
v -0.0146214499 0.075140153 0.0493561452
v -0.0145708531 0.075140153 0.04957997
v -0.0145708531 0.063940153 0.04957997
v -0.0147440811 0.063940153 0.0491751448
v -0.0147440811 0.075140153 0.0491751448
v -0.0146214499 0.075140153 0.0493561452
v -0.0146214499 0.063940153 0.0493561452
v -0.0149133975 0.063940153 0.0490641976
v -0.0149133975 0.075140153 0.0490641976
v -0.0147440811 0.075140153 0.0491751448
v -0.0147440811 0.063940153 0.0491751448
v -0.0151177659 0.063940153 0.0490155312
v -0.0151177659 0.075140153 0.0490155312
v -0.0149133975 0.075140153 0.0490641976
v -0.0149133975 0.063940153 0.0490641976
v -0.0153221343 0.063940153 0.0490641976
v -0.0153221343 0.075140153 0.0490641976
v -0.0151177659 0.075140153 0.0490155312
v -0.0151177659 0.063940153 0.0490155312
f 2 3 1
f 1 3 4
f 6 7 5
f 5 7 8
f 10 11 9
f 9 11 12
f 14 15 13
f 13 15 16
f 18 19 17
f 17 19 20
f 22 23 21
f 21 23 24
f 26 27 25
f 25 27 28
f 30 31 29
f 29 31 32
f 34 35 33
f 33 35 36
f 38 39 37
f 37 39 40
f 37 40 41
f 42 49 41
f 41 49 50
f 41 50 52
f 52 50 51
f 42 43 49
f 49 43 44
f 49 44 45
f 46 47 45
f 45 47 48
f 45 48 49
f 52 53 41
f 41 53 37
f 54 55 70
f 70 55 69
f 69 55 68
f 68 55 56
f 68 56 57
f 58 59 57
f 57 59 68
f 59 60 68
f 68 60 67
f 67 60 66
f 66 60 65
f 65 60 64
f 64 60 61
f 64 61 62
f 62 63 64
f 72 73 71
f 71 73 74
f 76 77 75
f 75 77 78
f 80 81 79
f 79 81 82
f 84 85 83
f 83 85 86
f 88 89 87
f 87 89 90
f 92 93 91
f 91 93 94
f 96 97 95
f 95 97 98
f 100 101 99
f 99 101 102
