v 0.00868474459 0.0668401539 0.0513148813
v 0.00868476485 0.0668401539 0.054298294
v 0.0101085644 0.0668401539 0.054298294
v 0.0101085517 0.0668401539 0.0513284551
v 0.00868476485 0.0661851539 0.054298294
v 0.00868474459 0.0661851539 0.0513148813
v 0.0101085517 0.0661851539 0.0513284551
v 0.0101085644 0.0661851539 0.054298294
v 0.0101085517 0.0668401539 0.0513284551
v 0.0101085517 0.0661851539 0.0513284551
v 0.00868474459 0.0661851539 0.0513148813
v 0.00868474459 0.0668401539 0.0513148813
v 0.0101085644 0.0668401539 0.054298294
v 0.0101085644 0.0661851539 0.054298294
v 0.0101085517 0.0661851539 0.0513284551
v 0.0101085517 0.0668401539 0.0513284551
v 0.00868476485 0.0668401539 0.054298294
v 0.00868476485 0.0661851539 0.054298294
v 0.0101085644 0.0661851539 0.054298294
v 0.0101085644 0.0668401539 0.054298294
v 0.00868474459 0.0668401539 0.0513148813
v 0.00868474459 0.0661851539 0.0513148813
v 0.00868476485 0.0661851539 0.054298294
v 0.00868476485 0.0668401539 0.054298294
f 1 2 4
f 4 2 3
f 6 7 5
f 5 7 8
f 10 11 9
f 9 11 12
f 14 15 13
f 13 15 16
f 18 19 17
f 17 19 20
f 22 23 21
f 21 23 24
v 0.0162347476 0.0668401539 0.0513148813
v 0.0162347679 0.0668401539 0.054298294
v 0.0176585674 0.0668401539 0.054298294
v 0.0176585548 0.0668401539 0.0513284551
v 0.0162347679 0.0661851539 0.054298294
v 0.0162347476 0.0661851539 0.0513148813
v 0.0176585548 0.0661851539 0.0513284551
v 0.0176585674 0.0661851539 0.054298294
v 0.0176585548 0.0668401539 0.0513284551
v 0.0176585548 0.0661851539 0.0513284551
v 0.0162347476 0.0661851539 0.0513148813
v 0.0162347476 0.0668401539 0.0513148813
v 0.0176585674 0.0668401539 0.054298294
v 0.0176585674 0.0661851539 0.054298294
v 0.0176585548 0.0661851539 0.0513284551
v 0.0176585548 0.0668401539 0.0513284551
v 0.0162347679 0.0668401539 0.054298294
v 0.0162347679 0.0661851539 0.054298294
v 0.0176585674 0.0661851539 0.054298294
v 0.0176585674 0.0668401539 0.054298294
v 0.0162347476 0.0668401539 0.0513148813
v 0.0162347476 0.0661851539 0.0513148813
v 0.0162347679 0.0661851539 0.054298294
v 0.0162347679 0.0668401539 0.054298294
f 25 26 28
f 28 26 27
f 30 31 29
f 29 31 32
f 34 35 33
f 33 35 36
f 38 39 37
f 37 39 40
f 42 43 41
f 41 43 44
f 46 47 45
f 45 47 48
v -0.0537326937 -0.0244460844 -0.0241029064
v -0.0533977571 -0.0256960834 -0.0241045075
v -0.0524826937 -0.0266111461 -0.0241056797
v -0.0512326937 -0.0269460824 -0.0241061087
v -0.0499826937 -0.0266111461 -0.0241056797
v -0.0490676302 -0.0256960834 -0.0241045075
v -0.0487326937 -0.0244460844 -0.0241029064
v -0.0490676302 -0.0231960855 -0.0241013052
v -0.0499826937 -0.0222810228 -0.0241001331
v -0.0512326937 -0.0219460865 -0.024099704
v -0.0524826937 -0.0222810228 -0.0241001331
v -0.0533977571 -0.0231960855 -0.0241013052
v -0.0449826937 -0.0244460844 -0.0241029064
v -0.0453213357 -0.0264754545 -0.0241055059
v -0.0463005655 -0.0282849107 -0.0241078237
v -0.0478142678 -0.0296783708 -0.0241096086
v -0.0496984093 -0.0305048314 -0.0241106673
v -0.0517488146 -0.0306747325 -0.0241108849
v -0.0537432902 -0.0301696629 -0.0241102379
v -0.0554657035 -0.0290443552 -0.0241087965
v -0.0567294048 -0.0274207531 -0.0241067167
v -0.0573974519 -0.0254747998 -0.0241042241
v -0.0573974519 -0.0234173691 -0.0241015886
v -0.0567294048 -0.0214714158 -0.024099096
v -0.0554657035 -0.0198478137 -0.0240970163
v -0.0537432902 -0.018722506 -0.0240955748
v -0.0517488146 -0.0182174364 -0.0240949278
v -0.0496984093 -0.0183873375 -0.0240951455
v -0.0478142678 -0.0192137981 -0.0240962041
v -0.0463005655 -0.0206072582 -0.0240979891
v -0.0453213357 -0.0224167144 -0.0241003069
v -0.0537326937 -0.0244573567 -0.0153029136
v -0.0533977571 -0.0257073557 -0.0153045148
v -0.0524826937 -0.0266224184 -0.015305687
v -0.0512326937 -0.0269573547 -0.015306116
v -0.0499826937 -0.0266224184 -0.015305687
v -0.0490676302 -0.0257073557 -0.0153045148
v -0.0487326937 -0.0244573567 -0.0153029136
v -0.0490676302 -0.0232073577 -0.0153013125
v -0.0499826937 -0.022292295 -0.0153001403
v -0.0512326937 -0.0219573588 -0.0152997113
v -0.0524826937 -0.022292295 -0.0153001403
v -0.0533977571 -0.0232073577 -0.0153013125
v -0.0537326937 -0.0244460844 -0.0241029064
v -0.0533977571 -0.0231960855 -0.0241013052
v -0.0524826937 -0.0222810228 -0.0241001331
v -0.0512326937 -0.0219460865 -0.024099704
v -0.0499826937 -0.0222810228 -0.0241001331
v -0.0490676302 -0.0231960855 -0.0241013052
v -0.0487326937 -0.0244460844 -0.0241029064
v -0.0490676302 -0.0256960834 -0.0241045075
v -0.0499826937 -0.0266111461 -0.0241056797
v -0.0512326937 -0.0269460824 -0.0241061087
v -0.0524826937 -0.0266111461 -0.0241056797
v -0.0533977571 -0.0256960834 -0.0241045075
v -0.0537326937 -0.0244573567 -0.0153029136
v -0.0537326937 -0.0244460844 -0.0241029064
v -0.0435826938 -0.0244478778 -0.0227029077
v -0.0439225619 -0.0221930025 -0.0227000193
v -0.0449119668 -0.0201384828 -0.0226973876
v -0.0464629968 -0.0184668719 -0.0226952463
v -0.0484378349 -0.0173266991 -0.0226937859
v -0.0506610085 -0.0168192751 -0.0226931359
v -0.0529349788 -0.0169896852 -0.0226933542
v -0.0550576936 -0.0178227888 -0.0226944213
v -0.0568405407 -0.0192445605 -0.0226962425
v -0.0581251054 -0.0211286698 -0.022698656
v -0.0587972497 -0.0233077054 -0.0227014472
v -0.0587972497 -0.0255880501 -0.0227043682
v -0.0581251054 -0.0277670857 -0.0227071594
v -0.0568405407 -0.0296511951 -0.0227095728
v -0.0550576936 -0.0310729667 -0.022711394
v -0.0529349788 -0.0319060703 -0.0227124612
v -0.0506610085 -0.0320764804 -0.0227126795
v -0.0484378349 -0.0315690564 -0.0227120295
v -0.0464629968 -0.0304288836 -0.022710569
v -0.0449119668 -0.0287572728 -0.0227084277
v -0.0439225619 -0.026702753 -0.022705796
v -0.0435826938 -0.0244555634 -0.0167029125
v -0.0439225619 -0.0267104386 -0.0167058009
v -0.0449119668 -0.0287649584 -0.0167084326
v -0.0464629968 -0.0304365693 -0.0167105738
v -0.0484378349 -0.031576742 -0.0167120343
v -0.0506610085 -0.0320841661 -0.0167126843
v -0.0529349788 -0.0319137559 -0.016712466
v -0.0550576936 -0.0310806524 -0.0167113988
v -0.0568405407 -0.0296588807 -0.0167095776
v -0.0581251054 -0.0277747714 -0.0167071642
v -0.0587972497 -0.0255957358 -0.016704373
v -0.0587972497 -0.023315391 -0.016701452
v -0.0581251054 -0.0211363554 -0.0166986608
v -0.0568405407 -0.0192522461 -0.0166962474
v -0.0550576936 -0.0178304744 -0.0166944261
v -0.0529349788 -0.0169973709 -0.016693359
v -0.0506610085 -0.0168269607 -0.0166931407
v -0.0484378349 -0.0173343848 -0.0166937907
v -0.0464629968 -0.0184745575 -0.0166952512
v -0.0449119668 -0.0201461684 -0.0166973924
v -0.0439225619 -0.0222006882 -0.0167000241
v -0.0587972497 -0.0255880501 -0.0227043682
v -0.0587972497 -0.0255957358 -0.016704373
v -0.0537326937 -0.0244573567 -0.0153029136
v -0.0533977571 -0.0232073577 -0.0153013125
v -0.0524826937 -0.022292295 -0.0153001403
v -0.0512326937 -0.0219573588 -0.0152997113
v -0.0499826937 -0.022292295 -0.0153001403
v -0.0490676302 -0.0232073577 -0.0153013125
v -0.0487326937 -0.0244573567 -0.0153029136
v -0.0490676302 -0.0257073557 -0.0153045148
v -0.0499826937 -0.0266224184 -0.015305687
v -0.0512326937 -0.0269573547 -0.015306116
v -0.0524826937 -0.0266224184 -0.015305687
v -0.0533977571 -0.0257073557 -0.0153045148
v -0.0449826937 -0.0244573567 -0.0153029136
v -0.0453213357 -0.0224279867 -0.0153003141
v -0.0463005655 -0.0206185305 -0.0152979963
v -0.0478142678 -0.0192250704 -0.0152962114
v -0.0496984093 -0.0183986097 -0.0152951527
v -0.0517488146 -0.0182287086 -0.0152949351
v -0.0537432902 -0.0187337783 -0.0152955821
v -0.0554657035 -0.019859086 -0.0152970235
v -0.0567294048 -0.021482688 -0.0152991033
v -0.0573974519 -0.0234286414 -0.0153015959
v -0.0573974519 -0.0254860721 -0.0153042314
v -0.0567294048 -0.0274320254 -0.015306724
v -0.0554657035 -0.0290556275 -0.0153088038
v -0.0537432902 -0.0301809351 -0.0153102452
v -0.0517488146 -0.0306860048 -0.0153108922
v -0.0496984093 -0.0305161037 -0.0153106745
v -0.0478142678 -0.029689643 -0.0153096159
v -0.0463005655 -0.028296183 -0.0153078309
v -0.0453213357 -0.0264867268 -0.0153055131
v -0.0449826937 -0.0244460844 -0.0241029064
v -0.0453213357 -0.0224167144 -0.0241003069
v -0.0463005655 -0.0206072582 -0.0240979891
v -0.0478142678 -0.0192137981 -0.0240962041
v -0.0496984093 -0.0183873375 -0.0240951455
v -0.0517488146 -0.0182174364 -0.0240949278
v -0.0537432902 -0.018722506 -0.0240955748
v -0.0554657035 -0.0198478137 -0.0240970163
v -0.0567294048 -0.0214714158 -0.024099096
v -0.0573974519 -0.0234173691 -0.0241015886
v -0.0573974519 -0.0254747998 -0.0241042241
v -0.0567294048 -0.0274207531 -0.0241067167
v -0.0554657035 -0.0290443552 -0.0241087965
v -0.0537432902 -0.0301696629 -0.0241102379
v -0.0517488146 -0.0306747325 -0.0241108849
v -0.0496984093 -0.0305048314 -0.0241106673
v -0.0478142678 -0.0296783708 -0.0241096086
v -0.0463005655 -0.0282849107 -0.0241078237
v -0.0453213357 -0.0264754545 -0.0241055059
v -0.0435826938 -0.0244478778 -0.0227029077
v -0.0439225619 -0.026702753 -0.022705796
v -0.0449119668 -0.0287572728 -0.0227084277
v -0.0464629968 -0.0304288836 -0.022710569
v -0.0484378349 -0.0315690564 -0.0227120295
v -0.0506610085 -0.0320764804 -0.0227126795
v -0.0529349788 -0.0319060703 -0.0227124612
v -0.0550576936 -0.0310729667 -0.022711394
v -0.0568405407 -0.0296511951 -0.0227095728
v -0.0581251054 -0.0277670857 -0.0227071594
v -0.0587972497 -0.0255880501 -0.0227043682
v -0.0587972497 -0.0233077054 -0.0227014472
v -0.0581251054 -0.0211286698 -0.022698656
v -0.0568405407 -0.0192445605 -0.0226962425
v -0.0550576936 -0.0178227888 -0.0226944213
v -0.0529349788 -0.0169896852 -0.0226933542
v -0.0506610085 -0.0168192751 -0.0226931359
v -0.0484378349 -0.0173266991 -0.0226937859
v -0.0464629968 -0.0184668719 -0.0226952463
v -0.0449119668 -0.0201384828 -0.0226973876
v -0.0439225619 -0.0221930025 -0.0227000193
v -0.0573974519 -0.0254747998 -0.0241042241
v -0.0587972497 -0.0255880501 -0.0227043682
v -0.0435826938 -0.0244555634 -0.0167029125
v -0.0439225619 -0.0222006882 -0.0167000241
v -0.0449119668 -0.0201461684 -0.0166973924
v -0.0464629968 -0.0184745575 -0.0166952512
v -0.0484378349 -0.0173343848 -0.0166937907
v -0.0506610085 -0.0168269607 -0.0166931407
v -0.0529349788 -0.0169973709 -0.016693359
v -0.0550576936 -0.0178304744 -0.0166944261
v -0.0568405407 -0.0192522461 -0.0166962474
v -0.0581251054 -0.0211363554 -0.0166986608
v -0.0587972497 -0.023315391 -0.016701452
v -0.0587972497 -0.0255957358 -0.016704373
v -0.0581251054 -0.0277747714 -0.0167071642
v -0.0568405407 -0.0296588807 -0.0167095776
v -0.0550576936 -0.0310806524 -0.0167113988
v -0.0529349788 -0.0319137559 -0.016712466
v -0.0506610085 -0.0320841661 -0.0167126843
v -0.0484378349 -0.031576742 -0.0167120343
v -0.0464629968 -0.0304365693 -0.0167105738
v -0.0449119668 -0.0287649584 -0.0167084326
v -0.0439225619 -0.0267104386 -0.0167058009
v -0.0449826937 -0.0244573567 -0.0153029136
v -0.0453213357 -0.0264867268 -0.0153055131
v -0.0463005655 -0.028296183 -0.0153078309
v -0.0478142678 -0.029689643 -0.0153096159
v -0.0496984093 -0.0305161037 -0.0153106745
v -0.0517488146 -0.0306860048 -0.0153108922
v -0.0537432902 -0.0301809351 -0.0153102452
v -0.0554657035 -0.0290556275 -0.0153088038
v -0.0567294048 -0.0274320254 -0.015306724
v -0.0573974519 -0.0254860721 -0.0153042314
v -0.0573974519 -0.0234286414 -0.0153015959
v -0.0567294048 -0.021482688 -0.0152991033
v -0.0554657035 -0.019859086 -0.0152970235
v -0.0537432902 -0.0187337783 -0.0152955821
v -0.0517488146 -0.0182287086 -0.0152949351
v -0.0496984093 -0.0183986097 -0.0152951527
v -0.0478142678 -0.0192250704 -0.0152962114
v -0.0463005655 -0.0206185305 -0.0152979963
v -0.0453213357 -0.0224279867 -0.0153003141
v -0.0573974519 -0.0254860721 -0.0153042314
v -0.0587972497 -0.0255957358 -0.016704373
f 50 70 49
f 49 70 71
f 49 71 60
f 60 71 72
f 60 72 73
f 51 68 50
f 50 68 69
f 50 69 70
f 68 51 67
f 67 51 52
f 67 52 66
f 66 52 65
f 65 52 53
f 65 53 64
f 64 53 63
f 63 53 54
f 63 54 62
f 62 54 55
f 62 55 61
f 61 55 79
f 79 55 56
f 79 56 78
f 78 56 57
f 78 57 77
f 77 57 76
f 76 57 58
f 76 58 75
f 75 58 74
f 74 58 59
f 74 59 73
f 73 59 60
f 81 103 80
f 80 103 105
f 104 92 91
f 91 92 93
f 91 93 90
f 90 93 94
f 90 94 89
f 89 94 95
f 89 95 88
f 88 95 96
f 88 96 87
f 87 96 97
f 87 97 86
f 86 97 98
f 86 98 85
f 85 98 99
f 85 99 84
f 84 99 100
f 84 100 83
f 83 100 101
f 83 101 82
f 82 101 102
f 82 102 81
f 81 102 103
f 107 127 106
f 106 127 128
f 106 128 126
f 126 128 129
f 126 129 125
f 125 129 130
f 125 130 124
f 124 130 131
f 124 131 123
f 123 131 132
f 123 132 122
f 122 132 133
f 122 133 121
f 121 133 134
f 121 134 120
f 120 134 135
f 120 135 119
f 119 135 136
f 119 136 118
f 118 136 149
f 118 149 117
f 148 137 138
f 148 138 116
f 116 138 139
f 116 139 115
f 115 139 140
f 115 140 114
f 114 140 141
f 114 141 113
f 113 141 142
f 113 142 112
f 112 142 143
f 112 143 111
f 111 143 144
f 111 144 110
f 110 144 145
f 110 145 109
f 109 145 146
f 109 146 108
f 108 146 147
f 108 147 107
f 107 147 127
f 151 171 150
f 150 171 172
f 150 172 161
f 161 172 173
f 161 173 174
f 152 169 151
f 151 169 170
f 151 170 171
f 169 152 168
f 168 152 153
f 168 153 167
f 167 153 166
f 166 153 154
f 166 154 165
f 165 154 164
f 164 154 155
f 164 155 163
f 163 155 156
f 163 156 162
f 162 156 180
f 180 156 157
f 180 157 179
f 179 157 158
f 179 158 178
f 178 158 177
f 177 158 159
f 177 159 176
f 176 159 175
f 175 159 160
f 175 160 174
f 174 160 161
f 182 220 181
f 181 220 200
f 181 200 201
f 220 182 219
f 219 182 183
f 219 183 218
f 218 183 184
f 218 184 217
f 217 184 185
f 217 185 216
f 216 185 186
f 216 186 215
f 215 186 187
f 215 187 214
f 214 187 188
f 214 188 213
f 213 188 189
f 213 189 212
f 212 189 190
f 212 190 211
f 211 190 221
f 211 221 210
f 222 191 209
f 209 191 192
f 209 192 208
f 208 192 193
f 208 193 207
f 207 193 194
f 207 194 206
f 206 194 195
f 206 195 205
f 205 195 196
f 205 196 204
f 204 196 197
f 204 197 203
f 203 197 198
f 203 198 202
f 202 198 199
f 202 199 201
f 201 199 181
f 243 223 244
f 244 223 224
f 244 224 262
f 262 224 225
f 262 225 261
f 261 225 226
f 261 226 260
f 260 226 227
f 260 227 259
f 259 227 228
f 259 228 258
f 258 228 229
f 258 229 257
f 257 229 230
f 257 230 256
f 256 230 231
f 256 231 255
f 255 231 232
f 255 232 254
f 254 232 233
f 254 233 264
f 254 264 253
f 263 234 235
f 263 235 252
f 252 235 236
f 252 236 251
f 251 236 237
f 251 237 250
f 250 237 238
f 250 238 249
f 249 238 239
f 249 239 248
f 248 239 240
f 248 240 247
f 247 240 241
f 247 241 246
f 246 241 242
f 246 242 245
f 245 242 243
f 245 243 244
v -0.0537326937 0.0451038528 -0.024013817
v -0.0533977571 0.0438538538 -0.0240154182
v -0.0524826937 0.0429387911 -0.0240165903
v -0.0512326937 0.0426038548 -0.0240170194
v -0.0499826937 0.0429387911 -0.0240165903
v -0.0490676302 0.0438538538 -0.0240154182
v -0.0487326937 0.0451038528 -0.024013817
v -0.0490676302 0.0463538517 -0.0240122158
v -0.0499826937 0.0472689145 -0.0240110437
v -0.0512326937 0.0476038507 -0.0240106147
v -0.0524826937 0.0472689145 -0.0240110437
v -0.0533977571 0.0463538517 -0.0240122158
v -0.0449826937 0.0451038528 -0.024013817
v -0.0453213357 0.0430744827 -0.0240164165
v -0.0463005655 0.0412650265 -0.0240187343
v -0.0478142678 0.0398715664 -0.0240205193
v -0.0496984093 0.0390451058 -0.0240215779
v -0.0517488146 0.0388752047 -0.0240217955
v -0.0537432902 0.0393802744 -0.0240211486
v -0.0554657035 0.040505582 -0.0240197071
v -0.0567294048 0.0421291841 -0.0240176274
v -0.0573974519 0.0440751374 -0.0240151347
v -0.0573974519 0.0461325681 -0.0240124993
v -0.0567294048 0.0480785214 -0.0240100066
v -0.0554657035 0.0497021235 -0.0240079269
v -0.0537432902 0.0508274312 -0.0240064854
v -0.0517488146 0.0513325008 -0.0240058385
v -0.0496984093 0.0511625997 -0.0240060561
v -0.0478142678 0.0503361391 -0.0240071148
v -0.0463005655 0.048942679 -0.0240088997
v -0.0453213357 0.0471332228 -0.0240112175
v -0.0537326937 0.0450925805 -0.0152138243
v -0.0533977571 0.0438425815 -0.0152154255
v -0.0524826937 0.0429275188 -0.0152165976
v -0.0512326937 0.0425925825 -0.0152170266
v -0.0499826937 0.0429275188 -0.0152165976
v -0.0490676302 0.0438425815 -0.0152154255
v -0.0487326937 0.0450925805 -0.0152138243
v -0.0490676302 0.0463425795 -0.0152122231
v -0.0499826937 0.0472576422 -0.015211051
v -0.0512326937 0.0475925784 -0.0152106219
v -0.0524826937 0.0472576422 -0.015211051
v -0.0533977571 0.0463425795 -0.0152122231
v -0.0537326937 0.0451038528 -0.024013817
v -0.0533977571 0.0463538517 -0.0240122158
v -0.0524826937 0.0472689145 -0.0240110437
v -0.0512326937 0.0476038507 -0.0240106147
v -0.0499826937 0.0472689145 -0.0240110437
v -0.0490676302 0.0463538517 -0.0240122158
v -0.0487326937 0.0451038528 -0.024013817
v -0.0490676302 0.0438538538 -0.0240154182
v -0.0499826937 0.0429387911 -0.0240165903
v -0.0512326937 0.0426038548 -0.0240170194
v -0.0524826937 0.0429387911 -0.0240165903
v -0.0533977571 0.0438538538 -0.0240154182
v -0.0537326937 0.0450925805 -0.0152138243
v -0.0537326937 0.0451038528 -0.024013817
v -0.0435826938 0.0451020594 -0.0226138183
v -0.0439225619 0.0473569347 -0.0226109299
v -0.0449119668 0.0494114544 -0.0226082982
v -0.0464629968 0.0510830653 -0.022606157
v -0.0484378349 0.0522232381 -0.0226046965
v -0.0506610085 0.0527306621 -0.0226040465
v -0.0529349788 0.052560252 -0.0226042648
v -0.0550576936 0.0517271484 -0.022605332
v -0.0568405407 0.0503053768 -0.0226071532
v -0.0581251054 0.0484212674 -0.0226095666
v -0.0587972497 0.0462422318 -0.0226123578
v -0.0587972497 0.0439618871 -0.0226152788
v -0.0581251054 0.0417828515 -0.02261807
v -0.0568405407 0.0398987421 -0.0226204834
v -0.0550576936 0.0384769705 -0.0226223046
v -0.0529349788 0.0376438669 -0.0226233718
v -0.0506610085 0.0374734568 -0.0226235901
v -0.0484378349 0.0379808808 -0.0226229401
v -0.0464629968 0.0391210536 -0.0226214796
v -0.0449119668 0.0407926644 -0.0226193384
v -0.0439225619 0.0428471842 -0.0226167067
v -0.0435826938 0.0450943738 -0.0166138231
v -0.0439225619 0.0428394986 -0.0166167115
v -0.0449119668 0.0407849788 -0.0166193432
v -0.0464629968 0.0391133679 -0.0166214845
v -0.0484378349 0.0379731952 -0.0166229449
v -0.0506610085 0.0374657711 -0.0166235949
v -0.0529349788 0.0376361813 -0.0166233766
v -0.0550576936 0.0384692848 -0.0166223095
v -0.0568405407 0.0398910565 -0.0166204883
v -0.0581251054 0.0417751658 -0.0166180748
v -0.0587972497 0.0439542014 -0.0166152836
v -0.0587972497 0.0462345462 -0.0166123626
v -0.0581251054 0.0484135818 -0.0166095714
v -0.0568405407 0.0502976911 -0.016607158
v -0.0550576936 0.0517194628 -0.0166053368
v -0.0529349788 0.0525525664 -0.0166042696
v -0.0506610085 0.0527229765 -0.0166040513
v -0.0484378349 0.0522155524 -0.0166047013
v -0.0464629968 0.0510753797 -0.0166061618
v -0.0449119668 0.0494037688 -0.0166083031
v -0.0439225619 0.047349249 -0.0166109348
v -0.0587972497 0.0439618871 -0.0226152788
v -0.0587972497 0.0439542014 -0.0166152836
v -0.0537326937 0.0450925805 -0.0152138243
v -0.0533977571 0.0463425795 -0.0152122231
v -0.0524826937 0.0472576422 -0.015211051
v -0.0512326937 0.0475925784 -0.0152106219
v -0.0499826937 0.0472576422 -0.015211051
v -0.0490676302 0.0463425795 -0.0152122231
v -0.0487326937 0.0450925805 -0.0152138243
v -0.0490676302 0.0438425815 -0.0152154255
v -0.0499826937 0.0429275188 -0.0152165976
v -0.0512326937 0.0425925825 -0.0152170266
v -0.0524826937 0.0429275188 -0.0152165976
v -0.0533977571 0.0438425815 -0.0152154255
v -0.0449826937 0.0450925805 -0.0152138243
v -0.0453213357 0.0471219505 -0.0152112248
v -0.0463005655 0.0489314067 -0.015208907
v -0.0478142678 0.0503248668 -0.015207122
v -0.0496984093 0.0511513275 -0.0152060634
v -0.0517488146 0.0513212286 -0.0152058457
v -0.0537432902 0.0508161589 -0.0152064927
v -0.0554657035 0.0496908512 -0.0152079342
v -0.0567294048 0.0480672492 -0.0152100139
v -0.0573974519 0.0461212958 -0.0152125066
v -0.0573974519 0.0440638651 -0.015215142
v -0.0567294048 0.0421179118 -0.0152176347
v -0.0554657035 0.0404943097 -0.0152197144
v -0.0537432902 0.0393690021 -0.0152211558
v -0.0517488146 0.0388639324 -0.0152218028
v -0.0496984093 0.0390338335 -0.0152215852
v -0.0478142678 0.0398602942 -0.0152205265
v -0.0463005655 0.0412537542 -0.0152187416
v -0.0453213357 0.0430632104 -0.0152164238
v -0.0449826937 0.0451038528 -0.024013817
v -0.0453213357 0.0471332228 -0.0240112175
v -0.0463005655 0.048942679 -0.0240088997
v -0.0478142678 0.0503361391 -0.0240071148
v -0.0496984093 0.0511625997 -0.0240060561
v -0.0517488146 0.0513325008 -0.0240058385
v -0.0537432902 0.0508274312 -0.0240064854
v -0.0554657035 0.0497021235 -0.0240079269
v -0.0567294048 0.0480785214 -0.0240100066
v -0.0573974519 0.0461325681 -0.0240124993
v -0.0573974519 0.0440751374 -0.0240151347
v -0.0567294048 0.0421291841 -0.0240176274
v -0.0554657035 0.040505582 -0.0240197071
v -0.0537432902 0.0393802744 -0.0240211486
v -0.0517488146 0.0388752047 -0.0240217955
v -0.0496984093 0.0390451058 -0.0240215779
v -0.0478142678 0.0398715664 -0.0240205193
v -0.0463005655 0.0412650265 -0.0240187343
v -0.0453213357 0.0430744827 -0.0240164165
v -0.0435826938 0.0451020594 -0.0226138183
v -0.0439225619 0.0428471842 -0.0226167067
v -0.0449119668 0.0407926644 -0.0226193384
v -0.0464629968 0.0391210536 -0.0226214796
v -0.0484378349 0.0379808808 -0.0226229401
v -0.0506610085 0.0374734568 -0.0226235901
v -0.0529349788 0.0376438669 -0.0226233718
v -0.0550576936 0.0384769705 -0.0226223046
v -0.0568405407 0.0398987421 -0.0226204834
v -0.0581251054 0.0417828515 -0.02261807
v -0.0587972497 0.0439618871 -0.0226152788
v -0.0587972497 0.0462422318 -0.0226123578
v -0.0581251054 0.0484212674 -0.0226095666
v -0.0568405407 0.0503053768 -0.0226071532
v -0.0550576936 0.0517271484 -0.022605332
v -0.0529349788 0.052560252 -0.0226042648
v -0.0506610085 0.0527306621 -0.0226040465
v -0.0484378349 0.0522232381 -0.0226046965
v -0.0464629968 0.0510830653 -0.022606157
v -0.0449119668 0.0494114544 -0.0226082982
v -0.0439225619 0.0473569347 -0.0226109299
v -0.0573974519 0.0440751374 -0.0240151347
v -0.0587972497 0.0439618871 -0.0226152788
v -0.0435826938 0.0450943738 -0.0166138231
v -0.0439225619 0.047349249 -0.0166109348
v -0.0449119668 0.0494037688 -0.0166083031
v -0.0464629968 0.0510753797 -0.0166061618
v -0.0484378349 0.0522155524 -0.0166047013
v -0.0506610085 0.0527229765 -0.0166040513
v -0.0529349788 0.0525525664 -0.0166042696
v -0.0550576936 0.0517194628 -0.0166053368
v -0.0568405407 0.0502976911 -0.016607158
v -0.0581251054 0.0484135818 -0.0166095714
v -0.0587972497 0.0462345462 -0.0166123626
v -0.0587972497 0.0439542014 -0.0166152836
v -0.0581251054 0.0417751658 -0.0166180748
v -0.0568405407 0.0398910565 -0.0166204883
v -0.0550576936 0.0384692848 -0.0166223095
v -0.0529349788 0.0376361813 -0.0166233766
v -0.0506610085 0.0374657711 -0.0166235949
v -0.0484378349 0.0379731952 -0.0166229449
v -0.0464629968 0.0391133679 -0.0166214845
v -0.0449119668 0.0407849788 -0.0166193432
v -0.0439225619 0.0428394986 -0.0166167115
v -0.0449826937 0.0450925805 -0.0152138243
v -0.0453213357 0.0430632104 -0.0152164238
v -0.0463005655 0.0412537542 -0.0152187416
v -0.0478142678 0.0398602942 -0.0152205265
v -0.0496984093 0.0390338335 -0.0152215852
v -0.0517488146 0.0388639324 -0.0152218028
v -0.0537432902 0.0393690021 -0.0152211558
v -0.0554657035 0.0404943097 -0.0152197144
v -0.0567294048 0.0421179118 -0.0152176347
v -0.0573974519 0.0440638651 -0.015215142
v -0.0573974519 0.0461212958 -0.0152125066
v -0.0567294048 0.0480672492 -0.0152100139
v -0.0554657035 0.0496908512 -0.0152079342
v -0.0537432902 0.0508161589 -0.0152064927
v -0.0517488146 0.0513212286 -0.0152058457
v -0.0496984093 0.0511513275 -0.0152060634
v -0.0478142678 0.0503248668 -0.015207122
v -0.0463005655 0.0489314067 -0.015208907
v -0.0453213357 0.0471219505 -0.0152112248
v -0.0573974519 0.0440638651 -0.015215142
v -0.0587972497 0.0439542014 -0.0166152836
f 266 286 265
f 265 286 287
f 265 287 276
f 276 287 288
f 276 288 289
f 267 284 266
f 266 284 285
f 266 285 286
f 284 267 283
f 283 267 268
f 283 268 282
f 282 268 281
f 281 268 269
f 281 269 280
f 280 269 279
f 279 269 270
f 279 270 278
f 278 270 271
f 278 271 277
f 277 271 295
f 295 271 272
f 295 272 294
f 294 272 273
f 294 273 293
f 293 273 292
f 292 273 274
f 292 274 291
f 291 274 290
f 290 274 275
f 290 275 289
f 289 275 276
f 297 319 296
f 296 319 321
f 320 308 307
f 307 308 309
f 307 309 306
f 306 309 310
f 306 310 305
f 305 310 311
f 305 311 304
f 304 311 312
f 304 312 303
f 303 312 313
f 303 313 302
f 302 313 314
f 302 314 301
f 301 314 315
f 301 315 300
f 300 315 316
f 300 316 299
f 299 316 317
f 299 317 298
f 298 317 318
f 298 318 297
f 297 318 319
f 323 343 322
f 322 343 344
f 322 344 342
f 342 344 345
f 342 345 341
f 341 345 346
f 341 346 340
f 340 346 347
f 340 347 339
f 339 347 348
f 339 348 338
f 338 348 349
f 338 349 337
f 337 349 350
f 337 350 336
f 336 350 351
f 336 351 335
f 335 351 352
f 335 352 334
f 334 352 365
f 334 365 333
f 364 353 354
f 364 354 332
f 332 354 355
f 332 355 331
f 331 355 356
f 331 356 330
f 330 356 357
f 330 357 329
f 329 357 358
f 329 358 328
f 328 358 359
f 328 359 327
f 327 359 360
f 327 360 326
f 326 360 361
f 326 361 325
f 325 361 362
f 325 362 324
f 324 362 363
f 324 363 323
f 323 363 343
f 367 387 366
f 366 387 388
f 366 388 377
f 377 388 389
f 377 389 390
f 368 385 367
f 367 385 386
f 367 386 387
f 385 368 384
f 384 368 369
f 384 369 383
f 383 369 382
f 382 369 370
f 382 370 381
f 381 370 380
f 380 370 371
f 380 371 379
f 379 371 372
f 379 372 378
f 378 372 396
f 396 372 373
f 396 373 395
f 395 373 374
f 395 374 394
f 394 374 393
f 393 374 375
f 393 375 392
f 392 375 391
f 391 375 376
f 391 376 390
f 390 376 377
f 398 436 397
f 397 436 416
f 397 416 417
f 436 398 435
f 435 398 399
f 435 399 434
f 434 399 400
f 434 400 433
f 433 400 401
f 433 401 432
f 432 401 402
f 432 402 431
f 431 402 403
f 431 403 430
f 430 403 404
f 430 404 429
f 429 404 405
f 429 405 428
f 428 405 406
f 428 406 427
f 427 406 437
f 427 437 426
f 438 407 425
f 425 407 408
f 425 408 424
f 424 408 409
f 424 409 423
f 423 409 410
f 423 410 422
f 422 410 411
f 422 411 421
f 421 411 412
f 421 412 420
f 420 412 413
f 420 413 419
f 419 413 414
f 419 414 418
f 418 414 415
f 418 415 417
f 417 415 397
f 459 439 460
f 460 439 440
f 460 440 478
f 478 440 441
f 478 441 477
f 477 441 442
f 477 442 476
f 476 442 443
f 476 443 475
f 475 443 444
f 475 444 474
f 474 444 445
f 474 445 473
f 473 445 446
f 473 446 472
f 472 446 447
f 472 447 471
f 471 447 448
f 471 448 470
f 470 448 449
f 470 449 480
f 470 480 469
f 479 450 451
f 479 451 468
f 468 451 452
f 468 452 467
f 467 452 453
f 467 453 466
f 466 453 454
f 466 454 465
f 465 454 455
f 465 455 464
f 464 455 456
f 464 456 463
f 463 456 457
f 463 457 462
f 462 457 458
f 462 458 461
f 461 458 459
f 461 459 460
v 0.0492729548 -0.0244460844 -0.0241029064
v 0.0496078914 -0.0256960834 -0.0241045075
v 0.0505229548 -0.0266111461 -0.0241056797
v 0.0517729548 -0.0269460824 -0.0241061087
v 0.0530229548 -0.0266111461 -0.0241056797
v 0.0539380183 -0.0256960834 -0.0241045075
v 0.0542729548 -0.0244460844 -0.0241029064
v 0.0539380183 -0.0231960855 -0.0241013052
v 0.0530229548 -0.0222810228 -0.0241001331
v 0.0517729548 -0.0219460865 -0.024099704
v 0.0505229548 -0.0222810228 -0.0241001331
v 0.0496078914 -0.0231960855 -0.0241013052
v 0.0580229548 -0.0244460844 -0.0241029064
v 0.0576843128 -0.0264754545 -0.0241055059
v 0.056705083 -0.0282849107 -0.0241078237
v 0.0551913807 -0.0296783708 -0.0241096086
v 0.0533072392 -0.0305048314 -0.0241106673
v 0.0512568339 -0.0306747325 -0.0241108849
v 0.0492623583 -0.0301696629 -0.0241102379
v 0.047539945 -0.0290443552 -0.0241087965
v 0.0462762437 -0.0274207531 -0.0241067167
v 0.0456081966 -0.0254747998 -0.0241042241
v 0.0456081966 -0.0234173691 -0.0241015886
v 0.0462762437 -0.0214714158 -0.024099096
v 0.047539945 -0.0198478137 -0.0240970163
v 0.0492623583 -0.018722506 -0.0240955748
v 0.0512568339 -0.0182174364 -0.0240949278
v 0.0533072392 -0.0183873375 -0.0240951455
v 0.0551913807 -0.0192137981 -0.0240962041
v 0.056705083 -0.0206072582 -0.0240979891
v 0.0576843128 -0.0224167144 -0.0241003069
v 0.0492729548 -0.0244573567 -0.0153029136
v 0.0496078914 -0.0257073557 -0.0153045148
v 0.0505229548 -0.0266224184 -0.015305687
v 0.0517729548 -0.0269573547 -0.015306116
v 0.0530229548 -0.0266224184 -0.015305687
v 0.0539380183 -0.0257073557 -0.0153045148
v 0.0542729548 -0.0244573567 -0.0153029136
v 0.0539380183 -0.0232073577 -0.0153013125
v 0.0530229548 -0.022292295 -0.0153001403
v 0.0517729548 -0.0219573588 -0.0152997113
v 0.0505229548 -0.022292295 -0.0153001403
v 0.0496078914 -0.0232073577 -0.0153013125
v 0.0492729548 -0.0244460844 -0.0241029064
v 0.0496078914 -0.0231960855 -0.0241013052
v 0.0505229548 -0.0222810228 -0.0241001331
v 0.0517729548 -0.0219460865 -0.024099704
v 0.0530229548 -0.0222810228 -0.0241001331
v 0.0539380183 -0.0231960855 -0.0241013052
v 0.0542729548 -0.0244460844 -0.0241029064
v 0.0539380183 -0.0256960834 -0.0241045075
v 0.0530229548 -0.0266111461 -0.0241056797
v 0.0517729548 -0.0269460824 -0.0241061087
v 0.0505229548 -0.0266111461 -0.0241056797
v 0.0496078914 -0.0256960834 -0.0241045075
v 0.0492729548 -0.0244573567 -0.0153029136
v 0.0492729548 -0.0244460844 -0.0241029064
v 0.0594229547 -0.0244478778 -0.0227029077
v 0.0590830866 -0.0221930025 -0.0227000193
v 0.0580936817 -0.0201384828 -0.0226973876
v 0.0565426517 -0.0184668719 -0.0226952463
v 0.0545678136 -0.0173266991 -0.0226937859
v 0.05234464 -0.0168192751 -0.0226931359
v 0.0500706697 -0.0169896852 -0.0226933542
v 0.0479479549 -0.0178227888 -0.0226944213
v 0.0461651078 -0.0192445605 -0.0226962425
v 0.0448805431 -0.0211286698 -0.022698656
v 0.0442083988 -0.0233077054 -0.0227014472
v 0.0442083988 -0.0255880501 -0.0227043682
v 0.0448805431 -0.0277670857 -0.0227071594
v 0.0461651078 -0.0296511951 -0.0227095728
v 0.0479479549 -0.0310729667 -0.022711394
v 0.0500706697 -0.0319060703 -0.0227124612
v 0.05234464 -0.0320764804 -0.0227126795
v 0.0545678136 -0.0315690564 -0.0227120295
v 0.0565426517 -0.0304288836 -0.022710569
v 0.0580936817 -0.0287572728 -0.0227084277
v 0.0590830866 -0.026702753 -0.022705796
v 0.0594229547 -0.0244555634 -0.0167029125
v 0.0590830866 -0.0267104386 -0.0167058009
v 0.0580936817 -0.0287649584 -0.0167084326
v 0.0565426517 -0.0304365693 -0.0167105738
v 0.0545678136 -0.031576742 -0.0167120343
v 0.05234464 -0.0320841661 -0.0167126843
v 0.0500706697 -0.0319137559 -0.016712466
v 0.0479479549 -0.0310806524 -0.0167113988
v 0.0461651078 -0.0296588807 -0.0167095776
v 0.0448805431 -0.0277747714 -0.0167071642
v 0.0442083988 -0.0255957358 -0.016704373
v 0.0442083988 -0.023315391 -0.016701452
v 0.0448805431 -0.0211363554 -0.0166986608
v 0.0461651078 -0.0192522461 -0.0166962474
v 0.0479479549 -0.0178304744 -0.0166944261
v 0.0500706697 -0.0169973709 -0.016693359
v 0.05234464 -0.0168269607 -0.0166931407
v 0.0545678136 -0.0173343848 -0.0166937907
v 0.0565426517 -0.0184745575 -0.0166952512
v 0.0580936817 -0.0201461684 -0.0166973924
v 0.0590830866 -0.0222006882 -0.0167000241
v 0.0442083988 -0.0255880501 -0.0227043682
v 0.0442083988 -0.0255957358 -0.016704373
v 0.0492729548 -0.0244573567 -0.0153029136
v 0.0496078914 -0.0232073577 -0.0153013125
v 0.0505229548 -0.022292295 -0.0153001403
v 0.0517729548 -0.0219573588 -0.0152997113
v 0.0530229548 -0.022292295 -0.0153001403
v 0.0539380183 -0.0232073577 -0.0153013125
v 0.0542729548 -0.0244573567 -0.0153029136
v 0.0539380183 -0.0257073557 -0.0153045148
v 0.0530229548 -0.0266224184 -0.015305687
v 0.0517729548 -0.0269573547 -0.015306116
v 0.0505229548 -0.0266224184 -0.015305687
v 0.0496078914 -0.0257073557 -0.0153045148
v 0.0580229548 -0.0244573567 -0.0153029136
v 0.0576843128 -0.0224279867 -0.0153003141
v 0.056705083 -0.0206185305 -0.0152979963
v 0.0551913807 -0.0192250704 -0.0152962114
v 0.0533072392 -0.0183986097 -0.0152951527
v 0.0512568339 -0.0182287086 -0.0152949351
v 0.0492623583 -0.0187337783 -0.0152955821
v 0.047539945 -0.019859086 -0.0152970235
v 0.0462762437 -0.021482688 -0.0152991033
v 0.0456081966 -0.0234286414 -0.0153015959
v 0.0456081966 -0.0254860721 -0.0153042314
v 0.0462762437 -0.0274320254 -0.015306724
v 0.047539945 -0.0290556275 -0.0153088038
v 0.0492623583 -0.0301809351 -0.0153102452
v 0.0512568339 -0.0306860048 -0.0153108922
v 0.0533072392 -0.0305161037 -0.0153106745
v 0.0551913807 -0.029689643 -0.0153096159
v 0.056705083 -0.028296183 -0.0153078309
v 0.0576843128 -0.0264867268 -0.0153055131
v 0.0580229548 -0.0244460844 -0.0241029064
v 0.0576843128 -0.0224167144 -0.0241003069
v 0.056705083 -0.0206072582 -0.0240979891
v 0.0551913807 -0.0192137981 -0.0240962041
v 0.0533072392 -0.0183873375 -0.0240951455
v 0.0512568339 -0.0182174364 -0.0240949278
v 0.0492623583 -0.018722506 -0.0240955748
v 0.047539945 -0.0198478137 -0.0240970163
v 0.0462762437 -0.0214714158 -0.024099096
v 0.0456081966 -0.0234173691 -0.0241015886
v 0.0456081966 -0.0254747998 -0.0241042241
v 0.0462762437 -0.0274207531 -0.0241067167
v 0.047539945 -0.0290443552 -0.0241087965
v 0.0492623583 -0.0301696629 -0.0241102379
v 0.0512568339 -0.0306747325 -0.0241108849
v 0.0533072392 -0.0305048314 -0.0241106673
v 0.0551913807 -0.0296783708 -0.0241096086
v 0.056705083 -0.0282849107 -0.0241078237
v 0.0576843128 -0.0264754545 -0.0241055059
v 0.0594229547 -0.0244478778 -0.0227029077
v 0.0590830866 -0.026702753 -0.022705796
v 0.0580936817 -0.0287572728 -0.0227084277
v 0.0565426517 -0.0304288836 -0.022710569
v 0.0545678136 -0.0315690564 -0.0227120295
v 0.05234464 -0.0320764804 -0.0227126795
v 0.0500706697 -0.0319060703 -0.0227124612
v 0.0479479549 -0.0310729667 -0.022711394
v 0.0461651078 -0.0296511951 -0.0227095728
v 0.0448805431 -0.0277670857 -0.0227071594
v 0.0442083988 -0.0255880501 -0.0227043682
v 0.0442083988 -0.0233077054 -0.0227014472
v 0.0448805431 -0.0211286698 -0.022698656
v 0.0461651078 -0.0192445605 -0.0226962425
v 0.0479479549 -0.0178227888 -0.0226944213
v 0.0500706697 -0.0169896852 -0.0226933542
v 0.05234464 -0.0168192751 -0.0226931359
v 0.0545678136 -0.0173266991 -0.0226937859
v 0.0565426517 -0.0184668719 -0.0226952463
v 0.0580936817 -0.0201384828 -0.0226973876
v 0.0590830866 -0.0221930025 -0.0227000193
v 0.0456081966 -0.0254747998 -0.0241042241
v 0.0442083988 -0.0255880501 -0.0227043682
v 0.0594229547 -0.0244555634 -0.0167029125
v 0.0590830866 -0.0222006882 -0.0167000241
v 0.0580936817 -0.0201461684 -0.0166973924
v 0.0565426517 -0.0184745575 -0.0166952512
v 0.0545678136 -0.0173343848 -0.0166937907
v 0.05234464 -0.0168269607 -0.0166931407
v 0.0500706697 -0.0169973709 -0.016693359
v 0.0479479549 -0.0178304744 -0.0166944261
v 0.0461651078 -0.0192522461 -0.0166962474
v 0.0448805431 -0.0211363554 -0.0166986608
v 0.0442083988 -0.023315391 -0.016701452
v 0.0442083988 -0.0255957358 -0.016704373
v 0.0448805431 -0.0277747714 -0.0167071642
v 0.0461651078 -0.0296588807 -0.0167095776
v 0.0479479549 -0.0310806524 -0.0167113988
v 0.0500706697 -0.0319137559 -0.016712466
v 0.05234464 -0.0320841661 -0.0167126843
v 0.0545678136 -0.031576742 -0.0167120343
v 0.0565426517 -0.0304365693 -0.0167105738
v 0.0580936817 -0.0287649584 -0.0167084326
v 0.0590830866 -0.0267104386 -0.0167058009
v 0.0580229548 -0.0244573567 -0.0153029136
v 0.0576843128 -0.0264867268 -0.0153055131
v 0.056705083 -0.028296183 -0.0153078309
v 0.0551913807 -0.029689643 -0.0153096159
v 0.0533072392 -0.0305161037 -0.0153106745
v 0.0512568339 -0.0306860048 -0.0153108922
v 0.0492623583 -0.0301809351 -0.0153102452
v 0.047539945 -0.0290556275 -0.0153088038
v 0.0462762437 -0.0274320254 -0.015306724
v 0.0456081966 -0.0254860721 -0.0153042314
v 0.0456081966 -0.0234286414 -0.0153015959
v 0.0462762437 -0.021482688 -0.0152991033
v 0.047539945 -0.019859086 -0.0152970235
v 0.0492623583 -0.0187337783 -0.0152955821
v 0.0512568339 -0.0182287086 -0.0152949351
v 0.0533072392 -0.0183986097 -0.0152951527
v 0.0551913807 -0.0192250704 -0.0152962114
v 0.056705083 -0.0206185305 -0.0152979963
v 0.0576843128 -0.0224279867 -0.0153003141
v 0.0456081966 -0.0254860721 -0.0153042314
v 0.0442083988 -0.0255957358 -0.016704373
f 482 502 481
f 481 502 503
f 481 503 492
f 492 503 504
f 492 504 505
f 483 500 482
f 482 500 501
f 482 501 502
f 500 483 499
f 499 483 484
f 499 484 498
f 498 484 497
f 497 484 485
f 497 485 496
f 496 485 495
f 495 485 486
f 495 486 494
f 494 486 487
f 494 487 493
f 493 487 511
f 511 487 488
f 511 488 510
f 510 488 489
f 510 489 509
f 509 489 508
f 508 489 490
f 508 490 507
f 507 490 506
f 506 490 491
f 506 491 505
f 505 491 492
f 513 535 512
f 512 535 537
f 536 524 523
f 523 524 525
f 523 525 522
f 522 525 526
f 522 526 521
f 521 526 527
f 521 527 520
f 520 527 528
f 520 528 519
f 519 528 529
f 519 529 518
f 518 529 530
f 518 530 517
f 517 530 531
f 517 531 516
f 516 531 532
f 516 532 515
f 515 532 533
f 515 533 514
f 514 533 534
f 514 534 513
f 513 534 535
f 539 559 538
f 538 559 560
f 538 560 558
f 558 560 561
f 558 561 557
f 557 561 562
f 557 562 556
f 556 562 563
f 556 563 555
f 555 563 564
f 555 564 554
f 554 564 565
f 554 565 553
f 553 565 566
f 553 566 552
f 552 566 567
f 552 567 551
f 551 567 568
f 551 568 550
f 550 568 581
f 550 581 549
f 580 569 570
f 580 570 548
f 548 570 571
f 548 571 547
f 547 571 572
f 547 572 546
f 546 572 573
f 546 573 545
f 545 573 574
f 545 574 544
f 544 574 575
f 544 575 543
f 543 575 576
f 543 576 542
f 542 576 577
f 542 577 541
f 541 577 578
f 541 578 540
f 540 578 579
f 540 579 539
f 539 579 559
f 583 603 582
f 582 603 604
f 582 604 593
f 593 604 605
f 593 605 606
f 584 601 583
f 583 601 602
f 583 602 603
f 601 584 600
f 600 584 585
f 600 585 599
f 599 585 598
f 598 585 586
f 598 586 597
f 597 586 596
f 596 586 587
f 596 587 595
f 595 587 588
f 595 588 594
f 594 588 612
f 612 588 589
f 612 589 611
f 611 589 590
f 611 590 610
f 610 590 609
f 609 590 591
f 609 591 608
f 608 591 607
f 607 591 592
f 607 592 606
f 606 592 593
f 614 652 613
f 613 652 632
f 613 632 633
f 652 614 651
f 651 614 615
f 651 615 650
f 650 615 616
f 650 616 649
f 649 616 617
f 649 617 648
f 648 617 618
f 648 618 647
f 647 618 619
f 647 619 646
f 646 619 620
f 646 620 645
f 645 620 621
f 645 621 644
f 644 621 622
f 644 622 643
f 643 622 653
f 643 653 642
f 654 623 641
f 641 623 624
f 641 624 640
f 640 624 625
f 640 625 639
f 639 625 626
f 639 626 638
f 638 626 627
f 638 627 637
f 637 627 628
f 637 628 636
f 636 628 629
f 636 629 635
f 635 629 630
f 635 630 634
f 634 630 631
f 634 631 633
f 633 631 613
f 675 655 676
f 676 655 656
f 676 656 694
f 694 656 657
f 694 657 693
f 693 657 658
f 693 658 692
f 692 658 659
f 692 659 691
f 691 659 660
f 691 660 690
f 690 660 661
f 690 661 689
f 689 661 662
f 689 662 688
f 688 662 663
f 688 663 687
f 687 663 664
f 687 664 686
f 686 664 665
f 686 665 696
f 686 696 685
f 695 666 667
f 695 667 684
f 684 667 668
f 684 668 683
f 683 668 669
f 683 669 682
f 682 669 670
f 682 670 681
f 681 670 671
f 681 671 680
f 680 671 672
f 680 672 679
f 679 672 673
f 679 673 678
f 678 673 674
f 678 674 677
f 677 674 675
f 677 675 676
v 0.0492729548 0.0451038528 -0.024013817
v 0.0496078914 0.0438538538 -0.0240154182
v 0.0505229548 0.0429387911 -0.0240165903
v 0.0517729548 0.0426038548 -0.0240170194
v 0.0530229548 0.0429387911 -0.0240165903
v 0.0539380183 0.0438538538 -0.0240154182
v 0.0542729548 0.0451038528 -0.024013817
v 0.0539380183 0.0463538517 -0.0240122158
v 0.0530229548 0.0472689145 -0.0240110437
v 0.0517729548 0.0476038507 -0.0240106147
v 0.0505229548 0.0472689145 -0.0240110437
v 0.0496078914 0.0463538517 -0.0240122158
v 0.0580229548 0.0451038528 -0.024013817
v 0.0576843128 0.0430744827 -0.0240164165
v 0.056705083 0.0412650265 -0.0240187343
v 0.0551913807 0.0398715664 -0.0240205193
v 0.0533072392 0.0390451058 -0.0240215779
v 0.0512568339 0.0388752047 -0.0240217955
v 0.0492623583 0.0393802744 -0.0240211486
v 0.047539945 0.040505582 -0.0240197071
v 0.0462762437 0.0421291841 -0.0240176274
v 0.0456081966 0.0440751374 -0.0240151347
v 0.0456081966 0.0461325681 -0.0240124993
v 0.0462762437 0.0480785214 -0.0240100066
v 0.047539945 0.0497021235 -0.0240079269
v 0.0492623583 0.0508274312 -0.0240064854
v 0.0512568339 0.0513325008 -0.0240058385
v 0.0533072392 0.0511625997 -0.0240060561
v 0.0551913807 0.0503361391 -0.0240071148
v 0.056705083 0.048942679 -0.0240088997
v 0.0576843128 0.0471332228 -0.0240112175
v 0.0492729548 0.0450925805 -0.0152138243
v 0.0496078914 0.0438425815 -0.0152154255
v 0.0505229548 0.0429275188 -0.0152165976
v 0.0517729548 0.0425925825 -0.0152170266
v 0.0530229548 0.0429275188 -0.0152165976
v 0.0539380183 0.0438425815 -0.0152154255
v 0.0542729548 0.0450925805 -0.0152138243
v 0.0539380183 0.0463425795 -0.0152122231
v 0.0530229548 0.0472576422 -0.015211051
v 0.0517729548 0.0475925784 -0.0152106219
v 0.0505229548 0.0472576422 -0.015211051
v 0.0496078914 0.0463425795 -0.0152122231
v 0.0492729548 0.0451038528 -0.024013817
v 0.0496078914 0.0463538517 -0.0240122158
v 0.0505229548 0.0472689145 -0.0240110437
v 0.0517729548 0.0476038507 -0.0240106147
v 0.0530229548 0.0472689145 -0.0240110437
v 0.0539380183 0.0463538517 -0.0240122158
v 0.0542729548 0.0451038528 -0.024013817
v 0.0539380183 0.0438538538 -0.0240154182
v 0.0530229548 0.0429387911 -0.0240165903
v 0.0517729548 0.0426038548 -0.0240170194
v 0.0505229548 0.0429387911 -0.0240165903
v 0.0496078914 0.0438538538 -0.0240154182
v 0.0492729548 0.0450925805 -0.0152138243
v 0.0492729548 0.0451038528 -0.024013817
v 0.0594229547 0.0451020594 -0.0226138183
v 0.0590830866 0.0473569347 -0.0226109299
v 0.0580936817 0.0494114544 -0.0226082982
v 0.0565426517 0.0510830653 -0.022606157
v 0.0545678136 0.0522232381 -0.0226046965
v 0.05234464 0.0527306621 -0.0226040465
v 0.0500706697 0.052560252 -0.0226042648
v 0.0479479549 0.0517271484 -0.022605332
v 0.0461651078 0.0503053768 -0.0226071532
v 0.0448805431 0.0484212674 -0.0226095666
v 0.0442083988 0.0462422318 -0.0226123578
v 0.0442083988 0.0439618871 -0.0226152788
v 0.0448805431 0.0417828515 -0.02261807
v 0.0461651078 0.0398987421 -0.0226204834
v 0.0479479549 0.0384769705 -0.0226223046
v 0.0500706697 0.0376438669 -0.0226233718
v 0.05234464 0.0374734568 -0.0226235901
v 0.0545678136 0.0379808808 -0.0226229401
v 0.0565426517 0.0391210536 -0.0226214796
v 0.0580936817 0.0407926644 -0.0226193384
v 0.0590830866 0.0428471842 -0.0226167067
v 0.0594229547 0.0450943738 -0.0166138231
v 0.0590830866 0.0428394986 -0.0166167115
v 0.0580936817 0.0407849788 -0.0166193432
v 0.0565426517 0.0391133679 -0.0166214845
v 0.0545678136 0.0379731952 -0.0166229449
v 0.05234464 0.0374657711 -0.0166235949
v 0.0500706697 0.0376361813 -0.0166233766
v 0.0479479549 0.0384692848 -0.0166223095
v 0.0461651078 0.0398910565 -0.0166204883
v 0.0448805431 0.0417751658 -0.0166180748
v 0.0442083988 0.0439542014 -0.0166152836
v 0.0442083988 0.0462345462 -0.0166123626
v 0.0448805431 0.0484135818 -0.0166095714
v 0.0461651078 0.0502976911 -0.016607158
v 0.0479479549 0.0517194628 -0.0166053368
v 0.0500706697 0.0525525664 -0.0166042696
v 0.05234464 0.0527229765 -0.0166040513
v 0.0545678136 0.0522155524 -0.0166047013
v 0.0565426517 0.0510753797 -0.0166061618
v 0.0580936817 0.0494037688 -0.0166083031
v 0.0590830866 0.047349249 -0.0166109348
v 0.0442083988 0.0439618871 -0.0226152788
v 0.0442083988 0.0439542014 -0.0166152836
v 0.0492729548 0.0450925805 -0.0152138243
v 0.0496078914 0.0463425795 -0.0152122231
v 0.0505229548 0.0472576422 -0.015211051
v 0.0517729548 0.0475925784 -0.0152106219
v 0.0530229548 0.0472576422 -0.015211051
v 0.0539380183 0.0463425795 -0.0152122231
v 0.0542729548 0.0450925805 -0.0152138243
v 0.0539380183 0.0438425815 -0.0152154255
v 0.0530229548 0.0429275188 -0.0152165976
v 0.0517729548 0.0425925825 -0.0152170266
v 0.0505229548 0.0429275188 -0.0152165976
v 0.0496078914 0.0438425815 -0.0152154255
v 0.0580229548 0.0450925805 -0.0152138243
v 0.0576843128 0.0471219505 -0.0152112248
v 0.056705083 0.0489314067 -0.015208907
v 0.0551913807 0.0503248668 -0.015207122
v 0.0533072392 0.0511513275 -0.0152060634
v 0.0512568339 0.0513212286 -0.0152058457
v 0.0492623583 0.0508161589 -0.0152064927
v 0.047539945 0.0496908512 -0.0152079342
v 0.0462762437 0.0480672492 -0.0152100139
v 0.0456081966 0.0461212958 -0.0152125066
v 0.0456081966 0.0440638651 -0.015215142
v 0.0462762437 0.0421179118 -0.0152176347
v 0.047539945 0.0404943097 -0.0152197144
v 0.0492623583 0.0393690021 -0.0152211558
v 0.0512568339 0.0388639324 -0.0152218028
v 0.0533072392 0.0390338335 -0.0152215852
v 0.0551913807 0.0398602942 -0.0152205265
v 0.056705083 0.0412537542 -0.0152187416
v 0.0576843128 0.0430632104 -0.0152164238
v 0.0580229548 0.0451038528 -0.024013817
v 0.0576843128 0.0471332228 -0.0240112175
v 0.056705083 0.048942679 -0.0240088997
v 0.0551913807 0.0503361391 -0.0240071148
v 0.0533072392 0.0511625997 -0.0240060561
v 0.0512568339 0.0513325008 -0.0240058385
v 0.0492623583 0.0508274312 -0.0240064854
v 0.047539945 0.0497021235 -0.0240079269
v 0.0462762437 0.0480785214 -0.0240100066
v 0.0456081966 0.0461325681 -0.0240124993
v 0.0456081966 0.0440751374 -0.0240151347
v 0.0462762437 0.0421291841 -0.0240176274
v 0.047539945 0.040505582 -0.0240197071
v 0.0492623583 0.0393802744 -0.0240211486
v 0.0512568339 0.0388752047 -0.0240217955
v 0.0533072392 0.0390451058 -0.0240215779
v 0.0551913807 0.0398715664 -0.0240205193
v 0.056705083 0.0412650265 -0.0240187343
v 0.0576843128 0.0430744827 -0.0240164165
v 0.0594229547 0.0451020594 -0.0226138183
v 0.0590830866 0.0428471842 -0.0226167067
v 0.0580936817 0.0407926644 -0.0226193384
v 0.0565426517 0.0391210536 -0.0226214796
v 0.0545678136 0.0379808808 -0.0226229401
v 0.05234464 0.0374734568 -0.0226235901
v 0.0500706697 0.0376438669 -0.0226233718
v 0.0479479549 0.0384769705 -0.0226223046
v 0.0461651078 0.0398987421 -0.0226204834
v 0.0448805431 0.0417828515 -0.02261807
v 0.0442083988 0.0439618871 -0.0226152788
v 0.0442083988 0.0462422318 -0.0226123578
v 0.0448805431 0.0484212674 -0.0226095666
v 0.0461651078 0.0503053768 -0.0226071532
v 0.0479479549 0.0517271484 -0.022605332
v 0.0500706697 0.052560252 -0.0226042648
v 0.05234464 0.0527306621 -0.0226040465
v 0.0545678136 0.0522232381 -0.0226046965
v 0.0565426517 0.0510830653 -0.022606157
v 0.0580936817 0.0494114544 -0.0226082982
v 0.0590830866 0.0473569347 -0.0226109299
v 0.0456081966 0.0440751374 -0.0240151347
v 0.0442083988 0.0439618871 -0.0226152788
v 0.0594229547 0.0450943738 -0.0166138231
v 0.0590830866 0.047349249 -0.0166109348
v 0.0580936817 0.0494037688 -0.0166083031
v 0.0565426517 0.0510753797 -0.0166061618
v 0.0545678136 0.0522155524 -0.0166047013
v 0.05234464 0.0527229765 -0.0166040513
v 0.0500706697 0.0525525664 -0.0166042696
v 0.0479479549 0.0517194628 -0.0166053368
v 0.0461651078 0.0502976911 -0.016607158
v 0.0448805431 0.0484135818 -0.0166095714
v 0.0442083988 0.0462345462 -0.0166123626
v 0.0442083988 0.0439542014 -0.0166152836
v 0.0448805431 0.0417751658 -0.0166180748
v 0.0461651078 0.0398910565 -0.0166204883
v 0.0479479549 0.0384692848 -0.0166223095
v 0.0500706697 0.0376361813 -0.0166233766
v 0.05234464 0.0374657711 -0.0166235949
v 0.0545678136 0.0379731952 -0.0166229449
v 0.0565426517 0.0391133679 -0.0166214845
v 0.0580936817 0.0407849788 -0.0166193432
v 0.0590830866 0.0428394986 -0.0166167115
v 0.0580229548 0.0450925805 -0.0152138243
v 0.0576843128 0.0430632104 -0.0152164238
v 0.056705083 0.0412537542 -0.0152187416
v 0.0551913807 0.0398602942 -0.0152205265
v 0.0533072392 0.0390338335 -0.0152215852
v 0.0512568339 0.0388639324 -0.0152218028
v 0.0492623583 0.0393690021 -0.0152211558
v 0.047539945 0.0404943097 -0.0152197144
v 0.0462762437 0.0421179118 -0.0152176347
v 0.0456081966 0.0440638651 -0.015215142
v 0.0456081966 0.0461212958 -0.0152125066
v 0.0462762437 0.0480672492 -0.0152100139
v 0.047539945 0.0496908512 -0.0152079342
v 0.0492623583 0.0508161589 -0.0152064927
v 0.0512568339 0.0513212286 -0.0152058457
v 0.0533072392 0.0511513275 -0.0152060634
v 0.0551913807 0.0503248668 -0.015207122
v 0.056705083 0.0489314067 -0.015208907
v 0.0576843128 0.0471219505 -0.0152112248
v 0.0456081966 0.0440638651 -0.015215142
v 0.0442083988 0.0439542014 -0.0166152836
f 698 718 697
f 697 718 719
f 697 719 708
f 708 719 720
f 708 720 721
f 699 716 698
f 698 716 717
f 698 717 718
f 716 699 715
f 715 699 700
f 715 700 714
f 714 700 713
f 713 700 701
f 713 701 712
f 712 701 711
f 711 701 702
f 711 702 710
f 710 702 703
f 710 703 709
f 709 703 727
f 727 703 704
f 727 704 726
f 726 704 705
f 726 705 725
f 725 705 724
f 724 705 706
f 724 706 723
f 723 706 722
f 722 706 707
f 722 707 721
f 721 707 708
f 729 751 728
f 728 751 753
f 752 740 739
f 739 740 741
f 739 741 738
f 738 741 742
f 738 742 737
f 737 742 743
f 737 743 736
f 736 743 744
f 736 744 735
f 735 744 745
f 735 745 734
f 734 745 746
f 734 746 733
f 733 746 747
f 733 747 732
f 732 747 748
f 732 748 731
f 731 748 749
f 731 749 730
f 730 749 750
f 730 750 729
f 729 750 751
f 755 775 754
f 754 775 776
f 754 776 774
f 774 776 777
f 774 777 773
f 773 777 778
f 773 778 772
f 772 778 779
f 772 779 771
f 771 779 780
f 771 780 770
f 770 780 781
f 770 781 769
f 769 781 782
f 769 782 768
f 768 782 783
f 768 783 767
f 767 783 784
f 767 784 766
f 766 784 797
f 766 797 765
f 796 785 786
f 796 786 764
f 764 786 787
f 764 787 763
f 763 787 788
f 763 788 762
f 762 788 789
f 762 789 761
f 761 789 790
f 761 790 760
f 760 790 791
f 760 791 759
f 759 791 792
f 759 792 758
f 758 792 793
f 758 793 757
f 757 793 794
f 757 794 756
f 756 794 795
f 756 795 755
f 755 795 775
f 799 819 798
f 798 819 820
f 798 820 809
f 809 820 821
f 809 821 822
f 800 817 799
f 799 817 818
f 799 818 819
f 817 800 816
f 816 800 801
f 816 801 815
f 815 801 814
f 814 801 802
f 814 802 813
f 813 802 812
f 812 802 803
f 812 803 811
f 811 803 804
f 811 804 810
f 810 804 828
f 828 804 805
f 828 805 827
f 827 805 806
f 827 806 826
f 826 806 825
f 825 806 807
f 825 807 824
f 824 807 823
f 823 807 808
f 823 808 822
f 822 808 809
f 830 868 829
f 829 868 848
f 829 848 849
f 868 830 867
f 867 830 831
f 867 831 866
f 866 831 832
f 866 832 865
f 865 832 833
f 865 833 864
f 864 833 834
f 864 834 863
f 863 834 835
f 863 835 862
f 862 835 836
f 862 836 861
f 861 836 837
f 861 837 860
f 860 837 838
f 860 838 859
f 859 838 869
f 859 869 858
f 870 839 857
f 857 839 840
f 857 840 856
f 856 840 841
f 856 841 855
f 855 841 842
f 855 842 854
f 854 842 843
f 854 843 853
f 853 843 844
f 853 844 852
f 852 844 845
f 852 845 851
f 851 845 846
f 851 846 850
f 850 846 847
f 850 847 849
f 849 847 829
f 891 871 892
f 892 871 872
f 892 872 910
f 910 872 873
f 910 873 909
f 909 873 874
f 909 874 908
f 908 874 875
f 908 875 907
f 907 875 876
f 907 876 906
f 906 876 877
f 906 877 905
f 905 877 878
f 905 878 904
f 904 878 879
f 904 879 903
f 903 879 880
f 903 880 902
f 902 880 881
f 902 881 912
f 902 912 901
f 911 882 883
f 911 883 900
f 900 883 884
f 900 884 899
f 899 884 885
f 899 885 898
f 898 885 886
f 898 886 897
f 897 886 887
f 897 887 896
f 896 887 888
f 896 888 895
f 895 888 889
f 895 889 894
f 894 889 890
f 894 890 893
f 893 890 891
f 893 891 892
