v 0.0089405699 -0.176439251 0.130445493
v 0.0100787253 -0.176447234 0.131352508
v 0.0107495515 -0.176458603 0.132644018
v 0.0108370568 -0.176471391 0.13409671
v 0.0103261108 -0.176483387 0.135459401
v 0.00930506071 -0.176492517 0.136496469
v 0.00795045501 -0.176497203 0.137028595
v 0.00649651766 -0.176496633 0.13696377
v 0.00519464762 -0.176490907 0.136313203
v 0.00426995005 -0.176481014 0.135189382
v 0.00388231332 -0.176468666 0.133786627
v 0.0040987637 -0.176455997 0.132347487
v 0.0048818748 -0.176445198 0.131120801
v 0.00609623931 -0.176438136 0.130318676
v 0.00753188309 -0.176436032 0.130079806
v 0.00871705732 -0.176443188 0.130892736
v 0.00741989436 -0.176440406 0.130576634
v 0.00611403373 -0.176442854 0.130854632
v 0.00505811733 -0.176450047 0.131671669
v 0.0044612824 -0.176460561 0.132865921
v 0.00444173932 -0.176472312 0.134200852
v 0.00500335888 -0.176482974 0.135412062
v 0.0060349053 -0.176490435 0.136259657
v 0.00733206825 -0.176493217 0.136575759
v 0.00863792889 -0.176490769 0.136297761
v 0.00969384529 -0.176483575 0.135480724
v 0.0102906802 -0.176473062 0.134286472
v 0.0103102233 -0.176461311 0.132951541
v 0.00974860373 -0.176450649 0.131740331
v 0.00581139073 -0.173494488 0.136733308
v 0.00722007753 -0.173497706 0.137098995
v 0.00865572131 -0.173495603 0.136860125
v 0.00987008582 -0.173488541 0.136058
v 0.0106531969 -0.173477742 0.134831314
v 0.0108696473 -0.173465073 0.133392174
v 0.0104820106 -0.173452725 0.131989419
v 0.009557313 -0.173442832 0.130865598
v 0.00825544296 -0.173437106 0.130215031
v 0.00680150561 -0.173436536 0.130150206
v 0.00544689991 -0.173441222 0.130682332
v 0.00442584979 -0.173450352 0.1317194
v 0.00391490384 -0.173462348 0.133082091
v 0.00400240909 -0.173475136 0.134534783
v 0.00467323536 -0.173486504 0.135826294
v 0.00871705532 -0.173443304 0.130919145
v 0.00974860174 -0.173450765 0.131766739
v 0.0103102213 -0.173461427 0.132977949
v 0.0102906782 -0.173473178 0.13431288
v 0.00969384329 -0.173483692 0.135507132
v 0.00863792689 -0.173490885 0.136324169
v 0.00733206626 -0.173493333 0.136602167
v 0.00603490331 -0.173490551 0.136286065
v 0.00500335689 -0.17348309 0.13543847
v 0.00444173733 -0.173472428 0.13422726
v 0.00446128041 -0.173460677 0.132892329
v 0.00505811534 -0.173450163 0.131698077
v 0.00611403173 -0.17344297 0.13088104
v 0.00741989237 -0.173440522 0.130603042
v 0.00536436577 -0.174002343 0.137623393
v 0.00695432819 -0.174006346 0.138078232
v 0.0086012371 -0.174005023 0.137928018
v 0.010082668 -0.173998552 0.137193038
v 0.0111985459 -0.173987807 0.135972556
v 0.0117981648 -0.17397424 0.134431405
v 0.0118005433 -0.173959683 0.132777725
v 0.0112053598 -0.173946101 0.131234855
v 0.0100929974 -0.17393533 0.130011169
v 0.00861368671 -0.173928823 0.129271931
v 0.00696721676 -0.17392746 0.12911698
v 0.00537595239 -0.173931425 0.129567244
v 0.00405480302 -0.173940182 0.130561911
v 0.00318219677 -0.173952548 0.131966646
v 0.0028759843 -0.173966854 0.133591732
v 0.00317752093 -0.173981167 0.135217691
v 0.0040460829 -0.173993555 0.13662493
v 0.00581139106 -0.173994469 0.136728906
v 0.00467323569 -0.173986485 0.135821892
v 0.00400240942 -0.173975116 0.134530382
v 0.00391490417 -0.173962328 0.133077689
v 0.00442585012 -0.173950332 0.131714998
v 0.00544690025 -0.173941202 0.130677931
v 0.00680150594 -0.173936517 0.130145805
v 0.00825544329 -0.173937087 0.13021063
v 0.00955731333 -0.173942813 0.130861197
v 0.0104820109 -0.173952705 0.131985018
v 0.0108696476 -0.173965053 0.133387773
v 0.0106531973 -0.173977722 0.134826913
v 0.00987008616 -0.173988521 0.136053598
v 0.00865572164 -0.173995583 0.136855723
v 0.00722007786 -0.173997687 0.137094594
v 0.00961110604 -0.173627547 0.129128411
v 0.011006033 -0.17363665 0.13016256
v 0.0119631219 -0.173649404 0.131611418
v 0.0123669335 -0.17366427 0.133300229
v 0.0121687626 -0.173679456 0.135025299
v 0.0113925113 -0.17369313 0.136578559
v 0.010131807 -0.173703643 0.137772662
v 0.00853870933 -0.173709726 0.138463583
v 0.00680536906 -0.173710646 0.138567985
v 0.00514085286 -0.173706292 0.138073277
v 0.00374592592 -0.17369719 0.137039128
v 0.00278883698 -0.173684436 0.135590271
v 0.00238502535 -0.173669569 0.133901459
v 0.00258319631 -0.173654384 0.132176389
v 0.00335944763 -0.17364071 0.130623129
v 0.00462015194 -0.173630197 0.129429026
v 0.00621324957 -0.173624114 0.128738105
v 0.00794658983 -0.173623194 0.128633703
v 0.0096111075 -0.175827462 0.129109045
v 0.00794659129 -0.175823108 0.128614337
v 0.00621325103 -0.175824029 0.128718739
v 0.0046201534 -0.175830112 0.12940966
v 0.00335944909 -0.175840624 0.130603764
v 0.00258319777 -0.175854298 0.132157023
v 0.00238502681 -0.175869484 0.133882093
v 0.00278883844 -0.175884351 0.135570905
v 0.00374592738 -0.175897104 0.137019762
v 0.00514085432 -0.175906207 0.138053911
v 0.00680537053 -0.175910561 0.138548619
v 0.00853871079 -0.175909641 0.138444217
v 0.0101318084 -0.175903557 0.137753296
v 0.0113925127 -0.175893045 0.136559193
v 0.012168764 -0.175879371 0.135005933
v 0.012366935 -0.175864185 0.133280863
v 0.0119631234 -0.175849319 0.131592052
v 0.0110060344 -0.175836565 0.130143194
v 0.00514085286 -0.173706292 0.138073277
v 0.00514085432 -0.175906207 0.138053911
v 0.00871705532 -0.173443304 0.130919145
v 0.00741989237 -0.173440522 0.130603042
v 0.00611403173 -0.17344297 0.13088104
v 0.00505811534 -0.173450163 0.131698077
v 0.00446128041 -0.173460677 0.132892329
v 0.00444173733 -0.173472428 0.13422726
v 0.00500335689 -0.17348309 0.13543847
v 0.00603490331 -0.173490551 0.136286065
v 0.00733206626 -0.173493333 0.136602167
v 0.00863792689 -0.173490885 0.136324169
v 0.00969384329 -0.173483692 0.135507132
v 0.0102906782 -0.173473178 0.13431288
v 0.0103102213 -0.173461427 0.132977949
v 0.00974860174 -0.173450765 0.131766739
v 0.00871705732 -0.176443188 0.130892736
v 0.00974860373 -0.176450649 0.131740331
v 0.0103102233 -0.176461311 0.132951541
v 0.0102906802 -0.176473062 0.134286472
v 0.00969384529 -0.176483575 0.135480724
v 0.00863792889 -0.176490769 0.136297761
v 0.00733206825 -0.176493217 0.136575759
v 0.0060349053 -0.176490435 0.136259657
v 0.00500335888 -0.176482974 0.135412062
v 0.00444173932 -0.176472312 0.134200852
v 0.0044612824 -0.176460561 0.132865921
v 0.00505811733 -0.176450047 0.131671669
v 0.00611403373 -0.176442854 0.130854632
v 0.00741989436 -0.176440406 0.130576634
v 0.0060349053 -0.176490435 0.136259657
v 0.00603490331 -0.173490551 0.136286065
v 0.00938759486 -0.175931396 0.129555408
v 0.0107058777 -0.175940184 0.130553871
v 0.0115744397 -0.175952572 0.13196111
v 0.0118759763 -0.175966885 0.133587069
v 0.0115697639 -0.175981191 0.135212155
v 0.0106971576 -0.175993557 0.13661689
v 0.00937600823 -0.176002314 0.137611557
v 0.00778474386 -0.176006279 0.138061821
v 0.00613827391 -0.176004916 0.13790687
v 0.00465896322 -0.175998409 0.137167633
v 0.00354660079 -0.175987638 0.135943946
v 0.00295141734 -0.175974056 0.134401076
v 0.00295379579 -0.175959499 0.132747396
v 0.00355341474 -0.175945932 0.131206245
v 0.00466929266 -0.175935187 0.129985763
v 0.00615072352 -0.175928716 0.129250784
v 0.00779763243 -0.175927393 0.129100569
v 0.00894056956 -0.17593927 0.130449895
v 0.00753188276 -0.175936052 0.130084207
v 0.00609623898 -0.175938156 0.130323078
v 0.00488187447 -0.175945217 0.131125203
v 0.00409876337 -0.175956017 0.132351888
v 0.00388231299 -0.175968685 0.133791028
v 0.00426994972 -0.175981034 0.135193783
v 0.00519464729 -0.175990926 0.136317604
v 0.00649651733 -0.175996652 0.136968172
v 0.00795045468 -0.175997222 0.137032996
v 0.00930506038 -0.175992537 0.13650087
v 0.0103261105 -0.175983407 0.135463803
v 0.0108370565 -0.175971411 0.134101112
v 0.0107495512 -0.175958622 0.132648419
v 0.0100787249 -0.175947254 0.131356909
v 0.0095217008 -0.17342913 0.129309069
v 0.00782574077 -0.17342486 0.128823908
v 0.00606903814 -0.173426272 0.128984136
v 0.00448884501 -0.173433174 0.129768114
v 0.00329857556 -0.173444635 0.131069962
v 0.00265898188 -0.173459107 0.132713856
v 0.00265644488 -0.173474635 0.134477782
v 0.00329130732 -0.173489122 0.136123509
v 0.00447782701 -0.173500611 0.137428775
v 0.00605575852 -0.173507552 0.138217295
v 0.00781199301 -0.173509005 0.138382575
v 0.00950934158 -0.173504776 0.137902294
v 0.0109185676 -0.173495436 0.136841316
v 0.0118493475 -0.173482245 0.135342932
v 0.0121759743 -0.173466985 0.133609508
v 0.0118543352 -0.173451718 0.13187515
v 0.0109278692 -0.173438505 0.130374096
v 0.00536436544 -0.173502363 0.137627794
v 0.00404608257 -0.173493574 0.136629332
v 0.0031775206 -0.173481187 0.135222093
v 0.00287598397 -0.173466874 0.133596133
v 0.00318219643 -0.173452568 0.131971047
v 0.00405480269 -0.173440201 0.130566312
v 0.00537595206 -0.173431444 0.129571645
v 0.00696721643 -0.173427479 0.129121382
v 0.00861368638 -0.173428842 0.129276332
v 0.0100929971 -0.173435349 0.13001557
v 0.0112053595 -0.17344612 0.131239256
v 0.0118005429 -0.173459702 0.132782126
v 0.0117981645 -0.173474259 0.134435806
v 0.0111985455 -0.173487826 0.135976957
v 0.0100826676 -0.173498571 0.137197439
v 0.00860123677 -0.173505042 0.137932419
v 0.00695432786 -0.173506366 0.138082633
v 0.00938759486 -0.175931396 0.129555408
v 0.00779763243 -0.175927393 0.129100569
v 0.00615072352 -0.175928716 0.129250784
v 0.00466929266 -0.175935187 0.129985763
v 0.00355341474 -0.175945932 0.131206245
v 0.00295379579 -0.175959499 0.132747396
v 0.00295141734 -0.175974056 0.134401076
v 0.00354660079 -0.175987638 0.135943946
v 0.00465896322 -0.175998409 0.137167633
v 0.00613827391 -0.176004916 0.13790687
v 0.00778474386 -0.176006279 0.138061821
v 0.00937600823 -0.176002314 0.137611557
v 0.0106971576 -0.175993557 0.13661689
v 0.0115697639 -0.175981191 0.135212155
v 0.0118759763 -0.175966885 0.133587069
v 0.0115744397 -0.175952572 0.13196111
v 0.0107058777 -0.175940184 0.130553871
v 0.00938759519 -0.176431376 0.129551007
v 0.0107058781 -0.176440165 0.130549469
v 0.01157444 -0.176452552 0.131956708
v 0.0118759767 -0.176466865 0.133582668
v 0.0115697642 -0.176481171 0.135207754
v 0.0106971579 -0.176493538 0.136612489
v 0.00937600856 -0.176502295 0.137607156
v 0.00778474419 -0.176506259 0.138057419
v 0.00613827425 -0.176504896 0.137902469
v 0.00465896356 -0.17649839 0.137163231
v 0.00354660112 -0.176487619 0.135939545
v 0.00295141768 -0.176474037 0.134396675
v 0.00295379612 -0.17645948 0.132742995
v 0.00355341507 -0.176445912 0.131201844
v 0.00466929299 -0.176435168 0.129981362
v 0.00615072386 -0.176428697 0.129246382
v 0.00779763276 -0.176427373 0.129096168
v 0.00613827391 -0.176004916 0.13790687
v 0.00613827425 -0.176504896 0.137902469
v 0.00978991812 -0.176424289 0.128745968
v 0.0112964391 -0.17643412 0.12986285
v 0.012330095 -0.176447894 0.131427616
v 0.0127662119 -0.17646395 0.133251532
v 0.0125521869 -0.176480351 0.135114608
v 0.0117138355 -0.176495118 0.136792128
v 0.0103522751 -0.176506472 0.13808176
v 0.00863172925 -0.176513042 0.138827954
v 0.00675972206 -0.176514036 0.138940709
v 0.00496204449 -0.176509334 0.138406425
v 0.00345552356 -0.176499503 0.137289543
v 0.00242186763 -0.176485729 0.135724777
v 0.00198575073 -0.176469673 0.133900861
v 0.00219977569 -0.176453272 0.132037785
v 0.00303812708 -0.176438504 0.130360265
v 0.00439968754 -0.176427151 0.129070633
v 0.00612023337 -0.176420581 0.128324439
v 0.00799224056 -0.176419587 0.128211684
v 0.00938759519 -0.176431376 0.129551007
v 0.00779763276 -0.176427373 0.129096168
v 0.00615072386 -0.176428697 0.129246382
v 0.00466929299 -0.176435168 0.129981362
v 0.00355341507 -0.176445912 0.131201844
v 0.00295379612 -0.17645948 0.132742995
v 0.00295141768 -0.176474037 0.134396675
v 0.00354660112 -0.176487619 0.135939545
v 0.00465896356 -0.17649839 0.137163231
v 0.00613827425 -0.176504896 0.137902469
v 0.00778474419 -0.176506259 0.138057419
v 0.00937600856 -0.176502295 0.137607156
v 0.0106971579 -0.176493538 0.136612489
v 0.0115697642 -0.176481171 0.135207754
v 0.0118759767 -0.176466865 0.133582668
v 0.01157444 -0.176452552 0.131956708
v 0.0107058781 -0.176440165 0.130549469
v 0.00978991772 -0.175824312 0.12875125
v 0.00799224016 -0.17581961 0.128216966
v 0.00612023297 -0.175820604 0.12832972
v 0.00439968715 -0.175827174 0.129075915
v 0.00303812668 -0.175838528 0.130365546
v 0.00219977529 -0.175853295 0.132043067
v 0.00198575033 -0.175869696 0.133906143
v 0.00242186723 -0.175885752 0.135730059
v 0.00345552316 -0.175899526 0.137294825
v 0.00496204409 -0.175909357 0.138411706
v 0.00675972166 -0.175914059 0.138945991
v 0.00863172885 -0.175913065 0.138833236
v 0.0103522747 -0.175906495 0.138087042
v 0.0117138351 -0.175895142 0.13679741
v 0.0125521865 -0.175880374 0.135119889
v 0.0127662115 -0.175863973 0.133256814
v 0.0123300946 -0.175847917 0.131432897
v 0.0112964387 -0.175834143 0.129868132
v 0.0096111075 -0.175827462 0.129109045
v 0.0110060344 -0.175836565 0.130143194
v 0.0119631234 -0.175849319 0.131592052
v 0.012366935 -0.175864185 0.133280863
v 0.012168764 -0.175879371 0.135005933
v 0.0113925127 -0.175893045 0.136559193
v 0.0101318084 -0.175903557 0.137753296
v 0.00853871079 -0.175909641 0.138444217
v 0.00680537053 -0.175910561 0.138548619
v 0.00514085432 -0.175906207 0.138053911
v 0.00374592738 -0.175897104 0.137019762
v 0.00278883844 -0.175884351 0.135570905
v 0.00238502681 -0.175869484 0.133882093
v 0.00258319777 -0.175854298 0.132157023
v 0.00335944909 -0.175840624 0.130603764
v 0.0046201534 -0.175830112 0.12940966
v 0.00621325103 -0.175824029 0.128718739
v 0.00794659129 -0.175823108 0.128614337
v 0.00894056956 -0.17593927 0.130449895
v 0.0100787249 -0.175947254 0.131356909
v 0.0107495512 -0.175958622 0.132648419
v 0.0108370565 -0.175971411 0.134101112
v 0.0103261105 -0.175983407 0.135463803
v 0.00930506038 -0.175992537 0.13650087
v 0.00795045468 -0.175997222 0.137032996
v 0.00649651733 -0.175996652 0.136968172
v 0.00519464729 -0.175990926 0.136317604
v 0.00426994972 -0.175981034 0.135193783
v 0.00388231299 -0.175968685 0.133791028
v 0.00409876337 -0.175956017 0.132351888
v 0.00488187447 -0.175945217 0.131125203
v 0.00609623898 -0.175938156 0.130323078
v 0.00753188276 -0.175936052 0.130084207
v 0.0089405699 -0.176439251 0.130445493
v 0.00753188309 -0.176436032 0.130079806
v 0.00609623931 -0.176438136 0.130318676
v 0.0048818748 -0.176445198 0.131120801
v 0.0040987637 -0.176455997 0.132347487
v 0.00388231332 -0.176468666 0.133786627
v 0.00426995005 -0.176481014 0.135189382
v 0.00519464762 -0.176490907 0.136313203
v 0.00649651766 -0.176496633 0.13696377
v 0.00795045501 -0.176497203 0.137028595
v 0.00930506071 -0.176492517 0.136496469
v 0.0103261108 -0.176483387 0.135459401
v 0.0108370568 -0.176471391 0.13409671
v 0.0107495515 -0.176458603 0.132644018
v 0.0100787253 -0.176447234 0.131352508
v 0.00519464729 -0.175990926 0.136317604
v 0.00519464762 -0.176490907 0.136313203
v 0.00536436577 -0.174002343 0.137623393
v 0.0040460829 -0.173993555 0.13662493
v 0.00317752093 -0.173981167 0.135217691
v 0.0028759843 -0.173966854 0.133591732
v 0.00318219677 -0.173952548 0.131966646
v 0.00405480302 -0.173940182 0.130561911
v 0.00537595239 -0.173931425 0.129567244
v 0.00696721676 -0.17392746 0.12911698
v 0.00861368671 -0.173928823 0.129271931
v 0.0100929974 -0.17393533 0.130011169
v 0.0112053598 -0.173946101 0.131234855
v 0.0118005433 -0.173959683 0.132777725
v 0.0117981648 -0.17397424 0.134431405
v 0.0111985459 -0.173987807 0.135972556
v 0.010082668 -0.173998552 0.137193038
v 0.0086012371 -0.174005023 0.137928018
v 0.00695432819 -0.174006346 0.138078232
v 0.00536436544 -0.173502363 0.137627794
v 0.00695432786 -0.173506366 0.138082633
v 0.00860123677 -0.173505042 0.137932419
v 0.0100826676 -0.173498571 0.137197439
v 0.0111985455 -0.173487826 0.135976957
v 0.0117981645 -0.173474259 0.134435806
v 0.0118005429 -0.173459702 0.132782126
v 0.0112053595 -0.17344612 0.131239256
v 0.0100929971 -0.173435349 0.13001557
v 0.00861368638 -0.173428842 0.129276332
v 0.00696721643 -0.173427479 0.129121382
v 0.00537595206 -0.173431444 0.129571645
v 0.00405480269 -0.173440201 0.130566312
v 0.00318219643 -0.173452568 0.131971047
v 0.00287598397 -0.173466874 0.133596133
v 0.0031775206 -0.173481187 0.135222093
v 0.00404608257 -0.173493574 0.136629332
v 0.0100929974 -0.17393533 0.130011169
v 0.0100929971 -0.173435349 0.13001557
v 0.00581139106 -0.173994469 0.136728906
v 0.00722007786 -0.173997687 0.137094594
v 0.00865572164 -0.173995583 0.136855723
v 0.00987008616 -0.173988521 0.136053598
v 0.0106531973 -0.173977722 0.134826913
v 0.0108696476 -0.173965053 0.133387773
v 0.0104820109 -0.173952705 0.131985018
v 0.00955731333 -0.173942813 0.130861197
v 0.00825544329 -0.173937087 0.13021063
v 0.00680150594 -0.173936517 0.130145805
v 0.00544690025 -0.173941202 0.130677931
v 0.00442585012 -0.173950332 0.131714998
v 0.00391490417 -0.173962328 0.133077689
v 0.00400240942 -0.173975116 0.134530382
v 0.00467323569 -0.173986485 0.135821892
v 0.00581139073 -0.173494488 0.136733308
v 0.00467323536 -0.173486504 0.135826294
v 0.00400240909 -0.173475136 0.134534783
v 0.00391490384 -0.173462348 0.133082091
v 0.00442584979 -0.173450352 0.1317194
v 0.00544689991 -0.173441222 0.130682332
v 0.00680150561 -0.173436536 0.130150206
v 0.00825544296 -0.173437106 0.130215031
v 0.009557313 -0.173442832 0.130865598
v 0.0104820106 -0.173452725 0.131989419
v 0.0108696473 -0.173465073 0.133392174
v 0.0106531969 -0.173477742 0.134831314
v 0.00987008582 -0.173488541 0.136058
v 0.00865572131 -0.173495603 0.136860125
v 0.00722007753 -0.173497706 0.137098995
v 0.00825544329 -0.173937087 0.13021063
v 0.00825544296 -0.173437106 0.130215031
v 0.00987932284 -0.17602273 0.128570592
v 0.0113702082 -0.176032273 0.129654803
v 0.012428257 -0.176045561 0.131164339
v 0.0129388135 -0.176061153 0.132935619
v 0.0128465505 -0.17607736 0.134776696
v 0.0121614664 -0.176092426 0.136488063
v 0.0109578011 -0.176104717 0.137884265
v 0.00936598983 -0.176112903 0.138814003
v 0.0075585301 -0.176116096 0.139176525
v 0.00573128849 -0.176113949 0.138932545
v 0.00408227473 -0.176106696 0.138108504
v 0.00279018511 -0.176095123 0.136793699
v 0.00199503777 -0.176080483 0.135130609
v 0.00178299915 -0.176064363 0.133299455
v 0.00217704701 -0.176048511 0.131498673
v 0.00313447968 -0.176034643 0.129923404
v 0.00455154484 -0.176024263 0.128744353
v 0.00627468176 -0.176018495 0.128089289
v 0.00811716157 -0.176017965 0.128029198
v 0.00987932297 -0.176222722 0.128568832
v 0.00811716171 -0.176217957 0.128027438
v 0.00627468189 -0.176218487 0.128087529
v 0.00455154497 -0.176224255 0.128742593
v 0.00313447982 -0.176234635 0.129921643
v 0.00217704714 -0.176248503 0.131496912
v 0.00178299928 -0.176264356 0.133297695
v 0.0019950379 -0.176280475 0.135128848
v 0.00279018524 -0.176295115 0.136791938
v 0.00408227486 -0.176306688 0.138106744
v 0.00573128862 -0.176313941 0.138930785
v 0.00755853023 -0.176316088 0.139174764
v 0.00936598997 -0.176312895 0.138812242
v 0.0109578012 -0.17630471 0.137882505
v 0.0121614665 -0.176292418 0.136486302
v 0.0128465507 -0.176277352 0.134774936
v 0.0129388136 -0.176261145 0.132933858
v 0.0124282572 -0.176245553 0.131162578
v 0.0113702083 -0.176232265 0.129653042
v 0.00408227473 -0.176106696 0.138108504
v 0.00408227486 -0.176306688 0.138106744
v 0.0095217008 -0.17342913 0.129309069
v 0.0109278692 -0.173438505 0.130374096
v 0.0118543352 -0.173451718 0.13187515
v 0.0121759743 -0.173466985 0.133609508
v 0.0118493475 -0.173482245 0.135342932
v 0.0109185676 -0.173495436 0.136841316
v 0.00950934158 -0.173504776 0.137902294
v 0.00781199301 -0.173509005 0.138382575
v 0.00605575852 -0.173507552 0.138217295
v 0.00447782701 -0.173500611 0.137428775
v 0.00329130732 -0.173489122 0.136123509
v 0.00265644488 -0.173474635 0.134477782
v 0.00265898188 -0.173459107 0.132713856
v 0.00329857556 -0.173444635 0.131069962
v 0.00448884501 -0.173433174 0.129768114
v 0.00606903814 -0.173426272 0.128984136
v 0.00782574077 -0.17342486 0.128823908
v 0.00961110604 -0.173627547 0.129128411
v 0.00794658983 -0.173623194 0.128633703
v 0.00621324957 -0.173624114 0.128738105
v 0.00462015194 -0.173630197 0.129429026
v 0.00335944763 -0.17364071 0.130623129
v 0.00258319631 -0.173654384 0.132176389
v 0.00238502535 -0.173669569 0.133901459
v 0.00278883698 -0.173684436 0.135590271
v 0.00374592592 -0.17369719 0.137039128
v 0.00514085286 -0.173706292 0.138073277
v 0.00680536906 -0.173710646 0.138567985
v 0.00853870933 -0.173709726 0.138463583
v 0.010131807 -0.173703643 0.137772662
v 0.0113925113 -0.17369313 0.136578559
v 0.0121687626 -0.173679456 0.135025299
v 0.0123669335 -0.17366427 0.133300229
v 0.0119631219 -0.173649404 0.131611418
v 0.011006033 -0.17363665 0.13016256
v 0.00605575852 -0.173507552 0.138217295
v 0.00514085286 -0.173706292 0.138073277
v 0.00978991772 -0.175824312 0.12875125
v 0.0112964387 -0.175834143 0.129868132
v 0.0123300946 -0.175847917 0.131432897
v 0.0127662115 -0.175863973 0.133256814
v 0.0125521865 -0.175880374 0.135119889
v 0.0117138351 -0.175895142 0.13679741
v 0.0103522747 -0.175906495 0.138087042
v 0.00863172885 -0.175913065 0.138833236
v 0.00675972166 -0.175914059 0.138945991
v 0.00496204409 -0.175909357 0.138411706
v 0.00345552316 -0.175899526 0.137294825
v 0.00242186723 -0.175885752 0.135730059
v 0.00198575033 -0.175869696 0.133906143
v 0.00219977529 -0.175853295 0.132043067
v 0.00303812668 -0.175838528 0.130365546
v 0.00439968715 -0.175827174 0.129075915
v 0.00612023297 -0.175820604 0.12832972
v 0.00799224016 -0.17581961 0.128216966
v 0.00987932284 -0.17602273 0.128570592
v 0.00811716157 -0.176017965 0.128029198
v 0.00627468176 -0.176018495 0.128089289
v 0.00455154484 -0.176024263 0.128744353
v 0.00313447968 -0.176034643 0.129923404
v 0.00217704701 -0.176048511 0.131498673
v 0.00178299915 -0.176064363 0.133299455
v 0.00199503777 -0.176080483 0.135130609
v 0.00279018511 -0.176095123 0.136793699
v 0.00408227473 -0.176106696 0.138108504
v 0.00573128849 -0.176113949 0.138932545
v 0.0075585301 -0.176116096 0.139176525
v 0.00936598983 -0.176112903 0.138814003
v 0.0109578011 -0.176104717 0.137884265
v 0.0121614664 -0.176092426 0.136488063
v 0.0128465505 -0.17607736 0.134776696
v 0.0129388135 -0.176061153 0.132935619
v 0.012428257 -0.176045561 0.131164339
v 0.0113702082 -0.176032273 0.129654803
v 0.00408227473 -0.176106696 0.138108504
v 0.00496204409 -0.175909357 0.138411706
v 0.00987932297 -0.176222722 0.128568832
v 0.0113702083 -0.176232265 0.129653042
v 0.0124282572 -0.176245553 0.131162578
v 0.0129388136 -0.176261145 0.132933858
v 0.0128465507 -0.176277352 0.134774936
v 0.0121614665 -0.176292418 0.136486302
v 0.0109578012 -0.17630471 0.137882505
v 0.00936598997 -0.176312895 0.138812242
v 0.00755853023 -0.176316088 0.139174764
v 0.00573128862 -0.176313941 0.138930785
v 0.00408227486 -0.176306688 0.138106744
v 0.00279018524 -0.176295115 0.136791938
v 0.0019950379 -0.176280475 0.135128848
v 0.00178299928 -0.176264356 0.133297695
v 0.00217704714 -0.176248503 0.131496912
v 0.00313447982 -0.176234635 0.129921643
v 0.00455154497 -0.176224255 0.128742593
v 0.00627468189 -0.176218487 0.128087529
v 0.00811716171 -0.176217957 0.128027438
v 0.00978991812 -0.176424289 0.128745968
v 0.00799224056 -0.176419587 0.128211684
v 0.00612023337 -0.176420581 0.128324439
v 0.00439968754 -0.176427151 0.129070633
v 0.00303812708 -0.176438504 0.130360265
v 0.00219977569 -0.176453272 0.132037785
v 0.00198575073 -0.176469673 0.133900861
v 0.00242186763 -0.176485729 0.135724777
v 0.00345552356 -0.176499503 0.137289543
v 0.00496204449 -0.176509334 0.138406425
v 0.00675972206 -0.176514036 0.138940709
v 0.00863172925 -0.176513042 0.138827954
v 0.0103522751 -0.176506472 0.13808176
v 0.0117138355 -0.176495118 0.136792128
v 0.0125521869 -0.176480351 0.135114608
v 0.0127662119 -0.17646395 0.133251532
v 0.012330095 -0.176447894 0.131427616
v 0.0112964391 -0.17643412 0.12986285
v 0.00573128862 -0.176313941 0.138930785
v 0.00496204449 -0.176509334 0.138406425
f 15 1 16
f 16 1 2
f 16 2 29
f 29 2 3
f 29 3 28
f 28 3 4
f 28 4 27
f 27 4 5
f 27 5 26
f 26 5 6
f 26 6 25
f 25 6 7
f 25 7 24
f 24 7 8
f 24 8 23
f 23 8 9
f 23 9 22
f 22 9 10
f 22 10 21
f 21 10 11
f 21 11 20
f 20 11 12
f 20 12 19
f 19 12 13
f 19 13 18
f 18 13 14
f 18 14 17
f 17 14 15
f 17 15 16
f 44 30 52
f 52 30 31
f 52 31 51
f 51 31 32
f 51 32 50
f 50 32 33
f 50 33 49
f 49 33 34
f 49 34 48
f 48 34 35
f 48 35 47
f 47 35 36
f 47 36 46
f 46 36 37
f 46 37 45
f 45 37 38
f 45 38 58
f 58 38 39
f 58 39 57
f 57 39 40
f 57 40 56
f 56 40 41
f 56 41 55
f 55 41 42
f 55 42 54
f 54 42 43
f 54 43 53
f 53 43 44
f 53 44 52
f 75 59 76
f 76 59 60
f 76 60 90
f 90 60 61
f 90 61 89
f 89 61 62
f 89 62 88
f 88 62 63
f 88 63 87
f 87 63 64
f 87 64 86
f 86 64 65
f 86 65 85
f 85 65 66
f 85 66 84
f 84 66 67
f 84 67 83
f 83 67 68
f 83 68 69
f 83 69 82
f 82 69 70
f 82 70 81
f 81 70 71
f 81 71 80
f 80 71 72
f 80 72 79
f 79 72 73
f 79 73 78
f 78 73 74
f 78 74 77
f 77 74 75
f 77 75 76
f 92 126 91
f 91 126 109
f 91 109 108
f 108 109 110
f 108 110 107
f 107 110 111
f 107 111 106
f 106 111 112
f 106 112 105
f 105 112 113
f 105 113 104
f 104 113 114
f 104 114 103
f 103 114 115
f 103 115 102
f 102 115 116
f 102 116 101
f 101 116 117
f 101 117 100
f 100 117 128
f 127 118 99
f 99 118 119
f 99 119 98
f 98 119 120
f 98 120 97
f 97 120 121
f 97 121 96
f 96 121 122
f 96 122 95
f 95 122 123
f 95 123 94
f 94 123 124
f 94 124 93
f 93 124 125
f 93 125 92
f 92 125 126
f 130 156 129
f 129 156 143
f 129 143 142
f 142 143 144
f 142 144 141
f 141 144 145
f 141 145 140
f 140 145 146
f 140 146 139
f 139 146 147
f 139 147 138
f 138 147 148
f 138 148 137
f 137 148 149
f 137 149 136
f 136 149 157
f 158 150 135
f 135 150 151
f 135 151 134
f 134 151 152
f 134 152 133
f 133 152 153
f 133 153 132
f 132 153 154
f 132 154 131
f 131 154 155
f 131 155 130
f 130 155 156
f 175 159 176
f 176 159 160
f 176 160 190
f 190 160 161
f 190 161 189
f 189 161 162
f 189 162 188
f 188 162 163
f 188 163 187
f 187 163 164
f 187 164 186
f 186 164 165
f 186 165 185
f 185 165 166
f 185 166 184
f 184 166 167
f 184 167 168
f 184 168 183
f 183 168 169
f 183 169 182
f 182 169 170
f 182 170 181
f 181 170 171
f 181 171 180
f 180 171 172
f 180 172 179
f 179 172 173
f 179 173 178
f 178 173 174
f 178 174 177
f 177 174 175
f 177 175 176
f 192 216 191
f 191 216 217
f 191 217 207
f 207 217 218
f 207 218 206
f 206 218 219
f 206 219 205
f 205 219 220
f 205 220 204
f 204 220 221
f 204 221 203
f 203 221 222
f 203 222 202
f 202 222 223
f 202 223 201
f 201 223 224
f 201 224 200
f 200 224 208
f 200 208 199
f 199 208 209
f 199 209 198
f 198 209 210
f 198 210 197
f 197 210 211
f 197 211 196
f 196 211 212
f 196 212 195
f 195 212 213
f 195 213 194
f 194 213 214
f 194 214 193
f 193 214 215
f 193 215 192
f 192 215 216
f 226 242 225
f 225 242 243
f 225 243 241
f 241 243 244
f 241 244 240
f 240 244 245
f 240 245 239
f 239 245 246
f 239 246 238
f 238 246 247
f 238 247 237
f 237 247 248
f 237 248 236
f 236 248 249
f 236 249 235
f 235 249 260
f 235 260 234
f 259 250 251
f 259 251 233
f 233 251 252
f 233 252 232
f 232 252 253
f 232 253 231
f 231 253 254
f 231 254 230
f 230 254 255
f 230 255 229
f 229 255 256
f 229 256 228
f 228 256 257
f 228 257 227
f 227 257 258
f 227 258 226
f 226 258 242
f 278 261 279
f 279 261 262
f 279 262 295
f 295 262 263
f 295 263 294
f 294 263 264
f 294 264 293
f 293 264 265
f 293 265 292
f 292 265 266
f 292 266 291
f 291 266 267
f 291 267 290
f 290 267 268
f 290 268 289
f 289 268 269
f 289 269 288
f 288 269 270
f 288 270 287
f 287 270 271
f 287 271 286
f 286 271 272
f 286 272 285
f 285 272 273
f 285 273 284
f 284 273 274
f 284 274 283
f 283 274 275
f 283 275 282
f 282 275 276
f 282 276 281
f 281 276 277
f 281 277 280
f 280 277 278
f 280 278 279
f 297 331 296
f 296 331 314
f 296 314 315
f 331 297 330
f 330 297 298
f 330 298 329
f 329 298 299
f 329 299 328
f 328 299 300
f 328 300 301
f 328 301 327
f 327 301 302
f 327 302 326
f 326 302 303
f 326 303 325
f 325 303 304
f 325 304 324
f 324 304 305
f 324 305 323
f 323 305 322
f 322 305 306
f 322 306 321
f 321 306 307
f 321 307 320
f 320 307 308
f 320 308 319
f 319 308 309
f 319 309 310
f 319 310 318
f 318 310 311
f 318 311 317
f 317 311 312
f 317 312 316
f 316 312 313
f 316 313 315
f 315 313 296
f 333 347 332
f 332 347 348
f 332 348 346
f 346 348 349
f 346 349 345
f 345 349 350
f 345 350 344
f 344 350 351
f 344 351 343
f 343 351 352
f 343 352 342
f 342 352 353
f 342 353 341
f 341 353 363
f 341 363 340
f 362 354 355
f 362 355 339
f 339 355 356
f 339 356 338
f 338 356 357
f 338 357 337
f 337 357 358
f 337 358 336
f 336 358 359
f 336 359 335
f 335 359 360
f 335 360 334
f 334 360 361
f 334 361 333
f 333 361 347
f 365 381 364
f 364 381 382
f 364 382 380
f 380 382 383
f 380 383 379
f 379 383 384
f 379 384 378
f 378 384 385
f 378 385 377
f 377 385 386
f 377 386 376
f 376 386 387
f 376 387 375
f 375 387 388
f 375 388 374
f 374 388 399
f 374 399 373
f 398 389 390
f 398 390 372
f 372 390 391
f 372 391 371
f 371 391 392
f 371 392 370
f 370 392 393
f 370 393 369
f 369 393 394
f 369 394 368
f 368 394 395
f 368 395 367
f 367 395 396
f 367 396 366
f 366 396 397
f 366 397 365
f 365 397 381
f 401 415 400
f 400 415 416
f 400 416 414
f 414 416 417
f 414 417 413
f 413 417 418
f 413 418 412
f 412 418 419
f 412 419 411
f 411 419 420
f 411 420 410
f 410 420 421
f 410 421 409
f 409 421 431
f 409 431 408
f 430 422 423
f 430 423 407
f 407 423 424
f 407 424 406
f 406 424 425
f 406 425 405
f 405 425 426
f 405 426 404
f 404 426 427
f 404 427 403
f 403 427 428
f 403 428 402
f 402 428 429
f 402 429 401
f 401 429 415
f 433 451 432
f 432 451 452
f 432 452 450
f 450 452 453
f 450 453 449
f 449 453 454
f 449 454 448
f 448 454 455
f 448 455 447
f 447 455 456
f 447 456 446
f 446 456 457
f 446 457 445
f 445 457 458
f 445 458 444
f 444 458 459
f 444 459 443
f 443 459 471
f 443 471 442
f 470 460 461
f 470 461 441
f 441 461 462
f 441 462 440
f 440 462 463
f 440 463 439
f 439 463 464
f 439 464 438
f 438 464 465
f 438 465 437
f 437 465 466
f 437 466 436
f 436 466 467
f 436 467 435
f 435 467 468
f 435 468 434
f 434 468 469
f 434 469 433
f 433 469 451
f 473 506 472
f 472 506 489
f 472 489 490
f 506 473 505
f 505 473 474
f 505 474 504
f 504 474 475
f 504 475 503
f 503 475 476
f 503 476 502
f 502 476 477
f 502 477 501
f 501 477 478
f 501 478 500
f 500 478 479
f 500 479 499
f 499 479 507
f 499 507 498
f 508 480 481
f 508 481 497
f 497 481 482
f 497 482 496
f 496 482 483
f 496 483 495
f 495 483 484
f 495 484 494
f 494 484 485
f 494 485 493
f 493 485 486
f 493 486 492
f 492 486 487
f 492 487 491
f 491 487 488
f 491 488 490
f 490 488 472
f 510 545 509
f 509 545 527
f 509 527 528
f 545 510 544
f 544 510 511
f 544 511 543
f 543 511 512
f 543 512 542
f 542 512 513
f 542 513 541
f 541 513 514
f 541 514 540
f 540 514 515
f 540 515 539
f 539 515 516
f 539 516 538
f 538 516 517
f 538 517 537
f 537 517 547
f 537 547 536
f 546 518 519
f 546 519 535
f 535 519 520
f 535 520 534
f 534 520 521
f 534 521 533
f 533 521 522
f 533 522 532
f 532 522 523
f 532 523 531
f 531 523 524
f 531 524 530
f 530 524 525
f 530 525 529
f 529 525 526
f 529 526 528
f 528 526 509
f 566 548 567
f 567 548 549
f 567 549 584
f 584 549 550
f 584 550 583
f 583 550 551
f 583 551 582
f 582 551 552
f 582 552 581
f 581 552 553
f 581 553 580
f 580 553 554
f 580 554 579
f 579 554 555
f 579 555 578
f 578 555 556
f 578 556 577
f 577 556 585
f 577 585 576
f 586 557 558
f 586 558 575
f 575 558 559
f 575 559 574
f 574 559 560
f 574 560 573
f 573 560 561
f 573 561 572
f 572 561 562
f 572 562 571
f 571 562 563
f 571 563 570
f 570 563 564
f 570 564 569
f 569 564 565
f 569 565 568
f 568 565 566
f 568 566 567
v 0.00518311797 -0.176811221 0.172700022
v 0.00404496261 -0.176803237 0.171793008
v 0.00337413634 -0.176791868 0.170501498
v 0.00328663108 -0.17677908 0.169048805
v 0.00379757704 -0.176767084 0.167686114
v 0.00481862716 -0.176757954 0.166649046
v 0.00617323286 -0.176753269 0.166116921
v 0.00762717021 -0.176753839 0.166181745
v 0.00892904025 -0.176759565 0.166832313
v 0.00985373782 -0.176769457 0.167956133
v 0.0102413746 -0.176781805 0.169358889
v 0.0100249242 -0.176794474 0.170798029
v 0.00924181307 -0.176805273 0.172024714
v 0.00802744856 -0.176812335 0.172826839
v 0.00659180478 -0.176814439 0.17306571
v 0.00540663055 -0.176807284 0.172252779
v 0.00670379351 -0.176810065 0.172568882
v 0.00800965414 -0.176807617 0.172290884
v 0.00906557054 -0.176800424 0.171473847
v 0.00966240547 -0.176789911 0.170279595
v 0.00968194855 -0.176778159 0.168944664
v 0.00912032899 -0.176767497 0.167733454
v 0.00808878257 -0.176760037 0.166885859
v 0.00679161962 -0.176757255 0.166569757
v 0.00548575898 -0.176759703 0.166847754
v 0.00442984258 -0.176766896 0.167664791
v 0.00383300765 -0.176777409 0.168859043
v 0.00381346458 -0.176789161 0.170193974
v 0.00437508414 -0.176799823 0.171405185
v 0.00831229316 -0.173756216 0.166465024
v 0.00690360636 -0.173752997 0.166099336
v 0.00546796257 -0.173755101 0.166338207
v 0.00425359806 -0.173762163 0.167140332
v 0.00347048696 -0.173772962 0.168367017
v 0.00325403658 -0.173785631 0.169806158
v 0.00364167331 -0.173797979 0.171208913
v 0.00456637088 -0.173807872 0.172332734
v 0.00586824092 -0.173813598 0.172983301
v 0.00732217827 -0.173814167 0.173048126
v 0.00867678397 -0.173809482 0.172516
v 0.00969783409 -0.173800352 0.171478932
v 0.01020878 -0.173788356 0.170116241
v 0.0101212748 -0.173775568 0.168663549
v 0.00945044852 -0.173764199 0.167372038
v 0.00540662856 -0.1738074 0.172279187
v 0.00437508214 -0.173799939 0.171431593
v 0.00381346258 -0.173789277 0.170220382
v 0.00383300566 -0.173777526 0.168885451
v 0.00442984059 -0.173767012 0.167691199
v 0.00548575699 -0.173759819 0.166874162
v 0.00679161762 -0.173757371 0.166596165
v 0.00808878058 -0.173760153 0.166912267
v 0.00912032699 -0.173767613 0.167759862
v 0.00968194655 -0.173778275 0.168971072
v 0.00966240348 -0.173790027 0.170306003
v 0.00906556855 -0.17380054 0.171500255
v 0.00800965215 -0.173807733 0.172317292
v 0.00670379151 -0.173810181 0.17259529
v 0.00875931878 -0.174248322 0.165566136
v 0.00716935636 -0.174244319 0.165111297
v 0.00552244745 -0.174245642 0.165261512
v 0.00404101658 -0.174252113 0.165996491
v 0.00292513867 -0.174262858 0.167216973
v 0.00232551972 -0.174276425 0.168758124
v 0.00232314127 -0.174290983 0.170411804
v 0.00291832471 -0.174304564 0.171954674
v 0.00403068715 -0.174315335 0.173178361
v 0.00550999784 -0.174321842 0.173917598
v 0.00715646778 -0.174323205 0.174072549
v 0.00874773216 -0.17431924 0.173622285
v 0.0100688815 -0.174310483 0.172627618
v 0.0109414878 -0.174298117 0.171222883
v 0.0112477002 -0.174283811 0.169597797
v 0.0109461636 -0.174269498 0.167971838
v 0.0100776016 -0.17425711 0.166564599
v 0.00831229349 -0.174256196 0.166460623
v 0.00945044886 -0.17426418 0.167367637
v 0.0101212751 -0.174275549 0.168659147
v 0.0102087804 -0.174288337 0.17011184
v 0.00969783442 -0.174300333 0.171474531
v 0.0086767843 -0.174309463 0.172511598
v 0.0073221786 -0.174314148 0.173043724
v 0.00586824125 -0.174313578 0.1729789
v 0.00456637122 -0.174307852 0.172328332
v 0.00364167364 -0.17429796 0.171204512
v 0.00325403691 -0.174285612 0.169801756
v 0.00347048729 -0.174272943 0.168362616
v 0.00425359839 -0.174262144 0.167135931
v 0.00546796291 -0.174255082 0.166333806
v 0.00690360669 -0.174252978 0.166094935
v 0.00451257811 -0.174023141 0.1740664
v 0.00311765117 -0.174014038 0.17303225
v 0.00216056224 -0.174001285 0.171583393
v 0.0017567506 -0.173986418 0.169894582
v 0.00195492156 -0.173971232 0.168169512
v 0.00273117289 -0.173957558 0.166616252
v 0.0039918772 -0.173947046 0.165422149
v 0.00558497482 -0.173940963 0.164731228
v 0.00731831508 -0.173940042 0.164626825
v 0.00898283129 -0.173944396 0.165121533
v 0.0103777582 -0.173953499 0.166155683
v 0.0113348472 -0.173966253 0.16760454
v 0.0117386588 -0.173981119 0.169293351
v 0.0115404878 -0.173996305 0.171018421
v 0.0107642365 -0.174009979 0.172571681
v 0.00950353221 -0.174020491 0.173765785
v 0.00791043458 -0.174026575 0.174456705
v 0.00617709432 -0.174027495 0.174561108
v 0.00451257957 -0.176223056 0.174047034
v 0.00617709578 -0.17622741 0.174541742
v 0.00791043604 -0.176226489 0.174437339
v 0.00950353367 -0.176220406 0.173746419
v 0.010764238 -0.176209894 0.172552315
v 0.0115404893 -0.17619622 0.170999056
v 0.0117386603 -0.176181034 0.169273986
v 0.0113348486 -0.176166167 0.167585174
v 0.0103777597 -0.176153414 0.166136317
v 0.00898283276 -0.176144311 0.165102168
v 0.00731831655 -0.176139957 0.16460746
v 0.00558497629 -0.176140877 0.164711862
v 0.00399187866 -0.176146961 0.165402783
v 0.00273117435 -0.176157473 0.166596886
v 0.00195492302 -0.176171147 0.168150146
v 0.00175675207 -0.176186333 0.169875216
v 0.0021605637 -0.176201199 0.171564027
v 0.00311765264 -0.176213953 0.173012884
v 0.00898283129 -0.173944396 0.165121533
v 0.00898283276 -0.176144311 0.165102168
v 0.00540662856 -0.1738074 0.172279187
v 0.00670379151 -0.173810181 0.17259529
v 0.00800965215 -0.173807733 0.172317292
v 0.00906556855 -0.17380054 0.171500255
v 0.00966240348 -0.173790027 0.170306003
v 0.00968194655 -0.173778275 0.168971072
v 0.00912032699 -0.173767613 0.167759862
v 0.00808878058 -0.173760153 0.166912267
v 0.00679161762 -0.173757371 0.166596165
v 0.00548575699 -0.173759819 0.166874162
v 0.00442984059 -0.173767012 0.167691199
v 0.00383300566 -0.173777526 0.168885451
v 0.00381346258 -0.173789277 0.170220382
v 0.00437508214 -0.173799939 0.171431593
v 0.00540663055 -0.176807284 0.172252779
v 0.00437508414 -0.176799823 0.171405185
v 0.00381346458 -0.176789161 0.170193974
v 0.00383300765 -0.176777409 0.168859043
v 0.00442984258 -0.176766896 0.167664791
v 0.00548575898 -0.176759703 0.166847754
v 0.00679161962 -0.176757255 0.166569757
v 0.00808878257 -0.176760037 0.166885859
v 0.00912032899 -0.176767497 0.167733454
v 0.00968194855 -0.176778159 0.168944664
v 0.00966240547 -0.176789911 0.170279595
v 0.00906557054 -0.176800424 0.171473847
v 0.00800965414 -0.176807617 0.172290884
v 0.00670379351 -0.176810065 0.172568882
v 0.00808878257 -0.176760037 0.166885859
v 0.00808878058 -0.173760153 0.166912267
v 0.00473609235 -0.176319115 0.17359891
v 0.00341780948 -0.176310326 0.172600448
v 0.00254924751 -0.176297939 0.171193209
v 0.00224771089 -0.176283625 0.169567249
v 0.00255392335 -0.17626932 0.167942163
v 0.0034265296 -0.176256953 0.166537428
v 0.00474767898 -0.176248196 0.165542761
v 0.00633894335 -0.176244231 0.165092498
v 0.00798541329 -0.176245594 0.165247448
v 0.00946472398 -0.176252101 0.165986686
v 0.0105770864 -0.176262872 0.167210372
v 0.0111722699 -0.176276454 0.168753242
v 0.0111698914 -0.176291011 0.170406922
v 0.0105702725 -0.176304578 0.171948073
v 0.00945439455 -0.176315323 0.173168555
v 0.00797296368 -0.176321794 0.173903535
v 0.00632605477 -0.176323117 0.174053749
v 0.00518311764 -0.17631124 0.172704424
v 0.00659180444 -0.176314458 0.173070111
v 0.00802744822 -0.176312355 0.172831241
v 0.00924181274 -0.176305293 0.172029116
v 0.0100249238 -0.176294494 0.17080243
v 0.0102413742 -0.176281825 0.16936329
v 0.00985373749 -0.176269476 0.167960535
v 0.00892903991 -0.176259584 0.166836714
v 0.00762716988 -0.176253858 0.166186147
v 0.00617323253 -0.176253288 0.166121322
v 0.00481862683 -0.176257973 0.166653448
v 0.00379757671 -0.176267103 0.167690516
v 0.00328663075 -0.1762791 0.169053207
v 0.00337413601 -0.176291888 0.170505899
v 0.00404496227 -0.176303256 0.171797409
v 0.00460198309 -0.173821574 0.173889263
v 0.00629794311 -0.173825843 0.174374424
v 0.00805464574 -0.173824432 0.174214196
v 0.00963483887 -0.173817529 0.173430218
v 0.0108251083 -0.173806068 0.17212837
v 0.011464702 -0.173791597 0.170484475
v 0.011467239 -0.173776069 0.16872055
v 0.0108323766 -0.173761582 0.167074823
v 0.00964585687 -0.173750092 0.165769557
v 0.00806792537 -0.173743152 0.164981037
v 0.00631169087 -0.173741698 0.164815757
v 0.00461434231 -0.173745927 0.165296037
v 0.00320511628 -0.173755268 0.166357015
v 0.00227433639 -0.173768459 0.167855399
v 0.00194770956 -0.173783719 0.169588824
v 0.00226934864 -0.173798986 0.171323181
v 0.00319581468 -0.173812199 0.172824236
v 0.00875931845 -0.173748341 0.165570537
v 0.0100776013 -0.17375713 0.166569
v 0.0109461633 -0.173769517 0.167976239
v 0.0112476999 -0.17378383 0.169602199
v 0.0109414874 -0.173798136 0.171227285
v 0.0100688812 -0.173810503 0.17263202
v 0.00874773182 -0.17381926 0.173626686
v 0.00715646745 -0.173823224 0.17407695
v 0.00550999751 -0.173821861 0.173921999
v 0.00403068682 -0.173815355 0.173182762
v 0.00291832438 -0.173804583 0.171959075
v 0.00232314094 -0.173791002 0.170416206
v 0.00232551938 -0.173776444 0.168762526
v 0.00292513834 -0.173762877 0.167221374
v 0.00404101625 -0.173752133 0.166000892
v 0.00552244712 -0.173745662 0.165265913
v 0.00716935602 -0.173744338 0.165115699
v 0.00473609235 -0.176319115 0.17359891
v 0.00632605477 -0.176323117 0.174053749
v 0.00797296368 -0.176321794 0.173903535
v 0.00945439455 -0.176315323 0.173168555
v 0.0105702725 -0.176304578 0.171948073
v 0.0111698914 -0.176291011 0.170406922
v 0.0111722699 -0.176276454 0.168753242
v 0.0105770864 -0.176262872 0.167210372
v 0.00946472398 -0.176252101 0.165986686
v 0.00798541329 -0.176245594 0.165247448
v 0.00633894335 -0.176244231 0.165092498
v 0.00474767898 -0.176248196 0.165542761
v 0.0034265296 -0.176256953 0.166537428
v 0.00255392335 -0.17626932 0.167942163
v 0.00224771089 -0.176283625 0.169567249
v 0.00254924751 -0.176297939 0.171193209
v 0.00341780948 -0.176310326 0.172600448
v 0.00473609268 -0.176819095 0.173594509
v 0.00341780982 -0.176810307 0.172596046
v 0.00254924784 -0.176797919 0.171188807
v 0.00224771122 -0.176783606 0.169562848
v 0.00255392368 -0.1767693 0.167937762
v 0.00342652994 -0.176756934 0.166533027
v 0.00474767931 -0.176748177 0.16553836
v 0.00633894368 -0.176744212 0.165088096
v 0.00798541362 -0.176745575 0.165243047
v 0.00946472432 -0.176752082 0.165982284
v 0.0105770867 -0.176762853 0.167205971
v 0.0111722702 -0.176776434 0.168748841
v 0.0111698917 -0.176790992 0.170402521
v 0.0105702728 -0.176804559 0.171943672
v 0.00945439488 -0.176815304 0.173164154
v 0.00797296401 -0.176821775 0.173899133
v 0.00632605511 -0.176823098 0.174049348
v 0.00798541329 -0.176245594 0.165247448
v 0.00798541362 -0.176745575 0.165243047
v 0.00433376975 -0.176826182 0.174399547
v 0.00282724881 -0.176816351 0.173282666
v 0.00179359288 -0.176802577 0.1717179
v 0.00135747598 -0.176786522 0.169893984
v 0.00157150094 -0.176770121 0.168030908
v 0.00240985233 -0.176755353 0.166353388
v 0.0037714128 -0.176743999 0.165063756
v 0.00549195862 -0.17673743 0.164317561
v 0.00736396581 -0.176736436 0.164204807
v 0.00916164338 -0.176741138 0.164739091
v 0.0106681643 -0.176750969 0.165855973
v 0.0117018202 -0.176764743 0.167420738
v 0.0121379371 -0.176780798 0.169244655
v 0.0119239122 -0.176797199 0.17110773
v 0.0110855608 -0.176811967 0.172785251
v 0.00972400033 -0.176823321 0.174074883
v 0.0080034545 -0.176829891 0.174821077
v 0.00613144731 -0.176830884 0.174933832
v 0.00473609268 -0.176819095 0.173594509
v 0.00632605511 -0.176823098 0.174049348
v 0.00797296401 -0.176821775 0.173899133
v 0.00945439488 -0.176815304 0.173164154
v 0.0105702728 -0.176804559 0.171943672
v 0.0111698917 -0.176790992 0.170402521
v 0.0111722702 -0.176776434 0.168748841
v 0.0105770867 -0.176762853 0.167205971
v 0.00946472432 -0.176752082 0.165982284
v 0.00798541362 -0.176745575 0.165243047
v 0.00633894368 -0.176744212 0.165088096
v 0.00474767931 -0.176748177 0.16553836
v 0.00342652994 -0.176756934 0.166533027
v 0.00255392368 -0.1767693 0.167937762
v 0.00224771122 -0.176783606 0.169562848
v 0.00254924784 -0.176797919 0.171188807
v 0.00341780982 -0.176810307 0.172596046
v 0.00433376935 -0.176226206 0.174404829
v 0.00613144691 -0.176230908 0.174939113
v 0.0080034541 -0.176229914 0.174826359
v 0.00972399993 -0.176223344 0.174080164
v 0.0110855604 -0.17621199 0.172790532
v 0.0119239118 -0.176197223 0.171113012
v 0.0121379367 -0.176180822 0.169249936
v 0.0117018198 -0.176164766 0.16742602
v 0.0106681639 -0.176150992 0.165861254
v 0.00916164298 -0.176141161 0.164744373
v 0.00736396541 -0.176136459 0.164210088
v 0.00549195823 -0.176137453 0.164322843
v 0.0037714124 -0.176144023 0.165069037
v 0.00240985193 -0.176155376 0.166358669
v 0.00157150054 -0.176170144 0.16803619
v 0.00135747558 -0.176186545 0.169899265
v 0.00179359248 -0.176202601 0.171723182
v 0.00282724841 -0.176216375 0.173287947
v 0.00451257957 -0.176223056 0.174047034
v 0.00311765264 -0.176213953 0.173012884
v 0.0021605637 -0.176201199 0.171564027
v 0.00175675207 -0.176186333 0.169875216
v 0.00195492302 -0.176171147 0.168150146
v 0.00273117435 -0.176157473 0.166596886
v 0.00399187866 -0.176146961 0.165402783
v 0.00558497629 -0.176140877 0.164711862
v 0.00731831655 -0.176139957 0.16460746
v 0.00898283276 -0.176144311 0.165102168
v 0.0103777597 -0.176153414 0.166136317
v 0.0113348486 -0.176166167 0.167585174
v 0.0117386603 -0.176181034 0.169273986
v 0.0115404893 -0.17619622 0.170999056
v 0.010764238 -0.176209894 0.172552315
v 0.00950353367 -0.176220406 0.173746419
v 0.00791043604 -0.176226489 0.174437339
v 0.00617709578 -0.17622741 0.174541742
v 0.00518311764 -0.17631124 0.172704424
v 0.00404496227 -0.176303256 0.171797409
v 0.00337413601 -0.176291888 0.170505899
v 0.00328663075 -0.1762791 0.169053207
v 0.00379757671 -0.176267103 0.167690516
v 0.00481862683 -0.176257973 0.166653448
v 0.00617323253 -0.176253288 0.166121322
v 0.00762716988 -0.176253858 0.166186147
v 0.00892903991 -0.176259584 0.166836714
v 0.00985373749 -0.176269476 0.167960535
v 0.0102413742 -0.176281825 0.16936329
v 0.0100249238 -0.176294494 0.17080243
v 0.00924181274 -0.176305293 0.172029116
v 0.00802744822 -0.176312355 0.172831241
v 0.00659180444 -0.176314458 0.173070111
v 0.00518311797 -0.176811221 0.172700022
v 0.00659180478 -0.176814439 0.17306571
v 0.00802744856 -0.176812335 0.172826839
v 0.00924181307 -0.176805273 0.172024714
v 0.0100249242 -0.176794474 0.170798029
v 0.0102413746 -0.176781805 0.169358889
v 0.00985373782 -0.176769457 0.167956133
v 0.00892904025 -0.176759565 0.166832313
v 0.00762717021 -0.176753839 0.166181745
v 0.00617323286 -0.176753269 0.166116921
v 0.00481862716 -0.176757954 0.166649046
v 0.00379757704 -0.176767084 0.167686114
v 0.00328663108 -0.17677908 0.169048805
v 0.00337413634 -0.176791868 0.170501498
v 0.00404496261 -0.176803237 0.171793008
v 0.00892903991 -0.176259584 0.166836714
v 0.00892904025 -0.176759565 0.166832313
v 0.00875931878 -0.174248322 0.165566136
v 0.0100776016 -0.17425711 0.166564599
v 0.0109461636 -0.174269498 0.167971838
v 0.0112477002 -0.174283811 0.169597797
v 0.0109414878 -0.174298117 0.171222883
v 0.0100688815 -0.174310483 0.172627618
v 0.00874773216 -0.17431924 0.173622285
v 0.00715646778 -0.174323205 0.174072549
v 0.00550999784 -0.174321842 0.173917598
v 0.00403068715 -0.174315335 0.173178361
v 0.00291832471 -0.174304564 0.171954674
v 0.00232314127 -0.174290983 0.170411804
v 0.00232551972 -0.174276425 0.168758124
v 0.00292513867 -0.174262858 0.167216973
v 0.00404101658 -0.174252113 0.165996491
v 0.00552244745 -0.174245642 0.165261512
v 0.00716935636 -0.174244319 0.165111297
v 0.00875931845 -0.173748341 0.165570537
v 0.00716935602 -0.173744338 0.165115699
v 0.00552244712 -0.173745662 0.165265913
v 0.00404101625 -0.173752133 0.166000892
v 0.00292513834 -0.173762877 0.167221374
v 0.00232551938 -0.173776444 0.168762526
v 0.00232314094 -0.173791002 0.170416206
v 0.00291832438 -0.173804583 0.171959075
v 0.00403068682 -0.173815355 0.173182762
v 0.00550999751 -0.173821861 0.173921999
v 0.00715646745 -0.173823224 0.17407695
v 0.00874773182 -0.17381926 0.173626686
v 0.0100688812 -0.173810503 0.17263202
v 0.0109414874 -0.173798136 0.171227285
v 0.0112476999 -0.17378383 0.169602199
v 0.0109461633 -0.173769517 0.167976239
v 0.0100776013 -0.17375713 0.166569
v 0.00403068715 -0.174315335 0.173178361
v 0.00403068682 -0.173815355 0.173182762
v 0.00831229349 -0.174256196 0.166460623
v 0.00690360669 -0.174252978 0.166094935
v 0.00546796291 -0.174255082 0.166333806
v 0.00425359839 -0.174262144 0.167135931
v 0.00347048729 -0.174272943 0.168362616
v 0.00325403691 -0.174285612 0.169801756
v 0.00364167364 -0.17429796 0.171204512
v 0.00456637122 -0.174307852 0.172328332
v 0.00586824125 -0.174313578 0.1729789
v 0.0073221786 -0.174314148 0.173043724
v 0.0086767843 -0.174309463 0.172511598
v 0.00969783442 -0.174300333 0.171474531
v 0.0102087804 -0.174288337 0.17011184
v 0.0101212751 -0.174275549 0.168659147
v 0.00945044886 -0.17426418 0.167367637
v 0.00831229316 -0.173756216 0.166465024
v 0.00945044852 -0.173764199 0.167372038
v 0.0101212748 -0.173775568 0.168663549
v 0.01020878 -0.173788356 0.170116241
v 0.00969783409 -0.173800352 0.171478932
v 0.00867678397 -0.173809482 0.172516
v 0.00732217827 -0.173814167 0.173048126
v 0.00586824092 -0.173813598 0.172983301
v 0.00456637088 -0.173807872 0.172332734
v 0.00364167331 -0.173797979 0.171208913
v 0.00325403658 -0.173785631 0.169806158
v 0.00347048696 -0.173772962 0.168367017
v 0.00425359806 -0.173762163 0.167140332
v 0.00546796257 -0.173755101 0.166338207
v 0.00690360636 -0.173752997 0.166099336
v 0.00586824125 -0.174313578 0.1729789
v 0.00586824092 -0.173813598 0.172983301
v 0.0042443645 -0.176427773 0.174581965
v 0.00275347913 -0.176418229 0.173497755
v 0.00169543032 -0.176404942 0.171988219
v 0.00118487387 -0.176389349 0.170216939
v 0.00127713681 -0.176373142 0.168375862
v 0.00196222093 -0.176358076 0.166664495
v 0.00316588625 -0.176345785 0.165268293
v 0.0047576975 -0.176337599 0.164338555
v 0.00656515724 -0.176334407 0.163976033
v 0.00839239885 -0.176336553 0.164220012
v 0.0100414126 -0.176343806 0.165044054
v 0.0113335022 -0.17635538 0.166358859
v 0.0121286496 -0.176370019 0.168021949
v 0.0123406882 -0.176386139 0.169853102
v 0.0119466403 -0.176401992 0.171653885
v 0.0109892077 -0.176415859 0.173229154
v 0.0095721425 -0.176426239 0.174408205
v 0.00784900558 -0.176432007 0.175063269
v 0.00600652577 -0.176432537 0.17512336
v 0.00424436464 -0.176627765 0.174580205
v 0.0060065259 -0.17663253 0.175121599
v 0.00784900572 -0.176631999 0.175061508
v 0.00957214263 -0.176626232 0.174406444
v 0.0109892078 -0.176615852 0.173227393
v 0.0119466405 -0.176601984 0.171652124
v 0.0123406883 -0.176586131 0.169851342
v 0.0121286497 -0.176570012 0.168020189
v 0.0113335024 -0.176555372 0.166357098
v 0.0100414127 -0.176543799 0.165042293
v 0.00839239898 -0.176536546 0.164218252
v 0.00656515737 -0.176534399 0.163974273
v 0.00475769764 -0.176537592 0.164336794
v 0.00316588639 -0.176545777 0.165266532
v 0.00196222106 -0.176558069 0.166662735
v 0.00127713694 -0.176573134 0.168374101
v 0.001184874 -0.176589341 0.170215179
v 0.00169543045 -0.176604934 0.171986458
v 0.00275347926 -0.176618222 0.173495994
v 0.0100414126 -0.176343806 0.165044054
v 0.0100414127 -0.176543799 0.165042293
v 0.00460198309 -0.173821574 0.173889263
v 0.00319581468 -0.173812199 0.172824236
v 0.00226934864 -0.173798986 0.171323181
v 0.00194770956 -0.173783719 0.169588824
v 0.00227433639 -0.173768459 0.167855399
v 0.00320511628 -0.173755268 0.166357015
v 0.00461434231 -0.173745927 0.165296037
v 0.00631169087 -0.173741698 0.164815757
v 0.00806792537 -0.173743152 0.164981037
v 0.00964585687 -0.173750092 0.165769557
v 0.0108323766 -0.173761582 0.167074823
v 0.011467239 -0.173776069 0.16872055
v 0.011464702 -0.173791597 0.170484475
v 0.0108251083 -0.173806068 0.17212837
v 0.00963483887 -0.173817529 0.173430218
v 0.00805464574 -0.173824432 0.174214196
v 0.00629794311 -0.173825843 0.174374424
v 0.00451257811 -0.174023141 0.1740664
v 0.00617709432 -0.174027495 0.174561108
v 0.00791043458 -0.174026575 0.174456705
v 0.00950353221 -0.174020491 0.173765785
v 0.0107642365 -0.174009979 0.172571681
v 0.0115404878 -0.173996305 0.171018421
v 0.0117386588 -0.173981119 0.169293351
v 0.0113348472 -0.173966253 0.16760454
v 0.0103777582 -0.173953499 0.166155683
v 0.00898283129 -0.173944396 0.165121533
v 0.00731831508 -0.173940042 0.164626825
v 0.00558497482 -0.173940963 0.164731228
v 0.0039918772 -0.173947046 0.165422149
v 0.00273117289 -0.173957558 0.166616252
v 0.00195492156 -0.173971232 0.168169512
v 0.0017567506 -0.173986418 0.169894582
v 0.00216056224 -0.174001285 0.171583393
v 0.00311765117 -0.174014038 0.17303225
v 0.00806792537 -0.173743152 0.164981037
v 0.00898283129 -0.173944396 0.165121533
v 0.00433376935 -0.176226206 0.174404829
v 0.00282724841 -0.176216375 0.173287947
v 0.00179359248 -0.176202601 0.171723182
v 0.00135747558 -0.176186545 0.169899265
v 0.00157150054 -0.176170144 0.16803619
v 0.00240985193 -0.176155376 0.166358669
v 0.0037714124 -0.176144023 0.165069037
v 0.00549195823 -0.176137453 0.164322843
v 0.00736396541 -0.176136459 0.164210088
v 0.00916164298 -0.176141161 0.164744373
v 0.0106681639 -0.176150992 0.165861254
v 0.0117018198 -0.176164766 0.16742602
v 0.0121379367 -0.176180822 0.169249936
v 0.0119239118 -0.176197223 0.171113012
v 0.0110855604 -0.17621199 0.172790532
v 0.00972399993 -0.176223344 0.174080164
v 0.0080034541 -0.176229914 0.174826359
v 0.00613144691 -0.176230908 0.174939113
v 0.0042443645 -0.176427773 0.174581965
v 0.00600652577 -0.176432537 0.17512336
v 0.00784900558 -0.176432007 0.175063269
v 0.0095721425 -0.176426239 0.174408205
v 0.0109892077 -0.176415859 0.173229154
v 0.0119466403 -0.176401992 0.171653885
v 0.0123406882 -0.176386139 0.169853102
v 0.0121286496 -0.176370019 0.168021949
v 0.0113335022 -0.17635538 0.166358859
v 0.0100414126 -0.176343806 0.165044054
v 0.00839239885 -0.176336553 0.164220012
v 0.00656515724 -0.176334407 0.163976033
v 0.0047576975 -0.176337599 0.164338555
v 0.00316588625 -0.176345785 0.165268293
v 0.00196222093 -0.176358076 0.166664495
v 0.00127713681 -0.176373142 0.168375862
v 0.00118487387 -0.176389349 0.170216939
v 0.00169543032 -0.176404942 0.171988219
v 0.00275347913 -0.176418229 0.173497755
v 0.0100414126 -0.176343806 0.165044054
v 0.00916164298 -0.176141161 0.164744373
v 0.00424436464 -0.176627765 0.174580205
v 0.00275347926 -0.176618222 0.173495994
v 0.00169543045 -0.176604934 0.171986458
v 0.001184874 -0.176589341 0.170215179
v 0.00127713694 -0.176573134 0.168374101
v 0.00196222106 -0.176558069 0.166662735
v 0.00316588639 -0.176545777 0.165266532
v 0.00475769764 -0.176537592 0.164336794
v 0.00656515737 -0.176534399 0.163974273
v 0.00839239898 -0.176536546 0.164218252
v 0.0100414127 -0.176543799 0.165042293
v 0.0113335024 -0.176555372 0.166357098
v 0.0121286497 -0.176570012 0.168020189
v 0.0123406883 -0.176586131 0.169851342
v 0.0119466405 -0.176601984 0.171652124
v 0.0109892078 -0.176615852 0.173227393
v 0.00957214263 -0.176626232 0.174406444
v 0.00784900572 -0.176631999 0.175061508
v 0.0060065259 -0.17663253 0.175121599
v 0.00433376975 -0.176826182 0.174399547
v 0.00613144731 -0.176830884 0.174933832
v 0.0080034545 -0.176829891 0.174821077
v 0.00972400033 -0.176823321 0.174074883
v 0.0110855608 -0.176811967 0.172785251
v 0.0119239122 -0.176797199 0.17110773
v 0.0121379371 -0.176780798 0.169244655
v 0.0117018202 -0.176764743 0.167420738
v 0.0106681643 -0.176750969 0.165855973
v 0.00916164338 -0.176741138 0.164739091
v 0.00736396581 -0.176736436 0.164204807
v 0.00549195862 -0.17673743 0.164317561
v 0.0037714128 -0.176743999 0.165063756
v 0.00240985233 -0.176755353 0.166353388
v 0.00157150094 -0.176770121 0.168030908
v 0.00135747598 -0.176786522 0.169893984
v 0.00179359288 -0.176802577 0.1717179
v 0.00282724881 -0.176816351 0.173282666
v 0.00839239898 -0.176536546 0.164218252
v 0.00916164338 -0.176741138 0.164739091
f 601 587 602
f 602 587 588
f 602 588 615
f 615 588 589
f 615 589 614
f 614 589 590
f 614 590 613
f 613 590 591
f 613 591 612
f 612 591 592
f 612 592 611
f 611 592 593
f 611 593 610
f 610 593 594
f 610 594 609
f 609 594 595
f 609 595 608
f 608 595 596
f 608 596 607
f 607 596 597
f 607 597 606
f 606 597 598
f 606 598 605
f 605 598 599
f 605 599 604
f 604 599 600
f 604 600 603
f 603 600 601
f 603 601 602
f 630 616 638
f 638 616 617
f 638 617 637
f 637 617 618
f 637 618 636
f 636 618 619
f 636 619 635
f 635 619 620
f 635 620 634
f 634 620 621
f 634 621 633
f 633 621 622
f 633 622 632
f 632 622 623
f 632 623 631
f 631 623 624
f 631 624 644
f 644 624 625
f 644 625 643
f 643 625 626
f 643 626 642
f 642 626 627
f 642 627 641
f 641 627 628
f 641 628 640
f 640 628 629
f 640 629 639
f 639 629 630
f 639 630 638
f 661 645 662
f 662 645 646
f 662 646 676
f 676 646 647
f 676 647 675
f 675 647 648
f 675 648 674
f 674 648 649
f 674 649 673
f 673 649 650
f 673 650 672
f 672 650 651
f 672 651 671
f 671 651 652
f 671 652 670
f 670 652 653
f 670 653 669
f 669 653 654
f 669 654 655
f 669 655 668
f 668 655 656
f 668 656 667
f 667 656 657
f 667 657 666
f 666 657 658
f 666 658 665
f 665 658 659
f 665 659 664
f 664 659 660
f 664 660 663
f 663 660 661
f 663 661 662
f 678 712 677
f 677 712 695
f 677 695 694
f 694 695 696
f 694 696 693
f 693 696 697
f 693 697 692
f 692 697 698
f 692 698 691
f 691 698 699
f 691 699 690
f 690 699 700
f 690 700 689
f 689 700 701
f 689 701 688
f 688 701 702
f 688 702 687
f 687 702 703
f 687 703 686
f 686 703 714
f 713 704 685
f 685 704 705
f 685 705 684
f 684 705 706
f 684 706 683
f 683 706 707
f 683 707 682
f 682 707 708
f 682 708 681
f 681 708 709
f 681 709 680
f 680 709 710
f 680 710 679
f 679 710 711
f 679 711 678
f 678 711 712
f 716 742 715
f 715 742 729
f 715 729 728
f 728 729 730
f 728 730 727
f 727 730 731
f 727 731 726
f 726 731 732
f 726 732 725
f 725 732 733
f 725 733 724
f 724 733 734
f 724 734 723
f 723 734 735
f 723 735 722
f 722 735 743
f 744 736 721
f 721 736 737
f 721 737 720
f 720 737 738
f 720 738 719
f 719 738 739
f 719 739 718
f 718 739 740
f 718 740 717
f 717 740 741
f 717 741 716
f 716 741 742
f 761 745 762
f 762 745 746
f 762 746 776
f 776 746 747
f 776 747 775
f 775 747 748
f 775 748 774
f 774 748 749
f 774 749 773
f 773 749 750
f 773 750 772
f 772 750 751
f 772 751 771
f 771 751 752
f 771 752 770
f 770 752 753
f 770 753 754
f 770 754 769
f 769 754 755
f 769 755 768
f 768 755 756
f 768 756 767
f 767 756 757
f 767 757 766
f 766 757 758
f 766 758 765
f 765 758 759
f 765 759 764
f 764 759 760
f 764 760 763
f 763 760 761
f 763 761 762
f 778 802 777
f 777 802 803
f 777 803 793
f 793 803 804
f 793 804 792
f 792 804 805
f 792 805 791
f 791 805 806
f 791 806 790
f 790 806 807
f 790 807 789
f 789 807 808
f 789 808 788
f 788 808 809
f 788 809 787
f 787 809 810
f 787 810 786
f 786 810 794
f 786 794 785
f 785 794 795
f 785 795 784
f 784 795 796
f 784 796 783
f 783 796 797
f 783 797 782
f 782 797 798
f 782 798 781
f 781 798 799
f 781 799 780
f 780 799 800
f 780 800 779
f 779 800 801
f 779 801 778
f 778 801 802
f 812 828 811
f 811 828 829
f 811 829 827
f 827 829 830
f 827 830 826
f 826 830 831
f 826 831 825
f 825 831 832
f 825 832 824
f 824 832 833
f 824 833 823
f 823 833 834
f 823 834 822
f 822 834 835
f 822 835 821
f 821 835 846
f 821 846 820
f 845 836 837
f 845 837 819
f 819 837 838
f 819 838 818
f 818 838 839
f 818 839 817
f 817 839 840
f 817 840 816
f 816 840 841
f 816 841 815
f 815 841 842
f 815 842 814
f 814 842 843
f 814 843 813
f 813 843 844
f 813 844 812
f 812 844 828
f 864 847 865
f 865 847 848
f 865 848 881
f 881 848 849
f 881 849 880
f 880 849 850
f 880 850 879
f 879 850 851
f 879 851 878
f 878 851 852
f 878 852 877
f 877 852 853
f 877 853 876
f 876 853 854
f 876 854 875
f 875 854 855
f 875 855 874
f 874 855 856
f 874 856 873
f 873 856 857
f 873 857 872
f 872 857 858
f 872 858 871
f 871 858 859
f 871 859 870
f 870 859 860
f 870 860 869
f 869 860 861
f 869 861 868
f 868 861 862
f 868 862 867
f 867 862 863
f 867 863 866
f 866 863 864
f 866 864 865
f 883 917 882
f 882 917 900
f 882 900 901
f 917 883 916
f 916 883 884
f 916 884 915
f 915 884 885
f 915 885 914
f 914 885 886
f 914 886 887
f 914 887 913
f 913 887 888
f 913 888 912
f 912 888 889
f 912 889 911
f 911 889 890
f 911 890 910
f 910 890 891
f 910 891 909
f 909 891 908
f 908 891 892
f 908 892 907
f 907 892 893
f 907 893 906
f 906 893 894
f 906 894 905
f 905 894 895
f 905 895 896
f 905 896 904
f 904 896 897
f 904 897 903
f 903 897 898
f 903 898 902
f 902 898 899
f 902 899 901
f 901 899 882
f 919 933 918
f 918 933 934
f 918 934 932
f 932 934 935
f 932 935 931
f 931 935 936
f 931 936 930
f 930 936 937
f 930 937 929
f 929 937 938
f 929 938 928
f 928 938 939
f 928 939 927
f 927 939 949
f 927 949 926
f 948 940 941
f 948 941 925
f 925 941 942
f 925 942 924
f 924 942 943
f 924 943 923
f 923 943 944
f 923 944 922
f 922 944 945
f 922 945 921
f 921 945 946
f 921 946 920
f 920 946 947
f 920 947 919
f 919 947 933
f 951 967 950
f 950 967 968
f 950 968 966
f 966 968 969
f 966 969 965
f 965 969 970
f 965 970 964
f 964 970 971
f 964 971 963
f 963 971 972
f 963 972 962
f 962 972 973
f 962 973 961
f 961 973 974
f 961 974 960
f 960 974 985
f 960 985 959
f 984 975 976
f 984 976 958
f 958 976 977
f 958 977 957
f 957 977 978
f 957 978 956
f 956 978 979
f 956 979 955
f 955 979 980
f 955 980 954
f 954 980 981
f 954 981 953
f 953 981 982
f 953 982 952
f 952 982 983
f 952 983 951
f 951 983 967
f 987 1001 986
f 986 1001 1002
f 986 1002 1000
f 1000 1002 1003
f 1000 1003 999
f 999 1003 1004
f 999 1004 998
f 998 1004 1005
f 998 1005 997
f 997 1005 1006
f 997 1006 996
f 996 1006 1007
f 996 1007 995
f 995 1007 1017
f 995 1017 994
f 1016 1008 1009
f 1016 1009 993
f 993 1009 1010
f 993 1010 992
f 992 1010 1011
f 992 1011 991
f 991 1011 1012
f 991 1012 990
f 990 1012 1013
f 990 1013 989
f 989 1013 1014
f 989 1014 988
f 988 1014 1015
f 988 1015 987
f 987 1015 1001
f 1019 1037 1018
f 1018 1037 1038
f 1018 1038 1036
f 1036 1038 1039
f 1036 1039 1035
f 1035 1039 1040
f 1035 1040 1034
f 1034 1040 1041
f 1034 1041 1033
f 1033 1041 1042
f 1033 1042 1032
f 1032 1042 1043
f 1032 1043 1031
f 1031 1043 1044
f 1031 1044 1030
f 1030 1044 1045
f 1030 1045 1029
f 1029 1045 1057
f 1029 1057 1028
f 1056 1046 1047
f 1056 1047 1027
f 1027 1047 1048
f 1027 1048 1026
f 1026 1048 1049
f 1026 1049 1025
f 1025 1049 1050
f 1025 1050 1024
f 1024 1050 1051
f 1024 1051 1023
f 1023 1051 1052
f 1023 1052 1022
f 1022 1052 1053
f 1022 1053 1021
f 1021 1053 1054
f 1021 1054 1020
f 1020 1054 1055
f 1020 1055 1019
f 1019 1055 1037
f 1059 1092 1058
f 1058 1092 1075
f 1058 1075 1076
f 1092 1059 1091
f 1091 1059 1060
f 1091 1060 1090
f 1090 1060 1061
f 1090 1061 1089
f 1089 1061 1062
f 1089 1062 1088
f 1088 1062 1063
f 1088 1063 1087
f 1087 1063 1064
f 1087 1064 1086
f 1086 1064 1065
f 1086 1065 1085
f 1085 1065 1093
f 1085 1093 1084
f 1094 1066 1067
f 1094 1067 1083
f 1083 1067 1068
f 1083 1068 1082
f 1082 1068 1069
f 1082 1069 1081
f 1081 1069 1070
f 1081 1070 1080
f 1080 1070 1071
f 1080 1071 1079
f 1079 1071 1072
f 1079 1072 1078
f 1078 1072 1073
f 1078 1073 1077
f 1077 1073 1074
f 1077 1074 1076
f 1076 1074 1058
f 1096 1131 1095
f 1095 1131 1113
f 1095 1113 1114
f 1131 1096 1130
f 1130 1096 1097
f 1130 1097 1129
f 1129 1097 1098
f 1129 1098 1128
f 1128 1098 1099
f 1128 1099 1127
f 1127 1099 1100
f 1127 1100 1126
f 1126 1100 1101
f 1126 1101 1125
f 1125 1101 1102
f 1125 1102 1124
f 1124 1102 1103
f 1124 1103 1123
f 1123 1103 1133
f 1123 1133 1122
f 1132 1104 1105
f 1132 1105 1121
f 1121 1105 1106
f 1121 1106 1120
f 1120 1106 1107
f 1120 1107 1119
f 1119 1107 1108
f 1119 1108 1118
f 1118 1108 1109
f 1118 1109 1117
f 1117 1109 1110
f 1117 1110 1116
f 1116 1110 1111
f 1116 1111 1115
f 1115 1111 1112
f 1115 1112 1114
f 1114 1112 1095
f 1152 1134 1153
f 1153 1134 1135
f 1153 1135 1170
f 1170 1135 1136
f 1170 1136 1169
f 1169 1136 1137
f 1169 1137 1168
f 1168 1137 1138
f 1168 1138 1167
f 1167 1138 1139
f 1167 1139 1166
f 1166 1139 1140
f 1166 1140 1165
f 1165 1140 1141
f 1165 1141 1164
f 1164 1141 1142
f 1164 1142 1163
f 1163 1142 1171
f 1163 1171 1162
f 1172 1143 1144
f 1172 1144 1161
f 1161 1144 1145
f 1161 1145 1160
f 1160 1145 1146
f 1160 1146 1159
f 1159 1146 1147
f 1159 1147 1158
f 1158 1147 1148
f 1158 1148 1157
f 1157 1148 1149
f 1157 1149 1156
f 1156 1149 1150
f 1156 1150 1155
f 1155 1150 1151
f 1155 1151 1154
f 1154 1151 1152
f 1154 1152 1153
