v 0.00372888519 0.0702401527 0.0341429859
v 0.00373247369 0.0702750965 0.03414929
v 0.00373606219 0.0703056409 0.0341674127
v 0.00374036863 0.0703311148 0.0342014418
v 0.00374467478 0.0703401526 0.0342429858
v 0.00164467477 0.0703401526 0.0342429862
v 0.00164826326 0.0703338488 0.0342080424
v 0.00165185175 0.0703157261 0.0341774981
v 0.00165615803 0.0702816969 0.0341520241
v 0.00166046425 0.0702401527 0.0341429863
v 0.00164467477 0.0705401527 0.0342429862
v 0.00374467478 0.0705401527 0.0342429858
v 0.00374072744 0.0705173167 0.0341281809
v 0.00373678011 0.0704522845 0.0340308542
v 0.00373283248 0.0703549578 0.033965822
v 0.00372888516 0.0702401527 0.033942986
v 0.00166046421 0.0702401527 0.0339429863
v 0.00165651682 0.0703549578 0.0339658224
v 0.00165256944 0.0704522845 0.0340308546
v 0.00164862214 0.0705173167 0.0341281812
v 0.00164467477 0.0705401527 0.0342429862
v 0.00164862214 0.0705173167 0.0341281812
v 0.00165256944 0.0704522845 0.0340308546
v 0.00165651682 0.0703549578 0.0339658224
v 0.00166046421 0.0702401527 0.0339429863
v 0.00166046425 0.0702401527 0.0341429863
v 0.00165615803 0.0702816969 0.0341520241
v 0.00165185175 0.0703157261 0.0341774981
v 0.00164826326 0.0703338488 0.0342080424
v 0.00164467477 0.0703401526 0.0342429862
v 0.00165651535 0.070316644 0.0340583864
v 0.00165256945 0.0703815707 0.0341015684
v 0.00165168731 0.0703933966 0.03411452
v 0.00344467529 0.0677561125 0.0372223711
v 0.0019446753 0.0677561125 0.0372223714
v 0.0019446753 0.0675561125 0.0372223714
v 0.00344467529 0.0675561125 0.0372223711
v 0.00374467478 0.0705401527 0.0342429858
v 0.00374467478 0.0703401526 0.0342429858
v 0.00374036863 0.0703311148 0.0342014418
v 0.00373606219 0.0703056409 0.0341674127
v 0.00373247369 0.0702750965 0.03414929
v 0.00372888519 0.0702401527 0.0341429859
v 0.00372888516 0.0702401527 0.033942986
v 0.00373283248 0.0703549578 0.033965822
v 0.00373678011 0.0704522845 0.0340308542
v 0.00374072744 0.0705173167 0.0341281809
v 0.00374072596 0.0704247525 0.0341664946
v 0.00373678012 0.0703815707 0.034101568
v 0.00373589797 0.0703686189 0.034089742
v 0.00164467531 0.0703401526 0.0373429862
v 0.00374467532 0.0703401526 0.0373429859
v 0.00374467532 0.0705401527 0.0373429859
v 0.00164467531 0.0705401527 0.0373429862
v 0.0019446751 0.0675561125 0.0360400041
v 0.00344467508 0.0675561125 0.0360400039
v 0.00344467529 0.0675561125 0.0372223711
v 0.0019446753 0.0675561125 0.0372223714
v 0.00344467529 0.0677561125 0.0372223711
v 0.00344467508 0.0677561125 0.0360400039
v 0.0019446751 0.0677561125 0.0360400041
v 0.0019446753 0.0677561125 0.0372223714
v 0.00164467531 0.0703401526 0.0373429862
v 0.00164467477 0.0703401526 0.0342429862
v 0.00374467478 0.0703401526 0.0342429858
v 0.00374467532 0.0703401526 0.0373429859
v 0.00194467476 0.0684401528 0.0341429862
v 0.00194467473 0.0684401528 0.0339512722
v 0.00194467474 0.0683497278 0.0339894961
v 0.00194467475 0.0682764843 0.0340548657
v 0.00194467476 0.0682282657 0.0341403802
v 0.00194467477 0.0684162043 0.0342087841
v 0.00194467477 0.0684374362 0.034174362
v 0.00194467476 0.0684705655 0.0341511646
v 0.00194467476 0.0685101735 0.0341429862
v 0.0019446751 0.0677561125 0.0360400041
v 0.0019446751 0.0675561125 0.0360400041
v 0.0019446753 0.0675561125 0.0372223714
v 0.0019446753 0.0677561125 0.0372223714
v 0.0019446751 0.0675561125 0.0360400041
v 0.0019446751 0.0677561125 0.0360400041
v 0.00194467509 0.0677567887 0.0360283949
v 0.00194467509 0.0677588079 0.0360169425
v 0.00194467509 0.0677621433 0.0360058021
v 0.00194467508 0.0675742048 0.0359373981
v 0.00194467508 0.0675641991 0.0359708194
v 0.00194467509 0.067558141 0.0360051762
v 0.00166046425 0.0702401527 0.0341429863
v 0.00166046421 0.0702401527 0.0339429863
v 0.00194467473 0.0684401528 0.0339429863
v 0.00194467473 0.0684401528 0.0339512722
v 0.00194467476 0.0684401528 0.0341429862
v 0.00374467478 0.0705401527 0.0342429858
v 0.00164467477 0.0705401527 0.0342429862
v 0.00164467531 0.0705401527 0.0373429862
v 0.00374467532 0.0705401527 0.0373429859
v 0.00344467508 0.0675561125 0.0360400039
v 0.00344467508 0.0677561125 0.0360400039
v 0.00344467529 0.0677561125 0.0372223711
v 0.00344467529 0.0675561125 0.0372223711
v 0.00194467508 0.0675742048 0.0359373981
v 0.00194467509 0.0677621433 0.0360058021
v 0.00194467477 0.0684162043 0.0342087841
v 0.00194467476 0.0682282657 0.0341403802
v 0.00372888516 0.0702401527 0.033942986
v 0.00372888519 0.0702401527 0.0341429859
v 0.00344467475 0.0684401528 0.034142986
v 0.00344467471 0.0684401528 0.033951272
v 0.00344467471 0.0684401528 0.033942986
v 0.00164467477 0.0705401527 0.0342429862
v 0.00164467477 0.0703401526 0.0342429862
v 0.00164467531 0.0703401526 0.0373429862
v 0.00164467531 0.0705401527 0.0373429862
v 0.00344467476 0.0684162043 0.0342087838
v 0.00344467475 0.0684374362 0.0341743617
v 0.00344467475 0.0684705655 0.0341511643
v 0.00344467475 0.0685101735 0.034142986
v 0.00194467476 0.0685101735 0.0341429862
v 0.00194467476 0.0684705655 0.0341511646
v 0.00194467477 0.0684374362 0.034174362
v 0.00194467477 0.0684162043 0.0342087841
v 0.00194467473 0.0685101735 0.0339429863
v 0.00344467471 0.0685101735 0.033942986
v 0.00344467471 0.0684866403 0.0339439105
v 0.00344467471 0.0684632518 0.0339466779
v 0.00344467471 0.0684401528 0.033951272
v 0.00344467472 0.0683497278 0.0339894958
v 0.00344467473 0.0682764843 0.0340548654
v 0.00344467475 0.0682282657 0.0341403799
v 0.00194467476 0.0682282657 0.0341403802
v 0.00194467475 0.0682764843 0.0340548657
v 0.00194467474 0.0683497278 0.0339894961
v 0.00194467473 0.0684401528 0.0339512722
v 0.00194467473 0.0684632518 0.0339466782
v 0.00194467473 0.0684866403 0.0339439108
v 0.00194467508 0.0675742048 0.0359373981
v 0.00344467506 0.0675742048 0.0359373978
v 0.00344467507 0.0675641991 0.0359708191
v 0.00344467507 0.067558141 0.036005176
v 0.00344467508 0.0675561125 0.0360400039
v 0.0019446751 0.0675561125 0.0360400041
v 0.00194467509 0.067558141 0.0360051762
v 0.00194467508 0.0675641991 0.0359708194
v 0.00344467508 0.0677561125 0.0360400039
v 0.00344467508 0.0677567887 0.0360283946
v 0.00344467508 0.0677588079 0.0360169423
v 0.00344467507 0.0677621433 0.0360058019
v 0.00194467509 0.0677621433 0.0360058021
v 0.00194467509 0.0677588079 0.0360169425
v 0.00194467509 0.0677567887 0.0360283949
v 0.0019446751 0.0677561125 0.0360400041
v 0.00374467478 0.0703401526 0.0342429858
v 0.00374467478 0.0705401527 0.0342429858
v 0.00374467532 0.0705401527 0.0373429859
v 0.00374467532 0.0703401526 0.0373429859
v 0.00344467475 0.0682282657 0.0341403799
v 0.00344467473 0.0682764843 0.0340548654
v 0.00344467472 0.0683497278 0.0339894958
v 0.00344467471 0.0684401528 0.033951272
v 0.00344467475 0.0684401528 0.034142986
v 0.00344467475 0.0685101735 0.034142986
v 0.00344467475 0.0684705655 0.0341511643
v 0.00344467475 0.0684374362 0.0341743617
v 0.00344467476 0.0684162043 0.0342087838
v 0.00344467507 0.0677621433 0.0360058019
v 0.00344467508 0.0677588079 0.0360169423
v 0.00344467508 0.0677567887 0.0360283946
v 0.00344467508 0.0677561125 0.0360400039
v 0.00344467508 0.0675561125 0.0360400039
v 0.00344467507 0.067558141 0.036005176
v 0.00344467507 0.0675641991 0.0359708191
v 0.00344467506 0.0675742048 0.0359373978
v 0.00194467476 0.0685101735 0.0341429862
v 0.00344467475 0.0685101735 0.034142986
v 0.00344467475 0.0684401528 0.034142986
v 0.00372888519 0.0702401527 0.0341429859
v 0.00166046425 0.0702401527 0.0341429863
v 0.00194467476 0.0684401528 0.0341429862
v 0.00344467471 0.0684401528 0.033942986
v 0.00344467471 0.0685101735 0.033942986
v 0.00194467473 0.0685101735 0.0339429863
v 0.00194467473 0.0684401528 0.0339429863
v 0.00166046421 0.0702401527 0.0339429863
v 0.00372888516 0.0702401527 0.033942986
v 0.00194467473 0.0684401528 0.0339429863
v 0.00194467473 0.0685101735 0.0339429863
v 0.00194467473 0.0684866403 0.0339439108
v 0.00194467473 0.0684632518 0.0339466782
v 0.00194467473 0.0684401528 0.0339512722
v 0.00344467471 0.0684401528 0.033942986
v 0.00344467471 0.0684401528 0.033951272
v 0.00344467471 0.0684632518 0.0339466779
v 0.00344467471 0.0684866403 0.0339439105
v 0.00344467471 0.0685101735 0.033942986
v 0.00194467509 0.0677621433 0.0360058021
v 0.00344467507 0.0677621433 0.0360058019
v 0.00344467476 0.0684162043 0.0342087838
v 0.00194467477 0.0684162043 0.0342087841
v 0.00344467475 0.0682282657 0.0341403799
v 0.00344467506 0.0675742048 0.0359373978
v 0.00194467508 0.0675742048 0.0359373981
v 0.00194467476 0.0682282657 0.0341403802
v 0.00344467476 0.0684162043 0.0342087838
v 0.00344467507 0.0677621433 0.0360058019
v 0.00344467506 0.0675742048 0.0359373978
v 0.00344467475 0.0682282657 0.0341403799
f 1 2 10
f 10 2 9
f 9 2 3
f 9 3 8
f 8 3 4
f 8 4 7
f 7 4 5
f 7 5 6
f 11 12 20
f 20 12 13
f 20 13 14
f 20 14 19
f 19 14 15
f 19 15 18
f 18 15 17
f 17 15 16
f 30 21 29
f 29 21 22
f 29 22 33
f 33 22 23
f 33 23 32
f 32 23 31
f 32 31 27
f 27 31 26
f 26 31 25
f 25 31 24
f 24 31 23
f 27 28 32
f 32 28 33
f 28 29 33
f 35 36 34
f 34 36 37
f 47 38 48
f 48 38 39
f 48 39 40
f 48 40 49
f 49 40 41
f 49 41 50
f 50 41 42
f 50 42 45
f 45 42 44
f 44 42 43
f 45 46 50
f 50 46 49
f 49 46 48
f 48 46 47
f 52 53 51
f 51 53 54
f 56 57 55
f 55 57 58
f 59 60 62
f 62 60 61
f 64 65 63
f 63 65 66
f 68 69 67
f 67 69 70
f 67 70 71
f 72 73 71
f 71 73 67
f 73 74 67
f 67 74 75
f 76 77 79
f 79 77 78
f 81 82 80
f 80 82 87
f 87 82 83
f 87 83 84
f 85 86 84
f 84 86 87
f 92 88 91
f 91 88 89
f 91 89 90
f 93 94 96
f 96 94 95
f 97 98 100
f 100 98 99
f 101 102 104
f 104 102 103
f 109 105 108
f 108 105 106
f 108 106 107
f 110 111 113
f 113 111 112
f 121 114 120
f 120 114 115
f 120 115 119
f 119 115 116
f 119 116 118
f 118 116 117
f 122 123 135
f 135 123 124
f 135 124 134
f 134 124 125
f 134 125 133
f 133 125 126
f 133 126 132
f 132 126 127
f 132 127 128
f 129 130 128
f 128 130 131
f 128 131 132
f 136 137 143
f 143 137 138
f 143 138 142
f 142 138 139
f 142 139 141
f 141 139 140
f 151 144 150
f 150 144 145
f 150 145 149
f 149 145 146
f 149 146 148
f 148 146 147
f 152 153 155
f 155 153 154
f 157 160 156
f 156 160 163
f 156 163 164
f 157 158 160
f 160 158 159
f 161 162 160
f 160 162 163
f 166 170 165
f 165 170 171
f 165 171 172
f 166 167 170
f 170 167 169
f 169 167 168
f 174 176 173
f 173 176 177
f 173 177 178
f 174 175 176
f 179 180 184
f 184 180 181
f 184 181 183
f 183 181 182
f 186 187 185
f 185 187 188
f 185 188 189
f 191 192 190
f 190 192 193
f 190 193 194
f 196 197 195
f 195 197 198
f 199 200 202
f 202 200 201
f 203 204 206
f 206 204 205
v 0.000228885252 0.0702401527 0.0341429865
v 0.000232473825 0.0702750965 0.0341492906
v 0.000236062326 0.0703056409 0.0341674133
v 0.000240368544 0.0703311148 0.0342014425
v 0.000244674763 0.0703401526 0.0342429864
v -0.00185532525 0.0703401526 0.0342429868
v -0.00185173675 0.0703338488 0.034208043
v -0.00184814826 0.0703157261 0.0341774987
v -0.00184384213 0.0702816969 0.0341520248
v -0.0018395357 0.0702401527 0.0341429869
v -0.00185532525 0.0705401527 0.0342429868
v 0.000244674763 0.0705401527 0.0342429864
v 0.000240727351 0.0705173167 0.0341281815
v 0.000236780016 0.0704522845 0.0340308549
v 0.000232832613 0.0703549578 0.0339658226
v 0.000228885217 0.0702401527 0.0339429866
v -0.00183953573 0.0702401527 0.0339429869
v -0.00184348304 0.0703549578 0.033965823
v -0.00184743065 0.0704522845 0.0340308552
v -0.00185137795 0.0705173167 0.0341281819
v -0.00185532525 0.0705401527 0.0342429868
v -0.00185137795 0.0705173167 0.0341281819
v -0.00184743065 0.0704522845 0.0340308552
v -0.00184348304 0.0703549578 0.033965823
v -0.00183953573 0.0702401527 0.0339429869
v -0.0018395357 0.0702401527 0.0341429869
v -0.00184384213 0.0702816969 0.0341520248
v -0.00184814826 0.0703157261 0.0341774987
v -0.00185173675 0.0703338488 0.034208043
v -0.00185532525 0.0703401526 0.0342429868
v -0.00184348452 0.070316644 0.0340583871
v -0.00184743064 0.0703815707 0.034101569
v -0.00184831278 0.0703933966 0.0341145206
v -5.5324728e-05 0.0677561125 0.0372223718
v -0.00155532471 0.0677561125 0.037222372
v -0.00155532471 0.0675561125 0.037222372
v -5.5324728e-05 0.0675561125 0.0372223718
v 0.000244674763 0.0705401527 0.0342429864
v 0.000244674763 0.0703401526 0.0342429864
v 0.000240368544 0.0703311148 0.0342014425
v 0.000236062326 0.0703056409 0.0341674133
v 0.000232473825 0.0702750965 0.0341492906
v 0.000228885252 0.0702401527 0.0341429865
v 0.000228885217 0.0702401527 0.0339429866
v 0.000232832613 0.0703549578 0.0339658226
v 0.000236780016 0.0704522845 0.0340308549
v 0.000240727351 0.0705173167 0.0341281815
v 0.000240725942 0.0704247525 0.0341664952
v 0.000236780029 0.0703815707 0.0341015686
v 0.000235897878 0.0703686189 0.0340897426
v -0.0018553247 0.0703401526 0.0373429868
v 0.000244675305 0.0703401526 0.0373429865
v 0.000244675305 0.0705401527 0.0373429865
v -0.0018553247 0.0705401527 0.0373429868
v -0.00155532492 0.0675561125 0.0360400047
v -5.53249347e-05 0.0675561125 0.0360400045
v -5.5324728e-05 0.0675561125 0.0372223718
v -0.00155532471 0.0675561125 0.037222372
v -5.5324728e-05 0.0677561125 0.0372223718
v -5.53249347e-05 0.0677561125 0.0360400045
v -0.00155532492 0.0677561125 0.0360400047
v -0.00155532471 0.0677561125 0.037222372
v -0.0018553247 0.0703401526 0.0373429868
v -0.00185532525 0.0703401526 0.0342429868
v 0.000244674763 0.0703401526 0.0342429864
v 0.000244675305 0.0703401526 0.0373429865
v -0.00155532525 0.0684401528 0.0341429869
v -0.00155532529 0.0684401528 0.0339512728
v -0.00155532528 0.0683497278 0.0339894967
v -0.00155532527 0.0682764843 0.0340548663
v -0.00155532525 0.0682282657 0.0341403808
v -0.00155532524 0.0684162043 0.0342087847
v -0.00155532525 0.0684374362 0.0341743626
v -0.00155532525 0.0684705655 0.0341511652
v -0.00155532525 0.0685101735 0.0341429869
v -0.00155532492 0.0677561125 0.0360400047
v -0.00155532492 0.0675561125 0.0360400047
v -0.00155532471 0.0675561125 0.037222372
v -0.00155532471 0.0677561125 0.037222372
v -0.00155532492 0.0675561125 0.0360400047
v -0.00155532492 0.0677561125 0.0360400047
v -0.00155532492 0.0677567887 0.0360283955
v -0.00155532492 0.0677588079 0.0360169431
v -0.00155532493 0.0677621433 0.0360058027
v -0.00155532494 0.0675742048 0.0359373987
v -0.00155532493 0.0675641991 0.03597082
v -0.00155532493 0.067558141 0.0360051768
v -0.0018395357 0.0702401527 0.0341429869
v -0.00183953573 0.0702401527 0.0339429869
v -0.00155532529 0.0684401528 0.0339429869
v -0.00155532529 0.0684401528 0.0339512728
v -0.00155532525 0.0684401528 0.0341429869
v 0.000244674763 0.0705401527 0.0342429864
v -0.00185532525 0.0705401527 0.0342429868
v -0.0018553247 0.0705401527 0.0373429868
v 0.000244675305 0.0705401527 0.0373429865
v -5.53249347e-05 0.0675561125 0.0360400045
v -5.53249347e-05 0.0677561125 0.0360400045
v -5.5324728e-05 0.0677561125 0.0372223718
v -5.5324728e-05 0.0675561125 0.0372223718
v -0.00155532494 0.0675742048 0.0359373987
v -0.00155532493 0.0677621433 0.0360058027
v -0.00155532524 0.0684162043 0.0342087847
v -0.00155532525 0.0682282657 0.0341403808
v 0.000228885217 0.0702401527 0.0339429866
v 0.000228885252 0.0702401527 0.0341429865
v -5.53252664e-05 0.0684401528 0.0341429866
v -5.53253e-05 0.0684401528 0.0339512726
v -5.53253014e-05 0.0684401528 0.0339429866
v -0.00185532525 0.0705401527 0.0342429868
v -0.00185532525 0.0703401526 0.0342429868
v -0.0018553247 0.0703401526 0.0373429868
v -0.0018553247 0.0705401527 0.0373429868
v -5.53252549e-05 0.0684162043 0.0342087845
v -5.53252609e-05 0.0684374362 0.0341743623
v -5.5325265e-05 0.0684705655 0.0341511649
v -5.53252664e-05 0.0685101735 0.0341429866
v -0.00155532525 0.0685101735 0.0341429869
v -0.00155532525 0.0684705655 0.0341511652
v -0.00155532525 0.0684374362 0.0341743626
v -0.00155532524 0.0684162043 0.0342087847
v -0.00155532529 0.0685101735 0.0339429869
v -5.53253014e-05 0.0685101735 0.0339429866
v -5.53253012e-05 0.0684866403 0.0339439111
v -5.53253008e-05 0.0684632518 0.0339466785
v -5.53253e-05 0.0684401528 0.0339512726
v -5.53252933e-05 0.0683497278 0.0339894964
v -5.53252818e-05 0.0682764843 0.034054866
v -5.53252669e-05 0.0682282657 0.0341403805
v -0.00155532525 0.0682282657 0.0341403808
v -0.00155532527 0.0682764843 0.0340548663
v -0.00155532528 0.0683497278 0.0339894967
v -0.00155532529 0.0684401528 0.0339512728
v -0.00155532529 0.0684632518 0.0339466788
v -0.00155532529 0.0684866403 0.0339439114
v -0.00155532494 0.0675742048 0.0359373987
v -5.53249527e-05 0.0675742048 0.0359373984
v -5.53249468e-05 0.0675641991 0.0359708197
v -5.53249408e-05 0.067558141 0.0360051766
v -5.53249347e-05 0.0675561125 0.0360400045
v -0.00155532492 0.0675561125 0.0360400047
v -0.00155532493 0.067558141 0.0360051768
v -0.00155532493 0.0675641991 0.03597082
v -5.53249347e-05 0.0677561125 0.0360400045
v -5.53249368e-05 0.0677567887 0.0360283952
v -5.53249388e-05 0.0677588079 0.0360169429
v -5.53249407e-05 0.0677621433 0.0360058025
v -0.00155532493 0.0677621433 0.0360058027
v -0.00155532492 0.0677588079 0.0360169431
v -0.00155532492 0.0677567887 0.0360283955
v -0.00155532492 0.0677561125 0.0360400047
v 0.000244674763 0.0703401526 0.0342429864
v 0.000244674763 0.0705401527 0.0342429864
v 0.000244675305 0.0705401527 0.0373429865
v 0.000244675305 0.0703401526 0.0373429865
v -5.53252669e-05 0.0682282657 0.0341403805
v -5.53252818e-05 0.0682764843 0.034054866
v -5.53252933e-05 0.0683497278 0.0339894964
v -5.53253e-05 0.0684401528 0.0339512726
v -5.53252664e-05 0.0684401528 0.0341429866
v -5.53252664e-05 0.0685101735 0.0341429866
v -5.5325265e-05 0.0684705655 0.0341511649
v -5.53252609e-05 0.0684374362 0.0341743623
v -5.53252549e-05 0.0684162043 0.0342087845
v -5.53249407e-05 0.0677621433 0.0360058025
v -5.53249388e-05 0.0677588079 0.0360169429
v -5.53249368e-05 0.0677567887 0.0360283952
v -5.53249347e-05 0.0677561125 0.0360400045
v -5.53249347e-05 0.0675561125 0.0360400045
v -5.53249408e-05 0.067558141 0.0360051766
v -5.53249468e-05 0.0675641991 0.0359708197
v -5.53249527e-05 0.0675742048 0.0359373984
v -0.00155532525 0.0685101735 0.0341429869
v -5.53252664e-05 0.0685101735 0.0341429866
v -5.53252664e-05 0.0684401528 0.0341429866
v 0.000228885252 0.0702401527 0.0341429865
v -0.0018395357 0.0702401527 0.0341429869
v -0.00155532525 0.0684401528 0.0341429869
v -5.53253014e-05 0.0684401528 0.0339429866
v -5.53253014e-05 0.0685101735 0.0339429866
v -0.00155532529 0.0685101735 0.0339429869
v -0.00155532529 0.0684401528 0.0339429869
v -0.00183953573 0.0702401527 0.0339429869
v 0.000228885217 0.0702401527 0.0339429866
v -0.00155532529 0.0684401528 0.0339429869
v -0.00155532529 0.0685101735 0.0339429869
v -0.00155532529 0.0684866403 0.0339439114
v -0.00155532529 0.0684632518 0.0339466788
v -0.00155532529 0.0684401528 0.0339512728
v -5.53253014e-05 0.0684401528 0.0339429866
v -5.53253e-05 0.0684401528 0.0339512726
v -5.53253008e-05 0.0684632518 0.0339466785
v -5.53253012e-05 0.0684866403 0.0339439111
v -5.53253014e-05 0.0685101735 0.0339429866
v -0.00155532493 0.0677621433 0.0360058027
v -5.53249407e-05 0.0677621433 0.0360058025
v -5.53252549e-05 0.0684162043 0.0342087845
v -0.00155532524 0.0684162043 0.0342087847
v -5.53252669e-05 0.0682282657 0.0341403805
v -5.53249527e-05 0.0675742048 0.0359373984
v -0.00155532494 0.0675742048 0.0359373987
v -0.00155532525 0.0682282657 0.0341403808
v -5.53252549e-05 0.0684162043 0.0342087845
v -5.53249407e-05 0.0677621433 0.0360058025
v -5.53249527e-05 0.0675742048 0.0359373984
v -5.53252669e-05 0.0682282657 0.0341403805
f 207 208 216
f 216 208 215
f 215 208 209
f 215 209 214
f 214 209 210
f 214 210 213
f 213 210 211
f 213 211 212
f 217 218 226
f 226 218 219
f 226 219 220
f 226 220 225
f 225 220 221
f 225 221 224
f 224 221 223
f 223 221 222
f 236 227 235
f 235 227 228
f 235 228 239
f 239 228 229
f 239 229 238
f 238 229 237
f 238 237 233
f 233 237 232
f 232 237 231
f 231 237 230
f 230 237 229
f 233 234 238
f 238 234 239
f 234 235 239
f 241 242 240
f 240 242 243
f 253 244 254
f 254 244 245
f 254 245 246
f 254 246 255
f 255 246 247
f 255 247 256
f 256 247 248
f 256 248 251
f 251 248 250
f 250 248 249
f 251 252 256
f 256 252 255
f 255 252 254
f 254 252 253
f 258 259 257
f 257 259 260
f 262 263 261
f 261 263 264
f 265 266 268
f 268 266 267
f 270 271 269
f 269 271 272
f 274 275 273
f 273 275 276
f 273 276 277
f 278 279 277
f 277 279 273
f 279 280 273
f 273 280 281
f 282 283 285
f 285 283 284
f 287 288 286
f 286 288 293
f 293 288 289
f 293 289 290
f 291 292 290
f 290 292 293
f 298 294 297
f 297 294 295
f 297 295 296
f 299 300 302
f 302 300 301
f 303 304 306
f 306 304 305
f 307 308 310
f 310 308 309
f 315 311 314
f 314 311 312
f 314 312 313
f 316 317 319
f 319 317 318
f 327 320 326
f 326 320 321
f 326 321 325
f 325 321 322
f 325 322 324
f 324 322 323
f 328 329 341
f 341 329 330
f 341 330 340
f 340 330 331
f 340 331 339
f 339 331 332
f 339 332 338
f 338 332 333
f 338 333 334
f 335 336 334
f 334 336 337
f 334 337 338
f 342 343 349
f 349 343 344
f 349 344 348
f 348 344 345
f 348 345 347
f 347 345 346
f 357 350 356
f 356 350 351
f 356 351 355
f 355 351 352
f 355 352 354
f 354 352 353
f 358 359 361
f 361 359 360
f 363 366 362
f 362 366 369
f 362 369 370
f 363 364 366
f 366 364 365
f 367 368 366
f 366 368 369
f 372 376 371
f 371 376 377
f 371 377 378
f 372 373 376
f 376 373 375
f 375 373 374
f 380 382 379
f 379 382 383
f 379 383 384
f 380 381 382
f 385 386 390
f 390 386 387
f 390 387 389
f 389 387 388
f 392 393 391
f 391 393 394
f 391 394 395
f 397 398 396
f 396 398 399
f 396 399 400
f 402 403 401
f 401 403 404
f 405 406 408
f 408 406 407
f 409 410 412
f 412 410 411
