v 0.0116640786 -0.132402095 0.177539337
v 0.0121460958 -0.132226709 0.177549295
v 0.0124025715 -0.131782468 0.177557683
v 0.012313498 -0.131277238 0.177560576
v 0.0119205537 -0.130947421 0.17755662
v 0.0114076015 -0.130947343 0.177547667
v 0.0110146578 -0.131277039 0.177537905
v 0.0109255848 -0.131782242 0.177531903
v 0.0111820612 -0.132226561 0.177532469
v 0.0118518661 -0.137157204 0.1667387
v 0.0113729111 -0.137155586 0.166554854
v 0.0111241889 -0.137151637 0.166106165
v 0.0112220797 -0.137147203 0.16560258
v 0.0116207788 -0.137144361 0.165279732
v 0.012133731 -0.13714444 0.165288685
v 0.0125209199 -0.137147402 0.16562525
v 0.0126011757 -0.137151863 0.166131945
v 0.0123369457 -0.137155734 0.16657168
v 0.0116640786 -0.132402095 0.177539337
v 0.0111820612 -0.132226561 0.177532469
v 0.0109255848 -0.131782242 0.177531903
v 0.0110146578 -0.131277039 0.177537905
v 0.0114076015 -0.130947343 0.177547667
v 0.0119205537 -0.130947421 0.17755662
v 0.012313498 -0.131277238 0.177560576
v 0.0124025715 -0.131782468 0.177557683
v 0.0121460958 -0.132226709 0.177549295
v 0.0118385993 -0.132314081 0.167541248
v 0.0123206165 -0.132138695 0.167551206
v 0.0125770923 -0.131694455 0.167559593
v 0.0124880188 -0.131189224 0.167562486
v 0.0120950745 -0.130859408 0.167558531
v 0.0115821223 -0.130859329 0.167549577
v 0.0111891786 -0.131189026 0.167539816
v 0.0111001056 -0.131694229 0.167533814
v 0.0113565819 -0.132138548 0.16753438
v 0.0119205537 -0.130947421 0.17755662
v 0.0120950745 -0.130859408 0.167558531
v 0.0118518634 -0.133067363 0.166774703
v 0.0113729084 -0.133065745 0.166590857
v 0.0111241862 -0.133061795 0.166142168
v 0.011222077 -0.133057362 0.165638583
v 0.0116207761 -0.133054519 0.165315735
v 0.0121337283 -0.133054598 0.165324688
v 0.0125209172 -0.13305756 0.165661253
v 0.012601173 -0.133062021 0.166167948
v 0.012336943 -0.133065892 0.166607683
v 0.0118518661 -0.137157204 0.1667387
v 0.0123369457 -0.137155734 0.16657168
v 0.0126011757 -0.137151863 0.166131945
v 0.0125209199 -0.137147402 0.16562525
v 0.012133731 -0.13714444 0.165288685
v 0.0116207788 -0.137144361 0.165279732
v 0.0112220797 -0.137147203 0.16560258
v 0.0111241889 -0.137151637 0.166106165
v 0.0113729111 -0.137155586 0.166554854
v 0.0121337283 -0.133054598 0.165324688
v 0.012133731 -0.13714444 0.165288685
v 0.0118385993 -0.132314081 0.167541248
v 0.0113565819 -0.132138548 0.16753438
v 0.0111001056 -0.131694229 0.167533814
v 0.0111891786 -0.131189026 0.167539816
v 0.0115821223 -0.130859329 0.167549577
v 0.0120950745 -0.130859408 0.167558531
v 0.0124880188 -0.131189224 0.167562486
v 0.0125770923 -0.131694455 0.167559593
v 0.0123206165 -0.132138695 0.167551206
v 0.0118518634 -0.133067363 0.166774703
v 0.012336943 -0.133065892 0.166607683
v 0.012601173 -0.133062021 0.166167948
v 0.0125209172 -0.13305756 0.165661253
v 0.0121337283 -0.133054598 0.165324688
v 0.0116207761 -0.133054519 0.165315735
v 0.011222077 -0.133057362 0.165638583
v 0.0111241862 -0.133061795 0.166142168
v 0.0113729084 -0.133065745 0.166590857
v 0.0118385993 -0.132314081 0.167541248
v 0.0118518634 -0.133067363 0.166774703
v 0.0118436751 -0.132369371 0.167249955
v 0.0118436751 -0.132369371 0.167249955
v 0.0118479783 -0.132531942 0.16700199
v 0.0118479783 -0.132531942 0.16700199
v 0.0118508536 -0.132777044 0.166835104
v 0.0118508536 -0.132777044 0.166835104
v 0.0123268642 -0.13220675 0.16719266
v 0.0125863073 -0.131794832 0.167030757
v 0.0125006081 -0.131326357 0.166840003
v 0.0121098662 -0.13102053 0.166709653
v 0.011596914 -0.131020452 0.1667007
v 0.0112017678 -0.131326158 0.166817333
v 0.0111093206 -0.131794606 0.167004978
v 0.0113628296 -0.132206602 0.167175834
v 0.0113716654 -0.132708398 0.166665203
v 0.0111223529 -0.132534727 0.166251824
v 0.0112195723 -0.132337295 0.165788393
v 0.0116178333 -0.132208481 0.165491753
v 0.0121307855 -0.132208559 0.165500706
v 0.0125184126 -0.132337493 0.165811063
v 0.0125993397 -0.132534953 0.166277604
v 0.0123357 -0.132708545 0.166682029
v 0.0123321608 -0.132406855 0.166887446
v 0.0125941195 -0.132089975 0.166580582
v 0.012511281 -0.131729575 0.166224985
v 0.0121224062 -0.131494289 0.165987041
v 0.0116094541 -0.131494211 0.165978088
v 0.0112124407 -0.131729376 0.166202315
v 0.0111171328 -0.132089749 0.166554803
v 0.0113681262 -0.132406707 0.166870619
f 1 2 9
f 9 2 3
f 9 3 8
f 8 3 4
f 8 4 7
f 7 4 5
f 7 5 6
f 10 11 18
f 18 11 17
f 17 11 12
f 17 12 16
f 16 12 13
f 16 13 15
f 15 13 14
f 20 28 19
f 19 28 29
f 19 29 27
f 27 29 30
f 27 30 26
f 26 30 31
f 26 31 25
f 25 31 38
f 25 38 24
f 37 32 33
f 37 33 23
f 23 33 34
f 23 34 22
f 22 34 35
f 22 35 21
f 21 35 36
f 21 36 20
f 20 36 28
f 40 48 39
f 39 48 49
f 39 49 47
f 47 49 50
f 47 50 46
f 46 50 51
f 46 51 45
f 45 51 58
f 45 58 44
f 57 52 53
f 57 53 43
f 43 53 54
f 43 54 42
f 42 54 55
f 42 55 41
f 41 55 56
f 41 56 40
f 40 56 48
f 60 80 59
f 77 79 85
f 77 85 67
f 67 85 86
f 67 86 66
f 66 86 87
f 66 87 65
f 65 87 88
f 65 88 64
f 64 88 89
f 64 89 63
f 63 89 90
f 63 90 62
f 62 90 91
f 62 91 61
f 61 91 92
f 61 92 60
f 60 92 80
f 69 83 68
f 78 84 93
f 78 93 76
f 76 93 94
f 76 94 75
f 75 94 95
f 75 95 74
f 74 95 96
f 74 96 73
f 73 96 97
f 73 97 72
f 72 97 98
f 72 98 71
f 71 98 99
f 71 99 70
f 70 99 100
f 70 100 69
f 69 100 83
f 79 81 101
f 101 81 100
f 101 100 99
f 100 81 83
f 84 82 108
f 84 108 93
f 93 108 107
f 93 107 94
f 94 107 106
f 94 106 95
f 95 106 105
f 95 105 96
f 96 105 104
f 96 104 97
f 97 104 103
f 97 103 98
f 98 103 102
f 98 102 99
f 99 102 101
f 108 82 92
f 92 82 80
f 85 79 101
f 101 102 85
f 85 102 86
f 102 103 86
f 86 103 87
f 103 104 87
f 87 104 88
f 104 105 88
f 88 105 89
f 105 106 89
f 89 106 90
f 108 92 91
f 106 107 90
f 90 107 91
f 107 108 91
