v 1.16985 -0.108898759 0.389534622
v 1.16985 -0.128705101 0.376338076
v 1.18195 -0.128705101 0.376338076
v 1.18195 -0.108898759 0.389534622
v 1.16985 -0.108876579 0.389501334
v 1.16985 -0.128682922 0.376304788
v 1.16985 -0.128705101 0.376338076
v 1.16985 -0.108898759 0.389534622
v 1.16985 -0.128682922 0.376304788
v 1.18195 -0.128682922 0.376304788
v 1.18195 -0.128705101 0.376338076
v 1.16985 -0.128705101 0.376338076
v 1.16985 -0.128682922 0.376304788
v 1.16985 -0.108876579 0.389501334
v 1.18195 -0.108876579 0.389501334
v 1.18195 -0.128682922 0.376304788
v 1.18195 -0.128682922 0.376304788
v 1.18195 -0.108876579 0.389501334
v 1.18195 -0.108898759 0.389534622
v 1.18195 -0.128705101 0.376338076
v 1.18195 -0.108876579 0.389501334
v 1.16985 -0.108876579 0.389501334
v 1.16985 -0.108898759 0.389534622
v 1.18195 -0.108898759 0.389534622
f 2 3 1
f 1 3 4
f 5 6 8
f 8 6 7
f 9 10 12
f 12 10 11
f 14 15 13
f 13 15 16
f 17 18 20
f 20 18 19
f 21 22 24
f 24 22 23
v 1.18305 -0.108898759 0.389534622
v 1.18305 -0.128705101 0.376338076
v 1.19515 -0.128705101 0.376338076
v 1.19515 -0.108898759 0.389534622
v 1.18305 -0.108876579 0.389501334
v 1.18305 -0.128682922 0.376304788
v 1.18305 -0.128705101 0.376338076
v 1.18305 -0.108898759 0.389534622
v 1.18305 -0.128682922 0.376304788
v 1.19515 -0.128682922 0.376304788
v 1.19515 -0.128705101 0.376338076
v 1.18305 -0.128705101 0.376338076
v 1.18305 -0.128682922 0.376304788
v 1.18305 -0.108876579 0.389501334
v 1.19515 -0.108876579 0.389501334
v 1.19515 -0.128682922 0.376304788
v 1.19515 -0.128682922 0.376304788
v 1.19515 -0.108876579 0.389501334
v 1.19515 -0.108898759 0.389534622
v 1.19515 -0.128705101 0.376338076
v 1.19515 -0.108876579 0.389501334
v 1.18305 -0.108876579 0.389501334
v 1.18305 -0.108898759 0.389534622
v 1.19515 -0.108898759 0.389534622
f 26 27 25
f 25 27 28
f 29 30 32
f 32 30 31
f 33 34 36
f 36 34 35
f 38 39 37
f 37 39 40
f 41 42 44
f 44 42 43
f 45 46 48
f 48 46 47
v 1.19625 -0.108898759 0.389534622
v 1.19625 -0.128705101 0.376338076
v 1.20835 -0.128705101 0.376338076
v 1.20835 -0.108898759 0.389534622
v 1.19625 -0.108876579 0.389501334
v 1.19625 -0.128682922 0.376304788
v 1.19625 -0.128705101 0.376338076
v 1.19625 -0.108898759 0.389534622
v 1.19625 -0.128682922 0.376304788
v 1.20835 -0.128682922 0.376304788
v 1.20835 -0.128705101 0.376338076
v 1.19625 -0.128705101 0.376338076
v 1.19625 -0.128682922 0.376304788
v 1.19625 -0.108876579 0.389501334
v 1.20835 -0.108876579 0.389501334
v 1.20835 -0.128682922 0.376304788
v 1.20835 -0.128682922 0.376304788
v 1.20835 -0.108876579 0.389501334
v 1.20835 -0.108898759 0.389534622
v 1.20835 -0.128705101 0.376338076
v 1.20835 -0.108876579 0.389501334
v 1.19625 -0.108876579 0.389501334
v 1.19625 -0.108898759 0.389534622
v 1.20835 -0.108898759 0.389534622
f 50 51 49
f 49 51 52
f 53 54 56
f 56 54 55
f 57 58 60
f 60 58 59
f 62 63 61
f 61 63 64
f 65 66 68
f 68 66 67
f 69 70 72
f 72 70 71
v 1.20945 -0.108898759 0.389534622
v 1.20945 -0.128705101 0.376338076
v 1.22155 -0.128705101 0.376338076
v 1.22155 -0.108898759 0.389534622
v 1.20945 -0.108876579 0.389501334
v 1.20945 -0.128682922 0.376304788
v 1.20945 -0.128705101 0.376338076
v 1.20945 -0.108898759 0.389534622
v 1.20945 -0.128682922 0.376304788
v 1.22155 -0.128682922 0.376304788
v 1.22155 -0.128705101 0.376338076
v 1.20945 -0.128705101 0.376338076
v 1.20945 -0.128682922 0.376304788
v 1.20945 -0.108876579 0.389501334
v 1.22155 -0.108876579 0.389501334
v 1.22155 -0.128682922 0.376304788
v 1.22155 -0.128682922 0.376304788
v 1.22155 -0.108876579 0.389501334
v 1.22155 -0.108898759 0.389534622
v 1.22155 -0.128705101 0.376338076
v 1.22155 -0.108876579 0.389501334
v 1.20945 -0.108876579 0.389501334
v 1.20945 -0.108898759 0.389534622
v 1.22155 -0.108898759 0.389534622
f 74 75 73
f 73 75 76
f 77 78 80
f 80 78 79
f 81 82 84
f 84 82 83
f 86 87 85
f 85 87 88
f 89 90 92
f 92 90 91
f 93 94 96
f 96 94 95
v 1.22265 -0.108898759 0.389534622
v 1.22265 -0.128705101 0.376338076
v 1.23475 -0.128705101 0.376338076
v 1.23475 -0.108898759 0.389534622
v 1.22265 -0.108876579 0.389501334
v 1.22265 -0.128682922 0.376304788
v 1.22265 -0.128705101 0.376338076
v 1.22265 -0.108898759 0.389534622
v 1.22265 -0.128682922 0.376304788
v 1.23475 -0.128682922 0.376304788
v 1.23475 -0.128705101 0.376338076
v 1.22265 -0.128705101 0.376338076
v 1.22265 -0.128682922 0.376304788
v 1.22265 -0.108876579 0.389501334
v 1.23475 -0.108876579 0.389501334
v 1.23475 -0.128682922 0.376304788
v 1.23475 -0.128682922 0.376304788
v 1.23475 -0.108876579 0.389501334
v 1.23475 -0.108898759 0.389534622
v 1.23475 -0.128705101 0.376338076
v 1.23475 -0.108876579 0.389501334
v 1.22265 -0.108876579 0.389501334
v 1.22265 -0.108898759 0.389534622
v 1.23475 -0.108898759 0.389534622
f 98 99 97
f 97 99 100
f 101 102 104
f 104 102 103
f 105 106 108
f 108 106 107
f 110 111 109
f 109 111 112
f 113 114 116
f 116 114 115
f 117 118 120
f 120 118 119
v 1.23585 -0.108898759 0.389534622
v 1.23585 -0.128705101 0.376338076
v 1.24795 -0.128705101 0.376338076
v 1.24795 -0.108898759 0.389534622
v 1.23585 -0.108876579 0.389501334
v 1.23585 -0.128682922 0.376304788
v 1.23585 -0.128705101 0.376338076
v 1.23585 -0.108898759 0.389534622
v 1.23585 -0.128682922 0.376304788
v 1.24795 -0.128682922 0.376304788
v 1.24795 -0.128705101 0.376338076
v 1.23585 -0.128705101 0.376338076
v 1.23585 -0.128682922 0.376304788
v 1.23585 -0.108876579 0.389501334
v 1.24795 -0.108876579 0.389501334
v 1.24795 -0.128682922 0.376304788
v 1.24795 -0.128682922 0.376304788
v 1.24795 -0.108876579 0.389501334
v 1.24795 -0.108898759 0.389534622
v 1.24795 -0.128705101 0.376338076
v 1.24795 -0.108876579 0.389501334
v 1.23585 -0.108876579 0.389501334
v 1.23585 -0.108898759 0.389534622
v 1.24795 -0.108898759 0.389534622
f 122 123 121
f 121 123 124
f 125 126 128
f 128 126 127
f 129 130 132
f 132 130 131
f 134 135 133
f 133 135 136
f 137 138 140
f 140 138 139
f 141 142 144
f 144 142 143
v 1.24905 -0.108898759 0.389534622
v 1.24905 -0.128705101 0.376338076
v 1.26115 -0.128705101 0.376338076
v 1.26115 -0.108898759 0.389534622
v 1.24905 -0.108876579 0.389501334
v 1.24905 -0.128682922 0.376304788
v 1.24905 -0.128705101 0.376338076
v 1.24905 -0.108898759 0.389534622
v 1.24905 -0.128682922 0.376304788
v 1.26115 -0.128682922 0.376304788
v 1.26115 -0.128705101 0.376338076
v 1.24905 -0.128705101 0.376338076
v 1.24905 -0.128682922 0.376304788
v 1.24905 -0.108876579 0.389501334
v 1.26115 -0.108876579 0.389501334
v 1.26115 -0.128682922 0.376304788
v 1.26115 -0.128682922 0.376304788
v 1.26115 -0.108876579 0.389501334
v 1.26115 -0.108898759 0.389534622
v 1.26115 -0.128705101 0.376338076
v 1.26115 -0.108876579 0.389501334
v 1.24905 -0.108876579 0.389501334
v 1.24905 -0.108898759 0.389534622
v 1.26115 -0.108898759 0.389534622
f 146 147 145
f 145 147 148
f 149 150 152
f 152 150 151
f 153 154 156
f 156 154 155
f 158 159 157
f 157 159 160
f 161 162 164
f 164 162 163
f 165 166 168
f 168 166 167
v 1.26225 -0.108898759 0.389534622
v 1.26225 -0.128705101 0.376338076
v 1.27435 -0.128705101 0.376338076
v 1.27435 -0.108898759 0.389534622
v 1.26225 -0.108876579 0.389501334
v 1.26225 -0.128682922 0.376304788
v 1.26225 -0.128705101 0.376338076
v 1.26225 -0.108898759 0.389534622
v 1.26225 -0.128682922 0.376304788
v 1.27435 -0.128682922 0.376304788
v 1.27435 -0.128705101 0.376338076
v 1.26225 -0.128705101 0.376338076
v 1.26225 -0.128682922 0.376304788
v 1.26225 -0.108876579 0.389501334
v 1.27435 -0.108876579 0.389501334
v 1.27435 -0.128682922 0.376304788
v 1.27435 -0.128682922 0.376304788
v 1.27435 -0.108876579 0.389501334
v 1.27435 -0.108898759 0.389534622
v 1.27435 -0.128705101 0.376338076
v 1.27435 -0.108876579 0.389501334
v 1.26225 -0.108876579 0.389501334
v 1.26225 -0.108898759 0.389534622
v 1.27435 -0.108898759 0.389534622
f 170 171 169
f 169 171 172
f 173 174 176
f 176 174 175
f 177 178 180
f 180 178 179
f 182 183 181
f 181 183 184
f 185 186 188
f 188 186 187
f 189 190 192
f 192 190 191
v 1.27545 -0.108898759 0.389534622
v 1.27545 -0.128705101 0.376338076
v 1.28755 -0.128705101 0.376338076
v 1.28755 -0.108898759 0.389534622
v 1.27545 -0.108876579 0.389501334
v 1.27545 -0.128682922 0.376304788
v 1.27545 -0.128705101 0.376338076
v 1.27545 -0.108898759 0.389534622
v 1.27545 -0.128682922 0.376304788
v 1.28755 -0.128682922 0.376304788
v 1.28755 -0.128705101 0.376338076
v 1.27545 -0.128705101 0.376338076
v 1.27545 -0.128682922 0.376304788
v 1.27545 -0.108876579 0.389501334
v 1.28755 -0.108876579 0.389501334
v 1.28755 -0.128682922 0.376304788
v 1.28755 -0.128682922 0.376304788
v 1.28755 -0.108876579 0.389501334
v 1.28755 -0.108898759 0.389534622
v 1.28755 -0.128705101 0.376338076
v 1.28755 -0.108876579 0.389501334
v 1.27545 -0.108876579 0.389501334
v 1.27545 -0.108898759 0.389534622
v 1.28755 -0.108898759 0.389534622
f 194 195 193
f 193 195 196
f 197 198 200
f 200 198 199
f 201 202 204
f 204 202 203
f 206 207 205
f 205 207 208
f 209 210 212
f 212 210 211
f 213 214 216
f 216 214 215
v 1.28865 -0.108898759 0.389534622
v 1.28865 -0.128705101 0.376338076
v 1.30075 -0.128705101 0.376338076
v 1.30075 -0.108898759 0.389534622
v 1.28865 -0.108876579 0.389501334
v 1.28865 -0.128682922 0.376304788
v 1.28865 -0.128705101 0.376338076
v 1.28865 -0.108898759 0.389534622
v 1.28865 -0.128682922 0.376304788
v 1.30075 -0.128682922 0.376304788
v 1.30075 -0.128705101 0.376338076
v 1.28865 -0.128705101 0.376338076
v 1.28865 -0.128682922 0.376304788
v 1.28865 -0.108876579 0.389501334
v 1.30075 -0.108876579 0.389501334
v 1.30075 -0.128682922 0.376304788
v 1.30075 -0.128682922 0.376304788
v 1.30075 -0.108876579 0.389501334
v 1.30075 -0.108898759 0.389534622
v 1.30075 -0.128705101 0.376338076
v 1.30075 -0.108876579 0.389501334
v 1.28865 -0.108876579 0.389501334
v 1.28865 -0.108898759 0.389534622
v 1.30075 -0.108898759 0.389534622
f 218 219 217
f 217 219 220
f 221 222 224
f 224 222 223
f 225 226 228
f 228 226 227
f 230 231 229
f 229 231 232
f 233 234 236
f 236 234 235
f 237 238 240
f 240 238 239
v 1.30185 -0.108898759 0.389534622
v 1.30185 -0.128705101 0.376338076
v 1.31395 -0.128705101 0.376338076
v 1.31395 -0.108898759 0.389534622
v 1.30185 -0.108876579 0.389501334
v 1.30185 -0.128682922 0.376304788
v 1.30185 -0.128705101 0.376338076
v 1.30185 -0.108898759 0.389534622
v 1.30185 -0.128682922 0.376304788
v 1.31395 -0.128682922 0.376304788
v 1.31395 -0.128705101 0.376338076
v 1.30185 -0.128705101 0.376338076
v 1.30185 -0.128682922 0.376304788
v 1.30185 -0.108876579 0.389501334
v 1.31395 -0.108876579 0.389501334
v 1.31395 -0.128682922 0.376304788
v 1.31395 -0.128682922 0.376304788
v 1.31395 -0.108876579 0.389501334
v 1.31395 -0.108898759 0.389534622
v 1.31395 -0.128705101 0.376338076
v 1.31395 -0.108876579 0.389501334
v 1.30185 -0.108876579 0.389501334
v 1.30185 -0.108898759 0.389534622
v 1.31395 -0.108898759 0.389534622
f 242 243 241
f 241 243 244
f 245 246 248
f 248 246 247
f 249 250 252
f 252 250 251
f 254 255 253
f 253 255 256
f 257 258 260
f 260 258 259
f 261 262 264
f 264 262 263
v 1.31505 -0.108898759 0.389534622
v 1.31505 -0.128705101 0.376338076
v 1.32715001 -0.128705101 0.376338076
v 1.32715001 -0.108898759 0.389534622
v 1.31505 -0.108876579 0.389501334
v 1.31505 -0.128682922 0.376304788
v 1.31505 -0.128705101 0.376338076
v 1.31505 -0.108898759 0.389534622
v 1.31505 -0.128682922 0.376304788
v 1.32715001 -0.128682922 0.376304788
v 1.32715001 -0.128705101 0.376338076
v 1.31505 -0.128705101 0.376338076
v 1.31505 -0.128682922 0.376304788
v 1.31505 -0.108876579 0.389501334
v 1.32715001 -0.108876579 0.389501334
v 1.32715001 -0.128682922 0.376304788
v 1.32715001 -0.128682922 0.376304788
v 1.32715001 -0.108876579 0.389501334
v 1.32715001 -0.108898759 0.389534622
v 1.32715001 -0.128705101 0.376338076
v 1.32715001 -0.108876579 0.389501334
v 1.31505 -0.108876579 0.389501334
v 1.31505 -0.108898759 0.389534622
v 1.32715001 -0.108898759 0.389534622
f 266 267 265
f 265 267 268
f 269 270 272
f 272 270 271
f 273 274 276
f 276 274 275
f 278 279 277
f 277 279 280
f 281 282 284
f 284 282 283
f 285 286 288
f 288 286 287
v 1.16985 -0.12970374 0.375672704
v 1.16985 -0.149510083 0.362476158
v 1.18195 -0.149510083 0.362476158
v 1.18195 -0.12970374 0.375672704
v 1.16985 -0.129681561 0.375639416
v 1.16985 -0.149487903 0.36244287
v 1.16985 -0.149510083 0.362476158
v 1.16985 -0.12970374 0.375672704
v 1.16985 -0.149487903 0.36244287
v 1.18195 -0.149487903 0.36244287
v 1.18195 -0.149510083 0.362476158
v 1.16985 -0.149510083 0.362476158
v 1.16985 -0.149487903 0.36244287
v 1.16985 -0.129681561 0.375639416
v 1.18195 -0.129681561 0.375639416
v 1.18195 -0.149487903 0.36244287
v 1.18195 -0.149487903 0.36244287
v 1.18195 -0.129681561 0.375639416
v 1.18195 -0.12970374 0.375672704
v 1.18195 -0.149510083 0.362476158
v 1.18195 -0.129681561 0.375639416
v 1.16985 -0.129681561 0.375639416
v 1.16985 -0.12970374 0.375672704
v 1.18195 -0.12970374 0.375672704
f 290 291 289
f 289 291 292
f 293 294 296
f 296 294 295
f 297 298 300
f 300 298 299
f 302 303 301
f 301 303 304
f 305 306 308
f 308 306 307
f 309 310 312
f 312 310 311
v 1.18305 -0.12970374 0.375672704
v 1.18305 -0.149510083 0.362476158
v 1.19515 -0.149510083 0.362476158
v 1.19515 -0.12970374 0.375672704
v 1.18305 -0.129681561 0.375639416
v 1.18305 -0.149487903 0.36244287
v 1.18305 -0.149510083 0.362476158
v 1.18305 -0.12970374 0.375672704
v 1.18305 -0.149487903 0.36244287
v 1.19515 -0.149487903 0.36244287
v 1.19515 -0.149510083 0.362476158
v 1.18305 -0.149510083 0.362476158
v 1.18305 -0.149487903 0.36244287
v 1.18305 -0.129681561 0.375639416
v 1.19515 -0.129681561 0.375639416
v 1.19515 -0.149487903 0.36244287
v 1.19515 -0.149487903 0.36244287
v 1.19515 -0.129681561 0.375639416
v 1.19515 -0.12970374 0.375672704
v 1.19515 -0.149510083 0.362476158
v 1.19515 -0.129681561 0.375639416
v 1.18305 -0.129681561 0.375639416
v 1.18305 -0.12970374 0.375672704
v 1.19515 -0.12970374 0.375672704
f 314 315 313
f 313 315 316
f 317 318 320
f 320 318 319
f 321 322 324
f 324 322 323
f 326 327 325
f 325 327 328
f 329 330 332
f 332 330 331
f 333 334 336
f 336 334 335
v 1.19625 -0.12970374 0.375672704
v 1.19625 -0.149510083 0.362476158
v 1.20835 -0.149510083 0.362476158
v 1.20835 -0.12970374 0.375672704
v 1.19625 -0.129681561 0.375639416
v 1.19625 -0.149487903 0.36244287
v 1.19625 -0.149510083 0.362476158
v 1.19625 -0.12970374 0.375672704
v 1.19625 -0.149487903 0.36244287
v 1.20835 -0.149487903 0.36244287
v 1.20835 -0.149510083 0.362476158
v 1.19625 -0.149510083 0.362476158
v 1.19625 -0.149487903 0.36244287
v 1.19625 -0.129681561 0.375639416
v 1.20835 -0.129681561 0.375639416
v 1.20835 -0.149487903 0.36244287
v 1.20835 -0.149487903 0.36244287
v 1.20835 -0.129681561 0.375639416
v 1.20835 -0.12970374 0.375672704
v 1.20835 -0.149510083 0.362476158
v 1.20835 -0.129681561 0.375639416
v 1.19625 -0.129681561 0.375639416
v 1.19625 -0.12970374 0.375672704
v 1.20835 -0.12970374 0.375672704
f 338 339 337
f 337 339 340
f 341 342 344
f 344 342 343
f 345 346 348
f 348 346 347
f 350 351 349
f 349 351 352
f 353 354 356
f 356 354 355
f 357 358 360
f 360 358 359
v 1.20945 -0.12970374 0.375672704
v 1.20945 -0.149510083 0.362476158
v 1.22155 -0.149510083 0.362476158
v 1.22155 -0.12970374 0.375672704
v 1.20945 -0.129681561 0.375639416
v 1.20945 -0.149487903 0.36244287
v 1.20945 -0.149510083 0.362476158
v 1.20945 -0.12970374 0.375672704
v 1.20945 -0.149487903 0.36244287
v 1.22155 -0.149487903 0.36244287
v 1.22155 -0.149510083 0.362476158
v 1.20945 -0.149510083 0.362476158
v 1.20945 -0.149487903 0.36244287
v 1.20945 -0.129681561 0.375639416
v 1.22155 -0.129681561 0.375639416
v 1.22155 -0.149487903 0.36244287
v 1.22155 -0.149487903 0.36244287
v 1.22155 -0.129681561 0.375639416
v 1.22155 -0.12970374 0.375672704
v 1.22155 -0.149510083 0.362476158
v 1.22155 -0.129681561 0.375639416
v 1.20945 -0.129681561 0.375639416
v 1.20945 -0.12970374 0.375672704
v 1.22155 -0.12970374 0.375672704
f 362 363 361
f 361 363 364
f 365 366 368
f 368 366 367
f 369 370 372
f 372 370 371
f 374 375 373
f 373 375 376
f 377 378 380
f 380 378 379
f 381 382 384
f 384 382 383
v 1.22265 -0.12970374 0.375672704
v 1.22265 -0.149510083 0.362476158
v 1.23475 -0.149510083 0.362476158
v 1.23475 -0.12970374 0.375672704
v 1.22265 -0.129681561 0.375639416
v 1.22265 -0.149487903 0.36244287
v 1.22265 -0.149510083 0.362476158
v 1.22265 -0.12970374 0.375672704
v 1.22265 -0.149487903 0.36244287
v 1.23475 -0.149487903 0.36244287
v 1.23475 -0.149510083 0.362476158
v 1.22265 -0.149510083 0.362476158
v 1.22265 -0.149487903 0.36244287
v 1.22265 -0.129681561 0.375639416
v 1.23475 -0.129681561 0.375639416
v 1.23475 -0.149487903 0.36244287
v 1.23475 -0.149487903 0.36244287
v 1.23475 -0.129681561 0.375639416
v 1.23475 -0.12970374 0.375672704
v 1.23475 -0.149510083 0.362476158
v 1.23475 -0.129681561 0.375639416
v 1.22265 -0.129681561 0.375639416
v 1.22265 -0.12970374 0.375672704
v 1.23475 -0.12970374 0.375672704
f 386 387 385
f 385 387 388
f 389 390 392
f 392 390 391
f 393 394 396
f 396 394 395
f 398 399 397
f 397 399 400
f 401 402 404
f 404 402 403
f 405 406 408
f 408 406 407
v 1.23585 -0.12970374 0.375672704
v 1.23585 -0.149510083 0.362476158
v 1.24795 -0.149510083 0.362476158
v 1.24795 -0.12970374 0.375672704
v 1.23585 -0.129681561 0.375639416
v 1.23585 -0.149487903 0.36244287
v 1.23585 -0.149510083 0.362476158
v 1.23585 -0.12970374 0.375672704
v 1.23585 -0.149487903 0.36244287
v 1.24795 -0.149487903 0.36244287
v 1.24795 -0.149510083 0.362476158
v 1.23585 -0.149510083 0.362476158
v 1.23585 -0.149487903 0.36244287
v 1.23585 -0.129681561 0.375639416
v 1.24795 -0.129681561 0.375639416
v 1.24795 -0.149487903 0.36244287
v 1.24795 -0.149487903 0.36244287
v 1.24795 -0.129681561 0.375639416
v 1.24795 -0.12970374 0.375672704
v 1.24795 -0.149510083 0.362476158
v 1.24795 -0.129681561 0.375639416
v 1.23585 -0.129681561 0.375639416
v 1.23585 -0.12970374 0.375672704
v 1.24795 -0.12970374 0.375672704
f 410 411 409
f 409 411 412
f 413 414 416
f 416 414 415
f 417 418 420
f 420 418 419
f 422 423 421
f 421 423 424
f 425 426 428
f 428 426 427
f 429 430 432
f 432 430 431
v 1.24905 -0.12970374 0.375672704
v 1.24905 -0.149510083 0.362476158
v 1.26115 -0.149510083 0.362476158
v 1.26115 -0.12970374 0.375672704
v 1.24905 -0.129681561 0.375639416
v 1.24905 -0.149487903 0.36244287
v 1.24905 -0.149510083 0.362476158
v 1.24905 -0.12970374 0.375672704
v 1.24905 -0.149487903 0.36244287
v 1.26115 -0.149487903 0.36244287
v 1.26115 -0.149510083 0.362476158
v 1.24905 -0.149510083 0.362476158
v 1.24905 -0.149487903 0.36244287
v 1.24905 -0.129681561 0.375639416
v 1.26115 -0.129681561 0.375639416
v 1.26115 -0.149487903 0.36244287
v 1.26115 -0.149487903 0.36244287
v 1.26115 -0.129681561 0.375639416
v 1.26115 -0.12970374 0.375672704
v 1.26115 -0.149510083 0.362476158
v 1.26115 -0.129681561 0.375639416
v 1.24905 -0.129681561 0.375639416
v 1.24905 -0.12970374 0.375672704
v 1.26115 -0.12970374 0.375672704
f 434 435 433
f 433 435 436
f 437 438 440
f 440 438 439
f 441 442 444
f 444 442 443
f 446 447 445
f 445 447 448
f 449 450 452
f 452 450 451
f 453 454 456
f 456 454 455
v 1.26225 -0.12970374 0.375672704
v 1.26225 -0.149510083 0.362476158
v 1.27435 -0.149510083 0.362476158
v 1.27435 -0.12970374 0.375672704
v 1.26225 -0.129681561 0.375639416
v 1.26225 -0.149487903 0.36244287
v 1.26225 -0.149510083 0.362476158
v 1.26225 -0.12970374 0.375672704
v 1.26225 -0.149487903 0.36244287
v 1.27435 -0.149487903 0.36244287
v 1.27435 -0.149510083 0.362476158
v 1.26225 -0.149510083 0.362476158
v 1.26225 -0.149487903 0.36244287
v 1.26225 -0.129681561 0.375639416
v 1.27435 -0.129681561 0.375639416
v 1.27435 -0.149487903 0.36244287
v 1.27435 -0.149487903 0.36244287
v 1.27435 -0.129681561 0.375639416
v 1.27435 -0.12970374 0.375672704
v 1.27435 -0.149510083 0.362476158
v 1.27435 -0.129681561 0.375639416
v 1.26225 -0.129681561 0.375639416
v 1.26225 -0.12970374 0.375672704
v 1.27435 -0.12970374 0.375672704
f 458 459 457
f 457 459 460
f 461 462 464
f 464 462 463
f 465 466 468
f 468 466 467
f 470 471 469
f 469 471 472
f 473 474 476
f 476 474 475
f 477 478 480
f 480 478 479
v 1.27545 -0.12970374 0.375672704
v 1.27545 -0.149510083 0.362476158
v 1.28755 -0.149510083 0.362476158
v 1.28755 -0.12970374 0.375672704
v 1.27545 -0.129681561 0.375639416
v 1.27545 -0.149487903 0.36244287
v 1.27545 -0.149510083 0.362476158
v 1.27545 -0.12970374 0.375672704
v 1.27545 -0.149487903 0.36244287
v 1.28755 -0.149487903 0.36244287
v 1.28755 -0.149510083 0.362476158
v 1.27545 -0.149510083 0.362476158
v 1.27545 -0.149487903 0.36244287
v 1.27545 -0.129681561 0.375639416
v 1.28755 -0.129681561 0.375639416
v 1.28755 -0.149487903 0.36244287
v 1.28755 -0.149487903 0.36244287
v 1.28755 -0.129681561 0.375639416
v 1.28755 -0.12970374 0.375672704
v 1.28755 -0.149510083 0.362476158
v 1.28755 -0.129681561 0.375639416
v 1.27545 -0.129681561 0.375639416
v 1.27545 -0.12970374 0.375672704
v 1.28755 -0.12970374 0.375672704
f 482 483 481
f 481 483 484
f 485 486 488
f 488 486 487
f 489 490 492
f 492 490 491
f 494 495 493
f 493 495 496
f 497 498 500
f 500 498 499
f 501 502 504
f 504 502 503
v 1.28865 -0.12970374 0.375672704
v 1.28865 -0.149510083 0.362476158
v 1.30075 -0.149510083 0.362476158
v 1.30075 -0.12970374 0.375672704
v 1.28865 -0.129681561 0.375639416
v 1.28865 -0.149487903 0.36244287
v 1.28865 -0.149510083 0.362476158
v 1.28865 -0.12970374 0.375672704
v 1.28865 -0.149487903 0.36244287
v 1.30075 -0.149487903 0.36244287
v 1.30075 -0.149510083 0.362476158
v 1.28865 -0.149510083 0.362476158
v 1.28865 -0.149487903 0.36244287
v 1.28865 -0.129681561 0.375639416
v 1.30075 -0.129681561 0.375639416
v 1.30075 -0.149487903 0.36244287
v 1.30075 -0.149487903 0.36244287
v 1.30075 -0.129681561 0.375639416
v 1.30075 -0.12970374 0.375672704
v 1.30075 -0.149510083 0.362476158
v 1.30075 -0.129681561 0.375639416
v 1.28865 -0.129681561 0.375639416
v 1.28865 -0.12970374 0.375672704
v 1.30075 -0.12970374 0.375672704
f 506 507 505
f 505 507 508
f 509 510 512
f 512 510 511
f 513 514 516
f 516 514 515
f 518 519 517
f 517 519 520
f 521 522 524
f 524 522 523
f 525 526 528
f 528 526 527
v 1.30185 -0.12970374 0.375672704
v 1.30185 -0.149510083 0.362476158
v 1.31395 -0.149510083 0.362476158
v 1.31395 -0.12970374 0.375672704
v 1.30185 -0.129681561 0.375639416
v 1.30185 -0.149487903 0.36244287
v 1.30185 -0.149510083 0.362476158
v 1.30185 -0.12970374 0.375672704
v 1.30185 -0.149487903 0.36244287
v 1.31395 -0.149487903 0.36244287
v 1.31395 -0.149510083 0.362476158
v 1.30185 -0.149510083 0.362476158
v 1.30185 -0.149487903 0.36244287
v 1.30185 -0.129681561 0.375639416
v 1.31395 -0.129681561 0.375639416
v 1.31395 -0.149487903 0.36244287
v 1.31395 -0.149487903 0.36244287
v 1.31395 -0.129681561 0.375639416
v 1.31395 -0.12970374 0.375672704
v 1.31395 -0.149510083 0.362476158
v 1.31395 -0.129681561 0.375639416
v 1.30185 -0.129681561 0.375639416
v 1.30185 -0.12970374 0.375672704
v 1.31395 -0.12970374 0.375672704
f 530 531 529
f 529 531 532
f 533 534 536
f 536 534 535
f 537 538 540
f 540 538 539
f 542 543 541
f 541 543 544
f 545 546 548
f 548 546 547
f 549 550 552
f 552 550 551
v 1.31505 -0.12970374 0.375672704
v 1.31505 -0.149510083 0.362476158
v 1.32715001 -0.149510083 0.362476158
v 1.32715001 -0.12970374 0.375672704
v 1.31505 -0.129681561 0.375639416
v 1.31505 -0.149487903 0.36244287
v 1.31505 -0.149510083 0.362476158
v 1.31505 -0.12970374 0.375672704
v 1.31505 -0.149487903 0.36244287
v 1.32715001 -0.149487903 0.36244287
v 1.32715001 -0.149510083 0.362476158
v 1.31505 -0.149510083 0.362476158
v 1.31505 -0.149487903 0.36244287
v 1.31505 -0.129681561 0.375639416
v 1.32715001 -0.129681561 0.375639416
v 1.32715001 -0.149487903 0.36244287
v 1.32715001 -0.149487903 0.36244287
v 1.32715001 -0.129681561 0.375639416
v 1.32715001 -0.12970374 0.375672704
v 1.32715001 -0.149510083 0.362476158
v 1.32715001 -0.129681561 0.375639416
v 1.31505 -0.129681561 0.375639416
v 1.31505 -0.12970374 0.375672704
v 1.32715001 -0.12970374 0.375672704
f 554 555 553
f 553 555 556
f 557 558 560
f 560 558 559
f 561 562 564
f 564 562 563
f 566 567 565
f 565 567 568
f 569 570 572
f 572 570 571
f 573 574 576
f 576 574 575
v 1.16985 -0.150508721 0.361810786
v 1.16985 -0.170315064 0.34861424
v 1.18195 -0.170315064 0.34861424
v 1.18195 -0.150508721 0.361810786
v 1.16985 -0.150486542 0.361777498
v 1.16985 -0.170292885 0.348580952
v 1.16985 -0.170315064 0.34861424
v 1.16985 -0.150508721 0.361810786
v 1.16985 -0.170292885 0.348580952
v 1.18195 -0.170292885 0.348580952
v 1.18195 -0.170315064 0.34861424
v 1.16985 -0.170315064 0.34861424
v 1.16985 -0.170292885 0.348580952
v 1.16985 -0.150486542 0.361777498
v 1.18195 -0.150486542 0.361777498
v 1.18195 -0.170292885 0.348580952
v 1.18195 -0.170292885 0.348580952
v 1.18195 -0.150486542 0.361777498
v 1.18195 -0.150508721 0.361810786
v 1.18195 -0.170315064 0.34861424
v 1.18195 -0.150486542 0.361777498
v 1.16985 -0.150486542 0.361777498
v 1.16985 -0.150508721 0.361810786
v 1.18195 -0.150508721 0.361810786
f 578 579 577
f 577 579 580
f 581 582 584
f 584 582 583
f 585 586 588
f 588 586 587
f 590 591 589
f 589 591 592
f 593 594 596
f 596 594 595
f 597 598 600
f 600 598 599
v 1.18305 -0.150486542 0.361777498
v 1.18305 -0.170292885 0.348580952
v 1.18305 -0.170315064 0.34861424
v 1.18305 -0.150508721 0.361810786
v 1.18305 -0.170292885 0.348580952
v 1.19515 -0.170292885 0.348580952
v 1.19515 -0.170315064 0.34861424
v 1.18305 -0.170315064 0.34861424
v 1.18305 -0.170292885 0.348580952
v 1.18305 -0.150486542 0.361777498
v 1.19515 -0.150486542 0.361777498
v 1.19515 -0.170292885 0.348580952
v 1.18305 -0.150508721 0.361810786
v 1.18305 -0.170315064 0.34861424
v 1.19515 -0.170315064 0.34861424
v 1.19515 -0.150508721 0.361810786
v 1.19515 -0.170292885 0.348580952
v 1.19515 -0.150486542 0.361777498
v 1.19515 -0.150508721 0.361810786
v 1.19515 -0.170315064 0.34861424
v 1.19515 -0.150486542 0.361777498
v 1.18305 -0.150486542 0.361777498
v 1.18305 -0.150508721 0.361810786
v 1.19515 -0.150508721 0.361810786
f 601 602 604
f 604 602 603
f 605 606 608
f 608 606 607
f 610 611 609
f 609 611 612
f 614 615 613
f 613 615 616
f 617 618 620
f 620 618 619
f 621 622 624
f 624 622 623
v 1.19625 -0.150486542 0.361777498
v 1.19625 -0.170292885 0.348580952
v 1.19625 -0.170315064 0.34861424
v 1.19625 -0.150508721 0.361810786
v 1.19625 -0.170292885 0.348580952
v 1.20835 -0.170292885 0.348580952
v 1.20835 -0.170315064 0.34861424
v 1.19625 -0.170315064 0.34861424
v 1.19625 -0.170292885 0.348580952
v 1.19625 -0.150486542 0.361777498
v 1.20835 -0.150486542 0.361777498
v 1.20835 -0.170292885 0.348580952
v 1.19625 -0.150508721 0.361810786
v 1.19625 -0.170315064 0.34861424
v 1.20835 -0.170315064 0.34861424
v 1.20835 -0.150508721 0.361810786
v 1.20835 -0.170292885 0.348580952
v 1.20835 -0.150486542 0.361777498
v 1.20835 -0.150508721 0.361810786
v 1.20835 -0.170315064 0.34861424
v 1.20835 -0.150486542 0.361777498
v 1.19625 -0.150486542 0.361777498
v 1.19625 -0.150508721 0.361810786
v 1.20835 -0.150508721 0.361810786
f 625 626 628
f 628 626 627
f 629 630 632
f 632 630 631
f 634 635 633
f 633 635 636
f 638 639 637
f 637 639 640
f 641 642 644
f 644 642 643
f 645 646 648
f 648 646 647
v 1.20945 -0.150486542 0.361777498
v 1.20945 -0.170292885 0.348580952
v 1.20945 -0.170315064 0.34861424
v 1.20945 -0.150508721 0.361810786
v 1.20945 -0.170292885 0.348580952
v 1.22155 -0.170292885 0.348580952
v 1.22155 -0.170315064 0.34861424
v 1.20945 -0.170315064 0.34861424
v 1.20945 -0.170292885 0.348580952
v 1.20945 -0.150486542 0.361777498
v 1.22155 -0.150486542 0.361777498
v 1.22155 -0.170292885 0.348580952
v 1.20945 -0.150508721 0.361810786
v 1.20945 -0.170315064 0.34861424
v 1.22155 -0.170315064 0.34861424
v 1.22155 -0.150508721 0.361810786
v 1.22155 -0.170292885 0.348580952
v 1.22155 -0.150486542 0.361777498
v 1.22155 -0.150508721 0.361810786
v 1.22155 -0.170315064 0.34861424
v 1.22155 -0.150486542 0.361777498
v 1.20945 -0.150486542 0.361777498
v 1.20945 -0.150508721 0.361810786
v 1.22155 -0.150508721 0.361810786
f 649 650 652
f 652 650 651
f 653 654 656
f 656 654 655
f 658 659 657
f 657 659 660
f 662 663 661
f 661 663 664
f 665 666 668
f 668 666 667
f 669 670 672
f 672 670 671
v 1.22265 -0.150486542 0.361777498
v 1.22265 -0.170292885 0.348580952
v 1.22265 -0.170315064 0.34861424
v 1.22265 -0.150508721 0.361810786
v 1.22265 -0.170292885 0.348580952
v 1.23475 -0.170292885 0.348580952
v 1.23475 -0.170315064 0.34861424
v 1.22265 -0.170315064 0.34861424
v 1.22265 -0.170292885 0.348580952
v 1.22265 -0.150486542 0.361777498
v 1.23475 -0.150486542 0.361777498
v 1.23475 -0.170292885 0.348580952
v 1.22265 -0.150508721 0.361810786
v 1.22265 -0.170315064 0.34861424
v 1.23475 -0.170315064 0.34861424
v 1.23475 -0.150508721 0.361810786
v 1.23475 -0.170292885 0.348580952
v 1.23475 -0.150486542 0.361777498
v 1.23475 -0.150508721 0.361810786
v 1.23475 -0.170315064 0.34861424
v 1.23475 -0.150486542 0.361777498
v 1.22265 -0.150486542 0.361777498
v 1.22265 -0.150508721 0.361810786
v 1.23475 -0.150508721 0.361810786
f 673 674 676
f 676 674 675
f 677 678 680
f 680 678 679
f 682 683 681
f 681 683 684
f 686 687 685
f 685 687 688
f 689 690 692
f 692 690 691
f 693 694 696
f 696 694 695
v 1.23585 -0.150486542 0.361777498
v 1.23585 -0.170292885 0.348580952
v 1.23585 -0.170315064 0.34861424
v 1.23585 -0.150508721 0.361810786
v 1.23585 -0.170292885 0.348580952
v 1.24795 -0.170292885 0.348580952
v 1.24795 -0.170315064 0.34861424
v 1.23585 -0.170315064 0.34861424
v 1.23585 -0.170292885 0.348580952
v 1.23585 -0.150486542 0.361777498
v 1.24795 -0.150486542 0.361777498
v 1.24795 -0.170292885 0.348580952
v 1.23585 -0.150508721 0.361810786
v 1.23585 -0.170315064 0.34861424
v 1.24795 -0.170315064 0.34861424
v 1.24795 -0.150508721 0.361810786
v 1.24795 -0.170292885 0.348580952
v 1.24795 -0.150486542 0.361777498
v 1.24795 -0.150508721 0.361810786
v 1.24795 -0.170315064 0.34861424
v 1.24795 -0.150486542 0.361777498
v 1.23585 -0.150486542 0.361777498
v 1.23585 -0.150508721 0.361810786
v 1.24795 -0.150508721 0.361810786
f 697 698 700
f 700 698 699
f 701 702 704
f 704 702 703
f 706 707 705
f 705 707 708
f 710 711 709
f 709 711 712
f 713 714 716
f 716 714 715
f 717 718 720
f 720 718 719
v 1.24905 -0.150486542 0.361777498
v 1.24905 -0.170292885 0.348580952
v 1.24905 -0.170315064 0.34861424
v 1.24905 -0.150508721 0.361810786
v 1.24905 -0.170292885 0.348580952
v 1.26115 -0.170292885 0.348580952
v 1.26115 -0.170315064 0.34861424
v 1.24905 -0.170315064 0.34861424
v 1.24905 -0.170292885 0.348580952
v 1.24905 -0.150486542 0.361777498
v 1.26115 -0.150486542 0.361777498
v 1.26115 -0.170292885 0.348580952
v 1.24905 -0.150508721 0.361810786
v 1.24905 -0.170315064 0.34861424
v 1.26115 -0.170315064 0.34861424
v 1.26115 -0.150508721 0.361810786
v 1.26115 -0.170292885 0.348580952
v 1.26115 -0.150486542 0.361777498
v 1.26115 -0.150508721 0.361810786
v 1.26115 -0.170315064 0.34861424
v 1.26115 -0.150486542 0.361777498
v 1.24905 -0.150486542 0.361777498
v 1.24905 -0.150508721 0.361810786
v 1.26115 -0.150508721 0.361810786
f 721 722 724
f 724 722 723
f 725 726 728
f 728 726 727
f 730 731 729
f 729 731 732
f 734 735 733
f 733 735 736
f 737 738 740
f 740 738 739
f 741 742 744
f 744 742 743
v 1.26225 -0.150486542 0.361777498
v 1.26225 -0.170292885 0.348580952
v 1.26225 -0.170315064 0.34861424
v 1.26225 -0.150508721 0.361810786
v 1.26225 -0.170292885 0.348580952
v 1.27435 -0.170292885 0.348580952
v 1.27435 -0.170315064 0.34861424
v 1.26225 -0.170315064 0.34861424
v 1.26225 -0.170292885 0.348580952
v 1.26225 -0.150486542 0.361777498
v 1.27435 -0.150486542 0.361777498
v 1.27435 -0.170292885 0.348580952
v 1.26225 -0.150508721 0.361810786
v 1.26225 -0.170315064 0.34861424
v 1.27435 -0.170315064 0.34861424
v 1.27435 -0.150508721 0.361810786
v 1.27435 -0.170292885 0.348580952
v 1.27435 -0.150486542 0.361777498
v 1.27435 -0.150508721 0.361810786
v 1.27435 -0.170315064 0.34861424
v 1.27435 -0.150486542 0.361777498
v 1.26225 -0.150486542 0.361777498
v 1.26225 -0.150508721 0.361810786
v 1.27435 -0.150508721 0.361810786
f 745 746 748
f 748 746 747
f 749 750 752
f 752 750 751
f 754 755 753
f 753 755 756
f 758 759 757
f 757 759 760
f 761 762 764
f 764 762 763
f 765 766 768
f 768 766 767
v 1.27545 -0.150486542 0.361777498
v 1.27545 -0.170292885 0.348580952
v 1.27545 -0.170315064 0.34861424
v 1.27545 -0.150508721 0.361810786
v 1.27545 -0.170292885 0.348580952
v 1.28755 -0.170292885 0.348580952
v 1.28755 -0.170315064 0.34861424
v 1.27545 -0.170315064 0.34861424
v 1.27545 -0.170292885 0.348580952
v 1.27545 -0.150486542 0.361777498
v 1.28755 -0.150486542 0.361777498
v 1.28755 -0.170292885 0.348580952
v 1.27545 -0.150508721 0.361810786
v 1.27545 -0.170315064 0.34861424
v 1.28755 -0.170315064 0.34861424
v 1.28755 -0.150508721 0.361810786
v 1.28755 -0.170292885 0.348580952
v 1.28755 -0.150486542 0.361777498
v 1.28755 -0.150508721 0.361810786
v 1.28755 -0.170315064 0.34861424
v 1.28755 -0.150486542 0.361777498
v 1.27545 -0.150486542 0.361777498
v 1.27545 -0.150508721 0.361810786
v 1.28755 -0.150508721 0.361810786
f 769 770 772
f 772 770 771
f 773 774 776
f 776 774 775
f 778 779 777
f 777 779 780
f 782 783 781
f 781 783 784
f 785 786 788
f 788 786 787
f 789 790 792
f 792 790 791
v 1.28865 -0.150486542 0.361777498
v 1.28865 -0.170292885 0.348580952
v 1.28865 -0.170315064 0.34861424
v 1.28865 -0.150508721 0.361810786
v 1.28865 -0.170292885 0.348580952
v 1.30075 -0.170292885 0.348580952
v 1.30075 -0.170315064 0.34861424
v 1.28865 -0.170315064 0.34861424
v 1.28865 -0.170292885 0.348580952
v 1.28865 -0.150486542 0.361777498
v 1.30075 -0.150486542 0.361777498
v 1.30075 -0.170292885 0.348580952
v 1.28865 -0.150508721 0.361810786
v 1.28865 -0.170315064 0.34861424
v 1.30075 -0.170315064 0.34861424
v 1.30075 -0.150508721 0.361810786
v 1.30075 -0.170292885 0.348580952
v 1.30075 -0.150486542 0.361777498
v 1.30075 -0.150508721 0.361810786
v 1.30075 -0.170315064 0.34861424
v 1.30075 -0.150486542 0.361777498
v 1.28865 -0.150486542 0.361777498
v 1.28865 -0.150508721 0.361810786
v 1.30075 -0.150508721 0.361810786
f 793 794 796
f 796 794 795
f 797 798 800
f 800 798 799
f 802 803 801
f 801 803 804
f 806 807 805
f 805 807 808
f 809 810 812
f 812 810 811
f 813 814 816
f 816 814 815
v 1.30185 -0.150486542 0.361777498
v 1.30185 -0.170292885 0.348580952
v 1.30185 -0.170315064 0.34861424
v 1.30185 -0.150508721 0.361810786
v 1.30185 -0.170292885 0.348580952
v 1.31395 -0.170292885 0.348580952
v 1.31395 -0.170315064 0.34861424
v 1.30185 -0.170315064 0.34861424
v 1.30185 -0.170292885 0.348580952
v 1.30185 -0.150486542 0.361777498
v 1.31395 -0.150486542 0.361777498
v 1.31395 -0.170292885 0.348580952
v 1.30185 -0.150508721 0.361810786
v 1.30185 -0.170315064 0.34861424
v 1.31395 -0.170315064 0.34861424
v 1.31395 -0.150508721 0.361810786
v 1.31395 -0.170292885 0.348580952
v 1.31395 -0.150486542 0.361777498
v 1.31395 -0.150508721 0.361810786
v 1.31395 -0.170315064 0.34861424
v 1.31395 -0.150486542 0.361777498
v 1.30185 -0.150486542 0.361777498
v 1.30185 -0.150508721 0.361810786
v 1.31395 -0.150508721 0.361810786
f 817 818 820
f 820 818 819
f 821 822 824
f 824 822 823
f 826 827 825
f 825 827 828
f 830 831 829
f 829 831 832
f 833 834 836
f 836 834 835
f 837 838 840
f 840 838 839
v 1.31505 -0.150486542 0.361777498
v 1.31505 -0.170292885 0.348580952
v 1.31505 -0.170315064 0.34861424
v 1.31505 -0.150508721 0.361810786
v 1.31505 -0.170292885 0.348580952
v 1.32715001 -0.170292885 0.348580952
v 1.32715001 -0.170315064 0.34861424
v 1.31505 -0.170315064 0.34861424
v 1.31505 -0.170292885 0.348580952
v 1.31505 -0.150486542 0.361777498
v 1.32715001 -0.150486542 0.361777498
v 1.32715001 -0.170292885 0.348580952
v 1.31505 -0.150508721 0.361810786
v 1.31505 -0.170315064 0.34861424
v 1.32715001 -0.170315064 0.34861424
v 1.32715001 -0.150508721 0.361810786
v 1.32715001 -0.170292885 0.348580952
v 1.32715001 -0.150486542 0.361777498
v 1.32715001 -0.150508721 0.361810786
v 1.32715001 -0.170315064 0.34861424
v 1.32715001 -0.150486542 0.361777498
v 1.31505 -0.150486542 0.361777498
v 1.31505 -0.150508721 0.361810786
v 1.32715001 -0.150508721 0.361810786
f 841 842 844
f 844 842 843
f 845 846 848
f 848 846 847
f 850 851 849
f 849 851 852
f 854 855 853
f 853 855 856
f 857 858 860
f 860 858 859
f 861 862 864
f 864 862 863
