v 0.357999992 -0.0139999998 0.165
v 0.357758789 -0.0126319194 0.165
v 0.357064171 -0.0114288497 0.165
v 0.355999985 -0.0105358982 0.165
v 0.354694595 -0.0100607693 0.165
v 0.353305397 -0.0100607693 0.165
v 0.352000008 -0.0105358982 0.165
v 0.350935822 -0.0114288497 0.165
v 0.350241241 -0.0126319194 0.165
v 0.35 -0.0139999998 0.165
v 0.350241241 -0.0153680801 0.165
v 0.350935822 -0.016571151 0.165
v 0.352000008 -0.0174641013 0.165
v 0.353305397 -0.0179392314 0.165
v 0.354694595 -0.0179392314 0.165
v 0.355999985 -0.0174641013 0.165
v 0.357064171 -0.016571151 0.165
v 0.357758789 -0.0153680801 0.165
v 0.357999992 -0.0139999998 0.177999992
v 0.357758789 -0.0153680801 0.177999992
v 0.357064171 -0.016571151 0.177999992
v 0.355999985 -0.0174641013 0.177999992
v 0.354694595 -0.0179392314 0.177999992
v 0.353305397 -0.0179392314 0.177999992
v 0.352000008 -0.0174641013 0.177999992
v 0.350935822 -0.016571151 0.177999992
v 0.350241241 -0.0153680801 0.177999992
v 0.35 -0.0139999998 0.177999992
v 0.350241241 -0.0126319194 0.177999992
v 0.350935822 -0.0114288497 0.177999992
v 0.352000008 -0.0105358982 0.177999992
v 0.353305397 -0.0100607693 0.177999992
v 0.354694595 -0.0100607693 0.177999992
v 0.355999985 -0.0105358982 0.177999992
v 0.357064171 -0.0114288497 0.177999992
v 0.357758789 -0.0126319194 0.177999992
v 0.35 -0.0139999998 0.165
v 0.35 -0.0139999998 0.177999992
v 0.357999992 -0.0139999998 0.177999992
v 0.357758789 -0.0126319194 0.177999992
v 0.357064171 -0.0114288497 0.177999992
v 0.355999985 -0.0105358982 0.177999992
v 0.354694595 -0.0100607693 0.177999992
v 0.353305397 -0.0100607693 0.177999992
v 0.352000008 -0.0105358982 0.177999992
v 0.350935822 -0.0114288497 0.177999992
v 0.350241241 -0.0126319194 0.177999992
v 0.35 -0.0139999998 0.177999992
v 0.350241241 -0.0153680801 0.177999992
v 0.350935822 -0.016571151 0.177999992
v 0.352000008 -0.0174641013 0.177999992
v 0.353305397 -0.0179392314 0.177999992
v 0.354694595 -0.0179392314 0.177999992
v 0.355999985 -0.0174641013 0.177999992
v 0.357064171 -0.016571151 0.177999992
v 0.357758789 -0.0153680801 0.177999992
v 0.357999992 -0.0139999998 0.165
v 0.357758789 -0.0153680801 0.165
v 0.357064171 -0.016571151 0.165
v 0.355999985 -0.0174641013 0.165
v 0.354694595 -0.0179392314 0.165
v 0.353305397 -0.0179392314 0.165
v 0.352000008 -0.0174641013 0.165
v 0.350935822 -0.016571151 0.165
v 0.350241241 -0.0153680801 0.165
v 0.35 -0.0139999998 0.165
v 0.350241241 -0.0126319194 0.165
v 0.350935822 -0.0114288497 0.165
v 0.352000008 -0.0105358982 0.165
v 0.353305397 -0.0100607693 0.165
v 0.354694595 -0.0100607693 0.165
v 0.355999985 -0.0105358982 0.165
v 0.357064171 -0.0114288497 0.165
v 0.357758789 -0.0126319194 0.165
f 2 19 1
f 1 19 20
f 1 20 18
f 18 20 21
f 18 21 17
f 17 21 22
f 17 22 16
f 16 22 23
f 16 23 15
f 15 23 24
f 15 24 14
f 14 24 25
f 14 25 13
f 13 25 26
f 13 26 12
f 12 26 27
f 12 27 11
f 11 27 10
f 10 27 38
f 37 28 9
f 9 28 29
f 9 29 30
f 19 2 36
f 36 2 3
f 36 3 35
f 35 3 4
f 35 4 34
f 34 4 5
f 34 5 33
f 33 5 6
f 33 6 32
f 32 6 7
f 32 7 31
f 31 7 8
f 31 8 30
f 30 8 9
f 40 47 39
f 39 47 48
f 39 48 56
f 56 48 49
f 56 49 55
f 55 49 50
f 55 50 54
f 54 50 51
f 54 51 53
f 53 51 52
f 47 40 46
f 46 40 41
f 46 41 45
f 45 41 42
f 45 42 44
f 44 42 43
f 58 65 57
f 57 65 66
f 57 66 74
f 74 66 67
f 74 67 73
f 73 67 68
f 73 68 72
f 72 68 69
f 72 69 71
f 71 69 70
f 65 58 64
f 64 58 59
f 64 59 63
f 63 59 60
f 63 60 62
f 62 60 61
v 0.357999992 -0.0139999998 0.197000008
v 0.357758789 -0.0126319194 0.197000008
v 0.357064171 -0.0114288497 0.197000008
v 0.355999985 -0.0105358982 0.197000008
v 0.354694595 -0.0100607693 0.197000008
v 0.353305397 -0.0100607693 0.197000008
v 0.352000008 -0.0105358982 0.197000008
v 0.350935822 -0.0114288497 0.197000008
v 0.350241241 -0.0126319194 0.197000008
v 0.35 -0.0139999998 0.197000008
v 0.350241241 -0.0153680801 0.197000008
v 0.350935822 -0.016571151 0.197000008
v 0.352000008 -0.0174641013 0.197000008
v 0.353305397 -0.0179392314 0.197000008
v 0.354694595 -0.0179392314 0.197000008
v 0.355999985 -0.0174641013 0.197000008
v 0.357064171 -0.016571151 0.197000008
v 0.357758789 -0.0153680801 0.197000008
v 0.357999992 -0.0139999998 0.21
v 0.357758789 -0.0153680801 0.21
v 0.357064171 -0.016571151 0.21
v 0.355999985 -0.0174641013 0.21
v 0.354694595 -0.0179392314 0.21
v 0.353305397 -0.0179392314 0.21
v 0.352000008 -0.0174641013 0.21
v 0.350935822 -0.016571151 0.21
v 0.350241241 -0.0153680801 0.21
v 0.35 -0.0139999998 0.21
v 0.350241241 -0.0126319194 0.21
v 0.350935822 -0.0114288497 0.21
v 0.352000008 -0.0105358982 0.21
v 0.353305397 -0.0100607693 0.21
v 0.354694595 -0.0100607693 0.21
v 0.355999985 -0.0105358982 0.21
v 0.357064171 -0.0114288497 0.21
v 0.357758789 -0.0126319194 0.21
v 0.35 -0.0139999998 0.197000008
v 0.35 -0.0139999998 0.21
v 0.357999992 -0.0139999998 0.21
v 0.357758789 -0.0126319194 0.21
v 0.357064171 -0.0114288497 0.21
v 0.355999985 -0.0105358982 0.21
v 0.354694595 -0.0100607693 0.21
v 0.353305397 -0.0100607693 0.21
v 0.352000008 -0.0105358982 0.21
v 0.350935822 -0.0114288497 0.21
v 0.350241241 -0.0126319194 0.21
v 0.35 -0.0139999998 0.21
v 0.350241241 -0.0153680801 0.21
v 0.350935822 -0.016571151 0.21
v 0.352000008 -0.0174641013 0.21
v 0.353305397 -0.0179392314 0.21
v 0.354694595 -0.0179392314 0.21
v 0.355999985 -0.0174641013 0.21
v 0.357064171 -0.016571151 0.21
v 0.357758789 -0.0153680801 0.21
v 0.357999992 -0.0139999998 0.197000008
v 0.357758789 -0.0153680801 0.197000008
v 0.357064171 -0.016571151 0.197000008
v 0.355999985 -0.0174641013 0.197000008
v 0.354694595 -0.0179392314 0.197000008
v 0.353305397 -0.0179392314 0.197000008
v 0.352000008 -0.0174641013 0.197000008
v 0.350935822 -0.016571151 0.197000008
v 0.350241241 -0.0153680801 0.197000008
v 0.35 -0.0139999998 0.197000008
v 0.350241241 -0.0126319194 0.197000008
v 0.350935822 -0.0114288497 0.197000008
v 0.352000008 -0.0105358982 0.197000008
v 0.353305397 -0.0100607693 0.197000008
v 0.354694595 -0.0100607693 0.197000008
v 0.355999985 -0.0105358982 0.197000008
v 0.357064171 -0.0114288497 0.197000008
v 0.357758789 -0.0126319194 0.197000008
f 76 93 75
f 75 93 94
f 75 94 92
f 92 94 95
f 92 95 91
f 91 95 96
f 91 96 90
f 90 96 97
f 90 97 89
f 89 97 98
f 89 98 88
f 88 98 99
f 88 99 87
f 87 99 100
f 87 100 86
f 86 100 101
f 86 101 85
f 85 101 84
f 84 101 112
f 111 102 83
f 83 102 103
f 83 103 104
f 93 76 110
f 110 76 77
f 110 77 109
f 109 77 78
f 109 78 108
f 108 78 79
f 108 79 107
f 107 79 80
f 107 80 106
f 106 80 81
f 106 81 105
f 105 81 82
f 105 82 104
f 104 82 83
f 114 121 113
f 113 121 122
f 113 122 130
f 130 122 123
f 130 123 129
f 129 123 124
f 129 124 128
f 128 124 125
f 128 125 127
f 127 125 126
f 121 114 120
f 120 114 115
f 120 115 119
f 119 115 116
f 119 116 118
f 118 116 117
f 132 139 131
f 131 139 140
f 131 140 148
f 148 140 141
f 148 141 147
f 147 141 142
f 147 142 146
f 146 142 143
f 146 143 145
f 145 143 144
f 139 132 138
f 138 132 133
f 138 133 137
f 137 133 134
f 137 134 136
f 136 134 135
v 0.357999992 -0.0139999998 0.357000008
v 0.357758789 -0.0126319194 0.357000008
v 0.357064171 -0.0114288497 0.357000008
v 0.355999985 -0.0105358982 0.357000008
v 0.354694595 -0.0100607693 0.357000008
v 0.353305397 -0.0100607693 0.357000008
v 0.352000008 -0.0105358982 0.357000008
v 0.350935822 -0.0114288497 0.357000008
v 0.350241241 -0.0126319194 0.357000008
v 0.35 -0.0139999998 0.357000008
v 0.350241241 -0.0153680801 0.357000008
v 0.350935822 -0.016571151 0.357000008
v 0.352000008 -0.0174641013 0.357000008
v 0.353305397 -0.0179392314 0.357000008
v 0.354694595 -0.0179392314 0.357000008
v 0.355999985 -0.0174641013 0.357000008
v 0.357064171 -0.016571151 0.357000008
v 0.357758789 -0.0153680801 0.357000008
v 0.357999992 -0.0139999998 0.37
v 0.357758789 -0.0153680801 0.37
v 0.357064171 -0.016571151 0.37
v 0.355999985 -0.0174641013 0.37
v 0.354694595 -0.0179392314 0.37
v 0.353305397 -0.0179392314 0.37
v 0.352000008 -0.0174641013 0.37
v 0.350935822 -0.016571151 0.37
v 0.350241241 -0.0153680801 0.37
v 0.35 -0.0139999998 0.37
v 0.350241241 -0.0126319194 0.37
v 0.350935822 -0.0114288497 0.37
v 0.352000008 -0.0105358982 0.37
v 0.353305397 -0.0100607693 0.37
v 0.354694595 -0.0100607693 0.37
v 0.355999985 -0.0105358982 0.37
v 0.357064171 -0.0114288497 0.37
v 0.357758789 -0.0126319194 0.37
v 0.35 -0.0139999998 0.357000008
v 0.35 -0.0139999998 0.37
v 0.357999992 -0.0139999998 0.357000008
v 0.357758789 -0.0153680801 0.357000008
v 0.357064171 -0.016571151 0.357000008
v 0.355999985 -0.0174641013 0.357000008
v 0.354694595 -0.0179392314 0.357000008
v 0.353305397 -0.0179392314 0.357000008
v 0.352000008 -0.0174641013 0.357000008
v 0.350935822 -0.016571151 0.357000008
v 0.350241241 -0.0153680801 0.357000008
v 0.35 -0.0139999998 0.357000008
v 0.350241241 -0.0126319194 0.357000008
v 0.350935822 -0.0114288497 0.357000008
v 0.352000008 -0.0105358982 0.357000008
v 0.353305397 -0.0100607693 0.357000008
v 0.354694595 -0.0100607693 0.357000008
v 0.355999985 -0.0105358982 0.357000008
v 0.357064171 -0.0114288497 0.357000008
v 0.357758789 -0.0126319194 0.357000008
v 0.357999992 -0.0139999998 0.37
v 0.357758789 -0.0126319194 0.37
v 0.357064171 -0.0114288497 0.37
v 0.355999985 -0.0105358982 0.37
v 0.354694595 -0.0100607693 0.37
v 0.353305397 -0.0100607693 0.37
v 0.352000008 -0.0105358982 0.37
v 0.350935822 -0.0114288497 0.37
v 0.350241241 -0.0126319194 0.37
v 0.35 -0.0139999998 0.37
v 0.350241241 -0.0153680801 0.37
v 0.350935822 -0.016571151 0.37
v 0.352000008 -0.0174641013 0.37
v 0.353305397 -0.0179392314 0.37
v 0.354694595 -0.0179392314 0.37
v 0.355999985 -0.0174641013 0.37
v 0.357064171 -0.016571151 0.37
v 0.357758789 -0.0153680801 0.37
f 150 167 149
f 149 167 168
f 149 168 166
f 166 168 169
f 166 169 165
f 165 169 170
f 165 170 164
f 164 170 171
f 164 171 163
f 163 171 172
f 163 172 162
f 162 172 173
f 162 173 161
f 161 173 174
f 161 174 160
f 160 174 175
f 160 175 159
f 159 175 158
f 158 175 186
f 185 176 157
f 157 176 177
f 157 177 178
f 167 150 184
f 184 150 151
f 184 151 183
f 183 151 152
f 183 152 182
f 182 152 153
f 182 153 181
f 181 153 154
f 181 154 180
f 180 154 155
f 180 155 179
f 179 155 156
f 179 156 178
f 178 156 157
f 188 195 187
f 187 195 196
f 187 196 204
f 204 196 197
f 204 197 203
f 203 197 198
f 203 198 202
f 202 198 199
f 202 199 201
f 201 199 200
f 195 188 194
f 194 188 189
f 194 189 193
f 193 189 190
f 193 190 192
f 192 190 191
f 206 213 205
f 205 213 214
f 205 214 222
f 222 214 215
f 222 215 221
f 221 215 216
f 221 216 220
f 220 216 217
f 220 217 219
f 219 217 218
f 213 206 212
f 212 206 207
f 212 207 211
f 211 207 208
f 211 208 210
f 210 208 209
v 0.357999992 -0.0139999998 0.389000015
v 0.357758789 -0.0126319194 0.389000015
v 0.357064171 -0.0114288497 0.389000015
v 0.355999985 -0.0105358982 0.389000015
v 0.354694595 -0.0100607693 0.389000015
v 0.353305397 -0.0100607693 0.389000015
v 0.352000008 -0.0105358982 0.389000015
v 0.350935822 -0.0114288497 0.389000015
v 0.350241241 -0.0126319194 0.389000015
v 0.35 -0.0139999998 0.389000015
v 0.350241241 -0.0153680801 0.389000015
v 0.350935822 -0.016571151 0.389000015
v 0.352000008 -0.0174641013 0.389000015
v 0.353305397 -0.0179392314 0.389000015
v 0.354694595 -0.0179392314 0.389000015
v 0.355999985 -0.0174641013 0.389000015
v 0.357064171 -0.016571151 0.389000015
v 0.357758789 -0.0153680801 0.389000015
v 0.357999992 -0.0139999998 0.402000008
v 0.357758789 -0.0153680801 0.402000008
v 0.357064171 -0.016571151 0.402000008
v 0.355999985 -0.0174641013 0.402000008
v 0.354694595 -0.0179392314 0.402000008
v 0.353305397 -0.0179392314 0.402000008
v 0.352000008 -0.0174641013 0.402000008
v 0.350935822 -0.016571151 0.402000008
v 0.350241241 -0.0153680801 0.402000008
v 0.35 -0.0139999998 0.402000008
v 0.350241241 -0.0126319194 0.402000008
v 0.350935822 -0.0114288497 0.402000008
v 0.352000008 -0.0105358982 0.402000008
v 0.353305397 -0.0100607693 0.402000008
v 0.354694595 -0.0100607693 0.402000008
v 0.355999985 -0.0105358982 0.402000008
v 0.357064171 -0.0114288497 0.402000008
v 0.357758789 -0.0126319194 0.402000008
v 0.35 -0.0139999998 0.389000015
v 0.35 -0.0139999998 0.402000008
v 0.357999992 -0.0139999998 0.402000008
v 0.357758789 -0.0126319194 0.402000008
v 0.357064171 -0.0114288497 0.402000008
v 0.355999985 -0.0105358982 0.402000008
v 0.354694595 -0.0100607693 0.402000008
v 0.353305397 -0.0100607693 0.402000008
v 0.352000008 -0.0105358982 0.402000008
v 0.350935822 -0.0114288497 0.402000008
v 0.350241241 -0.0126319194 0.402000008
v 0.35 -0.0139999998 0.402000008
v 0.350241241 -0.0153680801 0.402000008
v 0.350935822 -0.016571151 0.402000008
v 0.352000008 -0.0174641013 0.402000008
v 0.353305397 -0.0179392314 0.402000008
v 0.354694595 -0.0179392314 0.402000008
v 0.355999985 -0.0174641013 0.402000008
v 0.357064171 -0.016571151 0.402000008
v 0.357758789 -0.0153680801 0.402000008
v 0.357999992 -0.0139999998 0.389000015
v 0.357758789 -0.0153680801 0.389000015
v 0.357064171 -0.016571151 0.389000015
v 0.355999985 -0.0174641013 0.389000015
v 0.354694595 -0.0179392314 0.389000015
v 0.353305397 -0.0179392314 0.389000015
v 0.352000008 -0.0174641013 0.389000015
v 0.350935822 -0.016571151 0.389000015
v 0.350241241 -0.0153680801 0.389000015
v 0.35 -0.0139999998 0.389000015
v 0.350241241 -0.0126319194 0.389000015
v 0.350935822 -0.0114288497 0.389000015
v 0.352000008 -0.0105358982 0.389000015
v 0.353305397 -0.0100607693 0.389000015
v 0.354694595 -0.0100607693 0.389000015
v 0.355999985 -0.0105358982 0.389000015
v 0.357064171 -0.0114288497 0.389000015
v 0.357758789 -0.0126319194 0.389000015
f 224 241 223
f 223 241 242
f 223 242 240
f 240 242 243
f 240 243 239
f 239 243 244
f 239 244 238
f 238 244 245
f 238 245 237
f 237 245 246
f 237 246 236
f 236 246 247
f 236 247 235
f 235 247 248
f 235 248 234
f 234 248 249
f 234 249 233
f 233 249 232
f 232 249 260
f 259 250 231
f 231 250 251
f 231 251 252
f 241 224 258
f 258 224 225
f 258 225 257
f 257 225 226
f 257 226 256
f 256 226 227
f 256 227 255
f 255 227 228
f 255 228 254
f 254 228 229
f 254 229 253
f 253 229 230
f 253 230 252
f 252 230 231
f 262 269 261
f 261 269 270
f 261 270 278
f 278 270 271
f 278 271 277
f 277 271 272
f 277 272 276
f 276 272 273
f 276 273 275
f 275 273 274
f 269 262 268
f 268 262 263
f 268 263 267
f 267 263 264
f 267 264 266
f 266 264 265
f 280 287 279
f 279 287 288
f 279 288 296
f 296 288 289
f 296 289 295
f 295 289 290
f 295 290 294
f 294 290 291
f 294 291 293
f 293 291 292
f 287 280 286
f 286 280 281
f 286 281 285
f 285 281 282
f 285 282 284
f 284 282 283
v 0.321800003 0.00899999976 0.148000002
v 0.321800003 0.011377641 0.149727459
v 0.321800003 0.0104694629 0.152522545
v 0.321800003 0.00753053665 0.152522545
v 0.321800003 0.00662235856 0.149727459
v 0.0338000011 0.00899999976 0.148000002
v 0.0338000011 0.00662235856 0.149727459
v 0.0338000011 0.00753053665 0.152522545
v 0.0338000011 0.0104694629 0.152522545
v 0.0338000011 0.011377641 0.149727459
v 0.0338000011 0.00899999976 0.148000002
v 0.0338000011 0.011377641 0.149727459
v 0.0338000011 0.0104694629 0.152522545
v 0.0338000011 0.00753053665 0.152522545
v 0.0338000011 0.00662235856 0.149727459
v 0.321800003 0.00899999976 0.148000002
v 0.321800003 0.00662235856 0.149727459
v 0.321800003 0.00753053665 0.152522545
v 0.321800003 0.0104694629 0.152522545
v 0.321800003 0.011377641 0.149727459
v 0.0338000011 0.00753053665 0.152522545
v 0.321800003 0.00753053665 0.152522545
f 297 298 301
f 301 298 300
f 300 298 299
f 302 303 306
f 306 303 304
f 306 304 305
f 308 316 307
f 307 316 312
f 307 312 311
f 311 312 313
f 311 313 318
f 308 309 316
f 316 309 315
f 315 309 317
f 315 317 314
f 318 310 311
v 0.0338000011 0.245 0.148000002
v 0.0338000011 0.247377644 0.149727459
v 0.0338000011 0.24646946 0.152522545
v 0.0338000011 0.24353054 0.152522545
v 0.0338000011 0.242622356 0.149727459
v 0.321800003 0.245 0.148000002
v 0.321800003 0.242622356 0.149727459
v 0.321800003 0.24353054 0.152522545
v 0.321800003 0.24646946 0.152522545
v 0.321800003 0.247377644 0.149727459
v 0.0338000011 0.24353054 0.152522545
v 0.321800003 0.24353054 0.152522545
v 0.321800003 0.245 0.148000002
v 0.321800003 0.247377644 0.149727459
v 0.321800003 0.24646946 0.152522545
v 0.321800003 0.24353054 0.152522545
v 0.321800003 0.242622356 0.149727459
v 0.0338000011 0.245 0.148000002
v 0.0338000011 0.242622356 0.149727459
v 0.0338000011 0.24353054 0.152522545
v 0.0338000011 0.24646946 0.152522545
v 0.0338000011 0.247377644 0.149727459
f 320 328 319
f 319 328 324
f 319 324 323
f 323 324 325
f 323 325 330
f 320 321 328
f 328 321 327
f 327 321 329
f 327 329 326
f 330 322 323
f 331 332 335
f 335 332 334
f 334 332 333
f 336 337 340
f 340 337 338
f 340 338 339
v 0.0363000011 0.245 0.150500002
v 0.0345725417 0.245 0.148122358
v 0.0317774582 0.245 0.149030533
v 0.0317774582 0.245 0.151969461
v 0.0345725417 0.245 0.152877645
v 0.0363000011 0.00899999976 0.150500002
v 0.0345725417 0.00899999976 0.152877645
v 0.0317774582 0.00899999976 0.151969461
v 0.0317774582 0.00899999976 0.149030533
v 0.0345725417 0.00899999976 0.148122358
v 0.0363000011 0.00899999976 0.150500002
v 0.0345725417 0.00899999976 0.148122358
v 0.0317774582 0.00899999976 0.149030533
v 0.0317774582 0.00899999976 0.151969461
v 0.0345725417 0.00899999976 0.152877645
v 0.0363000011 0.245 0.150500002
v 0.0345725417 0.245 0.152877645
v 0.0317774582 0.245 0.151969461
v 0.0317774582 0.245 0.149030533
v 0.0345725417 0.245 0.148122358
v 0.0317774582 0.00899999976 0.151969461
v 0.0317774582 0.245 0.151969461
f 341 342 345
f 345 342 344
f 344 342 343
f 346 347 350
f 350 347 348
f 350 348 349
f 352 360 351
f 351 360 356
f 351 356 355
f 355 356 357
f 355 357 362
f 352 353 360
f 360 353 359
f 359 353 361
f 359 361 358
f 362 354 355
v 0.324300003 0.245 0.150500002
v 0.322572556 0.245 0.148122358
v 0.319777451 0.245 0.149030533
v 0.319777451 0.245 0.151969461
v 0.322572556 0.245 0.152877645
v 0.324300003 0.00899999976 0.150500002
v 0.322572556 0.00899999976 0.148122358
v 0.319777451 0.00899999976 0.149030533
v 0.319777451 0.00899999976 0.151969461
v 0.322572556 0.00899999976 0.152877645
v 0.324300003 0.245 0.150500002
v 0.322572556 0.245 0.152877645
v 0.319777451 0.245 0.151969461
v 0.319777451 0.245 0.149030533
v 0.322572556 0.245 0.148122358
v 0.319777451 0.00899999976 0.151969461
v 0.319777451 0.245 0.151969461
v 0.324300003 0.00899999976 0.150500002
v 0.322572556 0.00899999976 0.152877645
v 0.319777451 0.00899999976 0.151969461
v 0.319777451 0.00899999976 0.149030533
v 0.322572556 0.00899999976 0.148122358
f 363 364 367
f 367 364 366
f 366 364 365
f 369 377 368
f 368 377 373
f 368 373 372
f 372 373 374
f 372 374 379
f 369 370 377
f 377 370 376
f 376 370 378
f 376 378 375
f 379 371 372
f 380 381 384
f 384 381 382
f 384 382 383
v 0.0405000019 0.245 0.148999996
v 0.0394635248 0.245 0.147573414
v 0.0377864742 0.245 0.148118324
v 0.0377864742 0.245 0.149881678
v 0.0394635248 0.245 0.150426588
v 0.0405000019 0.00899999976 0.148999996
v 0.0394635248 0.00899999976 0.147573414
v 0.0377864742 0.00899999976 0.148118324
v 0.0377864742 0.00899999976 0.149881678
v 0.0394635248 0.00899999976 0.150426588
v 0.0405000019 0.245 0.148999996
v 0.0394635248 0.245 0.150426588
v 0.0377864742 0.245 0.149881678
v 0.0377864742 0.245 0.148118324
v 0.0394635248 0.245 0.147573414
v 0.0377864742 0.00899999976 0.149881678
v 0.0377864742 0.245 0.149881678
v 0.0405000019 0.00899999976 0.148999996
v 0.0394635248 0.00899999976 0.150426588
v 0.0377864742 0.00899999976 0.149881678
v 0.0377864742 0.00899999976 0.148118324
v 0.0394635248 0.00899999976 0.147573414
f 385 386 389
f 389 386 388
f 388 386 387
f 391 399 390
f 390 399 395
f 390 395 394
f 394 395 396
f 394 396 401
f 391 392 399
f 399 392 398
f 398 392 400
f 398 400 397
f 401 393 394
f 402 403 406
f 406 403 404
f 406 404 405
v 0.052543478 0.00899999976 0.148999996
v 0.0515070057 0.00899999976 0.147573414
v 0.0498299551 0.00899999976 0.148118324
v 0.0498299551 0.00899999976 0.149881678
v 0.0515070057 0.00899999976 0.150426588
v 0.052543478 0.245 0.148999996
v 0.0515070057 0.245 0.150426588
v 0.0498299551 0.245 0.149881678
v 0.0498299551 0.245 0.148118324
v 0.0515070057 0.245 0.147573414
v 0.0498299551 0.00899999976 0.149881678
v 0.0498299551 0.245 0.149881678
v 0.052543478 0.245 0.148999996
v 0.0515070057 0.245 0.147573414
v 0.0498299551 0.245 0.148118324
v 0.0498299551 0.245 0.149881678
v 0.0515070057 0.245 0.150426588
v 0.052543478 0.00899999976 0.148999996
v 0.0515070057 0.00899999976 0.150426588
v 0.0498299551 0.00899999976 0.149881678
v 0.0498299551 0.00899999976 0.148118324
v 0.0515070057 0.00899999976 0.147573414
f 408 416 407
f 407 416 412
f 407 412 411
f 411 412 413
f 411 413 418
f 408 409 416
f 416 409 415
f 415 409 417
f 415 417 414
f 418 410 411
f 419 420 423
f 423 420 422
f 422 420 421
f 424 425 428
f 428 425 426
f 428 426 427
v 0.0645869589 0.00899999976 0.148999996
v 0.0635504818 0.00899999976 0.147573414
v 0.0618734312 0.00899999976 0.148118324
v 0.0618734312 0.00899999976 0.149881678
v 0.0635504818 0.00899999976 0.150426588
v 0.0645869589 0.245 0.148999996
v 0.0635504818 0.245 0.150426588
v 0.0618734312 0.245 0.149881678
v 0.0618734312 0.245 0.148118324
v 0.0635504818 0.245 0.147573414
v 0.0618734312 0.00899999976 0.149881678
v 0.0618734312 0.245 0.149881678
v 0.0645869589 0.245 0.148999996
v 0.0635504818 0.245 0.147573414
v 0.0618734312 0.245 0.148118324
v 0.0618734312 0.245 0.149881678
v 0.0635504818 0.245 0.150426588
v 0.0645869589 0.00899999976 0.148999996
v 0.0635504818 0.00899999976 0.150426588
v 0.0618734312 0.00899999976 0.149881678
v 0.0618734312 0.00899999976 0.148118324
v 0.0635504818 0.00899999976 0.147573414
f 430 438 429
f 429 438 434
f 429 434 433
f 433 434 435
f 433 435 440
f 430 431 438
f 438 431 437
f 437 431 439
f 437 439 436
f 440 432 433
f 441 442 445
f 445 442 444
f 444 442 443
f 446 447 450
f 450 447 448
f 450 448 449
v 0.076630435 0.245 0.148999996
v 0.0755939579 0.245 0.147573414
v 0.0739169073 0.245 0.148118324
v 0.0739169073 0.245 0.149881678
v 0.0755939579 0.245 0.150426588
v 0.076630435 0.00899999976 0.148999996
v 0.0755939579 0.00899999976 0.147573414
v 0.0739169073 0.00899999976 0.148118324
v 0.0739169073 0.00899999976 0.149881678
v 0.0755939579 0.00899999976 0.150426588
v 0.076630435 0.245 0.148999996
v 0.0755939579 0.245 0.150426588
v 0.0739169073 0.245 0.149881678
v 0.0739169073 0.245 0.148118324
v 0.0755939579 0.245 0.147573414
v 0.0739169073 0.00899999976 0.149881678
v 0.0739169073 0.245 0.149881678
v 0.076630435 0.00899999976 0.148999996
v 0.0755939579 0.00899999976 0.150426588
v 0.0739169073 0.00899999976 0.149881678
v 0.0739169073 0.00899999976 0.148118324
v 0.0755939579 0.00899999976 0.147573414
f 451 452 455
f 455 452 454
f 454 452 453
f 457 465 456
f 456 465 461
f 456 461 460
f 460 461 462
f 460 462 467
f 457 458 465
f 465 458 464
f 464 458 466
f 464 466 463
f 467 459 460
f 468 469 472
f 472 469 470
f 472 470 471
v 0.0886739159 0.245 0.148999996
v 0.087637434 0.245 0.147573414
v 0.0859603882 0.245 0.148118324
v 0.0859603882 0.245 0.149881678
v 0.087637434 0.245 0.150426588
v 0.0886739159 0.00899999976 0.148999996
v 0.087637434 0.00899999976 0.150426588
v 0.0859603882 0.00899999976 0.149881678
v 0.0859603882 0.00899999976 0.148118324
v 0.087637434 0.00899999976 0.147573414
v 0.0886739159 0.00899999976 0.148999996
v 0.087637434 0.00899999976 0.147573414
v 0.0859603882 0.00899999976 0.148118324
v 0.0859603882 0.00899999976 0.149881678
v 0.087637434 0.00899999976 0.150426588
v 0.0886739159 0.245 0.148999996
v 0.087637434 0.245 0.150426588
v 0.0859603882 0.245 0.149881678
v 0.0859603882 0.245 0.148118324
v 0.087637434 0.245 0.147573414
v 0.0859603882 0.00899999976 0.149881678
v 0.0859603882 0.245 0.149881678
f 473 474 477
f 477 474 476
f 476 474 475
f 478 479 482
f 482 479 480
f 482 480 481
f 484 492 483
f 483 492 488
f 483 488 487
f 487 488 489
f 487 489 494
f 484 485 492
f 492 485 491
f 491 485 493
f 491 493 490
f 494 486 487
v 0.100717392 0.00899999976 0.148999996
v 0.0996809196 0.00899999976 0.147573414
v 0.0980038643 0.00899999976 0.148118324
v 0.0980038643 0.00899999976 0.149881678
v 0.0996809196 0.00899999976 0.150426588
v 0.100717392 0.245 0.148999996
v 0.0996809196 0.245 0.150426588
v 0.0980038643 0.245 0.149881678
v 0.0980038643 0.245 0.148118324
v 0.0996809196 0.245 0.147573414
v 0.0980038643 0.00899999976 0.149881678
v 0.0980038643 0.245 0.149881678
v 0.100717392 0.245 0.148999996
v 0.0996809196 0.245 0.147573414
v 0.0980038643 0.245 0.148118324
v 0.0980038643 0.245 0.149881678
v 0.0996809196 0.245 0.150426588
v 0.100717392 0.00899999976 0.148999996
v 0.0996809196 0.00899999976 0.150426588
v 0.0980038643 0.00899999976 0.149881678
v 0.0980038643 0.00899999976 0.148118324
v 0.0996809196 0.00899999976 0.147573414
f 496 504 495
f 495 504 500
f 495 500 499
f 499 500 501
f 499 501 506
f 496 497 504
f 504 497 503
f 503 497 505
f 503 505 502
f 506 498 499
f 507 508 511
f 511 508 510
f 510 508 509
f 512 513 516
f 516 513 514
f 516 514 515
v 0.112760868 0.00899999976 0.148999996
v 0.111724396 0.00899999976 0.147573414
v 0.11004734 0.00899999976 0.148118324
v 0.11004734 0.00899999976 0.149881678
v 0.111724396 0.00899999976 0.150426588
v 0.112760868 0.245 0.148999996
v 0.111724396 0.245 0.150426588
v 0.11004734 0.245 0.149881678
v 0.11004734 0.245 0.148118324
v 0.111724396 0.245 0.147573414
v 0.11004734 0.00899999976 0.149881678
v 0.11004734 0.245 0.149881678
v 0.112760868 0.00899999976 0.148999996
v 0.111724396 0.00899999976 0.150426588
v 0.11004734 0.00899999976 0.149881678
v 0.11004734 0.00899999976 0.148118324
v 0.111724396 0.00899999976 0.147573414
v 0.112760868 0.245 0.148999996
v 0.111724396 0.245 0.147573414
v 0.11004734 0.245 0.148118324
v 0.11004734 0.245 0.149881678
v 0.111724396 0.245 0.150426588
f 518 526 517
f 517 526 522
f 517 522 521
f 521 522 523
f 521 523 528
f 518 519 526
f 526 519 525
f 525 519 527
f 525 527 524
f 528 520 521
f 529 530 533
f 533 530 531
f 533 531 532
f 534 535 538
f 538 535 537
f 537 535 536
v 0.124804344 0.245 0.148999996
v 0.123767872 0.245 0.147573414
v 0.122090826 0.245 0.148118324
v 0.122090826 0.245 0.149881678
v 0.123767872 0.245 0.150426588
v 0.124804344 0.00899999976 0.148999996
v 0.123767872 0.00899999976 0.147573414
v 0.122090826 0.00899999976 0.148118324
v 0.122090826 0.00899999976 0.149881678
v 0.123767872 0.00899999976 0.150426588
v 0.124804344 0.245 0.148999996
v 0.123767872 0.245 0.150426588
v 0.122090826 0.245 0.149881678
v 0.122090826 0.245 0.148118324
v 0.123767872 0.245 0.147573414
v 0.122090826 0.00899999976 0.149881678
v 0.122090826 0.245 0.149881678
v 0.124804344 0.00899999976 0.148999996
v 0.123767872 0.00899999976 0.150426588
v 0.122090826 0.00899999976 0.149881678
v 0.122090826 0.00899999976 0.148118324
v 0.123767872 0.00899999976 0.147573414
f 539 540 543
f 543 540 542
f 542 540 541
f 545 553 544
f 544 553 549
f 544 549 548
f 548 549 550
f 548 550 555
f 545 546 553
f 553 546 552
f 552 546 554
f 552 554 551
f 555 547 548
f 556 557 560
f 560 557 558
f 560 558 559
v 0.13684783 0.245 0.148999996
v 0.135811348 0.245 0.147573414
v 0.134134302 0.245 0.148118324
v 0.134134302 0.245 0.149881678
v 0.135811348 0.245 0.150426588
v 0.13684783 0.00899999976 0.148999996
v 0.135811348 0.00899999976 0.147573414
v 0.134134302 0.00899999976 0.148118324
v 0.134134302 0.00899999976 0.149881678
v 0.135811348 0.00899999976 0.150426588
v 0.13684783 0.245 0.148999996
v 0.135811348 0.245 0.150426588
v 0.134134302 0.245 0.149881678
v 0.134134302 0.245 0.148118324
v 0.135811348 0.245 0.147573414
v 0.134134302 0.00899999976 0.149881678
v 0.134134302 0.245 0.149881678
v 0.13684783 0.00899999976 0.148999996
v 0.135811348 0.00899999976 0.150426588
v 0.134134302 0.00899999976 0.149881678
v 0.134134302 0.00899999976 0.148118324
v 0.135811348 0.00899999976 0.147573414
f 561 562 565
f 565 562 564
f 564 562 563
f 567 575 566
f 566 575 571
f 566 571 570
f 570 571 572
f 570 572 577
f 567 568 575
f 575 568 574
f 574 568 576
f 574 576 573
f 577 569 570
f 578 579 582
f 582 579 580
f 582 580 581
v 0.148891306 0.245 0.148999996
v 0.147854834 0.245 0.147573414
v 0.146177778 0.245 0.148118324
v 0.146177778 0.245 0.149881678
v 0.147854834 0.245 0.150426588
v 0.148891306 0.00899999976 0.148999996
v 0.147854834 0.00899999976 0.147573414
v 0.146177778 0.00899999976 0.148118324
v 0.146177778 0.00899999976 0.149881678
v 0.147854834 0.00899999976 0.150426588
v 0.148891306 0.245 0.148999996
v 0.147854834 0.245 0.150426588
v 0.146177778 0.245 0.149881678
v 0.146177778 0.245 0.148118324
v 0.147854834 0.245 0.147573414
v 0.146177778 0.00899999976 0.149881678
v 0.146177778 0.245 0.149881678
v 0.148891306 0.00899999976 0.148999996
v 0.147854834 0.00899999976 0.150426588
v 0.146177778 0.00899999976 0.149881678
v 0.146177778 0.00899999976 0.148118324
v 0.147854834 0.00899999976 0.147573414
f 583 584 587
f 587 584 586
f 586 584 585
f 589 597 588
f 588 597 593
f 588 593 592
f 592 593 594
f 592 594 599
f 589 590 597
f 597 590 596
f 596 590 598
f 596 598 595
f 599 591 592
f 600 601 604
f 604 601 602
f 604 602 603
v 0.160934792 0.245 0.148999996
v 0.15989831 0.245 0.147573414
v 0.158221254 0.245 0.148118324
v 0.158221254 0.245 0.149881678
v 0.15989831 0.245 0.150426588
v 0.160934792 0.00899999976 0.148999996
v 0.15989831 0.00899999976 0.147573414
v 0.158221254 0.00899999976 0.148118324
v 0.158221254 0.00899999976 0.149881678
v 0.15989831 0.00899999976 0.150426588
v 0.160934792 0.245 0.148999996
v 0.15989831 0.245 0.150426588
v 0.158221254 0.245 0.149881678
v 0.158221254 0.245 0.148118324
v 0.15989831 0.245 0.147573414
v 0.158221254 0.00899999976 0.149881678
v 0.158221254 0.245 0.149881678
v 0.160934792 0.00899999976 0.148999996
v 0.15989831 0.00899999976 0.150426588
v 0.158221254 0.00899999976 0.149881678
v 0.158221254 0.00899999976 0.148118324
v 0.15989831 0.00899999976 0.147573414
f 605 606 609
f 609 606 608
f 608 606 607
f 611 619 610
f 610 619 615
f 610 615 614
f 614 615 616
f 614 616 621
f 611 612 619
f 619 612 618
f 618 612 620
f 618 620 617
f 621 613 614
f 622 623 626
f 626 623 624
f 626 624 625
v 0.172978268 0.00899999976 0.148999996
v 0.171941795 0.00899999976 0.150426588
v 0.17026474 0.00899999976 0.149881678
v 0.17026474 0.00899999976 0.148118324
v 0.171941795 0.00899999976 0.147573414
v 0.172978268 0.245 0.148999996
v 0.171941795 0.245 0.147573414
v 0.17026474 0.245 0.148118324
v 0.17026474 0.245 0.149881678
v 0.171941795 0.245 0.150426588
v 0.172978268 0.00899999976 0.148999996
v 0.171941795 0.00899999976 0.147573414
v 0.17026474 0.00899999976 0.148118324
v 0.17026474 0.00899999976 0.149881678
v 0.171941795 0.00899999976 0.150426588
v 0.172978268 0.245 0.148999996
v 0.171941795 0.245 0.150426588
v 0.17026474 0.245 0.149881678
v 0.17026474 0.245 0.148118324
v 0.171941795 0.245 0.147573414
v 0.17026474 0.00899999976 0.149881678
v 0.17026474 0.245 0.149881678
f 627 628 631
f 631 628 629
f 631 629 630
f 632 633 636
f 636 633 635
f 635 633 634
f 638 646 637
f 637 646 642
f 637 642 641
f 641 642 643
f 641 643 648
f 638 639 646
f 646 639 645
f 645 639 647
f 645 647 644
f 648 640 641
v 0.185021744 0.00899999976 0.148999996
v 0.183985271 0.00899999976 0.150426588
v 0.182308216 0.00899999976 0.149881678
v 0.182308216 0.00899999976 0.148118324
v 0.183985271 0.00899999976 0.147573414
v 0.185021744 0.245 0.148999996
v 0.183985271 0.245 0.147573414
v 0.182308216 0.245 0.148118324
v 0.182308216 0.245 0.149881678
v 0.183985271 0.245 0.150426588
v 0.185021744 0.00899999976 0.148999996
v 0.183985271 0.00899999976 0.147573414
v 0.182308216 0.00899999976 0.148118324
v 0.182308216 0.00899999976 0.149881678
v 0.183985271 0.00899999976 0.150426588
v 0.185021744 0.245 0.148999996
v 0.183985271 0.245 0.150426588
v 0.182308216 0.245 0.149881678
v 0.182308216 0.245 0.148118324
v 0.183985271 0.245 0.147573414
v 0.182308216 0.00899999976 0.149881678
v 0.182308216 0.245 0.149881678
f 649 650 653
f 653 650 651
f 653 651 652
f 654 655 658
f 658 655 657
f 657 655 656
f 660 668 659
f 659 668 664
f 659 664 663
f 663 664 665
f 663 665 670
f 660 661 668
f 668 661 667
f 667 661 669
f 667 669 666
f 670 662 663
v 0.19706522 0.00899999976 0.148999996
v 0.196028748 0.00899999976 0.147573414
v 0.194351692 0.00899999976 0.148118324
v 0.194351692 0.00899999976 0.149881678
v 0.196028748 0.00899999976 0.150426588
v 0.19706522 0.245 0.148999996
v 0.196028748 0.245 0.150426588
v 0.194351692 0.245 0.149881678
v 0.194351692 0.245 0.148118324
v 0.196028748 0.245 0.147573414
v 0.194351692 0.00899999976 0.149881678
v 0.194351692 0.245 0.149881678
v 0.19706522 0.00899999976 0.148999996
v 0.196028748 0.00899999976 0.150426588
v 0.194351692 0.00899999976 0.149881678
v 0.194351692 0.00899999976 0.148118324
v 0.196028748 0.00899999976 0.147573414
v 0.19706522 0.245 0.148999996
v 0.196028748 0.245 0.147573414
v 0.194351692 0.245 0.148118324
v 0.194351692 0.245 0.149881678
v 0.196028748 0.245 0.150426588
f 672 680 671
f 671 680 676
f 671 676 675
f 675 676 677
f 675 677 682
f 672 673 680
f 680 673 679
f 679 673 681
f 679 681 678
f 682 674 675
f 683 684 687
f 687 684 685
f 687 685 686
f 688 689 692
f 692 689 691
f 691 689 690
v 0.209108696 0.245 0.148999996
v 0.208072224 0.245 0.147573414
v 0.206395168 0.245 0.148118324
v 0.206395168 0.245 0.149881678
v 0.208072224 0.245 0.150426588
v 0.209108696 0.00899999976 0.148999996
v 0.208072224 0.00899999976 0.147573414
v 0.206395168 0.00899999976 0.148118324
v 0.206395168 0.00899999976 0.149881678
v 0.208072224 0.00899999976 0.150426588
v 0.209108696 0.245 0.148999996
v 0.208072224 0.245 0.150426588
v 0.206395168 0.245 0.149881678
v 0.206395168 0.245 0.148118324
v 0.208072224 0.245 0.147573414
v 0.206395168 0.00899999976 0.149881678
v 0.206395168 0.245 0.149881678
v 0.209108696 0.00899999976 0.148999996
v 0.208072224 0.00899999976 0.150426588
v 0.206395168 0.00899999976 0.149881678
v 0.206395168 0.00899999976 0.148118324
v 0.208072224 0.00899999976 0.147573414
f 693 694 697
f 697 694 696
f 696 694 695
f 699 707 698
f 698 707 703
f 698 703 702
f 702 703 704
f 702 704 709
f 699 700 707
f 707 700 706
f 706 700 708
f 706 708 705
f 709 701 702
f 710 711 714
f 714 711 712
f 714 712 713
v 0.221152172 0.245 0.148999996
v 0.2201157 0.245 0.147573414
v 0.218438644 0.245 0.148118324
v 0.218438644 0.245 0.149881678
v 0.2201157 0.245 0.150426588
v 0.221152172 0.00899999976 0.148999996
v 0.2201157 0.00899999976 0.147573414
v 0.218438644 0.00899999976 0.148118324
v 0.218438644 0.00899999976 0.149881678
v 0.2201157 0.00899999976 0.150426588
v 0.221152172 0.245 0.148999996
v 0.2201157 0.245 0.150426588
v 0.218438644 0.245 0.149881678
v 0.218438644 0.245 0.148118324
v 0.2201157 0.245 0.147573414
v 0.218438644 0.00899999976 0.149881678
v 0.218438644 0.245 0.149881678
v 0.221152172 0.00899999976 0.148999996
v 0.2201157 0.00899999976 0.150426588
v 0.218438644 0.00899999976 0.149881678
v 0.218438644 0.00899999976 0.148118324
v 0.2201157 0.00899999976 0.147573414
f 715 716 719
f 719 716 718
f 718 716 717
f 721 729 720
f 720 729 725
f 720 725 724
f 724 725 726
f 724 726 731
f 721 722 729
f 729 722 728
f 728 722 730
f 728 730 727
f 731 723 724
f 732 733 736
f 736 733 734
f 736 734 735
v 0.233195648 0.245 0.148999996
v 0.232159176 0.245 0.147573414
v 0.230482121 0.245 0.148118324
v 0.230482121 0.245 0.149881678
v 0.232159176 0.245 0.150426588
v 0.233195648 0.00899999976 0.148999996
v 0.232159176 0.00899999976 0.150426588
v 0.230482121 0.00899999976 0.149881678
v 0.230482121 0.00899999976 0.148118324
v 0.232159176 0.00899999976 0.147573414
v 0.233195648 0.00899999976 0.148999996
v 0.232159176 0.00899999976 0.147573414
v 0.230482121 0.00899999976 0.148118324
v 0.230482121 0.00899999976 0.149881678
v 0.232159176 0.00899999976 0.150426588
v 0.233195648 0.245 0.148999996
v 0.232159176 0.245 0.150426588
v 0.230482121 0.245 0.149881678
v 0.230482121 0.245 0.148118324
v 0.232159176 0.245 0.147573414
v 0.230482121 0.00899999976 0.149881678
v 0.230482121 0.245 0.149881678
f 737 738 741
f 741 738 740
f 740 738 739
f 742 743 746
f 746 743 744
f 746 744 745
f 748 756 747
f 747 756 752
f 747 752 751
f 751 752 753
f 751 753 758
f 748 749 756
f 756 749 755
f 755 749 757
f 755 757 754
f 758 750 751
v 0.245239124 0.245 0.148999996
v 0.244202652 0.245 0.147573414
v 0.242525597 0.245 0.148118324
v 0.242525597 0.245 0.149881678
v 0.244202652 0.245 0.150426588
v 0.245239124 0.00899999976 0.148999996
v 0.244202652 0.00899999976 0.150426588
v 0.242525597 0.00899999976 0.149881678
v 0.242525597 0.00899999976 0.148118324
v 0.244202652 0.00899999976 0.147573414
v 0.245239124 0.00899999976 0.148999996
v 0.244202652 0.00899999976 0.147573414
v 0.242525597 0.00899999976 0.148118324
v 0.242525597 0.00899999976 0.149881678
v 0.244202652 0.00899999976 0.150426588
v 0.245239124 0.245 0.148999996
v 0.244202652 0.245 0.150426588
v 0.242525597 0.245 0.149881678
v 0.242525597 0.245 0.148118324
v 0.244202652 0.245 0.147573414
v 0.242525597 0.00899999976 0.149881678
v 0.242525597 0.245 0.149881678
f 759 760 763
f 763 760 762
f 762 760 761
f 764 765 768
f 768 765 766
f 768 766 767
f 770 778 769
f 769 778 774
f 769 774 773
f 773 774 775
f 773 775 780
f 770 771 778
f 778 771 777
f 777 771 779
f 777 779 776
f 780 772 773
v 0.2572826 0.00899999976 0.148999996
v 0.256246128 0.00899999976 0.150426588
v 0.254569092 0.00899999976 0.149881678
v 0.254569092 0.00899999976 0.148118324
v 0.256246128 0.00899999976 0.147573414
v 0.2572826 0.245 0.148999996
v 0.256246128 0.245 0.147573414
v 0.254569092 0.245 0.148118324
v 0.254569092 0.245 0.149881678
v 0.256246128 0.245 0.150426588
v 0.2572826 0.00899999976 0.148999996
v 0.256246128 0.00899999976 0.147573414
v 0.254569092 0.00899999976 0.148118324
v 0.254569092 0.00899999976 0.149881678
v 0.256246128 0.00899999976 0.150426588
v 0.2572826 0.245 0.148999996
v 0.256246128 0.245 0.150426588
v 0.254569092 0.245 0.149881678
v 0.254569092 0.245 0.148118324
v 0.256246128 0.245 0.147573414
v 0.254569092 0.00899999976 0.149881678
v 0.254569092 0.245 0.149881678
f 781 782 785
f 785 782 783
f 785 783 784
f 786 787 790
f 790 787 789
f 789 787 788
f 792 800 791
f 791 800 796
f 791 796 795
f 795 796 797
f 795 797 802
f 792 793 800
f 800 793 799
f 799 793 801
f 799 801 798
f 802 794 795
v 0.269326096 0.245 0.148999996
v 0.268289604 0.245 0.147573414
v 0.266612568 0.245 0.148118324
v 0.266612568 0.245 0.149881678
v 0.268289604 0.245 0.150426588
v 0.269326096 0.00899999976 0.148999996
v 0.268289604 0.00899999976 0.150426588
v 0.266612568 0.00899999976 0.149881678
v 0.266612568 0.00899999976 0.148118324
v 0.268289604 0.00899999976 0.147573414
v 0.269326096 0.00899999976 0.148999996
v 0.268289604 0.00899999976 0.147573414
v 0.266612568 0.00899999976 0.148118324
v 0.266612568 0.00899999976 0.149881678
v 0.268289604 0.00899999976 0.150426588
v 0.269326096 0.245 0.148999996
v 0.268289604 0.245 0.150426588
v 0.266612568 0.245 0.149881678
v 0.266612568 0.245 0.148118324
v 0.268289604 0.245 0.147573414
v 0.266612568 0.00899999976 0.149881678
v 0.266612568 0.245 0.149881678
f 803 804 807
f 807 804 806
f 806 804 805
f 808 809 812
f 812 809 810
f 812 810 811
f 814 822 813
f 813 822 818
f 813 818 817
f 817 818 819
f 817 819 824
f 814 815 822
f 822 815 821
f 821 815 823
f 821 823 820
f 824 816 817
v 0.281369572 0.245 0.148999996
v 0.280333099 0.245 0.147573414
v 0.278656044 0.245 0.148118324
v 0.278656044 0.245 0.149881678
v 0.280333099 0.245 0.150426588
v 0.281369572 0.00899999976 0.148999996
v 0.280333099 0.00899999976 0.150426588
v 0.278656044 0.00899999976 0.149881678
v 0.278656044 0.00899999976 0.148118324
v 0.280333099 0.00899999976 0.147573414
v 0.281369572 0.00899999976 0.148999996
v 0.280333099 0.00899999976 0.147573414
v 0.278656044 0.00899999976 0.148118324
v 0.278656044 0.00899999976 0.149881678
v 0.280333099 0.00899999976 0.150426588
v 0.281369572 0.245 0.148999996
v 0.280333099 0.245 0.150426588
v 0.278656044 0.245 0.149881678
v 0.278656044 0.245 0.148118324
v 0.280333099 0.245 0.147573414
v 0.278656044 0.00899999976 0.149881678
v 0.278656044 0.245 0.149881678
f 825 826 829
f 829 826 828
f 828 826 827
f 830 831 834
f 834 831 832
f 834 832 833
f 836 844 835
f 835 844 840
f 835 840 839
f 839 840 841
f 839 841 846
f 836 837 844
f 844 837 843
f 843 837 845
f 843 845 842
f 846 838 839
v 0.293413048 0.00899999976 0.148999996
v 0.292376575 0.00899999976 0.150426588
v 0.29069952 0.00899999976 0.149881678
v 0.29069952 0.00899999976 0.148118324
v 0.292376575 0.00899999976 0.147573414
v 0.293413048 0.245 0.148999996
v 0.292376575 0.245 0.147573414
v 0.29069952 0.245 0.148118324
v 0.29069952 0.245 0.149881678
v 0.292376575 0.245 0.150426588
v 0.293413048 0.00899999976 0.148999996
v 0.292376575 0.00899999976 0.147573414
v 0.29069952 0.00899999976 0.148118324
v 0.29069952 0.00899999976 0.149881678
v 0.292376575 0.00899999976 0.150426588
v 0.293413048 0.245 0.148999996
v 0.292376575 0.245 0.150426588
v 0.29069952 0.245 0.149881678
v 0.29069952 0.245 0.148118324
v 0.292376575 0.245 0.147573414
v 0.29069952 0.00899999976 0.149881678
v 0.29069952 0.245 0.149881678
f 847 848 851
f 851 848 849
f 851 849 850
f 852 853 856
f 856 853 855
f 855 853 854
f 858 866 857
f 857 866 862
f 857 862 861
f 861 862 863
f 861 863 868
f 858 859 866
f 866 859 865
f 865 859 867
f 865 867 864
f 868 860 861
v 0.305456524 0.245 0.148999996
v 0.304420052 0.245 0.147573414
v 0.302742996 0.245 0.148118324
v 0.302742996 0.245 0.149881678
v 0.304420052 0.245 0.150426588
v 0.305456524 0.00899999976 0.148999996
v 0.304420052 0.00899999976 0.147573414
v 0.302742996 0.00899999976 0.148118324
v 0.302742996 0.00899999976 0.149881678
v 0.304420052 0.00899999976 0.150426588
v 0.305456524 0.245 0.148999996
v 0.304420052 0.245 0.150426588
v 0.302742996 0.245 0.149881678
v 0.302742996 0.245 0.148118324
v 0.304420052 0.245 0.147573414
v 0.302742996 0.00899999976 0.149881678
v 0.302742996 0.245 0.149881678
v 0.305456524 0.00899999976 0.148999996
v 0.304420052 0.00899999976 0.150426588
v 0.302742996 0.00899999976 0.149881678
v 0.302742996 0.00899999976 0.148118324
v 0.304420052 0.00899999976 0.147573414
f 869 870 873
f 873 870 872
f 872 870 871
f 875 883 874
f 874 883 879
f 874 879 878
f 878 879 880
f 878 880 885
f 875 876 883
f 883 876 882
f 882 876 884
f 882 884 881
f 885 877 878
f 886 887 890
f 890 887 888
f 890 888 889
v 0.3175 0.00899999976 0.148999996
v 0.316463528 0.00899999976 0.150426588
v 0.314786472 0.00899999976 0.149881678
v 0.314786472 0.00899999976 0.148118324
v 0.316463528 0.00899999976 0.147573414
v 0.3175 0.245 0.148999996
v 0.316463528 0.245 0.147573414
v 0.314786472 0.245 0.148118324
v 0.314786472 0.245 0.149881678
v 0.316463528 0.245 0.150426588
v 0.3175 0.00899999976 0.148999996
v 0.316463528 0.00899999976 0.147573414
v 0.314786472 0.00899999976 0.148118324
v 0.314786472 0.00899999976 0.149881678
v 0.316463528 0.00899999976 0.150426588
v 0.3175 0.245 0.148999996
v 0.316463528 0.245 0.150426588
v 0.314786472 0.245 0.149881678
v 0.314786472 0.245 0.148118324
v 0.316463528 0.245 0.147573414
v 0.314786472 0.00899999976 0.149881678
v 0.314786472 0.245 0.149881678
f 891 892 895
f 895 892 893
f 895 893 894
f 896 897 900
f 900 897 899
f 899 897 898
f 902 910 901
f 901 910 906
f 901 906 905
f 905 906 907
f 905 907 912
f 902 903 910
f 910 903 909
f 909 903 911
f 909 911 908
f 912 904 905
v 0.0338000011 0.0869999981 0.144499998
v 0.0338000011 0.0855734158 0.14553647
v 0.0338000011 0.0861183262 0.147213526
v 0.0338000011 0.0878816795 0.147213526
v 0.0338000011 0.0884265804 0.14553647
v 0.321800003 0.0869999981 0.144499998
v 0.321800003 0.0884265804 0.14553647
v 0.321800003 0.0878816795 0.147213526
v 0.321800003 0.0861183262 0.147213526
v 0.321800003 0.0855734158 0.14553647
v 0.0338000011 0.0869999981 0.144499998
v 0.0338000011 0.0884265804 0.14553647
v 0.0338000011 0.0878816795 0.147213526
v 0.0338000011 0.0861183262 0.147213526
v 0.0338000011 0.0855734158 0.14553647
v 0.321800003 0.0869999981 0.144499998
v 0.321800003 0.0855734158 0.14553647
v 0.321800003 0.0861183262 0.147213526
v 0.321800003 0.0878816795 0.147213526
v 0.321800003 0.0884265804 0.14553647
v 0.0338000011 0.0861183262 0.147213526
v 0.321800003 0.0861183262 0.147213526
f 913 914 917
f 917 914 915
f 917 915 916
f 918 919 922
f 922 919 921
f 921 919 920
f 924 932 923
f 923 932 928
f 923 928 927
f 927 928 929
f 927 929 934
f 924 925 932
f 932 925 931
f 931 925 933
f 931 933 930
f 934 926 927
v 0.0338000011 0.166000004 0.144499998
v 0.0338000011 0.164573421 0.14553647
v 0.0338000011 0.165118313 0.147213526
v 0.0338000011 0.166881676 0.147213526
v 0.0338000011 0.167426586 0.14553647
v 0.321800003 0.166000004 0.144499998
v 0.321800003 0.167426586 0.14553647
v 0.321800003 0.166881676 0.147213526
v 0.321800003 0.165118313 0.147213526
v 0.321800003 0.164573421 0.14553647
v 0.0338000011 0.166000004 0.144499998
v 0.0338000011 0.167426586 0.14553647
v 0.0338000011 0.166881676 0.147213526
v 0.0338000011 0.165118313 0.147213526
v 0.0338000011 0.164573421 0.14553647
v 0.321800003 0.166000004 0.144499998
v 0.321800003 0.164573421 0.14553647
v 0.321800003 0.165118313 0.147213526
v 0.321800003 0.166881676 0.147213526
v 0.321800003 0.167426586 0.14553647
v 0.0338000011 0.165118313 0.147213526
v 0.321800003 0.165118313 0.147213526
f 935 936 939
f 939 936 937
f 939 937 938
f 940 941 944
f 944 941 943
f 943 941 942
f 946 954 945
f 945 954 950
f 945 950 949
f 949 950 951
f 949 951 956
f 946 947 954
f 954 947 953
f 953 947 955
f 953 955 952
f 956 948 949
v 0.353305408 -0.0100607765 0.196499996
v 0.351850805 -0.0106264488 0.196499996
v 0.350723393 -0.0117056987 0.196499996
v 0.350094815 -0.0131342365 0.196499996
v 0.350060766 -0.0146945777 0.196499996
v 0.350626437 -0.016149211 0.196499996
v 0.351705695 -0.0172766111 0.196499996
v 0.353134241 -0.0179051768 0.196499996
v 0.354694592 -0.0179392311 0.196499996
v 0.356149197 -0.0173735586 0.196499996
v 0.357276609 -0.0162943087 0.196499996
v 0.357905186 -0.0148657711 0.196499996
v 0.357939228 -0.0133053923 0.196499996
v 0.357373564 -0.0118507966 0.196499996
v 0.356294307 -0.0107233963 0.196499996
v 0.354865761 -0.0100948306 0.196499996
v 0.353305408 -0.0100607765 0.178500004
v 0.354865761 -0.0100948306 0.178500004
v 0.356294307 -0.0107233963 0.178500004
v 0.357373564 -0.0118507966 0.178500004
v 0.357939228 -0.0133053923 0.178500004
v 0.357905186 -0.0148657711 0.178500004
v 0.357276609 -0.0162943087 0.178500004
v 0.356149197 -0.0173735586 0.178500004
v 0.354694592 -0.0179392311 0.178500004
v 0.353134241 -0.0179051768 0.178500004
v 0.351705695 -0.0172766111 0.178500004
v 0.350626437 -0.016149211 0.178500004
v 0.350060766 -0.0146945777 0.178500004
v 0.350094815 -0.0131342365 0.178500004
v 0.350723393 -0.0117056987 0.178500004
v 0.351850805 -0.0106264488 0.178500004
v 0.353305408 -0.0100607765 0.178500004
v 0.351850805 -0.0106264488 0.178500004
v 0.350723393 -0.0117056987 0.178500004
v 0.350094815 -0.0131342365 0.178500004
v 0.350060766 -0.0146945777 0.178500004
v 0.350626437 -0.016149211 0.178500004
v 0.351705695 -0.0172766111 0.178500004
v 0.353134241 -0.0179051768 0.178500004
v 0.354694592 -0.0179392311 0.178500004
v 0.356149197 -0.0173735586 0.178500004
v 0.357276609 -0.0162943087 0.178500004
v 0.357905186 -0.0148657711 0.178500004
v 0.357939228 -0.0133053923 0.178500004
v 0.357373564 -0.0118507966 0.178500004
v 0.356294307 -0.0107233963 0.178500004
v 0.354865761 -0.0100948306 0.178500004
v 0.353305408 -0.0100607765 0.196499996
v 0.354865761 -0.0100948306 0.196499996
v 0.356294307 -0.0107233963 0.196499996
v 0.357373564 -0.0118507966 0.196499996
v 0.357939228 -0.0133053923 0.196499996
v 0.357905186 -0.0148657711 0.196499996
v 0.357276609 -0.0162943087 0.196499996
v 0.356149197 -0.0173735586 0.196499996
v 0.354694592 -0.0179392311 0.196499996
v 0.353134241 -0.0179051768 0.196499996
v 0.351705695 -0.0172766111 0.196499996
v 0.350626437 -0.016149211 0.196499996
v 0.350060766 -0.0146945777 0.196499996
v 0.350094815 -0.0131342365 0.196499996
v 0.350723393 -0.0117056987 0.196499996
v 0.351850805 -0.0106264488 0.196499996
v 0.354694592 -0.0179392311 0.178500004
v 0.354694592 -0.0179392311 0.196499996
f 958 964 957
f 957 964 965
f 957 965 972
f 972 965 966
f 972 966 971
f 971 966 967
f 971 967 970
f 970 967 968
f 970 968 969
f 964 958 963
f 963 958 959
f 963 959 962
f 962 959 960
f 962 960 961
f 974 980 973
f 973 980 981
f 973 981 988
f 988 981 982
f 988 982 987
f 987 982 983
f 987 983 986
f 986 983 984
f 986 984 985
f 980 974 979
f 979 974 975
f 979 975 978
f 978 975 976
f 978 976 977
f 990 1005 989
f 989 1005 1006
f 989 1006 1004
f 1004 1006 1007
f 1004 1007 1003
f 1003 1007 1008
f 1003 1008 1002
f 1002 1008 1009
f 1002 1009 1001
f 1001 1009 1010
f 1001 1010 1000
f 1000 1010 1011
f 1000 1011 999
f 999 1011 1012
f 999 1012 998
f 998 1012 997
f 997 1012 1022
f 1021 1013 996
f 996 1013 1014
f 996 1014 1015
f 1005 990 1020
f 1020 990 991
f 1020 991 1019
f 1019 991 992
f 1019 992 1018
f 1018 992 993
f 1018 993 1017
f 1017 993 994
f 1017 994 1016
f 1016 994 995
f 1016 995 1015
f 1015 995 996
v 0.35372216 -0.0124242941 0.211000004
v 0.352594844 -0.0132347807 0.211000004
v 0.352525641 -0.0146215106 0.211000004
v 0.353566656 -0.0155402074 0.211000004
v 0.354933991 -0.0152991093 0.211000004
v 0.355598013 -0.0140797683 0.211000004
v 0.355058695 -0.0128003371 0.211000004
v 0.35372216 -0.0124242941 0.163999996
v 0.355058695 -0.0128003371 0.163999996
v 0.355598013 -0.0140797683 0.163999996
v 0.354933991 -0.0152991093 0.163999996
v 0.353566656 -0.0155402074 0.163999996
v 0.352525641 -0.0146215106 0.163999996
v 0.352594844 -0.0132347807 0.163999996
v 0.35372216 -0.0124242941 0.163999996
v 0.352594844 -0.0132347807 0.163999996
v 0.352525641 -0.0146215106 0.163999996
v 0.353566656 -0.0155402074 0.163999996
v 0.354933991 -0.0152991093 0.163999996
v 0.355598013 -0.0140797683 0.163999996
v 0.355058695 -0.0128003371 0.163999996
v 0.35372216 -0.0124242941 0.211000004
v 0.355058695 -0.0128003371 0.211000004
v 0.355598013 -0.0140797683 0.211000004
v 0.354933991 -0.0152991093 0.211000004
v 0.353566656 -0.0155402074 0.211000004
v 0.352525641 -0.0146215106 0.211000004
v 0.352594844 -0.0132347807 0.211000004
v 0.354933991 -0.0152991093 0.163999996
v 0.354933991 -0.0152991093 0.211000004
f 1023 1024 1029
f 1029 1024 1025
f 1029 1025 1028
f 1028 1025 1026
f 1028 1026 1027
f 1030 1031 1036
f 1036 1031 1035
f 1035 1031 1032
f 1035 1032 1034
f 1034 1032 1033
f 1038 1044 1037
f 1037 1044 1045
f 1037 1045 1043
f 1043 1045 1046
f 1043 1046 1042
f 1042 1046 1052
f 1042 1052 1041
f 1051 1047 1048
f 1051 1048 1040
f 1040 1048 1049
f 1040 1049 1039
f 1039 1049 1050
f 1039 1050 1038
f 1038 1050 1044
v 0.353305408 -0.0100607765 0.370499992
v 0.351850805 -0.0106264488 0.370499992
v 0.350723393 -0.0117056987 0.370499992
v 0.350094815 -0.0131342365 0.370499992
v 0.350060766 -0.0146945777 0.370499992
v 0.350626437 -0.016149211 0.370499992
v 0.351705695 -0.0172766111 0.370499992
v 0.353134241 -0.0179051768 0.370499992
v 0.354694592 -0.0179392311 0.370499992
v 0.356149197 -0.0173735586 0.370499992
v 0.357276609 -0.0162943087 0.370499992
v 0.357905186 -0.0148657711 0.370499992
v 0.357939228 -0.0133053923 0.370499992
v 0.357373564 -0.0118507966 0.370499992
v 0.356294307 -0.0107233963 0.370499992
v 0.354865761 -0.0100948306 0.370499992
v 0.353305408 -0.0100607765 0.388499985
v 0.354865761 -0.0100948306 0.388499985
v 0.356294307 -0.0107233963 0.388499985
v 0.357373564 -0.0118507966 0.388499985
v 0.357939228 -0.0133053923 0.388499985
v 0.357905186 -0.0148657711 0.388499985
v 0.357276609 -0.0162943087 0.388499985
v 0.356149197 -0.0173735586 0.388499985
v 0.354694592 -0.0179392311 0.388499985
v 0.353134241 -0.0179051768 0.388499985
v 0.351705695 -0.0172766111 0.388499985
v 0.350626437 -0.016149211 0.388499985
v 0.350060766 -0.0146945777 0.388499985
v 0.350094815 -0.0131342365 0.388499985
v 0.350723393 -0.0117056987 0.388499985
v 0.351850805 -0.0106264488 0.388499985
v 0.354694592 -0.0179392311 0.370499992
v 0.354694592 -0.0179392311 0.388499985
v 0.353305408 -0.0100607765 0.388499985
v 0.351850805 -0.0106264488 0.388499985
v 0.350723393 -0.0117056987 0.388499985
v 0.350094815 -0.0131342365 0.388499985
v 0.350060766 -0.0146945777 0.388499985
v 0.350626437 -0.016149211 0.388499985
v 0.351705695 -0.0172766111 0.388499985
v 0.353134241 -0.0179051768 0.388499985
v 0.354694592 -0.0179392311 0.388499985
v 0.356149197 -0.0173735586 0.388499985
v 0.357276609 -0.0162943087 0.388499985
v 0.357905186 -0.0148657711 0.388499985
v 0.357939228 -0.0133053923 0.388499985
v 0.357373564 -0.0118507966 0.388499985
v 0.356294307 -0.0107233963 0.388499985
v 0.354865761 -0.0100948306 0.388499985
v 0.353305408 -0.0100607765 0.370499992
v 0.354865761 -0.0100948306 0.370499992
v 0.356294307 -0.0107233963 0.370499992
v 0.357373564 -0.0118507966 0.370499992
v 0.357939228 -0.0133053923 0.370499992
v 0.357905186 -0.0148657711 0.370499992
v 0.357276609 -0.0162943087 0.370499992
v 0.356149197 -0.0173735586 0.370499992
v 0.354694592 -0.0179392311 0.370499992
v 0.353134241 -0.0179051768 0.370499992
v 0.351705695 -0.0172766111 0.370499992
v 0.350626437 -0.016149211 0.370499992
v 0.350060766 -0.0146945777 0.370499992
v 0.350094815 -0.0131342365 0.370499992
v 0.350723393 -0.0117056987 0.370499992
v 0.351850805 -0.0106264488 0.370499992
f 1054 1069 1053
f 1053 1069 1070
f 1053 1070 1068
f 1068 1070 1071
f 1068 1071 1067
f 1067 1071 1072
f 1067 1072 1066
f 1066 1072 1073
f 1066 1073 1065
f 1065 1073 1074
f 1065 1074 1064
f 1064 1074 1075
f 1064 1075 1063
f 1063 1075 1076
f 1063 1076 1062
f 1062 1076 1061
f 1061 1076 1086
f 1085 1077 1060
f 1060 1077 1078
f 1060 1078 1079
f 1069 1054 1084
f 1084 1054 1055
f 1084 1055 1083
f 1083 1055 1056
f 1083 1056 1082
f 1082 1056 1057
f 1082 1057 1081
f 1081 1057 1058
f 1081 1058 1080
f 1080 1058 1059
f 1080 1059 1079
f 1079 1059 1060
f 1088 1094 1087
f 1087 1094 1095
f 1087 1095 1102
f 1102 1095 1096
f 1102 1096 1101
f 1101 1096 1097
f 1101 1097 1100
f 1100 1097 1098
f 1100 1098 1099
f 1094 1088 1093
f 1093 1088 1089
f 1093 1089 1092
f 1092 1089 1090
f 1092 1090 1091
f 1104 1110 1103
f 1103 1110 1111
f 1103 1111 1118
f 1118 1111 1112
f 1118 1112 1117
f 1117 1112 1113
f 1117 1113 1116
f 1116 1113 1114
f 1116 1114 1115
f 1110 1104 1109
f 1109 1104 1105
f 1109 1105 1108
f 1108 1105 1106
f 1108 1106 1107
v 0.35372216 -0.0124242941 0.355999985
v 0.355058695 -0.0128003371 0.355999985
v 0.355598013 -0.0140797683 0.355999985
v 0.354933991 -0.0152991093 0.355999985
v 0.353566656 -0.0155402074 0.355999985
v 0.352525641 -0.0146215106 0.355999985
v 0.352594844 -0.0132347807 0.355999985
v 0.35372216 -0.0124242941 0.402999992
v 0.352594844 -0.0132347807 0.402999992
v 0.352525641 -0.0146215106 0.402999992
v 0.353566656 -0.0155402074 0.402999992
v 0.354933991 -0.0152991093 0.402999992
v 0.355598013 -0.0140797683 0.402999992
v 0.355058695 -0.0128003371 0.402999992
v 0.35372216 -0.0124242941 0.355999985
v 0.352594844 -0.0132347807 0.355999985
v 0.352525641 -0.0146215106 0.355999985
v 0.353566656 -0.0155402074 0.355999985
v 0.354933991 -0.0152991093 0.355999985
v 0.355598013 -0.0140797683 0.355999985
v 0.355058695 -0.0128003371 0.355999985
v 0.35372216 -0.0124242941 0.402999992
v 0.355058695 -0.0128003371 0.402999992
v 0.355598013 -0.0140797683 0.402999992
v 0.354933991 -0.0152991093 0.402999992
v 0.353566656 -0.0155402074 0.402999992
v 0.352525641 -0.0146215106 0.402999992
v 0.352594844 -0.0132347807 0.402999992
v 0.354933991 -0.0152991093 0.355999985
v 0.354933991 -0.0152991093 0.402999992
f 1119 1120 1125
f 1125 1120 1124
f 1124 1120 1121
f 1124 1121 1123
f 1123 1121 1122
f 1126 1127 1132
f 1132 1127 1128
f 1132 1128 1131
f 1131 1128 1129
f 1131 1129 1130
f 1134 1140 1133
f 1133 1140 1141
f 1133 1141 1139
f 1139 1141 1142
f 1139 1142 1138
f 1138 1142 1148
f 1138 1148 1137
f 1147 1143 1144
f 1147 1144 1136
f 1136 1144 1145
f 1136 1145 1135
f 1135 1145 1146
f 1135 1146 1134
f 1134 1146 1140
