v 0.207000008 0.262999992 0.1575
v 0.208999996 0.262999992 0.1575
v 0.208999996 0.18 0.1575
v 0.207000008 0.18 0.1575
v 0.208999996 0.262999992 0.159499998
v 0.207000008 0.262999992 0.159499998
v 0.207000008 0.18 0.159499998
v 0.208999996 0.18 0.159499998
v 0.208999996 0.262999992 0.1575
v 0.208999996 0.262999992 0.159499998
v 0.208999996 0.18 0.159499998
v 0.208999996 0.18 0.1575
v 0.207000008 0.262999992 0.1575
v 0.207000008 0.262999992 0.159499998
v 0.208999996 0.262999992 0.159499998
v 0.208999996 0.262999992 0.1575
v 0.207000008 0.18 0.159499998
v 0.207000008 0.18 0.1575
v 0.208999996 0.18 0.1575
v 0.208999996 0.18 0.159499998
v 0.207000008 0.262999992 0.159499998
v 0.207000008 0.262999992 0.1575
v 0.207000008 0.18 0.1575
v 0.207000008 0.18 0.159499998
f 1 2 4
f 4 2 3
f 5 6 8
f 8 6 7
f 9 10 12
f 12 10 11
f 14 15 13
f 13 15 16
f 18 19 17
f 17 19 20
f 21 22 24
f 24 22 23
v 0.207000008 0.262999992 0.167999992
v 0.208999996 0.262999992 0.167999992
v 0.208999996 0.18 0.167999992
v 0.207000008 0.18 0.167999992
v 0.208999996 0.262999992 0.167999992
v 0.208999996 0.262999992 0.17
v 0.208999996 0.18 0.17
v 0.208999996 0.18 0.167999992
v 0.208999996 0.262999992 0.17
v 0.207000008 0.262999992 0.17
v 0.207000008 0.18 0.17
v 0.208999996 0.18 0.17
v 0.207000008 0.262999992 0.167999992
v 0.207000008 0.262999992 0.17
v 0.208999996 0.262999992 0.17
v 0.208999996 0.262999992 0.167999992
v 0.207000008 0.18 0.17
v 0.207000008 0.18 0.167999992
v 0.208999996 0.18 0.167999992
v 0.208999996 0.18 0.17
v 0.207000008 0.262999992 0.17
v 0.207000008 0.262999992 0.167999992
v 0.207000008 0.18 0.167999992
v 0.207000008 0.18 0.17
f 25 26 28
f 28 26 27
f 29 30 32
f 32 30 31
f 33 34 36
f 36 34 35
f 38 39 37
f 37 39 40
f 42 43 41
f 41 43 44
f 45 46 48
f 48 46 47
v 0.207000008 0.262999992 0.178500004
v 0.208999996 0.262999992 0.178500004
v 0.208999996 0.18 0.178500004
v 0.207000008 0.18 0.178500004
v 0.208999996 0.262999992 0.178500004
v 0.208999996 0.262999992 0.180499992
v 0.208999996 0.18 0.180499992
v 0.208999996 0.18 0.178500004
v 0.208999996 0.262999992 0.180499992
v 0.207000008 0.262999992 0.180499992
v 0.207000008 0.18 0.180499992
v 0.208999996 0.18 0.180499992
v 0.207000008 0.262999992 0.178500004
v 0.207000008 0.262999992 0.180499992
v 0.208999996 0.262999992 0.180499992
v 0.208999996 0.262999992 0.178500004
v 0.207000008 0.18 0.180499992
v 0.207000008 0.18 0.178500004
v 0.208999996 0.18 0.178500004
v 0.208999996 0.18 0.180499992
v 0.207000008 0.262999992 0.180499992
v 0.207000008 0.262999992 0.178500004
v 0.207000008 0.18 0.178500004
v 0.207000008 0.18 0.180499992
f 49 50 52
f 52 50 51
f 53 54 56
f 56 54 55
f 57 58 60
f 60 58 59
f 62 63 61
f 61 63 64
f 66 67 65
f 65 67 68
f 69 70 72
f 72 70 71
v 0.207000008 0.262999992 0.188999996
v 0.208999996 0.262999992 0.188999996
v 0.208999996 0.18 0.188999996
v 0.207000008 0.18 0.188999996
v 0.208999996 0.262999992 0.188999996
v 0.208999996 0.262999992 0.191000004
v 0.208999996 0.18 0.191000004
v 0.208999996 0.18 0.188999996
v 0.208999996 0.262999992 0.191000004
v 0.207000008 0.262999992 0.191000004
v 0.207000008 0.18 0.191000004
v 0.208999996 0.18 0.191000004
v 0.207000008 0.262999992 0.188999996
v 0.207000008 0.262999992 0.191000004
v 0.208999996 0.262999992 0.191000004
v 0.208999996 0.262999992 0.188999996
v 0.207000008 0.18 0.191000004
v 0.207000008 0.18 0.188999996
v 0.208999996 0.18 0.188999996
v 0.208999996 0.18 0.191000004
v 0.207000008 0.262999992 0.191000004
v 0.207000008 0.262999992 0.188999996
v 0.207000008 0.18 0.188999996
v 0.207000008 0.18 0.191000004
f 73 74 76
f 76 74 75
f 77 78 80
f 80 78 79
f 81 82 84
f 84 82 83
f 86 87 85
f 85 87 88
f 90 91 89
f 89 91 92
f 93 94 96
f 96 94 95
v 0.207000008 0.262999992 0.199500008
v 0.208999996 0.262999992 0.199500008
v 0.208999996 0.18 0.199500008
v 0.207000008 0.18 0.199500008
v 0.208999996 0.262999992 0.201499996
v 0.207000008 0.262999992 0.201499996
v 0.207000008 0.18 0.201499996
v 0.208999996 0.18 0.201499996
v 0.208999996 0.262999992 0.199500008
v 0.208999996 0.262999992 0.201499996
v 0.208999996 0.18 0.201499996
v 0.208999996 0.18 0.199500008
v 0.207000008 0.262999992 0.199500008
v 0.207000008 0.262999992 0.201499996
v 0.208999996 0.262999992 0.201499996
v 0.208999996 0.262999992 0.199500008
v 0.207000008 0.18 0.201499996
v 0.207000008 0.18 0.199500008
v 0.208999996 0.18 0.199500008
v 0.208999996 0.18 0.201499996
v 0.207000008 0.262999992 0.201499996
v 0.207000008 0.262999992 0.199500008
v 0.207000008 0.18 0.199500008
v 0.207000008 0.18 0.201499996
f 97 98 100
f 100 98 99
f 101 102 104
f 104 102 103
f 105 106 108
f 108 106 107
f 110 111 109
f 109 111 112
f 114 115 113
f 113 115 116
f 117 118 120
f 120 118 119
v 0.207000008 0.262999992 0.21
v 0.208999996 0.262999992 0.21
v 0.208999996 0.18 0.21
v 0.207000008 0.18 0.21
v 0.208999996 0.262999992 0.212000008
v 0.207000008 0.262999992 0.212000008
v 0.207000008 0.18 0.212000008
v 0.208999996 0.18 0.212000008
v 0.208999996 0.262999992 0.21
v 0.208999996 0.262999992 0.212000008
v 0.208999996 0.18 0.212000008
v 0.208999996 0.18 0.21
v 0.207000008 0.262999992 0.21
v 0.207000008 0.262999992 0.212000008
v 0.208999996 0.262999992 0.212000008
v 0.208999996 0.262999992 0.21
v 0.207000008 0.18 0.212000008
v 0.207000008 0.18 0.21
v 0.208999996 0.18 0.21
v 0.208999996 0.18 0.212000008
v 0.207000008 0.262999992 0.212000008
v 0.207000008 0.262999992 0.21
v 0.207000008 0.18 0.21
v 0.207000008 0.18 0.212000008
f 121 122 124
f 124 122 123
f 125 126 128
f 128 126 127
f 129 130 132
f 132 130 131
f 134 135 133
f 133 135 136
f 138 139 137
f 137 139 140
f 141 142 144
f 144 142 143
v 0.207000008 0.262999992 0.220499992
v 0.208999996 0.262999992 0.220499992
v 0.208999996 0.18 0.220499992
v 0.207000008 0.18 0.220499992
v 0.208999996 0.262999992 0.220499992
v 0.208999996 0.262999992 0.2225
v 0.208999996 0.18 0.2225
v 0.208999996 0.18 0.220499992
v 0.208999996 0.262999992 0.2225
v 0.207000008 0.262999992 0.2225
v 0.207000008 0.18 0.2225
v 0.208999996 0.18 0.2225
v 0.207000008 0.262999992 0.220499992
v 0.207000008 0.262999992 0.2225
v 0.208999996 0.262999992 0.2225
v 0.208999996 0.262999992 0.220499992
v 0.207000008 0.18 0.2225
v 0.207000008 0.18 0.220499992
v 0.208999996 0.18 0.220499992
v 0.208999996 0.18 0.2225
v 0.207000008 0.262999992 0.2225
v 0.207000008 0.262999992 0.220499992
v 0.207000008 0.18 0.220499992
v 0.207000008 0.18 0.2225
f 145 146 148
f 148 146 147
f 149 150 152
f 152 150 151
f 153 154 156
f 156 154 155
f 158 159 157
f 157 159 160
f 162 163 161
f 161 163 164
f 165 166 168
f 168 166 167
v 0.207000008 0.262999992 0.231000004
v 0.208999996 0.262999992 0.231000004
v 0.208999996 0.18 0.231000004
v 0.207000008 0.18 0.231000004
v 0.208999996 0.262999992 0.232999992
v 0.207000008 0.262999992 0.232999992
v 0.207000008 0.18 0.232999992
v 0.208999996 0.18 0.232999992
v 0.208999996 0.262999992 0.231000004
v 0.208999996 0.262999992 0.232999992
v 0.208999996 0.18 0.232999992
v 0.208999996 0.18 0.231000004
v 0.207000008 0.262999992 0.231000004
v 0.207000008 0.262999992 0.232999992
v 0.208999996 0.262999992 0.232999992
v 0.208999996 0.262999992 0.231000004
v 0.207000008 0.18 0.232999992
v 0.207000008 0.18 0.231000004
v 0.208999996 0.18 0.231000004
v 0.208999996 0.18 0.232999992
v 0.207000008 0.262999992 0.232999992
v 0.207000008 0.262999992 0.231000004
v 0.207000008 0.18 0.231000004
v 0.207000008 0.18 0.232999992
f 169 170 172
f 172 170 171
f 173 174 176
f 176 174 175
f 177 178 180
f 180 178 179
f 182 183 181
f 181 183 184
f 186 187 185
f 185 187 188
f 189 190 192
f 192 190 191
v 0.207000008 0.262999992 0.241499996
v 0.208999996 0.262999992 0.241499996
v 0.208999996 0.18 0.241499996
v 0.207000008 0.18 0.241499996
v 0.208999996 0.262999992 0.241499996
v 0.208999996 0.262999992 0.243500004
v 0.208999996 0.18 0.243500004
v 0.208999996 0.18 0.241499996
v 0.208999996 0.262999992 0.243500004
v 0.207000008 0.262999992 0.243500004
v 0.207000008 0.18 0.243500004
v 0.208999996 0.18 0.243500004
v 0.207000008 0.262999992 0.241499996
v 0.207000008 0.262999992 0.243500004
v 0.208999996 0.262999992 0.243500004
v 0.208999996 0.262999992 0.241499996
v 0.207000008 0.18 0.243500004
v 0.207000008 0.18 0.241499996
v 0.208999996 0.18 0.241499996
v 0.208999996 0.18 0.243500004
v 0.207000008 0.262999992 0.243500004
v 0.207000008 0.262999992 0.241499996
v 0.207000008 0.18 0.241499996
v 0.207000008 0.18 0.243500004
f 193 194 196
f 196 194 195
f 197 198 200
f 200 198 199
f 201 202 204
f 204 202 203
f 206 207 205
f 205 207 208
f 210 211 209
f 209 211 212
f 213 214 216
f 216 214 215
v 0.207000008 0.262999992 0.252000008
v 0.208999996 0.262999992 0.252000008
v 0.208999996 0.18 0.252000008
v 0.207000008 0.18 0.252000008
v 0.208999996 0.262999992 0.252000008
v 0.208999996 0.262999992 0.253999996
v 0.208999996 0.18 0.253999996
v 0.208999996 0.18 0.252000008
v 0.208999996 0.262999992 0.253999996
v 0.207000008 0.262999992 0.253999996
v 0.207000008 0.18 0.253999996
v 0.208999996 0.18 0.253999996
v 0.207000008 0.262999992 0.252000008
v 0.207000008 0.262999992 0.253999996
v 0.208999996 0.262999992 0.253999996
v 0.208999996 0.262999992 0.252000008
v 0.207000008 0.18 0.253999996
v 0.207000008 0.18 0.252000008
v 0.208999996 0.18 0.252000008
v 0.208999996 0.18 0.253999996
v 0.207000008 0.262999992 0.253999996
v 0.207000008 0.262999992 0.252000008
v 0.207000008 0.18 0.252000008
v 0.207000008 0.18 0.253999996
f 217 218 220
f 220 218 219
f 221 222 224
f 224 222 223
f 225 226 228
f 228 226 227
f 230 231 229
f 229 231 232
f 234 235 233
f 233 235 236
f 237 238 240
f 240 238 239
v 0.201000004 0.262999992 0.1575
v 0.202999992 0.262999992 0.1575
v 0.202999992 0.18 0.1575
v 0.201000004 0.18 0.1575
v 0.202999992 0.262999992 0.159499998
v 0.201000004 0.262999992 0.159499998
v 0.201000004 0.18 0.159499998
v 0.202999992 0.18 0.159499998
v 0.202999992 0.262999992 0.1575
v 0.202999992 0.262999992 0.159499998
v 0.202999992 0.18 0.159499998
v 0.202999992 0.18 0.1575
v 0.201000004 0.262999992 0.1575
v 0.201000004 0.262999992 0.159499998
v 0.202999992 0.262999992 0.159499998
v 0.202999992 0.262999992 0.1575
v 0.201000004 0.18 0.159499998
v 0.201000004 0.18 0.1575
v 0.202999992 0.18 0.1575
v 0.202999992 0.18 0.159499998
v 0.201000004 0.262999992 0.159499998
v 0.201000004 0.262999992 0.1575
v 0.201000004 0.18 0.1575
v 0.201000004 0.18 0.159499998
f 241 242 244
f 244 242 243
f 245 246 248
f 248 246 247
f 249 250 252
f 252 250 251
f 254 255 253
f 253 255 256
f 258 259 257
f 257 259 260
f 261 262 264
f 264 262 263
v 0.201000004 0.262999992 0.167999992
v 0.202999992 0.262999992 0.167999992
v 0.202999992 0.18 0.167999992
v 0.201000004 0.18 0.167999992
v 0.202999992 0.262999992 0.167999992
v 0.202999992 0.262999992 0.17
v 0.202999992 0.18 0.17
v 0.202999992 0.18 0.167999992
v 0.202999992 0.262999992 0.17
v 0.201000004 0.262999992 0.17
v 0.201000004 0.18 0.17
v 0.202999992 0.18 0.17
v 0.201000004 0.262999992 0.167999992
v 0.201000004 0.262999992 0.17
v 0.202999992 0.262999992 0.17
v 0.202999992 0.262999992 0.167999992
v 0.201000004 0.18 0.17
v 0.201000004 0.18 0.167999992
v 0.202999992 0.18 0.167999992
v 0.202999992 0.18 0.17
v 0.201000004 0.262999992 0.17
v 0.201000004 0.262999992 0.167999992
v 0.201000004 0.18 0.167999992
v 0.201000004 0.18 0.17
f 265 266 268
f 268 266 267
f 269 270 272
f 272 270 271
f 273 274 276
f 276 274 275
f 278 279 277
f 277 279 280
f 282 283 281
f 281 283 284
f 285 286 288
f 288 286 287
v 0.201000004 0.262999992 0.178500004
v 0.202999992 0.262999992 0.178500004
v 0.202999992 0.18 0.178500004
v 0.201000004 0.18 0.178500004
v 0.202999992 0.262999992 0.180499992
v 0.201000004 0.262999992 0.180499992
v 0.201000004 0.18 0.180499992
v 0.202999992 0.18 0.180499992
v 0.202999992 0.262999992 0.178500004
v 0.202999992 0.262999992 0.180499992
v 0.202999992 0.18 0.180499992
v 0.202999992 0.18 0.178500004
v 0.201000004 0.262999992 0.178500004
v 0.201000004 0.262999992 0.180499992
v 0.202999992 0.262999992 0.180499992
v 0.202999992 0.262999992 0.178500004
v 0.201000004 0.18 0.180499992
v 0.201000004 0.18 0.178500004
v 0.202999992 0.18 0.178500004
v 0.202999992 0.18 0.180499992
v 0.201000004 0.262999992 0.180499992
v 0.201000004 0.262999992 0.178500004
v 0.201000004 0.18 0.178500004
v 0.201000004 0.18 0.180499992
f 289 290 292
f 292 290 291
f 293 294 296
f 296 294 295
f 297 298 300
f 300 298 299
f 302 303 301
f 301 303 304
f 306 307 305
f 305 307 308
f 309 310 312
f 312 310 311
v 0.201000004 0.262999992 0.188999996
v 0.202999992 0.262999992 0.188999996
v 0.202999992 0.18 0.188999996
v 0.201000004 0.18 0.188999996
v 0.202999992 0.262999992 0.191000004
v 0.201000004 0.262999992 0.191000004
v 0.201000004 0.18 0.191000004
v 0.202999992 0.18 0.191000004
v 0.202999992 0.262999992 0.188999996
v 0.202999992 0.262999992 0.191000004
v 0.202999992 0.18 0.191000004
v 0.202999992 0.18 0.188999996
v 0.201000004 0.262999992 0.188999996
v 0.201000004 0.262999992 0.191000004
v 0.202999992 0.262999992 0.191000004
v 0.202999992 0.262999992 0.188999996
v 0.201000004 0.18 0.191000004
v 0.201000004 0.18 0.188999996
v 0.202999992 0.18 0.188999996
v 0.202999992 0.18 0.191000004
v 0.201000004 0.262999992 0.191000004
v 0.201000004 0.262999992 0.188999996
v 0.201000004 0.18 0.188999996
v 0.201000004 0.18 0.191000004
f 313 314 316
f 316 314 315
f 317 318 320
f 320 318 319
f 321 322 324
f 324 322 323
f 326 327 325
f 325 327 328
f 330 331 329
f 329 331 332
f 333 334 336
f 336 334 335
v 0.201000004 0.262999992 0.199500008
v 0.202999992 0.262999992 0.199500008
v 0.202999992 0.18 0.199500008
v 0.201000004 0.18 0.199500008
v 0.202999992 0.262999992 0.201499996
v 0.201000004 0.262999992 0.201499996
v 0.201000004 0.18 0.201499996
v 0.202999992 0.18 0.201499996
v 0.202999992 0.262999992 0.199500008
v 0.202999992 0.262999992 0.201499996
v 0.202999992 0.18 0.201499996
v 0.202999992 0.18 0.199500008
v 0.201000004 0.262999992 0.199500008
v 0.201000004 0.262999992 0.201499996
v 0.202999992 0.262999992 0.201499996
v 0.202999992 0.262999992 0.199500008
v 0.201000004 0.18 0.201499996
v 0.201000004 0.18 0.199500008
v 0.202999992 0.18 0.199500008
v 0.202999992 0.18 0.201499996
v 0.201000004 0.262999992 0.201499996
v 0.201000004 0.262999992 0.199500008
v 0.201000004 0.18 0.199500008
v 0.201000004 0.18 0.201499996
f 337 338 340
f 340 338 339
f 341 342 344
f 344 342 343
f 345 346 348
f 348 346 347
f 350 351 349
f 349 351 352
f 354 355 353
f 353 355 356
f 357 358 360
f 360 358 359
v 0.202999992 0.262999992 0.21
v 0.202999992 0.262999992 0.212000008
v 0.202999992 0.18 0.212000008
v 0.202999992 0.18 0.21
v 0.202999992 0.262999992 0.212000008
v 0.201000004 0.262999992 0.212000008
v 0.201000004 0.18 0.212000008
v 0.202999992 0.18 0.212000008
v 0.201000004 0.262999992 0.21
v 0.201000004 0.262999992 0.212000008
v 0.202999992 0.262999992 0.212000008
v 0.202999992 0.262999992 0.21
v 0.201000004 0.18 0.212000008
v 0.201000004 0.18 0.21
v 0.202999992 0.18 0.21
v 0.202999992 0.18 0.212000008
v 0.201000004 0.262999992 0.212000008
v 0.201000004 0.262999992 0.21
v 0.201000004 0.18 0.21
v 0.201000004 0.18 0.212000008
v 0.201000004 0.262999992 0.21
v 0.202999992 0.262999992 0.21
v 0.202999992 0.18 0.21
v 0.201000004 0.18 0.21
f 361 362 364
f 364 362 363
f 365 366 368
f 368 366 367
f 370 371 369
f 369 371 372
f 374 375 373
f 373 375 376
f 377 378 380
f 380 378 379
f 381 382 384
f 384 382 383
v 0.202999992 0.262999992 0.2225
v 0.201000004 0.262999992 0.2225
v 0.201000004 0.18 0.2225
v 0.202999992 0.18 0.2225
v 0.202999992 0.262999992 0.220499992
v 0.202999992 0.262999992 0.2225
v 0.202999992 0.18 0.2225
v 0.202999992 0.18 0.220499992
v 0.201000004 0.262999992 0.220499992
v 0.201000004 0.262999992 0.2225
v 0.202999992 0.262999992 0.2225
v 0.202999992 0.262999992 0.220499992
v 0.201000004 0.18 0.2225
v 0.201000004 0.18 0.220499992
v 0.202999992 0.18 0.220499992
v 0.202999992 0.18 0.2225
v 0.201000004 0.262999992 0.2225
v 0.201000004 0.262999992 0.220499992
v 0.201000004 0.18 0.220499992
v 0.201000004 0.18 0.2225
v 0.201000004 0.262999992 0.220499992
v 0.202999992 0.262999992 0.220499992
v 0.202999992 0.18 0.220499992
v 0.201000004 0.18 0.220499992
f 385 386 388
f 388 386 387
f 389 390 392
f 392 390 391
f 394 395 393
f 393 395 396
f 398 399 397
f 397 399 400
f 401 402 404
f 404 402 403
f 405 406 408
f 408 406 407
v 0.202999992 0.262999992 0.231000004
v 0.202999992 0.262999992 0.232999992
v 0.202999992 0.18 0.232999992
v 0.202999992 0.18 0.231000004
v 0.202999992 0.262999992 0.232999992
v 0.201000004 0.262999992 0.232999992
v 0.201000004 0.18 0.232999992
v 0.202999992 0.18 0.232999992
v 0.201000004 0.262999992 0.231000004
v 0.201000004 0.262999992 0.232999992
v 0.202999992 0.262999992 0.232999992
v 0.202999992 0.262999992 0.231000004
v 0.201000004 0.18 0.232999992
v 0.201000004 0.18 0.231000004
v 0.202999992 0.18 0.231000004
v 0.202999992 0.18 0.232999992
v 0.201000004 0.262999992 0.232999992
v 0.201000004 0.262999992 0.231000004
v 0.201000004 0.18 0.231000004
v 0.201000004 0.18 0.232999992
v 0.201000004 0.262999992 0.231000004
v 0.202999992 0.262999992 0.231000004
v 0.202999992 0.18 0.231000004
v 0.201000004 0.18 0.231000004
f 409 410 412
f 412 410 411
f 413 414 416
f 416 414 415
f 418 419 417
f 417 419 420
f 422 423 421
f 421 423 424
f 425 426 428
f 428 426 427
f 429 430 432
f 432 430 431
v 0.202999992 0.262999992 0.241499996
v 0.202999992 0.262999992 0.243500004
v 0.202999992 0.18 0.243500004
v 0.202999992 0.18 0.241499996
v 0.202999992 0.262999992 0.243500004
v 0.201000004 0.262999992 0.243500004
v 0.201000004 0.18 0.243500004
v 0.202999992 0.18 0.243500004
v 0.201000004 0.262999992 0.241499996
v 0.201000004 0.262999992 0.243500004
v 0.202999992 0.262999992 0.243500004
v 0.202999992 0.262999992 0.241499996
v 0.201000004 0.18 0.243500004
v 0.201000004 0.18 0.241499996
v 0.202999992 0.18 0.241499996
v 0.202999992 0.18 0.243500004
v 0.201000004 0.262999992 0.243500004
v 0.201000004 0.262999992 0.241499996
v 0.201000004 0.18 0.241499996
v 0.201000004 0.18 0.243500004
v 0.201000004 0.262999992 0.241499996
v 0.202999992 0.262999992 0.241499996
v 0.202999992 0.18 0.241499996
v 0.201000004 0.18 0.241499996
f 433 434 436
f 436 434 435
f 437 438 440
f 440 438 439
f 442 443 441
f 441 443 444
f 446 447 445
f 445 447 448
f 449 450 452
f 452 450 451
f 453 454 456
f 456 454 455
v 0.202999992 0.262999992 0.253999996
v 0.201000004 0.262999992 0.253999996
v 0.201000004 0.18 0.253999996
v 0.202999992 0.18 0.253999996
v 0.202999992 0.262999992 0.252000008
v 0.202999992 0.262999992 0.253999996
v 0.202999992 0.18 0.253999996
v 0.202999992 0.18 0.252000008
v 0.201000004 0.262999992 0.252000008
v 0.201000004 0.262999992 0.253999996
v 0.202999992 0.262999992 0.253999996
v 0.202999992 0.262999992 0.252000008
v 0.201000004 0.18 0.253999996
v 0.201000004 0.18 0.252000008
v 0.202999992 0.18 0.252000008
v 0.202999992 0.18 0.253999996
v 0.201000004 0.262999992 0.253999996
v 0.201000004 0.262999992 0.252000008
v 0.201000004 0.18 0.252000008
v 0.201000004 0.18 0.253999996
v 0.201000004 0.262999992 0.252000008
v 0.202999992 0.262999992 0.252000008
v 0.202999992 0.18 0.252000008
v 0.201000004 0.18 0.252000008
f 457 458 460
f 460 458 459
f 461 462 464
f 464 462 463
f 466 467 465
f 465 467 468
f 470 471 469
f 469 471 472
f 473 474 476
f 476 474 475
f 477 478 480
f 480 478 479
v 0.175 0.262999992 0.241499996
v 0.175 0.262999992 0.243500004
v 0.175 0.18 0.243500004
v 0.175 0.18 0.241499996
v 0.175 0.262999992 0.243500004
v 0.172999992 0.262999992 0.243500004
v 0.172999992 0.18 0.243500004
v 0.175 0.18 0.243500004
v 0.172999992 0.262999992 0.241499996
v 0.172999992 0.262999992 0.243500004
v 0.175 0.262999992 0.243500004
v 0.175 0.262999992 0.241499996
v 0.172999992 0.18 0.243500004
v 0.172999992 0.18 0.241499996
v 0.175 0.18 0.241499996
v 0.175 0.18 0.243500004
v 0.172999992 0.262999992 0.243500004
v 0.172999992 0.262999992 0.241499996
v 0.172999992 0.18 0.241499996
v 0.172999992 0.18 0.243500004
v 0.172999992 0.262999992 0.241499996
v 0.175 0.262999992 0.241499996
v 0.175 0.18 0.241499996
v 0.172999992 0.18 0.241499996
f 481 482 484
f 484 482 483
f 485 486 488
f 488 486 487
f 490 491 489
f 489 491 492
f 494 495 493
f 493 495 496
f 497 498 500
f 500 498 499
f 501 502 504
f 504 502 503
v 0.175 0.262999992 0.231000004
v 0.175 0.262999992 0.232999992
v 0.175 0.18 0.232999992
v 0.175 0.18 0.231000004
v 0.175 0.262999992 0.232999992
v 0.172999992 0.262999992 0.232999992
v 0.172999992 0.18 0.232999992
v 0.175 0.18 0.232999992
v 0.172999992 0.262999992 0.231000004
v 0.172999992 0.262999992 0.232999992
v 0.175 0.262999992 0.232999992
v 0.175 0.262999992 0.231000004
v 0.172999992 0.18 0.232999992
v 0.172999992 0.18 0.231000004
v 0.175 0.18 0.231000004
v 0.175 0.18 0.232999992
v 0.172999992 0.262999992 0.232999992
v 0.172999992 0.262999992 0.231000004
v 0.172999992 0.18 0.231000004
v 0.172999992 0.18 0.232999992
v 0.172999992 0.262999992 0.231000004
v 0.175 0.262999992 0.231000004
v 0.175 0.18 0.231000004
v 0.172999992 0.18 0.231000004
f 505 506 508
f 508 506 507
f 509 510 512
f 512 510 511
f 514 515 513
f 513 515 516
f 518 519 517
f 517 519 520
f 521 522 524
f 524 522 523
f 525 526 528
f 528 526 527
v 0.175 0.262999992 0.220499992
v 0.175 0.262999992 0.2225
v 0.175 0.18 0.2225
v 0.175 0.18 0.220499992
v 0.175 0.262999992 0.2225
v 0.172999992 0.262999992 0.2225
v 0.172999992 0.18 0.2225
v 0.175 0.18 0.2225
v 0.172999992 0.262999992 0.220499992
v 0.172999992 0.262999992 0.2225
v 0.175 0.262999992 0.2225
v 0.175 0.262999992 0.220499992
v 0.172999992 0.18 0.2225
v 0.172999992 0.18 0.220499992
v 0.175 0.18 0.220499992
v 0.175 0.18 0.2225
v 0.172999992 0.262999992 0.2225
v 0.172999992 0.262999992 0.220499992
v 0.172999992 0.18 0.220499992
v 0.172999992 0.18 0.2225
v 0.172999992 0.262999992 0.220499992
v 0.175 0.262999992 0.220499992
v 0.175 0.18 0.220499992
v 0.172999992 0.18 0.220499992
f 529 530 532
f 532 530 531
f 533 534 536
f 536 534 535
f 538 539 537
f 537 539 540
f 542 543 541
f 541 543 544
f 545 546 548
f 548 546 547
f 549 550 552
f 552 550 551
v 0.175 0.262999992 0.21
v 0.175 0.262999992 0.212000008
v 0.175 0.18 0.212000008
v 0.175 0.18 0.21
v 0.175 0.262999992 0.212000008
v 0.172999992 0.262999992 0.212000008
v 0.172999992 0.18 0.212000008
v 0.175 0.18 0.212000008
v 0.172999992 0.262999992 0.21
v 0.172999992 0.262999992 0.212000008
v 0.175 0.262999992 0.212000008
v 0.175 0.262999992 0.21
v 0.172999992 0.18 0.212000008
v 0.172999992 0.18 0.21
v 0.175 0.18 0.21
v 0.175 0.18 0.212000008
v 0.172999992 0.262999992 0.212000008
v 0.172999992 0.262999992 0.21
v 0.172999992 0.18 0.21
v 0.172999992 0.18 0.212000008
v 0.172999992 0.262999992 0.21
v 0.175 0.262999992 0.21
v 0.175 0.18 0.21
v 0.172999992 0.18 0.21
f 553 554 556
f 556 554 555
f 557 558 560
f 560 558 559
f 562 563 561
f 561 563 564
f 566 567 565
f 565 567 568
f 569 570 572
f 572 570 571
f 573 574 576
f 576 574 575
v 0.175 0.262999992 0.199500008
v 0.175 0.262999992 0.201499996
v 0.175 0.18 0.201499996
v 0.175 0.18 0.199500008
v 0.175 0.262999992 0.201499996
v 0.172999992 0.262999992 0.201499996
v 0.172999992 0.18 0.201499996
v 0.175 0.18 0.201499996
v 0.172999992 0.262999992 0.199500008
v 0.172999992 0.262999992 0.201499996
v 0.175 0.262999992 0.201499996
v 0.175 0.262999992 0.199500008
v 0.172999992 0.18 0.201499996
v 0.172999992 0.18 0.199500008
v 0.175 0.18 0.199500008
v 0.175 0.18 0.201499996
v 0.172999992 0.262999992 0.201499996
v 0.172999992 0.262999992 0.199500008
v 0.172999992 0.18 0.199500008
v 0.172999992 0.18 0.201499996
v 0.172999992 0.262999992 0.199500008
v 0.175 0.262999992 0.199500008
v 0.175 0.18 0.199500008
v 0.172999992 0.18 0.199500008
f 577 578 580
f 580 578 579
f 581 582 584
f 584 582 583
f 586 587 585
f 585 587 588
f 590 591 589
f 589 591 592
f 593 594 596
f 596 594 595
f 597 598 600
f 600 598 599
v 0.175 0.262999992 0.188999996
v 0.175 0.262999992 0.191000004
v 0.175 0.18 0.191000004
v 0.175 0.18 0.188999996
v 0.175 0.262999992 0.191000004
v 0.172999992 0.262999992 0.191000004
v 0.172999992 0.18 0.191000004
v 0.175 0.18 0.191000004
v 0.172999992 0.262999992 0.188999996
v 0.172999992 0.262999992 0.191000004
v 0.175 0.262999992 0.191000004
v 0.175 0.262999992 0.188999996
v 0.172999992 0.18 0.191000004
v 0.172999992 0.18 0.188999996
v 0.175 0.18 0.188999996
v 0.175 0.18 0.191000004
v 0.172999992 0.262999992 0.191000004
v 0.172999992 0.262999992 0.188999996
v 0.172999992 0.18 0.188999996
v 0.172999992 0.18 0.191000004
v 0.172999992 0.262999992 0.188999996
v 0.175 0.262999992 0.188999996
v 0.175 0.18 0.188999996
v 0.172999992 0.18 0.188999996
f 601 602 604
f 604 602 603
f 605 606 608
f 608 606 607
f 610 611 609
f 609 611 612
f 614 615 613
f 613 615 616
f 617 618 620
f 620 618 619
f 621 622 624
f 624 622 623
v 0.175 0.262999992 0.178500004
v 0.175 0.262999992 0.180499992
v 0.175 0.18 0.180499992
v 0.175 0.18 0.178500004
v 0.175 0.262999992 0.180499992
v 0.172999992 0.262999992 0.180499992
v 0.172999992 0.18 0.180499992
v 0.175 0.18 0.180499992
v 0.172999992 0.262999992 0.178500004
v 0.172999992 0.262999992 0.180499992
v 0.175 0.262999992 0.180499992
v 0.175 0.262999992 0.178500004
v 0.172999992 0.18 0.180499992
v 0.172999992 0.18 0.178500004
v 0.175 0.18 0.178500004
v 0.175 0.18 0.180499992
v 0.172999992 0.262999992 0.180499992
v 0.172999992 0.262999992 0.178500004
v 0.172999992 0.18 0.178500004
v 0.172999992 0.18 0.180499992
v 0.172999992 0.262999992 0.178500004
v 0.175 0.262999992 0.178500004
v 0.175 0.18 0.178500004
v 0.172999992 0.18 0.178500004
f 625 626 628
f 628 626 627
f 629 630 632
f 632 630 631
f 634 635 633
f 633 635 636
f 638 639 637
f 637 639 640
f 641 642 644
f 644 642 643
f 645 646 648
f 648 646 647
v 0.175 0.262999992 0.167999992
v 0.175 0.262999992 0.17
v 0.175 0.18 0.17
v 0.175 0.18 0.167999992
v 0.175 0.262999992 0.17
v 0.172999992 0.262999992 0.17
v 0.172999992 0.18 0.17
v 0.175 0.18 0.17
v 0.172999992 0.262999992 0.167999992
v 0.172999992 0.262999992 0.17
v 0.175 0.262999992 0.17
v 0.175 0.262999992 0.167999992
v 0.172999992 0.18 0.17
v 0.172999992 0.18 0.167999992
v 0.175 0.18 0.167999992
v 0.175 0.18 0.17
v 0.172999992 0.262999992 0.17
v 0.172999992 0.262999992 0.167999992
v 0.172999992 0.18 0.167999992
v 0.172999992 0.18 0.17
v 0.172999992 0.262999992 0.167999992
v 0.175 0.262999992 0.167999992
v 0.175 0.18 0.167999992
v 0.172999992 0.18 0.167999992
f 649 650 652
f 652 650 651
f 653 654 656
f 656 654 655
f 658 659 657
f 657 659 660
f 662 663 661
f 661 663 664
f 665 666 668
f 668 666 667
f 669 670 672
f 672 670 671
v 0.175 0.262999992 0.159499998
v 0.172999992 0.262999992 0.159499998
v 0.172999992 0.18 0.159499998
v 0.175 0.18 0.159499998
v 0.175 0.262999992 0.1575
v 0.175 0.262999992 0.159499998
v 0.175 0.18 0.159499998
v 0.175 0.18 0.1575
v 0.172999992 0.262999992 0.1575
v 0.172999992 0.262999992 0.159499998
v 0.175 0.262999992 0.159499998
v 0.175 0.262999992 0.1575
v 0.172999992 0.18 0.159499998
v 0.172999992 0.18 0.1575
v 0.175 0.18 0.1575
v 0.175 0.18 0.159499998
v 0.172999992 0.262999992 0.159499998
v 0.172999992 0.262999992 0.1575
v 0.172999992 0.18 0.1575
v 0.172999992 0.18 0.159499998
v 0.172999992 0.262999992 0.1575
v 0.175 0.262999992 0.1575
v 0.175 0.18 0.1575
v 0.172999992 0.18 0.1575
f 673 674 676
f 676 674 675
f 677 678 680
f 680 678 679
f 682 683 681
f 681 683 684
f 686 687 685
f 685 687 688
f 689 690 692
f 692 690 691
f 693 694 696
f 696 694 695
v 0.175 0.262999992 0.253999996
v 0.172999992 0.262999992 0.253999996
v 0.172999992 0.18 0.253999996
v 0.175 0.18 0.253999996
v 0.175 0.262999992 0.252000008
v 0.175 0.262999992 0.253999996
v 0.175 0.18 0.253999996
v 0.175 0.18 0.252000008
v 0.172999992 0.262999992 0.252000008
v 0.172999992 0.262999992 0.253999996
v 0.175 0.262999992 0.253999996
v 0.175 0.262999992 0.252000008
v 0.172999992 0.18 0.253999996
v 0.172999992 0.18 0.252000008
v 0.175 0.18 0.252000008
v 0.175 0.18 0.253999996
v 0.172999992 0.262999992 0.253999996
v 0.172999992 0.262999992 0.252000008
v 0.172999992 0.18 0.252000008
v 0.172999992 0.18 0.253999996
v 0.172999992 0.262999992 0.252000008
v 0.175 0.262999992 0.252000008
v 0.175 0.18 0.252000008
v 0.172999992 0.18 0.252000008
f 697 698 700
f 700 698 699
f 701 702 704
f 704 702 703
f 706 707 705
f 705 707 708
f 710 711 709
f 709 711 712
f 713 714 716
f 716 714 715
f 717 718 720
f 720 718 719
v 0.237000008 0.262999992 0.253999996
v 0.235 0.262999992 0.253999996
v 0.235 0.18 0.253999996
v 0.237000008 0.18 0.253999996
v 0.237000008 0.262999992 0.252000008
v 0.237000008 0.262999992 0.253999996
v 0.237000008 0.18 0.253999996
v 0.237000008 0.18 0.252000008
v 0.235 0.262999992 0.252000008
v 0.235 0.262999992 0.253999996
v 0.237000008 0.262999992 0.253999996
v 0.237000008 0.262999992 0.252000008
v 0.235 0.18 0.253999996
v 0.235 0.18 0.252000008
v 0.237000008 0.18 0.252000008
v 0.237000008 0.18 0.253999996
v 0.235 0.262999992 0.253999996
v 0.235 0.262999992 0.252000008
v 0.235 0.18 0.252000008
v 0.235 0.18 0.253999996
v 0.235 0.262999992 0.252000008
v 0.237000008 0.262999992 0.252000008
v 0.237000008 0.18 0.252000008
v 0.235 0.18 0.252000008
f 721 722 724
f 724 722 723
f 725 726 728
f 728 726 727
f 730 731 729
f 729 731 732
f 734 735 733
f 733 735 736
f 737 738 740
f 740 738 739
f 741 742 744
f 744 742 743
v 0.237000008 0.262999992 0.243500004
v 0.235 0.262999992 0.243500004
v 0.235 0.18 0.243500004
v 0.237000008 0.18 0.243500004
v 0.237000008 0.262999992 0.241499996
v 0.237000008 0.262999992 0.243500004
v 0.237000008 0.18 0.243500004
v 0.237000008 0.18 0.241499996
v 0.235 0.262999992 0.241499996
v 0.235 0.262999992 0.243500004
v 0.237000008 0.262999992 0.243500004
v 0.237000008 0.262999992 0.241499996
v 0.235 0.18 0.243500004
v 0.235 0.18 0.241499996
v 0.237000008 0.18 0.241499996
v 0.237000008 0.18 0.243500004
v 0.235 0.262999992 0.243500004
v 0.235 0.262999992 0.241499996
v 0.235 0.18 0.241499996
v 0.235 0.18 0.243500004
v 0.235 0.262999992 0.241499996
v 0.237000008 0.262999992 0.241499996
v 0.237000008 0.18 0.241499996
v 0.235 0.18 0.241499996
f 745 746 748
f 748 746 747
f 749 750 752
f 752 750 751
f 754 755 753
f 753 755 756
f 758 759 757
f 757 759 760
f 761 762 764
f 764 762 763
f 765 766 768
f 768 766 767
v 0.237000008 0.262999992 0.231000004
v 0.237000008 0.262999992 0.232999992
v 0.237000008 0.18 0.232999992
v 0.237000008 0.18 0.231000004
v 0.237000008 0.262999992 0.232999992
v 0.235 0.262999992 0.232999992
v 0.235 0.18 0.232999992
v 0.237000008 0.18 0.232999992
v 0.235 0.262999992 0.231000004
v 0.235 0.262999992 0.232999992
v 0.237000008 0.262999992 0.232999992
v 0.237000008 0.262999992 0.231000004
v 0.235 0.18 0.232999992
v 0.235 0.18 0.231000004
v 0.237000008 0.18 0.231000004
v 0.237000008 0.18 0.232999992
v 0.235 0.262999992 0.232999992
v 0.235 0.262999992 0.231000004
v 0.235 0.18 0.231000004
v 0.235 0.18 0.232999992
v 0.235 0.262999992 0.231000004
v 0.237000008 0.262999992 0.231000004
v 0.237000008 0.18 0.231000004
v 0.235 0.18 0.231000004
f 769 770 772
f 772 770 771
f 773 774 776
f 776 774 775
f 778 779 777
f 777 779 780
f 782 783 781
f 781 783 784
f 785 786 788
f 788 786 787
f 789 790 792
f 792 790 791
v 0.237000008 0.262999992 0.220499992
v 0.237000008 0.262999992 0.2225
v 0.237000008 0.18 0.2225
v 0.237000008 0.18 0.220499992
v 0.237000008 0.262999992 0.2225
v 0.235 0.262999992 0.2225
v 0.235 0.18 0.2225
v 0.237000008 0.18 0.2225
v 0.235 0.262999992 0.220499992
v 0.235 0.262999992 0.2225
v 0.237000008 0.262999992 0.2225
v 0.237000008 0.262999992 0.220499992
v 0.235 0.18 0.2225
v 0.235 0.18 0.220499992
v 0.237000008 0.18 0.220499992
v 0.237000008 0.18 0.2225
v 0.235 0.262999992 0.2225
v 0.235 0.262999992 0.220499992
v 0.235 0.18 0.220499992
v 0.235 0.18 0.2225
v 0.235 0.262999992 0.220499992
v 0.237000008 0.262999992 0.220499992
v 0.237000008 0.18 0.220499992
v 0.235 0.18 0.220499992
f 793 794 796
f 796 794 795
f 797 798 800
f 800 798 799
f 802 803 801
f 801 803 804
f 806 807 805
f 805 807 808
f 809 810 812
f 812 810 811
f 813 814 816
f 816 814 815
v 0.237000008 0.262999992 0.212000008
v 0.235 0.262999992 0.212000008
v 0.235 0.18 0.212000008
v 0.237000008 0.18 0.212000008
v 0.237000008 0.262999992 0.21
v 0.237000008 0.262999992 0.212000008
v 0.237000008 0.18 0.212000008
v 0.237000008 0.18 0.21
v 0.235 0.262999992 0.21
v 0.235 0.262999992 0.212000008
v 0.237000008 0.262999992 0.212000008
v 0.237000008 0.262999992 0.21
v 0.235 0.18 0.212000008
v 0.235 0.18 0.21
v 0.237000008 0.18 0.21
v 0.237000008 0.18 0.212000008
v 0.235 0.262999992 0.212000008
v 0.235 0.262999992 0.21
v 0.235 0.18 0.21
v 0.235 0.18 0.212000008
v 0.235 0.262999992 0.21
v 0.237000008 0.262999992 0.21
v 0.237000008 0.18 0.21
v 0.235 0.18 0.21
f 817 818 820
f 820 818 819
f 821 822 824
f 824 822 823
f 826 827 825
f 825 827 828
f 830 831 829
f 829 831 832
f 833 834 836
f 836 834 835
f 837 838 840
f 840 838 839
v 0.237000008 0.262999992 0.199500008
v 0.237000008 0.262999992 0.201499996
v 0.237000008 0.18 0.201499996
v 0.237000008 0.18 0.199500008
v 0.237000008 0.262999992 0.201499996
v 0.235 0.262999992 0.201499996
v 0.235 0.18 0.201499996
v 0.237000008 0.18 0.201499996
v 0.235 0.262999992 0.199500008
v 0.235 0.262999992 0.201499996
v 0.237000008 0.262999992 0.201499996
v 0.237000008 0.262999992 0.199500008
v 0.235 0.18 0.201499996
v 0.235 0.18 0.199500008
v 0.237000008 0.18 0.199500008
v 0.237000008 0.18 0.201499996
v 0.235 0.262999992 0.201499996
v 0.235 0.262999992 0.199500008
v 0.235 0.18 0.199500008
v 0.235 0.18 0.201499996
v 0.235 0.262999992 0.199500008
v 0.237000008 0.262999992 0.199500008
v 0.237000008 0.18 0.199500008
v 0.235 0.18 0.199500008
f 841 842 844
f 844 842 843
f 845 846 848
f 848 846 847
f 850 851 849
f 849 851 852
f 854 855 853
f 853 855 856
f 857 858 860
f 860 858 859
f 861 862 864
f 864 862 863
v 0.237000008 0.262999992 0.191000004
v 0.235 0.262999992 0.191000004
v 0.235 0.18 0.191000004
v 0.237000008 0.18 0.191000004
v 0.237000008 0.262999992 0.188999996
v 0.237000008 0.262999992 0.191000004
v 0.237000008 0.18 0.191000004
v 0.237000008 0.18 0.188999996
v 0.235 0.262999992 0.188999996
v 0.235 0.262999992 0.191000004
v 0.237000008 0.262999992 0.191000004
v 0.237000008 0.262999992 0.188999996
v 0.235 0.18 0.191000004
v 0.235 0.18 0.188999996
v 0.237000008 0.18 0.188999996
v 0.237000008 0.18 0.191000004
v 0.235 0.262999992 0.191000004
v 0.235 0.262999992 0.188999996
v 0.235 0.18 0.188999996
v 0.235 0.18 0.191000004
v 0.235 0.262999992 0.188999996
v 0.237000008 0.262999992 0.188999996
v 0.237000008 0.18 0.188999996
v 0.235 0.18 0.188999996
f 865 866 868
f 868 866 867
f 869 870 872
f 872 870 871
f 874 875 873
f 873 875 876
f 878 879 877
f 877 879 880
f 881 882 884
f 884 882 883
f 885 886 888
f 888 886 887
v 0.237000008 0.262999992 0.180499992
v 0.235 0.262999992 0.180499992
v 0.235 0.18 0.180499992
v 0.237000008 0.18 0.180499992
v 0.237000008 0.262999992 0.178500004
v 0.237000008 0.262999992 0.180499992
v 0.237000008 0.18 0.180499992
v 0.237000008 0.18 0.178500004
v 0.235 0.262999992 0.178500004
v 0.235 0.262999992 0.180499992
v 0.237000008 0.262999992 0.180499992
v 0.237000008 0.262999992 0.178500004
v 0.235 0.18 0.180499992
v 0.235 0.18 0.178500004
v 0.237000008 0.18 0.178500004
v 0.237000008 0.18 0.180499992
v 0.235 0.262999992 0.180499992
v 0.235 0.262999992 0.178500004
v 0.235 0.18 0.178500004
v 0.235 0.18 0.180499992
v 0.235 0.262999992 0.178500004
v 0.237000008 0.262999992 0.178500004
v 0.237000008 0.18 0.178500004
v 0.235 0.18 0.178500004
f 889 890 892
f 892 890 891
f 893 894 896
f 896 894 895
f 898 899 897
f 897 899 900
f 902 903 901
f 901 903 904
f 905 906 908
f 908 906 907
f 909 910 912
f 912 910 911
v 0.237000008 0.262999992 0.167999992
v 0.237000008 0.262999992 0.17
v 0.237000008 0.18 0.17
v 0.237000008 0.18 0.167999992
v 0.237000008 0.262999992 0.17
v 0.235 0.262999992 0.17
v 0.235 0.18 0.17
v 0.237000008 0.18 0.17
v 0.235 0.262999992 0.167999992
v 0.235 0.262999992 0.17
v 0.237000008 0.262999992 0.17
v 0.237000008 0.262999992 0.167999992
v 0.235 0.18 0.17
v 0.235 0.18 0.167999992
v 0.237000008 0.18 0.167999992
v 0.237000008 0.18 0.17
v 0.235 0.262999992 0.17
v 0.235 0.262999992 0.167999992
v 0.235 0.18 0.167999992
v 0.235 0.18 0.17
v 0.235 0.262999992 0.167999992
v 0.237000008 0.262999992 0.167999992
v 0.237000008 0.18 0.167999992
v 0.235 0.18 0.167999992
f 913 914 916
f 916 914 915
f 917 918 920
f 920 918 919
f 922 923 921
f 921 923 924
f 926 927 925
f 925 927 928
f 929 930 932
f 932 930 931
f 933 934 936
f 936 934 935
v 0.237000008 0.262999992 0.1575
v 0.237000008 0.262999992 0.159499998
v 0.237000008 0.18 0.159499998
v 0.237000008 0.18 0.1575
v 0.237000008 0.262999992 0.159499998
v 0.235 0.262999992 0.159499998
v 0.235 0.18 0.159499998
v 0.237000008 0.18 0.159499998
v 0.235 0.262999992 0.1575
v 0.235 0.262999992 0.159499998
v 0.237000008 0.262999992 0.159499998
v 0.237000008 0.262999992 0.1575
v 0.235 0.18 0.159499998
v 0.235 0.18 0.1575
v 0.237000008 0.18 0.1575
v 0.237000008 0.18 0.159499998
v 0.235 0.262999992 0.159499998
v 0.235 0.262999992 0.1575
v 0.235 0.18 0.1575
v 0.235 0.18 0.159499998
v 0.235 0.262999992 0.1575
v 0.237000008 0.262999992 0.1575
v 0.237000008 0.18 0.1575
v 0.235 0.18 0.1575
f 937 938 940
f 940 938 939
f 941 942 944
f 944 942 943
f 946 947 945
f 945 947 948
f 950 951 949
f 949 951 952
f 953 954 956
f 956 954 955
f 957 958 960
f 960 958 959
