v 0.0051872765 0.00095978685 0.0038831443
v 0.0049306406 0.0017184428 0.0036120568
v 0.004359212 0.0031154762 0.0025087464
v 0.0037877834 0.0038954514 0.00090854797
v 0.0032163548 0.0039038844 -0.00087159954
v 0.0026449263 0.0031391056 -0.0024791161
v 0.0020734977 0.001752588 -0.0035956132
v 0.0015020691 1.8949324e-05 -0.003999955
v 0.00093064044 -0.0017184428 -0.0036120568
v 0.0003592119 -0.0031154762 -0.0025087464
v -0.00021221664 -0.0038954514 -0.00090854797
v -0.00078364518 -0.0039038844 0.00087159954
v -0.0013550737 -0.0031391056 0.0024791161
v -0.0019265023 -0.001752588 0.0035956132
v -0.0024979308 -1.8949324e-05 0.003999955
v -0.0030693593 0.0017184428 0.0036120568
v -0.0036407879 0.0031154762 0.0025087464
v -0.0042122164 0.0038954514 0.00090854797
v -0.0047836449 0.0039038844 -0.00087159954
v -0.0053550735 0.0031391056 -0.0024791161
v -0.0059265026 0.001752588 -0.0035956132
v -0.0064979306 1.8949324e-05 -0.003999955
v -0.0070693591 -0.0017184428 -0.0036120568
v -0.0076407876 -0.0031154762 -0.0025087464
v -0.0082122162 -0.0038954514 -0.00090854797
v -0.0087836447 -0.0039038844 0.00087159954
v -0.0093550732 -0.0031391056 0.0024791161
v -0.0095674243 -0.0026826586 0.0029670427
v -0.0095674243 -0.0020713181 0.0034219354
v -0.0095674243 -0.0013848058 0.0037526408
v -0.0095674243 -0.00064803688 0.003947157
v -0.0091965022 -0.001752588 0.0035956132
v -0.0086250737 -0.0031391056 0.0024791161
v -0.0080536452 -0.0039038844 0.00087159954
v -0.0074822166 -0.0038954514 -0.00090854797
v -0.0069107881 -0.0031154762 -0.0025087464
v -0.0063393595 -0.0017184428 -0.0036120568
v -0.005767931 1.8949324e-05 -0.003999955
v -0.0051965025 0.001752588 -0.0035956132
v -0.0046250739 0.0031391056 -0.0024791161
v -0.0040536454 0.0039038844 -0.00087159954
v -0.0034822169 0.0038954514 0.00090854797
v -0.0029107883 0.0031154762 0.0025087464
v -0.0023393592 0.0017184428 0.0036120568
v -0.0017679307 -1.8949324e-05 0.003999955
v -0.0011965021 -0.001752588 0.0035956132
v -0.00062507387 -0.0031391056 0.0024791161
v -5.3645038e-05 -0.0039038844 0.00087159954
v 0.0005177835 -0.0038954514 -0.00090854797
v 0.001089212 -0.0031154762 -0.0025087464
v 0.0016606406 -0.0017184428 -0.0036120568
v 0.0022320691 1.8949324e-05 -0.003999955
v 0.0028034977 0.001752588 -0.0035956132
v 0.0033749263 0.0031391056 -0.0024791161
v 0.0039463548 0.0039038844 -0.00087159954
v 0.0045177834 0.0038954514 0.00090854797
v 0.0051872765 0.0029112656 0.0027430882
v 0.0051872765 0.002337767 0.0032457426
v 0.0051872765 0.0016792961 0.0036304221
v 0.0033749263 0.0031391056 -0.0024791161
v 0.0026449263 0.0031391056 -0.0024791161
v -0.0046250739 0.0031391056 -0.0024791161
v -0.0053550735 0.0031391056 -0.0024791161
v 0.0046099262 0.0014013434 0.0026525905
v 0.0040914602 0.0023366608 0.0018814963
v 0.0035199265 0.0029215935 0.00068137223
v 0.0029484037 0.0029279134 -0.0006536989
v 0.0023768354 0.0023543613 -0.0018592864
v 0.0018051488 0.0013145898 -0.0026966291
v 0.0012334842 1.4481345e-05 -0.0029999505
v 0.00066192482 -0.0012885304 -0.0027091648
v 9.0512371e-05 -0.0023363929 -0.0018817951
v -0.00048075047 -0.0029215191 -0.00068164856
v -0.0010518962 -0.0029279363 0.0006535742
v -0.0016229817 -0.0023543192 0.0018593513
v -0.0021940758 -0.0013142953 0.0026967731
v -0.0027652451 -1.394335e-05 0.0029999523
v -0.0033365407 0.0012891173 0.0027088851
v -0.0039079889 0.0023367917 0.0018813009
v -0.0044795778 0.0029216324 0.00068116526
v -0.0050512561 0.0029278765 -0.00065383797
v -0.0056229284 0.0023543013 -0.0018593657
v -0.0061944535 0.0013144417 -0.0026967094
v -0.0067660191 1.427028e-05 -0.0029999601
v -0.0073377004 -0.0012886792 -0.0027091073
v -0.007909365 -0.0023364292 -0.0018817581
v -0.0084803179 -0.002921583 -0.00068147549
v -0.0089900735 -0.0029563628 0.00050982212
v -0.0094226697 -0.0029424457 0.0023235007
v -0.0095674243 -0.0026826586 0.0029670427
v -0.0093550732 -0.0031391056 0.0024791161
v -0.0087836447 -0.0039038844 0.00087159954
v -0.0082122162 -0.0038954514 -0.00090854797
v -0.0076407876 -0.0031154762 -0.0025087464
v -0.0070693591 -0.0017184428 -0.0036120568
v -0.0064979306 1.8949324e-05 -0.003999955
v -0.0059265026 0.001752588 -0.0035956132
v -0.0053550735 0.0031391056 -0.0024791161
v -0.0047836449 0.0039038844 -0.00087159954
v -0.0042122164 0.0038954514 0.00090854797
v -0.0036407879 0.0031154762 0.0025087464
v -0.0030693593 0.0017184428 0.0036120568
v -0.0024979308 -1.8949324e-05 0.003999955
v -0.0019265023 -0.001752588 0.0035956132
v -0.0013550737 -0.0031391056 0.0024791161
v -0.00078364518 -0.0039038844 0.00087159954
v -0.00021221664 -0.0038954514 -0.00090854797
v 0.0003592119 -0.0031154762 -0.0025087464
v 0.00093064044 -0.0017184428 -0.0036120568
v 0.0015020691 1.8949324e-05 -0.003999955
v 0.0020734977 0.001752588 -0.0035956132
v 0.0026449263 0.0031391056 -0.0024791161
v 0.0032163548 0.0039038844 -0.00087159954
v 0.0037877834 0.0038954514 0.00090854797
v 0.004359212 0.0031154762 0.0025087464
v 0.0049306406 0.0017184428 0.0036120568
v 0.0051872765 0.00095978685 0.0038831443
v 0.0051872765 0.0029112656 0.0027430882
v 0.0045177834 0.0038954514 0.00090854797
v 0.0039463548 0.0039038844 -0.00087159954
v 0.0033749263 0.0031391056 -0.0024791161
v 0.0028034977 0.001752588 -0.0035956132
v 0.0022320691 1.8949324e-05 -0.003999955
v 0.0016606406 -0.0017184428 -0.0036120568
v 0.001089212 -0.0031154762 -0.0025087464
v 0.0005177835 -0.0038954514 -0.00090854797
v -5.3645038e-05 -0.0039038844 0.00087159954
v -0.00062507387 -0.0031391056 0.0024791161
v -0.0011965021 -0.001752588 0.0035956132
v -0.0017679307 -1.8949324e-05 0.003999955
v -0.0023393592 0.0017184428 0.0036120568
v -0.0029107883 0.0031154762 0.0025087464
v -0.0034822169 0.0038954514 0.00090854797
v -0.0040536454 0.0039038844 -0.00087159954
v -0.0046250739 0.0031391056 -0.0024791161
v -0.0051965025 0.001752588 -0.0035956132
v -0.005767931 1.8949324e-05 -0.003999955
v -0.0063393595 -0.0017184428 -0.0036120568
v -0.0069107881 -0.0031154762 -0.0025087464
v -0.0074822166 -0.0038954514 -0.00090854797
v -0.0080536452 -0.0039038844 0.00087159954
v -0.0086250737 -0.0031391056 0.0024791161
v -0.0091965022 -0.001752588 0.0035956132
v -0.0095674243 -0.00064803688 0.003947157
v -0.0089900735 -0.0011810735 0.0027577282
v -0.0083568516 -0.0023542542 0.0018594249
v -0.0077851644 -0.0029278535 0.00065391705
v -0.0072135463 -0.0029216407 -0.00068110936
v -0.0066420617 -0.0023367981 -0.0018812906
v -0.0060707292 -0.0012890852 -0.0027089036
v -0.0054995331 1.4022301e-05 -0.0029999579
v -0.0049284264 0.0013143929 -0.0026967327
v -0.0043573454 0.0023543847 -0.0018592621
v -0.0037862196 0.0029279502 -0.00065348112
v -0.0032149896 0.0029215012 0.00068170449
v -0.0026436171 0.0023363848 0.0018818042
v -0.0020720949 0.0012885629 0.0027091528
v -0.0015004554 -1.4412586e-05 0.0029999559
v -0.00092876431 -0.0013145173 0.0026966627
v -0.00035714802 -0.0023543337 0.0018593281
v 0.00021434788 -0.002927906 0.00065371695
v 0.00078598682 -0.002921609 -0.00068130551
v 0.001357672 -0.0023367347 -0.0018813847
v 0.0019292975 -0.0012890958 -0.0027088983
v 0.0025007978 1.3881512e-05 -0.0029999479
v 0.0030721477 0.0013141669 -0.0026968241
v 0.0036433589 0.0023541944 -0.001859491
v 0.0042140469 0.0029279384 -0.00065359422
v 0.0046099262 0.002987739 0.00027095351
v 0.0047299972 0.00312409 0.00072866185
v 0.0051201278 0.0030249926 0.0024359816
v 0.0051872765 0.0038831443 -0.00095978685
v 0.0049306406 0.0036120568 -0.0017184428
v 0.004359212 0.0025087464 -0.0031154762
v 0.0037877834 0.00090854797 -0.0038954514
v 0.0032163548 -0.00087159954 -0.0039038844
v 0.0026449263 -0.0024791161 -0.0031391056
v 0.0020734977 -0.0035956132 -0.001752588
v 0.0015020691 -0.003999955 -1.8949324e-05
v 0.00093064044 -0.0036120568 0.0017184428
v 0.0003592119 -0.0025087464 0.0031154762
v -0.00021221664 -0.00090854797 0.0038954514
v -0.00078364518 0.00087159954 0.0039038844
v -0.0013550737 0.0024791161 0.0031391056
v -0.0019265023 0.0035956132 0.001752588
v -0.0024979308 0.003999955 1.8949324e-05
v -0.0030693593 0.0036120568 -0.0017184428
v -0.0036407879 0.0025087464 -0.0031154762
v -0.0042122164 0.00090854797 -0.0038954514
v -0.0047836449 -0.00087159954 -0.0039038844
v -0.0053550735 -0.0024791161 -0.0031391056
v -0.0059265026 -0.0035956132 -0.001752588
v -0.0064979306 -0.003999955 -1.8949324e-05
v -0.0070693591 -0.0036120568 0.0017184428
v -0.0076407876 -0.0025087464 0.0031154762
v -0.0082122162 -0.00090854797 0.0038954514
v -0.0087836447 0.00087159954 0.0039038844
v -0.0093550732 0.0024791161 0.0031391056
v -0.0095674243 0.0029670427 0.0026826586
v -0.0095674243 0.0034219354 0.0020713181
v -0.0095674243 0.0037526408 0.0013848058
v -0.0095674243 0.003947157 0.00064803688
v -0.0091965022 0.0035956132 0.001752588
v -0.0086250737 0.0024791161 0.0031391056
v -0.0080536452 0.00087159954 0.0039038844
v -0.0074822166 -0.00090854797 0.0038954514
v -0.0069107881 -0.0025087464 0.0031154762
v -0.0063393595 -0.0036120568 0.0017184428
v -0.005767931 -0.003999955 -1.8949324e-05
v -0.0051965025 -0.0035956132 -0.001752588
v -0.0046250739 -0.0024791161 -0.0031391056
v -0.0040536454 -0.00087159954 -0.0039038844
v -0.0034822169 0.00090854797 -0.0038954514
v -0.0029107883 0.0025087464 -0.0031154762
v -0.0023393592 0.0036120568 -0.0017184428
v -0.0017679307 0.003999955 1.8949324e-05
v -0.0011965021 0.0035956132 0.001752588
v -0.00062507387 0.0024791161 0.0031391056
v -5.3645038e-05 0.00087159954 0.0039038844
v 0.0005177835 -0.00090854797 0.0038954514
v 0.001089212 -0.0025087464 0.0031154762
v 0.0016606406 -0.0036120568 0.0017184428
v 0.0022320691 -0.003999955 -1.8949324e-05
v 0.0028034977 -0.0035956132 -0.001752588
v 0.0033749263 -0.0024791161 -0.0031391056
v 0.0039463548 -0.00087159954 -0.0039038844
v 0.0045177834 0.00090854797 -0.0038954514
v 0.0051872765 0.0027430882 -0.0029112656
v 0.0051872765 0.0032457426 -0.002337767
v 0.0051872765 0.0036304221 -0.0016792961
v 0.0033749263 -0.0024791161 -0.0031391056
v 0.0026449263 -0.0024791161 -0.0031391056
v -0.0046250739 -0.0024791161 -0.0031391056
v -0.0053550735 -0.0024791161 -0.0031391056
v 0.0046099262 0.002987739 0.00027095351
v 0.0042140469 0.0029279384 -0.00065359422
v 0.0036433589 0.0023541944 -0.001859491
v 0.0030721477 0.0013141669 -0.0026968241
v 0.0025007978 1.3881512e-05 -0.0029999479
v 0.0019292975 -0.0012890958 -0.0027088983
v 0.001357672 -0.0023367347 -0.0018813847
v 0.00078598682 -0.002921609 -0.00068130551
v 0.00021434788 -0.002927906 0.00065371695
v -0.00035714802 -0.0023543337 0.0018593281
v -0.00092876431 -0.0013145173 0.0026966627
v -0.0015004554 -1.4412586e-05 0.0029999559
v -0.0020720949 0.0012885629 0.0027091528
v -0.0026436171 0.0023363848 0.0018818042
v -0.0032149896 0.0029215012 0.00068170449
v -0.0037862196 0.0029279502 -0.00065348112
v -0.0043573454 0.0023543847 -0.0018592621
v -0.0049284264 0.0013143929 -0.0026967327
v -0.0054995331 1.4022301e-05 -0.0029999579
v -0.0060707292 -0.0012890852 -0.0027089036
v -0.0066420617 -0.0023367981 -0.0018812906
v -0.0072135463 -0.0029216407 -0.00068110936
v -0.0077851644 -0.0029278535 0.00065391705
v -0.0083568516 -0.0023542542 0.0018594249
v -0.0089900735 -0.0011810735 0.0027577282
v -0.0089900735 -0.0006337079 0.0029323053
v -0.0089900735 -6.3099855e-05 0.0029993364
v -0.0089900735 0.00050982212 0.0029563628
v -0.0084798279 -0.00068127096 0.0029216174
v -0.0079081133 -0.0018813448 0.0023367612
v -0.0073369494 -0.0027089713 0.0012889662
v -0.0067658582 -0.0029999677 -1.4202536e-05
v -0.0061947706 -0.002696646 -0.0013145598
v -0.0056236192 -0.0018591306 -0.0023544745
v -0.0050523492 -0.00065338356 -0.0029279642
v -0.0044809308 0.00068172244 -0.002921496
v -0.0039093688 0.0018817594 -0.002336428
v -0.003337706 0.0027091082 -0.001288677
v -0.0027660229 0.0029999598 1.4272163e-05
v -0.0021944543 0.0026967092 0.0013144422
v -0.0016229352 0.0018593638 0.0023543032
v -0.0010512691 0.0006538327 0.002927878
v -0.00047959145 -0.00068117109 0.0029216315
v 9.2004574e-05 -0.0018813033 0.0023367901
v 0.0006634644 -0.0027088839 0.0012891192
v 0.0012347737 -0.0029999517 -1.3935317e-05
v 0.0018059531 -0.0026967776 -0.0013142838
v 0.0023770517 -0.0018593621 -0.0023543099
v 0.0029481352 -0.0006535872 -0.002927934
v 0.0035192725 0.00068163925 -0.002921522
v 0.0040908722 0.0018816857 -0.0023365003
v 0.0046099262 0.0026525905 -0.0014013434
v 0.0046099262 0.0028713909 -0.00086897353
v 0.0046099262 0.0029844948 -0.00030461656
v -0.0026436171 0.0023363848 0.0018818042
v -0.0016229352 0.0018593638 0.0023543032
v 0.0046099262 0.0026525905 -0.0014013434
v 0.0040908722 0.0018816857 -0.0023365003
v 0.0035192725 0.00068163925 -0.002921522
v 0.0029481352 -0.0006535872 -0.002927934
v 0.0023770517 -0.0018593621 -0.0023543099
v 0.0018059531 -0.0026967776 -0.0013142838
v 0.0012347737 -0.0029999517 -1.3935317e-05
v 0.0006634644 -0.0027088839 0.0012891192
v 9.2004574e-05 -0.0018813033 0.0023367901
v -0.00047959145 -0.00068117109 0.0029216315
v -0.0010512691 0.0006538327 0.002927878
v -0.0016229352 0.0018593638 0.0023543032
v -0.0021944543 0.0026967092 0.0013144422
v -0.0027660229 0.0029999598 1.4272163e-05
v -0.003337706 0.0027091082 -0.001288677
v -0.0039093688 0.0018817594 -0.002336428
v -0.0044809308 0.00068172244 -0.002921496
v -0.0050523492 -0.00065338356 -0.0029279642
v -0.0056236192 -0.0018591306 -0.0023544745
v -0.0061947706 -0.002696646 -0.0013145598
v -0.0067658582 -0.0029999677 -1.4202536e-05
v -0.0073369494 -0.0027089713 0.0012889662
v -0.0079081133 -0.0018813448 0.0023367612
v -0.0084798279 -0.00068127096 0.0029216174
v -0.0089900735 0.00050982212 0.0029563628
v -0.0094223943 0.0023234264 0.0029419891
v -0.0095674243 0.0029670427 0.0026826586
v -0.0093550732 0.0024791161 0.0031391056
v -0.0087836447 0.00087159954 0.0039038844
v -0.0082122162 -0.00090854797 0.0038954514
v -0.0076407876 -0.0025087464 0.0031154762
v -0.0070693591 -0.0036120568 0.0017184428
v -0.0064979306 -0.003999955 -1.8949324e-05
v -0.0059265026 -0.0035956132 -0.001752588
v -0.0053550735 -0.0024791161 -0.0031391056
v -0.0047836449 -0.00087159954 -0.0039038844
v -0.0042122164 0.00090854797 -0.0038954514
v -0.0036407879 0.0025087464 -0.0031154762
v -0.0030693593 0.0036120568 -0.0017184428
v -0.0024979308 0.003999955 1.8949324e-05
v -0.0019265023 0.0035956132 0.001752588
v -0.0013550737 0.0024791161 0.0031391056
v -0.00078364518 0.00087159954 0.0039038844
v -0.00021221664 -0.00090854797 0.0038954514
v 0.0003592119 -0.0025087464 0.0031154762
v 0.00093064044 -0.0036120568 0.0017184428
v 0.0015020691 -0.003999955 -1.8949324e-05
v 0.0020734977 -0.0035956132 -0.001752588
v 0.0026449263 -0.0024791161 -0.0031391056
v 0.0032163548 -0.00087159954 -0.0039038844
v 0.0037877834 0.00090854797 -0.0038954514
v 0.004359212 0.0025087464 -0.0031154762
v 0.0049306406 0.0036120568 -0.0017184428
v 0.0051872765 0.0038831443 -0.00095978685
v 0.0046099262 -0.00027095351 0.002987739
v 0.0042145282 0.00065379164 0.0029278907
v 0.0036424069 0.0018591755 0.0023544447
v 0.0030707637 0.0026965684 0.0013146943
v 0.0024992408 0.002999945 1.4541376e-05
v 0.0019278698 0.0027091572 -0.0012885492
v 0.0013566424 0.0018817234 -0.0023364607
v 0.00078551892 0.00068149823 -0.0029215652
v 0.00021443788 -0.00065375467 -0.0029279001
v -0.00035667028 -0.0018594819 -0.0023542027
v -0.00092786905 -0.0026968215 -0.0013141735
v -0.0014992031 -0.002999948 -1.3882047e-05
v -0.0020706883 -0.0027088953 0.001289101
v -0.0026423064 -0.0018813771 0.0023367399
v -0.003213993 -0.0006812971 0.0029216105
v -0.0037856432 0.00065372032 0.0029279045
v -0.0043571421 0.0018593304 0.0023543327
v -0.0049287465 0.0026966667 0.0013145107
v -0.0055004367 0.0029999564 1.4404584e-05
v -0.0060720828 0.0027091508 -0.0012885678
v -0.006643615 0.0018818037 -0.0023363855
v -0.0072149995 0.00068170827 -0.0029215
v -0.0077862385 -0.00065347303 -0.0029279513
v -0.0083569255 -0.0018594072 -0.0023542827
v -0.0089900735 -0.0027577282 -0.0011810735
v -0.0089900735 -0.0029323053 -0.0006337079
v -0.0089900735 -0.0029993364 -6.3099855e-05
v -0.0089900735 -0.0029563628 0.00050982212
v -0.0084803179 -0.002921583 -0.00068147549
v -0.007909365 -0.0023364292 -0.0018817581
v -0.0073377004 -0.0012886792 -0.0027091073
v -0.0067660191 1.427028e-05 -0.0029999601
v -0.0061944535 0.0013144417 -0.0026967094
v -0.0056229284 0.0023543013 -0.0018593657
v -0.0050512561 0.0029278765 -0.00065383797
v -0.0044795778 0.0029216324 0.00068116526
v -0.0039079889 0.0023367917 0.0018813009
v -0.0033365407 0.0012891173 0.0027088851
v -0.0027652451 -1.394335e-05 0.0029999523
v -0.0021940758 -0.0013142953 0.0026967731
v -0.0016229817 -0.0023543192 0.0018593513
v -0.0010518962 -0.0029279363 0.0006535742
v -0.00048075047 -0.0029215191 -0.00068164856
v 9.0512371e-05 -0.0023363929 -0.0018817951
v 0.00066192482 -0.0012885304 -0.0027091648
v 0.0012334842 1.4481345e-05 -0.0029999505
v 0.0018051488 0.0013145898 -0.0026966291
v 0.0023768354 0.0023543613 -0.0018592864
v 0.0029484037 0.0029279134 -0.0006536989
v 0.0035199265 0.0029215935 0.00068137223
v 0.0040914602 0.0023366608 0.0018814963
v 0.0046099262 0.0014013434 0.0026525905
v 0.0046099262 0.00086897353 0.0028713909
v 0.0046099262 0.00030461656 0.0029844948
v 0.0030707637 0.0026965684 0.0013146943
v 0.0040914602 0.0023366608 0.0018814963
v -0.0049287465 0.0026966667 0.0013145107
v -0.0039079889 0.0023367917 0.0018813009
v 0.0046099262 0.00027095351 -0.002987739
v 0.0042140465 -0.00065359463 -0.0029279403
v 0.0036435297 -0.0018595444 -0.0023541451
v 0.00307222 -0.0026968357 -0.0013141381
v 0.0025007597 -0.0029999495 -1.389751e-05
v 0.0019291634 -0.0027089268 0.0012890462
v 0.0013574857 -0.0018814494 0.0023366889
v 0.00078582022 -0.00068137432 0.0029215932
v 0.00021430109 0.00065369848 0.0029279134
v -0.00035727199 0.0018592844 0.0023543626
v -0.00092895951 0.0026966277 0.0013145924
v -0.0015006223 0.0029999503 1.4483438e-05
v -0.0020721784 0.0027091649 -0.0012885297
v -0.0026435873 0.0018817947 -0.0023363935
v -0.0032148477 0.00068164691 -0.0029215195
v -0.0037859931 -0.00065357616 -0.0029279359
v -0.0043570783 -0.001859353 -0.0023543179
v -0.0049281731 -0.0026967738 -0.0013142936
v -0.0054993435 -0.0029999523 -1.3941861e-05
v -0.0060706415 -0.0027088848 0.0012891177
v -0.0066420915 -0.0018813016 0.0023367914
v -0.0072136834 -0.00068116682 0.0029216322
v -0.0077853623 0.00065383631 0.002927877
v -0.0083570328 0.0018593649 0.0023543024
v -0.0089900735 0.0027577282 0.0011810735
v -0.0089900735 0.0029323053 0.0006337079
v -0.0089900735 0.0029993364 6.3099855e-05
v -0.0089900735 0.0029563628 -0.00050982212
v -0.0084800246 0.0029216006 0.00068135258
v -0.0079079714 0.0023367957 0.0018812948
v -0.0073365572 0.0012891113 0.0027088887
v -0.006765292 -1.3963467e-05 0.0029999538
v -0.0061941459 -0.0013143227 0.002696762
v -0.0056230595 -0.0023543395 0.0018593256
v -0.005051966 -0.0029279407 0.00065354503
v -0.0044807979 -0.0029215129 -0.00068166788
v -0.0039095047 -0.002336388 -0.0018818005
v -0.0033380612 -0.001288536 -0.0027091626
v -0.0027664777 1.4465273e-05 -0.0029999519
v -0.0021948054 0.0013145728 -0.0026966386
v -0.0016231313 0.0023543538 -0.0018592983
v -0.001051594 0.0029279134 -0.00065369985
v -0.00048004296 0.0029215951 0.00068135937
v 9.1635323e-05 0.0023367007 0.0018814328
v 0.00066330407 0.0012890606 0.0027089185
v 0.0012348783 -1.3890314e-05 0.0029999488
v 0.001806311 -0.0013141422 0.0026968338
v 0.0023775943 -0.0023541557 0.0018595328
v 0.0029487549 -0.002927875 0.00065384228
v 0.0035198456 -0.0029215912 -0.00068140654
v 0.0040908144 -0.0023364869 -0.0018817061
v 0.0046099262 -0.0014013434 -0.0026525905
v 0.0046099262 -0.00086897353 -0.0028713909
v 0.0046099262 -0.00030461656 -0.0029844948
v -0.00092895951 0.0026966277 0.0013145924
v 9.1635323e-05 0.0023367007 0.0018814328
v -0.0073365572 0.0012891113 0.0027088887
v -0.0077853623 0.00065383631 0.002927877
v 0.0051872765 0.0027430882 -0.0029112656
v 0.0045177834 0.00090854797 -0.0038954514
v 0.0039463548 -0.00087159954 -0.0039038844
v 0.0033749263 -0.0024791161 -0.0031391056
v 0.0028034977 -0.0035956132 -0.001752588
v 0.0022320691 -0.003999955 -1.8949324e-05
v 0.0016606406 -0.0036120568 0.0017184428
v 0.001089212 -0.0025087464 0.0031154762
v 0.0005177835 -0.00090854797 0.0038954514
v -5.3645038e-05 0.00087159954 0.0039038844
v -0.00062507387 0.0024791161 0.0031391056
v -0.0011965021 0.0035956132 0.001752588
v -0.0017679307 0.003999955 1.8949324e-05
v -0.0023393592 0.0036120568 -0.0017184428
v -0.0029107883 0.0025087464 -0.0031154762
v -0.0034822169 0.00090854797 -0.0038954514
v -0.0040536454 -0.00087159954 -0.0039038844
v -0.0046250739 -0.0024791161 -0.0031391056
v -0.0051965025 -0.0035956132 -0.001752588
v -0.005767931 -0.003999955 -1.8949324e-05
v -0.0063393595 -0.0036120568 0.0017184428
v -0.0069107881 -0.0025087464 0.0031154762
v -0.0074822166 -0.00090854797 0.0038954514
v -0.0080536452 0.00087159954 0.0039038844
v -0.0086250737 0.0024791161 0.0031391056
v -0.0091965022 0.0035956132 0.001752588
v -0.0095674243 0.003947157 0.00064803688
v -0.0089900735 0.0027577282 0.0011810735
v -0.0083570328 0.0018593649 0.0023543024
v -0.0077853623 0.00065383631 0.002927877
v -0.0072136834 -0.00068116682 0.0029216322
v -0.0066420915 -0.0018813016 0.0023367914
v -0.0060706415 -0.0027088848 0.0012891177
v -0.0054993435 -0.0029999523 -1.3941861e-05
v -0.0049281731 -0.0026967738 -0.0013142936
v -0.0043570783 -0.001859353 -0.0023543179
v -0.0037859931 -0.00065357616 -0.0029279359
v -0.0032148477 0.00068164691 -0.0029215195
v -0.0026435873 0.0018817947 -0.0023363935
v -0.0020721784 0.0027091649 -0.0012885297
v -0.0015006223 0.0029999503 1.4483438e-05
v -0.00092895951 0.0026966277 0.0013145924
v -0.00035727199 0.0018592844 0.0023543626
v 0.00021430109 0.00065369848 0.0029279134
v 0.00078582022 -0.00068137432 0.0029215932
v 0.0013574857 -0.0018814494 0.0023366889
v 0.0019291634 -0.0027089268 0.0012890462
v 0.0025007597 -0.0029999495 -1.389751e-05
v 0.00307222 -0.0026968357 -0.0013141381
v 0.0036435297 -0.0018595444 -0.0023541451
v 0.0042140465 -0.00065359463 -0.0029279403
v 0.0046099262 0.00027095351 -0.002987739
v 0.0047299972 0.00072866185 -0.00312409
v 0.0051201278 0.0024359816 -0.0030249926
v 0.0038099262 0.0066936138 0.0084755851
v 0.0038099262 0.0091887599 0.0056750938
v 0.0038099262 0.010575606 0.0021901032
v 0.0038099262 0.010686879 -0.0015590468
v 0.0038099262 0.0095091549 -0.0051201524
v 0.0038099262 0.0071844874 -0.0080636919
v 0.0038099262 0.0039932649 -0.010034632
v 0.0038099262 0.00032039503 -0.010795247
v 0.0038099262 -0.0033911185 -0.010253795
v 0.0038099262 -0.0066936138 -0.0084755851
v 0.0038099262 -0.0091887599 -0.0056750938
v 0.0038099262 -0.010575606 -0.0021901032
v 0.0038099262 -0.010686879 0.0015590468
v 0.0038099262 -0.0095091549 0.0051201524
v 0.0038099262 -0.0071844874 0.0080636919
v 0.0038099262 -0.0039932649 0.010034632
v 0.0038099262 -0.00032039503 0.010795247
v 0.0038099262 0.0033911185 0.010253795
v 0.0036099263 0.0068175695 0.0086325403
v 0.0036099263 0.0034539167 0.01044368
v 0.0036099263 -0.00032632873 0.010995158
v 0.0036099263 -0.0040672144 0.010220458
v 0.0036099263 -0.0073175341 0.0082130201
v 0.0036099263 -0.009685251 0.0052149705
v 0.0036099263 -0.010884784 0.0015879182
v 0.0036099263 -0.010771451 -0.0022306601
v 0.0036099263 -0.009358922 -0.0057801878
v 0.0036099263 -0.0068175695 -0.0086325403
v 0.0036099263 -0.0034539167 -0.01044368
v 0.0036099263 0.00032632873 -0.010995158
v 0.0036099263 0.0040672144 -0.010220458
v 0.0036099263 0.0073175341 -0.0082130201
v 0.0036099263 0.009685251 -0.0052149705
v 0.0036099263 0.010884784 -0.0015879182
v 0.0036099263 0.010771451 0.0022306601
v 0.0036099263 0.009358922 0.0057801878
v 0.0038099262 -0.0066936138 -0.0084755851
v 0.0036099263 -0.0068175695 -0.0086325403
v 0.0046099262 -0.002987739 -0.00027095351
v 0.0042145282 -0.0029278907 0.00065379164
v 0.0036424069 -0.0023544447 0.0018591755
v 0.0030707637 -0.0013146943 0.0026965684
v 0.0024992408 -1.4541376e-05 0.002999945
v 0.0019278698 0.0012885492 0.0027091572
v 0.0013566424 0.0023364607 0.0018817234
v 0.00078551892 0.0029215652 0.00068149823
v 0.00021443788 0.0029279001 -0.00065375467
v -0.00035667028 0.0023542027 -0.0018594819
v -0.00092786905 0.0013141735 -0.0026968215
v -0.0014992031 1.3882047e-05 -0.002999948
v -0.0020706883 -0.001289101 -0.0027088953
v -0.0026423064 -0.0023367399 -0.0018813771
v -0.003213993 -0.0029216105 -0.0006812971
v -0.0037856432 -0.0029279045 0.00065372032
v -0.0043571421 -0.0023543327 0.0018593304
v -0.0049287465 -0.0013145107 0.0026966667
v -0.0055004367 -1.4404584e-05 0.0029999564
v -0.0060720828 0.0012885678 0.0027091508
v -0.006643615 0.0023363855 0.0018818037
v -0.0072149995 0.0029215 0.00068170827
v -0.0077862385 0.0029279513 -0.00065347303
v -0.0083569255 0.0023542827 -0.0018594072
v -0.0089900735 0.0011810735 -0.0027577282
v -0.0089900735 0.0006337079 -0.0029323053
v -0.0089900735 6.3099855e-05 -0.0029993364
v -0.0089900735 -0.00050982212 -0.0029563628
v -0.0084797337 0.00068123296 -0.0029216289
v -0.007908813 0.001881585 -0.0023365874
v -0.0073377147 0.0027091089 -0.0012886738
v -0.0067665341 0.0029999491 1.4488597e-05
v -0.0061952248 0.0026965485 0.0013147268
v -0.0056237641 0.001859079 0.0023545095
v -0.005052168 0.00065345975 0.0029279542
v -0.0044804862 -0.00068154181 0.0029215524
v -0.0039088192 -0.0018815844 0.0023365828
v -0.0033373037 -0.0027090414 0.0012888338
v -0.0027657273 -0.0029999601 -1.4147426e-05
v -0.0021940425 -0.0026967789 -0.001314282
v -0.0016223827 -0.001859541 -0.0023541492
v -0.0010508263 -0.00065401331 -0.0029278235
v -0.00047941502 0.00068109699 -0.002921642
v 9.1848409e-05 0.0018813583 -0.0023367518
v 0.00066299561 0.0027089828 -0.001288946
v 0.0012340817 0.0029999674 1.4228063e-05
v 0.0018050379 0.0026966126 0.0013146336
v 0.0023769771 0.0018593372 0.0023543292
v 0.0029484056 0.00065369973 0.0029279135
v 0.0035198342 -0.0006814109 0.0029215885
v 0.0040912628 -0.0018815598 0.0023366072
v 0.0046099262 -0.0026525905 0.0014013434
v 0.0046099262 -0.0028713909 0.00086897353
v 0.0046099262 -0.0029844948 0.00030461656
v -0.0056237641 0.001859079 0.0023545095
v 0.0019278698 0.0012885492 0.0027091572
v 0.0023769771 0.0018593372 0.0023543292
v -0.0060720828 0.0012885678 0.0027091508
v 0.0051872765 -0.00095978685 -0.0038831443
v 0.0049306406 -0.0017184428 -0.0036120568
v 0.004359212 -0.0031154762 -0.0025087464
v 0.0037877834 -0.0038954514 -0.00090854797
v 0.0032163548 -0.0039038844 0.00087159954
v 0.0026449263 -0.0031391056 0.0024791161
v 0.0020734977 -0.001752588 0.0035956132
v 0.0015020691 -1.8949324e-05 0.003999955
v 0.00093064044 0.0017184428 0.0036120568
v 0.0003592119 0.0031154762 0.0025087464
v -0.00021221664 0.0038954514 0.00090854797
v -0.00078364518 0.0039038844 -0.00087159954
v -0.0013550737 0.0031391056 -0.0024791161
v -0.0019265023 0.001752588 -0.0035956132
v -0.0024979308 1.8949324e-05 -0.003999955
v -0.0030693593 -0.0017184428 -0.0036120568
v -0.0036407879 -0.0031154762 -0.0025087464
v -0.0042122164 -0.0038954514 -0.00090854797
v -0.0047836449 -0.0039038844 0.00087159954
v -0.0053550735 -0.0031391056 0.0024791161
v -0.0059265026 -0.001752588 0.0035956132
v -0.0064979306 -1.8949324e-05 0.003999955
v -0.0070693591 0.0017184428 0.0036120568
v -0.0076407876 0.0031154762 0.0025087464
v -0.0082122162 0.0038954514 0.00090854797
v -0.0087836447 0.0039038844 -0.00087159954
v -0.0093550732 0.0031391056 -0.0024791161
v -0.0095674243 0.0026826586 -0.0029670427
v -0.0095674243 0.0020713181 -0.0034219354
v -0.0095674243 0.0013848058 -0.0037526408
v -0.0095674243 0.00064803688 -0.003947157
v -0.0091965022 0.001752588 -0.0035956132
v -0.0086250737 0.0031391056 -0.0024791161
v -0.0080536452 0.0039038844 -0.00087159954
v -0.0074822166 0.0038954514 0.00090854797
v -0.0069107881 0.0031154762 0.0025087464
v -0.0063393595 0.0017184428 0.0036120568
v -0.005767931 -1.8949324e-05 0.003999955
v -0.0051965025 -0.001752588 0.0035956132
v -0.0046250739 -0.0031391056 0.0024791161
v -0.0040536454 -0.0039038844 0.00087159954
v -0.0034822169 -0.0038954514 -0.00090854797
v -0.0029107883 -0.0031154762 -0.0025087464
v -0.0023393592 -0.0017184428 -0.0036120568
v -0.0017679307 1.8949324e-05 -0.003999955
v -0.0011965021 0.001752588 -0.0035956132
v -0.00062507387 0.0031391056 -0.0024791161
v -5.3645038e-05 0.0039038844 -0.00087159954
v 0.0005177835 0.0038954514 0.00090854797
v 0.001089212 0.0031154762 0.0025087464
v 0.0016606406 0.0017184428 0.0036120568
v 0.0022320691 -1.8949324e-05 0.003999955
v 0.0028034977 -0.001752588 0.0035956132
v 0.0033749263 -0.0031391056 0.0024791161
v 0.0039463548 -0.0039038844 0.00087159954
v 0.0045177834 -0.0038954514 -0.00090854797
v 0.0051872765 -0.0029112656 -0.0027430882
v 0.0051872765 -0.002337767 -0.0032457426
v 0.0051872765 -0.0016792961 -0.0036304221
v 0.0033749263 -0.0031391056 0.0024791161
v 0.0026449263 -0.0031391056 0.0024791161
v -0.0046250739 -0.0031391056 0.0024791161
v -0.0053550735 -0.0031391056 0.0024791161
v 0.0040099262 0.003160873 0.0040023594
v 0.0040099262 0.004738576 0.0018857085
v 0.0040099262 0.0050465815 -0.00073621663
v 0.0040099262 0.0040023594 -0.003160873
v 0.0040099262 0.0018857085 -0.004738576
v 0.0040099262 -0.00073621663 -0.0050465815
v 0.0040099262 -0.003160873 -0.0040023594
v 0.0040099262 -0.004738576 -0.0018857085
v 0.0040099262 -0.0050465815 0.00073621663
v 0.0040099262 -0.0040023594 0.003160873
v 0.0040099262 -0.0018857085 0.004738576
v 0.0040099262 0.00073621663 0.0050465815
v 0.0038099262 0.0032848287 0.0041593145
v 0.0038099262 0.00097564157 0.0052094263
v 0.0038099262 -0.0015570535 0.0050661214
v 0.0038099262 -0.0037330462 0.0037622286
v 0.0038099262 -0.0050538434 0.001596455
v 0.0038099262 -0.0052168655 -0.00093504737
v 0.0038099262 -0.0041847667 -0.0032523415
v 0.0038099262 -0.0021939884 -0.0048245635
v 0.0038099262 0.00029940612 -0.0052915362
v 0.0038099262 0.0027242105 -0.0045462818
v 0.0038099262 0.0045249309 -0.0027595287
v 0.0038099262 0.0052890445 -0.00034060104
v 0.0038099262 0.0048415014 0.0021563542
v 0.0040099262 -0.003160873 -0.0040023594
v 0.0038099262 -0.0041847667 -0.0032523415
v 0.00050992612 -0.0068175695 -0.0086325403
v 0.00050992612 -0.0034539167 -0.01044368
v 0.00050992612 0.00032632873 -0.010995158
v 0.00050992612 0.0040672144 -0.010220458
v 0.00050992612 0.0073175341 -0.0082130201
v 0.00050992612 0.009685251 -0.0052149705
v 0.00050992612 0.010884784 -0.0015879182
v 0.00050992612 0.010771451 0.0022306601
v 0.00050992612 0.009358922 0.0057801878
v 0.00050992612 0.0068175695 0.0086325403
v 0.00050992612 0.0034539167 0.01044368
v 0.00050992612 -0.00032632873 0.010995158
v 0.00050992612 -0.0040672144 0.010220458
v 0.00050992612 -0.0073175341 0.0082130201
v 0.00050992612 -0.009685251 0.0052149705
v 0.00050992612 -0.010884784 0.0015879182
v 0.00050992612 -0.010771451 -0.0022306601
v 0.00050992612 -0.009358922 -0.0057801878
v 0.0036099263 0.0068175695 0.0086325403
v 0.0036099263 0.009358922 0.0057801878
v 0.0036099263 0.010771451 0.0022306601
v 0.0036099263 0.010884784 -0.0015879182
v 0.0036099263 0.009685251 -0.0052149705
v 0.0036099263 0.0073175341 -0.0082130201
v 0.0036099263 0.0040672144 -0.010220458
v 0.0036099263 0.00032632873 -0.010995158
v 0.0036099263 -0.0034539167 -0.01044368
v 0.0036099263 -0.0068175695 -0.0086325403
v 0.0036099263 -0.009358922 -0.0057801878
v 0.0036099263 -0.010771451 -0.0022306601
v 0.0036099263 -0.010884784 0.0015879182
v 0.0036099263 -0.009685251 0.0052149705
v 0.0036099263 -0.0073175341 0.0082130201
v 0.0036099263 -0.0040672144 0.010220458
v 0.0036099263 -0.00032632873 0.010995158
v 0.0036099263 0.0034539167 0.01044368
v 0.00050992612 0.0068175695 0.0086325403
v 0.0036099263 0.0068175695 0.0086325403
v 0.0036099263 0.0051935978 -0.006331591
v 0.0036099263 0.0045282308 -0.0049665227
v 0.0036099263 0.0051806345 -0.0035952114
v 0.0036099263 0.006659536 -0.0032502829
v 0.0036099263 0.0078512918 -0.0041914749
v 0.0036099263 0.007858486 -0.0057100511
v 0.0036099263 0.0066757007 -0.0066624922
v 0.0038099262 0.005069642 -0.0064885462
v 0.0038099262 0.0065057189 -0.006894915
v 0.0038099262 0.0078085249 -0.0061668014
v 0.0038099262 0.0082148937 -0.0047307243
v 0.0038099262 0.0074867801 -0.0034279185
v 0.0038099262 0.0060507032 -0.0030215496
v 0.0038099262 0.0047478972 -0.0037496633
v 0.0038099262 0.0043415284 -0.0051857404
v 0.0036099263 0.006659536 -0.0032502829
v 0.0038099262 0.0074867801 -0.0034279185
v 0.0046099262 -0.0014013434 -0.0026525905
v 0.0040908144 -0.0023364869 -0.0018817061
v 0.0035198456 -0.0029215912 -0.00068140654
v 0.0029487549 -0.002927875 0.00065384228
v 0.0023775943 -0.0023541557 0.0018595328
v 0.001806311 -0.0013141422 0.0026968338
v 0.0012348783 -1.3890314e-05 0.0029999488
v 0.00066330407 0.0012890606 0.0027089185
v 9.1635323e-05 0.0023367007 0.0018814328
v -0.00048004296 0.0029215951 0.00068135937
v -0.001051594 0.0029279134 -0.00065369985
v -0.0016231313 0.0023543538 -0.0018592983
v -0.0021948054 0.0013145728 -0.0026966386
v -0.0027664777 1.4465273e-05 -0.0029999519
v -0.0033380612 -0.001288536 -0.0027091626
v -0.0039095047 -0.002336388 -0.0018818005
v -0.0044807979 -0.0029215129 -0.00068166788
v -0.005051966 -0.0029279407 0.00065354503
v -0.0056230595 -0.0023543395 0.0018593256
v -0.0061941459 -0.0013143227 0.002696762
v -0.006765292 -1.3963467e-05 0.0029999538
v -0.0073365572 0.0012891113 0.0027088887
v -0.0079079714 0.0023367957 0.0018812948
v -0.0084800246 0.0029216006 0.00068135258
v -0.0089900735 0.0029563628 -0.00050982212
v -0.0094226697 0.0029424457 -0.0023235007
v -0.0095674243 0.0026826586 -0.0029670427
v -0.0093550732 0.0031391056 -0.0024791161
v -0.0087836447 0.0039038844 -0.00087159954
v -0.0082122162 0.0038954514 0.00090854797
v -0.0076407876 0.0031154762 0.0025087464
v -0.0070693591 0.0017184428 0.0036120568
v -0.0064979306 -1.8949324e-05 0.003999955
v -0.0059265026 -0.001752588 0.0035956132
v -0.0053550735 -0.0031391056 0.0024791161
v -0.0047836449 -0.0039038844 0.00087159954
v -0.0042122164 -0.0038954514 -0.00090854797
v -0.0036407879 -0.0031154762 -0.0025087464
v -0.0030693593 -0.0017184428 -0.0036120568
v -0.0024979308 1.8949324e-05 -0.003999955
v -0.0019265023 0.001752588 -0.0035956132
v -0.0013550737 0.0031391056 -0.0024791161
v -0.00078364518 0.0039038844 -0.00087159954
v -0.00021221664 0.0038954514 0.00090854797
v 0.0003592119 0.0031154762 0.0025087464
v 0.00093064044 0.0017184428 0.0036120568
v 0.0015020691 -1.8949324e-05 0.003999955
v 0.0020734977 -0.001752588 0.0035956132
v 0.0026449263 -0.0031391056 0.0024791161
v 0.0032163548 -0.0039038844 0.00087159954
v 0.0037877834 -0.0038954514 -0.00090854797
v 0.004359212 -0.0031154762 -0.0025087464
v 0.0049306406 -0.0017184428 -0.0036120568
v 0.0051872765 -0.00095978685 -0.0038831443
v -0.0095674243 0.0029670427 0.0026826586
v -0.0094223943 0.0023234264 0.0029419891
v -0.0089900735 0.00050982212 0.0029563628
v -0.0089900735 -6.3099855e-05 0.0029993364
v -0.0089900735 -0.0006337079 0.0029323053
v -0.0089900735 -0.0011810735 0.0027577282
v -0.0095674243 -0.00064803688 0.003947157
v -0.0095674243 -0.0013848058 0.0037526408
v -0.0095674243 -0.0020713181 0.0034219354
v -0.0095674243 -0.0026826586 0.0029670427
v -0.0094226697 -0.0029424457 0.0023235007
v -0.0089900735 -0.0029563628 0.00050982212
v -0.0089900735 -0.0029993364 -6.3099855e-05
v -0.0089900735 -0.0029323053 -0.0006337079
v -0.0089900735 -0.0027577282 -0.0011810735
v -0.0095674243 -0.003947157 -0.00064803688
v -0.0095674243 -0.0037526408 -0.0013848058
v -0.0095674243 -0.0034219354 -0.0020713181
v -0.0095674243 -0.0029670427 -0.0026826586
v -0.0094223943 -0.0023234264 -0.0029419891
v -0.0089900735 -0.00050982212 -0.0029563628
v -0.0089900735 6.3099855e-05 -0.0029993364
v -0.0089900735 0.0006337079 -0.0029323053
v -0.0089900735 0.0011810735 -0.0027577282
v -0.0095674243 0.00064803688 -0.003947157
v -0.0095674243 0.0013848058 -0.0037526408
v -0.0095674243 0.0020713181 -0.0034219354
v -0.0095674243 0.0026826586 -0.0029670427
v -0.0094226697 0.0029424457 -0.0023235007
v -0.0089900735 0.0029563628 -0.00050982212
v -0.0089900735 0.0029993364 6.3099855e-05
v -0.0089900735 0.0029323053 0.0006337079
v -0.0089900735 0.0027577282 0.0011810735
v -0.0095674243 0.003947157 0.00064803688
v -0.0095674243 0.0037526408 0.0013848058
v -0.0095674243 0.0034219354 0.0020713181
v -0.009690074 0.0026107792 0.0033058198
v -0.009690074 0.0039835884 0.0013695387
v -0.009690074 0.0040916365 -0.0010015612
v -0.009690074 0.0029006189 -0.0030546726
v -0.009690074 0.00078867513 -0.004137947
v -0.009690074 -0.0015736672 -0.0039074524
v -0.009690074 -0.0034363814 -0.0024363694
v -0.009690074 -0.0042080688 -0.00019175639
v -0.009690074 -0.0036437241 0.0021137381
v -0.009690074 -0.0019225227 0.0037481355
v -0.009690074 0.00040906599 0.0041925264
v -0.009690074 -0.0015736672 -0.0039074524
v -0.0095674243 -0.0029670427 -0.0026826586
v 0.00050992612 0.0073628243 -0.0035848737
v 0.00050992612 0.0080281913 -0.004949942
v 0.00050992612 0.0073757877 -0.0063212532
v 0.00050992612 0.0058968861 -0.0066661818
v 0.00050992612 0.0047051303 -0.0057249898
v 0.00050992612 0.0046979361 -0.0042064135
v 0.00050992612 0.0058807215 -0.0032539725
v 0.0036099263 0.0051935978 -0.006331591
v 0.0036099263 0.0066757007 -0.0066624922
v 0.0036099263 0.007858486 -0.0057100511
v 0.0036099263 0.0078512918 -0.0041914749
v 0.0036099263 0.006659536 -0.0032502829
v 0.0036099263 0.0051806345 -0.0035952114
v 0.0036099263 0.0045282308 -0.0049665227
v 0.0036099263 0.0078512918 -0.0041914749
v 0.00050992612 0.0073628243 -0.0035848737
v 0.0036099263 -0.0060428457 -0.0076515698
v 0.0036099263 -0.0067082127 -0.0062865013
v 0.0036099263 -0.0060558086 -0.0049151899
v 0.0036099263 -0.0045769076 -0.0045702616
v 0.0036099263 -0.0033851516 -0.0055114538
v 0.0036099263 -0.0033779573 -0.0070300294
v 0.0036099263 -0.0045607426 -0.007982471
v 0.0038099262 -0.0061668014 -0.0078085249
v 0.0038099262 -0.0047307243 -0.0082148937
v 0.0038099262 -0.0034279185 -0.0074867801
v 0.0038099262 -0.0030215496 -0.0060507032
v 0.0038099262 -0.0037496633 -0.0047478972
v 0.0038099262 -0.0051857404 -0.0043415284
v 0.0038099262 -0.0064885462 -0.005069642
v 0.0038099262 -0.006894915 -0.0065057189
v 0.0036099263 -0.0045769076 -0.0045702616
v 0.0038099262 -0.0037496633 -0.0047478972
v 0.0051872765 -0.0029112656 -0.0027430882
v 0.0045177834 -0.0038954514 -0.00090854797
v 0.0039463548 -0.0039038844 0.00087159954
v 0.0033749263 -0.0031391056 0.0024791161
v 0.0028034977 -0.001752588 0.0035956132
v 0.0022320691 -1.8949324e-05 0.003999955
v 0.0016606406 0.0017184428 0.0036120568
v 0.001089212 0.0031154762 0.0025087464
v 0.0005177835 0.0038954514 0.00090854797
v -5.3645038e-05 0.0039038844 -0.00087159954
v -0.00062507387 0.0031391056 -0.0024791161
v -0.0011965021 0.001752588 -0.0035956132
v -0.0017679307 1.8949324e-05 -0.003999955
v -0.0023393592 -0.0017184428 -0.0036120568
v -0.0029107883 -0.0031154762 -0.0025087464
v -0.0034822169 -0.0038954514 -0.00090854797
v -0.0040536454 -0.0039038844 0.00087159954
v -0.0046250739 -0.0031391056 0.0024791161
v -0.0051965025 -0.001752588 0.0035956132
v -0.005767931 -1.8949324e-05 0.003999955
v -0.0063393595 0.0017184428 0.0036120568
v -0.0069107881 0.0031154762 0.0025087464
v -0.0074822166 0.0038954514 0.00090854797
v -0.0080536452 0.0039038844 -0.00087159954
v -0.0086250737 0.0031391056 -0.0024791161
v -0.0091965022 0.001752588 -0.0035956132
v -0.0095674243 0.00064803688 -0.003947157
v -0.0089900735 0.0011810735 -0.0027577282
v -0.0083569255 0.0023542827 -0.0018594072
v -0.0077862385 0.0029279513 -0.00065347303
v -0.0072149995 0.0029215 0.00068170827
v -0.006643615 0.0023363855 0.0018818037
v -0.0060720828 0.0012885678 0.0027091508
v -0.0055004367 -1.4404584e-05 0.0029999564
v -0.0049287465 -0.0013145107 0.0026966667
v -0.0043571421 -0.0023543327 0.0018593304
v -0.0037856432 -0.0029279045 0.00065372032
v -0.003213993 -0.0029216105 -0.0006812971
v -0.0026423064 -0.0023367399 -0.0018813771
v -0.0020706883 -0.001289101 -0.0027088953
v -0.0014992031 1.3882047e-05 -0.002999948
v -0.00092786905 0.0013141735 -0.0026968215
v -0.00035667028 0.0023542027 -0.0018594819
v 0.00021443788 0.0029279001 -0.00065375467
v 0.00078551892 0.0029215652 0.00068149823
v 0.0013566424 0.0023364607 0.0018817234
v 0.0019278698 0.0012885492 0.0027091572
v 0.0024992408 -1.4541376e-05 0.002999945
v 0.0030707637 -0.0013146943 0.0026965684
v 0.0036424069 -0.0023544447 0.0018591755
v 0.0042145282 -0.0029278907 0.00065379164
v 0.0046099262 -0.002987739 -0.00027095351
v 0.0047299972 -0.00312409 -0.00072866185
v 0.0051201278 -0.0030249926 -0.0024359816
v 0.0051872765 -0.00095978685 -0.0038831443
v 0.0051872765 -0.0016792961 -0.0036304221
v 0.0051872765 -0.002337767 -0.0032457426
v 0.0051872765 -0.0029112656 -0.0027430882
v 0.0051201278 -0.0030249926 -0.0024359816
v 0.0047299972 -0.00312409 -0.00072866185
v 0.0046099262 -0.002987739 -0.00027095351
v 0.0046099262 -0.0029844948 0.00030461656
v 0.0046099262 -0.0028713909 0.00086897353
v 0.0046099262 -0.0026525905 0.0014013434
v 0.0051872765 -0.0038831443 0.00095978685
v 0.0051872765 -0.0036304221 0.0016792961
v 0.0051872765 -0.0032457426 0.002337767
v 0.0051872765 -0.0027430882 0.0029112656
v 0.0051201278 -0.0024359816 0.0030249926
v 0.0047299972 -0.00072866185 0.00312409
v 0.0046099262 -0.00027095351 0.002987739
v 0.0046099262 0.00030461656 0.0029844948
v 0.0046099262 0.00086897353 0.0028713909
v 0.0046099262 0.0014013434 0.0026525905
v 0.0051872765 0.00095978685 0.0038831443
v 0.0051872765 0.0016792961 0.0036304221
v 0.0051872765 0.002337767 0.0032457426
v 0.0051872765 0.0029112656 0.0027430882
v 0.0051201278 0.0030249926 0.0024359816
v 0.0047299972 0.00312409 0.00072866185
v 0.0046099262 0.002987739 0.00027095351
v 0.0046099262 0.0029844948 -0.00030461656
v 0.0046099262 0.0028713909 -0.00086897353
v 0.0046099262 0.0026525905 -0.0014013434
v 0.0051872765 0.0038831443 -0.00095978685
v 0.0051872765 0.0036304221 -0.0016792961
v 0.0051872765 0.0032457426 -0.002337767
v 0.0051872765 0.0027430882 -0.0029112656
v 0.0051201278 0.0024359816 -0.0030249926
v 0.0047299972 0.00072866185 -0.00312409
v 0.0046099262 0.00027095351 -0.002987739
v 0.0046099262 -0.00030461656 -0.0029844948
v 0.0046099262 -0.00086897353 -0.0028713909
v 0.0046099262 -0.0014013434 -0.0026525905
v 0.0053099263 -0.0026107792 -0.0033058198
v 0.0053099263 -0.00040906599 -0.0041925264
v 0.0053099263 0.0019225227 -0.0037481355
v 0.0053099263 0.0036437241 -0.0021137381
v 0.0053099263 0.0042080688 0.00019175639
v 0.0053099263 0.0034363814 0.0024363694
v 0.0053099263 0.0015736672 0.0039074524
v 0.0053099263 -0.00078867513 0.004137947
v 0.0053099263 -0.0029006189 0.0030546726
v 0.0053099263 -0.0040916365 0.0010015612
v 0.0053099263 -0.0039835884 -0.0013695387
v 0.0053099263 0.0034363814 0.0024363694
v 0.0051872765 0.0029112656 0.0027430882
v 0.0038099262 0.0066936138 0.0084755851
v 0.0038099262 0.0033911185 0.010253795
v 0.0038099262 -0.00032039503 0.010795247
v 0.0038099262 -0.0039932649 0.010034632
v 0.0038099262 -0.0071844874 0.0080636919
v 0.0038099262 -0.0095091549 0.0051201524
v 0.0038099262 -0.010686879 0.0015590468
v 0.0038099262 -0.010575606 -0.0021901032
v 0.0038099262 -0.0091887599 -0.0056750938
v 0.0038099262 -0.0066936138 -0.0084755851
v 0.0038099262 -0.0033911185 -0.010253795
v 0.0038099262 0.00032039503 -0.010795247
v 0.0038099262 0.0039932649 -0.010034632
v 0.0038099262 0.0071844874 -0.0080636919
v 0.0038099262 0.0095091549 -0.0051201524
v 0.0038099262 0.010686879 -0.0015590468
v 0.0038099262 0.010575606 0.0021901032
v 0.0038099262 0.0091887599 0.0056750938
v 0.0038099262 0.0032848287 0.0041593145
v 0.0038099262 0.0048415014 0.0021563542
v 0.0038099262 0.0052890445 -0.00034060104
v 0.0038099262 0.0045249309 -0.0027595287
v 0.0038099262 0.0027242105 -0.0045462818
v 0.0038099262 0.00029940612 -0.0052915362
v 0.0038099262 -0.0021939884 -0.0048245635
v 0.0038099262 -0.0041847667 -0.0032523415
v 0.0038099262 -0.0052168655 -0.00093504737
v 0.0038099262 -0.0050538434 0.001596455
v 0.0038099262 -0.0037330462 0.0037622286
v 0.0038099262 -0.0015570535 0.0050661214
v 0.0038099262 0.00097564157 0.0052094263
v 0.0038099262 0.005069642 -0.0064885462
v 0.0038099262 0.0043415284 -0.0051857404
v 0.0038099262 0.0047478972 -0.0037496633
v 0.0038099262 0.0060507032 -0.0030215496
v 0.0038099262 0.0074867801 -0.0034279185
v 0.0038099262 0.0082148937 -0.0047307243
v 0.0038099262 0.0078085249 -0.0061668014
v 0.0038099262 0.0065057189 -0.006894915
v 0.0038099262 -0.0061668014 -0.0078085249
v 0.0038099262 -0.006894915 -0.0065057189
v 0.0038099262 -0.0064885462 -0.005069642
v 0.0038099262 -0.0051857404 -0.0043415284
v 0.0038099262 -0.0037496633 -0.0047478972
v 0.0038099262 -0.0030215496 -0.0060507032
v 0.0038099262 -0.0034279185 -0.0074867801
v 0.0038099262 -0.0047307243 -0.0082148937
v 0.0038099262 -0.0074867801 0.0034279185
v 0.0038099262 -0.0082148937 0.0047307243
v 0.0038099262 -0.0078085249 0.0061668014
v 0.0038099262 -0.0065057189 0.006894915
v 0.0038099262 -0.005069642 0.0064885462
v 0.0038099262 -0.0043415284 0.0051857404
v 0.0038099262 -0.0047478972 0.0037496633
v 0.0038099262 -0.0060507032 0.0030215496
v 0.0038099262 0.0037496633 0.0047478972
v 0.0038099262 0.0030215496 0.0060507032
v 0.0038099262 0.0034279185 0.0074867801
v 0.0038099262 0.0047307243 0.0082148937
v 0.0038099262 0.0061668014 0.0078085249
v 0.0038099262 0.006894915 0.0065057189
v 0.0038099262 0.0064885462 0.005069642
v 0.0038099262 0.0051857404 0.0043415284
v 0.00050992612 -0.0038736189 -0.0049048523
v 0.00050992612 -0.003208252 -0.0062699208
v 0.00050992612 -0.0038606557 -0.0076412317
v 0.00050992612 -0.0053395571 -0.0079861605
v 0.00050992612 -0.0065313131 -0.0070449683
v 0.00050992612 -0.006538507 -0.0055263922
v 0.00050992612 -0.005355722 -0.0045739511
v 0.0036099263 -0.0060428457 -0.0076515698
v 0.0036099263 -0.0045607426 -0.007982471
v 0.0036099263 -0.0033779573 -0.0070300294
v 0.0036099263 -0.0033851516 -0.0055114538
v 0.0036099263 -0.0045769076 -0.0045702616
v 0.0036099263 -0.0060558086 -0.0049151899
v 0.0036099263 -0.0067082127 -0.0062865013
v 0.0036099263 -0.0033851516 -0.0055114538
v 0.00050992612 -0.0038736189 -0.0049048523
v 0.0036099263 -0.0073628243 0.0035848737
v 0.0036099263 -0.0080281913 0.004949942
v 0.0036099263 -0.0073757877 0.0063212532
v 0.0036099263 -0.0058968861 0.0066661818
v 0.0036099263 -0.0047051303 0.0057249898
v 0.0036099263 -0.0046979361 0.0042064135
v 0.0036099263 -0.0058807215 0.0032539725
v 0.0038099262 -0.0074867801 0.0034279185
v 0.0038099262 -0.0060507032 0.0030215496
v 0.0038099262 -0.0047478972 0.0037496633
v 0.0038099262 -0.0043415284 0.0051857404
v 0.0038099262 -0.005069642 0.0064885462
v 0.0038099262 -0.0065057189 0.006894915
v 0.0038099262 -0.0078085249 0.0061668014
v 0.0038099262 -0.0082148937 0.0047307243
v 0.0036099263 -0.0058968861 0.0066661818
v 0.0038099262 -0.005069642 0.0064885462
v 0.0051872765 -0.0038831443 0.00095978685
v 0.0049306406 -0.0036120568 0.0017184428
v 0.004359212 -0.0025087464 0.0031154762
v 0.0037877834 -0.00090854797 0.0038954514
v 0.0032163548 0.00087159954 0.0039038844
v 0.0026449263 0.0024791161 0.0031391056
v 0.0020734977 0.0035956132 0.001752588
v 0.0015020691 0.003999955 1.8949324e-05
v 0.00093064044 0.0036120568 -0.0017184428
v 0.0003592119 0.0025087464 -0.0031154762
v -0.00021221664 0.00090854797 -0.0038954514
v -0.00078364518 -0.00087159954 -0.0039038844
v -0.0013550737 -0.0024791161 -0.0031391056
v -0.0019265023 -0.0035956132 -0.001752588
v -0.0024979308 -0.003999955 -1.8949324e-05
v -0.0030693593 -0.0036120568 0.0017184428
v -0.0036407879 -0.0025087464 0.0031154762
v -0.0042122164 -0.00090854797 0.0038954514
v -0.0047836449 0.00087159954 0.0039038844
v -0.0053550735 0.0024791161 0.0031391056
v -0.0059265026 0.0035956132 0.001752588
v -0.0064979306 0.003999955 1.8949324e-05
v -0.0070693591 0.0036120568 -0.0017184428
v -0.0076407876 0.0025087464 -0.0031154762
v -0.0082122162 0.00090854797 -0.0038954514
v -0.0087836447 -0.00087159954 -0.0039038844
v -0.0093550732 -0.0024791161 -0.0031391056
v -0.0095674243 -0.0029670427 -0.0026826586
v -0.0095674243 -0.0034219354 -0.0020713181
v -0.0095674243 -0.0037526408 -0.0013848058
v -0.0095674243 -0.003947157 -0.00064803688
v -0.0091965022 -0.0035956132 -0.001752588
v -0.0086250737 -0.0024791161 -0.0031391056
v -0.0080536452 -0.00087159954 -0.0039038844
v -0.0074822166 0.00090854797 -0.0038954514
v -0.0069107881 0.0025087464 -0.0031154762
v -0.0063393595 0.0036120568 -0.0017184428
v -0.005767931 0.003999955 1.8949324e-05
v -0.0051965025 0.0035956132 0.001752588
v -0.0046250739 0.0024791161 0.0031391056
v -0.0040536454 0.00087159954 0.0039038844
v -0.0034822169 -0.00090854797 0.0038954514
v -0.0029107883 -0.0025087464 0.0031154762
v -0.0023393592 -0.0036120568 0.0017184428
v -0.0017679307 -0.003999955 -1.8949324e-05
v -0.0011965021 -0.0035956132 -0.001752588
v -0.00062507387 -0.0024791161 -0.0031391056
v -5.3645038e-05 -0.00087159954 -0.0039038844
v 0.0005177835 0.00090854797 -0.0038954514
v 0.001089212 0.0025087464 -0.0031154762
v 0.0016606406 0.0036120568 -0.0017184428
v 0.0022320691 0.003999955 1.8949324e-05
v 0.0028034977 0.0035956132 0.001752588
v 0.0033749263 0.0024791161 0.0031391056
v 0.0039463548 0.00087159954 0.0039038844
v 0.0045177834 -0.00090854797 0.0038954514
v 0.0051872765 -0.0027430882 0.0029112656
v 0.0051872765 -0.0032457426 0.002337767
v 0.0051872765 -0.0036304221 0.0016792961
v 0.0033749263 0.0024791161 0.0031391056
v 0.0026449263 0.0024791161 0.0031391056
v -0.0046250739 0.0024791161 0.0031391056
v -0.0053550735 0.0024791161 0.0031391056
v 0.00030992631 -0.0066936138 -0.0084755851
v 0.00030992631 -0.0091887599 -0.0056750938
v 0.00030992631 -0.010575606 -0.0021901032
v 0.00030992631 -0.010686879 0.0015590468
v 0.00030992631 -0.0095091549 0.0051201524
v 0.00030992631 -0.0071844874 0.0080636919
v 0.00030992631 -0.0039932649 0.010034632
v 0.00030992631 -0.00032039503 0.010795247
v 0.00030992631 0.0033911185 0.010253795
v 0.00030992631 0.0066936138 0.0084755851
v 0.00030992631 0.0091887599 0.0056750938
v 0.00030992631 0.010575606 0.0021901032
v 0.00030992631 0.010686879 -0.0015590468
v 0.00030992631 0.0095091549 -0.0051201524
v 0.00030992631 0.0071844874 -0.0080636919
v 0.00030992631 0.0039932649 -0.010034632
v 0.00030992631 0.00032039503 -0.010795247
v 0.00030992631 -0.0033911185 -0.010253795
v 0.00030992631 -0.0032848287 -0.0041593145
v 0.00030992631 -0.00097564157 -0.0052094263
v 0.00030992631 0.0015570535 -0.0050661214
v 0.00030992631 0.0037330462 -0.0037622286
v 0.00030992631 0.0050538434 -0.001596455
v 0.00030992631 0.0052168655 0.00093504737
v 0.00030992631 0.0041847667 0.0032523415
v 0.00030992631 0.0021939884 0.0048245635
v 0.00030992631 -0.00029940612 0.0052915362
v 0.00030992631 -0.0027242105 0.0045462818
v 0.00030992631 -0.0045249309 0.0027595287
v 0.00030992631 -0.0052890445 0.00034060104
v 0.00030992631 -0.0048415014 -0.0021563542
v 0.00030992631 0.0074867801 -0.0034279185
v 0.00030992631 0.0060507032 -0.0030215496
v 0.00030992631 0.0047478972 -0.0037496633
v 0.00030992631 0.0043415284 -0.0051857404
v 0.00030992631 0.005069642 -0.0064885462
v 0.00030992631 0.0065057189 -0.006894915
v 0.00030992631 0.0078085249 -0.0061668014
v 0.00030992631 0.0082148937 -0.0047307243
v 0.00030992631 -0.0037496633 -0.0047478972
v 0.00030992631 -0.0051857404 -0.0043415284
v 0.00030992631 -0.0064885462 -0.005069642
v 0.00030992631 -0.006894915 -0.0065057189
v 0.00030992631 -0.0061668014 -0.0078085249
v 0.00030992631 -0.0047307243 -0.0082148937
v 0.00030992631 -0.0034279185 -0.0074867801
v 0.00030992631 -0.0030215496 -0.0060507032
v 0.00030992631 -0.005069642 0.0064885462
v 0.00030992631 -0.0065057189 0.006894915
v 0.00030992631 -0.0078085249 0.0061668014
v 0.00030992631 -0.0082148937 0.0047307243
v 0.00030992631 -0.0074867801 0.0034279185
v 0.00030992631 -0.0060507032 0.0030215496
v 0.00030992631 -0.0047478972 0.0037496633
v 0.00030992631 -0.0043415284 0.0051857404
v 0.00030992631 0.0061668014 0.0078085249
v 0.00030992631 0.0047307243 0.0082148937
v 0.00030992631 0.0034279185 0.0074867801
v 0.00030992631 0.0030215496 0.0060507032
v 0.00030992631 0.0037496633 0.0047478972
v 0.00030992631 0.0051857404 0.0043415284
v 0.00030992631 0.0064885462 0.005069642
v 0.00030992631 0.006894915 0.0065057189
v 0.00050992612 -0.0051935978 0.006331591
v 0.00050992612 -0.0045282308 0.0049665227
v 0.00050992612 -0.0051806345 0.0035952114
v 0.00050992612 -0.006659536 0.0032502829
v 0.00050992612 -0.0078512918 0.0041914749
v 0.00050992612 -0.007858486 0.0057100511
v 0.00050992612 -0.0066757007 0.0066624922
v 0.0036099263 -0.0073628243 0.0035848737
v 0.0036099263 -0.0058807215 0.0032539725
v 0.0036099263 -0.0046979361 0.0042064135
v 0.0036099263 -0.0047051303 0.0057249898
v 0.0036099263 -0.0058968861 0.0066661818
v 0.0036099263 -0.0073757877 0.0063212532
v 0.0036099263 -0.0080281913 0.004949942
v 0.0036099263 -0.0047051303 0.0057249898
v 0.00050992612 -0.0051935978 0.006331591
v 0.0036099263 0.0038736189 0.0049048523
v 0.0036099263 0.003208252 0.0062699208
v 0.0036099263 0.0038606557 0.0076412317
v 0.0036099263 0.0053395571 0.0079861605
v 0.0036099263 0.0065313131 0.0070449683
v 0.0036099263 0.006538507 0.0055263922
v 0.0036099263 0.005355722 0.0045739511
v 0.0038099262 0.0037496633 0.0047478972
v 0.0038099262 0.0051857404 0.0043415284
v 0.0038099262 0.0064885462 0.005069642
v 0.0038099262 0.006894915 0.0065057189
v 0.0038099262 0.0061668014 0.0078085249
v 0.0038099262 0.0047307243 0.0082148937
v 0.0038099262 0.0034279185 0.0074867801
v 0.0038099262 0.0030215496 0.0060507032
v 0.0036099263 0.0053395571 0.0079861605
v 0.0038099262 0.0061668014 0.0078085249
v 0.0023769771 0.0018593372 0.0023543292
v 0.0018050379 0.0026966126 0.0013146336
v 0.0012340817 0.0029999674 1.4228063e-05
v 0.00066299561 0.0027089828 -0.001288946
v 9.1848409e-05 0.0018813583 -0.0023367518
v -0.00047941502 0.00068109699 -0.002921642
v -0.0010508263 -0.00065401331 -0.0029278235
v -0.0016223827 -0.001859541 -0.0023541492
v -0.0021940425 -0.0026967789 -0.001314282
v -0.0027657273 -0.0029999601 -1.4147426e-05
v -0.0033373037 -0.0027090414 0.0012888338
v -0.0039088192 -0.0018815844 0.0023365828
v -0.0044804862 -0.00068154181 0.0029215524
v -0.005052168 0.00065345975 0.0029279542
v -0.0056237641 0.001859079 0.0023545095
v -0.0061952248 0.0026965485 0.0013147268
v -0.0067665341 0.0029999491 1.4488597e-05
v -0.0073377147 0.0027091089 -0.0012886738
v -0.007908813 0.001881585 -0.0023365874
v -0.0084797337 0.00068123296 -0.0029216289
v -0.0089900735 -0.00050982212 -0.0029563628
v -0.0094223943 -0.0023234264 -0.0029419891
v -0.0095674243 -0.0029670427 -0.0026826586
v -0.0093550732 -0.0024791161 -0.0031391056
v -0.0087836447 -0.00087159954 -0.0039038844
v -0.0082122162 0.00090854797 -0.0038954514
v -0.0076407876 0.0025087464 -0.0031154762
v -0.0070693591 0.0036120568 -0.0017184428
v -0.0064979306 0.003999955 1.8949324e-05
v -0.0059265026 0.0035956132 0.001752588
v -0.0053550735 0.0024791161 0.0031391056
v -0.0047836449 0.00087159954 0.0039038844
v -0.0042122164 -0.00090854797 0.0038954514
v -0.0036407879 -0.0025087464 0.0031154762
v -0.0030693593 -0.0036120568 0.0017184428
v -0.0024979308 -0.003999955 -1.8949324e-05
v -0.0019265023 -0.0035956132 -0.001752588
v -0.0013550737 -0.0024791161 -0.0031391056
v -0.00078364518 -0.00087159954 -0.0039038844
v -0.00021221664 0.00090854797 -0.0038954514
v 0.0003592119 0.0025087464 -0.0031154762
v 0.00093064044 0.0036120568 -0.0017184428
v 0.0015020691 0.003999955 1.8949324e-05
v 0.0020734977 0.0035956132 0.001752588
v 0.0026449263 0.0024791161 0.0031391056
v 0.0032163548 0.00087159954 0.0039038844
v 0.0037877834 -0.00090854797 0.0038954514
v 0.004359212 -0.0025087464 0.0031154762
v 0.0049306406 -0.0036120568 0.0017184428
v 0.0051872765 -0.0038831443 0.00095978685
v 0.0046099262 -0.0026525905 0.0014013434
v 0.0040912628 -0.0018815598 0.0023366072
v 0.0035198342 -0.0006814109 0.0029215885
v 0.0029484056 0.00065369973 0.0029279135
v -0.0094900742 -0.003160873 -0.0040023594
v -0.0094900742 -0.00073621663 -0.0050465815
v -0.0094900742 0.0018857085 -0.004738576
v -0.0094900742 0.0040023594 -0.003160873
v -0.0094900742 0.0050465815 -0.00073621663
v -0.0094900742 0.004738576 0.0018857085
v -0.0094900742 0.003160873 0.0040023594
v -0.0094900742 0.00073621663 0.0050465815
v -0.0094900742 -0.0018857085 0.004738576
v -0.0094900742 -0.0040023594 0.003160873
v -0.0094900742 -0.0050465815 0.00073621663
v -0.0094900742 -0.004738576 -0.0018857085
v 0.0001099262 -0.003160873 -0.0040023594
v 0.0001099262 -0.004738576 -0.0018857085
v 0.0001099262 -0.0050465815 0.00073621663
v 0.0001099262 -0.0040023594 0.003160873
v 0.0001099262 -0.0018857085 0.004738576
v 0.0001099262 0.00073621663 0.0050465815
v 0.0001099262 0.003160873 0.0040023594
v 0.0001099262 0.004738576 0.0018857085
v 0.0001099262 0.0050465815 -0.00073621663
v 0.0001099262 0.0040023594 -0.003160873
v 0.0001099262 0.0018857085 -0.004738576
v 0.0001099262 -0.00073621663 -0.0050465815
v -0.0094900742 0.003160873 0.0040023594
v 0.0001099262 0.003160873 0.0040023594
v 0.00050992612 0.0060428457 0.0076515698
v 0.00050992612 0.0067082127 0.0062865013
v 0.00050992612 0.0060558086 0.0049151899
v 0.00050992612 0.0045769076 0.0045702616
v 0.00050992612 0.0033851516 0.0055114538
v 0.00050992612 0.0033779573 0.0070300294
v 0.00050992612 0.0045607426 0.007982471
v 0.0036099263 0.0038736189 0.0049048523
v 0.0036099263 0.005355722 0.0045739511
v 0.0036099263 0.006538507 0.0055263922
v 0.0036099263 0.0065313131 0.0070449683
v 0.0036099263 0.0053395571 0.0079861605
v 0.0036099263 0.0038606557 0.0076412317
v 0.0036099263 0.003208252 0.0062699208
v 0.0036099263 0.0065313131 0.0070449683
v 0.00050992612 0.0060428457 0.0076515698
v 0.00030992631 -0.0066936138 -0.0084755851
v 0.00030992631 -0.0033911185 -0.010253795
v 0.00030992631 0.00032039503 -0.010795247
v 0.00030992631 0.0039932649 -0.010034632
v 0.00030992631 0.0071844874 -0.0080636919
v 0.00030992631 0.0095091549 -0.0051201524
v 0.00030992631 0.010686879 -0.0015590468
v 0.00030992631 0.010575606 0.0021901032
v 0.00030992631 0.0091887599 0.0056750938
v 0.00030992631 0.0066936138 0.0084755851
v 0.00030992631 0.0033911185 0.010253795
v 0.00030992631 -0.00032039503 0.010795247
v 0.00030992631 -0.0039932649 0.010034632
v 0.00030992631 -0.0071844874 0.0080636919
v 0.00030992631 -0.0095091549 0.0051201524
v 0.00030992631 -0.010686879 0.0015590468
v 0.00030992631 -0.010575606 -0.0021901032
v 0.00030992631 -0.0091887599 -0.0056750938
v 0.00050992612 -0.0068175695 -0.0086325403
v 0.00050992612 -0.009358922 -0.0057801878
v 0.00050992612 -0.010771451 -0.0022306601
v 0.00050992612 -0.010884784 0.0015879182
v 0.00050992612 -0.009685251 0.0052149705
v 0.00050992612 -0.0073175341 0.0082130201
v 0.00050992612 -0.0040672144 0.010220458
v 0.00050992612 -0.00032632873 0.010995158
v 0.00050992612 0.0034539167 0.01044368
v 0.00050992612 0.0068175695 0.0086325403
v 0.00050992612 0.009358922 0.0057801878
v 0.00050992612 0.010771451 0.0022306601
v 0.00050992612 0.010884784 -0.0015879182
v 0.00050992612 0.009685251 -0.0052149705
v 0.00050992612 0.0073175341 -0.0082130201
v 0.00050992612 0.0040672144 -0.010220458
v 0.00050992612 0.00032632873 -0.010995158
v 0.00050992612 -0.0034539167 -0.01044368
v 0.00030992631 0.0066936138 0.0084755851
v 0.00050992612 0.0068175695 0.0086325403
v 0.0051872765 -0.0027430882 0.0029112656
v 0.0045177834 -0.00090854797 0.0038954514
v 0.0039463548 0.00087159954 0.0039038844
v 0.0033749263 0.0024791161 0.0031391056
v 0.0028034977 0.0035956132 0.001752588
v 0.0022320691 0.003999955 1.8949324e-05
v 0.0016606406 0.0036120568 -0.0017184428
v 0.001089212 0.0025087464 -0.0031154762
v 0.0005177835 0.00090854797 -0.0038954514
v -5.3645038e-05 -0.00087159954 -0.0039038844
v -0.00062507387 -0.0024791161 -0.0031391056
v -0.0011965021 -0.0035956132 -0.001752588
v -0.0017679307 -0.003999955 -1.8949324e-05
v -0.0023393592 -0.0036120568 0.0017184428
v -0.0029107883 -0.0025087464 0.0031154762
v -0.0034822169 -0.00090854797 0.0038954514
v -0.0040536454 0.00087159954 0.0039038844
v -0.0046250739 0.0024791161 0.0031391056
v -0.0051965025 0.0035956132 0.001752588
v -0.005767931 0.003999955 1.8949324e-05
v -0.0063393595 0.0036120568 -0.0017184428
v -0.0069107881 0.0025087464 -0.0031154762
v -0.0074822166 0.00090854797 -0.0038954514
v -0.0080536452 -0.00087159954 -0.0039038844
v -0.0086250737 -0.0024791161 -0.0031391056
v -0.0091965022 -0.0035956132 -0.001752588
v -0.0095674243 -0.003947157 -0.00064803688
v -0.0089900735 -0.0027577282 -0.0011810735
v -0.0083569255 -0.0018594072 -0.0023542827
v -0.0077862385 -0.00065347303 -0.0029279513
v -0.0072149995 0.00068170827 -0.0029215
v -0.006643615 0.0018818037 -0.0023363855
v -0.0060720828 0.0027091508 -0.0012885678
v -0.0055004367 0.0029999564 1.4404584e-05
v -0.0049287465 0.0026966667 0.0013145107
v -0.0043571421 0.0018593304 0.0023543327
v -0.0037856432 0.00065372032 0.0029279045
v -0.003213993 -0.0006812971 0.0029216105
v -0.0026423064 -0.0018813771 0.0023367399
v -0.0020706883 -0.0027088953 0.001289101
v -0.0014992031 -0.002999948 -1.3882047e-05
v -0.00092786905 -0.0026968215 -0.0013141735
v -0.00035667028 -0.0018594819 -0.0023542027
v 0.00021443788 -0.00065375467 -0.0029279001
v 0.00078551892 0.00068149823 -0.0029215652
v 0.0013566424 0.0018817234 -0.0023364607
v 0.0019278698 0.0027091572 -0.0012885492
v 0.0024992408 0.002999945 1.4541376e-05
v 0.0030707637 0.0026965684 0.0013146943
v 0.0036424069 0.0018591755 0.0023544447
v 0.0042145282 0.00065379164 0.0029278907
v 0.0046099262 -0.00027095351 0.002987739
v 0.0047299972 -0.00072866185 0.00312409
v 0.0051201278 -0.0024359816 0.0030249926
v 0.0040099262 0.003160873 0.0040023594
v 0.0040099262 0.00073621663 0.0050465815
v 0.0040099262 -0.0018857085 0.004738576
v 0.0040099262 -0.0040023594 0.003160873
v 0.0040099262 -0.0050465815 0.00073621663
v 0.0040099262 -0.004738576 -0.0018857085
v 0.0040099262 -0.003160873 -0.0040023594
v 0.0040099262 -0.00073621663 -0.0050465815
v 0.0040099262 0.0018857085 -0.004738576
v 0.0040099262 0.0040023594 -0.003160873
v 0.0040099262 0.0050465815 -0.00073621663
v 0.0040099262 0.004738576 0.0018857085
v 0.0051099262 0.003160873 0.0040023594
v 0.0051099262 0.004738576 0.0018857085
v 0.0051099262 0.0050465815 -0.00073621663
v 0.0051099262 0.0040023594 -0.003160873
v 0.0051099262 0.0018857085 -0.004738576
v 0.0051099262 -0.00073621663 -0.0050465815
v 0.0051099262 -0.003160873 -0.0040023594
v 0.0051099262 -0.004738576 -0.0018857085
v 0.0051099262 -0.0050465815 0.00073621663
v 0.0051099262 -0.0040023594 0.003160873
v 0.0051099262 -0.0018857085 0.004738576
v 0.0051099262 0.00073621663 0.0050465815
v 0.0040099262 0.003160873 0.0040023594
v 0.0051099262 0.003160873 0.0040023594
v -0.009690074 -0.0030369173 -0.0038454043
v -0.009690074 -0.0045527496 -0.001811759
v -0.009690074 -0.0048486763 0.00070734528
v -0.009690074 -0.0038454043 0.0030369173
v -0.009690074 -0.001811759 0.0045527496
v -0.009690074 0.00070734528 0.0048486763
v -0.009690074 0.0030369173 0.0038454043
v -0.009690074 0.0045527496 0.001811759
v -0.009690074 0.0048486763 -0.00070734528
v -0.009690074 0.0038454043 -0.0030369173
v -0.009690074 0.001811759 -0.0045527496
v -0.009690074 -0.00070734528 -0.0048486763
v -0.009690074 0.0026107792 0.0033058198
v -0.009690074 0.00040906599 0.0041925264
v -0.009690074 -0.0019225227 0.0037481355
v -0.009690074 -0.0036437241 0.0021137381
v -0.009690074 -0.0042080688 -0.00019175639
v -0.009690074 -0.0034363814 -0.0024363694
v -0.009690074 -0.0015736672 -0.0039074524
v -0.009690074 0.00078867513 -0.004137947
v -0.009690074 0.0029006189 -0.0030546726
v -0.009690074 0.0040916365 -0.0010015612
v -0.009690074 0.0039835884 0.0013695387
v 0.0001099262 -0.003160873 -0.0040023594
v 0.0001099262 -0.00073621663 -0.0050465815
v 0.0001099262 0.0018857085 -0.004738576
v 0.0001099262 0.0040023594 -0.003160873
v 0.0001099262 0.0050465815 -0.00073621663
v 0.0001099262 0.004738576 0.0018857085
v 0.0001099262 0.003160873 0.0040023594
v 0.0001099262 0.00073621663 0.0050465815
v 0.0001099262 -0.0018857085 0.004738576
v 0.0001099262 -0.0040023594 0.003160873
v 0.0001099262 -0.0050465815 0.00073621663
v 0.0001099262 -0.004738576 -0.0018857085
v 0.00030992631 -0.0032848287 -0.0041593145
v 0.00030992631 -0.0048415014 -0.0021563542
v 0.00030992631 -0.0052890445 0.00034060104
v 0.00030992631 -0.0045249309 0.0027595287
v 0.00030992631 -0.0027242105 0.0045462818
v 0.00030992631 -0.00029940612 0.0052915362
v 0.00030992631 0.0021939884 0.0048245635
v 0.00030992631 0.0041847667 0.0032523415
v 0.00030992631 0.0052168655 0.00093504737
v 0.00030992631 0.0050538434 -0.001596455
v 0.00030992631 0.0037330462 -0.0037622286
v 0.00030992631 0.0015570535 -0.0050661214
v 0.00030992631 -0.00097564157 -0.0052094263
v 0.0001099262 0.003160873 0.0040023594
v 0.00030992631 0.0021939884 0.0048245635
v 0.0053099263 0.0030369173 0.0038454043
v 0.0053099263 0.00070734528 0.0048486763
v 0.0053099263 -0.001811759 0.0045527496
v 0.0053099263 -0.0038454043 0.0030369173
v 0.0053099263 -0.0048486763 0.00070734528
v 0.0053099263 -0.0045527496 -0.001811759
v 0.0053099263 -0.0030369173 -0.0038454043
v 0.0053099263 -0.00070734528 -0.0048486763
v 0.0053099263 0.001811759 -0.0045527496
v 0.0053099263 0.0038454043 -0.0030369173
v 0.0053099263 0.0048486763 -0.00070734528
v 0.0053099263 0.0045527496 0.001811759
v 0.0053099263 -0.0026107792 -0.0033058198
v 0.0053099263 -0.0039835884 -0.0013695387
v 0.0053099263 -0.0040916365 0.0010015612
v 0.0053099263 -0.0029006189 0.0030546726
v 0.0053099263 -0.00078867513 0.004137947
v 0.0053099263 0.0015736672 0.0039074524
v 0.0053099263 0.0034363814 0.0024363694
v 0.0053099263 0.0042080688 0.00019175639
v 0.0053099263 0.0036437241 -0.0021137381
v 0.0053099263 0.0019225227 -0.0037481355
v 0.0053099263 -0.00040906599 -0.0041925264
v 0.00050992612 0.0073628243 -0.0035848737
v 0.00050992612 0.0058807215 -0.0032539725
v 0.00050992612 0.0046979361 -0.0042064135
v 0.00050992612 0.0047051303 -0.0057249898
v 0.00050992612 0.0058968861 -0.0066661818
v 0.00050992612 0.0073757877 -0.0063212532
v 0.00050992612 0.0080281913 -0.004949942
v 0.00030992631 0.0074867801 -0.0034279185
v 0.00030992631 0.0082148937 -0.0047307243
v 0.00030992631 0.0078085249 -0.0061668014
v 0.00030992631 0.0065057189 -0.006894915
v 0.00030992631 0.005069642 -0.0064885462
v 0.00030992631 0.0043415284 -0.0051857404
v 0.00030992631 0.0047478972 -0.0037496633
v 0.00030992631 0.0060507032 -0.0030215496
v 0.00050992612 0.0047051303 -0.0057249898
v 0.00030992631 0.005069642 -0.0064885462
v 0.00050992612 -0.0038736189 -0.0049048523
v 0.00050992612 -0.005355722 -0.0045739511
v 0.00050992612 -0.006538507 -0.0055263922
v 0.00050992612 -0.0065313131 -0.0070449683
v 0.00050992612 -0.0053395571 -0.0079861605
v 0.00050992612 -0.0038606557 -0.0076412317
v 0.00050992612 -0.003208252 -0.0062699208
v 0.00030992631 -0.0037496633 -0.0047478972
v 0.00030992631 -0.0030215496 -0.0060507032
v 0.00030992631 -0.0034279185 -0.0074867801
v 0.00030992631 -0.0047307243 -0.0082148937
v 0.00030992631 -0.0061668014 -0.0078085249
v 0.00030992631 -0.006894915 -0.0065057189
v 0.00030992631 -0.0064885462 -0.005069642
v 0.00030992631 -0.0051857404 -0.0043415284
v 0.00050992612 -0.0065313131 -0.0070449683
v 0.00030992631 -0.0061668014 -0.0078085249
v 0.00050992612 -0.0051935978 0.006331591
v 0.00050992612 -0.0066757007 0.0066624922
v 0.00050992612 -0.007858486 0.0057100511
v 0.00050992612 -0.0078512918 0.0041914749
v 0.00050992612 -0.006659536 0.0032502829
v 0.00050992612 -0.0051806345 0.0035952114
v 0.00050992612 -0.0045282308 0.0049665227
v 0.00030992631 -0.005069642 0.0064885462
v 0.00030992631 -0.0043415284 0.0051857404
v 0.00030992631 -0.0047478972 0.0037496633
v 0.00030992631 -0.0060507032 0.0030215496
v 0.00030992631 -0.0074867801 0.0034279185
v 0.00030992631 -0.0082148937 0.0047307243
v 0.00030992631 -0.0078085249 0.0061668014
v 0.00030992631 -0.0065057189 0.006894915
v 0.00050992612 -0.0078512918 0.0041914749
v 0.00030992631 -0.0074867801 0.0034279185
v 0.00050992612 0.0060428457 0.0076515698
v 0.00050992612 0.0045607426 0.007982471
v 0.00050992612 0.0033779573 0.0070300294
v 0.00050992612 0.0033851516 0.0055114538
v 0.00050992612 0.0045769076 0.0045702616
v 0.00050992612 0.0060558086 0.0049151899
v 0.00050992612 0.0067082127 0.0062865013
v 0.00030992631 0.0061668014 0.0078085249
v 0.00030992631 0.006894915 0.0065057189
v 0.00030992631 0.0064885462 0.005069642
v 0.00030992631 0.0051857404 0.0043415284
v 0.00030992631 0.0037496633 0.0047478972
v 0.00030992631 0.0030215496 0.0060507032
v 0.00030992631 0.0034279185 0.0074867801
v 0.00030992631 0.0047307243 0.0082148937
v 0.00050992612 0.0033851516 0.0055114538
v 0.00030992631 0.0037496633 0.0047478972
v -0.009690074 -0.0030369173 -0.0038454043
v -0.009690074 -0.00070734528 -0.0048486763
v -0.009690074 0.001811759 -0.0045527496
v -0.009690074 0.0038454043 -0.0030369173
v -0.009690074 0.0048486763 -0.00070734528
v -0.009690074 0.0045527496 0.001811759
v -0.009690074 0.0030369173 0.0038454043
v -0.009690074 0.00070734528 0.0048486763
v -0.009690074 -0.001811759 0.0045527496
v -0.009690074 -0.0038454043 0.0030369173
v -0.009690074 -0.0048486763 0.00070734528
v -0.009690074 -0.0045527496 -0.001811759
v -0.0094900742 -0.003160873 -0.0040023594
v -0.0094900742 -0.004738576 -0.0018857085
v -0.0094900742 -0.0050465815 0.00073621663
v -0.0094900742 -0.0040023594 0.003160873
v -0.0094900742 -0.0018857085 0.004738576
v -0.0094900742 0.00073621663 0.0050465815
v -0.0094900742 0.003160873 0.0040023594
v -0.0094900742 0.004738576 0.0018857085
v -0.0094900742 0.0050465815 -0.00073621663
v -0.0094900742 0.0040023594 -0.003160873
v -0.0094900742 0.0018857085 -0.004738576
v -0.0094900742 -0.00073621663 -0.0050465815
v -0.009690074 0.0030369173 0.0038454043
v -0.0094900742 0.003160873 0.0040023594
v 0.0053099263 0.0030369173 0.0038454043
v 0.0053099263 0.0045527496 0.001811759
v 0.0053099263 0.0048486763 -0.00070734528
v 0.0053099263 0.0038454043 -0.0030369173
v 0.0053099263 0.001811759 -0.0045527496
v 0.0053099263 -0.00070734528 -0.0048486763
v 0.0053099263 -0.0030369173 -0.0038454043
v 0.0053099263 -0.0045527496 -0.001811759
v 0.0053099263 -0.0048486763 0.00070734528
v 0.0053099263 -0.0038454043 0.0030369173
v 0.0053099263 -0.001811759 0.0045527496
v 0.0053099263 0.00070734528 0.0048486763
v 0.0051099262 0.003160873 0.0040023594
v 0.0051099262 0.00073621663 0.0050465815
v 0.0051099262 -0.0018857085 0.004738576
v 0.0051099262 -0.0040023594 0.003160873
v 0.0051099262 -0.0050465815 0.00073621663
v 0.0051099262 -0.004738576 -0.0018857085
v 0.0051099262 -0.003160873 -0.0040023594
v 0.0051099262 -0.00073621663 -0.0050465815
v 0.0051099262 0.0018857085 -0.004738576
v 0.0051099262 0.0040023594 -0.003160873
v 0.0051099262 0.0050465815 -0.00073621663
v 0.0051099262 0.004738576 0.0018857085
v 0.0053099263 -0.0030369173 -0.0038454043
v 0.0051099262 -0.003160873 -0.0040023594
f 1 2 59
f 59 2 58
f 58 2 3
f 58 3 57
f 57 3 56
f 56 3 4
f 56 4 55
f 55 4 5
f 55 5 54
f 54 5 61
f 60 6 53
f 53 6 7
f 53 7 52
f 52 7 8
f 52 8 51
f 51 8 9
f 51 9 50
f 50 9 10
f 50 10 49
f 49 10 11
f 49 11 48
f 48 11 12
f 48 12 47
f 47 12 13
f 47 13 46
f 46 13 14
f 46 14 45
f 45 14 15
f 45 15 44
f 44 15 16
f 44 16 43
f 43 16 17
f 43 17 42
f 42 17 18
f 42 18 41
f 41 18 19
f 41 19 40
f 40 19 63
f 62 20 39
f 39 20 21
f 39 21 38
f 38 21 22
f 38 22 37
f 37 22 23
f 37 23 36
f 36 23 24
f 36 24 35
f 35 24 25
f 35 25 34
f 34 25 26
f 34 26 33
f 33 26 27
f 33 27 28
f 28 29 33
f 33 29 32
f 32 29 30
f 32 30 31
f 65 115 64
f 64 115 116
f 64 116 117
f 115 65 114
f 114 65 66
f 114 66 67
f 114 67 113
f 113 67 68
f 113 68 112
f 112 68 69
f 112 69 111
f 111 69 70
f 111 70 110
f 110 70 71
f 110 71 109
f 109 71 72
f 109 72 108
f 108 72 73
f 108 73 107
f 107 73 74
f 107 74 106
f 106 74 75
f 106 75 105
f 105 75 76
f 105 76 104
f 104 76 77
f 104 77 103
f 103 77 102
f 102 77 78
f 102 78 101
f 101 78 79
f 101 79 100
f 100 79 80
f 100 80 99
f 99 80 81
f 99 81 98
f 98 81 82
f 98 82 83
f 98 83 97
f 97 83 84
f 97 84 96
f 96 84 85
f 96 85 95
f 95 85 86
f 95 86 94
f 94 86 87
f 94 87 93
f 93 87 88
f 93 88 92
f 92 88 89
f 92 89 91
f 91 89 90
f 118 119 171
f 171 119 170
f 170 119 120
f 170 120 169
f 169 120 168
f 168 120 121
f 168 121 167
f 167 121 122
f 167 122 166
f 166 122 123
f 166 123 165
f 165 123 124
f 165 124 164
f 164 124 125
f 164 125 163
f 163 125 126
f 163 126 162
f 162 126 127
f 162 127 161
f 161 127 160
f 160 127 128
f 160 128 159
f 159 128 129
f 159 129 158
f 158 129 130
f 158 130 157
f 157 130 131
f 157 131 156
f 156 131 132
f 156 132 155
f 155 132 133
f 155 133 134
f 155 134 154
f 154 134 135
f 154 135 153
f 153 135 136
f 153 136 152
f 152 136 137
f 152 137 151
f 151 137 138
f 151 138 150
f 150 138 139
f 150 139 149
f 149 139 140
f 149 140 148
f 148 140 141
f 148 141 147
f 147 141 142
f 147 142 146
f 146 142 143
f 146 143 145
f 145 143 144
f 172 173 230
f 230 173 229
f 229 173 174
f 229 174 228
f 228 174 227
f 227 174 175
f 227 175 226
f 226 175 176
f 226 176 225
f 225 176 232
f 231 177 224
f 224 177 178
f 224 178 223
f 223 178 179
f 223 179 222
f 222 179 180
f 222 180 221
f 221 180 181
f 221 181 220
f 220 181 182
f 220 182 219
f 219 182 183
f 219 183 218
f 218 183 184
f 218 184 217
f 217 184 185
f 217 185 216
f 216 185 186
f 216 186 215
f 215 186 187
f 215 187 214
f 214 187 188
f 214 188 213
f 213 188 189
f 213 189 212
f 212 189 190
f 212 190 211
f 211 190 234
f 233 191 210
f 210 191 192
f 210 192 209
f 209 192 193
f 209 193 208
f 208 193 194
f 208 194 207
f 207 194 195
f 207 195 206
f 206 195 196
f 206 196 205
f 205 196 197
f 205 197 204
f 204 197 198
f 204 198 199
f 199 200 204
f 204 200 203
f 203 200 201
f 203 201 202
f 235 236 288
f 288 236 287
f 287 236 286
f 286 236 237
f 286 237 285
f 285 237 238
f 285 238 284
f 284 238 239
f 284 239 283
f 283 239 240
f 283 240 282
f 282 240 241
f 282 241 281
f 281 241 242
f 281 242 280
f 280 242 243
f 280 243 279
f 279 243 244
f 279 244 278
f 278 244 245
f 278 245 277
f 277 245 246
f 277 246 276
f 276 246 247
f 276 247 275
f 275 247 289
f 290 248 274
f 274 248 249
f 274 249 273
f 273 249 250
f 273 250 272
f 272 250 251
f 272 251 271
f 271 251 252
f 271 252 270
f 270 252 253
f 270 253 269
f 269 253 254
f 269 254 268
f 268 254 255
f 268 255 267
f 267 255 256
f 267 256 266
f 266 256 257
f 266 257 265
f 265 257 258
f 265 258 264
f 264 258 259
f 264 259 263
f 263 259 260
f 263 260 261
f 261 262 263
f 344 291 343
f 343 291 292
f 343 292 342
f 342 292 293
f 342 293 341
f 341 293 294
f 341 294 340
f 340 294 295
f 340 295 339
f 339 295 296
f 339 296 338
f 338 296 297
f 338 297 337
f 337 297 336
f 336 297 298
f 336 298 335
f 335 298 299
f 335 299 334
f 334 299 300
f 334 300 333
f 333 300 301
f 333 301 332
f 332 301 302
f 332 302 303
f 332 303 331
f 331 303 304
f 331 304 330
f 330 304 305
f 330 305 329
f 329 305 306
f 329 306 328
f 328 306 307
f 328 307 327
f 327 307 308
f 327 308 326
f 326 308 309
f 326 309 325
f 325 309 310
f 325 310 324
f 324 310 311
f 324 311 323
f 323 311 312
f 323 312 322
f 322 312 313
f 322 313 321
f 321 313 320
f 320 313 314
f 320 314 315
f 320 315 319
f 319 315 316
f 319 316 318
f 318 316 317
f 345 346 398
f 398 346 397
f 397 346 396
f 396 346 347
f 396 347 395
f 395 347 399
f 400 348 394
f 394 348 349
f 394 349 393
f 393 349 350
f 393 350 392
f 392 350 351
f 392 351 391
f 391 351 352
f 391 352 390
f 390 352 353
f 390 353 389
f 389 353 354
f 389 354 388
f 388 354 355
f 388 355 387
f 387 355 356
f 387 356 386
f 386 356 357
f 386 357 385
f 385 357 358
f 385 358 384
f 384 358 359
f 384 359 383
f 383 359 360
f 383 360 382
f 382 360 361
f 382 361 381
f 381 361 401
f 402 362 380
f 380 362 363
f 380 363 379
f 379 363 364
f 379 364 378
f 378 364 365
f 378 365 377
f 377 365 366
f 377 366 376
f 376 366 367
f 376 367 375
f 375 367 368
f 375 368 374
f 374 368 369
f 374 369 373
f 373 369 370
f 373 370 371
f 371 372 373
f 403 404 456
f 456 404 455
f 455 404 454
f 454 404 405
f 454 405 453
f 453 405 406
f 453 406 452
f 452 406 407
f 452 407 451
f 451 407 408
f 451 408 450
f 450 408 409
f 450 409 449
f 449 409 410
f 449 410 448
f 448 410 411
f 448 411 447
f 447 411 412
f 447 412 446
f 446 412 457
f 458 413 445
f 445 413 414
f 445 414 444
f 444 414 415
f 444 415 443
f 443 415 416
f 443 416 442
f 442 416 417
f 442 417 441
f 441 417 418
f 441 418 440
f 440 418 419
f 440 419 439
f 439 419 420
f 439 420 438
f 438 420 421
f 438 421 437
f 437 421 422
f 437 422 436
f 436 422 423
f 436 423 435
f 435 423 424
f 435 424 434
f 434 424 460
f 434 460 433
f 459 425 426
f 459 426 432
f 432 426 427
f 432 427 431
f 431 427 428
f 431 428 429
f 429 430 431
f 461 462 514
f 514 462 513
f 513 462 463
f 513 463 512
f 512 463 511
f 511 463 464
f 511 464 510
f 510 464 465
f 510 465 509
f 509 465 466
f 509 466 508
f 508 466 467
f 508 467 507
f 507 467 468
f 507 468 506
f 506 468 469
f 506 469 505
f 505 469 504
f 504 469 470
f 504 470 503
f 503 470 471
f 503 471 502
f 502 471 472
f 502 472 501
f 501 472 473
f 501 473 500
f 500 473 474
f 500 474 499
f 499 474 475
f 499 475 476
f 499 476 498
f 498 476 477
f 498 477 497
f 497 477 478
f 497 478 496
f 496 478 479
f 496 479 495
f 495 479 480
f 495 480 494
f 494 480 481
f 494 481 493
f 493 481 482
f 493 482 492
f 492 482 483
f 492 483 491
f 491 483 484
f 491 484 490
f 490 484 485
f 490 485 489
f 489 485 486
f 489 486 488
f 488 486 487
f 516 550 515
f 515 550 533
f 515 533 532
f 532 533 534
f 532 534 531
f 531 534 535
f 531 535 530
f 530 535 536
f 530 536 529
f 529 536 537
f 529 537 528
f 528 537 538
f 528 538 527
f 527 538 539
f 527 539 526
f 526 539 540
f 526 540 525
f 525 540 541
f 525 541 524
f 524 541 552
f 551 542 523
f 523 542 543
f 523 543 522
f 522 543 544
f 522 544 521
f 521 544 545
f 521 545 520
f 520 545 546
f 520 546 519
f 519 546 547
f 519 547 518
f 518 547 548
f 518 548 517
f 517 548 549
f 517 549 516
f 516 549 550
f 553 554 606
f 606 554 605
f 605 554 604
f 604 554 555
f 604 555 603
f 603 555 556
f 603 556 602
f 602 556 557
f 602 557 601
f 601 557 608
f 601 608 600
f 609 558 559
f 609 559 599
f 599 559 560
f 599 560 598
f 598 560 561
f 598 561 597
f 597 561 562
f 597 562 596
f 596 562 563
f 596 563 595
f 595 563 564
f 595 564 594
f 594 564 565
f 594 565 593
f 593 565 566
f 593 566 592
f 592 566 567
f 592 567 591
f 591 567 568
f 591 568 590
f 590 568 569
f 590 569 589
f 589 569 570
f 589 570 588
f 588 570 571
f 588 571 587
f 587 571 610
f 587 610 586
f 607 572 573
f 607 573 585
f 585 573 574
f 585 574 584
f 584 574 575
f 584 575 583
f 583 575 576
f 583 576 582
f 582 576 577
f 582 577 581
f 581 577 578
f 581 578 579
f 579 580 581
f 611 612 669
f 669 612 668
f 668 612 613
f 668 613 667
f 667 613 666
f 666 613 614
f 666 614 665
f 665 614 615
f 665 615 664
f 664 615 671
f 670 616 663
f 663 616 617
f 663 617 662
f 662 617 618
f 662 618 661
f 661 618 619
f 661 619 660
f 660 619 620
f 660 620 659
f 659 620 621
f 659 621 658
f 658 621 622
f 658 622 657
f 657 622 623
f 657 623 656
f 656 623 624
f 656 624 655
f 655 624 625
f 655 625 654
f 654 625 626
f 654 626 653
f 653 626 627
f 653 627 652
f 652 627 628
f 652 628 651
f 651 628 629
f 651 629 650
f 650 629 673
f 672 630 649
f 649 630 631
f 649 631 648
f 648 631 632
f 648 632 647
f 647 632 633
f 647 633 646
f 646 633 634
f 646 634 645
f 645 634 635
f 645 635 644
f 644 635 636
f 644 636 643
f 643 636 637
f 643 637 638
f 638 639 643
f 643 639 642
f 642 639 640
f 642 640 641
f 675 698 674
f 674 698 686
f 674 686 687
f 698 675 697
f 697 675 676
f 697 676 696
f 696 676 677
f 696 677 695
f 695 677 678
f 695 678 694
f 694 678 679
f 694 679 693
f 693 679 699
f 693 699 692
f 700 680 681
f 700 681 691
f 691 681 682
f 691 682 690
f 690 682 683
f 690 683 689
f 689 683 684
f 689 684 688
f 688 684 685
f 688 685 687
f 687 685 674
f 702 727 701
f 701 727 728
f 701 728 718
f 718 728 729
f 718 729 717
f 717 729 730
f 717 730 716
f 716 730 731
f 716 731 715
f 715 731 732
f 715 732 714
f 714 732 733
f 714 733 713
f 713 733 734
f 713 734 712
f 712 734 735
f 712 735 711
f 711 735 736
f 711 736 710
f 710 736 738
f 737 719 709
f 709 719 720
f 709 720 708
f 708 720 721
f 708 721 707
f 707 721 722
f 707 722 706
f 706 722 723
f 706 723 705
f 705 723 724
f 705 724 704
f 704 724 725
f 704 725 703
f 703 725 726
f 703 726 702
f 702 726 727
f 740 753 739
f 739 753 746
f 739 746 747
f 753 740 752
f 752 740 741
f 752 741 751
f 751 741 754
f 751 754 750
f 755 742 743
f 755 743 749
f 749 743 744
f 749 744 748
f 748 744 745
f 748 745 747
f 747 745 739
f 809 756 808
f 808 756 757
f 808 757 807
f 807 757 758
f 807 758 806
f 806 758 759
f 806 759 805
f 805 759 760
f 805 760 804
f 804 760 803
f 803 760 761
f 803 761 802
f 802 761 762
f 802 762 801
f 801 762 763
f 801 763 800
f 800 763 764
f 800 764 799
f 799 764 765
f 799 765 798
f 798 765 766
f 798 766 767
f 798 767 797
f 797 767 768
f 797 768 796
f 796 768 769
f 796 769 795
f 795 769 770
f 795 770 794
f 794 770 771
f 794 771 793
f 793 771 772
f 793 772 792
f 792 772 773
f 792 773 791
f 791 773 774
f 791 774 790
f 790 774 775
f 790 775 789
f 789 775 776
f 789 776 788
f 788 776 777
f 788 777 787
f 787 777 786
f 786 777 778
f 786 778 785
f 785 778 779
f 785 779 780
f 785 780 784
f 784 780 781
f 784 781 783
f 783 781 782
f 845 810 846
f 846 810 811
f 846 811 812
f 846 812 856
f 856 812 813
f 856 813 816
f 816 813 814
f 816 814 815
f 856 816 855
f 855 816 817
f 855 817 818
f 818 819 855
f 855 819 854
f 854 819 820
f 854 820 821
f 854 821 853
f 853 821 822
f 853 822 825
f 825 822 823
f 825 823 824
f 825 826 853
f 853 826 852
f 852 826 827
f 852 827 858
f 852 858 851
f 857 828 829
f 857 829 830
f 857 830 850
f 850 830 831
f 850 831 834
f 834 831 832
f 834 832 833
f 834 835 850
f 850 835 836
f 850 836 849
f 849 836 837
f 849 837 838
f 849 838 848
f 848 838 839
f 848 839 840
f 848 840 843
f 843 840 841
f 843 841 842
f 848 843 847
f 847 843 844
f 847 844 845
f 847 845 846
f 860 873 859
f 874 869 870
f 874 870 865
f 865 870 871
f 865 871 864
f 864 871 872
f 864 872 863
f 863 872 866
f 863 866 862
f 862 866 867
f 862 867 861
f 861 867 868
f 861 868 860
f 860 868 873
f 876 889 875
f 875 889 882
f 875 882 883
f 889 876 888
f 888 876 877
f 888 877 887
f 887 877 890
f 887 890 886
f 891 878 879
f 891 879 885
f 885 879 880
f 885 880 884
f 884 880 881
f 884 881 883
f 883 881 875
f 892 893 945
f 945 893 944
f 944 893 894
f 944 894 943
f 943 894 942
f 942 894 941
f 941 894 895
f 941 895 940
f 940 895 896
f 940 896 939
f 939 896 897
f 939 897 938
f 938 897 898
f 938 898 899
f 938 899 937
f 937 899 900
f 937 900 936
f 936 900 901
f 936 901 935
f 935 901 902
f 935 902 934
f 934 902 903
f 934 903 933
f 933 903 904
f 933 904 932
f 932 904 905
f 932 905 931
f 931 905 906
f 931 906 930
f 930 906 907
f 930 907 929
f 929 907 908
f 929 908 928
f 928 908 927
f 927 908 909
f 927 909 926
f 926 909 910
f 926 910 925
f 925 910 911
f 925 911 924
f 924 911 912
f 924 912 923
f 923 912 913
f 923 913 922
f 922 913 914
f 922 914 915
f 922 915 921
f 921 915 916
f 921 916 920
f 920 916 917
f 920 917 919
f 919 917 918
f 947 987 946
f 946 987 983
f 946 983 984
f 987 947 986
f 986 947 948
f 986 948 949
f 986 949 996
f 996 949 950
f 996 950 951
f 951 952 996
f 996 952 995
f 995 952 953
f 995 953 956
f 956 953 954
f 956 954 955
f 956 957 995
f 995 957 994
f 994 957 958
f 994 958 959
f 959 960 994
f 994 960 993
f 993 960 961
f 993 961 962
f 962 963 993
f 993 963 966
f 993 966 992
f 992 966 967
f 992 967 968
f 963 964 966
f 966 964 965
f 992 968 991
f 991 968 998
f 997 969 970
f 970 971 997
f 997 971 990
f 990 971 972
f 990 972 973
f 990 973 976
f 976 973 974
f 976 974 975
f 990 976 989
f 989 976 977
f 989 977 978
f 978 979 989
f 989 979 988
f 988 979 980
f 988 980 981
f 988 981 987
f 987 981 982
f 987 982 983
f 984 985 946
f 1000 1057 999
f 999 1057 1058
f 999 1058 1059
f 1057 1000 1056
f 1056 1000 1001
f 1056 1001 1029
f 1029 1001 1028
f 1028 1001 1002
f 1028 1002 1050
f 1050 1002 1049
f 1049 1002 1003
f 1049 1003 1048
f 1048 1003 1004
f 1048 1004 1047
f 1047 1004 1005
f 1047 1005 1046
f 1046 1005 1026
f 1046 1026 1053
f 1053 1026 1052
f 1052 1026 1027
f 1052 1027 1051
f 1051 1027 1028
f 1051 1028 1050
f 1026 1005 1025
f 1025 1005 1006
f 1025 1006 1040
f 1040 1006 1007
f 1040 1007 1039
f 1039 1007 1008
f 1039 1008 1038
f 1038 1008 1045
f 1045 1008 1009
f 1045 1009 1044
f 1044 1009 1010
f 1044 1010 1022
f 1022 1010 1011
f 1022 1011 1021
f 1021 1011 1030
f 1021 1030 1031
f 1030 1011 1037
f 1037 1011 1012
f 1037 1012 1036
f 1036 1012 1013
f 1036 1013 1035
f 1035 1013 1014
f 1035 1014 1034
f 1034 1014 1019
f 1034 1019 1033
f 1033 1019 1020
f 1033 1020 1032
f 1032 1020 1021
f 1032 1021 1031
f 1014 1015 1019
f 1019 1015 1018
f 1018 1015 1060
f 1018 1060 1061
f 1015 1016 1060
f 1060 1016 1059
f 1059 1016 999
f 1018 1061 1017
f 1017 1061 1054
f 1017 1054 1055
f 1044 1022 1043
f 1043 1022 1023
f 1043 1023 1042
f 1042 1023 1024
f 1042 1024 1041
f 1041 1024 1025
f 1041 1025 1040
f 1056 1029 1055
f 1055 1029 1017
f 1063 1076 1062
f 1077 1072 1073
f 1077 1073 1068
f 1068 1073 1074
f 1068 1074 1067
f 1067 1074 1075
f 1067 1075 1066
f 1066 1075 1069
f 1066 1069 1065
f 1065 1069 1070
f 1065 1070 1064
f 1064 1070 1071
f 1064 1071 1063
f 1063 1071 1076
f 1079 1092 1078
f 1078 1092 1085
f 1078 1085 1086
f 1092 1079 1091
f 1091 1079 1080
f 1091 1080 1090
f 1090 1080 1093
f 1090 1093 1089
f 1094 1081 1082
f 1094 1082 1088
f 1088 1082 1083
f 1088 1083 1087
f 1087 1083 1084
f 1087 1084 1086
f 1086 1084 1078
f 1095 1096 1153
f 1153 1096 1152
f 1152 1096 1097
f 1152 1097 1151
f 1151 1097 1150
f 1150 1097 1098
f 1150 1098 1149
f 1149 1098 1099
f 1149 1099 1148
f 1148 1099 1155
f 1154 1100 1147
f 1147 1100 1101
f 1147 1101 1146
f 1146 1101 1102
f 1146 1102 1145
f 1145 1102 1103
f 1145 1103 1144
f 1144 1103 1104
f 1144 1104 1143
f 1143 1104 1105
f 1143 1105 1142
f 1142 1105 1106
f 1142 1106 1141
f 1141 1106 1107
f 1141 1107 1140
f 1140 1107 1108
f 1140 1108 1139
f 1139 1108 1109
f 1139 1109 1138
f 1138 1109 1110
f 1138 1110 1137
f 1137 1110 1111
f 1137 1111 1136
f 1136 1111 1112
f 1136 1112 1135
f 1135 1112 1113
f 1135 1113 1134
f 1134 1113 1157
f 1156 1114 1133
f 1133 1114 1115
f 1133 1115 1132
f 1132 1115 1116
f 1132 1116 1131
f 1131 1116 1117
f 1131 1117 1130
f 1130 1117 1118
f 1130 1118 1129
f 1129 1118 1119
f 1129 1119 1128
f 1128 1119 1120
f 1128 1120 1127
f 1127 1120 1121
f 1127 1121 1122
f 1122 1123 1127
f 1127 1123 1126
f 1126 1123 1124
f 1126 1124 1125
f 1159 1200 1158
f 1158 1200 1201
f 1158 1201 1202
f 1200 1159 1199
f 1199 1159 1160
f 1199 1160 1188
f 1188 1160 1187
f 1187 1160 1161
f 1187 1161 1209
f 1209 1161 1208
f 1208 1161 1162
f 1208 1162 1207
f 1207 1162 1163
f 1207 1163 1206
f 1206 1163 1164
f 1206 1164 1205
f 1205 1164 1185
f 1205 1185 1212
f 1212 1185 1211
f 1211 1185 1186
f 1211 1186 1210
f 1210 1186 1187
f 1210 1187 1209
f 1185 1164 1184
f 1184 1164 1165
f 1184 1165 1215
f 1215 1165 1166
f 1215 1166 1214
f 1214 1166 1167
f 1214 1167 1213
f 1213 1167 1220
f 1220 1167 1168
f 1220 1168 1219
f 1219 1168 1169
f 1219 1169 1181
f 1181 1169 1170
f 1181 1170 1180
f 1180 1170 1189
f 1180 1189 1190
f 1189 1170 1196
f 1196 1170 1171
f 1196 1171 1195
f 1195 1171 1172
f 1195 1172 1194
f 1194 1172 1173
f 1194 1173 1193
f 1193 1173 1178
f 1193 1178 1192
f 1192 1178 1179
f 1192 1179 1191
f 1191 1179 1180
f 1191 1180 1190
f 1173 1174 1178
f 1178 1174 1177
f 1177 1174 1203
f 1177 1203 1204
f 1174 1175 1203
f 1203 1175 1202
f 1202 1175 1158
f 1177 1204 1176
f 1176 1204 1197
f 1176 1197 1198
f 1219 1181 1218
f 1218 1181 1182
f 1218 1182 1217
f 1217 1182 1183
f 1217 1183 1216
f 1216 1183 1184
f 1216 1184 1215
f 1199 1188 1198
f 1198 1188 1176
f 1222 1235 1221
f 1236 1231 1232
f 1236 1232 1227
f 1227 1232 1233
f 1227 1233 1226
f 1226 1233 1234
f 1226 1234 1225
f 1225 1234 1228
f 1225 1228 1224
f 1224 1228 1229
f 1224 1229 1223
f 1223 1229 1230
f 1223 1230 1222
f 1222 1230 1235
f 1238 1251 1237
f 1237 1251 1244
f 1237 1244 1245
f 1251 1238 1250
f 1250 1238 1239
f 1250 1239 1249
f 1249 1239 1252
f 1249 1252 1248
f 1253 1240 1241
f 1253 1241 1247
f 1247 1241 1242
f 1247 1242 1246
f 1246 1242 1243
f 1246 1243 1245
f 1245 1243 1237
f 1307 1254 1298
f 1298 1254 1255
f 1298 1255 1297
f 1297 1255 1256
f 1297 1256 1296
f 1296 1256 1257
f 1296 1257 1295
f 1295 1257 1258
f 1295 1258 1294
f 1294 1258 1259
f 1294 1259 1293
f 1293 1259 1292
f 1292 1259 1260
f 1292 1260 1291
f 1291 1260 1261
f 1291 1261 1290
f 1290 1261 1262
f 1290 1262 1289
f 1289 1262 1263
f 1289 1263 1288
f 1288 1263 1264
f 1288 1264 1265
f 1288 1265 1287
f 1287 1265 1266
f 1287 1266 1286
f 1286 1266 1267
f 1286 1267 1285
f 1285 1267 1268
f 1285 1268 1284
f 1284 1268 1269
f 1284 1269 1283
f 1283 1269 1270
f 1283 1270 1282
f 1282 1270 1271
f 1282 1271 1281
f 1281 1271 1272
f 1281 1272 1280
f 1280 1272 1273
f 1280 1273 1279
f 1279 1273 1274
f 1279 1274 1278
f 1278 1274 1275
f 1278 1275 1277
f 1277 1275 1276
f 1298 1299 1307
f 1307 1299 1306
f 1306 1299 1300
f 1306 1300 1305
f 1305 1300 1301
f 1305 1301 1304
f 1304 1301 1302
f 1304 1302 1303
f 1309 1331 1308
f 1308 1331 1320
f 1308 1320 1319
f 1319 1320 1321
f 1319 1321 1318
f 1318 1321 1322
f 1318 1322 1317
f 1317 1322 1323
f 1317 1323 1316
f 1316 1323 1324
f 1316 1324 1315
f 1315 1324 1325
f 1315 1325 1314
f 1314 1325 1333
f 1332 1326 1313
f 1313 1326 1327
f 1313 1327 1312
f 1312 1327 1328
f 1312 1328 1311
f 1311 1328 1329
f 1311 1329 1310
f 1310 1329 1330
f 1310 1330 1309
f 1309 1330 1331
f 1335 1348 1334
f 1349 1344 1345
f 1349 1345 1340
f 1340 1345 1346
f 1340 1346 1339
f 1339 1346 1347
f 1339 1347 1338
f 1338 1347 1341
f 1338 1341 1337
f 1337 1341 1342
f 1337 1342 1336
f 1336 1342 1343
f 1336 1343 1335
f 1335 1343 1348
f 1351 1385 1350
f 1350 1385 1368
f 1350 1368 1367
f 1367 1368 1369
f 1367 1369 1366
f 1366 1369 1370
f 1366 1370 1365
f 1365 1370 1371
f 1365 1371 1364
f 1364 1371 1372
f 1364 1372 1363
f 1363 1372 1373
f 1363 1373 1362
f 1362 1373 1374
f 1362 1374 1361
f 1361 1374 1375
f 1361 1375 1360
f 1360 1375 1376
f 1360 1376 1359
f 1359 1376 1387
f 1386 1377 1358
f 1358 1377 1378
f 1358 1378 1357
f 1357 1378 1379
f 1357 1379 1356
f 1356 1379 1380
f 1356 1380 1355
f 1355 1380 1381
f 1355 1381 1354
f 1354 1381 1382
f 1354 1382 1353
f 1353 1382 1383
f 1353 1383 1352
f 1352 1383 1384
f 1352 1384 1351
f 1351 1384 1385
f 1388 1389 1441
f 1441 1389 1440
f 1440 1389 1390
f 1440 1390 1439
f 1439 1390 1438
f 1438 1390 1437
f 1437 1390 1391
f 1437 1391 1436
f 1436 1391 1392
f 1436 1392 1435
f 1435 1392 1393
f 1435 1393 1434
f 1434 1393 1394
f 1434 1394 1395
f 1434 1395 1433
f 1433 1395 1396
f 1433 1396 1432
f 1432 1396 1397
f 1432 1397 1431
f 1431 1397 1398
f 1431 1398 1430
f 1430 1398 1399
f 1430 1399 1429
f 1429 1399 1400
f 1429 1400 1428
f 1428 1400 1401
f 1428 1401 1427
f 1427 1401 1402
f 1427 1402 1426
f 1426 1402 1403
f 1426 1403 1425
f 1425 1403 1404
f 1425 1404 1424
f 1424 1404 1423
f 1423 1404 1405
f 1423 1405 1422
f 1422 1405 1406
f 1422 1406 1421
f 1421 1406 1407
f 1421 1407 1420
f 1420 1407 1408
f 1420 1408 1419
f 1419 1408 1409
f 1419 1409 1418
f 1418 1409 1410
f 1418 1410 1411
f 1418 1411 1417
f 1417 1411 1412
f 1417 1412 1416
f 1416 1412 1413
f 1416 1413 1415
f 1415 1413 1414
f 1443 1465 1442
f 1442 1465 1467
f 1466 1454 1453
f 1453 1454 1455
f 1453 1455 1452
f 1452 1455 1456
f 1452 1456 1451
f 1451 1456 1457
f 1451 1457 1450
f 1450 1457 1458
f 1450 1458 1449
f 1449 1458 1459
f 1449 1459 1448
f 1448 1459 1460
f 1448 1460 1447
f 1447 1460 1461
f 1447 1461 1446
f 1446 1461 1462
f 1446 1462 1445
f 1445 1462 1463
f 1445 1463 1444
f 1444 1463 1464
f 1444 1464 1443
f 1443 1464 1465
f 1469 1485 1468
f 1468 1485 1486
f 1468 1486 1479
f 1479 1486 1487
f 1479 1487 1478
f 1478 1487 1488
f 1478 1488 1477
f 1477 1488 1489
f 1477 1489 1476
f 1476 1489 1490
f 1476 1490 1475
f 1475 1490 1480
f 1475 1480 1474
f 1474 1480 1473
f 1473 1480 1481
f 1473 1481 1472
f 1472 1481 1482
f 1472 1482 1471
f 1471 1482 1483
f 1471 1483 1470
f 1470 1483 1484
f 1470 1484 1469
f 1469 1484 1485
f 1492 1515 1491
f 1491 1515 1503
f 1491 1503 1504
f 1515 1492 1514
f 1514 1492 1493
f 1514 1493 1513
f 1513 1493 1494
f 1513 1494 1512
f 1512 1494 1495
f 1512 1495 1511
f 1511 1495 1496
f 1511 1496 1510
f 1510 1496 1516
f 1510 1516 1509
f 1517 1497 1498
f 1517 1498 1508
f 1508 1498 1499
f 1508 1499 1507
f 1507 1499 1500
f 1507 1500 1506
f 1506 1500 1501
f 1506 1501 1505
f 1505 1501 1502
f 1505 1502 1504
f 1504 1502 1491
f 1519 1535 1518
f 1518 1535 1536
f 1518 1536 1529
f 1529 1536 1537
f 1529 1537 1528
f 1528 1537 1538
f 1528 1538 1527
f 1527 1538 1539
f 1527 1539 1526
f 1526 1539 1540
f 1526 1540 1525
f 1525 1540 1530
f 1525 1530 1524
f 1524 1530 1523
f 1523 1530 1531
f 1523 1531 1522
f 1522 1531 1532
f 1522 1532 1521
f 1521 1532 1533
f 1521 1533 1520
f 1520 1533 1534
f 1520 1534 1519
f 1519 1534 1535
f 1542 1555 1541
f 1541 1555 1548
f 1541 1548 1549
f 1555 1542 1554
f 1554 1542 1543
f 1554 1543 1553
f 1553 1543 1556
f 1553 1556 1552
f 1557 1544 1545
f 1557 1545 1551
f 1551 1545 1546
f 1551 1546 1550
f 1550 1546 1547
f 1550 1547 1549
f 1549 1547 1541
f 1559 1572 1558
f 1558 1572 1565
f 1558 1565 1566
f 1572 1559 1571
f 1571 1559 1560
f 1571 1560 1570
f 1570 1560 1573
f 1570 1573 1569
f 1574 1561 1562
f 1574 1562 1568
f 1568 1562 1563
f 1568 1563 1567
f 1567 1563 1564
f 1567 1564 1566
f 1566 1564 1558
f 1576 1589 1575
f 1575 1589 1582
f 1575 1582 1583
f 1589 1576 1588
f 1588 1576 1577
f 1588 1577 1587
f 1587 1577 1590
f 1587 1590 1586
f 1591 1578 1579
f 1591 1579 1585
f 1585 1579 1580
f 1585 1580 1584
f 1584 1580 1581
f 1584 1581 1583
f 1583 1581 1575
f 1593 1606 1592
f 1592 1606 1599
f 1592 1599 1600
f 1606 1593 1605
f 1605 1593 1594
f 1605 1594 1604
f 1604 1594 1607
f 1604 1607 1603
f 1608 1595 1596
f 1608 1596 1602
f 1602 1596 1597
f 1602 1597 1601
f 1601 1597 1598
f 1601 1598 1600
f 1600 1598 1592
f 1610 1632 1609
f 1609 1632 1621
f 1609 1621 1620
f 1620 1621 1622
f 1620 1622 1619
f 1619 1622 1623
f 1619 1623 1618
f 1618 1623 1624
f 1618 1624 1617
f 1617 1624 1625
f 1617 1625 1616
f 1616 1625 1626
f 1616 1626 1615
f 1615 1626 1634
f 1633 1627 1614
f 1614 1627 1628
f 1614 1628 1613
f 1613 1628 1629
f 1613 1629 1612
f 1612 1629 1630
f 1612 1630 1611
f 1611 1630 1631
f 1611 1631 1610
f 1610 1631 1632
f 1636 1658 1635
f 1635 1658 1647
f 1635 1647 1646
f 1646 1647 1648
f 1646 1648 1645
f 1645 1648 1649
f 1645 1649 1644
f 1644 1649 1650
f 1644 1650 1643
f 1643 1650 1651
f 1643 1651 1642
f 1642 1651 1652
f 1642 1652 1641
f 1641 1652 1660
f 1659 1653 1640
f 1640 1653 1654
f 1640 1654 1639
f 1639 1654 1655
f 1639 1655 1638
f 1638 1655 1656
f 1638 1656 1637
f 1637 1656 1657
f 1637 1657 1636
f 1636 1657 1658
