v 0.0090000038 0.009000001 -0.0090000076
v 0.0090000038 -0.0010000038 -0.0090000076
v 0.0090000038 -0.0010000038 0.0050000076
v 0.0090000038 0.009000001 0.0050000076
v 0.0090000038 -0.0080000019 0.010999992
v 0.0090000038 -0.0080000019 -0.011000015
v 0.0090000038 0.015999999 -0.011000015
v 0.0090000038 0.015999999 0.010999992
v 0.0090000038 0.015999999 0.010999992
v 0.0090000038 0.015999999 -0.011000015
v -0.047 0.015999999 -0.011000015
v -0.047 0.015999999 0.010999992
v -0.047 -0.0080000019 0.010999992
v -0.047 -0.0080000019 -0.011000015
v 0.0090000038 -0.0080000019 -0.011000015
v 0.0090000038 -0.0080000019 0.010999992
v -0.047 -0.0010000038 -0.0090000076
v -0.047 0.009000001 -0.0090000076
v -0.047 0.009000001 0.0050000076
v -0.047 -0.0010000038 0.0050000076
v -0.047 0.015999999 0.010999992
v -0.047 0.015999999 -0.011000015
v -0.047 -0.0080000019 -0.011000015
v -0.047 -0.0080000019 0.010999992
v 0.0090000038 0.015999999 -0.011000015
v 0.0090000038 -0.0080000019 -0.011000015
v -0.047 -0.0080000019 -0.011000015
v -0.047 0.015999999 -0.011000015
v 0.0090000038 -0.0080000019 0.010999992
v 0.0090000038 0.015999999 0.010999992
v -0.047 0.015999999 0.010999992
v -0.047 -0.0080000019 0.010999992
v -0.047 0.009000001 0.0050000076
v -0.047 0.009000001 -0.0090000076
v 0.0090000038 0.009000001 -0.0090000076
v 0.0090000038 0.009000001 0.0050000076
v -0.047 0.009000001 -0.0090000076
v -0.047 -0.0010000038 -0.0090000076
v 0.0090000038 -0.0010000038 -0.0090000076
v 0.0090000038 0.009000001 -0.0090000076
v -0.047 -0.0010000038 -0.0090000076
v -0.047 -0.0010000038 0.0050000076
v 0.0090000038 -0.0010000038 0.0050000076
v 0.0090000038 -0.0010000038 -0.0090000076
v -0.047 -0.0010000038 0.0050000076
v -0.047 0.009000001 0.0050000076
v 0.0090000038 0.009000001 0.0050000076
v 0.0090000038 -0.0010000038 0.0050000076
f 2 6 1
f 1 6 7
f 1 7 4
f 4 7 8
f 4 8 5
f 2 3 6
f 6 3 5
f 5 3 4
f 9 10 12
f 12 10 11
f 13 14 16
f 16 14 15
f 20 17 23
f 23 17 18
f 23 18 22
f 22 18 19
f 22 19 21
f 21 19 24
f 24 19 20
f 24 20 23
f 26 27 25
f 25 27 28
f 30 31 29
f 29 31 32
f 33 34 36
f 36 34 35
f 38 39 37
f 37 39 40
f 41 42 44
f 44 42 43
f 46 47 45
f 45 47 48
