v 0.062739144 -0.21222582 0.0040000153
v 0.023617484 0.0042678167 0.0040000153
v 0.023617484 0.0042678167 0.01
v 0.062739144 -0.21222582 0.01
v 0.015504175 -0.22076146 0.0040000153
v 0.062739144 -0.21222582 0.0040000153
v 0.062739144 -0.21222582 0.01
v 0.015504175 -0.22076146 0.01
v -0.023617484 -0.0042678167 0.0040000153
v 0.023617484 0.0042678167 0.0040000153
v 0.062739144 -0.21222582 0.0040000153
v 0.015504175 -0.22076146 0.0040000153
v 0.023617484 0.0042678167 0.01
v -0.023617484 -0.0042678167 0.01
v 0.015504175 -0.22076146 0.01
v 0.062739144 -0.21222582 0.01
v 0.023617484 0.0042678167 0.0040000153
v -0.023617484 -0.0042678167 0.0040000153
v -0.023617484 -0.0042678167 0.01
v 0.023617484 0.0042678167 0.01
v -0.023617484 -0.0042678167 0.0040000153
v 0.015504175 -0.22076146 0.0040000153
v 0.015504175 -0.22076146 0.01
v -0.023617484 -0.0042678167 0.01
f 2 3 1
f 1 3 4
f 6 7 5
f 5 7 8
f 10 11 9
f 9 11 12
f 14 15 13
f 13 15 16
f 18 19 17
f 17 19 20
f 22 23 21
f 21 23 24
v -0.0042678201 0.023617503 0.01
v 0.0032392629 0.023780392 0.01
v 0.010429277 0.021615491 0.01
v 0.016598386 0.017334767 0.01
v 0.021142735 0.011357152 0.01
v 0.023617484 0.0042678167 0.01
v 0.023780395 -0.0032392816 0.01
v 0.021615513 -0.010429293 0.01
v 0.017334744 -0.016598371 0.01
v 0.011357134 -0.021142738 0.01
v 0.0042678201 -0.023617503 0.01
v -0.0032392629 -0.023780392 0.01
v -0.010429277 -0.021615491 0.01
v -0.016598386 -0.017334767 0.01
v -0.021142735 -0.011357152 0.01
v -0.023617484 -0.0042678167 0.01
v -0.023780395 0.0032392816 0.01
v -0.021615513 0.010429293 0.01
v -0.017334744 0.016598371 0.01
v -0.011357134 0.021142738 0.01
v -0.0042678201 0.023617503 0.0040000153
v -0.011357134 0.021142738 0.0040000153
v -0.017334744 0.016598371 0.0040000153
v -0.021615513 0.010429293 0.0040000153
v -0.023780395 0.0032392816 0.0040000153
v -0.023617484 -0.0042678167 0.0040000153
v -0.021142735 -0.011357152 0.0040000153
v -0.016598386 -0.017334767 0.0040000153
v -0.010429277 -0.021615491 0.0040000153
v -0.0032392629 -0.023780392 0.0040000153
v 0.0042678201 -0.023617503 0.0040000153
v 0.011357134 -0.021142738 0.0040000153
v 0.017334744 -0.016598371 0.0040000153
v 0.021615513 -0.010429293 0.0040000153
v 0.023780395 -0.0032392816 0.0040000153
v 0.023617484 0.0042678167 0.0040000153
v 0.021142735 0.011357152 0.0040000153
v 0.016598386 0.017334767 0.0040000153
v 0.010429277 0.021615491 0.0040000153
v 0.0032392629 0.023780392 0.0040000153
v -0.0042678201 0.023617503 0.0040000153
v -0.0042678201 0.023617503 0.01
v -0.0042678201 0.023617503 0.01
v -0.011357134 0.021142738 0.01
v -0.017334744 0.016598371 0.01
v -0.021615513 0.010429293 0.01
v -0.023780395 0.0032392816 0.01
v -0.023617484 -0.0042678167 0.01
v -0.021142735 -0.011357152 0.01
v -0.016598386 -0.017334767 0.01
v -0.010429277 -0.021615491 0.01
v -0.0032392629 -0.023780392 0.01
v 0.0042678201 -0.023617503 0.01
v 0.011357134 -0.021142738 0.01
v 0.017334744 -0.016598371 0.01
v 0.021615513 -0.010429293 0.01
v 0.023780395 -0.0032392816 0.01
v 0.023617484 0.0042678167 0.01
v 0.021142735 0.011357152 0.01
v 0.016598386 0.017334767 0.01
v 0.010429277 0.021615491 0.01
v 0.0032392629 0.023780392 0.01
v -0.0042678201 0.023617503 0.0040000153
v 0.0032392629 0.023780392 0.0040000153
v 0.010429277 0.021615491 0.0040000153
v 0.016598386 0.017334767 0.0040000153
v 0.021142735 0.011357152 0.0040000153
v 0.023617484 0.0042678167 0.0040000153
v 0.023780395 -0.0032392816 0.0040000153
v 0.021615513 -0.010429293 0.0040000153
v 0.017334744 -0.016598371 0.0040000153
v 0.011357134 -0.021142738 0.0040000153
v 0.0042678201 -0.023617503 0.0040000153
v -0.0032392629 -0.023780392 0.0040000153
v -0.010429277 -0.021615491 0.0040000153
v -0.016598386 -0.017334767 0.0040000153
v -0.021142735 -0.011357152 0.0040000153
v -0.023617484 -0.0042678167 0.0040000153
v -0.023780395 0.0032392816 0.0040000153
v -0.021615513 0.010429293 0.0040000153
v -0.017334744 0.016598371 0.0040000153
v -0.011357134 0.021142738 0.0040000153
f 26 64 25
f 25 64 65
f 66 45 44
f 44 45 46
f 44 46 43
f 43 46 47
f 43 47 42
f 42 47 48
f 42 48 41
f 41 48 49
f 41 49 40
f 40 49 50
f 40 50 39
f 39 50 51
f 39 51 38
f 38 51 52
f 38 52 37
f 37 52 53
f 37 53 36
f 36 53 54
f 36 54 35
f 35 54 55
f 35 55 34
f 34 55 56
f 34 56 33
f 33 56 57
f 33 57 32
f 32 57 58
f 32 58 31
f 31 58 59
f 31 59 30
f 30 59 60
f 30 60 29
f 29 60 61
f 29 61 28
f 28 61 62
f 28 62 27
f 27 62 63
f 27 63 26
f 26 63 64
f 68 76 67
f 67 76 77
f 67 77 86
f 86 77 78
f 86 78 85
f 85 78 79
f 85 79 84
f 84 79 80
f 84 80 83
f 83 80 81
f 83 81 82
f 76 68 75
f 75 68 69
f 75 69 74
f 74 69 70
f 74 70 73
f 73 70 71
f 73 71 72
f 88 96 87
f 87 96 97
f 87 97 106
f 106 97 98
f 106 98 105
f 105 98 99
f 105 99 104
f 104 99 100
f 104 100 103
f 103 100 101
f 103 101 102
f 96 88 95
f 95 88 89
f 95 89 94
f 94 89 90
f 94 90 93
f 93 90 91
f 93 91 92
v 0.034853839 -0.19287614 0.01
v 0.042360916 -0.19271321 0.01
v 0.04955093 -0.19487811 0.01
v 0.055720053 -0.19915891 0.01
v 0.060264401 -0.20513652 0.01
v 0.062739144 -0.21222582 0.01
v 0.062902048 -0.21973288 0.01
v 0.060737166 -0.22692289 0.01
v 0.056456411 -0.23309205 0.01
v 0.0504788 -0.23763641 0.01
v 0.04338948 -0.24011114 0.01
v 0.035882403 -0.24027407 0.01
v 0.028692389 -0.23810917 0.01
v 0.022523267 -0.23382837 0.01
v 0.017978918 -0.22785075 0.01
v 0.015504175 -0.22076146 0.01
v 0.015341271 -0.21325439 0.01
v 0.017506153 -0.20606438 0.01
v 0.021786908 -0.19989523 0.01
v 0.027764519 -0.19535086 0.01
v 0.034853839 -0.19287614 0.0040000153
v 0.027764519 -0.19535086 0.0040000153
v 0.021786908 -0.19989523 0.0040000153
v 0.017506153 -0.20606438 0.0040000153
v 0.015341271 -0.21325439 0.0040000153
v 0.015504175 -0.22076146 0.0040000153
v 0.017978918 -0.22785075 0.0040000153
v 0.022523267 -0.23382837 0.0040000153
v 0.028692389 -0.23810917 0.0040000153
v 0.035882403 -0.24027407 0.0040000153
v 0.04338948 -0.24011114 0.0040000153
v 0.0504788 -0.23763641 0.0040000153
v 0.056456411 -0.23309205 0.0040000153
v 0.060737166 -0.22692289 0.0040000153
v 0.062902048 -0.21973288 0.0040000153
v 0.062739144 -0.21222582 0.0040000153
v 0.060264401 -0.20513652 0.0040000153
v 0.055720053 -0.19915891 0.0040000153
v 0.04955093 -0.19487811 0.0040000153
v 0.042360916 -0.19271321 0.0040000153
v 0.034853839 -0.19287614 0.0040000153
v 0.034853839 -0.19287614 0.01
v 0.034853839 -0.19287614 0.0040000153
v 0.042360916 -0.19271321 0.0040000153
v 0.04955093 -0.19487811 0.0040000153
v 0.055720053 -0.19915891 0.0040000153
v 0.060264401 -0.20513652 0.0040000153
v 0.062739144 -0.21222582 0.0040000153
v 0.062902048 -0.21973288 0.0040000153
v 0.060737166 -0.22692289 0.0040000153
v 0.056456411 -0.23309205 0.0040000153
v 0.0504788 -0.23763641 0.0040000153
v 0.04338948 -0.24011114 0.0040000153
v 0.035882403 -0.24027407 0.0040000153
v 0.028692389 -0.23810917 0.0040000153
v 0.022523267 -0.23382837 0.0040000153
v 0.017978918 -0.22785075 0.0040000153
v 0.015504175 -0.22076146 0.0040000153
v 0.015341271 -0.21325439 0.0040000153
v 0.017506153 -0.20606438 0.0040000153
v 0.021786908 -0.19989523 0.0040000153
v 0.027764519 -0.19535086 0.0040000153
v 0.034853839 -0.19287614 0.01
v 0.027764519 -0.19535086 0.01
v 0.021786908 -0.19989523 0.01
v 0.017506153 -0.20606438 0.01
v 0.015341271 -0.21325439 0.01
v 0.015504175 -0.22076146 0.01
v 0.017978918 -0.22785075 0.01
v 0.022523267 -0.23382837 0.01
v 0.028692389 -0.23810917 0.01
v 0.035882403 -0.24027407 0.01
v 0.04338948 -0.24011114 0.01
v 0.0504788 -0.23763641 0.01
v 0.056456411 -0.23309205 0.01
v 0.060737166 -0.22692289 0.01
v 0.062902048 -0.21973288 0.01
v 0.062739144 -0.21222582 0.01
v 0.060264401 -0.20513652 0.01
v 0.055720053 -0.19915891 0.01
v 0.04955093 -0.19487811 0.01
v 0.042360916 -0.19271321 0.01
f 108 146 107
f 107 146 147
f 148 127 126
f 126 127 128
f 126 128 125
f 125 128 129
f 125 129 124
f 124 129 130
f 124 130 123
f 123 130 131
f 123 131 122
f 122 131 132
f 122 132 121
f 121 132 133
f 121 133 120
f 120 133 134
f 120 134 119
f 119 134 135
f 119 135 118
f 118 135 136
f 118 136 117
f 117 136 137
f 117 137 116
f 116 137 138
f 116 138 115
f 115 138 139
f 115 139 114
f 114 139 140
f 114 140 113
f 113 140 141
f 113 141 112
f 112 141 142
f 112 142 111
f 111 142 143
f 111 143 110
f 110 143 144
f 110 144 109
f 109 144 145
f 109 145 108
f 108 145 146
f 150 158 149
f 149 158 159
f 149 159 168
f 168 159 160
f 168 160 167
f 167 160 161
f 167 161 166
f 166 161 162
f 166 162 165
f 165 162 163
f 165 163 164
f 158 150 157
f 157 150 151
f 157 151 156
f 156 151 152
f 156 152 155
f 155 152 153
f 155 153 154
f 170 178 169
f 169 178 179
f 169 179 188
f 188 179 180
f 188 180 187
f 187 180 181
f 187 181 186
f 186 181 182
f 186 182 185
f 185 182 183
f 185 183 184
f 178 170 177
f 177 170 171
f 177 171 176
f 176 171 172
f 176 172 175
f 175 172 173
f 175 173 174
