v -0.00079480875 -0.011973657 0
v 0.0031361096 -0.011582944 0
v 0.0067271293 -0.0099370662 0
v 0.0095892265 -0.0072143523 0
v 0.011412109 -0.0037098399 0
v 0.011998373 0.00019667529 0
v 0.011284442 0.0040818771 0
v 0.0093475804 0.0075247608 0
v 0.0063978375 0.010152242 0
v 0.0027547276 0.011679509 0
v -0.0011867936 0.011941146 0
v -0.0049998091 0.010908815 0
v -0.0082709643 0.0086942759 0
v -0.010645903 0.0055376086 0
v -0.011867105 0.0017808605 0
v -0.011802336 -0.0021688701 0
v -0.010458664 -0.0058835777 0
v -0.0079815594 -0.0089607067 0
v -0.0046395944 -0.011066795 0
v -0.00079480875 -0.011973657 -0.025
v -0.0046395944 -0.011066795 -0.025
v -0.0079815594 -0.0089607067 -0.025
v -0.010458664 -0.0058835777 -0.025
v -0.011802336 -0.0021688701 -0.025
v -0.011867105 0.0017808605 -0.025
v -0.010645903 0.0055376086 -0.025
v -0.0082709643 0.0086942759 -0.025
v -0.0049998091 0.010908815 -0.025
v -0.0011867936 0.011941146 -0.025
v 0.0027547276 0.011679509 -0.025
v 0.0063978375 0.010152242 -0.025
v 0.0093475804 0.0075247608 -0.025
v 0.011284442 0.0040818771 -0.025
v 0.011998373 0.00019667529 -0.025
v 0.011412109 -0.0037098399 -0.025
v 0.0095892265 -0.0072143523 -0.025
v 0.0067271293 -0.0099370662 -0.025
v 0.0031361096 -0.011582944 -0.025
v -0.00079480875 -0.011973657 -0.025
v 0.0031361096 -0.011582944 -0.025
v 0.0067271293 -0.0099370662 -0.025
v 0.0095892265 -0.0072143523 -0.025
v 0.011412109 -0.0037098399 -0.025
v 0.011998373 0.00019667529 -0.025
v 0.011284442 0.0040818771 -0.025
v 0.0093475804 0.0075247608 -0.025
v 0.0063978375 0.010152242 -0.025
v 0.0027547276 0.011679509 -0.025
v -0.0011867936 0.011941146 -0.025
v -0.0049998091 0.010908815 -0.025
v -0.0082709643 0.0086942759 -0.025
v -0.010645903 0.0055376086 -0.025
v -0.011867105 0.0017808605 -0.025
v -0.011802336 -0.0021688701 -0.025
v -0.010458664 -0.0058835777 -0.025
v -0.0079815594 -0.0089607067 -0.025
v -0.0046395944 -0.011066795 -0.025
v -0.00079480875 -0.011973657 0
v -0.0046395944 -0.011066795 0
v -0.0079815594 -0.0089607067 0
v -0.010458664 -0.0058835777 0
v -0.011802336 -0.0021688701 0
v -0.011867105 0.0017808605 0
v -0.010645903 0.0055376086 0
v -0.0082709643 0.0086942759 0
v -0.0049998091 0.010908815 0
v -0.0011867936 0.011941146 0
v 0.0027547276 0.011679509 0
v 0.0063978375 0.010152242 0
v 0.0093475804 0.0075247608 0
v 0.011284442 0.0040818771 0
v 0.011998373 0.00019667529 0
v 0.011412109 -0.0037098399 0
v 0.0095892265 -0.0072143523 0
v 0.0067271293 -0.0099370662 0
v 0.0031361096 -0.011582944 0
v -0.0011867936 0.011941146 -0.025
v -0.0011867936 0.011941146 0
f 1 2 19
f 19 2 3
f 19 3 18
f 18 3 4
f 18 4 17
f 17 4 5
f 17 5 16
f 16 5 6
f 16 6 15
f 15 6 7
f 15 7 8
f 8 9 15
f 15 9 10
f 15 10 11
f 11 12 15
f 15 12 13
f 15 13 14
f 20 21 38
f 38 21 37
f 37 21 22
f 37 22 36
f 36 22 23
f 36 23 35
f 35 23 24
f 35 24 34
f 34 24 25
f 34 25 33
f 33 25 32
f 32 25 31
f 31 25 30
f 30 25 29
f 29 25 28
f 28 25 27
f 27 25 26
f 40 58 39
f 39 58 59
f 39 59 57
f 57 59 60
f 57 60 56
f 56 60 61
f 56 61 55
f 55 61 62
f 55 62 54
f 54 62 63
f 54 63 53
f 53 63 64
f 53 64 52
f 52 64 65
f 52 65 51
f 51 65 66
f 51 66 50
f 50 66 78
f 50 78 49
f 77 67 68
f 77 68 48
f 48 68 69
f 48 69 47
f 47 69 70
f 47 70 46
f 46 70 71
f 46 71 45
f 45 71 72
f 45 72 44
f 44 72 73
f 44 73 43
f 43 73 74
f 43 74 42
f 42 74 75
f 42 75 41
f 41 75 76
f 41 76 40
f 40 76 58
