v 0.063940153 0.0086670358 0.093287148
v 0.075140153 0.0086670358 0.093287148
v 0.075140153 0.0085444046 0.093468148
v 0.063940153 0.0085444046 0.093468148
v 0.063940153 0.009245089 0.093176201
v 0.063940153 0.0090407206 0.093127534
v 0.063940153 0.0088363522 0.093176201
v 0.063940153 0.0086670358 0.093287148
v 0.063940153 0.0085444046 0.093468148
v 0.063940153 0.0084938078 0.093691973
v 0.063940153 0.0085444046 0.093915798
v 0.063940153 0.008659238 0.094079298
v 0.063940153 0.0088130096 0.094184403
v 0.063940153 0.0090465626 0.094235
v 0.063940153 0.0092703874 0.094184403
v 0.063940153 0.0094377734 0.094075411
v 0.063940153 0.0095467902 0.093908
v 0.063940153 0.0095993174 0.093690017
v 0.063940153 0.0095467902 0.093466218
v 0.063940153 0.0095370366 0.093456464
v 0.063940153 0.0094261148 0.093283236
v 0.063940153 0.0094261148 0.093283236
v 0.075140153 0.0094261148 0.093283236
v 0.075140153 0.009245089 0.093176201
v 0.063940153 0.009245089 0.093176201
v 0.063940153 0.0088363522 0.093176201
v 0.075140153 0.0088363522 0.093176201
v 0.075140153 0.0086670358 0.093287148
v 0.063940153 0.0086670358 0.093287148
v 0.063940153 0.0085444046 0.093468148
v 0.075140153 0.0085444046 0.093468148
v 0.075140153 0.0084938078 0.093691973
v 0.063940153 0.0084938078 0.093691973
v 0.063940153 0.0090407206 0.093127534
v 0.075140153 0.0090407206 0.093127534
v 0.075140153 0.0088363522 0.093176201
v 0.063940153 0.0088363522 0.093176201
v 0.063940153 0.0094377734 0.094075411
v 0.075140153 0.0094377734 0.094075411
v 0.075140153 0.0095467902 0.093908
v 0.063940153 0.0095467902 0.093908
v 0.063940153 0.0090465626 0.094235
v 0.075140153 0.0090465626 0.094235
v 0.075140153 0.0092703874 0.094184403
v 0.063940153 0.0092703874 0.094184403
v 0.063940153 0.0095467902 0.093466218
v 0.075140153 0.0095467902 0.093466218
v 0.075140153 0.0095370366 0.093456464
v 0.063940153 0.0095370366 0.093456464
v 0.063940153 0.0095370366 0.093456464
v 0.075140153 0.0095370366 0.093456464
v 0.075140153 0.0094261148 0.093283236
v 0.063940153 0.0094261148 0.093283236
v 0.063940153 0.0095467902 0.093908
v 0.075140153 0.0095467902 0.093908
v 0.075140153 0.0095993174 0.093690017
v 0.063940153 0.0095993174 0.093690017
v 0.063940153 0.008659238 0.094079298
v 0.075140153 0.008659238 0.094079298
v 0.075140153 0.0088130096 0.094184403
v 0.063940153 0.0088130096 0.094184403
v 0.063940153 0.0088130096 0.094184403
v 0.075140153 0.0088130096 0.094184403
v 0.075140153 0.0090465626 0.094235
v 0.063940153 0.0090465626 0.094235
v 0.063940153 0.0095993174 0.093690017
v 0.075140153 0.0095993174 0.093690017
v 0.075140153 0.0095467902 0.093466218
v 0.063940153 0.0095467902 0.093466218
v 0.063940153 0.0085444046 0.093915798
v 0.075140153 0.0085444046 0.093915798
v 0.075140153 0.008659238 0.094079298
v 0.063940153 0.008659238 0.094079298
v 0.075140153 0.0090407206 0.093127534
v 0.075140153 0.009245089 0.093176201
v 0.075140153 0.0094261148 0.093283236
v 0.075140153 0.0095370366 0.093456464
v 0.075140153 0.0095467902 0.093466218
v 0.075140153 0.0095993174 0.093690017
v 0.075140153 0.0095467902 0.093908
v 0.075140153 0.0094377734 0.094075411
v 0.075140153 0.0092703874 0.094184403
v 0.075140153 0.0090465626 0.094235
v 0.075140153 0.0088130096 0.094184403
v 0.075140153 0.008659238 0.094079298
v 0.075140153 0.0085444046 0.093915798
v 0.075140153 0.0084938078 0.093691973
v 0.075140153 0.0085444046 0.093468148
v 0.075140153 0.0086670358 0.093287148
v 0.075140153 0.0088363522 0.093176201
v 0.063940153 0.0084938078 0.093691973
v 0.075140153 0.0084938078 0.093691973
v 0.075140153 0.0085444046 0.093915798
v 0.063940153 0.0085444046 0.093915798
v 0.063940153 0.009245089 0.093176201
v 0.075140153 0.009245089 0.093176201
v 0.075140153 0.0090407206 0.093127534
v 0.063940153 0.0090407206 0.093127534
v 0.063940153 0.0092703874 0.094184403
v 0.075140153 0.0092703874 0.094184403
v 0.075140153 0.0094377734 0.094075411
v 0.063940153 0.0094377734 0.094075411
f 2 3 1
f 1 3 4
f 6 7 5
f 5 7 8
f 5 8 9
f 10 17 9
f 9 17 18
f 9 18 20
f 20 18 19
f 10 11 17
f 17 11 12
f 17 12 13
f 14 15 13
f 13 15 16
f 13 16 17
f 20 21 9
f 9 21 5
f 23 24 22
f 22 24 25
f 27 28 26
f 26 28 29
f 31 32 30
f 30 32 33
f 35 36 34
f 34 36 37
f 39 40 38
f 38 40 41
f 43 44 42
f 42 44 45
f 47 48 46
f 46 48 49
f 51 52 50
f 50 52 53
f 55 56 54
f 54 56 57
f 59 60 58
f 58 60 61
f 63 64 62
f 62 64 65
f 67 68 66
f 66 68 69
f 71 72 70
f 70 72 73
f 74 75 90
f 90 75 89
f 89 75 88
f 88 75 76
f 88 76 77
f 78 79 77
f 77 79 88
f 79 80 88
f 88 80 87
f 87 80 86
f 86 80 85
f 85 80 84
f 84 80 81
f 84 81 82
f 82 83 84
f 92 93 91
f 91 93 94
f 96 97 95
f 95 97 98
f 100 101 99
f 99 101 102
v 0.063940153 0.011207044 0.093287148
v 0.075140153 0.011207044 0.093287148
v 0.075140153 0.011084413 0.093468148
v 0.063940153 0.011084413 0.093468148
v 0.063940153 0.011785098 0.093176201
v 0.063940153 0.011580729 0.093127534
v 0.063940153 0.011376361 0.093176201
v 0.063940153 0.011207044 0.093287148
v 0.063940153 0.011084413 0.093468148
v 0.063940153 0.011033816 0.093691973
v 0.063940153 0.011084413 0.093915798
v 0.063940153 0.011199247 0.094079298
v 0.063940153 0.011353018 0.094184403
v 0.063940153 0.011586571 0.094235
v 0.063940153 0.011810396 0.094184403
v 0.063940153 0.011977782 0.094075411
v 0.063940153 0.012086799 0.093908
v 0.063940153 0.012139326 0.093690017
v 0.063940153 0.012086799 0.093466218
v 0.063940153 0.012077045 0.093456464
v 0.063940153 0.011966123 0.093283236
v 0.063940153 0.011966123 0.093283236
v 0.075140153 0.011966123 0.093283236
v 0.075140153 0.011785098 0.093176201
v 0.063940153 0.011785098 0.093176201
v 0.063940153 0.011376361 0.093176201
v 0.075140153 0.011376361 0.093176201
v 0.075140153 0.011207044 0.093287148
v 0.063940153 0.011207044 0.093287148
v 0.063940153 0.011084413 0.093468148
v 0.075140153 0.011084413 0.093468148
v 0.075140153 0.011033816 0.093691973
v 0.063940153 0.011033816 0.093691973
v 0.063940153 0.011580729 0.093127534
v 0.075140153 0.011580729 0.093127534
v 0.075140153 0.011376361 0.093176201
v 0.063940153 0.011376361 0.093176201
v 0.063940153 0.011977782 0.094075411
v 0.075140153 0.011977782 0.094075411
v 0.075140153 0.012086799 0.093908
v 0.063940153 0.012086799 0.093908
v 0.063940153 0.011586571 0.094235
v 0.075140153 0.011586571 0.094235
v 0.075140153 0.011810396 0.094184403
v 0.063940153 0.011810396 0.094184403
v 0.063940153 0.012086799 0.093466218
v 0.075140153 0.012086799 0.093466218
v 0.075140153 0.012077045 0.093456464
v 0.063940153 0.012077045 0.093456464
v 0.063940153 0.012077045 0.093456464
v 0.075140153 0.012077045 0.093456464
v 0.075140153 0.011966123 0.093283236
v 0.063940153 0.011966123 0.093283236
v 0.063940153 0.012086799 0.093908
v 0.075140153 0.012086799 0.093908
v 0.075140153 0.012139326 0.093690017
v 0.063940153 0.012139326 0.093690017
v 0.063940153 0.011199247 0.094079298
v 0.075140153 0.011199247 0.094079298
v 0.075140153 0.011353018 0.094184403
v 0.063940153 0.011353018 0.094184403
v 0.063940153 0.011353018 0.094184403
v 0.075140153 0.011353018 0.094184403
v 0.075140153 0.011586571 0.094235
v 0.063940153 0.011586571 0.094235
v 0.063940153 0.012139326 0.093690017
v 0.075140153 0.012139326 0.093690017
v 0.075140153 0.012086799 0.093466218
v 0.063940153 0.012086799 0.093466218
v 0.063940153 0.011084413 0.093915798
v 0.075140153 0.011084413 0.093915798
v 0.075140153 0.011199247 0.094079298
v 0.063940153 0.011199247 0.094079298
v 0.075140153 0.011580729 0.093127534
v 0.075140153 0.011785098 0.093176201
v 0.075140153 0.011966123 0.093283236
v 0.075140153 0.012077045 0.093456464
v 0.075140153 0.012086799 0.093466218
v 0.075140153 0.012139326 0.093690017
v 0.075140153 0.012086799 0.093908
v 0.075140153 0.011977782 0.094075411
v 0.075140153 0.011810396 0.094184403
v 0.075140153 0.011586571 0.094235
v 0.075140153 0.011353018 0.094184403
v 0.075140153 0.011199247 0.094079298
v 0.075140153 0.011084413 0.093915798
v 0.075140153 0.011033816 0.093691973
v 0.075140153 0.011084413 0.093468148
v 0.075140153 0.011207044 0.093287148
v 0.075140153 0.011376361 0.093176201
v 0.063940153 0.011033816 0.093691973
v 0.075140153 0.011033816 0.093691973
v 0.075140153 0.011084413 0.093915798
v 0.063940153 0.011084413 0.093915798
v 0.063940153 0.011785098 0.093176201
v 0.075140153 0.011785098 0.093176201
v 0.075140153 0.011580729 0.093127534
v 0.063940153 0.011580729 0.093127534
v 0.063940153 0.011810396 0.094184403
v 0.075140153 0.011810396 0.094184403
v 0.075140153 0.011977782 0.094075411
v 0.063940153 0.011977782 0.094075411
f 104 105 103
f 103 105 106
f 108 109 107
f 107 109 110
f 107 110 111
f 112 119 111
f 111 119 120
f 111 120 122
f 122 120 121
f 112 113 119
f 119 113 114
f 119 114 115
f 116 117 115
f 115 117 118
f 115 118 119
f 122 123 111
f 111 123 107
f 125 126 124
f 124 126 127
f 129 130 128
f 128 130 131
f 133 134 132
f 132 134 135
f 137 138 136
f 136 138 139
f 141 142 140
f 140 142 143
f 145 146 144
f 144 146 147
f 149 150 148
f 148 150 151
f 153 154 152
f 152 154 155
f 157 158 156
f 156 158 159
f 161 162 160
f 160 162 163
f 165 166 164
f 164 166 167
f 169 170 168
f 168 170 171
f 173 174 172
f 172 174 175
f 176 177 192
f 192 177 191
f 191 177 190
f 190 177 178
f 190 178 179
f 180 181 179
f 179 181 190
f 181 182 190
f 190 182 189
f 189 182 188
f 188 182 187
f 187 182 186
f 186 182 183
f 186 183 184
f 184 185 186
f 194 195 193
f 193 195 196
f 198 199 197
f 197 199 200
f 202 203 201
f 201 203 204
v 0.063940153 0.011207044 0.093287148
v 0.075140153 0.011207044 0.093287148
v 0.075140153 0.011084413 0.093468148
v 0.063940153 0.011084413 0.093468148
v 0.063940153 0.011785098 0.093176201
v 0.063940153 0.011580729 0.093127534
v 0.063940153 0.011376361 0.093176201
v 0.063940153 0.011207044 0.093287148
v 0.063940153 0.011084413 0.093468148
v 0.063940153 0.011033816 0.093691973
v 0.063940153 0.011084413 0.093915798
v 0.063940153 0.011199247 0.094079298
v 0.063940153 0.011353018 0.094184403
v 0.063940153 0.011586571 0.094235
v 0.063940153 0.011810396 0.094184403
v 0.063940153 0.011977782 0.094075411
v 0.063940153 0.012086799 0.093908
v 0.063940153 0.012139326 0.093690017
v 0.063940153 0.012086799 0.093466218
v 0.063940153 0.012077045 0.093456464
v 0.063940153 0.011966123 0.093283236
v 0.063940153 0.011966123 0.093283236
v 0.075140153 0.011966123 0.093283236
v 0.075140153 0.011785098 0.093176201
v 0.063940153 0.011785098 0.093176201
v 0.063940153 0.011376361 0.093176201
v 0.075140153 0.011376361 0.093176201
v 0.075140153 0.011207044 0.093287148
v 0.063940153 0.011207044 0.093287148
v 0.063940153 0.011084413 0.093468148
v 0.075140153 0.011084413 0.093468148
v 0.075140153 0.011033816 0.093691973
v 0.063940153 0.011033816 0.093691973
v 0.063940153 0.011580729 0.093127534
v 0.075140153 0.011580729 0.093127534
v 0.075140153 0.011376361 0.093176201
v 0.063940153 0.011376361 0.093176201
v 0.063940153 0.011977782 0.094075411
v 0.075140153 0.011977782 0.094075411
v 0.075140153 0.012086799 0.093908
v 0.063940153 0.012086799 0.093908
v 0.063940153 0.011586571 0.094235
v 0.075140153 0.011586571 0.094235
v 0.075140153 0.011810396 0.094184403
v 0.063940153 0.011810396 0.094184403
v 0.063940153 0.012086799 0.093466218
v 0.075140153 0.012086799 0.093466218
v 0.075140153 0.012077045 0.093456464
v 0.063940153 0.012077045 0.093456464
v 0.063940153 0.012077045 0.093456464
v 0.075140153 0.012077045 0.093456464
v 0.075140153 0.011966123 0.093283236
v 0.063940153 0.011966123 0.093283236
v 0.063940153 0.012086799 0.093908
v 0.075140153 0.012086799 0.093908
v 0.075140153 0.012139326 0.093690017
v 0.063940153 0.012139326 0.093690017
v 0.063940153 0.011199247 0.094079298
v 0.075140153 0.011199247 0.094079298
v 0.075140153 0.011353018 0.094184403
v 0.063940153 0.011353018 0.094184403
v 0.063940153 0.011353018 0.094184403
v 0.075140153 0.011353018 0.094184403
v 0.075140153 0.011586571 0.094235
v 0.063940153 0.011586571 0.094235
v 0.063940153 0.012139326 0.093690017
v 0.075140153 0.012139326 0.093690017
v 0.075140153 0.012086799 0.093466218
v 0.063940153 0.012086799 0.093466218
v 0.063940153 0.011084413 0.093915798
v 0.075140153 0.011084413 0.093915798
v 0.075140153 0.011199247 0.094079298
v 0.063940153 0.011199247 0.094079298
v 0.075140153 0.011580729 0.093127534
v 0.075140153 0.011785098 0.093176201
v 0.075140153 0.011966123 0.093283236
v 0.075140153 0.012077045 0.093456464
v 0.075140153 0.012086799 0.093466218
v 0.075140153 0.012139326 0.093690017
v 0.075140153 0.012086799 0.093908
v 0.075140153 0.011977782 0.094075411
v 0.075140153 0.011810396 0.094184403
v 0.075140153 0.011586571 0.094235
v 0.075140153 0.011353018 0.094184403
v 0.075140153 0.011199247 0.094079298
v 0.075140153 0.011084413 0.093915798
v 0.075140153 0.011033816 0.093691973
v 0.075140153 0.011084413 0.093468148
v 0.075140153 0.011207044 0.093287148
v 0.075140153 0.011376361 0.093176201
v 0.063940153 0.011033816 0.093691973
v 0.075140153 0.011033816 0.093691973
v 0.075140153 0.011084413 0.093915798
v 0.063940153 0.011084413 0.093915798
v 0.063940153 0.011785098 0.093176201
v 0.075140153 0.011785098 0.093176201
v 0.075140153 0.011580729 0.093127534
v 0.063940153 0.011580729 0.093127534
v 0.063940153 0.011810396 0.094184403
v 0.075140153 0.011810396 0.094184403
v 0.075140153 0.011977782 0.094075411
v 0.063940153 0.011977782 0.094075411
f 206 207 205
f 205 207 208
f 210 211 209
f 209 211 212
f 209 212 213
f 214 221 213
f 213 221 222
f 213 222 224
f 224 222 223
f 214 215 221
f 221 215 216
f 221 216 217
f 218 219 217
f 217 219 220
f 217 220 221
f 224 225 213
f 213 225 209
f 227 228 226
f 226 228 229
f 231 232 230
f 230 232 233
f 235 236 234
f 234 236 237
f 239 240 238
f 238 240 241
f 243 244 242
f 242 244 245
f 247 248 246
f 246 248 249
f 251 252 250
f 250 252 253
f 255 256 254
f 254 256 257
f 259 260 258
f 258 260 261
f 263 264 262
f 262 264 265
f 267 268 266
f 266 268 269
f 271 272 270
f 270 272 273
f 275 276 274
f 274 276 277
f 278 279 294
f 294 279 293
f 293 279 292
f 292 279 280
f 292 280 281
f 282 283 281
f 281 283 292
f 283 284 292
f 292 284 291
f 291 284 290
f 290 284 289
f 289 284 288
f 288 284 285
f 288 285 286
f 286 287 288
f 296 297 295
f 295 297 298
f 300 301 299
f 299 301 302
f 304 305 303
f 303 305 306
v 0.063940153 0.013747038 0.093287148
v 0.075140153 0.013747038 0.093287148
v 0.075140153 0.013624406 0.093468148
v 0.063940153 0.013624406 0.093468148
v 0.063940153 0.014325091 0.093176201
v 0.063940153 0.014120722 0.093127534
v 0.063940153 0.013916354 0.093176201
v 0.063940153 0.013747038 0.093287148
v 0.063940153 0.013624406 0.093468148
v 0.063940153 0.01357381 0.093691973
v 0.063940153 0.013624406 0.093915798
v 0.063940153 0.01373924 0.094079298
v 0.063940153 0.013893011 0.094184403
v 0.063940153 0.014126564 0.094235
v 0.063940153 0.014350389 0.094184403
v 0.063940153 0.014517775 0.094075411
v 0.063940153 0.014626792 0.093908
v 0.063940153 0.014679319 0.093690017
v 0.063940153 0.014626792 0.093466218
v 0.063940153 0.014617038 0.093456464
v 0.063940153 0.014506117 0.093283236
v 0.063940153 0.014506117 0.093283236
v 0.075140153 0.014506117 0.093283236
v 0.075140153 0.014325091 0.093176201
v 0.063940153 0.014325091 0.093176201
v 0.063940153 0.013916354 0.093176201
v 0.075140153 0.013916354 0.093176201
v 0.075140153 0.013747038 0.093287148
v 0.063940153 0.013747038 0.093287148
v 0.063940153 0.013624406 0.093468148
v 0.075140153 0.013624406 0.093468148
v 0.075140153 0.01357381 0.093691973
v 0.063940153 0.01357381 0.093691973
v 0.063940153 0.014120722 0.093127534
v 0.075140153 0.014120722 0.093127534
v 0.075140153 0.013916354 0.093176201
v 0.063940153 0.013916354 0.093176201
v 0.063940153 0.014517775 0.094075411
v 0.075140153 0.014517775 0.094075411
v 0.075140153 0.014626792 0.093908
v 0.063940153 0.014626792 0.093908
v 0.063940153 0.014126564 0.094235
v 0.075140153 0.014126564 0.094235
v 0.075140153 0.014350389 0.094184403
v 0.063940153 0.014350389 0.094184403
v 0.063940153 0.014626792 0.093466218
v 0.075140153 0.014626792 0.093466218
v 0.075140153 0.014617038 0.093456464
v 0.063940153 0.014617038 0.093456464
v 0.063940153 0.014617038 0.093456464
v 0.075140153 0.014617038 0.093456464
v 0.075140153 0.014506117 0.093283236
v 0.063940153 0.014506117 0.093283236
v 0.063940153 0.014626792 0.093908
v 0.075140153 0.014626792 0.093908
v 0.075140153 0.014679319 0.093690017
v 0.063940153 0.014679319 0.093690017
v 0.063940153 0.01373924 0.094079298
v 0.075140153 0.01373924 0.094079298
v 0.075140153 0.013893011 0.094184403
v 0.063940153 0.013893011 0.094184403
v 0.063940153 0.013893011 0.094184403
v 0.075140153 0.013893011 0.094184403
v 0.075140153 0.014126564 0.094235
v 0.063940153 0.014126564 0.094235
v 0.063940153 0.014679319 0.093690017
v 0.075140153 0.014679319 0.093690017
v 0.075140153 0.014626792 0.093466218
v 0.063940153 0.014626792 0.093466218
v 0.063940153 0.013624406 0.093915798
v 0.075140153 0.013624406 0.093915798
v 0.075140153 0.01373924 0.094079298
v 0.063940153 0.01373924 0.094079298
v 0.075140153 0.014120722 0.093127534
v 0.075140153 0.014325091 0.093176201
v 0.075140153 0.014506117 0.093283236
v 0.075140153 0.014617038 0.093456464
v 0.075140153 0.014626792 0.093466218
v 0.075140153 0.014679319 0.093690017
v 0.075140153 0.014626792 0.093908
v 0.075140153 0.014517775 0.094075411
v 0.075140153 0.014350389 0.094184403
v 0.075140153 0.014126564 0.094235
v 0.075140153 0.013893011 0.094184403
v 0.075140153 0.01373924 0.094079298
v 0.075140153 0.013624406 0.093915798
v 0.075140153 0.01357381 0.093691973
v 0.075140153 0.013624406 0.093468148
v 0.075140153 0.013747038 0.093287148
v 0.075140153 0.013916354 0.093176201
v 0.063940153 0.01357381 0.093691973
v 0.075140153 0.01357381 0.093691973
v 0.075140153 0.013624406 0.093915798
v 0.063940153 0.013624406 0.093915798
v 0.063940153 0.014325091 0.093176201
v 0.075140153 0.014325091 0.093176201
v 0.075140153 0.014120722 0.093127534
v 0.063940153 0.014120722 0.093127534
v 0.063940153 0.014350389 0.094184403
v 0.075140153 0.014350389 0.094184403
v 0.075140153 0.014517775 0.094075411
v 0.063940153 0.014517775 0.094075411
f 308 309 307
f 307 309 310
f 312 313 311
f 311 313 314
f 311 314 315
f 316 323 315
f 315 323 324
f 315 324 326
f 326 324 325
f 316 317 323
f 323 317 318
f 323 318 319
f 320 321 319
f 319 321 322
f 319 322 323
f 326 327 315
f 315 327 311
f 329 330 328
f 328 330 331
f 333 334 332
f 332 334 335
f 337 338 336
f 336 338 339
f 341 342 340
f 340 342 343
f 345 346 344
f 344 346 347
f 349 350 348
f 348 350 351
f 353 354 352
f 352 354 355
f 357 358 356
f 356 358 359
f 361 362 360
f 360 362 363
f 365 366 364
f 364 366 367
f 369 370 368
f 368 370 371
f 373 374 372
f 372 374 375
f 377 378 376
f 376 378 379
f 380 381 396
f 396 381 395
f 395 381 394
f 394 381 382
f 394 382 383
f 384 385 383
f 383 385 394
f 385 386 394
f 394 386 393
f 393 386 392
f 392 386 391
f 391 386 390
f 390 386 387
f 390 387 388
f 388 389 390
f 398 399 397
f 397 399 400
f 402 403 401
f 401 403 404
f 406 407 405
f 405 407 408
v 0.063940153 0.012474027 0.082817143
v 0.075140153 0.012474027 0.082817143
v 0.075140153 0.012351396 0.082998143
v 0.063940153 0.012351396 0.082998143
v 0.063940153 0.013052081 0.082706196
v 0.063940153 0.012847712 0.082657529
v 0.063940153 0.012643344 0.082706196
v 0.063940153 0.012474027 0.082817143
v 0.063940153 0.012351396 0.082998143
v 0.063940153 0.012300799 0.083221968
v 0.063940153 0.012351396 0.083445793
v 0.063940153 0.01246623 0.083609293
v 0.063940153 0.012620001 0.083714398
v 0.063940153 0.012853554 0.083764995
v 0.063940153 0.013077379 0.083714398
v 0.063940153 0.013244765 0.083605406
v 0.063940153 0.013353782 0.083437995
v 0.063940153 0.013406309 0.083220012
v 0.063940153 0.013353782 0.082996213
v 0.063940153 0.013344028 0.082986459
v 0.063940153 0.013233106 0.082813231
v 0.063940153 0.013233106 0.082813231
v 0.075140153 0.013233106 0.082813231
v 0.075140153 0.013052081 0.082706196
v 0.063940153 0.013052081 0.082706196
v 0.063940153 0.012643344 0.082706196
v 0.075140153 0.012643344 0.082706196
v 0.075140153 0.012474027 0.082817143
v 0.063940153 0.012474027 0.082817143
v 0.063940153 0.012351396 0.082998143
v 0.075140153 0.012351396 0.082998143
v 0.075140153 0.012300799 0.083221968
v 0.063940153 0.012300799 0.083221968
v 0.063940153 0.012847712 0.082657529
v 0.075140153 0.012847712 0.082657529
v 0.075140153 0.012643344 0.082706196
v 0.063940153 0.012643344 0.082706196
v 0.063940153 0.013244765 0.083605406
v 0.075140153 0.013244765 0.083605406
v 0.075140153 0.013353782 0.083437995
v 0.063940153 0.013353782 0.083437995
v 0.063940153 0.012853554 0.083764995
v 0.075140153 0.012853554 0.083764995
v 0.075140153 0.013077379 0.083714398
v 0.063940153 0.013077379 0.083714398
v 0.063940153 0.013353782 0.082996213
v 0.075140153 0.013353782 0.082996213
v 0.075140153 0.013344028 0.082986459
v 0.063940153 0.013344028 0.082986459
v 0.063940153 0.013344028 0.082986459
v 0.075140153 0.013344028 0.082986459
v 0.075140153 0.013233106 0.082813231
v 0.063940153 0.013233106 0.082813231
v 0.063940153 0.013353782 0.083437995
v 0.075140153 0.013353782 0.083437995
v 0.075140153 0.013406309 0.083220012
v 0.063940153 0.013406309 0.083220012
v 0.063940153 0.01246623 0.083609293
v 0.075140153 0.01246623 0.083609293
v 0.075140153 0.012620001 0.083714398
v 0.063940153 0.012620001 0.083714398
v 0.063940153 0.012620001 0.083714398
v 0.075140153 0.012620001 0.083714398
v 0.075140153 0.012853554 0.083764995
v 0.063940153 0.012853554 0.083764995
v 0.063940153 0.013406309 0.083220012
v 0.075140153 0.013406309 0.083220012
v 0.075140153 0.013353782 0.082996213
v 0.063940153 0.013353782 0.082996213
v 0.063940153 0.012351396 0.083445793
v 0.075140153 0.012351396 0.083445793
v 0.075140153 0.01246623 0.083609293
v 0.063940153 0.01246623 0.083609293
v 0.075140153 0.012847712 0.082657529
v 0.075140153 0.013052081 0.082706196
v 0.075140153 0.013233106 0.082813231
v 0.075140153 0.013344028 0.082986459
v 0.075140153 0.013353782 0.082996213
v 0.075140153 0.013406309 0.083220012
v 0.075140153 0.013353782 0.083437995
v 0.075140153 0.013244765 0.083605406
v 0.075140153 0.013077379 0.083714398
v 0.075140153 0.012853554 0.083764995
v 0.075140153 0.012620001 0.083714398
v 0.075140153 0.01246623 0.083609293
v 0.075140153 0.012351396 0.083445793
v 0.075140153 0.012300799 0.083221968
v 0.075140153 0.012351396 0.082998143
v 0.075140153 0.012474027 0.082817143
v 0.075140153 0.012643344 0.082706196
v 0.063940153 0.012300799 0.083221968
v 0.075140153 0.012300799 0.083221968
v 0.075140153 0.012351396 0.083445793
v 0.063940153 0.012351396 0.083445793
v 0.063940153 0.013052081 0.082706196
v 0.075140153 0.013052081 0.082706196
v 0.075140153 0.012847712 0.082657529
v 0.063940153 0.012847712 0.082657529
v 0.063940153 0.013077379 0.083714398
v 0.075140153 0.013077379 0.083714398
v 0.075140153 0.013244765 0.083605406
v 0.063940153 0.013244765 0.083605406
f 410 411 409
f 409 411 412
f 414 415 413
f 413 415 416
f 413 416 417
f 418 425 417
f 417 425 426
f 417 426 428
f 428 426 427
f 418 419 425
f 425 419 420
f 425 420 421
f 422 423 421
f 421 423 424
f 421 424 425
f 428 429 417
f 417 429 413
f 431 432 430
f 430 432 433
f 435 436 434
f 434 436 437
f 439 440 438
f 438 440 441
f 443 444 442
f 442 444 445
f 447 448 446
f 446 448 449
f 451 452 450
f 450 452 453
f 455 456 454
f 454 456 457
f 459 460 458
f 458 460 461
f 463 464 462
f 462 464 465
f 467 468 466
f 466 468 469
f 471 472 470
f 470 472 473
f 475 476 474
f 474 476 477
f 479 480 478
f 478 480 481
f 482 483 498
f 498 483 497
f 497 483 496
f 496 483 484
f 496 484 485
f 486 487 485
f 485 487 496
f 487 488 496
f 496 488 495
f 495 488 494
f 494 488 493
f 493 488 492
f 492 488 489
f 492 489 490
f 490 491 492
f 500 501 499
f 499 501 502
f 504 505 503
f 503 505 506
f 508 509 507
f 507 509 510
v 0.063940153 0.015014036 0.082817143
v 0.075140153 0.015014036 0.082817143
v 0.075140153 0.014891405 0.082998143
v 0.063940153 0.014891405 0.082998143
v 0.063940153 0.015592089 0.082706196
v 0.063940153 0.015387721 0.082657529
v 0.063940153 0.015183352 0.082706196
v 0.063940153 0.015014036 0.082817143
v 0.063940153 0.014891405 0.082998143
v 0.063940153 0.014840808 0.083221968
v 0.063940153 0.014891405 0.083445793
v 0.063940153 0.015006238 0.083609293
v 0.063940153 0.01516001 0.083714398
v 0.063940153 0.015393563 0.083764995
v 0.063940153 0.015617388 0.083714398
v 0.063940153 0.015784774 0.083605406
v 0.063940153 0.01589379 0.083437995
v 0.063940153 0.015946318 0.083220012
v 0.063940153 0.01589379 0.082996213
v 0.063940153 0.015884037 0.082986459
v 0.063940153 0.015773115 0.082813231
v 0.063940153 0.015773115 0.082813231
v 0.075140153 0.015773115 0.082813231
v 0.075140153 0.015592089 0.082706196
v 0.063940153 0.015592089 0.082706196
v 0.063940153 0.015183352 0.082706196
v 0.075140153 0.015183352 0.082706196
v 0.075140153 0.015014036 0.082817143
v 0.063940153 0.015014036 0.082817143
v 0.063940153 0.014891405 0.082998143
v 0.075140153 0.014891405 0.082998143
v 0.075140153 0.014840808 0.083221968
v 0.063940153 0.014840808 0.083221968
v 0.063940153 0.015387721 0.082657529
v 0.075140153 0.015387721 0.082657529
v 0.075140153 0.015183352 0.082706196
v 0.063940153 0.015183352 0.082706196
v 0.063940153 0.015784774 0.083605406
v 0.075140153 0.015784774 0.083605406
v 0.075140153 0.01589379 0.083437995
v 0.063940153 0.01589379 0.083437995
v 0.063940153 0.015393563 0.083764995
v 0.075140153 0.015393563 0.083764995
v 0.075140153 0.015617388 0.083714398
v 0.063940153 0.015617388 0.083714398
v 0.063940153 0.01589379 0.082996213
v 0.075140153 0.01589379 0.082996213
v 0.075140153 0.015884037 0.082986459
v 0.063940153 0.015884037 0.082986459
v 0.063940153 0.015884037 0.082986459
v 0.075140153 0.015884037 0.082986459
v 0.075140153 0.015773115 0.082813231
v 0.063940153 0.015773115 0.082813231
v 0.063940153 0.01589379 0.083437995
v 0.075140153 0.01589379 0.083437995
v 0.075140153 0.015946318 0.083220012
v 0.063940153 0.015946318 0.083220012
v 0.063940153 0.015006238 0.083609293
v 0.075140153 0.015006238 0.083609293
v 0.075140153 0.01516001 0.083714398
v 0.063940153 0.01516001 0.083714398
v 0.063940153 0.01516001 0.083714398
v 0.075140153 0.01516001 0.083714398
v 0.075140153 0.015393563 0.083764995
v 0.063940153 0.015393563 0.083764995
v 0.063940153 0.015946318 0.083220012
v 0.075140153 0.015946318 0.083220012
v 0.075140153 0.01589379 0.082996213
v 0.063940153 0.01589379 0.082996213
v 0.063940153 0.014891405 0.083445793
v 0.075140153 0.014891405 0.083445793
v 0.075140153 0.015006238 0.083609293
v 0.063940153 0.015006238 0.083609293
v 0.075140153 0.015387721 0.082657529
v 0.075140153 0.015592089 0.082706196
v 0.075140153 0.015773115 0.082813231
v 0.075140153 0.015884037 0.082986459
v 0.075140153 0.01589379 0.082996213
v 0.075140153 0.015946318 0.083220012
v 0.075140153 0.01589379 0.083437995
v 0.075140153 0.015784774 0.083605406
v 0.075140153 0.015617388 0.083714398
v 0.075140153 0.015393563 0.083764995
v 0.075140153 0.01516001 0.083714398
v 0.075140153 0.015006238 0.083609293
v 0.075140153 0.014891405 0.083445793
v 0.075140153 0.014840808 0.083221968
v 0.075140153 0.014891405 0.082998143
v 0.075140153 0.015014036 0.082817143
v 0.075140153 0.015183352 0.082706196
v 0.063940153 0.014840808 0.083221968
v 0.075140153 0.014840808 0.083221968
v 0.075140153 0.014891405 0.083445793
v 0.063940153 0.014891405 0.083445793
v 0.063940153 0.015592089 0.082706196
v 0.075140153 0.015592089 0.082706196
v 0.075140153 0.015387721 0.082657529
v 0.063940153 0.015387721 0.082657529
v 0.063940153 0.015617388 0.083714398
v 0.075140153 0.015617388 0.083714398
v 0.075140153 0.015784774 0.083605406
v 0.063940153 0.015784774 0.083605406
f 512 513 511
f 511 513 514
f 516 517 515
f 515 517 518
f 515 518 519
f 520 527 519
f 519 527 528
f 519 528 530
f 530 528 529
f 520 521 527
f 527 521 522
f 527 522 523
f 524 525 523
f 523 525 526
f 523 526 527
f 530 531 519
f 519 531 515
f 533 534 532
f 532 534 535
f 537 538 536
f 536 538 539
f 541 542 540
f 540 542 543
f 545 546 544
f 544 546 547
f 549 550 548
f 548 550 551
f 553 554 552
f 552 554 555
f 557 558 556
f 556 558 559
f 561 562 560
f 560 562 563
f 565 566 564
f 564 566 567
f 569 570 568
f 568 570 571
f 573 574 572
f 572 574 575
f 577 578 576
f 576 578 579
f 581 582 580
f 580 582 583
f 584 585 600
f 600 585 599
f 599 585 598
f 598 585 586
f 598 586 587
f 588 589 587
f 587 589 598
f 589 590 598
f 598 590 597
f 597 590 596
f 596 590 595
f 595 590 594
f 594 590 591
f 594 591 592
f 592 593 594
f 602 603 601
f 601 603 604
f 606 607 605
f 605 607 608
f 610 611 609
f 609 611 612
v 0.063940153 0.012474027 0.080277142
v 0.075140153 0.012474027 0.080277142
v 0.075140153 0.012351396 0.080458142
v 0.063940153 0.012351396 0.080458142
v 0.063940153 0.013052081 0.080166195
v 0.063940153 0.012847712 0.080117528
v 0.063940153 0.012643344 0.080166195
v 0.063940153 0.012474027 0.080277142
v 0.063940153 0.012351396 0.080458142
v 0.063940153 0.012300799 0.080681967
v 0.063940153 0.012351396 0.080905792
v 0.063940153 0.01246623 0.081069292
v 0.063940153 0.012620001 0.081174397
v 0.063940153 0.012853554 0.081224994
v 0.063940153 0.013077379 0.081174397
v 0.063940153 0.013244765 0.081065406
v 0.063940153 0.013353782 0.080897994
v 0.063940153 0.013406309 0.080680011
v 0.063940153 0.013353782 0.080456212
v 0.063940153 0.013344028 0.080446458
v 0.063940153 0.013233106 0.08027323
v 0.063940153 0.013233106 0.08027323
v 0.075140153 0.013233106 0.08027323
v 0.075140153 0.013052081 0.080166195
v 0.063940153 0.013052081 0.080166195
v 0.063940153 0.012643344 0.080166195
v 0.075140153 0.012643344 0.080166195
v 0.075140153 0.012474027 0.080277142
v 0.063940153 0.012474027 0.080277142
v 0.063940153 0.012351396 0.080458142
v 0.075140153 0.012351396 0.080458142
v 0.075140153 0.012300799 0.080681967
v 0.063940153 0.012300799 0.080681967
v 0.063940153 0.012847712 0.080117528
v 0.075140153 0.012847712 0.080117528
v 0.075140153 0.012643344 0.080166195
v 0.063940153 0.012643344 0.080166195
v 0.063940153 0.013244765 0.081065406
v 0.075140153 0.013244765 0.081065406
v 0.075140153 0.013353782 0.080897994
v 0.063940153 0.013353782 0.080897994
v 0.063940153 0.012853554 0.081224994
v 0.075140153 0.012853554 0.081224994
v 0.075140153 0.013077379 0.081174397
v 0.063940153 0.013077379 0.081174397
v 0.063940153 0.013353782 0.080456212
v 0.075140153 0.013353782 0.080456212
v 0.075140153 0.013344028 0.080446458
v 0.063940153 0.013344028 0.080446458
v 0.063940153 0.013344028 0.080446458
v 0.075140153 0.013344028 0.080446458
v 0.075140153 0.013233106 0.08027323
v 0.063940153 0.013233106 0.08027323
v 0.063940153 0.013353782 0.080897994
v 0.075140153 0.013353782 0.080897994
v 0.075140153 0.013406309 0.080680011
v 0.063940153 0.013406309 0.080680011
v 0.063940153 0.01246623 0.081069292
v 0.075140153 0.01246623 0.081069292
v 0.075140153 0.012620001 0.081174397
v 0.063940153 0.012620001 0.081174397
v 0.063940153 0.012620001 0.081174397
v 0.075140153 0.012620001 0.081174397
v 0.075140153 0.012853554 0.081224994
v 0.063940153 0.012853554 0.081224994
v 0.063940153 0.013406309 0.080680011
v 0.075140153 0.013406309 0.080680011
v 0.075140153 0.013353782 0.080456212
v 0.063940153 0.013353782 0.080456212
v 0.063940153 0.012351396 0.080905792
v 0.075140153 0.012351396 0.080905792
v 0.075140153 0.01246623 0.081069292
v 0.063940153 0.01246623 0.081069292
v 0.075140153 0.012847712 0.080117528
v 0.075140153 0.013052081 0.080166195
v 0.075140153 0.013233106 0.08027323
v 0.075140153 0.013344028 0.080446458
v 0.075140153 0.013353782 0.080456212
v 0.075140153 0.013406309 0.080680011
v 0.075140153 0.013353782 0.080897994
v 0.075140153 0.013244765 0.081065406
v 0.075140153 0.013077379 0.081174397
v 0.075140153 0.012853554 0.081224994
v 0.075140153 0.012620001 0.081174397
v 0.075140153 0.01246623 0.081069292
v 0.075140153 0.012351396 0.080905792
v 0.075140153 0.012300799 0.080681967
v 0.075140153 0.012351396 0.080458142
v 0.075140153 0.012474027 0.080277142
v 0.075140153 0.012643344 0.080166195
v 0.063940153 0.012300799 0.080681967
v 0.075140153 0.012300799 0.080681967
v 0.075140153 0.012351396 0.080905792
v 0.063940153 0.012351396 0.080905792
v 0.063940153 0.013052081 0.080166195
v 0.075140153 0.013052081 0.080166195
v 0.075140153 0.012847712 0.080117528
v 0.063940153 0.012847712 0.080117528
v 0.063940153 0.013077379 0.081174397
v 0.075140153 0.013077379 0.081174397
v 0.075140153 0.013244765 0.081065406
v 0.063940153 0.013244765 0.081065406
f 614 615 613
f 613 615 616
f 618 619 617
f 617 619 620
f 617 620 621
f 622 629 621
f 621 629 630
f 621 630 632
f 632 630 631
f 622 623 629
f 629 623 624
f 629 624 625
f 626 627 625
f 625 627 628
f 625 628 629
f 632 633 621
f 621 633 617
f 635 636 634
f 634 636 637
f 639 640 638
f 638 640 641
f 643 644 642
f 642 644 645
f 647 648 646
f 646 648 649
f 651 652 650
f 650 652 653
f 655 656 654
f 654 656 657
f 659 660 658
f 658 660 661
f 663 664 662
f 662 664 665
f 667 668 666
f 666 668 669
f 671 672 670
f 670 672 673
f 675 676 674
f 674 676 677
f 679 680 678
f 678 680 681
f 683 684 682
f 682 684 685
f 686 687 702
f 702 687 701
f 701 687 700
f 700 687 688
f 700 688 689
f 690 691 689
f 689 691 700
f 691 692 700
f 700 692 699
f 699 692 698
f 698 692 697
f 697 692 696
f 696 692 693
f 696 693 694
f 694 695 696
f 704 705 703
f 703 705 706
f 708 709 707
f 707 709 710
f 712 713 711
f 711 713 714
v 0.063940153 0.015014036 0.080277142
v 0.075140153 0.015014036 0.080277142
v 0.075140153 0.014891405 0.080458142
v 0.063940153 0.014891405 0.080458142
v 0.063940153 0.015592089 0.080166195
v 0.063940153 0.015387721 0.080117528
v 0.063940153 0.015183352 0.080166195
v 0.063940153 0.015014036 0.080277142
v 0.063940153 0.014891405 0.080458142
v 0.063940153 0.014840808 0.080681967
v 0.063940153 0.014891405 0.080905792
v 0.063940153 0.015006238 0.081069292
v 0.063940153 0.01516001 0.081174397
v 0.063940153 0.015393563 0.081224994
v 0.063940153 0.015617388 0.081174397
v 0.063940153 0.015784774 0.081065406
v 0.063940153 0.01589379 0.080897994
v 0.063940153 0.015946318 0.080680011
v 0.063940153 0.01589379 0.080456212
v 0.063940153 0.015884037 0.080446458
v 0.063940153 0.015773115 0.08027323
v 0.063940153 0.015773115 0.08027323
v 0.075140153 0.015773115 0.08027323
v 0.075140153 0.015592089 0.080166195
v 0.063940153 0.015592089 0.080166195
v 0.063940153 0.015183352 0.080166195
v 0.075140153 0.015183352 0.080166195
v 0.075140153 0.015014036 0.080277142
v 0.063940153 0.015014036 0.080277142
v 0.063940153 0.014891405 0.080458142
v 0.075140153 0.014891405 0.080458142
v 0.075140153 0.014840808 0.080681967
v 0.063940153 0.014840808 0.080681967
v 0.063940153 0.015387721 0.080117528
v 0.075140153 0.015387721 0.080117528
v 0.075140153 0.015183352 0.080166195
v 0.063940153 0.015183352 0.080166195
v 0.063940153 0.015784774 0.081065406
v 0.075140153 0.015784774 0.081065406
v 0.075140153 0.01589379 0.080897994
v 0.063940153 0.01589379 0.080897994
v 0.063940153 0.015393563 0.081224994
v 0.075140153 0.015393563 0.081224994
v 0.075140153 0.015617388 0.081174397
v 0.063940153 0.015617388 0.081174397
v 0.063940153 0.01589379 0.080456212
v 0.075140153 0.01589379 0.080456212
v 0.075140153 0.015884037 0.080446458
v 0.063940153 0.015884037 0.080446458
v 0.063940153 0.015884037 0.080446458
v 0.075140153 0.015884037 0.080446458
v 0.075140153 0.015773115 0.08027323
v 0.063940153 0.015773115 0.08027323
v 0.063940153 0.01589379 0.080897994
v 0.075140153 0.01589379 0.080897994
v 0.075140153 0.015946318 0.080680011
v 0.063940153 0.015946318 0.080680011
v 0.063940153 0.015006238 0.081069292
v 0.075140153 0.015006238 0.081069292
v 0.075140153 0.01516001 0.081174397
v 0.063940153 0.01516001 0.081174397
v 0.063940153 0.01516001 0.081174397
v 0.075140153 0.01516001 0.081174397
v 0.075140153 0.015393563 0.081224994
v 0.063940153 0.015393563 0.081224994
v 0.063940153 0.015946318 0.080680011
v 0.075140153 0.015946318 0.080680011
v 0.075140153 0.01589379 0.080456212
v 0.063940153 0.01589379 0.080456212
v 0.063940153 0.014891405 0.080905792
v 0.075140153 0.014891405 0.080905792
v 0.075140153 0.015006238 0.081069292
v 0.063940153 0.015006238 0.081069292
v 0.075140153 0.015387721 0.080117528
v 0.075140153 0.015592089 0.080166195
v 0.075140153 0.015773115 0.08027323
v 0.075140153 0.015884037 0.080446458
v 0.075140153 0.01589379 0.080456212
v 0.075140153 0.015946318 0.080680011
v 0.075140153 0.01589379 0.080897994
v 0.075140153 0.015784774 0.081065406
v 0.075140153 0.015617388 0.081174397
v 0.075140153 0.015393563 0.081224994
v 0.075140153 0.01516001 0.081174397
v 0.075140153 0.015006238 0.081069292
v 0.075140153 0.014891405 0.080905792
v 0.075140153 0.014840808 0.080681967
v 0.075140153 0.014891405 0.080458142
v 0.075140153 0.015014036 0.080277142
v 0.075140153 0.015183352 0.080166195
v 0.063940153 0.014840808 0.080681967
v 0.075140153 0.014840808 0.080681967
v 0.075140153 0.014891405 0.080905792
v 0.063940153 0.014891405 0.080905792
v 0.063940153 0.015592089 0.080166195
v 0.075140153 0.015592089 0.080166195
v 0.075140153 0.015387721 0.080117528
v 0.063940153 0.015387721 0.080117528
v 0.063940153 0.015617388 0.081174397
v 0.075140153 0.015617388 0.081174397
v 0.075140153 0.015784774 0.081065406
v 0.063940153 0.015784774 0.081065406
f 716 717 715
f 715 717 718
f 720 721 719
f 719 721 722
f 719 722 723
f 724 731 723
f 723 731 732
f 723 732 734
f 734 732 733
f 724 725 731
f 731 725 726
f 731 726 727
f 728 729 727
f 727 729 730
f 727 730 731
f 734 735 723
f 723 735 719
f 737 738 736
f 736 738 739
f 741 742 740
f 740 742 743
f 745 746 744
f 744 746 747
f 749 750 748
f 748 750 751
f 753 754 752
f 752 754 755
f 757 758 756
f 756 758 759
f 761 762 760
f 760 762 763
f 765 766 764
f 764 766 767
f 769 770 768
f 768 770 771
f 773 774 772
f 772 774 775
f 777 778 776
f 776 778 779
f 781 782 780
f 780 782 783
f 785 786 784
f 784 786 787
f 788 789 804
f 804 789 803
f 803 789 802
f 802 789 790
f 802 790 791
f 792 793 791
f 791 793 802
f 793 794 802
f 802 794 801
f 801 794 800
f 800 794 799
f 799 794 798
f 798 794 795
f 798 795 796
f 796 797 798
f 806 807 805
f 805 807 808
f 810 811 809
f 809 811 812
f 814 815 813
f 813 815 816
v 0.063940153 0.012474027 0.077737145
v 0.075140153 0.012474027 0.077737145
v 0.075140153 0.012351396 0.077918145
v 0.063940153 0.012351396 0.077918145
v 0.063940153 0.013052081 0.077626198
v 0.063940153 0.012847712 0.077577531
v 0.063940153 0.012643344 0.077626198
v 0.063940153 0.012474027 0.077737145
v 0.063940153 0.012351396 0.077918145
v 0.063940153 0.012300799 0.07814197
v 0.063940153 0.012351396 0.078365795
v 0.063940153 0.01246623 0.078529295
v 0.063940153 0.012620001 0.0786344
v 0.063940153 0.012853554 0.078684997
v 0.063940153 0.013077379 0.0786344
v 0.063940153 0.013244765 0.078525408
v 0.063940153 0.013353782 0.078357997
v 0.063940153 0.013406309 0.078140014
v 0.063940153 0.013353782 0.077916215
v 0.063940153 0.013344028 0.077906461
v 0.063940153 0.013233106 0.077733233
v 0.063940153 0.013233106 0.077733233
v 0.075140153 0.013233106 0.077733233
v 0.075140153 0.013052081 0.077626198
v 0.063940153 0.013052081 0.077626198
v 0.063940153 0.012643344 0.077626198
v 0.075140153 0.012643344 0.077626198
v 0.075140153 0.012474027 0.077737145
v 0.063940153 0.012474027 0.077737145
v 0.063940153 0.012351396 0.077918145
v 0.075140153 0.012351396 0.077918145
v 0.075140153 0.012300799 0.07814197
v 0.063940153 0.012300799 0.07814197
v 0.063940153 0.012847712 0.077577531
v 0.075140153 0.012847712 0.077577531
v 0.075140153 0.012643344 0.077626198
v 0.063940153 0.012643344 0.077626198
v 0.063940153 0.013244765 0.078525408
v 0.075140153 0.013244765 0.078525408
v 0.075140153 0.013353782 0.078357997
v 0.063940153 0.013353782 0.078357997
v 0.063940153 0.012853554 0.078684997
v 0.075140153 0.012853554 0.078684997
v 0.075140153 0.013077379 0.0786344
v 0.063940153 0.013077379 0.0786344
v 0.063940153 0.013353782 0.077916215
v 0.075140153 0.013353782 0.077916215
v 0.075140153 0.013344028 0.077906461
v 0.063940153 0.013344028 0.077906461
v 0.063940153 0.013344028 0.077906461
v 0.075140153 0.013344028 0.077906461
v 0.075140153 0.013233106 0.077733233
v 0.063940153 0.013233106 0.077733233
v 0.063940153 0.013353782 0.078357997
v 0.075140153 0.013353782 0.078357997
v 0.075140153 0.013406309 0.078140014
v 0.063940153 0.013406309 0.078140014
v 0.063940153 0.01246623 0.078529295
v 0.075140153 0.01246623 0.078529295
v 0.075140153 0.012620001 0.0786344
v 0.063940153 0.012620001 0.0786344
v 0.063940153 0.012620001 0.0786344
v 0.075140153 0.012620001 0.0786344
v 0.075140153 0.012853554 0.078684997
v 0.063940153 0.012853554 0.078684997
v 0.063940153 0.013406309 0.078140014
v 0.075140153 0.013406309 0.078140014
v 0.075140153 0.013353782 0.077916215
v 0.063940153 0.013353782 0.077916215
v 0.063940153 0.012351396 0.078365795
v 0.075140153 0.012351396 0.078365795
v 0.075140153 0.01246623 0.078529295
v 0.063940153 0.01246623 0.078529295
v 0.075140153 0.012847712 0.077577531
v 0.075140153 0.013052081 0.077626198
v 0.075140153 0.013233106 0.077733233
v 0.075140153 0.013344028 0.077906461
v 0.075140153 0.013353782 0.077916215
v 0.075140153 0.013406309 0.078140014
v 0.075140153 0.013353782 0.078357997
v 0.075140153 0.013244765 0.078525408
v 0.075140153 0.013077379 0.0786344
v 0.075140153 0.012853554 0.078684997
v 0.075140153 0.012620001 0.0786344
v 0.075140153 0.01246623 0.078529295
v 0.075140153 0.012351396 0.078365795
v 0.075140153 0.012300799 0.07814197
v 0.075140153 0.012351396 0.077918145
v 0.075140153 0.012474027 0.077737145
v 0.075140153 0.012643344 0.077626198
v 0.063940153 0.012300799 0.07814197
v 0.075140153 0.012300799 0.07814197
v 0.075140153 0.012351396 0.078365795
v 0.063940153 0.012351396 0.078365795
v 0.063940153 0.013052081 0.077626198
v 0.075140153 0.013052081 0.077626198
v 0.075140153 0.012847712 0.077577531
v 0.063940153 0.012847712 0.077577531
v 0.063940153 0.013077379 0.0786344
v 0.075140153 0.013077379 0.0786344
v 0.075140153 0.013244765 0.078525408
v 0.063940153 0.013244765 0.078525408
f 818 819 817
f 817 819 820
f 822 823 821
f 821 823 824
f 821 824 825
f 826 833 825
f 825 833 834
f 825 834 836
f 836 834 835
f 826 827 833
f 833 827 828
f 833 828 829
f 830 831 829
f 829 831 832
f 829 832 833
f 836 837 825
f 825 837 821
f 839 840 838
f 838 840 841
f 843 844 842
f 842 844 845
f 847 848 846
f 846 848 849
f 851 852 850
f 850 852 853
f 855 856 854
f 854 856 857
f 859 860 858
f 858 860 861
f 863 864 862
f 862 864 865
f 867 868 866
f 866 868 869
f 871 872 870
f 870 872 873
f 875 876 874
f 874 876 877
f 879 880 878
f 878 880 881
f 883 884 882
f 882 884 885
f 887 888 886
f 886 888 889
f 890 891 906
f 906 891 905
f 905 891 904
f 904 891 892
f 904 892 893
f 894 895 893
f 893 895 904
f 895 896 904
f 904 896 903
f 903 896 902
f 902 896 901
f 901 896 900
f 900 896 897
f 900 897 898
f 898 899 900
f 908 909 907
f 907 909 910
f 912 913 911
f 911 913 914
f 916 917 915
f 915 917 918
