v -0.055 -0.0030000076 -0.047000008
v -0.055 -0.0030000076 -0.072000008
v -0.055 0.0029999962 -0.072000008
v -0.055 0.0029999962 -0.047000008
v -0.055 0.0029999962 -0.047000008
v -0.055 0.0029999962 -0.072000008
v -0.058999996 0.0029999962 -0.072000008
v -0.058999996 0.0029999962 -0.047000008
v -0.058999996 0.0029999962 -0.047000008
v -0.058999996 0.0029999962 -0.072000008
v -0.058999996 -0.0030000076 -0.072000008
v -0.058999996 -0.0030000076 -0.047000008
v -0.058999996 -0.0030000076 -0.047000008
v -0.058999996 -0.0030000076 -0.072000008
v -0.055 -0.0030000076 -0.072000008
v -0.055 -0.0030000076 -0.047000008
v -0.055 0.0029999962 -0.072000008
v -0.055 -0.0030000076 -0.072000008
v -0.058999996 -0.0030000076 -0.072000008
v -0.058999996 0.0029999962 -0.072000008
v -0.055 -0.0030000076 -0.047000008
v -0.055 0.0029999962 -0.047000008
v -0.058999996 0.0029999962 -0.047000008
v -0.058999996 -0.0030000076 -0.047000008
f 1 2 4
f 4 2 3
f 5 6 8
f 8 6 7
f 9 10 12
f 12 10 11
f 13 14 16
f 16 14 15
f 18 19 17
f 17 19 20
f 22 23 21
f 21 23 24
v -0.028999996 -0.024999996 0.0059999847
v -0.028999996 -0.024999996 -0.017000008
v -0.028999996 0.025000004 -0.017000008
v -0.028999996 0.025000004 0.0059999847
v -0.028999996 0.025000004 0.0059999847
v -0.028999996 0.025000004 -0.017000008
v -0.048999996 0.025000004 -0.017000008
v -0.048999996 0.025000004 0.0059999847
v -0.048999996 0.025000004 0.0059999847
v -0.048999996 0.025000004 -0.017000008
v -0.048999996 -0.024999996 -0.017000008
v -0.048999996 -0.024999996 0.0059999847
v -0.048999996 -0.024999996 0.0059999847
v -0.048999996 -0.024999996 -0.017000008
v -0.028999996 -0.024999996 -0.017000008
v -0.028999996 -0.024999996 0.0059999847
v -0.028999996 0.025000004 -0.017000008
v -0.028999996 -0.024999996 -0.017000008
v -0.048999996 -0.024999996 -0.017000008
v -0.048999996 0.025000004 -0.017000008
v -0.028999996 -0.024999996 0.0059999847
v -0.028999996 0.025000004 0.0059999847
v -0.048999996 0.025000004 0.0059999847
v -0.048999996 -0.024999996 0.0059999847
f 25 26 28
f 28 26 27
f 29 30 32
f 32 30 31
f 33 34 36
f 36 34 35
f 37 38 40
f 40 38 39
f 42 43 41
f 41 43 44
f 46 47 45
f 45 47 48
v -0.036000004 3.8146973e-09 0.050999985
v -0.036572952 0.0017633476 0.050999985
v -0.038072948 0.0028531685 0.050999985
v -0.039927044 0.0028531685 0.050999985
v -0.041427059 0.0017633476 0.050999985
v -0.042000008 3.8146973e-09 0.050999985
v -0.041427059 -0.0017633591 0.050999985
v -0.039927044 -0.0028531609 0.050999985
v -0.038072948 -0.0028531609 0.050999985
v -0.036572952 -0.0017633591 0.050999985
v -0.036000004 3.8146973e-09 0.0059999847
v -0.036572952 -0.0017633591 0.0059999847
v -0.038072948 -0.0028531609 0.0059999847
v -0.039927044 -0.0028531609 0.0059999847
v -0.041427059 -0.0017633591 0.0059999847
v -0.042000008 3.8146973e-09 0.0059999847
v -0.041427059 0.0017633476 0.0059999847
v -0.039927044 0.0028531685 0.0059999847
v -0.038072948 0.0028531685 0.0059999847
v -0.036572952 0.0017633476 0.0059999847
v -0.036000004 3.8146973e-09 0.0059999847
v -0.036572952 0.0017633476 0.0059999847
v -0.038072948 0.0028531685 0.0059999847
v -0.039927044 0.0028531685 0.0059999847
v -0.041427059 0.0017633476 0.0059999847
v -0.042000008 3.8146973e-09 0.0059999847
v -0.041427059 -0.0017633591 0.0059999847
v -0.039927044 -0.0028531609 0.0059999847
v -0.038072948 -0.0028531609 0.0059999847
v -0.036572952 -0.0017633591 0.0059999847
v -0.036000004 3.8146973e-09 0.050999985
v -0.036572952 -0.0017633591 0.050999985
v -0.038072948 -0.0028531609 0.050999985
v -0.039927044 -0.0028531609 0.050999985
v -0.041427059 -0.0017633591 0.050999985
v -0.042000008 3.8146973e-09 0.050999985
v -0.041427059 0.0017633476 0.050999985
v -0.039927044 0.0028531685 0.050999985
v -0.038072948 0.0028531685 0.050999985
v -0.036572952 0.0017633476 0.050999985
v -0.042000008 3.8146973e-09 0.0059999847
v -0.042000008 3.8146973e-09 0.050999985
f 50 53 49
f 49 53 54
f 49 54 58
f 58 54 55
f 58 55 57
f 57 55 56
f 51 52 50
f 50 52 53
f 60 63 59
f 59 63 64
f 59 64 68
f 68 64 65
f 68 65 67
f 67 65 66
f 61 62 60
f 60 62 63
f 70 79 69
f 69 79 80
f 69 80 78
f 78 80 81
f 78 81 77
f 77 81 82
f 77 82 76
f 76 82 83
f 76 83 75
f 75 83 74
f 74 83 90
f 89 84 73
f 73 84 85
f 73 85 86
f 79 70 88
f 88 70 71
f 88 71 87
f 87 71 72
f 87 72 86
f 86 72 73
