v 0.011902762 0.0032499999 0.015305663
v 0.0087273381 0.0032499999 0.015301596
v 0.0087304124 0.0032499999 0.012901598
v 0.011905836 0.0032499999 0.012905665
v 0.0071396262 0.006 0.015299562
v 0.0087273381 0.0087500001 0.015301596
v 0.0087304124 0.0087500001 0.012901598
v 0.0071427004 0.006 0.012899564
v 0.011902762 0.0087500001 0.015305663
v 0.013490474 0.006 0.015307697
v 0.013493548 0.006 0.012907699
v 0.011905836 0.0087500001 0.012905665
v 0.010318124 0.0072645 0.012903631
v 0.01086677 0.0071392751 0.012904334
v 0.011306749 0.0067884029 0.012904898
v 0.01155092 0.0062813777 0.012905211
v 0.01155092 0.0057186223 0.012905211
v 0.011306749 0.0052115971 0.012904898
v 0.01086677 0.0048607249 0.012904334
v 0.010318124 0.0047355 0.012903631
v 0.0097694787 0.0048607249 0.012902929
v 0.0093294992 0.0052115971 0.012902365
v 0.009085329 0.0057186223 0.012902052
v 0.009085329 0.0062813777 0.012902052
v 0.0093294992 0.0067884029 0.012902365
v 0.0097694787 0.0071392751 0.012902929
v 0.01031505 0.0072645 0.015303629
v 0.0097664045 0.0071392751 0.015302927
v 0.0093264249 0.0067884029 0.015302363
v 0.0090822547 0.0062813777 0.01530205
v 0.0090822547 0.0057186223 0.01530205
v 0.0093264249 0.0052115971 0.015302363
v 0.0097664045 0.0048607249 0.015302927
v 0.01031505 0.0047355 0.015303629
v 0.010863696 0.0048607249 0.015304332
v 0.011303675 0.0052115971 0.015304896
v 0.011547845 0.0057186223 0.015305209
v 0.011547845 0.0062813777 0.015305209
v 0.011303675 0.0067884029 0.015304896
v 0.010863696 0.0071392751 0.015304332
v 0.010318124 0.0072645 0.012903631
v 0.01031505 0.0072645 0.015303629
v 0.0087273381 0.0087500001 0.015301596
v 0.011902762 0.0087500001 0.015305663
v 0.011905836 0.0087500001 0.012905665
v 0.0087304124 0.0087500001 0.012901598
v 0.01031505 0.0072645 0.015303629
v 0.010863696 0.0071392751 0.015304332
v 0.011303675 0.0067884029 0.015304896
v 0.011547845 0.0062813777 0.015305209
v 0.011547845 0.0057186223 0.015305209
v 0.011303675 0.0052115971 0.015304896
v 0.010863696 0.0048607249 0.015304332
v 0.01031505 0.0047355 0.015303629
v 0.0097664045 0.0048607249 0.015302927
v 0.0093264249 0.0052115971 0.015302363
v 0.0090822547 0.0057186223 0.01530205
v 0.0090822547 0.0062813777 0.01530205
v 0.0093264249 0.0067884029 0.015302363
v 0.0097664045 0.0071392751 0.015302927
v 0.0087273381 0.0032499999 0.015301596
v 0.011902762 0.0032499999 0.015305663
v 0.013490474 0.006 0.015307697
v 0.011902762 0.0087500001 0.015305663
v 0.0087273381 0.0087500001 0.015301596
v 0.0071396262 0.006 0.015299562
v 0.010318124 0.0072645 0.012903631
v 0.0097694787 0.0071392751 0.012902929
v 0.0093294992 0.0067884029 0.012902365
v 0.009085329 0.0062813777 0.012902052
v 0.009085329 0.0057186223 0.012902052
v 0.0093294992 0.0052115971 0.012902365
v 0.0097694787 0.0048607249 0.012902929
v 0.010318124 0.0047355 0.012903631
v 0.01086677 0.0048607249 0.012904334
v 0.011306749 0.0052115971 0.012904898
v 0.01155092 0.0057186223 0.012905211
v 0.01155092 0.0062813777 0.012905211
v 0.011306749 0.0067884029 0.012904898
v 0.01086677 0.0071392751 0.012904334
v 0.011905836 0.0032499999 0.012905665
v 0.0087304124 0.0032499999 0.012901598
v 0.0071427004 0.006 0.012899564
v 0.0087304124 0.0087500001 0.012901598
v 0.011905836 0.0087500001 0.012905665
v 0.013493548 0.006 0.012907699
v 0.013490474 0.006 0.015307697
v 0.011902762 0.0032499999 0.015305663
v 0.011905836 0.0032499999 0.012905665
v 0.013493548 0.006 0.012907699
v 0.0087273381 0.0032499999 0.015301596
v 0.0071396262 0.006 0.015299562
v 0.0071427004 0.006 0.012899564
v 0.0087304124 0.0032499999 0.012901598
f 1 2 4
f 4 2 3
f 5 6 8
f 8 6 7
f 9 10 12
f 12 10 11
f 14 40 13
f 13 40 42
f 41 27 26
f 26 27 28
f 26 28 25
f 25 28 29
f 25 29 24
f 24 29 30
f 24 30 23
f 23 30 31
f 23 31 22
f 22 31 32
f 22 32 21
f 21 32 33
f 21 33 20
f 20 33 34
f 20 34 19
f 19 34 35
f 19 35 18
f 18 35 36
f 18 36 17
f 17 36 37
f 17 37 16
f 16 37 38
f 16 38 15
f 15 38 39
f 15 39 14
f 14 39 40
f 43 44 46
f 46 44 45
f 48 64 47
f 47 64 65
f 47 65 60
f 60 65 59
f 59 65 66
f 59 66 58
f 58 66 57
f 57 66 56
f 56 66 61
f 56 61 55
f 55 61 54
f 54 61 62
f 54 62 53
f 53 62 52
f 52 62 63
f 52 63 51
f 51 63 50
f 50 63 49
f 49 63 64
f 49 64 48
f 68 84 67
f 67 84 85
f 67 85 80
f 80 85 79
f 79 85 86
f 79 86 78
f 78 86 77
f 77 86 76
f 76 86 81
f 76 81 75
f 75 81 74
f 74 81 82
f 74 82 73
f 73 82 72
f 72 82 83
f 72 83 71
f 71 83 70
f 70 83 69
f 69 83 84
f 69 84 68
f 87 88 90
f 90 88 89
f 91 92 94
f 94 92 93
v 0.011902762 -0.0087500001 0.015305663
v 0.0087273381 -0.0087500001 0.015301596
v 0.0087304124 -0.0087500001 0.012901598
v 0.011905836 -0.0087500001 0.012905665
v 0.0071396262 -0.006 0.015299562
v 0.0087273381 -0.0032499999 0.015301596
v 0.0087304124 -0.0032499999 0.012901598
v 0.0071427004 -0.006 0.012899564
v 0.011902762 -0.0032499999 0.015305663
v 0.013490474 -0.006 0.015307697
v 0.013493548 -0.006 0.012907699
v 0.011905836 -0.0032499999 0.012905665
v 0.010318124 -0.0047355 0.012903631
v 0.01086677 -0.0048607249 0.012904334
v 0.011306749 -0.0052115971 0.012904898
v 0.01155092 -0.0057186223 0.012905211
v 0.01155092 -0.0062813777 0.012905211
v 0.011306749 -0.0067884029 0.012904898
v 0.01086677 -0.0071392751 0.012904334
v 0.010318124 -0.0072645 0.012903631
v 0.0097694787 -0.0071392751 0.012902929
v 0.0093294992 -0.0067884029 0.012902365
v 0.009085329 -0.0062813777 0.012902052
v 0.009085329 -0.0057186223 0.012902052
v 0.0093294992 -0.0052115971 0.012902365
v 0.0097694787 -0.0048607249 0.012902929
v 0.01031505 -0.0047355 0.015303629
v 0.0097664045 -0.0048607249 0.015302927
v 0.0093264249 -0.0052115971 0.015302363
v 0.0090822547 -0.0057186223 0.01530205
v 0.0090822547 -0.0062813777 0.01530205
v 0.0093264249 -0.0067884029 0.015302363
v 0.0097664045 -0.0071392751 0.015302927
v 0.01031505 -0.0072645 0.015303629
v 0.010863696 -0.0071392751 0.015304332
v 0.011303675 -0.0067884029 0.015304896
v 0.011547845 -0.0062813777 0.015305209
v 0.011547845 -0.0057186223 0.015305209
v 0.011303675 -0.0052115971 0.015304896
v 0.010863696 -0.0048607249 0.015304332
v 0.010318124 -0.0047355 0.012903631
v 0.01031505 -0.0047355 0.015303629
v 0.0087273381 -0.0032499999 0.015301596
v 0.011902762 -0.0032499999 0.015305663
v 0.011905836 -0.0032499999 0.012905665
v 0.0087304124 -0.0032499999 0.012901598
v 0.01031505 -0.0047355 0.015303629
v 0.010863696 -0.0048607249 0.015304332
v 0.011303675 -0.0052115971 0.015304896
v 0.011547845 -0.0057186223 0.015305209
v 0.011547845 -0.0062813777 0.015305209
v 0.011303675 -0.0067884029 0.015304896
v 0.010863696 -0.0071392751 0.015304332
v 0.01031505 -0.0072645 0.015303629
v 0.0097664045 -0.0071392751 0.015302927
v 0.0093264249 -0.0067884029 0.015302363
v 0.0090822547 -0.0062813777 0.01530205
v 0.0090822547 -0.0057186223 0.01530205
v 0.0093264249 -0.0052115971 0.015302363
v 0.0097664045 -0.0048607249 0.015302927
v 0.0087273381 -0.0087500001 0.015301596
v 0.011902762 -0.0087500001 0.015305663
v 0.013490474 -0.006 0.015307697
v 0.011902762 -0.0032499999 0.015305663
v 0.0087273381 -0.0032499999 0.015301596
v 0.0071396262 -0.006 0.015299562
v 0.010318124 -0.0047355 0.012903631
v 0.0097694787 -0.0048607249 0.012902929
v 0.0093294992 -0.0052115971 0.012902365
v 0.009085329 -0.0057186223 0.012902052
v 0.009085329 -0.0062813777 0.012902052
v 0.0093294992 -0.0067884029 0.012902365
v 0.0097694787 -0.0071392751 0.012902929
v 0.010318124 -0.0072645 0.012903631
v 0.01086677 -0.0071392751 0.012904334
v 0.011306749 -0.0067884029 0.012904898
v 0.01155092 -0.0062813777 0.012905211
v 0.01155092 -0.0057186223 0.012905211
v 0.011306749 -0.0052115971 0.012904898
v 0.01086677 -0.0048607249 0.012904334
v 0.011905836 -0.0087500001 0.012905665
v 0.0087304124 -0.0087500001 0.012901598
v 0.0071427004 -0.006 0.012899564
v 0.0087304124 -0.0032499999 0.012901598
v 0.011905836 -0.0032499999 0.012905665
v 0.013493548 -0.006 0.012907699
v 0.013490474 -0.006 0.015307697
v 0.011902762 -0.0087500001 0.015305663
v 0.011905836 -0.0087500001 0.012905665
v 0.013493548 -0.006 0.012907699
v 0.0087273381 -0.0087500001 0.015301596
v 0.0071396262 -0.006 0.015299562
v 0.0071427004 -0.006 0.012899564
v 0.0087304124 -0.0087500001 0.012901598
f 95 96 98
f 98 96 97
f 99 100 102
f 102 100 101
f 103 104 106
f 106 104 105
f 108 134 107
f 107 134 136
f 135 121 120
f 120 121 122
f 120 122 119
f 119 122 123
f 119 123 118
f 118 123 124
f 118 124 117
f 117 124 125
f 117 125 116
f 116 125 126
f 116 126 115
f 115 126 127
f 115 127 114
f 114 127 128
f 114 128 113
f 113 128 129
f 113 129 112
f 112 129 130
f 112 130 111
f 111 130 131
f 111 131 110
f 110 131 132
f 110 132 109
f 109 132 133
f 109 133 108
f 108 133 134
f 137 138 140
f 140 138 139
f 142 158 141
f 141 158 159
f 141 159 154
f 154 159 153
f 153 159 160
f 153 160 152
f 152 160 151
f 151 160 150
f 150 160 155
f 150 155 149
f 149 155 148
f 148 155 156
f 148 156 147
f 147 156 146
f 146 156 157
f 146 157 145
f 145 157 144
f 144 157 143
f 143 157 158
f 143 158 142
f 162 178 161
f 161 178 179
f 161 179 174
f 174 179 173
f 173 179 180
f 173 180 172
f 172 180 171
f 171 180 170
f 170 180 175
f 170 175 169
f 169 175 168
f 168 175 176
f 168 176 167
f 167 176 166
f 166 176 177
f 166 177 165
f 165 177 164
f 164 177 163
f 163 177 178
f 163 178 162
f 181 182 184
f 184 182 183
f 185 186 188
f 188 186 187
v 0.0060099262 0.0051041073 -0.0020078401
v 0.0060099262 0.0082462737 -0.0024662326
v 0.0040099262 0.0082462737 -0.0024662326
v 0.0040099262 0.0051041073 -0.0020078401
v 0.0038099262 0.0052858612 -0.0041745217
v 0.0038099262 0.0050269556 -0.0047756939
v 0.0038099262 0.0051033228 -0.005425777
v 0.0038099262 0.0054945004 -0.005950582
v 0.0038099262 0.0060956726 -0.0062094876
v 0.0038099262 0.0067457557 -0.0061331204
v 0.0038099262 0.0072705607 -0.0057419429
v 0.0038099262 0.0075294663 -0.0051407706
v 0.0038099262 0.0074530991 -0.0044906875
v 0.0038099262 0.0070619216 -0.0039658825
v 0.0038099262 0.0064607494 -0.0037069769
v 0.0038099262 0.0058106662 -0.0037833441
v 0.0038099262 0.0091918561 -0.0053832871
v 0.0038099262 0.0073669252 -0.0076940504
v 0.0038099262 0.00445328 -0.0072689956
v 0.0038099262 0.0033645658 -0.0045331774
v 0.0038099262 0.0051894967 -0.0022224141
v 0.0038099262 0.0081031419 -0.0026474689
v 0.0060099262 0.0031360445 -0.0044998397
v 0.0060099262 0.0043101482 -0.0074502319
v 0.0062099262 0.00445328 -0.0072689956
v 0.0062099262 0.0033645658 -0.0045331774
v 0.0038099262 0.00445328 -0.0072689956
v 0.0038099262 0.0073669252 -0.0076940504
v 0.0040099262 0.0074523147 -0.0079086244
v 0.0040099262 0.0043101482 -0.0074502319
v 0.0040099262 0.0082462737 -0.0024662326
v 0.0040099262 0.0094203774 -0.0054166248
v 0.0038099262 0.0091918561 -0.0053832871
v 0.0038099262 0.0081031419 -0.0026474689
v 0.0040099262 0.0094203774 -0.0054166248
v 0.0040099262 0.0074523147 -0.0079086244
v 0.0038099262 0.0073669252 -0.0076940504
v 0.0038099262 0.0091918561 -0.0053832871
v 0.0062099262 0.0052858612 -0.0041745217
v 0.0062099262 0.0058106662 -0.0037833441
v 0.0062099262 0.0064607494 -0.0037069769
v 0.0062099262 0.0070619216 -0.0039658825
v 0.0062099262 0.0074530991 -0.0044906875
v 0.0062099262 0.0075294663 -0.0051407706
v 0.0062099262 0.0072705607 -0.0057419429
v 0.0062099262 0.0067457557 -0.0061331204
v 0.0062099262 0.0060956726 -0.0062094876
v 0.0062099262 0.0054945004 -0.005950582
v 0.0062099262 0.0051033228 -0.005425777
v 0.0062099262 0.0050269556 -0.0047756939
v 0.0062099262 0.0081031419 -0.0026474689
v 0.0062099262 0.0051894967 -0.0022224141
v 0.0062099262 0.0033645658 -0.0045331774
v 0.0062099262 0.00445328 -0.0072689956
v 0.0062099262 0.0073669252 -0.0076940504
v 0.0062099262 0.0091918561 -0.0053832871
v 0.0062099262 0.0081031419 -0.0026474689
v 0.0062099262 0.0091918561 -0.0053832871
v 0.0060099262 0.0094203774 -0.0054166248
v 0.0060099262 0.0082462737 -0.0024662326
v 0.0038099262 0.0051894967 -0.0022224141
v 0.0038099262 0.0033645658 -0.0045331774
v 0.0040099262 0.0031360445 -0.0044998397
v 0.0040099262 0.0051041073 -0.0020078401
v 0.0062099262 0.0052858612 -0.0041745217
v 0.0062099262 0.0050269556 -0.0047756939
v 0.0062099262 0.0051033228 -0.005425777
v 0.0062099262 0.0054945004 -0.005950582
v 0.0062099262 0.0060956726 -0.0062094876
v 0.0062099262 0.0067457557 -0.0061331204
v 0.0062099262 0.0072705607 -0.0057419429
v 0.0062099262 0.0075294663 -0.0051407706
v 0.0062099262 0.0074530991 -0.0044906875
v 0.0062099262 0.0070619216 -0.0039658825
v 0.0062099262 0.0064607494 -0.0037069769
v 0.0062099262 0.0058106662 -0.0037833441
v 0.0038099262 0.0052858612 -0.0041745217
v 0.0038099262 0.0058106662 -0.0037833441
v 0.0038099262 0.0064607494 -0.0037069769
v 0.0038099262 0.0070619216 -0.0039658825
v 0.0038099262 0.0074530991 -0.0044906875
v 0.0038099262 0.0075294663 -0.0051407706
v 0.0038099262 0.0072705607 -0.0057419429
v 0.0038099262 0.0067457557 -0.0061331204
v 0.0038099262 0.0060956726 -0.0062094876
v 0.0038099262 0.0054945004 -0.005950582
v 0.0038099262 0.0051033228 -0.005425777
v 0.0038099262 0.0050269556 -0.0047756939
v 0.0062099262 0.0052858612 -0.0041745217
v 0.0038099262 0.0052858612 -0.0041745217
v 0.0062099262 0.0091918561 -0.0053832871
v 0.0062099262 0.0073669252 -0.0076940504
v 0.0060099262 0.0074523147 -0.0079086244
v 0.0060099262 0.0094203774 -0.0054166248
v 0.0038099262 0.0033645658 -0.0045331774
v 0.0038099262 0.00445328 -0.0072689956
v 0.0040099262 0.0043101482 -0.0074502319
v 0.0040099262 0.0031360445 -0.0044998397
v 0.0060099262 0.0031360445 -0.0044998397
v 0.0060099262 0.0051041073 -0.0020078401
v 0.0040099262 0.0051041073 -0.0020078401
v 0.0040099262 0.0031360445 -0.0044998397
v 0.0060099262 0.0074523147 -0.0079086244
v 0.0060099262 0.0043101482 -0.0074502319
v 0.0040099262 0.0043101482 -0.0074502319
v 0.0040099262 0.0074523147 -0.0079086244
v 0.0062099262 0.0073669252 -0.0076940504
v 0.0062099262 0.00445328 -0.0072689956
v 0.0060099262 0.0043101482 -0.0074502319
v 0.0060099262 0.0074523147 -0.0079086244
v 0.0060099262 0.0043101482 -0.0074502319
v 0.0060099262 0.0031360445 -0.0044998397
v 0.0040099262 0.0031360445 -0.0044998397
v 0.0040099262 0.0043101482 -0.0074502319
v 0.0060099262 0.0051041073 -0.0020078401
v 0.0060099262 0.0031360445 -0.0044998397
v 0.0062099262 0.0033645658 -0.0045331774
v 0.0062099262 0.0051894967 -0.0022224141
v 0.0038099262 0.0081031419 -0.0026474689
v 0.0038099262 0.0051894967 -0.0022224141
v 0.0040099262 0.0051041073 -0.0020078401
v 0.0040099262 0.0082462737 -0.0024662326
v 0.0060099262 0.0094203774 -0.0054166248
v 0.0060099262 0.0074523147 -0.0079086244
v 0.0040099262 0.0074523147 -0.0079086244
v 0.0040099262 0.0094203774 -0.0054166248
v 0.0060099262 0.0082462737 -0.0024662326
v 0.0060099262 0.0094203774 -0.0054166248
v 0.0040099262 0.0094203774 -0.0054166248
v 0.0040099262 0.0082462737 -0.0024662326
v 0.0062099262 0.0051894967 -0.0022224141
v 0.0062099262 0.0081031419 -0.0026474689
v 0.0060099262 0.0082462737 -0.0024662326
v 0.0060099262 0.0051041073 -0.0020078401
f 189 190 192
f 192 190 191
f 194 208 193
f 193 208 209
f 193 209 204
f 204 209 203
f 203 209 210
f 203 210 202
f 202 210 201
f 201 210 205
f 201 205 200
f 200 205 199
f 199 205 206
f 199 206 198
f 198 206 197
f 197 206 207
f 197 207 196
f 196 207 195
f 195 207 208
f 195 208 194
f 212 213 211
f 211 213 214
f 216 217 215
f 215 217 218
f 219 220 222
f 222 220 221
f 224 225 223
f 223 225 226
f 228 240 227
f 227 240 241
f 227 241 238
f 238 241 237
f 237 241 242
f 237 242 236
f 236 242 235
f 235 242 243
f 235 243 234
f 234 243 233
f 233 243 244
f 233 244 232
f 232 244 231
f 231 244 239
f 231 239 230
f 230 239 229
f 229 239 240
f 229 240 228
f 246 247 245
f 245 247 248
f 249 250 252
f 252 250 251
f 254 276 253
f 253 276 278
f 277 265 264
f 264 265 266
f 264 266 263
f 263 266 267
f 263 267 262
f 262 267 268
f 262 268 261
f 261 268 269
f 261 269 260
f 260 269 270
f 260 270 259
f 259 270 271
f 259 271 258
f 258 271 272
f 258 272 257
f 257 272 273
f 257 273 256
f 256 273 274
f 256 274 255
f 255 274 275
f 255 275 254
f 254 275 276
f 279 280 282
f 282 280 281
f 283 284 286
f 286 284 285
f 287 288 290
f 290 288 289
f 291 292 294
f 294 292 293
f 295 296 298
f 298 296 297
f 299 300 302
f 302 300 301
f 304 305 303
f 303 305 306
f 308 309 307
f 307 309 310
f 311 312 314
f 314 312 313
f 315 316 318
f 318 316 317
f 319 320 322
f 322 320 321
v 0.0060099262 -0.0020078401 -0.0051041073
v 0.0060099262 -0.0024662326 -0.0082462737
v 0.0040099262 -0.0024662326 -0.0082462737
v 0.0040099262 -0.0020078401 -0.0051041073
v 0.0038099262 -0.0041745217 -0.0052858612
v 0.0038099262 -0.0047756939 -0.0050269556
v 0.0038099262 -0.005425777 -0.0051033228
v 0.0038099262 -0.005950582 -0.0054945004
v 0.0038099262 -0.0062094876 -0.0060956726
v 0.0038099262 -0.0061331204 -0.0067457557
v 0.0038099262 -0.0057419429 -0.0072705607
v 0.0038099262 -0.0051407706 -0.0075294663
v 0.0038099262 -0.0044906875 -0.0074530991
v 0.0038099262 -0.0039658825 -0.0070619216
v 0.0038099262 -0.0037069769 -0.0064607494
v 0.0038099262 -0.0037833441 -0.0058106662
v 0.0038099262 -0.0053832871 -0.0091918561
v 0.0038099262 -0.0076940504 -0.0073669252
v 0.0038099262 -0.0072689956 -0.00445328
v 0.0038099262 -0.0045331774 -0.0033645658
v 0.0038099262 -0.0022224141 -0.0051894967
v 0.0038099262 -0.0026474689 -0.0081031419
v 0.0060099262 -0.0044998397 -0.0031360445
v 0.0060099262 -0.0074502319 -0.0043101482
v 0.0062099262 -0.0072689956 -0.00445328
v 0.0062099262 -0.0045331774 -0.0033645658
v 0.0038099262 -0.0072689956 -0.00445328
v 0.0038099262 -0.0076940504 -0.0073669252
v 0.0040099262 -0.0079086244 -0.0074523147
v 0.0040099262 -0.0074502319 -0.0043101482
v 0.0040099262 -0.0024662326 -0.0082462737
v 0.0040099262 -0.0054166248 -0.0094203774
v 0.0038099262 -0.0053832871 -0.0091918561
v 0.0038099262 -0.0026474689 -0.0081031419
v 0.0040099262 -0.0054166248 -0.0094203774
v 0.0040099262 -0.0079086244 -0.0074523147
v 0.0038099262 -0.0076940504 -0.0073669252
v 0.0038099262 -0.0053832871 -0.0091918561
v 0.0062099262 -0.0041745217 -0.0052858612
v 0.0062099262 -0.0037833441 -0.0058106662
v 0.0062099262 -0.0037069769 -0.0064607494
v 0.0062099262 -0.0039658825 -0.0070619216
v 0.0062099262 -0.0044906875 -0.0074530991
v 0.0062099262 -0.0051407706 -0.0075294663
v 0.0062099262 -0.0057419429 -0.0072705607
v 0.0062099262 -0.0061331204 -0.0067457557
v 0.0062099262 -0.0062094876 -0.0060956726
v 0.0062099262 -0.005950582 -0.0054945004
v 0.0062099262 -0.005425777 -0.0051033228
v 0.0062099262 -0.0047756939 -0.0050269556
v 0.0062099262 -0.0026474689 -0.0081031419
v 0.0062099262 -0.0022224141 -0.0051894967
v 0.0062099262 -0.0045331774 -0.0033645658
v 0.0062099262 -0.0072689956 -0.00445328
v 0.0062099262 -0.0076940504 -0.0073669252
v 0.0062099262 -0.0053832871 -0.0091918561
v 0.0062099262 -0.0026474689 -0.0081031419
v 0.0062099262 -0.0053832871 -0.0091918561
v 0.0060099262 -0.0054166248 -0.0094203774
v 0.0060099262 -0.0024662326 -0.0082462737
v 0.0038099262 -0.0022224141 -0.0051894967
v 0.0038099262 -0.0045331774 -0.0033645658
v 0.0040099262 -0.0044998397 -0.0031360445
v 0.0040099262 -0.0020078401 -0.0051041073
v 0.0062099262 -0.0041745217 -0.0052858612
v 0.0062099262 -0.0047756939 -0.0050269556
v 0.0062099262 -0.005425777 -0.0051033228
v 0.0062099262 -0.005950582 -0.0054945004
v 0.0062099262 -0.0062094876 -0.0060956726
v 0.0062099262 -0.0061331204 -0.0067457557
v 0.0062099262 -0.0057419429 -0.0072705607
v 0.0062099262 -0.0051407706 -0.0075294663
v 0.0062099262 -0.0044906875 -0.0074530991
v 0.0062099262 -0.0039658825 -0.0070619216
v 0.0062099262 -0.0037069769 -0.0064607494
v 0.0062099262 -0.0037833441 -0.0058106662
v 0.0038099262 -0.0041745217 -0.0052858612
v 0.0038099262 -0.0037833441 -0.0058106662
v 0.0038099262 -0.0037069769 -0.0064607494
v 0.0038099262 -0.0039658825 -0.0070619216
v 0.0038099262 -0.0044906875 -0.0074530991
v 0.0038099262 -0.0051407706 -0.0075294663
v 0.0038099262 -0.0057419429 -0.0072705607
v 0.0038099262 -0.0061331204 -0.0067457557
v 0.0038099262 -0.0062094876 -0.0060956726
v 0.0038099262 -0.005950582 -0.0054945004
v 0.0038099262 -0.005425777 -0.0051033228
v 0.0038099262 -0.0047756939 -0.0050269556
v 0.0062099262 -0.0041745217 -0.0052858612
v 0.0038099262 -0.0041745217 -0.0052858612
v 0.0062099262 -0.0053832871 -0.0091918561
v 0.0062099262 -0.0076940504 -0.0073669252
v 0.0060099262 -0.0079086244 -0.0074523147
v 0.0060099262 -0.0054166248 -0.0094203774
v 0.0038099262 -0.0045331774 -0.0033645658
v 0.0038099262 -0.0072689956 -0.00445328
v 0.0040099262 -0.0074502319 -0.0043101482
v 0.0040099262 -0.0044998397 -0.0031360445
v 0.0060099262 -0.0044998397 -0.0031360445
v 0.0060099262 -0.0020078401 -0.0051041073
v 0.0040099262 -0.0020078401 -0.0051041073
v 0.0040099262 -0.0044998397 -0.0031360445
v 0.0060099262 -0.0079086244 -0.0074523147
v 0.0060099262 -0.0074502319 -0.0043101482
v 0.0040099262 -0.0074502319 -0.0043101482
v 0.0040099262 -0.0079086244 -0.0074523147
v 0.0062099262 -0.0076940504 -0.0073669252
v 0.0062099262 -0.0072689956 -0.00445328
v 0.0060099262 -0.0074502319 -0.0043101482
v 0.0060099262 -0.0079086244 -0.0074523147
v 0.0060099262 -0.0074502319 -0.0043101482
v 0.0060099262 -0.0044998397 -0.0031360445
v 0.0040099262 -0.0044998397 -0.0031360445
v 0.0040099262 -0.0074502319 -0.0043101482
v 0.0060099262 -0.0020078401 -0.0051041073
v 0.0060099262 -0.0044998397 -0.0031360445
v 0.0062099262 -0.0045331774 -0.0033645658
v 0.0062099262 -0.0022224141 -0.0051894967
v 0.0038099262 -0.0026474689 -0.0081031419
v 0.0038099262 -0.0022224141 -0.0051894967
v 0.0040099262 -0.0020078401 -0.0051041073
v 0.0040099262 -0.0024662326 -0.0082462737
v 0.0060099262 -0.0054166248 -0.0094203774
v 0.0060099262 -0.0079086244 -0.0074523147
v 0.0040099262 -0.0079086244 -0.0074523147
v 0.0040099262 -0.0054166248 -0.0094203774
v 0.0060099262 -0.0024662326 -0.0082462737
v 0.0060099262 -0.0054166248 -0.0094203774
v 0.0040099262 -0.0054166248 -0.0094203774
v 0.0040099262 -0.0024662326 -0.0082462737
v 0.0062099262 -0.0022224141 -0.0051894967
v 0.0062099262 -0.0026474689 -0.0081031419
v 0.0060099262 -0.0024662326 -0.0082462737
v 0.0060099262 -0.0020078401 -0.0051041073
f 323 324 326
f 326 324 325
f 328 342 327
f 327 342 343
f 327 343 338
f 338 343 337
f 337 343 344
f 337 344 336
f 336 344 335
f 335 344 339
f 335 339 334
f 334 339 333
f 333 339 340
f 333 340 332
f 332 340 331
f 331 340 341
f 331 341 330
f 330 341 329
f 329 341 342
f 329 342 328
f 346 347 345
f 345 347 348
f 350 351 349
f 349 351 352
f 353 354 356
f 356 354 355
f 358 359 357
f 357 359 360
f 362 374 361
f 361 374 375
f 361 375 372
f 372 375 371
f 371 375 376
f 371 376 370
f 370 376 369
f 369 376 377
f 369 377 368
f 368 377 367
f 367 377 378
f 367 378 366
f 366 378 365
f 365 378 373
f 365 373 364
f 364 373 363
f 363 373 374
f 363 374 362
f 380 381 379
f 379 381 382
f 383 384 386
f 386 384 385
f 388 410 387
f 387 410 412
f 411 399 398
f 398 399 400
f 398 400 397
f 397 400 401
f 397 401 396
f 396 401 402
f 396 402 395
f 395 402 403
f 395 403 394
f 394 403 404
f 394 404 393
f 393 404 405
f 393 405 392
f 392 405 406
f 392 406 391
f 391 406 407
f 391 407 390
f 390 407 408
f 390 408 389
f 389 408 409
f 389 409 388
f 388 409 410
f 413 414 416
f 416 414 415
f 417 418 420
f 420 418 419
f 421 422 424
f 424 422 423
f 425 426 428
f 428 426 427
f 429 430 432
f 432 430 431
f 433 434 436
f 436 434 435
f 438 439 437
f 437 439 440
f 442 443 441
f 441 443 444
f 445 446 448
f 448 446 447
f 449 450 452
f 452 450 451
f 453 454 456
f 456 454 455
v 0.0060099262 -0.0051041073 0.0020078401
v 0.0060099262 -0.0082462737 0.0024662326
v 0.0040099262 -0.0082462737 0.0024662326
v 0.0040099262 -0.0051041073 0.0020078401
v 0.0038099262 -0.0052858612 0.0041745217
v 0.0038099262 -0.0050269556 0.0047756939
v 0.0038099262 -0.0051033228 0.005425777
v 0.0038099262 -0.0054945004 0.005950582
v 0.0038099262 -0.0060956726 0.0062094876
v 0.0038099262 -0.0067457557 0.0061331204
v 0.0038099262 -0.0072705607 0.0057419429
v 0.0038099262 -0.0075294663 0.0051407706
v 0.0038099262 -0.0074530991 0.0044906875
v 0.0038099262 -0.0070619216 0.0039658825
v 0.0038099262 -0.0064607494 0.0037069769
v 0.0038099262 -0.0058106662 0.0037833441
v 0.0038099262 -0.0091918561 0.0053832871
v 0.0038099262 -0.0073669252 0.0076940504
v 0.0038099262 -0.00445328 0.0072689956
v 0.0038099262 -0.0033645658 0.0045331774
v 0.0038099262 -0.0051894967 0.0022224141
v 0.0038099262 -0.0081031419 0.0026474689
v 0.0060099262 -0.0031360445 0.0044998397
v 0.0060099262 -0.0043101482 0.0074502319
v 0.0062099262 -0.00445328 0.0072689956
v 0.0062099262 -0.0033645658 0.0045331774
v 0.0038099262 -0.00445328 0.0072689956
v 0.0038099262 -0.0073669252 0.0076940504
v 0.0040099262 -0.0074523147 0.0079086244
v 0.0040099262 -0.0043101482 0.0074502319
v 0.0040099262 -0.0082462737 0.0024662326
v 0.0040099262 -0.0094203774 0.0054166248
v 0.0038099262 -0.0091918561 0.0053832871
v 0.0038099262 -0.0081031419 0.0026474689
v 0.0040099262 -0.0094203774 0.0054166248
v 0.0040099262 -0.0074523147 0.0079086244
v 0.0038099262 -0.0073669252 0.0076940504
v 0.0038099262 -0.0091918561 0.0053832871
v 0.0062099262 -0.0052858612 0.0041745217
v 0.0062099262 -0.0058106662 0.0037833441
v 0.0062099262 -0.0064607494 0.0037069769
v 0.0062099262 -0.0070619216 0.0039658825
v 0.0062099262 -0.0074530991 0.0044906875
v 0.0062099262 -0.0075294663 0.0051407706
v 0.0062099262 -0.0072705607 0.0057419429
v 0.0062099262 -0.0067457557 0.0061331204
v 0.0062099262 -0.0060956726 0.0062094876
v 0.0062099262 -0.0054945004 0.005950582
v 0.0062099262 -0.0051033228 0.005425777
v 0.0062099262 -0.0050269556 0.0047756939
v 0.0062099262 -0.0081031419 0.0026474689
v 0.0062099262 -0.0051894967 0.0022224141
v 0.0062099262 -0.0033645658 0.0045331774
v 0.0062099262 -0.00445328 0.0072689956
v 0.0062099262 -0.0073669252 0.0076940504
v 0.0062099262 -0.0091918561 0.0053832871
v 0.0062099262 -0.0081031419 0.0026474689
v 0.0062099262 -0.0091918561 0.0053832871
v 0.0060099262 -0.0094203774 0.0054166248
v 0.0060099262 -0.0082462737 0.0024662326
v 0.0038099262 -0.0051894967 0.0022224141
v 0.0038099262 -0.0033645658 0.0045331774
v 0.0040099262 -0.0031360445 0.0044998397
v 0.0040099262 -0.0051041073 0.0020078401
v 0.0062099262 -0.0052858612 0.0041745217
v 0.0062099262 -0.0050269556 0.0047756939
v 0.0062099262 -0.0051033228 0.005425777
v 0.0062099262 -0.0054945004 0.005950582
v 0.0062099262 -0.0060956726 0.0062094876
v 0.0062099262 -0.0067457557 0.0061331204
v 0.0062099262 -0.0072705607 0.0057419429
v 0.0062099262 -0.0075294663 0.0051407706
v 0.0062099262 -0.0074530991 0.0044906875
v 0.0062099262 -0.0070619216 0.0039658825
v 0.0062099262 -0.0064607494 0.0037069769
v 0.0062099262 -0.0058106662 0.0037833441
v 0.0038099262 -0.0052858612 0.0041745217
v 0.0038099262 -0.0058106662 0.0037833441
v 0.0038099262 -0.0064607494 0.0037069769
v 0.0038099262 -0.0070619216 0.0039658825
v 0.0038099262 -0.0074530991 0.0044906875
v 0.0038099262 -0.0075294663 0.0051407706
v 0.0038099262 -0.0072705607 0.0057419429
v 0.0038099262 -0.0067457557 0.0061331204
v 0.0038099262 -0.0060956726 0.0062094876
v 0.0038099262 -0.0054945004 0.005950582
v 0.0038099262 -0.0051033228 0.005425777
v 0.0038099262 -0.0050269556 0.0047756939
v 0.0062099262 -0.0052858612 0.0041745217
v 0.0038099262 -0.0052858612 0.0041745217
v 0.0062099262 -0.0091918561 0.0053832871
v 0.0062099262 -0.0073669252 0.0076940504
v 0.0060099262 -0.0074523147 0.0079086244
v 0.0060099262 -0.0094203774 0.0054166248
v 0.0038099262 -0.0033645658 0.0045331774
v 0.0038099262 -0.00445328 0.0072689956
v 0.0040099262 -0.0043101482 0.0074502319
v 0.0040099262 -0.0031360445 0.0044998397
v 0.0060099262 -0.0031360445 0.0044998397
v 0.0060099262 -0.0051041073 0.0020078401
v 0.0040099262 -0.0051041073 0.0020078401
v 0.0040099262 -0.0031360445 0.0044998397
v 0.0060099262 -0.0074523147 0.0079086244
v 0.0060099262 -0.0043101482 0.0074502319
v 0.0040099262 -0.0043101482 0.0074502319
v 0.0040099262 -0.0074523147 0.0079086244
v 0.0062099262 -0.0073669252 0.0076940504
v 0.0062099262 -0.00445328 0.0072689956
v 0.0060099262 -0.0043101482 0.0074502319
v 0.0060099262 -0.0074523147 0.0079086244
v 0.0060099262 -0.0043101482 0.0074502319
v 0.0060099262 -0.0031360445 0.0044998397
v 0.0040099262 -0.0031360445 0.0044998397
v 0.0040099262 -0.0043101482 0.0074502319
v 0.0060099262 -0.0051041073 0.0020078401
v 0.0060099262 -0.0031360445 0.0044998397
v 0.0062099262 -0.0033645658 0.0045331774
v 0.0062099262 -0.0051894967 0.0022224141
v 0.0038099262 -0.0081031419 0.0026474689
v 0.0038099262 -0.0051894967 0.0022224141
v 0.0040099262 -0.0051041073 0.0020078401
v 0.0040099262 -0.0082462737 0.0024662326
v 0.0060099262 -0.0094203774 0.0054166248
v 0.0060099262 -0.0074523147 0.0079086244
v 0.0040099262 -0.0074523147 0.0079086244
v 0.0040099262 -0.0094203774 0.0054166248
v 0.0060099262 -0.0082462737 0.0024662326
v 0.0060099262 -0.0094203774 0.0054166248
v 0.0040099262 -0.0094203774 0.0054166248
v 0.0040099262 -0.0082462737 0.0024662326
v 0.0062099262 -0.0051894967 0.0022224141
v 0.0062099262 -0.0081031419 0.0026474689
v 0.0060099262 -0.0082462737 0.0024662326
v 0.0060099262 -0.0051041073 0.0020078401
f 457 458 460
f 460 458 459
f 462 476 461
f 461 476 477
f 461 477 472
f 472 477 471
f 471 477 478
f 471 478 470
f 470 478 469
f 469 478 473
f 469 473 468
f 468 473 467
f 467 473 474
f 467 474 466
f 466 474 465
f 465 474 475
f 465 475 464
f 464 475 463
f 463 475 476
f 463 476 462
f 480 481 479
f 479 481 482
f 484 485 483
f 483 485 486
f 487 488 490
f 490 488 489
f 492 493 491
f 491 493 494
f 496 508 495
f 495 508 509
f 495 509 506
f 506 509 505
f 505 509 510
f 505 510 504
f 504 510 503
f 503 510 511
f 503 511 502
f 502 511 501
f 501 511 512
f 501 512 500
f 500 512 499
f 499 512 507
f 499 507 498
f 498 507 497
f 497 507 508
f 497 508 496
f 514 515 513
f 513 515 516
f 517 518 520
f 520 518 519
f 522 544 521
f 521 544 546
f 545 533 532
f 532 533 534
f 532 534 531
f 531 534 535
f 531 535 530
f 530 535 536
f 530 536 529
f 529 536 537
f 529 537 528
f 528 537 538
f 528 538 527
f 527 538 539
f 527 539 526
f 526 539 540
f 526 540 525
f 525 540 541
f 525 541 524
f 524 541 542
f 524 542 523
f 523 542 543
f 523 543 522
f 522 543 544
f 547 548 550
f 550 548 549
f 551 552 554
f 554 552 553
f 555 556 558
f 558 556 557
f 559 560 562
f 562 560 561
f 563 564 566
f 566 564 565
f 567 568 570
f 570 568 569
f 572 573 571
f 571 573 574
f 576 577 575
f 575 577 578
f 579 580 582
f 582 580 581
f 583 584 586
f 586 584 585
f 587 588 590
f 590 588 589
v 0.0060099262 0.0020078401 0.0051041073
v 0.0060099262 0.0024662326 0.0082462737
v 0.0040099262 0.0024662326 0.0082462737
v 0.0040099262 0.0020078401 0.0051041073
v 0.0038099262 0.0041745217 0.0052858612
v 0.0038099262 0.0047756939 0.0050269556
v 0.0038099262 0.005425777 0.0051033228
v 0.0038099262 0.005950582 0.0054945004
v 0.0038099262 0.0062094876 0.0060956726
v 0.0038099262 0.0061331204 0.0067457557
v 0.0038099262 0.0057419429 0.0072705607
v 0.0038099262 0.0051407706 0.0075294663
v 0.0038099262 0.0044906875 0.0074530991
v 0.0038099262 0.0039658825 0.0070619216
v 0.0038099262 0.0037069769 0.0064607494
v 0.0038099262 0.0037833441 0.0058106662
v 0.0038099262 0.0053832871 0.0091918561
v 0.0038099262 0.0076940504 0.0073669252
v 0.0038099262 0.0072689956 0.00445328
v 0.0038099262 0.0045331774 0.0033645658
v 0.0038099262 0.0022224141 0.0051894967
v 0.0038099262 0.0026474689 0.0081031419
v 0.0060099262 0.0044998397 0.0031360445
v 0.0060099262 0.0074502319 0.0043101482
v 0.0062099262 0.0072689956 0.00445328
v 0.0062099262 0.0045331774 0.0033645658
v 0.0038099262 0.0072689956 0.00445328
v 0.0038099262 0.0076940504 0.0073669252
v 0.0040099262 0.0079086244 0.0074523147
v 0.0040099262 0.0074502319 0.0043101482
v 0.0040099262 0.0024662326 0.0082462737
v 0.0040099262 0.0054166248 0.0094203774
v 0.0038099262 0.0053832871 0.0091918561
v 0.0038099262 0.0026474689 0.0081031419
v 0.0040099262 0.0054166248 0.0094203774
v 0.0040099262 0.0079086244 0.0074523147
v 0.0038099262 0.0076940504 0.0073669252
v 0.0038099262 0.0053832871 0.0091918561
v 0.0062099262 0.0041745217 0.0052858612
v 0.0062099262 0.0037833441 0.0058106662
v 0.0062099262 0.0037069769 0.0064607494
v 0.0062099262 0.0039658825 0.0070619216
v 0.0062099262 0.0044906875 0.0074530991
v 0.0062099262 0.0051407706 0.0075294663
v 0.0062099262 0.0057419429 0.0072705607
v 0.0062099262 0.0061331204 0.0067457557
v 0.0062099262 0.0062094876 0.0060956726
v 0.0062099262 0.005950582 0.0054945004
v 0.0062099262 0.005425777 0.0051033228
v 0.0062099262 0.0047756939 0.0050269556
v 0.0062099262 0.0026474689 0.0081031419
v 0.0062099262 0.0022224141 0.0051894967
v 0.0062099262 0.0045331774 0.0033645658
v 0.0062099262 0.0072689956 0.00445328
v 0.0062099262 0.0076940504 0.0073669252
v 0.0062099262 0.0053832871 0.0091918561
v 0.0062099262 0.0026474689 0.0081031419
v 0.0062099262 0.0053832871 0.0091918561
v 0.0060099262 0.0054166248 0.0094203774
v 0.0060099262 0.0024662326 0.0082462737
v 0.0038099262 0.0022224141 0.0051894967
v 0.0038099262 0.0045331774 0.0033645658
v 0.0040099262 0.0044998397 0.0031360445
v 0.0040099262 0.0020078401 0.0051041073
v 0.0062099262 0.0041745217 0.0052858612
v 0.0062099262 0.0047756939 0.0050269556
v 0.0062099262 0.005425777 0.0051033228
v 0.0062099262 0.005950582 0.0054945004
v 0.0062099262 0.0062094876 0.0060956726
v 0.0062099262 0.0061331204 0.0067457557
v 0.0062099262 0.0057419429 0.0072705607
v 0.0062099262 0.0051407706 0.0075294663
v 0.0062099262 0.0044906875 0.0074530991
v 0.0062099262 0.0039658825 0.0070619216
v 0.0062099262 0.0037069769 0.0064607494
v 0.0062099262 0.0037833441 0.0058106662
v 0.0038099262 0.0041745217 0.0052858612
v 0.0038099262 0.0037833441 0.0058106662
v 0.0038099262 0.0037069769 0.0064607494
v 0.0038099262 0.0039658825 0.0070619216
v 0.0038099262 0.0044906875 0.0074530991
v 0.0038099262 0.0051407706 0.0075294663
v 0.0038099262 0.0057419429 0.0072705607
v 0.0038099262 0.0061331204 0.0067457557
v 0.0038099262 0.0062094876 0.0060956726
v 0.0038099262 0.005950582 0.0054945004
v 0.0038099262 0.005425777 0.0051033228
v 0.0038099262 0.0047756939 0.0050269556
v 0.0062099262 0.0041745217 0.0052858612
v 0.0038099262 0.0041745217 0.0052858612
v 0.0062099262 0.0053832871 0.0091918561
v 0.0062099262 0.0076940504 0.0073669252
v 0.0060099262 0.0079086244 0.0074523147
v 0.0060099262 0.0054166248 0.0094203774
v 0.0038099262 0.0045331774 0.0033645658
v 0.0038099262 0.0072689956 0.00445328
v 0.0040099262 0.0074502319 0.0043101482
v 0.0040099262 0.0044998397 0.0031360445
v 0.0060099262 0.0044998397 0.0031360445
v 0.0060099262 0.0020078401 0.0051041073
v 0.0040099262 0.0020078401 0.0051041073
v 0.0040099262 0.0044998397 0.0031360445
v 0.0060099262 0.0079086244 0.0074523147
v 0.0060099262 0.0074502319 0.0043101482
v 0.0040099262 0.0074502319 0.0043101482
v 0.0040099262 0.0079086244 0.0074523147
v 0.0062099262 0.0076940504 0.0073669252
v 0.0062099262 0.0072689956 0.00445328
v 0.0060099262 0.0074502319 0.0043101482
v 0.0060099262 0.0079086244 0.0074523147
v 0.0060099262 0.0074502319 0.0043101482
v 0.0060099262 0.0044998397 0.0031360445
v 0.0040099262 0.0044998397 0.0031360445
v 0.0040099262 0.0074502319 0.0043101482
v 0.0060099262 0.0020078401 0.0051041073
v 0.0060099262 0.0044998397 0.0031360445
v 0.0062099262 0.0045331774 0.0033645658
v 0.0062099262 0.0022224141 0.0051894967
v 0.0038099262 0.0026474689 0.0081031419
v 0.0038099262 0.0022224141 0.0051894967
v 0.0040099262 0.0020078401 0.0051041073
v 0.0040099262 0.0024662326 0.0082462737
v 0.0060099262 0.0054166248 0.0094203774
v 0.0060099262 0.0079086244 0.0074523147
v 0.0040099262 0.0079086244 0.0074523147
v 0.0040099262 0.0054166248 0.0094203774
v 0.0060099262 0.0024662326 0.0082462737
v 0.0060099262 0.0054166248 0.0094203774
v 0.0040099262 0.0054166248 0.0094203774
v 0.0040099262 0.0024662326 0.0082462737
v 0.0062099262 0.0022224141 0.0051894967
v 0.0062099262 0.0026474689 0.0081031419
v 0.0060099262 0.0024662326 0.0082462737
v 0.0060099262 0.0020078401 0.0051041073
f 591 592 594
f 594 592 593
f 596 610 595
f 595 610 611
f 595 611 606
f 606 611 605
f 605 611 612
f 605 612 604
f 604 612 603
f 603 612 607
f 603 607 602
f 602 607 601
f 601 607 608
f 601 608 600
f 600 608 599
f 599 608 609
f 599 609 598
f 598 609 597
f 597 609 610
f 597 610 596
f 614 615 613
f 613 615 616
f 618 619 617
f 617 619 620
f 621 622 624
f 624 622 623
f 626 627 625
f 625 627 628
f 630 642 629
f 629 642 643
f 629 643 640
f 640 643 639
f 639 643 644
f 639 644 638
f 638 644 637
f 637 644 645
f 637 645 636
f 636 645 635
f 635 645 646
f 635 646 634
f 634 646 633
f 633 646 641
f 633 641 632
f 632 641 631
f 631 641 642
f 631 642 630
f 648 649 647
f 647 649 650
f 651 652 654
f 654 652 653
f 656 678 655
f 655 678 680
f 679 667 666
f 666 667 668
f 666 668 665
f 665 668 669
f 665 669 664
f 664 669 670
f 664 670 663
f 663 670 671
f 663 671 662
f 662 671 672
f 662 672 661
f 661 672 673
f 661 673 660
f 660 673 674
f 660 674 659
f 659 674 675
f 659 675 658
f 658 675 676
f 658 676 657
f 657 676 677
f 657 677 656
f 656 677 678
f 681 682 684
f 684 682 683
f 685 686 688
f 688 686 687
f 689 690 692
f 692 690 691
f 693 694 696
f 696 694 695
f 697 698 700
f 700 698 699
f 701 702 704
f 704 702 703
f 706 707 705
f 705 707 708
f 710 711 709
f 709 711 712
f 713 714 716
f 716 714 715
f 717 718 720
f 720 718 719
f 721 722 724
f 724 722 723
