v 0.18864114 1.3057143e-07 0.043099576
v 0.18864114 -0.0011754399 0.04271761
v 0.18864114 -0.0019019824 0.04171761
v 0.18864114 -0.0019019824 0.040481542
v 0.18864114 -0.0011754399 0.039481542
v 0.18864114 1.3057143e-07 0.039099576
v 0.18864114 0.0011757011 0.039481542
v 0.18864114 0.0019022435 0.040481542
v 0.18864114 0.0019022435 0.04171761
v 0.18864114 0.0011757011 0.04271761
v 0.18864114 1.3057143e-07 0.043099576
v 0.18867287 0.00086603504 0.043099576
v 0.18880297 0.0012673837 0.043099576
v 0.18914114 0.0015001306 0.043099576
v 0.18914114 0.0023289873 0.042008656
v 0.18914114 0.0024584008 0.040644705
v 0.18914114 0.001849503 0.039417369
v 0.18914114 0.00068516899 0.038695263
v 0.18914114 -0.00068490785 0.038695263
v 0.18914114 -0.0018492418 0.039417369
v 0.18914114 -0.0024581396 0.040644705
v 0.18914114 -0.0023287262 0.042008656
v 0.18914114 -0.0014998695 0.043099576
v 0.18880297 -0.0012671226 0.043099576
v 0.18867287 -0.00086577389 0.043099576
v 0.18864114 1.3057143e-07 0.039099576
v 0.18878758 1.3057143e-07 0.038746023
v 0.18878758 -0.0017785664 0.042640826
v 0.18878758 -0.0023294671 0.041434522
v 0.18878758 -0.0021407368 0.040121875
v 0.18878758 -0.0012722964 0.039119641
v 0.18878758 0.0012725576 0.039119641
v 0.18878758 0.002140998 0.040121875
v 0.18878758 0.0023297282 0.041434522
v 0.18878758 0.0017788275 0.042640826
v 0.18878758 1.3057143e-07 0.038746023
v 0.18914114 0.00068516899 0.038695263
v 0.21364114 1.3057143e-07 0.038599576
v 0.21364114 0.0012501306 0.038934513
v 0.21364114 0.002165194 0.039849576
v 0.21364114 0.0025001306 0.041099576
v 0.21364114 0.002165194 0.042349576
v 0.21364114 0.0012501306 0.04326464
v 0.21364114 1.3057143e-07 0.043599576
v 0.21364114 -0.0012498694 0.04326464
v 0.21364114 -0.0021649329 0.042349576
v 0.21364114 -0.0024998694 0.041099576
v 0.21364114 -0.0021649329 0.039849576
v 0.21364114 -0.0012498694 0.038934513
v 0.20824114 -0.0014998695 0.043099576
v 0.20864114 -0.00069986943 0.043499576
v 0.20864114 0.00070013057 0.043499576
v 0.20824114 0.0015001306 0.043099576
v 0.20824114 -0.0014998695 0.043099576
v 0.20824114 0.0015001306 0.043099576
v 0.18914114 0.0015001306 0.043099576
v 0.18880297 0.0012673837 0.043099576
v 0.18867287 0.00086603504 0.043099576
v 0.18864114 1.3057143e-07 0.043099576
v 0.18867287 -0.00086577389 0.043099576
v 0.18880297 -0.0012671226 0.043099576
v 0.18914114 -0.0014998695 0.043099576
v 0.18864114 1.3057143e-07 0.043099576
v 0.18864114 0.0011757011 0.04271761
v 0.18864114 0.0019022435 0.04171761
v 0.18864114 0.0019022435 0.040481542
v 0.18864114 0.0011757011 0.039481542
v 0.18864114 1.3057143e-07 0.039099576
v 0.18864114 -0.0011754399 0.039481542
v 0.18864114 -0.0019019824 0.040481542
v 0.18864114 -0.0019019824 0.04171761
v 0.18864114 -0.0011754399 0.04271761
v 0.20864114 0.00070013057 0.043499576
v 0.20864114 -0.00069986943 0.043499576
v 0.20864114 -0.00023601195 0.043588399
v 0.20864114 0.00023627309 0.043588399
v 0.21364114 1.3057143e-07 0.038599576
v 0.21364114 -0.0012498694 0.038934513
v 0.21364114 -0.0021649329 0.039849576
v 0.21364114 -0.0024998694 0.041099576
v 0.21364114 -0.0021649329 0.042349576
v 0.21364114 -0.0012498694 0.04326464
v 0.21364114 1.3057143e-07 0.043599576
v 0.21364114 0.0012501306 0.04326464
v 0.21364114 0.002165194 0.042349576
v 0.21364114 0.0025001306 0.041099576
v 0.21364114 0.002165194 0.039849576
v 0.21364114 0.0012501306 0.038934513
v 0.18914114 -0.0014998695 0.043099576
v 0.18914114 -0.0023287262 0.042008656
v 0.18914114 -0.0024581396 0.040644705
v 0.18914114 -0.0018492418 0.039417369
v 0.18914114 -0.00068490785 0.038695263
v 0.18914114 0.00068516899 0.038695263
v 0.18914114 0.001849503 0.039417369
v 0.18914114 0.0024584008 0.040644705
v 0.18914114 0.0023289873 0.042008656
v 0.18914114 0.0015001306 0.043099576
v 0.20824114 0.0015001306 0.043099576
v 0.20864114 0.00070013057 0.043499576
v 0.20864114 0.00023627309 0.043588399
v 0.20864114 -0.00023601195 0.043588399
v 0.20864114 -0.00069986943 0.043499576
v 0.20824114 -0.0014998695 0.043099576
v 0.18914114 -0.00068490785 0.038695263
v 0.21364114 1.3057143e-07 0.038599576
f 1 2 25
f 25 2 28
f 25 28 24
f 24 28 23
f 23 28 22
f 22 28 29
f 22 29 21
f 21 29 30
f 21 30 20
f 20 30 31
f 20 31 19
f 19 31 36
f 19 36 18
f 37 27 32
f 37 32 17
f 17 32 33
f 17 33 16
f 16 33 34
f 16 34 15
f 15 34 35
f 15 35 14
f 14 35 13
f 13 35 10
f 13 10 12
f 12 10 11
f 2 3 28
f 28 3 29
f 3 4 29
f 29 4 30
f 4 5 30
f 30 5 31
f 5 26 31
f 31 26 36
f 27 6 32
f 32 6 7
f 32 7 33
f 33 7 8
f 33 8 34
f 34 8 9
f 34 9 35
f 35 9 10
f 39 43 38
f 38 43 44
f 38 44 49
f 49 44 45
f 49 45 48
f 48 45 46
f 48 46 47
f 43 39 42
f 42 39 40
f 42 40 41
f 51 52 50
f 50 52 53
f 55 59 54
f 54 59 60
f 54 60 61
f 56 57 55
f 55 57 58
f 55 58 59
f 61 62 54
f 64 67 63
f 63 67 68
f 63 68 72
f 72 68 69
f 72 69 71
f 71 69 70
f 65 66 64
f 64 66 67
f 74 75 73
f 73 75 76
f 78 105 77
f 106 93 94
f 106 94 88
f 88 94 95
f 88 95 87
f 87 95 96
f 87 96 86
f 86 96 97
f 86 97 85
f 85 97 98
f 85 98 99
f 105 78 92
f 92 78 79
f 92 79 91
f 91 79 80
f 91 80 90
f 90 80 81
f 90 81 104
f 104 81 82
f 104 82 103
f 103 82 83
f 103 83 102
f 102 83 101
f 101 83 100
f 100 83 84
f 100 84 99
f 99 84 85
f 89 90 104
v 0.24102113 -0.0043245157 0.062299576
v 0.2413932 -0.0043245157 0.062299576
v 0.2413932 -0.004440971 0.062299576
v 0.24031947 -0.004440971 0.062299576
v 0.24031947 -0.0043245157 0.062299576
v 0.24085194 -0.0043245157 0.062299576
v 0.24031947 -0.0038870653 0.062299576
v 0.24031947 -0.003729057 0.062299576
v 0.24075499 -0.0040986552 0.062299576
v 0.2413932 -0.0037129435 0.062299576
v 0.2413932 -0.0038667521 0.062299576
v 0.24085024 -0.0041795078 0.062299576
v 0.24031947 -0.003729057 0.062299576
v 0.24031947 -0.0038870653 0.062299576
v 0.24031947 -0.0038870653 0.062309576
v 0.24031947 -0.003729057 0.062309576
v 0.24031947 -0.0038870653 0.062299576
v 0.24085194 -0.0043245157 0.062299576
v 0.24085194 -0.0043245157 0.062309576
v 0.24031947 -0.0038870653 0.062309576
v 0.24085194 -0.0043245157 0.062299576
v 0.24031947 -0.0043245157 0.062299576
v 0.24031947 -0.0043245157 0.062309576
v 0.24085194 -0.0043245157 0.062309576
v 0.24031947 -0.0043245157 0.062299576
v 0.24031947 -0.004440971 0.062299576
v 0.24031947 -0.004440971 0.062309576
v 0.24031947 -0.0043245157 0.062309576
v 0.24031947 -0.004440971 0.062299576
v 0.2413932 -0.004440971 0.062299576
v 0.2413932 -0.004440971 0.062309576
v 0.24031947 -0.004440971 0.062309576
v 0.2413932 -0.004440971 0.062299576
v 0.2413932 -0.0043245157 0.062299576
v 0.2413932 -0.0043245157 0.062309576
v 0.2413932 -0.004440971 0.062309576
v 0.24102113 -0.0043245157 0.062299576
v 0.24085024 -0.0041795078 0.062299576
v 0.24085024 -0.0041795078 0.062309576
v 0.24102113 -0.0043245157 0.062309576
v 0.2413932 -0.0038667521 0.062299576
v 0.2413932 -0.0037129435 0.062299576
v 0.2413932 -0.0037129435 0.062309576
v 0.2413932 -0.0038667521 0.062309576
v 0.2413932 -0.0043245157 0.062309576
v 0.24102113 -0.0043245157 0.062309576
v 0.24085024 -0.0041795078 0.062309576
v 0.2413932 -0.0038667521 0.062309576
v 0.2413932 -0.0037129435 0.062309576
v 0.24075499 -0.0040986552 0.062309576
v 0.24031947 -0.003729057 0.062309576
v 0.24031947 -0.0038870653 0.062309576
v 0.24085194 -0.0043245157 0.062309576
v 0.24031947 -0.0043245157 0.062309576
v 0.24031947 -0.004440971 0.062309576
v 0.2413932 -0.004440971 0.062309576
v 0.2413932 -0.0037129435 0.062299576
v 0.24075499 -0.0040986552 0.062299576
v 0.24075499 -0.0040986552 0.062309576
v 0.2413932 -0.0037129435 0.062309576
v 0.2413932 -0.0043245157 0.062299576
v 0.24102113 -0.0043245157 0.062299576
v 0.24102113 -0.0043245157 0.062309576
v 0.2413932 -0.0043245157 0.062309576
v 0.24075499 -0.0040986552 0.062299576
v 0.24031947 -0.003729057 0.062299576
v 0.24031947 -0.003729057 0.062309576
v 0.24075499 -0.0040986552 0.062309576
v 0.24085024 -0.0041795078 0.062299576
v 0.2413932 -0.0038667521 0.062299576
v 0.2413932 -0.0038667521 0.062309576
v 0.24085024 -0.0041795078 0.062309576
f 108 109 107
f 107 109 112
f 107 112 118
f 118 112 115
f 118 115 117
f 117 115 116
f 109 110 112
f 112 110 111
f 112 113 115
f 115 113 114
f 119 120 122
f 122 120 121
f 123 124 126
f 126 124 125
f 127 128 130
f 130 128 129
f 131 132 134
f 134 132 133
f 135 136 138
f 138 136 137
f 139 140 142
f 142 140 141
f 143 144 146
f 146 144 145
f 147 148 150
f 150 148 149
f 151 152 162
f 162 152 159
f 162 159 161
f 161 159 160
f 152 153 159
f 159 153 156
f 159 156 158
f 158 156 157
f 153 154 156
f 156 154 155
f 163 164 166
f 166 164 165
f 167 168 170
f 170 168 169
f 171 172 174
f 174 172 173
f 175 176 178
f 178 176 177
