v 0.0014749999 -0.034000004 0.0030000183
v 0.0014749999 -0.034000004 -1.2207031e-08
v 0.0014749999 0.033999998 -1.2207031e-08
v 0.0014749999 0.033999998 0.0030000183
v 0.0014749999 0.033999998 0.0030000183
v 0.0014749999 0.033999998 -1.2207031e-08
v -0.0015249996 0.033999998 -1.2207031e-08
v -0.0015249996 0.033999998 0.0030000183
v -0.0015249996 0.033999998 0.0030000183
v -0.0015249996 0.033999998 -1.2207031e-08
v -0.0015249996 -0.034000004 -1.2207031e-08
v -0.0015249996 -0.034000004 0.0030000183
v -0.0015249996 -0.034000004 0.0030000183
v -0.0015249996 -0.034000004 -1.2207031e-08
v 0.0014749999 -0.034000004 -1.2207031e-08
v 0.0014749999 -0.034000004 0.0030000183
v 0.0014749999 0.033999998 -1.2207031e-08
v 0.0014749999 -0.034000004 -1.2207031e-08
v -0.0015249996 -0.034000004 -1.2207031e-08
v -0.0015249996 0.033999998 -1.2207031e-08
v 0.0014749999 -0.034000004 0.0030000183
v 0.0014749999 0.033999998 0.0030000183
v -0.0015249996 0.033999998 0.0030000183
v -0.0015249996 -0.034000004 0.0030000183
f 1 2 4
f 4 2 3
f 5 6 8
f 8 6 7
f 9 10 12
f 12 10 11
f 13 14 16
f 16 14 15
f 18 19 17
f 17 19 20
f 22 23 21
f 21 23 24
