v -0.0035565145 0.01968124 0
v 0.0026993917 0.019817014 0
v 0.0086910704 0.01801293 0
v 0.013831993 0.014445633 0
v 0.017618947 0.0094642875 0
v 0.01968124 0.0035565145 0
v 0.019816995 -0.0026993951 0
v 0.01801293 -0.0086910704 0
v 0.014445633 -0.013831993 0
v 0.0094642908 -0.017618965 0
v 0.0035565145 -0.01968124 0
v -0.0026993917 -0.019817014 0
v -0.0086910704 -0.01801293 0
v -0.013831993 -0.014445633 0
v -0.017618947 -0.0094642875 0
v -0.01968124 -0.0035565145 0
v -0.019816995 0.0026993951 0
v -0.01801293 0.0086910704 0
v -0.014445633 0.013831993 0
v -0.0094642908 0.017618965 0
v -0.0035565145 0.01968124 0.01
v -0.0094642908 0.017618965 0.01
v -0.014445633 0.013831993 0.01
v -0.01801293 0.0086910704 0.01
v -0.019816995 0.0026993951 0.01
v -0.01968124 -0.0035565145 0.01
v -0.017618947 -0.0094642875 0.01
v -0.013831993 -0.014445633 0.01
v -0.0086910704 -0.01801293 0.01
v -0.0026993917 -0.019817014 0.01
v 0.0035565145 -0.01968124 0.01
v 0.0094642908 -0.017618965 0.01
v 0.014445633 -0.013831993 0.01
v 0.01801293 -0.0086910704 0.01
v 0.019816995 -0.0026993951 0.01
v 0.01968124 0.0035565145 0.01
v 0.017618947 0.0094642875 0.01
v 0.013831993 0.014445633 0.01
v 0.0086910704 0.01801293 0.01
v 0.0026993917 0.019817014 0.01
v -0.0035565145 0.01968124 0.01
v 0.0026993917 0.019817014 0.01
v 0.0086910704 0.01801293 0.01
v 0.013831993 0.014445633 0.01
v 0.017618947 0.0094642875 0.01
v 0.01968124 0.0035565145 0.01
v 0.019816995 -0.0026993951 0.01
v 0.01801293 -0.0086910704 0.01
v 0.014445633 -0.013831993 0.01
v 0.0094642908 -0.017618965 0.01
v 0.0035565145 -0.01968124 0.01
v -0.0026993917 -0.019817014 0.01
v -0.0086910704 -0.01801293 0.01
v -0.013831993 -0.014445633 0.01
v -0.017618947 -0.0094642875 0.01
v -0.01968124 -0.0035565145 0.01
v -0.019816995 0.0026993951 0.01
v -0.01801293 0.0086910704 0.01
v -0.014445633 0.013831993 0.01
v -0.0094642908 0.017618965 0.01
v -0.0035565145 0.01968124 0
v -0.0094642908 0.017618965 0
v -0.014445633 0.013831993 0
v -0.01801293 0.0086910704 0
v -0.019816995 0.0026993951 0
v -0.01968124 -0.0035565145 0
v -0.017618947 -0.0094642875 0
v -0.013831993 -0.014445633 0
v -0.0086910704 -0.01801293 0
v -0.0026993917 -0.019817014 0
v 0.0035565145 -0.01968124 0
v 0.0094642908 -0.017618965 0
v 0.014445633 -0.013831993 0
v 0.01801293 -0.0086910704 0
v 0.019816995 -0.0026993951 0
v 0.01968124 0.0035565145 0
v 0.017618947 0.0094642875 0
v 0.013831993 0.014445633 0
v 0.0086910704 0.01801293 0
v 0.0026993917 0.019817014 0
v -0.0035565145 0.01968124 0
v -0.0035565145 0.01968124 0.01
f 2 10 1
f 1 10 11
f 1 11 20
f 20 11 12
f 20 12 19
f 19 12 13
f 19 13 18
f 18 13 14
f 18 14 17
f 17 14 15
f 17 15 16
f 10 2 9
f 9 2 3
f 9 3 8
f 8 3 4
f 8 4 7
f 7 4 5
f 7 5 6
f 22 30 21
f 21 30 31
f 21 31 40
f 40 31 32
f 40 32 39
f 39 32 33
f 39 33 38
f 38 33 34
f 38 34 37
f 37 34 35
f 37 35 36
f 30 22 29
f 29 22 23
f 29 23 28
f 28 23 24
f 28 24 27
f 27 24 25
f 27 25 26
f 42 80 41
f 41 80 81
f 82 61 60
f 60 61 62
f 60 62 59
f 59 62 63
f 59 63 58
f 58 63 64
f 58 64 57
f 57 64 65
f 57 65 56
f 56 65 66
f 56 66 55
f 55 66 67
f 55 67 54
f 54 67 68
f 54 68 53
f 53 68 69
f 53 69 52
f 52 69 70
f 52 70 51
f 51 70 71
f 51 71 50
f 50 71 72
f 50 72 49
f 49 72 73
f 49 73 48
f 48 73 74
f 48 74 47
f 47 74 75
f 47 75 46
f 46 75 76
f 46 76 45
f 45 76 77
f 45 77 44
f 44 77 78
f 44 78 43
f 43 78 79
f 43 79 42
f 42 79 80
