v 0.013536044 -0.22111711 -0.027999992
v 0.064707275 -0.21187017 -0.027999992
v 0.064707275 -0.21187017 0.0040000153
v 0.013536044 -0.22111711 0.0040000153
v 0.025585616 0.0046234695 0.0040000153
v -0.025585616 -0.0046234695 0.0040000153
v 0.013536044 -0.22111711 0.0040000153
v 0.064707275 -0.21187017 0.0040000153
v -0.025585616 -0.0046234695 -0.027999992
v 0.025585616 0.0046234695 -0.027999992
v 0.064707275 -0.21187017 -0.027999992
v 0.013536044 -0.22111711 -0.027999992
v 0.064707275 -0.21187017 -0.027999992
v 0.025585616 0.0046234695 -0.027999992
v 0.025585616 0.0046234695 0.0040000153
v 0.064707275 -0.21187017 0.0040000153
v 0.025585616 0.0046234695 -0.027999992
v -0.025585616 -0.0046234695 -0.027999992
v -0.025585616 -0.0046234695 0.0040000153
v 0.025585616 0.0046234695 0.0040000153
v -0.025585616 -0.0046234695 -0.027999992
v 0.013536044 -0.22111711 -0.027999992
v 0.013536044 -0.22111711 0.0040000153
v -0.025585616 -0.0046234695 0.0040000153
f 2 3 1
f 1 3 4
f 6 7 5
f 5 7 8
f 10 11 9
f 9 11 12
f 14 15 13
f 13 15 16
f 18 19 17
f 17 19 20
f 22 23 21
f 21 23 24
v -0.0046234661 0.025585597 0.0040000153
v 0.0039346826 0.025700559 0.0040000153
v 0.012066435 0.023030436 0.0040000153
v 0.018890609 0.01786462 0.0040000153
v 0.023667705 0.010762903 0.0040000153
v 0.025880028 0.0024948332 0.0040000153
v 0.025287839 -0.0060435629 0.0040000153
v 0.021955335 -0.013927076 0.0040000153
v 0.016243624 -0.020301354 0.0040000153
v 0.0087716682 -0.024475674 0.0040000153
v 0.00034915855 -0.02599767 0.0040000153
v -0.0081111822 -0.024702409 0.0040000153
v -0.015692552 -0.020730268 0.0040000153
v -0.021573391 -0.01451166 0.0040000153
v -0.025116422 -0.0067205218 0.0040000153
v -0.0259377 0.0017989179 0.0040000153
v -0.023948206 0.010123397 0.0040000153
v -0.019363569 0.017350852 0.0040000153
v -0.012680598 0.022698081 0.0040000153
v -0.0046234661 0.025585597 -0.027999992
v -0.012680598 0.022698081 -0.027999992
v -0.019363569 0.017350852 -0.027999992
v -0.023948206 0.010123397 -0.027999992
v -0.0259377 0.0017989179 -0.027999992
v -0.025116422 -0.0067205218 -0.027999992
v -0.021573391 -0.01451166 -0.027999992
v -0.015692552 -0.020730268 -0.027999992
v -0.0081111822 -0.024702409 -0.027999992
v 0.00034915855 -0.02599767 -0.027999992
v 0.0087716682 -0.024475674 -0.027999992
v 0.016243624 -0.020301354 -0.027999992
v 0.021955335 -0.013927076 -0.027999992
v 0.025287839 -0.0060435629 -0.027999992
v 0.025880028 0.0024948332 -0.027999992
v 0.023667705 0.010762903 -0.027999992
v 0.018890609 0.01786462 -0.027999992
v 0.012066435 0.023030436 -0.027999992
v 0.0039346826 0.025700559 -0.027999992
v -0.0046234661 0.025585597 -0.027999992
v -0.0046234661 0.025585597 0.0040000153
v -0.0046234661 0.025585597 -0.027999992
v 0.0039346826 0.025700559 -0.027999992
v 0.012066435 0.023030436 -0.027999992
v 0.018890609 0.01786462 -0.027999992
v 0.023667705 0.010762903 -0.027999992
v 0.025880028 0.0024948332 -0.027999992
v 0.025287839 -0.0060435629 -0.027999992
v 0.021955335 -0.013927076 -0.027999992
v 0.016243624 -0.020301354 -0.027999992
v 0.0087716682 -0.024475674 -0.027999992
v 0.00034915855 -0.02599767 -0.027999992
v -0.0081111822 -0.024702409 -0.027999992
v -0.015692552 -0.020730268 -0.027999992
v -0.021573391 -0.01451166 -0.027999992
v -0.025116422 -0.0067205218 -0.027999992
v -0.0259377 0.0017989179 -0.027999992
v -0.023948206 0.010123397 -0.027999992
v -0.019363569 0.017350852 -0.027999992
v -0.012680598 0.022698081 -0.027999992
v -0.0046234661 0.025585597 0.0040000153
v -0.012680598 0.022698081 0.0040000153
v -0.019363569 0.017350852 0.0040000153
v -0.023948206 0.010123397 0.0040000153
v -0.0259377 0.0017989179 0.0040000153
v -0.025116422 -0.0067205218 0.0040000153
v -0.021573391 -0.01451166 0.0040000153
v -0.015692552 -0.020730268 0.0040000153
v -0.0081111822 -0.024702409 0.0040000153
v 0.00034915855 -0.02599767 0.0040000153
v 0.0087716682 -0.024475674 0.0040000153
v 0.016243624 -0.020301354 0.0040000153
v 0.021955335 -0.013927076 0.0040000153
v 0.025287839 -0.0060435629 0.0040000153
v 0.025880028 0.0024948332 0.0040000153
v 0.023667705 0.010762903 0.0040000153
v 0.018890609 0.01786462 0.0040000153
v 0.012066435 0.023030436 0.0040000153
v 0.0039346826 0.025700559 0.0040000153
f 26 62 25
f 25 62 63
f 64 44 43
f 43 44 45
f 43 45 42
f 42 45 46
f 42 46 41
f 41 46 47
f 41 47 40
f 40 47 48
f 40 48 39
f 39 48 49
f 39 49 38
f 38 49 50
f 38 50 37
f 37 50 51
f 37 51 36
f 36 51 52
f 36 52 35
f 35 52 53
f 35 53 34
f 34 53 54
f 34 54 33
f 33 54 55
f 33 55 32
f 32 55 56
f 32 56 31
f 31 56 57
f 31 57 30
f 30 57 58
f 30 58 29
f 29 58 59
f 29 59 28
f 28 59 60
f 28 60 27
f 27 60 61
f 27 61 26
f 26 61 62
f 65 66 83
f 83 66 67
f 83 67 82
f 82 67 68
f 82 68 81
f 81 68 69
f 81 69 80
f 80 69 70
f 80 70 79
f 79 70 71
f 79 71 72
f 72 73 79
f 79 73 74
f 79 74 75
f 75 76 79
f 79 76 77
f 79 77 78
f 84 85 102
f 102 85 101
f 101 85 86
f 101 86 100
f 100 86 87
f 100 87 99
f 99 87 88
f 99 88 98
f 98 88 89
f 98 89 97
f 97 89 96
f 96 89 95
f 95 89 94
f 94 89 93
f 93 89 92
f 92 89 91
f 91 89 90
v 0.034498193 -0.19090804 -0.027999992
v 0.043056349 -0.19079312 -0.027999992
v 0.051188095 -0.1934632 -0.027999992
v 0.058012268 -0.19862902 -0.027999992
v 0.062789372 -0.20573077 -0.027999992
v 0.065001688 -0.21399881 -0.027999992
v 0.064409506 -0.22253724 -0.027999992
v 0.061076995 -0.23042071 -0.027999992
v 0.055365277 -0.23679496 -0.027999992
v 0.047893321 -0.24096928 -0.027999992
v 0.039470811 -0.24249127 -0.027999992
v 0.031010471 -0.24119601 -0.027999992
v 0.023429108 -0.23722391 -0.027999992
v 0.017548275 -0.23100534 -0.027999992
v 0.014005238 -0.22321416 -0.027999992
v 0.013183967 -0.21469476 -0.027999992
v 0.015173453 -0.20637024 -0.027999992
v 0.019758091 -0.19914279 -0.027999992
v 0.026441068 -0.1937956 -0.027999992
v 0.034498193 -0.19090804 0.0040000153
v 0.043056349 -0.19079312 0.0040000153
v 0.051188095 -0.1934632 0.0040000153
v 0.058012268 -0.19862902 0.0040000153
v 0.062789372 -0.20573077 0.0040000153
v 0.065001688 -0.21399881 0.0040000153
v 0.064409506 -0.22253724 0.0040000153
v 0.061076995 -0.23042071 0.0040000153
v 0.055365277 -0.23679496 0.0040000153
v 0.047893321 -0.24096928 0.0040000153
v 0.039470811 -0.24249127 0.0040000153
v 0.031010471 -0.24119601 0.0040000153
v 0.023429108 -0.23722391 0.0040000153
v 0.017548275 -0.23100534 0.0040000153
v 0.014005238 -0.22321416 0.0040000153
v 0.013183967 -0.21469476 0.0040000153
v 0.015173453 -0.20637024 0.0040000153
v 0.019758091 -0.19914279 0.0040000153
v 0.026441068 -0.1937956 0.0040000153
v 0.034498193 -0.19090804 -0.027999992
v 0.026441068 -0.1937956 -0.027999992
v 0.019758091 -0.19914279 -0.027999992
v 0.015173453 -0.20637024 -0.027999992
v 0.013183967 -0.21469476 -0.027999992
v 0.014005238 -0.22321416 -0.027999992
v 0.017548275 -0.23100534 -0.027999992
v 0.023429108 -0.23722391 -0.027999992
v 0.031010471 -0.24119601 -0.027999992
v 0.039470811 -0.24249127 -0.027999992
v 0.047893321 -0.24096928 -0.027999992
v 0.055365277 -0.23679496 -0.027999992
v 0.061076995 -0.23042071 -0.027999992
v 0.064409506 -0.22253724 -0.027999992
v 0.065001688 -0.21399881 -0.027999992
v 0.062789372 -0.20573077 -0.027999992
v 0.058012268 -0.19862902 -0.027999992
v 0.051188095 -0.1934632 -0.027999992
v 0.043056349 -0.19079312 -0.027999992
v 0.034498193 -0.19090804 -0.027999992
v 0.034498193 -0.19090804 0.0040000153
v 0.034498193 -0.19090804 0.0040000153
v 0.026441068 -0.1937956 0.0040000153
v 0.019758091 -0.19914279 0.0040000153
v 0.015173453 -0.20637024 0.0040000153
v 0.013183967 -0.21469476 0.0040000153
v 0.014005238 -0.22321416 0.0040000153
v 0.017548275 -0.23100534 0.0040000153
v 0.023429108 -0.23722391 0.0040000153
v 0.031010471 -0.24119601 0.0040000153
v 0.039470811 -0.24249127 0.0040000153
v 0.047893321 -0.24096928 0.0040000153
v 0.055365277 -0.23679496 0.0040000153
v 0.061076995 -0.23042071 0.0040000153
v 0.064409506 -0.22253724 0.0040000153
v 0.065001688 -0.21399881 0.0040000153
v 0.062789372 -0.20573077 0.0040000153
v 0.058012268 -0.19862902 0.0040000153
v 0.051188095 -0.1934632 0.0040000153
v 0.043056349 -0.19079312 0.0040000153
f 103 104 121
f 121 104 105
f 121 105 120
f 120 105 106
f 120 106 119
f 119 106 107
f 119 107 118
f 118 107 108
f 118 108 117
f 117 108 109
f 117 109 110
f 110 111 117
f 117 111 112
f 117 112 113
f 113 114 117
f 117 114 115
f 117 115 116
f 123 159 122
f 122 159 160
f 161 141 140
f 140 141 142
f 140 142 139
f 139 142 143
f 139 143 138
f 138 143 144
f 138 144 137
f 137 144 145
f 137 145 136
f 136 145 146
f 136 146 135
f 135 146 147
f 135 147 134
f 134 147 148
f 134 148 133
f 133 148 149
f 133 149 132
f 132 149 150
f 132 150 131
f 131 150 151
f 131 151 130
f 130 151 152
f 130 152 129
f 129 152 153
f 129 153 128
f 128 153 154
f 128 154 127
f 127 154 155
f 127 155 126
f 126 155 156
f 126 156 125
f 125 156 157
f 125 157 124
f 124 157 158
f 124 158 123
f 123 158 159
f 162 163 180
f 180 163 179
f 179 163 164
f 179 164 178
f 178 164 165
f 178 165 177
f 177 165 166
f 177 166 176
f 176 166 167
f 176 167 175
f 175 167 174
f 174 167 173
f 173 167 172
f 172 167 171
f 171 167 170
f 170 167 169
f 169 167 168
