v -0.14955 -0.034000004 0.0012999878
v -0.14955 -0.034000004 -0.004
v -0.14955 0.033999998 -0.004
v -0.14955 0.033999998 0.0012999878
v -0.14955 0.033999998 0.0012999878
v -0.14955 0.033999998 -0.004
v -0.17445 0.033999998 -0.004
v -0.17445 0.033999998 0.0012999878
v -0.17445 0.033999998 0.0012999878
v -0.17445 0.033999998 -0.004
v -0.17445 -0.034000004 -0.004
v -0.17445 -0.034000004 0.0012999878
v -0.17445 -0.034000004 0.0012999878
v -0.17445 -0.034000004 -0.004
v -0.14955 -0.034000004 -0.004
v -0.14955 -0.034000004 0.0012999878
v -0.14955 0.033999998 -0.004
v -0.14955 -0.034000004 -0.004
v -0.17445 -0.034000004 -0.004
v -0.17445 0.033999998 -0.004
v -0.14955 -0.034000004 0.0012999878
v -0.14955 0.033999998 0.0012999878
v -0.17445 0.033999998 0.0012999878
v -0.17445 -0.034000004 0.0012999878
f 1 2 4
f 4 2 3
f 5 6 8
f 8 6 7
f 9 10 12
f 12 10 11
f 13 14 16
f 16 14 15
f 18 19 17
f 17 19 20
f 22 23 21
f 21 23 24
v -0.021 -0.030000008 -0.004
v -0.021 -0.030000008 -0.0060000076
v -0.021 0.030000002 -0.0060000076
v -0.021 0.030000002 -0.004
v -0.021 0.030000002 -0.004
v -0.021 0.030000002 -0.0060000076
v -0.1745 0.030000002 -0.0060000076
v -0.1745 0.030000002 -0.004
v -0.1745 0.030000002 -0.004
v -0.1745 0.030000002 -0.0060000076
v -0.1745 -0.030000008 -0.0060000076
v -0.1745 -0.030000008 -0.004
v -0.1745 -0.030000008 -0.004
v -0.1745 -0.030000008 -0.0060000076
v -0.021 -0.030000008 -0.0060000076
v -0.021 -0.030000008 -0.004
v -0.021 0.030000002 -0.0060000076
v -0.021 -0.030000008 -0.0060000076
v -0.1745 -0.030000008 -0.0060000076
v -0.1745 0.030000002 -0.0060000076
v -0.021 -0.030000008 -0.004
v -0.021 0.030000002 -0.004
v -0.1745 0.030000002 -0.004
v -0.1745 -0.030000008 -0.004
f 25 26 28
f 28 26 27
f 29 30 32
f 32 30 31
f 33 34 36
f 36 34 35
f 37 38 40
f 40 38 39
f 42 43 41
f 41 43 44
f 46 47 45
f 45 47 48
