v -0.5165 -0.0448575 0.31700001
v -0.51490161 -0.035278865 0.31700001
v -0.51027965 -0.026738225 0.31700001
v -0.50313497 -0.020161091 0.31700001
v -0.49424182 -0.016260191 0.31700001
v -0.48456391 -0.015458256 0.31700001
v -0.47514998 -0.017842189 0.31700001
v -0.4670202 -0.023153644 0.31700001
v -0.46105553 -0.030817052 0.31700001
v -0.45790235 -0.040001961 0.31700001
v -0.45790235 -0.04971304 0.31700001
v -0.46105553 -0.058897948 0.31700001
v -0.4670202 -0.066561355 0.31700001
v -0.47514998 -0.071872813 0.31700001
v -0.48456391 -0.074256743 0.31700001
v -0.49424182 -0.073454808 0.31700001
v -0.50313497 -0.069553911 0.31700001
v -0.51027965 -0.062976775 0.31700001
v -0.51490161 -0.054436134 0.31700001
v -0.5165 -0.0448575 0.39
v -0.51490161 -0.054436134 0.39
v -0.51027965 -0.062976775 0.39
v -0.50313497 -0.069553911 0.39
v -0.49424182 -0.073454808 0.39
v -0.48456391 -0.074256743 0.39
v -0.47514998 -0.071872813 0.39
v -0.4670202 -0.066561355 0.39
v -0.46105553 -0.058897948 0.39
v -0.45790235 -0.04971304 0.39
v -0.45790235 -0.040001961 0.39
v -0.46105553 -0.030817052 0.39
v -0.4670202 -0.023153644 0.39
v -0.47514998 -0.017842189 0.39
v -0.48456391 -0.015458256 0.39
v -0.49424182 -0.016260191 0.39
v -0.50313497 -0.020161091 0.39
v -0.51027965 -0.026738225 0.39
v -0.51490161 -0.035278865 0.39
v -0.5165 -0.0448575 0.39
v -0.51490161 -0.035278865 0.39
v -0.51027965 -0.026738225 0.39
v -0.50313497 -0.020161091 0.39
v -0.49424182 -0.016260191 0.39
v -0.48456391 -0.015458256 0.39
v -0.47514998 -0.017842189 0.39
v -0.4670202 -0.023153644 0.39
v -0.46105553 -0.030817052 0.39
v -0.45790235 -0.040001961 0.39
v -0.45790235 -0.04971304 0.39
v -0.46105553 -0.058897948 0.39
v -0.4670202 -0.066561355 0.39
v -0.47514998 -0.071872813 0.39
v -0.48456391 -0.074256743 0.39
v -0.49424182 -0.073454808 0.39
v -0.50313497 -0.069553911 0.39
v -0.51027965 -0.062976775 0.39
v -0.51490161 -0.054436134 0.39
v -0.5165 -0.0448575 0.31700001
v -0.51490161 -0.054436134 0.31700001
v -0.51027965 -0.062976775 0.31700001
v -0.50313497 -0.069553911 0.31700001
v -0.49424182 -0.073454808 0.31700001
v -0.48456391 -0.074256743 0.31700001
v -0.47514998 -0.071872813 0.31700001
v -0.4670202 -0.066561355 0.31700001
v -0.46105553 -0.058897948 0.31700001
v -0.45790235 -0.04971304 0.31700001
v -0.45790235 -0.040001961 0.31700001
v -0.46105553 -0.030817052 0.31700001
v -0.4670202 -0.023153644 0.31700001
v -0.47514998 -0.017842189 0.31700001
v -0.48456391 -0.015458256 0.31700001
v -0.49424182 -0.016260191 0.31700001
v -0.50313497 -0.020161091 0.31700001
v -0.51027965 -0.026738225 0.31700001
v -0.51490161 -0.035278865 0.31700001
v -0.5165 -0.0448575 0.31700001
v -0.5165 -0.0448575 0.39
f 1 2 19
f 19 2 3
f 19 3 18
f 18 3 4
f 18 4 17
f 17 4 5
f 17 5 16
f 16 5 6
f 16 6 15
f 15 6 7
f 15 7 8
f 8 9 15
f 15 9 10
f 15 10 11
f 11 12 15
f 15 12 13
f 15 13 14
f 20 21 38
f 38 21 37
f 37 21 22
f 37 22 36
f 36 22 23
f 36 23 35
f 35 23 24
f 35 24 34
f 34 24 25
f 34 25 33
f 33 25 32
f 32 25 31
f 31 25 30
f 30 25 29
f 29 25 28
f 28 25 27
f 27 25 26
f 40 76 39
f 39 76 77
f 78 58 57
f 57 58 59
f 57 59 56
f 56 59 60
f 56 60 55
f 55 60 61
f 55 61 54
f 54 61 62
f 54 62 53
f 53 62 63
f 53 63 52
f 52 63 64
f 52 64 51
f 51 64 65
f 51 65 50
f 50 65 66
f 50 66 49
f 49 66 67
f 49 67 48
f 48 67 68
f 48 68 47
f 47 68 69
f 47 69 46
f 46 69 70
f 46 70 45
f 45 70 71
f 45 71 44
f 44 71 72
f 44 72 43
f 43 72 73
f 43 73 42
f 42 73 74
f 42 74 41
f 41 74 75
f 41 75 40
f 40 75 76
