v 0.074040153 -0.0038103609 0.064904986
v 0.074040153 -0.0010390797 0.064904986
v 0.073640153 -0.0010390797 0.064904986
v 0.073640153 -0.0038103609 0.064904986
v 0.074040153 -0.003810361 0.065304986
v 0.073640153 -0.003810361 0.065304986
v 0.073640153 -0.0010390797 0.065304986
v 0.074040153 -0.0010390797 0.065304986
v 0.073640153 -0.0010390797 0.065304986
v 0.073640153 -0.003810361 0.065304986
v 0.073640153 -0.0038231223 0.065171856
v 0.073640153 -0.0038231223 0.065038116
v 0.073640153 -0.0038103609 0.064904986
v 0.073640153 -0.0010390797 0.064904986
v 0.073640153 -0.0010263183 0.065038116
v 0.073640153 -0.0010263183 0.065171856
v 0.071040153 -0.0010247203 0.065104986
v 0.071040153 -0.0011005761 0.064650407
v 0.071040153 -0.0013199235 0.064245088
v 0.071040153 -0.0016589927 0.063932953
v 0.071040153 -0.0020810404 0.063747826
v 0.071040153 -0.0025403312 0.063709768
v 0.071040153 -0.0029870938 0.063822903
v 0.071040153 -0.0033729143 0.064074972
v 0.071040153 -0.0036559836 0.064438659
v 0.071040153 -0.0038056262 0.064874553
v 0.071040153 -0.0038056263 0.065335418
v 0.071040153 -0.0036559839 0.065771312
v 0.071040153 -0.0033729146 0.066134999
v 0.071040153 -0.0029870942 0.066387069
v 0.071040153 -0.0025403317 0.066500204
v 0.071040153 -0.0020810409 0.066462146
v 0.071040153 -0.0016589931 0.066277019
v 0.071040153 -0.0013199238 0.065964884
v 0.071040153 -0.0011005763 0.065559566
v 0.074040153 -0.0010390797 0.064904986
v 0.074040153 -0.0038103609 0.064904986
v 0.074040153 -0.0036788465 0.064482758
v 0.074040153 -0.003422193 0.064122617
v 0.074040153 -0.00306601 0.063860499
v 0.074040153 -0.002645838 0.063722558
v 0.074040153 -0.0022036023 0.063722558
v 0.074040153 -0.0017834303 0.063860499
v 0.074040153 -0.0014272473 0.064122618
v 0.074040153 -0.001170594 0.064482759
v 0.074040153 -0.0010390797 0.065304986
v 0.074040153 -0.0011705942 0.065727214
v 0.074040153 -0.0014272476 0.066087355
v 0.074040153 -0.0017834307 0.066349473
v 0.074040153 -0.0022036028 0.066487414
v 0.074040153 -0.0026458384 0.066487414
v 0.074040153 -0.0030660105 0.066349473
v 0.074040153 -0.0034221933 0.066087354
v 0.074040153 -0.0036788467 0.065727214
v 0.074040153 -0.003810361 0.065304986
v 0.073640153 -0.0010390797 0.065304986
v 0.073640153 -0.0010263183 0.065171856
v 0.073640153 -0.0010263183 0.065038116
v 0.073640153 -0.0010390797 0.064904986
v 0.074040153 -0.0010390797 0.064904986
v 0.074040153 -0.001170594 0.064482759
v 0.074040153 -0.0014272473 0.064122618
v 0.074040153 -0.0017834303 0.063860499
v 0.074040153 -0.0022036023 0.063722558
v 0.074040153 -0.002645838 0.063722558
v 0.074040153 -0.00306601 0.063860499
v 0.074040153 -0.003422193 0.064122617
v 0.074040153 -0.0036788465 0.064482758
v 0.074040153 -0.0038103609 0.064904986
v 0.073640153 -0.0038103609 0.064904986
v 0.073640153 -0.0038231223 0.065038116
v 0.073640153 -0.0038231223 0.065171856
v 0.073640153 -0.003810361 0.065304986
v 0.074040153 -0.003810361 0.065304986
v 0.074040153 -0.0036788467 0.065727214
v 0.074040153 -0.0034221933 0.066087354
v 0.074040153 -0.0030660105 0.066349473
v 0.074040153 -0.0026458384 0.066487414
v 0.074040153 -0.0022036028 0.066487414
v 0.074040153 -0.0017834307 0.066349473
v 0.074040153 -0.0014272476 0.066087355
v 0.074040153 -0.0011705942 0.065727214
v 0.074040153 -0.0010390797 0.065304986
v 0.071040153 -0.0010247203 0.065104986
v 0.071040153 -0.0011005763 0.065559566
v 0.071040153 -0.0013199238 0.065964884
v 0.071040153 -0.0016589931 0.066277019
v 0.071040153 -0.0020810409 0.066462146
v 0.071040153 -0.0025403317 0.066500204
v 0.071040153 -0.0029870942 0.066387069
v 0.071040153 -0.0033729146 0.066134999
v 0.071040153 -0.0036559839 0.065771312
v 0.071040153 -0.0038056263 0.065335418
v 0.071040153 -0.0038056262 0.064874553
v 0.071040153 -0.0036559836 0.064438659
v 0.071040153 -0.0033729143 0.064074972
v 0.071040153 -0.0029870938 0.063822903
v 0.071040153 -0.0025403312 0.063709768
v 0.071040153 -0.0020810404 0.063747826
v 0.071040153 -0.0016589927 0.063932953
v 0.071040153 -0.0013199235 0.064245088
v 0.071040153 -0.0011005761 0.064650407
v 0.071040153 -0.0010247203 0.065104986
v 0.073640153 -0.0010263183 0.065171856
f 2 3 1
f 1 3 4
f 5 6 8
f 8 6 7
f 9 10 16
f 16 10 11
f 16 11 15
f 15 11 12
f 15 12 14
f 14 12 13
f 17 18 35
f 35 18 34
f 34 18 19
f 34 19 33
f 33 19 20
f 33 20 32
f 32 20 21
f 32 21 31
f 31 21 22
f 31 22 30
f 30 22 29
f 29 22 28
f 28 22 27
f 27 22 26
f 26 22 25
f 25 22 24
f 24 22 23
f 36 37 45
f 45 37 38
f 45 38 44
f 44 38 39
f 44 39 43
f 43 39 40
f 43 40 42
f 42 40 41
f 55 46 54
f 54 46 47
f 54 47 53
f 53 47 48
f 53 48 52
f 52 48 49
f 52 49 51
f 51 49 50
f 104 84 56
f 56 84 85
f 56 85 83
f 83 85 82
f 82 85 86
f 82 86 81
f 81 86 87
f 81 87 80
f 80 87 88
f 80 88 79
f 79 88 89
f 79 89 78
f 78 89 90
f 78 90 77
f 77 90 91
f 77 91 76
f 76 91 92
f 76 92 75
f 75 92 93
f 75 93 74
f 74 93 73
f 73 93 72
f 72 93 94
f 72 94 71
f 71 94 70
f 70 94 69
f 69 94 68
f 68 94 95
f 68 95 67
f 67 95 96
f 67 96 66
f 66 96 97
f 66 97 65
f 65 97 98
f 65 98 64
f 64 98 99
f 64 99 63
f 63 99 100
f 63 100 62
f 62 100 101
f 62 101 61
f 61 101 102
f 61 102 60
f 60 102 59
f 59 102 103
f 59 103 58
f 58 103 57
v 0.074040153 -0.00031036096 0.064904986
v 0.074040153 0.0024609203 0.064904987
v 0.073640153 0.0024609203 0.064904987
v 0.073640153 -0.00031036096 0.064904986
v 0.074040153 -0.00031036103 0.065304986
v 0.073640153 -0.00031036103 0.065304986
v 0.073640153 0.0024609202 0.065304987
v 0.074040153 0.0024609202 0.065304987
v 0.073640153 0.0024609202 0.065304987
v 0.073640153 -0.00031036103 0.065304986
v 0.073640153 -0.00032312243 0.065171857
v 0.073640153 -0.00032312241 0.065038116
v 0.073640153 -0.00031036096 0.064904986
v 0.073640153 0.0024609203 0.064904987
v 0.073640153 0.0024736816 0.065038117
v 0.073640153 0.0024736816 0.065171857
v 0.071040153 0.0024752796 0.065104987
v 0.071040153 0.0023994239 0.064650408
v 0.071040153 0.0021800765 0.064245089
v 0.071040153 0.0018410071 0.063932954
v 0.071040153 0.0014189596 0.063747826
v 0.071040153 0.00095966876 0.063709768
v 0.071040153 0.0005129063 0.063822904
v 0.071040153 0.00012708561 0.064074973
v 0.071040153 -0.00015598347 0.06443866
v 0.071040153 -0.00030562614 0.064874554
v 0.071040153 -0.00030562622 0.065335419
v 0.071040153 -0.0001559837 0.065771313
v 0.071040153 0.00012708525 0.066135
v 0.071040153 0.00051290585 0.066387069
v 0.071040153 0.00095966827 0.066500205
v 0.071040153 0.0014189592 0.066462147
v 0.071040153 0.0018410067 0.06627702
v 0.071040153 0.0021800762 0.065964885
v 0.071040153 0.0023994237 0.065559566
v 0.074040153 0.0024609203 0.064904987
v 0.074040153 -0.00031036096 0.064904986
v 0.074040153 -0.00017884647 0.064482759
v 0.074040153 7.7806943e-05 0.064122618
v 0.074040153 0.00043399004 0.0638605
v 0.074040153 0.00085416213 0.063722559
v 0.074040153 0.0012963977 0.063722559
v 0.074040153 0.0017165698 0.0638605
v 0.074040153 0.0020727526 0.064122618
v 0.074040153 0.002329406 0.064482759
v 0.074040153 0.0024609202 0.065304987
v 0.074040153 0.0023294058 0.065727215
v 0.074040153 0.0020727523 0.066087355
v 0.074040153 0.0017165694 0.066349474
v 0.074040153 0.0012963973 0.066487415
v 0.074040153 0.00085416165 0.066487415
v 0.074040153 0.00043398961 0.066349473
v 0.074040153 7.7806599e-05 0.066087355
v 0.074040153 -0.00017884669 0.065727214
v 0.074040153 -0.00031036103 0.065304986
v 0.073640153 0.0024609202 0.065304987
v 0.073640153 0.0024736816 0.065171857
v 0.073640153 0.0024736816 0.065038117
v 0.073640153 0.0024609203 0.064904987
v 0.074040153 0.0024609203 0.064904987
v 0.074040153 0.002329406 0.064482759
v 0.074040153 0.0020727526 0.064122618
v 0.074040153 0.0017165698 0.0638605
v 0.074040153 0.0012963977 0.063722559
v 0.074040153 0.00085416213 0.063722559
v 0.074040153 0.00043399004 0.0638605
v 0.074040153 7.7806943e-05 0.064122618
v 0.074040153 -0.00017884647 0.064482759
v 0.074040153 -0.00031036096 0.064904986
v 0.073640153 -0.00031036096 0.064904986
v 0.073640153 -0.00032312241 0.065038116
v 0.073640153 -0.00032312243 0.065171857
v 0.073640153 -0.00031036103 0.065304986
v 0.074040153 -0.00031036103 0.065304986
v 0.074040153 -0.00017884669 0.065727214
v 0.074040153 7.7806599e-05 0.066087355
v 0.074040153 0.00043398961 0.066349473
v 0.074040153 0.00085416165 0.066487415
v 0.074040153 0.0012963973 0.066487415
v 0.074040153 0.0017165694 0.066349474
v 0.074040153 0.0020727523 0.066087355
v 0.074040153 0.0023294058 0.065727215
v 0.074040153 0.0024609202 0.065304987
v 0.071040153 0.0024752796 0.065104987
v 0.071040153 0.0023994237 0.065559566
v 0.071040153 0.0021800762 0.065964885
v 0.071040153 0.0018410067 0.06627702
v 0.071040153 0.0014189592 0.066462147
v 0.071040153 0.00095966827 0.066500205
v 0.071040153 0.00051290585 0.066387069
v 0.071040153 0.00012708525 0.066135
v 0.071040153 -0.0001559837 0.065771313
v 0.071040153 -0.00030562622 0.065335419
v 0.071040153 -0.00030562614 0.064874554
v 0.071040153 -0.00015598347 0.06443866
v 0.071040153 0.00012708561 0.064074973
v 0.071040153 0.0005129063 0.063822904
v 0.071040153 0.00095966876 0.063709768
v 0.071040153 0.0014189596 0.063747826
v 0.071040153 0.0018410071 0.063932954
v 0.071040153 0.0021800765 0.064245089
v 0.071040153 0.0023994239 0.064650408
v 0.071040153 0.0024752796 0.065104987
v 0.073640153 0.0024736816 0.065171857
f 106 107 105
f 105 107 108
f 109 110 112
f 112 110 111
f 113 114 120
f 120 114 115
f 120 115 119
f 119 115 116
f 119 116 118
f 118 116 117
f 121 122 139
f 139 122 138
f 138 122 123
f 138 123 137
f 137 123 124
f 137 124 136
f 136 124 125
f 136 125 135
f 135 125 126
f 135 126 134
f 134 126 133
f 133 126 132
f 132 126 131
f 131 126 130
f 130 126 129
f 129 126 128
f 128 126 127
f 140 141 149
f 149 141 142
f 149 142 148
f 148 142 143
f 148 143 147
f 147 143 144
f 147 144 146
f 146 144 145
f 159 150 158
f 158 150 151
f 158 151 157
f 157 151 152
f 157 152 156
f 156 152 153
f 156 153 155
f 155 153 154
f 208 188 160
f 160 188 189
f 160 189 187
f 187 189 186
f 186 189 190
f 186 190 185
f 185 190 191
f 185 191 184
f 184 191 192
f 184 192 183
f 183 192 193
f 183 193 182
f 182 193 194
f 182 194 181
f 181 194 195
f 181 195 180
f 180 195 196
f 180 196 179
f 179 196 197
f 179 197 178
f 178 197 177
f 177 197 176
f 176 197 198
f 176 198 175
f 175 198 174
f 174 198 173
f 173 198 172
f 172 198 199
f 172 199 171
f 171 199 200
f 171 200 170
f 170 200 201
f 170 201 169
f 169 201 202
f 169 202 168
f 168 202 203
f 168 203 167
f 167 203 204
f 167 204 166
f 166 204 205
f 166 205 165
f 165 205 206
f 165 206 164
f 164 206 163
f 163 206 207
f 163 207 162
f 162 207 161
