v -0.201225 -0.3628575 0.1
v -0.201225 -0.1328575 0.1
v -0.194225 -0.1328575 0.1
v -0.194225 -0.3628575 0.1
v -0.201225 -0.1328575 0.112
v -0.201225 -0.3628575 0.112
v -0.194225 -0.3628575 0.112
v -0.194225 -0.1328575 0.112
v -0.201225 -0.1328575 0.1
v -0.201225 -0.3628575 0.1
v -0.201225 -0.3628575 0.112
v -0.201225 -0.1328575 0.112
v -0.201225 -0.3628575 0.1
v -0.194225 -0.3628575 0.1
v -0.194225 -0.3628575 0.112
v -0.201225 -0.3628575 0.112
v -0.194225 -0.3628575 0.1
v -0.194225 -0.1328575 0.1
v -0.194225 -0.1328575 0.112
v -0.194225 -0.3628575 0.112
v -0.194225 -0.1328575 0.1
v -0.201225 -0.1328575 0.1
v -0.201225 -0.1328575 0.112
v -0.194225 -0.1328575 0.112
f 2 3 1
f 1 3 4
f 6 7 5
f 5 7 8
f 9 10 12
f 12 10 11
f 13 14 16
f 16 14 15
f 17 18 20
f 20 18 19
f 21 22 24
f 24 22 23
v 0.031075001 -0.3628575 0.1
v 0.031075001 -0.1328575 0.1
v 0.038075008 -0.1328575 0.1
v 0.038075008 -0.3628575 0.1
v 0.031075001 -0.1328575 0.112
v 0.031075001 -0.3628575 0.112
v 0.038075008 -0.3628575 0.112
v 0.038075008 -0.1328575 0.112
v 0.031075001 -0.1328575 0.1
v 0.031075001 -0.3628575 0.1
v 0.031075001 -0.3628575 0.112
v 0.031075001 -0.1328575 0.112
v 0.031075001 -0.3628575 0.1
v 0.038075008 -0.3628575 0.1
v 0.038075008 -0.3628575 0.112
v 0.031075001 -0.3628575 0.112
v 0.038075008 -0.3628575 0.1
v 0.038075008 -0.1328575 0.1
v 0.038075008 -0.1328575 0.112
v 0.038075008 -0.3628575 0.112
v 0.038075008 -0.1328575 0.1
v 0.031075001 -0.1328575 0.1
v 0.031075001 -0.1328575 0.112
v 0.038075008 -0.1328575 0.112
f 26 27 25
f 25 27 28
f 30 31 29
f 29 31 32
f 33 34 36
f 36 34 35
f 37 38 40
f 40 38 39
f 41 42 44
f 44 42 43
f 45 46 48
f 48 46 47
v 0.25477501 -0.3628575 0.1
v 0.25477501 -0.1328575 0.1
v 0.26177502 -0.1328575 0.1
v 0.26177502 -0.3628575 0.1
v 0.25477501 -0.1328575 0.112
v 0.25477501 -0.3628575 0.112
v 0.26177502 -0.3628575 0.112
v 0.26177502 -0.1328575 0.112
v 0.25477501 -0.1328575 0.1
v 0.25477501 -0.3628575 0.1
v 0.25477501 -0.3628575 0.112
v 0.25477501 -0.1328575 0.112
v 0.25477501 -0.3628575 0.1
v 0.26177502 -0.3628575 0.1
v 0.26177502 -0.3628575 0.112
v 0.25477501 -0.3628575 0.112
v 0.26177502 -0.3628575 0.1
v 0.26177502 -0.1328575 0.1
v 0.26177502 -0.1328575 0.112
v 0.26177502 -0.3628575 0.112
v 0.26177502 -0.1328575 0.1
v 0.25477501 -0.1328575 0.1
v 0.25477501 -0.1328575 0.112
v 0.26177502 -0.1328575 0.112
f 50 51 49
f 49 51 52
f 54 55 53
f 53 55 56
f 57 58 60
f 60 58 59
f 61 62 64
f 64 62 63
f 65 66 68
f 68 66 67
f 69 70 72
f 72 70 71
v 0.48707497 -0.3628575 0.1
v 0.48707497 -0.1328575 0.1
v 0.49407501 -0.1328575 0.1
v 0.49407501 -0.3628575 0.1
v 0.48707497 -0.1328575 0.112
v 0.48707497 -0.3628575 0.112
v 0.49407501 -0.3628575 0.112
v 0.49407501 -0.1328575 0.112
v 0.48707497 -0.1328575 0.1
v 0.48707497 -0.3628575 0.1
v 0.48707497 -0.3628575 0.112
v 0.48707497 -0.1328575 0.112
v 0.48707497 -0.3628575 0.1
v 0.49407501 -0.3628575 0.1
v 0.49407501 -0.3628575 0.112
v 0.48707497 -0.3628575 0.112
v 0.49407501 -0.3628575 0.1
v 0.49407501 -0.1328575 0.1
v 0.49407501 -0.1328575 0.112
v 0.49407501 -0.3628575 0.112
v 0.49407501 -0.1328575 0.1
v 0.48707497 -0.1328575 0.1
v 0.48707497 -0.1328575 0.112
v 0.49407501 -0.1328575 0.112
f 74 75 73
f 73 75 76
f 78 79 77
f 77 79 80
f 81 82 84
f 84 82 83
f 85 86 88
f 88 86 87
f 89 90 92
f 92 90 91
f 93 94 96
f 96 94 95
v 0.55885002 -0.28130497 0.31927809
v 0.55885002 -0.2828575 0.32160824
v 0.55885002 -0.1428575 0.41488728
v 0.55885002 -0.14130496 0.41255711
v 0.73885002 -0.2828575 0.32160824
v 0.73885002 -0.28130497 0.31927809
v 0.73885002 -0.14130496 0.41255711
v 0.73885002 -0.1428575 0.41488728
v 0.55885002 -0.2828575 0.32160824
v 0.55885002 -0.28130497 0.31927809
v 0.73885002 -0.28130497 0.31927809
v 0.73885002 -0.2828575 0.32160824
v 0.55885002 -0.28130497 0.31927809
v 0.55885002 -0.14130496 0.41255711
v 0.73885002 -0.14130496 0.41255711
v 0.73885002 -0.28130497 0.31927809
v 0.55885002 -0.14130496 0.41255711
v 0.55885002 -0.1428575 0.41488728
v 0.73885002 -0.1428575 0.41488728
v 0.73885002 -0.14130496 0.41255711
v 0.55885002 -0.1428575 0.41488728
v 0.55885002 -0.2828575 0.32160824
v 0.73885002 -0.2828575 0.32160824
v 0.73885002 -0.1428575 0.41488728
f 97 98 100
f 100 98 99
f 102 103 101
f 101 103 104
f 105 106 108
f 108 106 107
f 109 110 112
f 112 110 111
f 113 114 116
f 116 114 115
f 117 118 120
f 120 118 119
v -0.25 -0.3648575 0.05
v -0.25 0.3771425 0.05
v 0.81 0.3771425 0.05
v 0.81 -0.3648575 0.05
v -0.25 0.3771425 0.056
v -0.25 -0.3648575 0.056
v 0.81 -0.3648575 0.056
v 0.81 0.3771425 0.056
v -0.25 0.3771425 0.05
v -0.25 -0.3648575 0.05
v -0.25 -0.3648575 0.056
v -0.25 0.3771425 0.056
v -0.25 -0.3648575 0.05
v 0.81 -0.3648575 0.05
v 0.81 -0.3648575 0.056
v -0.25 -0.3648575 0.056
v 0.81 -0.3648575 0.05
v 0.81 0.3771425 0.05
v 0.81 0.3771425 0.056
v 0.81 -0.3648575 0.056
v 0.81 0.3771425 0.05
v -0.25 0.3771425 0.05
v -0.25 0.3771425 0.056
v 0.81 0.3771425 0.056
f 122 123 121
f 121 123 124
f 126 127 125
f 125 127 128
f 129 130 132
f 132 130 131
f 133 134 136
f 136 134 135
f 137 138 140
f 140 138 139
f 141 142 144
f 144 142 143
