v -0.067999992 -0.581 -0.239
v -0.067999992 -0.55700001 -0.14999998
v 0.067999992 -0.55700001 -0.14999998
v 0.067999992 -0.581 -0.239
v -0.067999992 -0.58299999 -0.339
v -0.067999992 -0.581 -0.239
v 0.067999992 -0.581 -0.239
v 0.067999992 -0.58299999 -0.339
v -0.067999992 -0.55700001 -0.14999998
v -0.067999992 -0.499 -0.064999985
v 0.067999992 -0.499 -0.064999985
v 0.067999992 -0.55700001 -0.14999998
v -0.067999992 -0.499 -0.064999985
v -0.067999992 -0.421 -0.013000015
v 0.067999992 -0.421 -0.013000015
v 0.067999992 -0.499 -0.064999985
v -0.067999992 -0.422 -0.011000008
v -0.067999992 -0.501 -0.063000015
v 0.067999992 -0.501 -0.063000015
v 0.067999992 -0.422 -0.011000008
v -0.067999992 -0.421 -0.013000015
v -0.067999992 -0.365 -0.0010000076
v 0.067999992 -0.365 -0.0010000076
v 0.067999992 -0.421 -0.013000015
v -0.067999992 -0.365 0.001
v -0.067999992 -0.422 -0.011000008
v 0.067999992 -0.422 -0.011000008
v 0.067999992 -0.365 0.001
v -0.067999992 -0.501 -0.063000015
v -0.067999992 -0.559 -0.149
v 0.067999992 -0.559 -0.149
v 0.067999992 -0.501 -0.063000015
v -0.067999992 -0.559 -0.149
v -0.067999992 -0.58299999 -0.239
v 0.067999992 -0.58299999 -0.239
v 0.067999992 -0.559 -0.149
v -0.067999992 -0.58299999 -0.239
v -0.067999992 -0.585 -0.339
v 0.067999992 -0.585 -0.339
v 0.067999992 -0.58299999 -0.239
v -0.067999992 0.0018466187 -0.0010000076
v 0.067999992 0.0018466187 -0.0010000076
v 0.067999992 0.0020713234 -0.0003458252
v 0.067999992 0.0020713234 0.00034585571
v 0.067999992 0.0018466187 0.001
v -0.067999992 0.0018466187 0.001
v -0.067999992 0.0020713234 0.00034585571
v -0.067999992 0.0020713234 -0.0003458252
v -0.067999992 -0.585 -0.339
v -0.067999992 -0.58299999 -0.339
v 0.067999992 -0.58299999 -0.339
v 0.067999992 -0.585 -0.339
v 0.067999992 0.0018466187 0.001
v 0.067999992 0.0020713234 0.00034585571
v 0.067999992 0.0020713234 -0.0003458252
v 0.067999992 0.0018466187 -0.0010000076
v 0.067999992 0.0070000076 -0.0010000076
v 0.067999992 0.0070000076 0.001
v -0.067999992 -0.0018466187 -0.0010000076
v 0.067999992 -0.0018466187 -0.0010000076
v 0.067999992 -0.365 -0.0010000076
v -0.067999992 -0.365 -0.0010000076
v -0.067999992 0.0018466187 0.001
v 0.067999992 0.0018466187 0.001
v 0.067999992 0.0070000076 0.001
v -0.067999992 0.0070000076 0.001
v -0.067999992 -0.0018466187 0.001
v -0.067999992 -0.0020713234 0.00034585571
v -0.067999992 -0.0020713234 -0.0003458252
v -0.067999992 -0.0018466187 -0.0010000076
v -0.067999992 -0.365 -0.0010000076
v -0.067999992 -0.421 -0.013000015
v -0.067999992 -0.499 -0.064999985
v -0.067999992 -0.55700001 -0.14999998
v -0.067999992 -0.581 -0.239
v -0.067999992 -0.58299999 -0.339
v -0.067999992 -0.585 -0.339
v -0.067999992 -0.58299999 -0.239
v -0.067999992 -0.559 -0.149
v -0.067999992 -0.501 -0.063000015
v -0.067999992 -0.422 -0.011000008
v -0.067999992 -0.365 0.001
v -0.067999992 0.0070000076 -0.0010000076
v -0.067999992 0.0070000076 0.001
v 0.067999992 0.0070000076 0.001
v 0.067999992 0.0070000076 -0.0010000076
v 0.067999992 -0.0018466187 0.001
v -0.067999992 -0.0018466187 0.001
v -0.067999992 -0.365 0.001
v 0.067999992 -0.365 0.001
v 0.067999992 0.0018466187 -0.0010000076
v -0.067999992 0.0018466187 -0.0010000076
v -0.067999992 0.0070000076 -0.0010000076
v 0.067999992 0.0070000076 -0.0010000076
v 0.067999992 -0.0018466187 -0.0010000076
v 0.067999992 -0.0020713234 -0.0003458252
v 0.067999992 -0.0020713234 0.00034585571
v 0.067999992 -0.0018466187 0.001
v 0.067999992 -0.365 0.001
v 0.067999992 -0.422 -0.011000008
v 0.067999992 -0.501 -0.063000015
v 0.067999992 -0.559 -0.149
v 0.067999992 -0.58299999 -0.239
v 0.067999992 -0.585 -0.339
v 0.067999992 -0.58299999 -0.339
v 0.067999992 -0.581 -0.239
v 0.067999992 -0.55700001 -0.14999998
v 0.067999992 -0.499 -0.064999985
v 0.067999992 -0.421 -0.013000015
v 0.067999992 -0.365 -0.0010000076
v -0.067999992 0.0018466187 -0.0010000076
v -0.067999992 0.0020713234 -0.0003458252
v -0.067999992 0.0020713234 0.00034585571
v -0.067999992 0.0018466187 0.001
v -0.067999992 0.0070000076 0.001
v -0.067999992 0.0070000076 -0.0010000076
v 0.067999992 -0.0018466187 -0.0010000076
v -0.067999992 -0.0018466187 -0.0010000076
v -0.067999992 -0.0020713234 -0.0003458252
v -0.067999992 -0.0020713234 0.00034585571
v -0.067999992 -0.0018466187 0.001
v 0.067999992 -0.0018466187 0.001
v 0.067999992 -0.0020713234 0.00034585571
v 0.067999992 -0.0020713234 -0.0003458252
f 1 2 4
f 4 2 3
f 5 6 8
f 8 6 7
f 9 10 12
f 12 10 11
f 13 14 16
f 16 14 15
f 17 18 20
f 20 18 19
f 21 22 24
f 24 22 23
f 25 26 28
f 28 26 27
f 29 30 32
f 32 30 31
f 33 34 36
f 36 34 35
f 37 38 40
f 40 38 39
f 41 42 48
f 48 42 43
f 48 43 47
f 47 43 44
f 47 44 46
f 46 44 45
f 49 50 52
f 52 50 51
f 53 54 58
f 58 54 55
f 58 55 57
f 57 55 56
f 60 61 59
f 59 61 62
f 64 65 63
f 63 65 66
f 67 68 82
f 82 68 69
f 82 69 71
f 71 69 70
f 82 71 81
f 81 71 72
f 81 72 80
f 80 72 73
f 80 73 79
f 79 73 74
f 79 74 78
f 78 74 75
f 78 75 76
f 76 77 78
f 83 84 86
f 86 84 85
f 88 89 87
f 87 89 90
f 92 93 91
f 91 93 94
f 95 96 110
f 110 96 97
f 110 97 99
f 99 97 98
f 99 100 110
f 110 100 109
f 109 100 101
f 109 101 108
f 108 101 102
f 108 102 107
f 107 102 103
f 107 103 106
f 106 103 105
f 105 103 104
f 111 112 116
f 116 112 113
f 116 113 115
f 115 113 114
f 117 118 124
f 124 118 119
f 124 119 123
f 123 119 120
f 123 120 122
f 122 120 121
v -0.07 -0.559 -0.149
v -0.07 -0.58299999 -0.239
v -0.067999992 -0.58299999 -0.239
v -0.067999992 -0.559 -0.149
v -0.07 -0.501 -0.063000015
v -0.07 -0.559 -0.149
v -0.067999992 -0.559 -0.149
v -0.067999992 -0.501 -0.063000015
v -0.07 -0.58299999 -0.239
v -0.07 -0.585 -0.339
v -0.067999992 -0.585 -0.339
v -0.067999992 -0.58299999 -0.239
v -0.07 -0.422 -0.011000008
v -0.07 -0.501 -0.063000015
v -0.067999992 -0.501 -0.063000015
v -0.067999992 -0.422 -0.011000008
v -0.07 -0.285 -0.339
v -0.067999992 -0.285 -0.339
v -0.067999992 -0.585 -0.339
v -0.07 -0.585 -0.339
v -0.07 -0.365 0.001
v -0.07 -0.422 -0.011000008
v -0.067999992 -0.422 -0.011000008
v -0.067999992 -0.365 0.001
v -0.067999992 -0.285 -0.339
v -0.07 -0.285 -0.339
v -0.07 -0.285 -0.189
v -0.067999992 -0.285 -0.189
v -0.07 -0.21 -0.189
v -0.067999992 -0.21 -0.189
v -0.067999992 -0.285 -0.189
v -0.07 -0.285 -0.189
v -0.07 0.0018466187 0.001
v -0.067999992 0.0018466187 0.001
v -0.067999992 0.0070000076 0.001
v -0.07 0.0070000076 0.001
v -0.07 -0.0018466187 0.001
v -0.07 -0.0013351631 -0.0016208878
v -0.07 0.0013351631 -0.0016208878
v -0.07 0.0018466187 0.001
v -0.07 0.0070000076 0.001
v -0.07 0.0070000076 -0.049
v -0.07 -0.21 -0.049
v -0.07 -0.21 -0.189
v -0.07 -0.285 -0.189
v -0.07 -0.285 -0.339
v -0.07 -0.585 -0.339
v -0.07 -0.58299999 -0.239
v -0.07 -0.559 -0.149
v -0.07 -0.501 -0.063000015
v -0.07 -0.422 -0.011000008
v -0.07 -0.365 0.001
v -0.067999992 0.0070000076 -0.049
v -0.07 0.0070000076 -0.049
v -0.07 0.0070000076 0.001
v -0.067999992 0.0070000076 0.001
v -0.07 -0.035 -0.284
v -0.067999992 -0.035 -0.284
v -0.067999992 0.0070000076 -0.284
v -0.07 0.0070000076 -0.284
v -0.067999992 -0.21 -0.049
v -0.067999992 -0.21 -0.189
v -0.07 -0.21 -0.189
v -0.07 -0.21 -0.049
v -0.067999992 0.0070000076 -0.284
v -0.067999992 -0.035 -0.284
v -0.067999992 -0.035 -0.339
v -0.067999992 0.0070000076 -0.339
v -0.067999992 0.0070000076 -0.049
v -0.067999992 -0.21 -0.049
v -0.07 -0.21 -0.049
v -0.07 0.0070000076 -0.049
v -0.07 0.0070000076 -0.284
v -0.067999992 0.0070000076 -0.284
v -0.067999992 0.0070000076 -0.339
v -0.07 0.0070000076 -0.339
v -0.067999992 -0.0018466187 0.001
v -0.07 -0.0018466187 0.001
v -0.07 -0.365 0.001
v -0.067999992 -0.365 0.001
v -0.067999992 -0.035 -0.284
v -0.07 -0.035 -0.284
v -0.07 -0.035 -0.339
v -0.067999992 -0.035 -0.339
v -0.067999992 0.0018466187 0.001
v -0.067999992 0.0013351631 -0.0016208878
v -0.067999992 -0.0013351631 -0.0016208878
v -0.067999992 -0.0018466187 0.001
v -0.067999992 -0.365 0.001
v -0.067999992 -0.422 -0.011000008
v -0.067999992 -0.501 -0.063000015
v -0.067999992 -0.559 -0.149
v -0.067999992 -0.58299999 -0.239
v -0.067999992 -0.585 -0.339
v -0.067999992 -0.285 -0.339
v -0.067999992 -0.285 -0.189
v -0.067999992 -0.21 -0.189
v -0.067999992 -0.21 -0.049
v -0.067999992 0.0070000076 -0.049
v -0.067999992 0.0070000076 0.001
v -0.07 -0.035 -0.284
v -0.07 0.0070000076 -0.284
v -0.07 0.0070000076 -0.339
v -0.07 -0.035 -0.339
v -0.07 0.0018466187 0.001
v -0.07 0.0013351631 -0.0016208878
v -0.07 -0.0013351631 -0.0016208878
v -0.07 -0.0018466187 0.001
v -0.067999992 -0.0018466187 0.001
v -0.067999992 -0.0013351631 -0.0016208878
v -0.067999992 0.0013351631 -0.0016208878
v -0.067999992 0.0018466187 0.001
v -0.067999992 -0.035 -0.339
v -0.07 -0.035 -0.339
v -0.07 0.0070000076 -0.339
v -0.067999992 0.0070000076 -0.339
f 125 126 128
f 128 126 127
f 129 130 132
f 132 130 131
f 133 134 136
f 136 134 135
f 137 138 140
f 140 138 139
f 142 143 141
f 141 143 144
f 145 146 148
f 148 146 147
f 150 151 149
f 149 151 152
f 154 155 153
f 153 155 156
f 158 159 157
f 157 159 160
f 176 161 167
f 167 161 162
f 167 162 166
f 166 162 163
f 166 163 165
f 165 163 164
f 168 169 167
f 167 169 175
f 167 175 176
f 170 172 169
f 169 172 173
f 169 173 174
f 170 171 172
f 174 175 169
f 178 179 177
f 177 179 180
f 181 182 184
f 184 182 183
f 185 186 188
f 188 186 187
f 190 191 189
f 189 191 192
f 194 195 193
f 193 195 196
f 198 199 197
f 197 199 200
f 202 203 201
f 201 203 204
f 206 207 205
f 205 207 208
f 209 210 224
f 224 210 223
f 223 210 211
f 223 211 222
f 222 211 212
f 222 212 213
f 213 214 222
f 222 214 220
f 222 220 221
f 214 215 220
f 220 215 216
f 220 216 217
f 218 219 217
f 217 219 220
f 226 227 225
f 225 227 228
f 236 229 235
f 235 229 230
f 235 230 234
f 234 230 231
f 234 231 233
f 233 231 232
f 238 239 237
f 237 239 240
v 0.07 0.0018466187 0.001
v 0.07 0.0013351631 -0.0016208878
v 0.07 -0.0013351631 -0.0016208878
v 0.07 -0.0018466187 0.001
v 0.07 -0.365 0.001
v 0.07 -0.422 -0.011000008
v 0.07 -0.501 -0.063000015
v 0.07 -0.559 -0.149
v 0.07 -0.58299999 -0.239
v 0.07 -0.585 -0.339
v 0.07 -0.285 -0.339
v 0.07 -0.285 -0.189
v 0.07 -0.225 -0.189
v 0.07 -0.225 -0.099
v 0.07 0.0070000076 -0.099
v 0.07 0.0070000076 0.001
v 0.067999992 0.0018466187 0.001
v 0.067999992 0.0013351631 -0.0016208878
v 0.067999992 -0.0013351631 -0.0016208878
v 0.067999992 -0.0018466187 0.001
v 0.07 -0.0018466187 0.001
v 0.07 -0.0013351631 -0.0016208878
v 0.07 0.0013351631 -0.0016208878
v 0.07 0.0018466187 0.001
v 0.067999992 -0.559 -0.149
v 0.067999992 -0.58299999 -0.239
v 0.07 -0.58299999 -0.239
v 0.07 -0.559 -0.149
v 0.067999992 -0.501 -0.063000015
v 0.067999992 -0.559 -0.149
v 0.07 -0.559 -0.149
v 0.07 -0.501 -0.063000015
v 0.067999992 -0.58299999 -0.239
v 0.067999992 -0.585 -0.339
v 0.07 -0.585 -0.339
v 0.07 -0.58299999 -0.239
v 0.067999992 -0.422 -0.011000008
v 0.067999992 -0.501 -0.063000015
v 0.07 -0.501 -0.063000015
v 0.07 -0.422 -0.011000008
v 0.067999992 -0.285 -0.339
v 0.07 -0.285 -0.339
v 0.07 -0.585 -0.339
v 0.067999992 -0.585 -0.339
v 0.067999992 -0.365 0.001
v 0.067999992 -0.422 -0.011000008
v 0.07 -0.422 -0.011000008
v 0.07 -0.365 0.001
v 0.07 -0.285 -0.339
v 0.067999992 -0.285 -0.339
v 0.067999992 -0.285 -0.189
v 0.07 -0.285 -0.189
v 0.067999992 -0.225 -0.189
v 0.07 -0.225 -0.189
v 0.07 -0.285 -0.189
v 0.067999992 -0.285 -0.189
v 0.067999992 0.0018466187 0.001
v 0.07 0.0018466187 0.001
v 0.07 0.0070000076 0.001
v 0.067999992 0.0070000076 0.001
v 0.067999992 -0.0018466187 0.001
v 0.067999992 -0.0013351631 -0.0016208878
v 0.067999992 0.0013351631 -0.0016208878
v 0.067999992 0.0018466187 0.001
v 0.067999992 0.0070000076 0.001
v 0.067999992 0.0070000076 -0.099
v 0.067999992 -0.225 -0.099
v 0.067999992 -0.225 -0.189
v 0.067999992 -0.285 -0.189
v 0.067999992 -0.285 -0.339
v 0.067999992 -0.585 -0.339
v 0.067999992 -0.58299999 -0.239
v 0.067999992 -0.559 -0.149
v 0.067999992 -0.501 -0.063000015
v 0.067999992 -0.422 -0.011000008
v 0.067999992 -0.365 0.001
v 0.07 0.0070000076 -0.099
v 0.067999992 0.0070000076 -0.099
v 0.067999992 0.0070000076 0.001
v 0.07 0.0070000076 0.001
v 0.07 -0.225 -0.099
v 0.07 -0.225 -0.189
v 0.067999992 -0.225 -0.189
v 0.067999992 -0.225 -0.099
v 0.07 0.0070000076 -0.099
v 0.07 -0.225 -0.099
v 0.067999992 -0.225 -0.099
v 0.067999992 0.0070000076 -0.099
v 0.07 -0.0018466187 0.001
v 0.067999992 -0.0018466187 0.001
v 0.067999992 -0.365 0.001
v 0.07 -0.365 0.001
f 241 242 256
f 256 242 255
f 255 242 243
f 255 243 254
f 254 243 244
f 254 244 245
f 245 246 254
f 254 246 247
f 254 247 252
f 252 247 248
f 252 248 249
f 250 251 249
f 249 251 252
f 252 253 254
f 264 257 263
f 263 257 258
f 263 258 262
f 262 258 259
f 262 259 261
f 261 259 260
f 265 266 268
f 268 266 267
f 269 270 272
f 272 270 271
f 273 274 276
f 276 274 275
f 277 278 280
f 280 278 279
f 282 283 281
f 281 283 284
f 285 286 288
f 288 286 287
f 290 291 289
f 289 291 292
f 294 295 293
f 293 295 296
f 298 299 297
f 297 299 300
f 316 301 307
f 307 301 302
f 307 302 306
f 306 302 303
f 306 303 305
f 305 303 304
f 308 309 307
f 307 309 314
f 307 314 315
f 310 312 309
f 309 312 313
f 309 313 314
f 310 311 312
f 315 316 307
f 318 319 317
f 317 319 320
f 321 322 324
f 324 322 323
f 326 327 325
f 325 327 328
f 330 331 329
f 329 331 332
