v 0.02 -0.086000004 0.014999995
v 0.02 -0.086000004 0.012000003
v 0.02 0.086000004 0.012000003
v 0.02 0.086000004 0.014999995
v 0.02 0.086000004 0.014999995
v 0.02 0.086000004 0.012000003
v -0.02 0.086000004 0.012000003
v -0.02 0.086000004 0.014999995
v -0.02 0.086000004 0.014999995
v -0.02 0.086000004 0.012000003
v -0.02 -0.086000004 0.012000003
v -0.02 -0.086000004 0.014999995
v -0.02 -0.086000004 0.014999995
v -0.02 -0.086000004 0.012000003
v 0.02 -0.086000004 0.012000003
v 0.02 -0.086000004 0.014999995
v 0.02 0.086000004 0.012000003
v 0.02 -0.086000004 0.012000003
v -0.02 -0.086000004 0.012000003
v -0.02 0.086000004 0.012000003
v 0.02 -0.086000004 0.014999995
v 0.02 0.086000004 0.014999995
v -0.02 0.086000004 0.014999995
v -0.02 -0.086000004 0.014999995
f 1 2 4
f 4 2 3
f 5 6 8
f 8 6 7
f 9 10 12
f 12 10 11
f 13 14 16
f 16 14 15
f 18 19 17
f 17 19 20
f 22 23 21
f 21 23 24
v 0.062000008 -0.023999996 0.014999995
v 0.062000008 -0.023999996 0.012000003
v 0.062000008 -0.01 0.012000003
v 0.062000008 -0.01 0.014999995
v 0.062000008 -0.01 0.014999995
v 0.062000008 -0.01 0.012000003
v 0.017999992 -0.01 0.012000003
v 0.017999992 -0.01 0.014999995
v 0.017999992 -0.01 0.014999995
v 0.017999992 -0.01 0.012000003
v 0.017999992 -0.023999996 0.012000003
v 0.017999992 -0.023999996 0.014999995
v 0.017999992 -0.023999996 0.014999995
v 0.017999992 -0.023999996 0.012000003
v 0.062000008 -0.023999996 0.012000003
v 0.062000008 -0.023999996 0.014999995
v 0.062000008 -0.01 0.012000003
v 0.062000008 -0.023999996 0.012000003
v 0.017999992 -0.023999996 0.012000003
v 0.017999992 -0.01 0.012000003
v 0.062000008 -0.023999996 0.014999995
v 0.062000008 -0.01 0.014999995
v 0.017999992 -0.01 0.014999995
v 0.017999992 -0.023999996 0.014999995
f 25 26 28
f 28 26 27
f 29 30 32
f 32 30 31
f 33 34 36
f 36 34 35
f 37 38 40
f 40 38 39
f 42 43 41
f 41 43 44
f 46 47 45
f 45 47 48
