v -0.40143984 -0.008429536 0.04
v -0.0023181907 -0.034923144 0.04
v -0.0023181907 -0.034923144 0.047999992
v -0.40143984 -0.008429536 0.047999992
v -0.39680346 0.061416752 0.04
v -0.40143984 -0.008429536 0.04
v -0.40143984 -0.008429536 0.047999992
v -0.39680346 0.061416752 0.047999992
v 0.0023181907 0.034923144 0.047999992
v -0.39680346 0.061416752 0.047999992
v -0.40143984 -0.008429536 0.047999992
v -0.0023181907 -0.034923144 0.047999992
v -0.0023181907 -0.034923144 0.04
v 0.0023181907 0.034923144 0.04
v 0.0023181907 0.034923144 0.047999992
v -0.0023181907 -0.034923144 0.047999992
v 0.0023181907 0.034923144 0.04
v -0.39680346 0.061416752 0.04
v -0.39680346 0.061416752 0.047999992
v 0.0023181907 0.034923144 0.047999992
v -0.39680346 0.061416752 0.04
v 0.0023181907 0.034923144 0.04
v -0.0023181907 -0.034923144 0.04
v -0.40143984 -0.008429536 0.04
f 1 2 4
f 4 2 3
f 5 6 8
f 8 6 7
f 10 11 9
f 9 11 12
f 13 14 16
f 16 14 15
f 17 18 20
f 20 18 19
f 22 23 21
f 21 23 24
v -0.39680346 0.061416752 0.047999992
v -0.40720022 0.060548518 0.047999992
v -0.41687918 0.056654333 0.047999992
v -0.42498029 0.050080252 0.047999992
v -0.43078376 0.041410414 0.047999992
v -0.4337739 0.03141512 0.047999992
v -0.43368505 0.020982541 0.047999992
v -0.43052508 0.011039649 0.047999992
v -0.42457476 0.0024699025 0.047999992
v -0.41636285 -0.0039652499 0.047999992
v -0.40661897 -0.0076939556 0.047999992
v -0.39620892 -0.008384973 0.047999992
v -0.38605768 -0.0059769001 0.047999992
v -0.37706724 -0.00068363672 0.047999992
v -0.3700364 0.0070244234 0.047999992
v -0.36558994 0.016462402 0.047999992
v -0.36412292 0.026791703 0.047999992
v -0.36576567 0.037094528 0.047999992
v -0.37037227 0.046455383 0.047999992
v -0.37753336 0.054042566 0.047999992
v -0.38661267 0.059181921 0.047999992
v -0.39680346 0.061416752 0.04
v -0.38661267 0.059181921 0.04
v -0.37753336 0.054042566 0.04
v -0.37037227 0.046455383 0.04
v -0.36576567 0.037094528 0.04
v -0.36412292 0.026791703 0.04
v -0.36558994 0.016462402 0.04
v -0.3700364 0.0070244234 0.04
v -0.37706724 -0.00068363672 0.04
v -0.38605768 -0.0059769001 0.04
v -0.39620892 -0.008384973 0.04
v -0.40661897 -0.0076939556 0.04
v -0.41636285 -0.0039652499 0.04
v -0.42457476 0.0024699025 0.04
v -0.43052508 0.011039649 0.04
v -0.43368505 0.020982541 0.04
v -0.4337739 0.03141512 0.04
v -0.43078376 0.041410414 0.04
v -0.42498029 0.050080252 0.04
v -0.41687918 0.056654333 0.04
v -0.40720022 0.060548518 0.04
v -0.39680346 0.061416752 0.047999992
v -0.38661267 0.059181921 0.047999992
v -0.37753336 0.054042566 0.047999992
v -0.37037227 0.046455383 0.047999992
v -0.36576567 0.037094528 0.047999992
v -0.36412292 0.026791703 0.047999992
v -0.36558994 0.016462402 0.047999992
v -0.3700364 0.0070244234 0.047999992
v -0.37706724 -0.00068363672 0.047999992
v -0.38605768 -0.0059769001 0.047999992
v -0.39620892 -0.008384973 0.047999992
v -0.40661897 -0.0076939556 0.047999992
v -0.41636285 -0.0039652499 0.047999992
v -0.42457476 0.0024699025 0.047999992
v -0.43052508 0.011039649 0.047999992
v -0.43368505 0.020982541 0.047999992
v -0.4337739 0.03141512 0.047999992
v -0.43078376 0.041410414 0.047999992
v -0.42498029 0.050080252 0.047999992
v -0.41687918 0.056654333 0.047999992
v -0.40720022 0.060548518 0.047999992
v -0.39680346 0.061416752 0.04
v -0.40720022 0.060548518 0.04
v -0.41687918 0.056654333 0.04
v -0.42498029 0.050080252 0.04
v -0.43078376 0.041410414 0.04
v -0.4337739 0.03141512 0.04
v -0.43368505 0.020982541 0.04
v -0.43052508 0.011039649 0.04
v -0.42457476 0.0024699025 0.04
v -0.41636285 -0.0039652499 0.04
v -0.40661897 -0.0076939556 0.04
v -0.39620892 -0.008384973 0.04
v -0.38605768 -0.0059769001 0.04
v -0.37706724 -0.00068363672 0.04
v -0.3700364 0.0070244234 0.04
v -0.36558994 0.016462402 0.04
v -0.36412292 0.026791703 0.04
v -0.36576567 0.037094528 0.04
v -0.37037227 0.046455383 0.04
v -0.37753336 0.054042566 0.04
v -0.38661267 0.059181921 0.04
v -0.39680346 0.061416752 0.04
v -0.39680346 0.061416752 0.047999992
f 45 25 31
f 31 25 26
f 31 26 27
f 27 28 31
f 31 28 29
f 31 29 30
f 32 40 31
f 31 40 41
f 31 41 42
f 40 32 39
f 39 32 33
f 39 33 38
f 38 33 34
f 38 34 37
f 37 34 35
f 37 35 36
f 42 43 31
f 31 43 44
f 31 44 45
f 66 46 61
f 61 46 47
f 61 47 48
f 48 49 61
f 61 49 50
f 61 50 51
f 51 52 61
f 61 52 60
f 60 52 53
f 60 53 59
f 59 53 54
f 59 54 58
f 58 54 55
f 58 55 57
f 57 55 56
f 62 63 61
f 61 63 64
f 61 64 65
f 65 66 61
f 68 108 67
f 67 108 109
f 110 88 87
f 87 88 89
f 87 89 86
f 86 89 90
f 86 90 85
f 85 90 91
f 85 91 84
f 84 91 92
f 84 92 83
f 83 92 93
f 83 93 82
f 82 93 94
f 82 94 81
f 81 94 95
f 81 95 80
f 80 95 96
f 80 96 79
f 79 96 97
f 79 97 78
f 78 97 98
f 78 98 77
f 77 98 99
f 77 99 76
f 76 99 100
f 76 100 75
f 75 100 101
f 75 101 74
f 74 101 102
f 74 102 73
f 73 102 103
f 73 103 72
f 72 103 104
f 72 104 71
f 71 104 105
f 71 105 70
f 70 105 106
f 70 106 69
f 69 106 107
f 69 107 68
f 68 107 108
v 0.0023181907 0.034923144 0.047999992
v -0.0080786132 0.034054913 0.047999992
v -0.017757514 0.030160724 0.047999992
v -0.025858665 0.023586645 0.047999992
v -0.031662093 0.014916805 0.047999992
v -0.034652236 0.0049215111 0.047999992
v -0.034563384 -0.0055110683 0.047999992
v -0.031403434 -0.015453959 0.047999992
v -0.025453117 -0.024023706 0.047999992
v -0.017241201 -0.030458858 0.047999992
v -0.007497289 -0.034187566 0.047999992
v 0.0029126934 -0.034878579 0.047999992
v 0.013063963 -0.032470508 0.047999992
v 0.022054447 -0.027177247 0.047999992
v 0.029085243 -0.019469185 0.047999992
v 0.033531692 -0.010031205 0.047999992
v 0.034998712 0.00029809636 0.047999992
v 0.033355954 0.010600921 0.047999992
v 0.028749399 0.019961774 0.047999992
v 0.02158827 0.027548959 0.047999992
v 0.012509014 0.032688311 0.047999992
v 0.0023181907 0.034923144 0.04
v 0.012509014 0.032688311 0.04
v 0.02158827 0.027548959 0.04
v 0.028749399 0.019961774 0.04
v 0.033355954 0.010600921 0.04
v 0.034998712 0.00029809636 0.04
v 0.033531692 -0.010031205 0.04
v 0.029085243 -0.019469185 0.04
v 0.022054447 -0.027177247 0.04
v 0.013063963 -0.032470508 0.04
v 0.0029126934 -0.034878579 0.04
v -0.007497289 -0.034187566 0.04
v -0.017241201 -0.030458858 0.04
v -0.025453117 -0.024023706 0.04
v -0.031403434 -0.015453959 0.04
v -0.034563384 -0.0055110683 0.04
v -0.034652236 0.0049215111 0.04
v -0.031662093 0.014916805 0.04
v -0.025858665 0.023586645 0.04
v -0.017757514 0.030160724 0.04
v -0.0080786132 0.034054913 0.04
v 0.0023181907 0.034923144 0.047999992
v 0.012509014 0.032688311 0.047999992
v 0.02158827 0.027548959 0.047999992
v 0.028749399 0.019961774 0.047999992
v 0.033355954 0.010600921 0.047999992
v 0.034998712 0.00029809636 0.047999992
v 0.033531692 -0.010031205 0.047999992
v 0.029085243 -0.019469185 0.047999992
v 0.022054447 -0.027177247 0.047999992
v 0.013063963 -0.032470508 0.047999992
v 0.0029126934 -0.034878579 0.047999992
v -0.007497289 -0.034187566 0.047999992
v -0.017241201 -0.030458858 0.047999992
v -0.025453117 -0.024023706 0.047999992
v -0.031403434 -0.015453959 0.047999992
v -0.034563384 -0.0055110683 0.047999992
v -0.034652236 0.0049215111 0.047999992
v -0.031662093 0.014916805 0.047999992
v -0.025858665 0.023586645 0.047999992
v -0.017757514 0.030160724 0.047999992
v -0.0080786132 0.034054913 0.047999992
v 0.0023181907 0.034923144 0.04
v -0.0080786132 0.034054913 0.04
v -0.017757514 0.030160724 0.04
v -0.025858665 0.023586645 0.04
v -0.031662093 0.014916805 0.04
v -0.034652236 0.0049215111 0.04
v -0.034563384 -0.0055110683 0.04
v -0.031403434 -0.015453959 0.04
v -0.025453117 -0.024023706 0.04
v -0.017241201 -0.030458858 0.04
v -0.007497289 -0.034187566 0.04
v 0.0029126934 -0.034878579 0.04
v 0.013063963 -0.032470508 0.04
v 0.022054447 -0.027177247 0.04
v 0.029085243 -0.019469185 0.04
v 0.033531692 -0.010031205 0.04
v 0.034998712 0.00029809636 0.04
v 0.033355954 0.010600921 0.04
v 0.028749399 0.019961774 0.04
v 0.02158827 0.027548959 0.04
v 0.012509014 0.032688311 0.04
v 0.0023181907 0.034923144 0.04
v 0.0023181907 0.034923144 0.047999992
f 131 111 117
f 117 111 112
f 117 112 113
f 113 114 117
f 117 114 115
f 117 115 116
f 118 126 117
f 117 126 127
f 117 127 128
f 126 118 125
f 125 118 119
f 125 119 124
f 124 119 120
f 124 120 123
f 123 120 121
f 123 121 122
f 128 129 117
f 117 129 130
f 117 130 131
f 152 132 147
f 147 132 133
f 147 133 134
f 134 135 147
f 147 135 136
f 147 136 137
f 137 138 147
f 147 138 146
f 146 138 139
f 146 139 145
f 145 139 140
f 145 140 144
f 144 140 141
f 144 141 143
f 143 141 142
f 148 149 147
f 147 149 150
f 147 150 151
f 151 152 147
f 154 194 153
f 153 194 195
f 196 174 173
f 173 174 175
f 173 175 172
f 172 175 176
f 172 176 171
f 171 176 177
f 171 177 170
f 170 177 178
f 170 178 169
f 169 178 179
f 169 179 168
f 168 179 180
f 168 180 167
f 167 180 181
f 167 181 166
f 166 181 182
f 166 182 165
f 165 182 183
f 165 183 164
f 164 183 184
f 164 184 163
f 163 184 185
f 163 185 162
f 162 185 186
f 162 186 161
f 161 186 187
f 161 187 160
f 160 187 188
f 160 188 159
f 159 188 189
f 159 189 158
f 158 189 190
f 158 190 157
f 157 190 191
f 157 191 156
f 156 191 192
f 156 192 155
f 155 192 193
f 155 193 154
f 154 193 194
