v 0.205 -0.285 0.005
v 0.205 -0.32315624 -0.0041099167
v 0.205 -0.35473753 -0.027380333
v 0.205 -0.37474161 -0.061125336
v 0.205 -0.38 -0.1
v 0.20799999 -0.38 -0.1
v 0.20799999 -0.37474161 -0.061125336
v 0.20799999 -0.35473753 -0.027380333
v 0.20799999 -0.32315624 -0.0041099167
v 0.20799999 -0.285 0.005
v 0.205 -0.38 -0.1
v 0.205 -0.44 -0.28
v 0.20799999 -0.44 -0.28
v 0.20799999 -0.38 -0.1
v 0.205 -0.14 -0.28
v 0.20799999 -0.14 -0.28
v 0.20799999 -0.44 -0.28
v 0.205 -0.44 -0.28
v 0.205 0 0.005
v 0.205 -0.285 0.005
v 0.20799999 -0.285 0.005
v 0.20799999 0 0.005
v 0.20799999 -0.065 -0.055
v 0.20799999 0 -0.055
v 0.20799999 0 0.005
v 0.20799999 -0.285 0.005
v 0.20799999 -0.32315624 -0.0041099167
v 0.20799999 -0.35473753 -0.027380333
v 0.20799999 -0.37474161 -0.061125336
v 0.20799999 -0.38 -0.1
v 0.20799999 -0.44 -0.28
v 0.20799999 -0.14 -0.28
v 0.20799999 -0.14 -0.195
v 0.20799999 -0.065 -0.195
v 0.20799999 -0.14 -0.195
v 0.20799999 -0.14 -0.28
v 0.205 -0.14 -0.28
v 0.205 -0.14 -0.195
v 0.205 -0.065 -0.195
v 0.20799999 -0.065 -0.195
v 0.20799999 -0.14 -0.195
v 0.205 -0.14 -0.195
v 0.205 0 -0.055
v 0.205 -0.065 -0.055
v 0.205 -0.065 -0.195
v 0.205 -0.14 -0.195
v 0.205 -0.14 -0.28
v 0.205 -0.44 -0.28
v 0.205 -0.38 -0.1
v 0.205 -0.37474161 -0.061125336
v 0.205 -0.35473753 -0.027380333
v 0.205 -0.32315624 -0.0041099167
v 0.205 -0.285 0.005
v 0.205 0 0.005
v 0.20799999 0 -0.055
v 0.205 0 -0.055
v 0.205 0 0.005
v 0.20799999 0 0.005
v 0.20799999 -0.065 -0.055
v 0.20799999 -0.065 -0.195
v 0.205 -0.065 -0.195
v 0.205 -0.065 -0.055
v 0.20799999 0 -0.055
v 0.20799999 -0.065 -0.055
v 0.205 -0.065 -0.055
v 0.205 0 -0.055
f 10 1 9
f 9 1 2
f 9 2 8
f 8 2 3
f 8 3 7
f 7 3 4
f 7 4 6
f 6 4 5
f 11 12 14
f 14 12 13
f 16 17 15
f 15 17 18
f 19 20 22
f 22 20 21
f 24 25 23
f 23 25 26
f 23 26 33
f 33 26 30
f 33 30 31
f 27 28 26
f 26 28 29
f 26 29 30
f 31 32 33
f 33 34 23
f 35 36 38
f 38 36 37
f 40 41 39
f 39 41 42
f 43 44 54
f 54 44 53
f 53 44 46
f 53 46 49
f 49 46 48
f 48 46 47
f 44 45 46
f 49 50 53
f 53 50 51
f 53 51 52
f 56 57 55
f 55 57 58
f 59 60 62
f 62 60 61
f 64 65 63
f 63 65 66
