v 0.066140153 0.0076154865 0.075611208
v 0.066160153 0.0076154865 0.075611208
v 0.066160153 0.0073654865 0.075611208
v 0.066140153 0.0073654865 0.075611208
v 0.066140153 0.0061404865 0.075336208
v 0.066160153 0.0061404865 0.075336208
v 0.066160153 0.0061404865 0.075136208
v 0.066140153 0.0061404865 0.075136208
v 0.066140153 0.0071154865 0.075611208
v 0.066160153 0.0071154865 0.075611208
v 0.066160153 0.0068654865 0.075611208
v 0.066140153 0.0068654865 0.075611208
v 0.066340153 0.0081154865 0.076011208
v 0.066160153 0.0081154865 0.076011208
v 0.066160153 0.0081154865 0.075661208
v 0.066140153 0.0081154865 0.075661208
v 0.066140153 0.0081154865 0.076012208
v 0.066340153 0.0081154865 0.076012208
v 0.066990153 0.0062404865 0.075311208
v 0.066990153 0.0063819079 0.075369786
v 0.066990153 0.0064404865 0.075511208
v 0.066990153 0.0063819079 0.075652629
v 0.066990153 0.0062404865 0.075711208
v 0.066990153 0.0060990652 0.075652629
v 0.066990153 0.0060404865 0.075511208
v 0.066990153 0.0060990652 0.075369786
v 0.066140153 0.0073654866 0.073010208
v 0.066140153 0.0076154866 0.073010208
v 0.066340153 0.0076154866 0.073010208
v 0.066340153 0.0073654866 0.073010208
v 0.066340153 0.0063654865 0.076011208
v 0.066340153 0.0066154865 0.076011208
v 0.066340153 0.0066154865 0.076012208
v 0.066340153 0.0063654865 0.076012208
v 0.066140153 0.0087414865 0.075386208
v 0.066140153 0.0087414865 0.075136208
v 0.066140153 0.0083404865 0.075136208
v 0.066140153 0.0083404865 0.075336208
v 0.066140153 0.0083904865 0.075386208
v 0.066140153 0.0061404866 0.074386208
v 0.066160153 0.0061404866 0.074386208
v 0.066160153 0.0061404866 0.074136208
v 0.066140153 0.0061404866 0.074136208
v 0.066140153 0.0071154866 0.073411208
v 0.066160153 0.0071154866 0.073411208
v 0.066160153 0.0071154866 0.073011208
v 0.066340153 0.0071154866 0.073011208
v 0.066340153 0.0071154866 0.073010208
v 0.066140153 0.0071154866 0.073010208
v 0.066340153 0.0066154866 0.073011208
v 0.066340153 0.0063654866 0.073011208
v 0.066340153 0.0063654866 0.073010208
v 0.066340153 0.0066154866 0.073010208
v 0.066340153 0.0057404865 0.073636208
v 0.066340153 0.0057404865 0.073886208
v 0.066340153 0.0057394867 0.073886208
v 0.066340153 0.0057394867 0.073636208
v 0.066140153 0.0068654865 0.075611208
v 0.066160153 0.0068654865 0.075611208
v 0.066160153 0.0068654865 0.076011208
v 0.066340153 0.0068654865 0.076011208
v 0.066340153 0.0068654865 0.076012208
v 0.066140153 0.0068654865 0.076012208
v 0.066140153 0.0087414865 0.074886208
v 0.066140153 0.0087414865 0.074636208
v 0.066140153 0.0083404866 0.074636208
v 0.066140153 0.0083404865 0.074886208
v 0.066140153 0.0087414865 0.074136208
v 0.066140153 0.0087414865 0.074386208
v 0.066340153 0.0087414865 0.074386208
v 0.066340153 0.0087414865 0.074136208
v 0.066140153 0.0068654865 0.076012208
v 0.066140153 0.0071154865 0.076012208
v 0.066140153 0.0071154865 0.075611208
v 0.066140153 0.0068654865 0.075611208
v 0.066140153 0.0087414865 0.075136208
v 0.066140153 0.0087414865 0.075386208
v 0.066340153 0.0087414865 0.075386208
v 0.066340153 0.0087414865 0.075136208
v 0.066140153 0.0073654865 0.075611208
v 0.066160153 0.0073654865 0.075611208
v 0.066160153 0.0073654865 0.076011208
v 0.066340153 0.0073654865 0.076011208
v 0.066340153 0.0073654865 0.076012208
v 0.066140153 0.0073654865 0.076012208
v 0.066340153 0.0073654866 0.073011208
v 0.066160153 0.0073654866 0.073011208
v 0.066160153 0.0073654866 0.073411208
v 0.066140153 0.0073654866 0.073411208
v 0.066140153 0.0073654866 0.073010208
v 0.066340153 0.0073654866 0.073010208
v 0.066140153 0.0083404865 0.074886208
v 0.066160153 0.0083404865 0.074886208
v 0.066160153 0.0087404866 0.074886208
v 0.066340153 0.0087404866 0.074886208
v 0.066340153 0.0087414865 0.074886208
v 0.066140153 0.0087414865 0.074886208
v 0.066140153 0.0083404865 0.075136208
v 0.066160153 0.0083404865 0.075136208
v 0.066160153 0.0083404865 0.075336208
v 0.066140153 0.0083404865 0.075336208
v 0.066140153 0.0076154865 0.076012208
v 0.066140153 0.0073654865 0.076012208
v 0.066340153 0.0073654865 0.076012208
v 0.066340153 0.0076154865 0.076012208
v 0.066340153 0.0087404866 0.075386208
v 0.066340153 0.0087404866 0.075136208
v 0.066340153 0.0087414865 0.075136208
v 0.066340153 0.0087414865 0.075386208
v 0.066340153 0.0066154866 0.073011208
v 0.066160153 0.0066154866 0.073011208
v 0.066160153 0.0068654866 0.073011208
v 0.066340153 0.0068654866 0.073011208
v 0.066340153 0.0071154866 0.073011208
v 0.066160153 0.0071154866 0.073011208
v 0.066160153 0.0073654866 0.073011208
v 0.066340153 0.0073654866 0.073011208
v 0.066340153 0.0076154866 0.073011208
v 0.066160153 0.0076154866 0.073011208
v 0.066160153 0.0078654866 0.073011208
v 0.066340153 0.0078654866 0.073011208
v 0.066340153 0.0081154866 0.073011208
v 0.066160153 0.0081154866 0.073011208
v 0.066160153 0.0087404867 0.073011208
v 0.067040153 0.0087404867 0.073011208
v 0.067040153 0.0057404866 0.073011208
v 0.066160153 0.0057404866 0.073011208
v 0.066160153 0.0063654866 0.073011208
v 0.066340153 0.0063654866 0.073011208
v 0.066340153 0.0071154866 0.073011208
v 0.066340153 0.0068654866 0.073011208
v 0.066340153 0.0068654866 0.073010208
v 0.066340153 0.0071154866 0.073010208
v 0.066140153 0.0081154865 0.075661208
v 0.066160153 0.0081154865 0.075661208
v 0.066160153 0.0080654865 0.075611208
v 0.066140153 0.0080654865 0.075611208
v 0.066340153 0.0087404866 0.075136208
v 0.066160153 0.0087404866 0.075136208
v 0.066160153 0.0083404865 0.075136208
v 0.066140153 0.0083404865 0.075136208
v 0.066140153 0.0087414865 0.075136208
v 0.066340153 0.0087414865 0.075136208
v 0.066340153 0.0076154865 0.076011208
v 0.066160153 0.0076154865 0.076011208
v 0.066160153 0.0076154865 0.075611208
v 0.066140153 0.0076154865 0.075611208
v 0.066140153 0.0076154865 0.076012208
v 0.066340153 0.0076154865 0.076012208
v 0.066340153 0.0068654866 0.073011208
v 0.066160153 0.0068654866 0.073011208
v 0.066160153 0.0068654866 0.073411208
v 0.066140153 0.0068654866 0.073411208
v 0.066140153 0.0068654866 0.073010208
v 0.066340153 0.0068654866 0.073010208
v 0.066140153 0.0083404866 0.074386208
v 0.066160153 0.0083404866 0.074386208
v 0.066160153 0.0087404866 0.074386208
v 0.066340153 0.0087404866 0.074386208
v 0.066340153 0.0087414865 0.074386208
v 0.066140153 0.0087414865 0.074386208
v 0.066140153 0.0087414865 0.073636208
v 0.066140153 0.0087414865 0.073886208
v 0.066340153 0.0087414865 0.073886208
v 0.066340153 0.0087414865 0.073636208
v 0.066340153 0.0087404866 0.074886208
v 0.066340153 0.0087404866 0.074636208
v 0.066340153 0.0087414865 0.074636208
v 0.066340153 0.0087414865 0.074886208
v 0.066340153 0.0078654865 0.076011208
v 0.066340153 0.0081154865 0.076011208
v 0.066340153 0.0081154865 0.076012208
v 0.066340153 0.0078654865 0.076012208
v 0.066340153 0.0068654865 0.076011208
v 0.066340153 0.0071154865 0.076011208
v 0.066340153 0.0071154865 0.076012208
v 0.066340153 0.0068654865 0.076012208
v 0.066140153 0.0064154866 0.073411208
v 0.066160153 0.0064154866 0.073411208
v 0.066160153 0.0066154866 0.073411208
v 0.066140153 0.0066154866 0.073411208
v 0.066140153 0.0068654866 0.073411208
v 0.066160153 0.0068654866 0.073411208
v 0.066160153 0.0071154866 0.073411208
v 0.066140153 0.0071154866 0.073411208
v 0.066140153 0.0071154866 0.073411208
v 0.066140153 0.0071154866 0.073010208
v 0.066140153 0.0068654866 0.073010208
v 0.066140153 0.0068654866 0.073411208
v 0.066340153 0.0066154865 0.076011208
v 0.066160153 0.0066154865 0.076011208
v 0.066160153 0.0066154865 0.075611208
v 0.066140153 0.0066154865 0.075611208
v 0.066140153 0.0066154865 0.076012208
v 0.066340153 0.0066154865 0.076012208
v 0.066340153 0.0087404866 0.074386208
v 0.066340153 0.0087404866 0.074136208
v 0.066340153 0.0087414865 0.074136208
v 0.066340153 0.0087414865 0.074386208
v 0.066140153 0.0060904865 0.075386208
v 0.066160153 0.0060904865 0.075386208
v 0.066160153 0.0061404865 0.075336208
v 0.066140153 0.0061404865 0.075336208
v 0.066140153 0.0081154866 0.073010208
v 0.066140153 0.0078654866 0.073010208
v 0.066140153 0.0078654866 0.073411208
v 0.066140153 0.0080654866 0.073411208
v 0.066140153 0.0081154866 0.073361208
v 0.066340153 0.0087404866 0.074136208
v 0.066160153 0.0087404866 0.074136208
v 0.066160153 0.0083404866 0.074136208
v 0.066140153 0.0083404866 0.074136208
v 0.066140153 0.0087414865 0.074136208
v 0.066340153 0.0087414865 0.074136208
v 0.066340153 0.0087404866 0.074636208
v 0.066160153 0.0087404866 0.074636208
v 0.066160153 0.0083404866 0.074636208
v 0.066140153 0.0083404866 0.074636208
v 0.066140153 0.0087414865 0.074636208
v 0.066340153 0.0087414865 0.074636208
v 0.066140153 0.0083404866 0.073886208
v 0.066160153 0.0083404866 0.073886208
v 0.066160153 0.0087404866 0.073886208
v 0.066340153 0.0087404866 0.073886208
v 0.066340153 0.0087414865 0.073886208
v 0.066140153 0.0087414865 0.073886208
v 0.066340153 0.0078654865 0.076011208
v 0.066160153 0.0078654865 0.076011208
v 0.066160153 0.0076154865 0.076011208
v 0.066340153 0.0076154865 0.076011208
v 0.066340153 0.0073654865 0.076011208
v 0.066160153 0.0073654865 0.076011208
v 0.066160153 0.0071154865 0.076011208
v 0.066340153 0.0071154865 0.076011208
v 0.066340153 0.0068654865 0.076011208
v 0.066160153 0.0068654865 0.076011208
v 0.066160153 0.0066154865 0.076011208
v 0.066340153 0.0066154865 0.076011208
v 0.066340153 0.0063654865 0.076011208
v 0.066160153 0.0063654865 0.076011208
v 0.066160153 0.0057404864 0.076011208
v 0.067040153 0.0057404864 0.076011208
v 0.067040153 0.0087404866 0.076011208
v 0.066160153 0.0087404866 0.076011208
v 0.066160153 0.0081154865 0.076011208
v 0.066340153 0.0081154865 0.076011208
v 0.066140153 0.0087414865 0.074386208
v 0.066140153 0.0087414865 0.074136208
v 0.066140153 0.0083404866 0.074136208
v 0.066140153 0.0083404866 0.074386208
v 0.066140153 0.0066154866 0.073411208
v 0.066140153 0.0066154866 0.073010208
v 0.066140153 0.0063654866 0.073010208
v 0.066140153 0.0063654866 0.073361208
v 0.066140153 0.0064154866 0.073411208
v 0.066140153 0.0064154865 0.075611208
v 0.066160153 0.0064154865 0.075611208
v 0.066160153 0.0063654865 0.075661208
v 0.066140153 0.0063654865 0.075661208
v 0.066340153 0.0057404865 0.074636208
v 0.066160153 0.0057404865 0.074636208
v 0.066160153 0.0057404865 0.074386208
v 0.066340153 0.0057404865 0.074386208
v 0.066340153 0.0057404865 0.074136208
v 0.066160153 0.0057404865 0.074136208
v 0.066160153 0.0057404865 0.073886208
v 0.066340153 0.0057404865 0.073886208
v 0.066340153 0.0057404865 0.073636208
v 0.066160153 0.0057404865 0.073636208
v 0.066160153 0.0057404866 0.073011208
v 0.067040153 0.0057404866 0.073011208
v 0.067040153 0.0057404864 0.076011208
v 0.066160153 0.0057404864 0.076011208
v 0.066160153 0.0057404865 0.075386208
v 0.066340153 0.0057404865 0.075386208
v 0.066340153 0.0057404865 0.075136208
v 0.066160153 0.0057404865 0.075136208
v 0.066160153 0.0057404865 0.074886208
v 0.066340153 0.0057404865 0.074886208
v 0.066340153 0.0071154865 0.076011208
v 0.066160153 0.0071154865 0.076011208
v 0.066160153 0.0071154865 0.075611208
v 0.066140153 0.0071154865 0.075611208
v 0.066140153 0.0071154865 0.076012208
v 0.066340153 0.0071154865 0.076012208
v 0.066140153 0.0078654865 0.075611208
v 0.066160153 0.0078654865 0.075611208
v 0.066160153 0.0078654865 0.076011208
v 0.066340153 0.0078654865 0.076011208
v 0.066340153 0.0078654865 0.076012208
v 0.066140153 0.0078654865 0.076012208
v 0.066140153 0.0073654866 0.073411208
v 0.066160153 0.0073654866 0.073411208
v 0.066160153 0.0076154866 0.073411208
v 0.066140153 0.0076154866 0.073411208
v 0.066140153 0.0061404866 0.073686208
v 0.066160153 0.0061404866 0.073686208
v 0.066160153 0.0060904866 0.073636208
v 0.066140153 0.0060904866 0.073636208
v 0.066140153 0.0060904866 0.073636208
v 0.066140153 0.0057394867 0.073636208
v 0.066140153 0.0057394867 0.073886208
v 0.066140153 0.0061404866 0.073886208
v 0.066140153 0.0061404866 0.073686208
v 0.066140153 0.0063654865 0.075661208
v 0.066160153 0.0063654865 0.075661208
v 0.066160153 0.0063654865 0.076011208
v 0.066340153 0.0063654865 0.076011208
v 0.066340153 0.0063654865 0.076012208
v 0.066140153 0.0063654865 0.076012208
v 0.066140153 0.0087414865 0.074636208
v 0.066140153 0.0087414865 0.074886208
v 0.066340153 0.0087414865 0.074886208
v 0.066340153 0.0087414865 0.074636208
v 0.066140153 0.0083904865 0.075386208
v 0.066160153 0.0083904865 0.075386208
v 0.066160153 0.0087404866 0.075386208
v 0.066340153 0.0087404866 0.075386208
v 0.066340153 0.0087414865 0.075386208
v 0.066140153 0.0087414865 0.075386208
v 0.066140153 0.0061404866 0.074136208
v 0.066160153 0.0061404866 0.074136208
v 0.066160153 0.0057404865 0.074136208
v 0.066340153 0.0057404865 0.074136208
v 0.066340153 0.0057394867 0.074136208
v 0.066140153 0.0057394867 0.074136208
v 0.066140153 0.0081404866 0.075411208
v 0.066160153 0.0081404866 0.075411208
v 0.066160153 0.0081404866 0.073611208
v 0.066140153 0.0081404866 0.073611208
v 0.066140153 0.0073654865 0.075611208
v 0.066140153 0.0073654865 0.076012208
v 0.066140153 0.0076154865 0.076012208
v 0.066140153 0.0076154865 0.075611208
v 0.066340153 0.0057404865 0.074636208
v 0.066340153 0.0057404865 0.074886208
v 0.066340153 0.0057394866 0.074886208
v 0.066340153 0.0057394866 0.074636208
v 0.066140153 0.0083904866 0.073636208
v 0.066160153 0.0083904866 0.073636208
v 0.066160153 0.0083404866 0.073686208
v 0.066140153 0.0083404866 0.073686208
v 0.066140153 0.0083404865 0.075336208
v 0.066160153 0.0083404865 0.075336208
v 0.066160153 0.0083904865 0.075386208
v 0.066140153 0.0083904865 0.075386208
v 0.066140153 0.0057394866 0.075386208
v 0.066140153 0.0057394866 0.075136208
v 0.066340153 0.0057394866 0.075136208
v 0.066340153 0.0057394866 0.075386208
v 0.066140153 0.0081154866 0.073361208
v 0.066160153 0.0081154866 0.073361208
v 0.066160153 0.0081154866 0.073011208
v 0.066340153 0.0081154866 0.073011208
v 0.066340153 0.0081154866 0.073010208
v 0.066140153 0.0081154866 0.073010208
v 0.066140153 0.0066404865 0.075411208
v 0.066160153 0.0066404865 0.075411208
v 0.066160153 0.0081404866 0.075411208
v 0.066140153 0.0081404866 0.075411208
v 0.066140153 0.0081404866 0.073611208
v 0.066160153 0.0081404866 0.073611208
v 0.066160153 0.0063404866 0.073611208
v 0.066140153 0.0063404866 0.073611208
v 0.066140153 0.0080654866 0.073411208
v 0.066160153 0.0080654866 0.073411208
v 0.066160153 0.0081154866 0.073361208
v 0.066140153 0.0081154866 0.073361208
v 0.066340153 0.0057404865 0.074136208
v 0.066340153 0.0057404865 0.074386208
v 0.066340153 0.0057394866 0.074386208
v 0.066340153 0.0057394867 0.074136208
v 0.066140153 0.0068654866 0.073010208
v 0.066140153 0.0071154866 0.073010208
v 0.066340153 0.0071154866 0.073010208
v 0.066340153 0.0068654866 0.073010208
v 0.066140153 0.0076154866 0.073411208
v 0.066160153 0.0076154866 0.073411208
v 0.066160153 0.0076154866 0.073011208
v 0.066340153 0.0076154866 0.073011208
v 0.066340153 0.0076154866 0.073010208
v 0.066140153 0.0076154866 0.073010208
v 0.066140153 0.0063404865 0.075111208
v 0.066160153 0.0063404865 0.075111208
v 0.066160153 0.0066404865 0.075411208
v 0.066140153 0.0066404865 0.075411208
v 0.066140153 0.0063404866 0.073611208
v 0.066160153 0.0063404866 0.073611208
v 0.066160153 0.0063404865 0.075111208
v 0.066140153 0.0063404865 0.075111208
v 0.066340153 0.0057404865 0.074386208
v 0.066160153 0.0057404865 0.074386208
v 0.066160153 0.0061404866 0.074386208
v 0.066140153 0.0061404866 0.074386208
v 0.066140153 0.0057394866 0.074386208
v 0.066340153 0.0057394866 0.074386208
v 0.066340153 0.0087404867 0.073636208
v 0.066160153 0.0087404867 0.073636208
v 0.066160153 0.0083904866 0.073636208
v 0.066140153 0.0083904866 0.073636208
v 0.066140153 0.0087414865 0.073636208
v 0.066340153 0.0087414865 0.073636208
v 0.066340153 0.0057394866 0.075136208
v 0.066340153 0.0057404865 0.075136208
v 0.066340153 0.0057404865 0.075386208
v 0.066340153 0.0057394866 0.075386208
v 0.066140153 0.0081404866 0.073611208
v 0.066140153 0.0063404866 0.073611208
v 0.066140153 0.0063404865 0.075111208
v 0.066140153 0.0066404865 0.075411208
v 0.066140153 0.0081404866 0.075411208
v 0.066140153 0.0057394866 0.074386208
v 0.066140153 0.0057394867 0.074136208
v 0.066340153 0.0057394867 0.074136208
v 0.066340153 0.0057394866 0.074386208
v 0.066140153 0.0078654866 0.073411208
v 0.066160153 0.0078654866 0.073411208
v 0.066160153 0.0080654866 0.073411208
v 0.066140153 0.0080654866 0.073411208
v 0.066140153 0.0066154865 0.076012208
v 0.066140153 0.0063654865 0.076012208
v 0.066340153 0.0063654865 0.076012208
v 0.066340153 0.0066154865 0.076012208
v 0.066140153 0.0061404866 0.073886208
v 0.066160153 0.0061404866 0.073886208
v 0.066160153 0.0061404866 0.073686208
v 0.066140153 0.0061404866 0.073686208
v 0.066140153 0.0057394867 0.073886208
v 0.066140153 0.0057394867 0.073636208
v 0.066340153 0.0057394867 0.073636208
v 0.066340153 0.0057394867 0.073886208
v 0.066140153 0.0061404866 0.074636208
v 0.066140153 0.0057394866 0.074636208
v 0.066140153 0.0057394866 0.074886208
v 0.066140153 0.0061404866 0.074886208
v 0.066340153 0.0078654866 0.073011208
v 0.066160153 0.0078654866 0.073011208
v 0.066160153 0.0078654866 0.073411208
v 0.066140153 0.0078654866 0.073411208
v 0.066140153 0.0078654866 0.073010208
v 0.066340153 0.0078654866 0.073010208
v 0.066140153 0.0066154865 0.075611208
v 0.066160153 0.0066154865 0.075611208
v 0.066160153 0.0064154865 0.075611208
v 0.066140153 0.0064154865 0.075611208
v 0.067040153 0.0057404866 0.073011208
v 0.067040153 0.0087404867 0.073011208
v 0.067040153 0.0087404866 0.076011208
v 0.067040153 0.0057404864 0.076011208
v 0.067040153 0.0062404865 0.075311208
v 0.067040153 0.0060990652 0.075369786
v 0.067040153 0.0060404865 0.075511208
v 0.067040153 0.0060990652 0.075652629
v 0.067040153 0.0062404865 0.075711208
v 0.067040153 0.0063819079 0.075652629
v 0.067040153 0.0064404865 0.075511208
v 0.067040153 0.0063819079 0.075369786
v 0.066340153 0.0063654866 0.073011208
v 0.066160153 0.0063654866 0.073011208
v 0.066160153 0.0063654866 0.073361208
v 0.066140153 0.0063654866 0.073361208
v 0.066140153 0.0063654866 0.073010208
v 0.066340153 0.0063654866 0.073010208
v 0.066340153 0.0057404865 0.074886208
v 0.066160153 0.0057404865 0.074886208
v 0.066160153 0.0061404866 0.074886208
v 0.066140153 0.0061404866 0.074886208
v 0.066140153 0.0057394866 0.074886208
v 0.066340153 0.0057394866 0.074886208
v 0.066140153 0.0060904866 0.073636208
v 0.066160153 0.0060904866 0.073636208
v 0.066160153 0.0057404865 0.073636208
v 0.066340153 0.0057404865 0.073636208
v 0.066340153 0.0057394867 0.073636208
v 0.066140153 0.0057394867 0.073636208
v 0.066140153 0.0061404865 0.075136208
v 0.066160153 0.0061404865 0.075136208
v 0.066160153 0.0057404865 0.075136208
v 0.066340153 0.0057404865 0.075136208
v 0.066340153 0.0057394866 0.075136208
v 0.066140153 0.0057394866 0.075136208
v 0.066140153 0.0057394866 0.074886208
v 0.066140153 0.0057394866 0.074636208
v 0.066340153 0.0057394866 0.074636208
v 0.066340153 0.0057394866 0.074886208
v 0.066340153 0.0081154866 0.073010208
v 0.066340153 0.0081154866 0.073011208
v 0.066340153 0.0078654866 0.073011208
v 0.066340153 0.0078654866 0.073010208
v 0.066340153 0.0087404866 0.073886208
v 0.066340153 0.0087404867 0.073636208
v 0.066340153 0.0087414865 0.073636208
v 0.066340153 0.0087414865 0.073886208
v 0.066140153 0.0071154865 0.076012208
v 0.066140153 0.0068654865 0.076012208
v 0.066340153 0.0068654865 0.076012208
v 0.066340153 0.0071154865 0.076012208
v 0.066140153 0.0080654865 0.075611208
v 0.066160153 0.0080654865 0.075611208
v 0.066160153 0.0078654865 0.075611208
v 0.066140153 0.0078654865 0.075611208
v 0.066140153 0.0066154866 0.073411208
v 0.066160153 0.0066154866 0.073411208
v 0.066160153 0.0066154866 0.073011208
v 0.066340153 0.0066154866 0.073011208
v 0.066340153 0.0066154866 0.073010208
v 0.066140153 0.0066154866 0.073010208
v 0.066140153 0.0061404866 0.074136208
v 0.066140153 0.0057394867 0.074136208
v 0.066140153 0.0057394866 0.074386208
v 0.066140153 0.0061404866 0.074386208
v 0.066140153 0.0063654866 0.073361208
v 0.066160153 0.0063654866 0.073361208
v 0.066160153 0.0064154866 0.073411208
v 0.066140153 0.0064154866 0.073411208
v 0.066140153 0.0078654865 0.076012208
v 0.066140153 0.0081154865 0.076012208
v 0.066140153 0.0081154865 0.075661208
v 0.066140153 0.0080654865 0.075611208
v 0.066140153 0.0078654865 0.075611208
v 0.066340153 0.0076154866 0.073010208
v 0.066340153 0.0076154866 0.073011208
v 0.066340153 0.0073654866 0.073011208
v 0.066340153 0.0073654866 0.073010208
v 0.066140153 0.0063654865 0.076012208
v 0.066140153 0.0066154865 0.076012208
v 0.066140153 0.0066154865 0.075611208
v 0.066140153 0.0064154865 0.075611208
v 0.066140153 0.0063654865 0.075661208
v 0.066140153 0.0061404865 0.075336208
v 0.066140153 0.0061404865 0.075136208
v 0.066140153 0.0057394866 0.075136208
v 0.066140153 0.0057394866 0.075386208
v 0.066140153 0.0060904865 0.075386208
v 0.066340153 0.0057404865 0.075386208
v 0.066160153 0.0057404865 0.075386208
v 0.066160153 0.0060904865 0.075386208
v 0.066140153 0.0060904865 0.075386208
v 0.066140153 0.0057394866 0.075386208
v 0.066340153 0.0057394866 0.075386208
v 0.066140153 0.0087414865 0.073886208
v 0.066140153 0.0087414865 0.073636208
v 0.066140153 0.0083904866 0.073636208
v 0.066140153 0.0083404866 0.073686208
v 0.066140153 0.0083404866 0.073886208
v 0.066140153 0.0083404866 0.074136208
v 0.066160153 0.0083404866 0.074136208
v 0.066160153 0.0083404866 0.074386208
v 0.066140153 0.0083404866 0.074386208
v 0.066140153 0.0061404866 0.074636208
v 0.066160153 0.0061404866 0.074636208
v 0.066160153 0.0057404865 0.074636208
v 0.066340153 0.0057404865 0.074636208
v 0.066340153 0.0057394866 0.074636208
v 0.066140153 0.0057394866 0.074636208
v 0.066140153 0.0063654866 0.073010208
v 0.066140153 0.0066154866 0.073010208
v 0.066340153 0.0066154866 0.073010208
v 0.066340153 0.0063654866 0.073010208
v 0.066340153 0.0057404865 0.073886208
v 0.066160153 0.0057404865 0.073886208
v 0.066160153 0.0061404866 0.073886208
v 0.066140153 0.0061404866 0.073886208
v 0.066140153 0.0057394867 0.073886208
v 0.066340153 0.0057394867 0.073886208
v 0.066140153 0.0078654866 0.073010208
v 0.066140153 0.0081154866 0.073010208
v 0.066340153 0.0081154866 0.073010208
v 0.066340153 0.0078654866 0.073010208
v 0.066140153 0.0083404866 0.074636208
v 0.066160153 0.0083404866 0.074636208
v 0.066160153 0.0083404865 0.074886208
v 0.066140153 0.0083404865 0.074886208
v 0.066140153 0.0061404866 0.074886208
v 0.066160153 0.0061404866 0.074886208
v 0.066160153 0.0061404866 0.074636208
v 0.066140153 0.0061404866 0.074636208
v 0.066140153 0.0076154866 0.073010208
v 0.066140153 0.0073654866 0.073010208
v 0.066140153 0.0073654866 0.073411208
v 0.066140153 0.0076154866 0.073411208
v 0.066140153 0.0083404866 0.073686208
v 0.066160153 0.0083404866 0.073686208
v 0.066160153 0.0083404866 0.073886208
v 0.066140153 0.0083404866 0.073886208
v 0.067040153 0.0062404865 0.075311208
v 0.067040153 0.0063819079 0.075369786
v 0.067040153 0.0064404865 0.075511208
v 0.067040153 0.0063819079 0.075652629
v 0.067040153 0.0062404865 0.075711208
v 0.067040153 0.0060990652 0.075652629
v 0.067040153 0.0060404865 0.075511208
v 0.067040153 0.0060990652 0.075369786
v 0.066990153 0.0062404865 0.075311208
v 0.066990153 0.0060990652 0.075369786
v 0.066990153 0.0060404865 0.075511208
v 0.066990153 0.0060990652 0.075652629
v 0.066990153 0.0062404865 0.075711208
v 0.066990153 0.0063819079 0.075652629
v 0.066990153 0.0064404865 0.075511208
v 0.066990153 0.0063819079 0.075369786
v 0.067040153 0.0062404865 0.075311208
v 0.066990153 0.0062404865 0.075311208
v 0.066340153 0.0073654865 0.076012208
v 0.066340153 0.0073654865 0.076011208
v 0.066340153 0.0076154865 0.076011208
v 0.066340153 0.0076154865 0.076012208
v 0.066140153 0.0081154865 0.076012208
v 0.066140153 0.0078654865 0.076012208
v 0.066340153 0.0078654865 0.076012208
v 0.066340153 0.0081154865 0.076012208
v 0.066160153 0.0078654865 0.076011208
v 0.066160153 0.0078654865 0.075611208
v 0.066160153 0.0080654865 0.075611208
v 0.066160153 0.0081154865 0.075661208
v 0.066160153 0.0081154865 0.076011208
v 0.066160153 0.0087404866 0.076011208
v 0.066160153 0.0087404866 0.075386208
v 0.066160153 0.0083904865 0.075386208
v 0.066160153 0.0083404865 0.075336208
v 0.066160153 0.0083404865 0.075136208
v 0.066160153 0.0087404866 0.075136208
v 0.066160153 0.0087404866 0.074886208
v 0.066160153 0.0083404865 0.074886208
v 0.066160153 0.0083404866 0.074636208
v 0.066160153 0.0087404866 0.074636208
v 0.066160153 0.0087404866 0.074386208
v 0.066160153 0.0083404866 0.074386208
v 0.066160153 0.0083404866 0.074136208
v 0.066160153 0.0087404866 0.074136208
v 0.066160153 0.0087404866 0.073886208
v 0.066160153 0.0083404866 0.073886208
v 0.066160153 0.0083404866 0.073686208
v 0.066160153 0.0083904866 0.073636208
v 0.066160153 0.0087404867 0.073636208
v 0.066160153 0.0087404867 0.073011208
v 0.066160153 0.0081154866 0.073011208
v 0.066160153 0.0081154866 0.073361208
v 0.066160153 0.0080654866 0.073411208
v 0.066160153 0.0078654866 0.073411208
v 0.066160153 0.0078654866 0.073011208
v 0.066160153 0.0076154866 0.073011208
v 0.066160153 0.0076154866 0.073411208
v 0.066160153 0.0073654866 0.073411208
v 0.066160153 0.0073654866 0.073011208
v 0.066160153 0.0071154866 0.073011208
v 0.066160153 0.0071154866 0.073411208
v 0.066160153 0.0068654866 0.073411208
v 0.066160153 0.0068654866 0.073011208
v 0.066160153 0.0066154866 0.073011208
v 0.066160153 0.0066154866 0.073411208
v 0.066160153 0.0064154866 0.073411208
v 0.066160153 0.0063654866 0.073361208
v 0.066160153 0.0063654866 0.073011208
v 0.066160153 0.0057404866 0.073011208
v 0.066160153 0.0057404865 0.073636208
v 0.066160153 0.0060904866 0.073636208
v 0.066160153 0.0061404866 0.073686208
v 0.066160153 0.0061404866 0.073886208
v 0.066160153 0.0057404865 0.073886208
v 0.066160153 0.0057404865 0.074136208
v 0.066160153 0.0061404866 0.074136208
v 0.066160153 0.0061404866 0.074386208
v 0.066160153 0.0057404865 0.074386208
v 0.066160153 0.0057404865 0.074636208
v 0.066160153 0.0061404866 0.074636208
v 0.066160153 0.0061404866 0.074886208
v 0.066160153 0.0057404865 0.074886208
v 0.066160153 0.0057404865 0.075136208
v 0.066160153 0.0061404865 0.075136208
v 0.066160153 0.0061404865 0.075336208
v 0.066160153 0.0060904865 0.075386208
v 0.066160153 0.0057404865 0.075386208
v 0.066160153 0.0057404864 0.076011208
v 0.066160153 0.0063654865 0.076011208
v 0.066160153 0.0063654865 0.075661208
v 0.066160153 0.0064154865 0.075611208
v 0.066160153 0.0066154865 0.075611208
v 0.066160153 0.0066154865 0.076011208
v 0.066160153 0.0068654865 0.076011208
v 0.066160153 0.0068654865 0.075611208
v 0.066160153 0.0071154865 0.075611208
v 0.066160153 0.0071154865 0.076011208
v 0.066160153 0.0073654865 0.076011208
v 0.066160153 0.0073654865 0.075611208
v 0.066160153 0.0076154865 0.075611208
v 0.066160153 0.0076154865 0.076011208
v 0.066160153 0.0063404866 0.073611208
v 0.066160153 0.0081404866 0.073611208
v 0.066160153 0.0081404866 0.075411208
v 0.066160153 0.0066404865 0.075411208
v 0.066160153 0.0063404865 0.075111208
v 0.066340153 0.0087404866 0.073886208
v 0.066160153 0.0087404866 0.073886208
v 0.066160153 0.0087404866 0.074136208
v 0.066340153 0.0087404866 0.074136208
v 0.066340153 0.0087404866 0.074386208
v 0.066160153 0.0087404866 0.074386208
v 0.066160153 0.0087404866 0.074636208
v 0.066340153 0.0087404866 0.074636208
v 0.066340153 0.0087404866 0.074886208
v 0.066160153 0.0087404866 0.074886208
v 0.066160153 0.0087404866 0.075136208
v 0.066340153 0.0087404866 0.075136208
v 0.066340153 0.0087404866 0.075386208
v 0.066160153 0.0087404866 0.075386208
v 0.066160153 0.0087404866 0.076011208
v 0.067040153 0.0087404866 0.076011208
v 0.067040153 0.0087404867 0.073011208
v 0.066160153 0.0087404867 0.073011208
v 0.066160153 0.0087404867 0.073636208
v 0.066340153 0.0087404867 0.073636208
f 2 3 1
f 1 3 4
f 5 6 8
f 8 6 7
f 10 11 9
f 9 11 12
f 13 14 18
f 18 14 17
f 17 14 16
f 16 14 15
f 20 22 19
f 19 22 23
f 19 23 26
f 26 23 24
f 26 24 25
f 20 21 22
f 27 28 30
f 30 28 29
f 32 33 31
f 31 33 34
f 39 35 38
f 38 35 36
f 38 36 37
f 40 41 43
f 43 41 42
f 45 46 44
f 44 46 49
f 49 46 48
f 48 46 47
f 51 52 50
f 50 52 53
f 54 55 57
f 57 55 56
f 59 60 58
f 58 60 63
f 63 60 62
f 62 60 61
f 64 65 67
f 67 65 66
f 69 70 68
f 68 70 71
f 73 74 72
f 72 74 75
f 77 78 76
f 76 78 79
f 81 82 80
f 80 82 85
f 85 82 84
f 84 82 83
f 86 87 91
f 91 87 90
f 90 87 89
f 89 87 88
f 93 94 92
f 92 94 97
f 97 94 96
f 96 94 95
f 98 99 101
f 101 99 100
f 102 103 105
f 105 103 104
f 106 107 109
f 109 107 108
f 111 112 110
f 110 112 113
f 110 113 126
f 126 113 114
f 126 114 117
f 117 114 116
f 116 114 115
f 126 117 125
f 125 117 118
f 125 118 121
f 121 118 120
f 120 118 119
f 121 122 125
f 125 122 124
f 124 122 123
f 110 126 129
f 129 126 127
f 129 127 128
f 131 132 130
f 130 132 133
f 135 136 134
f 134 136 137
f 138 139 143
f 143 139 142
f 142 139 141
f 141 139 140
f 144 145 149
f 149 145 148
f 148 145 147
f 147 145 146
f 150 151 155
f 155 151 154
f 154 151 153
f 153 151 152
f 157 158 156
f 156 158 161
f 161 158 160
f 160 158 159
f 163 164 162
f 162 164 165
f 166 167 169
f 169 167 168
f 171 172 170
f 170 172 173
f 175 176 174
f 174 176 177
f 178 179 181
f 181 179 180
f 183 184 182
f 182 184 185
f 186 187 189
f 189 187 188
f 190 191 195
f 195 191 194
f 194 191 193
f 193 191 192
f 196 197 199
f 199 197 198
f 201 202 200
f 200 202 203
f 208 204 207
f 207 204 205
f 207 205 206
f 209 210 214
f 214 210 213
f 213 210 212
f 212 210 211
f 215 216 220
f 220 216 219
f 219 216 218
f 218 216 217
f 222 223 221
f 221 223 226
f 226 223 225
f 225 223 224
f 228 229 227
f 227 229 230
f 227 230 243
f 243 230 231
f 243 231 234
f 234 231 233
f 233 231 232
f 243 234 242
f 242 234 235
f 242 235 238
f 238 235 237
f 237 235 236
f 238 239 242
f 242 239 241
f 241 239 240
f 227 243 246
f 246 243 244
f 246 244 245
f 247 248 250
f 250 248 249
f 251 252 255
f 255 252 253
f 255 253 254
f 257 258 256
f 256 258 259
f 261 263 260
f 260 263 271
f 260 271 272
f 261 262 263
f 263 264 271
f 271 264 267
f 271 267 268
f 264 265 267
f 267 265 266
f 269 270 268
f 268 270 271
f 273 275 272
f 272 275 276
f 272 276 279
f 279 276 277
f 279 277 278
f 273 274 275
f 279 260 272
f 280 281 285
f 285 281 284
f 284 281 283
f 283 281 282
f 287 288 286
f 286 288 291
f 291 288 290
f 290 288 289
f 293 294 292
f 292 294 295
f 297 298 296
f 296 298 299
f 300 301 304
f 304 301 302
f 304 302 303
f 306 307 305
f 305 307 310
f 310 307 309
f 309 307 308
f 312 313 311
f 311 313 314
f 316 317 315
f 315 317 320
f 320 317 319
f 319 317 318
f 322 323 321
f 321 323 326
f 326 323 325
f 325 323 324
f 327 328 330
f 330 328 329
f 331 332 334
f 334 332 333
f 335 336 338
f 338 336 337
f 340 341 339
f 339 341 342
f 344 345 343
f 343 345 346
f 348 349 347
f 347 349 350
f 352 353 351
f 351 353 356
f 356 353 355
f 355 353 354
f 358 359 357
f 357 359 360
f 362 363 361
f 361 363 364
f 366 367 365
f 365 367 368
f 369 370 372
f 372 370 371
f 373 374 376
f 376 374 375
f 378 379 377
f 377 379 382
f 382 379 381
f 381 379 380
f 384 385 383
f 383 385 386
f 387 388 390
f 390 388 389
f 391 392 396
f 396 392 395
f 395 392 394
f 394 392 393
f 397 398 402
f 402 398 401
f 401 398 400
f 400 398 399
f 404 405 403
f 403 405 406
f 408 409 407
f 407 409 410
f 407 410 411
f 413 414 412
f 412 414 415
f 417 418 416
f 416 418 419
f 420 421 423
f 423 421 422
f 424 425 427
f 427 425 426
f 429 430 428
f 428 430 431
f 433 434 432
f 432 434 435
f 436 437 441
f 441 437 440
f 440 437 439
f 439 437 438
f 443 444 442
f 442 444 445
f 447 457 446
f 446 457 450
f 446 450 451
f 447 448 457
f 457 448 456
f 456 448 455
f 455 448 454
f 454 448 449
f 454 449 453
f 453 449 452
f 452 449 446
f 452 446 451
f 458 459 463
f 463 459 462
f 462 459 461
f 461 459 460
f 464 465 469
f 469 465 468
f 468 465 467
f 467 465 466
f 471 472 470
f 470 472 475
f 475 472 474
f 474 472 473
f 477 478 476
f 476 478 481
f 481 478 480
f 480 478 479
f 483 484 482
f 482 484 485
f 486 487 489
f 489 487 488
f 490 491 493
f 493 491 492
f 494 495 497
f 497 495 496
f 499 500 498
f 498 500 501
f 503 504 502
f 502 504 507
f 507 504 506
f 506 504 505
f 509 510 508
f 508 510 511
f 513 514 512
f 512 514 515
f 520 516 519
f 519 516 517
f 519 517 518
f 521 522 524
f 524 522 523
f 529 525 528
f 528 525 526
f 528 526 527
f 531 532 530
f 530 532 533
f 530 533 534
f 535 536 540
f 540 536 539
f 539 536 538
f 538 536 537
f 545 541 544
f 544 541 542
f 544 542 543
f 546 547 549
f 549 547 548
f 551 552 550
f 550 552 555
f 555 552 554
f 554 552 553
f 556 557 559
f 559 557 558
f 560 561 565
f 565 561 564
f 564 561 563
f 563 561 562
f 566 567 569
f 569 567 568
f 570 571 573
f 573 571 572
f 574 575 577
f 577 575 576
f 579 580 578
f 578 580 581
f 582 583 585
f 585 583 584
f 587 601 586
f 586 601 603
f 602 594 593
f 593 594 595
f 593 595 592
f 592 595 596
f 592 596 591
f 591 596 597
f 591 597 590
f 590 597 598
f 590 598 589
f 589 598 599
f 589 599 588
f 588 599 600
f 588 600 587
f 587 600 601
f 604 605 607
f 607 605 606
f 608 609 611
f 611 609 610
f 612 613 687
f 687 613 686
f 686 613 690
f 686 690 685
f 685 690 691
f 685 691 682
f 682 691 681
f 681 691 678
f 681 678 680
f 680 678 679
f 613 614 690
f 690 614 615
f 690 615 619
f 619 615 617
f 619 617 618
f 615 616 617
f 619 620 690
f 690 620 621
f 690 621 624
f 624 621 623
f 623 621 622
f 624 625 690
f 690 625 628
f 690 628 689
f 689 628 629
f 689 629 632
f 632 629 631
f 631 629 630
f 626 627 625
f 625 627 628
f 632 633 689
f 689 633 634
f 689 634 638
f 638 634 636
f 638 636 637
f 634 635 636
f 638 639 689
f 689 639 640
f 689 640 643
f 643 640 641
f 643 641 642
f 643 644 689
f 689 644 647
f 689 647 688
f 688 647 648
f 688 648 651
f 651 648 649
f 651 649 650
f 644 645 647
f 647 645 646
f 651 652 688
f 688 652 653
f 688 653 657
f 657 653 655
f 657 655 656
f 653 654 655
f 657 658 688
f 688 658 659
f 688 659 662
f 662 659 661
f 661 659 660
f 662 663 688
f 688 663 692
f 692 663 666
f 692 666 667
f 664 665 663
f 663 665 666
f 668 669 667
f 667 669 670
f 667 670 692
f 692 670 671
f 692 671 677
f 677 671 676
f 676 671 672
f 676 672 674
f 674 672 673
f 674 675 676
f 692 677 691
f 691 677 678
f 682 683 685
f 685 683 684
f 694 696 693
f 693 696 709
f 693 709 712
f 712 709 710
f 712 710 711
f 694 695 696
f 696 697 709
f 709 697 700
f 709 700 708
f 708 700 701
f 708 701 704
f 704 701 702
f 704 702 703
f 697 698 700
f 700 698 699
f 704 705 708
f 708 705 707
f 707 705 706
