v -0.753 -0.2018575 0.595
v -0.7704712 -0.2018575 0.58702206
v -0.78488298 -0.2018575 0.57432594
v -0.795 -0.2018575 0.55799999
v -0.795 -0.2018575 0.31
v -0.753 -0.2018575 0.31
v -0.795 -0.1958575 0.55799999
v -0.78488298 -0.1958575 0.57432594
v -0.7704712 -0.1958575 0.58702206
v -0.753 -0.1958575 0.595
v -0.753 -0.1958575 0.31
v -0.795 -0.1958575 0.31
v -0.795 -0.2018575 0.55799999
v -0.78488298 -0.2018575 0.57432594
v -0.7704712 -0.2018575 0.58702206
v -0.753 -0.2018575 0.595
v -0.753 -0.1958575 0.595
v -0.7704712 -0.1958575 0.58702206
v -0.78488298 -0.1958575 0.57432594
v -0.795 -0.1958575 0.55799999
v -0.753 -0.2018575 0.595
v -0.753 -0.2018575 0.31
v -0.753 -0.1958575 0.31
v -0.753 -0.1958575 0.595
v -0.753 -0.2018575 0.31
v -0.795 -0.2018575 0.31
v -0.795 -0.1958575 0.31
v -0.753 -0.1958575 0.31
v -0.795 -0.2018575 0.31
v -0.795 -0.2018575 0.55799999
v -0.795 -0.1958575 0.55799999
v -0.795 -0.1958575 0.31
f 1 2 6
f 6 2 5
f 5 2 3
f 5 3 4
f 7 8 12
f 12 8 9
f 12 9 11
f 11 9 10
f 20 13 19
f 19 13 14
f 19 14 18
f 18 14 15
f 18 15 17
f 17 15 16
f 21 22 24
f 24 22 23
f 25 26 28
f 28 26 27
f 29 30 32
f 32 30 31
v -0.753 -0.1028575 0.595
v -0.7704712 -0.1028575 0.58702206
v -0.78488298 -0.1028575 0.57432594
v -0.795 -0.1028575 0.55799999
v -0.795 -0.1028575 0.31
v -0.753 -0.1028575 0.31
v -0.795 -0.096857504 0.55799999
v -0.78488298 -0.096857504 0.57432594
v -0.7704712 -0.096857504 0.58702206
v -0.753 -0.096857504 0.595
v -0.753 -0.096857504 0.31
v -0.795 -0.096857504 0.31
v -0.795 -0.1028575 0.55799999
v -0.78488298 -0.1028575 0.57432594
v -0.7704712 -0.1028575 0.58702206
v -0.753 -0.1028575 0.595
v -0.753 -0.096857504 0.595
v -0.7704712 -0.096857504 0.58702206
v -0.78488298 -0.096857504 0.57432594
v -0.795 -0.096857504 0.55799999
v -0.753 -0.1028575 0.595
v -0.753 -0.1028575 0.31
v -0.753 -0.096857504 0.31
v -0.753 -0.096857504 0.595
v -0.753 -0.1028575 0.31
v -0.795 -0.1028575 0.31
v -0.795 -0.096857504 0.31
v -0.753 -0.096857504 0.31
v -0.795 -0.1028575 0.31
v -0.795 -0.1028575 0.55799999
v -0.795 -0.096857504 0.55799999
v -0.795 -0.096857504 0.31
f 33 34 38
f 38 34 37
f 37 34 35
f 37 35 36
f 39 40 44
f 44 40 41
f 44 41 43
f 43 41 42
f 52 45 51
f 51 45 46
f 51 46 50
f 50 46 47
f 50 47 49
f 49 47 48
f 53 54 56
f 56 54 55
f 57 58 60
f 60 58 59
f 61 62 64
f 64 62 63
