v 0.070240153 -0.0034589304 0.062704986
v 0.070275097 -0.0034625189 0.06271129
v 0.070305641 -0.0034661074 0.062729413
v 0.070331115 -0.0034704138 0.062763442
v 0.070340153 -0.00347472 0.062804986
v 0.070340153 -0.0013747199 0.062804986
v 0.070333849 -0.0013783084 0.062770042
v 0.070315726 -0.0013818969 0.062739498
v 0.070281697 -0.0013862032 0.062714024
v 0.070240153 -0.0013905094 0.062704986
v 0.070540153 -0.0013747199 0.062804986
v 0.070540153 -0.00347472 0.062804986
v 0.070517317 -0.0034707726 0.062690181
v 0.070452284 -0.0034668253 0.062592854
v 0.070354958 -0.0034628777 0.062527822
v 0.070240153 -0.0034589303 0.062504986
v 0.070240153 -0.0013905094 0.062504986
v 0.070354958 -0.001386562 0.062527822
v 0.070452284 -0.0013826146 0.062592855
v 0.070517317 -0.0013786673 0.062690181
v 0.070540153 -0.0013747199 0.062804986
v 0.070517317 -0.0013786673 0.062690181
v 0.070452284 -0.0013826146 0.062592855
v 0.070354958 -0.001386562 0.062527822
v 0.070240153 -0.0013905094 0.062504986
v 0.070240153 -0.0013905094 0.062704986
v 0.070281697 -0.0013862032 0.062714024
v 0.070315726 -0.0013818969 0.062739498
v 0.070333849 -0.0013783084 0.062770042
v 0.070340153 -0.0013747199 0.062804986
v 0.070316644 -0.0013865605 0.062620386
v 0.070381571 -0.0013826146 0.062663568
v 0.070393397 -0.0013817325 0.06267652
v 0.067756112 -0.0031747205 0.065784371
v 0.067756112 -0.0016747205 0.065784371
v 0.067556113 -0.0016747205 0.065784371
v 0.067556113 -0.0031747205 0.065784371
v 0.070540153 -0.00347472 0.062804986
v 0.070340153 -0.00347472 0.062804986
v 0.070331115 -0.0034704138 0.062763442
v 0.070305641 -0.0034661074 0.062729413
v 0.070275097 -0.0034625189 0.06271129
v 0.070240153 -0.0034589304 0.062704986
v 0.070240153 -0.0034589303 0.062504986
v 0.070354958 -0.0034628777 0.062527822
v 0.070452284 -0.0034668253 0.062592854
v 0.070517317 -0.0034707726 0.062690181
v 0.070424752 -0.0034707711 0.062728495
v 0.070381571 -0.0034668253 0.062663568
v 0.070368619 -0.0034659431 0.062651742
v 0.070340153 -0.0013747205 0.065904986
v 0.070340153 -0.0034747205 0.065904986
v 0.070540153 -0.0034747205 0.065904986
v 0.070540153 -0.0013747205 0.065904986
v 0.067556113 -0.0016747203 0.064602004
v 0.067556113 -0.0031747203 0.064602004
v 0.067556113 -0.0031747205 0.065784371
v 0.067556113 -0.0016747205 0.065784371
v 0.067756112 -0.0031747205 0.065784371
v 0.067756112 -0.0031747203 0.064602004
v 0.067756112 -0.0016747203 0.064602004
v 0.067756112 -0.0016747205 0.065784371
v 0.070340153 -0.0013747205 0.065904986
v 0.070340153 -0.0013747199 0.062804986
v 0.070340153 -0.00347472 0.062804986
v 0.070340153 -0.0034747205 0.065904986
v 0.068440153 -0.0016747199 0.062704986
v 0.068440153 -0.0016747199 0.062513272
v 0.068349728 -0.0016747199 0.062551496
v 0.068276484 -0.0016747199 0.062616866
v 0.068228266 -0.0016747199 0.06270238
v 0.068416204 -0.00167472 0.062770784
v 0.068437436 -0.0016747199 0.062736362
v 0.068470565 -0.0016747199 0.062713165
v 0.068510174 -0.0016747199 0.062704986
v 0.067756112 -0.0016747203 0.064602004
v 0.067556113 -0.0016747203 0.064602004
v 0.067556113 -0.0016747205 0.065784371
v 0.067756112 -0.0016747205 0.065784371
v 0.067556113 -0.0016747203 0.064602004
v 0.067756112 -0.0016747203 0.064602004
v 0.067756789 -0.0016747203 0.064590395
v 0.067758808 -0.0016747203 0.064578943
v 0.067762143 -0.0016747203 0.064567802
v 0.067574205 -0.0016747203 0.064499398
v 0.067564199 -0.0016747203 0.064532819
v 0.067558141 -0.0016747203 0.064567176
v 0.070240153 -0.0013905094 0.062704986
v 0.070240153 -0.0013905094 0.062504986
v 0.068440153 -0.0016747199 0.062504986
v 0.068440153 -0.0016747199 0.062513272
v 0.068440153 -0.0016747199 0.062704986
v 0.070540153 -0.00347472 0.062804986
v 0.070540153 -0.0013747199 0.062804986
v 0.070540153 -0.0013747205 0.065904986
v 0.070540153 -0.0034747205 0.065904986
v 0.067556113 -0.0031747203 0.064602004
v 0.067756112 -0.0031747203 0.064602004
v 0.067756112 -0.0031747205 0.065784371
v 0.067556113 -0.0031747205 0.065784371
v 0.067574205 -0.0016747203 0.064499398
v 0.067762143 -0.0016747203 0.064567802
v 0.068416204 -0.00167472 0.062770784
v 0.068228266 -0.0016747199 0.06270238
v 0.070240153 -0.0034589303 0.062504986
v 0.070240153 -0.0034589304 0.062704986
v 0.068440153 -0.0031747199 0.062704986
v 0.068440153 -0.0031747199 0.062513272
v 0.068440153 -0.0031747199 0.062504986
v 0.070540153 -0.0013747199 0.062804986
v 0.070340153 -0.0013747199 0.062804986
v 0.070340153 -0.0013747205 0.065904986
v 0.070540153 -0.0013747205 0.065904986
v 0.068416204 -0.0031747199 0.062770784
v 0.068437436 -0.0031747199 0.062736362
v 0.068470565 -0.0031747199 0.062713164
v 0.068510174 -0.0031747199 0.062704986
v 0.068510174 -0.0016747199 0.062704986
v 0.068470565 -0.0016747199 0.062713165
v 0.068437436 -0.0016747199 0.062736362
v 0.068416204 -0.00167472 0.062770784
v 0.068510174 -0.0016747199 0.062504986
v 0.068510174 -0.0031747199 0.062504986
v 0.06848664 -0.0031747199 0.06250591
v 0.068463252 -0.0031747199 0.062508678
v 0.068440153 -0.0031747199 0.062513272
v 0.068349728 -0.0031747199 0.062551496
v 0.068276484 -0.0031747199 0.062616865
v 0.068228266 -0.0031747199 0.06270238
v 0.068228266 -0.0016747199 0.06270238
v 0.068276484 -0.0016747199 0.062616866
v 0.068349728 -0.0016747199 0.062551496
v 0.068440153 -0.0016747199 0.062513272
v 0.068463252 -0.0016747199 0.062508678
v 0.06848664 -0.0016747199 0.062505911
v 0.067574205 -0.0016747203 0.064499398
v 0.067574205 -0.0031747202 0.064499398
v 0.067564199 -0.0031747202 0.064532819
v 0.067558141 -0.0031747203 0.064567176
v 0.067556113 -0.0031747203 0.064602004
v 0.067556113 -0.0016747203 0.064602004
v 0.067558141 -0.0016747203 0.064567176
v 0.067564199 -0.0016747203 0.064532819
v 0.067756112 -0.0031747203 0.064602004
v 0.067756789 -0.0031747203 0.064590395
v 0.067758808 -0.0031747203 0.064578942
v 0.067762143 -0.0031747203 0.064567802
v 0.067762143 -0.0016747203 0.064567802
v 0.067758808 -0.0016747203 0.064578943
v 0.067756789 -0.0016747203 0.064590395
v 0.067756112 -0.0016747203 0.064602004
v 0.070340153 -0.00347472 0.062804986
v 0.070540153 -0.00347472 0.062804986
v 0.070540153 -0.0034747205 0.065904986
v 0.070340153 -0.0034747205 0.065904986
v 0.068228266 -0.0031747199 0.06270238
v 0.068276484 -0.0031747199 0.062616865
v 0.068349728 -0.0031747199 0.062551496
v 0.068440153 -0.0031747199 0.062513272
v 0.068440153 -0.0031747199 0.062704986
v 0.068510174 -0.0031747199 0.062704986
v 0.068470565 -0.0031747199 0.062713164
v 0.068437436 -0.0031747199 0.062736362
v 0.068416204 -0.0031747199 0.062770784
v 0.067762143 -0.0031747203 0.064567802
v 0.067758808 -0.0031747203 0.064578942
v 0.067756789 -0.0031747203 0.064590395
v 0.067756112 -0.0031747203 0.064602004
v 0.067556113 -0.0031747203 0.064602004
v 0.067558141 -0.0031747203 0.064567176
v 0.067564199 -0.0031747202 0.064532819
v 0.067574205 -0.0031747202 0.064499398
v 0.068510174 -0.0016747199 0.062704986
v 0.068510174 -0.0031747199 0.062704986
v 0.068440153 -0.0031747199 0.062704986
v 0.070240153 -0.0034589304 0.062704986
v 0.070240153 -0.0013905094 0.062704986
v 0.068440153 -0.0016747199 0.062704986
v 0.068440153 -0.0031747199 0.062504986
v 0.068510174 -0.0031747199 0.062504986
v 0.068510174 -0.0016747199 0.062504986
v 0.068440153 -0.0016747199 0.062504986
v 0.070240153 -0.0013905094 0.062504986
v 0.070240153 -0.0034589303 0.062504986
v 0.068440153 -0.0016747199 0.062504986
v 0.068510174 -0.0016747199 0.062504986
v 0.06848664 -0.0016747199 0.062505911
v 0.068463252 -0.0016747199 0.062508678
v 0.068440153 -0.0016747199 0.062513272
v 0.068440153 -0.0031747199 0.062504986
v 0.068440153 -0.0031747199 0.062513272
v 0.068463252 -0.0031747199 0.062508678
v 0.06848664 -0.0031747199 0.06250591
v 0.068510174 -0.0031747199 0.062504986
v 0.067762143 -0.0016747203 0.064567802
v 0.067762143 -0.0031747203 0.064567802
v 0.068416204 -0.0031747199 0.062770784
v 0.068416204 -0.00167472 0.062770784
v 0.068228266 -0.0031747199 0.06270238
v 0.067574205 -0.0031747202 0.064499398
v 0.067574205 -0.0016747203 0.064499398
v 0.068228266 -0.0016747199 0.06270238
v 0.068416204 -0.0031747199 0.062770784
v 0.067762143 -0.0031747203 0.064567802
v 0.067574205 -0.0031747202 0.064499398
v 0.068228266 -0.0031747199 0.06270238
f 1 2 10
f 10 2 9
f 9 2 3
f 9 3 8
f 8 3 4
f 8 4 7
f 7 4 5
f 7 5 6
f 11 12 20
f 20 12 13
f 20 13 14
f 20 14 19
f 19 14 15
f 19 15 18
f 18 15 17
f 17 15 16
f 30 21 29
f 29 21 22
f 29 22 33
f 33 22 23
f 33 23 32
f 32 23 31
f 32 31 27
f 27 31 26
f 26 31 25
f 25 31 24
f 24 31 23
f 27 28 32
f 32 28 33
f 28 29 33
f 35 36 34
f 34 36 37
f 47 38 48
f 48 38 39
f 48 39 40
f 48 40 49
f 49 40 41
f 49 41 50
f 50 41 42
f 50 42 45
f 45 42 44
f 44 42 43
f 45 46 50
f 50 46 49
f 49 46 48
f 48 46 47
f 52 53 51
f 51 53 54
f 56 57 55
f 55 57 58
f 59 60 62
f 62 60 61
f 64 65 63
f 63 65 66
f 68 69 67
f 67 69 70
f 67 70 71
f 72 73 71
f 71 73 67
f 73 74 67
f 67 74 75
f 76 77 79
f 79 77 78
f 81 82 80
f 80 82 87
f 87 82 83
f 87 83 84
f 85 86 84
f 84 86 87
f 92 88 91
f 91 88 89
f 91 89 90
f 93 94 96
f 96 94 95
f 97 98 100
f 100 98 99
f 101 102 104
f 104 102 103
f 109 105 108
f 108 105 106
f 108 106 107
f 110 111 113
f 113 111 112
f 121 114 120
f 120 114 115
f 120 115 119
f 119 115 116
f 119 116 118
f 118 116 117
f 122 123 135
f 135 123 124
f 135 124 134
f 134 124 125
f 134 125 133
f 133 125 126
f 133 126 132
f 132 126 127
f 132 127 128
f 129 130 128
f 128 130 131
f 128 131 132
f 136 137 143
f 143 137 138
f 143 138 142
f 142 138 139
f 142 139 141
f 141 139 140
f 151 144 150
f 150 144 145
f 150 145 149
f 149 145 146
f 149 146 148
f 148 146 147
f 152 153 155
f 155 153 154
f 157 160 156
f 156 160 163
f 156 163 164
f 157 158 160
f 160 158 159
f 161 162 160
f 160 162 163
f 166 170 165
f 165 170 171
f 165 171 172
f 166 167 170
f 170 167 169
f 169 167 168
f 174 176 173
f 173 176 177
f 173 177 178
f 174 175 176
f 179 180 184
f 184 180 181
f 184 181 183
f 183 181 182
f 186 187 185
f 185 187 188
f 185 188 189
f 191 192 190
f 190 192 193
f 190 193 194
f 196 197 195
f 195 197 198
f 199 200 202
f 202 200 201
f 203 204 206
f 206 204 205
v 0.070240153 4.106957e-05 0.062704987
v 0.070275097 3.7480997e-05 0.062711291
v 0.070305641 3.3892496e-05 0.062729413
v 0.070331115 2.9586278e-05 0.062763442
v 0.070340153 2.5280059e-05 0.062804986
v 0.070340153 0.0021252801 0.062804987
v 0.070333849 0.0021216916 0.062770043
v 0.070315726 0.0021181031 0.062739499
v 0.070281697 0.002113797 0.062714025
v 0.070240153 0.0021094905 0.062704987
v 0.070540153 0.0021252801 0.062804987
v 0.070540153 2.5280059e-05 0.062804986
v 0.070517317 2.9227471e-05 0.062690181
v 0.070452284 3.3174805e-05 0.062592855
v 0.070354958 3.7122209e-05 0.062527823
v 0.070240153 4.1069605e-05 0.062504987
v 0.070240153 0.0021094906 0.062504987
v 0.070354958 0.0021134379 0.062527823
v 0.070452284 0.0021173855 0.062592855
v 0.070517317 0.0021213328 0.062690182
v 0.070540153 0.0021252801 0.062804987
v 0.070517317 0.0021213328 0.062690182
v 0.070452284 0.0021173855 0.062592855
v 0.070354958 0.0021134379 0.062527823
v 0.070240153 0.0021094906 0.062504987
v 0.070240153 0.0021094905 0.062704987
v 0.070281697 0.002113797 0.062714025
v 0.070315726 0.0021181031 0.062739499
v 0.070333849 0.0021216916 0.062770043
v 0.070340153 0.0021252801 0.062804987
v 0.070316644 0.0021134393 0.062620387
v 0.070381571 0.0021173855 0.062663569
v 0.070393397 0.0021182676 0.062676521
v 0.067756112 0.00032527955 0.065784372
v 0.067756112 0.0018252795 0.065784372
v 0.067556113 0.0018252795 0.065784372
v 0.067556113 0.00032527955 0.065784372
v 0.070540153 2.5280059e-05 0.062804986
v 0.070340153 2.5280059e-05 0.062804986
v 0.070331115 2.9586278e-05 0.062763442
v 0.070305641 3.3892496e-05 0.062729413
v 0.070275097 3.7480997e-05 0.062711291
v 0.070240153 4.106957e-05 0.062704987
v 0.070240153 4.1069605e-05 0.062504987
v 0.070354958 3.7122209e-05 0.062527823
v 0.070452284 3.3174805e-05 0.062592855
v 0.070517317 2.9227471e-05 0.062690181
v 0.070424752 2.922888e-05 0.062728495
v 0.070381571 3.3174793e-05 0.062663569
v 0.070368619 3.4056944e-05 0.062651743
v 0.070340153 0.0021252795 0.065904987
v 0.070340153 2.5279517e-05 0.065904986
v 0.070540153 2.5279517e-05 0.065904986
v 0.070540153 0.0021252795 0.065904987
v 0.067556113 0.0018252797 0.064602005
v 0.067556113 0.00032527976 0.064602004
v 0.067556113 0.00032527955 0.065784372
v 0.067556113 0.0018252795 0.065784372
v 0.067756112 0.00032527955 0.065784372
v 0.067756112 0.00032527976 0.064602004
v 0.067756112 0.0018252797 0.064602005
v 0.067756112 0.0018252795 0.065784372
v 0.070340153 0.0021252795 0.065904987
v 0.070340153 0.0021252801 0.062804987
v 0.070340153 2.5280059e-05 0.062804986
v 0.070340153 2.5279517e-05 0.065904986
v 0.068440153 0.0018252801 0.062704987
v 0.068440153 0.0018252801 0.062513273
v 0.068349728 0.0018252801 0.062551497
v 0.068276484 0.0018252801 0.062616866
v 0.068228266 0.0018252801 0.062702381
v 0.068416204 0.0018252801 0.062770785
v 0.068437436 0.0018252801 0.062736363
v 0.068470565 0.0018252801 0.062713165
v 0.068510174 0.0018252801 0.062704987
v 0.067756112 0.0018252797 0.064602005
v 0.067556113 0.0018252797 0.064602005
v 0.067556113 0.0018252795 0.065784372
v 0.067756112 0.0018252795 0.065784372
v 0.067556113 0.0018252797 0.064602005
v 0.067756112 0.0018252797 0.064602005
v 0.067756789 0.0018252797 0.064590395
v 0.067758808 0.0018252797 0.064578943
v 0.067762143 0.0018252797 0.064567803
v 0.067574205 0.0018252798 0.064499399
v 0.067564199 0.0018252798 0.06453282
v 0.067558141 0.0018252797 0.064567177
v 0.070240153 0.0021094905 0.062704987
v 0.070240153 0.0021094906 0.062504987
v 0.068440153 0.0018252801 0.062504987
v 0.068440153 0.0018252801 0.062513273
v 0.068440153 0.0018252801 0.062704987
v 0.070540153 2.5280059e-05 0.062804986
v 0.070540153 0.0021252801 0.062804987
v 0.070540153 0.0021252795 0.065904987
v 0.070540153 2.5279517e-05 0.065904986
v 0.067556113 0.00032527976 0.064602004
v 0.067756112 0.00032527976 0.064602004
v 0.067756112 0.00032527955 0.065784372
v 0.067556113 0.00032527955 0.065784372
v 0.067574205 0.0018252798 0.064499399
v 0.067762143 0.0018252797 0.064567803
v 0.068416204 0.0018252801 0.062770785
v 0.068228266 0.0018252801 0.062702381
v 0.070240153 4.1069605e-05 0.062504987
v 0.070240153 4.106957e-05 0.062704987
v 0.068440153 0.00032528009 0.062704987
v 0.068440153 0.00032528012 0.062513273
v 0.068440153 0.00032528012 0.062504987
v 0.070540153 0.0021252801 0.062804987
v 0.070340153 0.0021252801 0.062804987
v 0.070340153 0.0021252795 0.065904987
v 0.070540153 0.0021252795 0.065904987
v 0.068416204 0.00032528008 0.062770784
v 0.068437436 0.00032528008 0.062736362
v 0.068470565 0.00032528009 0.062713165
v 0.068510174 0.00032528009 0.062704987
v 0.068510174 0.0018252801 0.062704987
v 0.068470565 0.0018252801 0.062713165
v 0.068437436 0.0018252801 0.062736363
v 0.068416204 0.0018252801 0.062770785
v 0.068510174 0.0018252801 0.062504987
v 0.068510174 0.00032528012 0.062504987
v 0.06848664 0.00032528012 0.062505911
v 0.068463252 0.00032528012 0.062508679
v 0.068440153 0.00032528012 0.062513273
v 0.068349728 0.00032528011 0.062551496
v 0.068276484 0.0003252801 0.062616866
v 0.068228266 0.00032528009 0.062702381
v 0.068228266 0.0018252801 0.062702381
v 0.068276484 0.0018252801 0.062616866
v 0.068349728 0.0018252801 0.062551497
v 0.068440153 0.0018252801 0.062513273
v 0.068463252 0.0018252801 0.062508679
v 0.06848664 0.0018252801 0.062505911
v 0.067574205 0.0018252798 0.064499399
v 0.067574205 0.00032527977 0.064499398
v 0.067564199 0.00032527977 0.06453282
v 0.067558141 0.00032527976 0.064567177
v 0.067556113 0.00032527976 0.064602004
v 0.067556113 0.0018252797 0.064602005
v 0.067558141 0.0018252797 0.064567177
v 0.067564199 0.0018252798 0.06453282
v 0.067756112 0.00032527976 0.064602004
v 0.067756789 0.00032527976 0.064590395
v 0.067758808 0.00032527976 0.064578943
v 0.067762143 0.00032527976 0.064567802
v 0.067762143 0.0018252797 0.064567803
v 0.067758808 0.0018252797 0.064578943
v 0.067756789 0.0018252797 0.064590395
v 0.067756112 0.0018252797 0.064602005
v 0.070340153 2.5280059e-05 0.062804986
v 0.070540153 2.5280059e-05 0.062804986
v 0.070540153 2.5279517e-05 0.065904986
v 0.070340153 2.5279517e-05 0.065904986
v 0.068228266 0.00032528009 0.062702381
v 0.068276484 0.0003252801 0.062616866
v 0.068349728 0.00032528011 0.062551496
v 0.068440153 0.00032528012 0.062513273
v 0.068440153 0.00032528009 0.062704987
v 0.068510174 0.00032528009 0.062704987
v 0.068470565 0.00032528009 0.062713165
v 0.068437436 0.00032528008 0.062736362
v 0.068416204 0.00032528008 0.062770784
v 0.067762143 0.00032527976 0.064567802
v 0.067758808 0.00032527976 0.064578943
v 0.067756789 0.00032527976 0.064590395
v 0.067756112 0.00032527976 0.064602004
v 0.067556113 0.00032527976 0.064602004
v 0.067558141 0.00032527976 0.064567177
v 0.067564199 0.00032527977 0.06453282
v 0.067574205 0.00032527977 0.064499398
v 0.068510174 0.0018252801 0.062704987
v 0.068510174 0.00032528009 0.062704987
v 0.068440153 0.00032528009 0.062704987
v 0.070240153 4.106957e-05 0.062704987
v 0.070240153 0.0021094905 0.062704987
v 0.068440153 0.0018252801 0.062704987
v 0.068440153 0.00032528012 0.062504987
v 0.068510174 0.00032528012 0.062504987
v 0.068510174 0.0018252801 0.062504987
v 0.068440153 0.0018252801 0.062504987
v 0.070240153 0.0021094906 0.062504987
v 0.070240153 4.1069605e-05 0.062504987
v 0.068440153 0.0018252801 0.062504987
v 0.068510174 0.0018252801 0.062504987
v 0.06848664 0.0018252801 0.062505911
v 0.068463252 0.0018252801 0.062508679
v 0.068440153 0.0018252801 0.062513273
v 0.068440153 0.00032528012 0.062504987
v 0.068440153 0.00032528012 0.062513273
v 0.068463252 0.00032528012 0.062508679
v 0.06848664 0.00032528012 0.062505911
v 0.068510174 0.00032528012 0.062504987
v 0.067762143 0.0018252797 0.064567803
v 0.067762143 0.00032527976 0.064567802
v 0.068416204 0.00032528008 0.062770784
v 0.068416204 0.0018252801 0.062770785
v 0.068228266 0.00032528009 0.062702381
v 0.067574205 0.00032527977 0.064499398
v 0.067574205 0.0018252798 0.064499399
v 0.068228266 0.0018252801 0.062702381
v 0.068416204 0.00032528008 0.062770784
v 0.067762143 0.00032527976 0.064567802
v 0.067574205 0.00032527977 0.064499398
v 0.068228266 0.00032528009 0.062702381
f 207 208 216
f 216 208 215
f 215 208 209
f 215 209 214
f 214 209 210
f 214 210 213
f 213 210 211
f 213 211 212
f 217 218 226
f 226 218 219
f 226 219 220
f 226 220 225
f 225 220 221
f 225 221 224
f 224 221 223
f 223 221 222
f 236 227 235
f 235 227 228
f 235 228 239
f 239 228 229
f 239 229 238
f 238 229 237
f 238 237 233
f 233 237 232
f 232 237 231
f 231 237 230
f 230 237 229
f 233 234 238
f 238 234 239
f 234 235 239
f 241 242 240
f 240 242 243
f 253 244 254
f 254 244 245
f 254 245 246
f 254 246 255
f 255 246 247
f 255 247 256
f 256 247 248
f 256 248 251
f 251 248 250
f 250 248 249
f 251 252 256
f 256 252 255
f 255 252 254
f 254 252 253
f 258 259 257
f 257 259 260
f 262 263 261
f 261 263 264
f 265 266 268
f 268 266 267
f 270 271 269
f 269 271 272
f 274 275 273
f 273 275 276
f 273 276 277
f 278 279 277
f 277 279 273
f 279 280 273
f 273 280 281
f 282 283 285
f 285 283 284
f 287 288 286
f 286 288 293
f 293 288 289
f 293 289 290
f 291 292 290
f 290 292 293
f 298 294 297
f 297 294 295
f 297 295 296
f 299 300 302
f 302 300 301
f 303 304 306
f 306 304 305
f 307 308 310
f 310 308 309
f 315 311 314
f 314 311 312
f 314 312 313
f 316 317 319
f 319 317 318
f 327 320 326
f 326 320 321
f 326 321 325
f 325 321 322
f 325 322 324
f 324 322 323
f 328 329 341
f 341 329 330
f 341 330 340
f 340 330 331
f 340 331 339
f 339 331 332
f 339 332 338
f 338 332 333
f 338 333 334
f 335 336 334
f 334 336 337
f 334 337 338
f 342 343 349
f 349 343 344
f 349 344 348
f 348 344 345
f 348 345 347
f 347 345 346
f 357 350 356
f 356 350 351
f 356 351 355
f 355 351 352
f 355 352 354
f 354 352 353
f 358 359 361
f 361 359 360
f 363 366 362
f 362 366 369
f 362 369 370
f 363 364 366
f 366 364 365
f 367 368 366
f 366 368 369
f 372 376 371
f 371 376 377
f 371 377 378
f 372 373 376
f 376 373 375
f 375 373 374
f 380 382 379
f 379 382 383
f 379 383 384
f 380 381 382
f 385 386 390
f 390 386 387
f 390 387 389
f 389 387 388
f 392 393 391
f 391 393 394
f 391 394 395
f 397 398 396
f 396 398 399
f 396 399 400
f 402 403 401
f 401 403 404
f 405 406 408
f 408 406 407
f 409 410 412
f 412 410 411
