v -0.206 0.37114252 0.1135
v -0.206 0.3771425 0.1135
v 0.49885002 0.3771425 0.1135
v 0.49885002 0.37114252 0.1135
v -0.206 0.3771425 0.59
v -0.206 0.37114252 0.59
v 0.49885002 0.37114252 0.59
v 0.49885002 0.3771425 0.59
v -0.206 0.3771425 0.1135
v -0.206 0.37114252 0.1135
v -0.206 0.37114252 0.59
v -0.206 0.3771425 0.59
v -0.206 0.37114252 0.1135
v 0.49885002 0.37114252 0.1135
v 0.49885002 0.37114252 0.59
v -0.206 0.37114252 0.59
v 0.49885002 0.37114252 0.1135
v 0.49885002 0.3771425 0.1135
v 0.49885002 0.3771425 0.59
v 0.49885002 0.37114252 0.59
v 0.49885002 0.3771425 0.1135
v -0.206 0.3771425 0.1135
v -0.206 0.3771425 0.59
v 0.49885002 0.3771425 0.59
f 2 3 1
f 1 3 4
f 6 7 5
f 5 7 8
f 9 10 12
f 12 10 11
f 13 14 16
f 16 14 15
f 17 18 20
f 20 18 19
f 21 22 24
f 24 22 23
v 0.49885002 -0.3728575 0.2532
v 0.49885002 -0.3728575 0.1135
v 0.81 -0.3728575 0.1135
v 0.81 -0.3728575 0.2532
v 0.49885002 -0.3728575 0.2532
v 0.49885002 -0.19099906 0.38449524
v 0.49885002 0.0029702131 0.4971312
v 0.49885002 0.2071425 0.59
v 0.49885002 0.3771425 0.59
v 0.49885002 0.3771425 0.1135
v 0.49885002 -0.3728575 0.1135
v 0.49885002 -0.3728575 0.1135
v 0.49885002 0.3771425 0.1135
v 0.81 0.3771425 0.1135
v 0.81 -0.3728575 0.1135
v 0.81 0.2071425 0.59
v 0.81 0.0029702131 0.4971312
v 0.81 -0.19099906 0.38449524
v 0.81 -0.3728575 0.2532
v 0.81 -0.3728575 0.1135
v 0.81 0.3771425 0.1135
v 0.81 0.3771425 0.59
v 0.49885002 0.3771425 0.1135
v 0.49885002 0.3771425 0.59
v 0.81 0.3771425 0.59
v 0.81 0.3771425 0.1135
v 0.73885002 -0.2828575 0.32160824
v 0.55885002 -0.2828575 0.32160824
v 0.55885002 -0.2369668 0.35385551
v 0.55885002 -0.19029057 0.38495491
v 0.55885002 -0.1428575 0.41488728
v 0.73885002 -0.1428575 0.41488728
v 0.73885002 -0.19029057 0.38495491
v 0.73885002 -0.2369668 0.35385551
v 0.49885002 0.2071425 0.59
v 0.49885002 0.0029702131 0.4971312
v 0.49885002 -0.19099906 0.38449524
v 0.49885002 -0.3728575 0.2532
v 0.81 -0.3728575 0.2532
v 0.81 -0.19099906 0.38449524
v 0.81 0.0029702131 0.4971312
v 0.81 0.2071425 0.59
v 0.49885002 0.3771425 0.59
v 0.49885002 0.2071425 0.59
v 0.81 0.2071425 0.59
v 0.81 0.3771425 0.59
v 0.55885002 -0.1428575 0.41488728
v 0.55885002 -0.19029057 0.38495491
v 0.55885002 -0.2369668 0.35385551
v 0.55885002 -0.2828575 0.32160824
v 0.55885002 -0.28119407 0.31911163
v 0.55885002 -0.14119406 0.41239067
v 0.55885002 -0.2828575 0.32160824
v 0.73885002 -0.2828575 0.32160824
v 0.73885002 -0.28119407 0.31911163
v 0.55885002 -0.28119407 0.31911163
v 0.55885002 -0.14119406 0.41239067
v 0.55885002 -0.28119407 0.31911163
v 0.73885002 -0.28119407 0.31911163
v 0.73885002 -0.14119406 0.41239067
v 0.73885002 -0.2828575 0.32160824
v 0.73885002 -0.2369668 0.35385551
v 0.73885002 -0.19029057 0.38495491
v 0.73885002 -0.1428575 0.41488728
v 0.73885002 -0.14119406 0.41239067
v 0.73885002 -0.28119407 0.31911163
v 0.73885002 -0.1428575 0.41488728
v 0.55885002 -0.1428575 0.41488728
v 0.55885002 -0.14119406 0.41239067
v 0.73885002 -0.14119406 0.41239067
f 25 26 28
f 28 26 27
f 35 29 34
f 34 29 30
f 34 30 31
f 31 32 34
f 34 32 33
f 36 37 39
f 39 37 38
f 46 40 45
f 45 40 41
f 45 41 42
f 42 43 45
f 45 43 44
f 47 48 50
f 50 48 49
f 52 62 51
f 51 62 63
f 51 63 64
f 62 52 61
f 61 52 53
f 61 53 54
f 54 55 61
f 61 55 60
f 60 55 56
f 60 56 65
f 65 56 64
f 64 56 57
f 64 57 58
f 58 51 64
f 66 59 65
f 65 59 60
f 67 68 70
f 70 68 69
f 71 72 76
f 76 72 73
f 76 73 75
f 75 73 74
f 78 79 77
f 77 79 80
f 81 82 84
f 84 82 83
f 85 86 90
f 90 86 89
f 89 86 87
f 89 87 88
f 92 93 91
f 91 93 94
v -0.206 -0.3728575 0.085
v -0.206 -0.3648575 0.085
v -0.204225 -0.3648575 0.085
v -0.204225 -0.3728575 0.085
v -0.206 -0.3648575 0.2532
v -0.206 -0.3728575 0.2532
v -0.204225 -0.3728575 0.2532
v -0.204225 -0.3648575 0.2532
v -0.206 -0.3648575 0.085
v -0.206 -0.3728575 0.085
v -0.206 -0.3728575 0.2532
v -0.206 -0.3648575 0.2532
v -0.206 -0.3728575 0.085
v -0.204225 -0.3728575 0.085
v -0.204225 -0.3728575 0.2532
v -0.206 -0.3728575 0.2532
v -0.204225 -0.3728575 0.085
v -0.204225 -0.3648575 0.085
v -0.204225 -0.3648575 0.2532
v -0.204225 -0.3728575 0.2532
v -0.204225 -0.3648575 0.085
v -0.206 -0.3648575 0.085
v -0.206 -0.3648575 0.2532
v -0.204225 -0.3648575 0.2532
f 96 97 95
f 95 97 98
f 100 101 99
f 99 101 102
f 103 104 106
f 106 104 105
f 107 108 110
f 110 108 109
f 111 112 114
f 114 112 113
f 115 116 118
f 118 116 117
v 0.041075001 -0.3728575 0.085
v 0.041075001 -0.3648575 0.085
v 0.25177502 -0.3648575 0.085
v 0.25177502 -0.3728575 0.085
v 0.041075001 -0.3648575 0.2532
v 0.041075001 -0.3728575 0.2532
v 0.25177502 -0.3728575 0.2532
v 0.25177502 -0.3648575 0.2532
v 0.041075001 -0.3648575 0.085
v 0.041075001 -0.3728575 0.085
v 0.041075001 -0.3728575 0.2532
v 0.041075001 -0.3648575 0.2532
v 0.041075001 -0.3728575 0.085
v 0.25177502 -0.3728575 0.085
v 0.25177502 -0.3728575 0.2532
v 0.041075001 -0.3728575 0.2532
v 0.25177502 -0.3728575 0.085
v 0.25177502 -0.3648575 0.085
v 0.25177502 -0.3648575 0.2532
v 0.25177502 -0.3728575 0.2532
v 0.25177502 -0.3648575 0.085
v 0.041075001 -0.3648575 0.085
v 0.041075001 -0.3648575 0.2532
v 0.25177502 -0.3648575 0.2532
f 120 121 119
f 119 121 122
f 124 125 123
f 123 125 126
f 127 128 130
f 130 128 129
f 131 132 134
f 134 132 133
f 135 136 138
f 138 136 137
f 139 140 142
f 142 140 141
v 0.49707497 -0.3728575 0.085
v 0.49707497 -0.3648575 0.085
v 0.49885002 -0.3648575 0.085
v 0.49885002 -0.3728575 0.085
v 0.49707497 -0.3648575 0.2532
v 0.49707497 -0.3728575 0.2532
v 0.49885002 -0.3728575 0.2532
v 0.49885002 -0.3648575 0.2532
v 0.49707497 -0.3648575 0.085
v 0.49707497 -0.3728575 0.085
v 0.49707497 -0.3728575 0.2532
v 0.49707497 -0.3648575 0.2532
v 0.49707497 -0.3728575 0.085
v 0.49885002 -0.3728575 0.085
v 0.49885002 -0.3728575 0.2532
v 0.49707497 -0.3728575 0.2532
v 0.49885002 -0.3728575 0.085
v 0.49885002 -0.3648575 0.085
v 0.49885002 -0.3648575 0.2532
v 0.49885002 -0.3728575 0.2532
v 0.49885002 -0.3648575 0.085
v 0.49707497 -0.3648575 0.085
v 0.49707497 -0.3648575 0.2532
v 0.49885002 -0.3648575 0.2532
f 144 145 143
f 143 145 146
f 148 149 147
f 147 149 150
f 151 152 154
f 154 152 153
f 155 156 158
f 158 156 157
f 159 160 162
f 162 160 161
f 163 164 166
f 166 164 165
v -0.25 -0.3728575 0.085
v -0.25 0.3771425 0.085
v -0.206 0.3771425 0.085
v -0.206 -0.3728575 0.085
v -0.25 0.3771425 0.1135
v -0.25 -0.3728575 0.1135
v -0.206 -0.3728575 0.1135
v -0.206 0.3771425 0.1135
v -0.25 0.3771425 0.085
v -0.25 -0.3728575 0.085
v -0.25 -0.3728575 0.1135
v -0.25 0.3771425 0.1135
v -0.25 -0.3728575 0.085
v -0.206 -0.3728575 0.085
v -0.206 -0.3728575 0.1135
v -0.25 -0.3728575 0.1135
v -0.206 -0.3728575 0.085
v -0.206 0.3771425 0.085
v -0.206 0.3771425 0.1135
v -0.206 -0.3728575 0.1135
v -0.206 0.3771425 0.085
v -0.25 0.3771425 0.085
v -0.25 0.3771425 0.1135
v -0.206 0.3771425 0.1135
f 168 169 167
f 167 169 170
f 172 173 171
f 171 173 174
f 175 176 178
f 178 176 177
f 179 180 182
f 182 180 181
f 183 184 186
f 186 184 185
f 187 188 190
f 190 188 189
v 0.49885002 -0.3728575 0.085
v 0.49885002 0.3771425 0.085
v 0.81 0.3771425 0.085
v 0.81 -0.3728575 0.085
v 0.49885002 0.3771425 0.1135
v 0.49885002 -0.3728575 0.1135
v 0.81 -0.3728575 0.1135
v 0.81 0.3771425 0.1135
v 0.49885002 0.3771425 0.085
v 0.49885002 -0.3728575 0.085
v 0.49885002 -0.3728575 0.1135
v 0.49885002 0.3771425 0.1135
v 0.49885002 -0.3728575 0.085
v 0.81 -0.3728575 0.085
v 0.81 -0.3728575 0.1135
v 0.49885002 -0.3728575 0.1135
v 0.81 -0.3728575 0.085
v 0.81 0.3771425 0.085
v 0.81 0.3771425 0.1135
v 0.81 -0.3728575 0.1135
v 0.81 0.3771425 0.085
v 0.49885002 0.3771425 0.085
v 0.49885002 0.3771425 0.1135
v 0.81 0.3771425 0.1135
f 192 193 191
f 191 193 194
f 196 197 195
f 195 197 198
f 199 200 202
f 202 200 201
f 203 204 206
f 206 204 205
f 207 208 210
f 210 208 209
f 211 212 214
f 214 212 213
v -0.206 0.37114252 0.085
v -0.206 0.3771425 0.085
v 0.49885002 0.3771425 0.085
v 0.49885002 0.37114252 0.085
v -0.206 0.3771425 0.1135
v -0.206 0.37114252 0.1135
v 0.49885002 0.37114252 0.1135
v 0.49885002 0.3771425 0.1135
v -0.206 0.3771425 0.085
v -0.206 0.37114252 0.085
v -0.206 0.37114252 0.1135
v -0.206 0.3771425 0.1135
v -0.206 0.37114252 0.085
v 0.49885002 0.37114252 0.085
v 0.49885002 0.37114252 0.1135
v -0.206 0.37114252 0.1135
v 0.49885002 0.37114252 0.085
v 0.49885002 0.3771425 0.085
v 0.49885002 0.3771425 0.1135
v 0.49885002 0.37114252 0.1135
v 0.49885002 0.3771425 0.085
v -0.206 0.3771425 0.085
v -0.206 0.3771425 0.1135
v 0.49885002 0.3771425 0.1135
f 216 217 215
f 215 217 218
f 220 221 219
f 219 221 222
f 223 224 226
f 226 224 225
f 227 228 230
f 230 228 229
f 231 232 234
f 234 232 233
f 235 236 238
f 238 236 237
