v 0.56684998 -0.27619991 0.32604404
v 0.56684998 -0.27636625 0.32629372
v 0.56684998 -0.14968144 0.4107011
v 0.56684998 -0.1495151 0.41045147
v 0.73084999 -0.27636625 0.32629372
v 0.73084999 -0.27619991 0.32604404
v 0.73084999 -0.1495151 0.41045147
v 0.73084999 -0.14968144 0.4107011
v 0.56684998 -0.27636625 0.32629372
v 0.56684998 -0.27619991 0.32604404
v 0.73084999 -0.27619991 0.32604404
v 0.73084999 -0.27636625 0.32629372
v 0.56684998 -0.27619991 0.32604404
v 0.56684998 -0.1495151 0.41045147
v 0.73084999 -0.1495151 0.41045147
v 0.73084999 -0.27619991 0.32604404
v 0.56684998 -0.1495151 0.41045147
v 0.56684998 -0.14968144 0.4107011
v 0.73084999 -0.14968144 0.4107011
v 0.73084999 -0.1495151 0.41045147
v 0.56684998 -0.14968144 0.4107011
v 0.56684998 -0.27636625 0.32629372
v 0.73084999 -0.27636625 0.32629372
v 0.73084999 -0.14968144 0.4107011
f 1 2 4
f 4 2 3
f 6 7 5
f 5 7 8
f 9 10 12
f 12 10 11
f 13 14 16
f 16 14 15
f 17 18 20
f 20 18 19
f 21 22 24
f 24 22 23
