v -0.513 -0.3713575 0.214
v -0.513 -0.3703575 0.214
v -0.496 -0.3703575 0.214
v -0.496 -0.3713575 0.214
v -0.513 -0.3703575 0.231
v -0.513 -0.3713575 0.231
v -0.496 -0.3713575 0.231
v -0.496 -0.3703575 0.231
v -0.513 -0.3703575 0.214
v -0.513 -0.3713575 0.214
v -0.513 -0.3713575 0.231
v -0.513 -0.3703575 0.231
v -0.513 -0.3713575 0.214
v -0.496 -0.3713575 0.214
v -0.496 -0.3713575 0.231
v -0.513 -0.3713575 0.231
v -0.496 -0.3713575 0.214
v -0.496 -0.3703575 0.214
v -0.496 -0.3703575 0.231
v -0.496 -0.3713575 0.231
v -0.496 -0.3703575 0.214
v -0.513 -0.3703575 0.214
v -0.513 -0.3703575 0.231
v -0.496 -0.3703575 0.231
f 2 3 1
f 1 3 4
f 6 7 5
f 5 7 8
f 9 10 12
f 12 10 11
f 13 14 16
f 16 14 15
f 17 18 20
f 20 18 19
f 21 22 24
f 24 22 23
v -0.511 -0.0448575 0.44099998
v -0.50993375 -0.037783376 0.44099998
v -0.50682973 -0.03133782 0.44099998
v -0.50196376 -0.026093546 0.44099998
v -0.49576818 -0.022516528 0.44099998
v -0.48879353 -0.020924607 0.44099998
v -0.4816595 -0.021459232 0.44099998
v -0.475 -0.024072891 0.44099998
v -0.46940676 -0.028533355 0.44099998
v -0.46537675 -0.03444429 0.44099998
v -0.46326806 -0.041280485 0.44099998
v -0.46326806 -0.048434513 0.44099998
v -0.46537675 -0.05527071 0.44099998
v -0.46940676 -0.061181646 0.44099998
v -0.475 -0.06564211 0.44099998
v -0.4816595 -0.06825577 0.44099998
v -0.48879353 -0.068790391 0.44099998
v -0.49576818 -0.06719847 0.44099998
v -0.50196376 -0.063621456 0.44099998
v -0.50682973 -0.058377181 0.44099998
v -0.50993375 -0.051931625 0.44099998
v -0.511 -0.0448575 0.45900002
v -0.50993375 -0.051931625 0.45900002
v -0.50682973 -0.058377181 0.45900002
v -0.50196376 -0.063621456 0.45900002
v -0.49576818 -0.06719847 0.45900002
v -0.48879353 -0.068790391 0.45900002
v -0.4816595 -0.06825577 0.45900002
v -0.475 -0.06564211 0.45900002
v -0.46940676 -0.061181646 0.45900002
v -0.46537675 -0.05527071 0.45900002
v -0.46326806 -0.048434513 0.45900002
v -0.46326806 -0.041280485 0.45900002
v -0.46537675 -0.03444429 0.45900002
v -0.46940676 -0.028533355 0.45900002
v -0.475 -0.024072891 0.45900002
v -0.4816595 -0.021459232 0.45900002
v -0.48879353 -0.020924607 0.45900002
v -0.49576818 -0.022516528 0.45900002
v -0.50196376 -0.026093546 0.45900002
v -0.50682973 -0.03133782 0.45900002
v -0.50993375 -0.037783376 0.45900002
v -0.511 -0.0448575 0.45900002
v -0.50993375 -0.037783376 0.45900002
v -0.50682973 -0.03133782 0.45900002
v -0.50196376 -0.026093546 0.45900002
v -0.49576818 -0.022516528 0.45900002
v -0.48879353 -0.020924607 0.45900002
v -0.4816595 -0.021459232 0.45900002
v -0.475 -0.024072891 0.45900002
v -0.46940676 -0.028533355 0.45900002
v -0.46537675 -0.03444429 0.45900002
v -0.46326806 -0.041280485 0.45900002
v -0.46326806 -0.048434513 0.45900002
v -0.46537675 -0.05527071 0.45900002
v -0.46940676 -0.061181646 0.45900002
v -0.475 -0.06564211 0.45900002
v -0.4816595 -0.06825577 0.45900002
v -0.48879353 -0.068790391 0.45900002
v -0.49576818 -0.06719847 0.45900002
v -0.50196376 -0.063621456 0.45900002
v -0.50682973 -0.058377181 0.45900002
v -0.50993375 -0.051931625 0.45900002
v -0.511 -0.0448575 0.44099998
v -0.50993375 -0.051931625 0.44099998
v -0.50682973 -0.058377181 0.44099998
v -0.50196376 -0.063621456 0.44099998
v -0.49576818 -0.06719847 0.44099998
v -0.48879353 -0.068790391 0.44099998
v -0.4816595 -0.06825577 0.44099998
v -0.475 -0.06564211 0.44099998
v -0.46940676 -0.061181646 0.44099998
v -0.46537675 -0.05527071 0.44099998
v -0.46326806 -0.048434513 0.44099998
v -0.46326806 -0.041280485 0.44099998
v -0.46537675 -0.03444429 0.44099998
v -0.46940676 -0.028533355 0.44099998
v -0.475 -0.024072891 0.44099998
v -0.4816595 -0.021459232 0.44099998
v -0.48879353 -0.020924607 0.44099998
v -0.49576818 -0.022516528 0.44099998
v -0.50196376 -0.026093546 0.44099998
v -0.50682973 -0.03133782 0.44099998
v -0.50993375 -0.037783376 0.44099998
v -0.511 -0.0448575 0.44099998
v -0.511 -0.0448575 0.45900002
f 45 25 40
f 40 25 26
f 40 26 27
f 27 28 40
f 40 28 29
f 40 29 30
f 30 31 40
f 40 31 39
f 39 31 32
f 39 32 38
f 38 32 33
f 38 33 37
f 37 33 34
f 37 34 36
f 36 34 35
f 41 42 40
f 40 42 43
f 40 43 44
f 44 45 40
f 66 46 52
f 52 46 47
f 52 47 48
f 48 49 52
f 52 49 50
f 52 50 51
f 53 61 52
f 52 61 62
f 52 62 63
f 61 53 60
f 60 53 54
f 60 54 59
f 59 54 55
f 59 55 58
f 58 55 56
f 58 56 57
f 63 64 52
f 52 64 65
f 52 65 66
f 68 108 67
f 67 108 109
f 110 88 87
f 87 88 89
f 87 89 86
f 86 89 90
f 86 90 85
f 85 90 91
f 85 91 84
f 84 91 92
f 84 92 83
f 83 92 93
f 83 93 82
f 82 93 94
f 82 94 81
f 81 94 95
f 81 95 80
f 80 95 96
f 80 96 79
f 79 96 97
f 79 97 78
f 78 97 98
f 78 98 77
f 77 98 99
f 77 99 76
f 76 99 100
f 76 100 75
f 75 100 101
f 75 101 74
f 74 101 102
f 74 102 73
f 73 102 103
f 73 103 72
f 72 103 104
f 72 104 71
f 71 104 105
f 71 105 70
f 70 105 106
f 70 106 69
f 69 106 107
f 69 107 68
f 68 107 108
