v 0.066140153 -0.0092552237 0.082110296
v 0.066140153 -0.010423624 0.082110296
v 0.066140153 -0.010423624 0.082510295
v 0.066140153 -0.0092552237 0.082510295
v 0.066300152 -0.0092552237 0.082510295
v 0.066140153 -0.0092552237 0.082510295
v 0.066140153 -0.010423624 0.082510295
v 0.066300152 -0.010423624 0.082510295
v 0.066300152 -0.010423624 0.082510295
v 0.066140153 -0.010423624 0.082510295
v 0.066140153 -0.010423624 0.082110296
v 0.066300152 -0.010423624 0.082110296
v 0.066300152 -0.010423624 0.082110296
v 0.066140153 -0.010423624 0.082110296
v 0.066140153 -0.0092552237 0.082110296
v 0.066300152 -0.0092552237 0.082110296
v 0.066300152 -0.010423624 0.082110296
v 0.066300152 -0.0092552237 0.082110296
v 0.066300152 -0.0092552237 0.082510295
v 0.066300152 -0.010423624 0.082510295
v 0.066300152 -0.0092552237 0.082110296
v 0.066140153 -0.0092552237 0.082110296
v 0.066140153 -0.0092552237 0.082510295
v 0.066300152 -0.0092552237 0.082510295
f 1 2 4
f 4 2 3
f 6 7 5
f 5 7 8
f 10 11 9
f 9 11 12
f 14 15 13
f 13 15 16
f 17 18 20
f 20 18 19
f 22 23 21
f 21 23 24
v 0.066140153 -0.0092552237 0.081170495
v 0.066140153 -0.010423624 0.081170495
v 0.066140153 -0.010423624 0.081570495
v 0.066140153 -0.0092552237 0.081570495
v 0.066300152 -0.0092552237 0.081570495
v 0.066140153 -0.0092552237 0.081570495
v 0.066140153 -0.010423624 0.081570495
v 0.066300152 -0.010423624 0.081570495
v 0.066300152 -0.010423624 0.081570495
v 0.066140153 -0.010423624 0.081570495
v 0.066140153 -0.010423624 0.081170495
v 0.066300152 -0.010423624 0.081170495
v 0.066300152 -0.010423624 0.081170495
v 0.066140153 -0.010423624 0.081170495
v 0.066140153 -0.0092552237 0.081170495
v 0.066300152 -0.0092552237 0.081170495
v 0.066300152 -0.010423624 0.081170495
v 0.066300152 -0.0092552237 0.081170495
v 0.066300152 -0.0092552237 0.081570495
v 0.066300152 -0.010423624 0.081570495
v 0.066300152 -0.0092552237 0.081170495
v 0.066140153 -0.0092552237 0.081170495
v 0.066140153 -0.0092552237 0.081570495
v 0.066300152 -0.0092552237 0.081570495
f 25 26 28
f 28 26 27
f 30 31 29
f 29 31 32
f 34 35 33
f 33 35 36
f 38 39 37
f 37 39 40
f 41 42 44
f 44 42 43
f 46 47 45
f 45 47 48
v 0.066140153 -0.0092552237 0.080230695
v 0.066140153 -0.010423624 0.080230695
v 0.066140153 -0.010423624 0.080630694
v 0.066140153 -0.0092552237 0.080630694
v 0.066300152 -0.0092552237 0.080630694
v 0.066140153 -0.0092552237 0.080630694
v 0.066140153 -0.010423624 0.080630694
v 0.066300152 -0.010423624 0.080630694
v 0.066300152 -0.010423624 0.080630694
v 0.066140153 -0.010423624 0.080630694
v 0.066140153 -0.010423624 0.080230695
v 0.066300152 -0.010423624 0.080230695
v 0.066300152 -0.010423624 0.080230695
v 0.066140153 -0.010423624 0.080230695
v 0.066140153 -0.0092552237 0.080230695
v 0.066300152 -0.0092552237 0.080230695
v 0.066300152 -0.010423624 0.080230695
v 0.066300152 -0.0092552237 0.080230695
v 0.066300152 -0.0092552237 0.080630694
v 0.066300152 -0.010423624 0.080630694
v 0.066300152 -0.0092552237 0.080230695
v 0.066140153 -0.0092552237 0.080230695
v 0.066140153 -0.0092552237 0.080630694
v 0.066300152 -0.0092552237 0.080630694
f 49 50 52
f 52 50 51
f 54 55 53
f 53 55 56
f 58 59 57
f 57 59 60
f 62 63 61
f 61 63 64
f 65 66 68
f 68 66 67
f 70 71 69
f 69 71 72
v 0.066140153 -0.0078660025 0.080205301
v 0.066140153 -0.0090344025 0.080205301
v 0.066140153 -0.0090344025 0.0806053
v 0.066140153 -0.0078660025 0.0806053
v 0.066300152 -0.0078660025 0.0806053
v 0.066140153 -0.0078660025 0.0806053
v 0.066140153 -0.0090344025 0.0806053
v 0.066300152 -0.0090344025 0.0806053
v 0.066300152 -0.0090344025 0.0806053
v 0.066140153 -0.0090344025 0.0806053
v 0.066140153 -0.0090344025 0.080205301
v 0.066300152 -0.0090344025 0.080205301
v 0.066300152 -0.0090344025 0.080205301
v 0.066140153 -0.0090344025 0.080205301
v 0.066140153 -0.0078660025 0.080205301
v 0.066300152 -0.0078660025 0.080205301
v 0.066300152 -0.0090344025 0.080205301
v 0.066300152 -0.0078660025 0.080205301
v 0.066300152 -0.0078660025 0.0806053
v 0.066300152 -0.0090344025 0.0806053
v 0.066300152 -0.0078660025 0.080205301
v 0.066140153 -0.0078660025 0.080205301
v 0.066140153 -0.0078660025 0.0806053
v 0.066300152 -0.0078660025 0.0806053
f 73 74 76
f 76 74 75
f 78 79 77
f 77 79 80
f 82 83 81
f 81 83 84
f 86 87 85
f 85 87 88
f 89 90 92
f 92 90 91
f 94 95 93
f 93 95 96
v 0.066140153 -0.0078660025 0.082084901
v 0.066140153 -0.0090344025 0.082084901
v 0.066140153 -0.0090344025 0.0824849
v 0.066140153 -0.0078660025 0.0824849
v 0.066300152 -0.0078660025 0.0824849
v 0.066140153 -0.0078660025 0.0824849
v 0.066140153 -0.0090344025 0.0824849
v 0.066300152 -0.0090344025 0.0824849
v 0.066300152 -0.0090344025 0.0824849
v 0.066140153 -0.0090344025 0.0824849
v 0.066140153 -0.0090344025 0.082084901
v 0.066300152 -0.0090344025 0.082084901
v 0.066300152 -0.0090344025 0.082084901
v 0.066140153 -0.0090344025 0.082084901
v 0.066140153 -0.0078660025 0.082084901
v 0.066300152 -0.0078660025 0.082084901
v 0.066300152 -0.0090344025 0.082084901
v 0.066300152 -0.0078660025 0.082084901
v 0.066300152 -0.0078660025 0.0824849
v 0.066300152 -0.0090344025 0.0824849
v 0.066300152 -0.0078660025 0.082084901
v 0.066140153 -0.0078660025 0.082084901
v 0.066140153 -0.0078660025 0.0824849
v 0.066300152 -0.0078660025 0.0824849
f 97 98 100
f 100 98 99
f 102 103 101
f 101 103 104
f 106 107 105
f 105 107 108
f 110 111 109
f 109 111 112
f 113 114 116
f 116 114 115
f 118 119 117
f 117 119 120
v 0.066140153 -0.016805212 0.082110296
v 0.066140153 -0.017973611 0.082110296
v 0.066140153 -0.017973611 0.082510295
v 0.066140153 -0.016805212 0.082510295
v 0.066300152 -0.016805212 0.082510295
v 0.066140153 -0.016805212 0.082510295
v 0.066140153 -0.017973611 0.082510295
v 0.066300152 -0.017973611 0.082510295
v 0.066300152 -0.017973611 0.082510295
v 0.066140153 -0.017973611 0.082510295
v 0.066140153 -0.017973611 0.082110296
v 0.066300152 -0.017973611 0.082110296
v 0.066300152 -0.017973611 0.082110296
v 0.066140153 -0.017973611 0.082110296
v 0.066140153 -0.016805212 0.082110296
v 0.066300152 -0.016805212 0.082110296
v 0.066300152 -0.017973611 0.082110296
v 0.066300152 -0.016805212 0.082110296
v 0.066300152 -0.016805212 0.082510295
v 0.066300152 -0.017973611 0.082510295
v 0.066300152 -0.016805212 0.082110296
v 0.066140153 -0.016805212 0.082110296
v 0.066140153 -0.016805212 0.082510295
v 0.066300152 -0.016805212 0.082510295
f 121 122 124
f 124 122 123
f 126 127 125
f 125 127 128
f 130 131 129
f 129 131 132
f 134 135 133
f 133 135 136
f 137 138 140
f 140 138 139
f 142 143 141
f 141 143 144
v 0.066140153 -0.016805212 0.081170495
v 0.066140153 -0.017973611 0.081170495
v 0.066140153 -0.017973611 0.081570495
v 0.066140153 -0.016805212 0.081570495
v 0.066300152 -0.016805212 0.081570495
v 0.066140153 -0.016805212 0.081570495
v 0.066140153 -0.017973611 0.081570495
v 0.066300152 -0.017973611 0.081570495
v 0.066300152 -0.017973611 0.081570495
v 0.066140153 -0.017973611 0.081570495
v 0.066140153 -0.017973611 0.081170495
v 0.066300152 -0.017973611 0.081170495
v 0.066300152 -0.017973611 0.081170495
v 0.066140153 -0.017973611 0.081170495
v 0.066140153 -0.016805212 0.081170495
v 0.066300152 -0.016805212 0.081170495
v 0.066300152 -0.017973611 0.081170495
v 0.066300152 -0.016805212 0.081170495
v 0.066300152 -0.016805212 0.081570495
v 0.066300152 -0.017973611 0.081570495
v 0.066300152 -0.016805212 0.081170495
v 0.066140153 -0.016805212 0.081170495
v 0.066140153 -0.016805212 0.081570495
v 0.066300152 -0.016805212 0.081570495
f 145 146 148
f 148 146 147
f 150 151 149
f 149 151 152
f 154 155 153
f 153 155 156
f 158 159 157
f 157 159 160
f 161 162 164
f 164 162 163
f 166 167 165
f 165 167 168
v 0.066140153 -0.016805212 0.080230695
v 0.066140153 -0.017973611 0.080230695
v 0.066140153 -0.017973611 0.080630694
v 0.066140153 -0.016805212 0.080630694
v 0.066300152 -0.016805212 0.080630694
v 0.066140153 -0.016805212 0.080630694
v 0.066140153 -0.017973611 0.080630694
v 0.066300152 -0.017973611 0.080630694
v 0.066300152 -0.017973611 0.080630694
v 0.066140153 -0.017973611 0.080630694
v 0.066140153 -0.017973611 0.080230695
v 0.066300152 -0.017973611 0.080230695
v 0.066300152 -0.017973611 0.080230695
v 0.066140153 -0.017973611 0.080230695
v 0.066140153 -0.016805212 0.080230695
v 0.066300152 -0.016805212 0.080230695
v 0.066300152 -0.017973611 0.080230695
v 0.066300152 -0.016805212 0.080230695
v 0.066300152 -0.016805212 0.080630694
v 0.066300152 -0.017973611 0.080630694
v 0.066300152 -0.016805212 0.080230695
v 0.066140153 -0.016805212 0.080230695
v 0.066140153 -0.016805212 0.080630694
v 0.066300152 -0.016805212 0.080630694
f 169 170 172
f 172 170 171
f 174 175 173
f 173 175 176
f 178 179 177
f 177 179 180
f 182 183 181
f 181 183 184
f 185 186 188
f 188 186 187
f 190 191 189
f 189 191 192
v 0.066140153 -0.015416006 0.080205301
v 0.066140153 -0.016584406 0.080205301
v 0.066140153 -0.016584406 0.0806053
v 0.066140153 -0.015416006 0.0806053
v 0.066300152 -0.015416006 0.0806053
v 0.066140153 -0.015416006 0.0806053
v 0.066140153 -0.016584406 0.0806053
v 0.066300152 -0.016584406 0.0806053
v 0.066300152 -0.016584406 0.0806053
v 0.066140153 -0.016584406 0.0806053
v 0.066140153 -0.016584406 0.080205301
v 0.066300152 -0.016584406 0.080205301
v 0.066300152 -0.016584406 0.080205301
v 0.066140153 -0.016584406 0.080205301
v 0.066140153 -0.015416006 0.080205301
v 0.066300152 -0.015416006 0.080205301
v 0.066300152 -0.016584406 0.080205301
v 0.066300152 -0.015416006 0.080205301
v 0.066300152 -0.015416006 0.0806053
v 0.066300152 -0.016584406 0.0806053
v 0.066300152 -0.015416006 0.080205301
v 0.066140153 -0.015416006 0.080205301
v 0.066140153 -0.015416006 0.0806053
v 0.066300152 -0.015416006 0.0806053
f 193 194 196
f 196 194 195
f 198 199 197
f 197 199 200
f 202 203 201
f 201 203 204
f 206 207 205
f 205 207 208
f 209 210 212
f 212 210 211
f 214 215 213
f 213 215 216
v 0.066140153 -0.015416006 0.082084901
v 0.066140153 -0.016584406 0.082084901
v 0.066140153 -0.016584406 0.0824849
v 0.066140153 -0.015416006 0.0824849
v 0.066300152 -0.015416006 0.0824849
v 0.066140153 -0.015416006 0.0824849
v 0.066140153 -0.016584406 0.0824849
v 0.066300152 -0.016584406 0.0824849
v 0.066300152 -0.016584406 0.0824849
v 0.066140153 -0.016584406 0.0824849
v 0.066140153 -0.016584406 0.082084901
v 0.066300152 -0.016584406 0.082084901
v 0.066300152 -0.016584406 0.082084901
v 0.066140153 -0.016584406 0.082084901
v 0.066140153 -0.015416006 0.082084901
v 0.066300152 -0.015416006 0.082084901
v 0.066300152 -0.016584406 0.082084901
v 0.066300152 -0.015416006 0.082084901
v 0.066300152 -0.015416006 0.0824849
v 0.066300152 -0.016584406 0.0824849
v 0.066300152 -0.015416006 0.082084901
v 0.066140153 -0.015416006 0.082084901
v 0.066140153 -0.015416006 0.0824849
v 0.066300152 -0.015416006 0.0824849
f 217 218 220
f 220 218 219
f 222 223 221
f 221 223 224
f 226 227 225
f 225 227 228
f 230 231 229
f 229 231 232
f 233 234 236
f 236 234 235
f 238 239 237
f 237 239 240
