v -0.061610208 -0.006304104 0.0065690231
v -0.061602485 -0.0066855906 0.0056916979
v -0.061599398 -0.0075757288 0.0053410761
v -0.061602755 -0.0084530879 0.0057225479
v -0.061610591 -0.0088037233 0.0066126516
v -0.061618314 -0.0084222367 0.0074899773
v -0.061621401 -0.0075320986 0.0078405985
v -0.061618044 -0.0066547394 0.0074591273
v -0.059110305 -0.0063041024 0.0065910298
v -0.059118141 -0.0066547378 0.007481134
v -0.059121498 -0.0075320969 0.0078626052
v -0.059118411 -0.008422235 0.007511984
v -0.059110688 -0.0088037216 0.0066346583
v -0.059102852 -0.0084530862 0.0057445546
v -0.059099495 -0.0075757271 0.0053630828
v -0.059102582 -0.006685589 0.0057137046
v -0.061610208 -0.006304104 0.0065690231
v -0.059110305 -0.0063041024 0.0065910298
v -0.057537033 -0.0054560013 -0.0017258084
v -0.059236968 -0.0054560024 -0.001740773
v -0.059236509 -0.0054886745 -0.00179297
v -0.059236056 -0.0055225734 -0.0018443787
v -0.059235611 -0.0055576808 -0.00189497
v -0.057535676 -0.0055576796 -0.0018800055
v -0.057536121 -0.0055225723 -0.0018294141
v -0.057536574 -0.0054886734 -0.0017780054
v -0.057536332 -0.0098457899 -0.0018051605
v -0.059236267 -0.009845791 -0.0018201251
v -0.059236723 -0.0098791101 -0.0017683394
v -0.059237185 -0.0099111948 -0.001715779
v -0.059237655 -0.0099420253 -0.0016624736
v -0.05753772 -0.0099420242 -0.0016475091
v -0.05753725 -0.0099111937 -0.0017008144
v -0.057536788 -0.009879109 -0.0017533748
v -0.057536332 -0.0098457899 -0.0018051605
v -0.0571077 -0.010071733 -0.0022158143
v -0.059232619 -0.010071734 -0.00223452
v -0.059236267 -0.009845791 -0.0018201251
v -0.059231915 -0.010007941 -0.0023144295
v -0.057106997 -0.01000794 -0.0022957238
v -0.057533112 -0.0095537701 -0.0021709525
v -0.059233047 -0.0095537712 -0.0021859171
v -0.061560862 -0.014653199 0.00096409398
v -0.061557505 -0.01377584 0.00058262238
v -0.06154967 -0.013425204 -0.00030748148
v -0.061541946 -0.013806691 -0.0011848068
v -0.061538859 -0.014696829 -0.0015354284
v -0.061542217 -0.015574188 -0.0011539568
v -0.061550052 -0.015924823 -0.00026385296
v -0.061557775 -0.015543337 0.00061347239
v -0.059060959 -0.014653197 0.00098610069
v -0.059057872 -0.015543335 0.0006354791
v -0.059050149 -0.015924822 -0.00024184626
v -0.059042313 -0.015574186 -0.0011319501
v -0.059038956 -0.014696827 -0.0015134217
v -0.059042043 -0.013806689 -0.0011628001
v -0.059049766 -0.013425203 -0.00028547477
v -0.059057602 -0.013775838 0.00060462909
v -0.061560862 -0.014653199 0.00096409398
v -0.059060959 -0.014653197 0.00098610069
v -0.059231896 -0.0053463366 -0.0023169974
v -0.057106977 -0.0053463352 -0.0022982917
v -0.057535676 -0.0055576796 -0.0018800055
v -0.059235611 -0.0055576808 -0.00189497
v -0.057537033 -0.0054560013 -0.0017258084
v -0.057111804 -0.0049848288 -0.0017500589
v -0.059236722 -0.0049848302 -0.0017687646
v -0.059236968 -0.0054560024 -0.001740773
v -0.057531979 -0.0094213504 -0.0022997196
v -0.059231913 -0.0094213515 -0.0023146842
v -0.059232282 -0.0094665041 -0.0022728113
v -0.05923266 -0.0095106522 -0.002229881
v -0.059233047 -0.0095537712 -0.0021859171
v -0.057533112 -0.0095537701 -0.0021709525
v -0.057532725 -0.009510651 -0.0022149164
v -0.057532347 -0.0094665029 -0.0022578467
v -0.057541478 -0.010133897 -0.0012205896
v -0.059241413 -0.010133898 -0.0012355541
v -0.059241927 -0.010153292 -0.0011771093
v -0.059242445 -0.010171297 -0.0011182215
v -0.059242967 -0.010187902 -0.0010589239
v -0.057543033 -0.010187901 -0.0010439593
v -0.057542511 -0.010171296 -0.001103257
v -0.057541992 -0.010153291 -0.0011621448
v -0.057541478 -0.010133897 -0.0012205896
v -0.057113455 -0.010455802 -0.0015620365
v -0.059238374 -0.010455803 -0.0015807423
v -0.059241413 -0.010133898 -0.0012355541
v -0.059237553 -0.010413888 -0.0016740054
v -0.057112634 -0.010413887 -0.0016552997
v -0.05753772 -0.0099420242 -0.0016475091
v -0.059237655 -0.0099420253 -0.0016624736
v -0.058966154 -0.0078401261 -0.009784024
v -0.058970254 -0.010603114 -0.0093181354
v -0.05898134 -0.013106022 -0.0080585716
v -0.058998428 -0.015126456 -0.0061172503
v -0.05902 -0.01648489 -0.0036666662
v -0.059044138 -0.017060623 -0.00092456448
v -0.059068698 -0.016802498 0.0018654069
v -0.059091498 -0.01573345 0.004455347
v -0.059110512 -0.013948469 0.0066151277
v -0.05912405 -0.011606158 0.0081528439
v -0.05913091 -0.0089146436 0.0089318621
v -0.059130481 -0.0061130757 0.0088829633
v -0.059122803 -0.0034503874 0.0080104926
v -0.059108556 -0.0011631705 0.0063919723
v -0.059089008 0.00054534639 0.0041712158
v -0.059065895 0.0015233537 0.0015455463
v -0.05904127 0.0016839512 -0.0012517335
v -0.059017323 0.0010128692 -0.0039720732
v -0.05899618 -0.0004302639 -0.0063737586
v -0.05897972 -0.002517219 -0.0082433893
v -0.058969406 -0.0050625611 -0.0094148406
v -0.059164386 -0.0078436166 -0.0099857467
v -0.059167707 -0.0050069548 -0.0096087085
v -0.05917824 -0.0024074558 -0.0084123329
v -0.05919505 -0.00027609697 -0.0065029224
v -0.059216643 0.001197741 -0.0040501372
v -0.059241101 0.0018831015 -0.0012719178
v -0.059266249 0.001719087 0.0015848789
v -0.059289854 0.00072027097 0.0042664137
v -0.059309818 -0.0010245976 0.0065344211
v -0.059324367 -0.0033604788 0.0081873776
v -0.059332209 -0.0060798201 0.0090784118
v -0.059332647 -0.0089409961 0.009128351
v -0.059325642 -0.011689778 0.0083327577
v -0.059311816 -0.014081925 0.0067623245
v -0.059292397 -0.015904885 0.0045565903
v -0.059269112 -0.016996679 0.001911545
v -0.059244029 -0.017260296 -0.0009377877
v -0.059219377 -0.016672313 -0.0037382321
v -0.059197347 -0.015284976 -0.0062409565
v -0.059179895 -0.013221553 -0.0082235829
v -0.059168573 -0.010665392 -0.0095099458
v -0.058966154 -0.0078401261 -0.009784024
v -0.059164386 -0.0078436166 -0.0099857467
v -0.057532547 -0.0058622872 -0.0022353839
v -0.057106294 -0.0054128785 -0.0023759263
v -0.059231212 -0.0054128799 -0.002394632
v -0.059232482 -0.0058622883 -0.0022503485
v -0.057531979 -0.0094213504 -0.0022997196
v -0.057102967 -0.0095371365 -0.0027535421
v -0.059227885 -0.0095371379 -0.0027722478
v -0.059231913 -0.0094213515 -0.0023146842
v -0.057547093 -0.01026757 -0.00058273729
v -0.059247028 -0.010267571 -0.00059770186
v -0.059247568 -0.010271821 -0.00053627021
v -0.05924811 -0.010274614 -0.00047475518
v -0.059248652 -0.01027595 -0.00041319121
v -0.057548717 -0.010275949 -0.00039822665
v -0.057548175 -0.010274613 -0.00045979061
v -0.057547633 -0.01027182 -0.00052130565
v -0.057547093 -0.01026757 -0.00058273729
v -0.05711987 -0.01066521 -0.00083328806
v -0.059244789 -0.010665212 -0.00085199377
v -0.059247028 -0.010267571 -0.00059770186
v -0.059243902 -0.010647807 -0.00095275053
v -0.057118983 -0.010647806 -0.00093404482
v -0.057543033 -0.010187901 -0.0010439593
v -0.059242967 -0.010187902 -0.0010589239
v -0.059164386 -0.0078436166 -0.0099857467
v -0.059168573 -0.010665392 -0.0095099458
v -0.059179895 -0.013221553 -0.0082235829
v -0.059197347 -0.015284976 -0.0062409565
v -0.059219377 -0.016672313 -0.0037382321
v -0.059244029 -0.017260296 -0.0009377877
v -0.059269112 -0.016996679 0.001911545
v -0.059292397 -0.015904885 0.0045565903
v -0.059311816 -0.014081925 0.0067623245
v -0.059325642 -0.011689778 0.0083327577
v -0.059332647 -0.0089409961 0.009128351
v -0.059332209 -0.0060798201 0.0090784118
v -0.059324367 -0.0033604788 0.0081873776
v -0.059309818 -0.0010245976 0.0065344211
v -0.059289854 0.00072027097 0.0042664137
v -0.059266249 0.001719087 0.0015848789
v -0.059241101 0.0018831015 -0.0012719178
v -0.059216643 0.001197741 -0.0040501372
v -0.05919505 -0.00027609697 -0.0065029224
v -0.05917824 -0.0024074558 -0.0084123329
v -0.059167707 -0.0050069548 -0.0096087085
v -0.06134733 0.0019224598 -0.00057360005
v -0.0613723 0.0015454069 0.0022629522
v -0.061395181 0.00034898476 0.0048623505
v -0.061413942 -0.0015604997 0.0069936261
v -0.061426914 -0.0040133799 0.0084674073
v -0.061432945 -0.0067917073 0.0091527411
v -0.061431499 -0.0096486141 0.0089887331
v -0.061422705 -0.012330253 0.0079899555
v -0.061407344 -0.014598348 0.0062451552
v -0.061386781 -0.016251369 0.0039093642
v -0.061362843 -0.017142438 0.0011901282
v -0.061337657 -0.017192379 -0.0016709367
v -0.061313461 -0.016396755 -0.0044196124
v -0.061292405 -0.01482626 -0.0068116668
v -0.061276359 -0.012620441 -0.0086345552
v -0.06126675 -0.0099752928 -0.0097263068
v -0.061264432 -0.0071258502 -0.0099899138
v -0.061269609 -0.004325297 -0.0094019541
v -0.061281823 -0.0018224757 -0.0080146701
v -0.061299988 0.00016022754 -0.0059513289
v -0.06132249 0.0014466404 -0.0033952662
v -0.059266249 0.001719087 0.0015848789
v -0.06134733 0.0019224598 -0.00057360005
v -0.057532547 -0.0058622872 -0.0022353839
v -0.059232482 -0.0058622883 -0.0022503485
v -0.059232109 -0.0059069154 -0.0022927808
v -0.059231744 -0.0059525349 -0.0023341443
v -0.05923139 -0.0059991207 -0.002374416
v -0.057531455 -0.0059991196 -0.0023594514
v -0.05753181 -0.0059525338 -0.0023191798
v -0.057532174 -0.0059069143 -0.0022778163
v -0.05923753 -0.0049396845 -0.0016770209
v -0.057112611 -0.0049396831 -0.0016583152
v -0.05754073 -0.0052493456 -0.0013058448
v -0.059240665 -0.0052493467 -0.0013208094
v -0.057552824 -0.010238411 6.8317508e-05
v -0.059252759 -0.010238412 5.3353091e-05
v -0.059253292 -0.010227251 0.00011391155
v -0.059253823 -0.010214657 0.00017418868
v -0.05925435 -0.01020064 0.00023415066
v -0.057554416 -0.010200639 0.00024911518
v -0.057553888 -0.010214656 0.00018915317
v -0.057553357 -0.01022725 0.000128876
v -0.057552824 -0.010238411 6.8317508e-05
v -0.057126542 -0.010686801 -7.5358787e-05
v -0.059251461 -0.010686802 -9.4064495e-05
v -0.059252759 -0.010238412 5.3353091e-05
v -0.059250564 -0.010695003 -0.00019598392
v -0.057125645 -0.010695001 -0.00017727821
v -0.057548717 -0.010275949 -0.00039822665
v -0.059248652 -0.01027595 -0.00041319121
v -0.061466057 -0.0078401278 -0.0098060313
v -0.061469309 -0.0050625628 -0.0094368479
v -0.061479623 -0.0025172201 -0.0082653966
v -0.061496083 -0.00043026468 -0.0063957659
v -0.061517226 0.0010128683 -0.0039940802
v -0.061541174 0.0016839504 -0.0012737403
v -0.061565798 0.0015233529 0.0015235397
v -0.061588911 0.00054534548 0.0041492094
v -0.061608459 -0.0011631715 0.0063699662
v -0.061622706 -0.0034503885 0.0079884865
v -0.061630384 -0.0061130773 0.0088609578
v -0.061630813 -0.0089146453 0.0089098566
v -0.061623954 -0.011606161 0.0081308378
v -0.061610415 -0.013948471 0.0065931216
v -0.061591402 -0.015733453 0.0044333406
v -0.061568602 -0.016802501 0.0018434003
v -0.061544041 -0.017060626 -0.00094657124
v -0.061519903 -0.016484893 -0.0036886732
v -0.061498331 -0.015126458 -0.0061392576
v -0.061481243 -0.013106025 -0.0080805789
v -0.061470157 -0.010603116 -0.0093401427
v -0.06134733 0.0019224598 -0.00057360005
v -0.06132249 0.0014466404 -0.0033952662
v -0.061299988 0.00016022754 -0.0059513289
v -0.061281823 -0.0018224757 -0.0080146701
v -0.061269609 -0.004325297 -0.0094019541
v -0.061264432 -0.0071258502 -0.0099899138
v -0.06126675 -0.0099752928 -0.0097263068
v -0.061276359 -0.012620441 -0.0086345552
v -0.061292405 -0.01482626 -0.0068116668
v -0.061313461 -0.016396755 -0.0044196124
v -0.061337657 -0.017192379 -0.0016709367
v -0.061362843 -0.017142438 0.0011901282
v -0.061386781 -0.016251369 0.0039093642
v -0.061407344 -0.014598348 0.0062451552
v -0.061422705 -0.012330253 0.0079899555
v -0.061431499 -0.0096486141 0.0089887331
v -0.061432945 -0.0067917073 0.0091527411
v -0.061426914 -0.0040133799 0.0084674073
v -0.061413942 -0.0015604997 0.0069936261
v -0.061395181 0.00034898476 0.0048623505
v -0.0613723 0.0015454069 0.0022629522
v -0.061264432 -0.0071258502 -0.0099899138
v -0.061466057 -0.0078401278 -0.0098060313
v -0.059227329 -0.0058993745 -0.0028357416
v -0.05710241 -0.0058993731 -0.0028170359
v -0.057531455 -0.0059991196 -0.0023594514
v -0.05923139 -0.0059991207 -0.002374416
v -0.057542268 -0.0051892111 -0.0011312068
v -0.059242203 -0.0051892122 -0.0011461713
v -0.059241686 -0.0052078763 -0.0012048534
v -0.059241174 -0.0052279248 -0.001263077
v -0.059240665 -0.0052493467 -0.0013208094
v -0.05754073 -0.0052493456 -0.0013058448
v -0.057541239 -0.0052279237 -0.0012481124
v -0.057541751 -0.0052078751 -0.0011898888
v -0.059227344 -0.0094554754 -0.0028337827
v -0.057102425 -0.0094554739 -0.0028150769
v -0.057529499 -0.0090475329 -0.0025814001
v -0.059229434 -0.009047534 -0.0025963646
v -0.057558311 -0.01004825 0.00069166692
v -0.059258246 -0.010048252 0.00067670251
v -0.059258738 -0.010022379 0.00073258267
v -0.059259225 -0.0099951906 0.00078783443
v -0.059259705 -0.009966702 0.00084242686
v -0.05755977 -0.0099667009 0.00085739143
v -0.05755929 -0.0099951894 0.00080279893
v -0.057558803 -0.010022378 0.00074754716
v -0.057558311 -0.01004825 0.00069166692
v -0.057133052 -0.010519215 0.00066412778
v -0.059257971 -0.010519217 0.00064542208
v -0.059258246 -0.010048252 0.00067670251
v -0.05925712 -0.010552508 0.00054874392
v -0.057132201 -0.010552506 0.00056744962
v -0.057554416 -0.010200639 0.00024911518
v -0.05925435 -0.01020064 0.00023415066
v -0.061466057 -0.0078401278 -0.0098060313
v -0.061470157 -0.010603116 -0.0093401427
v -0.061481243 -0.013106025 -0.0080805789
v -0.061498331 -0.015126458 -0.0061392576
v -0.061519903 -0.016484893 -0.0036886732
v -0.061544041 -0.017060626 -0.00094657124
v -0.061568602 -0.016802501 0.0018434003
v -0.061591402 -0.015733453 0.0044333406
v -0.061610415 -0.013948471 0.0065931216
v -0.061623954 -0.011606161 0.0081308378
v -0.061630813 -0.0089146453 0.0089098566
v -0.061630384 -0.0061130773 0.0088609578
v -0.061622706 -0.0034503885 0.0079884865
v -0.061608459 -0.0011631715 0.0063699662
v -0.061588911 0.00054534548 0.0041492094
v -0.061565798 0.0015233529 0.0015235397
v -0.061541174 0.0016839504 -0.0012737403
v -0.061517226 0.0010128683 -0.0039940802
v -0.061496083 -0.00043026468 -0.0063957659
v -0.061479623 -0.0025172201 -0.0082653966
v -0.061469309 -0.0050625628 -0.0094368479
v -0.061487372 -0.0090480524 -0.0073846772
v -0.061479536 -0.008697417 -0.0082747815
v -0.061476179 -0.0078200579 -0.0086562527
v -0.061479266 -0.0069299198 -0.0083056315
v -0.061486989 -0.0065484332 -0.0074283058
v -0.061494825 -0.0068990686 -0.0065382021
v -0.061498182 -0.0077764277 -0.0061567303
v -0.061495095 -0.0086665658 -0.0065073521
v -0.061560862 -0.014653199 0.00096409398
v -0.061557775 -0.015543337 0.00061347239
v -0.061550052 -0.015924823 -0.00026385296
v -0.061542217 -0.015574188 -0.0011539568
v -0.061538859 -0.014696829 -0.0015354284
v -0.061541946 -0.013806691 -0.0011848068
v -0.06154967 -0.013425204 -0.00030748148
v -0.061557505 -0.01377584 0.00058262238
v -0.061610208 -0.006304104 0.0065690231
v -0.061618044 -0.0066547394 0.0074591273
v -0.061621401 -0.0075320986 0.0078405985
v -0.061618314 -0.0084222367 0.0074899773
v -0.061610591 -0.0088037233 0.0066126516
v -0.061602755 -0.0084530879 0.0057225479
v -0.061599398 -0.0075757288 0.0053410761
v -0.061602485 -0.0066855906 0.0056916979
v -0.061548545 -0.0060763217 -0.00043574935
v -0.061557654 -0.006432645 0.00059904694
v -0.061562616 -0.0073707845 0.0011627157
v -0.061561108 -0.0084517745 0.00099150998
v -0.061553836 -0.009169807 0.00016553892
v -0.061544204 -0.0091889077 -0.00092871644
v -0.061536717 -0.0085001391 -0.0017792419
v -0.061534879 -0.0074257827 -0.0019880672
v -0.061539551 -0.0064685425 -0.0014574805
v -0.061536718 -0.00069895746 -0.0017797482
v -0.061539805 0.00019118081 -0.0014291266
v -0.061547528 0.00057266711 -0.00055180122
v -0.061555364 0.00022203201 0.00033830263
v -0.061558721 -0.00065532727 0.00071977424
v -0.061555634 -0.0015454657 0.00036915265
v -0.061547911 -0.001926952 -0.00050817271
v -0.061540075 -0.0015763169 -0.0013982766
v -0.057529092 -0.0063825401 -0.002627915
v -0.057101894 -0.0059831341 -0.0028756834
v -0.059226813 -0.0059831355 -0.0028943891
v -0.059229026 -0.0063825412 -0.0026428796
v -0.057542268 -0.0051892111 -0.0011312068
v -0.057118077 -0.0047258792 -0.0010374065
v -0.059242996 -0.0047258807 -0.0010561122
v -0.059242203 -0.0051892122 -0.0011461713
v -0.057528691 -0.0088872505 -0.0026731915
v -0.059228626 -0.0088872516 -0.0026881561
v -0.059228884 -0.0089413983 -0.0026588273
v -0.059229154 -0.008994836 -0.0026282244
v -0.059229434 -0.009047534 -0.0025963646
v -0.057529499 -0.0090475329 -0.0025814001
v -0.057529219 -0.0089948349 -0.0026132598
v -0.057528949 -0.0089413972 -0.0026438628
v -0.05756321 -0.0097090375 0.0012481435
v -0.059263145 -0.0097090387 0.0012331791
v -0.059263565 -0.009670082 0.0012808698
v -0.059263977 -0.0096300067 0.0013276246
v -0.05926438 -0.0095888358 0.0013734172
v -0.057564445 -0.0095888346 0.0013883818
v -0.057564042 -0.0096300056 0.0013425892
v -0.05756363 -0.0096700809 0.0012958344
v -0.05756321 -0.0097090375 0.0012481435
v -0.057138991 -0.010172986 0.0013387069
v -0.059263909 -0.010172987 0.0013200012
v -0.059263145 -0.0097090387 0.0012331791
v -0.059263158 -0.010229275 0.0012346391
v -0.057138239 -0.010229274 0.0012533448
v -0.05755977 -0.0099667009 0.00085739143
v -0.059259705 -0.009966702 0.00084242686
v -0.057102967 -0.0095371365 -0.0027535421
v -0.057102425 -0.0094554739 -0.0028150769
v -0.059227344 -0.0094554754 -0.0028337827
v -0.059227885 -0.0095371379 -0.0027722478
v -0.061487372 -0.0090480524 -0.0073846772
v -0.061495095 -0.0086665658 -0.0065073521
v -0.061498182 -0.0077764277 -0.0061567303
v -0.061494825 -0.0068990686 -0.0065382021
v -0.061486989 -0.0065484332 -0.0074283058
v -0.061479266 -0.0069299198 -0.0083056315
v -0.061476179 -0.0078200579 -0.0086562527
v -0.061479536 -0.008697417 -0.0082747815
v -0.058987469 -0.0090480508 -0.0073626705
v -0.058979633 -0.0086974154 -0.0082527748
v -0.058976276 -0.0078200562 -0.008634246
v -0.058979363 -0.0069299181 -0.0082836248
v -0.058987086 -0.0065484315 -0.007406299
v -0.058994922 -0.0068990669 -0.0065161954
v -0.058998279 -0.007776426 -0.0061347236
v -0.058995192 -0.0086665642 -0.0064853454
v -0.061487372 -0.0090480524 -0.0073846772
v -0.058987469 -0.0090480508 -0.0073626705
v -0.057529092 -0.0063825401 -0.002627915
v -0.059229026 -0.0063825412 -0.0026428796
v -0.059228762 -0.006436319 -0.0026728809
v -0.059228509 -0.0064907922 -0.0027016004
v -0.059228268 -0.0065459307 -0.0027290217
v -0.057528333 -0.0065459296 -0.0027140571
v -0.057528575 -0.0064907911 -0.0026866358
v -0.057528827 -0.0064363179 -0.0026579164
v -0.057111804 -0.0049848288 -0.0017500589
v -0.057112611 -0.0049396831 -0.0016583152
v -0.05923753 -0.0049396845 -0.0016770209
v -0.059236722 -0.0049848302 -0.0017687646
v -0.057118077 -0.0047258792 -0.0010374065
v -0.057118958 -0.0047049693 -0.00093731849
v -0.059243877 -0.0047049707 -0.00095602419
v -0.059242996 -0.0047258807 -0.0010561122
v -0.057528691 -0.0088872505 -0.0026731915
v -0.057099553 -0.0088856025 -0.0031414324
v -0.059224471 -0.0088856039 -0.0031601381
v -0.059228626 -0.0088872516 -0.0026881561
v -0.057567213 -0.0092420855 0.0017027819
v -0.059267148 -0.0092420866 0.0016878174
v -0.059267469 -0.0091924935 0.001724322
v -0.05926778 -0.0091420494 0.0017596421
v -0.05926808 -0.0090907834 0.0017937575
v -0.057568146 -0.0090907823 0.0018087221
v -0.057567845 -0.0091420483 0.0017746065
v -0.057567534 -0.0091924923 0.0017392866
v -0.057567213 -0.0092420855 0.0017027819
v -0.057143985 -0.0096698658 0.0019059924
v -0.059268903 -0.0096698672 0.0018872867
v -0.059267148 -0.0092420866 0.0016878174
v -0.059268299 -0.0097456166 0.001818604
v -0.05714338 -0.0097456152 0.0018373097
v -0.057564445 -0.0095888346 0.0013883818
v -0.05926438 -0.0095888358 0.0013734172
v -0.0571077 -0.010071733 -0.0022158143
v -0.057106997 -0.01000794 -0.0022957238
v -0.059231915 -0.010007941 -0.0023144295
v -0.059232619 -0.010071734 -0.00223452
v -0.058966154 -0.0078401261 -0.009784024
v -0.058969406 -0.0050625611 -0.0094148406
v -0.05897972 -0.002517219 -0.0082433893
v -0.05899618 -0.0004302639 -0.0063737586
v -0.059017323 0.0010128692 -0.0039720732
v -0.05904127 0.0016839512 -0.0012517335
v -0.059065895 0.0015233537 0.0015455463
v -0.059089008 0.00054534639 0.0041712158
v -0.059108556 -0.0011631705 0.0063919723
v -0.059122803 -0.0034503874 0.0080104926
v -0.059130481 -0.0061130757 0.0088829633
v -0.05913091 -0.0089146436 0.0089318621
v -0.05912405 -0.011606158 0.0081528439
v -0.059110512 -0.013948469 0.0066151277
v -0.059091498 -0.01573345 0.004455347
v -0.059068698 -0.016802498 0.0018654069
v -0.059044138 -0.017060623 -0.00092456448
v -0.05902 -0.01648489 -0.0036666662
v -0.058998428 -0.015126456 -0.0061172503
v -0.05898134 -0.013106022 -0.0080585716
v -0.058970254 -0.010603114 -0.0093181354
v -0.059048076 -0.0023768837 -0.00047831284
v -0.059030287 -0.0028156575 -0.002499107
v -0.059015329 -0.003994386 -0.0041981724
v -0.05900548 -0.0057336186 -0.0053168418
v -0.05900224 -0.0077685726 -0.0056848076
v -0.059006101 -0.0097894449 -0.0052460511
v -0.059016476 -0.011488576 -0.0040673683
v -0.059031785 -0.01260729 -0.0023282033
v -0.059049698 -0.012975269 -0.00029332794
v -0.059067487 -0.012536496 0.0017274663
v -0.059082445 -0.011357767 0.0034265316
v -0.059092294 -0.0096185346 0.004545201
v -0.059095534 -0.0075835806 0.0049131668
v -0.059091673 -0.0055627082 0.0044744104
v -0.059081298 -0.0038635769 0.0032957275
v -0.059065989 -0.0027448641 0.0015565625
v -0.058987469 -0.0090480508 -0.0073626705
v -0.058995192 -0.0086665642 -0.0064853454
v -0.058998279 -0.007776426 -0.0061347236
v -0.058994922 -0.0068990669 -0.0065161954
v -0.058987086 -0.0065484315 -0.007406299
v -0.058979363 -0.0069299181 -0.0082836248
v -0.058976276 -0.0078200562 -0.008634246
v -0.058979633 -0.0086974154 -0.0082527748
v -0.059060959 -0.014653197 0.00098610069
v -0.059057602 -0.013775838 0.00060462909
v -0.059049766 -0.013425203 -0.00028547477
v -0.059042043 -0.013806689 -0.0011628001
v -0.059038956 -0.014696827 -0.0015134217
v -0.059042313 -0.015574186 -0.0011319501
v -0.059050149 -0.015924822 -0.00024184626
v -0.059057872 -0.015543335 0.0006354791
v -0.059110305 -0.0063041024 0.0065910298
v -0.059102582 -0.006685589 0.0057137046
v -0.059099495 -0.0075757271 0.0053630828
v -0.059102852 -0.0084530862 0.0057445546
v -0.059110688 -0.0088037216 0.0066346583
v -0.059118411 -0.008422235 0.007511984
v -0.059121498 -0.0075320969 0.0078626052
v -0.059118141 -0.0066547378 0.007481134
v -0.059036815 -0.0006989558 -0.0017577415
v -0.059040172 -0.0015763152 -0.0013762699
v -0.059048007 -0.0019269503 -0.000486166
v -0.059055731 -0.001545464 0.00039115935
v -0.059058818 -0.00065532561 0.00074178094
v -0.05905546 0.00022203367 0.00036030934
v -0.059047625 0.00057266877 -0.00052979452
v -0.059039902 0.00019118247 -0.0014071199
v -0.061536718 -0.00069895746 -0.0017797482
v -0.061540075 -0.0015763169 -0.0013982766
v -0.061547911 -0.001926952 -0.00050817271
v -0.061555634 -0.0015454657 0.00036915265
v -0.061558721 -0.00065532727 0.00071977424
v -0.061555364 0.00022203201 0.00033830263
v -0.061547528 0.00057266711 -0.00055180122
v -0.061539805 0.00019118081 -0.0014291266
v -0.059036815 -0.0006989558 -0.0017577415
v -0.059039902 0.00019118247 -0.0014071199
v -0.059047625 0.00057266877 -0.00052979452
v -0.05905546 0.00022203367 0.00036030934
v -0.059058818 -0.00065532561 0.00074178094
v -0.059055731 -0.001545464 0.00039115935
v -0.059048007 -0.0019269503 -0.000486166
v -0.059040172 -0.0015763152 -0.0013762699
v -0.061536718 -0.00069895746 -0.0017797482
v -0.059036815 -0.0006989558 -0.0017577415
v -0.059224116 -0.0065640497 -0.0032006587
v -0.057099198 -0.0065640482 -0.003181953
v -0.057528333 -0.0065459296 -0.0027140571
v -0.059228268 -0.0065459307 -0.0027290217
v -0.057106294 -0.0054128785 -0.0023759263
v -0.057106977 -0.0053463352 -0.0022982917
v -0.059231896 -0.0053463366 -0.0023169974
v -0.059231212 -0.0054128799 -0.002394632
v -0.059243877 -0.0047049707 -0.00095602419
v -0.057118958 -0.0047049693 -0.00093731849
v -0.057546301 -0.0050934927 -0.00067304598
v -0.059246236 -0.0050934938 -0.00068801054
v -0.057099553 -0.0088856025 -0.0031414324
v -0.057099207 -0.0087912009 -0.0031807262
v -0.059224125 -0.0087912023 -0.0031994319
v -0.059224471 -0.0088856039 -0.0031601381
v -0.057570067 -0.0086767365 0.0020270152
v -0.059270002 -0.0086767376 0.0020120508
v -0.059270205 -0.0086196228 0.0020350757
v -0.059270396 -0.0085619796 0.0020567416
v -0.059270575 -0.0085038394 0.0020770363
v -0.05757064 -0.0085038383 0.0020920008
v -0.057570461 -0.0085619785 0.0020717062
v -0.05757027 -0.0086196228 0.0020500403
v -0.057570067 -0.0086767365 0.0020270152
v -0.057147721 -0.0090414684 0.0023303397
v -0.059272639 -0.0090414698 0.002311634
v -0.059270002 -0.0086767376 0.0020120508
v -0.059272219 -0.0091319207 0.0022639465
v -0.057147301 -0.0091319193 0.0022826523
v -0.057568146 -0.0090907823 0.0018087221
v -0.05926808 -0.0090907834 0.0017937575
v -0.057113455 -0.010455802 -0.0015620365
v -0.057112634 -0.010413887 -0.0016552997
v -0.059237553 -0.010413888 -0.0016740054
v -0.059238374 -0.010455803 -0.0015807423
v -0.057248145 -0.0023768826 -0.000462468
v -0.057230356 -0.0028156563 -0.0024832622
v -0.057215398 -0.0039943848 -0.0041823275
v -0.057205549 -0.0057336174 -0.005300997
v -0.057202309 -0.0077685714 -0.0056689628
v -0.05720617 -0.0097894437 -0.0052302063
v -0.057216545 -0.011488575 -0.0040515235
v -0.057231854 -0.012607288 -0.0023123584
v -0.057249767 -0.012975268 -0.00027748311
v -0.057267556 -0.012536495 0.0017433111
v -0.057282514 -0.011357766 0.0034423764
v -0.057292363 -0.0096185334 0.0045610459
v -0.057295603 -0.0075835794 0.0049290117
v -0.057291742 -0.005562707 0.0044902552
v -0.057281367 -0.0038635757 0.0033115723
v -0.057266058 -0.0027448629 0.0015724073
v -0.059048076 -0.0023768837 -0.00047831284
v -0.059065989 -0.0027448641 0.0015565625
v -0.059081298 -0.0038635769 0.0032957275
v -0.059091673 -0.0055627082 0.0044744104
v -0.059095534 -0.0075835806 0.0049131668
v -0.059092294 -0.0096185346 0.004545201
v -0.059082445 -0.011357767 0.0034265316
v -0.059067487 -0.012536496 0.0017274663
v -0.059049698 -0.012975269 -0.00029332794
v -0.059031785 -0.01260729 -0.0023282033
v -0.059016476 -0.011488576 -0.0040673683
v -0.059006101 -0.0097894449 -0.0052460511
v -0.05900224 -0.0077685726 -0.0056848076
v -0.05900548 -0.0057336186 -0.0053168418
v -0.059015329 -0.003994386 -0.0041981724
v -0.059030287 -0.0028156575 -0.002499107
v -0.057248145 -0.0023768826 -0.000462468
v -0.059048076 -0.0023768837 -0.00047831284
v -0.061548545 -0.0060763217 -0.00043574935
v -0.061539551 -0.0064685425 -0.0014574805
v -0.061534879 -0.0074257827 -0.0019880672
v -0.061536717 -0.0085001391 -0.0017792419
v -0.061544204 -0.0091889077 -0.00092871644
v -0.061553836 -0.009169807 0.00016553892
v -0.061561108 -0.0084517745 0.00099150998
v -0.061562616 -0.0073707845 0.0011627157
v -0.061557654 -0.006432645 0.00059904694
v -0.060048602 -0.0060763207 -0.00042254531
v -0.060057712 -0.006432644 0.00061225097
v -0.060062673 -0.0073707835 0.0011759197
v -0.060061165 -0.0084517735 0.001004714
v -0.060053894 -0.009169806 0.00017874295
v -0.060044261 -0.0091889067 -0.00091551241
v -0.060036774 -0.0085001381 -0.0017660379
v -0.060034937 -0.0074257817 -0.0019748631
v -0.060039608 -0.0064685415 -0.0014442765
v -0.061548545 -0.0060763217 -0.00043574935
v -0.060048602 -0.0060763207 -0.00042254531
v -0.057526883 -0.0069840708 -0.0028787374
v -0.057098881 -0.0066597625 -0.0032179285
v -0.059223799 -0.0066597639 -0.0032366342
v -0.059226818 -0.0069840719 -0.002893702
v -0.057101894 -0.0059831341 -0.0028756834
v -0.05710241 -0.0058993731 -0.0028170359
v -0.059227329 -0.0058993745 -0.0028357416
v -0.059226813 -0.0059831355 -0.0028943891
v -0.057547922 -0.0050786794 -0.0004889401
v -0.059247857 -0.0050786806 -0.00050390467
v -0.059247316 -0.0050821639 -0.00056538452
v -0.059246775 -0.0050871025 -0.00062676463
v -0.059246236 -0.0050934938 -0.00068801054
v -0.057546301 -0.0050934927 -0.00067304598
v -0.05754684 -0.0050871013 -0.00061180006
v -0.057547381 -0.0050821628 -0.00055041995
v -0.059224125 -0.0087912023 -0.0031994319
v -0.057099207 -0.0087912009 -0.0031807262
v -0.057527108 -0.008455123 -0.0028530616
v -0.059227043 -0.0084551241 -0.0028680261
v -0.057571595 -0.008048511 0.0022004709
v -0.05927153 -0.0080485121 0.0021855063
v -0.059271601 -0.007987467 0.0021936049
v -0.05927166 -0.0079262457 0.0022002554
v -0.059271705 -0.0078648851 0.0022054541
v -0.057571771 -0.007864884 0.0022204186
v -0.057571725 -0.0079262445 0.00221522
v -0.057571666 -0.0079874659 0.0022085695
v -0.057571595 -0.008048511 0.0022004709
v -0.057149964 -0.0083272786 0.0025850853
v -0.059274882 -0.00832728 0.0025663796
v -0.05927153 -0.0080485121 0.0021855063
v -0.059274674 -0.008426749 0.0025426837
v -0.057149755 -0.0084267476 0.0025613894
v -0.05757064 -0.0085038383 0.0020920008
v -0.059270575 -0.0085038394 0.0020770363
v -0.05711987 -0.01066521 -0.00083328806
v -0.057118983 -0.010647806 -0.00093404482
v -0.059243902 -0.010647807 -0.00095275053
v -0.059244789 -0.010665212 -0.00085199377
v -0.057004077 -0.0077650808 -0.0054672406
v -0.057007792 -0.0097096934 -0.0050450409
v -0.057017776 -0.011344707 -0.0039108367
v -0.057032507 -0.012421204 -0.0022373004
v -0.057049744 -0.012775298 -0.00027921285
v -0.057066862 -0.012353082 0.001665325
v -0.057081255 -0.011218834 0.0033002747
v -0.057090733 -0.0095452325 0.0043767301
v -0.057093851 -0.0075870697 0.0047308106
v -0.057090136 -0.0056424565 0.0043086108
v -0.057080152 -0.0040074437 0.0031744066
v -0.057065421 -0.002930946 0.0015008704
v -0.057048184 -0.0025768521 -0.00045721719
v -0.057031066 -0.0029990679 -0.002401755
v -0.057016672 -0.0041333166 -0.0040367047
v -0.057007195 -0.0058069174 -0.0051131602
v -0.057248145 -0.0023768826 -0.000462468
v -0.057266058 -0.0027448629 0.0015724073
v -0.057281367 -0.0038635757 0.0033115723
v -0.057291742 -0.005562707 0.0044902552
v -0.057295603 -0.0075835794 0.0049290117
v -0.057292363 -0.0096185334 0.0045610459
v -0.057282514 -0.011357766 0.0034423764
v -0.057267556 -0.012536495 0.0017433111
v -0.057249767 -0.012975268 -0.00027748311
v -0.057231854 -0.012607288 -0.0023123584
v -0.057216545 -0.011488575 -0.0040515235
v -0.05720617 -0.0097894437 -0.0052302063
v -0.057202309 -0.0077685714 -0.0056689628
v -0.057205549 -0.0057336174 -0.005300997
v -0.057215398 -0.0039943848 -0.0041823275
v -0.057230356 -0.0028156563 -0.0024832622
v -0.057004077 -0.0077650808 -0.0054672406
v -0.057202309 -0.0077685714 -0.0056689628
v -0.057526883 -0.0069840708 -0.0028787374
v -0.059226818 -0.0069840719 -0.002893702
v -0.05922668 -0.0070436214 -0.0029093873
v -0.059226554 -0.0071035259 -0.002923658
v -0.059226441 -0.0071637514 -0.0029365061
v -0.057526506 -0.0071637503 -0.0029215416
v -0.057526619 -0.0071035248 -0.0029086934
v -0.057526745 -0.0070436203 -0.0028944228
v -0.057098881 -0.0066597625 -0.0032179285
v -0.057099198 -0.0065640482 -0.003181953
v -0.059224116 -0.0065640497 -0.0032006587
v -0.059223799 -0.0066597639 -0.0032366342
v -0.057547922 -0.0050786794 -0.0004889401
v -0.057124721 -0.0046523016 -0.00028274788
v -0.059249639 -0.004652303 -0.00030145358
v -0.059247857 -0.0050786806 -0.00050390467
v -0.057571699 -0.0073968854 0.0022122501
v -0.059271634 -0.0073968859 0.0021972856
v -0.059271569 -0.0073357442 0.0021899488
v -0.059271492 -0.0072747928 0.0021811658
v -0.059271402 -0.0072140663 0.0021709418
v -0.057571467 -0.0072140652 0.0021859064
v -0.057571557 -0.0072747917 0.0021961304
v -0.057571634 -0.007335743 0.0022049133
v -0.057571699 -0.0073968854 0.0022122501
v -0.057150573 -0.0075721716 0.0026542227
v -0.059275491 -0.007572173 0.002635517
v -0.059271634 -0.0073968859 0.0021972856
v -0.059275507 -0.0076744104 0.0026373015
v -0.057150588 -0.007674409 0.0026560072
v -0.057571771 -0.007864884 0.0022204186
v -0.059271705 -0.0078648851 0.0022054541
v -0.057126542 -0.010686801 -7.5358787e-05
v -0.057125645 -0.010695001 -0.00017727821
v -0.059250564 -0.010695003 -0.00019598392
v -0.059251461 -0.010686802 -9.4064495e-05
v -0.057004077 -0.0077650808 -0.0054672406
v -0.057007195 -0.0058069174 -0.0051131602
v -0.057016672 -0.0041333166 -0.0040367047
v -0.057031066 -0.0029990679 -0.002401755
v -0.057048184 -0.0025768521 -0.00045721719
v -0.057065421 -0.002930946 0.0015008704
v -0.057080152 -0.0040074437 0.0031744066
v -0.057090136 -0.0056424565 0.0043086108
v -0.057093851 -0.0075870697 0.0047308106
v -0.057090733 -0.0095452325 0.0043767301
v -0.057081255 -0.011218834 0.0033002747
v -0.057066862 -0.012353082 0.001665325
v -0.057049744 -0.012775298 -0.00027921285
v -0.057032507 -0.012421204 -0.0022373004
v -0.057017776 -0.011344707 -0.0039108367
v -0.057007792 -0.0097096934 -0.0050450409
v -0.05702168 -0.0077301767 -0.0034676228
v -0.057021703 -0.0078144236 -0.0034650063
v -0.057021746 -0.0078985686 -0.0034601005
v -0.057021809 -0.0079825485 -0.003452909
v -0.057021892 -0.0080663026 -0.0034434369
v -0.057021954 -0.0081182238 -0.0034364026
v -0.057022024 -0.0081700188 -0.0034284918
v -0.057022655 -0.008499298 -0.0033567953
v -0.057023597 -0.0088188493 -0.0032497812
v -0.05702377 -0.0088673895 -0.0032300563
v -0.057023951 -0.0089155898 -0.0032095134
v -0.057025283 -0.0092166933 -0.0030581843
v -0.057026895 -0.0094995904 -0.0028750663
v -0.057027169 -0.009541701 -0.0028438898
v -0.05702745 -0.0095832782 -0.0028120059
v -0.057029399 -0.0098372861 -0.0025905526
v -0.05703158 -0.010065755 -0.0023428367
v -0.057031938 -0.010098788 -0.0023021676
v -0.057032301 -0.01013113 -0.0022609461
v -0.057034745 -0.010322082 -0.0019832832
v -0.057037357 -0.010481766 -0.0016865343
v -0.057037776 -0.010503647 -0.0016389281
v -0.057038198 -0.010524721 -0.0015909589
v -0.057040984 -0.010640619 -0.0012745331
v -0.057043863 -0.010721486 -0.00094739709
v -0.057044317 -0.01073084 -0.000895845
v -0.057044772 -0.010739321 -0.00084414221
v -0.057047724 -0.010772884 -0.00050883584
v -0.05705069 -0.01076985 -0.00017186768
v -0.05705115 -0.01076609 -0.00011960899
v -0.05705161 -0.010761447 -6.7421302e-05
v -0.057054542 -0.010710564 0.00026569718
v -0.057057409 -0.010623822 0.00059132451
v -0.057057846 -0.010607183 0.00064100618
v -0.057058281 -0.010589707 0.00069039965
v -0.05706101 -0.010457576 0.0010003992
v -0.057063597 -0.010292577 0.0012942253
v -0.057063984 -0.010264104 0.0013382084
v -0.057064367 -0.010234892 0.0013817038
v -0.057066721 -0.010029816 0.0016491061
v -0.057068865 -0.0097969261 0.0018926688
v -0.057069178 -0.0097584096 0.0019281896
v -0.057069485 -0.0097192989 0.0019630543
v -0.057071316 -0.009454163 0.0021710574
v -0.057072883 -0.0091680148 0.0023490527
v -0.057073102 -0.0091218744 0.0023738794
v -0.057073313 -0.0090753221 0.0023979225
v -0.057074507 -0.008766785 0.0025334568
v -0.057075398 -0.0084453594 0.0026347007
v -0.057075509 -0.0083944945 0.0026472732
v -0.057075612 -0.0083434241 0.0026589842
v -0.057076092 -0.0080108741 0.0027135334
v -0.057076252 -0.0076743672 0.0027316644
v -0.057076248 -0.0076219738 0.0027311928
v -0.057076236 -0.0075695958 0.0027298357
v -0.057075974 -0.0072339267 0.0026999726
v -0.057075392 -0.0069034825 0.0026338514
v -0.057075273 -0.0068528525 0.0026203652
v -0.057075147 -0.0068024568 0.0026060254
v -0.057074158 -0.0064847604 0.0024936262
v -0.057072871 -0.0061811426 0.0023474073
v -0.057072645 -0.0061354571 0.0023217543
v -0.057072412 -0.0060902113 0.0022953325
v -0.057070759 -0.0058104495 0.0021074598
v -0.057068847 -0.0055527345 0.0018903309
v -0.057068529 -0.0055148644 0.0018541225
v -0.057068204 -0.005477611 0.0018172792
v -0.05706599 -0.0052533623 0.0015657376
v -0.057063575 -0.0050577438 0.0012913415
v -0.057063183 -0.0050300685 0.0012468532
v -0.057062788 -0.0050031482 0.0012019032
v -0.057060152 -0.0048485036 0.00090249807
v -0.057057384 -0.0047272728 0.00058807634
v -0.057056944 -0.0047115308 0.00053810309
v -0.057056502 -0.0046966356 0.00048787101
v -0.057053611 -0.004621311 0.00015941496
v -0.057050664 -0.0045820858 -0.00017527627
v -0.057050204 -0.0045792666 -0.0002275942
v -0.057049743 -0.0045773322 -0.00027995229
v -0.057046778 -0.0045860607 -0.00061682105
v -0.057043838 -0.004631305 -0.00095075192
v -0.057043386 -0.0046415862 -0.0010021272
v -0.057042935 -0.0046527339 -0.0010533215
v -0.057040082 -0.0047449673 -0.0013774362
v -0.057037333 -0.0048718391 -0.0016896247
v -0.057036918 -0.0048945741 -0.0017368292
v -0.057036506 -0.0049181035 -0.0017836429
v -0.057033944 -0.0050880465 -0.0020746384
v -0.05703156 -0.0052885728 -0.0023454684
v -0.057031207 -0.0053223334 -0.0023855362
v -0.057030859 -0.0053567665 -0.0024250277
v -0.05702875 -0.0055937409 -0.0026646197
v -0.05702688 -0.0058553228 -0.0028770738
v -0.057026612 -0.0058979875 -0.0029074875
v -0.05702635 -0.0059411599 -0.0029371754
v -0.057024826 -0.0062302761 -0.0031103094
v -0.057023587 -0.006536477 -0.0032510386
v -0.057023421 -0.0065853649 -0.0032698869
v -0.057023263 -0.0066345651 -0.0032879059
v -0.057022419 -0.006957656 -0.0033837032
v -0.057021889 -0.0072892368 -0.0034438651
v -0.057021835 -0.0073412764 -0.0034499635
v -0.057021789 -0.0073934114 -0.0034551816
v -0.057021694 -0.0075616248 -0.0034659815
v -0.059222459 -0.0072985972 -0.0033888201
v -0.057097541 -0.0072985958 -0.0033701144
v -0.057526506 -0.0071637503 -0.0029215416
v -0.059226441 -0.0071637514 -0.0029365061
v -0.057097443 -0.0074002505 -0.0033811572
v -0.057097541 -0.0072985958 -0.0033701144
v -0.059222459 -0.0072985972 -0.0033888201
v -0.059222362 -0.0074002519 -0.0033998629
v -0.057097672 -0.0081580687 -0.0033551131
v -0.057097544 -0.0080568619 -0.0033696966
v -0.059222462 -0.0080568633 -0.0033884023
v -0.059222591 -0.0081580701 -0.0033738188
v -0.057124721 -0.0046523016 -0.00028274788
v -0.05712562 -0.0046569402 -0.00018060436
v -0.059250538 -0.0046569416 -0.00019931007
v -0.059249639 -0.004652303 -0.00030145358
v -0.057570373 -0.0067628015 0.0020616127
v -0.059270308 -0.0067628026 0.0020466481
v -0.059270112 -0.0067054055 0.0020243368
v -0.059269904 -0.0066485536 0.0020006725
v -0.059269683 -0.0065922778 0.0019756685
v -0.057569749 -0.0065922772 0.0019906331
v -0.057569969 -0.0066485525 0.0020156371
v -0.057570177 -0.006705405 0.0020393014
v -0.057570373 -0.0067628015 0.0020616127
v -0.05714951 -0.0068235929 0.0025334079
v -0.059274428 -0.0068235943 0.0025147021
v -0.059270308 -0.0067628026 0.0020466481
v -0.059274667 -0.0069221757 0.0025418548
v -0.057149749 -0.0069221743 0.0025605605
v -0.057571467 -0.0072140652 0.0021859064
v -0.059271402 -0.0072140663 0.0021709418
v -0.057133052 -0.010519215 0.00066412778
v -0.057132201 -0.010552506 0.00056744962
v -0.05925712 -0.010552508 0.00054874392
v -0.059257971 -0.010519217 0.00064542208
v -0.057526061 -0.0076290826 -0.002972091
v -0.057097443 -0.0074002505 -0.0033811572
v -0.059222362 -0.0074002519 -0.0033998629
v -0.059225996 -0.0076290837 -0.0029870555
v -0.059222462 -0.0080568633 -0.0033884023
v -0.057097544 -0.0080568619 -0.0033696966
v -0.057526089 -0.0078137621 -0.0029688676
v -0.059226024 -0.0078137632 -0.0029838321
v -0.059250538 -0.0046569416 -0.00019931007
v -0.05712562 -0.0046569402 -0.00018060436
v -0.057552038 -0.0050999127 -2.1369988e-05
v -0.059251973 -0.0050999139 -3.6334591e-05
v -0.057526677 -0.0082770473 -0.00290211
v -0.059226611 -0.0082770485 -0.0029170746
v -0.059226743 -0.0083367889 -0.0029021326
v -0.059226887 -0.0083961577 -0.0028857801
v -0.059227043 -0.0084551241 -0.0028680261
v -0.057527108 -0.008455123 -0.0028530616
v -0.057526952 -0.0083961566 -0.0028708155
v -0.057526808 -0.0083367877 -0.002887168
v -0.057567701 -0.0061861021 0.0017580236
v -0.059267636 -0.0061861032 0.001743059
v -0.05926732 -0.0061360585 0.0017071753
v -0.059266994 -0.0060868779 0.0016701164
v -0.059266658 -0.0060385883 0.0016319033
v -0.057566723 -0.0060385872 0.0016468679
v -0.057567059 -0.0060868767 0.0016850811
v -0.057567385 -0.0061360574 0.0017221399
v -0.057567701 -0.0061861021 0.0017580236
v -0.057146841 -0.0061285787 0.0022302318
v -0.05927176 -0.0061285801 0.002211526
v -0.059267636 -0.0061861032 0.001743059
v -0.059272207 -0.0062173116 0.0022623409
v -0.057147289 -0.0062173102 0.0022810466
v -0.057569749 -0.0065922772 0.0019906331
v -0.059269683 -0.0065922778 0.0019756685
v -0.057138991 -0.010172986 0.0013387069
v -0.057138239 -0.010229274 0.0012533448
v -0.059263158 -0.010229275 0.0012346391
v -0.059263909 -0.010172987 0.0013200012
v -0.059226024 -0.0078137632 -0.0029838321
v -0.057526089 -0.0078137621 -0.0029688676
v -0.057526067 -0.0077522337 -0.0029714002
v -0.057526057 -0.0076906619 -0.0029724748
v -0.057526061 -0.0076290826 -0.002972091
v -0.059225996 -0.0076290837 -0.0029870555
v -0.059225992 -0.007690663 -0.0029874394
v -0.059226002 -0.0077522348 -0.0029863647
v -0.05755364 -0.0051313517 0.00016063571
v -0.059253575 -0.0051313528 0.00014567099
v -0.059253043 -0.0051194366 8.5256372e-05
v -0.059252509 -0.0051089552 2.4576487e-05
v -0.059251973 -0.0050999139 -3.6334591e-05
v -0.057552038 -0.0050999127 -2.1369988e-05
v -0.057552574 -0.005108954 3.9541128e-05
v -0.057553108 -0.0051194355 0.00010022105
v -0.057526677 -0.0082770473 -0.00290211
v -0.057097672 -0.0081580687 -0.0033551131
v -0.059222591 -0.0081580701 -0.0033738188
v -0.059226611 -0.0082770485 -0.0029170746
v -0.05756385 -0.0057030231 0.0013205587
v -0.059263785 -0.0057030242 0.001305594
v -0.05926337 -0.0056634759 0.0012583925
v -0.059262946 -0.0056250568 0.0012102677
v -0.059262515 -0.0055877883 0.0011612465
v -0.05756258 -0.0055877872 0.0011762111
v -0.057563011 -0.0056250556 0.0012252322
v -0.057563435 -0.0056634748 0.0012733571
v -0.05756385 -0.0057030231 0.0013205587
v -0.057142735 -0.0055307998 0.0017637441
v -0.059267654 -0.0055308012 0.0017450384
v -0.059263785 -0.0057030242 0.001305594
v -0.059268281 -0.0056041074 0.0018163227
v -0.057143363 -0.005604106 0.0018350284
v -0.057566723 -0.0060385872 0.0016468679
v -0.059266658 -0.0060385883 0.0016319033
v -0.057143985 -0.0096698658 0.0019059924
v -0.05714338 -0.0097456152 0.0018373097
v -0.059268299 -0.0097456166 0.001818604
v -0.059268903 -0.0096698672 0.0018872867
v -0.059248405 -0.0045765488 -0.00044168028
v -0.059249031 -0.0045761235 -0.00037049474
v -0.059249658 -0.0045773336 -0.00029931819
v -0.059250119 -0.004579268 -0.0002469601
v -0.059250579 -0.0045820872 -0.00019464217
v -0.059253526 -0.0046213124 0.00014004906
v -0.059256417 -0.0046966371 0.00046850511
v -0.059256859 -0.0047115323 0.00051873719
v -0.059257299 -0.0047272743 0.00056871044
v -0.059260067 -0.004848505 0.00088313217
v -0.059262703 -0.0050031497 0.0011825373
v -0.059263098 -0.00503007 0.0012274873
v -0.05926349 -0.0050577452 0.0012719756
v -0.059265905 -0.0052533638 0.0015463717
v -0.059268119 -0.0054776125 0.0017979133
v -0.059268444 -0.0055148658 0.0018347566
v -0.059268762 -0.0055527359 0.001870965
v -0.059270674 -0.005810451 0.0020880939
v -0.059272327 -0.0060902128 0.0022759666
v -0.05927256 -0.0061354586 0.0023023884
v -0.059272786 -0.0061811441 0.0023280414
v -0.059274073 -0.0064847619 0.0024742603
v -0.059275062 -0.0068024583 0.0025866595
v -0.059275188 -0.006852854 0.0026009993
v -0.059275307 -0.006903484 0.0026144855
v -0.059275889 -0.0072339282 0.0026806067
v -0.059276151 -0.0075695973 0.0027104698
v -0.059276163 -0.0076219753 0.0027118269
v -0.059276167 -0.0076743687 0.0027122985
v -0.059276007 -0.0080108756 0.0026941675
v -0.059275527 -0.0083434255 0.0026396183
v -0.059275424 -0.008394496 0.0026279072
v -0.059275313 -0.0084453608 0.0026153348
v -0.059274422 -0.0087667864 0.0025140909
v -0.059273228 -0.0090753235 0.0023785565
v -0.059273017 -0.0091218759 0.0023545135
v -0.059272798 -0.0091680163 0.0023296868
v -0.059271231 -0.0094541645 0.0021516915
v -0.0592694 -0.0097193004 0.0019436884
v -0.059269093 -0.0097584111 0.0019088237
v -0.05926878 -0.0097969276 0.0018733029
v -0.059266636 -0.010029818 0.0016297402
v -0.059264282 -0.010234894 0.0013623379
v -0.059263899 -0.010264105 0.0013188425
v -0.059263512 -0.010292578 0.0012748593
v -0.059260925 -0.010457578 0.00098103329
v -0.059258196 -0.010589709 0.00067103374
v -0.059257761 -0.010607184 0.00062164027
v -0.059257324 -0.010623824 0.00057195861
v -0.059254457 -0.010710566 0.00024633128
v -0.059251525 -0.010761448 -8.6787205e-05
v -0.059251065 -0.010766091 -0.00013897489
v -0.059250605 -0.010769852 -0.00019123358
v -0.059247639 -0.010772885 -0.00052820174
v -0.059244687 -0.010739323 -0.00086350811
v -0.059244232 -0.010730841 -0.0009152109
v -0.059243778 -0.010721487 -0.000966763
v -0.059240899 -0.010640621 -0.001293899
v -0.059238113 -0.010524723 -0.0016103248
v -0.059237691 -0.010503648 -0.001658294
v -0.059237272 -0.010481768 -0.0017059002
v -0.05923466 -0.010322083 -0.0020026491
v -0.059232216 -0.010131131 -0.002280312
v -0.059231853 -0.010098789 -0.0023215335
v -0.059231495 -0.010065756 -0.0023622026
v -0.059229314 -0.0098372876 -0.0026099185
v -0.059227365 -0.0095832797 -0.0028313718
v -0.059227084 -0.0095417024 -0.0028632558
v -0.05922681 -0.0094995918 -0.0028944322
v -0.059225198 -0.0092166948 -0.0030775502
v -0.059223866 -0.0089155913 -0.0032288793
v -0.059223685 -0.0088673909 -0.0032494222
v -0.059223512 -0.0088188508 -0.0032691471
v -0.05922257 -0.0084992994 -0.0033761612
v -0.059221939 -0.0081700202 -0.0034478577
v -0.059221869 -0.0081182252 -0.0034557685
v -0.059221807 -0.0080663041 -0.0034628028
v -0.059221595 -0.0077301781 -0.0034869887
v -0.059221705 -0.0073934129 -0.0034745475
v -0.059221751 -0.0073412778 -0.0034693294
v -0.059221804 -0.0072892383 -0.003463231
v -0.059222334 -0.0069576575 -0.0034030691
v -0.059223178 -0.0066345666 -0.0033072718
v -0.059223336 -0.0065853664 -0.0032892528
v -0.059223502 -0.0065364784 -0.0032704045
v -0.059224741 -0.0062302775 -0.0031296753
v -0.059226266 -0.0059411614 -0.0029565413
v -0.059226527 -0.0058979889 -0.0029268534
v -0.059226795 -0.0058553243 -0.0028964397
v -0.059228665 -0.0055937423 -0.0026839856
v -0.059230774 -0.005356768 -0.0024443936
v -0.059231122 -0.0053223349 -0.0024049021
v -0.059231475 -0.0052885743 -0.0023648343
v -0.059233859 -0.005088048 -0.0020940043
v -0.059236421 -0.004918105 -0.0018030088
v -0.059236833 -0.0048945756 -0.0017561951
v -0.059237248 -0.0048718406 -0.0017089906
v -0.059239997 -0.0047449688 -0.0013968021
v -0.05924285 -0.0046527354 -0.0010726874
v -0.059243301 -0.0046415876 -0.0010214931
v -0.059243753 -0.0046313065 -0.00097011782
v -0.059244907 -0.0046091248 -0.00083901133
v -0.059246069 -0.0045925861 -0.00070707424
v -0.059247235 -0.0045817206 -0.00057454926
v -0.060048373 -0.0045765493 -0.00044872242
v -0.060034794 -0.0050188578 -0.0019911784
v -0.060024981 -0.0061731668 -0.0031058386
v -0.060021563 -0.0077301787 -0.0034940309
v -0.060025456 -0.0092726941 -0.0030517392
v -0.060035616 -0.010387398 -0.0018974755
v -0.060049321 -0.010775605 -0.00034052371
v -0.0600629 -0.010333297 0.0012019323
v -0.060072713 -0.0091789877 0.0023165925
v -0.060076131 -0.0076219758 0.0027047847
v -0.060072239 -0.0060794604 0.0022624931
v -0.060062079 -0.0049647564 0.0011082294
v -0.059248405 -0.0045765488 -0.00044168028
v -0.060048373 -0.0045765493 -0.00044872242
v -0.057559063 -0.0053439181 0.00077670523
v -0.059258998 -0.0053439192 0.00076174051
v -0.059258509 -0.0053173527 0.00070618715
v -0.059258015 -0.0052921091 0.00065002023
v -0.059257515 -0.0052682032 0.00059327124
v -0.05755758 -0.005268202 0.0006082358
v -0.05755808 -0.0052921085 0.00066498488
v -0.057558574 -0.0053173516 0.00072115187
v -0.059248405 -0.0045765488 -0.00044168028
v -0.059247235 -0.0045817206 -0.00057454926
v -0.059246069 -0.0045925861 -0.00070707424
v -0.059244907 -0.0046091248 -0.00083901133
v -0.059243753 -0.0046313065 -0.00097011782
v -0.059243301 -0.0046415876 -0.0010214931
v -0.05924285 -0.0046527354 -0.0010726874
v -0.059239997 -0.0047449688 -0.0013968021
v -0.059237248 -0.0048718406 -0.0017089906
v -0.059236833 -0.0048945756 -0.0017561951
v -0.059236421 -0.004918105 -0.0018030088
v -0.059233859 -0.005088048 -0.0020940043
v -0.059231475 -0.0052885743 -0.0023648343
v -0.059231122 -0.0053223349 -0.0024049021
v -0.059230774 -0.005356768 -0.0024443936
v -0.059228665 -0.0055937423 -0.0026839856
v -0.059226795 -0.0058553243 -0.0028964397
v -0.059226527 -0.0058979889 -0.0029268534
v -0.059226266 -0.0059411614 -0.0029565413
v -0.059224741 -0.0062302775 -0.0031296753
v -0.059223502 -0.0065364784 -0.0032704045
v -0.059223336 -0.0065853664 -0.0032892528
v -0.059223178 -0.0066345666 -0.0033072718
v -0.059222334 -0.0069576575 -0.0034030691
v -0.059221804 -0.0072892383 -0.003463231
v -0.059221751 -0.0073412778 -0.0034693294
v -0.059221705 -0.0073934129 -0.0034745475
v -0.059221595 -0.0077301781 -0.0034869887
v -0.059221807 -0.0080663041 -0.0034628028
v -0.059221869 -0.0081182252 -0.0034557685
v -0.059221939 -0.0081700202 -0.0034478577
v -0.05922257 -0.0084992994 -0.0033761612
v -0.059223512 -0.0088188508 -0.0032691471
v -0.059223685 -0.0088673909 -0.0032494222
v -0.059223866 -0.0089155913 -0.0032288793
v -0.059225198 -0.0092166948 -0.0030775502
v -0.05922681 -0.0094995918 -0.0028944322
v -0.059227084 -0.0095417024 -0.0028632558
v -0.059227365 -0.0095832797 -0.0028313718
v -0.059229314 -0.0098372876 -0.0026099185
v -0.059231495 -0.010065756 -0.0023622026
v -0.059231853 -0.010098789 -0.0023215335
v -0.059232216 -0.010131131 -0.002280312
v -0.05923466 -0.010322083 -0.0020026491
v -0.059237272 -0.010481768 -0.0017059002
v -0.059237691 -0.010503648 -0.001658294
v -0.059238113 -0.010524723 -0.0016103248
v -0.059240899 -0.010640621 -0.001293899
v -0.059243778 -0.010721487 -0.000966763
v -0.059244232 -0.010730841 -0.0009152109
v -0.059244687 -0.010739323 -0.00086350811
v -0.059247639 -0.010772885 -0.00052820174
v -0.059250605 -0.010769852 -0.00019123358
v -0.059251065 -0.010766091 -0.00013897489
v -0.059251525 -0.010761448 -8.6787205e-05
v -0.059254457 -0.010710566 0.00024633128
v -0.059257324 -0.010623824 0.00057195861
v -0.059257761 -0.010607184 0.00062164027
v -0.059258196 -0.010589709 0.00067103374
v -0.059260925 -0.010457578 0.00098103329
v -0.059263512 -0.010292578 0.0012748593
v -0.059263899 -0.010264105 0.0013188425
v -0.059264282 -0.010234894 0.0013623379
v -0.059266636 -0.010029818 0.0016297402
v -0.05926878 -0.0097969276 0.0018733029
v -0.059269093 -0.0097584111 0.0019088237
v -0.0592694 -0.0097193004 0.0019436884
v -0.059271231 -0.0094541645 0.0021516915
v -0.059272798 -0.0091680163 0.0023296868
v -0.059273017 -0.0091218759 0.0023545135
v -0.059273228 -0.0090753235 0.0023785565
v -0.059274422 -0.0087667864 0.0025140909
v -0.059275313 -0.0084453608 0.0026153348
v -0.059275424 -0.008394496 0.0026279072
v -0.059275527 -0.0083434255 0.0026396183
v -0.059276007 -0.0080108756 0.0026941675
v -0.059276167 -0.0076743687 0.0027122985
v -0.059276163 -0.0076219753 0.0027118269
v -0.059276151 -0.0075695973 0.0027104698
v -0.059275889 -0.0072339282 0.0026806067
v -0.059275307 -0.006903484 0.0026144855
v -0.059275188 -0.006852854 0.0026009993
v -0.059275062 -0.0068024583 0.0025866595
v -0.059274073 -0.0064847619 0.0024742603
v -0.059272786 -0.0061811441 0.0023280414
v -0.05927256 -0.0061354586 0.0023023884
v -0.059272327 -0.0060902128 0.0022759666
v -0.059270674 -0.005810451 0.0020880939
v -0.059268762 -0.0055527359 0.001870965
v -0.059268444 -0.0055148658 0.0018347566
v -0.059268119 -0.0054776125 0.0017979133
v -0.059265905 -0.0052533638 0.0015463717
v -0.05926349 -0.0050577452 0.0012719756
v -0.059263098 -0.00503007 0.0012274873
v -0.059262703 -0.0050031497 0.0011825373
v -0.059260067 -0.004848505 0.00088313217
v -0.059257299 -0.0047272743 0.00056871044
v -0.059256859 -0.0047115323 0.00051873719
v -0.059256417 -0.0046966371 0.00046850511
v -0.059253526 -0.0046213124 0.00014004906
v -0.059250579 -0.0045820872 -0.00019464217
v -0.059250119 -0.004579268 -0.0002469601
v -0.059249658 -0.0045773336 -0.00029931819
v -0.059249031 -0.0045761235 -0.00037049474
v -0.059226611 -0.0082770485 -0.0029170746
v -0.059222591 -0.0081580701 -0.0033738188
v -0.059222462 -0.0080568633 -0.0033884023
v -0.059226024 -0.0078137632 -0.0029838321
v -0.059226002 -0.0077522348 -0.0029863647
v -0.059225992 -0.007690663 -0.0029874394
v -0.059225996 -0.0076290837 -0.0029870555
v -0.059222362 -0.0074002519 -0.0033998629
v -0.059222459 -0.0072985972 -0.0033888201
v -0.059226441 -0.0071637514 -0.0029365061
v -0.059226554 -0.0071035259 -0.002923658
v -0.05922668 -0.0070436214 -0.0029093873
v -0.059226818 -0.0069840719 -0.002893702
v -0.059223799 -0.0066597639 -0.0032366342
v -0.059224116 -0.0065640497 -0.0032006587
v -0.059228268 -0.0065459307 -0.0027290217
v -0.059228509 -0.0064907922 -0.0027016004
v -0.059228762 -0.006436319 -0.0026728809
v -0.059229026 -0.0063825412 -0.0026428796
v -0.059226813 -0.0059831355 -0.0028943891
v -0.059227329 -0.0058993745 -0.0028357416
v -0.05923139 -0.0059991207 -0.002374416
v -0.059231744 -0.0059525349 -0.0023341443
v -0.059232109 -0.0059069154 -0.0022927808
v -0.059232482 -0.0058622883 -0.0022503485
v -0.059231212 -0.0054128799 -0.002394632
v -0.059231896 -0.0053463366 -0.0023169974
v -0.059235611 -0.0055576808 -0.00189497
v -0.059236056 -0.0055225734 -0.0018443787
v -0.059236509 -0.0054886745 -0.00179297
v -0.059236968 -0.0054560024 -0.001740773
v -0.059236722 -0.0049848302 -0.0017687646
v -0.05923753 -0.0049396845 -0.0016770209
v -0.059240665 -0.0052493467 -0.0013208094
v -0.059241174 -0.0052279248 -0.001263077
v -0.059241686 -0.0052078763 -0.0012048534
v -0.059242203 -0.0051892122 -0.0011461713
v -0.059242996 -0.0047258807 -0.0010561122
v -0.059243877 -0.0047049707 -0.00095602419
v -0.059246236 -0.0050934938 -0.00068801054
v -0.059246775 -0.0050871025 -0.00062676463
v -0.059247316 -0.0050821639 -0.00056538452
v -0.059247857 -0.0050786806 -0.00050390467
v -0.059249639 -0.004652303 -0.00030145358
v -0.059250538 -0.0046569416 -0.00019931007
v -0.059251973 -0.0050999139 -3.6334591e-05
v -0.059252509 -0.0051089552 2.4576487e-05
v -0.059253043 -0.0051194366 8.5256372e-05
v -0.059253575 -0.0051313528 0.00014567099
v -0.059256235 -0.0047687205 0.00044779332
v -0.059257095 -0.0047986161 0.00054557435
v -0.059257515 -0.0052682032 0.00059327124
v -0.059258015 -0.0052921091 0.00065002023
v -0.059258509 -0.0053173527 0.00070618715
v -0.059258998 -0.0053439192 0.00076174051
v -0.059262368 -0.0050678176 0.0011445507
v -0.059263136 -0.0051210924 0.0012318251
v -0.059262515 -0.0055877883 0.0011612465
v -0.059262946 -0.0056250568 0.0012102677
v -0.05926337 -0.0056634759 0.0012583925
v -0.059263785 -0.0057030242 0.001305594
v -0.059267654 -0.0055308012 0.0017450384
v -0.059268281 -0.0056041074 0.0018163227
v -0.059266658 -0.0060385883 0.0016319033
v -0.059266994 -0.0060868779 0.0016701164
v -0.05926732 -0.0061360585 0.0017071753
v -0.059267636 -0.0061861032 0.001743059
v -0.05927176 -0.0061285801 0.002211526
v -0.059272207 -0.0062173116 0.0022623409
v -0.059269683 -0.0065922778 0.0019756685
v -0.059269904 -0.0066485536 0.0020006725
v -0.059270112 -0.0067054055 0.0020243368
v -0.059270308 -0.0067628026 0.0020466481
v -0.059274428 -0.0068235943 0.0025147021
v -0.059274667 -0.0069221757 0.0025418548
v -0.059271402 -0.0072140663 0.0021709418
v -0.059271492 -0.0072747928 0.0021811658
v -0.059271569 -0.0073357442 0.0021899488
v -0.059271634 -0.0073968859 0.0021972856
v -0.059275491 -0.007572173 0.002635517
v -0.059275507 -0.0076744104 0.0026373015
v -0.059271705 -0.0078648851 0.0022054541
v -0.05927166 -0.0079262457 0.0022002554
v -0.059271601 -0.007987467 0.0021936049
v -0.05927153 -0.0080485121 0.0021855063
v -0.059274882 -0.00832728 0.0025663796
v -0.059274674 -0.008426749 0.0025426837
v -0.059270575 -0.0085038394 0.0020770363
v -0.059270396 -0.0085619796 0.0020567416
v -0.059270205 -0.0086196228 0.0020350757
v -0.059270002 -0.0086767376 0.0020120508
v -0.059272639 -0.0090414698 0.002311634
v -0.059272219 -0.0091319207 0.0022639465
v -0.05926808 -0.0090907834 0.0017937575
v -0.05926778 -0.0091420494 0.0017596421
v -0.059267469 -0.0091924935 0.001724322
v -0.059267148 -0.0092420866 0.0016878174
v -0.059268903 -0.0096698672 0.0018872867
v -0.059268299 -0.0097456166 0.001818604
v -0.05926438 -0.0095888358 0.0013734172
v -0.059263977 -0.0096300067 0.0013276246
v -0.059263565 -0.009670082 0.0012808698
v -0.059263145 -0.0097090387 0.0012331791
v -0.059263909 -0.010172987 0.0013200012
v -0.059263158 -0.010229275 0.0012346391
v -0.059259705 -0.009966702 0.00084242686
v -0.059259225 -0.0099951906 0.00078783443
v -0.059258738 -0.010022379 0.00073258267
v -0.059258246 -0.010048252 0.00067670251
v -0.059257971 -0.010519217 0.00064542208
v -0.05925712 -0.010552508 0.00054874392
v -0.05925435 -0.01020064 0.00023415066
v -0.059253823 -0.010214657 0.00017418868
v -0.059253292 -0.010227251 0.00011391155
v -0.059252759 -0.010238412 5.3353091e-05
v -0.059251461 -0.010686802 -9.4064495e-05
v -0.059250564 -0.010695003 -0.00019598392
v -0.059248652 -0.01027595 -0.00041319121
v -0.05924811 -0.010274614 -0.00047475518
v -0.059247568 -0.010271821 -0.00053627021
v -0.059247028 -0.010267571 -0.00059770186
v -0.059244789 -0.010665212 -0.00085199377
v -0.059243902 -0.010647807 -0.00095275053
v -0.059242967 -0.010187902 -0.0010589239
v -0.059242445 -0.010171297 -0.0011182215
v -0.059241927 -0.010153292 -0.0011771093
v -0.059241413 -0.010133898 -0.0012355541
v -0.059238374 -0.010455803 -0.0015807423
v -0.059237553 -0.010413888 -0.0016740054
v -0.059237655 -0.0099420253 -0.0016624736
v -0.059237185 -0.0099111948 -0.001715779
v -0.059236723 -0.0098791101 -0.0017683394
v -0.059236267 -0.009845791 -0.0018201251
v -0.059232619 -0.010071734 -0.00223452
v -0.059231915 -0.010007941 -0.0023144295
v -0.059233047 -0.0095537712 -0.0021859171
v -0.05923266 -0.0095106522 -0.002229881
v -0.059232282 -0.0094665041 -0.0022728113
v -0.059231913 -0.0094213515 -0.0023146842
v -0.059227885 -0.0095371379 -0.0027722478
v -0.059227344 -0.0094554754 -0.0028337827
v -0.059229434 -0.009047534 -0.0025963646
v -0.059229154 -0.008994836 -0.0026282244
v -0.059228884 -0.0089413983 -0.0026588273
v -0.059228626 -0.0088872516 -0.0026881561
v -0.059224471 -0.0088856039 -0.0031601381
v -0.059224125 -0.0087912023 -0.0031994319
v -0.059227043 -0.0084551241 -0.0028680261
v -0.059226887 -0.0083961577 -0.0028857801
v -0.059226743 -0.0083367889 -0.0029021326
v -0.057559063 -0.0053439181 0.00077670523
v -0.057137449 -0.0050678162 0.0011632564
v -0.059262368 -0.0050678176 0.0011445507
v -0.059258998 -0.0053439192 0.00076174051
v -0.059263136 -0.0051210924 0.0012318251
v -0.057138218 -0.0051210909 0.0012505308
v -0.05756258 -0.0055877872 0.0011762111
v -0.059262515 -0.0055877883 0.0011612465
v -0.057147721 -0.0090414684 0.0023303397
v -0.057147301 -0.0091319193 0.0022826523
v -0.059272219 -0.0091319207 0.0022639465
v -0.059272639 -0.0090414698 0.002311634
v -0.060048373 -0.0045765493 -0.00044872242
v -0.060062079 -0.0049647564 0.0011082294
v -0.060072239 -0.0060794604 0.0022624931
v -0.060076131 -0.0076219758 0.0027047847
v -0.060072713 -0.0091789877 0.0023165925
v -0.0600629 -0.010333297 0.0012019323
v -0.060049321 -0.010775605 -0.00034052371
v -0.060035616 -0.010387398 -0.0018974755
v -0.060025456 -0.0092726941 -0.0030517392
v -0.060021563 -0.0077301787 -0.0034940309
v -0.060024981 -0.0061731668 -0.0031058386
v -0.060034794 -0.0050188578 -0.0019911784
v -0.060048602 -0.0060763207 -0.00042254531
v -0.060039608 -0.0064685415 -0.0014442765
v -0.060034937 -0.0074257817 -0.0019748631
v -0.060036774 -0.0085001381 -0.0017660379
v -0.060044261 -0.0091889067 -0.00091551241
v -0.060053894 -0.009169806 0.00017874295
v -0.060061165 -0.0084517735 0.001004714
v -0.060062673 -0.0073707835 0.0011759197
v -0.060057712 -0.006432644 0.00061225097
v -0.05755364 -0.0051313517 0.00016063571
v -0.057131316 -0.0047687191 0.00046649903
v -0.059256235 -0.0047687205 0.00044779332
v -0.059253575 -0.0051313528 0.00014567099
v -0.059257095 -0.0047986161 0.00054557435
v -0.057132177 -0.0047986147 0.00056428006
v -0.05755758 -0.005268202 0.0006082358
v -0.059257515 -0.0052682032 0.00059327124
v -0.057149964 -0.0083272786 0.0025850853
v -0.057149755 -0.0084267476 0.0025613894
v -0.059274674 -0.008426749 0.0025426837
v -0.059274882 -0.00832728 0.0025663796
v -0.05702168 -0.0077301767 -0.0034676228
v -0.057021694 -0.0075616248 -0.0034659815
v -0.057021789 -0.0073934114 -0.0034551816
v -0.057021835 -0.0073412764 -0.0034499635
v -0.057021889 -0.0072892368 -0.0034438651
v -0.057022419 -0.006957656 -0.0033837032
v -0.057023263 -0.0066345651 -0.0032879059
v -0.057023421 -0.0065853649 -0.0032698869
v -0.057023587 -0.006536477 -0.0032510386
v -0.057024826 -0.0062302761 -0.0031103094
v -0.05702635 -0.0059411599 -0.0029371754
v -0.057026612 -0.0058979875 -0.0029074875
v -0.05702688 -0.0058553228 -0.0028770738
v -0.05702875 -0.0055937409 -0.0026646197
v -0.057030859 -0.0053567665 -0.0024250277
v -0.057031207 -0.0053223334 -0.0023855362
v -0.05703156 -0.0052885728 -0.0023454684
v -0.057033944 -0.0050880465 -0.0020746384
v -0.057036506 -0.0049181035 -0.0017836429
v -0.057036918 -0.0048945741 -0.0017368292
v -0.057037333 -0.0048718391 -0.0016896247
v -0.057040082 -0.0047449673 -0.0013774362
v -0.057042935 -0.0046527339 -0.0010533215
v -0.057043386 -0.0046415862 -0.0010021272
v -0.057043838 -0.004631305 -0.00095075192
v -0.057046778 -0.0045860607 -0.00061682105
v -0.057049743 -0.0045773322 -0.00027995229
v -0.057050204 -0.0045792666 -0.0002275942
v -0.057050664 -0.0045820858 -0.00017527627
v -0.057053611 -0.004621311 0.00015941496
v -0.057056502 -0.0046966356 0.00048787101
v -0.057056944 -0.0047115308 0.00053810309
v -0.057057384 -0.0047272728 0.00058807634
v -0.057060152 -0.0048485036 0.00090249807
v -0.057062788 -0.0050031482 0.0012019032
v -0.057063183 -0.0050300685 0.0012468532
v -0.057063575 -0.0050577438 0.0012913415
v -0.05706599 -0.0052533623 0.0015657376
v -0.057068204 -0.005477611 0.0018172792
v -0.057068529 -0.0055148644 0.0018541225
v -0.057068847 -0.0055527345 0.0018903309
v -0.057070759 -0.0058104495 0.0021074598
v -0.057072412 -0.0060902113 0.0022953325
v -0.057072645 -0.0061354571 0.0023217543
v -0.057072871 -0.0061811426 0.0023474073
v -0.057074158 -0.0064847604 0.0024936262
v -0.057075147 -0.0068024568 0.0026060254
v -0.057075273 -0.0068528525 0.0026203652
v -0.057075392 -0.0069034825 0.0026338514
v -0.057075974 -0.0072339267 0.0026999726
v -0.057076236 -0.0075695958 0.0027298357
v -0.057076248 -0.0076219738 0.0027311928
v -0.057076252 -0.0076743672 0.0027316644
v -0.057076092 -0.0080108741 0.0027135334
v -0.057075612 -0.0083434241 0.0026589842
v -0.057075509 -0.0083944945 0.0026472732
v -0.057075398 -0.0084453594 0.0026347007
v -0.057074507 -0.008766785 0.0025334568
v -0.057073313 -0.0090753221 0.0023979225
v -0.057073102 -0.0091218744 0.0023738794
v -0.057072883 -0.0091680148 0.0023490527
v -0.057071316 -0.009454163 0.0021710574
v -0.057069485 -0.0097192989 0.0019630543
v -0.057069178 -0.0097584096 0.0019281896
v -0.057068865 -0.0097969261 0.0018926688
v -0.057066721 -0.010029816 0.0016491061
v -0.057064367 -0.010234892 0.0013817038
v -0.057063984 -0.010264104 0.0013382084
v -0.057063597 -0.010292577 0.0012942253
v -0.05706101 -0.010457576 0.0010003992
v -0.057058281 -0.010589707 0.00069039965
v -0.057057846 -0.010607183 0.00064100618
v -0.057057409 -0.010623822 0.00059132451
v -0.057054542 -0.010710564 0.00026569718
v -0.05705161 -0.010761447 -6.7421302e-05
v -0.05705115 -0.01076609 -0.00011960899
v -0.05705069 -0.01076985 -0.00017186768
v -0.057047724 -0.010772884 -0.00050883584
v -0.057044772 -0.010739321 -0.00084414221
v -0.057044317 -0.01073084 -0.000895845
v -0.057043863 -0.010721486 -0.00094739709
v -0.057040984 -0.010640619 -0.0012745331
v -0.057038198 -0.010524721 -0.0015909589
v -0.057037776 -0.010503647 -0.0016389281
v -0.057037357 -0.010481766 -0.0016865343
v -0.057034745 -0.010322082 -0.0019832832
v -0.057032301 -0.01013113 -0.0022609461
v -0.057031938 -0.010098788 -0.0023021676
v -0.05703158 -0.010065755 -0.0023428367
v -0.057029399 -0.0098372861 -0.0025905526
v -0.05702745 -0.0095832782 -0.0028120059
v -0.057027169 -0.009541701 -0.0028438898
v -0.057026895 -0.0094995904 -0.0028750663
v -0.057025283 -0.0092166933 -0.0030581843
v -0.057023951 -0.0089155898 -0.0032095134
v -0.05702377 -0.0088673895 -0.0032300563
v -0.057023597 -0.0088188493 -0.0032497812
v -0.057022655 -0.008499298 -0.0033567953
v -0.057022024 -0.0081700188 -0.0034284918
v -0.057021954 -0.0081182238 -0.0034364026
v -0.057021892 -0.0080663026 -0.0034434369
v -0.057021809 -0.0079825485 -0.003452909
v -0.057021746 -0.0078985686 -0.0034601005
v -0.057021703 -0.0078144236 -0.0034650063
v -0.057526061 -0.0076290826 -0.002972091
v -0.057526057 -0.0076906619 -0.0029724748
v -0.057526067 -0.0077522337 -0.0029714002
v -0.057526089 -0.0078137621 -0.0029688676
v -0.057097544 -0.0080568619 -0.0033696966
v -0.057097672 -0.0081580687 -0.0033551131
v -0.057526677 -0.0082770473 -0.00290211
v -0.057526808 -0.0083367877 -0.002887168
v -0.057526952 -0.0083961566 -0.0028708155
v -0.057527108 -0.008455123 -0.0028530616
v -0.057099207 -0.0087912009 -0.0031807262
v -0.057099553 -0.0088856025 -0.0031414324
v -0.057528691 -0.0088872505 -0.0026731915
v -0.057528949 -0.0089413972 -0.0026438628
v -0.057529219 -0.0089948349 -0.0026132598
v -0.057529499 -0.0090475329 -0.0025814001
v -0.057102425 -0.0094554739 -0.0028150769
v -0.057102967 -0.0095371365 -0.0027535421
v -0.057531979 -0.0094213504 -0.0022997196
v -0.057532347 -0.0094665029 -0.0022578467
v -0.057532725 -0.009510651 -0.0022149164
v -0.057533112 -0.0095537701 -0.0021709525
v -0.057106997 -0.01000794 -0.0022957238
v -0.0571077 -0.010071733 -0.0022158143
v -0.057536332 -0.0098457899 -0.0018051605
v -0.057536788 -0.009879109 -0.0017533748
v -0.05753725 -0.0099111937 -0.0017008144
v -0.05753772 -0.0099420242 -0.0016475091
v -0.057112634 -0.010413887 -0.0016552997
v -0.057113455 -0.010455802 -0.0015620365
v -0.057541478 -0.010133897 -0.0012205896
v -0.057541992 -0.010153291 -0.0011621448
v -0.057542511 -0.010171296 -0.001103257
v -0.057543033 -0.010187901 -0.0010439593
v -0.057118983 -0.010647806 -0.00093404482
v -0.05711987 -0.01066521 -0.00083328806
v -0.057547093 -0.01026757 -0.00058273729
v -0.057547633 -0.01027182 -0.00052130565
v -0.057548175 -0.010274613 -0.00045979061
v -0.057548717 -0.010275949 -0.00039822665
v -0.057125645 -0.010695001 -0.00017727821
v -0.057126542 -0.010686801 -7.5358787e-05
v -0.057552824 -0.010238411 6.8317508e-05
v -0.057553357 -0.01022725 0.000128876
v -0.057553888 -0.010214656 0.00018915317
v -0.057554416 -0.010200639 0.00024911518
v -0.057132201 -0.010552506 0.00056744962
v -0.057133052 -0.010519215 0.00066412778
v -0.057558311 -0.01004825 0.00069166692
v -0.057558803 -0.010022378 0.00074754716
v -0.05755929 -0.0099951894 0.00080279893
v -0.05755977 -0.0099667009 0.00085739143
v -0.057138239 -0.010229274 0.0012533448
v -0.057138991 -0.010172986 0.0013387069
v -0.05756321 -0.0097090375 0.0012481435
v -0.05756363 -0.0096700809 0.0012958344
v -0.057564042 -0.0096300056 0.0013425892
v -0.057564445 -0.0095888346 0.0013883818
v -0.05714338 -0.0097456152 0.0018373097
v -0.057143985 -0.0096698658 0.0019059924
v -0.057567213 -0.0092420855 0.0017027819
v -0.057567534 -0.0091924923 0.0017392866
v -0.057567845 -0.0091420483 0.0017746065
v -0.057568146 -0.0090907823 0.0018087221
v -0.057147301 -0.0091319193 0.0022826523
v -0.057147721 -0.0090414684 0.0023303397
v -0.057570067 -0.0086767365 0.0020270152
v -0.05757027 -0.0086196228 0.0020500403
v -0.057570461 -0.0085619785 0.0020717062
v -0.05757064 -0.0085038383 0.0020920008
v -0.057149755 -0.0084267476 0.0025613894
v -0.057149964 -0.0083272786 0.0025850853
v -0.057571595 -0.008048511 0.0022004709
v -0.057571666 -0.0079874659 0.0022085695
v -0.057571725 -0.0079262445 0.00221522
v -0.057571771 -0.007864884 0.0022204186
v -0.057150588 -0.007674409 0.0026560072
v -0.057150573 -0.0075721716 0.0026542227
v -0.057571699 -0.0073968854 0.0022122501
v -0.057571634 -0.007335743 0.0022049133
v -0.057571557 -0.0072747917 0.0021961304
v -0.057571467 -0.0072140652 0.0021859064
v -0.057149749 -0.0069221743 0.0025605605
v -0.05714951 -0.0068235929 0.0025334079
v -0.057570373 -0.0067628015 0.0020616127
v -0.057570177 -0.006705405 0.0020393014
v -0.057569969 -0.0066485525 0.0020156371
v -0.057569749 -0.0065922772 0.0019906331
v -0.057147289 -0.0062173102 0.0022810466
v -0.057146841 -0.0061285787 0.0022302318
v -0.057567701 -0.0061861021 0.0017580236
v -0.057567385 -0.0061360574 0.0017221399
v -0.057567059 -0.0060868767 0.0016850811
v -0.057566723 -0.0060385872 0.0016468679
v -0.057143363 -0.005604106 0.0018350284
v -0.057142735 -0.0055307998 0.0017637441
v -0.05756385 -0.0057030231 0.0013205587
v -0.057563435 -0.0056634748 0.0012733571
v -0.057563011 -0.0056250556 0.0012252322
v -0.05756258 -0.0055877872 0.0011762111
v -0.057138218 -0.0051210909 0.0012505308
v -0.057137449 -0.0050678162 0.0011632564
v -0.057559063 -0.0053439181 0.00077670523
v -0.057558574 -0.0053173516 0.00072115187
v -0.05755808 -0.0052921085 0.00066498488
v -0.05755758 -0.005268202 0.0006082358
v -0.057132177 -0.0047986147 0.00056428006
v -0.057131316 -0.0047687191 0.00046649903
v -0.05755364 -0.0051313517 0.00016063571
v -0.057553108 -0.0051194355 0.00010022105
v -0.057552574 -0.005108954 3.9541128e-05
v -0.057552038 -0.0050999127 -2.1369988e-05
v -0.05712562 -0.0046569402 -0.00018060436
v -0.057124721 -0.0046523016 -0.00028274788
v -0.057547922 -0.0050786794 -0.0004889401
v -0.057547381 -0.0050821628 -0.00055041995
v -0.05754684 -0.0050871013 -0.00061180006
v -0.057546301 -0.0050934927 -0.00067304598
v -0.057118958 -0.0047049693 -0.00093731849
v -0.057118077 -0.0047258792 -0.0010374065
v -0.057542268 -0.0051892111 -0.0011312068
v -0.057541751 -0.0052078751 -0.0011898888
v -0.057541239 -0.0052279237 -0.0012481124
v -0.05754073 -0.0052493456 -0.0013058448
v -0.057112611 -0.0049396831 -0.0016583152
v -0.057111804 -0.0049848288 -0.0017500589
v -0.057537033 -0.0054560013 -0.0017258084
v -0.057536574 -0.0054886734 -0.0017780054
v -0.057536121 -0.0055225723 -0.0018294141
v -0.057535676 -0.0055576796 -0.0018800055
v -0.057106977 -0.0053463352 -0.0022982917
v -0.057106294 -0.0054128785 -0.0023759263
v -0.057532547 -0.0058622872 -0.0022353839
v -0.057532174 -0.0059069143 -0.0022778163
v -0.05753181 -0.0059525338 -0.0023191798
v -0.057531455 -0.0059991196 -0.0023594514
v -0.05710241 -0.0058993731 -0.0028170359
v -0.057101894 -0.0059831341 -0.0028756834
v -0.057529092 -0.0063825401 -0.002627915
v -0.057528827 -0.0064363179 -0.0026579164
v -0.057528575 -0.0064907911 -0.0026866358
v -0.057528333 -0.0065459296 -0.0027140571
v -0.057099198 -0.0065640482 -0.003181953
v -0.057098881 -0.0066597625 -0.0032179285
v -0.057526883 -0.0069840708 -0.0028787374
v -0.057526745 -0.0070436203 -0.0028944228
v -0.057526619 -0.0071035248 -0.0029086934
v -0.057526506 -0.0071637503 -0.0029215416
v -0.057097541 -0.0072985958 -0.0033701144
v -0.057097443 -0.0074002505 -0.0033811572
v -0.057526057 -0.0076906619 -0.0029724748
v -0.05702168 -0.0077301767 -0.0034676228
v -0.057150573 -0.0075721716 0.0026542227
v -0.057150588 -0.007674409 0.0026560072
v -0.059275507 -0.0076744104 0.0026373015
v -0.059275491 -0.007572173 0.002635517
v -0.05714951 -0.0068235929 0.0025334079
v -0.057149749 -0.0069221743 0.0025605605
v -0.059274667 -0.0069221757 0.0025418548
v -0.059274428 -0.0068235943 0.0025147021
v -0.057146841 -0.0061285787 0.0022302318
v -0.057147289 -0.0062173102 0.0022810466
v -0.059272207 -0.0062173116 0.0022623409
v -0.05927176 -0.0061285801 0.002211526
v -0.057142735 -0.0055307998 0.0017637441
v -0.057143363 -0.005604106 0.0018350284
v -0.059268281 -0.0056041074 0.0018163227
v -0.059267654 -0.0055308012 0.0017450384
v -0.057137449 -0.0050678162 0.0011632564
v -0.057138218 -0.0051210909 0.0012505308
v -0.059263136 -0.0051210924 0.0012318251
v -0.059262368 -0.0050678176 0.0011445507
v -0.057131316 -0.0047687191 0.00046649903
v -0.057132177 -0.0047986147 0.00056428006
v -0.059257095 -0.0047986161 0.00054557435
v -0.059256235 -0.0047687205 0.00044779332
f 2 16 1
f 1 16 18
f 17 9 8
f 8 9 10
f 8 10 7
f 7 10 11
f 7 11 6
f 6 11 12
f 6 12 5
f 5 12 13
f 5 13 4
f 4 13 14
f 4 14 3
f 3 14 15
f 3 15 2
f 2 15 16
f 19 20 26
f 26 20 21
f 26 21 25
f 25 21 22
f 25 22 24
f 24 22 23
f 27 28 34
f 34 28 29
f 34 29 33
f 33 29 30
f 33 30 32
f 32 30 31
f 36 37 35
f 35 37 38
f 40 41 39
f 39 41 42
f 44 58 43
f 43 58 60
f 59 51 50
f 50 51 52
f 50 52 49
f 49 52 53
f 49 53 48
f 48 53 54
f 48 54 47
f 47 54 55
f 47 55 46
f 46 55 56
f 46 56 45
f 45 56 57
f 45 57 44
f 44 57 58
f 62 63 61
f 61 63 64
f 66 67 65
f 65 67 68
f 69 70 76
f 76 70 71
f 76 71 75
f 75 71 72
f 75 72 74
f 74 72 73
f 77 78 84
f 84 78 79
f 84 79 83
f 83 79 80
f 83 80 82
f 82 80 81
f 86 87 85
f 85 87 88
f 90 91 89
f 89 91 92
f 94 134 93
f 93 134 136
f 135 114 113
f 113 114 115
f 113 115 112
f 112 115 116
f 112 116 111
f 111 116 117
f 111 117 110
f 110 117 118
f 110 118 109
f 109 118 119
f 109 119 108
f 108 119 120
f 108 120 107
f 107 120 121
f 107 121 106
f 106 121 122
f 106 122 105
f 105 122 123
f 105 123 104
f 104 123 124
f 104 124 103
f 103 124 125
f 103 125 102
f 102 125 126
f 102 126 101
f 101 126 127
f 101 127 100
f 100 127 128
f 100 128 99
f 99 128 129
f 99 129 98
f 98 129 130
f 98 130 97
f 97 130 131
f 97 131 96
f 96 131 132
f 96 132 95
f 95 132 133
f 95 133 94
f 94 133 134
f 138 139 137
f 137 139 140
f 142 143 141
f 141 143 144
f 145 146 152
f 152 146 147
f 152 147 148
f 152 148 151
f 151 148 149
f 151 149 150
f 154 155 153
f 153 155 156
f 158 159 157
f 157 159 160
f 162 197 161
f 161 197 198
f 161 198 181
f 181 198 199
f 181 199 180
f 180 199 200
f 180 200 179
f 179 200 201
f 179 201 178
f 178 201 202
f 178 202 177
f 177 202 204
f 177 204 176
f 203 182 183
f 203 183 175
f 175 183 184
f 175 184 174
f 174 184 185
f 174 185 173
f 173 185 186
f 173 186 172
f 172 186 187
f 172 187 171
f 171 187 188
f 171 188 170
f 170 188 189
f 170 189 169
f 169 189 190
f 169 190 168
f 168 190 191
f 168 191 167
f 167 191 192
f 167 192 166
f 166 192 193
f 166 193 165
f 165 193 194
f 165 194 164
f 164 194 195
f 164 195 163
f 163 195 196
f 163 196 162
f 162 196 197
f 205 206 212
f 212 206 207
f 212 207 211
f 211 207 208
f 211 208 210
f 210 208 209
f 214 215 213
f 213 215 216
f 217 218 224
f 224 218 219
f 224 219 223
f 223 219 220
f 223 220 222
f 222 220 221
f 226 227 225
f 225 227 228
f 230 231 229
f 229 231 232
f 234 275 233
f 276 259 260
f 276 260 253
f 253 260 261
f 253 261 252
f 252 261 262
f 252 262 251
f 251 262 263
f 251 263 250
f 250 263 264
f 250 264 249
f 249 264 265
f 249 265 248
f 248 265 266
f 248 266 247
f 247 266 267
f 247 267 246
f 246 267 268
f 246 268 245
f 245 268 269
f 245 269 244
f 244 269 270
f 244 270 243
f 243 270 271
f 243 271 242
f 242 271 272
f 242 272 241
f 241 272 273
f 241 273 240
f 240 273 274
f 240 274 239
f 239 274 254
f 239 254 238
f 238 254 255
f 238 255 237
f 237 255 256
f 237 256 236
f 236 256 257
f 236 257 235
f 235 257 258
f 235 258 234
f 234 258 275
f 278 279 277
f 277 279 280
f 281 282 288
f 288 282 283
f 288 283 287
f 287 283 284
f 287 284 286
f 286 284 285
f 290 291 289
f 289 291 292
f 293 294 300
f 300 294 295
f 300 295 299
f 299 295 296
f 299 296 298
f 298 296 297
f 302 303 301
f 301 303 304
f 306 307 305
f 305 307 308
f 310 331 309
f 309 331 332
f 309 332 333
f 331 310 330
f 330 310 311
f 330 311 337
f 337 311 312
f 337 312 343
f 343 312 342
f 342 312 313
f 342 313 341
f 341 313 314
f 341 314 340
f 340 314 315
f 340 315 339
f 339 315 338
f 338 315 316
f 338 316 345
f 345 316 317
f 345 317 351
f 351 317 350
f 350 317 318
f 350 318 349
f 349 318 319
f 349 319 348
f 348 319 320
f 348 320 347
f 347 320 321
f 347 321 346
f 346 321 322
f 346 322 353
f 353 322 355
f 353 355 356
f 355 322 368
f 368 322 323
f 368 323 367
f 367 323 324
f 367 324 366
f 366 324 365
f 365 324 325
f 365 325 364
f 364 325 326
f 364 326 363
f 363 326 327
f 363 327 370
f 370 327 335
f 370 335 362
f 362 335 361
f 361 335 336
f 361 336 360
f 360 336 337
f 360 337 343
f 327 328 335
f 335 328 334
f 334 328 329
f 334 329 333
f 333 329 309
f 360 343 359
f 359 343 344
f 359 344 358
f 358 344 345
f 358 345 357
f 357 345 351
f 357 351 352
f 357 352 356
f 356 352 353
f 362 354 369
f 369 354 355
f 369 355 368
f 370 362 369
f 372 373 371
f 371 373 374
f 376 377 375
f 375 377 378
f 379 380 386
f 386 380 381
f 386 381 385
f 385 381 382
f 385 382 384
f 384 382 383
f 387 388 394
f 394 388 389
f 394 389 393
f 393 389 390
f 393 390 392
f 392 390 391
f 396 397 395
f 395 397 398
f 400 401 399
f 399 401 402
f 403 404 406
f 406 404 405
f 408 422 407
f 407 422 424
f 423 415 414
f 414 415 416
f 414 416 413
f 413 416 417
f 413 417 412
f 412 417 418
f 412 418 411
f 411 418 419
f 411 419 410
f 410 419 420
f 410 420 409
f 409 420 421
f 409 421 408
f 408 421 422
f 425 426 432
f 432 426 427
f 432 427 431
f 431 427 428
f 431 428 430
f 430 428 429
f 433 434 436
f 436 434 435
f 437 438 440
f 440 438 439
f 442 443 441
f 441 443 444
f 445 446 452
f 452 446 447
f 452 447 451
f 451 447 448
f 451 448 450
f 450 448 449
f 454 455 453
f 453 455 456
f 458 459 457
f 457 459 460
f 461 462 464
f 464 462 463
f 466 507 465
f 465 507 508
f 465 508 509
f 507 466 506
f 506 466 467
f 506 467 489
f 489 467 488
f 488 467 468
f 488 468 487
f 487 468 469
f 487 469 526
f 526 469 533
f 533 469 470
f 533 470 532
f 532 470 471
f 532 471 531
f 531 471 530
f 530 471 472
f 530 472 501
f 501 472 500
f 500 472 473
f 500 473 474
f 475 525 474
f 474 525 518
f 474 518 499
f 499 518 519
f 499 519 498
f 498 519 520
f 498 520 521
f 525 475 524
f 524 475 476
f 524 476 523
f 523 476 477
f 523 477 522
f 522 477 497
f 522 497 521
f 521 497 498
f 497 477 496
f 496 477 478
f 496 478 479
f 480 510 479
f 479 510 495
f 479 495 496
f 481 516 480
f 480 516 517
f 480 517 510
f 516 481 515
f 515 481 482
f 515 482 514
f 514 482 493
f 514 493 513
f 513 493 494
f 513 494 512
f 512 494 511
f 511 494 495
f 511 495 510
f 482 483 493
f 493 483 492
f 492 483 484
f 492 484 491
f 491 484 502
f 491 502 503
f 484 485 502
f 502 485 509
f 509 485 465
f 487 527 486
f 486 527 528
f 486 528 529
f 506 489 505
f 505 489 490
f 505 490 504
f 504 490 503
f 503 490 491
f 499 500 474
f 530 501 529
f 529 501 486
f 526 527 487
f 535 549 534
f 534 549 551
f 550 542 541
f 541 542 543
f 541 543 540
f 540 543 544
f 540 544 539
f 539 544 545
f 539 545 538
f 538 545 546
f 538 546 537
f 537 546 547
f 537 547 536
f 536 547 548
f 536 548 535
f 535 548 549
f 553 554 552
f 552 554 555
f 556 557 559
f 559 557 558
f 561 562 560
f 560 562 563
f 564 565 567
f 567 565 566
f 568 569 575
f 575 569 570
f 575 570 574
f 574 570 571
f 574 571 573
f 573 571 572
f 577 578 576
f 576 578 579
f 581 582 580
f 580 582 583
f 584 585 587
f 587 585 586
f 589 619 588
f 588 619 621
f 620 604 603
f 603 604 605
f 603 605 602
f 602 605 606
f 602 606 601
f 601 606 607
f 601 607 600
f 600 607 608
f 600 608 599
f 599 608 609
f 599 609 598
f 598 609 610
f 598 610 597
f 597 610 611
f 597 611 596
f 596 611 612
f 596 612 595
f 595 612 613
f 595 613 594
f 594 613 614
f 594 614 593
f 593 614 615
f 593 615 592
f 592 615 616
f 592 616 591
f 591 616 617
f 591 617 590
f 590 617 618
f 590 618 589
f 589 618 619
f 623 639 622
f 622 639 641
f 640 631 630
f 630 631 632
f 630 632 629
f 629 632 633
f 629 633 628
f 628 633 634
f 628 634 627
f 627 634 635
f 627 635 626
f 626 635 636
f 626 636 625
f 625 636 637
f 625 637 624
f 624 637 638
f 624 638 623
f 623 638 639
f 643 644 642
f 642 644 645
f 646 647 649
f 649 647 648
f 650 651 657
f 657 651 652
f 657 652 656
f 656 652 653
f 656 653 655
f 655 653 654
f 659 660 658
f 658 660 661
f 662 663 669
f 669 663 664
f 669 664 668
f 668 664 665
f 668 665 667
f 667 665 666
f 671 672 670
f 670 672 673
f 675 676 674
f 674 676 677
f 678 679 681
f 681 679 680
f 683 715 682
f 714 710 711
f 714 711 697
f 697 711 712
f 697 712 696
f 696 712 713
f 696 713 695
f 695 713 698
f 695 698 694
f 694 698 699
f 694 699 693
f 693 699 700
f 693 700 692
f 692 700 701
f 692 701 691
f 691 701 702
f 691 702 690
f 690 702 703
f 690 703 689
f 689 703 704
f 689 704 688
f 688 704 705
f 688 705 687
f 687 705 706
f 687 706 686
f 686 706 707
f 686 707 685
f 685 707 708
f 685 708 684
f 684 708 709
f 684 709 683
f 683 709 715
f 716 717 723
f 723 717 718
f 723 718 722
f 722 718 719
f 722 719 721
f 721 719 720
f 724 725 727
f 727 725 726
f 729 730 728
f 728 730 731
f 732 733 739
f 739 733 734
f 739 734 738
f 738 734 735
f 738 735 737
f 737 735 736
f 741 742 740
f 740 742 743
f 745 746 744
f 744 746 747
f 748 749 751
f 751 749 750
f 753 868 752
f 752 868 869
f 752 869 870
f 754 862 753
f 753 862 863
f 753 863 864
f 755 855 754
f 754 855 856
f 754 856 857
f 756 849 755
f 755 849 850
f 755 850 851
f 757 843 756
f 756 843 844
f 756 844 845
f 758 836 757
f 757 836 837
f 757 837 838
f 759 831 758
f 758 831 832
f 758 832 833
f 760 824 759
f 759 824 825
f 759 825 826
f 761 818 760
f 760 818 819
f 760 819 820
f 762 811 761
f 761 811 812
f 761 812 813
f 763 806 762
f 762 806 807
f 762 807 808
f 764 799 763
f 763 799 800
f 763 800 801
f 765 793 764
f 764 793 794
f 764 794 795
f 766 787 765
f 765 787 788
f 765 788 789
f 767 780 766
f 766 780 781
f 766 781 782
f 752 774 767
f 767 774 775
f 767 775 776
f 871 768 752
f 752 768 769
f 752 769 770
f 770 771 752
f 752 771 772
f 752 772 773
f 773 774 752
f 776 777 767
f 767 777 778
f 767 778 779
f 779 780 767
f 782 783 766
f 766 783 784
f 766 784 785
f 785 786 766
f 766 786 787
f 789 790 765
f 765 790 791
f 765 791 792
f 792 793 765
f 795 796 764
f 764 796 797
f 764 797 798
f 798 799 764
f 801 802 763
f 763 802 803
f 763 803 804
f 804 805 763
f 763 805 806
f 808 809 762
f 762 809 810
f 762 810 811
f 813 814 761
f 761 814 815
f 761 815 816
f 816 817 761
f 761 817 818
f 820 821 760
f 760 821 822
f 760 822 823
f 823 824 760
f 826 827 759
f 759 827 828
f 759 828 829
f 829 830 759
f 759 830 831
f 833 834 758
f 758 834 835
f 758 835 836
f 838 839 757
f 757 839 840
f 757 840 841
f 841 842 757
f 757 842 843
f 845 846 756
f 756 846 847
f 756 847 848
f 848 849 756
f 851 852 755
f 755 852 853
f 755 853 854
f 854 855 755
f 857 858 754
f 754 858 859
f 754 859 860
f 860 861 754
f 754 861 862
f 864 865 753
f 753 865 866
f 753 866 867
f 867 868 753
f 870 871 752
f 873 874 872
f 872 874 875
f 876 877 879
f 879 877 878
f 880 881 883
f 883 881 882
f 884 885 887
f 887 885 886
f 888 889 895
f 895 889 890
f 895 890 894
f 894 890 891
f 894 891 893
f 893 891 892
f 897 898 896
f 896 898 899
f 901 902 900
f 900 902 903
f 904 905 907
f 907 905 906
f 909 910 908
f 908 910 911
f 913 914 912
f 912 914 915
f 917 918 916
f 916 918 919
f 920 921 927
f 927 921 922
f 927 922 926
f 926 922 923
f 926 923 925
f 925 923 924
f 928 929 935
f 935 929 930
f 935 930 934
f 934 930 931
f 934 931 933
f 933 931 932
f 937 938 936
f 936 938 939
f 941 942 940
f 940 942 943
f 944 945 947
f 947 945 946
f 948 949 955
f 955 949 950
f 955 950 954
f 954 950 951
f 954 951 953
f 953 951 952
f 956 957 963
f 963 957 958
f 963 958 962
f 962 958 959
f 962 959 961
f 961 959 960
f 965 966 964
f 964 966 967
f 968 969 975
f 975 969 970
f 975 970 974
f 974 970 971
f 974 971 973
f 973 971 972
f 977 978 976
f 976 978 979
f 981 982 980
f 980 982 983
f 984 985 987
f 987 985 986
f 1091 1104 1092
f 1105 988 989
f 1105 989 990
f 990 991 1105
f 1105 991 992
f 1105 992 993
f 993 994 1105
f 1105 994 1103
f 1103 994 995
f 1103 995 996
f 996 997 1103
f 1103 997 998
f 1103 998 999
f 999 1000 1103
f 1103 1000 1001
f 1103 1001 1002
f 1103 1002 1102
f 1102 1002 1003
f 1102 1003 1004
f 1004 1005 1102
f 1102 1005 1006
f 1102 1006 1007
f 1007 1008 1102
f 1102 1008 1009
f 1102 1009 1010
f 1102 1010 1101
f 1101 1010 1011
f 1101 1011 1012
f 1012 1013 1101
f 1101 1013 1014
f 1101 1014 1015
f 1015 1016 1101
f 1101 1016 1017
f 1101 1017 1018
f 1018 1019 1101
f 1101 1019 1020
f 1101 1020 1100
f 1100 1020 1021
f 1100 1021 1022
f 1022 1023 1100
f 1100 1023 1024
f 1100 1024 1025
f 1025 1026 1100
f 1100 1026 1027
f 1100 1027 1028
f 1100 1028 1099
f 1099 1028 1029
f 1099 1029 1030
f 1030 1031 1099
f 1099 1031 1032
f 1099 1032 1033
f 1033 1034 1099
f 1099 1034 1035
f 1099 1035 1036
f 1099 1036 1098
f 1098 1036 1037
f 1098 1037 1038
f 1038 1039 1098
f 1098 1039 1040
f 1098 1040 1041
f 1041 1042 1098
f 1098 1042 1043
f 1098 1043 1044
f 1044 1045 1098
f 1098 1045 1097
f 1097 1045 1046
f 1097 1046 1047
f 1047 1048 1097
f 1097 1048 1049
f 1097 1049 1050
f 1050 1051 1097
f 1097 1051 1052
f 1097 1052 1053
f 1097 1053 1096
f 1096 1053 1054
f 1096 1054 1055
f 1055 1056 1096
f 1096 1056 1057
f 1096 1057 1058
f 1058 1059 1096
f 1096 1059 1060
f 1096 1060 1061
f 1096 1061 1095
f 1095 1061 1062
f 1095 1062 1063
f 1063 1064 1095
f 1095 1064 1065
f 1095 1065 1066
f 1066 1067 1095
f 1095 1067 1068
f 1095 1068 1069
f 1095 1069 1094
f 1094 1069 1070
f 1094 1070 1071
f 1071 1072 1094
f 1094 1072 1073
f 1094 1073 1074
f 1074 1075 1094
f 1094 1075 1076
f 1094 1076 1077
f 1094 1077 1093
f 1093 1077 1078
f 1093 1078 1079
f 1079 1080 1093
f 1093 1080 1081
f 1093 1081 1082
f 1082 1083 1093
f 1093 1083 1084
f 1093 1084 1085
f 1093 1085 1092
f 1092 1085 1086
f 1092 1086 1087
f 1087 1088 1092
f 1092 1088 1089
f 1092 1089 1090
f 1090 1091 1092
f 1106 1107 1113
f 1113 1107 1108
f 1113 1108 1112
f 1112 1108 1109
f 1112 1109 1111
f 1111 1109 1110
f 1115 1260 1114
f 1114 1260 1261
f 1114 1261 1217
f 1217 1261 1216
f 1216 1261 1215
f 1215 1261 1262
f 1215 1262 1214
f 1214 1262 1213
f 1213 1262 1263
f 1213 1263 1264
f 1116 1258 1115
f 1115 1258 1259
f 1115 1259 1260
f 1258 1116 1257
f 1257 1116 1117
f 1257 1117 1256
f 1256 1117 1118
f 1256 1118 1119
f 1256 1119 1255
f 1255 1119 1120
f 1255 1120 1121
f 1122 1250 1121
f 1121 1250 1251
f 1121 1251 1252
f 1122 1123 1250
f 1250 1123 1249
f 1249 1123 1124
f 1249 1124 1125
f 1126 1244 1125
f 1125 1244 1245
f 1125 1245 1246
f 1126 1127 1244
f 1244 1127 1243
f 1243 1127 1128
f 1243 1128 1129
f 1130 1238 1129
f 1129 1238 1239
f 1129 1239 1240
f 1130 1131 1238
f 1238 1131 1237
f 1237 1131 1132
f 1237 1132 1133
f 1134 1232 1133
f 1133 1232 1233
f 1133 1233 1234
f 1134 1135 1232
f 1232 1135 1231
f 1231 1135 1136
f 1231 1136 1137
f 1138 1226 1137
f 1137 1226 1227
f 1137 1227 1228
f 1138 1139 1226
f 1226 1139 1225
f 1225 1139 1140
f 1225 1140 1141
f 1142 1220 1141
f 1141 1220 1221
f 1141 1221 1222
f 1142 1143 1220
f 1220 1143 1219
f 1219 1143 1144
f 1219 1144 1145
f 1146 1364 1145
f 1145 1364 1365
f 1145 1365 1366
f 1146 1147 1364
f 1364 1147 1363
f 1363 1147 1148
f 1363 1148 1149
f 1150 1358 1149
f 1149 1358 1359
f 1149 1359 1360
f 1150 1151 1358
f 1358 1151 1357
f 1357 1151 1152
f 1357 1152 1153
f 1154 1352 1153
f 1153 1352 1353
f 1153 1353 1354
f 1154 1155 1352
f 1352 1155 1351
f 1351 1155 1156
f 1351 1156 1157
f 1158 1346 1157
f 1157 1346 1347
f 1157 1347 1348
f 1158 1159 1346
f 1346 1159 1345
f 1345 1159 1160
f 1345 1160 1161
f 1162 1340 1161
f 1161 1340 1341
f 1161 1341 1342
f 1162 1163 1340
f 1340 1163 1339
f 1339 1163 1164
f 1339 1164 1165
f 1166 1334 1165
f 1165 1334 1335
f 1165 1335 1336
f 1166 1167 1334
f 1334 1167 1333
f 1333 1167 1168
f 1333 1168 1169
f 1170 1328 1169
f 1169 1328 1329
f 1169 1329 1330
f 1170 1171 1328
f 1328 1171 1327
f 1327 1171 1172
f 1327 1172 1173
f 1174 1322 1173
f 1173 1322 1323
f 1173 1323 1324
f 1174 1175 1322
f 1322 1175 1321
f 1321 1175 1176
f 1321 1176 1177
f 1178 1316 1177
f 1177 1316 1317
f 1177 1317 1318
f 1178 1179 1316
f 1316 1179 1315
f 1315 1179 1180
f 1315 1180 1181
f 1182 1310 1181
f 1181 1310 1311
f 1181 1311 1312
f 1182 1183 1310
f 1310 1183 1309
f 1309 1183 1184
f 1309 1184 1185
f 1186 1304 1185
f 1185 1304 1305
f 1185 1305 1306
f 1186 1187 1304
f 1304 1187 1303
f 1303 1187 1188
f 1303 1188 1189
f 1190 1298 1189
f 1189 1298 1299
f 1189 1299 1300
f 1190 1191 1298
f 1298 1191 1297
f 1297 1191 1192
f 1297 1192 1193
f 1194 1292 1193
f 1193 1292 1293
f 1193 1293 1294
f 1194 1195 1292
f 1292 1195 1291
f 1291 1195 1196
f 1291 1196 1197
f 1198 1286 1197
f 1197 1286 1287
f 1197 1287 1288
f 1198 1199 1286
f 1286 1199 1285
f 1285 1199 1200
f 1285 1200 1201
f 1202 1280 1201
f 1201 1280 1281
f 1201 1281 1282
f 1202 1203 1280
f 1280 1203 1279
f 1279 1203 1204
f 1279 1204 1205
f 1206 1274 1205
f 1205 1274 1275
f 1205 1275 1276
f 1206 1207 1274
f 1274 1207 1273
f 1273 1207 1208
f 1273 1208 1209
f 1210 1268 1209
f 1209 1268 1269
f 1209 1269 1270
f 1210 1211 1268
f 1268 1211 1267
f 1267 1211 1212
f 1267 1212 1213
f 1367 1218 1145
f 1145 1218 1219
f 1222 1223 1141
f 1141 1223 1224
f 1141 1224 1225
f 1228 1229 1137
f 1137 1229 1230
f 1137 1230 1231
f 1234 1235 1133
f 1133 1235 1236
f 1133 1236 1237
f 1240 1241 1129
f 1129 1241 1242
f 1129 1242 1243
f 1246 1247 1125
f 1125 1247 1248
f 1125 1248 1249
f 1252 1253 1121
f 1121 1253 1254
f 1121 1254 1255
f 1264 1265 1213
f 1213 1265 1266
f 1213 1266 1267
f 1270 1271 1209
f 1209 1271 1272
f 1209 1272 1273
f 1276 1277 1205
f 1205 1277 1278
f 1205 1278 1279
f 1282 1283 1201
f 1201 1283 1284
f 1201 1284 1285
f 1288 1289 1197
f 1197 1289 1290
f 1197 1290 1291
f 1294 1295 1193
f 1193 1295 1296
f 1193 1296 1297
f 1300 1301 1189
f 1189 1301 1302
f 1189 1302 1303
f 1306 1307 1185
f 1185 1307 1308
f 1185 1308 1309
f 1312 1313 1181
f 1181 1313 1314
f 1181 1314 1315
f 1318 1319 1177
f 1177 1319 1320
f 1177 1320 1321
f 1324 1325 1173
f 1173 1325 1326
f 1173 1326 1327
f 1330 1331 1169
f 1169 1331 1332
f 1169 1332 1333
f 1336 1337 1165
f 1165 1337 1338
f 1165 1338 1339
f 1342 1343 1161
f 1161 1343 1344
f 1161 1344 1345
f 1348 1349 1157
f 1157 1349 1350
f 1157 1350 1351
f 1354 1355 1153
f 1153 1355 1356
f 1153 1356 1357
f 1360 1361 1149
f 1149 1361 1362
f 1149 1362 1363
f 1366 1367 1145
f 1369 1370 1368
f 1368 1370 1371
f 1373 1374 1372
f 1372 1374 1375
f 1376 1377 1379
f 1379 1377 1378
f 1391 1380 1392
f 1392 1380 1381
f 1392 1381 1400
f 1400 1381 1382
f 1400 1382 1399
f 1399 1382 1383
f 1399 1383 1398
f 1398 1383 1384
f 1398 1384 1385
f 1398 1385 1397
f 1397 1385 1386
f 1397 1386 1396
f 1396 1386 1387
f 1396 1387 1395
f 1395 1387 1388
f 1395 1388 1389
f 1395 1389 1394
f 1394 1389 1390
f 1394 1390 1393
f 1393 1390 1391
f 1393 1391 1392
f 1402 1403 1401
f 1401 1403 1404
f 1406 1407 1405
f 1405 1407 1408
f 1409 1410 1412
f 1412 1410 1411
f 1414 1517 1413
f 1413 1517 1667
f 1668 1518 1519
f 1517 1414 1666
f 1666 1414 1415
f 1666 1415 1416
f 1666 1416 1665
f 1665 1416 1417
f 1665 1417 1664
f 1664 1417 1418
f 1664 1418 1663
f 1663 1418 1662
f 1662 1418 1661
f 1661 1418 1660
f 1660 1418 1419
f 1660 1419 1420
f 1660 1420 1659
f 1659 1420 1421
f 1659 1421 1658
f 1658 1421 1422
f 1658 1422 1657
f 1657 1422 1656
f 1656 1422 1655
f 1655 1422 1423
f 1655 1423 1654
f 1654 1423 1424
f 1654 1424 1653
f 1653 1424 1425
f 1653 1425 1652
f 1652 1425 1426
f 1652 1426 1651
f 1651 1426 1650
f 1650 1426 1649
f 1649 1426 1648
f 1648 1426 1427
f 1648 1427 1428
f 1648 1428 1647
f 1647 1428 1429
f 1647 1429 1646
f 1646 1429 1430
f 1646 1430 1645
f 1645 1430 1644
f 1644 1430 1643
f 1643 1430 1431
f 1643 1431 1642
f 1642 1431 1432
f 1642 1432 1641
f 1641 1432 1433
f 1641 1433 1640
f 1640 1433 1434
f 1640 1434 1639
f 1639 1434 1638
f 1638 1434 1637
f 1637 1434 1636
f 1636 1434 1435
f 1636 1435 1436
f 1636 1436 1635
f 1635 1436 1437
f 1635 1437 1634
f 1634 1437 1438
f 1634 1438 1633
f 1633 1438 1632
f 1632 1438 1631
f 1631 1438 1439
f 1631 1439 1630
f 1630 1439 1440
f 1630 1440 1629
f 1629 1440 1441
f 1629 1441 1628
f 1628 1441 1442
f 1628 1442 1627
f 1627 1442 1626
f 1626 1442 1625
f 1625 1442 1624
f 1624 1442 1443
f 1624 1443 1444
f 1624 1444 1623
f 1623 1444 1445
f 1623 1445 1622
f 1622 1445 1446
f 1622 1446 1621
f 1621 1446 1620
f 1620 1446 1619
f 1619 1446 1447
f 1619 1447 1618
f 1618 1447 1448
f 1618 1448 1617
f 1617 1448 1449
f 1617 1449 1616
f 1616 1449 1450
f 1616 1450 1615
f 1615 1450 1614
f 1614 1450 1613
f 1613 1450 1612
f 1612 1450 1451
f 1612 1451 1452
f 1612 1452 1611
f 1611 1452 1453
f 1611 1453 1610
f 1610 1453 1454
f 1610 1454 1609
f 1609 1454 1608
f 1608 1454 1607
f 1607 1454 1606
f 1606 1454 1455
f 1606 1455 1456
f 1606 1456 1605
f 1605 1456 1457
f 1605 1457 1604
f 1604 1457 1458
f 1604 1458 1603
f 1603 1458 1602
f 1602 1458 1601
f 1601 1458 1600
f 1600 1458 1459
f 1600 1459 1460
f 1600 1460 1599
f 1599 1460 1461
f 1599 1461 1598
f 1598 1461 1462
f 1598 1462 1597
f 1597 1462 1596
f 1596 1462 1595
f 1595 1462 1594
f 1594 1462 1463
f 1594 1463 1464
f 1594 1464 1593
f 1593 1464 1465
f 1593 1465 1592
f 1592 1465 1466
f 1592 1466 1591
f 1591 1466 1590
f 1590 1466 1589
f 1589 1466 1588
f 1588 1466 1467
f 1588 1467 1468
f 1588 1468 1587
f 1587 1468 1469
f 1587 1469 1586
f 1586 1469 1470
f 1586 1470 1585
f 1585 1470 1584
f 1584 1470 1583
f 1583 1470 1582
f 1582 1470 1471
f 1582 1471 1472
f 1582 1472 1581
f 1581 1472 1473
f 1581 1473 1580
f 1580 1473 1474
f 1580 1474 1579
f 1579 1474 1578
f 1578 1474 1577
f 1577 1474 1576
f 1576 1474 1475
f 1576 1475 1476
f 1576 1476 1575
f 1575 1476 1477
f 1575 1477 1574
f 1574 1477 1478
f 1574 1478 1573
f 1573 1478 1572
f 1572 1478 1571
f 1571 1478 1570
f 1570 1478 1479
f 1570 1479 1480
f 1570 1480 1569
f 1569 1480 1481
f 1569 1481 1482
f 1483 1564 1482
f 1482 1564 1565
f 1482 1565 1566
f 1483 1484 1564
f 1564 1484 1563
f 1563 1484 1485
f 1563 1485 1562
f 1562 1485 1486
f 1562 1486 1561
f 1561 1486 1560
f 1560 1486 1559
f 1559 1486 1558
f 1558 1486 1487
f 1558 1487 1488
f 1558 1488 1557
f 1557 1488 1489
f 1557 1489 1490
f 1491 1552 1490
f 1490 1552 1553
f 1490 1553 1554
f 1491 1492 1552
f 1552 1492 1551
f 1551 1492 1493
f 1551 1493 1550
f 1550 1493 1494
f 1550 1494 1549
f 1549 1494 1548
f 1548 1494 1547
f 1547 1494 1546
f 1546 1494 1495
f 1546 1495 1496
f 1546 1496 1545
f 1545 1496 1497
f 1545 1497 1498
f 1499 1540 1498
f 1498 1540 1541
f 1498 1541 1542
f 1499 1500 1540
f 1540 1500 1539
f 1539 1500 1501
f 1539 1501 1538
f 1538 1501 1502
f 1538 1502 1537
f 1537 1502 1536
f 1536 1502 1535
f 1535 1502 1534
f 1534 1502 1503
f 1534 1503 1504
f 1534 1504 1533
f 1533 1504 1505
f 1533 1505 1532
f 1532 1505 1506
f 1532 1506 1531
f 1531 1506 1530
f 1530 1506 1529
f 1529 1506 1528
f 1528 1506 1507
f 1528 1507 1508
f 1528 1508 1527
f 1527 1508 1509
f 1527 1509 1526
f 1526 1509 1510
f 1526 1510 1525
f 1525 1510 1524
f 1524 1510 1523
f 1523 1510 1522
f 1522 1510 1511
f 1522 1511 1512
f 1522 1512 1521
f 1521 1512 1513
f 1521 1513 1514
f 1514 1515 1521
f 1521 1515 1520
f 1520 1515 1516
f 1520 1516 1519
f 1519 1516 1668
f 1542 1543 1498
f 1498 1543 1544
f 1498 1544 1545
f 1554 1555 1490
f 1490 1555 1556
f 1490 1556 1557
f 1566 1567 1482
f 1482 1567 1568
f 1482 1568 1569
f 1669 1670 1672
f 1672 1670 1671
f 1673 1674 1676
f 1676 1674 1675
f 1677 1678 1680
f 1680 1678 1679
f 1681 1682 1684
f 1684 1682 1683
f 1685 1686 1688
f 1688 1686 1687
f 1689 1690 1692
f 1692 1690 1691
