v 0.066390153 0.018678438 0.071206257
v 0.066340153 0.018678438 0.071206257
v 0.066340153 0.018678438 0.072206257
v 0.066390153 0.018678438 0.072206257
v 0.066721861 0.018650006 0.072177825
v 0.066721861 0.01800687 0.072177825
v 0.066734886 0.018013272 0.072171423
v 0.066740153 0.018026797 0.072157898
v 0.066740153 0.018630079 0.072157898
v 0.066734886 0.018643604 0.072171423
v 0.066390153 0.017978438 0.071206257
v 0.066390153 0.018678438 0.071206257
v 0.066721861 0.018650006 0.071234689
v 0.066721861 0.01800687 0.071234689
v 0.066740153 0.018026797 0.072157898
v 0.066734886 0.018013272 0.072171423
v 0.066721861 0.01800687 0.072177825
v 0.066721861 0.01800687 0.071234689
v 0.066734886 0.018013272 0.071241091
v 0.066740153 0.018026797 0.071254616
v 0.066390153 0.017978438 0.072206257
v 0.066340153 0.017978438 0.072206257
v 0.066340153 0.017978438 0.071206257
v 0.066390153 0.017978438 0.071206257
v 0.066390153 0.017978438 0.071206257
v 0.066340153 0.017978438 0.071206257
v 0.066340153 0.018678438 0.071206257
v 0.066390153 0.018678438 0.071206257
v 0.066340153 0.017978438 0.072206257
v 0.066340153 0.018678438 0.072206257
v 0.066340153 0.018678438 0.071206257
v 0.066340153 0.017978438 0.071206257
v 0.066740153 0.018026797 0.071254616
v 0.066734886 0.018013272 0.071241091
v 0.066721861 0.01800687 0.071234689
v 0.066721861 0.018650006 0.071234689
v 0.066734886 0.018643604 0.071241091
v 0.066740153 0.018630079 0.071254616
v 0.066721861 0.018650006 0.071234689
v 0.066721861 0.018650006 0.072177825
v 0.066734886 0.018643604 0.072171423
v 0.066740153 0.018630079 0.072157898
v 0.066740153 0.018630079 0.071254616
v 0.066734886 0.018643604 0.071241091
v 0.066740153 0.018630079 0.071254616
v 0.066740153 0.018630079 0.072157898
v 0.066740153 0.018026797 0.072157898
v 0.066740153 0.018026797 0.071254616
v 0.066390153 0.018678438 0.071206257
v 0.066390153 0.018678438 0.072206257
v 0.066721861 0.018650006 0.072177825
v 0.066721861 0.018650006 0.071234689
v 0.066390153 0.017978438 0.072206257
v 0.066390153 0.017978438 0.071206257
v 0.066721861 0.01800687 0.071234689
v 0.066721861 0.01800687 0.072177825
v 0.066390153 0.018678438 0.072206257
v 0.066340153 0.018678438 0.072206257
v 0.066340153 0.017978438 0.072206257
v 0.066390153 0.017978438 0.072206257
v 0.066390153 0.018678438 0.072206257
v 0.066390153 0.017978438 0.072206257
v 0.066721861 0.01800687 0.072177825
v 0.066721861 0.018650006 0.072177825
f 1 2 4
f 4 2 3
f 5 6 10
f 10 6 7
f 10 7 9
f 9 7 8
f 11 12 14
f 14 12 13
f 20 15 19
f 19 15 16
f 19 16 18
f 18 16 17
f 21 22 24
f 24 22 23
f 25 26 28
f 28 26 27
f 30 31 29
f 29 31 32
f 38 33 37
f 37 33 34
f 37 34 36
f 36 34 35
f 39 40 44
f 44 40 41
f 44 41 43
f 43 41 42
f 45 46 48
f 48 46 47
f 50 51 49
f 49 51 52
f 53 54 56
f 56 54 55
f 57 58 60
f 60 58 59
f 62 63 61
f 61 63 64
