v -0.2323 1.1920934e-10 0.035300001
v -0.2323 0.18999999 0.035300001
v -0.2273 0.18999999 0.035300001
v -0.2273 1.1920934e-10 0.035300001
v -0.2323 0.18999999 0.043299998
v -0.2323 1.1920934e-10 0.043299998
v -0.2273 1.1920934e-10 0.043299998
v -0.2273 0.18999999 0.043299998
v -0.2323 0.18999999 0.035300001
v -0.2323 1.1920934e-10 0.035300001
v -0.2323 1.1920934e-10 0.043299998
v -0.2323 0.18999999 0.043299998
v -0.2323 1.1920934e-10 0.035300001
v -0.2273 1.1920934e-10 0.035300001
v -0.2273 1.1920934e-10 0.043299998
v -0.2323 1.1920934e-10 0.043299998
v -0.2273 1.1920934e-10 0.035300001
v -0.2273 0.18999999 0.035300001
v -0.2273 0.18999999 0.043299998
v -0.2273 1.1920934e-10 0.043299998
v -0.2273 0.18999999 0.035300001
v -0.2323 0.18999999 0.035300001
v -0.2323 0.18999999 0.043299998
v -0.2273 0.18999999 0.043299998
f 2 3 1
f 1 3 4
f 6 7 5
f 5 7 8
f 9 10 12
f 12 10 11
f 13 14 16
f 16 14 15
f 17 18 20
f 20 18 19
f 21 22 24
f 24 22 23
v -0.014000005 1.1920934e-10 0.035300001
v -0.014000005 0.18999999 0.035300001
v -0.0090000046 0.18999999 0.035300001
v -0.0090000046 1.1920934e-10 0.035300001
v -0.014000005 0.18999999 0.043299998
v -0.014000005 1.1920934e-10 0.043299998
v -0.0090000046 1.1920934e-10 0.043299998
v -0.0090000046 0.18999999 0.043299998
v -0.014000005 0.18999999 0.035300001
v -0.014000005 1.1920934e-10 0.035300001
v -0.014000005 1.1920934e-10 0.043299998
v -0.014000005 0.18999999 0.043299998
v -0.014000005 1.1920934e-10 0.035300001
v -0.0090000046 1.1920934e-10 0.035300001
v -0.0090000046 1.1920934e-10 0.043299998
v -0.014000005 1.1920934e-10 0.043299998
v -0.0090000046 1.1920934e-10 0.035300001
v -0.0090000046 0.18999999 0.035300001
v -0.0090000046 0.18999999 0.043299998
v -0.0090000046 1.1920934e-10 0.043299998
v -0.0090000046 0.18999999 0.035300001
v -0.014000005 0.18999999 0.035300001
v -0.014000005 0.18999999 0.043299998
v -0.0090000046 0.18999999 0.043299998
f 26 27 25
f 25 27 28
f 30 31 29
f 29 31 32
f 33 34 36
f 36 34 35
f 37 38 40
f 40 38 39
f 41 42 44
f 44 42 43
f 45 46 48
f 48 46 47
v -0.18805 0.031925001 0.0563
v -0.18805 0.152075 0.0563
v -0.22425 0.152075 0.0563
v -0.22425 0.031925001 0.0563
v -0.20765 0.0271 0.16929999
v -0.21015 0.027 0.17330001
v -0.23015 0.027 0.17330001
v -0.22615 0.03 0.053299998
v -0.18615 0.03 0.053299998
v -0.18215 0.027 0.17330001
v -0.20215 0.027 0.17330001
v -0.20465 0.0271 0.16929999
v -0.21015 0.15499999 0.17330001
v -0.21015 0.157 0.17330001
v -0.23015 0.157 0.17330001
v -0.23015 0.027 0.17330001
v -0.21015 0.027 0.17330001
v -0.21015 0.029 0.17330001
v -0.22815 0.029 0.17330001
v -0.22815 0.15499999 0.17330001
v -0.20215 0.15499999 0.17330001
v -0.20465 0.15490001 0.16929999
v -0.20765 0.15490001 0.16929999
v -0.21015 0.15499999 0.17330001
v -0.22815 0.15499999 0.17330001
v -0.22425 0.152075 0.0563
v -0.18805 0.152075 0.0563
v -0.18415 0.15499999 0.17330001
v -0.21015 0.029 0.17330001
v -0.20765 0.0291 0.16929999
v -0.20465 0.0291 0.16929999
v -0.20215 0.029 0.17330001
v -0.18415 0.029 0.17330001
v -0.18805 0.031925001 0.0563
v -0.22425 0.031925001 0.0563
v -0.22815 0.029 0.17330001
v -0.20465 0.15490001 0.16929999
v -0.20215 0.15499999 0.17330001
v -0.20215 0.157 0.17330001
v -0.20465 0.1569 0.16929999
v -0.20765 0.15490001 0.16929999
v -0.20465 0.15490001 0.16929999
v -0.20465 0.1569 0.16929999
v -0.20765 0.1569 0.16929999
v -0.20465 0.0291 0.16929999
v -0.20765 0.0291 0.16929999
v -0.20765 0.0271 0.16929999
v -0.20465 0.0271 0.16929999
v -0.20215 0.029 0.17330001
v -0.20465 0.0291 0.16929999
v -0.20465 0.0271 0.16929999
v -0.20215 0.027 0.17330001
v -0.21015 0.15499999 0.17330001
v -0.20765 0.15490001 0.16929999
v -0.20765 0.1569 0.16929999
v -0.21015 0.157 0.17330001
v -0.20765 0.0291 0.16929999
v -0.21015 0.029 0.17330001
v -0.21015 0.027 0.17330001
v -0.20765 0.0271 0.16929999
v -0.18615 0.03 0.053299998
v -0.18615 0.15400001 0.053299998
v -0.18215 0.157 0.17330001
v -0.18215 0.027 0.17330001
v -0.22615 0.15400001 0.053299998
v -0.22615 0.03 0.053299998
v -0.23015 0.027 0.17330001
v -0.23015 0.157 0.17330001
v -0.18615 0.15400001 0.053299998
v -0.18615 0.03 0.053299998
v -0.22615 0.03 0.053299998
v -0.22615 0.15400001 0.053299998
v -0.22425 0.031925001 0.0563
v -0.22425 0.152075 0.0563
v -0.22815 0.15499999 0.17330001
v -0.22815 0.029 0.17330001
v -0.18805 0.152075 0.0563
v -0.18805 0.031925001 0.0563
v -0.18415 0.029 0.17330001
v -0.18415 0.15499999 0.17330001
v -0.20465 0.1569 0.16929999
v -0.20215 0.157 0.17330001
v -0.18215 0.157 0.17330001
v -0.18615 0.15400001 0.053299998
v -0.22615 0.15400001 0.053299998
v -0.23015 0.157 0.17330001
v -0.21015 0.157 0.17330001
v -0.20765 0.1569 0.16929999
v -0.20215 0.157 0.17330001
v -0.20215 0.15499999 0.17330001
v -0.18415 0.15499999 0.17330001
v -0.18415 0.029 0.17330001
v -0.20215 0.029 0.17330001
v -0.20215 0.027 0.17330001
v -0.18215 0.027 0.17330001
v -0.18215 0.157 0.17330001
f 50 51 49
f 49 51 52
f 54 55 53
f 53 55 56
f 53 56 60
f 60 56 57
f 60 57 58
f 58 59 60
f 61 62 68
f 68 62 63
f 68 63 64
f 68 64 67
f 67 64 65
f 67 65 66
f 69 70 76
f 76 70 75
f 75 70 74
f 74 70 71
f 74 71 73
f 73 71 72
f 77 78 84
f 84 78 83
f 83 78 79
f 83 79 82
f 82 79 81
f 81 79 80
f 85 86 88
f 88 86 87
f 89 90 92
f 92 90 91
f 93 94 96
f 96 94 95
f 98 99 97
f 97 99 100
f 102 103 101
f 101 103 104
f 105 106 108
f 108 106 107
f 109 110 112
f 112 110 111
f 114 115 113
f 113 115 116
f 118 119 117
f 117 119 120
f 121 122 124
f 124 122 123
f 126 127 125
f 125 127 128
f 130 131 129
f 129 131 132
f 129 132 133
f 129 133 136
f 136 133 134
f 136 134 135
f 138 139 137
f 137 139 144
f 144 139 143
f 143 139 140
f 143 140 142
f 142 140 141
v -0.13105 0.031925001 0.0563
v -0.13105 0.152075 0.0563
v -0.16725 0.152075 0.0563
v -0.16725 0.031925001 0.0563
v -0.15065 0.0271 0.16929999
v -0.15315 0.027 0.17330001
v -0.17315 0.027 0.17330001
v -0.16915 0.03 0.053299998
v -0.12915 0.03 0.053299998
v -0.12515 0.027 0.17330001
v -0.14515 0.027 0.17330001
v -0.14765 0.0271 0.16929999
v -0.15315 0.15499999 0.17330001
v -0.15315 0.157 0.17330001
v -0.17315 0.157 0.17330001
v -0.17315 0.027 0.17330001
v -0.15315 0.027 0.17330001
v -0.15315 0.029 0.17330001
v -0.17115 0.029 0.17330001
v -0.17115 0.15499999 0.17330001
v -0.14515 0.15499999 0.17330001
v -0.14765 0.15490001 0.16929999
v -0.15065 0.15490001 0.16929999
v -0.15315 0.15499999 0.17330001
v -0.17115 0.15499999 0.17330001
v -0.16725 0.152075 0.0563
v -0.13105 0.152075 0.0563
v -0.12715 0.15499999 0.17330001
v -0.15315 0.029 0.17330001
v -0.15065 0.0291 0.16929999
v -0.14765 0.0291 0.16929999
v -0.14515 0.029 0.17330001
v -0.12715 0.029 0.17330001
v -0.13105 0.031925001 0.0563
v -0.16725 0.031925001 0.0563
v -0.17115 0.029 0.17330001
v -0.14765 0.15490001 0.16929999
v -0.14515 0.15499999 0.17330001
v -0.14515 0.157 0.17330001
v -0.14765 0.1569 0.16929999
v -0.15065 0.15490001 0.16929999
v -0.14765 0.15490001 0.16929999
v -0.14765 0.1569 0.16929999
v -0.15065 0.1569 0.16929999
v -0.14765 0.0291 0.16929999
v -0.15065 0.0291 0.16929999
v -0.15065 0.0271 0.16929999
v -0.14765 0.0271 0.16929999
v -0.14515 0.029 0.17330001
v -0.14765 0.0291 0.16929999
v -0.14765 0.0271 0.16929999
v -0.14515 0.027 0.17330001
v -0.15315 0.15499999 0.17330001
v -0.15065 0.15490001 0.16929999
v -0.15065 0.1569 0.16929999
v -0.15315 0.157 0.17330001
v -0.15065 0.0291 0.16929999
v -0.15315 0.029 0.17330001
v -0.15315 0.027 0.17330001
v -0.15065 0.0271 0.16929999
v -0.12915 0.03 0.053299998
v -0.12915 0.15400001 0.053299998
v -0.12515 0.157 0.17330001
v -0.12515 0.027 0.17330001
v -0.16915 0.15400001 0.053299998
v -0.16915 0.03 0.053299998
v -0.17315 0.027 0.17330001
v -0.17315 0.157 0.17330001
v -0.12915 0.15400001 0.053299998
v -0.12915 0.03 0.053299998
v -0.16915 0.03 0.053299998
v -0.16915 0.15400001 0.053299998
v -0.16725 0.031925001 0.0563
v -0.16725 0.152075 0.0563
v -0.17115 0.15499999 0.17330001
v -0.17115 0.029 0.17330001
v -0.13105 0.152075 0.0563
v -0.13105 0.031925001 0.0563
v -0.12715 0.029 0.17330001
v -0.12715 0.15499999 0.17330001
v -0.14765 0.1569 0.16929999
v -0.14515 0.157 0.17330001
v -0.12515 0.157 0.17330001
v -0.12915 0.15400001 0.053299998
v -0.16915 0.15400001 0.053299998
v -0.17315 0.157 0.17330001
v -0.15315 0.157 0.17330001
v -0.15065 0.1569 0.16929999
v -0.14515 0.157 0.17330001
v -0.14515 0.15499999 0.17330001
v -0.12715 0.15499999 0.17330001
v -0.12715 0.029 0.17330001
v -0.14515 0.029 0.17330001
v -0.14515 0.027 0.17330001
v -0.12515 0.027 0.17330001
v -0.12515 0.157 0.17330001
f 146 147 145
f 145 147 148
f 150 151 149
f 149 151 152
f 149 152 156
f 156 152 153
f 156 153 154
f 154 155 156
f 157 158 164
f 164 158 159
f 164 159 160
f 164 160 163
f 163 160 161
f 163 161 162
f 165 166 172
f 172 166 171
f 171 166 170
f 170 166 167
f 170 167 169
f 169 167 168
f 173 174 180
f 180 174 179
f 179 174 175
f 179 175 178
f 178 175 177
f 177 175 176
f 181 182 184
f 184 182 183
f 185 186 188
f 188 186 187
f 189 190 192
f 192 190 191
f 194 195 193
f 193 195 196
f 198 199 197
f 197 199 200
f 201 202 204
f 204 202 203
f 205 206 208
f 208 206 207
f 210 211 209
f 209 211 212
f 214 215 213
f 213 215 216
f 217 218 220
f 220 218 219
f 222 223 221
f 221 223 224
f 226 227 225
f 225 227 228
f 225 228 229
f 225 229 232
f 232 229 230
f 232 230 231
f 234 235 233
f 233 235 240
f 240 235 239
f 239 235 236
f 239 236 238
f 238 236 237
v -0.074049996 0.031925001 0.0563
v -0.074049996 0.152075 0.0563
v -0.11025 0.152075 0.0563
v -0.11025 0.031925001 0.0563
v -0.093649997 0.0271 0.16929999
v -0.096149997 0.027 0.17330001
v -0.11615 0.027 0.17330001
v -0.11215 0.03 0.053299998
v -0.072149991 0.03 0.053299998
v -0.068149995 0.027 0.17330001
v -0.088150004 0.027 0.17330001
v -0.090650004 0.0271 0.16929999
v -0.096149997 0.15499999 0.17330001
v -0.096149997 0.157 0.17330001
v -0.11615 0.157 0.17330001
v -0.11615 0.027 0.17330001
v -0.096149997 0.027 0.17330001
v -0.096149997 0.029 0.17330001
v -0.11415 0.029 0.17330001
v -0.11415 0.15499999 0.17330001
v -0.088150004 0.15499999 0.17330001
v -0.090650004 0.15490001 0.16929999
v -0.093649997 0.15490001 0.16929999
v -0.096149997 0.15499999 0.17330001
v -0.11415 0.15499999 0.17330001
v -0.11025 0.152075 0.0563
v -0.074049996 0.152075 0.0563
v -0.070150002 0.15499999 0.17330001
v -0.096149997 0.029 0.17330001
v -0.093649997 0.0291 0.16929999
v -0.090650004 0.0291 0.16929999
v -0.088150004 0.029 0.17330001
v -0.070150002 0.029 0.17330001
v -0.074049996 0.031925001 0.0563
v -0.11025 0.031925001 0.0563
v -0.11415 0.029 0.17330001
v -0.090650004 0.15490001 0.16929999
v -0.088150004 0.15499999 0.17330001
v -0.088150004 0.157 0.17330001
v -0.090650004 0.1569 0.16929999
v -0.093649997 0.15490001 0.16929999
v -0.090650004 0.15490001 0.16929999
v -0.090650004 0.1569 0.16929999
v -0.093649997 0.1569 0.16929999
v -0.090650004 0.0291 0.16929999
v -0.093649997 0.0291 0.16929999
v -0.093649997 0.0271 0.16929999
v -0.090650004 0.0271 0.16929999
v -0.088150004 0.029 0.17330001
v -0.090650004 0.0291 0.16929999
v -0.090650004 0.0271 0.16929999
v -0.088150004 0.027 0.17330001
v -0.096149997 0.15499999 0.17330001
v -0.093649997 0.15490001 0.16929999
v -0.093649997 0.1569 0.16929999
v -0.096149997 0.157 0.17330001
v -0.093649997 0.0291 0.16929999
v -0.096149997 0.029 0.17330001
v -0.096149997 0.027 0.17330001
v -0.093649997 0.0271 0.16929999
v -0.072149991 0.03 0.053299998
v -0.072149991 0.15400001 0.053299998
v -0.068149995 0.157 0.17330001
v -0.068149995 0.027 0.17330001
v -0.11215 0.15400001 0.053299998
v -0.11215 0.03 0.053299998
v -0.11615 0.027 0.17330001
v -0.11615 0.157 0.17330001
v -0.072149991 0.15400001 0.053299998
v -0.072149991 0.03 0.053299998
v -0.11215 0.03 0.053299998
v -0.11215 0.15400001 0.053299998
v -0.11025 0.031925001 0.0563
v -0.11025 0.152075 0.0563
v -0.11415 0.15499999 0.17330001
v -0.11415 0.029 0.17330001
v -0.074049996 0.152075 0.0563
v -0.074049996 0.031925001 0.0563
v -0.070150002 0.029 0.17330001
v -0.070150002 0.15499999 0.17330001
v -0.090650004 0.1569 0.16929999
v -0.088150004 0.157 0.17330001
v -0.068149995 0.157 0.17330001
v -0.072149991 0.15400001 0.053299998
v -0.11215 0.15400001 0.053299998
v -0.11615 0.157 0.17330001
v -0.096149997 0.157 0.17330001
v -0.093649997 0.1569 0.16929999
v -0.088150004 0.157 0.17330001
v -0.088150004 0.15499999 0.17330001
v -0.070150002 0.15499999 0.17330001
v -0.070150002 0.029 0.17330001
v -0.088150004 0.029 0.17330001
v -0.088150004 0.027 0.17330001
v -0.068149995 0.027 0.17330001
v -0.068149995 0.157 0.17330001
f 242 243 241
f 241 243 244
f 246 247 245
f 245 247 248
f 245 248 252
f 252 248 249
f 252 249 250
f 250 251 252
f 253 254 260
f 260 254 255
f 260 255 256
f 260 256 259
f 259 256 257
f 259 257 258
f 261 262 268
f 268 262 267
f 267 262 266
f 266 262 263
f 266 263 265
f 265 263 264
f 269 270 276
f 276 270 275
f 275 270 271
f 275 271 274
f 274 271 273
f 273 271 272
f 277 278 280
f 280 278 279
f 281 282 284
f 284 282 283
f 285 286 288
f 288 286 287
f 290 291 289
f 289 291 292
f 294 295 293
f 293 295 296
f 297 298 300
f 300 298 299
f 301 302 304
f 304 302 303
f 306 307 305
f 305 307 308
f 310 311 309
f 309 311 312
f 313 314 316
f 316 314 315
f 318 319 317
f 317 319 320
f 322 323 321
f 321 323 324
f 321 324 325
f 321 325 328
f 328 325 326
f 328 326 327
f 330 331 329
f 329 331 336
f 336 331 335
f 335 331 332
f 335 332 334
f 334 332 333
v -0.017050008 0.031925001 0.0563
v -0.017050008 0.152075 0.0563
v -0.053249997 0.152075 0.0563
v -0.053249997 0.031925001 0.0563
v -0.036649998 0.0271 0.16929999
v -0.039149998 0.027 0.17330001
v -0.059149998 0.027 0.17330001
v -0.055150002 0.03 0.053299998
v -0.015150002 0.03 0.053299998
v -0.011150006 0.027 0.17330001
v -0.031150006 0.027 0.17330001
v -0.033650006 0.0271 0.16929999
v -0.039149998 0.15499999 0.17330001
v -0.039149998 0.157 0.17330001
v -0.059149998 0.157 0.17330001
v -0.059149998 0.027 0.17330001
v -0.039149998 0.027 0.17330001
v -0.039149998 0.029 0.17330001
v -0.057149991 0.029 0.17330001
v -0.057149991 0.15499999 0.17330001
v -0.031150006 0.15499999 0.17330001
v -0.033650006 0.15490001 0.16929999
v -0.036649998 0.15490001 0.16929999
v -0.039149998 0.15499999 0.17330001
v -0.057149991 0.15499999 0.17330001
v -0.053249997 0.152075 0.0563
v -0.017050008 0.152075 0.0563
v -0.013149995 0.15499999 0.17330001
v -0.039149998 0.029 0.17330001
v -0.036649998 0.0291 0.16929999
v -0.033650006 0.0291 0.16929999
v -0.031150006 0.029 0.17330001
v -0.013149995 0.029 0.17330001
v -0.017050008 0.031925001 0.0563
v -0.053249997 0.031925001 0.0563
v -0.057149991 0.029 0.17330001
v -0.033650006 0.15490001 0.16929999
v -0.031150006 0.15499999 0.17330001
v -0.031150006 0.157 0.17330001
v -0.033650006 0.1569 0.16929999
v -0.036649998 0.15490001 0.16929999
v -0.033650006 0.15490001 0.16929999
v -0.033650006 0.1569 0.16929999
v -0.036649998 0.1569 0.16929999
v -0.033650006 0.0291 0.16929999
v -0.036649998 0.0291 0.16929999
v -0.036649998 0.0271 0.16929999
v -0.033650006 0.0271 0.16929999
v -0.031150006 0.029 0.17330001
v -0.033650006 0.0291 0.16929999
v -0.033650006 0.0271 0.16929999
v -0.031150006 0.027 0.17330001
v -0.039149998 0.15499999 0.17330001
v -0.036649998 0.15490001 0.16929999
v -0.036649998 0.1569 0.16929999
v -0.039149998 0.157 0.17330001
v -0.036649998 0.0291 0.16929999
v -0.039149998 0.029 0.17330001
v -0.039149998 0.027 0.17330001
v -0.036649998 0.0271 0.16929999
v -0.015150002 0.03 0.053299998
v -0.015150002 0.15400001 0.053299998
v -0.011150006 0.157 0.17330001
v -0.011150006 0.027 0.17330001
v -0.055150002 0.15400001 0.053299998
v -0.055150002 0.03 0.053299998
v -0.059149998 0.027 0.17330001
v -0.059149998 0.157 0.17330001
v -0.015150002 0.15400001 0.053299998
v -0.015150002 0.03 0.053299998
v -0.055150002 0.03 0.053299998
v -0.055150002 0.15400001 0.053299998
v -0.053249997 0.031925001 0.0563
v -0.053249997 0.152075 0.0563
v -0.057149991 0.15499999 0.17330001
v -0.057149991 0.029 0.17330001
v -0.017050008 0.152075 0.0563
v -0.017050008 0.031925001 0.0563
v -0.013149995 0.029 0.17330001
v -0.013149995 0.15499999 0.17330001
v -0.033650006 0.1569 0.16929999
v -0.031150006 0.157 0.17330001
v -0.011150006 0.157 0.17330001
v -0.015150002 0.15400001 0.053299998
v -0.055150002 0.15400001 0.053299998
v -0.059149998 0.157 0.17330001
v -0.039149998 0.157 0.17330001
v -0.036649998 0.1569 0.16929999
v -0.031150006 0.157 0.17330001
v -0.031150006 0.15499999 0.17330001
v -0.013149995 0.15499999 0.17330001
v -0.013149995 0.029 0.17330001
v -0.031150006 0.029 0.17330001
v -0.031150006 0.027 0.17330001
v -0.011150006 0.027 0.17330001
v -0.011150006 0.157 0.17330001
f 338 339 337
f 337 339 340
f 342 343 341
f 341 343 344
f 341 344 348
f 348 344 345
f 348 345 346
f 346 347 348
f 349 350 356
f 356 350 351
f 356 351 352
f 356 352 355
f 355 352 353
f 355 353 354
f 357 358 364
f 364 358 363
f 363 358 362
f 362 358 359
f 362 359 361
f 361 359 360
f 365 366 372
f 372 366 371
f 371 366 367
f 371 367 370
f 370 367 369
f 369 367 368
f 373 374 376
f 376 374 375
f 377 378 380
f 380 378 379
f 381 382 384
f 384 382 383
f 386 387 385
f 385 387 388
f 390 391 389
f 389 391 392
f 393 394 396
f 396 394 395
f 397 398 400
f 400 398 399
f 402 403 401
f 401 403 404
f 406 407 405
f 405 407 408
f 409 410 412
f 412 410 411
f 414 415 413
f 413 415 416
f 418 419 417
f 417 419 420
f 417 420 421
f 417 421 424
f 424 421 422
f 424 422 423
f 426 427 425
f 425 427 432
f 432 427 431
f 431 427 428
f 431 428 430
f 430 428 429
v -0.2413 -0.008 0.0163
v -0.2413 1.1920934e-10 0.0163
v -8.3923339e-09 1.1920934e-10 0.0163
v -8.3923339e-09 -0.008 0.0163
v -0.2413 1.1920934e-10 0.1845
v -0.2413 -0.008 0.1845
v -8.3923339e-09 -0.008 0.1845
v -8.3923339e-09 1.1920934e-10 0.1845
v -0.2413 1.1920934e-10 0.0163
v -0.2413 -0.008 0.0163
v -0.2413 -0.008 0.1845
v -0.2413 1.1920934e-10 0.1845
v -0.2413 -0.008 0.0163
v -8.3923339e-09 -0.008 0.0163
v -8.3923339e-09 -0.008 0.1845
v -0.2413 -0.008 0.1845
v -8.3923339e-09 -0.008 0.0163
v -8.3923339e-09 1.1920934e-10 0.0163
v -8.3923339e-09 1.1920934e-10 0.1845
v -8.3923339e-09 -0.008 0.1845
v -8.3923339e-09 1.1920934e-10 0.0163
v -0.2413 1.1920934e-10 0.0163
v -0.2413 1.1920934e-10 0.1845
v -8.3923339e-09 1.1920934e-10 0.1845
f 434 435 433
f 433 435 436
f 438 439 437
f 437 439 440
f 441 442 444
f 444 442 443
f 445 446 448
f 448 446 447
f 449 450 452
f 452 450 451
f 453 454 456
f 456 454 455
