v -0.012000002 0.024999992 0.0036000001
v -0.0042057743 0.020500004 0.0036000001
v -0.0042057743 0.011500008 0.0036000001
v -0.012000002 0.007 0.0036000001
v -0.012000002 0.007 0.0072000003
v -0.0042057743 0.011500008 0.0072000003
v -0.0042057743 0.020500004 0.0072000003
v -0.012000002 0.024999992 0.0072000003
v 0.012000004 -0.039000004 0.0036000001
v 0.012000004 -0.034499996 0.0036000001
v 0.012000004 -0.034499996 0.0072000003
v 0.012000004 -0.039000004 0.0072000003
v 0.088999992 -0.029499996 0.0036000001
v 0.012000004 -0.029499996 0.0036000001
v 0.012000004 -0.029499996 0.0072000003
v 0.088999992 -0.029499996 0.0072000003
v -0.089 -0.1255 0.0036000001
v -0.089 -0.098500002 0.0036000001
v -0.089 -0.098500002 0.0072000003
v -0.089 -0.1255 0.0072000003
v -0.089 -0.034499996 0.0036000001
v -0.012000002 -0.034499996 0.0036000001
v -0.012000002 -0.034499996 0.0072000003
v -0.089 -0.034499996 0.0072000003
v -0.089 0.066500008 0.0036000001
v -0.089 0.093499996 0.0036000001
v -0.089 0.093499996 0.0072000003
v -0.089 0.066500008 0.0072000003
v -0.089 -0.1305 0.0036000001
v -0.012000002 -0.1305 0.0036000001
v -0.012000002 -0.1305 0.0072000003
v -0.089 -0.1305 0.0072000003
v -0.012000002 -0.098500002 0.0036000001
v -0.012000002 -0.103 0.0036000001
v -0.012000002 -0.103 0.0072000003
v -0.012000002 -0.098500002 0.0072000003
v -0.012000002 0.070999996 0.0036000001
v -0.0042057743 0.075500004 0.0036000001
v -0.0042057743 0.0845 0.0036000001
v -0.012000002 0.089000008 0.0036000001
v -0.012000002 0.093499996 0.0036000001
v -0.089 0.093499996 0.0036000001
v -0.089 0.066500008 0.0036000001
v -0.012000002 0.066500008 0.0036000001
v -0.089 0.15749999 0.0036000001
v -0.012000002 0.15749999 0.0036000001
v -0.012000002 0.15749999 0.0072000003
v -0.089 0.15749999 0.0072000003
v 0.012000004 -0.056999996 0.0036000001
v 0.0042057667 -0.052499998 0.0036000001
v 0.0042057667 -0.043500002 0.0036000001
v 0.012000004 -0.039000004 0.0036000001
v 0.012000004 -0.039000004 0.0072000003
v 0.0042057667 -0.043500002 0.0072000003
v 0.0042057667 -0.052499998 0.0072000003
v 0.012000004 -0.056999996 0.0072000003
v 0.012000004 -0.103 0.0036000001
v 0.012000004 -0.098500002 0.0036000001
v 0.012000004 -0.098500002 0.0072000003
v 0.012000004 -0.103 0.0072000003
v 0.012000004 -0.071000002 0.0036000001
v 0.0042057667 -0.0755 0.0036000001
v 0.0042057667 -0.084499996 0.0036000001
v 0.012000004 -0.089000004 0.0036000001
v 0.012000004 -0.093500002 0.0036000001
v 0.088999992 -0.093500002 0.0036000001
v 0.088999992 -0.066500004 0.0036000001
v 0.012000004 -0.066500004 0.0036000001
v 0.088999992 0.15749999 0.0036000001
v 0.088999992 0.1305 0.0036000001
v 0.088999992 0.1305 0.0072000003
v 0.088999992 0.15749999 0.0072000003
v 0.012000004 -0.0025000076 0.0036000001
v 0.088999992 -0.0025000076 0.0036000001
v 0.088999992 -0.0025000076 0.0072000003
v 0.012000004 -0.0025000076 0.0072000003
v 0.012000004 0.15299998 0.0036000001
v 0.012000004 0.15749999 0.0036000001
v 0.012000004 0.15749999 0.0072000003
v 0.012000004 0.15299998 0.0072000003
v 0.10399999 -0.1705 0
v 0.10399999 0.17049998 0
v 0.10399999 0.17049998 0.0072000003
v 0.10399999 -0.1705 0.0072000003
v 0.088999992 0.098499996 0.0036000001
v 0.012000004 0.098499996 0.0036000001
v 0.012000004 0.098499996 0.0072000003
v 0.088999992 0.098499996 0.0072000003
v 0.012000004 0.0295 0.0036000001
v 0.088999992 0.0295 0.0036000001
v 0.088999992 0.0295 0.0072000003
v 0.012000004 0.0295 0.0072000003
v -0.012000002 0.007 0.0036000001
v -0.012000002 0.0024999924 0.0036000001
v -0.012000002 0.0024999924 0.0072000003
v -0.012000002 0.007 0.0072000003
v -0.012000002 -0.0025000076 0.0036000001
v -0.012000002 -0.0069999962 0.0036000001
v -0.012000002 -0.0069999962 0.0072000003
v -0.012000002 -0.0025000076 0.0072000003
v -0.012000002 0.089000008 0.0036000001
v -0.0042057743 0.0845 0.0036000001
v -0.0042057743 0.075500004 0.0036000001
v -0.012000002 0.070999996 0.0036000001
v -0.012000002 0.070999996 0.0072000003
v -0.0042057743 0.075500004 0.0072000003
v -0.0042057743 0.0845 0.0072000003
v -0.012000002 0.089000008 0.0072000003
v 0.012000004 0.1255 0.0036000001
v 0.088999992 0.1255 0.0036000001
v 0.088999992 0.1255 0.0072000003
v 0.012000004 0.1255 0.0072000003
v 0.012000004 0.15749999 0.0036000001
v 0.088999992 0.15749999 0.0036000001
v 0.088999992 0.15749999 0.0072000003
v 0.012000004 0.15749999 0.0072000003
v 0.088999992 -0.098500002 0.0036000001
v 0.088999992 -0.1255 0.0036000001
v 0.088999992 -0.1255 0.0072000003
v 0.088999992 -0.098500002 0.0072000003
v -0.012000002 0.1305 0.0036000001
v -0.089 0.1305 0.0036000001
v -0.089 0.1305 0.0072000003
v -0.012000002 0.1305 0.0072000003
v 0.088999992 -0.066500004 0.0036000001
v 0.088999992 -0.093500002 0.0036000001
v 0.088999992 -0.093500002 0.0072000003
v 0.088999992 -0.066500004 0.0072000003
v 0.012000004 0.093499996 0.0036000001
v 0.088999992 0.093499996 0.0036000001
v 0.088999992 0.093499996 0.0072000003
v 0.012000004 0.093499996 0.0072000003
v -0.012000002 -0.121 0.0036000001
v -0.012000002 -0.1255 0.0036000001
v -0.012000002 -0.1255 0.0072000003
v -0.012000002 -0.121 0.0072000003
v -0.012000002 -0.135 0.0036000001
v -0.0042057743 -0.1395 0.0036000001
v -0.0042057743 -0.1485 0.0036000001
v -0.012000002 -0.153 0.0036000001
v -0.012000002 -0.153 0.0072000003
v -0.0042057743 -0.1485 0.0072000003
v -0.0042057743 -0.1395 0.0072000003
v -0.012000002 -0.135 0.0072000003
v -0.012000002 -0.1575 0.0036000001
v -0.089 -0.1575 0.0036000001
v -0.089 -0.1575 0.0072000003
v -0.012000002 -0.1575 0.0072000003
v -0.012000002 0.070999996 0.0036000001
v -0.012000002 0.066500008 0.0036000001
v -0.012000002 0.066500008 0.0072000003
v -0.012000002 0.070999996 0.0072000003
v -0.104 -0.1705 0
v -0.104 0.17049998 0
v 0.10399999 0.17049998 0
v 0.10399999 -0.1705 0
v 0.012000004 0.103 0.0036000001
v 0.0042057667 0.10749999 0.0036000001
v 0.0042057667 0.11650001 0.0036000001
v 0.012000004 0.121 0.0036000001
v 0.012000004 0.121 0.0072000003
v 0.0042057667 0.11650001 0.0072000003
v 0.0042057667 0.10749999 0.0072000003
v 0.012000004 0.103 0.0072000003
v 0.012000004 0.121 0.0036000001
v 0.0042057667 0.11650001 0.0036000001
v 0.0042057667 0.10749999 0.0036000001
v 0.012000004 0.103 0.0036000001
v 0.012000004 0.098499996 0.0036000001
v 0.088999992 0.098499996 0.0036000001
v 0.088999992 0.1255 0.0036000001
v 0.012000004 0.1255 0.0036000001
v -0.089 0.1255 0.0036000001
v -0.012000002 0.1255 0.0036000001
v -0.012000002 0.1255 0.0072000003
v -0.089 0.1255 0.0072000003
v 0.012000004 0.039000008 0.0036000001
v 0.0042057667 0.043499996 0.0036000001
v 0.0042057667 0.052499992 0.0036000001
v 0.012000004 0.057 0.0036000001
v 0.012000004 0.057 0.0072000003
v 0.0042057667 0.052499992 0.0072000003
v 0.0042057667 0.043499996 0.0072000003
v 0.012000004 0.039000008 0.0072000003
v 0.088999992 0.061500008 0.0036000001
v 0.088999992 0.0345 0.0036000001
v 0.088999992 0.0345 0.0072000003
v 0.088999992 0.061500008 0.0072000003
v -0.089 0.0295 0.0036000001
v -0.012000002 0.0295 0.0036000001
v -0.012000002 0.0295 0.0072000003
v -0.089 0.0295 0.0072000003
v 0.012000004 -0.034499996 0.0036000001
v 0.088999992 -0.034499996 0.0036000001
v 0.088999992 -0.034499996 0.0072000003
v 0.012000004 -0.034499996 0.0072000003
v -0.089 0.061500008 0.0036000001
v -0.012000002 0.061500008 0.0036000001
v -0.012000002 0.061500008 0.0072000003
v -0.089 0.061500008 0.0072000003
v -0.089 0.0345 0.0036000001
v -0.089 0.061500008 0.0036000001
v -0.089 0.061500008 0.0072000003
v -0.089 0.0345 0.0072000003
v -0.012000002 0.061500008 0.0036000001
v -0.012000002 0.057 0.0036000001
v -0.012000002 0.057 0.0072000003
v -0.012000002 0.061500008 0.0072000003
v -0.012000002 0.039000008 0.0036000001
v -0.0042057743 0.043499996 0.0036000001
v -0.0042057743 0.052499992 0.0036000001
v -0.012000002 0.057 0.0036000001
v -0.012000002 0.061500008 0.0036000001
v -0.089 0.061500008 0.0036000001
v -0.089 0.0345 0.0036000001
v -0.012000002 0.0345 0.0036000001
v -0.089 0.0024999924 0.0036000001
v -0.089 0.0295 0.0036000001
v -0.089 0.0295 0.0072000003
v -0.089 0.0024999924 0.0072000003
v -0.012000002 0.0295 0.0036000001
v -0.012000002 0.024999992 0.0036000001
v -0.012000002 0.024999992 0.0072000003
v -0.012000002 0.0295 0.0072000003
v -0.012000002 0.007 0.0036000001
v -0.0042057743 0.011500008 0.0036000001
v -0.0042057743 0.020500004 0.0036000001
v -0.012000002 0.024999992 0.0036000001
v -0.012000002 0.0295 0.0036000001
v -0.089 0.0295 0.0036000001
v -0.089 0.0024999924 0.0036000001
v -0.012000002 0.0024999924 0.0036000001
v -0.089 -0.0025000076 0.0036000001
v -0.012000002 -0.0025000076 0.0036000001
v -0.012000002 -0.0025000076 0.0072000003
v -0.089 -0.0025000076 0.0072000003
v -0.012000002 -0.093500002 0.0036000001
v -0.089 -0.093500002 0.0036000001
v -0.089 -0.093500002 0.0072000003
v -0.012000002 -0.093500002 0.0072000003
v -0.012000002 -0.071000002 0.0036000001
v -0.0042057743 -0.0755 0.0036000001
v -0.0042057743 -0.084499996 0.0036000001
v -0.012000002 -0.089000004 0.0036000001
v -0.012000002 -0.089000004 0.0072000003
v -0.0042057743 -0.084499996 0.0072000003
v -0.0042057743 -0.0755 0.0072000003
v -0.012000002 -0.071000002 0.0072000003
v -0.012000002 0.057 0.0036000001
v -0.0042057743 0.052499992 0.0036000001
v -0.0042057743 0.043499996 0.0036000001
v -0.012000002 0.039000008 0.0036000001
v -0.012000002 0.039000008 0.0072000003
v -0.0042057743 0.043499996 0.0072000003
v -0.0042057743 0.052499992 0.0072000003
v -0.012000002 0.057 0.0072000003
v 0.012000004 0.024999992 0.0036000001
v 0.0042057667 0.020500004 0.0036000001
v 0.0042057667 0.011500008 0.0036000001
v 0.012000004 0.007 0.0036000001
v 0.012000004 0.0024999924 0.0036000001
v 0.088999992 0.0024999924 0.0036000001
v 0.088999992 0.0295 0.0036000001
v 0.012000004 0.0295 0.0036000001
v -0.012000002 -0.056999996 0.0036000001
v -0.012000002 -0.061500004 0.0036000001
v -0.012000002 -0.061500004 0.0072000003
v -0.012000002 -0.056999996 0.0072000003
v 0.012000004 0.057 0.0036000001
v 0.012000004 0.061500008 0.0036000001
v 0.012000004 0.061500008 0.0072000003
v 0.012000004 0.057 0.0072000003
v -0.012000002 -0.121 0.0036000001
v -0.0042057743 -0.1165 0.0036000001
v -0.0042057743 -0.1075 0.0036000001
v -0.012000002 -0.103 0.0036000001
v -0.012000002 -0.098500002 0.0036000001
v -0.089 -0.098500002 0.0036000001
v -0.089 -0.1255 0.0036000001
v -0.012000002 -0.1255 0.0036000001
v 0.012000004 -0.121 0.0036000001
v 0.0042057667 -0.1165 0.0036000001
v 0.0042057667 -0.1075 0.0036000001
v 0.012000004 -0.103 0.0036000001
v 0.012000004 -0.103 0.0072000003
v 0.0042057667 -0.1075 0.0072000003
v 0.0042057667 -0.1165 0.0072000003
v 0.012000004 -0.121 0.0072000003
v 0.012000004 -0.098500002 0.0036000001
v 0.088999992 -0.098500002 0.0036000001
v 0.088999992 -0.098500002 0.0072000003
v 0.012000004 -0.098500002 0.0072000003
v 0.012000004 0.024999992 0.0036000001
v 0.012000004 0.0295 0.0036000001
v 0.012000004 0.0295 0.0072000003
v 0.012000004 0.024999992 0.0072000003
v 0.012000004 0.0345 0.0036000001
v 0.012000004 0.039000008 0.0036000001
v 0.012000004 0.039000008 0.0072000003
v 0.012000004 0.0345 0.0072000003
v -0.089 0.093499996 0.0036000001
v -0.012000002 0.093499996 0.0036000001
v -0.012000002 0.093499996 0.0072000003
v -0.089 0.093499996 0.0072000003
v -0.012000002 0.1255 0.0036000001
v -0.012000002 0.121 0.0036000001
v -0.012000002 0.121 0.0072000003
v -0.012000002 0.1255 0.0072000003
v -0.012000002 0.15749999 0.0036000001
v -0.012000002 0.15299998 0.0036000001
v -0.012000002 0.15299998 0.0072000003
v -0.012000002 0.15749999 0.0072000003
v -0.012000002 -0.024999998 0.0036000001
v -0.0042057743 -0.0205 0.0036000001
v -0.0042057743 -0.011500004 0.0036000001
v -0.012000002 -0.0069999962 0.0036000001
v -0.012000002 -0.0025000076 0.0036000001
v -0.089 -0.0025000076 0.0036000001
v -0.089 -0.029499996 0.0036000001
v -0.012000002 -0.029499996 0.0036000001
v 0.012000004 0.089000008 0.0036000001
v 0.0042057667 0.0845 0.0036000001
v 0.0042057667 0.075500004 0.0036000001
v 0.012000004 0.070999996 0.0036000001
v 0.012000004 0.066500008 0.0036000001
v 0.088999992 0.066500008 0.0036000001
v 0.088999992 0.093499996 0.0036000001
v 0.012000004 0.093499996 0.0036000001
v -0.012000002 0.13499999 0.0036000001
v -0.012000002 0.1305 0.0036000001
v -0.012000002 0.1305 0.0072000003
v -0.012000002 0.13499999 0.0072000003
v 0.012000004 0.098499996 0.0036000001
v 0.012000004 0.103 0.0036000001
v 0.012000004 0.103 0.0072000003
v 0.012000004 0.098499996 0.0072000003
v -0.089 -0.1575 0.0036000001
v -0.089 -0.1305 0.0036000001
v -0.089 -0.1305 0.0072000003
v -0.089 -0.1575 0.0072000003
v -0.104 0.17049998 0
v -0.104 -0.1705 0
v -0.104 -0.1705 0.0072000003
v -0.104 0.17049998 0.0072000003
v 0.012000004 0.1305 0.0036000001
v 0.012000004 0.13499999 0.0036000001
v 0.012000004 0.13499999 0.0072000003
v 0.012000004 0.1305 0.0072000003
v 0.012000004 0.057 0.0036000001
v 0.0042057667 0.052499992 0.0036000001
v 0.0042057667 0.043499996 0.0036000001
v 0.012000004 0.039000008 0.0036000001
v 0.012000004 0.0345 0.0036000001
v 0.088999992 0.0345 0.0036000001
v 0.088999992 0.061500008 0.0036000001
v 0.012000004 0.061500008 0.0036000001
v 0.10399999 0.17049998 0
v -0.104 0.17049998 0
v -0.104 0.17049998 0.0072000003
v 0.10399999 0.17049998 0.0072000003
v 0.088999992 -0.034499996 0.0036000001
v 0.088999992 -0.061500004 0.0036000001
v 0.088999992 -0.061500004 0.0072000003
v 0.088999992 -0.034499996 0.0072000003
v 0.012000004 -0.1575 0.0036000001
v 0.012000004 -0.153 0.0036000001
v 0.012000004 -0.153 0.0072000003
v 0.012000004 -0.1575 0.0072000003
v 0.088999992 0.1255 0.0036000001
v 0.088999992 0.098499996 0.0036000001
v 0.088999992 0.098499996 0.0072000003
v 0.088999992 0.1255 0.0072000003
v -0.012000002 0.066500008 0.0036000001
v -0.089 0.066500008 0.0036000001
v -0.089 0.066500008 0.0072000003
v -0.012000002 0.066500008 0.0072000003
v 0.012000004 0.15299998 0.0036000001
v 0.0042057667 0.1485 0.0036000001
v 0.0042057667 0.1395 0.0036000001
v 0.012000004 0.13499999 0.0036000001
v 0.012000004 0.1305 0.0036000001
v 0.088999992 0.1305 0.0036000001
v 0.088999992 0.15749999 0.0036000001
v 0.012000004 0.15749999 0.0036000001
v 0.012000004 -0.071000002 0.0036000001
v 0.012000004 -0.066500004 0.0036000001
v 0.012000004 -0.066500004 0.0072000003
v 0.012000004 -0.071000002 0.0072000003
v 0.012000004 -0.0069999962 0.0036000001
v 0.012000004 -0.0025000076 0.0036000001
v 0.012000004 -0.0025000076 0.0072000003
v 0.012000004 -0.0069999962 0.0072000003
v -0.012000002 0.121 0.0036000001
v -0.0042057743 0.11650001 0.0036000001
v -0.0042057743 0.10749999 0.0036000001
v -0.012000002 0.103 0.0036000001
v -0.012000002 0.103 0.0072000003
v -0.0042057743 0.10749999 0.0072000003
v -0.0042057743 0.11650001 0.0072000003
v -0.012000002 0.121 0.0072000003
v 0.012000004 -0.093500002 0.0036000001
v 0.012000004 -0.089000004 0.0036000001
v 0.012000004 -0.089000004 0.0072000003
v 0.012000004 -0.093500002 0.0072000003
v 0.088999992 -0.093500002 0.0036000001
v 0.012000004 -0.093500002 0.0036000001
v 0.012000004 -0.093500002 0.0072000003
v 0.088999992 -0.093500002 0.0072000003
v 0.012000004 0.066500008 0.0036000001
v 0.012000004 0.070999996 0.0036000001
v 0.012000004 0.070999996 0.0072000003
v 0.012000004 0.066500008 0.0072000003
v -0.012000002 0.039000008 0.0036000001
v -0.012000002 0.0345 0.0036000001
v -0.012000002 0.0345 0.0072000003
v -0.012000002 0.039000008 0.0072000003
v -0.012000002 -0.153 0.0036000001
v -0.012000002 -0.1575 0.0036000001
v -0.012000002 -0.1575 0.0072000003
v -0.012000002 -0.153 0.0072000003
v -0.089 -0.061500004 0.0036000001
v -0.089 -0.034499996 0.0036000001
v -0.089 -0.034499996 0.0072000003
v -0.089 -0.061500004 0.0072000003
v 0.088999992 0.066500008 0.0036000001
v 0.012000004 0.066500008 0.0036000001
v 0.012000004 0.066500008 0.0072000003
v 0.088999992 0.066500008 0.0072000003
v 0.012000004 0.061500008 0.0036000001
v 0.088999992 0.061500008 0.0036000001
v 0.088999992 0.061500008 0.0072000003
v 0.012000004 0.061500008 0.0072000003
v 0.012000004 0.121 0.0036000001
v 0.012000004 0.1255 0.0036000001
v 0.012000004 0.1255 0.0072000003
v 0.012000004 0.121 0.0072000003
v 0.012000004 -0.0069999962 0.0036000001
v 0.0042057667 -0.011500004 0.0036000001
v 0.0042057667 -0.0205 0.0036000001
v 0.012000004 -0.024999998 0.0036000001
v 0.012000004 -0.029499996 0.0036000001
v 0.088999992 -0.029499996 0.0036000001
v 0.088999992 -0.0025000076 0.0036000001
v 0.012000004 -0.0025000076 0.0036000001
v 0.088999992 -0.0025000076 0.0036000001
v 0.088999992 -0.029499996 0.0036000001
v 0.088999992 -0.029499996 0.0072000003
v 0.088999992 -0.0025000076 0.0072000003
v 0.012000004 -0.089000004 0.0036000001
v 0.0042057667 -0.084499996 0.0036000001
v 0.0042057667 -0.0755 0.0036000001
v 0.012000004 -0.071000002 0.0036000001
v 0.012000004 -0.071000002 0.0072000003
v 0.0042057667 -0.0755 0.0072000003
v 0.0042057667 -0.084499996 0.0072000003
v 0.012000004 -0.089000004 0.0072000003
v 0.012000004 -0.1255 0.0036000001
v 0.012000004 -0.121 0.0036000001
v 0.012000004 -0.121 0.0072000003
v 0.012000004 -0.1255 0.0072000003
v 0.012000004 -0.039000004 0.0036000001
v 0.0042057667 -0.043500002 0.0036000001
v 0.0042057667 -0.052499998 0.0036000001
v 0.012000004 -0.056999996 0.0036000001
v 0.012000004 -0.061500004 0.0036000001
v 0.088999992 -0.061500004 0.0036000001
v 0.088999992 -0.034499996 0.0036000001
v 0.012000004 -0.034499996 0.0036000001
v -0.012000002 0.15299998 0.0036000001
v -0.0042057743 0.1485 0.0036000001
v -0.0042057743 0.1395 0.0036000001
v -0.012000002 0.13499999 0.0036000001
v -0.012000002 0.13499999 0.0072000003
v -0.0042057743 0.1395 0.0072000003
v -0.0042057743 0.1485 0.0072000003
v -0.012000002 0.15299998 0.0072000003
v -0.012000002 0.093499996 0.0036000001
v -0.012000002 0.089000008 0.0036000001
v -0.012000002 0.089000008 0.0072000003
v -0.012000002 0.093499996 0.0072000003
v 0.012000004 0.007 0.0036000001
v 0.0042057667 0.011500008 0.0036000001
v 0.0042057667 0.020500004 0.0036000001
v 0.012000004 0.024999992 0.0036000001
v 0.012000004 0.024999992 0.0072000003
v 0.0042057667 0.020500004 0.0072000003
v 0.0042057667 0.011500008 0.0072000003
v 0.012000004 0.007 0.0072000003
v -0.012000002 -0.056999996 0.0036000001
v -0.0042057743 -0.052499998 0.0036000001
v -0.0042057743 -0.043500002 0.0036000001
v -0.012000002 -0.039000004 0.0036000001
v -0.012000002 -0.034499996 0.0036000001
v -0.089 -0.034499996 0.0036000001
v -0.089 -0.061500004 0.0036000001
v -0.012000002 -0.061500004 0.0036000001
v 0.012000004 0.098499996 0.0072000003
v 0.012000004 0.103 0.0072000003
v 0.0042057667 0.10749999 0.0072000003
v 0.0042057667 0.11650001 0.0072000003
v 0.012000004 0.121 0.0072000003
v 0.012000004 0.1255 0.0072000003
v 0.088999992 0.1255 0.0072000003
v 0.088999992 0.098499996 0.0072000003
v 0.012000004 0.0345 0.0072000003
v 0.012000004 0.039000008 0.0072000003
v 0.0042057667 0.043499996 0.0072000003
v 0.0042057667 0.052499992 0.0072000003
v 0.012000004 0.057 0.0072000003
v 0.012000004 0.061500008 0.0072000003
v 0.088999992 0.061500008 0.0072000003
v 0.088999992 0.0345 0.0072000003
v 0.012000004 -0.029499996 0.0072000003
v 0.012000004 -0.024999998 0.0072000003
v 0.0042057667 -0.0205 0.0072000003
v 0.0042057667 -0.011500004 0.0072000003
v 0.012000004 -0.0069999962 0.0072000003
v 0.012000004 -0.0025000076 0.0072000003
v 0.088999992 -0.0025000076 0.0072000003
v 0.088999992 -0.029499996 0.0072000003
v 0.012000004 -0.093500002 0.0072000003
v 0.012000004 -0.089000004 0.0072000003
v 0.0042057667 -0.084499996 0.0072000003
v 0.0042057667 -0.0755 0.0072000003
v 0.012000004 -0.071000002 0.0072000003
v 0.012000004 -0.066500004 0.0072000003
v 0.088999992 -0.066500004 0.0072000003
v 0.088999992 -0.093500002 0.0072000003
v 0.012000004 -0.1575 0.0072000003
v 0.012000004 -0.153 0.0072000003
v 0.0042057667 -0.1485 0.0072000003
v 0.0042057667 -0.1395 0.0072000003
v 0.012000004 -0.135 0.0072000003
v 0.012000004 -0.1305 0.0072000003
v 0.088999992 -0.1305 0.0072000003
v 0.088999992 -0.1575 0.0072000003
v -0.012000002 0.103 0.0072000003
v -0.012000002 0.098499996 0.0072000003
v -0.089 0.098499996 0.0072000003
v -0.089 0.1255 0.0072000003
v -0.012000002 0.1255 0.0072000003
v -0.012000002 0.121 0.0072000003
v -0.0042057743 0.11650001 0.0072000003
v -0.0042057743 0.10749999 0.0072000003
v -0.104 0.17049998 0.0072000003
v -0.104 -0.1705 0.0072000003
v 0.10399999 -0.1705 0.0072000003
v 0.10399999 0.17049998 0.0072000003
v -0.012000002 -0.153 0.0072000003
v -0.012000002 -0.1575 0.0072000003
v -0.089 -0.1575 0.0072000003
v -0.089 -0.1305 0.0072000003
v -0.012000002 -0.1305 0.0072000003
v -0.012000002 -0.135 0.0072000003
v -0.0042057743 -0.1395 0.0072000003
v -0.0042057743 -0.1485 0.0072000003
v -0.012000002 -0.121 0.0072000003
v -0.012000002 -0.1255 0.0072000003
v -0.089 -0.1255 0.0072000003
v -0.089 -0.098500002 0.0072000003
v -0.012000002 -0.098500002 0.0072000003
v -0.012000002 -0.103 0.0072000003
v -0.0042057743 -0.1075 0.0072000003
v -0.0042057743 -0.1165 0.0072000003
v -0.012000002 -0.089000004 0.0072000003
v -0.012000002 -0.093500002 0.0072000003
v -0.089 -0.093500002 0.0072000003
v -0.089 -0.066500004 0.0072000003
v -0.012000002 -0.066500004 0.0072000003
v -0.012000002 -0.071000002 0.0072000003
v -0.0042057743 -0.0755 0.0072000003
v -0.0042057743 -0.084499996 0.0072000003
v -0.012000002 -0.056999996 0.0072000003
v -0.012000002 -0.061500004 0.0072000003
v -0.089 -0.061500004 0.0072000003
v -0.089 -0.034499996 0.0072000003
v -0.012000002 -0.034499996 0.0072000003
v -0.012000002 -0.039000004 0.0072000003
v -0.0042057743 -0.043500002 0.0072000003
v -0.0042057743 -0.052499998 0.0072000003
v -0.012000002 -0.024999998 0.0072000003
v -0.012000002 -0.029499996 0.0072000003
v -0.089 -0.029499996 0.0072000003
v -0.089 -0.0025000076 0.0072000003
v -0.012000002 -0.0025000076 0.0072000003
v -0.012000002 -0.0069999962 0.0072000003
v -0.0042057743 -0.011500004 0.0072000003
v -0.0042057743 -0.0205 0.0072000003
v -0.012000002 0.007 0.0072000003
v -0.012000002 0.0024999924 0.0072000003
v -0.089 0.0024999924 0.0072000003
v -0.089 0.0295 0.0072000003
v -0.012000002 0.0295 0.0072000003
v -0.012000002 0.024999992 0.0072000003
v -0.0042057743 0.020500004 0.0072000003
v -0.0042057743 0.011500008 0.0072000003
v -0.012000002 0.039000008 0.0072000003
v -0.012000002 0.0345 0.0072000003
v -0.089 0.0345 0.0072000003
v -0.089 0.061500008 0.0072000003
v -0.012000002 0.061500008 0.0072000003
v -0.012000002 0.057 0.0072000003
v -0.0042057743 0.052499992 0.0072000003
v -0.0042057743 0.043499996 0.0072000003
v -0.012000002 0.070999996 0.0072000003
v -0.012000002 0.066500008 0.0072000003
v -0.089 0.066500008 0.0072000003
v -0.089 0.093499996 0.0072000003
v -0.012000002 0.093499996 0.0072000003
v -0.012000002 0.089000008 0.0072000003
v -0.0042057743 0.0845 0.0072000003
v -0.0042057743 0.075500004 0.0072000003
v -0.012000002 0.13499999 0.0072000003
v -0.012000002 0.1305 0.0072000003
v -0.089 0.1305 0.0072000003
v -0.089 0.15749999 0.0072000003
v -0.012000002 0.15749999 0.0072000003
v -0.012000002 0.15299998 0.0072000003
v -0.0042057743 0.1485 0.0072000003
v -0.0042057743 0.1395 0.0072000003
v 0.012000004 -0.1255 0.0072000003
v 0.012000004 -0.121 0.0072000003
v 0.0042057667 -0.1165 0.0072000003
v 0.0042057667 -0.1075 0.0072000003
v 0.012000004 -0.103 0.0072000003
v 0.012000004 -0.098500002 0.0072000003
v 0.088999992 -0.098500002 0.0072000003
v 0.088999992 -0.1255 0.0072000003
v 0.012000004 -0.061500004 0.0072000003
v 0.012000004 -0.056999996 0.0072000003
v 0.0042057667 -0.052499998 0.0072000003
v 0.0042057667 -0.043500002 0.0072000003
v 0.012000004 -0.039000004 0.0072000003
v 0.012000004 -0.034499996 0.0072000003
v 0.088999992 -0.034499996 0.0072000003
v 0.088999992 -0.061500004 0.0072000003
v 0.012000004 0.0024999924 0.0072000003
v 0.012000004 0.007 0.0072000003
v 0.0042057667 0.011500008 0.0072000003
v 0.0042057667 0.020500004 0.0072000003
v 0.012000004 0.024999992 0.0072000003
v 0.012000004 0.0295 0.0072000003
v 0.088999992 0.0295 0.0072000003
v 0.088999992 0.0024999924 0.0072000003
v 0.012000004 0.066500008 0.0072000003
v 0.012000004 0.070999996 0.0072000003
v 0.0042057667 0.075500004 0.0072000003
v 0.0042057667 0.0845 0.0072000003
v 0.012000004 0.089000008 0.0072000003
v 0.012000004 0.093499996 0.0072000003
v 0.088999992 0.093499996 0.0072000003
v 0.088999992 0.066500008 0.0072000003
v 0.012000004 0.1305 0.0072000003
v 0.012000004 0.13499999 0.0072000003
v 0.0042057667 0.1395 0.0072000003
v 0.0042057667 0.1485 0.0072000003
v 0.012000004 0.15299998 0.0072000003
v 0.012000004 0.15749999 0.0072000003
v 0.088999992 0.15749999 0.0072000003
v 0.088999992 0.1305 0.0072000003
v 0.088999992 -0.061500004 0.0036000001
v 0.012000004 -0.061500004 0.0036000001
v 0.012000004 -0.061500004 0.0072000003
v 0.088999992 -0.061500004 0.0072000003
v 0.012000004 -0.066500004 0.0036000001
v 0.088999992 -0.066500004 0.0036000001
v 0.088999992 -0.066500004 0.0072000003
v 0.012000004 -0.066500004 0.0072000003
v 0.012000004 -0.061500004 0.0036000001
v 0.012000004 -0.056999996 0.0036000001
v 0.012000004 -0.056999996 0.0072000003
v 0.012000004 -0.061500004 0.0072000003
v -0.012000002 -0.024999998 0.0036000001
v -0.012000002 -0.029499996 0.0036000001
v -0.012000002 -0.029499996 0.0072000003
v -0.012000002 -0.024999998 0.0072000003
v -0.089 -0.029499996 0.0036000001
v -0.089 -0.0025000076 0.0036000001
v -0.089 -0.0025000076 0.0072000003
v -0.089 -0.029499996 0.0072000003
v -0.012000002 -0.103 0.0036000001
v -0.0042057743 -0.1075 0.0036000001
v -0.0042057743 -0.1165 0.0036000001
v -0.012000002 -0.121 0.0036000001
v -0.012000002 -0.121 0.0072000003
v -0.0042057743 -0.1165 0.0072000003
v -0.0042057743 -0.1075 0.0072000003
v -0.012000002 -0.103 0.0072000003
v 0.012000004 -0.135 0.0036000001
v 0.012000004 -0.1305 0.0036000001
v 0.012000004 -0.1305 0.0072000003
v 0.012000004 -0.135 0.0072000003
v -0.089 -0.066500004 0.0036000001
v -0.012000002 -0.066500004 0.0036000001
v -0.012000002 -0.066500004 0.0072000003
v -0.089 -0.066500004 0.0072000003
v 0.012000004 -0.1305 0.0036000001
v 0.088999992 -0.1305 0.0036000001
v 0.088999992 -0.1305 0.0072000003
v 0.012000004 -0.1305 0.0072000003
v -0.012000002 0.103 0.0036000001
v -0.0042057743 0.10749999 0.0036000001
v -0.0042057743 0.11650001 0.0036000001
v -0.012000002 0.121 0.0036000001
v -0.012000002 0.1255 0.0036000001
v -0.089 0.1255 0.0036000001
v -0.089 0.098499996 0.0036000001
v -0.012000002 0.098499996 0.0036000001
v -0.089 -0.098500002 0.0036000001
v -0.012000002 -0.098500002 0.0036000001
v -0.012000002 -0.098500002 0.0072000003
v -0.089 -0.098500002 0.0072000003
v 0.088999992 0.1305 0.0036000001
v 0.012000004 0.1305 0.0036000001
v 0.012000004 0.1305 0.0072000003
v 0.088999992 0.1305 0.0072000003
v -0.012000002 0.098499996 0.0036000001
v -0.089 0.098499996 0.0036000001
v -0.089 0.098499996 0.0072000003
v -0.012000002 0.098499996 0.0072000003
v 0.012000004 -0.135 0.0036000001
v 0.0042057667 -0.1395 0.0036000001
v 0.0042057667 -0.1485 0.0036000001
v 0.012000004 -0.153 0.0036000001
v 0.012000004 -0.1575 0.0036000001
v 0.088999992 -0.1575 0.0036000001
v 0.088999992 -0.1305 0.0036000001
v 0.012000004 -0.1305 0.0036000001
v 0.012000004 0.0024999924 0.0036000001
v 0.012000004 0.007 0.0036000001
v 0.012000004 0.007 0.0072000003
v 0.012000004 0.0024999924 0.0072000003
v -0.012000002 -0.034499996 0.0036000001
v -0.012000002 -0.039000004 0.0036000001
v -0.012000002 -0.039000004 0.0072000003
v -0.012000002 -0.034499996 0.0072000003
v -0.012000002 -0.039000004 0.0036000001
v -0.0042057743 -0.043500002 0.0036000001
v -0.0042057743 -0.052499998 0.0036000001
v -0.012000002 -0.056999996 0.0036000001
v -0.012000002 -0.056999996 0.0072000003
v -0.0042057743 -0.052499998 0.0072000003
v -0.0042057743 -0.043500002 0.0072000003
v -0.012000002 -0.039000004 0.0072000003
v 0.012000004 0.13499999 0.0036000001
v 0.0042057667 0.1395 0.0036000001
v 0.0042057667 0.1485 0.0036000001
v 0.012000004 0.15299998 0.0036000001
v 0.012000004 0.15299998 0.0072000003
v 0.0042057667 0.1485 0.0072000003
v 0.0042057667 0.1395 0.0072000003
v 0.012000004 0.13499999 0.0072000003
v -0.012000002 -0.029499996 0.0036000001
v -0.089 -0.029499996 0.0036000001
v -0.089 -0.029499996 0.0072000003
v -0.012000002 -0.029499996 0.0072000003
v -0.012000002 -0.153 0.0036000001
v -0.0042057743 -0.1485 0.0036000001
v -0.0042057743 -0.1395 0.0036000001
v -0.012000002 -0.135 0.0036000001
v -0.012000002 -0.1305 0.0036000001
v -0.089 -0.1305 0.0036000001
v -0.089 -0.1575 0.0036000001
v -0.012000002 -0.1575 0.0036000001
v 0.012000004 0.089000008 0.0036000001
v 0.012000004 0.093499996 0.0036000001
v 0.012000004 0.093499996 0.0072000003
v 0.012000004 0.089000008 0.0072000003
v -0.012000002 -0.1305 0.0036000001
v -0.012000002 -0.135 0.0036000001
v -0.012000002 -0.135 0.0072000003
v -0.012000002 -0.1305 0.0072000003
v 0.088999992 0.093499996 0.0036000001
v 0.088999992 0.066500008 0.0036000001
v 0.088999992 0.066500008 0.0072000003
v 0.088999992 0.093499996 0.0072000003
v 0.088999992 0.0024999924 0.0036000001
v 0.012000004 0.0024999924 0.0036000001
v 0.012000004 0.0024999924 0.0072000003
v 0.088999992 0.0024999924 0.0072000003
v 0.088999992 0.0295 0.0036000001
v 0.088999992 0.0024999924 0.0036000001
v 0.088999992 0.0024999924 0.0072000003
v 0.088999992 0.0295 0.0072000003
v -0.012000002 -0.061500004 0.0036000001
v -0.089 -0.061500004 0.0036000001
v -0.089 -0.061500004 0.0072000003
v -0.012000002 -0.061500004 0.0072000003
v -0.012000002 -0.089000004 0.0036000001
v -0.012000002 -0.093500002 0.0036000001
v -0.012000002 -0.093500002 0.0072000003
v -0.012000002 -0.089000004 0.0072000003
v 0.012000004 -0.029499996 0.0036000001
v 0.012000004 -0.024999998 0.0036000001
v 0.012000004 -0.024999998 0.0072000003
v 0.012000004 -0.029499996 0.0072000003
v -0.012000002 -0.0069999962 0.0036000001
v -0.0042057743 -0.011500004 0.0036000001
v -0.0042057743 -0.0205 0.0036000001
v -0.012000002 -0.024999998 0.0036000001
v -0.012000002 -0.024999998 0.0072000003
v -0.0042057743 -0.0205 0.0072000003
v -0.0042057743 -0.011500004 0.0072000003
v -0.012000002 -0.0069999962 0.0072000003
v -0.012000002 -0.066500004 0.0036000001
v -0.012000002 -0.071000002 0.0036000001
v -0.012000002 -0.071000002 0.0072000003
v -0.012000002 -0.066500004 0.0072000003
v -0.012000002 0.13499999 0.0036000001
v -0.0042057743 0.1395 0.0036000001
v -0.0042057743 0.1485 0.0036000001
v -0.012000002 0.15299998 0.0036000001
v -0.012000002 0.15749999 0.0036000001
v -0.089 0.15749999 0.0036000001
v -0.089 0.1305 0.0036000001
v -0.012000002 0.1305 0.0036000001
v -0.012000002 -0.1255 0.0036000001
v -0.089 -0.1255 0.0036000001
v -0.089 -0.1255 0.0072000003
v -0.012000002 -0.1255 0.0072000003
v -0.089 0.098499996 0.0036000001
v -0.089 0.1255 0.0036000001
v -0.089 0.1255 0.0072000003
v -0.089 0.098499996 0.0072000003
v 0.088999992 -0.1255 0.0036000001
v 0.012000004 -0.1255 0.0036000001
v 0.012000004 -0.1255 0.0072000003
v 0.088999992 -0.1255 0.0072000003
v -0.012000002 -0.089000004 0.0036000001
v -0.0042057743 -0.084499996 0.0036000001
v -0.0042057743 -0.0755 0.0036000001
v -0.012000002 -0.071000002 0.0036000001
v -0.012000002 -0.066500004 0.0036000001
v -0.089 -0.066500004 0.0036000001
v -0.089 -0.093500002 0.0036000001
v -0.012000002 -0.093500002 0.0036000001
v -0.089 0.1305 0.0036000001
v -0.089 0.15749999 0.0036000001
v -0.089 0.15749999 0.0072000003
v -0.089 0.1305 0.0072000003
v -0.012000002 0.0024999924 0.0036000001
v -0.089 0.0024999924 0.0036000001
v -0.089 0.0024999924 0.0072000003
v -0.012000002 0.0024999924 0.0072000003
v -0.012000002 0.0345 0.0036000001
v -0.089 0.0345 0.0036000001
v -0.089 0.0345 0.0072000003
v -0.012000002 0.0345 0.0072000003
v 0.012000004 -0.153 0.0036000001
v 0.0042057667 -0.1485 0.0036000001
v 0.0042057667 -0.1395 0.0036000001
v 0.012000004 -0.135 0.0036000001
v 0.012000004 -0.135 0.0072000003
v 0.0042057667 -0.1395 0.0072000003
v 0.0042057667 -0.1485 0.0072000003
v 0.012000004 -0.153 0.0072000003
v 0.012000004 -0.024999998 0.0036000001
v 0.0042057667 -0.0205 0.0036000001
v 0.0042057667 -0.011500004 0.0036000001
v 0.012000004 -0.0069999962 0.0036000001
v 0.012000004 -0.0069999962 0.0072000003
v 0.0042057667 -0.011500004 0.0072000003
v 0.0042057667 -0.0205 0.0072000003
v 0.012000004 -0.024999998 0.0072000003
v 0.088999992 0.0345 0.0036000001
v 0.012000004 0.0345 0.0036000001
v 0.012000004 0.0345 0.0072000003
v 0.088999992 0.0345 0.0072000003
v -0.104 -0.1705 0
v 0.10399999 -0.1705 0
v 0.10399999 -0.1705 0.0072000003
v -0.104 -0.1705 0.0072000003
v -0.012000002 0.103 0.0036000001
v -0.012000002 0.098499996 0.0036000001
v -0.012000002 0.098499996 0.0072000003
v -0.012000002 0.103 0.0072000003
v 0.012000004 0.070999996 0.0036000001
v 0.0042057667 0.075500004 0.0036000001
v 0.0042057667 0.0845 0.0036000001
v 0.012000004 0.089000008 0.0036000001
v 0.012000004 0.089000008 0.0072000003
v 0.0042057667 0.0845 0.0072000003
v 0.0042057667 0.075500004 0.0072000003
v 0.012000004 0.070999996 0.0072000003
v -0.089 -0.093500002 0.0036000001
v -0.089 -0.066500004 0.0036000001
v -0.089 -0.066500004 0.0072000003
v -0.089 -0.093500002 0.0072000003
v 0.088999992 -0.1305 0.0036000001
v 0.088999992 -0.1575 0.0036000001
v 0.088999992 -0.1575 0.0072000003
v 0.088999992 -0.1305 0.0072000003
v 0.088999992 -0.1575 0.0036000001
v 0.012000004 -0.1575 0.0036000001
v 0.012000004 -0.1575 0.0072000003
v 0.088999992 -0.1575 0.0072000003
v 0.012000004 -0.103 0.0036000001
v 0.0042057667 -0.1075 0.0036000001
v 0.0042057667 -0.1165 0.0036000001
v 0.012000004 -0.121 0.0036000001
v 0.012000004 -0.1255 0.0036000001
v 0.088999992 -0.1255 0.0036000001
v 0.088999992 -0.098500002 0.0036000001
v 0.012000004 -0.098500002 0.0036000001
f 8 1 7
f 7 1 2
f 7 2 6
f 6 2 3
f 6 3 5
f 5 3 4
f 9 10 12
f 12 10 11
f 13 14 16
f 16 14 15
f 17 18 20
f 20 18 19
f 21 22 24
f 24 22 23
f 25 26 28
f 28 26 27
f 29 30 32
f 32 30 31
f 33 34 36
f 36 34 35
f 38 39 37
f 37 39 40
f 37 40 43
f 43 40 42
f 42 40 41
f 43 44 37
f 45 46 48
f 48 46 47
f 56 49 55
f 55 49 50
f 55 50 54
f 54 50 51
f 54 51 53
f 53 51 52
f 57 58 60
f 60 58 59
f 62 64 61
f 61 64 66
f 61 66 67
f 62 63 64
f 64 65 66
f 67 68 61
f 69 70 72
f 72 70 71
f 73 74 76
f 76 74 75
f 77 78 80
f 80 78 79
f 81 82 84
f 84 82 83
f 85 86 88
f 88 86 87
f 89 90 92
f 92 90 91
f 93 94 96
f 96 94 95
f 97 98 100
f 100 98 99
f 108 101 107
f 107 101 102
f 107 102 106
f 106 102 103
f 106 103 105
f 105 103 104
f 109 110 112
f 112 110 111
f 113 114 116
f 116 114 115
f 117 118 120
f 120 118 119
f 121 122 124
f 124 122 123
f 125 126 128
f 128 126 127
f 129 130 132
f 132 130 131
f 133 134 136
f 136 134 135
f 144 137 143
f 143 137 138
f 143 138 142
f 142 138 139
f 142 139 141
f 141 139 140
f 145 146 148
f 148 146 147
f 149 150 152
f 152 150 151
f 154 155 153
f 153 155 156
f 164 157 163
f 163 157 158
f 163 158 162
f 162 158 159
f 162 159 161
f 161 159 160
f 166 168 165
f 165 168 170
f 165 170 171
f 166 167 168
f 168 169 170
f 171 172 165
f 173 174 176
f 176 174 175
f 184 177 183
f 183 177 178
f 183 178 182
f 182 178 179
f 182 179 181
f 181 179 180
f 185 186 188
f 188 186 187
f 189 190 192
f 192 190 191
f 193 194 196
f 196 194 195
f 197 198 200
f 200 198 199
f 201 202 204
f 204 202 203
f 205 206 208
f 208 206 207
f 210 211 209
f 209 211 212
f 209 212 215
f 215 212 214
f 214 212 213
f 215 216 209
f 217 218 220
f 220 218 219
f 221 222 224
f 224 222 223
f 226 227 225
f 225 227 228
f 225 228 231
f 231 228 230
f 230 228 229
f 231 232 225
f 233 234 236
f 236 234 235
f 237 238 240
f 240 238 239
f 248 241 247
f 247 241 242
f 247 242 246
f 246 242 243
f 246 243 245
f 245 243 244
f 256 249 255
f 255 249 250
f 255 250 254
f 254 250 251
f 254 251 253
f 253 251 252
f 258 260 257
f 257 260 262
f 257 262 263
f 258 259 260
f 260 261 262
f 263 264 257
f 265 266 268
f 268 266 267
f 269 270 272
f 272 270 271
f 274 275 273
f 273 275 276
f 273 276 279
f 279 276 278
f 278 276 277
f 279 280 273
f 288 281 287
f 287 281 282
f 287 282 286
f 286 282 283
f 286 283 285
f 285 283 284
f 289 290 292
f 292 290 291
f 293 294 296
f 296 294 295
f 297 298 300
f 300 298 299
f 301 302 304
f 304 302 303
f 305 306 308
f 308 306 307
f 309 310 312
f 312 310 311
f 314 315 313
f 313 315 316
f 313 316 319
f 319 316 318
f 318 316 317
f 319 320 313
f 322 324 321
f 321 324 326
f 321 326 327
f 322 323 324
f 324 325 326
f 327 328 321
f 329 330 332
f 332 330 331
f 333 334 336
f 336 334 335
f 337 338 340
f 340 338 339
f 341 342 344
f 344 342 343
f 345 346 348
f 348 346 347
f 350 352 349
f 349 352 354
f 349 354 355
f 350 351 352
f 352 353 354
f 355 356 349
f 357 358 360
f 360 358 359
f 361 362 364
f 364 362 363
f 365 366 368
f 368 366 367
f 369 370 372
f 372 370 371
f 373 374 376
f 376 374 375
f 378 380 377
f 377 380 382
f 377 382 383
f 378 379 380
f 380 381 382
f 383 384 377
f 385 386 388
f 388 386 387
f 389 390 392
f 392 390 391
f 400 393 399
f 399 393 394
f 399 394 398
f 398 394 395
f 398 395 397
f 397 395 396
f 401 402 404
f 404 402 403
f 405 406 408
f 408 406 407
f 409 410 412
f 412 410 411
f 413 414 416
f 416 414 415
f 417 418 420
f 420 418 419
f 421 422 424
f 424 422 423
f 425 426 428
f 428 426 427
f 429 430 432
f 432 430 431
f 433 434 436
f 436 434 435
f 438 440 437
f 437 440 442
f 437 442 443
f 438 439 440
f 440 441 442
f 443 444 437
f 445 446 448
f 448 446 447
f 456 449 455
f 455 449 450
f 455 450 454
f 454 450 451
f 454 451 453
f 453 451 452
f 457 458 460
f 460 458 459
f 462 464 461
f 461 464 466
f 461 466 467
f 462 463 464
f 464 465 466
f 467 468 461
f 476 469 475
f 475 469 470
f 475 470 474
f 474 470 471
f 474 471 473
f 473 471 472
f 477 478 480
f 480 478 479
f 488 481 487
f 487 481 482
f 487 482 486
f 486 482 483
f 486 483 485
f 485 483 484
f 490 491 489
f 489 491 492
f 489 492 495
f 495 492 494
f 494 492 493
f 495 496 489
f 498 499 497
f 497 499 648
f 497 648 650
f 650 648 649
f 500 543 499
f 499 543 544
f 499 544 648
f 648 544 611
f 648 611 647
f 647 611 612
f 647 612 508
f 508 612 603
f 508 603 507
f 507 603 604
f 507 604 640
f 640 604 595
f 640 595 639
f 639 595 596
f 639 596 516
f 516 596 587
f 516 587 515
f 515 587 588
f 515 588 632
f 632 588 579
f 632 579 631
f 631 579 580
f 631 580 524
f 524 580 571
f 524 571 523
f 523 571 572
f 523 572 624
f 624 572 563
f 624 563 623
f 623 563 564
f 623 564 532
f 532 564 555
f 532 555 531
f 531 555 556
f 531 556 529
f 529 556 550
f 529 550 547
f 547 550 546
f 546 550 551
f 546 551 552
f 501 502 500
f 500 502 653
f 500 653 655
f 655 653 654
f 502 503 653
f 653 503 660
f 660 503 548
f 660 548 659
f 659 548 658
f 658 548 545
f 658 545 617
f 617 545 616
f 616 545 615
f 615 545 540
f 615 540 541
f 503 504 548
f 548 504 651
f 548 651 652
f 504 497 651
f 651 497 650
f 506 507 505
f 505 507 640
f 505 640 642
f 642 640 641
f 509 510 508
f 508 510 645
f 508 645 647
f 647 645 646
f 510 511 645
f 645 511 652
f 652 511 548
f 511 512 548
f 548 512 643
f 548 643 644
f 512 505 643
f 643 505 642
f 514 515 513
f 513 515 632
f 513 632 634
f 634 632 633
f 517 518 516
f 516 518 637
f 516 637 639
f 639 637 638
f 518 519 637
f 637 519 644
f 644 519 547
f 644 547 548
f 519 520 547
f 547 520 635
f 547 635 636
f 520 513 635
f 635 513 634
f 522 523 521
f 521 523 624
f 521 624 626
f 626 624 625
f 525 526 524
f 524 526 629
f 524 629 631
f 631 629 630
f 526 527 629
f 629 527 636
f 636 527 547
f 527 528 547
f 547 528 627
f 547 627 628
f 528 521 627
f 627 521 626
f 529 530 531
f 533 534 532
f 532 534 621
f 532 621 623
f 623 621 622
f 534 535 621
f 621 535 628
f 628 535 547
f 535 536 547
f 547 536 529
f 537 538 544
f 544 538 611
f 611 538 609
f 609 538 539
f 609 539 608
f 608 539 545
f 608 545 607
f 607 545 600
f 607 600 601
f 539 540 545
f 542 543 541
f 541 543 614
f 541 614 615
f 546 591 545
f 545 591 592
f 545 592 599
f 599 592 593
f 599 593 598
f 598 593 595
f 598 595 604
f 549 550 556
f 546 552 559
f 559 552 553
f 559 553 558
f 558 553 555
f 558 555 564
f 553 554 555
f 557 558 564
f 559 560 546
f 546 560 567
f 546 567 568
f 560 561 567
f 567 561 566
f 566 561 563
f 566 563 572
f 561 562 563
f 565 566 572
f 546 568 575
f 575 568 569
f 575 569 574
f 574 569 571
f 574 571 580
f 569 570 571
f 573 574 580
f 575 576 546
f 546 576 583
f 546 583 584
f 576 577 583
f 583 577 582
f 582 577 579
f 582 579 588
f 577 578 579
f 581 582 588
f 546 584 591
f 591 584 585
f 591 585 590
f 590 585 587
f 590 587 596
f 585 586 587
f 589 590 596
f 593 594 595
f 597 598 604
f 599 600 545
f 602 603 601
f 601 603 606
f 601 606 607
f 605 606 612
f 612 606 603
f 609 610 611
f 613 614 620
f 620 614 543
f 620 543 500
f 618 619 617
f 617 619 656
f 617 656 658
f 658 656 657
f 656 619 655
f 655 619 620
f 655 620 500
f 661 662 664
f 664 662 663
f 665 666 668
f 668 666 667
f 669 670 672
f 672 670 671
f 673 674 676
f 676 674 675
f 677 678 680
f 680 678 679
f 688 681 687
f 687 681 682
f 687 682 686
f 686 682 683
f 686 683 685
f 685 683 684
f 689 690 692
f 692 690 691
f 693 694 696
f 696 694 695
f 697 698 700
f 700 698 699
f 702 703 701
f 701 703 704
f 701 704 707
f 707 704 706
f 706 704 705
f 707 708 701
f 709 710 712
f 712 710 711
f 713 714 716
f 716 714 715
f 717 718 720
f 720 718 719
f 722 724 721
f 721 724 726
f 721 726 727
f 722 723 724
f 724 725 726
f 727 728 721
f 729 730 732
f 732 730 731
f 733 734 736
f 736 734 735
f 744 737 743
f 743 737 738
f 743 738 742
f 742 738 739
f 742 739 741
f 741 739 740
f 752 745 751
f 751 745 746
f 751 746 750
f 750 746 747
f 750 747 749
f 749 747 748
f 753 754 756
f 756 754 755
f 758 759 757
f 757 759 760
f 757 760 763
f 763 760 762
f 762 760 761
f 763 764 757
f 765 766 768
f 768 766 767
f 769 770 772
f 772 770 771
f 773 774 776
f 776 774 775
f 777 778 780
f 780 778 779
f 781 782 784
f 784 782 783
f 785 786 788
f 788 786 787
f 789 790 792
f 792 790 791
f 793 794 796
f 796 794 795
f 804 797 803
f 803 797 798
f 803 798 802
f 802 798 799
f 802 799 801
f 801 799 800
f 805 806 808
f 808 806 807
f 810 811 809
f 809 811 812
f 809 812 815
f 815 812 814
f 814 812 813
f 815 816 809
f 817 818 820
f 820 818 819
f 821 822 824
f 824 822 823
f 825 826 828
f 828 826 827
f 830 831 829
f 829 831 832
f 829 832 835
f 835 832 834
f 834 832 833
f 835 836 829
f 837 838 840
f 840 838 839
f 841 842 844
f 844 842 843
f 845 846 848
f 848 846 847
f 856 849 855
f 855 849 850
f 855 850 854
f 854 850 851
f 854 851 853
f 853 851 852
f 864 857 863
f 863 857 858
f 863 858 862
f 862 858 859
f 862 859 861
f 861 859 860
f 865 866 868
f 868 866 867
f 869 870 872
f 872 870 871
f 873 874 876
f 876 874 875
f 884 877 883
f 883 877 878
f 883 878 882
f 882 878 879
f 882 879 881
f 881 879 880
f 885 886 888
f 888 886 887
f 889 890 892
f 892 890 891
f 893 894 896
f 896 894 895
f 898 900 897
f 897 900 902
f 897 902 903
f 898 899 900
f 900 901 902
f 903 904 897
