v -0.032716709 0.015893966 0.11945757
v -0.021516709 0.015893966 0.11945757
v -0.021516709 0.015946493 0.11923959
v -0.032716709 0.015946493 0.11923959
v -0.032716709 0.015946493 0.11923959
v -0.021516709 0.015946493 0.11923959
v -0.021516709 0.015893966 0.11901579
v -0.032716709 0.015893966 0.11901579
v -0.032716709 0.015784949 0.11962498
v -0.021516709 0.015784949 0.11962498
v -0.021516709 0.015893966 0.11945757
v -0.032716709 0.015893966 0.11945757
v -0.032716709 0.015893966 0.11901579
v -0.021516709 0.015893966 0.11901579
v -0.021516709 0.015884212 0.11900604
v -0.032716709 0.015884212 0.11900604
v -0.032716709 0.015617563 0.11973398
v -0.021516709 0.015617563 0.11973398
v -0.021516709 0.015784949 0.11962498
v -0.032716709 0.015784949 0.11962498
v -0.032716709 0.015393738 0.11978457
v -0.021516709 0.015393738 0.11978457
v -0.021516709 0.015617563 0.11973398
v -0.032716709 0.015617563 0.11973398
v -0.032716709 0.015884212 0.11900604
v -0.021516709 0.015884212 0.11900604
v -0.021516709 0.015773291 0.11883281
v -0.032716709 0.015773291 0.11883281
v -0.032716709 0.015160185 0.11973398
v -0.021516709 0.015160185 0.11973398
v -0.021516709 0.015393738 0.11978457
v -0.032716709 0.015393738 0.11978457
v -0.032716709 0.015006414 0.11962887
v -0.021516709 0.015006414 0.11962887
v -0.021516709 0.015160185 0.11973398
v -0.032716709 0.015160185 0.11973398
v -0.032716709 0.015592265 0.11872577
v -0.032716709 0.015387896 0.11867711
v -0.032716709 0.015183528 0.11872577
v -0.032716709 0.015014212 0.11883672
v -0.032716709 0.01489158 0.11901772
v -0.032716709 0.014840984 0.11924155
v -0.032716709 0.01489158 0.11946537
v -0.032716709 0.015006414 0.11962887
v -0.032716709 0.015160185 0.11973398
v -0.032716709 0.015393738 0.11978457
v -0.032716709 0.015617563 0.11973398
v -0.032716709 0.015784949 0.11962498
v -0.032716709 0.015893966 0.11945757
v -0.032716709 0.015946493 0.11923959
v -0.032716709 0.015893966 0.11901579
v -0.032716709 0.015884212 0.11900604
v -0.032716709 0.015773291 0.11883281
v -0.021516709 0.015387896 0.11867711
v -0.021516709 0.015592265 0.11872577
v -0.021516709 0.015773291 0.11883281
v -0.021516709 0.015884212 0.11900604
v -0.021516709 0.015893966 0.11901579
v -0.021516709 0.015946493 0.11923959
v -0.021516709 0.015893966 0.11945757
v -0.021516709 0.015784949 0.11962498
v -0.021516709 0.015617563 0.11973398
v -0.021516709 0.015393738 0.11978457
v -0.021516709 0.015160185 0.11973398
v -0.021516709 0.015006414 0.11962887
v -0.021516709 0.01489158 0.11946537
v -0.021516709 0.014840984 0.11924155
v -0.021516709 0.01489158 0.11901772
v -0.021516709 0.015014212 0.11883672
v -0.021516709 0.015183528 0.11872577
v -0.032716709 0.01489158 0.11946537
v -0.021516709 0.01489158 0.11946537
v -0.021516709 0.015006414 0.11962887
v -0.032716709 0.015006414 0.11962887
v -0.032716709 0.015773291 0.11883281
v -0.021516709 0.015773291 0.11883281
v -0.021516709 0.015592265 0.11872577
v -0.032716709 0.015592265 0.11872577
v -0.032716709 0.014840984 0.11924155
v -0.021516709 0.014840984 0.11924155
v -0.021516709 0.01489158 0.11946537
v -0.032716709 0.01489158 0.11946537
v -0.032716709 0.01489158 0.11901772
v -0.021516709 0.01489158 0.11901772
v -0.021516709 0.014840984 0.11924155
v -0.032716709 0.014840984 0.11924155
v -0.032716709 0.015014212 0.11883672
v -0.021516709 0.015014212 0.11883672
v -0.021516709 0.01489158 0.11901772
v -0.032716709 0.01489158 0.11901772
v -0.032716709 0.015183528 0.11872577
v -0.021516709 0.015183528 0.11872577
v -0.021516709 0.015014212 0.11883672
v -0.032716709 0.015014212 0.11883672
v -0.032716709 0.015387896 0.11867711
v -0.021516709 0.015387896 0.11867711
v -0.021516709 0.015183528 0.11872577
v -0.032716709 0.015183528 0.11872577
v -0.032716709 0.015592265 0.11872577
v -0.021516709 0.015592265 0.11872577
v -0.021516709 0.015387896 0.11867711
v -0.032716709 0.015387896 0.11867711
f 2 3 1
f 1 3 4
f 6 7 5
f 5 7 8
f 10 11 9
f 9 11 12
f 14 15 13
f 13 15 16
f 18 19 17
f 17 19 20
f 22 23 21
f 21 23 24
f 26 27 25
f 25 27 28
f 30 31 29
f 29 31 32
f 34 35 33
f 33 35 36
f 38 39 37
f 37 39 40
f 37 40 41
f 42 49 41
f 41 49 50
f 41 50 52
f 52 50 51
f 42 43 49
f 49 43 44
f 49 44 45
f 46 47 45
f 45 47 48
f 45 48 49
f 52 53 41
f 41 53 37
f 54 55 70
f 70 55 69
f 69 55 68
f 68 55 56
f 68 56 57
f 58 59 57
f 57 59 68
f 59 60 68
f 68 60 67
f 67 60 66
f 66 60 65
f 65 60 64
f 64 60 61
f 64 61 62
f 62 63 64
f 72 73 71
f 71 73 74
f 76 77 75
f 75 77 78
f 80 81 79
f 79 81 82
f 84 85 83
f 83 85 86
f 88 89 87
f 87 89 90
f 92 93 91
f 91 93 94
f 96 97 95
f 95 97 98
f 100 101 99
f 99 101 102
