v -0.23712197 -0.0065150548 0.23728291
v -0.23712186 -0.0058151614 0.23727069
v -0.2371245 -0.0058099258 0.23757063
v -0.2371232 0.0026887798 0.2374223
v -0.23712056 0.0026835442 0.23712235
v -0.23712045 0.0033834375 0.23711014
v -0.23712679 0.003396003 0.23783
v -0.2371283 -0.0065024894 0.23800277
v -0.23811049 -0.0065377432 0.23597435
v -0.23761051 -0.0065377429 0.23597875
v -0.2376104 -0.0058378494 0.23596654
v -0.23811038 -0.0058378497 0.23596214
v -0.24301169 -0.0058348861 0.23608897
v -0.24301039 0.0026638194 0.23594063
v -0.24291039 0.0026638195 0.23594151
v -0.24291169 -0.0058348861 0.23608985
v -0.23759061 -0.00080131874 0.23371838
v -0.23759451 -0.00036853014 0.23416088
v -0.24109437 -0.00036853247 0.23413007
v -0.24109048 -0.00080132107 0.23368758
v -0.24629683 -0.001613459 0.23438606
v -0.24629841 -0.0019134675 0.23456632
v -0.24630149 -0.0019073593 0.23491625
v -0.24630299 -0.0016012425 0.23508593
v -0.2463014 -0.0013012338 0.23490567
v -0.24629832 -0.001307342 0.23455574
v -0.24650122 -0.0016047331 0.2348842
v -0.24650033 -0.0017491787 0.23478307
v -0.24649884 -0.0016976231 0.23461444
v -0.24649882 -0.0015213144 0.23461136
v -0.24650028 -0.0014639053 0.23477809
v -0.24650033 -0.0017491787 0.23478307
v -0.24630149 -0.0019073593 0.23491625
v -0.23759061 -0.00080131874 0.23371838
v -0.24109048 -0.00080132107 0.23368758
v -0.24109073 -0.0024510698 0.23371637
v -0.23759086 -0.0024510675 0.23374718
v -0.23759099 -0.0033009381 0.23376201
v -0.24109086 -0.0033009404 0.2337312
v -0.24109111 -0.0049756853 0.23376044
v -0.23739126 -0.0049756829 0.233793
v -0.23739023 0.0017232965 0.23367608
v -0.24109009 0.0017232941 0.23364351
v -0.24109035 4.8549266e-05 0.23367274
v -0.23759048 4.8551592e-05 0.23370355
v -0.24650084 0.00089488619 0.23484057
v -0.2464999 0.001035714 0.23473446
v -0.24649843 0.00097830489 0.23456774
v -0.24649846 0.00080199617 0.23457081
v -0.24649995 0.0007504407 0.23473944
v -0.2420266 0.0033959997 0.23778687
v -0.24201586 0.0033747082 0.2365671
v -0.24201597 0.0026748149 0.23657932
v -0.24201791 0.0026786543 0.23679927
v -0.24201921 -0.0058200512 0.23694761
v -0.24201727 -0.0058238907 0.23672765
v -0.24201738 -0.0065237841 0.23673987
v -0.24202811 -0.0065024926 0.23795964
v -0.23761755 -0.0065237812 0.2367786
v -0.24201738 -0.0065237841 0.23673987
v -0.24201727 -0.0058238907 0.23672765
v -0.2411173 -0.0058238901 0.23673558
v -0.23761744 -0.0058238878 0.23676639
v -0.24301917 -0.0058200519 0.23693881
v -0.24301169 -0.0058348861 0.23608897
v -0.24291169 -0.0058348861 0.23608985
v -0.24290403 -0.0058500694 0.23522002
v -0.2411041 -0.0058500682 0.23523586
v -0.2411173 -0.0058238901 0.23673558
v -0.24201727 -0.0058238907 0.23672765
v -0.24201921 -0.0058200512 0.23694761
v -0.23712045 0.0033834375 0.23711014
v -0.23761603 0.0033747111 0.23660583
v -0.24201586 0.0033747082 0.2365671
v -0.2420266 0.0033959997 0.23778687
v -0.23712679 0.003396003 0.23783
v -0.24299243 -0.0065731742 0.23390161
v -0.24299098 0.0029160408 0.23373598
v -0.24298363 0.0020513356 0.23290098
v -0.24298495 -0.0065880085 0.23305177
v -0.23759716 -0.0016134532 0.23446264
v -0.23759866 -0.0013073362 0.23463232
v -0.23760174 -0.001301228 0.23498225
v -0.23760332 -0.0016012367 0.23516251
v -0.23760183 -0.0019073535 0.23499283
v -0.23759875 -0.0019134617 0.2346429
v -0.23759451 -0.00036853014 0.23416088
v -0.23759048 4.8551592e-05 0.23370355
v -0.24109035 4.8549266e-05 0.23367274
v -0.24109437 -0.00036853247 0.23413007
v -0.24289452 0.003332462 0.23413898
v -0.24290263 0.0033485295 0.23505946
v -0.23810281 0.0033485327 0.23510172
v -0.23810897 0.0033607491 0.23580158
v -0.23760899 0.0033607495 0.23580599
v -0.23710461 0.0033520237 0.23531048
v -0.23709475 0.0033324659 0.23419004
v -0.24289452 0.003332462 0.23413898
v -0.24289098 0.0029160409 0.23373686
v -0.24289243 -0.0065731741 0.23390249
v -0.24290414 -0.0065499629 0.23523223
v -0.24290403 -0.0058500694 0.23522002
v -0.24291169 -0.0058348861 0.23608985
v -0.24291039 0.0026638195 0.23594151
v -0.24290273 0.0026486362 0.23507168
v -0.24290263 0.0033485295 0.23505946
v -0.24289734 -0.004113076 0.23445962
v -0.24289883 -0.0038069591 0.23462929
v -0.24290191 -0.0038008509 0.23497923
v -0.2429035 -0.0041008595 0.23515948
v -0.24290201 -0.0044069764 0.23498981
v -0.24289893 -0.0044130846 0.23463987
v -0.24289696 -0.0016134567 0.23441599
v -0.24289845 -0.0013073398 0.23458567
v -0.24290153 -0.0013012315 0.2349356
v -0.24290312 -0.0016012403 0.23511585
v -0.24290162 -0.001907357 0.23494618
v -0.24289854 -0.0019134653 0.23459624
v -0.24289657 0.00088616255 0.23437236
v -0.24289807 0.0011922792 0.23454204
v -0.24290115 0.0011983874 0.23489197
v -0.24290274 0.000898379 0.23507223
v -0.24290124 0.00059226206 0.23490255
v -0.24289816 0.00058615383 0.23455262
v -0.23710461 0.0033520237 0.23531048
v -0.23760899 0.0033607495 0.23580599
v -0.2376091 0.0026608561 0.2358182
v -0.23710472 0.0026521304 0.2353227
v -0.23760899 0.0033607495 0.23580599
v -0.23810897 0.0033607491 0.23580158
v -0.23810908 0.0026608558 0.2358138
v -0.2376091 0.0026608561 0.2358182
v -0.24290263 0.0033485295 0.23505946
v -0.24290273 0.0026486362 0.23507168
v -0.2411028 0.0026486374 0.23508753
v -0.23810292 0.0026486393 0.23511393
v -0.23810281 0.0033485327 0.23510172
v -0.23708386 0.0020513396 0.23295291
v -0.23708518 -0.0065880045 0.23310371
v -0.24298495 -0.0065880085 0.23305177
v -0.24298363 0.0020513356 0.23290098
v -0.23761603 0.0033747111 0.23660583
v -0.23712045 0.0033834375 0.23711014
v -0.23712056 0.0026835442 0.23712235
v -0.23761614 0.0026748178 0.23661805
v -0.24290403 -0.0058500694 0.23522002
v -0.24290414 -0.0065499629 0.23523223
v -0.23810433 -0.0065499597 0.23527449
v -0.23810422 -0.0058500662 0.23526227
v -0.2411041 -0.0058500682 0.23523586
v -0.24201791 0.0026786543 0.23679927
v -0.24301787 0.0026786537 0.23679047
v -0.24301917 -0.0058200519 0.23693881
v -0.24201921 -0.0058200512 0.23694761
v -0.23761755 -0.0065237812 0.2367786
v -0.23712197 -0.0065150548 0.23728291
v -0.2371283 -0.0065024894 0.23800277
v -0.24202811 -0.0065024926 0.23795964
v -0.24201738 -0.0065237841 0.23673987
v -0.23759489 -0.0028681494 0.23420451
v -0.23759099 -0.0033009381 0.23376201
v -0.23759086 -0.0024510675 0.23374718
v -0.24109048 -0.00080132107 0.23368758
v -0.24109437 -0.00036853247 0.23413007
v -0.24109035 4.8549266e-05 0.23367274
v -0.24109009 0.0017232941 0.23364351
v -0.24109787 0.0026388642 0.23452763
v -0.2411028 0.0026486374 0.23508753
v -0.241116 0.0026748155 0.23658724
v -0.24112041 0.0026835415 0.23708714
v -0.24112171 -0.005815164 0.23723548
v -0.2411173 -0.0058238901 0.23673558
v -0.2411041 -0.0058500682 0.23523586
v -0.24109917 -0.0058598414 0.23467597
v -0.24109111 -0.0049756853 0.23376044
v -0.24109086 -0.0033009404 0.2337312
v -0.24109475 -0.0028681517 0.2341737
v -0.24109073 -0.0024510698 0.23371637
v -0.24109741 -0.0041130748 0.23447546
v -0.241099 -0.0044130834 0.23465572
v -0.24110208 -0.0044069752 0.23500565
v -0.24110357 -0.0041008583 0.23517533
v -0.24110198 -0.0038008497 0.23499507
v -0.2410989 -0.0038069579 0.23464514
v -0.24109703 -0.0016134555 0.23443183
v -0.24109861 -0.0019134641 0.23461209
v -0.24110169 -0.0019073558 0.23496202
v -0.24110319 -0.0016012391 0.2351317
v -0.2411016 -0.0013012303 0.23495144
v -0.24109852 -0.0013073386 0.23460151
v -0.24109665 0.00088616374 0.2343882
v -0.24109823 0.00058615503 0.23456846
v -0.24110131 0.00059226326 0.23491839
v -0.24110281 0.0008983802 0.23508807
v -0.24110122 0.0011983886 0.23490781
v -0.24109814 0.0011922804 0.23455788
v -0.241116 0.0026748155 0.23658724
v -0.23761614 0.0026748178 0.23661805
v -0.23712056 0.0026835442 0.23712235
v -0.2371232 0.0026887798 0.2374223
v -0.23742055 0.002683544 0.23711971
v -0.24112041 0.0026835415 0.23708714
v -0.24289098 0.0029160409 0.23373686
v -0.24289452 0.003332462 0.23413898
v -0.23709475 0.0033324659 0.23419004
v -0.23708386 0.0020513396 0.23295291
v -0.24298363 0.0020513356 0.23290098
v -0.24299098 0.0029160408 0.23373598
v -0.24629721 -0.0041130782 0.23442969
v -0.24629879 -0.0044130868 0.23460994
v -0.24630188 -0.0044069786 0.23495988
v -0.24630337 -0.0041008618 0.23512955
v -0.24630178 -0.0038008531 0.2349493
v -0.2462987 -0.0038069614 0.23459936
v -0.2465016 -0.0041043523 0.23492783
v -0.24650071 -0.0042487979 0.23482669
v -0.24649923 -0.0041972423 0.23465807
v -0.2464992 -0.0040209336 0.23465499
v -0.24650067 -0.0039635244 0.23482171
v -0.24650071 -0.0042487979 0.23482669
v -0.24630188 -0.0044069786 0.23495988
v -0.23759678 0.00088616607 0.23441901
v -0.23759827 0.0011922827 0.23458869
v -0.23760135 0.0011983909 0.23493862
v -0.23760294 0.00089838252 0.23511888
v -0.23760145 0.00059226558 0.2349492
v -0.23759837 0.00058615735 0.23459927
v -0.23761051 -0.0065377429 0.23597875
v -0.23710612 -0.0065464686 0.23548325
v -0.23710602 -0.0058465751 0.23547103
v -0.2376104 -0.0058378494 0.23596654
v -0.23810433 -0.0065499597 0.23527449
v -0.23811049 -0.0065377432 0.23597435
v -0.23811038 -0.0058378497 0.23596214
v -0.23810422 -0.0058500662 0.23526227
v -0.23739126 -0.0049756829 0.233793
v -0.24109111 -0.0049756853 0.23376044
v -0.24109917 -0.0058598414 0.23467597
v -0.23709933 -0.0058598387 0.23471118
v -0.23709127 -0.0049756827 0.23379565
v -0.23759099 -0.0033009381 0.23376201
v -0.23759489 -0.0028681494 0.23420451
v -0.24109475 -0.0028681517 0.2341737
v -0.24109086 -0.0033009404 0.2337312
v -0.23708863 -0.0049809183 0.2334957
v -0.23709127 -0.0049756827 0.23379565
v -0.23709933 -0.0058598387 0.23471118
v -0.23710602 -0.0058465751 0.23547103
v -0.23710612 -0.0065464686 0.23548325
v -0.23708518 -0.0065880045 0.23310371
v -0.23708386 0.0020513396 0.23295291
v -0.23709475 0.0033324659 0.23419004
v -0.23710461 0.0033520237 0.23531048
v -0.23710472 0.0026521304 0.2353227
v -0.23709803 0.0026388668 0.23456284
v -0.23709024 0.0017232967 0.23367872
v -0.2370876 0.0017180611 0.23337878
v -0.24650122 -0.0016047331 0.2348842
v -0.24650028 -0.0014639053 0.23477809
v -0.24649882 -0.0015213144 0.23461136
v -0.24649884 -0.0016976231 0.23461444
v -0.24650033 -0.0017491787 0.23478307
v -0.23739126 -0.0049756829 0.233793
v -0.23709127 -0.0049756827 0.23379565
v -0.23708863 -0.0049809183 0.2334957
v -0.23759678 0.00088616607 0.23441901
v -0.23759837 0.00058615735 0.23459927
v -0.23760145 0.00059226558 0.2349492
v -0.23760294 0.00089838252 0.23511888
v -0.23760135 0.0011983909 0.23493862
v -0.23759827 0.0011922827 0.23458869
v -0.24109665 0.00088616374 0.2343882
v -0.24109814 0.0011922804 0.23455788
v -0.24110122 0.0011983886 0.23490781
v -0.24110281 0.0008983802 0.23508807
v -0.24110131 0.00059226326 0.23491839
v -0.24109823 0.00058615503 0.23456846
v -0.24109665 0.00088616374 0.2343882
v -0.23759678 0.00088616607 0.23441901
v -0.23712679 0.003396003 0.23783
v -0.2420266 0.0033959997 0.23778687
v -0.24202811 -0.0065024926 0.23795964
v -0.2371283 -0.0065024894 0.23800277
v -0.23709803 0.0026388668 0.23456284
v -0.24109787 0.0026388642 0.23452763
v -0.24109009 0.0017232941 0.23364351
v -0.23739023 0.0017232965 0.23367608
v -0.23709024 0.0017232967 0.23367872
v -0.23742055 0.002683544 0.23711971
v -0.2371232 0.0026887798 0.2374223
v -0.2371245 -0.0058099258 0.23757063
v -0.23742185 -0.0058151616 0.23726805
v -0.2465016 -0.0041043523 0.23492783
v -0.24650067 -0.0039635244 0.23482171
v -0.2464992 -0.0040209336 0.23465499
v -0.24649923 -0.0041972423 0.23465807
v -0.24650071 -0.0042487979 0.23482669
v -0.24301787 0.0026786537 0.23679047
v -0.24301039 0.0026638194 0.23594063
v -0.24301169 -0.0058348861 0.23608897
v -0.24301917 -0.0058200519 0.23693881
v -0.24201586 0.0033747082 0.2365671
v -0.23761603 0.0033747111 0.23660583
v -0.23761614 0.0026748178 0.23661805
v -0.241116 0.0026748155 0.23658724
v -0.24201597 0.0026748149 0.23657932
v -0.24289696 -0.0016134567 0.23441599
v -0.24289854 -0.0019134653 0.23459624
v -0.24290162 -0.001907357 0.23494618
v -0.24290312 -0.0016012403 0.23511585
v -0.24290153 -0.0013012315 0.2349356
v -0.24289845 -0.0013073398 0.23458567
v -0.24629683 -0.001613459 0.23438606
v -0.24629832 -0.001307342 0.23455574
v -0.2463014 -0.0013012338 0.23490567
v -0.24630299 -0.0016012425 0.23508593
v -0.24630149 -0.0019073593 0.23491625
v -0.24629841 -0.0019134675 0.23456632
v -0.24629683 -0.001613459 0.23438606
v -0.24289696 -0.0016134567 0.23441599
v -0.24289098 0.0029160409 0.23373686
v -0.24299098 0.0029160408 0.23373598
v -0.24299243 -0.0065731742 0.23390161
v -0.24289243 -0.0065731741 0.23390249
v -0.23739126 -0.0049756829 0.233793
v -0.23708863 -0.0049809183 0.2334957
v -0.2370876 0.0017180611 0.23337878
v -0.23739023 0.0017232965 0.23367608
v -0.23709024 0.0017232967 0.23367872
v -0.23739023 0.0017232965 0.23367608
v -0.2370876 0.0017180611 0.23337878
v -0.24112171 -0.005815164 0.23723548
v -0.23742185 -0.0058151616 0.23726805
v -0.2371245 -0.0058099258 0.23757063
v -0.23712186 -0.0058151614 0.23727069
v -0.23761744 -0.0058238878 0.23676639
v -0.2411173 -0.0058238901 0.23673558
v -0.23811038 -0.0058378497 0.23596214
v -0.2376104 -0.0058378494 0.23596654
v -0.23710602 -0.0058465751 0.23547103
v -0.23709933 -0.0058598387 0.23471118
v -0.24109917 -0.0058598414 0.23467597
v -0.2411041 -0.0058500682 0.23523586
v -0.23810422 -0.0058500662 0.23526227
v -0.23759755 -0.0041130724 0.23450627
v -0.23759904 -0.0038069556 0.23467595
v -0.23760212 -0.0038008474 0.23502588
v -0.23760371 -0.004100856 0.23520614
v -0.23760221 -0.0044069728 0.23503646
v -0.23759913 -0.0044130811 0.23468653
v -0.24289734 -0.004113076 0.23445962
v -0.24289893 -0.0044130846 0.23463987
v -0.24290201 -0.0044069764 0.23498981
v -0.2429035 -0.0041008595 0.23515948
v -0.24290191 -0.0038008509 0.23497923
v -0.24289883 -0.0038069591 0.23462929
v -0.24629721 -0.0041130782 0.23442969
v -0.2462987 -0.0038069614 0.23459936
v -0.24630178 -0.0038008531 0.2349493
v -0.24630337 -0.0041008618 0.23512955
v -0.24630188 -0.0044069786 0.23495988
v -0.24629879 -0.0044130868 0.23460994
v -0.24629721 -0.0041130782 0.23442969
v -0.24289734 -0.004113076 0.23445962
v -0.23759755 -0.0041130724 0.23450627
v -0.23759913 -0.0044130811 0.23468653
v -0.23760221 -0.0044069728 0.23503646
v -0.23760371 -0.004100856 0.23520614
v -0.23760212 -0.0038008474 0.23502588
v -0.23759904 -0.0038069556 0.23467595
v -0.24109741 -0.0041130748 0.23447546
v -0.2410989 -0.0038069579 0.23464514
v -0.24110198 -0.0038008497 0.23499507
v -0.24110357 -0.0041008583 0.23517533
v -0.24110208 -0.0044069752 0.23500565
v -0.241099 -0.0044130834 0.23465572
v -0.24109741 -0.0041130748 0.23447546
v -0.23759755 -0.0041130724 0.23450627
v -0.23759489 -0.0028681494 0.23420451
v -0.23759086 -0.0024510675 0.23374718
v -0.24109073 -0.0024510698 0.23371637
v -0.24109475 -0.0028681517 0.2341737
v -0.24291039 0.0026638195 0.23594151
v -0.24301039 0.0026638194 0.23594063
v -0.24301787 0.0026786537 0.23679047
v -0.24201791 0.0026786543 0.23679927
v -0.24201597 0.0026748149 0.23657932
v -0.241116 0.0026748155 0.23658724
v -0.2411028 0.0026486374 0.23508753
v -0.24290273 0.0026486362 0.23507168
v -0.23810908 0.0026608558 0.2358138
v -0.23810292 0.0026486393 0.23511393
v -0.2411028 0.0026486374 0.23508753
v -0.24109787 0.0026388642 0.23452763
v -0.23709803 0.0026388668 0.23456284
v -0.23710472 0.0026521304 0.2353227
v -0.2376091 0.0026608561 0.2358182
v -0.23712197 -0.0065150548 0.23728291
v -0.23761755 -0.0065237812 0.2367786
v -0.23761744 -0.0058238878 0.23676639
v -0.23712186 -0.0058151614 0.23727069
v -0.23810897 0.0033607491 0.23580158
v -0.23810281 0.0033485327 0.23510172
v -0.23810292 0.0026486393 0.23511393
v -0.23810908 0.0026608558 0.2358138
v -0.24112041 0.0026835415 0.23708714
v -0.23742055 0.002683544 0.23711971
v -0.23742185 -0.0058151616 0.23726805
v -0.24112171 -0.005815164 0.23723548
v -0.23759716 -0.0016134532 0.23446264
v -0.23759875 -0.0019134617 0.2346429
v -0.23760183 -0.0019073535 0.23499283
v -0.23760332 -0.0016012367 0.23516251
v -0.23760174 -0.001301228 0.23498225
v -0.23759866 -0.0013073362 0.23463232
v -0.24109703 -0.0016134555 0.23443183
v -0.24109852 -0.0013073386 0.23460151
v -0.2411016 -0.0013012303 0.23495144
v -0.24110319 -0.0016012391 0.2351317
v -0.24110169 -0.0019073558 0.23496202
v -0.24109861 -0.0019134641 0.23461209
v -0.24109703 -0.0016134555 0.23443183
v -0.23759716 -0.0016134532 0.23446264
v -0.24629644 0.00088616029 0.23434243
v -0.24629803 0.00058615157 0.23452269
v -0.24630111 0.0005922598 0.23487262
v -0.2463026 0.00089837674 0.2350423
v -0.24630102 0.0011983852 0.23486204
v -0.24629794 0.0011922769 0.23451211
v -0.24650084 0.00089488619 0.23484057
v -0.24649995 0.0007504407 0.23473944
v -0.24649846 0.00080199617 0.23457081
v -0.24649843 0.00097830489 0.23456774
v -0.2464999 0.001035714 0.23473446
v -0.24649995 0.0007504407 0.23473944
v -0.24630111 0.0005922598 0.23487262
v -0.24290414 -0.0065499629 0.23523223
v -0.24289243 -0.0065731741 0.23390249
v -0.24299243 -0.0065731742 0.23390161
v -0.24298495 -0.0065880085 0.23305177
v -0.23708518 -0.0065880045 0.23310371
v -0.23710612 -0.0065464686 0.23548325
v -0.23761051 -0.0065377429 0.23597875
v -0.23811049 -0.0065377432 0.23597435
v -0.23810433 -0.0065499597 0.23527449
v -0.24289657 0.00088616255 0.23437236
v -0.24289816 0.00058615383 0.23455262
v -0.24290124 0.00059226206 0.23490255
v -0.24290274 0.000898379 0.23507223
v -0.24290115 0.0011983874 0.23489197
v -0.24289807 0.0011922792 0.23454204
v -0.24629644 0.00088616029 0.23434243
v -0.24629794 0.0011922769 0.23451211
v -0.24630102 0.0011983852 0.23486204
v -0.2463026 0.00089837674 0.2350423
v -0.24630111 0.0005922598 0.23487262
v -0.24629803 0.00058615157 0.23452269
v -0.24629644 0.00088616029 0.23434243
v -0.24289657 0.00088616255 0.23437236
v -0.23759451 -0.00036853014 0.23416088
v -0.23759061 -0.00080131874 0.23371838
v -0.23759048 4.8551592e-05 0.23370355
f 2 3 1
f 1 3 8
f 8 3 4
f 8 4 7
f 7 4 6
f 6 4 5
f 10 11 9
f 9 11 12
f 13 14 16
f 16 14 15
f 17 18 20
f 20 18 19
f 22 29 21
f 21 29 30
f 21 30 26
f 26 30 31
f 26 31 25
f 25 31 27
f 25 27 24
f 24 27 23
f 23 27 32
f 33 28 22
f 22 28 29
f 35 36 34
f 34 36 37
f 34 37 42
f 42 37 41
f 41 37 38
f 41 38 40
f 40 38 39
f 34 42 45
f 45 42 43
f 45 43 44
f 46 47 50
f 50 47 49
f 49 47 48
f 52 54 51
f 51 54 55
f 51 55 58
f 58 55 57
f 57 55 56
f 52 53 54
f 63 59 62
f 62 59 60
f 62 60 61
f 65 66 64
f 64 66 70
f 64 70 71
f 67 68 66
f 66 68 70
f 68 69 70
f 73 74 72
f 72 74 75
f 72 75 76
f 78 79 77
f 77 79 80
f 82 83 81
f 81 83 84
f 81 84 86
f 86 84 85
f 88 89 87
f 87 89 90
f 92 93 91
f 91 93 97
f 97 93 96
f 96 93 94
f 96 94 95
f 99 119 98
f 98 119 120
f 98 120 106
f 106 120 105
f 105 120 121
f 105 121 122
f 119 99 113
f 113 99 100
f 113 100 107
f 107 100 112
f 112 100 101
f 112 101 102
f 103 110 102
f 102 110 111
f 102 111 112
f 110 103 116
f 116 103 104
f 116 104 122
f 122 104 105
f 113 107 118
f 118 107 108
f 118 108 117
f 117 108 109
f 117 109 116
f 116 109 110
f 119 113 124
f 124 113 114
f 124 114 123
f 123 114 115
f 123 115 122
f 122 115 116
f 126 127 125
f 125 127 128
f 130 131 129
f 129 131 132
f 134 135 133
f 133 135 137
f 137 135 136
f 138 139 141
f 141 139 140
f 143 144 142
f 142 144 145
f 146 147 150
f 150 147 148
f 150 148 149
f 152 153 151
f 151 153 154
f 155 156 159
f 159 156 158
f 158 156 157
f 160 161 162
f 178 163 185
f 185 163 164
f 185 164 190
f 190 164 192
f 190 192 193
f 192 164 191
f 191 164 165
f 191 165 166
f 166 167 191
f 191 167 196
f 196 167 195
f 195 167 168
f 195 168 194
f 194 168 169
f 194 169 188
f 188 169 172
f 188 172 182
f 182 172 173
f 182 173 181
f 181 173 174
f 181 174 180
f 180 174 179
f 179 174 175
f 179 175 176
f 169 170 172
f 172 170 171
f 176 177 179
f 179 177 184
f 184 177 186
f 184 186 187
f 186 177 185
f 185 177 178
f 182 183 188
f 188 183 187
f 187 183 184
f 194 188 193
f 193 188 189
f 193 189 190
f 197 198 202
f 202 198 201
f 201 198 199
f 201 199 200
f 204 205 203
f 203 205 206
f 203 206 207
f 207 208 203
f 210 217 209
f 209 217 218
f 209 218 214
f 214 218 219
f 214 219 213
f 213 219 215
f 213 215 212
f 212 215 211
f 211 215 220
f 221 216 210
f 210 216 217
f 223 224 222
f 222 224 225
f 222 225 227
f 227 225 226
f 229 230 228
f 228 230 231
f 232 233 235
f 235 233 234
f 237 238 236
f 236 238 239
f 236 239 240
f 241 242 244
f 244 242 243
f 246 250 245
f 245 250 251
f 245 251 257
f 257 251 252
f 257 252 256
f 256 252 255
f 255 252 253
f 255 253 254
f 246 247 250
f 250 247 249
f 249 247 248
f 258 259 262
f 262 259 261
f 261 259 260
f 263 264 265
f 267 277 266
f 266 277 278
f 279 272 271
f 271 272 273
f 271 273 270
f 270 273 274
f 270 274 269
f 269 274 275
f 269 275 268
f 268 275 276
f 268 276 267
f 267 276 277
f 281 282 280
f 280 282 283
f 288 284 287
f 287 284 285
f 287 285 286
f 290 291 289
f 289 291 292
f 293 294 297
f 297 294 296
f 296 294 295
f 299 300 298
f 298 300 301
f 306 302 305
f 305 302 303
f 305 303 304
f 308 318 307
f 307 318 319
f 320 313 312
f 312 313 314
f 312 314 311
f 311 314 315
f 311 315 310
f 310 315 316
f 310 316 309
f 309 316 317
f 309 317 308
f 308 317 318
f 321 322 324
f 324 322 323
f 325 326 328
f 328 326 327
f 329 330 331
f 337 332 336
f 336 332 333
f 336 333 335
f 335 333 334
f 339 340 338
f 338 340 344
f 344 340 341
f 344 341 342
f 342 343 344
f 346 347 345
f 345 347 348
f 345 348 350
f 350 348 349
f 352 362 351
f 351 362 363
f 364 357 356
f 356 357 358
f 356 358 355
f 355 358 359
f 355 359 354
f 354 359 360
f 354 360 353
f 353 360 361
f 353 361 352
f 352 361 362
f 366 376 365
f 365 376 377
f 378 371 370
f 370 371 372
f 370 372 369
f 369 372 373
f 369 373 368
f 368 373 374
f 368 374 367
f 367 374 375
f 367 375 366
f 366 375 376
f 380 381 379
f 379 381 382
f 384 385 383
f 383 385 387
f 383 387 389
f 389 387 388
f 385 386 387
f 389 390 383
f 397 391 396
f 396 391 392
f 396 392 395
f 395 392 394
f 394 392 393
f 399 400 398
f 398 400 401
f 402 403 405
f 405 403 404
f 406 407 409
f 409 407 408
f 411 421 410
f 410 421 422
f 423 416 415
f 415 416 417
f 415 417 414
f 414 417 418
f 414 418 413
f 413 418 419
f 413 419 412
f 412 419 420
f 412 420 411
f 411 420 421
f 425 432 424
f 424 432 433
f 424 433 429
f 429 433 434
f 429 434 428
f 428 434 430
f 428 430 427
f 427 430 426
f 426 430 435
f 436 431 425
f 425 431 432
f 437 438 445
f 445 438 441
f 445 441 442
f 439 440 438
f 438 440 441
f 442 443 445
f 445 443 444
f 447 457 446
f 446 457 458
f 459 452 451
f 451 452 453
f 451 453 450
f 450 453 454
f 450 454 449
f 449 454 455
f 449 455 448
f 448 455 456
f 448 456 447
f 447 456 457
f 460 461 462
v -0.23712348 -0.016413547 0.23745568
v -0.23712337 -0.015713654 0.23744346
v -0.23712601 -0.015708418 0.2377434
v -0.23712471 -0.0072097125 0.23759507
v -0.23712207 -0.0072149481 0.23729512
v -0.23712197 -0.0065150548 0.23728291
v -0.2371283 -0.0065024893 0.23800277
v -0.23712982 -0.016400982 0.23817554
v -0.238112 -0.016436235 0.23614712
v -0.23761202 -0.016436235 0.23615152
v -0.23761191 -0.015736342 0.23613931
v -0.23811189 -0.015736342 0.23613491
v -0.2430132 -0.015733378 0.23626174
v -0.2430119 -0.0072346728 0.2361134
v -0.2429119 -0.0072346728 0.23611428
v -0.2429132 -0.015733378 0.23626262
v -0.23759213 -0.010699811 0.23389115
v -0.23759602 -0.010267022 0.23433365
v -0.24109589 -0.010267025 0.23430284
v -0.24109199 -0.010699813 0.23386034
v -0.24629834 -0.011511951 0.23455883
v -0.24629993 -0.01181196 0.23473908
v -0.24630301 -0.011805852 0.23508902
v -0.2463045 -0.011499735 0.23525869
v -0.24630291 -0.011199726 0.23507844
v -0.24629983 -0.011205834 0.23472851
v -0.24650273 -0.011503225 0.23505697
v -0.24650184 -0.011647671 0.23495583
v -0.24650036 -0.011596115 0.23478721
v -0.24650033 -0.011419807 0.23478413
v -0.2465018 -0.011362398 0.23495086
v -0.24650184 -0.011647671 0.23495583
v -0.24630301 -0.011805852 0.23508902
v -0.23759213 -0.010699811 0.23389115
v -0.24109199 -0.010699813 0.23386034
v -0.24109224 -0.012349562 0.23388914
v -0.23759238 -0.01234956 0.23391995
v -0.23759251 -0.01319943 0.23393478
v -0.24109237 -0.013199433 0.23390397
v -0.24109263 -0.014874178 0.2339332
v -0.23739277 -0.014874175 0.23396577
v -0.23739175 -0.0081751957 0.23384885
v -0.2410916 -0.0081751982 0.23381628
v -0.24109186 -0.009849943 0.23384551
v -0.237592 -0.0098499406 0.23387632
v -0.24650235 -0.009003606 0.23501334
v -0.24650142 -0.0088627783 0.23490723
v -0.24649995 -0.0089201874 0.2347405
v -0.24649998 -0.0090964961 0.23474358
v -0.24650146 -0.0091480515 0.23491221
v -0.24202811 -0.0065024925 0.23795964
v -0.24201738 -0.0065237841 0.23673987
v -0.24201748 -0.0072236774 0.23675209
v -0.24201942 -0.0072198379 0.23697204
v -0.24202072 -0.015718543 0.23712038
v -0.24201878 -0.015722383 0.23690042
v -0.24201889 -0.016422276 0.23691264
v -0.24202963 -0.016400985 0.23813241
v -0.23761906 -0.016422273 0.23695137
v -0.24201889 -0.016422276 0.23691264
v -0.24201878 -0.015722383 0.23690042
v -0.24111882 -0.015722382 0.23690834
v -0.23761895 -0.01572238 0.23693915
v -0.24302068 -0.015718544 0.23711158
v -0.2430132 -0.015733378 0.23626174
v -0.2429132 -0.015733378 0.23626262
v -0.24290555 -0.015748562 0.23539279
v -0.24110562 -0.01574856 0.23540863
v -0.24111882 -0.015722382 0.23690834
v -0.24201878 -0.015722383 0.23690042
v -0.24202072 -0.015718543 0.23712038
v -0.23712197 -0.0065150548 0.23728291
v -0.23761755 -0.0065237811 0.2367786
v -0.24201738 -0.0065237841 0.23673987
v -0.24202811 -0.0065024925 0.23795964
v -0.2371283 -0.0065024893 0.23800277
v -0.24299394 -0.016471666 0.23407438
v -0.24299249 -0.0069824514 0.23390875
v -0.24298514 -0.0078471566 0.23307375
v -0.24298646 -0.016486501 0.23322454
v -0.23759868 -0.011511945 0.23463541
v -0.23760017 -0.011205828 0.23480509
v -0.23760325 -0.01119972 0.23515502
v -0.23760484 -0.011499729 0.23533528
v -0.23760334 -0.011805846 0.2351656
v -0.23760026 -0.011811954 0.23481567
v -0.23759602 -0.010267022 0.23433365
v -0.237592 -0.0098499406 0.23387632
v -0.24109186 -0.009849943 0.23384551
v -0.24109589 -0.010267025 0.23430284
v -0.24289604 -0.0065660302 0.23431175
v -0.24290414 -0.0065499628 0.23523223
v -0.23810433 -0.0065499596 0.23527449
v -0.23811049 -0.0065377431 0.23597435
v -0.23761051 -0.0065377428 0.23597875
v -0.23710612 -0.0065464685 0.23548325
v -0.23709626 -0.0065660263 0.2343628
v -0.24289604 -0.0065660302 0.23431175
v -0.2428925 -0.0069824513 0.23390963
v -0.24289395 -0.016471666 0.23407526
v -0.24290565 -0.016448455 0.235405
v -0.24290555 -0.015748562 0.23539279
v -0.2429132 -0.015733378 0.23626262
v -0.2429119 -0.0072346728 0.23611428
v -0.24290425 -0.0072498561 0.23524445
v -0.24290414 -0.0065499628 0.23523223
v -0.24289885 -0.014011568 0.23463239
v -0.24290035 -0.013705451 0.23480206
v -0.24290343 -0.013699343 0.235152
v -0.24290501 -0.013999352 0.23533225
v -0.24290352 -0.014305469 0.23516258
v -0.24290044 -0.014311577 0.23481264
v -0.24289847 -0.011511949 0.23458876
v -0.24289997 -0.011205832 0.23475843
v -0.24290305 -0.011199724 0.23510837
v -0.24290463 -0.011499732 0.23528862
v -0.24290314 -0.011805849 0.23511895
v -0.24290006 -0.011811958 0.23476901
v -0.24289809 -0.0090123297 0.23454513
v -0.24289958 -0.0087062131 0.23471481
v -0.24290266 -0.0087001048 0.23506474
v -0.24290425 -0.0090001132 0.235245
v -0.24290276 -0.0093062302 0.23507532
v -0.24289968 -0.0093123384 0.23472539
v -0.23710612 -0.0065464685 0.23548325
v -0.23761051 -0.0065377428 0.23597875
v -0.23761061 -0.0072376361 0.23599097
v -0.23710623 -0.0072463618 0.23549547
v -0.23761051 -0.0065377428 0.23597875
v -0.23811049 -0.0065377431 0.23597435
v -0.23811059 -0.0072376364 0.23598657
v -0.23761061 -0.0072376361 0.23599097
v -0.24290414 -0.0065499628 0.23523223
v -0.24290425 -0.0072498561 0.23524445
v -0.24110432 -0.0072498549 0.23526029
v -0.23810443 -0.0072498529 0.2352867
v -0.23810433 -0.0065499596 0.23527449
v -0.23708537 -0.0078471527 0.23312568
v -0.23708669 -0.016486497 0.23327647
v -0.24298646 -0.016486501 0.23322454
v -0.24298514 -0.0078471566 0.23307375
v -0.23761755 -0.0065237811 0.2367786
v -0.23712197 -0.0065150548 0.23728291
v -0.23712207 -0.0072149481 0.23729512
v -0.23761765 -0.0072236744 0.23679082
v -0.24290555 -0.015748562 0.23539279
v -0.24290565 -0.016448455 0.235405
v -0.23810584 -0.016448452 0.23544726
v -0.23810573 -0.015748558 0.23543504
v -0.24110562 -0.01574856 0.23540863
v -0.24201942 -0.0072198379 0.23697204
v -0.24301938 -0.0072198386 0.23696324
v -0.24302068 -0.015718544 0.23711158
v -0.24202072 -0.015718543 0.23712038
v -0.23761906 -0.016422273 0.23695137
v -0.23712348 -0.016413547 0.23745568
v -0.23712982 -0.016400982 0.23817554
v -0.24202963 -0.016400985 0.23813241
v -0.24201889 -0.016422276 0.23691264
v -0.2375964 -0.012766642 0.23437728
v -0.23759251 -0.01319943 0.23393478
v -0.23759238 -0.01234956 0.23391995
v -0.24109199 -0.010699813 0.23386034
v -0.24109589 -0.010267025 0.23430284
v -0.24109186 -0.009849943 0.23384551
v -0.2410916 -0.0081751982 0.23381628
v -0.24109939 -0.007259628 0.2347004
v -0.24110432 -0.0072498549 0.23526029
v -0.24111752 -0.0072236768 0.23676001
v -0.24112192 -0.0072149507 0.23725991
v -0.24112322 -0.015713656 0.23740825
v -0.24111882 -0.015722382 0.23690834
v -0.24110562 -0.01574856 0.23540863
v -0.24110069 -0.015758334 0.23484874
v -0.24109263 -0.014874178 0.2339332
v -0.24109237 -0.013199433 0.23390397
v -0.24109627 -0.012766644 0.23434647
v -0.24109224 -0.012349562 0.23388914
v -0.24109892 -0.014011567 0.23464823
v -0.24110051 -0.014311576 0.23482849
v -0.24110359 -0.014305467 0.23517842
v -0.24110509 -0.013999351 0.2353481
v -0.2411035 -0.013699342 0.23516784
v -0.24110042 -0.01370545 0.23481791
v -0.24109854 -0.011511948 0.2346046
v -0.24110013 -0.011811956 0.23478486
v -0.24110321 -0.011805848 0.23513479
v -0.2411047 -0.011499731 0.23530447
v -0.24110312 -0.011199723 0.23512421
v -0.24110004 -0.011205831 0.23477428
v -0.24109816 -0.0090123285 0.23456097
v -0.24109975 -0.0093123372 0.23474123
v -0.24110283 -0.009306229 0.23509116
v -0.24110432 -0.009000112 0.23526084
v -0.24110273 -0.0087001036 0.23508058
v -0.24109965 -0.0087062119 0.23473065
v -0.24111752 -0.0072236768 0.23676001
v -0.23761765 -0.0072236744 0.23679082
v -0.23712207 -0.0072149481 0.23729512
v -0.23712471 -0.0072097125 0.23759507
v -0.23742206 -0.0072149483 0.23729248
v -0.24112192 -0.0072149507 0.23725991
v -0.2428925 -0.0069824513 0.23390963
v -0.24289604 -0.0065660302 0.23431175
v -0.23709626 -0.0065660263 0.2343628
v -0.23708537 -0.0078471527 0.23312568
v -0.24298514 -0.0078471566 0.23307375
v -0.24299249 -0.0069824514 0.23390875
v -0.24629872 -0.01401157 0.23460246
v -0.24630031 -0.014311579 0.23478271
v -0.24630339 -0.014305471 0.23513265
v -0.24630488 -0.013999354 0.23530232
v -0.2463033 -0.013699345 0.23512207
v -0.24630022 -0.013705454 0.23477213
v -0.24650312 -0.014002845 0.2351006
v -0.24650222 -0.01414729 0.23499946
v -0.24650074 -0.014095735 0.23483084
v -0.24650071 -0.013919426 0.23482776
v -0.24650218 -0.013862017 0.23499448
v -0.24650222 -0.01414729 0.23499946
v -0.24630339 -0.014305471 0.23513265
v -0.23759829 -0.0090123262 0.23459178
v -0.23759979 -0.0087062095 0.23476146
v -0.23760287 -0.0087001013 0.23511139
v -0.23760446 -0.0090001097 0.23529165
v -0.23760296 -0.0093062267 0.23512197
v -0.23759988 -0.0093123349 0.23477204
v -0.23761202 -0.016436235 0.23615152
v -0.23710764 -0.016444961 0.23565602
v -0.23710753 -0.015745067 0.2356438
v -0.23761191 -0.015736342 0.23613931
v -0.23810584 -0.016448452 0.23544726
v -0.238112 -0.016436235 0.23614712
v -0.23811189 -0.015736342 0.23613491
v -0.23810573 -0.015748558 0.23543504
v -0.23739277 -0.014874175 0.23396577
v -0.24109263 -0.014874178 0.2339332
v -0.24110069 -0.015758334 0.23484874
v -0.23710084 -0.015758331 0.23488395
v -0.23709278 -0.014874175 0.23396841
v -0.23759251 -0.01319943 0.23393478
v -0.2375964 -0.012766642 0.23437728
v -0.24109627 -0.012766644 0.23434647
v -0.24109237 -0.013199433 0.23390397
v -0.23709014 -0.014879411 0.23366847
v -0.23709278 -0.014874175 0.23396841
v -0.23710084 -0.015758331 0.23488395
v -0.23710753 -0.015745067 0.2356438
v -0.23710764 -0.016444961 0.23565602
v -0.23708669 -0.016486497 0.23327647
v -0.23708537 -0.0078471527 0.23312568
v -0.23709626 -0.0065660263 0.2343628
v -0.23710612 -0.0065464685 0.23548325
v -0.23710623 -0.0072463618 0.23549547
v -0.23709954 -0.0072596254 0.23473561
v -0.23709176 -0.0081751955 0.23385149
v -0.23708912 -0.0081804311 0.23355155
v -0.24650273 -0.011503225 0.23505697
v -0.2465018 -0.011362398 0.23495086
v -0.24650033 -0.011419807 0.23478413
v -0.24650036 -0.011596115 0.23478721
v -0.24650184 -0.011647671 0.23495583
v -0.23739277 -0.014874175 0.23396577
v -0.23709278 -0.014874175 0.23396841
v -0.23709014 -0.014879411 0.23366847
v -0.23759829 -0.0090123262 0.23459178
v -0.23759988 -0.0093123349 0.23477204
v -0.23760296 -0.0093062267 0.23512197
v -0.23760446 -0.0090001097 0.23529165
v -0.23760287 -0.0087001013 0.23511139
v -0.23759979 -0.0087062095 0.23476146
v -0.24109816 -0.0090123285 0.23456097
v -0.24109965 -0.0087062119 0.23473065
v -0.24110273 -0.0087001036 0.23508058
v -0.24110432 -0.009000112 0.23526084
v -0.24110283 -0.009306229 0.23509116
v -0.24109975 -0.0093123372 0.23474123
v -0.24109816 -0.0090123285 0.23456097
v -0.23759829 -0.0090123262 0.23459178
v -0.2371283 -0.0065024893 0.23800277
v -0.24202811 -0.0065024925 0.23795964
v -0.24202963 -0.016400985 0.23813241
v -0.23712982 -0.016400982 0.23817554
v -0.23709954 -0.0072596254 0.23473561
v -0.24109939 -0.007259628 0.2347004
v -0.2410916 -0.0081751982 0.23381628
v -0.23739175 -0.0081751957 0.23384885
v -0.23709176 -0.0081751955 0.23385149
v -0.23742206 -0.0072149483 0.23729248
v -0.23712471 -0.0072097125 0.23759507
v -0.23712601 -0.015708418 0.2377434
v -0.23742336 -0.015713654 0.23744082
v -0.24650312 -0.014002845 0.2351006
v -0.24650218 -0.013862017 0.23499448
v -0.24650071 -0.013919426 0.23482776
v -0.24650074 -0.014095735 0.23483084
v -0.24650222 -0.01414729 0.23499946
v -0.24301938 -0.0072198386 0.23696324
v -0.2430119 -0.0072346728 0.2361134
v -0.2430132 -0.015733378 0.23626174
v -0.24302068 -0.015718544 0.23711158
v -0.24201738 -0.0065237841 0.23673987
v -0.23761755 -0.0065237811 0.2367786
v -0.23761765 -0.0072236744 0.23679082
v -0.24111752 -0.0072236768 0.23676001
v -0.24201748 -0.0072236774 0.23675209
v -0.24289847 -0.011511949 0.23458876
v -0.24290006 -0.011811958 0.23476901
v -0.24290314 -0.011805849 0.23511895
v -0.24290463 -0.011499732 0.23528862
v -0.24290305 -0.011199724 0.23510837
v -0.24289997 -0.011205832 0.23475843
v -0.24629834 -0.011511951 0.23455883
v -0.24629983 -0.011205834 0.23472851
v -0.24630291 -0.011199726 0.23507844
v -0.2463045 -0.011499735 0.23525869
v -0.24630301 -0.011805852 0.23508902
v -0.24629993 -0.01181196 0.23473908
v -0.24629834 -0.011511951 0.23455883
v -0.24289847 -0.011511949 0.23458876
v -0.2428925 -0.0069824513 0.23390963
v -0.24299249 -0.0069824514 0.23390875
v -0.24299394 -0.016471666 0.23407438
v -0.24289395 -0.016471666 0.23407526
v -0.23739277 -0.014874175 0.23396577
v -0.23709014 -0.014879411 0.23366847
v -0.23708912 -0.0081804311 0.23355155
v -0.23739175 -0.0081751957 0.23384885
v -0.23709176 -0.0081751955 0.23385149
v -0.23739175 -0.0081751957 0.23384885
v -0.23708912 -0.0081804311 0.23355155
v -0.24112322 -0.015713656 0.23740825
v -0.23742336 -0.015713654 0.23744082
v -0.23712601 -0.015708418 0.2377434
v -0.23712337 -0.015713654 0.23744346
v -0.23761895 -0.01572238 0.23693915
v -0.24111882 -0.015722382 0.23690834
v -0.23811189 -0.015736342 0.23613491
v -0.23761191 -0.015736342 0.23613931
v -0.23710753 -0.015745067 0.2356438
v -0.23710084 -0.015758331 0.23488395
v -0.24110069 -0.015758334 0.23484874
v -0.24110562 -0.01574856 0.23540863
v -0.23810573 -0.015748558 0.23543504
v -0.23759906 -0.014011565 0.23467904
v -0.23760055 -0.013705448 0.23484872
v -0.23760363 -0.01369934 0.23519865
v -0.23760522 -0.013999348 0.23537891
v -0.23760373 -0.014305465 0.23520923
v -0.23760065 -0.014311573 0.2348593
v -0.24289885 -0.014011568 0.23463239
v -0.24290044 -0.014311577 0.23481264
v -0.24290352 -0.014305469 0.23516258
v -0.24290501 -0.013999352 0.23533225
v -0.24290343 -0.013699343 0.235152
v -0.24290035 -0.013705451 0.23480206
v -0.24629872 -0.01401157 0.23460246
v -0.24630022 -0.013705454 0.23477213
v -0.2463033 -0.013699345 0.23512207
v -0.24630488 -0.013999354 0.23530232
v -0.24630339 -0.014305471 0.23513265
v -0.24630031 -0.014311579 0.23478271
v -0.24629872 -0.01401157 0.23460246
v -0.24289885 -0.014011568 0.23463239
v -0.23759906 -0.014011565 0.23467904
v -0.23760065 -0.014311573 0.2348593
v -0.23760373 -0.014305465 0.23520923
v -0.23760522 -0.013999348 0.23537891
v -0.23760363 -0.01369934 0.23519865
v -0.23760055 -0.013705448 0.23484872
v -0.24109892 -0.014011567 0.23464823
v -0.24110042 -0.01370545 0.23481791
v -0.2411035 -0.013699342 0.23516784
v -0.24110509 -0.013999351 0.2353481
v -0.24110359 -0.014305467 0.23517842
v -0.24110051 -0.014311576 0.23482849
v -0.24109892 -0.014011567 0.23464823
v -0.23759906 -0.014011565 0.23467904
v -0.2375964 -0.012766642 0.23437728
v -0.23759238 -0.01234956 0.23391995
v -0.24109224 -0.012349562 0.23388914
v -0.24109627 -0.012766644 0.23434647
v -0.2429119 -0.0072346728 0.23611428
v -0.2430119 -0.0072346728 0.2361134
v -0.24301938 -0.0072198386 0.23696324
v -0.24201942 -0.0072198379 0.23697204
v -0.24201748 -0.0072236774 0.23675209
v -0.24111752 -0.0072236768 0.23676001
v -0.24110432 -0.0072498549 0.23526029
v -0.24290425 -0.0072498561 0.23524445
v -0.23811059 -0.0072376364 0.23598657
v -0.23810443 -0.0072498529 0.2352867
v -0.24110432 -0.0072498549 0.23526029
v -0.24109939 -0.007259628 0.2347004
v -0.23709954 -0.0072596254 0.23473561
v -0.23710623 -0.0072463618 0.23549547
v -0.23761061 -0.0072376361 0.23599097
v -0.23712348 -0.016413547 0.23745568
v -0.23761906 -0.016422273 0.23695137
v -0.23761895 -0.01572238 0.23693915
v -0.23712337 -0.015713654 0.23744346
v -0.23811049 -0.0065377431 0.23597435
v -0.23810433 -0.0065499596 0.23527449
v -0.23810443 -0.0072498529 0.2352867
v -0.23811059 -0.0072376364 0.23598657
v -0.24112192 -0.0072149507 0.23725991
v -0.23742206 -0.0072149483 0.23729248
v -0.23742336 -0.015713654 0.23744082
v -0.24112322 -0.015713656 0.23740825
v -0.23759868 -0.011511945 0.23463541
v -0.23760026 -0.011811954 0.23481567
v -0.23760334 -0.011805846 0.2351656
v -0.23760484 -0.011499729 0.23533528
v -0.23760325 -0.01119972 0.23515502
v -0.23760017 -0.011205828 0.23480509
v -0.24109854 -0.011511948 0.2346046
v -0.24110004 -0.011205831 0.23477428
v -0.24110312 -0.011199723 0.23512421
v -0.2411047 -0.011499731 0.23530447
v -0.24110321 -0.011805848 0.23513479
v -0.24110013 -0.011811956 0.23478486
v -0.24109854 -0.011511948 0.2346046
v -0.23759868 -0.011511945 0.23463541
v -0.24629796 -0.009012332 0.2345152
v -0.24629954 -0.0093123407 0.23469546
v -0.24630262 -0.0093062324 0.23504539
v -0.24630412 -0.0090001155 0.23521507
v -0.24630253 -0.0087001071 0.23503481
v -0.24629945 -0.0087062153 0.23468488
v -0.24650235 -0.009003606 0.23501334
v -0.24650146 -0.0091480515 0.23491221
v -0.24649998 -0.0090964961 0.23474358
v -0.24649995 -0.0089201874 0.2347405
v -0.24650142 -0.0088627783 0.23490723
v -0.24650146 -0.0091480515 0.23491221
v -0.24630262 -0.0093062324 0.23504539
v -0.24290565 -0.016448455 0.235405
v -0.24289395 -0.016471666 0.23407526
v -0.24299394 -0.016471666 0.23407438
v -0.24298646 -0.016486501 0.23322454
v -0.23708669 -0.016486497 0.23327647
v -0.23710764 -0.016444961 0.23565602
v -0.23761202 -0.016436235 0.23615152
v -0.238112 -0.016436235 0.23614712
v -0.23810584 -0.016448452 0.23544726
v -0.24289809 -0.0090123297 0.23454513
v -0.24289968 -0.0093123384 0.23472539
v -0.24290276 -0.0093062302 0.23507532
v -0.24290425 -0.0090001132 0.235245
v -0.24290266 -0.0087001048 0.23506474
v -0.24289958 -0.0087062131 0.23471481
v -0.24629796 -0.009012332 0.2345152
v -0.24629945 -0.0087062153 0.23468488
v -0.24630253 -0.0087001071 0.23503481
v -0.24630412 -0.0090001155 0.23521507
v -0.24630262 -0.0093062324 0.23504539
v -0.24629954 -0.0093123407 0.23469546
v -0.24629796 -0.009012332 0.2345152
v -0.24289809 -0.0090123297 0.23454513
v -0.23759602 -0.010267022 0.23433365
v -0.23759213 -0.010699811 0.23389115
v -0.237592 -0.0098499406 0.23387632
f 464 465 463
f 463 465 470
f 470 465 466
f 470 466 469
f 469 466 468
f 468 466 467
f 472 473 471
f 471 473 474
f 475 476 478
f 478 476 477
f 479 480 482
f 482 480 481
f 484 491 483
f 483 491 492
f 483 492 488
f 488 492 493
f 488 493 487
f 487 493 489
f 487 489 486
f 486 489 485
f 485 489 494
f 495 490 484
f 484 490 491
f 497 498 496
f 496 498 499
f 496 499 504
f 504 499 503
f 503 499 500
f 503 500 502
f 502 500 501
f 496 504 507
f 507 504 505
f 507 505 506
f 508 509 512
f 512 509 511
f 511 509 510
f 514 516 513
f 513 516 517
f 513 517 520
f 520 517 519
f 519 517 518
f 514 515 516
f 525 521 524
f 524 521 522
f 524 522 523
f 527 528 526
f 526 528 532
f 526 532 533
f 529 530 528
f 528 530 532
f 530 531 532
f 535 536 534
f 534 536 537
f 534 537 538
f 540 541 539
f 539 541 542
f 544 545 543
f 543 545 546
f 543 546 548
f 548 546 547
f 550 551 549
f 549 551 552
f 554 555 553
f 553 555 559
f 559 555 558
f 558 555 556
f 558 556 557
f 561 581 560
f 560 581 582
f 560 582 568
f 568 582 567
f 567 582 583
f 567 583 584
f 581 561 575
f 575 561 562
f 575 562 569
f 569 562 574
f 574 562 563
f 574 563 564
f 565 572 564
f 564 572 573
f 564 573 574
f 572 565 578
f 578 565 566
f 578 566 584
f 584 566 567
f 575 569 580
f 580 569 570
f 580 570 579
f 579 570 571
f 579 571 578
f 578 571 572
f 581 575 586
f 586 575 576
f 586 576 585
f 585 576 577
f 585 577 584
f 584 577 578
f 588 589 587
f 587 589 590
f 592 593 591
f 591 593 594
f 596 597 595
f 595 597 599
f 599 597 598
f 600 601 603
f 603 601 602
f 605 606 604
f 604 606 607
f 608 609 612
f 612 609 610
f 612 610 611
f 614 615 613
f 613 615 616
f 617 618 621
f 621 618 620
f 620 618 619
f 622 623 624
f 640 625 647
f 647 625 626
f 647 626 652
f 652 626 654
f 652 654 655
f 654 626 653
f 653 626 627
f 653 627 628
f 628 629 653
f 653 629 658
f 658 629 657
f 657 629 630
f 657 630 656
f 656 630 631
f 656 631 650
f 650 631 634
f 650 634 644
f 644 634 635
f 644 635 643
f 643 635 636
f 643 636 642
f 642 636 641
f 641 636 637
f 641 637 638
f 631 632 634
f 634 632 633
f 638 639 641
f 641 639 646
f 646 639 648
f 646 648 649
f 648 639 647
f 647 639 640
f 644 645 650
f 650 645 649
f 649 645 646
f 656 650 655
f 655 650 651
f 655 651 652
f 659 660 664
f 664 660 663
f 663 660 661
f 663 661 662
f 666 667 665
f 665 667 668
f 665 668 669
f 669 670 665
f 672 679 671
f 671 679 680
f 671 680 676
f 676 680 681
f 676 681 675
f 675 681 677
f 675 677 674
f 674 677 673
f 673 677 682
f 683 678 672
f 672 678 679
f 685 686 684
f 684 686 687
f 684 687 689
f 689 687 688
f 691 692 690
f 690 692 693
f 694 695 697
f 697 695 696
f 699 700 698
f 698 700 701
f 698 701 702
f 703 704 706
f 706 704 705
f 708 712 707
f 707 712 713
f 707 713 719
f 719 713 714
f 719 714 718
f 718 714 717
f 717 714 715
f 717 715 716
f 708 709 712
f 712 709 711
f 711 709 710
f 720 721 724
f 724 721 723
f 723 721 722
f 725 726 727
f 729 739 728
f 728 739 740
f 741 734 733
f 733 734 735
f 733 735 732
f 732 735 736
f 732 736 731
f 731 736 737
f 731 737 730
f 730 737 738
f 730 738 729
f 729 738 739
f 743 744 742
f 742 744 745
f 750 746 749
f 749 746 747
f 749 747 748
f 752 753 751
f 751 753 754
f 755 756 759
f 759 756 758
f 758 756 757
f 761 762 760
f 760 762 763
f 768 764 767
f 767 764 765
f 767 765 766
f 770 780 769
f 769 780 781
f 782 775 774
f 774 775 776
f 774 776 773
f 773 776 777
f 773 777 772
f 772 777 778
f 772 778 771
f 771 778 779
f 771 779 770
f 770 779 780
f 783 784 786
f 786 784 785
f 787 788 790
f 790 788 789
f 791 792 793
f 799 794 798
f 798 794 795
f 798 795 797
f 797 795 796
f 801 802 800
f 800 802 806
f 806 802 803
f 806 803 804
f 804 805 806
f 808 809 807
f 807 809 810
f 807 810 812
f 812 810 811
f 814 824 813
f 813 824 825
f 826 819 818
f 818 819 820
f 818 820 817
f 817 820 821
f 817 821 816
f 816 821 822
f 816 822 815
f 815 822 823
f 815 823 814
f 814 823 824
f 828 838 827
f 827 838 839
f 840 833 832
f 832 833 834
f 832 834 831
f 831 834 835
f 831 835 830
f 830 835 836
f 830 836 829
f 829 836 837
f 829 837 828
f 828 837 838
f 842 843 841
f 841 843 844
f 846 847 845
f 845 847 849
f 845 849 851
f 851 849 850
f 847 848 849
f 851 852 845
f 859 853 858
f 858 853 854
f 858 854 857
f 857 854 856
f 856 854 855
f 861 862 860
f 860 862 863
f 864 865 867
f 867 865 866
f 868 869 871
f 871 869 870
f 873 883 872
f 872 883 884
f 885 878 877
f 877 878 879
f 877 879 876
f 876 879 880
f 876 880 875
f 875 880 881
f 875 881 874
f 874 881 882
f 874 882 873
f 873 882 883
f 887 894 886
f 886 894 895
f 886 895 891
f 891 895 896
f 891 896 890
f 890 896 892
f 890 892 889
f 889 892 888
f 888 892 897
f 898 893 887
f 887 893 894
f 899 900 907
f 907 900 903
f 907 903 904
f 901 902 900
f 900 902 903
f 904 905 907
f 907 905 906
f 909 919 908
f 908 919 920
f 921 914 913
f 913 914 915
f 913 915 912
f 912 915 916
f 912 916 911
f 911 916 917
f 911 917 910
f 910 917 918
f 910 918 909
f 909 918 919
f 922 923 924
