v -0.030494396 0.0046198978 0.12852115
v -0.030494397 0.0013268896 0.12852115
v -0.030075535 0.0012268895 0.12862115
v -0.030075535 0.0047198977 0.12862115
v -0.030494397 0.0013268897 0.12223627
v -0.030494396 0.0046198979 0.12223627
v -0.030075535 0.0047198978 0.12213627
v -0.030075535 0.0012268896 0.12213627
v -0.030075535 0.0012268895 0.12862115
v -0.028878787 0.0015036376 0.12835188
v -0.028878787 0.0044431497 0.12835188
v -0.030075535 0.0047198977 0.12862115
v -0.030075535 0.0012268896 0.12213627
v -0.028878787 0.0015036376 0.12240554
v -0.028878787 0.0015036376 0.12835188
v -0.030075535 0.0012268895 0.12862115
v -0.030075535 0.0047198977 0.12862115
v -0.028878787 0.0044431497 0.12835188
v -0.028878787 0.0044431498 0.12240554
v -0.030075535 0.0047198978 0.12213627
v -0.030494396 0.0046198979 0.12223627
v -0.030494396 0.0046198978 0.12852115
v -0.030075535 0.0047198977 0.12862115
v -0.030075535 0.0047198978 0.12213627
v -0.030494396 0.0046198979 0.12223627
v -0.030494397 0.0013268897 0.12223627
v -0.030494397 0.0013268896 0.12852115
v -0.030494396 0.0046198978 0.12852115
v -0.028878787 0.0015036376 0.12835188
v -0.028878787 0.0015036376 0.12240554
v -0.028878787 0.0044431498 0.12240554
v -0.028878787 0.0044431497 0.12835188
v -0.030494397 0.0013268896 0.12852115
v -0.030494397 0.0013268897 0.12223627
v -0.030075535 0.0012268896 0.12213627
v -0.030075535 0.0012268895 0.12862115
v -0.030075535 0.0047198978 0.12213627
v -0.028878787 0.0044431498 0.12240554
v -0.028878787 0.0015036376 0.12240554
v -0.030075535 0.0012268896 0.12213627
f 1 2 4
f 4 2 3
f 6 7 5
f 5 7 8
f 9 10 12
f 12 10 11
f 13 14 16
f 16 14 15
f 18 19 17
f 17 19 20
f 22 23 21
f 21 23 24
f 25 26 28
f 28 26 27
f 30 31 29
f 29 31 32
f 33 34 36
f 36 34 35
f 38 39 37
f 37 39 40
