v 0.26164114 0.0070001306 0.046099576
v 0.26164114 0.017000131 0.046099576
v 0.26154114 0.017000131 0.046099576
v 0.26154114 0.0070001306 0.046099576
v 0.26164114 0.017000131 0.036099576
v 0.26164114 0.017000131 0.046099576
v 0.26164114 0.0070001306 0.046099576
v 0.26164114 0.0070001306 0.036099576
v 0.26164114 0.017000131 0.046099576
v 0.26164114 0.017000131 0.036099576
v 0.26154114 0.017000131 0.036099576
v 0.26154114 0.017000131 0.046099576
v 0.26164114 0.017000131 0.036099576
v 0.26164114 0.0070001306 0.036099576
v 0.26154114 0.0070001306 0.036099576
v 0.26154114 0.017000131 0.036099576
v 0.26154114 0.017000131 0.046099576
v 0.26154114 0.017000131 0.036099576
v 0.26154114 0.0070001306 0.036099576
v 0.26154114 0.0070001306 0.046099576
v 0.26164114 0.0070001306 0.036099576
v 0.26164114 0.0070001306 0.046099576
v 0.26154114 0.0070001306 0.046099576
v 0.26154114 0.0070001306 0.036099576
f 1 2 4
f 4 2 3
f 5 6 8
f 8 6 7
f 9 10 12
f 12 10 11
f 13 14 16
f 16 14 15
f 17 18 20
f 20 18 19
f 21 22 24
f 24 22 23
v -0.0847541 0.0032501757 0.056405239
v -0.087929524 0.0032501757 0.056401172
v -0.087926449 0.0032501757 0.054001174
v -0.084751026 0.0032501757 0.054005241
v -0.089517235 0.0060001757 0.056399138
v -0.087929524 0.0087501758 0.056401172
v -0.087926449 0.0087501758 0.054001174
v -0.089514161 0.0060001757 0.05399914
v -0.0847541 0.0087501758 0.056405239
v -0.083166388 0.0060001757 0.056407273
v -0.083163314 0.0060001757 0.054007275
v -0.084751026 0.0087501758 0.054005241
v -0.086338737 0.0072646758 0.054003208
v -0.085790092 0.0071394509 0.05400391
v -0.085350112 0.0067885786 0.054004474
v -0.085105942 0.0062815535 0.054004787
v -0.085105942 0.005718798 0.054004787
v -0.085350112 0.0052117729 0.054004474
v -0.085790092 0.0048609006 0.05400391
v -0.086338737 0.0047356757 0.054003208
v -0.086887383 0.0048609006 0.054002505
v -0.087327362 0.0052117729 0.054001941
v -0.087571533 0.005718798 0.054001629
v -0.087571533 0.0062815535 0.054001629
v -0.087327362 0.0067885786 0.054001941
v -0.086887383 0.0071394509 0.054002505
v -0.086341812 0.0072646758 0.056403206
v -0.086890457 0.0071394509 0.056402503
v -0.087330437 0.0067885786 0.056401939
v -0.087574607 0.0062815535 0.056401626
v -0.087574607 0.005718798 0.056401626
v -0.087330437 0.0052117729 0.056401939
v -0.086890457 0.0048609006 0.056402503
v -0.086341812 0.0047356757 0.056403206
v -0.085793166 0.0048609006 0.056403908
v -0.085353187 0.0052117729 0.056404472
v -0.085109016 0.005718798 0.056404785
v -0.085109016 0.0062815535 0.056404785
v -0.085353187 0.0067885786 0.056404472
v -0.085793166 0.0071394509 0.056403908
v -0.086338737 0.0072646758 0.054003208
v -0.086341812 0.0072646758 0.056403206
v -0.087929524 0.0087501758 0.056401172
v -0.0847541 0.0087501758 0.056405239
v -0.084751026 0.0087501758 0.054005241
v -0.087926449 0.0087501758 0.054001174
v -0.086341812 0.0072646758 0.056403206
v -0.085793166 0.0071394509 0.056403908
v -0.085353187 0.0067885786 0.056404472
v -0.085109016 0.0062815535 0.056404785
v -0.085109016 0.005718798 0.056404785
v -0.085353187 0.0052117729 0.056404472
v -0.085793166 0.0048609006 0.056403908
v -0.086341812 0.0047356757 0.056403206
v -0.086890457 0.0048609006 0.056402503
v -0.087330437 0.0052117729 0.056401939
v -0.087574607 0.005718798 0.056401626
v -0.087574607 0.0062815535 0.056401626
v -0.087330437 0.0067885786 0.056401939
v -0.086890457 0.0071394509 0.056402503
v -0.087929524 0.0032501757 0.056401172
v -0.0847541 0.0032501757 0.056405239
v -0.083166388 0.0060001757 0.056407273
v -0.0847541 0.0087501758 0.056405239
v -0.087929524 0.0087501758 0.056401172
v -0.089517235 0.0060001757 0.056399138
v -0.086338737 0.0072646758 0.054003208
v -0.086887383 0.0071394509 0.054002505
v -0.087327362 0.0067885786 0.054001941
v -0.087571533 0.0062815535 0.054001629
v -0.087571533 0.005718798 0.054001629
v -0.087327362 0.0052117729 0.054001941
v -0.086887383 0.0048609006 0.054002505
v -0.086338737 0.0047356757 0.054003208
v -0.085790092 0.0048609006 0.05400391
v -0.085350112 0.0052117729 0.054004474
v -0.085105942 0.005718798 0.054004787
v -0.085105942 0.0062815535 0.054004787
v -0.085350112 0.0067885786 0.054004474
v -0.085790092 0.0071394509 0.05400391
v -0.084751026 0.0032501757 0.054005241
v -0.087926449 0.0032501757 0.054001174
v -0.089514161 0.0060001757 0.05399914
v -0.087926449 0.0087501758 0.054001174
v -0.084751026 0.0087501758 0.054005241
v -0.083163314 0.0060001757 0.054007275
v -0.083166388 0.0060001757 0.056407273
v -0.0847541 0.0032501757 0.056405239
v -0.084751026 0.0032501757 0.054005241
v -0.083163314 0.0060001757 0.054007275
v -0.087929524 0.0032501757 0.056401172
v -0.089517235 0.0060001757 0.056399138
v -0.089514161 0.0060001757 0.05399914
v -0.087926449 0.0032501757 0.054001174
f 25 26 28
f 28 26 27
f 29 30 32
f 32 30 31
f 33 34 36
f 36 34 35
f 38 64 37
f 37 64 66
f 65 51 50
f 50 51 52
f 50 52 49
f 49 52 53
f 49 53 48
f 48 53 54
f 48 54 47
f 47 54 55
f 47 55 46
f 46 55 56
f 46 56 45
f 45 56 57
f 45 57 44
f 44 57 58
f 44 58 43
f 43 58 59
f 43 59 42
f 42 59 60
f 42 60 41
f 41 60 61
f 41 61 40
f 40 61 62
f 40 62 39
f 39 62 63
f 39 63 38
f 38 63 64
f 67 68 70
f 70 68 69
f 72 88 71
f 71 88 89
f 71 89 84
f 84 89 83
f 83 89 90
f 83 90 82
f 82 90 81
f 81 90 80
f 80 90 85
f 80 85 79
f 79 85 78
f 78 85 86
f 78 86 77
f 77 86 76
f 76 86 87
f 76 87 75
f 75 87 74
f 74 87 73
f 73 87 88
f 73 88 72
f 92 108 91
f 91 108 109
f 91 109 104
f 104 109 103
f 103 109 110
f 103 110 102
f 102 110 101
f 101 110 100
f 100 110 105
f 100 105 99
f 99 105 98
f 98 105 106
f 98 106 97
f 97 106 96
f 96 106 107
f 96 107 95
f 95 107 94
f 94 107 93
f 93 107 108
f 93 108 92
f 111 112 114
f 114 112 113
f 115 116 118
f 118 116 117
v -0.0847541 -0.0087498243 0.056405239
v -0.087929524 -0.0087498243 0.056401172
v -0.087926449 -0.0087498243 0.054001174
v -0.084751026 -0.0087498243 0.054005241
v -0.089517235 -0.0059998243 0.056399138
v -0.087929524 -0.0032498242 0.056401172
v -0.087926449 -0.0032498242 0.054001174
v -0.089514161 -0.0059998243 0.05399914
v -0.0847541 -0.0032498242 0.056405239
v -0.083166388 -0.0059998243 0.056407273
v -0.083163314 -0.0059998243 0.054007275
v -0.084751026 -0.0032498242 0.054005241
v -0.086338737 -0.0047353242 0.054003208
v -0.085790092 -0.0048605491 0.05400391
v -0.085350112 -0.0052114214 0.054004474
v -0.085105942 -0.0057184465 0.054004787
v -0.085105942 -0.006281202 0.054004787
v -0.085350112 -0.0067882271 0.054004474
v -0.085790092 -0.0071390994 0.05400391
v -0.086338737 -0.0072643243 0.054003208
v -0.086887383 -0.0071390994 0.054002505
v -0.087327362 -0.0067882271 0.054001941
v -0.087571533 -0.006281202 0.054001629
v -0.087571533 -0.0057184465 0.054001629
v -0.087327362 -0.0052114214 0.054001941
v -0.086887383 -0.0048605491 0.054002505
v -0.086341812 -0.0047353242 0.056403206
v -0.086890457 -0.0048605491 0.056402503
v -0.087330437 -0.0052114214 0.056401939
v -0.087574607 -0.0057184465 0.056401626
v -0.087574607 -0.006281202 0.056401626
v -0.087330437 -0.0067882271 0.056401939
v -0.086890457 -0.0071390994 0.056402503
v -0.086341812 -0.0072643243 0.056403206
v -0.085793166 -0.0071390994 0.056403908
v -0.085353187 -0.0067882271 0.056404472
v -0.085109016 -0.006281202 0.056404785
v -0.085109016 -0.0057184465 0.056404785
v -0.085353187 -0.0052114214 0.056404472
v -0.085793166 -0.0048605491 0.056403908
v -0.086338737 -0.0047353242 0.054003208
v -0.086341812 -0.0047353242 0.056403206
v -0.087929524 -0.0032498242 0.056401172
v -0.0847541 -0.0032498242 0.056405239
v -0.084751026 -0.0032498242 0.054005241
v -0.087926449 -0.0032498242 0.054001174
v -0.086341812 -0.0047353242 0.056403206
v -0.085793166 -0.0048605491 0.056403908
v -0.085353187 -0.0052114214 0.056404472
v -0.085109016 -0.0057184465 0.056404785
v -0.085109016 -0.006281202 0.056404785
v -0.085353187 -0.0067882271 0.056404472
v -0.085793166 -0.0071390994 0.056403908
v -0.086341812 -0.0072643243 0.056403206
v -0.086890457 -0.0071390994 0.056402503
v -0.087330437 -0.0067882271 0.056401939
v -0.087574607 -0.006281202 0.056401626
v -0.087574607 -0.0057184465 0.056401626
v -0.087330437 -0.0052114214 0.056401939
v -0.086890457 -0.0048605491 0.056402503
v -0.087929524 -0.0087498243 0.056401172
v -0.0847541 -0.0087498243 0.056405239
v -0.083166388 -0.0059998243 0.056407273
v -0.0847541 -0.0032498242 0.056405239
v -0.087929524 -0.0032498242 0.056401172
v -0.089517235 -0.0059998243 0.056399138
v -0.086338737 -0.0047353242 0.054003208
v -0.086887383 -0.0048605491 0.054002505
v -0.087327362 -0.0052114214 0.054001941
v -0.087571533 -0.0057184465 0.054001629
v -0.087571533 -0.006281202 0.054001629
v -0.087327362 -0.0067882271 0.054001941
v -0.086887383 -0.0071390994 0.054002505
v -0.086338737 -0.0072643243 0.054003208
v -0.085790092 -0.0071390994 0.05400391
v -0.085350112 -0.0067882271 0.054004474
v -0.085105942 -0.006281202 0.054004787
v -0.085105942 -0.0057184465 0.054004787
v -0.085350112 -0.0052114214 0.054004474
v -0.085790092 -0.0048605491 0.05400391
v -0.084751026 -0.0087498243 0.054005241
v -0.087926449 -0.0087498243 0.054001174
v -0.089514161 -0.0059998243 0.05399914
v -0.087926449 -0.0032498242 0.054001174
v -0.084751026 -0.0032498242 0.054005241
v -0.083163314 -0.0059998243 0.054007275
v -0.083166388 -0.0059998243 0.056407273
v -0.0847541 -0.0087498243 0.056405239
v -0.084751026 -0.0087498243 0.054005241
v -0.083163314 -0.0059998243 0.054007275
v -0.087929524 -0.0087498243 0.056401172
v -0.089517235 -0.0059998243 0.056399138
v -0.089514161 -0.0059998243 0.05399914
v -0.087926449 -0.0087498243 0.054001174
f 119 120 122
f 122 120 121
f 123 124 126
f 126 124 125
f 127 128 130
f 130 128 129
f 132 158 131
f 131 158 160
f 159 145 144
f 144 145 146
f 144 146 143
f 143 146 147
f 143 147 142
f 142 147 148
f 142 148 141
f 141 148 149
f 141 149 140
f 140 149 150
f 140 150 139
f 139 150 151
f 139 151 138
f 138 151 152
f 138 152 137
f 137 152 153
f 137 153 136
f 136 153 154
f 136 154 135
f 135 154 155
f 135 155 134
f 134 155 156
f 134 156 133
f 133 156 157
f 133 157 132
f 132 157 158
f 161 162 164
f 164 162 163
f 166 182 165
f 165 182 183
f 165 183 178
f 178 183 177
f 177 183 184
f 177 184 176
f 176 184 175
f 175 184 174
f 174 184 179
f 174 179 173
f 173 179 172
f 172 179 180
f 172 180 171
f 171 180 170
f 170 180 181
f 170 181 169
f 169 181 168
f 168 181 167
f 167 181 182
f 167 182 166
f 186 202 185
f 185 202 203
f 185 203 198
f 198 203 197
f 197 203 204
f 197 204 196
f 196 204 195
f 195 204 194
f 194 204 199
f 194 199 193
f 193 199 192
f 192 199 200
f 192 200 191
f 191 200 190
f 190 200 201
f 190 201 189
f 189 201 188
f 188 201 187
f 187 201 202
f 187 202 186
f 205 206 208
f 208 206 207
f 209 210 212
f 212 210 211
v -0.090646935 0.005104283 0.039091736
v -0.090646935 0.0082464494 0.038633344
v -0.092646935 0.0082464494 0.038633344
v -0.092646935 0.005104283 0.039091736
v -0.092846935 0.005286037 0.036925055
v -0.092846935 0.0050271314 0.036323882
v -0.092846935 0.0051034986 0.035673799
v -0.092846935 0.0054946761 0.035148994
v -0.092846935 0.0060958483 0.034890089
v -0.092846935 0.0067459315 0.034966456
v -0.092846935 0.0072707365 0.035357633
v -0.092846935 0.0075296421 0.035958806
v -0.092846935 0.0074532748 0.036608889
v -0.092846935 0.0070620973 0.037133694
v -0.092846935 0.0064609251 0.037392599
v -0.092846935 0.005810842 0.037316232
v -0.092846935 0.0091920319 0.035716289
v -0.092846935 0.0073671009 0.033405526
v -0.092846935 0.0044534558 0.033830581
v -0.092846935 0.0033647415 0.036566399
v -0.092846935 0.0051896725 0.038877162
v -0.092846935 0.0081033177 0.038452107
v -0.090646935 0.0031362203 0.036599737
v -0.090646935 0.004310324 0.033649344
v -0.090446935 0.0044534558 0.033830581
v -0.090446935 0.0033647415 0.036566399
v -0.092846935 0.0044534558 0.033830581
v -0.092846935 0.0073671009 0.033405526
v -0.092646935 0.0074524904 0.033190952
v -0.092646935 0.004310324 0.033649344
v -0.092646935 0.0082464494 0.038633344
v -0.092646935 0.0094205531 0.035682951
v -0.092846935 0.0091920319 0.035716289
v -0.092846935 0.0081033177 0.038452107
v -0.092646935 0.0094205531 0.035682951
v -0.092646935 0.0074524904 0.033190952
v -0.092846935 0.0073671009 0.033405526
v -0.092846935 0.0091920319 0.035716289
v -0.090446935 0.005286037 0.036925055
v -0.090446935 0.005810842 0.037316232
v -0.090446935 0.0064609251 0.037392599
v -0.090446935 0.0070620973 0.037133694
v -0.090446935 0.0074532748 0.036608889
v -0.090446935 0.0075296421 0.035958806
v -0.090446935 0.0072707365 0.035357633
v -0.090446935 0.0067459315 0.034966456
v -0.090446935 0.0060958483 0.034890089
v -0.090446935 0.0054946761 0.035148994
v -0.090446935 0.0051034986 0.035673799
v -0.090446935 0.0050271314 0.036323882
v -0.090446935 0.0081033177 0.038452107
v -0.090446935 0.0051896725 0.038877162
v -0.090446935 0.0033647415 0.036566399
v -0.090446935 0.0044534558 0.033830581
v -0.090446935 0.0073671009 0.033405526
v -0.090446935 0.0091920319 0.035716289
v -0.090446935 0.0081033177 0.038452107
v -0.090446935 0.0091920319 0.035716289
v -0.090646935 0.0094205531 0.035682951
v -0.090646935 0.0082464494 0.038633344
v -0.092846935 0.0051896725 0.038877162
v -0.092846935 0.0033647415 0.036566399
v -0.092646935 0.0031362203 0.036599737
v -0.092646935 0.005104283 0.039091736
v -0.090446935 0.005286037 0.036925055
v -0.090446935 0.0050271314 0.036323882
v -0.090446935 0.0051034986 0.035673799
v -0.090446935 0.0054946761 0.035148994
v -0.090446935 0.0060958483 0.034890089
v -0.090446935 0.0067459315 0.034966456
v -0.090446935 0.0072707365 0.035357633
v -0.090446935 0.0075296421 0.035958806
v -0.090446935 0.0074532748 0.036608889
v -0.090446935 0.0070620973 0.037133694
v -0.090446935 0.0064609251 0.037392599
v -0.090446935 0.005810842 0.037316232
v -0.092846935 0.005286037 0.036925055
v -0.092846935 0.005810842 0.037316232
v -0.092846935 0.0064609251 0.037392599
v -0.092846935 0.0070620973 0.037133694
v -0.092846935 0.0074532748 0.036608889
v -0.092846935 0.0075296421 0.035958806
v -0.092846935 0.0072707365 0.035357633
v -0.092846935 0.0067459315 0.034966456
v -0.092846935 0.0060958483 0.034890089
v -0.092846935 0.0054946761 0.035148994
v -0.092846935 0.0051034986 0.035673799
v -0.092846935 0.0050271314 0.036323882
v -0.090446935 0.005286037 0.036925055
v -0.092846935 0.005286037 0.036925055
v -0.090446935 0.0091920319 0.035716289
v -0.090446935 0.0073671009 0.033405526
v -0.090646935 0.0074524904 0.033190952
v -0.090646935 0.0094205531 0.035682951
v -0.092846935 0.0033647415 0.036566399
v -0.092846935 0.0044534558 0.033830581
v -0.092646935 0.004310324 0.033649344
v -0.092646935 0.0031362203 0.036599737
v -0.090646935 0.0031362203 0.036599737
v -0.090646935 0.005104283 0.039091736
v -0.092646935 0.005104283 0.039091736
v -0.092646935 0.0031362203 0.036599737
v -0.090646935 0.0074524904 0.033190952
v -0.090646935 0.004310324 0.033649344
v -0.092646935 0.004310324 0.033649344
v -0.092646935 0.0074524904 0.033190952
v -0.090446935 0.0073671009 0.033405526
v -0.090446935 0.0044534558 0.033830581
v -0.090646935 0.004310324 0.033649344
v -0.090646935 0.0074524904 0.033190952
v -0.090646935 0.004310324 0.033649344
v -0.090646935 0.0031362203 0.036599737
v -0.092646935 0.0031362203 0.036599737
v -0.092646935 0.004310324 0.033649344
v -0.090646935 0.005104283 0.039091736
v -0.090646935 0.0031362203 0.036599737
v -0.090446935 0.0033647415 0.036566399
v -0.090446935 0.0051896725 0.038877162
v -0.092846935 0.0081033177 0.038452107
v -0.092846935 0.0051896725 0.038877162
v -0.092646935 0.005104283 0.039091736
v -0.092646935 0.0082464494 0.038633344
v -0.090646935 0.0094205531 0.035682951
v -0.090646935 0.0074524904 0.033190952
v -0.092646935 0.0074524904 0.033190952
v -0.092646935 0.0094205531 0.035682951
v -0.090646935 0.0082464494 0.038633344
v -0.090646935 0.0094205531 0.035682951
v -0.092646935 0.0094205531 0.035682951
v -0.092646935 0.0082464494 0.038633344
v -0.090446935 0.0051896725 0.038877162
v -0.090446935 0.0081033177 0.038452107
v -0.090646935 0.0082464494 0.038633344
v -0.090646935 0.005104283 0.039091736
f 213 214 216
f 216 214 215
f 218 232 217
f 217 232 233
f 217 233 228
f 228 233 227
f 227 233 234
f 227 234 226
f 226 234 225
f 225 234 229
f 225 229 224
f 224 229 223
f 223 229 230
f 223 230 222
f 222 230 221
f 221 230 231
f 221 231 220
f 220 231 219
f 219 231 232
f 219 232 218
f 236 237 235
f 235 237 238
f 240 241 239
f 239 241 242
f 243 244 246
f 246 244 245
f 248 249 247
f 247 249 250
f 252 264 251
f 251 264 265
f 251 265 262
f 262 265 261
f 261 265 266
f 261 266 260
f 260 266 259
f 259 266 267
f 259 267 258
f 258 267 257
f 257 267 268
f 257 268 256
f 256 268 255
f 255 268 263
f 255 263 254
f 254 263 253
f 253 263 264
f 253 264 252
f 270 271 269
f 269 271 272
f 273 274 276
f 276 274 275
f 278 300 277
f 277 300 302
f 301 289 288
f 288 289 290
f 288 290 287
f 287 290 291
f 287 291 286
f 286 291 292
f 286 292 285
f 285 292 293
f 285 293 284
f 284 293 294
f 284 294 283
f 283 294 295
f 283 295 282
f 282 295 296
f 282 296 281
f 281 296 297
f 281 297 280
f 280 297 298
f 280 298 279
f 279 298 299
f 279 299 278
f 278 299 300
f 303 304 306
f 306 304 305
f 307 308 310
f 310 308 309
f 311 312 314
f 314 312 313
f 315 316 318
f 318 316 317
f 319 320 322
f 322 320 321
f 323 324 326
f 326 324 325
f 328 329 327
f 327 329 330
f 332 333 331
f 331 333 334
f 335 336 338
f 338 336 337
f 339 340 342
f 342 340 341
f 343 344 346
f 346 344 345
v -0.090646935 -0.0020076643 0.035995469
v -0.090646935 -0.0024660569 0.032853303
v -0.092646935 -0.0024660569 0.032853303
v -0.092646935 -0.0020076643 0.035995469
v -0.092846935 -0.0041743459 0.035813715
v -0.092846935 -0.0047755181 0.036072621
v -0.092846935 -0.0054256012 0.035996253
v -0.092846935 -0.0059504062 0.035605076
v -0.092846935 -0.0062093118 0.035003904
v -0.092846935 -0.0061329446 0.034353821
v -0.092846935 -0.0057417671 0.033829016
v -0.092846935 -0.0051405949 0.03357011
v -0.092846935 -0.0044905118 0.033646477
v -0.092846935 -0.0039657068 0.034037655
v -0.092846935 -0.0037068012 0.034638827
v -0.092846935 -0.0037831684 0.03528891
v -0.092846935 -0.0053831113 0.03190772
v -0.092846935 -0.0076938747 0.033732651
v -0.092846935 -0.0072688199 0.036646296
v -0.092846935 -0.0045330017 0.03773501
v -0.092846935 -0.0022222383 0.035910079
v -0.092846935 -0.0026472931 0.032996434
v -0.090646935 -0.0044996639 0.037963532
v -0.090646935 -0.0074500561 0.036789428
v -0.090446935 -0.0072688199 0.036646296
v -0.090446935 -0.0045330017 0.03773501
v -0.092846935 -0.0072688199 0.036646296
v -0.092846935 -0.0076938747 0.033732651
v -0.092646935 -0.0079084487 0.033647262
v -0.092646935 -0.0074500561 0.036789428
v -0.092646935 -0.0024660569 0.032853303
v -0.092646935 -0.0054164491 0.031679199
v -0.092846935 -0.0053831113 0.03190772
v -0.092846935 -0.0026472931 0.032996434
v -0.092646935 -0.0054164491 0.031679199
v -0.092646935 -0.0079084487 0.033647262
v -0.092846935 -0.0076938747 0.033732651
v -0.092846935 -0.0053831113 0.03190772
v -0.090446935 -0.0041743459 0.035813715
v -0.090446935 -0.0037831684 0.03528891
v -0.090446935 -0.0037068012 0.034638827
v -0.090446935 -0.0039657068 0.034037655
v -0.090446935 -0.0044905118 0.033646477
v -0.090446935 -0.0051405949 0.03357011
v -0.090446935 -0.0057417671 0.033829016
v -0.090446935 -0.0061329446 0.034353821
v -0.090446935 -0.0062093118 0.035003904
v -0.090446935 -0.0059504062 0.035605076
v -0.090446935 -0.0054256012 0.035996253
v -0.090446935 -0.0047755181 0.036072621
v -0.090446935 -0.0026472931 0.032996434
v -0.090446935 -0.0022222383 0.035910079
v -0.090446935 -0.0045330017 0.03773501
v -0.090446935 -0.0072688199 0.036646296
v -0.090446935 -0.0076938747 0.033732651
v -0.090446935 -0.0053831113 0.03190772
v -0.090446935 -0.0026472931 0.032996434
v -0.090446935 -0.0053831113 0.03190772
v -0.090646935 -0.0054164491 0.031679199
v -0.090646935 -0.0024660569 0.032853303
v -0.092846935 -0.0022222383 0.035910079
v -0.092846935 -0.0045330017 0.03773501
v -0.092646935 -0.0044996639 0.037963532
v -0.092646935 -0.0020076643 0.035995469
v -0.090446935 -0.0041743459 0.035813715
v -0.090446935 -0.0047755181 0.036072621
v -0.090446935 -0.0054256012 0.035996253
v -0.090446935 -0.0059504062 0.035605076
v -0.090446935 -0.0062093118 0.035003904
v -0.090446935 -0.0061329446 0.034353821
v -0.090446935 -0.0057417671 0.033829016
v -0.090446935 -0.0051405949 0.03357011
v -0.090446935 -0.0044905118 0.033646477
v -0.090446935 -0.0039657068 0.034037655
v -0.090446935 -0.0037068012 0.034638827
v -0.090446935 -0.0037831684 0.03528891
v -0.092846935 -0.0041743459 0.035813715
v -0.092846935 -0.0037831684 0.03528891
v -0.092846935 -0.0037068012 0.034638827
v -0.092846935 -0.0039657068 0.034037655
v -0.092846935 -0.0044905118 0.033646477
v -0.092846935 -0.0051405949 0.03357011
v -0.092846935 -0.0057417671 0.033829016
v -0.092846935 -0.0061329446 0.034353821
v -0.092846935 -0.0062093118 0.035003904
v -0.092846935 -0.0059504062 0.035605076
v -0.092846935 -0.0054256012 0.035996253
v -0.092846935 -0.0047755181 0.036072621
v -0.090446935 -0.0041743459 0.035813715
v -0.092846935 -0.0041743459 0.035813715
v -0.090446935 -0.0053831113 0.03190772
v -0.090446935 -0.0076938747 0.033732651
v -0.090646935 -0.0079084487 0.033647262
v -0.090646935 -0.0054164491 0.031679199
v -0.092846935 -0.0045330017 0.03773501
v -0.092846935 -0.0072688199 0.036646296
v -0.092646935 -0.0074500561 0.036789428
v -0.092646935 -0.0044996639 0.037963532
v -0.090646935 -0.0044996639 0.037963532
v -0.090646935 -0.0020076643 0.035995469
v -0.092646935 -0.0020076643 0.035995469
v -0.092646935 -0.0044996639 0.037963532
v -0.090646935 -0.0079084487 0.033647262
v -0.090646935 -0.0074500561 0.036789428
v -0.092646935 -0.0074500561 0.036789428
v -0.092646935 -0.0079084487 0.033647262
v -0.090446935 -0.0076938747 0.033732651
v -0.090446935 -0.0072688199 0.036646296
v -0.090646935 -0.0074500561 0.036789428
v -0.090646935 -0.0079084487 0.033647262
v -0.090646935 -0.0074500561 0.036789428
v -0.090646935 -0.0044996639 0.037963532
v -0.092646935 -0.0044996639 0.037963532
v -0.092646935 -0.0074500561 0.036789428
v -0.090646935 -0.0020076643 0.035995469
v -0.090646935 -0.0044996639 0.037963532
v -0.090446935 -0.0045330017 0.03773501
v -0.090446935 -0.0022222383 0.035910079
v -0.092846935 -0.0026472931 0.032996434
v -0.092846935 -0.0022222383 0.035910079
v -0.092646935 -0.0020076643 0.035995469
v -0.092646935 -0.0024660569 0.032853303
v -0.090646935 -0.0054164491 0.031679199
v -0.090646935 -0.0079084487 0.033647262
v -0.092646935 -0.0079084487 0.033647262
v -0.092646935 -0.0054164491 0.031679199
v -0.090646935 -0.0024660569 0.032853303
v -0.090646935 -0.0054164491 0.031679199
v -0.092646935 -0.0054164491 0.031679199
v -0.092646935 -0.0024660569 0.032853303
v -0.090446935 -0.0022222383 0.035910079
v -0.090446935 -0.0026472931 0.032996434
v -0.090646935 -0.0024660569 0.032853303
v -0.090646935 -0.0020076643 0.035995469
f 347 348 350
f 350 348 349
f 352 366 351
f 351 366 367
f 351 367 362
f 362 367 361
f 361 367 368
f 361 368 360
f 360 368 359
f 359 368 363
f 359 363 358
f 358 363 357
f 357 363 364
f 357 364 356
f 356 364 355
f 355 364 365
f 355 365 354
f 354 365 353
f 353 365 366
f 353 366 352
f 370 371 369
f 369 371 372
f 374 375 373
f 373 375 376
f 377 378 380
f 380 378 379
f 382 383 381
f 381 383 384
f 386 398 385
f 385 398 399
f 385 399 396
f 396 399 395
f 395 399 400
f 395 400 394
f 394 400 393
f 393 400 401
f 393 401 392
f 392 401 391
f 391 401 402
f 391 402 390
f 390 402 389
f 389 402 397
f 389 397 388
f 388 397 387
f 387 397 398
f 387 398 386
f 404 405 403
f 403 405 406
f 407 408 410
f 410 408 409
f 412 434 411
f 411 434 436
f 435 423 422
f 422 423 424
f 422 424 421
f 421 424 425
f 421 425 420
f 420 425 426
f 420 426 419
f 419 426 427
f 419 427 418
f 418 427 428
f 418 428 417
f 417 428 429
f 417 429 416
f 416 429 430
f 416 430 415
f 415 430 431
f 415 431 414
f 414 431 432
f 414 432 413
f 413 432 433
f 413 433 412
f 412 433 434
f 437 438 440
f 440 438 439
f 441 442 444
f 444 442 443
f 445 446 448
f 448 446 447
f 449 450 452
f 452 450 451
f 453 454 456
f 456 454 455
f 457 458 460
f 460 458 459
f 462 463 461
f 461 463 464
f 466 467 465
f 465 467 468
f 469 470 472
f 472 470 471
f 473 474 476
f 476 474 475
f 477 478 480
f 480 478 479
v -0.090646935 -0.0051039315 0.043107416
v -0.090646935 -0.0082460979 0.043565809
v -0.092646935 -0.0082460979 0.043565809
v -0.092646935 -0.0051039315 0.043107416
v -0.092846935 -0.0052856855 0.045274098
v -0.092846935 -0.0050267799 0.04587527
v -0.092846935 -0.0051031471 0.046525353
v -0.092846935 -0.0054943246 0.047050158
v -0.092846935 -0.0060954968 0.047309064
v -0.092846935 -0.00674558 0.047232697
v -0.092846935 -0.007270385 0.046841519
v -0.092846935 -0.0075292906 0.046240347
v -0.092846935 -0.0074529233 0.045590264
v -0.092846935 -0.0070617458 0.045065459
v -0.092846935 -0.0064605736 0.044806553
v -0.092846935 -0.0058104905 0.04488292
v -0.092846935 -0.0091916804 0.046482863
v -0.092846935 -0.0073667494 0.048793627
v -0.092846935 -0.0044531043 0.048368572
v -0.092846935 -0.00336439 0.045632754
v -0.092846935 -0.005189321 0.04332199
v -0.092846935 -0.0081029662 0.043747045
v -0.090646935 -0.0031358688 0.045599416
v -0.090646935 -0.0043099725 0.048549808
v -0.090446935 -0.0044531043 0.048368572
v -0.090446935 -0.00336439 0.045632754
v -0.092846935 -0.0044531043 0.048368572
v -0.092846935 -0.0073667494 0.048793627
v -0.092646935 -0.0074521389 0.049008201
v -0.092646935 -0.0043099725 0.048549808
v -0.092646935 -0.0082460979 0.043565809
v -0.092646935 -0.0094202016 0.046516201
v -0.092846935 -0.0091916804 0.046482863
v -0.092846935 -0.0081029662 0.043747045
v -0.092646935 -0.0094202016 0.046516201
v -0.092646935 -0.0074521389 0.049008201
v -0.092846935 -0.0073667494 0.048793627
v -0.092846935 -0.0091916804 0.046482863
v -0.090446935 -0.0052856855 0.045274098
v -0.090446935 -0.0058104905 0.04488292
v -0.090446935 -0.0064605736 0.044806553
v -0.090446935 -0.0070617458 0.045065459
v -0.090446935 -0.0074529233 0.045590264
v -0.090446935 -0.0075292906 0.046240347
v -0.090446935 -0.007270385 0.046841519
v -0.090446935 -0.00674558 0.047232697
v -0.090446935 -0.0060954968 0.047309064
v -0.090446935 -0.0054943246 0.047050158
v -0.090446935 -0.0051031471 0.046525353
v -0.090446935 -0.0050267799 0.04587527
v -0.090446935 -0.0081029662 0.043747045
v -0.090446935 -0.005189321 0.04332199
v -0.090446935 -0.00336439 0.045632754
v -0.090446935 -0.0044531043 0.048368572
v -0.090446935 -0.0073667494 0.048793627
v -0.090446935 -0.0091916804 0.046482863
v -0.090446935 -0.0081029662 0.043747045
v -0.090446935 -0.0091916804 0.046482863
v -0.090646935 -0.0094202016 0.046516201
v -0.090646935 -0.0082460979 0.043565809
v -0.092846935 -0.005189321 0.04332199
v -0.092846935 -0.00336439 0.045632754
v -0.092646935 -0.0031358688 0.045599416
v -0.092646935 -0.0051039315 0.043107416
v -0.090446935 -0.0052856855 0.045274098
v -0.090446935 -0.0050267799 0.04587527
v -0.090446935 -0.0051031471 0.046525353
v -0.090446935 -0.0054943246 0.047050158
v -0.090446935 -0.0060954968 0.047309064
v -0.090446935 -0.00674558 0.047232697
v -0.090446935 -0.007270385 0.046841519
v -0.090446935 -0.0075292906 0.046240347
v -0.090446935 -0.0074529233 0.045590264
v -0.090446935 -0.0070617458 0.045065459
v -0.090446935 -0.0064605736 0.044806553
v -0.090446935 -0.0058104905 0.04488292
v -0.092846935 -0.0052856855 0.045274098
v -0.092846935 -0.0058104905 0.04488292
v -0.092846935 -0.0064605736 0.044806553
v -0.092846935 -0.0070617458 0.045065459
v -0.092846935 -0.0074529233 0.045590264
v -0.092846935 -0.0075292906 0.046240347
v -0.092846935 -0.007270385 0.046841519
v -0.092846935 -0.00674558 0.047232697
v -0.092846935 -0.0060954968 0.047309064
v -0.092846935 -0.0054943246 0.047050158
v -0.092846935 -0.0051031471 0.046525353
v -0.092846935 -0.0050267799 0.04587527
v -0.090446935 -0.0052856855 0.045274098
v -0.092846935 -0.0052856855 0.045274098
v -0.090446935 -0.0091916804 0.046482863
v -0.090446935 -0.0073667494 0.048793627
v -0.090646935 -0.0074521389 0.049008201
v -0.090646935 -0.0094202016 0.046516201
v -0.092846935 -0.00336439 0.045632754
v -0.092846935 -0.0044531043 0.048368572
v -0.092646935 -0.0043099725 0.048549808
v -0.092646935 -0.0031358688 0.045599416
v -0.090646935 -0.0031358688 0.045599416
v -0.090646935 -0.0051039315 0.043107416
v -0.092646935 -0.0051039315 0.043107416
v -0.092646935 -0.0031358688 0.045599416
v -0.090646935 -0.0074521389 0.049008201
v -0.090646935 -0.0043099725 0.048549808
v -0.092646935 -0.0043099725 0.048549808
v -0.092646935 -0.0074521389 0.049008201
v -0.090446935 -0.0073667494 0.048793627
v -0.090446935 -0.0044531043 0.048368572
v -0.090646935 -0.0043099725 0.048549808
v -0.090646935 -0.0074521389 0.049008201
v -0.090646935 -0.0043099725 0.048549808
v -0.090646935 -0.0031358688 0.045599416
v -0.092646935 -0.0031358688 0.045599416
v -0.092646935 -0.0043099725 0.048549808
v -0.090646935 -0.0051039315 0.043107416
v -0.090646935 -0.0031358688 0.045599416
v -0.090446935 -0.00336439 0.045632754
v -0.090446935 -0.005189321 0.04332199
v -0.092846935 -0.0081029662 0.043747045
v -0.092846935 -0.005189321 0.04332199
v -0.092646935 -0.0051039315 0.043107416
v -0.092646935 -0.0082460979 0.043565809
v -0.090646935 -0.0094202016 0.046516201
v -0.090646935 -0.0074521389 0.049008201
v -0.092646935 -0.0074521389 0.049008201
v -0.092646935 -0.0094202016 0.046516201
v -0.090646935 -0.0082460979 0.043565809
v -0.090646935 -0.0094202016 0.046516201
v -0.092646935 -0.0094202016 0.046516201
v -0.092646935 -0.0082460979 0.043565809
v -0.090446935 -0.005189321 0.04332199
v -0.090446935 -0.0081029662 0.043747045
v -0.090646935 -0.0082460979 0.043565809
v -0.090646935 -0.0051039315 0.043107416
f 481 482 484
f 484 482 483
f 486 500 485
f 485 500 501
f 485 501 496
f 496 501 495
f 495 501 502
f 495 502 494
f 494 502 493
f 493 502 497
f 493 497 492
f 492 497 491
f 491 497 498
f 491 498 490
f 490 498 489
f 489 498 499
f 489 499 488
f 488 499 487
f 487 499 500
f 487 500 486
f 504 505 503
f 503 505 506
f 508 509 507
f 507 509 510
f 511 512 514
f 514 512 513
f 516 517 515
f 515 517 518
f 520 532 519
f 519 532 533
f 519 533 530
f 530 533 529
f 529 533 534
f 529 534 528
f 528 534 527
f 527 534 535
f 527 535 526
f 526 535 525
f 525 535 536
f 525 536 524
f 524 536 523
f 523 536 531
f 523 531 522
f 522 531 521
f 521 531 532
f 521 532 520
f 538 539 537
f 537 539 540
f 541 542 544
f 544 542 543
f 546 568 545
f 545 568 570
f 569 557 556
f 556 557 558
f 556 558 555
f 555 558 559
f 555 559 554
f 554 559 560
f 554 560 553
f 553 560 561
f 553 561 552
f 552 561 562
f 552 562 551
f 551 562 563
f 551 563 550
f 550 563 564
f 550 564 549
f 549 564 565
f 549 565 548
f 548 565 566
f 548 566 547
f 547 566 567
f 547 567 546
f 546 567 568
f 571 572 574
f 574 572 573
f 575 576 578
f 578 576 577
f 579 580 582
f 582 580 581
f 583 584 586
f 586 584 585
f 587 588 590
f 590 588 589
f 591 592 594
f 594 592 593
f 596 597 595
f 595 597 598
f 600 601 599
f 599 601 602
f 603 604 606
f 606 604 605
f 607 608 610
f 610 608 609
f 611 612 614
f 614 612 613
v -0.090646935 0.0020080158 0.046203683
v -0.090646935 0.0024664084 0.04934585
v -0.092646935 0.0024664084 0.04934585
v -0.092646935 0.0020080158 0.046203683
v -0.092846935 0.0041746974 0.046385437
v -0.092846935 0.0047758696 0.046126532
v -0.092846935 0.0054259527 0.046202899
v -0.092846935 0.0059507577 0.046594077
v -0.092846935 0.0062096633 0.047195249
v -0.092846935 0.0061332961 0.047845332
v -0.092846935 0.0057421186 0.048370137
v -0.092846935 0.0051409464 0.048629043
v -0.092846935 0.0044908633 0.048552675
v -0.092846935 0.0039660583 0.048161498
v -0.092846935 0.0037071527 0.047560326
v -0.092846935 0.0037835199 0.046910242
v -0.092846935 0.0053834628 0.050291432
v -0.092846935 0.0076942262 0.048466501
v -0.092846935 0.0072691714 0.045552856
v -0.092846935 0.0045333532 0.044464142
v -0.092846935 0.0022225898 0.046289073
v -0.092846935 0.0026476446 0.049202718
v -0.090646935 0.0045000154 0.044235621
v -0.090646935 0.0074504076 0.045409724
v -0.090446935 0.0072691714 0.045552856
v -0.090446935 0.0045333532 0.044464142
v -0.092846935 0.0072691714 0.045552856
v -0.092846935 0.0076942262 0.048466501
v -0.092646935 0.0079088002 0.048551891
v -0.092646935 0.0074504076 0.045409724
v -0.092646935 0.0024664084 0.04934585
v -0.092646935 0.0054168006 0.050519954
v -0.092846935 0.0053834628 0.050291432
v -0.092846935 0.0026476446 0.049202718
v -0.092646935 0.0054168006 0.050519954
v -0.092646935 0.0079088002 0.048551891
v -0.092846935 0.0076942262 0.048466501
v -0.092846935 0.0053834628 0.050291432
v -0.090446935 0.0041746974 0.046385437
v -0.090446935 0.0037835199 0.046910242
v -0.090446935 0.0037071527 0.047560326
v -0.090446935 0.0039660583 0.048161498
v -0.090446935 0.0044908633 0.048552675
v -0.090446935 0.0051409464 0.048629043
v -0.090446935 0.0057421186 0.048370137
v -0.090446935 0.0061332961 0.047845332
v -0.090446935 0.0062096633 0.047195249
v -0.090446935 0.0059507577 0.046594077
v -0.090446935 0.0054259527 0.046202899
v -0.090446935 0.0047758696 0.046126532
v -0.090446935 0.0026476446 0.049202718
v -0.090446935 0.0022225898 0.046289073
v -0.090446935 0.0045333532 0.044464142
v -0.090446935 0.0072691714 0.045552856
v -0.090446935 0.0076942262 0.048466501
v -0.090446935 0.0053834628 0.050291432
v -0.090446935 0.0026476446 0.049202718
v -0.090446935 0.0053834628 0.050291432
v -0.090646935 0.0054168006 0.050519954
v -0.090646935 0.0024664084 0.04934585
v -0.092846935 0.0022225898 0.046289073
v -0.092846935 0.0045333532 0.044464142
v -0.092646935 0.0045000154 0.044235621
v -0.092646935 0.0020080158 0.046203683
v -0.090446935 0.0041746974 0.046385437
v -0.090446935 0.0047758696 0.046126532
v -0.090446935 0.0054259527 0.046202899
v -0.090446935 0.0059507577 0.046594077
v -0.090446935 0.0062096633 0.047195249
v -0.090446935 0.0061332961 0.047845332
v -0.090446935 0.0057421186 0.048370137
v -0.090446935 0.0051409464 0.048629043
v -0.090446935 0.0044908633 0.048552675
v -0.090446935 0.0039660583 0.048161498
v -0.090446935 0.0037071527 0.047560326
v -0.090446935 0.0037835199 0.046910242
v -0.092846935 0.0041746974 0.046385437
v -0.092846935 0.0037835199 0.046910242
v -0.092846935 0.0037071527 0.047560326
v -0.092846935 0.0039660583 0.048161498
v -0.092846935 0.0044908633 0.048552675
v -0.092846935 0.0051409464 0.048629043
v -0.092846935 0.0057421186 0.048370137
v -0.092846935 0.0061332961 0.047845332
v -0.092846935 0.0062096633 0.047195249
v -0.092846935 0.0059507577 0.046594077
v -0.092846935 0.0054259527 0.046202899
v -0.092846935 0.0047758696 0.046126532
v -0.090446935 0.0041746974 0.046385437
v -0.092846935 0.0041746974 0.046385437
v -0.090446935 0.0053834628 0.050291432
v -0.090446935 0.0076942262 0.048466501
v -0.090646935 0.0079088002 0.048551891
v -0.090646935 0.0054168006 0.050519954
v -0.092846935 0.0045333532 0.044464142
v -0.092846935 0.0072691714 0.045552856
v -0.092646935 0.0074504076 0.045409724
v -0.092646935 0.0045000154 0.044235621
v -0.090646935 0.0045000154 0.044235621
v -0.090646935 0.0020080158 0.046203683
v -0.092646935 0.0020080158 0.046203683
v -0.092646935 0.0045000154 0.044235621
v -0.090646935 0.0079088002 0.048551891
v -0.090646935 0.0074504076 0.045409724
v -0.092646935 0.0074504076 0.045409724
v -0.092646935 0.0079088002 0.048551891
v -0.090446935 0.0076942262 0.048466501
v -0.090446935 0.0072691714 0.045552856
v -0.090646935 0.0074504076 0.045409724
v -0.090646935 0.0079088002 0.048551891
v -0.090646935 0.0074504076 0.045409724
v -0.090646935 0.0045000154 0.044235621
v -0.092646935 0.0045000154 0.044235621
v -0.092646935 0.0074504076 0.045409724
v -0.090646935 0.0020080158 0.046203683
v -0.090646935 0.0045000154 0.044235621
v -0.090446935 0.0045333532 0.044464142
v -0.090446935 0.0022225898 0.046289073
v -0.092846935 0.0026476446 0.049202718
v -0.092846935 0.0022225898 0.046289073
v -0.092646935 0.0020080158 0.046203683
v -0.092646935 0.0024664084 0.04934585
v -0.090646935 0.0054168006 0.050519954
v -0.090646935 0.0079088002 0.048551891
v -0.092646935 0.0079088002 0.048551891
v -0.092646935 0.0054168006 0.050519954
v -0.090646935 0.0024664084 0.04934585
v -0.090646935 0.0054168006 0.050519954
v -0.092646935 0.0054168006 0.050519954
v -0.092646935 0.0024664084 0.04934585
v -0.090446935 0.0022225898 0.046289073
v -0.090446935 0.0026476446 0.049202718
v -0.090646935 0.0024664084 0.04934585
v -0.090646935 0.0020080158 0.046203683
f 615 616 618
f 618 616 617
f 620 634 619
f 619 634 635
f 619 635 630
f 630 635 629
f 629 635 636
f 629 636 628
f 628 636 627
f 627 636 631
f 627 631 626
f 626 631 625
f 625 631 632
f 625 632 624
f 624 632 623
f 623 632 633
f 623 633 622
f 622 633 621
f 621 633 634
f 621 634 620
f 638 639 637
f 637 639 640
f 642 643 641
f 641 643 644
f 645 646 648
f 648 646 647
f 650 651 649
f 649 651 652
f 654 666 653
f 653 666 667
f 653 667 664
f 664 667 663
f 663 667 668
f 663 668 662
f 662 668 661
f 661 668 669
f 661 669 660
f 660 669 659
f 659 669 670
f 659 670 658
f 658 670 657
f 657 670 665
f 657 665 656
f 656 665 655
f 655 665 666
f 655 666 654
f 672 673 671
f 671 673 674
f 675 676 678
f 678 676 677
f 680 702 679
f 679 702 704
f 703 691 690
f 690 691 692
f 690 692 689
f 689 692 693
f 689 693 688
f 688 693 694
f 688 694 687
f 687 694 695
f 687 695 686
f 686 695 696
f 686 696 685
f 685 696 697
f 685 697 684
f 684 697 698
f 684 698 683
f 683 698 699
f 683 699 682
f 682 699 700
f 682 700 681
f 681 700 701
f 681 701 680
f 680 701 702
f 705 706 708
f 708 706 707
f 709 710 712
f 712 710 711
f 713 714 716
f 716 714 715
f 717 718 720
f 720 718 719
f 721 722 724
f 724 722 723
f 725 726 728
f 728 726 727
f 730 731 729
f 729 731 732
f 734 735 733
f 733 735 736
f 737 738 740
f 740 738 739
f 741 742 744
f 744 742 743
f 745 746 748
f 748 746 747
