v -0.091469585 0.0009599626 0.044982721
v -0.091726221 0.0017186186 0.044711633
v -0.09229765 0.0031156519 0.043608323
v -0.092869078 0.0038956271 0.042008124
v -0.093440507 0.0039040601 0.040227977
v -0.094011935 0.0031392813 0.03862046
v -0.094583364 0.0017527638 0.037503963
v -0.095154793 1.9125074e-05 0.037099621
v -0.095726221 -0.0017182671 0.037487519
v -0.09629765 -0.0031153004 0.03859083
v -0.096869078 -0.0038952756 0.040191028
v -0.097440507 -0.0039037086 0.041971176
v -0.098011935 -0.0031389298 0.043578692
v -0.098583364 -0.0017524123 0.044695189
v -0.099154792 -1.8773574e-05 0.045099531
v -0.099726221 0.0017186186 0.044711633
v -0.10029765 0.0031156519 0.043608323
v -0.10086908 0.0038956271 0.042008124
v -0.10144051 0.0039040601 0.040227977
v -0.10201194 0.0031392813 0.03862046
v -0.10258336 0.0017527638 0.037503963
v -0.10315479 1.9125074e-05 0.037099621
v -0.10372622 -0.0017182671 0.037487519
v -0.10429765 -0.0031153004 0.03859083
v -0.10486908 -0.0038952756 0.040191028
v -0.10544051 -0.0039037086 0.041971176
v -0.10601193 -0.0031389298 0.043578692
v -0.10622429 -0.0026824828 0.044066619
v -0.10622429 -0.0020711423 0.044521512
v -0.10622429 -0.0013846301 0.044852217
v -0.10622429 -0.00064786113 0.045046733
v -0.10585336 -0.0017524123 0.044695189
v -0.10528194 -0.0031389298 0.043578692
v -0.10471051 -0.0039037086 0.041971176
v -0.10413908 -0.0038952756 0.040191028
v -0.10356765 -0.0031153004 0.03859083
v -0.10299622 -0.0017182671 0.037487519
v -0.10242479 1.9125074e-05 0.037099621
v -0.10185336 0.0017527638 0.037503963
v -0.10128194 0.0031392813 0.03862046
v -0.10071051 0.0039040601 0.040227977
v -0.10013908 0.0038956271 0.042008124
v -0.09956765 0.0031156519 0.043608323
v -0.098996221 0.0017186186 0.044711633
v -0.098424792 -1.8773574e-05 0.045099531
v -0.097853364 -0.0017524123 0.044695189
v -0.097281936 -0.0031389298 0.043578692
v -0.096710507 -0.0039037086 0.041971176
v -0.096139078 -0.0038952756 0.040191028
v -0.09556765 -0.0031153004 0.03859083
v -0.094996221 -0.0017182671 0.037487519
v -0.094424793 1.9125074e-05 0.037099621
v -0.093853364 0.0017527638 0.037503963
v -0.093281935 0.0031392813 0.03862046
v -0.092710507 0.0039040601 0.040227977
v -0.092139078 0.0038956271 0.042008124
v -0.091469585 0.0029114414 0.043842664
v -0.091469585 0.0023379427 0.044345319
v -0.091469585 0.0016794719 0.044729998
v -0.093281935 0.0031392813 0.03862046
v -0.094011935 0.0031392813 0.03862046
v -0.10128194 0.0031392813 0.03862046
v -0.10201194 0.0031392813 0.03862046
v -0.092046935 0.0014015191 0.043752167
v -0.092565401 0.0023368365 0.042981072
v -0.093136935 0.0029217692 0.041780948
v -0.093708458 0.0029280892 0.040445877
v -0.094280026 0.0023545371 0.03924029
v -0.094851713 0.0013147656 0.038402947
v -0.095423377 1.4657095e-05 0.038099626
v -0.095994937 -0.0012883546 0.038390411
v -0.096566349 -0.0023362172 0.039217781
v -0.097137612 -0.0029213434 0.040417928
v -0.097708758 -0.0029277606 0.04175315
v -0.098279843 -0.0023541434 0.042958928
v -0.098850938 -0.0013141196 0.043796349
v -0.099422107 -1.3767601e-05 0.044099529
v -0.099993402 0.0012892931 0.043808461
v -0.10056485 0.0023369674 0.042980877
v -0.10113644 0.0029218082 0.041780741
v -0.10170812 0.0029280522 0.040445738
v -0.10227979 0.0023544771 0.039240211
v -0.10285132 0.0013146175 0.038402867
v -0.10342288 1.444603e-05 0.038099616
v -0.10399456 -0.0012885035 0.038390469
v -0.10456623 -0.0023362535 0.039217818
v -0.10513718 -0.0029214072 0.040418101
v -0.10564694 -0.002956187 0.041609398
v -0.10607953 -0.0029422699 0.043423077
v -0.10622429 -0.0026824828 0.044066619
v -0.10601193 -0.0031389298 0.043578692
v -0.10544051 -0.0039037086 0.041971176
v -0.10486908 -0.0038952756 0.040191028
v -0.10429765 -0.0031153004 0.03859083
v -0.10372622 -0.0017182671 0.037487519
v -0.10315479 1.9125074e-05 0.037099621
v -0.10258336 0.0017527638 0.037503963
v -0.10201194 0.0031392813 0.03862046
v -0.10144051 0.0039040601 0.040227977
v -0.10086908 0.0038956271 0.042008124
v -0.10029765 0.0031156519 0.043608323
v -0.099726221 0.0017186186 0.044711633
v -0.099154792 -1.8773574e-05 0.045099531
v -0.098583364 -0.0017524123 0.044695189
v -0.098011935 -0.0031389298 0.043578692
v -0.097440507 -0.0039037086 0.041971176
v -0.096869078 -0.0038952756 0.040191028
v -0.09629765 -0.0031153004 0.03859083
v -0.095726221 -0.0017182671 0.037487519
v -0.095154793 1.9125074e-05 0.037099621
v -0.094583364 0.0017527638 0.037503963
v -0.094011935 0.0031392813 0.03862046
v -0.093440507 0.0039040601 0.040227977
v -0.092869078 0.0038956271 0.042008124
v -0.09229765 0.0031156519 0.043608323
v -0.091726221 0.0017186186 0.044711633
v -0.091469585 0.0009599626 0.044982721
v -0.091469585 0.0029114414 0.043842664
v -0.092139078 0.0038956271 0.042008124
v -0.092710507 0.0039040601 0.040227977
v -0.093281935 0.0031392813 0.03862046
v -0.093853364 0.0017527638 0.037503963
v -0.094424793 1.9125074e-05 0.037099621
v -0.094996221 -0.0017182671 0.037487519
v -0.09556765 -0.0031153004 0.03859083
v -0.096139078 -0.0038952756 0.040191028
v -0.096710507 -0.0039037086 0.041971176
v -0.097281936 -0.0031389298 0.043578692
v -0.097853364 -0.0017524123 0.044695189
v -0.098424792 -1.8773574e-05 0.045099531
v -0.098996221 0.0017186186 0.044711633
v -0.09956765 0.0031156519 0.043608323
v -0.10013908 0.0038956271 0.042008124
v -0.10071051 0.0039040601 0.040227977
v -0.10128194 0.0031392813 0.03862046
v -0.10185336 0.0017527638 0.037503963
v -0.10242479 1.9125074e-05 0.037099621
v -0.10299622 -0.0017182671 0.037487519
v -0.10356765 -0.0031153004 0.03859083
v -0.10413908 -0.0038952756 0.040191028
v -0.10471051 -0.0039037086 0.041971176
v -0.10528194 -0.0031389298 0.043578692
v -0.10585336 -0.0017524123 0.044695189
v -0.10622429 -0.00064786113 0.045046733
v -0.10564694 -0.0011808978 0.043857304
v -0.10501371 -0.0023540785 0.042959001
v -0.10444203 -0.0029276778 0.041753493
v -0.10387041 -0.002921465 0.040418467
v -0.10329892 -0.0023366224 0.039218286
v -0.10272759 -0.0012889094 0.038390673
v -0.10215639 1.4198051e-05 0.038099618
v -0.10158529 0.0013145686 0.038402843
v -0.10101421 0.0023545604 0.039240314
v -0.10044308 0.002928126 0.040446095
v -0.099871851 0.002921677 0.041781281
v -0.099300479 0.0023365606 0.04298138
v -0.098728957 0.0012887387 0.043808729
v -0.098157317 -1.4236836e-05 0.044099532
v -0.097585626 -0.0013143415 0.043796239
v -0.09701401 -0.0023541579 0.042958904
v -0.096442514 -0.0029277302 0.041753293
v -0.095870875 -0.0029214332 0.040418271
v -0.09529919 -0.0023365589 0.039218192
v -0.094727564 -0.00128892 0.038390678
v -0.094156064 1.4057262e-05 0.038099628
v -0.093584714 0.0013143427 0.038402752
v -0.093013503 0.0023543701 0.039240085
v -0.092442815 0.0029281141 0.040445982
v -0.092046935 0.0029879147 0.04137053
v -0.091926864 0.0031242658 0.041828238
v -0.091536734 0.0030251683 0.043535558
v -0.091469585 0.0038833201 0.040139789
v -0.091726221 0.0036122326 0.039381133
v -0.09229765 0.0025089221 0.0379841
v -0.092869078 0.00090872372 0.037204125
v -0.093440507 -0.00087142379 0.037195692
v -0.094011935 -0.0024789404 0.037960471
v -0.094583364 -0.0035954375 0.039346988
v -0.095154793 -0.0039997792 0.041080627
v -0.095726221 -0.0036118811 0.042818019
v -0.09629765 -0.0025085706 0.044215052
v -0.096869078 -0.00090837222 0.044995028
v -0.097440507 0.00087177529 0.045003461
v -0.098011935 0.0024792919 0.044238682
v -0.098583364 0.0035957889 0.042852164
v -0.099154792 0.0040001307 0.041118526
v -0.099726221 0.0036122326 0.039381133
v -0.10029765 0.0025089221 0.0379841
v -0.10086908 0.00090872372 0.037204125
v -0.10144051 -0.00087142379 0.037195692
v -0.10201194 -0.0024789404 0.037960471
v -0.10258336 -0.0035954375 0.039346988
v -0.10315479 -0.0039997792 0.041080627
v -0.10372622 -0.0036118811 0.042818019
v -0.10429765 -0.0025085706 0.044215052
v -0.10486908 -0.00090837222 0.044995028
v -0.10544051 0.00087177529 0.045003461
v -0.10601193 0.0024792919 0.044238682
v -0.10622429 0.0029672184 0.043782235
v -0.10622429 0.0034221112 0.043170894
v -0.10622429 0.0037528165 0.042484382
v -0.10622429 0.0039473327 0.041747613
v -0.10585336 0.0035957889 0.042852164
v -0.10528194 0.0024792919 0.044238682
v -0.10471051 0.00087177529 0.045003461
v -0.10413908 -0.00090837222 0.044995028
v -0.10356765 -0.0025085706 0.044215052
v -0.10299622 -0.0036118811 0.042818019
v -0.10242479 -0.0039997792 0.041080627
v -0.10185336 -0.0035954375 0.039346988
v -0.10128194 -0.0024789404 0.037960471
v -0.10071051 -0.00087142379 0.037195692
v -0.10013908 0.00090872372 0.037204125
v -0.09956765 0.0025089221 0.0379841
v -0.098996221 0.0036122326 0.039381133
v -0.098424792 0.0040001307 0.041118526
v -0.097853364 0.0035957889 0.042852164
v -0.097281936 0.0024792919 0.044238682
v -0.096710507 0.00087177529 0.045003461
v -0.096139078 -0.00090837222 0.044995028
v -0.09556765 -0.0025085706 0.044215052
v -0.094996221 -0.0036118811 0.042818019
v -0.094424793 -0.0039997792 0.041080627
v -0.093853364 -0.0035954375 0.039346988
v -0.093281935 -0.0024789404 0.037960471
v -0.092710507 -0.00087142379 0.037195692
v -0.092139078 0.00090872372 0.037204125
v -0.091469585 0.002743264 0.038188311
v -0.091469585 0.0032459184 0.038761809
v -0.091469585 0.0036305979 0.03942028
v -0.093281935 -0.0024789404 0.037960471
v -0.094011935 -0.0024789404 0.037960471
v -0.10128194 -0.0024789404 0.037960471
v -0.10201194 -0.0024789404 0.037960471
v -0.092046935 0.0029879147 0.04137053
v -0.092442815 0.0029281141 0.040445982
v -0.093013503 0.0023543701 0.039240085
v -0.093584714 0.0013143427 0.038402752
v -0.094156064 1.4057262e-05 0.038099628
v -0.094727564 -0.00128892 0.038390678
v -0.09529919 -0.0023365589 0.039218192
v -0.095870875 -0.0029214332 0.040418271
v -0.096442514 -0.0029277302 0.041753293
v -0.09701401 -0.0023541579 0.042958904
v -0.097585626 -0.0013143415 0.043796239
v -0.098157317 -1.4236836e-05 0.044099532
v -0.098728957 0.0012887387 0.043808729
v -0.099300479 0.0023365606 0.04298138
v -0.099871851 0.002921677 0.041781281
v -0.10044308 0.002928126 0.040446095
v -0.10101421 0.0023545604 0.039240314
v -0.10158529 0.0013145686 0.038402843
v -0.10215639 1.4198051e-05 0.038099618
v -0.10272759 -0.0012889094 0.038390673
v -0.10329892 -0.0023366224 0.039218286
v -0.10387041 -0.002921465 0.040418467
v -0.10444203 -0.0029276778 0.041753493
v -0.10501371 -0.0023540785 0.042959001
v -0.10564694 -0.0011808978 0.043857304
v -0.10564694 -0.00063353215 0.044031882
v -0.10564694 -6.2924105e-05 0.044098913
v -0.10564694 0.00050999787 0.044055939
v -0.10513669 -0.00068109521 0.044021194
v -0.10456497 -0.001881169 0.043436337
v -0.10399381 -0.0027087956 0.042388542
v -0.10342272 -0.002999792 0.041085374
v -0.10285163 -0.0026964702 0.039785016
v -0.10228048 -0.0018589549 0.038745102
v -0.10170921 -0.00065320781 0.038171612
v -0.10113779 0.00068189819 0.03817808
v -0.10056623 0.0018819352 0.038763148
v -0.099994568 0.002709284 0.039810899
v -0.099422885 0.0030001356 0.041113848
v -0.098851316 0.002696885 0.042414018
v -0.098279797 0.0018595395 0.043453879
v -0.097708131 0.00065400845 0.044027454
v -0.097136453 -0.00068099534 0.044021208
v -0.096564857 -0.0018811276 0.043436366
v -0.095993397 -0.0027087082 0.042388695
v -0.095422088 -0.0029997759 0.041085641
v -0.094850909 -0.0026966018 0.039785292
v -0.09427981 -0.0018591863 0.038745266
v -0.093708727 -0.00065341145 0.038171642
v -0.093137589 0.000681815 0.038178054
v -0.092565989 0.0018818614 0.038763076
v -0.092046935 0.0026527662 0.039698233
v -0.092046935 0.0028715666 0.040230603
v -0.092046935 0.0029846706 0.04079496
v -0.099300479 0.0023365606 0.04298138
v -0.098279797 0.0018595395 0.043453879
v -0.092046935 0.0026527662 0.039698233
v -0.092565989 0.0018818614 0.038763076
v -0.093137589 0.000681815 0.038178054
v -0.093708727 -0.00065341145 0.038171642
v -0.09427981 -0.0018591863 0.038745266
v -0.094850909 -0.0026966018 0.039785292
v -0.095422088 -0.0029997759 0.041085641
v -0.095993397 -0.0027087082 0.042388695
v -0.096564857 -0.0018811276 0.043436366
v -0.097136453 -0.00068099534 0.044021208
v -0.097708131 0.00065400845 0.044027454
v -0.098279797 0.0018595395 0.043453879
v -0.098851316 0.002696885 0.042414018
v -0.099422885 0.0030001356 0.041113848
v -0.099994568 0.002709284 0.039810899
v -0.10056623 0.0018819352 0.038763148
v -0.10113779 0.00068189819 0.03817808
v -0.10170921 -0.00065320781 0.038171612
v -0.10228048 -0.0018589549 0.038745102
v -0.10285163 -0.0026964702 0.039785016
v -0.10342272 -0.002999792 0.041085374
v -0.10399381 -0.0027087956 0.042388542
v -0.10456497 -0.001881169 0.043436337
v -0.10513669 -0.00068109521 0.044021194
v -0.10564694 0.00050999787 0.044055939
v -0.10607926 0.0023236022 0.044041565
v -0.10622429 0.0029672184 0.043782235
v -0.10601193 0.0024792919 0.044238682
v -0.10544051 0.00087177529 0.045003461
v -0.10486908 -0.00090837222 0.044995028
v -0.10429765 -0.0025085706 0.044215052
v -0.10372622 -0.0036118811 0.042818019
v -0.10315479 -0.0039997792 0.041080627
v -0.10258336 -0.0035954375 0.039346988
v -0.10201194 -0.0024789404 0.037960471
v -0.10144051 -0.00087142379 0.037195692
v -0.10086908 0.00090872372 0.037204125
v -0.10029765 0.0025089221 0.0379841
v -0.099726221 0.0036122326 0.039381133
v -0.099154792 0.0040001307 0.041118526
v -0.098583364 0.0035957889 0.042852164
v -0.098011935 0.0024792919 0.044238682
v -0.097440507 0.00087177529 0.045003461
v -0.096869078 -0.00090837222 0.044995028
v -0.09629765 -0.0025085706 0.044215052
v -0.095726221 -0.0036118811 0.042818019
v -0.095154793 -0.0039997792 0.041080627
v -0.094583364 -0.0035954375 0.039346988
v -0.094011935 -0.0024789404 0.037960471
v -0.093440507 -0.00087142379 0.037195692
v -0.092869078 0.00090872372 0.037204125
v -0.09229765 0.0025089221 0.0379841
v -0.091726221 0.0036122326 0.039381133
v -0.091469585 0.0038833201 0.040139789
v -0.092046935 -0.00027077776 0.044087315
v -0.092442333 0.00065396739 0.044027467
v -0.093014455 0.0018593512 0.043454021
v -0.093586098 0.0026967442 0.042414271
v -0.094157621 0.0030001207 0.041114118
v -0.094728992 0.0027093329 0.039811027
v -0.095300219 0.0018818991 0.038763116
v -0.095871343 0.00068167398 0.038178011
v -0.096442424 -0.00065357892 0.038171676
v -0.097013532 -0.0018593062 0.038745373
v -0.097584731 -0.0026966458 0.039785403
v -0.098156065 -0.0029997722 0.041085694
v -0.09872755 -0.0027087196 0.042388677
v -0.099299168 -0.0018812014 0.043436316
v -0.099870855 -0.00068112135 0.044021187
v -0.1004425 0.00065389607 0.044027481
v -0.101014 0.0018595061 0.043453909
v -0.10158561 0.0026968424 0.042414087
v -0.1021573 0.0030001321 0.041113981
v -0.10272894 0.0027093266 0.039811008
v -0.10330048 0.0018819794 0.038763191
v -0.10387186 0.00068188402 0.038178076
v -0.1044431 -0.00065329728 0.038171625
v -0.10501379 -0.0018592314 0.038745294
v -0.10564694 -0.0027575524 0.039918503
v -0.10564694 -0.0029321296 0.040465868
v -0.10564694 -0.0029991606 0.041036476
v -0.10564694 -0.002956187 0.041609398
v -0.10513718 -0.0029214072 0.040418101
v -0.10456623 -0.0023362535 0.039217818
v -0.10399456 -0.0012885035 0.038390469
v -0.10342288 1.444603e-05 0.038099616
v -0.10285132 0.0013146175 0.038402867
v -0.10227979 0.0023544771 0.039240211
v -0.10170812 0.0029280522 0.040445738
v -0.10113644 0.0029218082 0.041780741
v -0.10056485 0.0023369674 0.042980877
v -0.099993402 0.0012892931 0.043808461
v -0.099422107 -1.3767601e-05 0.044099529
v -0.098850938 -0.0013141196 0.043796349
v -0.098279843 -0.0023541434 0.042958928
v -0.097708758 -0.0029277606 0.04175315
v -0.097137612 -0.0029213434 0.040417928
v -0.096566349 -0.0023362172 0.039217781
v -0.095994937 -0.0012883546 0.038390411
v -0.095423377 1.4657095e-05 0.038099626
v -0.094851713 0.0013147656 0.038402947
v -0.094280026 0.0023545371 0.03924029
v -0.093708458 0.0029280892 0.040445877
v -0.093136935 0.0029217692 0.041780948
v -0.092565401 0.0023368365 0.042981072
v -0.092046935 0.0014015191 0.043752167
v -0.092046935 0.00086914928 0.043970967
v -0.092046935 0.00030479231 0.044084071
v -0.093586098 0.0026967442 0.042414271
v -0.092565401 0.0023368365 0.042981072
v -0.10158561 0.0026968424 0.042414087
v -0.10056485 0.0023369674 0.042980877
v -0.092046935 0.00027112926 0.038111837
v -0.092442815 -0.00065341888 0.038171636
v -0.093013332 -0.0018593686 0.038745431
v -0.093584642 -0.0026966599 0.039785438
v -0.094156102 -0.0029997738 0.041085679
v -0.094727698 -0.002708751 0.042388622
v -0.095299376 -0.0018812736 0.043436265
v -0.095871041 -0.00068119857 0.044021169
v -0.096442561 0.00065387423 0.04402749
v -0.097014134 0.0018594601 0.043453939
v -0.097585821 0.0026968035 0.042414169
v -0.098157484 0.0030001261 0.04111406
v -0.09872904 0.0027093407 0.039811046
v -0.099300449 0.0018819704 0.038763183
v -0.099871709 0.00068182266 0.038178057
v -0.10044285 -0.00065340041 0.03817164
v -0.10101394 -0.0018591772 0.038745258
v -0.10158503 -0.002696598 0.039785283
v -0.10215621 -0.0029997765 0.041085634
v -0.1027275 -0.002708709 0.042388694
v -0.10329895 -0.0018811258 0.043436368
v -0.10387055 -0.00068099107 0.044021208
v -0.10444222 0.00065401206 0.044027453
v -0.10501389 0.0018595406 0.043453879
v -0.10564694 0.0027579039 0.04228065
v -0.10564694 0.0029324811 0.041733284
v -0.10564694 0.0029995121 0.041162676
v -0.10564694 0.0029565385 0.040589754
v -0.10513689 0.0029217763 0.041780929
v -0.10456483 0.0023369714 0.042980871
v -0.10399342 0.001289287 0.043808465
v -0.10342215 -1.3787717e-05 0.04409953
v -0.10285101 -0.0013141469 0.043796338
v -0.10227992 -0.0023541637 0.042958902
v -0.10170883 -0.002927765 0.041753121
v -0.10113766 -0.0029213372 0.040417908
v -0.10056637 -0.0023362122 0.039217776
v -0.099994923 -0.0012883602 0.038390414
v -0.099423339 1.4641022e-05 0.038099624
v -0.098851667 0.0013147485 0.038402938
v -0.098279993 0.0023545296 0.039240278
v -0.097708456 0.0029280892 0.040445876
v -0.097136905 0.0029217709 0.041780936
v -0.096565226 0.0023368765 0.042981009
v -0.095993558 0.0012892364 0.043808495
v -0.095421983 -1.3714564e-05 0.044099525
v -0.094850551 -0.0013139664 0.04379641
v -0.094279267 -0.00235398 0.042959109
v -0.093708107 -0.0029276992 0.041753419
v -0.093137016 -0.0029214154 0.04041817
v -0.092566047 -0.0023363112 0.03921787
v -0.092046935 -0.0014011676 0.038446986
v -0.092046935 -0.00086879778 0.038228185
v -0.092046935 -0.00030444081 0.038115081
v -0.097585821 0.0026968035 0.042414169
v -0.096565226 0.0023368765 0.042981009
v -0.10399342 0.001289287 0.043808465
v -0.10444222 0.00065401206 0.044027453
v -0.091469585 0.002743264 0.038188311
v -0.092139078 0.00090872372 0.037204125
v -0.092710507 -0.00087142379 0.037195692
v -0.093281935 -0.0024789404 0.037960471
v -0.093853364 -0.0035954375 0.039346988
v -0.094424793 -0.0039997792 0.041080627
v -0.094996221 -0.0036118811 0.042818019
v -0.09556765 -0.0025085706 0.044215052
v -0.096139078 -0.00090837222 0.044995028
v -0.096710507 0.00087177529 0.045003461
v -0.097281936 0.0024792919 0.044238682
v -0.097853364 0.0035957889 0.042852164
v -0.098424792 0.0040001307 0.041118526
v -0.098996221 0.0036122326 0.039381133
v -0.09956765 0.0025089221 0.0379841
v -0.10013908 0.00090872372 0.037204125
v -0.10071051 -0.00087142379 0.037195692
v -0.10128194 -0.0024789404 0.037960471
v -0.10185336 -0.0035954375 0.039346988
v -0.10242479 -0.0039997792 0.041080627
v -0.10299622 -0.0036118811 0.042818019
v -0.10356765 -0.0025085706 0.044215052
v -0.10413908 -0.00090837222 0.044995028
v -0.10471051 0.00087177529 0.045003461
v -0.10528194 0.0024792919 0.044238682
v -0.10585336 0.0035957889 0.042852164
v -0.10622429 0.0039473327 0.041747613
v -0.10564694 0.0027579039 0.04228065
v -0.10501389 0.0018595406 0.043453879
v -0.10444222 0.00065401206 0.044027453
v -0.10387055 -0.00068099107 0.044021208
v -0.10329895 -0.0018811258 0.043436368
v -0.1027275 -0.002708709 0.042388694
v -0.10215621 -0.0029997765 0.041085634
v -0.10158503 -0.002696598 0.039785283
v -0.10101394 -0.0018591772 0.038745258
v -0.10044285 -0.00065340041 0.03817164
v -0.099871709 0.00068182266 0.038178057
v -0.099300449 0.0018819704 0.038763183
v -0.09872904 0.0027093407 0.039811046
v -0.098157484 0.0030001261 0.04111406
v -0.097585821 0.0026968035 0.042414169
v -0.097014134 0.0018594601 0.043453939
v -0.096442561 0.00065387423 0.04402749
v -0.095871041 -0.00068119857 0.044021169
v -0.095299376 -0.0018812736 0.043436265
v -0.094727698 -0.002708751 0.042388622
v -0.094156102 -0.0029997738 0.041085679
v -0.093584642 -0.0026966599 0.039785438
v -0.093013332 -0.0018593686 0.038745431
v -0.092442815 -0.00065341888 0.038171636
v -0.092046935 0.00027112926 0.038111837
v -0.091926864 0.0007288376 0.037975486
v -0.091536734 0.0024361574 0.038074584
v -0.092846935 0.0066937896 0.049575161
v -0.092846935 0.0091889357 0.04677467
v -0.092846935 0.010575782 0.043289679
v -0.092846935 0.010687054 0.039540529
v -0.092846935 0.0095093307 0.035979424
v -0.092846935 0.0071846632 0.033035884
v -0.092846935 0.0039934407 0.031064944
v -0.092846935 0.00032057078 0.03030433
v -0.092846935 -0.0033909427 0.030845781
v -0.092846935 -0.0066934381 0.032623991
v -0.092846935 -0.0091885842 0.035424482
v -0.092846935 -0.010575431 0.038909473
v -0.092846935 -0.010686703 0.042658623
v -0.092846935 -0.0095089792 0.046219729
v -0.092846935 -0.0071843117 0.049163268
v -0.092846935 -0.0039930892 0.051134208
v -0.092846935 -0.00032021928 0.051894823
v -0.092846935 0.0033912942 0.051353371
v -0.093046935 0.0068177452 0.049732116
v -0.093046935 0.0034540925 0.051543256
v -0.093046935 -0.00032615298 0.052094734
v -0.093046935 -0.0040670386 0.051320035
v -0.093046935 -0.0073173583 0.049312596
v -0.093046935 -0.0096850753 0.046314547
v -0.093046935 -0.010884608 0.042687494
v -0.093046935 -0.010771275 0.038868916
v -0.093046935 -0.0093587462 0.035319388
v -0.093046935 -0.0068173937 0.032467036
v -0.093046935 -0.003453741 0.030655896
v -0.093046935 0.00032650448 0.030104418
v -0.093046935 0.0040673901 0.030879118
v -0.093046935 0.0073177098 0.032886556
v -0.093046935 0.0096854268 0.035884606
v -0.093046935 0.01088496 0.039511658
v -0.093046935 0.010771626 0.043330236
v -0.093046935 0.0093590977 0.046879764
v -0.092846935 -0.0066934381 0.032623991
v -0.093046935 -0.0068173937 0.032467036
v -0.092046935 -0.0029875632 0.040828623
v -0.092442333 -0.0029277149 0.041753368
v -0.093014455 -0.002354269 0.042958752
v -0.093586098 -0.0013145185 0.043796145
v -0.094157621 -1.4365626e-05 0.044099521
v -0.094728992 0.0012887249 0.043808733
v -0.095300219 0.0023366364 0.0429813
v -0.095871343 0.002921741 0.041781074
v -0.096442424 0.0029280759 0.040445822
v -0.097013532 0.0023543785 0.039240094
v -0.097584731 0.0013143493 0.038402755
v -0.098156065 1.4057797e-05 0.038099628
v -0.09872755 -0.0012889252 0.038390681
v -0.099299168 -0.0023365642 0.039218199
v -0.099870855 -0.0029214347 0.040418279
v -0.1004425 -0.0029277287 0.041753297
v -0.101014 -0.0023541569 0.042958907
v -0.10158561 -0.001314335 0.043796243
v -0.1021573 -1.4228834e-05 0.044099533
v -0.10272894 0.0012887435 0.043808727
v -0.10330048 0.0023365612 0.04298138
v -0.10387186 0.0029216758 0.041781285
v -0.1044431 0.002928127 0.040446103
v -0.10501379 0.0023544584 0.039240169
v -0.10564694 0.0011812493 0.038341848
v -0.10564694 0.00063388365 0.038167271
v -0.10564694 6.3275605e-05 0.03810024
v -0.10564694 -0.00050964637 0.038143213
v -0.1051366 0.00068140871 0.038177947
v -0.10456567 0.0018817607 0.038762989
v -0.10399458 0.0027092846 0.039810902
v -0.1034234 0.0030001248 0.041114065
v -0.10285209 0.0026967242 0.042414303
v -0.10228063 0.0018592548 0.043454086
v -0.10170903 0.0006536355 0.04402753
v -0.10113735 -0.00068136606 0.044021129
v -0.10056568 -0.0018814087 0.043436159
v -0.099994165 -0.0027088657 0.04238841
v -0.099422589 -0.0029997843 0.041085429
v -0.098850904 -0.0026966031 0.039785294
v -0.098279244 -0.0018593653 0.038745427
v -0.097707688 -0.00065383756 0.038171753
v -0.097136277 0.00068127274 0.038177934
v -0.096565013 0.001881534 0.038762824
v -0.095993866 0.0027091585 0.03981063
v -0.09542278 0.0030001431 0.041113804
v -0.094851824 0.0026967883 0.04241421
v -0.094279885 0.0018595129 0.043453905
v -0.093708456 0.00065387548 0.04402749
v -0.093137027 -0.00068123515 0.044021165
v -0.092565599 -0.0018813841 0.043436183
v -0.092046935 -0.0026524147 0.04250092
v -0.092046935 -0.0028712151 0.04196855
v -0.092046935 -0.0029843191 0.041404193
v -0.10228063 0.0018592548 0.043454086
v -0.094728992 0.0012887249 0.043808733
v -0.094279885 0.0018595129 0.043453905
v -0.10272894 0.0012887435 0.043808727
v -0.091469585 -0.0009596111 0.037216432
v -0.091726221 -0.0017182671 0.037487519
v -0.09229765 -0.0031153004 0.03859083
v -0.092869078 -0.0038952756 0.040191028
v -0.093440507 -0.0039037086 0.041971176
v -0.094011935 -0.0031389298 0.043578692
v -0.094583364 -0.0017524123 0.044695189
v -0.095154793 -1.8773574e-05 0.045099531
v -0.095726221 0.0017186186 0.044711633
v -0.09629765 0.0031156519 0.043608323
v -0.096869078 0.0038956271 0.042008124
v -0.097440507 0.0039040601 0.040227977
v -0.098011935 0.0031392813 0.03862046
v -0.098583364 0.0017527638 0.037503963
v -0.099154792 1.9125074e-05 0.037099621
v -0.099726221 -0.0017182671 0.037487519
v -0.10029765 -0.0031153004 0.03859083
v -0.10086908 -0.0038952756 0.040191028
v -0.10144051 -0.0039037086 0.041971176
v -0.10201194 -0.0031389298 0.043578692
v -0.10258336 -0.0017524123 0.044695189
v -0.10315479 -1.8773574e-05 0.045099531
v -0.10372622 0.0017186186 0.044711633
v -0.10429765 0.0031156519 0.043608323
v -0.10486908 0.0038956271 0.042008124
v -0.10544051 0.0039040601 0.040227977
v -0.10601193 0.0031392813 0.03862046
v -0.10622429 0.0026828343 0.038132534
v -0.10622429 0.0020714938 0.037677641
v -0.10622429 0.0013849816 0.037346935
v -0.10622429 0.00064821263 0.037152419
v -0.10585336 0.0017527638 0.037503963
v -0.10528194 0.0031392813 0.03862046
v -0.10471051 0.0039040601 0.040227977
v -0.10413908 0.0038956271 0.042008124
v -0.10356765 0.0031156519 0.043608323
v -0.10299622 0.0017186186 0.044711633
v -0.10242479 -1.8773574e-05 0.045099531
v -0.10185336 -0.0017524123 0.044695189
v -0.10128194 -0.0031389298 0.043578692
v -0.10071051 -0.0039037086 0.041971176
v -0.10013908 -0.0038952756 0.040191028
v -0.09956765 -0.0031153004 0.03859083
v -0.098996221 -0.0017182671 0.037487519
v -0.098424792 1.9125074e-05 0.037099621
v -0.097853364 0.0017527638 0.037503963
v -0.097281936 0.0031392813 0.03862046
v -0.096710507 0.0039040601 0.040227977
v -0.096139078 0.0038956271 0.042008124
v -0.09556765 0.0031156519 0.043608323
v -0.094996221 0.0017186186 0.044711633
v -0.094424793 -1.8773574e-05 0.045099531
v -0.093853364 -0.0017524123 0.044695189
v -0.093281935 -0.0031389298 0.043578692
v -0.092710507 -0.0039037086 0.041971176
v -0.092139078 -0.0038952756 0.040191028
v -0.091469585 -0.0029110899 0.038356488
v -0.091469585 -0.0023375912 0.037853834
v -0.091469585 -0.0016791204 0.037469154
v -0.093281935 -0.0031389298 0.043578692
v -0.094011935 -0.0031389298 0.043578692
v -0.10128194 -0.0031389298 0.043578692
v -0.10201194 -0.0031389298 0.043578692
v -0.092646935 0.0031610488 0.045101936
v -0.092646935 0.0047387518 0.042985285
v -0.092646935 0.0050467572 0.04036336
v -0.092646935 0.0040025352 0.037938703
v -0.092646935 0.0018858842 0.036361
v -0.092646935 -0.00073604088 0.036052995
v -0.092646935 -0.0031606973 0.037097217
v -0.092646935 -0.0047384003 0.039213868
v -0.092646935 -0.0050464057 0.041835793
v -0.092646935 -0.0040021837 0.044260449
v -0.092646935 -0.0018855327 0.045838152
v -0.092646935 0.00073639238 0.046146158
v -0.092846935 0.0032850044 0.045258891
v -0.092846935 0.00097581732 0.046309003
v -0.092846935 -0.0015568777 0.046165698
v -0.092846935 -0.0037328704 0.044861805
v -0.092846935 -0.0050536676 0.042696031
v -0.092846935 -0.0052166898 0.040164529
v -0.092846935 -0.004184591 0.037847235
v -0.092846935 -0.0021938127 0.036275013
v -0.092846935 0.00029958187 0.03580804
v -0.092846935 0.0027243863 0.036553294
v -0.092846935 0.0045251066 0.038340048
v -0.092846935 0.0052892203 0.040758975
v -0.092846935 0.0048416771 0.04325593
v -0.092646935 -0.0031606973 0.037097217
v -0.092846935 -0.004184591 0.037847235
v -0.096146936 -0.0068173937 0.032467036
v -0.096146936 -0.003453741 0.030655896
v -0.096146936 0.00032650448 0.030104418
v -0.096146936 0.0040673901 0.030879118
v -0.096146936 0.0073177098 0.032886556
v -0.096146936 0.0096854268 0.035884606
v -0.096146936 0.01088496 0.039511658
v -0.096146936 0.010771626 0.043330236
v -0.096146936 0.0093590977 0.046879764
v -0.096146936 0.0068177452 0.049732116
v -0.096146936 0.0034540925 0.051543256
v -0.096146936 -0.00032615298 0.052094734
v -0.096146936 -0.0040670386 0.051320035
v -0.096146936 -0.0073173583 0.049312596
v -0.096146936 -0.0096850753 0.046314547
v -0.096146936 -0.010884608 0.042687494
v -0.096146936 -0.010771275 0.038868916
v -0.096146936 -0.0093587462 0.035319388
v -0.093046935 0.0068177452 0.049732116
v -0.093046935 0.0093590977 0.046879764
v -0.093046935 0.010771626 0.043330236
v -0.093046935 0.01088496 0.039511658
v -0.093046935 0.0096854268 0.035884606
v -0.093046935 0.0073177098 0.032886556
v -0.093046935 0.0040673901 0.030879118
v -0.093046935 0.00032650448 0.030104418
v -0.093046935 -0.003453741 0.030655896
v -0.093046935 -0.0068173937 0.032467036
v -0.093046935 -0.0093587462 0.035319388
v -0.093046935 -0.010771275 0.038868916
v -0.093046935 -0.010884608 0.042687494
v -0.093046935 -0.0096850753 0.046314547
v -0.093046935 -0.0073173583 0.049312596
v -0.093046935 -0.0040670386 0.051320035
v -0.093046935 -0.00032615298 0.052094734
v -0.093046935 0.0034540925 0.051543256
v -0.096146936 0.0068177452 0.049732116
v -0.093046935 0.0068177452 0.049732116
v -0.093046935 0.0051937735 0.034767985
v -0.093046935 0.0045284066 0.036133054
v -0.093046935 0.0051808102 0.037504365
v -0.093046935 0.0066597118 0.037849293
v -0.093046935 0.0078514676 0.036908101
v -0.093046935 0.0078586617 0.035389525
v -0.093046935 0.0066758764 0.034437084
v -0.092846935 0.0050698177 0.03461103
v -0.092846935 0.0065058946 0.034204661
v -0.092846935 0.0078087007 0.034932775
v -0.092846935 0.0082150695 0.036368852
v -0.092846935 0.0074869559 0.037671658
v -0.092846935 0.006050879 0.038078027
v -0.092846935 0.0047480729 0.037349913
v -0.092846935 0.0043417041 0.035913836
v -0.093046935 0.0066597118 0.037849293
v -0.092846935 0.0074869559 0.037671658
v -0.092046935 -0.0014011676 0.038446986
v -0.092566047 -0.0023363112 0.03921787
v -0.093137016 -0.0029214154 0.04041817
v -0.093708107 -0.0029276992 0.041753419
v -0.094279267 -0.00235398 0.042959109
v -0.094850551 -0.0013139664 0.04379641
v -0.095421983 -1.3714564e-05 0.044099525
v -0.095993558 0.0012892364 0.043808495
v -0.096565226 0.0023368765 0.042981009
v -0.097136905 0.0029217709 0.041780936
v -0.097708456 0.0029280892 0.040445876
v -0.098279993 0.0023545296 0.039240278
v -0.098851667 0.0013147485 0.038402938
v -0.099423339 1.4641022e-05 0.038099624
v -0.099994923 -0.0012883602 0.038390414
v -0.10056637 -0.0023362122 0.039217776
v -0.10113766 -0.0029213372 0.040417908
v -0.10170883 -0.002927765 0.041753121
v -0.10227992 -0.0023541637 0.042958902
v -0.10285101 -0.0013141469 0.043796338
v -0.10342215 -1.3787717e-05 0.04409953
v -0.10399342 0.001289287 0.043808465
v -0.10456483 0.0023369714 0.042980871
v -0.10513689 0.0029217763 0.041780929
v -0.10564694 0.0029565385 0.040589754
v -0.10607953 0.0029426214 0.038776075
v -0.10622429 0.0026828343 0.038132534
v -0.10601193 0.0031392813 0.03862046
v -0.10544051 0.0039040601 0.040227977
v -0.10486908 0.0038956271 0.042008124
v -0.10429765 0.0031156519 0.043608323
v -0.10372622 0.0017186186 0.044711633
v -0.10315479 -1.8773574e-05 0.045099531
v -0.10258336 -0.0017524123 0.044695189
v -0.10201194 -0.0031389298 0.043578692
v -0.10144051 -0.0039037086 0.041971176
v -0.10086908 -0.0038952756 0.040191028
v -0.10029765 -0.0031153004 0.03859083
v -0.099726221 -0.0017182671 0.037487519
v -0.099154792 1.9125074e-05 0.037099621
v -0.098583364 0.0017527638 0.037503963
v -0.098011935 0.0031392813 0.03862046
v -0.097440507 0.0039040601 0.040227977
v -0.096869078 0.0038956271 0.042008124
v -0.09629765 0.0031156519 0.043608323
v -0.095726221 0.0017186186 0.044711633
v -0.095154793 -1.8773574e-05 0.045099531
v -0.094583364 -0.0017524123 0.044695189
v -0.094011935 -0.0031389298 0.043578692
v -0.093440507 -0.0039037086 0.041971176
v -0.092869078 -0.0038952756 0.040191028
v -0.09229765 -0.0031153004 0.03859083
v -0.091726221 -0.0017182671 0.037487519
v -0.091469585 -0.0009596111 0.037216432
v -0.10622429 0.0029672184 0.043782235
v -0.10607926 0.0023236022 0.044041565
v -0.10564694 0.00050999787 0.044055939
v -0.10564694 -6.2924105e-05 0.044098913
v -0.10564694 -0.00063353215 0.044031882
v -0.10564694 -0.0011808978 0.043857304
v -0.10622429 -0.00064786113 0.045046733
v -0.10622429 -0.0013846301 0.044852217
v -0.10622429 -0.0020711423 0.044521512
v -0.10622429 -0.0026824828 0.044066619
v -0.10607953 -0.0029422699 0.043423077
v -0.10564694 -0.002956187 0.041609398
v -0.10564694 -0.0029991606 0.041036476
v -0.10564694 -0.0029321296 0.040465868
v -0.10564694 -0.0027575524 0.039918503
v -0.10622429 -0.0039469812 0.040451539
v -0.10622429 -0.003752465 0.03971477
v -0.10622429 -0.0034217597 0.039028258
v -0.10622429 -0.0029668669 0.038416918
v -0.10607926 -0.0023232507 0.038157587
v -0.10564694 -0.00050964637 0.038143213
v -0.10564694 6.3275605e-05 0.03810024
v -0.10564694 0.00063388365 0.038167271
v -0.10564694 0.0011812493 0.038341848
v -0.10622429 0.00064821263 0.037152419
v -0.10622429 0.0013849816 0.037346935
v -0.10622429 0.0020714938 0.037677641
v -0.10622429 0.0026828343 0.038132534
v -0.10607953 0.0029426214 0.038776075
v -0.10564694 0.0029565385 0.040589754
v -0.10564694 0.0029995121 0.041162676
v -0.10564694 0.0029324811 0.041733284
v -0.10564694 0.0027579039 0.04228065
v -0.10622429 0.0039473327 0.041747613
v -0.10622429 0.0037528165 0.042484382
v -0.10622429 0.0034221112 0.043170894
v -0.10634694 0.0026109549 0.044405396
v -0.10634694 0.0039837641 0.042469115
v -0.10634694 0.0040918122 0.040098015
v -0.10634694 0.0029007946 0.038044904
v -0.10634694 0.00078885088 0.036961629
v -0.10634694 -0.0015734915 0.037192124
v -0.10634694 -0.0034362057 0.038663207
v -0.10634694 -0.004207893 0.04090782
v -0.10634694 -0.0036435484 0.043213314
v -0.10634694 -0.001922347 0.044847712
v -0.10634694 0.00040924174 0.045292103
v -0.10634694 -0.0015734915 0.037192124
v -0.10622429 -0.0029668669 0.038416918
v -0.096146936 0.0073630001 0.037514703
v -0.096146936 0.008028367 0.036149634
v -0.096146936 0.0073759634 0.034778323
v -0.096146936 0.0058970618 0.034433394
v -0.096146936 0.0047053061 0.035374586
v -0.096146936 0.0046981119 0.036893163
v -0.096146936 0.0058808972 0.037845604
v -0.093046935 0.0051937735 0.034767985
v -0.093046935 0.0066758764 0.034437084
v -0.093046935 0.0078586617 0.035389525
v -0.093046935 0.0078514676 0.036908101
v -0.093046935 0.0066597118 0.037849293
v -0.093046935 0.0051808102 0.037504365
v -0.093046935 0.0045284066 0.036133054
v -0.093046935 0.0078514676 0.036908101
v -0.096146936 0.0073630001 0.037514703
v -0.093046935 -0.00604267 0.033448006
v -0.093046935 -0.0067080369 0.034813075
v -0.093046935 -0.0060556328 0.036184386
v -0.093046935 -0.0045767318 0.036529315
v -0.093046935 -0.0033849758 0.035588122
v -0.093046935 -0.0033777815 0.034069547
v -0.093046935 -0.0045605669 0.033117105
v -0.092846935 -0.0061666256 0.033291051
v -0.092846935 -0.0047305485 0.032884683
v -0.092846935 -0.0034277427 0.033612796
v -0.092846935 -0.0030213739 0.035048873
v -0.092846935 -0.0037494875 0.036351679
v -0.092846935 -0.0051855646 0.036758048
v -0.092846935 -0.0064883704 0.036029934
v -0.092846935 -0.0068947393 0.034593857
v -0.093046935 -0.0045767318 0.036529315
v -0.092846935 -0.0037494875 0.036351679
v -0.091469585 -0.0029110899 0.038356488
v -0.092139078 -0.0038952756 0.040191028
v -0.092710507 -0.0039037086 0.041971176
v -0.093281935 -0.0031389298 0.043578692
v -0.093853364 -0.0017524123 0.044695189
v -0.094424793 -1.8773574e-05 0.045099531
v -0.094996221 0.0017186186 0.044711633
v -0.09556765 0.0031156519 0.043608323
v -0.096139078 0.0038956271 0.042008124
v -0.096710507 0.0039040601 0.040227977
v -0.097281936 0.0031392813 0.03862046
v -0.097853364 0.0017527638 0.037503963
v -0.098424792 1.9125074e-05 0.037099621
v -0.098996221 -0.0017182671 0.037487519
v -0.09956765 -0.0031153004 0.03859083
v -0.10013908 -0.0038952756 0.040191028
v -0.10071051 -0.0039037086 0.041971176
v -0.10128194 -0.0031389298 0.043578692
v -0.10185336 -0.0017524123 0.044695189
v -0.10242479 -1.8773574e-05 0.045099531
v -0.10299622 0.0017186186 0.044711633
v -0.10356765 0.0031156519 0.043608323
v -0.10413908 0.0038956271 0.042008124
v -0.10471051 0.0039040601 0.040227977
v -0.10528194 0.0031392813 0.03862046
v -0.10585336 0.0017527638 0.037503963
v -0.10622429 0.00064821263 0.037152419
v -0.10564694 0.0011812493 0.038341848
v -0.10501379 0.0023544584 0.039240169
v -0.1044431 0.002928127 0.040446103
v -0.10387186 0.0029216758 0.041781285
v -0.10330048 0.0023365612 0.04298138
v -0.10272894 0.0012887435 0.043808727
v -0.1021573 -1.4228834e-05 0.044099533
v -0.10158561 -0.001314335 0.043796243
v -0.101014 -0.0023541569 0.042958907
v -0.1004425 -0.0029277287 0.041753297
v -0.099870855 -0.0029214347 0.040418279
v -0.099299168 -0.0023365642 0.039218199
v -0.09872755 -0.0012889252 0.038390681
v -0.098156065 1.4057797e-05 0.038099628
v -0.097584731 0.0013143493 0.038402755
v -0.097013532 0.0023543785 0.039240094
v -0.096442424 0.0029280759 0.040445822
v -0.095871343 0.002921741 0.041781074
v -0.095300219 0.0023366364 0.0429813
v -0.094728992 0.0012887249 0.043808733
v -0.094157621 -1.4365626e-05 0.044099521
v -0.093586098 -0.0013145185 0.043796145
v -0.093014455 -0.002354269 0.042958752
v -0.092442333 -0.0029277149 0.041753368
v -0.092046935 -0.0029875632 0.040828623
v -0.091926864 -0.0031239143 0.040370914
v -0.091536734 -0.0030248168 0.038663595
v -0.091469585 -0.0009596111 0.037216432
v -0.091469585 -0.0016791204 0.037469154
v -0.091469585 -0.0023375912 0.037853834
v -0.091469585 -0.0029110899 0.038356488
v -0.091536734 -0.0030248168 0.038663595
v -0.091926864 -0.0031239143 0.040370914
v -0.092046935 -0.0029875632 0.040828623
v -0.092046935 -0.0029843191 0.041404193
v -0.092046935 -0.0028712151 0.04196855
v -0.092046935 -0.0026524147 0.04250092
v -0.091469585 -0.0038829686 0.042059363
v -0.091469585 -0.0036302464 0.042778872
v -0.091469585 -0.0032455669 0.043437343
v -0.091469585 -0.0027429125 0.044010842
v -0.091536734 -0.0024358059 0.044124569
v -0.091926864 -0.0007284861 0.044223666
v -0.092046935 -0.00027077776 0.044087315
v -0.092046935 0.00030479231 0.044084071
v -0.092046935 0.00086914928 0.043970967
v -0.092046935 0.0014015191 0.043752167
v -0.091469585 0.0009599626 0.044982721
v -0.091469585 0.0016794719 0.044729998
v -0.091469585 0.0023379427 0.044345319
v -0.091469585 0.0029114414 0.043842664
v -0.091536734 0.0030251683 0.043535558
v -0.091926864 0.0031242658 0.041828238
v -0.092046935 0.0029879147 0.04137053
v -0.092046935 0.0029846706 0.04079496
v -0.092046935 0.0028715666 0.040230603
v -0.092046935 0.0026527662 0.039698233
v -0.091469585 0.0038833201 0.040139789
v -0.091469585 0.0036305979 0.03942028
v -0.091469585 0.0032459184 0.038761809
v -0.091469585 0.002743264 0.038188311
v -0.091536734 0.0024361574 0.038074584
v -0.091926864 0.0007288376 0.037975486
v -0.092046935 0.00027112926 0.038111837
v -0.092046935 -0.00030444081 0.038115081
v -0.092046935 -0.00086879778 0.038228185
v -0.092046935 -0.0014011676 0.038446986
v -0.091346935 -0.0026106034 0.037793756
v -0.091346935 -0.00040889024 0.03690705
v -0.091346935 0.0019226985 0.037351441
v -0.091346935 0.0036438999 0.038985838
v -0.091346935 0.0042082445 0.041291333
v -0.091346935 0.0034365572 0.043535946
v -0.091346935 0.001573843 0.045007029
v -0.091346935 -0.00078849938 0.045237523
v -0.091346935 -0.0029004431 0.044154249
v -0.091346935 -0.0040914607 0.042101137
v -0.091346935 -0.0039834126 0.039730037
v -0.091346935 0.0034365572 0.043535946
v -0.091469585 0.0029114414 0.043842664
v -0.092846935 0.0066937896 0.049575161
v -0.092846935 0.0033912942 0.051353371
v -0.092846935 -0.00032021928 0.051894823
v -0.092846935 -0.0039930892 0.051134208
v -0.092846935 -0.0071843117 0.049163268
v -0.092846935 -0.0095089792 0.046219729
v -0.092846935 -0.010686703 0.042658623
v -0.092846935 -0.010575431 0.038909473
v -0.092846935 -0.0091885842 0.035424482
v -0.092846935 -0.0066934381 0.032623991
v -0.092846935 -0.0033909427 0.030845781
v -0.092846935 0.00032057078 0.03030433
v -0.092846935 0.0039934407 0.031064944
v -0.092846935 0.0071846632 0.033035884
v -0.092846935 0.0095093307 0.035979424
v -0.092846935 0.010687054 0.039540529
v -0.092846935 0.010575782 0.043289679
v -0.092846935 0.0091889357 0.04677467
v -0.092846935 0.0032850044 0.045258891
v -0.092846935 0.0048416771 0.04325593
v -0.092846935 0.0052892203 0.040758975
v -0.092846935 0.0045251066 0.038340048
v -0.092846935 0.0027243863 0.036553294
v -0.092846935 0.00029958187 0.03580804
v -0.092846935 -0.0021938127 0.036275013
v -0.092846935 -0.004184591 0.037847235
v -0.092846935 -0.0052166898 0.040164529
v -0.092846935 -0.0050536676 0.042696031
v -0.092846935 -0.0037328704 0.044861805
v -0.092846935 -0.0015568777 0.046165698
v -0.092846935 0.00097581732 0.046309003
v -0.092846935 0.0050698177 0.03461103
v -0.092846935 0.0043417041 0.035913836
v -0.092846935 0.0047480729 0.037349913
v -0.092846935 0.006050879 0.038078027
v -0.092846935 0.0074869559 0.037671658
v -0.092846935 0.0082150695 0.036368852
v -0.092846935 0.0078087007 0.034932775
v -0.092846935 0.0065058946 0.034204661
v -0.092846935 -0.0061666256 0.033291051
v -0.092846935 -0.0068947393 0.034593857
v -0.092846935 -0.0064883704 0.036029934
v -0.092846935 -0.0051855646 0.036758048
v -0.092846935 -0.0037494875 0.036351679
v -0.092846935 -0.0030213739 0.035048873
v -0.092846935 -0.0034277427 0.033612796
v -0.092846935 -0.0047305485 0.032884683
v -0.092846935 -0.0074866044 0.044527495
v -0.092846935 -0.008214718 0.045830301
v -0.092846935 -0.0078083492 0.047266378
v -0.092846935 -0.0065055431 0.047994491
v -0.092846935 -0.0050694662 0.047588122
v -0.092846935 -0.0043413526 0.046285317
v -0.092846935 -0.0047477214 0.044849239
v -0.092846935 -0.0060505275 0.044121126
v -0.092846935 0.003749839 0.045847473
v -0.092846935 0.0030217254 0.047150279
v -0.092846935 0.0034280942 0.048586356
v -0.092846935 0.0047309 0.04931447
v -0.092846935 0.0061669771 0.048908101
v -0.092846935 0.0068950908 0.047605295
v -0.092846935 0.0064887219 0.046169218
v -0.092846935 0.0051859161 0.045441105
v -0.096146936 -0.0038734432 0.036194724
v -0.096146936 -0.0032080762 0.034829655
v -0.096146936 -0.00386048 0.033458345
v -0.096146936 -0.0053393813 0.033113416
v -0.096146936 -0.0065311374 0.034054608
v -0.096146936 -0.0065383313 0.035573184
v -0.096146936 -0.0053555463 0.036525625
v -0.093046935 -0.00604267 0.033448006
v -0.093046935 -0.0045605669 0.033117105
v -0.093046935 -0.0033777815 0.034069547
v -0.093046935 -0.0033849758 0.035588122
v -0.093046935 -0.0045767318 0.036529315
v -0.093046935 -0.0060556328 0.036184386
v -0.093046935 -0.0067080369 0.034813075
v -0.093046935 -0.0033849758 0.035588122
v -0.096146936 -0.0038734432 0.036194724
v -0.093046935 -0.0073626486 0.04468445
v -0.093046935 -0.0080280155 0.046049518
v -0.093046935 -0.0073756119 0.047420829
v -0.093046935 -0.0058967103 0.047765758
v -0.093046935 -0.0047049546 0.046824566
v -0.093046935 -0.0046977604 0.04530599
v -0.093046935 -0.0058805457 0.044353549
v -0.092846935 -0.0074866044 0.044527495
v -0.092846935 -0.0060505275 0.044121126
v -0.092846935 -0.0047477214 0.044849239
v -0.092846935 -0.0043413526 0.046285317
v -0.092846935 -0.0050694662 0.047588122
v -0.092846935 -0.0065055431 0.047994491
v -0.092846935 -0.0078083492 0.047266378
v -0.092846935 -0.008214718 0.045830301
v -0.093046935 -0.0058967103 0.047765758
v -0.092846935 -0.0050694662 0.047588122
v -0.091469585 -0.0038829686 0.042059363
v -0.091726221 -0.0036118811 0.042818019
v -0.09229765 -0.0025085706 0.044215052
v -0.092869078 -0.00090837222 0.044995028
v -0.093440507 0.00087177529 0.045003461
v -0.094011935 0.0024792919 0.044238682
v -0.094583364 0.0035957889 0.042852164
v -0.095154793 0.0040001307 0.041118526
v -0.095726221 0.0036122326 0.039381133
v -0.09629765 0.0025089221 0.0379841
v -0.096869078 0.00090872372 0.037204125
v -0.097440507 -0.00087142379 0.037195692
v -0.098011935 -0.0024789404 0.037960471
v -0.098583364 -0.0035954375 0.039346988
v -0.099154792 -0.0039997792 0.041080627
v -0.099726221 -0.0036118811 0.042818019
v -0.10029765 -0.0025085706 0.044215052
v -0.10086908 -0.00090837222 0.044995028
v -0.10144051 0.00087177529 0.045003461
v -0.10201194 0.0024792919 0.044238682
v -0.10258336 0.0035957889 0.042852164
v -0.10315479 0.0040001307 0.041118526
v -0.10372622 0.0036122326 0.039381133
v -0.10429765 0.0025089221 0.0379841
v -0.10486908 0.00090872372 0.037204125
v -0.10544051 -0.00087142379 0.037195692
v -0.10601193 -0.0024789404 0.037960471
v -0.10622429 -0.0029668669 0.038416918
v -0.10622429 -0.0034217597 0.039028258
v -0.10622429 -0.003752465 0.03971477
v -0.10622429 -0.0039469812 0.040451539
v -0.10585336 -0.0035954375 0.039346988
v -0.10528194 -0.0024789404 0.037960471
v -0.10471051 -0.00087142379 0.037195692
v -0.10413908 0.00090872372 0.037204125
v -0.10356765 0.0025089221 0.0379841
v -0.10299622 0.0036122326 0.039381133
v -0.10242479 0.0040001307 0.041118526
v -0.10185336 0.0035957889 0.042852164
v -0.10128194 0.0024792919 0.044238682
v -0.10071051 0.00087177529 0.045003461
v -0.10013908 -0.00090837222 0.044995028
v -0.09956765 -0.0025085706 0.044215052
v -0.098996221 -0.0036118811 0.042818019
v -0.098424792 -0.0039997792 0.041080627
v -0.097853364 -0.0035954375 0.039346988
v -0.097281936 -0.0024789404 0.037960471
v -0.096710507 -0.00087142379 0.037195692
v -0.096139078 0.00090872372 0.037204125
v -0.09556765 0.0025089221 0.0379841
v -0.094996221 0.0036122326 0.039381133
v -0.094424793 0.0040001307 0.041118526
v -0.093853364 0.0035957889 0.042852164
v -0.093281935 0.0024792919 0.044238682
v -0.092710507 0.00087177529 0.045003461
v -0.092139078 -0.00090837222 0.044995028
v -0.091469585 -0.0027429125 0.044010842
v -0.091469585 -0.0032455669 0.043437343
v -0.091469585 -0.0036302464 0.042778872
v -0.093281935 0.0024792919 0.044238682
v -0.094011935 0.0024792919 0.044238682
v -0.10128194 0.0024792919 0.044238682
v -0.10201194 0.0024792919 0.044238682
v -0.096346935 -0.0066934381 0.032623991
v -0.096346935 -0.0091885842 0.035424482
v -0.096346935 -0.010575431 0.038909473
v -0.096346935 -0.010686703 0.042658623
v -0.096346935 -0.0095089792 0.046219729
v -0.096346935 -0.0071843117 0.049163268
v -0.096346935 -0.0039930892 0.051134208
v -0.096346935 -0.00032021928 0.051894823
v -0.096346935 0.0033912942 0.051353371
v -0.096346935 0.0066937896 0.049575161
v -0.096346935 0.0091889357 0.04677467
v -0.096346935 0.010575782 0.043289679
v -0.096346935 0.010687054 0.039540529
v -0.096346935 0.0095093307 0.035979424
v -0.096346935 0.0071846632 0.033035884
v -0.096346935 0.0039934407 0.031064944
v -0.096346935 0.00032057078 0.03030433
v -0.096346935 -0.0033909427 0.030845781
v -0.096346935 -0.0032846529 0.036940262
v -0.096346935 -0.00097546582 0.03589015
v -0.096346935 0.0015572292 0.036033455
v -0.096346935 0.0037332219 0.037337348
v -0.096346935 0.0050540191 0.039503121
v -0.096346935 0.0052170413 0.042034624
v -0.096346935 0.0041849425 0.044351918
v -0.096346935 0.0021941642 0.04592414
v -0.096346935 -0.00029923037 0.046391112
v -0.096346935 -0.0027240348 0.045645858
v -0.096346935 -0.0045247551 0.043859105
v -0.096346935 -0.0052888688 0.041440177
v -0.096346935 -0.0048413256 0.038943222
v -0.096346935 0.0074869559 0.037671658
v -0.096346935 0.006050879 0.038078027
v -0.096346935 0.0047480729 0.037349913
v -0.096346935 0.0043417041 0.035913836
v -0.096346935 0.0050698177 0.03461103
v -0.096346935 0.0065058946 0.034204661
v -0.096346935 0.0078087007 0.034932775
v -0.096346935 0.0082150695 0.036368852
v -0.096346935 -0.0037494875 0.036351679
v -0.096346935 -0.0051855646 0.036758048
v -0.096346935 -0.0064883704 0.036029934
v -0.096346935 -0.0068947393 0.034593857
v -0.096346935 -0.0061666256 0.033291051
v -0.096346935 -0.0047305485 0.032884683
v -0.096346935 -0.0034277427 0.033612796
v -0.096346935 -0.0030213739 0.035048873
v -0.096346935 -0.0050694662 0.047588122
v -0.096346935 -0.0065055431 0.047994491
v -0.096346935 -0.0078083492 0.047266378
v -0.096346935 -0.008214718 0.045830301
v -0.096346935 -0.0074866044 0.044527495
v -0.096346935 -0.0060505275 0.044121126
v -0.096346935 -0.0047477214 0.044849239
v -0.096346935 -0.0043413526 0.046285317
v -0.096346935 0.0061669771 0.048908101
v -0.096346935 0.0047309 0.04931447
v -0.096346935 0.0034280942 0.048586356
v -0.096346935 0.0030217254 0.047150279
v -0.096346935 0.003749839 0.045847473
v -0.096346935 0.0051859161 0.045441105
v -0.096346935 0.0064887219 0.046169218
v -0.096346935 0.0068950908 0.047605295
v -0.096146936 -0.005193422 0.047431167
v -0.096146936 -0.0045280551 0.046066099
v -0.096146936 -0.0051804587 0.044694788
v -0.096146936 -0.0066593603 0.044349859
v -0.096146936 -0.0078511161 0.045291051
v -0.096146936 -0.0078583102 0.046809627
v -0.096146936 -0.0066755249 0.047762068
v -0.093046935 -0.0073626486 0.04468445
v -0.093046935 -0.0058805457 0.044353549
v -0.093046935 -0.0046977604 0.04530599
v -0.093046935 -0.0047049546 0.046824566
v -0.093046935 -0.0058967103 0.047765758
v -0.093046935 -0.0073756119 0.047420829
v -0.093046935 -0.0080280155 0.046049518
v -0.093046935 -0.0047049546 0.046824566
v -0.096146936 -0.005193422 0.047431167
v -0.093046935 0.0038737947 0.046004429
v -0.093046935 0.0032084277 0.047369497
v -0.093046935 0.0038608315 0.048740808
v -0.093046935 0.0053397328 0.049085737
v -0.093046935 0.0065314889 0.048144545
v -0.093046935 0.0065386828 0.046625968
v -0.093046935 0.0053558978 0.045673527
v -0.092846935 0.003749839 0.045847473
v -0.092846935 0.0051859161 0.045441105
v -0.092846935 0.0064887219 0.046169218
v -0.092846935 0.0068950908 0.047605295
v -0.092846935 0.0061669771 0.048908101
v -0.092846935 0.0047309 0.04931447
v -0.092846935 0.0034280942 0.048586356
v -0.092846935 0.0030217254 0.047150279
v -0.093046935 0.0053397328 0.049085737
v -0.092846935 0.0061669771 0.048908101
v -0.094279885 0.0018595129 0.043453905
v -0.094851824 0.0026967883 0.04241421
v -0.09542278 0.0030001431 0.041113804
v -0.095993866 0.0027091585 0.03981063
v -0.096565013 0.001881534 0.038762824
v -0.097136277 0.00068127274 0.038177934
v -0.097707688 -0.00065383756 0.038171753
v -0.098279244 -0.0018593653 0.038745427
v -0.098850904 -0.0026966031 0.039785294
v -0.099422589 -0.0029997843 0.041085429
v -0.099994165 -0.0027088657 0.04238841
v -0.10056568 -0.0018814087 0.043436159
v -0.10113735 -0.00068136606 0.044021129
v -0.10170903 0.0006536355 0.04402753
v -0.10228063 0.0018592548 0.043454086
v -0.10285209 0.0026967242 0.042414303
v -0.1034234 0.0030001248 0.041114065
v -0.10399458 0.0027092846 0.039810902
v -0.10456567 0.0018817607 0.038762989
v -0.1051366 0.00068140871 0.038177947
v -0.10564694 -0.00050964637 0.038143213
v -0.10607926 -0.0023232507 0.038157587
v -0.10622429 -0.0029668669 0.038416918
v -0.10601193 -0.0024789404 0.037960471
v -0.10544051 -0.00087142379 0.037195692
v -0.10486908 0.00090872372 0.037204125
v -0.10429765 0.0025089221 0.0379841
v -0.10372622 0.0036122326 0.039381133
v -0.10315479 0.0040001307 0.041118526
v -0.10258336 0.0035957889 0.042852164
v -0.10201194 0.0024792919 0.044238682
v -0.10144051 0.00087177529 0.045003461
v -0.10086908 -0.00090837222 0.044995028
v -0.10029765 -0.0025085706 0.044215052
v -0.099726221 -0.0036118811 0.042818019
v -0.099154792 -0.0039997792 0.041080627
v -0.098583364 -0.0035954375 0.039346988
v -0.098011935 -0.0024789404 0.037960471
v -0.097440507 -0.00087142379 0.037195692
v -0.096869078 0.00090872372 0.037204125
v -0.09629765 0.0025089221 0.0379841
v -0.095726221 0.0036122326 0.039381133
v -0.095154793 0.0040001307 0.041118526
v -0.094583364 0.0035957889 0.042852164
v -0.094011935 0.0024792919 0.044238682
v -0.093440507 0.00087177529 0.045003461
v -0.092869078 -0.00090837222 0.044995028
v -0.09229765 -0.0025085706 0.044215052
v -0.091726221 -0.0036118811 0.042818019
v -0.091469585 -0.0038829686 0.042059363
v -0.092046935 -0.0026524147 0.04250092
v -0.092565599 -0.0018813841 0.043436183
v -0.093137027 -0.00068123515 0.044021165
v -0.093708456 0.00065387548 0.04402749
v -0.10614694 -0.0031606973 0.037097217
v -0.10614694 -0.00073604088 0.036052995
v -0.10614694 0.0018858842 0.036361
v -0.10614694 0.0040025352 0.037938703
v -0.10614694 0.0050467572 0.04036336
v -0.10614694 0.0047387518 0.042985285
v -0.10614694 0.0031610488 0.045101936
v -0.10614694 0.00073639238 0.046146158
v -0.10614694 -0.0018855327 0.045838152
v -0.10614694 -0.0040021837 0.044260449
v -0.10614694 -0.0050464057 0.041835793
v -0.10614694 -0.0047384003 0.039213868
v -0.096546935 -0.0031606973 0.037097217
v -0.096546935 -0.0047384003 0.039213868
v -0.096546935 -0.0050464057 0.041835793
v -0.096546935 -0.0040021837 0.044260449
v -0.096546935 -0.0018855327 0.045838152
v -0.096546935 0.00073639238 0.046146158
v -0.096546935 0.0031610488 0.045101936
v -0.096546935 0.0047387518 0.042985285
v -0.096546935 0.0050467572 0.04036336
v -0.096546935 0.0040025352 0.037938703
v -0.096546935 0.0018858842 0.036361
v -0.096546935 -0.00073604088 0.036052995
v -0.10614694 0.0031610488 0.045101936
v -0.096546935 0.0031610488 0.045101936
v -0.096146936 0.0060430215 0.048751146
v -0.096146936 0.0067083884 0.047386078
v -0.096146936 0.0060559843 0.046014766
v -0.096146936 0.0045770833 0.045669838
v -0.096146936 0.0033853273 0.04661103
v -0.096146936 0.003378133 0.048129606
v -0.096146936 0.0045609184 0.049082047
v -0.093046935 0.0038737947 0.046004429
v -0.093046935 0.0053558978 0.045673527
v -0.093046935 0.0065386828 0.046625968
v -0.093046935 0.0065314889 0.048144545
v -0.093046935 0.0053397328 0.049085737
v -0.093046935 0.0038608315 0.048740808
v -0.093046935 0.0032084277 0.047369497
v -0.093046935 0.0065314889 0.048144545
v -0.096146936 0.0060430215 0.048751146
v -0.096346935 -0.0066934381 0.032623991
v -0.096346935 -0.0033909427 0.030845781
v -0.096346935 0.00032057078 0.03030433
v -0.096346935 0.0039934407 0.031064944
v -0.096346935 0.0071846632 0.033035884
v -0.096346935 0.0095093307 0.035979424
v -0.096346935 0.010687054 0.039540529
v -0.096346935 0.010575782 0.043289679
v -0.096346935 0.0091889357 0.04677467
v -0.096346935 0.0066937896 0.049575161
v -0.096346935 0.0033912942 0.051353371
v -0.096346935 -0.00032021928 0.051894823
v -0.096346935 -0.0039930892 0.051134208
v -0.096346935 -0.0071843117 0.049163268
v -0.096346935 -0.0095089792 0.046219729
v -0.096346935 -0.010686703 0.042658623
v -0.096346935 -0.010575431 0.038909473
v -0.096346935 -0.0091885842 0.035424482
v -0.096146936 -0.0068173937 0.032467036
v -0.096146936 -0.0093587462 0.035319388
v -0.096146936 -0.010771275 0.038868916
v -0.096146936 -0.010884608 0.042687494
v -0.096146936 -0.0096850753 0.046314547
v -0.096146936 -0.0073173583 0.049312596
v -0.096146936 -0.0040670386 0.051320035
v -0.096146936 -0.00032615298 0.052094734
v -0.096146936 0.0034540925 0.051543256
v -0.096146936 0.0068177452 0.049732116
v -0.096146936 0.0093590977 0.046879764
v -0.096146936 0.010771626 0.043330236
v -0.096146936 0.01088496 0.039511658
v -0.096146936 0.0096854268 0.035884606
v -0.096146936 0.0073177098 0.032886556
v -0.096146936 0.0040673901 0.030879118
v -0.096146936 0.00032650448 0.030104418
v -0.096146936 -0.003453741 0.030655896
v -0.096346935 0.0066937896 0.049575161
v -0.096146936 0.0068177452 0.049732116
v -0.091469585 -0.0027429125 0.044010842
v -0.092139078 -0.00090837222 0.044995028
v -0.092710507 0.00087177529 0.045003461
v -0.093281935 0.0024792919 0.044238682
v -0.093853364 0.0035957889 0.042852164
v -0.094424793 0.0040001307 0.041118526
v -0.094996221 0.0036122326 0.039381133
v -0.09556765 0.0025089221 0.0379841
v -0.096139078 0.00090872372 0.037204125
v -0.096710507 -0.00087142379 0.037195692
v -0.097281936 -0.0024789404 0.037960471
v -0.097853364 -0.0035954375 0.039346988
v -0.098424792 -0.0039997792 0.041080627
v -0.098996221 -0.0036118811 0.042818019
v -0.09956765 -0.0025085706 0.044215052
v -0.10013908 -0.00090837222 0.044995028
v -0.10071051 0.00087177529 0.045003461
v -0.10128194 0.0024792919 0.044238682
v -0.10185336 0.0035957889 0.042852164
v -0.10242479 0.0040001307 0.041118526
v -0.10299622 0.0036122326 0.039381133
v -0.10356765 0.0025089221 0.0379841
v -0.10413908 0.00090872372 0.037204125
v -0.10471051 -0.00087142379 0.037195692
v -0.10528194 -0.0024789404 0.037960471
v -0.10585336 -0.0035954375 0.039346988
v -0.10622429 -0.0039469812 0.040451539
v -0.10564694 -0.0027575524 0.039918503
v -0.10501379 -0.0018592314 0.038745294
v -0.1044431 -0.00065329728 0.038171625
v -0.10387186 0.00068188402 0.038178076
v -0.10330048 0.0018819794 0.038763191
v -0.10272894 0.0027093266 0.039811008
v -0.1021573 0.0030001321 0.041113981
v -0.10158561 0.0026968424 0.042414087
v -0.101014 0.0018595061 0.043453909
v -0.1004425 0.00065389607 0.044027481
v -0.099870855 -0.00068112135 0.044021187
v -0.099299168 -0.0018812014 0.043436316
v -0.09872755 -0.0027087196 0.042388677
v -0.098156065 -0.0029997722 0.041085694
v -0.097584731 -0.0026966458 0.039785403
v -0.097013532 -0.0018593062 0.038745373
v -0.096442424 -0.00065357892 0.038171676
v -0.095871343 0.00068167398 0.038178011
v -0.095300219 0.0018818991 0.038763116
v -0.094728992 0.0027093329 0.039811027
v -0.094157621 0.0030001207 0.041114118
v -0.093586098 0.0026967442 0.042414271
v -0.093014455 0.0018593512 0.043454021
v -0.092442333 0.00065396739 0.044027467
v -0.092046935 -0.00027077776 0.044087315
v -0.091926864 -0.0007284861 0.044223666
v -0.091536734 -0.0024358059 0.044124569
v -0.092646935 0.0031610488 0.045101936
v -0.092646935 0.00073639238 0.046146158
v -0.092646935 -0.0018855327 0.045838152
v -0.092646935 -0.0040021837 0.044260449
v -0.092646935 -0.0050464057 0.041835793
v -0.092646935 -0.0047384003 0.039213868
v -0.092646935 -0.0031606973 0.037097217
v -0.092646935 -0.00073604088 0.036052995
v -0.092646935 0.0018858842 0.036361
v -0.092646935 0.0040025352 0.037938703
v -0.092646935 0.0050467572 0.04036336
v -0.092646935 0.0047387518 0.042985285
v -0.091546935 0.0031610488 0.045101936
v -0.091546935 0.0047387518 0.042985285
v -0.091546935 0.0050467572 0.04036336
v -0.091546935 0.0040025352 0.037938703
v -0.091546935 0.0018858842 0.036361
v -0.091546935 -0.00073604088 0.036052995
v -0.091546935 -0.0031606973 0.037097217
v -0.091546935 -0.0047384003 0.039213868
v -0.091546935 -0.0050464057 0.041835793
v -0.091546935 -0.0040021837 0.044260449
v -0.091546935 -0.0018855327 0.045838152
v -0.091546935 0.00073639238 0.046146158
v -0.092646935 0.0031610488 0.045101936
v -0.091546935 0.0031610488 0.045101936
v -0.10634694 -0.0030367416 0.037254172
v -0.10634694 -0.0045525738 0.039287817
v -0.10634694 -0.0048485006 0.041806922
v -0.10634694 -0.0038452285 0.044136494
v -0.10634694 -0.0018115832 0.045652326
v -0.10634694 0.00070752103 0.045948253
v -0.10634694 0.0030370931 0.044944981
v -0.10634694 0.0045529253 0.042911335
v -0.10634694 0.0048488521 0.040392231
v -0.10634694 0.00384558 0.038062659
v -0.10634694 0.0018119347 0.036546827
v -0.10634694 -0.00070716953 0.0362509
v -0.10634694 0.0026109549 0.044405396
v -0.10634694 0.00040924174 0.045292103
v -0.10634694 -0.001922347 0.044847712
v -0.10634694 -0.0036435484 0.043213314
v -0.10634694 -0.004207893 0.04090782
v -0.10634694 -0.0034362057 0.038663207
v -0.10634694 -0.0015734915 0.037192124
v -0.10634694 0.00078885088 0.036961629
v -0.10634694 0.0029007946 0.038044904
v -0.10634694 0.0040918122 0.040098015
v -0.10634694 0.0039837641 0.042469115
v -0.096546935 -0.0031606973 0.037097217
v -0.096546935 -0.00073604088 0.036052995
v -0.096546935 0.0018858842 0.036361
v -0.096546935 0.0040025352 0.037938703
v -0.096546935 0.0050467572 0.04036336
v -0.096546935 0.0047387518 0.042985285
v -0.096546935 0.0031610488 0.045101936
v -0.096546935 0.00073639238 0.046146158
v -0.096546935 -0.0018855327 0.045838152
v -0.096546935 -0.0040021837 0.044260449
v -0.096546935 -0.0050464057 0.041835793
v -0.096546935 -0.0047384003 0.039213868
v -0.096346935 -0.0032846529 0.036940262
v -0.096346935 -0.0048413256 0.038943222
v -0.096346935 -0.0052888688 0.041440177
v -0.096346935 -0.0045247551 0.043859105
v -0.096346935 -0.0027240348 0.045645858
v -0.096346935 -0.00029923037 0.046391112
v -0.096346935 0.0021941642 0.04592414
v -0.096346935 0.0041849425 0.044351918
v -0.096346935 0.0052170413 0.042034624
v -0.096346935 0.0050540191 0.039503121
v -0.096346935 0.0037332219 0.037337348
v -0.096346935 0.0015572292 0.036033455
v -0.096346935 -0.00097546582 0.03589015
v -0.096546935 0.0031610488 0.045101936
v -0.096346935 0.0021941642 0.04592414
v -0.091346935 0.0030370931 0.044944981
v -0.091346935 0.00070752103 0.045948253
v -0.091346935 -0.0018115832 0.045652326
v -0.091346935 -0.0038452285 0.044136494
v -0.091346935 -0.0048485006 0.041806922
v -0.091346935 -0.0045525738 0.039287817
v -0.091346935 -0.0030367416 0.037254172
v -0.091346935 -0.00070716953 0.0362509
v -0.091346935 0.0018119347 0.036546827
v -0.091346935 0.00384558 0.038062659
v -0.091346935 0.0048488521 0.040392231
v -0.091346935 0.0045529253 0.042911335
v -0.091346935 -0.0026106034 0.037793756
v -0.091346935 -0.0039834126 0.039730037
v -0.091346935 -0.0040914607 0.042101137
v -0.091346935 -0.0029004431 0.044154249
v -0.091346935 -0.00078849938 0.045237523
v -0.091346935 0.001573843 0.045007029
v -0.091346935 0.0034365572 0.043535946
v -0.091346935 0.0042082445 0.041291333
v -0.091346935 0.0036438999 0.038985838
v -0.091346935 0.0019226985 0.037351441
v -0.091346935 -0.00040889024 0.03690705
v -0.096146936 0.0073630001 0.037514703
v -0.096146936 0.0058808972 0.037845604
v -0.096146936 0.0046981119 0.036893163
v -0.096146936 0.0047053061 0.035374586
v -0.096146936 0.0058970618 0.034433394
v -0.096146936 0.0073759634 0.034778323
v -0.096146936 0.008028367 0.036149634
v -0.096346935 0.0074869559 0.037671658
v -0.096346935 0.0082150695 0.036368852
v -0.096346935 0.0078087007 0.034932775
v -0.096346935 0.0065058946 0.034204661
v -0.096346935 0.0050698177 0.03461103
v -0.096346935 0.0043417041 0.035913836
v -0.096346935 0.0047480729 0.037349913
v -0.096346935 0.006050879 0.038078027
v -0.096146936 0.0047053061 0.035374586
v -0.096346935 0.0050698177 0.03461103
v -0.096146936 -0.0038734432 0.036194724
v -0.096146936 -0.0053555463 0.036525625
v -0.096146936 -0.0065383313 0.035573184
v -0.096146936 -0.0065311374 0.034054608
v -0.096146936 -0.0053393813 0.033113416
v -0.096146936 -0.00386048 0.033458345
v -0.096146936 -0.0032080762 0.034829655
v -0.096346935 -0.0037494875 0.036351679
v -0.096346935 -0.0030213739 0.035048873
v -0.096346935 -0.0034277427 0.033612796
v -0.096346935 -0.0047305485 0.032884683
v -0.096346935 -0.0061666256 0.033291051
v -0.096346935 -0.0068947393 0.034593857
v -0.096346935 -0.0064883704 0.036029934
v -0.096346935 -0.0051855646 0.036758048
v -0.096146936 -0.0065311374 0.034054608
v -0.096346935 -0.0061666256 0.033291051
v -0.096146936 -0.005193422 0.047431167
v -0.096146936 -0.0066755249 0.047762068
v -0.096146936 -0.0078583102 0.046809627
v -0.096146936 -0.0078511161 0.045291051
v -0.096146936 -0.0066593603 0.044349859
v -0.096146936 -0.0051804587 0.044694788
v -0.096146936 -0.0045280551 0.046066099
v -0.096346935 -0.0050694662 0.047588122
v -0.096346935 -0.0043413526 0.046285317
v -0.096346935 -0.0047477214 0.044849239
v -0.096346935 -0.0060505275 0.044121126
v -0.096346935 -0.0074866044 0.044527495
v -0.096346935 -0.008214718 0.045830301
v -0.096346935 -0.0078083492 0.047266378
v -0.096346935 -0.0065055431 0.047994491
v -0.096146936 -0.0078511161 0.045291051
v -0.096346935 -0.0074866044 0.044527495
v -0.096146936 0.0060430215 0.048751146
v -0.096146936 0.0045609184 0.049082047
v -0.096146936 0.003378133 0.048129606
v -0.096146936 0.0033853273 0.04661103
v -0.096146936 0.0045770833 0.045669838
v -0.096146936 0.0060559843 0.046014766
v -0.096146936 0.0067083884 0.047386078
v -0.096346935 0.0061669771 0.048908101
v -0.096346935 0.0068950908 0.047605295
v -0.096346935 0.0064887219 0.046169218
v -0.096346935 0.0051859161 0.045441105
v -0.096346935 0.003749839 0.045847473
v -0.096346935 0.0030217254 0.047150279
v -0.096346935 0.0034280942 0.048586356
v -0.096346935 0.0047309 0.04931447
v -0.096146936 0.0033853273 0.04661103
v -0.096346935 0.003749839 0.045847473
v -0.10634694 -0.0030367416 0.037254172
v -0.10634694 -0.00070716953 0.0362509
v -0.10634694 0.0018119347 0.036546827
v -0.10634694 0.00384558 0.038062659
v -0.10634694 0.0048488521 0.040392231
v -0.10634694 0.0045529253 0.042911335
v -0.10634694 0.0030370931 0.044944981
v -0.10634694 0.00070752103 0.045948253
v -0.10634694 -0.0018115832 0.045652326
v -0.10634694 -0.0038452285 0.044136494
v -0.10634694 -0.0048485006 0.041806922
v -0.10634694 -0.0045525738 0.039287817
v -0.10614694 -0.0031606973 0.037097217
v -0.10614694 -0.0047384003 0.039213868
v -0.10614694 -0.0050464057 0.041835793
v -0.10614694 -0.0040021837 0.044260449
v -0.10614694 -0.0018855327 0.045838152
v -0.10614694 0.00073639238 0.046146158
v -0.10614694 0.0031610488 0.045101936
v -0.10614694 0.0047387518 0.042985285
v -0.10614694 0.0050467572 0.04036336
v -0.10614694 0.0040025352 0.037938703
v -0.10614694 0.0018858842 0.036361
v -0.10614694 -0.00073604088 0.036052995
v -0.10634694 0.0030370931 0.044944981
v -0.10614694 0.0031610488 0.045101936
v -0.091346935 0.0030370931 0.044944981
v -0.091346935 0.0045529253 0.042911335
v -0.091346935 0.0048488521 0.040392231
v -0.091346935 0.00384558 0.038062659
v -0.091346935 0.0018119347 0.036546827
v -0.091346935 -0.00070716953 0.0362509
v -0.091346935 -0.0030367416 0.037254172
v -0.091346935 -0.0045525738 0.039287817
v -0.091346935 -0.0048485006 0.041806922
v -0.091346935 -0.0038452285 0.044136494
v -0.091346935 -0.0018115832 0.045652326
v -0.091346935 0.00070752103 0.045948253
v -0.091546935 0.0031610488 0.045101936
v -0.091546935 0.00073639238 0.046146158
v -0.091546935 -0.0018855327 0.045838152
v -0.091546935 -0.0040021837 0.044260449
v -0.091546935 -0.0050464057 0.041835793
v -0.091546935 -0.0047384003 0.039213868
v -0.091546935 -0.0031606973 0.037097217
v -0.091546935 -0.00073604088 0.036052995
v -0.091546935 0.0018858842 0.036361
v -0.091546935 0.0040025352 0.037938703
v -0.091546935 0.0050467572 0.04036336
v -0.091546935 0.0047387518 0.042985285
v -0.091346935 -0.0030367416 0.037254172
v -0.091546935 -0.0031606973 0.037097217
f 1 2 59
f 59 2 58
f 58 2 3
f 58 3 57
f 57 3 56
f 56 3 4
f 56 4 55
f 55 4 5
f 55 5 54
f 54 5 61
f 60 6 53
f 53 6 7
f 53 7 52
f 52 7 8
f 52 8 51
f 51 8 9
f 51 9 50
f 50 9 10
f 50 10 49
f 49 10 11
f 49 11 48
f 48 11 12
f 48 12 47
f 47 12 13
f 47 13 46
f 46 13 14
f 46 14 45
f 45 14 15
f 45 15 44
f 44 15 16
f 44 16 43
f 43 16 17
f 43 17 42
f 42 17 18
f 42 18 41
f 41 18 19
f 41 19 40
f 40 19 63
f 62 20 39
f 39 20 21
f 39 21 38
f 38 21 22
f 38 22 37
f 37 22 23
f 37 23 36
f 36 23 24
f 36 24 35
f 35 24 25
f 35 25 34
f 34 25 26
f 34 26 33
f 33 26 27
f 33 27 28
f 28 29 33
f 33 29 32
f 32 29 30
f 32 30 31
f 65 115 64
f 64 115 116
f 64 116 117
f 115 65 114
f 114 65 66
f 114 66 67
f 114 67 113
f 113 67 68
f 113 68 112
f 112 68 69
f 112 69 111
f 111 69 70
f 111 70 110
f 110 70 71
f 110 71 109
f 109 71 72
f 109 72 108
f 108 72 73
f 108 73 107
f 107 73 74
f 107 74 106
f 106 74 75
f 106 75 105
f 105 75 76
f 105 76 104
f 104 76 77
f 104 77 103
f 103 77 102
f 102 77 78
f 102 78 101
f 101 78 79
f 101 79 100
f 100 79 80
f 100 80 99
f 99 80 81
f 99 81 98
f 98 81 82
f 98 82 83
f 98 83 97
f 97 83 84
f 97 84 96
f 96 84 85
f 96 85 95
f 95 85 86
f 95 86 94
f 94 86 87
f 94 87 93
f 93 87 88
f 93 88 92
f 92 88 89
f 92 89 91
f 91 89 90
f 118 119 171
f 171 119 170
f 170 119 120
f 170 120 169
f 169 120 168
f 168 120 121
f 168 121 167
f 167 121 122
f 167 122 166
f 166 122 123
f 166 123 165
f 165 123 124
f 165 124 164
f 164 124 125
f 164 125 163
f 163 125 126
f 163 126 162
f 162 126 127
f 162 127 161
f 161 127 160
f 160 127 128
f 160 128 159
f 159 128 129
f 159 129 158
f 158 129 130
f 158 130 157
f 157 130 131
f 157 131 156
f 156 131 132
f 156 132 155
f 155 132 133
f 155 133 134
f 155 134 154
f 154 134 135
f 154 135 153
f 153 135 136
f 153 136 152
f 152 136 137
f 152 137 151
f 151 137 138
f 151 138 150
f 150 138 139
f 150 139 149
f 149 139 140
f 149 140 148
f 148 140 141
f 148 141 147
f 147 141 142
f 147 142 146
f 146 142 143
f 146 143 145
f 145 143 144
f 172 173 230
f 230 173 229
f 229 173 174
f 229 174 228
f 228 174 227
f 227 174 175
f 227 175 226
f 226 175 176
f 226 176 225
f 225 176 232
f 231 177 224
f 224 177 178
f 224 178 223
f 223 178 179
f 223 179 222
f 222 179 180
f 222 180 221
f 221 180 181
f 221 181 220
f 220 181 182
f 220 182 219
f 219 182 183
f 219 183 218
f 218 183 184
f 218 184 217
f 217 184 185
f 217 185 216
f 216 185 186
f 216 186 215
f 215 186 187
f 215 187 214
f 214 187 188
f 214 188 213
f 213 188 189
f 213 189 212
f 212 189 190
f 212 190 211
f 211 190 234
f 233 191 210
f 210 191 192
f 210 192 209
f 209 192 193
f 209 193 208
f 208 193 194
f 208 194 207
f 207 194 195
f 207 195 206
f 206 195 196
f 206 196 205
f 205 196 197
f 205 197 204
f 204 197 198
f 204 198 199
f 199 200 204
f 204 200 203
f 203 200 201
f 203 201 202
f 235 236 288
f 288 236 287
f 287 236 286
f 286 236 237
f 286 237 285
f 285 237 238
f 285 238 284
f 284 238 239
f 284 239 283
f 283 239 240
f 283 240 282
f 282 240 241
f 282 241 281
f 281 241 242
f 281 242 280
f 280 242 243
f 280 243 279
f 279 243 244
f 279 244 278
f 278 244 245
f 278 245 277
f 277 245 246
f 277 246 276
f 276 246 247
f 276 247 275
f 275 247 289
f 290 248 274
f 274 248 249
f 274 249 273
f 273 249 250
f 273 250 272
f 272 250 251
f 272 251 271
f 271 251 252
f 271 252 270
f 270 252 253
f 270 253 269
f 269 253 254
f 269 254 268
f 268 254 255
f 268 255 267
f 267 255 256
f 267 256 266
f 266 256 257
f 266 257 265
f 265 257 258
f 265 258 264
f 264 258 259
f 264 259 263
f 263 259 260
f 263 260 261
f 261 262 263
f 344 291 343
f 343 291 292
f 343 292 342
f 342 292 293
f 342 293 341
f 341 293 294
f 341 294 340
f 340 294 295
f 340 295 339
f 339 295 296
f 339 296 338
f 338 296 297
f 338 297 337
f 337 297 336
f 336 297 298
f 336 298 335
f 335 298 299
f 335 299 334
f 334 299 300
f 334 300 333
f 333 300 301
f 333 301 332
f 332 301 302
f 332 302 303
f 332 303 331
f 331 303 304
f 331 304 330
f 330 304 305
f 330 305 329
f 329 305 306
f 329 306 328
f 328 306 307
f 328 307 327
f 327 307 308
f 327 308 326
f 326 308 309
f 326 309 325
f 325 309 310
f 325 310 324
f 324 310 311
f 324 311 323
f 323 311 312
f 323 312 322
f 322 312 313
f 322 313 321
f 321 313 320
f 320 313 314
f 320 314 315
f 320 315 319
f 319 315 316
f 319 316 318
f 318 316 317
f 345 346 398
f 398 346 397
f 397 346 396
f 396 346 347
f 396 347 395
f 395 347 399
f 400 348 394
f 394 348 349
f 394 349 393
f 393 349 350
f 393 350 392
f 392 350 351
f 392 351 391
f 391 351 352
f 391 352 390
f 390 352 353
f 390 353 389
f 389 353 354
f 389 354 388
f 388 354 355
f 388 355 387
f 387 355 356
f 387 356 386
f 386 356 357
f 386 357 385
f 385 357 358
f 385 358 384
f 384 358 359
f 384 359 383
f 383 359 360
f 383 360 382
f 382 360 361
f 382 361 381
f 381 361 401
f 402 362 380
f 380 362 363
f 380 363 379
f 379 363 364
f 379 364 378
f 378 364 365
f 378 365 377
f 377 365 366
f 377 366 376
f 376 366 367
f 376 367 375
f 375 367 368
f 375 368 374
f 374 368 369
f 374 369 373
f 373 369 370
f 373 370 371
f 371 372 373
f 403 404 456
f 456 404 455
f 455 404 454
f 454 404 405
f 454 405 453
f 453 405 406
f 453 406 452
f 452 406 407
f 452 407 451
f 451 407 408
f 451 408 450
f 450 408 409
f 450 409 449
f 449 409 410
f 449 410 448
f 448 410 411
f 448 411 447
f 447 411 412
f 447 412 446
f 446 412 457
f 458 413 445
f 445 413 414
f 445 414 444
f 444 414 415
f 444 415 443
f 443 415 416
f 443 416 442
f 442 416 417
f 442 417 441
f 441 417 418
f 441 418 440
f 440 418 419
f 440 419 439
f 439 419 420
f 439 420 438
f 438 420 421
f 438 421 437
f 437 421 422
f 437 422 436
f 436 422 423
f 436 423 435
f 435 423 424
f 435 424 434
f 434 424 460
f 434 460 433
f 459 425 426
f 459 426 432
f 432 426 427
f 432 427 431
f 431 427 428
f 431 428 429
f 429 430 431
f 461 462 514
f 514 462 513
f 513 462 463
f 513 463 512
f 512 463 511
f 511 463 464
f 511 464 510
f 510 464 465
f 510 465 509
f 509 465 466
f 509 466 508
f 508 466 467
f 508 467 507
f 507 467 468
f 507 468 506
f 506 468 469
f 506 469 505
f 505 469 504
f 504 469 470
f 504 470 503
f 503 470 471
f 503 471 502
f 502 471 472
f 502 472 501
f 501 472 473
f 501 473 500
f 500 473 474
f 500 474 499
f 499 474 475
f 499 475 476
f 499 476 498
f 498 476 477
f 498 477 497
f 497 477 478
f 497 478 496
f 496 478 479
f 496 479 495
f 495 479 480
f 495 480 494
f 494 480 481
f 494 481 493
f 493 481 482
f 493 482 492
f 492 482 483
f 492 483 491
f 491 483 484
f 491 484 490
f 490 484 485
f 490 485 489
f 489 485 486
f 489 486 488
f 488 486 487
f 516 550 515
f 515 550 533
f 515 533 532
f 532 533 534
f 532 534 531
f 531 534 535
f 531 535 530
f 530 535 536
f 530 536 529
f 529 536 537
f 529 537 528
f 528 537 538
f 528 538 527
f 527 538 539
f 527 539 526
f 526 539 540
f 526 540 525
f 525 540 541
f 525 541 524
f 524 541 552
f 551 542 523
f 523 542 543
f 523 543 522
f 522 543 544
f 522 544 521
f 521 544 545
f 521 545 520
f 520 545 546
f 520 546 519
f 519 546 547
f 519 547 518
f 518 547 548
f 518 548 517
f 517 548 549
f 517 549 516
f 516 549 550
f 553 554 606
f 606 554 605
f 605 554 604
f 604 554 555
f 604 555 603
f 603 555 556
f 603 556 602
f 602 556 557
f 602 557 601
f 601 557 608
f 601 608 600
f 609 558 559
f 609 559 599
f 599 559 560
f 599 560 598
f 598 560 561
f 598 561 597
f 597 561 562
f 597 562 596
f 596 562 563
f 596 563 595
f 595 563 564
f 595 564 594
f 594 564 565
f 594 565 593
f 593 565 566
f 593 566 592
f 592 566 567
f 592 567 591
f 591 567 568
f 591 568 590
f 590 568 569
f 590 569 589
f 589 569 570
f 589 570 588
f 588 570 571
f 588 571 587
f 587 571 610
f 587 610 586
f 607 572 573
f 607 573 585
f 585 573 574
f 585 574 584
f 584 574 575
f 584 575 583
f 583 575 576
f 583 576 582
f 582 576 577
f 582 577 581
f 581 577 578
f 581 578 579
f 579 580 581
f 611 612 669
f 669 612 668
f 668 612 613
f 668 613 667
f 667 613 666
f 666 613 614
f 666 614 665
f 665 614 615
f 665 615 664
f 664 615 671
f 670 616 663
f 663 616 617
f 663 617 662
f 662 617 618
f 662 618 661
f 661 618 619
f 661 619 660
f 660 619 620
f 660 620 659
f 659 620 621
f 659 621 658
f 658 621 622
f 658 622 657
f 657 622 623
f 657 623 656
f 656 623 624
f 656 624 655
f 655 624 625
f 655 625 654
f 654 625 626
f 654 626 653
f 653 626 627
f 653 627 652
f 652 627 628
f 652 628 651
f 651 628 629
f 651 629 650
f 650 629 673
f 672 630 649
f 649 630 631
f 649 631 648
f 648 631 632
f 648 632 647
f 647 632 633
f 647 633 646
f 646 633 634
f 646 634 645
f 645 634 635
f 645 635 644
f 644 635 636
f 644 636 643
f 643 636 637
f 643 637 638
f 638 639 643
f 643 639 642
f 642 639 640
f 642 640 641
f 675 698 674
f 674 698 686
f 674 686 687
f 698 675 697
f 697 675 676
f 697 676 696
f 696 676 677
f 696 677 695
f 695 677 678
f 695 678 694
f 694 678 679
f 694 679 693
f 693 679 699
f 693 699 692
f 700 680 681
f 700 681 691
f 691 681 682
f 691 682 690
f 690 682 683
f 690 683 689
f 689 683 684
f 689 684 688
f 688 684 685
f 688 685 687
f 687 685 674
f 702 727 701
f 701 727 728
f 701 728 718
f 718 728 729
f 718 729 717
f 717 729 730
f 717 730 716
f 716 730 731
f 716 731 715
f 715 731 732
f 715 732 714
f 714 732 733
f 714 733 713
f 713 733 734
f 713 734 712
f 712 734 735
f 712 735 711
f 711 735 736
f 711 736 710
f 710 736 738
f 737 719 709
f 709 719 720
f 709 720 708
f 708 720 721
f 708 721 707
f 707 721 722
f 707 722 706
f 706 722 723
f 706 723 705
f 705 723 724
f 705 724 704
f 704 724 725
f 704 725 703
f 703 725 726
f 703 726 702
f 702 726 727
f 740 753 739
f 739 753 746
f 739 746 747
f 753 740 752
f 752 740 741
f 752 741 751
f 751 741 754
f 751 754 750
f 755 742 743
f 755 743 749
f 749 743 744
f 749 744 748
f 748 744 745
f 748 745 747
f 747 745 739
f 809 756 808
f 808 756 757
f 808 757 807
f 807 757 758
f 807 758 806
f 806 758 759
f 806 759 805
f 805 759 760
f 805 760 804
f 804 760 803
f 803 760 761
f 803 761 802
f 802 761 762
f 802 762 801
f 801 762 763
f 801 763 800
f 800 763 764
f 800 764 799
f 799 764 765
f 799 765 798
f 798 765 766
f 798 766 767
f 798 767 797
f 797 767 768
f 797 768 796
f 796 768 769
f 796 769 795
f 795 769 770
f 795 770 794
f 794 770 771
f 794 771 793
f 793 771 772
f 793 772 792
f 792 772 773
f 792 773 791
f 791 773 774
f 791 774 790
f 790 774 775
f 790 775 789
f 789 775 776
f 789 776 788
f 788 776 777
f 788 777 787
f 787 777 786
f 786 777 778
f 786 778 785
f 785 778 779
f 785 779 780
f 785 780 784
f 784 780 781
f 784 781 783
f 783 781 782
f 845 810 846
f 846 810 811
f 846 811 812
f 846 812 856
f 856 812 813
f 856 813 816
f 816 813 814
f 816 814 815
f 856 816 855
f 855 816 817
f 855 817 818
f 818 819 855
f 855 819 854
f 854 819 820
f 854 820 821
f 854 821 853
f 853 821 822
f 853 822 825
f 825 822 823
f 825 823 824
f 825 826 853
f 853 826 852
f 852 826 827
f 852 827 858
f 852 858 851
f 857 828 829
f 857 829 830
f 857 830 850
f 850 830 831
f 850 831 834
f 834 831 832
f 834 832 833
f 834 835 850
f 850 835 836
f 850 836 849
f 849 836 837
f 849 837 838
f 849 838 848
f 848 838 839
f 848 839 840
f 848 840 843
f 843 840 841
f 843 841 842
f 848 843 847
f 847 843 844
f 847 844 845
f 847 845 846
f 860 873 859
f 874 869 870
f 874 870 865
f 865 870 871
f 865 871 864
f 864 871 872
f 864 872 863
f 863 872 866
f 863 866 862
f 862 866 867
f 862 867 861
f 861 867 868
f 861 868 860
f 860 868 873
f 876 889 875
f 875 889 882
f 875 882 883
f 889 876 888
f 888 876 877
f 888 877 887
f 887 877 890
f 887 890 886
f 891 878 879
f 891 879 885
f 885 879 880
f 885 880 884
f 884 880 881
f 884 881 883
f 883 881 875
f 892 893 945
f 945 893 944
f 944 893 894
f 944 894 943
f 943 894 942
f 942 894 941
f 941 894 895
f 941 895 940
f 940 895 896
f 940 896 939
f 939 896 897
f 939 897 938
f 938 897 898
f 938 898 899
f 938 899 937
f 937 899 900
f 937 900 936
f 936 900 901
f 936 901 935
f 935 901 902
f 935 902 934
f 934 902 903
f 934 903 933
f 933 903 904
f 933 904 932
f 932 904 905
f 932 905 931
f 931 905 906
f 931 906 930
f 930 906 907
f 930 907 929
f 929 907 908
f 929 908 928
f 928 908 927
f 927 908 909
f 927 909 926
f 926 909 910
f 926 910 925
f 925 910 911
f 925 911 924
f 924 911 912
f 924 912 923
f 923 912 913
f 923 913 922
f 922 913 914
f 922 914 915
f 922 915 921
f 921 915 916
f 921 916 920
f 920 916 917
f 920 917 919
f 919 917 918
f 947 987 946
f 946 987 983
f 946 983 984
f 987 947 986
f 986 947 948
f 986 948 949
f 986 949 996
f 996 949 950
f 996 950 951
f 951 952 996
f 996 952 995
f 995 952 953
f 995 953 956
f 956 953 954
f 956 954 955
f 956 957 995
f 995 957 994
f 994 957 958
f 994 958 959
f 959 960 994
f 994 960 993
f 993 960 961
f 993 961 962
f 962 963 993
f 993 963 966
f 993 966 992
f 992 966 967
f 992 967 968
f 963 964 966
f 966 964 965
f 992 968 991
f 991 968 998
f 997 969 970
f 970 971 997
f 997 971 990
f 990 971 972
f 990 972 973
f 990 973 976
f 976 973 974
f 976 974 975
f 990 976 989
f 989 976 977
f 989 977 978
f 978 979 989
f 989 979 988
f 988 979 980
f 988 980 981
f 988 981 987
f 987 981 982
f 987 982 983
f 984 985 946
f 1000 1057 999
f 999 1057 1058
f 999 1058 1059
f 1057 1000 1056
f 1056 1000 1001
f 1056 1001 1029
f 1029 1001 1028
f 1028 1001 1002
f 1028 1002 1050
f 1050 1002 1049
f 1049 1002 1003
f 1049 1003 1048
f 1048 1003 1004
f 1048 1004 1047
f 1047 1004 1005
f 1047 1005 1046
f 1046 1005 1026
f 1046 1026 1053
f 1053 1026 1052
f 1052 1026 1027
f 1052 1027 1051
f 1051 1027 1028
f 1051 1028 1050
f 1026 1005 1025
f 1025 1005 1006
f 1025 1006 1040
f 1040 1006 1007
f 1040 1007 1039
f 1039 1007 1008
f 1039 1008 1038
f 1038 1008 1045
f 1045 1008 1009
f 1045 1009 1044
f 1044 1009 1010
f 1044 1010 1022
f 1022 1010 1011
f 1022 1011 1021
f 1021 1011 1030
f 1021 1030 1031
f 1030 1011 1037
f 1037 1011 1012
f 1037 1012 1036
f 1036 1012 1013
f 1036 1013 1035
f 1035 1013 1014
f 1035 1014 1034
f 1034 1014 1019
f 1034 1019 1033
f 1033 1019 1020
f 1033 1020 1032
f 1032 1020 1021
f 1032 1021 1031
f 1014 1015 1019
f 1019 1015 1018
f 1018 1015 1060
f 1018 1060 1061
f 1015 1016 1060
f 1060 1016 1059
f 1059 1016 999
f 1018 1061 1017
f 1017 1061 1054
f 1017 1054 1055
f 1044 1022 1043
f 1043 1022 1023
f 1043 1023 1042
f 1042 1023 1024
f 1042 1024 1041
f 1041 1024 1025
f 1041 1025 1040
f 1056 1029 1055
f 1055 1029 1017
f 1063 1076 1062
f 1077 1072 1073
f 1077 1073 1068
f 1068 1073 1074
f 1068 1074 1067
f 1067 1074 1075
f 1067 1075 1066
f 1066 1075 1069
f 1066 1069 1065
f 1065 1069 1070
f 1065 1070 1064
f 1064 1070 1071
f 1064 1071 1063
f 1063 1071 1076
f 1079 1092 1078
f 1078 1092 1085
f 1078 1085 1086
f 1092 1079 1091
f 1091 1079 1080
f 1091 1080 1090
f 1090 1080 1093
f 1090 1093 1089
f 1094 1081 1082
f 1094 1082 1088
f 1088 1082 1083
f 1088 1083 1087
f 1087 1083 1084
f 1087 1084 1086
f 1086 1084 1078
f 1095 1096 1153
f 1153 1096 1152
f 1152 1096 1097
f 1152 1097 1151
f 1151 1097 1150
f 1150 1097 1098
f 1150 1098 1149
f 1149 1098 1099
f 1149 1099 1148
f 1148 1099 1155
f 1154 1100 1147
f 1147 1100 1101
f 1147 1101 1146
f 1146 1101 1102
f 1146 1102 1145
f 1145 1102 1103
f 1145 1103 1144
f 1144 1103 1104
f 1144 1104 1143
f 1143 1104 1105
f 1143 1105 1142
f 1142 1105 1106
f 1142 1106 1141
f 1141 1106 1107
f 1141 1107 1140
f 1140 1107 1108
f 1140 1108 1139
f 1139 1108 1109
f 1139 1109 1138
f 1138 1109 1110
f 1138 1110 1137
f 1137 1110 1111
f 1137 1111 1136
f 1136 1111 1112
f 1136 1112 1135
f 1135 1112 1113
f 1135 1113 1134
f 1134 1113 1157
f 1156 1114 1133
f 1133 1114 1115
f 1133 1115 1132
f 1132 1115 1116
f 1132 1116 1131
f 1131 1116 1117
f 1131 1117 1130
f 1130 1117 1118
f 1130 1118 1129
f 1129 1118 1119
f 1129 1119 1128
f 1128 1119 1120
f 1128 1120 1127
f 1127 1120 1121
f 1127 1121 1122
f 1122 1123 1127
f 1127 1123 1126
f 1126 1123 1124
f 1126 1124 1125
f 1159 1200 1158
f 1158 1200 1201
f 1158 1201 1202
f 1200 1159 1199
f 1199 1159 1160
f 1199 1160 1188
f 1188 1160 1187
f 1187 1160 1161
f 1187 1161 1209
f 1209 1161 1208
f 1208 1161 1162
f 1208 1162 1207
f 1207 1162 1163
f 1207 1163 1206
f 1206 1163 1164
f 1206 1164 1205
f 1205 1164 1185
f 1205 1185 1212
f 1212 1185 1211
f 1211 1185 1186
f 1211 1186 1210
f 1210 1186 1187
f 1210 1187 1209
f 1185 1164 1184
f 1184 1164 1165
f 1184 1165 1215
f 1215 1165 1166
f 1215 1166 1214
f 1214 1166 1167
f 1214 1167 1213
f 1213 1167 1220
f 1220 1167 1168
f 1220 1168 1219
f 1219 1168 1169
f 1219 1169 1181
f 1181 1169 1170
f 1181 1170 1180
f 1180 1170 1189
f 1180 1189 1190
f 1189 1170 1196
f 1196 1170 1171
f 1196 1171 1195
f 1195 1171 1172
f 1195 1172 1194
f 1194 1172 1173
f 1194 1173 1193
f 1193 1173 1178
f 1193 1178 1192
f 1192 1178 1179
f 1192 1179 1191
f 1191 1179 1180
f 1191 1180 1190
f 1173 1174 1178
f 1178 1174 1177
f 1177 1174 1203
f 1177 1203 1204
f 1174 1175 1203
f 1203 1175 1202
f 1202 1175 1158
f 1177 1204 1176
f 1176 1204 1197
f 1176 1197 1198
f 1219 1181 1218
f 1218 1181 1182
f 1218 1182 1217
f 1217 1182 1183
f 1217 1183 1216
f 1216 1183 1184
f 1216 1184 1215
f 1199 1188 1198
f 1198 1188 1176
f 1222 1235 1221
f 1236 1231 1232
f 1236 1232 1227
f 1227 1232 1233
f 1227 1233 1226
f 1226 1233 1234
f 1226 1234 1225
f 1225 1234 1228
f 1225 1228 1224
f 1224 1228 1229
f 1224 1229 1223
f 1223 1229 1230
f 1223 1230 1222
f 1222 1230 1235
f 1238 1251 1237
f 1237 1251 1244
f 1237 1244 1245
f 1251 1238 1250
f 1250 1238 1239
f 1250 1239 1249
f 1249 1239 1252
f 1249 1252 1248
f 1253 1240 1241
f 1253 1241 1247
f 1247 1241 1242
f 1247 1242 1246
f 1246 1242 1243
f 1246 1243 1245
f 1245 1243 1237
f 1307 1254 1298
f 1298 1254 1255
f 1298 1255 1297
f 1297 1255 1256
f 1297 1256 1296
f 1296 1256 1257
f 1296 1257 1295
f 1295 1257 1258
f 1295 1258 1294
f 1294 1258 1259
f 1294 1259 1293
f 1293 1259 1292
f 1292 1259 1260
f 1292 1260 1291
f 1291 1260 1261
f 1291 1261 1290
f 1290 1261 1262
f 1290 1262 1289
f 1289 1262 1263
f 1289 1263 1288
f 1288 1263 1264
f 1288 1264 1265
f 1288 1265 1287
f 1287 1265 1266
f 1287 1266 1286
f 1286 1266 1267
f 1286 1267 1285
f 1285 1267 1268
f 1285 1268 1284
f 1284 1268 1269
f 1284 1269 1283
f 1283 1269 1270
f 1283 1270 1282
f 1282 1270 1271
f 1282 1271 1281
f 1281 1271 1272
f 1281 1272 1280
f 1280 1272 1273
f 1280 1273 1279
f 1279 1273 1274
f 1279 1274 1278
f 1278 1274 1275
f 1278 1275 1277
f 1277 1275 1276
f 1298 1299 1307
f 1307 1299 1306
f 1306 1299 1300
f 1306 1300 1305
f 1305 1300 1301
f 1305 1301 1304
f 1304 1301 1302
f 1304 1302 1303
f 1309 1331 1308
f 1308 1331 1320
f 1308 1320 1319
f 1319 1320 1321
f 1319 1321 1318
f 1318 1321 1322
f 1318 1322 1317
f 1317 1322 1323
f 1317 1323 1316
f 1316 1323 1324
f 1316 1324 1315
f 1315 1324 1325
f 1315 1325 1314
f 1314 1325 1333
f 1332 1326 1313
f 1313 1326 1327
f 1313 1327 1312
f 1312 1327 1328
f 1312 1328 1311
f 1311 1328 1329
f 1311 1329 1310
f 1310 1329 1330
f 1310 1330 1309
f 1309 1330 1331
f 1335 1348 1334
f 1349 1344 1345
f 1349 1345 1340
f 1340 1345 1346
f 1340 1346 1339
f 1339 1346 1347
f 1339 1347 1338
f 1338 1347 1341
f 1338 1341 1337
f 1337 1341 1342
f 1337 1342 1336
f 1336 1342 1343
f 1336 1343 1335
f 1335 1343 1348
f 1351 1385 1350
f 1350 1385 1368
f 1350 1368 1367
f 1367 1368 1369
f 1367 1369 1366
f 1366 1369 1370
f 1366 1370 1365
f 1365 1370 1371
f 1365 1371 1364
f 1364 1371 1372
f 1364 1372 1363
f 1363 1372 1373
f 1363 1373 1362
f 1362 1373 1374
f 1362 1374 1361
f 1361 1374 1375
f 1361 1375 1360
f 1360 1375 1376
f 1360 1376 1359
f 1359 1376 1387
f 1386 1377 1358
f 1358 1377 1378
f 1358 1378 1357
f 1357 1378 1379
f 1357 1379 1356
f 1356 1379 1380
f 1356 1380 1355
f 1355 1380 1381
f 1355 1381 1354
f 1354 1381 1382
f 1354 1382 1353
f 1353 1382 1383
f 1353 1383 1352
f 1352 1383 1384
f 1352 1384 1351
f 1351 1384 1385
f 1388 1389 1441
f 1441 1389 1440
f 1440 1389 1390
f 1440 1390 1439
f 1439 1390 1438
f 1438 1390 1437
f 1437 1390 1391
f 1437 1391 1436
f 1436 1391 1392
f 1436 1392 1435
f 1435 1392 1393
f 1435 1393 1434
f 1434 1393 1394
f 1434 1394 1395
f 1434 1395 1433
f 1433 1395 1396
f 1433 1396 1432
f 1432 1396 1397
f 1432 1397 1431
f 1431 1397 1398
f 1431 1398 1430
f 1430 1398 1399
f 1430 1399 1429
f 1429 1399 1400
f 1429 1400 1428
f 1428 1400 1401
f 1428 1401 1427
f 1427 1401 1402
f 1427 1402 1426
f 1426 1402 1403
f 1426 1403 1425
f 1425 1403 1404
f 1425 1404 1424
f 1424 1404 1423
f 1423 1404 1405
f 1423 1405 1422
f 1422 1405 1406
f 1422 1406 1421
f 1421 1406 1407
f 1421 1407 1420
f 1420 1407 1408
f 1420 1408 1419
f 1419 1408 1409
f 1419 1409 1418
f 1418 1409 1410
f 1418 1410 1411
f 1418 1411 1417
f 1417 1411 1412
f 1417 1412 1416
f 1416 1412 1413
f 1416 1413 1415
f 1415 1413 1414
f 1443 1465 1442
f 1442 1465 1467
f 1466 1454 1453
f 1453 1454 1455
f 1453 1455 1452
f 1452 1455 1456
f 1452 1456 1451
f 1451 1456 1457
f 1451 1457 1450
f 1450 1457 1458
f 1450 1458 1449
f 1449 1458 1459
f 1449 1459 1448
f 1448 1459 1460
f 1448 1460 1447
f 1447 1460 1461
f 1447 1461 1446
f 1446 1461 1462
f 1446 1462 1445
f 1445 1462 1463
f 1445 1463 1444
f 1444 1463 1464
f 1444 1464 1443
f 1443 1464 1465
f 1469 1485 1468
f 1468 1485 1486
f 1468 1486 1479
f 1479 1486 1487
f 1479 1487 1478
f 1478 1487 1488
f 1478 1488 1477
f 1477 1488 1489
f 1477 1489 1476
f 1476 1489 1490
f 1476 1490 1475
f 1475 1490 1480
f 1475 1480 1474
f 1474 1480 1473
f 1473 1480 1481
f 1473 1481 1472
f 1472 1481 1482
f 1472 1482 1471
f 1471 1482 1483
f 1471 1483 1470
f 1470 1483 1484
f 1470 1484 1469
f 1469 1484 1485
f 1492 1515 1491
f 1491 1515 1503
f 1491 1503 1504
f 1515 1492 1514
f 1514 1492 1493
f 1514 1493 1513
f 1513 1493 1494
f 1513 1494 1512
f 1512 1494 1495
f 1512 1495 1511
f 1511 1495 1496
f 1511 1496 1510
f 1510 1496 1516
f 1510 1516 1509
f 1517 1497 1498
f 1517 1498 1508
f 1508 1498 1499
f 1508 1499 1507
f 1507 1499 1500
f 1507 1500 1506
f 1506 1500 1501
f 1506 1501 1505
f 1505 1501 1502
f 1505 1502 1504
f 1504 1502 1491
f 1519 1535 1518
f 1518 1535 1536
f 1518 1536 1529
f 1529 1536 1537
f 1529 1537 1528
f 1528 1537 1538
f 1528 1538 1527
f 1527 1538 1539
f 1527 1539 1526
f 1526 1539 1540
f 1526 1540 1525
f 1525 1540 1530
f 1525 1530 1524
f 1524 1530 1523
f 1523 1530 1531
f 1523 1531 1522
f 1522 1531 1532
f 1522 1532 1521
f 1521 1532 1533
f 1521 1533 1520
f 1520 1533 1534
f 1520 1534 1519
f 1519 1534 1535
f 1542 1555 1541
f 1541 1555 1548
f 1541 1548 1549
f 1555 1542 1554
f 1554 1542 1543
f 1554 1543 1553
f 1553 1543 1556
f 1553 1556 1552
f 1557 1544 1545
f 1557 1545 1551
f 1551 1545 1546
f 1551 1546 1550
f 1550 1546 1547
f 1550 1547 1549
f 1549 1547 1541
f 1559 1572 1558
f 1558 1572 1565
f 1558 1565 1566
f 1572 1559 1571
f 1571 1559 1560
f 1571 1560 1570
f 1570 1560 1573
f 1570 1573 1569
f 1574 1561 1562
f 1574 1562 1568
f 1568 1562 1563
f 1568 1563 1567
f 1567 1563 1564
f 1567 1564 1566
f 1566 1564 1558
f 1576 1589 1575
f 1575 1589 1582
f 1575 1582 1583
f 1589 1576 1588
f 1588 1576 1577
f 1588 1577 1587
f 1587 1577 1590
f 1587 1590 1586
f 1591 1578 1579
f 1591 1579 1585
f 1585 1579 1580
f 1585 1580 1584
f 1584 1580 1581
f 1584 1581 1583
f 1583 1581 1575
f 1593 1606 1592
f 1592 1606 1599
f 1592 1599 1600
f 1606 1593 1605
f 1605 1593 1594
f 1605 1594 1604
f 1604 1594 1607
f 1604 1607 1603
f 1608 1595 1596
f 1608 1596 1602
f 1602 1596 1597
f 1602 1597 1601
f 1601 1597 1598
f 1601 1598 1600
f 1600 1598 1592
f 1610 1632 1609
f 1609 1632 1621
f 1609 1621 1620
f 1620 1621 1622
f 1620 1622 1619
f 1619 1622 1623
f 1619 1623 1618
f 1618 1623 1624
f 1618 1624 1617
f 1617 1624 1625
f 1617 1625 1616
f 1616 1625 1626
f 1616 1626 1615
f 1615 1626 1634
f 1633 1627 1614
f 1614 1627 1628
f 1614 1628 1613
f 1613 1628 1629
f 1613 1629 1612
f 1612 1629 1630
f 1612 1630 1611
f 1611 1630 1631
f 1611 1631 1610
f 1610 1631 1632
f 1636 1658 1635
f 1635 1658 1647
f 1635 1647 1646
f 1646 1647 1648
f 1646 1648 1645
f 1645 1648 1649
f 1645 1649 1644
f 1644 1649 1650
f 1644 1650 1643
f 1643 1650 1651
f 1643 1651 1642
f 1642 1651 1652
f 1642 1652 1641
f 1641 1652 1660
f 1659 1653 1640
f 1640 1653 1654
f 1640 1654 1639
f 1639 1654 1655
f 1639 1655 1638
f 1638 1655 1656
f 1638 1656 1637
f 1637 1656 1657
f 1637 1657 1636
f 1636 1657 1658
