v 0.25814114 -0.020999868 0.048099576
v 0.25814114 -0.020999868 0.034099576
v 0.25714114 -0.020999868 0.034099576
v 0.25714114 -0.020999868 0.048099576
v 0.25814114 -0.025499869 0.034099576
v 0.25814114 -0.025499869 0.048099576
v 0.25714114 -0.025499869 0.048099576
v 0.25714114 -0.025499869 0.034099576
v 0.25814114 -0.020999868 0.034099576
v 0.25814114 -0.020999868 0.048099576
v 0.25814114 -0.025499869 0.048099576
v 0.25814114 -0.025499869 0.034099576
v 0.25814114 -0.020999868 0.048099576
v 0.25714114 -0.020999868 0.048099576
v 0.25714114 -0.025499869 0.048099576
v 0.25814114 -0.025499869 0.048099576
v 0.25714114 -0.020999868 0.048099576
v 0.25714114 -0.020999868 0.034099576
v 0.25714114 -0.025499869 0.034099576
v 0.25714114 -0.025499869 0.048099576
v 0.25714114 -0.020999868 0.034099576
v 0.25814114 -0.020999868 0.034099576
v 0.25814114 -0.025499869 0.034099576
v 0.25714114 -0.025499869 0.034099576
f 1 2 4
f 4 2 3
f 6 7 5
f 5 7 8
f 9 10 12
f 12 10 11
f 13 14 16
f 16 14 15
f 17 18 20
f 20 18 19
f 21 22 24
f 24 22 23
