v -0.030316709 0.017928614 0.11240583
v -0.030516709 0.017928614 0.11240583
v -0.030516709 0.018728614 0.11240583
v -0.030316709 0.018728614 0.11240583
v -0.030316709 0.018728614 0.11320583
v -0.030316709 0.017928614 0.11320583
v -0.030316709 0.017928614 0.11240583
v -0.030316709 0.018728614 0.11240583
v -0.030316709 0.018728614 0.11240583
v -0.030516709 0.018728614 0.11240583
v -0.030516709 0.018728614 0.11320583
v -0.030316709 0.018728614 0.11320583
v -0.030316709 0.018728614 0.11320583
v -0.030516709 0.018728614 0.11320583
v -0.030516709 0.017928614 0.11320583
v -0.030316709 0.017928614 0.11320583
v -0.030316709 0.017928614 0.11320583
v -0.030516709 0.017928614 0.11320583
v -0.030516709 0.017928614 0.11240583
v -0.030316709 0.017928614 0.11240583
v -0.030516709 0.017928614 0.11320583
v -0.030516709 0.018728614 0.11320583
v -0.030516709 0.018728614 0.11240583
v -0.030516709 0.017928614 0.11240583
f 1 2 4
f 4 2 3
f 6 7 5
f 5 7 8
f 9 10 12
f 12 10 11
f 13 14 16
f 16 14 15
f 17 18 20
f 20 18 19
f 22 23 21
f 21 23 24
