v -0.80799999 -0.3728575 0.02
v -0.80799999 -0.32485751 0.02
v -0.71 -0.32485751 0.02
v -0.71 -0.3728575 0.02
v -0.80799999 -0.32485751 0.085
v -0.80799999 -0.3728575 0.085
v -0.71 -0.3728575 0.085
v -0.71 -0.32485751 0.085
v -0.80799999 -0.32485751 0.02
v -0.80799999 -0.3728575 0.02
v -0.80799999 -0.3728575 0.085
v -0.80799999 -0.32485751 0.085
v -0.80799999 -0.3728575 0.02
v -0.71 -0.3728575 0.02
v -0.71 -0.3728575 0.085
v -0.80799999 -0.3728575 0.085
v -0.71 -0.3728575 0.02
v -0.71 -0.32485751 0.02
v -0.71 -0.32485751 0.085
v -0.71 -0.3728575 0.085
v -0.71 -0.32485751 0.02
v -0.80799999 -0.32485751 0.02
v -0.80799999 -0.32485751 0.085
v -0.71 -0.32485751 0.085
f 2 3 1
f 1 3 4
f 6 7 5
f 5 7 8
f 9 10 12
f 12 10 11
f 13 14 16
f 16 14 15
f 17 18 20
f 20 18 19
f 21 22 24
f 24 22 23
v -0.609 -0.3728575 0.02
v -0.609 -0.32485751 0.02
v -0.39200001 -0.32485751 0.02
v -0.39200001 -0.3728575 0.02
v -0.609 -0.32485751 0.085
v -0.609 -0.3728575 0.085
v -0.39200001 -0.3728575 0.085
v -0.39200001 -0.32485751 0.085
v -0.609 -0.32485751 0.02
v -0.609 -0.3728575 0.02
v -0.609 -0.3728575 0.085
v -0.609 -0.32485751 0.085
v -0.609 -0.3728575 0.02
v -0.39200001 -0.3728575 0.02
v -0.39200001 -0.3728575 0.085
v -0.609 -0.3728575 0.085
v -0.39200001 -0.3728575 0.02
v -0.39200001 -0.32485751 0.02
v -0.39200001 -0.32485751 0.085
v -0.39200001 -0.3728575 0.085
v -0.39200001 -0.32485751 0.02
v -0.609 -0.32485751 0.02
v -0.609 -0.32485751 0.085
v -0.39200001 -0.32485751 0.085
f 26 27 25
f 25 27 28
f 30 31 29
f 29 31 32
f 33 34 36
f 36 34 35
f 37 38 40
f 40 38 39
f 41 42 44
f 44 42 43
f 45 46 48
f 48 46 47
v -0.39 -0.3728575 0.02
v -0.39 -0.3688575 0.02
v -0.25 -0.3688575 0.02
v -0.25 -0.3728575 0.02
v -0.39 -0.3688575 0.085
v -0.39 -0.3728575 0.085
v -0.25 -0.3728575 0.085
v -0.25 -0.3688575 0.085
v -0.39 -0.3688575 0.02
v -0.39 -0.3728575 0.02
v -0.39 -0.3728575 0.085
v -0.39 -0.3688575 0.085
v -0.39 -0.3728575 0.02
v -0.25 -0.3728575 0.02
v -0.25 -0.3728575 0.085
v -0.39 -0.3728575 0.085
v -0.25 -0.3728575 0.02
v -0.25 -0.3688575 0.02
v -0.25 -0.3688575 0.085
v -0.25 -0.3728575 0.085
v -0.25 -0.3688575 0.02
v -0.39 -0.3688575 0.02
v -0.39 -0.3688575 0.085
v -0.25 -0.3688575 0.085
f 50 51 49
f 49 51 52
f 54 55 53
f 53 55 56
f 57 58 60
f 60 58 59
f 61 62 64
f 64 62 63
f 65 66 68
f 68 66 67
f 69 70 72
f 72 70 71
v -0.25 -0.1228575 0.02
v -0.25 0.3771425 0.02
v 0.81 0.3771425 0.02
v 0.81 -0.1228575 0.02
v -0.25 0.3771425 0.085
v -0.25 -0.1228575 0.085
v 0.81 -0.1228575 0.085
v 0.81 0.3771425 0.085
v -0.25 0.3771425 0.02
v -0.25 -0.1228575 0.02
v -0.25 -0.1228575 0.085
v -0.25 0.3771425 0.085
v -0.25 -0.1228575 0.02
v 0.81 -0.1228575 0.02
v 0.81 -0.1228575 0.085
v -0.25 -0.1228575 0.085
v 0.81 -0.1228575 0.02
v 0.81 0.3771425 0.02
v 0.81 0.3771425 0.085
v 0.81 -0.1228575 0.085
v 0.81 0.3771425 0.02
v -0.25 0.3771425 0.02
v -0.25 0.3771425 0.085
v 0.81 0.3771425 0.085
f 74 75 73
f 73 75 76
f 78 79 77
f 77 79 80
f 81 82 84
f 84 82 83
f 85 86 88
f 88 86 87
f 89 90 92
f 92 90 91
f 93 94 96
f 96 94 95
v -0.25 -0.3728575 0.02
v -0.25 -0.1228575 0.02
v -0.206 -0.1228575 0.02
v -0.206 -0.3728575 0.02
v -0.25 -0.1228575 0.085
v -0.25 -0.3728575 0.085
v -0.206 -0.3728575 0.085
v -0.206 -0.1228575 0.085
v -0.25 -0.1228575 0.02
v -0.25 -0.3728575 0.02
v -0.25 -0.3728575 0.085
v -0.25 -0.1228575 0.085
v -0.25 -0.3728575 0.02
v -0.206 -0.3728575 0.02
v -0.206 -0.3728575 0.085
v -0.25 -0.3728575 0.085
v -0.206 -0.3728575 0.02
v -0.206 -0.1228575 0.02
v -0.206 -0.1228575 0.085
v -0.206 -0.3728575 0.085
v -0.206 -0.1228575 0.02
v -0.25 -0.1228575 0.02
v -0.25 -0.1228575 0.085
v -0.206 -0.1228575 0.085
f 98 99 97
f 97 99 100
f 102 103 101
f 101 103 104
f 105 106 108
f 108 106 107
f 109 110 112
f 112 110 111
f 113 114 116
f 116 114 115
f 117 118 120
f 120 118 119
v 0.49885002 -0.3728575 0.02
v 0.49885002 -0.1228575 0.02
v 0.81 -0.1228575 0.02
v 0.81 -0.3728575 0.02
v 0.49885002 -0.1228575 0.085
v 0.49885002 -0.3728575 0.085
v 0.81 -0.3728575 0.085
v 0.81 -0.1228575 0.085
v 0.49885002 -0.1228575 0.02
v 0.49885002 -0.3728575 0.02
v 0.49885002 -0.3728575 0.085
v 0.49885002 -0.1228575 0.085
v 0.49885002 -0.3728575 0.02
v 0.81 -0.3728575 0.02
v 0.81 -0.3728575 0.085
v 0.49885002 -0.3728575 0.085
v 0.81 -0.3728575 0.02
v 0.81 -0.1228575 0.02
v 0.81 -0.1228575 0.085
v 0.81 -0.3728575 0.085
v 0.81 -0.1228575 0.02
v 0.49885002 -0.1228575 0.02
v 0.49885002 -0.1228575 0.085
v 0.81 -0.1228575 0.085
f 122 123 121
f 121 123 124
f 126 127 125
f 125 127 128
f 129 130 132
f 132 130 131
f 133 134 136
f 136 134 135
f 137 138 140
f 140 138 139
f 141 142 144
f 144 142 143
v -0.206 -0.3728575 0.02
v -0.206 -0.3648575 0.02
v -0.204225 -0.3648575 0.02
v -0.204225 -0.3728575 0.02
v -0.206 -0.3648575 0.085
v -0.206 -0.3728575 0.085
v -0.204225 -0.3728575 0.085
v -0.204225 -0.3648575 0.085
v -0.206 -0.3648575 0.02
v -0.206 -0.3728575 0.02
v -0.206 -0.3728575 0.085
v -0.206 -0.3648575 0.085
v -0.206 -0.3728575 0.02
v -0.204225 -0.3728575 0.02
v -0.204225 -0.3728575 0.085
v -0.206 -0.3728575 0.085
v -0.204225 -0.3728575 0.02
v -0.204225 -0.3648575 0.02
v -0.204225 -0.3648575 0.085
v -0.204225 -0.3728575 0.085
v -0.204225 -0.3648575 0.02
v -0.206 -0.3648575 0.02
v -0.206 -0.3648575 0.085
v -0.204225 -0.3648575 0.085
f 146 147 145
f 145 147 148
f 150 151 149
f 149 151 152
f 153 154 156
f 156 154 155
f 157 158 160
f 160 158 159
f 161 162 164
f 164 162 163
f 165 166 168
f 168 166 167
v 0.041075001 -0.3728575 0.02
v 0.041075001 -0.3648575 0.02
v 0.25177502 -0.3648575 0.02
v 0.25177502 -0.3728575 0.02
v 0.041075001 -0.3648575 0.085
v 0.041075001 -0.3728575 0.085
v 0.25177502 -0.3728575 0.085
v 0.25177502 -0.3648575 0.085
v 0.041075001 -0.3648575 0.02
v 0.041075001 -0.3728575 0.02
v 0.041075001 -0.3728575 0.085
v 0.041075001 -0.3648575 0.085
v 0.041075001 -0.3728575 0.02
v 0.25177502 -0.3728575 0.02
v 0.25177502 -0.3728575 0.085
v 0.041075001 -0.3728575 0.085
v 0.25177502 -0.3728575 0.02
v 0.25177502 -0.3648575 0.02
v 0.25177502 -0.3648575 0.085
v 0.25177502 -0.3728575 0.085
v 0.25177502 -0.3648575 0.02
v 0.041075001 -0.3648575 0.02
v 0.041075001 -0.3648575 0.085
v 0.25177502 -0.3648575 0.085
f 170 171 169
f 169 171 172
f 174 175 173
f 173 175 176
f 177 178 180
f 180 178 179
f 181 182 184
f 184 182 183
f 185 186 188
f 188 186 187
f 189 190 192
f 192 190 191
v 0.49707497 -0.3728575 0.02
v 0.49707497 -0.3648575 0.02
v 0.49885002 -0.3648575 0.02
v 0.49885002 -0.3728575 0.02
v 0.49707497 -0.3648575 0.085
v 0.49707497 -0.3728575 0.085
v 0.49885002 -0.3728575 0.085
v 0.49885002 -0.3648575 0.085
v 0.49707497 -0.3648575 0.02
v 0.49707497 -0.3728575 0.02
v 0.49707497 -0.3728575 0.085
v 0.49707497 -0.3648575 0.085
v 0.49707497 -0.3728575 0.02
v 0.49885002 -0.3728575 0.02
v 0.49885002 -0.3728575 0.085
v 0.49707497 -0.3728575 0.085
v 0.49885002 -0.3728575 0.02
v 0.49885002 -0.3648575 0.02
v 0.49885002 -0.3648575 0.085
v 0.49885002 -0.3728575 0.085
v 0.49885002 -0.3648575 0.02
v 0.49707497 -0.3648575 0.02
v 0.49707497 -0.3648575 0.085
v 0.49885002 -0.3648575 0.085
f 194 195 193
f 193 195 196
f 198 199 197
f 197 199 200
f 201 202 204
f 204 202 203
f 205 206 208
f 208 206 207
f 209 210 212
f 212 210 211
f 213 214 216
f 216 214 215
v -0.202225 -0.3728575 0.02
v -0.202225 -0.3648575 0.02
v 0.039074992 -0.3648575 0.02
v 0.039074992 -0.3728575 0.02
v -0.202225 -0.3648575 0.085
v -0.202225 -0.3728575 0.085
v 0.039074992 -0.3728575 0.085
v 0.039074992 -0.3648575 0.085
v -0.202225 -0.3648575 0.02
v -0.202225 -0.3728575 0.02
v -0.202225 -0.3728575 0.085
v -0.202225 -0.3648575 0.085
v -0.202225 -0.3728575 0.02
v 0.039074992 -0.3728575 0.02
v 0.039074992 -0.3728575 0.085
v -0.202225 -0.3728575 0.085
v 0.039074992 -0.3728575 0.02
v 0.039074992 -0.3648575 0.02
v 0.039074992 -0.3648575 0.085
v 0.039074992 -0.3728575 0.085
v 0.039074992 -0.3648575 0.02
v -0.202225 -0.3648575 0.02
v -0.202225 -0.3648575 0.085
v 0.039074992 -0.3648575 0.085
f 218 219 217
f 217 219 220
f 222 223 221
f 221 223 224
f 225 226 228
f 228 226 227
f 229 230 232
f 232 230 231
f 233 234 236
f 236 234 235
f 237 238 240
f 240 238 239
v 0.253775 -0.3728575 0.02
v 0.49507499 -0.3728575 0.02
v 0.49507499 -0.3728575 0.085
v 0.253775 -0.3728575 0.085
v 0.49507499 -0.3728575 0.02
v 0.49507499 -0.3648575 0.02
v 0.49507499 -0.3648575 0.085
v 0.49507499 -0.3728575 0.085
v 0.49507499 -0.3648575 0.02
v 0.253775 -0.3648575 0.02
v 0.253775 -0.3648575 0.085
v 0.49507499 -0.3648575 0.085
v 0.253775 -0.3728575 0.02
v 0.253775 -0.3648575 0.02
v 0.49507499 -0.3648575 0.02
v 0.49507499 -0.3728575 0.02
v 0.253775 -0.3648575 0.085
v 0.253775 -0.3728575 0.085
v 0.49507499 -0.3728575 0.085
v 0.49507499 -0.3648575 0.085
v 0.253775 -0.3648575 0.02
v 0.253775 -0.3728575 0.02
v 0.253775 -0.3728575 0.085
v 0.253775 -0.3648575 0.085
f 241 242 244
f 244 242 243
f 245 246 248
f 248 246 247
f 249 250 252
f 252 250 251
f 254 255 253
f 253 255 256
f 258 259 257
f 257 259 260
f 261 262 264
f 264 262 263
