v -0.395 -0.2178575 0.6
v -0.395 -0.25601374 0.59089008
v -0.395 -0.28759503 0.56761967
v -0.395 -0.30759911 0.53387466
v -0.395 -0.3128575 0.495
v -0.39200001 -0.3128575 0.495
v -0.39200001 -0.30759911 0.53387466
v -0.39200001 -0.28759503 0.56761967
v -0.39200001 -0.25601374 0.59089008
v -0.39200001 -0.2178575 0.6
v -0.395 -0.3128575 0.495
v -0.395 -0.3728575 0.315
v -0.39200001 -0.3728575 0.315
v -0.39200001 -0.3128575 0.495
v -0.395 -0.0728575 0.315
v -0.39200001 -0.0728575 0.315
v -0.39200001 -0.3728575 0.315
v -0.395 -0.3728575 0.315
v -0.395 0.0671425 0.6
v -0.395 -0.2178575 0.6
v -0.39200001 -0.2178575 0.6
v -0.39200001 0.0671425 0.6
v -0.39200001 0.0021425001 0.54
v -0.39200001 0.0671425 0.54
v -0.39200001 0.0671425 0.6
v -0.39200001 -0.2178575 0.6
v -0.39200001 -0.25601374 0.59089008
v -0.39200001 -0.28759503 0.56761967
v -0.39200001 -0.30759911 0.53387466
v -0.39200001 -0.3128575 0.495
v -0.39200001 -0.3728575 0.315
v -0.39200001 -0.0728575 0.315
v -0.39200001 -0.0728575 0.4
v -0.39200001 0.0021425001 0.4
v -0.39200001 -0.0728575 0.4
v -0.39200001 -0.0728575 0.315
v -0.395 -0.0728575 0.315
v -0.395 -0.0728575 0.4
v -0.395 0.0021425001 0.4
v -0.39200001 0.0021425001 0.4
v -0.39200001 -0.0728575 0.4
v -0.395 -0.0728575 0.4
v -0.395 0.0671425 0.54
v -0.395 0.0021425001 0.54
v -0.395 0.0021425001 0.4
v -0.395 -0.0728575 0.4
v -0.395 -0.0728575 0.315
v -0.395 -0.3728575 0.315
v -0.395 -0.3128575 0.495
v -0.395 -0.30759911 0.53387466
v -0.395 -0.28759503 0.56761967
v -0.395 -0.25601374 0.59089008
v -0.395 -0.2178575 0.6
v -0.395 0.0671425 0.6
v -0.39200001 0.0671425 0.54
v -0.395 0.0671425 0.54
v -0.395 0.0671425 0.6
v -0.39200001 0.0671425 0.6
v -0.39200001 0.0021425001 0.54
v -0.39200001 0.0021425001 0.4
v -0.395 0.0021425001 0.4
v -0.395 0.0021425001 0.54
v -0.39200001 0.0671425 0.54
v -0.39200001 0.0021425001 0.54
v -0.395 0.0021425001 0.54
v -0.395 0.0671425 0.54
f 10 1 9
f 9 1 2
f 9 2 8
f 8 2 3
f 8 3 7
f 7 3 4
f 7 4 6
f 6 4 5
f 11 12 14
f 14 12 13
f 16 17 15
f 15 17 18
f 19 20 22
f 22 20 21
f 24 25 23
f 23 25 26
f 23 26 33
f 33 26 30
f 33 30 31
f 27 28 26
f 26 28 29
f 26 29 30
f 31 32 33
f 33 34 23
f 35 36 38
f 38 36 37
f 40 41 39
f 39 41 42
f 43 44 54
f 54 44 53
f 53 44 46
f 53 46 49
f 49 46 48
f 48 46 47
f 44 45 46
f 49 50 53
f 53 50 51
f 53 51 52
f 56 57 55
f 55 57 58
f 59 60 62
f 62 60 61
f 64 65 63
f 63 65 66
v -0.206 0.19463338 0.585
v -0.206 -0.0728575 0.585
v -0.203 -0.0728575 0.585
v -0.203 0.19463338 0.585
v -0.206 -0.0728575 0.585
v -0.206 -0.13961379 0.57690674
v -0.206 -0.20302262 0.55303276
v -0.206 -0.25990444 0.5145752
v -0.206 -0.30740695 0.46346252
v -0.206 -0.34314816 0.40225765
v -0.206 -0.36533587 0.33402975
v -0.206 -0.3728575 0.26219999
v -0.203 -0.3728575 0.26219999
v -0.203 -0.36533587 0.33402975
v -0.203 -0.34314816 0.40225765
v -0.203 -0.30740695 0.46346252
v -0.203 -0.25990444 0.5145752
v -0.203 -0.20302262 0.55303276
v -0.203 -0.13961379 0.57690674
v -0.203 -0.0728575 0.585
v -0.203 -0.0128575 0.49
v -0.203 -0.010730654 0.49
v -0.203 0.056654638 0.52394505
v -0.203 0.12513471 0.55562347
v -0.203 0.19463338 0.585
v -0.203 -0.0728575 0.585
v -0.203 -0.13961379 0.57690674
v -0.203 -0.20302262 0.55303276
v -0.203 -0.25990444 0.5145752
v -0.203 -0.30740695 0.46346252
v -0.203 -0.34314816 0.40225765
v -0.203 -0.36533587 0.33402975
v -0.203 -0.3728575 0.26219999
v -0.203 -0.3728575 0.2532
v -0.203 -0.25793126 0.3393346
v -0.203 -0.13776974 0.4180011
v -0.203 -0.0128575 0.48888229
v -0.206 -0.3728575 0.26219999
v -0.206 -0.3728575 0.2532
v -0.203 -0.3728575 0.2532
v -0.203 -0.3728575 0.26219999
v -0.203 -0.010730654 0.49
v -0.206 -0.010730654 0.49
v -0.206 0.056654638 0.52394505
v -0.206 0.12513471 0.55562347
v -0.206 0.19463338 0.585
v -0.203 0.19463338 0.585
v -0.203 0.12513471 0.55562347
v -0.203 0.056654638 0.52394505
v -0.206 -0.0128575 0.48888229
v -0.203 -0.0128575 0.48888229
v -0.203 -0.13776974 0.4180011
v -0.203 -0.25793126 0.3393346
v -0.203 -0.3728575 0.2532
v -0.206 -0.3728575 0.2532
v -0.206 -0.25793126 0.3393346
v -0.206 -0.13776974 0.4180011
v -0.206 -0.010730654 0.49
v -0.206 -0.0128575 0.49
v -0.206 -0.0128575 0.48888229
v -0.206 -0.13776974 0.4180011
v -0.206 -0.25793126 0.3393346
v -0.206 -0.3728575 0.2532
v -0.206 -0.3728575 0.26219999
v -0.206 -0.36533587 0.33402975
v -0.206 -0.34314816 0.40225765
v -0.206 -0.30740695 0.46346252
v -0.206 -0.25990444 0.5145752
v -0.206 -0.20302262 0.55303276
v -0.206 -0.13961379 0.57690674
v -0.206 -0.0728575 0.585
v -0.206 0.19463338 0.585
v -0.206 0.12513471 0.55562347
v -0.206 0.056654638 0.52394505
v -0.203 -0.0128575 0.49
v -0.203 -0.0128575 0.48888229
v -0.206 -0.0128575 0.48888229
v -0.206 -0.0128575 0.49
v -0.203 -0.010730654 0.49
v -0.203 -0.0128575 0.49
v -0.206 -0.0128575 0.49
v -0.206 -0.010730654 0.49
f 67 68 70
f 70 68 69
f 86 71 85
f 85 71 72
f 85 72 84
f 84 72 73
f 84 73 83
f 83 73 74
f 83 74 82
f 82 74 75
f 82 75 81
f 81 75 76
f 81 76 80
f 80 76 77
f 80 77 79
f 79 77 78
f 88 89 87
f 87 89 92
f 87 92 93
f 89 90 92
f 92 90 91
f 93 94 87
f 87 94 102
f 87 102 103
f 94 95 102
f 102 95 96
f 102 96 97
f 102 97 101
f 101 97 98
f 101 98 99
f 99 100 101
f 104 105 107
f 107 105 106
f 108 109 115
f 115 109 110
f 115 110 114
f 114 110 111
f 114 111 113
f 113 111 112
f 116 117 123
f 123 117 118
f 123 118 119
f 120 121 119
f 119 121 122
f 119 122 123
f 124 125 140
f 140 125 137
f 140 137 139
f 139 137 138
f 126 127 125
f 125 127 135
f 125 135 136
f 128 132 127
f 127 132 133
f 127 133 134
f 129 130 128
f 128 130 131
f 128 131 132
f 134 135 127
f 136 137 125
f 141 142 144
f 144 142 143
f 146 147 145
f 145 147 148
