v -0.81 -0.3728575 0.03
v -0.81 0.2271425 0.03
v -0.80799999 0.2271425 0.03
v -0.80799999 -0.3728575 0.03
v -0.81 0.2271425 0.31
v -0.81 -0.3728575 0.31
v -0.80799999 -0.3728575 0.31
v -0.80799999 0.2271425 0.31
v -0.81 0.2271425 0.03
v -0.81 -0.3728575 0.03
v -0.81 -0.3728575 0.31
v -0.81 0.2271425 0.31
v -0.81 -0.3728575 0.03
v -0.80799999 -0.3728575 0.03
v -0.80799999 -0.3728575 0.31
v -0.81 -0.3728575 0.31
v -0.80799999 -0.3728575 0.03
v -0.80799999 0.2271425 0.03
v -0.80799999 0.2271425 0.31
v -0.80799999 -0.3728575 0.31
v -0.80799999 0.2271425 0.03
v -0.81 0.2271425 0.03
v -0.81 0.2271425 0.31
v -0.80799999 0.2271425 0.31
f 2 3 1
f 1 3 4
f 6 7 5
f 5 7 8
f 9 10 12
f 12 10 11
f 13 14 16
f 16 14 15
f 17 18 20
f 20 18 19
f 21 22 24
f 24 22 23
v -0.39200001 -0.3728575 0.03
v -0.39200001 0.2271425 0.03
v -0.39 0.2271425 0.03
v -0.39 -0.3728575 0.03
v -0.39200001 -0.3728575 0.03
v -0.39 -0.3728575 0.03
v -0.39 -0.3728575 0.31
v -0.39200001 -0.3728575 0.31
v -0.39 0.2271425 0.03
v -0.39200001 0.2271425 0.03
v -0.39200001 0.2271425 0.31
v -0.39 0.2271425 0.31
v -0.39 -0.0728575 0.2
v -0.39 -0.0728575 0.31
v -0.39 -0.3728575 0.31
v -0.39 -0.3728575 0.03
v -0.39 0.2271425 0.03
v -0.39 0.2271425 0.31
v -0.39 0.1771425 0.31
v -0.39 0.1771425 0.2
v -0.39 -0.0728575 0.31
v -0.39200001 -0.0728575 0.31
v -0.39200001 -0.3728575 0.31
v -0.39 -0.3728575 0.31
v -0.39200001 0.1771425 0.31
v -0.39 0.1771425 0.31
v -0.39 0.2271425 0.31
v -0.39200001 0.2271425 0.31
v -0.39200001 -0.0728575 0.31
v -0.39200001 -0.0728575 0.2
v -0.39200001 0.1771425 0.2
v -0.39200001 0.1771425 0.31
v -0.39200001 0.2271425 0.31
v -0.39200001 0.2271425 0.03
v -0.39200001 -0.3728575 0.03
v -0.39200001 -0.3728575 0.31
v -0.39 -0.0728575 0.2
v -0.39 0.1771425 0.2
v -0.39200001 0.1771425 0.2
v -0.39200001 -0.0728575 0.2
v -0.39 0.1771425 0.2
v -0.39 0.1771425 0.31
v -0.39200001 0.1771425 0.31
v -0.39200001 0.1771425 0.2
v -0.39 -0.0728575 0.31
v -0.39 -0.0728575 0.2
v -0.39200001 -0.0728575 0.2
v -0.39200001 -0.0728575 0.31
f 26 27 25
f 25 27 28
f 29 30 32
f 32 30 31
f 33 34 36
f 36 34 35
f 38 39 37
f 37 39 40
f 37 40 41
f 37 41 44
f 44 41 42
f 44 42 43
f 45 46 48
f 48 46 47
f 49 50 52
f 52 50 51
f 53 54 60
f 60 54 59
f 59 54 58
f 58 54 55
f 58 55 57
f 57 55 56
f 61 62 64
f 64 62 63
f 65 66 68
f 68 66 67
f 69 70 72
f 72 70 71
v -0.80799999 0.22414251 0.025
v -0.80799999 0.2271425 0.025
v -0.39200001 0.2271425 0.025
v -0.39200001 0.22414251 0.025
v -0.80799999 0.2271425 0.30799999
v -0.80799999 0.22414251 0.30799999
v -0.39200001 0.22414251 0.30799999
v -0.39200001 0.2271425 0.30799999
v -0.80799999 0.2271425 0.025
v -0.80799999 0.22414251 0.025
v -0.80799999 0.22414251 0.30799999
v -0.80799999 0.2271425 0.30799999
v -0.776 0.22414251 0.26299999
v -0.76997583 0.22414251 0.2755093
v -0.75643967 0.22414251 0.27859884
v -0.7455845 0.22414251 0.26994213
v -0.7455845 0.22414251 0.25605785
v -0.75643967 0.22414251 0.24740116
v -0.76997583 0.22414251 0.2504907
v -0.80799999 0.22414251 0.025
v -0.39200001 0.22414251 0.025
v -0.39200001 0.22414251 0.30799999
v -0.80799999 0.22414251 0.30799999
v -0.39200001 0.22414251 0.025
v -0.39200001 0.2271425 0.025
v -0.39200001 0.2271425 0.30799999
v -0.39200001 0.22414251 0.30799999
v -0.776 0.2271425 0.26299999
v -0.76997583 0.2271425 0.2504907
v -0.75643967 0.2271425 0.24740116
v -0.7455845 0.2271425 0.25605785
v -0.7455845 0.2271425 0.26994213
v -0.75643967 0.2271425 0.27859884
v -0.76997583 0.2271425 0.2755093
v -0.39200001 0.2271425 0.025
v -0.80799999 0.2271425 0.025
v -0.80799999 0.2271425 0.30799999
v -0.39200001 0.2271425 0.30799999
v -0.776 0.2271425 0.26299999
v -0.76997583 0.2271425 0.2755093
v -0.75643967 0.2271425 0.27859884
v -0.7455845 0.2271425 0.26994213
v -0.7455845 0.2271425 0.25605785
v -0.75643967 0.2271425 0.24740116
v -0.76997583 0.2271425 0.2504907
v -0.776 0.22414251 0.26299999
v -0.76997583 0.22414251 0.2504907
v -0.75643967 0.22414251 0.24740116
v -0.7455845 0.22414251 0.25605785
v -0.7455845 0.22414251 0.26994213
v -0.75643967 0.22414251 0.27859884
v -0.76997583 0.22414251 0.2755093
v -0.776 0.2271425 0.26299999
v -0.776 0.22414251 0.26299999
f 74 75 73
f 73 75 76
f 78 79 77
f 77 79 80
f 81 82 84
f 84 82 83
f 91 85 95
f 95 85 86
f 95 86 87
f 95 87 94
f 94 87 88
f 94 88 89
f 94 89 93
f 93 89 90
f 93 90 92
f 92 90 91
f 92 91 95
f 96 97 99
f 99 97 98
f 106 100 109
f 109 100 101
f 109 101 108
f 108 101 102
f 108 102 107
f 107 102 103
f 107 103 110
f 110 103 104
f 110 104 105
f 110 105 109
f 109 105 106
f 112 124 111
f 111 124 126
f 125 118 117
f 117 118 119
f 117 119 116
f 116 119 120
f 116 120 115
f 115 120 121
f 115 121 114
f 114 121 122
f 114 122 113
f 113 122 123
f 113 123 112
f 112 123 124
v -0.711 0.22414251 0.311
v -0.711 0.2271425 0.311
v -0.39200001 0.2271425 0.311
v -0.39200001 0.22414251 0.311
v -0.711 0.2271425 0.59799999
v -0.711 0.22414251 0.59799999
v -0.39200001 0.22414251 0.59799999
v -0.39200001 0.2271425 0.59799999
v -0.711 0.2271425 0.311
v -0.711 0.22414251 0.311
v -0.711 0.22414251 0.59799999
v -0.711 0.2271425 0.59799999
v -0.711 0.22414251 0.311
v -0.39200001 0.22414251 0.311
v -0.39200001 0.22414251 0.59799999
v -0.711 0.22414251 0.59799999
v -0.39200001 0.22414251 0.311
v -0.39200001 0.2271425 0.311
v -0.39200001 0.2271425 0.59799999
v -0.39200001 0.22414251 0.59799999
v -0.39200001 0.2271425 0.311
v -0.711 0.2271425 0.311
v -0.711 0.2271425 0.59799999
v -0.39200001 0.2271425 0.59799999
f 128 129 127
f 127 129 130
f 132 133 131
f 131 133 134
f 135 136 138
f 138 136 137
f 139 140 142
f 142 140 141
f 143 144 146
f 146 144 145
f 147 148 150
f 150 148 149
v -0.711 0.070142502 0.53599998
v -0.711 0.067449116 0.55504662
v -0.711 0.071961903 0.57374588
v -0.711 0.083046078 0.58946751
v -0.711 0.099142508 0.6
v -0.711 0.22414251 0.6
v -0.711 0.22414251 0.31200001
v -0.711 0.070142502 0.31200001
v -0.708 0.099142508 0.6
v -0.708 0.083046078 0.58946751
v -0.708 0.071961903 0.57374588
v -0.708 0.067449116 0.55504662
v -0.708 0.070142502 0.53599998
v -0.708 0.070142502 0.31200001
v -0.708 0.22414251 0.31200001
v -0.708 0.22414251 0.6
v -0.711 0.099142508 0.6
v -0.711 0.083046078 0.58946751
v -0.711 0.071961903 0.57374588
v -0.711 0.067449116 0.55504662
v -0.711 0.070142502 0.53599998
v -0.708 0.070142502 0.53599998
v -0.708 0.067449116 0.55504662
v -0.708 0.071961903 0.57374588
v -0.708 0.083046078 0.58946751
v -0.708 0.099142508 0.6
v -0.711 0.070142502 0.53599998
v -0.711 0.070142502 0.31200001
v -0.708 0.070142502 0.31200001
v -0.708 0.070142502 0.53599998
v -0.711 0.070142502 0.31200001
v -0.711 0.22414251 0.31200001
v -0.708 0.22414251 0.31200001
v -0.708 0.070142502 0.31200001
v -0.711 0.22414251 0.31200001
v -0.711 0.22414251 0.6
v -0.708 0.22414251 0.6
v -0.708 0.22414251 0.31200001
v -0.711 0.22414251 0.6
v -0.711 0.099142508 0.6
v -0.708 0.099142508 0.6
v -0.708 0.22414251 0.6
f 152 153 151
f 151 153 154
f 151 154 155
f 156 157 155
f 155 157 151
f 157 158 151
f 160 163 159
f 159 163 165
f 159 165 166
f 160 161 163
f 163 161 162
f 163 164 165
f 176 167 175
f 175 167 168
f 175 168 174
f 174 168 169
f 174 169 173
f 173 169 170
f 173 170 172
f 172 170 171
f 177 178 180
f 180 178 179
f 181 182 184
f 184 182 183
f 185 186 188
f 188 186 187
f 189 190 192
f 192 190 191
v -0.708 0.099142508 0.59700001
v -0.708 0.22414251 0.59700001
v -0.395 0.22414251 0.59700001
v -0.395 0.099142508 0.59700001
v -0.708 0.22414251 0.6
v -0.708 0.099142508 0.6
v -0.395 0.099142508 0.6
v -0.395 0.22414251 0.6
v -0.708 0.22414251 0.59700001
v -0.708 0.099142508 0.59700001
v -0.708 0.099142508 0.6
v -0.708 0.22414251 0.6
v -0.708 0.099142508 0.59700001
v -0.395 0.099142508 0.59700001
v -0.395 0.099142508 0.6
v -0.708 0.099142508 0.6
v -0.395 0.099142508 0.59700001
v -0.395 0.22414251 0.59700001
v -0.395 0.22414251 0.6
v -0.395 0.099142508 0.6
v -0.395 0.22414251 0.59700001
v -0.708 0.22414251 0.59700001
v -0.708 0.22414251 0.6
v -0.395 0.22414251 0.6
f 194 195 193
f 193 195 196
f 198 199 197
f 197 199 200
f 201 202 204
f 204 202 203
f 205 206 208
f 208 206 207
f 209 210 212
f 212 210 211
f 213 214 216
f 216 214 215
v -0.80799999 0.1961425 0.08
v -0.80799999 0.2261425 0.08
v -0.713 0.2261425 0.08
v -0.713 0.1961425 0.08
v -0.80799999 0.2261425 0.31
v -0.80799999 0.1961425 0.31
v -0.713 0.1961425 0.31
v -0.713 0.2261425 0.31
v -0.80799999 0.2261425 0.08
v -0.80799999 0.1961425 0.08
v -0.80799999 0.1961425 0.31
v -0.80799999 0.2261425 0.31
v -0.776 0.1961425 0.26299999
v -0.77225672 0.1961425 0.27328461
v -0.76277838 0.1961425 0.27875692
v -0.752 0.1961425 0.2768564
v -0.74496491 0.1961425 0.26847233
v -0.74496491 0.1961425 0.25752768
v -0.752 0.1961425 0.2491436
v -0.76277838 0.1961425 0.24724308
v -0.77225672 0.1961425 0.2527154
v -0.80799999 0.1961425 0.08
v -0.713 0.1961425 0.08
v -0.713 0.1961425 0.31
v -0.80799999 0.1961425 0.31
v -0.713 0.1961425 0.08
v -0.713 0.2261425 0.08
v -0.713 0.2261425 0.31
v -0.713 0.1961425 0.31
v -0.776 0.2261425 0.26299999
v -0.77225672 0.2261425 0.2527154
v -0.76277838 0.2261425 0.24724308
v -0.752 0.2261425 0.2491436
v -0.74496491 0.2261425 0.25752768
v -0.74496491 0.2261425 0.26847233
v -0.752 0.2261425 0.2768564
v -0.76277838 0.2261425 0.27875692
v -0.77225672 0.2261425 0.27328461
v -0.713 0.2261425 0.08
v -0.80799999 0.2261425 0.08
v -0.80799999 0.2261425 0.31
v -0.713 0.2261425 0.31
v -0.776 0.2261425 0.26299999
v -0.77225672 0.2261425 0.27328461
v -0.76277838 0.2261425 0.27875692
v -0.752 0.2261425 0.2768564
v -0.74496491 0.2261425 0.26847233
v -0.74496491 0.2261425 0.25752768
v -0.752 0.2261425 0.2491436
v -0.76277838 0.2261425 0.24724308
v -0.77225672 0.2261425 0.2527154
v -0.776 0.1961425 0.26299999
v -0.77225672 0.1961425 0.2527154
v -0.76277838 0.1961425 0.24724308
v -0.752 0.1961425 0.2491436
v -0.74496491 0.1961425 0.25752768
v -0.74496491 0.1961425 0.26847233
v -0.752 0.1961425 0.2768564
v -0.76277838 0.1961425 0.27875692
v -0.77225672 0.1961425 0.27328461
v -0.776 0.2261425 0.26299999
v -0.776 0.1961425 0.26299999
f 218 219 217
f 217 219 220
f 222 223 221
f 221 223 224
f 225 226 228
f 228 226 227
f 230 241 229
f 229 241 238
f 229 238 237
f 237 238 236
f 236 238 239
f 236 239 235
f 235 239 234
f 234 239 240
f 234 240 233
f 233 240 232
f 232 240 231
f 231 240 241
f 231 241 230
f 242 243 245
f 245 243 244
f 247 256 246
f 246 256 257
f 246 257 254
f 254 257 253
f 253 257 258
f 253 258 252
f 252 258 251
f 251 258 250
f 250 258 255
f 250 255 249
f 249 255 248
f 248 255 256
f 248 256 247
f 260 276 259
f 259 276 278
f 277 268 267
f 267 268 269
f 267 269 266
f 266 269 270
f 266 270 265
f 265 270 271
f 265 271 264
f 264 271 272
f 264 272 263
f 263 272 273
f 263 273 262
f 262 273 274
f 262 274 261
f 261 274 275
f 261 275 260
f 260 275 276
v -0.80799999 -0.37085749 0.083999996
v -0.711 -0.37085749 0.083999996
v -0.711 -0.37085749 0.30799999
v -0.80799999 -0.37085749 0.30799999
v -0.711 -0.37085749 0.083999996
v -0.711 -0.3688575 0.083999996
v -0.711 -0.3688575 0.30799999
v -0.711 -0.37085749 0.30799999
v -0.711 -0.3688575 0.083999996
v -0.80799999 -0.3688575 0.083999996
v -0.80799999 -0.3688575 0.30799999
v -0.711 -0.3688575 0.30799999
v -0.80799999 -0.37085749 0.083999996
v -0.80799999 -0.3688575 0.083999996
v -0.711 -0.3688575 0.083999996
v -0.711 -0.37085749 0.083999996
v -0.80799999 -0.3688575 0.30799999
v -0.80799999 -0.37085749 0.30799999
v -0.711 -0.37085749 0.30799999
v -0.711 -0.3688575 0.30799999
v -0.80799999 -0.3688575 0.083999996
v -0.80799999 -0.37085749 0.083999996
v -0.80799999 -0.37085749 0.30799999
v -0.80799999 -0.3688575 0.30799999
f 279 280 282
f 282 280 281
f 283 284 286
f 286 284 285
f 287 288 290
f 290 288 289
f 292 293 291
f 291 293 294
f 296 297 295
f 295 297 298
f 299 300 302
f 302 300 301
v -0.609 -0.3688575 0.083999996
v -0.609 -0.36585749 0.083999996
v -0.39200001 -0.36585749 0.083999996
v -0.39200001 -0.3688575 0.083999996
v -0.609 -0.36585749 0.30799999
v -0.609 -0.3688575 0.30799999
v -0.39200001 -0.3688575 0.30799999
v -0.39200001 -0.36585749 0.30799999
v -0.609 -0.36585749 0.083999996
v -0.609 -0.3688575 0.083999996
v -0.609 -0.3688575 0.30799999
v -0.609 -0.36585749 0.30799999
v -0.609 -0.3688575 0.083999996
v -0.39200001 -0.3688575 0.083999996
v -0.39200001 -0.3688575 0.30799999
v -0.609 -0.3688575 0.30799999
v -0.39200001 -0.3688575 0.083999996
v -0.39200001 -0.36585749 0.083999996
v -0.39200001 -0.36585749 0.30799999
v -0.39200001 -0.3688575 0.30799999
v -0.39200001 -0.36585749 0.083999996
v -0.609 -0.36585749 0.083999996
v -0.609 -0.36585749 0.30799999
v -0.39200001 -0.36585749 0.30799999
f 304 305 303
f 303 305 306
f 308 309 307
f 307 309 310
f 311 312 314
f 314 312 313
f 315 316 318
f 318 316 317
f 319 320 322
f 322 320 321
f 323 324 326
f 326 324 325
v -0.708 -0.3728575 0.085
v -0.708 -0.36985751 0.085
v -0.611 -0.36985751 0.085
v -0.611 -0.3728575 0.085
v -0.708 -0.36985751 0.22299999
v -0.708 -0.3728575 0.22299999
v -0.611 -0.3728575 0.22299999
v -0.611 -0.36985751 0.22299999
v -0.708 -0.36985751 0.085
v -0.708 -0.3728575 0.085
v -0.708 -0.3728575 0.22299999
v -0.708 -0.36985751 0.22299999
v -0.708 -0.3728575 0.085
v -0.611 -0.3728575 0.085
v -0.611 -0.3728575 0.22299999
v -0.708 -0.3728575 0.22299999
v -0.611 -0.3728575 0.085
v -0.611 -0.36985751 0.085
v -0.611 -0.36985751 0.22299999
v -0.611 -0.3728575 0.22299999
v -0.611 -0.36985751 0.085
v -0.708 -0.36985751 0.085
v -0.708 -0.36985751 0.22299999
v -0.611 -0.36985751 0.22299999
f 328 329 327
f 327 329 330
f 332 333 331
f 331 333 334
f 335 336 338
f 338 336 337
f 339 340 342
f 342 340 341
f 343 344 346
f 346 344 345
f 347 348 350
f 350 348 349
v -0.80799999 0.2221425 0.30799999
v -0.80799999 -0.3688575 0.30799999
v -0.80799999 -0.3688575 0.31200001
v -0.80799999 0.2221425 0.31200001
v -0.742 -0.0888575 0.30799999
v -0.799 -0.0888575 0.30799999
v -0.799 -0.2088575 0.30799999
v -0.742 -0.2088575 0.30799999
v -0.80799999 -0.3688575 0.30799999
v -0.80799999 0.2221425 0.30799999
v -0.714 0.2221425 0.30799999
v -0.714 -0.3688575 0.30799999
v -0.80799999 -0.3688575 0.30799999
v -0.714 -0.3688575 0.30799999
v -0.714 -0.3688575 0.31200001
v -0.80799999 -0.3688575 0.31200001
v -0.799 -0.0888575 0.31200001
v -0.742 -0.0888575 0.31200001
v -0.742 -0.2088575 0.31200001
v -0.799 -0.2088575 0.31200001
v -0.80799999 0.2221425 0.31200001
v -0.80799999 -0.3688575 0.31200001
v -0.714 -0.3688575 0.31200001
v -0.714 0.2221425 0.31200001
v -0.714 -0.3688575 0.30799999
v -0.714 0.2221425 0.30799999
v -0.714 0.2221425 0.31200001
v -0.714 -0.3688575 0.31200001
v -0.714 0.2221425 0.30799999
v -0.80799999 0.2221425 0.30799999
v -0.80799999 0.2221425 0.31200001
v -0.714 0.2221425 0.31200001
v -0.742 -0.2088575 0.31200001
v -0.742 -0.0888575 0.31200001
v -0.742 -0.0888575 0.30799999
v -0.742 -0.2088575 0.30799999
v -0.742 -0.0888575 0.31200001
v -0.799 -0.0888575 0.31200001
v -0.799 -0.0888575 0.30799999
v -0.742 -0.0888575 0.30799999
v -0.799 -0.0888575 0.31200001
v -0.799 -0.2088575 0.31200001
v -0.799 -0.2088575 0.30799999
v -0.799 -0.0888575 0.30799999
v -0.799 -0.2088575 0.31200001
v -0.742 -0.2088575 0.31200001
v -0.742 -0.2088575 0.30799999
v -0.799 -0.2088575 0.30799999
f 351 352 354
f 354 352 353
f 356 360 355
f 355 360 361
f 355 361 362
f 360 356 359
f 359 356 357
f 359 357 358
f 359 358 362
f 362 358 355
f 363 364 366
f 366 364 365
f 368 371 367
f 367 371 372
f 367 372 370
f 370 372 369
f 369 372 373
f 369 373 368
f 368 373 374
f 368 374 371
f 375 376 378
f 378 376 377
f 379 380 382
f 382 380 381
f 383 384 386
f 386 384 385
f 387 388 390
f 390 388 389
f 391 392 394
f 394 392 393
f 395 396 398
f 398 396 397
v -0.753 -0.2018575 0.595
v -0.7704712 -0.2018575 0.58702206
v -0.78488298 -0.2018575 0.57432594
v -0.795 -0.2018575 0.55799999
v -0.795 -0.2018575 0.31
v -0.753 -0.2018575 0.31
v -0.795 -0.1958575 0.55799999
v -0.78488298 -0.1958575 0.57432594
v -0.7704712 -0.1958575 0.58702206
v -0.753 -0.1958575 0.595
v -0.753 -0.1958575 0.31
v -0.795 -0.1958575 0.31
v -0.795 -0.2018575 0.55799999
v -0.78488298 -0.2018575 0.57432594
v -0.7704712 -0.2018575 0.58702206
v -0.753 -0.2018575 0.595
v -0.753 -0.1958575 0.595
v -0.7704712 -0.1958575 0.58702206
v -0.78488298 -0.1958575 0.57432594
v -0.795 -0.1958575 0.55799999
v -0.753 -0.2018575 0.595
v -0.753 -0.2018575 0.31
v -0.753 -0.1958575 0.31
v -0.753 -0.1958575 0.595
v -0.753 -0.2018575 0.31
v -0.795 -0.2018575 0.31
v -0.795 -0.1958575 0.31
v -0.753 -0.1958575 0.31
v -0.795 -0.2018575 0.31
v -0.795 -0.2018575 0.55799999
v -0.795 -0.1958575 0.55799999
v -0.795 -0.1958575 0.31
f 399 400 404
f 404 400 403
f 403 400 401
f 403 401 402
f 405 406 410
f 410 406 407
f 410 407 409
f 409 407 408
f 418 411 417
f 417 411 412
f 417 412 416
f 416 412 413
f 416 413 415
f 415 413 414
f 419 420 422
f 422 420 421
f 423 424 426
f 426 424 425
f 427 428 430
f 430 428 429
v -0.753 -0.1028575 0.595
v -0.7704712 -0.1028575 0.58702206
v -0.78488298 -0.1028575 0.57432594
v -0.795 -0.1028575 0.55799999
v -0.795 -0.1028575 0.31
v -0.753 -0.1028575 0.31
v -0.795 -0.096857504 0.55799999
v -0.78488298 -0.096857504 0.57432594
v -0.7704712 -0.096857504 0.58702206
v -0.753 -0.096857504 0.595
v -0.753 -0.096857504 0.31
v -0.795 -0.096857504 0.31
v -0.795 -0.1028575 0.55799999
v -0.78488298 -0.1028575 0.57432594
v -0.7704712 -0.1028575 0.58702206
v -0.753 -0.1028575 0.595
v -0.753 -0.096857504 0.595
v -0.7704712 -0.096857504 0.58702206
v -0.78488298 -0.096857504 0.57432594
v -0.795 -0.096857504 0.55799999
v -0.753 -0.1028575 0.595
v -0.753 -0.1028575 0.31
v -0.753 -0.096857504 0.31
v -0.753 -0.096857504 0.595
v -0.753 -0.1028575 0.31
v -0.795 -0.1028575 0.31
v -0.795 -0.096857504 0.31
v -0.753 -0.096857504 0.31
v -0.795 -0.1028575 0.31
v -0.795 -0.1028575 0.55799999
v -0.795 -0.096857504 0.55799999
v -0.795 -0.096857504 0.31
f 431 432 436
f 436 432 435
f 435 432 433
f 435 433 434
f 437 438 442
f 442 438 439
f 442 439 441
f 441 439 440
f 450 443 449
f 449 443 444
f 449 444 448
f 448 444 445
f 448 445 447
f 447 445 446
f 451 452 454
f 454 452 453
f 455 456 458
f 458 456 457
f 459 460 462
f 462 460 461
v -0.39 -0.3668575 0.03
v -0.39 0.2211425 0.03
v -0.38799999 0.2211425 0.03
v -0.38799999 -0.3668575 0.03
v -0.39 0.2211425 0.185
v -0.39 -0.3668575 0.185
v -0.38799999 -0.3668575 0.185
v -0.38799999 0.2211425 0.185
v -0.39 0.2211425 0.03
v -0.39 -0.3668575 0.03
v -0.39 -0.3668575 0.185
v -0.39 0.2211425 0.185
v -0.39 -0.3668575 0.03
v -0.38799999 -0.3668575 0.03
v -0.38799999 -0.3668575 0.185
v -0.39 -0.3668575 0.185
v -0.38799999 -0.3668575 0.03
v -0.38799999 0.2211425 0.03
v -0.38799999 0.2211425 0.185
v -0.38799999 -0.3668575 0.185
v -0.38799999 0.2211425 0.03
v -0.39 0.2211425 0.03
v -0.39 0.2211425 0.185
v -0.38799999 0.2211425 0.185
f 464 465 463
f 463 465 466
f 468 469 467
f 467 469 470
f 471 472 474
f 474 472 473
f 475 476 478
f 478 476 477
f 479 480 482
f 482 480 481
f 483 484 486
f 486 484 485
v -0.25200001 -0.3668575 0.03
v -0.25200001 0.2211425 0.03
v -0.25 0.2211425 0.03
v -0.25 -0.3668575 0.03
v -0.25200001 0.2211425 0.185
v -0.25200001 -0.3668575 0.185
v -0.25 -0.3668575 0.185
v -0.25 0.2211425 0.185
v -0.25200001 0.2211425 0.03
v -0.25200001 -0.3668575 0.03
v -0.25200001 -0.3668575 0.185
v -0.25200001 0.2211425 0.185
v -0.25200001 -0.3668575 0.03
v -0.25 -0.3668575 0.03
v -0.25 -0.3668575 0.185
v -0.25200001 -0.3668575 0.185
v -0.25 -0.3668575 0.03
v -0.25 0.2211425 0.03
v -0.25 0.2211425 0.185
v -0.25 -0.3668575 0.185
v -0.25 0.2211425 0.03
v -0.25200001 0.2211425 0.03
v -0.25200001 0.2211425 0.185
v -0.25 0.2211425 0.185
f 488 489 487
f 487 489 490
f 492 493 491
f 491 493 494
f 495 496 498
f 498 496 497
f 499 500 502
f 502 500 501
f 503 504 506
f 506 504 505
f 507 508 510
f 510 508 509
v -0.38799999 0.21914251 0.03
v -0.38799999 0.2211425 0.03
v -0.25200001 0.2211425 0.03
v -0.25200001 0.21914251 0.03
v -0.38799999 0.2211425 0.585
v -0.38799999 0.21914251 0.585
v -0.25200001 0.21914251 0.585
v -0.25200001 0.2211425 0.585
v -0.38799999 0.2211425 0.03
v -0.38799999 0.21914251 0.03
v -0.38799999 0.21914251 0.585
v -0.38799999 0.2211425 0.585
v -0.38799999 0.21914251 0.03
v -0.25200001 0.21914251 0.03
v -0.25200001 0.21914251 0.585
v -0.38799999 0.21914251 0.585
v -0.25200001 0.21914251 0.03
v -0.25200001 0.2211425 0.03
v -0.25200001 0.2211425 0.585
v -0.25200001 0.21914251 0.585
v -0.25200001 0.2211425 0.03
v -0.38799999 0.2211425 0.03
v -0.38799999 0.2211425 0.585
v -0.25200001 0.2211425 0.585
f 512 513 511
f 511 513 514
f 516 517 515
f 515 517 518
f 519 520 522
f 522 520 521
f 523 524 526
f 526 524 525
f 527 528 530
f 530 528 529
f 531 532 534
f 534 532 533
v -0.39 -0.3728575 0.085
v -0.39 -0.3688575 0.085
v -0.25 -0.3688575 0.085
v -0.25 -0.3728575 0.085
v -0.39 -0.3688575 0.25
v -0.39 -0.3728575 0.25
v -0.25 -0.3728575 0.25
v -0.25 -0.3688575 0.25
v -0.39 -0.3688575 0.085
v -0.39 -0.3728575 0.085
v -0.39 -0.3728575 0.25
v -0.39 -0.3688575 0.25
v -0.39 -0.3728575 0.085
v -0.25 -0.3728575 0.085
v -0.25 -0.3728575 0.25
v -0.39 -0.3728575 0.25
v -0.25 -0.3728575 0.085
v -0.25 -0.3688575 0.085
v -0.25 -0.3688575 0.25
v -0.25 -0.3728575 0.25
v -0.25 -0.3688575 0.085
v -0.39 -0.3688575 0.085
v -0.39 -0.3688575 0.25
v -0.25 -0.3688575 0.25
f 536 537 535
f 535 537 538
f 540 541 539
f 539 541 542
f 543 544 546
f 546 544 545
f 547 548 550
f 550 548 549
f 551 552 554
f 554 552 553
f 555 556 558
f 558 556 557
