v -0.71 -0.2048575 0.345
v -0.71 -0.2048575 0.32099998
v -0.713 -0.2048575 0.32099998
v -0.713 -0.2048575 0.345
v -0.71 -0.1008575 0.345
v -0.71 -0.2048575 0.345
v -0.713 -0.2048575 0.345
v -0.713 -0.1008575 0.345
v -0.71 -0.2048575 0.345
v -0.71 -0.1008575 0.345
v -0.71 -0.1008575 0.32099998
v -0.71 -0.2048575 0.32099998
v -0.71 -0.2178575 0.6
v -0.71 -0.25601374 0.59089008
v -0.71 -0.28759503 0.56761967
v -0.71 -0.30759911 0.53387466
v -0.71 -0.3128575 0.495
v -0.71 -0.3728575 0.315
v -0.71 0.0671425 0.315
v -0.71 0.0671425 0.6
v -0.713 -0.1008575 0.345
v -0.713 -0.2048575 0.345
v -0.713 -0.2048575 0.32099998
v -0.713 -0.1008575 0.32099998
v -0.713 -0.3128575 0.495
v -0.713 -0.30759911 0.53387466
v -0.713 -0.28759503 0.56761967
v -0.713 -0.25601374 0.59089008
v -0.713 -0.2178575 0.6
v -0.713 0.0671425 0.6
v -0.713 0.0671425 0.315
v -0.713 -0.3728575 0.315
v -0.713 0.0671425 0.315
v -0.713 0.0671425 0.6
v -0.71 0.0671425 0.6
v -0.71 0.0671425 0.315
v -0.713 0.0671425 0.6
v -0.713 -0.2178575 0.6
v -0.71 -0.2178575 0.6
v -0.71 0.0671425 0.6
v -0.71 -0.2048575 0.32099998
v -0.71 -0.1008575 0.32099998
v -0.713 -0.1008575 0.32099998
v -0.713 -0.2048575 0.32099998
v -0.71 -0.1008575 0.32099998
v -0.71 -0.1008575 0.345
v -0.713 -0.1008575 0.345
v -0.713 -0.1008575 0.32099998
v -0.713 -0.2178575 0.6
v -0.713 -0.25601374 0.59089008
v -0.713 -0.28759503 0.56761967
v -0.713 -0.30759911 0.53387466
v -0.713 -0.3128575 0.495
v -0.71 -0.3128575 0.495
v -0.71 -0.30759911 0.53387466
v -0.71 -0.28759503 0.56761967
v -0.71 -0.25601374 0.59089008
v -0.71 -0.2178575 0.6
v -0.713 -0.3128575 0.495
v -0.713 -0.3728575 0.315
v -0.71 -0.3728575 0.315
v -0.71 -0.3128575 0.495
v -0.713 -0.3728575 0.315
v -0.713 0.0671425 0.315
v -0.71 0.0671425 0.315
v -0.71 -0.3728575 0.315
f 1 2 4
f 4 2 3
f 5 6 8
f 8 6 7
f 10 17 9
f 9 17 18
f 9 18 12
f 12 18 11
f 11 18 19
f 11 19 10
f 10 19 20
f 10 20 13
f 14 15 13
f 13 15 16
f 13 16 17
f 17 10 13
f 22 25 21
f 21 25 29
f 21 29 30
f 25 22 32
f 32 22 23
f 32 23 24
f 32 24 31
f 31 24 21
f 31 21 30
f 25 26 29
f 29 26 27
f 29 27 28
f 33 34 36
f 36 34 35
f 37 38 40
f 40 38 39
f 41 42 44
f 44 42 43
f 45 46 48
f 48 46 47
f 58 49 57
f 57 49 50
f 57 50 56
f 56 50 51
f 56 51 55
f 55 51 52
f 55 52 54
f 54 52 53
f 59 60 62
f 62 60 61
f 63 64 66
f 66 64 65
v -0.71 0.0671425 0.59700001
v -0.71 0.0671425 0.6
v -0.395 0.0671425 0.6
v -0.395 0.0671425 0.59700001
v -0.71 -0.3128575 0.495
v -0.71 -0.3728575 0.315
v -0.395 -0.3728575 0.315
v -0.395 -0.3128575 0.495
v -0.71 -0.30985751 0.495
v -0.71 -0.30442597 0.53252079
v -0.71 -0.28502572 0.56509289
v -0.71 -0.25462098 0.58773941
v -0.71 -0.2178575 0.59700001
v -0.395 -0.2178575 0.59700001
v -0.395 -0.25462098 0.58773941
v -0.395 -0.28502572 0.56509289
v -0.395 -0.30442597 0.53252079
v -0.395 -0.30985751 0.495
v -0.71 -0.3728575 0.315
v -0.71 -0.36985751 0.315
v -0.395 -0.36985751 0.315
v -0.395 -0.3728575 0.315
v -0.71 -0.2178575 0.59700001
v -0.71 0.0671425 0.59700001
v -0.395 0.0671425 0.59700001
v -0.395 -0.2178575 0.59700001
v -0.71 -0.36985751 0.315
v -0.71 -0.30985751 0.495
v -0.395 -0.30985751 0.495
v -0.395 -0.36985751 0.315
v -0.71 -0.3128575 0.495
v -0.71 -0.30759911 0.53387466
v -0.71 -0.28759503 0.56761967
v -0.71 -0.25601374 0.59089008
v -0.71 -0.2178575 0.6
v -0.71 0.0671425 0.6
v -0.71 0.0671425 0.59700001
v -0.71 -0.2178575 0.59700001
v -0.71 -0.25462098 0.58773941
v -0.71 -0.28502572 0.56509289
v -0.71 -0.30442597 0.53252079
v -0.71 -0.30985751 0.495
v -0.71 -0.36985751 0.315
v -0.71 -0.3728575 0.315
v -0.71 0.0671425 0.6
v -0.71 -0.2178575 0.6
v -0.395 -0.2178575 0.6
v -0.395 0.0671425 0.6
v -0.395 -0.2178575 0.6
v -0.395 -0.25601374 0.59089008
v -0.395 -0.28759503 0.56761967
v -0.395 -0.30759911 0.53387466
v -0.395 -0.3128575 0.495
v -0.395 -0.3728575 0.315
v -0.395 -0.36985751 0.315
v -0.395 -0.30985751 0.495
v -0.395 -0.30442597 0.53252079
v -0.395 -0.28502572 0.56509289
v -0.395 -0.25462098 0.58773941
v -0.395 -0.2178575 0.59700001
v -0.395 0.0671425 0.59700001
v -0.395 0.0671425 0.6
v -0.71 -0.2178575 0.6
v -0.71 -0.25601374 0.59089008
v -0.71 -0.28759503 0.56761967
v -0.71 -0.30759911 0.53387466
v -0.71 -0.3128575 0.495
v -0.395 -0.3128575 0.495
v -0.395 -0.30759911 0.53387466
v -0.395 -0.28759503 0.56761967
v -0.395 -0.25601374 0.59089008
v -0.395 -0.2178575 0.6
f 67 68 70
f 70 68 69
f 71 72 74
f 74 72 73
f 84 75 83
f 83 75 76
f 83 76 82
f 82 76 77
f 82 77 81
f 81 77 78
f 81 78 80
f 80 78 79
f 85 86 88
f 88 86 87
f 89 90 92
f 92 90 91
f 93 94 96
f 96 94 95
f 98 107 97
f 97 107 108
f 97 108 109
f 107 98 106
f 106 98 99
f 106 99 105
f 105 99 100
f 105 100 104
f 104 100 101
f 104 101 103
f 103 101 102
f 109 110 97
f 111 112 114
f 114 112 113
f 128 115 126
f 126 115 116
f 126 116 125
f 125 116 117
f 125 117 124
f 124 117 118
f 124 118 123
f 123 118 119
f 123 119 122
f 122 119 121
f 121 119 120
f 126 127 128
f 138 129 137
f 137 129 130
f 137 130 136
f 136 130 131
f 136 131 135
f 135 131 132
f 135 132 134
f 134 132 133
v -0.38799999 -0.3688575 0.35
v -0.38799999 -0.34485751 0.43900002
v -0.25200001 -0.34485751 0.43900002
v -0.25200001 -0.3688575 0.35
v -0.38799999 -0.37085749 0.25
v -0.38799999 -0.3688575 0.35
v -0.25200001 -0.3688575 0.35
v -0.25200001 -0.37085749 0.25
v -0.38799999 -0.34485751 0.43900002
v -0.38799999 -0.2868575 0.52400002
v -0.25200001 -0.2868575 0.52400002
v -0.25200001 -0.34485751 0.43900002
v -0.38799999 -0.2868575 0.52400002
v -0.38799999 -0.2088575 0.57599998
v -0.25200001 -0.2088575 0.57599998
v -0.25200001 -0.2868575 0.52400002
v -0.38799999 -0.2098575 0.57799999
v -0.38799999 -0.2888575 0.52599998
v -0.25200001 -0.2888575 0.52599998
v -0.25200001 -0.2098575 0.57799999
v -0.38799999 -0.2088575 0.57599998
v -0.38799999 -0.1528575 0.58799999
v -0.25200001 -0.1528575 0.58799999
v -0.25200001 -0.2088575 0.57599998
v -0.38799999 -0.1528575 0.59
v -0.38799999 -0.2098575 0.57799999
v -0.25200001 -0.2098575 0.57799999
v -0.25200001 -0.1528575 0.59
v -0.38799999 -0.2888575 0.52599998
v -0.38799999 -0.3468575 0.44
v -0.25200001 -0.3468575 0.44
v -0.25200001 -0.2888575 0.52599998
v -0.38799999 -0.3468575 0.44
v -0.38799999 -0.37085749 0.35
v -0.25200001 -0.37085749 0.35
v -0.25200001 -0.3468575 0.44
v -0.38799999 -0.37085749 0.35
v -0.38799999 -0.3728575 0.25
v -0.25200001 -0.3728575 0.25
v -0.25200001 -0.37085749 0.35
v -0.38799999 0.21398912 0.58799999
v -0.25200001 0.21398912 0.58799999
v -0.25200001 0.21421382 0.58865417
v -0.25200001 0.21421382 0.58934586
v -0.25200001 0.21398912 0.59
v -0.38799999 0.21398912 0.59
v -0.38799999 0.21421382 0.58934586
v -0.38799999 0.21421382 0.58865417
v -0.38799999 -0.3728575 0.25
v -0.38799999 -0.37085749 0.25
v -0.25200001 -0.37085749 0.25
v -0.25200001 -0.3728575 0.25
v -0.25200001 0.21398912 0.59
v -0.25200001 0.21421382 0.58934586
v -0.25200001 0.21421382 0.58865417
v -0.25200001 0.21398912 0.58799999
v -0.25200001 0.21914251 0.58799999
v -0.25200001 0.21914251 0.59
v -0.38799999 0.21029588 0.58799999
v -0.25200001 0.21029588 0.58799999
v -0.25200001 -0.1528575 0.58799999
v -0.38799999 -0.1528575 0.58799999
v -0.38799999 0.21398912 0.59
v -0.25200001 0.21398912 0.59
v -0.25200001 0.21914251 0.59
v -0.38799999 0.21914251 0.59
v -0.38799999 0.21029588 0.59
v -0.38799999 0.21007118 0.58934586
v -0.38799999 0.21007118 0.58865417
v -0.38799999 0.21029588 0.58799999
v -0.38799999 -0.1528575 0.58799999
v -0.38799999 -0.2088575 0.57599998
v -0.38799999 -0.2868575 0.52400002
v -0.38799999 -0.34485751 0.43900002
v -0.38799999 -0.3688575 0.35
v -0.38799999 -0.37085749 0.25
v -0.38799999 -0.3728575 0.25
v -0.38799999 -0.37085749 0.35
v -0.38799999 -0.3468575 0.44
v -0.38799999 -0.2888575 0.52599998
v -0.38799999 -0.2098575 0.57799999
v -0.38799999 -0.1528575 0.59
v -0.38799999 0.21914251 0.58799999
v -0.38799999 0.21914251 0.59
v -0.25200001 0.21914251 0.59
v -0.25200001 0.21914251 0.58799999
v -0.25200001 0.21029588 0.59
v -0.38799999 0.21029588 0.59
v -0.38799999 -0.1528575 0.59
v -0.25200001 -0.1528575 0.59
v -0.25200001 0.21398912 0.58799999
v -0.38799999 0.21398912 0.58799999
v -0.38799999 0.21914251 0.58799999
v -0.25200001 0.21914251 0.58799999
v -0.25200001 0.21029588 0.58799999
v -0.25200001 0.21007118 0.58865417
v -0.25200001 0.21007118 0.58934586
v -0.25200001 0.21029588 0.59
v -0.25200001 -0.1528575 0.59
v -0.25200001 -0.2098575 0.57799999
v -0.25200001 -0.2888575 0.52599998
v -0.25200001 -0.3468575 0.44
v -0.25200001 -0.37085749 0.35
v -0.25200001 -0.3728575 0.25
v -0.25200001 -0.37085749 0.25
v -0.25200001 -0.3688575 0.35
v -0.25200001 -0.34485751 0.43900002
v -0.25200001 -0.2868575 0.52400002
v -0.25200001 -0.2088575 0.57599998
v -0.25200001 -0.1528575 0.58799999
v -0.38799999 0.21398912 0.58799999
v -0.38799999 0.21421382 0.58865417
v -0.38799999 0.21421382 0.58934586
v -0.38799999 0.21398912 0.59
v -0.38799999 0.21914251 0.59
v -0.38799999 0.21914251 0.58799999
v -0.25200001 0.21029588 0.58799999
v -0.38799999 0.21029588 0.58799999
v -0.38799999 0.21007118 0.58865417
v -0.38799999 0.21007118 0.58934586
v -0.38799999 0.21029588 0.59
v -0.25200001 0.21029588 0.59
v -0.25200001 0.21007118 0.58934586
v -0.25200001 0.21007118 0.58865417
f 139 140 142
f 142 140 141
f 143 144 146
f 146 144 145
f 147 148 150
f 150 148 149
f 151 152 154
f 154 152 153
f 155 156 158
f 158 156 157
f 159 160 162
f 162 160 161
f 163 164 166
f 166 164 165
f 167 168 170
f 170 168 169
f 171 172 174
f 174 172 173
f 175 176 178
f 178 176 177
f 179 180 186
f 186 180 181
f 186 181 185
f 185 181 182
f 185 182 184
f 184 182 183
f 187 188 190
f 190 188 189
f 191 192 196
f 196 192 193
f 196 193 195
f 195 193 194
f 198 199 197
f 197 199 200
f 202 203 201
f 201 203 204
f 205 206 220
f 220 206 207
f 220 207 209
f 209 207 208
f 220 209 219
f 219 209 210
f 219 210 218
f 218 210 211
f 218 211 217
f 217 211 212
f 217 212 216
f 216 212 213
f 216 213 214
f 214 215 216
f 221 222 224
f 224 222 223
f 226 227 225
f 225 227 228
f 230 231 229
f 229 231 232
f 233 234 248
f 248 234 235
f 248 235 237
f 237 235 236
f 237 238 248
f 248 238 247
f 247 238 239
f 247 239 246
f 246 239 240
f 246 240 245
f 245 240 241
f 245 241 244
f 244 241 243
f 243 241 242
f 249 250 254
f 254 250 251
f 254 251 253
f 253 251 252
f 255 256 262
f 262 256 257
f 262 257 261
f 261 257 258
f 261 258 260
f 260 258 259
v -0.39 -0.3468575 0.44
v -0.39 -0.37085749 0.35
v -0.38799999 -0.37085749 0.35
v -0.38799999 -0.3468575 0.44
v -0.39 -0.2888575 0.52599998
v -0.39 -0.3468575 0.44
v -0.38799999 -0.3468575 0.44
v -0.38799999 -0.2888575 0.52599998
v -0.39 -0.37085749 0.35
v -0.39 -0.3728575 0.25
v -0.38799999 -0.3728575 0.25
v -0.38799999 -0.37085749 0.35
v -0.39 -0.2098575 0.57799999
v -0.39 -0.2888575 0.52599998
v -0.38799999 -0.2888575 0.52599998
v -0.38799999 -0.2098575 0.57799999
v -0.39 -0.0728575 0.25
v -0.38799999 -0.0728575 0.25
v -0.38799999 -0.3728575 0.25
v -0.39 -0.3728575 0.25
v -0.39 -0.1528575 0.59
v -0.39 -0.2098575 0.57799999
v -0.38799999 -0.2098575 0.57799999
v -0.38799999 -0.1528575 0.59
v -0.38799999 -0.0728575 0.25
v -0.39 -0.0728575 0.25
v -0.39 -0.0728575 0.4
v -0.38799999 -0.0728575 0.4
v -0.39 0.0021425001 0.4
v -0.38799999 0.0021425001 0.4
v -0.38799999 -0.0728575 0.4
v -0.39 -0.0728575 0.4
v -0.39 0.21398912 0.59
v -0.38799999 0.21398912 0.59
v -0.38799999 0.21914251 0.59
v -0.39 0.21914251 0.59
v -0.39 0.21029588 0.59
v -0.39 0.21080734 0.58737911
v -0.39 0.21347766 0.58737911
v -0.39 0.21398912 0.59
v -0.39 0.21914251 0.59
v -0.39 0.21914251 0.54
v -0.39 0.0021425001 0.54
v -0.39 0.0021425001 0.4
v -0.39 -0.0728575 0.4
v -0.39 -0.0728575 0.25
v -0.39 -0.3728575 0.25
v -0.39 -0.37085749 0.35
v -0.39 -0.3468575 0.44
v -0.39 -0.2888575 0.52599998
v -0.39 -0.2098575 0.57799999
v -0.39 -0.1528575 0.59
v -0.38799999 0.21914251 0.54
v -0.39 0.21914251 0.54
v -0.39 0.21914251 0.59
v -0.38799999 0.21914251 0.59
v -0.39 0.1771425 0.305
v -0.38799999 0.1771425 0.305
v -0.38799999 0.21914251 0.305
v -0.39 0.21914251 0.305
v -0.38799999 0.0021425001 0.54
v -0.38799999 0.0021425001 0.4
v -0.39 0.0021425001 0.4
v -0.39 0.0021425001 0.54
v -0.38799999 0.21914251 0.305
v -0.38799999 0.1771425 0.305
v -0.38799999 0.1771425 0.25
v -0.38799999 0.21914251 0.25
v -0.38799999 0.21914251 0.54
v -0.38799999 0.0021425001 0.54
v -0.39 0.0021425001 0.54
v -0.39 0.21914251 0.54
v -0.39 0.21914251 0.305
v -0.38799999 0.21914251 0.305
v -0.38799999 0.21914251 0.25
v -0.39 0.21914251 0.25
v -0.38799999 0.21029588 0.59
v -0.39 0.21029588 0.59
v -0.39 -0.1528575 0.59
v -0.38799999 -0.1528575 0.59
v -0.38799999 0.1771425 0.305
v -0.39 0.1771425 0.305
v -0.39 0.1771425 0.25
v -0.38799999 0.1771425 0.25
v -0.38799999 0.21398912 0.59
v -0.38799999 0.21347766 0.58737911
v -0.38799999 0.21080734 0.58737911
v -0.38799999 0.21029588 0.59
v -0.38799999 -0.1528575 0.59
v -0.38799999 -0.2098575 0.57799999
v -0.38799999 -0.2888575 0.52599998
v -0.38799999 -0.3468575 0.44
v -0.38799999 -0.37085749 0.35
v -0.38799999 -0.3728575 0.25
v -0.38799999 -0.0728575 0.25
v -0.38799999 -0.0728575 0.4
v -0.38799999 0.0021425001 0.4
v -0.38799999 0.0021425001 0.54
v -0.38799999 0.21914251 0.54
v -0.38799999 0.21914251 0.59
v -0.39 0.1771425 0.305
v -0.39 0.21914251 0.305
v -0.39 0.21914251 0.25
v -0.39 0.1771425 0.25
v -0.39 0.21398912 0.59
v -0.39 0.21347766 0.58737911
v -0.39 0.21080734 0.58737911
v -0.39 0.21029588 0.59
v -0.38799999 0.21029588 0.59
v -0.38799999 0.21080734 0.58737911
v -0.38799999 0.21347766 0.58737911
v -0.38799999 0.21398912 0.59
v -0.38799999 0.1771425 0.25
v -0.39 0.1771425 0.25
v -0.39 0.21914251 0.25
v -0.38799999 0.21914251 0.25
f 263 264 266
f 266 264 265
f 267 268 270
f 270 268 269
f 271 272 274
f 274 272 273
f 275 276 278
f 278 276 277
f 280 281 279
f 279 281 282
f 283 284 286
f 286 284 285
f 288 289 287
f 287 289 290
f 292 293 291
f 291 293 294
f 296 297 295
f 295 297 298
f 314 299 305
f 305 299 300
f 305 300 304
f 304 300 301
f 304 301 303
f 303 301 302
f 306 307 305
f 305 307 313
f 305 313 314
f 308 310 307
f 307 310 311
f 307 311 312
f 308 309 310
f 312 313 307
f 316 317 315
f 315 317 318
f 319 320 322
f 322 320 321
f 323 324 326
f 326 324 325
f 328 329 327
f 327 329 330
f 332 333 331
f 331 333 334
f 336 337 335
f 335 337 338
f 340 341 339
f 339 341 342
f 344 345 343
f 343 345 346
f 347 348 362
f 362 348 361
f 361 348 349
f 361 349 360
f 360 349 350
f 360 350 351
f 351 352 360
f 360 352 358
f 360 358 359
f 352 353 358
f 358 353 354
f 358 354 355
f 356 357 355
f 355 357 358
f 364 365 363
f 363 365 366
f 374 367 373
f 373 367 368
f 373 368 372
f 372 368 369
f 372 369 371
f 371 369 370
f 376 377 375
f 375 377 378
v -0.25 0.21398912 0.59
v -0.25 0.21347766 0.58737911
v -0.25 0.21080734 0.58737911
v -0.25 0.21029588 0.59
v -0.25 -0.1528575 0.59
v -0.25 -0.2098575 0.57799999
v -0.25 -0.2888575 0.52599998
v -0.25 -0.3468575 0.44
v -0.25 -0.37085749 0.35
v -0.25 -0.3728575 0.25
v -0.25 -0.0728575 0.25
v -0.25 -0.0728575 0.4
v -0.25 -0.0128575 0.4
v -0.25 -0.0128575 0.49
v -0.25 0.21914251 0.49
v -0.25 0.21914251 0.59
v -0.25200001 0.21398912 0.59
v -0.25200001 0.21347766 0.58737911
v -0.25200001 0.21080734 0.58737911
v -0.25200001 0.21029588 0.59
v -0.25 0.21029588 0.59
v -0.25 0.21080734 0.58737911
v -0.25 0.21347766 0.58737911
v -0.25 0.21398912 0.59
v -0.25200001 -0.3468575 0.44
v -0.25200001 -0.37085749 0.35
v -0.25 -0.37085749 0.35
v -0.25 -0.3468575 0.44
v -0.25200001 -0.2888575 0.52599998
v -0.25200001 -0.3468575 0.44
v -0.25 -0.3468575 0.44
v -0.25 -0.2888575 0.52599998
v -0.25200001 -0.37085749 0.35
v -0.25200001 -0.3728575 0.25
v -0.25 -0.3728575 0.25
v -0.25 -0.37085749 0.35
v -0.25200001 -0.2098575 0.57799999
v -0.25200001 -0.2888575 0.52599998
v -0.25 -0.2888575 0.52599998
v -0.25 -0.2098575 0.57799999
v -0.25200001 -0.0728575 0.25
v -0.25 -0.0728575 0.25
v -0.25 -0.3728575 0.25
v -0.25200001 -0.3728575 0.25
v -0.25200001 -0.1528575 0.59
v -0.25200001 -0.2098575 0.57799999
v -0.25 -0.2098575 0.57799999
v -0.25 -0.1528575 0.59
v -0.25 -0.0728575 0.25
v -0.25200001 -0.0728575 0.25
v -0.25200001 -0.0728575 0.4
v -0.25 -0.0728575 0.4
v -0.25200001 -0.0128575 0.4
v -0.25 -0.0128575 0.4
v -0.25 -0.0728575 0.4
v -0.25200001 -0.0728575 0.4
v -0.25200001 0.21398912 0.59
v -0.25 0.21398912 0.59
v -0.25 0.21914251 0.59
v -0.25200001 0.21914251 0.59
v -0.25200001 0.21029588 0.59
v -0.25200001 0.21080734 0.58737911
v -0.25200001 0.21347766 0.58737911
v -0.25200001 0.21398912 0.59
v -0.25200001 0.21914251 0.59
v -0.25200001 0.21914251 0.49
v -0.25200001 -0.0128575 0.49
v -0.25200001 -0.0128575 0.4
v -0.25200001 -0.0728575 0.4
v -0.25200001 -0.0728575 0.25
v -0.25200001 -0.3728575 0.25
v -0.25200001 -0.37085749 0.35
v -0.25200001 -0.3468575 0.44
v -0.25200001 -0.2888575 0.52599998
v -0.25200001 -0.2098575 0.57799999
v -0.25200001 -0.1528575 0.59
v -0.25 0.21914251 0.49
v -0.25200001 0.21914251 0.49
v -0.25200001 0.21914251 0.59
v -0.25 0.21914251 0.59
v -0.25 -0.0128575 0.49
v -0.25 -0.0128575 0.4
v -0.25200001 -0.0128575 0.4
v -0.25200001 -0.0128575 0.49
v -0.25 0.21914251 0.49
v -0.25 -0.0128575 0.49
v -0.25200001 -0.0128575 0.49
v -0.25200001 0.21914251 0.49
v -0.25 0.21029588 0.59
v -0.25200001 0.21029588 0.59
v -0.25200001 -0.1528575 0.59
v -0.25 -0.1528575 0.59
f 379 380 394
f 394 380 393
f 393 380 381
f 393 381 392
f 392 381 382
f 392 382 383
f 383 384 392
f 392 384 385
f 392 385 390
f 390 385 386
f 390 386 387
f 388 389 387
f 387 389 390
f 390 391 392
f 402 395 401
f 401 395 396
f 401 396 400
f 400 396 397
f 400 397 399
f 399 397 398
f 403 404 406
f 406 404 405
f 407 408 410
f 410 408 409
f 411 412 414
f 414 412 413
f 415 416 418
f 418 416 417
f 420 421 419
f 419 421 422
f 423 424 426
f 426 424 425
f 428 429 427
f 427 429 430
f 432 433 431
f 431 433 434
f 436 437 435
f 435 437 438
f 454 439 445
f 445 439 440
f 445 440 444
f 444 440 441
f 444 441 443
f 443 441 442
f 446 447 445
f 445 447 452
f 445 452 453
f 448 450 447
f 447 450 451
f 447 451 452
f 448 449 450
f 453 454 445
f 456 457 455
f 455 457 458
f 459 460 462
f 462 460 461
f 464 465 463
f 463 465 466
f 468 469 467
f 467 469 470
