v 0.06240399 -0.30784045 0.244
v 0.082100143 -0.30436749 0.244
v 0.08522581 -0.32209402 0.244
v 0.065529657 -0.32556699 0.244
v 0.08522581 -0.32209402 0.25700001
v 0.08522581 -0.32209402 0.244
v 0.082100143 -0.30436749 0.244
v 0.082100143 -0.30436749 0.25700001
v 0.065529657 -0.32556699 0.25700001
v 0.065529657 -0.32556699 0.244
v 0.08522581 -0.32209402 0.244
v 0.08522581 -0.32209402 0.25700001
v 0.06240399 -0.30784045 0.25700001
v 0.06240399 -0.30784045 0.244
v 0.065529657 -0.32556699 0.244
v 0.065529657 -0.32556699 0.25700001
v 0.082100143 -0.30436749 0.25700001
v 0.06240399 -0.30784045 0.25700001
v 0.065529657 -0.32556699 0.25700001
v 0.08522581 -0.32209402 0.25700001
v 0.082100143 -0.30436749 0.25700001
v 0.082100143 -0.30436749 0.244
v 0.06240399 -0.30784045 0.244
v 0.06240399 -0.30784045 0.25700001
f 2 3 1
f 1 3 4
f 5 6 8
f 8 6 7
f 9 10 12
f 12 10 11
f 13 14 16
f 16 14 15
f 18 19 17
f 17 19 20
f 21 22 24
f 24 22 23
v 0.065529657 -0.32556699 0.32299999
v 0.065529657 -0.32556699 0.31
v 0.08522581 -0.32209402 0.31
v 0.08522581 -0.32209402 0.32299999
v 0.06240399 -0.30784045 0.31
v 0.082100143 -0.30436749 0.31
v 0.08522581 -0.32209402 0.31
v 0.065529657 -0.32556699 0.31
v 0.082100143 -0.30436749 0.32299999
v 0.082100143 -0.30436749 0.31
v 0.06240399 -0.30784045 0.31
v 0.06240399 -0.30784045 0.32299999
v 0.08522581 -0.32209402 0.32299999
v 0.08522581 -0.32209402 0.31
v 0.082100143 -0.30436749 0.31
v 0.082100143 -0.30436749 0.32299999
v 0.082100143 -0.30436749 0.32299999
v 0.06240399 -0.30784045 0.32299999
v 0.065529657 -0.32556699 0.32299999
v 0.08522581 -0.32209402 0.32299999
v 0.06240399 -0.30784045 0.32299999
v 0.06240399 -0.30784045 0.31
v 0.065529657 -0.32556699 0.31
v 0.065529657 -0.32556699 0.32299999
f 25 26 28
f 28 26 27
f 30 31 29
f 29 31 32
f 33 34 36
f 36 34 35
f 37 38 40
f 40 38 39
f 42 43 41
f 41 43 44
f 45 46 48
f 48 46 47
v 0.078160913 -0.30506208 0.32299999
v 0.078160913 -0.30506208 0.244
v 0.081286581 -0.32278862 0.244
v 0.081286581 -0.32278862 0.32299999
v 0.081286581 -0.32278862 0.32299999
v 0.081286581 -0.32278862 0.244
v 0.09113466 -0.32105214 0.244
v 0.09113466 -0.32105214 0.32299999
v 0.078160913 -0.30506208 0.244
v 0.088008993 -0.3033256 0.244
v 0.09113466 -0.32105214 0.244
v 0.081286581 -0.32278862 0.244
v 0.09113466 -0.32105214 0.32299999
v 0.09113466 -0.32105214 0.244
v 0.088008993 -0.3033256 0.244
v 0.088008993 -0.3033256 0.32299999
v 0.088008993 -0.3033256 0.32299999
v 0.088008993 -0.3033256 0.244
v 0.078160913 -0.30506208 0.244
v 0.078160913 -0.30506208 0.32299999
v 0.088008993 -0.3033256 0.32299999
v 0.078160913 -0.30506208 0.32299999
v 0.081286581 -0.32278862 0.32299999
v 0.09113466 -0.32105214 0.32299999
f 49 50 52
f 52 50 51
f 53 54 56
f 56 54 55
f 58 59 57
f 57 59 60
f 61 62 64
f 64 62 63
f 65 66 68
f 68 66 67
f 70 71 69
f 69 71 72
