v 0.13543266 0.021808241 0.165
v 0.13519146 0.023176322 0.165
v 0.13449684 0.024379392 0.165
v 0.13343265 0.025272343 0.165
v 0.13212727 0.025747472 0.165
v 0.13073807 0.025747472 0.165
v 0.12943268 0.025272343 0.165
v 0.12836849 0.024379392 0.165
v 0.12767391 0.023176322 0.165
v 0.12743267 0.021808241 0.165
v 0.12767391 0.020440161 0.165
v 0.12836849 0.01923709 0.165
v 0.12943268 0.01834414 0.165
v 0.13073807 0.01786901 0.165
v 0.13212727 0.01786901 0.165
v 0.13343265 0.01834414 0.165
v 0.13449684 0.01923709 0.165
v 0.13519146 0.020440161 0.165
v 0.13543266 0.021808241 0.17799999
v 0.13519146 0.020440161 0.17799999
v 0.13449684 0.01923709 0.17799999
v 0.13343265 0.01834414 0.17799999
v 0.13212727 0.01786901 0.17799999
v 0.13073807 0.01786901 0.17799999
v 0.12943268 0.01834414 0.17799999
v 0.12836849 0.01923709 0.17799999
v 0.12767391 0.020440161 0.17799999
v 0.12743267 0.021808241 0.17799999
v 0.12767391 0.023176322 0.17799999
v 0.12836849 0.024379392 0.17799999
v 0.12943268 0.025272343 0.17799999
v 0.13073807 0.025747472 0.17799999
v 0.13212727 0.025747472 0.17799999
v 0.13343265 0.025272343 0.17799999
v 0.13449684 0.024379392 0.17799999
v 0.13519146 0.023176322 0.17799999
v 0.12743267 0.021808241 0.165
v 0.12743267 0.021808241 0.17799999
v 0.13543266 0.021808241 0.17799999
v 0.13519146 0.023176322 0.17799999
v 0.13449684 0.024379392 0.17799999
v 0.13343265 0.025272343 0.17799999
v 0.13212727 0.025747472 0.17799999
v 0.13073807 0.025747472 0.17799999
v 0.12943268 0.025272343 0.17799999
v 0.12836849 0.024379392 0.17799999
v 0.12767391 0.023176322 0.17799999
v 0.12743267 0.021808241 0.17799999
v 0.12767391 0.020440161 0.17799999
v 0.12836849 0.01923709 0.17799999
v 0.12943268 0.01834414 0.17799999
v 0.13073807 0.01786901 0.17799999
v 0.13212727 0.01786901 0.17799999
v 0.13343265 0.01834414 0.17799999
v 0.13449684 0.01923709 0.17799999
v 0.13519146 0.020440161 0.17799999
v 0.13543266 0.021808241 0.165
v 0.13519146 0.020440161 0.165
v 0.13449684 0.01923709 0.165
v 0.13343265 0.01834414 0.165
v 0.13212727 0.01786901 0.165
v 0.13073807 0.01786901 0.165
v 0.12943268 0.01834414 0.165
v 0.12836849 0.01923709 0.165
v 0.12767391 0.020440161 0.165
v 0.12743267 0.021808241 0.165
v 0.12767391 0.023176322 0.165
v 0.12836849 0.024379392 0.165
v 0.12943268 0.025272343 0.165
v 0.13073807 0.025747472 0.165
v 0.13212727 0.025747472 0.165
v 0.13343265 0.025272343 0.165
v 0.13449684 0.024379392 0.165
v 0.13519146 0.023176322 0.165
f 2 19 1
f 1 19 20
f 1 20 18
f 18 20 21
f 18 21 17
f 17 21 22
f 17 22 16
f 16 22 23
f 16 23 15
f 15 23 24
f 15 24 14
f 14 24 25
f 14 25 13
f 13 25 26
f 13 26 12
f 12 26 27
f 12 27 11
f 11 27 10
f 10 27 38
f 37 28 9
f 9 28 29
f 9 29 30
f 19 2 36
f 36 2 3
f 36 3 35
f 35 3 4
f 35 4 34
f 34 4 5
f 34 5 33
f 33 5 6
f 33 6 32
f 32 6 7
f 32 7 31
f 31 7 8
f 31 8 30
f 30 8 9
f 40 47 39
f 39 47 48
f 39 48 56
f 56 48 49
f 56 49 55
f 55 49 50
f 55 50 54
f 54 50 51
f 54 51 53
f 53 51 52
f 47 40 46
f 46 40 41
f 46 41 45
f 45 41 42
f 45 42 44
f 44 42 43
f 58 65 57
f 57 65 66
f 57 66 74
f 74 66 67
f 74 67 73
f 73 67 68
f 73 68 72
f 72 68 69
f 72 69 71
f 71 69 70
f 65 58 64
f 64 58 59
f 64 59 63
f 63 59 60
f 63 60 62
f 62 60 61
v 0.13543266 0.021808241 0.19700001
v 0.13519146 0.023176322 0.19700001
v 0.13449684 0.024379392 0.19700001
v 0.13343265 0.025272343 0.19700001
v 0.13212727 0.025747472 0.19700001
v 0.13073807 0.025747472 0.19700001
v 0.12943268 0.025272343 0.19700001
v 0.12836849 0.024379392 0.19700001
v 0.12767391 0.023176322 0.19700001
v 0.12743267 0.021808241 0.19700001
v 0.12767391 0.020440161 0.19700001
v 0.12836849 0.01923709 0.19700001
v 0.12943268 0.01834414 0.19700001
v 0.13073807 0.01786901 0.19700001
v 0.13212727 0.01786901 0.19700001
v 0.13343265 0.01834414 0.19700001
v 0.13449684 0.01923709 0.19700001
v 0.13519146 0.020440161 0.19700001
v 0.13543266 0.021808241 0.21
v 0.13519146 0.020440161 0.21
v 0.13449684 0.01923709 0.21
v 0.13343265 0.01834414 0.21
v 0.13212727 0.01786901 0.21
v 0.13073807 0.01786901 0.21
v 0.12943268 0.01834414 0.21
v 0.12836849 0.01923709 0.21
v 0.12767391 0.020440161 0.21
v 0.12743267 0.021808241 0.21
v 0.12767391 0.023176322 0.21
v 0.12836849 0.024379392 0.21
v 0.12943268 0.025272343 0.21
v 0.13073807 0.025747472 0.21
v 0.13212727 0.025747472 0.21
v 0.13343265 0.025272343 0.21
v 0.13449684 0.024379392 0.21
v 0.13519146 0.023176322 0.21
v 0.12743267 0.021808241 0.19700001
v 0.12743267 0.021808241 0.21
v 0.13543266 0.021808241 0.21
v 0.13519146 0.023176322 0.21
v 0.13449684 0.024379392 0.21
v 0.13343265 0.025272343 0.21
v 0.13212727 0.025747472 0.21
v 0.13073807 0.025747472 0.21
v 0.12943268 0.025272343 0.21
v 0.12836849 0.024379392 0.21
v 0.12767391 0.023176322 0.21
v 0.12743267 0.021808241 0.21
v 0.12767391 0.020440161 0.21
v 0.12836849 0.01923709 0.21
v 0.12943268 0.01834414 0.21
v 0.13073807 0.01786901 0.21
v 0.13212727 0.01786901 0.21
v 0.13343265 0.01834414 0.21
v 0.13449684 0.01923709 0.21
v 0.13519146 0.020440161 0.21
v 0.13543266 0.021808241 0.19700001
v 0.13519146 0.020440161 0.19700001
v 0.13449684 0.01923709 0.19700001
v 0.13343265 0.01834414 0.19700001
v 0.13212727 0.01786901 0.19700001
v 0.13073807 0.01786901 0.19700001
v 0.12943268 0.01834414 0.19700001
v 0.12836849 0.01923709 0.19700001
v 0.12767391 0.020440161 0.19700001
v 0.12743267 0.021808241 0.19700001
v 0.12767391 0.023176322 0.19700001
v 0.12836849 0.024379392 0.19700001
v 0.12943268 0.025272343 0.19700001
v 0.13073807 0.025747472 0.19700001
v 0.13212727 0.025747472 0.19700001
v 0.13343265 0.025272343 0.19700001
v 0.13449684 0.024379392 0.19700001
v 0.13519146 0.023176322 0.19700001
f 76 93 75
f 75 93 94
f 75 94 92
f 92 94 95
f 92 95 91
f 91 95 96
f 91 96 90
f 90 96 97
f 90 97 89
f 89 97 98
f 89 98 88
f 88 98 99
f 88 99 87
f 87 99 100
f 87 100 86
f 86 100 101
f 86 101 85
f 85 101 84
f 84 101 112
f 111 102 83
f 83 102 103
f 83 103 104
f 93 76 110
f 110 76 77
f 110 77 109
f 109 77 78
f 109 78 108
f 108 78 79
f 108 79 107
f 107 79 80
f 107 80 106
f 106 80 81
f 106 81 105
f 105 81 82
f 105 82 104
f 104 82 83
f 114 121 113
f 113 121 122
f 113 122 130
f 130 122 123
f 130 123 129
f 129 123 124
f 129 124 128
f 128 124 125
f 128 125 127
f 127 125 126
f 121 114 120
f 120 114 115
f 120 115 119
f 119 115 116
f 119 116 118
f 118 116 117
f 132 139 131
f 131 139 140
f 131 140 148
f 148 140 141
f 148 141 147
f 147 141 142
f 147 142 146
f 146 142 143
f 146 143 145
f 145 143 144
f 139 132 138
f 138 132 133
f 138 133 137
f 137 133 134
f 137 134 136
f 136 134 135
v 0.13543266 0.021808241 0.35700001
v 0.13519146 0.023176322 0.35700001
v 0.13449684 0.024379392 0.35700001
v 0.13343265 0.025272343 0.35700001
v 0.13212727 0.025747472 0.35700001
v 0.13073807 0.025747472 0.35700001
v 0.12943268 0.025272343 0.35700001
v 0.12836849 0.024379392 0.35700001
v 0.12767391 0.023176322 0.35700001
v 0.12743267 0.021808241 0.35700001
v 0.12767391 0.020440161 0.35700001
v 0.12836849 0.01923709 0.35700001
v 0.12943268 0.01834414 0.35700001
v 0.13073807 0.01786901 0.35700001
v 0.13212727 0.01786901 0.35700001
v 0.13343265 0.01834414 0.35700001
v 0.13449684 0.01923709 0.35700001
v 0.13519146 0.020440161 0.35700001
v 0.13543266 0.021808241 0.37
v 0.13519146 0.020440161 0.37
v 0.13449684 0.01923709 0.37
v 0.13343265 0.01834414 0.37
v 0.13212727 0.01786901 0.37
v 0.13073807 0.01786901 0.37
v 0.12943268 0.01834414 0.37
v 0.12836849 0.01923709 0.37
v 0.12767391 0.020440161 0.37
v 0.12743267 0.021808241 0.37
v 0.12767391 0.023176322 0.37
v 0.12836849 0.024379392 0.37
v 0.12943268 0.025272343 0.37
v 0.13073807 0.025747472 0.37
v 0.13212727 0.025747472 0.37
v 0.13343265 0.025272343 0.37
v 0.13449684 0.024379392 0.37
v 0.13519146 0.023176322 0.37
v 0.12743267 0.021808241 0.35700001
v 0.12743267 0.021808241 0.37
v 0.13543266 0.021808241 0.35700001
v 0.13519146 0.020440161 0.35700001
v 0.13449684 0.01923709 0.35700001
v 0.13343265 0.01834414 0.35700001
v 0.13212727 0.01786901 0.35700001
v 0.13073807 0.01786901 0.35700001
v 0.12943268 0.01834414 0.35700001
v 0.12836849 0.01923709 0.35700001
v 0.12767391 0.020440161 0.35700001
v 0.12743267 0.021808241 0.35700001
v 0.12767391 0.023176322 0.35700001
v 0.12836849 0.024379392 0.35700001
v 0.12943268 0.025272343 0.35700001
v 0.13073807 0.025747472 0.35700001
v 0.13212727 0.025747472 0.35700001
v 0.13343265 0.025272343 0.35700001
v 0.13449684 0.024379392 0.35700001
v 0.13519146 0.023176322 0.35700001
v 0.13543266 0.021808241 0.37
v 0.13519146 0.023176322 0.37
v 0.13449684 0.024379392 0.37
v 0.13343265 0.025272343 0.37
v 0.13212727 0.025747472 0.37
v 0.13073807 0.025747472 0.37
v 0.12943268 0.025272343 0.37
v 0.12836849 0.024379392 0.37
v 0.12767391 0.023176322 0.37
v 0.12743267 0.021808241 0.37
v 0.12767391 0.020440161 0.37
v 0.12836849 0.01923709 0.37
v 0.12943268 0.01834414 0.37
v 0.13073807 0.01786901 0.37
v 0.13212727 0.01786901 0.37
v 0.13343265 0.01834414 0.37
v 0.13449684 0.01923709 0.37
v 0.13519146 0.020440161 0.37
f 150 167 149
f 149 167 168
f 149 168 166
f 166 168 169
f 166 169 165
f 165 169 170
f 165 170 164
f 164 170 171
f 164 171 163
f 163 171 172
f 163 172 162
f 162 172 173
f 162 173 161
f 161 173 174
f 161 174 160
f 160 174 175
f 160 175 159
f 159 175 158
f 158 175 186
f 185 176 157
f 157 176 177
f 157 177 178
f 167 150 184
f 184 150 151
f 184 151 183
f 183 151 152
f 183 152 182
f 182 152 153
f 182 153 181
f 181 153 154
f 181 154 180
f 180 154 155
f 180 155 179
f 179 155 156
f 179 156 178
f 178 156 157
f 188 195 187
f 187 195 196
f 187 196 204
f 204 196 197
f 204 197 203
f 203 197 198
f 203 198 202
f 202 198 199
f 202 199 201
f 201 199 200
f 195 188 194
f 194 188 189
f 194 189 193
f 193 189 190
f 193 190 192
f 192 190 191
f 206 213 205
f 205 213 214
f 205 214 222
f 222 214 215
f 222 215 221
f 221 215 216
f 221 216 220
f 220 216 217
f 220 217 219
f 219 217 218
f 213 206 212
f 212 206 207
f 212 207 211
f 211 207 208
f 211 208 210
f 210 208 209
v 0.13543266 0.021808241 0.38900002
v 0.13519146 0.023176322 0.38900002
v 0.13449684 0.024379392 0.38900002
v 0.13343265 0.025272343 0.38900002
v 0.13212727 0.025747472 0.38900002
v 0.13073807 0.025747472 0.38900002
v 0.12943268 0.025272343 0.38900002
v 0.12836849 0.024379392 0.38900002
v 0.12767391 0.023176322 0.38900002
v 0.12743267 0.021808241 0.38900002
v 0.12767391 0.020440161 0.38900002
v 0.12836849 0.01923709 0.38900002
v 0.12943268 0.01834414 0.38900002
v 0.13073807 0.01786901 0.38900002
v 0.13212727 0.01786901 0.38900002
v 0.13343265 0.01834414 0.38900002
v 0.13449684 0.01923709 0.38900002
v 0.13519146 0.020440161 0.38900002
v 0.13543266 0.021808241 0.40200001
v 0.13519146 0.020440161 0.40200001
v 0.13449684 0.01923709 0.40200001
v 0.13343265 0.01834414 0.40200001
v 0.13212727 0.01786901 0.40200001
v 0.13073807 0.01786901 0.40200001
v 0.12943268 0.01834414 0.40200001
v 0.12836849 0.01923709 0.40200001
v 0.12767391 0.020440161 0.40200001
v 0.12743267 0.021808241 0.40200001
v 0.12767391 0.023176322 0.40200001
v 0.12836849 0.024379392 0.40200001
v 0.12943268 0.025272343 0.40200001
v 0.13073807 0.025747472 0.40200001
v 0.13212727 0.025747472 0.40200001
v 0.13343265 0.025272343 0.40200001
v 0.13449684 0.024379392 0.40200001
v 0.13519146 0.023176322 0.40200001
v 0.12743267 0.021808241 0.38900002
v 0.12743267 0.021808241 0.40200001
v 0.13543266 0.021808241 0.40200001
v 0.13519146 0.023176322 0.40200001
v 0.13449684 0.024379392 0.40200001
v 0.13343265 0.025272343 0.40200001
v 0.13212727 0.025747472 0.40200001
v 0.13073807 0.025747472 0.40200001
v 0.12943268 0.025272343 0.40200001
v 0.12836849 0.024379392 0.40200001
v 0.12767391 0.023176322 0.40200001
v 0.12743267 0.021808241 0.40200001
v 0.12767391 0.020440161 0.40200001
v 0.12836849 0.01923709 0.40200001
v 0.12943268 0.01834414 0.40200001
v 0.13073807 0.01786901 0.40200001
v 0.13212727 0.01786901 0.40200001
v 0.13343265 0.01834414 0.40200001
v 0.13449684 0.01923709 0.40200001
v 0.13519146 0.020440161 0.40200001
v 0.13543266 0.021808241 0.38900002
v 0.13519146 0.020440161 0.38900002
v 0.13449684 0.01923709 0.38900002
v 0.13343265 0.01834414 0.38900002
v 0.13212727 0.01786901 0.38900002
v 0.13073807 0.01786901 0.38900002
v 0.12943268 0.01834414 0.38900002
v 0.12836849 0.01923709 0.38900002
v 0.12767391 0.020440161 0.38900002
v 0.12743267 0.021808241 0.38900002
v 0.12767391 0.023176322 0.38900002
v 0.12836849 0.024379392 0.38900002
v 0.12943268 0.025272343 0.38900002
v 0.13073807 0.025747472 0.38900002
v 0.13212727 0.025747472 0.38900002
v 0.13343265 0.025272343 0.38900002
v 0.13449684 0.024379392 0.38900002
v 0.13519146 0.023176322 0.38900002
f 224 241 223
f 223 241 242
f 223 242 240
f 240 242 243
f 240 243 239
f 239 243 244
f 239 244 238
f 238 244 245
f 238 245 237
f 237 245 246
f 237 246 236
f 236 246 247
f 236 247 235
f 235 247 248
f 235 248 234
f 234 248 249
f 234 249 233
f 233 249 232
f 232 249 260
f 259 250 231
f 231 250 251
f 231 251 252
f 241 224 258
f 258 224 225
f 258 225 257
f 257 225 226
f 257 226 256
f 256 226 227
f 256 227 255
f 255 227 228
f 255 228 254
f 254 228 229
f 254 229 253
f 253 229 230
f 253 230 252
f 252 230 231
f 262 269 261
f 261 269 270
f 261 270 278
f 278 270 271
f 278 271 277
f 277 271 272
f 277 272 276
f 276 272 273
f 276 273 275
f 275 273 274
f 269 262 268
f 268 262 263
f 268 263 267
f 267 263 264
f 267 264 266
f 266 264 265
f 280 287 279
f 279 287 288
f 279 288 296
f 296 288 289
f 296 289 295
f 295 289 290
f 295 290 294
f 294 290 291
f 294 291 293
f 293 291 292
f 287 280 286
f 286 280 281
f 286 281 285
f 285 281 282
f 285 282 284
f 284 282 283
v 0.099232673 0.044808241 0.148
v 0.099232673 0.047185882 0.14972746
v 0.099232673 0.046277704 0.15252254
v 0.099232673 0.043338778 0.15252254
v 0.099232673 0.0424306 0.14972746
v -0.18876733 0.044808241 0.148
v -0.18876733 0.0424306 0.14972746
v -0.18876733 0.043338778 0.15252254
v -0.18876733 0.046277704 0.15252254
v -0.18876733 0.047185882 0.14972746
v -0.18876733 0.044808241 0.148
v -0.18876733 0.047185882 0.14972746
v -0.18876733 0.046277704 0.15252254
v -0.18876733 0.043338778 0.15252254
v -0.18876733 0.0424306 0.14972746
v 0.099232673 0.044808241 0.148
v 0.099232673 0.0424306 0.14972746
v 0.099232673 0.043338778 0.15252254
v 0.099232673 0.046277704 0.15252254
v 0.099232673 0.047185882 0.14972746
v -0.18876733 0.043338778 0.15252254
v 0.099232673 0.043338778 0.15252254
f 297 298 301
f 301 298 300
f 300 298 299
f 302 303 306
f 306 303 304
f 306 304 305
f 308 316 307
f 307 316 312
f 307 312 311
f 311 312 313
f 311 313 318
f 308 309 316
f 316 309 315
f 315 309 317
f 315 317 314
f 318 310 311
v -0.18876733 0.28080824 0.148
v -0.18876733 0.28318588 0.14972746
v -0.18876733 0.2822777 0.15252254
v -0.18876733 0.27933878 0.15252254
v -0.18876733 0.2784306 0.14972746
v 0.099232673 0.28080824 0.148
v 0.099232673 0.2784306 0.14972746
v 0.099232673 0.27933878 0.15252254
v 0.099232673 0.2822777 0.15252254
v 0.099232673 0.28318588 0.14972746
v -0.18876733 0.27933878 0.15252254
v 0.099232673 0.27933878 0.15252254
v 0.099232673 0.28080824 0.148
v 0.099232673 0.28318588 0.14972746
v 0.099232673 0.2822777 0.15252254
v 0.099232673 0.27933878 0.15252254
v 0.099232673 0.2784306 0.14972746
v -0.18876733 0.28080824 0.148
v -0.18876733 0.2784306 0.14972746
v -0.18876733 0.27933878 0.15252254
v -0.18876733 0.2822777 0.15252254
v -0.18876733 0.28318588 0.14972746
f 320 328 319
f 319 328 324
f 319 324 323
f 323 324 325
f 323 325 330
f 320 321 328
f 328 321 327
f 327 321 329
f 327 329 326
f 330 322 323
f 331 332 335
f 335 332 334
f 334 332 333
f 336 337 340
f 340 337 338
f 340 338 339
v -0.18626733 0.28080824 0.1505
v -0.18799479 0.28080824 0.14812236
v -0.19078987 0.28080824 0.14903053
v -0.19078987 0.28080824 0.15196946
v -0.18799479 0.28080824 0.15287765
v -0.18626733 0.044808241 0.1505
v -0.18799479 0.044808241 0.15287765
v -0.19078987 0.044808241 0.15196946
v -0.19078987 0.044808241 0.14903053
v -0.18799479 0.044808241 0.14812236
v -0.18626733 0.044808241 0.1505
v -0.18799479 0.044808241 0.14812236
v -0.19078987 0.044808241 0.14903053
v -0.19078987 0.044808241 0.15196946
v -0.18799479 0.044808241 0.15287765
v -0.18626733 0.28080824 0.1505
v -0.18799479 0.28080824 0.15287765
v -0.19078987 0.28080824 0.15196946
v -0.19078987 0.28080824 0.14903053
v -0.18799479 0.28080824 0.14812236
v -0.19078987 0.044808241 0.15196946
v -0.19078987 0.28080824 0.15196946
f 341 342 345
f 345 342 344
f 344 342 343
f 346 347 350
f 350 347 348
f 350 348 349
f 352 360 351
f 351 360 356
f 351 356 355
f 355 356 357
f 355 357 362
f 352 353 360
f 360 353 359
f 359 353 361
f 359 361 358
f 362 354 355
v 0.10173267 0.28080824 0.1505
v 0.10000523 0.28080824 0.14812236
v 0.09721012 0.28080824 0.14903053
v 0.09721012 0.28080824 0.15196946
v 0.10000523 0.28080824 0.15287765
v 0.10173267 0.044808241 0.1505
v 0.10000523 0.044808241 0.14812236
v 0.09721012 0.044808241 0.14903053
v 0.09721012 0.044808241 0.15196946
v 0.10000523 0.044808241 0.15287765
v 0.10173267 0.28080824 0.1505
v 0.10000523 0.28080824 0.15287765
v 0.09721012 0.28080824 0.15196946
v 0.09721012 0.28080824 0.14903053
v 0.10000523 0.28080824 0.14812236
v 0.09721012 0.044808241 0.15196946
v 0.09721012 0.28080824 0.15196946
v 0.10173267 0.044808241 0.1505
v 0.10000523 0.044808241 0.15287765
v 0.09721012 0.044808241 0.15196946
v 0.09721012 0.044808241 0.14903053
v 0.10000523 0.044808241 0.14812236
f 363 364 367
f 367 364 366
f 366 364 365
f 369 377 368
f 368 377 373
f 368 373 372
f 372 373 374
f 372 374 379
f 369 370 377
f 377 370 376
f 376 370 378
f 376 378 375
f 379 371 372
f 380 381 384
f 384 381 382
f 384 382 383
v -0.18206733 0.28080824 0.149
v -0.18310381 0.28080824 0.14757341
v -0.18478086 0.28080824 0.14811832
v -0.18478086 0.28080824 0.14988168
v -0.18310381 0.28080824 0.15042659
v -0.18206733 0.044808241 0.149
v -0.18310381 0.044808241 0.14757341
v -0.18478086 0.044808241 0.14811832
v -0.18478086 0.044808241 0.14988168
v -0.18310381 0.044808241 0.15042659
v -0.18206733 0.28080824 0.149
v -0.18310381 0.28080824 0.15042659
v -0.18478086 0.28080824 0.14988168
v -0.18478086 0.28080824 0.14811832
v -0.18310381 0.28080824 0.14757341
v -0.18478086 0.044808241 0.14988168
v -0.18478086 0.28080824 0.14988168
v -0.18206733 0.044808241 0.149
v -0.18310381 0.044808241 0.15042659
v -0.18478086 0.044808241 0.14988168
v -0.18478086 0.044808241 0.14811832
v -0.18310381 0.044808241 0.14757341
f 385 386 389
f 389 386 388
f 388 386 387
f 391 399 390
f 390 399 395
f 390 395 394
f 394 395 396
f 394 396 401
f 391 392 399
f 399 392 398
f 398 392 400
f 398 400 397
f 401 393 394
f 402 403 406
f 406 403 404
f 406 404 405
v -0.17002385 0.044808241 0.149
v -0.17106032 0.044808241 0.14757341
v -0.17273738 0.044808241 0.14811832
v -0.17273738 0.044808241 0.14988168
v -0.17106032 0.044808241 0.15042659
v -0.17002385 0.28080824 0.149
v -0.17106032 0.28080824 0.15042659
v -0.17273738 0.28080824 0.14988168
v -0.17273738 0.28080824 0.14811832
v -0.17106032 0.28080824 0.14757341
v -0.17273738 0.044808241 0.14988168
v -0.17273738 0.28080824 0.14988168
v -0.17002385 0.28080824 0.149
v -0.17106032 0.28080824 0.14757341
v -0.17273738 0.28080824 0.14811832
v -0.17273738 0.28080824 0.14988168
v -0.17106032 0.28080824 0.15042659
v -0.17002385 0.044808241 0.149
v -0.17106032 0.044808241 0.15042659
v -0.17273738 0.044808241 0.14988168
v -0.17273738 0.044808241 0.14811832
v -0.17106032 0.044808241 0.14757341
f 408 416 407
f 407 416 412
f 407 412 411
f 411 412 413
f 411 413 418
f 408 409 416
f 416 409 415
f 415 409 417
f 415 417 414
f 418 410 411
f 419 420 423
f 423 420 422
f 422 420 421
f 424 425 428
f 428 425 426
f 428 426 427
v -0.15798037 0.044808241 0.149
v -0.15901685 0.044808241 0.14757341
v -0.1606939 0.044808241 0.14811832
v -0.1606939 0.044808241 0.14988168
v -0.15901685 0.044808241 0.15042659
v -0.15798037 0.28080824 0.149
v -0.15901685 0.28080824 0.15042659
v -0.1606939 0.28080824 0.14988168
v -0.1606939 0.28080824 0.14811832
v -0.15901685 0.28080824 0.14757341
v -0.1606939 0.044808241 0.14988168
v -0.1606939 0.28080824 0.14988168
v -0.15798037 0.28080824 0.149
v -0.15901685 0.28080824 0.14757341
v -0.1606939 0.28080824 0.14811832
v -0.1606939 0.28080824 0.14988168
v -0.15901685 0.28080824 0.15042659
v -0.15798037 0.044808241 0.149
v -0.15901685 0.044808241 0.15042659
v -0.1606939 0.044808241 0.14988168
v -0.1606939 0.044808241 0.14811832
v -0.15901685 0.044808241 0.14757341
f 430 438 429
f 429 438 434
f 429 434 433
f 433 434 435
f 433 435 440
f 430 431 438
f 438 431 437
f 437 431 439
f 437 439 436
f 440 432 433
f 441 442 445
f 445 442 444
f 444 442 443
f 446 447 450
f 450 447 448
f 450 448 449
v -0.1459369 0.28080824 0.149
v -0.14697337 0.28080824 0.14757341
v -0.14865042 0.28080824 0.14811832
v -0.14865042 0.28080824 0.14988168
v -0.14697337 0.28080824 0.15042659
v -0.1459369 0.044808241 0.149
v -0.14697337 0.044808241 0.14757341
v -0.14865042 0.044808241 0.14811832
v -0.14865042 0.044808241 0.14988168
v -0.14697337 0.044808241 0.15042659
v -0.1459369 0.28080824 0.149
v -0.14697337 0.28080824 0.15042659
v -0.14865042 0.28080824 0.14988168
v -0.14865042 0.28080824 0.14811832
v -0.14697337 0.28080824 0.14757341
v -0.14865042 0.044808241 0.14988168
v -0.14865042 0.28080824 0.14988168
v -0.1459369 0.044808241 0.149
v -0.14697337 0.044808241 0.15042659
v -0.14865042 0.044808241 0.14988168
v -0.14865042 0.044808241 0.14811832
v -0.14697337 0.044808241 0.14757341
f 451 452 455
f 455 452 454
f 454 452 453
f 457 465 456
f 456 465 461
f 456 461 460
f 460 461 462
f 460 462 467
f 457 458 465
f 465 458 464
f 464 458 466
f 464 466 463
f 467 459 460
f 468 469 472
f 472 469 470
f 472 470 471
v -0.13389341 0.28080824 0.149
v -0.1349299 0.28080824 0.14757341
v -0.13660694 0.28080824 0.14811832
v -0.13660694 0.28080824 0.14988168
v -0.1349299 0.28080824 0.15042659
v -0.13389341 0.044808241 0.149
v -0.1349299 0.044808241 0.15042659
v -0.13660694 0.044808241 0.14988168
v -0.13660694 0.044808241 0.14811832
v -0.1349299 0.044808241 0.14757341
v -0.13389341 0.044808241 0.149
v -0.1349299 0.044808241 0.14757341
v -0.13660694 0.044808241 0.14811832
v -0.13660694 0.044808241 0.14988168
v -0.1349299 0.044808241 0.15042659
v -0.13389341 0.28080824 0.149
v -0.1349299 0.28080824 0.15042659
v -0.13660694 0.28080824 0.14988168
v -0.13660694 0.28080824 0.14811832
v -0.1349299 0.28080824 0.14757341
v -0.13660694 0.044808241 0.14988168
v -0.13660694 0.28080824 0.14988168
f 473 474 477
f 477 474 476
f 476 474 475
f 478 479 482
f 482 479 480
f 482 480 481
f 484 492 483
f 483 492 488
f 483 488 487
f 487 488 489
f 487 489 494
f 484 485 492
f 492 485 491
f 491 485 493
f 491 493 490
f 494 486 487
v -0.12184994 0.044808241 0.149
v -0.12288641 0.044808241 0.14757341
v -0.12456347 0.044808241 0.14811832
v -0.12456347 0.044808241 0.14988168
v -0.12288641 0.044808241 0.15042659
v -0.12184994 0.28080824 0.149
v -0.12288641 0.28080824 0.15042659
v -0.12456347 0.28080824 0.14988168
v -0.12456347 0.28080824 0.14811832
v -0.12288641 0.28080824 0.14757341
v -0.12456347 0.044808241 0.14988168
v -0.12456347 0.28080824 0.14988168
v -0.12184994 0.28080824 0.149
v -0.12288641 0.28080824 0.14757341
v -0.12456347 0.28080824 0.14811832
v -0.12456347 0.28080824 0.14988168
v -0.12288641 0.28080824 0.15042659
v -0.12184994 0.044808241 0.149
v -0.12288641 0.044808241 0.15042659
v -0.12456347 0.044808241 0.14988168
v -0.12456347 0.044808241 0.14811832
v -0.12288641 0.044808241 0.14757341
f 496 504 495
f 495 504 500
f 495 500 499
f 499 500 501
f 499 501 506
f 496 497 504
f 504 497 503
f 503 497 505
f 503 505 502
f 506 498 499
f 507 508 511
f 511 508 510
f 510 508 509
f 512 513 516
f 516 513 514
f 516 514 515
v -0.10980646 0.044808241 0.149
v -0.11084293 0.044808241 0.14757341
v -0.11251999 0.044808241 0.14811832
v -0.11251999 0.044808241 0.14988168
v -0.11084293 0.044808241 0.15042659
v -0.10980646 0.28080824 0.149
v -0.11084293 0.28080824 0.15042659
v -0.11251999 0.28080824 0.14988168
v -0.11251999 0.28080824 0.14811832
v -0.11084293 0.28080824 0.14757341
v -0.11251999 0.044808241 0.14988168
v -0.11251999 0.28080824 0.14988168
v -0.10980646 0.044808241 0.149
v -0.11084293 0.044808241 0.15042659
v -0.11251999 0.044808241 0.14988168
v -0.11251999 0.044808241 0.14811832
v -0.11084293 0.044808241 0.14757341
v -0.10980646 0.28080824 0.149
v -0.11084293 0.28080824 0.14757341
v -0.11251999 0.28080824 0.14811832
v -0.11251999 0.28080824 0.14988168
v -0.11084293 0.28080824 0.15042659
f 518 526 517
f 517 526 522
f 517 522 521
f 521 522 523
f 521 523 528
f 518 519 526
f 526 519 525
f 525 519 527
f 525 527 524
f 528 520 521
f 529 530 533
f 533 530 531
f 533 531 532
f 534 535 538
f 538 535 537
f 537 535 536
v -0.097762986 0.28080824 0.149
v -0.098799458 0.28080824 0.14757341
v -0.1004765 0.28080824 0.14811832
v -0.1004765 0.28080824 0.14988168
v -0.098799458 0.28080824 0.15042659
v -0.097762986 0.044808241 0.149
v -0.098799458 0.044808241 0.14757341
v -0.1004765 0.044808241 0.14811832
v -0.1004765 0.044808241 0.14988168
v -0.098799458 0.044808241 0.15042659
v -0.097762986 0.28080824 0.149
v -0.098799458 0.28080824 0.15042659
v -0.1004765 0.28080824 0.14988168
v -0.1004765 0.28080824 0.14811832
v -0.098799458 0.28080824 0.14757341
v -0.1004765 0.044808241 0.14988168
v -0.1004765 0.28080824 0.14988168
v -0.097762986 0.044808241 0.149
v -0.098799458 0.044808241 0.15042659
v -0.1004765 0.044808241 0.14988168
v -0.1004765 0.044808241 0.14811832
v -0.098799458 0.044808241 0.14757341
f 539 540 543
f 543 540 542
f 542 540 541
f 545 553 544
f 544 553 549
f 544 549 548
f 548 549 550
f 548 550 555
f 545 546 553
f 553 546 552
f 552 546 554
f 552 554 551
f 555 547 548
f 556 557 560
f 560 557 558
f 560 558 559
v -0.0857195 0.28080824 0.149
v -0.086755982 0.28080824 0.14757341
v -0.088433028 0.28080824 0.14811832
v -0.088433028 0.28080824 0.14988168
v -0.086755982 0.28080824 0.15042659
v -0.0857195 0.044808241 0.149
v -0.086755982 0.044808241 0.14757341
v -0.088433028 0.044808241 0.14811832
v -0.088433028 0.044808241 0.14988168
v -0.086755982 0.044808241 0.15042659
v -0.0857195 0.28080824 0.149
v -0.086755982 0.28080824 0.15042659
v -0.088433028 0.28080824 0.14988168
v -0.088433028 0.28080824 0.14811832
v -0.086755982 0.28080824 0.14757341
v -0.088433028 0.044808241 0.14988168
v -0.088433028 0.28080824 0.14988168
v -0.0857195 0.044808241 0.149
v -0.086755982 0.044808241 0.15042659
v -0.088433028 0.044808241 0.14988168
v -0.088433028 0.044808241 0.14811832
v -0.086755982 0.044808241 0.14757341
f 561 562 565
f 565 562 564
f 564 562 563
f 567 575 566
f 566 575 571
f 566 571 570
f 570 571 572
f 570 572 577
f 567 568 575
f 575 568 574
f 574 568 576
f 574 576 573
f 577 569 570
f 578 579 582
f 582 579 580
f 582 580 581
v -0.073676024 0.28080824 0.149
v -0.074712497 0.28080824 0.14757341
v -0.076389552 0.28080824 0.14811832
v -0.076389552 0.28080824 0.14988168
v -0.074712497 0.28080824 0.15042659
v -0.073676024 0.044808241 0.149
v -0.074712497 0.044808241 0.14757341
v -0.076389552 0.044808241 0.14811832
v -0.076389552 0.044808241 0.14988168
v -0.074712497 0.044808241 0.15042659
v -0.073676024 0.28080824 0.149
v -0.074712497 0.28080824 0.15042659
v -0.076389552 0.28080824 0.14988168
v -0.076389552 0.28080824 0.14811832
v -0.074712497 0.28080824 0.14757341
v -0.076389552 0.044808241 0.14988168
v -0.076389552 0.28080824 0.14988168
v -0.073676024 0.044808241 0.149
v -0.074712497 0.044808241 0.15042659
v -0.076389552 0.044808241 0.14988168
v -0.076389552 0.044808241 0.14811832
v -0.074712497 0.044808241 0.14757341
f 583 584 587
f 587 584 586
f 586 584 585
f 589 597 588
f 588 597 593
f 588 593 592
f 592 593 594
f 592 594 599
f 589 590 597
f 597 590 596
f 596 590 598
f 596 598 595
f 599 591 592
f 600 601 604
f 604 601 602
f 604 602 603
v -0.061632539 0.28080824 0.149
v -0.06266902 0.28080824 0.14757341
v -0.064346076 0.28080824 0.14811832
v -0.064346076 0.28080824 0.14988168
v -0.06266902 0.28080824 0.15042659
v -0.061632539 0.044808241 0.149
v -0.06266902 0.044808241 0.14757341
v -0.064346076 0.044808241 0.14811832
v -0.064346076 0.044808241 0.14988168
v -0.06266902 0.044808241 0.15042659
v -0.061632539 0.28080824 0.149
v -0.06266902 0.28080824 0.15042659
v -0.064346076 0.28080824 0.14988168
v -0.064346076 0.28080824 0.14811832
v -0.06266902 0.28080824 0.14757341
v -0.064346076 0.044808241 0.14988168
v -0.064346076 0.28080824 0.14988168
v -0.061632539 0.044808241 0.149
v -0.06266902 0.044808241 0.15042659
v -0.064346076 0.044808241 0.14988168
v -0.064346076 0.044808241 0.14811832
v -0.06266902 0.044808241 0.14757341
f 605 606 609
f 609 606 608
f 608 606 607
f 611 619 610
f 610 619 615
f 610 615 614
f 614 615 616
f 614 616 621
f 611 612 619
f 619 612 618
f 618 612 620
f 618 620 617
f 621 613 614
f 622 623 626
f 626 623 624
f 626 624 625
v -0.049589063 0.044808241 0.149
v -0.050625535 0.044808241 0.15042659
v -0.05230259 0.044808241 0.14988168
v -0.05230259 0.044808241 0.14811832
v -0.050625535 0.044808241 0.14757341
v -0.049589063 0.28080824 0.149
v -0.050625535 0.28080824 0.14757341
v -0.05230259 0.28080824 0.14811832
v -0.05230259 0.28080824 0.14988168
v -0.050625535 0.28080824 0.15042659
v -0.049589063 0.044808241 0.149
v -0.050625535 0.044808241 0.14757341
v -0.05230259 0.044808241 0.14811832
v -0.05230259 0.044808241 0.14988168
v -0.050625535 0.044808241 0.15042659
v -0.049589063 0.28080824 0.149
v -0.050625535 0.28080824 0.15042659
v -0.05230259 0.28080824 0.14988168
v -0.05230259 0.28080824 0.14811832
v -0.050625535 0.28080824 0.14757341
v -0.05230259 0.044808241 0.14988168
v -0.05230259 0.28080824 0.14988168
f 627 628 631
f 631 628 629
f 631 629 630
f 632 633 636
f 636 633 635
f 635 633 634
f 638 646 637
f 637 646 642
f 637 642 641
f 641 642 643
f 641 643 648
f 638 639 646
f 646 639 645
f 645 639 647
f 645 647 644
f 648 640 641
v -0.037545586 0.044808241 0.149
v -0.038582059 0.044808241 0.15042659
v -0.040259114 0.044808241 0.14988168
v -0.040259114 0.044808241 0.14811832
v -0.038582059 0.044808241 0.14757341
v -0.037545586 0.28080824 0.149
v -0.038582059 0.28080824 0.14757341
v -0.040259114 0.28080824 0.14811832
v -0.040259114 0.28080824 0.14988168
v -0.038582059 0.28080824 0.15042659
v -0.037545586 0.044808241 0.149
v -0.038582059 0.044808241 0.14757341
v -0.040259114 0.044808241 0.14811832
v -0.040259114 0.044808241 0.14988168
v -0.038582059 0.044808241 0.15042659
v -0.037545586 0.28080824 0.149
v -0.038582059 0.28080824 0.15042659
v -0.040259114 0.28080824 0.14988168
v -0.040259114 0.28080824 0.14811832
v -0.038582059 0.28080824 0.14757341
v -0.040259114 0.044808241 0.14988168
v -0.040259114 0.28080824 0.14988168
f 649 650 653
f 653 650 651
f 653 651 652
f 654 655 658
f 658 655 657
f 657 655 656
f 660 668 659
f 659 668 664
f 659 664 663
f 663 664 665
f 663 665 670
f 660 661 668
f 668 661 667
f 667 661 669
f 667 669 666
f 670 662 663
v -0.02550211 0.044808241 0.149
v -0.026538583 0.044808241 0.14757341
v -0.028215638 0.044808241 0.14811832
v -0.028215638 0.044808241 0.14988168
v -0.026538583 0.044808241 0.15042659
v -0.02550211 0.28080824 0.149
v -0.026538583 0.28080824 0.15042659
v -0.028215638 0.28080824 0.14988168
v -0.028215638 0.28080824 0.14811832
v -0.026538583 0.28080824 0.14757341
v -0.028215638 0.044808241 0.14988168
v -0.028215638 0.28080824 0.14988168
v -0.02550211 0.044808241 0.149
v -0.026538583 0.044808241 0.15042659
v -0.028215638 0.044808241 0.14988168
v -0.028215638 0.044808241 0.14811832
v -0.026538583 0.044808241 0.14757341
v -0.02550211 0.28080824 0.149
v -0.026538583 0.28080824 0.14757341
v -0.028215638 0.28080824 0.14811832
v -0.028215638 0.28080824 0.14988168
v -0.026538583 0.28080824 0.15042659
f 672 680 671
f 671 680 676
f 671 676 675
f 675 676 677
f 675 677 682
f 672 673 680
f 680 673 679
f 679 673 681
f 679 681 678
f 682 674 675
f 683 684 687
f 687 684 685
f 687 685 686
f 688 689 692
f 692 689 691
f 691 689 690
v -0.013458634 0.28080824 0.149
v -0.014495107 0.28080824 0.14757341
v -0.016172162 0.28080824 0.14811832
v -0.016172162 0.28080824 0.14988168
v -0.014495107 0.28080824 0.15042659
v -0.013458634 0.044808241 0.149
v -0.014495107 0.044808241 0.14757341
v -0.016172162 0.044808241 0.14811832
v -0.016172162 0.044808241 0.14988168
v -0.014495107 0.044808241 0.15042659
v -0.013458634 0.28080824 0.149
v -0.014495107 0.28080824 0.15042659
v -0.016172162 0.28080824 0.14988168
v -0.016172162 0.28080824 0.14811832
v -0.014495107 0.28080824 0.14757341
v -0.016172162 0.044808241 0.14988168
v -0.016172162 0.28080824 0.14988168
v -0.013458634 0.044808241 0.149
v -0.014495107 0.044808241 0.15042659
v -0.016172162 0.044808241 0.14988168
v -0.016172162 0.044808241 0.14811832
v -0.014495107 0.044808241 0.14757341
f 693 694 697
f 697 694 696
f 696 694 695
f 699 707 698
f 698 707 703
f 698 703 702
f 702 703 704
f 702 704 709
f 699 700 707
f 707 700 706
f 706 700 708
f 706 708 705
f 709 701 702
f 710 711 714
f 714 711 712
f 714 712 713
v -0.0014151581 0.28080824 0.149
v -0.0024516304 0.28080824 0.14757341
v -0.0041286858 0.28080824 0.14811832
v -0.0041286858 0.28080824 0.14988168
v -0.0024516304 0.28080824 0.15042659
v -0.0014151581 0.044808241 0.149
v -0.0024516304 0.044808241 0.14757341
v -0.0041286858 0.044808241 0.14811832
v -0.0041286858 0.044808241 0.14988168
v -0.0024516304 0.044808241 0.15042659
v -0.0014151581 0.28080824 0.149
v -0.0024516304 0.28080824 0.15042659
v -0.0041286858 0.28080824 0.14988168
v -0.0041286858 0.28080824 0.14811832
v -0.0024516304 0.28080824 0.14757341
v -0.0041286858 0.044808241 0.14988168
v -0.0041286858 0.28080824 0.14988168
v -0.0014151581 0.044808241 0.149
v -0.0024516304 0.044808241 0.15042659
v -0.0041286858 0.044808241 0.14988168
v -0.0041286858 0.044808241 0.14811832
v -0.0024516304 0.044808241 0.14757341
f 715 716 719
f 719 716 718
f 718 716 717
f 721 729 720
f 720 729 725
f 720 725 724
f 724 725 726
f 724 726 731
f 721 722 729
f 729 722 728
f 728 722 730
f 728 730 727
f 731 723 724
f 732 733 736
f 736 733 734
f 736 734 735
v 0.010628318 0.28080824 0.149
v 0.0095918457 0.28080824 0.14757341
v 0.0079147903 0.28080824 0.14811832
v 0.0079147903 0.28080824 0.14988168
v 0.0095918457 0.28080824 0.15042659
v 0.010628318 0.044808241 0.149
v 0.0095918457 0.044808241 0.15042659
v 0.0079147903 0.044808241 0.14988168
v 0.0079147903 0.044808241 0.14811832
v 0.0095918457 0.044808241 0.14757341
v 0.010628318 0.044808241 0.149
v 0.0095918457 0.044808241 0.14757341
v 0.0079147903 0.044808241 0.14811832
v 0.0079147903 0.044808241 0.14988168
v 0.0095918457 0.044808241 0.15042659
v 0.010628318 0.28080824 0.149
v 0.0095918457 0.28080824 0.15042659
v 0.0079147903 0.28080824 0.14988168
v 0.0079147903 0.28080824 0.14811832
v 0.0095918457 0.28080824 0.14757341
v 0.0079147903 0.044808241 0.14988168
v 0.0079147903 0.28080824 0.14988168
f 737 738 741
f 741 738 740
f 740 738 739
f 742 743 746
f 746 743 744
f 746 744 745
f 748 756 747
f 747 756 752
f 747 752 751
f 751 752 753
f 751 753 758
f 748 749 756
f 756 749 755
f 755 749 757
f 755 757 754
f 758 750 751
v 0.022671794 0.28080824 0.149
v 0.021635322 0.28080824 0.14757341
v 0.019958266 0.28080824 0.14811832
v 0.019958266 0.28080824 0.14988168
v 0.021635322 0.28080824 0.15042659
v 0.022671794 0.044808241 0.149
v 0.021635322 0.044808241 0.15042659
v 0.019958266 0.044808241 0.14988168
v 0.019958266 0.044808241 0.14811832
v 0.021635322 0.044808241 0.14757341
v 0.022671794 0.044808241 0.149
v 0.021635322 0.044808241 0.14757341
v 0.019958266 0.044808241 0.14811832
v 0.019958266 0.044808241 0.14988168
v 0.021635322 0.044808241 0.15042659
v 0.022671794 0.28080824 0.149
v 0.021635322 0.28080824 0.15042659
v 0.019958266 0.28080824 0.14988168
v 0.019958266 0.28080824 0.14811832
v 0.021635322 0.28080824 0.14757341
v 0.019958266 0.044808241 0.14988168
v 0.019958266 0.28080824 0.14988168
f 759 760 763
f 763 760 762
f 762 760 761
f 764 765 768
f 768 765 766
f 768 766 767
f 770 778 769
f 769 778 774
f 769 774 773
f 773 774 775
f 773 775 780
f 770 771 778
f 778 771 777
f 777 771 779
f 777 779 776
f 780 772 773
v 0.03471527 0.044808241 0.149
v 0.033678798 0.044808241 0.15042659
v 0.032001762 0.044808241 0.14988168
v 0.032001762 0.044808241 0.14811832
v 0.033678798 0.044808241 0.14757341
v 0.03471527 0.28080824 0.149
v 0.033678798 0.28080824 0.14757341
v 0.032001762 0.28080824 0.14811832
v 0.032001762 0.28080824 0.14988168
v 0.033678798 0.28080824 0.15042659
v 0.03471527 0.044808241 0.149
v 0.033678798 0.044808241 0.14757341
v 0.032001762 0.044808241 0.14811832
v 0.032001762 0.044808241 0.14988168
v 0.033678798 0.044808241 0.15042659
v 0.03471527 0.28080824 0.149
v 0.033678798 0.28080824 0.15042659
v 0.032001762 0.28080824 0.14988168
v 0.032001762 0.28080824 0.14811832
v 0.033678798 0.28080824 0.14757341
v 0.032001762 0.044808241 0.14988168
v 0.032001762 0.28080824 0.14988168
f 781 782 785
f 785 782 783
f 785 783 784
f 786 787 790
f 790 787 789
f 789 787 788
f 792 800 791
f 791 800 796
f 791 796 795
f 795 796 797
f 795 797 802
f 792 793 800
f 800 793 799
f 799 793 801
f 799 801 798
f 802 794 795
v 0.046758765 0.28080824 0.149
v 0.045722274 0.28080824 0.14757341
v 0.044045238 0.28080824 0.14811832
v 0.044045238 0.28080824 0.14988168
v 0.045722274 0.28080824 0.15042659
v 0.046758765 0.044808241 0.149
v 0.045722274 0.044808241 0.15042659
v 0.044045238 0.044808241 0.14988168
v 0.044045238 0.044808241 0.14811832
v 0.045722274 0.044808241 0.14757341
v 0.046758765 0.044808241 0.149
v 0.045722274 0.044808241 0.14757341
v 0.044045238 0.044808241 0.14811832
v 0.044045238 0.044808241 0.14988168
v 0.045722274 0.044808241 0.15042659
v 0.046758765 0.28080824 0.149
v 0.045722274 0.28080824 0.15042659
v 0.044045238 0.28080824 0.14988168
v 0.044045238 0.28080824 0.14811832
v 0.045722274 0.28080824 0.14757341
v 0.044045238 0.044808241 0.14988168
v 0.044045238 0.28080824 0.14988168
f 803 804 807
f 807 804 806
f 806 804 805
f 808 809 812
f 812 809 810
f 812 810 811
f 814 822 813
f 813 822 818
f 813 818 817
f 817 818 819
f 817 819 824
f 814 815 822
f 822 815 821
f 821 815 823
f 821 823 820
f 824 816 817
v 0.058802241 0.28080824 0.149
v 0.057765769 0.28080824 0.14757341
v 0.056088714 0.28080824 0.14811832
v 0.056088714 0.28080824 0.14988168
v 0.057765769 0.28080824 0.15042659
v 0.058802241 0.044808241 0.149
v 0.057765769 0.044808241 0.15042659
v 0.056088714 0.044808241 0.14988168
v 0.056088714 0.044808241 0.14811832
v 0.057765769 0.044808241 0.14757341
v 0.058802241 0.044808241 0.149
v 0.057765769 0.044808241 0.14757341
v 0.056088714 0.044808241 0.14811832
v 0.056088714 0.044808241 0.14988168
v 0.057765769 0.044808241 0.15042659
v 0.058802241 0.28080824 0.149
v 0.057765769 0.28080824 0.15042659
v 0.056088714 0.28080824 0.14988168
v 0.056088714 0.28080824 0.14811832
v 0.057765769 0.28080824 0.14757341
v 0.056088714 0.044808241 0.14988168
v 0.056088714 0.28080824 0.14988168
f 825 826 829
f 829 826 828
f 828 826 827
f 830 831 834
f 834 831 832
f 834 832 833
f 836 844 835
f 835 844 840
f 835 840 839
f 839 840 841
f 839 841 846
f 836 837 844
f 844 837 843
f 843 837 845
f 843 845 842
f 846 838 839
v 0.070845718 0.044808241 0.149
v 0.069809245 0.044808241 0.15042659
v 0.06813219 0.044808241 0.14988168
v 0.06813219 0.044808241 0.14811832
v 0.069809245 0.044808241 0.14757341
v 0.070845718 0.28080824 0.149
v 0.069809245 0.28080824 0.14757341
v 0.06813219 0.28080824 0.14811832
v 0.06813219 0.28080824 0.14988168
v 0.069809245 0.28080824 0.15042659
v 0.070845718 0.044808241 0.149
v 0.069809245 0.044808241 0.14757341
v 0.06813219 0.044808241 0.14811832
v 0.06813219 0.044808241 0.14988168
v 0.069809245 0.044808241 0.15042659
v 0.070845718 0.28080824 0.149
v 0.069809245 0.28080824 0.15042659
v 0.06813219 0.28080824 0.14988168
v 0.06813219 0.28080824 0.14811832
v 0.069809245 0.28080824 0.14757341
v 0.06813219 0.044808241 0.14988168
v 0.06813219 0.28080824 0.14988168
f 847 848 851
f 851 848 849
f 851 849 850
f 852 853 856
f 856 853 855
f 855 853 854
f 858 866 857
f 857 866 862
f 857 862 861
f 861 862 863
f 861 863 868
f 858 859 866
f 866 859 865
f 865 859 867
f 865 867 864
f 868 860 861
v 0.082889194 0.28080824 0.149
v 0.081852721 0.28080824 0.14757341
v 0.080175666 0.28080824 0.14811832
v 0.080175666 0.28080824 0.14988168
v 0.081852721 0.28080824 0.15042659
v 0.082889194 0.044808241 0.149
v 0.081852721 0.044808241 0.14757341
v 0.080175666 0.044808241 0.14811832
v 0.080175666 0.044808241 0.14988168
v 0.081852721 0.044808241 0.15042659
v 0.082889194 0.28080824 0.149
v 0.081852721 0.28080824 0.15042659
v 0.080175666 0.28080824 0.14988168
v 0.080175666 0.28080824 0.14811832
v 0.081852721 0.28080824 0.14757341
v 0.080175666 0.044808241 0.14988168
v 0.080175666 0.28080824 0.14988168
v 0.082889194 0.044808241 0.149
v 0.081852721 0.044808241 0.15042659
v 0.080175666 0.044808241 0.14988168
v 0.080175666 0.044808241 0.14811832
v 0.081852721 0.044808241 0.14757341
f 869 870 873
f 873 870 872
f 872 870 871
f 875 883 874
f 874 883 879
f 874 879 878
f 878 879 880
f 878 880 885
f 875 876 883
f 883 876 882
f 882 876 884
f 882 884 881
f 885 877 878
f 886 887 890
f 890 887 888
f 890 888 889
v 0.09493267 0.044808241 0.149
v 0.093896197 0.044808241 0.15042659
v 0.092219142 0.044808241 0.14988168
v 0.092219142 0.044808241 0.14811832
v 0.093896197 0.044808241 0.14757341
v 0.09493267 0.28080824 0.149
v 0.093896197 0.28080824 0.14757341
v 0.092219142 0.28080824 0.14811832
v 0.092219142 0.28080824 0.14988168
v 0.093896197 0.28080824 0.15042659
v 0.09493267 0.044808241 0.149
v 0.093896197 0.044808241 0.14757341
v 0.092219142 0.044808241 0.14811832
v 0.092219142 0.044808241 0.14988168
v 0.093896197 0.044808241 0.15042659
v 0.09493267 0.28080824 0.149
v 0.093896197 0.28080824 0.15042659
v 0.092219142 0.28080824 0.14988168
v 0.092219142 0.28080824 0.14811832
v 0.093896197 0.28080824 0.14757341
v 0.092219142 0.044808241 0.14988168
v 0.092219142 0.28080824 0.14988168
f 891 892 895
f 895 892 893
f 895 893 894
f 896 897 900
f 900 897 899
f 899 897 898
f 902 910 901
f 901 910 906
f 901 906 905
f 905 906 907
f 905 907 912
f 902 903 910
f 910 903 909
f 909 903 911
f 909 911 908
f 912 904 905
v -0.18876733 0.12280824 0.1445
v -0.18876733 0.12138166 0.14553647
v -0.18876733 0.12192657 0.14721353
v -0.18876733 0.12368992 0.14721353
v -0.18876733 0.12423482 0.14553647
v 0.099232673 0.12280824 0.1445
v 0.099232673 0.12423482 0.14553647
v 0.099232673 0.12368992 0.14721353
v 0.099232673 0.12192657 0.14721353
v 0.099232673 0.12138166 0.14553647
v -0.18876733 0.12280824 0.1445
v -0.18876733 0.12423482 0.14553647
v -0.18876733 0.12368992 0.14721353
v -0.18876733 0.12192657 0.14721353
v -0.18876733 0.12138166 0.14553647
v 0.099232673 0.12280824 0.1445
v 0.099232673 0.12138166 0.14553647
v 0.099232673 0.12192657 0.14721353
v 0.099232673 0.12368992 0.14721353
v 0.099232673 0.12423482 0.14553647
v -0.18876733 0.12192657 0.14721353
v 0.099232673 0.12192657 0.14721353
f 913 914 917
f 917 914 915
f 917 915 916
f 918 919 922
f 922 919 921
f 921 919 920
f 924 932 923
f 923 932 928
f 923 928 927
f 927 928 929
f 927 929 934
f 924 925 932
f 932 925 931
f 931 925 933
f 931 933 930
f 934 926 927
v -0.18876733 0.20180825 0.1445
v -0.18876733 0.20038166 0.14553647
v -0.18876733 0.20092655 0.14721353
v -0.18876733 0.20268992 0.14721353
v -0.18876733 0.20323483 0.14553647
v 0.099232673 0.20180825 0.1445
v 0.099232673 0.20323483 0.14553647
v 0.099232673 0.20268992 0.14721353
v 0.099232673 0.20092655 0.14721353
v 0.099232673 0.20038166 0.14553647
v -0.18876733 0.20180825 0.1445
v -0.18876733 0.20323483 0.14553647
v -0.18876733 0.20268992 0.14721353
v -0.18876733 0.20092655 0.14721353
v -0.18876733 0.20038166 0.14553647
v 0.099232673 0.20180825 0.1445
v 0.099232673 0.20038166 0.14553647
v 0.099232673 0.20092655 0.14721353
v 0.099232673 0.20268992 0.14721353
v 0.099232673 0.20323483 0.14553647
v -0.18876733 0.20092655 0.14721353
v 0.099232673 0.20092655 0.14721353
f 935 936 939
f 939 936 937
f 939 937 938
f 940 941 944
f 944 941 943
f 943 941 942
f 946 954 945
f 945 954 950
f 945 950 949
f 949 950 951
f 949 951 956
f 946 947 954
f 954 947 953
f 953 947 955
f 953 955 952
f 956 948 949
