v -0.00069459162 0.0039392235 0.1965
v -0.0021491955 0.0033735512 0.1965
v -0.0032766069 0.0022943013 0.1965
v -0.0039051848 0.0008657635 0.1965
v -0.0039392337 -0.00069457768 0.1965
v -0.0033735635 -0.002149211 0.1965
v -0.0022943047 -0.0032766111 0.1965
v -0.00086575934 -0.0039051768 0.1965
v 0.00069459248 -0.0039392311 0.1965
v 0.0021491975 -0.0033735586 0.1965
v 0.0032766089 -0.0022943087 0.1965
v 0.0039051857 -0.0008657711 0.1965
v 0.0039392279 0.00069460765 0.1965
v 0.0033735643 0.0021492034 0.1965
v 0.0022943067 0.0032766037 0.1965
v 0.00086576137 0.0039051694 0.1965
v -0.00069459162 0.0039392235 0.1785
v 0.00086576137 0.0039051694 0.1785
v 0.0022943067 0.0032766037 0.1785
v 0.0033735643 0.0021492034 0.1785
v 0.0039392279 0.00069460765 0.1785
v 0.0039051857 -0.0008657711 0.1785
v 0.0032766089 -0.0022943087 0.1785
v 0.0021491975 -0.0033735586 0.1785
v 0.00069459248 -0.0039392311 0.1785
v -0.00086575934 -0.0039051768 0.1785
v -0.0022943047 -0.0032766111 0.1785
v -0.0033735635 -0.002149211 0.1785
v -0.0039392337 -0.00069457768 0.1785
v -0.0039051848 0.0008657635 0.1785
v -0.0032766069 0.0022943013 0.1785
v -0.0021491955 0.0033735512 0.1785
v -0.00069459162 0.0039392235 0.1785
v -0.0021491955 0.0033735512 0.1785
v -0.0032766069 0.0022943013 0.1785
v -0.0039051848 0.0008657635 0.1785
v -0.0039392337 -0.00069457768 0.1785
v -0.0033735635 -0.002149211 0.1785
v -0.0022943047 -0.0032766111 0.1785
v -0.00086575934 -0.0039051768 0.1785
v 0.00069459248 -0.0039392311 0.1785
v 0.0021491975 -0.0033735586 0.1785
v 0.0032766089 -0.0022943087 0.1785
v 0.0039051857 -0.0008657711 0.1785
v 0.0039392279 0.00069460765 0.1785
v 0.0033735643 0.0021492034 0.1785
v 0.0022943067 0.0032766037 0.1785
v 0.00086576137 0.0039051694 0.1785
v -0.00069459162 0.0039392235 0.1965
v 0.00086576137 0.0039051694 0.1965
v 0.0022943067 0.0032766037 0.1965
v 0.0033735643 0.0021492034 0.1965
v 0.0039392279 0.00069460765 0.1965
v 0.0039051857 -0.0008657711 0.1965
v 0.0032766089 -0.0022943087 0.1965
v 0.0021491975 -0.0033735586 0.1965
v 0.00069459248 -0.0039392311 0.1965
v -0.00086575934 -0.0039051768 0.1965
v -0.0022943047 -0.0032766111 0.1965
v -0.0033735635 -0.002149211 0.1965
v -0.0039392337 -0.00069457768 0.1965
v -0.0039051848 0.0008657635 0.1965
v -0.0032766069 0.0022943013 0.1965
v -0.0021491955 0.0033735512 0.1965
v 0.00069459248 -0.0039392311 0.1785
v 0.00069459248 -0.0039392311 0.1965
f 2 8 1
f 1 8 9
f 1 9 16
f 16 9 10
f 16 10 15
f 15 10 11
f 15 11 14
f 14 11 12
f 14 12 13
f 8 2 7
f 7 2 3
f 7 3 6
f 6 3 4
f 6 4 5
f 18 24 17
f 17 24 25
f 17 25 32
f 32 25 26
f 32 26 31
f 31 26 27
f 31 27 30
f 30 27 28
f 30 28 29
f 24 18 23
f 23 18 19
f 23 19 22
f 22 19 20
f 22 20 21
f 34 49 33
f 33 49 50
f 33 50 48
f 48 50 51
f 48 51 47
f 47 51 52
f 47 52 46
f 46 52 53
f 46 53 45
f 45 53 54
f 45 54 44
f 44 54 55
f 44 55 43
f 43 55 56
f 43 56 42
f 42 56 41
f 41 56 66
f 65 57 40
f 40 57 58
f 40 58 59
f 49 34 64
f 64 34 35
f 64 35 63
f 63 35 36
f 63 36 62
f 62 36 37
f 62 37 61
f 61 37 38
f 61 38 60
f 60 38 39
f 60 39 59
f 59 39 40
v -0.0002778397 0.0015757059 0.211
v -0.0014051565 0.00076521928 0.211
v -0.0014743594 -0.00062151056 0.211
v -0.0004333436 -0.0015402074 0.211
v 0.00093399126 -0.0012991093 0.211
v 0.0015980133 -7.9768338e-05 0.211
v 0.0010586955 0.0011996629 0.211
v -0.0002778397 0.0015757059 0.164
v 0.0010586955 0.0011996629 0.164
v 0.0015980133 -7.9768338e-05 0.164
v 0.00093399126 -0.0012991093 0.164
v -0.0004333436 -0.0015402074 0.164
v -0.0014743594 -0.00062151056 0.164
v -0.0014051565 0.00076521928 0.164
v -0.0002778397 0.0015757059 0.164
v -0.0014051565 0.00076521928 0.164
v -0.0014743594 -0.00062151056 0.164
v -0.0004333436 -0.0015402074 0.164
v 0.00093399126 -0.0012991093 0.164
v 0.0015980133 -7.9768338e-05 0.164
v 0.0010586955 0.0011996629 0.164
v -0.0002778397 0.0015757059 0.211
v 0.0010586955 0.0011996629 0.211
v 0.0015980133 -7.9768338e-05 0.211
v 0.00093399126 -0.0012991093 0.211
v -0.0004333436 -0.0015402074 0.211
v -0.0014743594 -0.00062151056 0.211
v -0.0014051565 0.00076521928 0.211
v 0.00093399126 -0.0012991093 0.164
v 0.00093399126 -0.0012991093 0.211
f 67 68 73
f 73 68 69
f 73 69 72
f 72 69 70
f 72 70 71
f 74 75 80
f 80 75 79
f 79 75 76
f 79 76 78
f 78 76 77
f 82 88 81
f 81 88 89
f 81 89 87
f 87 89 90
f 87 90 86
f 86 90 96
f 86 96 85
f 95 91 92
f 95 92 84
f 84 92 93
f 84 93 83
f 83 93 94
f 83 94 82
f 82 94 88
v -0.00069459162 0.0039392235 0.37049999
v -0.0021491955 0.0033735512 0.37049999
v -0.0032766069 0.0022943013 0.37049999
v -0.0039051848 0.0008657635 0.37049999
v -0.0039392337 -0.00069457768 0.37049999
v -0.0033735635 -0.002149211 0.37049999
v -0.0022943047 -0.0032766111 0.37049999
v -0.00086575934 -0.0039051768 0.37049999
v 0.00069459248 -0.0039392311 0.37049999
v 0.0021491975 -0.0033735586 0.37049999
v 0.0032766089 -0.0022943087 0.37049999
v 0.0039051857 -0.0008657711 0.37049999
v 0.0039392279 0.00069460765 0.37049999
v 0.0033735643 0.0021492034 0.37049999
v 0.0022943067 0.0032766037 0.37049999
v 0.00086576137 0.0039051694 0.37049999
v -0.00069459162 0.0039392235 0.38849998
v 0.00086576137 0.0039051694 0.38849998
v 0.0022943067 0.0032766037 0.38849998
v 0.0033735643 0.0021492034 0.38849998
v 0.0039392279 0.00069460765 0.38849998
v 0.0039051857 -0.0008657711 0.38849998
v 0.0032766089 -0.0022943087 0.38849998
v 0.0021491975 -0.0033735586 0.38849998
v 0.00069459248 -0.0039392311 0.38849998
v -0.00086575934 -0.0039051768 0.38849998
v -0.0022943047 -0.0032766111 0.38849998
v -0.0033735635 -0.002149211 0.38849998
v -0.0039392337 -0.00069457768 0.38849998
v -0.0039051848 0.0008657635 0.38849998
v -0.0032766069 0.0022943013 0.38849998
v -0.0021491955 0.0033735512 0.38849998
v 0.00069459248 -0.0039392311 0.37049999
v 0.00069459248 -0.0039392311 0.38849998
v -0.00069459162 0.0039392235 0.38849998
v -0.0021491955 0.0033735512 0.38849998
v -0.0032766069 0.0022943013 0.38849998
v -0.0039051848 0.0008657635 0.38849998
v -0.0039392337 -0.00069457768 0.38849998
v -0.0033735635 -0.002149211 0.38849998
v -0.0022943047 -0.0032766111 0.38849998
v -0.00086575934 -0.0039051768 0.38849998
v 0.00069459248 -0.0039392311 0.38849998
v 0.0021491975 -0.0033735586 0.38849998
v 0.0032766089 -0.0022943087 0.38849998
v 0.0039051857 -0.0008657711 0.38849998
v 0.0039392279 0.00069460765 0.38849998
v 0.0033735643 0.0021492034 0.38849998
v 0.0022943067 0.0032766037 0.38849998
v 0.00086576137 0.0039051694 0.38849998
v -0.00069459162 0.0039392235 0.37049999
v 0.00086576137 0.0039051694 0.37049999
v 0.0022943067 0.0032766037 0.37049999
v 0.0033735643 0.0021492034 0.37049999
v 0.0039392279 0.00069460765 0.37049999
v 0.0039051857 -0.0008657711 0.37049999
v 0.0032766089 -0.0022943087 0.37049999
v 0.0021491975 -0.0033735586 0.37049999
v 0.00069459248 -0.0039392311 0.37049999
v -0.00086575934 -0.0039051768 0.37049999
v -0.0022943047 -0.0032766111 0.37049999
v -0.0033735635 -0.002149211 0.37049999
v -0.0039392337 -0.00069457768 0.37049999
v -0.0039051848 0.0008657635 0.37049999
v -0.0032766069 0.0022943013 0.37049999
v -0.0021491955 0.0033735512 0.37049999
f 98 113 97
f 97 113 114
f 97 114 112
f 112 114 115
f 112 115 111
f 111 115 116
f 111 116 110
f 110 116 117
f 110 117 109
f 109 117 118
f 109 118 108
f 108 118 119
f 108 119 107
f 107 119 120
f 107 120 106
f 106 120 105
f 105 120 130
f 129 121 104
f 104 121 122
f 104 122 123
f 113 98 128
f 128 98 99
f 128 99 127
f 127 99 100
f 127 100 126
f 126 100 101
f 126 101 125
f 125 101 102
f 125 102 124
f 124 102 103
f 124 103 123
f 123 103 104
f 132 138 131
f 131 138 139
f 131 139 146
f 146 139 140
f 146 140 145
f 145 140 141
f 145 141 144
f 144 141 142
f 144 142 143
f 138 132 137
f 137 132 133
f 137 133 136
f 136 133 134
f 136 134 135
f 148 154 147
f 147 154 155
f 147 155 162
f 162 155 156
f 162 156 161
f 161 156 157
f 161 157 160
f 160 157 158
f 160 158 159
f 154 148 153
f 153 148 149
f 153 149 152
f 152 149 150
f 152 150 151
v -0.0002778397 0.0015757059 0.35599998
v 0.0010586955 0.0011996629 0.35599998
v 0.0015980133 -7.9768338e-05 0.35599998
v 0.00093399126 -0.0012991093 0.35599998
v -0.0004333436 -0.0015402074 0.35599998
v -0.0014743594 -0.00062151056 0.35599998
v -0.0014051565 0.00076521928 0.35599998
v -0.0002778397 0.0015757059 0.40299999
v -0.0014051565 0.00076521928 0.40299999
v -0.0014743594 -0.00062151056 0.40299999
v -0.0004333436 -0.0015402074 0.40299999
v 0.00093399126 -0.0012991093 0.40299999
v 0.0015980133 -7.9768338e-05 0.40299999
v 0.0010586955 0.0011996629 0.40299999
v -0.0002778397 0.0015757059 0.35599998
v -0.0014051565 0.00076521928 0.35599998
v -0.0014743594 -0.00062151056 0.35599998
v -0.0004333436 -0.0015402074 0.35599998
v 0.00093399126 -0.0012991093 0.35599998
v 0.0015980133 -7.9768338e-05 0.35599998
v 0.0010586955 0.0011996629 0.35599998
v -0.0002778397 0.0015757059 0.40299999
v 0.0010586955 0.0011996629 0.40299999
v 0.0015980133 -7.9768338e-05 0.40299999
v 0.00093399126 -0.0012991093 0.40299999
v -0.0004333436 -0.0015402074 0.40299999
v -0.0014743594 -0.00062151056 0.40299999
v -0.0014051565 0.00076521928 0.40299999
v 0.00093399126 -0.0012991093 0.35599998
v 0.00093399126 -0.0012991093 0.40299999
f 163 164 169
f 169 164 168
f 168 164 165
f 168 165 167
f 167 165 166
f 170 171 176
f 176 171 172
f 176 172 175
f 175 172 173
f 175 173 174
f 178 184 177
f 177 184 185
f 177 185 183
f 183 185 186
f 183 186 182
f 182 186 192
f 182 192 181
f 191 187 188
f 191 188 180
f 180 188 189
f 180 189 179
f 179 189 190
f 179 190 178
f 178 190 184
