v 0.034 0 -0.033999992
v 0.034 0 -0.246
v 0.034 -0.012999992 -0.246
v 0.034 -0.012999992 -0.033999992
v 0.209 0 0.32200003
v 0.034 0 0.32200003
v 0.034 -0.012999992 0.32200003
v 0.209 -0.012999992 0.32200003
v 0.28699999 0 0.244
v 0.28106261 0 0.27384932
v 0.26415432 0 0.29915434
v 0.2388493 0 0.31606261
v 0.209 0 0.32200003
v 0.209 -0.012999992 0.32200003
v 0.2388493 -0.012999992 0.31606261
v 0.26415432 -0.012999992 0.29915434
v 0.28106261 -0.012999992 0.27384932
v 0.28699999 -0.012999992 0.244
v 0.034 0 -0.246
v 0.28699999 0 -0.246
v 0.28699999 -0.012999992 -0.246
v 0.034 -0.012999992 -0.246
v 0.28699999 0 -0.246
v 0.28699999 0 0.244
v 0.28699999 -0.012999992 0.244
v 0.28699999 -0.012999992 -0.246
v -9.5367436e-10 0 -1.5258789e-08
v 0.034 0 -0.033999992
v 0.034 -0.012999992 -0.033999992
v -9.5367436e-10 -0.012999992 -1.5258789e-08
v 0.034 -0.012999992 -0.033999992
v 0.034 -0.012999992 -0.246
v 0.28699999 -0.012999992 -0.246
v 0.28699999 -0.012999992 0.244
v 0.28106261 -0.012999992 0.27384932
v 0.26415432 -0.012999992 0.29915434
v 0.2388493 -0.012999992 0.31606261
v 0.209 -0.012999992 0.32200003
v 0.034 -0.012999992 0.32200003
v 0.034 -0.012999992 0.14199999
v -9.5367436e-10 -0.012999992 0.10800002
v -9.5367436e-10 -0.012999992 -1.5258789e-08
v -9.5367436e-10 0 0.10800002
v -9.5367436e-10 0 -1.5258789e-08
v -9.5367436e-10 -0.012999992 -1.5258789e-08
v -9.5367436e-10 -0.012999992 0.10800002
v 0.034 0 -0.246
v 0.034 0 -0.033999992
v -9.5367436e-10 0 -1.5258789e-08
v -9.5367436e-10 0 0.10800002
v 0.034 0 0.14199999
v 0.034 0 0.32200003
v 0.209 0 0.32200003
v 0.2388493 0 0.31606261
v 0.26415432 0 0.29915434
v 0.28106261 0 0.27384932
v 0.28699999 0 0.244
v 0.28699999 0 -0.246
v 0.034 0 0.32200003
v 0.034 0 0.14199999
v 0.034 -0.012999992 0.14199999
v 0.034 -0.012999992 0.32200003
v 0.034 0 0.14199999
v -9.5367436e-10 0 0.10800002
v -9.5367436e-10 -0.012999992 0.10800002
v 0.034 -0.012999992 0.14199999
f 1 2 4
f 4 2 3
f 5 6 8
f 8 6 7
f 18 9 17
f 17 9 10
f 17 10 16
f 16 10 11
f 16 11 15
f 15 11 12
f 15 12 14
f 14 12 13
f 19 20 22
f 22 20 21
f 23 24 26
f 26 24 25
f 27 28 30
f 30 28 29
f 32 33 31
f 31 33 34
f 31 34 38
f 38 34 37
f 37 34 36
f 36 34 35
f 39 40 38
f 38 40 31
f 41 42 40
f 40 42 31
f 43 44 46
f 46 44 45
f 47 48 58
f 58 48 57
f 57 48 53
f 57 53 54
f 53 48 51
f 51 48 49
f 51 49 50
f 51 52 53
f 54 55 57
f 57 55 56
f 59 60 62
f 62 60 61
f 63 64 66
f 66 64 65
