v -0.020767327 0.032808241 0.056999998
v -0.021739503 0.032808241 0.063761582
v -0.024577237 0.032808241 0.069975381
v -0.029050675 0.032808241 0.075137992
v -0.034797364 0.032808241 0.078831167
v -0.041351777 0.032808241 0.080755711
v -0.048182889 0.032808241 0.080755711
v -0.054737283 0.032808241 0.078831167
v -0.060483991 0.032808241 0.075137992
v -0.064957419 0.032808241 0.069975381
v -0.067795163 0.032808241 0.063761582
v -0.068767329 0.032808241 0.056999998
v -0.067795163 0.032808241 0.050238419
v -0.064957419 0.032808241 0.04402462
v -0.060483991 0.032808241 0.038862009
v -0.054737283 0.032808241 0.035168831
v -0.048182889 0.032808241 0.033244286
v -0.041351777 0.032808241 0.033244286
v -0.034797364 0.032808241 0.035168831
v -0.029050675 0.032808241 0.038862009
v -0.024577237 0.032808241 0.04402462
v -0.021739503 0.032808241 0.050238419
v -0.020767327 0.022808242 0.056999998
v -0.021739503 0.022808242 0.050238419
v -0.024577237 0.022808242 0.04402462
v -0.029050675 0.022808242 0.038862009
v -0.034797364 0.022808242 0.035168831
v -0.041351777 0.022808242 0.033244286
v -0.048182889 0.022808242 0.033244286
v -0.054737283 0.022808242 0.035168831
v -0.060483991 0.022808242 0.038862009
v -0.064957419 0.022808242 0.04402462
v -0.067795163 0.022808242 0.050238419
v -0.068767329 0.022808242 0.056999998
v -0.067795163 0.022808242 0.063761582
v -0.064957419 0.022808242 0.069975381
v -0.060483991 0.022808242 0.075137992
v -0.054737283 0.022808242 0.078831167
v -0.048182889 0.022808242 0.080755711
v -0.041351777 0.022808242 0.080755711
v -0.034797364 0.022808242 0.078831167
v -0.029050675 0.022808242 0.075137992
v -0.024577237 0.022808242 0.069975381
v -0.021739503 0.022808242 0.063761582
v -0.068767329 0.032808241 0.056999998
v -0.068767329 0.022808242 0.056999998
v -0.020767327 0.032808241 0.056999998
v -0.021739503 0.032808241 0.050238419
v -0.024577237 0.032808241 0.04402462
v -0.029050675 0.032808241 0.038862009
v -0.034797364 0.032808241 0.035168831
v -0.041351777 0.032808241 0.033244286
v -0.048182889 0.032808241 0.033244286
v -0.054737283 0.032808241 0.035168831
v -0.060483991 0.032808241 0.038862009
v -0.064957419 0.032808241 0.04402462
v -0.067795163 0.032808241 0.050238419
v -0.068767329 0.032808241 0.056999998
v -0.067795163 0.032808241 0.063761582
v -0.064957419 0.032808241 0.069975381
v -0.060483991 0.032808241 0.075137992
v -0.054737283 0.032808241 0.078831167
v -0.048182889 0.032808241 0.080755711
v -0.041351777 0.032808241 0.080755711
v -0.034797364 0.032808241 0.078831167
v -0.029050675 0.032808241 0.075137992
v -0.024577237 0.032808241 0.069975381
v -0.021739503 0.032808241 0.063761582
v -0.020767327 0.022808242 0.056999998
v -0.021739503 0.022808242 0.063761582
v -0.024577237 0.022808242 0.069975381
v -0.029050675 0.022808242 0.075137992
v -0.034797364 0.022808242 0.078831167
v -0.041351777 0.022808242 0.080755711
v -0.048182889 0.022808242 0.080755711
v -0.054737283 0.022808242 0.078831167
v -0.060483991 0.022808242 0.075137992
v -0.064957419 0.022808242 0.069975381
v -0.067795163 0.022808242 0.063761582
v -0.068767329 0.022808242 0.056999998
v -0.067795163 0.022808242 0.050238419
v -0.064957419 0.022808242 0.04402462
v -0.060483991 0.022808242 0.038862009
v -0.054737283 0.022808242 0.035168831
v -0.048182889 0.022808242 0.033244286
v -0.041351777 0.022808242 0.033244286
v -0.034797364 0.022808242 0.035168831
v -0.029050675 0.022808242 0.038862009
v -0.024577237 0.022808242 0.04402462
v -0.021739503 0.022808242 0.050238419
f 2 23 1
f 1 23 24
f 1 24 22
f 22 24 25
f 22 25 21
f 21 25 26
f 21 26 20
f 20 26 27
f 20 27 19
f 19 27 28
f 19 28 18
f 18 28 29
f 18 29 17
f 17 29 30
f 17 30 16
f 16 30 31
f 16 31 15
f 15 31 32
f 15 32 14
f 14 32 33
f 14 33 13
f 13 33 12
f 12 33 46
f 45 34 11
f 11 34 35
f 11 35 36
f 23 2 44
f 44 2 3
f 44 3 43
f 43 3 4
f 43 4 42
f 42 4 5
f 42 5 41
f 41 5 6
f 41 6 40
f 40 6 7
f 40 7 39
f 39 7 8
f 39 8 38
f 38 8 9
f 38 9 37
f 37 9 10
f 37 10 36
f 36 10 11
f 48 57 47
f 47 57 58
f 47 58 68
f 68 58 59
f 68 59 67
f 67 59 60
f 67 60 66
f 66 60 61
f 66 61 65
f 65 61 62
f 65 62 64
f 64 62 63
f 57 48 56
f 56 48 49
f 56 49 55
f 55 49 50
f 55 50 54
f 54 50 51
f 54 51 53
f 53 51 52
f 70 79 69
f 69 79 80
f 69 80 90
f 90 80 81
f 90 81 89
f 89 81 82
f 89 82 88
f 88 82 83
f 88 83 87
f 87 83 84
f 87 84 86
f 86 84 85
f 79 70 78
f 78 70 71
f 78 71 77
f 77 71 72
f 77 72 76
f 76 72 73
f 76 73 75
f 75 73 74
v -0.043767339 0.0080082415 0.070999999
v -0.043767339 0.0088082408 0.070999999
v -0.045767327 0.0088082408 0.070999999
v -0.045767327 0.0080082415 0.070999999
v -0.043767339 0.0088082408 0.070999999
v -0.043767339 0.0088082408 0.060999999
v -0.045767327 0.0088082408 0.060999999
v -0.045767327 0.0088082408 0.070999999
v -0.043767339 0.0088082408 0.060999999
v -0.043767339 0.0080082415 0.060999999
v -0.045767327 0.0080082415 0.060999999
v -0.045767327 0.0088082408 0.060999999
v -0.045767327 0.0088082408 0.070999999
v -0.045767327 0.0088082408 0.060999999
v -0.045767327 0.0080082415 0.060999999
v -0.045767327 0.0080082415 0.070999999
v -0.045767327 0.0080082415 0.070999999
v -0.045767327 0.0080082415 0.060999999
v -0.043767339 0.0080082415 0.060999999
v -0.043767339 0.0080082415 0.070999999
v -0.043767339 0.0080082415 0.070999999
v -0.043767339 0.0080082415 0.060999999
v -0.043767339 0.0088082408 0.060999999
v -0.043767339 0.0088082408 0.070999999
f 92 93 91
f 91 93 94
f 95 96 98
f 98 96 97
f 100 101 99
f 99 101 102
f 103 104 106
f 106 104 105
f 107 108 110
f 110 108 109
f 111 112 114
f 114 112 113
v -0.13156733 0.031808241 0.070999999
v -0.13156733 0.038808241 0.070999999
v -0.15056733 0.038808241 0.070999999
v -0.15056733 0.031808241 0.070999999
v -0.15056733 0.031808241 0.070999999
v -0.15056733 0.031808241 0.043000002
v -0.13156733 0.031808241 0.043000002
v -0.13156733 0.031808241 0.070999999
v -0.13156733 0.038808241 0.043000002
v -0.13156733 0.031808241 0.043000002
v -0.15056733 0.031808241 0.043000002
v -0.15056733 0.038808241 0.043000002
v -0.15056733 0.038808241 0.070999999
v -0.15056733 0.038808241 0.043000002
v -0.15056733 0.031808241 0.043000002
v -0.15056733 0.031808241 0.070999999
v -0.13156733 0.031808241 0.070999999
v -0.13156733 0.031808241 0.043000002
v -0.13156733 0.038808241 0.043000002
v -0.13156733 0.038808241 0.070999999
v -0.13156733 0.038808241 0.070999999
v -0.13156733 0.038808241 0.043000002
v -0.15056733 0.038808241 0.043000002
v -0.15056733 0.038808241 0.070999999
f 116 117 115
f 115 117 118
f 119 120 122
f 122 120 121
f 124 125 123
f 123 125 126
f 127 128 130
f 130 128 129
f 131 132 134
f 134 132 133
f 135 136 138
f 138 136 137
v -0.18916733 0.043808241 0.148
v -0.18916733 0.28380823 0.148
v -0.19716733 0.28380823 0.148
v -0.19716733 0.043808241 0.148
v -0.19716733 0.28380823 0.148
v -0.19716733 0.28380823 0.145
v -0.19716733 0.043808241 0.145
v -0.19716733 0.043808241 0.148
v -0.18916733 0.28380823 0.148
v -0.18916733 0.28380823 0.145
v -0.19716733 0.28380823 0.145
v -0.19716733 0.28380823 0.148
v -0.18916733 0.28380823 0.145
v -0.18916733 0.043808241 0.145
v -0.19716733 0.043808241 0.145
v -0.19716733 0.28380823 0.145
v -0.19716733 0.043808241 0.148
v -0.19716733 0.043808241 0.145
v -0.18916733 0.043808241 0.145
v -0.18916733 0.043808241 0.148
v -0.18916733 0.043808241 0.148
v -0.18916733 0.043808241 0.145
v -0.18916733 0.28380823 0.145
v -0.18916733 0.28380823 0.148
f 140 141 139
f 139 141 142
f 143 144 146
f 146 144 145
f 147 148 150
f 150 148 149
f 152 153 151
f 151 153 154
f 155 156 158
f 158 156 157
f 159 160 162
f 162 160 161
v 0.10763267 0.043808241 0.148
v 0.10763267 0.28380823 0.148
v 0.099632682 0.28380823 0.148
v 0.099632682 0.043808241 0.148
v 0.099632682 0.043808241 0.148
v 0.099632682 0.043808241 0.145
v 0.10763267 0.043808241 0.145
v 0.10763267 0.043808241 0.148
v 0.099632682 0.28380823 0.148
v 0.099632682 0.28380823 0.145
v 0.099632682 0.043808241 0.145
v 0.099632682 0.043808241 0.148
v 0.10763267 0.28380823 0.145
v 0.10763267 0.043808241 0.145
v 0.099632682 0.043808241 0.145
v 0.099632682 0.28380823 0.145
v 0.10763267 0.28380823 0.148
v 0.10763267 0.28380823 0.145
v 0.099632682 0.28380823 0.145
v 0.099632682 0.28380823 0.148
v 0.10763267 0.043808241 0.148
v 0.10763267 0.043808241 0.145
v 0.10763267 0.28380823 0.145
v 0.10763267 0.28380823 0.148
f 164 165 163
f 163 165 166
f 167 168 170
f 170 168 169
f 171 172 174
f 174 172 173
f 176 177 175
f 175 177 178
f 179 180 182
f 182 180 181
f 183 184 186
f 186 184 185
v 0.13303268 0.028808241 0.21
v 0.13303268 0.038808241 0.21
v 0.11943268 0.038808241 0.21
v 0.11943268 0.028808241 0.21
v 0.13303268 0.028808241 0.21
v 0.13303268 0.028808241 0.165
v 0.13303268 0.038808241 0.165
v 0.13303268 0.038808241 0.21
v 0.11943268 0.028808241 0.21
v 0.11943268 0.028808241 0.165
v 0.13303268 0.028808241 0.165
v 0.13303268 0.028808241 0.21
v 0.11943268 0.038808241 0.21
v 0.11943268 0.038808241 0.165
v 0.11943268 0.028808241 0.165
v 0.11943268 0.028808241 0.21
v 0.13303268 0.038808241 0.165
v 0.13303268 0.028808241 0.165
v 0.11943268 0.028808241 0.165
v 0.11943268 0.038808241 0.165
v 0.13303268 0.038808241 0.21
v 0.13303268 0.038808241 0.165
v 0.11943268 0.038808241 0.165
v 0.11943268 0.038808241 0.21
f 188 189 187
f 187 189 190
f 191 192 194
f 194 192 193
f 195 196 198
f 198 196 197
f 199 200 202
f 202 200 201
f 204 205 203
f 203 205 206
f 207 208 210
f 210 208 209
v 0.13303268 0.028808241 0.40200001
v 0.13303268 0.038808241 0.40200001
v 0.11943268 0.038808241 0.40200001
v 0.11943268 0.028808241 0.40200001
v 0.13303268 0.038808241 0.35700001
v 0.13303268 0.028808241 0.35700001
v 0.11943268 0.028808241 0.35700001
v 0.11943268 0.038808241 0.35700001
v 0.13303268 0.028808241 0.40200001
v 0.13303268 0.028808241 0.35700001
v 0.13303268 0.038808241 0.35700001
v 0.13303268 0.038808241 0.40200001
v 0.13303268 0.038808241 0.40200001
v 0.13303268 0.038808241 0.35700001
v 0.11943268 0.038808241 0.35700001
v 0.11943268 0.038808241 0.40200001
v 0.11943268 0.038808241 0.40200001
v 0.11943268 0.038808241 0.35700001
v 0.11943268 0.028808241 0.35700001
v 0.11943268 0.028808241 0.40200001
v 0.11943268 0.028808241 0.40200001
v 0.11943268 0.028808241 0.35700001
v 0.13303268 0.028808241 0.35700001
v 0.13303268 0.028808241 0.40200001
f 212 213 211
f 211 213 214
f 216 217 215
f 215 217 218
f 219 220 222
f 222 220 221
f 223 224 226
f 226 224 225
f 227 228 230
f 230 228 229
f 231 232 234
f 234 232 233
v 0.12392145 -0.0046987872 0.3927
v 0.12244424 -0.0049592595 0.3927
v 0.17502491 -0.30315903 0.3927
v 0.17650212 -0.30289856 0.3927
v 0.17502491 -0.30315903 0.3927
v 0.17502491 -0.30315903 0.1407
v 0.17650212 -0.30289856 0.1407
v 0.17650212 -0.30289856 0.3927
v 0.12244424 -0.0049592595 0.3927
v 0.12244424 -0.0049592595 0.1407
v 0.17502491 -0.30315903 0.1407
v 0.17502491 -0.30315903 0.3927
v 0.12392145 -0.0046987872 0.3927
v 0.12392145 -0.0046987872 0.1407
v 0.12244424 -0.0049592595 0.1407
v 0.12244424 -0.0049592595 0.3927
v 0.17650212 -0.30289856 0.3927
v 0.17650212 -0.30289856 0.1407
v 0.12392145 -0.0046987872 0.1407
v 0.12392145 -0.0046987872 0.3927
v 0.12244424 -0.0049592595 0.1407
v 0.12392145 -0.0046987872 0.1407
v 0.17650212 -0.30289856 0.1407
v 0.17502491 -0.30315903 0.1407
f 236 237 235
f 235 237 238
f 239 240 242
f 242 240 241
f 243 244 246
f 246 244 245
f 247 248 250
f 250 248 249
f 251 252 254
f 254 252 253
f 256 257 255
f 255 257 258
v 0.14029594 0.02337109 0.1965
v 0.14029594 0.02337109 0.1785
v 0.13143267 0.021808256 0.1785
v 0.13143267 0.021808256 0.1965
v 0.13143267 0.021808256 0.1785
v 0.14029594 0.02337109 0.1785
v 0.14394255 0.0026901044 0.1785
v 0.13507928 0.0011272709 0.1785
v 0.13507928 0.0011272709 0.1965
v 0.13507928 0.0011272709 0.1785
v 0.14394255 0.0026901044 0.1785
v 0.14394255 0.0026901044 0.1965
v 0.14029594 0.02337109 0.1965
v 0.13143267 0.021808256 0.1965
v 0.13507928 0.0011272709 0.1965
v 0.14394255 0.0026901044 0.1965
v 0.13143267 0.021808256 0.1965
v 0.13143267 0.021808256 0.1785
v 0.13507928 0.0011272709 0.1785
v 0.13507928 0.0011272709 0.1965
v 0.14394255 0.0026901044 0.1965
v 0.14394255 0.0026901044 0.1785
v 0.14029594 0.02337109 0.1785
v 0.14029594 0.02337109 0.1965
f 259 260 262
f 262 260 261
f 264 265 263
f 263 265 266
f 267 268 270
f 270 268 269
f 272 273 271
f 271 273 274
f 275 276 278
f 278 276 277
f 279 280 282
f 282 280 281
v 0.14394255 0.0026901044 0.38849998
v 0.14394255 0.0026901044 0.37049999
v 0.14029594 0.02337109 0.37049999
v 0.14029594 0.02337109 0.38849998
v 0.13143267 0.021808256 0.38849998
v 0.13143267 0.021808256 0.37049999
v 0.13507928 0.0011272709 0.37049999
v 0.13507928 0.0011272709 0.38849998
v 0.13507928 0.0011272709 0.38849998
v 0.13507928 0.0011272709 0.37049999
v 0.14394255 0.0026901044 0.37049999
v 0.14394255 0.0026901044 0.38849998
v 0.14029594 0.02337109 0.38849998
v 0.14029594 0.02337109 0.37049999
v 0.13143267 0.021808256 0.37049999
v 0.13143267 0.021808256 0.38849998
v 0.13143267 0.021808256 0.37049999
v 0.14029594 0.02337109 0.37049999
v 0.14394255 0.0026901044 0.37049999
v 0.13507928 0.0011272709 0.37049999
v 0.14029594 0.02337109 0.38849998
v 0.13143267 0.021808256 0.38849998
v 0.13507928 0.0011272709 0.38849998
v 0.14394255 0.0026901044 0.38849998
f 283 284 286
f 286 284 285
f 287 288 290
f 290 288 289
f 291 292 294
f 294 292 293
f 295 296 298
f 298 296 297
f 300 301 299
f 299 301 302
f 304 305 303
f 303 305 306
