v -0.18656733 0.047808242 0.0127
v -0.18656733 0.072808242 0.0127
v -0.20456733 0.072808242 0.0127
v -0.20456733 0.047808242 0.0127
v -0.18656733 0.072808242 0
v -0.18656733 0.047808242 0
v -0.20456733 0.047808242 0
v -0.20456733 0.072808242 0
v -0.18656733 0.047808242 0.0127
v -0.18656733 0.047808242 0
v -0.18656733 0.072808242 0
v -0.18656733 0.072808242 0.0127
v -0.18656733 0.072808242 0.0127
v -0.18656733 0.072808242 0
v -0.20456733 0.072808242 0
v -0.20456733 0.072808242 0.0127
v -0.20456733 0.047808242 0.0127
v -0.20456733 0.047808242 0
v -0.18656733 0.047808242 0
v -0.18656733 0.047808242 0.0127
v -0.20456733 0.072808242 0.0127
v -0.20456733 0.072808242 0
v -0.20456733 0.047808242 0
v -0.20456733 0.047808242 0.0127
f 2 3 1
f 1 3 4
f 6 7 5
f 5 7 8
f 9 10 12
f 12 10 11
f 13 14 16
f 16 14 15
f 17 18 20
f 20 18 19
f 21 22 24
f 24 22 23
v -0.18656733 0.28495825 0.0127
v -0.18656733 0.30995825 0.0127
v -0.20456733 0.30995825 0.0127
v -0.20456733 0.28495825 0.0127
v -0.18656733 0.28495825 0.0127
v -0.18656733 0.28495825 0
v -0.18656733 0.30995825 0
v -0.18656733 0.30995825 0.0127
v -0.18656733 0.30995825 0.0127
v -0.18656733 0.30995825 0
v -0.20456733 0.30995825 0
v -0.20456733 0.30995825 0.0127
v -0.18656733 0.30995825 0
v -0.18656733 0.28495825 0
v -0.20456733 0.28495825 0
v -0.20456733 0.30995825 0
v -0.20456733 0.30995825 0.0127
v -0.20456733 0.30995825 0
v -0.20456733 0.28495825 0
v -0.20456733 0.28495825 0.0127
v -0.20456733 0.28495825 0.0127
v -0.20456733 0.28495825 0
v -0.18656733 0.28495825 0
v -0.18656733 0.28495825 0.0127
f 26 27 25
f 25 27 28
f 29 30 32
f 32 30 31
f 33 34 36
f 36 34 35
f 38 39 37
f 37 39 40
f 41 42 44
f 44 42 43
f 45 46 48
f 48 46 47
v 0.11503265 0.047808242 0.0127
v 0.11503265 0.072808242 0.0127
v 0.097032661 0.072808242 0.0127
v 0.097032661 0.047808242 0.0127
v 0.11503265 0.072808242 0
v 0.11503265 0.047808242 0
v 0.097032661 0.047808242 0
v 0.097032661 0.072808242 0
v 0.11503265 0.047808242 0.0127
v 0.11503265 0.047808242 0
v 0.11503265 0.072808242 0
v 0.11503265 0.072808242 0.0127
v 0.097032661 0.047808242 0.0127
v 0.097032661 0.047808242 0
v 0.11503265 0.047808242 0
v 0.11503265 0.047808242 0.0127
v 0.11503265 0.072808242 0.0127
v 0.11503265 0.072808242 0
v 0.097032661 0.072808242 0
v 0.097032661 0.072808242 0.0127
v 0.097032661 0.072808242 0.0127
v 0.097032661 0.072808242 0
v 0.097032661 0.047808242 0
v 0.097032661 0.047808242 0.0127
f 50 51 49
f 49 51 52
f 54 55 53
f 53 55 56
f 57 58 60
f 60 58 59
f 61 62 64
f 64 62 63
f 65 66 68
f 68 66 67
f 69 70 72
f 72 70 71
v 0.11503265 0.28495825 0.0127
v 0.11503265 0.30995825 0.0127
v 0.097032661 0.30995825 0.0127
v 0.097032661 0.28495825 0.0127
v 0.097032661 0.30995825 0.0127
v 0.097032661 0.30995825 0
v 0.097032661 0.28495825 0
v 0.097032661 0.28495825 0.0127
v 0.097032661 0.28495825 0.0127
v 0.097032661 0.28495825 0
v 0.11503265 0.28495825 0
v 0.11503265 0.28495825 0.0127
v 0.11503265 0.30995825 0
v 0.11503265 0.28495825 0
v 0.097032661 0.28495825 0
v 0.097032661 0.30995825 0
v 0.11503265 0.28495825 0.0127
v 0.11503265 0.28495825 0
v 0.11503265 0.30995825 0
v 0.11503265 0.30995825 0.0127
v 0.11503265 0.30995825 0.0127
v 0.11503265 0.30995825 0
v 0.097032661 0.30995825 0
v 0.097032661 0.30995825 0.0127
f 74 75 73
f 73 75 76
f 77 78 80
f 80 78 79
f 81 82 84
f 84 82 83
f 86 87 85
f 85 87 88
f 89 90 92
f 92 90 91
f 93 94 96
f 96 94 95
v 0.12354562 0.00031207565 0.1397
v 0.12256081 0.00013842748 0.1397
v 0.17653066 -0.3059398 0.1397
v 0.17751547 -0.30576616 0.1397
v 0.12354562 0.00031207565 0.1397
v 0.12354562 0.00031207565 0.1367
v 0.12256081 0.00013842748 0.1367
v 0.12256081 0.00013842748 0.1397
v 0.17751547 -0.30576616 0.1397
v 0.17751547 -0.30576616 0.1367
v 0.12354562 0.00031207565 0.1367
v 0.12354562 0.00031207565 0.1397
v 0.12256081 0.00013842748 0.1367
v 0.12354562 0.00031207565 0.1367
v 0.17751547 -0.30576616 0.1367
v 0.17653066 -0.3059398 0.1367
v 0.17653066 -0.3059398 0.1397
v 0.17653066 -0.3059398 0.1367
v 0.17751547 -0.30576616 0.1367
v 0.17751547 -0.30576616 0.1397
v 0.12256081 0.00013842748 0.1397
v 0.12256081 0.00013842748 0.1367
v 0.17653066 -0.3059398 0.1367
v 0.17653066 -0.3059398 0.1397
f 98 99 97
f 97 99 100
f 101 102 104
f 104 102 103
f 105 106 108
f 108 106 107
f 110 111 109
f 109 111 112
f 113 114 116
f 116 114 115
f 117 118 120
f 120 118 119
v 0.12354562 0.00031207565 0.39669998
v 0.12256081 0.00013842748 0.39669998
v 0.17653066 -0.3059398 0.39669998
v 0.17751547 -0.30576616 0.39669998
v 0.12256081 0.00013842748 0.39369999
v 0.12354562 0.00031207565 0.39369999
v 0.17751547 -0.30576616 0.39369999
v 0.17653066 -0.3059398 0.39369999
v 0.12256081 0.00013842748 0.39669998
v 0.12256081 0.00013842748 0.39369999
v 0.17653066 -0.3059398 0.39369999
v 0.17653066 -0.3059398 0.39669998
v 0.17653066 -0.3059398 0.39669998
v 0.17653066 -0.3059398 0.39369999
v 0.17751547 -0.30576616 0.39369999
v 0.17751547 -0.30576616 0.39669998
v 0.17751547 -0.30576616 0.39669998
v 0.17751547 -0.30576616 0.39369999
v 0.12354562 0.00031207565 0.39369999
v 0.12354562 0.00031207565 0.39669998
v 0.12354562 0.00031207565 0.39669998
v 0.12354562 0.00031207565 0.39369999
v 0.12256081 0.00013842748 0.39369999
v 0.12256081 0.00013842748 0.39669998
f 122 123 121
f 121 123 124
f 126 127 125
f 125 127 128
f 129 130 132
f 132 130 131
f 133 134 136
f 136 134 135
f 137 138 140
f 140 138 139
f 141 142 144
f 144 142 143
v 0.17699452 -0.30281173 0.39369999
v 0.17600972 -0.30298538 0.39369999
v 0.17653066 -0.3059398 0.39369999
v 0.17751547 -0.30576616 0.39369999
v 0.17751547 -0.30576616 0.39369999
v 0.17751547 -0.30576616 0.1397
v 0.17699452 -0.30281173 0.1397
v 0.17699452 -0.30281173 0.39369999
v 0.17653066 -0.3059398 0.39369999
v 0.17653066 -0.3059398 0.1397
v 0.17751547 -0.30576616 0.1397
v 0.17751547 -0.30576616 0.39369999
v 0.17600972 -0.30298538 0.1397
v 0.17699452 -0.30281173 0.1397
v 0.17751547 -0.30576616 0.1397
v 0.17653066 -0.3059398 0.1397
v 0.17600972 -0.30298538 0.39369999
v 0.17600972 -0.30298538 0.1397
v 0.17653066 -0.3059398 0.1397
v 0.17653066 -0.3059398 0.39369999
v 0.17699452 -0.30281173 0.39369999
v 0.17699452 -0.30281173 0.1397
v 0.17600972 -0.30298538 0.1397
v 0.17600972 -0.30298538 0.39369999
f 146 147 145
f 145 147 148
f 149 150 152
f 152 150 151
f 153 154 156
f 156 154 155
f 158 159 157
f 157 159 160
f 161 162 164
f 164 162 163
f 165 166 168
f 168 166 167
v 0.12354562 0.00031207565 0.39369999
v 0.12256081 0.00013842748 0.39369999
v 0.12308175 -0.0028159883 0.39369999
v 0.12406656 -0.0026423401 0.39369999
v 0.12256081 0.00013842748 0.1397
v 0.12354562 0.00031207565 0.1397
v 0.12406656 -0.0026423401 0.1397
v 0.12308175 -0.0028159883 0.1397
v 0.12406656 -0.0026423401 0.39369999
v 0.12406656 -0.0026423401 0.1397
v 0.12354562 0.00031207565 0.1397
v 0.12354562 0.00031207565 0.39369999
v 0.12308175 -0.0028159883 0.39369999
v 0.12308175 -0.0028159883 0.1397
v 0.12406656 -0.0026423401 0.1397
v 0.12406656 -0.0026423401 0.39369999
v 0.12256081 0.00013842748 0.39369999
v 0.12256081 0.00013842748 0.1397
v 0.12308175 -0.0028159883 0.1397
v 0.12308175 -0.0028159883 0.39369999
v 0.12354562 0.00031207565 0.39369999
v 0.12354562 0.00031207565 0.1397
v 0.12256081 0.00013842748 0.1397
v 0.12256081 0.00013842748 0.39369999
f 170 171 169
f 169 171 172
f 174 175 173
f 173 175 176
f 177 178 180
f 180 178 179
f 181 182 184
f 184 182 183
f 185 186 188
f 188 186 187
f 189 190 192
f 192 190 191
