v -0.051767331 0.20580824 0.39369999
v -0.046930447 0.21246563 0.39369999
v -0.039104214 0.20992274 0.39369999
v -0.039104214 0.20169375 0.39369999
v -0.046930447 0.19915085 0.39369999
v -0.051767331 0.20580824 0.44450001
v -0.046930447 0.19915085 0.44450001
v -0.039104214 0.20169375 0.44450001
v -0.039104214 0.20992274 0.44450001
v -0.046930447 0.21246563 0.44450001
v -0.051767331 0.20580824 0.44450001
v -0.051767331 0.20580824 0.39369999
v 0.10763267 0.035808241 0.1397
v 0.10763267 0.035808241 0.39369999
v 0.10763267 0.28980824 0.39369999
v 0.10763267 0.28980824 0.1397
v 0.13303268 0.32495825 0.0127
v 0.13303268 0.035808241 0.0127
v -0.22256733 0.035808241 0.0127
v -0.22256733 0.32495825 0.0127
v -0.19716733 0.035808241 0.39369999
v -0.19716733 0.035808241 0.1397
v -0.19716733 0.28980824 0.1397
v -0.19716733 0.28980824 0.39369999
v 0.10763267 0.035808241 0.1397
v -0.19716733 0.035808241 0.1397
v -0.19716733 0.035808241 0.39369999
v 0.10763267 0.035808241 0.39369999
v -0.22256733 0.035808241 0.44450001
v -0.22256733 0.035808241 0.0127
v 0.13303268 0.035808241 0.0127
v 0.13303268 0.035808241 0.44450001
v -0.11956733 0.20580824 0.39369999
v -0.11473044 0.21246563 0.39369999
v -0.10690421 0.20992274 0.39369999
v -0.10690421 0.20169375 0.39369999
v -0.11473044 0.19915085 0.39369999
v -0.11956733 0.20580824 0.44450001
v -0.11473044 0.19915085 0.44450001
v -0.10690421 0.20169375 0.44450001
v -0.10690421 0.20992274 0.44450001
v -0.11473044 0.21246563 0.44450001
v -0.11956733 0.20580824 0.44450001
v -0.11956733 0.20580824 0.39369999
v 0.13303268 0.035808241 0.44450001
v 0.13303268 0.035808241 0.0127
v 0.13303268 0.32495825 0.0127
v 0.13303268 0.32495825 0.44450001
v 0.016032676 0.20580824 0.39369999
v 0.020869559 0.19915085 0.39369999
v 0.028695792 0.20169375 0.39369999
v 0.028695792 0.20992274 0.39369999
v 0.020869559 0.21246563 0.39369999
v -0.051767331 0.20580824 0.39369999
v -0.046930447 0.19915085 0.39369999
v -0.039104214 0.20169375 0.39369999
v -0.039104214 0.20992274 0.39369999
v -0.046930447 0.21246563 0.39369999
v -0.11956733 0.20580824 0.39369999
v -0.11473044 0.19915085 0.39369999
v -0.10690421 0.20169375 0.39369999
v -0.10690421 0.20992274 0.39369999
v -0.11473044 0.21246563 0.39369999
v 0.10763267 0.035808241 0.39369999
v -0.19716733 0.035808241 0.39369999
v -0.19716733 0.28980824 0.39369999
v 0.10763267 0.28980824 0.39369999
v 0.016032676 0.20580824 0.44450001
v 0.020869559 0.21246563 0.44450001
v 0.028695792 0.20992274 0.44450001
v 0.028695792 0.20169375 0.44450001
v 0.020869559 0.19915085 0.44450001
v -0.051767331 0.20580824 0.44450001
v -0.046930447 0.21246563 0.44450001
v -0.039104214 0.20992274 0.44450001
v -0.039104214 0.20169375 0.44450001
v -0.046930447 0.19915085 0.44450001
v -0.11956733 0.20580824 0.44450001
v -0.11473044 0.21246563 0.44450001
v -0.10690421 0.20992274 0.44450001
v -0.10690421 0.20169375 0.44450001
v -0.11473044 0.19915085 0.44450001
v 0.13303268 0.035808241 0.44450001
v 0.13303268 0.32495825 0.44450001
v -0.22256733 0.32495825 0.44450001
v -0.22256733 0.035808241 0.44450001
v -0.19716733 0.035808241 0.1397
v 0.10763267 0.035808241 0.1397
v 0.10763267 0.28980824 0.1397
v -0.19716733 0.28980824 0.1397
v -0.22256733 0.32495825 0.44450001
v -0.22256733 0.32495825 0.0127
v -0.22256733 0.035808241 0.0127
v -0.22256733 0.035808241 0.44450001
v 0.13303268 0.32495825 0.44450001
v 0.13303268 0.32495825 0.0127
v -0.22256733 0.32495825 0.0127
v -0.22256733 0.32495825 0.44450001
v 0.10763267 0.28980824 0.1397
v 0.10763267 0.28980824 0.39369999
v -0.19716733 0.28980824 0.39369999
v -0.19716733 0.28980824 0.1397
v 0.016032676 0.20580824 0.39369999
v 0.020869559 0.21246563 0.39369999
v 0.028695792 0.20992274 0.39369999
v 0.028695792 0.20169375 0.39369999
v 0.020869559 0.19915085 0.39369999
v 0.016032676 0.20580824 0.44450001
v 0.020869559 0.19915085 0.44450001
v 0.028695792 0.20169375 0.44450001
v 0.028695792 0.20992274 0.44450001
v 0.020869559 0.21246563 0.44450001
v 0.016032676 0.20580824 0.44450001
v 0.016032676 0.20580824 0.39369999
f 2 10 1
f 1 10 11
f 12 6 5
f 5 6 7
f 5 7 8
f 2 3 10
f 10 3 9
f 9 3 4
f 9 4 8
f 8 4 5
f 13 14 16
f 16 14 15
f 18 19 17
f 17 19 20
f 21 22 24
f 24 22 23
f 26 30 25
f 25 30 31
f 25 31 32
f 30 26 29
f 29 26 27
f 29 27 28
f 29 28 32
f 32 28 25
f 34 42 33
f 33 42 43
f 44 38 37
f 37 38 39
f 37 39 40
f 34 35 42
f 42 35 41
f 41 35 36
f 41 36 40
f 40 36 37
f 45 46 48
f 48 46 47
f 50 56 49
f 49 56 57
f 49 57 53
f 53 57 58
f 53 58 67
f 67 58 66
f 66 58 63
f 66 63 59
f 51 64 50
f 50 64 55
f 50 55 56
f 64 51 67
f 67 51 52
f 67 52 53
f 55 61 54
f 54 61 62
f 54 62 58
f 58 62 63
f 66 59 65
f 65 59 60
f 65 60 55
f 55 60 61
f 64 65 55
f 69 75 68
f 68 75 76
f 68 76 72
f 72 76 77
f 72 77 83
f 83 77 86
f 86 77 82
f 86 82 78
f 70 84 69
f 69 84 74
f 69 74 75
f 70 71 84
f 84 71 83
f 83 71 72
f 74 80 73
f 73 80 81
f 73 81 77
f 77 81 82
f 86 78 85
f 85 78 79
f 85 79 74
f 74 79 80
f 84 85 74
f 87 88 90
f 90 88 89
f 91 92 94
f 94 92 93
f 95 96 98
f 98 96 97
f 99 100 102
f 102 100 101
f 104 112 103
f 103 112 113
f 114 108 107
f 107 108 109
f 107 109 110
f 104 105 112
f 112 105 111
f 111 105 106
f 111 106 110
f 110 106 107
v 0.13972789 0.020833887 0.44049999
v 0.12003173 0.017360923 0.44049999
v 0.18039184 -0.32495825 0.44049999
v 0.20008799 -0.32148529 0.44049999
v 0.12003173 0.017360923 0.11
v 0.13972789 0.020833887 0.11
v 0.20008799 -0.32148529 0.11
v 0.18039184 -0.32495825 0.11
v 0.12003173 0.017360923 0.44049999
v 0.12003173 0.017360923 0.11
v 0.18039184 -0.32495825 0.11
v 0.18039184 -0.32495825 0.44049999
v 0.13972789 0.020833887 0.44049999
v 0.13972789 0.020833887 0.11
v 0.12003173 0.017360923 0.11
v 0.12003173 0.017360923 0.44049999
v 0.18039184 -0.32495825 0.44049999
v 0.18039184 -0.32495825 0.11
v 0.20008799 -0.32148529 0.11
v 0.20008799 -0.32148529 0.44049999
v 0.20008799 -0.32148529 0.44049999
v 0.20008799 -0.32148529 0.11
v 0.13972789 0.020833887 0.11
v 0.13972789 0.020833887 0.44049999
f 116 117 115
f 115 117 118
f 120 121 119
f 119 121 122
f 123 124 126
f 126 124 125
f 127 128 130
f 130 128 129
f 131 132 134
f 134 132 133
f 135 136 138
f 138 136 137
