v 0.0039999962 0.038000002 0.033000011
v 0.03 0.038000002 0.033000011
v 0.03 -0.038000002 0.033000011
v 0.0039999962 -0.038000002 0.033000011
v 0.03 0.038000002 0.033999996
v 0.0039999962 0.038000002 0.033999996
v 0.0039999962 -0.038000002 0.033999996
v 0.03 -0.038000002 0.033999996
v 0.03 0.038000002 0.033000011
v 0.03 0.038000002 0.033999996
v 0.03 -0.038000002 0.033999996
v 0.03 -0.038000002 0.033000011
v 0.0039999962 0.038000002 0.033000011
v 0.0039999962 0.038000002 0.033999996
v 0.03 0.038000002 0.033999996
v 0.03 0.038000002 0.033000011
v 0.0039999962 -0.038000002 0.033999996
v 0.0039999962 -0.038000002 0.033000011
v 0.03 -0.038000002 0.033000011
v 0.03 -0.038000002 0.033999996
v 0.0039999962 0.038000002 0.033999996
v 0.0039999962 0.038000002 0.033000011
v 0.0039999962 -0.038000002 0.033000011
v 0.0039999962 -0.038000002 0.033999996
f 1 2 4
f 4 2 3
f 5 6 8
f 8 6 7
f 9 10 12
f 12 10 11
f 14 15 13
f 13 15 16
f 18 19 17
f 17 19 20
f 21 22 24
f 24 22 23
v 0.0039999962 0.038000002 0.053999996
v 0.03 0.038000002 0.053999996
v 0.03 -0.038000002 0.053999996
v 0.0039999962 -0.038000002 0.053999996
v 0.03 0.038000002 0.053999996
v 0.03 0.038000002 0.055
v 0.03 -0.038000002 0.055
v 0.03 -0.038000002 0.053999996
v 0.03 0.038000002 0.055
v 0.0039999962 0.038000002 0.055
v 0.0039999962 -0.038000002 0.055
v 0.03 -0.038000002 0.055
v 0.0039999962 0.038000002 0.053999996
v 0.0039999962 0.038000002 0.055
v 0.03 0.038000002 0.055
v 0.03 0.038000002 0.053999996
v 0.0039999962 -0.038000002 0.055
v 0.0039999962 -0.038000002 0.053999996
v 0.03 -0.038000002 0.053999996
v 0.03 -0.038000002 0.055
v 0.0039999962 0.038000002 0.055
v 0.0039999962 0.038000002 0.053999996
v 0.0039999962 -0.038000002 0.053999996
v 0.0039999962 -0.038000002 0.055
f 25 26 28
f 28 26 27
f 29 30 32
f 32 30 31
f 33 34 36
f 36 34 35
f 38 39 37
f 37 39 40
f 42 43 41
f 41 43 44
f 45 46 48
f 48 46 47
v 0.0039999962 0.038000002 0.075
v 0.03 0.038000002 0.075
v 0.03 -0.038000002 0.075
v 0.0039999962 -0.038000002 0.075
v 0.03 0.038000002 0.075
v 0.03 0.038000002 0.076000004
v 0.03 -0.038000002 0.076000004
v 0.03 -0.038000002 0.075
v 0.03 0.038000002 0.076000004
v 0.0039999962 0.038000002 0.076000004
v 0.0039999962 -0.038000002 0.076000004
v 0.03 -0.038000002 0.076000004
v 0.0039999962 0.038000002 0.075
v 0.0039999962 0.038000002 0.076000004
v 0.03 0.038000002 0.076000004
v 0.03 0.038000002 0.075
v 0.0039999962 -0.038000002 0.076000004
v 0.0039999962 -0.038000002 0.075
v 0.03 -0.038000002 0.075
v 0.03 -0.038000002 0.076000004
v 0.0039999962 0.038000002 0.076000004
v 0.0039999962 0.038000002 0.075
v 0.0039999962 -0.038000002 0.075
v 0.0039999962 -0.038000002 0.076000004
f 49 50 52
f 52 50 51
f 53 54 56
f 56 54 55
f 57 58 60
f 60 58 59
f 62 63 61
f 61 63 64
f 66 67 65
f 65 67 68
f 69 70 72
f 72 70 71
v 0.0039999962 0.038000002 0.096000004
v 0.03 0.038000002 0.096000004
v 0.03 -0.038000002 0.096000004
v 0.0039999962 -0.038000002 0.096000004
v 0.03 0.038000002 0.097000008
v 0.0039999962 0.038000002 0.097000008
v 0.0039999962 -0.038000002 0.097000008
v 0.03 -0.038000002 0.097000008
v 0.03 0.038000002 0.096000004
v 0.03 0.038000002 0.097000008
v 0.03 -0.038000002 0.097000008
v 0.03 -0.038000002 0.096000004
v 0.0039999962 0.038000002 0.096000004
v 0.0039999962 0.038000002 0.097000008
v 0.03 0.038000002 0.097000008
v 0.03 0.038000002 0.096000004
v 0.0039999962 -0.038000002 0.097000008
v 0.0039999962 -0.038000002 0.096000004
v 0.03 -0.038000002 0.096000004
v 0.03 -0.038000002 0.097000008
v 0.0039999962 0.038000002 0.097000008
v 0.0039999962 0.038000002 0.096000004
v 0.0039999962 -0.038000002 0.096000004
v 0.0039999962 -0.038000002 0.097000008
f 73 74 76
f 76 74 75
f 77 78 80
f 80 78 79
f 81 82 84
f 84 82 83
f 86 87 85
f 85 87 88
f 90 91 89
f 89 91 92
f 93 94 96
f 96 94 95
v 0.0039999962 0.038000002 0.11700001
v 0.03 0.038000002 0.11700001
v 0.03 -0.038000002 0.11700001
v 0.0039999962 -0.038000002 0.11700001
v 0.03 0.038000002 0.11800001
v 0.0039999962 0.038000002 0.11800001
v 0.0039999962 -0.038000002 0.11800001
v 0.03 -0.038000002 0.11800001
v 0.03 0.038000002 0.11700001
v 0.03 0.038000002 0.11800001
v 0.03 -0.038000002 0.11800001
v 0.03 -0.038000002 0.11700001
v 0.0039999962 0.038000002 0.11700001
v 0.0039999962 0.038000002 0.11800001
v 0.03 0.038000002 0.11800001
v 0.03 0.038000002 0.11700001
v 0.0039999962 -0.038000002 0.11800001
v 0.0039999962 -0.038000002 0.11700001
v 0.03 -0.038000002 0.11700001
v 0.03 -0.038000002 0.11800001
v 0.0039999962 0.038000002 0.11800001
v 0.0039999962 0.038000002 0.11700001
v 0.0039999962 -0.038000002 0.11700001
v 0.0039999962 -0.038000002 0.11800001
f 97 98 100
f 100 98 99
f 101 102 104
f 104 102 103
f 105 106 108
f 108 106 107
f 110 111 109
f 109 111 112
f 114 115 113
f 113 115 116
f 117 118 120
f 120 118 119
v -0.03 0.038000002 0.0225
v -0.0039999962 0.038000002 0.0225
v -0.0039999962 -0.038000002 0.0225
v -0.03 -0.038000002 0.0225
v -0.0039999962 0.038000002 0.0225
v -0.0039999962 0.038000002 0.023500004
v -0.0039999962 -0.038000002 0.023500004
v -0.0039999962 -0.038000002 0.0225
v -0.0039999962 0.038000002 0.023500004
v -0.03 0.038000002 0.023500004
v -0.03 -0.038000002 0.023500004
v -0.0039999962 -0.038000002 0.023500004
v -0.03 0.038000002 0.0225
v -0.03 0.038000002 0.023500004
v -0.0039999962 0.038000002 0.023500004
v -0.0039999962 0.038000002 0.0225
v -0.03 -0.038000002 0.023500004
v -0.03 -0.038000002 0.0225
v -0.0039999962 -0.038000002 0.0225
v -0.0039999962 -0.038000002 0.023500004
v -0.03 0.038000002 0.023500004
v -0.03 0.038000002 0.0225
v -0.03 -0.038000002 0.0225
v -0.03 -0.038000002 0.023500004
f 121 122 124
f 124 122 123
f 125 126 128
f 128 126 127
f 129 130 132
f 132 130 131
f 134 135 133
f 133 135 136
f 138 139 137
f 137 139 140
f 141 142 144
f 144 142 143
v -0.03 0.038000002 0.043500004
v -0.0039999962 0.038000002 0.043500004
v -0.0039999962 -0.038000002 0.043500004
v -0.03 -0.038000002 0.043500004
v -0.0039999962 0.038000002 0.044500008
v -0.03 0.038000002 0.044500008
v -0.03 -0.038000002 0.044500008
v -0.0039999962 -0.038000002 0.044500008
v -0.0039999962 0.038000002 0.043500004
v -0.0039999962 0.038000002 0.044500008
v -0.0039999962 -0.038000002 0.044500008
v -0.0039999962 -0.038000002 0.043500004
v -0.03 0.038000002 0.043500004
v -0.03 0.038000002 0.044500008
v -0.0039999962 0.038000002 0.044500008
v -0.0039999962 0.038000002 0.043500004
v -0.03 -0.038000002 0.044500008
v -0.03 -0.038000002 0.043500004
v -0.0039999962 -0.038000002 0.043500004
v -0.0039999962 -0.038000002 0.044500008
v -0.03 0.038000002 0.044500008
v -0.03 0.038000002 0.043500004
v -0.03 -0.038000002 0.043500004
v -0.03 -0.038000002 0.044500008
f 145 146 148
f 148 146 147
f 149 150 152
f 152 150 151
f 153 154 156
f 156 154 155
f 158 159 157
f 157 159 160
f 162 163 161
f 161 163 164
f 165 166 168
f 168 166 167
v -0.03 0.038000002 0.064500008
v -0.0039999962 0.038000002 0.064500008
v -0.0039999962 -0.038000002 0.064500008
v -0.03 -0.038000002 0.064500008
v -0.0039999962 0.038000002 0.065500011
v -0.03 0.038000002 0.065500011
v -0.03 -0.038000002 0.065500011
v -0.0039999962 -0.038000002 0.065500011
v -0.0039999962 0.038000002 0.064500008
v -0.0039999962 0.038000002 0.065500011
v -0.0039999962 -0.038000002 0.065500011
v -0.0039999962 -0.038000002 0.064500008
v -0.03 0.038000002 0.064500008
v -0.03 0.038000002 0.065500011
v -0.0039999962 0.038000002 0.065500011
v -0.0039999962 0.038000002 0.064500008
v -0.03 -0.038000002 0.065500011
v -0.03 -0.038000002 0.064500008
v -0.0039999962 -0.038000002 0.064500008
v -0.0039999962 -0.038000002 0.065500011
v -0.03 0.038000002 0.065500011
v -0.03 0.038000002 0.064500008
v -0.03 -0.038000002 0.064500008
v -0.03 -0.038000002 0.065500011
f 169 170 172
f 172 170 171
f 173 174 176
f 176 174 175
f 177 178 180
f 180 178 179
f 182 183 181
f 181 183 184
f 186 187 185
f 185 187 188
f 189 190 192
f 192 190 191
v -0.03 0.038000002 0.085500011
v -0.0039999962 0.038000002 0.085500011
v -0.0039999962 -0.038000002 0.085500011
v -0.03 -0.038000002 0.085500011
v -0.0039999962 0.038000002 0.085500011
v -0.0039999962 0.038000002 0.086499996
v -0.0039999962 -0.038000002 0.086499996
v -0.0039999962 -0.038000002 0.085500011
v -0.0039999962 0.038000002 0.086499996
v -0.03 0.038000002 0.086499996
v -0.03 -0.038000002 0.086499996
v -0.0039999962 -0.038000002 0.086499996
v -0.03 0.038000002 0.085500011
v -0.03 0.038000002 0.086499996
v -0.0039999962 0.038000002 0.086499996
v -0.0039999962 0.038000002 0.085500011
v -0.03 -0.038000002 0.086499996
v -0.03 -0.038000002 0.085500011
v -0.0039999962 -0.038000002 0.085500011
v -0.0039999962 -0.038000002 0.086499996
v -0.03 0.038000002 0.086499996
v -0.03 0.038000002 0.085500011
v -0.03 -0.038000002 0.085500011
v -0.03 -0.038000002 0.086499996
f 193 194 196
f 196 194 195
f 197 198 200
f 200 198 199
f 201 202 204
f 204 202 203
f 206 207 205
f 205 207 208
f 210 211 209
f 209 211 212
f 213 214 216
f 216 214 215
v -0.03 0.038000002 0.1065
v -0.0039999962 0.038000002 0.1065
v -0.0039999962 -0.038000002 0.1065
v -0.03 -0.038000002 0.1065
v -0.0039999962 0.038000002 0.1065
v -0.0039999962 0.038000002 0.1075
v -0.0039999962 -0.038000002 0.1075
v -0.0039999962 -0.038000002 0.1065
v -0.0039999962 0.038000002 0.1075
v -0.03 0.038000002 0.1075
v -0.03 -0.038000002 0.1075
v -0.0039999962 -0.038000002 0.1075
v -0.03 0.038000002 0.1065
v -0.03 0.038000002 0.1075
v -0.0039999962 0.038000002 0.1075
v -0.0039999962 0.038000002 0.1065
v -0.03 -0.038000002 0.1075
v -0.03 -0.038000002 0.1065
v -0.0039999962 -0.038000002 0.1065
v -0.0039999962 -0.038000002 0.1075
v -0.03 0.038000002 0.1075
v -0.03 0.038000002 0.1065
v -0.03 -0.038000002 0.1065
v -0.03 -0.038000002 0.1075
f 217 218 220
f 220 218 219
f 221 222 224
f 224 222 223
f 225 226 228
f 228 226 227
f 230 231 229
f 229 231 232
f 234 235 233
f 233 235 236
f 237 238 240
f 240 238 239
v -0.03 0.038000002 0.096000004
v -0.0039999962 0.038000002 0.096000004
v -0.0039999962 -0.038000002 0.096000004
v -0.03 -0.038000002 0.096000004
v -0.0039999962 0.038000002 0.096000004
v -0.0039999962 0.038000002 0.097000008
v -0.0039999962 -0.038000002 0.097000008
v -0.0039999962 -0.038000002 0.096000004
v -0.0039999962 0.038000002 0.097000008
v -0.03 0.038000002 0.097000008
v -0.03 -0.038000002 0.097000008
v -0.0039999962 -0.038000002 0.097000008
v -0.03 0.038000002 0.096000004
v -0.03 0.038000002 0.097000008
v -0.0039999962 0.038000002 0.097000008
v -0.0039999962 0.038000002 0.096000004
v -0.03 -0.038000002 0.097000008
v -0.03 -0.038000002 0.096000004
v -0.0039999962 -0.038000002 0.096000004
v -0.0039999962 -0.038000002 0.097000008
v -0.03 0.038000002 0.097000008
v -0.03 0.038000002 0.096000004
v -0.03 -0.038000002 0.096000004
v -0.03 -0.038000002 0.097000008
f 241 242 244
f 244 242 243
f 245 246 248
f 248 246 247
f 249 250 252
f 252 250 251
f 254 255 253
f 253 255 256
f 258 259 257
f 257 259 260
f 261 262 264
f 264 262 263
v -0.03 0.038000002 0.075
v -0.0039999962 0.038000002 0.075
v -0.0039999962 -0.038000002 0.075
v -0.03 -0.038000002 0.075
v -0.0039999962 0.038000002 0.076000004
v -0.03 0.038000002 0.076000004
v -0.03 -0.038000002 0.076000004
v -0.0039999962 -0.038000002 0.076000004
v -0.0039999962 0.038000002 0.075
v -0.0039999962 0.038000002 0.076000004
v -0.0039999962 -0.038000002 0.076000004
v -0.0039999962 -0.038000002 0.075
v -0.03 0.038000002 0.075
v -0.03 0.038000002 0.076000004
v -0.0039999962 0.038000002 0.076000004
v -0.0039999962 0.038000002 0.075
v -0.03 -0.038000002 0.076000004
v -0.03 -0.038000002 0.075
v -0.0039999962 -0.038000002 0.075
v -0.0039999962 -0.038000002 0.076000004
v -0.03 0.038000002 0.076000004
v -0.03 0.038000002 0.075
v -0.03 -0.038000002 0.075
v -0.03 -0.038000002 0.076000004
f 265 266 268
f 268 266 267
f 269 270 272
f 272 270 271
f 273 274 276
f 276 274 275
f 278 279 277
f 277 279 280
f 282 283 281
f 281 283 284
f 285 286 288
f 288 286 287
v -0.03 0.038000002 0.053999996
v -0.0039999962 0.038000002 0.053999996
v -0.0039999962 -0.038000002 0.053999996
v -0.03 -0.038000002 0.053999996
v -0.0039999962 0.038000002 0.055
v -0.03 0.038000002 0.055
v -0.03 -0.038000002 0.055
v -0.0039999962 -0.038000002 0.055
v -0.0039999962 0.038000002 0.053999996
v -0.0039999962 0.038000002 0.055
v -0.0039999962 -0.038000002 0.055
v -0.0039999962 -0.038000002 0.053999996
v -0.03 0.038000002 0.053999996
v -0.03 0.038000002 0.055
v -0.0039999962 0.038000002 0.055
v -0.0039999962 0.038000002 0.053999996
v -0.03 -0.038000002 0.055
v -0.03 -0.038000002 0.053999996
v -0.0039999962 -0.038000002 0.053999996
v -0.0039999962 -0.038000002 0.055
v -0.03 0.038000002 0.055
v -0.03 0.038000002 0.053999996
v -0.03 -0.038000002 0.053999996
v -0.03 -0.038000002 0.055
f 289 290 292
f 292 290 291
f 293 294 296
f 296 294 295
f 297 298 300
f 300 298 299
f 302 303 301
f 301 303 304
f 306 307 305
f 305 307 308
f 309 310 312
f 312 310 311
v -0.03 0.038000002 0.033000011
v -0.0039999962 0.038000002 0.033000011
v -0.0039999962 -0.038000002 0.033000011
v -0.03 -0.038000002 0.033000011
v -0.0039999962 0.038000002 0.033999996
v -0.03 0.038000002 0.033999996
v -0.03 -0.038000002 0.033999996
v -0.0039999962 -0.038000002 0.033999996
v -0.0039999962 0.038000002 0.033000011
v -0.0039999962 0.038000002 0.033999996
v -0.0039999962 -0.038000002 0.033999996
v -0.0039999962 -0.038000002 0.033000011
v -0.03 0.038000002 0.033000011
v -0.03 0.038000002 0.033999996
v -0.0039999962 0.038000002 0.033999996
v -0.0039999962 0.038000002 0.033000011
v -0.03 -0.038000002 0.033999996
v -0.03 -0.038000002 0.033000011
v -0.0039999962 -0.038000002 0.033000011
v -0.0039999962 -0.038000002 0.033999996
v -0.03 0.038000002 0.033999996
v -0.03 0.038000002 0.033000011
v -0.03 -0.038000002 0.033000011
v -0.03 -0.038000002 0.033999996
f 313 314 316
f 316 314 315
f 317 318 320
f 320 318 319
f 321 322 324
f 324 322 323
f 326 327 325
f 325 327 328
f 330 331 329
f 329 331 332
f 333 334 336
f 336 334 335
v -0.03 0.038000002 0.11700001
v -0.0039999962 0.038000002 0.11700001
v -0.0039999962 -0.038000002 0.11700001
v -0.03 -0.038000002 0.11700001
v -0.0039999962 0.038000002 0.11800001
v -0.03 0.038000002 0.11800001
v -0.03 -0.038000002 0.11800001
v -0.0039999962 -0.038000002 0.11800001
v -0.0039999962 0.038000002 0.11700001
v -0.0039999962 0.038000002 0.11800001
v -0.0039999962 -0.038000002 0.11800001
v -0.0039999962 -0.038000002 0.11700001
v -0.03 0.038000002 0.11700001
v -0.03 0.038000002 0.11800001
v -0.0039999962 0.038000002 0.11800001
v -0.0039999962 0.038000002 0.11700001
v -0.03 -0.038000002 0.11800001
v -0.03 -0.038000002 0.11700001
v -0.0039999962 -0.038000002 0.11700001
v -0.0039999962 -0.038000002 0.11800001
v -0.03 0.038000002 0.11800001
v -0.03 0.038000002 0.11700001
v -0.03 -0.038000002 0.11700001
v -0.03 -0.038000002 0.11800001
f 337 338 340
f 340 338 339
f 341 342 344
f 344 342 343
f 345 346 348
f 348 346 347
f 350 351 349
f 349 351 352
f 354 355 353
f 353 355 356
f 357 358 360
f 360 358 359
v 0.0039999962 0.038000002 0.1065
v 0.03 0.038000002 0.1065
v 0.03 -0.038000002 0.1065
v 0.0039999962 -0.038000002 0.1065
v 0.03 0.038000002 0.1065
v 0.03 0.038000002 0.1075
v 0.03 -0.038000002 0.1075
v 0.03 -0.038000002 0.1065
v 0.03 0.038000002 0.1075
v 0.0039999962 0.038000002 0.1075
v 0.0039999962 -0.038000002 0.1075
v 0.03 -0.038000002 0.1075
v 0.0039999962 0.038000002 0.1065
v 0.0039999962 0.038000002 0.1075
v 0.03 0.038000002 0.1075
v 0.03 0.038000002 0.1065
v 0.0039999962 -0.038000002 0.1075
v 0.0039999962 -0.038000002 0.1065
v 0.03 -0.038000002 0.1065
v 0.03 -0.038000002 0.1075
v 0.0039999962 0.038000002 0.1075
v 0.0039999962 0.038000002 0.1065
v 0.0039999962 -0.038000002 0.1065
v 0.0039999962 -0.038000002 0.1075
f 361 362 364
f 364 362 363
f 365 366 368
f 368 366 367
f 369 370 372
f 372 370 371
f 374 375 373
f 373 375 376
f 378 379 377
f 377 379 380
f 381 382 384
f 384 382 383
v 0.0039999962 0.038000002 0.085500011
v 0.03 0.038000002 0.085500011
v 0.03 -0.038000002 0.085500011
v 0.0039999962 -0.038000002 0.085500011
v 0.03 0.038000002 0.086499996
v 0.0039999962 0.038000002 0.086499996
v 0.0039999962 -0.038000002 0.086499996
v 0.03 -0.038000002 0.086499996
v 0.03 0.038000002 0.085500011
v 0.03 0.038000002 0.086499996
v 0.03 -0.038000002 0.086499996
v 0.03 -0.038000002 0.085500011
v 0.0039999962 0.038000002 0.085500011
v 0.0039999962 0.038000002 0.086499996
v 0.03 0.038000002 0.086499996
v 0.03 0.038000002 0.085500011
v 0.0039999962 -0.038000002 0.086499996
v 0.0039999962 -0.038000002 0.085500011
v 0.03 -0.038000002 0.085500011
v 0.03 -0.038000002 0.086499996
v 0.0039999962 0.038000002 0.086499996
v 0.0039999962 0.038000002 0.085500011
v 0.0039999962 -0.038000002 0.085500011
v 0.0039999962 -0.038000002 0.086499996
f 385 386 388
f 388 386 387
f 389 390 392
f 392 390 391
f 393 394 396
f 396 394 395
f 398 399 397
f 397 399 400
f 402 403 401
f 401 403 404
f 405 406 408
f 408 406 407
v 0.0039999962 0.038000002 0.064500008
v 0.03 0.038000002 0.064500008
v 0.03 -0.038000002 0.064500008
v 0.0039999962 -0.038000002 0.064500008
v 0.03 0.038000002 0.064500008
v 0.03 0.038000002 0.065500011
v 0.03 -0.038000002 0.065500011
v 0.03 -0.038000002 0.064500008
v 0.03 0.038000002 0.065500011
v 0.0039999962 0.038000002 0.065500011
v 0.0039999962 -0.038000002 0.065500011
v 0.03 -0.038000002 0.065500011
v 0.0039999962 0.038000002 0.064500008
v 0.0039999962 0.038000002 0.065500011
v 0.03 0.038000002 0.065500011
v 0.03 0.038000002 0.064500008
v 0.0039999962 -0.038000002 0.065500011
v 0.0039999962 -0.038000002 0.064500008
v 0.03 -0.038000002 0.064500008
v 0.03 -0.038000002 0.065500011
v 0.0039999962 0.038000002 0.065500011
v 0.0039999962 0.038000002 0.064500008
v 0.0039999962 -0.038000002 0.064500008
v 0.0039999962 -0.038000002 0.065500011
f 409 410 412
f 412 410 411
f 413 414 416
f 416 414 415
f 417 418 420
f 420 418 419
f 422 423 421
f 421 423 424
f 426 427 425
f 425 427 428
f 429 430 432
f 432 430 431
v 0.0039999962 0.038000002 0.043500004
v 0.03 0.038000002 0.043500004
v 0.03 -0.038000002 0.043500004
v 0.0039999962 -0.038000002 0.043500004
v 0.03 0.038000002 0.044500008
v 0.0039999962 0.038000002 0.044500008
v 0.0039999962 -0.038000002 0.044500008
v 0.03 -0.038000002 0.044500008
v 0.03 0.038000002 0.043500004
v 0.03 0.038000002 0.044500008
v 0.03 -0.038000002 0.044500008
v 0.03 -0.038000002 0.043500004
v 0.0039999962 0.038000002 0.043500004
v 0.0039999962 0.038000002 0.044500008
v 0.03 0.038000002 0.044500008
v 0.03 0.038000002 0.043500004
v 0.0039999962 -0.038000002 0.044500008
v 0.0039999962 -0.038000002 0.043500004
v 0.03 -0.038000002 0.043500004
v 0.03 -0.038000002 0.044500008
v 0.0039999962 0.038000002 0.044500008
v 0.0039999962 0.038000002 0.043500004
v 0.0039999962 -0.038000002 0.043500004
v 0.0039999962 -0.038000002 0.044500008
f 433 434 436
f 436 434 435
f 437 438 440
f 440 438 439
f 441 442 444
f 444 442 443
f 446 447 445
f 445 447 448
f 450 451 449
f 449 451 452
f 453 454 456
f 456 454 455
v 0.0039999962 0.038000002 0.0225
v 0.03 0.038000002 0.0225
v 0.03 -0.038000002 0.0225
v 0.0039999962 -0.038000002 0.0225
v 0.03 0.038000002 0.023500004
v 0.0039999962 0.038000002 0.023500004
v 0.0039999962 -0.038000002 0.023500004
v 0.03 -0.038000002 0.023500004
v 0.03 0.038000002 0.0225
v 0.03 0.038000002 0.023500004
v 0.03 -0.038000002 0.023500004
v 0.03 -0.038000002 0.0225
v 0.0039999962 0.038000002 0.0225
v 0.0039999962 0.038000002 0.023500004
v 0.03 0.038000002 0.023500004
v 0.03 0.038000002 0.0225
v 0.0039999962 -0.038000002 0.023500004
v 0.0039999962 -0.038000002 0.0225
v 0.03 -0.038000002 0.0225
v 0.03 -0.038000002 0.023500004
v 0.0039999962 0.038000002 0.023500004
v 0.0039999962 0.038000002 0.0225
v 0.0039999962 -0.038000002 0.0225
v 0.0039999962 -0.038000002 0.023500004
f 457 458 460
f 460 458 459
f 461 462 464
f 464 462 463
f 465 466 468
f 468 466 467
f 470 471 469
f 469 471 472
f 474 475 473
f 473 475 476
f 477 478 480
f 480 478 479
