v 0.021269999 0.354798 -0.0215620001
v 0.021269999 0.354798 -0.0355619999
v 0.021269999 0.353798 -0.0355619999
v 0.021269999 0.353798 -0.0215620001
v 0.0257699995 0.354798 -0.0355619999
v 0.0257699995 0.354798 -0.0215620001
v 0.0257699995 0.353798 -0.0215620001
v 0.0257699995 0.353798 -0.0355619999
v 0.021269999 0.354798 -0.0355619999
v 0.021269999 0.354798 -0.0215620001
v 0.0257699995 0.354798 -0.0215620001
v 0.0257699995 0.354798 -0.0355619999
v 0.021269999 0.354798 -0.0215620001
v 0.021269999 0.353798 -0.0215620001
v 0.0257699995 0.353798 -0.0215620001
v 0.0257699995 0.354798 -0.0215620001
v 0.021269999 0.353798 -0.0215620001
v 0.021269999 0.353798 -0.0355619999
v 0.0257699995 0.353798 -0.0355619999
v 0.0257699995 0.353798 -0.0215620001
v 0.021269999 0.353798 -0.0355619999
v 0.021269999 0.354798 -0.0355619999
v 0.0257699995 0.354798 -0.0355619999
v 0.0257699995 0.353798 -0.0355619999
f 1 2 4
f 4 2 3
f 6 7 5
f 5 7 8
f 9 10 12
f 12 10 11
f 13 14 16
f 16 14 15
f 17 18 20
f 20 18 19
f 21 22 24
f 24 22 23
