v 0.0692886321 -0.188132283 0.16767053
v 0.0693241649 -0.185911205 0.165654209
v 0.0693086305 -0.18305421 0.16656927
v 0.0692575632 -0.182418293 0.169500653
v 0.0692220304 -0.184639371 0.171516973
v 0.0692375649 -0.187496366 0.170601912
v 0.0692886321 -0.188132283 0.16767053
v 0.0692375649 -0.187496366 0.170601912
v 0.0692220304 -0.184639371 0.171516973
v 0.0692575632 -0.182418293 0.169500653
v 0.0693086305 -0.18305421 0.16656927
v 0.0693241649 -0.185911205 0.165654209
v -0.0556923305 -0.188113163 0.165489104
v -0.0556567977 -0.185892085 0.163472783
v -0.0556723322 -0.18303509 0.164387845
v -0.0557233994 -0.182399173 0.167319227
v -0.0557589322 -0.184620251 0.169335548
v -0.0557433977 -0.187477246 0.168420486
v 0.0692575632 -0.182418293 0.169500653
v -0.0557233994 -0.182399173 0.167319227
v -0.0556923305 -0.188113163 0.165489104
v -0.0557433977 -0.187477246 0.168420486
v -0.0557589322 -0.184620251 0.169335548
v -0.0557233994 -0.182399173 0.167319227
v -0.0556723322 -0.18303509 0.164387845
v -0.0556567977 -0.185892085 0.163472783
f 2 3 1
f 1 3 4
f 1 4 6
f 6 4 5
f 8 18 7
f 7 18 13
f 7 13 12
f 12 13 14
f 12 14 11
f 11 14 15
f 11 15 10
f 10 15 20
f 19 16 9
f 9 16 17
f 9 17 8
f 8 17 18
f 22 23 21
f 21 23 24
f 21 24 26
f 26 24 25
v 0.00450863965 -0.16801129 0.150026241
v 0.00450863824 -0.165886372 0.150044947
v 0.00477121175 -0.166314808 0.150433418
v 0.00477121288 -0.168014743 0.150418453
v 0.00775384191 -0.166347695 0.154169547
v 0.00775384304 -0.16804763 0.154154582
v 0.00769429353 -0.168047768 0.154170267
v 0.00763438898 -0.168047894 0.154184538
v 0.0075741635 -0.168048007 0.154197386
v 0.00757416237 -0.166348072 0.154212351
v 0.00763438785 -0.166347959 0.154199503
v 0.00769429241 -0.166347833 0.154185232
v 0.00404291228 -0.168023885 0.151456864
v 0.00404291087 -0.165898966 0.15147557
v 0.00446196343 -0.166325861 0.151689036
v 0.00446196456 -0.168025796 0.151674071
v 0.00775384191 -0.166347695 0.154169547
v 0.00807814962 -0.16592573 0.15451622
v 0.00807815103 -0.168050649 0.154497514
v 0.00775384304 -0.16804763 0.154154582
v 0.00468966223 -0.166316267 0.150599142
v 0.00421869689 -0.165891559 0.150634164
v 0.0042186983 -0.168016478 0.150615458
v 0.00468966336 -0.168016202 0.150584177
v 0.00502887512 -0.166311368 0.150042666
v 0.0045649264 -0.16588562 0.149959584
v 0.00456492781 -0.168010539 0.149940879
v 0.00502887625 -0.168011303 0.150027701
v 0.00817386527 -0.168050332 0.154461539
v 0.00817386386 -0.165925413 0.154480244
v 0.0081919831 -0.166346245 0.154004866
v 0.00819198423 -0.16804618 0.153989902
v 0.00835537258 -0.166345487 0.153918724
v 0.00835537371 -0.168045422 0.15390376
v 0.00830159589 -0.168045686 0.153933761
v 0.0082471227 -0.168045939 0.15396248
v 0.00819198423 -0.16804618 0.153989902
v 0.0081919831 -0.166346245 0.154004866
v 0.00824712157 -0.166346004 0.153977445
v 0.00830159476 -0.166345751 0.153948725
v 0.00499229831 -0.168006149 0.149442276
v 0.0049922969 -0.165881231 0.149460982
v 0.00514907802 -0.166310133 0.149902427
v 0.00514907915 -0.168010068 0.149887463
v 0.00449950148 -0.166321754 0.151222492
v 0.0040511115 -0.165898069 0.15137365
v 0.00405111292 -0.168022987 0.151354944
v 0.00449950262 -0.168021689 0.151207527
v 0.00418540713 -0.168017329 0.150712136
v 0.00418540571 -0.16589241 0.150730842
v 0.00453727388 -0.166320163 0.151041694
v 0.00453727501 -0.168020098 0.151026729
v 0.00449950148 -0.166321754 0.151222492
v 0.00449950262 -0.168021689 0.151207527
v 0.00451066421 -0.168021156 0.151146968
v 0.00452325759 -0.168020626 0.151086691
v 0.00453727501 -0.168020098 0.151026729
v 0.00453727388 -0.166320163 0.151041694
v 0.00452325646 -0.166320691 0.151101656
v 0.00451066308 -0.166321221 0.151161933
v 0.00468966223 -0.166316267 0.150599142
v 0.00468966336 -0.168016202 0.150584177
v 0.00471553585 -0.16801571 0.150528297
v 0.00474272437 -0.168015224 0.150473046
v 0.00477121288 -0.168014743 0.150418453
v 0.00477121175 -0.166314808 0.150433418
v 0.00474272324 -0.166315289 0.15048801
v 0.00471553472 -0.166315775 0.150543262
v 0.00502887512 -0.166311368 0.150042666
v 0.00502887625 -0.168011303 0.150027701
v 0.00506783288 -0.168010883 0.14998001
v 0.00510790822 -0.168010471 0.149933255
v 0.00514907915 -0.168010068 0.149887463
v 0.00514907802 -0.166310133 0.149902427
v 0.00510790709 -0.166310537 0.14994822
v 0.00506783175 -0.166310948 0.149994975
v 0.00706350452 -0.167998941 0.148623578
v 0.00706350311 -0.165874022 0.148642284
v 0.00687302868 -0.166302808 0.14907039
v 0.00687302981 -0.168002743 0.149055426
v 0.0073410273 -0.166302879 0.149078559
v 0.00716574049 -0.165874038 0.148644069
v 0.0071657419 -0.167998957 0.148625363
v 0.00734102903 -0.168002814 0.149063594
v 0.00903488957 -0.166310728 0.14997025
v 0.0090348907 -0.168010663 0.149955286
v 0.00907443898 -0.168011078 0.150002487
v 0.00911285816 -0.168011502 0.150050612
v 0.00915012664 -0.168011933 0.150099633
v 0.00915012551 -0.166311999 0.150114598
v 0.00911285703 -0.166311567 0.150065577
v 0.00907443785 -0.166311143 0.150017452
v 0.00472997362 -0.168042533 0.153575309
v 0.00472997221 -0.165917614 0.153594015
v 0.0051841426 -0.166341466 0.153461762
v 0.00518414373 -0.168041401 0.153446797
v 0.0100809733 -0.16802391 0.15146019
v 0.0100809719 -0.165898991 0.151478896
v 0.00963799993 -0.166322541 0.151312179
v 0.00963800106 -0.168022475 0.151297215
v 0.00631116592 -0.167999774 0.148718196
v 0.0063111645 -0.165874856 0.148736902
v 0.00623407437 -0.166303939 0.149198808
v 0.0062340755 -0.168003874 0.149183844
v 0.00855181056 -0.166306877 0.149532786
v 0.00855181169 -0.168006812 0.149517821
v 0.0086018564 -0.168007128 0.149553705
v 0.00865103705 -0.168007454 0.149590764
v 0.00869932661 -0.168007791 0.149628977
v 0.00869932548 -0.166307856 0.149643941
v 0.00865103593 -0.166307519 0.149605728
v 0.00860185527 -0.166307193 0.149568669
v 0.00447034236 -0.166327486 0.151873546
v 0.00407270191 -0.165904741 0.152131579
v 0.00407270333 -0.168029659 0.152112874
v 0.00447034349 -0.168027421 0.151858582
v 0.00715084235 -0.165780767 0.146568801
v 0.00519267949 -0.165783886 0.146922882
v 0.00351907812 -0.165793363 0.147999337
v 0.00238483001 -0.165807756 0.149634287
v 0.00196261358 -0.165824874 0.151578825
v 0.00231670808 -0.165842111 0.153536912
v 0.0033932052 -0.165856842 0.155210448
v 0.0050282186 -0.165866826 0.156344653
v 0.00697283117 -0.165870541 0.156766852
v 0.00893099462 -0.165867423 0.156412772
v 0.0106045954 -0.165857946 0.155336317
v 0.0117388441 -0.165843552 0.153701367
v 0.0121610599 -0.165826434 0.151756829
v 0.011806966 -0.165809197 0.149798741
v 0.0107304683 -0.165794466 0.148125205
v 0.00909545551 -0.165784483 0.146991001
v 0.0071159382 -0.16579837 0.148568419
v 0.00712903503 -0.165798372 0.148568675
v 0.0071421303 -0.165798375 0.148568987
v 0.00715522401 -0.165798378 0.148569354
v 0.00716831616 -0.165798382 0.148569776
v 0.00750398529 -0.165798645 0.148599639
v 0.00783442948 -0.165799226 0.14866576
v 0.00788505948 -0.165799345 0.148679247
v 0.00793545521 -0.165799471 0.148693586
v 0.00825315156 -0.16580046 0.148805986
v 0.00855676937 -0.165801747 0.148952205
v 0.00860245486 -0.165801973 0.148977857
v 0.00864770069 -0.165802206 0.149004279
v 0.00892746249 -0.165803859 0.149192152
v 0.00918517755 -0.165805771 0.149409281
v 0.00922304764 -0.165806089 0.149445489
v 0.00926030097 -0.165806414 0.149482333
v 0.0094845497 -0.165808628 0.149733874
v 0.00968016823 -0.165811043 0.15000827
v 0.00970784351 -0.165811435 0.150052759
v 0.00973476377 -0.165811831 0.150097709
v 0.00988940842 -0.165814466 0.150397114
v 0.0100106392 -0.165817234 0.150711535
v 0.0100263812 -0.165817674 0.150761509
v 0.0100412764 -0.165818116 0.150811741
v 0.010116601 -0.165821007 0.151140197
v 0.0101558262 -0.165823954 0.151474888
v 0.0101586454 -0.165824414 0.151527206
v 0.0101605798 -0.165824875 0.151579564
v 0.0101518513 -0.165827841 0.151916433
v 0.010106607 -0.16583078 0.152250364
v 0.0100963258 -0.165831232 0.152301739
v 0.0100851781 -0.165831683 0.152352933
v 0.00999294468 -0.165834536 0.152677048
v 0.00986607288 -0.165837285 0.152989236
v 0.00984333788 -0.1658377 0.153036441
v 0.0098198085 -0.165838112 0.153083255
v 0.00964986551 -0.165840674 0.15337425
v 0.00944933917 -0.165843058 0.15364508
v 0.00941557859 -0.165843411 0.153685148
v 0.0093811455 -0.165843759 0.153724639
v 0.00914417114 -0.165845868 0.153964231
v 0.00888258919 -0.165847738 0.154176686
v 0.00883992452 -0.165848006 0.154207099
v 0.00879675209 -0.165848268 0.154236787
v 0.00850763596 -0.165849792 0.154409921
v 0.00820143503 -0.165851031 0.15455065
v 0.00815254707 -0.165851197 0.154569499
v 0.0081033469 -0.165851356 0.154587518
v 0.007780256 -0.165852199 0.154683315
v 0.00744867517 -0.165852729 0.154743477
v 0.00739663563 -0.165852783 0.154749575
v 0.00734450057 -0.165852829 0.154754793
v 0.00700773532 -0.165852938 0.154767235
v 0.00667160941 -0.165852726 0.154743049
v 0.00661968822 -0.165852664 0.154736014
v 0.00656789322 -0.165852594 0.154728104
v 0.00623861403 -0.165851963 0.154656407
v 0.00591906269 -0.165851021 0.154549393
v 0.00587052255 -0.165850848 0.154529668
v 0.00582232218 -0.165850667 0.154509125
v 0.00552121866 -0.165849335 0.154357796
v 0.00523832164 -0.165847723 0.154174678
v 0.00519621103 -0.165847449 0.154143502
v 0.00515463379 -0.165847168 0.154111618
v 0.00490062588 -0.165845219 0.153890164
v 0.00467215707 -0.165843038 0.153642449
v 0.00463912441 -0.16584268 0.153601779
v 0.00460678218 -0.165842318 0.153560558
v 0.00441583001 -0.165839873 0.153282895
v 0.00425614574 -0.165837261 0.152986146
v 0.00423426509 -0.165836842 0.15293854
v 0.00421319079 -0.16583642 0.152890571
v 0.0040972929 -0.165833634 0.152574145
v 0.00401642619 -0.165830755 0.152247009
v 0.00400707249 -0.165830301 0.152195457
v 0.00399859059 -0.165829846 0.152143754
v 0.0039650281 -0.165826894 0.151808448
v 0.00396806167 -0.165823928 0.151471479
v 0.00397182221 -0.165823468 0.151419221
v 0.00397646499 -0.165823008 0.151367033
v 0.00402734768 -0.165820076 0.151033915
v 0.00411408962 -0.165817209 0.150708287
v 0.00413072943 -0.165816772 0.150658606
v 0.00414820476 -0.165816337 0.150609212
v 0.00428033563 -0.165813608 0.150299213
v 0.00444533538 -0.165811021 0.150005387
v 0.00447380801 -0.165810634 0.149961403
v 0.00450301968 -0.165810251 0.149917908
v 0.00470809552 -0.165807897 0.149650506
v 0.0049409859 -0.165805753 0.149406943
v 0.00497950238 -0.16580544 0.149371422
v 0.00501861308 -0.165805133 0.149336557
v 0.00528374899 -0.165803302 0.149128554
v 0.00556989717 -0.165801735 0.148950559
v 0.00561603756 -0.165801516 0.148925732
v 0.00566258992 -0.165801305 0.148901689
v 0.00597112704 -0.165800111 0.148766155
v 0.00629255262 -0.16579922 0.148664911
v 0.00634341752 -0.165799109 0.148652339
v 0.00639448794 -0.165799006 0.148640628
v 0.00672703788 -0.165798526 0.148586078
v 0.00706354477 -0.165798366 0.148567947
v 0.00708974282 -0.165798367 0.148568073
v 0.00506804632 -0.165880626 0.149392299
v 0.0049922969 -0.165881231 0.149460982
v 0.00499229831 -0.168006149 0.149442276
v 0.00506804773 -0.168005545 0.149373593
v 0.00569644368 -0.16587689 0.148967952
v 0.00560599277 -0.16587731 0.149015639
v 0.00560599418 -0.168002229 0.148996933
v 0.00569644509 -0.168001809 0.148949246
v 0.00733766164 -0.165927168 0.154679449
v 0.00743931635 -0.16592707 0.154668406
v 0.00743931777 -0.168051989 0.1546497
v 0.00733766305 -0.168052086 0.154660743
v 0.00528243957 -0.168047104 0.154094663
v 0.00528243816 -0.165922186 0.154113368
v 0.0056903798 -0.166345079 0.153872209
v 0.00569038093 -0.168045014 0.153857245
v 0.00460401608 -0.166333101 0.152511399
v 0.00460401721 -0.168033036 0.152496434
v 0.00458462327 -0.168032521 0.152437989
v 0.00456661771 -0.168032003 0.152379102
v 0.00455001307 -0.168031481 0.152319804
v 0.00455001194 -0.166331546 0.152334768
v 0.00456661658 -0.166332068 0.152394066
v 0.00458462214 -0.166332586 0.152452954
v 0.0069241517 -0.168048424 0.154244712
v 0.00692415057 -0.166348489 0.154259677
v 0.00698567899 -0.166348511 0.154262209
v 0.00704725075 -0.166348521 0.154263284
v 0.00710883008 -0.166348517 0.1542629
v 0.00710883121 -0.168048452 0.154247935
v 0.00704725188 -0.168048456 0.154248319
v 0.00698568012 -0.168048446 0.154247245
v 0.00668940167 -0.166302984 0.149090338
v 0.0066894028 -0.168002918 0.149075374
v 0.00675044792 -0.168002847 0.149067275
v 0.00681166927 -0.168002789 0.149060625
v 0.00687302981 -0.168002743 0.149055426
v 0.00687302868 -0.166302808 0.14907039
v 0.00681166814 -0.166302854 0.149075589
v 0.00675044679 -0.166302912 0.14908224
v 0.00531656232 -0.1663426 0.153590529
v 0.00520077558 -0.165921644 0.154051834
v 0.00520077699 -0.168046563 0.154033128
v 0.00531656345 -0.168042535 0.153575564
v 0.00432402691 -0.168036895 0.152934885
v 0.0043240255 -0.165911977 0.152953591
v 0.00479588847 -0.166336859 0.152938318
v 0.0047958896 -0.168036794 0.152923354
v 0.00396231145 -0.168825063 0.151587319
v 0.00440461931 -0.168811485 0.150044863
v 0.00555892832 -0.168801672 0.148930203
v 0.00711594019 -0.168798253 0.148542011
v 0.00865845562 -0.168802146 0.148984303
v 0.00977315963 -0.168812306 0.150138566
v 0.0101613666 -0.168826012 0.151695518
v 0.00971905819 -0.16883959 0.153237974
v 0.00856474918 -0.168849403 0.154352634
v 0.00700773731 -0.168852822 0.154740827
v 0.00546522188 -0.168848929 0.154298535
v 0.00435051788 -0.168838769 0.153144271
v 0.00396231092 -0.168025095 0.151594362
v 0.00396907552 -0.168027435 0.151860153
v 0.00399859205 -0.168029761 0.152124388
v 0.00400707395 -0.168030216 0.152176091
v 0.00401642765 -0.16803067 0.152227643
v 0.00409729436 -0.168033549 0.152554779
v 0.00421319226 -0.168036335 0.152871205
v 0.00423426655 -0.168036757 0.152919174
v 0.0042561472 -0.168037176 0.15296678
v 0.00441583147 -0.168039788 0.153263529
v 0.00460678364 -0.168042233 0.153541192
v 0.00463912587 -0.168042595 0.153582414
v 0.00467215854 -0.168042953 0.153623083
v 0.00490062734 -0.168045134 0.153870798
v 0.00515463525 -0.168047083 0.154092252
v 0.00519621249 -0.168047364 0.154124136
v 0.0052383231 -0.168047638 0.154155312
v 0.00552122012 -0.16804925 0.15433843
v 0.00582232365 -0.168050582 0.154489759
v 0.00587052402 -0.168050763 0.154510302
v 0.00591906416 -0.168050936 0.154530027
v 0.0062386155 -0.168051878 0.154637041
v 0.00656789468 -0.168052509 0.154708738
v 0.00661968969 -0.168052579 0.154716648
v 0.00667161087 -0.168052641 0.154723683
v 0.00700773678 -0.168052853 0.154747869
v 0.00734450204 -0.168052744 0.154735427
v 0.00739663709 -0.168052698 0.154730209
v 0.00744867664 -0.168052644 0.154724111
v 0.00778025746 -0.168052114 0.154663949
v 0.00810334836 -0.168051271 0.154568152
v 0.00815254853 -0.168051112 0.154550133
v 0.00820143649 -0.168050946 0.154531284
v 0.00850763742 -0.168049707 0.154390555
v 0.00879675355 -0.168048183 0.154217421
v 0.00883992598 -0.168047921 0.154187733
v 0.00888259065 -0.168047654 0.15415732
v 0.0091441726 -0.168045783 0.153944866
v 0.00938114696 -0.168043674 0.153705274
v 0.00941558006 -0.168043326 0.153665782
v 0.00944934063 -0.168042973 0.153625714
v 0.00964986697 -0.168040589 0.153354884
v 0.00981980996 -0.168038027 0.153063889
v 0.00984333934 -0.168037615 0.153017075
v 0.00986607434 -0.1680372 0.152969871
v 0.00999294615 -0.168034451 0.152657682
v 0.0100851795 -0.168031598 0.152333567
v 0.0100963273 -0.168031147 0.152282373
v 0.0101066085 -0.168030695 0.152230998
v 0.0101518528 -0.168027756 0.151897067
v 0.0101605813 -0.16802479 0.151560198
v 0.0101586469 -0.168024329 0.15150784
v 0.0101558277 -0.168023869 0.151455522
v 0.0101166025 -0.168020922 0.151120831
v 0.0100412779 -0.168018031 0.150792375
v 0.0100263827 -0.168017589 0.150742143
v 0.0100106406 -0.168017149 0.15069217
v 0.00988940989 -0.168014381 0.150377748
v 0.00973476523 -0.168011746 0.150078343
v 0.00970784497 -0.16801135 0.150033393
v 0.00968016969 -0.168010958 0.149988904
v 0.00948455116 -0.168008543 0.149714508
v 0.00926030243 -0.168006329 0.149462967
v 0.0092230491 -0.168006004 0.149426123
v 0.00918517901 -0.168005686 0.149389915
v 0.00892746395 -0.168003775 0.149172786
v 0.00864770215 -0.168002121 0.148984913
v 0.00860245632 -0.168001888 0.148958492
v 0.00855677083 -0.168001662 0.148932839
v 0.00825315302 -0.168000376 0.14878662
v 0.00793545667 -0.167999386 0.14867422
v 0.00788506094 -0.16799926 0.148659881
v 0.00783443094 -0.167999141 0.148646394
v 0.00750398675 -0.16799856 0.148580273
v 0.00716831762 -0.167998297 0.14855041
v 0.00711593966 -0.167998285 0.148549053
v 0.00706354623 -0.167998281 0.148548582
v 0.00672703935 -0.167998441 0.148566712
v 0.00639448941 -0.167998921 0.148621262
v 0.00634341898 -0.167999024 0.148632973
v 0.00629255409 -0.167999135 0.148645545
v 0.00597112851 -0.168000026 0.148746789
v 0.00566259138 -0.16800122 0.148882323
v 0.00561603902 -0.168001431 0.148906366
v 0.00556989863 -0.16800165 0.148931193
v 0.00528375046 -0.168003217 0.149109188
v 0.00501861454 -0.168005048 0.149317192
v 0.00497950384 -0.168005355 0.149352056
v 0.00494098737 -0.168005668 0.149387577
v 0.00470809698 -0.168007812 0.14963114
v 0.00450302114 -0.168010166 0.149898542
v 0.00447380947 -0.168010549 0.149942037
v 0.00444533684 -0.168010936 0.149986021
v 0.0042803371 -0.168013523 0.150279847
v 0.00414820623 -0.168016252 0.150589846
v 0.00413073089 -0.168016687 0.15063924
v 0.00411409108 -0.168017124 0.150688921
v 0.00402734915 -0.168019991 0.151014549
v 0.00397646645 -0.168022923 0.151347667
v 0.00397182367 -0.168023383 0.151399855
v 0.00396806313 -0.168023843 0.151452114
v 0.00396601213 -0.168024156 0.151487648
v 0.0039643697 -0.168024469 0.151523205
v 0.00396313594 -0.168024782 0.151558777
v 0.0101613666 -0.168826012 0.151695518
v 0.0101518528 -0.168027756 0.151897067
v 0.00549582716 -0.166307366 0.149588027
v 0.00506804632 -0.165880626 0.149392299
v 0.00506804773 -0.168005545 0.149373593
v 0.00549582829 -0.1680073 0.149573063
v 0.00641063348 -0.165874647 0.148713206
v 0.0063111645 -0.165874856 0.148736902
v 0.00631116592 -0.167999774 0.148718196
v 0.00641063489 -0.167999566 0.1486945
v 0.00421869689 -0.165891559 0.150634164
v 0.00418540571 -0.16589241 0.150730842
v 0.00418540713 -0.168017329 0.150712136
v 0.0042186983 -0.168016478 0.150615458
v 0.00715084235 -0.165780767 0.146568801
v 0.00909545551 -0.165784483 0.146991001
v 0.0107304683 -0.165794466 0.148125205
v 0.011806966 -0.165809197 0.149798741
v 0.0121610599 -0.165826434 0.151756829
v 0.0117388441 -0.165843552 0.153701367
v 0.0106045954 -0.165857946 0.155336317
v 0.00893099462 -0.165867423 0.156412772
v 0.00697283117 -0.165870541 0.156766852
v 0.0050282186 -0.165866826 0.156344653
v 0.0033932052 -0.165856842 0.155210448
v 0.00231670808 -0.165842111 0.153536912
v 0.00196261358 -0.165824874 0.151578825
v 0.00238483001 -0.165807756 0.149634287
v 0.00351907812 -0.165793363 0.147999337
v 0.00519267949 -0.165783886 0.146922882
v 0.00176264436 -0.166024835 0.151573574
v 0.00213062384 -0.166042748 0.153608449
v 0.00324933722 -0.166058057 0.155347614
v 0.00494846854 -0.166068432 0.156526297
v 0.00696934089 -0.166072293 0.156965053
v 0.00900429491 -0.166069053 0.156597088
v 0.0107435275 -0.166059204 0.155478418
v 0.011922256 -0.166044246 0.153779353
v 0.0123610297 -0.166026457 0.151758559
v 0.0119930493 -0.166008544 0.149723683
v 0.0108743366 -0.165993235 0.147984518
v 0.00917520524 -0.16598286 0.146805836
v 0.00715433289 -0.165978999 0.146367079
v 0.00511937887 -0.16598224 0.146735045
v 0.00338014633 -0.165992088 0.147853714
v 0.00220141722 -0.166007046 0.14955278
v 0.00697283117 -0.165870541 0.156766852
v 0.00696934089 -0.166072293 0.156965053
v 0.0100856105 -0.16589989 0.151581039
v 0.0100809719 -0.165898991 0.151478896
v 0.0100809733 -0.16802391 0.15146019
v 0.010085612 -0.168024809 0.151562334
v 0.00668940167 -0.166302984 0.149090338
v 0.00641063348 -0.165874647 0.148713206
v 0.00641063489 -0.167999566 0.1486945
v 0.0066894028 -0.168002918 0.149075374
v 0.00489212281 -0.166338246 0.15309597
v 0.00489212394 -0.168038181 0.153081005
v 0.00485880483 -0.168037725 0.153029219
v 0.00482672014 -0.168037263 0.152976659
v 0.0047958896 -0.168036794 0.152923354
v 0.00479588847 -0.166336859 0.152938318
v 0.00482671901 -0.166337328 0.152991624
v 0.0048588037 -0.166337791 0.153044184
v 0.0073410273 -0.166302879 0.149078559
v 0.00734102903 -0.168002814 0.149063594
v 0.00740217076 -0.168002879 0.149070931
v 0.00746312211 -0.168002956 0.149079714
v 0.0075238486 -0.168003046 0.149089938
v 0.00752384747 -0.166303111 0.149104903
v 0.00746312098 -0.166303021 0.149094679
v 0.00740216963 -0.166302944 0.149085896
v 0.00531656232 -0.1663426 0.153590529
v 0.00531656345 -0.168042535 0.153575564
v 0.00527141086 -0.168042166 0.153533691
v 0.00522726275 -0.168041788 0.153490761
v 0.00518414373 -0.168041401 0.153446797
v 0.0051841426 -0.166341466 0.153461762
v 0.00522726162 -0.166341853 0.153505726
v 0.00527140973 -0.166342231 0.153548656
v 0.00710883008 -0.166348517 0.1542629
v 0.00733766164 -0.165927168 0.154679449
v 0.00733766305 -0.168052086 0.154660743
v 0.00710883121 -0.168048452 0.154247935
v 0.00939157833 -0.168042552 0.153577877
v 0.00939157692 -0.165917634 0.153596583
v 0.00918023304 -0.166338902 0.153170815
v 0.00918023417 -0.168038837 0.15315585
v 0.00396231145 -0.168825063 0.151587319
v 0.00435051788 -0.168838769 0.153144271
v 0.00546522188 -0.168848929 0.154298535
v 0.00700773731 -0.168852822 0.154740827
v 0.00856474918 -0.168849403 0.154352634
v 0.00971905819 -0.16883959 0.153237974
v 0.0101613666 -0.168826012 0.151695518
v 0.00977315963 -0.168812306 0.150138566
v 0.00865845562 -0.168802146 0.148984303
v 0.00711594019 -0.168798253 0.148542011
v 0.00555892832 -0.168801672 0.148930203
v 0.00440461931 -0.168811485 0.150044863
v 0.00546208276 -0.168825293 0.151613497
v 0.00585430361 -0.168816298 0.150591765
v 0.00681154266 -0.168811627 0.150061179
v 0.00788589905 -0.168813464 0.150270004
v 0.0085746682 -0.168820951 0.151120529
v 0.00855556752 -0.168830584 0.152214785
v 0.00783753444 -0.168837855 0.153040756
v 0.00675654445 -0.168839363 0.153211962
v 0.00581840608 -0.168834402 0.152648293
v 0.00407270191 -0.165904741 0.152131579
v 0.00409010659 -0.165905628 0.152232336
v 0.004090108 -0.168030546 0.15221363
v 0.00407270333 -0.168029659 0.152112874
v 0.00691785843 -0.167898188 0.159898647
v 0.00780799654 -0.167895101 0.159548026
v 0.00818948315 -0.167887378 0.1586707
v 0.00783884775 -0.167879542 0.157780596
v 0.00696148862 -0.167876185 0.157399125
v 0.0060713505 -0.167879272 0.157749746
v 0.0056898639 -0.167886995 0.158627072
v 0.00604049929 -0.167894831 0.159517176
v 0.00691786009 -0.170398091 0.15987664
v 0.00604050095 -0.170394734 0.159495169
v 0.00568986556 -0.170386899 0.158605065
v 0.00607135216 -0.170379175 0.15772774
v 0.00696149028 -0.170376088 0.157377118
v 0.00783884941 -0.170379446 0.15775859
v 0.00818948481 -0.170387281 0.158648693
v 0.0078079982 -0.170395004 0.159526019
v 0.00696149028 -0.170376088 0.157377118
v 0.00696148862 -0.167876185 0.157399125
v 0.00646086533 -0.166347902 0.154192919
v 0.00646086646 -0.168047837 0.154177955
v 0.00640112606 -0.168047705 0.154163013
v 0.00634175724 -0.168047561 0.15414666
v 0.00628279083 -0.168047405 0.154128906
v 0.0062827897 -0.16634747 0.154143871
v 0.00634175611 -0.166347626 0.154161625
v 0.00640112493 -0.16634777 0.154177977
v 0.00585230961 -0.165925058 0.154439724
v 0.00594671118 -0.165925404 0.154479018
v 0.0059467126 -0.168050323 0.154460312
v 0.00585231102 -0.168049977 0.154421018
v 0.00954870157 -0.166332311 0.152422016
v 0.0095487027 -0.168032245 0.152407051
v 0.00953003868 -0.168032762 0.152465733
v 0.00950999008 -0.168033275 0.152523957
v 0.00948856822 -0.168033783 0.152581689
v 0.00948856709 -0.166333848 0.152596654
v 0.00950998896 -0.16633334 0.152538922
v 0.00953003755 -0.166332827 0.152480698
v 0.004090108 -0.168030546 0.15221363
v 0.00409010659 -0.165905628 0.152232336
v 0.00455001194 -0.166331546 0.152334768
v 0.00455001307 -0.168031481 0.152319804
v 0.00176264436 -0.166024835 0.151573574
v 0.00220141722 -0.166007046 0.14955278
v 0.00338014633 -0.165992088 0.147853714
v 0.00511937887 -0.16598224 0.146735045
v 0.00715433289 -0.165978999 0.146367079
v 0.00917520524 -0.16598286 0.146805836
v 0.0108743366 -0.165993235 0.147984518
v 0.0119930493 -0.166008544 0.149723683
v 0.0123610297 -0.166026457 0.151758559
v 0.011922256 -0.166044246 0.153779353
v 0.0107435275 -0.166059204 0.155478418
v 0.00900429491 -0.166069053 0.156597088
v 0.00696934089 -0.166072293 0.156965053
v 0.00494846854 -0.166068432 0.156526297
v 0.00324933722 -0.166058057 0.155347614
v 0.00213062384 -0.166042748 0.153608449
v 0.00176264556 -0.167824766 0.151557729
v 0.00213062504 -0.167842679 0.153592604
v 0.00324933842 -0.167857988 0.155331769
v 0.00494846973 -0.167868363 0.156510452
v 0.00696934209 -0.167872224 0.156949209
v 0.00900429611 -0.167868984 0.156581243
v 0.0107435287 -0.167859135 0.155462573
v 0.0119222572 -0.167844177 0.153763508
v 0.0123610309 -0.167826388 0.151742714
v 0.0119930505 -0.167808475 0.149707839
v 0.0108743378 -0.167793166 0.147968674
v 0.00917520644 -0.167782791 0.146789991
v 0.00715433409 -0.16777893 0.146351234
v 0.00511938006 -0.167782171 0.1467192
v 0.00338014752 -0.167792019 0.147837869
v 0.00220141842 -0.167806977 0.149536935
v 0.0123610297 -0.166026457 0.151758559
v 0.0123610309 -0.167826388 0.151742714
v 0.00520077558 -0.165921644 0.154051834
v 0.00528243816 -0.165922186 0.154113368
v 0.00528243957 -0.168047104 0.154094663
v 0.00520077699 -0.168046563 0.154033128
v 0.00855181056 -0.166306877 0.149532786
v 0.00860933342 -0.16587777 0.14906806
v 0.00860933483 -0.168002688 0.149049354
v 0.00855181169 -0.168006812 0.149517821
v 0.00975308332 -0.165912807 0.15304835
v 0.009798229 -0.165912 0.152956607
v 0.00979823041 -0.168036918 0.152937901
v 0.00975308474 -0.168037726 0.153029645
v 0.00960656102 -0.166320938 0.151130173
v 0.00960656214 -0.168020873 0.151115209
v 0.00961847834 -0.168021405 0.151175624
v 0.00962895976 -0.168021939 0.151236303
v 0.00963800106 -0.168022475 0.151297215
v 0.00963799993 -0.166322541 0.151312179
v 0.00962895864 -0.166322004 0.151251268
v 0.00961847721 -0.16632147 0.151190588
v 0.00960656102 -0.166320938 0.151130173
v 0.00996919304 -0.165893295 0.150831792
v 0.00996919445 -0.168018213 0.150813087
v 0.00960656214 -0.168020873 0.151115209
v 0.00546208276 -0.168825293 0.151613497
v 0.00581840608 -0.168834402 0.152648293
v 0.00675654445 -0.168839363 0.153211962
v 0.00783753444 -0.168837855 0.153040756
v 0.00855556752 -0.168830584 0.152214785
v 0.0085746682 -0.168820951 0.151120529
v 0.00788589905 -0.168813464 0.150270004
v 0.00681154266 -0.168811627 0.150061179
v 0.00585430361 -0.168816298 0.150591765
v 0.00546208376 -0.170325236 0.151600292
v 0.00585430461 -0.170316241 0.150578561
v 0.00681154365 -0.17031157 0.150047975
v 0.00788590005 -0.170313407 0.1502568
v 0.0085746692 -0.170320894 0.151107325
v 0.00855556852 -0.170330527 0.152201581
v 0.00783753544 -0.170337798 0.153027552
v 0.00675654544 -0.170339306 0.153198757
v 0.00581840708 -0.170334345 0.152635089
v 0.0085746682 -0.168820951 0.151120529
v 0.0085746692 -0.170320894 0.151107325
v 0.00781573924 -0.167999781 0.148719025
v 0.00781573783 -0.165874862 0.148737731
v 0.00752384747 -0.166303111 0.149104903
v 0.0075238486 -0.168003046 0.149089938
v 0.00860933342 -0.16587777 0.14906806
v 0.00852060191 -0.165877322 0.149017245
v 0.00852060333 -0.168002241 0.148998539
v 0.00860933483 -0.168002688 0.149049354
v 0.00875477804 -0.165922717 0.154173975
v 0.00883853905 -0.165922201 0.154115327
v 0.00883854046 -0.168047119 0.154096622
v 0.00875477945 -0.168047636 0.154155269
v 0.00396231092 -0.168025095 0.151594362
v 0.00396313594 -0.168024782 0.151558777
v 0.0039643697 -0.168024469 0.151523205
v 0.00396601213 -0.168024156 0.151487648
v 0.00396806313 -0.168023843 0.151452114
v 0.00397182367 -0.168023383 0.151399855
v 0.00397646645 -0.168022923 0.151347667
v 0.00402734915 -0.168019991 0.151014549
v 0.00411409108 -0.168017124 0.150688921
v 0.00413073089 -0.168016687 0.15063924
v 0.00414820623 -0.168016252 0.150589846
v 0.0042803371 -0.168013523 0.150279847
v 0.00444533684 -0.168010936 0.149986021
v 0.00447380947 -0.168010549 0.149942037
v 0.00450302114 -0.168010166 0.149898542
v 0.00470809698 -0.168007812 0.14963114
v 0.00494098737 -0.168005668 0.149387577
v 0.00497950384 -0.168005355 0.149352056
v 0.00501861454 -0.168005048 0.149317192
v 0.00528375046 -0.168003217 0.149109188
v 0.00556989863 -0.16800165 0.148931193
v 0.00561603902 -0.168001431 0.148906366
v 0.00566259138 -0.16800122 0.148882323
v 0.00597112851 -0.168000026 0.148746789
v 0.00629255409 -0.167999135 0.148645545
v 0.00634341898 -0.167999024 0.148632973
v 0.00639448941 -0.167998921 0.148621262
v 0.00672703935 -0.167998441 0.148566712
v 0.00706354623 -0.167998281 0.148548582
v 0.00711593966 -0.167998285 0.148549053
v 0.00716831762 -0.167998297 0.14855041
v 0.00750398675 -0.16799856 0.148580273
v 0.00783443094 -0.167999141 0.148646394
v 0.00788506094 -0.16799926 0.148659881
v 0.00793545667 -0.167999386 0.14867422
v 0.00825315302 -0.168000376 0.14878662
v 0.00855677083 -0.168001662 0.148932839
v 0.00860245632 -0.168001888 0.148958492
v 0.00864770215 -0.168002121 0.148984913
v 0.00892746395 -0.168003775 0.149172786
v 0.00918517901 -0.168005686 0.149389915
v 0.0092230491 -0.168006004 0.149426123
v 0.00926030243 -0.168006329 0.149462967
v 0.00948455116 -0.168008543 0.149714508
v 0.00968016969 -0.168010958 0.149988904
v 0.00970784497 -0.16801135 0.150033393
v 0.00973476523 -0.168011746 0.150078343
v 0.00988940989 -0.168014381 0.150377748
v 0.0100106406 -0.168017149 0.15069217
v 0.0100263827 -0.168017589 0.150742143
v 0.0100412779 -0.168018031 0.150792375
v 0.0101166025 -0.168020922 0.151120831
v 0.0101558277 -0.168023869 0.151455522
v 0.0101586469 -0.168024329 0.15150784
v 0.0101605813 -0.16802479 0.151560198
v 0.0101518528 -0.168027756 0.151897067
v 0.0101066085 -0.168030695 0.152230998
v 0.0100963273 -0.168031147 0.152282373
v 0.0100851795 -0.168031598 0.152333567
v 0.00999294615 -0.168034451 0.152657682
v 0.00986607434 -0.1680372 0.152969871
v 0.00984333934 -0.168037615 0.153017075
v 0.00981980996 -0.168038027 0.153063889
v 0.00964986697 -0.168040589 0.153354884
v 0.00944934063 -0.168042973 0.153625714
v 0.00941558006 -0.168043326 0.153665782
v 0.00938114696 -0.168043674 0.153705274
v 0.0091441726 -0.168045783 0.153944866
v 0.00888259065 -0.168047654 0.15415732
v 0.00883992598 -0.168047921 0.154187733
v 0.00879675355 -0.168048183 0.154217421
v 0.00850763742 -0.168049707 0.154390555
v 0.00820143649 -0.168050946 0.154531284
v 0.00815254853 -0.168051112 0.154550133
v 0.00810334836 -0.168051271 0.154568152
v 0.00778025746 -0.168052114 0.154663949
v 0.00744867664 -0.168052644 0.154724111
v 0.00739663709 -0.168052698 0.154730209
v 0.00734450204 -0.168052744 0.154735427
v 0.00700773678 -0.168052853 0.154747869
v 0.00667161087 -0.168052641 0.154723683
v 0.00661968969 -0.168052579 0.154716648
v 0.00656789468 -0.168052509 0.154708738
v 0.0062386155 -0.168051878 0.154637041
v 0.00591906416 -0.168050936 0.154530027
v 0.00587052402 -0.168050763 0.154510302
v 0.00582232365 -0.168050582 0.154489759
v 0.00552122012 -0.16804925 0.15433843
v 0.0052383231 -0.168047638 0.154155312
v 0.00519621249 -0.168047364 0.154124136
v 0.00515463525 -0.168047083 0.154092252
v 0.00490062734 -0.168045134 0.153870798
v 0.00467215854 -0.168042953 0.153623083
v 0.00463912587 -0.168042595 0.153582414
v 0.00460678364 -0.168042233 0.153541192
v 0.00441583147 -0.168039788 0.153263529
v 0.0042561472 -0.168037176 0.15296678
v 0.00423426655 -0.168036757 0.152919174
v 0.00421319226 -0.168036335 0.152871205
v 0.00409729436 -0.168033549 0.152554779
v 0.00401642765 -0.16803067 0.152227643
v 0.00400707395 -0.168030216 0.152176091
v 0.00399859205 -0.168029761 0.152124388
v 0.00396907552 -0.168027435 0.151860153
v 0.00646086646 -0.168047837 0.154177955
v 0.0065798448 -0.168051857 0.154634699
v 0.00668105161 -0.168051986 0.154649282
v 0.0069241517 -0.168048424 0.154244712
v 0.00698568012 -0.168048446 0.154247245
v 0.00704725188 -0.168048456 0.154248319
v 0.00710883121 -0.168048452 0.154247935
v 0.00733766305 -0.168052086 0.154660743
v 0.00743931777 -0.168051989 0.1546497
v 0.0075741635 -0.168048007 0.154197386
v 0.00763438898 -0.168047894 0.154184538
v 0.00769429353 -0.168047768 0.154170267
v 0.00775384304 -0.16804763 0.154154582
v 0.00807815103 -0.168050649 0.154497514
v 0.00817386527 -0.168050332 0.154461539
v 0.00819198423 -0.16804618 0.153989902
v 0.0082471227 -0.168045939 0.15396248
v 0.00830159589 -0.168045686 0.153933761
v 0.00835537371 -0.168045422 0.15390376
v 0.00875477945 -0.168047636 0.154155269
v 0.00883854046 -0.168047119 0.154096622
v 0.00873879419 -0.168043058 0.153635296
v 0.00878538004 -0.168042704 0.153595024
v 0.00883099954 -0.16804234 0.153553661
v 0.00887562664 -0.168041966 0.153511228
v 0.00932503499 -0.168043236 0.153655512
v 0.00939157833 -0.168042552 0.153577877
v 0.00918023417 -0.168038837 0.15315585
v 0.0092153415 -0.168038392 0.153105259
v 0.00924924042 -0.168037939 0.15305385
v 0.00928191254 -0.16803748 0.153001653
v 0.00975308474 -0.168037726 0.153029645
v 0.00979823041 -0.168036918 0.152937901
v 0.00948856822 -0.168033783 0.152581689
v 0.00950999008 -0.168033275 0.152523957
v 0.00953003868 -0.168032762 0.152465733
v 0.0095487027 -0.168032245 0.152407051
v 0.0100120343 -0.168031452 0.152316992
v 0.0100329442 -0.168030571 0.152216904
v 0.00964442108 -0.168028212 0.151948891
v 0.00965081247 -0.168027673 0.151887645
v 0.00965575103 -0.168027133 0.151826264
v 0.00965923437 -0.168026591 0.151764785
v 0.010085612 -0.168024809 0.151562334
v 0.0100809733 -0.16802391 0.15146019
v 0.00963800106 -0.168022475 0.151297215
v 0.00962895976 -0.168021939 0.151236303
v 0.00961847834 -0.168021405 0.151175624
v 0.00960656214 -0.168020873 0.151115209
v 0.00996919445 -0.168018213 0.150813087
v 0.00993929883 -0.168017353 0.150715306
v 0.00946971176 -0.168016933 0.150667609
v 0.00944580586 -0.168016434 0.15061086
v 0.00942056219 -0.168015939 0.150554693
v 0.00939399573 -0.16801545 0.150499139
v 0.00967009729 -0.16801208 0.150116329
v 0.00961682258 -0.168011312 0.150029055
v 0.00915012664 -0.168011933 0.150099633
v 0.00911285816 -0.168011502 0.150050612
v 0.00907443898 -0.168011078 0.150002487
v 0.0090348907 -0.168010663 0.149955286
v 0.00920711374 -0.168006794 0.149515842
v 0.0091338075 -0.168006167 0.149444557
v 0.00869932661 -0.168007791 0.149628977
v 0.00865103705 -0.168007454 0.149590764
v 0.0086018564 -0.168007128 0.149553705
v 0.00855181169 -0.168006812 0.149517821
v 0.00860933483 -0.168002688 0.149049354
v 0.00852060333 -0.168002241 0.148998539
v 0.00814563717 -0.168004765 0.149285211
v 0.0080893613 -0.168004545 0.149260207
v 0.00803250943 -0.168004336 0.149236543
v 0.00797511231 -0.16800414 0.149214232
v 0.00791432064 -0.16800002 0.148746178
v 0.00781573924 -0.167999781 0.148719025
v 0.0075238486 -0.168003046 0.149089938
v 0.00746312211 -0.168002956 0.149079714
v 0.00740217076 -0.168002879 0.149070931
v 0.00734102903 -0.168002814 0.149063594
v 0.0071657419 -0.167998957 0.148625363
v 0.00706350452 -0.167998941 0.148623578
v 0.00687302981 -0.168002743 0.149055426
v 0.00681166927 -0.168002789 0.149060625
v 0.00675044792 -0.168002847 0.149067275
v 0.0066894028 -0.168002918 0.149075374
v 0.00641063489 -0.167999566 0.1486945
v 0.00631116592 -0.167999774 0.148718196
v 0.0062340755 -0.168003874 0.149183844
v 0.00617593528 -0.168004052 0.149204138
v 0.00611829215 -0.168004243 0.149225804
v 0.00606117732 -0.168004446 0.149248829
v 0.00569644509 -0.168001809 0.148949246
v 0.00560599418 -0.168002229 0.148996933
v 0.0056471315 -0.168006368 0.149467122
v 0.00559586553 -0.168006668 0.149501238
v 0.00554542147 -0.168006979 0.149536558
v 0.00549582829 -0.1680073 0.149573063
v 0.00506804773 -0.168005545 0.149373593
v 0.00499229831 -0.168006149 0.149442276
v 0.00514907915 -0.168010068 0.149887463
v 0.00510790822 -0.168010471 0.149933255
v 0.00506783288 -0.168010883 0.14998001
v 0.00502887625 -0.168011303 0.150027701
v 0.00456492781 -0.168010539 0.149940879
v 0.00450863965 -0.16801129 0.150026241
v 0.00477121288 -0.168014743 0.150418453
v 0.00474272437 -0.168015224 0.150473046
v 0.00471553585 -0.16801571 0.150528297
v 0.00468966336 -0.168016202 0.150584177
v 0.0042186983 -0.168016478 0.150615458
v 0.00418540713 -0.168017329 0.150712136
v 0.00453727501 -0.168020098 0.151026729
v 0.00452325759 -0.168020626 0.151086691
v 0.00451066421 -0.168021156 0.151146968
v 0.00449950262 -0.168021689 0.151207527
v 0.00405111292 -0.168022987 0.151354944
v 0.00404291228 -0.168023885 0.151456864
v 0.00446196456 -0.168025796 0.151674071
v 0.00446330071 -0.168026338 0.151735635
v 0.00446609349 -0.16802688 0.15179715
v 0.00447034349 -0.168027421 0.151858582
v 0.00407270333 -0.168029659 0.152112874
v 0.004090108 -0.168030546 0.15221363
v 0.00455001307 -0.168031481 0.152319804
v 0.00456661771 -0.168032003 0.152379102
v 0.00458462327 -0.168032521 0.152437989
v 0.00460401721 -0.168033036 0.152496434
v 0.0042821118 -0.168036074 0.152841622
v 0.00432402691 -0.168036895 0.152934885
v 0.0047958896 -0.168036794 0.152923354
v 0.00482672014 -0.168037263 0.152976659
v 0.00485880483 -0.168037725 0.153029219
v 0.00489212394 -0.168038181 0.153081005
v 0.00466618086 -0.168041829 0.1534954
v 0.00472997362 -0.168042533 0.153575309
v 0.00518414373 -0.168041401 0.153446797
v 0.00522726275 -0.168041788 0.153490761
v 0.00527141086 -0.168042166 0.153533691
v 0.00531656345 -0.168042535 0.153575564
v 0.00520077699 -0.168046563 0.154033128
v 0.00528243957 -0.168047104 0.154094663
v 0.00569038093 -0.168045014 0.153857245
v 0.00574307894 -0.168045294 0.153889104
v 0.00579651663 -0.168045564 0.153919707
v 0.00585066332 -0.168045822 0.153949036
v 0.00585231102 -0.168049977 0.154421018
v 0.0059467126 -0.168050323 0.154460312
v 0.00628279083 -0.168047405 0.154128906
v 0.00634175724 -0.168047561 0.15414666
v 0.00640112606 -0.168047705 0.154163013
v 0.0059467126 -0.168050323 0.154460312
v 0.00594671118 -0.165925404 0.154479018
v 0.0062827897 -0.16634747 0.154143871
v 0.00628279083 -0.168047405 0.154128906
v 0.00722937815 -0.167941076 0.142050295
v 0.0100511533 -0.167945263 0.142526096
v 0.0126073151 -0.167956585 0.143812459
v 0.0146707368 -0.167974037 0.145795085
v 0.0160580744 -0.167996067 0.14829781
v 0.016646057 -0.168020719 0.151098254
v 0.0163824396 -0.168045802 0.153947587
v 0.015290646 -0.168069087 0.156592632
v 0.0134676864 -0.168088506 0.158798366
v 0.0110755396 -0.168102332 0.1603688
v 0.00832675758 -0.168109337 0.161164393
v 0.00546558156 -0.1681089 0.161114454
v 0.00274624089 -0.168101058 0.160223419
v 0.000410359377 -0.168086508 0.158570463
v -0.00133450976 -0.168066544 0.156302456
v -0.00233332599 -0.168042939 0.153620921
v -0.00249734036 -0.168017791 0.150764124
v -0.00181198006 -0.167993334 0.147985905
v -0.00033814182 -0.167971741 0.145533119
v 0.00179321762 -0.167954931 0.143623709
v 0.00439271632 -0.167944397 0.142427333
v -0.00253669869 -0.17012402 0.151462442
v -0.00215964588 -0.17014899 0.154298994
v -0.000963222653 -0.170171872 0.156898392
v 0.000946261208 -0.170190632 0.159029668
v 0.00339914086 -0.170203604 0.160503449
v 0.00617746877 -0.170209635 0.161188783
v 0.00903437618 -0.17020819 0.161024775
v 0.0117160149 -0.170199395 0.160025997
v 0.0139841098 -0.170184034 0.158281197
v 0.0156371306 -0.170163471 0.155945406
v 0.0165281993 -0.170139533 0.15322617
v 0.0165781404 -0.170114347 0.150365105
v 0.0157825163 -0.170090151 0.147616429
v 0.014212022 -0.170069095 0.145224375
v 0.0120062026 -0.170053049 0.143401487
v 0.00936105489 -0.17004344 0.142309735
v 0.00651161167 -0.170041122 0.142046128
v 0.0037110579 -0.170046299 0.142634088
v 0.00120823719 -0.170058513 0.144021372
v -0.000774465436 -0.170076678 0.146084713
v -0.00206087935 -0.17009918 0.148640776
v 0.0165281993 -0.170139533 0.15322617
v 0.0163824396 -0.168045802 0.153947587
v 0.00722588927 -0.170242748 0.14223001
v 0.00444832491 -0.170245999 0.142599194
v 0.00190298158 -0.170256313 0.143770645
v -0.000183973514 -0.170272773 0.145640276
v -0.00162710697 -0.170293916 0.148041962
v -0.00229818932 -0.170317864 0.150762302
v -0.0021375916 -0.170342488 0.153559582
v -0.00115958426 -0.170365601 0.156185251
v 0.000548933338 -0.17038515 0.158406008
v 0.00283614997 -0.170399396 0.160024528
v 0.00549883826 -0.170407075 0.160897
v 0.0083004062 -0.170407503 0.160945898
v 0.0109919225 -0.170400644 0.16016688
v 0.0133342329 -0.170387106 0.158629163
v 0.0151192139 -0.170368092 0.156469382
v 0.016188262 -0.170345292 0.153879442
v 0.0164463872 -0.170320731 0.151089471
v 0.0158706544 -0.170296593 0.148347369
v 0.0145122197 -0.170275021 0.145896784
v 0.0124917861 -0.170257933 0.143955463
v 0.00998887769 -0.170246847 0.142695899
v -0.00253669869 -0.17012402 0.151462442
v -0.00206087935 -0.17009918 0.148640776
v -0.000774465436 -0.170076678 0.146084713
v 0.00120823719 -0.170058513 0.144021372
v 0.0037110579 -0.170046299 0.142634088
v 0.00651161167 -0.170041122 0.142046128
v 0.00936105489 -0.17004344 0.142309735
v 0.0120062026 -0.170053049 0.143401487
v 0.014212022 -0.170069095 0.145224375
v 0.0157825163 -0.170090151 0.147616429
v 0.0165781404 -0.170114347 0.150365105
v 0.0165281993 -0.170139533 0.15322617
v 0.0156371306 -0.170163471 0.155945406
v 0.0139841098 -0.170184034 0.158281197
v 0.0117160149 -0.170199395 0.160025997
v 0.00903437618 -0.17020819 0.161024775
v 0.00617746877 -0.170209635 0.161188783
v 0.00339914086 -0.170203604 0.160503449
v 0.000946261208 -0.170190632 0.159029668
v -0.000963222653 -0.170171872 0.156898392
v -0.00215964588 -0.17014899 0.154298994
v 0.00903437618 -0.17020819 0.161024775
v 0.0083004062 -0.170407503 0.160945898
v 0.00722588759 -0.167742844 0.142252018
v 0.00444832324 -0.167746096 0.142621201
v 0.0019029811 -0.16775641 0.143792653
v -0.000183975186 -0.16777287 0.145662283
v -0.00162710744 -0.167794013 0.148063969
v -0.00229818979 -0.167817961 0.150784308
v -0.00213759207 -0.167842585 0.153581588
v -0.00115958473 -0.167865698 0.156207258
v 0.000548931687 -0.167885247 0.158428014
v 0.00283614952 -0.167899493 0.160046534
v 0.00549883662 -0.167907171 0.160919005
v 0.00830040456 -0.1679076 0.160967904
v 0.0109919203 -0.167900741 0.160188886
v 0.0133342306 -0.167887202 0.15865117
v 0.0151192115 -0.167868189 0.156491389
v 0.0161882594 -0.167845389 0.153901449
v 0.0164463847 -0.167820828 0.151111477
v 0.0158706519 -0.16779669 0.148369376
v 0.0145122172 -0.167775118 0.145918791
v 0.0124917838 -0.16775803 0.14397747
v 0.00998887602 -0.167746944 0.142717906
v 0.0140389589 -0.16783765 0.153022142
v 0.0131615994 -0.167834292 0.152640671
v 0.0128109643 -0.167826457 0.151750567
v 0.0131924506 -0.167818733 0.150873242
v 0.0140825891 -0.167815646 0.15052262
v 0.0149599483 -0.167819004 0.150904092
v 0.0153105834 -0.167826839 0.151794196
v 0.0149290971 -0.167834562 0.152671521
v 0.00716218756 -0.167774969 0.145901318
v 0.00628482843 -0.167771612 0.145519846
v 0.00593419302 -0.167763776 0.144629743
v 0.00631567964 -0.167756053 0.143752417
v 0.00720581775 -0.167752966 0.143401796
v 0.00808317688 -0.167756323 0.143783267
v 0.00843381228 -0.167764159 0.144673371
v 0.00805232568 -0.167771882 0.145550696
v 4.10874169e-05 -0.167835508 0.152777823
v -0.000836271713 -0.167832151 0.152396351
v -0.00118690711 -0.167824315 0.151506247
v -0.000805420509 -0.167816592 0.150628922
v 8.47176076e-05 -0.167813505 0.1502783
v 0.000962076737 -0.167816862 0.150659772
v 0.00131271214 -0.167824698 0.151549876
v 0.000931225534 -0.167832421 0.152427201
v 0.00691785843 -0.167898188 0.159898647
v 0.00604049929 -0.167894831 0.159517176
v 0.0056898639 -0.167886995 0.158627072
v 0.0060713505 -0.167879272 0.157749746
v 0.00696148862 -0.167876185 0.157399125
v 0.00783884775 -0.167879542 0.157780596
v 0.00818948315 -0.167887378 0.1586707
v 0.00780799654 -0.167895101 0.159548026
v 0.00176264556 -0.167824766 0.151557729
v 0.00220141842 -0.167806977 0.149536935
v 0.00338014752 -0.167792019 0.147837869
v 0.00511938006 -0.167782171 0.1467192
v 0.00715433409 -0.16777893 0.146351234
v 0.00917520644 -0.167782791 0.146789991
v 0.0108743378 -0.167793166 0.147968674
v 0.0119930505 -0.167808475 0.149707839
v 0.0123610309 -0.167826388 0.151742714
v 0.0119222572 -0.167844177 0.153763508
v 0.0107435287 -0.167859135 0.155462573
v 0.00900429611 -0.167868984 0.156581243
v 0.00696934209 -0.167872224 0.156949209
v 0.00494846973 -0.167868363 0.156510452
v 0.00324933842 -0.167857988 0.155331769
v 0.00213062504 -0.167842679 0.153592604
v 0.00954870157 -0.166332311 0.152422016
v 0.0100120329 -0.165906534 0.152335698
v 0.0100120343 -0.168031452 0.152316992
v 0.0095487027 -0.168032245 0.152407051
v 0.00965923324 -0.166326657 0.151779749
v 0.0100856105 -0.16589989 0.151581039
v 0.010085612 -0.168024809 0.151562334
v 0.00965923437 -0.168026591 0.151764785
v 0.00928191141 -0.166337545 0.153016617
v 0.00975308332 -0.165912807 0.15304835
v 0.00975308474 -0.168037726 0.153029645
v 0.00928191254 -0.16803748 0.153001653
v 0.00460401608 -0.166333101 0.152511399
v 0.00428211039 -0.165911156 0.152860328
v 0.0042821118 -0.168036074 0.152841622
v 0.00460401721 -0.168033036 0.152496434
v 0.00883854046 -0.168047119 0.154096622
v 0.00883853905 -0.165922201 0.154115327
v 0.00873879306 -0.166343123 0.153650261
v 0.00873879419 -0.168043058 0.153635296
v 0.0093939946 -0.166315515 0.150514104
v 0.00939399573 -0.16801545 0.150499139
v 0.00942056219 -0.168015939 0.150554693
v 0.00944580586 -0.168016434 0.15061086
v 0.00946971176 -0.168016933 0.150667609
v 0.00946971063 -0.166316998 0.150682573
v 0.00944580413 -0.166316499 0.150625824
v 0.00942056107 -0.166316004 0.150569657
v 0.00722588759 -0.167742844 0.142252018
v 0.00998887602 -0.167746944 0.142717906
v 0.0124917838 -0.16775803 0.14397747
v 0.0145122172 -0.167775118 0.145918791
v 0.0158706519 -0.16779669 0.148369376
v 0.0164463847 -0.167820828 0.151111477
v 0.0161882594 -0.167845389 0.153901449
v 0.0151192115 -0.167868189 0.156491389
v 0.0133342306 -0.167887202 0.15865117
v 0.0109919203 -0.167900741 0.160188886
v 0.00830040456 -0.1679076 0.160967904
v 0.00549883662 -0.167907171 0.160919005
v 0.00283614952 -0.167899493 0.160046534
v 0.000548931687 -0.167885247 0.158428014
v -0.00115958473 -0.167865698 0.156207258
v -0.00213759207 -0.167842585 0.153581588
v -0.00229818979 -0.167817961 0.150784308
v -0.00162710744 -0.167794013 0.148063969
v -0.000183975186 -0.16777287 0.145662283
v 0.0019029811 -0.16775641 0.143792653
v 0.00444832324 -0.167746096 0.142621201
v 0.00722937815 -0.167941076 0.142050295
v 0.00439271632 -0.167944397 0.142427333
v 0.00179321762 -0.167954931 0.143623709
v -0.00033814182 -0.167971741 0.145533119
v -0.00181198006 -0.167993334 0.147985905
v -0.00249734036 -0.168017791 0.150764124
v -0.00233332599 -0.168042939 0.153620921
v -0.00133450976 -0.168066544 0.156302456
v 0.000410359377 -0.168086508 0.158570463
v 0.00274624089 -0.168101058 0.160223419
v 0.00546558156 -0.1681089 0.161114454
v 0.00832675758 -0.168109337 0.161164393
v 0.0110755396 -0.168102332 0.1603688
v 0.0134676864 -0.168088506 0.158798366
v 0.015290646 -0.168069087 0.156592632
v 0.0163824396 -0.168045802 0.153947587
v 0.016646057 -0.168020719 0.151098254
v 0.0160580744 -0.167996067 0.14829781
v 0.0146707368 -0.167974037 0.145795085
v 0.0126073151 -0.167956585 0.143812459
v 0.0100511533 -0.167945263 0.142526096
v 0.00549883662 -0.167907171 0.160919005
v 0.00546558156 -0.1681089 0.161114454
v 0.00932503358 -0.165918317 0.153674218
v 0.00939157692 -0.165917634 0.153596583
v 0.00939157833 -0.168042552 0.153577877
v 0.00932503499 -0.168043236 0.153655512
v 0.00920711233 -0.165881876 0.149534547
v 0.00913380609 -0.165881248 0.149463263
v 0.0091338075 -0.168006167 0.149444557
v 0.00920711374 -0.168006794 0.149515842
v 0.00965923324 -0.166326657 0.151779749
v 0.00965923437 -0.168026591 0.151764785
v 0.00965575103 -0.168027133 0.151826264
v 0.00965081247 -0.168027673 0.151887645
v 0.00964442108 -0.168028212 0.151948891
v 0.00964441995 -0.166328277 0.151963855
v 0.00965081134 -0.166327738 0.151902609
v 0.0096557499 -0.166327198 0.151841229
v 0.00722588927 -0.170242748 0.14223001
v 0.00998887769 -0.170246847 0.142695899
v 0.0124917861 -0.170257933 0.143955463
v 0.0145122197 -0.170275021 0.145896784
v 0.0158706544 -0.170296593 0.148347369
v 0.0164463872 -0.170320731 0.151089471
v 0.016188262 -0.170345292 0.153879442
v 0.0151192139 -0.170368092 0.156469382
v 0.0133342329 -0.170387106 0.158629163
v 0.0109919225 -0.170400644 0.16016688
v 0.0083004062 -0.170407503 0.160945898
v 0.00549883826 -0.170407075 0.160897
v 0.00283614997 -0.170399396 0.160024528
v 0.000548933338 -0.17038515 0.158406008
v -0.00115958426 -0.170365601 0.156185251
v -0.0021375916 -0.170342488 0.153559582
v -0.00229818932 -0.170317864 0.150762302
v -0.00162710697 -0.170293916 0.148041962
v -0.000183973514 -0.170272773 0.145640276
v 0.00190298158 -0.170256313 0.143770645
v 0.00444832491 -0.170245999 0.142599194
v 0.0140389605 -0.170337553 0.153000136
v 0.0149290988 -0.170334466 0.152649514
v 0.0153105851 -0.170326742 0.151772189
v 0.01495995 -0.170318907 0.150882085
v 0.0140825907 -0.170315549 0.150500613
v 0.0131924523 -0.170318636 0.150851235
v 0.012810966 -0.17032636 0.15172856
v 0.0131616011 -0.170334195 0.152618664
v 0.00716218922 -0.170274872 0.145879312
v 0.00805232734 -0.170271785 0.14552869
v 0.00843381394 -0.170264062 0.144651365
v 0.00808317854 -0.170256227 0.14376126
v 0.00720581941 -0.170252869 0.143379789
v 0.0063156813 -0.170255956 0.14373041
v 0.00593419469 -0.17026368 0.144607736
v 0.00628483009 -0.170271515 0.14549784
v 4.10890782e-05 -0.170335411 0.152755816
v 0.000931227195 -0.170332324 0.152405194
v 0.0013127138 -0.170324601 0.151527869
v 0.000962078398 -0.170316765 0.150637765
v 8.47192689e-05 -0.170313408 0.150256294
v -0.000805418848 -0.170316495 0.150606915
v -0.00118690545 -0.170324218 0.151484241
v -0.000836270051 -0.170332054 0.152374344
v 0.00691786009 -0.170398091 0.15987664
v 0.0078079982 -0.170395004 0.159526019
v 0.00818948481 -0.170387281 0.158648693
v 0.00783884941 -0.170379446 0.15775859
v 0.00696149028 -0.170376088 0.157377118
v 0.00607135216 -0.170379175 0.15772774
v 0.00568986556 -0.170386899 0.158605065
v 0.00604050095 -0.170394734 0.159495169
v 0.00546208376 -0.170325236 0.151600292
v 0.00581840708 -0.170334345 0.152635089
v 0.00675654544 -0.170339306 0.153198757
v 0.00783753544 -0.170337798 0.153027552
v 0.00855556852 -0.170330527 0.152201581
v 0.0085746692 -0.170320894 0.151107325
v 0.00788590005 -0.170313407 0.1502568
v 0.00681154365 -0.17031157 0.150047975
v 0.00585430461 -0.170316241 0.150578561
v 0.00967009588 -0.165887161 0.150135035
v 0.00961682116 -0.165886393 0.150047761
v 0.00961682258 -0.168011312 0.150029055
v 0.00967009729 -0.16801208 0.150116329
v 0.00716574049 -0.165874038 0.148644069
v 0.0071146218 -0.165874464 0.148643173
v 0.00706350311 -0.165874022 0.148642284
v 0.00706350452 -0.167998941 0.148623578
v 0.0071657419 -0.167998957 0.148625363
v 0.00716218756 -0.167774969 0.145901318
v 0.00805232568 -0.167771882 0.145550696
v 0.00843381228 -0.167764159 0.144673371
v 0.00808317688 -0.167756323 0.143783267
v 0.00720581775 -0.167752966 0.143401796
v 0.00631567964 -0.167756053 0.143752417
v 0.00593419302 -0.167763776 0.144629743
v 0.00628482843 -0.167771612 0.145519846
v 0.00716218922 -0.170274872 0.145879312
v 0.00628483009 -0.170271515 0.14549784
v 0.00593419469 -0.17026368 0.144607736
v 0.0063156813 -0.170255956 0.14373041
v 0.00720581941 -0.170252869 0.143379789
v 0.00808317854 -0.170256227 0.14376126
v 0.00843381394 -0.170264062 0.144651365
v 0.00805232734 -0.170271785 0.14552869
v 0.00720581941 -0.170252869 0.143379789
v 0.00720581775 -0.167752966 0.143401796
v 0.00606117619 -0.166304511 0.149263794
v 0.00569644368 -0.16587689 0.148967952
v 0.00569644509 -0.168001809 0.148949246
v 0.00606117732 -0.168004446 0.149248829
v 0.00668105161 -0.168051986 0.154649282
v 0.00668105019 -0.165927067 0.154667988
v 0.00692415057 -0.166348489 0.154259677
v 0.0069241517 -0.168048424 0.154244712
v 0.00979823041 -0.168036918 0.152937901
v 0.009798229 -0.165912 0.152956607
v 0.00948856709 -0.166333848 0.152596654
v 0.00948856822 -0.168033783 0.152581689
v 0.00961682258 -0.168011312 0.150029055
v 0.00961682116 -0.165886393 0.150047761
v 0.00915012551 -0.166311999 0.150114598
v 0.00915012664 -0.168011933 0.150099633
v 0.0091338075 -0.168006167 0.149444557
v 0.00913380609 -0.165881248 0.149463263
v 0.00869932548 -0.166307856 0.149643941
v 0.00869932661 -0.168007791 0.149628977
v 0.00585066219 -0.166345887 0.153964001
v 0.00585230961 -0.165925058 0.154439724
v 0.00585231102 -0.168049977 0.154421018
v 0.00585066332 -0.168045822 0.153949036
v 0.00903488957 -0.166310728 0.14997025
v 0.00920711233 -0.165881876 0.149534547
v 0.00920711374 -0.168006794 0.149515842
v 0.0090348907 -0.168010663 0.149955286
v 0.00585066219 -0.166345887 0.153964001
v 0.00585066332 -0.168045822 0.153949036
v 0.00579651663 -0.168045564 0.153919707
v 0.00574307894 -0.168045294 0.153889104
v 0.00569038093 -0.168045014 0.153857245
v 0.0056903798 -0.166345079 0.153872209
v 0.00574307781 -0.16634536 0.153904069
v 0.0057965155 -0.166345629 0.153934672
v 0.00791431923 -0.165875101 0.148764884
v 0.00781573783 -0.165874862 0.148737731
v 0.00781573924 -0.167999781 0.148719025
v 0.00791432064 -0.16800002 0.148746178
v 4.10874169e-05 -0.167835508 0.152777823
v 0.000931225534 -0.167832421 0.152427201
v 0.00131271214 -0.167824698 0.151549876
v 0.000962076737 -0.167816862 0.150659772
v 8.47176076e-05 -0.167813505 0.1502783
v -0.000805420509 -0.167816592 0.150628922
v -0.00118690711 -0.167824315 0.151506247
v -0.000836271713 -0.167832151 0.152396351
v 4.10890782e-05 -0.170335411 0.152755816
v -0.000836270051 -0.170332054 0.152374344
v -0.00118690545 -0.170324218 0.151484241
v -0.000805418848 -0.170316495 0.150606915
v 8.47192689e-05 -0.170313408 0.150256294
v 0.000962078398 -0.170316765 0.150637765
v 0.0013127138 -0.170324601 0.151527869
v 0.000931227195 -0.170332324 0.152405194
v 8.47192689e-05 -0.170313408 0.150256294
v 8.47176076e-05 -0.167813505 0.1502783
v 0.00887562551 -0.166342031 0.153526193
v 0.00932503358 -0.165918317 0.153674218
v 0.00932503499 -0.168043236 0.153655512
v 0.00887562664 -0.168041966 0.153511228
v 0.0093939946 -0.166315515 0.150514104
v 0.00967009588 -0.165887161 0.150135035
v 0.00967009729 -0.16801208 0.150116329
v 0.00939399573 -0.16801545 0.150499139
v 0.00797511118 -0.166304205 0.149229196
v 0.00791431923 -0.165875101 0.148764884
v 0.00791432064 -0.16800002 0.148746178
v 0.00797511231 -0.16800414 0.149214232
v 0.0100120329 -0.165906534 0.152335698
v 0.0100329428 -0.165905653 0.15223561
v 0.0100329442 -0.168030571 0.152216904
v 0.0100120343 -0.168031452 0.152316992
v 0.00835537258 -0.166345487 0.153918724
v 0.00875477804 -0.165922717 0.154173975
v 0.00875477945 -0.168047636 0.154155269
v 0.00835537371 -0.168045422 0.15390376
v 0.00993929883 -0.168017353 0.150715306
v 0.00993929742 -0.165892434 0.150734011
v 0.00946971063 -0.166316998 0.150682573
v 0.00946971176 -0.168016933 0.150667609
v 0.00447034236 -0.166327486 0.151873546
v 0.00447034349 -0.168027421 0.151858582
v 0.00446609349 -0.16802688 0.15179715
v 0.00446330071 -0.168026338 0.151735635
v 0.00446196456 -0.168025796 0.151674071
v 0.00446196343 -0.166325861 0.151689036
v 0.00446329958 -0.166326403 0.1517506
v 0.00446609236 -0.166326945 0.151812115
v 0.0100329442 -0.168030571 0.152216904
v 0.0100329428 -0.165905653 0.15223561
v 0.00964441995 -0.166328277 0.151963855
v 0.00964442108 -0.168028212 0.151948891
v 0.00489212281 -0.166338246 0.15309597
v 0.00466617945 -0.165916911 0.153514106
v 0.00466618086 -0.168041829 0.1534954
v 0.00489212394 -0.168038181 0.153081005
v 0.00428211039 -0.165911156 0.152860328
v 0.0043240255 -0.165911977 0.152953591
v 0.00432402691 -0.168036895 0.152934885
v 0.0042821118 -0.168036074 0.152841622
v 0.00807814962 -0.16592573 0.15451622
v 0.00817386386 -0.165925413 0.154480244
v 0.00817386527 -0.168050332 0.154461539
v 0.00807815103 -0.168050649 0.154497514
v 0.00646086533 -0.166347902 0.154192919
v 0.00657984339 -0.165926939 0.154653404
v 0.0065798448 -0.168051857 0.154634699
v 0.00646086646 -0.168047837 0.154177955
v 0.0140389589 -0.16783765 0.153022142
v 0.0149290971 -0.167834562 0.152671521
v 0.0153105834 -0.167826839 0.151794196
v 0.0149599483 -0.167819004 0.150904092
v 0.0140825891 -0.167815646 0.15052262
v 0.0131924506 -0.167818733 0.150873242
v 0.0128109643 -0.167826457 0.151750567
v 0.0131615994 -0.167834292 0.152640671
v 0.0140389605 -0.170337553 0.153000136
v 0.0131616011 -0.170334195 0.152618664
v 0.012810966 -0.17032636 0.15172856
v 0.0131924523 -0.170318636 0.150851235
v 0.0140825907 -0.170315549 0.150500613
v 0.01495995 -0.170318907 0.150882085
v 0.0153105851 -0.170326742 0.151772189
v 0.0149290988 -0.170334466 0.152649514
v 0.0140825907 -0.170315549 0.150500613
v 0.0140825891 -0.167815646 0.15052262
v 0.00887562551 -0.166342031 0.153526193
v 0.00887562664 -0.168041966 0.153511228
v 0.00883099954 -0.16804234 0.153553661
v 0.00878538004 -0.168042704 0.153595024
v 0.00873879419 -0.168043058 0.153635296
v 0.00873879306 -0.166343123 0.153650261
v 0.00878537891 -0.166342769 0.153609989
v 0.00883099841 -0.166342405 0.153568625
v 0.0040511115 -0.165898069 0.15137365
v 0.00404291087 -0.165898966 0.15147557
v 0.00404291228 -0.168023885 0.151456864
v 0.00405111292 -0.168022987 0.151354944
v 0.00797511118 -0.166304205 0.149229196
v 0.00797511231 -0.16800414 0.149214232
v 0.00803250943 -0.168004336 0.149236543
v 0.0080893613 -0.168004545 0.149260207
v 0.00814563717 -0.168004765 0.149285211
v 0.00814563544 -0.16630483 0.149300176
v 0.00808936017 -0.16630461 0.149275172
v 0.0080325077 -0.166304401 0.149251508
v 0.00606117619 -0.166304511 0.149263794
v 0.00606117732 -0.168004446 0.149248829
v 0.00611829215 -0.168004243 0.149225804
v 0.00617593528 -0.168004052 0.149204138
v 0.0062340755 -0.168003874 0.149183844
v 0.00623407437 -0.166303939 0.149198808
v 0.00617593415 -0.166304117 0.149219103
v 0.00611828983 -0.166304308 0.149240769
v 0.00706350311 -0.165874022 0.148642284
v 0.0071146218 -0.165874464 0.148643173
v 0.00716574049 -0.165874038 0.148644069
v 0.0073410273 -0.166302879 0.149078559
v 0.00740216963 -0.166302944 0.149085896
v 0.00746312098 -0.166303021 0.149094679
v 0.00752384747 -0.166303111 0.149104903
v 0.00781573783 -0.165874862 0.148737731
v 0.00791431923 -0.165875101 0.148764884
v 0.00797511118 -0.166304205 0.149229196
v 0.0080325077 -0.166304401 0.149251508
v 0.00808936017 -0.16630461 0.149275172
v 0.00814563544 -0.16630483 0.149300176
v 0.00852060191 -0.165877322 0.149017245
v 0.00860933342 -0.16587777 0.14906806
v 0.00855181056 -0.166306877 0.149532786
v 0.00860185527 -0.166307193 0.149568669
v 0.00865103593 -0.166307519 0.149605728
v 0.00869932548 -0.166307856 0.149643941
v 0.00913380609 -0.165881248 0.149463263
v 0.00920711233 -0.165881876 0.149534547
v 0.00903488957 -0.166310728 0.14997025
v 0.00907443785 -0.166311143 0.150017452
v 0.00911285703 -0.166311567 0.150065577
v 0.00915012551 -0.166311999 0.150114598
v 0.00961682116 -0.165886393 0.150047761
v 0.00967009588 -0.165887161 0.150135035
v 0.0093939946 -0.166315515 0.150514104
v 0.00942056107 -0.166316004 0.150569657
v 0.00944580413 -0.166316499 0.150625824
v 0.00946971063 -0.166316998 0.150682573
v 0.00993929742 -0.165892434 0.150734011
v 0.00996919304 -0.165893295 0.150831792
v 0.00960656102 -0.166320938 0.151130173
v 0.00961847721 -0.16632147 0.151190588
v 0.00962895864 -0.166322004 0.151251268
v 0.00963799993 -0.166322541 0.151312179
v 0.0100809719 -0.165898991 0.151478896
v 0.0100856105 -0.16589989 0.151581039
v 0.00965923324 -0.166326657 0.151779749
v 0.0096557499 -0.166327198 0.151841229
v 0.00965081134 -0.166327738 0.151902609
v 0.00964441995 -0.166328277 0.151963855
v 0.0100329428 -0.165905653 0.15223561
v 0.0100120329 -0.165906534 0.152335698
v 0.00954870157 -0.166332311 0.152422016
v 0.00953003755 -0.166332827 0.152480698
v 0.00950998896 -0.16633334 0.152538922
v 0.00948856709 -0.166333848 0.152596654
v 0.009798229 -0.165912 0.152956607
v 0.00975308332 -0.165912807 0.15304835
v 0.00928191141 -0.166337545 0.153016617
v 0.00924923929 -0.166338004 0.153068814
v 0.00921534037 -0.166338457 0.153120223
v 0.00918023304 -0.166338902 0.153170815
v 0.00939157692 -0.165917634 0.153596583
v 0.00932503358 -0.165918317 0.153674218
v 0.00887562551 -0.166342031 0.153526193
v 0.00883099841 -0.166342405 0.153568625
v 0.00878537891 -0.166342769 0.153609989
v 0.00873879306 -0.166343123 0.153650261
v 0.00883853905 -0.165922201 0.154115327
v 0.00875477804 -0.165922717 0.154173975
v 0.00835537258 -0.166345487 0.153918724
v 0.00830159476 -0.166345751 0.153948725
v 0.00824712157 -0.166346004 0.153977445
v 0.0081919831 -0.166346245 0.154004866
v 0.00817386386 -0.165925413 0.154480244
v 0.00807814962 -0.16592573 0.15451622
v 0.00775384191 -0.166347695 0.154169547
v 0.00769429241 -0.166347833 0.154185232
v 0.00763438785 -0.166347959 0.154199503
v 0.00757416237 -0.166348072 0.154212351
v 0.00743931635 -0.16592707 0.154668406
v 0.00733766164 -0.165927168 0.154679449
v 0.00710883008 -0.166348517 0.1542629
v 0.00704725075 -0.166348521 0.154263284
v 0.00698567899 -0.166348511 0.154262209
v 0.00692415057 -0.166348489 0.154259677
v 0.00668105019 -0.165927067 0.154667988
v 0.00657984339 -0.165926939 0.154653404
v 0.00646086533 -0.166347902 0.154192919
v 0.00640112493 -0.16634777 0.154177977
v 0.00634175611 -0.166347626 0.154161625
v 0.0062827897 -0.16634747 0.154143871
v 0.00594671118 -0.165925404 0.154479018
v 0.00585230961 -0.165925058 0.154439724
v 0.00585066219 -0.166345887 0.153964001
v 0.0057965155 -0.166345629 0.153934672
v 0.00574307781 -0.16634536 0.153904069
v 0.0056903798 -0.166345079 0.153872209
v 0.00528243816 -0.165922186 0.154113368
v 0.00520077558 -0.165921644 0.154051834
v 0.00531656232 -0.1663426 0.153590529
v 0.00527140973 -0.166342231 0.153548656
v 0.00522726162 -0.166341853 0.153505726
v 0.0051841426 -0.166341466 0.153461762
v 0.00472997221 -0.165917614 0.153594015
v 0.00466617945 -0.165916911 0.153514106
v 0.00489212281 -0.166338246 0.15309597
v 0.0048588037 -0.166337791 0.153044184
v 0.00482671901 -0.166337328 0.152991624
v 0.00479588847 -0.166336859 0.152938318
v 0.0043240255 -0.165911977 0.152953591
v 0.00428211039 -0.165911156 0.152860328
v 0.00460401608 -0.166333101 0.152511399
v 0.00458462214 -0.166332586 0.152452954
v 0.00456661658 -0.166332068 0.152394066
v 0.00455001194 -0.166331546 0.152334768
v 0.00409010659 -0.165905628 0.152232336
v 0.00407270191 -0.165904741 0.152131579
v 0.00447034236 -0.166327486 0.151873546
v 0.00446609236 -0.166326945 0.151812115
v 0.00446329958 -0.166326403 0.1517506
v 0.00446196343 -0.166325861 0.151689036
v 0.00404291087 -0.165898966 0.15147557
v 0.0040511115 -0.165898069 0.15137365
v 0.00449950148 -0.166321754 0.151222492
v 0.00451066308 -0.166321221 0.151161933
v 0.00452325646 -0.166320691 0.151101656
v 0.00453727388 -0.166320163 0.151041694
v 0.00418540571 -0.16589241 0.150730842
v 0.00421869689 -0.165891559 0.150634164
v 0.00468966223 -0.166316267 0.150599142
v 0.00471553472 -0.166315775 0.150543262
v 0.00474272324 -0.166315289 0.15048801
v 0.00477121175 -0.166314808 0.150433418
v 0.00450863824 -0.165886372 0.150044947
v 0.0045649264 -0.16588562 0.149959584
v 0.00502887512 -0.166311368 0.150042666
v 0.00506783175 -0.166310948 0.149994975
v 0.00510790709 -0.166310537 0.14994822
v 0.00514907802 -0.166310133 0.149902427
v 0.0049922969 -0.165881231 0.149460982
v 0.00506804632 -0.165880626 0.149392299
v 0.00549582716 -0.166307366 0.149588027
v 0.00554542034 -0.166307044 0.149551523
v 0.0055958644 -0.166306733 0.149516203
v 0.00564713037 -0.166306433 0.149482087
v 0.00560599277 -0.16587731 0.149015639
v 0.00569644368 -0.16587689 0.148967952
v 0.00606117619 -0.166304511 0.149263794
v 0.00611828983 -0.166304308 0.149240769
v 0.00617593415 -0.166304117 0.149219103
v 0.00623407437 -0.166303939 0.149198808
v 0.0063111645 -0.165874856 0.148736902
v 0.00641063348 -0.165874647 0.148713206
v 0.00668940167 -0.166302984 0.149090338
v 0.00675044679 -0.166302912 0.14908224
v 0.00681166814 -0.166302854 0.149075589
v 0.00687302868 -0.166302808 0.14907039
v 0.0071159382 -0.16579837 0.148568419
v 0.00708974282 -0.165798367 0.148568073
v 0.00706354477 -0.165798366 0.148567947
v 0.00672703788 -0.165798526 0.148586078
v 0.00639448794 -0.165799006 0.148640628
v 0.00634341752 -0.165799109 0.148652339
v 0.00629255262 -0.16579922 0.148664911
v 0.00597112704 -0.165800111 0.148766155
v 0.00566258992 -0.165801305 0.148901689
v 0.00561603756 -0.165801516 0.148925732
v 0.00556989717 -0.165801735 0.148950559
v 0.00528374899 -0.165803302 0.149128554
v 0.00501861308 -0.165805133 0.149336557
v 0.00497950238 -0.16580544 0.149371422
v 0.0049409859 -0.165805753 0.149406943
v 0.00470809552 -0.165807897 0.149650506
v 0.00450301968 -0.165810251 0.149917908
v 0.00447380801 -0.165810634 0.149961403
v 0.00444533538 -0.165811021 0.150005387
v 0.00428033563 -0.165813608 0.150299213
v 0.00414820476 -0.165816337 0.150609212
v 0.00413072943 -0.165816772 0.150658606
v 0.00411408962 -0.165817209 0.150708287
v 0.00402734768 -0.165820076 0.151033915
v 0.00397646499 -0.165823008 0.151367033
v 0.00397182221 -0.165823468 0.151419221
v 0.00396806167 -0.165823928 0.151471479
v 0.0039650281 -0.165826894 0.151808448
v 0.00399859059 -0.165829846 0.152143754
v 0.00400707249 -0.165830301 0.152195457
v 0.00401642619 -0.165830755 0.152247009
v 0.0040972929 -0.165833634 0.152574145
v 0.00421319079 -0.16583642 0.152890571
v 0.00423426509 -0.165836842 0.15293854
v 0.00425614574 -0.165837261 0.152986146
v 0.00441583001 -0.165839873 0.153282895
v 0.00460678218 -0.165842318 0.153560558
v 0.00463912441 -0.16584268 0.153601779
v 0.00467215707 -0.165843038 0.153642449
v 0.00490062588 -0.165845219 0.153890164
v 0.00515463379 -0.165847168 0.154111618
v 0.00519621103 -0.165847449 0.154143502
v 0.00523832164 -0.165847723 0.154174678
v 0.00552121866 -0.165849335 0.154357796
v 0.00582232218 -0.165850667 0.154509125
v 0.00587052255 -0.165850848 0.154529668
v 0.00591906269 -0.165851021 0.154549393
v 0.00623861403 -0.165851963 0.154656407
v 0.00656789322 -0.165852594 0.154728104
v 0.00661968822 -0.165852664 0.154736014
v 0.00667160941 -0.165852726 0.154743049
v 0.00700773532 -0.165852938 0.154767235
v 0.00734450057 -0.165852829 0.154754793
v 0.00739663563 -0.165852783 0.154749575
v 0.00744867517 -0.165852729 0.154743477
v 0.007780256 -0.165852199 0.154683315
v 0.0081033469 -0.165851356 0.154587518
v 0.00815254707 -0.165851197 0.154569499
v 0.00820143503 -0.165851031 0.15455065
v 0.00850763596 -0.165849792 0.154409921
v 0.00879675209 -0.165848268 0.154236787
v 0.00883992452 -0.165848006 0.154207099
v 0.00888258919 -0.165847738 0.154176686
v 0.00914417114 -0.165845868 0.153964231
v 0.0093811455 -0.165843759 0.153724639
v 0.00941557859 -0.165843411 0.153685148
v 0.00944933917 -0.165843058 0.15364508
v 0.00964986551 -0.165840674 0.15337425
v 0.0098198085 -0.165838112 0.153083255
v 0.00984333788 -0.1658377 0.153036441
v 0.00986607288 -0.165837285 0.152989236
v 0.00999294468 -0.165834536 0.152677048
v 0.0100851781 -0.165831683 0.152352933
v 0.0100963258 -0.165831232 0.152301739
v 0.010106607 -0.16583078 0.152250364
v 0.0101518513 -0.165827841 0.151916433
v 0.0101605798 -0.165824875 0.151579564
v 0.0101586454 -0.165824414 0.151527206
v 0.0101558262 -0.165823954 0.151474888
v 0.010116601 -0.165821007 0.151140197
v 0.0100412764 -0.165818116 0.150811741
v 0.0100263812 -0.165817674 0.150761509
v 0.0100106392 -0.165817234 0.150711535
v 0.00988940842 -0.165814466 0.150397114
v 0.00973476377 -0.165811831 0.150097709
v 0.00970784351 -0.165811435 0.150052759
v 0.00968016823 -0.165811043 0.15000827
v 0.0094845497 -0.165808628 0.149733874
v 0.00926030097 -0.165806414 0.149482333
v 0.00922304764 -0.165806089 0.149445489
v 0.00918517755 -0.165805771 0.149409281
v 0.00892746249 -0.165803859 0.149192152
v 0.00864770069 -0.165802206 0.149004279
v 0.00860245486 -0.165801973 0.148977857
v 0.00855676937 -0.165801747 0.148952205
v 0.00825315156 -0.16580046 0.148805986
v 0.00793545521 -0.165799471 0.148693586
v 0.00788505948 -0.165799345 0.148679247
v 0.00783442948 -0.165799226 0.14866576
v 0.00750398529 -0.165798645 0.148599639
v 0.00716831616 -0.165798382 0.148569776
v 0.00715522401 -0.165798378 0.148569354
v 0.0071421303 -0.165798375 0.148568987
v 0.00712903503 -0.165798372 0.148568675
v 0.00704725075 -0.166348521 0.154263284
v 0.00700773532 -0.165852938 0.154767235
v 0.00852060333 -0.168002241 0.148998539
v 0.00852060191 -0.165877322 0.149017245
v 0.00814563544 -0.16630483 0.149300176
v 0.00814563717 -0.168004765 0.149285211
v 0.00996919304 -0.165893295 0.150831792
v 0.00993929742 -0.165892434 0.150734011
v 0.00993929883 -0.168017353 0.150715306
v 0.00996919445 -0.168018213 0.150813087
v 0.00657984339 -0.165926939 0.154653404
v 0.00668105019 -0.165927067 0.154667988
v 0.00668105161 -0.168051986 0.154649282
v 0.0065798448 -0.168051857 0.154634699
v 0.00928191141 -0.166337545 0.153016617
v 0.00928191254 -0.16803748 0.153001653
v 0.00924924042 -0.168037939 0.15305385
v 0.0092153415 -0.168038392 0.153105259
v 0.00918023417 -0.168038837 0.15315585
v 0.00918023304 -0.166338902 0.153170815
v 0.00921534037 -0.166338457 0.153120223
v 0.00924923929 -0.166338004 0.153068814
v 0.00743931777 -0.168051989 0.1546497
v 0.00743931635 -0.16592707 0.154668406
v 0.00757416237 -0.166348072 0.154212351
v 0.0075741635 -0.168048007 0.154197386
v 0.0045649264 -0.16588562 0.149959584
v 0.00450863824 -0.165886372 0.150044947
v 0.00450863965 -0.16801129 0.150026241
v 0.00456492781 -0.168010539 0.149940879
v 0.00549582716 -0.166307366 0.149588027
v 0.00549582829 -0.1680073 0.149573063
v 0.00554542147 -0.168006979 0.149536558
v 0.00559586553 -0.168006668 0.149501238
v 0.0056471315 -0.168006368 0.149467122
v 0.00564713037 -0.166306433 0.149482087
v 0.0055958644 -0.166306733 0.149516203
v 0.00554542034 -0.166307044 0.149551523
v 0.00466617945 -0.165916911 0.153514106
v 0.00472997221 -0.165917614 0.153594015
v 0.00472997362 -0.168042533 0.153575309
v 0.00466618086 -0.168041829 0.1534954
v 0.00560599418 -0.168002229 0.148996933
v 0.00560599277 -0.16587731 0.149015639
v 0.00564713037 -0.166306433 0.149482087
v 0.0056471315 -0.168006368 0.149467122
f 28 29 27
f 27 29 30
f 31 32 38
f 38 32 33
f 38 33 37
f 37 33 34
f 37 34 36
f 36 34 35
f 40 41 39
f 39 41 42
f 44 45 43
f 43 45 46
f 48 49 47
f 47 49 50
f 52 53 51
f 51 53 54
f 56 57 55
f 55 57 58
f 59 60 66
f 66 60 61
f 66 61 65
f 65 61 62
f 65 62 64
f 64 62 63
f 68 69 67
f 67 69 70
f 72 73 71
f 71 73 74
f 76 77 75
f 75 77 78
f 79 80 86
f 86 80 81
f 86 81 85
f 85 81 82
f 85 82 84
f 84 82 83
f 87 88 94
f 94 88 89
f 94 89 93
f 93 89 90
f 93 90 92
f 92 90 91
f 95 96 102
f 102 96 97
f 102 97 101
f 101 97 98
f 101 98 100
f 100 98 99
f 104 105 103
f 103 105 106
f 108 109 107
f 107 109 110
f 111 112 118
f 118 112 113
f 118 113 117
f 117 113 114
f 117 114 116
f 116 114 115
f 120 121 119
f 119 121 122
f 124 125 123
f 123 125 126
f 128 129 127
f 127 129 130
f 131 132 138
f 138 132 133
f 138 133 137
f 137 133 134
f 137 134 136
f 136 134 135
f 140 141 139
f 139 141 142
f 144 259 143
f 143 259 260
f 143 260 261
f 145 252 144
f 144 252 253
f 144 253 254
f 146 247 145
f 145 247 248
f 145 248 249
f 147 240 146
f 146 240 241
f 146 241 242
f 148 234 147
f 147 234 235
f 147 235 236
f 149 228 148
f 148 228 229
f 148 229 230
f 150 221 149
f 149 221 222
f 149 222 223
f 151 215 150
f 150 215 216
f 150 216 217
f 152 209 151
f 151 209 210
f 151 210 211
f 153 203 152
f 152 203 204
f 152 204 205
f 154 196 153
f 153 196 197
f 153 197 198
f 155 190 154
f 154 190 191
f 154 191 192
f 156 184 155
f 155 184 185
f 155 185 186
f 157 177 156
f 156 177 178
f 156 178 179
f 158 172 157
f 157 172 173
f 157 173 174
f 143 165 158
f 158 165 166
f 158 166 167
f 262 159 143
f 143 159 160
f 143 160 161
f 161 162 143
f 143 162 163
f 143 163 164
f 164 165 143
f 167 168 158
f 158 168 169
f 158 169 170
f 170 171 158
f 158 171 172
f 174 175 157
f 157 175 176
f 157 176 177
f 179 180 156
f 156 180 181
f 156 181 182
f 182 183 156
f 156 183 184
f 186 187 155
f 155 187 188
f 155 188 189
f 189 190 155
f 192 193 154
f 154 193 194
f 154 194 195
f 195 196 154
f 198 199 153
f 153 199 200
f 153 200 201
f 201 202 153
f 153 202 203
f 205 206 152
f 152 206 207
f 152 207 208
f 208 209 152
f 211 212 151
f 151 212 213
f 151 213 214
f 214 215 151
f 217 218 150
f 150 218 219
f 150 219 220
f 220 221 150
f 223 224 149
f 149 224 225
f 149 225 226
f 226 227 149
f 149 227 228
f 230 231 148
f 148 231 232
f 148 232 233
f 233 234 148
f 236 237 147
f 147 237 238
f 147 238 239
f 239 240 147
f 242 243 146
f 146 243 244
f 146 244 245
f 245 246 146
f 146 246 247
f 249 250 145
f 145 250 251
f 145 251 252
f 254 255 144
f 144 255 256
f 144 256 257
f 257 258 144
f 144 258 259
f 261 262 143
f 264 265 263
f 263 265 266
f 268 269 267
f 267 269 270
f 272 273 271
f 271 273 274
f 276 277 275
f 275 277 278
f 279 280 286
f 286 280 281
f 286 281 285
f 285 281 282
f 285 282 284
f 284 282 283
f 287 288 294
f 294 288 289
f 294 289 293
f 293 289 290
f 293 290 292
f 292 290 291
f 295 296 302
f 302 296 297
f 302 297 301
f 301 297 298
f 301 298 300
f 300 298 299
f 304 305 303
f 303 305 306
f 308 309 307
f 307 309 310
f 312 419 311
f 311 419 420
f 311 420 421
f 313 411 312
f 312 411 412
f 312 412 413
f 314 403 313
f 313 403 404
f 313 404 405
f 315 393 314
f 314 393 394
f 314 394 395
f 316 385 315
f 315 385 386
f 315 386 387
f 427 377 316
f 316 377 378
f 316 378 379
f 318 368 317
f 317 368 369
f 317 369 370
f 319 360 318
f 318 360 361
f 318 361 362
f 320 352 319
f 319 352 353
f 319 353 354
f 321 344 320
f 320 344 345
f 320 345 346
f 322 336 321
f 321 336 337
f 321 337 338
f 311 328 322
f 322 328 329
f 322 329 330
f 426 323 311
f 311 323 324
f 311 324 325
f 325 326 311
f 311 326 327
f 311 327 328
f 330 331 322
f 322 331 332
f 322 332 333
f 333 334 322
f 322 334 335
f 322 335 336
f 338 339 321
f 321 339 340
f 321 340 341
f 341 342 321
f 321 342 343
f 321 343 344
f 346 347 320
f 320 347 348
f 320 348 349
f 349 350 320
f 320 350 351
f 320 351 352
f 354 355 319
f 319 355 356
f 319 356 357
f 357 358 319
f 319 358 359
f 319 359 360
f 362 363 318
f 318 363 364
f 318 364 365
f 365 366 318
f 318 366 367
f 318 367 368
f 370 371 317
f 317 371 428
f 427 372 373
f 373 374 427
f 427 374 375
f 427 375 376
f 376 377 427
f 379 380 316
f 316 380 381
f 316 381 382
f 382 383 316
f 316 383 384
f 316 384 385
f 387 388 315
f 315 388 389
f 315 389 390
f 390 391 315
f 315 391 392
f 315 392 393
f 395 396 314
f 314 396 397
f 314 397 398
f 398 399 314
f 314 399 400
f 314 400 401
f 401 402 314
f 314 402 403
f 405 406 313
f 313 406 407
f 313 407 408
f 408 409 313
f 313 409 410
f 313 410 411
f 413 414 312
f 312 414 415
f 312 415 416
f 416 417 312
f 312 417 418
f 312 418 419
f 421 422 311
f 311 422 423
f 311 423 424
f 424 425 311
f 311 425 426
f 430 431 429
f 429 431 432
f 434 435 433
f 433 435 436
f 438 439 437
f 437 439 440
f 442 468 441
f 441 468 469
f 441 469 456
f 456 469 470
f 456 470 455
f 455 470 471
f 455 471 454
f 454 471 472
f 454 472 453
f 453 472 457
f 453 457 452
f 452 457 458
f 452 458 451
f 451 458 459
f 451 459 450
f 450 459 460
f 450 460 449
f 449 460 474
f 473 461 448
f 448 461 462
f 448 462 447
f 447 462 463
f 447 463 446
f 446 463 464
f 446 464 445
f 445 464 465
f 445 465 444
f 444 465 466
f 444 466 443
f 443 466 467
f 443 467 442
f 442 467 468
f 476 477 475
f 475 477 478
f 480 481 479
f 479 481 482
f 483 484 490
f 490 484 485
f 490 485 489
f 489 485 486
f 489 486 488
f 488 486 487
f 491 492 498
f 498 492 493
f 498 493 497
f 497 493 494
f 497 494 496
f 496 494 495
f 499 500 506
f 506 500 501
f 506 501 505
f 505 501 502
f 505 502 504
f 504 502 503
f 508 509 507
f 507 509 510
f 512 513 511
f 511 513 514
f 526 515 527
f 527 515 516
f 527 516 535
f 535 516 517
f 535 517 534
f 534 517 518
f 534 518 533
f 533 518 519
f 533 519 520
f 533 520 532
f 532 520 521
f 532 521 531
f 531 521 522
f 531 522 530
f 530 522 523
f 530 523 524
f 530 524 529
f 529 524 525
f 529 525 528
f 528 525 526
f 528 526 527
f 537 538 536
f 536 538 539
f 541 555 540
f 540 555 548
f 540 548 547
f 547 548 549
f 547 549 546
f 546 549 550
f 546 550 545
f 545 550 551
f 545 551 544
f 544 551 556
f 557 552 543
f 543 552 553
f 543 553 542
f 542 553 554
f 542 554 541
f 541 554 555
f 558 559 565
f 565 559 560
f 565 560 564
f 564 560 561
f 564 561 563
f 563 561 562
f 567 568 566
f 566 568 569
f 570 571 577
f 577 571 572
f 577 572 576
f 576 572 573
f 576 573 575
f 575 573 574
f 579 580 578
f 578 580 581
f 583 613 582
f 582 613 598
f 582 598 597
f 597 598 599
f 597 599 596
f 596 599 600
f 596 600 595
f 595 600 601
f 595 601 594
f 594 601 602
f 594 602 593
f 593 602 603
f 593 603 592
f 592 603 604
f 592 604 591
f 591 604 605
f 591 605 590
f 590 605 615
f 614 606 589
f 589 606 607
f 589 607 588
f 588 607 608
f 588 608 587
f 587 608 609
f 587 609 586
f 586 609 610
f 586 610 585
f 585 610 611
f 585 611 584
f 584 611 612
f 584 612 583
f 583 612 613
f 617 618 616
f 616 618 619
f 621 622 620
f 620 622 623
f 625 626 624
f 624 626 627
f 628 629 635
f 635 629 630
f 635 630 634
f 634 630 631
f 634 631 633
f 633 631 632
f 637 638 636
f 636 638 639
f 641 649 640
f 640 649 650
f 640 650 648
f 648 650 651
f 648 651 647
f 647 651 652
f 647 652 646
f 646 652 659
f 646 659 645
f 658 653 654
f 658 654 644
f 644 654 655
f 644 655 643
f 643 655 656
f 643 656 642
f 642 656 657
f 642 657 641
f 641 657 649
f 661 662 660
f 660 662 663
f 665 666 664
f 664 666 667
f 669 670 668
f 668 670 671
f 673 892 672
f 672 892 893
f 672 893 894
f 673 674 892
f 892 674 675
f 892 675 676
f 676 677 892
f 892 677 891
f 891 677 678
f 891 678 679
f 680 886 679
f 679 886 887
f 679 887 888
f 680 681 886
f 886 681 885
f 885 681 682
f 885 682 683
f 684 880 683
f 683 880 881
f 683 881 882
f 684 685 880
f 880 685 879
f 879 685 686
f 879 686 687
f 688 874 687
f 687 874 875
f 687 875 876
f 688 689 874
f 874 689 873
f 873 689 690
f 873 690 691
f 692 868 691
f 691 868 869
f 691 869 870
f 692 693 868
f 868 693 867
f 867 693 694
f 867 694 695
f 696 862 695
f 695 862 863
f 695 863 864
f 696 697 862
f 862 697 861
f 861 697 698
f 861 698 699
f 700 856 699
f 699 856 857
f 699 857 858
f 700 701 856
f 856 701 855
f 855 701 702
f 855 702 703
f 704 850 703
f 703 850 851
f 703 851 852
f 704 705 850
f 850 705 849
f 849 705 706
f 849 706 707
f 708 844 707
f 707 844 845
f 707 845 846
f 708 709 844
f 844 709 843
f 843 709 710
f 843 710 711
f 712 838 711
f 711 838 839
f 711 839 840
f 712 713 838
f 838 713 837
f 837 713 714
f 837 714 715
f 716 832 715
f 715 832 833
f 715 833 834
f 716 717 832
f 832 717 831
f 831 717 718
f 831 718 719
f 720 826 719
f 719 826 827
f 719 827 828
f 720 721 826
f 826 721 825
f 825 721 722
f 825 722 723
f 724 820 723
f 723 820 821
f 723 821 822
f 724 725 820
f 820 725 819
f 819 725 726
f 819 726 727
f 728 814 727
f 727 814 815
f 727 815 816
f 728 729 814
f 814 729 813
f 813 729 730
f 813 730 731
f 732 808 731
f 731 808 809
f 731 809 810
f 732 733 808
f 808 733 807
f 807 733 734
f 807 734 735
f 736 802 735
f 735 802 803
f 735 803 804
f 736 737 802
f 802 737 801
f 801 737 738
f 801 738 739
f 740 796 739
f 739 796 797
f 739 797 798
f 740 741 796
f 796 741 795
f 795 741 742
f 795 742 743
f 744 790 743
f 743 790 791
f 743 791 792
f 744 745 790
f 790 745 789
f 789 745 746
f 789 746 747
f 748 784 747
f 747 784 785
f 747 785 786
f 748 749 784
f 784 749 783
f 783 749 750
f 783 750 751
f 752 778 751
f 751 778 779
f 751 779 780
f 752 753 778
f 778 753 777
f 777 753 754
f 777 754 755
f 756 922 755
f 755 922 923
f 755 923 924
f 756 757 922
f 922 757 921
f 921 757 758
f 921 758 759
f 760 916 759
f 759 916 917
f 759 917 918
f 760 761 916
f 916 761 915
f 915 761 762
f 915 762 763
f 764 910 763
f 763 910 911
f 763 911 912
f 764 765 910
f 910 765 909
f 909 765 766
f 909 766 767
f 768 904 767
f 767 904 905
f 767 905 906
f 768 769 904
f 904 769 903
f 903 769 770
f 903 770 771
f 772 898 771
f 771 898 899
f 771 899 900
f 772 773 898
f 898 773 897
f 897 773 774
f 897 774 775
f 672 894 775
f 775 894 895
f 775 895 896
f 925 776 755
f 755 776 777
f 780 781 751
f 751 781 782
f 751 782 783
f 786 787 747
f 747 787 788
f 747 788 789
f 792 793 743
f 743 793 794
f 743 794 795
f 798 799 739
f 739 799 800
f 739 800 801
f 804 805 735
f 735 805 806
f 735 806 807
f 810 811 731
f 731 811 812
f 731 812 813
f 816 817 727
f 727 817 818
f 727 818 819
f 822 823 723
f 723 823 824
f 723 824 825
f 828 829 719
f 719 829 830
f 719 830 831
f 834 835 715
f 715 835 836
f 715 836 837
f 840 841 711
f 711 841 842
f 711 842 843
f 846 847 707
f 707 847 848
f 707 848 849
f 852 853 703
f 703 853 854
f 703 854 855
f 858 859 699
f 699 859 860
f 699 860 861
f 864 865 695
f 695 865 866
f 695 866 867
f 870 871 691
f 691 871 872
f 691 872 873
f 876 877 687
f 687 877 878
f 687 878 879
f 882 883 683
f 683 883 884
f 683 884 885
f 888 889 679
f 679 889 890
f 679 890 891
f 896 897 775
f 900 901 771
f 771 901 902
f 771 902 903
f 906 907 767
f 767 907 908
f 767 908 909
f 912 913 763
f 763 913 914
f 763 914 915
f 918 919 759
f 759 919 920
f 759 920 921
f 924 925 755
f 927 928 926
f 926 928 929
f 931 966 930
f 930 966 967
f 930 967 950
f 950 967 968
f 950 968 949
f 949 968 969
f 949 969 948
f 948 969 970
f 948 970 947
f 947 970 971
f 947 971 946
f 946 971 951
f 946 951 945
f 945 951 952
f 945 952 944
f 944 952 953
f 944 953 943
f 943 953 954
f 943 954 942
f 942 954 955
f 942 955 941
f 941 955 956
f 941 956 940
f 940 956 957
f 940 957 939
f 939 957 958
f 939 958 938
f 938 958 959
f 938 959 937
f 937 959 960
f 937 960 936
f 936 960 972
f 973 961 935
f 935 961 962
f 935 962 934
f 934 962 963
f 934 963 933
f 933 963 964
f 933 964 932
f 932 964 965
f 932 965 931
f 931 965 966
f 975 1000 974
f 974 1000 1001
f 974 1001 994
f 994 1001 1002
f 994 1002 993
f 993 1002 1003
f 993 1003 992
f 992 1003 1004
f 992 1004 991
f 991 1004 1005
f 991 1005 990
f 990 1005 1006
f 990 1006 989
f 989 1006 1007
f 989 1007 988
f 988 1007 1008
f 988 1008 987
f 987 1008 1009
f 987 1009 986
f 986 1009 1016
f 986 1016 985
f 1017 1010 1011
f 1017 1011 984
f 984 1011 1012
f 984 1012 983
f 983 1012 1013
f 983 1013 982
f 982 1013 1014
f 982 1014 981
f 981 1014 1015
f 981 1015 980
f 980 1015 995
f 980 995 979
f 979 995 996
f 979 996 978
f 978 996 997
f 978 997 977
f 977 997 998
f 977 998 976
f 976 998 999
f 976 999 975
f 975 999 1000
f 1019 1050 1018
f 1018 1050 1051
f 1018 1051 1052
f 1050 1019 1049
f 1049 1019 1020
f 1049 1020 1074
f 1074 1020 1073
f 1073 1020 1021
f 1073 1021 1072
f 1072 1021 1022
f 1072 1022 1059
f 1059 1022 1058
f 1058 1022 1023
f 1058 1023 1057
f 1057 1023 1024
f 1057 1024 1056
f 1056 1024 1055
f 1055 1024 1025
f 1055 1025 1086
f 1086 1025 1085
f 1085 1025 1026
f 1085 1026 1027
f 1028 1064 1027
f 1027 1064 1065
f 1027 1065 1084
f 1084 1065 1066
f 1084 1066 1083
f 1083 1066 1067
f 1083 1067 1068
f 1064 1028 1063
f 1063 1028 1029
f 1063 1029 1070
f 1070 1029 1030
f 1070 1030 1069
f 1069 1030 1082
f 1069 1082 1068
f 1068 1082 1083
f 1082 1030 1081
f 1081 1030 1031
f 1081 1031 1032
f 1033 1039 1032
f 1032 1039 1080
f 1032 1080 1081
f 1034 1045 1033
f 1033 1045 1046
f 1033 1046 1039
f 1045 1034 1044
f 1044 1034 1035
f 1044 1035 1043
f 1043 1035 1078
f 1043 1078 1042
f 1042 1078 1079
f 1042 1079 1041
f 1041 1079 1040
f 1040 1079 1080
f 1040 1080 1039
f 1035 1036 1078
f 1078 1036 1077
f 1077 1036 1037
f 1077 1037 1076
f 1076 1037 1053
f 1076 1053 1054
f 1037 1038 1053
f 1053 1038 1052
f 1052 1038 1018
f 1054 1047 1075
f 1075 1047 1048
f 1075 1048 1074
f 1074 1048 1049
f 1076 1054 1075
f 1059 1060 1072
f 1072 1060 1071
f 1071 1060 1061
f 1071 1061 1062
f 1071 1062 1086
f 1086 1062 1055
f 1084 1085 1027
f 1088 1089 1087
f 1087 1089 1090
f 1092 1093 1091
f 1091 1093 1094
f 1096 1097 1095
f 1095 1097 1098
f 1100 1101 1099
f 1099 1101 1102
f 1104 1105 1103
f 1103 1105 1106
f 1107 1108 1114
f 1114 1108 1109
f 1114 1109 1113
f 1113 1109 1110
f 1113 1110 1112
f 1112 1110 1111
f 1116 1136 1115
f 1115 1136 1137
f 1115 1137 1135
f 1135 1137 1138
f 1135 1138 1134
f 1134 1138 1139
f 1134 1139 1133
f 1133 1139 1140
f 1133 1140 1132
f 1132 1140 1141
f 1132 1141 1131
f 1131 1141 1142
f 1131 1142 1130
f 1130 1142 1143
f 1130 1143 1129
f 1129 1143 1144
f 1129 1144 1128
f 1128 1144 1145
f 1128 1145 1127
f 1127 1145 1158
f 1127 1158 1126
f 1157 1146 1147
f 1157 1147 1125
f 1125 1147 1148
f 1125 1148 1124
f 1124 1148 1149
f 1124 1149 1123
f 1123 1149 1150
f 1123 1150 1122
f 1122 1150 1151
f 1122 1151 1121
f 1121 1151 1152
f 1121 1152 1120
f 1120 1152 1153
f 1120 1153 1119
f 1119 1153 1154
f 1119 1154 1118
f 1118 1154 1155
f 1118 1155 1117
f 1117 1155 1156
f 1117 1156 1116
f 1116 1156 1136
f 1160 1161 1159
f 1159 1161 1162
f 1164 1165 1163
f 1163 1165 1166
f 1167 1168 1174
f 1174 1168 1169
f 1174 1169 1173
f 1173 1169 1170
f 1173 1170 1172
f 1172 1170 1171
f 1176 1207 1175
f 1175 1207 1208
f 1175 1208 1209
f 1207 1176 1206
f 1206 1176 1177
f 1206 1177 1205
f 1205 1177 1178
f 1205 1178 1201
f 1201 1178 1200
f 1200 1178 1179
f 1200 1179 1199
f 1199 1179 1180
f 1199 1180 1198
f 1198 1180 1181
f 1198 1181 1197
f 1197 1181 1196
f 1196 1181 1182
f 1196 1182 1203
f 1203 1182 1183
f 1203 1183 1223
f 1223 1183 1222
f 1222 1183 1184
f 1222 1184 1221
f 1221 1184 1185
f 1221 1185 1220
f 1220 1185 1186
f 1220 1186 1227
f 1227 1186 1187
f 1227 1187 1226
f 1226 1187 1188
f 1226 1188 1225
f 1225 1188 1229
f 1225 1229 1230
f 1229 1188 1213
f 1213 1188 1189
f 1213 1189 1212
f 1212 1189 1190
f 1212 1190 1219
f 1219 1190 1218
f 1218 1190 1191
f 1218 1191 1217
f 1217 1191 1192
f 1217 1192 1216
f 1216 1192 1193
f 1216 1193 1215
f 1215 1193 1211
f 1215 1211 1236
f 1236 1211 1235
f 1235 1211 1204
f 1235 1204 1234
f 1234 1204 1205
f 1234 1205 1201
f 1193 1194 1211
f 1211 1194 1210
f 1210 1194 1195
f 1210 1195 1209
f 1209 1195 1175
f 1234 1201 1233
f 1233 1201 1202
f 1233 1202 1232
f 1232 1202 1203
f 1232 1203 1231
f 1231 1203 1223
f 1231 1223 1224
f 1213 1214 1229
f 1229 1214 1228
f 1228 1214 1236
f 1236 1214 1215
f 1231 1224 1230
f 1230 1224 1225
f 1238 1239 1237
f 1237 1239 1240
f 1241 1242 1245
f 1245 1242 1244
f 1244 1242 1243
f 1247 1261 1246
f 1246 1261 1254
f 1246 1254 1253
f 1253 1254 1255
f 1253 1255 1252
f 1252 1255 1256
f 1252 1256 1251
f 1251 1256 1257
f 1251 1257 1250
f 1250 1257 1262
f 1263 1258 1249
f 1249 1258 1259
f 1249 1259 1248
f 1248 1259 1260
f 1248 1260 1247
f 1247 1260 1261
f 1265 1266 1264
f 1264 1266 1267
f 1269 1270 1268
f 1268 1270 1271
f 1273 1274 1272
f 1272 1274 1275
f 1277 1278 1276
f 1276 1278 1279
f 1281 1282 1280
f 1280 1282 1283
f 1285 1286 1284
f 1284 1286 1287
f 1289 1290 1288
f 1288 1290 1291
f 1292 1293 1299
f 1299 1293 1294
f 1299 1294 1298
f 1298 1294 1295
f 1298 1295 1297
f 1297 1295 1296
f 1301 1302 1300
f 1300 1302 1303
f 1305 1319 1304
f 1304 1319 1312
f 1304 1312 1311
f 1311 1312 1313
f 1311 1313 1310
f 1310 1313 1314
f 1310 1314 1309
f 1309 1314 1315
f 1309 1315 1308
f 1308 1315 1320
f 1321 1316 1307
f 1307 1316 1317
f 1307 1317 1306
f 1306 1317 1318
f 1306 1318 1305
f 1305 1318 1319
f 1323 1324 1322
f 1322 1324 1325
f 1327 1328 1326
f 1326 1328 1329
f 1331 1332 1330
f 1330 1332 1333
f 1335 1336 1334
f 1334 1336 1337
f 1339 1340 1338
f 1338 1340 1341
f 1343 1344 1342
f 1342 1344 1345
f 1346 1347 1353
f 1353 1347 1348
f 1353 1348 1352
f 1352 1348 1349
f 1352 1349 1350
f 1350 1351 1352
f 1355 1356 1354
f 1354 1356 1357
f 1359 1360 1358
f 1358 1360 1361
f 1363 1364 1362
f 1362 1364 1365
f 1367 1368 1366
f 1366 1368 1369
f 1371 1372 1370
f 1370 1372 1373
f 1375 1389 1374
f 1374 1389 1382
f 1374 1382 1381
f 1381 1382 1383
f 1381 1383 1380
f 1380 1383 1384
f 1380 1384 1379
f 1379 1384 1385
f 1379 1385 1378
f 1378 1385 1390
f 1391 1386 1377
f 1377 1386 1387
f 1377 1387 1376
f 1376 1387 1388
f 1376 1388 1375
f 1375 1388 1389
f 1392 1393 1399
f 1399 1393 1394
f 1399 1394 1398
f 1398 1394 1395
f 1398 1395 1397
f 1397 1395 1396
f 1401 1402 1400
f 1400 1402 1403
f 1404 1405 1411
f 1411 1405 1406
f 1411 1406 1410
f 1410 1406 1407
f 1410 1407 1409
f 1409 1407 1408
f 1412 1413 1419
f 1419 1413 1414
f 1419 1414 1418
f 1418 1414 1415
f 1418 1415 1417
f 1417 1415 1416
f 1421 1572 1420
f 1420 1572 1573
f 1420 1573 1570
f 1570 1573 1574
f 1570 1574 1569
f 1569 1574 1568
f 1568 1574 1567
f 1567 1574 1566
f 1566 1574 1575
f 1566 1575 1576
f 1422 1673 1421
f 1421 1673 1674
f 1421 1674 1571
f 1423 1670 1422
f 1422 1670 1671
f 1422 1671 1672
f 1423 1424 1670
f 1670 1424 1425
f 1670 1425 1426
f 1670 1426 1669
f 1669 1426 1427
f 1669 1427 1668
f 1668 1427 1428
f 1668 1428 1667
f 1667 1428 1666
f 1666 1428 1429
f 1666 1429 1430
f 1430 1431 1666
f 1666 1431 1432
f 1666 1432 1665
f 1665 1432 1433
f 1665 1433 1664
f 1664 1433 1434
f 1664 1434 1663
f 1663 1434 1662
f 1662 1434 1435
f 1662 1435 1436
f 1436 1437 1662
f 1662 1437 1438
f 1662 1438 1661
f 1661 1438 1439
f 1661 1439 1660
f 1660 1439 1440
f 1660 1440 1659
f 1659 1440 1658
f 1658 1440 1441
f 1658 1441 1442
f 1442 1443 1658
f 1658 1443 1444
f 1658 1444 1657
f 1657 1444 1445
f 1657 1445 1656
f 1656 1445 1446
f 1656 1446 1655
f 1655 1446 1447
f 1655 1447 1654
f 1654 1447 1448
f 1654 1448 1449
f 1449 1450 1654
f 1654 1450 1653
f 1653 1450 1451
f 1653 1451 1652
f 1652 1451 1452
f 1652 1452 1651
f 1651 1452 1650
f 1650 1452 1453
f 1650 1453 1454
f 1454 1455 1650
f 1650 1455 1456
f 1650 1456 1649
f 1649 1456 1457
f 1649 1457 1648
f 1648 1457 1458
f 1648 1458 1647
f 1647 1458 1459
f 1647 1459 1646
f 1646 1459 1460
f 1646 1460 1461
f 1461 1462 1646
f 1646 1462 1645
f 1645 1462 1463
f 1645 1463 1644
f 1644 1463 1464
f 1644 1464 1643
f 1643 1464 1642
f 1642 1464 1465
f 1642 1465 1466
f 1466 1467 1642
f 1642 1467 1468
f 1642 1468 1641
f 1641 1468 1469
f 1641 1469 1640
f 1640 1469 1470
f 1640 1470 1639
f 1639 1470 1471
f 1639 1471 1638
f 1638 1471 1472
f 1638 1472 1473
f 1473 1474 1638
f 1638 1474 1637
f 1637 1474 1475
f 1637 1475 1636
f 1636 1475 1476
f 1636 1476 1635
f 1635 1476 1634
f 1634 1476 1477
f 1634 1477 1478
f 1478 1479 1634
f 1634 1479 1480
f 1634 1480 1633
f 1633 1480 1481
f 1633 1481 1632
f 1632 1481 1482
f 1632 1482 1631
f 1631 1482 1483
f 1631 1483 1630
f 1630 1483 1484
f 1630 1484 1485
f 1485 1486 1630
f 1630 1486 1629
f 1629 1486 1487
f 1629 1487 1628
f 1628 1487 1488
f 1628 1488 1627
f 1627 1488 1626
f 1626 1488 1489
f 1626 1489 1490
f 1490 1491 1626
f 1626 1491 1492
f 1626 1492 1625
f 1625 1492 1493
f 1625 1493 1624
f 1624 1493 1494
f 1624 1494 1623
f 1623 1494 1622
f 1622 1494 1495
f 1622 1495 1675
f 1496 1497 1676
f 1676 1497 1498
f 1676 1498 1621
f 1621 1498 1499
f 1621 1499 1620
f 1620 1499 1500
f 1620 1500 1619
f 1619 1500 1618
f 1618 1500 1501
f 1618 1501 1502
f 1502 1503 1618
f 1618 1503 1504
f 1618 1504 1617
f 1617 1504 1505
f 1617 1505 1616
f 1616 1505 1506
f 1616 1506 1615
f 1615 1506 1614
f 1614 1506 1507
f 1614 1507 1508
f 1508 1509 1614
f 1614 1509 1510
f 1614 1510 1613
f 1613 1510 1511
f 1613 1511 1612
f 1612 1511 1512
f 1612 1512 1611
f 1611 1512 1610
f 1610 1512 1513
f 1610 1513 1514
f 1514 1515 1610
f 1610 1515 1516
f 1610 1516 1609
f 1609 1516 1517
f 1609 1517 1608
f 1608 1517 1518
f 1608 1518 1607
f 1607 1518 1606
f 1606 1518 1519
f 1606 1519 1520
f 1520 1521 1606
f 1606 1521 1522
f 1606 1522 1523
f 1524 1604 1523
f 1523 1604 1605
f 1523 1605 1606
f 1525 1602 1524
f 1524 1602 1603
f 1524 1603 1604
f 1525 1526 1602
f 1602 1526 1527
f 1602 1527 1528
f 1602 1528 1601
f 1601 1528 1529
f 1601 1529 1600
f 1600 1529 1530
f 1600 1530 1599
f 1599 1530 1598
f 1598 1530 1531
f 1598 1531 1532
f 1532 1533 1598
f 1598 1533 1534
f 1598 1534 1535
f 1536 1596 1535
f 1535 1596 1597
f 1535 1597 1598
f 1537 1594 1536
f 1536 1594 1595
f 1536 1595 1596
f 1537 1538 1594
f 1594 1538 1539
f 1594 1539 1540
f 1594 1540 1593
f 1593 1540 1541
f 1593 1541 1592
f 1592 1541 1542
f 1592 1542 1591
f 1591 1542 1590
f 1590 1542 1543
f 1590 1543 1544
f 1544 1545 1590
f 1590 1545 1546
f 1590 1546 1547
f 1548 1588 1547
f 1547 1588 1589
f 1547 1589 1590
f 1549 1586 1548
f 1548 1586 1587
f 1548 1587 1588
f 1549 1550 1586
f 1586 1550 1551
f 1586 1551 1552
f 1586 1552 1585
f 1585 1552 1553
f 1585 1553 1584
f 1584 1553 1554
f 1584 1554 1583
f 1583 1554 1582
f 1582 1554 1555
f 1582 1555 1556
f 1556 1557 1582
f 1582 1557 1558
f 1582 1558 1581
f 1581 1558 1559
f 1581 1559 1580
f 1580 1559 1560
f 1580 1560 1579
f 1579 1560 1578
f 1578 1560 1561
f 1578 1561 1562
f 1562 1563 1578
f 1578 1563 1564
f 1578 1564 1577
f 1577 1564 1565
f 1577 1565 1576
f 1576 1565 1566
f 1571 1572 1421
f 1672 1673 1422
f 1678 1679 1677
f 1677 1679 1680
f 1682 1683 1681
f 1681 1683 1684
f 1686 1687 1685
f 1685 1687 1688
f 1689 1690 1696
f 1696 1690 1691
f 1696 1691 1695
f 1695 1691 1692
f 1695 1692 1694
f 1694 1692 1693
f 1698 1699 1697
f 1697 1699 1700
f 1702 1703 1701
f 1701 1703 1704
f 1705 1706 1712
f 1712 1706 1707
f 1712 1707 1711
f 1711 1707 1708
f 1711 1708 1710
f 1710 1708 1709
f 1714 1715 1713
f 1713 1715 1716
f 1718 1719 1717
f 1717 1719 1720
v 0.0698470948 -0.182120983 0.135727081
v 0.0697960284 -0.182808408 0.138646814
v 0.0697804977 -0.18568107 0.139511437
v 0.0698160335 -0.187866307 0.137456328
v 0.0698670998 -0.187178882 0.134536595
v 0.0698826305 -0.18430622 0.133671972
v 0.0698470948 -0.182120983 0.135727081
v 0.0698826305 -0.18430622 0.133671972
v 0.0698670998 -0.187178882 0.134536595
v 0.0698160335 -0.187866307 0.137456328
v 0.0697804977 -0.18568107 0.139511437
v 0.0697960284 -0.182808408 0.138646814
v -0.0551338678 -0.182101863 0.133545656
v -0.0551849342 -0.182789288 0.136465388
v -0.0552004649 -0.185661949 0.137330011
v -0.0551649292 -0.187847187 0.135274902
v -0.0551138628 -0.187159762 0.132355169
v -0.0550983321 -0.1842871 0.131490546
v 0.0698160335 -0.187866307 0.137456328
v -0.0551649292 -0.187847187 0.135274902
v -0.0551338678 -0.182101863 0.133545656
v -0.0550983321 -0.1842871 0.131490546
v -0.0551138628 -0.187159762 0.132355169
v -0.0551649292 -0.187847187 0.135274902
v -0.0552004649 -0.185661949 0.137330011
v -0.0551849342 -0.182789288 0.136465388
f 1722 1723 1721
f 1721 1723 1724
f 1721 1724 1726
f 1726 1724 1725
f 1728 1738 1727
f 1727 1738 1733
f 1727 1733 1732
f 1732 1733 1734
f 1732 1734 1731
f 1731 1734 1735
f 1731 1735 1730
f 1730 1735 1740
f 1739 1736 1729
f 1729 1736 1737
f 1729 1737 1728
f 1728 1737 1738
f 1742 1743 1741
f 1741 1743 1744
f 1741 1744 1746
f 1746 1744 1745
