v 0.00444467563 0.0661401528 0.0395429859
v 0.00394467583 0.0661401528 0.0396429859
v 0.00394467583 0.0705401527 0.0396429859
v 0.00444467563 0.0705401527 0.0395429859
v -0.00305532435 0.0661401528 0.0396429871
v -0.00255532425 0.0661401528 0.0395429871
v -0.00255532425 0.0705401527 0.0395429871
v -0.00305532435 0.0705401527 0.0396429871
v 0.00394467583 0.0661401528 0.0396429859
v 0.00394467571 0.0661401528 0.0389429858
v 0.00394467571 0.0705401527 0.0389429858
v 0.00394467583 0.0705401527 0.0396429859
v -0.00305532447 0.0661401528 0.038942987
v -0.00305532435 0.0661401528 0.0396429871
v -0.00305532435 0.0705401527 0.0396429871
v -0.00305532447 0.0705401527 0.038942987
v -0.00255532425 0.0705401527 0.0395429871
v -0.00255532434 0.0705401527 0.039042987
v -0.00305532447 0.0705401527 0.038942987
v -0.00305532435 0.0705401527 0.0396429871
v 0.00444467555 0.0705401527 0.0390429857
v 0.00444467563 0.0705401527 0.0395429859
v 0.00394467583 0.0705401527 0.0396429859
v 0.00394467571 0.0705401527 0.0389429858
v 0.00394467571 0.0661401528 0.0389429858
v 0.00444467555 0.0661401528 0.0390429857
v 0.00444467555 0.0705401527 0.0390429857
v 0.00394467571 0.0705401527 0.0389429858
v -0.00255532434 0.0661401528 0.039042987
v -0.00305532447 0.0661401528 0.038942987
v -0.00305532447 0.0705401527 0.038942987
v -0.00255532434 0.0705401527 0.039042987
v 0.00444467483 0.0705401527 0.0349429858
v 0.00444467474 0.0705401527 0.0344429858
v 0.00494467484 0.0705401527 0.0343429857
v 0.00494467497 0.0705401527 0.0350429856
v 0.00494467497 0.0745401525 0.0350429856
v 0.00444467483 0.0745401525 0.0349429858
v 0.00444467483 0.0705401527 0.0349429858
v 0.00494467497 0.0705401527 0.0350429856
v 0.00494467484 0.0745401525 0.0343429857
v 0.00494467497 0.0745401525 0.0350429856
v 0.00494467497 0.0705401527 0.0350429856
v 0.00494467484 0.0705401527 0.0343429857
v -0.00255532418 0.0661401528 0.039942987
v 0.0044446757 0.0661401528 0.0399429858
v 0.0044446757 0.0705401527 0.0399429858
v -0.00255532418 0.0705401527 0.039942987
v 0.00444467451 0.0705401527 0.0331429857
v 0.0041446745 0.0705401527 0.0331429858
v 0.00124467457 0.0705401527 0.0331429863
v 0.00064467458 0.0705401527 0.0331429864
v -0.00225532535 0.0705401527 0.0331429869
v -0.00255532537 0.0705401527 0.0331429869
v -0.00255532519 0.0745401525 0.034142987
v 0.00444467469 0.0745401525 0.0341429858
v -0.00225532535 0.0667401528 0.0331429869
v -0.00125532541 0.0667401528 0.0331429867
v -0.00125532541 0.0661401528 0.0331429867
v -0.00255532537 0.0661401528 0.0331429869
v -0.00255532537 0.0705401527 0.0331429869
v -0.00225532535 0.0705401527 0.0331429869
v -0.00205532521 0.0705401527 0.0350429868
v -0.00205532534 0.0705401527 0.0343429869
v -0.00225532514 0.0705401527 0.0343829869
v -0.00225532535 0.0705401527 0.0331429869
v 0.00064467458 0.0705401527 0.0331429864
v 0.000644675367 0.0705401527 0.0376429864
v -0.00225532457 0.0705401527 0.0376429869
v -0.00225532503 0.0705401527 0.0350029869
v 0.00444467474 0.0745401525 0.0344429858
v 0.00494467484 0.0745401525 0.0343429857
v 0.00494467484 0.0705401527 0.0343429857
v 0.00444467474 0.0705401527 0.0344429858
v 0.00124467457 0.0667401528 0.0331429863
v 0.00224467453 0.0667401528 0.0331429861
v 0.00224467453 0.0661401528 0.0331429861
v -0.000355325379 0.0661401528 0.0331429866
v -0.000355325379 0.0667401528 0.0331429866
v 0.00064467458 0.0667401528 0.0331429864
v 0.00064467458 0.0705401527 0.0331429864
v 0.00124467457 0.0705401527 0.0331429863
v 0.00444467451 0.0661401528 0.0331429857
v 0.00444467555 0.0661401528 0.0390429857
v 0.00394467571 0.0661401528 0.0389429858
v 0.00394467583 0.0661401528 0.0396429859
v 0.00444467563 0.0661401528 0.0395429859
v 0.0044446757 0.0661401528 0.0399429858
v -0.00255532418 0.0661401528 0.039942987
v -0.00255532425 0.0661401528 0.0395429871
v -0.00305532435 0.0661401528 0.0396429871
v -0.00305532447 0.0661401528 0.038942987
v -0.00255532434 0.0661401528 0.039042987
v -0.00255532537 0.0661401528 0.0331429869
v -0.00125532541 0.0661401528 0.0331429867
v -0.00125532472 0.0661401528 0.0371429867
v -0.000355324679 0.0661401528 0.0371429866
v -0.000355325379 0.0661401528 0.0331429866
v 0.00224467453 0.0661401528 0.0331429861
v 0.00224467523 0.0661401528 0.0371429861
v 0.00314467526 0.0661401528 0.037142986
v 0.00314467456 0.0661401528 0.0331429859
v 0.00444467451 0.0661401528 0.0331429857
v 0.00314467456 0.0661401528 0.0331429859
v 0.00314467456 0.0667401528 0.0331429859
v 0.0041446745 0.0667401528 0.0331429858
v 0.0041446745 0.0705401527 0.0331429858
v 0.00444467451 0.0705401527 0.0331429857
v -0.00225532535 0.0667401528 0.0331429869
v -0.00225532535 0.0705401527 0.0331429869
v -0.00225532514 0.0705401527 0.0343829869
v -0.00225532503 0.0705401527 0.0350029869
v -0.00225532457 0.0705401527 0.0376429869
v -0.00225532457 0.0667401528 0.0376429869
v 0.00444467563 0.0705401527 0.0395429859
v 0.00444467555 0.0705401527 0.0390429857
v 0.00444467555 0.0661401528 0.0390429857
v 0.00444467451 0.0661401528 0.0331429857
v 0.00444467451 0.0705401527 0.0331429857
v 0.00444467469 0.0745401525 0.0341429858
v 0.00444467474 0.0745401525 0.0344429858
v 0.00444467474 0.0705401527 0.0344429858
v 0.00444467483 0.0705401527 0.0349429858
v 0.00444467483 0.0745401525 0.0349429858
v 0.00444467553 0.0745401525 0.0389429857
v 0.0044446757 0.0705401527 0.0399429858
v 0.0044446757 0.0661401528 0.0399429858
v 0.00444467563 0.0661401528 0.0395429859
v 0.00134467535 0.0703401526 0.0376429863
v 0.00404467538 0.0703401526 0.0376429858
v 0.00404467477 0.0703401526 0.0341429859
v 0.00134467474 0.0703401526 0.0341429863
v 0.00064467458 0.0705401527 0.0331429864
v 0.00064467458 0.0667401528 0.0331429864
v 0.000644675367 0.0667401528 0.0376429864
v 0.000644675367 0.0705401527 0.0376429864
v -0.00255532505 0.0745401525 0.034942987
v -0.00205532521 0.0745401525 0.0350429868
v -0.00205532521 0.0705401527 0.0350429868
v -0.00225532503 0.0705401527 0.0350029869
v -0.00255532505 0.0705401527 0.034942987
v 0.00134467535 0.0667401528 0.0376429863
v 0.00134467535 0.0703401526 0.0376429863
v 0.00134467474 0.0703401526 0.0341429863
v 0.00134467474 0.0667401528 0.0341429863
v -0.00125532472 0.0667401528 0.0371429867
v -0.000355324679 0.0667401528 0.0371429866
v -0.000355324679 0.0661401528 0.0371429866
v -0.00125532472 0.0661401528 0.0371429867
v -0.00255532434 0.0661401528 0.039042987
v -0.00255532434 0.0705401527 0.039042987
v -0.00255532425 0.0705401527 0.0395429871
v -0.00255532425 0.0661401528 0.0395429871
v -0.00255532418 0.0661401528 0.039942987
v -0.00255532418 0.0705401527 0.039942987
v -0.00255532435 0.0745401525 0.0389429869
v -0.00255532505 0.0745401525 0.034942987
v -0.00255532505 0.0705401527 0.034942987
v -0.00255532514 0.0705401527 0.034442987
v -0.00255532514 0.0745401525 0.034442987
v -0.00255532519 0.0745401525 0.034142987
v -0.00255532537 0.0705401527 0.0331429869
v -0.00255532537 0.0661401528 0.0331429869
v 0.00404467538 0.0703401526 0.0376429858
v 0.00404467538 0.0667401528 0.0376429858
v 0.00404467477 0.0667401528 0.0341429859
v 0.00404467477 0.0703401526 0.0341429859
v 0.00124467457 0.0667401528 0.0331429863
v 0.00124467457 0.0705401527 0.0331429863
v 0.00124467535 0.0705401527 0.0376429863
v 0.00124467535 0.0667401528 0.0376429863
v -0.00205532521 0.0745401525 0.0350429868
v -0.00205532534 0.0745401525 0.0343429869
v -0.00205532534 0.0705401527 0.0343429869
v -0.00205532521 0.0705401527 0.0350429868
v 0.00224467523 0.0667401528 0.0371429861
v 0.00314467526 0.0667401528 0.037142986
v 0.00314467526 0.0661401528 0.037142986
v 0.00224467523 0.0661401528 0.0371429861
v -0.00125532541 0.0667401528 0.0331429867
v -0.00125532524 0.0667401528 0.0341429868
v -0.00125532472 0.0667401528 0.0371429867
v -0.00125532472 0.0661401528 0.0371429867
v -0.00125532541 0.0661401528 0.0331429867
v -0.000355324679 0.0667401528 0.0371429866
v -0.000355325204 0.0667401528 0.0341429866
v -0.000355325379 0.0667401528 0.0331429866
v -0.000355325379 0.0661401528 0.0331429866
v -0.000355324679 0.0661401528 0.0371429866
v 0.00414467529 0.0667401528 0.0376429858
v 0.00404467538 0.0667401528 0.0376429858
v 0.00404467538 0.0703401526 0.0376429858
v 0.00134467535 0.0703401526 0.0376429863
v 0.00134467535 0.0667401528 0.0376429863
v 0.00124467535 0.0667401528 0.0376429863
v 0.00124467535 0.0705401527 0.0376429863
v 0.00414467529 0.0705401527 0.0376429858
v -0.00215532466 0.0703401526 0.0376429869
v 0.000544675369 0.0703401526 0.0376429864
v 0.000544674757 0.0703401526 0.0341429865
v -0.00215532528 0.0703401526 0.034142987
v 0.00124467457 0.0705401527 0.0331429863
v 0.0041446745 0.0705401527 0.0331429858
v 0.00414467529 0.0705401527 0.0376429858
v 0.00124467535 0.0705401527 0.0376429863
v -0.00205532534 0.0745401525 0.0343429869
v -0.00255532514 0.0745401525 0.034442987
v -0.00255532514 0.0705401527 0.034442987
v -0.00225532514 0.0705401527 0.0343829869
v -0.00205532534 0.0705401527 0.0343429869
v 0.00224467453 0.0667401528 0.0331429861
v 0.0022446747 0.0667401528 0.0341429862
v 0.00224467523 0.0667401528 0.0371429861
v 0.00224467523 0.0661401528 0.0371429861
v 0.00224467453 0.0661401528 0.0331429861
v 0.00314467526 0.0667401528 0.037142986
v 0.00314467474 0.0667401528 0.034142986
v 0.00314467456 0.0667401528 0.0331429859
v 0.00314467456 0.0661401528 0.0331429859
v 0.00314467526 0.0661401528 0.037142986
v 0.00404467477 0.0667401528 0.0341429859
v 0.00404467538 0.0667401528 0.0376429858
v 0.00414467529 0.0667401528 0.0376429858
v 0.0041446745 0.0667401528 0.0331429858
v 0.00314467456 0.0667401528 0.0331429859
v 0.00314467474 0.0667401528 0.034142986
v -0.00215532466 0.0667401528 0.0376429869
v -0.00215532466 0.0703401526 0.0376429869
v -0.00215532528 0.0703401526 0.034142987
v -0.00215532528 0.0667401528 0.034142987
v 0.0041446745 0.0705401527 0.0331429858
v 0.0041446745 0.0667401528 0.0331429858
v 0.00414467529 0.0667401528 0.0376429858
v 0.00414467529 0.0705401527 0.0376429858
v -0.00225532514 0.0705401527 0.0343829869
v -0.00255532514 0.0705401527 0.034442987
v -0.00255532505 0.0705401527 0.034942987
v -0.00225532503 0.0705401527 0.0350029869
v 0.000694675164 0.0710401529 0.0365429864
v 0.000456555342 0.0710401529 0.0357320252
v -0.000182202587 0.0710401529 0.0351785386
v -0.00101879731 0.0710401529 0.0350582545
v -0.00178761625 0.0710401529 0.0354093624
v -0.00224456441 0.0710401529 0.0361203881
v -0.00224456426 0.0710401529 0.0369655858
v -0.00178761586 0.0710401529 0.0376766112
v -0.00101879679 0.0710401529 0.0380277189
v -0.00018220211 0.0710401529 0.0379074345
v 0.000456555626 0.0710401529 0.0373539476
v 0.00134467535 0.0667401528 0.0376429863
v 0.00134467474 0.0667401528 0.0341429863
v 0.0022446747 0.0667401528 0.0341429862
v 0.00224467453 0.0667401528 0.0331429861
v 0.00124467457 0.0667401528 0.0331429863
v 0.00124467535 0.0667401528 0.0376429863
v 0.000544675369 0.0703401526 0.0376429864
v 0.000544675369 0.0667401528 0.0376429864
v 0.000544674757 0.0667401528 0.0341429865
v 0.000544674757 0.0703401526 0.0341429865
v 0.00444467553 0.0745401525 0.0389429857
v -0.00255532435 0.0745401525 0.0389429869
v -0.00255532418 0.0705401527 0.039942987
v 0.0044446757 0.0705401527 0.0399429858
v 0.00419467505 0.0710401529 0.0365429858
v 0.00395655525 0.0710401529 0.0357320246
v 0.0033177975 0.0710401529 0.035178538
v 0.00248120263 0.0710401529 0.0350582539
v 0.00171238384 0.0710401529 0.0354093618
v 0.00125543563 0.0710401529 0.0361203875
v 0.00125543577 0.0710401529 0.0369655851
v 0.00171238423 0.0710401529 0.0376766106
v 0.00248120315 0.0710401529 0.0380277183
v 0.00331779798 0.0710401529 0.0379074339
v 0.00395655553 0.0710401529 0.037353947
v 0.000644675367 0.0667401528 0.0376429864
v 0.000544675369 0.0667401528 0.0376429864
v 0.000544675369 0.0703401526 0.0376429864
v -0.00215532466 0.0703401526 0.0376429869
v -0.00215532466 0.0667401528 0.0376429869
v -0.00225532457 0.0667401528 0.0376429869
v -0.00225532457 0.0705401527 0.0376429869
v 0.000644675367 0.0705401527 0.0376429864
v 0.00269467533 0.0690401527 0.037642986
v 0.003337463 0.0688061973 0.0376429859
v 0.00367948309 0.0682138009 0.0376429859
v 0.00356070087 0.0675401528 0.0376429859
v 0.00303669557 0.0671004601 0.037642986
v 0.00235265524 0.0671004601 0.0376429861
v 0.00182864994 0.0675401528 0.0376429862
v 0.00170986757 0.0682138009 0.0376429862
v 0.00205188774 0.0688061973 0.0376429862
v -0.00255532514 0.0745401525 0.034442987
v -0.00205532534 0.0745401525 0.0343429869
v -0.00205532521 0.0745401525 0.0350429868
v -0.00255532505 0.0745401525 0.034942987
v -0.00255532435 0.0745401525 0.0389429869
v 0.00444467553 0.0745401525 0.0389429857
v 0.00444467483 0.0745401525 0.0349429858
v 0.00494467497 0.0745401525 0.0350429856
v 0.00494467484 0.0745401525 0.0343429857
v 0.00444467474 0.0745401525 0.0344429858
v 0.00444467469 0.0745401525 0.0341429858
v -0.00255532519 0.0745401525 0.034142987
v 0.00419467505 0.0745401525 0.0365429858
v 0.00395655553 0.0745401525 0.037353947
v 0.00331779798 0.0745401525 0.0379074339
v 0.00248120315 0.0745401525 0.0380277183
v 0.00171238423 0.0745401525 0.0376766106
v 0.00125543577 0.0745401525 0.0369655851
v 0.00125543563 0.0745401525 0.0361203875
v 0.00171238384 0.0745401525 0.0354093618
v 0.00248120263 0.0745401525 0.0350582539
v 0.0033177975 0.0745401525 0.035178538
v 0.00395655525 0.0745401525 0.0357320246
v 0.000694675164 0.0745401525 0.0365429864
v 0.000456555626 0.0745401525 0.0373539476
v -0.00018220211 0.0745401525 0.0379074345
v -0.00101879679 0.0745401525 0.0380277189
v -0.00178761586 0.0745401525 0.0376766112
v -0.00224456426 0.0745401525 0.0369655858
v -0.00224456441 0.0745401525 0.0361203881
v -0.00178761625 0.0745401525 0.0354093624
v -0.00101879731 0.0745401525 0.0350582545
v -0.000182202587 0.0745401525 0.0351785386
v 0.000456555342 0.0745401525 0.0357320252
v 0.000544674757 0.0667401528 0.0341429865
v 0.000544675369 0.0667401528 0.0376429864
v 0.000644675367 0.0667401528 0.0376429864
v 0.00064467458 0.0667401528 0.0331429864
v -0.000355325379 0.0667401528 0.0331429866
v -0.000355325204 0.0667401528 0.0341429866
v -0.00080532461 0.0690401527 0.0376429867
v -0.000162537019 0.0688061973 0.0376429865
v 0.00017948315 0.0682138009 0.0376429865
v 6.07007785e-05 0.0675401528 0.0376429865
v -0.000463304515 0.0671004601 0.0376429866
v -0.00114734485 0.0671004601 0.0376429867
v -0.00167135015 0.0675401528 0.0376429868
v -0.00179013237 0.0682138009 0.0376429868
v -0.00144811227 0.0688061973 0.0376429868
v 0.00404467477 0.0703401526 0.0341429859
v 0.00404467477 0.0667401528 0.0341429859
v 0.00314467474 0.0667401528 0.034142986
v 0.0022446747 0.0667401528 0.0341429862
v 0.00134467474 0.0667401528 0.0341429863
v 0.00134467474 0.0703401526 0.0341429863
v 0.00269467472 0.0690401527 0.0341429861
v 0.00205188713 0.0688061973 0.0341429862
v 0.00170986696 0.0682138009 0.0341429863
v 0.00182864933 0.0675401528 0.0341429863
v 0.00235265462 0.0671004601 0.0341429862
v 0.00303669496 0.0671004601 0.034142986
v 0.00356070026 0.0675401528 0.034142986
v 0.00367948248 0.0682138009 0.0341429859
v 0.00333746238 0.0688061973 0.034142986
v -0.00215532466 0.0667401528 0.0376429869
v -0.00215532528 0.0667401528 0.034142987
v -0.00125532524 0.0667401528 0.0341429868
v -0.00125532541 0.0667401528 0.0331429867
v -0.00225532535 0.0667401528 0.0331429869
v -0.00225532457 0.0667401528 0.0376429869
v 0.000544674757 0.0703401526 0.0341429865
v 0.000544674757 0.0667401528 0.0341429865
v -0.000355325204 0.0667401528 0.0341429866
v -0.00125532524 0.0667401528 0.0341429868
v -0.00215532528 0.0667401528 0.034142987
v -0.00215532528 0.0703401526 0.034142987
v -0.000805325222 0.0690401527 0.0341429867
v -0.00144811289 0.0688061973 0.0341429868
v -0.00179013298 0.0682138009 0.0341429869
v -0.00167135076 0.0675401528 0.0341429869
v -0.00114734547 0.0671004601 0.0341429868
v -0.000463305127 0.0671004601 0.0341429867
v 6.07001665e-05 0.0675401528 0.0341429866
v 0.000179482538 0.0682138009 0.0341429865
v -0.000162537631 0.0688061973 0.0341429866
v -0.00125532524 0.0667401528 0.0341429868
v -0.000355325204 0.0667401528 0.0341429866
v -0.000355324679 0.0667401528 0.0371429866
v -0.00125532472 0.0667401528 0.0371429867
v -0.000405324886 0.0667401528 0.0365429866
v -0.000605324904 0.0667401528 0.0361965765
v -0.00100532482 0.0667401528 0.0361965765
v -0.00120532487 0.0667401528 0.0365429867
v -0.0010053247 0.0667401528 0.0368893969
v -0.000605324783 0.0667401528 0.0368893968
v -0.000405324886 0.0627401527 0.0365429866
v -0.000605324783 0.0627401527 0.0368893968
v -0.0010053247 0.0627401527 0.0368893969
v -0.00120532487 0.0627401527 0.0365429867
v -0.00100532482 0.0627401527 0.0361965765
v -0.000605324904 0.0627401527 0.0361965765
v 0.0022446747 0.0667401528 0.0341429862
v 0.00314467474 0.0667401528 0.034142986
v 0.00314467526 0.0667401528 0.037142986
v 0.00224467523 0.0667401528 0.0371429861
v 0.0030946752 0.0667401528 0.036542986
v 0.00289467504 0.0667401528 0.0361965759
v 0.00249467512 0.0667401528 0.0361965759
v 0.00229467522 0.0667401528 0.0365429861
v 0.00249467524 0.0667401528 0.0368893963
v 0.00289467516 0.0667401528 0.0368893962
v 0.0030946752 0.0627401527 0.036542986
v 0.00289467516 0.0627401527 0.0368893962
v 0.00249467524 0.0627401527 0.0368893963
v 0.00229467522 0.0627401527 0.0365429861
v 0.00249467512 0.0627401527 0.0361965759
v 0.00289467504 0.0627401527 0.0361965759
v 0.000694675164 0.0745401525 0.0365429864
v 0.000456555342 0.0745401525 0.0357320252
v -0.000182202587 0.0745401525 0.0351785386
v -0.00101879731 0.0745401525 0.0350582545
v -0.00178761625 0.0745401525 0.0354093624
v -0.00224456441 0.0745401525 0.0361203881
v -0.00224456426 0.0745401525 0.0369655858
v -0.00178761586 0.0745401525 0.0376766112
v -0.00101879679 0.0745401525 0.0380277189
v -0.00018220211 0.0745401525 0.0379074345
v 0.000456555626 0.0745401525 0.0373539476
v 0.000694675164 0.0710401529 0.0365429864
v 0.000456555626 0.0710401529 0.0373539476
v -0.00018220211 0.0710401529 0.0379074345
v -0.00101879679 0.0710401529 0.0380277189
v -0.00178761586 0.0710401529 0.0376766112
v -0.00224456426 0.0710401529 0.0369655858
v -0.00224456441 0.0710401529 0.0361203881
v -0.00178761625 0.0710401529 0.0354093624
v -0.00101879731 0.0710401529 0.0350582545
v -0.000182202587 0.0710401529 0.0351785386
v 0.000456555342 0.0710401529 0.0357320252
v 0.000694675164 0.0745401525 0.0365429864
v 0.000694675164 0.0710401529 0.0365429864
v 0.00419467505 0.0745401525 0.0365429858
v 0.00395655525 0.0745401525 0.0357320246
v 0.0033177975 0.0745401525 0.035178538
v 0.00248120263 0.0745401525 0.0350582539
v 0.00171238384 0.0745401525 0.0354093618
v 0.00125543563 0.0745401525 0.0361203875
v 0.00125543577 0.0745401525 0.0369655851
v 0.00171238423 0.0745401525 0.0376766106
v 0.00248120315 0.0745401525 0.0380277183
v 0.00331779798 0.0745401525 0.0379074339
v 0.00395655553 0.0745401525 0.037353947
v 0.00419467505 0.0710401529 0.0365429858
v 0.00395655553 0.0710401529 0.037353947
v 0.00331779798 0.0710401529 0.0379074339
v 0.00248120315 0.0710401529 0.0380277183
v 0.00171238423 0.0710401529 0.0376766106
v 0.00125543577 0.0710401529 0.0369655851
v 0.00125543563 0.0710401529 0.0361203875
v 0.00171238384 0.0710401529 0.0354093618
v 0.00248120263 0.0710401529 0.0350582539
v 0.0033177975 0.0710401529 0.035178538
v 0.00395655525 0.0710401529 0.0357320246
v 0.00419467505 0.0745401525 0.0365429858
v 0.00419467505 0.0710401529 0.0365429858
v 0.00269467472 0.0690401527 0.0341429861
v 0.00333746238 0.0688061973 0.034142986
v 0.00367948248 0.0682138009 0.0341429859
v 0.00356070026 0.0675401528 0.034142986
v 0.00303669496 0.0671004601 0.034142986
v 0.00235265462 0.0671004601 0.0341429862
v 0.00182864933 0.0675401528 0.0341429863
v 0.00170986696 0.0682138009 0.0341429863
v 0.00205188713 0.0688061973 0.0341429862
v 0.00269467533 0.0690401527 0.037642986
v 0.00205188774 0.0688061973 0.0376429862
v 0.00170986757 0.0682138009 0.0376429862
v 0.00182864994 0.0675401528 0.0376429862
v 0.00235265524 0.0671004601 0.0376429861
v 0.00303669557 0.0671004601 0.037642986
v 0.00356070087 0.0675401528 0.0376429859
v 0.00367948309 0.0682138009 0.0376429859
v 0.003337463 0.0688061973 0.0376429859
v 0.00269467472 0.0690401527 0.0341429861
v 0.00269467533 0.0690401527 0.037642986
v -0.000805325222 0.0690401527 0.0341429867
v -0.000162537631 0.0688061973 0.0341429866
v 0.000179482538 0.0682138009 0.0341429865
v 6.07001665e-05 0.0675401528 0.0341429866
v -0.000463305127 0.0671004601 0.0341429867
v -0.00114734547 0.0671004601 0.0341429868
v -0.00167135076 0.0675401528 0.0341429869
v -0.00179013298 0.0682138009 0.0341429869
v -0.00144811289 0.0688061973 0.0341429868
v -0.00080532461 0.0690401527 0.0376429867
v -0.00144811227 0.0688061973 0.0376429868
v -0.00179013237 0.0682138009 0.0376429868
v -0.00167135015 0.0675401528 0.0376429868
v -0.00114734485 0.0671004601 0.0376429867
v -0.000463304515 0.0671004601 0.0376429866
v 6.07007785e-05 0.0675401528 0.0376429865
v 0.00017948315 0.0682138009 0.0376429865
v -0.000162537019 0.0688061973 0.0376429865
v -0.000805325222 0.0690401527 0.0341429867
v -0.00080532461 0.0690401527 0.0376429867
v -0.000405324886 0.0627401527 0.0365429866
v -0.000605324904 0.0627401527 0.0361965765
v -0.00100532482 0.0627401527 0.0361965765
v -0.00120532487 0.0627401527 0.0365429867
v -0.0010053247 0.0627401527 0.0368893969
v -0.000605324783 0.0627401527 0.0368893968
v -0.000405324886 0.0667401528 0.0365429866
v -0.000605324783 0.0667401528 0.0368893968
v -0.0010053247 0.0667401528 0.0368893969
v -0.00120532487 0.0667401528 0.0365429867
v -0.00100532482 0.0667401528 0.0361965765
v -0.000605324904 0.0667401528 0.0361965765
v -0.000405324886 0.0627401527 0.0365429866
v -0.000405324886 0.0667401528 0.0365429866
v 0.0030946752 0.0627401527 0.036542986
v 0.00289467504 0.0627401527 0.0361965759
v 0.00249467512 0.0627401527 0.0361965759
v 0.00229467522 0.0627401527 0.0365429861
v 0.00249467524 0.0627401527 0.0368893963
v 0.00289467516 0.0627401527 0.0368893962
v 0.0030946752 0.0667401528 0.036542986
v 0.00289467516 0.0667401528 0.0368893962
v 0.00249467524 0.0667401528 0.0368893963
v 0.00229467522 0.0667401528 0.0365429861
v 0.00249467512 0.0667401528 0.0361965759
v 0.00289467504 0.0667401528 0.0361965759
v 0.0030946752 0.0627401527 0.036542986
v 0.0030946752 0.0667401528 0.036542986
f 1 2 4
f 4 2 3
f 5 6 8
f 8 6 7
f 10 11 9
f 9 11 12
f 14 15 13
f 13 15 16
f 18 19 17
f 17 19 20
f 21 22 24
f 24 22 23
f 25 26 28
f 28 26 27
f 29 30 32
f 32 30 31
f 34 35 33
f 33 35 36
f 37 38 40
f 40 38 39
f 42 43 41
f 41 43 44
f 46 47 45
f 45 47 48
f 49 50 56
f 56 50 51
f 56 51 52
f 56 52 55
f 55 52 53
f 55 53 54
f 58 59 57
f 57 59 60
f 57 60 61
f 61 62 57
f 64 67 63
f 63 67 68
f 63 68 69
f 65 66 64
f 64 66 67
f 69 70 63
f 71 72 74
f 74 72 73
f 76 77 75
f 75 77 80
f 75 80 81
f 77 78 80
f 80 78 79
f 81 82 75
f 102 83 101
f 101 83 84
f 101 84 85
f 101 85 100
f 100 85 86
f 100 86 97
f 97 86 89
f 97 89 90
f 87 88 86
f 86 88 89
f 91 92 90
f 90 92 93
f 90 93 97
f 97 93 96
f 96 93 94
f 96 94 95
f 98 99 97
f 97 99 100
f 108 103 106
f 106 103 104
f 106 104 105
f 106 107 108
f 110 111 109
f 109 111 112
f 109 112 114
f 114 112 113
f 116 125 115
f 115 125 126
f 115 126 127
f 125 116 123
f 123 116 117
f 123 117 118
f 123 118 122
f 122 118 119
f 122 119 120
f 120 121 122
f 123 124 125
f 127 128 115
f 129 130 132
f 132 130 131
f 133 134 136
f 136 134 135
f 141 137 140
f 140 137 138
f 140 138 139
f 142 143 145
f 145 143 144
f 147 148 146
f 146 148 149
f 163 150 158
f 158 150 151
f 158 151 156
f 156 151 152
f 156 152 155
f 155 152 153
f 155 153 154
f 156 157 158
f 158 159 163
f 163 159 162
f 162 159 161
f 161 159 160
f 164 165 167
f 167 165 166
f 168 169 171
f 171 169 170
f 173 174 172
f 172 174 175
f 176 177 179
f 179 177 178
f 180 181 184
f 184 181 183
f 183 181 182
f 185 186 189
f 189 186 188
f 188 186 187
f 191 192 190
f 190 192 197
f 197 192 193
f 197 193 196
f 196 193 195
f 195 193 194
f 198 199 201
f 201 199 200
f 202 203 205
f 205 203 204
f 210 206 209
f 209 206 207
f 209 207 208
f 211 212 215
f 215 212 214
f 214 212 213
f 216 217 220
f 220 217 219
f 219 217 218
f 222 223 221
f 221 223 224
f 221 224 225
f 225 226 221
f 227 228 230
f 230 228 229
f 231 232 234
f 234 232 233
f 236 237 235
f 235 237 238
f 239 240 249
f 249 240 248
f 248 240 241
f 248 241 247
f 247 241 242
f 247 242 246
f 246 242 243
f 246 243 245
f 245 243 244
f 250 251 255
f 255 251 254
f 254 251 253
f 253 251 252
f 256 257 259
f 259 257 258
f 261 262 260
f 260 262 263
f 264 265 274
f 274 265 273
f 273 265 266
f 273 266 272
f 272 266 267
f 272 267 271
f 271 267 268
f 271 268 270
f 270 268 269
f 276 277 275
f 275 277 282
f 282 277 278
f 282 278 281
f 281 278 280
f 280 278 279
f 283 284 291
f 291 284 285
f 291 285 290
f 290 285 286
f 290 286 289
f 289 286 287
f 289 287 288
f 292 293 303
f 303 293 302
f 302 293 312
f 302 312 301
f 301 312 313
f 301 313 298
f 298 313 314
f 298 314 304
f 294 323 293
f 293 323 324
f 293 324 312
f 312 324 311
f 311 324 325
f 311 325 310
f 310 325 315
f 310 315 309
f 309 315 316
f 309 316 308
f 308 316 317
f 308 317 307
f 307 317 296
f 307 296 297
f 323 294 322
f 322 294 295
f 322 295 321
f 321 295 320
f 320 295 296
f 320 296 319
f 319 296 318
f 318 296 317
f 298 304 297
f 297 304 305
f 297 305 306
f 299 300 298
f 298 300 301
f 306 307 297
f 327 328 326
f 326 328 329
f 326 329 330
f 330 331 326
f 332 333 340
f 340 333 334
f 340 334 339
f 339 334 335
f 339 335 338
f 338 335 336
f 338 336 337
f 342 354 341
f 341 354 355
f 341 355 347
f 354 342 353
f 353 342 343
f 353 343 352
f 352 343 351
f 351 343 344
f 351 344 350
f 350 344 345
f 350 345 349
f 349 345 346
f 349 346 348
f 348 346 347
f 347 346 341
f 356 357 361
f 361 357 360
f 360 357 359
f 359 357 358
f 363 375 362
f 362 375 376
f 362 376 368
f 375 363 374
f 374 363 364
f 374 364 373
f 373 364 372
f 372 364 365
f 372 365 371
f 371 365 366
f 371 366 370
f 370 366 367
f 370 367 369
f 369 367 368
f 368 367 362
f 378 383 377
f 377 383 384
f 377 384 380
f 380 384 385
f 380 385 386
f 379 381 378
f 378 381 382
f 378 382 383
f 381 379 386
f 386 379 380
f 388 389 387
f 387 389 390
f 387 390 392
f 392 390 391
f 394 399 393
f 393 399 400
f 393 400 396
f 396 400 401
f 396 401 402
f 395 397 394
f 394 397 398
f 394 398 399
f 397 395 402
f 402 395 396
f 404 405 403
f 403 405 406
f 403 406 408
f 408 406 407
f 410 430 409
f 409 430 432
f 431 420 419
f 419 420 421
f 419 421 418
f 418 421 422
f 418 422 417
f 417 422 423
f 417 423 416
f 416 423 424
f 416 424 415
f 415 424 425
f 415 425 414
f 414 425 426
f 414 426 413
f 413 426 427
f 413 427 412
f 412 427 428
f 412 428 411
f 411 428 429
f 411 429 410
f 410 429 430
f 434 454 433
f 433 454 456
f 455 444 443
f 443 444 445
f 443 445 442
f 442 445 446
f 442 446 441
f 441 446 447
f 441 447 440
f 440 447 448
f 440 448 439
f 439 448 449
f 439 449 438
f 438 449 450
f 438 450 437
f 437 450 451
f 437 451 436
f 436 451 452
f 436 452 435
f 435 452 453
f 435 453 434
f 434 453 454
f 458 474 457
f 457 474 476
f 475 466 465
f 465 466 467
f 465 467 464
f 464 467 468
f 464 468 463
f 463 468 469
f 463 469 462
f 462 469 470
f 462 470 461
f 461 470 471
f 461 471 460
f 460 471 472
f 460 472 459
f 459 472 473
f 459 473 458
f 458 473 474
f 478 494 477
f 477 494 496
f 495 486 485
f 485 486 487
f 485 487 484
f 484 487 488
f 484 488 483
f 483 488 489
f 483 489 482
f 482 489 490
f 482 490 481
f 481 490 491
f 481 491 480
f 480 491 492
f 480 492 479
f 479 492 493
f 479 493 478
f 478 493 494
f 498 508 497
f 497 508 510
f 509 503 502
f 502 503 504
f 502 504 501
f 501 504 505
f 501 505 500
f 500 505 506
f 500 506 499
f 499 506 507
f 499 507 498
f 498 507 508
f 512 522 511
f 511 522 524
f 523 517 516
f 516 517 518
f 516 518 515
f 515 518 519
f 515 519 514
f 514 519 520
f 514 520 513
f 513 520 521
f 513 521 512
f 512 521 522
