v -0.0184084834 0.0663901528 0.042644257
v -0.0184084834 0.0663401528 0.042644257
v -0.0184084834 0.0663401528 0.0436442571
v -0.0184084834 0.0663901528 0.0436442571
v -0.0183800513 0.0667218608 0.0436158249
v -0.0177369155 0.0667218608 0.0436158249
v -0.0177433176 0.0667348864 0.0436094228
v -0.0177568424 0.0667401528 0.043595898
v -0.0183601243 0.0667401528 0.043595898
v -0.0183736491 0.0667348864 0.0436094228
v -0.0177084834 0.0663901528 0.042644257
v -0.0184084834 0.0663901528 0.042644257
v -0.0183800513 0.0667218608 0.0426726892
v -0.0177369155 0.0667218608 0.0426726891
v -0.0177568424 0.0667401528 0.043595898
v -0.0177433176 0.0667348864 0.0436094228
v -0.0177369155 0.0667218608 0.0436158249
v -0.0177369155 0.0667218608 0.0426726891
v -0.0177433177 0.0667348864 0.0426790913
v -0.0177568425 0.0667401528 0.0426926161
v -0.0177084834 0.0663901528 0.043644257
v -0.0177084834 0.0663401528 0.043644257
v -0.0177084834 0.0663401528 0.042644257
v -0.0177084834 0.0663901528 0.042644257
v -0.0177084834 0.0663901528 0.042644257
v -0.0177084834 0.0663401528 0.042644257
v -0.0184084834 0.0663401528 0.042644257
v -0.0184084834 0.0663901528 0.042644257
v -0.0177084834 0.0663401528 0.043644257
v -0.0184084834 0.0663401528 0.0436442571
v -0.0184084834 0.0663401528 0.042644257
v -0.0177084834 0.0663401528 0.042644257
v -0.0177568425 0.0667401528 0.0426926161
v -0.0177433177 0.0667348864 0.0426790913
v -0.0177369155 0.0667218608 0.0426726891
v -0.0183800513 0.0667218608 0.0426726892
v -0.0183736492 0.0667348864 0.0426790913
v -0.0183601244 0.0667401528 0.0426926161
v -0.0183800513 0.0667218608 0.0426726892
v -0.0183800513 0.0667218608 0.0436158249
v -0.0183736491 0.0667348864 0.0436094228
v -0.0183601243 0.0667401528 0.043595898
v -0.0183601244 0.0667401528 0.0426926161
v -0.0183736492 0.0667348864 0.0426790913
v -0.0183601244 0.0667401528 0.0426926161
v -0.0183601243 0.0667401528 0.043595898
v -0.0177568424 0.0667401528 0.043595898
v -0.0177568425 0.0667401528 0.0426926161
v -0.0184084834 0.0663901528 0.042644257
v -0.0184084834 0.0663901528 0.0436442571
v -0.0183800513 0.0667218608 0.0436158249
v -0.0183800513 0.0667218608 0.0426726892
v -0.0177084834 0.0663901528 0.043644257
v -0.0177084834 0.0663901528 0.042644257
v -0.0177369155 0.0667218608 0.0426726891
v -0.0177369155 0.0667218608 0.0436158249
v -0.0184084834 0.0663901528 0.0436442571
v -0.0184084834 0.0663401528 0.0436442571
v -0.0177084834 0.0663401528 0.043644257
v -0.0177084834 0.0663901528 0.043644257
v -0.0184084834 0.0663901528 0.0436442571
v -0.0177084834 0.0663901528 0.043644257
v -0.0177369155 0.0667218608 0.0436158249
v -0.0183800513 0.0667218608 0.0436158249
f 1 2 4
f 4 2 3
f 5 6 10
f 10 6 7
f 10 7 9
f 9 7 8
f 11 12 14
f 14 12 13
f 20 15 19
f 19 15 16
f 19 16 18
f 18 16 17
f 21 22 24
f 24 22 23
f 25 26 28
f 28 26 27
f 30 31 29
f 29 31 32
f 38 33 37
f 37 33 34
f 37 34 36
f 36 34 35
f 39 40 44
f 44 40 41
f 44 41 43
f 43 41 42
f 45 46 48
f 48 46 47
f 50 51 49
f 49 51 52
f 53 54 56
f 56 54 55
f 57 58 60
f 60 58 59
f 62 63 61
f 61 63 64
