v 0.00408031575 0.074040153 0.0363429858
v 0.00130903449 0.074040153 0.0363429863
v 0.00130903449 0.0736401528 0.0363429863
v 0.00408031575 0.0736401528 0.0363429858
v 0.00408031582 0.074040153 0.0367429858
v 0.00408031582 0.0736401528 0.0367429858
v 0.00130903456 0.0736401528 0.0367429863
v 0.00130903456 0.074040153 0.0367429863
v 0.00130903456 0.0736401528 0.0367429863
v 0.00408031582 0.0736401528 0.0367429858
v 0.00409307716 0.0736401528 0.0366098559
v 0.00409307713 0.0736401528 0.0364761157
v 0.00408031575 0.0736401528 0.0363429858
v 0.00130903449 0.0736401528 0.0363429863
v 0.00129627308 0.0736401528 0.0364761162
v 0.00129627311 0.0736401528 0.0366098564
v 0.00129467517 0.0710401529 0.0365429863
v 0.00137053094 0.0710401529 0.036088407
v 0.00158987831 0.0710401529 0.0356830884
v 0.00192894755 0.0710401529 0.0353709531
v 0.00235099526 0.0710401529 0.0351858258
v 0.002810286 0.0710401529 0.0351477678
v 0.00325704861 0.0710401529 0.0352609033
v 0.00364286907 0.0710401529 0.0355129724
v 0.00392593845 0.0710401529 0.0358766595
v 0.00407558105 0.0710401529 0.0363125534
v 0.00407558113 0.0710401529 0.0367734182
v 0.00392593868 0.0710401529 0.0372093122
v 0.00364286943 0.0710401529 0.0375729994
v 0.00325704906 0.0710401529 0.0378250686
v 0.00281028649 0.0710401529 0.0379382043
v 0.00235099574 0.0710401529 0.0379001465
v 0.00192894796 0.0710401529 0.0377150193
v 0.00158987861 0.0710401529 0.0374028841
v 0.0013705311 0.0710401529 0.0369975655
v 0.00130903449 0.074040153 0.0363429863
v 0.00408031575 0.074040153 0.0363429858
v 0.00394880131 0.074040153 0.0359207581
v 0.00369214782 0.074040153 0.0355606174
v 0.00333596487 0.074040153 0.0352984991
v 0.00291579278 0.074040153 0.0351605581
v 0.00247355716 0.074040153 0.0351605581
v 0.00205338512 0.074040153 0.0352984994
v 0.00169720211 0.074040153 0.0355606177
v 0.00144054882 0.074040153 0.0359207585
v 0.00130903456 0.074040153 0.0367429863
v 0.00144054904 0.074040153 0.037165214
v 0.00169720246 0.074040153 0.0375253547
v 0.00205338556 0.074040153 0.037787473
v 0.00247355765 0.074040153 0.0379254141
v 0.00291579326 0.074040153 0.037925414
v 0.00333596531 0.074040153 0.0377874727
v 0.00369214816 0.074040153 0.0375253544
v 0.00394880153 0.074040153 0.0371652136
v 0.00408031582 0.074040153 0.0367429858
v 0.00130903456 0.0736401528 0.0367429863
v 0.00129627311 0.0736401528 0.0366098564
v 0.00129627308 0.0736401528 0.0364761162
v 0.00130903449 0.0736401528 0.0363429863
v 0.00130903449 0.074040153 0.0363429863
v 0.00144054882 0.074040153 0.0359207585
v 0.00169720211 0.074040153 0.0355606177
v 0.00205338512 0.074040153 0.0352984994
v 0.00247355716 0.074040153 0.0351605581
v 0.00291579278 0.074040153 0.0351605581
v 0.00333596487 0.074040153 0.0352984991
v 0.00369214782 0.074040153 0.0355606174
v 0.00394880131 0.074040153 0.0359207581
v 0.00408031575 0.074040153 0.0363429858
v 0.00408031575 0.0736401528 0.0363429858
v 0.00409307713 0.0736401528 0.0364761157
v 0.00409307716 0.0736401528 0.0366098559
v 0.00408031582 0.0736401528 0.0367429858
v 0.00408031582 0.074040153 0.0367429858
v 0.00394880153 0.074040153 0.0371652136
v 0.00369214816 0.074040153 0.0375253544
v 0.00333596531 0.074040153 0.0377874727
v 0.00291579326 0.074040153 0.037925414
v 0.00247355765 0.074040153 0.0379254141
v 0.00205338556 0.074040153 0.037787473
v 0.00169720246 0.074040153 0.0375253547
v 0.00144054904 0.074040153 0.037165214
v 0.00130903456 0.074040153 0.0367429863
v 0.00129467517 0.0710401529 0.0365429863
v 0.0013705311 0.0710401529 0.0369975655
v 0.00158987861 0.0710401529 0.0374028841
v 0.00192894796 0.0710401529 0.0377150193
v 0.00235099574 0.0710401529 0.0379001465
v 0.00281028649 0.0710401529 0.0379382043
v 0.00325704906 0.0710401529 0.0378250686
v 0.00364286943 0.0710401529 0.0375729994
v 0.00392593868 0.0710401529 0.0372093122
v 0.00407558113 0.0710401529 0.0367734182
v 0.00407558105 0.0710401529 0.0363125534
v 0.00392593845 0.0710401529 0.0358766595
v 0.00364286907 0.0710401529 0.0355129724
v 0.00325704861 0.0710401529 0.0352609033
v 0.002810286 0.0710401529 0.0351477678
v 0.00235099526 0.0710401529 0.0351858258
v 0.00192894755 0.0710401529 0.0353709531
v 0.00158987831 0.0710401529 0.0356830884
v 0.00137053094 0.0710401529 0.036088407
v 0.00129467517 0.0710401529 0.0365429863
v 0.00129627311 0.0736401528 0.0366098564
f 2 3 1
f 1 3 4
f 5 6 8
f 8 6 7
f 9 10 16
f 16 10 11
f 16 11 15
f 15 11 12
f 15 12 14
f 14 12 13
f 17 18 35
f 35 18 34
f 34 18 19
f 34 19 33
f 33 19 20
f 33 20 32
f 32 20 21
f 32 21 31
f 31 21 22
f 31 22 30
f 30 22 29
f 29 22 28
f 28 22 27
f 27 22 26
f 26 22 25
f 25 22 24
f 24 22 23
f 36 37 45
f 45 37 38
f 45 38 44
f 44 38 39
f 44 39 43
f 43 39 40
f 43 40 42
f 42 40 41
f 55 46 54
f 54 46 47
f 54 47 53
f 53 47 48
f 53 48 52
f 52 48 49
f 52 49 51
f 51 49 50
f 104 84 56
f 56 84 85
f 56 85 83
f 83 85 82
f 82 85 86
f 82 86 81
f 81 86 87
f 81 87 80
f 80 87 88
f 80 88 79
f 79 88 89
f 79 89 78
f 78 89 90
f 78 90 77
f 77 90 91
f 77 91 76
f 76 91 92
f 76 92 75
f 75 92 93
f 75 93 74
f 74 93 73
f 73 93 72
f 72 93 94
f 72 94 71
f 71 94 70
f 70 94 69
f 69 94 68
f 68 94 95
f 68 95 67
f 67 95 96
f 67 96 66
f 66 96 97
f 66 97 65
f 65 97 98
f 65 98 64
f 64 98 99
f 64 99 63
f 63 99 100
f 63 100 62
f 62 100 101
f 62 101 61
f 61 101 102
f 61 102 60
f 60 102 59
f 59 102 103
f 59 103 58
f 58 103 57
v 0.000580315777 0.074040153 0.0363429864
v -0.00219096549 0.074040153 0.0363429869
v -0.00219096549 0.0736401528 0.0363429869
v 0.000580315777 0.0736401528 0.0363429864
v 0.000580315847 0.074040153 0.0367429864
v 0.000580315847 0.0736401528 0.0367429864
v -0.00219096542 0.0736401528 0.0367429869
v -0.00219096542 0.074040153 0.0367429869
v -0.00219096542 0.0736401528 0.0367429869
v 0.000580315847 0.0736401528 0.0367429864
v 0.000593077252 0.0736401528 0.0366098565
v 0.000593077229 0.0736401528 0.0364761163
v 0.000580315777 0.0736401528 0.0363429864
v -0.00219096549 0.0736401528 0.0363429869
v -0.00220372682 0.0736401528 0.0364761168
v -0.0022037268 0.0736401528 0.036609857
v -0.00220532481 0.0710401529 0.0365429869
v -0.00212946904 0.0710401529 0.0360884076
v -0.00191012163 0.0710401529 0.0356830891
v -0.00157105232 0.0710401529 0.0353709537
v -0.00114900483 0.0710401529 0.0351858264
v -0.00068971394 0.0710401529 0.0351477684
v -0.000242951478 0.0710401529 0.0352609039
v 0.000142869209 0.0710401529 0.035512973
v 0.000425938287 0.0710401529 0.0358766601
v 0.000575580965 0.0710401529 0.036312554
v 0.000575581045 0.0710401529 0.0367734189
v 0.00042593852 0.0710401529 0.0372093128
v 0.000142869569 0.0710401529 0.037573
v -0.000242951029 0.0710401529 0.0378250692
v -0.000689713452 0.0710401529 0.0379382049
v -0.00114900435 0.0710401529 0.0379001471
v -0.00157105191 0.0710401529 0.0377150199
v -0.00191012133 0.0710401529 0.0374028847
v -0.00212946888 0.0710401529 0.0369975662
v -0.00219096549 0.074040153 0.0363429869
v 0.000580315777 0.074040153 0.0363429864
v 0.000448801295 0.074040153 0.0359207587
v 0.000192147879 0.074040153 0.035560618
v -0.000164035219 0.074040153 0.0352984998
v -0.000584207309 0.074040153 0.0351605587
v -0.00102644293 0.074040153 0.0351605587
v -0.00144661497 0.074040153 0.0352985
v -0.00180279783 0.074040153 0.0355606183
v -0.00205945119 0.074040153 0.0359207591
v -0.00219096542 0.074040153 0.0367429869
v -0.00205945097 0.074040153 0.0371652146
v -0.00180279748 0.074040153 0.0375253554
v -0.00144661453 0.074040153 0.0377874736
v -0.00102644244 0.074040153 0.0379254147
v -0.000584206825 0.074040153 0.0379254146
v -0.000164034784 0.074040153 0.0377874733
v 0.000192148222 0.074040153 0.037525355
v 0.000448801513 0.074040153 0.0371652142
v 0.000580315847 0.074040153 0.0367429864
v -0.00219096542 0.0736401528 0.0367429869
v -0.0022037268 0.0736401528 0.036609857
v -0.00220372682 0.0736401528 0.0364761168
v -0.00219096549 0.0736401528 0.0363429869
v -0.00219096549 0.074040153 0.0363429869
v -0.00205945119 0.074040153 0.0359207591
v -0.00180279783 0.074040153 0.0355606183
v -0.00144661497 0.074040153 0.0352985
v -0.00102644293 0.074040153 0.0351605587
v -0.000584207309 0.074040153 0.0351605587
v -0.000164035219 0.074040153 0.0352984998
v 0.000192147879 0.074040153 0.035560618
v 0.000448801295 0.074040153 0.0359207587
v 0.000580315777 0.074040153 0.0363429864
v 0.000580315777 0.0736401528 0.0363429864
v 0.000593077229 0.0736401528 0.0364761163
v 0.000593077252 0.0736401528 0.0366098565
v 0.000580315847 0.0736401528 0.0367429864
v 0.000580315847 0.074040153 0.0367429864
v 0.000448801513 0.074040153 0.0371652142
v 0.000192148222 0.074040153 0.037525355
v -0.000164034784 0.074040153 0.0377874733
v -0.000584206825 0.074040153 0.0379254146
v -0.00102644244 0.074040153 0.0379254147
v -0.00144661453 0.074040153 0.0377874736
v -0.00180279748 0.074040153 0.0375253554
v -0.00205945097 0.074040153 0.0371652146
v -0.00219096542 0.074040153 0.0367429869
v -0.00220532481 0.0710401529 0.0365429869
v -0.00212946888 0.0710401529 0.0369975662
v -0.00191012133 0.0710401529 0.0374028847
v -0.00157105191 0.0710401529 0.0377150199
v -0.00114900435 0.0710401529 0.0379001471
v -0.000689713452 0.0710401529 0.0379382049
v -0.000242951029 0.0710401529 0.0378250692
v 0.000142869569 0.0710401529 0.037573
v 0.00042593852 0.0710401529 0.0372093128
v 0.000575581045 0.0710401529 0.0367734189
v 0.000575580965 0.0710401529 0.036312554
v 0.000425938287 0.0710401529 0.0358766601
v 0.000142869209 0.0710401529 0.035512973
v -0.000242951478 0.0710401529 0.0352609039
v -0.00068971394 0.0710401529 0.0351477684
v -0.00114900483 0.0710401529 0.0351858264
v -0.00157105232 0.0710401529 0.0353709537
v -0.00191012163 0.0710401529 0.0356830891
v -0.00212946904 0.0710401529 0.0360884076
v -0.00220532481 0.0710401529 0.0365429869
v -0.0022037268 0.0736401528 0.036609857
f 106 107 105
f 105 107 108
f 109 110 112
f 112 110 111
f 113 114 120
f 120 114 115
f 120 115 119
f 119 115 116
f 119 116 118
f 118 116 117
f 121 122 139
f 139 122 138
f 138 122 123
f 138 123 137
f 137 123 124
f 137 124 136
f 136 124 125
f 136 125 135
f 135 125 126
f 135 126 134
f 134 126 133
f 133 126 132
f 132 126 131
f 131 126 130
f 130 126 129
f 129 126 128
f 128 126 127
f 140 141 149
f 149 141 142
f 149 142 148
f 148 142 143
f 148 143 147
f 147 143 144
f 147 144 146
f 146 144 145
f 159 150 158
f 158 150 151
f 158 151 157
f 157 151 152
f 157 152 156
f 156 152 153
f 156 153 155
f 155 153 154
f 208 188 160
f 160 188 189
f 160 189 187
f 187 189 186
f 186 189 190
f 186 190 185
f 185 190 191
f 185 191 184
f 184 191 192
f 184 192 183
f 183 192 193
f 183 193 182
f 182 193 194
f 182 194 181
f 181 194 195
f 181 195 180
f 180 195 196
f 180 196 179
f 179 196 197
f 179 197 178
f 178 197 177
f 177 197 176
f 176 197 198
f 176 198 175
f 175 198 174
f 174 198 173
f 173 198 172
f 172 198 199
f 172 199 171
f 171 199 200
f 171 200 170
f 170 200 201
f 170 201 169
f 169 201 202
f 169 202 168
f 168 202 203
f 168 203 167
f 167 203 204
f 167 204 166
f 166 204 205
f 166 205 165
f 165 205 206
f 165 206 164
f 164 206 163
f 163 206 207
f 163 207 162
f 162 207 161
