v 0.034000001 -0.299200001 0.256000004
v 0.034000001 -0.298400002 0.256000004
v 0.146999998 -0.298400002 0.256000004
v 0.146999998 -0.299200001 0.256000004
v 0.034000001 -0.298400002 0.276000004
v 0.034000001 -0.299200001 0.276000004
v 0.146999998 -0.299200001 0.276000004
v 0.146999998 -0.298400002 0.276000004
v 0.034000001 -0.298400002 0.256000004
v 0.034000001 -0.299200001 0.256000004
v 0.034000001 -0.299200001 0.276000004
v 0.034000001 -0.298400002 0.276000004
v 0.034000001 -0.299200001 0.256000004
v 0.146999998 -0.299200001 0.256000004
v 0.146999998 -0.299200001 0.276000004
v 0.034000001 -0.299200001 0.276000004
v 0.146999998 -0.299200001 0.256000004
v 0.146999998 -0.298400002 0.256000004
v 0.146999998 -0.298400002 0.276000004
v 0.146999998 -0.299200001 0.276000004
v 0.146999998 -0.298400002 0.256000004
v 0.034000001 -0.298400002 0.256000004
v 0.034000001 -0.298400002 0.276000004
v 0.146999998 -0.298400002 0.276000004
f 2 3 1
f 1 3 4
f 6 7 5
f 5 7 8
f 9 10 12
f 12 10 11
f 13 14 16
f 16 14 15
f 17 18 20
f 20 18 19
f 21 22 24
f 24 22 23
