v 0.455337075 -0.30022 0.115999999
v 0.467277048 -0.30022 0.115999999
v 0.467277048 -0.30022 0.117888131
v 0.457454399 -0.30022 0.117888131
v 0.457454399 -0.30022 0.123334241
v 0.466305698 -0.30022 0.123334241
v 0.466305698 -0.30022 0.125211458
v 0.457454399 -0.30022 0.125211458
v 0.457454399 -0.30022 0.130111866
v 0.466905969 -0.30022 0.130111866
v 0.466905969 -0.30022 0.131999998
v 0.455337075 -0.30022 0.131999998
v 0.457454399 -0.3001 0.123334241
v 0.466305698 -0.3001 0.123334241
v 0.466305698 -0.30022 0.123334241
v 0.457454399 -0.30022 0.123334241
v 0.455337075 -0.3001 0.115999999
v 0.467277048 -0.3001 0.115999999
v 0.467277048 -0.30022 0.115999999
v 0.455337075 -0.30022 0.115999999
v 0.466305698 -0.3001 0.123334241
v 0.466305698 -0.3001 0.125211458
v 0.466305698 -0.30022 0.125211458
v 0.466305698 -0.30022 0.123334241
v 0.467277048 -0.3001 0.115999999
v 0.455337075 -0.3001 0.115999999
v 0.455337075 -0.3001 0.131999998
v 0.466905969 -0.3001 0.131999998
v 0.466905969 -0.3001 0.130111866
v 0.457454399 -0.3001 0.130111866
v 0.457454399 -0.3001 0.125211458
v 0.466305698 -0.3001 0.125211458
v 0.466305698 -0.3001 0.123334241
v 0.457454399 -0.3001 0.123334241
v 0.457454399 -0.3001 0.117888131
v 0.467277048 -0.3001 0.117888131
v 0.466305698 -0.3001 0.125211458
v 0.457454399 -0.3001 0.125211458
v 0.457454399 -0.30022 0.125211458
v 0.466305698 -0.30022 0.125211458
v 0.457454399 -0.3001 0.125211458
v 0.457454399 -0.3001 0.130111866
v 0.457454399 -0.30022 0.130111866
v 0.457454399 -0.30022 0.125211458
v 0.457454399 -0.3001 0.130111866
v 0.466905969 -0.3001 0.130111866
v 0.466905969 -0.30022 0.130111866
v 0.457454399 -0.30022 0.130111866
v 0.466905969 -0.3001 0.130111866
v 0.466905969 -0.3001 0.131999998
v 0.466905969 -0.30022 0.131999998
v 0.466905969 -0.30022 0.130111866
v 0.466905969 -0.3001 0.131999998
v 0.455337075 -0.3001 0.131999998
v 0.455337075 -0.30022 0.131999998
v 0.466905969 -0.30022 0.131999998
v 0.455337075 -0.3001 0.131999998
v 0.455337075 -0.3001 0.115999999
v 0.455337075 -0.30022 0.115999999
v 0.455337075 -0.30022 0.131999998
v 0.467277048 -0.3001 0.117888131
v 0.457454399 -0.3001 0.117888131
v 0.457454399 -0.30022 0.117888131
v 0.467277048 -0.30022 0.117888131
v 0.467277048 -0.3001 0.115999999
v 0.467277048 -0.3001 0.117888131
v 0.467277048 -0.30022 0.117888131
v 0.467277048 -0.30022 0.115999999
v 0.457454399 -0.3001 0.117888131
v 0.457454399 -0.3001 0.123334241
v 0.457454399 -0.30022 0.123334241
v 0.457454399 -0.30022 0.117888131
f 2 4 1
f 1 4 5
f 1 5 12
f 12 5 8
f 12 8 9
f 2 3 4
f 5 6 8
f 8 6 7
f 10 11 9
f 9 11 12
f 13 14 16
f 16 14 15
f 17 18 20
f 20 18 19
f 21 22 24
f 24 22 23
f 36 25 35
f 35 25 26
f 35 26 34
f 34 26 27
f 34 27 31
f 31 27 30
f 30 27 28
f 30 28 29
f 31 32 34
f 34 32 33
f 37 38 40
f 40 38 39
f 41 42 44
f 44 42 43
f 45 46 48
f 48 46 47
f 49 50 52
f 52 50 51
f 53 54 56
f 56 54 55
f 57 58 60
f 60 58 59
f 61 62 64
f 64 62 63
f 65 66 68
f 68 66 67
f 69 70 72
f 72 70 71
v 0.487828205 -0.30022 0.121609821
v 0.487192467 -0.30022 0.119839015
v 0.48615836 -0.30022 0.118564801
v 0.484788645 -0.30022 0.117795362
v 0.483146075 -0.30022 0.117538881
v 0.481735438 -0.30022 0.117727146
v 0.480428475 -0.30022 0.11829195
v 0.479338435 -0.30022 0.11923738
v 0.478578547 -0.30022 0.120567527
v 0.478132437 -0.30022 0.122219644
v 0.477983731 -0.30022 0.124130969
v 0.478109244 -0.30022 0.125690312
v 0.478485773 -0.30022 0.127203274
v 0.479171999 -0.30022 0.128541608
v 0.480226572 -0.30022 0.129577079
v 0.481616743 -0.30022 0.130240107
v 0.483309792 -0.30022 0.130461121
v 0.484777726 -0.30022 0.130261936
v 0.485972813 -0.30022 0.129664392
v 0.486905964 -0.30022 0.128630285
v 0.487588099 -0.30022 0.127121415
v 0.489672678 -0.30022 0.127612548
v 0.489288643 -0.30022 0.128658252
v 0.488780459 -0.30022 0.129579806
v 0.488148125 -0.30022 0.130377216
v 0.487391642 -0.30022 0.131050472
v 0.486525343 -0.30022 0.131585264
v 0.485563544 -0.30022 0.131967258
v 0.484506243 -0.30022 0.132196455
v 0.483353442 -0.30022 0.132272854
v 0.481324795 -0.30022 0.132031374
v 0.479473503 -0.30022 0.131306953
v 0.477912787 -0.30022 0.130117321
v 0.476755899 -0.30022 0.128480215
v 0.476039666 -0.30022 0.126459751
v 0.475800923 -0.30022 0.124120054
v 0.476012381 -0.30022 0.121901774
v 0.47664676 -0.30022 0.119830832
v 0.477686323 -0.30022 0.118069577
v 0.479113339 -0.30022 0.116780353
v 0.479984072 -0.30022 0.116319575
v 0.48097555 -0.30022 0.115990448
v 0.482087754 -0.30022 0.115792975
v 0.483320702 -0.30022 0.115727148
v 0.484522274 -0.30022 0.115812755
v 0.485627659 -0.30022 0.116069574
v 0.486636866 -0.30022 0.116497612
v 0.487549895 -0.30022 0.117096858
v 0.48834833 -0.30022 0.117859139
v 0.489013747 -0.30022 0.118776259
v 0.489546145 -0.30022 0.119848228
v 0.489945534 -0.30022 0.121075034
v 0.479473503 -0.3001 0.131306953
v 0.477912787 -0.3001 0.130117321
v 0.476755899 -0.3001 0.128480215
v 0.476755899 -0.30022 0.128480215
v 0.477912787 -0.30022 0.130117321
v 0.479473503 -0.30022 0.131306953
v 0.487828205 -0.3001 0.121609821
v 0.487192467 -0.3001 0.119839015
v 0.48615836 -0.3001 0.118564801
v 0.48615836 -0.30022 0.118564801
v 0.487192467 -0.30022 0.119839015
v 0.487828205 -0.30022 0.121609821
v 0.476755899 -0.3001 0.128480215
v 0.476039666 -0.3001 0.126459751
v 0.475800923 -0.3001 0.124120054
v 0.475800923 -0.30022 0.124120054
v 0.476039666 -0.30022 0.126459751
v 0.476755899 -0.30022 0.128480215
v 0.48615836 -0.3001 0.118564801
v 0.487192467 -0.3001 0.119839015
v 0.487828205 -0.3001 0.121609821
v 0.489945534 -0.3001 0.121075034
v 0.489546145 -0.3001 0.119848228
v 0.489013747 -0.3001 0.118776259
v 0.48834833 -0.3001 0.117859139
v 0.487549895 -0.3001 0.117096858
v 0.486636866 -0.3001 0.116497612
v 0.485627659 -0.3001 0.116069574
v 0.484522274 -0.3001 0.115812755
v 0.483320702 -0.3001 0.115727148
v 0.482087754 -0.3001 0.115792975
v 0.48097555 -0.3001 0.115990448
v 0.479984072 -0.3001 0.116319575
v 0.479113339 -0.3001 0.116780353
v 0.477686323 -0.3001 0.118069577
v 0.47664676 -0.3001 0.119830832
v 0.476012381 -0.3001 0.121901774
v 0.475800923 -0.3001 0.124120054
v 0.476039666 -0.3001 0.126459751
v 0.476755899 -0.3001 0.128480215
v 0.477912787 -0.3001 0.130117321
v 0.479473503 -0.3001 0.131306953
v 0.481324795 -0.3001 0.132031374
v 0.483353442 -0.3001 0.132272854
v 0.484506243 -0.3001 0.132196455
v 0.485563544 -0.3001 0.131967258
v 0.486525343 -0.3001 0.131585264
v 0.487391642 -0.3001 0.131050472
v 0.488148125 -0.3001 0.130377216
v 0.488780459 -0.3001 0.129579806
v 0.489288643 -0.3001 0.128658252
v 0.489672678 -0.3001 0.127612548
v 0.487588099 -0.3001 0.127121415
v 0.486905964 -0.3001 0.128630285
v 0.485972813 -0.3001 0.129664392
v 0.484777726 -0.3001 0.130261936
v 0.483309792 -0.3001 0.130461121
v 0.481616743 -0.3001 0.130240107
v 0.480226572 -0.3001 0.129577079
v 0.479171999 -0.3001 0.128541608
v 0.478485773 -0.3001 0.127203274
v 0.478109244 -0.3001 0.125690312
v 0.477983731 -0.3001 0.124130969
v 0.478132437 -0.3001 0.122219644
v 0.478578547 -0.3001 0.120567527
v 0.479338435 -0.3001 0.11923738
v 0.480428475 -0.3001 0.11829195
v 0.481735438 -0.3001 0.117727146
v 0.483146075 -0.3001 0.117538881
v 0.484788645 -0.3001 0.117795362
v 0.475800923 -0.3001 0.124120054
v 0.476012381 -0.3001 0.121901774
v 0.47664676 -0.3001 0.119830832
v 0.47664676 -0.30022 0.119830832
v 0.476012381 -0.30022 0.121901774
v 0.475800923 -0.30022 0.124120054
v 0.47664676 -0.3001 0.119830832
v 0.477686323 -0.3001 0.118069577
v 0.479113339 -0.3001 0.116780353
v 0.479113339 -0.30022 0.116780353
v 0.477686323 -0.30022 0.118069577
v 0.47664676 -0.30022 0.119830832
v 0.479113339 -0.3001 0.116780353
v 0.479984072 -0.3001 0.116319575
v 0.48097555 -0.3001 0.115990448
v 0.482087754 -0.3001 0.115792975
v 0.483320702 -0.3001 0.115727148
v 0.483320702 -0.30022 0.115727148
v 0.482087754 -0.30022 0.115792975
v 0.48097555 -0.30022 0.115990448
v 0.479984072 -0.30022 0.116319575
v 0.479113339 -0.30022 0.116780353
v 0.483320702 -0.3001 0.115727148
v 0.484522274 -0.3001 0.115812755
v 0.485627659 -0.3001 0.116069574
v 0.486636866 -0.3001 0.116497612
v 0.487549895 -0.3001 0.117096858
v 0.487549895 -0.30022 0.117096858
v 0.486636866 -0.30022 0.116497612
v 0.485627659 -0.30022 0.116069574
v 0.484522274 -0.30022 0.115812755
v 0.483320702 -0.30022 0.115727148
v 0.487549895 -0.3001 0.117096858
v 0.48834833 -0.3001 0.117859139
v 0.489013747 -0.3001 0.118776259
v 0.489546145 -0.3001 0.119848228
v 0.489945534 -0.3001 0.121075034
v 0.489945534 -0.30022 0.121075034
v 0.489546145 -0.30022 0.119848228
v 0.489013747 -0.30022 0.118776259
v 0.48834833 -0.30022 0.117859139
v 0.487549895 -0.30022 0.117096858
v 0.489945534 -0.3001 0.121075034
v 0.487828205 -0.3001 0.121609821
v 0.487828205 -0.30022 0.121609821
v 0.489945534 -0.30022 0.121075034
v 0.480226572 -0.3001 0.129577079
v 0.481616743 -0.3001 0.130240107
v 0.483309792 -0.3001 0.130461121
v 0.483309792 -0.30022 0.130461121
v 0.481616743 -0.30022 0.130240107
v 0.480226572 -0.30022 0.129577079
v 0.478485773 -0.3001 0.127203274
v 0.479171999 -0.3001 0.128541608
v 0.480226572 -0.3001 0.129577079
v 0.480226572 -0.30022 0.129577079
v 0.479171999 -0.30022 0.128541608
v 0.478485773 -0.30022 0.127203274
v 0.483309792 -0.3001 0.130461121
v 0.484777726 -0.3001 0.130261936
v 0.485972813 -0.3001 0.129664392
v 0.485972813 -0.30022 0.129664392
v 0.484777726 -0.30022 0.130261936
v 0.483309792 -0.30022 0.130461121
v 0.477983731 -0.3001 0.124130969
v 0.478109244 -0.3001 0.125690312
v 0.478485773 -0.3001 0.127203274
v 0.478485773 -0.30022 0.127203274
v 0.478109244 -0.30022 0.125690312
v 0.477983731 -0.30022 0.124130969
v 0.485972813 -0.3001 0.129664392
v 0.486905964 -0.3001 0.128630285
v 0.487588099 -0.3001 0.127121415
v 0.487588099 -0.30022 0.127121415
v 0.486905964 -0.30022 0.128630285
v 0.485972813 -0.30022 0.129664392
v 0.478578547 -0.3001 0.120567527
v 0.478132437 -0.3001 0.122219644
v 0.477983731 -0.3001 0.124130969
v 0.477983731 -0.30022 0.124130969
v 0.478132437 -0.30022 0.122219644
v 0.478578547 -0.30022 0.120567527
v 0.487588099 -0.3001 0.127121415
v 0.489672678 -0.3001 0.127612548
v 0.489672678 -0.30022 0.127612548
v 0.487588099 -0.30022 0.127121415
v 0.480428475 -0.3001 0.11829195
v 0.479338435 -0.3001 0.11923738
v 0.478578547 -0.3001 0.120567527
v 0.478578547 -0.30022 0.120567527
v 0.479338435 -0.30022 0.11923738
v 0.480428475 -0.30022 0.11829195
v 0.489672678 -0.3001 0.127612548
v 0.489288643 -0.3001 0.128658252
v 0.488780459 -0.3001 0.129579806
v 0.488148125 -0.3001 0.130377216
v 0.487391642 -0.3001 0.131050472
v 0.487391642 -0.30022 0.131050472
v 0.488148125 -0.30022 0.130377216
v 0.488780459 -0.30022 0.129579806
v 0.489288643 -0.30022 0.128658252
v 0.489672678 -0.30022 0.127612548
v 0.483146075 -0.3001 0.117538881
v 0.481735438 -0.3001 0.117727146
v 0.480428475 -0.3001 0.11829195
v 0.480428475 -0.30022 0.11829195
v 0.481735438 -0.30022 0.117727146
v 0.483146075 -0.30022 0.117538881
v 0.487391642 -0.3001 0.131050472
v 0.486525343 -0.3001 0.131585264
v 0.485563544 -0.3001 0.131967258
v 0.484506243 -0.3001 0.132196455
v 0.483353442 -0.3001 0.132272854
v 0.483353442 -0.30022 0.132272854
v 0.484506243 -0.30022 0.132196455
v 0.485563544 -0.30022 0.131967258
v 0.486525343 -0.30022 0.131585264
v 0.487391642 -0.30022 0.131050472
v 0.48615836 -0.3001 0.118564801
v 0.484788645 -0.3001 0.117795362
v 0.483146075 -0.3001 0.117538881
v 0.483146075 -0.30022 0.117538881
v 0.484788645 -0.30022 0.117795362
v 0.48615836 -0.30022 0.118564801
v 0.483353442 -0.3001 0.132272854
v 0.481324795 -0.3001 0.132031374
v 0.479473503 -0.3001 0.131306953
v 0.479473503 -0.30022 0.131306953
v 0.481324795 -0.30022 0.132031374
v 0.483353442 -0.30022 0.132272854
f 124 73 123
f 123 73 74
f 123 74 122
f 122 74 121
f 121 74 75
f 121 75 120
f 120 75 119
f 119 75 118
f 118 75 76
f 118 76 117
f 117 76 77
f 117 77 116
f 116 77 115
f 115 77 78
f 115 78 114
f 114 78 79
f 114 79 113
f 113 79 112
f 112 79 80
f 112 80 111
f 111 80 81
f 111 81 110
f 110 81 82
f 110 82 109
f 109 82 83
f 109 83 108
f 108 83 84
f 108 84 107
f 107 84 85
f 107 85 106
f 106 85 86
f 106 86 105
f 105 86 87
f 105 87 104
f 104 87 88
f 104 88 103
f 103 88 89
f 103 89 102
f 102 89 101
f 101 89 90
f 101 90 100
f 100 90 91
f 100 91 99
f 99 91 98
f 98 91 92
f 98 92 97
f 97 92 96
f 96 92 93
f 96 93 95
f 95 93 94
f 125 126 130
f 130 126 129
f 129 126 127
f 129 127 128
f 131 132 136
f 136 132 135
f 135 132 133
f 135 133 134
f 137 138 142
f 142 138 141
f 141 138 139
f 141 139 140
f 144 149 143
f 143 149 150
f 143 150 151
f 145 147 144
f 144 147 148
f 144 148 149
f 145 146 147
f 151 152 143
f 143 152 194
f 194 152 153
f 194 153 193
f 193 153 154
f 193 154 155
f 193 155 192
f 192 155 156
f 192 156 191
f 191 156 157
f 191 157 158
f 191 158 190
f 190 158 159
f 190 159 189
f 189 159 160
f 189 160 188
f 188 160 161
f 188 161 187
f 187 161 162
f 187 162 186
f 186 162 163
f 186 163 185
f 185 163 164
f 185 164 184
f 184 164 165
f 184 165 183
f 183 165 166
f 183 166 182
f 182 166 167
f 182 167 181
f 181 167 168
f 181 168 169
f 181 169 180
f 180 169 170
f 180 170 179
f 179 170 171
f 179 171 172
f 179 172 178
f 178 172 173
f 178 173 174
f 178 174 177
f 177 174 175
f 177 175 176
f 195 196 200
f 200 196 199
f 199 196 197
f 199 197 198
f 201 202 206
f 206 202 205
f 205 202 203
f 205 203 204
f 207 208 216
f 216 208 215
f 215 208 209
f 215 209 214
f 214 209 210
f 214 210 213
f 213 210 211
f 213 211 212
f 217 218 226
f 226 218 225
f 225 218 219
f 225 219 224
f 224 219 220
f 224 220 223
f 223 220 221
f 223 221 222
f 227 228 236
f 236 228 235
f 235 228 229
f 235 229 234
f 234 229 230
f 234 230 233
f 233 230 231
f 233 231 232
f 237 238 240
f 240 238 239
f 241 242 246
f 246 242 245
f 245 242 243
f 245 243 244
f 247 248 252
f 252 248 251
f 251 248 249
f 251 249 250
f 253 254 258
f 258 254 257
f 257 254 255
f 257 255 256
f 259 260 264
f 264 260 263
f 263 260 261
f 263 261 262
f 265 266 270
f 270 266 269
f 269 266 267
f 269 267 268
f 271 272 276
f 276 272 275
f 275 272 273
f 275 273 274
f 277 278 280
f 280 278 279
f 281 282 286
f 286 282 285
f 285 282 283
f 285 283 284
f 287 288 296
f 296 288 295
f 295 288 289
f 295 289 294
f 294 289 290
f 294 290 293
f 293 290 291
f 293 291 292
f 297 298 302
f 302 298 301
f 301 298 299
f 301 299 300
f 303 304 312
f 312 304 311
f 311 304 305
f 311 305 310
f 310 305 306
f 310 306 309
f 309 306 307
f 309 307 308
f 313 314 318
f 318 314 317
f 317 314 315
f 317 315 316
f 319 320 324
f 324 320 323
f 323 320 321
f 323 321 322
v 0.57808195 -0.3001 0.12845839
v 0.577826498 -0.3001 0.127524214
v 0.577644022 -0.3001 0.126451569
v 0.577534541 -0.3001 0.12524045
v 0.577498053 -0.3001 0.123890858
v 0.577498053 -0.30022 0.123890858
v 0.577534541 -0.30022 0.12524045
v 0.577644022 -0.30022 0.126451569
v 0.577826498 -0.30022 0.127524214
v 0.57808195 -0.30022 0.12845839
v 0.577498053 -0.30022 0.123890858
v 0.577596968 -0.30022 0.121793995
v 0.577893694 -0.30022 0.120010915
v 0.578388232 -0.30022 0.118541608
v 0.57908058 -0.30022 0.117386084
v 0.579802969 -0.30022 0.116660299
v 0.580649489 -0.30022 0.116141882
v 0.581620158 -0.30022 0.115830832
v 0.582714957 -0.30022 0.115727148
v 0.584320696 -0.30022 0.115963163
v 0.585623568 -0.30022 0.116671214
v 0.586631754 -0.30022 0.117811732
v 0.587353438 -0.30022 0.119345155
v 0.587606505 -0.30022 0.120277967
v 0.587787283 -0.30022 0.121346521
v 0.587895735 -0.30022 0.122550817
v 0.587931879 -0.30022 0.123890858
v 0.587841853 -0.30022 0.12602592
v 0.587571715 -0.30022 0.127672577
v 0.587143343 -0.30022 0.12896862
v 0.586578539 -0.30022 0.130051842
v 0.585860938 -0.30022 0.130914049
v 0.584974173 -0.30022 0.13154707
v 0.583923701 -0.30022 0.131935883
v 0.582714957 -0.30022 0.132065487
v 0.581117419 -0.30022 0.131830835
v 0.579817294 -0.30022 0.131126871
v 0.578807734 -0.30022 0.129990449
v 0.57808195 -0.30022 0.12845839
v 0.577826498 -0.30022 0.127524214
v 0.577644022 -0.30022 0.126451569
v 0.577534541 -0.30022 0.12524045
v 0.579517153 -0.30022 0.123890858
v 0.579580592 -0.30022 0.125706
v 0.579770907 -0.30022 0.127211456
v 0.580088099 -0.30022 0.12840723
v 0.580532149 -0.30022 0.129293313
v 0.580970076 -0.30022 0.129794679
v 0.581476229 -0.30022 0.130152798
v 0.58205057 -0.30022 0.13036767
v 0.582693137 -0.30022 0.130439291
v 0.583352412 -0.30022 0.130358114
v 0.583955077 -0.30022 0.130114594
v 0.584501112 -0.30022 0.129708729
v 0.584990538 -0.30022 0.129140515
v 0.585394019 -0.30022 0.128325377
v 0.585682219 -0.30022 0.127178717
v 0.585855139 -0.30022 0.125700545
v 0.585912779 -0.30022 0.123890858
v 0.585855139 -0.30022 0.122090039
v 0.585682219 -0.30022 0.120616646
v 0.585394019 -0.30022 0.119470668
v 0.584990538 -0.30022 0.118652115
v 0.584502486 -0.30022 0.118079128
v 0.583960532 -0.30022 0.117669849
v 0.583364695 -0.30022 0.117424283
v 0.582714957 -0.30022 0.117342424
v 0.582065237 -0.30022 0.11742394
v 0.581469401 -0.30022 0.117668486
v 0.580927447 -0.30022 0.118076057
v 0.580439394 -0.30022 0.118646655
v 0.580035914 -0.30022 0.119463506
v 0.579747713 -0.30022 0.120609822
v 0.579574793 -0.30022 0.122085605
v 0.579517153 -0.3001 0.123890858
v 0.579580592 -0.3001 0.125706
v 0.579770907 -0.3001 0.127211456
v 0.580088099 -0.3001 0.12840723
v 0.580532149 -0.3001 0.129293313
v 0.580532149 -0.30022 0.129293313
v 0.580088099 -0.30022 0.12840723
v 0.579770907 -0.30022 0.127211456
v 0.579580592 -0.30022 0.125706
v 0.579517153 -0.30022 0.123890858
v 0.580532149 -0.3001 0.129293313
v 0.580970076 -0.3001 0.129794679
v 0.581476229 -0.3001 0.130152798
v 0.58205057 -0.3001 0.13036767
v 0.582693137 -0.3001 0.130439291
v 0.582693137 -0.30022 0.130439291
v 0.58205057 -0.30022 0.13036767
v 0.581476229 -0.30022 0.130152798
v 0.580970076 -0.30022 0.129794679
v 0.580532149 -0.30022 0.129293313
v 0.57908058 -0.3001 0.117386084
v 0.578388232 -0.3001 0.118541608
v 0.577893694 -0.3001 0.120010915
v 0.577596968 -0.3001 0.121793995
v 0.577498053 -0.3001 0.123890858
v 0.577534541 -0.3001 0.12524045
v 0.577644022 -0.3001 0.126451569
v 0.577826498 -0.3001 0.127524214
v 0.57808195 -0.3001 0.12845839
v 0.578807734 -0.3001 0.129990449
v 0.579817294 -0.3001 0.131126871
v 0.581117419 -0.3001 0.131830835
v 0.582714957 -0.3001 0.132065487
v 0.583923701 -0.3001 0.131935883
v 0.584974173 -0.3001 0.13154707
v 0.585860938 -0.3001 0.130914049
v 0.586578539 -0.3001 0.130051842
v 0.587143343 -0.3001 0.12896862
v 0.587571715 -0.3001 0.127672577
v 0.587841853 -0.3001 0.12602592
v 0.587931879 -0.3001 0.123890858
v 0.587895735 -0.3001 0.122550817
v 0.587787283 -0.3001 0.121346521
v 0.587606505 -0.3001 0.120277967
v 0.587353438 -0.3001 0.119345155
v 0.586631754 -0.3001 0.117811732
v 0.585623568 -0.3001 0.116671214
v 0.584320696 -0.3001 0.115963163
v 0.582714957 -0.3001 0.115727148
v 0.581620158 -0.3001 0.115830832
v 0.580649489 -0.3001 0.116141882
v 0.579802969 -0.3001 0.116660299
v 0.580532149 -0.3001 0.129293313
v 0.580088099 -0.3001 0.12840723
v 0.579770907 -0.3001 0.127211456
v 0.579580592 -0.3001 0.125706
v 0.579517153 -0.3001 0.123890858
v 0.579574793 -0.3001 0.122085605
v 0.579747713 -0.3001 0.120609822
v 0.580035914 -0.3001 0.119463506
v 0.580439394 -0.3001 0.118646655
v 0.580927447 -0.3001 0.118076057
v 0.581469401 -0.3001 0.117668486
v 0.582065237 -0.3001 0.11742394
v 0.582714957 -0.3001 0.117342424
v 0.583364695 -0.3001 0.117424283
v 0.583960532 -0.3001 0.117669849
v 0.584502486 -0.3001 0.118079128
v 0.584990538 -0.3001 0.118652115
v 0.585394019 -0.3001 0.119470668
v 0.585682219 -0.3001 0.120616646
v 0.585855139 -0.3001 0.122090039
v 0.585912779 -0.3001 0.123890858
v 0.585855139 -0.3001 0.125700545
v 0.585682219 -0.3001 0.127178717
v 0.585394019 -0.3001 0.128325377
v 0.584990538 -0.3001 0.129140515
v 0.584501112 -0.3001 0.129708729
v 0.583955077 -0.3001 0.130114594
v 0.583352412 -0.3001 0.130358114
v 0.582693137 -0.3001 0.130439291
v 0.58205057 -0.3001 0.13036767
v 0.581476229 -0.3001 0.130152798
v 0.580970076 -0.3001 0.129794679
v 0.582693137 -0.3001 0.130439291
v 0.583352412 -0.3001 0.130358114
v 0.583955077 -0.3001 0.130114594
v 0.584501112 -0.3001 0.129708729
v 0.584990538 -0.3001 0.129140515
v 0.584990538 -0.30022 0.129140515
v 0.584501112 -0.30022 0.129708729
v 0.583955077 -0.30022 0.130114594
v 0.583352412 -0.30022 0.130358114
v 0.582693137 -0.30022 0.130439291
v 0.584990538 -0.3001 0.129140515
v 0.585394019 -0.3001 0.128325377
v 0.585682219 -0.3001 0.127178717
v 0.585855139 -0.3001 0.125700545
v 0.585912779 -0.3001 0.123890858
v 0.585912779 -0.30022 0.123890858
v 0.585855139 -0.30022 0.125700545
v 0.585682219 -0.30022 0.127178717
v 0.585394019 -0.30022 0.128325377
v 0.584990538 -0.30022 0.129140515
v 0.585912779 -0.3001 0.123890858
v 0.585855139 -0.3001 0.122090039
v 0.585682219 -0.3001 0.120616646
v 0.585394019 -0.3001 0.119470668
v 0.584990538 -0.3001 0.118652115
v 0.584990538 -0.30022 0.118652115
v 0.585394019 -0.30022 0.119470668
v 0.585682219 -0.30022 0.120616646
v 0.585855139 -0.30022 0.122090039
v 0.585912779 -0.30022 0.123890858
v 0.584990538 -0.3001 0.118652115
v 0.584502486 -0.3001 0.118079128
v 0.583960532 -0.3001 0.117669849
v 0.583364695 -0.3001 0.117424283
v 0.582714957 -0.3001 0.117342424
v 0.582714957 -0.30022 0.117342424
v 0.583364695 -0.30022 0.117424283
v 0.583960532 -0.30022 0.117669849
v 0.584502486 -0.30022 0.118079128
v 0.584990538 -0.30022 0.118652115
v 0.582714957 -0.3001 0.117342424
v 0.582065237 -0.3001 0.11742394
v 0.581469401 -0.3001 0.117668486
v 0.580927447 -0.3001 0.118076057
v 0.580439394 -0.3001 0.118646655
v 0.580439394 -0.30022 0.118646655
v 0.580927447 -0.30022 0.118076057
v 0.581469401 -0.30022 0.117668486
v 0.582065237 -0.30022 0.11742394
v 0.582714957 -0.30022 0.117342424
v 0.580439394 -0.3001 0.118646655
v 0.580035914 -0.3001 0.119463506
v 0.579747713 -0.3001 0.120609822
v 0.579574793 -0.3001 0.122085605
v 0.579517153 -0.3001 0.123890858
v 0.579517153 -0.30022 0.123890858
v 0.579574793 -0.30022 0.122085605
v 0.579747713 -0.30022 0.120609822
v 0.580035914 -0.30022 0.119463506
v 0.580439394 -0.30022 0.118646655
v 0.587353438 -0.3001 0.119345155
v 0.587606505 -0.3001 0.120277967
v 0.587787283 -0.3001 0.121346521
v 0.587895735 -0.3001 0.122550817
v 0.587931879 -0.3001 0.123890858
v 0.587931879 -0.30022 0.123890858
v 0.587895735 -0.30022 0.122550817
v 0.587787283 -0.30022 0.121346521
v 0.587606505 -0.30022 0.120277967
v 0.587353438 -0.30022 0.119345155
v 0.585623568 -0.3001 0.116671214
v 0.586631754 -0.3001 0.117811732
v 0.587353438 -0.3001 0.119345155
v 0.587353438 -0.30022 0.119345155
v 0.586631754 -0.30022 0.117811732
v 0.585623568 -0.30022 0.116671214
v 0.587931879 -0.3001 0.123890858
v 0.587841853 -0.3001 0.12602592
v 0.587571715 -0.3001 0.127672577
v 0.587571715 -0.30022 0.127672577
v 0.587841853 -0.30022 0.12602592
v 0.587931879 -0.30022 0.123890858
v 0.582714957 -0.3001 0.115727148
v 0.584320696 -0.3001 0.115963163
v 0.585623568 -0.3001 0.116671214
v 0.585623568 -0.30022 0.116671214
v 0.584320696 -0.30022 0.115963163
v 0.582714957 -0.30022 0.115727148
v 0.587571715 -0.3001 0.127672577
v 0.587143343 -0.3001 0.12896862
v 0.586578539 -0.3001 0.130051842
v 0.586578539 -0.30022 0.130051842
v 0.587143343 -0.30022 0.12896862
v 0.587571715 -0.30022 0.127672577
v 0.57908058 -0.3001 0.117386084
v 0.579802969 -0.3001 0.116660299
v 0.580649489 -0.3001 0.116141882
v 0.581620158 -0.3001 0.115830832
v 0.582714957 -0.3001 0.115727148
v 0.582714957 -0.30022 0.115727148
v 0.581620158 -0.30022 0.115830832
v 0.580649489 -0.30022 0.116141882
v 0.579802969 -0.30022 0.116660299
v 0.57908058 -0.30022 0.117386084
v 0.586578539 -0.3001 0.130051842
v 0.585860938 -0.3001 0.130914049
v 0.584974173 -0.3001 0.13154707
v 0.584974173 -0.30022 0.13154707
v 0.585860938 -0.30022 0.130914049
v 0.586578539 -0.30022 0.130051842
v 0.577498053 -0.3001 0.123890858
v 0.577596968 -0.3001 0.121793995
v 0.577893694 -0.3001 0.120010915
v 0.578388232 -0.3001 0.118541608
v 0.57908058 -0.3001 0.117386084
v 0.57908058 -0.30022 0.117386084
v 0.578388232 -0.30022 0.118541608
v 0.577893694 -0.30022 0.120010915
v 0.577596968 -0.30022 0.121793995
v 0.577498053 -0.30022 0.123890858
v 0.584974173 -0.3001 0.13154707
v 0.583923701 -0.3001 0.131935883
v 0.582714957 -0.3001 0.132065487
v 0.582714957 -0.30022 0.132065487
v 0.583923701 -0.30022 0.131935883
v 0.584974173 -0.30022 0.13154707
v 0.582714957 -0.3001 0.132065487
v 0.581117419 -0.3001 0.131830835
v 0.579817294 -0.3001 0.131126871
v 0.579817294 -0.30022 0.131126871
v 0.581117419 -0.30022 0.131830835
v 0.582714957 -0.30022 0.132065487
v 0.579817294 -0.3001 0.131126871
v 0.578807734 -0.3001 0.129990449
v 0.57808195 -0.3001 0.12845839
v 0.57808195 -0.30022 0.12845839
v 0.578807734 -0.30022 0.129990449
v 0.579817294 -0.30022 0.131126871
f 325 326 334
f 334 326 333
f 333 326 327
f 333 327 332
f 332 327 328
f 332 328 331
f 331 328 329
f 331 329 330
f 366 335 367
f 367 335 336
f 367 336 398
f 398 336 337
f 398 337 397
f 397 337 338
f 397 338 396
f 396 338 339
f 396 339 395
f 395 339 340
f 395 340 394
f 394 340 341
f 394 341 393
f 393 341 342
f 393 342 392
f 392 342 343
f 392 343 391
f 391 343 390
f 390 343 344
f 390 344 389
f 389 344 388
f 388 344 345
f 388 345 387
f 387 345 346
f 387 346 386
f 386 346 347
f 386 347 385
f 385 347 348
f 385 348 384
f 384 348 349
f 384 349 350
f 384 350 383
f 383 350 351
f 383 351 352
f 383 352 382
f 382 352 353
f 382 353 381
f 381 353 354
f 381 354 380
f 380 354 355
f 380 355 379
f 379 355 356
f 379 356 378
f 378 356 357
f 378 357 377
f 377 357 358
f 377 358 376
f 376 358 359
f 376 359 375
f 375 359 374
f 374 359 360
f 374 360 373
f 373 360 372
f 372 360 361
f 372 361 371
f 371 361 362
f 371 362 370
f 370 362 363
f 370 363 369
f 369 363 364
f 369 364 368
f 368 364 365
f 368 365 366
f 368 366 367
f 399 400 408
f 408 400 407
f 407 400 401
f 407 401 406
f 406 401 402
f 406 402 405
f 405 402 403
f 405 403 404
f 409 410 418
f 418 410 417
f 417 410 411
f 417 411 416
f 416 411 412
f 416 412 415
f 415 412 413
f 415 413 414
f 420 458 419
f 419 458 459
f 419 459 450
f 450 459 460
f 450 460 449
f 449 460 461
f 449 461 448
f 448 461 462
f 448 462 447
f 447 462 463
f 447 463 464
f 458 420 457
f 457 420 421
f 457 421 456
f 456 421 422
f 456 422 455
f 455 422 423
f 455 423 424
f 455 424 454
f 454 424 425
f 454 425 426
f 454 426 453
f 453 426 427
f 453 427 452
f 452 427 428
f 452 428 451
f 451 428 429
f 451 429 482
f 482 429 430
f 482 430 481
f 481 430 480
f 480 430 431
f 480 431 479
f 479 431 478
f 478 431 432
f 478 432 477
f 477 432 433
f 477 433 476
f 476 433 434
f 476 434 475
f 475 434 435
f 475 435 474
f 474 435 436
f 474 436 473
f 473 436 437
f 473 437 472
f 472 437 438
f 472 438 471
f 471 438 439
f 471 439 440
f 471 440 470
f 470 440 441
f 470 441 442
f 470 442 469
f 469 442 443
f 469 443 468
f 468 443 444
f 468 444 467
f 467 444 445
f 467 445 466
f 466 445 446
f 466 446 465
f 465 446 464
f 464 446 447
f 483 484 492
f 492 484 491
f 491 484 485
f 491 485 490
f 490 485 486
f 490 486 489
f 489 486 487
f 489 487 488
f 493 494 502
f 502 494 501
f 501 494 495
f 501 495 500
f 500 495 496
f 500 496 499
f 499 496 497
f 499 497 498
f 503 504 512
f 512 504 511
f 511 504 505
f 511 505 510
f 510 505 506
f 510 506 509
f 509 506 507
f 509 507 508
f 513 514 522
f 522 514 521
f 521 514 515
f 521 515 520
f 520 515 516
f 520 516 519
f 519 516 517
f 519 517 518
f 523 524 532
f 532 524 531
f 531 524 525
f 531 525 530
f 530 525 526
f 530 526 529
f 529 526 527
f 529 527 528
f 533 534 542
f 542 534 541
f 541 534 535
f 541 535 540
f 540 535 536
f 540 536 539
f 539 536 537
f 539 537 538
f 543 544 552
f 552 544 551
f 551 544 545
f 551 545 550
f 550 545 546
f 550 546 549
f 549 546 547
f 549 547 548
f 553 554 558
f 558 554 557
f 557 554 555
f 557 555 556
f 559 560 564
f 564 560 563
f 563 560 561
f 563 561 562
f 565 566 570
f 570 566 569
f 569 566 567
f 569 567 568
f 571 572 576
f 576 572 575
f 575 572 573
f 575 573 574
f 577 578 586
f 586 578 585
f 585 578 579
f 585 579 584
f 584 579 580
f 584 580 583
f 583 580 581
f 583 581 582
f 587 588 592
f 592 588 591
f 591 588 589
f 591 589 590
f 593 594 602
f 602 594 601
f 601 594 595
f 601 595 600
f 600 595 596
f 600 596 599
f 599 596 597
f 599 597 598
f 603 604 608
f 608 604 607
f 607 604 605
f 607 605 606
f 609 610 614
f 614 610 613
f 613 610 611
f 613 611 612
f 615 616 620
f 620 616 619
f 619 616 617
f 619 617 618
v 0.531418923 -0.30022 0.115999999
v 0.533536251 -0.30022 0.115999999
v 0.533536251 -0.30022 0.130111866
v 0.538829564 -0.30022 0.130111866
v 0.538829564 -0.30022 0.131999998
v 0.52614744 -0.30022 0.131999998
v 0.52614744 -0.30022 0.130111866
v 0.531418923 -0.30022 0.130111866
v 0.531418923 -0.3001 0.115999999
v 0.533536251 -0.3001 0.115999999
v 0.533536251 -0.30022 0.115999999
v 0.531418923 -0.30022 0.115999999
v 0.533536251 -0.3001 0.115999999
v 0.533536251 -0.3001 0.130111866
v 0.533536251 -0.30022 0.130111866
v 0.533536251 -0.30022 0.115999999
v 0.533536251 -0.3001 0.115999999
v 0.531418923 -0.3001 0.115999999
v 0.531418923 -0.3001 0.130111866
v 0.52614744 -0.3001 0.130111866
v 0.52614744 -0.3001 0.131999998
v 0.538829564 -0.3001 0.131999998
v 0.538829564 -0.3001 0.130111866
v 0.533536251 -0.3001 0.130111866
v 0.533536251 -0.3001 0.130111866
v 0.538829564 -0.3001 0.130111866
v 0.538829564 -0.30022 0.130111866
v 0.533536251 -0.30022 0.130111866
v 0.538829564 -0.3001 0.130111866
v 0.538829564 -0.3001 0.131999998
v 0.538829564 -0.30022 0.131999998
v 0.538829564 -0.30022 0.130111866
v 0.538829564 -0.3001 0.131999998
v 0.52614744 -0.3001 0.131999998
v 0.52614744 -0.30022 0.131999998
v 0.538829564 -0.30022 0.131999998
v 0.52614744 -0.3001 0.131999998
v 0.52614744 -0.3001 0.130111866
v 0.52614744 -0.30022 0.130111866
v 0.52614744 -0.30022 0.131999998
v 0.52614744 -0.3001 0.130111866
v 0.531418923 -0.3001 0.130111866
v 0.531418923 -0.30022 0.130111866
v 0.52614744 -0.30022 0.130111866
v 0.531418923 -0.3001 0.130111866
v 0.531418923 -0.3001 0.115999999
v 0.531418923 -0.30022 0.115999999
v 0.531418923 -0.30022 0.130111866
f 621 622 628
f 628 622 623
f 628 623 626
f 626 623 625
f 625 623 624
f 626 627 628
f 629 630 632
f 632 630 631
f 633 634 636
f 636 634 635
f 637 638 644
f 644 638 639
f 644 639 641
f 641 639 640
f 641 642 644
f 644 642 643
f 645 646 648
f 648 646 647
f 649 650 652
f 652 650 651
f 653 654 656
f 656 654 655
f 657 658 660
f 660 658 659
f 661 662 664
f 664 662 663
f 665 666 668
f 668 666 667
v 0.553219756 -0.3001 0.12845839
v 0.552964295 -0.3001 0.127524214
v 0.552781828 -0.3001 0.126451569
v 0.552672346 -0.3001 0.12524045
v 0.552635849 -0.3001 0.123890858
v 0.552635849 -0.30022 0.123890858
v 0.552672346 -0.30022 0.12524045
v 0.552781828 -0.30022 0.126451569
v 0.552964295 -0.30022 0.127524214
v 0.553219756 -0.30022 0.12845839
v 0.552635849 -0.30022 0.123890858
v 0.552734755 -0.30022 0.121793995
v 0.553031481 -0.30022 0.120010915
v 0.553526028 -0.30022 0.118541608
v 0.554218386 -0.30022 0.117386084
v 0.554940756 -0.30022 0.116660299
v 0.555787276 -0.30022 0.116141882
v 0.556757944 -0.30022 0.115830832
v 0.557852763 -0.30022 0.115727148
v 0.559458502 -0.30022 0.115963163
v 0.560761355 -0.30022 0.116671214
v 0.561769541 -0.30022 0.117811732
v 0.562491225 -0.30022 0.119345155
v 0.562744311 -0.30022 0.120277967
v 0.56292507 -0.30022 0.121346521
v 0.563033522 -0.30022 0.122550817
v 0.563069685 -0.30022 0.123890858
v 0.562979639 -0.30022 0.12602592
v 0.562709521 -0.30022 0.127672577
v 0.562281149 -0.30022 0.12896862
v 0.561716326 -0.30022 0.130051842
v 0.560998743 -0.30022 0.130914049
v 0.560111979 -0.30022 0.13154707
v 0.559061488 -0.30022 0.131935883
v 0.557852763 -0.30022 0.132065487
v 0.556255225 -0.30022 0.131830835
v 0.55495509 -0.30022 0.131126871
v 0.55394554 -0.30022 0.129990449
v 0.553219756 -0.30022 0.12845839
v 0.552964295 -0.30022 0.127524214
v 0.552781828 -0.30022 0.126451569
v 0.552672346 -0.30022 0.12524045
v 0.55465495 -0.30022 0.123890858
v 0.554718388 -0.30022 0.125706
v 0.554908703 -0.30022 0.127211456
v 0.555225886 -0.30022 0.12840723
v 0.555669955 -0.30022 0.129293313
v 0.556107882 -0.30022 0.129794679
v 0.556614016 -0.30022 0.130152798
v 0.557188366 -0.30022 0.13036767
v 0.557830923 -0.30022 0.130439291
v 0.558490218 -0.30022 0.130358114
v 0.559092883 -0.30022 0.130114594
v 0.559638918 -0.30022 0.129708729
v 0.560128344 -0.30022 0.129140515
v 0.560531824 -0.30022 0.128325377
v 0.560820025 -0.30022 0.127178717
v 0.560992945 -0.30022 0.125700545
v 0.561050585 -0.30022 0.123890858
v 0.560992945 -0.30022 0.122090039
v 0.560820025 -0.30022 0.120616646
v 0.560531824 -0.30022 0.119470668
v 0.560128344 -0.30022 0.118652115
v 0.559640273 -0.30022 0.118079128
v 0.559098338 -0.30022 0.117669849
v 0.558502482 -0.30022 0.117424283
v 0.557852763 -0.30022 0.117342424
v 0.557203034 -0.30022 0.11742394
v 0.556607197 -0.30022 0.117668486
v 0.556065253 -0.30022 0.118076057
v 0.555577191 -0.30022 0.118646655
v 0.55517371 -0.30022 0.119463506
v 0.55488551 -0.30022 0.120609822
v 0.55471259 -0.30022 0.122085605
v 0.55465495 -0.3001 0.123890858
v 0.554718388 -0.3001 0.125706
v 0.554908703 -0.3001 0.127211456
v 0.555225886 -0.3001 0.12840723
v 0.555669955 -0.3001 0.129293313
v 0.555669955 -0.30022 0.129293313
v 0.555225886 -0.30022 0.12840723
v 0.554908703 -0.30022 0.127211456
v 0.554718388 -0.30022 0.125706
v 0.55465495 -0.30022 0.123890858
v 0.555669955 -0.3001 0.129293313
v 0.556107882 -0.3001 0.129794679
v 0.556614016 -0.3001 0.130152798
v 0.557188366 -0.3001 0.13036767
v 0.557830923 -0.3001 0.130439291
v 0.557830923 -0.30022 0.130439291
v 0.557188366 -0.30022 0.13036767
v 0.556614016 -0.30022 0.130152798
v 0.556107882 -0.30022 0.129794679
v 0.555669955 -0.30022 0.129293313
v 0.554218386 -0.3001 0.117386084
v 0.553526028 -0.3001 0.118541608
v 0.553031481 -0.3001 0.120010915
v 0.552734755 -0.3001 0.121793995
v 0.552635849 -0.3001 0.123890858
v 0.552672346 -0.3001 0.12524045
v 0.552781828 -0.3001 0.126451569
v 0.552964295 -0.3001 0.127524214
v 0.553219756 -0.3001 0.12845839
v 0.55394554 -0.3001 0.129990449
v 0.55495509 -0.3001 0.131126871
v 0.556255225 -0.3001 0.131830835
v 0.557852763 -0.3001 0.132065487
v 0.559061488 -0.3001 0.131935883
v 0.560111979 -0.3001 0.13154707
v 0.560998743 -0.3001 0.130914049
v 0.561716326 -0.3001 0.130051842
v 0.562281149 -0.3001 0.12896862
v 0.562709521 -0.3001 0.127672577
v 0.562979639 -0.3001 0.12602592
v 0.563069685 -0.3001 0.123890858
v 0.563033522 -0.3001 0.122550817
v 0.56292507 -0.3001 0.121346521
v 0.562744311 -0.3001 0.120277967
v 0.562491225 -0.3001 0.119345155
v 0.561769541 -0.3001 0.117811732
v 0.560761355 -0.3001 0.116671214
v 0.559458502 -0.3001 0.115963163
v 0.557852763 -0.3001 0.115727148
v 0.556757944 -0.3001 0.115830832
v 0.555787276 -0.3001 0.116141882
v 0.554940756 -0.3001 0.116660299
v 0.555669955 -0.3001 0.129293313
v 0.555225886 -0.3001 0.12840723
v 0.554908703 -0.3001 0.127211456
v 0.554718388 -0.3001 0.125706
v 0.55465495 -0.3001 0.123890858
v 0.55471259 -0.3001 0.122085605
v 0.55488551 -0.3001 0.120609822
v 0.55517371 -0.3001 0.119463506
v 0.555577191 -0.3001 0.118646655
v 0.556065253 -0.3001 0.118076057
v 0.556607197 -0.3001 0.117668486
v 0.557203034 -0.3001 0.11742394
v 0.557852763 -0.3001 0.117342424
v 0.558502482 -0.3001 0.117424283
v 0.559098338 -0.3001 0.117669849
v 0.559640273 -0.3001 0.118079128
v 0.560128344 -0.3001 0.118652115
v 0.560531824 -0.3001 0.119470668
v 0.560820025 -0.3001 0.120616646
v 0.560992945 -0.3001 0.122090039
v 0.561050585 -0.3001 0.123890858
v 0.560992945 -0.3001 0.125700545
v 0.560820025 -0.3001 0.127178717
v 0.560531824 -0.3001 0.128325377
v 0.560128344 -0.3001 0.129140515
v 0.559638918 -0.3001 0.129708729
v 0.559092883 -0.3001 0.130114594
v 0.558490218 -0.3001 0.130358114
v 0.557830923 -0.3001 0.130439291
v 0.557188366 -0.3001 0.13036767
v 0.556614016 -0.3001 0.130152798
v 0.556107882 -0.3001 0.129794679
v 0.557830923 -0.3001 0.130439291
v 0.558490218 -0.3001 0.130358114
v 0.559092883 -0.3001 0.130114594
v 0.559638918 -0.3001 0.129708729
v 0.560128344 -0.3001 0.129140515
v 0.560128344 -0.30022 0.129140515
v 0.559638918 -0.30022 0.129708729
v 0.559092883 -0.30022 0.130114594
v 0.558490218 -0.30022 0.130358114
v 0.557830923 -0.30022 0.130439291
v 0.560128344 -0.3001 0.129140515
v 0.560531824 -0.3001 0.128325377
v 0.560820025 -0.3001 0.127178717
v 0.560992945 -0.3001 0.125700545
v 0.561050585 -0.3001 0.123890858
v 0.561050585 -0.30022 0.123890858
v 0.560992945 -0.30022 0.125700545
v 0.560820025 -0.30022 0.127178717
v 0.560531824 -0.30022 0.128325377
v 0.560128344 -0.30022 0.129140515
v 0.561050585 -0.3001 0.123890858
v 0.560992945 -0.3001 0.122090039
v 0.560820025 -0.3001 0.120616646
v 0.560531824 -0.3001 0.119470668
v 0.560128344 -0.3001 0.118652115
v 0.560128344 -0.30022 0.118652115
v 0.560531824 -0.30022 0.119470668
v 0.560820025 -0.30022 0.120616646
v 0.560992945 -0.30022 0.122090039
v 0.561050585 -0.30022 0.123890858
v 0.560128344 -0.3001 0.118652115
v 0.559640273 -0.3001 0.118079128
v 0.559098338 -0.3001 0.117669849
v 0.558502482 -0.3001 0.117424283
v 0.557852763 -0.3001 0.117342424
v 0.557852763 -0.30022 0.117342424
v 0.558502482 -0.30022 0.117424283
v 0.559098338 -0.30022 0.117669849
v 0.559640273 -0.30022 0.118079128
v 0.560128344 -0.30022 0.118652115
v 0.557852763 -0.3001 0.117342424
v 0.557203034 -0.3001 0.11742394
v 0.556607197 -0.3001 0.117668486
v 0.556065253 -0.3001 0.118076057
v 0.555577191 -0.3001 0.118646655
v 0.555577191 -0.30022 0.118646655
v 0.556065253 -0.30022 0.118076057
v 0.556607197 -0.30022 0.117668486
v 0.557203034 -0.30022 0.11742394
v 0.557852763 -0.30022 0.117342424
v 0.555577191 -0.3001 0.118646655
v 0.55517371 -0.3001 0.119463506
v 0.55488551 -0.3001 0.120609822
v 0.55471259 -0.3001 0.122085605
v 0.55465495 -0.3001 0.123890858
v 0.55465495 -0.30022 0.123890858
v 0.55471259 -0.30022 0.122085605
v 0.55488551 -0.30022 0.120609822
v 0.55517371 -0.30022 0.119463506
v 0.555577191 -0.30022 0.118646655
v 0.562491225 -0.3001 0.119345155
v 0.562744311 -0.3001 0.120277967
v 0.56292507 -0.3001 0.121346521
v 0.563033522 -0.3001 0.122550817
v 0.563069685 -0.3001 0.123890858
v 0.563069685 -0.30022 0.123890858
v 0.563033522 -0.30022 0.122550817
v 0.56292507 -0.30022 0.121346521
v 0.562744311 -0.30022 0.120277967
v 0.562491225 -0.30022 0.119345155
v 0.560761355 -0.3001 0.116671214
v 0.561769541 -0.3001 0.117811732
v 0.562491225 -0.3001 0.119345155
v 0.562491225 -0.30022 0.119345155
v 0.561769541 -0.30022 0.117811732
v 0.560761355 -0.30022 0.116671214
v 0.563069685 -0.3001 0.123890858
v 0.562979639 -0.3001 0.12602592
v 0.562709521 -0.3001 0.127672577
v 0.562709521 -0.30022 0.127672577
v 0.562979639 -0.30022 0.12602592
v 0.563069685 -0.30022 0.123890858
v 0.557852763 -0.3001 0.115727148
v 0.559458502 -0.3001 0.115963163
v 0.560761355 -0.3001 0.116671214
v 0.560761355 -0.30022 0.116671214
v 0.559458502 -0.30022 0.115963163
v 0.557852763 -0.30022 0.115727148
v 0.562709521 -0.3001 0.127672577
v 0.562281149 -0.3001 0.12896862
v 0.561716326 -0.3001 0.130051842
v 0.561716326 -0.30022 0.130051842
v 0.562281149 -0.30022 0.12896862
v 0.562709521 -0.30022 0.127672577
v 0.554218386 -0.3001 0.117386084
v 0.554940756 -0.3001 0.116660299
v 0.555787276 -0.3001 0.116141882
v 0.556757944 -0.3001 0.115830832
v 0.557852763 -0.3001 0.115727148
v 0.557852763 -0.30022 0.115727148
v 0.556757944 -0.30022 0.115830832
v 0.555787276 -0.30022 0.116141882
v 0.554940756 -0.30022 0.116660299
v 0.554218386 -0.30022 0.117386084
v 0.561716326 -0.3001 0.130051842
v 0.560998743 -0.3001 0.130914049
v 0.560111979 -0.3001 0.13154707
v 0.560111979 -0.30022 0.13154707
v 0.560998743 -0.30022 0.130914049
v 0.561716326 -0.30022 0.130051842
v 0.552635849 -0.3001 0.123890858
v 0.552734755 -0.3001 0.121793995
v 0.553031481 -0.3001 0.120010915
v 0.553526028 -0.3001 0.118541608
v 0.554218386 -0.3001 0.117386084
v 0.554218386 -0.30022 0.117386084
v 0.553526028 -0.30022 0.118541608
v 0.553031481 -0.30022 0.120010915
v 0.552734755 -0.30022 0.121793995
v 0.552635849 -0.30022 0.123890858
v 0.560111979 -0.3001 0.13154707
v 0.559061488 -0.3001 0.131935883
v 0.557852763 -0.3001 0.132065487
v 0.557852763 -0.30022 0.132065487
v 0.559061488 -0.30022 0.131935883
v 0.560111979 -0.30022 0.13154707
v 0.557852763 -0.3001 0.132065487
v 0.556255225 -0.3001 0.131830835
v 0.55495509 -0.3001 0.131126871
v 0.55495509 -0.30022 0.131126871
v 0.556255225 -0.30022 0.131830835
v 0.557852763 -0.30022 0.132065487
v 0.55495509 -0.3001 0.131126871
v 0.55394554 -0.3001 0.129990449
v 0.553219756 -0.3001 0.12845839
v 0.553219756 -0.30022 0.12845839
v 0.55394554 -0.30022 0.129990449
v 0.55495509 -0.30022 0.131126871
f 669 670 678
f 678 670 677
f 677 670 671
f 677 671 676
f 676 671 672
f 676 672 675
f 675 672 673
f 675 673 674
f 710 679 711
f 711 679 680
f 711 680 742
f 742 680 681
f 742 681 741
f 741 681 682
f 741 682 740
f 740 682 683
f 740 683 739
f 739 683 684
f 739 684 738
f 738 684 685
f 738 685 737
f 737 685 686
f 737 686 736
f 736 686 687
f 736 687 735
f 735 687 734
f 734 687 688
f 734 688 733
f 733 688 732
f 732 688 689
f 732 689 731
f 731 689 690
f 731 690 730
f 730 690 691
f 730 691 729
f 729 691 692
f 729 692 728
f 728 692 693
f 728 693 694
f 728 694 727
f 727 694 695
f 727 695 696
f 727 696 726
f 726 696 697
f 726 697 725
f 725 697 698
f 725 698 724
f 724 698 699
f 724 699 723
f 723 699 700
f 723 700 722
f 722 700 701
f 722 701 721
f 721 701 702
f 721 702 720
f 720 702 703
f 720 703 719
f 719 703 718
f 718 703 704
f 718 704 717
f 717 704 716
f 716 704 705
f 716 705 715
f 715 705 706
f 715 706 714
f 714 706 707
f 714 707 713
f 713 707 708
f 713 708 712
f 712 708 709
f 712 709 710
f 712 710 711
f 743 744 752
f 752 744 751
f 751 744 745
f 751 745 750
f 750 745 746
f 750 746 749
f 749 746 747
f 749 747 748
f 753 754 762
f 762 754 761
f 761 754 755
f 761 755 760
f 760 755 756
f 760 756 759
f 759 756 757
f 759 757 758
f 764 802 763
f 763 802 803
f 763 803 794
f 794 803 804
f 794 804 793
f 793 804 805
f 793 805 792
f 792 805 806
f 792 806 791
f 791 806 807
f 791 807 808
f 802 764 801
f 801 764 765
f 801 765 800
f 800 765 766
f 800 766 799
f 799 766 767
f 799 767 768
f 799 768 798
f 798 768 769
f 798 769 770
f 798 770 797
f 797 770 771
f 797 771 796
f 796 771 772
f 796 772 795
f 795 772 773
f 795 773 826
f 826 773 774
f 826 774 825
f 825 774 824
f 824 774 775
f 824 775 823
f 823 775 822
f 822 775 776
f 822 776 821
f 821 776 777
f 821 777 820
f 820 777 778
f 820 778 819
f 819 778 779
f 819 779 818
f 818 779 780
f 818 780 817
f 817 780 781
f 817 781 816
f 816 781 782
f 816 782 815
f 815 782 783
f 815 783 784
f 815 784 814
f 814 784 785
f 814 785 786
f 814 786 813
f 813 786 787
f 813 787 812
f 812 787 788
f 812 788 811
f 811 788 789
f 811 789 810
f 810 789 790
f 810 790 809
f 809 790 808
f 808 790 791
f 827 828 836
f 836 828 835
f 835 828 829
f 835 829 834
f 834 829 830
f 834 830 833
f 833 830 831
f 833 831 832
f 837 838 846
f 846 838 845
f 845 838 839
f 845 839 844
f 844 839 840
f 844 840 843
f 843 840 841
f 843 841 842
f 847 848 856
f 856 848 855
f 855 848 849
f 855 849 854
f 854 849 850
f 854 850 853
f 853 850 851
f 853 851 852
f 857 858 866
f 866 858 865
f 865 858 859
f 865 859 864
f 864 859 860
f 864 860 863
f 863 860 861
f 863 861 862
f 867 868 876
f 876 868 875
f 875 868 869
f 875 869 874
f 874 869 870
f 874 870 873
f 873 870 871
f 873 871 872
f 877 878 886
f 886 878 885
f 885 878 879
f 885 879 884
f 884 879 880
f 884 880 883
f 883 880 881
f 883 881 882
f 887 888 896
f 896 888 895
f 895 888 889
f 895 889 894
f 894 889 890
f 894 890 893
f 893 890 891
f 893 891 892
f 897 898 902
f 902 898 901
f 901 898 899
f 901 899 900
f 903 904 908
f 908 904 907
f 907 904 905
f 907 905 906
f 909 910 914
f 914 910 913
f 913 910 911
f 913 911 912
f 915 916 920
f 920 916 919
f 919 916 917
f 919 917 918
f 921 922 930
f 930 922 929
f 929 922 923
f 929 923 928
f 928 923 924
f 928 924 927
f 927 924 925
f 927 925 926
f 931 932 936
f 936 932 935
f 935 932 933
f 935 933 934
f 937 938 946
f 946 938 945
f 945 938 939
f 945 939 944
f 944 939 940
f 944 940 943
f 943 940 941
f 943 941 942
f 947 948 952
f 952 948 951
f 951 948 949
f 951 949 950
f 953 954 958
f 958 954 957
f 957 954 955
f 957 955 956
f 959 960 964
f 964 960 963
f 963 960 961
f 963 961 962
v 0.575391634 -0.30022 0.117888131
v 0.56754444 -0.30022 0.117888131
v 0.568373907 -0.30022 0.11895225
v 0.56870405 -0.30022 0.119276605
v 0.569192465 -0.30022 0.119720325
v 0.569839114 -0.30022 0.120283422
v 0.570644034 -0.30022 0.120965891
v 0.57162731 -0.30022 0.121813097
v 0.572459849 -0.30022 0.122564802
v 0.57314165 -0.30022 0.123221006
v 0.573672675 -0.30022 0.123781719
v 0.574454401 -0.30022 0.124783082
v 0.5749769 -0.30022 0.125735331
v 0.575271586 -0.30022 0.126671214
v 0.575369814 -0.30022 0.127623463
v 0.57528591 -0.30022 0.128529329
v 0.575034197 -0.30022 0.129358797
v 0.574614695 -0.30022 0.130111866
v 0.574027384 -0.30022 0.130788536
v 0.573296145 -0.30022 0.131347198
v 0.572444857 -0.30022 0.131746244
v 0.571473502 -0.30022 0.131985674
v 0.570382098 -0.30022 0.132065487
v 0.569299563 -0.30022 0.131991472
v 0.568332976 -0.30022 0.131769438
v 0.567482375 -0.30022 0.131399384
v 0.566747702 -0.30022 0.13088131
v 0.566142672 -0.30022 0.130222034
v 0.565680865 -0.30022 0.129428377
v 0.565362318 -0.30022 0.128500338
v 0.565186995 -0.30022 0.127437925
v 0.567206095 -0.30022 0.127230558
v 0.567427119 -0.30022 0.128572989
v 0.568068312 -0.30022 0.129587994
v 0.569061488 -0.30022 0.130226469
v 0.570338438 -0.30022 0.130439291
v 0.571553992 -0.30022 0.130238743
v 0.572515791 -0.30022 0.129637108
v 0.573141974 -0.30022 0.12874352
v 0.573350714 -0.30022 0.127667122
v 0.573121527 -0.30022 0.12651978
v 0.572433928 -0.30022 0.125304227
v 0.57186981 -0.30022 0.124623804
v 0.571094225 -0.30022 0.123832197
v 0.570107191 -0.30022 0.122929397
v 0.56890869 -0.30022 0.121915412
v 0.567425745 -0.30022 0.120622101
v 0.566338442 -0.30022 0.119492493
v 0.565570353 -0.30022 0.118436561
v 0.565045126 -0.30022 0.117364254
v 0.56481592 -0.30022 0.115999999
v 0.575391634 -0.30022 0.115999999
v 0.572515791 -0.3001 0.129637108
v 0.573141974 -0.3001 0.12874352
v 0.573350714 -0.3001 0.127667122
v 0.573350714 -0.30022 0.127667122
v 0.573141974 -0.30022 0.12874352
v 0.572515791 -0.30022 0.129637108
v 0.575391634 -0.3001 0.117888131
v 0.56754444 -0.3001 0.117888131
v 0.56754444 -0.30022 0.117888131
v 0.575391634 -0.30022 0.117888131
v 0.573350714 -0.3001 0.127667122
v 0.573121527 -0.3001 0.12651978
v 0.572433928 -0.3001 0.125304227
v 0.572433928 -0.30022 0.125304227
v 0.573121527 -0.30022 0.12651978
v 0.573350714 -0.30022 0.127667122
v 0.56754444 -0.3001 0.117888131
v 0.575391634 -0.3001 0.117888131
v 0.575391634 -0.3001 0.115999999
v 0.56481592 -0.3001 0.115999999
v 0.565045126 -0.3001 0.117364254
v 0.565570353 -0.3001 0.118436561
v 0.566338442 -0.3001 0.119492493
v 0.567425745 -0.3001 0.120622101
v 0.56890869 -0.3001 0.121915412
v 0.570107191 -0.3001 0.122929397
v 0.571094225 -0.3001 0.123832197
v 0.57186981 -0.3001 0.124623804
v 0.572433928 -0.3001 0.125304227
v 0.573121527 -0.3001 0.12651978
v 0.573350714 -0.3001 0.127667122
v 0.573141974 -0.3001 0.12874352
v 0.572515791 -0.3001 0.129637108
v 0.571553992 -0.3001 0.130238743
v 0.570338438 -0.3001 0.130439291
v 0.569061488 -0.3001 0.130226469
v 0.568068312 -0.3001 0.129587994
v 0.567427119 -0.3001 0.128572989
v 0.567206095 -0.3001 0.127230558
v 0.565186995 -0.3001 0.127437925
v 0.565362318 -0.3001 0.128500338
v 0.565680865 -0.3001 0.129428377
v 0.566142672 -0.3001 0.130222034
v 0.566747702 -0.3001 0.13088131
v 0.567482375 -0.3001 0.131399384
v 0.568332976 -0.3001 0.131769438
v 0.569299563 -0.3001 0.131991472
v 0.570382098 -0.3001 0.132065487
v 0.571473502 -0.3001 0.131985674
v 0.572444857 -0.3001 0.131746244
v 0.573296145 -0.3001 0.131347198
v 0.574027384 -0.3001 0.130788536
v 0.574614695 -0.3001 0.130111866
v 0.575034197 -0.3001 0.129358797
v 0.57528591 -0.3001 0.128529329
v 0.575369814 -0.3001 0.127623463
v 0.575271586 -0.3001 0.126671214
v 0.5749769 -0.3001 0.125735331
v 0.574454401 -0.3001 0.124783082
v 0.573672675 -0.3001 0.123781719
v 0.57314165 -0.3001 0.123221006
v 0.572459849 -0.3001 0.122564802
v 0.57162731 -0.3001 0.121813097
v 0.570644034 -0.3001 0.120965891
v 0.569839114 -0.3001 0.120283422
v 0.569192465 -0.3001 0.119720325
v 0.56870405 -0.3001 0.119276605
v 0.568373907 -0.3001 0.11895225
v 0.572433928 -0.3001 0.125304227
v 0.57186981 -0.3001 0.124623804
v 0.571094225 -0.3001 0.123832197
v 0.570107191 -0.3001 0.122929397
v 0.56890869 -0.3001 0.121915412
v 0.56890869 -0.30022 0.121915412
v 0.570107191 -0.30022 0.122929397
v 0.571094225 -0.30022 0.123832197
v 0.57186981 -0.30022 0.124623804
v 0.572433928 -0.30022 0.125304227
v 0.56890869 -0.3001 0.121915412
v 0.567425745 -0.3001 0.120622101
v 0.566338442 -0.3001 0.119492493
v 0.566338442 -0.30022 0.119492493
v 0.567425745 -0.30022 0.120622101
v 0.56890869 -0.30022 0.121915412
v 0.566338442 -0.3001 0.119492493
v 0.565570353 -0.3001 0.118436561
v 0.565045126 -0.3001 0.117364254
v 0.565045126 -0.30022 0.117364254
v 0.565570353 -0.30022 0.118436561
v 0.566338442 -0.30022 0.119492493
v 0.565045126 -0.3001 0.117364254
v 0.56481592 -0.3001 0.115999999
v 0.56481592 -0.30022 0.115999999
v 0.565045126 -0.30022 0.117364254
v 0.56481592 -0.3001 0.115999999
v 0.575391634 -0.3001 0.115999999
v 0.575391634 -0.30022 0.115999999
v 0.56481592 -0.30022 0.115999999
v 0.575391634 -0.3001 0.115999999
v 0.575391634 -0.3001 0.117888131
v 0.575391634 -0.30022 0.117888131
v 0.575391634 -0.30022 0.115999999
v 0.574027384 -0.3001 0.130788536
v 0.573296145 -0.3001 0.131347198
v 0.572444857 -0.3001 0.131746244
v 0.571473502 -0.3001 0.131985674
v 0.570382098 -0.3001 0.132065487
v 0.570382098 -0.30022 0.132065487
v 0.571473502 -0.30022 0.131985674
v 0.572444857 -0.30022 0.131746244
v 0.573296145 -0.30022 0.131347198
v 0.574027384 -0.30022 0.130788536
v 0.575369814 -0.3001 0.127623463
v 0.57528591 -0.3001 0.128529329
v 0.575034197 -0.3001 0.129358797
v 0.574614695 -0.3001 0.130111866
v 0.574027384 -0.3001 0.130788536
v 0.574027384 -0.30022 0.130788536
v 0.574614695 -0.30022 0.130111866
v 0.575034197 -0.30022 0.129358797
v 0.57528591 -0.30022 0.128529329
v 0.575369814 -0.30022 0.127623463
v 0.570382098 -0.3001 0.132065487
v 0.569299563 -0.3001 0.131991472
v 0.568332976 -0.3001 0.131769438
v 0.567482375 -0.3001 0.131399384
v 0.566747702 -0.3001 0.13088131
v 0.566747702 -0.30022 0.13088131
v 0.567482375 -0.30022 0.131399384
v 0.568332976 -0.30022 0.131769438
v 0.569299563 -0.30022 0.131991472
v 0.570382098 -0.30022 0.132065487
v 0.5749769 -0.3001 0.125735331
v 0.575271586 -0.3001 0.126671214
v 0.575369814 -0.3001 0.127623463
v 0.575369814 -0.30022 0.127623463
v 0.575271586 -0.30022 0.126671214
v 0.5749769 -0.30022 0.125735331
v 0.566747702 -0.3001 0.13088131
v 0.566142672 -0.3001 0.130222034
v 0.565680865 -0.3001 0.129428377
v 0.565362318 -0.3001 0.128500338
v 0.565186995 -0.3001 0.127437925
v 0.565186995 -0.30022 0.127437925
v 0.565362318 -0.30022 0.128500338
v 0.565680865 -0.30022 0.129428377
v 0.566142672 -0.30022 0.130222034
v 0.566747702 -0.30022 0.13088131
v 0.573672675 -0.3001 0.123781719
v 0.574454401 -0.3001 0.124783082
v 0.5749769 -0.3001 0.125735331
v 0.5749769 -0.30022 0.125735331
v 0.574454401 -0.30022 0.124783082
v 0.573672675 -0.30022 0.123781719
v 0.565186995 -0.3001 0.127437925
v 0.567206095 -0.3001 0.127230558
v 0.567206095 -0.30022 0.127230558
v 0.565186995 -0.30022 0.127437925
v 0.570644034 -0.3001 0.120965891
v 0.57162731 -0.3001 0.121813097
v 0.572459849 -0.3001 0.122564802
v 0.57314165 -0.3001 0.123221006
v 0.573672675 -0.3001 0.123781719
v 0.573672675 -0.30022 0.123781719
v 0.57314165 -0.30022 0.123221006
v 0.572459849 -0.30022 0.122564802
v 0.57162731 -0.30022 0.121813097
v 0.570644034 -0.30022 0.120965891
v 0.567206095 -0.3001 0.127230558
v 0.567427119 -0.3001 0.128572989
v 0.568068312 -0.3001 0.129587994
v 0.568068312 -0.30022 0.129587994
v 0.567427119 -0.30022 0.128572989
v 0.567206095 -0.30022 0.127230558
v 0.568373907 -0.3001 0.11895225
v 0.56870405 -0.3001 0.119276605
v 0.569192465 -0.3001 0.119720325
v 0.569839114 -0.3001 0.120283422
v 0.570644034 -0.3001 0.120965891
v 0.570644034 -0.30022 0.120965891
v 0.569839114 -0.30022 0.120283422
v 0.569192465 -0.30022 0.119720325
v 0.56870405 -0.30022 0.119276605
v 0.568373907 -0.30022 0.11895225
v 0.568068312 -0.3001 0.129587994
v 0.569061488 -0.3001 0.130226469
v 0.570338438 -0.3001 0.130439291
v 0.570338438 -0.30022 0.130439291
v 0.569061488 -0.30022 0.130226469
v 0.568068312 -0.30022 0.129587994
v 0.56754444 -0.3001 0.117888131
v 0.568373907 -0.3001 0.11895225
v 0.568373907 -0.30022 0.11895225
v 0.56754444 -0.30022 0.117888131
v 0.570338438 -0.3001 0.130439291
v 0.571553992 -0.3001 0.130238743
v 0.572515791 -0.3001 0.129637108
v 0.572515791 -0.30022 0.129637108
v 0.571553992 -0.30022 0.130238743
v 0.570338438 -0.30022 0.130439291
f 965 966 1016
f 1016 966 1015
f 1015 966 1014
f 1014 966 1013
f 1013 966 1012
f 1012 966 1011
f 1011 966 967
f 1011 967 968
f 1011 968 1010
f 1010 968 969
f 1010 969 970
f 1010 970 1009
f 1009 970 971
f 1009 971 972
f 1009 972 1008
f 1008 972 973
f 1008 973 1007
f 1007 973 974
f 1007 974 1006
f 1006 974 975
f 1006 975 1005
f 1005 975 976
f 1005 976 977
f 1005 977 1004
f 1004 977 978
f 1004 978 979
f 979 980 1004
f 1004 980 981
f 1004 981 1003
f 1003 981 982
f 1003 982 983
f 983 984 1003
f 1003 984 1002
f 1002 984 985
f 1002 985 1001
f 1001 985 986
f 1001 986 1000
f 1000 986 987
f 1000 987 988
f 1000 988 999
f 999 988 989
f 999 989 998
f 998 989 990
f 998 990 991
f 998 991 997
f 997 991 992
f 997 992 993
f 997 993 996
f 996 993 994
f 996 994 995
f 1017 1018 1022
f 1022 1018 1021
f 1021 1018 1019
f 1021 1019 1020
f 1023 1024 1026
f 1026 1024 1025
f 1027 1028 1032
f 1032 1028 1031
f 1031 1028 1029
f 1031 1029 1030
f 1034 1035 1033
f 1033 1035 1036
f 1033 1036 1037
f 1037 1038 1033
f 1033 1038 1039
f 1033 1039 1040
f 1041 1083 1040
f 1040 1083 1084
f 1040 1084 1033
f 1042 1081 1041
f 1041 1081 1082
f 1041 1082 1083
f 1043 1079 1042
f 1042 1079 1080
f 1042 1080 1081
f 1079 1043 1078
f 1078 1043 1044
f 1078 1044 1077
f 1077 1044 1045
f 1077 1045 1076
f 1076 1045 1046
f 1076 1046 1075
f 1075 1046 1074
f 1074 1046 1047
f 1074 1047 1073
f 1073 1047 1072
f 1072 1047 1071
f 1071 1047 1070
f 1070 1047 1048
f 1070 1048 1069
f 1069 1048 1068
f 1068 1048 1067
f 1067 1048 1049
f 1067 1049 1066
f 1066 1049 1050
f 1066 1050 1065
f 1065 1050 1051
f 1065 1051 1064
f 1064 1051 1063
f 1063 1051 1052
f 1063 1052 1062
f 1062 1052 1053
f 1062 1053 1061
f 1061 1053 1060
f 1060 1053 1054
f 1060 1054 1059
f 1059 1054 1058
f 1058 1054 1055
f 1058 1055 1057
f 1057 1055 1056
f 1085 1086 1094
f 1094 1086 1093
f 1093 1086 1087
f 1093 1087 1092
f 1092 1087 1088
f 1092 1088 1091
f 1091 1088 1089
f 1091 1089 1090
f 1095 1096 1100
f 1100 1096 1099
f 1099 1096 1097
f 1099 1097 1098
f 1101 1102 1106
f 1106 1102 1105
f 1105 1102 1103
f 1105 1103 1104
f 1107 1108 1110
f 1110 1108 1109
f 1111 1112 1114
f 1114 1112 1113
f 1115 1116 1118
f 1118 1116 1117
f 1119 1120 1128
f 1128 1120 1127
f 1127 1120 1121
f 1127 1121 1126
f 1126 1121 1122
f 1126 1122 1125
f 1125 1122 1123
f 1125 1123 1124
f 1129 1130 1138
f 1138 1130 1137
f 1137 1130 1131
f 1137 1131 1136
f 1136 1131 1132
f 1136 1132 1135
f 1135 1132 1133
f 1135 1133 1134
f 1139 1140 1148
f 1148 1140 1147
f 1147 1140 1141
f 1147 1141 1146
f 1146 1141 1142
f 1146 1142 1145
f 1145 1142 1143
f 1145 1143 1144
f 1149 1150 1154
f 1154 1150 1153
f 1153 1150 1151
f 1153 1151 1152
f 1155 1156 1164
f 1164 1156 1163
f 1163 1156 1157
f 1163 1157 1162
f 1162 1157 1158
f 1162 1158 1161
f 1161 1158 1159
f 1161 1159 1160
f 1165 1166 1170
f 1170 1166 1169
f 1169 1166 1167
f 1169 1167 1168
f 1171 1172 1174
f 1174 1172 1173
f 1175 1176 1184
f 1184 1176 1183
f 1183 1176 1177
f 1183 1177 1182
f 1182 1177 1178
f 1182 1178 1181
f 1181 1178 1179
f 1181 1179 1180
f 1185 1186 1190
f 1190 1186 1189
f 1189 1186 1187
f 1189 1187 1188
f 1191 1192 1200
f 1200 1192 1199
f 1199 1192 1193
f 1199 1193 1198
f 1198 1193 1194
f 1198 1194 1197
f 1197 1194 1195
f 1197 1195 1196
f 1201 1202 1206
f 1206 1202 1205
f 1205 1202 1203
f 1205 1203 1204
f 1207 1208 1210
f 1210 1208 1209
f 1211 1212 1216
f 1216 1212 1215
f 1215 1212 1213
f 1215 1213 1214
v 0.543599013 -0.3001 0.124442019
v 0.544409378 -0.3001 0.124765348
v 0.545312518 -0.3001 0.124873123
v 0.545312518 -0.30022 0.124873123
v 0.544409378 -0.30022 0.124765348
v 0.543599013 -0.30022 0.124442019
v 0.540204743 -0.3001 0.120190992
v 0.540376976 -0.3001 0.119231238
v 0.540697239 -0.3001 0.118371077
v 0.541165522 -0.3001 0.117610502
v 0.541781824 -0.3001 0.11694952
v 0.541781824 -0.30022 0.11694952
v 0.541165522 -0.30022 0.117610502
v 0.540697239 -0.30022 0.118371077
v 0.540376976 -0.30022 0.119231238
v 0.540204743 -0.30022 0.120190992
v 0.545312518 -0.3001 0.124873123
v 0.546694506 -0.3001 0.124630284
v 0.547784556 -0.3001 0.123901772
v 0.547784556 -0.30022 0.123901772
v 0.546694506 -0.30022 0.124630284
v 0.545312518 -0.30022 0.124873123
v 0.541781824 -0.3001 0.11694952
v 0.541165522 -0.3001 0.117610502
v 0.540697239 -0.3001 0.118371077
v 0.540376976 -0.3001 0.119231238
v 0.540204743 -0.3001 0.120190992
v 0.542267502 -0.3001 0.12036562
v 0.542648123 -0.3001 0.119046383
v 0.543331622 -0.3001 0.118100953
v 0.544252489 -0.3001 0.117532058
v 0.545345257 -0.3001 0.117342424
v 0.546654948 -0.3001 0.11760982
v 0.547746352 -0.3001 0.118412004
v 0.548176087 -0.3001 0.11899045
v 0.548483046 -0.3001 0.119656205
v 0.54866722 -0.3001 0.120409274
v 0.548728617 -0.3001 0.121249657
v 0.548492602 -0.3001 0.122753067
v 0.547784556 -0.3001 0.123901772
v 0.546694506 -0.3001 0.124630284
v 0.545312518 -0.3001 0.124873123
v 0.544409378 -0.3001 0.124765348
v 0.543599013 -0.3001 0.124442019
v 0.542916888 -0.3001 0.123946791
v 0.54239847 -0.3001 0.123323326
v 0.540553988 -0.3001 0.123563437
v 0.542103785 -0.3001 0.131781721
v 0.550060128 -0.3001 0.131781721
v 0.550060128 -0.3001 0.129904499
v 0.543675412 -0.3001 0.129904499
v 0.542813204 -0.3001 0.125604362
v 0.54428932 -0.3001 0.126357436
v 0.54583639 -0.3001 0.126608458
v 0.546843213 -0.3001 0.126517735
v 0.547768181 -0.3001 0.126245565
v 0.548611287 -0.3001 0.12579195
v 0.549372548 -0.3001 0.125156889
v 0.550002831 -0.3001 0.124379263
v 0.550453041 -0.3001 0.123497953
v 0.55072316 -0.3001 0.12251296
v 0.550813206 -0.3001 0.121424284
v 0.55073408 -0.3001 0.120375171
v 0.550496701 -0.3001 0.119399724
v 0.550101059 -0.3001 0.118497953
v 0.549547175 -0.3001 0.117669849
v 0.548707474 -0.3001 0.116819916
v 0.54772725 -0.3001 0.116212821
v 0.546606511 -0.3001 0.115848565
v 0.545345257 -0.3001 0.115727148
v 0.544303988 -0.3001 0.115803547
v 0.543362997 -0.3001 0.116032743
v 0.542522276 -0.3001 0.116414733
v 0.547784556 -0.3001 0.123901772
v 0.548492602 -0.3001 0.122753067
v 0.548728617 -0.3001 0.121249657
v 0.548728617 -0.30022 0.121249657
v 0.548492602 -0.30022 0.122753067
v 0.547784556 -0.30022 0.123901772
v 0.548728617 -0.3001 0.121249657
v 0.54866722 -0.3001 0.120409274
v 0.548483046 -0.3001 0.119656205
v 0.548176087 -0.3001 0.11899045
v 0.547746352 -0.3001 0.118412004
v 0.547746352 -0.30022 0.118412004
v 0.548176087 -0.30022 0.11899045
v 0.548483046 -0.30022 0.119656205
v 0.54866722 -0.30022 0.120409274
v 0.548728617 -0.30022 0.121249657
v 0.547746352 -0.3001 0.118412004
v 0.546654948 -0.3001 0.11760982
v 0.545345257 -0.3001 0.117342424
v 0.545345257 -0.30022 0.117342424
v 0.546654948 -0.30022 0.11760982
v 0.547746352 -0.30022 0.118412004
v 0.545345257 -0.3001 0.117342424
v 0.544252489 -0.3001 0.117532058
v 0.543331622 -0.3001 0.118100953
v 0.543331622 -0.30022 0.118100953
v 0.544252489 -0.30022 0.117532058
v 0.545345257 -0.30022 0.117342424
v 0.543331622 -0.3001 0.118100953
v 0.542648123 -0.3001 0.119046383
v 0.542267502 -0.3001 0.12036562
v 0.542267502 -0.30022 0.12036562
v 0.542648123 -0.30022 0.119046383
v 0.543331622 -0.30022 0.118100953
v 0.542267502 -0.3001 0.12036562
v 0.540204743 -0.3001 0.120190992
v 0.540204743 -0.30022 0.120190992
v 0.542267502 -0.30022 0.12036562
v 0.542813204 -0.3001 0.125604362
v 0.543675412 -0.3001 0.129904499
v 0.543675412 -0.30022 0.129904499
v 0.542813204 -0.30022 0.125604362
v 0.54583639 -0.3001 0.126608458
v 0.54428932 -0.3001 0.126357436
v 0.542813204 -0.3001 0.125604362
v 0.542813204 -0.30022 0.125604362
v 0.54428932 -0.30022 0.126357436
v 0.54583639 -0.30022 0.126608458
v 0.543675412 -0.3001 0.129904499
v 0.550060128 -0.3001 0.129904499
v 0.550060128 -0.30022 0.129904499
v 0.543675412 -0.30022 0.129904499
v 0.549372548 -0.3001 0.125156889
v 0.548611287 -0.3001 0.12579195
v 0.547768181 -0.3001 0.126245565
v 0.546843213 -0.3001 0.126517735
v 0.54583639 -0.3001 0.126608458
v 0.54583639 -0.30022 0.126608458
v 0.546843213 -0.30022 0.126517735
v 0.547768181 -0.30022 0.126245565
v 0.548611287 -0.30022 0.12579195
v 0.549372548 -0.30022 0.125156889
v 0.550060128 -0.3001 0.129904499
v 0.550060128 -0.3001 0.131781721
v 0.550060128 -0.30022 0.131781721
v 0.550060128 -0.30022 0.129904499
v 0.550813206 -0.3001 0.121424284
v 0.55072316 -0.3001 0.12251296
v 0.550453041 -0.3001 0.123497953
v 0.550002831 -0.3001 0.124379263
v 0.549372548 -0.3001 0.125156889
v 0.549372548 -0.30022 0.125156889
v 0.550002831 -0.30022 0.124379263
v 0.550453041 -0.30022 0.123497953
v 0.55072316 -0.30022 0.12251296
v 0.550813206 -0.30022 0.121424284
v 0.550060128 -0.3001 0.131781721
v 0.542103785 -0.3001 0.131781721
v 0.542103785 -0.30022 0.131781721
v 0.550060128 -0.30022 0.131781721
v 0.549547175 -0.3001 0.117669849
v 0.550101059 -0.3001 0.118497953
v 0.550496701 -0.3001 0.119399724
v 0.55073408 -0.3001 0.120375171
v 0.550813206 -0.3001 0.121424284
v 0.550813206 -0.30022 0.121424284
v 0.55073408 -0.30022 0.120375171
v 0.550496701 -0.30022 0.119399724
v 0.550101059 -0.30022 0.118497953
v 0.549547175 -0.30022 0.117669849
v 0.542103785 -0.3001 0.131781721
v 0.540553988 -0.3001 0.123563437
v 0.540553988 -0.30022 0.123563437
v 0.542103785 -0.30022 0.131781721
v 0.545345257 -0.3001 0.115727148
v 0.546606511 -0.3001 0.115848565
v 0.54772725 -0.3001 0.116212821
v 0.548707474 -0.3001 0.116819916
v 0.549547175 -0.3001 0.117669849
v 0.549547175 -0.30022 0.117669849
v 0.548707474 -0.30022 0.116819916
v 0.54772725 -0.30022 0.116212821
v 0.546606511 -0.30022 0.115848565
v 0.545345257 -0.30022 0.115727148
v 0.540553988 -0.3001 0.123563437
v 0.54239847 -0.3001 0.123323326
v 0.54239847 -0.30022 0.123323326
v 0.540553988 -0.30022 0.123563437
v 0.541781824 -0.3001 0.11694952
v 0.542522276 -0.3001 0.116414733
v 0.543362997 -0.3001 0.116032743
v 0.544303988 -0.3001 0.115803547
v 0.545345257 -0.3001 0.115727148
v 0.545345257 -0.30022 0.115727148
v 0.544303988 -0.30022 0.115803547
v 0.543362997 -0.30022 0.116032743
v 0.542522276 -0.30022 0.116414733
v 0.541781824 -0.30022 0.11694952
v 0.54239847 -0.3001 0.123323326
v 0.542916888 -0.3001 0.123946791
v 0.543599013 -0.3001 0.124442019
v 0.543599013 -0.30022 0.124442019
v 0.542916888 -0.30022 0.123946791
v 0.54239847 -0.30022 0.123323326
v 0.540204743 -0.30022 0.120190992
v 0.540376976 -0.30022 0.119231238
v 0.540697239 -0.30022 0.118371077
v 0.541165522 -0.30022 0.117610502
v 0.541781824 -0.30022 0.11694952
v 0.542522276 -0.30022 0.116414733
v 0.543362997 -0.30022 0.116032743
v 0.544303988 -0.30022 0.115803547
v 0.545345257 -0.30022 0.115727148
v 0.546606511 -0.30022 0.115848565
v 0.54772725 -0.30022 0.116212821
v 0.548707474 -0.30022 0.116819916
v 0.549547175 -0.30022 0.117669849
v 0.550101059 -0.30022 0.118497953
v 0.550496701 -0.30022 0.119399724
v 0.55073408 -0.30022 0.120375171
v 0.550813206 -0.30022 0.121424284
v 0.55072316 -0.30022 0.12251296
v 0.550453041 -0.30022 0.123497953
v 0.550002831 -0.30022 0.124379263
v 0.549372548 -0.30022 0.125156889
v 0.548611287 -0.30022 0.12579195
v 0.547768181 -0.30022 0.126245565
v 0.546843213 -0.30022 0.126517735
v 0.54583639 -0.30022 0.126608458
v 0.54428932 -0.30022 0.126357436
v 0.542813204 -0.30022 0.125604362
v 0.543675412 -0.30022 0.129904499
v 0.550060128 -0.30022 0.129904499
v 0.550060128 -0.30022 0.131781721
v 0.542103785 -0.30022 0.131781721
v 0.540553988 -0.30022 0.123563437
v 0.54239847 -0.30022 0.123323326
v 0.542916888 -0.30022 0.123946791
v 0.543599013 -0.30022 0.124442019
v 0.544409378 -0.30022 0.124765348
v 0.545312518 -0.30022 0.124873123
v 0.546694506 -0.30022 0.124630284
v 0.547784556 -0.30022 0.123901772
v 0.548492602 -0.30022 0.122753067
v 0.548728617 -0.30022 0.121249657
v 0.54866722 -0.30022 0.120409274
v 0.548483046 -0.30022 0.119656205
v 0.548176087 -0.30022 0.11899045
v 0.547746352 -0.30022 0.118412004
v 0.546654948 -0.30022 0.11760982
v 0.545345257 -0.30022 0.117342424
v 0.544252489 -0.30022 0.117532058
v 0.543331622 -0.30022 0.118100953
v 0.542648123 -0.30022 0.119046383
v 0.542267502 -0.30022 0.12036562
f 1217 1218 1222
f 1222 1218 1221
f 1221 1218 1219
f 1221 1219 1220
f 1223 1224 1232
f 1232 1224 1231
f 1231 1224 1225
f 1231 1225 1230
f 1230 1225 1226
f 1230 1226 1229
f 1229 1226 1227
f 1229 1227 1228
f 1233 1234 1238
f 1238 1234 1237
f 1237 1234 1235
f 1237 1235 1236
f 1289 1239 1245
f 1245 1239 1240
f 1245 1240 1241
f 1245 1241 1244
f 1244 1241 1242
f 1244 1242 1243
f 1245 1246 1289
f 1289 1246 1288
f 1288 1246 1247
f 1288 1247 1287
f 1287 1247 1248
f 1287 1248 1286
f 1286 1248 1285
f 1285 1248 1249
f 1285 1249 1284
f 1284 1249 1250
f 1284 1250 1283
f 1283 1250 1251
f 1283 1251 1282
f 1282 1251 1252
f 1282 1252 1281
f 1281 1252 1253
f 1281 1253 1280
f 1280 1253 1279
f 1279 1253 1254
f 1279 1254 1278
f 1278 1254 1277
f 1277 1254 1276
f 1276 1254 1255
f 1276 1255 1275
f 1275 1255 1274
f 1274 1255 1256
f 1274 1256 1273
f 1273 1256 1272
f 1272 1256 1257
f 1272 1257 1271
f 1271 1257 1270
f 1270 1257 1258
f 1270 1258 1269
f 1269 1258 1259
f 1269 1259 1260
f 1269 1260 1268
f 1268 1260 1261
f 1268 1261 1262
f 1262 1263 1268
f 1268 1263 1264
f 1268 1264 1267
f 1267 1264 1265
f 1267 1265 1266
f 1290 1291 1295
f 1295 1291 1294
f 1294 1291 1292
f 1294 1292 1293
f 1296 1297 1305
f 1305 1297 1304
f 1304 1297 1298
f 1304 1298 1303
f 1303 1298 1299
f 1303 1299 1302
f 1302 1299 1300
f 1302 1300 1301
f 1306 1307 1311
f 1311 1307 1310
f 1310 1307 1308
f 1310 1308 1309
f 1312 1313 1317
f 1317 1313 1316
f 1316 1313 1314
f 1316 1314 1315
f 1318 1319 1323
f 1323 1319 1322
f 1322 1319 1320
f 1322 1320 1321
f 1324 1325 1327
f 1327 1325 1326
f 1328 1329 1331
f 1331 1329 1330
f 1332 1333 1337
f 1337 1333 1336
f 1336 1333 1334
f 1336 1334 1335
f 1338 1339 1341
f 1341 1339 1340
f 1342 1343 1351
f 1351 1343 1350
f 1350 1343 1344
f 1350 1344 1349
f 1349 1344 1345
f 1349 1345 1348
f 1348 1345 1346
f 1348 1346 1347
f 1352 1353 1355
f 1355 1353 1354
f 1356 1357 1365
f 1365 1357 1364
f 1364 1357 1358
f 1364 1358 1363
f 1363 1358 1359
f 1363 1359 1362
f 1362 1359 1360
f 1362 1360 1361
f 1366 1367 1369
f 1369 1367 1368
f 1370 1371 1379
f 1379 1371 1378
f 1378 1371 1372
f 1378 1372 1377
f 1377 1372 1373
f 1377 1373 1376
f 1376 1373 1374
f 1376 1374 1375
f 1380 1381 1383
f 1383 1381 1382
f 1384 1385 1393
f 1393 1385 1392
f 1392 1385 1386
f 1392 1386 1391
f 1391 1386 1387
f 1391 1387 1390
f 1390 1387 1388
f 1390 1388 1389
f 1394 1395 1397
f 1397 1395 1396
f 1398 1399 1407
f 1407 1399 1406
f 1406 1399 1400
f 1406 1400 1405
f 1405 1400 1401
f 1405 1401 1404
f 1404 1401 1402
f 1404 1402 1403
f 1408 1409 1413
f 1413 1409 1412
f 1412 1409 1410
f 1412 1410 1411
f 1414 1415 1464
f 1464 1415 1416
f 1464 1416 1463
f 1463 1416 1417
f 1463 1417 1418
f 1418 1419 1463
f 1463 1419 1462
f 1462 1419 1420
f 1462 1420 1461
f 1461 1420 1421
f 1461 1421 1460
f 1460 1421 1422
f 1460 1422 1423
f 1460 1423 1459
f 1459 1423 1424
f 1459 1424 1458
f 1458 1424 1425
f 1458 1425 1457
f 1457 1425 1426
f 1457 1426 1456
f 1456 1426 1427
f 1456 1427 1455
f 1455 1427 1428
f 1455 1428 1429
f 1455 1429 1454
f 1454 1429 1430
f 1454 1430 1431
f 1431 1432 1454
f 1454 1432 1453
f 1453 1432 1433
f 1453 1433 1434
f 1453 1434 1452
f 1452 1434 1435
f 1452 1435 1436
f 1452 1436 1451
f 1451 1436 1437
f 1451 1437 1438
f 1451 1438 1450
f 1450 1438 1439
f 1450 1439 1449
f 1449 1439 1448
f 1448 1439 1440
f 1448 1440 1447
f 1447 1440 1446
f 1446 1440 1445
f 1445 1440 1444
f 1444 1440 1441
f 1444 1441 1443
f 1443 1441 1442
v 0.511719063 -0.3001 0.121140518
v 0.511960543 -0.3001 0.11961937
v 0.512597645 -0.3001 0.118264666
v 0.512597645 -0.30022 0.118264666
v 0.511960543 -0.30022 0.11961937
v 0.511719063 -0.30022 0.121140518
v 0.522414835 -0.3001 0.12034379
v 0.522301606 -0.3001 0.119630284
v 0.521961907 -0.3001 0.118974075
v 0.521961907 -0.30022 0.118974075
v 0.522301606 -0.30022 0.119630284
v 0.522414835 -0.30022 0.12034379
v 0.512597645 -0.3001 0.118264666
v 0.511960543 -0.3001 0.11961937
v 0.511719063 -0.3001 0.121140518
v 0.513716334 -0.3001 0.121315141
v 0.513952349 -0.3001 0.120222373
v 0.514376639 -0.3001 0.119345155
v 0.515038298 -0.3001 0.118649383
v 0.51598646 -0.3001 0.118100953
v 0.51714608 -0.3001 0.117744884
v 0.518442124 -0.3001 0.11762619
v 0.519582642 -0.3001 0.117716231
v 0.520581273 -0.3001 0.117986355
v 0.521390274 -0.3001 0.118413367
v 0.521961907 -0.3001 0.118974075
v 0.522301606 -0.3001 0.119630284
v 0.522414835 -0.3001 0.12034379
v 0.522305697 -0.3001 0.121049113
v 0.521978272 -0.3001 0.121658936
v 0.52139983 -0.3001 0.122175989
v 0.520537623 -0.3001 0.122603002
v 0.520118111 -0.3001 0.122745905
v 0.519503516 -0.3001 0.122923598
v 0.518693827 -0.3001 0.123136082
v 0.517689055 -0.3001 0.123383355
v 0.516669272 -0.3001 0.123644271
v 0.51581456 -0.3001 0.123897681
v 0.51512493 -0.3001 0.124143586
v 0.514600371 -0.3001 0.12438199
v 0.513600377 -0.3001 0.125054569
v 0.512892331 -0.3001 0.125871758
v 0.512470768 -0.3001 0.126814461
v 0.512330254 -0.3001 0.127863574
v 0.512502144 -0.3001 0.129035468
v 0.513017834 -0.3001 0.130128241
v 0.513863676 -0.3001 0.131054573
v 0.515026024 -0.3001 0.131727152
v 0.516420296 -0.3001 0.132136421
v 0.517961901 -0.3001 0.132272854
v 0.519635847 -0.3001 0.132129602
v 0.52109969 -0.3001 0.131699858
v 0.522301606 -0.3001 0.130991812
v 0.523189734 -0.3001 0.130013638
v 0.52375181 -0.3001 0.128826737
v 0.523975552 -0.3001 0.127492495
v 0.521945532 -0.3001 0.127339697
v 0.521586731 -0.3001 0.128671212
v 0.520837754 -0.3001 0.129631648
v 0.519668587 -0.3001 0.130212822
v 0.51804922 -0.3001 0.130406551
v 0.51638892 -0.3001 0.13023056
v 0.515249766 -0.3001 0.129702592
v 0.514590825 -0.3001 0.12892633
v 0.514371184 -0.3001 0.128005457
v 0.514526709 -0.3001 0.127219644
v 0.514993285 -0.3001 0.126586628
v 0.515421999 -0.3001 0.126306615
v 0.516096962 -0.3001 0.126023192
v 0.517018183 -0.3001 0.125736356
v 0.518185643 -0.3001 0.12544611
v 0.519374932 -0.3001 0.125163369
v 0.520361632 -0.3001 0.124899044
v 0.521145743 -0.3001 0.124653139
v 0.521727255 -0.3001 0.124425645
v 0.522941445 -0.3001 0.123695769
v 0.523790005 -0.3001 0.122793994
v 0.52428932 -0.3001 0.121731238
v 0.524455765 -0.3001 0.120518417
v 0.524272955 -0.3001 0.119278307
v 0.523724526 -0.3001 0.118111868
v 0.52283367 -0.3001 0.117107778
v 0.521623572 -0.3001 0.116354704
v 0.520167912 -0.3001 0.115884037
v 0.518540352 -0.3001 0.115727148
v 0.516544445 -0.3001 0.115885401
v 0.514900511 -0.3001 0.116360164
v 0.51359083 -0.3001 0.117152796
v 0.521961907 -0.3001 0.118974075
v 0.521390274 -0.3001 0.118413367
v 0.520581273 -0.3001 0.117986355
v 0.520581273 -0.30022 0.117986355
v 0.521390274 -0.30022 0.118413367
v 0.521961907 -0.30022 0.118974075
v 0.520581273 -0.3001 0.117986355
v 0.519582642 -0.3001 0.117716231
v 0.518442124 -0.3001 0.11762619
v 0.518442124 -0.30022 0.11762619
v 0.519582642 -0.30022 0.117716231
v 0.520581273 -0.30022 0.117986355
v 0.518442124 -0.3001 0.11762619
v 0.51714608 -0.3001 0.117744884
v 0.51598646 -0.3001 0.118100953
v 0.51598646 -0.30022 0.118100953
v 0.51714608 -0.30022 0.117744884
v 0.518442124 -0.30022 0.11762619
v 0.51598646 -0.3001 0.118100953
v 0.515038298 -0.3001 0.118649383
v 0.514376639 -0.3001 0.119345155
v 0.514376639 -0.30022 0.119345155
v 0.515038298 -0.30022 0.118649383
v 0.51598646 -0.30022 0.118100953
v 0.514376639 -0.3001 0.119345155
v 0.513952349 -0.3001 0.120222373
v 0.513716334 -0.3001 0.121315141
v 0.513716334 -0.30022 0.121315141
v 0.513952349 -0.30022 0.120222373
v 0.514376639 -0.30022 0.119345155
v 0.513716334 -0.3001 0.121315141
v 0.511719063 -0.3001 0.121140518
v 0.511719063 -0.30022 0.121140518
v 0.513716334 -0.30022 0.121315141
v 0.51804922 -0.3001 0.130406551
v 0.519668587 -0.3001 0.130212822
v 0.520837754 -0.3001 0.129631648
v 0.520837754 -0.30022 0.129631648
v 0.519668587 -0.30022 0.130212822
v 0.51804922 -0.30022 0.130406551
v 0.520837754 -0.3001 0.129631648
v 0.521586731 -0.3001 0.128671212
v 0.521945532 -0.3001 0.127339697
v 0.521945532 -0.30022 0.127339697
v 0.521586731 -0.30022 0.128671212
v 0.520837754 -0.30022 0.129631648
v 0.515249766 -0.3001 0.129702592
v 0.51638892 -0.3001 0.13023056
v 0.51804922 -0.3001 0.130406551
v 0.51804922 -0.30022 0.130406551
v 0.51638892 -0.30022 0.13023056
v 0.515249766 -0.30022 0.129702592
v 0.521945532 -0.3001 0.127339697
v 0.523975552 -0.3001 0.127492495
v 0.523975552 -0.30022 0.127492495
v 0.521945532 -0.30022 0.127339697
v 0.514371184 -0.3001 0.128005457
v 0.514590825 -0.3001 0.12892633
v 0.515249766 -0.3001 0.129702592
v 0.515249766 -0.30022 0.129702592
v 0.514590825 -0.30022 0.12892633
v 0.514371184 -0.30022 0.128005457
v 0.523975552 -0.3001 0.127492495
v 0.52375181 -0.3001 0.128826737
v 0.523189734 -0.3001 0.130013638
v 0.523189734 -0.30022 0.130013638
v 0.52375181 -0.30022 0.128826737
v 0.523975552 -0.30022 0.127492495
v 0.514993285 -0.3001 0.126586628
v 0.514526709 -0.3001 0.127219644
v 0.514371184 -0.3001 0.128005457
v 0.514371184 -0.30022 0.128005457
v 0.514526709 -0.30022 0.127219644
v 0.514993285 -0.30022 0.126586628
v 0.523189734 -0.3001 0.130013638
v 0.522301606 -0.3001 0.130991812
v 0.52109969 -0.3001 0.131699858
v 0.52109969 -0.30022 0.131699858
v 0.522301606 -0.30022 0.130991812
v 0.523189734 -0.30022 0.130013638
v 0.518185643 -0.3001 0.12544611
v 0.517018183 -0.3001 0.125736356
v 0.516096962 -0.3001 0.126023192
v 0.515421999 -0.3001 0.126306615
v 0.514993285 -0.3001 0.126586628
v 0.514993285 -0.30022 0.126586628
v 0.515421999 -0.30022 0.126306615
v 0.516096962 -0.30022 0.126023192
v 0.517018183 -0.30022 0.125736356
v 0.518185643 -0.30022 0.12544611
v 0.52109969 -0.3001 0.131699858
v 0.519635847 -0.3001 0.132129602
v 0.517961901 -0.3001 0.132272854
v 0.517961901 -0.30022 0.132272854
v 0.519635847 -0.30022 0.132129602
v 0.52109969 -0.30022 0.131699858
v 0.521727255 -0.3001 0.124425645
v 0.521145743 -0.3001 0.124653139
v 0.520361632 -0.3001 0.124899044
v 0.519374932 -0.3001 0.125163369
v 0.518185643 -0.3001 0.12544611
v 0.518185643 -0.30022 0.12544611
v 0.519374932 -0.30022 0.125163369
v 0.520361632 -0.30022 0.124899044
v 0.521145743 -0.30022 0.124653139
v 0.521727255 -0.30022 0.124425645
v 0.517961901 -0.3001 0.132272854
v 0.516420296 -0.3001 0.132136421
v 0.515026024 -0.3001 0.131727152
v 0.515026024 -0.30022 0.131727152
v 0.516420296 -0.30022 0.132136421
v 0.517961901 -0.30022 0.132272854
v 0.523790005 -0.3001 0.122793994
v 0.522941445 -0.3001 0.123695769
v 0.521727255 -0.3001 0.124425645
v 0.521727255 -0.30022 0.124425645
v 0.522941445 -0.30022 0.123695769
v 0.523790005 -0.30022 0.122793994
v 0.515026024 -0.3001 0.131727152
v 0.513863676 -0.3001 0.131054573
v 0.513017834 -0.3001 0.130128241
v 0.513017834 -0.30022 0.130128241
v 0.513863676 -0.30022 0.131054573
v 0.515026024 -0.30022 0.131727152
v 0.524455765 -0.3001 0.120518417
v 0.52428932 -0.3001 0.121731238
v 0.523790005 -0.3001 0.122793994
v 0.523790005 -0.30022 0.122793994
v 0.52428932 -0.30022 0.121731238
v 0.524455765 -0.30022 0.120518417
v 0.513017834 -0.3001 0.130128241
v 0.512502144 -0.3001 0.129035468
v 0.512330254 -0.3001 0.127863574
v 0.512330254 -0.30022 0.127863574
v 0.512502144 -0.30022 0.129035468
v 0.513017834 -0.30022 0.130128241
v 0.523724526 -0.3001 0.118111868
v 0.524272955 -0.3001 0.119278307
v 0.524455765 -0.3001 0.120518417
v 0.524455765 -0.30022 0.120518417
v 0.524272955 -0.30022 0.119278307
v 0.523724526 -0.30022 0.118111868
v 0.512330254 -0.3001 0.127863574
v 0.512470768 -0.3001 0.126814461
v 0.512892331 -0.3001 0.125871758
v 0.512892331 -0.30022 0.125871758
v 0.512470768 -0.30022 0.126814461
v 0.512330254 -0.30022 0.127863574
v 0.521623572 -0.3001 0.116354704
v 0.52283367 -0.3001 0.117107778
v 0.523724526 -0.3001 0.118111868
v 0.523724526 -0.30022 0.118111868
v 0.52283367 -0.30022 0.117107778
v 0.521623572 -0.30022 0.116354704
v 0.512892331 -0.3001 0.125871758
v 0.513600377 -0.3001 0.125054569
v 0.514600371 -0.3001 0.12438199
v 0.514600371 -0.30022 0.12438199
v 0.513600377 -0.30022 0.125054569
v 0.512892331 -0.30022 0.125871758
v 0.518540352 -0.3001 0.115727148
v 0.520167912 -0.3001 0.115884037
v 0.521623572 -0.3001 0.116354704
v 0.521623572 -0.30022 0.116354704
v 0.520167912 -0.30022 0.115884037
v 0.518540352 -0.30022 0.115727148
v 0.514600371 -0.3001 0.12438199
v 0.51512493 -0.3001 0.124143586
v 0.51581456 -0.3001 0.123897681
v 0.516669272 -0.3001 0.123644271
v 0.517689055 -0.3001 0.123383355
v 0.517689055 -0.30022 0.123383355
v 0.516669272 -0.30022 0.123644271
v 0.51581456 -0.30022 0.123897681
v 0.51512493 -0.30022 0.124143586
v 0.514600371 -0.30022 0.12438199
v 0.514900511 -0.3001 0.116360164
v 0.516544445 -0.3001 0.115885401
v 0.518540352 -0.3001 0.115727148
v 0.518540352 -0.30022 0.115727148
v 0.516544445 -0.30022 0.115885401
v 0.514900511 -0.30022 0.116360164
v 0.517689055 -0.3001 0.123383355
v 0.518693827 -0.3001 0.123136082
v 0.519503516 -0.3001 0.122923598
v 0.520118111 -0.3001 0.122745905
v 0.520537623 -0.3001 0.122603002
v 0.520537623 -0.30022 0.122603002
v 0.520118111 -0.30022 0.122745905
v 0.519503516 -0.30022 0.122923598
v 0.518693827 -0.30022 0.123136082
v 0.517689055 -0.30022 0.123383355
v 0.512597645 -0.3001 0.118264666
v 0.51359083 -0.3001 0.117152796
v 0.514900511 -0.3001 0.116360164
v 0.514900511 -0.30022 0.116360164
v 0.51359083 -0.30022 0.117152796
v 0.512597645 -0.30022 0.118264666
v 0.520537623 -0.3001 0.122603002
v 0.52139983 -0.3001 0.122175989
v 0.521978272 -0.3001 0.121658936
v 0.521978272 -0.30022 0.121658936
v 0.52139983 -0.30022 0.122175989
v 0.520537623 -0.30022 0.122603002
v 0.511719063 -0.30022 0.121140518
v 0.511960543 -0.30022 0.11961937
v 0.512597645 -0.30022 0.118264666
v 0.51359083 -0.30022 0.117152796
v 0.514900511 -0.30022 0.116360164
v 0.516544445 -0.30022 0.115885401
v 0.518540352 -0.30022 0.115727148
v 0.520167912 -0.30022 0.115884037
v 0.521623572 -0.30022 0.116354704
v 0.52283367 -0.30022 0.117107778
v 0.523724526 -0.30022 0.118111868
v 0.524272955 -0.30022 0.119278307
v 0.524455765 -0.30022 0.120518417
v 0.52428932 -0.30022 0.121731238
v 0.523790005 -0.30022 0.122793994
v 0.522941445 -0.30022 0.123695769
v 0.521727255 -0.30022 0.124425645
v 0.521145743 -0.30022 0.124653139
v 0.520361632 -0.30022 0.124899044
v 0.519374932 -0.30022 0.125163369
v 0.518185643 -0.30022 0.12544611
v 0.517018183 -0.30022 0.125736356
v 0.516096962 -0.30022 0.126023192
v 0.515421999 -0.30022 0.126306615
v 0.514993285 -0.30022 0.126586628
v 0.514526709 -0.30022 0.127219644
v 0.514371184 -0.30022 0.128005457
v 0.514590825 -0.30022 0.12892633
v 0.515249766 -0.30022 0.129702592
v 0.51638892 -0.30022 0.13023056
v 0.51804922 -0.30022 0.130406551
v 0.519668587 -0.30022 0.130212822
v 0.520837754 -0.30022 0.129631648
v 0.521586731 -0.30022 0.128671212
v 0.521945532 -0.30022 0.127339697
v 0.523975552 -0.30022 0.127492495
v 0.52375181 -0.30022 0.128826737
v 0.523189734 -0.30022 0.130013638
v 0.522301606 -0.30022 0.130991812
v 0.52109969 -0.30022 0.131699858
v 0.519635847 -0.30022 0.132129602
v 0.517961901 -0.30022 0.132272854
v 0.516420296 -0.30022 0.132136421
v 0.515026024 -0.30022 0.131727152
v 0.513863676 -0.30022 0.131054573
v 0.513017834 -0.30022 0.130128241
v 0.512502144 -0.30022 0.129035468
v 0.512330254 -0.30022 0.127863574
v 0.512470768 -0.30022 0.126814461
v 0.512892331 -0.30022 0.125871758
v 0.513600377 -0.30022 0.125054569
v 0.514600371 -0.30022 0.12438199
v 0.51512493 -0.30022 0.124143586
v 0.51581456 -0.30022 0.123897681
v 0.516669272 -0.30022 0.123644271
v 0.517689055 -0.30022 0.123383355
v 0.518693827 -0.30022 0.123136082
v 0.519503516 -0.30022 0.122923598
v 0.520118111 -0.30022 0.122745905
v 0.520537623 -0.30022 0.122603002
v 0.52139983 -0.30022 0.122175989
v 0.521978272 -0.30022 0.121658936
v 0.522305697 -0.30022 0.121049113
v 0.522414835 -0.30022 0.12034379
v 0.522301606 -0.30022 0.119630284
v 0.521961907 -0.30022 0.118974075
v 0.521390274 -0.30022 0.118413367
v 0.520581273 -0.30022 0.117986355
v 0.519582642 -0.30022 0.117716231
v 0.518442124 -0.30022 0.11762619
v 0.51714608 -0.30022 0.117744884
v 0.51598646 -0.30022 0.118100953
v 0.515038298 -0.30022 0.118649383
v 0.514376639 -0.30022 0.119345155
v 0.513952349 -0.30022 0.120222373
v 0.513716334 -0.30022 0.121315141
v 0.521978272 -0.3001 0.121658936
v 0.522305697 -0.3001 0.121049113
v 0.522414835 -0.3001 0.12034379
v 0.522414835 -0.30022 0.12034379
v 0.522305697 -0.30022 0.121049113
v 0.521978272 -0.30022 0.121658936
f 1465 1466 1470
f 1470 1466 1469
f 1469 1466 1467
f 1469 1467 1468
f 1471 1472 1476
f 1476 1472 1475
f 1475 1472 1473
f 1475 1473 1474
f 1478 1481 1477
f 1477 1481 1482
f 1477 1482 1552
f 1552 1482 1483
f 1552 1483 1551
f 1551 1483 1484
f 1551 1484 1550
f 1550 1484 1485
f 1550 1485 1549
f 1549 1485 1486
f 1549 1486 1487
f 1479 1480 1478
f 1478 1480 1481
f 1549 1487 1548
f 1548 1487 1488
f 1548 1488 1547
f 1547 1488 1489
f 1547 1489 1546
f 1546 1489 1490
f 1546 1490 1545
f 1545 1490 1491
f 1545 1491 1544
f 1544 1491 1492
f 1544 1492 1543
f 1543 1492 1542
f 1542 1492 1493
f 1542 1493 1541
f 1541 1493 1494
f 1541 1494 1540
f 1540 1494 1495
f 1540 1495 1539
f 1539 1495 1496
f 1539 1496 1538
f 1538 1496 1537
f 1537 1496 1497
f 1537 1497 1498
f 1537 1498 1536
f 1536 1498 1499
f 1536 1499 1535
f 1535 1499 1500
f 1535 1500 1534
f 1534 1500 1501
f 1534 1501 1502
f 1534 1502 1533
f 1533 1502 1503
f 1533 1503 1532
f 1532 1503 1504
f 1532 1504 1531
f 1531 1504 1505
f 1531 1505 1530
f 1530 1505 1506
f 1530 1506 1507
f 1530 1507 1529
f 1529 1507 1508
f 1529 1508 1509
f 1529 1509 1528
f 1528 1509 1510
f 1528 1510 1511
f 1528 1511 1527
f 1527 1511 1512
f 1527 1512 1526
f 1526 1512 1513
f 1526 1513 1525
f 1525 1513 1514
f 1525 1514 1515
f 1525 1515 1524
f 1524 1515 1516
f 1524 1516 1523
f 1523 1516 1517
f 1523 1517 1522
f 1522 1517 1518
f 1522 1518 1519
f 1520 1521 1519
f 1519 1521 1522
f 1553 1554 1558
f 1558 1554 1557
f 1557 1554 1555
f 1557 1555 1556
f 1559 1560 1564
f 1564 1560 1563
f 1563 1560 1561
f 1563 1561 1562
f 1565 1566 1570
f 1570 1566 1569
f 1569 1566 1567
f 1569 1567 1568
f 1571 1572 1576
f 1576 1572 1575
f 1575 1572 1573
f 1575 1573 1574
f 1577 1578 1582
f 1582 1578 1581
f 1581 1578 1579
f 1581 1579 1580
f 1583 1584 1586
f 1586 1584 1585
f 1587 1588 1592
f 1592 1588 1591
f 1591 1588 1589
f 1591 1589 1590
f 1593 1594 1598
f 1598 1594 1597
f 1597 1594 1595
f 1597 1595 1596
f 1599 1600 1604
f 1604 1600 1603
f 1603 1600 1601
f 1603 1601 1602
f 1605 1606 1608
f 1608 1606 1607
f 1609 1610 1614
f 1614 1610 1613
f 1613 1610 1611
f 1613 1611 1612
f 1615 1616 1620
f 1620 1616 1619
f 1619 1616 1617
f 1619 1617 1618
f 1621 1622 1626
f 1626 1622 1625
f 1625 1622 1623
f 1625 1623 1624
f 1627 1628 1632
f 1632 1628 1631
f 1631 1628 1629
f 1631 1629 1630
f 1633 1634 1642
f 1642 1634 1641
f 1641 1634 1635
f 1641 1635 1640
f 1640 1635 1636
f 1640 1636 1639
f 1639 1636 1637
f 1639 1637 1638
f 1643 1644 1648
f 1648 1644 1647
f 1647 1644 1645
f 1647 1645 1646
f 1649 1650 1658
f 1658 1650 1657
f 1657 1650 1651
f 1657 1651 1656
f 1656 1651 1652
f 1656 1652 1655
f 1655 1652 1653
f 1655 1653 1654
f 1659 1660 1664
f 1664 1660 1663
f 1663 1660 1661
f 1663 1661 1662
f 1665 1666 1670
f 1670 1666 1669
f 1669 1666 1667
f 1669 1667 1668
f 1671 1672 1676
f 1676 1672 1675
f 1675 1672 1673
f 1675 1673 1674
f 1677 1678 1682
f 1682 1678 1681
f 1681 1678 1679
f 1681 1679 1680
f 1683 1684 1688
f 1688 1684 1687
f 1687 1684 1685
f 1687 1685 1686
f 1689 1690 1694
f 1694 1690 1693
f 1693 1690 1691
f 1693 1691 1692
f 1695 1696 1700
f 1700 1696 1699
f 1699 1696 1697
f 1699 1697 1698
f 1701 1702 1706
f 1706 1702 1705
f 1705 1702 1703
f 1705 1703 1704
f 1707 1708 1712
f 1712 1708 1711
f 1711 1708 1709
f 1711 1709 1710
f 1713 1714 1718
f 1718 1714 1717
f 1717 1714 1715
f 1717 1715 1716
f 1719 1720 1728
f 1728 1720 1727
f 1727 1720 1721
f 1727 1721 1726
f 1726 1721 1722
f 1726 1722 1725
f 1725 1722 1723
f 1725 1723 1724
f 1729 1730 1734
f 1734 1730 1733
f 1733 1730 1731
f 1733 1731 1732
f 1735 1736 1744
f 1744 1736 1743
f 1743 1736 1737
f 1743 1737 1742
f 1742 1737 1738
f 1742 1738 1741
f 1741 1738 1739
f 1741 1739 1740
f 1745 1746 1750
f 1750 1746 1749
f 1749 1746 1747
f 1749 1747 1748
f 1751 1752 1756
f 1756 1752 1755
f 1755 1752 1753
f 1755 1753 1754
f 1757 1758 1832
f 1832 1758 1831
f 1831 1758 1759
f 1831 1759 1830
f 1830 1759 1760
f 1830 1760 1829
f 1829 1760 1761
f 1829 1761 1828
f 1828 1761 1762
f 1828 1762 1827
f 1827 1762 1763
f 1827 1763 1826
f 1826 1763 1825
f 1825 1763 1764
f 1825 1764 1824
f 1824 1764 1765
f 1824 1765 1823
f 1823 1765 1766
f 1823 1766 1822
f 1822 1766 1767
f 1822 1767 1821
f 1821 1767 1768
f 1821 1768 1820
f 1820 1768 1769
f 1820 1769 1770
f 1820 1770 1819
f 1819 1770 1771
f 1819 1771 1818
f 1818 1771 1772
f 1818 1772 1817
f 1817 1772 1773
f 1817 1773 1816
f 1816 1773 1774
f 1816 1774 1775
f 1776 1814 1775
f 1775 1814 1815
f 1775 1815 1816
f 1814 1776 1813
f 1813 1776 1777
f 1813 1777 1812
f 1812 1777 1778
f 1812 1778 1811
f 1811 1778 1810
f 1810 1778 1779
f 1810 1779 1809
f 1809 1779 1780
f 1809 1780 1808
f 1808 1780 1781
f 1808 1781 1807
f 1807 1781 1782
f 1807 1782 1806
f 1806 1782 1805
f 1805 1782 1783
f 1805 1783 1804
f 1804 1783 1803
f 1803 1783 1784
f 1803 1784 1802
f 1802 1784 1801
f 1801 1784 1785
f 1801 1785 1800
f 1800 1785 1786
f 1800 1786 1799
f 1799 1786 1787
f 1799 1787 1798
f 1798 1787 1797
f 1797 1787 1788
f 1797 1788 1796
f 1796 1788 1789
f 1796 1789 1795
f 1795 1789 1790
f 1795 1790 1794
f 1794 1790 1793
f 1793 1790 1791
f 1793 1791 1792
f 1833 1834 1838
f 1838 1834 1837
f 1837 1834 1835
f 1837 1835 1836
v 0.499222468 -0.3001 0.131999998
v 0.496941431 -0.3001 0.131999998
v 0.496941431 -0.30022 0.131999998
v 0.499222468 -0.30022 0.131999998
v 0.493045119 -0.3001 0.115999999
v 0.490796822 -0.3001 0.115999999
v 0.496941431 -0.3001 0.131999998
v 0.499222468 -0.3001 0.131999998
v 0.505770901 -0.3001 0.115999999
v 0.503358897 -0.3001 0.115999999
v 0.501492594 -0.3001 0.120845838
v 0.494802283 -0.3001 0.120845838
v 0.497170628 -0.3001 0.127263298
v 0.495413464 -0.3001 0.122570257
v 0.500837754 -0.3001 0.122570257
v 0.499167899 -0.3001 0.127001362
v 0.498502148 -0.3001 0.12884038
v 0.498032845 -0.3001 0.130319233
v 0.496941431 -0.3001 0.131999998
v 0.490796822 -0.3001 0.115999999
v 0.490796822 -0.30022 0.115999999
v 0.496941431 -0.30022 0.131999998
v 0.495413464 -0.3001 0.122570257
v 0.497170628 -0.3001 0.127263298
v 0.497170628 -0.30022 0.127263298
v 0.495413464 -0.30022 0.122570257
v 0.497170628 -0.3001 0.127263298
v 0.498032845 -0.3001 0.130319233
v 0.498032845 -0.30022 0.130319233
v 0.497170628 -0.30022 0.127263298
v 0.498032845 -0.3001 0.130319233
v 0.498502148 -0.3001 0.12884038
v 0.499167899 -0.3001 0.127001362
v 0.499167899 -0.30022 0.127001362
v 0.498502148 -0.30022 0.12884038
v 0.498032845 -0.30022 0.130319233
v 0.499167899 -0.3001 0.127001362
v 0.500837754 -0.3001 0.122570257
v 0.500837754 -0.30022 0.122570257
v 0.499167899 -0.30022 0.127001362
v 0.500837754 -0.3001 0.122570257
v 0.495413464 -0.3001 0.122570257
v 0.495413464 -0.30022 0.122570257
v 0.500837754 -0.30022 0.122570257
v 0.493045119 -0.3001 0.115999999
v 0.494802283 -0.3001 0.120845838
v 0.494802283 -0.30022 0.120845838
v 0.493045119 -0.30022 0.115999999
v 0.490796822 -0.3001 0.115999999
v 0.493045119 -0.3001 0.115999999
v 0.493045119 -0.30022 0.115999999
v 0.490796822 -0.30022 0.115999999
v 0.494802283 -0.3001 0.120845838
v 0.501492594 -0.3001 0.120845838
v 0.501492594 -0.30022 0.120845838
v 0.494802283 -0.30022 0.120845838
v 0.501492594 -0.3001 0.120845838
v 0.503358897 -0.3001 0.115999999
v 0.503358897 -0.30022 0.115999999
v 0.501492594 -0.30022 0.120845838
v 0.503358897 -0.3001 0.115999999
v 0.505770901 -0.3001 0.115999999
v 0.505770901 -0.30022 0.115999999
v 0.503358897 -0.30022 0.115999999
v 0.490796822 -0.30022 0.115999999
v 0.493045119 -0.30022 0.115999999
v 0.494802283 -0.30022 0.120845838
v 0.501492594 -0.30022 0.120845838
v 0.503358897 -0.30022 0.115999999
v 0.505770901 -0.30022 0.115999999
v 0.499222468 -0.30022 0.131999998
v 0.496941431 -0.30022 0.131999998
v 0.495413464 -0.30022 0.122570257
v 0.497170628 -0.30022 0.127263298
v 0.498032845 -0.30022 0.130319233
v 0.498502148 -0.30022 0.12884038
v 0.499167899 -0.30022 0.127001362
v 0.500837754 -0.30022 0.122570257
v 0.505770901 -0.3001 0.115999999
v 0.499222468 -0.3001 0.131999998
v 0.499222468 -0.30022 0.131999998
v 0.505770901 -0.30022 0.115999999
f 1839 1840 1842
f 1842 1840 1841
f 1843 1844 1850
f 1850 1844 1852
f 1850 1852 1853
f 1844 1845 1852
f 1852 1845 1851
f 1851 1845 1856
f 1856 1845 1846
f 1856 1846 1855
f 1855 1846 1854
f 1854 1846 1853
f 1853 1846 1847
f 1853 1847 1849
f 1849 1847 1848
f 1849 1850 1853
f 1857 1858 1860
f 1860 1858 1859
f 1861 1862 1864
f 1864 1862 1863
f 1865 1866 1868
f 1868 1866 1867
f 1869 1870 1874
f 1874 1870 1873
f 1873 1870 1871
f 1873 1871 1872
f 1875 1876 1878
f 1878 1876 1877
f 1879 1880 1882
f 1882 1880 1881
f 1883 1884 1886
f 1886 1884 1885
f 1887 1888 1890
f 1890 1888 1889
f 1891 1892 1894
f 1894 1892 1893
f 1895 1896 1898
f 1898 1896 1897
f 1899 1900 1902
f 1902 1900 1901
f 1904 1905 1903
f 1903 1905 1911
f 1903 1911 1910
f 1910 1911 1912
f 1910 1912 1913
f 1911 1905 1916
f 1916 1905 1906
f 1916 1906 1908
f 1908 1906 1907
f 1908 1909 1916
f 1916 1909 1915
f 1915 1909 1914
f 1914 1909 1913
f 1913 1909 1910
f 1917 1918 1920
f 1920 1918 1919
v 0.472679504 -0.3001 0.115999999
v 0.470562175 -0.3001 0.115999999
v 0.470562175 -0.3001 0.131999998
v 0.472679504 -0.3001 0.131999998
v 0.470562175 -0.30022 0.115999999
v 0.472679504 -0.30022 0.115999999
v 0.472679504 -0.30022 0.131999998
v 0.470562175 -0.30022 0.131999998
v 0.470562175 -0.3001 0.115999999
v 0.472679504 -0.3001 0.115999999
v 0.472679504 -0.30022 0.115999999
v 0.470562175 -0.30022 0.115999999
v 0.472679504 -0.3001 0.115999999
v 0.472679504 -0.3001 0.131999998
v 0.472679504 -0.30022 0.131999998
v 0.472679504 -0.30022 0.115999999
v 0.472679504 -0.3001 0.131999998
v 0.470562175 -0.3001 0.131999998
v 0.470562175 -0.30022 0.131999998
v 0.472679504 -0.30022 0.131999998
v 0.470562175 -0.3001 0.131999998
v 0.470562175 -0.3001 0.115999999
v 0.470562175 -0.30022 0.115999999
v 0.470562175 -0.30022 0.131999998
f 1921 1922 1924
f 1924 1922 1923
f 1925 1926 1928
f 1928 1926 1927
f 1929 1930 1932
f 1932 1930 1931
f 1933 1934 1936
f 1936 1934 1935
f 1937 1938 1940
f 1940 1938 1939
f 1941 1942 1944
f 1944 1942 1943
v 0.442775 -0.30022 0.115999999
v 0.452772272 -0.30022 0.115999999
v 0.452772272 -0.30022 0.117888131
v 0.444892324 -0.30022 0.117888131
v 0.444892324 -0.30022 0.131999998
v 0.442775 -0.30022 0.131999998
v 0.452772272 -0.3001 0.115999999
v 0.442775 -0.3001 0.115999999
v 0.442775 -0.3001 0.131999998
v 0.444892324 -0.3001 0.131999998
v 0.444892324 -0.3001 0.117888131
v 0.452772272 -0.3001 0.117888131
v 0.442775 -0.3001 0.115999999
v 0.452772272 -0.3001 0.115999999
v 0.452772272 -0.30022 0.115999999
v 0.442775 -0.30022 0.115999999
v 0.452772272 -0.3001 0.115999999
v 0.452772272 -0.3001 0.117888131
v 0.452772272 -0.30022 0.117888131
v 0.452772272 -0.30022 0.115999999
v 0.452772272 -0.3001 0.117888131
v 0.444892324 -0.3001 0.117888131
v 0.444892324 -0.30022 0.117888131
v 0.452772272 -0.30022 0.117888131
v 0.444892324 -0.3001 0.117888131
v 0.444892324 -0.3001 0.131999998
v 0.444892324 -0.30022 0.131999998
v 0.444892324 -0.30022 0.117888131
v 0.444892324 -0.3001 0.131999998
v 0.442775 -0.3001 0.131999998
v 0.442775 -0.30022 0.131999998
v 0.444892324 -0.30022 0.131999998
v 0.442775 -0.3001 0.131999998
v 0.442775 -0.3001 0.115999999
v 0.442775 -0.30022 0.115999999
v 0.442775 -0.30022 0.131999998
f 1950 1945 1948
f 1948 1945 1946
f 1948 1946 1947
f 1948 1949 1950
f 1956 1951 1955
f 1955 1951 1952
f 1955 1952 1953
f 1953 1954 1955
f 1957 1958 1960
f 1960 1958 1959
f 1961 1962 1964
f 1964 1962 1963
f 1965 1966 1968
f 1968 1966 1967
f 1969 1970 1972
f 1972 1970 1971
f 1973 1974 1976
f 1976 1974 1975
f 1977 1978 1980
f 1980 1978 1979
