v 0.0835000038 0.0279999995 0.317000008
v 0.0850983906 0.0375786352 0.317000008
v 0.0897203541 0.0461192751 0.317000008
v 0.0968650341 0.0526964092 0.317000008
v 0.105758181 0.0565973091 0.317000008
v 0.115436087 0.0573992443 0.317000008
v 0.124850016 0.0550153112 0.317000008
v 0.132979803 0.0497038555 0.317000008
v 0.138944473 0.0420404482 0.317000008
v 0.142097654 0.0328555393 0.317000008
v 0.142097654 0.0231444597 0.317000008
v 0.138944473 0.013959552 0.317000008
v 0.132979803 0.00629614472 0.317000008
v 0.124850016 0.000984686837 0.317000008
v 0.115436087 -0.00139924258 0.317000008
v 0.105758181 -0.000597307831 0.317000008
v 0.0968650341 0.00330358893 0.317000008
v 0.0897203541 0.00988072515 0.317000008
v 0.0850983906 0.0184213662 0.317000008
v 0.0835000038 0.0279999995 0.39
v 0.0850983906 0.0184213662 0.39
v 0.0897203541 0.00988072515 0.39
v 0.0968650341 0.00330358893 0.39
v 0.105758181 -0.000597307831 0.39
v 0.115436087 -0.00139924258 0.39
v 0.124850016 0.000984686837 0.39
v 0.132979803 0.00629614472 0.39
v 0.138944473 0.013959552 0.39
v 0.142097654 0.0231444597 0.39
v 0.142097654 0.0328555393 0.39
v 0.138944473 0.0420404482 0.39
v 0.132979803 0.0497038555 0.39
v 0.124850016 0.0550153112 0.39
v 0.115436087 0.0573992443 0.39
v 0.105758181 0.0565973091 0.39
v 0.0968650341 0.0526964092 0.39
v 0.0897203541 0.0461192751 0.39
v 0.0850983906 0.0375786352 0.39
v 0.0835000038 0.0279999995 0.39
v 0.0850983906 0.0375786352 0.39
v 0.0897203541 0.0461192751 0.39
v 0.0968650341 0.0526964092 0.39
v 0.105758181 0.0565973091 0.39
v 0.115436087 0.0573992443 0.39
v 0.124850016 0.0550153112 0.39
v 0.132979803 0.0497038555 0.39
v 0.138944473 0.0420404482 0.39
v 0.142097654 0.0328555393 0.39
v 0.142097654 0.0231444597 0.39
v 0.138944473 0.013959552 0.39
v 0.132979803 0.00629614472 0.39
v 0.124850016 0.000984686837 0.39
v 0.115436087 -0.00139924258 0.39
v 0.105758181 -0.000597307831 0.39
v 0.0968650341 0.00330358893 0.39
v 0.0897203541 0.00988072515 0.39
v 0.0850983906 0.0184213662 0.39
v 0.0835000038 0.0279999995 0.317000008
v 0.0850983906 0.0184213662 0.317000008
v 0.0897203541 0.00988072515 0.317000008
v 0.0968650341 0.00330358893 0.317000008
v 0.105758181 -0.000597307831 0.317000008
v 0.115436087 -0.00139924258 0.317000008
v 0.124850016 0.000984686837 0.317000008
v 0.132979803 0.00629614472 0.317000008
v 0.138944473 0.013959552 0.317000008
v 0.142097654 0.0231444597 0.317000008
v 0.142097654 0.0328555393 0.317000008
v 0.138944473 0.0420404482 0.317000008
v 0.132979803 0.0497038555 0.317000008
v 0.124850016 0.0550153112 0.317000008
v 0.115436087 0.0573992443 0.317000008
v 0.105758181 0.0565973091 0.317000008
v 0.0968650341 0.0526964092 0.317000008
v 0.0897203541 0.0461192751 0.317000008
v 0.0850983906 0.0375786352 0.317000008
v 0.0835000038 0.0279999995 0.317000008
v 0.0835000038 0.0279999995 0.39
f 1 2 19
f 19 2 3
f 19 3 18
f 18 3 4
f 18 4 17
f 17 4 5
f 17 5 16
f 16 5 6
f 16 6 15
f 15 6 7
f 15 7 8
f 8 9 15
f 15 9 10
f 15 10 11
f 11 12 15
f 15 12 13
f 15 13 14
f 20 21 38
f 38 21 37
f 37 21 22
f 37 22 36
f 36 22 23
f 36 23 35
f 35 23 24
f 35 24 34
f 34 24 25
f 34 25 33
f 33 25 32
f 32 25 31
f 31 25 30
f 30 25 29
f 29 25 28
f 28 25 27
f 27 25 26
f 40 76 39
f 39 76 77
f 78 58 57
f 57 58 59
f 57 59 56
f 56 59 60
f 56 60 55
f 55 60 61
f 55 61 54
f 54 61 62
f 54 62 53
f 53 62 63
f 53 63 52
f 52 63 64
f 52 64 51
f 51 64 65
f 51 65 50
f 50 65 66
f 50 66 49
f 49 66 67
f 49 67 48
f 48 67 68
f 48 68 47
f 47 68 69
f 47 69 46
f 46 69 70
f 46 70 45
f 45 70 71
f 45 71 44
f 44 71 72
f 44 72 43
f 43 72 73
f 43 73 42
f 42 73 74
f 42 74 41
f 41 74 75
f 41 75 40
f 40 75 76
v 0.458560163 0.351570464 0.513
v 0.857681809 0.325076856 0.513
v 0.857681809 0.325076856 0.520999992
v 0.458560163 0.351570464 0.520999992
v 0.463196544 0.421416752 0.513
v 0.458560163 0.351570464 0.513
v 0.458560163 0.351570464 0.520999992
v 0.463196544 0.421416752 0.520999992
v 0.862318191 0.394923144 0.520999992
v 0.463196544 0.421416752 0.520999992
v 0.458560163 0.351570464 0.520999992
v 0.857681809 0.325076856 0.520999992
v 0.857681809 0.325076856 0.513
v 0.862318191 0.394923144 0.513
v 0.862318191 0.394923144 0.520999992
v 0.857681809 0.325076856 0.520999992
v 0.862318191 0.394923144 0.513
v 0.463196544 0.421416752 0.513
v 0.463196544 0.421416752 0.520999992
v 0.862318191 0.394923144 0.520999992
v 0.463196544 0.421416752 0.513
v 0.862318191 0.394923144 0.513
v 0.857681809 0.325076856 0.513
v 0.458560163 0.351570464 0.513
f 79 80 82
f 82 80 81
f 83 84 86
f 86 84 85
f 88 89 87
f 87 89 90
f 91 92 94
f 94 92 93
f 95 96 98
f 98 96 97
f 100 101 99
f 99 101 102
v 0.463196544 0.421416752 0.520999992
v 0.452799778 0.420548518 0.520999992
v 0.44312082 0.416654333 0.520999992
v 0.435019708 0.410080252 0.520999992
v 0.429216242 0.401410414 0.520999992
v 0.426226099 0.39141512 0.520999992
v 0.42631495 0.380982541 0.520999992
v 0.429474919 0.371039649 0.520999992
v 0.435425237 0.362469902 0.520999992
v 0.443637153 0.35603475 0.520999992
v 0.453381026 0.352306044 0.520999992
v 0.463791085 0.351615027 0.520999992
v 0.473942316 0.3540231 0.520999992
v 0.482932762 0.359316363 0.520999992
v 0.489963597 0.367024423 0.520999992
v 0.494410064 0.376462402 0.520999992
v 0.495877085 0.386791703 0.520999992
v 0.494234326 0.397094528 0.520999992
v 0.489627734 0.406455383 0.520999992
v 0.482466643 0.414042566 0.520999992
v 0.473387329 0.419181921 0.520999992
v 0.463196544 0.421416752 0.513
v 0.473387329 0.419181921 0.513
v 0.482466643 0.414042566 0.513
v 0.489627734 0.406455383 0.513
v 0.494234326 0.397094528 0.513
v 0.495877085 0.386791703 0.513
v 0.494410064 0.376462402 0.513
v 0.489963597 0.367024423 0.513
v 0.482932762 0.359316363 0.513
v 0.473942316 0.3540231 0.513
v 0.463791085 0.351615027 0.513
v 0.453381026 0.352306044 0.513
v 0.443637153 0.35603475 0.513
v 0.435425237 0.362469902 0.513
v 0.429474919 0.371039649 0.513
v 0.42631495 0.380982541 0.513
v 0.426226099 0.39141512 0.513
v 0.429216242 0.401410414 0.513
v 0.435019708 0.410080252 0.513
v 0.44312082 0.416654333 0.513
v 0.452799778 0.420548518 0.513
v 0.463196544 0.421416752 0.520999992
v 0.473387329 0.419181921 0.520999992
v 0.482466643 0.414042566 0.520999992
v 0.489627734 0.406455383 0.520999992
v 0.494234326 0.397094528 0.520999992
v 0.495877085 0.386791703 0.520999992
v 0.494410064 0.376462402 0.520999992
v 0.489963597 0.367024423 0.520999992
v 0.482932762 0.359316363 0.520999992
v 0.473942316 0.3540231 0.520999992
v 0.463791085 0.351615027 0.520999992
v 0.453381026 0.352306044 0.520999992
v 0.443637153 0.35603475 0.520999992
v 0.435425237 0.362469902 0.520999992
v 0.429474919 0.371039649 0.520999992
v 0.42631495 0.380982541 0.520999992
v 0.426226099 0.39141512 0.520999992
v 0.429216242 0.401410414 0.520999992
v 0.435019708 0.410080252 0.520999992
v 0.44312082 0.416654333 0.520999992
v 0.452799778 0.420548518 0.520999992
v 0.463196544 0.421416752 0.513
v 0.452799778 0.420548518 0.513
v 0.44312082 0.416654333 0.513
v 0.435019708 0.410080252 0.513
v 0.429216242 0.401410414 0.513
v 0.426226099 0.39141512 0.513
v 0.42631495 0.380982541 0.513
v 0.429474919 0.371039649 0.513
v 0.435425237 0.362469902 0.513
v 0.443637153 0.35603475 0.513
v 0.453381026 0.352306044 0.513
v 0.463791085 0.351615027 0.513
v 0.473942316 0.3540231 0.513
v 0.482932762 0.359316363 0.513
v 0.489963597 0.367024423 0.513
v 0.494410064 0.376462402 0.513
v 0.495877085 0.386791703 0.513
v 0.494234326 0.397094528 0.513
v 0.489627734 0.406455383 0.513
v 0.482466643 0.414042566 0.513
v 0.473387329 0.419181921 0.513
v 0.463196544 0.421416752 0.513
v 0.463196544 0.421416752 0.520999992
f 123 103 109
f 109 103 104
f 109 104 105
f 105 106 109
f 109 106 107
f 109 107 108
f 110 118 109
f 109 118 119
f 109 119 120
f 118 110 117
f 117 110 111
f 117 111 116
f 116 111 112
f 116 112 115
f 115 112 113
f 115 113 114
f 120 121 109
f 109 121 122
f 109 122 123
f 144 124 139
f 139 124 125
f 139 125 126
f 126 127 139
f 139 127 128
f 139 128 129
f 129 130 139
f 139 130 138
f 138 130 131
f 138 131 137
f 137 131 132
f 137 132 136
f 136 132 133
f 136 133 135
f 135 133 134
f 140 141 139
f 139 141 142
f 139 142 143
f 143 144 139
f 146 186 145
f 145 186 187
f 188 166 165
f 165 166 167
f 165 167 164
f 164 167 168
f 164 168 163
f 163 168 169
f 163 169 162
f 162 169 170
f 162 170 161
f 161 170 171
f 161 171 160
f 160 171 172
f 160 172 159
f 159 172 173
f 159 173 158
f 158 173 174
f 158 174 157
f 157 174 175
f 157 175 156
f 156 175 176
f 156 176 155
f 155 176 177
f 155 177 154
f 154 177 178
f 154 178 153
f 153 178 179
f 153 179 152
f 152 179 180
f 152 180 151
f 151 180 181
f 151 181 150
f 150 181 182
f 150 182 149
f 149 182 183
f 149 183 148
f 148 183 184
f 148 184 147
f 147 184 185
f 147 185 146
f 146 185 186
v 0.862318191 0.394923144 0.520999992
v 0.851921387 0.394054913 0.520999992
v 0.842242486 0.390160724 0.520999992
v 0.834141335 0.383586645 0.520999992
v 0.828337907 0.374916805 0.520999992
v 0.825347764 0.364921511 0.520999992
v 0.825436616 0.354488932 0.520999992
v 0.828596566 0.344546041 0.520999992
v 0.834546883 0.335976294 0.520999992
v 0.842758799 0.329541142 0.520999992
v 0.852502711 0.325812434 0.520999992
v 0.862912693 0.325121421 0.520999992
v 0.873063963 0.327529492 0.520999992
v 0.882054447 0.332822753 0.520999992
v 0.889085243 0.340530815 0.520999992
v 0.893531692 0.349968795 0.520999992
v 0.894998712 0.360298096 0.520999992
v 0.893355954 0.370600921 0.520999992
v 0.888749399 0.379961774 0.520999992
v 0.88158827 0.387548959 0.520999992
v 0.872509014 0.392688311 0.520999992
v 0.862318191 0.394923144 0.513
v 0.872509014 0.392688311 0.513
v 0.88158827 0.387548959 0.513
v 0.888749399 0.379961774 0.513
v 0.893355954 0.370600921 0.513
v 0.894998712 0.360298096 0.513
v 0.893531692 0.349968795 0.513
v 0.889085243 0.340530815 0.513
v 0.882054447 0.332822753 0.513
v 0.873063963 0.327529492 0.513
v 0.862912693 0.325121421 0.513
v 0.852502711 0.325812434 0.513
v 0.842758799 0.329541142 0.513
v 0.834546883 0.335976294 0.513
v 0.828596566 0.344546041 0.513
v 0.825436616 0.354488932 0.513
v 0.825347764 0.364921511 0.513
v 0.828337907 0.374916805 0.513
v 0.834141335 0.383586645 0.513
v 0.842242486 0.390160724 0.513
v 0.851921387 0.394054913 0.513
v 0.862318191 0.394923144 0.520999992
v 0.872509014 0.392688311 0.520999992
v 0.88158827 0.387548959 0.520999992
v 0.888749399 0.379961774 0.520999992
v 0.893355954 0.370600921 0.520999992
v 0.894998712 0.360298096 0.520999992
v 0.893531692 0.349968795 0.520999992
v 0.889085243 0.340530815 0.520999992
v 0.882054447 0.332822753 0.520999992
v 0.873063963 0.327529492 0.520999992
v 0.862912693 0.325121421 0.520999992
v 0.852502711 0.325812434 0.520999992
v 0.842758799 0.329541142 0.520999992
v 0.834546883 0.335976294 0.520999992
v 0.828596566 0.344546041 0.520999992
v 0.825436616 0.354488932 0.520999992
v 0.825347764 0.364921511 0.520999992
v 0.828337907 0.374916805 0.520999992
v 0.834141335 0.383586645 0.520999992
v 0.842242486 0.390160724 0.520999992
v 0.851921387 0.394054913 0.520999992
v 0.862318191 0.394923144 0.513
v 0.851921387 0.394054913 0.513
v 0.842242486 0.390160724 0.513
v 0.834141335 0.383586645 0.513
v 0.828337907 0.374916805 0.513
v 0.825347764 0.364921511 0.513
v 0.825436616 0.354488932 0.513
v 0.828596566 0.344546041 0.513
v 0.834546883 0.335976294 0.513
v 0.842758799 0.329541142 0.513
v 0.852502711 0.325812434 0.513
v 0.862912693 0.325121421 0.513
v 0.873063963 0.327529492 0.513
v 0.882054447 0.332822753 0.513
v 0.889085243 0.340530815 0.513
v 0.893531692 0.349968795 0.513
v 0.894998712 0.360298096 0.513
v 0.893355954 0.370600921 0.513
v 0.888749399 0.379961774 0.513
v 0.88158827 0.387548959 0.513
v 0.872509014 0.392688311 0.513
v 0.862318191 0.394923144 0.513
v 0.862318191 0.394923144 0.520999992
f 209 189 195
f 195 189 190
f 195 190 191
f 191 192 195
f 195 192 193
f 195 193 194
f 196 204 195
f 195 204 205
f 195 205 206
f 204 196 203
f 203 196 197
f 203 197 202
f 202 197 198
f 202 198 201
f 201 198 199
f 201 199 200
f 206 207 195
f 195 207 208
f 195 208 209
f 230 210 225
f 225 210 211
f 225 211 212
f 212 213 225
f 225 213 214
f 225 214 215
f 215 216 225
f 225 216 224
f 224 216 217
f 224 217 223
f 223 217 218
f 223 218 222
f 222 218 219
f 222 219 221
f 221 219 220
f 226 227 225
f 225 227 228
f 225 228 229
f 229 230 225
f 232 272 231
f 231 272 273
f 274 252 251
f 251 252 253
f 251 253 250
f 250 253 254
f 250 254 249
f 249 254 255
f 249 255 248
f 248 255 256
f 248 256 247
f 247 256 257
f 247 257 246
f 246 257 258
f 246 258 245
f 245 258 259
f 245 259 244
f 244 259 260
f 244 260 243
f 243 260 261
f 243 261 242
f 242 261 262
f 242 262 241
f 241 262 263
f 241 263 240
f 240 263 264
f 240 264 239
f 239 264 265
f 239 265 238
f 238 265 266
f 238 266 237
f 237 266 267
f 237 267 236
f 236 267 268
f 236 268 235
f 235 268 269
f 235 269 234
f 234 269 270
f 234 270 233
f 233 270 271
f 233 271 232
f 232 271 272
v 0.523617497 0.174267786 0.467000015
v 0.484495838 0.390761425 0.467000015
v 0.484495838 0.390761425 0.473
v 0.523617497 0.174267786 0.473
v 0.476382529 0.165732152 0.467000015
v 0.523617497 0.174267786 0.467000015
v 0.523617497 0.174267786 0.473
v 0.476382529 0.165732152 0.473
v 0.437260869 0.382225791 0.467000015
v 0.484495838 0.390761425 0.467000015
v 0.523617497 0.174267786 0.467000015
v 0.476382529 0.165732152 0.467000015
v 0.484495838 0.390761425 0.473
v 0.437260869 0.382225791 0.473
v 0.476382529 0.165732152 0.473
v 0.523617497 0.174267786 0.473
v 0.484495838 0.390761425 0.467000015
v 0.437260869 0.382225791 0.467000015
v 0.437260869 0.382225791 0.473
v 0.484495838 0.390761425 0.473
v 0.437260869 0.382225791 0.467000015
v 0.476382529 0.165732152 0.467000015
v 0.476382529 0.165732152 0.473
v 0.437260869 0.382225791 0.473
f 276 277 275
f 275 277 278
f 280 281 279
f 279 281 282
f 284 285 283
f 283 285 286
f 288 289 287
f 287 289 290
f 292 293 291
f 291 293 294
f 296 297 295
f 295 297 298
v 0.456610533 0.410111111 0.473
v 0.464117616 0.410274 0.473
v 0.471307631 0.408109099 0.473
v 0.47747674 0.403828375 0.473
v 0.482021088 0.397850761 0.473
v 0.484495838 0.390761425 0.473
v 0.484658749 0.383254326 0.473
v 0.482493867 0.376064315 0.473
v 0.478213098 0.369895237 0.473
v 0.472235487 0.36535087 0.473
v 0.465146174 0.362876105 0.473
v 0.457639091 0.362713216 0.473
v 0.450449076 0.364878117 0.473
v 0.444279967 0.369158841 0.473
v 0.439735619 0.375136456 0.473
v 0.437260869 0.382225791 0.473
v 0.437097958 0.38973289 0.473
v 0.43926284 0.396922901 0.473
v 0.443543609 0.403091979 0.473
v 0.44952122 0.407636346 0.473
v 0.456610533 0.410111111 0.467000015
v 0.44952122 0.407636346 0.467000015
v 0.443543609 0.403091979 0.467000015
v 0.43926284 0.396922901 0.467000015
v 0.437097958 0.38973289 0.467000015
v 0.437260869 0.382225791 0.467000015
v 0.439735619 0.375136456 0.467000015
v 0.444279967 0.369158841 0.467000015
v 0.450449076 0.364878117 0.467000015
v 0.457639091 0.362713216 0.467000015
v 0.465146174 0.362876105 0.467000015
v 0.472235487 0.36535087 0.467000015
v 0.478213098 0.369895237 0.467000015
v 0.482493867 0.376064315 0.467000015
v 0.484658749 0.383254326 0.467000015
v 0.484495838 0.390761425 0.467000015
v 0.482021088 0.397850761 0.467000015
v 0.47747674 0.403828375 0.467000015
v 0.471307631 0.408109099 0.467000015
v 0.464117616 0.410274 0.467000015
v 0.456610533 0.410111111 0.467000015
v 0.456610533 0.410111111 0.473
v 0.456610533 0.410111111 0.473
v 0.44952122 0.407636346 0.473
v 0.443543609 0.403091979 0.473
v 0.43926284 0.396922901 0.473
v 0.437097958 0.38973289 0.473
v 0.437260869 0.382225791 0.473
v 0.439735619 0.375136456 0.473
v 0.444279967 0.369158841 0.473
v 0.450449076 0.364878117 0.473
v 0.457639091 0.362713216 0.473
v 0.465146174 0.362876105 0.473
v 0.472235487 0.36535087 0.473
v 0.478213098 0.369895237 0.473
v 0.482493867 0.376064315 0.473
v 0.484658749 0.383254326 0.473
v 0.484495838 0.390761425 0.473
v 0.482021088 0.397850761 0.473
v 0.47747674 0.403828375 0.473
v 0.471307631 0.408109099 0.473
v 0.464117616 0.410274 0.473
v 0.456610533 0.410111111 0.467000015
v 0.464117616 0.410274 0.467000015
v 0.471307631 0.408109099 0.467000015
v 0.47747674 0.403828375 0.467000015
v 0.482021088 0.397850761 0.467000015
v 0.484495838 0.390761425 0.467000015
v 0.484658749 0.383254326 0.467000015
v 0.482493867 0.376064315 0.467000015
v 0.478213098 0.369895237 0.467000015
v 0.472235487 0.36535087 0.467000015
v 0.465146174 0.362876105 0.467000015
v 0.457639091 0.362713216 0.467000015
v 0.450449076 0.364878117 0.467000015
v 0.444279967 0.369158841 0.467000015
v 0.439735619 0.375136456 0.467000015
v 0.437260869 0.382225791 0.467000015
v 0.437097958 0.38973289 0.467000015
v 0.43926284 0.396922901 0.467000015
v 0.443543609 0.403091979 0.467000015
v 0.44952122 0.407636346 0.467000015
f 300 338 299
f 299 338 339
f 340 319 318
f 318 319 320
f 318 320 317
f 317 320 321
f 317 321 316
f 316 321 322
f 316 322 315
f 315 322 323
f 315 323 314
f 314 323 324
f 314 324 313
f 313 324 325
f 313 325 312
f 312 325 326
f 312 326 311
f 311 326 327
f 311 327 310
f 310 327 328
f 310 328 309
f 309 328 329
f 309 329 308
f 308 329 330
f 308 330 307
f 307 330 331
f 307 331 306
f 306 331 332
f 306 332 305
f 305 332 333
f 305 333 304
f 304 333 334
f 304 334 303
f 303 334 335
f 303 335 302
f 302 335 336
f 302 336 301
f 301 336 337
f 301 337 300
f 300 337 338
f 342 350 341
f 341 350 351
f 341 351 360
f 360 351 352
f 360 352 359
f 359 352 353
f 359 353 358
f 358 353 354
f 358 354 357
f 357 354 355
f 357 355 356
f 350 342 349
f 349 342 343
f 349 343 348
f 348 343 344
f 348 344 347
f 347 344 345
f 347 345 346
f 362 370 361
f 361 370 371
f 361 371 380
f 380 371 372
f 380 372 379
f 379 372 373
f 379 373 378
f 378 373 374
f 378 374 377
f 377 374 375
f 377 375 376
f 370 362 369
f 369 362 363
f 369 363 368
f 368 363 364
f 368 364 367
f 367 364 365
f 367 365 366
v 0.495732193 0.193617472 0.473
v 0.503239269 0.193780398 0.473
v 0.510429284 0.191615498 0.473
v 0.516598406 0.187334698 0.473
v 0.521142754 0.181357084 0.473
v 0.523617497 0.174267786 0.473
v 0.523780401 0.166760725 0.473
v 0.521615519 0.159570714 0.473
v 0.517334764 0.153401561 0.473
v 0.511357154 0.148857193 0.473
v 0.504267833 0.146382466 0.473
v 0.496760757 0.14621954 0.473
v 0.489570742 0.14838444 0.473
v 0.48340162 0.15266524 0.473
v 0.478857272 0.158642854 0.473
v 0.476382529 0.165732152 0.473
v 0.476219625 0.173239213 0.473
v 0.478384507 0.180429224 0.473
v 0.482665262 0.186598377 0.473
v 0.488642873 0.191142745 0.473
v 0.495732193 0.193617472 0.467000015
v 0.488642873 0.191142745 0.467000015
v 0.482665262 0.186598377 0.467000015
v 0.478384507 0.180429224 0.467000015
v 0.476219625 0.173239213 0.467000015
v 0.476382529 0.165732152 0.467000015
v 0.478857272 0.158642854 0.467000015
v 0.48340162 0.15266524 0.467000015
v 0.489570742 0.14838444 0.467000015
v 0.496760757 0.14621954 0.467000015
v 0.504267833 0.146382466 0.467000015
v 0.511357154 0.148857193 0.467000015
v 0.517334764 0.153401561 0.467000015
v 0.521615519 0.159570714 0.467000015
v 0.523780401 0.166760725 0.467000015
v 0.523617497 0.174267786 0.467000015
v 0.521142754 0.181357084 0.467000015
v 0.516598406 0.187334698 0.467000015
v 0.510429284 0.191615498 0.467000015
v 0.503239269 0.193780398 0.467000015
v 0.495732193 0.193617472 0.467000015
v 0.495732193 0.193617472 0.473
v 0.495732193 0.193617472 0.467000015
v 0.503239269 0.193780398 0.467000015
v 0.510429284 0.191615498 0.467000015
v 0.516598406 0.187334698 0.467000015
v 0.521142754 0.181357084 0.467000015
v 0.523617497 0.174267786 0.467000015
v 0.523780401 0.166760725 0.467000015
v 0.521615519 0.159570714 0.467000015
v 0.517334764 0.153401561 0.467000015
v 0.511357154 0.148857193 0.467000015
v 0.504267833 0.146382466 0.467000015
v 0.496760757 0.14621954 0.467000015
v 0.489570742 0.14838444 0.467000015
v 0.48340162 0.15266524 0.467000015
v 0.478857272 0.158642854 0.467000015
v 0.476382529 0.165732152 0.467000015
v 0.476219625 0.173239213 0.467000015
v 0.478384507 0.180429224 0.467000015
v 0.482665262 0.186598377 0.467000015
v 0.488642873 0.191142745 0.467000015
v 0.495732193 0.193617472 0.473
v 0.488642873 0.191142745 0.473
v 0.482665262 0.186598377 0.473
v 0.478384507 0.180429224 0.473
v 0.476219625 0.173239213 0.473
v 0.476382529 0.165732152 0.473
v 0.478857272 0.158642854 0.473
v 0.48340162 0.15266524 0.473
v 0.489570742 0.14838444 0.473
v 0.496760757 0.14621954 0.473
v 0.504267833 0.146382466 0.473
v 0.511357154 0.148857193 0.473
v 0.517334764 0.153401561 0.473
v 0.521615519 0.159570714 0.473
v 0.523780401 0.166760725 0.473
v 0.523617497 0.174267786 0.473
v 0.521142754 0.181357084 0.473
v 0.516598406 0.187334698 0.473
v 0.510429284 0.191615498 0.473
v 0.503239269 0.193780398 0.473
f 382 420 381
f 381 420 421
f 422 401 400
f 400 401 402
f 400 402 399
f 399 402 403
f 399 403 398
f 398 403 404
f 398 404 397
f 397 404 405
f 397 405 396
f 396 405 406
f 396 406 395
f 395 406 407
f 395 407 394
f 394 407 408
f 394 408 393
f 393 408 409
f 393 409 392
f 392 409 410
f 392 410 391
f 391 410 411
f 391 411 390
f 390 411 412
f 390 412 389
f 389 412 413
f 389 413 388
f 388 413 414
f 388 414 387
f 387 414 415
f 387 415 386
f 386 415 416
f 386 416 385
f 385 416 417
f 385 417 384
f 384 417 418
f 384 418 383
f 383 418 419
f 383 419 382
f 382 419 420
f 424 432 423
f 423 432 433
f 423 433 442
f 442 433 434
f 442 434 441
f 441 434 435
f 441 435 440
f 440 435 436
f 440 436 439
f 439 436 437
f 439 437 438
f 432 424 431
f 431 424 425
f 431 425 430
f 430 425 426
f 430 426 429
f 429 426 427
f 429 427 428
f 444 452 443
f 443 452 453
f 443 453 462
f 462 453 454
f 462 454 461
f 461 454 455
f 461 455 460
f 460 455 456
f 460 456 459
f 459 456 457
f 459 457 458
f 452 444 451
f 451 444 445
f 451 445 450
f 450 445 446
f 450 446 449
f 449 446 447
f 449 447 448
