v 0.282000008 -0.00200000003 0.0569999981
v 0.281733437 -0.00200000003 0.0587685299
v 0.280957432 -0.00200000003 0.06037992
v 0.279740944 -0.00200000003 0.0616909885
v 0.278192043 -0.00200000003 0.0625852442
v 0.276448383 -0.00200000003 0.062983222
v 0.274664879 -0.00200000003 0.0628495693
v 0.272999992 -0.00200000003 0.0621961546
v 0.271601696 -0.00200000003 0.0610810375
v 0.270594196 -0.00200000003 0.0596033001
v 0.270067024 -0.00200000003 0.0578942537
v 0.270067024 -0.00200000003 0.0561057472
v 0.270594196 -0.00200000003 0.0543966961
v 0.271601696 -0.00200000003 0.0529189634
v 0.272999992 -0.00200000003 0.0518038464
v 0.274664879 -0.00200000003 0.0511504316
v 0.276448383 -0.00200000003 0.0510167789
v 0.278192043 -0.00200000003 0.0514147568
v 0.279740944 -0.00200000003 0.0523090124
v 0.280957432 -0.00200000003 0.0536200809
v 0.281733437 -0.00200000003 0.0552314711
v 0.282000008 -0.00699999988 0.0569999981
v 0.281733437 -0.00699999988 0.0552314711
v 0.280957432 -0.00699999988 0.0536200809
v 0.279740944 -0.00699999988 0.0523090124
v 0.278192043 -0.00699999988 0.0514147568
v 0.276448383 -0.00699999988 0.0510167789
v 0.274664879 -0.00699999988 0.0511504316
v 0.272999992 -0.00699999988 0.0518038464
v 0.271601696 -0.00699999988 0.0529189634
v 0.270594196 -0.00699999988 0.0543966961
v 0.270067024 -0.00699999988 0.0561057472
v 0.270067024 -0.00699999988 0.0578942537
v 0.270594196 -0.00699999988 0.0596033001
v 0.271601696 -0.00699999988 0.0610810375
v 0.272999992 -0.00699999988 0.0621961546
v 0.274664879 -0.00699999988 0.0628495693
v 0.276448383 -0.00699999988 0.062983222
v 0.278192043 -0.00699999988 0.0625852442
v 0.279740944 -0.00699999988 0.0616909885
v 0.280957432 -0.00699999988 0.06037992
v 0.281733437 -0.00699999988 0.0587685299
v 0.270067024 -0.00200000003 0.0561057472
v 0.270067024 -0.00699999988 0.0561057472
v 0.282000008 -0.00200000003 0.0569999981
v 0.281733437 -0.00200000003 0.0552314711
v 0.280957432 -0.00200000003 0.0536200809
v 0.279740944 -0.00200000003 0.0523090124
v 0.278192043 -0.00200000003 0.0514147568
v 0.276448383 -0.00200000003 0.0510167789
v 0.274664879 -0.00200000003 0.0511504316
v 0.272999992 -0.00200000003 0.0518038464
v 0.271601696 -0.00200000003 0.0529189634
v 0.270594196 -0.00200000003 0.0543966961
v 0.270067024 -0.00200000003 0.0561057472
v 0.270067024 -0.00200000003 0.0578942537
v 0.270594196 -0.00200000003 0.0596033001
v 0.271601696 -0.00200000003 0.0610810375
v 0.272999992 -0.00200000003 0.0621961546
v 0.274664879 -0.00200000003 0.0628495693
v 0.276448383 -0.00200000003 0.062983222
v 0.278192043 -0.00200000003 0.0625852442
v 0.279740944 -0.00200000003 0.0616909885
v 0.280957432 -0.00200000003 0.06037992
v 0.281733437 -0.00200000003 0.0587685299
v 0.282000008 -0.00699999988 0.0569999981
v 0.281733437 -0.00699999988 0.0587685299
v 0.280957432 -0.00699999988 0.06037992
v 0.279740944 -0.00699999988 0.0616909885
v 0.278192043 -0.00699999988 0.0625852442
v 0.276448383 -0.00699999988 0.062983222
v 0.274664879 -0.00699999988 0.0628495693
v 0.272999992 -0.00699999988 0.0621961546
v 0.271601696 -0.00699999988 0.0610810375
v 0.270594196 -0.00699999988 0.0596033001
v 0.270067024 -0.00699999988 0.0578942537
v 0.270067024 -0.00699999988 0.0561057472
v 0.270594196 -0.00699999988 0.0543966961
v 0.271601696 -0.00699999988 0.0529189634
v 0.272999992 -0.00699999988 0.0518038464
v 0.274664879 -0.00699999988 0.0511504316
v 0.276448383 -0.00699999988 0.0510167789
v 0.278192043 -0.00699999988 0.0514147568
v 0.279740944 -0.00699999988 0.0523090124
v 0.280957432 -0.00699999988 0.0536200809
v 0.281733437 -0.00699999988 0.0552314711
f 2 22 1
f 1 22 23
f 1 23 21
f 21 23 24
f 21 24 20
f 20 24 25
f 20 25 19
f 19 25 26
f 19 26 18
f 18 26 27
f 18 27 17
f 17 27 28
f 17 28 16
f 16 28 29
f 16 29 15
f 15 29 30
f 15 30 14
f 14 30 31
f 14 31 13
f 13 31 44
f 13 44 12
f 43 32 33
f 43 33 11
f 11 33 34
f 11 34 10
f 10 34 35
f 10 35 9
f 9 35 36
f 9 36 8
f 8 36 37
f 8 37 7
f 7 37 38
f 7 38 6
f 6 38 39
f 6 39 5
f 5 39 40
f 5 40 4
f 4 40 41
f 4 41 3
f 3 41 42
f 3 42 2
f 2 42 22
f 65 45 51
f 51 45 46
f 51 46 47
f 47 48 51
f 51 48 49
f 51 49 50
f 52 60 51
f 51 60 61
f 51 61 62
f 60 52 59
f 59 52 53
f 59 53 58
f 58 53 54
f 58 54 57
f 57 54 55
f 57 55 56
f 62 63 51
f 51 63 64
f 51 64 65
f 86 66 81
f 81 66 67
f 81 67 68
f 68 69 81
f 81 69 70
f 81 70 71
f 71 72 81
f 81 72 80
f 80 72 73
f 80 73 79
f 79 73 74
f 79 74 78
f 78 74 75
f 78 75 77
f 77 75 76
f 82 83 81
f 81 83 84
f 81 84 85
f 85 86 81
