v 0.170799999 0.17 0.393699989
v 0.175636883 0.176657391 0.393699989
v 0.183463116 0.174114494 0.393699989
v 0.183463116 0.165885506 0.393699989
v 0.175636883 0.163342609 0.393699989
v 0.170799999 0.17 0.444500008
v 0.175636883 0.163342609 0.444500008
v 0.183463116 0.165885506 0.444500008
v 0.183463116 0.174114494 0.444500008
v 0.175636883 0.176657391 0.444500008
v 0.170799999 0.17 0.444500008
v 0.170799999 0.17 0.393699989
v 0.330200005 0 0.139700003
v 0.330200005 0 0.393699989
v 0.330200005 0.253999996 0.393699989
v 0.330200005 0.253999996 0.139700003
v 0.355600014 0.289150009 0.0126999998
v 0.355600014 0 0.0126999998
v 0 0 0.0126999998
v 0 0.289150009 0.0126999998
v 0.0253999996 0 0.393699989
v 0.0253999996 0 0.139700003
v 0.0253999996 0.253999996 0.139700003
v 0.0253999996 0.253999996 0.393699989
v 0.330200005 0 0.139700003
v 0.0253999996 0 0.139700003
v 0.0253999996 0 0.393699989
v 0.330200005 0 0.393699989
v 0 0 0.444500008
v 0 0 0.0126999998
v 0.355600014 0 0.0126999998
v 0.355600014 0 0.444500008
v 0.103000002 0.17 0.393699989
v 0.107836885 0.176657391 0.393699989
v 0.115663118 0.174114494 0.393699989
v 0.115663118 0.165885506 0.393699989
v 0.107836885 0.163342609 0.393699989
v 0.103000002 0.17 0.444500008
v 0.107836885 0.163342609 0.444500008
v 0.115663118 0.165885506 0.444500008
v 0.115663118 0.174114494 0.444500008
v 0.107836885 0.176657391 0.444500008
v 0.103000002 0.17 0.444500008
v 0.103000002 0.17 0.393699989
v 0.355600014 0 0.444500008
v 0.355600014 0 0.0126999998
v 0.355600014 0.289150009 0.0126999998
v 0.355600014 0.289150009 0.444500008
v 0.238600006 0.17 0.393699989
v 0.24343689 0.163342609 0.393699989
v 0.251263123 0.165885506 0.393699989
v 0.251263123 0.174114494 0.393699989
v 0.24343689 0.176657391 0.393699989
v 0.170799999 0.17 0.393699989
v 0.175636883 0.163342609 0.393699989
v 0.183463116 0.165885506 0.393699989
v 0.183463116 0.174114494 0.393699989
v 0.175636883 0.176657391 0.393699989
v 0.103000002 0.17 0.393699989
v 0.107836885 0.163342609 0.393699989
v 0.115663118 0.165885506 0.393699989
v 0.115663118 0.174114494 0.393699989
v 0.107836885 0.176657391 0.393699989
v 0.330200005 0 0.393699989
v 0.0253999996 0 0.393699989
v 0.0253999996 0.253999996 0.393699989
v 0.330200005 0.253999996 0.393699989
v 0.238600006 0.17 0.444500008
v 0.24343689 0.176657391 0.444500008
v 0.251263123 0.174114494 0.444500008
v 0.251263123 0.165885506 0.444500008
v 0.24343689 0.163342609 0.444500008
v 0.170799999 0.17 0.444500008
v 0.175636883 0.176657391 0.444500008
v 0.183463116 0.174114494 0.444500008
v 0.183463116 0.165885506 0.444500008
v 0.175636883 0.163342609 0.444500008
v 0.103000002 0.17 0.444500008
v 0.107836885 0.176657391 0.444500008
v 0.115663118 0.174114494 0.444500008
v 0.115663118 0.165885506 0.444500008
v 0.107836885 0.163342609 0.444500008
v 0.355600014 0 0.444500008
v 0.355600014 0.289150009 0.444500008
v 0 0.289150009 0.444500008
v 0 0 0.444500008
v 0.0253999996 0 0.139700003
v 0.330200005 0 0.139700003
v 0.330200005 0.253999996 0.139700003
v 0.0253999996 0.253999996 0.139700003
v 0 0.289150009 0.444500008
v 0 0.289150009 0.0126999998
v 0 0 0.0126999998
v 0 0 0.444500008
v 0.355600014 0.289150009 0.444500008
v 0.355600014 0.289150009 0.0126999998
v 0 0.289150009 0.0126999998
v 0 0.289150009 0.444500008
v 0.330200005 0.253999996 0.139700003
v 0.330200005 0.253999996 0.393699989
v 0.0253999996 0.253999996 0.393699989
v 0.0253999996 0.253999996 0.139700003
v 0.238600006 0.17 0.393699989
v 0.24343689 0.176657391 0.393699989
v 0.251263123 0.174114494 0.393699989
v 0.251263123 0.165885506 0.393699989
v 0.24343689 0.163342609 0.393699989
v 0.238600006 0.17 0.444500008
v 0.24343689 0.163342609 0.444500008
v 0.251263123 0.165885506 0.444500008
v 0.251263123 0.174114494 0.444500008
v 0.24343689 0.176657391 0.444500008
v 0.238600006 0.17 0.444500008
v 0.238600006 0.17 0.393699989
f 2 10 1
f 1 10 11
f 12 6 5
f 5 6 7
f 5 7 8
f 2 3 10
f 10 3 9
f 9 3 4
f 9 4 8
f 8 4 5
f 13 14 16
f 16 14 15
f 18 19 17
f 17 19 20
f 21 22 24
f 24 22 23
f 26 30 25
f 25 30 31
f 25 31 32
f 30 26 29
f 29 26 27
f 29 27 28
f 29 28 32
f 32 28 25
f 34 42 33
f 33 42 43
f 44 38 37
f 37 38 39
f 37 39 40
f 34 35 42
f 42 35 41
f 41 35 36
f 41 36 40
f 40 36 37
f 45 46 48
f 48 46 47
f 50 56 49
f 49 56 57
f 49 57 53
f 53 57 58
f 53 58 67
f 67 58 66
f 66 58 63
f 66 63 59
f 51 64 50
f 50 64 55
f 50 55 56
f 64 51 67
f 67 51 52
f 67 52 53
f 55 61 54
f 54 61 62
f 54 62 58
f 58 62 63
f 66 59 65
f 65 59 60
f 65 60 55
f 55 60 61
f 64 65 55
f 69 75 68
f 68 75 76
f 68 76 72
f 72 76 77
f 72 77 83
f 83 77 86
f 86 77 82
f 86 82 78
f 70 84 69
f 69 84 74
f 69 74 75
f 70 71 84
f 84 71 83
f 83 71 72
f 74 80 73
f 73 80 81
f 73 81 77
f 77 81 82
f 86 78 85
f 85 78 79
f 85 79 74
f 74 79 80
f 84 85 74
f 87 88 90
f 90 88 89
f 91 92 94
f 94 92 93
f 95 96 98
f 98 96 97
f 99 100 102
f 102 100 101
f 104 112 103
f 103 112 113
f 114 108 107
f 107 108 109
f 107 109 110
f 104 105 112
f 112 105 111
f 111 105 106
f 111 106 110
f 110 106 107
v 0.362295218 -0.0149743546 0.440499992
v 0.342599063 -0.0184473182 0.440499992
v 0.402959169 -0.360766492 0.440499992
v 0.422655325 -0.357293528 0.440499992
v 0.342599063 -0.0184473182 0.11
v 0.362295218 -0.0149743546 0.11
v 0.422655325 -0.357293528 0.11
v 0.402959169 -0.360766492 0.11
v 0.342599063 -0.0184473182 0.440499992
v 0.342599063 -0.0184473182 0.11
v 0.402959169 -0.360766492 0.11
v 0.402959169 -0.360766492 0.440499992
v 0.362295218 -0.0149743546 0.440499992
v 0.362295218 -0.0149743546 0.11
v 0.342599063 -0.0184473182 0.11
v 0.342599063 -0.0184473182 0.440499992
v 0.402959169 -0.360766492 0.440499992
v 0.402959169 -0.360766492 0.11
v 0.422655325 -0.357293528 0.11
v 0.422655325 -0.357293528 0.440499992
v 0.422655325 -0.357293528 0.440499992
v 0.422655325 -0.357293528 0.11
v 0.362295218 -0.0149743546 0.11
v 0.362295218 -0.0149743546 0.440499992
f 116 117 115
f 115 117 118
f 120 121 119
f 119 121 122
f 123 124 126
f 126 124 125
f 127 128 130
f 130 128 129
f 131 132 134
f 134 132 133
f 135 136 138
f 138 136 137
