v 0.201800003 -0.00300000012 0.0569999981
v 0.200827827 -0.00300000012 0.0637615824
v 0.197990093 -0.00300000012 0.0699753809
v 0.193516655 -0.00300000012 0.0751379919
v 0.187769966 -0.00300000012 0.0788311672
v 0.181215553 -0.00300000012 0.0807557106
v 0.174384441 -0.00300000012 0.0807557106
v 0.167830048 -0.00300000012 0.0788311672
v 0.16208334 -0.00300000012 0.0751379919
v 0.157609911 -0.00300000012 0.0699753809
v 0.154772167 -0.00300000012 0.0637615824
v 0.153800001 -0.00300000012 0.0569999981
v 0.154772167 -0.00300000012 0.0502384186
v 0.157609911 -0.00300000012 0.0440246201
v 0.16208334 -0.00300000012 0.038862009
v 0.167830048 -0.00300000012 0.0351688313
v 0.174384441 -0.00300000012 0.0332442856
v 0.181215553 -0.00300000012 0.0332442856
v 0.187769966 -0.00300000012 0.0351688313
v 0.193516655 -0.00300000012 0.038862009
v 0.197990093 -0.00300000012 0.0440246201
v 0.200827827 -0.00300000012 0.0502384186
v 0.201800003 -0.0129999995 0.0569999981
v 0.200827827 -0.0129999995 0.0502384186
v 0.197990093 -0.0129999995 0.0440246201
v 0.193516655 -0.0129999995 0.038862009
v 0.187769966 -0.0129999995 0.0351688313
v 0.181215553 -0.0129999995 0.0332442856
v 0.174384441 -0.0129999995 0.0332442856
v 0.167830048 -0.0129999995 0.0351688313
v 0.16208334 -0.0129999995 0.038862009
v 0.157609911 -0.0129999995 0.0440246201
v 0.154772167 -0.0129999995 0.0502384186
v 0.153800001 -0.0129999995 0.0569999981
v 0.154772167 -0.0129999995 0.0637615824
v 0.157609911 -0.0129999995 0.0699753809
v 0.16208334 -0.0129999995 0.0751379919
v 0.167830048 -0.0129999995 0.0788311672
v 0.174384441 -0.0129999995 0.0807557106
v 0.181215553 -0.0129999995 0.0807557106
v 0.187769966 -0.0129999995 0.0788311672
v 0.193516655 -0.0129999995 0.0751379919
v 0.197990093 -0.0129999995 0.0699753809
v 0.200827827 -0.0129999995 0.0637615824
v 0.153800001 -0.00300000012 0.0569999981
v 0.153800001 -0.0129999995 0.0569999981
v 0.201800003 -0.00300000012 0.0569999981
v 0.200827827 -0.00300000012 0.0502384186
v 0.197990093 -0.00300000012 0.0440246201
v 0.193516655 -0.00300000012 0.038862009
v 0.187769966 -0.00300000012 0.0351688313
v 0.181215553 -0.00300000012 0.0332442856
v 0.174384441 -0.00300000012 0.0332442856
v 0.167830048 -0.00300000012 0.0351688313
v 0.16208334 -0.00300000012 0.038862009
v 0.157609911 -0.00300000012 0.0440246201
v 0.154772167 -0.00300000012 0.0502384186
v 0.153800001 -0.00300000012 0.0569999981
v 0.154772167 -0.00300000012 0.0637615824
v 0.157609911 -0.00300000012 0.0699753809
v 0.16208334 -0.00300000012 0.0751379919
v 0.167830048 -0.00300000012 0.0788311672
v 0.174384441 -0.00300000012 0.0807557106
v 0.181215553 -0.00300000012 0.0807557106
v 0.187769966 -0.00300000012 0.0788311672
v 0.193516655 -0.00300000012 0.0751379919
v 0.197990093 -0.00300000012 0.0699753809
v 0.200827827 -0.00300000012 0.0637615824
v 0.201800003 -0.0129999995 0.0569999981
v 0.200827827 -0.0129999995 0.0637615824
v 0.197990093 -0.0129999995 0.0699753809
v 0.193516655 -0.0129999995 0.0751379919
v 0.187769966 -0.0129999995 0.0788311672
v 0.181215553 -0.0129999995 0.0807557106
v 0.174384441 -0.0129999995 0.0807557106
v 0.167830048 -0.0129999995 0.0788311672
v 0.16208334 -0.0129999995 0.0751379919
v 0.157609911 -0.0129999995 0.0699753809
v 0.154772167 -0.0129999995 0.0637615824
v 0.153800001 -0.0129999995 0.0569999981
v 0.154772167 -0.0129999995 0.0502384186
v 0.157609911 -0.0129999995 0.0440246201
v 0.16208334 -0.0129999995 0.038862009
v 0.167830048 -0.0129999995 0.0351688313
v 0.174384441 -0.0129999995 0.0332442856
v 0.181215553 -0.0129999995 0.0332442856
v 0.187769966 -0.0129999995 0.0351688313
v 0.193516655 -0.0129999995 0.038862009
v 0.197990093 -0.0129999995 0.0440246201
v 0.200827827 -0.0129999995 0.0502384186
f 2 23 1
f 1 23 24
f 1 24 22
f 22 24 25
f 22 25 21
f 21 25 26
f 21 26 20
f 20 26 27
f 20 27 19
f 19 27 28
f 19 28 18
f 18 28 29
f 18 29 17
f 17 29 30
f 17 30 16
f 16 30 31
f 16 31 15
f 15 31 32
f 15 32 14
f 14 32 33
f 14 33 13
f 13 33 12
f 12 33 46
f 45 34 11
f 11 34 35
f 11 35 36
f 23 2 44
f 44 2 3
f 44 3 43
f 43 3 4
f 43 4 42
f 42 4 5
f 42 5 41
f 41 5 6
f 41 6 40
f 40 6 7
f 40 7 39
f 39 7 8
f 39 8 38
f 38 8 9
f 38 9 37
f 37 9 10
f 37 10 36
f 36 10 11
f 48 57 47
f 47 57 58
f 47 58 68
f 68 58 59
f 68 59 67
f 67 59 60
f 67 60 66
f 66 60 61
f 66 61 65
f 65 61 62
f 65 62 64
f 64 62 63
f 57 48 56
f 56 48 49
f 56 49 55
f 55 49 50
f 55 50 54
f 54 50 51
f 54 51 53
f 53 51 52
f 70 79 69
f 69 79 80
f 69 80 90
f 90 80 81
f 90 81 89
f 89 81 82
f 89 82 88
f 88 82 83
f 88 83 87
f 87 83 84
f 87 84 86
f 86 84 85
f 79 70 78
f 78 70 71
f 78 71 77
f 77 71 72
f 77 72 76
f 76 72 73
f 76 73 75
f 75 73 74
v 0.178799992 -0.0277999997 0.070999999
v 0.178799992 -0.0270000005 0.070999999
v 0.176800003 -0.0270000005 0.070999999
v 0.176800003 -0.0277999997 0.070999999
v 0.178799992 -0.0270000005 0.070999999
v 0.178799992 -0.0270000005 0.060999999
v 0.176800003 -0.0270000005 0.060999999
v 0.176800003 -0.0270000005 0.070999999
v 0.178799992 -0.0270000005 0.060999999
v 0.178799992 -0.0277999997 0.060999999
v 0.176800003 -0.0277999997 0.060999999
v 0.176800003 -0.0270000005 0.060999999
v 0.176800003 -0.0270000005 0.070999999
v 0.176800003 -0.0270000005 0.060999999
v 0.176800003 -0.0277999997 0.060999999
v 0.176800003 -0.0277999997 0.070999999
v 0.176800003 -0.0277999997 0.070999999
v 0.176800003 -0.0277999997 0.060999999
v 0.178799992 -0.0277999997 0.060999999
v 0.178799992 -0.0277999997 0.070999999
v 0.178799992 -0.0277999997 0.070999999
v 0.178799992 -0.0277999997 0.060999999
v 0.178799992 -0.0270000005 0.060999999
v 0.178799992 -0.0270000005 0.070999999
f 92 93 91
f 91 93 94
f 95 96 98
f 98 96 97
f 100 101 99
f 99 101 102
f 103 104 106
f 106 104 105
f 107 108 110
f 110 108 109
f 111 112 114
f 114 112 113
v 0.0910000038 -0.00400000006 0.070999999
v 0.0910000038 0.00300000012 0.070999999
v 0.0719999981 0.00300000012 0.070999999
v 0.0719999981 -0.00400000006 0.070999999
v 0.0719999981 -0.00400000006 0.070999999
v 0.0719999981 -0.00400000006 0.0430000019
v 0.0910000038 -0.00400000006 0.0430000019
v 0.0910000038 -0.00400000006 0.070999999
v 0.0910000038 0.00300000012 0.0430000019
v 0.0910000038 -0.00400000006 0.0430000019
v 0.0719999981 -0.00400000006 0.0430000019
v 0.0719999981 0.00300000012 0.0430000019
v 0.0719999981 0.00300000012 0.070999999
v 0.0719999981 0.00300000012 0.0430000019
v 0.0719999981 -0.00400000006 0.0430000019
v 0.0719999981 -0.00400000006 0.070999999
v 0.0910000038 -0.00400000006 0.070999999
v 0.0910000038 -0.00400000006 0.0430000019
v 0.0910000038 0.00300000012 0.0430000019
v 0.0910000038 0.00300000012 0.070999999
v 0.0910000038 0.00300000012 0.070999999
v 0.0910000038 0.00300000012 0.0430000019
v 0.0719999981 0.00300000012 0.0430000019
v 0.0719999981 0.00300000012 0.070999999
f 116 117 115
f 115 117 118
f 119 120 122
f 122 120 121
f 124 125 123
f 123 125 126
f 127 128 130
f 130 128 129
f 131 132 134
f 134 132 133
f 135 136 138
f 138 136 137
v 0.0333999991 0.00800000012 0.148000002
v 0.0333999991 0.247999992 0.148000002
v 0.0253999996 0.247999992 0.148000002
v 0.0253999996 0.00800000012 0.148000002
v 0.0253999996 0.247999992 0.148000002
v 0.0253999996 0.247999992 0.145
v 0.0253999996 0.00800000012 0.145
v 0.0253999996 0.00800000012 0.148000002
v 0.0333999991 0.247999992 0.148000002
v 0.0333999991 0.247999992 0.145
v 0.0253999996 0.247999992 0.145
v 0.0253999996 0.247999992 0.148000002
v 0.0333999991 0.247999992 0.145
v 0.0333999991 0.00800000012 0.145
v 0.0253999996 0.00800000012 0.145
v 0.0253999996 0.247999992 0.145
v 0.0253999996 0.00800000012 0.148000002
v 0.0253999996 0.00800000012 0.145
v 0.0333999991 0.00800000012 0.145
v 0.0333999991 0.00800000012 0.148000002
v 0.0333999991 0.00800000012 0.148000002
v 0.0333999991 0.00800000012 0.145
v 0.0333999991 0.247999992 0.145
v 0.0333999991 0.247999992 0.148000002
f 140 141 139
f 139 141 142
f 143 144 146
f 146 144 145
f 147 148 150
f 150 148 149
f 152 153 151
f 151 153 154
f 155 156 158
f 158 156 157
f 159 160 162
f 162 160 161
v 0.330200005 0.00800000012 0.148000002
v 0.330200005 0.247999992 0.148000002
v 0.322200012 0.247999992 0.148000002
v 0.322200012 0.00800000012 0.148000002
v 0.322200012 0.00800000012 0.148000002
v 0.322200012 0.00800000012 0.145
v 0.330200005 0.00800000012 0.145
v 0.330200005 0.00800000012 0.148000002
v 0.322200012 0.247999992 0.148000002
v 0.322200012 0.247999992 0.145
v 0.322200012 0.00800000012 0.145
v 0.322200012 0.00800000012 0.148000002
v 0.330200005 0.247999992 0.145
v 0.330200005 0.00800000012 0.145
v 0.322200012 0.00800000012 0.145
v 0.322200012 0.247999992 0.145
v 0.330200005 0.247999992 0.148000002
v 0.330200005 0.247999992 0.145
v 0.322200012 0.247999992 0.145
v 0.322200012 0.247999992 0.148000002
v 0.330200005 0.00800000012 0.148000002
v 0.330200005 0.00800000012 0.145
v 0.330200005 0.247999992 0.145
v 0.330200005 0.247999992 0.148000002
f 164 165 163
f 163 165 166
f 167 168 170
f 170 168 169
f 171 172 174
f 174 172 173
f 176 177 175
f 175 177 178
f 179 180 182
f 182 180 181
f 183 184 186
f 186 184 185
v 0.355600014 -0.00699999988 0.21
v 0.355600014 0.00300000012 0.21
v 0.342000008 0.00300000012 0.21
v 0.342000008 -0.00699999988 0.21
v 0.355600014 -0.00699999988 0.21
v 0.355600014 -0.00699999988 0.165
v 0.355600014 0.00300000012 0.165
v 0.355600014 0.00300000012 0.21
v 0.342000008 -0.00699999988 0.21
v 0.342000008 -0.00699999988 0.165
v 0.355600014 -0.00699999988 0.165
v 0.355600014 -0.00699999988 0.21
v 0.342000008 0.00300000012 0.21
v 0.342000008 0.00300000012 0.165
v 0.342000008 -0.00699999988 0.165
v 0.342000008 -0.00699999988 0.21
v 0.355600014 0.00300000012 0.165
v 0.355600014 -0.00699999988 0.165
v 0.342000008 -0.00699999988 0.165
v 0.342000008 0.00300000012 0.165
v 0.355600014 0.00300000012 0.21
v 0.355600014 0.00300000012 0.165
v 0.342000008 0.00300000012 0.165
v 0.342000008 0.00300000012 0.21
f 188 189 187
f 187 189 190
f 191 192 194
f 194 192 193
f 195 196 198
f 198 196 197
f 199 200 202
f 202 200 201
f 204 205 203
f 203 205 206
f 207 208 210
f 210 208 209
v 0.355600014 -0.00699999988 0.402000008
v 0.355600014 0.00300000012 0.402000008
v 0.342000008 0.00300000012 0.402000008
v 0.342000008 -0.00699999988 0.402000008
v 0.355600014 0.00300000012 0.357000008
v 0.355600014 -0.00699999988 0.357000008
v 0.342000008 -0.00699999988 0.357000008
v 0.342000008 0.00300000012 0.357000008
v 0.355600014 -0.00699999988 0.402000008
v 0.355600014 -0.00699999988 0.357000008
v 0.355600014 0.00300000012 0.357000008
v 0.355600014 0.00300000012 0.402000008
v 0.355600014 0.00300000012 0.402000008
v 0.355600014 0.00300000012 0.357000008
v 0.342000008 0.00300000012 0.357000008
v 0.342000008 0.00300000012 0.402000008
v 0.342000008 0.00300000012 0.402000008
v 0.342000008 0.00300000012 0.357000008
v 0.342000008 -0.00699999988 0.357000008
v 0.342000008 -0.00699999988 0.402000008
v 0.342000008 -0.00699999988 0.402000008
v 0.342000008 -0.00699999988 0.357000008
v 0.355600014 -0.00699999988 0.357000008
v 0.355600014 -0.00699999988 0.402000008
f 212 213 211
f 211 213 214
f 216 217 215
f 215 217 218
f 219 220 222
f 222 220 221
f 223 224 226
f 226 224 225
f 227 228 230
f 230 228 229
f 231 232 234
f 234 232 233
v 0.346488785 -0.0405070284 0.392700005
v 0.345011573 -0.0407675007 0.392700005
v 0.397592238 -0.338967269 0.392700005
v 0.39906945 -0.338706797 0.392700005
v 0.397592238 -0.338967269 0.392700005
v 0.397592238 -0.338967269 0.140699997
v 0.39906945 -0.338706797 0.140699997
v 0.39906945 -0.338706797 0.392700005
v 0.345011573 -0.0407675007 0.392700005
v 0.345011573 -0.0407675007 0.140699997
v 0.397592238 -0.338967269 0.140699997
v 0.397592238 -0.338967269 0.392700005
v 0.346488785 -0.0405070284 0.392700005
v 0.346488785 -0.0405070284 0.140699997
v 0.345011573 -0.0407675007 0.140699997
v 0.345011573 -0.0407675007 0.392700005
v 0.39906945 -0.338706797 0.392700005
v 0.39906945 -0.338706797 0.140699997
v 0.346488785 -0.0405070284 0.140699997
v 0.346488785 -0.0405070284 0.392700005
v 0.345011573 -0.0407675007 0.140699997
v 0.346488785 -0.0405070284 0.140699997
v 0.39906945 -0.338706797 0.140699997
v 0.397592238 -0.338967269 0.140699997
f 236 237 235
f 235 237 238
f 239 240 242
f 242 240 241
f 243 244 246
f 246 244 245
f 247 248 250
f 250 248 249
f 251 252 254
f 254 252 253
f 256 257 255
f 255 257 258
v 0.362863267 -0.0124371515 0.196499996
v 0.362863267 -0.0124371515 0.178500004
v 0.353999997 -0.013999985 0.178500004
v 0.353999997 -0.013999985 0.196499996
v 0.353999997 -0.013999985 0.178500004
v 0.362863267 -0.0124371515 0.178500004
v 0.366509882 -0.0331181368 0.178500004
v 0.357646613 -0.0346809704 0.178500004
v 0.357646613 -0.0346809704 0.196499996
v 0.357646613 -0.0346809704 0.178500004
v 0.366509882 -0.0331181368 0.178500004
v 0.366509882 -0.0331181368 0.196499996
v 0.362863267 -0.0124371515 0.196499996
v 0.353999997 -0.013999985 0.196499996
v 0.357646613 -0.0346809704 0.196499996
v 0.366509882 -0.0331181368 0.196499996
v 0.353999997 -0.013999985 0.196499996
v 0.353999997 -0.013999985 0.178500004
v 0.357646613 -0.0346809704 0.178500004
v 0.357646613 -0.0346809704 0.196499996
v 0.366509882 -0.0331181368 0.196499996
v 0.366509882 -0.0331181368 0.178500004
v 0.362863267 -0.0124371515 0.178500004
v 0.362863267 -0.0124371515 0.196499996
f 259 260 262
f 262 260 261
f 264 265 263
f 263 265 266
f 267 268 270
f 270 268 269
f 272 273 271
f 271 273 274
f 275 276 278
f 278 276 277
f 279 280 282
f 282 280 281
v 0.366509882 -0.0331181368 0.388499985
v 0.366509882 -0.0331181368 0.370499992
v 0.362863267 -0.0124371515 0.370499992
v 0.362863267 -0.0124371515 0.388499985
v 0.353999997 -0.013999985 0.388499985
v 0.353999997 -0.013999985 0.370499992
v 0.357646613 -0.0346809704 0.370499992
v 0.357646613 -0.0346809704 0.388499985
v 0.357646613 -0.0346809704 0.388499985
v 0.357646613 -0.0346809704 0.370499992
v 0.366509882 -0.0331181368 0.370499992
v 0.366509882 -0.0331181368 0.388499985
v 0.362863267 -0.0124371515 0.388499985
v 0.362863267 -0.0124371515 0.370499992
v 0.353999997 -0.013999985 0.370499992
v 0.353999997 -0.013999985 0.388499985
v 0.353999997 -0.013999985 0.370499992
v 0.362863267 -0.0124371515 0.370499992
v 0.366509882 -0.0331181368 0.370499992
v 0.357646613 -0.0346809704 0.370499992
v 0.362863267 -0.0124371515 0.388499985
v 0.353999997 -0.013999985 0.388499985
v 0.357646613 -0.0346809704 0.388499985
v 0.366509882 -0.0331181368 0.388499985
f 283 284 286
f 286 284 285
f 287 288 290
f 290 288 289
f 291 292 294
f 294 292 293
f 295 296 298
f 298 296 297
f 300 301 299
f 299 301 302
f 304 305 303
f 303 305 306
