v -0.141499996 -0.351500015 0.068499999
v -0.1325 -0.351500015 0.068499999
v -0.1325 -0.354500008 0.068499999
v -0.141499996 -0.354500008 0.068499999
v -0.141499996 -0.354500008 0.0775
v -0.141499996 -0.354500008 0.068499999
v -0.1325 -0.354500008 0.068499999
v -0.1325 -0.354500008 0.0775
v -0.1325 -0.351500015 0.068499999
v -0.1325 -0.351500015 0.0775
v -0.1325 -0.354500008 0.0775
v -0.1325 -0.354500008 0.068499999
v -0.141499996 -0.351500015 0.0775
v -0.141499996 -0.351500015 0.068499999
v -0.141499996 -0.354500008 0.068499999
v -0.141499996 -0.354500008 0.0775
v -0.141499996 -0.351500015 0.068499999
v -0.141499996 -0.351500015 0.0775
v -0.1325 -0.351500015 0.0775
v -0.1325 -0.351500015 0.068499999
v -0.1325 -0.351500015 0.0775
v -0.141499996 -0.351500015 0.0775
v -0.141499996 -0.354500008 0.0775
v -0.1325 -0.354500008 0.0775
f 1 2 4
f 4 2 3
f 6 7 5
f 5 7 8
f 9 10 12
f 12 10 11
f 13 14 16
f 16 14 15
f 18 19 17
f 17 19 20
f 21 22 24
f 24 22 23
v -0.0894999981 -0.351500015 0.0775
v -0.0985000038 -0.351500015 0.0775
v -0.0985000038 -0.354500008 0.0775
v -0.0894999981 -0.354500008 0.0775
v -0.0985000038 -0.354500008 0.0775
v -0.0985000038 -0.354500008 0.068499999
v -0.0894999981 -0.354500008 0.068499999
v -0.0894999981 -0.354500008 0.0775
v -0.0985000038 -0.351500015 0.068499999
v -0.0985000038 -0.351500015 0.0775
v -0.0894999981 -0.351500015 0.0775
v -0.0894999981 -0.351500015 0.068499999
v -0.0985000038 -0.351500015 0.068499999
v -0.0894999981 -0.351500015 0.068499999
v -0.0894999981 -0.354500008 0.068499999
v -0.0985000038 -0.354500008 0.068499999
v -0.0894999981 -0.351500015 0.068499999
v -0.0894999981 -0.351500015 0.0775
v -0.0894999981 -0.354500008 0.0775
v -0.0894999981 -0.354500008 0.068499999
v -0.0985000038 -0.351500015 0.0775
v -0.0985000038 -0.351500015 0.068499999
v -0.0985000038 -0.354500008 0.068499999
v -0.0985000038 -0.354500008 0.0775
f 25 26 28
f 28 26 27
f 30 31 29
f 29 31 32
f 34 35 33
f 33 35 36
f 37 38 40
f 40 38 39
f 41 42 44
f 44 42 43
f 45 46 48
f 48 46 47
