v 0.0619999981 -0.345999985 0.685999985
v -0.311000004 -0.345999985 0.685999985
v -0.311000004 -0.354000015 0.685999985
v 0.0619999981 -0.354000015 0.685999985
v 0.0619999981 -0.345999985 0.507000008
v 0.0619999981 -0.345999985 0.685999985
v 0.0619999981 -0.354000015 0.685999985
v 0.0619999981 -0.354000015 0.507000008
v -0.311000004 -0.354000015 0.685999985
v -0.311000004 -0.354000015 0.118999996
v 0.0619999981 -0.354000015 0.118999996
v 0.0619999981 -0.354000015 0.332999992
v 0.03 -0.354000015 0.365
v 0.03 -0.354000015 0.475
v 0.0619999981 -0.354000015 0.507000008
v 0.0619999981 -0.354000015 0.685999985
v -0.311000004 -0.345999985 0.685999985
v -0.311000004 -0.345999985 0.118999996
v -0.311000004 -0.354000015 0.118999996
v -0.311000004 -0.354000015 0.685999985
v -0.311000004 -0.345999985 0.118999996
v 0.0619999981 -0.345999985 0.118999996
v 0.0619999981 -0.354000015 0.118999996
v -0.311000004 -0.354000015 0.118999996
v -0.311000004 -0.345999985 0.118999996
v -0.311000004 -0.345999985 0.685999985
v 0.0619999981 -0.345999985 0.685999985
v 0.0619999981 -0.345999985 0.507000008
v 0.03 -0.345999985 0.475
v 0.03 -0.345999985 0.365
v 0.0619999981 -0.345999985 0.332999992
v 0.0619999981 -0.345999985 0.118999996
v 0.0619999981 -0.345999985 0.118999996
v 0.0619999981 -0.345999985 0.332999992
v 0.0619999981 -0.354000015 0.332999992
v 0.0619999981 -0.354000015 0.118999996
v 0.0619999981 -0.345999985 0.332999992
v 0.03 -0.345999985 0.365
v 0.03 -0.354000015 0.365
v 0.0619999981 -0.354000015 0.332999992
v 0.03 -0.345999985 0.365
v 0.03 -0.345999985 0.475
v 0.03 -0.354000015 0.475
v 0.03 -0.354000015 0.365
v 0.03 -0.345999985 0.475
v 0.0619999981 -0.345999985 0.507000008
v 0.0619999981 -0.354000015 0.507000008
v 0.03 -0.354000015 0.475
f 1 2 4
f 4 2 3
f 5 6 8
f 8 6 7
f 10 13 9
f 9 13 14
f 9 14 16
f 16 14 15
f 10 11 13
f 13 11 12
f 17 18 20
f 20 18 19
f 21 22 24
f 24 22 23
f 32 25 30
f 30 25 26
f 30 26 29
f 29 26 27
f 29 27 28
f 30 31 32
f 33 34 36
f 36 34 35
f 37 38 40
f 40 38 39
f 41 42 44
f 44 42 43
f 45 46 48
f 48 46 47
v 0.790999985 0.00800000012 0.0139999998
v 0.790999985 0.00800000012 0.17
v 0.790999985 -0.0320000005 0.17
v 0.790999985 -0.0320000005 0.0139999998
v 0.749000015 0.00800000012 0.0139999998
v 0.749000015 0.00800000012 0.17
v 0.790999985 0.00800000012 0.17
v 0.790999985 0.00800000012 0.0139999998
v 0.749000015 0.00800000012 0.17
v 0.749000015 0.00800000012 0.0139999998
v 0.749000015 -0.0320000005 0.0139999998
v 0.749000015 -0.0320000005 0.17
v 0.790999985 0.00800000012 0.17
v 0.749000015 0.00800000012 0.17
v 0.749000015 -0.0320000005 0.17
v 0.790999985 -0.0320000005 0.17
v 0.749000015 -0.0320000005 0.17
v 0.749000015 -0.0320000005 0.0139999998
v 0.790999985 -0.0320000005 0.0139999998
v 0.790999985 -0.0320000005 0.17
v 0.749000015 0.00800000012 0.0139999998
v 0.790999985 0.00800000012 0.0139999998
v 0.790999985 -0.0320000005 0.0139999998
v 0.749000015 -0.0320000005 0.0139999998
f 49 50 52
f 52 50 51
f 54 55 53
f 53 55 56
f 57 58 60
f 60 58 59
f 61 62 64
f 64 62 63
f 66 67 65
f 65 67 68
f 69 70 72
f 72 70 71
v 0.291499996 -0.345999985 0.464000015
v 0.276499996 -0.345999985 0.464000015
v 0.276499996 -0.357999992 0.464000015
v 0.291499996 -0.357999992 0.464000015
v 0.276499996 -0.357999992 0.464000015
v 0.276499996 -0.357999992 0.335999985
v 0.291499996 -0.357999992 0.335999985
v 0.291499996 -0.357999992 0.464000015
v 0.276499996 -0.345999985 0.335999985
v 0.276499996 -0.345999985 0.464000015
v 0.291499996 -0.345999985 0.464000015
v 0.291499996 -0.345999985 0.335999985
v 0.276499996 -0.345999985 0.335999985
v 0.291499996 -0.345999985 0.335999985
v 0.291499996 -0.357999992 0.335999985
v 0.276499996 -0.357999992 0.335999985
v 0.291499996 -0.345999985 0.335999985
v 0.291499996 -0.345999985 0.464000015
v 0.291499996 -0.357999992 0.464000015
v 0.291499996 -0.357999992 0.335999985
v 0.276499996 -0.345999985 0.464000015
v 0.276499996 -0.345999985 0.335999985
v 0.276499996 -0.357999992 0.335999985
v 0.276499996 -0.357999992 0.464000015
f 73 74 76
f 76 74 75
f 78 79 77
f 77 79 80
f 82 83 81
f 81 83 84
f 85 86 88
f 88 86 87
f 89 90 92
f 92 90 91
f 93 94 96
f 96 94 95
