v 0.325 0.325 0.0139999998
v 0.325 0.325 0.0419999981
v 0.325 -0.325 0.0419999981
v 0.325 -0.325 0.0139999998
v -0.325 0.325 0.0419999981
v -0.325 0.325 0.0139999998
v -0.325 -0.325 0.0139999998
v -0.325 -0.325 0.0419999981
v -0.325 -0.325 0.0419999981
v -0.325 -0.325 0.0139999998
v 0.325 -0.325 0.0139999998
v 0.325 -0.325 0.0419999981
v -0.325 0.325 0.0139999998
v -0.325 0.325 0.0419999981
v 0.325 0.325 0.0419999981
v 0.325 0.325 0.0139999998
v 0.325 0.325 0.0419999981
v -0.325 0.325 0.0419999981
v -0.325 -0.325 0.0419999981
v 0.325 -0.325 0.0419999981
v -0.325 0.325 0.0139999998
v 0.325 0.325 0.0139999998
v 0.325 -0.325 0.0139999998
v -0.325 -0.325 0.0139999998
f 1 2 4
f 4 2 3
f 5 6 8
f 8 6 7
f 10 11 9
f 9 11 12
f 14 15 13
f 13 15 16
f 17 18 20
f 20 18 19
f 21 22 24
f 24 22 23
v -0.325 -0.325 0.0139999998
v -0.325 -0.325 0.0419999981
v 0.325 -0.325 0.0419999981
v 0.325 -0.325 0.0139999998
v 0.325 -0.325 0.0419999981
v -0.325 -0.325 0.0419999981
v -0.325 -0.352999992 0.0419999981
v 0.325 -0.352999992 0.0419999981
v -0.325 -0.352999992 0.0419999981
v -0.325 -0.352999992 0.0139999998
v 0.325 -0.352999992 0.0139999998
v 0.325 -0.352999992 0.0419999981
v -0.325 -0.325 0.0139999998
v 0.325 -0.325 0.0139999998
v 0.325 -0.352999992 0.0139999998
v -0.325 -0.352999992 0.0139999998
v -0.325 -0.325 0.0419999981
v -0.325 -0.325 0.0139999998
v -0.325 -0.352999992 0.0139999998
v -0.325 -0.352999992 0.0419999981
v 0.325 -0.325 0.0139999998
v 0.325 -0.325 0.0419999981
v 0.325 -0.352999992 0.0419999981
v 0.325 -0.352999992 0.0139999998
f 26 27 25
f 25 27 28
f 29 30 32
f 32 30 31
f 34 35 33
f 33 35 36
f 37 38 40
f 40 38 39
f 41 42 44
f 44 42 43
f 45 46 48
f 48 46 47
v -0.311000004 0.311000004 0.0839999962
v -0.311000004 0.311000004 0.685999985
v -0.311000004 -0.325 0.685999985
v -0.311000004 -0.325 0.0839999962
v -0.311000004 0.311000004 0.685999985
v 0.235 0.311000004 0.685999985
v 0.235 -0.325 0.685999985
v -0.311000004 -0.325 0.685999985
v -0.325 0.311000004 0.7
v -0.325 0.311000004 0.07
v -0.325 -0.325 0.07
v -0.325 -0.325 0.7
v -0.325 0.311000004 0.07
v 0.325 0.311000004 0.07
v 0.325 -0.325 0.07
v -0.325 -0.325 0.07
v 0.235 -0.325 0.685999985
v 0.272999992 -0.325 0.675817947
v 0.300817928 -0.325 0.648000031
v 0.311000004 -0.325 0.61
v 0.311000004 -0.325 0.0839999962
v -0.311000004 -0.325 0.0839999962
v -0.311000004 -0.325 0.685999985
v -0.325 -0.325 0.7
v -0.325 -0.325 0.07
v 0.325 -0.325 0.07
v 0.325 -0.325 0.61
v 0.312942295 -0.325 0.655
v 0.28 -0.325 0.687942276
v 0.235 -0.325 0.7
v 0.325 0.311000004 0.07
v 0.325 0.311000004 0.61
v 0.325 -0.325 0.61
v 0.325 -0.325 0.07
v 0.325 0.311000004 0.61
v 0.312942295 0.311000004 0.655
v 0.28 0.311000004 0.687942276
v 0.235 0.311000004 0.7
v 0.235 -0.325 0.7
v 0.28 -0.325 0.687942276
v 0.312942295 -0.325 0.655
v 0.325 -0.325 0.61
v 0.311000004 0.311000004 0.61
v 0.300817928 0.311000004 0.648000031
v 0.272999992 0.311000004 0.675817947
v 0.235 0.311000004 0.685999985
v -0.311000004 0.311000004 0.685999985
v -0.311000004 0.311000004 0.0839999962
v 0.311000004 0.311000004 0.0839999962
v -0.325 0.311000004 0.07
v -0.325 0.311000004 0.7
v 0.235 0.311000004 0.7
v 0.28 0.311000004 0.687942276
v 0.312942295 0.311000004 0.655
v 0.325 0.311000004 0.61
v 0.325 0.311000004 0.07
v 0.235 0.311000004 0.7
v -0.325 0.311000004 0.7
v -0.325 -0.325 0.7
v 0.235 -0.325 0.7
v 0.235 0.311000004 0.685999985
v 0.272999992 0.311000004 0.675817947
v 0.300817928 0.311000004 0.648000031
v 0.311000004 0.311000004 0.61
v 0.311000004 -0.325 0.61
v 0.300817928 -0.325 0.648000031
v 0.272999992 -0.325 0.675817947
v 0.235 -0.325 0.685999985
v 0.311000004 0.311000004 0.61
v 0.311000004 0.311000004 0.0839999962
v 0.311000004 -0.325 0.0839999962
v 0.311000004 -0.325 0.61
v 0.311000004 0.311000004 0.0839999962
v -0.311000004 0.311000004 0.0839999962
v -0.311000004 -0.325 0.0839999962
v 0.311000004 -0.325 0.0839999962
f 49 50 52
f 52 50 51
f 53 54 56
f 56 54 55
f 57 58 60
f 60 58 59
f 61 62 64
f 64 62 63
f 66 77 65
f 65 77 78
f 65 78 71
f 71 78 72
f 71 72 73
f 77 66 76
f 76 66 67
f 76 67 75
f 75 67 68
f 75 68 69
f 75 69 74
f 74 69 70
f 74 70 73
f 73 70 71
f 79 80 82
f 82 80 81
f 90 83 89
f 89 83 84
f 89 84 88
f 88 84 85
f 88 85 87
f 87 85 86
f 97 91 103
f 103 91 92
f 103 92 102
f 102 92 93
f 102 93 101
f 101 93 94
f 101 94 100
f 100 94 95
f 100 95 99
f 99 95 98
f 98 95 96
f 98 96 97
f 103 104 97
f 97 104 98
f 105 106 108
f 108 106 107
f 116 109 115
f 115 109 110
f 115 110 114
f 114 110 111
f 114 111 113
f 113 111 112
f 117 118 120
f 120 118 119
f 121 122 124
f 124 122 123
v 0.235 0.325 0.7
v -0.325 0.325 0.7
v -0.325 0.311000004 0.7
v 0.235 0.311000004 0.7
v 0.325 0.325 0.61
v 0.312942295 0.325 0.655
v 0.28 0.325 0.687942276
v 0.235 0.325 0.7
v 0.235 0.311000004 0.7
v 0.28 0.311000004 0.687942276
v 0.312942295 0.311000004 0.655
v 0.325 0.311000004 0.61
v -0.325 0.325 0.07
v -0.325 0.325 0.7
v 0.235 0.325 0.7
v 0.28 0.325 0.687942276
v 0.312942295 0.325 0.655
v 0.325 0.325 0.61
v 0.325 0.325 0.07
v -0.325 0.311000004 0.7
v -0.325 0.311000004 0.07
v 0.325 0.311000004 0.07
v 0.325 0.311000004 0.61
v 0.312942295 0.311000004 0.655
v 0.28 0.311000004 0.687942276
v 0.235 0.311000004 0.7
v -0.325 0.325 0.7
v -0.325 0.325 0.07
v -0.325 0.311000004 0.07
v -0.325 0.311000004 0.7
v -0.325 0.325 0.07
v 0.325 0.325 0.07
v 0.325 0.311000004 0.07
v -0.325 0.311000004 0.07
v 0.325 0.325 0.07
v 0.325 0.325 0.61
v 0.325 0.311000004 0.61
v 0.325 0.311000004 0.07
f 125 126 128
f 128 126 127
f 136 129 135
f 135 129 130
f 135 130 134
f 134 130 131
f 134 131 133
f 133 131 132
f 138 139 137
f 137 139 142
f 137 142 143
f 140 141 139
f 139 141 142
f 144 145 150
f 150 145 147
f 150 147 148
f 145 146 147
f 148 149 150
f 151 152 154
f 154 152 153
f 155 156 158
f 158 156 157
f 159 160 162
f 162 160 161
v 0.325999985 0.296000004 0.128999996
v 0.325999985 0.296000004 0.537000008
v 0.325999985 -0.113999996 0.537000008
v 0.325999985 -0.113999996 0.128999996
v 0.325999985 0.296000004 0.537000008
v 0.324000015 0.296000004 0.537000008
v 0.324000015 -0.113999996 0.537000008
v 0.325999985 -0.113999996 0.537000008
v 0.324000015 0.296000004 0.128999996
v 0.324000015 0.296000004 0.537000008
v 0.325999985 0.296000004 0.537000008
v 0.325999985 0.296000004 0.128999996
v 0.324000015 -0.113999996 0.537000008
v 0.324000015 -0.113999996 0.128999996
v 0.325999985 -0.113999996 0.128999996
v 0.325999985 -0.113999996 0.537000008
v 0.324000015 0.296000004 0.537000008
v 0.324000015 0.296000004 0.128999996
v 0.324000015 -0.113999996 0.128999996
v 0.324000015 -0.113999996 0.537000008
v 0.324000015 0.296000004 0.128999996
v 0.325999985 0.296000004 0.128999996
v 0.325999985 -0.113999996 0.128999996
v 0.324000015 -0.113999996 0.128999996
f 163 164 166
f 166 164 165
f 167 168 170
f 170 168 169
f 172 173 171
f 171 173 174
f 176 177 175
f 175 177 178
f 179 180 182
f 182 180 181
f 183 184 186
f 186 184 185
v 0.337999992 0.0189999998 0.305499992
v 0.337999992 0.0189999998 0.390499992
v 0.337999992 -0.005 0.390499992
v 0.337999992 -0.005 0.305499992
v 0.337999992 0.0189999998 0.390499992
v 0.325999985 0.0189999998 0.390499992
v 0.325999985 -0.005 0.390499992
v 0.337999992 -0.005 0.390499992
v 0.325999985 0.0189999998 0.305499992
v 0.325999985 0.0189999998 0.390499992
v 0.337999992 0.0189999998 0.390499992
v 0.337999992 0.0189999998 0.305499992
v 0.325999985 -0.005 0.390499992
v 0.325999985 -0.005 0.305499992
v 0.337999992 -0.005 0.305499992
v 0.337999992 -0.005 0.390499992
v 0.325999985 0.0189999998 0.390499992
v 0.325999985 0.0189999998 0.305499992
v 0.325999985 -0.005 0.305499992
v 0.325999985 -0.005 0.390499992
v 0.325999985 0.0189999998 0.305499992
v 0.337999992 0.0189999998 0.305499992
v 0.337999992 -0.005 0.305499992
v 0.325999985 -0.005 0.305499992
f 187 188 190
f 190 188 189
f 191 192 194
f 194 192 193
f 196 197 195
f 195 197 198
f 200 201 199
f 199 201 202
f 203 204 206
f 206 204 205
f 207 208 210
f 210 208 209
