v 0.165 0.269500008 0.138999996
v 0.245 0.269500008 0.138999996
v 0.245 0.173500004 0.138999996
v 0.165 0.173500004 0.138999996
v 0.245 0.269500008 0.138999996
v 0.245 0.269500008 0.145
v 0.245 0.173500004 0.145
v 0.245 0.173500004 0.138999996
v 0.245 0.269500008 0.145
v 0.165 0.269500008 0.145
v 0.165 0.173500004 0.145
v 0.245 0.173500004 0.145
v 0.165 0.269500008 0.138999996
v 0.165 0.269500008 0.145
v 0.245 0.269500008 0.145
v 0.245 0.269500008 0.138999996
v 0.165 0.173500004 0.145
v 0.165 0.173500004 0.138999996
v 0.245 0.173500004 0.138999996
v 0.245 0.173500004 0.145
v 0.165 0.269500008 0.145
v 0.165 0.269500008 0.138999996
v 0.165 0.173500004 0.138999996
v 0.165 0.173500004 0.145
f 1 2 4
f 4 2 3
f 5 6 8
f 8 6 7
f 9 10 12
f 12 10 11
f 14 15 13
f 13 15 16
f 18 19 17
f 17 19 20
f 21 22 24
f 24 22 23
v 0.165 0.269500008 0.265499992
v 0.245 0.269500008 0.265499992
v 0.245 0.173500004 0.265499992
v 0.165 0.173500004 0.265499992
v 0.245 0.269500008 0.270499992
v 0.165 0.269500008 0.270499992
v 0.165 0.173500004 0.270499992
v 0.245 0.173500004 0.270499992
v 0.245 0.269500008 0.265499992
v 0.245 0.269500008 0.270499992
v 0.245 0.173500004 0.270499992
v 0.245 0.173500004 0.265499992
v 0.165 0.269500008 0.265499992
v 0.165 0.269500008 0.270499992
v 0.245 0.269500008 0.270499992
v 0.245 0.269500008 0.265499992
v 0.165 0.173500004 0.270499992
v 0.165 0.173500004 0.265499992
v 0.245 0.173500004 0.265499992
v 0.245 0.173500004 0.270499992
v 0.165 0.269500008 0.270499992
v 0.165 0.269500008 0.265499992
v 0.165 0.173500004 0.265499992
v 0.165 0.173500004 0.270499992
f 25 26 28
f 28 26 27
f 29 30 32
f 32 30 31
f 33 34 36
f 36 34 35
f 38 39 37
f 37 39 40
f 42 43 41
f 41 43 44
f 45 46 48
f 48 46 47
v 0.165 0.269500008 0.143500004
v 0.168999996 0.269500008 0.143500004
v 0.168999996 0.173500004 0.143500004
v 0.165 0.173500004 0.143500004
v 0.168999996 0.269500008 0.143500004
v 0.168999996 0.269500008 0.266499996
v 0.168999996 0.173500004 0.266499996
v 0.168999996 0.173500004 0.143500004
v 0.168999996 0.269500008 0.266499996
v 0.165 0.269500008 0.266499996
v 0.165 0.173500004 0.266499996
v 0.168999996 0.173500004 0.266499996
v 0.165 0.269500008 0.143500004
v 0.165 0.269500008 0.266499996
v 0.168999996 0.269500008 0.266499996
v 0.168999996 0.269500008 0.143500004
v 0.165 0.173500004 0.266499996
v 0.165 0.173500004 0.143500004
v 0.168999996 0.173500004 0.143500004
v 0.168999996 0.173500004 0.266499996
v 0.165 0.269500008 0.266499996
v 0.165 0.269500008 0.143500004
v 0.165 0.173500004 0.143500004
v 0.165 0.173500004 0.266499996
f 49 50 52
f 52 50 51
f 53 54 56
f 56 54 55
f 57 58 60
f 60 58 59
f 62 63 61
f 61 63 64
f 66 67 65
f 65 67 68
f 69 70 72
f 72 70 71
v 0.241000004 0.269500008 0.143500004
v 0.245 0.269500008 0.143500004
v 0.245 0.173500004 0.143500004
v 0.241000004 0.173500004 0.143500004
v 0.245 0.269500008 0.143500004
v 0.245 0.269500008 0.266499996
v 0.245 0.173500004 0.266499996
v 0.245 0.173500004 0.143500004
v 0.245 0.269500008 0.266499996
v 0.241000004 0.269500008 0.266499996
v 0.241000004 0.173500004 0.266499996
v 0.245 0.173500004 0.266499996
v 0.241000004 0.269500008 0.143500004
v 0.241000004 0.269500008 0.266499996
v 0.245 0.269500008 0.266499996
v 0.245 0.269500008 0.143500004
v 0.241000004 0.173500004 0.266499996
v 0.241000004 0.173500004 0.143500004
v 0.245 0.173500004 0.143500004
v 0.245 0.173500004 0.266499996
v 0.241000004 0.269500008 0.266499996
v 0.241000004 0.269500008 0.143500004
v 0.241000004 0.173500004 0.143500004
v 0.241000004 0.173500004 0.266499996
f 73 74 76
f 76 74 75
f 77 78 80
f 80 78 79
f 81 82 84
f 84 82 83
f 86 87 85
f 85 87 88
f 90 91 89
f 89 91 92
f 93 94 96
f 96 94 95
v 0.168500004 0.1775 0.143999996
v 0.175499992 0.1775 0.143999996
v 0.175499992 0.173500004 0.143999996
v 0.168500004 0.173500004 0.143999996
v 0.175499992 0.1775 0.266000004
v 0.168500004 0.1775 0.266000004
v 0.168500004 0.173500004 0.266000004
v 0.175499992 0.173500004 0.266000004
v 0.175499992 0.1775 0.143999996
v 0.175499992 0.1775 0.266000004
v 0.175499992 0.173500004 0.266000004
v 0.175499992 0.173500004 0.143999996
v 0.168500004 0.1775 0.143999996
v 0.168500004 0.1775 0.266000004
v 0.175499992 0.1775 0.266000004
v 0.175499992 0.1775 0.143999996
v 0.168500004 0.173500004 0.266000004
v 0.168500004 0.173500004 0.143999996
v 0.175499992 0.173500004 0.143999996
v 0.175499992 0.173500004 0.266000004
v 0.168500004 0.1775 0.266000004
v 0.168500004 0.1775 0.143999996
v 0.168500004 0.173500004 0.143999996
v 0.168500004 0.173500004 0.266000004
f 97 98 100
f 100 98 99
f 101 102 104
f 104 102 103
f 105 106 108
f 108 106 107
f 110 111 109
f 109 111 112
f 114 115 113
f 113 115 116
f 117 118 120
f 120 118 119
v 0.201499996 0.1775 0.143999996
v 0.208500004 0.1775 0.143999996
v 0.208500004 0.173500004 0.143999996
v 0.201499996 0.173500004 0.143999996
v 0.208500004 0.1775 0.266000004
v 0.201499996 0.1775 0.266000004
v 0.201499996 0.173500004 0.266000004
v 0.208500004 0.173500004 0.266000004
v 0.208500004 0.1775 0.143999996
v 0.208500004 0.1775 0.266000004
v 0.208500004 0.173500004 0.266000004
v 0.208500004 0.173500004 0.143999996
v 0.201499996 0.1775 0.143999996
v 0.201499996 0.1775 0.266000004
v 0.208500004 0.1775 0.266000004
v 0.208500004 0.1775 0.143999996
v 0.201499996 0.173500004 0.266000004
v 0.201499996 0.173500004 0.143999996
v 0.208500004 0.173500004 0.143999996
v 0.208500004 0.173500004 0.266000004
v 0.201499996 0.1775 0.266000004
v 0.201499996 0.1775 0.143999996
v 0.201499996 0.173500004 0.143999996
v 0.201499996 0.173500004 0.266000004
f 121 122 124
f 124 122 123
f 125 126 128
f 128 126 127
f 129 130 132
f 132 130 131
f 134 135 133
f 133 135 136
f 138 139 137
f 137 139 140
f 141 142 144
f 144 142 143
v 0.234500008 0.1775 0.143999996
v 0.241499996 0.1775 0.143999996
v 0.241499996 0.173500004 0.143999996
v 0.234500008 0.173500004 0.143999996
v 0.241499996 0.1775 0.143999996
v 0.241499996 0.1775 0.266000004
v 0.241499996 0.173500004 0.266000004
v 0.241499996 0.173500004 0.143999996
v 0.241499996 0.1775 0.266000004
v 0.234500008 0.1775 0.266000004
v 0.234500008 0.173500004 0.266000004
v 0.241499996 0.173500004 0.266000004
v 0.234500008 0.1775 0.143999996
v 0.234500008 0.1775 0.266000004
v 0.241499996 0.1775 0.266000004
v 0.241499996 0.1775 0.143999996
v 0.234500008 0.173500004 0.266000004
v 0.234500008 0.173500004 0.143999996
v 0.241499996 0.173500004 0.143999996
v 0.241499996 0.173500004 0.266000004
v 0.234500008 0.1775 0.266000004
v 0.234500008 0.1775 0.143999996
v 0.234500008 0.173500004 0.143999996
v 0.234500008 0.173500004 0.266000004
f 145 146 148
f 148 146 147
f 149 150 152
f 152 150 151
f 153 154 156
f 156 154 155
f 158 159 157
f 157 159 160
f 162 163 161
f 161 163 164
f 165 166 168
f 168 166 167
v 0.191000004 0.233999996 0.136499996
v 0.218999996 0.233999996 0.136499996
v 0.218999996 0.208999996 0.136499996
v 0.191000004 0.208999996 0.136499996
v 0.218999996 0.233999996 0.136499996
v 0.218999996 0.233999996 0.139499998
v 0.218999996 0.208999996 0.139499998
v 0.218999996 0.208999996 0.136499996
v 0.218999996 0.233999996 0.139499998
v 0.191000004 0.233999996 0.139499998
v 0.191000004 0.208999996 0.139499998
v 0.218999996 0.208999996 0.139499998
v 0.191000004 0.233999996 0.136499996
v 0.191000004 0.233999996 0.139499998
v 0.218999996 0.233999996 0.139499998
v 0.218999996 0.233999996 0.136499996
v 0.191000004 0.208999996 0.139499998
v 0.191000004 0.208999996 0.136499996
v 0.218999996 0.208999996 0.136499996
v 0.218999996 0.208999996 0.139499998
v 0.191000004 0.233999996 0.139499998
v 0.191000004 0.233999996 0.136499996
v 0.191000004 0.208999996 0.136499996
v 0.191000004 0.208999996 0.139499998
f 169 170 172
f 172 170 171
f 173 174 176
f 176 174 175
f 177 178 180
f 180 178 179
f 182 183 181
f 181 183 184
f 186 187 185
f 185 187 188
f 189 190 192
f 192 190 191
v 0.202999992 0.269500008 0.143999996
v 0.207000008 0.269500008 0.143999996
v 0.207000008 0.173500004 0.143999996
v 0.202999992 0.173500004 0.143999996
v 0.207000008 0.269500008 0.266000004
v 0.202999992 0.269500008 0.266000004
v 0.202999992 0.173500004 0.266000004
v 0.207000008 0.173500004 0.266000004
v 0.207000008 0.269500008 0.143999996
v 0.207000008 0.269500008 0.266000004
v 0.207000008 0.173500004 0.266000004
v 0.207000008 0.173500004 0.143999996
v 0.202999992 0.269500008 0.143999996
v 0.202999992 0.269500008 0.266000004
v 0.207000008 0.269500008 0.266000004
v 0.207000008 0.269500008 0.143999996
v 0.202999992 0.173500004 0.266000004
v 0.202999992 0.173500004 0.143999996
v 0.207000008 0.173500004 0.143999996
v 0.207000008 0.173500004 0.266000004
v 0.202999992 0.269500008 0.266000004
v 0.202999992 0.269500008 0.143999996
v 0.202999992 0.173500004 0.143999996
v 0.202999992 0.173500004 0.266000004
f 193 194 196
f 196 194 195
f 197 198 200
f 200 198 199
f 201 202 204
f 204 202 203
f 206 207 205
f 205 207 208
f 210 211 209
f 209 211 212
f 213 214 216
f 216 214 215
