v -0.189 -0.038000002 0.1165
v -0.189 -0.122 0.1165
v -0.189 -0.122 0.2295
v -0.189 -0.038000002 0.2295
v -0.186 -0.122 0.1165
v -0.186 -0.038000002 0.1165
v -0.186 -0.038000002 0.2295
v -0.186 -0.122 0.2295
v -0.186 -0.122 0.1165
v -0.189 -0.122 0.1165
v -0.189 -0.038000002 0.1165
v -0.186 -0.038000002 0.1165
v -0.189 -0.122 0.1165
v -0.186 -0.122 0.1165
v -0.186 -0.122 0.2295
v -0.189 -0.122 0.2295
v -0.186 -0.038000002 0.1165
v -0.189 -0.038000002 0.1165
v -0.189 -0.038000002 0.2295
v -0.186 -0.038000002 0.2295
v -0.189 -0.122 0.2295
v -0.186 -0.122 0.2295
v -0.186 -0.038000002 0.2295
v -0.189 -0.038000002 0.2295
f 1 2 4
f 4 2 3
f 5 6 8
f 8 6 7
f 10 11 9
f 9 11 12
f 13 14 16
f 16 14 15
f 17 18 20
f 20 18 19
f 22 23 21
f 21 23 24
v -0.157 -0.122 0.1165
v -0.157 -0.038000002 0.1165
v -0.157 -0.038000002 0.1195
v -0.157 -0.122 0.1195
v -0.189 -0.122 0.1195
v -0.157 -0.122 0.1195
v -0.157 -0.038000002 0.1195
v -0.189 -0.038000002 0.1195
v -0.157 -0.038000002 0.1165
v -0.189 -0.038000002 0.1165
v -0.189 -0.038000002 0.1195
v -0.157 -0.038000002 0.1195
v -0.189 -0.122 0.1165
v -0.157 -0.122 0.1165
v -0.157 -0.122 0.1195
v -0.189 -0.122 0.1195
v -0.189 -0.038000002 0.1165
v -0.189 -0.122 0.1165
v -0.189 -0.122 0.1195
v -0.189 -0.038000002 0.1195
v -0.157 -0.122 0.1165
v -0.189 -0.122 0.1165
v -0.189 -0.038000002 0.1165
v -0.157 -0.038000002 0.1165
f 25 26 28
f 28 26 27
f 30 31 29
f 29 31 32
f 33 34 36
f 36 34 35
f 37 38 40
f 40 38 39
f 41 42 44
f 44 42 43
f 46 47 45
f 45 47 48
v -0.157 -0.122 0.2265
v -0.189 -0.122 0.2265
v -0.189 -0.038000002 0.2265
v -0.157 -0.038000002 0.2265
v -0.157 -0.122 0.2265
v -0.157 -0.038000002 0.2265
v -0.157 -0.038000002 0.2295
v -0.157 -0.122 0.2295
v -0.189 -0.038000002 0.2265
v -0.189 -0.122 0.2265
v -0.189 -0.122 0.2295
v -0.189 -0.038000002 0.2295
v -0.189 -0.122 0.2265
v -0.157 -0.122 0.2265
v -0.157 -0.122 0.2295
v -0.189 -0.122 0.2295
v -0.189 -0.122 0.2295
v -0.157 -0.122 0.2295
v -0.157 -0.038000002 0.2295
v -0.189 -0.038000002 0.2295
v -0.157 -0.038000002 0.2265
v -0.189 -0.038000002 0.2265
v -0.189 -0.038000002 0.2295
v -0.157 -0.038000002 0.2295
f 50 51 49
f 49 51 52
f 53 54 56
f 56 54 55
f 57 58 60
f 60 58 59
f 61 62 64
f 64 62 63
f 66 67 65
f 65 67 68
f 69 70 72
f 72 70 71
v -0.186 -0.119 0.166
v -0.157 -0.119 0.166
v -0.157 -0.1165 0.166
v -0.186 -0.1165 0.166
v -0.157 -0.119 0.1678
v -0.186 -0.119 0.1678
v -0.186 -0.1165 0.1678
v -0.157 -0.1165 0.1678
v -0.186 -0.1165 0.166
v -0.157 -0.1165 0.166
v -0.157 -0.1165 0.1643
v -0.186 -0.1165 0.1643
v -0.157 -0.119 0.166
v -0.186 -0.119 0.166
v -0.186 -0.119 0.1678
v -0.157 -0.119 0.1678
v -0.157 -0.119 0.1643
v -0.186 -0.119 0.1643
v -0.186 -0.1165 0.1643
v -0.157 -0.1165 0.1643
v -0.186 -0.1165 0.1695
v -0.157 -0.1165 0.1695
v -0.157 -0.1165 0.1678
v -0.186 -0.1165 0.1678
v -0.157 -0.119 0.1625
v -0.186 -0.119 0.1625
v -0.186 -0.119 0.1643
v -0.157 -0.119 0.1643
v -0.186 -0.119 0.1695
v -0.157 -0.119 0.1695
v -0.157 -0.1165 0.1695
v -0.186 -0.1165 0.1695
v -0.186 -0.119 0.1625
v -0.157 -0.119 0.1625
v -0.157 -0.1165 0.1625
v -0.186 -0.1165 0.1625
v -0.157 -0.119 0.1713
v -0.186 -0.119 0.1713
v -0.186 -0.1165 0.1713
v -0.157 -0.1165 0.1713
v -0.186 -0.1165 0.1625
v -0.157 -0.1165 0.1625
v -0.157 -0.1165 0.1608
v -0.186 -0.1165 0.1608
v -0.157 -0.119 0.1695
v -0.186 -0.119 0.1695
v -0.186 -0.119 0.1713
v -0.157 -0.119 0.1713
v -0.157 -0.119 0.1608
v -0.186 -0.119 0.1608
v -0.186 -0.1165 0.1608
v -0.157 -0.1165 0.1608
v -0.186 -0.1165 0.173
v -0.157 -0.1165 0.173
v -0.157 -0.1165 0.1713
v -0.186 -0.1165 0.1713
v -0.157 -0.119 0.159
v -0.186 -0.119 0.159
v -0.186 -0.119 0.1608
v -0.157 -0.119 0.1608
v -0.186 -0.119 0.173
v -0.157 -0.119 0.173
v -0.157 -0.1165 0.173
v -0.186 -0.1165 0.173
v -0.186 -0.119 0.159
v -0.157 -0.119 0.159
v -0.157 -0.1165 0.159
v -0.186 -0.1165 0.159
v -0.157 -0.119 0.1748
v -0.186 -0.119 0.1748
v -0.186 -0.1165 0.1748
v -0.157 -0.1165 0.1748
v -0.186 -0.1165 0.159
v -0.157 -0.1165 0.159
v -0.157 -0.1165 0.1573
v -0.186 -0.1165 0.1573
v -0.157 -0.119 0.173
v -0.186 -0.119 0.173
v -0.186 -0.119 0.1748
v -0.157 -0.119 0.1748
v -0.157 -0.119 0.1573
v -0.186 -0.119 0.1573
v -0.186 -0.1165 0.1573
v -0.157 -0.1165 0.1573
v -0.186 -0.1165 0.1765
v -0.157 -0.1165 0.1765
v -0.157 -0.1165 0.1748
v -0.186 -0.1165 0.1748
v -0.157 -0.119 0.1555
v -0.186 -0.119 0.1555
v -0.186 -0.119 0.1573
v -0.157 -0.119 0.1573
v -0.186 -0.119 0.1765
v -0.157 -0.119 0.1765
v -0.157 -0.1165 0.1765
v -0.186 -0.1165 0.1765
v -0.186 -0.119 0.1555
v -0.157 -0.119 0.1555
v -0.157 -0.1165 0.1555
v -0.186 -0.1165 0.1555
v -0.157 -0.119 0.1783
v -0.186 -0.119 0.1783
v -0.186 -0.1165 0.1783
v -0.157 -0.1165 0.1783
v -0.186 -0.1165 0.1555
v -0.157 -0.1165 0.1555
v -0.157 -0.1165 0.1538
v -0.186 -0.1165 0.1538
v -0.157 -0.119 0.1765
v -0.186 -0.119 0.1765
v -0.186 -0.119 0.1783
v -0.157 -0.119 0.1783
v -0.157 -0.119 0.1538
v -0.186 -0.119 0.1538
v -0.186 -0.1165 0.1538
v -0.157 -0.1165 0.1538
v -0.186 -0.1165 0.18
v -0.157 -0.1165 0.18
v -0.157 -0.1165 0.1783
v -0.186 -0.1165 0.1783
v -0.157 -0.119 0.152
v -0.186 -0.119 0.152
v -0.186 -0.119 0.1538
v -0.157 -0.119 0.1538
v -0.186 -0.119 0.18
v -0.157 -0.119 0.18
v -0.157 -0.1165 0.18
v -0.186 -0.1165 0.18
v -0.186 -0.119 0.152
v -0.157 -0.119 0.152
v -0.157 -0.1165 0.152
v -0.186 -0.1165 0.152
v -0.157 -0.119 0.1818
v -0.186 -0.119 0.1818
v -0.186 -0.1165 0.1818
v -0.157 -0.1165 0.1818
v -0.186 -0.1165 0.152
v -0.157 -0.1165 0.152
v -0.157 -0.1165 0.1503
v -0.186 -0.1165 0.1503
v -0.157 -0.119 0.18
v -0.186 -0.119 0.18
v -0.186 -0.119 0.1818
v -0.157 -0.119 0.1818
v -0.157 -0.119 0.1503
v -0.186 -0.119 0.1503
v -0.186 -0.1165 0.1503
v -0.157 -0.1165 0.1503
v -0.186 -0.1165 0.1835
v -0.157 -0.1165 0.1835
v -0.157 -0.1165 0.1818
v -0.186 -0.1165 0.1818
v -0.157 -0.119 0.1485
v -0.186 -0.119 0.1485
v -0.186 -0.119 0.1503
v -0.157 -0.119 0.1503
v -0.186 -0.119 0.1835
v -0.157 -0.119 0.1835
v -0.157 -0.1165 0.1835
v -0.186 -0.1165 0.1835
v -0.186 -0.119 0.1485
v -0.157 -0.119 0.1485
v -0.157 -0.1165 0.1485
v -0.186 -0.1165 0.1485
v -0.157 -0.119 0.1853
v -0.186 -0.119 0.1853
v -0.186 -0.1165 0.1853
v -0.157 -0.1165 0.1853
v -0.186 -0.1165 0.1485
v -0.157 -0.1165 0.1485
v -0.157 -0.1165 0.1468
v -0.186 -0.1165 0.1468
v -0.157 -0.119 0.1835
v -0.186 -0.119 0.1835
v -0.186 -0.119 0.1853
v -0.157 -0.119 0.1853
v -0.157 -0.119 0.1468
v -0.186 -0.119 0.1468
v -0.186 -0.1165 0.1468
v -0.157 -0.1165 0.1468
v -0.186 -0.1165 0.187
v -0.157 -0.1165 0.187
v -0.157 -0.1165 0.1853
v -0.186 -0.1165 0.1853
v -0.157 -0.119 0.145
v -0.186 -0.119 0.145
v -0.186 -0.119 0.1468
v -0.157 -0.119 0.1468
v -0.186 -0.119 0.187
v -0.157 -0.119 0.187
v -0.157 -0.1165 0.187
v -0.186 -0.1165 0.187
v -0.186 -0.119 0.145
v -0.157 -0.119 0.145
v -0.157 -0.1165 0.145
v -0.186 -0.1165 0.145
v -0.157 -0.119 0.1888
v -0.186 -0.119 0.1888
v -0.186 -0.1165 0.1888
v -0.157 -0.1165 0.1888
v -0.186 -0.1165 0.145
v -0.157 -0.1165 0.145
v -0.157 -0.1165 0.1433
v -0.186 -0.1165 0.1433
v -0.157 -0.119 0.187
v -0.186 -0.119 0.187
v -0.186 -0.119 0.1888
v -0.157 -0.119 0.1888
v -0.157 -0.119 0.1433
v -0.186 -0.119 0.1433
v -0.186 -0.1165 0.1433
v -0.157 -0.1165 0.1433
v -0.186 -0.1165 0.1905
v -0.157 -0.1165 0.1905
v -0.157 -0.1165 0.1888
v -0.186 -0.1165 0.1888
v -0.157 -0.119 0.1415
v -0.186 -0.119 0.1415
v -0.186 -0.119 0.1433
v -0.157 -0.119 0.1433
v -0.186 -0.119 0.1905
v -0.157 -0.119 0.1905
v -0.157 -0.1165 0.1905
v -0.186 -0.1165 0.1905
v -0.186 -0.119 0.1415
v -0.157 -0.119 0.1415
v -0.157 -0.1165 0.1415
v -0.186 -0.1165 0.1415
v -0.157 -0.119 0.1923
v -0.186 -0.119 0.1923
v -0.186 -0.1165 0.1923
v -0.157 -0.1165 0.1923
v -0.186 -0.1165 0.1415
v -0.157 -0.1165 0.1415
v -0.157 -0.1165 0.1398
v -0.186 -0.1165 0.1398
v -0.157 -0.119 0.1905
v -0.186 -0.119 0.1905
v -0.186 -0.119 0.1923
v -0.157 -0.119 0.1923
v -0.157 -0.119 0.1398
v -0.186 -0.119 0.1398
v -0.186 -0.1165 0.1398
v -0.157 -0.1165 0.1398
v -0.186 -0.1165 0.194
v -0.157 -0.1165 0.194
v -0.157 -0.1165 0.1923
v -0.186 -0.1165 0.1923
v -0.157 -0.119 0.138
v -0.186 -0.119 0.138
v -0.186 -0.119 0.1398
v -0.157 -0.119 0.1398
v -0.186 -0.119 0.194
v -0.157 -0.119 0.194
v -0.157 -0.1165 0.194
v -0.186 -0.1165 0.194
v -0.186 -0.119 0.138
v -0.157 -0.119 0.138
v -0.157 -0.1165 0.138
v -0.186 -0.1165 0.138
v -0.157 -0.119 0.1958
v -0.186 -0.119 0.1958
v -0.186 -0.1165 0.1958
v -0.157 -0.1165 0.1958
v -0.186 -0.1165 0.138
v -0.157 -0.1165 0.138
v -0.157 -0.1165 0.1363
v -0.186 -0.1165 0.1363
v -0.157 -0.119 0.194
v -0.186 -0.119 0.194
v -0.186 -0.119 0.1958
v -0.157 -0.119 0.1958
v -0.157 -0.119 0.1363
v -0.186 -0.119 0.1363
v -0.186 -0.1165 0.1363
v -0.157 -0.1165 0.1363
v -0.186 -0.1165 0.1975
v -0.157 -0.1165 0.1975
v -0.157 -0.1165 0.1958
v -0.186 -0.1165 0.1958
v -0.157 -0.119 0.1345
v -0.186 -0.119 0.1345
v -0.186 -0.119 0.1363
v -0.157 -0.119 0.1363
v -0.186 -0.119 0.1975
v -0.157 -0.119 0.1975
v -0.157 -0.1165 0.1975
v -0.186 -0.1165 0.1975
v -0.186 -0.119 0.1345
v -0.157 -0.119 0.1345
v -0.157 -0.1165 0.1345
v -0.186 -0.1165 0.1345
v -0.157 -0.119 0.1993
v -0.186 -0.119 0.1993
v -0.186 -0.1165 0.1993
v -0.157 -0.1165 0.1993
v -0.186 -0.1165 0.1345
v -0.157 -0.1165 0.1345
v -0.157 -0.1165 0.1328
v -0.186 -0.1165 0.1328
v -0.157 -0.119 0.1975
v -0.186 -0.119 0.1975
v -0.186 -0.119 0.1993
v -0.157 -0.119 0.1993
v -0.157 -0.119 0.1328
v -0.186 -0.119 0.1328
v -0.186 -0.1165 0.1328
v -0.157 -0.1165 0.1328
v -0.186 -0.1165 0.201
v -0.157 -0.1165 0.201
v -0.157 -0.1165 0.1993
v -0.186 -0.1165 0.1993
v -0.157 -0.119 0.131
v -0.186 -0.119 0.131
v -0.186 -0.119 0.1328
v -0.157 -0.119 0.1328
v -0.186 -0.119 0.201
v -0.157 -0.119 0.201
v -0.157 -0.1165 0.201
v -0.186 -0.1165 0.201
v -0.186 -0.119 0.131
v -0.157 -0.119 0.131
v -0.157 -0.1165 0.131
v -0.186 -0.1165 0.131
v -0.157 -0.119 0.2028
v -0.186 -0.119 0.2028
v -0.186 -0.1165 0.2028
v -0.157 -0.1165 0.2028
v -0.186 -0.1165 0.131
v -0.157 -0.1165 0.131
v -0.157 -0.1165 0.1293
v -0.186 -0.1165 0.1293
v -0.157 -0.119 0.201
v -0.186 -0.119 0.201
v -0.186 -0.119 0.2028
v -0.157 -0.119 0.2028
v -0.157 -0.119 0.1293
v -0.186 -0.119 0.1293
v -0.186 -0.1165 0.1293
v -0.157 -0.1165 0.1293
v -0.186 -0.1165 0.2045
v -0.157 -0.1165 0.2045
v -0.157 -0.1165 0.2028
v -0.186 -0.1165 0.2028
v -0.157 -0.119 0.1275
v -0.186 -0.119 0.1275
v -0.186 -0.119 0.1293
v -0.157 -0.119 0.1293
v -0.186 -0.119 0.2045
v -0.157 -0.119 0.2045
v -0.157 -0.1165 0.2045
v -0.186 -0.1165 0.2045
v -0.186 -0.119 0.1275
v -0.157 -0.119 0.1275
v -0.157 -0.1165 0.1275
v -0.186 -0.1165 0.1275
v -0.157 -0.119 0.2063
v -0.186 -0.119 0.2063
v -0.186 -0.1165 0.2063
v -0.157 -0.1165 0.2063
v -0.186 -0.1165 0.1275
v -0.157 -0.1165 0.1275
v -0.157 -0.1165 0.1258
v -0.186 -0.1165 0.1258
v -0.157 -0.119 0.2045
v -0.186 -0.119 0.2045
v -0.186 -0.119 0.2063
v -0.157 -0.119 0.2063
v -0.157 -0.119 0.1258
v -0.186 -0.119 0.1258
v -0.186 -0.1165 0.1258
v -0.157 -0.1165 0.1258
v -0.186 -0.1165 0.208
v -0.157 -0.1165 0.208
v -0.157 -0.1165 0.2063
v -0.186 -0.1165 0.2063
v -0.157 -0.119 0.124
v -0.186 -0.119 0.124
v -0.186 -0.119 0.1258
v -0.157 -0.119 0.1258
v -0.186 -0.119 0.208
v -0.157 -0.119 0.208
v -0.157 -0.1165 0.208
v -0.186 -0.1165 0.208
v -0.186 -0.119 0.124
v -0.157 -0.119 0.124
v -0.157 -0.1165 0.124
v -0.186 -0.1165 0.124
v -0.157 -0.119 0.2098
v -0.186 -0.119 0.2098
v -0.186 -0.1165 0.2098
v -0.157 -0.1165 0.2098
v -0.186 -0.1165 0.124
v -0.157 -0.1165 0.124
v -0.157 -0.1165 0.1223
v -0.186 -0.1165 0.1223
v -0.157 -0.119 0.208
v -0.186 -0.119 0.208
v -0.186 -0.119 0.2098
v -0.157 -0.119 0.2098
v -0.157 -0.119 0.1223
v -0.186 -0.119 0.1223
v -0.186 -0.1165 0.1223
v -0.157 -0.1165 0.1223
v -0.186 -0.1165 0.2115
v -0.157 -0.1165 0.2115
v -0.157 -0.1165 0.2098
v -0.186 -0.1165 0.2098
v -0.157 -0.119 0.1205
v -0.186 -0.119 0.1205
v -0.186 -0.119 0.1223
v -0.157 -0.119 0.1223
v -0.186 -0.119 0.2115
v -0.157 -0.119 0.2115
v -0.157 -0.1165 0.2115
v -0.186 -0.1165 0.2115
v -0.186 -0.119 0.1205
v -0.157 -0.119 0.1205
v -0.157 -0.1165 0.1205
v -0.186 -0.1165 0.1205
v -0.157 -0.119 0.2133
v -0.186 -0.119 0.2133
v -0.186 -0.1165 0.2133
v -0.157 -0.1165 0.2133
v -0.186 -0.1165 0.1205
v -0.157 -0.1165 0.1205
v -0.157 -0.1165 0.1195
v -0.186 -0.1165 0.1195
v -0.157 -0.119 0.2115
v -0.186 -0.119 0.2115
v -0.186 -0.119 0.2133
v -0.157 -0.119 0.2133
v -0.186 -0.1165 0.215
v -0.157 -0.1165 0.215
v -0.157 -0.1165 0.2133
v -0.186 -0.1165 0.2133
v -0.186 -0.119 0.215
v -0.157 -0.119 0.215
v -0.157 -0.1165 0.215
v -0.186 -0.1165 0.215
v -0.157 -0.119 0.2168
v -0.186 -0.119 0.2168
v -0.186 -0.1165 0.2168
v -0.157 -0.1165 0.2168
v -0.157 -0.122 0.1195
v -0.186 -0.122 0.1195
v -0.186 -0.1165 0.1195
v -0.157 -0.1165 0.1195
v -0.157 -0.119 0.215
v -0.186 -0.119 0.215
v -0.186 -0.119 0.2168
v -0.157 -0.119 0.2168
v -0.186 -0.122 0.2265
v -0.157 -0.122 0.2265
v -0.157 -0.1165 0.2265
v -0.186 -0.1165 0.2265
v -0.157 -0.1165 0.2238
v -0.186 -0.1165 0.2238
v -0.186 -0.1165 0.2265
v -0.157 -0.1165 0.2265
v -0.186 -0.1165 0.2185
v -0.157 -0.1165 0.2185
v -0.157 -0.1165 0.2168
v -0.186 -0.1165 0.2168
v -0.157 -0.119 0.2185
v -0.186 -0.119 0.2185
v -0.186 -0.119 0.2203
v -0.157 -0.119 0.2203
v -0.186 -0.122 0.1195
v -0.157 -0.122 0.1195
v -0.157 -0.122 0.2265
v -0.186 -0.122 0.2265
v -0.186 -0.119 0.222
v -0.157 -0.119 0.222
v -0.157 -0.1165 0.222
v -0.186 -0.1165 0.222
v -0.186 -0.1165 0.2238
v -0.186 -0.119 0.2238
v -0.186 -0.119 0.222
v -0.186 -0.1165 0.222
v -0.186 -0.1165 0.2203
v -0.186 -0.119 0.2203
v -0.186 -0.119 0.2185
v -0.186 -0.1165 0.2185
v -0.186 -0.1165 0.2168
v -0.186 -0.119 0.2168
v -0.186 -0.119 0.215
v -0.186 -0.1165 0.215
v -0.186 -0.1165 0.2133
v -0.186 -0.119 0.2133
v -0.186 -0.119 0.2115
v -0.186 -0.1165 0.2115
v -0.186 -0.1165 0.2098
v -0.186 -0.119 0.2098
v -0.186 -0.119 0.208
v -0.186 -0.1165 0.208
v -0.186 -0.1165 0.2063
v -0.186 -0.119 0.2063
v -0.186 -0.119 0.2045
v -0.186 -0.1165 0.2045
v -0.186 -0.1165 0.2028
v -0.186 -0.119 0.2028
v -0.186 -0.119 0.201
v -0.186 -0.1165 0.201
v -0.186 -0.1165 0.1993
v -0.186 -0.119 0.1993
v -0.186 -0.119 0.1975
v -0.186 -0.1165 0.1975
v -0.186 -0.1165 0.1958
v -0.186 -0.119 0.1958
v -0.186 -0.119 0.194
v -0.186 -0.1165 0.194
v -0.186 -0.1165 0.1923
v -0.186 -0.119 0.1923
v -0.186 -0.119 0.1905
v -0.186 -0.1165 0.1905
v -0.186 -0.1165 0.1888
v -0.186 -0.119 0.1888
v -0.186 -0.119 0.187
v -0.186 -0.1165 0.187
v -0.186 -0.1165 0.1853
v -0.186 -0.119 0.1853
v -0.186 -0.119 0.1835
v -0.186 -0.1165 0.1835
v -0.186 -0.1165 0.1818
v -0.186 -0.119 0.1818
v -0.186 -0.119 0.18
v -0.186 -0.1165 0.18
v -0.186 -0.1165 0.1783
v -0.186 -0.119 0.1783
v -0.186 -0.119 0.1765
v -0.186 -0.1165 0.1765
v -0.186 -0.1165 0.1748
v -0.186 -0.119 0.1748
v -0.186 -0.119 0.173
v -0.186 -0.1165 0.173
v -0.186 -0.1165 0.1713
v -0.186 -0.119 0.1713
v -0.186 -0.119 0.1695
v -0.186 -0.1165 0.1695
v -0.186 -0.1165 0.1678
v -0.186 -0.119 0.1678
v -0.186 -0.119 0.166
v -0.186 -0.1165 0.166
v -0.186 -0.1165 0.1643
v -0.186 -0.119 0.1643
v -0.186 -0.119 0.1625
v -0.186 -0.1165 0.1625
v -0.186 -0.1165 0.1608
v -0.186 -0.119 0.1608
v -0.186 -0.119 0.159
v -0.186 -0.1165 0.159
v -0.186 -0.1165 0.1573
v -0.186 -0.119 0.1573
v -0.186 -0.119 0.1555
v -0.186 -0.1165 0.1555
v -0.186 -0.1165 0.1538
v -0.186 -0.119 0.1538
v -0.186 -0.119 0.152
v -0.186 -0.1165 0.152
v -0.186 -0.1165 0.1503
v -0.186 -0.119 0.1503
v -0.186 -0.119 0.1485
v -0.186 -0.1165 0.1485
v -0.186 -0.1165 0.1468
v -0.186 -0.119 0.1468
v -0.186 -0.119 0.145
v -0.186 -0.1165 0.145
v -0.186 -0.1165 0.1433
v -0.186 -0.119 0.1433
v -0.186 -0.119 0.1415
v -0.186 -0.1165 0.1415
v -0.186 -0.1165 0.1398
v -0.186 -0.119 0.1398
v -0.186 -0.119 0.138
v -0.186 -0.1165 0.138
v -0.186 -0.1165 0.1363
v -0.186 -0.119 0.1363
v -0.186 -0.119 0.1345
v -0.186 -0.1165 0.1345
v -0.186 -0.1165 0.1328
v -0.186 -0.119 0.1328
v -0.186 -0.119 0.131
v -0.186 -0.1165 0.131
v -0.186 -0.1165 0.1293
v -0.186 -0.119 0.1293
v -0.186 -0.119 0.1275
v -0.186 -0.1165 0.1275
v -0.186 -0.1165 0.1258
v -0.186 -0.119 0.1258
v -0.186 -0.119 0.124
v -0.186 -0.1165 0.124
v -0.186 -0.1165 0.1223
v -0.186 -0.119 0.1223
v -0.186 -0.119 0.1205
v -0.186 -0.1165 0.1205
v -0.186 -0.1165 0.1195
v -0.186 -0.122 0.1195
v -0.186 -0.122 0.2265
v -0.186 -0.1165 0.2265
v -0.157 -0.119 0.2238
v -0.157 -0.1165 0.2238
v -0.157 -0.1165 0.2265
v -0.157 -0.122 0.2265
v -0.157 -0.122 0.1195
v -0.157 -0.1165 0.1195
v -0.157 -0.1165 0.1205
v -0.157 -0.119 0.1205
v -0.157 -0.119 0.1223
v -0.157 -0.1165 0.1223
v -0.157 -0.1165 0.124
v -0.157 -0.119 0.124
v -0.157 -0.119 0.1258
v -0.157 -0.1165 0.1258
v -0.157 -0.1165 0.1275
v -0.157 -0.119 0.1275
v -0.157 -0.119 0.1293
v -0.157 -0.1165 0.1293
v -0.157 -0.1165 0.131
v -0.157 -0.119 0.131
v -0.157 -0.119 0.1328
v -0.157 -0.1165 0.1328
v -0.157 -0.1165 0.1345
v -0.157 -0.119 0.1345
v -0.157 -0.119 0.1363
v -0.157 -0.1165 0.1363
v -0.157 -0.1165 0.138
v -0.157 -0.119 0.138
v -0.157 -0.119 0.1398
v -0.157 -0.1165 0.1398
v -0.157 -0.1165 0.1415
v -0.157 -0.119 0.1415
v -0.157 -0.119 0.1433
v -0.157 -0.1165 0.1433
v -0.157 -0.1165 0.145
v -0.157 -0.119 0.145
v -0.157 -0.119 0.1468
v -0.157 -0.1165 0.1468
v -0.157 -0.1165 0.1485
v -0.157 -0.119 0.1485
v -0.157 -0.119 0.1503
v -0.157 -0.1165 0.1503
v -0.157 -0.1165 0.152
v -0.157 -0.119 0.152
v -0.157 -0.119 0.1538
v -0.157 -0.1165 0.1538
v -0.157 -0.1165 0.1555
v -0.157 -0.119 0.1555
v -0.157 -0.119 0.1573
v -0.157 -0.1165 0.1573
v -0.157 -0.1165 0.159
v -0.157 -0.119 0.159
v -0.157 -0.119 0.1608
v -0.157 -0.1165 0.1608
v -0.157 -0.1165 0.1625
v -0.157 -0.119 0.1625
v -0.157 -0.119 0.1643
v -0.157 -0.1165 0.1643
v -0.157 -0.1165 0.166
v -0.157 -0.119 0.166
v -0.157 -0.119 0.1678
v -0.157 -0.1165 0.1678
v -0.157 -0.1165 0.1695
v -0.157 -0.119 0.1695
v -0.157 -0.119 0.1713
v -0.157 -0.1165 0.1713
v -0.157 -0.1165 0.173
v -0.157 -0.119 0.173
v -0.157 -0.119 0.1748
v -0.157 -0.1165 0.1748
v -0.157 -0.1165 0.1765
v -0.157 -0.119 0.1765
v -0.157 -0.119 0.1783
v -0.157 -0.1165 0.1783
v -0.157 -0.1165 0.18
v -0.157 -0.119 0.18
v -0.157 -0.119 0.1818
v -0.157 -0.1165 0.1818
v -0.157 -0.1165 0.1835
v -0.157 -0.119 0.1835
v -0.157 -0.119 0.1853
v -0.157 -0.1165 0.1853
v -0.157 -0.1165 0.187
v -0.157 -0.119 0.187
v -0.157 -0.119 0.1888
v -0.157 -0.1165 0.1888
v -0.157 -0.1165 0.1905
v -0.157 -0.119 0.1905
v -0.157 -0.119 0.1923
v -0.157 -0.1165 0.1923
v -0.157 -0.1165 0.194
v -0.157 -0.119 0.194
v -0.157 -0.119 0.1958
v -0.157 -0.1165 0.1958
v -0.157 -0.1165 0.1975
v -0.157 -0.119 0.1975
v -0.157 -0.119 0.1993
v -0.157 -0.1165 0.1993
v -0.157 -0.1165 0.201
v -0.157 -0.119 0.201
v -0.157 -0.119 0.2028
v -0.157 -0.1165 0.2028
v -0.157 -0.1165 0.2045
v -0.157 -0.119 0.2045
v -0.157 -0.119 0.2063
v -0.157 -0.1165 0.2063
v -0.157 -0.1165 0.208
v -0.157 -0.119 0.208
v -0.157 -0.119 0.2098
v -0.157 -0.1165 0.2098
v -0.157 -0.1165 0.2115
v -0.157 -0.119 0.2115
v -0.157 -0.119 0.2133
v -0.157 -0.1165 0.2133
v -0.157 -0.1165 0.215
v -0.157 -0.119 0.215
v -0.157 -0.119 0.2168
v -0.157 -0.1165 0.2168
v -0.157 -0.1165 0.2185
v -0.157 -0.119 0.2185
v -0.157 -0.119 0.2203
v -0.157 -0.1165 0.2203
v -0.157 -0.1165 0.222
v -0.157 -0.119 0.222
v -0.186 -0.1165 0.222
v -0.157 -0.1165 0.222
v -0.157 -0.1165 0.2203
v -0.186 -0.1165 0.2203
v -0.157 -0.119 0.222
v -0.186 -0.119 0.222
v -0.186 -0.119 0.2238
v -0.157 -0.119 0.2238
v -0.157 -0.119 0.2238
v -0.186 -0.119 0.2238
v -0.186 -0.1165 0.2238
v -0.157 -0.1165 0.2238
v -0.157 -0.119 0.2203
v -0.186 -0.119 0.2203
v -0.186 -0.1165 0.2203
v -0.157 -0.1165 0.2203
v -0.186 -0.119 0.2185
v -0.157 -0.119 0.2185
v -0.157 -0.1165 0.2185
v -0.186 -0.1165 0.2185
f 74 75 73
f 73 75 76
f 78 79 77
f 77 79 80
f 81 82 84
f 84 82 83
f 85 86 88
f 88 86 87
f 90 91 89
f 89 91 92
f 93 94 96
f 96 94 95
f 97 98 100
f 100 98 99
f 102 103 101
f 101 103 104
f 106 107 105
f 105 107 108
f 110 111 109
f 109 111 112
f 113 114 116
f 116 114 115
f 117 118 120
f 120 118 119
f 122 123 121
f 121 123 124
f 125 126 128
f 128 126 127
f 129 130 132
f 132 130 131
f 134 135 133
f 133 135 136
f 138 139 137
f 137 139 140
f 142 143 141
f 141 143 144
f 145 146 148
f 148 146 147
f 149 150 152
f 152 150 151
f 154 155 153
f 153 155 156
f 157 158 160
f 160 158 159
f 161 162 164
f 164 162 163
f 166 167 165
f 165 167 168
f 170 171 169
f 169 171 172
f 174 175 173
f 173 175 176
f 177 178 180
f 180 178 179
f 181 182 184
f 184 182 183
f 186 187 185
f 185 187 188
f 189 190 192
f 192 190 191
f 193 194 196
f 196 194 195
f 198 199 197
f 197 199 200
f 202 203 201
f 201 203 204
f 206 207 205
f 205 207 208
f 209 210 212
f 212 210 211
f 213 214 216
f 216 214 215
f 218 219 217
f 217 219 220
f 221 222 224
f 224 222 223
f 225 226 228
f 228 226 227
f 230 231 229
f 229 231 232
f 234 235 233
f 233 235 236
f 238 239 237
f 237 239 240
f 241 242 244
f 244 242 243
f 245 246 248
f 248 246 247
f 250 251 249
f 249 251 252
f 253 254 256
f 256 254 255
f 257 258 260
f 260 258 259
f 262 263 261
f 261 263 264
f 266 267 265
f 265 267 268
f 270 271 269
f 269 271 272
f 273 274 276
f 276 274 275
f 277 278 280
f 280 278 279
f 282 283 281
f 281 283 284
f 285 286 288
f 288 286 287
f 289 290 292
f 292 290 291
f 294 295 293
f 293 295 296
f 298 299 297
f 297 299 300
f 302 303 301
f 301 303 304
f 305 306 308
f 308 306 307
f 309 310 312
f 312 310 311
f 314 315 313
f 313 315 316
f 317 318 320
f 320 318 319
f 321 322 324
f 324 322 323
f 326 327 325
f 325 327 328
f 330 331 329
f 329 331 332
f 334 335 333
f 333 335 336
f 337 338 340
f 340 338 339
f 341 342 344
f 344 342 343
f 346 347 345
f 345 347 348
f 349 350 352
f 352 350 351
f 353 354 356
f 356 354 355
f 358 359 357
f 357 359 360
f 362 363 361
f 361 363 364
f 366 367 365
f 365 367 368
f 369 370 372
f 372 370 371
f 373 374 376
f 376 374 375
f 378 379 377
f 377 379 380
f 381 382 384
f 384 382 383
f 385 386 388
f 388 386 387
f 390 391 389
f 389 391 392
f 394 395 393
f 393 395 396
f 398 399 397
f 397 399 400
f 401 402 404
f 404 402 403
f 405 406 408
f 408 406 407
f 410 411 409
f 409 411 412
f 413 414 416
f 416 414 415
f 417 418 420
f 420 418 419
f 422 423 421
f 421 423 424
f 426 427 425
f 425 427 428
f 430 431 429
f 429 431 432
f 433 434 436
f 436 434 435
f 437 438 440
f 440 438 439
f 442 443 441
f 441 443 444
f 445 446 448
f 448 446 447
f 449 450 452
f 452 450 451
f 454 455 453
f 453 455 456
f 458 459 457
f 457 459 460
f 462 463 461
f 461 463 464
f 465 466 468
f 468 466 467
f 469 470 472
f 472 470 471
f 474 475 473
f 473 475 476
f 477 478 480
f 480 478 479
f 481 482 484
f 484 482 483
f 486 487 485
f 485 487 488
f 490 491 489
f 489 491 492
f 494 495 493
f 493 495 496
f 497 498 500
f 500 498 499
f 501 502 504
f 504 502 503
f 505 506 508
f 508 506 507
f 510 511 509
f 509 511 512
f 514 515 513
f 513 515 516
f 518 519 517
f 517 519 520
f 521 522 524
f 524 522 523
f 526 527 525
f 525 527 528
f 529 530 532
f 532 530 531
f 533 534 536
f 536 534 535
f 537 538 540
f 540 538 539
f 541 542 544
f 544 542 543
f 546 547 545
f 545 547 548
f 549 550 672
f 672 550 671
f 671 550 551
f 671 551 554
f 554 551 552
f 554 552 553
f 554 555 671
f 671 555 558
f 671 558 559
f 555 556 558
f 558 556 557
f 671 559 562
f 562 559 560
f 562 560 561
f 562 563 671
f 671 563 566
f 671 566 567
f 563 564 566
f 566 564 565
f 671 567 570
f 570 567 568
f 570 568 569
f 570 571 671
f 671 571 574
f 671 574 575
f 571 572 574
f 574 572 573
f 671 575 578
f 578 575 576
f 578 576 577
f 578 579 671
f 671 579 582
f 671 582 583
f 579 580 582
f 582 580 581
f 671 583 586
f 586 583 584
f 586 584 585
f 586 587 671
f 671 587 590
f 671 590 591
f 587 588 590
f 590 588 589
f 671 591 594
f 594 591 592
f 594 592 593
f 594 595 671
f 671 595 598
f 671 598 599
f 595 596 598
f 598 596 597
f 671 599 602
f 602 599 600
f 602 600 601
f 602 603 671
f 671 603 606
f 671 606 607
f 603 604 606
f 606 604 605
f 608 610 607
f 607 610 670
f 607 670 671
f 608 609 610
f 610 611 670
f 670 611 614
f 670 614 615
f 611 612 614
f 614 612 613
f 670 615 618
f 618 615 616
f 618 616 617
f 618 619 670
f 670 619 622
f 670 622 623
f 619 620 622
f 622 620 621
f 670 623 626
f 626 623 624
f 626 624 625
f 626 627 670
f 670 627 630
f 670 630 631
f 627 628 630
f 630 628 629
f 670 631 634
f 634 631 632
f 634 632 633
f 634 635 670
f 670 635 638
f 670 638 639
f 635 636 638
f 638 636 637
f 670 639 642
f 642 639 640
f 642 640 641
f 642 643 670
f 670 643 646
f 670 646 647
f 643 644 646
f 646 644 645
f 670 647 650
f 650 647 648
f 650 648 649
f 650 651 670
f 670 651 654
f 670 654 655
f 651 652 654
f 654 652 653
f 670 655 658
f 658 655 656
f 658 656 657
f 658 659 670
f 670 659 662
f 670 662 663
f 659 660 662
f 662 660 661
f 670 663 666
f 666 663 664
f 666 664 665
f 666 667 670
f 670 667 669
f 669 667 668
f 674 675 673
f 673 675 676
f 673 676 796
f 796 676 793
f 796 793 794
f 677 740 676
f 676 740 741
f 676 741 744
f 744 741 742
f 744 742 743
f 678 680 677
f 677 680 681
f 677 681 684
f 684 681 682
f 684 682 683
f 678 679 680
f 684 685 677
f 677 685 688
f 677 688 689
f 685 686 688
f 688 686 687
f 677 689 692
f 692 689 690
f 692 690 691
f 692 693 677
f 677 693 696
f 677 696 697
f 693 694 696
f 696 694 695
f 677 697 700
f 700 697 698
f 700 698 699
f 700 701 677
f 677 701 704
f 677 704 705
f 701 702 704
f 704 702 703
f 677 705 708
f 708 705 706
f 708 706 707
f 708 709 677
f 677 709 712
f 677 712 713
f 709 710 712
f 712 710 711
f 677 713 716
f 716 713 714
f 716 714 715
f 716 717 677
f 677 717 720
f 677 720 721
f 717 718 720
f 720 718 719
f 677 721 724
f 724 721 722
f 724 722 723
f 724 725 677
f 677 725 728
f 677 728 729
f 725 726 728
f 728 726 727
f 677 729 732
f 732 729 730
f 732 730 731
f 732 733 677
f 677 733 736
f 677 736 737
f 733 734 736
f 736 734 735
f 677 737 740
f 740 737 738
f 740 738 739
f 744 745 676
f 676 745 748
f 676 748 749
f 745 746 748
f 748 746 747
f 676 749 752
f 752 749 750
f 752 750 751
f 752 753 676
f 676 753 756
f 676 756 757
f 753 754 756
f 756 754 755
f 676 757 760
f 760 757 758
f 760 758 759
f 760 761 676
f 676 761 764
f 676 764 765
f 761 762 764
f 764 762 763
f 676 765 768
f 768 765 766
f 768 766 767
f 768 769 676
f 676 769 772
f 676 772 773
f 769 770 772
f 772 770 771
f 676 773 776
f 776 773 774
f 776 774 775
f 776 777 676
f 676 777 780
f 676 780 781
f 777 778 780
f 780 778 779
f 676 781 784
f 784 781 782
f 784 782 783
f 784 785 676
f 676 785 788
f 676 788 789
f 785 786 788
f 788 786 787
f 676 789 792
f 792 789 790
f 792 790 791
f 792 793 676
f 794 795 796
f 797 798 800
f 800 798 799
f 801 802 804
f 804 802 803
f 806 807 805
f 805 807 808
f 810 811 809
f 809 811 812
f 814 815 813
f 813 815 816
v -0.186 -0.043499999 0.166
v -0.157 -0.043499999 0.166
v -0.157 -0.040999999 0.166
v -0.186 -0.040999999 0.166
v -0.157 -0.043499999 0.1678
v -0.186 -0.043499999 0.1678
v -0.186 -0.040999999 0.1678
v -0.157 -0.040999999 0.1678
v -0.157 -0.043499999 0.166
v -0.186 -0.043499999 0.166
v -0.186 -0.043499999 0.1643
v -0.157 -0.043499999 0.1643
v -0.186 -0.040999999 0.166
v -0.157 -0.040999999 0.166
v -0.157 -0.040999999 0.1678
v -0.186 -0.040999999 0.1678
v -0.157 -0.043499999 0.1643
v -0.186 -0.043499999 0.1643
v -0.186 -0.040999999 0.1643
v -0.157 -0.040999999 0.1643
v -0.157 -0.043499999 0.1695
v -0.186 -0.043499999 0.1695
v -0.186 -0.043499999 0.1678
v -0.157 -0.043499999 0.1678
v -0.186 -0.040999999 0.1625
v -0.157 -0.040999999 0.1625
v -0.157 -0.040999999 0.1643
v -0.186 -0.040999999 0.1643
v -0.186 -0.043499999 0.1695
v -0.157 -0.043499999 0.1695
v -0.157 -0.040999999 0.1695
v -0.186 -0.040999999 0.1695
v -0.186 -0.043499999 0.1625
v -0.157 -0.043499999 0.1625
v -0.157 -0.040999999 0.1625
v -0.186 -0.040999999 0.1625
v -0.157 -0.043499999 0.1713
v -0.186 -0.043499999 0.1713
v -0.186 -0.040999999 0.1713
v -0.157 -0.040999999 0.1713
v -0.157 -0.043499999 0.1625
v -0.186 -0.043499999 0.1625
v -0.186 -0.043499999 0.1608
v -0.157 -0.043499999 0.1608
v -0.186 -0.040999999 0.1695
v -0.157 -0.040999999 0.1695
v -0.157 -0.040999999 0.1713
v -0.186 -0.040999999 0.1713
v -0.157 -0.043499999 0.1608
v -0.186 -0.043499999 0.1608
v -0.186 -0.040999999 0.1608
v -0.157 -0.040999999 0.1608
v -0.157 -0.043499999 0.173
v -0.186 -0.043499999 0.173
v -0.186 -0.043499999 0.1713
v -0.157 -0.043499999 0.1713
v -0.186 -0.040999999 0.159
v -0.157 -0.040999999 0.159
v -0.157 -0.040999999 0.1608
v -0.186 -0.040999999 0.1608
v -0.186 -0.043499999 0.173
v -0.157 -0.043499999 0.173
v -0.157 -0.040999999 0.173
v -0.186 -0.040999999 0.173
v -0.186 -0.043499999 0.159
v -0.157 -0.043499999 0.159
v -0.157 -0.040999999 0.159
v -0.186 -0.040999999 0.159
v -0.157 -0.043499999 0.1748
v -0.186 -0.043499999 0.1748
v -0.186 -0.040999999 0.1748
v -0.157 -0.040999999 0.1748
v -0.157 -0.043499999 0.159
v -0.186 -0.043499999 0.159
v -0.186 -0.043499999 0.1573
v -0.157 -0.043499999 0.1573
v -0.186 -0.040999999 0.173
v -0.157 -0.040999999 0.173
v -0.157 -0.040999999 0.1748
v -0.186 -0.040999999 0.1748
v -0.157 -0.043499999 0.1573
v -0.186 -0.043499999 0.1573
v -0.186 -0.040999999 0.1573
v -0.157 -0.040999999 0.1573
v -0.157 -0.043499999 0.1765
v -0.186 -0.043499999 0.1765
v -0.186 -0.043499999 0.1748
v -0.157 -0.043499999 0.1748
v -0.186 -0.040999999 0.1555
v -0.157 -0.040999999 0.1555
v -0.157 -0.040999999 0.1573
v -0.186 -0.040999999 0.1573
v -0.186 -0.043499999 0.1765
v -0.157 -0.043499999 0.1765
v -0.157 -0.040999999 0.1765
v -0.186 -0.040999999 0.1765
v -0.186 -0.043499999 0.1555
v -0.157 -0.043499999 0.1555
v -0.157 -0.040999999 0.1555
v -0.186 -0.040999999 0.1555
v -0.157 -0.043499999 0.1783
v -0.186 -0.043499999 0.1783
v -0.186 -0.040999999 0.1783
v -0.157 -0.040999999 0.1783
v -0.157 -0.043499999 0.1555
v -0.186 -0.043499999 0.1555
v -0.186 -0.043499999 0.1538
v -0.157 -0.043499999 0.1538
v -0.186 -0.040999999 0.1765
v -0.157 -0.040999999 0.1765
v -0.157 -0.040999999 0.1783
v -0.186 -0.040999999 0.1783
v -0.157 -0.043499999 0.1538
v -0.186 -0.043499999 0.1538
v -0.186 -0.040999999 0.1538
v -0.157 -0.040999999 0.1538
v -0.157 -0.043499999 0.18
v -0.186 -0.043499999 0.18
v -0.186 -0.043499999 0.1783
v -0.157 -0.043499999 0.1783
v -0.186 -0.040999999 0.152
v -0.157 -0.040999999 0.152
v -0.157 -0.040999999 0.1538
v -0.186 -0.040999999 0.1538
v -0.186 -0.043499999 0.18
v -0.157 -0.043499999 0.18
v -0.157 -0.040999999 0.18
v -0.186 -0.040999999 0.18
v -0.186 -0.043499999 0.152
v -0.157 -0.043499999 0.152
v -0.157 -0.040999999 0.152
v -0.186 -0.040999999 0.152
v -0.157 -0.043499999 0.1818
v -0.186 -0.043499999 0.1818
v -0.186 -0.040999999 0.1818
v -0.157 -0.040999999 0.1818
v -0.157 -0.043499999 0.152
v -0.186 -0.043499999 0.152
v -0.186 -0.043499999 0.1503
v -0.157 -0.043499999 0.1503
v -0.186 -0.040999999 0.18
v -0.157 -0.040999999 0.18
v -0.157 -0.040999999 0.1818
v -0.186 -0.040999999 0.1818
v -0.157 -0.043499999 0.1503
v -0.186 -0.043499999 0.1503
v -0.186 -0.040999999 0.1503
v -0.157 -0.040999999 0.1503
v -0.157 -0.043499999 0.1835
v -0.186 -0.043499999 0.1835
v -0.186 -0.043499999 0.1818
v -0.157 -0.043499999 0.1818
v -0.186 -0.040999999 0.1485
v -0.157 -0.040999999 0.1485
v -0.157 -0.040999999 0.1503
v -0.186 -0.040999999 0.1503
v -0.186 -0.043499999 0.1835
v -0.157 -0.043499999 0.1835
v -0.157 -0.040999999 0.1835
v -0.186 -0.040999999 0.1835
v -0.186 -0.043499999 0.1485
v -0.157 -0.043499999 0.1485
v -0.157 -0.040999999 0.1485
v -0.186 -0.040999999 0.1485
v -0.157 -0.043499999 0.1853
v -0.186 -0.043499999 0.1853
v -0.186 -0.040999999 0.1853
v -0.157 -0.040999999 0.1853
v -0.157 -0.043499999 0.1485
v -0.186 -0.043499999 0.1485
v -0.186 -0.043499999 0.1468
v -0.157 -0.043499999 0.1468
v -0.186 -0.040999999 0.1835
v -0.157 -0.040999999 0.1835
v -0.157 -0.040999999 0.1853
v -0.186 -0.040999999 0.1853
v -0.157 -0.043499999 0.1468
v -0.186 -0.043499999 0.1468
v -0.186 -0.040999999 0.1468
v -0.157 -0.040999999 0.1468
v -0.157 -0.043499999 0.187
v -0.186 -0.043499999 0.187
v -0.186 -0.043499999 0.1853
v -0.157 -0.043499999 0.1853
v -0.186 -0.040999999 0.145
v -0.157 -0.040999999 0.145
v -0.157 -0.040999999 0.1468
v -0.186 -0.040999999 0.1468
v -0.186 -0.043499999 0.187
v -0.157 -0.043499999 0.187
v -0.157 -0.040999999 0.187
v -0.186 -0.040999999 0.187
v -0.186 -0.043499999 0.145
v -0.157 -0.043499999 0.145
v -0.157 -0.040999999 0.145
v -0.186 -0.040999999 0.145
v -0.157 -0.043499999 0.1888
v -0.186 -0.043499999 0.1888
v -0.186 -0.040999999 0.1888
v -0.157 -0.040999999 0.1888
v -0.157 -0.043499999 0.145
v -0.186 -0.043499999 0.145
v -0.186 -0.043499999 0.1433
v -0.157 -0.043499999 0.1433
v -0.186 -0.040999999 0.187
v -0.157 -0.040999999 0.187
v -0.157 -0.040999999 0.1888
v -0.186 -0.040999999 0.1888
v -0.157 -0.043499999 0.1433
v -0.186 -0.043499999 0.1433
v -0.186 -0.040999999 0.1433
v -0.157 -0.040999999 0.1433
v -0.157 -0.043499999 0.1905
v -0.186 -0.043499999 0.1905
v -0.186 -0.043499999 0.1888
v -0.157 -0.043499999 0.1888
v -0.186 -0.040999999 0.1415
v -0.157 -0.040999999 0.1415
v -0.157 -0.040999999 0.1433
v -0.186 -0.040999999 0.1433
v -0.186 -0.043499999 0.1905
v -0.157 -0.043499999 0.1905
v -0.157 -0.040999999 0.1905
v -0.186 -0.040999999 0.1905
v -0.186 -0.043499999 0.1415
v -0.157 -0.043499999 0.1415
v -0.157 -0.040999999 0.1415
v -0.186 -0.040999999 0.1415
v -0.157 -0.043499999 0.1923
v -0.186 -0.043499999 0.1923
v -0.186 -0.040999999 0.1923
v -0.157 -0.040999999 0.1923
v -0.157 -0.043499999 0.1415
v -0.186 -0.043499999 0.1415
v -0.186 -0.043499999 0.1398
v -0.157 -0.043499999 0.1398
v -0.186 -0.040999999 0.1905
v -0.157 -0.040999999 0.1905
v -0.157 -0.040999999 0.1923
v -0.186 -0.040999999 0.1923
v -0.157 -0.043499999 0.1398
v -0.186 -0.043499999 0.1398
v -0.186 -0.040999999 0.1398
v -0.157 -0.040999999 0.1398
v -0.157 -0.043499999 0.194
v -0.186 -0.043499999 0.194
v -0.186 -0.043499999 0.1923
v -0.157 -0.043499999 0.1923
v -0.186 -0.040999999 0.138
v -0.157 -0.040999999 0.138
v -0.157 -0.040999999 0.1398
v -0.186 -0.040999999 0.1398
v -0.186 -0.043499999 0.194
v -0.157 -0.043499999 0.194
v -0.157 -0.040999999 0.194
v -0.186 -0.040999999 0.194
v -0.186 -0.043499999 0.138
v -0.157 -0.043499999 0.138
v -0.157 -0.040999999 0.138
v -0.186 -0.040999999 0.138
v -0.157 -0.043499999 0.1958
v -0.186 -0.043499999 0.1958
v -0.186 -0.040999999 0.1958
v -0.157 -0.040999999 0.1958
v -0.157 -0.043499999 0.138
v -0.186 -0.043499999 0.138
v -0.186 -0.043499999 0.1363
v -0.157 -0.043499999 0.1363
v -0.186 -0.040999999 0.194
v -0.157 -0.040999999 0.194
v -0.157 -0.040999999 0.1958
v -0.186 -0.040999999 0.1958
v -0.157 -0.043499999 0.1363
v -0.186 -0.043499999 0.1363
v -0.186 -0.040999999 0.1363
v -0.157 -0.040999999 0.1363
v -0.157 -0.043499999 0.1975
v -0.186 -0.043499999 0.1975
v -0.186 -0.043499999 0.1958
v -0.157 -0.043499999 0.1958
v -0.186 -0.040999999 0.1345
v -0.157 -0.040999999 0.1345
v -0.157 -0.040999999 0.1363
v -0.186 -0.040999999 0.1363
v -0.186 -0.043499999 0.1975
v -0.157 -0.043499999 0.1975
v -0.157 -0.040999999 0.1975
v -0.186 -0.040999999 0.1975
v -0.186 -0.043499999 0.1345
v -0.157 -0.043499999 0.1345
v -0.157 -0.040999999 0.1345
v -0.186 -0.040999999 0.1345
v -0.157 -0.043499999 0.1993
v -0.186 -0.043499999 0.1993
v -0.186 -0.040999999 0.1993
v -0.157 -0.040999999 0.1993
v -0.157 -0.043499999 0.1345
v -0.186 -0.043499999 0.1345
v -0.186 -0.043499999 0.1328
v -0.157 -0.043499999 0.1328
v -0.186 -0.040999999 0.1975
v -0.157 -0.040999999 0.1975
v -0.157 -0.040999999 0.1993
v -0.186 -0.040999999 0.1993
v -0.157 -0.043499999 0.1328
v -0.186 -0.043499999 0.1328
v -0.186 -0.040999999 0.1328
v -0.157 -0.040999999 0.1328
v -0.157 -0.043499999 0.201
v -0.186 -0.043499999 0.201
v -0.186 -0.043499999 0.1993
v -0.157 -0.043499999 0.1993
v -0.186 -0.040999999 0.131
v -0.157 -0.040999999 0.131
v -0.157 -0.040999999 0.1328
v -0.186 -0.040999999 0.1328
v -0.186 -0.043499999 0.201
v -0.157 -0.043499999 0.201
v -0.157 -0.040999999 0.201
v -0.186 -0.040999999 0.201
v -0.186 -0.043499999 0.131
v -0.157 -0.043499999 0.131
v -0.157 -0.040999999 0.131
v -0.186 -0.040999999 0.131
v -0.157 -0.043499999 0.2028
v -0.186 -0.043499999 0.2028
v -0.186 -0.040999999 0.2028
v -0.157 -0.040999999 0.2028
v -0.157 -0.043499999 0.131
v -0.186 -0.043499999 0.131
v -0.186 -0.043499999 0.1293
v -0.157 -0.043499999 0.1293
v -0.186 -0.040999999 0.201
v -0.157 -0.040999999 0.201
v -0.157 -0.040999999 0.2028
v -0.186 -0.040999999 0.2028
v -0.157 -0.043499999 0.1293
v -0.186 -0.043499999 0.1293
v -0.186 -0.040999999 0.1293
v -0.157 -0.040999999 0.1293
v -0.157 -0.043499999 0.2045
v -0.186 -0.043499999 0.2045
v -0.186 -0.043499999 0.2028
v -0.157 -0.043499999 0.2028
v -0.186 -0.040999999 0.1275
v -0.157 -0.040999999 0.1275
v -0.157 -0.040999999 0.1293
v -0.186 -0.040999999 0.1293
v -0.186 -0.043499999 0.2045
v -0.157 -0.043499999 0.2045
v -0.157 -0.040999999 0.2045
v -0.186 -0.040999999 0.2045
v -0.186 -0.043499999 0.1275
v -0.157 -0.043499999 0.1275
v -0.157 -0.040999999 0.1275
v -0.186 -0.040999999 0.1275
v -0.157 -0.043499999 0.2063
v -0.186 -0.043499999 0.2063
v -0.186 -0.040999999 0.2063
v -0.157 -0.040999999 0.2063
v -0.157 -0.043499999 0.1275
v -0.186 -0.043499999 0.1275
v -0.186 -0.043499999 0.1258
v -0.157 -0.043499999 0.1258
v -0.186 -0.040999999 0.2045
v -0.157 -0.040999999 0.2045
v -0.157 -0.040999999 0.2063
v -0.186 -0.040999999 0.2063
v -0.157 -0.043499999 0.1258
v -0.186 -0.043499999 0.1258
v -0.186 -0.040999999 0.1258
v -0.157 -0.040999999 0.1258
v -0.157 -0.043499999 0.208
v -0.186 -0.043499999 0.208
v -0.186 -0.043499999 0.2063
v -0.157 -0.043499999 0.2063
v -0.186 -0.040999999 0.124
v -0.157 -0.040999999 0.124
v -0.157 -0.040999999 0.1258
v -0.186 -0.040999999 0.1258
v -0.186 -0.043499999 0.208
v -0.157 -0.043499999 0.208
v -0.157 -0.040999999 0.208
v -0.186 -0.040999999 0.208
v -0.186 -0.043499999 0.124
v -0.157 -0.043499999 0.124
v -0.157 -0.040999999 0.124
v -0.186 -0.040999999 0.124
v -0.157 -0.043499999 0.2098
v -0.186 -0.043499999 0.2098
v -0.186 -0.040999999 0.2098
v -0.157 -0.040999999 0.2098
v -0.157 -0.043499999 0.124
v -0.186 -0.043499999 0.124
v -0.186 -0.043499999 0.1223
v -0.157 -0.043499999 0.1223
v -0.186 -0.040999999 0.208
v -0.157 -0.040999999 0.208
v -0.157 -0.040999999 0.2098
v -0.186 -0.040999999 0.2098
v -0.157 -0.043499999 0.1223
v -0.186 -0.043499999 0.1223
v -0.186 -0.040999999 0.1223
v -0.157 -0.040999999 0.1223
v -0.157 -0.043499999 0.2115
v -0.186 -0.043499999 0.2115
v -0.186 -0.043499999 0.2098
v -0.157 -0.043499999 0.2098
v -0.186 -0.040999999 0.1205
v -0.157 -0.040999999 0.1205
v -0.157 -0.040999999 0.1223
v -0.186 -0.040999999 0.1223
v -0.186 -0.043499999 0.2115
v -0.157 -0.043499999 0.2115
v -0.157 -0.040999999 0.2115
v -0.186 -0.040999999 0.2115
v -0.157 -0.043499999 0.2133
v -0.186 -0.043499999 0.2133
v -0.186 -0.040999999 0.2133
v -0.157 -0.040999999 0.2133
v -0.186 -0.040999999 0.2115
v -0.157 -0.040999999 0.2115
v -0.157 -0.040999999 0.2133
v -0.186 -0.040999999 0.2133
v -0.186 -0.043499999 0.1205
v -0.157 -0.043499999 0.1205
v -0.157 -0.040999999 0.1205
v -0.186 -0.040999999 0.1205
v -0.157 -0.043499999 0.215
v -0.186 -0.043499999 0.215
v -0.186 -0.043499999 0.2133
v -0.157 -0.043499999 0.2133
v -0.186 -0.043499999 0.215
v -0.157 -0.043499999 0.215
v -0.157 -0.040999999 0.215
v -0.186 -0.040999999 0.215
v -0.157 -0.043499999 0.2168
v -0.186 -0.043499999 0.2168
v -0.186 -0.040999999 0.2168
v -0.157 -0.040999999 0.2168
v -0.157 -0.043499999 0.1195
v -0.186 -0.043499999 0.1195
v -0.186 -0.038000002 0.1195
v -0.157 -0.038000002 0.1195
v -0.186 -0.040999999 0.215
v -0.157 -0.040999999 0.215
v -0.157 -0.040999999 0.2168
v -0.186 -0.040999999 0.2168
v -0.186 -0.043499999 0.2265
v -0.157 -0.043499999 0.2265
v -0.157 -0.038000002 0.2265
v -0.186 -0.038000002 0.2265
v -0.157 -0.043499999 0.2185
v -0.186 -0.043499999 0.2185
v -0.186 -0.043499999 0.2168
v -0.157 -0.043499999 0.2168
v -0.157 -0.038000002 0.1195
v -0.186 -0.038000002 0.1195
v -0.186 -0.038000002 0.2265
v -0.157 -0.038000002 0.2265
v -0.157 -0.043499999 0.1205
v -0.186 -0.043499999 0.1205
v -0.186 -0.043499999 0.1195
v -0.157 -0.043499999 0.1195
v -0.157 -0.043499999 0.2203
v -0.186 -0.043499999 0.2203
v -0.186 -0.040999999 0.2203
v -0.157 -0.040999999 0.2203
v -0.186 -0.043499999 0.222
v -0.157 -0.043499999 0.222
v -0.157 -0.040999999 0.222
v -0.186 -0.040999999 0.222
v -0.157 -0.043499999 0.222
v -0.186 -0.043499999 0.222
v -0.186 -0.043499999 0.2203
v -0.157 -0.043499999 0.2203
v -0.186 -0.043499999 0.2185
v -0.157 -0.043499999 0.2185
v -0.157 -0.040999999 0.2185
v -0.186 -0.040999999 0.2185
v -0.186 -0.043499999 0.2238
v -0.157 -0.043499999 0.2238
v -0.157 -0.043499999 0.2265
v -0.186 -0.043499999 0.2265
v -0.186 -0.040999999 0.2185
v -0.157 -0.040999999 0.2185
v -0.157 -0.040999999 0.2203
v -0.186 -0.040999999 0.2203
v -0.157 -0.040999999 0.222
v -0.157 -0.043499999 0.222
v -0.157 -0.043499999 0.2203
v -0.157 -0.040999999 0.2203
v -0.157 -0.040999999 0.2185
v -0.157 -0.043499999 0.2185
v -0.157 -0.043499999 0.2168
v -0.157 -0.040999999 0.2168
v -0.157 -0.040999999 0.215
v -0.157 -0.043499999 0.215
v -0.157 -0.043499999 0.2133
v -0.157 -0.040999999 0.2133
v -0.157 -0.040999999 0.2115
v -0.157 -0.043499999 0.2115
v -0.157 -0.043499999 0.2098
v -0.157 -0.040999999 0.2098
v -0.157 -0.040999999 0.208
v -0.157 -0.043499999 0.208
v -0.157 -0.043499999 0.2063
v -0.157 -0.040999999 0.2063
v -0.157 -0.040999999 0.2045
v -0.157 -0.043499999 0.2045
v -0.157 -0.043499999 0.2028
v -0.157 -0.040999999 0.2028
v -0.157 -0.040999999 0.201
v -0.157 -0.043499999 0.201
v -0.157 -0.043499999 0.1993
v -0.157 -0.040999999 0.1993
v -0.157 -0.040999999 0.1975
v -0.157 -0.043499999 0.1975
v -0.157 -0.043499999 0.1958
v -0.157 -0.040999999 0.1958
v -0.157 -0.040999999 0.194
v -0.157 -0.043499999 0.194
v -0.157 -0.043499999 0.1923
v -0.157 -0.040999999 0.1923
v -0.157 -0.040999999 0.1905
v -0.157 -0.043499999 0.1905
v -0.157 -0.043499999 0.1888
v -0.157 -0.040999999 0.1888
v -0.157 -0.040999999 0.187
v -0.157 -0.043499999 0.187
v -0.157 -0.043499999 0.1853
v -0.157 -0.040999999 0.1853
v -0.157 -0.040999999 0.1835
v -0.157 -0.043499999 0.1835
v -0.157 -0.043499999 0.1818
v -0.157 -0.040999999 0.1818
v -0.157 -0.040999999 0.18
v -0.157 -0.043499999 0.18
v -0.157 -0.043499999 0.1783
v -0.157 -0.040999999 0.1783
v -0.157 -0.040999999 0.1765
v -0.157 -0.043499999 0.1765
v -0.157 -0.043499999 0.1748
v -0.157 -0.040999999 0.1748
v -0.157 -0.040999999 0.173
v -0.157 -0.043499999 0.173
v -0.157 -0.043499999 0.1713
v -0.157 -0.040999999 0.1713
v -0.157 -0.040999999 0.1695
v -0.157 -0.043499999 0.1695
v -0.157 -0.043499999 0.1678
v -0.157 -0.040999999 0.1678
v -0.157 -0.040999999 0.166
v -0.157 -0.043499999 0.166
v -0.157 -0.043499999 0.1643
v -0.157 -0.040999999 0.1643
v -0.157 -0.040999999 0.1625
v -0.157 -0.043499999 0.1625
v -0.157 -0.043499999 0.1608
v -0.157 -0.040999999 0.1608
v -0.157 -0.040999999 0.159
v -0.157 -0.043499999 0.159
v -0.157 -0.043499999 0.1573
v -0.157 -0.040999999 0.1573
v -0.157 -0.040999999 0.1555
v -0.157 -0.043499999 0.1555
v -0.157 -0.043499999 0.1538
v -0.157 -0.040999999 0.1538
v -0.157 -0.040999999 0.152
v -0.157 -0.043499999 0.152
v -0.157 -0.043499999 0.1503
v -0.157 -0.040999999 0.1503
v -0.157 -0.040999999 0.1485
v -0.157 -0.043499999 0.1485
v -0.157 -0.043499999 0.1468
v -0.157 -0.040999999 0.1468
v -0.157 -0.040999999 0.145
v -0.157 -0.043499999 0.145
v -0.157 -0.043499999 0.1433
v -0.157 -0.040999999 0.1433
v -0.157 -0.040999999 0.1415
v -0.157 -0.043499999 0.1415
v -0.157 -0.043499999 0.1398
v -0.157 -0.040999999 0.1398
v -0.157 -0.040999999 0.138
v -0.157 -0.043499999 0.138
v -0.157 -0.043499999 0.1363
v -0.157 -0.040999999 0.1363
v -0.157 -0.040999999 0.1345
v -0.157 -0.043499999 0.1345
v -0.157 -0.043499999 0.1328
v -0.157 -0.040999999 0.1328
v -0.157 -0.040999999 0.131
v -0.157 -0.043499999 0.131
v -0.157 -0.043499999 0.1293
v -0.157 -0.040999999 0.1293
v -0.157 -0.040999999 0.1275
v -0.157 -0.043499999 0.1275
v -0.157 -0.043499999 0.1258
v -0.157 -0.040999999 0.1258
v -0.157 -0.040999999 0.124
v -0.157 -0.043499999 0.124
v -0.157 -0.043499999 0.1223
v -0.157 -0.040999999 0.1223
v -0.157 -0.040999999 0.1205
v -0.157 -0.043499999 0.1205
v -0.157 -0.043499999 0.1195
v -0.157 -0.038000002 0.1195
v -0.157 -0.038000002 0.2265
v -0.157 -0.043499999 0.2265
v -0.157 -0.043499999 0.2238
v -0.157 -0.040999999 0.2238
v -0.157 -0.043499999 0.2238
v -0.186 -0.043499999 0.2238
v -0.186 -0.040999999 0.2238
v -0.157 -0.040999999 0.2238
v -0.186 -0.040999999 0.222
v -0.157 -0.040999999 0.222
v -0.157 -0.040999999 0.2238
v -0.186 -0.040999999 0.2238
v -0.186 -0.040999999 0.2238
v -0.186 -0.043499999 0.2238
v -0.186 -0.043499999 0.2265
v -0.186 -0.038000002 0.2265
v -0.186 -0.038000002 0.1195
v -0.186 -0.043499999 0.1195
v -0.186 -0.043499999 0.1205
v -0.186 -0.040999999 0.1205
v -0.186 -0.040999999 0.1223
v -0.186 -0.043499999 0.1223
v -0.186 -0.043499999 0.124
v -0.186 -0.040999999 0.124
v -0.186 -0.040999999 0.1258
v -0.186 -0.043499999 0.1258
v -0.186 -0.043499999 0.1275
v -0.186 -0.040999999 0.1275
v -0.186 -0.040999999 0.1293
v -0.186 -0.043499999 0.1293
v -0.186 -0.043499999 0.131
v -0.186 -0.040999999 0.131
v -0.186 -0.040999999 0.1328
v -0.186 -0.043499999 0.1328
v -0.186 -0.043499999 0.1345
v -0.186 -0.040999999 0.1345
v -0.186 -0.040999999 0.1363
v -0.186 -0.043499999 0.1363
v -0.186 -0.043499999 0.138
v -0.186 -0.040999999 0.138
v -0.186 -0.040999999 0.1398
v -0.186 -0.043499999 0.1398
v -0.186 -0.043499999 0.1415
v -0.186 -0.040999999 0.1415
v -0.186 -0.040999999 0.1433
v -0.186 -0.043499999 0.1433
v -0.186 -0.043499999 0.145
v -0.186 -0.040999999 0.145
v -0.186 -0.040999999 0.1468
v -0.186 -0.043499999 0.1468
v -0.186 -0.043499999 0.1485
v -0.186 -0.040999999 0.1485
v -0.186 -0.040999999 0.1503
v -0.186 -0.043499999 0.1503
v -0.186 -0.043499999 0.152
v -0.186 -0.040999999 0.152
v -0.186 -0.040999999 0.1538
v -0.186 -0.043499999 0.1538
v -0.186 -0.043499999 0.1555
v -0.186 -0.040999999 0.1555
v -0.186 -0.040999999 0.1573
v -0.186 -0.043499999 0.1573
v -0.186 -0.043499999 0.159
v -0.186 -0.040999999 0.159
v -0.186 -0.040999999 0.1608
v -0.186 -0.043499999 0.1608
v -0.186 -0.043499999 0.1625
v -0.186 -0.040999999 0.1625
v -0.186 -0.040999999 0.1643
v -0.186 -0.043499999 0.1643
v -0.186 -0.043499999 0.166
v -0.186 -0.040999999 0.166
v -0.186 -0.040999999 0.1678
v -0.186 -0.043499999 0.1678
v -0.186 -0.043499999 0.1695
v -0.186 -0.040999999 0.1695
v -0.186 -0.040999999 0.1713
v -0.186 -0.043499999 0.1713
v -0.186 -0.043499999 0.173
v -0.186 -0.040999999 0.173
v -0.186 -0.040999999 0.1748
v -0.186 -0.043499999 0.1748
v -0.186 -0.043499999 0.1765
v -0.186 -0.040999999 0.1765
v -0.186 -0.040999999 0.1783
v -0.186 -0.043499999 0.1783
v -0.186 -0.043499999 0.18
v -0.186 -0.040999999 0.18
v -0.186 -0.040999999 0.1818
v -0.186 -0.043499999 0.1818
v -0.186 -0.043499999 0.1835
v -0.186 -0.040999999 0.1835
v -0.186 -0.040999999 0.1853
v -0.186 -0.043499999 0.1853
v -0.186 -0.043499999 0.187
v -0.186 -0.040999999 0.187
v -0.186 -0.040999999 0.1888
v -0.186 -0.043499999 0.1888
v -0.186 -0.043499999 0.1905
v -0.186 -0.040999999 0.1905
v -0.186 -0.040999999 0.1923
v -0.186 -0.043499999 0.1923
v -0.186 -0.043499999 0.194
v -0.186 -0.040999999 0.194
v -0.186 -0.040999999 0.1958
v -0.186 -0.043499999 0.1958
v -0.186 -0.043499999 0.1975
v -0.186 -0.040999999 0.1975
v -0.186 -0.040999999 0.1993
v -0.186 -0.043499999 0.1993
v -0.186 -0.043499999 0.201
v -0.186 -0.040999999 0.201
v -0.186 -0.040999999 0.2028
v -0.186 -0.043499999 0.2028
v -0.186 -0.043499999 0.2045
v -0.186 -0.040999999 0.2045
v -0.186 -0.040999999 0.2063
v -0.186 -0.043499999 0.2063
v -0.186 -0.043499999 0.208
v -0.186 -0.040999999 0.208
v -0.186 -0.040999999 0.2098
v -0.186 -0.043499999 0.2098
v -0.186 -0.043499999 0.2115
v -0.186 -0.040999999 0.2115
v -0.186 -0.040999999 0.2133
v -0.186 -0.043499999 0.2133
v -0.186 -0.043499999 0.215
v -0.186 -0.040999999 0.215
v -0.186 -0.040999999 0.2168
v -0.186 -0.043499999 0.2168
v -0.186 -0.043499999 0.2185
v -0.186 -0.040999999 0.2185
v -0.186 -0.040999999 0.2203
v -0.186 -0.043499999 0.2203
v -0.186 -0.043499999 0.222
v -0.186 -0.040999999 0.222
f 818 819 817
f 817 819 820
f 822 823 821
f 821 823 824
f 825 826 828
f 828 826 827
f 829 830 832
f 832 830 831
f 834 835 833
f 833 835 836
f 837 838 840
f 840 838 839
f 841 842 844
f 844 842 843
f 846 847 845
f 845 847 848
f 850 851 849
f 849 851 852
f 854 855 853
f 853 855 856
f 857 858 860
f 860 858 859
f 861 862 864
f 864 862 863
f 866 867 865
f 865 867 868
f 869 870 872
f 872 870 871
f 873 874 876
f 876 874 875
f 878 879 877
f 877 879 880
f 882 883 881
f 881 883 884
f 886 887 885
f 885 887 888
f 889 890 892
f 892 890 891
f 893 894 896
f 896 894 895
f 898 899 897
f 897 899 900
f 901 902 904
f 904 902 903
f 905 906 908
f 908 906 907
f 910 911 909
f 909 911 912
f 914 915 913
f 913 915 916
f 918 919 917
f 917 919 920
f 921 922 924
f 924 922 923
f 925 926 928
f 928 926 927
f 930 931 929
f 929 931 932
f 933 934 936
f 936 934 935
f 937 938 940
f 940 938 939
f 942 943 941
f 941 943 944
f 946 947 945
f 945 947 948
f 950 951 949
f 949 951 952
f 953 954 956
f 956 954 955
f 957 958 960
f 960 958 959
f 962 963 961
f 961 963 964
f 965 966 968
f 968 966 967
f 969 970 972
f 972 970 971
f 974 975 973
f 973 975 976
f 978 979 977
f 977 979 980
f 982 983 981
f 981 983 984
f 985 986 988
f 988 986 987
f 989 990 992
f 992 990 991
f 994 995 993
f 993 995 996
f 997 998 1000
f 1000 998 999
f 1001 1002 1004
f 1004 1002 1003
f 1006 1007 1005
f 1005 1007 1008
f 1010 1011 1009
f 1009 1011 1012
f 1014 1015 1013
f 1013 1015 1016
f 1017 1018 1020
f 1020 1018 1019
f 1021 1022 1024
f 1024 1022 1023
f 1026 1027 1025
f 1025 1027 1028
f 1029 1030 1032
f 1032 1030 1031
f 1033 1034 1036
f 1036 1034 1035
f 1038 1039 1037
f 1037 1039 1040
f 1042 1043 1041
f 1041 1043 1044
f 1046 1047 1045
f 1045 1047 1048
f 1049 1050 1052
f 1052 1050 1051
f 1053 1054 1056
f 1056 1054 1055
f 1058 1059 1057
f 1057 1059 1060
f 1061 1062 1064
f 1064 1062 1063
f 1065 1066 1068
f 1068 1066 1067
f 1070 1071 1069
f 1069 1071 1072
f 1074 1075 1073
f 1073 1075 1076
f 1078 1079 1077
f 1077 1079 1080
f 1081 1082 1084
f 1084 1082 1083
f 1085 1086 1088
f 1088 1086 1087
f 1090 1091 1089
f 1089 1091 1092
f 1093 1094 1096
f 1096 1094 1095
f 1097 1098 1100
f 1100 1098 1099
f 1102 1103 1101
f 1101 1103 1104
f 1106 1107 1105
f 1105 1107 1108
f 1110 1111 1109
f 1109 1111 1112
f 1113 1114 1116
f 1116 1114 1115
f 1117 1118 1120
f 1120 1118 1119
f 1122 1123 1121
f 1121 1123 1124
f 1125 1126 1128
f 1128 1126 1127
f 1129 1130 1132
f 1132 1130 1131
f 1134 1135 1133
f 1133 1135 1136
f 1138 1139 1137
f 1137 1139 1140
f 1142 1143 1141
f 1141 1143 1144
f 1145 1146 1148
f 1148 1146 1147
f 1149 1150 1152
f 1152 1150 1151
f 1154 1155 1153
f 1153 1155 1156
f 1157 1158 1160
f 1160 1158 1159
f 1161 1162 1164
f 1164 1162 1163
f 1166 1167 1165
f 1165 1167 1168
f 1170 1171 1169
f 1169 1171 1172
f 1174 1175 1173
f 1173 1175 1176
f 1177 1178 1180
f 1180 1178 1179
f 1181 1182 1184
f 1184 1182 1183
f 1186 1187 1185
f 1185 1187 1188
f 1189 1190 1192
f 1192 1190 1191
f 1193 1194 1196
f 1196 1194 1195
f 1198 1199 1197
f 1197 1199 1200
f 1202 1203 1201
f 1201 1203 1204
f 1206 1207 1205
f 1205 1207 1208
f 1209 1210 1212
f 1212 1210 1211
f 1213 1214 1216
f 1216 1214 1215
f 1218 1219 1217
f 1217 1219 1220
f 1221 1222 1224
f 1224 1222 1223
f 1225 1226 1228
f 1228 1226 1227
f 1230 1231 1229
f 1229 1231 1232
f 1234 1235 1233
f 1233 1235 1236
f 1237 1238 1240
f 1240 1238 1239
f 1242 1243 1241
f 1241 1243 1244
f 1245 1246 1248
f 1248 1246 1247
f 1250 1251 1249
f 1249 1251 1252
f 1254 1255 1253
f 1253 1255 1256
f 1258 1259 1257
f 1257 1259 1260
f 1261 1262 1264
f 1264 1262 1263
f 1266 1267 1265
f 1265 1267 1268
f 1269 1270 1272
f 1272 1270 1271
f 1273 1274 1276
f 1276 1274 1275
f 1277 1278 1280
f 1280 1278 1279
f 1282 1283 1281
f 1281 1283 1284
f 1286 1287 1285
f 1285 1287 1288
f 1289 1290 1292
f 1292 1290 1291
f 1294 1295 1293
f 1293 1295 1296
f 1297 1298 1300
f 1300 1298 1299
f 1301 1302 1304
f 1304 1302 1303
f 1306 1308 1305
f 1305 1308 1425
f 1305 1425 1428
f 1428 1425 1426
f 1428 1426 1427
f 1306 1307 1308
f 1308 1309 1425
f 1425 1309 1312
f 1425 1312 1313
f 1309 1310 1312
f 1312 1310 1311
f 1425 1313 1316
f 1316 1313 1314
f 1316 1314 1315
f 1316 1317 1425
f 1425 1317 1320
f 1425 1320 1321
f 1317 1318 1320
f 1320 1318 1319
f 1425 1321 1324
f 1324 1321 1322
f 1324 1322 1323
f 1324 1325 1425
f 1425 1325 1328
f 1425 1328 1329
f 1325 1326 1328
f 1328 1326 1327
f 1425 1329 1332
f 1332 1329 1330
f 1332 1330 1331
f 1332 1333 1425
f 1425 1333 1336
f 1425 1336 1337
f 1333 1334 1336
f 1336 1334 1335
f 1425 1337 1340
f 1340 1337 1338
f 1340 1338 1339
f 1340 1341 1425
f 1425 1341 1344
f 1425 1344 1345
f 1341 1342 1344
f 1344 1342 1343
f 1425 1345 1348
f 1348 1345 1346
f 1348 1346 1347
f 1348 1349 1425
f 1425 1349 1352
f 1425 1352 1353
f 1349 1350 1352
f 1352 1350 1351
f 1425 1353 1356
f 1356 1353 1354
f 1356 1354 1355
f 1356 1357 1425
f 1425 1357 1360
f 1425 1360 1361
f 1357 1358 1360
f 1360 1358 1359
f 1362 1364 1361
f 1361 1364 1424
f 1361 1424 1425
f 1362 1363 1364
f 1364 1365 1424
f 1424 1365 1368
f 1424 1368 1369
f 1365 1366 1368
f 1368 1366 1367
f 1424 1369 1372
f 1372 1369 1370
f 1372 1370 1371
f 1372 1373 1424
f 1424 1373 1376
f 1424 1376 1377
f 1373 1374 1376
f 1376 1374 1375
f 1424 1377 1380
f 1380 1377 1378
f 1380 1378 1379
f 1380 1381 1424
f 1424 1381 1384
f 1424 1384 1385
f 1381 1382 1384
f 1384 1382 1383
f 1424 1385 1388
f 1388 1385 1386
f 1388 1386 1387
f 1388 1389 1424
f 1424 1389 1392
f 1424 1392 1393
f 1389 1390 1392
f 1392 1390 1391
f 1424 1393 1396
f 1396 1393 1394
f 1396 1394 1395
f 1396 1397 1424
f 1424 1397 1400
f 1424 1400 1401
f 1397 1398 1400
f 1400 1398 1399
f 1424 1401 1404
f 1404 1401 1402
f 1404 1402 1403
f 1404 1405 1424
f 1424 1405 1408
f 1424 1408 1409
f 1405 1406 1408
f 1408 1406 1407
f 1424 1409 1412
f 1412 1409 1410
f 1412 1410 1411
f 1412 1413 1424
f 1424 1413 1416
f 1424 1416 1417
f 1413 1414 1416
f 1416 1414 1415
f 1424 1417 1420
f 1420 1417 1418
f 1420 1418 1419
f 1420 1421 1424
f 1424 1421 1423
f 1423 1421 1422
f 1430 1431 1429
f 1429 1431 1432
f 1433 1434 1436
f 1436 1434 1435
f 1438 1439 1437
f 1437 1439 1440
f 1437 1440 1560
f 1560 1440 1557
f 1560 1557 1558
f 1441 1504 1440
f 1440 1504 1505
f 1440 1505 1508
f 1508 1505 1506
f 1508 1506 1507
f 1442 1444 1441
f 1441 1444 1445
f 1441 1445 1448
f 1448 1445 1446
f 1448 1446 1447
f 1442 1443 1444
f 1448 1449 1441
f 1441 1449 1452
f 1441 1452 1453
f 1449 1450 1452
f 1452 1450 1451
f 1441 1453 1456
f 1456 1453 1454
f 1456 1454 1455
f 1456 1457 1441
f 1441 1457 1460
f 1441 1460 1461
f 1457 1458 1460
f 1460 1458 1459
f 1441 1461 1464
f 1464 1461 1462
f 1464 1462 1463
f 1464 1465 1441
f 1441 1465 1468
f 1441 1468 1469
f 1465 1466 1468
f 1468 1466 1467
f 1441 1469 1472
f 1472 1469 1470
f 1472 1470 1471
f 1472 1473 1441
f 1441 1473 1476
f 1441 1476 1477
f 1473 1474 1476
f 1476 1474 1475
f 1441 1477 1480
f 1480 1477 1478
f 1480 1478 1479
f 1480 1481 1441
f 1441 1481 1484
f 1441 1484 1485
f 1481 1482 1484
f 1484 1482 1483
f 1441 1485 1488
f 1488 1485 1486
f 1488 1486 1487
f 1488 1489 1441
f 1441 1489 1492
f 1441 1492 1493
f 1489 1490 1492
f 1492 1490 1491
f 1441 1493 1496
f 1496 1493 1494
f 1496 1494 1495
f 1496 1497 1441
f 1441 1497 1500
f 1441 1500 1501
f 1497 1498 1500
f 1500 1498 1499
f 1441 1501 1504
f 1504 1501 1502
f 1504 1502 1503
f 1508 1509 1440
f 1440 1509 1512
f 1440 1512 1513
f 1509 1510 1512
f 1512 1510 1511
f 1440 1513 1516
f 1516 1513 1514
f 1516 1514 1515
f 1516 1517 1440
f 1440 1517 1520
f 1440 1520 1521
f 1517 1518 1520
f 1520 1518 1519
f 1440 1521 1524
f 1524 1521 1522
f 1524 1522 1523
f 1524 1525 1440
f 1440 1525 1528
f 1440 1528 1529
f 1525 1526 1528
f 1528 1526 1527
f 1440 1529 1532
f 1532 1529 1530
f 1532 1530 1531
f 1532 1533 1440
f 1440 1533 1536
f 1440 1536 1537
f 1533 1534 1536
f 1536 1534 1535
f 1440 1537 1540
f 1540 1537 1538
f 1540 1538 1539
f 1540 1541 1440
f 1440 1541 1544
f 1440 1544 1545
f 1541 1542 1544
f 1544 1542 1543
f 1440 1545 1548
f 1548 1545 1546
f 1548 1546 1547
f 1548 1549 1440
f 1440 1549 1552
f 1440 1552 1553
f 1549 1550 1552
f 1552 1550 1551
f 1440 1553 1556
f 1556 1553 1554
f 1556 1554 1555
f 1556 1557 1440
f 1558 1559 1560
