v 0.023 -9.5367444e-10 -0.0017999954
v 0.023 0.0012727919 -0.0012728043
v 0.023 0.0017999997 7.6293946e-09
v 0.023 0.0012727919 0.0012727814
v 0.023 -9.5367444e-10 0.0018000107
v 0.023 -0.0012727914 0.0012727814
v 0.023 -0.0017999992 7.6293946e-09
v 0.023 -0.0012727914 -0.0012728043
v -0.023000001 -9.5367444e-10 -0.0017999954
v -0.023000001 -0.0012727914 -0.0012728043
v -0.023000001 -0.0017999992 7.6293946e-09
v -0.023000001 -0.0012727914 0.0012727814
v -0.023000001 -9.5367444e-10 0.0018000107
v -0.023000001 0.0012727919 0.0012727814
v -0.023000001 0.0017999997 7.6293946e-09
v -0.023000001 0.0012727919 -0.0012728043
v -0.023000001 -9.5367444e-10 -0.0017999954
v -0.023000001 0.0012727919 -0.0012728043
v -0.023000001 0.0017999997 7.6293946e-09
v -0.023000001 0.0012727919 0.0012727814
v -0.023000001 -9.5367444e-10 0.0018000107
v -0.023000001 -0.0012727914 0.0012727814
v -0.023000001 -0.0017999992 7.6293946e-09
v -0.023000001 -0.0012727914 -0.0012728043
v 0.023 -9.5367444e-10 -0.0017999954
v 0.023 -0.0012727914 -0.0012728043
v 0.023 -0.0017999992 7.6293946e-09
v 0.023 -0.0012727914 0.0012727814
v 0.023 -9.5367444e-10 0.0018000107
v 0.023 0.0012727919 0.0012727814
v 0.023 0.0017999997 7.6293946e-09
v 0.023 0.0012727919 -0.0012728043
v -0.023000001 -9.5367444e-10 0.0018000107
v 0.023 -9.5367444e-10 0.0018000107
f 2 4 1
f 1 4 5
f 1 5 8
f 8 5 6
f 8 6 7
f 2 3 4
f 10 12 9
f 9 12 13
f 9 13 16
f 16 13 14
f 16 14 15
f 10 11 12
f 18 25 17
f 17 25 26
f 17 26 24
f 24 26 27
f 24 27 23
f 23 27 28
f 23 28 22
f 22 28 21
f 21 28 34
f 33 29 20
f 20 29 30
f 20 30 31
f 25 18 32
f 32 18 19
f 32 19 31
f 31 19 20
