v -0.3917 -0.34085749 0.2875
v -0.3917 -0.34015317 0.28739874
v -0.3917 -0.33950591 0.28710314
v -0.3917 -0.33896813 0.28663715
v -0.3917 -0.33858342 0.28603853
v -0.3917 -0.33838296 0.28535578
v -0.3917 -0.33838296 0.28464422
v -0.3917 -0.33858342 0.28396147
v -0.3917 -0.33896813 0.28336285
v -0.3917 -0.33950591 0.28289686
v -0.3917 -0.34015317 0.28260126
v -0.3917 -0.34085749 0.2825
v -0.3917 -0.34156184 0.28260126
v -0.3917 -0.3422091 0.28289686
v -0.3917 -0.34274687 0.28336285
v -0.3917 -0.34313159 0.28396147
v -0.3917 -0.34333205 0.28464422
v -0.3917 -0.34333205 0.28535578
v -0.3917 -0.34313159 0.28603853
v -0.3917 -0.34274687 0.28663715
v -0.3917 -0.3422091 0.28710314
v -0.3917 -0.34156184 0.28739874
v -0.391 -0.34085749 0.2875
v -0.391 -0.34156184 0.28739874
v -0.391 -0.3422091 0.28710314
v -0.391 -0.34274687 0.28663715
v -0.391 -0.34313159 0.28603853
v -0.391 -0.34333205 0.28535578
v -0.391 -0.34333205 0.28464422
v -0.391 -0.34313159 0.28396147
v -0.391 -0.34274687 0.28336285
v -0.391 -0.3422091 0.28289686
v -0.391 -0.34156184 0.28260126
v -0.391 -0.34085749 0.2825
v -0.391 -0.34015317 0.28260126
v -0.391 -0.33950591 0.28289686
v -0.391 -0.33896813 0.28336285
v -0.391 -0.33858342 0.28396147
v -0.391 -0.33838296 0.28464422
v -0.391 -0.33838296 0.28535578
v -0.391 -0.33858342 0.28603853
v -0.391 -0.33896813 0.28663715
v -0.391 -0.33950591 0.28710314
v -0.391 -0.34015317 0.28739874
v -0.391 -0.34085749 0.2875
v -0.391 -0.34015317 0.28739874
v -0.391 -0.33950591 0.28710314
v -0.391 -0.33896813 0.28663715
v -0.391 -0.33858342 0.28603853
v -0.391 -0.33838296 0.28535578
v -0.391 -0.33838296 0.28464422
v -0.391 -0.33858342 0.28396147
v -0.391 -0.33896813 0.28336285
v -0.391 -0.33950591 0.28289686
v -0.391 -0.34015317 0.28260126
v -0.391 -0.34085749 0.2825
v -0.391 -0.34156184 0.28260126
v -0.391 -0.3422091 0.28289686
v -0.391 -0.34274687 0.28336285
v -0.391 -0.34313159 0.28396147
v -0.391 -0.34333205 0.28464422
v -0.391 -0.34333205 0.28535578
v -0.391 -0.34313159 0.28603853
v -0.391 -0.34274687 0.28663715
v -0.391 -0.3422091 0.28710314
v -0.391 -0.34156184 0.28739874
v -0.3917 -0.34085749 0.2875
v -0.3917 -0.34156184 0.28739874
v -0.3917 -0.3422091 0.28710314
v -0.3917 -0.34274687 0.28663715
v -0.3917 -0.34313159 0.28603853
v -0.3917 -0.34333205 0.28535578
v -0.3917 -0.34333205 0.28464422
v -0.3917 -0.34313159 0.28396147
v -0.3917 -0.34274687 0.28336285
v -0.3917 -0.3422091 0.28289686
v -0.3917 -0.34156184 0.28260126
v -0.3917 -0.34085749 0.2825
v -0.3917 -0.34015317 0.28260126
v -0.3917 -0.33950591 0.28289686
v -0.3917 -0.33896813 0.28336285
v -0.3917 -0.33858342 0.28396147
v -0.3917 -0.33838296 0.28464422
v -0.3917 -0.33838296 0.28535578
v -0.3917 -0.33858342 0.28603853
v -0.3917 -0.33896813 0.28663715
v -0.3917 -0.33950591 0.28710314
v -0.3917 -0.34015317 0.28739874
v -0.3917 -0.34085749 0.2875
v -0.391 -0.34085749 0.2875
f 2 11 1
f 1 11 12
f 1 12 22
f 22 12 13
f 22 13 21
f 21 13 14
f 21 14 20
f 20 14 15
f 20 15 19
f 19 15 16
f 19 16 18
f 18 16 17
f 11 2 10
f 10 2 3
f 10 3 9
f 9 3 4
f 9 4 8
f 8 4 5
f 8 5 7
f 7 5 6
f 24 33 23
f 23 33 34
f 23 34 44
f 44 34 35
f 44 35 43
f 43 35 36
f 43 36 42
f 42 36 37
f 42 37 41
f 41 37 38
f 41 38 40
f 40 38 39
f 33 24 32
f 32 24 25
f 32 25 31
f 31 25 26
f 31 26 30
f 30 26 27
f 30 27 29
f 29 27 28
f 46 88 45
f 45 88 89
f 90 67 66
f 66 67 68
f 66 68 69
f 46 47 88
f 88 47 87
f 87 47 48
f 87 48 86
f 86 48 49
f 86 49 85
f 85 49 50
f 85 50 84
f 84 50 51
f 84 51 83
f 83 51 52
f 83 52 82
f 82 52 53
f 82 53 81
f 81 53 54
f 81 54 80
f 80 54 55
f 80 55 79
f 79 55 56
f 79 56 78
f 78 56 57
f 78 57 77
f 77 57 58
f 77 58 76
f 76 58 59
f 76 59 75
f 75 59 60
f 75 60 74
f 74 60 61
f 74 61 73
f 73 61 62
f 73 62 72
f 72 62 63
f 72 63 71
f 71 63 64
f 71 64 70
f 70 64 65
f 70 65 69
f 69 65 66
v -0.3917 -0.090857499 0.2875
v -0.3917 -0.090153168 0.28739874
v -0.3917 -0.089505897 0.28710314
v -0.3917 -0.088968126 0.28663715
v -0.3917 -0.08858342 0.28603853
v -0.3917 -0.088382946 0.28535578
v -0.3917 -0.088382946 0.28464422
v -0.3917 -0.08858342 0.28396147
v -0.3917 -0.088968126 0.28336285
v -0.3917 -0.089505897 0.28289686
v -0.3917 -0.090153168 0.28260126
v -0.3917 -0.090857499 0.2825
v -0.3917 -0.091561831 0.28260126
v -0.3917 -0.092209102 0.28289686
v -0.3917 -0.092746874 0.28336285
v -0.3917 -0.093131579 0.28396147
v -0.3917 -0.093332053 0.28464422
v -0.3917 -0.093332053 0.28535578
v -0.3917 -0.093131579 0.28603853
v -0.3917 -0.092746874 0.28663715
v -0.3917 -0.092209102 0.28710314
v -0.3917 -0.091561831 0.28739874
v -0.391 -0.090857499 0.2875
v -0.391 -0.091561831 0.28739874
v -0.391 -0.092209102 0.28710314
v -0.391 -0.092746874 0.28663715
v -0.391 -0.093131579 0.28603853
v -0.391 -0.093332053 0.28535578
v -0.391 -0.093332053 0.28464422
v -0.391 -0.093131579 0.28396147
v -0.391 -0.092746874 0.28336285
v -0.391 -0.092209102 0.28289686
v -0.391 -0.091561831 0.28260126
v -0.391 -0.090857499 0.2825
v -0.391 -0.090153168 0.28260126
v -0.391 -0.089505897 0.28289686
v -0.391 -0.088968126 0.28336285
v -0.391 -0.08858342 0.28396147
v -0.391 -0.088382946 0.28464422
v -0.391 -0.088382946 0.28535578
v -0.391 -0.08858342 0.28603853
v -0.391 -0.088968126 0.28663715
v -0.391 -0.089505897 0.28710314
v -0.391 -0.090153168 0.28739874
v -0.391 -0.090857499 0.2875
v -0.391 -0.090153168 0.28739874
v -0.391 -0.089505897 0.28710314
v -0.391 -0.088968126 0.28663715
v -0.391 -0.08858342 0.28603853
v -0.391 -0.088382946 0.28535578
v -0.391 -0.088382946 0.28464422
v -0.391 -0.08858342 0.28396147
v -0.391 -0.088968126 0.28336285
v -0.391 -0.089505897 0.28289686
v -0.391 -0.090153168 0.28260126
v -0.391 -0.090857499 0.2825
v -0.391 -0.091561831 0.28260126
v -0.391 -0.092209102 0.28289686
v -0.391 -0.092746874 0.28336285
v -0.391 -0.093131579 0.28396147
v -0.391 -0.093332053 0.28464422
v -0.391 -0.093332053 0.28535578
v -0.391 -0.093131579 0.28603853
v -0.391 -0.092746874 0.28663715
v -0.391 -0.092209102 0.28710314
v -0.391 -0.091561831 0.28739874
v -0.3917 -0.090857499 0.2875
v -0.3917 -0.091561831 0.28739874
v -0.3917 -0.092209102 0.28710314
v -0.3917 -0.092746874 0.28663715
v -0.3917 -0.093131579 0.28603853
v -0.3917 -0.093332053 0.28535578
v -0.3917 -0.093332053 0.28464422
v -0.3917 -0.093131579 0.28396147
v -0.3917 -0.092746874 0.28336285
v -0.3917 -0.092209102 0.28289686
v -0.3917 -0.091561831 0.28260126
v -0.3917 -0.090857499 0.2825
v -0.3917 -0.090153168 0.28260126
v -0.3917 -0.089505897 0.28289686
v -0.3917 -0.088968126 0.28336285
v -0.3917 -0.08858342 0.28396147
v -0.3917 -0.088382946 0.28464422
v -0.3917 -0.088382946 0.28535578
v -0.3917 -0.08858342 0.28603853
v -0.3917 -0.088968126 0.28663715
v -0.3917 -0.089505897 0.28710314
v -0.3917 -0.090153168 0.28739874
v -0.3917 -0.090857499 0.2875
v -0.391 -0.090857499 0.2875
f 92 101 91
f 91 101 102
f 91 102 112
f 112 102 103
f 112 103 111
f 111 103 104
f 111 104 110
f 110 104 105
f 110 105 109
f 109 105 106
f 109 106 108
f 108 106 107
f 101 92 100
f 100 92 93
f 100 93 99
f 99 93 94
f 99 94 98
f 98 94 95
f 98 95 97
f 97 95 96
f 114 123 113
f 113 123 124
f 113 124 134
f 134 124 125
f 134 125 133
f 133 125 126
f 133 126 132
f 132 126 127
f 132 127 131
f 131 127 128
f 131 128 130
f 130 128 129
f 123 114 122
f 122 114 115
f 122 115 121
f 121 115 116
f 121 116 120
f 120 116 117
f 120 117 119
f 119 117 118
f 136 178 135
f 135 178 179
f 180 157 156
f 156 157 158
f 156 158 159
f 136 137 178
f 178 137 177
f 177 137 138
f 177 138 176
f 176 138 139
f 176 139 175
f 175 139 140
f 175 140 174
f 174 140 141
f 174 141 173
f 173 141 142
f 173 142 172
f 172 142 143
f 172 143 171
f 171 143 144
f 171 144 170
f 170 144 145
f 170 145 169
f 169 145 146
f 169 146 168
f 168 146 147
f 168 147 167
f 167 147 148
f 167 148 166
f 166 148 149
f 166 149 165
f 165 149 150
f 165 150 164
f 164 150 151
f 164 151 163
f 163 151 152
f 163 152 162
f 162 152 153
f 162 153 161
f 161 153 154
f 161 154 160
f 160 154 155
f 160 155 159
f 159 155 156
v -0.3917 -0.34085749 0.1075
v -0.3917 -0.34015317 0.10739873
v -0.3917 -0.33950591 0.10710314
v -0.3917 -0.33896813 0.10663715
v -0.3917 -0.33858342 0.10603854
v -0.3917 -0.33838296 0.10535579
v -0.3917 -0.33838296 0.10464421
v -0.3917 -0.33858342 0.10396146
v -0.3917 -0.33896813 0.10336285
v -0.3917 -0.33950591 0.10289686
v -0.3917 -0.34015317 0.10260127
v -0.3917 -0.34085749 0.1025
v -0.3917 -0.34156184 0.10260127
v -0.3917 -0.3422091 0.10289686
v -0.3917 -0.34274687 0.10336285
v -0.3917 -0.34313159 0.10396146
v -0.3917 -0.34333205 0.10464421
v -0.3917 -0.34333205 0.10535579
v -0.3917 -0.34313159 0.10603854
v -0.3917 -0.34274687 0.10663715
v -0.3917 -0.3422091 0.10710314
v -0.3917 -0.34156184 0.10739873
v -0.391 -0.34085749 0.1075
v -0.391 -0.34156184 0.10739873
v -0.391 -0.3422091 0.10710314
v -0.391 -0.34274687 0.10663715
v -0.391 -0.34313159 0.10603854
v -0.391 -0.34333205 0.10535579
v -0.391 -0.34333205 0.10464421
v -0.391 -0.34313159 0.10396146
v -0.391 -0.34274687 0.10336285
v -0.391 -0.3422091 0.10289686
v -0.391 -0.34156184 0.10260127
v -0.391 -0.34085749 0.1025
v -0.391 -0.34015317 0.10260127
v -0.391 -0.33950591 0.10289686
v -0.391 -0.33896813 0.10336285
v -0.391 -0.33858342 0.10396146
v -0.391 -0.33838296 0.10464421
v -0.391 -0.33838296 0.10535579
v -0.391 -0.33858342 0.10603854
v -0.391 -0.33896813 0.10663715
v -0.391 -0.33950591 0.10710314
v -0.391 -0.34015317 0.10739873
v -0.391 -0.34085749 0.1075
v -0.391 -0.34015317 0.10739873
v -0.391 -0.33950591 0.10710314
v -0.391 -0.33896813 0.10663715
v -0.391 -0.33858342 0.10603854
v -0.391 -0.33838296 0.10535579
v -0.391 -0.33838296 0.10464421
v -0.391 -0.33858342 0.10396146
v -0.391 -0.33896813 0.10336285
v -0.391 -0.33950591 0.10289686
v -0.391 -0.34015317 0.10260127
v -0.391 -0.34085749 0.1025
v -0.391 -0.34156184 0.10260127
v -0.391 -0.3422091 0.10289686
v -0.391 -0.34274687 0.10336285
v -0.391 -0.34313159 0.10396146
v -0.391 -0.34333205 0.10464421
v -0.391 -0.34333205 0.10535579
v -0.391 -0.34313159 0.10603854
v -0.391 -0.34274687 0.10663715
v -0.391 -0.3422091 0.10710314
v -0.391 -0.34156184 0.10739873
v -0.3917 -0.34085749 0.1075
v -0.3917 -0.34156184 0.10739873
v -0.3917 -0.3422091 0.10710314
v -0.3917 -0.34274687 0.10663715
v -0.3917 -0.34313159 0.10603854
v -0.3917 -0.34333205 0.10535579
v -0.3917 -0.34333205 0.10464421
v -0.3917 -0.34313159 0.10396146
v -0.3917 -0.34274687 0.10336285
v -0.3917 -0.3422091 0.10289686
v -0.3917 -0.34156184 0.10260127
v -0.3917 -0.34085749 0.1025
v -0.3917 -0.34015317 0.10260127
v -0.3917 -0.33950591 0.10289686
v -0.3917 -0.33896813 0.10336285
v -0.3917 -0.33858342 0.10396146
v -0.3917 -0.33838296 0.10464421
v -0.3917 -0.33838296 0.10535579
v -0.3917 -0.33858342 0.10603854
v -0.3917 -0.33896813 0.10663715
v -0.3917 -0.33950591 0.10710314
v -0.3917 -0.34015317 0.10739873
v -0.3917 -0.34085749 0.1075
v -0.391 -0.34085749 0.1075
f 182 191 181
f 181 191 192
f 181 192 202
f 202 192 193
f 202 193 201
f 201 193 194
f 201 194 200
f 200 194 195
f 200 195 199
f 199 195 196
f 199 196 198
f 198 196 197
f 191 182 190
f 190 182 183
f 190 183 189
f 189 183 184
f 189 184 188
f 188 184 185
f 188 185 187
f 187 185 186
f 204 213 203
f 203 213 214
f 203 214 224
f 224 214 215
f 224 215 223
f 223 215 216
f 223 216 222
f 222 216 217
f 222 217 221
f 221 217 218
f 221 218 220
f 220 218 219
f 213 204 212
f 212 204 205
f 212 205 211
f 211 205 206
f 211 206 210
f 210 206 207
f 210 207 209
f 209 207 208
f 226 268 225
f 225 268 269
f 270 247 246
f 246 247 248
f 246 248 249
f 226 227 268
f 268 227 267
f 267 227 228
f 267 228 266
f 266 228 229
f 266 229 265
f 265 229 230
f 265 230 264
f 264 230 231
f 264 231 263
f 263 231 232
f 263 232 262
f 262 232 233
f 262 233 261
f 261 233 234
f 261 234 260
f 260 234 235
f 260 235 259
f 259 235 236
f 259 236 258
f 258 236 237
f 258 237 257
f 257 237 238
f 257 238 256
f 256 238 239
f 256 239 255
f 255 239 240
f 255 240 254
f 254 240 241
f 254 241 253
f 253 241 242
f 253 242 252
f 252 242 243
f 252 243 251
f 251 243 244
f 251 244 250
f 250 244 245
f 250 245 249
f 249 245 246
v -0.3917 0.20014249 0.1075
v -0.3917 0.20084684 0.10739873
v -0.3917 0.2014941 0.10710314
v -0.3917 0.20203187 0.10663715
v -0.3917 0.20241659 0.10603854
v -0.3917 0.20261705 0.10535579
v -0.3917 0.20261705 0.10464421
v -0.3917 0.20241659 0.10396146
v -0.3917 0.20203187 0.10336285
v -0.3917 0.2014941 0.10289686
v -0.3917 0.20084684 0.10260127
v -0.3917 0.20014249 0.1025
v -0.3917 0.19943817 0.10260127
v -0.3917 0.19879091 0.10289686
v -0.3917 0.19825313 0.10336285
v -0.3917 0.19786842 0.10396146
v -0.3917 0.19766796 0.10464421
v -0.3917 0.19766796 0.10535579
v -0.3917 0.19786842 0.10603854
v -0.3917 0.19825313 0.10663715
v -0.3917 0.19879091 0.10710314
v -0.3917 0.19943817 0.10739873
v -0.391 0.20014249 0.1075
v -0.391 0.19943817 0.10739873
v -0.391 0.19879091 0.10710314
v -0.391 0.19825313 0.10663715
v -0.391 0.19786842 0.10603854
v -0.391 0.19766796 0.10535579
v -0.391 0.19766796 0.10464421
v -0.391 0.19786842 0.10396146
v -0.391 0.19825313 0.10336285
v -0.391 0.19879091 0.10289686
v -0.391 0.19943817 0.10260127
v -0.391 0.20014249 0.1025
v -0.391 0.20084684 0.10260127
v -0.391 0.2014941 0.10289686
v -0.391 0.20203187 0.10336285
v -0.391 0.20241659 0.10396146
v -0.391 0.20261705 0.10464421
v -0.391 0.20261705 0.10535579
v -0.391 0.20241659 0.10603854
v -0.391 0.20203187 0.10663715
v -0.391 0.2014941 0.10710314
v -0.391 0.20084684 0.10739873
v -0.391 0.20014249 0.1075
v -0.391 0.20084684 0.10739873
v -0.391 0.2014941 0.10710314
v -0.391 0.20203187 0.10663715
v -0.391 0.20241659 0.10603854
v -0.391 0.20261705 0.10535579
v -0.391 0.20261705 0.10464421
v -0.391 0.20241659 0.10396146
v -0.391 0.20203187 0.10336285
v -0.391 0.2014941 0.10289686
v -0.391 0.20084684 0.10260127
v -0.391 0.20014249 0.1025
v -0.391 0.19943817 0.10260127
v -0.391 0.19879091 0.10289686
v -0.391 0.19825313 0.10336285
v -0.391 0.19786842 0.10396146
v -0.391 0.19766796 0.10464421
v -0.391 0.19766796 0.10535579
v -0.391 0.19786842 0.10603854
v -0.391 0.19825313 0.10663715
v -0.391 0.19879091 0.10710314
v -0.391 0.19943817 0.10739873
v -0.3917 0.20014249 0.1075
v -0.3917 0.19943817 0.10739873
v -0.3917 0.19879091 0.10710314
v -0.3917 0.19825313 0.10663715
v -0.3917 0.19786842 0.10603854
v -0.3917 0.19766796 0.10535579
v -0.3917 0.19766796 0.10464421
v -0.3917 0.19786842 0.10396146
v -0.3917 0.19825313 0.10336285
v -0.3917 0.19879091 0.10289686
v -0.3917 0.19943817 0.10260127
v -0.3917 0.20014249 0.1025
v -0.3917 0.20084684 0.10260127
v -0.3917 0.2014941 0.10289686
v -0.3917 0.20203187 0.10336285
v -0.3917 0.20241659 0.10396146
v -0.3917 0.20261705 0.10464421
v -0.3917 0.20261705 0.10535579
v -0.3917 0.20241659 0.10603854
v -0.3917 0.20203187 0.10663715
v -0.3917 0.2014941 0.10710314
v -0.3917 0.20084684 0.10739873
v -0.3917 0.20014249 0.1075
v -0.391 0.20014249 0.1075
f 272 281 271
f 271 281 282
f 271 282 292
f 292 282 283
f 292 283 291
f 291 283 284
f 291 284 290
f 290 284 285
f 290 285 289
f 289 285 286
f 289 286 288
f 288 286 287
f 281 272 280
f 280 272 273
f 280 273 279
f 279 273 274
f 279 274 278
f 278 274 275
f 278 275 277
f 277 275 276
f 294 303 293
f 293 303 304
f 293 304 314
f 314 304 305
f 314 305 313
f 313 305 306
f 313 306 312
f 312 306 307
f 312 307 311
f 311 307 308
f 311 308 310
f 310 308 309
f 303 294 302
f 302 294 295
f 302 295 301
f 301 295 296
f 301 296 300
f 300 296 297
f 300 297 299
f 299 297 298
f 316 358 315
f 315 358 359
f 360 337 336
f 336 337 338
f 336 338 339
f 316 317 358
f 358 317 357
f 357 317 318
f 357 318 356
f 356 318 319
f 356 319 355
f 355 319 320
f 355 320 354
f 354 320 321
f 354 321 353
f 353 321 322
f 353 322 352
f 352 322 323
f 352 323 351
f 351 323 324
f 351 324 350
f 350 324 325
f 350 325 349
f 349 325 326
f 349 326 348
f 348 326 327
f 348 327 347
f 347 327 328
f 347 328 346
f 346 328 329
f 346 329 345
f 345 329 330
f 345 330 344
f 344 330 331
f 344 331 343
f 343 331 332
f 343 332 342
f 342 332 333
f 342 333 341
f 341 333 334
f 341 334 340
f 340 334 335
f 340 335 339
f 339 335 336
v -0.46 0.23084251 0.106
v -0.46 0.2313425 0.106
v -0.441 0.2313425 0.106
v -0.441 0.23084251 0.106
v -0.46 0.2313425 0.111
v -0.46 0.23084251 0.111
v -0.441 0.23084251 0.111
v -0.441 0.2313425 0.111
v -0.46 0.2313425 0.106
v -0.46 0.23084251 0.106
v -0.46 0.23084251 0.111
v -0.46 0.2313425 0.111
v -0.46 0.23084251 0.106
v -0.441 0.23084251 0.106
v -0.441 0.23084251 0.111
v -0.46 0.23084251 0.111
v -0.441 0.23084251 0.106
v -0.441 0.2313425 0.106
v -0.441 0.2313425 0.111
v -0.441 0.23084251 0.111
v -0.441 0.2313425 0.106
v -0.46 0.2313425 0.106
v -0.46 0.2313425 0.111
v -0.441 0.2313425 0.111
f 362 363 361
f 361 363 364
f 366 367 365
f 365 367 368
f 369 370 372
f 372 370 371
f 373 374 376
f 376 374 375
f 377 378 380
f 380 378 379
f 381 382 384
f 384 382 383
v -0.46 0.23084251 0.119
v -0.46 0.2313425 0.119
v -0.441 0.2313425 0.119
v -0.441 0.23084251 0.119
v -0.46 0.2313425 0.124
v -0.46 0.23084251 0.124
v -0.441 0.23084251 0.124
v -0.441 0.2313425 0.124
v -0.46 0.2313425 0.119
v -0.46 0.23084251 0.119
v -0.46 0.23084251 0.124
v -0.46 0.2313425 0.124
v -0.46 0.23084251 0.119
v -0.441 0.23084251 0.119
v -0.441 0.23084251 0.124
v -0.46 0.23084251 0.124
v -0.441 0.23084251 0.119
v -0.441 0.2313425 0.119
v -0.441 0.2313425 0.124
v -0.441 0.23084251 0.124
v -0.441 0.2313425 0.119
v -0.46 0.2313425 0.119
v -0.46 0.2313425 0.124
v -0.441 0.2313425 0.124
f 386 387 385
f 385 387 388
f 390 391 389
f 389 391 392
f 393 394 396
f 396 394 395
f 397 398 400
f 400 398 399
f 401 402 404
f 404 402 403
f 405 406 408
f 408 406 407
v -0.7765 -0.37485751 0.04
v -0.76049999 -0.37485751 0.04
v -0.76049999 -0.37485751 0.068000002
v -0.7765 -0.37485751 0.068000002
v -0.76049999 -0.37485751 0.04
v -0.76049999 -0.3728575 0.04
v -0.76049999 -0.3728575 0.068000002
v -0.76049999 -0.37485751 0.068000002
v -0.76049999 -0.3728575 0.04
v -0.7765 -0.3728575 0.04
v -0.7765 -0.3728575 0.068000002
v -0.76049999 -0.3728575 0.068000002
v -0.7765 -0.37485751 0.04
v -0.7765 -0.3728575 0.04
v -0.76049999 -0.3728575 0.04
v -0.76049999 -0.37485751 0.04
v -0.7765 -0.3728575 0.068000002
v -0.7765 -0.37485751 0.068000002
v -0.76049999 -0.37485751 0.068000002
v -0.76049999 -0.3728575 0.068000002
v -0.7765 -0.3728575 0.04
v -0.7765 -0.37485751 0.04
v -0.7765 -0.37485751 0.068000002
v -0.7765 -0.3728575 0.068000002
f 409 410 412
f 412 410 411
f 413 414 416
f 416 414 415
f 417 418 420
f 420 418 419
f 422 423 421
f 421 423 424
f 426 427 425
f 425 427 428
f 429 430 432
f 432 430 431
v -0.645 -0.3008575 0.315
v -0.67699999 -0.3008575 0.315
v -0.67699999 -0.2348575 0.315
v -0.645 -0.2348575 0.315
v -0.67699999 -0.3008575 0.31799999
v -0.645 -0.3008575 0.31799999
v -0.645 -0.2348575 0.31799999
v -0.67699999 -0.2348575 0.31799999
v -0.67699999 -0.3008575 0.315
v -0.645 -0.3008575 0.315
v -0.645 -0.3008575 0.31799999
v -0.67699999 -0.3008575 0.31799999
v -0.645 -0.3008575 0.315
v -0.645 -0.2348575 0.315
v -0.645 -0.2348575 0.31799999
v -0.645 -0.3008575 0.31799999
v -0.645 -0.2348575 0.315
v -0.67699999 -0.2348575 0.315
v -0.67699999 -0.2348575 0.31799999
v -0.645 -0.2348575 0.31799999
v -0.67699999 -0.2348575 0.315
v -0.67699999 -0.3008575 0.315
v -0.67699999 -0.3008575 0.31799999
v -0.67699999 -0.2348575 0.31799999
f 434 435 433
f 433 435 436
f 438 439 437
f 437 439 440
f 441 442 444
f 444 442 443
f 445 446 448
f 448 446 447
f 449 450 452
f 452 450 451
f 453 454 456
f 456 454 455
v -0.645 -0.3008575 0.31799999
v -0.67699999 -0.3008575 0.31799999
v -0.67699999 -0.29785751 0.31799999
v -0.645 -0.29785751 0.31799999
v -0.67699999 -0.3008575 0.34799999
v -0.645 -0.3008575 0.34799999
v -0.645 -0.29785751 0.34799999
v -0.67699999 -0.29785751 0.34799999
v -0.67699999 -0.3008575 0.31799999
v -0.645 -0.3008575 0.31799999
v -0.645 -0.3008575 0.34799999
v -0.67699999 -0.3008575 0.34799999
v -0.645 -0.3008575 0.31799999
v -0.645 -0.29785751 0.31799999
v -0.645 -0.29785751 0.34799999
v -0.645 -0.3008575 0.34799999
v -0.645 -0.29785751 0.31799999
v -0.67699999 -0.29785751 0.31799999
v -0.67699999 -0.29785751 0.34799999
v -0.645 -0.29785751 0.34799999
v -0.67699999 -0.29785751 0.31799999
v -0.67699999 -0.3008575 0.31799999
v -0.67699999 -0.3008575 0.34799999
v -0.67699999 -0.29785751 0.34799999
f 458 459 457
f 457 459 460
f 462 463 461
f 461 463 464
f 465 466 468
f 468 466 467
f 469 470 472
f 472 470 471
f 473 474 476
f 476 474 475
f 477 478 480
f 480 478 479
v -0.645 -0.2378575 0.31799999
v -0.67699999 -0.2378575 0.31799999
v -0.67699999 -0.2348575 0.31799999
v -0.645 -0.2348575 0.31799999
v -0.67699999 -0.2378575 0.34799999
v -0.645 -0.2378575 0.34799999
v -0.645 -0.2348575 0.34799999
v -0.67699999 -0.2348575 0.34799999
v -0.67699999 -0.2378575 0.31799999
v -0.645 -0.2378575 0.31799999
v -0.645 -0.2378575 0.34799999
v -0.67699999 -0.2378575 0.34799999
v -0.645 -0.2378575 0.31799999
v -0.645 -0.2348575 0.31799999
v -0.645 -0.2348575 0.34799999
v -0.645 -0.2378575 0.34799999
v -0.645 -0.2348575 0.31799999
v -0.67699999 -0.2348575 0.31799999
v -0.67699999 -0.2348575 0.34799999
v -0.645 -0.2348575 0.34799999
v -0.67699999 -0.2348575 0.31799999
v -0.67699999 -0.2378575 0.31799999
v -0.67699999 -0.2378575 0.34799999
v -0.67699999 -0.2348575 0.34799999
f 482 483 481
f 481 483 484
f 486 487 485
f 485 487 488
f 489 490 492
f 492 490 491
f 493 494 496
f 496 494 495
f 497 498 500
f 500 498 499
f 501 502 504
f 504 502 503
v -0.645 -0.3008575 0.31799999
v -0.648 -0.3008575 0.31799999
v -0.648 -0.2348575 0.31799999
v -0.645 -0.2348575 0.31799999
v -0.648 -0.3008575 0.34799999
v -0.645 -0.3008575 0.34799999
v -0.645 -0.2348575 0.34799999
v -0.648 -0.2348575 0.34799999
v -0.648 -0.3008575 0.31799999
v -0.645 -0.3008575 0.31799999
v -0.645 -0.3008575 0.34799999
v -0.648 -0.3008575 0.34799999
v -0.645 -0.3008575 0.31799999
v -0.645 -0.2348575 0.31799999
v -0.645 -0.2348575 0.34799999
v -0.645 -0.3008575 0.34799999
v -0.645 -0.2348575 0.31799999
v -0.648 -0.2348575 0.31799999
v -0.648 -0.2348575 0.34799999
v -0.645 -0.2348575 0.34799999
v -0.648 -0.2348575 0.31799999
v -0.648 -0.3008575 0.31799999
v -0.648 -0.3008575 0.34799999
v -0.648 -0.2348575 0.34799999
f 506 507 505
f 505 507 508
f 510 511 509
f 509 511 512
f 513 514 516
f 516 514 515
f 517 518 520
f 520 518 519
f 521 522 524
f 524 522 523
f 525 526 528
f 528 526 527
