v 0.012474999 -0.00050000054 1.373291e-09
v 0.012474999 -0.00050000054 -0.075000001
v 0.012474999 0.00050000089 -0.075000001
v 0.012474999 0.00050000089 1.373291e-09
v 0.012474999 0.00050000089 1.373291e-09
v 0.012474999 0.00050000089 -0.075000001
v -0.012474999 0.00050000089 -0.075000001
v -0.012474999 0.00050000089 1.373291e-09
v -0.012474999 0.00050000089 1.373291e-09
v -0.012474999 0.00050000089 -0.075000001
v -0.012474999 -0.00050000054 -0.075000001
v -0.012474999 -0.00050000054 1.373291e-09
v -0.012474999 -0.00050000054 1.373291e-09
v -0.012474999 -0.00050000054 -0.075000001
v 0.012474999 -0.00050000054 -0.075000001
v 0.012474999 -0.00050000054 1.373291e-09
v 0.012474999 0.00050000089 -0.075000001
v 0.012474999 -0.00050000054 -0.075000001
v -0.012474999 -0.00050000054 -0.075000001
v -0.012474999 0.00050000089 -0.075000001
v 0.012474999 -0.00050000054 1.373291e-09
v 0.012474999 0.00050000089 1.373291e-09
v -0.012474999 0.00050000089 1.373291e-09
v -0.012474999 -0.00050000054 1.373291e-09
f 1 2 4
f 4 2 3
f 5 6 8
f 8 6 7
f 9 10 12
f 12 10 11
f 13 14 16
f 16 14 15
f 18 19 17
f 17 19 20
f 22 23 21
f 21 23 24
