v 0.066162465 0.0046197221 0.087421576
v 0.066162465 0.0013267139 0.087421576
v 0.066581327 0.0012267138 0.087521576
v 0.066581327 0.004719722 0.087521576
v 0.066162465 0.0013267139 0.081136698
v 0.066162465 0.0046197221 0.081136698
v 0.066581327 0.004719722 0.081036698
v 0.066581327 0.0012267139 0.081036698
v 0.066581327 0.0012267138 0.087521576
v 0.067778075 0.0015034618 0.087252308
v 0.067778075 0.004442974 0.087252308
v 0.066581327 0.004719722 0.087521576
v 0.066581327 0.0012267139 0.081036698
v 0.067778075 0.0015034619 0.081305966
v 0.067778075 0.0015034618 0.087252308
v 0.066581327 0.0012267138 0.087521576
v 0.066581327 0.004719722 0.087521576
v 0.067778075 0.004442974 0.087252308
v 0.067778075 0.004442974 0.081305966
v 0.066581327 0.004719722 0.081036698
v 0.066162465 0.0046197221 0.081136698
v 0.066162465 0.0046197221 0.087421576
v 0.066581327 0.004719722 0.087521576
v 0.066581327 0.004719722 0.081036698
v 0.066162465 0.0046197221 0.081136698
v 0.066162465 0.0013267139 0.081136698
v 0.066162465 0.0013267139 0.087421576
v 0.066162465 0.0046197221 0.087421576
v 0.067778075 0.0015034618 0.087252308
v 0.067778075 0.0015034619 0.081305966
v 0.067778075 0.004442974 0.081305966
v 0.067778075 0.004442974 0.087252308
v 0.066162465 0.0013267139 0.087421576
v 0.066162465 0.0013267139 0.081136698
v 0.066581327 0.0012267139 0.081036698
v 0.066581327 0.0012267138 0.087521576
v 0.066581327 0.004719722 0.081036698
v 0.067778075 0.004442974 0.081305966
v 0.067778075 0.0015034619 0.081305966
v 0.066581327 0.0012267139 0.081036698
f 1 2 4
f 4 2 3
f 6 7 5
f 5 7 8
f 9 10 12
f 12 10 11
f 13 14 16
f 16 14 15
f 18 19 17
f 17 19 20
f 22 23 21
f 21 23 24
f 25 26 28
f 28 26 27
f 30 31 29
f 29 31 32
f 33 34 36
f 36 34 35
f 38 39 37
f 37 39 40
