v -0.2413 -0.008 -0.0487
v -8.3923339e-09 -0.008 -0.0487
v -8.3923339e-09 -0.008 0.0163
v -0.2413 -0.008 0.0163
v -8.3923339e-09 -0.008 -0.0487
v -8.3923339e-09 1.1920928e-10 -0.0487
v -8.3923339e-09 1.1920928e-10 0.0163
v -8.3923339e-09 -0.008 0.0163
v -8.3923339e-09 1.1920928e-10 -0.0487
v -0.2413 1.1920928e-10 -0.0487
v -0.2413 1.1920928e-10 0.0163
v -8.3923339e-09 1.1920928e-10 0.0163
v -0.2413 -0.008 -0.0487
v -0.2413 1.1920928e-10 -0.0487
v -8.3923339e-09 1.1920928e-10 -0.0487
v -8.3923339e-09 -0.008 -0.0487
v -0.2413 1.1920928e-10 0.0163
v -0.2413 -0.008 0.0163
v -8.3923339e-09 -0.008 0.0163
v -8.3923339e-09 1.1920928e-10 0.0163
v -0.2413 1.1920928e-10 -0.0487
v -0.2413 -0.008 -0.0487
v -0.2413 -0.008 0.0163
v -0.2413 1.1920928e-10 0.0163
f 1 2 4
f 4 2 3
f 5 6 8
f 8 6 7
f 9 10 12
f 12 10 11
f 14 15 13
f 13 15 16
f 18 19 17
f 17 19 20
f 21 22 24
f 24 22 23
