v -0.63 -0.1158575 0.45299999
v -0.63 -0.1158575 0.45
v -0.512 -0.1158575 0.45
v -0.512 -0.1158575 0.45299999
v -0.63 -0.0828575 0.45
v -0.693 -0.0828575 0.45
v -0.693 -0.033857499 0.45
v -0.512 -0.033857499 0.45
v -0.512 -0.1158575 0.45
v -0.63 -0.1158575 0.45
v -0.512 -0.1158575 0.45
v -0.512 -0.033857499 0.45
v -0.512 -0.033857499 0.45299999
v -0.512 -0.1158575 0.45299999
v -0.512 -0.033857499 0.45
v -0.693 -0.033857499 0.45
v -0.693 -0.033857499 0.45299999
v -0.512 -0.033857499 0.45299999
v -0.693 -0.0828575 0.45299999
v -0.63 -0.0828575 0.45299999
v -0.63 -0.1158575 0.45299999
v -0.512 -0.1158575 0.45299999
v -0.512 -0.033857499 0.45299999
v -0.693 -0.033857499 0.45299999
v -0.693 -0.0828575 0.45
v -0.693 -0.0828575 0.45299999
v -0.693 -0.033857499 0.45299999
v -0.693 -0.033857499 0.45
v -0.63 -0.0828575 0.45
v -0.63 -0.1158575 0.45
v -0.63 -0.1158575 0.45299999
v -0.63 -0.0828575 0.45299999
v -0.693 -0.0828575 0.45
v -0.63 -0.0828575 0.45
v -0.63 -0.0828575 0.45299999
v -0.693 -0.0828575 0.45299999
f 2 3 1
f 1 3 4
f 6 7 5
f 5 7 8
f 5 8 9
f 9 10 5
f 11 12 14
f 14 12 13
f 15 16 18
f 18 16 17
f 19 20 24
f 24 20 23
f 23 20 22
f 22 20 21
f 26 27 25
f 25 27 28
f 30 31 29
f 29 31 32
f 34 35 33
f 33 35 36
v -0.63 -0.1158575 0.42299999
v -0.63 -0.1128575 0.42299999
v -0.512 -0.1128575 0.42299999
v -0.512 -0.1158575 0.42299999
v -0.63 -0.1158575 0.45
v -0.63 -0.1158575 0.42299999
v -0.512 -0.1158575 0.42299999
v -0.512 -0.1158575 0.45
v -0.512 -0.1158575 0.42299999
v -0.512 -0.1128575 0.42299999
v -0.512 -0.1128575 0.45
v -0.512 -0.1158575 0.45
v -0.63 -0.1128575 0.45
v -0.63 -0.1158575 0.45
v -0.512 -0.1158575 0.45
v -0.512 -0.1128575 0.45
v -0.63 -0.1128575 0.42299999
v -0.63 -0.1128575 0.45
v -0.512 -0.1128575 0.45
v -0.512 -0.1128575 0.42299999
v -0.63 -0.1158575 0.42299999
v -0.63 -0.1158575 0.45
v -0.63 -0.1128575 0.45
v -0.63 -0.1128575 0.42299999
f 38 39 37
f 37 39 40
f 42 43 41
f 41 43 44
f 45 46 48
f 48 46 47
f 50 51 49
f 49 51 52
f 54 55 53
f 53 55 56
f 57 58 60
f 60 58 59
v -0.693 -0.0828575 0.45
v -0.69 -0.0828575 0.45
v -0.69 -0.033857499 0.45
v -0.693 -0.033857499 0.45
v -0.693 -0.0828575 0.41200001
v -0.693 -0.0828575 0.45
v -0.693 -0.033857499 0.45
v -0.693 -0.033857499 0.41200001
v -0.69 -0.033857499 0.41200001
v -0.693 -0.033857499 0.41200001
v -0.693 -0.033857499 0.45
v -0.69 -0.033857499 0.45
v -0.69 -0.0828575 0.41200001
v -0.693 -0.0828575 0.41200001
v -0.693 -0.033857499 0.41200001
v -0.69 -0.033857499 0.41200001
v -0.69 -0.0828575 0.45
v -0.69 -0.0828575 0.41200001
v -0.69 -0.033857499 0.41200001
v -0.69 -0.033857499 0.45
v -0.693 -0.0828575 0.45
v -0.693 -0.0828575 0.41200001
v -0.69 -0.0828575 0.41200001
v -0.69 -0.0828575 0.45
f 61 62 64
f 64 62 63
f 66 67 65
f 65 67 68
f 69 70 72
f 72 70 71
f 73 74 76
f 76 74 75
f 78 79 77
f 77 79 80
f 81 82 84
f 84 82 83
v -0.686 0.1871425 0.31299999
v -0.686 0.1871425 0.31
v -0.80799999 0.1871425 0.31
v -0.80799999 0.1871425 0.31299999
v -0.80799999 0.1871425 0.31
v -0.80799999 -0.36485751 0.31
v -0.80799999 -0.36485751 0.31299999
v -0.80799999 0.1871425 0.31299999
v -0.742 -0.2088575 0.31299999
v -0.742 -0.0888575 0.31299999
v -0.742 -0.0888575 0.31
v -0.742 -0.2088575 0.31
v -0.799 -0.0888575 0.31299999
v -0.799 -0.2088575 0.31299999
v -0.799 -0.2088575 0.31
v -0.799 -0.0888575 0.31
v -0.80799999 -0.36485751 0.31
v -0.675 -0.36485751 0.31
v -0.675 -0.36485751 0.31299999
v -0.80799999 -0.36485751 0.31299999
v -0.742 -0.0888575 0.31299999
v -0.799 -0.0888575 0.31299999
v -0.799 -0.0888575 0.31
v -0.742 -0.0888575 0.31
v -0.799 -0.2088575 0.31299999
v -0.742 -0.2088575 0.31299999
v -0.742 -0.2088575 0.31
v -0.799 -0.2088575 0.31
v -0.686 0.011142496 0.31
v -0.686 0.1871425 0.31
v -0.686 0.1871425 0.31299999
v -0.686 0.011142496 0.31299999
v -0.675 0.011142496 0.31
v -0.686 0.011142496 0.31
v -0.686 0.011142496 0.31299999
v -0.675 0.011142496 0.31299999
v -0.702 -0.1038575 0.31
v -0.675 -0.1038575 0.31
v -0.675 -0.36485751 0.31
v -0.80799999 -0.36485751 0.31
v -0.80799999 0.1871425 0.31
v -0.686 0.1871425 0.31
v -0.686 0.011142496 0.31
v -0.675 0.011142496 0.31
v -0.675 -0.085857499 0.31
v -0.702 -0.085857499 0.31
v -0.742 -0.0888575 0.31
v -0.799 -0.0888575 0.31
v -0.799 -0.2088575 0.31
v -0.742 -0.2088575 0.31
v -0.675 -0.1038575 0.31
v -0.675 -0.1038575 0.31299999
v -0.675 -0.36485751 0.31299999
v -0.675 -0.36485751 0.31
v -0.675 -0.085857499 0.31299999
v -0.675 -0.085857499 0.31
v -0.675 0.011142496 0.31
v -0.675 0.011142496 0.31299999
v -0.799 -0.0888575 0.31299999
v -0.742 -0.0888575 0.31299999
v -0.742 -0.2088575 0.31299999
v -0.799 -0.2088575 0.31299999
v -0.675 -0.1038575 0.31299999
v -0.702 -0.1038575 0.31299999
v -0.702 -0.085857499 0.31299999
v -0.675 -0.085857499 0.31299999
v -0.675 0.011142496 0.31299999
v -0.686 0.011142496 0.31299999
v -0.686 0.1871425 0.31299999
v -0.80799999 0.1871425 0.31299999
v -0.80799999 -0.36485751 0.31299999
v -0.675 -0.36485751 0.31299999
v -0.702 -0.085857499 0.31
v -0.675 -0.085857499 0.31
v -0.675 -0.085857499 0.31299999
v -0.702 -0.085857499 0.31299999
v -0.702 -0.1038575 0.31
v -0.702 -0.085857499 0.31
v -0.702 -0.085857499 0.31299999
v -0.702 -0.1038575 0.31299999
v -0.675 -0.1038575 0.31
v -0.702 -0.1038575 0.31
v -0.702 -0.1038575 0.31299999
v -0.675 -0.1038575 0.31299999
f 86 87 85
f 85 87 88
f 89 90 92
f 92 90 91
f 93 94 96
f 96 94 95
f 97 98 100
f 100 98 99
f 101 102 104
f 104 102 103
f 105 106 108
f 108 106 107
f 109 110 112
f 112 110 111
f 114 115 113
f 113 115 116
f 118 119 117
f 117 119 120
f 122 123 121
f 121 123 134
f 121 134 131
f 123 124 134
f 134 124 133
f 133 124 132
f 132 124 125
f 132 125 131
f 131 125 126
f 131 126 127
f 128 129 127
f 127 129 130
f 127 130 131
f 131 130 121
f 136 137 135
f 135 137 138
f 140 141 139
f 139 141 142
f 144 154 143
f 143 154 155
f 143 155 146
f 146 155 145
f 145 155 156
f 145 156 148
f 148 156 147
f 145 148 144
f 144 148 149
f 144 149 152
f 152 149 150
f 152 150 151
f 152 153 144
f 144 153 154
f 158 159 157
f 157 159 160
f 162 163 161
f 161 163 164
f 166 167 165
f 165 167 168
v -0.79700001 -0.20385749 0.31
v -0.751 -0.20385749 0.31
v -0.751 -0.20385749 0.315
v -0.79700001 -0.20385749 0.315
v -0.751 -0.20385749 0.31
v -0.751 -0.094857496 0.31
v -0.751 -0.094857496 0.315
v -0.751 -0.20385749 0.315
v -0.751 -0.094857496 0.31
v -0.79700001 -0.094857496 0.31
v -0.79700001 -0.094857496 0.315
v -0.751 -0.094857496 0.315
v -0.753 -0.1968575 0.315
v -0.79700001 -0.1968575 0.315
v -0.79700001 -0.20385749 0.315
v -0.751 -0.20385749 0.315
v -0.751 -0.094857496 0.315
v -0.79700001 -0.094857496 0.315
v -0.79700001 -0.1058575 0.315
v -0.753 -0.1058575 0.315
v -0.79700001 -0.1968575 0.315
v -0.79700001 -0.1968575 0.31
v -0.79700001 -0.20385749 0.31
v -0.79700001 -0.20385749 0.315
v -0.79700001 -0.1058575 0.31
v -0.79700001 -0.1058575 0.315
v -0.79700001 -0.094857496 0.315
v -0.79700001 -0.094857496 0.31
v -0.79700001 -0.1968575 0.31
v -0.753 -0.1968575 0.31
v -0.753 -0.1058575 0.31
v -0.79700001 -0.1058575 0.31
v -0.79700001 -0.094857496 0.31
v -0.751 -0.094857496 0.31
v -0.751 -0.20385749 0.31
v -0.79700001 -0.20385749 0.31
v -0.753 -0.1968575 0.315
v -0.753 -0.1058575 0.315
v -0.753 -0.1058575 0.31
v -0.753 -0.1968575 0.31
v -0.753 -0.1058575 0.315
v -0.79700001 -0.1058575 0.315
v -0.79700001 -0.1058575 0.31
v -0.753 -0.1058575 0.31
v -0.79700001 -0.1968575 0.315
v -0.753 -0.1968575 0.315
v -0.753 -0.1968575 0.31
v -0.79700001 -0.1968575 0.31
f 169 170 172
f 172 170 171
f 173 174 176
f 176 174 175
f 177 178 180
f 180 178 179
f 182 183 181
f 181 183 184
f 181 184 188
f 188 184 185
f 188 185 186
f 186 187 188
f 190 191 189
f 189 191 192
f 194 195 193
f 193 195 196
f 197 198 204
f 204 198 203
f 203 198 199
f 203 199 202
f 202 199 201
f 201 199 200
f 206 207 205
f 205 207 208
f 210 211 209
f 209 211 212
f 214 215 213
f 213 215 216
v -0.17 -0.3178575 0
v -0.17135457 -0.32597499 0
v -0.17527149 -0.33321282 0
v -0.1813263 -0.33878666 0
v -0.18886286 -0.34209251 0
v -0.19706448 -0.34277211 0
v -0.20504239 -0.34075183 0
v -0.21193204 -0.3362506 0
v -0.21698684 -0.32975618 0
v -0.21965903 -0.32197236 0
v -0.21965903 -0.31374264 0
v -0.21698684 -0.30595882 0
v -0.21193204 -0.2994644 0
v -0.20504239 -0.29496317 0
v -0.19706448 -0.29294289 0
v -0.18886286 -0.29362249 0
v -0.1813263 -0.29692834 0
v -0.17527149 -0.30250218 0
v -0.17135457 -0.30974001 0
v -0.17 -0.3178575 0
v -0.17135457 -0.30974001 0
v -0.17527149 -0.30250218 0
v -0.1813263 -0.29692834 0
v -0.18886286 -0.29362249 0
v -0.19706448 -0.29294289 0
v -0.20504239 -0.29496317 0
v -0.21193204 -0.2994644 0
v -0.21698684 -0.30595882 0
v -0.21965903 -0.31374264 0
v -0.21965903 -0.32197236 0
v -0.21698684 -0.32975618 0
v -0.21193204 -0.3362506 0
v -0.20504239 -0.34075183 0
v -0.19706448 -0.34277211 0
v -0.18886286 -0.34209251 0
v -0.1813263 -0.33878666 0
v -0.17527149 -0.33321282 0
v -0.17135457 -0.32597499 0
v -0.17 -0.3178575 0.0060000002
v -0.17135457 -0.32597499 0.0060000002
v -0.17527149 -0.33321282 0.0060000002
v -0.1813263 -0.33878666 0.0060000002
v -0.18886286 -0.34209251 0.0060000002
v -0.19706448 -0.34277211 0.0060000002
v -0.20504239 -0.34075183 0.0060000002
v -0.21193204 -0.3362506 0.0060000002
v -0.21698684 -0.32975618 0.0060000002
v -0.21965903 -0.32197236 0.0060000002
v -0.21965903 -0.31374264 0.0060000002
v -0.21698684 -0.30595882 0.0060000002
v -0.21193204 -0.2994644 0.0060000002
v -0.20504239 -0.29496317 0.0060000002
v -0.19706448 -0.29294289 0.0060000002
v -0.18886286 -0.29362249 0.0060000002
v -0.1813263 -0.29692834 0.0060000002
v -0.17527149 -0.30250218 0.0060000002
v -0.17135457 -0.30974001 0.0060000002
v -0.21965903 -0.32197236 0
v -0.21965903 -0.32197236 0.0060000002
v -0.17 -0.3178575 0.0060000002
v -0.17135457 -0.30974001 0.0060000002
v -0.17527149 -0.30250218 0.0060000002
v -0.1813263 -0.29692834 0.0060000002
v -0.18886286 -0.29362249 0.0060000002
v -0.19706448 -0.29294289 0.0060000002
v -0.20504239 -0.29496317 0.0060000002
v -0.21193204 -0.2994644 0.0060000002
v -0.21698684 -0.30595882 0.0060000002
v -0.21965903 -0.31374264 0.0060000002
v -0.21965903 -0.32197236 0.0060000002
v -0.21698684 -0.32975618 0.0060000002
v -0.21193204 -0.3362506 0.0060000002
v -0.20504239 -0.34075183 0.0060000002
v -0.19706448 -0.34277211 0.0060000002
v -0.18886286 -0.34209251 0.0060000002
v -0.1813263 -0.33878666 0.0060000002
v -0.17527149 -0.33321282 0.0060000002
v -0.17135457 -0.32597499 0.0060000002
v -0.186 -0.3178575 0.014
v -0.18720577 -0.3223575 0.014
v -0.1905 -0.32565173 0.014
v -0.195 -0.3268575 0.014
v -0.1995 -0.32565173 0.014
v -0.20279423 -0.3223575 0.014
v -0.204 -0.3178575 0.014
v -0.20279423 -0.3133575 0.014
v -0.1995 -0.31006327 0.014
v -0.195 -0.3088575 0.014
v -0.1905 -0.31006327 0.014
v -0.18720577 -0.3133575 0.014
v -0.21965903 -0.31374264 0.0060000002
v -0.204 -0.3178575 0.014
v -0.186 -0.3178575 0.014
v -0.18720577 -0.3133575 0.014
v -0.1905 -0.31006327 0.014
v -0.195 -0.3088575 0.014
v -0.1995 -0.31006327 0.014
v -0.20279423 -0.3133575 0.014
v -0.204 -0.3178575 0.014
v -0.20279423 -0.3223575 0.014
v -0.1995 -0.32565173 0.014
v -0.195 -0.3268575 0.014
v -0.1905 -0.32565173 0.014
v -0.18720577 -0.3223575 0.014
v -0.186 -0.3178575 0.018
v -0.18720577 -0.3223575 0.018
v -0.1905 -0.32565173 0.018
v -0.195 -0.3268575 0.018
v -0.1995 -0.32565173 0.018
v -0.20279423 -0.3223575 0.018
v -0.204 -0.3178575 0.018
v -0.20279423 -0.3133575 0.018
v -0.1995 -0.31006327 0.018
v -0.195 -0.3088575 0.018
v -0.1905 -0.31006327 0.018
v -0.18720577 -0.3133575 0.018
v -0.204 -0.3178575 0.014
v -0.204 -0.3178575 0.018
v -0.186 -0.3178575 0.018
v -0.18720577 -0.3133575 0.018
v -0.1905 -0.31006327 0.018
v -0.195 -0.3088575 0.018
v -0.1995 -0.31006327 0.018
v -0.20279423 -0.3133575 0.018
v -0.204 -0.3178575 0.018
v -0.20279423 -0.3223575 0.018
v -0.1995 -0.32565173 0.018
v -0.195 -0.3268575 0.018
v -0.1905 -0.32565173 0.018
v -0.18720577 -0.3223575 0.018
v -0.20091675 -0.3178575 0.018
v -0.19978675 -0.31437972 0.018
v -0.19682838 -0.31223034 0.018
v -0.19317162 -0.31223034 0.018
v -0.19021325 -0.31437972 0.018
v -0.18908325 -0.3178575 0.018
v -0.19021325 -0.32133528 0.018
v -0.19317162 -0.32348466 0.018
v -0.19682838 -0.32348466 0.018
v -0.19978675 -0.32133528 0.018
v -0.20091675 -0.3178575 0.018
v -0.19978675 -0.32133528 0.018
v -0.19682838 -0.32348466 0.018
v -0.19317162 -0.32348466 0.018
v -0.19021325 -0.32133528 0.018
v -0.18908325 -0.3178575 0.018
v -0.19021325 -0.31437972 0.018
v -0.19317162 -0.31223034 0.018
v -0.19682838 -0.31223034 0.018
v -0.19978675 -0.31437972 0.018
v -0.20091675 -0.3178575 0.055999999
v -0.19978675 -0.31437972 0.055999999
v -0.19682838 -0.31223034 0.055999999
v -0.19317162 -0.31223034 0.055999999
v -0.19021325 -0.31437972 0.055999999
v -0.18908325 -0.3178575 0.055999999
v -0.19021325 -0.32133528 0.055999999
v -0.19317162 -0.32348466 0.055999999
v -0.19682838 -0.32348466 0.055999999
v -0.19978675 -0.32133528 0.055999999
v -0.20091675 -0.3178575 0.018
v -0.20091675 -0.3178575 0.055999999
v -0.20091675 -0.3178575 0.055999999
v -0.19978675 -0.32133528 0.055999999
v -0.19682838 -0.32348466 0.055999999
v -0.19317162 -0.32348466 0.055999999
v -0.19021325 -0.32133528 0.055999999
v -0.18908325 -0.3178575 0.055999999
v -0.19021325 -0.31437972 0.055999999
v -0.19317162 -0.31223034 0.055999999
v -0.19682838 -0.31223034 0.055999999
v -0.19978675 -0.31437972 0.055999999
f 217 218 235
f 235 218 234
f 234 218 219
f 234 219 233
f 233 219 220
f 233 220 232
f 232 220 221
f 232 221 231
f 231 221 222
f 231 222 230
f 230 222 229
f 229 222 228
f 228 222 227
f 227 222 226
f 226 222 225
f 225 222 224
f 224 222 223
f 237 255 236
f 236 255 256
f 236 256 254
f 254 256 257
f 254 257 253
f 253 257 258
f 253 258 252
f 252 258 259
f 252 259 251
f 251 259 260
f 251 260 250
f 250 260 261
f 250 261 249
f 249 261 262
f 249 262 248
f 248 262 263
f 248 263 247
f 247 263 275
f 247 275 246
f 274 264 265
f 274 265 245
f 245 265 266
f 245 266 244
f 244 266 267
f 244 267 243
f 243 267 268
f 243 268 242
f 242 268 269
f 242 269 241
f 241 269 270
f 241 270 240
f 240 270 271
f 240 271 239
f 239 271 272
f 239 272 238
f 238 272 273
f 238 273 237
f 237 273 255
f 294 276 295
f 295 276 277
f 295 277 306
f 306 277 278
f 306 278 305
f 305 278 279
f 305 279 280
f 305 280 304
f 304 280 281
f 304 281 282
f 304 282 303
f 303 282 283
f 303 283 302
f 302 283 284
f 302 284 307
f 302 307 301
f 308 285 286
f 308 286 300
f 300 286 287
f 300 287 288
f 300 288 299
f 299 288 289
f 299 289 298
f 298 289 290
f 298 290 291
f 298 291 297
f 297 291 292
f 297 292 293
f 297 293 296
f 296 293 294
f 296 294 295
f 310 332 309
f 309 332 321
f 309 321 320
f 320 321 322
f 320 322 319
f 319 322 323
f 319 323 318
f 318 323 324
f 318 324 317
f 317 324 325
f 317 325 316
f 316 325 326
f 316 326 315
f 315 326 334
f 333 327 314
f 314 327 328
f 314 328 313
f 313 328 329
f 313 329 312
f 312 329 330
f 312 330 311
f 311 330 331
f 311 331 310
f 310 331 332
f 346 335 352
f 352 335 336
f 352 336 351
f 351 336 337
f 351 337 350
f 350 337 338
f 350 338 349
f 349 338 339
f 349 339 348
f 348 339 340
f 348 340 347
f 347 340 341
f 347 341 342
f 347 342 356
f 356 342 343
f 356 343 355
f 355 343 344
f 355 344 354
f 354 344 345
f 354 345 353
f 353 345 346
f 353 346 352
f 358 376 357
f 357 376 378
f 377 367 366
f 366 367 368
f 366 368 369
f 358 359 376
f 376 359 375
f 375 359 360
f 375 360 374
f 374 360 361
f 374 361 373
f 373 361 362
f 373 362 372
f 372 362 363
f 372 363 371
f 371 363 364
f 371 364 370
f 370 364 365
f 370 365 369
f 369 365 366
f 380 383 379
f 379 383 384
f 379 384 388
f 388 384 385
f 388 385 387
f 387 385 386
f 381 382 380
f 380 382 383
v -0.201 -0.3178575 0.03
v -0.20048127 -0.32029792 0.03
v -0.19901478 -0.32231637 0.03
v -0.1968541 -0.32356384 0.03
v -0.19437283 -0.32382463 0.03
v -0.192 -0.32305365 0.03
v -0.1901459 -0.32138421 0.03
v -0.18913111 -0.31910497 0.03
v -0.18913111 -0.31661003 0.03
v -0.1901459 -0.31433079 0.03
v -0.192 -0.31266135 0.03
v -0.19437283 -0.31189037 0.03
v -0.1968541 -0.31215116 0.03
v -0.19901478 -0.31339863 0.03
v -0.20048127 -0.31541708 0.03
v -0.201 -0.3178575 0.022
v -0.20048127 -0.31541708 0.022
v -0.19901478 -0.31339863 0.022
v -0.1968541 -0.31215116 0.022
v -0.19437283 -0.31189037 0.022
v -0.192 -0.31266135 0.022
v -0.1901459 -0.31433079 0.022
v -0.18913111 -0.31661003 0.022
v -0.18913111 -0.31910497 0.022
v -0.1901459 -0.32138421 0.022
v -0.192 -0.32305365 0.022
v -0.19437283 -0.32382463 0.022
v -0.1968541 -0.32356384 0.022
v -0.19901478 -0.32231637 0.022
v -0.20048127 -0.32029792 0.022
v -0.201 -0.3178575 0.03
v -0.201 -0.3178575 0.022
v -0.195 -0.33055921 0.022
v -0.184 -0.32420835 0.022
v -0.184 -0.32420835 0.03
v -0.195 -0.33055921 0.03
v -0.206 -0.32420835 0.022
v -0.195 -0.33055921 0.022
v -0.195 -0.33055921 0.03
v -0.206 -0.32420835 0.03
v -0.206 -0.31150665 0.022
v -0.206 -0.32420835 0.022
v -0.206 -0.32420835 0.03
v -0.206 -0.31150665 0.03
v -0.195 -0.30515579 0.022
v -0.206 -0.31150665 0.022
v -0.206 -0.31150665 0.03
v -0.195 -0.30515579 0.03
v -0.184 -0.31150665 0.022
v -0.195 -0.30515579 0.022
v -0.195 -0.30515579 0.03
v -0.184 -0.31150665 0.03
v -0.201 -0.3178575 0.03
v -0.20048127 -0.31541708 0.03
v -0.19901478 -0.31339863 0.03
v -0.1968541 -0.31215116 0.03
v -0.19437283 -0.31189037 0.03
v -0.192 -0.31266135 0.03
v -0.1901459 -0.31433079 0.03
v -0.18913111 -0.31661003 0.03
v -0.18913111 -0.31910497 0.03
v -0.1901459 -0.32138421 0.03
v -0.192 -0.32305365 0.03
v -0.19437283 -0.32382463 0.03
v -0.1968541 -0.32356384 0.03
v -0.19901478 -0.32231637 0.03
v -0.20048127 -0.32029792 0.03
v -0.184 -0.32420835 0.03
v -0.184 -0.31150665 0.03
v -0.195 -0.30515579 0.03
v -0.206 -0.31150665 0.03
v -0.206 -0.32420835 0.03
v -0.195 -0.33055921 0.03
v -0.184 -0.32420835 0.022
v -0.184 -0.31150665 0.022
v -0.184 -0.31150665 0.03
v -0.184 -0.32420835 0.03
v -0.201 -0.3178575 0.022
v -0.20048127 -0.32029792 0.022
v -0.19901478 -0.32231637 0.022
v -0.1968541 -0.32356384 0.022
v -0.19437283 -0.32382463 0.022
v -0.192 -0.32305365 0.022
v -0.1901459 -0.32138421 0.022
v -0.18913111 -0.31910497 0.022
v -0.18913111 -0.31661003 0.022
v -0.1901459 -0.31433079 0.022
v -0.192 -0.31266135 0.022
v -0.19437283 -0.31189037 0.022
v -0.1968541 -0.31215116 0.022
v -0.19901478 -0.31339863 0.022
v -0.20048127 -0.31541708 0.022
v -0.184 -0.31150665 0.022
v -0.184 -0.32420835 0.022
v -0.195 -0.33055921 0.022
v -0.206 -0.32420835 0.022
v -0.206 -0.31150665 0.022
v -0.195 -0.30515579 0.022
f 390 418 389
f 389 418 420
f 419 404 403
f 403 404 405
f 403 405 402
f 402 405 406
f 402 406 401
f 401 406 407
f 401 407 400
f 400 407 408
f 400 408 399
f 399 408 409
f 399 409 398
f 398 409 410
f 398 410 397
f 397 410 411
f 397 411 396
f 396 411 412
f 396 412 395
f 395 412 413
f 395 413 394
f 394 413 414
f 394 414 393
f 393 414 415
f 393 415 392
f 392 415 416
f 392 416 391
f 391 416 417
f 391 417 390
f 390 417 418
f 421 422 424
f 424 422 423
f 425 426 428
f 428 426 427
f 429 430 432
f 432 430 431
f 433 434 436
f 436 434 435
f 437 438 440
f 440 438 439
f 442 459 441
f 441 459 460
f 441 460 455
f 455 460 454
f 454 460 461
f 454 461 453
f 453 461 452
f 452 461 451
f 451 461 456
f 451 456 450
f 450 456 449
f 449 456 448
f 448 456 457
f 448 457 447
f 447 457 446
f 446 457 458
f 446 458 445
f 445 458 444
f 444 458 443
f 443 458 459
f 443 459 442
f 462 463 465
f 465 463 464
f 467 484 466
f 466 484 485
f 466 485 480
f 480 485 479
f 479 485 486
f 479 486 478
f 478 486 477
f 477 486 476
f 476 486 481
f 476 481 475
f 475 481 474
f 474 481 482
f 474 482 473
f 473 482 472
f 472 482 471
f 471 482 483
f 471 483 470
f 470 483 469
f 469 483 468
f 468 483 484
f 468 484 467
v -0.201 -0.3178575 0.05
v -0.20048127 -0.32029792 0.05
v -0.19901478 -0.32231637 0.05
v -0.1968541 -0.32356384 0.05
v -0.19437283 -0.32382463 0.05
v -0.192 -0.32305365 0.05
v -0.1901459 -0.32138421 0.05
v -0.18913111 -0.31910497 0.05
v -0.18913111 -0.31661003 0.05
v -0.1901459 -0.31433079 0.05
v -0.192 -0.31266135 0.05
v -0.19437283 -0.31189037 0.05
v -0.1968541 -0.31215116 0.05
v -0.19901478 -0.31339863 0.05
v -0.20048127 -0.31541708 0.05
v -0.201 -0.3178575 0.041999998
v -0.20048127 -0.31541708 0.041999998
v -0.19901478 -0.31339863 0.041999998
v -0.1968541 -0.31215116 0.041999998
v -0.19437283 -0.31189037 0.041999998
v -0.192 -0.31266135 0.041999998
v -0.1901459 -0.31433079 0.041999998
v -0.18913111 -0.31661003 0.041999998
v -0.18913111 -0.31910497 0.041999998
v -0.1901459 -0.32138421 0.041999998
v -0.192 -0.32305365 0.041999998
v -0.19437283 -0.32382463 0.041999998
v -0.1968541 -0.32356384 0.041999998
v -0.19901478 -0.32231637 0.041999998
v -0.20048127 -0.32029792 0.041999998
v -0.201 -0.3178575 0.05
v -0.201 -0.3178575 0.041999998
v -0.195 -0.33055921 0.041999998
v -0.184 -0.32420835 0.041999998
v -0.184 -0.32420835 0.05
v -0.195 -0.33055921 0.05
v -0.206 -0.32420835 0.041999998
v -0.195 -0.33055921 0.041999998
v -0.195 -0.33055921 0.05
v -0.206 -0.32420835 0.05
v -0.206 -0.31150665 0.041999998
v -0.206 -0.32420835 0.041999998
v -0.206 -0.32420835 0.05
v -0.206 -0.31150665 0.05
v -0.195 -0.30515579 0.041999998
v -0.206 -0.31150665 0.041999998
v -0.206 -0.31150665 0.05
v -0.195 -0.30515579 0.05
v -0.184 -0.31150665 0.041999998
v -0.195 -0.30515579 0.041999998
v -0.195 -0.30515579 0.05
v -0.184 -0.31150665 0.05
v -0.201 -0.3178575 0.05
v -0.20048127 -0.31541708 0.05
v -0.19901478 -0.31339863 0.05
v -0.1968541 -0.31215116 0.05
v -0.19437283 -0.31189037 0.05
v -0.192 -0.31266135 0.05
v -0.1901459 -0.31433079 0.05
v -0.18913111 -0.31661003 0.05
v -0.18913111 -0.31910497 0.05
v -0.1901459 -0.32138421 0.05
v -0.192 -0.32305365 0.05
v -0.19437283 -0.32382463 0.05
v -0.1968541 -0.32356384 0.05
v -0.19901478 -0.32231637 0.05
v -0.20048127 -0.32029792 0.05
v -0.184 -0.32420835 0.05
v -0.184 -0.31150665 0.05
v -0.195 -0.30515579 0.05
v -0.206 -0.31150665 0.05
v -0.206 -0.32420835 0.05
v -0.195 -0.33055921 0.05
v -0.184 -0.32420835 0.041999998
v -0.184 -0.31150665 0.041999998
v -0.184 -0.31150665 0.05
v -0.184 -0.32420835 0.05
v -0.201 -0.3178575 0.041999998
v -0.20048127 -0.32029792 0.041999998
v -0.19901478 -0.32231637 0.041999998
v -0.1968541 -0.32356384 0.041999998
v -0.19437283 -0.32382463 0.041999998
v -0.192 -0.32305365 0.041999998
v -0.1901459 -0.32138421 0.041999998
v -0.18913111 -0.31910497 0.041999998
v -0.18913111 -0.31661003 0.041999998
v -0.1901459 -0.31433079 0.041999998
v -0.192 -0.31266135 0.041999998
v -0.19437283 -0.31189037 0.041999998
v -0.1968541 -0.31215116 0.041999998
v -0.19901478 -0.31339863 0.041999998
v -0.20048127 -0.31541708 0.041999998
v -0.184 -0.31150665 0.041999998
v -0.184 -0.32420835 0.041999998
v -0.195 -0.33055921 0.041999998
v -0.206 -0.32420835 0.041999998
v -0.206 -0.31150665 0.041999998
v -0.195 -0.30515579 0.041999998
f 488 516 487
f 487 516 518
f 517 502 501
f 501 502 503
f 501 503 500
f 500 503 504
f 500 504 499
f 499 504 505
f 499 505 498
f 498 505 506
f 498 506 497
f 497 506 507
f 497 507 496
f 496 507 508
f 496 508 495
f 495 508 509
f 495 509 494
f 494 509 510
f 494 510 493
f 493 510 511
f 493 511 492
f 492 511 512
f 492 512 491
f 491 512 513
f 491 513 490
f 490 513 514
f 490 514 489
f 489 514 515
f 489 515 488
f 488 515 516
f 519 520 522
f 522 520 521
f 523 524 526
f 526 524 525
f 527 528 530
f 530 528 529
f 531 532 534
f 534 532 533
f 535 536 538
f 538 536 537
f 540 557 539
f 539 557 558
f 539 558 553
f 553 558 552
f 552 558 559
f 552 559 551
f 551 559 550
f 550 559 549
f 549 559 554
f 549 554 548
f 548 554 547
f 547 554 546
f 546 554 555
f 546 555 545
f 545 555 544
f 544 555 556
f 544 556 543
f 543 556 542
f 542 556 541
f 541 556 557
f 541 557 540
f 560 561 563
f 563 561 562
f 565 582 564
f 564 582 583
f 564 583 578
f 578 583 577
f 577 583 584
f 577 584 576
f 576 584 575
f 575 584 574
f 574 584 579
f 574 579 573
f 573 579 572
f 572 579 580
f 572 580 571
f 571 580 570
f 570 580 569
f 569 580 581
f 569 581 568
f 568 581 567
f 567 581 566
f 566 581 582
f 566 582 565
v 0.78 -0.3178575 0
v 0.77864543 -0.32597499 0
v 0.77472851 -0.33321282 0
v 0.7686737 -0.33878666 0
v 0.76113714 -0.34209251 0
v 0.75293552 -0.34277211 0
v 0.74495761 -0.34075183 0
v 0.73806796 -0.3362506 0
v 0.73301316 -0.32975618 0
v 0.73034097 -0.32197236 0
v 0.73034097 -0.31374264 0
v 0.73301316 -0.30595882 0
v 0.73806796 -0.2994644 0
v 0.74495761 -0.29496317 0
v 0.75293552 -0.29294289 0
v 0.76113714 -0.29362249 0
v 0.7686737 -0.29692834 0
v 0.77472851 -0.30250218 0
v 0.77864543 -0.30974001 0
v 0.78 -0.3178575 0
v 0.77864543 -0.30974001 0
v 0.77472851 -0.30250218 0
v 0.7686737 -0.29692834 0
v 0.76113714 -0.29362249 0
v 0.75293552 -0.29294289 0
v 0.74495761 -0.29496317 0
v 0.73806796 -0.2994644 0
v 0.73301316 -0.30595882 0
v 0.73034097 -0.31374264 0
v 0.73034097 -0.32197236 0
v 0.73301316 -0.32975618 0
v 0.73806796 -0.3362506 0
v 0.74495761 -0.34075183 0
v 0.75293552 -0.34277211 0
v 0.76113714 -0.34209251 0
v 0.7686737 -0.33878666 0
v 0.77472851 -0.33321282 0
v 0.77864543 -0.32597499 0
v 0.78 -0.3178575 0.0060000002
v 0.77864543 -0.32597499 0.0060000002
v 0.77472851 -0.33321282 0.0060000002
v 0.7686737 -0.33878666 0.0060000002
v 0.76113714 -0.34209251 0.0060000002
v 0.75293552 -0.34277211 0.0060000002
v 0.74495761 -0.34075183 0.0060000002
v 0.73806796 -0.3362506 0.0060000002
v 0.73301316 -0.32975618 0.0060000002
v 0.73034097 -0.32197236 0.0060000002
v 0.73034097 -0.31374264 0.0060000002
v 0.73301316 -0.30595882 0.0060000002
v 0.73806796 -0.2994644 0.0060000002
v 0.74495761 -0.29496317 0.0060000002
v 0.75293552 -0.29294289 0.0060000002
v 0.76113714 -0.29362249 0.0060000002
v 0.7686737 -0.29692834 0.0060000002
v 0.77472851 -0.30250218 0.0060000002
v 0.77864543 -0.30974001 0.0060000002
v 0.73034097 -0.32197236 0
v 0.73034097 -0.32197236 0.0060000002
v 0.78 -0.3178575 0.0060000002
v 0.77864543 -0.30974001 0.0060000002
v 0.77472851 -0.30250218 0.0060000002
v 0.7686737 -0.29692834 0.0060000002
v 0.76113714 -0.29362249 0.0060000002
v 0.75293552 -0.29294289 0.0060000002
v 0.74495761 -0.29496317 0.0060000002
v 0.73806796 -0.2994644 0.0060000002
v 0.73301316 -0.30595882 0.0060000002
v 0.73034097 -0.31374264 0.0060000002
v 0.73034097 -0.32197236 0.0060000002
v 0.73301316 -0.32975618 0.0060000002
v 0.73806796 -0.3362506 0.0060000002
v 0.74495761 -0.34075183 0.0060000002
v 0.75293552 -0.34277211 0.0060000002
v 0.76113714 -0.34209251 0.0060000002
v 0.7686737 -0.33878666 0.0060000002
v 0.77472851 -0.33321282 0.0060000002
v 0.77864543 -0.32597499 0.0060000002
v 0.764 -0.3178575 0.014
v 0.76279423 -0.3223575 0.014
v 0.7595 -0.32565173 0.014
v 0.755 -0.3268575 0.014
v 0.7505 -0.32565173 0.014
v 0.74720577 -0.3223575 0.014
v 0.746 -0.3178575 0.014
v 0.74720577 -0.3133575 0.014
v 0.7505 -0.31006327 0.014
v 0.755 -0.3088575 0.014
v 0.7595 -0.31006327 0.014
v 0.76279423 -0.3133575 0.014
v 0.73034097 -0.31374264 0.0060000002
v 0.746 -0.3178575 0.014
v 0.764 -0.3178575 0.014
v 0.76279423 -0.3133575 0.014
v 0.7595 -0.31006327 0.014
v 0.755 -0.3088575 0.014
v 0.7505 -0.31006327 0.014
v 0.74720577 -0.3133575 0.014
v 0.746 -0.3178575 0.014
v 0.74720577 -0.3223575 0.014
v 0.7505 -0.32565173 0.014
v 0.755 -0.3268575 0.014
v 0.7595 -0.32565173 0.014
v 0.76279423 -0.3223575 0.014
v 0.764 -0.3178575 0.018
v 0.76279423 -0.3223575 0.018
v 0.7595 -0.32565173 0.018
v 0.755 -0.3268575 0.018
v 0.7505 -0.32565173 0.018
v 0.74720577 -0.3223575 0.018
v 0.746 -0.3178575 0.018
v 0.74720577 -0.3133575 0.018
v 0.7505 -0.31006327 0.018
v 0.755 -0.3088575 0.018
v 0.7595 -0.31006327 0.018
v 0.76279423 -0.3133575 0.018
v 0.746 -0.3178575 0.014
v 0.746 -0.3178575 0.018
v 0.764 -0.3178575 0.018
v 0.76279423 -0.3133575 0.018
v 0.7595 -0.31006327 0.018
v 0.755 -0.3088575 0.018
v 0.7505 -0.31006327 0.018
v 0.74720577 -0.3133575 0.018
v 0.746 -0.3178575 0.018
v 0.74720577 -0.3223575 0.018
v 0.7505 -0.32565173 0.018
v 0.755 -0.3268575 0.018
v 0.7595 -0.32565173 0.018
v 0.76279423 -0.3223575 0.018
v 0.74908325 -0.3178575 0.018
v 0.75021325 -0.31437972 0.018
v 0.75317162 -0.31223034 0.018
v 0.75682838 -0.31223034 0.018
v 0.75978675 -0.31437972 0.018
v 0.76091675 -0.3178575 0.018
v 0.75978675 -0.32133528 0.018
v 0.75682838 -0.32348466 0.018
v 0.75317162 -0.32348466 0.018
v 0.75021325 -0.32133528 0.018
v 0.74908325 -0.3178575 0.018
v 0.75021325 -0.32133528 0.018
v 0.75317162 -0.32348466 0.018
v 0.75682838 -0.32348466 0.018
v 0.75978675 -0.32133528 0.018
v 0.76091675 -0.3178575 0.018
v 0.75978675 -0.31437972 0.018
v 0.75682838 -0.31223034 0.018
v 0.75317162 -0.31223034 0.018
v 0.75021325 -0.31437972 0.018
v 0.74908325 -0.3178575 0.055999999
v 0.75021325 -0.31437972 0.055999999
v 0.75317162 -0.31223034 0.055999999
v 0.75682838 -0.31223034 0.055999999
v 0.75978675 -0.31437972 0.055999999
v 0.76091675 -0.3178575 0.055999999
v 0.75978675 -0.32133528 0.055999999
v 0.75682838 -0.32348466 0.055999999
v 0.75317162 -0.32348466 0.055999999
v 0.75021325 -0.32133528 0.055999999
v 0.74908325 -0.3178575 0.018
v 0.74908325 -0.3178575 0.055999999
v 0.74908325 -0.3178575 0.055999999
v 0.75021325 -0.32133528 0.055999999
v 0.75317162 -0.32348466 0.055999999
v 0.75682838 -0.32348466 0.055999999
v 0.75978675 -0.32133528 0.055999999
v 0.76091675 -0.3178575 0.055999999
v 0.75978675 -0.31437972 0.055999999
v 0.75682838 -0.31223034 0.055999999
v 0.75317162 -0.31223034 0.055999999
v 0.75021325 -0.31437972 0.055999999
f 585 586 603
f 603 586 602
f 602 586 587
f 602 587 601
f 601 587 588
f 601 588 600
f 600 588 589
f 600 589 599
f 599 589 590
f 599 590 598
f 598 590 597
f 597 590 596
f 596 590 595
f 595 590 594
f 594 590 593
f 593 590 592
f 592 590 591
f 605 623 604
f 604 623 624
f 604 624 622
f 622 624 625
f 622 625 621
f 621 625 626
f 621 626 620
f 620 626 627
f 620 627 619
f 619 627 628
f 619 628 618
f 618 628 629
f 618 629 617
f 617 629 630
f 617 630 616
f 616 630 631
f 616 631 615
f 615 631 643
f 615 643 614
f 642 632 633
f 642 633 613
f 613 633 634
f 613 634 612
f 612 634 635
f 612 635 611
f 611 635 636
f 611 636 610
f 610 636 637
f 610 637 609
f 609 637 638
f 609 638 608
f 608 638 639
f 608 639 607
f 607 639 640
f 607 640 606
f 606 640 641
f 606 641 605
f 605 641 623
f 662 644 663
f 663 644 645
f 663 645 674
f 674 645 646
f 674 646 673
f 673 646 647
f 673 647 648
f 673 648 672
f 672 648 649
f 672 649 650
f 672 650 671
f 671 650 651
f 671 651 670
f 670 651 652
f 670 652 675
f 670 675 669
f 676 653 654
f 676 654 668
f 668 654 655
f 668 655 656
f 668 656 667
f 667 656 657
f 667 657 666
f 666 657 658
f 666 658 659
f 666 659 665
f 665 659 660
f 665 660 661
f 665 661 664
f 664 661 662
f 664 662 663
f 678 700 677
f 677 700 689
f 677 689 688
f 688 689 690
f 688 690 687
f 687 690 691
f 687 691 686
f 686 691 692
f 686 692 685
f 685 692 693
f 685 693 684
f 684 693 694
f 684 694 683
f 683 694 702
f 701 695 682
f 682 695 696
f 682 696 681
f 681 696 697
f 681 697 680
f 680 697 698
f 680 698 679
f 679 698 699
f 679 699 678
f 678 699 700
f 714 703 720
f 720 703 704
f 720 704 719
f 719 704 705
f 719 705 718
f 718 705 706
f 718 706 717
f 717 706 707
f 717 707 716
f 716 707 708
f 716 708 715
f 715 708 709
f 715 709 710
f 715 710 724
f 724 710 711
f 724 711 723
f 723 711 712
f 723 712 722
f 722 712 713
f 722 713 721
f 721 713 714
f 721 714 720
f 726 744 725
f 725 744 746
f 745 735 734
f 734 735 736
f 734 736 737
f 726 727 744
f 744 727 743
f 743 727 728
f 743 728 742
f 742 728 729
f 742 729 741
f 741 729 730
f 741 730 740
f 740 730 731
f 740 731 739
f 739 731 732
f 739 732 738
f 738 732 733
f 738 733 737
f 737 733 734
f 748 751 747
f 747 751 752
f 747 752 756
f 756 752 753
f 756 753 755
f 755 753 754
f 749 750 748
f 748 750 751
v 0.749 -0.3178575 0.03
v 0.74951873 -0.32029792 0.03
v 0.75098522 -0.32231637 0.03
v 0.7531459 -0.32356384 0.03
v 0.75562717 -0.32382463 0.03
v 0.758 -0.32305365 0.03
v 0.7598541 -0.32138421 0.03
v 0.76086889 -0.31910497 0.03
v 0.76086889 -0.31661003 0.03
v 0.7598541 -0.31433079 0.03
v 0.758 -0.31266135 0.03
v 0.75562717 -0.31189037 0.03
v 0.7531459 -0.31215116 0.03
v 0.75098522 -0.31339863 0.03
v 0.74951873 -0.31541708 0.03
v 0.749 -0.3178575 0.022
v 0.74951873 -0.31541708 0.022
v 0.75098522 -0.31339863 0.022
v 0.7531459 -0.31215116 0.022
v 0.75562717 -0.31189037 0.022
v 0.758 -0.31266135 0.022
v 0.7598541 -0.31433079 0.022
v 0.76086889 -0.31661003 0.022
v 0.76086889 -0.31910497 0.022
v 0.7598541 -0.32138421 0.022
v 0.758 -0.32305365 0.022
v 0.75562717 -0.32382463 0.022
v 0.7531459 -0.32356384 0.022
v 0.75098522 -0.32231637 0.022
v 0.74951873 -0.32029792 0.022
v 0.749 -0.3178575 0.03
v 0.749 -0.3178575 0.022
v 0.755 -0.33055921 0.022
v 0.766 -0.32420835 0.022
v 0.766 -0.32420835 0.03
v 0.755 -0.33055921 0.03
v 0.744 -0.32420835 0.022
v 0.755 -0.33055921 0.022
v 0.755 -0.33055921 0.03
v 0.744 -0.32420835 0.03
v 0.744 -0.31150665 0.022
v 0.744 -0.32420835 0.022
v 0.744 -0.32420835 0.03
v 0.744 -0.31150665 0.03
v 0.755 -0.30515579 0.022
v 0.744 -0.31150665 0.022
v 0.744 -0.31150665 0.03
v 0.755 -0.30515579 0.03
v 0.766 -0.31150665 0.022
v 0.755 -0.30515579 0.022
v 0.755 -0.30515579 0.03
v 0.766 -0.31150665 0.03
v 0.749 -0.3178575 0.03
v 0.74951873 -0.31541708 0.03
v 0.75098522 -0.31339863 0.03
v 0.7531459 -0.31215116 0.03
v 0.75562717 -0.31189037 0.03
v 0.758 -0.31266135 0.03
v 0.7598541 -0.31433079 0.03
v 0.76086889 -0.31661003 0.03
v 0.76086889 -0.31910497 0.03
v 0.7598541 -0.32138421 0.03
v 0.758 -0.32305365 0.03
v 0.75562717 -0.32382463 0.03
v 0.7531459 -0.32356384 0.03
v 0.75098522 -0.32231637 0.03
v 0.74951873 -0.32029792 0.03
v 0.766 -0.32420835 0.03
v 0.766 -0.31150665 0.03
v 0.755 -0.30515579 0.03
v 0.744 -0.31150665 0.03
v 0.744 -0.32420835 0.03
v 0.755 -0.33055921 0.03
v 0.766 -0.32420835 0.022
v 0.766 -0.31150665 0.022
v 0.766 -0.31150665 0.03
v 0.766 -0.32420835 0.03
v 0.749 -0.3178575 0.022
v 0.74951873 -0.32029792 0.022
v 0.75098522 -0.32231637 0.022
v 0.7531459 -0.32356384 0.022
v 0.75562717 -0.32382463 0.022
v 0.758 -0.32305365 0.022
v 0.7598541 -0.32138421 0.022
v 0.76086889 -0.31910497 0.022
v 0.76086889 -0.31661003 0.022
v 0.7598541 -0.31433079 0.022
v 0.758 -0.31266135 0.022
v 0.75562717 -0.31189037 0.022
v 0.7531459 -0.31215116 0.022
v 0.75098522 -0.31339863 0.022
v 0.74951873 -0.31541708 0.022
v 0.766 -0.31150665 0.022
v 0.766 -0.32420835 0.022
v 0.755 -0.33055921 0.022
v 0.744 -0.32420835 0.022
v 0.744 -0.31150665 0.022
v 0.755 -0.30515579 0.022
f 758 786 757
f 757 786 788
f 787 772 771
f 771 772 773
f 771 773 770
f 770 773 774
f 770 774 769
f 769 774 775
f 769 775 768
f 768 775 776
f 768 776 767
f 767 776 777
f 767 777 766
f 766 777 778
f 766 778 765
f 765 778 779
f 765 779 764
f 764 779 780
f 764 780 763
f 763 780 781
f 763 781 762
f 762 781 782
f 762 782 761
f 761 782 783
f 761 783 760
f 760 783 784
f 760 784 759
f 759 784 785
f 759 785 758
f 758 785 786
f 789 790 792
f 792 790 791
f 793 794 796
f 796 794 795
f 797 798 800
f 800 798 799
f 801 802 804
f 804 802 803
f 805 806 808
f 808 806 807
f 810 827 809
f 809 827 828
f 809 828 823
f 823 828 822
f 822 828 829
f 822 829 821
f 821 829 820
f 820 829 819
f 819 829 824
f 819 824 818
f 818 824 817
f 817 824 816
f 816 824 825
f 816 825 815
f 815 825 814
f 814 825 826
f 814 826 813
f 813 826 812
f 812 826 811
f 811 826 827
f 811 827 810
f 830 831 833
f 833 831 832
f 835 852 834
f 834 852 853
f 834 853 848
f 848 853 847
f 847 853 854
f 847 854 846
f 846 854 845
f 845 854 844
f 844 854 849
f 844 849 843
f 843 849 842
f 842 849 850
f 842 850 841
f 841 850 840
f 840 850 839
f 839 850 851
f 839 851 838
f 838 851 837
f 837 851 836
f 836 851 852
f 836 852 835
v 0.749 -0.3178575 0.05
v 0.74951873 -0.32029792 0.05
v 0.75098522 -0.32231637 0.05
v 0.7531459 -0.32356384 0.05
v 0.75562717 -0.32382463 0.05
v 0.758 -0.32305365 0.05
v 0.7598541 -0.32138421 0.05
v 0.76086889 -0.31910497 0.05
v 0.76086889 -0.31661003 0.05
v 0.7598541 -0.31433079 0.05
v 0.758 -0.31266135 0.05
v 0.75562717 -0.31189037 0.05
v 0.7531459 -0.31215116 0.05
v 0.75098522 -0.31339863 0.05
v 0.74951873 -0.31541708 0.05
v 0.749 -0.3178575 0.041999998
v 0.74951873 -0.31541708 0.041999998
v 0.75098522 -0.31339863 0.041999998
v 0.7531459 -0.31215116 0.041999998
v 0.75562717 -0.31189037 0.041999998
v 0.758 -0.31266135 0.041999998
v 0.7598541 -0.31433079 0.041999998
v 0.76086889 -0.31661003 0.041999998
v 0.76086889 -0.31910497 0.041999998
v 0.7598541 -0.32138421 0.041999998
v 0.758 -0.32305365 0.041999998
v 0.75562717 -0.32382463 0.041999998
v 0.7531459 -0.32356384 0.041999998
v 0.75098522 -0.32231637 0.041999998
v 0.74951873 -0.32029792 0.041999998
v 0.749 -0.3178575 0.05
v 0.749 -0.3178575 0.041999998
v 0.755 -0.33055921 0.041999998
v 0.766 -0.32420835 0.041999998
v 0.766 -0.32420835 0.05
v 0.755 -0.33055921 0.05
v 0.744 -0.32420835 0.041999998
v 0.755 -0.33055921 0.041999998
v 0.755 -0.33055921 0.05
v 0.744 -0.32420835 0.05
v 0.744 -0.31150665 0.041999998
v 0.744 -0.32420835 0.041999998
v 0.744 -0.32420835 0.05
v 0.744 -0.31150665 0.05
v 0.755 -0.30515579 0.041999998
v 0.744 -0.31150665 0.041999998
v 0.744 -0.31150665 0.05
v 0.755 -0.30515579 0.05
v 0.766 -0.31150665 0.041999998
v 0.755 -0.30515579 0.041999998
v 0.755 -0.30515579 0.05
v 0.766 -0.31150665 0.05
v 0.749 -0.3178575 0.05
v 0.74951873 -0.31541708 0.05
v 0.75098522 -0.31339863 0.05
v 0.7531459 -0.31215116 0.05
v 0.75562717 -0.31189037 0.05
v 0.758 -0.31266135 0.05
v 0.7598541 -0.31433079 0.05
v 0.76086889 -0.31661003 0.05
v 0.76086889 -0.31910497 0.05
v 0.7598541 -0.32138421 0.05
v 0.758 -0.32305365 0.05
v 0.75562717 -0.32382463 0.05
v 0.7531459 -0.32356384 0.05
v 0.75098522 -0.32231637 0.05
v 0.74951873 -0.32029792 0.05
v 0.766 -0.32420835 0.05
v 0.766 -0.31150665 0.05
v 0.755 -0.30515579 0.05
v 0.744 -0.31150665 0.05
v 0.744 -0.32420835 0.05
v 0.755 -0.33055921 0.05
v 0.766 -0.32420835 0.041999998
v 0.766 -0.31150665 0.041999998
v 0.766 -0.31150665 0.05
v 0.766 -0.32420835 0.05
v 0.749 -0.3178575 0.041999998
v 0.74951873 -0.32029792 0.041999998
v 0.75098522 -0.32231637 0.041999998
v 0.7531459 -0.32356384 0.041999998
v 0.75562717 -0.32382463 0.041999998
v 0.758 -0.32305365 0.041999998
v 0.7598541 -0.32138421 0.041999998
v 0.76086889 -0.31910497 0.041999998
v 0.76086889 -0.31661003 0.041999998
v 0.7598541 -0.31433079 0.041999998
v 0.758 -0.31266135 0.041999998
v 0.75562717 -0.31189037 0.041999998
v 0.7531459 -0.31215116 0.041999998
v 0.75098522 -0.31339863 0.041999998
v 0.74951873 -0.31541708 0.041999998
v 0.766 -0.31150665 0.041999998
v 0.766 -0.32420835 0.041999998
v 0.755 -0.33055921 0.041999998
v 0.744 -0.32420835 0.041999998
v 0.744 -0.31150665 0.041999998
v 0.755 -0.30515579 0.041999998
f 856 884 855
f 855 884 886
f 885 870 869
f 869 870 871
f 869 871 868
f 868 871 872
f 868 872 867
f 867 872 873
f 867 873 866
f 866 873 874
f 866 874 865
f 865 874 875
f 865 875 864
f 864 875 876
f 864 876 863
f 863 876 877
f 863 877 862
f 862 877 878
f 862 878 861
f 861 878 879
f 861 879 860
f 860 879 880
f 860 880 859
f 859 880 881
f 859 881 858
f 858 881 882
f 858 882 857
f 857 882 883
f 857 883 856
f 856 883 884
f 887 888 890
f 890 888 889
f 891 892 894
f 894 892 893
f 895 896 898
f 898 896 897
f 899 900 902
f 902 900 901
f 903 904 906
f 906 904 905
f 908 925 907
f 907 925 926
f 907 926 921
f 921 926 920
f 920 926 927
f 920 927 919
f 919 927 918
f 918 927 917
f 917 927 922
f 917 922 916
f 916 922 915
f 915 922 914
f 914 922 923
f 914 923 913
f 913 923 912
f 912 923 924
f 912 924 911
f 911 924 910
f 910 924 909
f 909 924 925
f 909 925 908
f 928 929 931
f 931 929 930
f 933 950 932
f 932 950 951
f 932 951 946
f 946 951 945
f 945 951 952
f 945 952 944
f 944 952 943
f 943 952 942
f 942 952 947
f 942 947 941
f 941 947 940
f 940 947 948
f 940 948 939
f 939 948 938
f 938 948 937
f 937 948 949
f 937 949 936
f 936 949 935
f 935 949 934
f 934 949 950
f 934 950 933
v -0.17 0.3221425 0
v -0.17135457 0.31402501 0
v -0.17527149 0.30678718 0
v -0.1813263 0.30121334 0
v -0.18886286 0.29790749 0
v -0.19706448 0.29722789 0
v -0.20504239 0.29924817 0
v -0.21193204 0.3037494 0
v -0.21698684 0.31024382 0
v -0.21965903 0.31802764 0
v -0.21965903 0.32625736 0
v -0.21698684 0.33404118 0
v -0.21193204 0.3405356 0
v -0.20504239 0.34503683 0
v -0.19706448 0.34705711 0
v -0.18886286 0.34637751 0
v -0.1813263 0.34307166 0
v -0.17527149 0.33749782 0
v -0.17135457 0.33025999 0
v -0.17 0.3221425 0
v -0.17135457 0.33025999 0
v -0.17527149 0.33749782 0
v -0.1813263 0.34307166 0
v -0.18886286 0.34637751 0
v -0.19706448 0.34705711 0
v -0.20504239 0.34503683 0
v -0.21193204 0.3405356 0
v -0.21698684 0.33404118 0
v -0.21965903 0.32625736 0
v -0.21965903 0.31802764 0
v -0.21698684 0.31024382 0
v -0.21193204 0.3037494 0
v -0.20504239 0.29924817 0
v -0.19706448 0.29722789 0
v -0.18886286 0.29790749 0
v -0.1813263 0.30121334 0
v -0.17527149 0.30678718 0
v -0.17135457 0.31402501 0
v -0.17 0.3221425 0.0060000002
v -0.17135457 0.31402501 0.0060000002
v -0.17527149 0.30678718 0.0060000002
v -0.1813263 0.30121334 0.0060000002
v -0.18886286 0.29790749 0.0060000002
v -0.19706448 0.29722789 0.0060000002
v -0.20504239 0.29924817 0.0060000002
v -0.21193204 0.3037494 0.0060000002
v -0.21698684 0.31024382 0.0060000002
v -0.21965903 0.31802764 0.0060000002
v -0.21965903 0.32625736 0.0060000002
v -0.21698684 0.33404118 0.0060000002
v -0.21193204 0.3405356 0.0060000002
v -0.20504239 0.34503683 0.0060000002
v -0.19706448 0.34705711 0.0060000002
v -0.18886286 0.34637751 0.0060000002
v -0.1813263 0.34307166 0.0060000002
v -0.17527149 0.33749782 0.0060000002
v -0.17135457 0.33025999 0.0060000002
v -0.21965903 0.31802764 0
v -0.21965903 0.31802764 0.0060000002
v -0.17 0.3221425 0.0060000002
v -0.17135457 0.33025999 0.0060000002
v -0.17527149 0.33749782 0.0060000002
v -0.1813263 0.34307166 0.0060000002
v -0.18886286 0.34637751 0.0060000002
v -0.19706448 0.34705711 0.0060000002
v -0.20504239 0.34503683 0.0060000002
v -0.21193204 0.3405356 0.0060000002
v -0.21698684 0.33404118 0.0060000002
v -0.21965903 0.32625736 0.0060000002
v -0.21965903 0.31802764 0.0060000002
v -0.21698684 0.31024382 0.0060000002
v -0.21193204 0.3037494 0.0060000002
v -0.20504239 0.29924817 0.0060000002
v -0.19706448 0.29722789 0.0060000002
v -0.18886286 0.29790749 0.0060000002
v -0.1813263 0.30121334 0.0060000002
v -0.17527149 0.30678718 0.0060000002
v -0.17135457 0.31402501 0.0060000002
v -0.186 0.3221425 0.014
v -0.18720577 0.3176425 0.014
v -0.1905 0.31434827 0.014
v -0.195 0.3131425 0.014
v -0.1995 0.31434827 0.014
v -0.20279423 0.3176425 0.014
v -0.204 0.3221425 0.014
v -0.20279423 0.3266425 0.014
v -0.1995 0.32993673 0.014
v -0.195 0.3311425 0.014
v -0.1905 0.32993673 0.014
v -0.18720577 0.3266425 0.014
v -0.21965903 0.32625736 0.0060000002
v -0.204 0.3221425 0.014
v -0.186 0.3221425 0.014
v -0.18720577 0.3266425 0.014
v -0.1905 0.32993673 0.014
v -0.195 0.3311425 0.014
v -0.1995 0.32993673 0.014
v -0.20279423 0.3266425 0.014
v -0.204 0.3221425 0.014
v -0.20279423 0.3176425 0.014
v -0.1995 0.31434827 0.014
v -0.195 0.3131425 0.014
v -0.1905 0.31434827 0.014
v -0.18720577 0.3176425 0.014
v -0.186 0.3221425 0.018
v -0.18720577 0.3176425 0.018
v -0.1905 0.31434827 0.018
v -0.195 0.3131425 0.018
v -0.1995 0.31434827 0.018
v -0.20279423 0.3176425 0.018
v -0.204 0.3221425 0.018
v -0.20279423 0.3266425 0.018
v -0.1995 0.32993673 0.018
v -0.195 0.3311425 0.018
v -0.1905 0.32993673 0.018
v -0.18720577 0.3266425 0.018
v -0.204 0.3221425 0.014
v -0.204 0.3221425 0.018
v -0.186 0.3221425 0.018
v -0.18720577 0.3266425 0.018
v -0.1905 0.32993673 0.018
v -0.195 0.3311425 0.018
v -0.1995 0.32993673 0.018
v -0.20279423 0.3266425 0.018
v -0.204 0.3221425 0.018
v -0.20279423 0.3176425 0.018
v -0.1995 0.31434827 0.018
v -0.195 0.3131425 0.018
v -0.1905 0.31434827 0.018
v -0.18720577 0.3176425 0.018
v -0.20091675 0.3221425 0.018
v -0.19978675 0.32562028 0.018
v -0.19682838 0.32776966 0.018
v -0.19317162 0.32776966 0.018
v -0.19021325 0.32562028 0.018
v -0.18908325 0.3221425 0.018
v -0.19021325 0.31866472 0.018
v -0.19317162 0.31651534 0.018
v -0.19682838 0.31651534 0.018
v -0.19978675 0.31866472 0.018
v -0.20091675 0.3221425 0.018
v -0.19978675 0.31866472 0.018
v -0.19682838 0.31651534 0.018
v -0.19317162 0.31651534 0.018
v -0.19021325 0.31866472 0.018
v -0.18908325 0.3221425 0.018
v -0.19021325 0.32562028 0.018
v -0.19317162 0.32776966 0.018
v -0.19682838 0.32776966 0.018
v -0.19978675 0.32562028 0.018
v -0.20091675 0.3221425 0.055999999
v -0.19978675 0.32562028 0.055999999
v -0.19682838 0.32776966 0.055999999
v -0.19317162 0.32776966 0.055999999
v -0.19021325 0.32562028 0.055999999
v -0.18908325 0.3221425 0.055999999
v -0.19021325 0.31866472 0.055999999
v -0.19317162 0.31651534 0.055999999
v -0.19682838 0.31651534 0.055999999
v -0.19978675 0.31866472 0.055999999
v -0.20091675 0.3221425 0.018
v -0.20091675 0.3221425 0.055999999
v -0.20091675 0.3221425 0.055999999
v -0.19978675 0.31866472 0.055999999
v -0.19682838 0.31651534 0.055999999
v -0.19317162 0.31651534 0.055999999
v -0.19021325 0.31866472 0.055999999
v -0.18908325 0.3221425 0.055999999
v -0.19021325 0.32562028 0.055999999
v -0.19317162 0.32776966 0.055999999
v -0.19682838 0.32776966 0.055999999
v -0.19978675 0.32562028 0.055999999
f 953 954 971
f 971 954 970
f 970 954 955
f 970 955 969
f 969 955 956
f 969 956 968
f 968 956 957
f 968 957 967
f 967 957 958
f 967 958 966
f 966 958 965
f 965 958 964
f 964 958 963
f 963 958 962
f 962 958 961
f 961 958 960
f 960 958 959
f 973 991 972
f 972 991 992
f 972 992 990
f 990 992 993
f 990 993 989
f 989 993 994
f 989 994 988
f 988 994 995
f 988 995 987
f 987 995 996
f 987 996 986
f 986 996 997
f 986 997 985
f 985 997 998
f 985 998 984
f 984 998 999
f 984 999 983
f 983 999 1011
f 983 1011 982
f 1010 1000 1001
f 1010 1001 981
f 981 1001 1002
f 981 1002 980
f 980 1002 1003
f 980 1003 979
f 979 1003 1004
f 979 1004 978
f 978 1004 1005
f 978 1005 977
f 977 1005 1006
f 977 1006 976
f 976 1006 1007
f 976 1007 975
f 975 1007 1008
f 975 1008 974
f 974 1008 1009
f 974 1009 973
f 973 1009 991
f 1030 1012 1031
f 1031 1012 1013
f 1031 1013 1042
f 1042 1013 1014
f 1042 1014 1041
f 1041 1014 1015
f 1041 1015 1016
f 1041 1016 1040
f 1040 1016 1017
f 1040 1017 1018
f 1040 1018 1039
f 1039 1018 1019
f 1039 1019 1038
f 1038 1019 1020
f 1038 1020 1043
f 1038 1043 1037
f 1044 1021 1022
f 1044 1022 1036
f 1036 1022 1023
f 1036 1023 1024
f 1036 1024 1035
f 1035 1024 1025
f 1035 1025 1034
f 1034 1025 1026
f 1034 1026 1027
f 1034 1027 1033
f 1033 1027 1028
f 1033 1028 1029
f 1033 1029 1032
f 1032 1029 1030
f 1032 1030 1031
f 1046 1068 1045
f 1045 1068 1057
f 1045 1057 1056
f 1056 1057 1058
f 1056 1058 1055
f 1055 1058 1059
f 1055 1059 1054
f 1054 1059 1060
f 1054 1060 1053
f 1053 1060 1061
f 1053 1061 1052
f 1052 1061 1062
f 1052 1062 1051
f 1051 1062 1070
f 1069 1063 1050
f 1050 1063 1064
f 1050 1064 1049
f 1049 1064 1065
f 1049 1065 1048
f 1048 1065 1066
f 1048 1066 1047
f 1047 1066 1067
f 1047 1067 1046
f 1046 1067 1068
f 1082 1071 1088
f 1088 1071 1072
f 1088 1072 1087
f 1087 1072 1073
f 1087 1073 1086
f 1086 1073 1074
f 1086 1074 1085
f 1085 1074 1075
f 1085 1075 1084
f 1084 1075 1076
f 1084 1076 1083
f 1083 1076 1077
f 1083 1077 1078
f 1083 1078 1092
f 1092 1078 1079
f 1092 1079 1091
f 1091 1079 1080
f 1091 1080 1090
f 1090 1080 1081
f 1090 1081 1089
f 1089 1081 1082
f 1089 1082 1088
f 1094 1112 1093
f 1093 1112 1114
f 1113 1103 1102
f 1102 1103 1104
f 1102 1104 1105
f 1094 1095 1112
f 1112 1095 1111
f 1111 1095 1096
f 1111 1096 1110
f 1110 1096 1097
f 1110 1097 1109
f 1109 1097 1098
f 1109 1098 1108
f 1108 1098 1099
f 1108 1099 1107
f 1107 1099 1100
f 1107 1100 1106
f 1106 1100 1101
f 1106 1101 1105
f 1105 1101 1102
f 1116 1119 1115
f 1115 1119 1120
f 1115 1120 1124
f 1124 1120 1121
f 1124 1121 1123
f 1123 1121 1122
f 1117 1118 1116
f 1116 1118 1119
v -0.201 0.3221425 0.03
v -0.20048127 0.31970208 0.03
v -0.19901478 0.31768363 0.03
v -0.1968541 0.31643616 0.03
v -0.19437283 0.31617537 0.03
v -0.192 0.31694635 0.03
v -0.1901459 0.31861579 0.03
v -0.18913111 0.32089503 0.03
v -0.18913111 0.32338997 0.03
v -0.1901459 0.32566921 0.03
v -0.192 0.32733865 0.03
v -0.19437283 0.32810963 0.03
v -0.1968541 0.32784884 0.03
v -0.19901478 0.32660137 0.03
v -0.20048127 0.32458292 0.03
v -0.201 0.3221425 0.022
v -0.20048127 0.32458292 0.022
v -0.19901478 0.32660137 0.022
v -0.1968541 0.32784884 0.022
v -0.19437283 0.32810963 0.022
v -0.192 0.32733865 0.022
v -0.1901459 0.32566921 0.022
v -0.18913111 0.32338997 0.022
v -0.18913111 0.32089503 0.022
v -0.1901459 0.31861579 0.022
v -0.192 0.31694635 0.022
v -0.19437283 0.31617537 0.022
v -0.1968541 0.31643616 0.022
v -0.19901478 0.31768363 0.022
v -0.20048127 0.31970208 0.022
v -0.201 0.3221425 0.03
v -0.201 0.3221425 0.022
v -0.195 0.30944079 0.022
v -0.184 0.31579165 0.022
v -0.184 0.31579165 0.03
v -0.195 0.30944079 0.03
v -0.206 0.31579165 0.022
v -0.195 0.30944079 0.022
v -0.195 0.30944079 0.03
v -0.206 0.31579165 0.03
v -0.206 0.32849335 0.022
v -0.206 0.31579165 0.022
v -0.206 0.31579165 0.03
v -0.206 0.32849335 0.03
v -0.195 0.33484421 0.022
v -0.206 0.32849335 0.022
v -0.206 0.32849335 0.03
v -0.195 0.33484421 0.03
v -0.184 0.32849335 0.022
v -0.195 0.33484421 0.022
v -0.195 0.33484421 0.03
v -0.184 0.32849335 0.03
v -0.201 0.3221425 0.03
v -0.20048127 0.32458292 0.03
v -0.19901478 0.32660137 0.03
v -0.1968541 0.32784884 0.03
v -0.19437283 0.32810963 0.03
v -0.192 0.32733865 0.03
v -0.1901459 0.32566921 0.03
v -0.18913111 0.32338997 0.03
v -0.18913111 0.32089503 0.03
v -0.1901459 0.31861579 0.03
v -0.192 0.31694635 0.03
v -0.19437283 0.31617537 0.03
v -0.1968541 0.31643616 0.03
v -0.19901478 0.31768363 0.03
v -0.20048127 0.31970208 0.03
v -0.184 0.31579165 0.03
v -0.184 0.32849335 0.03
v -0.195 0.33484421 0.03
v -0.206 0.32849335 0.03
v -0.206 0.31579165 0.03
v -0.195 0.30944079 0.03
v -0.184 0.31579165 0.022
v -0.184 0.32849335 0.022
v -0.184 0.32849335 0.03
v -0.184 0.31579165 0.03
v -0.201 0.3221425 0.022
v -0.20048127 0.31970208 0.022
v -0.19901478 0.31768363 0.022
v -0.1968541 0.31643616 0.022
v -0.19437283 0.31617537 0.022
v -0.192 0.31694635 0.022
v -0.1901459 0.31861579 0.022
v -0.18913111 0.32089503 0.022
v -0.18913111 0.32338997 0.022
v -0.1901459 0.32566921 0.022
v -0.192 0.32733865 0.022
v -0.19437283 0.32810963 0.022
v -0.1968541 0.32784884 0.022
v -0.19901478 0.32660137 0.022
v -0.20048127 0.32458292 0.022
v -0.184 0.32849335 0.022
v -0.184 0.31579165 0.022
v -0.195 0.30944079 0.022
v -0.206 0.31579165 0.022
v -0.206 0.32849335 0.022
v -0.195 0.33484421 0.022
f 1126 1154 1125
f 1125 1154 1156
f 1155 1140 1139
f 1139 1140 1141
f 1139 1141 1138
f 1138 1141 1142
f 1138 1142 1137
f 1137 1142 1143
f 1137 1143 1136
f 1136 1143 1144
f 1136 1144 1135
f 1135 1144 1145
f 1135 1145 1134
f 1134 1145 1146
f 1134 1146 1133
f 1133 1146 1147
f 1133 1147 1132
f 1132 1147 1148
f 1132 1148 1131
f 1131 1148 1149
f 1131 1149 1130
f 1130 1149 1150
f 1130 1150 1129
f 1129 1150 1151
f 1129 1151 1128
f 1128 1151 1152
f 1128 1152 1127
f 1127 1152 1153
f 1127 1153 1126
f 1126 1153 1154
f 1157 1158 1160
f 1160 1158 1159
f 1161 1162 1164
f 1164 1162 1163
f 1165 1166 1168
f 1168 1166 1167
f 1169 1170 1172
f 1172 1170 1171
f 1173 1174 1176
f 1176 1174 1175
f 1178 1195 1177
f 1177 1195 1196
f 1177 1196 1191
f 1191 1196 1190
f 1190 1196 1197
f 1190 1197 1189
f 1189 1197 1188
f 1188 1197 1187
f 1187 1197 1192
f 1187 1192 1186
f 1186 1192 1185
f 1185 1192 1184
f 1184 1192 1193
f 1184 1193 1183
f 1183 1193 1182
f 1182 1193 1194
f 1182 1194 1181
f 1181 1194 1180
f 1180 1194 1179
f 1179 1194 1195
f 1179 1195 1178
f 1198 1199 1201
f 1201 1199 1200
f 1203 1220 1202
f 1202 1220 1221
f 1202 1221 1216
f 1216 1221 1215
f 1215 1221 1222
f 1215 1222 1214
f 1214 1222 1213
f 1213 1222 1212
f 1212 1222 1217
f 1212 1217 1211
f 1211 1217 1210
f 1210 1217 1218
f 1210 1218 1209
f 1209 1218 1208
f 1208 1218 1207
f 1207 1218 1219
f 1207 1219 1206
f 1206 1219 1205
f 1205 1219 1204
f 1204 1219 1220
f 1204 1220 1203
v -0.201 0.3221425 0.05
v -0.20048127 0.31970208 0.05
v -0.19901478 0.31768363 0.05
v -0.1968541 0.31643616 0.05
v -0.19437283 0.31617537 0.05
v -0.192 0.31694635 0.05
v -0.1901459 0.31861579 0.05
v -0.18913111 0.32089503 0.05
v -0.18913111 0.32338997 0.05
v -0.1901459 0.32566921 0.05
v -0.192 0.32733865 0.05
v -0.19437283 0.32810963 0.05
v -0.1968541 0.32784884 0.05
v -0.19901478 0.32660137 0.05
v -0.20048127 0.32458292 0.05
v -0.201 0.3221425 0.041999998
v -0.20048127 0.32458292 0.041999998
v -0.19901478 0.32660137 0.041999998
v -0.1968541 0.32784884 0.041999998
v -0.19437283 0.32810963 0.041999998
v -0.192 0.32733865 0.041999998
v -0.1901459 0.32566921 0.041999998
v -0.18913111 0.32338997 0.041999998
v -0.18913111 0.32089503 0.041999998
v -0.1901459 0.31861579 0.041999998
v -0.192 0.31694635 0.041999998
v -0.19437283 0.31617537 0.041999998
v -0.1968541 0.31643616 0.041999998
v -0.19901478 0.31768363 0.041999998
v -0.20048127 0.31970208 0.041999998
v -0.201 0.3221425 0.05
v -0.201 0.3221425 0.041999998
v -0.195 0.30944079 0.041999998
v -0.184 0.31579165 0.041999998
v -0.184 0.31579165 0.05
v -0.195 0.30944079 0.05
v -0.206 0.31579165 0.041999998
v -0.195 0.30944079 0.041999998
v -0.195 0.30944079 0.05
v -0.206 0.31579165 0.05
v -0.206 0.32849335 0.041999998
v -0.206 0.31579165 0.041999998
v -0.206 0.31579165 0.05
v -0.206 0.32849335 0.05
v -0.195 0.33484421 0.041999998
v -0.206 0.32849335 0.041999998
v -0.206 0.32849335 0.05
v -0.195 0.33484421 0.05
v -0.184 0.32849335 0.041999998
v -0.195 0.33484421 0.041999998
v -0.195 0.33484421 0.05
v -0.184 0.32849335 0.05
v -0.201 0.3221425 0.05
v -0.20048127 0.32458292 0.05
v -0.19901478 0.32660137 0.05
v -0.1968541 0.32784884 0.05
v -0.19437283 0.32810963 0.05
v -0.192 0.32733865 0.05
v -0.1901459 0.32566921 0.05
v -0.18913111 0.32338997 0.05
v -0.18913111 0.32089503 0.05
v -0.1901459 0.31861579 0.05
v -0.192 0.31694635 0.05
v -0.19437283 0.31617537 0.05
v -0.1968541 0.31643616 0.05
v -0.19901478 0.31768363 0.05
v -0.20048127 0.31970208 0.05
v -0.184 0.31579165 0.05
v -0.184 0.32849335 0.05
v -0.195 0.33484421 0.05
v -0.206 0.32849335 0.05
v -0.206 0.31579165 0.05
v -0.195 0.30944079 0.05
v -0.184 0.31579165 0.041999998
v -0.184 0.32849335 0.041999998
v -0.184 0.32849335 0.05
v -0.184 0.31579165 0.05
v -0.201 0.3221425 0.041999998
v -0.20048127 0.31970208 0.041999998
v -0.19901478 0.31768363 0.041999998
v -0.1968541 0.31643616 0.041999998
v -0.19437283 0.31617537 0.041999998
v -0.192 0.31694635 0.041999998
v -0.1901459 0.31861579 0.041999998
v -0.18913111 0.32089503 0.041999998
v -0.18913111 0.32338997 0.041999998
v -0.1901459 0.32566921 0.041999998
v -0.192 0.32733865 0.041999998
v -0.19437283 0.32810963 0.041999998
v -0.1968541 0.32784884 0.041999998
v -0.19901478 0.32660137 0.041999998
v -0.20048127 0.32458292 0.041999998
v -0.184 0.32849335 0.041999998
v -0.184 0.31579165 0.041999998
v -0.195 0.30944079 0.041999998
v -0.206 0.31579165 0.041999998
v -0.206 0.32849335 0.041999998
v -0.195 0.33484421 0.041999998
f 1224 1252 1223
f 1223 1252 1254
f 1253 1238 1237
f 1237 1238 1239
f 1237 1239 1236
f 1236 1239 1240
f 1236 1240 1235
f 1235 1240 1241
f 1235 1241 1234
f 1234 1241 1242
f 1234 1242 1233
f 1233 1242 1243
f 1233 1243 1232
f 1232 1243 1244
f 1232 1244 1231
f 1231 1244 1245
f 1231 1245 1230
f 1230 1245 1246
f 1230 1246 1229
f 1229 1246 1247
f 1229 1247 1228
f 1228 1247 1248
f 1228 1248 1227
f 1227 1248 1249
f 1227 1249 1226
f 1226 1249 1250
f 1226 1250 1225
f 1225 1250 1251
f 1225 1251 1224
f 1224 1251 1252
f 1255 1256 1258
f 1258 1256 1257
f 1259 1260 1262
f 1262 1260 1261
f 1263 1264 1266
f 1266 1264 1265
f 1267 1268 1270
f 1270 1268 1269
f 1271 1272 1274
f 1274 1272 1273
f 1276 1293 1275
f 1275 1293 1294
f 1275 1294 1289
f 1289 1294 1288
f 1288 1294 1295
f 1288 1295 1287
f 1287 1295 1286
f 1286 1295 1285
f 1285 1295 1290
f 1285 1290 1284
f 1284 1290 1283
f 1283 1290 1282
f 1282 1290 1291
f 1282 1291 1281
f 1281 1291 1280
f 1280 1291 1292
f 1280 1292 1279
f 1279 1292 1278
f 1278 1292 1277
f 1277 1292 1293
f 1277 1293 1276
f 1296 1297 1299
f 1299 1297 1298
f 1301 1318 1300
f 1300 1318 1319
f 1300 1319 1314
f 1314 1319 1313
f 1313 1319 1320
f 1313 1320 1312
f 1312 1320 1311
f 1311 1320 1310
f 1310 1320 1315
f 1310 1315 1309
f 1309 1315 1308
f 1308 1315 1316
f 1308 1316 1307
f 1307 1316 1306
f 1306 1316 1305
f 1305 1316 1317
f 1305 1317 1304
f 1304 1317 1303
f 1303 1317 1302
f 1302 1317 1318
f 1302 1318 1301
v 0.78 0.3221425 0
v 0.77864543 0.31402501 0
v 0.77472851 0.30678718 0
v 0.7686737 0.30121334 0
v 0.76113714 0.29790749 0
v 0.75293552 0.29722789 0
v 0.74495761 0.29924817 0
v 0.73806796 0.3037494 0
v 0.73301316 0.31024382 0
v 0.73034097 0.31802764 0
v 0.73034097 0.32625736 0
v 0.73301316 0.33404118 0
v 0.73806796 0.3405356 0
v 0.74495761 0.34503683 0
v 0.75293552 0.34705711 0
v 0.76113714 0.34637751 0
v 0.7686737 0.34307166 0
v 0.77472851 0.33749782 0
v 0.77864543 0.33025999 0
v 0.78 0.3221425 0
v 0.77864543 0.33025999 0
v 0.77472851 0.33749782 0
v 0.7686737 0.34307166 0
v 0.76113714 0.34637751 0
v 0.75293552 0.34705711 0
v 0.74495761 0.34503683 0
v 0.73806796 0.3405356 0
v 0.73301316 0.33404118 0
v 0.73034097 0.32625736 0
v 0.73034097 0.31802764 0
v 0.73301316 0.31024382 0
v 0.73806796 0.3037494 0
v 0.74495761 0.29924817 0
v 0.75293552 0.29722789 0
v 0.76113714 0.29790749 0
v 0.7686737 0.30121334 0
v 0.77472851 0.30678718 0
v 0.77864543 0.31402501 0
v 0.78 0.3221425 0.0060000002
v 0.77864543 0.31402501 0.0060000002
v 0.77472851 0.30678718 0.0060000002
v 0.7686737 0.30121334 0.0060000002
v 0.76113714 0.29790749 0.0060000002
v 0.75293552 0.29722789 0.0060000002
v 0.74495761 0.29924817 0.0060000002
v 0.73806796 0.3037494 0.0060000002
v 0.73301316 0.31024382 0.0060000002
v 0.73034097 0.31802764 0.0060000002
v 0.73034097 0.32625736 0.0060000002
v 0.73301316 0.33404118 0.0060000002
v 0.73806796 0.3405356 0.0060000002
v 0.74495761 0.34503683 0.0060000002
v 0.75293552 0.34705711 0.0060000002
v 0.76113714 0.34637751 0.0060000002
v 0.7686737 0.34307166 0.0060000002
v 0.77472851 0.33749782 0.0060000002
v 0.77864543 0.33025999 0.0060000002
v 0.73034097 0.31802764 0
v 0.73034097 0.31802764 0.0060000002
v 0.78 0.3221425 0.0060000002
v 0.77864543 0.33025999 0.0060000002
v 0.77472851 0.33749782 0.0060000002
v 0.7686737 0.34307166 0.0060000002
v 0.76113714 0.34637751 0.0060000002
v 0.75293552 0.34705711 0.0060000002
v 0.74495761 0.34503683 0.0060000002
v 0.73806796 0.3405356 0.0060000002
v 0.73301316 0.33404118 0.0060000002
v 0.73034097 0.32625736 0.0060000002
v 0.73034097 0.31802764 0.0060000002
v 0.73301316 0.31024382 0.0060000002
v 0.73806796 0.3037494 0.0060000002
v 0.74495761 0.29924817 0.0060000002
v 0.75293552 0.29722789 0.0060000002
v 0.76113714 0.29790749 0.0060000002
v 0.7686737 0.30121334 0.0060000002
v 0.77472851 0.30678718 0.0060000002
v 0.77864543 0.31402501 0.0060000002
v 0.764 0.3221425 0.014
v 0.76279423 0.3176425 0.014
v 0.7595 0.31434827 0.014
v 0.755 0.3131425 0.014
v 0.7505 0.31434827 0.014
v 0.74720577 0.3176425 0.014
v 0.746 0.3221425 0.014
v 0.74720577 0.3266425 0.014
v 0.7505 0.32993673 0.014
v 0.755 0.3311425 0.014
v 0.7595 0.32993673 0.014
v 0.76279423 0.3266425 0.014
v 0.73034097 0.32625736 0.0060000002
v 0.746 0.3221425 0.014
v 0.764 0.3221425 0.014
v 0.76279423 0.3266425 0.014
v 0.7595 0.32993673 0.014
v 0.755 0.3311425 0.014
v 0.7505 0.32993673 0.014
v 0.74720577 0.3266425 0.014
v 0.746 0.3221425 0.014
v 0.74720577 0.3176425 0.014
v 0.7505 0.31434827 0.014
v 0.755 0.3131425 0.014
v 0.7595 0.31434827 0.014
v 0.76279423 0.3176425 0.014
v 0.764 0.3221425 0.018
v 0.76279423 0.3176425 0.018
v 0.7595 0.31434827 0.018
v 0.755 0.3131425 0.018
v 0.7505 0.31434827 0.018
v 0.74720577 0.3176425 0.018
v 0.746 0.3221425 0.018
v 0.74720577 0.3266425 0.018
v 0.7505 0.32993673 0.018
v 0.755 0.3311425 0.018
v 0.7595 0.32993673 0.018
v 0.76279423 0.3266425 0.018
v 0.746 0.3221425 0.014
v 0.746 0.3221425 0.018
v 0.764 0.3221425 0.018
v 0.76279423 0.3266425 0.018
v 0.7595 0.32993673 0.018
v 0.755 0.3311425 0.018
v 0.7505 0.32993673 0.018
v 0.74720577 0.3266425 0.018
v 0.746 0.3221425 0.018
v 0.74720577 0.3176425 0.018
v 0.7505 0.31434827 0.018
v 0.755 0.3131425 0.018
v 0.7595 0.31434827 0.018
v 0.76279423 0.3176425 0.018
v 0.74908325 0.3221425 0.018
v 0.75021325 0.32562028 0.018
v 0.75317162 0.32776966 0.018
v 0.75682838 0.32776966 0.018
v 0.75978675 0.32562028 0.018
v 0.76091675 0.3221425 0.018
v 0.75978675 0.31866472 0.018
v 0.75682838 0.31651534 0.018
v 0.75317162 0.31651534 0.018
v 0.75021325 0.31866472 0.018
v 0.74908325 0.3221425 0.018
v 0.75021325 0.31866472 0.018
v 0.75317162 0.31651534 0.018
v 0.75682838 0.31651534 0.018
v 0.75978675 0.31866472 0.018
v 0.76091675 0.3221425 0.018
v 0.75978675 0.32562028 0.018
v 0.75682838 0.32776966 0.018
v 0.75317162 0.32776966 0.018
v 0.75021325 0.32562028 0.018
v 0.74908325 0.3221425 0.055999999
v 0.75021325 0.32562028 0.055999999
v 0.75317162 0.32776966 0.055999999
v 0.75682838 0.32776966 0.055999999
v 0.75978675 0.32562028 0.055999999
v 0.76091675 0.3221425 0.055999999
v 0.75978675 0.31866472 0.055999999
v 0.75682838 0.31651534 0.055999999
v 0.75317162 0.31651534 0.055999999
v 0.75021325 0.31866472 0.055999999
v 0.74908325 0.3221425 0.018
v 0.74908325 0.3221425 0.055999999
v 0.74908325 0.3221425 0.055999999
v 0.75021325 0.31866472 0.055999999
v 0.75317162 0.31651534 0.055999999
v 0.75682838 0.31651534 0.055999999
v 0.75978675 0.31866472 0.055999999
v 0.76091675 0.3221425 0.055999999
v 0.75978675 0.32562028 0.055999999
v 0.75682838 0.32776966 0.055999999
v 0.75317162 0.32776966 0.055999999
v 0.75021325 0.32562028 0.055999999
f 1321 1322 1339
f 1339 1322 1338
f 1338 1322 1323
f 1338 1323 1337
f 1337 1323 1324
f 1337 1324 1336
f 1336 1324 1325
f 1336 1325 1335
f 1335 1325 1326
f 1335 1326 1334
f 1334 1326 1333
f 1333 1326 1332
f 1332 1326 1331
f 1331 1326 1330
f 1330 1326 1329
f 1329 1326 1328
f 1328 1326 1327
f 1341 1359 1340
f 1340 1359 1360
f 1340 1360 1358
f 1358 1360 1361
f 1358 1361 1357
f 1357 1361 1362
f 1357 1362 1356
f 1356 1362 1363
f 1356 1363 1355
f 1355 1363 1364
f 1355 1364 1354
f 1354 1364 1365
f 1354 1365 1353
f 1353 1365 1366
f 1353 1366 1352
f 1352 1366 1367
f 1352 1367 1351
f 1351 1367 1379
f 1351 1379 1350
f 1378 1368 1369
f 1378 1369 1349
f 1349 1369 1370
f 1349 1370 1348
f 1348 1370 1371
f 1348 1371 1347
f 1347 1371 1372
f 1347 1372 1346
f 1346 1372 1373
f 1346 1373 1345
f 1345 1373 1374
f 1345 1374 1344
f 1344 1374 1375
f 1344 1375 1343
f 1343 1375 1376
f 1343 1376 1342
f 1342 1376 1377
f 1342 1377 1341
f 1341 1377 1359
f 1398 1380 1399
f 1399 1380 1381
f 1399 1381 1410
f 1410 1381 1382
f 1410 1382 1409
f 1409 1382 1383
f 1409 1383 1384
f 1409 1384 1408
f 1408 1384 1385
f 1408 1385 1386
f 1408 1386 1407
f 1407 1386 1387
f 1407 1387 1406
f 1406 1387 1388
f 1406 1388 1411
f 1406 1411 1405
f 1412 1389 1390
f 1412 1390 1404
f 1404 1390 1391
f 1404 1391 1392
f 1404 1392 1403
f 1403 1392 1393
f 1403 1393 1402
f 1402 1393 1394
f 1402 1394 1395
f 1402 1395 1401
f 1401 1395 1396
f 1401 1396 1397
f 1401 1397 1400
f 1400 1397 1398
f 1400 1398 1399
f 1414 1436 1413
f 1413 1436 1425
f 1413 1425 1424
f 1424 1425 1426
f 1424 1426 1423
f 1423 1426 1427
f 1423 1427 1422
f 1422 1427 1428
f 1422 1428 1421
f 1421 1428 1429
f 1421 1429 1420
f 1420 1429 1430
f 1420 1430 1419
f 1419 1430 1438
f 1437 1431 1418
f 1418 1431 1432
f 1418 1432 1417
f 1417 1432 1433
f 1417 1433 1416
f 1416 1433 1434
f 1416 1434 1415
f 1415 1434 1435
f 1415 1435 1414
f 1414 1435 1436
f 1450 1439 1456
f 1456 1439 1440
f 1456 1440 1455
f 1455 1440 1441
f 1455 1441 1454
f 1454 1441 1442
f 1454 1442 1453
f 1453 1442 1443
f 1453 1443 1452
f 1452 1443 1444
f 1452 1444 1451
f 1451 1444 1445
f 1451 1445 1446
f 1451 1446 1460
f 1460 1446 1447
f 1460 1447 1459
f 1459 1447 1448
f 1459 1448 1458
f 1458 1448 1449
f 1458 1449 1457
f 1457 1449 1450
f 1457 1450 1456
f 1462 1480 1461
f 1461 1480 1482
f 1481 1471 1470
f 1470 1471 1472
f 1470 1472 1473
f 1462 1463 1480
f 1480 1463 1479
f 1479 1463 1464
f 1479 1464 1478
f 1478 1464 1465
f 1478 1465 1477
f 1477 1465 1466
f 1477 1466 1476
f 1476 1466 1467
f 1476 1467 1475
f 1475 1467 1468
f 1475 1468 1474
f 1474 1468 1469
f 1474 1469 1473
f 1473 1469 1470
f 1484 1487 1483
f 1483 1487 1488
f 1483 1488 1492
f 1492 1488 1489
f 1492 1489 1491
f 1491 1489 1490
f 1485 1486 1484
f 1484 1486 1487
v 0.749 0.3221425 0.03
v 0.74951873 0.31970208 0.03
v 0.75098522 0.31768363 0.03
v 0.7531459 0.31643616 0.03
v 0.75562717 0.31617537 0.03
v 0.758 0.31694635 0.03
v 0.7598541 0.31861579 0.03
v 0.76086889 0.32089503 0.03
v 0.76086889 0.32338997 0.03
v 0.7598541 0.32566921 0.03
v 0.758 0.32733865 0.03
v 0.75562717 0.32810963 0.03
v 0.7531459 0.32784884 0.03
v 0.75098522 0.32660137 0.03
v 0.74951873 0.32458292 0.03
v 0.749 0.3221425 0.022
v 0.74951873 0.32458292 0.022
v 0.75098522 0.32660137 0.022
v 0.7531459 0.32784884 0.022
v 0.75562717 0.32810963 0.022
v 0.758 0.32733865 0.022
v 0.7598541 0.32566921 0.022
v 0.76086889 0.32338997 0.022
v 0.76086889 0.32089503 0.022
v 0.7598541 0.31861579 0.022
v 0.758 0.31694635 0.022
v 0.75562717 0.31617537 0.022
v 0.7531459 0.31643616 0.022
v 0.75098522 0.31768363 0.022
v 0.74951873 0.31970208 0.022
v 0.749 0.3221425 0.03
v 0.749 0.3221425 0.022
v 0.755 0.30944079 0.022
v 0.766 0.31579165 0.022
v 0.766 0.31579165 0.03
v 0.755 0.30944079 0.03
v 0.744 0.31579165 0.022
v 0.755 0.30944079 0.022
v 0.755 0.30944079 0.03
v 0.744 0.31579165 0.03
v 0.744 0.32849335 0.022
v 0.744 0.31579165 0.022
v 0.744 0.31579165 0.03
v 0.744 0.32849335 0.03
v 0.755 0.33484421 0.022
v 0.744 0.32849335 0.022
v 0.744 0.32849335 0.03
v 0.755 0.33484421 0.03
v 0.766 0.32849335 0.022
v 0.755 0.33484421 0.022
v 0.755 0.33484421 0.03
v 0.766 0.32849335 0.03
v 0.749 0.3221425 0.03
v 0.74951873 0.32458292 0.03
v 0.75098522 0.32660137 0.03
v 0.7531459 0.32784884 0.03
v 0.75562717 0.32810963 0.03
v 0.758 0.32733865 0.03
v 0.7598541 0.32566921 0.03
v 0.76086889 0.32338997 0.03
v 0.76086889 0.32089503 0.03
v 0.7598541 0.31861579 0.03
v 0.758 0.31694635 0.03
v 0.75562717 0.31617537 0.03
v 0.7531459 0.31643616 0.03
v 0.75098522 0.31768363 0.03
v 0.74951873 0.31970208 0.03
v 0.766 0.31579165 0.03
v 0.766 0.32849335 0.03
v 0.755 0.33484421 0.03
v 0.744 0.32849335 0.03
v 0.744 0.31579165 0.03
v 0.755 0.30944079 0.03
v 0.766 0.31579165 0.022
v 0.766 0.32849335 0.022
v 0.766 0.32849335 0.03
v 0.766 0.31579165 0.03
v 0.749 0.3221425 0.022
v 0.74951873 0.31970208 0.022
v 0.75098522 0.31768363 0.022
v 0.7531459 0.31643616 0.022
v 0.75562717 0.31617537 0.022
v 0.758 0.31694635 0.022
v 0.7598541 0.31861579 0.022
v 0.76086889 0.32089503 0.022
v 0.76086889 0.32338997 0.022
v 0.7598541 0.32566921 0.022
v 0.758 0.32733865 0.022
v 0.75562717 0.32810963 0.022
v 0.7531459 0.32784884 0.022
v 0.75098522 0.32660137 0.022
v 0.74951873 0.32458292 0.022
v 0.766 0.32849335 0.022
v 0.766 0.31579165 0.022
v 0.755 0.30944079 0.022
v 0.744 0.31579165 0.022
v 0.744 0.32849335 0.022
v 0.755 0.33484421 0.022
f 1494 1522 1493
f 1493 1522 1524
f 1523 1508 1507
f 1507 1508 1509
f 1507 1509 1506
f 1506 1509 1510
f 1506 1510 1505
f 1505 1510 1511
f 1505 1511 1504
f 1504 1511 1512
f 1504 1512 1503
f 1503 1512 1513
f 1503 1513 1502
f 1502 1513 1514
f 1502 1514 1501
f 1501 1514 1515
f 1501 1515 1500
f 1500 1515 1516
f 1500 1516 1499
f 1499 1516 1517
f 1499 1517 1498
f 1498 1517 1518
f 1498 1518 1497
f 1497 1518 1519
f 1497 1519 1496
f 1496 1519 1520
f 1496 1520 1495
f 1495 1520 1521
f 1495 1521 1494
f 1494 1521 1522
f 1525 1526 1528
f 1528 1526 1527
f 1529 1530 1532
f 1532 1530 1531
f 1533 1534 1536
f 1536 1534 1535
f 1537 1538 1540
f 1540 1538 1539
f 1541 1542 1544
f 1544 1542 1543
f 1546 1563 1545
f 1545 1563 1564
f 1545 1564 1559
f 1559 1564 1558
f 1558 1564 1565
f 1558 1565 1557
f 1557 1565 1556
f 1556 1565 1555
f 1555 1565 1560
f 1555 1560 1554
f 1554 1560 1553
f 1553 1560 1552
f 1552 1560 1561
f 1552 1561 1551
f 1551 1561 1550
f 1550 1561 1562
f 1550 1562 1549
f 1549 1562 1548
f 1548 1562 1547
f 1547 1562 1563
f 1547 1563 1546
f 1566 1567 1569
f 1569 1567 1568
f 1571 1588 1570
f 1570 1588 1589
f 1570 1589 1584
f 1584 1589 1583
f 1583 1589 1590
f 1583 1590 1582
f 1582 1590 1581
f 1581 1590 1580
f 1580 1590 1585
f 1580 1585 1579
f 1579 1585 1578
f 1578 1585 1586
f 1578 1586 1577
f 1577 1586 1576
f 1576 1586 1575
f 1575 1586 1587
f 1575 1587 1574
f 1574 1587 1573
f 1573 1587 1572
f 1572 1587 1588
f 1572 1588 1571
v 0.749 0.3221425 0.05
v 0.74951873 0.31970208 0.05
v 0.75098522 0.31768363 0.05
v 0.7531459 0.31643616 0.05
v 0.75562717 0.31617537 0.05
v 0.758 0.31694635 0.05
v 0.7598541 0.31861579 0.05
v 0.76086889 0.32089503 0.05
v 0.76086889 0.32338997 0.05
v 0.7598541 0.32566921 0.05
v 0.758 0.32733865 0.05
v 0.75562717 0.32810963 0.05
v 0.7531459 0.32784884 0.05
v 0.75098522 0.32660137 0.05
v 0.74951873 0.32458292 0.05
v 0.749 0.3221425 0.041999998
v 0.74951873 0.32458292 0.041999998
v 0.75098522 0.32660137 0.041999998
v 0.7531459 0.32784884 0.041999998
v 0.75562717 0.32810963 0.041999998
v 0.758 0.32733865 0.041999998
v 0.7598541 0.32566921 0.041999998
v 0.76086889 0.32338997 0.041999998
v 0.76086889 0.32089503 0.041999998
v 0.7598541 0.31861579 0.041999998
v 0.758 0.31694635 0.041999998
v 0.75562717 0.31617537 0.041999998
v 0.7531459 0.31643616 0.041999998
v 0.75098522 0.31768363 0.041999998
v 0.74951873 0.31970208 0.041999998
v 0.749 0.3221425 0.05
v 0.749 0.3221425 0.041999998
v 0.755 0.30944079 0.041999998
v 0.766 0.31579165 0.041999998
v 0.766 0.31579165 0.05
v 0.755 0.30944079 0.05
v 0.744 0.31579165 0.041999998
v 0.755 0.30944079 0.041999998
v 0.755 0.30944079 0.05
v 0.744 0.31579165 0.05
v 0.744 0.32849335 0.041999998
v 0.744 0.31579165 0.041999998
v 0.744 0.31579165 0.05
v 0.744 0.32849335 0.05
v 0.755 0.33484421 0.041999998
v 0.744 0.32849335 0.041999998
v 0.744 0.32849335 0.05
v 0.755 0.33484421 0.05
v 0.766 0.32849335 0.041999998
v 0.755 0.33484421 0.041999998
v 0.755 0.33484421 0.05
v 0.766 0.32849335 0.05
v 0.749 0.3221425 0.05
v 0.74951873 0.32458292 0.05
v 0.75098522 0.32660137 0.05
v 0.7531459 0.32784884 0.05
v 0.75562717 0.32810963 0.05
v 0.758 0.32733865 0.05
v 0.7598541 0.32566921 0.05
v 0.76086889 0.32338997 0.05
v 0.76086889 0.32089503 0.05
v 0.7598541 0.31861579 0.05
v 0.758 0.31694635 0.05
v 0.75562717 0.31617537 0.05
v 0.7531459 0.31643616 0.05
v 0.75098522 0.31768363 0.05
v 0.74951873 0.31970208 0.05
v 0.766 0.31579165 0.05
v 0.766 0.32849335 0.05
v 0.755 0.33484421 0.05
v 0.744 0.32849335 0.05
v 0.744 0.31579165 0.05
v 0.755 0.30944079 0.05
v 0.766 0.31579165 0.041999998
v 0.766 0.32849335 0.041999998
v 0.766 0.32849335 0.05
v 0.766 0.31579165 0.05
v 0.749 0.3221425 0.041999998
v 0.74951873 0.31970208 0.041999998
v 0.75098522 0.31768363 0.041999998
v 0.7531459 0.31643616 0.041999998
v 0.75562717 0.31617537 0.041999998
v 0.758 0.31694635 0.041999998
v 0.7598541 0.31861579 0.041999998
v 0.76086889 0.32089503 0.041999998
v 0.76086889 0.32338997 0.041999998
v 0.7598541 0.32566921 0.041999998
v 0.758 0.32733865 0.041999998
v 0.75562717 0.32810963 0.041999998
v 0.7531459 0.32784884 0.041999998
v 0.75098522 0.32660137 0.041999998
v 0.74951873 0.32458292 0.041999998
v 0.766 0.32849335 0.041999998
v 0.766 0.31579165 0.041999998
v 0.755 0.30944079 0.041999998
v 0.744 0.31579165 0.041999998
v 0.744 0.32849335 0.041999998
v 0.755 0.33484421 0.041999998
f 1592 1620 1591
f 1591 1620 1622
f 1621 1606 1605
f 1605 1606 1607
f 1605 1607 1604
f 1604 1607 1608
f 1604 1608 1603
f 1603 1608 1609
f 1603 1609 1602
f 1602 1609 1610
f 1602 1610 1601
f 1601 1610 1611
f 1601 1611 1600
f 1600 1611 1612
f 1600 1612 1599
f 1599 1612 1613
f 1599 1613 1598
f 1598 1613 1614
f 1598 1614 1597
f 1597 1614 1615
f 1597 1615 1596
f 1596 1615 1616
f 1596 1616 1595
f 1595 1616 1617
f 1595 1617 1594
f 1594 1617 1618
f 1594 1618 1593
f 1593 1618 1619
f 1593 1619 1592
f 1592 1619 1620
f 1623 1624 1626
f 1626 1624 1625
f 1627 1628 1630
f 1630 1628 1629
f 1631 1632 1634
f 1634 1632 1633
f 1635 1636 1638
f 1638 1636 1637
f 1639 1640 1642
f 1642 1640 1641
f 1644 1661 1643
f 1643 1661 1662
f 1643 1662 1657
f 1657 1662 1656
f 1656 1662 1663
f 1656 1663 1655
f 1655 1663 1654
f 1654 1663 1653
f 1653 1663 1658
f 1653 1658 1652
f 1652 1658 1651
f 1651 1658 1650
f 1650 1658 1659
f 1650 1659 1649
f 1649 1659 1648
f 1648 1659 1660
f 1648 1660 1647
f 1647 1660 1646
f 1646 1660 1645
f 1645 1660 1661
f 1645 1661 1644
f 1664 1665 1667
f 1667 1665 1666
f 1669 1686 1668
f 1668 1686 1687
f 1668 1687 1682
f 1682 1687 1681
f 1681 1687 1688
f 1681 1688 1680
f 1680 1688 1679
f 1679 1688 1678
f 1678 1688 1683
f 1678 1683 1677
f 1677 1683 1676
f 1676 1683 1684
f 1676 1684 1675
f 1675 1684 1674
f 1674 1684 1673
f 1673 1684 1685
f 1673 1685 1672
f 1672 1685 1671
f 1671 1685 1670
f 1670 1685 1686
f 1670 1686 1669
v 0.29 0.25514249 0.29
v 0.29 0.25514249 0.134
v 0.29 0.32114252 0.134
v 0.29 0.32114252 0.29
v 0.29 0.32114252 0.29
v 0.29 0.32114252 0.134
v 0.23 0.32114252 0.134
v 0.23 0.32114252 0.29
v 0.23 0.32114252 0.29
v 0.23 0.32114252 0.134
v 0.23 0.25514249 0.134
v 0.23 0.25514249 0.29
v 0.23 0.25514249 0.29
v 0.23 0.25514249 0.134
v 0.29 0.25514249 0.134
v 0.29 0.25514249 0.29
v 0.23900002 0.26414251 0.134
v 0.28099998 0.26414251 0.134
v 0.28099998 0.3121425 0.134
v 0.23900002 0.3121425 0.134
v 0.29 0.32114252 0.134
v 0.29 0.25514249 0.134
v 0.23 0.25514249 0.134
v 0.23 0.32114252 0.134
v 0.28099998 0.26414251 0.29
v 0.23900002 0.26414251 0.29
v 0.23900002 0.3121425 0.29
v 0.28099998 0.3121425 0.29
v 0.29 0.25514249 0.29
v 0.29 0.32114252 0.29
v 0.23 0.32114252 0.29
v 0.23 0.25514249 0.29
v 0.23900002 0.3121425 0.29
v 0.23900002 0.26414251 0.29
v 0.23900002 0.26414251 0.134
v 0.23900002 0.3121425 0.134
v 0.23900002 0.26414251 0.29
v 0.28099998 0.26414251 0.29
v 0.28099998 0.26414251 0.134
v 0.23900002 0.26414251 0.134
v 0.28099998 0.26414251 0.29
v 0.28099998 0.3121425 0.29
v 0.28099998 0.3121425 0.134
v 0.28099998 0.26414251 0.134
v 0.28099998 0.3121425 0.29
v 0.23900002 0.3121425 0.29
v 0.23900002 0.3121425 0.134
v 0.28099998 0.3121425 0.134
f 1689 1690 1692
f 1692 1690 1691
f 1693 1694 1696
f 1696 1694 1695
f 1697 1698 1700
f 1700 1698 1699
f 1701 1702 1704
f 1704 1702 1703
f 1708 1705 1711
f 1711 1705 1706
f 1711 1706 1710
f 1710 1706 1707
f 1710 1707 1709
f 1709 1707 1708
f 1709 1708 1712
f 1712 1708 1711
f 1716 1713 1717
f 1717 1713 1714
f 1717 1714 1720
f 1720 1714 1715
f 1720 1715 1719
f 1719 1715 1716
f 1719 1716 1718
f 1718 1716 1717
f 1722 1723 1721
f 1721 1723 1724
f 1726 1727 1725
f 1725 1727 1728
f 1730 1731 1729
f 1729 1731 1732
f 1734 1735 1733
f 1733 1735 1736
v 0.28099998 0.2471425 0.29
v 0.28099998 0.2471425 0.142
v 0.28099998 0.25514249 0.142
v 0.28099998 0.25514249 0.29
v 0.28099998 0.25514249 0.29
v 0.28099998 0.25514249 0.142
v 0.23900002 0.25514249 0.142
v 0.23900002 0.25514249 0.29
v 0.23900002 0.25514249 0.29
v 0.23900002 0.25514249 0.142
v 0.23900002 0.2471425 0.142
v 0.23900002 0.2471425 0.29
v 0.23900002 0.2471425 0.29
v 0.23900002 0.2471425 0.142
v 0.28099998 0.2471425 0.142
v 0.28099998 0.2471425 0.29
v 0.28099998 0.25514249 0.142
v 0.28099998 0.2471425 0.142
v 0.23900002 0.2471425 0.142
v 0.23900002 0.25514249 0.142
v 0.28099998 0.2471425 0.29
v 0.28099998 0.25514249 0.29
v 0.23900002 0.25514249 0.29
v 0.23900002 0.2471425 0.29
f 1737 1738 1740
f 1740 1738 1739
f 1741 1742 1744
f 1744 1742 1743
f 1745 1746 1748
f 1748 1746 1747
f 1749 1750 1752
f 1752 1750 1751
f 1754 1755 1753
f 1753 1755 1756
f 1758 1759 1757
f 1757 1759 1760
v 0.23700001 0.24414251 0.29
v 0.23700001 0.24414251 0.145
v 0.23700001 0.25514249 0.145
v 0.23700001 0.25514249 0.29
v 0.23700001 0.25514249 0.29
v 0.23700001 0.25514249 0.145
v 0.23200001 0.25514249 0.145
v 0.23200001 0.25514249 0.29
v 0.23200001 0.25514249 0.29
v 0.23200001 0.25514249 0.145
v 0.23200001 0.24414251 0.145
v 0.23200001 0.24414251 0.29
v 0.23200001 0.24414251 0.29
v 0.23200001 0.24414251 0.145
v 0.23700001 0.24414251 0.145
v 0.23700001 0.24414251 0.29
v 0.23700001 0.25514249 0.145
v 0.23700001 0.24414251 0.145
v 0.23200001 0.24414251 0.145
v 0.23200001 0.25514249 0.145
v 0.23700001 0.24414251 0.29
v 0.23700001 0.25514249 0.29
v 0.23200001 0.25514249 0.29
v 0.23200001 0.24414251 0.29
f 1761 1762 1764
f 1764 1762 1763
f 1765 1766 1768
f 1768 1766 1767
f 1769 1770 1772
f 1772 1770 1771
f 1773 1774 1776
f 1776 1774 1775
f 1778 1779 1777
f 1777 1779 1780
f 1782 1783 1781
f 1781 1783 1784
v 0.28799999 0.24414251 0.29
v 0.28799999 0.24414251 0.145
v 0.28799999 0.25514249 0.145
v 0.28799999 0.25514249 0.29
v 0.28799999 0.25514249 0.29
v 0.28799999 0.25514249 0.145
v 0.28299999 0.25514249 0.145
v 0.28299999 0.25514249 0.29
v 0.28299999 0.25514249 0.29
v 0.28299999 0.25514249 0.145
v 0.28299999 0.24414251 0.145
v 0.28299999 0.24414251 0.29
v 0.28299999 0.24414251 0.29
v 0.28299999 0.24414251 0.145
v 0.28799999 0.24414251 0.145
v 0.28799999 0.24414251 0.29
v 0.28799999 0.25514249 0.145
v 0.28799999 0.24414251 0.145
v 0.28299999 0.24414251 0.145
v 0.28299999 0.25514249 0.145
v 0.28799999 0.24414251 0.29
v 0.28799999 0.25514249 0.29
v 0.28299999 0.25514249 0.29
v 0.28299999 0.24414251 0.29
f 1785 1786 1788
f 1788 1786 1787
f 1789 1790 1792
f 1792 1790 1791
f 1793 1794 1796
f 1796 1794 1795
f 1797 1798 1800
f 1800 1798 1799
f 1802 1803 1801
f 1801 1803 1804
f 1806 1807 1805
f 1805 1807 1808
