v -0.056000004 0 0.0021000061
v -0.056000004 0.00085414886 0.0019184265
v -0.056000004 0.0015606117 0.001405159
v -0.056000004 0.0019972229 0.00064893341
v -0.056000004 0.0020884895 -0.00021952057
v -0.056000004 0.0018186569 -0.0010500183
v -0.056000004 0.0012343407 -0.0016989365
v -0.056000004 0.00043661118 -0.0020541229
v -0.056000004 -0.00043661118 -0.0020541229
v -0.056000004 -0.0012343407 -0.0016989365
v -0.056000004 -0.0018186569 -0.0010500183
v -0.056000004 -0.0020884895 -0.00021952057
v -0.056000004 -0.0019972229 0.00064893341
v -0.056000004 -0.0015606117 0.001405159
v -0.056000004 -0.00085414886 0.0019184265
v -0.056000004 0 -0.0035000076
v -0.056000004 0.0011364555 -0.003310379
v -0.056000004 0.0021497536 -0.0027619781
v -0.056000004 0.002930088 -0.0019143143
v -0.056000004 0.0033929062 -0.00085920715
v -0.056000004 0.0034880447 0.00028901672
v -0.056000004 0.003205204 0.0014059219
v -0.056000004 0.0025750351 0.0023704681
v -0.056000004 0.0016658211 0.0030781708
v -0.056000004 0.00057607651 0.0034522781
v -0.056000004 -0.00057607651 0.0034522781
v -0.056000004 -0.0016658211 0.0030781708
v -0.056000004 -0.0025750351 0.0023704681
v -0.056000004 -0.003205204 0.0014059219
v -0.056000004 -0.0034880447 0.00028901672
v -0.056000004 -0.0033929062 -0.00085920715
v -0.056000004 -0.002930088 -0.0019143143
v -0.056000004 -0.0021497536 -0.0027619781
v -0.056000004 -0.0011364555 -0.003310379
v -0.063999996 0 0.0021000061
v -0.063999996 -0.00085414886 0.0019184265
v -0.063999996 -0.0015606117 0.001405159
v -0.063999996 -0.0019972229 0.00064893341
v -0.063999996 -0.0020884895 -0.00021952057
v -0.063999996 -0.0018186569 -0.0010500183
v -0.063999996 -0.0012343407 -0.0016989365
v -0.063999996 -0.00043661118 -0.0020541229
v -0.063999996 0.00043661118 -0.0020541229
v -0.063999996 0.0012343407 -0.0016989365
v -0.063999996 0.0018186569 -0.0010500183
v -0.063999996 0.0020884895 -0.00021952057
v -0.063999996 0.0019972229 0.00064893341
v -0.063999996 0.0015606117 0.001405159
v -0.063999996 0.00085414886 0.0019184265
v -0.063999996 0 -0.0035000076
v -0.063999996 -0.0011364555 -0.003310379
v -0.063999996 -0.0021497536 -0.0027619781
v -0.063999996 -0.002930088 -0.0019143143
v -0.063999996 -0.0033929062 -0.00085920715
v -0.063999996 -0.0034880447 0.00028901672
v -0.063999996 -0.003205204 0.0014059219
v -0.063999996 -0.0025750351 0.0023704681
v -0.063999996 -0.0016658211 0.0030781708
v -0.063999996 -0.00057607651 0.0034522781
v -0.063999996 0.00057607651 0.0034522781
v -0.063999996 0.0016658211 0.0030781708
v -0.063999996 0.0025750351 0.0023704681
v -0.063999996 0.003205204 0.0014059219
v -0.063999996 0.0034880447 0.00028901672
v -0.063999996 0.0033929062 -0.00085920715
v -0.063999996 0.002930088 -0.0019143143
v -0.063999996 0.0021497536 -0.0027619781
v -0.063999996 0.0011364555 -0.003310379
v -0.063999996 0 -0.0035000076
v -0.063999996 0.0011364555 -0.003310379
v -0.063999996 0.0021497536 -0.0027619781
v -0.063999996 0.002930088 -0.0019143143
v -0.063999996 0.0033929062 -0.00085920715
v -0.063999996 0.0034880447 0.00028901672
v -0.063999996 0.003205204 0.0014059219
v -0.063999996 0.0025750351 0.0023704681
v -0.063999996 0.0016658211 0.0030781708
v -0.063999996 0.00057607651 0.0034522781
v -0.063999996 -0.00057607651 0.0034522781
v -0.063999996 -0.0016658211 0.0030781708
v -0.063999996 -0.0025750351 0.0023704681
v -0.063999996 -0.003205204 0.0014059219
v -0.063999996 -0.0034880447 0.00028901672
v -0.063999996 -0.0033929062 -0.00085920715
v -0.063999996 -0.002930088 -0.0019143143
v -0.063999996 -0.0021497536 -0.0027619781
v -0.063999996 -0.0011364555 -0.003310379
v -0.056000004 0 -0.0035000076
v -0.056000004 -0.0011364555 -0.003310379
v -0.056000004 -0.0021497536 -0.0027619781
v -0.056000004 -0.002930088 -0.0019143143
v -0.056000004 -0.0033929062 -0.00085920715
v -0.056000004 -0.0034880447 0.00028901672
v -0.056000004 -0.003205204 0.0014059219
v -0.056000004 -0.0025750351 0.0023704681
v -0.056000004 -0.0016658211 0.0030781708
v -0.056000004 -0.00057607651 0.0034522781
v -0.056000004 0.00057607651 0.0034522781
v -0.056000004 0.0016658211 0.0030781708
v -0.056000004 0.0025750351 0.0023704681
v -0.056000004 0.003205204 0.0014059219
v -0.056000004 0.0034880447 0.00028901672
v -0.056000004 0.0033929062 -0.00085920715
v -0.056000004 0.002930088 -0.0019143143
v -0.056000004 0.0021497536 -0.0027619781
v -0.056000004 0.0011364555 -0.003310379
v -0.063999996 -0.00057607651 0.0034522781
v -0.056000004 -0.00057607651 0.0034522781
v -0.063999996 0 0.0021000061
v -0.063999996 0.00085414886 0.0019184265
v -0.063999996 0.0015606117 0.001405159
v -0.063999996 0.0019972229 0.00064893341
v -0.063999996 0.0020884895 -0.00021952057
v -0.063999996 0.0018186569 -0.0010500183
v -0.063999996 0.0012343407 -0.0016989365
v -0.063999996 0.00043661118 -0.0020541229
v -0.063999996 -0.00043661118 -0.0020541229
v -0.063999996 -0.0012343407 -0.0016989365
v -0.063999996 -0.0018186569 -0.0010500183
v -0.063999996 -0.0020884895 -0.00021952057
v -0.063999996 -0.0019972229 0.00064893341
v -0.063999996 -0.0015606117 0.001405159
v -0.063999996 -0.00085414886 0.0019184265
v -0.056000004 0 0.0021000061
v -0.056000004 -0.00085414886 0.0019184265
v -0.056000004 -0.0015606117 0.001405159
v -0.056000004 -0.0019972229 0.00064893341
v -0.056000004 -0.0020884895 -0.00021952057
v -0.056000004 -0.0018186569 -0.0010500183
v -0.056000004 -0.0012343407 -0.0016989365
v -0.056000004 -0.00043661118 -0.0020541229
v -0.056000004 0.00043661118 -0.0020541229
v -0.056000004 0.0012343407 -0.0016989365
v -0.056000004 0.0018186569 -0.0010500183
v -0.056000004 0.0020884895 -0.00021952057
v -0.056000004 0.0019972229 0.00064893341
v -0.056000004 0.0015606117 0.001405159
v -0.056000004 0.00085414886 0.0019184265
v -0.056000004 0 0.0021000061
v -0.063999996 0 0.0021000061
f 2 25 1
f 1 25 26
f 1 26 15
f 15 26 27
f 15 27 14
f 14 27 28
f 14 28 29
f 25 2 24
f 24 2 3
f 24 3 23
f 23 3 22
f 22 3 4
f 22 4 21
f 21 4 5
f 21 5 20
f 20 5 6
f 20 6 19
f 19 6 7
f 19 7 18
f 18 7 17
f 17 7 8
f 17 8 16
f 16 8 9
f 16 9 34
f 34 9 10
f 34 10 33
f 33 10 32
f 32 10 11
f 32 11 31
f 31 11 12
f 31 12 30
f 30 12 13
f 30 13 29
f 29 13 14
f 36 59 35
f 35 59 60
f 35 60 49
f 49 60 61
f 49 61 48
f 48 61 62
f 48 62 63
f 59 36 58
f 58 36 37
f 58 37 57
f 57 37 56
f 56 37 38
f 56 38 55
f 55 38 39
f 55 39 54
f 54 39 40
f 54 40 53
f 53 40 41
f 53 41 52
f 52 41 51
f 51 41 42
f 51 42 50
f 50 42 43
f 50 43 68
f 68 43 44
f 68 44 67
f 67 44 66
f 66 44 45
f 66 45 65
f 65 45 46
f 65 46 64
f 64 46 47
f 64 47 63
f 63 47 48
f 70 88 69
f 69 88 89
f 69 89 87
f 87 89 90
f 87 90 86
f 86 90 91
f 86 91 85
f 85 91 92
f 85 92 84
f 84 92 93
f 84 93 83
f 83 93 94
f 83 94 82
f 82 94 95
f 82 95 81
f 81 95 96
f 81 96 80
f 80 96 108
f 80 108 79
f 107 97 98
f 107 98 78
f 78 98 99
f 78 99 77
f 77 99 100
f 77 100 76
f 76 100 101
f 76 101 75
f 75 101 102
f 75 102 74
f 74 102 103
f 74 103 73
f 73 103 104
f 73 104 72
f 72 104 105
f 72 105 71
f 71 105 106
f 71 106 70
f 70 106 88
f 110 138 109
f 109 138 139
f 140 124 123
f 123 124 125
f 123 125 122
f 122 125 126
f 122 126 121
f 121 126 127
f 121 127 120
f 120 127 128
f 120 128 119
f 119 128 129
f 119 129 118
f 118 129 130
f 118 130 117
f 117 130 131
f 117 131 116
f 116 131 132
f 116 132 115
f 115 132 133
f 115 133 114
f 114 133 134
f 114 134 113
f 113 134 135
f 113 135 112
f 112 135 136
f 112 136 111
f 111 136 137
f 111 137 110
f 110 137 138
v 0.064000015 0 0.0021000061
v 0.064000015 0.00085414886 0.0019184265
v 0.064000015 0.0015606117 0.001405159
v 0.064000015 0.0019972229 0.00064893341
v 0.064000015 0.0020884895 -0.00021952057
v 0.064000015 0.0018186569 -0.0010500183
v 0.064000015 0.0012343407 -0.0016989365
v 0.064000015 0.00043661118 -0.0020541229
v 0.064000015 -0.00043661118 -0.0020541229
v 0.064000015 -0.0012343407 -0.0016989365
v 0.064000015 -0.0018186569 -0.0010500183
v 0.064000015 -0.0020884895 -0.00021952057
v 0.064000015 -0.0019972229 0.00064893341
v 0.064000015 -0.0015606117 0.001405159
v 0.064000015 -0.00085414886 0.0019184265
v 0.064000015 0 -0.0035000076
v 0.064000015 0.0011364555 -0.003310379
v 0.064000015 0.0021497536 -0.0027619781
v 0.064000015 0.002930088 -0.0019143143
v 0.064000015 0.0033929062 -0.00085920715
v 0.064000015 0.0034880447 0.00028901672
v 0.064000015 0.003205204 0.0014059219
v 0.064000015 0.0025750351 0.0023704681
v 0.064000015 0.0016658211 0.0030781708
v 0.064000015 0.00057607651 0.0034522781
v 0.064000015 -0.00057607651 0.0034522781
v 0.064000015 -0.0016658211 0.0030781708
v 0.064000015 -0.0025750351 0.0023704681
v 0.064000015 -0.003205204 0.0014059219
v 0.064000015 -0.0034880447 0.00028901672
v 0.064000015 -0.0033929062 -0.00085920715
v 0.064000015 -0.002930088 -0.0019143143
v 0.064000015 -0.0021497536 -0.0027619781
v 0.064000015 -0.0011364555 -0.003310379
v 0.055999985 0 0.0021000061
v 0.055999985 -0.00085414886 0.0019184265
v 0.055999985 -0.0015606117 0.001405159
v 0.055999985 -0.0019972229 0.00064893341
v 0.055999985 -0.0020884895 -0.00021952057
v 0.055999985 -0.0018186569 -0.0010500183
v 0.055999985 -0.0012343407 -0.0016989365
v 0.055999985 -0.00043661118 -0.0020541229
v 0.055999985 0.00043661118 -0.0020541229
v 0.055999985 0.0012343407 -0.0016989365
v 0.055999985 0.0018186569 -0.0010500183
v 0.055999985 0.0020884895 -0.00021952057
v 0.055999985 0.0019972229 0.00064893341
v 0.055999985 0.0015606117 0.001405159
v 0.055999985 0.00085414886 0.0019184265
v 0.055999985 0 -0.0035000076
v 0.055999985 -0.0011364555 -0.003310379
v 0.055999985 -0.0021497536 -0.0027619781
v 0.055999985 -0.002930088 -0.0019143143
v 0.055999985 -0.0033929062 -0.00085920715
v 0.055999985 -0.0034880447 0.00028901672
v 0.055999985 -0.003205204 0.0014059219
v 0.055999985 -0.0025750351 0.0023704681
v 0.055999985 -0.0016658211 0.0030781708
v 0.055999985 -0.00057607651 0.0034522781
v 0.055999985 0.00057607651 0.0034522781
v 0.055999985 0.0016658211 0.0030781708
v 0.055999985 0.0025750351 0.0023704681
v 0.055999985 0.003205204 0.0014059219
v 0.055999985 0.0034880447 0.00028901672
v 0.055999985 0.0033929062 -0.00085920715
v 0.055999985 0.002930088 -0.0019143143
v 0.055999985 0.0021497536 -0.0027619781
v 0.055999985 0.0011364555 -0.003310379
v 0.055999985 0 -0.0035000076
v 0.055999985 0.0011364555 -0.003310379
v 0.055999985 0.0021497536 -0.0027619781
v 0.055999985 0.002930088 -0.0019143143
v 0.055999985 0.0033929062 -0.00085920715
v 0.055999985 0.0034880447 0.00028901672
v 0.055999985 0.003205204 0.0014059219
v 0.055999985 0.0025750351 0.0023704681
v 0.055999985 0.0016658211 0.0030781708
v 0.055999985 0.00057607651 0.0034522781
v 0.055999985 -0.00057607651 0.0034522781
v 0.055999985 -0.0016658211 0.0030781708
v 0.055999985 -0.0025750351 0.0023704681
v 0.055999985 -0.003205204 0.0014059219
v 0.055999985 -0.0034880447 0.00028901672
v 0.055999985 -0.0033929062 -0.00085920715
v 0.055999985 -0.002930088 -0.0019143143
v 0.055999985 -0.0021497536 -0.0027619781
v 0.055999985 -0.0011364555 -0.003310379
v 0.064000015 0 -0.0035000076
v 0.064000015 -0.0011364555 -0.003310379
v 0.064000015 -0.0021497536 -0.0027619781
v 0.064000015 -0.002930088 -0.0019143143
v 0.064000015 -0.0033929062 -0.00085920715
v 0.064000015 -0.0034880447 0.00028901672
v 0.064000015 -0.003205204 0.0014059219
v 0.064000015 -0.0025750351 0.0023704681
v 0.064000015 -0.0016658211 0.0030781708
v 0.064000015 -0.00057607651 0.0034522781
v 0.064000015 0.00057607651 0.0034522781
v 0.064000015 0.0016658211 0.0030781708
v 0.064000015 0.0025750351 0.0023704681
v 0.064000015 0.003205204 0.0014059219
v 0.064000015 0.0034880447 0.00028901672
v 0.064000015 0.0033929062 -0.00085920715
v 0.064000015 0.002930088 -0.0019143143
v 0.064000015 0.0021497536 -0.0027619781
v 0.064000015 0.0011364555 -0.003310379
v 0.055999985 -0.00057607651 0.0034522781
v 0.064000015 -0.00057607651 0.0034522781
v 0.055999985 0 0.0021000061
v 0.055999985 0.00085414886 0.0019184265
v 0.055999985 0.0015606117 0.001405159
v 0.055999985 0.0019972229 0.00064893341
v 0.055999985 0.0020884895 -0.00021952057
v 0.055999985 0.0018186569 -0.0010500183
v 0.055999985 0.0012343407 -0.0016989365
v 0.055999985 0.00043661118 -0.0020541229
v 0.055999985 -0.00043661118 -0.0020541229
v 0.055999985 -0.0012343407 -0.0016989365
v 0.055999985 -0.0018186569 -0.0010500183
v 0.055999985 -0.0020884895 -0.00021952057
v 0.055999985 -0.0019972229 0.00064893341
v 0.055999985 -0.0015606117 0.001405159
v 0.055999985 -0.00085414886 0.0019184265
v 0.064000015 0 0.0021000061
v 0.064000015 -0.00085414886 0.0019184265
v 0.064000015 -0.0015606117 0.001405159
v 0.064000015 -0.0019972229 0.00064893341
v 0.064000015 -0.0020884895 -0.00021952057
v 0.064000015 -0.0018186569 -0.0010500183
v 0.064000015 -0.0012343407 -0.0016989365
v 0.064000015 -0.00043661118 -0.0020541229
v 0.064000015 0.00043661118 -0.0020541229
v 0.064000015 0.0012343407 -0.0016989365
v 0.064000015 0.0018186569 -0.0010500183
v 0.064000015 0.0020884895 -0.00021952057
v 0.064000015 0.0019972229 0.00064893341
v 0.064000015 0.0015606117 0.001405159
v 0.064000015 0.00085414886 0.0019184265
v 0.064000015 0 0.0021000061
v 0.055999985 0 0.0021000061
f 142 165 141
f 141 165 166
f 141 166 155
f 155 166 167
f 155 167 154
f 154 167 168
f 154 168 169
f 165 142 164
f 164 142 143
f 164 143 163
f 163 143 162
f 162 143 144
f 162 144 161
f 161 144 145
f 161 145 160
f 160 145 146
f 160 146 159
f 159 146 147
f 159 147 158
f 158 147 157
f 157 147 148
f 157 148 156
f 156 148 149
f 156 149 174
f 174 149 150
f 174 150 173
f 173 150 172
f 172 150 151
f 172 151 171
f 171 151 152
f 171 152 170
f 170 152 153
f 170 153 169
f 169 153 154
f 176 199 175
f 175 199 200
f 175 200 189
f 189 200 201
f 189 201 188
f 188 201 202
f 188 202 203
f 199 176 198
f 198 176 177
f 198 177 197
f 197 177 196
f 196 177 178
f 196 178 195
f 195 178 179
f 195 179 194
f 194 179 180
f 194 180 193
f 193 180 181
f 193 181 192
f 192 181 191
f 191 181 182
f 191 182 190
f 190 182 183
f 190 183 208
f 208 183 184
f 208 184 207
f 207 184 206
f 206 184 185
f 206 185 205
f 205 185 186
f 205 186 204
f 204 186 187
f 204 187 203
f 203 187 188
f 210 228 209
f 209 228 229
f 209 229 227
f 227 229 230
f 227 230 226
f 226 230 231
f 226 231 225
f 225 231 232
f 225 232 224
f 224 232 233
f 224 233 223
f 223 233 234
f 223 234 222
f 222 234 235
f 222 235 221
f 221 235 236
f 221 236 220
f 220 236 248
f 220 248 219
f 247 237 238
f 247 238 218
f 218 238 239
f 218 239 217
f 217 239 240
f 217 240 216
f 216 240 241
f 216 241 215
f 215 241 242
f 215 242 214
f 214 242 243
f 214 243 213
f 213 243 244
f 213 244 212
f 212 244 245
f 212 245 211
f 211 245 246
f 211 246 210
f 210 246 228
f 250 278 249
f 249 278 279
f 280 264 263
f 263 264 265
f 263 265 262
f 262 265 266
f 262 266 261
f 261 266 267
f 261 267 260
f 260 267 268
f 260 268 259
f 259 268 269
f 259 269 258
f 258 269 270
f 258 270 257
f 257 270 271
f 257 271 256
f 256 271 272
f 256 272 255
f 255 272 273
f 255 273 254
f 254 273 274
f 254 274 253
f 253 274 275
f 253 275 252
f 252 275 276
f 252 276 251
f 251 276 277
f 251 277 250
f 250 277 278
