v -0.11 -0.272 -0.25
v -0.11 -0.272 -0.27400002
v -0.113 -0.272 -0.27400002
v -0.113 -0.272 -0.25
v -0.11 -0.168 -0.25
v -0.11 -0.272 -0.25
v -0.113 -0.272 -0.25
v -0.113 -0.168 -0.25
v -0.11 -0.272 -0.25
v -0.11 -0.168 -0.25
v -0.11 -0.168 -0.27400002
v -0.11 -0.272 -0.27400002
v -0.11 -0.285 0.005
v -0.11 -0.32315624 -0.0041099167
v -0.11 -0.35473753 -0.027380333
v -0.11 -0.37474161 -0.061125336
v -0.11 -0.38 -0.1
v -0.11 -0.44 -0.28
v -0.11 0 -0.28
v -0.11 0 0.005
v -0.113 -0.168 -0.25
v -0.113 -0.272 -0.25
v -0.113 -0.272 -0.27400002
v -0.113 -0.168 -0.27400002
v -0.113 -0.38 -0.1
v -0.113 -0.37474161 -0.061125336
v -0.113 -0.35473753 -0.027380333
v -0.113 -0.32315624 -0.0041099167
v -0.113 -0.285 0.005
v -0.113 0 0.005
v -0.113 0 -0.28
v -0.113 -0.44 -0.28
v -0.113 0 -0.28
v -0.113 0 0.005
v -0.11 0 0.005
v -0.11 0 -0.28
v -0.113 0 0.005
v -0.113 -0.285 0.005
v -0.11 -0.285 0.005
v -0.11 0 0.005
v -0.11 -0.272 -0.27400002
v -0.11 -0.168 -0.27400002
v -0.113 -0.168 -0.27400002
v -0.113 -0.272 -0.27400002
v -0.11 -0.168 -0.27400002
v -0.11 -0.168 -0.25
v -0.113 -0.168 -0.25
v -0.113 -0.168 -0.27400002
v -0.113 -0.285 0.005
v -0.113 -0.32315624 -0.0041099167
v -0.113 -0.35473753 -0.027380333
v -0.113 -0.37474161 -0.061125336
v -0.113 -0.38 -0.1
v -0.11 -0.38 -0.1
v -0.11 -0.37474161 -0.061125336
v -0.11 -0.35473753 -0.027380333
v -0.11 -0.32315624 -0.0041099167
v -0.11 -0.285 0.005
v -0.113 -0.38 -0.1
v -0.113 -0.44 -0.28
v -0.11 -0.44 -0.28
v -0.11 -0.38 -0.1
v -0.113 -0.44 -0.28
v -0.113 0 -0.28
v -0.11 0 -0.28
v -0.11 -0.44 -0.28
f 1 2 4
f 4 2 3
f 5 6 8
f 8 6 7
f 10 17 9
f 9 17 18
f 9 18 12
f 12 18 11
f 11 18 19
f 11 19 10
f 10 19 20
f 10 20 13
f 14 15 13
f 13 15 16
f 13 16 17
f 17 10 13
f 22 25 21
f 21 25 29
f 21 29 30
f 25 22 32
f 32 22 23
f 32 23 24
f 32 24 31
f 31 24 21
f 31 21 30
f 25 26 29
f 29 26 27
f 29 27 28
f 33 34 36
f 36 34 35
f 37 38 40
f 40 38 39
f 41 42 44
f 44 42 43
f 45 46 48
f 48 46 47
f 58 49 57
f 57 49 50
f 57 50 56
f 56 50 51
f 56 51 55
f 55 51 52
f 55 52 54
f 54 52 53
f 59 60 62
f 62 60 61
f 63 64 66
f 66 64 65
v -0.11 0 0.0020000076
v -0.11 0 0.005
v 0.205 0 0.005
v 0.205 0 0.0020000076
v -0.11 -0.38 -0.1
v -0.11 -0.44 -0.28
v 0.205 -0.44 -0.28
v 0.205 -0.38 -0.1
v -0.11 -0.37700001 -0.1
v -0.11 -0.37156847 -0.06247921
v -0.11 -0.35216822 -0.029907112
v -0.11 -0.32176348 -0.0072605896
v -0.11 -0.285 0.0020000076
v 0.205 -0.285 0.0020000076
v 0.205 -0.32176348 -0.0072605896
v 0.205 -0.35216822 -0.029907112
v 0.205 -0.37156847 -0.06247921
v 0.205 -0.37700001 -0.1
v -0.11 -0.44 -0.28
v -0.11 -0.43700001 -0.28
v 0.205 -0.43700001 -0.28
v 0.205 -0.44 -0.28
v -0.11 -0.285 0.0020000076
v -0.11 0 0.0020000076
v 0.205 0 0.0020000076
v 0.205 -0.285 0.0020000076
v -0.11 -0.43700001 -0.28
v -0.11 -0.37700001 -0.1
v 0.205 -0.37700001 -0.1
v 0.205 -0.43700001 -0.28
v -0.11 -0.38 -0.1
v -0.11 -0.37474161 -0.061125336
v -0.11 -0.35473753 -0.027380333
v -0.11 -0.32315624 -0.0041099167
v -0.11 -0.285 0.005
v -0.11 0 0.005
v -0.11 0 0.0020000076
v -0.11 -0.285 0.0020000076
v -0.11 -0.32176348 -0.0072605896
v -0.11 -0.35216822 -0.029907112
v -0.11 -0.37156847 -0.06247921
v -0.11 -0.37700001 -0.1
v -0.11 -0.43700001 -0.28
v -0.11 -0.44 -0.28
v -0.11 0 0.005
v -0.11 -0.285 0.005
v 0.205 -0.285 0.005
v 0.205 0 0.005
v 0.205 -0.285 0.005
v 0.205 -0.32315624 -0.0041099167
v 0.205 -0.35473753 -0.027380333
v 0.205 -0.37474161 -0.061125336
v 0.205 -0.38 -0.1
v 0.205 -0.44 -0.28
v 0.205 -0.43700001 -0.28
v 0.205 -0.37700001 -0.1
v 0.205 -0.37156847 -0.06247921
v 0.205 -0.35216822 -0.029907112
v 0.205 -0.32176348 -0.0072605896
v 0.205 -0.285 0.0020000076
v 0.205 0 0.0020000076
v 0.205 0 0.005
v -0.11 -0.285 0.005
v -0.11 -0.32315624 -0.0041099167
v -0.11 -0.35473753 -0.027380333
v -0.11 -0.37474161 -0.061125336
v -0.11 -0.38 -0.1
v 0.205 -0.38 -0.1
v 0.205 -0.37474161 -0.061125336
v 0.205 -0.35473753 -0.027380333
v 0.205 -0.32315624 -0.0041099167
v 0.205 -0.285 0.005
f 67 68 70
f 70 68 69
f 71 72 74
f 74 72 73
f 84 75 83
f 83 75 76
f 83 76 82
f 82 76 77
f 82 77 81
f 81 77 78
f 81 78 80
f 80 78 79
f 85 86 88
f 88 86 87
f 89 90 92
f 92 90 91
f 93 94 96
f 96 94 95
f 98 107 97
f 97 107 108
f 97 108 109
f 107 98 106
f 106 98 99
f 106 99 105
f 105 99 100
f 105 100 104
f 104 100 101
f 104 101 103
f 103 101 102
f 109 110 97
f 111 112 114
f 114 112 113
f 128 115 126
f 126 115 116
f 126 116 125
f 125 116 117
f 125 117 124
f 124 117 118
f 124 118 123
f 123 118 119
f 123 119 122
f 122 119 121
f 121 119 120
f 126 127 128
f 138 129 137
f 137 129 130
f 137 130 136
f 136 130 131
f 136 131 135
f 135 131 132
f 135 132 134
f 134 132 133
