v -0.0074797251 0.009760162 0.009111187
v -0.0074762835 0.032256735 0.0087185303
v -0.0071589079 0.032240138 0.0077703757
v -0.0071623495 0.0097435643 0.0081630324
v -0.0093199849 0.0097496952 0.0084953801
v -0.0093165433 0.032246268 0.0081027234
v -0.0074762835 0.032256735 0.0087185303
v -0.0074797251 0.009760162 0.009111187
v -0.0089943381 0.0097166966 0.0066076412
v -0.0089908965 0.03221327 0.0062149845
v -0.0071400808 0.032202806 0.0056316714
v -0.0071435224 0.0097062323 0.0060243281
v -0.0095664061 0.0098006209 0.01141092
v -0.0095629644 0.032297194 0.011018264
v -0.0087488056 0.032286937 0.010437711
v -0.0087522473 0.0097903633 0.010830368
v -0.0071435224 0.0097062323 0.0060243281
v -0.0071400808 0.032202806 0.0056316714
v -0.0074407152 0.032186207 0.0046780765
v -0.0074441569 0.0096896342 0.0050707331
v -0.012606524 0.009812155 0.012045103
v -0.012603083 0.032308728 0.011652447
v -0.011603121 0.032308729 0.011661249
v -0.011606563 0.0098121557 0.012053906
v -0.010693193 0.0097732209 0.0098312097
v -0.010689752 0.032269794 0.009438553
v -0.0095629644 0.032297194 0.011018264
v -0.0095664061 0.0098006209 0.01141092
v -0.012589444 0.0097782878 0.010104886
v -0.012586003 0.032274861 0.0097122295
v -0.012603083 0.032308728 0.011652447
v -0.012606524 0.009812155 0.012045103
v 0.00028030285 0.028141806 0.0022367613
v 0.00027969101 0.024142415 0.0023065669
v 0.00047968307 0.024142415 0.0023083274
v 0.00048029491 0.028141806 0.0022385218
v -0.015157214 0.0092318924 -0.021222382
v -0.015153773 0.031728466 -0.021615039
v -0.01434996 0.031738724 -0.021020244
v -0.014353402 0.009242151 -0.020627588
v -0.0089991677 0.032229671 0.0071545688
v -0.0090026093 0.0097330975 0.0075472254
v -0.0071623495 0.0097435643 0.0081630324
v -0.0071589079 0.032240138 0.0077703757
v -0.015438857 0.0097903589 0.010771505
v -0.015435416 0.032286932 0.010378849
v -0.014631604 0.032297191 0.010973644
v -0.014635045 0.0098006175 0.011366301
v -0.015122464 0.0097166926 0.0065536951
v -0.015119023 0.032213266 0.0061610385
v -0.015153605 0.032218723 0.0064734143
v -0.015156372 0.032224209 0.0067876865
v -0.015127294 0.032229667 0.0071006228
v -0.015130735 0.0097330934 0.0074932794
v -0.015159813 0.0097276358 0.0071803432
v -0.015157047 0.0097221501 0.006866071
v -0.0092915309 0.032196672 0.0052613896
v -0.0092949725 0.0097000985 0.0056540462
v -0.0074441569 0.0096896342 0.0050707331
v -0.0074407152 0.032186207 0.0046780765
v -0.014830101 0.0097496915 0.0084468744
v -0.014826659 0.032246265 0.0080542177
v -0.014670999 0.032251007 0.0083272602
v -0.014488485 0.032255445 0.0085831376
v -0.014280993 0.032259534 0.0088192208
v -0.014284435 0.0097629604 0.0092118774
v -0.014491927 0.0097588716 0.0089757942
v -0.014674441 0.0097544334 0.0087199168
v -0.014002791 0.009204494 -0.02278201
v -0.01399935 0.031701067 -0.023174667
v -0.015153773 0.031728466 -0.021615039
v -0.015157214 0.0092318924 -0.021222382
v -0.00061174139 0.028126098 0.0013290104
v -0.00061235323 0.024126708 0.0013988161
v 0.00027969101 0.024142415 0.0023065669
v 0.00028030285 0.028141806 0.0022367613
v 0.00053134276 0.028040584 -0.00356037
v 0.00053073092 0.024041193 -0.0034905644
v 0.00033073886 0.024041193 -0.0034923249
v 0.0003313507 0.028040584 -0.0035621306
v -0.0045034006 0.024109253 0.00036467701
v -0.0045027888 0.028108644 0.00029487138
v 0.00049701748 0.028108647 0.00033888479
v 0.00049640564 0.024109256 0.00040869042
v -0.0098755926 0.032259537 0.0088580016
v -0.0098790342 0.0097629634 0.0092506582
v -0.0087522473 0.0097903633 0.010830368
v -0.0087488056 0.032286937 0.010437711
v -0.0098406388 0.0096868296 0.0048890444
v -0.0098371972 0.032183403 0.0044963877
v -0.0086827745 0.032156004 0.00293676
v -0.0086862161 0.0096594311 0.0033294166
v -0.014284435 0.0097629604 0.0092118774
v -0.014280993 0.032259534 0.0088192208
v -0.015435416 0.032286932 0.010378849
v -0.015438857 0.0097903589 0.010771505
v -0.013480622 0.009773219 0.0098066719
v -0.013477181 0.032269792 0.0094140152
v -0.013190735 0.032272007 0.0095434302
v -0.012892654 0.032273703 0.0096431773
v -0.012586003 0.032274861 0.0097122295
v -0.012589444 0.0097782878 0.010104886
v -0.012896095 0.0097771294 0.010035834
v -0.013194176 0.009775434 0.0099360869
v -0.016699908 0.0091850913 -0.023917294
v -0.016696466 0.031681665 -0.02430995
v -0.016395832 0.031698263 -0.023356355
v -0.016399273 0.0092016894 -0.022963699
v -0.004512202 0.024126705 0.0013644856
v -0.00061235323 0.024126708 0.0013988161
v -0.00061174139 0.028126098 0.0013290104
v -0.0045115901 0.028126096 0.00129468
v 0.0003313507 0.028040584 -0.0035621306
v 0.00033073886 0.024041193 -0.0034923249
v -0.00057714782 0.024056899 -0.0026004195
v -0.00057653598 0.02805629 -0.0026702252
v 0.00051462019 0.028073743 -0.001660733
v -0.0044851861 0.02807374 -0.0017047464
v -0.0044857979 0.024074349 -0.0016349408
v 0.00051400835 0.024074352 -0.0015909274
v -0.011586041 0.032274862 0.0097210322
v -0.011589483 0.0097782884 0.010113689
v -0.011606563 0.0098121557 0.012053906
v -0.011603121 0.032308729 0.011661249
v -0.0086862161 0.0096594311 0.0033294166
v -0.0086827745 0.032156004 0.00293676
v -0.0094865867 0.032145746 0.0023419655
v -0.0094900283 0.0096491725 0.0027346221
v -0.016981551 0.0097435577 0.0080765937
v -0.01697811 0.032240131 0.0076839371
v -0.016677475 0.032256729 0.008637532
v -0.016680917 0.0097601559 0.0090301887
v -0.011589483 0.0097782884 0.010113689
v -0.011586041 0.032274862 0.0097210322
v -0.011278222 0.032273704 0.0096573892
v -0.010978432 0.032272009 0.0095629052
v -0.010689752 0.032269794 0.009438553
v -0.010693193 0.0097732209 0.0098312097
v -0.010981873 0.0097754355 0.0099555618
v -0.011281664 0.0097771305 0.010050046
v -0.014849092 0.009174627 -0.024500607
v -0.014845651 0.0316712 -0.024893263
v -0.016696466 0.031681665 -0.02430995
v -0.016699908 0.0091850913 -0.023917294
v -0.0044763847 0.028056288 -0.0027045556
v -0.00057653598 0.02805629 -0.0026702252
v -0.00057714782 0.024056899 -0.0026004195
v -0.0044769966 0.024056897 -0.00263475
v 0.00048029491 0.028141806 0.0022385218
v 0.00049701748 0.028108647 0.00033888479
v -0.0045027888 0.028108644 0.00029487138
v -0.0045115901 0.028126096 0.00129468
v -0.00061174139 0.028126098 0.0013290104
v 0.00028030285 0.028141806 0.0022367613
v -0.0071980818 0.0092016955 -0.0228827
v -0.0071946402 0.031698269 -0.023275357
v -0.0068772646 0.031681671 -0.024223512
v -0.0068807062 0.0091850978 -0.023830855
v -0.0090383416 0.0091912287 -0.023498506
v -0.0090349 0.031687802 -0.023891163
v -0.0071946402 0.031698269 -0.023275357
v -0.0071980818 0.0092016955 -0.0228827
v -0.0092847627 0.0092421544 -0.020582968
v -0.0092813211 0.031738728 -0.020975625
v -0.0084671623 0.03172847 -0.021556176
v -0.008470604 0.0092318969 -0.02116352
v -0.013195538 0.031711326 -0.022579872
v -0.013198979 0.0092147526 -0.022187215
v -0.014353402 0.009242151 -0.020627588
v -0.01434996 0.031738724 -0.021020244
v -0.013477181 0.032269792 0.0094140152
v -0.013480622 0.009773219 0.0098066719
v -0.014635045 0.0098006175 0.011366301
v -0.014631604 0.032297191 0.010973644
v -0.01064101 0.032173144 0.0039015933
v -0.010644451 0.009676571 0.0042942499
v -0.0094900283 0.0096491725 0.0027346221
v -0.0094865867 0.032145746 0.0023419655
v -0.015130735 0.0097330934 0.0074932794
v -0.015127294 0.032229667 0.0071006228
v -0.01697811 0.032240131 0.0076839371
v -0.016981551 0.0097435577 0.0080765937
v -0.0098790342 0.0097629634 0.0092506582
v -0.0098755926 0.032259537 0.0088580016
v -0.0096639767 0.032255448 0.0086256079
v -0.009476986 0.03225101 0.0083729832
v -0.0093165433 0.032246268 0.0081027234
v -0.0093199849 0.0097496952 0.0084953801
v -0.0094804276 0.0097544368 0.0087656398
v -0.0096674183 0.0097588748 0.0090182645
v -0.016363705 0.0091311616 -0.027004152
v -0.016360264 0.031627735 -0.027396809
v -0.016677639 0.031644333 -0.026448654
v -0.016681081 0.0091477593 -0.026055998
v 0.00049640564 0.024109256 0.00040869042
v 0.00049701748 0.028108647 0.00033888479
v 0.00048029491 0.028141806 0.0022385218
v 0.00047968307 0.024142415 0.0023083274
v -0.0068618791 0.0091477658 -0.025969559
v -0.0068584375 0.031644339 -0.026362216
v -0.0071590719 0.031627741 -0.027315811
v -0.0071625136 0.0091311677 -0.026923154
v -0.0087126948 0.0091582302 -0.025386245
v -0.0087092532 0.031654803 -0.025778902
v -0.0068584375 0.031644339 -0.026362216
v -0.0068618791 0.0091477658 -0.025969559
v -0.011304398 0.031716395 -0.022272854
v -0.01130784 0.009219822 -0.021880197
v -0.01132492 0.0092536893 -0.01993998
v -0.011321478 0.031750263 -0.020332637
v -0.01041155 0.0092147544 -0.022162678
v -0.010408108 0.031711328 -0.022555334
v -0.0092813211 0.031738728 -0.020975625
v -0.0092847627 0.0092421544 -0.020582968
v -0.014545016 0.031687798 -0.023939668
v -0.014548458 0.0091912251 -0.023547012
v -0.016399273 0.0092016894 -0.022963699
v -0.016395832 0.031698263 -0.023356355
v -0.014826659 0.032246265 0.0080542177
v -0.014830101 0.0097496915 0.0084468744
v -0.016680917 0.0097601559 0.0090301887
v -0.016677475 0.032256729 0.008637532
v -0.016645348 0.0096896281 0.0049897348
v -0.016641907 0.032186201 0.0045970782
v -0.016959282 0.032202799 0.0055452328
v -0.016962724 0.0097062258 0.0059378894
v -0.014246039 0.0096868267 0.0048502635
v -0.014242598 0.0321834 0.0044576069
v -0.014454214 0.032187489 0.0046899994
v -0.014641204 0.032191926 0.0049426253
v -0.014801647 0.032196668 0.0052128839
v -0.014805089 0.0097000949 0.0056055405
v -0.014644646 0.0096953532 0.005335282
v -0.014457655 0.0096909152 0.0050826561
v -0.0090026093 0.0097330975 0.0075472254
v -0.0089991677 0.032229671 0.0071545688
v -0.008964585 0.032224213 0.006842193
v -0.0089618185 0.032218727 0.0065279208
v -0.0089908965 0.03221327 0.0062149845
v -0.0089943381 0.0097166966 0.0066076412
v -0.0089652601 0.0097221542 0.0069205774
v -0.0089680266 0.0097276399 0.0072348496
v -0.014523445 0.0091416284 -0.026388346
v -0.014520004 0.031638202 -0.026781002
v -0.016360264 0.031627735 -0.027396809
v -0.016363705 0.0091311616 -0.027004152
v 0.00046625864 0.028469684 0.0038329804
v 0.00042225187 0.028556944 0.0088320252
v 0.00042159414 0.024257599 0.0089070662
v 0.00046560091 0.024170338 0.0039080214
v 0.00046625864 0.028469684 0.0038329804
v -0.0032330321 0.032169118 0.0037358403
v -0.0033096039 0.032320951 0.012434179
v 0.00042225187 0.028556944 0.0088320252
v -0.0084045728 0.0091009647 -0.028664471
v -0.0084011312 0.031597538 -0.029057127
v -0.0092049434 0.031587279 -0.029651923
v -0.009208385 0.0090907061 -0.029259266
v -0.0095589955 0.0091283632 -0.027104843
v -0.0095555539 0.031624936 -0.0274975
v -0.0084011312 0.031597538 -0.029057127
v -0.0084045728 0.0091009647 -0.028664471
v -0.0095939493 0.03170107 -0.023135886
v -0.0095973909 0.0092044969 -0.022743229
v -0.008470604 0.0092318969 -0.02116352
v -0.0084671623 0.03172847 -0.021556176
v -0.013964396 0.0091283602 -0.027143624
v -0.013960954 0.031624933 -0.02753628
v -0.01417257 0.031629022 -0.027303887
v -0.014359561 0.03163346 -0.027051262
v -0.014520004 0.031638202 -0.026781002
v -0.014523445 0.0091416284 -0.026388346
v -0.014363003 0.0091368867 -0.026658605
v -0.014176012 0.0091324488 -0.02691123
v -0.0032330321 0.032169118 0.0037358403
v 0.00046625864 0.028469684 0.0038329804
v 0.00046560091 0.024170338 0.0039080214
v -0.0045342054 0.024170335 0.003864008
v -0.0045329817 0.032169117 0.0037243968
v -0.0031538199 0.032012049 -0.0052624399
v 0.00054547081 0.028312615 -0.0051652997
v 0.00055427216 0.028295163 -0.0061651086
v -0.0031124536 0.031930024 -0.0099615421
v -0.012324881 0.0092536886 -0.019948783
v -0.012321439 0.031750262 -0.02034144
v -0.011321478 0.031750263 -0.020332637
v -0.01132492 0.0092536893 -0.01993998
v -0.014837379 0.031654799 -0.025832848
v -0.014840821 0.0091582261 -0.025440191
v -0.016681081 0.0091477593 -0.026055998
v -0.016677639 0.031644333 -0.026448654
v -0.015119023 0.032213266 0.0061610385
v -0.015122464 0.0097166926 0.0065536951
v -0.016962724 0.0097062258 0.0059378894
v -0.016959282 0.032202799 0.0055452328
v -0.011535629 0.0096715023 0.0039960345
v -0.011532188 0.032168076 0.0036033778
v -0.011515108 0.032134208 0.0016631608
v -0.011518549 0.009637635 0.0020558174
v -0.014805089 0.0097000949 0.0056055405
v -0.014801647 0.032196668 0.0052128839
v -0.016641907 0.032186201 0.0045970782
v -0.016645348 0.0096896281 0.0049897348
v -0.0092949725 0.0097000985 0.0056540462
v -0.0092915309 0.032196672 0.0052613896
v -0.009447191 0.03219193 0.0049883483
v -0.0096297053 0.032187492 0.0047324697
v -0.0098371972 0.032183403 0.0044963877
v -0.0098406388 0.0096868296 0.0048890444
v -0.0096331469 0.0096909184 0.0051251263
v -0.0094506326 0.0096953566 0.005381005
v -0.011236906 0.0090791685 -0.029938069
v -0.011233464 0.031575742 -0.030330725
v -0.012233426 0.031575741 -0.030339528
v -0.012236867 0.0090791679 -0.029946871
v -0.014277024 0.0090907027 -0.029303886
v -0.014273583 0.031587276 -0.029696542
v -0.015087741 0.031597534 -0.02911599
v -0.015091183 0.0091009603 -0.028723333
v -0.011253986 0.0091130358 -0.027997852
v -0.011250544 0.031609609 -0.028390508
v -0.011233464 0.031575742 -0.030330725
v -0.011236906 0.0090791685 -0.029938069
v -0.0087175244 0.031671204 -0.024839317
v -0.008720966 0.009174631 -0.024446661
v -0.0068807062 0.0091850978 -0.023830855
v -0.0068772646 0.031681671 -0.024223512
v -0.014840821 0.0091582261 -0.025440191
v -0.014837379 0.031654799 -0.025832848
v -0.014871962 0.031660257 -0.025520472
v -0.014874729 0.031665743 -0.0252062
v -0.014845651 0.0316712 -0.024893263
v -0.014849092 0.009174627 -0.024500607
v -0.01487817 0.0091691694 -0.024813543
v -0.014875404 0.0091636836 -0.025127815
v -0.0044763847 0.028056288 -0.0027045556
v -0.0044851861 0.02807374 -0.0017047464
v 0.00051462019 0.028073743 -0.001660733
v 0.00053134276 0.028040584 -0.00356037
v 0.0003313507 0.028040584 -0.0035621306
v -0.00057653598 0.02805629 -0.0026702252
v -0.012307801 0.0092198213 -0.021889
v -0.012304359 0.031716395 -0.022281657
v -0.012321439 0.031750262 -0.02034144
v -0.012324881 0.0092536886 -0.019948783
v -0.0068602994 0.0093235006 -0.015901132
v -0.0068568578 0.031820074 -0.016293789
v -0.0088391775 0.031785168 -0.018311012
v -0.0088426191 0.0092885951 -0.017918355
v -0.013960954 0.031624933 -0.02753628
v -0.013964396 0.0091283602 -0.027143624
v -0.015091183 0.0091009603 -0.028723333
v -0.015087741 0.031597534 -0.02911599
v -0.014242598 0.0321834 0.0044576069
v -0.014246039 0.0096868267 0.0048502635
v -0.015372826 0.0096594267 0.0032705542
v -0.015369385 0.032156 0.0028778976
v -0.011518549 0.009637635 0.0020558174
v -0.011515108 0.032134208 0.0016631608
v -0.012515069 0.032134208 0.0016543581
v -0.012518511 0.0096376343 0.0020470147
v -0.014558668 0.0096491692 0.0026900028
v -0.014555226 0.032145742 0.0022973461
v -0.015369385 0.032156 0.0028778976
v -0.015372826 0.0096594267 0.0032705542
v -0.010644451 0.009676571 0.0042942499
v -0.01064101 0.032173144 0.0039015933
v -0.010927456 0.032170929 0.0037721783
v -0.011225536 0.032169234 0.0036724312
v -0.011532188 0.032168076 0.0036033778
v -0.011535629 0.0096715023 0.0039960345
v -0.011228978 0.0096726606 0.0040650878
v -0.010930897 0.009674356 0.0041648349
v -0.013150237 0.0091181027 -0.027724175
v -0.013146795 0.031614676 -0.028116832
v -0.014273583 0.031587276 -0.029696542
v -0.014277024 0.0090907027 -0.029303886
v -0.0038024 0.032329476 0.012918301
v -0.0038036237 0.024330694 0.013057912
v 0.00042159414 0.024257599 0.0089070662
v 0.00042225187 0.028556944 0.0088320252
v -0.0033096039 0.032320951 0.012434179
v -0.03103815 0.014195972 -0.10940552
v -0.028992076 0.018657983 -0.1094654
v -0.029062487 0.0187976 -0.10146692
v -0.031108561 0.014335588 -0.10140705
v -0.0090098876 0.031638205 -0.026732497
v -0.0090133293 0.0091416321 -0.02633984
v -0.0071625136 0.0091311677 -0.026923154
v -0.0071590719 0.031627741 -0.027315811
v -0.014548458 0.0091912251 -0.023547012
v -0.014545016 0.031687798 -0.023939668
v -0.014389356 0.03169254 -0.023666627
v -0.014206842 0.031696978 -0.023410748
v -0.01399935 0.031701067 -0.023174667
v -0.014002791 0.009204494 -0.02278201
v -0.014210283 0.0092004051 -0.023018092
v -0.014392798 0.0091959669 -0.02327397
v 0.00051462019 0.028073743 -0.001660733
v 0.00051400835 0.024074352 -0.0015909274
v 0.00053073092 0.024041193 -0.0034905644
v 0.00053134276 0.028040584 -0.00356037
v -0.026108755 0.014335592 -0.10136303
v -0.031108561 0.014335588 -0.10140705
v -0.029062487 0.0187976 -0.10146692
v -0.028793547 0.019053497 -0.10146902
v -0.028422325 0.019053497 -0.10146575
v -0.028153463 0.0187976 -0.10145892
v -0.0069800767 0.032064403 -0.0022964634
v -0.0068568578 0.031820074 -0.016293789
v -0.0068602994 0.0093235006 -0.015901132
v -0.0069835183 0.0095678296 -0.0019038067
v -0.0090010434 0.0096027325 7.8205721e-05
v -0.0089976018 0.032099306 -0.00031445091
v -0.0069800767 0.032064403 -0.0022964634
v -0.0069835183 0.0095678296 -0.0019038067
v -0.01499737 0.032099302 -0.00036726701
v -0.0089976018 0.032099306 -0.00031445091
v -0.0090010434 0.0096027325 7.8205721e-05
v -0.015000811 0.0096027285 2.5389627e-05
v -0.012250506 0.031609608 -0.028399311
v -0.012253947 0.0091130352 -0.028006654
v -0.012236867 0.0090791679 -0.029946871
v -0.012233426 0.031575741 -0.030339528
v -0.012532149 0.032168075 0.0035945751
v -0.01253559 0.0096715016 0.0039872318
v -0.012518511 0.0096376343 0.0020470147
v -0.012515069 0.032134208 0.0016543581
v -0.01343188 0.0096765691 0.0042697121
v -0.013428439 0.032173142 0.0038770555
v -0.014555226 0.032145742 0.0022973461
v -0.014558668 0.0096491692 0.0026900028
v -0.012253947 0.0091130352 -0.028006654
v -0.012250506 0.031609608 -0.028399311
v -0.012558325 0.031610766 -0.028335668
v -0.012858116 0.031612461 -0.028241184
v -0.013146795 0.031614676 -0.028116832
v -0.013150237 0.0091181027 -0.027724175
v -0.012861557 0.0091158881 -0.027848527
v -0.012561766 0.0091141931 -0.027943011
v -0.0044549167 0.02451319 -0.0051429978
v -0.0044593939 0.024021993 -0.0046343678
v -0.0054593554 0.024021992 -0.0046431705
v -0.0054548782 0.02451319 -0.0051518005
v -0.02806545 0.01862308 -0.11145701
v -0.028334311 0.018878976 -0.11146384
v -0.028705534 0.018878976 -0.11146711
v -0.028974473 0.018623079 -0.11146501
v -0.028798446 0.018274037 -0.13146119
v -0.028529507 0.018529934 -0.13146329
v -0.028158284 0.018529935 -0.13146002
v -0.027889423 0.018274038 -0.13145319
v -0.026843452 0.021810996 -0.13150572
v -0.02634465 0.021813335 -0.13136737
v -0.02598186 0.021819723 -0.13099819
v -0.025852292 0.021828449 -0.13049711
v -0.025853515 0.013829481 -0.1303575
v -0.026140076 0.014456061 -0.1310782
v -0.026844342 0.015993439 -0.13140418
v -0.03536442 0.01538271 -0.041451328
v -0.035149943 0.014957428 -0.065815276
v -0.035147496 0.030955177 -0.066094502
v -0.035361973 0.03138046 -0.041730554
v -0.022524968 0.01516059 -0.054064778
v -0.03536442 0.01538271 -0.041451328
v -0.035361973 0.03138046 -0.041730554
v -0.022522521 0.03115834 -0.054344004
v -0.010359366 0.031614678 -0.028092294
v -0.010362808 0.0091181045 -0.027699637
v -0.009208385 0.0090907061 -0.029259266
v -0.0092049434 0.031587279 -0.029651923
v -0.013198979 0.0092147526 -0.022187215
v -0.013195538 0.031711326 -0.022579872
v -0.012909091 0.031713541 -0.022450457
v -0.012611011 0.031715236 -0.02235071
v -0.012304359 0.031716395 -0.022281657
v -0.012307801 0.0092198213 -0.021889
v -0.012614452 0.009218663 -0.021958053
v -0.012912533 0.0092169676 -0.0220578
v -0.0044769966 0.024056897 -0.00263475
v -0.0044593939 0.024021993 -0.0046343678
v -0.0044549167 0.02451319 -0.0051429978
v -0.0044537695 0.032012048 -0.0052738834
v -0.0045329817 0.032169117 0.0037243968
v -0.0045342054 0.024170335 0.003864008
v -0.004512202 0.024126705 0.0013644856
v -0.0045115901 0.028126096 0.00129468
v -0.0045027888 0.028108644 0.00029487138
v -0.0045034006 0.024109253 0.00036467701
v -0.0044857979 0.024074349 -0.0016349408
v -0.0044851861 0.02807374 -0.0017047464
v -0.0044763847 0.028056288 -0.0027045556
v 0.00055369091 0.024495742 -0.0060987933
v -0.0053932687 0.024391025 -0.012150463
v -0.0053921215 0.031889883 -0.012281349
v -0.0031124536 0.031930024 -0.0099615421
v 0.00055427216 0.028295163 -0.0061651086
v -0.035007543 0.026439861 -0.077955745
v -0.03789966 0.030821991 -0.07374926
v -0.019805635 0.030822003 -0.073589978
v -0.022623246 0.026439869 -0.077846726
v -0.026283558 0.022683601 -0.081506474
v -0.031283364 0.022683597 -0.081550488
v -0.031284588 0.01468463 -0.081410873
v -0.035009331 0.014749067 -0.077751693
v -0.035007543 0.026439861 -0.077955745
v -0.031283364 0.022683597 -0.081550488
v -0.0088426191 0.0092885951 -0.017918355
v -0.0088391775 0.031785168 -0.018311012
v -0.014838945 0.031785164 -0.018363828
v -0.014842387 0.0092885911 -0.017971171
v -0.014842387 0.0092885911 -0.017971171
v -0.014838945 0.031785164 -0.018363828
v -0.01685647 0.031820067 -0.016381815
v -0.016859912 0.0093234939 -0.015989159
v -0.016983131 0.009567823 -0.0019918335
v -0.016979689 0.032064396 -0.0023844902
v -0.01499737 0.032099302 -0.00036726701
v -0.015000811 0.0096027285 2.5389627e-05
v -0.01253559 0.0096715016 0.0039872318
v -0.012532149 0.032168075 0.0035945751
v -0.012839968 0.032169233 0.0036582193
v -0.013139759 0.032170928 0.0037527033
v -0.013428439 0.032173142 0.0038770555
v -0.01343188 0.0096765691 0.0042697121
v -0.0131432 0.0096743545 0.0041453599
v -0.01284341 0.0096726595 0.0040508759
v -0.0053932687 0.024391025 -0.012150463
v 0.00055369091 0.024495742 -0.0060987933
v 0.00054488956 0.024513194 -0.0050989844
v -0.0044549167 0.02451319 -0.0051429978
v -0.0054548782 0.02451319 -0.0051518005
v -0.026020741 0.014161071 -0.11136112
v -0.02806545 0.01862308 -0.11145701
v -0.027889423 0.018274038 -0.13145319
v -0.026844342 0.015993439 -0.13140418
v -0.026140076 0.014456061 -0.1310782
v -0.025853515 0.013829481 -0.1303575
v -0.028992076 0.018657983 -0.1094654
v -0.028723136 0.01891388 -0.1094675
v -0.028351914 0.01891388 -0.10946423
v -0.028083052 0.018657984 -0.10945739
v -0.028153463 0.0187976 -0.10145892
v -0.028422325 0.019053497 -0.10146575
v -0.028793547 0.019053497 -0.10146902
v -0.029062487 0.0187976 -0.10146692
v -0.029843335 0.021810994 -0.13153213
v -0.026843452 0.021810996 -0.13150572
v -0.026844342 0.015993439 -0.13140418
v -0.027889423 0.018274038 -0.13145319
v -0.028158284 0.018529935 -0.13146002
v -0.028529507 0.018529934 -0.13146329
v -0.028798446 0.018274037 -0.13146119
v -0.029844225 0.015993437 -0.13143059
v -0.035452433 0.015557231 -0.031453239
v -0.022837027 0.015779368 -0.018615709
v -0.02283458 0.031777118 -0.018894934
v -0.035449986 0.031554981 -0.031732464
v -0.01130784 0.009219822 -0.021880197
v -0.011304398 0.031716395 -0.022272854
v -0.010996579 0.031715237 -0.022336498
v -0.010696788 0.031713542 -0.022430982
v -0.010408108 0.031711328 -0.022555334
v -0.01041155 0.0092147544 -0.022162678
v -0.01070023 0.0092169691 -0.022038325
v -0.011000021 0.0092186641 -0.021943841
v -0.0038036237 0.024330694 0.013057912
v -0.0086034376 0.024330691 0.013015659
v -0.0055887353 0.024278537 0.010054021
v -0.0054593554 0.024021992 -0.0046431705
v -0.0044593939 0.024021993 -0.0046343678
v -0.0044769966 0.024056897 -0.00263475
v -0.00057714782 0.024056899 -0.0026004195
v 0.00033073886 0.024041193 -0.0034923249
v 0.00053073092 0.024041193 -0.0034905644
v 0.00051400835 0.024074352 -0.0015909274
v -0.0044857979 0.024074349 -0.0016349408
v -0.0045034006 0.024109253 0.00036467701
v 0.00049640564 0.024109256 0.00040869042
v 0.00047968307 0.024142415 0.0023083274
v 0.00027969101 0.024142415 0.0023065669
v -0.00061235323 0.024126708 0.0013988161
v -0.004512202 0.024126705 0.0013644856
v -0.0045342054 0.024170335 0.003864008
v 0.00046560091 0.024170338 0.0039080214
v 0.00042159414 0.024257599 0.0089070662
v 0.00054547081 0.028312615 -0.0051652997
v 0.00054488956 0.024513194 -0.0050989844
v 0.00055369091 0.024495742 -0.0060987933
v 0.00055427216 0.028295163 -0.0061651086
v -0.035009331 0.014749067 -0.077751693
v -0.03709889 0.014796054 -0.075078004
v -0.038425139 0.014850771 -0.071954683
v -0.038897701 0.014909491 -0.068594576
v -0.038895253 0.03090724 -0.068873802
v -0.038773587 0.030878189 -0.070537195
v -0.03843989 0.030849616 -0.072171315
v -0.03789966 0.030821991 -0.07374926
v -0.035007543 0.026439861 -0.077955745
v -0.016859912 0.0093234939 -0.015989159
v -0.01685647 0.031820067 -0.016381815
v -0.016979689 0.032064396 -0.0023844902
v -0.016983131 0.009567823 -0.0019918335
v -0.026284782 0.014684633 -0.08136686
v -0.026108755 0.014335592 -0.10136303
v -0.026038344 0.014195975 -0.10936151
v -0.026020741 0.014161071 -0.11136112
v -0.025853515 0.013829481 -0.1303575
v -0.025852292 0.021828449 -0.13049711
v -0.026283558 0.022683601 -0.081506474
v -0.0086034376 0.024330691 0.013015659
v -0.0086056556 0.0098328998 0.013268705
v -0.0055909532 0.009780746 0.010307066
v -0.0055887353 0.024278537 0.010054021
v -0.028083052 0.018657984 -0.10945739
v -0.028351914 0.01891388 -0.10946423
v -0.028723136 0.01891388 -0.1094675
v -0.028992076 0.018657983 -0.1094654
v -0.03103815 0.014195972 -0.10940552
v -0.026038344 0.014195975 -0.10936151
v -0.028974473 0.018623079 -0.11146501
v -0.031020547 0.014161068 -0.11140514
v -0.030853322 0.013829478 -0.13040151
v -0.030554118 0.014456058 -0.13111705
v -0.029844225 0.015993437 -0.13143059
v -0.028798446 0.018274037 -0.13146119
v -0.030852098 0.021828445 -0.13054113
v -0.030713728 0.02181972 -0.13103985
v -0.030344495 0.021813332 -0.13140258
v -0.029843335 0.021810994 -0.13153213
v -0.029844225 0.015993437 -0.13143059
v -0.030554118 0.014456058 -0.13111705
v -0.030853322 0.013829478 -0.13040151
v -0.022837027 0.015779368 -0.018615709
v -0.035676479 0.016001488 -0.0060022578
v -0.035674032 0.031999238 -0.0062814836
v -0.02283458 0.031777118 -0.018894934
v -0.0095973909 0.0092044969 -0.022743229
v -0.0095939493 0.03170107 -0.023135886
v -0.0093823334 0.031696982 -0.023368278
v -0.0091953427 0.031692544 -0.023620904
v -0.0090349 0.031687802 -0.023891163
v -0.0090383416 0.0091912287 -0.023498506
v -0.0091987843 0.0091959704 -0.023228247
v -0.009385775 0.0092004083 -0.022975622
v -0.0053921215 0.031889883 -0.012281349
v -0.0053932687 0.024391025 -0.012150463
v -0.0054548782 0.02451319 -0.0051518005
v -0.0054593554 0.024021992 -0.0046431705
v -0.0055887353 0.024278537 0.010054021
v -0.0055909532 0.009780746 0.010307066
v -0.0052532314 0.0091110824 -0.028057176
v -0.0052497898 0.031607656 -0.028449832
v -0.0044537695 0.032012048 -0.0052738834
v -0.0044549167 0.02451319 -0.0051429978
v 0.00054488956 0.024513194 -0.0050989844
v 0.00054547081 0.028312615 -0.0051652997
v -0.0031538199 0.032012049 -0.0052624399
v -0.038897701 0.014909491 -0.068594576
v -0.039412513 0.015930305 -0.010113317
v -0.039410066 0.031928055 -0.010392543
v -0.038895253 0.03090724 -0.068873802
v -0.016613388 0.032329468 0.012805525
v -0.01661683 0.0098328945 0.013198182
v -0.0086056556 0.0098328998 0.013268705
v -0.0086034376 0.024330691 0.013015659
v -0.0038036237 0.024330694 0.013057912
v -0.0038024 0.032329476 0.012918301
v -0.028974473 0.018623079 -0.11146501
v -0.028705534 0.018878976 -0.11146711
v -0.028334311 0.018878976 -0.11146384
v -0.02806545 0.01862308 -0.11145701
v -0.026020741 0.014161071 -0.11136112
v -0.031020547 0.014161068 -0.11140514
v -0.03103815 0.014195972 -0.10940552
v -0.031108561 0.014335588 -0.10140705
v -0.031284588 0.01468463 -0.081410873
v -0.031283364 0.022683597 -0.081550488
v -0.030852098 0.021828445 -0.13054113
v -0.030853322 0.013829478 -0.13040151
v -0.031020547 0.014161068 -0.11140514
v -0.031283364 0.022683597 -0.081550488
v -0.026283558 0.022683601 -0.081506474
v -0.025852292 0.021828449 -0.13049711
v -0.02598186 0.021819723 -0.13099819
v -0.02634465 0.021813335 -0.13136737
v -0.026843452 0.021810996 -0.13150572
v -0.029843335 0.021810994 -0.13153213
v -0.030344495 0.021813332 -0.13140258
v -0.030713728 0.02181972 -0.13103985
v -0.030852098 0.021828445 -0.13054113
v -0.022793021 0.015692108 -0.023614753
v -0.035408427 0.015469971 -0.036452283
v -0.035405979 0.03146772 -0.036731509
v -0.022790573 0.031689857 -0.023893979
v -0.008720966 0.009174631 -0.024446661
v -0.0087175244 0.031671204 -0.024839317
v -0.0086829417 0.031665747 -0.025151693
v -0.0086801752 0.031660261 -0.025465965
v -0.0087092532 0.031654803 -0.025778902
v -0.0087126948 0.0091582302 -0.025386245
v -0.0086836168 0.0091636878 -0.025073309
v -0.0086863833 0.0091691735 -0.024759036
v -0.0082436813 0.0090584253 -0.03110028
v -0.0082402397 0.031554999 -0.031492936
v -0.0052497898 0.031607656 -0.028449832
v -0.0052532314 0.0091110824 -0.028057176
v -0.019221987 0.031554991 -0.031589609
v -0.019222692 0.031554805 -0.031589612
v -0.019222694 0.031554994 -0.031589436
v -0.031020547 0.014161068 -0.11140514
v -0.026020741 0.014161071 -0.11136112
v -0.026038344 0.014195975 -0.10936151
v -0.03103815 0.014195972 -0.10940552
v -0.028083052 0.018657984 -0.10945739
v -0.026038344 0.014195975 -0.10936151
v -0.026108755 0.014335592 -0.10136303
v -0.028153463 0.0187976 -0.10145892
v -0.019805635 0.030822003 -0.073589978
v -0.03789966 0.030821991 -0.07374926
v -0.03843989 0.030849616 -0.072171315
v -0.038773587 0.030878189 -0.070537195
v -0.038895253 0.03090724 -0.068873802
v -0.039410066 0.031928055 -0.010392543
v -0.037736831 0.032081664 -0.0015770936
v -0.032816924 0.03221189 0.0059271059
v -0.025399357 0.032298907 0.010977609
v -0.016613388 0.032329468 0.012805525
v -0.0038024 0.032329476 0.012918301
v -0.0033096039 0.032320951 0.012434179
v -0.0032330321 0.032169118 0.0037358403
v -0.0045329817 0.032169117 0.0037243968
v -0.0044537695 0.032012048 -0.0052738834
v -0.0031538199 0.032012049 -0.0052624399
v -0.0031124536 0.031930024 -0.0099615421
v -0.0053921215 0.031889883 -0.012281349
v -0.0052497898 0.031607656 -0.028449832
v -0.0082402397 0.031554999 -0.031492936
v -0.019221987 0.031554991 -0.031589609
v -0.019222694 0.031554994 -0.031589436
v -0.018896028 0.030907254 -0.068697748
v -0.018988393 0.030878202 -0.070363025
v -0.019293269 0.030849628 -0.072002767
v -0.035449986 0.031554981 -0.031732464
v -0.02283458 0.031777118 -0.018894934
v -0.035674032 0.031999238 -0.0062814836
v -0.02237606 0.030867925 -0.070981507
v -0.022488083 0.031090054 -0.058256015
v -0.035103489 0.030867917 -0.071093547
v -0.035147496 0.030955177 -0.066094502
v -0.022522521 0.03115834 -0.054344004
v -0.035361973 0.03138046 -0.041730554
v -0.02299061 0.032086507 -0.0011703989
v -0.035718039 0.032086498 -0.0012824387
v -0.022878587 0.031864378 -0.013895889
v -0.016979689 0.032064396 -0.0023844902
v -0.01685647 0.031820067 -0.016381815
v -0.014838945 0.031785164 -0.018363828
v -0.0088391775 0.031785168 -0.018311012
v -0.0068568578 0.031820074 -0.016293789
v -0.0069800767 0.032064403 -0.0022964634
v -0.0089976018 0.032099306 -0.00031445091
v -0.01499737 0.032099302 -0.00036726701
v -0.013146795 0.031614676 -0.028116832
v -0.012858116 0.031612461 -0.028241184
v -0.012558325 0.031610766 -0.028335668
v -0.012250506 0.031609608 -0.028399311
v -0.012233426 0.031575741 -0.030339528
v -0.011233464 0.031575742 -0.030330725
v -0.011250544 0.031609609 -0.028390508
v -0.010943893 0.031610767 -0.028321456
v -0.010645812 0.031612463 -0.028221709
v -0.010359366 0.031614678 -0.028092294
v -0.0092049434 0.031587279 -0.029651923
v -0.0084011312 0.031597538 -0.029057127
v -0.0095555539 0.031624936 -0.0274975
v -0.009348062 0.031629025 -0.027261416
v -0.0091655477 0.031633463 -0.027005539
v -0.0090098876 0.031638205 -0.026732497
v -0.0071590719 0.031627741 -0.027315811
v -0.0068584375 0.031644339 -0.026362216
v -0.0087092532 0.031654803 -0.025778902
v -0.0086801752 0.031660261 -0.025465965
v -0.0086829417 0.031665747 -0.025151693
v -0.0087175244 0.031671204 -0.024839317
v -0.0068772646 0.031681671 -0.024223512
v -0.0071946402 0.031698269 -0.023275357
v -0.0090349 0.031687802 -0.023891163
v -0.0091953427 0.031692544 -0.023620904
v -0.0093823334 0.031696982 -0.023368278
v -0.0095939493 0.03170107 -0.023135886
v -0.0084671623 0.03172847 -0.021556176
v -0.0092813211 0.031738728 -0.020975625
v -0.010408108 0.031711328 -0.022555334
v -0.010696788 0.031713542 -0.022430982
v -0.010996579 0.031715237 -0.022336498
v -0.011304398 0.031716395 -0.022272854
v -0.011321478 0.031750263 -0.020332637
v -0.012321439 0.031750262 -0.02034144
v -0.012304359 0.031716395 -0.022281657
v -0.012611011 0.031715236 -0.02235071
v -0.012909091 0.031713541 -0.022450457
v -0.013195538 0.031711326 -0.022579872
v -0.01434996 0.031738724 -0.021020244
v -0.015153773 0.031728466 -0.021615039
v -0.01399935 0.031701067 -0.023174667
v -0.014206842 0.031696978 -0.023410748
v -0.014389356 0.03169254 -0.023666627
v -0.014545016 0.031687798 -0.023939668
v -0.016395832 0.031698263 -0.023356355
v -0.016696466 0.031681665 -0.02430995
v -0.014845651 0.0316712 -0.024893263
v -0.014874729 0.031665743 -0.0252062
v -0.014871962 0.031660257 -0.025520472
v -0.014837379 0.031654799 -0.025832848
v -0.016677639 0.031644333 -0.026448654
v -0.016360264 0.031627735 -0.027396809
v -0.014520004 0.031638202 -0.026781002
v -0.014359561 0.03163346 -0.027051262
v -0.01417257 0.031629022 -0.027303887
v -0.013960954 0.031624933 -0.02753628
v -0.015087741 0.031597534 -0.02911599
v -0.014273583 0.031587276 -0.029696542
v -0.013428439 0.032173142 0.0038770555
v -0.013139759 0.032170928 0.0037527033
v -0.012839968 0.032169233 0.0036582193
v -0.012532149 0.032168075 0.0035945751
v -0.012515069 0.032134208 0.0016543581
v -0.011515108 0.032134208 0.0016631608
v -0.011532188 0.032168076 0.0036033778
v -0.011225536 0.032169234 0.0036724312
v -0.010927456 0.032170929 0.0037721783
v -0.01064101 0.032173144 0.0039015933
v -0.0094865867 0.032145746 0.0023419655
v -0.0086827745 0.032156004 0.00293676
v -0.0098371972 0.032183403 0.0044963877
v -0.0096297053 0.032187492 0.0047324697
v -0.009447191 0.03219193 0.0049883483
v -0.0092915309 0.032196672 0.0052613896
v -0.0074407152 0.032186207 0.0046780765
v -0.0071400808 0.032202806 0.0056316714
v -0.0089908965 0.03221327 0.0062149845
v -0.0089618185 0.032218727 0.0065279208
v -0.008964585 0.032224213 0.006842193
v -0.0089991677 0.032229671 0.0071545688
v -0.0071589079 0.032240138 0.0077703757
v -0.0074762835 0.032256735 0.0087185303
v -0.0093165433 0.032246268 0.0081027234
v -0.009476986 0.03225101 0.0083729832
v -0.0096639767 0.032255448 0.0086256079
v -0.0098755926 0.032259537 0.0088580016
v -0.0087488056 0.032286937 0.010437711
v -0.0095629644 0.032297194 0.011018264
v -0.010689752 0.032269794 0.009438553
v -0.010978432 0.032272009 0.0095629052
v -0.011278222 0.032273704 0.0096573892
v -0.011586041 0.032274862 0.0097210322
v -0.011603121 0.032308729 0.011661249
v -0.012603083 0.032308728 0.011652447
v -0.012586003 0.032274861 0.0097122295
v -0.012892654 0.032273703 0.0096431773
v -0.013190735 0.032272007 0.0095434302
v -0.013477181 0.032269792 0.0094140152
v -0.014631604 0.032297191 0.010973644
v -0.015435416 0.032286932 0.010378849
v -0.014280993 0.032259534 0.0088192208
v -0.014488485 0.032255445 0.0085831376
v -0.014670999 0.032251007 0.0083272602
v -0.014826659 0.032246265 0.0080542177
v -0.016677475 0.032256729 0.008637532
v -0.01697811 0.032240131 0.0076839371
v -0.015127294 0.032229667 0.0071006228
v -0.015156372 0.032224209 0.0067876865
v -0.015153605 0.032218723 0.0064734143
v -0.015119023 0.032213266 0.0061610385
v -0.016959282 0.032202799 0.0055452328
v -0.016641907 0.032186201 0.0045970782
v -0.014801647 0.032196668 0.0052128839
v -0.014641204 0.032191926 0.0049426253
v -0.014454214 0.032187489 0.0046899994
v -0.014242598 0.0321834 0.0044576069
v -0.015369385 0.032156 0.0028778976
v -0.014555226 0.032145742 0.0022973461
v -0.022566527 0.0312456 -0.049344961
v -0.022790573 0.031689857 -0.023893979
v -0.035405979 0.03146772 -0.036731509
v -0.035105937 0.014870167 -0.070814321
v -0.022378507 0.014870176 -0.070702281
v -0.02237606 0.030867925 -0.070981507
v -0.035103489 0.030867917 -0.071093547
v -0.02249053 0.015092304 -0.057976789
v -0.035105937 0.014870167 -0.070814321
v -0.035103489 0.030867917 -0.071093547
v -0.022488083 0.031090054 -0.058256015
v -0.0090133293 0.0091416321 -0.02633984
v -0.0090098876 0.031638205 -0.026732497
v -0.0091655477 0.031633463 -0.027005539
v -0.009348062 0.031629025 -0.027261416
v -0.0095555539 0.031624936 -0.0274975
v -0.0095589955 0.0091283632 -0.027104843
v -0.0093515036 0.009132452 -0.02686876
v -0.0091689893 0.0091368902 -0.026612882
v -0.01922514 0.015557242 -0.031310389
v -0.018898476 0.014909504 -0.068418522
v -0.018896028 0.030907254 -0.068697748
v -0.019222694 0.031554994 -0.031589436
v -0.019222692 0.031554805 -0.031589612
v -0.018898476 0.014909504 -0.068418522
v -0.019311809 0.014850784 -0.071786428
v -0.020582869 0.014796065 -0.074932613
v -0.022625034 0.014749075 -0.077642674
v -0.022623246 0.026439869 -0.077846726
v -0.019805635 0.030822003 -0.073589978
v -0.019293269 0.030849628 -0.072002767
v -0.018988393 0.030878202 -0.070363025
v -0.018896028 0.030907254 -0.068697748
v -0.022625034 0.014749075 -0.077642674
v -0.026284782 0.014684633 -0.08136686
v -0.026283558 0.022683601 -0.081506474
v -0.022623246 0.026439869 -0.077846726
v -0.035720486 0.016088749 -0.001003213
v -0.022881034 0.015866629 -0.013616664
v -0.022878587 0.031864378 -0.013895889
v -0.035718039 0.032086498 -0.0012824387
v -0.022993057 0.016088757 -0.00089117315
v -0.035720486 0.016088749 -0.001003213
v -0.035718039 0.032086498 -0.0012824387
v -0.02299061 0.032086507 -0.0011703989
v -0.035676479 0.016001488 -0.0060022578
v -0.035452433 0.015557231 -0.031453239
v -0.035449986 0.031554981 -0.031732464
v -0.035674032 0.031999238 -0.0062814836
v -0.010362808 0.0091181045 -0.027699637
v -0.010359366 0.031614678 -0.028092294
v -0.010645812 0.031612463 -0.028221709
v -0.010943893 0.031610767 -0.028321456
v -0.011250544 0.031609609 -0.028390508
v -0.011253986 0.0091130358 -0.027997852
v -0.010947335 0.0091141942 -0.027928799
v -0.010649254 0.0091158895 -0.027829052
v -0.019614984 0.0098294633 0.012975319
v -0.019226134 0.009058418 -0.031196958
v -0.0082436813 0.0090584253 -0.03110028
v -0.0052532314 0.0091110824 -0.028057176
v -0.0055909532 0.009780746 0.010307066
v -0.0086056556 0.0098328998 0.013268705
v -0.01661683 0.0098328945 0.013198182
v -0.017619138 0.0098325123 0.013167501
v -0.018619157 0.0098313678 0.013093166
v -0.016859912 0.0093234939 -0.015989159
v -0.016983131 0.009567823 -0.0019918335
v -0.015000811 0.0096027285 2.5389627e-05
v -0.0090010434 0.0096027325 7.8205721e-05
v -0.0069835183 0.0095678296 -0.0019038067
v -0.0068602994 0.0093235006 -0.015901132
v -0.0088426191 0.0092885951 -0.017918355
v -0.014842387 0.0092885911 -0.017971171
v -0.01253559 0.0096715016 0.0039872318
v -0.01284341 0.0096726595 0.0040508759
v -0.0131432 0.0096743545 0.0041453599
v -0.01343188 0.0096765691 0.0042697121
v -0.014558668 0.0096491692 0.0026900028
v -0.015372826 0.0096594267 0.0032705542
v -0.014246039 0.0096868267 0.0048502635
v -0.014457655 0.0096909152 0.0050826561
v -0.014644646 0.0096953532 0.005335282
v -0.014805089 0.0097000949 0.0056055405
v -0.016645348 0.0096896281 0.0049897348
v -0.016962724 0.0097062258 0.0059378894
v -0.015122464 0.0097166926 0.0065536951
v -0.015157047 0.0097221501 0.006866071
v -0.015159813 0.0097276358 0.0071803432
v -0.015130735 0.0097330934 0.0074932794
v -0.016981551 0.0097435577 0.0080765937
v -0.016680917 0.0097601559 0.0090301887
v -0.014830101 0.0097496915 0.0084468744
v -0.014674441 0.0097544334 0.0087199168
v -0.014491927 0.0097588716 0.0089757942
v -0.014284435 0.0097629604 0.0092118774
v -0.015438857 0.0097903589 0.010771505
v -0.014635045 0.0098006175 0.011366301
v -0.013480622 0.009773219 0.0098066719
v -0.013194176 0.009775434 0.0099360869
v -0.012896095 0.0097771294 0.010035834
v -0.012589444 0.0097782878 0.010104886
v -0.012606524 0.009812155 0.012045103
v -0.011606563 0.0098121557 0.012053906
v -0.011589483 0.0097782884 0.010113689
v -0.011281664 0.0097771305 0.010050046
v -0.010981873 0.0097754355 0.0099555618
v -0.010693193 0.0097732209 0.0098312097
v -0.0095664061 0.0098006209 0.01141092
v -0.0087522473 0.0097903633 0.010830368
v -0.0098790342 0.0097629634 0.0092506582
v -0.0096674183 0.0097588748 0.0090182645
v -0.0094804276 0.0097544368 0.0087656398
v -0.0093199849 0.0097496952 0.0084953801
v -0.0074797251 0.009760162 0.009111187
v -0.0071623495 0.0097435643 0.0081630324
v -0.0090026093 0.0097330975 0.0075472254
v -0.0089680266 0.0097276399 0.0072348496
v -0.0089652601 0.0097221542 0.0069205774
v -0.0089943381 0.0097166966 0.0066076412
v -0.0071435224 0.0097062323 0.0060243281
v -0.0074441569 0.0096896342 0.0050707331
v -0.0092949725 0.0097000985 0.0056540462
v -0.0094506326 0.0096953566 0.005381005
v -0.0096331469 0.0096909184 0.0051251263
v -0.0098406388 0.0096868296 0.0048890444
v -0.0086862161 0.0096594311 0.0033294166
v -0.0094900283 0.0096491725 0.0027346221
v -0.010644451 0.009676571 0.0042942499
v -0.010930897 0.009674356 0.0041648349
v -0.011228978 0.0096726606 0.0040650878
v -0.011535629 0.0096715023 0.0039960345
v -0.011518549 0.009637635 0.0020558174
v -0.012518511 0.0096376343 0.0020470147
v -0.012253947 0.0091130352 -0.028006654
v -0.012561766 0.0091141931 -0.027943011
v -0.012861557 0.0091158881 -0.027848527
v -0.013150237 0.0091181027 -0.027724175
v -0.014277024 0.0090907027 -0.029303886
v -0.015091183 0.0091009603 -0.028723333
v -0.013964396 0.0091283602 -0.027143624
v -0.014176012 0.0091324488 -0.02691123
v -0.014363003 0.0091368867 -0.026658605
v -0.014523445 0.0091416284 -0.026388346
v -0.016363705 0.0091311616 -0.027004152
v -0.016681081 0.0091477593 -0.026055998
v -0.014840821 0.0091582261 -0.025440191
v -0.014875404 0.0091636836 -0.025127815
v -0.01487817 0.0091691694 -0.024813543
v -0.014849092 0.009174627 -0.024500607
v -0.016699908 0.0091850913 -0.023917294
v -0.016399273 0.0092016894 -0.022963699
v -0.014548458 0.0091912251 -0.023547012
v -0.014392798 0.0091959669 -0.02327397
v -0.014210283 0.0092004051 -0.023018092
v -0.014002791 0.009204494 -0.02278201
v -0.015157214 0.0092318924 -0.021222382
v -0.014353402 0.009242151 -0.020627588
v -0.013198979 0.0092147526 -0.022187215
v -0.012912533 0.0092169676 -0.0220578
v -0.012614452 0.009218663 -0.021958053
v -0.012307801 0.0092198213 -0.021889
v -0.012324881 0.0092536886 -0.019948783
v -0.01132492 0.0092536893 -0.01993998
v -0.01130784 0.009219822 -0.021880197
v -0.011000021 0.0092186641 -0.021943841
v -0.01070023 0.0092169691 -0.022038325
v -0.01041155 0.0092147544 -0.022162678
v -0.0092847627 0.0092421544 -0.020582968
v -0.008470604 0.0092318969 -0.02116352
v -0.0095973909 0.0092044969 -0.022743229
v -0.009385775 0.0092004083 -0.022975622
v -0.0091987843 0.0091959704 -0.023228247
v -0.0090383416 0.0091912287 -0.023498506
v -0.0071980818 0.0092016955 -0.0228827
v -0.0068807062 0.0091850978 -0.023830855
v -0.008720966 0.009174631 -0.024446661
v -0.0086863833 0.0091691735 -0.024759036
v -0.0086836168 0.0091636878 -0.025073309
v -0.0087126948 0.0091582302 -0.025386245
v -0.0068618791 0.0091477658 -0.025969559
v -0.0071625136 0.0091311677 -0.026923154
v -0.0090133293 0.0091416321 -0.02633984
v -0.0091689893 0.0091368902 -0.026612882
v -0.0093515036 0.009132452 -0.02686876
v -0.0095589955 0.0091283632 -0.027104843
v -0.0084045728 0.0091009647 -0.028664471
v -0.009208385 0.0090907061 -0.029259266
v -0.010362808 0.0091181045 -0.027699637
v -0.010649254 0.0091158895 -0.027829052
v -0.010947335 0.0091141942 -0.027928799
v -0.011253986 0.0091130358 -0.027997852
v -0.011236906 0.0090791685 -0.029938069
v -0.012236867 0.0090791679 -0.029946871
v -0.022568975 0.015247851 -0.049065735
v -0.035408427 0.015469971 -0.036452283
v -0.022793021 0.015692108 -0.023614753
v -0.022524968 0.01516059 -0.054064778
v -0.035149943 0.014957428 -0.065815276
v -0.03536442 0.01538271 -0.041451328
v -0.022837027 0.015779368 -0.018615709
v -0.035452433 0.015557231 -0.031453239
v -0.035676479 0.016001488 -0.0060022578
v -0.022881034 0.015866629 -0.013616664
v -0.035720486 0.016088749 -0.001003213
v -0.022993057 0.016088757 -0.00089117315
v -0.02249053 0.015092304 -0.057976789
v -0.022378507 0.014870176 -0.070702281
v -0.035105937 0.014870167 -0.070814321
v -0.022625034 0.014749075 -0.077642674
v -0.020582869 0.014796065 -0.074932613
v -0.019311809 0.014850784 -0.071786428
v -0.018898476 0.014909504 -0.068418522
v -0.01922514 0.015557242 -0.031310389
v -0.01961399 0.016328287 0.012861888
v -0.027432242 0.016284328 0.01027478
v -0.033837829 0.016194983 0.0050997854
v -0.038009532 0.016071707 -0.0019996393
v -0.039412513 0.015930305 -0.010113317
v -0.038897701 0.014909491 -0.068594576
v -0.038425139 0.014850771 -0.071954683
v -0.03709889 0.014796054 -0.075078004
v -0.035009331 0.014749067 -0.077751693
v -0.031284588 0.01468463 -0.081410873
v -0.031108561 0.014335588 -0.10140705
v -0.026108755 0.014335592 -0.10136303
v -0.026284782 0.014684633 -0.08136686
v -0.035149943 0.014957428 -0.065815276
v -0.022524968 0.01516059 -0.054064778
v -0.022522521 0.03115834 -0.054344004
v -0.035147496 0.030955177 -0.066094502
v -0.019226134 0.009058418 -0.031196958
v -0.01922514 0.015557242 -0.031310389
v -0.019222692 0.031554805 -0.031589612
v -0.019221987 0.031554991 -0.031589609
v -0.0082402397 0.031554999 -0.031492936
v -0.0082436813 0.0090584253 -0.03110028
v -0.035408427 0.015469971 -0.036452283
v -0.022568975 0.015247851 -0.049065735
v -0.022566527 0.0312456 -0.049344961
v -0.035405979 0.03146772 -0.036731509
v -0.039412513 0.015930305 -0.010113317
v -0.038009532 0.016071707 -0.0019996393
v -0.033837829 0.016194983 0.0050997854
v -0.027432242 0.016284328 0.01027478
v -0.01961399 0.016328287 0.012861888
v -0.019614984 0.0098294633 0.012975319
v -0.018619157 0.0098313678 0.013093166
v -0.017619138 0.0098325123 0.013167501
v -0.01661683 0.0098328945 0.013198182
v -0.016613388 0.032329468 0.012805525
v -0.025399357 0.032298907 0.010977609
v -0.032816924 0.03221189 0.0059271059
v -0.037736831 0.032081664 -0.0015770936
v -0.039410066 0.031928055 -0.010392543
v -0.022568975 0.015247851 -0.049065735
v -0.022793021 0.015692108 -0.023614753
v -0.022790573 0.031689857 -0.023893979
v -0.022566527 0.0312456 -0.049344961
v -0.022378507 0.014870176 -0.070702281
v -0.02249053 0.015092304 -0.057976789
v -0.022488083 0.031090054 -0.058256015
v -0.02237606 0.030867925 -0.070981507
v -0.022881034 0.015866629 -0.013616664
v -0.022993057 0.016088757 -0.00089117315
v -0.02299061 0.032086507 -0.0011703989
v -0.022878587 0.031864378 -0.013895889
v -0.01922514 0.015557242 -0.031310389
v -0.019226134 0.009058418 -0.031196958
v -0.019614984 0.0098294633 0.012975319
v -0.01961399 0.016328287 0.012861888
f 2 3 1
f 1 3 4
f 6 7 5
f 5 7 8
f 10 11 9
f 9 11 12
f 14 15 13
f 13 15 16
f 18 19 17
f 17 19 20
f 21 22 24
f 24 22 23
f 26 27 25
f 25 27 28
f 30 31 29
f 29 31 32
f 34 35 33
f 33 35 36
f 38 39 37
f 37 39 40
f 42 43 41
f 41 43 44
f 46 47 45
f 45 47 48
f 49 50 56
f 56 50 51
f 56 51 55
f 55 51 52
f 55 52 54
f 54 52 53
f 58 59 57
f 57 59 60
f 61 62 68
f 68 62 63
f 68 63 67
f 67 63 64
f 67 64 66
f 66 64 65
f 70 71 69
f 69 71 72
f 74 75 73
f 73 75 76
f 78 79 77
f 77 79 80
f 81 82 84
f 84 82 83
f 86 87 85
f 85 87 88
f 90 91 89
f 89 91 92
f 94 95 93
f 93 95 96
f 97 98 104
f 104 98 99
f 104 99 103
f 103 99 100
f 103 100 102
f 102 100 101
f 106 107 105
f 105 107 108
f 110 111 109
f 109 111 112
f 114 115 113
f 113 115 116
f 118 119 117
f 117 119 120
f 122 123 121
f 121 123 124
f 126 127 125
f 125 127 128
f 130 131 129
f 129 131 132
f 133 134 140
f 140 134 135
f 140 135 139
f 139 135 136
f 139 136 138
f 138 136 137
f 142 143 141
f 141 143 144
f 146 147 145
f 145 147 148
f 154 149 153
f 153 149 150
f 153 150 151
f 151 152 153
f 156 157 155
f 155 157 158
f 160 161 159
f 159 161 162
f 164 165 163
f 163 165 166
f 168 169 167
f 167 169 170
f 172 173 171
f 171 173 174
f 176 177 175
f 175 177 178
f 180 181 179
f 179 181 182
f 183 184 190
f 190 184 185
f 190 185 189
f 189 185 186
f 189 186 188
f 188 186 187
f 192 193 191
f 191 193 194
f 195 196 198
f 198 196 197
f 200 201 199
f 199 201 202
f 204 205 203
f 203 205 206
f 208 209 207
f 207 209 210
f 212 213 211
f 211 213 214
f 216 217 215
f 215 217 218
f 220 221 219
f 219 221 222
f 224 225 223
f 223 225 226
f 227 228 234
f 234 228 229
f 234 229 233
f 233 229 230
f 233 230 232
f 232 230 231
f 235 236 242
f 242 236 237
f 242 237 241
f 241 237 238
f 241 238 240
f 240 238 239
f 244 245 243
f 243 245 246
f 248 249 247
f 247 249 250
f 251 252 254
f 254 252 253
f 256 257 255
f 255 257 258
f 260 261 259
f 259 261 262
f 264 265 263
f 263 265 266
f 267 268 274
f 274 268 269
f 274 269 273
f 273 269 270
f 273 270 272
f 272 270 271
f 279 275 278
f 278 275 276
f 278 276 277
f 281 282 280
f 280 282 283
f 284 285 287
f 287 285 286
f 289 290 288
f 288 290 291
f 293 294 292
f 292 294 295
f 297 298 296
f 296 298 299
f 301 302 300
f 300 302 303
f 304 305 311
f 311 305 306
f 311 306 310
f 310 306 307
f 310 307 309
f 309 307 308
f 312 313 315
f 315 313 314
f 317 318 316
f 316 318 319
f 321 322 320
f 320 322 323
f 325 326 324
f 324 326 327
f 328 329 335
f 335 329 330
f 335 330 334
f 334 330 331
f 334 331 333
f 333 331 332
f 336 337 341
f 341 337 338
f 341 338 339
f 339 340 341
f 343 344 342
f 342 344 345
f 346 347 349
f 349 347 348
f 351 352 350
f 350 352 353
f 355 356 354
f 354 356 357
f 358 359 361
f 361 359 360
f 363 364 362
f 362 364 365
f 366 367 373
f 373 367 368
f 373 368 372
f 372 368 369
f 372 369 371
f 371 369 370
f 375 376 374
f 374 376 377
f 378 379 382
f 382 379 381
f 381 379 380
f 383 384 386
f 386 384 385
f 388 389 387
f 387 389 390
f 391 392 398
f 398 392 393
f 398 393 397
f 397 393 394
f 397 394 396
f 396 394 395
f 399 400 402
f 402 400 401
f 404 405 403
f 403 405 408
f 408 405 407
f 407 405 406
f 410 411 409
f 409 411 412
f 413 414 416
f 416 414 415
f 418 419 417
f 417 419 420
f 422 423 421
f 421 423 424
f 426 427 425
f 425 427 428
f 430 431 429
f 429 431 432
f 433 434 440
f 440 434 435
f 440 435 439
f 439 435 436
f 439 436 438
f 438 436 437
f 442 443 441
f 441 443 444
f 452 445 451
f 451 445 446
f 451 446 447
f 448 449 447
f 447 449 450
f 447 450 451
f 453 454 459
f 459 454 458
f 458 454 455
f 458 455 457
f 457 455 456
f 460 461 463
f 463 461 462
f 464 465 467
f 467 465 466
f 469 470 468
f 468 470 471
f 472 473 479
f 479 473 474
f 479 474 478
f 478 474 475
f 478 475 477
f 477 475 476
f 481 482 480
f 480 482 492
f 492 482 483
f 492 483 491
f 491 483 488
f 491 488 489
f 483 484 488
f 488 484 487
f 487 484 485
f 487 485 486
f 489 490 491
f 493 494 497
f 497 494 496
f 496 494 495
f 499 500 498
f 498 500 501
f 498 501 502
f 502 503 498
f 504 505 507
f 507 505 506
f 508 509 511
f 511 509 510
f 512 513 515
f 515 513 514
f 516 517 519
f 519 517 518
f 520 521 527
f 527 521 522
f 527 522 526
f 526 522 523
f 526 523 525
f 525 523 524
f 532 528 531
f 531 528 529
f 531 529 530
f 534 536 533
f 533 536 537
f 533 537 538
f 534 535 536
f 546 539 545
f 545 539 540
f 545 540 541
f 542 543 541
f 541 543 544
f 541 544 545
f 548 552 547
f 547 552 553
f 547 553 554
f 549 550 548
f 548 550 551
f 548 551 552
f 555 556 558
f 558 556 557
f 559 560 566
f 566 560 561
f 566 561 565
f 565 561 562
f 565 562 564
f 564 562 563
f 568 569 567
f 567 569 584
f 567 584 586
f 586 584 585
f 569 570 584
f 584 570 583
f 583 570 578
f 583 578 582
f 582 578 579
f 582 579 581
f 581 579 580
f 571 572 570
f 570 572 577
f 570 577 578
f 572 573 577
f 577 573 576
f 576 573 574
f 576 574 575
f 587 588 590
f 590 588 589
f 591 592 599
f 599 592 598
f 598 592 593
f 598 593 597
f 597 593 596
f 596 593 594
f 596 594 595
f 600 601 603
f 603 601 602
f 604 605 610
f 610 605 606
f 610 606 609
f 609 606 607
f 609 607 608
f 611 612 614
f 614 612 613
f 620 615 618
f 618 615 616
f 618 616 617
f 618 619 620
f 626 621 625
f 625 621 622
f 625 622 624
f 624 622 623
f 627 628 633
f 633 628 632
f 632 628 629
f 632 629 631
f 631 629 630
f 634 635 637
f 637 635 636
f 638 639 645
f 645 639 640
f 645 640 644
f 644 640 641
f 644 641 643
f 643 641 642
f 646 647 653
f 653 647 652
f 652 647 649
f 652 649 651
f 651 649 650
f 647 648 649
f 654 655 658
f 658 655 657
f 657 655 656
f 660 661 659
f 659 661 662
f 668 663 666
f 666 663 664
f 666 664 665
f 666 667 668
f 670 671 669
f 669 671 672
f 669 672 673
f 673 674 669
f 676 678 675
f 675 678 679
f 675 679 681
f 681 679 680
f 676 677 678
f 683 688 682
f 682 688 689
f 682 689 691
f 691 689 690
f 684 686 683
f 683 686 687
f 683 687 688
f 684 685 686
f 692 693 695
f 695 693 694
f 696 697 703
f 703 697 698
f 703 698 702
f 702 698 699
f 702 699 701
f 701 699 700
f 704 705 707
f 707 705 706
f 708 709 710
f 711 712 714
f 714 712 713
f 715 716 718
f 718 716 717
f 720 749 719
f 719 749 747
f 719 747 743
f 743 747 742
f 742 747 741
f 741 747 748
f 741 748 751
f 751 748 750
f 750 748 749
f 750 749 723
f 723 749 722
f 722 749 721
f 721 749 720
f 750 723 752
f 752 723 724
f 752 724 886
f 886 724 744
f 886 744 885
f 885 744 745
f 885 745 811
f 811 745 757
f 811 757 810
f 810 757 805
f 810 805 809
f 809 805 808
f 808 805 807
f 807 805 806
f 744 724 746
f 746 724 725
f 746 725 754
f 754 725 726
f 754 726 753
f 753 726 727
f 753 727 871
f 871 727 728
f 871 728 870
f 870 728 865
f 870 865 869
f 869 865 868
f 868 865 867
f 867 865 866
f 729 858 728
f 728 858 859
f 728 859 864
f 864 859 863
f 863 859 862
f 862 859 861
f 861 859 860
f 730 732 729
f 729 732 846
f 729 846 847
f 730 731 732
f 733 761 732
f 732 761 840
f 732 840 841
f 734 735 733
f 733 735 736
f 733 736 761
f 761 736 760
f 760 736 737
f 760 737 786
f 786 737 781
f 786 781 784
f 784 781 783
f 783 781 782
f 781 737 780
f 780 737 738
f 780 738 775
f 775 738 774
f 774 738 769
f 774 769 773
f 773 769 772
f 772 769 771
f 771 769 770
f 769 738 768
f 768 738 739
f 768 739 823
f 823 739 822
f 822 739 817
f 822 817 818
f 817 739 816
f 816 739 740
f 816 740 811
f 811 740 885
f 885 740 884
f 884 740 741
f 884 741 751
f 757 745 755
f 755 745 746
f 755 746 754
f 884 751 752
f 757 755 756
f 756 755 753
f 756 753 876
f 876 753 871
f 876 871 874
f 874 871 873
f 873 871 872
f 757 758 805
f 805 758 804
f 804 758 799
f 804 799 803
f 803 799 802
f 802 799 801
f 801 799 800
f 758 759 799
f 799 759 798
f 798 759 793
f 798 793 794
f 793 759 792
f 792 759 760
f 792 760 787
f 787 760 786
f 840 761 835
f 835 761 762
f 835 762 834
f 834 762 829
f 834 829 833
f 833 829 832
f 832 829 831
f 831 829 830
f 829 762 828
f 828 762 763
f 828 763 883
f 883 763 882
f 882 763 756
f 882 756 877
f 877 756 876
f 823 764 768
f 768 764 765
f 768 765 766
f 766 767 768
f 776 777 775
f 775 777 778
f 775 778 779
f 779 780 775
f 784 785 786
f 787 788 792
f 792 788 789
f 792 789 790
f 790 791 792
f 794 795 798
f 798 795 796
f 798 796 797
f 812 813 811
f 811 813 814
f 811 814 816
f 816 814 815
f 818 819 822
f 822 819 820
f 822 820 821
f 883 824 828
f 828 824 825
f 828 825 826
f 826 827 828
f 836 837 835
f 835 837 838
f 835 838 839
f 839 840 835
f 842 843 841
f 841 843 844
f 841 844 846
f 846 844 845
f 729 847 852
f 852 847 848
f 852 848 849
f 849 850 852
f 852 850 851
f 852 853 729
f 729 853 858
f 853 854 858
f 858 854 855
f 858 855 856
f 856 857 858
f 864 865 728
f 874 875 876
f 877 878 882
f 882 878 879
f 882 879 880
f 880 881 882
f 752 886 884
f 732 841 846
f 887 888 890
f 890 888 889
f 891 892 894
f 894 892 893
f 895 896 902
f 902 896 897
f 902 897 901
f 901 897 898
f 901 898 900
f 900 898 899
f 903 904 907
f 907 904 905
f 907 905 906
f 916 908 915
f 915 908 909
f 915 909 914
f 914 909 913
f 913 909 910
f 913 910 912
f 912 910 911
f 918 919 917
f 917 919 920
f 921 922 924
f 924 922 923
f 925 926 928
f 928 926 927
f 929 930 932
f 932 930 931
f 933 934 940
f 940 934 935
f 940 935 939
f 939 935 936
f 939 936 938
f 938 936 937
f 942 950 941
f 941 950 951
f 941 951 969
f 969 951 968
f 968 951 963
f 968 963 967
f 967 963 966
f 966 963 965
f 965 963 964
f 943 1077 942
f 942 1077 1022
f 942 1022 1023
f 944 1065 943
f 943 1065 1070
f 943 1070 1071
f 945 954 944
f 944 954 955
f 944 955 1059
f 1059 955 1058
f 1058 955 1053
f 1058 1053 1057
f 1057 1053 1056
f 1056 1053 1055
f 1055 1053 1054
f 946 998 945
f 945 998 999
f 945 999 1004
f 1004 999 1002
f 1004 1002 1003
f 947 986 946
f 946 986 987
f 946 987 992
f 992 987 991
f 991 987 990
f 990 987 989
f 989 987 988
f 948 975 947
f 947 975 980
f 947 980 981
f 975 948 974
f 974 948 949
f 974 949 941
f 951 952 963
f 963 952 962
f 962 952 1017
f 962 1017 961
f 961 1017 960
f 960 1017 959
f 959 1017 958
f 952 953 1017
f 1017 953 1016
f 1016 953 1011
f 1016 1011 1012
f 1011 953 1010
f 1010 953 954
f 1010 954 1005
f 1005 954 1004
f 1004 954 945
f 955 956 1053
f 1053 956 1052
f 1052 956 1047
f 1052 1047 1051
f 1051 1047 1050
f 1050 1047 1049
f 1049 1047 1048
f 1047 956 1046
f 1046 956 957
f 1046 957 1041
f 1041 957 1040
f 1040 957 950
f 1040 950 1035
f 1035 950 1034
f 1034 950 942
f 1034 942 1029
f 1029 942 1028
f 1028 942 1023
f 1028 1023 1027
f 1027 1023 1026
f 1026 1023 1025
f 1025 1023 1024
f 970 971 969
f 969 971 972
f 969 972 974
f 974 972 973
f 975 976 980
f 980 976 977
f 980 977 978
f 978 979 980
f 947 981 986
f 986 981 982
f 986 982 983
f 983 984 986
f 986 984 985
f 992 993 946
f 946 993 998
f 994 995 993
f 993 995 996
f 993 996 997
f 997 998 993
f 1000 1001 999
f 999 1001 1002
f 1005 1006 1010
f 1010 1006 1007
f 1010 1007 1008
f 1008 1009 1010
f 1012 1013 1016
f 1016 1013 1014
f 1016 1014 1015
f 1018 1019 1077
f 1077 1019 1020
f 1077 1020 1021
f 1021 1022 1077
f 1030 1031 1029
f 1029 1031 1032
f 1029 1032 1034
f 1034 1032 1033
f 1035 1036 1040
f 1040 1036 1037
f 1040 1037 1038
f 1038 1039 1040
f 1041 1042 1046
f 1046 1042 1043
f 1046 1043 1044
f 1044 1045 1046
f 1060 1061 1059
f 1059 1061 1062
f 1059 1062 1064
f 1064 1062 1063
f 1059 1064 944
f 944 1064 1065
f 1065 1066 1070
f 1070 1066 1067
f 1070 1067 1068
f 1068 1069 1070
f 943 1071 1076
f 1076 1071 1072
f 1076 1072 1073
f 1073 1074 1076
f 1076 1074 1075
f 1076 1077 943
f 974 941 969
f 1079 1083 1078
f 1078 1083 1081
f 1078 1081 1096
f 1096 1081 1090
f 1096 1090 1095
f 1095 1090 1094
f 1094 1090 1091
f 1094 1091 1093
f 1093 1091 1110
f 1110 1091 1092
f 1110 1092 1107
f 1107 1092 1106
f 1106 1092 1105
f 1105 1092 1082
f 1105 1082 1104
f 1104 1082 1103
f 1103 1082 1083
f 1103 1083 1102
f 1102 1083 1079
f 1102 1079 1085
f 1085 1079 1080
f 1085 1080 1084
f 1084 1080 1097
f 1084 1097 1087
f 1087 1097 1098
f 1087 1098 1089
f 1089 1098 1099
f 1089 1099 1100
f 1097 1080 1078
f 1081 1082 1090
f 1090 1082 1092
f 1102 1085 1086
f 1084 1087 1086
f 1086 1087 1088
f 1086 1088 1101
f 1101 1088 1100
f 1100 1088 1089
f 1096 1097 1078
f 1101 1102 1086
f 1108 1109 1107
f 1107 1109 1110
f 1111 1112 1114
f 1114 1112 1113
f 1115 1116 1120
f 1120 1116 1119
f 1119 1116 1118
f 1118 1116 1117
f 1121 1122 1124
f 1124 1122 1123
f 1125 1126 1138
f 1138 1126 1137
f 1137 1126 1127
f 1137 1127 1136
f 1136 1127 1128
f 1136 1128 1135
f 1135 1128 1129
f 1135 1129 1134
f 1134 1129 1132
f 1134 1132 1133
f 1130 1131 1129
f 1129 1131 1132
f 1139 1140 1142
f 1142 1140 1141
f 1143 1144 1146
f 1146 1144 1145
f 1147 1148 1150
f 1150 1148 1149
f 1152 1153 1151
f 1151 1153 1154
