v -0.035166961 -0.017140103 -0.059842946
v -0.031442218 -0.01720454 -0.063502126
v -0.031443441 -0.025203322 -0.063362515
v -0.03516875 -0.02883071 -0.059638897
v -0.035834108 -0.015887685 0.011906308
v -0.022994656 -0.016109805 -0.0007071425
v -0.022997103 -0.032107368 -0.00042792
v -0.035836555 -0.031885248 0.012185531
v -0.012674151 -0.0092537052 0.019728716
v -0.012677592 -0.031750279 0.020121372
v -0.011677631 -0.031750278 0.020130175
v -0.011674189 -0.0092537046 0.019737519
v -0.026195974 -0.017693195 -0.091452761
v -0.03119578 -0.017693198 -0.091496774
v -0.029151071 -0.022155207 -0.091400888
v -0.02888221 -0.022411103 -0.091394055
v -0.028510987 -0.022411103 -0.091390787
v -0.028242047 -0.022155206 -0.091392886
v -0.016836721 -0.0097435802 -0.0083742967
v -0.016840162 -0.032240153 -0.0079816401
v -0.016522787 -0.032256751 -0.0089297947
v -0.016519345 -0.0097601779 -0.0093224514
v -0.035834108 -0.015887685 0.011906308
v -0.035610062 -0.016331942 -0.013544672
v -0.022994656 -0.016109805 -0.0007071425
v -0.022950649 -0.016197065 -0.0057061867
v -0.035566055 -0.016419202 -0.018543717
v -0.022726603 -0.016641323 -0.031157169
v -0.023038662 -0.016022545 0.0042919026
v -0.023150685 -0.015800416 0.017017393
v -0.035878114 -0.015800424 0.016905353
v -0.039055331 -0.016979679 -0.050685833
v -0.039570143 -0.015958865 0.0077954285
v -0.038167278 -0.015817468 0.015908784
v -0.033995907 -0.015694196 0.023008011
v -0.027590776 -0.015604851 0.028183032
v -0.01977298 -0.015560886 0.030770442
v -0.019771618 -0.015560886 0.030770454
v -0.01938277 -0.016331928 -0.013401644
v -0.019056105 -0.016979666 -0.05050978
v -0.019469439 -0.017038386 -0.05387768
v -0.020740499 -0.017093106 -0.057023866
v -0.022782664 -0.017140095 -0.059733927
v -0.026442411 -0.017204537 -0.063458113
v -0.026266384 -0.017553578 -0.083454287
v -0.031266191 -0.017553582 -0.083498301
v -0.031442218 -0.01720454 -0.063502126
v -0.035166961 -0.017140103 -0.059842946
v -0.03725652 -0.017093117 -0.057169257
v -0.038582769 -0.017038399 -0.054045935
v -0.022682596 -0.016728583 -0.036156212
v -0.035522048 -0.016506463 -0.023542762
v -0.035307572 -0.016931746 -0.04790671
v -0.022648159 -0.016796869 -0.040068223
v -0.035263565 -0.017019006 -0.052905755
v -0.022536136 -0.017018998 -0.052793715
v -0.011745123 -0.0091130511 0.02779539
v -0.011748565 -0.031609624 0.028188047
v -0.011765644 -0.031575757 0.030128264
v -0.011762203 -0.0090791838 0.029735607
v -0.0073181534 -0.0097601718 -0.009241453
v -0.007321595 -0.032256745 -0.0088487964
v -0.0070209606 -0.032240147 -0.0078952014
v -0.007017519 -0.0097435737 -0.0082878581
v -0.0088683347 -0.0097331093 -0.0077045438
v -0.0088717763 -0.032229683 -0.0073118871
v -0.0088426983 -0.032224225 -0.0069989509
v -0.0088454648 -0.032218739 -0.0066846787
v -0.0088800475 -0.032213282 -0.0063723029
v -0.0088766059 -0.0097167085 -0.0067649595
v -0.0088420232 -0.009722166 -0.0070773353
v -0.0088392567 -0.0097276518 -0.0073916075
v -0.019771986 -0.0090618763 0.030657008
v -0.01977298 -0.015560886 0.030770442
v -0.027590776 -0.015604851 0.028183032
v -0.033995907 -0.015694196 0.023008011
v -0.038167278 -0.015817468 0.015908784
v -0.039570143 -0.015958865 0.0077954285
v -0.039572591 -0.031956428 0.008074651
v -0.037899356 -0.031802819 0.0168901
v -0.032979449 -0.031672593 0.0243943
v -0.025561882 -0.031585576 0.029444805
v -0.016775913 -0.031555015 0.031272719
v -0.016772471 -0.0090584419 0.030880062
v -0.017775237 -0.0090588245 0.030849357
v -0.01877571 -0.00905997 0.030774959
v -0.012748526 -0.031609625 0.028179244
v -0.012745084 -0.0091130518 0.027786587
v -0.012762164 -0.0090791845 0.029726804
v -0.012765606 -0.031575758 0.030119461
v -0.022682596 -0.016728583 -0.036156212
v -0.035307572 -0.016931746 -0.04790671
v -0.035310019 -0.032929309 -0.047627487
v -0.022685044 -0.032726147 -0.035876989
v -0.0086262438 -0.0096594427 -0.0034818186
v -0.0086296854 -0.032156016 -0.003089162
v -0.0094438442 -0.032145758 -0.0025086105
v -0.0094404026 -0.0096491851 -0.0029012672
v -0.0097530308 -0.0096868426 -0.0050615279
v -0.0097564724 -0.032183416 -0.0046688713
v -0.0086296854 -0.032156016 -0.003089162
v -0.0086262438 -0.0096594427 -0.0034818186
v -0.026178371 -0.017728099 -0.093452377
v -0.031178177 -0.017728103 -0.09349639
v -0.03119578 -0.017693198 -0.091496774
v -0.026195974 -0.017693195 -0.091452761
v -0.012466883 -0.032168091 -0.0038146422
v -0.012463441 -0.0096715182 -0.0042072988
v -0.012480521 -0.0096376509 -0.0022670818
v -0.012483962 -0.032134224 -0.0018744252
v -0.035522048 -0.016506463 -0.023542762
v -0.022682596 -0.016728583 -0.036156212
v -0.022685044 -0.032726147 -0.035876989
v -0.035524496 -0.032504026 -0.02326354
v -0.010800091 -0.0092147685 0.021975951
v -0.010803533 -0.031711342 0.022368608
v -0.0096491098 -0.03173874 0.02080898
v -0.0096456682 -0.009242167 0.020416323
v -0.023150685 -0.015800416 0.017017393
v -0.023038662 -0.016022545 0.0042919026
v -0.02304111 -0.032020108 0.0045711251
v -0.023153133 -0.031797979 0.017296616
v -0.022994656 -0.016109805 -0.0007071425
v -0.035610062 -0.016331942 -0.013544672
v -0.035612509 -0.032329506 -0.01326545
v -0.022997103 -0.032107368 -0.00042792
v -0.012409587 -0.0097783044 -0.010324953
v -0.012413029 -0.032274878 -0.0099322966
v -0.012395949 -0.032308745 -0.011872514
v -0.012392507 -0.0098121717 -0.01226517
v -0.029151071 -0.022155207 -0.091400888
v -0.03119578 -0.017693198 -0.091496774
v -0.031266191 -0.017553582 -0.083498301
v -0.029221482 -0.02201559 -0.083402415
v -0.014509042 -0.0096491885 -0.0029458865
v -0.014512483 -0.032145762 -0.0025532299
v -0.015316296 -0.03215602 -0.0031480243
v -0.015312854 -0.0096594471 -0.003540681
v -0.0096456682 -0.009242167 0.020416323
v -0.0096491098 -0.03173874 0.02080898
v -0.0088452976 -0.031728482 0.021403774
v -0.008841856 -0.0092319084 0.021011118
v -0.014682527 -0.032246284 -0.0083139878
v -0.014679085 -0.0097497111 -0.0087066444
v -0.016519345 -0.0097601779 -0.0093224514
v -0.016522787 -0.032256751 -0.0089297947
v -0.0005882124 -0.028126099 -0.0013395737
v -0.00058760056 -0.024126708 -0.0014093793
v 0.00032028613 -0.024142415 -0.0023012853
v 0.00031967428 -0.028141805 -0.0022314797
v -0.012392507 -0.0098121717 -0.01226517
v -0.012395949 -0.032308745 -0.011872514
v -0.011395988 -0.032308744 -0.011863711
v -0.011392546 -0.009812171 -0.012256368
v -0.0044874493 -0.024126711 -0.0014437098
v -0.00058760056 -0.024126708 -0.0014093793
v -0.0005882124 -0.028126099 -0.0013395737
v -0.0044880612 -0.028126102 -0.0013739041
v -0.0056063056 -0.024391032 0.012053634
v 0.00044627034 -0.024495741 0.006107596
v 0.0004550717 -0.024513193 0.0051077871
v -0.0045447346 -0.024513196 0.0050637737
v -0.0055446961 -0.024513197 0.005054971
v 0.00053370262 -0.028469683 -0.0038241777
v 0.00057770938 -0.028556943 -0.0088232225
v 0.00057836711 -0.024257598 -0.0088982636
v 0.00053436035 -0.024170338 -0.0038992187
v -0.038062185 -0.033062491 -0.055282064
v -0.01996816 -0.033062479 -0.055122782
v -0.019455793 -0.033034855 -0.053535572
v -0.019150918 -0.033006281 -0.051895829
v -0.019058553 -0.032977229 -0.050230557
v -0.019385217 -0.032329492 -0.013122422
v -0.0035743452 -0.032329481 -0.012983238
v -0.0030901482 -0.032320955 -0.012490517
v -0.00316672 -0.032169122 -0.0037921774
v -0.0044666696 -0.032169123 -0.0038036209
v -0.0045458818 -0.032012054 0.0051946592
v -0.0032459322 -0.032012053 0.0052061027
v -0.0032872986 -0.031930029 0.0099052049
v -0.0056074528 -0.03188989 0.012184519
v -0.0057497845 -0.031607663 0.028353003
v -0.0087933439 -0.03155501 0.031342989
v -0.016775913 -0.031555015 0.031272719
v -0.025561882 -0.031585576 0.029444805
v -0.032979449 -0.031672593 0.0243943
v -0.037899356 -0.031802819 0.0168901
v -0.039572591 -0.031956428 0.008074651
v -0.039057778 -0.032977243 -0.050406611
v -0.038936112 -0.033006294 -0.052069999
v -0.038602415 -0.033034867 -0.05370412
v -0.02272905 -0.032638886 -0.030877947
v -0.035568502 -0.032416766 -0.018264495
v -0.022953096 -0.032194629 -0.0054269642
v -0.022997103 -0.032107368 -0.00042792
v -0.035612509 -0.032329506 -0.01326545
v -0.035836555 -0.031885248 0.012185531
v -0.035524496 -0.032504026 -0.02326354
v -0.022685044 -0.032726147 -0.035876989
v -0.035310019 -0.032929309 -0.047627487
v -0.02304111 -0.032020108 0.0045711251
v -0.035880562 -0.031797988 0.017184576
v -0.023153133 -0.031797979 0.017296616
v -0.035266012 -0.033016569 -0.052626532
v -0.022650606 -0.032794432 -0.039789001
v -0.022538583 -0.033016561 -0.052514492
v -0.017018993 -0.032064419 0.002085199
v -0.017142212 -0.03182009 0.016082524
v -0.015159893 -0.031785184 0.018099747
v -0.0091601249 -0.03178518 0.018152563
v -0.0071425998 -0.031820083 0.016170551
v -0.0070193809 -0.032064412 0.0021732258
v -0.0090017006 -0.032099318 0.00015600264
v -0.015001468 -0.032099322 0.00010318654
v -0.010803533 -0.031711342 0.022368608
v -0.011089979 -0.031713557 0.022239193
v -0.01138806 -0.031715252 0.022139446
v -0.011694711 -0.031716411 0.022070392
v -0.011677631 -0.031750278 0.020130175
v -0.012677592 -0.031750279 0.020121372
v -0.012694672 -0.031716411 0.02206159
v -0.013002491 -0.031715253 0.022125234
v -0.013302282 -0.031713558 0.022219718
v -0.013590962 -0.031711344 0.02234407
v -0.014717749 -0.031738744 0.020764361
v -0.015531908 -0.031728486 0.021344912
v -0.014405121 -0.031701086 0.022924621
v -0.014616737 -0.031696998 0.023157014
v -0.014803727 -0.03169256 0.02340964
v -0.01496417 -0.031687818 0.023679898
v -0.01680443 -0.031698285 0.023064093
v -0.017121806 -0.031681687 0.024012247
v -0.015281546 -0.03167122 0.024628053
v -0.015316128 -0.031665763 0.024940429
v -0.015318895 -0.031660277 0.025254701
v -0.015289817 -0.031654819 0.025567637
v -0.017140633 -0.031644355 0.026150951
v -0.016839998 -0.031627757 0.027104546
v -0.014989182 -0.031638221 0.026521232
v -0.014833522 -0.031633479 0.026794275
v -0.014651008 -0.031629041 0.027050152
v -0.014443516 -0.031624952 0.027286235
v -0.015597939 -0.031597554 0.028845863
v -0.014794127 -0.031587295 0.029440659
v -0.013639704 -0.031614694 0.02788103
v -0.013353258 -0.031612479 0.028010445
v -0.013055177 -0.031610783 0.028110192
v -0.012748526 -0.031609625 0.028179244
v -0.012765606 -0.031575758 0.030119461
v -0.011765644 -0.031575757 0.030128264
v -0.011748565 -0.031609624 0.028188047
v -0.011440745 -0.031610782 0.028124404
v -0.011140955 -0.031612477 0.02802992
v -0.010852275 -0.031614692 0.027905567
v -0.0097254875 -0.031587292 0.029485278
v -0.0089113287 -0.031597549 0.028904725
v -0.010038116 -0.031624949 0.027325016
v -0.0098264998 -0.031629038 0.027092622
v -0.0096395091 -0.031633476 0.026839998
v -0.0094790664 -0.031638218 0.026569738
v -0.0076388066 -0.031627751 0.027185545
v -0.007321431 -0.031644349 0.02623739
v -0.0091616908 -0.031654815 0.025621583
v -0.0091271081 -0.031660273 0.025309207
v -0.0091243416 -0.031665759 0.024994935
v -0.0091534196 -0.031671216 0.024681999
v -0.0073026039 -0.031681681 0.024098686
v -0.0076032383 -0.031698279 0.023145091
v -0.009454054 -0.031687814 0.023728404
v -0.0096097141 -0.031692556 0.023455363
v -0.0097922284 -0.031696994 0.023199484
v -0.0099997203 -0.031701083 0.022963402
v -0.0088452976 -0.031728482 0.021403774
v -0.0096491098 -0.03173874 0.02080898
v -0.010521889 -0.032269808 -0.0096252796
v -0.010808335 -0.032272023 -0.0097546946
v -0.011106416 -0.032273719 -0.0098544417
v -0.011413067 -0.032274877 -0.0099234939
v -0.011395988 -0.032308744 -0.011863711
v -0.012395949 -0.032308745 -0.011872514
v -0.012413029 -0.032274878 -0.0099322966
v -0.012720848 -0.03227372 -0.0098686536
v -0.013020639 -0.032272025 -0.0097741696
v -0.013309319 -0.03226981 -0.0096498174
v -0.014436106 -0.03229721 -0.011229528
v -0.015250264 -0.032286953 -0.010648975
v -0.014123478 -0.032259553 -0.009069266
v -0.014335093 -0.032255464 -0.0088368722
v -0.014522084 -0.032251026 -0.0085842476
v -0.014682527 -0.032246284 -0.0083139878
v -0.016522787 -0.032256751 -0.0089297947
v -0.016840162 -0.032240153 -0.0079816401
v -0.014999902 -0.032229687 -0.0073658332
v -0.015034485 -0.032224229 -0.0070534573
v -0.015037252 -0.032218743 -0.0067391851
v -0.015008174 -0.032213286 -0.0064262489
v -0.016858989 -0.032202822 -0.0058429358
v -0.016558355 -0.032186223 -0.0048893408
v -0.014707539 -0.032196688 -0.0054726539
v -0.014551879 -0.032191946 -0.0051996127
v -0.014369365 -0.032187508 -0.0049437341
v -0.014161873 -0.032183419 -0.0047076521
v -0.015316296 -0.03215602 -0.0031480243
v -0.014512483 -0.032145762 -0.0025532299
v -0.013358061 -0.03217316 -0.0041128576
v -0.013071615 -0.032170945 -0.0039834426
v -0.012773534 -0.03216925 -0.0038836955
v -0.012466883 -0.032168091 -0.0038146422
v -0.012483962 -0.032134224 -0.0018744252
v -0.011484001 -0.032134224 -0.0018656225
v -0.011466921 -0.032168091 -0.0038058395
v -0.011159102 -0.032169249 -0.0038694837
v -0.010859311 -0.032170944 -0.0039639677
v -0.010570631 -0.032173158 -0.0040883198
v -0.0094438442 -0.032145758 -0.0025086105
v -0.0086296854 -0.032156016 -0.003089162
v -0.0097564724 -0.032183416 -0.0046688713
v -0.0095448565 -0.032187504 -0.0049012638
v -0.0093578658 -0.032191942 -0.0051538897
v -0.0091974231 -0.032196684 -0.0054241483
v -0.0073571633 -0.032186217 -0.0048083425
v -0.0070397877 -0.032202815 -0.0057564971
v -0.0088800475 -0.032213282 -0.0063723029
v -0.0088454648 -0.032218739 -0.0066846787
v -0.0088426983 -0.032224225 -0.0069989509
v -0.0088717763 -0.032229683 -0.0073118871
v -0.0070209606 -0.032240147 -0.0078952014
v -0.007321595 -0.032256745 -0.0088487964
v -0.0091724107 -0.032246281 -0.0082654821
v -0.0093280708 -0.032251023 -0.0085385245
v -0.0095105851 -0.032255461 -0.008794402
v -0.009718077 -0.03225955 -0.0090304851
v -0.0085636543 -0.032286948 -0.010590113
v -0.0093674665 -0.032297207 -0.011184909
v 0.00051966634 -0.028141805 -0.0022297191
v 0.00050294377 -0.028108646 -0.00033008211
v -0.0044968625 -0.02810865 -0.00037409552
v -0.0044880612 -0.028126102 -0.0013739041
v -0.0005882124 -0.028126099 -0.0013395737
v 0.00031967428 -0.028141805 -0.0022314797
v -0.014443516 -0.031624952 0.027286235
v -0.014440075 -0.0091283791 0.026893579
v -0.015594497 -0.0091009806 0.028453206
v -0.015597939 -0.031597554 0.028845863
v -0.010848833 -0.0091181186 0.027512911
v -0.010852275 -0.031614692 0.027905567
v -0.011140955 -0.031612477 0.02802992
v -0.011440745 -0.031610782 0.028124404
v -0.011748565 -0.031609624 0.028188047
v -0.011745123 -0.0091130511 0.02779539
v -0.011437304 -0.009114209 0.027731747
v -0.011137513 -0.009115904 0.027637263
v -0.022536136 -0.017018998 -0.052793715
v -0.035263565 -0.017019006 -0.052905755
v -0.035266012 -0.033016569 -0.052626532
v -0.022538583 -0.033016561 -0.052514492
v -0.0091566833 -0.0092886071 0.017759907
v -0.0091601249 -0.03178518 0.018152563
v -0.015159893 -0.031785184 0.018099747
v -0.015156451 -0.0092886111 0.017707091
v -0.026012369 -0.02605847 -0.11230914
v -0.026141938 -0.026067197 -0.11281023
v -0.026504727 -0.026073585 -0.1131794
v -0.027003529 -0.026075923 -0.11331775
v -0.027002639 -0.020258551 -0.11341928
v -0.026011145 -0.018059689 -0.11244875
v -0.014704098 -0.0097001145 -0.0058653106
v -0.014707539 -0.032196688 -0.0054726539
v -0.016558355 -0.032186223 -0.0048893408
v -0.016554913 -0.0096896501 -0.0052819975
v -0.013354619 -0.0096765869 -0.0045055143
v -0.013358061 -0.03217316 -0.0041128576
v -0.014512483 -0.032145762 -0.0025532299
v -0.014509042 -0.0096491885 -0.0029458865
v -0.019056105 -0.016979666 -0.05050978
v -0.01938277 -0.016331928 -0.013401644
v -0.019385217 -0.032329492 -0.013122422
v -0.019058553 -0.032977229 -0.050230557
v -0.011413067 -0.032274877 -0.0099234939
v -0.011409626 -0.0097783037 -0.010316151
v -0.011392546 -0.009812171 -0.012256368
v -0.011395988 -0.032308744 -0.011863711
v -0.029133469 -0.022190111 -0.093400504
v -0.028864607 -0.022446007 -0.093393671
v -0.028493385 -0.022446007 -0.093390403
v -0.028224445 -0.02219011 -0.093392502
v -0.028048418 -0.022539152 -0.11338868
v -0.028317358 -0.022795049 -0.11338658
v -0.02868858 -0.022795049 -0.11338985
v -0.028957442 -0.022539152 -0.11339668
v -0.0094790664 -0.031638218 0.026569738
v -0.0094756248 -0.0091416444 0.026177081
v -0.007635365 -0.0091311776 0.026792888
v -0.0076388066 -0.031627751 0.027185545
v -0.015246823 -0.0097903793 -0.011041632
v -0.015250264 -0.032286953 -0.010648975
v -0.014436106 -0.03229721 -0.011229528
v -0.014432664 -0.0098006368 -0.011622185
v -0.012745084 -0.0091130518 0.027786587
v -0.012748526 -0.031609625 0.028179244
v -0.013055177 -0.031610783 0.028110192
v -0.013353258 -0.031612479 0.028010445
v -0.013639704 -0.031614694 0.02788103
v -0.013636262 -0.0091181205 0.027488373
v -0.013349816 -0.0091159055 0.027617788
v -0.013051735 -0.0091142101 0.027717535
v -0.035566055 -0.016419202 -0.018543717
v -0.022950649 -0.016197065 -0.0057061867
v -0.022953096 -0.032194629 -0.0054269642
v -0.035568502 -0.032416766 -0.018264495
v -0.022782664 -0.017140095 -0.059733927
v -0.020740499 -0.017093106 -0.057023866
v -0.019469439 -0.017038386 -0.05387768
v -0.019056105 -0.016979666 -0.05050978
v -0.019058553 -0.032977229 -0.050230557
v -0.019150918 -0.033006281 -0.051895829
v -0.019455793 -0.033034855 -0.053535572
v -0.01996816 -0.033062479 -0.055122782
v -0.022784452 -0.028830702 -0.059529878
v -0.015008174 -0.032213286 -0.0064262489
v -0.015004732 -0.0097167126 -0.0068189056
v -0.016855548 -0.0097062482 -0.0062355924
v -0.016858989 -0.032202822 -0.0058429358
v -0.0097146354 -0.0097629764 -0.0094231418
v -0.009718077 -0.03225955 -0.0090304851
v -0.0095105851 -0.032255461 -0.008794402
v -0.0093280708 -0.032251023 -0.0085385245
v -0.0091724107 -0.032246281 -0.0082654821
v -0.0091689691 -0.0097497074 -0.0086581387
v -0.0093246292 -0.0097544493 -0.0089311812
v -0.0095071435 -0.0097588875 -0.0091870586
v -0.014679085 -0.0097497111 -0.0087066444
v -0.014682527 -0.032246284 -0.0083139878
v -0.014522084 -0.032251026 -0.0085842476
v -0.014335093 -0.032255464 -0.0088368722
v -0.014123478 -0.032259553 -0.009069266
v -0.014120036 -0.0097629793 -0.0094619226
v -0.014331652 -0.0097588907 -0.0092295289
v -0.014518642 -0.0097544528 -0.0089769042
v -0.035307572 -0.016931746 -0.04790671
v -0.035522048 -0.016506463 -0.023542762
v -0.035524496 -0.032504026 -0.02326354
v -0.035310019 -0.032929309 -0.047627487
v -0.026195974 -0.017693195 -0.091452761
v -0.026266384 -0.017553578 -0.083454287
v -0.026442411 -0.017204537 -0.063458113
v -0.026443635 -0.025203319 -0.063318501
v -0.026012369 -0.02605847 -0.11230914
v -0.026011145 -0.018059689 -0.11244875
v -0.026178371 -0.017728099 -0.093452377
v -0.022648159 -0.016796869 -0.040068223
v -0.022536136 -0.017018998 -0.052793715
v -0.022538583 -0.033016561 -0.052514492
v -0.022650606 -0.032794432 -0.039789001
v -0.0091534196 -0.031671216 0.024681999
v -0.009149978 -0.0091746429 0.024289342
v -0.0072991623 -0.0091851072 0.023706029
v -0.0073026039 -0.031681681 0.024098686
v -0.039055331 -0.016979679 -0.050685833
v -0.038582769 -0.017038399 -0.054045935
v -0.03725652 -0.017093117 -0.057169257
v -0.035166961 -0.017140103 -0.059842946
v -0.03516875 -0.02883071 -0.059638897
v -0.038062185 -0.033062491 -0.055282064
v -0.038602415 -0.033034867 -0.05370412
v -0.038936112 -0.033006294 -0.052069999
v -0.039057778 -0.032977243 -0.050406611
v -0.0091582492 -0.0091582421 0.025228927
v -0.0091616908 -0.031654815 0.025621583
v -0.007321431 -0.031644349 0.02623739
v -0.0073179894 -0.0091477753 0.025844733
v -0.00316672 -0.032169122 -0.0037921774
v 0.00053370262 -0.028469683 -0.0038241777
v 0.00053436035 -0.024170338 -0.0038992187
v -0.0044654459 -0.024170341 -0.0039432322
v -0.0044666696 -0.032169123 -0.0038036209
v -0.026195974 -0.017693195 -0.091452761
v -0.028242047 -0.022155206 -0.091392886
v -0.028312458 -0.022015589 -0.083394413
v -0.026266384 -0.017553578 -0.083454287
v -0.016836557 -0.0091311837 0.02671189
v -0.016839998 -0.031627757 0.027104546
v -0.017140633 -0.031644355 0.026150951
v -0.017137191 -0.0091477818 0.025758295
v -0.010034674 -0.0091283762 0.026932359
v -0.010038116 -0.031624949 0.027325016
v -0.0089113287 -0.031597549 0.028904725
v -0.0089078871 -0.0091009762 0.028512069
v -0.01146348 -0.0096715175 -0.0041984961
v -0.011466921 -0.032168091 -0.0038058395
v -0.011484001 -0.032134224 -0.0018656225
v -0.011480559 -0.0096376503 -0.0022582791
v -0.015286375 -0.0091582461 0.025174981
v -0.015289817 -0.031654819 0.025567637
v -0.015318895 -0.031660277 0.025254701
v -0.015316128 -0.031665763 0.024940429
v -0.015281546 -0.03167122 0.024628053
v -0.015278104 -0.009174647 0.024235396
v -0.015312687 -0.0091691895 0.024547772
v -0.015315453 -0.0091637037 0.024862044
v -0.027003529 -0.026075923 -0.11331775
v -0.030003412 -0.026075925 -0.11334416
v -0.030002522 -0.020258553 -0.11344569
v -0.028957442 -0.022539152 -0.11339668
v -0.02868858 -0.022795049 -0.11338985
v -0.028317358 -0.022795049 -0.11338658
v -0.028048418 -0.022539152 -0.11338868
v -0.027002639 -0.020258551 -0.11341928
v -0.009149978 -0.0091746429 0.024289342
v -0.0091534196 -0.031671216 0.024681999
v -0.0091243416 -0.031665759 0.024994935
v -0.0091271081 -0.031660273 0.025309207
v -0.0091616908 -0.031654815 0.025621583
v -0.0091582492 -0.0091582421 0.025228927
v -0.0091236665 -0.0091636996 0.024916551
v -0.0091209 -0.0091691853 0.024602279
v -0.011694711 -0.031716411 0.022070392
v -0.011691269 -0.0092198373 0.021677736
v -0.011674189 -0.0092537046 0.019737519
v -0.011677631 -0.031750278 0.020130175
v -0.014120036 -0.0097629793 -0.0094619226
v -0.014123478 -0.032259553 -0.009069266
v -0.015250264 -0.032286953 -0.010648975
v -0.015246823 -0.0097903793 -0.011041632
v 0.00045449044 -0.028312614 0.0051741024
v 0.0004550717 -0.024513193 0.0051077871
v 0.00044627034 -0.024495741 0.006107596
v 0.00044568909 -0.028295162 0.0061739113
v -0.0094506124 -0.009191241 0.023335747
v -0.009454054 -0.031687814 0.023728404
v -0.0076032383 -0.031698279 0.023145091
v -0.0075997967 -0.0092017054 0.022752434
v -0.031442218 -0.01720454 -0.063502126
v -0.031266191 -0.017553582 -0.083498301
v -0.03119578 -0.017693198 -0.091496774
v -0.031178177 -0.017728103 -0.09349639
v -0.031010951 -0.018059692 -0.11249277
v -0.031012175 -0.026058474 -0.11235315
v -0.031443441 -0.025203322 -0.063362515
v -0.0099997203 -0.031701083 0.022963402
v -0.0099962787 -0.0092045099 0.022570746
v -0.008841856 -0.0092319084 0.021011118
v -0.0088452976 -0.031728482 0.021403774
v -0.0045232666 -0.028056294 0.0026253315
v -0.00062341781 -0.028056291 0.0026596619
v -0.00062280597 -0.0240569 0.0025898563
v -0.0045226547 -0.024056903 0.0025555259
v -0.011762203 -0.0090791838 0.029735607
v -0.011765644 -0.031575757 0.030128264
v -0.012765606 -0.031575758 0.030119461
v -0.012762164 -0.0090791845 0.029726804
v -0.035263565 -0.017019006 -0.052905755
v -0.022648159 -0.016796869 -0.040068223
v -0.022650606 -0.032794432 -0.039789001
v -0.035266012 -0.033016569 -0.052626532
v -0.019385217 -0.032329492 -0.013122422
v -0.01938277 -0.016331928 -0.013401644
v -0.019381775 -0.0098329184 -0.013515079
v -0.0083707175 -0.0098329111 -0.013418148
v -0.0083729355 -0.024330702 -0.013165103
v -0.0035731215 -0.024330699 -0.01312285
v -0.0035743452 -0.032329481 -0.012983238
v -0.017015552 -0.0095678456 0.0016925424
v -0.017018993 -0.032064419 0.002085199
v -0.015001468 -0.032099322 0.00010318654
v -0.014998027 -0.0096027484 -0.00028947009
v -0.013590962 -0.031711344 0.02234407
v -0.01358752 -0.0092147704 0.021951413
v -0.014714307 -0.0092421704 0.020371704
v -0.014717749 -0.031738744 0.020764361
v -0.022950649 -0.016197065 -0.0057061867
v -0.022726603 -0.016641323 -0.031157169
v -0.02272905 -0.032638886 -0.030877947
v -0.022953096 -0.032194629 -0.0054269642
v -0.01496417 -0.031687818 0.023679898
v -0.014960729 -0.0091912447 0.023287242
v -0.016800988 -0.0092017115 0.022671436
v -0.01680443 -0.031698285 0.023064093
v 0.00048534107 -0.028073742 0.0016695357
v -0.0045144652 -0.028073746 0.0016255223
v -0.0045138534 -0.024074355 0.0015557167
v 0.00048595291 -0.024074351 0.0015997301
v -0.013636262 -0.0091181205 0.027488373
v -0.013639704 -0.031614694 0.02788103
v -0.014794127 -0.031587295 0.029440659
v -0.014790685 -0.009090722 0.029048002
v -0.0091689691 -0.0097497074 -0.0086581387
v -0.0091724107 -0.032246281 -0.0082654821
v -0.007321595 -0.032256745 -0.0088487964
v -0.0073181534 -0.0097601718 -0.009241453
v -0.009718077 -0.03225955 -0.0090304851
v -0.0097146354 -0.0097629764 -0.0094231418
v -0.0085602127 -0.0097903748 -0.01098277
v -0.0085636543 -0.032286948 -0.010590113
v -0.039570143 -0.015958865 0.0077954285
v -0.039055331 -0.016979679 -0.050685833
v -0.039057778 -0.032977243 -0.050406611
v -0.039572591 -0.031956428 0.008074651
v -0.010852275 -0.031614692 0.027905567
v -0.010848833 -0.0091181186 0.027512911
v -0.0097220459 -0.0090907186 0.029092621
v -0.0097254875 -0.031587292 0.029485278
v -0.019770624 -0.0090618763 0.03065702
v -0.019771986 -0.0090618763 0.030657008
v -0.01877571 -0.00905997 0.030774959
v -0.017775237 -0.0090588245 0.030849357
v -0.016772471 -0.0090584419 0.030880062
v -0.0087899023 -0.0090584366 0.030950333
v -0.0057463429 -0.0091110897 0.027960346
v -0.0054086211 -0.0097807533 -0.010403896
v -0.0083707175 -0.0098329111 -0.013418148
v -0.019381775 -0.0098329184 -0.013515079
v -0.017138771 -0.0093235165 0.015689868
v -0.017015552 -0.0095678456 0.0016925424
v -0.014998027 -0.0096027484 -0.00028947009
v -0.0089982589 -0.0096027444 -0.000236654
v -0.0070159393 -0.009567839 0.0017805692
v -0.0071391582 -0.0093235099 0.015777894
v -0.0091566833 -0.0092886071 0.017759907
v -0.015156451 -0.0092886111 0.017707091
v -0.011691269 -0.0092198373 0.021677736
v -0.011384618 -0.0092186789 0.021746789
v -0.011086537 -0.0092169835 0.021846536
v -0.010800091 -0.0092147685 0.021975951
v -0.0096456682 -0.009242167 0.020416323
v -0.008841856 -0.0092319084 0.021011118
v -0.0099962787 -0.0092045099 0.022570746
v -0.0097887868 -0.0092004211 0.022806827
v -0.0096062725 -0.0091959829 0.023062706
v -0.0094506124 -0.009191241 0.023335747
v -0.0075997967 -0.0092017054 0.022752434
v -0.0072991623 -0.0091851072 0.023706029
v -0.009149978 -0.0091746429 0.024289342
v -0.0091209 -0.0091691853 0.024602279
v -0.0091236665 -0.0091636996 0.024916551
v -0.0091582492 -0.0091582421 0.025228927
v -0.0073179894 -0.0091477753 0.025844733
v -0.007635365 -0.0091311776 0.026792888
v -0.0094756248 -0.0091416444 0.026177081
v -0.0096360675 -0.0091369027 0.026447341
v -0.0098230582 -0.0091324648 0.026699966
v -0.010034674 -0.0091283762 0.026932359
v -0.0089078871 -0.0091009762 0.028512069
v -0.0097220459 -0.0090907186 0.029092621
v -0.010848833 -0.0091181186 0.027512911
v -0.011137513 -0.009115904 0.027637263
v -0.011437304 -0.009114209 0.027731747
v -0.011745123 -0.0091130511 0.02779539
v -0.011762203 -0.0090791838 0.029735607
v -0.012762164 -0.0090791845 0.029726804
v -0.012745084 -0.0091130518 0.027786587
v -0.013051735 -0.0091142101 0.027717535
v -0.013349816 -0.0091159055 0.027617788
v -0.013636262 -0.0091181205 0.027488373
v -0.014790685 -0.009090722 0.029048002
v -0.015594497 -0.0091009806 0.028453206
v -0.014440075 -0.0091283791 0.026893579
v -0.014647567 -0.009132468 0.026657495
v -0.014830081 -0.0091369061 0.026401618
v -0.014985741 -0.009141648 0.026128575
v -0.016836557 -0.0091311837 0.02671189
v -0.017137191 -0.0091477818 0.025758295
v -0.015286375 -0.0091582461 0.025174981
v -0.015315453 -0.0091637037 0.024862044
v -0.015312687 -0.0091691895 0.024547772
v -0.015278104 -0.009174647 0.024235396
v -0.017118364 -0.0091851138 0.023619591
v -0.016800988 -0.0092017115 0.022671436
v -0.014960729 -0.0091912447 0.023287242
v -0.014800286 -0.0091959863 0.023016983
v -0.014613295 -0.0092004243 0.022764357
v -0.014401679 -0.0092045129 0.022531965
v -0.015528466 -0.0092319128 0.020952255
v -0.014714307 -0.0092421704 0.020371704
v -0.01358752 -0.0092147704 0.021951413
v -0.01329884 -0.009216985 0.021827061
v -0.01299905 -0.00921868 0.021732577
v -0.01269123 -0.0092198379 0.021668933
v -0.012674151 -0.0092537052 0.019728716
v -0.011674189 -0.0092537046 0.019737519
v -0.011409626 -0.0097783037 -0.010316151
v -0.011102975 -0.0097771454 -0.010247098
v -0.010804894 -0.00977545 -0.010147351
v -0.010518448 -0.009773235 -0.010017936
v -0.0093640249 -0.0098006335 -0.011577565
v -0.0085602127 -0.0097903748 -0.01098277
v -0.0097146354 -0.0097629764 -0.0094231418
v -0.0095071435 -0.0097588875 -0.0091870586
v -0.0093246292 -0.0097544493 -0.0089311812
v -0.0091689691 -0.0097497074 -0.0086581387
v -0.0073181534 -0.0097601718 -0.009241453
v -0.007017519 -0.0097435737 -0.0082878581
v -0.0088683347 -0.0097331093 -0.0077045438
v -0.0088392567 -0.0097276518 -0.0073916075
v -0.0088420232 -0.009722166 -0.0070773353
v -0.0088766059 -0.0097167085 -0.0067649595
v -0.0070363461 -0.0097062417 -0.0061491538
v -0.0073537217 -0.009689644 -0.0052009992
v -0.0091939815 -0.0097001108 -0.0058168049
v -0.0093544242 -0.0096953691 -0.0055465463
v -0.0095414149 -0.0096909312 -0.0052939205
v -0.0097530308 -0.0096868426 -0.0050615279
v -0.0086262438 -0.0096594427 -0.0034818186
v -0.0094404026 -0.0096491851 -0.0029012672
v -0.01056719 -0.0096765851 -0.0044809765
v -0.01085587 -0.0096743705 -0.0043566243
v -0.01115566 -0.0096726755 -0.0042621403
v -0.01146348 -0.0096715175 -0.0041984961
v -0.011480559 -0.0096376503 -0.0022582791
v -0.012480521 -0.0096376509 -0.0022670818
v -0.012463441 -0.0096715182 -0.0042072988
v -0.012770092 -0.0096726766 -0.0042763522
v -0.013068173 -0.0096743719 -0.0043760993
v -0.013354619 -0.0096765869 -0.0045055143
v -0.014509042 -0.0096491885 -0.0029458865
v -0.015312854 -0.0096594471 -0.003540681
v -0.014158431 -0.0096868455 -0.0051003087
v -0.014365923 -0.0096909344 -0.0053363907
v -0.014548438 -0.0096953726 -0.0055922693
v -0.014704098 -0.0097001145 -0.0058653106
v -0.016554913 -0.0096896501 -0.0052819975
v -0.016855548 -0.0097062482 -0.0062355924
v -0.015004732 -0.0097167126 -0.0068189056
v -0.01503381 -0.0097221701 -0.0071318418
v -0.015031043 -0.0097276559 -0.007446114
v -0.014996461 -0.0097331134 -0.0077584898
v -0.016836721 -0.0097435802 -0.0083742967
v -0.016519345 -0.0097601779 -0.0093224514
v -0.014679085 -0.0097497111 -0.0087066444
v -0.014518642 -0.0097544528 -0.0089769042
v -0.014331652 -0.0097588907 -0.0092295289
v -0.014120036 -0.0097629793 -0.0094619226
v -0.015246823 -0.0097903793 -0.011041632
v -0.014432664 -0.0098006368 -0.011622185
v -0.013305877 -0.0097732368 -0.010042474
v -0.013017197 -0.0097754515 -0.010166826
v -0.012717406 -0.0097771465 -0.01026131
v -0.012409587 -0.0097783044 -0.010324953
v -0.012392507 -0.0098121717 -0.01226517
v -0.011392546 -0.009812171 -0.012256368
v -0.01056719 -0.0096765851 -0.0044809765
v -0.010570631 -0.032173158 -0.0040883198
v -0.010859311 -0.032170944 -0.0039639677
v -0.011159102 -0.032169249 -0.0038694837
v -0.011466921 -0.032168091 -0.0038058395
v -0.01146348 -0.0096715175 -0.0041984961
v -0.01115566 -0.0096726755 -0.0042621403
v -0.01085587 -0.0096743705 -0.0043566243
v -0.029221482 -0.02201559 -0.083402415
v -0.031266191 -0.017553582 -0.083498301
v -0.026266384 -0.017553578 -0.083454287
v -0.028312458 -0.022015589 -0.083394413
v -0.028581398 -0.022271486 -0.083392313
v -0.028952621 -0.022271487 -0.083395581
v -0.019770624 -0.0090618763 0.03065702
v -0.019381775 -0.0098329184 -0.013515079
v -0.01938277 -0.016331928 -0.013401644
v -0.019771618 -0.015560886 0.030770454
v -0.022784452 -0.028830702 -0.059529878
v -0.01996816 -0.033062479 -0.055122782
v -0.038062185 -0.033062491 -0.055282064
v -0.03516875 -0.02883071 -0.059638897
v -0.031443441 -0.025203322 -0.063362515
v -0.026443635 -0.025203319 -0.063318501
v -0.0099962787 -0.0092045099 0.022570746
v -0.0099997203 -0.031701083 0.022963402
v -0.0097922284 -0.031696994 0.023199484
v -0.0096097141 -0.031692556 0.023455363
v -0.009454054 -0.031687814 0.023728404
v -0.0094506124 -0.009191241 0.023335747
v -0.0096062725 -0.0091959829 0.023062706
v -0.0097887868 -0.0092004211 0.022806827
v -0.0075997967 -0.0092017054 0.022752434
v -0.0076032383 -0.031698279 0.023145091
v -0.0073026039 -0.031681681 0.024098686
v -0.0072991623 -0.0091851072 0.023706029
v -0.014985741 -0.009141648 0.026128575
v -0.014989182 -0.031638221 0.026521232
v -0.016839998 -0.031627757 0.027104546
v -0.016836557 -0.0091311837 0.02671189
v 0.00050355562 -0.024109256 -0.00039988774
v 0.00050294377 -0.028108646 -0.00033008211
v 0.00051966634 -0.028141805 -0.0022297191
v 0.00052027819 -0.024142414 -0.0022995247
v -0.015278104 -0.009174647 0.024235396
v -0.015281546 -0.03167122 0.024628053
v -0.017121806 -0.031681687 0.024012247
v -0.017118364 -0.0091851138 0.023619591
v -0.0070363461 -0.0097062417 -0.0061491538
v -0.0070397877 -0.032202815 -0.0057564971
v -0.0073571633 -0.032186217 -0.0048083425
v -0.0073537217 -0.009689644 -0.0052009992
v 0.00048534107 -0.028073742 0.0016695357
v 0.00048595291 -0.024074351 0.0015997301
v 0.00046923034 -0.024041192 0.0034993671
v 0.0004686185 -0.028040583 0.0035691727
v -0.0087899023 -0.0090584366 0.030950333
v -0.0087933439 -0.03155501 0.031342989
v -0.0057497845 -0.031607663 0.028353003
v -0.0057463429 -0.0091110897 0.027960346
v -0.010570631 -0.032173158 -0.0040883198
v -0.01056719 -0.0096765851 -0.0044809765
v -0.0094404026 -0.0096491851 -0.0029012672
v -0.0094438442 -0.032145758 -0.0025086105
v -0.031178177 -0.017728103 -0.09349639
v -0.029133469 -0.022190111 -0.093400504
v -0.028957442 -0.022539152 -0.11339668
v -0.030002522 -0.020258553 -0.11344569
v -0.030711943 -0.018710953 -0.113186
v -0.031010951 -0.018059692 -0.11249277
v -0.012463441 -0.0096715182 -0.0042072988
v -0.012466883 -0.032168091 -0.0038146422
v -0.012773534 -0.03216925 -0.0038836955
v -0.013071615 -0.032170945 -0.0039834426
v -0.013358061 -0.03217316 -0.0041128576
v -0.013354619 -0.0096765869 -0.0045055143
v -0.013068173 -0.0096743719 -0.0043760993
v -0.012770092 -0.0096726766 -0.0042763522
v -0.023038662 -0.016022545 0.0042919026
v -0.035878114 -0.015800424 0.016905353
v -0.035880562 -0.031797988 0.017184576
v -0.02304111 -0.032020108 0.0045711251
v -0.011480559 -0.0096376503 -0.0022582791
v -0.011484001 -0.032134224 -0.0018656225
v -0.012483962 -0.032134224 -0.0018744252
v -0.012480521 -0.0096376509 -0.0022670818
v -0.0083729355 -0.024330702 -0.013165103
v -0.0083707175 -0.0098329111 -0.013418148
v -0.0054086211 -0.0097807533 -0.010403896
v -0.005410839 -0.024278545 -0.01015085
v -0.015528466 -0.0092319128 0.020952255
v -0.015531908 -0.031728486 0.021344912
v -0.014717749 -0.031738744 0.020764361
v -0.014714307 -0.0092421704 0.020371704
v -0.013305877 -0.0097732368 -0.010042474
v -0.013309319 -0.03226981 -0.0096498174
v -0.013020639 -0.032272025 -0.0097741696
v -0.012720848 -0.03227372 -0.0098686536
v -0.012413029 -0.032274878 -0.0099322966
v -0.012409587 -0.0097783044 -0.010324953
v -0.012717406 -0.0097771465 -0.01026131
v -0.013017197 -0.0097754515 -0.010166826
v 0.0004686185 -0.028040583 0.0035691727
v 0.00046923034 -0.024041192 0.0034993671
v 0.00026923828 -0.024041193 0.0034976065
v 0.00026862644 -0.028040583 0.0035674122
v -0.014440075 -0.0091283791 0.026893579
v -0.014443516 -0.031624952 0.027286235
v -0.014651008 -0.031629041 0.027050152
v -0.014833522 -0.031633479 0.026794275
v -0.014989182 -0.031638221 0.026521232
v -0.014985741 -0.009141648 0.026128575
v -0.014830081 -0.0091369061 0.026401618
v -0.014647567 -0.009132468 0.026657495
v -0.017138771 -0.0093235165 0.015689868
v -0.017142212 -0.03182009 0.016082524
v -0.017018993 -0.032064419 0.002085199
v -0.017015552 -0.0095678456 0.0016925424
v -0.014996461 -0.0097331134 -0.0077584898
v -0.014999902 -0.032229687 -0.0073658332
v -0.016840162 -0.032240153 -0.0079816401
v -0.016836721 -0.0097435802 -0.0083742967
v -0.0045458818 -0.032012054 0.0051946592
v -0.0045447346 -0.024513196 0.0050637737
v 0.0004550717 -0.024513193 0.0051077871
v 0.00045449044 -0.028312614 0.0051741024
v -0.0032459322 -0.032012053 0.0052061027
v -0.0045232666 -0.028056294 0.0026253315
v -0.0045144652 -0.028073746 0.0016255223
v 0.00048534107 -0.028073742 0.0016695357
v 0.0004686185 -0.028040583 0.0035691727
v 0.00026862644 -0.028040583 0.0035674122
v -0.00062341781 -0.028056291 0.0026596619
v -0.014790685 -0.009090722 0.029048002
v -0.014794127 -0.031587295 0.029440659
v -0.015597939 -0.031597554 0.028845863
v -0.015594497 -0.0091009806 0.028453206
v -0.0088766059 -0.0097167085 -0.0067649595
v -0.0088800475 -0.032213282 -0.0063723029
v -0.0070397877 -0.032202815 -0.0057564971
v -0.0070363461 -0.0097062417 -0.0061491538
v -0.0045447346 -0.024513196 0.0050637737
v -0.0045402574 -0.024021998 0.0045551437
v -0.0055402189 -0.024021999 0.004546341
v -0.0055446961 -0.024513197 0.005054971
v -0.016772471 -0.0090584419 0.030880062
v -0.016775913 -0.031555015 0.031272719
v -0.0087933439 -0.03155501 0.031342989
v -0.0087899023 -0.0090584366 0.030950333
v -0.01269123 -0.0092198379 0.021668933
v -0.012694672 -0.031716411 0.02206159
v -0.012677592 -0.031750279 0.020121372
v -0.012674151 -0.0092537052 0.019728716
v -0.0045226547 -0.024056903 0.0025555259
v -0.0045402574 -0.024021998 0.0045551437
v -0.0045447346 -0.024513196 0.0050637737
v -0.0045458818 -0.032012054 0.0051946592
v -0.0044666696 -0.032169123 -0.0038036209
v -0.0044654459 -0.024170341 -0.0039432322
v -0.0044874493 -0.024126711 -0.0014437098
v -0.0044880612 -0.028126102 -0.0013739041
v -0.0044968625 -0.02810865 -0.00037409552
v -0.0044962507 -0.024109259 -0.00044390115
v -0.0045138534 -0.024074355 0.0015557167
v -0.0045144652 -0.028073746 0.0016255223
v -0.0045232666 -0.028056294 0.0026253315
v -0.035610062 -0.016331942 -0.013544672
v -0.035834108 -0.015887685 0.011906308
v -0.035836555 -0.031885248 0.012185531
v -0.035612509 -0.032329506 -0.01326545
v -0.014161873 -0.032183419 -0.0047076521
v -0.014158431 -0.0096868455 -0.0051003087
v -0.015312854 -0.0096594471 -0.003540681
v -0.015316296 -0.03215602 -0.0031480243
v -0.015001468 -0.032099322 0.00010318654
v -0.0090017006 -0.032099318 0.00015600264
v -0.0089982589 -0.0096027444 -0.000236654
v -0.014998027 -0.0096027484 -0.00028947009
v -0.0035743452 -0.032329481 -0.012983238
v -0.0035731215 -0.024330699 -0.01312285
v 0.00057836711 -0.024257598 -0.0088982636
v 0.00057770938 -0.028556943 -0.0088232225
v -0.0030901482 -0.032320955 -0.012490517
v -0.0070193809 -0.032064412 0.0021732258
v -0.0071425998 -0.031820083 0.016170551
v -0.0071391582 -0.0093235099 0.015777894
v -0.0070159393 -0.009567839 0.0017805692
v -0.0044962507 -0.024109259 -0.00044390115
v -0.0044968625 -0.02810865 -0.00037409552
v 0.00050294377 -0.028108646 -0.00033008211
v 0.00050355562 -0.024109256 -0.00039988774
v -0.030003412 -0.026075925 -0.11334416
v -0.030504573 -0.026073587 -0.11321461
v -0.030873805 -0.0260672 -0.11285188
v -0.031012175 -0.026058474 -0.11235315
v -0.031010951 -0.018059692 -0.11249277
v -0.030711943 -0.018710953 -0.113186
v -0.030002522 -0.020258553 -0.11344569
v -0.014401679 -0.0092045129 0.022531965
v -0.014405121 -0.031701086 0.022924621
v -0.015531908 -0.031728486 0.021344912
v -0.015528466 -0.0092319128 0.020952255
v -0.01358752 -0.0092147704 0.021951413
v -0.013590962 -0.031711344 0.02234407
v -0.013302282 -0.031713558 0.022219718
v -0.013002491 -0.031715253 0.022125234
v -0.012694672 -0.031716411 0.02206159
v -0.01269123 -0.0092198379 0.021668933
v -0.01299905 -0.00921868 0.021732577
v -0.01329884 -0.009216985 0.021827061
v -0.015004732 -0.0097167126 -0.0068189056
v -0.015008174 -0.032213286 -0.0064262489
v -0.015037252 -0.032218743 -0.0067391851
v -0.015034485 -0.032224229 -0.0070534573
v -0.014999902 -0.032229687 -0.0073658332
v -0.014996461 -0.0097331134 -0.0077584898
v -0.015031043 -0.0097276559 -0.007446114
v -0.01503381 -0.0097221701 -0.0071318418
v -0.014158431 -0.0096868455 -0.0051003087
v -0.014161873 -0.032183419 -0.0047076521
v -0.014369365 -0.032187508 -0.0049437341
v -0.014551879 -0.032191946 -0.0051996127
v -0.014707539 -0.032196688 -0.0054726539
v -0.014704098 -0.0097001145 -0.0058653106
v -0.014548438 -0.0096953726 -0.0055922693
v -0.014365923 -0.0096909344 -0.0053363907
v -0.014960729 -0.0091912447 0.023287242
v -0.01496417 -0.031687818 0.023679898
v -0.014803727 -0.03169256 0.02340964
v -0.014616737 -0.031696998 0.023157014
v -0.014405121 -0.031701086 0.022924621
v -0.014401679 -0.0092045129 0.022531965
v -0.014613295 -0.0092004243 0.022764357
v -0.014800286 -0.0091959863 0.023016983
v -0.026442411 -0.017204537 -0.063458113
v -0.022782664 -0.017140095 -0.059733927
v -0.022784452 -0.028830702 -0.059529878
v -0.026443635 -0.025203319 -0.063318501
v -0.0094756248 -0.0091416444 0.026177081
v -0.0094790664 -0.031638218 0.026569738
v -0.0096395091 -0.031633476 0.026839998
v -0.0098264998 -0.031629038 0.027092622
v -0.010038116 -0.031624949 0.027325016
v -0.010034674 -0.0091283762 0.026932359
v -0.0098230582 -0.0091324648 0.026699966
v -0.0096360675 -0.0091369027 0.026447341
v -0.0091974231 -0.032196684 -0.0054241483
v -0.0091939815 -0.0097001108 -0.0058168049
v -0.0073537217 -0.009689644 -0.0052009992
v -0.0073571633 -0.032186217 -0.0048083425
v 0.00031967428 -0.028141805 -0.0022314797
v 0.00032028613 -0.024142415 -0.0023012853
v 0.00052027819 -0.024142414 -0.0022995247
v 0.00051966634 -0.028141805 -0.0022297191
v -0.0073179894 -0.0091477753 0.025844733
v -0.007321431 -0.031644349 0.02623739
v -0.0076388066 -0.031627751 0.027185545
v -0.007635365 -0.0091311776 0.026792888
v -0.0056074528 -0.03188989 0.012184519
v -0.0056063056 -0.024391032 0.012053634
v -0.0055446961 -0.024513197 0.005054971
v -0.0055402189 -0.024021999 0.004546341
v -0.005410839 -0.024278545 -0.01015085
v -0.0054086211 -0.0097807533 -0.010403896
v -0.0057463429 -0.0091110897 0.027960346
v -0.0057497845 -0.031607663 0.028353003
v -0.035878114 -0.015800424 0.016905353
v -0.023150685 -0.015800416 0.017017393
v -0.023153133 -0.031797979 0.017296616
v -0.035880562 -0.031797988 0.017184576
v -0.011691269 -0.0092198373 0.021677736
v -0.011694711 -0.031716411 0.022070392
v -0.01138806 -0.031715252 0.022139446
v -0.011089979 -0.031713557 0.022239193
v -0.010803533 -0.031711342 0.022368608
v -0.010800091 -0.0092147685 0.021975951
v -0.011086537 -0.0092169835 0.021846536
v -0.011384618 -0.0092186789 0.021746789
v -0.031178177 -0.017728103 -0.09349639
v -0.026178371 -0.017728099 -0.093452377
v -0.028224445 -0.02219011 -0.093392502
v -0.028493385 -0.022446007 -0.093390403
v -0.028864607 -0.022446007 -0.093393671
v -0.029133469 -0.022190111 -0.093400504
v -0.0091939815 -0.0097001108 -0.0058168049
v -0.0091974231 -0.032196684 -0.0054241483
v -0.0093578658 -0.032191942 -0.0051538897
v -0.0095448565 -0.032187504 -0.0049012638
v -0.0097564724 -0.032183416 -0.0046688713
v -0.0097530308 -0.0096868426 -0.0050615279
v -0.0095414149 -0.0096909312 -0.0052939205
v -0.0093544242 -0.0096953691 -0.0055465463
v -0.016554913 -0.0096896501 -0.0052819975
v -0.016558355 -0.032186223 -0.0048893408
v -0.016858989 -0.032202822 -0.0058429358
v -0.016855548 -0.0097062482 -0.0062355924
v -0.015289817 -0.031654819 0.025567637
v -0.015286375 -0.0091582461 0.025174981
v -0.017137191 -0.0091477818 0.025758295
v -0.017140633 -0.031644355 0.026150951
v -0.0035731215 -0.024330699 -0.01312285
v -0.0083729355 -0.024330702 -0.013165103
v -0.005410839 -0.024278545 -0.01015085
v -0.0055402189 -0.024021999 0.004546341
v -0.0045402574 -0.024021998 0.0045551437
v -0.0045226547 -0.024056903 0.0025555259
v -0.00062280597 -0.0240569 0.0025898563
v 0.00026923828 -0.024041193 0.0034976065
v 0.00046923034 -0.024041192 0.0034993671
v 0.00048595291 -0.024074351 0.0015997301
v -0.0045138534 -0.024074355 0.0015557167
v -0.0044962507 -0.024109259 -0.00044390115
v 0.00050355562 -0.024109256 -0.00039988774
v 0.00052027819 -0.024142414 -0.0022995247
v 0.00032028613 -0.024142415 -0.0023012853
v -0.00058760056 -0.024126708 -0.0014093793
v -0.0044874493 -0.024126711 -0.0014437098
v -0.0044654459 -0.024170341 -0.0039432322
v 0.00053436035 -0.024170338 -0.0038992187
v 0.00057836711 -0.024257598 -0.0088982636
v -0.0071391582 -0.0093235099 0.015777894
v -0.0071425998 -0.031820083 0.016170551
v -0.0091601249 -0.03178518 0.018152563
v -0.0091566833 -0.0092886071 0.017759907
v 0.00026862644 -0.028040583 0.0035674122
v 0.00026923828 -0.024041193 0.0034976065
v -0.00062280597 -0.0240569 0.0025898563
v -0.00062341781 -0.028056291 0.0026596619
v -0.010518448 -0.009773235 -0.010017936
v -0.010521889 -0.032269808 -0.0096252796
v -0.0093674665 -0.032297207 -0.011184909
v -0.0093640249 -0.0098006335 -0.011577565
v -0.0089078871 -0.0091009762 0.028512069
v -0.0089113287 -0.031597549 0.028904725
v -0.0097254875 -0.031587292 0.029485278
v -0.0097220459 -0.0090907186 0.029092621
v -0.0093640249 -0.0098006335 -0.011577565
v -0.0093674665 -0.032297207 -0.011184909
v -0.0085636543 -0.032286948 -0.010590113
v -0.0085602127 -0.0097903748 -0.01098277
v -0.022726603 -0.016641323 -0.031157169
v -0.035566055 -0.016419202 -0.018543717
v -0.035568502 -0.032416766 -0.018264495
v -0.02272905 -0.032638886 -0.030877947
v 0.00053370262 -0.028469683 -0.0038241777
v -0.00316672 -0.032169122 -0.0037921774
v -0.0030901482 -0.032320955 -0.012490517
v 0.00057770938 -0.028556943 -0.0088232225
v -0.013309319 -0.03226981 -0.0096498174
v -0.013305877 -0.0097732368 -0.010042474
v -0.014432664 -0.0098006368 -0.011622185
v -0.014436106 -0.03229721 -0.011229528
v -0.0032459322 -0.032012053 0.0052061027
v 0.00045449044 -0.028312614 0.0051741024
v 0.00044568909 -0.028295162 0.0061739113
v -0.0032872986 -0.031930029 0.0099052049
v -0.031012175 -0.026058474 -0.11235315
v -0.030873805 -0.0260672 -0.11285188
v -0.030504573 -0.026073587 -0.11321461
v -0.030003412 -0.026075925 -0.11334416
v -0.027003529 -0.026075923 -0.11331775
v -0.026504727 -0.026073585 -0.1131794
v -0.026141938 -0.026067197 -0.11281023
v -0.026012369 -0.02605847 -0.11230914
v -0.026443635 -0.025203319 -0.063318501
v -0.031443441 -0.025203322 -0.063362515
v -0.015156451 -0.0092886111 0.017707091
v -0.015159893 -0.031785184 0.018099747
v -0.017142212 -0.03182009 0.016082524
v -0.017138771 -0.0093235165 0.015689868
v -0.011409626 -0.0097783037 -0.010316151
v -0.011413067 -0.032274877 -0.0099234939
v -0.011106416 -0.032273719 -0.0098544417
v -0.010808335 -0.032272023 -0.0097546946
v -0.010521889 -0.032269808 -0.0096252796
v -0.010518448 -0.009773235 -0.010017936
v -0.010804894 -0.00977545 -0.010147351
v -0.011102975 -0.0097771454 -0.010247098
v -0.017118364 -0.0091851138 0.023619591
v -0.017121806 -0.031681687 0.024012247
v -0.01680443 -0.031698285 0.023064093
v -0.016800988 -0.0092017115 0.022671436
v -0.0088717763 -0.032229683 -0.0073118871
v -0.0088683347 -0.0097331093 -0.0077045438
v -0.007017519 -0.0097435737 -0.0082878581
v -0.0070209606 -0.032240147 -0.0078952014
v -0.0089982589 -0.0096027444 -0.000236654
v -0.0090017006 -0.032099318 0.00015600264
v -0.0070193809 -0.032064412 0.0021732258
v -0.0070159393 -0.009567839 0.0017805692
v -0.028242047 -0.022155206 -0.091392886
v -0.028510987 -0.022411103 -0.091390787
v -0.02888221 -0.022411103 -0.091394055
v -0.029151071 -0.022155207 -0.091400888
v -0.029221482 -0.02201559 -0.083402415
v -0.028952621 -0.022271487 -0.083395581
v -0.028581398 -0.022271486 -0.083392313
v -0.028312458 -0.022015589 -0.083394413
v -0.028224445 -0.02219011 -0.093392502
v -0.026178371 -0.017728099 -0.093452377
v -0.026011145 -0.018059689 -0.11244875
v -0.027002639 -0.020258551 -0.11341928
v -0.028048418 -0.022539152 -0.11338868
v -0.01977298 -0.015560886 0.030770442
v -0.019771986 -0.0090618763 0.030657008
v -0.019770624 -0.0090618763 0.03065702
v -0.019771618 -0.015560886 0.030770454
v 0.00044627034 -0.024495741 0.006107596
v -0.0056063056 -0.024391032 0.012053634
v -0.0056074528 -0.03188989 0.012184519
v -0.0032872986 -0.031930029 0.0099052049
v 0.00044568909 -0.028295162 0.0061739113
f 2 3 1
f 1 3 4
f 5 6 8
f 8 6 7
f 9 10 12
f 12 10 11
f 14 15 13
f 13 15 18
f 18 15 17
f 17 15 16
f 20 21 19
f 19 21 22
f 24 33 23
f 23 33 34
f 23 34 31
f 31 34 35
f 31 35 30
f 30 35 36
f 30 36 37
f 25 26 24
f 24 26 27
f 24 27 33
f 33 27 52
f 33 52 32
f 32 52 53
f 32 53 50
f 50 53 49
f 49 53 55
f 49 55 48
f 48 55 47
f 47 55 44
f 47 44 46
f 46 44 45
f 23 29 25
f 25 29 39
f 25 39 26
f 26 39 28
f 28 39 40
f 28 40 51
f 51 40 54
f 51 54 53
f 53 54 55
f 52 27 28
f 30 37 29
f 29 37 38
f 29 38 39
f 23 31 29
f 40 41 54
f 54 41 42
f 54 42 56
f 56 42 43
f 56 43 44
f 51 52 28
f 44 55 56
f 58 59 57
f 57 59 60
f 62 63 61
f 61 63 64
f 65 66 72
f 72 66 67
f 72 67 71
f 71 67 68
f 71 68 70
f 70 68 69
f 73 74 86
f 86 74 85
f 85 74 84
f 84 74 83
f 83 74 82
f 82 74 75
f 82 75 81
f 81 75 76
f 81 76 80
f 80 76 77
f 80 77 79
f 79 77 78
f 88 89 87
f 87 89 90
f 91 92 94
f 94 92 93
f 96 97 95
f 95 97 98
f 100 101 99
f 99 101 102
f 103 104 106
f 106 104 105
f 108 109 107
f 107 109 110
f 111 112 114
f 114 112 113
f 116 117 115
f 115 117 118
f 119 120 122
f 122 120 121
f 123 124 126
f 126 124 125
f 128 129 127
f 127 129 130
f 131 132 134
f 134 132 133
f 136 137 135
f 135 137 138
f 140 141 139
f 139 141 142
f 144 145 143
f 143 145 146
f 148 149 147
f 147 149 150
f 151 152 154
f 154 152 153
f 156 157 155
f 155 157 158
f 163 159 162
f 162 159 160
f 162 160 161
f 165 166 164
f 164 166 167
f 191 168 204
f 204 168 169
f 204 169 206
f 206 169 170
f 206 170 171
f 171 172 206
f 206 172 205
f 205 172 199
f 205 199 200
f 199 172 192
f 192 172 173
f 192 173 194
f 194 173 297
f 194 297 195
f 195 297 207
f 195 207 201
f 201 207 208
f 201 208 203
f 203 208 232
f 203 232 237
f 237 232 235
f 237 235 236
f 174 279 173
f 173 279 280
f 173 280 285
f 285 280 284
f 284 280 283
f 283 280 282
f 282 280 281
f 175 177 174
f 174 177 327
f 174 327 328
f 175 176 177
f 178 212 177
f 177 212 321
f 177 321 322
f 179 180 178
f 178 180 181
f 178 181 212
f 212 181 211
f 211 181 182
f 211 182 267
f 267 182 262
f 267 262 265
f 265 262 264
f 264 262 263
f 262 182 261
f 261 182 183
f 261 183 256
f 256 183 255
f 255 183 250
f 255 250 254
f 254 250 253
f 253 250 252
f 252 250 251
f 250 183 249
f 249 183 184
f 249 184 244
f 244 184 243
f 243 184 238
f 243 238 239
f 238 184 237
f 237 184 185
f 237 185 203
f 203 185 186
f 203 186 202
f 202 186 187
f 202 187 197
f 197 187 188
f 197 188 196
f 196 188 193
f 196 193 194
f 193 188 198
f 198 188 189
f 198 189 200
f 200 189 204
f 200 204 205
f 189 190 204
f 204 190 191
f 199 192 198
f 198 192 193
f 195 196 194
f 202 197 201
f 201 197 195
f 209 226 208
f 208 226 231
f 208 231 232
f 210 220 209
f 209 220 225
f 209 225 226
f 211 273 210
f 210 273 274
f 210 274 219
f 219 274 215
f 219 215 216
f 321 212 316
f 316 212 213
f 316 213 315
f 315 213 310
f 315 310 314
f 314 310 313
f 313 310 312
f 312 310 311
f 310 213 309
f 309 213 214
f 309 214 304
f 304 214 303
f 303 214 207
f 303 207 298
f 298 207 297
f 216 217 219
f 219 217 218
f 219 220 210
f 221 222 220
f 220 222 223
f 220 223 224
f 224 225 220
f 227 228 226
f 226 228 229
f 226 229 230
f 230 231 226
f 233 234 232
f 232 234 235
f 239 240 243
f 243 240 241
f 243 241 242
f 244 245 249
f 249 245 246
f 249 246 247
f 247 248 249
f 257 258 256
f 256 258 259
f 256 259 260
f 260 261 256
f 265 266 267
f 267 268 211
f 211 268 273
f 268 269 273
f 273 269 270
f 273 270 271
f 271 272 273
f 334 275 279
f 279 275 276
f 279 276 277
f 277 278 279
f 285 286 173
f 173 286 291
f 173 291 292
f 287 288 286
f 286 288 289
f 286 289 290
f 290 291 286
f 293 294 292
f 292 294 295
f 292 295 297
f 297 295 296
f 298 299 303
f 303 299 300
f 303 300 301
f 301 302 303
f 304 305 309
f 309 305 306
f 309 306 307
f 307 308 309
f 317 318 316
f 316 318 319
f 316 319 320
f 320 321 316
f 323 324 322
f 322 324 325
f 322 325 327
f 327 325 326
f 174 328 333
f 333 328 329
f 333 329 330
f 330 331 333
f 333 331 332
f 333 334 174
f 174 334 279
f 177 322 327
f 292 297 173
f 340 335 339
f 339 335 336
f 339 336 337
f 337 338 339
f 342 343 341
f 341 343 344
f 345 346 352
f 352 346 347
f 352 347 351
f 351 347 348
f 351 348 350
f 350 348 349
f 353 354 356
f 356 354 355
f 357 358 360
f 360 358 359
f 361 362 366
f 366 362 365
f 365 362 363
f 365 363 364
f 368 369 367
f 367 369 370
f 372 373 371
f 371 373 374
f 375 376 378
f 378 376 377
f 380 381 379
f 379 381 382
f 390 383 389
f 389 383 384
f 389 384 385
f 386 387 385
f 385 387 388
f 385 388 389
f 392 393 391
f 391 393 394
f 396 397 395
f 395 397 398
f 399 400 406
f 406 400 401
f 406 401 405
f 405 401 402
f 405 402 404
f 404 402 403
f 407 408 410
f 410 408 409
f 411 412 419
f 419 412 418
f 418 412 413
f 418 413 417
f 417 413 416
f 416 413 414
f 416 414 415
f 421 422 420
f 420 422 423
f 424 425 431
f 431 425 426
f 431 426 430
f 430 426 427
f 430 427 429
f 429 427 428
f 432 433 439
f 439 433 434
f 439 434 438
f 438 434 435
f 438 435 437
f 437 435 436
f 440 441 443
f 443 441 442
f 445 447 444
f 444 447 448
f 444 448 450
f 450 448 449
f 445 446 447
f 451 452 454
f 454 452 453
f 456 457 455
f 455 457 458
f 467 459 466
f 466 459 460
f 466 460 465
f 465 460 464
f 464 460 461
f 464 461 463
f 463 461 462
f 469 470 468
f 468 470 471
f 476 472 475
f 475 472 473
f 475 473 474
f 477 478 480
f 480 478 479
f 482 483 481
f 481 483 484
f 486 487 485
f 485 487 488
f 490 491 489
f 489 491 492
f 493 494 500
f 500 494 495
f 500 495 499
f 499 495 496
f 499 496 498
f 498 496 497
f 502 506 501
f 501 506 507
f 501 507 508
f 503 504 502
f 502 504 505
f 502 505 506
f 509 510 516
f 516 510 511
f 516 511 515
f 515 511 512
f 515 512 514
f 514 512 513
f 518 519 517
f 517 519 520
f 522 523 521
f 521 523 524
f 525 526 528
f 528 526 527
f 530 531 529
f 529 531 532
f 533 534 539
f 539 534 535
f 539 535 538
f 538 535 536
f 538 536 537
f 541 542 540
f 540 542 543
f 545 546 544
f 544 546 547
f 548 549 551
f 551 549 550
f 552 553 555
f 555 553 554
f 562 556 560
f 560 556 557
f 560 557 559
f 559 557 558
f 560 561 562
f 563 564 566
f 566 564 565
f 568 569 567
f 567 569 570
f 571 572 574
f 574 572 573
f 576 577 575
f 575 577 578
f 580 581 579
f 579 581 582
f 584 585 583
f 583 585 586
f 588 589 587
f 587 589 590
f 592 593 591
f 591 593 594
f 596 597 595
f 595 597 598
f 600 601 599
f 599 601 602
f 604 605 603
f 603 605 662
f 603 662 667
f 667 662 665
f 667 665 666
f 605 606 662
f 662 606 661
f 661 606 607
f 661 607 656
f 656 607 655
f 655 607 650
f 655 650 654
f 654 650 653
f 653 650 652
f 652 650 651
f 607 608 650
f 650 608 649
f 649 608 644
f 649 644 645
f 609 638 608
f 608 638 643
f 608 643 644
f 610 617 609
f 609 617 618
f 609 618 632
f 632 618 631
f 631 618 626
f 631 626 630
f 630 626 629
f 629 626 628
f 628 626 627
f 611 691 610
f 610 691 692
f 610 692 697
f 697 692 695
f 697 695 696
f 612 739 611
f 611 739 740
f 611 740 685
f 685 740 684
f 684 740 683
f 683 740 682
f 682 740 681
f 603 614 612
f 612 614 722
f 612 722 727
f 727 722 725
f 727 725 726
f 614 603 613
f 613 603 667
f 613 667 668
f 615 716 614
f 614 716 721
f 614 721 722
f 616 710 615
f 615 710 715
f 615 715 716
f 617 703 616
f 616 703 704
f 616 704 709
f 709 704 705
f 709 705 706
f 618 619 626
f 626 619 625
f 625 619 680
f 625 680 624
f 624 680 623
f 623 680 622
f 622 680 621
f 680 619 679
f 679 619 620
f 679 620 674
f 674 620 673
f 673 620 613
f 673 613 668
f 633 634 632
f 632 634 635
f 632 635 637
f 637 635 636
f 632 637 609
f 609 637 638
f 638 639 643
f 643 639 640
f 643 640 641
f 641 642 643
f 645 646 649
f 649 646 647
f 649 647 648
f 657 658 656
f 656 658 659
f 656 659 660
f 660 661 656
f 663 664 662
f 662 664 665
f 668 669 673
f 673 669 670
f 673 670 671
f 671 672 673
f 674 675 679
f 679 675 676
f 679 676 677
f 677 678 679
f 685 686 611
f 611 686 691
f 687 688 686
f 686 688 689
f 686 689 690
f 690 691 686
f 693 694 692
f 692 694 695
f 610 697 617
f 617 697 698
f 617 698 703
f 703 698 699
f 703 699 700
f 700 701 703
f 703 701 702
f 706 707 709
f 709 707 708
f 709 710 616
f 711 712 710
f 710 712 713
f 710 713 714
f 714 715 710
f 717 718 716
f 716 718 719
f 716 719 720
f 720 721 716
f 723 724 722
f 722 724 725
f 727 728 612
f 612 728 733
f 612 733 734
f 728 729 733
f 733 729 730
f 733 730 731
f 731 732 733
f 612 734 739
f 739 734 735
f 739 735 736
f 736 737 739
f 739 737 738
f 741 742 748
f 748 742 743
f 748 743 747
f 747 743 744
f 747 744 746
f 746 744 745
f 750 751 749
f 749 751 752
f 749 752 753
f 753 754 749
f 755 756 758
f 758 756 757
f 764 759 762
f 762 759 760
f 762 760 761
f 762 763 764
f 765 766 772
f 772 766 767
f 772 767 771
f 771 767 768
f 771 768 770
f 770 768 769
f 774 775 773
f 773 775 776
f 778 779 777
f 777 779 780
f 781 782 784
f 784 782 783
f 786 787 785
f 785 787 788
f 790 791 789
f 789 791 792
f 793 794 796
f 796 794 795
f 797 798 800
f 800 798 799
f 802 803 801
f 801 803 804
f 806 808 805
f 805 808 809
f 805 809 810
f 806 807 808
f 811 812 818
f 818 812 813
f 818 813 817
f 817 813 814
f 817 814 816
f 816 814 815
f 819 820 822
f 822 820 821
f 823 824 826
f 826 824 825
f 827 828 830
f 830 828 829
f 832 833 831
f 831 833 834
f 835 836 842
f 842 836 837
f 842 837 841
f 841 837 838
f 841 838 840
f 840 838 839
f 844 845 843
f 843 845 846
f 847 848 854
f 854 848 849
f 854 849 853
f 853 849 850
f 853 850 852
f 852 850 851
f 855 856 858
f 858 856 857
f 860 861 859
f 859 861 862
f 863 864 867
f 867 864 866
f 866 864 865
f 868 869 873
f 873 869 870
f 873 870 871
f 871 872 873
f 875 876 874
f 874 876 877
f 879 880 878
f 878 880 881
f 883 884 882
f 882 884 885
f 887 888 886
f 886 888 889
f 891 892 890
f 890 892 893
f 895 896 894
f 894 896 906
f 906 896 897
f 906 897 905
f 905 897 902
f 905 902 903
f 897 898 902
f 902 898 901
f 901 898 899
f 901 899 900
f 903 904 905
f 907 908 910
f 910 908 909
f 912 913 911
f 911 913 914
f 916 917 915
f 915 917 918
f 919 920 923
f 923 920 922
f 922 920 921
f 925 926 924
f 924 926 927
f 928 929 931
f 931 929 930
f 932 933 938
f 938 933 937
f 937 933 934
f 937 934 936
f 936 934 935
f 940 941 939
f 939 941 942
f 943 944 950
f 950 944 945
f 950 945 949
f 949 945 946
f 949 946 948
f 948 946 947
f 951 952 958
f 958 952 953
f 958 953 957
f 957 953 954
f 957 954 956
f 956 954 955
f 959 960 966
f 966 960 961
f 966 961 965
f 965 961 962
f 965 962 964
f 964 962 963
f 967 968 974
f 974 968 969
f 974 969 973
f 973 969 970
f 973 970 972
f 972 970 971
f 975 976 978
f 978 976 977
f 979 980 986
f 986 980 981
f 986 981 985
f 985 981 982
f 985 982 984
f 984 982 983
f 988 989 987
f 987 989 990
f 992 993 991
f 991 993 994
f 996 997 995
f 995 997 998
f 999 1000 1006
f 1006 1000 1005
f 1005 1000 1002
f 1005 1002 1004
f 1004 1002 1003
f 1000 1001 1002
f 1007 1008 1010
f 1010 1008 1009
f 1011 1012 1018
f 1018 1012 1013
f 1018 1013 1017
f 1017 1013 1014
f 1017 1014 1016
f 1016 1014 1015
f 1019 1020 1024
f 1024 1020 1021
f 1024 1021 1022
f 1022 1023 1024
f 1025 1026 1032
f 1032 1026 1027
f 1032 1027 1031
f 1031 1027 1028
f 1031 1028 1030
f 1030 1028 1029
f 1034 1035 1033
f 1033 1035 1036
f 1038 1039 1037
f 1037 1039 1040
f 1042 1043 1041
f 1041 1043 1058
f 1041 1058 1060
f 1060 1058 1059
f 1043 1044 1058
f 1058 1044 1057
f 1057 1044 1052
f 1057 1052 1056
f 1056 1052 1053
f 1056 1053 1055
f 1055 1053 1054
f 1045 1046 1044
f 1044 1046 1051
f 1044 1051 1052
f 1046 1047 1051
f 1051 1047 1050
f 1050 1047 1048
f 1050 1048 1049
f 1061 1062 1064
f 1064 1062 1063
f 1066 1067 1065
f 1065 1067 1068
f 1070 1071 1069
f 1069 1071 1072
f 1074 1075 1073
f 1073 1075 1076
f 1078 1079 1077
f 1077 1079 1080
f 1081 1082 1084
f 1084 1082 1083
f 1085 1086 1088
f 1088 1086 1087
f 1090 1091 1089
f 1089 1091 1092
f 1094 1095 1093
f 1093 1095 1096
f 1098 1099 1097
f 1097 1099 1106
f 1106 1099 1100
f 1106 1100 1105
f 1105 1100 1101
f 1105 1101 1102
f 1103 1104 1102
f 1102 1104 1105
f 1107 1108 1110
f 1110 1108 1109
f 1111 1112 1118
f 1118 1112 1113
f 1118 1113 1117
f 1117 1113 1114
f 1117 1114 1116
f 1116 1114 1115
f 1120 1121 1119
f 1119 1121 1122
f 1124 1125 1123
f 1123 1125 1126
f 1127 1128 1130
f 1130 1128 1129
f 1138 1131 1137
f 1137 1131 1132
f 1137 1132 1133
f 1134 1135 1133
f 1133 1135 1136
f 1133 1136 1137
f 1143 1139 1142
f 1142 1139 1140
f 1142 1140 1141
f 1144 1145 1147
f 1147 1145 1146
f 1148 1149 1152
f 1152 1149 1151
f 1151 1149 1150
