v -0.39200001 0.2211425 0.31200001
v -0.395 0.2211425 0.31200001
v -0.395 0.22414251 0.31200001
v -0.39200001 0.22414251 0.31200001
v -0.395 0.22414251 0.31200001
v -0.395 0.22414251 0.6
v -0.39200001 0.22414251 0.6
v -0.39200001 0.22414251 0.31200001
v -0.395 0.22414251 0.6
v -0.395 0.099142508 0.6
v -0.39200001 0.099142508 0.6
v -0.39200001 0.22414251 0.6
v -0.39200001 0.2211425 0.54
v -0.39200001 0.2211425 0.31200001
v -0.39200001 0.22414251 0.31200001
v -0.39200001 0.22414251 0.6
v -0.39200001 0.099142508 0.6
v -0.39200001 0.083803858 0.59018471
v -0.39200001 0.072861599 0.57562859
v -0.39200001 0.067695097 0.55816658
v -0.39200001 0.068955664 0.54
v -0.395 0.068955664 0.54
v -0.39200001 0.068955664 0.54
v -0.39200001 0.067695097 0.55816658
v -0.39200001 0.072861599 0.57562859
v -0.39200001 0.083803858 0.59018471
v -0.39200001 0.099142508 0.6
v -0.395 0.099142508 0.6
v -0.395 0.083803858 0.59018471
v -0.395 0.072861599 0.57562859
v -0.395 0.067695097 0.55816658
v -0.395 0.2211425 0.31200001
v -0.395 0.2211425 0.54
v -0.395 0.068955664 0.54
v -0.395 0.067695097 0.55816658
v -0.395 0.072861599 0.57562859
v -0.395 0.083803858 0.59018471
v -0.395 0.099142508 0.6
v -0.395 0.22414251 0.6
v -0.395 0.22414251 0.31200001
v -0.395 0.2211425 0.54
v -0.395 0.2211425 0.31200001
v -0.39200001 0.2211425 0.31200001
v -0.39200001 0.2211425 0.54
v -0.395 0.068955664 0.54
v -0.395 0.2211425 0.54
v -0.39200001 0.2211425 0.54
v -0.39200001 0.068955664 0.54
f 2 3 1
f 1 3 4
f 5 6 8
f 8 6 7
f 9 10 12
f 12 10 11
f 14 15 13
f 13 15 16
f 13 16 17
f 13 17 21
f 21 17 18
f 21 18 19
f 19 20 21
f 22 23 31
f 31 23 24
f 31 24 30
f 30 24 25
f 30 25 29
f 29 25 26
f 29 26 28
f 28 26 27
f 32 33 40
f 40 33 39
f 39 33 38
f 38 33 34
f 38 34 37
f 37 34 36
f 36 34 35
f 41 42 44
f 44 42 43
f 46 47 45
f 45 47 48
v -0.709 -0.3688575 0.02
v -0.61 -0.3688575 0.02
v -0.61 -0.3728575 0.02
v -0.709 -0.3728575 0.02
v -0.709 -0.3688575 0.085
v -0.709 -0.3688575 0.02
v -0.709 -0.3728575 0.02
v -0.709 -0.3728575 0.085
v -0.709 -0.3728575 0.02
v -0.61 -0.3728575 0.02
v -0.61 -0.3728575 0.085
v -0.709 -0.3728575 0.085
v -0.61 -0.3688575 0.085
v -0.709 -0.3688575 0.085
v -0.709 -0.3728575 0.085
v -0.61 -0.3728575 0.085
v -0.61 -0.3688575 0.02
v -0.61 -0.3688575 0.085
v -0.61 -0.3728575 0.085
v -0.61 -0.3728575 0.02
v -0.709 -0.3688575 0.02
v -0.709 -0.3688575 0.085
v -0.61 -0.3688575 0.085
v -0.61 -0.3688575 0.02
f 49 50 52
f 52 50 51
f 54 55 53
f 53 55 56
f 57 58 60
f 60 58 59
f 61 62 64
f 64 62 63
f 66 67 65
f 65 67 68
f 69 70 72
f 72 70 71
v -0.386 0.18514249 0.044000001
v -0.386 0.2071425 0.044000001
v -0.38 0.2071425 0.044000001
v -0.38 0.18514249 0.044000001
v -0.38 0.2071425 0.33799999
v -0.38 0.18514249 0.33799999
v -0.38 0.18514249 0.044000001
v -0.38 0.2071425 0.044000001
v -0.386 0.2071425 0.33799999
v -0.38 0.2071425 0.33799999
v -0.38 0.2071425 0.044000001
v -0.386 0.2071425 0.044000001
v -0.386 0.18514249 0.33799999
v -0.386 0.2071425 0.33799999
v -0.386 0.2071425 0.044000001
v -0.386 0.18514249 0.044000001
v -0.38 0.18514249 0.33799999
v -0.386 0.18514249 0.33799999
v -0.386 0.18514249 0.044000001
v -0.38 0.18514249 0.044000001
v -0.38 0.2071425 0.33799999
v -0.386 0.2071425 0.33799999
v -0.386 0.18514249 0.33799999
v -0.38 0.18514249 0.33799999
f 74 75 73
f 73 75 76
f 77 78 80
f 80 78 79
f 81 82 84
f 84 82 83
f 85 86 88
f 88 86 87
f 89 90 92
f 92 90 91
f 93 94 96
f 96 94 95
v -0.39200001 0.2211425 0.59200001
v -0.39200001 0.2211425 0.58
v -0.39200001 0.20914251 0.58
v -0.39200001 0.20914251 0.59200001
v -0.39 0.20914251 0.58
v -0.39 0.20914251 0.59200001
v -0.39200001 0.20914251 0.59200001
v -0.39200001 0.20914251 0.58
v -0.39 0.2211425 0.58
v -0.39 0.20914251 0.58
v -0.39200001 0.20914251 0.58
v -0.39200001 0.2211425 0.58
v -0.39 0.2211425 0.59200001
v -0.39 0.2211425 0.58
v -0.39200001 0.2211425 0.58
v -0.39200001 0.2211425 0.59200001
v -0.39 0.20914251 0.59200001
v -0.39 0.2211425 0.59200001
v -0.39200001 0.2211425 0.59200001
v -0.39200001 0.20914251 0.59200001
v -0.39 0.20914251 0.58
v -0.39 0.2211425 0.58
v -0.39 0.2211425 0.59200001
v -0.39 0.20914251 0.59200001
f 97 98 100
f 100 98 99
f 101 102 104
f 104 102 103
f 106 107 105
f 105 107 108
f 109 110 112
f 112 110 111
f 114 115 113
f 113 115 116
f 118 119 117
f 117 119 120
v -0.24799999 0.20914251 0.59200001
v -0.24799999 0.20914251 0.58
v -0.24799999 0.2211425 0.58
v -0.24799999 0.2211425 0.59200001
v -0.25 0.2211425 0.58
v -0.25 0.2211425 0.59200001
v -0.24799999 0.2211425 0.59200001
v -0.24799999 0.2211425 0.58
v -0.25 0.20914251 0.58
v -0.25 0.2211425 0.58
v -0.24799999 0.2211425 0.58
v -0.24799999 0.20914251 0.58
v -0.25 0.20914251 0.59200001
v -0.25 0.20914251 0.58
v -0.24799999 0.20914251 0.58
v -0.24799999 0.20914251 0.59200001
v -0.25 0.2211425 0.59200001
v -0.25 0.20914251 0.59200001
v -0.24799999 0.20914251 0.59200001
v -0.24799999 0.2211425 0.59200001
v -0.25 0.2211425 0.58
v -0.25 0.20914251 0.58
v -0.25 0.20914251 0.59200001
v -0.25 0.2211425 0.59200001
f 121 122 124
f 124 122 123
f 125 126 128
f 128 126 127
f 130 131 129
f 129 131 132
f 133 134 136
f 136 134 135
f 138 139 137
f 137 139 140
f 142 143 141
f 141 143 144
v -0.649 -0.2978575 0.34
v -0.649 -0.2978575 0.33983002
v -0.649 -0.2378575 0.33983002
v -0.649 -0.2378575 0.34
v -0.649 -0.2378575 0.34
v -0.649 -0.2378575 0.33983002
v -0.673 -0.2378575 0.33983002
v -0.673 -0.2378575 0.34
v -0.673 -0.2378575 0.34
v -0.673 -0.2378575 0.33983002
v -0.673 -0.2978575 0.33983002
v -0.673 -0.2978575 0.34
v -0.673 -0.2978575 0.34
v -0.673 -0.2978575 0.33983002
v -0.649 -0.2978575 0.33983002
v -0.649 -0.2978575 0.34
v -0.649 -0.2378575 0.33983002
v -0.649 -0.2978575 0.33983002
v -0.673 -0.2978575 0.33983002
v -0.673 -0.2378575 0.33983002
v -0.649 -0.2978575 0.34
v -0.649 -0.2378575 0.34
v -0.673 -0.2378575 0.34
v -0.673 -0.2978575 0.34
f 145 146 148
f 148 146 147
f 149 150 152
f 152 150 151
f 153 154 156
f 156 154 155
f 157 158 160
f 160 158 159
f 162 163 161
f 161 163 164
f 166 167 165
f 165 167 168
v -0.649 -0.2978575 0.33983002
v -0.649 -0.2978575 0.33966
v -0.649 -0.2378575 0.33966
v -0.649 -0.2378575 0.33983002
v -0.649 -0.2378575 0.33983002
v -0.649 -0.2378575 0.33966
v -0.673 -0.2378575 0.33966
v -0.673 -0.2378575 0.33983002
v -0.673 -0.2378575 0.33983002
v -0.673 -0.2378575 0.33966
v -0.673 -0.2978575 0.33966
v -0.673 -0.2978575 0.33983002
v -0.673 -0.2978575 0.33983002
v -0.673 -0.2978575 0.33966
v -0.649 -0.2978575 0.33966
v -0.649 -0.2978575 0.33983002
v -0.649 -0.2378575 0.33966
v -0.649 -0.2978575 0.33966
v -0.673 -0.2978575 0.33966
v -0.673 -0.2378575 0.33966
v -0.649 -0.2978575 0.33983002
v -0.649 -0.2378575 0.33983002
v -0.673 -0.2378575 0.33983002
v -0.673 -0.2978575 0.33983002
f 169 170 172
f 172 170 171
f 173 174 176
f 176 174 175
f 177 178 180
f 180 178 179
f 181 182 184
f 184 182 183
f 186 187 185
f 185 187 188
f 190 191 189
f 189 191 192
v -0.649 -0.2978575 0.33966
v -0.649 -0.2978575 0.33949001
v -0.649 -0.2378575 0.33949001
v -0.649 -0.2378575 0.33966
v -0.649 -0.2378575 0.33966
v -0.649 -0.2378575 0.33949001
v -0.673 -0.2378575 0.33949001
v -0.673 -0.2378575 0.33966
v -0.673 -0.2378575 0.33966
v -0.673 -0.2378575 0.33949001
v -0.673 -0.2978575 0.33949001
v -0.673 -0.2978575 0.33966
v -0.673 -0.2978575 0.33966
v -0.673 -0.2978575 0.33949001
v -0.649 -0.2978575 0.33949001
v -0.649 -0.2978575 0.33966
v -0.649 -0.2378575 0.33949001
v -0.649 -0.2978575 0.33949001
v -0.673 -0.2978575 0.33949001
v -0.673 -0.2378575 0.33949001
v -0.649 -0.2978575 0.33966
v -0.649 -0.2378575 0.33966
v -0.673 -0.2378575 0.33966
v -0.673 -0.2978575 0.33966
f 193 194 196
f 196 194 195
f 197 198 200
f 200 198 199
f 201 202 204
f 204 202 203
f 205 206 208
f 208 206 207
f 210 211 209
f 209 211 212
f 214 215 213
f 213 215 216
v -0.649 -0.2978575 0.33949001
v -0.649 -0.2978575 0.33931999
v -0.649 -0.2378575 0.33931999
v -0.649 -0.2378575 0.33949001
v -0.649 -0.2378575 0.33949001
v -0.649 -0.2378575 0.33931999
v -0.673 -0.2378575 0.33931999
v -0.673 -0.2378575 0.33949001
v -0.673 -0.2378575 0.33949001
v -0.673 -0.2378575 0.33931999
v -0.673 -0.2978575 0.33931999
v -0.673 -0.2978575 0.33949001
v -0.673 -0.2978575 0.33949001
v -0.673 -0.2978575 0.33931999
v -0.649 -0.2978575 0.33931999
v -0.649 -0.2978575 0.33949001
v -0.649 -0.2378575 0.33931999
v -0.649 -0.2978575 0.33931999
v -0.673 -0.2978575 0.33931999
v -0.673 -0.2378575 0.33931999
v -0.649 -0.2978575 0.33949001
v -0.649 -0.2378575 0.33949001
v -0.673 -0.2378575 0.33949001
v -0.673 -0.2978575 0.33949001
f 217 218 220
f 220 218 219
f 221 222 224
f 224 222 223
f 225 226 228
f 228 226 227
f 229 230 232
f 232 230 231
f 234 235 233
f 233 235 236
f 238 239 237
f 237 239 240
v -0.649 -0.2978575 0.33931999
v -0.649 -0.2978575 0.33915001
v -0.649 -0.2378575 0.33915001
v -0.649 -0.2378575 0.33931999
v -0.649 -0.2378575 0.33931999
v -0.649 -0.2378575 0.33915001
v -0.673 -0.2378575 0.33915001
v -0.673 -0.2378575 0.33931999
v -0.673 -0.2378575 0.33931999
v -0.673 -0.2378575 0.33915001
v -0.673 -0.2978575 0.33915001
v -0.673 -0.2978575 0.33931999
v -0.673 -0.2978575 0.33931999
v -0.673 -0.2978575 0.33915001
v -0.649 -0.2978575 0.33915001
v -0.649 -0.2978575 0.33931999
v -0.649 -0.2378575 0.33915001
v -0.649 -0.2978575 0.33915001
v -0.673 -0.2978575 0.33915001
v -0.673 -0.2378575 0.33915001
v -0.649 -0.2978575 0.33931999
v -0.649 -0.2378575 0.33931999
v -0.673 -0.2378575 0.33931999
v -0.673 -0.2978575 0.33931999
f 241 242 244
f 244 242 243
f 245 246 248
f 248 246 247
f 249 250 252
f 252 250 251
f 253 254 256
f 256 254 255
f 258 259 257
f 257 259 260
f 262 263 261
f 261 263 264
v -0.649 -0.2978575 0.33915001
v -0.649 -0.2978575 0.33897999
v -0.649 -0.2378575 0.33897999
v -0.649 -0.2378575 0.33915001
v -0.649 -0.2378575 0.33915001
v -0.649 -0.2378575 0.33897999
v -0.673 -0.2378575 0.33897999
v -0.673 -0.2378575 0.33915001
v -0.673 -0.2378575 0.33915001
v -0.673 -0.2378575 0.33897999
v -0.673 -0.2978575 0.33897999
v -0.673 -0.2978575 0.33915001
v -0.673 -0.2978575 0.33915001
v -0.673 -0.2978575 0.33897999
v -0.649 -0.2978575 0.33897999
v -0.649 -0.2978575 0.33915001
v -0.649 -0.2378575 0.33897999
v -0.649 -0.2978575 0.33897999
v -0.673 -0.2978575 0.33897999
v -0.673 -0.2378575 0.33897999
v -0.649 -0.2978575 0.33915001
v -0.649 -0.2378575 0.33915001
v -0.673 -0.2378575 0.33915001
v -0.673 -0.2978575 0.33915001
f 265 266 268
f 268 266 267
f 269 270 272
f 272 270 271
f 273 274 276
f 276 274 275
f 277 278 280
f 280 278 279
f 282 283 281
f 281 283 284
f 286 287 285
f 285 287 288
v -0.649 -0.2978575 0.33897999
v -0.649 -0.2978575 0.33881001
v -0.649 -0.2378575 0.33881001
v -0.649 -0.2378575 0.33897999
v -0.649 -0.2378575 0.33897999
v -0.649 -0.2378575 0.33881001
v -0.673 -0.2378575 0.33881001
v -0.673 -0.2378575 0.33897999
v -0.673 -0.2378575 0.33897999
v -0.673 -0.2378575 0.33881001
v -0.673 -0.2978575 0.33881001
v -0.673 -0.2978575 0.33897999
v -0.673 -0.2978575 0.33897999
v -0.673 -0.2978575 0.33881001
v -0.649 -0.2978575 0.33881001
v -0.649 -0.2978575 0.33897999
v -0.649 -0.2378575 0.33881001
v -0.649 -0.2978575 0.33881001
v -0.673 -0.2978575 0.33881001
v -0.673 -0.2378575 0.33881001
v -0.649 -0.2978575 0.33897999
v -0.649 -0.2378575 0.33897999
v -0.673 -0.2378575 0.33897999
v -0.673 -0.2978575 0.33897999
f 289 290 292
f 292 290 291
f 293 294 296
f 296 294 295
f 297 298 300
f 300 298 299
f 301 302 304
f 304 302 303
f 306 307 305
f 305 307 308
f 310 311 309
f 309 311 312
v -0.649 -0.2978575 0.33881001
v -0.649 -0.2978575 0.33863998
v -0.649 -0.2378575 0.33863998
v -0.649 -0.2378575 0.33881001
v -0.649 -0.2378575 0.33881001
v -0.649 -0.2378575 0.33863998
v -0.673 -0.2378575 0.33863998
v -0.673 -0.2378575 0.33881001
v -0.673 -0.2378575 0.33881001
v -0.673 -0.2378575 0.33863998
v -0.673 -0.2978575 0.33863998
v -0.673 -0.2978575 0.33881001
v -0.673 -0.2978575 0.33881001
v -0.673 -0.2978575 0.33863998
v -0.649 -0.2978575 0.33863998
v -0.649 -0.2978575 0.33881001
v -0.649 -0.2378575 0.33863998
v -0.649 -0.2978575 0.33863998
v -0.673 -0.2978575 0.33863998
v -0.673 -0.2378575 0.33863998
v -0.649 -0.2978575 0.33881001
v -0.649 -0.2378575 0.33881001
v -0.673 -0.2378575 0.33881001
v -0.673 -0.2978575 0.33881001
f 313 314 316
f 316 314 315
f 317 318 320
f 320 318 319
f 321 322 324
f 324 322 323
f 325 326 328
f 328 326 327
f 330 331 329
f 329 331 332
f 334 335 333
f 333 335 336
v -0.649 -0.2978575 0.33863998
v -0.649 -0.2978575 0.33847
v -0.649 -0.2378575 0.33847
v -0.649 -0.2378575 0.33863998
v -0.649 -0.2378575 0.33863998
v -0.649 -0.2378575 0.33847
v -0.673 -0.2378575 0.33847
v -0.673 -0.2378575 0.33863998
v -0.673 -0.2378575 0.33863998
v -0.673 -0.2378575 0.33847
v -0.673 -0.2978575 0.33847
v -0.673 -0.2978575 0.33863998
v -0.673 -0.2978575 0.33863998
v -0.673 -0.2978575 0.33847
v -0.649 -0.2978575 0.33847
v -0.649 -0.2978575 0.33863998
v -0.649 -0.2378575 0.33847
v -0.649 -0.2978575 0.33847
v -0.673 -0.2978575 0.33847
v -0.673 -0.2378575 0.33847
v -0.649 -0.2978575 0.33863998
v -0.649 -0.2378575 0.33863998
v -0.673 -0.2378575 0.33863998
v -0.673 -0.2978575 0.33863998
f 337 338 340
f 340 338 339
f 341 342 344
f 344 342 343
f 345 346 348
f 348 346 347
f 349 350 352
f 352 350 351
f 354 355 353
f 353 355 356
f 358 359 357
f 357 359 360
v -0.649 -0.2978575 0.33847
v -0.649 -0.2978575 0.33830002
v -0.649 -0.2378575 0.33830002
v -0.649 -0.2378575 0.33847
v -0.649 -0.2378575 0.33847
v -0.649 -0.2378575 0.33830002
v -0.673 -0.2378575 0.33830002
v -0.673 -0.2378575 0.33847
v -0.673 -0.2378575 0.33847
v -0.673 -0.2378575 0.33830002
v -0.673 -0.2978575 0.33830002
v -0.673 -0.2978575 0.33847
v -0.673 -0.2978575 0.33847
v -0.673 -0.2978575 0.33830002
v -0.649 -0.2978575 0.33830002
v -0.649 -0.2978575 0.33847
v -0.649 -0.2378575 0.33830002
v -0.649 -0.2978575 0.33830002
v -0.673 -0.2978575 0.33830002
v -0.673 -0.2378575 0.33830002
v -0.649 -0.2978575 0.33847
v -0.649 -0.2378575 0.33847
v -0.673 -0.2378575 0.33847
v -0.673 -0.2978575 0.33847
f 361 362 364
f 364 362 363
f 365 366 368
f 368 366 367
f 369 370 372
f 372 370 371
f 373 374 376
f 376 374 375
f 378 379 377
f 377 379 380
f 382 383 381
f 381 383 384
v -0.649 -0.2978575 0.33830002
v -0.649 -0.2978575 0.33813
v -0.649 -0.2378575 0.33813
v -0.649 -0.2378575 0.33830002
v -0.649 -0.2378575 0.33830002
v -0.649 -0.2378575 0.33813
v -0.673 -0.2378575 0.33813
v -0.673 -0.2378575 0.33830002
v -0.673 -0.2378575 0.33830002
v -0.673 -0.2378575 0.33813
v -0.673 -0.2978575 0.33813
v -0.673 -0.2978575 0.33830002
v -0.673 -0.2978575 0.33830002
v -0.673 -0.2978575 0.33813
v -0.649 -0.2978575 0.33813
v -0.649 -0.2978575 0.33830002
v -0.649 -0.2378575 0.33813
v -0.649 -0.2978575 0.33813
v -0.673 -0.2978575 0.33813
v -0.673 -0.2378575 0.33813
v -0.649 -0.2978575 0.33830002
v -0.649 -0.2378575 0.33830002
v -0.673 -0.2378575 0.33830002
v -0.673 -0.2978575 0.33830002
f 385 386 388
f 388 386 387
f 389 390 392
f 392 390 391
f 393 394 396
f 396 394 395
f 397 398 400
f 400 398 399
f 402 403 401
f 401 403 404
f 406 407 405
f 405 407 408
v -0.649 -0.2978575 0.33813
v -0.649 -0.2978575 0.33796001
v -0.649 -0.2378575 0.33796001
v -0.649 -0.2378575 0.33813
v -0.649 -0.2378575 0.33813
v -0.649 -0.2378575 0.33796001
v -0.673 -0.2378575 0.33796001
v -0.673 -0.2378575 0.33813
v -0.673 -0.2378575 0.33813
v -0.673 -0.2378575 0.33796001
v -0.673 -0.2978575 0.33796001
v -0.673 -0.2978575 0.33813
v -0.673 -0.2978575 0.33813
v -0.673 -0.2978575 0.33796001
v -0.649 -0.2978575 0.33796001
v -0.649 -0.2978575 0.33813
v -0.649 -0.2378575 0.33796001
v -0.649 -0.2978575 0.33796001
v -0.673 -0.2978575 0.33796001
v -0.673 -0.2378575 0.33796001
v -0.649 -0.2978575 0.33813
v -0.649 -0.2378575 0.33813
v -0.673 -0.2378575 0.33813
v -0.673 -0.2978575 0.33813
f 409 410 412
f 412 410 411
f 413 414 416
f 416 414 415
f 417 418 420
f 420 418 419
f 421 422 424
f 424 422 423
f 426 427 425
f 425 427 428
f 430 431 429
f 429 431 432
v -0.649 -0.2978575 0.33796001
v -0.649 -0.2978575 0.33778999
v -0.649 -0.2378575 0.33778999
v -0.649 -0.2378575 0.33796001
v -0.649 -0.2378575 0.33796001
v -0.649 -0.2378575 0.33778999
v -0.673 -0.2378575 0.33778999
v -0.673 -0.2378575 0.33796001
v -0.673 -0.2378575 0.33796001
v -0.673 -0.2378575 0.33778999
v -0.673 -0.2978575 0.33778999
v -0.673 -0.2978575 0.33796001
v -0.673 -0.2978575 0.33796001
v -0.673 -0.2978575 0.33778999
v -0.649 -0.2978575 0.33778999
v -0.649 -0.2978575 0.33796001
v -0.649 -0.2378575 0.33778999
v -0.649 -0.2978575 0.33778999
v -0.673 -0.2978575 0.33778999
v -0.673 -0.2378575 0.33778999
v -0.649 -0.2978575 0.33796001
v -0.649 -0.2378575 0.33796001
v -0.673 -0.2378575 0.33796001
v -0.673 -0.2978575 0.33796001
f 433 434 436
f 436 434 435
f 437 438 440
f 440 438 439
f 441 442 444
f 444 442 443
f 445 446 448
f 448 446 447
f 450 451 449
f 449 451 452
f 454 455 453
f 453 455 456
v -0.649 -0.2978575 0.33778999
v -0.649 -0.2978575 0.33762001
v -0.649 -0.2378575 0.33762001
v -0.649 -0.2378575 0.33778999
v -0.649 -0.2378575 0.33778999
v -0.649 -0.2378575 0.33762001
v -0.673 -0.2378575 0.33762001
v -0.673 -0.2378575 0.33778999
v -0.673 -0.2378575 0.33778999
v -0.673 -0.2378575 0.33762001
v -0.673 -0.2978575 0.33762001
v -0.673 -0.2978575 0.33778999
v -0.673 -0.2978575 0.33778999
v -0.673 -0.2978575 0.33762001
v -0.649 -0.2978575 0.33762001
v -0.649 -0.2978575 0.33778999
v -0.649 -0.2378575 0.33762001
v -0.649 -0.2978575 0.33762001
v -0.673 -0.2978575 0.33762001
v -0.673 -0.2378575 0.33762001
v -0.649 -0.2978575 0.33778999
v -0.649 -0.2378575 0.33778999
v -0.673 -0.2378575 0.33778999
v -0.673 -0.2978575 0.33778999
f 457 458 460
f 460 458 459
f 461 462 464
f 464 462 463
f 465 466 468
f 468 466 467
f 469 470 472
f 472 470 471
f 474 475 473
f 473 475 476
f 478 479 477
f 477 479 480
v -0.649 -0.2978575 0.33762001
v -0.649 -0.2978575 0.33744999
v -0.649 -0.2378575 0.33744999
v -0.649 -0.2378575 0.33762001
v -0.649 -0.2378575 0.33762001
v -0.649 -0.2378575 0.33744999
v -0.673 -0.2378575 0.33744999
v -0.673 -0.2378575 0.33762001
v -0.673 -0.2378575 0.33762001
v -0.673 -0.2378575 0.33744999
v -0.673 -0.2978575 0.33744999
v -0.673 -0.2978575 0.33762001
v -0.673 -0.2978575 0.33762001
v -0.673 -0.2978575 0.33744999
v -0.649 -0.2978575 0.33744999
v -0.649 -0.2978575 0.33762001
v -0.649 -0.2378575 0.33744999
v -0.649 -0.2978575 0.33744999
v -0.673 -0.2978575 0.33744999
v -0.673 -0.2378575 0.33744999
v -0.649 -0.2978575 0.33762001
v -0.649 -0.2378575 0.33762001
v -0.673 -0.2378575 0.33762001
v -0.673 -0.2978575 0.33762001
f 481 482 484
f 484 482 483
f 485 486 488
f 488 486 487
f 489 490 492
f 492 490 491
f 493 494 496
f 496 494 495
f 498 499 497
f 497 499 500
f 502 503 501
f 501 503 504
v -0.649 -0.2978575 0.33744999
v -0.649 -0.2978575 0.33728001
v -0.649 -0.2378575 0.33728001
v -0.649 -0.2378575 0.33744999
v -0.649 -0.2378575 0.33744999
v -0.649 -0.2378575 0.33728001
v -0.673 -0.2378575 0.33728001
v -0.673 -0.2378575 0.33744999
v -0.673 -0.2378575 0.33744999
v -0.673 -0.2378575 0.33728001
v -0.673 -0.2978575 0.33728001
v -0.673 -0.2978575 0.33744999
v -0.673 -0.2978575 0.33744999
v -0.673 -0.2978575 0.33728001
v -0.649 -0.2978575 0.33728001
v -0.649 -0.2978575 0.33744999
v -0.649 -0.2378575 0.33728001
v -0.649 -0.2978575 0.33728001
v -0.673 -0.2978575 0.33728001
v -0.673 -0.2378575 0.33728001
v -0.649 -0.2978575 0.33744999
v -0.649 -0.2378575 0.33744999
v -0.673 -0.2378575 0.33744999
v -0.673 -0.2978575 0.33744999
f 505 506 508
f 508 506 507
f 509 510 512
f 512 510 511
f 513 514 516
f 516 514 515
f 517 518 520
f 520 518 519
f 522 523 521
f 521 523 524
f 526 527 525
f 525 527 528
v -0.649 -0.2978575 0.33728001
v -0.649 -0.2978575 0.33710999
v -0.649 -0.2378575 0.33710999
v -0.649 -0.2378575 0.33728001
v -0.649 -0.2378575 0.33728001
v -0.649 -0.2378575 0.33710999
v -0.673 -0.2378575 0.33710999
v -0.673 -0.2378575 0.33728001
v -0.673 -0.2378575 0.33728001
v -0.673 -0.2378575 0.33710999
v -0.673 -0.2978575 0.33710999
v -0.673 -0.2978575 0.33728001
v -0.673 -0.2978575 0.33728001
v -0.673 -0.2978575 0.33710999
v -0.649 -0.2978575 0.33710999
v -0.649 -0.2978575 0.33728001
v -0.649 -0.2378575 0.33710999
v -0.649 -0.2978575 0.33710999
v -0.673 -0.2978575 0.33710999
v -0.673 -0.2378575 0.33710999
v -0.649 -0.2978575 0.33728001
v -0.649 -0.2378575 0.33728001
v -0.673 -0.2378575 0.33728001
v -0.673 -0.2978575 0.33728001
f 529 530 532
f 532 530 531
f 533 534 536
f 536 534 535
f 537 538 540
f 540 538 539
f 541 542 544
f 544 542 543
f 546 547 545
f 545 547 548
f 550 551 549
f 549 551 552
v -0.649 -0.2978575 0.33710999
v -0.649 -0.2978575 0.33694
v -0.649 -0.2378575 0.33694
v -0.649 -0.2378575 0.33710999
v -0.649 -0.2378575 0.33710999
v -0.649 -0.2378575 0.33694
v -0.673 -0.2378575 0.33694
v -0.673 -0.2378575 0.33710999
v -0.673 -0.2378575 0.33710999
v -0.673 -0.2378575 0.33694
v -0.673 -0.2978575 0.33694
v -0.673 -0.2978575 0.33710999
v -0.673 -0.2978575 0.33710999
v -0.673 -0.2978575 0.33694
v -0.649 -0.2978575 0.33694
v -0.649 -0.2978575 0.33710999
v -0.649 -0.2378575 0.33694
v -0.649 -0.2978575 0.33694
v -0.673 -0.2978575 0.33694
v -0.673 -0.2378575 0.33694
v -0.649 -0.2978575 0.33710999
v -0.649 -0.2378575 0.33710999
v -0.673 -0.2378575 0.33710999
v -0.673 -0.2978575 0.33710999
f 553 554 556
f 556 554 555
f 557 558 560
f 560 558 559
f 561 562 564
f 564 562 563
f 565 566 568
f 568 566 567
f 570 571 569
f 569 571 572
f 574 575 573
f 573 575 576
v -0.649 -0.2978575 0.33694
v -0.649 -0.2978575 0.33676998
v -0.649 -0.2378575 0.33676998
v -0.649 -0.2378575 0.33694
v -0.649 -0.2378575 0.33694
v -0.649 -0.2378575 0.33676998
v -0.673 -0.2378575 0.33676998
v -0.673 -0.2378575 0.33694
v -0.673 -0.2378575 0.33694
v -0.673 -0.2378575 0.33676998
v -0.673 -0.2978575 0.33676998
v -0.673 -0.2978575 0.33694
v -0.673 -0.2978575 0.33694
v -0.673 -0.2978575 0.33676998
v -0.649 -0.2978575 0.33676998
v -0.649 -0.2978575 0.33694
v -0.649 -0.2378575 0.33676998
v -0.649 -0.2978575 0.33676998
v -0.673 -0.2978575 0.33676998
v -0.673 -0.2378575 0.33676998
v -0.649 -0.2978575 0.33694
v -0.649 -0.2378575 0.33694
v -0.673 -0.2378575 0.33694
v -0.673 -0.2978575 0.33694
f 577 578 580
f 580 578 579
f 581 582 584
f 584 582 583
f 585 586 588
f 588 586 587
f 589 590 592
f 592 590 591
f 594 595 593
f 593 595 596
f 598 599 597
f 597 599 600
v -0.649 -0.2978575 0.33676998
v -0.649 -0.2978575 0.3366
v -0.649 -0.2378575 0.3366
v -0.649 -0.2378575 0.33676998
v -0.649 -0.2378575 0.33676998
v -0.649 -0.2378575 0.3366
v -0.673 -0.2378575 0.3366
v -0.673 -0.2378575 0.33676998
v -0.673 -0.2378575 0.33676998
v -0.673 -0.2378575 0.3366
v -0.673 -0.2978575 0.3366
v -0.673 -0.2978575 0.33676998
v -0.673 -0.2978575 0.33676998
v -0.673 -0.2978575 0.3366
v -0.649 -0.2978575 0.3366
v -0.649 -0.2978575 0.33676998
v -0.649 -0.2378575 0.3366
v -0.649 -0.2978575 0.3366
v -0.673 -0.2978575 0.3366
v -0.673 -0.2378575 0.3366
v -0.649 -0.2978575 0.33676998
v -0.649 -0.2378575 0.33676998
v -0.673 -0.2378575 0.33676998
v -0.673 -0.2978575 0.33676998
f 601 602 604
f 604 602 603
f 605 606 608
f 608 606 607
f 609 610 612
f 612 610 611
f 613 614 616
f 616 614 615
f 618 619 617
f 617 619 620
f 622 623 621
f 621 623 624
v -0.649 -0.2978575 0.3366
v -0.649 -0.2978575 0.33643002
v -0.649 -0.2378575 0.33643002
v -0.649 -0.2378575 0.3366
v -0.649 -0.2378575 0.3366
v -0.649 -0.2378575 0.33643002
v -0.673 -0.2378575 0.33643002
v -0.673 -0.2378575 0.3366
v -0.673 -0.2378575 0.3366
v -0.673 -0.2378575 0.33643002
v -0.673 -0.2978575 0.33643002
v -0.673 -0.2978575 0.3366
v -0.673 -0.2978575 0.3366
v -0.673 -0.2978575 0.33643002
v -0.649 -0.2978575 0.33643002
v -0.649 -0.2978575 0.3366
v -0.649 -0.2378575 0.33643002
v -0.649 -0.2978575 0.33643002
v -0.673 -0.2978575 0.33643002
v -0.673 -0.2378575 0.33643002
v -0.649 -0.2978575 0.3366
v -0.649 -0.2378575 0.3366
v -0.673 -0.2378575 0.3366
v -0.673 -0.2978575 0.3366
f 625 626 628
f 628 626 627
f 629 630 632
f 632 630 631
f 633 634 636
f 636 634 635
f 637 638 640
f 640 638 639
f 642 643 641
f 641 643 644
f 646 647 645
f 645 647 648
v -0.649 -0.2978575 0.33643002
v -0.649 -0.2978575 0.33625999
v -0.649 -0.2378575 0.33625999
v -0.649 -0.2378575 0.33643002
v -0.649 -0.2378575 0.33643002
v -0.649 -0.2378575 0.33625999
v -0.673 -0.2378575 0.33625999
v -0.673 -0.2378575 0.33643002
v -0.673 -0.2378575 0.33643002
v -0.673 -0.2378575 0.33625999
v -0.673 -0.2978575 0.33625999
v -0.673 -0.2978575 0.33643002
v -0.673 -0.2978575 0.33643002
v -0.673 -0.2978575 0.33625999
v -0.649 -0.2978575 0.33625999
v -0.649 -0.2978575 0.33643002
v -0.649 -0.2378575 0.33625999
v -0.649 -0.2978575 0.33625999
v -0.673 -0.2978575 0.33625999
v -0.673 -0.2378575 0.33625999
v -0.649 -0.2978575 0.33643002
v -0.649 -0.2378575 0.33643002
v -0.673 -0.2378575 0.33643002
v -0.673 -0.2978575 0.33643002
f 649 650 652
f 652 650 651
f 653 654 656
f 656 654 655
f 657 658 660
f 660 658 659
f 661 662 664
f 664 662 663
f 666 667 665
f 665 667 668
f 670 671 669
f 669 671 672
v -0.649 -0.2978575 0.33625999
v -0.649 -0.2978575 0.33609001
v -0.649 -0.2378575 0.33609001
v -0.649 -0.2378575 0.33625999
v -0.649 -0.2378575 0.33625999
v -0.649 -0.2378575 0.33609001
v -0.673 -0.2378575 0.33609001
v -0.673 -0.2378575 0.33625999
v -0.673 -0.2378575 0.33625999
v -0.673 -0.2378575 0.33609001
v -0.673 -0.2978575 0.33609001
v -0.673 -0.2978575 0.33625999
v -0.673 -0.2978575 0.33625999
v -0.673 -0.2978575 0.33609001
v -0.649 -0.2978575 0.33609001
v -0.649 -0.2978575 0.33625999
v -0.649 -0.2378575 0.33609001
v -0.649 -0.2978575 0.33609001
v -0.673 -0.2978575 0.33609001
v -0.673 -0.2378575 0.33609001
v -0.649 -0.2978575 0.33625999
v -0.649 -0.2378575 0.33625999
v -0.673 -0.2378575 0.33625999
v -0.673 -0.2978575 0.33625999
f 673 674 676
f 676 674 675
f 677 678 680
f 680 678 679
f 681 682 684
f 684 682 683
f 685 686 688
f 688 686 687
f 690 691 689
f 689 691 692
f 694 695 693
f 693 695 696
v -0.649 -0.2978575 0.33609001
v -0.649 -0.2978575 0.33591999
v -0.649 -0.2378575 0.33591999
v -0.649 -0.2378575 0.33609001
v -0.649 -0.2378575 0.33609001
v -0.649 -0.2378575 0.33591999
v -0.673 -0.2378575 0.33591999
v -0.673 -0.2378575 0.33609001
v -0.673 -0.2378575 0.33609001
v -0.673 -0.2378575 0.33591999
v -0.673 -0.2978575 0.33591999
v -0.673 -0.2978575 0.33609001
v -0.673 -0.2978575 0.33609001
v -0.673 -0.2978575 0.33591999
v -0.649 -0.2978575 0.33591999
v -0.649 -0.2978575 0.33609001
v -0.649 -0.2378575 0.33591999
v -0.649 -0.2978575 0.33591999
v -0.673 -0.2978575 0.33591999
v -0.673 -0.2378575 0.33591999
v -0.649 -0.2978575 0.33609001
v -0.649 -0.2378575 0.33609001
v -0.673 -0.2378575 0.33609001
v -0.673 -0.2978575 0.33609001
f 697 698 700
f 700 698 699
f 701 702 704
f 704 702 703
f 705 706 708
f 708 706 707
f 709 710 712
f 712 710 711
f 714 715 713
f 713 715 716
f 718 719 717
f 717 719 720
v -0.649 -0.2978575 0.33591999
v -0.649 -0.2978575 0.33575001
v -0.649 -0.2378575 0.33575001
v -0.649 -0.2378575 0.33591999
v -0.649 -0.2378575 0.33591999
v -0.649 -0.2378575 0.33575001
v -0.673 -0.2378575 0.33575001
v -0.673 -0.2378575 0.33591999
v -0.673 -0.2378575 0.33591999
v -0.673 -0.2378575 0.33575001
v -0.673 -0.2978575 0.33575001
v -0.673 -0.2978575 0.33591999
v -0.673 -0.2978575 0.33591999
v -0.673 -0.2978575 0.33575001
v -0.649 -0.2978575 0.33575001
v -0.649 -0.2978575 0.33591999
v -0.649 -0.2378575 0.33575001
v -0.649 -0.2978575 0.33575001
v -0.673 -0.2978575 0.33575001
v -0.673 -0.2378575 0.33575001
v -0.649 -0.2978575 0.33591999
v -0.649 -0.2378575 0.33591999
v -0.673 -0.2378575 0.33591999
v -0.673 -0.2978575 0.33591999
f 721 722 724
f 724 722 723
f 725 726 728
f 728 726 727
f 729 730 732
f 732 730 731
f 733 734 736
f 736 734 735
f 738 739 737
f 737 739 740
f 742 743 741
f 741 743 744
v -0.649 -0.2978575 0.33575001
v -0.649 -0.2978575 0.33557999
v -0.649 -0.2378575 0.33557999
v -0.649 -0.2378575 0.33575001
v -0.649 -0.2378575 0.33575001
v -0.649 -0.2378575 0.33557999
v -0.673 -0.2378575 0.33557999
v -0.673 -0.2378575 0.33575001
v -0.673 -0.2378575 0.33575001
v -0.673 -0.2378575 0.33557999
v -0.673 -0.2978575 0.33557999
v -0.673 -0.2978575 0.33575001
v -0.673 -0.2978575 0.33575001
v -0.673 -0.2978575 0.33557999
v -0.649 -0.2978575 0.33557999
v -0.649 -0.2978575 0.33575001
v -0.649 -0.2378575 0.33557999
v -0.649 -0.2978575 0.33557999
v -0.673 -0.2978575 0.33557999
v -0.673 -0.2378575 0.33557999
v -0.649 -0.2978575 0.33575001
v -0.649 -0.2378575 0.33575001
v -0.673 -0.2378575 0.33575001
v -0.673 -0.2978575 0.33575001
f 745 746 748
f 748 746 747
f 749 750 752
f 752 750 751
f 753 754 756
f 756 754 755
f 757 758 760
f 760 758 759
f 762 763 761
f 761 763 764
f 766 767 765
f 765 767 768
v -0.649 -0.2978575 0.33557999
v -0.649 -0.2978575 0.33541
v -0.649 -0.2378575 0.33541
v -0.649 -0.2378575 0.33557999
v -0.649 -0.2378575 0.33557999
v -0.649 -0.2378575 0.33541
v -0.673 -0.2378575 0.33541
v -0.673 -0.2378575 0.33557999
v -0.673 -0.2378575 0.33557999
v -0.673 -0.2378575 0.33541
v -0.673 -0.2978575 0.33541
v -0.673 -0.2978575 0.33557999
v -0.673 -0.2978575 0.33557999
v -0.673 -0.2978575 0.33541
v -0.649 -0.2978575 0.33541
v -0.649 -0.2978575 0.33557999
v -0.649 -0.2378575 0.33541
v -0.649 -0.2978575 0.33541
v -0.673 -0.2978575 0.33541
v -0.673 -0.2378575 0.33541
v -0.649 -0.2978575 0.33557999
v -0.649 -0.2378575 0.33557999
v -0.673 -0.2378575 0.33557999
v -0.673 -0.2978575 0.33557999
f 769 770 772
f 772 770 771
f 773 774 776
f 776 774 775
f 777 778 780
f 780 778 779
f 781 782 784
f 784 782 783
f 786 787 785
f 785 787 788
f 790 791 789
f 789 791 792
v -0.649 -0.2978575 0.33541
v -0.649 -0.2978575 0.33523998
v -0.649 -0.2378575 0.33523998
v -0.649 -0.2378575 0.33541
v -0.649 -0.2378575 0.33541
v -0.649 -0.2378575 0.33523998
v -0.673 -0.2378575 0.33523998
v -0.673 -0.2378575 0.33541
v -0.673 -0.2378575 0.33541
v -0.673 -0.2378575 0.33523998
v -0.673 -0.2978575 0.33523998
v -0.673 -0.2978575 0.33541
v -0.673 -0.2978575 0.33541
v -0.673 -0.2978575 0.33523998
v -0.649 -0.2978575 0.33523998
v -0.649 -0.2978575 0.33541
v -0.649 -0.2378575 0.33523998
v -0.649 -0.2978575 0.33523998
v -0.673 -0.2978575 0.33523998
v -0.673 -0.2378575 0.33523998
v -0.649 -0.2978575 0.33541
v -0.649 -0.2378575 0.33541
v -0.673 -0.2378575 0.33541
v -0.673 -0.2978575 0.33541
f 793 794 796
f 796 794 795
f 797 798 800
f 800 798 799
f 801 802 804
f 804 802 803
f 805 806 808
f 808 806 807
f 810 811 809
f 809 811 812
f 814 815 813
f 813 815 816
v -0.25 -0.3728575 0.1135
v -0.25 0.3771425 0.1135
v -0.206 0.3771425 0.1135
v -0.206 -0.3728575 0.1135
v -0.25 0.3771425 0.1135
v -0.25 0.3771425 0.59
v -0.206 0.3771425 0.59
v -0.206 0.3771425 0.1135
v -0.25 -0.3728575 0.2532
v -0.25 -0.3728575 0.1135
v -0.206 -0.3728575 0.1135
v -0.206 -0.3728575 0.2532
v -0.25 0.3771425 0.59
v -0.25 0.2071425 0.59
v -0.206 0.2071425 0.59
v -0.206 0.3771425 0.59
v -0.25 -0.0728575 0.2
v -0.25 -0.0728575 0.4
v -0.206 -0.0728575 0.4
v -0.206 -0.0728575 0.2
v -0.25 -0.010730654 0.49
v -0.206 -0.010730654 0.49
v -0.206 0.060700087 0.52589409
v -0.206 0.13335473 0.55924129
v -0.206 0.2071425 0.59
v -0.25 0.2071425 0.59
v -0.25 0.13335473 0.55924129
v -0.25 0.060700087 0.52589409
v -0.206 -0.0128575 0.48888229
v -0.25 -0.0128575 0.48888229
v -0.25 -0.13776974 0.4180011
v -0.25 -0.25793126 0.3393346
v -0.25 -0.3728575 0.2532
v -0.206 -0.3728575 0.2532
v -0.206 -0.25793126 0.3393346
v -0.206 -0.13776974 0.4180011
v -0.25 0.2321425 0.49
v -0.25 -0.010730654 0.49
v -0.25 0.060700087 0.52589409
v -0.25 0.13335473 0.55924129
v -0.25 0.2071425 0.59
v -0.25 0.3771425 0.59
v -0.25 0.3771425 0.1135
v -0.25 -0.3728575 0.1135
v -0.25 -0.3728575 0.2532
v -0.25 -0.25793126 0.3393346
v -0.25 -0.13776974 0.4180011
v -0.25 -0.0128575 0.48888229
v -0.25 -0.0128575 0.4
v -0.25 -0.0728575 0.4
v -0.25 -0.0728575 0.2
v -0.25 0.2321425 0.2
v -0.206 -0.010730654 0.49
v -0.206 0.2321425 0.49
v -0.206 0.2321425 0.2
v -0.206 -0.0728575 0.2
v -0.206 -0.0728575 0.4
v -0.206 -0.0128575 0.4
v -0.206 -0.0128575 0.48888229
v -0.206 -0.13776974 0.4180011
v -0.206 -0.25793126 0.3393346
v -0.206 -0.3728575 0.2532
v -0.206 -0.3728575 0.1135
v -0.206 0.3771425 0.1135
v -0.206 0.3771425 0.59
v -0.206 0.2071425 0.59
v -0.206 0.13335473 0.55924129
v -0.206 0.060700087 0.52589409
v -0.25 -0.0128575 0.4
v -0.206 -0.0128575 0.4
v -0.206 -0.0728575 0.4
v -0.25 -0.0728575 0.4
v -0.25 0.2321425 0.2
v -0.25 -0.0728575 0.2
v -0.206 -0.0728575 0.2
v -0.206 0.2321425 0.2
v -0.25 0.2321425 0.49
v -0.25 0.2321425 0.2
v -0.206 0.2321425 0.2
v -0.206 0.2321425 0.49
v -0.25 -0.0128575 0.48888229
v -0.206 -0.0128575 0.48888229
v -0.206 -0.0128575 0.4
v -0.25 -0.0128575 0.4
v -0.25 -0.010730654 0.49
v -0.25 0.2321425 0.49
v -0.206 0.2321425 0.49
v -0.206 -0.010730654 0.49
f 817 818 820
f 820 818 819
f 821 822 824
f 824 822 823
f 825 826 828
f 828 826 827
f 829 830 832
f 832 830 831
f 833 834 836
f 836 834 835
f 837 838 844
f 844 838 839
f 844 839 843
f 843 839 840
f 843 840 842
f 842 840 841
f 845 846 852
f 852 846 847
f 852 847 848
f 849 850 848
f 848 850 851
f 848 851 852
f 854 855 853
f 853 855 856
f 853 856 857
f 857 858 853
f 853 858 859
f 853 859 868
f 868 859 867
f 867 859 860
f 867 860 861
f 861 862 867
f 867 862 866
f 866 862 863
f 866 863 864
f 864 865 866
f 869 870 884
f 884 870 883
f 883 870 882
f 882 870 881
f 881 870 880
f 880 870 871
f 880 871 872
f 873 877 872
f 872 877 878
f 872 878 879
f 874 875 873
f 873 875 876
f 873 876 877
f 879 880 872
f 886 887 885
f 885 887 888
f 889 890 892
f 892 890 891
f 893 894 896
f 896 894 895
f 898 899 897
f 897 899 900
f 902 903 901
f 901 903 904
v -0.206 0.19463338 0.585
v -0.206 -0.0728575 0.585
v -0.203 -0.0728575 0.585
v -0.203 0.19463338 0.585
v -0.206 -0.0728575 0.585
v -0.206 -0.13961379 0.57690674
v -0.206 -0.20302262 0.55303276
v -0.206 -0.25990444 0.5145752
v -0.206 -0.30740695 0.46346252
v -0.206 -0.34314816 0.40225765
v -0.206 -0.36533587 0.33402975
v -0.206 -0.3728575 0.26219999
v -0.203 -0.3728575 0.26219999
v -0.203 -0.36533587 0.33402975
v -0.203 -0.34314816 0.40225765
v -0.203 -0.30740695 0.46346252
v -0.203 -0.25990444 0.5145752
v -0.203 -0.20302262 0.55303276
v -0.203 -0.13961379 0.57690674
v -0.203 -0.0728575 0.585
v -0.203 -0.0128575 0.49
v -0.203 -0.010730654 0.49
v -0.203 0.056654638 0.52394505
v -0.203 0.12513471 0.55562347
v -0.203 0.19463338 0.585
v -0.203 -0.0728575 0.585
v -0.203 -0.13961379 0.57690674
v -0.203 -0.20302262 0.55303276
v -0.203 -0.25990444 0.5145752
v -0.203 -0.30740695 0.46346252
v -0.203 -0.34314816 0.40225765
v -0.203 -0.36533587 0.33402975
v -0.203 -0.3728575 0.26219999
v -0.203 -0.3728575 0.2532
v -0.203 -0.25793126 0.3393346
v -0.203 -0.13776974 0.4180011
v -0.203 -0.0128575 0.48888229
v -0.206 -0.3728575 0.26219999
v -0.206 -0.3728575 0.2532
v -0.203 -0.3728575 0.2532
v -0.203 -0.3728575 0.26219999
v -0.203 -0.010730654 0.49
v -0.206 -0.010730654 0.49
v -0.206 0.056654638 0.52394505
v -0.206 0.12513471 0.55562347
v -0.206 0.19463338 0.585
v -0.203 0.19463338 0.585
v -0.203 0.12513471 0.55562347
v -0.203 0.056654638 0.52394505
v -0.206 -0.0128575 0.48888229
v -0.203 -0.0128575 0.48888229
v -0.203 -0.13776974 0.4180011
v -0.203 -0.25793126 0.3393346
v -0.203 -0.3728575 0.2532
v -0.206 -0.3728575 0.2532
v -0.206 -0.25793126 0.3393346
v -0.206 -0.13776974 0.4180011
v -0.206 -0.010730654 0.49
v -0.206 -0.0128575 0.49
v -0.206 -0.0128575 0.48888229
v -0.206 -0.13776974 0.4180011
v -0.206 -0.25793126 0.3393346
v -0.206 -0.3728575 0.2532
v -0.206 -0.3728575 0.26219999
v -0.206 -0.36533587 0.33402975
v -0.206 -0.34314816 0.40225765
v -0.206 -0.30740695 0.46346252
v -0.206 -0.25990444 0.5145752
v -0.206 -0.20302262 0.55303276
v -0.206 -0.13961379 0.57690674
v -0.206 -0.0728575 0.585
v -0.206 0.19463338 0.585
v -0.206 0.12513471 0.55562347
v -0.206 0.056654638 0.52394505
v -0.203 -0.0128575 0.49
v -0.203 -0.0128575 0.48888229
v -0.206 -0.0128575 0.48888229
v -0.206 -0.0128575 0.49
v -0.203 -0.010730654 0.49
v -0.203 -0.0128575 0.49
v -0.206 -0.0128575 0.49
v -0.206 -0.010730654 0.49
f 905 906 908
f 908 906 907
f 924 909 923
f 923 909 910
f 923 910 922
f 922 910 911
f 922 911 921
f 921 911 912
f 921 912 920
f 920 912 913
f 920 913 919
f 919 913 914
f 919 914 918
f 918 914 915
f 918 915 917
f 917 915 916
f 926 927 925
f 925 927 930
f 925 930 931
f 927 928 930
f 930 928 929
f 931 932 925
f 925 932 940
f 925 940 941
f 932 933 940
f 940 933 934
f 940 934 935
f 940 935 939
f 939 935 936
f 939 936 937
f 937 938 939
f 942 943 945
f 945 943 944
f 946 947 953
f 953 947 948
f 953 948 952
f 952 948 949
f 952 949 951
f 951 949 950
f 954 955 961
f 961 955 956
f 961 956 957
f 958 959 957
f 957 959 960
f 957 960 961
f 962 963 978
f 978 963 975
f 978 975 977
f 977 975 976
f 964 965 963
f 963 965 973
f 963 973 974
f 966 970 965
f 965 970 971
f 965 971 972
f 967 968 966
f 966 968 969
f 966 969 970
f 972 973 965
f 974 975 963
f 979 980 982
f 982 980 981
f 984 985 983
f 983 985 986
