v -0.053667053 0.014 -0.015468916
v -0.053660944 0.012787565 -0.01616889
v -0.053648727 0.012787565 -0.017568837
v -0.053642618 0.014 -0.018268809
v -0.053648727 0.015212436 -0.017568837
v -0.053660944 0.015212436 -0.01616889
v -0.053671416 0.014 -0.014968936
v -0.053665173 0.01548548 -0.015684278
v -0.053651146 0.015852363 -0.017291637
v -0.053639897 0.01482438 -0.018580638
v -0.053639897 0.013175621 -0.018580638
v -0.053651146 0.012147636 -0.017291637
v -0.053665173 0.01251452 -0.015684278
v -0.053671416 0.014 -0.014968936
v -0.053665173 0.01251452 -0.015684278
v -0.053651146 0.012147636 -0.017291637
v -0.053639897 0.013175621 -0.018580638
v -0.053639897 0.01482438 -0.018580638
v -0.053651146 0.015852363 -0.017291637
v -0.053665173 0.01548548 -0.015684278
v -0.051671494 0.014 -0.014951483
v -0.051665251 0.01548548 -0.015666825
v -0.051651224 0.015852363 -0.017274184
v -0.051639975 0.01482438 -0.018563185
v -0.051639975 0.013175621 -0.018563185
v -0.051651224 0.012147636 -0.017274184
v -0.051665251 0.01251452 -0.015666825
v -0.051671494 0.014 -0.014951483
v -0.053671416 0.014 -0.014968936
v -0.04761143 0.019000237 -0.021816628
v -0.04761143 -0.019 -0.021816628
v -0.051611278 -0.019 -0.021851534
v -0.051611278 0.019000237 -0.021851534
v -0.05041153 0.014 0.012560559
v -0.050405421 0.015212436 0.011860588
v -0.050393204 0.015212436 0.010460638
v -0.050387096 0.014 0.009760668
v -0.050393204 0.012787565 0.010460638
v -0.050405421 0.012787565 0.011860588
v -0.050379242 0.014 0.0088607008
v -0.05038512 0.015626346 0.0095343316
v -0.050399313 0.0163 0.011160613
v -0.050413505 0.015626346 0.012786895
v -0.050419384 0.014 0.013460526
v -0.050413505 0.012373655 0.012786895
v -0.050399313 0.0117 0.011160613
v -0.05038512 0.012373655 0.0095343316
v -0.053911396 0.014 0.012530016
v -0.053905287 0.012787565 0.011830046
v -0.05389307 0.012787565 0.010430095
v -0.053886961 0.014 0.0097301252
v -0.05389307 0.015212436 0.010430095
v -0.053905287 0.015212436 0.011830046
v -0.053915759 0.014 0.013029999
v -0.053909516 0.01548548 0.012314656
v -0.053895489 0.015852363 0.010707299
v -0.05388424 0.01482438 0.0094182951
v -0.05388424 0.013175621 0.0094182951
v -0.053895489 0.012147636 0.010707299
v -0.053909516 0.01251452 0.012314656
v -0.04761143 -0.019 -0.021816628
v -0.047943041 -0.019 0.016182239
v -0.051942889 -0.019 0.016147333
v -0.051611278 -0.019 -0.021851534
v -0.047943041 0.019000237 0.016182239
v -0.04761143 0.019000237 -0.021816628
v -0.051611278 0.019000237 -0.021851534
v -0.051942889 0.019000237 0.016147333
v -0.05041153 -0.014 0.012560559
v -0.050405421 -0.015212436 0.011860588
v -0.050393204 -0.015212436 0.010460638
v -0.050387096 -0.014 0.009760668
v -0.050393204 -0.012787565 0.010460638
v -0.050405421 -0.012787565 0.011860588
v -0.053911396 -0.014 0.012530016
v -0.053905287 -0.012787565 0.011830046
v -0.05389307 -0.012787565 0.010430095
v -0.053886961 -0.014 0.0097301252
v -0.05389307 -0.015212436 0.010430095
v -0.053905287 -0.015212436 0.011830046
v -0.05041153 -0.014 0.012560559
v -0.053911396 -0.014 0.012530016
v -0.050167187 0.014 -0.015438373
v -0.050161078 0.012787565 -0.016138347
v -0.050148861 0.012787565 -0.017538294
v -0.050142753 0.014 -0.018238267
v -0.050148861 0.015212436 -0.017538294
v -0.050161078 0.015212436 -0.016138347
v -0.053667053 0.014 -0.015468916
v -0.053660944 0.015212436 -0.01616889
v -0.053648727 0.015212436 -0.017568837
v -0.053642618 0.014 -0.018268809
v -0.053648727 0.012787565 -0.017568837
v -0.053660944 0.012787565 -0.01616889
v -0.050167187 0.014 -0.015438373
v -0.053667053 0.014 -0.015468916
v -0.050379242 0.014 0.0088607008
v -0.05038512 0.012373655 0.0095343316
v -0.050399313 0.0117 0.011160613
v -0.050413505 0.012373655 0.012786895
v -0.050419384 0.014 0.013460526
v -0.050413505 0.015626346 0.012786895
v -0.050399313 0.0163 0.011160613
v -0.05038512 0.015626346 0.0095343316
v -0.047879337 0.014 0.0088825171
v -0.047885216 0.015626346 0.0095561479
v -0.047899408 0.0163 0.01118243
v -0.0479136 0.015626346 0.012808712
v -0.047919479 0.014 0.013482342
v -0.0479136 0.012373655 0.012808712
v -0.047899408 0.0117 0.01118243
v -0.047885216 0.012373655 0.0095561479
v -0.050379242 0.014 0.0088607008
v -0.047879337 0.014 0.0088825171
v -0.053915759 0.014 0.013029999
v -0.053909516 0.01251452 0.012314656
v -0.053895489 0.012147636 0.010707299
v -0.05388424 0.013175621 0.0094182951
v -0.05388424 0.01482438 0.0094182951
v -0.053895489 0.015852363 0.010707299
v -0.053909516 0.01548548 0.012314656
v -0.051915837 0.014 0.013047452
v -0.051909594 0.01548548 0.012332109
v -0.051895567 0.015852363 0.010724752
v -0.051884318 0.01482438 0.0094357481
v -0.051884318 0.013175621 0.0094357481
v -0.051895567 0.012147636 0.010724752
v -0.051909594 0.01251452 0.012332109
v -0.051915837 0.014 0.013047452
v -0.053915759 0.014 0.013029999
v -0.053667053 -0.014 -0.015468916
v -0.053660944 -0.015212436 -0.01616889
v -0.053648727 -0.015212436 -0.017568837
v -0.053642618 -0.014 -0.018268809
v -0.053648727 -0.012787565 -0.017568837
v -0.053660944 -0.012787565 -0.01616889
v -0.053671416 -0.014 -0.014968936
v -0.053665173 -0.01251452 -0.015684278
v -0.053651146 -0.012147636 -0.017291637
v -0.053639897 -0.013175621 -0.018580638
v -0.053639897 -0.01482438 -0.018580638
v -0.053651146 -0.015852363 -0.017291637
v -0.053665173 -0.01548548 -0.015684278
v -0.047943041 -0.019 0.016182239
v -0.047943041 0.019000237 0.016182239
v -0.051942889 0.019000237 0.016147333
v -0.051942889 -0.019 0.016147333
v -0.05041153 0.014 0.012560559
v -0.050405421 0.012787565 0.011860588
v -0.050393204 0.012787565 0.010460638
v -0.050387096 0.014 0.009760668
v -0.050393204 0.015212436 0.010460638
v -0.050405421 0.015212436 0.011860588
v -0.053911396 0.014 0.012530016
v -0.053905287 0.015212436 0.011830046
v -0.05389307 0.015212436 0.010430095
v -0.053886961 0.014 0.0097301252
v -0.05389307 0.012787565 0.010430095
v -0.053905287 0.012787565 0.011830046
v -0.05041153 0.014 0.012560559
v -0.053911396 0.014 0.012530016
v -0.05041153 -0.014 0.012560559
v -0.050405421 -0.012787565 0.011860588
v -0.050393204 -0.012787565 0.010460638
v -0.050387096 -0.014 0.009760668
v -0.050393204 -0.015212436 0.010460638
v -0.050405421 -0.015212436 0.011860588
v -0.050379242 -0.014 0.0088607008
v -0.05038512 -0.012373655 0.0095343316
v -0.050399313 -0.0117 0.011160613
v -0.050413505 -0.012373655 0.012786895
v -0.050419384 -0.014 0.013460526
v -0.050413505 -0.015626346 0.012786895
v -0.050399313 -0.0163 0.011160613
v -0.05038512 -0.015626346 0.0095343316
v -0.053911396 -0.014 0.012530016
v -0.053905287 -0.015212436 0.011830046
v -0.05389307 -0.015212436 0.010430095
v -0.053886961 -0.014 0.0097301252
v -0.05389307 -0.012787565 0.010430095
v -0.053905287 -0.012787565 0.011830046
v -0.053915759 -0.014 0.013029999
v -0.053909516 -0.01251452 0.012314656
v -0.053895489 -0.012147636 0.010707299
v -0.05388424 -0.013175621 0.0094182951
v -0.05388424 -0.01482438 0.0094182951
v -0.053895489 -0.015852363 0.010707299
v -0.053909516 -0.01548548 0.012314656
v -0.053671416 -0.014 -0.014968936
v -0.053665173 -0.01548548 -0.015684278
v -0.053651146 -0.015852363 -0.017291637
v -0.053639897 -0.01482438 -0.018580638
v -0.053639897 -0.013175621 -0.018580638
v -0.053651146 -0.012147636 -0.017291637
v -0.053665173 -0.01251452 -0.015684278
v -0.051671494 -0.014 -0.014951483
v -0.051665251 -0.01251452 -0.015666825
v -0.051651224 -0.012147636 -0.017274184
v -0.051639975 -0.013175621 -0.018563185
v -0.051639975 -0.01482438 -0.018563185
v -0.051651224 -0.015852363 -0.017274184
v -0.051665251 -0.01548548 -0.015666825
v -0.051671494 -0.014 -0.014951483
v -0.053671416 -0.014 -0.014968936
v -0.050142753 -0.014 -0.018238267
v -0.050148861 -0.012787565 -0.017538294
v -0.050161078 -0.012787565 -0.016138347
v -0.050167187 -0.014 -0.015438373
v -0.050161078 -0.015212436 -0.016138347
v -0.050148861 -0.015212436 -0.017538294
v -0.053667053 -0.014 -0.015468916
v -0.053660944 -0.012787565 -0.01616889
v -0.053648727 -0.012787565 -0.017568837
v -0.053642618 -0.014 -0.018268809
v -0.053648727 -0.015212436 -0.017568837
v -0.053660944 -0.015212436 -0.01616889
v -0.050167187 -0.014 -0.015438373
v -0.053667053 -0.014 -0.015468916
v -0.050379242 -0.014 0.0088607008
v -0.05038512 -0.015626346 0.0095343316
v -0.050399313 -0.0163 0.011160613
v -0.050413505 -0.015626346 0.012786895
v -0.050419384 -0.014 0.013460526
v -0.050413505 -0.012373655 0.012786895
v -0.050399313 -0.0117 0.011160613
v -0.05038512 -0.012373655 0.0095343316
v -0.047879337 -0.014 0.0088825171
v -0.047885216 -0.012373655 0.0095561479
v -0.047899408 -0.0117 0.01118243
v -0.0479136 -0.012373655 0.012808712
v -0.047919479 -0.014 0.013482342
v -0.0479136 -0.015626346 0.012808712
v -0.047899408 -0.0163 0.01118243
v -0.047885216 -0.015626346 0.0095561479
v -0.050379242 -0.014 0.0088607008
v -0.047879337 -0.014 0.0088825171
v -0.053915759 -0.014 0.013029999
v -0.053909516 -0.01548548 0.012314656
v -0.053895489 -0.015852363 0.010707299
v -0.05388424 -0.01482438 0.0094182951
v -0.05388424 -0.013175621 0.0094182951
v -0.053895489 -0.012147636 0.010707299
v -0.053909516 -0.01251452 0.012314656
v -0.051915837 -0.014 0.013047452
v -0.051909594 -0.01251452 0.012332109
v -0.051895567 -0.012147636 0.010724752
v -0.051884318 -0.013175621 0.0094357481
v -0.051884318 -0.01482438 0.0094357481
v -0.051895567 -0.015852363 0.010724752
v -0.051909594 -0.01548548 0.012332109
v -0.051915837 -0.014 0.013047452
v -0.053915759 -0.014 0.013029999
v -0.051635933 0.01123 -0.019026327
v -0.051635933 0.00273 -0.019026327
v -0.047636085 0.00273 -0.018991421
v -0.047636085 0.01123 -0.018991421
v -0.050134899 -0.014 -0.019138233
v -0.050140777 -0.012373655 -0.018464604
v -0.05015497 -0.0117 -0.01683832
v -0.050169162 -0.012373655 -0.015212037
v -0.050175041 -0.014 -0.014538407
v -0.050169162 -0.015626346 -0.015212037
v -0.05015497 -0.0163 -0.01683832
v -0.050140777 -0.015626346 -0.018464604
v -0.050142753 -0.014 -0.018238267
v -0.050148861 -0.015212436 -0.017538294
v -0.050161078 -0.015212436 -0.016138347
v -0.050167187 -0.014 -0.015438373
v -0.050161078 -0.012787565 -0.016138347
v -0.050148861 -0.012787565 -0.017538294
v -0.051635933 0.00273 -0.019026327
v -0.051680439 0.00273 -0.013926521
v -0.04768059 0.00273 -0.013891615
v -0.047636085 0.00273 -0.018991421
v -0.050134899 -0.014 -0.019138233
v -0.050140777 -0.015626346 -0.018464604
v -0.05015497 -0.0163 -0.01683832
v -0.050169162 -0.015626346 -0.015212037
v -0.050175041 -0.014 -0.014538407
v -0.050169162 -0.012373655 -0.015212037
v -0.05015497 -0.0117 -0.01683832
v -0.050140777 -0.012373655 -0.018464604
v -0.047634994 -0.014 -0.019116416
v -0.047640873 -0.012373655 -0.018442788
v -0.047655065 -0.0117 -0.016816504
v -0.047669257 -0.012373655 -0.015190221
v -0.047675136 -0.014 -0.014516591
v -0.047669257 -0.015626346 -0.015190221
v -0.047655065 -0.0163 -0.016816504
v -0.047640873 -0.015626346 -0.018442788
v -0.050134899 -0.014 -0.019138233
v -0.047634994 -0.014 -0.019116416
v -0.051680439 0.00273 -0.013926521
v -0.051680439 0.01123 -0.013926521
v -0.04768059 0.01123 -0.013891615
v -0.04768059 0.00273 -0.013891615
v -0.049354845 0.0075001186 0.0060693792
v -0.049348736 0.008712554 0.0053694042
v -0.049336519 0.008712554 0.0039694564
v -0.049330411 0.0075001186 0.0032694837
v -0.049336519 0.0062876832 0.0039694564
v -0.049348736 0.0062876832 0.0053694042
v -0.047854901 0.0075001186 0.006082469
v -0.047848793 0.0062876832 0.005382494
v -0.047836575 0.0062876832 0.0039825462
v -0.047830467 0.0075001186 0.0032825736
v -0.047836575 0.008712554 0.0039825462
v -0.047848793 0.008712554 0.005382494
v -0.047854901 0.0075001186 0.006082469
v -0.049354845 0.0075001186 0.0060693792
v -0.050167187 0.014 -0.015438373
v -0.050161078 0.015212436 -0.016138347
v -0.050148861 0.015212436 -0.017538294
v -0.050142753 0.014 -0.018238267
v -0.050148861 0.012787565 -0.017538294
v -0.050161078 0.012787565 -0.016138347
v -0.050134899 0.014 -0.019138233
v -0.050140777 0.015626346 -0.018464604
v -0.05015497 0.0163 -0.01683832
v -0.050169162 0.015626346 -0.015212037
v -0.050175041 0.014 -0.014538407
v -0.050169162 0.012373655 -0.015212037
v -0.05015497 0.0117 -0.01683832
v -0.050140777 0.012373655 -0.018464604
v -0.051680439 0.01123 -0.013926521
v -0.051635933 0.01123 -0.019026327
v -0.047636085 0.01123 -0.018991421
v -0.04768059 0.01123 -0.013891615
v -0.049223947 -0.0074998814 -0.008930052
v -0.049217838 -0.006287446 -0.0096300247
v -0.049205621 -0.006287446 -0.011029972
v -0.049199513 -0.0074998814 -0.011729945
v -0.049205621 -0.0087123168 -0.011029972
v -0.049217838 -0.0087123168 -0.0096300247
v -0.047724003 -0.0074998814 -0.0089169622
v -0.047717895 -0.0087123168 -0.0096169349
v -0.047705677 -0.0087123168 -0.011016883
v -0.047699569 -0.0074998814 -0.011716855
v -0.047705677 -0.006287446 -0.011016883
v -0.047717895 -0.006287446 -0.0096169349
v -0.047724003 -0.0074998814 -0.0089169622
v -0.049223947 -0.0074998814 -0.008930052
v -0.050134899 0.014 -0.019138233
v -0.050140777 0.012373655 -0.018464604
v -0.05015497 0.0117 -0.01683832
v -0.050169162 0.012373655 -0.015212037
v -0.050175041 0.014 -0.014538407
v -0.050169162 0.015626346 -0.015212037
v -0.05015497 0.0163 -0.01683832
v -0.050140777 0.015626346 -0.018464604
v -0.047634994 0.014 -0.019116416
v -0.047640873 0.015626346 -0.018442788
v -0.047655065 0.0163 -0.016816504
v -0.047669257 0.015626346 -0.015190221
v -0.047675136 0.014 -0.014516591
v -0.047669257 0.012373655 -0.015190221
v -0.047655065 0.0117 -0.016816504
v -0.047640873 0.012373655 -0.018442788
v -0.050134899 0.014 -0.019138233
v -0.047634994 0.014 -0.019116416
v -0.047724003 -0.0074998814 -0.0089169622
v -0.047717895 -0.006287446 -0.0096169349
v -0.047705677 -0.006287446 -0.011016883
v -0.047699569 -0.0074998814 -0.011716855
v -0.047705677 -0.0087123168 -0.011016883
v -0.047717895 -0.0087123168 -0.0096169349
v -0.047854901 0.0075001186 0.006082469
v -0.047848793 0.008712554 0.005382494
v -0.047836575 0.008712554 0.0039825462
v -0.047830467 0.0075001186 0.0032825736
v -0.047836575 0.0062876832 0.0039825462
v -0.047848793 0.0062876832 0.005382494
v -0.047854901 -0.0074998814 0.006082469
v -0.047848793 -0.006287446 0.005382494
v -0.047836575 -0.006287446 0.0039825462
v -0.047830467 -0.0074998814 0.0032825736
v -0.047836575 -0.0087123168 0.0039825462
v -0.047848793 -0.0087123168 0.005382494
v -0.047724003 0.0075001186 -0.0089169622
v -0.047717895 0.008712554 -0.0096169349
v -0.047705677 0.008712554 -0.011016883
v -0.047699569 0.0075001186 -0.011716855
v -0.047705677 0.0062876832 -0.011016883
v -0.047717895 0.0062876832 -0.0096169349
v -0.047636085 0.00273 -0.018991421
v -0.04768059 0.00273 -0.013891615
v -0.04768059 0.01123 -0.013891615
v -0.047636085 0.01123 -0.018991421
v -0.047943041 0.019000237 0.016182239
v -0.047943041 -0.019 0.016182239
v -0.04761143 -0.019 -0.021816628
v -0.04761143 0.019000237 -0.021816628
v -0.047879337 0.014 0.0088825171
v -0.047885216 0.012373655 0.0095561479
v -0.047899408 0.0117 0.01118243
v -0.0479136 0.012373655 0.012808712
v -0.047919479 0.014 0.013482342
v -0.0479136 0.015626346 0.012808712
v -0.047899408 0.0163 0.01118243
v -0.047885216 0.015626346 0.0095561479
v -0.047879337 -0.014 0.0088825171
v -0.047885216 -0.015626346 0.0095561479
v -0.047899408 -0.0163 0.01118243
v -0.0479136 -0.015626346 0.012808712
v -0.047919479 -0.014 0.013482342
v -0.0479136 -0.012373655 0.012808712
v -0.047899408 -0.0117 0.01118243
v -0.047885216 -0.012373655 0.0095561479
v -0.047634994 -0.014 -0.019116416
v -0.047640873 -0.015626346 -0.018442788
v -0.047655065 -0.0163 -0.016816504
v -0.047669257 -0.015626346 -0.015190221
v -0.047675136 -0.014 -0.014516591
v -0.047669257 -0.012373655 -0.015190221
v -0.047655065 -0.0117 -0.016816504
v -0.047640873 -0.012373655 -0.018442788
v -0.047634994 0.014 -0.019116416
v -0.047640873 0.012373655 -0.018442788
v -0.047655065 0.0117 -0.016816504
v -0.047669257 0.012373655 -0.015190221
v -0.047675136 0.014 -0.014516591
v -0.047669257 0.015626346 -0.015190221
v -0.047655065 0.0163 -0.016816504
v -0.047640873 0.015626346 -0.018442788
v -0.049223947 0.0075001186 -0.008930052
v -0.049217838 0.008712554 -0.0096300247
v -0.049205621 0.008712554 -0.011029972
v -0.049199513 0.0075001186 -0.011729945
v -0.049205621 0.0062876832 -0.011029972
v -0.049217838 0.0062876832 -0.0096300247
v -0.047724003 0.0075001186 -0.0089169622
v -0.047717895 0.0062876832 -0.0096169349
v -0.047705677 0.0062876832 -0.011016883
v -0.047699569 0.0075001186 -0.011716855
v -0.047705677 0.008712554 -0.011016883
v -0.047717895 0.008712554 -0.0096169349
v -0.047724003 0.0075001186 -0.0089169622
v -0.049223947 0.0075001186 -0.008930052
v -0.049223947 0.0075001186 -0.008930052
v -0.049217838 0.0062876832 -0.0096300247
v -0.049205621 0.0062876832 -0.011029972
v -0.049199513 0.0075001186 -0.011729945
v -0.049205621 0.008712554 -0.011029972
v -0.049217838 0.008712554 -0.0096300247
v -0.049231801 0.0075001186 -0.0080300847
v -0.049225922 0.0091264641 -0.0087037156
v -0.04921173 0.0098001188 -0.010329997
v -0.049197538 0.0091264641 -0.011956282
v -0.049191659 0.0075001186 -0.01262991
v -0.049197538 0.0058737731 -0.011956282
v -0.04921173 0.0052001184 -0.010329997
v -0.049225922 0.0058737731 -0.0087037156
v -0.051915837 -0.014 0.013047452
v -0.051909594 -0.01548548 0.012332109
v -0.051895567 -0.015852363 0.010724752
v -0.051884318 -0.01482438 0.0094357481
v -0.051884318 -0.013175621 0.0094357481
v -0.051895567 -0.012147636 0.010724752
v -0.051909594 -0.01251452 0.012332109
v -0.051671494 -0.014 -0.014951483
v -0.051665251 -0.01548548 -0.015666825
v -0.051651224 -0.015852363 -0.017274184
v -0.051639975 -0.01482438 -0.018563185
v -0.051639975 -0.013175621 -0.018563185
v -0.051651224 -0.012147636 -0.017274184
v -0.051665251 -0.01251452 -0.015666825
v -0.051942889 -0.019 0.016147333
v -0.051942889 0.019000237 0.016147333
v -0.051611278 0.019000237 -0.021851534
v -0.051611278 -0.019 -0.021851534
v -0.051680439 0.00273 -0.013926521
v -0.051635933 0.00273 -0.019026327
v -0.051635933 0.01123 -0.019026327
v -0.051680439 0.01123 -0.013926521
v -0.051915837 0.014 0.013047452
v -0.051909594 0.01251452 0.012332109
v -0.051895567 0.012147636 0.010724752
v -0.051884318 0.013175621 0.0094357481
v -0.051884318 0.01482438 0.0094357481
v -0.051895567 0.015852363 0.010724752
v -0.051909594 0.01548548 0.012332109
v -0.051671494 0.014 -0.014951483
v -0.051665251 0.01251452 -0.015666825
v -0.051651224 0.012147636 -0.017274184
v -0.051639975 0.013175621 -0.018563185
v -0.051639975 0.01482438 -0.018563185
v -0.051651224 0.015852363 -0.017274184
v -0.051665251 0.01548548 -0.015666825
v -0.051731706 0.0075001186 -0.0080519011
v -0.051725827 0.0058737731 -0.0087255319
v -0.051711635 0.0052001184 -0.010351814
v -0.051697442 0.0058737731 -0.011978098
v -0.051691564 0.0075001186 -0.012651726
v -0.051697442 0.0091264641 -0.011978098
v -0.051711635 0.0098001188 -0.010351814
v -0.051725827 0.0091264641 -0.0087255319
v -0.051862604 0.0075001186 0.0069475254
v -0.051856725 0.0058737731 0.0062738993
v -0.051842533 0.0052001184 0.0046476151
v -0.05182834 0.0058737731 0.003021331
v -0.051822462 0.0075001186 0.0023477025
v -0.05182834 0.0091264641 0.003021331
v -0.051842533 0.0098001188 0.0046476151
v -0.051856725 0.0091264641 0.0062738993
v -0.051731706 -0.0074998814 -0.0080519011
v -0.051725827 -0.0091262269 -0.0087255319
v -0.051711635 -0.0097998816 -0.010351814
v -0.051697442 -0.0091262269 -0.011978098
v -0.051691564 -0.0074998814 -0.012651726
v -0.051697442 -0.0058735359 -0.011978098
v -0.051711635 -0.0051998812 -0.010351814
v -0.051725827 -0.0058735359 -0.0087255319
v -0.051862604 -0.0074998814 0.0069475254
v -0.051856725 -0.0091262269 0.0062738993
v -0.051842533 -0.0097998816 0.0046476151
v -0.05182834 -0.0091262269 0.003021331
v -0.051822462 -0.0074998814 0.0023477025
v -0.05182834 -0.0058735359 0.003021331
v -0.051842533 -0.0051998812 0.0046476151
v -0.051856725 -0.0058735359 0.0062738993
v -0.049354845 -0.0074998814 0.0060693792
v -0.049348736 -0.006287446 0.0053694042
v -0.049336519 -0.006287446 0.0039694564
v -0.049330411 -0.0074998814 0.0032694837
v -0.049336519 -0.0087123168 0.0039694564
v -0.049348736 -0.0087123168 0.0053694042
v -0.047854901 -0.0074998814 0.006082469
v -0.047848793 -0.0087123168 0.005382494
v -0.047836575 -0.0087123168 0.0039825462
v -0.047830467 -0.0074998814 0.0032825736
v -0.047836575 -0.006287446 0.0039825462
v -0.047848793 -0.006287446 0.005382494
v -0.047854901 -0.0074998814 0.006082469
v -0.049354845 -0.0074998814 0.0060693792
v -0.049231801 0.0075001186 -0.0080300847
v -0.049225922 0.0058737731 -0.0087037156
v -0.04921173 0.0052001184 -0.010329997
v -0.049197538 0.0058737731 -0.011956282
v -0.049191659 0.0075001186 -0.01262991
v -0.049197538 0.0091264641 -0.011956282
v -0.04921173 0.0098001188 -0.010329997
v -0.049225922 0.0091264641 -0.0087037156
v -0.051731706 0.0075001186 -0.0080519011
v -0.051725827 0.0091264641 -0.0087255319
v -0.051711635 0.0098001188 -0.010351814
v -0.051697442 0.0091264641 -0.011978098
v -0.051691564 0.0075001186 -0.012651726
v -0.051697442 0.0058737731 -0.011978098
v -0.051711635 0.0052001184 -0.010351814
v -0.051725827 0.0058737731 -0.0087255319
v -0.049231801 0.0075001186 -0.0080300847
v -0.051731706 0.0075001186 -0.0080519011
v -0.049354845 0.0075001186 0.0060693792
v -0.049348736 0.0062876832 0.0053694042
v -0.049336519 0.0062876832 0.0039694564
v -0.049330411 0.0075001186 0.0032694837
v -0.049336519 0.008712554 0.0039694564
v -0.049348736 0.008712554 0.0053694042
v -0.049362699 0.0075001186 0.0069693417
v -0.04935682 0.0091264641 0.0062957157
v -0.049342628 0.0098001188 0.0046694315
v -0.049328436 0.0091264641 0.0030431473
v -0.049322557 0.0075001186 0.0023695189
v -0.049328436 0.0058737731 0.0030431473
v -0.049342628 0.0052001184 0.0046694315
v -0.04935682 0.0058737731 0.0062957157
v -0.049362699 0.0075001186 0.0069693417
v -0.04935682 0.0058737731 0.0062957157
v -0.049342628 0.0052001184 0.0046694315
v -0.049328436 0.0058737731 0.0030431473
v -0.049322557 0.0075001186 0.0023695189
v -0.049328436 0.0091264641 0.0030431473
v -0.049342628 0.0098001188 0.0046694315
v -0.04935682 0.0091264641 0.0062957157
v -0.051862604 0.0075001186 0.0069475254
v -0.051856725 0.0091264641 0.0062738993
v -0.051842533 0.0098001188 0.0046476151
v -0.05182834 0.0091264641 0.003021331
v -0.051822462 0.0075001186 0.0023477025
v -0.05182834 0.0058737731 0.003021331
v -0.051842533 0.0052001184 0.0046476151
v -0.051856725 0.0058737731 0.0062738993
v -0.049362699 0.0075001186 0.0069693417
v -0.051862604 0.0075001186 0.0069475254
v -0.049223947 -0.0074998814 -0.008930052
v -0.049217838 -0.0087123168 -0.0096300247
v -0.049205621 -0.0087123168 -0.011029972
v -0.049199513 -0.0074998814 -0.011729945
v -0.049205621 -0.006287446 -0.011029972
v -0.049217838 -0.006287446 -0.0096300247
v -0.049231801 -0.0074998814 -0.0080300847
v -0.049225922 -0.0058735359 -0.0087037156
v -0.04921173 -0.0051998812 -0.010329997
v -0.049197538 -0.0058735359 -0.011956282
v -0.049191659 -0.0074998814 -0.01262991
v -0.049197538 -0.0091262269 -0.011956282
v -0.04921173 -0.0097998816 -0.010329997
v -0.049225922 -0.0091262269 -0.0087037156
v -0.049231801 -0.0074998814 -0.0080300847
v -0.049225922 -0.0091262269 -0.0087037156
v -0.04921173 -0.0097998816 -0.010329997
v -0.049197538 -0.0091262269 -0.011956282
v -0.049191659 -0.0074998814 -0.01262991
v -0.049197538 -0.0058735359 -0.011956282
v -0.04921173 -0.0051998812 -0.010329997
v -0.049225922 -0.0058735359 -0.0087037156
v -0.051731706 -0.0074998814 -0.0080519011
v -0.051725827 -0.0058735359 -0.0087255319
v -0.051711635 -0.0051998812 -0.010351814
v -0.051697442 -0.0058735359 -0.011978098
v -0.051691564 -0.0074998814 -0.012651726
v -0.051697442 -0.0091262269 -0.011978098
v -0.051711635 -0.0097998816 -0.010351814
v -0.051725827 -0.0091262269 -0.0087255319
v -0.049231801 -0.0074998814 -0.0080300847
v -0.051731706 -0.0074998814 -0.0080519011
v -0.049354845 -0.0074998814 0.0060693792
v -0.049348736 -0.0087123168 0.0053694042
v -0.049336519 -0.0087123168 0.0039694564
v -0.049330411 -0.0074998814 0.0032694837
v -0.049336519 -0.006287446 0.0039694564
v -0.049348736 -0.006287446 0.0053694042
v -0.049362699 -0.0074998814 0.0069693417
v -0.04935682 -0.0058735359 0.0062957157
v -0.049342628 -0.0051998812 0.0046694315
v -0.049328436 -0.0058735359 0.0030431473
v -0.049322557 -0.0074998814 0.0023695189
v -0.049328436 -0.0091262269 0.0030431473
v -0.049342628 -0.0097998816 0.0046694315
v -0.04935682 -0.0091262269 0.0062957157
v -0.049362699 -0.0074998814 0.0069693417
v -0.04935682 -0.0091262269 0.0062957157
v -0.049342628 -0.0097998816 0.0046694315
v -0.049328436 -0.0091262269 0.0030431473
v -0.049322557 -0.0074998814 0.0023695189
v -0.049328436 -0.0058735359 0.0030431473
v -0.049342628 -0.0051998812 0.0046694315
v -0.04935682 -0.0058735359 0.0062957157
v -0.051862604 -0.0074998814 0.0069475254
v -0.051856725 -0.0058735359 0.0062738993
v -0.051842533 -0.0051998812 0.0046476151
v -0.05182834 -0.0058735359 0.003021331
v -0.051822462 -0.0074998814 0.0023477025
v -0.05182834 -0.0091262269 0.003021331
v -0.051842533 -0.0097998816 0.0046476151
v -0.051856725 -0.0091262269 0.0062738993
v -0.049362699 -0.0074998814 0.0069693417
v -0.051862604 -0.0074998814 0.0069475254
f 2 13 1
f 1 13 7
f 1 7 8
f 13 2 12
f 12 2 3
f 12 3 11
f 11 3 4
f 11 4 10
f 10 4 5
f 10 5 9
f 9 5 6
f 9 6 8
f 8 6 1
f 15 27 14
f 14 27 28
f 29 21 20
f 20 21 22
f 20 22 19
f 19 22 23
f 19 23 18
f 18 23 24
f 18 24 17
f 17 24 25
f 17 25 16
f 16 25 26
f 16 26 15
f 15 26 27
f 30 31 33
f 33 31 32
f 35 43 34
f 34 43 44
f 34 44 45
f 43 35 42
f 42 35 36
f 42 36 41
f 41 36 37
f 41 37 40
f 40 37 47
f 47 37 38
f 47 38 46
f 46 38 39
f 46 39 45
f 45 39 34
f 49 60 48
f 48 60 54
f 48 54 55
f 60 49 59
f 59 49 50
f 59 50 58
f 58 50 51
f 58 51 57
f 57 51 52
f 57 52 56
f 56 52 53
f 56 53 55
f 55 53 48
f 62 63 61
f 61 63 64
f 66 67 65
f 65 67 68
f 70 80 69
f 69 80 82
f 81 75 74
f 74 75 76
f 74 76 73
f 73 76 77
f 73 77 72
f 72 77 78
f 72 78 71
f 71 78 79
f 71 79 70
f 70 79 80
f 84 94 83
f 83 94 96
f 95 89 88
f 88 89 90
f 88 90 87
f 87 90 91
f 87 91 86
f 86 91 92
f 86 92 85
f 85 92 93
f 85 93 84
f 84 93 94
f 98 112 97
f 97 112 114
f 113 105 104
f 104 105 106
f 104 106 103
f 103 106 107
f 103 107 102
f 102 107 108
f 102 108 101
f 101 108 109
f 101 109 100
f 100 109 110
f 100 110 99
f 99 110 111
f 99 111 98
f 98 111 112
f 116 128 115
f 115 128 129
f 130 122 121
f 121 122 123
f 121 123 120
f 120 123 124
f 120 124 119
f 119 124 125
f 119 125 118
f 118 125 126
f 118 126 117
f 117 126 127
f 117 127 116
f 116 127 128
f 132 143 131
f 131 143 137
f 131 137 138
f 143 132 142
f 142 132 133
f 142 133 141
f 141 133 134
f 141 134 140
f 140 134 135
f 140 135 139
f 139 135 136
f 139 136 138
f 138 136 131
f 144 145 147
f 147 145 146
f 149 159 148
f 148 159 161
f 160 154 153
f 153 154 155
f 153 155 152
f 152 155 156
f 152 156 151
f 151 156 157
f 151 157 150
f 150 157 158
f 150 158 149
f 149 158 159
f 163 171 162
f 162 171 172
f 162 172 173
f 171 163 170
f 170 163 164
f 170 164 169
f 169 164 165
f 169 165 168
f 168 165 175
f 175 165 166
f 175 166 174
f 174 166 167
f 174 167 173
f 173 167 162
f 177 188 176
f 176 188 182
f 176 182 183
f 188 177 187
f 187 177 178
f 187 178 186
f 186 178 179
f 186 179 185
f 185 179 180
f 185 180 184
f 184 180 181
f 184 181 183
f 183 181 176
f 190 202 189
f 189 202 203
f 204 196 195
f 195 196 197
f 195 197 194
f 194 197 198
f 194 198 193
f 193 198 199
f 193 199 192
f 192 199 200
f 192 200 191
f 191 200 201
f 191 201 190
f 190 201 202
f 206 213 205
f 205 213 214
f 205 214 210
f 210 214 215
f 210 215 209
f 209 215 216
f 209 216 208
f 208 216 218
f 217 211 207
f 207 211 212
f 207 212 206
f 206 212 213
f 220 234 219
f 219 234 236
f 235 227 226
f 226 227 228
f 226 228 225
f 225 228 229
f 225 229 224
f 224 229 230
f 224 230 223
f 223 230 231
f 223 231 222
f 222 231 232
f 222 232 221
f 221 232 233
f 221 233 220
f 220 233 234
f 238 250 237
f 237 250 251
f 252 244 243
f 243 244 245
f 243 245 242
f 242 245 246
f 242 246 241
f 241 246 247
f 241 247 240
f 240 247 248
f 240 248 239
f 239 248 249
f 239 249 238
f 238 249 250
f 253 254 256
f 256 254 255
f 264 257 265
f 265 257 258
f 265 258 270
f 270 258 259
f 270 259 269
f 269 259 260
f 269 260 268
f 268 260 261
f 268 261 262
f 268 262 267
f 267 262 263
f 267 263 266
f 266 263 264
f 266 264 265
f 271 272 274
f 274 272 273
f 276 290 275
f 275 290 292
f 291 283 282
f 282 283 284
f 282 284 281
f 281 284 285
f 281 285 280
f 280 285 286
f 280 286 279
f 279 286 287
f 279 287 278
f 278 287 288
f 278 288 277
f 277 288 289
f 277 289 276
f 276 289 290
f 293 294 296
f 296 294 295
f 298 308 297
f 297 308 309
f 310 303 302
f 302 303 304
f 302 304 301
f 301 304 305
f 301 305 300
f 300 305 306
f 300 306 299
f 299 306 307
f 299 307 298
f 298 307 308
f 312 320 311
f 311 320 321
f 311 321 322
f 320 312 319
f 319 312 313
f 319 313 318
f 318 313 314
f 318 314 317
f 317 314 324
f 324 314 315
f 324 315 323
f 323 315 316
f 323 316 322
f 322 316 311
f 325 326 328
f 328 326 327
f 330 340 329
f 329 340 341
f 342 335 334
f 334 335 336
f 334 336 333
f 333 336 337
f 333 337 332
f 332 337 338
f 332 338 331
f 331 338 339
f 331 339 330
f 330 339 340
f 344 358 343
f 343 358 360
f 359 351 350
f 350 351 352
f 350 352 349
f 349 352 353
f 349 353 348
f 348 353 354
f 348 354 347
f 347 354 355
f 347 355 346
f 346 355 356
f 346 356 345
f 345 356 357
f 345 357 344
f 344 357 358
f 362 375 361
f 361 375 376
f 361 376 366
f 366 376 377
f 366 377 413
f 413 377 412
f 412 377 401
f 412 401 402
f 363 386 362
f 362 386 384
f 362 384 371
f 371 384 370
f 370 384 379
f 370 379 369
f 369 379 380
f 369 380 393
f 393 380 400
f 400 380 421
f 400 421 422
f 386 363 385
f 385 363 364
f 385 364 415
f 415 364 414
f 414 364 365
f 414 365 413
f 413 365 366
f 368 394 367
f 367 394 395
f 367 395 372
f 372 395 374
f 372 374 375
f 394 368 393
f 393 368 369
f 362 371 375
f 375 371 372
f 374 407 373
f 373 407 408
f 373 408 378
f 378 408 401
f 378 401 377
f 421 380 387
f 387 380 381
f 387 381 382
f 387 382 386
f 386 382 383
f 386 383 384
f 388 419 387
f 387 419 420
f 387 420 421
f 385 392 388
f 388 392 417
f 388 417 418
f 390 397 389
f 389 397 398
f 389 398 399
f 391 411 390
f 390 411 403
f 390 403 404
f 392 385 391
f 391 385 409
f 391 409 410
f 389 423 392
f 392 423 424
f 392 424 417
f 374 395 407
f 407 395 396
f 407 396 406
f 406 396 405
f 405 396 397
f 405 397 390
f 400 422 399
f 399 422 423
f 399 423 389
f 412 402 411
f 411 402 403
f 404 405 390
f 410 411 391
f 415 416 385
f 385 416 409
f 418 419 388
f 426 436 425
f 425 436 437
f 438 431 430
f 430 431 432
f 430 432 429
f 429 432 433
f 429 433 428
f 428 433 434
f 428 434 427
f 427 434 435
f 427 435 426
f 426 435 436
f 440 452 439
f 439 452 445
f 439 445 446
f 452 440 451
f 451 440 441
f 451 441 450
f 450 441 442
f 450 442 449
f 449 442 448
f 448 442 443
f 448 443 447
f 447 443 444
f 447 444 446
f 446 444 439
f 454 467 453
f 453 467 475
f 453 475 459
f 459 475 476
f 459 476 520
f 520 476 498
f 520 498 519
f 519 498 499
f 519 499 518
f 518 499 500
f 518 500 512
f 512 500 490
f 512 490 511
f 511 490 491
f 511 491 471
f 471 491 492
f 471 492 493
f 454 455 467
f 467 455 470
f 470 455 461
f 470 461 462
f 455 456 461
f 461 456 516
f 461 516 506
f 506 516 517
f 506 517 505
f 505 517 512
f 512 517 518
f 516 456 515
f 515 456 457
f 515 457 514
f 514 457 458
f 514 458 513
f 513 458 459
f 513 459 520
f 461 507 460
f 460 507 508
f 460 508 466
f 466 508 509
f 466 509 465
f 465 509 472
f 465 472 464
f 464 472 470
f 464 470 463
f 463 470 462
f 467 468 475
f 475 468 481
f 481 468 480
f 480 468 469
f 480 469 488
f 488 469 487
f 487 469 486
f 486 469 485
f 485 469 473
f 485 473 484
f 484 473 474
f 484 474 483
f 483 474 482
f 482 474 495
f 482 495 488
f 488 495 496
f 488 496 502
f 502 496 501
f 501 496 489
f 501 489 490
f 473 469 472
f 472 469 470
f 511 471 510
f 510 471 472
f 510 472 509
f 471 493 474
f 474 493 494
f 474 494 495
f 498 476 497
f 497 476 477
f 497 477 504
f 504 477 478
f 504 478 503
f 503 478 479
f 503 479 502
f 502 479 488
f 479 480 488
f 500 501 490
f 506 507 461
f 522 532 521
f 521 532 533
f 534 527 526
f 526 527 528
f 526 528 525
f 525 528 529
f 525 529 524
f 524 529 530
f 524 530 523
f 523 530 531
f 523 531 522
f 522 531 532
f 536 550 535
f 535 550 552
f 551 543 542
f 542 543 544
f 542 544 541
f 541 544 545
f 541 545 540
f 540 545 546
f 540 546 539
f 539 546 547
f 539 547 538
f 538 547 548
f 538 548 537
f 537 548 549
f 537 549 536
f 536 549 550
f 554 566 553
f 553 566 559
f 553 559 560
f 566 554 565
f 565 554 555
f 565 555 564
f 564 555 556
f 564 556 563
f 563 556 562
f 562 556 557
f 562 557 561
f 561 557 558
f 561 558 560
f 560 558 553
f 568 582 567
f 567 582 584
f 583 575 574
f 574 575 576
f 574 576 573
f 573 576 577
f 573 577 572
f 572 577 578
f 572 578 571
f 571 578 579
f 571 579 570
f 570 579 580
f 570 580 569
f 569 580 581
f 569 581 568
f 568 581 582
f 586 598 585
f 585 598 591
f 585 591 592
f 598 586 597
f 597 586 587
f 597 587 596
f 596 587 588
f 596 588 595
f 595 588 594
f 594 588 589
f 594 589 593
f 593 589 590
f 593 590 592
f 592 590 585
f 600 614 599
f 599 614 616
f 615 607 606
f 606 607 608
f 606 608 605
f 605 608 609
f 605 609 604
f 604 609 610
f 604 610 603
f 603 610 611
f 603 611 602
f 602 611 612
f 602 612 601
f 601 612 613
f 601 613 600
f 600 613 614
f 618 630 617
f 617 630 623
f 617 623 624
f 630 618 629
f 629 618 619
f 629 619 628
f 628 619 620
f 628 620 627
f 627 620 626
f 626 620 621
f 626 621 625
f 625 621 622
f 625 622 624
f 624 622 617
f 632 646 631
f 631 646 648
f 647 639 638
f 638 639 640
f 638 640 637
f 637 640 641
f 637 641 636
f 636 641 642
f 636 642 635
f 635 642 643
f 635 643 634
f 634 643 644
f 634 644 633
f 633 644 645
f 633 645 632
f 632 645 646
