v -0.019000015 -5.5511151e-16 -0.0099999924
v -0.018155899 0.0056003571 -0.0099999924
v -0.015698547 0.010703087 -0.0099999924
v -0.011846313 0.014854794 -0.0099999924
v -0.006941452 0.017686596 -0.0099999924
v -0.0014199066 0.018946877 -0.0099999924
v 0.0042279053 0.018523636 -0.0099999924
v 0.0094999695 0.016454487 -0.0099999924
v 0.013927994 0.012923279 -0.0099999924
v 0.017118378 0.0082437897 -0.0099999924
v 0.018787766 0.0028318024 -0.0099999924
v 0.018787766 -0.0028318024 -0.0099999924
v 0.017118378 -0.0082437897 -0.0099999924
v 0.013927994 -0.012923279 -0.0099999924
v 0.0094999695 -0.016454487 -0.0099999924
v 0.0042279053 -0.018523636 -0.0099999924
v -0.0014199066 -0.018946877 -0.0099999924
v -0.006941452 -0.017686596 -0.0099999924
v -0.011846313 -0.014854794 -0.0099999924
v -0.015698547 -0.010703087 -0.0099999924
v -0.018155899 -0.0056003571 -0.0099999924
v -0.019000015 -5.5511151e-16 7.6293945e-09
v -0.018155899 -0.0056003571 7.6293945e-09
v -0.015698547 -0.010703087 7.6293945e-09
v -0.011846313 -0.014854794 7.6293945e-09
v -0.006941452 -0.017686596 7.6293945e-09
v -0.0014199066 -0.018946877 7.6293945e-09
v 0.0042279053 -0.018523636 7.6293945e-09
v 0.0094999695 -0.016454487 7.6293945e-09
v 0.013927994 -0.012923279 7.6293945e-09
v 0.017118378 -0.0082437897 7.6293945e-09
v 0.018787766 -0.0028318024 7.6293945e-09
v 0.018787766 0.0028318024 7.6293945e-09
v 0.017118378 0.0082437897 7.6293945e-09
v 0.013927994 0.012923279 7.6293945e-09
v 0.0094999695 0.016454487 7.6293945e-09
v 0.0042279053 0.018523636 7.6293945e-09
v -0.0014199066 0.018946877 7.6293945e-09
v -0.006941452 0.017686596 7.6293945e-09
v -0.011846313 0.014854794 7.6293945e-09
v -0.015698547 0.010703087 7.6293945e-09
v -0.018155899 0.0056003571 7.6293945e-09
v -0.019000015 -5.5511151e-16 7.6293945e-09
v -0.018155899 0.0056003571 7.6293945e-09
v -0.015698547 0.010703087 7.6293945e-09
v -0.011846313 0.014854794 7.6293945e-09
v -0.006941452 0.017686596 7.6293945e-09
v -0.0014199066 0.018946877 7.6293945e-09
v 0.0042279053 0.018523636 7.6293945e-09
v 0.0094999695 0.016454487 7.6293945e-09
v 0.013927994 0.012923279 7.6293945e-09
v 0.017118378 0.0082437897 7.6293945e-09
v 0.018787766 0.0028318024 7.6293945e-09
v 0.018787766 -0.0028318024 7.6293945e-09
v 0.017118378 -0.0082437897 7.6293945e-09
v 0.013927994 -0.012923279 7.6293945e-09
v 0.0094999695 -0.016454487 7.6293945e-09
v 0.0042279053 -0.018523636 7.6293945e-09
v -0.0014199066 -0.018946877 7.6293945e-09
v -0.006941452 -0.017686596 7.6293945e-09
v -0.011846313 -0.014854794 7.6293945e-09
v -0.015698547 -0.010703087 7.6293945e-09
v -0.018155899 -0.0056003571 7.6293945e-09
v -0.019000015 -5.5511151e-16 -0.0099999924
v -0.018155899 -0.0056003571 -0.0099999924
v -0.015698547 -0.010703087 -0.0099999924
v -0.011846313 -0.014854794 -0.0099999924
v -0.006941452 -0.017686596 -0.0099999924
v -0.0014199066 -0.018946877 -0.0099999924
v 0.0042279053 -0.018523636 -0.0099999924
v 0.0094999695 -0.016454487 -0.0099999924
v 0.013927994 -0.012923279 -0.0099999924
v 0.017118378 -0.0082437897 -0.0099999924
v 0.018787766 -0.0028318024 -0.0099999924
v 0.018787766 0.0028318024 -0.0099999924
v 0.017118378 0.0082437897 -0.0099999924
v 0.013927994 0.012923279 -0.0099999924
v 0.0094999695 0.016454487 -0.0099999924
v 0.0042279053 0.018523636 -0.0099999924
v -0.0014199066 0.018946877 -0.0099999924
v -0.006941452 0.017686596 -0.0099999924
v -0.011846313 0.014854794 -0.0099999924
v -0.015698547 0.010703087 -0.0099999924
v -0.018155899 0.0056003571 -0.0099999924
v -0.019000015 -5.5511151e-16 -0.0099999924
v -0.019000015 -5.5511151e-16 7.6293945e-09
f 21 1 16
f 16 1 2
f 16 2 3
f 3 4 16
f 16 4 5
f 16 5 6
f 6 7 16
f 16 7 15
f 15 7 8
f 15 8 14
f 14 8 9
f 14 9 13
f 13 9 10
f 13 10 12
f 12 10 11
f 17 18 16
f 16 18 19
f 16 19 20
f 20 21 16
f 42 22 28
f 28 22 23
f 28 23 24
f 24 25 28
f 28 25 26
f 28 26 27
f 29 37 28
f 28 37 38
f 28 38 39
f 37 29 36
f 36 29 30
f 36 30 35
f 35 30 31
f 35 31 34
f 34 31 32
f 34 32 33
f 39 40 28
f 28 40 41
f 28 41 42
f 44 84 43
f 43 84 85
f 86 64 63
f 63 64 65
f 63 65 62
f 62 65 66
f 62 66 61
f 61 66 67
f 61 67 60
f 60 67 68
f 60 68 59
f 59 68 69
f 59 69 58
f 58 69 70
f 58 70 57
f 57 70 71
f 57 71 56
f 56 71 72
f 56 72 55
f 55 72 73
f 55 73 54
f 54 73 74
f 54 74 53
f 53 74 75
f 53 75 52
f 52 75 76
f 52 76 51
f 51 76 77
f 51 77 50
f 50 77 78
f 50 78 49
f 49 78 79
f 49 79 48
f 48 79 80
f 48 80 47
f 47 80 81
f 47 81 46
f 46 81 82
f 46 82 45
f 45 82 83
f 45 83 44
f 44 83 84
