v -0.77020599 -0.37505749 0.058000002
v -0.77020599 -0.37505749 0.064000001
v -0.77020599 -0.3751775 0.064000001
v -0.77020599 -0.3751775 0.058000002
v -0.77020599 -0.37505749 0.064000001
v -0.771 -0.37505749 0.064000001
v -0.771 -0.3751775 0.064000001
v -0.77020599 -0.3751775 0.064000001
v -0.771 -0.37505749 0.064000001
v -0.771 -0.37505749 0.058000002
v -0.771 -0.3751775 0.058000002
v -0.771 -0.3751775 0.064000001
v -0.77020599 -0.37505749 0.058000002
v -0.771 -0.37505749 0.058000002
v -0.771 -0.37505749 0.064000001
v -0.77020599 -0.37505749 0.064000001
v -0.771 -0.3751775 0.058000002
v -0.77020599 -0.3751775 0.058000002
v -0.77020599 -0.3751775 0.064000001
v -0.771 -0.3751775 0.064000001
v -0.771 -0.37505749 0.058000002
v -0.77020599 -0.37505749 0.058000002
v -0.77020599 -0.3751775 0.058000002
v -0.771 -0.3751775 0.058000002
f 1 2 4
f 4 2 3
f 5 6 8
f 8 6 7
f 9 10 12
f 12 10 11
f 13 14 16
f 16 14 15
f 17 18 20
f 20 18 19
f 21 22 24
f 24 22 23
v -0.76938301 -0.37505749 0.045506139
v -0.76964085 -0.37505749 0.045276346
v -0.7699317 -0.37505749 0.045112209
v -0.7702556 -0.37505749 0.045013728
v -0.77061255 -0.37505749 0.044980898
v -0.77061255 -0.3751775 0.044980898
v -0.7702556 -0.3751775 0.045013728
v -0.7699317 -0.3751775 0.045112209
v -0.76964085 -0.3751775 0.045276346
v -0.76938301 -0.3751775 0.045506139
v -0.77061255 -0.37505749 0.044980898
v -0.77096375 -0.37505749 0.045013409
v -0.77128403 -0.37505749 0.045110931
v -0.77157339 -0.37505749 0.045273471
v -0.77183186 -0.37505749 0.045501022
v -0.77183186 -0.3751775 0.045501022
v -0.77157339 -0.3751775 0.045273471
v -0.77128403 -0.3751775 0.045110931
v -0.77096375 -0.3751775 0.045013409
v -0.77061255 -0.3751775 0.044980898
v -0.77183186 -0.37505749 0.045501022
v -0.77204449 -0.37505749 0.045785065
v -0.77219637 -0.37505749 0.046117067
v -0.7722875 -0.37505749 0.046497035
v -0.77231787 -0.37505749 0.046924963
v -0.77231787 -0.3751775 0.046924963
v -0.7722875 -0.3751775 0.046497035
v -0.77219637 -0.3751775 0.046117067
v -0.77204449 -0.3751775 0.045785065
v -0.77183186 -0.3751775 0.045501022
v -0.77299999 -0.37505749 0.046935196
v -0.77292837 -0.37505749 0.046293998
v -0.77271351 -0.37505749 0.045686903
v -0.77271351 -0.3751775 0.045686903
v -0.77292837 -0.3751775 0.046293998
v -0.77299999 -0.3751775 0.046935196
v -0.76850988 -0.37505749 0.048335266
v -0.76886759 -0.37505749 0.048861785
v -0.76935743 -0.37505749 0.049257846
v -0.76935743 -0.3751775 0.049257846
v -0.76886759 -0.3751775 0.048861785
v -0.76850988 -0.3751775 0.048335266
v -0.76935743 -0.37505749 0.049257846
v -0.76994747 -0.37505749 0.049505968
v -0.77060574 -0.37505749 0.049588675
v -0.77060574 -0.3751775 0.049588675
v -0.76994747 -0.3751775 0.049505968
v -0.76935743 -0.3751775 0.049257846
v -0.77060574 -0.37505749 0.049588675
v -0.77111008 -0.37505749 0.049544659
v -0.77156582 -0.37505749 0.049412603
v -0.77197296 -0.37505749 0.04919251
v -0.7723315 -0.37505749 0.048884377
v -0.7723315 -0.3751775 0.048884377
v -0.77197296 -0.3751775 0.04919251
v -0.77156582 -0.3751775 0.049412603
v -0.77111008 -0.3751775 0.049544659
v -0.77060574 -0.3751775 0.049588675
v -0.7723315 -0.37505749 0.048884377
v -0.77262398 -0.37505749 0.048498445
v -0.77283287 -0.37505749 0.048044934
v -0.77295822 -0.37505749 0.047523851
v -0.77299999 -0.37505749 0.046935196
v -0.77299999 -0.3751775 0.046935196
v -0.77295822 -0.3751775 0.047523851
v -0.77283287 -0.3751775 0.048044934
v -0.77262398 -0.3751775 0.048498445
v -0.7723315 -0.3751775 0.048884377
v -0.77299999 -0.3751775 0.046935196
v -0.77292837 -0.3751775 0.046293998
v -0.77271351 -0.3751775 0.045686903
v -0.77235966 -0.3751775 0.045159106
v -0.77187107 -0.3751775 0.044755797
v -0.77127762 -0.3751775 0.044499998
v -0.77060915 -0.3751775 0.044414735
v -0.76997988 -0.3751775 0.044491901
v -0.76939495 -0.3751775 0.044723396
v -0.76889614 -0.3751775 0.045104961
v -0.76852524 -0.3751775 0.045632334
v -0.76829502 -0.3751775 0.046272678
v -0.76821829 -0.3751775 0.046993179
v -0.76829119 -0.3751775 0.047703872
v -0.76850988 -0.3751775 0.048335266
v -0.76886759 -0.3751775 0.048861785
v -0.76935743 -0.3751775 0.049257846
v -0.76994747 -0.3751775 0.049505968
v -0.77060574 -0.3751775 0.049588675
v -0.77111008 -0.3751775 0.049544659
v -0.77156582 -0.3751775 0.049412603
v -0.77197296 -0.3751775 0.04919251
v -0.7723315 -0.3751775 0.048884377
v -0.77262398 -0.3751775 0.048498445
v -0.77283287 -0.3751775 0.048044934
v -0.77295822 -0.3751775 0.047523851
v -0.77231787 -0.3751775 0.046924963
v -0.77228622 -0.3751775 0.047449031
v -0.77219126 -0.3751775 0.047892308
v -0.77203299 -0.3751775 0.048254795
v -0.77181139 -0.3751775 0.048536491
v -0.77154589 -0.3751775 0.048747635
v -0.77125587 -0.3751775 0.048898449
v -0.77094135 -0.3751775 0.048988938
v -0.77060232 -0.3751775 0.049019098
v -0.77013208 -0.3751775 0.048956428
v -0.76971045 -0.3751775 0.048768415
v -0.76936085 -0.3751775 0.048466578
v -0.76910675 -0.3751775 0.048062415
v -0.76895199 -0.3751775 0.047568297
v -0.76890041 -0.3751775 0.046996589
v -0.76893057 -0.3751775 0.046541481
v -0.76902105 -0.3751775 0.046141372
v -0.76917187 -0.3751775 0.045796256
v -0.76938301 -0.3751775 0.045506139
v -0.76964085 -0.3751775 0.045276346
v -0.7699317 -0.3751775 0.045112209
v -0.7702556 -0.3751775 0.045013728
v -0.77061255 -0.3751775 0.044980898
v -0.77096375 -0.3751775 0.045013409
v -0.77128403 -0.3751775 0.045110931
v -0.77157339 -0.3751775 0.045273471
v -0.77183186 -0.3751775 0.045501022
v -0.77204449 -0.3751775 0.045785065
v -0.77219637 -0.3751775 0.046117067
v -0.7722875 -0.3751775 0.046497035
v -0.77181139 -0.37505749 0.048536491
v -0.77154589 -0.37505749 0.048747635
v -0.77125587 -0.37505749 0.048898449
v -0.77094135 -0.37505749 0.048988938
v -0.77060232 -0.37505749 0.049019098
v -0.77060232 -0.3751775 0.049019098
v -0.77094135 -0.3751775 0.048988938
v -0.77125587 -0.3751775 0.048898449
v -0.77154589 -0.3751775 0.048747635
v -0.77181139 -0.3751775 0.048536491
v -0.77231787 -0.37505749 0.046924963
v -0.77228622 -0.37505749 0.047449031
v -0.77219126 -0.37505749 0.047892308
v -0.77203299 -0.37505749 0.048254795
v -0.77181139 -0.37505749 0.048536491
v -0.77181139 -0.3751775 0.048536491
v -0.77203299 -0.3751775 0.048254795
v -0.77219126 -0.3751775 0.047892308
v -0.77228622 -0.3751775 0.047449031
v -0.77231787 -0.3751775 0.046924963
v -0.77060232 -0.37505749 0.049019098
v -0.77013208 -0.37505749 0.048956428
v -0.76971045 -0.37505749 0.048768415
v -0.76971045 -0.3751775 0.048768415
v -0.77013208 -0.3751775 0.048956428
v -0.77060232 -0.3751775 0.049019098
v -0.77271351 -0.37505749 0.045686903
v -0.77292837 -0.37505749 0.046293998
v -0.77299999 -0.37505749 0.046935196
v -0.77295822 -0.37505749 0.047523851
v -0.77283287 -0.37505749 0.048044934
v -0.77262398 -0.37505749 0.048498445
v -0.7723315 -0.37505749 0.048884377
v -0.77197296 -0.37505749 0.04919251
v -0.77156582 -0.37505749 0.049412603
v -0.77111008 -0.37505749 0.049544659
v -0.77060574 -0.37505749 0.049588675
v -0.76994747 -0.37505749 0.049505968
v -0.76935743 -0.37505749 0.049257846
v -0.76886759 -0.37505749 0.048861785
v -0.76850988 -0.37505749 0.048335266
v -0.76829119 -0.37505749 0.047703872
v -0.76821829 -0.37505749 0.046993179
v -0.76829502 -0.37505749 0.046272678
v -0.76852524 -0.37505749 0.045632334
v -0.76889614 -0.37505749 0.045104961
v -0.76939495 -0.37505749 0.044723396
v -0.76997988 -0.37505749 0.044491901
v -0.77060915 -0.37505749 0.044414735
v -0.77127762 -0.37505749 0.044499998
v -0.77187107 -0.37505749 0.044755797
v -0.77235966 -0.37505749 0.045159106
v -0.77181139 -0.37505749 0.048536491
v -0.77203299 -0.37505749 0.048254795
v -0.77219126 -0.37505749 0.047892308
v -0.77228622 -0.37505749 0.047449031
v -0.77231787 -0.37505749 0.046924963
v -0.7722875 -0.37505749 0.046497035
v -0.77219637 -0.37505749 0.046117067
v -0.77204449 -0.37505749 0.045785065
v -0.77183186 -0.37505749 0.045501022
v -0.77157339 -0.37505749 0.045273471
v -0.77128403 -0.37505749 0.045110931
v -0.77096375 -0.37505749 0.045013409
v -0.77061255 -0.37505749 0.044980898
v -0.7702556 -0.37505749 0.045013728
v -0.7699317 -0.37505749 0.045112209
v -0.76964085 -0.37505749 0.045276346
v -0.76938301 -0.37505749 0.045506139
v -0.76917187 -0.37505749 0.045796256
v -0.76902105 -0.37505749 0.046141372
v -0.76893057 -0.37505749 0.046541481
v -0.76890041 -0.37505749 0.046996589
v -0.76895199 -0.37505749 0.047568297
v -0.76910675 -0.37505749 0.048062415
v -0.76936085 -0.37505749 0.048466578
v -0.76971045 -0.37505749 0.048768415
v -0.77013208 -0.37505749 0.048956428
v -0.77060232 -0.37505749 0.049019098
v -0.77094135 -0.37505749 0.048988938
v -0.77125587 -0.37505749 0.048898449
v -0.77154589 -0.37505749 0.048747635
v -0.76971045 -0.37505749 0.048768415
v -0.76936085 -0.37505749 0.048466578
v -0.76910675 -0.37505749 0.048062415
v -0.76910675 -0.3751775 0.048062415
v -0.76936085 -0.3751775 0.048466578
v -0.76971045 -0.3751775 0.048768415
v -0.76910675 -0.37505749 0.048062415
v -0.76895199 -0.37505749 0.047568297
v -0.76890041 -0.37505749 0.046996589
v -0.76890041 -0.3751775 0.046996589
v -0.76895199 -0.3751775 0.047568297
v -0.76910675 -0.3751775 0.048062415
v -0.76890041 -0.37505749 0.046996589
v -0.76893057 -0.37505749 0.046541481
v -0.76902105 -0.37505749 0.046141372
v -0.76917187 -0.37505749 0.045796256
v -0.76938301 -0.37505749 0.045506139
v -0.76938301 -0.3751775 0.045506139
v -0.76917187 -0.3751775 0.045796256
v -0.76902105 -0.3751775 0.046141372
v -0.76893057 -0.3751775 0.046541481
v -0.76890041 -0.3751775 0.046996589
v -0.77060915 -0.37505749 0.044414735
v -0.76997988 -0.37505749 0.044491901
v -0.76939495 -0.37505749 0.044723396
v -0.76939495 -0.3751775 0.044723396
v -0.76997988 -0.3751775 0.044491901
v -0.77060915 -0.3751775 0.044414735
v -0.76939495 -0.37505749 0.044723396
v -0.76889614 -0.37505749 0.045104961
v -0.76852524 -0.37505749 0.045632334
v -0.76852524 -0.3751775 0.045632334
v -0.76889614 -0.3751775 0.045104961
v -0.76939495 -0.3751775 0.044723396
v -0.77187107 -0.37505749 0.044755797
v -0.77127762 -0.37505749 0.044499998
v -0.77060915 -0.37505749 0.044414735
v -0.77060915 -0.3751775 0.044414735
v -0.77127762 -0.3751775 0.044499998
v -0.77187107 -0.3751775 0.044755797
v -0.76852524 -0.37505749 0.045632334
v -0.76829502 -0.37505749 0.046272678
v -0.76821829 -0.37505749 0.046993179
v -0.76821829 -0.3751775 0.046993179
v -0.76829502 -0.3751775 0.046272678
v -0.76852524 -0.3751775 0.045632334
v -0.77271351 -0.37505749 0.045686903
v -0.77235966 -0.37505749 0.045159106
v -0.77187107 -0.37505749 0.044755797
v -0.77187107 -0.3751775 0.044755797
v -0.77235966 -0.3751775 0.045159106
v -0.77271351 -0.3751775 0.045686903
v -0.76821829 -0.37505749 0.046993179
v -0.76829119 -0.37505749 0.047703872
v -0.76850988 -0.37505749 0.048335266
v -0.76850988 -0.3751775 0.048335266
v -0.76829119 -0.3751775 0.047703872
v -0.76821829 -0.3751775 0.046993179
f 25 26 34
f 34 26 33
f 33 26 27
f 33 27 32
f 32 27 28
f 32 28 31
f 31 28 29
f 31 29 30
f 35 36 44
f 44 36 43
f 43 36 37
f 43 37 42
f 42 37 38
f 42 38 41
f 41 38 39
f 41 39 40
f 45 46 54
f 54 46 53
f 53 46 47
f 53 47 52
f 52 47 48
f 52 48 51
f 51 48 49
f 51 49 50
f 55 56 60
f 60 56 59
f 59 56 57
f 59 57 58
f 61 62 66
f 66 62 65
f 65 62 63
f 65 63 64
f 67 68 72
f 72 68 71
f 71 68 69
f 71 69 70
f 73 74 82
f 82 74 81
f 81 74 75
f 81 75 80
f 80 75 76
f 80 76 79
f 79 76 77
f 79 77 78
f 83 84 92
f 92 84 91
f 91 84 85
f 91 85 90
f 90 85 86
f 90 86 89
f 89 86 87
f 89 87 88
f 94 148 93
f 93 148 119
f 93 119 118
f 118 119 120
f 118 120 117
f 117 120 121
f 117 121 116
f 116 121 122
f 116 122 115
f 115 122 123
f 115 123 114
f 114 123 124
f 114 124 113
f 113 124 125
f 113 125 112
f 112 125 126
f 112 126 111
f 111 126 127
f 111 127 128
f 148 94 147
f 147 94 95
f 147 95 146
f 146 95 96
f 146 96 145
f 145 96 97
f 145 97 144
f 144 97 143
f 143 97 98
f 143 98 142
f 142 98 99
f 142 99 141
f 141 99 140
f 140 99 100
f 140 100 139
f 139 100 101
f 139 101 138
f 138 101 137
f 137 101 102
f 137 102 136
f 136 102 103
f 136 103 135
f 135 103 104
f 135 104 134
f 134 104 105
f 134 105 133
f 133 105 106
f 133 106 132
f 132 106 107
f 132 107 131
f 131 107 108
f 131 108 130
f 130 108 109
f 130 109 129
f 129 109 110
f 129 110 128
f 128 110 111
f 149 150 158
f 158 150 157
f 157 150 151
f 157 151 156
f 156 151 152
f 156 152 155
f 155 152 153
f 155 153 154
f 159 160 168
f 168 160 167
f 167 160 161
f 167 161 166
f 166 161 162
f 166 162 165
f 165 162 163
f 165 163 164
f 169 170 174
f 174 170 173
f 173 170 171
f 173 171 172
f 176 207 175
f 175 207 208
f 175 208 200
f 200 208 209
f 200 209 199
f 199 209 210
f 199 210 211
f 207 176 206
f 206 176 177
f 206 177 205
f 205 177 178
f 205 178 204
f 204 178 179
f 204 179 203
f 203 179 180
f 203 180 202
f 202 180 181
f 202 181 201
f 201 181 182
f 201 182 230
f 230 182 183
f 230 183 229
f 229 183 184
f 229 184 228
f 228 184 185
f 228 185 227
f 227 185 226
f 226 185 186
f 226 186 225
f 225 186 187
f 225 187 224
f 224 187 188
f 224 188 223
f 223 188 189
f 223 189 222
f 222 189 190
f 222 190 221
f 221 190 191
f 221 191 220
f 220 191 192
f 220 192 219
f 219 192 193
f 219 193 218
f 218 193 194
f 218 194 217
f 217 194 195
f 217 195 216
f 216 195 215
f 215 195 196
f 215 196 214
f 214 196 197
f 214 197 213
f 213 197 212
f 212 197 198
f 212 198 211
f 211 198 199
f 231 232 236
f 236 232 235
f 235 232 233
f 235 233 234
f 237 238 242
f 242 238 241
f 241 238 239
f 241 239 240
f 243 244 252
f 252 244 251
f 251 244 245
f 251 245 250
f 250 245 246
f 250 246 249
f 249 246 247
f 249 247 248
f 253 254 258
f 258 254 257
f 257 254 255
f 257 255 256
f 259 260 264
f 264 260 263
f 263 260 261
f 263 261 262
f 265 266 270
f 270 266 269
f 269 266 267
f 269 267 268
f 271 272 276
f 276 272 275
f 275 272 273
f 275 273 274
f 277 278 282
f 282 278 281
f 281 278 279
f 281 279 280
f 283 284 288
f 288 284 287
f 287 284 285
f 287 285 286
