v -0.79799999 -0.3353575 0
v -0.79736374 -0.33134028 0
v -0.79551722 -0.3277163 0
v -0.7926412 -0.32484028 0
v -0.78901722 -0.32299376 0
v -0.785 -0.32235751 0
v -0.78098278 -0.32299376 0
v -0.7773588 -0.32484028 0
v -0.77448278 -0.3277163 0
v -0.77263626 -0.33134028 0
v -0.77200001 -0.3353575 0
v -0.77263626 -0.33937472 0
v -0.77448278 -0.3429987 0
v -0.7773588 -0.34587472 0
v -0.78098278 -0.34772124 0
v -0.785 -0.34835749 0
v -0.78901722 -0.34772124 0
v -0.7926412 -0.34587472 0
v -0.79551722 -0.3429987 0
v -0.79736374 -0.33937472 0
v -0.79799999 -0.3353575 0.024000001
v -0.79736374 -0.33937472 0.024000001
v -0.79551722 -0.3429987 0.024000001
v -0.7926412 -0.34587472 0.024000001
v -0.78901722 -0.34772124 0.024000001
v -0.785 -0.34835749 0.024000001
v -0.78098278 -0.34772124 0.024000001
v -0.7773588 -0.34587472 0.024000001
v -0.77448278 -0.3429987 0.024000001
v -0.77263626 -0.33937472 0.024000001
v -0.77200001 -0.3353575 0.024000001
v -0.77263626 -0.33134028 0.024000001
v -0.77448278 -0.3277163 0.024000001
v -0.7773588 -0.32484028 0.024000001
v -0.78098278 -0.32299376 0.024000001
v -0.785 -0.32235751 0.024000001
v -0.78901722 -0.32299376 0.024000001
v -0.7926412 -0.32484028 0.024000001
v -0.79551722 -0.3277163 0.024000001
v -0.79736374 -0.33134028 0.024000001
v -0.79799999 -0.3353575 0.024000001
v -0.79736374 -0.33134028 0.024000001
v -0.79551722 -0.3277163 0.024000001
v -0.7926412 -0.32484028 0.024000001
v -0.78901722 -0.32299376 0.024000001
v -0.785 -0.32235751 0.024000001
v -0.78098278 -0.32299376 0.024000001
v -0.7773588 -0.32484028 0.024000001
v -0.77448278 -0.3277163 0.024000001
v -0.77263626 -0.33134028 0.024000001
v -0.77200001 -0.3353575 0.024000001
v -0.77263626 -0.33937472 0.024000001
v -0.77448278 -0.3429987 0.024000001
v -0.7773588 -0.34587472 0.024000001
v -0.78098278 -0.34772124 0.024000001
v -0.785 -0.34835749 0.024000001
v -0.78901722 -0.34772124 0.024000001
v -0.7926412 -0.34587472 0.024000001
v -0.79551722 -0.3429987 0.024000001
v -0.79736374 -0.33937472 0.024000001
v -0.79799999 -0.3353575 0
v -0.79736374 -0.33937472 0
v -0.79551722 -0.3429987 0
v -0.7926412 -0.34587472 0
v -0.78901722 -0.34772124 0
v -0.785 -0.34835749 0
v -0.78098278 -0.34772124 0
v -0.7773588 -0.34587472 0
v -0.77448278 -0.3429987 0
v -0.77263626 -0.33937472 0
v -0.77200001 -0.3353575 0
v -0.77263626 -0.33134028 0
v -0.77448278 -0.3277163 0
v -0.7773588 -0.32484028 0
v -0.78098278 -0.32299376 0
v -0.785 -0.32235751 0
v -0.78901722 -0.32299376 0
v -0.7926412 -0.32484028 0
v -0.79551722 -0.3277163 0
v -0.79736374 -0.33134028 0
v -0.79799999 -0.3353575 0
v -0.79799999 -0.3353575 0.024000001
f 2 10 1
f 1 10 11
f 1 11 20
f 20 11 12
f 20 12 19
f 19 12 13
f 19 13 18
f 18 13 14
f 18 14 17
f 17 14 15
f 17 15 16
f 10 2 9
f 9 2 3
f 9 3 8
f 8 3 4
f 8 4 7
f 7 4 5
f 7 5 6
f 22 30 21
f 21 30 31
f 21 31 40
f 40 31 32
f 40 32 39
f 39 32 33
f 39 33 38
f 38 33 34
f 38 34 37
f 37 34 35
f 37 35 36
f 30 22 29
f 29 22 23
f 29 23 28
f 28 23 24
f 28 24 27
f 27 24 25
f 27 25 26
f 42 80 41
f 41 80 81
f 82 61 60
f 60 61 62
f 60 62 59
f 59 62 63
f 59 63 58
f 58 63 64
f 58 64 57
f 57 64 65
f 57 65 56
f 56 65 66
f 56 66 55
f 55 66 67
f 55 67 54
f 54 67 68
f 54 68 53
f 53 68 69
f 53 69 52
f 52 69 70
f 52 70 51
f 51 70 71
f 51 71 50
f 50 71 72
f 50 72 49
f 49 72 73
f 49 73 48
f 48 73 74
f 48 74 47
f 47 74 75
f 47 75 46
f 46 75 76
f 46 76 45
f 45 76 77
f 45 77 44
f 44 77 78
f 44 78 43
f 43 78 79
f 43 79 42
f 42 79 80
v -0.79799999 0.1896425 0
v -0.79736374 0.19365972 0
v -0.79551722 0.1972837 0
v -0.7926412 0.20015972 0
v -0.78901722 0.20200624 0
v -0.785 0.20264249 0
v -0.78098278 0.20200624 0
v -0.7773588 0.20015972 0
v -0.77448278 0.1972837 0
v -0.77263626 0.19365972 0
v -0.77200001 0.1896425 0
v -0.77263626 0.18562528 0
v -0.77448278 0.1820013 0
v -0.7773588 0.17912528 0
v -0.78098278 0.17727876 0
v -0.785 0.17664251 0
v -0.78901722 0.17727876 0
v -0.7926412 0.17912528 0
v -0.79551722 0.1820013 0
v -0.79736374 0.18562528 0
v -0.79799999 0.1896425 0.024000001
v -0.79736374 0.18562528 0.024000001
v -0.79551722 0.1820013 0.024000001
v -0.7926412 0.17912528 0.024000001
v -0.78901722 0.17727876 0.024000001
v -0.785 0.17664251 0.024000001
v -0.78098278 0.17727876 0.024000001
v -0.7773588 0.17912528 0.024000001
v -0.77448278 0.1820013 0.024000001
v -0.77263626 0.18562528 0.024000001
v -0.77200001 0.1896425 0.024000001
v -0.77263626 0.19365972 0.024000001
v -0.77448278 0.1972837 0.024000001
v -0.7773588 0.20015972 0.024000001
v -0.78098278 0.20200624 0.024000001
v -0.785 0.20264249 0.024000001
v -0.78901722 0.20200624 0.024000001
v -0.7926412 0.20015972 0.024000001
v -0.79551722 0.1972837 0.024000001
v -0.79736374 0.19365972 0.024000001
v -0.79799999 0.1896425 0.024000001
v -0.79736374 0.19365972 0.024000001
v -0.79551722 0.1972837 0.024000001
v -0.7926412 0.20015972 0.024000001
v -0.78901722 0.20200624 0.024000001
v -0.785 0.20264249 0.024000001
v -0.78098278 0.20200624 0.024000001
v -0.7773588 0.20015972 0.024000001
v -0.77448278 0.1972837 0.024000001
v -0.77263626 0.19365972 0.024000001
v -0.77200001 0.1896425 0.024000001
v -0.77263626 0.18562528 0.024000001
v -0.77448278 0.1820013 0.024000001
v -0.7773588 0.17912528 0.024000001
v -0.78098278 0.17727876 0.024000001
v -0.785 0.17664251 0.024000001
v -0.78901722 0.17727876 0.024000001
v -0.7926412 0.17912528 0.024000001
v -0.79551722 0.1820013 0.024000001
v -0.79736374 0.18562528 0.024000001
v -0.79799999 0.1896425 0
v -0.79736374 0.18562528 0
v -0.79551722 0.1820013 0
v -0.7926412 0.17912528 0
v -0.78901722 0.17727876 0
v -0.785 0.17664251 0
v -0.78098278 0.17727876 0
v -0.7773588 0.17912528 0
v -0.77448278 0.1820013 0
v -0.77263626 0.18562528 0
v -0.77200001 0.1896425 0
v -0.77263626 0.19365972 0
v -0.77448278 0.1972837 0
v -0.7773588 0.20015972 0
v -0.78098278 0.20200624 0
v -0.785 0.20264249 0
v -0.78901722 0.20200624 0
v -0.7926412 0.20015972 0
v -0.79551722 0.1972837 0
v -0.79736374 0.19365972 0
v -0.79799999 0.1896425 0
v -0.79799999 0.1896425 0.024000001
f 84 92 83
f 83 92 93
f 83 93 102
f 102 93 94
f 102 94 101
f 101 94 95
f 101 95 100
f 100 95 96
f 100 96 99
f 99 96 97
f 99 97 98
f 92 84 91
f 91 84 85
f 91 85 90
f 90 85 86
f 90 86 89
f 89 86 87
f 89 87 88
f 104 112 103
f 103 112 113
f 103 113 122
f 122 113 114
f 122 114 121
f 121 114 115
f 121 115 120
f 120 115 116
f 120 116 119
f 119 116 117
f 119 117 118
f 112 104 111
f 111 104 105
f 111 105 110
f 110 105 106
f 110 106 109
f 109 106 107
f 109 107 108
f 124 162 123
f 123 162 163
f 164 143 142
f 142 143 144
f 142 144 141
f 141 144 145
f 141 145 140
f 140 145 146
f 140 146 139
f 139 146 147
f 139 147 138
f 138 147 148
f 138 148 137
f 137 148 149
f 137 149 136
f 136 149 150
f 136 150 135
f 135 150 151
f 135 151 134
f 134 151 152
f 134 152 133
f 133 152 153
f 133 153 132
f 132 153 154
f 132 154 131
f 131 154 155
f 131 155 130
f 130 155 156
f 130 156 129
f 129 156 157
f 129 157 128
f 128 157 158
f 128 158 127
f 127 158 159
f 127 159 126
f 126 159 160
f 126 160 125
f 125 160 161
f 125 161 124
f 124 161 162
v -0.42799999 -0.3353575 0
v -0.42736374 -0.33134028 0
v -0.42551722 -0.3277163 0
v -0.4226412 -0.32484028 0
v -0.41901722 -0.32299376 0
v -0.415 -0.32235751 0
v -0.41098278 -0.32299376 0
v -0.4073588 -0.32484028 0
v -0.40448278 -0.3277163 0
v -0.40263626 -0.33134028 0
v -0.40200001 -0.3353575 0
v -0.40263626 -0.33937472 0
v -0.40448278 -0.3429987 0
v -0.4073588 -0.34587472 0
v -0.41098278 -0.34772124 0
v -0.415 -0.34835749 0
v -0.41901722 -0.34772124 0
v -0.4226412 -0.34587472 0
v -0.42551722 -0.3429987 0
v -0.42736374 -0.33937472 0
v -0.42799999 -0.3353575 0.024000001
v -0.42736374 -0.33937472 0.024000001
v -0.42551722 -0.3429987 0.024000001
v -0.4226412 -0.34587472 0.024000001
v -0.41901722 -0.34772124 0.024000001
v -0.415 -0.34835749 0.024000001
v -0.41098278 -0.34772124 0.024000001
v -0.4073588 -0.34587472 0.024000001
v -0.40448278 -0.3429987 0.024000001
v -0.40263626 -0.33937472 0.024000001
v -0.40200001 -0.3353575 0.024000001
v -0.40263626 -0.33134028 0.024000001
v -0.40448278 -0.3277163 0.024000001
v -0.4073588 -0.32484028 0.024000001
v -0.41098278 -0.32299376 0.024000001
v -0.415 -0.32235751 0.024000001
v -0.41901722 -0.32299376 0.024000001
v -0.4226412 -0.32484028 0.024000001
v -0.42551722 -0.3277163 0.024000001
v -0.42736374 -0.33134028 0.024000001
v -0.42799999 -0.3353575 0.024000001
v -0.42736374 -0.33134028 0.024000001
v -0.42551722 -0.3277163 0.024000001
v -0.4226412 -0.32484028 0.024000001
v -0.41901722 -0.32299376 0.024000001
v -0.415 -0.32235751 0.024000001
v -0.41098278 -0.32299376 0.024000001
v -0.4073588 -0.32484028 0.024000001
v -0.40448278 -0.3277163 0.024000001
v -0.40263626 -0.33134028 0.024000001
v -0.40200001 -0.3353575 0.024000001
v -0.40263626 -0.33937472 0.024000001
v -0.40448278 -0.3429987 0.024000001
v -0.4073588 -0.34587472 0.024000001
v -0.41098278 -0.34772124 0.024000001
v -0.415 -0.34835749 0.024000001
v -0.41901722 -0.34772124 0.024000001
v -0.4226412 -0.34587472 0.024000001
v -0.42551722 -0.3429987 0.024000001
v -0.42736374 -0.33937472 0.024000001
v -0.42799999 -0.3353575 0
v -0.42736374 -0.33937472 0
v -0.42551722 -0.3429987 0
v -0.4226412 -0.34587472 0
v -0.41901722 -0.34772124 0
v -0.415 -0.34835749 0
v -0.41098278 -0.34772124 0
v -0.4073588 -0.34587472 0
v -0.40448278 -0.3429987 0
v -0.40263626 -0.33937472 0
v -0.40200001 -0.3353575 0
v -0.40263626 -0.33134028 0
v -0.40448278 -0.3277163 0
v -0.4073588 -0.32484028 0
v -0.41098278 -0.32299376 0
v -0.415 -0.32235751 0
v -0.41901722 -0.32299376 0
v -0.4226412 -0.32484028 0
v -0.42551722 -0.3277163 0
v -0.42736374 -0.33134028 0
v -0.42799999 -0.3353575 0
v -0.42799999 -0.3353575 0.024000001
f 166 174 165
f 165 174 175
f 165 175 184
f 184 175 176
f 184 176 183
f 183 176 177
f 183 177 182
f 182 177 178
f 182 178 181
f 181 178 179
f 181 179 180
f 174 166 173
f 173 166 167
f 173 167 172
f 172 167 168
f 172 168 171
f 171 168 169
f 171 169 170
f 186 194 185
f 185 194 195
f 185 195 204
f 204 195 196
f 204 196 203
f 203 196 197
f 203 197 202
f 202 197 198
f 202 198 201
f 201 198 199
f 201 199 200
f 194 186 193
f 193 186 187
f 193 187 192
f 192 187 188
f 192 188 191
f 191 188 189
f 191 189 190
f 206 244 205
f 205 244 245
f 246 225 224
f 224 225 226
f 224 226 223
f 223 226 227
f 223 227 222
f 222 227 228
f 222 228 221
f 221 228 229
f 221 229 220
f 220 229 230
f 220 230 219
f 219 230 231
f 219 231 218
f 218 231 232
f 218 232 217
f 217 232 233
f 217 233 216
f 216 233 234
f 216 234 215
f 215 234 235
f 215 235 214
f 214 235 236
f 214 236 213
f 213 236 237
f 213 237 212
f 212 237 238
f 212 238 211
f 211 238 239
f 211 239 210
f 210 239 240
f 210 240 209
f 209 240 241
f 209 241 208
f 208 241 242
f 208 242 207
f 207 242 243
f 207 243 206
f 206 243 244
v -0.42799999 0.1896425 0
v -0.42736374 0.19365972 0
v -0.42551722 0.1972837 0
v -0.4226412 0.20015972 0
v -0.41901722 0.20200624 0
v -0.415 0.20264249 0
v -0.41098278 0.20200624 0
v -0.4073588 0.20015972 0
v -0.40448278 0.1972837 0
v -0.40263626 0.19365972 0
v -0.40200001 0.1896425 0
v -0.40263626 0.18562528 0
v -0.40448278 0.1820013 0
v -0.4073588 0.17912528 0
v -0.41098278 0.17727876 0
v -0.415 0.17664251 0
v -0.41901722 0.17727876 0
v -0.4226412 0.17912528 0
v -0.42551722 0.1820013 0
v -0.42736374 0.18562528 0
v -0.42799999 0.1896425 0.024000001
v -0.42736374 0.18562528 0.024000001
v -0.42551722 0.1820013 0.024000001
v -0.4226412 0.17912528 0.024000001
v -0.41901722 0.17727876 0.024000001
v -0.415 0.17664251 0.024000001
v -0.41098278 0.17727876 0.024000001
v -0.4073588 0.17912528 0.024000001
v -0.40448278 0.1820013 0.024000001
v -0.40263626 0.18562528 0.024000001
v -0.40200001 0.1896425 0.024000001
v -0.40263626 0.19365972 0.024000001
v -0.40448278 0.1972837 0.024000001
v -0.4073588 0.20015972 0.024000001
v -0.41098278 0.20200624 0.024000001
v -0.415 0.20264249 0.024000001
v -0.41901722 0.20200624 0.024000001
v -0.4226412 0.20015972 0.024000001
v -0.42551722 0.1972837 0.024000001
v -0.42736374 0.19365972 0.024000001
v -0.42799999 0.1896425 0.024000001
v -0.42736374 0.19365972 0.024000001
v -0.42551722 0.1972837 0.024000001
v -0.4226412 0.20015972 0.024000001
v -0.41901722 0.20200624 0.024000001
v -0.415 0.20264249 0.024000001
v -0.41098278 0.20200624 0.024000001
v -0.4073588 0.20015972 0.024000001
v -0.40448278 0.1972837 0.024000001
v -0.40263626 0.19365972 0.024000001
v -0.40200001 0.1896425 0.024000001
v -0.40263626 0.18562528 0.024000001
v -0.40448278 0.1820013 0.024000001
v -0.4073588 0.17912528 0.024000001
v -0.41098278 0.17727876 0.024000001
v -0.415 0.17664251 0.024000001
v -0.41901722 0.17727876 0.024000001
v -0.4226412 0.17912528 0.024000001
v -0.42551722 0.1820013 0.024000001
v -0.42736374 0.18562528 0.024000001
v -0.42799999 0.1896425 0
v -0.42736374 0.18562528 0
v -0.42551722 0.1820013 0
v -0.4226412 0.17912528 0
v -0.41901722 0.17727876 0
v -0.415 0.17664251 0
v -0.41098278 0.17727876 0
v -0.4073588 0.17912528 0
v -0.40448278 0.1820013 0
v -0.40263626 0.18562528 0
v -0.40200001 0.1896425 0
v -0.40263626 0.19365972 0
v -0.40448278 0.1972837 0
v -0.4073588 0.20015972 0
v -0.41098278 0.20200624 0
v -0.415 0.20264249 0
v -0.41901722 0.20200624 0
v -0.4226412 0.20015972 0
v -0.42551722 0.1972837 0
v -0.42736374 0.19365972 0
v -0.42799999 0.1896425 0
v -0.42799999 0.1896425 0.024000001
f 248 256 247
f 247 256 257
f 247 257 266
f 266 257 258
f 266 258 265
f 265 258 259
f 265 259 264
f 264 259 260
f 264 260 263
f 263 260 261
f 263 261 262
f 256 248 255
f 255 248 249
f 255 249 254
f 254 249 250
f 254 250 253
f 253 250 251
f 253 251 252
f 268 276 267
f 267 276 277
f 267 277 286
f 286 277 278
f 286 278 285
f 285 278 279
f 285 279 284
f 284 279 280
f 284 280 283
f 283 280 281
f 283 281 282
f 276 268 275
f 275 268 269
f 275 269 274
f 274 269 270
f 274 270 273
f 273 270 271
f 273 271 272
f 288 326 287
f 287 326 327
f 328 307 306
f 306 307 308
f 306 308 305
f 305 308 309
f 305 309 304
f 304 309 310
f 304 310 303
f 303 310 311
f 303 311 302
f 302 311 312
f 302 312 301
f 301 312 313
f 301 313 300
f 300 313 314
f 300 314 299
f 299 314 315
f 299 315 298
f 298 315 316
f 298 316 297
f 297 316 317
f 297 317 296
f 296 317 318
f 296 318 295
f 295 318 319
f 295 319 294
f 294 319 320
f 294 320 293
f 293 320 321
f 293 321 292
f 292 321 322
f 292 322 291
f 291 322 323
f 291 323 290
f 290 323 324
f 290 324 289
f 289 324 325
f 289 325 288
f 288 325 326
