v -0.0045049809 -0.0063621239 0.00054648676
v -5.1551838e-06 -0.0063621209 0.00058609883
v -5.0481563e-06 -0.0056625214 0.00057388797
v -0.0045048738 -0.0056625244 0.0005342759
v -0.0045045966 -0.0038505069 0.00050264883
v -4.7709466e-06 -0.0038505039 0.0005422609
v -4.6639191e-06 -0.0031509044 0.00053005005
v -0.0045044896 -0.0031509074 0.00049043798
v -0.0045209235 -0.0069857584 0.0023575761
v -2.1097831e-05 -0.0069857555 0.0023971882
v -5.1551838e-06 -0.0063621209 0.00058609883
v -0.0045049809 -0.0063621239 0.00054648676
v -0.0045042124 -0.0013388899 0.00045881091
v -4.3867094e-06 -0.0013388869 0.00049842298
v -4.2796819e-06 -0.00063928737 0.00048621212
v -0.0045041054 -0.00063929036 0.00044660005
v -0.0045048738 -0.0056625244 0.0005342759
v -5.0481563e-06 -0.0056625214 0.00057388797
v -2.079038e-05 -0.0049760618 0.0023621109
v -0.0045206161 -0.0049760648 0.0023224988
v -0.0045205393 -0.004474139 0.0023137382
v -2.0713594e-05 -0.004474136 0.0023533502
v -4.7709466e-06 -0.0038505039 0.0005422609
v -0.0045045966 -0.0038505069 0.00050264883
v -0.0045052581 -0.0081741415 0.00057811383
v -5.4323935e-06 -0.0081741385 0.0006177259
v -2.1174617e-05 -0.0074876789 0.0024059488
v -0.0045210003 -0.0074876818 0.0023663367
v -0.0045038282 0.0011727272 0.00041497298
v -4.0024723e-06 0.0011727302 0.00045458505
v -3.8954444e-06 0.001872332 0.00044237416
v -0.0045037211 0.0018723291 0.00040276209
v -0.0045044896 -0.0031509074 0.00049043798
v -4.6639191e-06 -0.0031509044 0.00053005005
v -2.0406143e-05 -0.0024644424 0.0023182729
v -0.0045202318 -0.0024644454 0.0022786609
v -0.004520155 -0.001962522 0.0022699002
v -2.0329356e-05 -0.001962519 0.0023095123
v -4.3867094e-06 -0.0013388869 0.00049842298
v -0.0045042124 -0.0013388899 0.00045881091
v -0.0045053651 -0.008873741 0.00059032468
v -5.539421e-06 -0.008873738 0.00062993675
v -5.4323935e-06 -0.0081741385 0.0006177259
v -0.0045052581 -0.0081741415 0.00057811383
v -0.0045034439 0.0036843442 0.00037113506
v -3.6182351e-06 0.0036843472 0.00041074713
v -3.5112072e-06 0.0043839491 0.00039853623
v -0.0045033369 0.0043839461 0.00035892416
v -0.0045041054 -0.00063929036 0.00044660005
v -4.2796819e-06 -0.00063928737 0.00048621212
v -2.0021906e-05 4.7174622e-05 0.002274435
v -0.0045198476 4.7171631e-05 0.0022348229
v -0.0045197708 0.00054909503 0.0022260623
v -1.9945119e-05 0.00054909802 0.0022656744
v -4.0024723e-06 0.0011727302 0.00045458505
v -0.0045038282 0.0011727272 0.00041497298
v -0.0045213077 -0.0094973755 0.0024014141
v -2.1482068e-05 -0.0094973725 0.0024410261
v -5.539421e-06 -0.008873738 0.00062993675
v -0.0045053651 -0.008873741 0.00059032468
v -0.0045030597 0.0061959636 0.00032729709
v -3.2339975e-06 0.0061959666 0.00036690916
v -3.12697e-06 0.0068955661 0.00035469831
v -0.0045029527 0.0068955631 0.00031508624
v -0.0045037211 0.0018723291 0.00040276209
v -3.8954444e-06 0.001872332 0.00044237416
v -1.9637668e-05 0.0025587917 0.0022305971
v -0.0045194633 0.0025587887 0.002190985
v -0.0045193866 0.0030607121 0.0021822244
v -1.9560882e-05 0.0030607151 0.0022218365
v -3.6182351e-06 0.0036843472 0.00041074713
v -0.0045034439 0.0036843442 0.00037113506
v -2.1943092e-05 -0.012510913 0.0024936247
v -2.1866306e-05 -0.01200899 0.0024848641
v -0.004521692 -0.012008993 0.002445252
v -0.0045217688 -0.012510916 0.0024540126
v -5.9236585e-06 -0.011385357 0.00067377472
v -0.0045057493 -0.01138536 0.00063416265
v -0.004521692 -0.012008993 0.002445252
v -2.1866306e-05 -0.01200899 0.0024848641
v -0.0045026754 0.0087075783 0.00028345921
v -2.8497607e-06 0.0087075812 0.00032307128
v -2.7427325e-06 0.0094071855 0.00031086034
v -0.0045025684 0.0094071825 0.00027124827
v -0.0045033369 0.0043839461 0.00035892416
v -3.5112072e-06 0.0043839491 0.00039853623
v -1.9253431e-05 0.0050704087 0.0021867591
v -0.0045190791 0.0050704057 0.0021471471
v -0.0045190023 0.0055723291 0.0021383865
v -1.9176645e-05 0.0055723321 0.0021779985
v -3.2339975e-06 0.0061959666 0.00036690916
v -0.0045030597 0.0061959636 0.00032729709
v -2.1558855e-05 -0.0099992959 0.0024497867
v -2.1482068e-05 -0.0094973725 0.0024410261
v -0.0045213077 -0.0094973755 0.0024014141
v -0.0045213845 -0.0099992989 0.0024101747
v -5.8166306e-06 -0.010685755 0.00066156382
v -0.0045056423 -0.010685758 0.00062195175
v -0.0045057493 -0.01138536 0.00063416265
v -5.9236585e-06 -0.011385357 0.00067377472
v -0.0045022912 0.011219198 0.00023962124
v -2.4655232e-06 0.011219201 0.00027923331
v -2.3584957e-06 0.0119188 0.00026702246
v -0.0045021842 0.011918797 0.00022741039
v -0.0045029527 0.0068955631 0.00031508624
v -3.12697e-06 0.0068955661 0.00035469831
v -1.8869194e-05 0.0075820257 0.0021429212
v -0.0045186949 0.0075820227 0.0021033092
v -0.0045186181 0.0080839461 0.0020945485
v -1.8792408e-05 0.0080839491 0.0021341606
v -2.8497607e-06 0.0087075812 0.00032307128
v -0.0045026754 0.0087075783 0.00028345921
v -2.1174617e-05 -0.0074876789 0.0024059488
v -2.1097831e-05 -0.0069857555 0.0023971882
v -0.0045209235 -0.0069857584 0.0023575761
v -0.0045210003 -0.0074876818 0.0023663367
v -2.1558855e-05 -0.0099992959 0.0024497867
v -0.0045213845 -0.0099992989 0.0024101747
v -0.0045056423 -0.010685758 0.00062195175
v -5.8166306e-06 -0.010685755 0.00066156382
v -0.004501907 0.013730817 0.00019578327
v -2.0812856e-06 0.01373082 0.00023539534
v -1.9742581e-06 0.01443042 0.00022318449
v -0.0045017999 0.014430417 0.00018357242
v -0.0045025684 0.0094071825 0.00027124827
v -2.7427325e-06 0.0094071855 0.00031086034
v -1.8484956e-05 0.010093645 0.0020990833
v -0.0045183106 0.010093642 0.0020594712
v -0.0045182339 0.010595566 0.0020507106
v -1.840817e-05 0.010595569 0.0020903227
v -2.4655232e-06 0.011219201 0.00027923331
v -0.0045022912 0.011219198 0.00023962124
v -2.079038e-05 -0.0049760618 0.0023621109
v -2.0713594e-05 -0.004474136 0.0023533502
v -0.0045205393 -0.004474139 0.0023137382
v -0.0045206161 -0.0049760648 0.0023224988
v -2.2327329e-05 -0.01502253 0.0025374626
v -2.2250543e-05 -0.014520607 0.002528702
v -0.0045220762 -0.01452061 0.0024890899
v -0.004522153 -0.015022533 0.0024978505
v -6.3078957e-06 -0.013896974 0.00071761264
v -0.0045061336 -0.013896977 0.00067800057
v -0.0045220762 -0.01452061 0.0024890899
v -2.2250543e-05 -0.014520607 0.002528702
v -0.0045021842 0.011918797 0.00022741039
v -2.3584957e-06 0.0119188 0.00026702246
v -1.810072e-05 0.01260526 0.0020552454
v -0.0045179264 0.012605257 0.0020156333
v -0.0045178496 0.01310718 0.0020068727
v -1.8023933e-05 0.013107183 0.0020464848
v -2.0812856e-06 0.01373082 0.00023539534
v -0.004501907 0.013730817 0.00019578327
v -2.0406143e-05 -0.0024644424 0.0023182729
v -2.0329356e-05 -0.001962519 0.0023095123
v -0.004520155 -0.001962522 0.0022699002
v -0.0045202318 -0.0024644454 0.0022786609
v -0.0045015227 0.016242432 0.00015194539
v -1.6970488e-06 0.016242435 0.00019155746
v -1.5900213e-06 0.016942034 0.00017934661
v -0.0045014157 0.016942031 0.00013973454
v -6.200868e-06 -0.013197374 0.00070540177
v -0.0045060265 -0.013197377 0.0006657897
v -0.0045061336 -0.013896977 0.00067800057
v -6.3078957e-06 -0.013896974 0.00071761264
v -0.0045017999 0.014430417 0.00018357242
v -1.9742581e-06 0.01443042 0.00022318449
v -1.7716482e-05 0.015116879 0.0020114074
v -0.0045175422 0.015116876 0.0019717953
v -0.0045174654 0.0156188 0.0019630347
v -1.7639696e-05 0.015618803 0.0020026468
v -1.6970488e-06 0.016242435 0.00019155746
v -0.0045015227 0.016242432 0.00015194539
v -2.0021906e-05 4.7174622e-05 0.002274435
v -1.9945119e-05 0.00054909802 0.0022656744
v -0.0045197708 0.00054909503 0.0022260623
v -0.0045198476 4.7171631e-05 0.0022348229
v -2.1943092e-05 -0.012510913 0.0024936247
v -0.0045217688 -0.012510916 0.0024540126
v -0.0045060265 -0.013197377 0.0006657897
v -6.200868e-06 -0.013197374 0.00070540177
v -0.0045014157 0.016942031 0.00013973454
v -1.5900213e-06 0.016942034 0.00017934661
v -1.7332245e-05 0.017628494 0.0019675695
v -0.0045171579 0.017628491 0.0019279575
v -1.9637668e-05 0.0025587917 0.0022305971
v -1.9560882e-05 0.0030607151 0.0022218365
v -0.0045193866 0.0030607121 0.0021822244
v -0.0045194633 0.0025587887 0.002190985
v -2.2711566e-05 -0.017534148 0.0025813005
v -2.263478e-05 -0.017032225 0.0025725399
v -0.0045224605 -0.017032228 0.0025329279
v -0.0045225372 -0.017534151 0.0025416885
v -6.6921329e-06 -0.016408591 0.00076145057
v -0.0045065178 -0.016408594 0.0007218385
v -0.0045224605 -0.017032228 0.0025329279
v -2.263478e-05 -0.017032225 0.0025725399
v -1.9253431e-05 0.0050704087 0.0021867591
v -1.9176645e-05 0.0055723321 0.0021779985
v -0.0045190023 0.0055723291 0.0021383865
v -0.0045190791 0.0050704057 0.0021471471
v -0.0045170811 0.018130419 0.0019191968
v -1.7255458e-05 0.018130422 0.0019588088
v -1.3128113e-06 0.018754054 0.00014771949
v -0.0045011385 0.018754051 0.00010810742
v -6.5851052e-06 -0.015708991 0.00074923969
v -0.0045064108 -0.015708994 0.00070962762
v -0.0045065178 -0.016408594 0.0007218385
v -6.6921329e-06 -0.016408591 0.00076145057
v -1.8869194e-05 0.0075820257 0.0021429212
v -1.8792408e-05 0.0080839491 0.0021341606
v -0.0045186181 0.0080839461 0.0020945485
v -0.0045186949 0.0075820227 0.0021033092
v -0.0045011385 0.018754051 0.00010810742
v -1.3128113e-06 0.018754054 0.00014771949
v -1.2057838e-06 0.019453654 0.00013550864
v -0.0045010315 0.019453651 9.5896569e-05
v -2.2327329e-05 -0.01502253 0.0025374626
v -0.004522153 -0.015022533 0.0024978505
v -0.0045064108 -0.015708994 0.00070962762
v -6.5851052e-06 -0.015708991 0.00074923969
v -1.8484956e-05 0.010093645 0.0020990833
v -1.840817e-05 0.010595569 0.0020903227
v -0.0045182339 0.010595566 0.0020507106
v -0.0045183106 0.010093642 0.0020594712
v -0.0045010315 0.019453651 9.5896569e-05
v -1.2057838e-06 0.019453654 0.00013550864
v -1.6948008e-05 0.020140113 0.0019237316
v -0.0045167737 0.02014011 0.0018841195
v -0.0045228447 -0.019543845 0.0025767658
v -0.0045229215 -0.020045768 0.0025855264
v -2.3095803e-05 -0.020045765 0.0026251385
v -2.3019017e-05 -0.019543842 0.0026163779
v -7.0763701e-06 -0.018920208 0.00080528849
v -0.0045069021 -0.018920211 0.00076567642
v -0.0045228447 -0.019543845 0.0025767658
v -2.3019017e-05 -0.019543842 0.0026163779
v -1.810072e-05 0.01260526 0.0020552454
v -1.8023933e-05 0.013107183 0.0020464848
v -0.0045178496 0.01310718 0.0020068727
v -0.0045179264 0.012605257 0.0020156333
v -6.9693424e-06 -0.018220608 0.00079307762
v -0.004506795 -0.018220611 0.00075346555
v -0.0045069021 -0.018920211 0.00076567642
v -7.0763701e-06 -0.018920208 0.00080528849
v -1.7716482e-05 0.015116879 0.0020114074
v -1.7639696e-05 0.015618803 0.0020026468
v -0.0045174654 0.0156188 0.0019630347
v -0.0045175422 0.015116876 0.0019717953
v -0.0045166969 0.020642034 0.0018753589
v -1.6871221e-05 0.020642037 0.001914971
v -9.2857446e-07 0.021265669 0.00010388161
v -0.0045007543 0.021265666 6.4269541e-05
v -2.2711566e-05 -0.017534148 0.0025813005
v -0.0045225372 -0.017534151 0.0025416885
v -0.004506795 -0.018220611 0.00075346555
v -6.9693424e-06 -0.018220608 0.00079307762
v -1.7332245e-05 0.017628494 0.0019675695
v -1.7255458e-05 0.018130422 0.0019588088
v -0.0045170811 0.018130419 0.0019191968
v -0.0045171579 0.017628491 0.0019279575
v -0.0045007543 0.021265666 6.4269541e-05
v -9.2857446e-07 0.021265669 0.00010388161
v -8.2154694e-07 0.021965268 9.1670756e-05
v -0.0045006472 0.021965265 5.2058686e-05
v -0.0034866003 -0.024078463 -0.0015357611
v -0.0044777602 -0.024095916 -0.0025443727
v -0.0044783873 -0.028195291 -0.0024728219
v -0.0034872275 -0.028177839 -0.0014642103
v -0.0035241932 -0.02810454 0.0027349874
v -0.0045329557 -0.028087089 0.0037259937
v -0.0045323286 -0.023987713 0.0036544429
v -0.003523566 -0.024005165 0.0026634366
v -7.4606074e-06 -0.021431827 0.00084912644
v -0.0045072863 -0.02143183 0.00080951437
v -0.0045232289 -0.022055462 0.0026206037
v -2.3403254e-05 -0.022055459 0.0026602158
v -0.0040447387 -0.024413211 0.00506643
v -0.0045402421 -0.023922013 0.0045533985
v -0.0045414811 -0.03202078 0.0046947549
v -0.0040459012 -0.032012054 0.0051990606
v -0.00048671644 -0.024078461 -0.001509353
v -0.0034866003 -0.024078463 -0.0015357611
v -0.0034872275 -0.028177839 -0.0014642103
v -0.00048734358 -0.028177837 -0.0014378023
v -0.00052430926 -0.028104538 0.0027613954
v -0.0035241932 -0.02810454 0.0027349874
v -0.003523566 -0.024005165 0.0026634366
v -0.00052368213 -0.024005163 0.0026898447
v -1.6948008e-05 0.020140113 0.0019237316
v -1.6871221e-05 0.020642037 0.001914971
v -0.0045166969 0.020642034 0.0018753589
v -0.0045167737 0.02014011 0.0018841195
v -0.0045006472 0.021965265 5.2058686e-05
v -8.2154694e-07 0.021965268 9.1670756e-05
v -1.656377e-05 0.022651733 0.0018798936
v -0.0045163895 0.02265173 0.0018402815
v -7.3535797e-06 -0.020732226 0.00083691556
v -0.0045071793 -0.020732229 0.00079730349
v -0.0045072863 -0.02143183 0.00080951437
v -7.4606074e-06 -0.021431827 0.00084912644
v 1.7664831e-05 -0.024087187 -0.002004856
v -0.00048671644 -0.024078461 -0.001509353
v -0.00048734358 -0.028177837 -0.0014378023
v 1.7037692e-05 -0.028186562 -0.0019333052
v -0.0044783873 -0.028195291 -0.0024728219
v -0.0045329557 -0.028087089 0.0037259937
v -0.0035241932 -0.02810454 0.0027349874
v -0.00052430926 -0.028104538 0.0027613954
v -2.8729343e-05 -0.028095812 0.0032657013
v 1.7037692e-05 -0.028186562 -0.0019333052
v -0.00048734358 -0.028177837 -0.0014378023
v -0.0034872275 -0.028177839 -0.0014642103
v -0.0045323286 -0.023987713 0.0036544429
v -0.0044777602 -0.024095916 -0.0025443727
v -0.0034866003 -0.024078463 -0.0015357611
v -0.00048671644 -0.024078461 -0.001509353
v 1.7664831e-05 -0.024087187 -0.002004856
v -2.8102204e-05 -0.023996436 0.0031941505
v -0.00052368213 -0.024005163 0.0026898447
v -0.003523566 -0.024005165 0.0026634366
v -1.571851e-05 0.02817689 0.0017834571
v -0.0042755534 0.028176887 0.0017459577
v -0.0045155809 0.027936922 0.0017480334
v -0.004515621 0.027674964 0.0017526057
v -1.5795296e-05 0.027674967 0.0017922177
v -1.656377e-05 0.022651733 0.0018798936
v -1.6486984e-05 0.023153656 0.001871133
v -0.0045163127 0.023153653 0.0018315209
v -0.0045163895 0.02265173 0.0018402815
v -0.0045232289 -0.022055462 0.0026206037
v -0.0045402421 -0.023922013 0.0045533985
v -0.0040447387 -0.024413211 0.00506643
v -4.4893608e-05 -0.024413208 0.0051016407
v -2.3403254e-05 -0.022055459 0.0026602158
v -0.0044792569 -0.019492253 -0.0023746971
v -0.0044721672 0.026850687 -0.0031835698
v -0.0028722292 0.026850689 -0.0031694855
v -0.0028793189 -0.019492252 -0.0023606129
v -0.00396519 -0.022370615 -0.0039702437
v -0.0036120696 -0.022026776 -0.0043232042
v 3.7789095e-05 -0.022026774 -0.0042910744
v 3.4655083e-05 -0.022370612 -0.003935033
v -0.0031637763 -0.032169122 -0.0037921519
v 3.3645092e-05 -0.02897255 -0.0038198023
v -4.5567085e-05 -0.028815482 0.0051784782
v -0.0032429885 -0.032012053 0.0052061287
v -0.0034996243 0.028905356 -6.0271404e-05
v -0.0034817233 0.02886986 -0.002093779
v -0.0044739803 0.027854433 -0.0029776806
v -0.0045155809 0.027936922 0.0017480334
v -0.0042755534 0.028176887 0.0017459577
v -0.0036044898 0.02880052 -5.9364586e-05
v -2.3095803e-05 -0.020045765 0.0026251385
v -0.0045229215 -0.020045768 0.0025855264
v -0.0045071793 -0.020732229 0.00079730349
v -7.3535797e-06 -0.020732226 0.00083691556
v -2.8729343e-05 -0.028095812 0.0032657013
v -0.00052430926 -0.028104538 0.0027613954
v -0.00052368213 -0.024005163 0.0026898447
v -2.8102204e-05 -0.023996436 0.0031941505
v -0.0045163127 0.023153653 0.0018315209
v -1.6486984e-05 0.023153656 0.001871133
v -5.4433692e-07 0.023777288 6.0043644e-05
v -0.00450037 0.023777285 2.0431574e-05
v -0.0044739803 0.027854433 -0.0029776806
v -0.0034817233 0.02886986 -0.002093779
v -0.0028817465 0.02886986 -0.0020884974
v -0.0028765868 0.028334786 -0.0026745862
v -0.002873289 0.027635131 -0.0030491553
v -0.0028722292 0.026850689 -0.0031694855
v -0.0044721672 0.026850687 -0.0031835698
v -0.0044723363 0.027194159 -0.0031643831
v -0.004472945 0.027531148 -0.0030952595
v -0.002857707 0.026821893 -0.0048191699
v -0.0028650491 -0.021170797 -0.0039815024
v -0.0028793189 -0.019492252 -0.0023606129
v -0.0028722292 0.026850689 -0.0031694855
v -0.002873289 0.027635131 -0.0030491553
v -0.0028765868 0.028334786 -0.0026745862
v -0.0028817465 0.02886986 -0.0020884974
v -0.0028641438 0.028834956 -0.0040881152
v -0.0028589841 0.028299882 -0.004674204
v -0.0028556863 0.027600227 -0.0050487731
v -0.0028546265 0.026815784 -0.0051691033
v -0.003966689 -0.032169122 -0.0037992199
v -0.00396519 -0.022370615 -0.0039702437
v 3.4655083e-05 -0.022370612 -0.003935033
v 3.3645092e-05 -0.02897255 -0.0038198023
v -0.0031637763 -0.032169122 -0.0037921519
v -4.4893608e-05 -0.024413208 0.0051016407
v -0.0040447387 -0.024413211 0.00506643
v -0.0040459012 -0.032012054 0.0051990606
v -0.0032429885 -0.032012053 0.0052061287
v -4.5567085e-05 -0.028815482 0.0051784782
v -0.0044710703 -0.032160397 -0.0033037167
v -0.003966689 -0.032169122 -0.0037992199
v -0.0031637763 -0.032169122 -0.0037921519
v -0.0032429885 -0.032012053 0.0052061287
v -0.0040459012 -0.032012054 0.0051990606
v -0.0045414811 -0.03202078 0.0046947549
v -0.0028546265 0.026815784 -0.0051691033
v -0.0028556863 0.027600227 -0.0050487731
v -0.0028589841 0.028299882 -0.004674204
v -0.0028641438 0.028834956 -0.0040881152
v 3.5743919e-05 0.028834958 -0.0040625874
v 4.0903628e-05 0.028299884 -0.0046486762
v 4.4201433e-05 0.027600229 -0.0050232453
v 4.5261224e-05 0.026815786 -0.0051435755
v -0.0036119931 -0.021526853 -0.0043319299
v -0.0036120696 -0.022026776 -0.0043232042
v -0.00396519 -0.022370615 -0.0039702437
v -0.003966689 -0.032169122 -0.0037992199
v -0.0044710703 -0.032160397 -0.0033037167
v -0.0044693112 -0.020662148 -0.0035044078
v 2.4017563e-07 0.028905358 -2.9462016e-05
v -0.0034996243 0.028905356 -6.0271404e-05
v -0.0036044898 0.02880052 -5.9364586e-05
v 2.2413744e-07 0.028800522 -2.7632206e-05
v -0.00450037 0.023777285 2.0431574e-05
v -5.4433692e-07 0.023777288 6.0043644e-05
v -4.373094e-07 0.024476888 4.7832789e-05
v -0.004500263 0.024476885 8.2207194e-06
v -0.0034817233 0.02886986 -0.002093779
v -0.0034996243 0.028905356 -6.0271404e-05
v 2.4017563e-07 0.028905358 -2.9462016e-05
v 3.5743919e-05 0.028834958 -0.0040625874
v -0.0028641438 0.028834956 -0.0040881152
v -0.0028817465 0.02886986 -0.0020884974
v -0.0028620221 -0.021526852 -0.0043253278
v -0.0036119931 -0.021526853 -0.0043319299
v -0.0044693112 -0.020662148 -0.0035044078
v -0.0044792569 -0.019492253 -0.0023746971
v -0.0028793189 -0.019492252 -0.0023606129
v -0.0028650491 -0.021170797 -0.0039815024
v 3.4708619e-05 -0.022020666 -0.003941141
v -0.0036151501 -0.022020668 -0.0039732708
v -0.0036150736 -0.021520745 -0.0039819965
v -0.0028651026 -0.021520744 -0.0039753944
v -0.0028650491 -0.021170797 -0.0039815024
v -0.002857707 0.026821893 -0.0048191699
v 4.2180748e-05 0.026821895 -0.0047936421
v 2.2413744e-07 0.028800522 -2.7632206e-05
v -0.0036044898 0.02880052 -5.9364586e-05
v -0.0042755534 0.028176887 0.0017459577
v -1.571851e-05 0.02817689 0.0017834571
v -0.0045155809 0.027936922 0.0017480334
v -0.0044739803 0.027854433 -0.0029776806
v -0.004472945 0.027531148 -0.0030952595
v -0.0044723363 0.027194159 -0.0031643831
v -0.0044721672 0.026850687 -0.0031835698
v -0.0044792569 -0.019492253 -0.0023746971
v -0.0044693112 -0.020662148 -0.0035044078
v -0.0044710703 -0.032160397 -0.0033037167
v -0.0045414811 -0.03202078 0.0046947549
v -0.0045402421 -0.023922013 0.0045533985
v -0.0045232289 -0.022055462 0.0026206037
v -0.0045072863 -0.02143183 0.00080951437
v -0.0045071793 -0.020732229 0.00079730349
v -0.0045229215 -0.020045768 0.0025855264
v -0.0045228447 -0.019543845 0.0025767658
v -0.0045069021 -0.018920211 0.00076567642
v -0.004506795 -0.018220611 0.00075346555
v -0.0045225372 -0.017534151 0.0025416885
v -0.0045224605 -0.017032228 0.0025329279
v -0.0045065178 -0.016408594 0.0007218385
v -0.0045064108 -0.015708994 0.00070962762
v -0.004522153 -0.015022533 0.0024978505
v -0.0045220762 -0.01452061 0.0024890899
v -0.0045061336 -0.013896977 0.00067800057
v -0.0045060265 -0.013197377 0.0006657897
v -0.0045217688 -0.012510916 0.0024540126
v -0.004521692 -0.012008993 0.002445252
v -0.0045057493 -0.01138536 0.00063416265
v -0.0045056423 -0.010685758 0.00062195175
v -0.0045213845 -0.0099992989 0.0024101747
v -0.0045213077 -0.0094973755 0.0024014141
v -0.0045053651 -0.008873741 0.00059032468
v -0.0045052581 -0.0081741415 0.00057811383
v -0.0045210003 -0.0074876818 0.0023663367
v -0.0045209235 -0.0069857584 0.0023575761
v -0.0045049809 -0.0063621239 0.00054648676
v -0.0045048738 -0.0056625244 0.0005342759
v -0.0045206161 -0.0049760648 0.0023224988
v -0.0045205393 -0.004474139 0.0023137382
v -0.0045045966 -0.0038505069 0.00050264883
v -0.0045044896 -0.0031509074 0.00049043798
v -0.0045202318 -0.0024644454 0.0022786609
v -0.004520155 -0.001962522 0.0022699002
v -0.0045042124 -0.0013388899 0.00045881091
v -0.0045041054 -0.00063929036 0.00044660005
v -0.0045198476 4.7171631e-05 0.0022348229
v -0.0045197708 0.00054909503 0.0022260623
v -0.0045038282 0.0011727272 0.00041497298
v -0.0045037211 0.0018723291 0.00040276209
v -0.0045194633 0.0025587887 0.002190985
v -0.0045193866 0.0030607121 0.0021822244
v -0.0045034439 0.0036843442 0.00037113506
v -0.0045033369 0.0043839461 0.00035892416
v -0.0045190791 0.0050704057 0.0021471471
v -0.0045190023 0.0055723291 0.0021383865
v -0.0045030597 0.0061959636 0.00032729709
v -0.0045029527 0.0068955631 0.00031508624
v -0.0045186949 0.0075820227 0.0021033092
v -0.0045186181 0.0080839461 0.0020945485
v -0.0045026754 0.0087075783 0.00028345921
v -0.0045025684 0.0094071825 0.00027124827
v -0.0045183106 0.010093642 0.0020594712
v -0.0045182339 0.010595566 0.0020507106
v -0.0045022912 0.011219198 0.00023962124
v -0.0045021842 0.011918797 0.00022741039
v -0.0045179264 0.012605257 0.0020156333
v -0.0045178496 0.01310718 0.0020068727
v -0.004501907 0.013730817 0.00019578327
v -0.0045017999 0.014430417 0.00018357242
v -0.0045175422 0.015116876 0.0019717953
v -0.0045174654 0.0156188 0.0019630347
v -0.0045015227 0.016242432 0.00015194539
v -0.0045014157 0.016942031 0.00013973454
v -0.0045171579 0.017628491 0.0019279575
v -0.0045170811 0.018130419 0.0019191968
v -0.0045011385 0.018754051 0.00010810742
v -0.0045010315 0.019453651 9.5896569e-05
v -0.0045167737 0.02014011 0.0018841195
v -0.0045166969 0.020642034 0.0018753589
v -0.0045007543 0.021265666 6.4269541e-05
v -0.0045006472 0.021965265 5.2058686e-05
v -0.0045163895 0.02265173 0.0018402815
v -0.0045163127 0.023153653 0.0018315209
v -0.00450037 0.023777285 2.0431574e-05
v -0.004500263 0.024476885 8.2207194e-06
v -0.0045160052 0.025163344 0.0017964436
v -0.0045159284 0.025665268 0.001787683
v -0.0044999858 0.0262889 -2.3406309e-05
v -0.0044998788 0.026988504 -3.5617247e-05
v -0.004515621 0.027674964 0.0017526057
v -0.0044777602 -0.024095916 -0.0025443727
v -0.0045323286 -0.023987713 0.0036544429
v -0.0045329557 -0.028087089 0.0037259937
v -0.0044783873 -0.028195291 -0.0024728219
v 3.7789095e-05 -0.022026774 -0.0042910744
v -0.0036120696 -0.022026776 -0.0043232042
v -0.0036151501 -0.022020668 -0.0039732708
v 3.4708619e-05 -0.022020666 -0.003941141
v -0.0044998788 0.026988504 -3.5617247e-05
v -5.3071853e-08 0.026988507 3.9948226e-06
v -1.5795296e-05 0.027674967 0.0017922177
v -0.004515621 0.027674964 0.0017526057
v -1.0932986e-06 0.0262524 0.00012221738
v 1.0810992e-06 0.025688598 -0.00012474586
v 9.1675786e-07 0.025073358 -0.00010603068
v -1.5545574e-06 0.024525607 0.00017474551
v -4.373094e-07 0.024476888 4.7832789e-05
v -5.4433692e-07 0.023777288 6.0043644e-05
v -1.6486984e-05 0.023153656 0.001871133
v -1.656377e-05 0.022651733 0.0018798936
v -8.2154694e-07 0.021965268 9.1670756e-05
v -9.2857446e-07 0.021265669 0.00010388161
v -1.6871221e-05 0.020642037 0.001914971
v -1.6948008e-05 0.020140113 0.0019237316
v -1.2057838e-06 0.019453654 0.00013550864
v -1.3128113e-06 0.018754054 0.00014771949
v -1.7255458e-05 0.018130422 0.0019588088
v -1.7332245e-05 0.017628494 0.0019675695
v -1.5900213e-06 0.016942034 0.00017934661
v -1.6970488e-06 0.016242435 0.00019155746
v -1.7639696e-05 0.015618803 0.0020026468
v -1.7716482e-05 0.015116879 0.0020114074
v -1.9742581e-06 0.01443042 0.00022318449
v -2.0812856e-06 0.01373082 0.00023539534
v -1.8023933e-05 0.013107183 0.0020464848
v -1.810072e-05 0.01260526 0.0020552454
v -2.3584957e-06 0.0119188 0.00026702246
v -2.4655232e-06 0.011219201 0.00027923331
v -1.840817e-05 0.010595569 0.0020903227
v -1.8484956e-05 0.010093645 0.0020990833
v -2.7427325e-06 0.0094071855 0.00031086034
v -2.8497607e-06 0.0087075812 0.00032307128
v -1.8792408e-05 0.0080839491 0.0021341606
v -1.8869194e-05 0.0075820257 0.0021429212
v -3.12697e-06 0.0068955661 0.00035469831
v -3.2339975e-06 0.0061959666 0.00036690916
v -1.9176645e-05 0.0055723321 0.0021779985
v -1.9253431e-05 0.0050704087 0.0021867591
v -3.5112072e-06 0.0043839491 0.00039853623
v -3.6182351e-06 0.0036843472 0.00041074713
v -1.9560882e-05 0.0030607151 0.0022218365
v -1.9637668e-05 0.0025587917 0.0022305971
v -3.8954444e-06 0.001872332 0.00044237416
v -4.0024723e-06 0.0011727302 0.00045458505
v -1.9945119e-05 0.00054909802 0.0022656744
v -2.0021906e-05 4.7174622e-05 0.002274435
v -4.2796819e-06 -0.00063928737 0.00048621212
v -4.3867094e-06 -0.0013388869 0.00049842298
v -2.0329356e-05 -0.001962519 0.0023095123
v -2.0406143e-05 -0.0024644424 0.0023182729
v -4.6639191e-06 -0.0031509044 0.00053005005
v -4.7709466e-06 -0.0038505039 0.0005422609
v -2.0713594e-05 -0.004474136 0.0023533502
v -2.079038e-05 -0.0049760618 0.0023621109
v -5.0481563e-06 -0.0056625214 0.00057388797
v -5.1551838e-06 -0.0063621209 0.00058609883
v -2.1097831e-05 -0.0069857555 0.0023971882
v -2.1174617e-05 -0.0074876789 0.0024059488
v -5.4323935e-06 -0.0081741385 0.0006177259
v -5.539421e-06 -0.008873738 0.00062993675
v -2.1482068e-05 -0.0094973725 0.0024410261
v -2.1558855e-05 -0.0099992959 0.0024497867
v -5.8166306e-06 -0.010685755 0.00066156382
v -5.9236585e-06 -0.011385357 0.00067377472
v -2.1866306e-05 -0.01200899 0.0024848641
v -2.1943092e-05 -0.012510913 0.0024936247
v -6.200868e-06 -0.013197374 0.00070540177
v -6.3078957e-06 -0.013896974 0.00071761264
v -2.2250543e-05 -0.014520607 0.002528702
v -2.2327329e-05 -0.01502253 0.0025374626
v -6.5851052e-06 -0.015708991 0.00074923969
v -6.6921329e-06 -0.016408591 0.00076145057
v -2.263478e-05 -0.017032225 0.0025725399
v -2.2711566e-05 -0.017534148 0.0025813005
v -6.9693424e-06 -0.018220608 0.00079307762
v -7.0763701e-06 -0.018920208 0.00080528849
v -2.3019017e-05 -0.019543842 0.0026163779
v -2.3095803e-05 -0.020045765 0.0026251385
v -7.3535797e-06 -0.020732226 0.00083691556
v -7.4606074e-06 -0.021431827 0.00084912644
v -2.3403254e-05 -0.022055459 0.0026602158
v -4.4893608e-05 -0.024413208 0.0051016407
v -4.5567085e-05 -0.028815482 0.0051784782
v 3.3645092e-05 -0.02897255 -0.0038198023
v 3.4655083e-05 -0.022370612 -0.003935033
v 3.7789095e-05 -0.022026774 -0.0042910744
v 3.4708619e-05 -0.022020666 -0.003941141
v 4.2180748e-05 0.026821895 -0.0047936421
v 4.5261224e-05 0.026815786 -0.0051435755
v 4.4201433e-05 0.027600229 -0.0050232453
v 4.0903628e-05 0.028299884 -0.0046486762
v 3.5743919e-05 0.028834958 -0.0040625874
v 2.4017563e-07 0.028905358 -2.9462016e-05
v 2.2413744e-07 0.028800522 -2.7632206e-05
v -1.571851e-05 0.02817689 0.0017834571
v -1.5795296e-05 0.027674967 0.0017922177
v -5.3071853e-08 0.026988507 3.9948226e-06
v -1.601001e-07 0.026288903 1.6205761e-05
v -2.8729343e-05 -0.028095812 0.0032657013
v -2.8102204e-05 -0.023996436 0.0031941505
v 1.7664831e-05 -0.024087187 -0.002004856
v 1.7037692e-05 -0.028186562 -0.0019333052
v -0.0028546265 0.026815784 -0.0051691033
v 4.5261224e-05 0.026815786 -0.0051435755
v 4.2180748e-05 0.026821895 -0.0047936421
v -0.002857707 0.026821893 -0.0048191699
v -0.0044999858 0.0262889 -2.3406309e-05
v -1.601001e-07 0.026288903 1.6205761e-05
v -5.3071853e-08 0.026988507 3.9948226e-06
v -0.0044998788 0.026988504 -3.5617247e-05
v -0.0036119931 -0.021526853 -0.0043319299
v -0.0028620221 -0.021526852 -0.0043253278
v -0.0028651026 -0.021520744 -0.0039753944
v -0.0036150736 -0.021520745 -0.0039819965
v -0.00020154677 0.024525606 0.00017298497
v -0.00021617174 0.025163347 0.0018342952
v -0.0045160052 0.025163344 0.0017964436
v -0.004500263 0.024476885 8.2207194e-06
v -4.373094e-07 0.024476888 4.7832789e-05
v -1.5545574e-06 0.024525607 0.00017474551
v -0.0036120696 -0.022026776 -0.0043232042
v -0.0036119931 -0.021526853 -0.0043319299
v -0.0036150736 -0.021520745 -0.0039819965
v -0.0036151501 -0.022020668 -0.0039732708
v -0.0028620221 -0.021526852 -0.0043253278
v -0.0028650491 -0.021170797 -0.0039815024
v -0.0028651026 -0.021520744 -0.0039753944
v -0.00021609496 0.025665271 0.0018255346
v -0.00020108551 0.0262524 0.00012045684
v -1.0932986e-06 0.0262524 0.00012221738
v -1.601001e-07 0.026288903 1.6205761e-05
v -0.0044999858 0.0262889 -2.3406309e-05
v -0.0045159284 0.025665268 0.001787683
v -0.00021617174 0.025163347 0.0018342952
v -0.00021609496 0.025665271 0.0018255346
v -0.0045159284 0.025665268 0.001787683
v -0.0045160052 0.025163344 0.0017964436
v -0.00020154677 0.024525606 0.00017298497
v -1.5545574e-06 0.024525607 0.00017474551
v 9.1675786e-07 0.025073358 -0.00010603068
v 1.0810992e-06 0.025688598 -0.00012474586
v -1.0932986e-06 0.0262524 0.00012221738
v -0.00020108551 0.0262524 0.00012045684
v -0.00019891111 0.025688598 -0.0001265064
v -0.00019907545 0.025073358 -0.00010779121
v -0.00021617174 0.025163347 0.0018342952
v -0.00020154677 0.024525606 0.00017298497
v -0.00019907545 0.025073358 -0.00010779121
v -0.00019891111 0.025688598 -0.0001265064
v -0.00020108551 0.0262524 0.00012045684
v -0.00021609496 0.025665271 0.0018255346
f 2 3 1
f 1 3 4
f 6 7 5
f 5 7 8
f 10 11 9
f 9 11 12
f 14 15 13
f 13 15 16
f 18 19 17
f 17 19 20
f 22 23 21
f 21 23 24
f 26 27 25
f 25 27 28
f 30 31 29
f 29 31 32
f 34 35 33
f 33 35 36
f 38 39 37
f 37 39 40
f 42 43 41
f 41 43 44
f 46 47 45
f 45 47 48
f 50 51 49
f 49 51 52
f 54 55 53
f 53 55 56
f 58 59 57
f 57 59 60
f 62 63 61
f 61 63 64
f 66 67 65
f 65 67 68
f 70 71 69
f 69 71 72
f 73 74 76
f 76 74 75
f 78 79 77
f 77 79 80
f 82 83 81
f 81 83 84
f 86 87 85
f 85 87 88
f 90 91 89
f 89 91 92
f 93 94 96
f 96 94 95
f 98 99 97
f 97 99 100
f 102 103 101
f 101 103 104
f 106 107 105
f 105 107 108
f 110 111 109
f 109 111 112
f 113 114 116
f 116 114 115
f 118 119 117
f 117 119 120
f 122 123 121
f 121 123 124
f 126 127 125
f 125 127 128
f 130 131 129
f 129 131 132
f 133 134 136
f 136 134 135
f 137 138 140
f 140 138 139
f 142 143 141
f 141 143 144
f 146 147 145
f 145 147 148
f 150 151 149
f 149 151 152
f 153 154 156
f 156 154 155
f 158 159 157
f 157 159 160
f 162 163 161
f 161 163 164
f 166 167 165
f 165 167 168
f 170 171 169
f 169 171 172
f 173 174 176
f 176 174 175
f 178 179 177
f 177 179 180
f 182 183 181
f 181 183 184
f 185 186 188
f 188 186 187
f 189 190 192
f 192 190 191
f 194 195 193
f 193 195 196
f 197 198 200
f 200 198 199
f 202 203 201
f 201 203 204
f 206 207 205
f 205 207 208
f 209 210 212
f 212 210 211
f 214 215 213
f 213 215 216
f 218 219 217
f 217 219 220
f 221 222 224
f 224 222 223
f 226 227 225
f 225 227 228
f 229 230 232
f 232 230 231
f 234 235 233
f 233 235 236
f 237 238 240
f 240 238 239
f 242 243 241
f 241 243 244
f 245 246 248
f 248 246 247
f 250 251 249
f 249 251 252
f 254 255 253
f 253 255 256
f 257 258 260
f 260 258 259
f 262 263 261
f 261 263 264
f 266 267 265
f 265 267 268
f 270 271 269
f 269 271 272
f 274 275 273
f 273 275 276
f 278 279 277
f 277 279 280
f 282 283 281
f 281 283 284
f 286 287 285
f 285 287 288
f 289 290 292
f 292 290 291
f 294 295 293
f 293 295 296
f 298 299 297
f 297 299 300
f 302 303 301
f 301 303 304
f 305 306 312
f 312 306 307
f 312 307 311
f 311 307 308
f 311 308 310
f 310 308 309
f 314 315 313
f 313 315 320
f 320 315 316
f 320 316 319
f 319 316 318
f 318 316 317
f 322 323 321
f 321 323 325
f 325 323 324
f 326 327 329
f 329 327 328
f 330 331 334
f 334 331 333
f 333 331 332
f 335 336 338
f 338 336 337
f 339 340 342
f 342 340 341
f 344 345 343
f 343 345 346
f 347 348 352
f 352 348 349
f 352 349 351
f 351 349 350
f 354 355 353
f 353 355 356
f 358 359 357
f 357 359 360
f 362 363 361
f 361 363 364
f 366 368 365
f 365 368 369
f 365 369 373
f 373 369 372
f 372 369 370
f 372 370 371
f 366 367 368
f 375 381 374
f 374 381 382
f 374 382 383
f 375 376 381
f 381 376 377
f 381 377 378
f 378 379 381
f 381 379 380
f 383 384 374
f 385 386 389
f 389 386 388
f 388 386 387
f 390 391 394
f 394 391 393
f 393 391 392
f 395 396 400
f 400 396 399
f 399 396 398
f 398 396 397
f 408 401 407
f 407 401 402
f 407 402 403
f 404 405 403
f 403 405 406
f 403 406 407
f 410 411 409
f 409 411 414
f 414 411 413
f 413 411 412
f 415 416 418
f 418 416 417
f 420 421 419
f 419 421 422
f 423 424 428
f 428 424 425
f 428 425 426
f 426 427 428
f 429 430 434
f 434 430 433
f 433 430 431
f 433 431 432
f 436 438 435
f 435 438 439
f 435 439 441
f 441 439 440
f 436 437 438
f 442 443 445
f 445 443 444
f 535 446 534
f 534 446 447
f 534 447 533
f 533 447 530
f 533 530 532
f 532 530 531
f 448 450 447
f 447 450 514
f 447 514 517
f 517 514 516
f 516 514 515
f 448 449 450
f 451 497 450
f 450 497 498
f 450 498 501
f 501 498 500
f 500 498 499
f 452 536 451
f 451 536 457
f 451 457 458
f 536 452 539
f 539 452 453
f 539 453 454
f 539 454 538
f 538 454 455
f 538 455 537
f 537 455 456
f 537 456 457
f 459 460 458
f 458 460 461
f 458 461 451
f 451 461 462
f 451 462 465
f 465 462 464
f 464 462 463
f 465 466 451
f 451 466 469
f 451 469 470
f 467 468 466
f 466 468 469
f 471 472 470
f 470 472 473
f 470 473 451
f 451 473 474
f 451 474 477
f 477 474 476
f 476 474 475
f 477 478 451
f 451 478 481
f 451 481 482
f 479 480 478
f 478 480 481
f 483 484 482
f 482 484 485
f 482 485 451
f 451 485 486
f 451 486 489
f 489 486 488
f 488 486 487
f 489 490 451
f 451 490 493
f 451 493 494
f 491 492 490
f 490 492 493
f 495 496 494
f 494 496 497
f 494 497 451
f 501 502 450
f 450 502 505
f 450 505 506
f 503 504 502
f 502 504 505
f 507 508 506
f 506 508 509
f 506 509 450
f 450 509 510
f 450 510 513
f 513 510 512
f 512 510 511
f 513 514 450
f 517 518 447
f 447 518 521
f 447 521 522
f 519 520 518
f 518 520 521
f 523 524 522
f 522 524 525
f 522 525 447
f 447 525 526
f 447 526 529
f 529 526 528
f 528 526 527
f 529 530 447
f 536 537 457
f 540 541 543
f 543 541 542
f 545 546 544
f 544 546 547
f 548 549 643
f 643 549 642
f 642 549 639
f 642 639 641
f 641 639 640
f 550 637 549
f 549 637 638
f 549 638 639
f 551 552 550
f 550 552 553
f 550 553 556
f 556 553 555
f 555 553 554
f 556 557 550
f 550 557 637
f 558 559 557
f 557 559 560
f 557 560 637
f 637 560 561
f 637 561 564
f 564 561 563
f 563 561 562
f 564 565 637
f 637 565 568
f 637 568 569
f 566 567 565
f 565 567 568
f 570 571 569
f 569 571 572
f 569 572 637
f 637 572 573
f 637 573 576
f 576 573 575
f 575 573 574
f 637 576 633
f 633 576 577
f 633 577 580
f 580 577 579
f 579 577 578
f 580 581 633
f 633 581 584
f 633 584 585
f 582 583 581
f 581 583 584
f 586 587 585
f 585 587 588
f 585 588 633
f 633 588 632
f 632 588 589
f 632 589 592
f 592 589 591
f 591 589 590
f 592 593 632
f 632 593 596
f 632 596 597
f 594 595 593
f 593 595 596
f 598 599 597
f 597 599 600
f 597 600 646
f 646 600 601
f 646 601 604
f 604 601 603
f 603 601 602
f 604 605 646
f 646 605 608
f 646 608 609
f 606 607 605
f 605 607 608
f 610 611 609
f 609 611 612
f 609 612 646
f 646 612 613
f 646 613 616
f 616 613 615
f 615 613 614
f 616 617 646
f 646 617 620
f 646 620 621
f 618 619 617
f 617 619 620
f 622 623 621
f 621 623 624
f 621 624 646
f 646 624 625
f 646 625 645
f 645 625 626
f 645 626 627
f 645 627 644
f 644 627 628
f 644 628 647
f 647 628 629
f 647 629 646
f 646 629 630
f 646 630 632
f 632 630 631
f 634 635 633
f 633 635 636
f 633 636 637
f 597 646 632
f 648 649 651
f 651 649 650
f 653 654 652
f 652 654 655
f 656 657 659
f 659 657 658
f 661 662 660
f 660 662 663
f 660 663 664
f 664 665 660
f 666 667 669
f 669 667 668
f 670 671 672
f 673 674 678
f 678 674 677
f 677 674 676
f 676 674 675
f 679 680 682
f 682 680 681
f 683 684 690
f 690 684 685
f 690 685 686
f 687 688 686
f 686 688 689
f 686 689 690
f 692 693 691
f 691 693 696
f 696 693 694
f 696 694 695
