v -0.019 0.088499999 0.0088999939
v -0.019 0.089721296 0.0084554672
v -0.019 0.090371134 0.0073299408
v -0.019 0.090145448 0.0060499954
v -0.019 0.089149837 0.0052145767
v -0.019 0.087850161 0.0052145767
v -0.019 0.086854551 0.0060499954
v -0.019 0.086628866 0.0073299408
v -0.019 0.087278705 0.0084554672
v -0.019 0.0845 0.032000008
v -0.019 0.0845 0.00099998474
v -0.019 0.0925 0.00099998474
v -0.019 0.0925 0.032000008
v -0.019 0.0925 0.032000008
v -0.019 0.0925 0.00099998474
v -0.025999998 0.0925 0.00099998474
v -0.025999998 0.0925 0.032000008
v -0.025999998 0.088499999 0.0088999939
v -0.025999998 0.087278705 0.0084554672
v -0.025999998 0.086628866 0.0073299408
v -0.025999998 0.086854551 0.0060499954
v -0.025999998 0.087850161 0.0052145767
v -0.025999998 0.089149837 0.0052145767
v -0.025999998 0.090145448 0.0060499954
v -0.025999998 0.090371134 0.0073299408
v -0.025999998 0.089721296 0.0084554672
v -0.025999998 0.0925 0.032000008
v -0.025999998 0.0925 0.00099998474
v -0.025999998 0.0845 0.00099998474
v -0.025999998 0.0845 0.032000008
v -0.025999998 0.0845 0.032000008
v -0.025999998 0.0845 0.00099998474
v -0.019 0.0845 0.00099998474
v -0.019 0.0845 0.032000008
v -0.019 0.0925 0.00099998474
v -0.019 0.0845 0.00099998474
v -0.025999998 0.0845 0.00099998474
v -0.025999998 0.0925 0.00099998474
v -0.019 0.0845 0.032000008
v -0.019 0.0925 0.032000008
v -0.025999998 0.0925 0.032000008
v -0.025999998 0.0845 0.032000008
v -0.025999998 0.088499999 0.0088999939
v -0.025999998 0.089721296 0.0084554672
v -0.025999998 0.090371134 0.0073299408
v -0.025999998 0.090145448 0.0060499954
v -0.025999998 0.089149837 0.0052145767
v -0.025999998 0.087850161 0.0052145767
v -0.025999998 0.086854551 0.0060499954
v -0.025999998 0.086628866 0.0073299408
v -0.025999998 0.087278705 0.0084554672
v -0.019 0.088499999 0.0088999939
v -0.019 0.087278705 0.0084554672
v -0.019 0.086628866 0.0073299408
v -0.019 0.086854551 0.0060499954
v -0.019 0.087850161 0.0052145767
v -0.019 0.089149837 0.0052145767
v -0.019 0.090145448 0.0060499954
v -0.019 0.090371134 0.0073299408
v -0.019 0.089721296 0.0084554672
v -0.019 0.088499999 0.0088999939
v -0.025999998 0.088499999 0.0088999939
f 2 13 1
f 1 13 10
f 1 10 9
f 9 10 8
f 8 10 11
f 8 11 7
f 7 11 6
f 6 11 5
f 5 11 12
f 5 12 4
f 4 12 3
f 3 12 13
f 3 13 2
f 14 15 17
f 17 15 16
f 19 30 18
f 18 30 27
f 18 27 26
f 26 27 25
f 25 27 28
f 25 28 24
f 24 28 23
f 23 28 29
f 23 29 22
f 22 29 21
f 21 29 20
f 20 29 30
f 20 30 19
f 31 32 34
f 34 32 33
f 36 37 35
f 35 37 38
f 40 41 39
f 39 41 42
f 44 60 43
f 43 60 61
f 62 52 51
f 51 52 53
f 51 53 50
f 50 53 54
f 50 54 49
f 49 54 55
f 49 55 48
f 48 55 56
f 48 56 47
f 47 56 57
f 47 57 46
f 46 57 58
f 46 58 45
f 45 58 59
f 45 59 44
f 44 59 60
v 0.026 0.088499999 0.0088999939
v 0.026 0.089721296 0.0084554672
v 0.026 0.090371134 0.0073299408
v 0.026 0.090145448 0.0060499954
v 0.026 0.089149837 0.0052145767
v 0.026 0.087850161 0.0052145767
v 0.026 0.086854551 0.0060499954
v 0.026 0.086628866 0.0073299408
v 0.026 0.087278705 0.0084554672
v 0.026 0.0845 0.032000008
v 0.026 0.0845 0.00099998474
v 0.026 0.0925 0.00099998474
v 0.026 0.0925 0.032000008
v 0.026 0.0925 0.032000008
v 0.026 0.0925 0.00099998474
v 0.019 0.0925 0.00099998474
v 0.019 0.0925 0.032000008
v 0.019 0.088499999 0.0088999939
v 0.019 0.087278705 0.0084554672
v 0.019 0.086628866 0.0073299408
v 0.019 0.086854551 0.0060499954
v 0.019 0.087850161 0.0052145767
v 0.019 0.089149837 0.0052145767
v 0.019 0.090145448 0.0060499954
v 0.019 0.090371134 0.0073299408
v 0.019 0.089721296 0.0084554672
v 0.019 0.0925 0.032000008
v 0.019 0.0925 0.00099998474
v 0.019 0.0845 0.00099998474
v 0.019 0.0845 0.032000008
v 0.019 0.0845 0.032000008
v 0.019 0.0845 0.00099998474
v 0.026 0.0845 0.00099998474
v 0.026 0.0845 0.032000008
v 0.026 0.0925 0.00099998474
v 0.026 0.0845 0.00099998474
v 0.019 0.0845 0.00099998474
v 0.019 0.0925 0.00099998474
v 0.026 0.0845 0.032000008
v 0.026 0.0925 0.032000008
v 0.019 0.0925 0.032000008
v 0.019 0.0845 0.032000008
v 0.019 0.088499999 0.0088999939
v 0.019 0.089721296 0.0084554672
v 0.019 0.090371134 0.0073299408
v 0.019 0.090145448 0.0060499954
v 0.019 0.089149837 0.0052145767
v 0.019 0.087850161 0.0052145767
v 0.019 0.086854551 0.0060499954
v 0.019 0.086628866 0.0073299408
v 0.019 0.087278705 0.0084554672
v 0.026 0.088499999 0.0088999939
v 0.026 0.087278705 0.0084554672
v 0.026 0.086628866 0.0073299408
v 0.026 0.086854551 0.0060499954
v 0.026 0.087850161 0.0052145767
v 0.026 0.089149837 0.0052145767
v 0.026 0.090145448 0.0060499954
v 0.026 0.090371134 0.0073299408
v 0.026 0.089721296 0.0084554672
v 0.026 0.088499999 0.0088999939
v 0.019 0.088499999 0.0088999939
f 64 75 63
f 63 75 72
f 63 72 71
f 71 72 70
f 70 72 73
f 70 73 69
f 69 73 68
f 68 73 67
f 67 73 74
f 67 74 66
f 66 74 65
f 65 74 75
f 65 75 64
f 76 77 79
f 79 77 78
f 81 92 80
f 80 92 89
f 80 89 88
f 88 89 87
f 87 89 90
f 87 90 86
f 86 90 85
f 85 90 91
f 85 91 84
f 84 91 83
f 83 91 82
f 82 91 92
f 82 92 81
f 93 94 96
f 96 94 95
f 98 99 97
f 97 99 100
f 102 103 101
f 101 103 104
f 106 122 105
f 105 122 123
f 124 114 113
f 113 114 115
f 113 115 112
f 112 115 116
f 112 116 111
f 111 116 117
f 111 117 110
f 110 117 118
f 110 118 109
f 109 118 119
f 109 119 108
f 108 119 120
f 108 120 107
f 107 120 121
f 107 121 106
f 106 121 122
