v 0.012000008 0.004 -0.014000015
v 0.012000008 0.004 0.0079999924
v 0.012000008 -0.0080000076 0.0079999924
v 0.012000008 -0.0080000076 -0.014000015
v -0.012000008 -0.0080000076 0.0079999924
v -0.012000008 -0.0080000076 -0.014000015
v 0.012000008 -0.0080000076 -0.014000015
v 0.012000008 -0.0080000076 0.0079999924
v -0.012000008 0.004 -0.014000015
v 0.012000008 0.004 -0.014000015
v 0.012000008 -0.0080000076 -0.014000015
v -0.012000008 -0.0080000076 -0.014000015
v -0.012000008 0.004 0.0079999924
v -0.012000008 0.004 -0.014000015
v -0.012000008 -0.0080000076 -0.014000015
v -0.012000008 -0.0080000076 0.0079999924
v 0.012000008 0.004 0.0079999924
v -0.012000008 0.004 0.0079999924
v -0.012000008 -0.0080000076 0.0079999924
v 0.012000008 -0.0080000076 0.0079999924
v 0.012000008 0.004 -0.014000015
v -0.012000008 0.004 -0.014000015
v -0.012000008 0.004 0.0079999924
v 0.012000008 0.004 0.0079999924
f 1 2 4
f 4 2 3
f 5 6 8
f 8 6 7
f 9 10 12
f 12 10 11
f 13 14 16
f 16 14 15
f 17 18 20
f 20 18 19
f 22 23 21
f 21 23 24
