v -0.053999996 -0.012000004 0.0059999847
v -0.053999996 -0.012000004 -0.0059999847
v -0.053999996 0.020000004 -0.0059999847
v -0.053999996 0.020000004 0.0059999847
v -0.082000008 0.020000004 0.0059999847
v -0.082000008 0.020000004 -0.0059999847
v -0.082000008 -0.012000004 -0.0059999847
v -0.082000008 -0.012000004 0.0059999847
v -0.053999996 0.020000004 -0.0059999847
v -0.053999996 -0.012000004 -0.0059999847
v -0.082000008 -0.012000004 -0.0059999847
v -0.082000008 0.020000004 -0.0059999847
v -0.078099995 -0.012000004 0.0049000168
v -0.078099995 -0.012000004 0.0059999847
v -0.082000008 -0.012000004 0.0059999847
v -0.082000008 -0.012000004 -0.0059999847
v -0.053999996 -0.012000004 -0.0059999847
v -0.053999996 -0.012000004 0.0059999847
v -0.061900005 -0.012000004 0.0059999847
v -0.061900005 -0.012000004 0.0049000168
v -0.078099995 -0.012000004 0.0059999847
v -0.078099995 0.020000004 0.0059999847
v -0.082000008 0.020000004 0.0059999847
v -0.082000008 -0.012000004 0.0059999847
v -0.061900005 0.020000004 0.0059999847
v -0.061900005 -0.012000004 0.0059999847
v -0.053999996 -0.012000004 0.0059999847
v -0.053999996 0.020000004 0.0059999847
v -0.078099995 0.020000004 0.0059999847
v -0.078099995 0.020000004 0.0049000168
v -0.061900005 0.020000004 0.0049000168
v -0.061900005 0.020000004 0.0059999847
v -0.053999996 0.020000004 0.0059999847
v -0.053999996 0.020000004 -0.0059999847
v -0.082000008 0.020000004 -0.0059999847
v -0.082000008 0.020000004 0.0059999847
v -0.061900005 -0.012000004 0.0049000168
v -0.061900005 -0.012000004 0.0059999847
v -0.061900005 0.020000004 0.0059999847
v -0.061900005 0.020000004 0.0049000168
v -0.078099995 -0.012000004 0.0049000168
v -0.061900005 -0.012000004 0.0049000168
v -0.061900005 0.020000004 0.0049000168
v -0.078099995 0.020000004 0.0049000168
v -0.078099995 -0.012000004 0.0059999847
v -0.078099995 -0.012000004 0.0049000168
v -0.078099995 0.020000004 0.0049000168
v -0.078099995 0.020000004 0.0059999847
f 1 2 4
f 4 2 3
f 5 6 8
f 8 6 7
f 10 11 9
f 9 11 12
f 14 15 13
f 13 15 16
f 13 16 20
f 20 16 17
f 20 17 18
f 18 19 20
f 22 23 21
f 21 23 24
f 26 27 25
f 25 27 28
f 29 30 36
f 36 30 35
f 35 30 31
f 35 31 34
f 34 31 33
f 33 31 32
f 37 38 40
f 40 38 39
f 41 42 44
f 44 42 43
f 45 46 48
f 48 46 47
v -0.032999992 -0.006 0.0059999847
v -0.032999992 -0.006 -0.0059999847
v -0.032999992 0.0060000076 -0.0059999847
v -0.032999992 0.0060000076 0.0059999847
v -0.032999992 0.0060000076 0.0059999847
v -0.032999992 0.0060000076 -0.0059999847
v -0.053999996 0.0060000076 -0.0059999847
v -0.053999996 0.0060000076 0.0059999847
v -0.053999996 0.0060000076 0.0059999847
v -0.053999996 0.0060000076 -0.0059999847
v -0.053999996 -0.006 -0.0059999847
v -0.053999996 -0.006 0.0059999847
v -0.053999996 -0.006 0.0059999847
v -0.053999996 -0.006 -0.0059999847
v -0.032999992 -0.006 -0.0059999847
v -0.032999992 -0.006 0.0059999847
v -0.042099991 3.8146973e-09 -0.0059999847
v -0.041744919 -0.0014406357 -0.0059999847
v -0.040760994 -0.0025512466 -0.0059999847
v -0.039373665 -0.0030773888 -0.0059999847
v -0.037900734 -0.0028985558 -0.0059999847
v -0.036679611 -0.0020556793 -0.0059999847
v -0.035990086 -0.00074187851 -0.0059999847
v -0.035990086 0.00074188614 -0.0059999847
v -0.036679611 0.002055687 -0.0059999847
v -0.037900734 0.0028985443 -0.0059999847
v -0.039373665 0.0030773964 -0.0059999847
v -0.040760994 0.0025512543 -0.0059999847
v -0.041744919 0.0014406433 -0.0059999847
v -0.032999992 0.0060000076 -0.0059999847
v -0.032999992 -0.006 -0.0059999847
v -0.053999996 -0.006 -0.0059999847
v -0.053999996 0.0060000076 -0.0059999847
v -0.042099991 3.8146973e-09 0.0059999847
v -0.041744919 0.0014406433 0.0059999847
v -0.040760994 0.0025512543 0.0059999847
v -0.039373665 0.0030773964 0.0059999847
v -0.037900734 0.0028985443 0.0059999847
v -0.036679611 0.002055687 0.0059999847
v -0.035990086 0.00074188614 0.0059999847
v -0.035990086 -0.00074187851 0.0059999847
v -0.036679611 -0.0020556793 0.0059999847
v -0.037900734 -0.0028985558 0.0059999847
v -0.039373665 -0.0030773888 0.0059999847
v -0.040760994 -0.0025512466 0.0059999847
v -0.041744919 -0.0014406357 0.0059999847
v -0.032999992 -0.006 0.0059999847
v -0.032999992 0.0060000076 0.0059999847
v -0.053999996 0.0060000076 0.0059999847
v -0.053999996 -0.006 0.0059999847
v -0.042099991 3.8146973e-09 0.0059999847
v -0.041744919 -0.0014406357 0.0059999847
v -0.040760994 -0.0025512466 0.0059999847
v -0.039373665 -0.0030773888 0.0059999847
v -0.037900734 -0.0028985558 0.0059999847
v -0.036679611 -0.0020556793 0.0059999847
v -0.035990086 -0.00074187851 0.0059999847
v -0.035990086 0.00074188614 0.0059999847
v -0.036679611 0.002055687 0.0059999847
v -0.037900734 0.0028985443 0.0059999847
v -0.039373665 0.0030773964 0.0059999847
v -0.040760994 0.0025512543 0.0059999847
v -0.041744919 0.0014406433 0.0059999847
v -0.042099991 3.8146973e-09 -0.0059999847
v -0.041744919 0.0014406433 -0.0059999847
v -0.040760994 0.0025512543 -0.0059999847
v -0.039373665 0.0030773964 -0.0059999847
v -0.037900734 0.0028985443 -0.0059999847
v -0.036679611 0.002055687 -0.0059999847
v -0.035990086 0.00074188614 -0.0059999847
v -0.035990086 -0.00074187851 -0.0059999847
v -0.036679611 -0.0020556793 -0.0059999847
v -0.037900734 -0.0028985558 -0.0059999847
v -0.039373665 -0.0030773888 -0.0059999847
v -0.040760994 -0.0025512466 -0.0059999847
v -0.041744919 -0.0014406357 -0.0059999847
v -0.042099991 3.8146973e-09 0.0059999847
v -0.042099991 3.8146973e-09 -0.0059999847
f 49 50 52
f 52 50 51
f 53 54 56
f 56 54 55
f 57 58 60
f 60 58 59
f 61 62 64
f 64 62 63
f 66 80 65
f 65 80 81
f 65 81 77
f 77 81 76
f 76 81 75
f 75 81 78
f 75 78 74
f 74 78 73
f 73 78 72
f 72 78 79
f 72 79 71
f 71 79 70
f 70 79 69
f 69 79 68
f 68 79 80
f 68 80 67
f 67 80 66
f 83 97 82
f 82 97 98
f 82 98 94
f 94 98 93
f 93 98 92
f 92 98 95
f 92 95 91
f 91 95 90
f 90 95 89
f 89 95 88
f 88 95 96
f 88 96 87
f 87 96 86
f 86 96 85
f 85 96 97
f 85 97 84
f 84 97 83
f 100 124 99
f 99 124 126
f 125 112 111
f 111 112 113
f 111 113 114
f 100 101 124
f 124 101 123
f 123 101 102
f 123 102 122
f 122 102 103
f 122 103 121
f 121 103 104
f 121 104 120
f 120 104 105
f 120 105 119
f 119 105 106
f 119 106 118
f 118 106 107
f 118 107 117
f 117 107 108
f 117 108 116
f 116 108 109
f 116 109 115
f 115 109 110
f 115 110 114
f 114 110 111
