v -0.0044946704 0.006362118 -0.0006257109
v 5.1552434e-06 0.0063621209 -0.00058609883
v 5.0482159e-06 0.0056625214 -0.00057388797
v -0.0044947775 0.0056625184 -0.00061350004
v -0.0044950547 0.0038505009 -0.00058187297
v 4.7710062e-06 0.0038505039 -0.0005422609
v 4.6639787e-06 0.0031509044 -0.00053005005
v -0.0044951617 0.0031509014 -0.00056966212
v -0.0044787278 0.0069857525 -0.0024368003
v 2.1097891e-05 0.0069857555 -0.0023971882
v 5.1552434e-06 0.0063621209 -0.00058609883
v -0.0044946704 0.006362118 -0.0006257109
v -0.0044954389 0.0013388839 -0.00053803505
v 4.3867691e-06 0.0013388869 -0.00049842298
v 4.2797415e-06 0.00063928737 -0.00048621212
v -0.0044955459 0.00063928438 -0.00052582419
v -0.0044947775 0.0056625184 -0.00061350004
v 5.0482159e-06 0.0056625214 -0.00057388797
v 2.079044e-05 0.0049760618 -0.0023621109
v -0.0044790352 0.0049760588 -0.002401723
v -0.004479112 0.0044741331 -0.0023929623
v 2.0713653e-05 0.004474136 -0.0023533502
v 4.7710062e-06 0.0038505039 -0.0005422609
v -0.0044950547 0.0038505009 -0.00058187297
v -0.0044943932 0.0081741355 -0.00065733797
v 5.4324531e-06 0.0081741385 -0.0006177259
v 2.1174677e-05 0.0074876789 -0.0024059488
v -0.004478651 0.0074876759 -0.0024455609
v -0.0044958231 -0.0011727331 -0.00049419712
v 4.0025319e-06 -0.0011727302 -0.00045458505
v 3.895504e-06 -0.001872332 -0.00044237415
v -0.0044959302 -0.001872335 -0.00048198622
v -0.0044951617 0.0031509014 -0.00056966212
v 4.6639787e-06 0.0031509044 -0.00053005005
v 2.0406202e-05 0.0024644424 -0.0023182729
v -0.0044794195 0.0024644394 -0.002357885
v -0.0044794963 0.001962516 -0.0023491244
v 2.0329416e-05 0.001962519 -0.0023095123
v 4.3867691e-06 0.0013388869 -0.00049842298
v -0.0044954389 0.0013388839 -0.00053803505
v -0.0044942862 0.008873735 -0.00066954882
v 5.5394806e-06 0.008873738 -0.00062993675
v 5.4324531e-06 0.0081741385 -0.0006177259
v -0.0044943932 0.0081741355 -0.00065733797
v -0.0044962074 -0.0036843502 -0.0004503592
v 3.6182947e-06 -0.0036843472 -0.00041074713
v 3.5112668e-06 -0.0043839491 -0.00039853623
v -0.0044963144 -0.0043839521 -0.0004381483
v -0.0044955459 0.00063928438 -0.00052582419
v 4.2797415e-06 0.00063928737 -0.00048621212
v 2.0021965e-05 -4.7174622e-05 -0.002274435
v -0.0044798037 -4.7177612e-05 -0.0023140471
v -0.0044798805 -0.00054910101 -0.0023052865
v 1.9945179e-05 -0.00054909802 -0.0022656744
v 4.0025319e-06 -0.0011727302 -0.00045458505
v -0.0044958231 -0.0011727331 -0.00049419712
v -0.0044783436 0.0094973695 -0.0024806382
v 2.1482128e-05 0.0094973725 -0.0024410261
v 5.5394806e-06 0.008873738 -0.00062993675
v -0.0044942862 0.008873735 -0.00066954882
v -0.0044965916 -0.0061959696 -0.00040652123
v 3.2340571e-06 -0.0061959666 -0.00036690916
v 3.1270296e-06 -0.0068955661 -0.0003546983
v -0.0044966987 -0.0068955691 -0.00039431037
v -0.0044959302 -0.001872335 -0.00048198622
v 3.895504e-06 -0.001872332 -0.00044237415
v 1.9637728e-05 -0.0025587917 -0.0022305971
v -0.004480188 -0.0025587946 -0.0022702091
v -0.0044802647 -0.003060718 -0.0022614485
v 1.9560942e-05 -0.0030607151 -0.0022218365
v 3.6182947e-06 -0.0036843472 -0.00041074713
v -0.0044962074 -0.0036843502 -0.0004503592
v 2.1943151e-05 0.012510913 -0.0024936247
v 2.1866365e-05 0.01200899 -0.0024848641
v -0.0044779593 0.012008987 -0.0025244761
v -0.0044778825 0.01251091 -0.0025332367
v 5.9237181e-06 0.011385357 -0.00067377472
v -0.004493902 0.011385354 -0.00071338679
v -0.0044779593 0.012008987 -0.0025244761
v 2.1866365e-05 0.01200899 -0.0024848641
v -0.0044969759 -0.0087075842 -0.00036268335
v 2.8498203e-06 -0.0087075812 -0.00032307128
v 2.7427921e-06 -0.0094071855 -0.00031086034
v -0.0044970829 -0.0094071885 -0.00035047241
v -0.0044963144 -0.0043839521 -0.0004381483
v 3.5112668e-06 -0.0043839491 -0.00039853623
v 1.9253491e-05 -0.0050704087 -0.0021867591
v -0.0044805722 -0.0050704117 -0.0022263712
v -0.004480649 -0.0055723351 -0.0022176106
v 1.9176705e-05 -0.0055723321 -0.0021779985
v 3.2340571e-06 -0.0061959666 -0.00036690916
v -0.0044965916 -0.0061959696 -0.00040652123
v 2.1558914e-05 0.0099992959 -0.0024497867
v 2.1482128e-05 0.0094973725 -0.0024410261
v -0.0044783436 0.0094973695 -0.0024806382
v -0.0044782668 0.0099992929 -0.0024893988
v 5.8166903e-06 0.010685755 -0.00066156382
v -0.004494009 0.010685753 -0.00070117589
v -0.004493902 0.011385354 -0.00071338679
v 5.9237181e-06 0.011385357 -0.00067377472
v -0.0044973601 -0.011219204 -0.00031884538
v 2.4655828e-06 -0.011219201 -0.00027923331
v 2.3585553e-06 -0.0119188 -0.00026702245
v -0.0044974671 -0.011918803 -0.00030663452
v -0.0044966987 -0.0068955691 -0.00039431037
v 3.1270296e-06 -0.0068955661 -0.0003546983
v 1.8869254e-05 -0.0075820257 -0.0021429212
v -0.0044809564 -0.0075820287 -0.0021825333
v -0.0044810332 -0.0080839521 -0.0021737727
v 1.8792467e-05 -0.0080839491 -0.0021341606
v 2.8498203e-06 -0.0087075812 -0.00032307128
v -0.0044969759 -0.0087075842 -0.00036268335
v 2.1174677e-05 0.0074876789 -0.0024059488
v 2.1097891e-05 0.0069857555 -0.0023971882
v -0.0044787278 0.0069857525 -0.0024368003
v -0.004478651 0.0074876759 -0.0024455609
v 2.1558914e-05 0.0099992959 -0.0024497867
v -0.0044782668 0.0099992929 -0.0024893988
v -0.004494009 0.010685753 -0.00070117589
v 5.8166903e-06 0.010685755 -0.00066156382
v -0.0044977443 -0.013730823 -0.00027500741
v 2.0813452e-06 -0.01373082 -0.00023539534
v 1.9743177e-06 -0.01443042 -0.00022318449
v -0.0044978514 -0.014430423 -0.00026279656
v -0.0044970829 -0.0094071885 -0.00035047241
v 2.7427921e-06 -0.0094071855 -0.00031086034
v 1.8485016e-05 -0.010093645 -0.0020990833
v -0.0044813407 -0.010093648 -0.0021386953
v -0.0044814175 -0.010595572 -0.0021299347
v 1.840823e-05 -0.010595569 -0.0020903227
v 2.4655828e-06 -0.011219201 -0.00027923331
v -0.0044973601 -0.011219204 -0.00031884538
v 2.079044e-05 0.0049760618 -0.0023621109
v 2.0713653e-05 0.004474136 -0.0023533502
v -0.004479112 0.0044741331 -0.0023929623
v -0.0044790352 0.0049760588 -0.002401723
v 2.2327389e-05 0.01502253 -0.0025374626
v 2.2250602e-05 0.014520607 -0.002528702
v -0.0044775751 0.014520604 -0.0025683141
v -0.0044774983 0.015022527 -0.0025770747
v 6.3079553e-06 0.013896974 -0.00071761264
v -0.0044935177 0.013896971 -0.00075722471
v -0.0044775751 0.014520604 -0.0025683141
v 2.2250602e-05 0.014520607 -0.002528702
v -0.0044974671 -0.011918803 -0.00030663452
v 2.3585553e-06 -0.0119188 -0.00026702245
v 1.8100779e-05 -0.01260526 -0.0020552454
v -0.0044817249 -0.012605263 -0.0020948574
v -0.0044818017 -0.013107186 -0.0020860968
v 1.8023993e-05 -0.013107183 -0.0020464848
v 2.0813452e-06 -0.01373082 -0.00023539534
v -0.0044977443 -0.013730823 -0.00027500741
v 2.0406202e-05 0.0024644424 -0.0023182729
v 2.0329416e-05 0.001962519 -0.0023095123
v -0.0044794963 0.001962516 -0.0023491244
v -0.0044794195 0.0024644394 -0.002357885
v -0.0044981286 -0.016242438 -0.00023116953
v 1.6971084e-06 -0.016242435 -0.00019155746
v 1.5900809e-06 -0.016942034 -0.00017934661
v -0.0044982356 -0.016942037 -0.00021895867
v 6.2009276e-06 0.013197374 -0.00070540177
v -0.0044936248 0.013197371 -0.00074501384
v -0.0044935177 0.013896971 -0.00075722471
v 6.3079553e-06 0.013896974 -0.00071761264
v -0.0044978514 -0.014430423 -0.00026279656
v 1.9743177e-06 -0.01443042 -0.00022318449
v 1.7716542e-05 -0.015116879 -0.0020114074
v -0.0044821091 -0.015116882 -0.0020510195
v -0.0044821859 -0.015618806 -0.0020422589
v 1.7639755e-05 -0.015618803 -0.0020026468
v 1.6971084e-06 -0.016242435 -0.00019155746
v -0.0044981286 -0.016242438 -0.00023116953
v 2.0021965e-05 -4.7174622e-05 -0.002274435
v 1.9945179e-05 -0.00054909802 -0.0022656744
v -0.0044798805 -0.00054910101 -0.0023052865
v -0.0044798037 -4.7177612e-05 -0.0023140471
v 2.1943151e-05 0.012510913 -0.0024936247
v -0.0044778825 0.01251091 -0.0025332367
v -0.0044936248 0.013197371 -0.00074501384
v 6.2009276e-06 0.013197374 -0.00070540177
v -0.0044982356 -0.016942037 -0.00021895867
v 1.5900809e-06 -0.016942034 -0.00017934661
v 1.7332305e-05 -0.017628494 -0.0019675695
v -0.0044824934 -0.017628497 -0.0020071816
v 1.9637728e-05 -0.0025587917 -0.0022305971
v 1.9560942e-05 -0.0030607151 -0.0022218365
v -0.0044802647 -0.003060718 -0.0022614485
v -0.004480188 -0.0025587946 -0.0022702091
v 2.2711626e-05 0.017534148 -0.0025813005
v 2.263484e-05 0.017032225 -0.0025725399
v -0.0044771908 0.017032222 -0.002612152
v -0.0044771141 0.017534145 -0.0026209126
v 6.6921925e-06 0.016408591 -0.00076145057
v -0.0044931335 0.016408588 -0.00080106264
v -0.0044771908 0.017032222 -0.002612152
v 2.263484e-05 0.017032225 -0.0025725399
v 1.9253491e-05 -0.0050704087 -0.0021867591
v 1.9176705e-05 -0.0055723321 -0.0021779985
v -0.004480649 -0.0055723351 -0.0022176106
v -0.0044805722 -0.0050704117 -0.0022263712
v -0.0044825702 -0.018130425 -0.0019984209
v 1.7255518e-05 -0.018130422 -0.0019588088
v 1.3128709e-06 -0.018754054 -0.00014771949
v -0.0044985128 -0.018754057 -0.00018733156
v 6.5851648e-06 0.015708991 -0.00074923969
v -0.0044932405 0.015708988 -0.00078885176
v -0.0044931335 0.016408588 -0.00080106264
v 6.6921925e-06 0.016408591 -0.00076145057
v 1.8869254e-05 -0.0075820257 -0.0021429212
v 1.8792467e-05 -0.0080839491 -0.0021341606
v -0.0044810332 -0.0080839521 -0.0021737727
v -0.0044809564 -0.0075820287 -0.0021825333
v -0.0044985128 -0.018754057 -0.00018733156
v 1.3128709e-06 -0.018754054 -0.00014771949
v 1.2058434e-06 -0.019453654 -0.00013550864
v -0.0044986198 -0.019453657 -0.00017512071
v 2.2327389e-05 0.01502253 -0.0025374626
v -0.0044774983 0.015022527 -0.0025770747
v -0.0044932405 0.015708988 -0.00078885176
v 6.5851648e-06 0.015708991 -0.00074923969
v 1.8485016e-05 -0.010093645 -0.0020990833
v 1.840823e-05 -0.010595569 -0.0020903227
v -0.0044814175 -0.010595572 -0.0021299347
v -0.0044813407 -0.010093648 -0.0021386953
v -0.0044986198 -0.019453657 -0.00017512071
v 1.2058434e-06 -0.019453654 -0.00013550864
v 1.6948067e-05 -0.020140113 -0.0019237316
v -0.0044828776 -0.020140116 -0.0019633436
v -0.0044768066 0.019543839 -0.0026559899
v -0.0044767298 0.020045762 -0.0026647505
v 2.3095863e-05 0.020045765 -0.0026251385
v 2.3019077e-05 0.019543842 -0.0026163779
v 7.0764297e-06 0.018920208 -0.00080528849
v -0.0044927493 0.018920205 -0.00084490056
v -0.0044768066 0.019543839 -0.0026559899
v 2.3019077e-05 0.019543842 -0.0026163779
v 1.8100779e-05 -0.01260526 -0.0020552454
v 1.8023993e-05 -0.013107183 -0.0020464848
v -0.0044818017 -0.013107186 -0.0020860968
v -0.0044817249 -0.012605263 -0.0020948574
v 6.969402e-06 0.018220608 -0.00079307762
v -0.0044928563 0.018220605 -0.00083268969
v -0.0044927493 0.018920205 -0.00084490056
v 7.0764297e-06 0.018920208 -0.00080528849
v 1.7716542e-05 -0.015116879 -0.0020114074
v 1.7639755e-05 -0.015618803 -0.0020026468
v -0.0044821859 -0.015618806 -0.0020422589
v -0.0044821091 -0.015116882 -0.0020510195
v -0.0044829544 -0.02064204 -0.001954583
v 1.6871281e-05 -0.020642037 -0.001914971
v 9.2863407e-07 -0.021265669 -0.00010388161
v -0.004498897 -0.021265672 -0.00014349368
v 2.2711626e-05 0.017534148 -0.0025813005
v -0.0044771141 0.017534145 -0.0026209126
v -0.0044928563 0.018220605 -0.00083268969
v 6.969402e-06 0.018220608 -0.00079307762
v 1.7332305e-05 -0.017628494 -0.0019675695
v 1.7255518e-05 -0.018130422 -0.0019588088
v -0.0044825702 -0.018130425 -0.0019984209
v -0.0044824934 -0.017628497 -0.0020071816
v -0.004498897 -0.021265672 -0.00014349368
v 9.2863407e-07 -0.021265669 -0.00010388161
v 8.2160654e-07 -0.021965268 -9.1670755e-05
v -0.0044990041 -0.021965271 -0.00013128282
v -0.0035131286 0.024078459 0.0014741423
v -0.0045218911 0.02409591 0.0024651485
v -0.004521264 0.028195285 0.0023935978
v -0.0035125014 0.028177834 0.0014025916
v -0.0034755358 0.028104535 -0.0027966062
v -0.0044666956 0.028087083 -0.0038052178
v -0.0044673227 0.023987707 -0.003733667
v -0.0034761629 0.02400516 -0.0027250554
v 7.460667e-06 0.021431827 -0.00084912644
v -0.004492365 0.021431824 -0.00088873851
v -0.0044764224 0.022055456 -0.0026998278
v 2.3403314e-05 0.022055459 -0.0026602158
v -0.0039549514 0.024413206 -0.0051368514
v -0.0044594092 0.023922008 -0.0046326226
v -0.0044581702 0.032020774 -0.004773979
v -0.0039537889 0.032012048 -0.0052694821
v -0.00051324469 0.024078461 0.0015005504
v -0.0035131286 0.024078459 0.0014741423
v -0.0035125014 0.028177834 0.0014025916
v -0.00051261756 0.028177836 0.0014289996
v -0.00047565187 0.028104537 -0.0027701981
v -0.0034755358 0.028104535 -0.0027966062
v -0.0034761629 0.02400516 -0.0027250554
v -0.00047627901 0.024005162 -0.0026986474
v 1.6948067e-05 -0.020140113 -0.0019237316
v 1.6871281e-05 -0.020642037 -0.001914971
v -0.0044829544 -0.02064204 -0.001954583
v -0.0044828776 -0.020140116 -0.0019633436
v -0.0044990041 -0.021965271 -0.00013128282
v 8.2160654e-07 -0.021965268 -9.1670755e-05
v 1.656383e-05 -0.022651733 -0.0018798936
v -0.0044832619 -0.022651736 -0.0019195057
v 7.3536393e-06 0.020732226 -0.00083691556
v -0.004492472 0.020732223 -0.00087652763
v -0.004492365 0.021431824 -0.00088873851
v 7.460667e-06 0.021431827 -0.00084912644
v -1.7664771e-05 0.024087187 0.002004856
v -0.00051324469 0.024078461 0.0015005504
v -0.00051261756 0.028177836 0.0014289996
v -1.7037632e-05 0.028186562 0.0019333052
v -0.004521264 0.028195285 0.0023935978
v -0.0044666956 0.028087083 -0.0038052178
v -0.0034755358 0.028104535 -0.0027966062
v -0.00047565187 0.028104537 -0.0027701981
v 2.8729403e-05 0.028095812 -0.0032657013
v -1.7037632e-05 0.028186562 0.0019333052
v -0.00051261756 0.028177836 0.0014289996
v -0.0035125014 0.028177834 0.0014025916
v -0.0044673227 0.023987707 -0.003733667
v -0.0045218911 0.02409591 0.0024651485
v -0.0035131286 0.024078459 0.0014741423
v -0.00051324469 0.024078461 0.0015005504
v -1.7664771e-05 0.024087187 0.002004856
v 2.8102264e-05 0.023996436 -0.0031941505
v -0.00047627901 0.024005162 -0.0026986474
v -0.0034761629 0.02400516 -0.0027250554
v 1.5718569e-05 -0.02817689 -0.0017834571
v -0.0042441164 -0.028176893 -0.0018209566
v -0.0044840704 -0.027936928 -0.0018272576
v -0.0044840303 -0.02767497 -0.0018318298
v 1.5795355e-05 -0.027674967 -0.0017922177
v 1.656383e-05 -0.022651733 -0.0018798936
v 1.6487044e-05 -0.023153656 -0.001871133
v -0.0044833386 -0.023153659 -0.0019107451
v -0.0044832619 -0.022651736 -0.0019195057
v -0.0044764224 0.022055456 -0.0026998278
v -0.0044594092 0.023922008 -0.0046326226
v -0.0039549514 0.024413206 -0.0051368514
v 4.4893667e-05 0.024413208 -0.0051016407
v 2.3403314e-05 0.022055459 -0.0026602158
v -0.0045203944 0.019492247 0.002295473
v -0.0045274841 -0.026850693 0.0031043457
v -0.0029275462 -0.026850692 0.00311843
v -0.0029204564 0.019492248 0.0023095573
v -0.0040345001 0.022370609 0.0038998223
v -0.0036876477 0.022026771 0.0042589446
v -3.7789035e-05 0.022026774 0.0042910744
v -3.4655023e-05 0.022370612 0.003935033
v -0.0032300884 0.032169118 0.0037358665
v -3.3645032e-05 0.02897255 0.0038198023
v 4.5567145e-05 0.028815482 -0.0051784782
v -0.0031508762 0.032012049 -0.005262414
v -0.0035001046 -0.02890536 -1.3473717e-06
v -0.0035180056 -0.028869865 0.0020321602
v -0.004525671 -0.027854439 0.0028984564
v -0.0044840704 -0.027936928 -0.0018272576
v -0.0042441164 -0.028176893 -0.0018209566
v -0.003604938 -0.028800525 -4.1001738e-06
v 2.3095863e-05 0.020045765 -0.0026251385
v -0.0044767298 0.020045762 -0.0026647505
v -0.004492472 0.020732223 -0.00087652763
v 7.3536393e-06 0.020732226 -0.00083691556
v 2.8729403e-05 0.028095812 -0.0032657013
v -0.00047565187 0.028104537 -0.0027701981
v -0.00047627901 0.024005162 -0.0026986474
v 2.8102264e-05 0.023996436 -0.0031941505
v -0.0044833386 -0.023153659 -0.0019107451
v 1.6487044e-05 -0.023153656 -0.001871133
v 5.4439652e-07 -0.023777288 -6.0043643e-05
v -0.0044992813 -0.023777291 -9.9655713e-05
v -0.004525671 -0.027854439 0.0028984564
v -0.0035180056 -0.028869865 0.0020321602
v -0.0029180289 -0.028869864 0.0020374418
v -0.0029231886 -0.02833479 0.0026235306
v -0.0029264864 -0.027635135 0.0029980997
v -0.0029275462 -0.026850692 0.00311843
v -0.0045274841 -0.026850693 0.0031043457
v -0.004527315 -0.027194165 0.003085159
v -0.0045267063 -0.027531154 0.0030160354
v -0.0029420684 -0.026821896 0.0047681144
v -0.0029347263 0.021170793 0.0039304469
v -0.0029204564 0.019492248 0.0023095573
v -0.0029275462 -0.026850692 0.00311843
v -0.0029264864 -0.027635135 0.0029980997
v -0.0029231886 -0.02833479 0.0026235306
v -0.0029180289 -0.028869864 0.0020374418
v -0.0029356316 -0.02883496 0.0040370596
v -0.0029407913 -0.028299886 0.0046231484
v -0.0029440891 -0.027600231 0.0049977175
v -0.0029451489 -0.026815788 0.0051180478
v -0.0040330011 0.032169117 0.0037287985
v -0.0040345001 0.022370609 0.0038998223
v -3.4655023e-05 0.022370612 0.003935033
v -3.3645032e-05 0.02897255 0.0038198023
v -0.0032300884 0.032169118 0.0037358665
v 4.4893667e-05 0.024413208 -0.0051016407
v -0.0039549514 0.024413206 -0.0051368514
v -0.0039537889 0.032012048 -0.0052694821
v -0.0031508762 0.032012049 -0.005262414
v 4.5567145e-05 0.028815482 -0.0051784782
v -0.004528581 0.032160391 0.0032244925
v -0.0040330011 0.032169117 0.0037287985
v -0.0032300884 0.032169118 0.0037358665
v -0.0031508762 0.032012049 -0.005262414
v -0.0039537889 0.032012048 -0.0052694821
v -0.0044581702 0.032020774 -0.004773979
v -0.0029451489 -0.026815788 0.0051180478
v -0.0029440891 -0.027600231 0.0049977175
v -0.0029407913 -0.028299886 0.0046231484
v -0.0029356316 -0.02883496 0.0040370596
v -3.5743859e-05 -0.028834958 0.0040625874
v -4.0903568e-05 -0.028299884 0.0046486762
v -4.4201373e-05 -0.027600229 0.0050232453
v -4.5261165e-05 -0.026815786 0.0051435755
v -0.0036877242 0.021526848 0.0042676703
v -0.0036876477 0.022026771 0.0042589446
v -0.0040345001 0.022370609 0.0038998223
v -0.0040330011 0.032169117 0.0037287985
v -0.004528581 0.032160391 0.0032244925
v -0.0045303401 0.020662142 0.0034251837
v -2.4011603e-07 -0.028905358 2.9462016e-05
v -0.0035001046 -0.02890536 -1.3473717e-06
v -0.003604938 -0.028800525 -4.1001738e-06
v -2.2407784e-07 -0.028800522 2.7632206e-05
v -0.0044992813 -0.023777291 -9.9655713e-05
v 5.4439652e-07 -0.023777288 -6.0043643e-05
v 4.37369e-07 -0.024476888 -4.7832789e-05
v -0.0044993883 -0.024476891 -8.7444858e-05
v -0.0035180056 -0.028869865 0.0020321602
v -0.0035001046 -0.02890536 -1.3473717e-06
v -2.4011603e-07 -0.028905358 2.9462016e-05
v -3.5743859e-05 -0.028834958 0.0040625874
v -0.0029356316 -0.02883496 0.0040370596
v -0.0029180289 -0.028869864 0.0020374418
v -0.0029377532 0.021526848 0.0042742723
v -0.0036877242 0.021526848 0.0042676703
v -0.0045303401 0.020662142 0.0034251837
v -0.0045203944 0.019492247 0.002295473
v -0.0029204564 0.019492248 0.0023095573
v -0.0029347263 0.021170793 0.0039304469
v -3.4708559e-05 0.022020666 0.003941141
v -0.0036845672 0.022020663 0.0039090112
v -0.0036846437 0.02152074 0.0039177369
v -0.0029346727 0.02152074 0.0039243389
v -0.0029347263 0.021170793 0.0039304469
v -0.0029420684 -0.026821896 0.0047681144
v -4.2180689e-05 -0.026821895 0.0047936421
v -2.2407784e-07 -0.028800522 2.7632206e-05
v -0.003604938 -0.028800525 -4.1001738e-06
v -0.0042441164 -0.028176893 -0.0018209566
v 1.5718569e-05 -0.02817689 -0.0017834571
v -0.0044840704 -0.027936928 -0.0018272576
v -0.004525671 -0.027854439 0.0028984564
v -0.0045267063 -0.027531154 0.0030160354
v -0.004527315 -0.027194165 0.003085159
v -0.0045274841 -0.026850693 0.0031043457
v -0.0045203944 0.019492247 0.002295473
v -0.0045303401 0.020662142 0.0034251837
v -0.004528581 0.032160391 0.0032244925
v -0.0044581702 0.032020774 -0.004773979
v -0.0044594092 0.023922008 -0.0046326226
v -0.0044764224 0.022055456 -0.0026998278
v -0.004492365 0.021431824 -0.00088873851
v -0.004492472 0.020732223 -0.00087652763
v -0.0044767298 0.020045762 -0.0026647505
v -0.0044768066 0.019543839 -0.0026559899
v -0.0044927493 0.018920205 -0.00084490056
v -0.0044928563 0.018220605 -0.00083268969
v -0.0044771141 0.017534145 -0.0026209126
v -0.0044771908 0.017032222 -0.002612152
v -0.0044931335 0.016408588 -0.00080106264
v -0.0044932405 0.015708988 -0.00078885176
v -0.0044774983 0.015022527 -0.0025770747
v -0.0044775751 0.014520604 -0.0025683141
v -0.0044935177 0.013896971 -0.00075722471
v -0.0044936248 0.013197371 -0.00074501384
v -0.0044778825 0.01251091 -0.0025332367
v -0.0044779593 0.012008987 -0.0025244761
v -0.004493902 0.011385354 -0.00071338679
v -0.004494009 0.010685753 -0.00070117589
v -0.0044782668 0.0099992929 -0.0024893988
v -0.0044783436 0.0094973695 -0.0024806382
v -0.0044942862 0.008873735 -0.00066954882
v -0.0044943932 0.0081741355 -0.00065733797
v -0.004478651 0.0074876759 -0.0024455609
v -0.0044787278 0.0069857525 -0.0024368003
v -0.0044946704 0.006362118 -0.0006257109
v -0.0044947775 0.0056625184 -0.00061350004
v -0.0044790352 0.0049760588 -0.002401723
v -0.004479112 0.0044741331 -0.0023929623
v -0.0044950547 0.0038505009 -0.00058187297
v -0.0044951617 0.0031509014 -0.00056966212
v -0.0044794195 0.0024644394 -0.002357885
v -0.0044794963 0.001962516 -0.0023491244
v -0.0044954389 0.0013388839 -0.00053803505
v -0.0044955459 0.00063928438 -0.00052582419
v -0.0044798037 -4.7177612e-05 -0.0023140471
v -0.0044798805 -0.00054910101 -0.0023052865
v -0.0044958231 -0.0011727331 -0.00049419712
v -0.0044959302 -0.001872335 -0.00048198622
v -0.004480188 -0.0025587946 -0.0022702091
v -0.0044802647 -0.003060718 -0.0022614485
v -0.0044962074 -0.0036843502 -0.0004503592
v -0.0044963144 -0.0043839521 -0.0004381483
v -0.0044805722 -0.0050704117 -0.0022263712
v -0.004480649 -0.0055723351 -0.0022176106
v -0.0044965916 -0.0061959696 -0.00040652123
v -0.0044966987 -0.0068955691 -0.00039431037
v -0.0044809564 -0.0075820287 -0.0021825333
v -0.0044810332 -0.0080839521 -0.0021737727
v -0.0044969759 -0.0087075842 -0.00036268335
v -0.0044970829 -0.0094071885 -0.00035047241
v -0.0044813407 -0.010093648 -0.0021386953
v -0.0044814175 -0.010595572 -0.0021299347
v -0.0044973601 -0.011219204 -0.00031884538
v -0.0044974671 -0.011918803 -0.00030663452
v -0.0044817249 -0.012605263 -0.0020948574
v -0.0044818017 -0.013107186 -0.0020860968
v -0.0044977443 -0.013730823 -0.00027500741
v -0.0044978514 -0.014430423 -0.00026279656
v -0.0044821091 -0.015116882 -0.0020510195
v -0.0044821859 -0.015618806 -0.0020422589
v -0.0044981286 -0.016242438 -0.00023116953
v -0.0044982356 -0.016942037 -0.00021895867
v -0.0044824934 -0.017628497 -0.0020071816
v -0.0044825702 -0.018130425 -0.0019984209
v -0.0044985128 -0.018754057 -0.00018733156
v -0.0044986198 -0.019453657 -0.00017512071
v -0.0044828776 -0.020140116 -0.0019633436
v -0.0044829544 -0.02064204 -0.001954583
v -0.004498897 -0.021265672 -0.00014349368
v -0.0044990041 -0.021965271 -0.00013128282
v -0.0044832619 -0.022651736 -0.0019195057
v -0.0044833386 -0.023153659 -0.0019107451
v -0.0044992813 -0.023777291 -9.9655713e-05
v -0.0044993883 -0.024476891 -8.7444858e-05
v -0.0044836461 -0.02516335 -0.0018756678
v -0.0044837229 -0.025665274 -0.0018669072
v -0.0044996655 -0.026288906 -5.581783e-05
v -0.0044997725 -0.02698851 -4.3606892e-05
v -0.0044840303 -0.02767497 -0.0018318298
v -0.0045218911 0.02409591 0.0024651485
v -0.0044673227 0.023987707 -0.003733667
v -0.0044666956 0.028087083 -0.0038052178
v -0.004521264 0.028195285 0.0023935978
v -3.7789035e-05 0.022026774 0.0042910744
v -0.0036876477 0.022026771 0.0042589446
v -0.0036845672 0.022020663 0.0039090112
v -3.4708559e-05 0.022020666 0.003941141
v -0.0044997725 -0.02698851 -4.3606892e-05
v 5.3131455e-08 -0.026988507 -3.9948221e-06
v 1.5795355e-05 -0.027674967 -0.0017922177
v -0.0044840303 -0.02767497 -0.0018318298
v 1.0933582e-06 -0.0262524 -0.00012221738
v -1.0810396e-06 -0.025688598 0.00012474586
v -9.1669826e-07 -0.025073358 0.00010603068
v 1.554617e-06 -0.024525607 -0.00017474551
v 4.37369e-07 -0.024476888 -4.7832789e-05
v 5.4439652e-07 -0.023777288 -6.0043643e-05
v 1.6487044e-05 -0.023153656 -0.001871133
v 1.656383e-05 -0.022651733 -0.0018798936
v 8.2160654e-07 -0.021965268 -9.1670755e-05
v 9.2863407e-07 -0.021265669 -0.00010388161
v 1.6871281e-05 -0.020642037 -0.001914971
v 1.6948067e-05 -0.020140113 -0.0019237316
v 1.2058434e-06 -0.019453654 -0.00013550864
v 1.3128709e-06 -0.018754054 -0.00014771949
v 1.7255518e-05 -0.018130422 -0.0019588088
v 1.7332305e-05 -0.017628494 -0.0019675695
v 1.5900809e-06 -0.016942034 -0.00017934661
v 1.6971084e-06 -0.016242435 -0.00019155746
v 1.7639755e-05 -0.015618803 -0.0020026468
v 1.7716542e-05 -0.015116879 -0.0020114074
v 1.9743177e-06 -0.01443042 -0.00022318449
v 2.0813452e-06 -0.01373082 -0.00023539534
v 1.8023993e-05 -0.013107183 -0.0020464848
v 1.8100779e-05 -0.01260526 -0.0020552454
v 2.3585553e-06 -0.0119188 -0.00026702245
v 2.4655828e-06 -0.011219201 -0.00027923331
v 1.840823e-05 -0.010595569 -0.0020903227
v 1.8485016e-05 -0.010093645 -0.0020990833
v 2.7427921e-06 -0.0094071855 -0.00031086034
v 2.8498203e-06 -0.0087075812 -0.00032307128
v 1.8792467e-05 -0.0080839491 -0.0021341606
v 1.8869254e-05 -0.0075820257 -0.0021429212
v 3.1270296e-06 -0.0068955661 -0.0003546983
v 3.2340571e-06 -0.0061959666 -0.00036690916
v 1.9176705e-05 -0.0055723321 -0.0021779985
v 1.9253491e-05 -0.0050704087 -0.0021867591
v 3.5112668e-06 -0.0043839491 -0.00039853623
v 3.6182947e-06 -0.0036843472 -0.00041074713
v 1.9560942e-05 -0.0030607151 -0.0022218365
v 1.9637728e-05 -0.0025587917 -0.0022305971
v 3.895504e-06 -0.001872332 -0.00044237415
v 4.0025319e-06 -0.0011727302 -0.00045458505
v 1.9945179e-05 -0.00054909802 -0.0022656744
v 2.0021965e-05 -4.7174622e-05 -0.002274435
v 4.2797415e-06 0.00063928737 -0.00048621212
v 4.3867691e-06 0.0013388869 -0.00049842298
v 2.0329416e-05 0.001962519 -0.0023095123
v 2.0406202e-05 0.0024644424 -0.0023182729
v 4.6639787e-06 0.0031509044 -0.00053005005
v 4.7710062e-06 0.0038505039 -0.0005422609
v 2.0713653e-05 0.004474136 -0.0023533502
v 2.079044e-05 0.0049760618 -0.0023621109
v 5.0482159e-06 0.0056625214 -0.00057388797
v 5.1552434e-06 0.0063621209 -0.00058609883
v 2.1097891e-05 0.0069857555 -0.0023971882
v 2.1174677e-05 0.0074876789 -0.0024059488
v 5.4324531e-06 0.0081741385 -0.0006177259
v 5.5394806e-06 0.008873738 -0.00062993675
v 2.1482128e-05 0.0094973725 -0.0024410261
v 2.1558914e-05 0.0099992959 -0.0024497867
v 5.8166903e-06 0.010685755 -0.00066156382
v 5.9237181e-06 0.011385357 -0.00067377472
v 2.1866365e-05 0.01200899 -0.0024848641
v 2.1943151e-05 0.012510913 -0.0024936247
v 6.2009276e-06 0.013197374 -0.00070540177
v 6.3079553e-06 0.013896974 -0.00071761264
v 2.2250602e-05 0.014520607 -0.002528702
v 2.2327389e-05 0.01502253 -0.0025374626
v 6.5851648e-06 0.015708991 -0.00074923969
v 6.6921925e-06 0.016408591 -0.00076145057
v 2.263484e-05 0.017032225 -0.0025725399
v 2.2711626e-05 0.017534148 -0.0025813005
v 6.969402e-06 0.018220608 -0.00079307762
v 7.0764297e-06 0.018920208 -0.00080528849
v 2.3019077e-05 0.019543842 -0.0026163779
v 2.3095863e-05 0.020045765 -0.0026251385
v 7.3536393e-06 0.020732226 -0.00083691556
v 7.460667e-06 0.021431827 -0.00084912644
v 2.3403314e-05 0.022055459 -0.0026602158
v 4.4893667e-05 0.024413208 -0.0051016407
v 4.5567145e-05 0.028815482 -0.0051784782
v -3.3645032e-05 0.02897255 0.0038198023
v -3.4655023e-05 0.022370612 0.003935033
v -3.7789035e-05 0.022026774 0.0042910744
v -3.4708559e-05 0.022020666 0.003941141
v -4.2180689e-05 -0.026821895 0.0047936421
v -4.5261165e-05 -0.026815786 0.0051435755
v -4.4201373e-05 -0.027600229 0.0050232453
v -4.0903568e-05 -0.028299884 0.0046486762
v -3.5743859e-05 -0.028834958 0.0040625874
v -2.4011603e-07 -0.028905358 2.9462016e-05
v -2.2407784e-07 -0.028800522 2.7632206e-05
v 1.5718569e-05 -0.02817689 -0.0017834571
v 1.5795355e-05 -0.027674967 -0.0017922177
v 5.3131455e-08 -0.026988507 -3.9948221e-06
v 1.601597e-07 -0.026288903 -1.620576e-05
v 2.8729403e-05 0.028095812 -0.0032657013
v 2.8102264e-05 0.023996436 -0.0031941505
v -1.7664771e-05 0.024087187 0.002004856
v -1.7037632e-05 0.028186562 0.0019333052
v -0.0029451489 -0.026815788 0.0051180478
v -4.5261165e-05 -0.026815786 0.0051435755
v -4.2180689e-05 -0.026821895 0.0047936421
v -0.0029420684 -0.026821896 0.0047681144
v -0.0044996655 -0.026288906 -5.581783e-05
v 1.601597e-07 -0.026288903 -1.620576e-05
v 5.3131455e-08 -0.026988507 -3.9948221e-06
v -0.0044997725 -0.02698851 -4.3606892e-05
v -0.0036877242 0.021526848 0.0042676703
v -0.0029377532 0.021526848 0.0042742723
v -0.0029346727 0.02152074 0.0039243389
v -0.0036846437 0.02152074 0.0039177369
v -0.00019843759 -0.024525607 -0.00017650604
v -0.00018381262 -0.025163347 -0.0018378162
v -0.0044836461 -0.02516335 -0.0018756678
v -0.0044993883 -0.024476891 -8.7444858e-05
v 4.37369e-07 -0.024476888 -4.7832789e-05
v 1.554617e-06 -0.024525607 -0.00017474551
v -0.0036876477 0.022026771 0.0042589446
v -0.0036877242 0.021526848 0.0042676703
v -0.0036846437 0.02152074 0.0039177369
v -0.0036845672 0.022020663 0.0039090112
v -0.0029377532 0.021526848 0.0042742723
v -0.0029347263 0.021170793 0.0039304469
v -0.0029346727 0.02152074 0.0039243389
v -0.0001838894 -0.025665271 -0.0018290556
v -0.00019889885 -0.0262524 -0.00012397792
v 1.0933582e-06 -0.0262524 -0.00012221738
v 1.601597e-07 -0.026288903 -1.620576e-05
v -0.0044996655 -0.026288906 -5.581783e-05
v -0.0044837229 -0.025665274 -0.0018669072
v -0.00018381262 -0.025163347 -0.0018378162
v -0.0001838894 -0.025665271 -0.0018290556
v -0.0044837229 -0.025665274 -0.0018669072
v -0.0044836461 -0.02516335 -0.0018756678
v -0.00019843759 -0.024525607 -0.00017650604
v 1.554617e-06 -0.024525607 -0.00017474551
v -9.1669826e-07 -0.025073358 0.00010603068
v -1.0810396e-06 -0.025688598 0.00012474586
v 1.0933582e-06 -0.0262524 -0.00012221738
v -0.00019889885 -0.0262524 -0.00012397792
v -0.00020107325 -0.025688598 0.00012298533
v -0.00020090891 -0.025073358 0.00010427014
v -0.00018381262 -0.025163347 -0.0018378162
v -0.00019843759 -0.024525607 -0.00017650604
v -0.00020090891 -0.025073358 0.00010427014
v -0.00020107325 -0.025688598 0.00012298533
v -0.00019889885 -0.0262524 -0.00012397792
v -0.0001838894 -0.025665271 -0.0018290556
f 2 3 1
f 1 3 4
f 6 7 5
f 5 7 8
f 10 11 9
f 9 11 12
f 14 15 13
f 13 15 16
f 18 19 17
f 17 19 20
f 22 23 21
f 21 23 24
f 26 27 25
f 25 27 28
f 30 31 29
f 29 31 32
f 34 35 33
f 33 35 36
f 38 39 37
f 37 39 40
f 42 43 41
f 41 43 44
f 46 47 45
f 45 47 48
f 50 51 49
f 49 51 52
f 54 55 53
f 53 55 56
f 58 59 57
f 57 59 60
f 62 63 61
f 61 63 64
f 66 67 65
f 65 67 68
f 70 71 69
f 69 71 72
f 73 74 76
f 76 74 75
f 78 79 77
f 77 79 80
f 82 83 81
f 81 83 84
f 86 87 85
f 85 87 88
f 90 91 89
f 89 91 92
f 93 94 96
f 96 94 95
f 98 99 97
f 97 99 100
f 102 103 101
f 101 103 104
f 106 107 105
f 105 107 108
f 110 111 109
f 109 111 112
f 113 114 116
f 116 114 115
f 118 119 117
f 117 119 120
f 122 123 121
f 121 123 124
f 126 127 125
f 125 127 128
f 130 131 129
f 129 131 132
f 133 134 136
f 136 134 135
f 137 138 140
f 140 138 139
f 142 143 141
f 141 143 144
f 146 147 145
f 145 147 148
f 150 151 149
f 149 151 152
f 153 154 156
f 156 154 155
f 158 159 157
f 157 159 160
f 162 163 161
f 161 163 164
f 166 167 165
f 165 167 168
f 170 171 169
f 169 171 172
f 173 174 176
f 176 174 175
f 178 179 177
f 177 179 180
f 182 183 181
f 181 183 184
f 185 186 188
f 188 186 187
f 189 190 192
f 192 190 191
f 194 195 193
f 193 195 196
f 197 198 200
f 200 198 199
f 202 203 201
f 201 203 204
f 206 207 205
f 205 207 208
f 209 210 212
f 212 210 211
f 214 215 213
f 213 215 216
f 218 219 217
f 217 219 220
f 221 222 224
f 224 222 223
f 226 227 225
f 225 227 228
f 229 230 232
f 232 230 231
f 234 235 233
f 233 235 236
f 237 238 240
f 240 238 239
f 242 243 241
f 241 243 244
f 245 246 248
f 248 246 247
f 250 251 249
f 249 251 252
f 254 255 253
f 253 255 256
f 257 258 260
f 260 258 259
f 262 263 261
f 261 263 264
f 266 267 265
f 265 267 268
f 270 271 269
f 269 271 272
f 274 275 273
f 273 275 276
f 278 279 277
f 277 279 280
f 282 283 281
f 281 283 284
f 286 287 285
f 285 287 288
f 289 290 292
f 292 290 291
f 294 295 293
f 293 295 296
f 298 299 297
f 297 299 300
f 302 303 301
f 301 303 304
f 305 306 312
f 312 306 307
f 312 307 311
f 311 307 308
f 311 308 310
f 310 308 309
f 314 315 313
f 313 315 320
f 320 315 316
f 320 316 319
f 319 316 318
f 318 316 317
f 322 323 321
f 321 323 325
f 325 323 324
f 326 327 329
f 329 327 328
f 330 331 334
f 334 331 333
f 333 331 332
f 335 336 338
f 338 336 337
f 339 340 342
f 342 340 341
f 344 345 343
f 343 345 346
f 347 348 352
f 352 348 349
f 352 349 351
f 351 349 350
f 354 355 353
f 353 355 356
f 358 359 357
f 357 359 360
f 362 363 361
f 361 363 364
f 366 368 365
f 365 368 369
f 365 369 373
f 373 369 372
f 372 369 370
f 372 370 371
f 366 367 368
f 375 381 374
f 374 381 382
f 374 382 383
f 375 376 381
f 381 376 377
f 381 377 378
f 378 379 381
f 381 379 380
f 383 384 374
f 385 386 389
f 389 386 388
f 388 386 387
f 390 391 394
f 394 391 393
f 393 391 392
f 395 396 400
f 400 396 399
f 399 396 398
f 398 396 397
f 408 401 407
f 407 401 402
f 407 402 403
f 404 405 403
f 403 405 406
f 403 406 407
f 410 411 409
f 409 411 414
f 414 411 413
f 413 411 412
f 415 416 418
f 418 416 417
f 420 421 419
f 419 421 422
f 423 424 428
f 428 424 425
f 428 425 426
f 426 427 428
f 429 430 434
f 434 430 433
f 433 430 431
f 433 431 432
f 436 438 435
f 435 438 439
f 435 439 441
f 441 439 440
f 436 437 438
f 442 443 445
f 445 443 444
f 535 446 534
f 534 446 447
f 534 447 533
f 533 447 530
f 533 530 532
f 532 530 531
f 448 450 447
f 447 450 514
f 447 514 517
f 517 514 516
f 516 514 515
f 448 449 450
f 451 497 450
f 450 497 498
f 450 498 501
f 501 498 500
f 500 498 499
f 452 536 451
f 451 536 457
f 451 457 458
f 536 452 539
f 539 452 453
f 539 453 454
f 539 454 538
f 538 454 455
f 538 455 537
f 537 455 456
f 537 456 457
f 459 460 458
f 458 460 461
f 458 461 451
f 451 461 462
f 451 462 465
f 465 462 464
f 464 462 463
f 465 466 451
f 451 466 469
f 451 469 470
f 467 468 466
f 466 468 469
f 471 472 470
f 470 472 473
f 470 473 451
f 451 473 474
f 451 474 477
f 477 474 476
f 476 474 475
f 477 478 451
f 451 478 481
f 451 481 482
f 479 480 478
f 478 480 481
f 483 484 482
f 482 484 485
f 482 485 451
f 451 485 486
f 451 486 489
f 489 486 488
f 488 486 487
f 489 490 451
f 451 490 493
f 451 493 494
f 491 492 490
f 490 492 493
f 495 496 494
f 494 496 497
f 494 497 451
f 501 502 450
f 450 502 505
f 450 505 506
f 503 504 502
f 502 504 505
f 507 508 506
f 506 508 509
f 506 509 450
f 450 509 510
f 450 510 513
f 513 510 512
f 512 510 511
f 513 514 450
f 517 518 447
f 447 518 521
f 447 521 522
f 519 520 518
f 518 520 521
f 523 524 522
f 522 524 525
f 522 525 447
f 447 525 526
f 447 526 529
f 529 526 528
f 528 526 527
f 529 530 447
f 536 537 457
f 540 541 543
f 543 541 542
f 545 546 544
f 544 546 547
f 548 549 643
f 643 549 642
f 642 549 639
f 642 639 641
f 641 639 640
f 550 637 549
f 549 637 638
f 549 638 639
f 551 552 550
f 550 552 553
f 550 553 556
f 556 553 555
f 555 553 554
f 556 557 550
f 550 557 637
f 558 559 557
f 557 559 560
f 557 560 637
f 637 560 561
f 637 561 564
f 564 561 563
f 563 561 562
f 564 565 637
f 637 565 568
f 637 568 569
f 566 567 565
f 565 567 568
f 570 571 569
f 569 571 572
f 569 572 637
f 637 572 573
f 637 573 576
f 576 573 575
f 575 573 574
f 637 576 633
f 633 576 577
f 633 577 580
f 580 577 579
f 579 577 578
f 580 581 633
f 633 581 584
f 633 584 585
f 582 583 581
f 581 583 584
f 586 587 585
f 585 587 588
f 585 588 633
f 633 588 632
f 632 588 589
f 632 589 592
f 592 589 591
f 591 589 590
f 592 593 632
f 632 593 596
f 632 596 597
f 594 595 593
f 593 595 596
f 598 599 597
f 597 599 600
f 597 600 646
f 646 600 601
f 646 601 604
f 604 601 603
f 603 601 602
f 604 605 646
f 646 605 608
f 646 608 609
f 606 607 605
f 605 607 608
f 610 611 609
f 609 611 612
f 609 612 646
f 646 612 613
f 646 613 616
f 616 613 615
f 615 613 614
f 616 617 646
f 646 617 620
f 646 620 621
f 618 619 617
f 617 619 620
f 622 623 621
f 621 623 624
f 621 624 646
f 646 624 625
f 646 625 645
f 645 625 626
f 645 626 627
f 645 627 644
f 644 627 628
f 644 628 647
f 647 628 629
f 647 629 646
f 646 629 630
f 646 630 632
f 632 630 631
f 634 635 633
f 633 635 636
f 633 636 637
f 597 646 632
f 648 649 651
f 651 649 650
f 653 654 652
f 652 654 655
f 656 657 659
f 659 657 658
f 661 662 660
f 660 662 663
f 660 663 664
f 664 665 660
f 666 667 669
f 669 667 668
f 670 671 672
f 673 674 678
f 678 674 677
f 677 674 676
f 676 674 675
f 679 680 682
f 682 680 681
f 683 684 690
f 690 684 685
f 690 685 686
f 687 688 686
f 686 688 689
f 686 689 690
f 692 693 691
f 691 693 696
f 696 693 694
f 696 694 695
