v -0.052000008 0.0029999924 0.022000008
v -0.052000008 0.0029999924 0.025
v -0.052000008 0.54299999 0.095
v -0.052000008 0.54299999 0.092000008
v 0.052000008 0.0029999924 0.025
v 0.052000008 0.0029999924 0.022000008
v 0.052000008 0.54299999 0.092000008
v 0.052000008 0.54299999 0.095
v -0.052000008 0.0029999924 0.025
v -0.052000008 0.0029999924 0.022000008
v 0.052000008 0.0029999924 0.022000008
v 0.052000008 0.0029999924 0.025
v -0.052000008 0.0029999924 0.022000008
v -0.052000008 0.54299999 0.092000008
v 0.052000008 0.54299999 0.092000008
v 0.052000008 0.0029999924 0.022000008
v -0.052000008 0.54299999 0.092000008
v -0.052000008 0.54299999 0.095
v 0.052000008 0.54299999 0.095
v 0.052000008 0.54299999 0.092000008
v -0.052000008 0.54299999 0.095
v -0.052000008 0.0029999924 0.025
v 0.052000008 0.0029999924 0.025
v 0.052000008 0.54299999 0.095
f 1 2 4
f 4 2 3
f 6 7 5
f 5 7 8
f 9 10 12
f 12 10 11
f 13 14 16
f 16 14 15
f 17 18 20
f 20 18 19
f 21 22 24
f 24 22 23
v -0.053999996 0.0029999924 0.025
v -0.053999996 0.0029999924 0.042999992
v -0.053999996 0.54299999 0.11299999
v -0.053999996 0.54299999 0.095
v -0.052000008 0.0029999924 0.042999992
v -0.052000008 0.0029999924 0.025
v -0.052000008 0.54299999 0.095
v -0.052000008 0.54299999 0.11299999
v -0.053999996 0.0029999924 0.042999992
v -0.053999996 0.0029999924 0.025
v -0.052000008 0.0029999924 0.025
v -0.052000008 0.0029999924 0.042999992
v -0.053999996 0.0029999924 0.025
v -0.053999996 0.54299999 0.095
v -0.052000008 0.54299999 0.095
v -0.052000008 0.0029999924 0.025
v -0.053999996 0.54299999 0.095
v -0.053999996 0.54299999 0.11299999
v -0.052000008 0.54299999 0.11299999
v -0.052000008 0.54299999 0.095
v -0.053999996 0.54299999 0.11299999
v -0.053999996 0.0029999924 0.042999992
v -0.052000008 0.0029999924 0.042999992
v -0.052000008 0.54299999 0.11299999
f 25 26 28
f 28 26 27
f 30 31 29
f 29 31 32
f 33 34 36
f 36 34 35
f 37 38 40
f 40 38 39
f 41 42 44
f 44 42 43
f 45 46 48
f 48 46 47
