v 0.066340153 0.017928438 0.072506257
v 0.066140153 0.017928438 0.072506257
v 0.066140153 0.017928438 0.072106257
v 0.066340153 0.017928438 0.072106257
v 0.066340153 0.018528438 0.072506257
v 0.066140153 0.018528438 0.072506257
v 0.066140153 0.018516377 0.072437853
v 0.066140153 0.018481647 0.072377699
v 0.066140153 0.018428438 0.072333052
v 0.066140153 0.018363168 0.072309295
v 0.066140153 0.018293709 0.072309295
v 0.066140153 0.018228438 0.072333052
v 0.066140153 0.018175229 0.072377699
v 0.066140153 0.0181405 0.072437853
v 0.066140153 0.018128438 0.072506257
v 0.066340153 0.018128438 0.072506257
v 0.066340153 0.0181405 0.072437853
v 0.066340153 0.018175229 0.072377699
v 0.066340153 0.018228438 0.072333052
v 0.066340153 0.018293709 0.072309295
v 0.066340153 0.018363168 0.072309295
v 0.066340153 0.018428438 0.072333052
v 0.066340153 0.018481647 0.072377699
v 0.066340153 0.018516377 0.072437853
v 0.066340153 0.017928438 0.072506257
v 0.066340153 0.018128438 0.072506257
v 0.066140153 0.018128438 0.072506257
v 0.066140153 0.017928438 0.072506257
v 0.066340153 0.018528438 0.072506257
v 0.066340153 0.018728438 0.072506257
v 0.066140153 0.018728438 0.072506257
v 0.066140153 0.018528438 0.072506257
v 0.066340153 0.018528438 0.072506257
v 0.066340153 0.018516377 0.072437853
v 0.066340153 0.018481647 0.072377699
v 0.066340153 0.018428438 0.072333052
v 0.066340153 0.018363168 0.072309295
v 0.066340153 0.018293709 0.072309295
v 0.066340153 0.018228438 0.072333052
v 0.066340153 0.018175229 0.072377699
v 0.066340153 0.0181405 0.072437853
v 0.066340153 0.018128438 0.072506257
v 0.066340153 0.017928438 0.072506257
v 0.066340153 0.017928438 0.072106257
v 0.066340153 0.018728438 0.072106257
v 0.066340153 0.018728438 0.072506257
v 0.066340153 0.018728438 0.072106257
v 0.066140153 0.018728438 0.072106257
v 0.066140153 0.018728438 0.072506257
v 0.066340153 0.018728438 0.072506257
v 0.066340153 0.017928438 0.072106257
v 0.066140153 0.017928438 0.072106257
v 0.066140153 0.018728438 0.072106257
v 0.066340153 0.018728438 0.072106257
v 0.066140153 0.018128438 0.072506257
v 0.066140153 0.0181405 0.072437853
v 0.066140153 0.018175229 0.072377699
v 0.066140153 0.018228438 0.072333052
v 0.066140153 0.018293709 0.072309295
v 0.066140153 0.018363168 0.072309295
v 0.066140153 0.018428438 0.072333052
v 0.066140153 0.018481647 0.072377699
v 0.066140153 0.018516377 0.072437853
v 0.066140153 0.018528438 0.072506257
v 0.066140153 0.018728438 0.072506257
v 0.066140153 0.018728438 0.072106257
v 0.066140153 0.017928438 0.072106257
v 0.066140153 0.017928438 0.072506257
f 1 2 4
f 4 2 3
f 5 6 24
f 24 6 7
f 24 7 23
f 23 7 8
f 23 8 22
f 22 8 9
f 22 9 21
f 21 9 10
f 21 10 20
f 20 10 11
f 20 11 19
f 19 11 12
f 19 12 18
f 18 12 13
f 18 13 17
f 17 13 14
f 17 14 16
f 16 14 15
f 26 27 25
f 25 27 28
f 30 31 29
f 29 31 32
f 33 34 46
f 46 34 35
f 46 35 45
f 45 35 36
f 45 36 37
f 37 38 45
f 45 38 44
f 44 38 39
f 44 39 40
f 44 40 43
f 43 40 41
f 43 41 42
f 47 48 50
f 50 48 49
f 51 52 54
f 54 52 53
f 55 56 68
f 68 56 57
f 68 57 67
f 67 57 58
f 67 58 59
f 67 59 66
f 66 59 60
f 66 60 61
f 61 62 66
f 66 62 65
f 65 62 63
f 65 63 64
