v 0.052000008 0.54299999 0.10299999
v 0.052000008 0.46585714 0.10299999
v 0.054000015 0.46585714 0.10299999
v 0.054000015 0.54299999 0.10299999
v 0.052000008 0.0029999924 0.042999992
v 0.052000008 0.0029999924 0.025
v 0.054000015 0.0029999924 0.025
v 0.054000015 0.0029999924 0.042999992
v 0.052000008 0.0029999924 0.025
v 0.052000008 0.54299999 0.095
v 0.054000015 0.54299999 0.095
v 0.054000015 0.0029999924 0.025
v 0.054000015 0.53700001 0.109
v 0.054000015 0.53700001 0.11222221
v 0.054000015 0.51214285 0.109
v 0.052000008 0.54299999 0.10299999
v 0.054000015 0.54299999 0.10299999
v 0.054000015 0.54299999 0.095
v 0.052000008 0.54299999 0.095
v 0.052000008 0.53700001 0.109
v 0.054000015 0.53700001 0.109
v 0.054000015 0.51214285 0.109
v 0.052000008 0.51214285 0.109
v 0.052000008 0.46585714 0.10299999
v 0.052000008 0.54299999 0.10299999
v 0.052000008 0.54299999 0.095
v 0.052000008 0.0029999924 0.025
v 0.052000008 0.0029999924 0.042999992
v 0.052000008 0.53700001 0.11222221
v 0.052000008 0.53700001 0.109
v 0.052000008 0.51214285 0.109
v 0.054000015 0.46585714 0.10299999
v 0.052000008 0.46585714 0.10299999
v 0.052000008 0.0029999924 0.042999992
v 0.054000015 0.0029999924 0.042999992
v 0.054000015 0.53700001 0.11222221
v 0.052000008 0.53700001 0.11222221
v 0.052000008 0.51214285 0.109
v 0.054000015 0.51214285 0.109
v 0.054000015 0.54299999 0.10299999
v 0.054000015 0.46585714 0.10299999
v 0.054000015 0.0029999924 0.042999992
v 0.054000015 0.0029999924 0.025
v 0.054000015 0.54299999 0.095
v 0.054000015 0.53700001 0.109
v 0.052000008 0.53700001 0.109
v 0.052000008 0.53700001 0.11222221
v 0.054000015 0.53700001 0.11222221
f 2 3 1
f 1 3 4
f 5 6 8
f 8 6 7
f 9 10 12
f 12 10 11
f 13 14 15
f 17 18 16
f 16 18 19
f 20 21 23
f 23 21 22
f 25 26 24
f 24 26 28
f 28 26 27
f 29 30 31
f 33 34 32
f 32 34 35
f 37 38 36
f 36 38 39
f 40 41 44
f 44 41 42
f 44 42 43
f 46 47 45
f 45 47 48
