v 0.0029999924 -0.0020000038 0.09
v 0.0029999924 -0.0020000038 -0.06
v 0.0029999924 0.0019999924 -0.06
v 0.0029999924 0.0019999924 0.09
v 0.0029999924 0.0019999924 0.09
v 0.0029999924 0.0019999924 -0.06
v -0.0010000038 0.0019999924 -0.06
v -0.0010000038 0.0019999924 0.09
v -0.0010000038 0.0019999924 0.09
v -0.0010000038 0.0019999924 -0.06
v -0.0010000038 -0.0020000038 -0.06
v -0.0010000038 -0.0020000038 0.09
v -0.0010000038 -0.0020000038 0.09
v -0.0010000038 -0.0020000038 -0.06
v 0.0029999924 -0.0020000038 -0.06
v 0.0029999924 -0.0020000038 0.09
v 0.0029999924 0.0019999924 -0.06
v 0.0029999924 -0.0020000038 -0.06
v -0.0010000038 -0.0020000038 -0.06
v -0.0010000038 0.0019999924 -0.06
v 0.0029999924 -0.0020000038 0.09
v 0.0029999924 0.0019999924 0.09
v -0.0010000038 0.0019999924 0.09
v -0.0010000038 -0.0020000038 0.09
f 1 2 4
f 4 2 3
f 5 6 8
f 8 6 7
f 9 10 12
f 12 10 11
f 13 14 16
f 16 14 15
f 18 19 17
f 17 19 20
f 22 23 21
f 21 23 24
v 0.01 -0.189 0.054000015
v 0.01 -0.189 0.044000015
v 0.01 -0.043000008 0.044000015
v 0.01 -0.043000008 0.054000015
v 0.01 -0.043000008 0.054000015
v 0.01 -0.043000008 0.044000015
v -0.01 -0.043000008 0.044000015
v -0.01 -0.043000008 0.054000015
v -0.01 -0.043000008 0.054000015
v -0.01 -0.043000008 0.044000015
v -0.01 -0.189 0.044000015
v -0.01 -0.189 0.054000015
v -0.01 -0.189 0.054000015
v -0.01 -0.189 0.044000015
v 0.01 -0.189 0.044000015
v 0.01 -0.189 0.054000015
v 0.01 -0.043000008 0.044000015
v 0.01 -0.189 0.044000015
v -0.01 -0.189 0.044000015
v -0.01 -0.043000008 0.044000015
v 0.01 -0.189 0.054000015
v 0.01 -0.043000008 0.054000015
v -0.01 -0.043000008 0.054000015
v -0.01 -0.189 0.054000015
f 25 26 28
f 28 26 27
f 29 30 32
f 32 30 31
f 33 34 36
f 36 34 35
f 37 38 40
f 40 38 39
f 42 43 41
f 41 43 44
f 46 47 45
f 45 47 48
v 0.0079999924 -0.12399999 0.072000008
v 0.0079999924 -0.12399999 0.054000015
v 0.0079999924 -0.10800001 0.054000015
v 0.0079999924 -0.10800001 0.072000008
v 0.0079999924 -0.10800001 0.072000008
v 0.0079999924 -0.10800001 0.054000015
v -0.0079999924 -0.10800001 0.054000015
v -0.0079999924 -0.10800001 0.072000008
v -0.0079999924 -0.10800001 0.072000008
v -0.0079999924 -0.10800001 0.054000015
v -0.0079999924 -0.12399999 0.054000015
v -0.0079999924 -0.12399999 0.072000008
v -0.0079999924 -0.12399999 0.072000008
v -0.0079999924 -0.12399999 0.054000015
v 0.0079999924 -0.12399999 0.054000015
v 0.0079999924 -0.12399999 0.072000008
v 0.0079999924 -0.10800001 0.054000015
v 0.0079999924 -0.12399999 0.054000015
v -0.0079999924 -0.12399999 0.054000015
v -0.0079999924 -0.10800001 0.054000015
v 0.0079999924 -0.12399999 0.072000008
v 0.0079999924 -0.10800001 0.072000008
v -0.0079999924 -0.10800001 0.072000008
v -0.0079999924 -0.12399999 0.072000008
f 49 50 52
f 52 50 51
f 53 54 56
f 56 54 55
f 57 58 60
f 60 58 59
f 61 62 64
f 64 62 63
f 66 67 65
f 65 67 68
f 70 71 69
f 69 71 72
v 0.012000008 -0.19 0.023600006
v 0.012000008 -0.189 0.02386795
v 0.012000008 -0.18826795 0.024599991
v 0.012000008 -0.188 0.025600014
v 0.012000008 -0.18826795 0.026599998
v 0.012000008 -0.189 0.027332039
v 0.012000008 -0.19 0.027599983
v 0.012000008 -0.191 0.027332039
v 0.012000008 -0.19173205 0.026599998
v 0.012000008 -0.192 0.025600014
v 0.012000008 -0.19173205 0.024599991
v 0.012000008 -0.191 0.02386795
v -0.0070000076 -0.19 0.023600006
v -0.0070000076 -0.191 0.02386795
v -0.0070000076 -0.19173205 0.024599991
v -0.0070000076 -0.192 0.025600014
v -0.0070000076 -0.19173205 0.026599998
v -0.0070000076 -0.191 0.027332039
v -0.0070000076 -0.19 0.027599983
v -0.0070000076 -0.189 0.027332039
v -0.0070000076 -0.18826795 0.026599998
v -0.0070000076 -0.188 0.025600014
v -0.0070000076 -0.18826795 0.024599991
v -0.0070000076 -0.189 0.02386795
v -0.0070000076 -0.19 0.023600006
v -0.0070000076 -0.189 0.02386795
v -0.0070000076 -0.18826795 0.024599991
v -0.0070000076 -0.188 0.025600014
v -0.0070000076 -0.18826795 0.026599998
v -0.0070000076 -0.189 0.027332039
v -0.0070000076 -0.19 0.027599983
v -0.0070000076 -0.191 0.027332039
v -0.0070000076 -0.19173205 0.026599998
v -0.0070000076 -0.192 0.025600014
v -0.0070000076 -0.19173205 0.024599991
v -0.0070000076 -0.191 0.02386795
v 0.012000008 -0.19 0.023600006
v 0.012000008 -0.191 0.02386795
v 0.012000008 -0.19173205 0.024599991
v 0.012000008 -0.192 0.025600014
v 0.012000008 -0.19173205 0.026599998
v 0.012000008 -0.191 0.027332039
v 0.012000008 -0.19 0.027599983
v 0.012000008 -0.189 0.027332039
v 0.012000008 -0.18826795 0.026599998
v 0.012000008 -0.188 0.025600014
v 0.012000008 -0.18826795 0.024599991
v 0.012000008 -0.189 0.02386795
v -0.0070000076 -0.19 0.027599983
v 0.012000008 -0.19 0.027599983
f 74 78 73
f 73 78 79
f 73 79 84
f 84 79 80
f 84 80 83
f 83 80 81
f 83 81 82
f 78 74 77
f 77 74 75
f 77 75 76
f 86 90 85
f 85 90 91
f 85 91 96
f 96 91 92
f 96 92 95
f 95 92 93
f 95 93 94
f 90 86 89
f 89 86 87
f 89 87 88
f 98 120 97
f 97 120 109
f 97 109 108
f 108 109 110
f 108 110 107
f 107 110 111
f 107 111 106
f 106 111 112
f 106 112 105
f 105 112 113
f 105 113 104
f 104 113 114
f 104 114 103
f 103 114 122
f 121 115 102
f 102 115 116
f 102 116 101
f 101 116 117
f 101 117 100
f 100 117 118
f 100 118 99
f 99 118 119
f 99 119 98
f 98 119 120
v 0.012000008 -0.192 0.047999992
v 0.012000008 -0.192 0.025600014
v 0.012000008 -0.188 0.025600014
v 0.012000008 -0.188 0.047999992
v 0.012000008 -0.188 0.047999992
v 0.012000008 -0.188 0.025600014
v 0.0079999924 -0.188 0.025600014
v 0.0079999924 -0.188 0.047999992
v 0.0079999924 -0.188 0.047999992
v 0.0079999924 -0.188 0.025600014
v 0.0079999924 -0.192 0.025600014
v 0.0079999924 -0.192 0.047999992
v 0.0079999924 -0.192 0.047999992
v 0.0079999924 -0.192 0.025600014
v 0.012000008 -0.192 0.025600014
v 0.012000008 -0.192 0.047999992
v 0.012000008 -0.188 0.025600014
v 0.012000008 -0.192 0.025600014
v 0.0079999924 -0.192 0.025600014
v 0.0079999924 -0.188 0.025600014
v 0.012000008 -0.192 0.047999992
v 0.012000008 -0.188 0.047999992
v 0.0079999924 -0.188 0.047999992
v 0.0079999924 -0.192 0.047999992
f 123 124 126
f 126 124 125
f 127 128 130
f 130 128 129
f 131 132 134
f 134 132 133
f 135 136 138
f 138 136 137
f 140 141 139
f 139 141 142
f 144 145 143
f 143 145 146
v 0.012000008 -0.042000004 0.023600006
v 0.012000008 -0.041 0.02386795
v 0.012000008 -0.040267941 0.024599991
v 0.012000008 -0.039999996 0.025600014
v 0.012000008 -0.040267941 0.026599998
v 0.012000008 -0.041 0.027332039
v 0.012000008 -0.042000004 0.027599983
v 0.012000008 -0.043000008 0.027332039
v 0.012000008 -0.043732048 0.026599998
v 0.012000008 -0.043999992 0.025600014
v 0.012000008 -0.043732048 0.024599991
v 0.012000008 -0.043000008 0.02386795
v -0.0070000076 -0.042000004 0.023600006
v -0.0070000076 -0.043000008 0.02386795
v -0.0070000076 -0.043732048 0.024599991
v -0.0070000076 -0.043999992 0.025600014
v -0.0070000076 -0.043732048 0.026599998
v -0.0070000076 -0.043000008 0.027332039
v -0.0070000076 -0.042000004 0.027599983
v -0.0070000076 -0.041 0.027332039
v -0.0070000076 -0.040267941 0.026599998
v -0.0070000076 -0.039999996 0.025600014
v -0.0070000076 -0.040267941 0.024599991
v -0.0070000076 -0.041 0.02386795
v -0.0070000076 -0.042000004 0.023600006
v -0.0070000076 -0.041 0.02386795
v -0.0070000076 -0.040267941 0.024599991
v -0.0070000076 -0.039999996 0.025600014
v -0.0070000076 -0.040267941 0.026599998
v -0.0070000076 -0.041 0.027332039
v -0.0070000076 -0.042000004 0.027599983
v -0.0070000076 -0.043000008 0.027332039
v -0.0070000076 -0.043732048 0.026599998
v -0.0070000076 -0.043999992 0.025600014
v -0.0070000076 -0.043732048 0.024599991
v -0.0070000076 -0.043000008 0.02386795
v 0.012000008 -0.042000004 0.023600006
v 0.012000008 -0.043000008 0.02386795
v 0.012000008 -0.043732048 0.024599991
v 0.012000008 -0.043999992 0.025600014
v 0.012000008 -0.043732048 0.026599998
v 0.012000008 -0.043000008 0.027332039
v 0.012000008 -0.042000004 0.027599983
v 0.012000008 -0.041 0.027332039
v 0.012000008 -0.040267941 0.026599998
v 0.012000008 -0.039999996 0.025600014
v 0.012000008 -0.040267941 0.024599991
v 0.012000008 -0.041 0.02386795
v -0.0070000076 -0.042000004 0.027599983
v 0.012000008 -0.042000004 0.027599983
f 148 152 147
f 147 152 153
f 147 153 158
f 158 153 154
f 158 154 157
f 157 154 155
f 157 155 156
f 152 148 151
f 151 148 149
f 151 149 150
f 160 164 159
f 159 164 165
f 159 165 170
f 170 165 166
f 170 166 169
f 169 166 167
f 169 167 168
f 164 160 163
f 163 160 161
f 163 161 162
f 172 194 171
f 171 194 183
f 171 183 182
f 182 183 184
f 182 184 181
f 181 184 185
f 181 185 180
f 180 185 186
f 180 186 179
f 179 186 187
f 179 187 178
f 178 187 188
f 178 188 177
f 177 188 196
f 195 189 176
f 176 189 190
f 176 190 175
f 175 190 191
f 175 191 174
f 174 191 192
f 174 192 173
f 173 192 193
f 173 193 172
f 172 193 194
v 0.012000008 -0.043999992 0.047999992
v 0.012000008 -0.043999992 0.025600014
v 0.012000008 -0.039999996 0.025600014
v 0.012000008 -0.039999996 0.047999992
v 0.012000008 -0.039999996 0.047999992
v 0.012000008 -0.039999996 0.025600014
v 0.0079999924 -0.039999996 0.025600014
v 0.0079999924 -0.039999996 0.047999992
v 0.0079999924 -0.039999996 0.047999992
v 0.0079999924 -0.039999996 0.025600014
v 0.0079999924 -0.043999992 0.025600014
v 0.0079999924 -0.043999992 0.047999992
v 0.0079999924 -0.043999992 0.047999992
v 0.0079999924 -0.043999992 0.025600014
v 0.012000008 -0.043999992 0.025600014
v 0.012000008 -0.043999992 0.047999992
v 0.012000008 -0.039999996 0.025600014
v 0.012000008 -0.043999992 0.025600014
v 0.0079999924 -0.043999992 0.025600014
v 0.0079999924 -0.039999996 0.025600014
v 0.012000008 -0.043999992 0.047999992
v 0.012000008 -0.039999996 0.047999992
v 0.0079999924 -0.039999996 0.047999992
v 0.0079999924 -0.043999992 0.047999992
f 197 198 200
f 200 198 199
f 201 202 204
f 204 202 203
f 205 206 208
f 208 206 207
f 209 210 212
f 212 210 211
f 214 215 213
f 213 215 216
f 218 219 217
f 217 219 220
v 0.0060000038 -0.043999992 0.07
v 0.0060000038 -0.043999992 0.06
v 0.0060000038 0.0019999924 0.06
v 0.0060000038 0.0019999924 0.07
v 0.0060000038 0.0019999924 0.07
v 0.0060000038 0.0019999924 0.06
v -0.0060000038 0.0019999924 0.06
v -0.0060000038 0.0019999924 0.07
v -0.0060000038 0.0019999924 0.07
v -0.0060000038 0.0019999924 0.06
v -0.0060000038 -0.043999992 0.06
v -0.0060000038 -0.043999992 0.07
v -0.0060000038 -0.043999992 0.07
v -0.0060000038 -0.043999992 0.06
v 0.0060000038 -0.043999992 0.06
v 0.0060000038 -0.043999992 0.07
v 0.0060000038 0.0019999924 0.06
v 0.0060000038 -0.043999992 0.06
v -0.0060000038 -0.043999992 0.06
v -0.0060000038 0.0019999924 0.06
v 0.0060000038 -0.043999992 0.07
v 0.0060000038 0.0019999924 0.07
v -0.0060000038 0.0019999924 0.07
v -0.0060000038 -0.043999992 0.07
f 221 222 224
f 224 222 223
f 225 226 228
f 228 226 227
f 229 230 232
f 232 230 231
f 233 234 236
f 236 234 235
f 238 239 237
f 237 239 240
f 242 243 241
f 241 243 244
