v 0.066140153 -0.021533696 0.064756295
v 0.064540153 -0.021533696 0.064756295
v 0.064540153 -0.021485425 0.06426621
v 0.066140153 -0.021485425 0.06426621
v 0.064540153 0.016740388 0.092756301
v 0.064540153 0.017365388 0.093838833
v 0.064540153 0.01861539 0.093838833
v 0.064540153 0.01924039 0.092756301
v 0.064540153 0.01861539 0.091673768
v 0.064540153 0.017365388 0.091673768
v 0.066140153 0.016740388 0.092756301
v 0.066140153 0.017365388 0.091673768
v 0.066140153 0.01861539 0.091673768
v 0.066140153 0.01924039 0.092756301
v 0.066140153 0.01861539 0.093838833
v 0.066140153 0.017365388 0.093838833
v 0.064540153 0.016740388 0.092756301
v 0.066140153 0.016740388 0.092756301
v 0.064540153 0.013666889 0.093676301
v 0.064540153 0.013974032 0.094099045
v 0.064540153 0.014470998 0.093937572
v 0.064540153 0.014470998 0.09341503
v 0.064540153 0.013974032 0.093253556
v 0.066140153 0.013666889 0.093676301
v 0.066140153 0.013974032 0.093253556
v 0.066140153 0.014470998 0.09341503
v 0.066140153 0.014470998 0.093937572
v 0.066140153 0.013974032 0.094099045
v 0.064540153 0.013666889 0.093676301
v 0.066140153 0.013666889 0.093676301
v 0.064540153 0.014933883 0.080666297
v 0.064540153 0.015241026 0.081089042
v 0.064540153 0.015737993 0.080927567
v 0.064540153 0.015737993 0.080405026
v 0.064540153 0.015241026 0.080243552
v 0.066140153 0.014933883 0.080666297
v 0.066140153 0.015241026 0.080243552
v 0.066140153 0.015737993 0.080405026
v 0.066140153 0.015737993 0.080927567
v 0.066140153 0.015241026 0.081089042
v 0.064540153 0.014933883 0.080666297
v 0.066140153 0.014933883 0.080666297
v 0.064540153 0.014933883 0.083206297
v 0.064540153 0.015241026 0.083629041
v 0.064540153 0.015737993 0.083467568
v 0.064540153 0.015737993 0.082945026
v 0.064540153 0.015241026 0.082783552
v 0.066140153 0.014933883 0.083206297
v 0.066140153 0.015241026 0.082783552
v 0.066140153 0.015737993 0.082945026
v 0.066140153 0.015737993 0.083467568
v 0.066140153 0.015241026 0.083629041
v 0.064540153 0.014933883 0.083206297
v 0.066140153 0.014933883 0.083206297
v 0.064540153 0.011126889 0.093676301
v 0.064540153 0.011434032 0.094099045
v 0.064540153 0.011930997 0.093937572
v 0.064540153 0.011930997 0.09341503
v 0.064540153 0.011434032 0.093253556
v 0.066140153 0.011126889 0.093676301
v 0.066140153 0.011434032 0.093253556
v 0.066140153 0.011930997 0.09341503
v 0.066140153 0.011930997 0.093937572
v 0.066140153 0.011434032 0.094099045
v 0.064540153 0.011126889 0.093676301
v 0.066140153 0.011126889 0.093676301
v 0.064540153 0.0085868899 0.093676301
v 0.064540153 0.0088940303 0.094099045
v 0.064540153 0.0093909971 0.093937572
v 0.064540153 0.0093909971 0.09341503
v 0.064540153 0.0088940303 0.093253556
v 0.066140153 0.0085868899 0.093676301
v 0.066140153 0.0088940303 0.093253556
v 0.066140153 0.0093909971 0.09341503
v 0.066140153 0.0093909971 0.093937572
v 0.066140153 0.0088940303 0.094099045
v 0.064540153 0.0085868899 0.093676301
v 0.066140153 0.0085868899 0.093676301
v 0.064540153 0.012393884 0.080666297
v 0.064540153 0.012701027 0.081089042
v 0.064540153 0.013197993 0.080927567
v 0.064540153 0.013197993 0.080405026
v 0.064540153 0.012701027 0.080243552
v 0.066140153 0.012393884 0.080666297
v 0.066140153 0.012701027 0.080243552
v 0.066140153 0.013197993 0.080405026
v 0.066140153 0.013197993 0.080927567
v 0.066140153 0.012701027 0.081089042
v 0.064540153 0.012393884 0.080666297
v 0.066140153 0.012393884 0.080666297
v 0.064540153 0.014653401 0.068813783
v 0.066140153 0.014653401 0.068813783
v 0.066140153 0.014653401 0.067613785
v 0.064540153 0.014653401 0.067613785
v 0.064540153 0.012393884 0.083206297
v 0.064540153 0.012701027 0.083629041
v 0.064540153 0.013197993 0.083467568
v 0.064540153 0.013197993 0.082945026
v 0.064540153 0.012701027 0.082783552
v 0.066140153 0.012393884 0.083206297
v 0.066140153 0.012701027 0.082783552
v 0.066140153 0.013197993 0.082945026
v 0.066140153 0.013197993 0.083467568
v 0.066140153 0.012701027 0.083629041
v 0.064540153 0.012393884 0.083206297
v 0.066140153 0.012393884 0.083206297
v 0.064540153 0.014653401 0.067613785
v 0.066140153 0.014653401 0.067613785
v 0.066140153 0.014778399 0.06739728
v 0.066140153 0.0150284 0.06739728
v 0.066140153 0.0151534 0.067613785
v 0.064540153 0.0151534 0.067613785
v 0.064540153 0.0150284 0.06739728
v 0.064540153 0.014778399 0.06739728
v 0.064540153 0.0151534 0.068813783
v 0.066140153 0.0151534 0.068813783
v 0.066140153 0.0150284 0.069030289
v 0.066140153 0.014778399 0.069030289
v 0.066140153 0.014653401 0.068813783
v 0.064540153 0.014653401 0.068813783
v 0.064540153 0.014778399 0.069030289
v 0.064540153 0.0150284 0.069030289
v 0.064540153 0.014933883 0.078126296
v 0.064540153 0.015241026 0.078549041
v 0.064540153 0.015737993 0.078387567
v 0.064540153 0.015737993 0.077865027
v 0.064540153 0.015241026 0.077703552
v 0.066140153 0.014933883 0.078126296
v 0.066140153 0.015241026 0.077703552
v 0.066140153 0.015737993 0.077865027
v 0.066140153 0.015737993 0.078387567
v 0.066140153 0.015241026 0.078549041
v 0.064540153 0.014933883 0.078126296
v 0.066140153 0.014933883 0.078126296
v 0.064540153 0.014653401 0.064433807
v 0.066140153 0.014653401 0.064433807
v 0.066140153 0.014653401 0.063633809
v 0.064540153 0.014653401 0.063633809
v 0.064540153 0.0151534 0.067613785
v 0.066140153 0.0151534 0.067613785
v 0.066140153 0.0151534 0.068813783
v 0.064540153 0.0151534 0.068813783
v 0.064540153 0.014653401 0.063633809
v 0.066140153 0.014653401 0.063633809
v 0.066140153 0.014778399 0.063417303
v 0.066140153 0.0150284 0.063417303
v 0.066140153 0.0151534 0.063633809
v 0.064540153 0.0151534 0.063633809
v 0.064540153 0.0150284 0.063417303
v 0.064540153 0.014778399 0.063417303
v 0.064540153 0.0151534 0.064433807
v 0.066140153 0.0151534 0.064433807
v 0.066140153 0.0150284 0.064650313
v 0.066140153 0.014778399 0.064650313
v 0.066140153 0.014653401 0.064433807
v 0.064540153 0.014653401 0.064433807
v 0.064540153 0.014778399 0.064650313
v 0.064540153 0.0150284 0.064650313
v 0.064540153 0.016728388 0.064756295
v 0.064540153 0.017353388 0.065838827
v 0.064540153 0.018603388 0.065838827
v 0.064540153 0.019228388 0.064756295
v 0.064540153 0.018603388 0.063673764
v 0.064540153 0.017353388 0.063673764
v 0.066140153 0.016728388 0.064756295
v 0.066140153 0.017353388 0.063673764
v 0.066140153 0.018603388 0.063673764
v 0.066140153 0.019228388 0.064756295
v 0.066140153 0.018603388 0.065838827
v 0.066140153 0.017353388 0.065838827
v 0.064540153 0.016728388 0.064756295
v 0.066140153 0.016728388 0.064756295
v 0.064540153 0.0151534 0.063633809
v 0.066140153 0.0151534 0.063633809
v 0.066140153 0.0151534 0.064433807
v 0.064540153 0.0151534 0.064433807
v 0.064540153 0.013087391 0.067713801
v 0.064540153 0.013350655 0.068076153
v 0.064540153 0.013776626 0.067937747
v 0.064540153 0.013776626 0.067489854
v 0.064540153 0.013350655 0.067351448
v 0.066140153 0.013087391 0.067713801
v 0.066140153 0.013350655 0.067351448
v 0.066140153 0.013776626 0.067489854
v 0.066140153 0.013776626 0.067937747
v 0.066140153 0.013350655 0.068076153
v 0.064540153 0.013087391 0.067713801
v 0.066140153 0.013087391 0.067713801
v 0.064540153 0.012393884 0.078126296
v 0.064540153 0.012701027 0.078549041
v 0.064540153 0.013197993 0.078387567
v 0.064540153 0.013197993 0.077865027
v 0.064540153 0.012701027 0.077703552
v 0.066140153 0.012393884 0.078126296
v 0.066140153 0.012701027 0.077703552
v 0.066140153 0.013197993 0.077865027
v 0.066140153 0.013197993 0.078387567
v 0.066140153 0.012701027 0.078549041
v 0.064540153 0.012393884 0.078126296
v 0.066140153 0.012393884 0.078126296
v 0.064540153 0.0073073928 0.067713801
v 0.064540153 0.0075706569 0.068076153
v 0.064540153 0.0079966275 0.067937747
v 0.064540153 0.0079966275 0.067489854
v 0.064540153 0.0075706569 0.067351448
v 0.066140153 0.0073073928 0.067713801
v 0.066140153 0.0075706569 0.067351448
v 0.066140153 0.0079966275 0.067489854
v 0.066140153 0.0079966275 0.067937747
v 0.066140153 0.0075706569 0.068076153
v 0.064540153 0.0073073928 0.067713801
v 0.066140153 0.0073073928 0.067713801
v 0.064540153 -0.0020536002 0.093141301
v 0.064540153 -0.001708109 0.093616829
v 0.064540153 -0.0011490925 0.093435193
v 0.064540153 -0.0011490925 0.09284741
v 0.064540153 -0.001708109 0.092665773
v 0.066140153 -0.0020536002 0.093141301
v 0.066140153 -0.001708109 0.092665773
v 0.066140153 -0.0011490925 0.09284741
v 0.066140153 -0.0011490925 0.093435193
v 0.066140153 -0.001708109 0.093616829
v 0.064540153 -0.0020536002 0.093141301
v 0.066140153 -0.0020536002 0.093141301
v 0.064540153 -0.0089875968 0.093141301
v 0.064540153 -0.0086421057 0.093616829
v 0.064540153 -0.0080830904 0.093435193
v 0.064540153 -0.0080830904 0.09284741
v 0.064540153 -0.0086421057 0.092665773
v 0.066140153 -0.0089875968 0.093141301
v 0.066140153 -0.0086421057 0.092665773
v 0.066140153 -0.0080830904 0.09284741
v 0.066140153 -0.0080830904 0.093435193
v 0.066140153 -0.0086421057 0.093616829
v 0.064540153 -0.0089875968 0.093141301
v 0.066140153 -0.0089875968 0.093141301
v 0.064540153 0.0029463903 0.093141301
v 0.064540153 0.0032918803 0.093616829
v 0.064540153 0.0038508979 0.093435193
v 0.064540153 0.0038508979 0.09284741
v 0.064540153 0.0032918803 0.092665773
v 0.066140153 0.0029463903 0.093141301
v 0.066140153 0.0032918803 0.092665773
v 0.066140153 0.0038508979 0.09284741
v 0.066140153 0.0038508979 0.093435193
v 0.066140153 0.0032918803 0.093616829
v 0.064540153 0.0029463903 0.093141301
v 0.066140153 0.0029463903 0.093141301
v 0.064540153 0.00044639508 0.093141301
v 0.064540153 0.00079188506 0.093616829
v 0.064540153 0.0013509027 0.093435193
v 0.064540153 0.0013509027 0.09284741
v 0.064540153 0.00079188506 0.092665773
v 0.066140153 0.00044639508 0.093141301
v 0.066140153 0.00079188506 0.092665773
v 0.066140153 0.0013509027 0.09284741
v 0.066140153 0.0013509027 0.093435193
v 0.066140153 0.00079188506 0.093616829
v 0.064540153 0.00044639508 0.093141301
v 0.066140153 0.00044639508 0.093141301
v 0.066140153 0.019754707 0.094532621
v 0.064540153 0.019754707 0.094532621
v 0.064540153 0.019374034 0.094845031
v 0.066140153 0.019374034 0.094845031
v 0.066140153 0.020067116 0.094151946
v 0.064540153 0.020067116 0.094151946
v 0.064540153 0.019754707 0.094532621
v 0.066140153 0.019754707 0.094532621
v 0.064540153 -0.013987587 0.093141301
v 0.064540153 -0.013642096 0.093616829
v 0.064540153 -0.01308308 0.093435193
v 0.064540153 -0.01308308 0.09284741
v 0.064540153 -0.013642096 0.092665773
v 0.066140153 -0.013987587 0.093141301
v 0.066140153 -0.013642096 0.092665773
v 0.066140153 -0.01308308 0.09284741
v 0.066140153 -0.01308308 0.093435193
v 0.066140153 -0.013642096 0.093616829
v 0.064540153 -0.013987587 0.093141301
v 0.066140153 -0.013987587 0.093141301
v 0.066140153 0.019374034 0.094845031
v 0.064540153 0.019374034 0.094845031
v 0.064540153 0.018939726 0.095077174
v 0.066140153 0.018939726 0.095077174
v 0.066140153 0.02029926 0.093717638
v 0.064540153 0.02029926 0.093717638
v 0.064540153 0.020067116 0.094151946
v 0.066140153 0.020067116 0.094151946
v 0.064540153 -0.010912599 0.075875308
v 0.066140153 -0.010912599 0.075875308
v 0.066140153 -0.0127126 0.075875308
v 0.064540153 -0.0127126 0.075875308
v 0.064540153 -0.020271613 0.092756301
v 0.064540153 -0.019646613 0.093838833
v 0.064540153 -0.018396613 0.093838833
v 0.064540153 -0.017771613 0.092756301
v 0.064540153 -0.018396613 0.091673768
v 0.064540153 -0.019646613 0.091673768
v 0.066140153 -0.020271613 0.092756301
v 0.066140153 -0.019646613 0.091673768
v 0.066140153 -0.018396613 0.091673768
v 0.066140153 -0.017771613 0.092756301
v 0.066140153 -0.018396613 0.093838833
v 0.066140153 -0.019646613 0.093838833
v 0.064540153 -0.020271613 0.092756301
v 0.066140153 -0.020271613 0.092756301
v 0.066140153 0.018939726 0.095077174
v 0.064540153 0.018939726 0.095077174
v 0.064540153 0.018468472 0.095220125
v 0.066140153 0.018468472 0.095220125
v 0.066140153 0.020442211 0.093246387
v 0.064540153 0.020442211 0.093246387
v 0.064540153 0.02029926 0.093717638
v 0.066140153 0.02029926 0.093717638
v 0.064540153 0.006003379 0.068813783
v 0.066140153 0.006003379 0.068813783
v 0.066140153 0.006003379 0.067613785
v 0.064540153 0.006003379 0.067613785
v 0.064540153 -0.0127126 0.075875308
v 0.066140153 -0.0127126 0.075875308
v 0.066140153 -0.013145613 0.075625308
v 0.066140153 -0.013145613 0.07512531
v 0.066140153 -0.0127126 0.07487531
v 0.064540153 -0.0127126 0.07487531
v 0.064540153 -0.013145613 0.07512531
v 0.064540153 -0.013145613 0.075625308
v 0.064540153 -0.010912599 0.07487531
v 0.066140153 -0.010912599 0.07487531
v 0.066140153 -0.010479587 0.07512531
v 0.066140153 -0.010479587 0.075625308
v 0.066140153 -0.010912599 0.075875308
v 0.064540153 -0.010912599 0.075875308
v 0.064540153 -0.010479587 0.075625308
v 0.064540153 -0.010479587 0.07512531
v 0.064540153 -0.011487592 0.093141301
v 0.064540153 -0.011142101 0.093616829
v 0.064540153 -0.010583084 0.093435193
v 0.064540153 -0.010583084 0.09284741
v 0.064540153 -0.011142101 0.092665773
v 0.066140153 -0.011487592 0.093141301
v 0.066140153 -0.011142101 0.092665773
v 0.066140153 -0.010583084 0.09284741
v 0.066140153 -0.010583084 0.093435193
v 0.066140153 -0.011142101 0.093616829
v 0.064540153 -0.011487592 0.093141301
v 0.066140153 -0.011487592 0.093141301
v 0.066140153 0.018468472 0.095220125
v 0.064540153 0.018468472 0.095220125
v 0.064540153 0.017978386 0.095256301
v 0.066140153 0.017978386 0.095256301
v 0.066140153 0.020490481 0.092756301
v 0.064540153 0.020490481 0.092756301
v 0.064540153 0.020442211 0.093246387
v 0.066140153 0.020442211 0.093246387
v 0.064540153 0.006003379 0.067613785
v 0.066140153 0.006003379 0.067613785
v 0.066140153 0.0061283795 0.06739728
v 0.066140153 0.0063783781 0.06739728
v 0.066140153 0.0065033785 0.067613785
v 0.064540153 0.0065033785 0.067613785
v 0.064540153 0.0063783781 0.06739728
v 0.064540153 0.0061283795 0.06739728
v 0.064540153 0.0065033785 0.068813783
v 0.066140153 0.0065033785 0.068813783
v 0.066140153 0.0063783781 0.069030289
v 0.066140153 0.0061283795 0.069030289
v 0.066140153 0.006003379 0.068813783
v 0.064540153 0.006003379 0.068813783
v 0.064540153 0.0061283795 0.069030289
v 0.064540153 0.0063783781 0.069030289
v 0.064540153 -0.0127126 0.07487531
v 0.066140153 -0.0127126 0.07487531
v 0.066140153 -0.010912599 0.07487531
v 0.064540153 -0.010912599 0.07487531
v 0.066140153 0.017978386 0.095256301
v 0.064540153 0.017978386 0.095256301
v 0.064540153 -0.0190216 0.095268384
v 0.066140153 -0.0190216 0.095268384
v 0.066140153 0.020478388 0.064756308
v 0.064540153 0.020478388 0.064756308
v 0.064540153 0.020490481 0.092756301
v 0.066140153 0.020490481 0.092756301
v 0.064540153 0.006003379 0.064433807
v 0.066140153 0.006003379 0.064433807
v 0.066140153 0.006003379 0.063633809
v 0.064540153 0.006003379 0.063633809
v 0.064540153 0.0065033785 0.067613785
v 0.066140153 0.0065033785 0.067613785
v 0.066140153 0.0065033785 0.068813783
v 0.064540153 0.0065033785 0.068813783
v 0.066140153 -0.0190216 0.095268384
v 0.064540153 -0.0190216 0.095268384
v 0.064540153 -0.019511685 0.095220113
v 0.066140153 -0.019511685 0.095220113
v 0.066140153 0.020442211 0.064266223
v 0.064540153 0.020442211 0.064266223
v 0.064540153 0.020478388 0.064756308
v 0.066140153 0.020478388 0.064756308
v 0.064540153 0.006003379 0.063633809
v 0.066140153 0.006003379 0.063633809
v 0.066140153 0.0061283795 0.063417303
v 0.066140153 0.0063783781 0.063417303
v 0.066140153 0.0065033785 0.063633809
v 0.064540153 0.0065033785 0.063633809
v 0.064540153 0.0063783781 0.063417303
v 0.064540153 0.0061283795 0.063417303
v 0.064540153 0.0065033785 0.064433807
v 0.066140153 0.0065033785 0.064433807
v 0.066140153 0.0063783781 0.064650313
v 0.066140153 0.0061283795 0.064650313
v 0.066140153 0.006003379 0.064433807
v 0.064540153 0.006003379 0.064433807
v 0.064540153 0.0061283795 0.064650313
v 0.064540153 0.0063783781 0.064650313
v 0.064540153 0.00058250109 0.065054309
v 0.064540153 0.00088964383 0.065477053
v 0.064540153 0.0013866083 0.065315579
v 0.064540153 0.0013866083 0.064793038
v 0.064540153 0.00088964383 0.064631564
v 0.066140153 0.00058250109 0.065054309
v 0.066140153 0.00088964383 0.064631564
v 0.066140153 0.0013866083 0.064793038
v 0.066140153 0.0013866083 0.065315579
v 0.066140153 0.00088964383 0.065477053
v 0.064540153 0.00058250109 0.065054309
v 0.066140153 0.00058250109 0.065054309
v 0.066140153 -0.019511685 0.095220113
v 0.064540153 -0.019511685 0.095220113
v 0.064540153 -0.019982937 0.095077162
v 0.066140153 -0.019982937 0.095077162
v 0.066140153 0.02029926 0.063794972
v 0.064540153 0.02029926 0.063794972
v 0.064540153 0.020442211 0.064266223
v 0.066140153 0.020442211 0.064266223
v 0.064540153 0.0065033785 0.063633809
v 0.066140153 0.0065033785 0.063633809
v 0.066140153 0.0065033785 0.064433807
v 0.064540153 0.0065033785 0.064433807
v 0.066140153 -0.019982937 0.095077162
v 0.064540153 -0.019982937 0.095077162
v 0.064540153 -0.020417246 0.094845019
v 0.066140153 -0.020417246 0.094845019
v 0.066140153 0.020067116 0.063360662
v 0.064540153 0.020067116 0.063360662
v 0.064540153 0.02029926 0.063794972
v 0.066140153 0.02029926 0.063794972
v 0.064540153 -0.0075126012 0.07337531
v 0.066140153 -0.0075126012 0.07337531
v 0.066140153 -0.0075126012 0.071375309
v 0.064540153 -0.0075126012 0.071375309
v 0.064540153 -0.0075126012 0.071375309
v 0.066140153 -0.0075126012 0.071375309
v 0.066140153 -0.0072626015 0.070942298
v 0.066140153 -0.0067626019 0.070942298
v 0.066140153 -0.0065126034 0.071375309
v 0.064540153 -0.0065126034 0.071375309
v 0.064540153 -0.0067626019 0.070942298
v 0.064540153 -0.0072626015 0.070942298
v 0.064540153 -0.0029226991 0.065054309
v 0.064540153 -0.0026155575 0.065477053
v 0.064540153 -0.0021185907 0.065315579
v 0.064540153 -0.0021185907 0.064793038
v 0.064540153 -0.0026155575 0.064631564
v 0.066140153 -0.0029226991 0.065054309
v 0.066140153 -0.0026155575 0.064631564
v 0.066140153 -0.0021185907 0.064793038
v 0.066140153 -0.0021185907 0.065315579
v 0.066140153 -0.0026155575 0.065477053
v 0.064540153 -0.0029226991 0.065054309
v 0.066140153 -0.0029226991 0.065054309
v 0.066140153 -0.020417246 0.094845019
v 0.064540153 -0.020417246 0.094845019
v 0.064540153 -0.020797921 0.09453261
v 0.066140153 -0.020797921 0.09453261
v 0.066140153 0.019754707 0.062979987
v 0.064540153 0.019754707 0.062979987
v 0.064540153 0.020067116 0.063360662
v 0.066140153 0.020067116 0.063360662
v 0.064540153 -0.0065126034 0.07337531
v 0.066140153 -0.0065126034 0.07337531
v 0.066140153 -0.0067626019 0.073808323
v 0.066140153 -0.0072626015 0.073808323
v 0.066140153 -0.0075126012 0.07337531
v 0.064540153 -0.0075126012 0.07337531
v 0.064540153 -0.0072626015 0.073808323
v 0.064540153 -0.0067626019 0.073808323
v 0.066140153 -0.020797921 0.09453261
v 0.064540153 -0.020797921 0.09453261
v 0.064540153 -0.021110331 0.094151934
v 0.066140153 -0.021110331 0.094151934
v 0.066140153 0.019374034 0.062667577
v 0.064540153 0.019374034 0.062667577
v 0.064540153 0.019754707 0.062979987
v 0.066140153 0.019754707 0.062979987
v 0.064540153 -0.0065126034 0.071375309
v 0.066140153 -0.0065126034 0.071375309
v 0.066140153 -0.0065126034 0.07337531
v 0.064540153 -0.0065126034 0.07337531
v 0.066140153 -0.021110331 0.094151934
v 0.064540153 -0.021110331 0.094151934
v 0.064540153 -0.021342474 0.093717623
v 0.066140153 -0.021342474 0.093717623
v 0.066140153 0.018939726 0.062435434
v 0.064540153 0.018939726 0.062435434
v 0.064540153 0.019374034 0.062667577
v 0.066140153 0.019374034 0.062667577
v 0.064540153 -0.0128126 0.069625308
v 0.066140153 -0.0128126 0.069625308
v 0.066140153 -0.013245613 0.069375308
v 0.066140153 -0.013245613 0.068875309
v 0.066140153 -0.0128126 0.06862531
v 0.064540153 -0.0128126 0.06862531
v 0.064540153 -0.013245613 0.068875309
v 0.064540153 -0.013245613 0.069375308
v 0.066140153 -0.021342474 0.093717623
v 0.064540153 -0.021342474 0.093717623
v 0.064540153 -0.021485425 0.093246372
v 0.066140153 -0.021485425 0.093246372
v 0.066140153 0.018468472 0.062292483
v 0.064540153 0.018468472 0.062292483
v 0.064540153 0.018939726 0.062435434
v 0.066140153 0.018939726 0.062435434
v 0.064540153 -0.010812599 0.069625308
v 0.066140153 -0.010812599 0.069625308
v 0.066140153 -0.0128126 0.069625308
v 0.064540153 -0.0128126 0.069625308
v 0.066140153 0.017978386 0.062244213
v 0.064540153 0.017978386 0.062244213
v 0.064540153 0.018468472 0.062292483
v 0.066140153 0.018468472 0.062292483
v 0.064540153 -0.010812599 0.06862531
v 0.066140153 -0.010812599 0.06862531
v 0.066140153 -0.010379587 0.068875309
v 0.066140153 -0.010379587 0.069375308
v 0.066140153 -0.010812599 0.069625308
v 0.064540153 -0.010812599 0.069625308
v 0.064540153 -0.010379587 0.069375308
v 0.064540153 -0.010379587 0.068875309
v 0.066140153 -0.021485425 0.093246372
v 0.064540153 -0.021485425 0.093246372
v 0.064540153 -0.0215216 0.092756289
v 0.066140153 -0.0215216 0.092756289
v 0.066140153 -0.0190216 0.062256308
v 0.064540153 -0.0190216 0.062256308
v 0.064540153 0.017978386 0.062244213
v 0.066140153 0.017978386 0.062244213
v 0.064540153 -0.0128126 0.06862531
v 0.066140153 -0.0128126 0.06862531
v 0.066140153 -0.010812599 0.06862531
v 0.064540153 -0.010812599 0.06862531
v 0.066140153 -0.019511685 0.06229247
v 0.064540153 -0.019511685 0.06229247
v 0.064540153 -0.0190216 0.062256308
v 0.066140153 -0.0190216 0.062256308
v 0.064540153 -0.020271613 0.064756295
v 0.064540153 -0.019646613 0.065838827
v 0.064540153 -0.018396613 0.065838827
v 0.064540153 -0.017771613 0.064756295
v 0.064540153 -0.018396613 0.063673764
v 0.064540153 -0.019646613 0.063673764
v 0.066140153 -0.020271613 0.064756295
v 0.066140153 -0.019646613 0.063673764
v 0.066140153 -0.018396613 0.063673764
v 0.066140153 -0.017771613 0.064756295
v 0.066140153 -0.018396613 0.065838827
v 0.066140153 -0.019646613 0.065838827
v 0.064540153 -0.020271613 0.064756295
v 0.066140153 -0.020271613 0.064756295
v 0.066140153 -0.021533696 0.064756295
v 0.066140153 -0.021485425 0.06426621
v 0.066140153 -0.021342474 0.063794959
v 0.066140153 -0.021110331 0.063360649
v 0.066140153 -0.020797921 0.062979974
v 0.066140153 -0.020417246 0.062667565
v 0.066140153 -0.019982937 0.062435421
v 0.066140153 -0.019511685 0.06229247
v 0.066140153 -0.0190216 0.062256308
v 0.066140153 0.017978386 0.062244213
v 0.066140153 0.018468472 0.062292483
v 0.066140153 0.018939726 0.062435434
v 0.066140153 0.019374034 0.062667577
v 0.066140153 0.019754707 0.062979987
v 0.066140153 0.020067116 0.063360662
v 0.066140153 0.02029926 0.063794972
v 0.066140153 0.020442211 0.064266223
v 0.066140153 0.020478388 0.064756308
v 0.066140153 0.020490481 0.092756301
v 0.066140153 0.020442211 0.093246387
v 0.066140153 0.02029926 0.093717638
v 0.066140153 0.020067116 0.094151946
v 0.066140153 0.019754707 0.094532621
v 0.066140153 0.019374034 0.094845031
v 0.066140153 0.018939726 0.095077174
v 0.066140153 0.018468472 0.095220125
v 0.066140153 0.017978386 0.095256301
v 0.066140153 -0.0190216 0.095268384
v 0.066140153 -0.019511685 0.095220113
v 0.066140153 -0.019982937 0.095077162
v 0.066140153 -0.020417246 0.094845019
v 0.066140153 -0.020797921 0.09453261
v 0.066140153 -0.021110331 0.094151934
v 0.066140153 -0.021342474 0.093717623
v 0.066140153 -0.021485425 0.093246372
v 0.066140153 -0.0215216 0.092756289
v 0.066140153 -0.020271613 0.064756295
v 0.066140153 -0.019646613 0.065838827
v 0.066140153 -0.018396613 0.065838827
v 0.066140153 -0.017771613 0.064756295
v 0.066140153 -0.018396613 0.063673764
v 0.066140153 -0.019646613 0.063673764
v 0.066140153 -0.010812599 0.06862531
v 0.066140153 -0.0128126 0.06862531
v 0.066140153 -0.013245613 0.068875309
v 0.066140153 -0.013245613 0.069375308
v 0.066140153 -0.0128126 0.069625308
v 0.066140153 -0.010812599 0.069625308
v 0.066140153 -0.010379587 0.069375308
v 0.066140153 -0.010379587 0.068875309
v 0.066140153 -0.0065126034 0.07337531
v 0.066140153 -0.0065126034 0.071375309
v 0.066140153 -0.0067626019 0.070942298
v 0.066140153 -0.0072626015 0.070942298
v 0.066140153 -0.0075126012 0.071375309
v 0.066140153 -0.0075126012 0.07337531
v 0.066140153 -0.0072626015 0.073808323
v 0.066140153 -0.0067626019 0.073808323
v 0.066140153 -0.0029226991 0.065054309
v 0.066140153 -0.0026155575 0.065477053
v 0.066140153 -0.0021185907 0.065315579
v 0.066140153 -0.0021185907 0.064793038
v 0.066140153 -0.0026155575 0.064631564
v 0.066140153 0.0065033785 0.064433807
v 0.066140153 0.0065033785 0.063633809
v 0.066140153 0.0063783781 0.063417303
v 0.066140153 0.0061283795 0.063417303
v 0.066140153 0.006003379 0.063633809
v 0.066140153 0.006003379 0.064433807
v 0.066140153 0.0061283795 0.064650313
v 0.066140153 0.0063783781 0.064650313
v 0.066140153 0.00058250109 0.065054309
v 0.066140153 0.00088964383 0.065477053
v 0.066140153 0.0013866083 0.065315579
v 0.066140153 0.0013866083 0.064793038
v 0.066140153 0.00088964383 0.064631564
v 0.066140153 0.0065033785 0.068813783
v 0.066140153 0.0065033785 0.067613785
v 0.066140153 0.0063783781 0.06739728
v 0.066140153 0.0061283795 0.06739728
v 0.066140153 0.006003379 0.067613785
v 0.066140153 0.006003379 0.068813783
v 0.066140153 0.0061283795 0.069030289
v 0.066140153 0.0063783781 0.069030289
v 0.066140153 -0.010912599 0.07487531
v 0.066140153 -0.0127126 0.07487531
v 0.066140153 -0.013145613 0.07512531
v 0.066140153 -0.013145613 0.075625308
v 0.066140153 -0.0127126 0.075875308
v 0.066140153 -0.010912599 0.075875308
v 0.066140153 -0.010479587 0.075625308
v 0.066140153 -0.010479587 0.07512531
v 0.066140153 -0.011487592 0.093141301
v 0.066140153 -0.011142101 0.093616829
v 0.066140153 -0.010583084 0.093435193
v 0.066140153 -0.010583084 0.09284741
v 0.066140153 -0.011142101 0.092665773
v 0.066140153 -0.020271613 0.092756301
v 0.066140153 -0.019646613 0.093838833
v 0.066140153 -0.018396613 0.093838833
v 0.066140153 -0.017771613 0.092756301
v 0.066140153 -0.018396613 0.091673768
v 0.066140153 -0.019646613 0.091673768
v 0.066140153 -0.013987587 0.093141301
v 0.066140153 -0.013642096 0.093616829
v 0.066140153 -0.01308308 0.093435193
v 0.066140153 -0.01308308 0.09284741
v 0.066140153 -0.013642096 0.092665773
v 0.066140153 0.00044639508 0.093141301
v 0.066140153 0.00079188506 0.093616829
v 0.066140153 0.0013509027 0.093435193
v 0.066140153 0.0013509027 0.09284741
v 0.066140153 0.00079188506 0.092665773
v 0.066140153 0.0029463903 0.093141301
v 0.066140153 0.0032918803 0.093616829
v 0.066140153 0.0038508979 0.093435193
v 0.066140153 0.0038508979 0.09284741
v 0.066140153 0.0032918803 0.092665773
v 0.066140153 -0.0089875968 0.093141301
v 0.066140153 -0.0086421057 0.093616829
v 0.066140153 -0.0080830904 0.093435193
v 0.066140153 -0.0080830904 0.09284741
v 0.066140153 -0.0086421057 0.092665773
v 0.066140153 -0.0020536002 0.093141301
v 0.066140153 -0.001708109 0.093616829
v 0.066140153 -0.0011490925 0.093435193
v 0.066140153 -0.0011490925 0.09284741
v 0.066140153 -0.001708109 0.092665773
v 0.066140153 0.0073073928 0.067713801
v 0.066140153 0.0075706569 0.068076153
v 0.066140153 0.0079966275 0.067937747
v 0.066140153 0.0079966275 0.067489854
v 0.066140153 0.0075706569 0.067351448
v 0.066140153 0.012393884 0.078126296
v 0.066140153 0.012701027 0.078549041
v 0.066140153 0.013197993 0.078387567
v 0.066140153 0.013197993 0.077865027
v 0.066140153 0.012701027 0.077703552
v 0.066140153 0.013087391 0.067713801
v 0.066140153 0.013350655 0.068076153
v 0.066140153 0.013776626 0.067937747
v 0.066140153 0.013776626 0.067489854
v 0.066140153 0.013350655 0.067351448
v 0.066140153 0.0151534 0.064433807
v 0.066140153 0.0151534 0.063633809
v 0.066140153 0.0150284 0.063417303
v 0.066140153 0.014778399 0.063417303
v 0.066140153 0.014653401 0.063633809
v 0.066140153 0.014653401 0.064433807
v 0.066140153 0.014778399 0.064650313
v 0.066140153 0.0150284 0.064650313
v 0.066140153 0.016728388 0.064756295
v 0.066140153 0.017353388 0.065838827
v 0.066140153 0.018603388 0.065838827
v 0.066140153 0.019228388 0.064756295
v 0.066140153 0.018603388 0.063673764
v 0.066140153 0.017353388 0.063673764
v 0.066140153 0.0151534 0.068813783
v 0.066140153 0.0151534 0.067613785
v 0.066140153 0.0150284 0.06739728
v 0.066140153 0.014778399 0.06739728
v 0.066140153 0.014653401 0.067613785
v 0.066140153 0.014653401 0.068813783
v 0.066140153 0.014778399 0.069030289
v 0.066140153 0.0150284 0.069030289
v 0.066140153 0.014933883 0.078126296
v 0.066140153 0.015241026 0.078549041
v 0.066140153 0.015737993 0.078387567
v 0.066140153 0.015737993 0.077865027
v 0.066140153 0.015241026 0.077703552
v 0.066140153 0.012393884 0.083206297
v 0.066140153 0.012701027 0.083629041
v 0.066140153 0.013197993 0.083467568
v 0.066140153 0.013197993 0.082945026
v 0.066140153 0.012701027 0.082783552
v 0.066140153 0.012393884 0.080666297
v 0.066140153 0.012701027 0.081089042
v 0.066140153 0.013197993 0.080927567
v 0.066140153 0.013197993 0.080405026
v 0.066140153 0.012701027 0.080243552
v 0.066140153 0.0085868899 0.093676301
v 0.066140153 0.0088940303 0.094099045
v 0.066140153 0.0093909971 0.093937572
v 0.066140153 0.0093909971 0.09341503
v 0.066140153 0.0088940303 0.093253556
v 0.066140153 0.011126889 0.093676301
v 0.066140153 0.011434032 0.094099045
v 0.066140153 0.011930997 0.093937572
v 0.066140153 0.011930997 0.09341503
v 0.066140153 0.011434032 0.093253556
v 0.066140153 0.014933883 0.083206297
v 0.066140153 0.015241026 0.083629041
v 0.066140153 0.015737993 0.083467568
v 0.066140153 0.015737993 0.082945026
v 0.066140153 0.015241026 0.082783552
v 0.066140153 0.014933883 0.080666297
v 0.066140153 0.015241026 0.081089042
v 0.066140153 0.015737993 0.080927567
v 0.066140153 0.015737993 0.080405026
v 0.066140153 0.015241026 0.080243552
v 0.066140153 0.013666889 0.093676301
v 0.066140153 0.013974032 0.094099045
v 0.066140153 0.014470998 0.093937572
v 0.066140153 0.014470998 0.09341503
v 0.066140153 0.013974032 0.093253556
v 0.066140153 0.016740388 0.092756301
v 0.066140153 0.017365388 0.093838833
v 0.066140153 0.01861539 0.093838833
v 0.066140153 0.01924039 0.092756301
v 0.066140153 0.01861539 0.091673768
v 0.066140153 0.017365388 0.091673768
v 0.064540153 -0.021485425 0.06426621
v 0.064540153 -0.021533696 0.064756295
v 0.064540153 -0.0215216 0.092756289
v 0.064540153 -0.021485425 0.093246372
v 0.064540153 -0.021342474 0.093717623
v 0.064540153 -0.021110331 0.094151934
v 0.064540153 -0.020797921 0.09453261
v 0.064540153 -0.020417246 0.094845019
v 0.064540153 -0.019982937 0.095077162
v 0.064540153 -0.019511685 0.095220113
v 0.064540153 -0.0190216 0.095268384
v 0.064540153 0.017978386 0.095256301
v 0.064540153 0.018468472 0.095220125
v 0.064540153 0.018939726 0.095077174
v 0.064540153 0.019374034 0.094845031
v 0.064540153 0.019754707 0.094532621
v 0.064540153 0.020067116 0.094151946
v 0.064540153 0.02029926 0.093717638
v 0.064540153 0.020442211 0.093246387
v 0.064540153 0.020490481 0.092756301
v 0.064540153 0.020478388 0.064756308
v 0.064540153 0.020442211 0.064266223
v 0.064540153 0.02029926 0.063794972
v 0.064540153 0.020067116 0.063360662
v 0.064540153 0.019754707 0.062979987
v 0.064540153 0.019374034 0.062667577
v 0.064540153 0.018939726 0.062435434
v 0.064540153 0.018468472 0.062292483
v 0.064540153 0.017978386 0.062244213
v 0.064540153 -0.0190216 0.062256308
v 0.064540153 -0.019511685 0.06229247
v 0.064540153 -0.019982937 0.062435421
v 0.064540153 -0.020417246 0.062667565
v 0.064540153 -0.020797921 0.062979974
v 0.064540153 -0.021110331 0.063360649
v 0.064540153 -0.021342474 0.063794959
v 0.064540153 -0.020271613 0.064756295
v 0.064540153 -0.019646613 0.063673764
v 0.064540153 -0.018396613 0.063673764
v 0.064540153 -0.017771613 0.064756295
v 0.064540153 -0.018396613 0.065838827
v 0.064540153 -0.019646613 0.065838827
v 0.064540153 -0.0128126 0.06862531
v 0.064540153 -0.010812599 0.06862531
v 0.064540153 -0.010379587 0.068875309
v 0.064540153 -0.010379587 0.069375308
v 0.064540153 -0.010812599 0.069625308
v 0.064540153 -0.0128126 0.069625308
v 0.064540153 -0.013245613 0.069375308
v 0.064540153 -0.013245613 0.068875309
v 0.064540153 -0.0065126034 0.071375309
v 0.064540153 -0.0065126034 0.07337531
v 0.064540153 -0.0067626019 0.073808323
v 0.064540153 -0.0072626015 0.073808323
v 0.064540153 -0.0075126012 0.07337531
v 0.064540153 -0.0075126012 0.071375309
v 0.064540153 -0.0072626015 0.070942298
v 0.064540153 -0.0067626019 0.070942298
v 0.064540153 -0.0029226991 0.065054309
v 0.064540153 -0.0026155575 0.064631564
v 0.064540153 -0.0021185907 0.064793038
v 0.064540153 -0.0021185907 0.065315579
v 0.064540153 -0.0026155575 0.065477053
v 0.064540153 0.0065033785 0.063633809
v 0.064540153 0.0065033785 0.064433807
v 0.064540153 0.0063783781 0.064650313
v 0.064540153 0.0061283795 0.064650313
v 0.064540153 0.006003379 0.064433807
v 0.064540153 0.006003379 0.063633809
v 0.064540153 0.0061283795 0.063417303
v 0.064540153 0.0063783781 0.063417303
v 0.064540153 0.00058250109 0.065054309
v 0.064540153 0.00088964383 0.064631564
v 0.064540153 0.0013866083 0.064793038
v 0.064540153 0.0013866083 0.065315579
v 0.064540153 0.00088964383 0.065477053
v 0.064540153 0.0065033785 0.067613785
v 0.064540153 0.0065033785 0.068813783
v 0.064540153 0.0063783781 0.069030289
v 0.064540153 0.0061283795 0.069030289
v 0.064540153 0.006003379 0.068813783
v 0.064540153 0.006003379 0.067613785
v 0.064540153 0.0061283795 0.06739728
v 0.064540153 0.0063783781 0.06739728
v 0.064540153 -0.0127126 0.07487531
v 0.064540153 -0.010912599 0.07487531
v 0.064540153 -0.010479587 0.07512531
v 0.064540153 -0.010479587 0.075625308
v 0.064540153 -0.010912599 0.075875308
v 0.064540153 -0.0127126 0.075875308
v 0.064540153 -0.013145613 0.075625308
v 0.064540153 -0.013145613 0.07512531
v 0.064540153 -0.011487592 0.093141301
v 0.064540153 -0.011142101 0.092665773
v 0.064540153 -0.010583084 0.09284741
v 0.064540153 -0.010583084 0.093435193
v 0.064540153 -0.011142101 0.093616829
v 0.064540153 -0.020271613 0.092756301
v 0.064540153 -0.019646613 0.091673768
v 0.064540153 -0.018396613 0.091673768
v 0.064540153 -0.017771613 0.092756301
v 0.064540153 -0.018396613 0.093838833
v 0.064540153 -0.019646613 0.093838833
v 0.064540153 -0.013987587 0.093141301
v 0.064540153 -0.013642096 0.092665773
v 0.064540153 -0.01308308 0.09284741
v 0.064540153 -0.01308308 0.093435193
v 0.064540153 -0.013642096 0.093616829
v 0.064540153 0.00044639508 0.093141301
v 0.064540153 0.00079188506 0.092665773
v 0.064540153 0.0013509027 0.09284741
v 0.064540153 0.0013509027 0.093435193
v 0.064540153 0.00079188506 0.093616829
v 0.064540153 0.0029463903 0.093141301
v 0.064540153 0.0032918803 0.092665773
v 0.064540153 0.0038508979 0.09284741
v 0.064540153 0.0038508979 0.093435193
v 0.064540153 0.0032918803 0.093616829
v 0.064540153 -0.0089875968 0.093141301
v 0.064540153 -0.0086421057 0.092665773
v 0.064540153 -0.0080830904 0.09284741
v 0.064540153 -0.0080830904 0.093435193
v 0.064540153 -0.0086421057 0.093616829
v 0.064540153 -0.0020536002 0.093141301
v 0.064540153 -0.001708109 0.092665773
v 0.064540153 -0.0011490925 0.09284741
v 0.064540153 -0.0011490925 0.093435193
v 0.064540153 -0.001708109 0.093616829
v 0.064540153 0.0073073928 0.067713801
v 0.064540153 0.0075706569 0.067351448
v 0.064540153 0.0079966275 0.067489854
v 0.064540153 0.0079966275 0.067937747
v 0.064540153 0.0075706569 0.068076153
v 0.064540153 0.012393884 0.078126296
v 0.064540153 0.012701027 0.077703552
v 0.064540153 0.013197993 0.077865027
v 0.064540153 0.013197993 0.078387567
v 0.064540153 0.012701027 0.078549041
v 0.064540153 0.013087391 0.067713801
v 0.064540153 0.013350655 0.067351448
v 0.064540153 0.013776626 0.067489854
v 0.064540153 0.013776626 0.067937747
v 0.064540153 0.013350655 0.068076153
v 0.064540153 0.0151534 0.063633809
v 0.064540153 0.0151534 0.064433807
v 0.064540153 0.0150284 0.064650313
v 0.064540153 0.014778399 0.064650313
v 0.064540153 0.014653401 0.064433807
v 0.064540153 0.014653401 0.063633809
v 0.064540153 0.014778399 0.063417303
v 0.064540153 0.0150284 0.063417303
v 0.064540153 0.016728388 0.064756295
v 0.064540153 0.017353388 0.063673764
v 0.064540153 0.018603388 0.063673764
v 0.064540153 0.019228388 0.064756295
v 0.064540153 0.018603388 0.065838827
v 0.064540153 0.017353388 0.065838827
v 0.064540153 0.0151534 0.067613785
v 0.064540153 0.0151534 0.068813783
v 0.064540153 0.0150284 0.069030289
v 0.064540153 0.014778399 0.069030289
v 0.064540153 0.014653401 0.068813783
v 0.064540153 0.014653401 0.067613785
v 0.064540153 0.014778399 0.06739728
v 0.064540153 0.0150284 0.06739728
v 0.064540153 0.014933883 0.078126296
v 0.064540153 0.015241026 0.077703552
v 0.064540153 0.015737993 0.077865027
v 0.064540153 0.015737993 0.078387567
v 0.064540153 0.015241026 0.078549041
v 0.064540153 0.012393884 0.083206297
v 0.064540153 0.012701027 0.082783552
v 0.064540153 0.013197993 0.082945026
v 0.064540153 0.013197993 0.083467568
v 0.064540153 0.012701027 0.083629041
v 0.064540153 0.012393884 0.080666297
v 0.064540153 0.012701027 0.080243552
v 0.064540153 0.013197993 0.080405026
v 0.064540153 0.013197993 0.080927567
v 0.064540153 0.012701027 0.081089042
v 0.064540153 0.0085868899 0.093676301
v 0.064540153 0.0088940303 0.093253556
v 0.064540153 0.0093909971 0.09341503
v 0.064540153 0.0093909971 0.093937572
v 0.064540153 0.0088940303 0.094099045
v 0.064540153 0.011126889 0.093676301
v 0.064540153 0.011434032 0.093253556
v 0.064540153 0.011930997 0.09341503
v 0.064540153 0.011930997 0.093937572
v 0.064540153 0.011434032 0.094099045
v 0.064540153 0.014933883 0.083206297
v 0.064540153 0.015241026 0.082783552
v 0.064540153 0.015737993 0.082945026
v 0.064540153 0.015737993 0.083467568
v 0.064540153 0.015241026 0.083629041
v 0.064540153 0.014933883 0.080666297
v 0.064540153 0.015241026 0.080243552
v 0.064540153 0.015737993 0.080405026
v 0.064540153 0.015737993 0.080927567
v 0.064540153 0.015241026 0.081089042
v 0.064540153 0.013666889 0.093676301
v 0.064540153 0.013974032 0.093253556
v 0.064540153 0.014470998 0.09341503
v 0.064540153 0.014470998 0.093937572
v 0.064540153 0.013974032 0.094099045
v 0.064540153 0.016740388 0.092756301
v 0.064540153 0.017365388 0.091673768
v 0.064540153 0.01861539 0.091673768
v 0.064540153 0.01924039 0.092756301
v 0.064540153 0.01861539 0.093838833
v 0.064540153 0.017365388 0.093838833
v 0.066140153 -0.019982937 0.062435421
v 0.064540153 -0.019982937 0.062435421
v 0.064540153 -0.019511685 0.06229247
v 0.066140153 -0.019511685 0.06229247
v 0.066140153 -0.0215216 0.092756289
v 0.064540153 -0.0215216 0.092756289
v 0.064540153 -0.021533696 0.064756295
v 0.066140153 -0.021533696 0.064756295
v 0.066140153 -0.020417246 0.062667565
v 0.064540153 -0.020417246 0.062667565
v 0.064540153 -0.019982937 0.062435421
v 0.066140153 -0.019982937 0.062435421
v 0.066140153 -0.020797921 0.062979974
v 0.064540153 -0.020797921 0.062979974
v 0.064540153 -0.020417246 0.062667565
v 0.066140153 -0.020417246 0.062667565
v 0.066140153 -0.021110331 0.063360649
v 0.064540153 -0.021110331 0.063360649
v 0.064540153 -0.020797921 0.062979974
v 0.066140153 -0.020797921 0.062979974
v 0.066140153 -0.021342474 0.063794959
v 0.064540153 -0.021342474 0.063794959
v 0.064540153 -0.021110331 0.063360649
v 0.066140153 -0.021110331 0.063360649
v 0.066140153 -0.021485425 0.06426621
v 0.064540153 -0.021485425 0.06426621
v 0.064540153 -0.021342474 0.063794959
v 0.066140153 -0.021342474 0.063794959
f 2 3 1
f 1 3 4
f 6 16 5
f 5 16 18
f 17 11 10
f 10 11 12
f 10 12 9
f 9 12 13
f 9 13 8
f 8 13 14
f 8 14 7
f 7 14 15
f 7 15 6
f 6 15 16
f 20 28 19
f 19 28 30
f 29 24 23
f 23 24 25
f 23 25 26
f 20 21 28
f 28 21 27
f 27 21 22
f 27 22 26
f 26 22 23
f 32 40 31
f 31 40 42
f 41 36 35
f 35 36 37
f 35 37 38
f 32 33 40
f 40 33 39
f 39 33 34
f 39 34 38
f 38 34 35
f 44 52 43
f 43 52 54
f 53 48 47
f 47 48 49
f 47 49 50
f 44 45 52
f 52 45 51
f 51 45 46
f 51 46 50
f 50 46 47
f 56 64 55
f 55 64 66
f 65 60 59
f 59 60 61
f 59 61 62
f 56 57 64
f 64 57 63
f 63 57 58
f 63 58 62
f 62 58 59
f 68 76 67
f 67 76 78
f 77 72 71
f 71 72 73
f 71 73 74
f 68 69 76
f 76 69 75
f 75 69 70
f 75 70 74
f 74 70 71
f 80 88 79
f 79 88 90
f 89 84 83
f 83 84 85
f 83 85 86
f 80 81 88
f 88 81 87
f 87 81 82
f 87 82 86
f 86 82 83
f 92 93 91
f 91 93 94
f 96 104 95
f 95 104 106
f 105 100 99
f 99 100 101
f 99 101 102
f 96 97 104
f 104 97 103
f 103 97 98
f 103 98 102
f 102 98 99
f 107 108 114
f 114 108 109
f 114 109 110
f 111 112 110
f 110 112 113
f 110 113 114
f 115 116 122
f 122 116 117
f 122 117 118
f 119 120 118
f 118 120 121
f 118 121 122
f 124 132 123
f 123 132 134
f 133 128 127
f 127 128 129
f 127 129 130
f 124 125 132
f 132 125 131
f 131 125 126
f 131 126 130
f 130 126 127
f 136 137 135
f 135 137 138
f 140 141 139
f 139 141 142
f 143 144 150
f 150 144 145
f 150 145 146
f 147 148 146
f 146 148 149
f 146 149 150
f 151 152 158
f 158 152 153
f 158 153 154
f 155 156 154
f 154 156 157
f 154 157 158
f 160 170 159
f 159 170 172
f 171 165 164
f 164 165 166
f 164 166 163
f 163 166 167
f 163 167 162
f 162 167 168
f 162 168 161
f 161 168 169
f 161 169 160
f 160 169 170
f 174 175 173
f 173 175 176
f 178 186 177
f 177 186 188
f 187 182 181
f 181 182 183
f 181 183 184
f 178 179 186
f 186 179 185
f 185 179 180
f 185 180 184
f 184 180 181
f 190 198 189
f 189 198 200
f 199 194 193
f 193 194 195
f 193 195 196
f 190 191 198
f 198 191 197
f 197 191 192
f 197 192 196
f 196 192 193
f 202 210 201
f 201 210 212
f 211 206 205
f 205 206 207
f 205 207 208
f 202 203 210
f 210 203 209
f 209 203 204
f 209 204 208
f 208 204 205
f 214 222 213
f 213 222 224
f 223 218 217
f 217 218 219
f 217 219 220
f 214 215 222
f 222 215 221
f 221 215 216
f 221 216 220
f 220 216 217
f 226 234 225
f 225 234 236
f 235 230 229
f 229 230 231
f 229 231 232
f 226 227 234
f 234 227 233
f 233 227 228
f 233 228 232
f 232 228 229
f 238 246 237
f 237 246 248
f 247 242 241
f 241 242 243
f 241 243 244
f 238 239 246
f 246 239 245
f 245 239 240
f 245 240 244
f 244 240 241
f 250 258 249
f 249 258 260
f 259 254 253
f 253 254 255
f 253 255 256
f 250 251 258
f 258 251 257
f 257 251 252
f 257 252 256
f 256 252 253
f 262 263 261
f 261 263 264
f 266 267 265
f 265 267 268
f 270 278 269
f 269 278 280
f 279 274 273
f 273 274 275
f 273 275 276
f 270 271 278
f 278 271 277
f 277 271 272
f 277 272 276
f 276 272 273
f 282 283 281
f 281 283 284
f 286 287 285
f 285 287 288
f 290 291 289
f 289 291 292
f 294 304 293
f 293 304 306
f 305 299 298
f 298 299 300
f 298 300 297
f 297 300 301
f 297 301 296
f 296 301 302
f 296 302 295
f 295 302 303
f 295 303 294
f 294 303 304
f 308 309 307
f 307 309 310
f 312 313 311
f 311 313 314
f 316 317 315
f 315 317 318
f 319 320 326
f 326 320 321
f 326 321 322
f 323 324 322
f 322 324 325
f 322 325 326
f 327 328 334
f 334 328 329
f 334 329 330
f 331 332 330
f 330 332 333
f 330 333 334
f 336 344 335
f 335 344 346
f 345 340 339
f 339 340 341
f 339 341 342
f 336 337 344
f 344 337 343
f 343 337 338
f 343 338 342
f 342 338 339
f 348 349 347
f 347 349 350
f 352 353 351
f 351 353 354
f 355 356 362
f 362 356 357
f 362 357 358
f 359 360 358
f 358 360 361
f 358 361 362
f 363 364 370
f 370 364 365
f 370 365 366
f 367 368 366
f 366 368 369
f 366 369 370
f 372 373 371
f 371 373 374
f 376 377 375
f 375 377 378
f 380 381 379
f 379 381 382
f 384 385 383
f 383 385 386
f 388 389 387
f 387 389 390
f 392 393 391
f 391 393 394
f 396 397 395
f 395 397 398
f 399 400 406
f 406 400 401
f 406 401 402
f 403 404 402
f 402 404 405
f 402 405 406
f 407 408 414
f 414 408 409
f 414 409 410
f 411 412 410
f 410 412 413
f 410 413 414
f 416 424 415
f 415 424 426
f 425 420 419
f 419 420 421
f 419 421 422
f 416 417 424
f 424 417 423
f 423 417 418
f 423 418 422
f 422 418 419
f 428 429 427
f 427 429 430
f 432 433 431
f 431 433 434
f 436 437 435
f 435 437 438
f 440 441 439
f 439 441 442
f 444 445 443
f 443 445 446
f 448 449 447
f 447 449 450
f 451 452 458
f 458 452 453
f 458 453 454
f 455 456 454
f 454 456 457
f 454 457 458
f 460 468 459
f 459 468 470
f 469 464 463
f 463 464 465
f 463 465 466
f 460 461 468
f 468 461 467
f 467 461 462
f 467 462 466
f 466 462 463
f 472 473 471
f 471 473 474
f 476 477 475
f 475 477 478
f 479 480 486
f 486 480 481
f 486 481 482
f 483 484 482
f 482 484 485
f 482 485 486
f 488 489 487
f 487 489 490
f 492 493 491
f 491 493 494
f 496 497 495
f 495 497 498
f 500 501 499
f 499 501 502
f 504 505 503
f 503 505 506
f 507 508 514
f 514 508 509
f 514 509 510
f 511 512 510
f 510 512 513
f 510 513 514
f 516 517 515
f 515 517 518
f 520 521 519
f 519 521 522
f 524 525 523
f 523 525 526
f 528 529 527
f 527 529 530
f 531 532 538
f 538 532 533
f 538 533 534
f 535 536 534
f 534 536 537
f 534 537 538
f 540 541 539
f 539 541 542
f 544 545 543
f 543 545 546
f 548 549 547
f 547 549 550
f 552 553 551
f 551 553 554
f 556 566 555
f 555 566 568
f 567 561 560
f 560 561 562
f 560 562 559
f 559 562 563
f 559 563 558
f 558 563 564
f 558 564 557
f 557 564 565
f 557 565 556
f 556 565 566
f 570 605 569
f 569 605 606
f 569 606 656
f 656 606 655
f 655 606 614
f 655 614 615
f 570 571 605
f 605 571 610
f 610 571 572
f 610 572 573
f 573 574 610
f 610 574 575
f 610 575 576
f 576 577 610
f 610 577 609
f 609 577 631
f 609 631 608
f 608 631 627
f 608 627 611
f 611 627 618
f 618 627 628
f 618 628 621
f 621 628 620
f 620 628 641
f 620 641 650
f 650 641 649
f 649 641 642
f 649 642 648
f 648 642 638
f 648 638 639
f 631 577 635
f 635 577 578
f 635 578 634
f 634 578 715
f 634 715 633
f 633 715 716
f 633 716 632
f 632 716 717
f 632 717 711
f 711 717 718
f 711 718 729
f 729 718 719
f 729 719 728
f 728 719 721
f 728 721 727
f 727 721 726
f 726 721 722
f 726 722 733
f 733 722 737
f 733 737 738
f 579 724 578
f 578 724 725
f 578 725 714
f 714 725 713
f 713 725 720
f 713 720 712
f 712 720 719
f 719 720 721
f 579 580 724
f 724 580 581
f 724 581 582
f 582 583 724
f 724 583 584
f 724 584 723
f 723 584 585
f 723 585 586
f 587 736 586
f 586 736 737
f 586 737 722
f 588 777 587
f 587 777 778
f 587 778 761
f 761 778 779
f 761 779 760
f 760 779 740
f 760 740 741
f 588 589 777
f 777 589 776
f 776 589 590
f 776 590 591
f 591 592 776
f 776 592 593
f 776 593 594
f 594 595 776
f 776 595 775
f 775 595 771
f 775 771 774
f 774 771 772
f 774 772 773
f 596 750 595
f 595 750 755
f 595 755 770
f 770 755 756
f 770 756 769
f 769 756 757
f 769 757 773
f 773 757 758
f 773 758 740
f 740 758 753
f 740 753 685
f 685 753 749
f 685 749 684
f 684 749 750
f 684 750 683
f 683 750 678
f 683 678 679
f 597 667 596
f 596 667 668
f 596 668 673
f 673 668 672
f 672 668 669
f 672 669 676
f 676 669 670
f 676 670 657
f 657 670 671
f 657 671 656
f 656 671 604
f 656 604 569
f 597 598 667
f 667 598 599
f 667 599 600
f 600 601 667
f 667 601 602
f 667 602 666
f 666 602 603
f 666 603 604
f 606 607 614
f 614 607 613
f 613 607 612
f 612 607 608
f 612 608 611
f 655 615 654
f 654 615 616
f 654 616 653
f 653 616 623
f 653 623 624
f 616 617 623
f 623 617 622
f 622 617 618
f 622 618 621
f 620 651 619
f 619 651 702
f 619 702 626
f 626 702 744
f 626 744 739
f 739 744 745
f 739 745 743
f 743 745 746
f 743 746 742
f 742 746 763
f 742 763 759
f 653 624 660
f 660 624 625
f 660 625 659
f 659 625 626
f 659 626 696
f 696 626 681
f 696 681 695
f 695 681 677
f 695 677 694
f 694 677 678
f 694 678 693
f 693 678 750
f 693 750 596
f 628 629 641
f 641 629 640
f 640 629 630
f 640 630 644
f 644 630 631
f 644 631 635
f 644 635 643
f 643 635 636
f 643 636 637
f 643 637 642
f 642 637 638
f 632 700 639
f 639 700 701
f 639 701 647
f 647 701 646
f 646 701 697
f 646 697 645
f 645 697 698
f 645 698 652
f 652 698 699
f 652 699 708
f 708 699 707
f 707 699 700
f 707 700 711
f 711 700 632
f 647 648 639
f 650 651 620
f 702 651 706
f 706 651 652
f 706 652 732
f 732 652 708
f 732 708 731
f 731 708 709
f 731 709 730
f 730 709 710
f 730 710 729
f 729 710 711
f 676 657 665
f 665 657 658
f 665 658 691
f 691 658 696
f 691 696 690
f 690 696 692
f 690 692 689
f 689 692 693
f 689 693 688
f 688 693 596
f 688 596 662
f 662 596 673
f 662 673 674
f 658 659 696
f 662 674 661
f 661 674 675
f 661 675 665
f 665 675 676
f 662 663 688
f 688 663 687
f 687 663 664
f 687 664 691
f 691 664 665
f 671 666 604
f 683 679 682
f 682 679 680
f 682 680 686
f 686 680 681
f 686 681 739
f 739 681 626
f 685 686 740
f 740 686 739
f 702 703 744
f 744 703 748
f 748 703 704
f 748 704 747
f 747 704 768
f 747 768 764
f 705 734 704
f 704 734 735
f 704 735 768
f 768 735 736
f 768 736 767
f 767 736 587
f 767 587 766
f 766 587 762
f 766 762 763
f 734 705 738
f 738 705 706
f 738 706 732
f 714 715 578
f 722 723 586
f 732 733 738
f 760 741 759
f 759 741 742
f 747 764 746
f 746 764 765
f 746 765 763
f 763 765 766
f 750 751 755
f 755 751 754
f 754 751 752
f 754 752 758
f 758 752 753
f 761 762 587
f 770 771 595
f 740 779 773
f 773 779 774
f 815 780 816
f 816 780 781
f 816 781 821
f 821 781 870
f 821 870 871
f 781 782 870
f 870 782 878
f 870 878 869
f 869 878 879
f 869 879 884
f 884 879 880
f 884 880 883
f 883 880 881
f 883 881 887
f 887 881 790
f 887 790 876
f 876 790 902
f 876 902 875
f 875 902 898
f 875 898 874
f 874 898 899
f 874 899 873
f 873 899 868
f 873 868 869
f 878 782 877
f 877 782 783
f 877 783 784
f 877 784 882
f 882 784 785
f 882 785 786
f 786 787 882
f 882 787 788
f 882 788 789
f 789 790 882
f 882 790 881
f 791 964 790
f 790 964 907
f 790 907 902
f 902 907 901
f 901 907 903
f 901 903 900
f 900 903 904
f 900 904 899
f 899 904 868
f 792 989 791
f 791 989 990
f 791 990 983
f 983 990 985
f 983 985 982
f 982 985 981
f 981 985 986
f 981 986 954
f 954 986 974
f 954 974 953
f 953 974 970
f 953 970 952
f 952 970 971
f 952 971 958
f 958 971 979
f 958 979 975
f 792 793 989
f 989 793 794
f 989 794 795
f 795 796 989
f 989 796 797
f 989 797 988
f 988 797 798
f 988 798 799
f 800 948 799
f 799 948 977
f 799 977 978
f 801 934 800
f 800 934 935
f 800 935 947
f 947 935 939
f 947 939 946
f 946 939 940
f 946 940 914
f 914 940 858
f 914 858 859
f 801 802 934
f 934 802 933
f 933 802 803
f 933 803 804
f 804 805 933
f 933 805 806
f 933 806 807
f 807 808 933
f 933 808 932
f 932 808 930
f 932 930 923
f 809 849 808
f 808 849 850
f 808 850 929
f 929 850 928
f 928 850 843
f 928 843 927
f 927 843 844
f 927 844 919
f 919 844 910
f 919 910 918
f 918 910 911
f 918 911 922
f 922 911 858
f 922 858 940
f 810 817 809
f 809 817 818
f 809 818 839
f 839 818 819
f 839 819 838
f 838 819 823
f 838 823 824
f 810 811 817
f 817 811 812
f 817 812 813
f 813 814 817
f 817 814 815
f 817 815 816
f 823 819 822
f 822 819 820
f 822 820 829
f 829 820 828
f 828 820 821
f 828 821 871
f 825 836 824
f 824 836 837
f 824 837 842
f 842 837 830
f 842 830 855
f 855 830 860
f 855 860 861
f 836 825 835
f 835 825 826
f 835 826 865
f 865 826 827
f 865 827 864
f 864 827 871
f 871 827 828
f 860 830 859
f 859 830 831
f 859 831 913
f 913 831 832
f 913 832 955
f 955 832 950
f 955 950 959
f 959 950 951
f 959 951 958
f 958 951 952
f 833 867 832
f 832 867 904
f 832 904 889
f 889 904 905
f 889 905 888
f 888 905 906
f 888 906 892
f 892 906 907
f 892 907 964
f 867 833 866
f 866 833 834
f 866 834 865
f 865 834 835
f 840 852 839
f 839 852 849
f 839 849 809
f 852 840 851
f 851 840 841
f 851 841 855
f 855 841 842
f 842 838 824
f 844 845 910
f 910 845 909
f 909 845 863
f 909 863 856
f 845 846 863
f 863 846 862
f 862 846 854
f 862 854 861
f 861 854 855
f 846 847 854
f 854 847 853
f 853 847 848
f 853 848 849
f 852 853 849
f 909 856 908
f 908 856 857
f 908 857 912
f 912 857 858
f 912 858 911
f 867 868 904
f 873 885 872
f 872 885 886
f 872 886 876
f 876 886 887
f 869 884 873
f 873 884 885
f 890 894 889
f 889 894 950
f 889 950 832
f 894 890 893
f 893 890 891
f 893 891 897
f 897 891 892
f 897 892 964
f 950 894 954
f 954 894 895
f 954 895 961
f 961 895 960
f 960 895 896
f 960 896 964
f 964 896 897
f 913 914 859
f 914 915 946
f 946 915 945
f 945 915 916
f 945 916 949
f 949 916 976
f 949 976 948
f 948 976 977
f 917 956 916
f 916 956 957
f 916 957 976
f 976 957 975
f 975 957 958
f 956 917 955
f 955 917 913
f 920 943 919
f 919 943 926
f 919 926 927
f 943 920 942
f 942 920 921
f 942 921 941
f 941 921 922
f 941 922 940
f 932 923 931
f 931 923 924
f 931 924 925
f 926 943 925
f 925 943 944
f 925 944 936
f 936 944 937
f 936 937 938
f 929 930 808
f 939 935 938
f 938 935 936
f 936 931 925
f 947 948 800
f 954 961 966
f 966 961 962
f 966 962 965
f 965 962 963
f 965 963 969
f 969 963 964
f 969 964 791
f 954 966 981
f 981 966 967
f 981 967 980
f 980 967 968
f 980 968 984
f 984 968 969
f 984 969 791
f 979 971 978
f 978 971 972
f 978 972 799
f 799 972 973
f 799 973 987
f 987 973 986
f 986 973 974
f 983 984 791
f 987 988 799
f 992 993 991
f 991 993 994
f 996 997 995
f 995 997 998
f 1000 1001 999
f 999 1001 1002
f 1004 1005 1003
f 1003 1005 1006
f 1008 1009 1007
f 1007 1009 1010
f 1012 1013 1011
f 1011 1013 1014
f 1016 1017 1015
f 1015 1017 1018
