v -0.031137262 0.00027661379 0.015456153
v -0.031137155 0.00097650726 0.015443937
v -0.031139795 0.00098174288 0.015743879
v -0.031138495 0.0094804484 0.015595542
v -0.031135855 0.0094752128 0.0152956
v -0.031135748 0.010175106 0.015283384
v -0.031142085 0.010187672 0.016003246
v -0.031143599 0.00028917929 0.016176015
v -0.032125782 0.00025392543 0.014147598
v -0.031625801 0.00025392576 0.014152
v -0.031625694 0.00095381923 0.014139784
v -0.032125674 0.0009538189 0.014135382
v -0.037026981 0.00095678249 0.014262217
v -0.037025681 0.009455488 0.01411388
v -0.036925684 0.0094554881 0.01411476
v -0.036926985 0.00095678256 0.014263097
v -0.031605907 0.0059903499 0.01189163
v -0.031609802 0.0064231385 0.012334127
v -0.035109667 0.0064231362 0.012303318
v -0.035105771 0.0059903476 0.011860821
v -0.040312121 0.0051782097 0.012559305
v -0.040313708 0.0048782011 0.012739561
v -0.040316788 0.0048843093 0.013089494
v -0.040318282 0.0051904261 0.013259171
v -0.040316695 0.0054904348 0.013078915
v -0.040313615 0.0054843266 0.012728982
v -0.040516514 0.0051869356 0.013057449
v -0.040515623 0.0050424899 0.012956311
v -0.040514139 0.0050940456 0.012787687
v -0.040514112 0.0052703543 0.01278461
v -0.04051558 0.0053277633 0.012951332
v -0.040515623 0.0050424899 0.012956311
v -0.040316788 0.0048843093 0.013089494
v -0.031605907 0.0059903499 0.01189163
v -0.035105771 0.0059903476 0.011860821
v -0.035106024 0.0043405988 0.011889616
v -0.031606159 0.0043406011 0.011920425
v -0.031606289 0.0034907306 0.011935259
v -0.035106154 0.0034907282 0.011904449
v -0.03510641 0.0018159833 0.011933681
v -0.031406553 0.0018159858 0.01196625
v -0.031405528 0.0085149652 0.011849326
v -0.035105385 0.0085149627 0.011816756
v -0.035105641 0.0068402179 0.011845987
v -0.031605777 0.0068402202 0.011876797
v -0.040516131 0.0076865548 0.01301382
v -0.040515197 0.0078273826 0.012907703
v -0.04051373 0.0077699735 0.012740981
v -0.040513757 0.0075936648 0.012744058
v -0.040515241 0.0075421093 0.012912682
v -0.036041895 0.010187668 0.015960113
v -0.036031157 0.010166377 0.014740346
v -0.036031264 0.0094664835 0.014752562
v -0.036033201 0.009470323 0.01497252
v -0.036034501 0.00097161742 0.015120857
v -0.036032565 0.00096777796 0.014900899
v -0.036032672 0.0002678845 0.014913115
v -0.036043409 0.00028917603 0.016132882
v -0.031632842 0.00026788742 0.014951847
v -0.036032672 0.0002678845 0.014913115
v -0.036032565 0.00096777796 0.014900899
v -0.0351326 0.00096777856 0.014908821
v -0.031632735 0.00096778089 0.014939631
v -0.037034462 0.00097161676 0.015112054
v -0.037026981 0.00095678249 0.014262217
v -0.036926985 0.00095678256 0.014263097
v -0.036919327 0.00094159925 0.013393263
v -0.035119398 0.00094160045 0.013409108
v -0.0351326 0.00096777856 0.014908821
v -0.036032565 0.00096777796 0.014900899
v -0.036034501 0.00097161742 0.015120857
v -0.031135748 0.010175106 0.015283384
v -0.031631328 0.01016638 0.014779078
v -0.036031157 0.010166377 0.014740346
v -0.036041895 0.010187668 0.015960113
v -0.031142085 0.010187672 0.016003246
v -0.037007725 0.00021849446 0.012074853
v -0.037006274 0.0097077095 0.011909227
v -0.036998923 0.0088430043 0.011074223
v -0.037000244 0.00020366019 0.011225015
v -0.031612458 0.0051782155 0.012635888
v -0.031613952 0.0054843324 0.012805565
v -0.031617032 0.0054904406 0.013155498
v -0.031618619 0.0051904319 0.013335755
v -0.031617125 0.0048843151 0.013166078
v -0.031614045 0.0048782069 0.012816144
v -0.031609802 0.0064231385 0.012334127
v -0.031605777 0.0068402202 0.011876797
v -0.035105641 0.0068402179 0.011845987
v -0.035109667 0.0064231362 0.012303318
v -0.036909817 0.010124131 0.012312226
v -0.03691792 0.010140198 0.01323271
v -0.032118106 0.010140201 0.013274963
v -0.032124267 0.010152418 0.013974829
v -0.031624287 0.010152418 0.013979231
v -0.031119905 0.010143692 0.013483727
v -0.031110042 0.010124135 0.012363281
v -0.036909817 0.010124131 0.012312226
v -0.036906277 0.0097077095 0.011910108
v -0.036907729 0.00021849452 0.012075733
v -0.036919435 0.00024170578 0.013405479
v -0.036919327 0.00094159925 0.013393263
v -0.036926985 0.00095678256 0.014263097
v -0.036925684 0.0094554881 0.01411476
v -0.036918027 0.0094403048 0.013244926
v -0.03691792 0.010140198 0.01323271
v -0.036912635 0.0026785927 0.012632863
v -0.036914129 0.0029847095 0.012802539
v -0.036917209 0.0029908178 0.013152473
v -0.036918796 0.0026908091 0.013332729
v -0.036917302 0.0023846923 0.013163052
v -0.036914221 0.0023785841 0.012813119
v -0.036912252 0.0051782119 0.012589234
v -0.036913746 0.0054843289 0.012758911
v -0.036916827 0.0054904371 0.013108844
v -0.036918413 0.0051904284 0.0132891
v -0.036916919 0.0048843116 0.013119423
v -0.036913839 0.0048782034 0.01276949
v -0.03691187 0.0076778312 0.012545606
v -0.036913364 0.0079839478 0.012715282
v -0.036916444 0.0079900561 0.013065216
v -0.036918031 0.0076900476 0.013245472
v -0.036916537 0.0073839307 0.013075795
v -0.036913457 0.0073778225 0.012725862
v -0.031119905 0.010143692 0.013483727
v -0.031624287 0.010152418 0.013979231
v -0.031624394 0.0094525248 0.013991447
v -0.031120012 0.0094437991 0.013495943
v -0.031624287 0.010152418 0.013979231
v -0.032124267 0.010152418 0.013974829
v -0.032124374 0.0094525244 0.013987045
v -0.031624394 0.0094525248 0.013991447
v -0.03691792 0.010140198 0.01323271
v -0.036918027 0.0094403048 0.013244926
v -0.035118098 0.009440306 0.013260771
v -0.032118213 0.009440308 0.013287179
v -0.032118106 0.010140201 0.013274963
v -0.031099151 0.0088430082 0.011126159
v -0.031100472 0.00020366411 0.011276951
v -0.037000244 0.00020366019 0.011225015
v -0.036998923 0.0088430043 0.011074223
v -0.031631328 0.01016638 0.014779078
v -0.031135748 0.010175106 0.015283384
v -0.031135855 0.0094752128 0.0152956
v -0.031631435 0.0094664864 0.014791294
v -0.036919327 0.00094159925 0.013393263
v -0.036919435 0.00024170578 0.013405479
v -0.032119621 0.00024170897 0.013447732
v -0.032119514 0.00094160244 0.013435516
v -0.035119398 0.00094160045 0.013409108
v -0.036033201 0.009470323 0.01497252
v -0.037033162 0.0094703223 0.014963717
v -0.037034462 0.00097161676 0.015112054
v -0.036034501 0.00097161742 0.015120857
v -0.031632842 0.00026788742 0.014951847
v -0.031137262 0.00027661379 0.015456153
v -0.031143599 0.00028917929 0.016176015
v -0.036043409 0.00028917603 0.016132882
v -0.036032672 0.0002678845 0.014913115
v -0.031610185 0.0039235192 0.012377756
v -0.031606289 0.0034907306 0.011935259
v -0.031606159 0.0043406011 0.011920425
v -0.035105771 0.0059903476 0.011860821
v -0.035109667 0.0064231362 0.012303318
v -0.035105641 0.0068402179 0.011845987
v -0.035105385 0.0085149627 0.011816756
v -0.035113169 0.0094305328 0.012700878
v -0.035118098 0.009440306 0.013260771
v -0.0351313 0.0094664841 0.014760484
v -0.0351357 0.0094752101 0.015260389
v -0.035137 0.0009765046 0.015408726
v -0.0351326 0.00096777856 0.014908821
v -0.035119398 0.00094160045 0.013409108
v -0.035114469 0.00093182729 0.012849215
v -0.03510641 0.0018159833 0.011933681
v -0.035106154 0.0034907282 0.011904449
v -0.035110049 0.0039235169 0.012346947
v -0.035106024 0.0043405988 0.011889616
v -0.035112705 0.0026785939 0.012648707
v -0.035114292 0.0023785853 0.012828964
v -0.035117372 0.0023846935 0.013178897
v -0.035118866 0.0026908103 0.013348574
v -0.035117279 0.002990819 0.013168317
v -0.035114199 0.0029847107 0.012818384
v -0.035112323 0.0051782131 0.012605079
v -0.035113909 0.0048782046 0.012785335
v -0.03511699 0.0048843128 0.013135268
v -0.035118484 0.0051904296 0.013304945
v -0.035116897 0.0054904383 0.013124689
v -0.035113817 0.0054843301 0.012774756
v -0.03511194 0.0076778324 0.01256145
v -0.035113527 0.0073778237 0.012741707
v -0.035116607 0.0073839319 0.01309164
v -0.035118101 0.0076900488 0.013261317
v -0.035116515 0.0079900573 0.01308106
v -0.035113434 0.007983949 0.012731127
v -0.0351313 0.0094664841 0.014760484
v -0.031631435 0.0094664864 0.014791294
v -0.031135855 0.0094752128 0.0152956
v -0.031138495 0.0094804484 0.015595542
v -0.031435843 0.0094752126 0.015292959
v -0.0351357 0.0094752101 0.015260389
v -0.036906277 0.0097077095 0.011910108
v -0.036909817 0.010124131 0.012312226
v -0.031110042 0.010124135 0.012363281
v -0.031099151 0.0088430082 0.011126159
v -0.036998923 0.0088430043 0.011074223
v -0.037006274 0.0097077095 0.011909227
v -0.040312503 0.0026785904 0.012602933
v -0.04031409 0.0023785818 0.01278319
v -0.04031717 0.00238469 0.013133123
v -0.040318664 0.0026908069 0.0133028
v -0.040317078 0.0029908155 0.013122543
v -0.040313997 0.0029847073 0.01277261
v -0.040516896 0.0026873163 0.013101077
v -0.040516006 0.0025428707 0.012999939
v -0.040514521 0.0025944263 0.012831315
v -0.040514494 0.002770735 0.012828238
v -0.040515962 0.0028281442 0.01299496
v -0.040516006 0.0025428707 0.012999939
v -0.04031717 0.00238469 0.013133123
v -0.031612076 0.0076778347 0.01259226
v -0.031613569 0.0079839514 0.012761937
v -0.03161665 0.0079900596 0.01311187
v -0.031618237 0.0076900512 0.013292126
v -0.031616743 0.0073839342 0.013122449
v -0.031613662 0.007377826 0.012772516
v -0.031625801 0.00025392576 0.014152
v -0.03112142 0.00024520005 0.013656496
v -0.031121313 0.00094509352 0.01364428
v -0.031625694 0.00095381923 0.014139784
v -0.032119621 0.00024170897 0.013447732
v -0.032125782 0.00025392543 0.014147598
v -0.032125674 0.0009538189 0.014135382
v -0.032119514 0.00094160244 0.013435516
v -0.031406553 0.0018159858 0.01196625
v -0.03510641 0.0018159833 0.011933681
v -0.035114469 0.00093182729 0.012849215
v -0.031114624 0.00093182994 0.012884426
v -0.031106565 0.001815986 0.011968891
v -0.031606289 0.0034907306 0.011935259
v -0.031610185 0.0039235192 0.012377756
v -0.035110049 0.0039235169 0.012346947
v -0.035106154 0.0034907282 0.011904449
v -0.031103924 0.0018107503 0.011668949
v -0.031106565 0.001815986 0.011968891
v -0.031114624 0.00093182994 0.012884426
v -0.031121313 0.00094509352 0.01364428
v -0.03112142 0.00024520005 0.013656496
v -0.031100472 0.00020366411 0.011276951
v -0.031099151 0.0088430082 0.011126159
v -0.031110042 0.010124135 0.012363281
v -0.031119905 0.010143692 0.013483727
v -0.031120012 0.0094437991 0.013495943
v -0.031113323 0.0094305355 0.012736089
v -0.03110554 0.0085149654 0.011851967
v -0.031102899 0.0085097297 0.011552024
v -0.040516514 0.0051869356 0.013057449
v -0.04051558 0.0053277633 0.012951332
v -0.040514112 0.0052703543 0.01278461
v -0.040514139 0.0050940456 0.012787687
v -0.040515623 0.0050424899 0.012956311
v -0.031406553 0.0018159858 0.01196625
v -0.031106565 0.001815986 0.011968891
v -0.031103924 0.0018107503 0.011668949
v -0.031612076 0.0076778347 0.01259226
v -0.031613662 0.007377826 0.012772516
v -0.031616743 0.0073839342 0.013122449
v -0.031618237 0.0076900512 0.013292126
v -0.03161665 0.0079900596 0.01311187
v -0.031613569 0.0079839514 0.012761937
v -0.03511194 0.0076778324 0.01256145
v -0.035113434 0.007983949 0.012731127
v -0.035116515 0.0079900573 0.01308106
v -0.035118101 0.0076900488 0.013261317
v -0.035116607 0.0073839319 0.01309164
v -0.035113527 0.0073778237 0.012741707
v -0.03511194 0.0076778324 0.01256145
v -0.031612076 0.0076778347 0.01259226
v -0.031142085 0.010187672 0.016003246
v -0.036041895 0.010187668 0.015960113
v -0.036043409 0.00028917603 0.016132882
v -0.031143599 0.00028917929 0.016176015
v -0.031113323 0.0094305355 0.012736089
v -0.035113169 0.0094305328 0.012700878
v -0.035105385 0.0085149627 0.011816756
v -0.031405528 0.0085149652 0.011849326
v -0.03110554 0.0085149654 0.011851967
v -0.031435843 0.0094752126 0.015292959
v -0.031138495 0.0094804484 0.015595542
v -0.031139795 0.00098174288 0.015743879
v -0.031437143 0.00097650706 0.015441296
v -0.040516896 0.0026873163 0.013101077
v -0.040515962 0.0028281442 0.01299496
v -0.040514494 0.002770735 0.012828238
v -0.040514521 0.0025944263 0.012831315
v -0.040516006 0.0025428707 0.012999939
v -0.037033162 0.0094703223 0.014963717
v -0.037025681 0.009455488 0.01411388
v -0.037026981 0.00095678249 0.014262217
v -0.037034462 0.00097161676 0.015112054
v -0.036031157 0.010166377 0.014740346
v -0.031631328 0.01016638 0.014779078
v -0.031631435 0.0094664864 0.014791294
v -0.0351313 0.0094664841 0.014760484
v -0.036031264 0.0094664835 0.014752562
v -0.036912252 0.0051782119 0.012589234
v -0.036913839 0.0048782034 0.01276949
v -0.036916919 0.0048843116 0.013119423
v -0.036918413 0.0051904284 0.0132891
v -0.036916827 0.0054904371 0.013108844
v -0.036913746 0.0054843289 0.012758911
v -0.040312121 0.0051782097 0.012559305
v -0.040313615 0.0054843266 0.012728982
v -0.040316695 0.0054904348 0.013078915
v -0.040318282 0.0051904261 0.013259171
v -0.040316788 0.0048843093 0.013089494
v -0.040313708 0.0048782011 0.012739561
v -0.040312121 0.0051782097 0.012559305
v -0.036912252 0.0051782119 0.012589234
v -0.036906277 0.0097077095 0.011910108
v -0.037006274 0.0097077095 0.011909227
v -0.037007725 0.00021849446 0.012074853
v -0.036907729 0.00021849452 0.012075733
v -0.031406553 0.0018159858 0.01196625
v -0.031103924 0.0018107503 0.011668949
v -0.031102899 0.0085097297 0.011552024
v -0.031405528 0.0085149652 0.011849326
v -0.03110554 0.0085149654 0.011851967
v -0.031405528 0.0085149652 0.011849326
v -0.031102899 0.0085097297 0.011552024
v -0.035137 0.0009765046 0.015408726
v -0.031437143 0.00097650706 0.015441296
v -0.031139795 0.00098174288 0.015743879
v -0.031137155 0.00097650726 0.015443937
v -0.031632735 0.00096778089 0.014939631
v -0.0351326 0.00096777856 0.014908821
v -0.032125674 0.0009538189 0.014135382
v -0.031625694 0.00095381923 0.014139784
v -0.031121313 0.00094509352 0.01364428
v -0.031114624 0.00093182994 0.012884426
v -0.035114469 0.00093182729 0.012849215
v -0.035119398 0.00094160045 0.013409108
v -0.032119514 0.00094160244 0.013435516
v -0.03161284 0.0026785962 0.012679517
v -0.031614334 0.0029847131 0.012849194
v -0.031617415 0.0029908213 0.013199127
v -0.031619001 0.0026908127 0.013379383
v -0.031617507 0.0023846958 0.013209706
v -0.031614427 0.0023785876 0.012859773
v -0.036912635 0.0026785927 0.012632863
v -0.036914221 0.0023785841 0.012813119
v -0.036917302 0.0023846923 0.013163052
v -0.036918796 0.0026908091 0.013332729
v -0.036917209 0.0029908178 0.013152473
v -0.036914129 0.0029847095 0.012802539
v -0.040312503 0.0026785904 0.012602933
v -0.040313997 0.0029847073 0.01277261
v -0.040317078 0.0029908155 0.013122543
v -0.040318664 0.0026908069 0.0133028
v -0.04031717 0.00238469 0.013133123
v -0.04031409 0.0023785818 0.01278319
v -0.040312503 0.0026785904 0.012602933
v -0.036912635 0.0026785927 0.012632863
v -0.03161284 0.0026785962 0.012679517
v -0.031614427 0.0023785876 0.012859773
v -0.031617507 0.0023846958 0.013209706
v -0.031619001 0.0026908127 0.013379383
v -0.031617415 0.0029908213 0.013199127
v -0.031614334 0.0029847131 0.012849194
v -0.035112705 0.0026785939 0.012648707
v -0.035114199 0.0029847107 0.012818384
v -0.035117279 0.002990819 0.013168317
v -0.035118866 0.0026908103 0.013348574
v -0.035117372 0.0023846935 0.013178897
v -0.035114292 0.0023785853 0.012828964
v -0.035112705 0.0026785939 0.012648707
v -0.03161284 0.0026785962 0.012679517
v -0.031610185 0.0039235192 0.012377756
v -0.031606159 0.0043406011 0.011920425
v -0.035106024 0.0043405988 0.011889616
v -0.035110049 0.0039235169 0.012346947
v -0.036925684 0.0094554881 0.01411476
v -0.037025681 0.009455488 0.01411388
v -0.037033162 0.0094703223 0.014963717
v -0.036033201 0.009470323 0.01497252
v -0.036031264 0.0094664835 0.014752562
v -0.0351313 0.0094664841 0.014760484
v -0.035118098 0.009440306 0.013260771
v -0.036918027 0.0094403048 0.013244926
v -0.032124374 0.0094525244 0.013987045
v -0.032118213 0.009440308 0.013287179
v -0.035118098 0.009440306 0.013260771
v -0.035113169 0.0094305328 0.012700878
v -0.031113323 0.0094305355 0.012736089
v -0.031120012 0.0094437991 0.013495943
v -0.031624394 0.0094525248 0.013991447
v -0.031137262 0.00027661379 0.015456153
v -0.031632842 0.00026788742 0.014951847
v -0.031632735 0.00096778089 0.014939631
v -0.031137155 0.00097650726 0.015443937
v -0.032124267 0.010152418 0.013974829
v -0.032118106 0.010140201 0.013274963
v -0.032118213 0.009440308 0.013287179
v -0.032124374 0.0094525244 0.013987045
v -0.0351357 0.0094752101 0.015260389
v -0.031435843 0.0094752126 0.015292959
v -0.031437143 0.00097650706 0.015441296
v -0.035137 0.0009765046 0.015408726
v -0.031612458 0.0051782155 0.012635888
v -0.031614045 0.0048782069 0.012816144
v -0.031617125 0.0048843151 0.013166078
v -0.031618619 0.0051904319 0.013335755
v -0.031617032 0.0054904406 0.013155498
v -0.031613952 0.0054843324 0.012805565
v -0.035112323 0.0051782131 0.012605079
v -0.035113817 0.0054843301 0.012774756
v -0.035116897 0.0054904383 0.013124689
v -0.035118484 0.0051904296 0.013304945
v -0.03511699 0.0048843128 0.013135268
v -0.035113909 0.0048782046 0.012785335
v -0.035112323 0.0051782131 0.012605079
v -0.031612458 0.0051782155 0.012635888
v -0.040311739 0.0076778289 0.012515676
v -0.040313325 0.0073778202 0.012695933
v -0.040316406 0.0073839284 0.013045866
v -0.0403179 0.0076900454 0.013215543
v -0.040316313 0.0079900538 0.013035286
v -0.040313232 0.0079839456 0.012685353
v -0.040516131 0.0076865548 0.01301382
v -0.040515241 0.0075421093 0.012912682
v -0.040513757 0.0075936648 0.012744058
v -0.04051373 0.0077699735 0.012740981
v -0.040515197 0.0078273826 0.012907703
v -0.040515241 0.0075421093 0.012912682
v -0.040316406 0.0073839284 0.013045866
v -0.036919435 0.00024170578 0.013405479
v -0.036907729 0.00021849452 0.012075733
v -0.037007725 0.00021849446 0.012074853
v -0.037000244 0.00020366019 0.011225015
v -0.031100472 0.00020366411 0.011276951
v -0.03112142 0.00024520005 0.013656496
v -0.031625801 0.00025392576 0.014152
v -0.032125782 0.00025392543 0.014147598
v -0.032119621 0.00024170897 0.013447732
v -0.03691187 0.0076778312 0.012545606
v -0.036913457 0.0073778225 0.012725862
v -0.036916537 0.0073839307 0.013075795
v -0.036918031 0.0076900476 0.013245472
v -0.036916444 0.0079900561 0.013065216
v -0.036913364 0.0079839478 0.012715282
v -0.040311739 0.0076778289 0.012515676
v -0.040313232 0.0079839456 0.012685353
v -0.040316313 0.0079900538 0.013035286
v -0.0403179 0.0076900454 0.013215543
v -0.040316406 0.0073839284 0.013045866
v -0.040313325 0.0073778202 0.012695933
v -0.040311739 0.0076778289 0.012515676
v -0.03691187 0.0076778312 0.012545606
v -0.031609802 0.0064231385 0.012334127
v -0.031605907 0.0059903499 0.01189163
v -0.031605777 0.0068402202 0.011876797
f 2 3 1
f 1 3 8
f 8 3 4
f 8 4 7
f 7 4 6
f 6 4 5
f 10 11 9
f 9 11 12
f 13 14 16
f 16 14 15
f 17 18 20
f 20 18 19
f 22 29 21
f 21 29 30
f 21 30 26
f 26 30 31
f 26 31 25
f 25 31 27
f 25 27 24
f 24 27 23
f 23 27 32
f 33 28 22
f 22 28 29
f 35 36 34
f 34 36 37
f 34 37 42
f 42 37 41
f 41 37 38
f 41 38 40
f 40 38 39
f 34 42 45
f 45 42 43
f 45 43 44
f 46 47 50
f 50 47 49
f 49 47 48
f 52 54 51
f 51 54 55
f 51 55 58
f 58 55 57
f 57 55 56
f 52 53 54
f 63 59 62
f 62 59 60
f 62 60 61
f 65 66 64
f 64 66 70
f 64 70 71
f 67 68 66
f 66 68 70
f 68 69 70
f 73 74 72
f 72 74 75
f 72 75 76
f 78 79 77
f 77 79 80
f 82 83 81
f 81 83 84
f 81 84 86
f 86 84 85
f 88 89 87
f 87 89 90
f 92 93 91
f 91 93 97
f 97 93 96
f 96 93 94
f 96 94 95
f 99 119 98
f 98 119 120
f 98 120 106
f 106 120 105
f 105 120 121
f 105 121 122
f 119 99 113
f 113 99 100
f 113 100 107
f 107 100 112
f 112 100 101
f 112 101 102
f 103 110 102
f 102 110 111
f 102 111 112
f 110 103 116
f 116 103 104
f 116 104 122
f 122 104 105
f 113 107 118
f 118 107 108
f 118 108 117
f 117 108 109
f 117 109 116
f 116 109 110
f 119 113 124
f 124 113 114
f 124 114 123
f 123 114 115
f 123 115 122
f 122 115 116
f 126 127 125
f 125 127 128
f 130 131 129
f 129 131 132
f 134 135 133
f 133 135 137
f 137 135 136
f 138 139 141
f 141 139 140
f 143 144 142
f 142 144 145
f 146 147 150
f 150 147 148
f 150 148 149
f 152 153 151
f 151 153 154
f 155 156 159
f 159 156 158
f 158 156 157
f 160 161 162
f 178 163 185
f 185 163 164
f 185 164 190
f 190 164 192
f 190 192 193
f 192 164 191
f 191 164 165
f 191 165 166
f 166 167 191
f 191 167 196
f 196 167 195
f 195 167 168
f 195 168 194
f 194 168 169
f 194 169 188
f 188 169 172
f 188 172 182
f 182 172 173
f 182 173 181
f 181 173 174
f 181 174 180
f 180 174 179
f 179 174 175
f 179 175 176
f 169 170 172
f 172 170 171
f 176 177 179
f 179 177 184
f 184 177 186
f 184 186 187
f 186 177 185
f 185 177 178
f 182 183 188
f 188 183 187
f 187 183 184
f 194 188 193
f 193 188 189
f 193 189 190
f 197 198 202
f 202 198 201
f 201 198 199
f 201 199 200
f 204 205 203
f 203 205 206
f 203 206 207
f 207 208 203
f 210 217 209
f 209 217 218
f 209 218 214
f 214 218 219
f 214 219 213
f 213 219 215
f 213 215 212
f 212 215 211
f 211 215 220
f 221 216 210
f 210 216 217
f 223 224 222
f 222 224 225
f 222 225 227
f 227 225 226
f 229 230 228
f 228 230 231
f 232 233 235
f 235 233 234
f 237 238 236
f 236 238 239
f 236 239 240
f 241 242 244
f 244 242 243
f 246 250 245
f 245 250 251
f 245 251 257
f 257 251 252
f 257 252 256
f 256 252 255
f 255 252 253
f 255 253 254
f 246 247 250
f 250 247 249
f 249 247 248
f 258 259 262
f 262 259 261
f 261 259 260
f 263 264 265
f 267 277 266
f 266 277 278
f 279 272 271
f 271 272 273
f 271 273 270
f 270 273 274
f 270 274 269
f 269 274 275
f 269 275 268
f 268 275 276
f 268 276 267
f 267 276 277
f 281 282 280
f 280 282 283
f 288 284 287
f 287 284 285
f 287 285 286
f 290 291 289
f 289 291 292
f 293 294 297
f 297 294 296
f 296 294 295
f 299 300 298
f 298 300 301
f 306 302 305
f 305 302 303
f 305 303 304
f 308 318 307
f 307 318 319
f 320 313 312
f 312 313 314
f 312 314 311
f 311 314 315
f 311 315 310
f 310 315 316
f 310 316 309
f 309 316 317
f 309 317 308
f 308 317 318
f 321 322 324
f 324 322 323
f 325 326 328
f 328 326 327
f 329 330 331
f 337 332 336
f 336 332 333
f 336 333 335
f 335 333 334
f 339 340 338
f 338 340 344
f 344 340 341
f 344 341 342
f 342 343 344
f 346 347 345
f 345 347 348
f 345 348 350
f 350 348 349
f 352 362 351
f 351 362 363
f 364 357 356
f 356 357 358
f 356 358 355
f 355 358 359
f 355 359 354
f 354 359 360
f 354 360 353
f 353 360 361
f 353 361 352
f 352 361 362
f 366 376 365
f 365 376 377
f 378 371 370
f 370 371 372
f 370 372 369
f 369 372 373
f 369 373 368
f 368 373 374
f 368 374 367
f 367 374 375
f 367 375 366
f 366 375 376
f 380 381 379
f 379 381 382
f 384 385 383
f 383 385 387
f 383 387 389
f 389 387 388
f 385 386 387
f 389 390 383
f 397 391 396
f 396 391 392
f 396 392 395
f 395 392 394
f 394 392 393
f 399 400 398
f 398 400 401
f 402 403 405
f 405 403 404
f 406 407 409
f 409 407 408
f 411 421 410
f 410 421 422
f 423 416 415
f 415 416 417
f 415 417 414
f 414 417 418
f 414 418 413
f 413 418 419
f 413 419 412
f 412 419 420
f 412 420 411
f 411 420 421
f 425 432 424
f 424 432 433
f 424 433 429
f 429 433 434
f 429 434 428
f 428 434 430
f 428 430 427
f 427 430 426
f 426 430 435
f 436 431 425
f 425 431 432
f 437 438 445
f 445 438 441
f 445 441 442
f 439 440 438
f 438 440 441
f 442 443 445
f 445 443 444
f 447 457 446
f 446 457 458
f 459 452 451
f 451 452 453
f 451 453 450
f 450 453 454
f 450 454 449
f 449 454 455
f 449 455 448
f 448 455 456
f 448 456 447
f 447 456 457
f 460 461 462
v -0.031138776 -0.0096218784 0.015628921
v -0.031138669 -0.008921985 0.015616706
v -0.03114131 -0.0089167494 0.015916648
v -0.03114001 -0.00041804381 0.015768311
v -0.031137369 -0.00042327943 0.015468369
v -0.031137262 0.00027661389 0.015456153
v -0.031143599 0.00028917938 0.016176015
v -0.031145113 -0.009609313 0.016348784
v -0.032127296 -0.0096445668 0.014320367
v -0.031627315 -0.0096445665 0.014324768
v -0.031627208 -0.008944673 0.014312552
v -0.032127189 -0.0089446733 0.014308151
v -0.037028496 -0.0089417097 0.014434986
v -0.037027195 -0.0004430042 0.014286649
v -0.036927199 -0.00044300413 0.014287529
v -0.036928499 -0.0089417097 0.014435866
v -0.031607421 -0.0039081423 0.012064399
v -0.031611317 -0.0034753537 0.012506896
v -0.035111181 -0.0034753561 0.012476087
v -0.035107286 -0.0039081447 0.01203359
v -0.040313635 -0.0047202826 0.012732074
v -0.040315222 -0.0050202911 0.01291233
v -0.040318302 -0.0050141829 0.013262263
v -0.040319796 -0.0047080661 0.01343194
v -0.04031821 -0.0044080574 0.013251684
v -0.040315129 -0.0044141656 0.012901751
v -0.040518028 -0.0047115567 0.013230218
v -0.040517138 -0.0048560023 0.01312908
v -0.040515653 -0.0048044467 0.012960456
v -0.040515626 -0.004628138 0.012957378
v -0.040517094 -0.0045707289 0.013124101
v -0.040517138 -0.0048560023 0.01312908
v -0.040318302 -0.0050141829 0.013262263
v -0.031607421 -0.0039081423 0.012064399
v -0.035107286 -0.0039081447 0.01203359
v -0.035107538 -0.0055578934 0.012062385
v -0.031607674 -0.0055578911 0.012093194
v -0.031607804 -0.0064077617 0.012108028
v -0.035107668 -0.006407764 0.012077218
v -0.035107924 -0.0080825089 0.012106449
v -0.031408067 -0.0080825065 0.012139019
v -0.031407043 -0.0013835271 0.012022095
v -0.0351069 -0.0013835295 0.011989525
v -0.035107156 -0.0030582743 0.012018756
v -0.031607291 -0.003058272 0.012049566
v -0.040517646 -0.0022119374 0.013186589
v -0.040516712 -0.0020711096 0.013080472
v -0.040515244 -0.0021285187 0.01291375
v -0.040515271 -0.0023048274 0.012916827
v -0.040516755 -0.0023563829 0.013085451
v -0.036043409 0.00028917613 0.016132882
v -0.036032672 0.00026788459 0.014913115
v -0.036032779 -0.00043200873 0.014925331
v -0.036034715 -0.00042816927 0.015145289
v -0.036036015 -0.0089268748 0.015293626
v -0.036034079 -0.0089307143 0.015073668
v -0.036034186 -0.0096306077 0.015085884
v -0.036044924 -0.0096093162 0.016305651
v -0.031634356 -0.0096306048 0.015124616
v -0.036034186 -0.0096306077 0.015085884
v -0.036034079 -0.0089307143 0.015073668
v -0.035134114 -0.0089307137 0.01508159
v -0.031634249 -0.0089307114 0.0151124
v -0.037035977 -0.0089268755 0.015284823
v -0.037028496 -0.0089417097 0.014434986
v -0.036928499 -0.0089417097 0.014435866
v -0.036920842 -0.008956893 0.013566032
v -0.035120912 -0.0089568918 0.013581877
v -0.035134114 -0.0089307137 0.01508159
v -0.036034079 -0.0089307143 0.015073668
v -0.036036015 -0.0089268748 0.015293626
v -0.031137262 0.00027661389 0.015456153
v -0.031632842 0.00026788751 0.014951847
v -0.036032672 0.00026788459 0.014913115
v -0.036043409 0.00028917613 0.016132882
v -0.031143599 0.00028917938 0.016176015
v -0.03700924 -0.0096799978 0.012247622
v -0.037007788 -0.00019078277 0.012081996
v -0.037000437 -0.001055488 0.011246992
v -0.037001758 -0.009694832 0.011397784
v -0.031613972 -0.0047202768 0.012808657
v -0.031615466 -0.0044141598 0.012978334
v -0.031618547 -0.0044080516 0.013328267
v -0.031620133 -0.0047080603 0.013508523
v -0.031618639 -0.0050141771 0.013338847
v -0.031615559 -0.0050202853 0.012988913
v -0.031611317 -0.0034753537 0.012506896
v -0.031607291 -0.003058272 0.012049566
v -0.035107156 -0.0030582743 0.012018756
v -0.035111181 -0.0034753561 0.012476087
v -0.036911331 0.00022563845 0.012484995
v -0.036919435 0.00024170588 0.013405479
v -0.032119621 0.00024170907 0.013447732
v -0.032125782 0.00025392552 0.014147598
v -0.031625801 0.00025392586 0.014152
v -0.03112142 0.00024520015 0.013656496
v -0.031111556 0.0002256423 0.01253605
v -0.036911331 0.00022563845 0.012484995
v -0.036907791 -0.00019078271 0.012082877
v -0.036909243 -0.0096799977 0.012248502
v -0.036920949 -0.0096567865 0.013578248
v -0.036920842 -0.008956893 0.013566032
v -0.036928499 -0.0089417097 0.014435866
v -0.036927199 -0.00044300413 0.014287529
v -0.036919542 -0.00045818744 0.013417695
v -0.036919435 0.00024170588 0.013405479
v -0.036914149 -0.0072198996 0.012805631
v -0.036915643 -0.0069137827 0.012975308
v -0.036918723 -0.0069076745 0.013325242
v -0.03692031 -0.0072076831 0.013505498
v -0.036918816 -0.0075137999 0.013335821
v -0.036915736 -0.0075199082 0.012985888
v -0.036913767 -0.0047202803 0.012762003
v -0.036915261 -0.0044141634 0.01293168
v -0.036918341 -0.0044080551 0.013281613
v -0.036919928 -0.0047080639 0.013461869
v -0.036918434 -0.0050141806 0.013292192
v -0.036915353 -0.0050202889 0.012942259
v -0.036913384 -0.0022206611 0.012718374
v -0.036914878 -0.0019145444 0.012888051
v -0.036917959 -0.0019084362 0.013237984
v -0.036919545 -0.0022084446 0.013418241
v -0.036918051 -0.0025145615 0.013248564
v -0.036914971 -0.0025206698 0.012898631
v -0.03112142 0.00024520015 0.013656496
v -0.031625801 0.00025392586 0.014152
v -0.031625908 -0.00044596746 0.014164216
v -0.031121527 -0.00045469317 0.013668712
v -0.031625801 0.00025392586 0.014152
v -0.032125782 0.00025392552 0.014147598
v -0.032125889 -0.0004459678 0.014159814
v -0.031625908 -0.00044596746 0.014164216
v -0.036919435 0.00024170588 0.013405479
v -0.036919542 -0.00045818744 0.013417695
v -0.035119612 -0.00045818624 0.01343354
v -0.032119728 -0.00045818425 0.013459948
v -0.032119621 0.00024170907 0.013447732
v -0.031100665 -0.001055484 0.011298928
v -0.031101987 -0.0096948281 0.01144972
v -0.037001758 -0.009694832 0.011397784
v -0.037000437 -0.001055488 0.011246992
v -0.031632842 0.00026788751 0.014951847
v -0.031137262 0.00027661389 0.015456153
v -0.031137369 -0.00042327943 0.015468369
v -0.031632949 -0.0004320058 0.014964063
v -0.036920842 -0.008956893 0.013566032
v -0.036920949 -0.0096567865 0.013578248
v -0.032121135 -0.0096567833 0.013620501
v -0.032121028 -0.0089568898 0.013608285
v -0.035120912 -0.0089568918 0.013581877
v -0.036034715 -0.00042816927 0.015145289
v -0.037034677 -0.00042816994 0.015136486
v -0.037035977 -0.0089268755 0.015284823
v -0.036036015 -0.0089268748 0.015293626
v -0.031634356 -0.0096306048 0.015124616
v -0.031138776 -0.0096218784 0.015628921
v -0.031145113 -0.009609313 0.016348784
v -0.036044924 -0.0096093162 0.016305651
v -0.036034186 -0.0096306077 0.015085884
v -0.031611699 -0.005974973 0.012550525
v -0.031607804 -0.0064077617 0.012108028
v -0.031607674 -0.0055578911 0.012093194
v -0.035107286 -0.0039081447 0.01203359
v -0.035111181 -0.0034753561 0.012476087
v -0.035107156 -0.0030582743 0.012018756
v -0.0351069 -0.0013835295 0.011989525
v -0.035114683 -0.00046795941 0.012873647
v -0.035119612 -0.00045818624 0.01343354
v -0.035132814 -0.00043200813 0.014933253
v -0.035137215 -0.00042328209 0.015433158
v -0.035138515 -0.0089219876 0.015581495
v -0.035134114 -0.0089307137 0.01508159
v -0.035120912 -0.0089568918 0.013581877
v -0.035115983 -0.008966665 0.013021984
v -0.035107924 -0.0080825089 0.012106449
v -0.035107668 -0.006407764 0.012077218
v -0.035111564 -0.0059749753 0.012519716
v -0.035107538 -0.0055578934 0.012062385
v -0.035114219 -0.0072198984 0.012821476
v -0.035115806 -0.007519907 0.013001733
v -0.035118886 -0.0075137988 0.013351666
v -0.03512038 -0.0072076819 0.013521343
v -0.035118794 -0.0069076733 0.013341086
v -0.035115713 -0.0069137815 0.012991153
v -0.035113837 -0.0047202791 0.012777848
v -0.035115424 -0.0050202877 0.012958104
v -0.035118504 -0.0050141794 0.013308037
v -0.035119998 -0.0047080627 0.013477714
v -0.035118411 -0.0044080539 0.013297458
v -0.035115331 -0.0044141622 0.012947525
v -0.035113455 -0.0022206599 0.012734219
v -0.035115041 -0.0025206686 0.012914476
v -0.035118122 -0.0025145603 0.013264409
v -0.035119615 -0.0022084434 0.013434086
v -0.035118029 -0.001908435 0.013253829
v -0.035114948 -0.0019145432 0.012903896
v -0.035132814 -0.00043200813 0.014933253
v -0.031632949 -0.0004320058 0.014964063
v -0.031137369 -0.00042327943 0.015468369
v -0.03114001 -0.00041804381 0.015768311
v -0.031437358 -0.00042327963 0.015465728
v -0.035137215 -0.00042328209 0.015433158
v -0.036907791 -0.00019078271 0.012082877
v -0.036911331 0.00022563845 0.012484995
v -0.031111556 0.0002256423 0.01253605
v -0.031100665 -0.001055484 0.011298928
v -0.037000437 -0.001055488 0.011246992
v -0.037007788 -0.00019078277 0.012081996
v -0.040314018 -0.0072199018 0.012775702
v -0.040315604 -0.0075199104 0.012955959
v -0.040318685 -0.0075138022 0.013305892
v -0.040320179 -0.0072076854 0.013475569
v -0.040318592 -0.0069076767 0.013295312
v -0.040315512 -0.006913785 0.012945379
v -0.04051841 -0.0072111759 0.013273846
v -0.04051752 -0.0073556215 0.013172708
v -0.040516036 -0.0073040659 0.013004084
v -0.040516009 -0.0071277572 0.013001007
v -0.040517476 -0.007070348 0.013167729
v -0.04051752 -0.0073556215 0.013172708
v -0.040318685 -0.0075138022 0.013305892
v -0.03161359 -0.0022206575 0.012765029
v -0.031615084 -0.0019145409 0.012934706
v -0.031618164 -0.0019084327 0.013284639
v -0.031619751 -0.0022084411 0.013464895
v -0.031618257 -0.002514558 0.013295218
v -0.031615177 -0.0025206662 0.012945285
v -0.031627315 -0.0096445665 0.014324768
v -0.031122934 -0.0096532922 0.013829265
v -0.031122827 -0.0089533987 0.013817049
v -0.031627208 -0.008944673 0.014312552
v -0.032121135 -0.0096567833 0.013620501
v -0.032127296 -0.0096445668 0.014320367
v -0.032127189 -0.0089446733 0.014308151
v -0.032121028 -0.0089568898 0.013608285
v -0.031408067 -0.0080825065 0.012139019
v -0.035107924 -0.0080825089 0.012106449
v -0.035115983 -0.008966665 0.013021984
v -0.031116138 -0.0089666623 0.013057195
v -0.031108079 -0.0080825063 0.01214166
v -0.031607804 -0.0064077617 0.012108028
v -0.031611699 -0.005974973 0.012550525
v -0.035111564 -0.0059749753 0.012519716
v -0.035107668 -0.006407764 0.012077218
v -0.031105439 -0.0080877419 0.011841718
v -0.031108079 -0.0080825063 0.01214166
v -0.031116138 -0.0089666623 0.013057195
v -0.031122827 -0.0089533987 0.013817049
v -0.031122934 -0.0096532922 0.013829265
v -0.031101987 -0.0096948281 0.01144972
v -0.031100665 -0.001055484 0.011298928
v -0.031111556 0.0002256423 0.01253605
v -0.03112142 0.00024520015 0.013656496
v -0.031121527 -0.00045469317 0.013668712
v -0.031114838 -0.00046795675 0.012908858
v -0.031107054 -0.0013835269 0.012024736
v -0.031104414 -0.0013887625 0.011724793
v -0.040518028 -0.0047115567 0.013230218
v -0.040517094 -0.0045707289 0.013124101
v -0.040515626 -0.004628138 0.012957378
v -0.040515653 -0.0048044467 0.012960456
v -0.040517138 -0.0048560023 0.01312908
v -0.031408067 -0.0080825065 0.012139019
v -0.031108079 -0.0080825063 0.01214166
v -0.031105439 -0.0080877419 0.011841718
v -0.03161359 -0.0022206575 0.012765029
v -0.031615177 -0.0025206662 0.012945285
v -0.031618257 -0.002514558 0.013295218
v -0.031619751 -0.0022084411 0.013464895
v -0.031618164 -0.0019084327 0.013284639
v -0.031615084 -0.0019145409 0.012934706
v -0.035113455 -0.0022206599 0.012734219
v -0.035114948 -0.0019145432 0.012903896
v -0.035118029 -0.001908435 0.013253829
v -0.035119615 -0.0022084434 0.013434086
v -0.035118122 -0.0025145603 0.013264409
v -0.035115041 -0.0025206686 0.012914476
v -0.035113455 -0.0022206599 0.012734219
v -0.03161359 -0.0022206575 0.012765029
v -0.031143599 0.00028917938 0.016176015
v -0.036043409 0.00028917613 0.016132882
v -0.036044924 -0.0096093162 0.016305651
v -0.031145113 -0.009609313 0.016348784
v -0.031114838 -0.00046795675 0.012908858
v -0.035114683 -0.00046795941 0.012873647
v -0.0351069 -0.0013835295 0.011989525
v -0.031407043 -0.0013835271 0.012022095
v -0.031107054 -0.0013835269 0.012024736
v -0.031437358 -0.00042327963 0.015465728
v -0.03114001 -0.00041804381 0.015768311
v -0.03114131 -0.0089167494 0.015916648
v -0.031438658 -0.0089219852 0.015614065
v -0.04051841 -0.0072111759 0.013273846
v -0.040517476 -0.007070348 0.013167729
v -0.040516009 -0.0071277572 0.013001007
v -0.040516036 -0.0073040659 0.013004084
v -0.04051752 -0.0073556215 0.013172708
v -0.037034677 -0.00042816994 0.015136486
v -0.037027195 -0.0004430042 0.014286649
v -0.037028496 -0.0089417097 0.014434986
v -0.037035977 -0.0089268755 0.015284823
v -0.036032672 0.00026788459 0.014913115
v -0.031632842 0.00026788751 0.014951847
v -0.031632949 -0.0004320058 0.014964063
v -0.035132814 -0.00043200813 0.014933253
v -0.036032779 -0.00043200873 0.014925331
v -0.036913767 -0.0047202803 0.012762003
v -0.036915353 -0.0050202889 0.012942259
v -0.036918434 -0.0050141806 0.013292192
v -0.036919928 -0.0047080639 0.013461869
v -0.036918341 -0.0044080551 0.013281613
v -0.036915261 -0.0044141634 0.01293168
v -0.040313635 -0.0047202826 0.012732074
v -0.040315129 -0.0044141656 0.012901751
v -0.04031821 -0.0044080574 0.013251684
v -0.040319796 -0.0047080661 0.01343194
v -0.040318302 -0.0050141829 0.013262263
v -0.040315222 -0.0050202911 0.01291233
v -0.040313635 -0.0047202826 0.012732074
v -0.036913767 -0.0047202803 0.012762003
v -0.036907791 -0.00019078271 0.012082877
v -0.037007788 -0.00019078277 0.012081996
v -0.03700924 -0.0096799978 0.012247622
v -0.036909243 -0.0096799977 0.012248502
v -0.031408067 -0.0080825065 0.012139019
v -0.031105439 -0.0080877419 0.011841718
v -0.031104414 -0.0013887625 0.011724793
v -0.031407043 -0.0013835271 0.012022095
v -0.031107054 -0.0013835269 0.012024736
v -0.031407043 -0.0013835271 0.012022095
v -0.031104414 -0.0013887625 0.011724793
v -0.035138515 -0.0089219876 0.015581495
v -0.031438658 -0.0089219852 0.015614065
v -0.03114131 -0.0089167494 0.015916648
v -0.031138669 -0.008921985 0.015616706
v -0.031634249 -0.0089307114 0.0151124
v -0.035134114 -0.0089307137 0.01508159
v -0.032127189 -0.0089446733 0.014308151
v -0.031627208 -0.008944673 0.014312552
v -0.031122827 -0.0089533987 0.013817049
v -0.031116138 -0.0089666623 0.013057195
v -0.035115983 -0.008966665 0.013021984
v -0.035120912 -0.0089568918 0.013581877
v -0.032121028 -0.0089568898 0.013608285
v -0.031614355 -0.007219896 0.012852286
v -0.031615849 -0.0069137792 0.013021963
v -0.031618929 -0.006907671 0.013371896
v -0.031620516 -0.0072076796 0.013552152
v -0.031619022 -0.0075137964 0.013382475
v -0.031615941 -0.0075199047 0.013032542
v -0.036914149 -0.0072198996 0.012805631
v -0.036915736 -0.0075199082 0.012985888
v -0.036918816 -0.0075137999 0.013335821
v -0.03692031 -0.0072076831 0.013505498
v -0.036918723 -0.0069076745 0.013325242
v -0.036915643 -0.0069137827 0.012975308
v -0.040314018 -0.0072199018 0.012775702
v -0.040315512 -0.006913785 0.012945379
v -0.040318592 -0.0069076767 0.013295312
v -0.040320179 -0.0072076854 0.013475569
v -0.040318685 -0.0075138022 0.013305892
v -0.040315604 -0.0075199104 0.012955959
v -0.040314018 -0.0072199018 0.012775702
v -0.036914149 -0.0072198996 0.012805631
v -0.031614355 -0.007219896 0.012852286
v -0.031615941 -0.0075199047 0.013032542
v -0.031619022 -0.0075137964 0.013382475
v -0.031620516 -0.0072076796 0.013552152
v -0.031618929 -0.006907671 0.013371896
v -0.031615849 -0.0069137792 0.013021963
v -0.035114219 -0.0072198984 0.012821476
v -0.035115713 -0.0069137815 0.012991153
v -0.035118794 -0.0069076733 0.013341086
v -0.03512038 -0.0072076819 0.013521343
v -0.035118886 -0.0075137988 0.013351666
v -0.035115806 -0.007519907 0.013001733
v -0.035114219 -0.0072198984 0.012821476
v -0.031614355 -0.007219896 0.012852286
v -0.031611699 -0.005974973 0.012550525
v -0.031607674 -0.0055578911 0.012093194
v -0.035107538 -0.0055578934 0.012062385
v -0.035111564 -0.0059749753 0.012519716
v -0.036927199 -0.00044300413 0.014287529
v -0.037027195 -0.0004430042 0.014286649
v -0.037034677 -0.00042816994 0.015136486
v -0.036034715 -0.00042816927 0.015145289
v -0.036032779 -0.00043200873 0.014925331
v -0.035132814 -0.00043200813 0.014933253
v -0.035119612 -0.00045818624 0.01343354
v -0.036919542 -0.00045818744 0.013417695
v -0.032125889 -0.0004459678 0.014159814
v -0.032119728 -0.00045818425 0.013459948
v -0.035119612 -0.00045818624 0.01343354
v -0.035114683 -0.00046795941 0.012873647
v -0.031114838 -0.00046795675 0.012908858
v -0.031121527 -0.00045469317 0.013668712
v -0.031625908 -0.00044596746 0.014164216
v -0.031138776 -0.0096218784 0.015628921
v -0.031634356 -0.0096306048 0.015124616
v -0.031634249 -0.0089307114 0.0151124
v -0.031138669 -0.008921985 0.015616706
v -0.032125782 0.00025392552 0.014147598
v -0.032119621 0.00024170907 0.013447732
v -0.032119728 -0.00045818425 0.013459948
v -0.032125889 -0.0004459678 0.014159814
v -0.035137215 -0.00042328209 0.015433158
v -0.031437358 -0.00042327963 0.015465728
v -0.031438658 -0.0089219852 0.015614065
v -0.035138515 -0.0089219876 0.015581495
v -0.031613972 -0.0047202768 0.012808657
v -0.031615559 -0.0050202853 0.012988913
v -0.031618639 -0.0050141771 0.013338847
v -0.031620133 -0.0047080603 0.013508523
v -0.031618547 -0.0044080516 0.013328267
v -0.031615466 -0.0044141598 0.012978334
v -0.035113837 -0.0047202791 0.012777848
v -0.035115331 -0.0044141622 0.012947525
v -0.035118411 -0.0044080539 0.013297458
v -0.035119998 -0.0047080627 0.013477714
v -0.035118504 -0.0050141794 0.013308037
v -0.035115424 -0.0050202877 0.012958104
v -0.035113837 -0.0047202791 0.012777848
v -0.031613972 -0.0047202768 0.012808657
v -0.040313253 -0.0022206633 0.012688445
v -0.040314839 -0.002520672 0.012868702
v -0.04031792 -0.0025145638 0.013218635
v -0.040319414 -0.0022084469 0.013388312
v -0.040317827 -0.0019084384 0.013208055
v -0.040314747 -0.0019145467 0.012858122
v -0.040517646 -0.0022119374 0.013186589
v -0.040516755 -0.0023563829 0.013085451
v -0.040515271 -0.0023048274 0.012916827
v -0.040515244 -0.0021285187 0.01291375
v -0.040516712 -0.0020711096 0.013080472
v -0.040516755 -0.0023563829 0.013085451
v -0.04031792 -0.0025145638 0.013218635
v -0.036920949 -0.0096567865 0.013578248
v -0.036909243 -0.0096799977 0.012248502
v -0.03700924 -0.0096799978 0.012247622
v -0.037001758 -0.009694832 0.011397784
v -0.031101987 -0.0096948281 0.01144972
v -0.031122934 -0.0096532922 0.013829265
v -0.031627315 -0.0096445665 0.014324768
v -0.032127296 -0.0096445668 0.014320367
v -0.032121135 -0.0096567833 0.013620501
v -0.036913384 -0.0022206611 0.012718374
v -0.036914971 -0.0025206698 0.012898631
v -0.036918051 -0.0025145615 0.013248564
v -0.036919545 -0.0022084446 0.013418241
v -0.036917959 -0.0019084362 0.013237984
v -0.036914878 -0.0019145444 0.012888051
v -0.040313253 -0.0022206633 0.012688445
v -0.040314747 -0.0019145467 0.012858122
v -0.040317827 -0.0019084384 0.013208055
v -0.040319414 -0.0022084469 0.013388312
v -0.04031792 -0.0025145638 0.013218635
v -0.040314839 -0.002520672 0.012868702
v -0.040313253 -0.0022206633 0.012688445
v -0.036913384 -0.0022206611 0.012718374
v -0.031611317 -0.0034753537 0.012506896
v -0.031607421 -0.0039081423 0.012064399
v -0.031607291 -0.003058272 0.012049566
f 464 465 463
f 463 465 470
f 470 465 466
f 470 466 469
f 469 466 468
f 468 466 467
f 472 473 471
f 471 473 474
f 475 476 478
f 478 476 477
f 479 480 482
f 482 480 481
f 484 491 483
f 483 491 492
f 483 492 488
f 488 492 493
f 488 493 487
f 487 493 489
f 487 489 486
f 486 489 485
f 485 489 494
f 495 490 484
f 484 490 491
f 497 498 496
f 496 498 499
f 496 499 504
f 504 499 503
f 503 499 500
f 503 500 502
f 502 500 501
f 496 504 507
f 507 504 505
f 507 505 506
f 508 509 512
f 512 509 511
f 511 509 510
f 514 516 513
f 513 516 517
f 513 517 520
f 520 517 519
f 519 517 518
f 514 515 516
f 525 521 524
f 524 521 522
f 524 522 523
f 527 528 526
f 526 528 532
f 526 532 533
f 529 530 528
f 528 530 532
f 530 531 532
f 535 536 534
f 534 536 537
f 534 537 538
f 540 541 539
f 539 541 542
f 544 545 543
f 543 545 546
f 543 546 548
f 548 546 547
f 550 551 549
f 549 551 552
f 554 555 553
f 553 555 559
f 559 555 558
f 558 555 556
f 558 556 557
f 561 581 560
f 560 581 582
f 560 582 568
f 568 582 567
f 567 582 583
f 567 583 584
f 581 561 575
f 575 561 562
f 575 562 569
f 569 562 574
f 574 562 563
f 574 563 564
f 565 572 564
f 564 572 573
f 564 573 574
f 572 565 578
f 578 565 566
f 578 566 584
f 584 566 567
f 575 569 580
f 580 569 570
f 580 570 579
f 579 570 571
f 579 571 578
f 578 571 572
f 581 575 586
f 586 575 576
f 586 576 585
f 585 576 577
f 585 577 584
f 584 577 578
f 588 589 587
f 587 589 590
f 592 593 591
f 591 593 594
f 596 597 595
f 595 597 599
f 599 597 598
f 600 601 603
f 603 601 602
f 605 606 604
f 604 606 607
f 608 609 612
f 612 609 610
f 612 610 611
f 614 615 613
f 613 615 616
f 617 618 621
f 621 618 620
f 620 618 619
f 622 623 624
f 640 625 647
f 647 625 626
f 647 626 652
f 652 626 654
f 652 654 655
f 654 626 653
f 653 626 627
f 653 627 628
f 628 629 653
f 653 629 658
f 658 629 657
f 657 629 630
f 657 630 656
f 656 630 631
f 656 631 650
f 650 631 634
f 650 634 644
f 644 634 635
f 644 635 643
f 643 635 636
f 643 636 642
f 642 636 641
f 641 636 637
f 641 637 638
f 631 632 634
f 634 632 633
f 638 639 641
f 641 639 646
f 646 639 648
f 646 648 649
f 648 639 647
f 647 639 640
f 644 645 650
f 650 645 649
f 649 645 646
f 656 650 655
f 655 650 651
f 655 651 652
f 659 660 664
f 664 660 663
f 663 660 661
f 663 661 662
f 666 667 665
f 665 667 668
f 665 668 669
f 669 670 665
f 672 679 671
f 671 679 680
f 671 680 676
f 676 680 681
f 676 681 675
f 675 681 677
f 675 677 674
f 674 677 673
f 673 677 682
f 683 678 672
f 672 678 679
f 685 686 684
f 684 686 687
f 684 687 689
f 689 687 688
f 691 692 690
f 690 692 693
f 694 695 697
f 697 695 696
f 699 700 698
f 698 700 701
f 698 701 702
f 703 704 706
f 706 704 705
f 708 712 707
f 707 712 713
f 707 713 719
f 719 713 714
f 719 714 718
f 718 714 717
f 717 714 715
f 717 715 716
f 708 709 712
f 712 709 711
f 711 709 710
f 720 721 724
f 724 721 723
f 723 721 722
f 725 726 727
f 729 739 728
f 728 739 740
f 741 734 733
f 733 734 735
f 733 735 732
f 732 735 736
f 732 736 731
f 731 736 737
f 731 737 730
f 730 737 738
f 730 738 729
f 729 738 739
f 743 744 742
f 742 744 745
f 750 746 749
f 749 746 747
f 749 747 748
f 752 753 751
f 751 753 754
f 755 756 759
f 759 756 758
f 758 756 757
f 761 762 760
f 760 762 763
f 768 764 767
f 767 764 765
f 767 765 766
f 770 780 769
f 769 780 781
f 782 775 774
f 774 775 776
f 774 776 773
f 773 776 777
f 773 777 772
f 772 777 778
f 772 778 771
f 771 778 779
f 771 779 770
f 770 779 780
f 783 784 786
f 786 784 785
f 787 788 790
f 790 788 789
f 791 792 793
f 799 794 798
f 798 794 795
f 798 795 797
f 797 795 796
f 801 802 800
f 800 802 806
f 806 802 803
f 806 803 804
f 804 805 806
f 808 809 807
f 807 809 810
f 807 810 812
f 812 810 811
f 814 824 813
f 813 824 825
f 826 819 818
f 818 819 820
f 818 820 817
f 817 820 821
f 817 821 816
f 816 821 822
f 816 822 815
f 815 822 823
f 815 823 814
f 814 823 824
f 828 838 827
f 827 838 839
f 840 833 832
f 832 833 834
f 832 834 831
f 831 834 835
f 831 835 830
f 830 835 836
f 830 836 829
f 829 836 837
f 829 837 828
f 828 837 838
f 842 843 841
f 841 843 844
f 846 847 845
f 845 847 849
f 845 849 851
f 851 849 850
f 847 848 849
f 851 852 845
f 859 853 858
f 858 853 854
f 858 854 857
f 857 854 856
f 856 854 855
f 861 862 860
f 860 862 863
f 864 865 867
f 867 865 866
f 868 869 871
f 871 869 870
f 873 883 872
f 872 883 884
f 885 878 877
f 877 878 879
f 877 879 876
f 876 879 880
f 876 880 875
f 875 880 881
f 875 881 874
f 874 881 882
f 874 882 873
f 873 882 883
f 887 894 886
f 886 894 895
f 886 895 891
f 891 895 896
f 891 896 890
f 890 896 892
f 890 892 889
f 889 892 888
f 888 892 897
f 898 893 887
f 887 893 894
f 899 900 907
f 907 900 903
f 907 903 904
f 901 902 900
f 900 902 903
f 904 905 907
f 907 905 906
f 909 919 908
f 908 919 920
f 921 914 913
f 913 914 915
f 913 915 912
f 912 915 916
f 912 916 911
f 911 916 917
f 911 917 910
f 910 917 918
f 910 918 909
f 909 918 919
f 922 923 924
