v 0.01 -0.072999992 -0.027999985
v 0.01 -0.072999992 -0.038000004
v 0.01 0.072999992 -0.038000004
v 0.01 0.072999992 -0.027999985
v 0.01 0.072999992 -0.027999985
v 0.01 0.072999992 -0.038000004
v -0.01 0.072999992 -0.038000004
v -0.01 0.072999992 -0.027999985
v -0.01 0.072999992 -0.027999985
v -0.01 0.072999992 -0.038000004
v -0.01 -0.072999992 -0.038000004
v -0.01 -0.072999992 -0.027999985
v -0.01 -0.072999992 -0.027999985
v -0.01 -0.072999992 -0.038000004
v 0.01 -0.072999992 -0.038000004
v 0.01 -0.072999992 -0.027999985
v 0.01 0.072999992 -0.038000004
v 0.01 -0.072999992 -0.038000004
v -0.01 -0.072999992 -0.038000004
v -0.01 0.072999992 -0.038000004
v 0.01 -0.072999992 -0.027999985
v 0.01 0.072999992 -0.027999985
v -0.01 0.072999992 -0.027999985
v -0.01 -0.072999992 -0.027999985
f 1 2 4
f 4 2 3
f 5 6 8
f 8 6 7
f 9 10 12
f 12 10 11
f 13 14 16
f 16 14 15
f 18 19 17
f 17 19 20
f 22 23 21
f 21 23 24
v 0.0080000305 -0.0079999924 -0.0099999924
v 0.0080000305 -0.0079999924 -0.027999985
v 0.0080000305 0.0079999924 -0.027999985
v 0.0080000305 0.0079999924 -0.0099999924
v 0.0080000305 0.0079999924 -0.0099999924
v 0.0080000305 0.0079999924 -0.027999985
v -0.0080000305 0.0079999924 -0.027999985
v -0.0080000305 0.0079999924 -0.0099999924
v -0.0080000305 0.0079999924 -0.0099999924
v -0.0080000305 0.0079999924 -0.027999985
v -0.0080000305 -0.0079999924 -0.027999985
v -0.0080000305 -0.0079999924 -0.0099999924
v -0.0080000305 -0.0079999924 -0.0099999924
v -0.0080000305 -0.0079999924 -0.027999985
v 0.0080000305 -0.0079999924 -0.027999985
v 0.0080000305 -0.0079999924 -0.0099999924
v 0.0080000305 0.0079999924 -0.027999985
v 0.0080000305 -0.0079999924 -0.027999985
v -0.0080000305 -0.0079999924 -0.027999985
v -0.0080000305 0.0079999924 -0.027999985
v 0.0080000305 -0.0079999924 -0.0099999924
v 0.0080000305 0.0079999924 -0.0099999924
v -0.0080000305 0.0079999924 -0.0099999924
v -0.0080000305 -0.0079999924 -0.0099999924
f 25 26 28
f 28 26 27
f 29 30 32
f 32 30 31
f 33 34 36
f 36 34 35
f 37 38 40
f 40 38 39
f 42 43 41
f 41 43 44
f 46 47 45
f 45 47 48
v 0.011999969 -0.073999996 -0.058399994
v 0.011999969 -0.072999992 -0.05813205
v 0.011999969 -0.072267952 -0.057400009
v 0.011999969 -0.072000008 -0.056400005
v 0.011999969 -0.072267952 -0.055400002
v 0.011999969 -0.072999992 -0.054667942
v 0.011999969 -0.073999996 -0.054399998
v 0.011999969 -0.075 -0.054667942
v 0.011999969 -0.075732059 -0.055400002
v 0.011999969 -0.076000004 -0.056400005
v 0.011999969 -0.075732059 -0.057400009
v 0.011999969 -0.075 -0.05813205
v -0.0069999695 -0.073999996 -0.058399994
v -0.0069999695 -0.075 -0.05813205
v -0.0069999695 -0.075732059 -0.057400009
v -0.0069999695 -0.076000004 -0.056400005
v -0.0069999695 -0.075732059 -0.055400002
v -0.0069999695 -0.075 -0.054667942
v -0.0069999695 -0.073999996 -0.054399998
v -0.0069999695 -0.072999992 -0.054667942
v -0.0069999695 -0.072267952 -0.055400002
v -0.0069999695 -0.072000008 -0.056400005
v -0.0069999695 -0.072267952 -0.057400009
v -0.0069999695 -0.072999992 -0.05813205
v -0.0069999695 -0.073999996 -0.058399994
v -0.0069999695 -0.072999992 -0.05813205
v -0.0069999695 -0.072267952 -0.057400009
v -0.0069999695 -0.072000008 -0.056400005
v -0.0069999695 -0.072267952 -0.055400002
v -0.0069999695 -0.072999992 -0.054667942
v -0.0069999695 -0.073999996 -0.054399998
v -0.0069999695 -0.075 -0.054667942
v -0.0069999695 -0.075732059 -0.055400002
v -0.0069999695 -0.076000004 -0.056400005
v -0.0069999695 -0.075732059 -0.057400009
v -0.0069999695 -0.075 -0.05813205
v 0.011999969 -0.073999996 -0.058399994
v 0.011999969 -0.075 -0.05813205
v 0.011999969 -0.075732059 -0.057400009
v 0.011999969 -0.076000004 -0.056400005
v 0.011999969 -0.075732059 -0.055400002
v 0.011999969 -0.075 -0.054667942
v 0.011999969 -0.073999996 -0.054399998
v 0.011999969 -0.072999992 -0.054667942
v 0.011999969 -0.072267952 -0.055400002
v 0.011999969 -0.072000008 -0.056400005
v 0.011999969 -0.072267952 -0.057400009
v 0.011999969 -0.072999992 -0.05813205
v -0.0069999695 -0.073999996 -0.054399998
v 0.011999969 -0.073999996 -0.054399998
f 50 54 49
f 49 54 55
f 49 55 60
f 60 55 56
f 60 56 59
f 59 56 57
f 59 57 58
f 54 50 53
f 53 50 51
f 53 51 52
f 62 66 61
f 61 66 67
f 61 67 72
f 72 67 68
f 72 68 71
f 71 68 69
f 71 69 70
f 66 62 65
f 65 62 63
f 65 63 64
f 74 96 73
f 73 96 85
f 73 85 84
f 84 85 86
f 84 86 83
f 83 86 87
f 83 87 82
f 82 87 88
f 82 88 81
f 81 88 89
f 81 89 80
f 80 89 90
f 80 90 79
f 79 90 98
f 97 91 78
f 78 91 92
f 78 92 77
f 77 92 93
f 77 93 76
f 76 93 94
f 76 94 75
f 75 94 95
f 75 95 74
f 74 95 96
v 0.011999969 -0.076000004 -0.034000008
v 0.011999969 -0.076000004 -0.056400005
v 0.011999969 -0.072000008 -0.056400005
v 0.011999969 -0.072000008 -0.034000008
v 0.011999969 -0.072000008 -0.034000008
v 0.011999969 -0.072000008 -0.056400005
v 0.0080000305 -0.072000008 -0.056400005
v 0.0080000305 -0.072000008 -0.034000008
v 0.0080000305 -0.072000008 -0.034000008
v 0.0080000305 -0.072000008 -0.056400005
v 0.0080000305 -0.076000004 -0.056400005
v 0.0080000305 -0.076000004 -0.034000008
v 0.0080000305 -0.076000004 -0.034000008
v 0.0080000305 -0.076000004 -0.056400005
v 0.011999969 -0.076000004 -0.056400005
v 0.011999969 -0.076000004 -0.034000008
v 0.011999969 -0.072000008 -0.056400005
v 0.011999969 -0.076000004 -0.056400005
v 0.0080000305 -0.076000004 -0.056400005
v 0.0080000305 -0.072000008 -0.056400005
v 0.011999969 -0.076000004 -0.034000008
v 0.011999969 -0.072000008 -0.034000008
v 0.0080000305 -0.072000008 -0.034000008
v 0.0080000305 -0.076000004 -0.034000008
f 99 100 102
f 102 100 101
f 103 104 106
f 106 104 105
f 107 108 110
f 110 108 109
f 111 112 114
f 114 112 113
f 116 117 115
f 115 117 118
f 120 121 119
f 119 121 122
v 0.011999969 0.074000015 -0.058399994
v 0.011999969 0.075 -0.05813205
v 0.011999969 0.07573204 -0.057400009
v 0.011999969 0.075999985 -0.056400005
v 0.011999969 0.07573204 -0.055400002
v 0.011999969 0.075 -0.054667942
v 0.011999969 0.074000015 -0.054399998
v 0.011999969 0.072999992 -0.054667942
v 0.011999969 0.072267952 -0.055400002
v 0.011999969 0.072000008 -0.056400005
v 0.011999969 0.072267952 -0.057400009
v 0.011999969 0.072999992 -0.05813205
v -0.0069999695 0.074000015 -0.058399994
v -0.0069999695 0.072999992 -0.05813205
v -0.0069999695 0.072267952 -0.057400009
v -0.0069999695 0.072000008 -0.056400005
v -0.0069999695 0.072267952 -0.055400002
v -0.0069999695 0.072999992 -0.054667942
v -0.0069999695 0.074000015 -0.054399998
v -0.0069999695 0.075 -0.054667942
v -0.0069999695 0.07573204 -0.055400002
v -0.0069999695 0.075999985 -0.056400005
v -0.0069999695 0.07573204 -0.057400009
v -0.0069999695 0.075 -0.05813205
v -0.0069999695 0.074000015 -0.058399994
v -0.0069999695 0.075 -0.05813205
v -0.0069999695 0.07573204 -0.057400009
v -0.0069999695 0.075999985 -0.056400005
v -0.0069999695 0.07573204 -0.055400002
v -0.0069999695 0.075 -0.054667942
v -0.0069999695 0.074000015 -0.054399998
v -0.0069999695 0.072999992 -0.054667942
v -0.0069999695 0.072267952 -0.055400002
v -0.0069999695 0.072000008 -0.056400005
v -0.0069999695 0.072267952 -0.057400009
v -0.0069999695 0.072999992 -0.05813205
v 0.011999969 0.074000015 -0.058399994
v 0.011999969 0.072999992 -0.05813205
v 0.011999969 0.072267952 -0.057400009
v 0.011999969 0.072000008 -0.056400005
v 0.011999969 0.072267952 -0.055400002
v 0.011999969 0.072999992 -0.054667942
v 0.011999969 0.074000015 -0.054399998
v 0.011999969 0.075 -0.054667942
v 0.011999969 0.07573204 -0.055400002
v 0.011999969 0.075999985 -0.056400005
v 0.011999969 0.07573204 -0.057400009
v 0.011999969 0.075 -0.05813205
v -0.0069999695 0.074000015 -0.054399998
v 0.011999969 0.074000015 -0.054399998
f 124 128 123
f 123 128 129
f 123 129 134
f 134 129 130
f 134 130 133
f 133 130 131
f 133 131 132
f 128 124 127
f 127 124 125
f 127 125 126
f 136 140 135
f 135 140 141
f 135 141 146
f 146 141 142
f 146 142 145
f 145 142 143
f 145 143 144
f 140 136 139
f 139 136 137
f 139 137 138
f 148 170 147
f 147 170 159
f 147 159 158
f 158 159 160
f 158 160 157
f 157 160 161
f 157 161 156
f 156 161 162
f 156 162 155
f 155 162 163
f 155 163 154
f 154 163 164
f 154 164 153
f 153 164 172
f 171 165 152
f 152 165 166
f 152 166 151
f 151 166 167
f 151 167 150
f 150 167 168
f 150 168 149
f 149 168 169
f 149 169 148
f 148 169 170
v 0.011999969 0.072000008 -0.034000008
v 0.011999969 0.072000008 -0.056400005
v 0.011999969 0.075999985 -0.056400005
v 0.011999969 0.075999985 -0.034000008
v 0.011999969 0.075999985 -0.034000008
v 0.011999969 0.075999985 -0.056400005
v 0.0080000305 0.075999985 -0.056400005
v 0.0080000305 0.075999985 -0.034000008
v 0.0080000305 0.075999985 -0.034000008
v 0.0080000305 0.075999985 -0.056400005
v 0.0080000305 0.072000008 -0.056400005
v 0.0080000305 0.072000008 -0.034000008
v 0.0080000305 0.072000008 -0.034000008
v 0.0080000305 0.072000008 -0.056400005
v 0.011999969 0.072000008 -0.056400005
v 0.011999969 0.072000008 -0.034000008
v 0.011999969 0.075999985 -0.056400005
v 0.011999969 0.072000008 -0.056400005
v 0.0080000305 0.072000008 -0.056400005
v 0.0080000305 0.075999985 -0.056400005
v 0.011999969 0.072000008 -0.034000008
v 0.011999969 0.075999985 -0.034000008
v 0.0080000305 0.075999985 -0.034000008
v 0.0080000305 0.072000008 -0.034000008
f 173 174 176
f 176 174 175
f 177 178 180
f 180 178 179
f 181 182 184
f 184 182 183
f 185 186 188
f 188 186 187
f 190 191 189
f 189 191 192
f 194 195 193
f 193 195 196
