v -0.206 -0.1528575 0.116
v -0.206 0.3571425 0.116
v 0.49885002 0.3571425 0.116
v 0.49885002 -0.1528575 0.116
v -0.206 0.3571425 0.122
v -0.206 -0.1528575 0.122
v 0.49885002 -0.1528575 0.122
v 0.49885002 0.3571425 0.122
v -0.206 0.3571425 0.116
v -0.206 -0.1528575 0.116
v -0.206 -0.1528575 0.122
v -0.206 0.3571425 0.122
v -0.206 -0.1528575 0.116
v 0.49885002 -0.1528575 0.116
v 0.49885002 -0.1528575 0.122
v -0.206 -0.1528575 0.122
v 0.49885002 -0.1528575 0.116
v 0.49885002 0.3571425 0.116
v 0.49885002 0.3571425 0.122
v 0.49885002 -0.1528575 0.122
v 0.49885002 0.3571425 0.116
v -0.206 0.3571425 0.116
v -0.206 0.3571425 0.122
v 0.49885002 0.3571425 0.122
f 2 3 1
f 1 3 4
f 6 7 5
f 5 7 8
f 9 10 12
f 12 10 11
f 13 14 16
f 16 14 15
f 17 18 20
f 20 18 19
f 21 22 24
f 24 22 23
v 0.040074997 -0.3648575 0.116
v 0.040074997 -0.16485751 0.116
v 0.252775 -0.16485751 0.116
v 0.252775 -0.3648575 0.116
v 0.040074997 -0.16485751 0.122
v 0.040074997 -0.3648575 0.122
v 0.252775 -0.3648575 0.122
v 0.252775 -0.16485751 0.122
v 0.040074997 -0.16485751 0.116
v 0.040074997 -0.3648575 0.116
v 0.040074997 -0.3648575 0.122
v 0.040074997 -0.16485751 0.122
v 0.040074997 -0.3648575 0.116
v 0.252775 -0.3648575 0.116
v 0.252775 -0.3648575 0.122
v 0.040074997 -0.3648575 0.122
v 0.252775 -0.3648575 0.116
v 0.252775 -0.16485751 0.116
v 0.252775 -0.16485751 0.122
v 0.252775 -0.3648575 0.122
v 0.252775 -0.16485751 0.116
v 0.040074997 -0.16485751 0.116
v 0.040074997 -0.16485751 0.122
v 0.252775 -0.16485751 0.122
f 26 27 25
f 25 27 28
f 30 31 29
f 29 31 32
f 33 34 36
f 36 34 35
f 37 38 40
f 40 38 39
f 41 42 44
f 44 42 43
f 45 46 48
f 48 46 47
