v -0.043500004 -0.016 -0.025
v -0.043279762 -0.014609428 -0.025
v -0.042640572 -0.013354965 -0.025
v -0.041645031 -0.012359425 -0.025
v -0.040390568 -0.011720253 -0.025
v -0.038999996 -0.011499992 -0.025
v -0.037609425 -0.011720253 -0.025
v -0.036354961 -0.012359425 -0.025
v -0.035359421 -0.013354965 -0.025
v -0.034720249 -0.014609428 -0.025
v -0.034500008 -0.016 -0.025
v -0.034720249 -0.017390572 -0.025
v -0.035359421 -0.018645035 -0.025
v -0.036354961 -0.019640575 -0.025
v -0.037609425 -0.020279747 -0.025
v -0.038999996 -0.020500008 -0.025
v -0.040390568 -0.020279747 -0.025
v -0.041645031 -0.019640575 -0.025
v -0.042640572 -0.018645035 -0.025
v -0.043279762 -0.017390572 -0.025
v -0.043500004 -0.016 -0.017000008
v -0.043279762 -0.017390572 -0.017000008
v -0.042640572 -0.018645035 -0.017000008
v -0.041645031 -0.019640575 -0.017000008
v -0.040390568 -0.020279747 -0.017000008
v -0.038999996 -0.020500008 -0.017000008
v -0.037609425 -0.020279747 -0.017000008
v -0.036354961 -0.019640575 -0.017000008
v -0.035359421 -0.018645035 -0.017000008
v -0.034720249 -0.017390572 -0.017000008
v -0.034500008 -0.016 -0.017000008
v -0.034720249 -0.014609428 -0.017000008
v -0.035359421 -0.013354965 -0.017000008
v -0.036354961 -0.012359425 -0.017000008
v -0.037609425 -0.011720253 -0.017000008
v -0.038999996 -0.011499992 -0.017000008
v -0.040390568 -0.011720253 -0.017000008
v -0.041645031 -0.012359425 -0.017000008
v -0.042640572 -0.013354965 -0.017000008
v -0.043279762 -0.014609428 -0.017000008
v -0.043500004 -0.016 -0.017000008
v -0.043279762 -0.014609428 -0.017000008
v -0.042640572 -0.013354965 -0.017000008
v -0.041645031 -0.012359425 -0.017000008
v -0.040390568 -0.011720253 -0.017000008
v -0.038999996 -0.011499992 -0.017000008
v -0.037609425 -0.011720253 -0.017000008
v -0.036354961 -0.012359425 -0.017000008
v -0.035359421 -0.013354965 -0.017000008
v -0.034720249 -0.014609428 -0.017000008
v -0.034500008 -0.016 -0.017000008
v -0.034720249 -0.017390572 -0.017000008
v -0.035359421 -0.018645035 -0.017000008
v -0.036354961 -0.019640575 -0.017000008
v -0.037609425 -0.020279747 -0.017000008
v -0.038999996 -0.020500008 -0.017000008
v -0.040390568 -0.020279747 -0.017000008
v -0.041645031 -0.019640575 -0.017000008
v -0.042640572 -0.018645035 -0.017000008
v -0.043279762 -0.017390572 -0.017000008
v -0.043500004 -0.016 -0.025
v -0.043279762 -0.017390572 -0.025
v -0.042640572 -0.018645035 -0.025
v -0.041645031 -0.019640575 -0.025
v -0.040390568 -0.020279747 -0.025
v -0.038999996 -0.020500008 -0.025
v -0.037609425 -0.020279747 -0.025
v -0.036354961 -0.019640575 -0.025
v -0.035359421 -0.018645035 -0.025
v -0.034720249 -0.017390572 -0.025
v -0.034500008 -0.016 -0.025
v -0.034720249 -0.014609428 -0.025
v -0.035359421 -0.013354965 -0.025
v -0.036354961 -0.012359425 -0.025
v -0.037609425 -0.011720253 -0.025
v -0.038999996 -0.011499992 -0.025
v -0.040390568 -0.011720253 -0.025
v -0.041645031 -0.012359425 -0.025
v -0.042640572 -0.013354965 -0.025
v -0.043279762 -0.014609428 -0.025
v -0.043500004 -0.016 -0.025
v -0.043500004 -0.016 -0.017000008
f 2 10 1
f 1 10 11
f 1 11 20
f 20 11 12
f 20 12 19
f 19 12 13
f 19 13 18
f 18 13 14
f 18 14 17
f 17 14 15
f 17 15 16
f 10 2 9
f 9 2 3
f 9 3 8
f 8 3 4
f 8 4 7
f 7 4 5
f 7 5 6
f 22 30 21
f 21 30 31
f 21 31 40
f 40 31 32
f 40 32 39
f 39 32 33
f 39 33 38
f 38 33 34
f 38 34 37
f 37 34 35
f 37 35 36
f 30 22 29
f 29 22 23
f 29 23 28
f 28 23 24
f 28 24 27
f 27 24 25
f 27 25 26
f 42 80 41
f 41 80 81
f 82 61 60
f 60 61 62
f 60 62 59
f 59 62 63
f 59 63 58
f 58 63 64
f 58 64 57
f 57 64 65
f 57 65 56
f 56 65 66
f 56 66 55
f 55 66 67
f 55 67 54
f 54 67 68
f 54 68 53
f 53 68 69
f 53 69 52
f 52 69 70
f 52 70 51
f 51 70 71
f 51 71 50
f 50 71 72
f 50 72 49
f 49 72 73
f 49 73 48
f 48 73 74
f 48 74 47
f 47 74 75
f 47 75 46
f 46 75 76
f 46 76 45
f 45 76 77
f 45 77 44
f 44 77 78
f 44 78 43
f 43 78 79
f 43 79 42
f 42 79 80
v -0.043500004 0.016000008 -0.025
v -0.043279762 0.017390579 -0.025
v -0.042640572 0.018645042 -0.025
v -0.041645031 0.019640583 -0.025
v -0.040390568 0.020279755 -0.025
v -0.038999996 0.020499996 -0.025
v -0.037609425 0.020279755 -0.025
v -0.036354961 0.019640583 -0.025
v -0.035359421 0.018645042 -0.025
v -0.034720249 0.017390579 -0.025
v -0.034500008 0.016000008 -0.025
v -0.034720249 0.014609417 -0.025
v -0.035359421 0.013354973 -0.025
v -0.036354961 0.012359432 -0.025
v -0.037609425 0.011720242 -0.025
v -0.038999996 0.0115 -0.025
v -0.040390568 0.011720242 -0.025
v -0.041645031 0.012359432 -0.025
v -0.042640572 0.013354973 -0.025
v -0.043279762 0.014609417 -0.025
v -0.043500004 0.016000008 -0.017000008
v -0.043279762 0.014609417 -0.017000008
v -0.042640572 0.013354973 -0.017000008
v -0.041645031 0.012359432 -0.017000008
v -0.040390568 0.011720242 -0.017000008
v -0.038999996 0.0115 -0.017000008
v -0.037609425 0.011720242 -0.017000008
v -0.036354961 0.012359432 -0.017000008
v -0.035359421 0.013354973 -0.017000008
v -0.034720249 0.014609417 -0.017000008
v -0.034500008 0.016000008 -0.017000008
v -0.034720249 0.017390579 -0.017000008
v -0.035359421 0.018645042 -0.017000008
v -0.036354961 0.019640583 -0.017000008
v -0.037609425 0.020279755 -0.017000008
v -0.038999996 0.020499996 -0.017000008
v -0.040390568 0.020279755 -0.017000008
v -0.041645031 0.019640583 -0.017000008
v -0.042640572 0.018645042 -0.017000008
v -0.043279762 0.017390579 -0.017000008
v -0.043500004 0.016000008 -0.017000008
v -0.043279762 0.017390579 -0.017000008
v -0.042640572 0.018645042 -0.017000008
v -0.041645031 0.019640583 -0.017000008
v -0.040390568 0.020279755 -0.017000008
v -0.038999996 0.020499996 -0.017000008
v -0.037609425 0.020279755 -0.017000008
v -0.036354961 0.019640583 -0.017000008
v -0.035359421 0.018645042 -0.017000008
v -0.034720249 0.017390579 -0.017000008
v -0.034500008 0.016000008 -0.017000008
v -0.034720249 0.014609417 -0.017000008
v -0.035359421 0.013354973 -0.017000008
v -0.036354961 0.012359432 -0.017000008
v -0.037609425 0.011720242 -0.017000008
v -0.038999996 0.0115 -0.017000008
v -0.040390568 0.011720242 -0.017000008
v -0.041645031 0.012359432 -0.017000008
v -0.042640572 0.013354973 -0.017000008
v -0.043279762 0.014609417 -0.017000008
v -0.043500004 0.016000008 -0.025
v -0.043279762 0.014609417 -0.025
v -0.042640572 0.013354973 -0.025
v -0.041645031 0.012359432 -0.025
v -0.040390568 0.011720242 -0.025
v -0.038999996 0.0115 -0.025
v -0.037609425 0.011720242 -0.025
v -0.036354961 0.012359432 -0.025
v -0.035359421 0.013354973 -0.025
v -0.034720249 0.014609417 -0.025
v -0.034500008 0.016000008 -0.025
v -0.034720249 0.017390579 -0.025
v -0.035359421 0.018645042 -0.025
v -0.036354961 0.019640583 -0.025
v -0.037609425 0.020279755 -0.025
v -0.038999996 0.020499996 -0.025
v -0.040390568 0.020279755 -0.025
v -0.041645031 0.019640583 -0.025
v -0.042640572 0.018645042 -0.025
v -0.043279762 0.017390579 -0.025
v -0.043500004 0.016000008 -0.025
v -0.043500004 0.016000008 -0.017000008
f 84 92 83
f 83 92 93
f 83 93 102
f 102 93 94
f 102 94 101
f 101 94 95
f 101 95 100
f 100 95 96
f 100 96 99
f 99 96 97
f 99 97 98
f 92 84 91
f 91 84 85
f 91 85 90
f 90 85 86
f 90 86 89
f 89 86 87
f 89 87 88
f 104 112 103
f 103 112 113
f 103 113 122
f 122 113 114
f 122 114 121
f 121 114 115
f 121 115 120
f 120 115 116
f 120 116 119
f 119 116 117
f 119 117 118
f 112 104 111
f 111 104 105
f 111 105 110
f 110 105 106
f 110 106 109
f 109 106 107
f 109 107 108
f 124 162 123
f 123 162 163
f 164 143 142
f 142 143 144
f 142 144 141
f 141 144 145
f 141 145 140
f 140 145 146
f 140 146 139
f 139 146 147
f 139 147 138
f 138 147 148
f 138 148 137
f 137 148 149
f 137 149 136
f 136 149 150
f 136 150 135
f 135 150 151
f 135 151 134
f 134 151 152
f 134 152 133
f 133 152 153
f 133 153 132
f 132 153 154
f 132 154 131
f 131 154 155
f 131 155 130
f 130 155 156
f 130 156 129
f 129 156 157
f 129 157 128
f 128 157 158
f 128 158 127
f 127 158 159
f 127 159 126
f 126 159 160
f 126 160 125
f 125 160 161
f 125 161 124
f 124 161 162
