v 0.0039999962 -0.0039999924 0.09
v 0.0039999962 -0.0039999924 -0.06
v 0.0039999962 0.0019999924 -0.06
v 0.0039999962 0.0019999924 0.09
v 0.0039999962 0.0019999924 0.09
v 0.0039999962 0.0019999924 -0.06
v -0.0020000076 0.0019999924 -0.06
v -0.0020000076 0.0019999924 0.09
v -0.0020000076 0.0019999924 0.09
v -0.0020000076 0.0019999924 -0.06
v -0.0020000076 -0.0039999924 -0.06
v -0.0020000076 -0.0039999924 0.09
v -0.0020000076 -0.0039999924 0.09
v -0.0020000076 -0.0039999924 -0.06
v 0.0039999962 -0.0039999924 -0.06
v 0.0039999962 -0.0039999924 0.09
v 0.0039999962 0.0019999924 -0.06
v 0.0039999962 -0.0039999924 -0.06
v -0.0020000076 -0.0039999924 -0.06
v -0.0020000076 0.0019999924 -0.06
v 0.0039999962 -0.0039999924 0.09
v 0.0039999962 0.0019999924 0.09
v -0.0020000076 0.0019999924 0.09
v -0.0020000076 -0.0039999924 0.09
f 1 2 4
f 4 2 3
f 5 6 8
f 8 6 7
f 9 10 12
f 12 10 11
f 13 14 16
f 16 14 15
f 18 19 17
f 17 19 20
f 22 23 21
f 21 23 24
