v -0.80799999 -0.3728575 0.02
v -0.80799999 -0.32485751 0.02
v -0.71 -0.32485751 0.02
v -0.71 -0.3728575 0.02
v -0.80799999 -0.32485751 0.085
v -0.80799999 -0.3728575 0.085
v -0.71 -0.3728575 0.085
v -0.71 -0.32485751 0.085
v -0.80799999 -0.32485751 0.02
v -0.80799999 -0.3728575 0.02
v -0.80799999 -0.3728575 0.085
v -0.80799999 -0.32485751 0.085
v -0.80799999 -0.3728575 0.02
v -0.71 -0.3728575 0.02
v -0.71 -0.3728575 0.085
v -0.80799999 -0.3728575 0.085
v -0.71 -0.3728575 0.02
v -0.71 -0.32485751 0.02
v -0.71 -0.32485751 0.085
v -0.71 -0.3728575 0.085
v -0.71 -0.32485751 0.02
v -0.80799999 -0.32485751 0.02
v -0.80799999 -0.32485751 0.085
v -0.71 -0.32485751 0.085
f 2 3 1
f 1 3 4
f 6 7 5
f 5 7 8
f 9 10 12
f 12 10 11
f 13 14 16
f 16 14 15
f 17 18 20
f 20 18 19
f 21 22 24
f 24 22 23
v -0.609 -0.3728575 0.02
v -0.609 -0.32485751 0.02
v -0.39200001 -0.32485751 0.02
v -0.39200001 -0.3728575 0.02
v -0.609 -0.32485751 0.085
v -0.609 -0.3728575 0.085
v -0.39200001 -0.3728575 0.085
v -0.39200001 -0.32485751 0.085
v -0.609 -0.32485751 0.02
v -0.609 -0.3728575 0.02
v -0.609 -0.3728575 0.085
v -0.609 -0.32485751 0.085
v -0.609 -0.3728575 0.02
v -0.39200001 -0.3728575 0.02
v -0.39200001 -0.3728575 0.085
v -0.609 -0.3728575 0.085
v -0.39200001 -0.3728575 0.02
v -0.39200001 -0.32485751 0.02
v -0.39200001 -0.32485751 0.085
v -0.39200001 -0.3728575 0.085
v -0.39200001 -0.32485751 0.02
v -0.609 -0.32485751 0.02
v -0.609 -0.32485751 0.085
v -0.39200001 -0.32485751 0.085
f 26 27 25
f 25 27 28
f 30 31 29
f 29 31 32
f 33 34 36
f 36 34 35
f 37 38 40
f 40 38 39
f 41 42 44
f 44 42 43
f 45 46 48
f 48 46 47
v -0.25 -0.1228575 0.02
v -0.25 0.3771425 0.02
v 0.81 0.3771425 0.02
v 0.81 -0.1228575 0.02
v -0.25 0.3771425 0.085
v -0.25 -0.1228575 0.085
v 0.81 -0.1228575 0.085
v 0.81 0.3771425 0.085
v -0.25 0.3771425 0.02
v -0.25 -0.1228575 0.02
v -0.25 -0.1228575 0.085
v -0.25 0.3771425 0.085
v -0.25 -0.1228575 0.02
v 0.81 -0.1228575 0.02
v 0.81 -0.1228575 0.085
v -0.25 -0.1228575 0.085
v 0.81 -0.1228575 0.02
v 0.81 0.3771425 0.02
v 0.81 0.3771425 0.085
v 0.81 -0.1228575 0.085
v 0.81 0.3771425 0.02
v -0.25 0.3771425 0.02
v -0.25 0.3771425 0.085
v 0.81 0.3771425 0.085
f 50 51 49
f 49 51 52
f 54 55 53
f 53 55 56
f 57 58 60
f 60 58 59
f 61 62 64
f 64 62 63
f 65 66 68
f 68 66 67
f 69 70 72
f 72 70 71
v -0.25 -0.3728575 0.02
v -0.25 -0.1228575 0.02
v -0.206 -0.1228575 0.02
v -0.206 -0.3728575 0.02
v -0.25 -0.1228575 0.085
v -0.25 -0.3728575 0.085
v -0.206 -0.3728575 0.085
v -0.206 -0.1228575 0.085
v -0.25 -0.1228575 0.02
v -0.25 -0.3728575 0.02
v -0.25 -0.3728575 0.085
v -0.25 -0.1228575 0.085
v -0.25 -0.3728575 0.02
v -0.206 -0.3728575 0.02
v -0.206 -0.3728575 0.085
v -0.25 -0.3728575 0.085
v -0.206 -0.3728575 0.02
v -0.206 -0.1228575 0.02
v -0.206 -0.1228575 0.085
v -0.206 -0.3728575 0.085
v -0.206 -0.1228575 0.02
v -0.25 -0.1228575 0.02
v -0.25 -0.1228575 0.085
v -0.206 -0.1228575 0.085
f 74 75 73
f 73 75 76
f 78 79 77
f 77 79 80
f 81 82 84
f 84 82 83
f 85 86 88
f 88 86 87
f 89 90 92
f 92 90 91
f 93 94 96
f 96 94 95
v 0.49885002 -0.3728575 0.02
v 0.49885002 -0.1228575 0.02
v 0.81 -0.1228575 0.02
v 0.81 -0.3728575 0.02
v 0.49885002 -0.1228575 0.085
v 0.49885002 -0.3728575 0.085
v 0.81 -0.3728575 0.085
v 0.81 -0.1228575 0.085
v 0.49885002 -0.1228575 0.02
v 0.49885002 -0.3728575 0.02
v 0.49885002 -0.3728575 0.085
v 0.49885002 -0.1228575 0.085
v 0.49885002 -0.3728575 0.02
v 0.81 -0.3728575 0.02
v 0.81 -0.3728575 0.085
v 0.49885002 -0.3728575 0.085
v 0.81 -0.3728575 0.02
v 0.81 -0.1228575 0.02
v 0.81 -0.1228575 0.085
v 0.81 -0.3728575 0.085
v 0.81 -0.1228575 0.02
v 0.49885002 -0.1228575 0.02
v 0.49885002 -0.1228575 0.085
v 0.81 -0.1228575 0.085
f 98 99 97
f 97 99 100
f 102 103 101
f 101 103 104
f 105 106 108
f 108 106 107
f 109 110 112
f 112 110 111
f 113 114 116
f 116 114 115
f 117 118 120
f 120 118 119
v -0.206 -0.3728575 0.02
v -0.206 -0.3648575 0.02
v -0.204225 -0.3648575 0.02
v -0.204225 -0.3728575 0.02
v -0.206 -0.3648575 0.085
v -0.206 -0.3728575 0.085
v -0.204225 -0.3728575 0.085
v -0.204225 -0.3648575 0.085
v -0.206 -0.3648575 0.02
v -0.206 -0.3728575 0.02
v -0.206 -0.3728575 0.085
v -0.206 -0.3648575 0.085
v -0.206 -0.3728575 0.02
v -0.204225 -0.3728575 0.02
v -0.204225 -0.3728575 0.085
v -0.206 -0.3728575 0.085
v -0.204225 -0.3728575 0.02
v -0.204225 -0.3648575 0.02
v -0.204225 -0.3648575 0.085
v -0.204225 -0.3728575 0.085
v -0.204225 -0.3648575 0.02
v -0.206 -0.3648575 0.02
v -0.206 -0.3648575 0.085
v -0.204225 -0.3648575 0.085
f 122 123 121
f 121 123 124
f 126 127 125
f 125 127 128
f 129 130 132
f 132 130 131
f 133 134 136
f 136 134 135
f 137 138 140
f 140 138 139
f 141 142 144
f 144 142 143
v 0.041075001 -0.3728575 0.02
v 0.041075001 -0.3648575 0.02
v 0.25177502 -0.3648575 0.02
v 0.25177502 -0.3728575 0.02
v 0.041075001 -0.3648575 0.085
v 0.041075001 -0.3728575 0.085
v 0.25177502 -0.3728575 0.085
v 0.25177502 -0.3648575 0.085
v 0.041075001 -0.3648575 0.02
v 0.041075001 -0.3728575 0.02
v 0.041075001 -0.3728575 0.085
v 0.041075001 -0.3648575 0.085
v 0.041075001 -0.3728575 0.02
v 0.25177502 -0.3728575 0.02
v 0.25177502 -0.3728575 0.085
v 0.041075001 -0.3728575 0.085
v 0.25177502 -0.3728575 0.02
v 0.25177502 -0.3648575 0.02
v 0.25177502 -0.3648575 0.085
v 0.25177502 -0.3728575 0.085
v 0.25177502 -0.3648575 0.02
v 0.041075001 -0.3648575 0.02
v 0.041075001 -0.3648575 0.085
v 0.25177502 -0.3648575 0.085
f 146 147 145
f 145 147 148
f 150 151 149
f 149 151 152
f 153 154 156
f 156 154 155
f 157 158 160
f 160 158 159
f 161 162 164
f 164 162 163
f 165 166 168
f 168 166 167
v 0.49707497 -0.3728575 0.02
v 0.49707497 -0.3648575 0.02
v 0.49885002 -0.3648575 0.02
v 0.49885002 -0.3728575 0.02
v 0.49707497 -0.3648575 0.085
v 0.49707497 -0.3728575 0.085
v 0.49885002 -0.3728575 0.085
v 0.49885002 -0.3648575 0.085
v 0.49707497 -0.3648575 0.02
v 0.49707497 -0.3728575 0.02
v 0.49707497 -0.3728575 0.085
v 0.49707497 -0.3648575 0.085
v 0.49707497 -0.3728575 0.02
v 0.49885002 -0.3728575 0.02
v 0.49885002 -0.3728575 0.085
v 0.49707497 -0.3728575 0.085
v 0.49885002 -0.3728575 0.02
v 0.49885002 -0.3648575 0.02
v 0.49885002 -0.3648575 0.085
v 0.49885002 -0.3728575 0.085
v 0.49885002 -0.3648575 0.02
v 0.49707497 -0.3648575 0.02
v 0.49707497 -0.3648575 0.085
v 0.49885002 -0.3648575 0.085
f 170 171 169
f 169 171 172
f 174 175 173
f 173 175 176
f 177 178 180
f 180 178 179
f 181 182 184
f 184 182 183
f 185 186 188
f 188 186 187
f 189 190 192
f 192 190 191
