v -0.067111408 -0.0018787707 -0.021719685
v -0.067119391 -0.0030169261 -0.020812671
v -0.06713076 -0.0036877523 -0.01952116
v -0.067143548 -0.0037752576 -0.018068468
v -0.067155544 -0.0032643116 -0.016705777
v -0.067164674 -0.0022432615 -0.015668709
v -0.067169359 -0.0008886558 -0.015136583
v -0.06716879 0.00056528155 -0.015201408
v -0.067163064 0.0018671516 -0.015851975
v -0.067153171 0.0027918492 -0.016975796
v -0.067140823 0.0031794859 -0.018378551
v -0.067128154 0.0029630355 -0.019817692
v -0.067117355 0.0021799244 -0.021044377
v -0.067110293 0.0009655599 -0.021846502
v -0.067108189 -0.00047008388 -0.022085373
v -0.067115345 -0.0016552581 -0.021272442
v -0.067112563 -0.00035809515 -0.021588544
v -0.067115011 0.00094776548 -0.021310547
v -0.067122204 0.0020036819 -0.02049351
v -0.067132718 0.0026005168 -0.019299258
v -0.067144469 0.0026200599 -0.017964327
v -0.067155131 0.0020584403 -0.016753116
v -0.067162592 0.0010268939 -0.015905522
v -0.067165373 -0.00027026904 -0.015589419
v -0.067162925 -0.0015761297 -0.015867417
v -0.067155732 -0.0026320461 -0.016684454
v -0.067145219 -0.003228881 -0.017878706
v -0.067133467 -0.0032484241 -0.019213637
v -0.067122805 -0.0026868045 -0.020424847
v -0.064166645 0.0012504085 -0.015431871
v -0.064169863 -0.00015827832 -0.015066183
v -0.064167759 -0.0015939221 -0.015305054
v -0.064160698 -0.0028082866 -0.016107179
v -0.064149899 -0.0035913977 -0.017333864
v -0.06413723 -0.0038078481 -0.018773004
v -0.064124881 -0.0034202114 -0.020175759
v -0.064114989 -0.0024955138 -0.02129958
v -0.064109263 -0.0011936437 -0.021950147
v -0.064108693 0.0002602936 -0.022014972
v -0.064113378 0.0016148993 -0.021482846
v -0.064122508 0.0026359494 -0.020445779
v -0.064134505 0.0031468954 -0.019083088
v -0.064147293 0.0030593901 -0.017630395
v -0.064158661 0.0023885639 -0.016338885
v -0.064115461 -0.0016552561 -0.021246034
v -0.064122922 -0.0026868025 -0.020398439
v -0.064133584 -0.0032484221 -0.019187229
v -0.064145335 -0.003228879 -0.017852298
v -0.064155848 -0.0026320441 -0.016658046
v -0.064163041 -0.0015761277 -0.015841009
v -0.06416549 -0.00027026705 -0.015563011
v -0.064162708 0.0010268959 -0.015879114
v -0.064155247 0.0020584423 -0.016726708
v -0.064144585 0.0026200619 -0.017937919
v -0.064132834 0.0026005188 -0.01927285
v -0.06412232 0.0020036839 -0.020467102
v -0.064115127 0.00094776748 -0.021284139
v -0.064112679 -0.00035809316 -0.021562136
v -0.0646745 0.0016974334 -0.014541785
v -0.064678503 0.00010747102 -0.014086947
v -0.06467718 -0.0015394379 -0.014237161
v -0.064670709 -0.0030208688 -0.01497214
v -0.064659964 -0.0041367467 -0.016192622
v -0.064646397 -0.0047363656 -0.017733774
v -0.064631839 -0.0047387441 -0.019387453
v -0.064618258 -0.0041435606 -0.020930323
v -0.064607486 -0.0030311982 -0.02215401
v -0.06460098 -0.0015518875 -0.022893247
v -0.064599617 9.4582448e-05 -0.023048198
v -0.064603582 0.0016858468 -0.022597934
v -0.064612339 0.0030069962 -0.021603268
v -0.064624705 0.0038796024 -0.020198533
v -0.064639011 0.0041858149 -0.018573447
v -0.064653324 0.0038842783 -0.016947487
v -0.064665712 0.0030157163 -0.015540248
v -0.064666626 0.0012504082 -0.015436272
v -0.064658642 0.0023885635 -0.016343286
v -0.064647273 0.0030593898 -0.017634797
v -0.064634485 0.003146895 -0.019087489
v -0.064622489 0.0026359491 -0.02045018
v -0.064613359 0.001614899 -0.021487248
v -0.064608674 0.00026029327 -0.022019374
v -0.064609244 -0.0011936441 -0.021954549
v -0.06461497 -0.0024955141 -0.021303981
v -0.064624862 -0.0034202117 -0.020180161
v -0.06463721 -0.0038078484 -0.018777406
v -0.064649879 -0.003591398 -0.017338265
v -0.064660678 -0.0028082869 -0.01611158
v -0.06466774 -0.0015939224 -0.015309455
v -0.064669844 -0.00015827865 -0.015070584
v -0.064299704 -0.0025493068 -0.023036768
v -0.064308807 -0.0039442338 -0.022002618
v -0.064321561 -0.0049013227 -0.020553761
v -0.064336427 -0.0053051343 -0.01886495
v -0.064351613 -0.0051069634 -0.01713988
v -0.064365287 -0.004330712 -0.01558662
v -0.064375799 -0.0030700077 -0.014392516
v -0.064381883 -0.0014769101 -0.013701596
v -0.064382803 0.00025643015 -0.013597193
v -0.064378449 0.0019209464 -0.014091901
v -0.064369346 0.0033158733 -0.015126051
v -0.064356593 0.0042729622 -0.016574908
v -0.064341726 0.0046767739 -0.018263719
v -0.06432654 0.0044786029 -0.019988789
v -0.064312866 0.0037023516 -0.021542049
v -0.064302354 0.0024416473 -0.022736152
v -0.064296271 0.00084854964 -0.023427073
v -0.06429535 -0.00088479062 -0.023531476
v -0.066499619 -0.0025493083 -0.023056133
v -0.066495265 -0.00088479208 -0.023550841
v -0.066496185 0.00084854818 -0.023446439
v -0.066502269 0.0024416458 -0.022755518
v -0.066512781 0.0037023501 -0.021561415
v -0.066526455 0.0044786014 -0.020008155
v -0.066541641 0.0046767724 -0.018283085
v -0.066556507 0.0042729608 -0.016594274
v -0.066569261 0.0033158718 -0.015145416
v -0.066578364 0.0019209449 -0.014111267
v -0.066582718 0.00025642869 -0.013616559
v -0.066581797 -0.0014769116 -0.013720962
v -0.066575714 -0.0030700092 -0.014411882
v -0.066565202 -0.0043307135 -0.015605986
v -0.066551528 -0.0051069648 -0.017159245
v -0.066536342 -0.0053051358 -0.018884315
v -0.066521475 -0.0049013242 -0.020573127
v -0.066508722 -0.0039442352 -0.022021984
v -0.064378449 0.0019209464 -0.014091901
v -0.066578364 0.0019209449 -0.014111267
v -0.064115461 -0.0016552561 -0.021246034
v -0.064112679 -0.00035809316 -0.021562136
v -0.064115127 0.00094776748 -0.021284139
v -0.06412232 0.0020036839 -0.020467102
v -0.064132834 0.0026005188 -0.01927285
v -0.064144585 0.0026200619 -0.017937919
v -0.064155247 0.0020584423 -0.016726708
v -0.064162708 0.0010268959 -0.015879114
v -0.06416549 -0.00027026705 -0.015563011
v -0.064163041 -0.0015761277 -0.015841009
v -0.064155848 -0.0026320441 -0.016658046
v -0.064145335 -0.003228879 -0.017852298
v -0.064133584 -0.0032484221 -0.019187229
v -0.064122922 -0.0026868025 -0.020398439
v -0.067115345 -0.0016552581 -0.021272442
v -0.067122805 -0.0026868045 -0.020424847
v -0.067133467 -0.0032484241 -0.019213637
v -0.067145219 -0.003228881 -0.017878706
v -0.067155732 -0.0026320461 -0.016684454
v -0.067162925 -0.0015761297 -0.015867417
v -0.067165373 -0.00027026904 -0.015589419
v -0.067162592 0.0010268939 -0.015905522
v -0.067155131 0.0020584403 -0.016753116
v -0.067144469 0.0026200599 -0.017964327
v -0.067132718 0.0026005168 -0.019299258
v -0.067122204 0.0020036819 -0.02049351
v -0.067115011 0.00094776548 -0.021310547
v -0.067112563 -0.00035809515 -0.021588544
v -0.067162592 0.0010268939 -0.015905522
v -0.064162708 0.0010268959 -0.015879114
v -0.066603552 -0.0023257956 -0.02260977
v -0.066612341 -0.0036440785 -0.021611308
v -0.066624728 -0.0045126405 -0.020204069
v -0.066639042 -0.0048141771 -0.018578109
v -0.066653347 -0.0045079646 -0.016953023
v -0.066665714 -0.0036353584 -0.015548288
v -0.066674471 -0.002314209 -0.014553621
v -0.066678436 -0.00072294465 -0.014103358
v -0.066677073 0.0009235253 -0.014258308
v -0.066670566 0.002402836 -0.014997546
v -0.066659795 0.0035151984 -0.016221232
v -0.066646213 0.0041103819 -0.017764102
v -0.066631656 0.0041080034 -0.019417782
v -0.066618089 0.0035083845 -0.020958933
v -0.066607344 0.0023925066 -0.022179415
v -0.066600873 0.00091107569 -0.022914395
v -0.066599549 -0.00073583322 -0.023064609
v -0.066611427 -0.0018787704 -0.021715284
v -0.066608209 -0.00047008355 -0.022080971
v -0.066610312 0.00096556023 -0.021842101
v -0.066617374 0.0021799247 -0.021039976
v -0.066628173 0.0029630358 -0.01981329
v -0.066640842 0.0031794862 -0.01837415
v -0.066653191 0.0027918495 -0.016971395
v -0.066663083 0.0018671519 -0.015847574
v -0.066668809 0.00056528188 -0.015197007
v -0.066669379 -0.00088865547 -0.015132182
v -0.066664693 -0.0022432612 -0.015664308
v -0.066655563 -0.0032643113 -0.016701376
v -0.066643567 -0.0037752572 -0.018064067
v -0.066630779 -0.003687752 -0.019516759
v -0.066619411 -0.0030169257 -0.020808269
v -0.064101287 -0.0024599016 -0.02285611
v -0.064097017 -0.00076394156 -0.023341271
v -0.064098429 0.00099276107 -0.023181042
v -0.064105331 0.0025729542 -0.022397064
v -0.064116792 0.0037632236 -0.021095217
v -0.064131264 0.0044028173 -0.019451322
v -0.064146792 0.0044053543 -0.017687397
v -0.064161279 0.0037704919 -0.016041669
v -0.064172768 0.0025839722 -0.014736404
v -0.064179708 0.0010060407 -0.013947883
v -0.064181162 -0.0007501938 -0.013782603
v -0.064176933 -0.0024475424 -0.014262884
v -0.064167592 -0.0038567684 -0.015323862
v -0.064154401 -0.0047875483 -0.016822246
v -0.064139142 -0.0051141751 -0.018555671
v -0.064123875 -0.004792536 -0.020290028
v -0.064110661 -0.00386607 -0.021791083
v -0.064174519 0.0016974338 -0.014537384
v -0.064165731 0.0030157166 -0.015535847
v -0.064153344 0.0038842786 -0.016943086
v -0.06413903 0.0041858152 -0.018569045
v -0.064124724 0.0038796028 -0.020194131
v -0.064112358 0.0030069965 -0.021598866
v -0.064103601 0.0016858472 -0.022593533
v -0.064099636 9.4582781e-05 -0.023043796
v -0.064100999 -0.0015518872 -0.022888846
v -0.064107506 -0.0030311979 -0.022149608
v -0.064118277 -0.0041435603 -0.020925922
v -0.064131859 -0.0047387437 -0.019383052
v -0.064146416 -0.0047363653 -0.017729372
v -0.064159983 -0.0041367463 -0.016188221
v -0.064170728 -0.0030208684 -0.014967739
v -0.064177199 -0.0015394376 -0.014232759
v -0.064178522 0.00010747135 -0.014082545
v -0.066603552 -0.0023257956 -0.02260977
v -0.066599549 -0.00073583322 -0.023064609
v -0.066600873 0.00091107569 -0.022914395
v -0.066607344 0.0023925066 -0.022179415
v -0.066618089 0.0035083845 -0.020958933
v -0.066631656 0.0041080034 -0.019417782
v -0.066646213 0.0041103819 -0.017764102
v -0.066659795 0.0035151984 -0.016221232
v -0.066670566 0.002402836 -0.014997546
v -0.066677073 0.0009235253 -0.014258308
v -0.066678436 -0.00072294465 -0.014103358
v -0.066674471 -0.002314209 -0.014553621
v -0.066665714 -0.0036353584 -0.015548288
v -0.066653347 -0.0045079646 -0.016953023
v -0.066639042 -0.0048141771 -0.018578109
v -0.066624728 -0.0045126405 -0.020204069
v -0.066612341 -0.0036440785 -0.021611308
v -0.067103533 -0.002325796 -0.022614172
v -0.067112322 -0.0036440788 -0.021615709
v -0.067124709 -0.0045126408 -0.02020847
v -0.067139022 -0.0048141774 -0.01858251
v -0.067153328 -0.004507965 -0.016957424
v -0.067165695 -0.0036353587 -0.015552689
v -0.067174452 -0.0023142094 -0.014558023
v -0.067178416 -0.00072294498 -0.014107759
v -0.067177053 0.00092352497 -0.01426271
v -0.067170547 0.0024028357 -0.015001947
v -0.067159775 0.0035151981 -0.016225634
v -0.067146194 0.0041103815 -0.017768504
v -0.067131636 0.0041080031 -0.019422183
v -0.067118069 0.0035083841 -0.020963335
v -0.067107325 0.0023925062 -0.022183817
v -0.067100854 0.00091107536 -0.022918796
v -0.06709953 -0.00073583355 -0.02306901
v -0.066677073 0.0009235253 -0.014258308
v -0.067177053 0.00092352497 -0.01426271
v -0.067096446 -0.0027281189 -0.02341921
v -0.067106277 -0.0042346398 -0.022302328
v -0.067120051 -0.0052682958 -0.020737563
v -0.067136107 -0.0057044127 -0.018913646
v -0.067152507 -0.0054903877 -0.017050571
v -0.067167275 -0.0046520363 -0.01537305
v -0.067178629 -0.0032904759 -0.014083418
v -0.067185199 -0.00156993 -0.013337224
v -0.067186193 0.00030207716 -0.013224469
v -0.06718149 0.0020997547 -0.013758754
v -0.067171659 0.0036062757 -0.014875635
v -0.067157886 0.0046399316 -0.016440401
v -0.06714183 0.0050760485 -0.018264317
v -0.067125429 0.0048620235 -0.020127393
v -0.067110661 0.0040236721 -0.021804913
v -0.067099308 0.0026621117 -0.023094545
v -0.067092738 0.00094156584 -0.02384074
v -0.067091744 -0.00093044135 -0.023953494
v -0.067103533 -0.002325796 -0.022614172
v -0.06709953 -0.00073583355 -0.02306901
v -0.067100854 0.00091107536 -0.022918796
v -0.067107325 0.0023925062 -0.022183817
v -0.067118069 0.0035083841 -0.020963335
v -0.067131636 0.0041080031 -0.019422183
v -0.067146194 0.0041103815 -0.017768504
v -0.067159775 0.0035151981 -0.016225634
v -0.067170547 0.0024028357 -0.015001947
v -0.067177053 0.00092352497 -0.01426271
v -0.067178416 -0.00072294498 -0.014107759
v -0.067174452 -0.0023142094 -0.014558023
v -0.067165695 -0.0036353587 -0.015552689
v -0.067153328 -0.004507965 -0.016957424
v -0.067139022 -0.0048141774 -0.01858251
v -0.067124709 -0.0045126408 -0.02020847
v -0.067112322 -0.0036440788 -0.021615709
v -0.066496469 -0.0027281185 -0.023413928
v -0.066491767 -0.00093044095 -0.023948213
v -0.066492761 0.00094156624 -0.023835458
v -0.066499331 0.0026621121 -0.023089264
v -0.066510684 0.0040236725 -0.021799632
v -0.066525452 0.0048620239 -0.020122111
v -0.066541853 0.0050760489 -0.018259036
v -0.066557909 0.004639932 -0.016435119
v -0.066571683 0.0036062761 -0.014870354
v -0.066581514 0.0020997551 -0.013753472
v -0.066586216 0.00030207755 -0.013219188
v -0.066585222 -0.0015699296 -0.013331942
v -0.066578652 -0.0032904755 -0.014078137
v -0.066567298 -0.0046520359 -0.015367769
v -0.066552531 -0.0054903873 -0.017045289
v -0.06653613 -0.0057044123 -0.018908365
v -0.066520074 -0.0052682954 -0.020732281
v -0.0665063 -0.0042346394 -0.022297047
v -0.066499619 -0.0025493083 -0.023056133
v -0.066508722 -0.0039442352 -0.022021984
v -0.066521475 -0.0049013242 -0.020573127
v -0.066536342 -0.0053051358 -0.018884315
v -0.066551528 -0.0051069648 -0.017159245
v -0.066565202 -0.0043307135 -0.015605986
v -0.066575714 -0.0030700092 -0.014411882
v -0.066581797 -0.0014769116 -0.013720962
v -0.066582718 0.00025642869 -0.013616559
v -0.066578364 0.0019209449 -0.014111267
v -0.066569261 0.0033158718 -0.015145416
v -0.066556507 0.0042729608 -0.016594274
v -0.066541641 0.0046767724 -0.018283085
v -0.066526455 0.0044786014 -0.020008155
v -0.066512781 0.0037023501 -0.021561415
v -0.066502269 0.0024416458 -0.022755518
v -0.066496185 0.00084854818 -0.023446439
v -0.066495265 -0.00088479208 -0.023550841
v -0.066611427 -0.0018787704 -0.021715284
v -0.066619411 -0.0030169257 -0.020808269
v -0.066630779 -0.003687752 -0.019516759
v -0.066643567 -0.0037752572 -0.018064067
v -0.066655563 -0.0032643113 -0.016701376
v -0.066664693 -0.0022432612 -0.015664308
v -0.066669379 -0.00088865547 -0.015132182
v -0.066668809 0.00056528188 -0.015197007
v -0.066663083 0.0018671519 -0.015847574
v -0.066653191 0.0027918495 -0.016971395
v -0.066640842 0.0031794862 -0.01837415
v -0.066628173 0.0029630358 -0.01981329
v -0.066617374 0.0021799247 -0.021039976
v -0.066610312 0.00096556023 -0.021842101
v -0.066608209 -0.00047008355 -0.022080971
v -0.067111408 -0.0018787707 -0.021719685
v -0.067108189 -0.00047008388 -0.022085373
v -0.067110293 0.0009655599 -0.021846502
v -0.067117355 0.0021799244 -0.021044377
v -0.067128154 0.0029630355 -0.019817692
v -0.067140823 0.0031794859 -0.018378551
v -0.067153171 0.0027918492 -0.016975796
v -0.067163064 0.0018671516 -0.015851975
v -0.06716879 0.00056528155 -0.015201408
v -0.067169359 -0.0008886558 -0.015136583
v -0.067164674 -0.0022432615 -0.015668709
v -0.067155544 -0.0032643116 -0.016705777
v -0.067143548 -0.0037752576 -0.018068468
v -0.06713076 -0.0036877523 -0.01952116
v -0.067119391 -0.0030169261 -0.020812671
v -0.066663083 0.0018671519 -0.015847574
v -0.067163064 0.0018671516 -0.015851975
v -0.0646745 0.0016974334 -0.014541785
v -0.064665712 0.0030157163 -0.015540248
v -0.064653324 0.0038842783 -0.016947487
v -0.064639011 0.0041858149 -0.018573447
v -0.064624705 0.0038796024 -0.020198533
v -0.064612339 0.0030069962 -0.021603268
v -0.064603582 0.0016858468 -0.022597934
v -0.064599617 9.4582448e-05 -0.023048198
v -0.06460098 -0.0015518875 -0.022893247
v -0.064607486 -0.0030311982 -0.02215401
v -0.064618258 -0.0041435606 -0.020930323
v -0.064631839 -0.0047387441 -0.019387453
v -0.064646397 -0.0047363656 -0.017733774
v -0.064659964 -0.0041367467 -0.016192622
v -0.064670709 -0.0030208688 -0.01497214
v -0.06467718 -0.0015394379 -0.014237161
v -0.064678503 0.00010747102 -0.014086947
v -0.064174519 0.0016974338 -0.014537384
v -0.064178522 0.00010747135 -0.014082545
v -0.064177199 -0.0015394376 -0.014232759
v -0.064170728 -0.0030208684 -0.014967739
v -0.064159983 -0.0041367463 -0.016188221
v -0.064146416 -0.0047363653 -0.017729372
v -0.064131859 -0.0047387437 -0.019383052
v -0.064118277 -0.0041435603 -0.020925922
v -0.064107506 -0.0030311979 -0.022149608
v -0.064100999 -0.0015518872 -0.022888846
v -0.064099636 9.4582781e-05 -0.023043796
v -0.064103601 0.0016858472 -0.022593533
v -0.064112358 0.0030069965 -0.021598866
v -0.064124724 0.0038796028 -0.020194131
v -0.06413903 0.0041858152 -0.018569045
v -0.064153344 0.0038842786 -0.016943086
v -0.064165731 0.0030157166 -0.015535847
v -0.064607486 -0.0030311982 -0.02215401
v -0.064107506 -0.0030311979 -0.022149608
v -0.064666626 0.0012504082 -0.015436272
v -0.064669844 -0.00015827865 -0.015070584
v -0.06466774 -0.0015939224 -0.015309455
v -0.064660678 -0.0028082869 -0.01611158
v -0.064649879 -0.003591398 -0.017338265
v -0.06463721 -0.0038078484 -0.018777406
v -0.064624862 -0.0034202117 -0.020180161
v -0.06461497 -0.0024955141 -0.021303981
v -0.064609244 -0.0011936441 -0.021954549
v -0.064608674 0.00026029327 -0.022019374
v -0.064613359 0.001614899 -0.021487248
v -0.064622489 0.0026359491 -0.02045018
v -0.064634485 0.003146895 -0.019087489
v -0.064647273 0.0030593898 -0.017634797
v -0.064658642 0.0023885635 -0.016343286
v -0.064166645 0.0012504085 -0.015431871
v -0.064158661 0.0023885639 -0.016338885
v -0.064147293 0.0030593901 -0.017630395
v -0.064134505 0.0031468954 -0.019083088
v -0.064122508 0.0026359494 -0.020445779
v -0.064113378 0.0016148993 -0.021482846
v -0.064108693 0.0002602936 -0.022014972
v -0.064109263 -0.0011936437 -0.021950147
v -0.064114989 -0.0024955138 -0.02129958
v -0.064124881 -0.0034202114 -0.020175759
v -0.06413723 -0.0038078481 -0.018773004
v -0.064149899 -0.0035913977 -0.017333864
v -0.064160698 -0.0028082866 -0.016107179
v -0.064167759 -0.0015939221 -0.015305054
v -0.064169863 -0.00015827832 -0.015066183
v -0.064609244 -0.0011936441 -0.021954549
v -0.064109263 -0.0011936437 -0.021950147
v -0.066694887 -0.0028175236 -0.023594586
v -0.06670443 -0.004308409 -0.022510376
v -0.066717718 -0.0053664578 -0.021000839
v -0.06673331 -0.0058770143 -0.01922956
v -0.066749517 -0.0057847513 -0.017388482
v -0.066764583 -0.0050996672 -0.015677116
v -0.066776874 -0.0038960019 -0.014280913
v -0.06678506 -0.0023041906 -0.013351176
v -0.066788252 -0.00049673089 -0.012988654
v -0.066786106 0.0013305107 -0.013232633
v -0.066778853 0.0029795245 -0.014056674
v -0.066767279 0.0042716141 -0.015371479
v -0.06675264 0.0050667614 -0.01703457
v -0.06673652 0.0052788001 -0.018865723
v -0.066720668 0.0048847522 -0.020666505
v -0.0667068 0.0039273195 -0.022241774
v -0.06669642 0.0025102544 -0.023420825
v -0.066690652 0.00078711746 -0.024075889
v -0.066690122 -0.0010553624 -0.02413598
v -0.066894879 -0.0028175238 -0.023596347
v -0.066890114 -0.0010553625 -0.024137741
v -0.066890644 0.00078711732 -0.02407765
v -0.066896412 0.0025102542 -0.023422586
v -0.066906792 0.0039273194 -0.022243535
v -0.06692066 0.0048847521 -0.020668266
v -0.066936512 0.0052787999 -0.018867483
v -0.066952632 0.0050667613 -0.01703633
v -0.066967272 0.004271614 -0.01537324
v -0.066978845 0.0029795243 -0.014058435
v -0.066986098 0.0013305106 -0.013234394
v -0.066988245 -0.00049673102 -0.012990414
v -0.066985052 -0.0023041908 -0.013352936
v -0.066976867 -0.003896002 -0.014282674
v -0.066964575 -0.0050996673 -0.015678876
v -0.066949509 -0.0057847514 -0.017390243
v -0.066933302 -0.0058770144 -0.01923132
v -0.06691771 -0.0053664579 -0.0210026
v -0.066904422 -0.0043084091 -0.022512136
v -0.066778853 0.0029795245 -0.014056674
v -0.066978845 0.0029795243 -0.014058435
v -0.064101287 -0.0024599016 -0.02285611
v -0.064110661 -0.00386607 -0.021791083
v -0.064123875 -0.004792536 -0.020290028
v -0.064139142 -0.0051141751 -0.018555671
v -0.064154401 -0.0047875483 -0.016822246
v -0.064167592 -0.0038567684 -0.015323862
v -0.064176933 -0.0024475424 -0.014262884
v -0.064181162 -0.0007501938 -0.013782603
v -0.064179708 0.0010060407 -0.013947883
v -0.064172768 0.0025839722 -0.014736404
v -0.064161279 0.0037704919 -0.016041669
v -0.064146792 0.0044053543 -0.017687397
v -0.064131264 0.0044028173 -0.019451322
v -0.064116792 0.0037632236 -0.021095217
v -0.064105331 0.0025729542 -0.022397064
v -0.064098429 0.00099276107 -0.023181042
v -0.064097017 -0.00076394156 -0.023341271
v -0.064299704 -0.0025493068 -0.023036768
v -0.06429535 -0.00088479062 -0.023531476
v -0.064296271 0.00084854964 -0.023427073
v -0.064302354 0.0024416473 -0.022736152
v -0.064312866 0.0037023516 -0.021542049
v -0.06432654 0.0044786029 -0.019988789
v -0.064341726 0.0046767739 -0.018263719
v -0.064356593 0.0042729622 -0.016574908
v -0.064369346 0.0033158733 -0.015126051
v -0.064378449 0.0019209464 -0.014091901
v -0.064382803 0.00025643015 -0.013597193
v -0.064381883 -0.0014769101 -0.013701596
v -0.064375799 -0.0030700077 -0.014392516
v -0.064365287 -0.004330712 -0.01558662
v -0.064351613 -0.0051069634 -0.01713988
v -0.064336427 -0.0053051343 -0.01886495
v -0.064321561 -0.0049013227 -0.020553761
v -0.064308807 -0.0039442338 -0.022002618
v -0.064179708 0.0010060407 -0.013947883
v -0.064378449 0.0019209464 -0.014091901
v -0.066496469 -0.0027281185 -0.023413928
v -0.0665063 -0.0042346394 -0.022297047
v -0.066520074 -0.0052682954 -0.020732281
v -0.06653613 -0.0057044123 -0.018908365
v -0.066552531 -0.0054903873 -0.017045289
v -0.066567298 -0.0046520359 -0.015367769
v -0.066578652 -0.0032904755 -0.014078137
v -0.066585222 -0.0015699296 -0.013331942
v -0.066586216 0.00030207755 -0.013219188
v -0.066581514 0.0020997551 -0.013753472
v -0.066571683 0.0036062761 -0.014870354
v -0.066557909 0.004639932 -0.016435119
v -0.066541853 0.0050760489 -0.018259036
v -0.066525452 0.0048620239 -0.020122111
v -0.066510684 0.0040236725 -0.021799632
v -0.066499331 0.0026621121 -0.023089264
v -0.066492761 0.00094156624 -0.023835458
v -0.066491767 -0.00093044095 -0.023948213
v -0.066694887 -0.0028175236 -0.023594586
v -0.066690122 -0.0010553624 -0.02413598
v -0.066690652 0.00078711746 -0.024075889
v -0.06669642 0.0025102544 -0.023420825
v -0.0667068 0.0039273195 -0.022241774
v -0.066720668 0.0048847522 -0.020666505
v -0.06673652 0.0052788001 -0.018865723
v -0.06675264 0.0050667614 -0.01703457
v -0.066767279 0.0042716141 -0.015371479
v -0.066778853 0.0029795245 -0.014056674
v -0.066786106 0.0013305107 -0.013232633
v -0.066788252 -0.00049673089 -0.012988654
v -0.06678506 -0.0023041906 -0.013351176
v -0.066776874 -0.0038960019 -0.014280913
v -0.066764583 -0.0050996672 -0.015677116
v -0.066749517 -0.0057847513 -0.017388482
v -0.06673331 -0.0058770143 -0.01922956
v -0.066717718 -0.0053664578 -0.021000839
v -0.06670443 -0.004308409 -0.022510376
v -0.066778853 0.0029795245 -0.014056674
v -0.066581514 0.0020997551 -0.013753472
v -0.066894879 -0.0028175238 -0.023596347
v -0.066904422 -0.0043084091 -0.022512136
v -0.06691771 -0.0053664579 -0.0210026
v -0.066933302 -0.0058770144 -0.01923132
v -0.066949509 -0.0057847514 -0.017390243
v -0.066964575 -0.0050996673 -0.015678876
v -0.066976867 -0.003896002 -0.014282674
v -0.066985052 -0.0023041908 -0.013352936
v -0.066988245 -0.00049673102 -0.012990414
v -0.066986098 0.0013305106 -0.013234394
v -0.066978845 0.0029795243 -0.014058435
v -0.066967272 0.004271614 -0.01537324
v -0.066952632 0.0050667613 -0.01703633
v -0.066936512 0.0052787999 -0.018867483
v -0.06692066 0.0048847521 -0.020668266
v -0.066906792 0.0039273194 -0.022243535
v -0.066896412 0.0025102542 -0.023422586
v -0.066890644 0.00078711732 -0.02407765
v -0.066890114 -0.0010553625 -0.024137741
v -0.067096446 -0.0027281189 -0.02341921
v -0.067091744 -0.00093044135 -0.023953494
v -0.067092738 0.00094156584 -0.02384074
v -0.067099308 0.0026621117 -0.023094545
v -0.067110661 0.0040236721 -0.021804913
v -0.067125429 0.0048620235 -0.020127393
v -0.06714183 0.0050760485 -0.018264317
v -0.067157886 0.0046399316 -0.016440401
v -0.067171659 0.0036062757 -0.014875635
v -0.06718149 0.0020997547 -0.013758754
v -0.067186193 0.00030207716 -0.013224469
v -0.067185199 -0.00156993 -0.013337224
v -0.067178629 -0.0032904759 -0.014083418
v -0.067167275 -0.0046520363 -0.01537305
v -0.067152507 -0.0054903877 -0.017050571
v -0.067136107 -0.0057044127 -0.018913646
v -0.067120051 -0.0052682958 -0.020737563
v -0.067106277 -0.0042346398 -0.022302328
v -0.066986098 0.0013305106 -0.013234394
v -0.06718149 0.0020997547 -0.013758754
f 15 1 16
f 16 1 2
f 16 2 29
f 29 2 3
f 29 3 28
f 28 3 4
f 28 4 27
f 27 4 5
f 27 5 26
f 26 5 6
f 26 6 25
f 25 6 7
f 25 7 24
f 24 7 8
f 24 8 23
f 23 8 9
f 23 9 22
f 22 9 10
f 22 10 21
f 21 10 11
f 21 11 20
f 20 11 12
f 20 12 19
f 19 12 13
f 19 13 18
f 18 13 14
f 18 14 17
f 17 14 15
f 17 15 16
f 44 30 52
f 52 30 31
f 52 31 51
f 51 31 32
f 51 32 50
f 50 32 33
f 50 33 49
f 49 33 34
f 49 34 48
f 48 34 35
f 48 35 47
f 47 35 36
f 47 36 46
f 46 36 37
f 46 37 45
f 45 37 38
f 45 38 58
f 58 38 39
f 58 39 57
f 57 39 40
f 57 40 56
f 56 40 41
f 56 41 55
f 55 41 42
f 55 42 54
f 54 42 43
f 54 43 53
f 53 43 44
f 53 44 52
f 75 59 76
f 76 59 60
f 76 60 90
f 90 60 61
f 90 61 89
f 89 61 62
f 89 62 88
f 88 62 63
f 88 63 87
f 87 63 64
f 87 64 86
f 86 64 65
f 86 65 85
f 85 65 66
f 85 66 84
f 84 66 67
f 84 67 83
f 83 67 68
f 83 68 69
f 83 69 82
f 82 69 70
f 82 70 81
f 81 70 71
f 81 71 80
f 80 71 72
f 80 72 79
f 79 72 73
f 79 73 78
f 78 73 74
f 78 74 77
f 77 74 75
f 77 75 76
f 92 126 91
f 91 126 109
f 91 109 108
f 108 109 110
f 108 110 107
f 107 110 111
f 107 111 106
f 106 111 112
f 106 112 105
f 105 112 113
f 105 113 104
f 104 113 114
f 104 114 103
f 103 114 115
f 103 115 102
f 102 115 116
f 102 116 101
f 101 116 117
f 101 117 100
f 100 117 128
f 127 118 99
f 99 118 119
f 99 119 98
f 98 119 120
f 98 120 97
f 97 120 121
f 97 121 96
f 96 121 122
f 96 122 95
f 95 122 123
f 95 123 94
f 94 123 124
f 94 124 93
f 93 124 125
f 93 125 92
f 92 125 126
f 130 156 129
f 129 156 143
f 129 143 142
f 142 143 144
f 142 144 141
f 141 144 145
f 141 145 140
f 140 145 146
f 140 146 139
f 139 146 147
f 139 147 138
f 138 147 148
f 138 148 137
f 137 148 149
f 137 149 136
f 136 149 157
f 158 150 135
f 135 150 151
f 135 151 134
f 134 151 152
f 134 152 133
f 133 152 153
f 133 153 132
f 132 153 154
f 132 154 131
f 131 154 155
f 131 155 130
f 130 155 156
f 175 159 176
f 176 159 160
f 176 160 190
f 190 160 161
f 190 161 189
f 189 161 162
f 189 162 188
f 188 162 163
f 188 163 187
f 187 163 164
f 187 164 186
f 186 164 165
f 186 165 185
f 185 165 166
f 185 166 184
f 184 166 167
f 184 167 168
f 184 168 183
f 183 168 169
f 183 169 182
f 182 169 170
f 182 170 181
f 181 170 171
f 181 171 180
f 180 171 172
f 180 172 179
f 179 172 173
f 179 173 178
f 178 173 174
f 178 174 177
f 177 174 175
f 177 175 176
f 192 216 191
f 191 216 217
f 191 217 207
f 207 217 218
f 207 218 206
f 206 218 219
f 206 219 205
f 205 219 220
f 205 220 204
f 204 220 221
f 204 221 203
f 203 221 222
f 203 222 202
f 202 222 223
f 202 223 201
f 201 223 224
f 201 224 200
f 200 224 208
f 200 208 199
f 199 208 209
f 199 209 198
f 198 209 210
f 198 210 197
f 197 210 211
f 197 211 196
f 196 211 212
f 196 212 195
f 195 212 213
f 195 213 194
f 194 213 214
f 194 214 193
f 193 214 215
f 193 215 192
f 192 215 216
f 226 242 225
f 225 242 243
f 225 243 241
f 241 243 244
f 241 244 240
f 240 244 245
f 240 245 239
f 239 245 246
f 239 246 238
f 238 246 247
f 238 247 237
f 237 247 248
f 237 248 236
f 236 248 249
f 236 249 235
f 235 249 260
f 235 260 234
f 259 250 251
f 259 251 233
f 233 251 252
f 233 252 232
f 232 252 253
f 232 253 231
f 231 253 254
f 231 254 230
f 230 254 255
f 230 255 229
f 229 255 256
f 229 256 228
f 228 256 257
f 228 257 227
f 227 257 258
f 227 258 226
f 226 258 242
f 278 261 279
f 279 261 262
f 279 262 295
f 295 262 263
f 295 263 294
f 294 263 264
f 294 264 293
f 293 264 265
f 293 265 292
f 292 265 266
f 292 266 291
f 291 266 267
f 291 267 290
f 290 267 268
f 290 268 289
f 289 268 269
f 289 269 288
f 288 269 270
f 288 270 287
f 287 270 271
f 287 271 286
f 286 271 272
f 286 272 285
f 285 272 273
f 285 273 284
f 284 273 274
f 284 274 283
f 283 274 275
f 283 275 282
f 282 275 276
f 282 276 281
f 281 276 277
f 281 277 280
f 280 277 278
f 280 278 279
f 297 331 296
f 296 331 314
f 296 314 315
f 331 297 330
f 330 297 298
f 330 298 329
f 329 298 299
f 329 299 328
f 328 299 300
f 328 300 301
f 328 301 327
f 327 301 302
f 327 302 326
f 326 302 303
f 326 303 325
f 325 303 304
f 325 304 324
f 324 304 305
f 324 305 323
f 323 305 322
f 322 305 306
f 322 306 321
f 321 306 307
f 321 307 320
f 320 307 308
f 320 308 319
f 319 308 309
f 319 309 310
f 319 310 318
f 318 310 311
f 318 311 317
f 317 311 312
f 317 312 316
f 316 312 313
f 316 313 315
f 315 313 296
f 333 347 332
f 332 347 348
f 332 348 346
f 346 348 349
f 346 349 345
f 345 349 350
f 345 350 344
f 344 350 351
f 344 351 343
f 343 351 352
f 343 352 342
f 342 352 353
f 342 353 341
f 341 353 363
f 341 363 340
f 362 354 355
f 362 355 339
f 339 355 356
f 339 356 338
f 338 356 357
f 338 357 337
f 337 357 358
f 337 358 336
f 336 358 359
f 336 359 335
f 335 359 360
f 335 360 334
f 334 360 361
f 334 361 333
f 333 361 347
f 365 381 364
f 364 381 382
f 364 382 380
f 380 382 383
f 380 383 379
f 379 383 384
f 379 384 378
f 378 384 385
f 378 385 377
f 377 385 386
f 377 386 376
f 376 386 387
f 376 387 375
f 375 387 388
f 375 388 374
f 374 388 399
f 374 399 373
f 398 389 390
f 398 390 372
f 372 390 391
f 372 391 371
f 371 391 392
f 371 392 370
f 370 392 393
f 370 393 369
f 369 393 394
f 369 394 368
f 368 394 395
f 368 395 367
f 367 395 396
f 367 396 366
f 366 396 397
f 366 397 365
f 365 397 381
f 401 415 400
f 400 415 416
f 400 416 414
f 414 416 417
f 414 417 413
f 413 417 418
f 413 418 412
f 412 418 419
f 412 419 411
f 411 419 420
f 411 420 410
f 410 420 421
f 410 421 409
f 409 421 431
f 409 431 408
f 430 422 423
f 430 423 407
f 407 423 424
f 407 424 406
f 406 424 425
f 406 425 405
f 405 425 426
f 405 426 404
f 404 426 427
f 404 427 403
f 403 427 428
f 403 428 402
f 402 428 429
f 402 429 401
f 401 429 415
f 433 451 432
f 432 451 452
f 432 452 450
f 450 452 453
f 450 453 449
f 449 453 454
f 449 454 448
f 448 454 455
f 448 455 447
f 447 455 456
f 447 456 446
f 446 456 457
f 446 457 445
f 445 457 458
f 445 458 444
f 444 458 459
f 444 459 443
f 443 459 471
f 443 471 442
f 470 460 461
f 470 461 441
f 441 461 462
f 441 462 440
f 440 462 463
f 440 463 439
f 439 463 464
f 439 464 438
f 438 464 465
f 438 465 437
f 437 465 466
f 437 466 436
f 436 466 467
f 436 467 435
f 435 467 468
f 435 468 434
f 434 468 469
f 434 469 433
f 433 469 451
f 473 506 472
f 472 506 489
f 472 489 490
f 506 473 505
f 505 473 474
f 505 474 504
f 504 474 475
f 504 475 503
f 503 475 476
f 503 476 502
f 502 476 477
f 502 477 501
f 501 477 478
f 501 478 500
f 500 478 479
f 500 479 499
f 499 479 507
f 499 507 498
f 508 480 481
f 508 481 497
f 497 481 482
f 497 482 496
f 496 482 483
f 496 483 495
f 495 483 484
f 495 484 494
f 494 484 485
f 494 485 493
f 493 485 486
f 493 486 492
f 492 486 487
f 492 487 491
f 491 487 488
f 491 488 490
f 490 488 472
f 510 545 509
f 509 545 527
f 509 527 528
f 545 510 544
f 544 510 511
f 544 511 543
f 543 511 512
f 543 512 542
f 542 512 513
f 542 513 541
f 541 513 514
f 541 514 540
f 540 514 515
f 540 515 539
f 539 515 516
f 539 516 538
f 538 516 517
f 538 517 537
f 537 517 547
f 537 547 536
f 546 518 519
f 546 519 535
f 535 519 520
f 535 520 534
f 534 520 521
f 534 521 533
f 533 521 522
f 533 522 532
f 532 522 523
f 532 523 531
f 531 523 524
f 531 524 530
f 530 524 525
f 530 525 529
f 529 525 526
f 529 526 528
f 528 526 509
f 566 548 567
f 567 548 549
f 567 549 584
f 584 549 550
f 584 550 583
f 583 550 551
f 583 551 582
f 582 551 552
f 582 552 581
f 581 552 553
f 581 553 580
f 580 553 554
f 580 554 579
f 579 554 555
f 579 555 578
f 578 555 556
f 578 556 577
f 577 556 585
f 577 585 576
f 586 557 558
f 586 558 575
f 575 558 559
f 575 559 574
f 574 559 560
f 574 560 573
f 573 560 561
f 573 561 572
f 572 561 562
f 572 562 571
f 571 562 563
f 571 563 570
f 570 563 564
f 570 564 569
f 569 564 565
f 569 565 568
f 568 565 566
f 568 566 567
v -0.067483378 0.0018786812 0.020534844
v -0.067475394 0.0030168366 0.01962783
v -0.067464025 0.0036876629 0.018336319
v -0.067451237 0.0037751681 0.016883627
v -0.067439241 0.0032642222 0.015520936
v -0.067430111 0.0022431721 0.014483868
v -0.067425426 0.00088856635 0.013951742
v -0.067425995 -0.000565371 0.014016567
v -0.067431722 -0.001867241 0.014667134
v -0.067441614 -0.0027919386 0.015790955
v -0.067453962 -0.0031795753 0.01719371
v -0.067466631 -0.002963125 0.018632851
v -0.06747743 -0.0021800139 0.019859536
v -0.067484492 -0.00096564934 0.020661661
v -0.067486596 0.00046999444 0.020900532
v -0.06747944 0.0016551687 0.020087601
v -0.067482222 0.00035800571 0.020403703
v -0.067479774 -0.00094785493 0.020125706
v -0.067472581 -0.0020037713 0.019308669
v -0.067462068 -0.0026006063 0.018114417
v -0.067450316 -0.0026201493 0.016779486
v -0.067439654 -0.0020585298 0.015568275
v -0.067432193 -0.0010269834 0.014720681
v -0.067429412 0.0002701796 0.014404578
v -0.06743186 0.0015760402 0.014682576
v -0.067439053 0.0026319566 0.015499613
v -0.067449566 0.0032287916 0.016693865
v -0.067461318 0.0032483346 0.018028796
v -0.06747198 0.0026867151 0.019240006
v -0.064428372 -0.0012504939 0.014299846
v -0.064425154 0.00015819286 0.013934158
v -0.064427258 0.0015938366 0.014173029
v -0.06443432 0.0028082012 0.014975154
v -0.064445119 0.0035913123 0.016201839
v -0.064457788 0.0038077626 0.017640979
v -0.064470136 0.0034201259 0.019043735
v -0.064480028 0.0024954283 0.020167555
v -0.064485755 0.0011935583 0.020818123
v -0.064486324 -0.00026037906 0.020882947
v -0.064481639 -0.0016149848 0.020350822
v -0.064472509 -0.0026360349 0.019313754
v -0.064460513 -0.0031469808 0.017951063
v -0.064447725 -0.0030594756 0.01649837
v -0.064436356 -0.0023886493 0.01520686
v -0.064479556 0.0016551707 0.020114009
v -0.064472096 0.0026867171 0.019266414
v -0.064461434 0.0032483366 0.018055204
v -0.064449682 0.0032287936 0.016720273
v -0.064439169 0.0026319586 0.015526021
v -0.064431976 0.0015760422 0.014708984
v -0.064429528 0.00027018159 0.014430986
v -0.06443231 -0.0010269814 0.014747089
v -0.06443977 -0.0020585278 0.015594683
v -0.064450432 -0.0026201473 0.016805894
v -0.064462184 -0.0026006043 0.018140825
v -0.064472697 -0.0020037693 0.019335077
v -0.06447989 -0.00094785294 0.020152114
v -0.064482338 0.0003580077 0.020430111
v -0.064920479 -0.0016975196 0.013400958
v -0.064916476 -0.00010755714 0.012946119
v -0.064917799 0.0015393518 0.013096333
v -0.06492427 0.0030207826 0.013831313
v -0.064935015 0.0041366605 0.015051795
v -0.064948582 0.0047362795 0.016592946
v -0.064963139 0.0047386579 0.018246626
v -0.064976721 0.0041434745 0.019789496
v -0.064987492 0.0030311121 0.021013182
v -0.064993999 0.0015518014 0.02175242
v -0.064995362 -9.466857e-05 0.02190737
v -0.064991397 -0.0016859329 0.021457107
v -0.06498264 -0.0030070823 0.02046244
v -0.064970274 -0.0038796886 0.019057705
v -0.064955968 -0.004185901 0.017432619
v -0.064941655 -0.0038843644 0.015806659
v -0.064929267 -0.0030158024 0.01439942
v -0.064928353 -0.0012504943 0.014295444
v -0.064936337 -0.0023886496 0.015202459
v -0.064947705 -0.0030594759 0.016493969
v -0.064960494 -0.0031469812 0.017946661
v -0.06497249 -0.0026360352 0.019309352
v -0.06498162 -0.0016149851 0.02034642
v -0.064986305 -0.00026037939 0.020878546
v -0.064985735 0.001193558 0.020813721
v -0.064980009 0.002495428 0.020163154
v -0.064970117 0.0034201256 0.019039333
v -0.064957768 0.0038077623 0.017636578
v -0.0649451 0.0035913119 0.016197438
v -0.0649343 0.0028082008 0.014970752
v -0.064927239 0.0015938363 0.014168627
v -0.064925135 0.00015819253 0.013929757
v -0.064695298 0.0025492211 0.021901222
v -0.064686195 0.003944148 0.020867072
v -0.064673441 0.004901237 0.019418215
v -0.064658575 0.0053050486 0.017729404
v -0.064643389 0.0051068776 0.016004334
v -0.064629715 0.0043306263 0.014451074
v -0.064619203 0.003069922 0.01325697
v -0.064613119 0.0014768244 0.01256605
v -0.064612199 -0.00025651587 0.012461647
v -0.064616553 -0.0019210321 0.012956355
v -0.064625656 -0.003315959 0.013990505
v -0.064638409 -0.004273048 0.015439362
v -0.064653276 -0.0046768596 0.017128173
v -0.064668462 -0.0044786886 0.018853243
v -0.064682136 -0.0037024373 0.020406503
v -0.064692648 -0.002441733 0.021600606
v -0.064698731 -0.00084863537 0.022291527
v -0.064699652 0.00088470489 0.02239593
v -0.066895213 0.0025492196 0.021881856
v -0.066899566 0.00088470343 0.022376564
v -0.066898646 -0.00084863683 0.022272161
v -0.066892563 -0.0024417345 0.02158124
v -0.06688205 -0.0037024388 0.020387137
v -0.066868376 -0.0044786901 0.018833877
v -0.066853191 -0.004676861 0.017108807
v -0.066838324 -0.0042730494 0.015419996
v -0.06682557 -0.0033159605 0.013971139
v -0.066816468 -0.0019210335 0.012936989
v -0.066812114 -0.00025651733 0.012442281
v -0.066813034 0.0014768229 0.012546684
v -0.066819117 0.0030699206 0.013237604
v -0.06682963 0.0043306249 0.014431708
v -0.066843304 0.0051068762 0.015984968
v -0.06685849 0.0053050471 0.017710038
v -0.066873356 0.0049012355 0.019398849
v -0.06688611 0.0039441466 0.020847706
v -0.064616553 -0.0019210321 0.012956355
v -0.066816468 -0.0019210335 0.012936989
v -0.064479556 0.0016551707 0.020114009
v -0.064482338 0.0003580077 0.020430111
v -0.06447989 -0.00094785294 0.020152114
v -0.064472697 -0.0020037693 0.019335077
v -0.064462184 -0.0026006043 0.018140825
v -0.064450432 -0.0026201473 0.016805894
v -0.06443977 -0.0020585278 0.015594683
v -0.06443231 -0.0010269814 0.014747089
v -0.064429528 0.00027018159 0.014430986
v -0.064431976 0.0015760422 0.014708984
v -0.064439169 0.0026319586 0.015526021
v -0.064449682 0.0032287936 0.016720273
v -0.064461434 0.0032483366 0.018055204
v -0.064472096 0.0026867171 0.019266414
v -0.06747944 0.0016551687 0.020087601
v -0.06747198 0.0026867151 0.019240006
v -0.067461318 0.0032483346 0.018028796
v -0.067449566 0.0032287916 0.016693865
v -0.067439053 0.0026319566 0.015499613
v -0.06743186 0.0015760402 0.014682576
v -0.067429412 0.0002701796 0.014404578
v -0.067432193 -0.0010269834 0.014720681
v -0.067439654 -0.0020585298 0.015568275
v -0.067450316 -0.0026201493 0.016779486
v -0.067462068 -0.0026006063 0.018114417
v -0.067472581 -0.0020037713 0.019308669
v -0.067479774 -0.00094785493 0.020125706
v -0.067482222 0.00035800571 0.020403703
v -0.067432193 -0.0010269834 0.014720681
v -0.06443231 -0.0010269814 0.014747089
v -0.066991271 0.0023257069 0.021433732
v -0.066982483 0.0036439897 0.020435269
v -0.066970095 0.0045125517 0.01902803
v -0.066955782 0.0048140883 0.017402071
v -0.066941476 0.0045078759 0.015776985
v -0.06692911 0.0036352696 0.01437225
v -0.066920353 0.0023141202 0.013377583
v -0.066916388 0.00072285587 0.012927319
v -0.066917751 -0.00092361408 0.01308227
v -0.066924258 -0.0024029248 0.013821507
v -0.066935029 -0.0035152872 0.015045194
v -0.066948611 -0.0041104706 0.016588064
v -0.066963168 -0.0041080922 0.018241744
v -0.066976735 -0.0035084733 0.019782895
v -0.06698748 -0.0023925953 0.021003377
v -0.066993951 -0.00091116447 0.021738356
v -0.066995274 0.00073574444 0.021888571
v -0.066983397 0.0018786816 0.020539245
v -0.066986615 0.00046999477 0.020904933
v -0.066984511 -0.00096564901 0.020666062
v -0.066977449 -0.0021800135 0.019863937
v -0.06696665 -0.0029631246 0.018637252
v -0.066953982 -0.003179575 0.017198112
v -0.066941633 -0.0027919383 0.015795357
v -0.066931741 -0.0018672407 0.014671536
v -0.066926015 -0.00056537066 0.014020968
v -0.066925445 0.00088856669 0.013956144
v -0.06693013 0.0022431724 0.01448827
v -0.06693926 0.0032642225 0.015525337
v -0.066951256 0.0037751685 0.016888028
v -0.066964044 0.0036876632 0.018340721
v -0.066975413 0.0030168369 0.019632231
v -0.064493731 0.0024598161 0.021724085
v -0.064498 0.0007638561 0.022209246
v -0.064496589 -0.00099284653 0.022049018
v -0.064489686 -0.0025730397 0.021265039
v -0.064478225 -0.0037633091 0.019963192
v -0.064463754 -0.0044029028 0.018319297
v -0.064448226 -0.0044054398 0.016555372
v -0.064433739 -0.0037705774 0.014909644
v -0.064422249 -0.0025840577 0.013604379
v -0.064415309 -0.0010061262 0.012815859
v -0.064413855 0.00075010834 0.012650578
v -0.064418084 0.0024474569 0.013130859
v -0.064427425 0.0038566829 0.014191837
v -0.064440616 0.0047874628 0.015690221
v -0.064455875 0.0051140897 0.017423646
v -0.064471143 0.0047924506 0.019158003
v -0.064484356 0.0038659845 0.020659058
v -0.064420498 -0.0016975192 0.013405359
v -0.064429286 -0.0030158021 0.014403822
v -0.064441674 -0.0038843641 0.015811061
v -0.064455987 -0.0041859007 0.01743702
v -0.064470293 -0.0038796882 0.019062106
v -0.064482659 -0.003007082 0.020466841
v -0.064491416 -0.0016859326 0.021461508
v -0.064495381 -9.4668238e-05 0.021911772
v -0.064494018 0.0015518017 0.021756821
v -0.064487512 0.0030311124 0.021017584
v -0.06447674 0.0041434748 0.019793897
v -0.064463159 0.0047386583 0.018251027
v -0.064448601 0.0047362798 0.016597347
v -0.064435034 0.0041366609 0.015056196
v -0.064424289 0.003020783 0.013835714
v -0.064417818 0.0015393521 0.013100735
v -0.064416495 -0.00010755681 0.01295052
v -0.066991271 0.0023257069 0.021433732
v -0.066995274 0.00073574444 0.021888571
v -0.066993951 -0.00091116447 0.021738356
v -0.06698748 -0.0023925953 0.021003377
v -0.066976735 -0.0035084733 0.019782895
v -0.066963168 -0.0041080922 0.018241744
v -0.066948611 -0.0041104706 0.016588064
v -0.066935029 -0.0035152872 0.015045194
v -0.066924258 -0.0024029248 0.013821507
v -0.066917751 -0.00092361408 0.01308227
v -0.066916388 0.00072285587 0.012927319
v -0.066920353 0.0023141202 0.013377583
v -0.06692911 0.0036352696 0.01437225
v -0.066941476 0.0045078759 0.015776985
v -0.066955782 0.0048140883 0.017402071
v -0.066970095 0.0045125517 0.01902803
v -0.066982483 0.0036439897 0.020435269
v -0.067491252 0.0023257065 0.021429331
v -0.067482463 0.0036439894 0.020430868
v -0.067470076 0.0045125514 0.019023629
v -0.067455763 0.004814088 0.017397669
v -0.067441457 0.0045078755 0.015772583
v -0.067429091 0.0036352693 0.014367848
v -0.067420334 0.0023141199 0.013373182
v -0.067416369 0.00072285553 0.012922918
v -0.067417732 -0.00092361441 0.013077869
v -0.067424238 -0.0024029251 0.013817106
v -0.06743501 -0.0035152875 0.015040793
v -0.067448591 -0.004110471 0.016583662
v -0.067463149 -0.0041080925 0.018237342
v -0.067476716 -0.0035084736 0.019778494
v -0.067487461 -0.0023925957 0.020998976
v -0.067493932 -0.0009111648 0.021733955
v -0.067495255 0.00073574411 0.021884169
v -0.066917751 -0.00092361408 0.01308227
v -0.067417732 -0.00092361441 0.013077869
v -0.067498339 0.0027280295 0.022234369
v -0.067488508 0.0042345504 0.021117487
v -0.067474734 0.0052682063 0.019552722
v -0.067458679 0.0057043232 0.017728805
v -0.067442278 0.0054902983 0.01586573
v -0.06742751 0.0046519469 0.014188209
v -0.067416156 0.0032903864 0.012898577
v -0.067409586 0.0015698406 0.012152383
v -0.067408593 -0.0003021666 0.012039628
v -0.067413295 -0.0020998442 0.012573913
v -0.067423126 -0.0036063651 0.013690794
v -0.0674369 -0.004640021 0.01525556
v -0.067452955 -0.0050761379 0.017079476
v -0.067469356 -0.004862113 0.018942552
v -0.067484124 -0.0040237616 0.020620072
v -0.067495478 -0.0026622011 0.021909704
v -0.067502047 -0.00094165529 0.022655899
v -0.067503041 0.0009303519 0.022768653
v -0.067491252 0.0023257065 0.021429331
v -0.067495255 0.00073574411 0.021884169
v -0.067493932 -0.0009111648 0.021733955
v -0.067487461 -0.0023925957 0.020998976
v -0.067476716 -0.0035084736 0.019778494
v -0.067463149 -0.0041080925 0.018237342
v -0.067448591 -0.004110471 0.016583662
v -0.06743501 -0.0035152875 0.015040793
v -0.067424238 -0.0024029251 0.013817106
v -0.067417732 -0.00092361441 0.013077869
v -0.067416369 0.00072285553 0.012922918
v -0.067420334 0.0023141199 0.013373182
v -0.067429091 0.0036352693 0.014367848
v -0.067441457 0.0045078755 0.015772583
v -0.067455763 0.004814088 0.017397669
v -0.067470076 0.0045125514 0.019023629
v -0.067482463 0.0036439894 0.020430868
v -0.066898362 0.0027280299 0.02223965
v -0.066903064 0.0009303523 0.022773935
v -0.066902071 -0.00094165489 0.02266118
v -0.066895501 -0.0026622007 0.021914986
v -0.066884147 -0.0040237612 0.020625354
v -0.066869379 -0.0048621126 0.018947834
v -0.066852979 -0.0050761375 0.017084758
v -0.066836923 -0.0046400206 0.015260842
v -0.066823149 -0.0036063647 0.013696076
v -0.066813318 -0.0020998438 0.012579194
v -0.066808616 -0.0003021662 0.01204491
v -0.06680961 0.001569841 0.012157665
v -0.06681618 0.0032903868 0.012903859
v -0.066827533 0.0046519473 0.014193491
v -0.066842301 0.0054902987 0.015871011
v -0.066858702 0.0057043236 0.017734087
v -0.066874757 0.0052682067 0.019558003
v -0.066888531 0.0042345508 0.021122769
v -0.066895213 0.0025492196 0.021881856
v -0.06688611 0.0039441466 0.020847706
v -0.066873356 0.0049012355 0.019398849
v -0.06685849 0.0053050471 0.017710038
v -0.066843304 0.0051068762 0.015984968
v -0.06682963 0.0043306249 0.014431708
v -0.066819117 0.0030699206 0.013237604
v -0.066813034 0.0014768229 0.012546684
v -0.066812114 -0.00025651733 0.012442281
v -0.066816468 -0.0019210335 0.012936989
v -0.06682557 -0.0033159605 0.013971139
v -0.066838324 -0.0042730494 0.015419996
v -0.066853191 -0.004676861 0.017108807
v -0.066868376 -0.0044786901 0.018833877
v -0.06688205 -0.0037024388 0.020387137
v -0.066892563 -0.0024417345 0.02158124
v -0.066898646 -0.00084863683 0.022272161
v -0.066899566 0.00088470343 0.022376564
v -0.066983397 0.0018786816 0.020539245
v -0.066975413 0.0030168369 0.019632231
v -0.066964044 0.0036876632 0.018340721
v -0.066951256 0.0037751685 0.016888028
v -0.06693926 0.0032642225 0.015525337
v -0.06693013 0.0022431724 0.01448827
v -0.066925445 0.00088856669 0.013956144
v -0.066926015 -0.00056537066 0.014020968
v -0.066931741 -0.0018672407 0.014671536
v -0.066941633 -0.0027919383 0.015795357
v -0.066953982 -0.003179575 0.017198112
v -0.06696665 -0.0029631246 0.018637252
v -0.066977449 -0.0021800135 0.019863937
v -0.066984511 -0.00096564901 0.020666062
v -0.066986615 0.00046999477 0.020904933
v -0.067483378 0.0018786812 0.020534844
v -0.067486596 0.00046999444 0.020900532
v -0.067484492 -0.00096564934 0.020661661
v -0.06747743 -0.0021800139 0.019859536
v -0.067466631 -0.002963125 0.018632851
v -0.067453962 -0.0031795753 0.01719371
v -0.067441614 -0.0027919386 0.015790955
v -0.067431722 -0.001867241 0.014667134
v -0.067425995 -0.000565371 0.014016567
v -0.067425426 0.00088856635 0.013951742
v -0.067430111 0.0022431721 0.014483868
v -0.067439241 0.0032642222 0.015520936
v -0.067451237 0.0037751681 0.016883627
v -0.067464025 0.0036876629 0.018336319
v -0.067475394 0.0030168366 0.01962783
v -0.066931741 -0.0018672407 0.014671536
v -0.067431722 -0.001867241 0.014667134
v -0.064920479 -0.0016975196 0.013400958
v -0.064929267 -0.0030158024 0.01439942
v -0.064941655 -0.0038843644 0.015806659
v -0.064955968 -0.004185901 0.017432619
v -0.064970274 -0.0038796886 0.019057705
v -0.06498264 -0.0030070823 0.02046244
v -0.064991397 -0.0016859329 0.021457107
v -0.064995362 -9.466857e-05 0.02190737
v -0.064993999 0.0015518014 0.02175242
v -0.064987492 0.0030311121 0.021013182
v -0.064976721 0.0041434745 0.019789496
v -0.064963139 0.0047386579 0.018246626
v -0.064948582 0.0047362795 0.016592946
v -0.064935015 0.0041366605 0.015051795
v -0.06492427 0.0030207826 0.013831313
v -0.064917799 0.0015393518 0.013096333
v -0.064916476 -0.00010755714 0.012946119
v -0.064420498 -0.0016975192 0.013405359
v -0.064416495 -0.00010755681 0.01295052
v -0.064417818 0.0015393521 0.013100735
v -0.064424289 0.003020783 0.013835714
v -0.064435034 0.0041366609 0.015056196
v -0.064448601 0.0047362798 0.016597347
v -0.064463159 0.0047386583 0.018251027
v -0.06447674 0.0041434748 0.019793897
v -0.064487512 0.0030311124 0.021017584
v -0.064494018 0.0015518017 0.021756821
v -0.064495381 -9.4668238e-05 0.021911772
v -0.064491416 -0.0016859326 0.021461508
v -0.064482659 -0.003007082 0.020466841
v -0.064470293 -0.0038796882 0.019062106
v -0.064455987 -0.0041859007 0.01743702
v -0.064441674 -0.0038843641 0.015811061
v -0.064429286 -0.0030158021 0.014403822
v -0.064987492 0.0030311121 0.021013182
v -0.064487512 0.0030311124 0.021017584
v -0.064928353 -0.0012504943 0.014295444
v -0.064925135 0.00015819253 0.013929757
v -0.064927239 0.0015938363 0.014168627
v -0.0649343 0.0028082008 0.014970752
v -0.0649451 0.0035913119 0.016197438
v -0.064957768 0.0038077623 0.017636578
v -0.064970117 0.0034201256 0.019039333
v -0.064980009 0.002495428 0.020163154
v -0.064985735 0.001193558 0.020813721
v -0.064986305 -0.00026037939 0.020878546
v -0.06498162 -0.0016149851 0.02034642
v -0.06497249 -0.0026360352 0.019309352
v -0.064960494 -0.0031469812 0.017946661
v -0.064947705 -0.0030594759 0.016493969
v -0.064936337 -0.0023886496 0.015202459
v -0.064428372 -0.0012504939 0.014299846
v -0.064436356 -0.0023886493 0.01520686
v -0.064447725 -0.0030594756 0.01649837
v -0.064460513 -0.0031469808 0.017951063
v -0.064472509 -0.0026360349 0.019313754
v -0.064481639 -0.0016149848 0.020350822
v -0.064486324 -0.00026037906 0.020882947
v -0.064485755 0.0011935583 0.020818123
v -0.064480028 0.0024954283 0.020167555
v -0.064470136 0.0034201259 0.019043735
v -0.064457788 0.0038077626 0.017640979
v -0.064445119 0.0035913123 0.016201839
v -0.06443432 0.0028082012 0.014975154
v -0.064427258 0.0015938366 0.014173029
v -0.064425154 0.00015819286 0.013934158
v -0.064985735 0.001193558 0.020813721
v -0.064485755 0.0011935583 0.020818123
v -0.067099929 0.0028174347 0.022416787
v -0.067090386 0.0043083201 0.021332577
v -0.067077098 0.0053663689 0.019823041
v -0.067061506 0.0058769253 0.018051761
v -0.067045299 0.0057846624 0.016210683
v -0.067030233 0.0050995783 0.014499317
v -0.067017942 0.003895913 0.013103114
v -0.067009756 0.0023041017 0.012173377
v -0.067006564 0.00049664197 0.011810855
v -0.06700871 -0.0013305996 0.012054834
v -0.067015963 -0.0029796134 0.012878875
v -0.067027537 -0.004271703 0.014193681
v -0.067042176 -0.0050668504 0.015856771
v -0.067058296 -0.005278889 0.017687924
v -0.067074148 -0.0048848411 0.019488706
v -0.067088016 -0.0039274084 0.021063976
v -0.067098396 -0.0025103433 0.022243026
v -0.067104164 -0.00078720637 0.02289809
v -0.067104694 0.0010552734 0.022958181
v -0.067299922 0.0028174346 0.022415027
v -0.067304686 0.0010552733 0.022956421
v -0.067304156 -0.0007872065 0.02289633
v -0.067298389 -0.0025103434 0.022241266
v -0.067288008 -0.0039274086 0.021062215
v -0.067274141 -0.0048848413 0.019486946
v -0.067258288 -0.0052788891 0.017686164
v -0.067242168 -0.0050668505 0.01585501
v -0.067227529 -0.0042717032 0.01419192
v -0.067215955 -0.0029796135 0.012877115
v -0.067208702 -0.0013305998 0.012053074
v -0.067206556 0.00049664184 0.011809094
v -0.067209748 0.0023041016 0.012171616
v -0.067217934 0.0038959128 0.013101354
v -0.067230226 0.0050995782 0.014497556
v -0.067245291 0.0057846623 0.016208923
v -0.067261498 0.0058769252 0.01805
v -0.067277091 0.0053663688 0.01982128
v -0.067290378 0.00430832 0.021330816
v -0.067015963 -0.0029796134 0.012878875
v -0.067215955 -0.0029796135 0.012877115
v -0.064493731 0.0024598161 0.021724085
v -0.064484356 0.0038659845 0.020659058
v -0.064471143 0.0047924506 0.019158003
v -0.064455875 0.0051140897 0.017423646
v -0.064440616 0.0047874628 0.015690221
v -0.064427425 0.0038566829 0.014191837
v -0.064418084 0.0024474569 0.013130859
v -0.064413855 0.00075010834 0.012650578
v -0.064415309 -0.0010061262 0.012815859
v -0.064422249 -0.0025840577 0.013604379
v -0.064433739 -0.0037705774 0.014909644
v -0.064448226 -0.0044054398 0.016555372
v -0.064463754 -0.0044029028 0.018319297
v -0.064478225 -0.0037633091 0.019963192
v -0.064489686 -0.0025730397 0.021265039
v -0.064496589 -0.00099284653 0.022049018
v -0.064498 0.0007638561 0.022209246
v -0.064695298 0.0025492211 0.021901222
v -0.064699652 0.00088470489 0.02239593
v -0.064698731 -0.00084863537 0.022291527
v -0.064692648 -0.002441733 0.021600606
v -0.064682136 -0.0037024373 0.020406503
v -0.064668462 -0.0044786886 0.018853243
v -0.064653276 -0.0046768596 0.017128173
v -0.064638409 -0.004273048 0.015439362
v -0.064625656 -0.003315959 0.013990505
v -0.064616553 -0.0019210321 0.012956355
v -0.064612199 -0.00025651587 0.012461647
v -0.064613119 0.0014768244 0.01256605
v -0.064619203 0.003069922 0.01325697
v -0.064629715 0.0043306263 0.014451074
v -0.064643389 0.0051068776 0.016004334
v -0.064658575 0.0053050486 0.017729404
v -0.064673441 0.004901237 0.019418215
v -0.064686195 0.003944148 0.020867072
v -0.064415309 -0.0010061262 0.012815859
v -0.064616553 -0.0019210321 0.012956355
v -0.066898362 0.0027280299 0.02223965
v -0.066888531 0.0042345508 0.021122769
v -0.066874757 0.0052682067 0.019558003
v -0.066858702 0.0057043236 0.017734087
v -0.066842301 0.0054902987 0.015871011
v -0.066827533 0.0046519473 0.014193491
v -0.06681618 0.0032903868 0.012903859
v -0.06680961 0.001569841 0.012157665
v -0.066808616 -0.0003021662 0.01204491
v -0.066813318 -0.0020998438 0.012579194
v -0.066823149 -0.0036063647 0.013696076
v -0.066836923 -0.0046400206 0.015260842
v -0.066852979 -0.0050761375 0.017084758
v -0.066869379 -0.0048621126 0.018947834
v -0.066884147 -0.0040237612 0.020625354
v -0.066895501 -0.0026622007 0.021914986
v -0.066902071 -0.00094165489 0.02266118
v -0.066903064 0.0009303523 0.022773935
v -0.067099929 0.0028174347 0.022416787
v -0.067104694 0.0010552734 0.022958181
v -0.067104164 -0.00078720637 0.02289809
v -0.067098396 -0.0025103433 0.022243026
v -0.067088016 -0.0039274084 0.021063976
v -0.067074148 -0.0048848411 0.019488706
v -0.067058296 -0.005278889 0.017687924
v -0.067042176 -0.0050668504 0.015856771
v -0.067027537 -0.004271703 0.014193681
v -0.067015963 -0.0029796134 0.012878875
v -0.06700871 -0.0013305996 0.012054834
v -0.067006564 0.00049664197 0.011810855
v -0.067009756 0.0023041017 0.012173377
v -0.067017942 0.003895913 0.013103114
v -0.067030233 0.0050995783 0.014499317
v -0.067045299 0.0057846624 0.016210683
v -0.067061506 0.0058769253 0.018051761
v -0.067077098 0.0053663689 0.019823041
v -0.067090386 0.0043083201 0.021332577
v -0.067015963 -0.0029796134 0.012878875
v -0.066813318 -0.0020998438 0.012579194
v -0.067299922 0.0028174346 0.022415027
v -0.067290378 0.00430832 0.021330816
v -0.067277091 0.0053663688 0.01982128
v -0.067261498 0.0058769252 0.01805
v -0.067245291 0.0057846623 0.016208923
v -0.067230226 0.0050995782 0.014497556
v -0.067217934 0.0038959128 0.013101354
v -0.067209748 0.0023041016 0.012171616
v -0.067206556 0.00049664184 0.011809094
v -0.067208702 -0.0013305998 0.012053074
v -0.067215955 -0.0029796135 0.012877115
v -0.067227529 -0.0042717032 0.01419192
v -0.067242168 -0.0050668505 0.01585501
v -0.067258288 -0.0052788891 0.017686164
v -0.067274141 -0.0048848413 0.019486946
v -0.067288008 -0.0039274086 0.021062215
v -0.067298389 -0.0025103434 0.022241266
v -0.067304156 -0.0007872065 0.02289633
v -0.067304686 0.0010552733 0.022956421
v -0.067498339 0.0027280295 0.022234369
v -0.067503041 0.0009303519 0.022768653
v -0.067502047 -0.00094165529 0.022655899
v -0.067495478 -0.0026622011 0.021909704
v -0.067484124 -0.0040237616 0.020620072
v -0.067469356 -0.004862113 0.018942552
v -0.067452955 -0.0050761379 0.017079476
v -0.0674369 -0.004640021 0.01525556
v -0.067423126 -0.0036063651 0.013690794
v -0.067413295 -0.0020998442 0.012573913
v -0.067408593 -0.0003021666 0.012039628
v -0.067409586 0.0015698406 0.012152383
v -0.067416156 0.0032903864 0.012898577
v -0.06742751 0.0046519469 0.014188209
v -0.067442278 0.0054902983 0.01586573
v -0.067458679 0.0057043232 0.017728805
v -0.067474734 0.0052682063 0.019552722
v -0.067488508 0.0042345504 0.021117487
v -0.067208702 -0.0013305998 0.012053074
v -0.067413295 -0.0020998442 0.012573913
f 601 587 602
f 602 587 588
f 602 588 615
f 615 588 589
f 615 589 614
f 614 589 590
f 614 590 613
f 613 590 591
f 613 591 612
f 612 591 592
f 612 592 611
f 611 592 593
f 611 593 610
f 610 593 594
f 610 594 609
f 609 594 595
f 609 595 608
f 608 595 596
f 608 596 607
f 607 596 597
f 607 597 606
f 606 597 598
f 606 598 605
f 605 598 599
f 605 599 604
f 604 599 600
f 604 600 603
f 603 600 601
f 603 601 602
f 630 616 638
f 638 616 617
f 638 617 637
f 637 617 618
f 637 618 636
f 636 618 619
f 636 619 635
f 635 619 620
f 635 620 634
f 634 620 621
f 634 621 633
f 633 621 622
f 633 622 632
f 632 622 623
f 632 623 631
f 631 623 624
f 631 624 644
f 644 624 625
f 644 625 643
f 643 625 626
f 643 626 642
f 642 626 627
f 642 627 641
f 641 627 628
f 641 628 640
f 640 628 629
f 640 629 639
f 639 629 630
f 639 630 638
f 661 645 662
f 662 645 646
f 662 646 676
f 676 646 647
f 676 647 675
f 675 647 648
f 675 648 674
f 674 648 649
f 674 649 673
f 673 649 650
f 673 650 672
f 672 650 651
f 672 651 671
f 671 651 652
f 671 652 670
f 670 652 653
f 670 653 669
f 669 653 654
f 669 654 655
f 669 655 668
f 668 655 656
f 668 656 667
f 667 656 657
f 667 657 666
f 666 657 658
f 666 658 665
f 665 658 659
f 665 659 664
f 664 659 660
f 664 660 663
f 663 660 661
f 663 661 662
f 678 712 677
f 677 712 695
f 677 695 694
f 694 695 696
f 694 696 693
f 693 696 697
f 693 697 692
f 692 697 698
f 692 698 691
f 691 698 699
f 691 699 690
f 690 699 700
f 690 700 689
f 689 700 701
f 689 701 688
f 688 701 702
f 688 702 687
f 687 702 703
f 687 703 686
f 686 703 714
f 713 704 685
f 685 704 705
f 685 705 684
f 684 705 706
f 684 706 683
f 683 706 707
f 683 707 682
f 682 707 708
f 682 708 681
f 681 708 709
f 681 709 680
f 680 709 710
f 680 710 679
f 679 710 711
f 679 711 678
f 678 711 712
f 716 742 715
f 715 742 729
f 715 729 728
f 728 729 730
f 728 730 727
f 727 730 731
f 727 731 726
f 726 731 732
f 726 732 725
f 725 732 733
f 725 733 724
f 724 733 734
f 724 734 723
f 723 734 735
f 723 735 722
f 722 735 743
f 744 736 721
f 721 736 737
f 721 737 720
f 720 737 738
f 720 738 719
f 719 738 739
f 719 739 718
f 718 739 740
f 718 740 717
f 717 740 741
f 717 741 716
f 716 741 742
f 761 745 762
f 762 745 746
f 762 746 776
f 776 746 747
f 776 747 775
f 775 747 748
f 775 748 774
f 774 748 749
f 774 749 773
f 773 749 750
f 773 750 772
f 772 750 751
f 772 751 771
f 771 751 752
f 771 752 770
f 770 752 753
f 770 753 754
f 770 754 769
f 769 754 755
f 769 755 768
f 768 755 756
f 768 756 767
f 767 756 757
f 767 757 766
f 766 757 758
f 766 758 765
f 765 758 759
f 765 759 764
f 764 759 760
f 764 760 763
f 763 760 761
f 763 761 762
f 778 802 777
f 777 802 803
f 777 803 793
f 793 803 804
f 793 804 792
f 792 804 805
f 792 805 791
f 791 805 806
f 791 806 790
f 790 806 807
f 790 807 789
f 789 807 808
f 789 808 788
f 788 808 809
f 788 809 787
f 787 809 810
f 787 810 786
f 786 810 794
f 786 794 785
f 785 794 795
f 785 795 784
f 784 795 796
f 784 796 783
f 783 796 797
f 783 797 782
f 782 797 798
f 782 798 781
f 781 798 799
f 781 799 780
f 780 799 800
f 780 800 779
f 779 800 801
f 779 801 778
f 778 801 802
f 812 828 811
f 811 828 829
f 811 829 827
f 827 829 830
f 827 830 826
f 826 830 831
f 826 831 825
f 825 831 832
f 825 832 824
f 824 832 833
f 824 833 823
f 823 833 834
f 823 834 822
f 822 834 835
f 822 835 821
f 821 835 846
f 821 846 820
f 845 836 837
f 845 837 819
f 819 837 838
f 819 838 818
f 818 838 839
f 818 839 817
f 817 839 840
f 817 840 816
f 816 840 841
f 816 841 815
f 815 841 842
f 815 842 814
f 814 842 843
f 814 843 813
f 813 843 844
f 813 844 812
f 812 844 828
f 864 847 865
f 865 847 848
f 865 848 881
f 881 848 849
f 881 849 880
f 880 849 850
f 880 850 879
f 879 850 851
f 879 851 878
f 878 851 852
f 878 852 877
f 877 852 853
f 877 853 876
f 876 853 854
f 876 854 875
f 875 854 855
f 875 855 874
f 874 855 856
f 874 856 873
f 873 856 857
f 873 857 872
f 872 857 858
f 872 858 871
f 871 858 859
f 871 859 870
f 870 859 860
f 870 860 869
f 869 860 861
f 869 861 868
f 868 861 862
f 868 862 867
f 867 862 863
f 867 863 866
f 866 863 864
f 866 864 865
f 883 917 882
f 882 917 900
f 882 900 901
f 917 883 916
f 916 883 884
f 916 884 915
f 915 884 885
f 915 885 914
f 914 885 886
f 914 886 887
f 914 887 913
f 913 887 888
f 913 888 912
f 912 888 889
f 912 889 911
f 911 889 890
f 911 890 910
f 910 890 891
f 910 891 909
f 909 891 908
f 908 891 892
f 908 892 907
f 907 892 893
f 907 893 906
f 906 893 894
f 906 894 905
f 905 894 895
f 905 895 896
f 905 896 904
f 904 896 897
f 904 897 903
f 903 897 898
f 903 898 902
f 902 898 899
f 902 899 901
f 901 899 882
f 919 933 918
f 918 933 934
f 918 934 932
f 932 934 935
f 932 935 931
f 931 935 936
f 931 936 930
f 930 936 937
f 930 937 929
f 929 937 938
f 929 938 928
f 928 938 939
f 928 939 927
f 927 939 949
f 927 949 926
f 948 940 941
f 948 941 925
f 925 941 942
f 925 942 924
f 924 942 943
f 924 943 923
f 923 943 944
f 923 944 922
f 922 944 945
f 922 945 921
f 921 945 946
f 921 946 920
f 920 946 947
f 920 947 919
f 919 947 933
f 951 967 950
f 950 967 968
f 950 968 966
f 966 968 969
f 966 969 965
f 965 969 970
f 965 970 964
f 964 970 971
f 964 971 963
f 963 971 972
f 963 972 962
f 962 972 973
f 962 973 961
f 961 973 974
f 961 974 960
f 960 974 985
f 960 985 959
f 984 975 976
f 984 976 958
f 958 976 977
f 958 977 957
f 957 977 978
f 957 978 956
f 956 978 979
f 956 979 955
f 955 979 980
f 955 980 954
f 954 980 981
f 954 981 953
f 953 981 982
f 953 982 952
f 952 982 983
f 952 983 951
f 951 983 967
f 987 1001 986
f 986 1001 1002
f 986 1002 1000
f 1000 1002 1003
f 1000 1003 999
f 999 1003 1004
f 999 1004 998
f 998 1004 1005
f 998 1005 997
f 997 1005 1006
f 997 1006 996
f 996 1006 1007
f 996 1007 995
f 995 1007 1017
f 995 1017 994
f 1016 1008 1009
f 1016 1009 993
f 993 1009 1010
f 993 1010 992
f 992 1010 1011
f 992 1011 991
f 991 1011 1012
f 991 1012 990
f 990 1012 1013
f 990 1013 989
f 989 1013 1014
f 989 1014 988
f 988 1014 1015
f 988 1015 987
f 987 1015 1001
f 1019 1037 1018
f 1018 1037 1038
f 1018 1038 1036
f 1036 1038 1039
f 1036 1039 1035
f 1035 1039 1040
f 1035 1040 1034
f 1034 1040 1041
f 1034 1041 1033
f 1033 1041 1042
f 1033 1042 1032
f 1032 1042 1043
f 1032 1043 1031
f 1031 1043 1044
f 1031 1044 1030
f 1030 1044 1045
f 1030 1045 1029
f 1029 1045 1057
f 1029 1057 1028
f 1056 1046 1047
f 1056 1047 1027
f 1027 1047 1048
f 1027 1048 1026
f 1026 1048 1049
f 1026 1049 1025
f 1025 1049 1050
f 1025 1050 1024
f 1024 1050 1051
f 1024 1051 1023
f 1023 1051 1052
f 1023 1052 1022
f 1022 1052 1053
f 1022 1053 1021
f 1021 1053 1054
f 1021 1054 1020
f 1020 1054 1055
f 1020 1055 1019
f 1019 1055 1037
f 1059 1092 1058
f 1058 1092 1075
f 1058 1075 1076
f 1092 1059 1091
f 1091 1059 1060
f 1091 1060 1090
f 1090 1060 1061
f 1090 1061 1089
f 1089 1061 1062
f 1089 1062 1088
f 1088 1062 1063
f 1088 1063 1087
f 1087 1063 1064
f 1087 1064 1086
f 1086 1064 1065
f 1086 1065 1085
f 1085 1065 1093
f 1085 1093 1084
f 1094 1066 1067
f 1094 1067 1083
f 1083 1067 1068
f 1083 1068 1082
f 1082 1068 1069
f 1082 1069 1081
f 1081 1069 1070
f 1081 1070 1080
f 1080 1070 1071
f 1080 1071 1079
f 1079 1071 1072
f 1079 1072 1078
f 1078 1072 1073
f 1078 1073 1077
f 1077 1073 1074
f 1077 1074 1076
f 1076 1074 1058
f 1096 1131 1095
f 1095 1131 1113
f 1095 1113 1114
f 1131 1096 1130
f 1130 1096 1097
f 1130 1097 1129
f 1129 1097 1098
f 1129 1098 1128
f 1128 1098 1099
f 1128 1099 1127
f 1127 1099 1100
f 1127 1100 1126
f 1126 1100 1101
f 1126 1101 1125
f 1125 1101 1102
f 1125 1102 1124
f 1124 1102 1103
f 1124 1103 1123
f 1123 1103 1133
f 1123 1133 1122
f 1132 1104 1105
f 1132 1105 1121
f 1121 1105 1106
f 1121 1106 1120
f 1120 1106 1107
f 1120 1107 1119
f 1119 1107 1108
f 1119 1108 1118
f 1118 1108 1109
f 1118 1109 1117
f 1117 1109 1110
f 1117 1110 1116
f 1116 1110 1111
f 1116 1111 1115
f 1115 1111 1112
f 1115 1112 1114
f 1114 1112 1095
f 1152 1134 1153
f 1153 1134 1135
f 1153 1135 1170
f 1170 1135 1136
f 1170 1136 1169
f 1169 1136 1137
f 1169 1137 1168
f 1168 1137 1138
f 1168 1138 1167
f 1167 1138 1139
f 1167 1139 1166
f 1166 1139 1140
f 1166 1140 1165
f 1165 1140 1141
f 1165 1141 1164
f 1164 1141 1142
f 1164 1142 1163
f 1163 1142 1171
f 1163 1171 1162
f 1172 1143 1144
f 1172 1144 1161
f 1161 1144 1145
f 1161 1145 1160
f 1160 1145 1146
f 1160 1146 1159
f 1159 1146 1147
f 1159 1147 1158
f 1158 1147 1148
f 1158 1148 1157
f 1157 1148 1149
f 1157 1149 1156
f 1156 1149 1150
f 1156 1150 1155
f 1155 1150 1151
f 1155 1151 1154
f 1154 1151 1152
f 1154 1152 1153
