v -0.0025168923 -0.037916549 0
v 0.0025168923 0.037916549 0
v 0.0025168923 0.037916549 0.04
v -0.0025168923 -0.037916549 0.04
v 0.0025168923 0.037916549 0.04
v -0.39660475 0.064410157 0.04
v -0.40163854 -0.011422941 0.04
v -0.0025168923 -0.037916549 0.04
v -0.39660475 0.064410157 0
v 0.0025168923 0.037916549 0
v -0.0025168923 -0.037916549 0
v -0.40163854 -0.011422941 0
v -0.40163854 -0.011422941 0
v -0.0025168923 -0.037916549 0
v -0.0025168923 -0.037916549 0.04
v -0.40163854 -0.011422941 0.04
v 0.0025168923 0.037916549 0
v -0.39660475 0.064410157 0
v -0.39660475 0.064410157 0.04
v 0.0025168923 0.037916549 0.04
v -0.39660475 0.064410157 0
v -0.40163854 -0.011422941 0
v -0.40163854 -0.011422941 0.04
v -0.39660475 0.064410157 0.04
f 1 2 4
f 4 2 3
f 6 7 5
f 5 7 8
f 10 11 9
f 9 11 12
f 13 14 16
f 16 14 15
f 17 18 20
f 20 18 19
f 21 22 24
f 24 22 23
v -0.39660475 0.064410157 0
v -0.38501108 0.061776622 0
v -0.37479865 0.055689354 0
v -0.36696712 0.046744206 0
v -0.36228309 0.035816745 0
v -0.3612051 0.023976716 0
v -0.36383861 0.012383056 0
v -0.3699259 0.0021705924 0
v -0.37887107 -0.005660922 0
v -0.38979849 -0.010344932 0
v -0.40163854 -0.011422941 0
v -0.41323222 -0.0087894063 0
v -0.42344464 -0.0027021378 0
v -0.43127618 0.0062430104 0
v -0.4359602 0.017170471 0
v -0.4370382 0.0290105 0
v -0.43440468 0.04060416 0
v -0.42831739 0.050816624 0
v -0.41937223 0.058648138 0
v -0.4084448 0.063332148 0
v -0.39660475 0.064410157 0.04
v -0.4084448 0.063332148 0.04
v -0.41937223 0.058648138 0.04
v -0.42831739 0.050816624 0.04
v -0.43440468 0.04060416 0.04
v -0.4370382 0.0290105 0.04
v -0.4359602 0.017170471 0.04
v -0.43127618 0.0062430104 0.04
v -0.42344464 -0.0027021378 0.04
v -0.41323222 -0.0087894063 0.04
v -0.40163854 -0.011422941 0.04
v -0.38979849 -0.010344932 0.04
v -0.37887107 -0.005660922 0.04
v -0.3699259 0.0021705924 0.04
v -0.36383861 0.012383056 0.04
v -0.3612051 0.023976716 0.04
v -0.36228309 0.035816745 0.04
v -0.36696712 0.046744206 0.04
v -0.37479865 0.055689354 0.04
v -0.38501108 0.061776622 0.04
v -0.39660475 0.064410157 0.04
v -0.38501108 0.061776622 0.04
v -0.37479865 0.055689354 0.04
v -0.36696712 0.046744206 0.04
v -0.36228309 0.035816745 0.04
v -0.3612051 0.023976716 0.04
v -0.36383861 0.012383056 0.04
v -0.3699259 0.0021705924 0.04
v -0.37887107 -0.005660922 0.04
v -0.38979849 -0.010344932 0.04
v -0.40163854 -0.011422941 0.04
v -0.41323222 -0.0087894063 0.04
v -0.42344464 -0.0027021378 0.04
v -0.43127618 0.0062430104 0.04
v -0.4359602 0.017170471 0.04
v -0.4370382 0.0290105 0.04
v -0.43440468 0.04060416 0.04
v -0.42831739 0.050816624 0.04
v -0.41937223 0.058648138 0.04
v -0.4084448 0.063332148 0.04
v -0.39660475 0.064410157 0
v -0.4084448 0.063332148 0
v -0.41937223 0.058648138 0
v -0.42831739 0.050816624 0
v -0.43440468 0.04060416 0
v -0.4370382 0.0290105 0
v -0.4359602 0.017170471 0
v -0.43127618 0.0062430104 0
v -0.42344464 -0.0027021378 0
v -0.41323222 -0.0087894063 0
v -0.40163854 -0.011422941 0
v -0.38979849 -0.010344932 0
v -0.37887107 -0.005660922 0
v -0.3699259 0.0021705924 0
v -0.36383861 0.012383056 0
v -0.3612051 0.023976716 0
v -0.36228309 0.035816745 0
v -0.36696712 0.046744206 0
v -0.37479865 0.055689354 0
v -0.38501108 0.061776622 0
v -0.39660475 0.064410157 0
v -0.39660475 0.064410157 0.04
f 26 34 25
f 25 34 35
f 25 35 44
f 44 35 36
f 44 36 43
f 43 36 37
f 43 37 42
f 42 37 38
f 42 38 41
f 41 38 39
f 41 39 40
f 34 26 33
f 33 26 27
f 33 27 32
f 32 27 28
f 32 28 31
f 31 28 29
f 31 29 30
f 46 54 45
f 45 54 55
f 45 55 64
f 64 55 56
f 64 56 63
f 63 56 57
f 63 57 62
f 62 57 58
f 62 58 61
f 61 58 59
f 61 59 60
f 54 46 53
f 53 46 47
f 53 47 52
f 52 47 48
f 52 48 51
f 51 48 49
f 51 49 50
f 66 104 65
f 65 104 105
f 106 85 84
f 84 85 86
f 84 86 83
f 83 86 87
f 83 87 82
f 82 87 88
f 82 88 81
f 81 88 89
f 81 89 80
f 80 89 90
f 80 90 79
f 79 90 91
f 79 91 78
f 78 91 92
f 78 92 77
f 77 92 93
f 77 93 76
f 76 93 94
f 76 94 75
f 75 94 95
f 75 95 74
f 74 95 96
f 74 96 73
f 73 96 97
f 73 97 72
f 72 97 98
f 72 98 71
f 71 98 99
f 71 99 70
f 70 99 100
f 70 100 69
f 69 100 101
f 69 101 68
f 68 101 102
f 68 102 67
f 67 102 103
f 67 103 66
f 66 103 104
v 0.0025168923 0.037916549 0.04
v -0.009323138 0.036838539 0.04
v -0.020250598 0.032154531 0.04
v -0.029195745 0.024323016 0.04
v -0.035283016 0.014110551 0.04
v -0.037916549 0.0025168923 0.04
v -0.036838539 -0.009323138 0.04
v -0.032154531 -0.020250598 0.04
v -0.024323016 -0.029195745 0.04
v -0.014110551 -0.035283016 0.04
v -0.0025168923 -0.037916549 0.04
v 0.009323138 -0.036838539 0.04
v 0.02025056 -0.032154529 0.04
v 0.029195745 -0.024323016 0.04
v 0.035283016 -0.014110551 0.04
v 0.037916587 -0.0025168948 0.04
v 0.036838539 0.009323138 0.04
v 0.032154531 0.020250598 0.04
v 0.024322978 0.029195747 0.04
v 0.014110551 0.035283016 0.04
v 0.0025168923 0.037916549 0
v 0.014110551 0.035283016 0
v 0.024322978 0.029195747 0
v 0.032154531 0.020250598 0
v 0.036838539 0.009323138 0
v 0.037916587 -0.0025168948 0
v 0.035283016 -0.014110551 0
v 0.029195745 -0.024323016 0
v 0.02025056 -0.032154529 0
v 0.009323138 -0.036838539 0
v -0.0025168923 -0.037916549 0
v -0.014110551 -0.035283016 0
v -0.024323016 -0.029195745 0
v -0.032154531 -0.020250598 0
v -0.036838539 -0.009323138 0
v -0.037916549 0.0025168923 0
v -0.035283016 0.014110551 0
v -0.029195745 0.024323016 0
v -0.020250598 0.032154531 0
v -0.009323138 0.036838539 0
v 0.0025168923 0.037916549 0.04
v 0.014110551 0.035283016 0.04
v 0.024322978 0.029195747 0.04
v 0.032154531 0.020250598 0.04
v 0.036838539 0.009323138 0.04
v 0.037916587 -0.0025168948 0.04
v 0.035283016 -0.014110551 0.04
v 0.029195745 -0.024323016 0.04
v 0.02025056 -0.032154529 0.04
v 0.009323138 -0.036838539 0.04
v -0.0025168923 -0.037916549 0.04
v -0.014110551 -0.035283016 0.04
v -0.024323016 -0.029195745 0.04
v -0.032154531 -0.020250598 0.04
v -0.036838539 -0.009323138 0.04
v -0.037916549 0.0025168923 0.04
v -0.035283016 0.014110551 0.04
v -0.029195745 0.024323016 0.04
v -0.020250598 0.032154531 0.04
v -0.009323138 0.036838539 0.04
v 0.0025168923 0.037916549 0
v -0.009323138 0.036838539 0
v -0.020250598 0.032154531 0
v -0.029195745 0.024323016 0
v -0.035283016 0.014110551 0
v -0.037916549 0.0025168923 0
v -0.036838539 -0.009323138 0
v -0.032154531 -0.020250598 0
v -0.024323016 -0.029195745 0
v -0.014110551 -0.035283016 0
v -0.0025168923 -0.037916549 0
v 0.009323138 -0.036838539 0
v 0.02025056 -0.032154529 0
v 0.029195745 -0.024323016 0
v 0.035283016 -0.014110551 0
v 0.037916587 -0.0025168948 0
v 0.036838539 0.009323138 0
v 0.032154531 0.020250598 0
v 0.024322978 0.029195747 0
v 0.014110551 0.035283016 0
v 0.0025168923 0.037916549 0
v 0.0025168923 0.037916549 0.04
f 108 116 107
f 107 116 117
f 107 117 126
f 126 117 118
f 126 118 125
f 125 118 119
f 125 119 124
f 124 119 120
f 124 120 123
f 123 120 121
f 123 121 122
f 116 108 115
f 115 108 109
f 115 109 114
f 114 109 110
f 114 110 113
f 113 110 111
f 113 111 112
f 128 136 127
f 127 136 137
f 127 137 146
f 146 137 138
f 146 138 145
f 145 138 139
f 145 139 144
f 144 139 140
f 144 140 143
f 143 140 141
f 143 141 142
f 136 128 135
f 135 128 129
f 135 129 134
f 134 129 130
f 134 130 133
f 133 130 131
f 133 131 132
f 148 186 147
f 147 186 187
f 188 167 166
f 166 167 168
f 166 168 165
f 165 168 169
f 165 169 164
f 164 169 170
f 164 170 163
f 163 170 171
f 163 171 162
f 162 171 172
f 162 172 161
f 161 172 173
f 161 173 160
f 160 173 174
f 160 174 159
f 159 174 175
f 159 175 158
f 158 175 176
f 158 176 157
f 157 176 177
f 157 177 156
f 156 177 178
f 156 178 155
f 155 178 179
f 155 179 154
f 154 179 180
f 154 180 153
f 153 180 181
f 153 181 152
f 152 181 182
f 152 182 151
f 151 182 183
f 151 183 150
f 150 183 184
f 150 184 149
f 149 184 185
f 149 185 148
f 148 185 186
