v 0.066140153 0.018728438 0.071706257
v 0.066138153 0.018728438 0.071706257
v 0.066138153 0.018728438 0.071906257
v 0.066140153 0.018728438 0.071906257
v 0.066140153 0.018428438 0.071706257
v 0.066138153 0.018428438 0.071706257
v 0.066138153 0.018728438 0.071706257
v 0.066140153 0.018728438 0.071706257
v 0.066138153 0.018428438 0.071506257
v 0.066140153 0.018428438 0.071506257
v 0.066140153 0.018228438 0.071506257
v 0.066138153 0.018228438 0.071506257
v 0.066138153 0.017928438 0.071706257
v 0.066140153 0.017928438 0.071706257
v 0.066140153 0.017928438 0.071906257
v 0.066138153 0.017928438 0.071906257
v 0.066140153 0.018428438 0.071506257
v 0.066138153 0.018428438 0.071506257
v 0.066138153 0.018428438 0.071706257
v 0.066140153 0.018428438 0.071706257
v 0.066138153 0.018228438 0.071506257
v 0.066140153 0.018228438 0.071506257
v 0.066140153 0.018228438 0.071706257
v 0.066138153 0.018228438 0.071706257
v 0.066138153 0.018228438 0.071706257
v 0.066140153 0.018228438 0.071706257
v 0.066140153 0.017928438 0.071706257
v 0.066138153 0.017928438 0.071706257
v 0.066140153 0.017928438 0.071906257
v 0.066140153 0.017928438 0.071706257
v 0.066140153 0.018228438 0.071706257
v 0.066140153 0.018228438 0.071506257
v 0.066140153 0.018428438 0.071506257
v 0.066140153 0.018428438 0.071706257
v 0.066140153 0.018728438 0.071706257
v 0.066140153 0.018728438 0.071906257
v 0.066138153 0.017928438 0.071706257
v 0.066138153 0.017928438 0.071906257
v 0.066138153 0.018728438 0.071906257
v 0.066138153 0.018728438 0.071706257
v 0.066138153 0.018428438 0.071706257
v 0.066138153 0.018428438 0.071506257
v 0.066138153 0.018228438 0.071506257
v 0.066138153 0.018228438 0.071706257
v 0.066138153 0.017928438 0.071906257
v 0.066140153 0.017928438 0.071906257
v 0.066140153 0.018728438 0.071906257
v 0.066138153 0.018728438 0.071906257
f 1 2 4
f 4 2 3
f 5 6 8
f 8 6 7
f 9 10 12
f 12 10 11
f 13 14 16
f 16 14 15
f 17 18 20
f 20 18 19
f 21 22 24
f 24 22 23
f 25 26 28
f 28 26 27
f 30 31 29
f 29 31 34
f 29 34 36
f 36 34 35
f 32 33 31
f 31 33 34
f 37 38 44
f 44 38 39
f 44 39 41
f 41 39 40
f 42 43 41
f 41 43 44
f 45 46 48
f 48 46 47
