v -0.0033000001 -0.0060000002 0.001
v -0.0033000001 -0.0073000002 0.001
v -0.0033000001 -0.0073000002 0
v -0.0033000001 -0.0060000002 0
v -0.0113 0.0102 0.001
v -0.0055000001 0.0102 0.001
v -0.0055000001 0.0102 0
v -0.0113 0.0102 0
v -0.0113 0.0115 0.001
v -0.0113 0.0102 0.001
v -0.0113 0.0102 0
v -0.0113 0.0115 0
v -0.0033000001 0.0080000001 0.001
v -0.0033000001 0.0067000002 0.001
v -0.0033000001 0.0067000002 0
v -0.0033000001 0.0080000001 0
v -0.0113 0.001 0.001
v -0.0113 -0.00029999999 0.001
v -0.0113 -0.00029999999 0
v -0.0113 0.001 0
v 0.0047 0.0067000002 0.001
v 0.0105 0.0067000002 0.001
v 0.0105 0.0067000002 0
v 0.0047 0.0067000002 0
v -0.0033000001 0.0044999999 0.001
v -0.0033000001 0.0031999999 0.001
v -0.0033000001 0.0031999999 0
v -0.0033000001 0.0044999999 0
v 0.0047 0.0031999999 0.001
v 0.0105 0.0031999999 0.001
v 0.0105 0.0031999999 0
v 0.0047 0.0031999999 0
v -0.0033000001 0.015 0.001
v -0.0033000001 0.0137 0.001
v -0.0033000001 0.0137 0
v -0.0033000001 0.015 0
v 0.0047 0.0044999999 0.001
v 0.0047 0.0031999999 0.001
v 0.0047 0.0031999999 0
v 0.0047 0.0044999999 0
v -0.0113 -0.00029999999 0.001
v -0.0055000001 -0.00029999999 0.001
v -0.0055000001 -0.00029999999 0
v -0.0113 -0.00029999999 0
v 0.0047 -0.0060000002 0.001
v 0.0047 -0.0073000002 0.001
v 0.0047 -0.0073000002 0
v 0.0047 -0.0060000002 0
v -0.0113 -0.0108 0.001
v -0.0055000001 -0.0108 0.001
v -0.0055000001 -0.0108 0
v -0.0113 -0.0108 0
v -0.0033000001 -0.0025 0.001
v -0.0033000001 -0.0038 0.001
v -0.0033000001 -0.0038 0
v -0.0033000001 -0.0025 0
v -0.0113 0.0067000002 0.001
v -0.0055000001 0.0067000002 0.001
v -0.0055000001 0.0067000002 0
v -0.0113 0.0067000002 0
v 0.0047 0.015 0.001
v 0.0047 0.0137 0.001
v 0.0047 0.0137 0
v 0.0047 0.015 0
v -0.0033000001 0.0115 0.001
v -0.0033000001 0.0102 0.001
v -0.0033000001 0.0102 0
v -0.0033000001 0.0115 0
v -0.0033000001 0.0102 0.001
v 0.0025 0.0102 0.001
v 0.0025 0.0102 0
v -0.0033000001 0.0102 0
v -0.0033000001 -0.00029999999 0.001
v 0.0025 -0.00029999999 0.001
v 0.0025 -0.00029999999 0
v -0.0033000001 -0.00029999999 0
v -0.0113 0.015 0.001
v -0.0113 0.0137 0.001
v -0.0113 0.0137 0
v -0.0113 0.015 0
v -0.0113 -0.0094999999 0.001
v -0.0113 -0.0108 0.001
v -0.0113 -0.0108 0
v -0.0113 -0.0094999999 0
v 0.0047 -0.0025 0.001
v 0.0047 -0.0038 0.001
v 0.0047 -0.0038 0
v 0.0047 -0.0025 0
v -0.0113 -0.0060000002 0.001
v -0.0113 -0.0073000002 0.001
v -0.0113 -0.0073000002 0
v -0.0113 -0.0060000002 0
v -0.0113 0.0137 0.001
v -0.0055000001 0.0137 0.001
v -0.0055000001 0.0137 0
v -0.0113 0.0137 0
v 0.0047 0.0102 0.001
v 0.0105 0.0102 0.001
v 0.0105 0.0102 0
v 0.0047 0.0102 0
v -0.0113 0.0080000001 0.001
v -0.0113 0.0067000002 0.001
v -0.0113 0.0067000002 0
v -0.0113 0.0080000001 0
v -0.0033000001 -0.0038 0.001
v 0.0025 -0.0038 0.001
v 0.0025 -0.0038 0
v -0.0033000001 -0.0038 0
v -0.0033000001 0.0031999999 0.001
v 0.0025 0.0031999999 0.001
v 0.0025 0.0031999999 0
v -0.0033000001 0.0031999999 0
v -0.0033000001 0.001 0.001
v -0.0033000001 -0.00029999999 0.001
v -0.0033000001 -0.00029999999 0
v -0.0033000001 0.001 0
v 0.0047 0.0115 0.001
v 0.0047 0.0102 0.001
v 0.0047 0.0102 0
v 0.0047 0.0115 0
v 0.0047 0.0080000001 0.001
v 0.0047 0.0067000002 0.001
v 0.0047 0.0067000002 0
v 0.0047 0.0080000001 0
v -0.0113 0.0044999999 0.001
v -0.0113 0.0031999999 0.001
v -0.0113 0.0031999999 0
v -0.0113 0.0044999999 0
v -0.0113 -0.0038 0.001
v -0.0055000001 -0.0038 0.001
v -0.0055000001 -0.0038 0
v -0.0113 -0.0038 0
v 0.0047 0.0137 0.001
v 0.0105 0.0137 0.001
v 0.0105 0.0137 0
v 0.0047 0.0137 0
v -0.0113 -0.0025 0.001
v -0.0113 -0.0038 0.001
v -0.0113 -0.0038 0
v -0.0113 -0.0025 0
v 0.0047 -0.00029999999 0.001
v 0.0105 -0.00029999999 0.001
v 0.0105 -0.00029999999 0
v 0.0047 -0.00029999999 0
v -0.0113 0.0031999999 0.001
v -0.0055000001 0.0031999999 0.001
v -0.0055000001 0.0031999999 0
v -0.0113 0.0031999999 0
v -0.0113 -0.0073000002 0.001
v -0.0055000001 -0.0073000002 0.001
v -0.0055000001 -0.0073000002 0
v -0.0113 -0.0073000002 0
v -0.0033000001 0.0067000002 0.001
v 0.0025 0.0067000002 0.001
v 0.0025 0.0067000002 0
v -0.0033000001 0.0067000002 0
v 0.0047 -0.0073000002 0.001
v 0.0105 -0.0073000002 0.001
v 0.0105 -0.0073000002 0
v 0.0047 -0.0073000002 0
v 0.0047 -0.0108 0.001
v 0.0105 -0.0108 0.001
v 0.0105 -0.0108 0
v 0.0047 -0.0108 0
v 0.0047 -0.0038 0.001
v 0.0105 -0.0038 0.001
v 0.0105 -0.0038 0
v 0.0047 -0.0038 0
v -0.0033000001 -0.0108 0.001
v 0.0025 -0.0108 0.001
v 0.0025 -0.0108 0
v -0.0033000001 -0.0108 0
v -0.0033000001 0.0137 0.001
v 0.0025 0.0137 0.001
v 0.0025 0.0137 0
v -0.0033000001 0.0137 0
v -0.0033000001 -0.0094999999 0.001
v -0.0033000001 -0.0108 0.001
v -0.0033000001 -0.0108 0
v -0.0033000001 -0.0094999999 0
v 0.0047 0.001 0.001
v 0.0047 -0.00029999999 0.001
v 0.0047 -0.00029999999 0
v 0.0047 0.001 0
v 0.0047 -0.0094999999 0.001
v 0.0047 -0.0108 0.001
v 0.0047 -0.0108 0
v 0.0047 -0.0094999999 0
v -0.0033000001 -0.0073000002 0.001
v 0.0025 -0.0073000002 0.001
v 0.0025 -0.0073000002 0
v -0.0033000001 -0.0073000002 0
v 0.0025 0.0080000001 0.001
v -0.0033000001 0.0080000001 0.001
v -0.0033000001 0.0080000001 0
v 0.0025 0.0080000001 0
v -0.0055000001 0.0102 0.001
v -0.0055000001 0.0115 0.001
v -0.0055000001 0.0115 0
v -0.0055000001 0.0102 0
v -0.0128 -0.0128 0.0060000002
v 0.0128 -0.0128 0.0060000002
v 0.0128 -0.0128 0.001
v -0.0128 -0.0128 0.001
v 0.0025 -0.0073000002 0.001
v 0.0025 -0.0060000002 0.001
v 0.0025 -0.0060000002 0
v 0.0025 -0.0073000002 0
v -0.0055000001 0.0067000002 0.001
v -0.0055000001 0.0080000001 0.001
v -0.0055000001 0.0080000001 0
v -0.0055000001 0.0067000002 0
v 0.0025 -0.0094999999 0.001
v -0.0033000001 -0.0094999999 0.001
v -0.0033000001 -0.0094999999 0
v 0.0025 -0.0094999999 0
v 0.0025 -0.0038 0.001
v 0.0025 -0.0025 0.001
v 0.0025 -0.0025 0
v 0.0025 -0.0038 0
v 0.0105 0.0115 0.001
v 0.0047 0.0115 0.001
v 0.0047 0.0115 0
v 0.0105 0.0115 0
v 0.0105 -0.0025 0.001
v 0.0047 -0.0025 0.001
v 0.0047 -0.0025 0
v 0.0105 -0.0025 0
v -0.0055000001 -0.0073000002 0.001
v -0.0055000001 -0.0060000002 0.001
v -0.0055000001 -0.0060000002 0
v -0.0055000001 -0.0073000002 0
v 0.0105 -0.0073000002 0.001
v 0.0105 -0.0060000002 0.001
v 0.0105 -0.0060000002 0
v 0.0105 -0.0073000002 0
v -0.0128 0.0188 0.001
v -0.0128 -0.0128 0.001
v 0.0128 -0.0128 0.001
v 0.0128 0.0188 0.001
v 0.0047 0.015 0.001
v 0.0105 0.015 0.001
v 0.0105 0.0137 0.001
v 0.0047 0.0137 0.001
v -0.0113 0.015 0.001
v -0.0055000001 0.015 0.001
v -0.0055000001 0.0137 0.001
v -0.0113 0.0137 0.001
v -0.0033000001 0.0115 0.001
v 0.0025 0.0115 0.001
v 0.0025 0.0102 0.001
v -0.0033000001 0.0102 0.001
v 0.0047 0.0080000001 0.001
v 0.0105 0.0080000001 0.001
v 0.0105 0.0067000002 0.001
v 0.0047 0.0067000002 0.001
v -0.0113 0.0080000001 0.001
v -0.0055000001 0.0080000001 0.001
v -0.0055000001 0.0067000002 0.001
v -0.0113 0.0067000002 0.001
v -0.0033000001 0.0044999999 0.001
v 0.0025 0.0044999999 0.001
v 0.0025 0.0031999999 0.001
v -0.0033000001 0.0031999999 0.001
v -0.0113 -0.0094999999 0.001
v -0.0055000001 -0.0094999999 0.001
v -0.0055000001 -0.0108 0.001
v -0.0113 -0.0108 0.001
v -0.0033000001 0.001 0.001
v 0.0025 0.001 0.001
v 0.0025 -0.00029999999 0.001
v -0.0033000001 -0.00029999999 0.001
v 0.0047 -0.0025 0.001
v 0.0105 -0.0025 0.001
v 0.0105 -0.0038 0.001
v 0.0047 -0.0038 0.001
v -0.0113 -0.0025 0.001
v -0.0055000001 -0.0025 0.001
v -0.0055000001 -0.0038 0.001
v -0.0113 -0.0038 0.001
v -0.0033000001 -0.0060000002 0.001
v 0.0025 -0.0060000002 0.001
v 0.0025 -0.0073000002 0.001
v -0.0033000001 -0.0073000002 0.001
v 0.0047 -0.0094999999 0.001
v 0.0105 -0.0094999999 0.001
v 0.0105 -0.0108 0.001
v 0.0047 -0.0108 0.001
v -0.0033000001 -0.0094999999 0.001
v 0.0025 -0.0094999999 0.001
v 0.0025 -0.0108 0.001
v -0.0033000001 -0.0108 0.001
v -0.0113 -0.0060000002 0.001
v -0.0055000001 -0.0060000002 0.001
v -0.0055000001 -0.0073000002 0.001
v -0.0113 -0.0073000002 0.001
v 0.0047 -0.0060000002 0.001
v 0.0105 -0.0060000002 0.001
v 0.0105 -0.0073000002 0.001
v 0.0047 -0.0073000002 0.001
v -0.0033000001 -0.0025 0.001
v 0.0025 -0.0025 0.001
v 0.0025 -0.0038 0.001
v -0.0033000001 -0.0038 0.001
v -0.0113 0.001 0.001
v -0.0055000001 0.001 0.001
v -0.0055000001 -0.00029999999 0.001
v -0.0113 -0.00029999999 0.001
v 0.0047 0.001 0.001
v 0.0105 0.001 0.001
v 0.0105 -0.00029999999 0.001
v 0.0047 -0.00029999999 0.001
v -0.0113 0.0044999999 0.001
v -0.0055000001 0.0044999999 0.001
v -0.0055000001 0.0031999999 0.001
v -0.0113 0.0031999999 0.001
v 0.0047 0.0044999999 0.001
v 0.0105 0.0044999999 0.001
v 0.0105 0.0031999999 0.001
v 0.0047 0.0031999999 0.001
v -0.0033000001 0.0080000001 0.001
v 0.0025 0.0080000001 0.001
v 0.0025 0.0067000002 0.001
v -0.0033000001 0.0067000002 0.001
v -0.0113 0.0115 0.001
v -0.0055000001 0.0115 0.001
v -0.0055000001 0.0102 0.001
v -0.0113 0.0102 0.001
v 0.0047 0.0115 0.001
v 0.0105 0.0115 0.001
v 0.0105 0.0102 0.001
v 0.0047 0.0102 0.001
v -0.0033000001 0.015 0.001
v 0.0025 0.015 0.001
v 0.0025 0.0137 0.001
v -0.0033000001 0.0137 0.001
v -0.0055000001 0.001 0.001
v -0.0113 0.001 0.001
v -0.0113 0.001 0
v -0.0055000001 0.001 0
v -0.014 -0.014 0
v 0.014 -0.014 0
v 0.014 -0.014 0.0060000002
v -0.014 -0.014 0.0060000002
v 0.0105 0.0102 0.001
v 0.0105 0.0115 0.001
v 0.0105 0.0115 0
v 0.0105 0.0102 0
v 0.0025 0.0137 0.001
v 0.0025 0.015 0.001
v 0.0025 0.015 0
v 0.0025 0.0137 0
v 0.0025 -0.00029999999 0.001
v 0.0025 0.001 0.001
v 0.0025 0.001 0
v 0.0025 -0.00029999999 0
v 0.0105 0.001 0.001
v 0.0047 0.001 0.001
v 0.0047 0.001 0
v 0.0105 0.001 0
v -0.0055000001 -0.0060000002 0.001
v -0.0113 -0.0060000002 0.001
v -0.0113 -0.0060000002 0
v -0.0055000001 -0.0060000002 0
v 0.0105 0.0137 0.001
v 0.0105 0.015 0.001
v 0.0105 0.015 0
v 0.0105 0.0137 0
v -0.0055000001 0.015 0.001
v -0.0113 0.015 0.001
v -0.0113 0.015 0
v -0.0055000001 0.015 0
v -0.0055000001 -0.0094999999 0.001
v -0.0113 -0.0094999999 0.001
v -0.0113 -0.0094999999 0
v -0.0055000001 -0.0094999999 0
v 0.0025 0.0044999999 0.001
v -0.0033000001 0.0044999999 0.001
v -0.0033000001 0.0044999999 0
v 0.0025 0.0044999999 0
v 0.0025 -0.0108 0.001
v 0.0025 -0.0094999999 0.001
v 0.0025 -0.0094999999 0
v 0.0025 -0.0108 0
v 0.0105 0.0044999999 0.001
v 0.0047 0.0044999999 0.001
v 0.0047 0.0044999999 0
v 0.0105 0.0044999999 0
v 0.0128 -0.0128 0.0060000002
v -0.0128 -0.0128 0.0060000002
v -0.0128 0.0188 0.0060000002
v 0.0128 0.0188 0.0060000002
v -0.014 0.02 0.0060000002
v -0.014 -0.014 0.0060000002
v 0.014 -0.014 0.0060000002
v 0.014 0.02 0.0060000002
v 0.0128 0.0188 0.0060000002
v -0.0128 0.0188 0.0060000002
v -0.0128 0.0188 0.001
v 0.0128 0.0188 0.001
v 0.0105 0.0031999999 0.001
v 0.0105 0.0044999999 0.001
v 0.0105 0.0044999999 0
v 0.0105 0.0031999999 0
v 0.014 -0.014 0
v 0.014 0.02 0
v 0.014 0.02 0.0060000002
v 0.014 -0.014 0.0060000002
v -0.0055000001 -0.0025 0.001
v -0.0113 -0.0025 0.001
v -0.0113 -0.0025 0
v -0.0055000001 -0.0025 0
v -0.0055000001 0.0044999999 0.001
v -0.0113 0.0044999999 0.001
v -0.0113 0.0044999999 0
v -0.0055000001 0.0044999999 0
v 0.0025 0.0067000002 0.001
v 0.0025 0.0080000001 0.001
v 0.0025 0.0080000001 0
v 0.0025 0.0067000002 0
v 0.0105 -0.0094999999 0.001
v 0.0047 -0.0094999999 0.001
v 0.0047 -0.0094999999 0
v 0.0105 -0.0094999999 0
v -0.0055000001 -0.0108 0.001
v -0.0055000001 -0.0094999999 0.001
v -0.0055000001 -0.0094999999 0
v -0.0055000001 -0.0108 0
v -0.0055000001 -0.0038 0.001
v -0.0055000001 -0.0025 0.001
v -0.0055000001 -0.0025 0
v -0.0055000001 -0.0038 0
v -0.0055000001 0.0080000001 0.001
v -0.0113 0.0080000001 0.001
v -0.0113 0.0080000001 0
v -0.0055000001 0.0080000001 0
v -0.0128 0.0188 0.0060000002
v -0.0128 -0.0128 0.0060000002
v -0.0128 -0.0128 0.001
v -0.0128 0.0188 0.001
v 0.0105 0.0080000001 0.001
v 0.0047 0.0080000001 0.001
v 0.0047 0.0080000001 0
v 0.0105 0.0080000001 0
v 0.0105 -0.0060000002 0.001
v 0.0047 -0.0060000002 0.001
v 0.0047 -0.0060000002 0
v 0.0105 -0.0060000002 0
v -0.014 -0.014 0
v -0.014 0.02 0
v 0.014 0.02 0
v 0.014 -0.014 0
v 0.0105 0.015 0
v 0.0047 0.015 0
v 0.0047 0.0137 0
v 0.0105 0.0137 0
v -0.0055000001 0.015 0
v -0.0113 0.015 0
v -0.0113 0.0137 0
v -0.0055000001 0.0137 0
v 0.0025 0.0115 0
v -0.0033000001 0.0115 0
v -0.0033000001 0.0102 0
v 0.0025 0.0102 0
v 0.0105 0.0080000001 0
v 0.0047 0.0080000001 0
v 0.0047 0.0067000002 0
v 0.0105 0.0067000002 0
v -0.0055000001 0.0080000001 0
v -0.0113 0.0080000001 0
v -0.0113 0.0067000002 0
v -0.0055000001 0.0067000002 0
v 0.0025 0.0044999999 0
v -0.0033000001 0.0044999999 0
v -0.0033000001 0.0031999999 0
v 0.0025 0.0031999999 0
v -0.0055000001 -0.0094999999 0
v -0.0113 -0.0094999999 0
v -0.0113 -0.0108 0
v -0.0055000001 -0.0108 0
v 0.0025 0.001 0
v -0.0033000001 0.001 0
v -0.0033000001 -0.00029999999 0
v 0.0025 -0.00029999999 0
v 0.0105 -0.0025 0
v 0.0047 -0.0025 0
v 0.0047 -0.0038 0
v 0.0105 -0.0038 0
v -0.0055000001 -0.0025 0
v -0.0113 -0.0025 0
v -0.0113 -0.0038 0
v -0.0055000001 -0.0038 0
v 0.0025 -0.0060000002 0
v -0.0033000001 -0.0060000002 0
v -0.0033000001 -0.0073000002 0
v 0.0025 -0.0073000002 0
v 0.0105 -0.0094999999 0
v 0.0047 -0.0094999999 0
v 0.0047 -0.0108 0
v 0.0105 -0.0108 0
v 0.0025 -0.0094999999 0
v -0.0033000001 -0.0094999999 0
v -0.0033000001 -0.0108 0
v 0.0025 -0.0108 0
v -0.0055000001 -0.0060000002 0
v -0.0113 -0.0060000002 0
v -0.0113 -0.0073000002 0
v -0.0055000001 -0.0073000002 0
v 0.0105 -0.0060000002 0
v 0.0047 -0.0060000002 0
v 0.0047 -0.0073000002 0
v 0.0105 -0.0073000002 0
v 0.0025 -0.0025 0
v -0.0033000001 -0.0025 0
v -0.0033000001 -0.0038 0
v 0.0025 -0.0038 0
v -0.0055000001 0.001 0
v -0.0113 0.001 0
v -0.0113 -0.00029999999 0
v -0.0055000001 -0.00029999999 0
v 0.0105 0.001 0
v 0.0047 0.001 0
v 0.0047 -0.00029999999 0
v 0.0105 -0.00029999999 0
v -0.0055000001 0.0044999999 0
v -0.0113 0.0044999999 0
v -0.0113 0.0031999999 0
v -0.0055000001 0.0031999999 0
v 0.0105 0.0044999999 0
v 0.0047 0.0044999999 0
v 0.0047 0.0031999999 0
v 0.0105 0.0031999999 0
v 0.0025 0.0080000001 0
v -0.0033000001 0.0080000001 0
v -0.0033000001 0.0067000002 0
v 0.0025 0.0067000002 0
v -0.0055000001 0.0115 0
v -0.0113 0.0115 0
v -0.0113 0.0102 0
v -0.0055000001 0.0102 0
v 0.0105 0.0115 0
v 0.0047 0.0115 0
v 0.0047 0.0102 0
v 0.0105 0.0102 0
v 0.0025 0.015 0
v -0.0033000001 0.015 0
v -0.0033000001 0.0137 0
v 0.0025 0.0137 0
v -0.0055000001 0.0137 0.001
v -0.0055000001 0.015 0.001
v -0.0055000001 0.015 0
v -0.0055000001 0.0137 0
v 0.0105 0.015 0.001
v 0.0047 0.015 0.001
v 0.0047 0.015 0
v 0.0105 0.015 0
v -0.0055000001 -0.00029999999 0.001
v -0.0055000001 0.001 0.001
v -0.0055000001 0.001 0
v -0.0055000001 -0.00029999999 0
v 0.014 0.02 0
v -0.014 0.02 0
v -0.014 0.02 0.0060000002
v 0.014 0.02 0.0060000002
v -0.0055000001 0.0115 0.001
v -0.0113 0.0115 0.001
v -0.0113 0.0115 0
v -0.0055000001 0.0115 0
v 0.0105 0.0067000002 0.001
v 0.0105 0.0080000001 0.001
v 0.0105 0.0080000001 0
v 0.0105 0.0067000002 0
v 0.0025 -0.0025 0.001
v -0.0033000001 -0.0025 0.001
v -0.0033000001 -0.0025 0
v 0.0025 -0.0025 0
v -0.014 0.02 0
v -0.014 -0.014 0
v -0.014 -0.014 0.0060000002
v -0.014 0.02 0.0060000002
v 0.0025 -0.0060000002 0.001
v -0.0033000001 -0.0060000002 0.001
v -0.0033000001 -0.0060000002 0
v 0.0025 -0.0060000002 0
v 0.0105 -0.0108 0.001
v 0.0105 -0.0094999999 0.001
v 0.0105 -0.0094999999 0
v 0.0105 -0.0108 0
v 0.0025 0.0031999999 0.001
v 0.0025 0.0044999999 0.001
v 0.0025 0.0044999999 0
v 0.0025 0.0031999999 0
v 0.0025 0.001 0.001
v -0.0033000001 0.001 0.001
v -0.0033000001 0.001 0
v 0.0025 0.001 0
v 0.0025 0.015 0.001
v -0.0033000001 0.015 0.001
v -0.0033000001 0.015 0
v 0.0025 0.015 0
v -0.0055000001 0.0031999999 0.001
v -0.0055000001 0.0044999999 0.001
v -0.0055000001 0.0044999999 0
v -0.0055000001 0.0031999999 0
v 0.0025 0.0102 0.001
v 0.0025 0.0115 0.001
v 0.0025 0.0115 0
v 0.0025 0.0102 0
v 0.0105 -0.00029999999 0.001
v 0.0105 0.001 0.001
v 0.0105 0.001 0
v 0.0105 -0.00029999999 0
v 0.0105 -0.0038 0.001
v 0.0105 -0.0025 0.001
v 0.0105 -0.0025 0
v 0.0105 -0.0038 0
v 0.0025 0.0115 0.001
v -0.0033000001 0.0115 0.001
v -0.0033000001 0.0115 0
v 0.0025 0.0115 0
v 0.0128 -0.0128 0.0060000002
v 0.0128 0.0188 0.0060000002
v 0.0128 0.0188 0.001
v 0.0128 -0.0128 0.001
f 1 2 4
f 4 2 3
f 5 6 8
f 8 6 7
f 9 10 12
f 12 10 11
f 13 14 16
f 16 14 15
f 17 18 20
f 20 18 19
f 21 22 24
f 24 22 23
f 25 26 28
f 28 26 27
f 29 30 32
f 32 30 31
f 33 34 36
f 36 34 35
f 37 38 40
f 40 38 39
f 41 42 44
f 44 42 43
f 45 46 48
f 48 46 47
f 49 50 52
f 52 50 51
f 53 54 56
f 56 54 55
f 57 58 60
f 60 58 59
f 61 62 64
f 64 62 63
f 65 66 68
f 68 66 67
f 69 70 72
f 72 70 71
f 73 74 76
f 76 74 75
f 77 78 80
f 80 78 79
f 81 82 84
f 84 82 83
f 85 86 88
f 88 86 87
f 89 90 92
f 92 90 91
f 93 94 96
f 96 94 95
f 97 98 100
f 100 98 99
f 101 102 104
f 104 102 103
f 105 106 108
f 108 106 107
f 109 110 112
f 112 110 111
f 113 114 116
f 116 114 115
f 117 118 120
f 120 118 119
f 121 122 124
f 124 122 123
f 125 126 128
f 128 126 127
f 129 130 132
f 132 130 131
f 133 134 136
f 136 134 135
f 137 138 140
f 140 138 139
f 141 142 144
f 144 142 143
f 145 146 148
f 148 146 147
f 149 150 152
f 152 150 151
f 153 154 156
f 156 154 155
f 157 158 160
f 160 158 159
f 161 162 164
f 164 162 163
f 165 166 168
f 168 166 167
f 169 170 172
f 172 170 171
f 173 174 176
f 176 174 175
f 177 178 180
f 180 178 179
f 181 182 184
f 184 182 183
f 185 186 188
f 188 186 187
f 189 190 192
f 192 190 191
f 193 194 196
f 196 194 195
f 197 198 200
f 200 198 199
f 201 202 204
f 204 202 203
f 205 206 208
f 208 206 207
f 209 210 212
f 212 210 211
f 213 214 216
f 216 214 215
f 217 218 220
f 220 218 219
f 221 222 224
f 224 222 223
f 225 226 228
f 228 226 227
f 229 230 232
f 232 230 231
f 233 234 236
f 236 234 235
f 238 316 237
f 237 316 313
f 237 313 260
f 260 313 314
f 260 314 259
f 259 314 261
f 259 261 324
f 324 261 262
f 324 262 323
f 323 262 317
f 323 317 256
f 256 317 318
f 256 318 255
f 255 318 240
f 255 240 254
f 254 240 331
f 254 331 332
f 239 291 238
f 238 291 292
f 238 292 267
f 267 292 266
f 266 292 289
f 266 289 295
f 295 289 284
f 295 284 294
f 294 284 281
f 294 281 279
f 279 281 304
f 279 304 278
f 278 304 301
f 278 301 307
f 307 301 272
f 307 272 306
f 306 272 269
f 306 269 315
f 315 269 264
f 315 264 314
f 314 264 261
f 240 319 239
f 239 319 310
f 239 310 311
f 237 334 240
f 240 334 241
f 240 241 242
f 242 243 240
f 240 243 330
f 240 330 331
f 243 244 330
f 330 244 329
f 329 244 335
f 329 335 250
f 250 335 336
f 250 336 249
f 249 336 247
f 249 247 326
f 326 247 248
f 326 248 325
f 325 248 237
f 325 237 328
f 328 237 257
f 328 257 258
f 335 244 334
f 334 244 241
f 248 245 237
f 237 245 246
f 237 246 333
f 333 246 336
f 336 246 247
f 329 250 332
f 332 250 251
f 332 251 253
f 253 251 322
f 253 322 256
f 256 322 323
f 251 252 322
f 322 252 321
f 321 252 327
f 321 327 258
f 258 327 328
f 327 252 326
f 326 252 249
f 253 254 332
f 321 258 324
f 324 258 259
f 260 257 237
f 317 262 320
f 320 262 263
f 320 263 309
f 309 263 270
f 309 270 312
f 312 270 271
f 312 271 273
f 273 271 302
f 273 302 276
f 276 302 303
f 276 303 297
f 297 303 282
f 297 282 300
f 300 282 283
f 300 283 285
f 285 283 290
f 285 290 288
f 288 290 291
f 288 291 239
f 263 264 270
f 270 264 269
f 266 296 265
f 265 296 238
f 265 238 268
f 268 238 267
f 271 272 302
f 302 272 301
f 273 274 312
f 312 274 311
f 311 274 239
f 274 275 239
f 239 275 298
f 239 298 299
f 275 276 298
f 298 276 297
f 278 308 277
f 277 308 238
f 277 238 280
f 280 238 293
f 280 293 294
f 279 280 294
f 281 282 304
f 304 282 303
f 283 284 290
f 290 284 289
f 285 286 300
f 300 286 299
f 299 286 239
f 286 287 239
f 239 287 288
f 295 296 266
f 296 293 238
f 306 316 305
f 305 316 238
f 305 238 308
f 307 308 278
f 309 310 320
f 320 310 319
f 315 316 306
f 318 319 240
f 333 334 237
f 337 338 340
f 340 338 339
f 341 342 344
f 344 342 343
f 345 346 348
f 348 346 347
f 349 350 352
f 352 350 351
f 353 354 356
f 356 354 355
f 357 358 360
f 360 358 359
f 361 362 364
f 364 362 363
f 365 366 368
f 368 366 367
f 369 370 372
f 372 370 371
f 373 374 376
f 376 374 375
f 377 378 380
f 380 378 379
f 381 382 384
f 384 382 383
f 385 386 388
f 388 386 387
f 392 389 395
f 395 389 390
f 395 390 394
f 394 390 391
f 394 391 393
f 393 391 392
f 393 392 396
f 396 392 395
f 397 398 400
f 400 398 399
f 401 402 404
f 404 402 403
f 405 406 408
f 408 406 407
f 409 410 412
f 412 410 411
f 413 414 416
f 416 414 415
f 417 418 420
f 420 418 419
f 421 422 424
f 424 422 423
f 425 426 428
f 428 426 427
f 429 430 432
f 432 430 431
f 433 434 436
f 436 434 435
f 437 438 440
f 440 438 439
f 441 442 444
f 444 442 443
f 445 446 448
f 448 446 447
f 450 527 449
f 449 527 518
f 449 518 519
f 451 545 450
f 450 545 546
f 450 546 457
f 457 546 460
f 460 546 547
f 460 547 537
f 537 547 462
f 537 462 540
f 540 462 463
f 540 463 469
f 469 463 534
f 469 534 472
f 472 534 535
f 472 535 525
f 525 535 474
f 525 474 528
f 528 474 475
f 528 475 517
f 517 475 482
f 517 482 520
f 520 482 483
f 520 483 489
f 489 483 514
f 489 514 492
f 492 514 515
f 492 515 505
f 505 515 494
f 505 494 508
f 508 494 495
f 508 495 477
f 477 495 502
f 477 502 480
f 480 502 503
f 480 503 449
f 449 503 504
f 449 504 452
f 452 504 499
f 452 499 500
f 452 532 451
f 451 532 529
f 451 529 468
f 468 529 530
f 468 530 467
f 467 530 473
f 467 473 536
f 536 473 474
f 536 474 535
f 456 453 451
f 451 453 454
f 451 454 545
f 545 454 548
f 548 454 455
f 548 455 461
f 461 455 542
f 461 542 464
f 464 542 543
f 464 543 533
f 533 543 466
f 533 466 536
f 536 466 467
f 455 456 542
f 542 456 541
f 541 456 451
f 541 451 544
f 544 451 465
f 544 465 466
f 457 458 450
f 450 458 459
f 450 459 538
f 538 459 460
f 538 460 537
f 461 462 548
f 548 462 547
f 463 464 534
f 534 464 533
f 468 465 451
f 469 470 540
f 540 470 539
f 539 470 450
f 539 450 538
f 470 471 450
f 450 471 526
f 450 526 527
f 471 472 526
f 526 472 525
f 475 476 482
f 482 476 481
f 481 476 531
f 481 531 522
f 522 531 532
f 522 532 521
f 521 532 452
f 521 452 524
f 524 452 485
f 524 485 486
f 531 476 530
f 530 476 473
f 477 478 508
f 508 478 507
f 507 478 449
f 507 449 506
f 506 449 491
f 506 491 492
f 478 479 449
f 449 479 480
f 483 484 514
f 514 484 513
f 513 484 523
f 513 523 486
f 486 523 524
f 523 484 522
f 522 484 481
f 513 486 516
f 516 486 487
f 516 487 493
f 493 487 510
f 493 510 496
f 496 510 511
f 496 511 501
f 501 511 498
f 501 498 504
f 504 498 499
f 487 488 510
f 510 488 509
f 509 488 452
f 509 452 512
f 512 452 497
f 512 497 498
f 488 485 452
f 489 490 520
f 520 490 519
f 519 490 449
f 490 491 449
f 493 494 516
f 516 494 515
f 495 496 502
f 502 496 501
f 500 497 452
f 505 506 492
f 511 512 498
f 517 518 528
f 528 518 527
f 543 544 466
f 549 550 552
f 552 550 551
f 553 554 556
f 556 554 555
f 557 558 560
f 560 558 559
f 561 562 564
f 564 562 563
f 565 566 568
f 568 566 567
f 569 570 572
f 572 570 571
f 573 574 576
f 576 574 575
f 577 578 580
f 580 578 579
f 581 582 584
f 584 582 583
f 585 586 588
f 588 586 587
f 589 590 592
f 592 590 591
f 593 594 596
f 596 594 595
f 597 598 600
f 600 598 599
f 601 602 604
f 604 602 603
f 605 606 608
f 608 606 607
f 609 610 612
f 612 610 611
f 613 614 616
f 616 614 615
f 617 618 620
f 620 618 619
f 621 622 624
f 624 622 623
v 0.014 -0.014 0.0060000002
v 0.014 -0.02 0
v 0.014 -0.014 0
v -0.014 -0.02 0
v -0.014 -0.014 0.0060000002
v -0.014 -0.014 0
v -0.014 -0.014 0
v -0.014 -0.014 0.0060000002
v 0.014 -0.014 0.0060000002
v 0.014 -0.014 0
v -0.014 -0.014 0.0060000002
v -0.014 -0.02 0
v 0.014 -0.02 0
v 0.014 -0.014 0.0060000002
v -0.014 -0.02 0
v -0.014 -0.014 0
v 0.014 -0.014 0
v 0.014 -0.02 0
f 625 626 627
f 628 629 630
f 631 632 634
f 634 632 633
f 635 636 638
f 638 636 637
f 639 640 642
f 642 640 641
