v -0.22905896 -0.011393948 0.24720091
v -0.22888357 -0.011875965 0.24721087
v -0.22843933 -0.012132441 0.24721926
v -0.2279341 -0.012043367 0.24722215
v -0.22760428 -0.011650423 0.2472182
v -0.2276042 -0.011137471 0.24720924
v -0.2279339 -0.010744527 0.24719948
v -0.2284391 -0.010655454 0.24719348
v -0.22888342 -0.010911931 0.24719405
v -0.23381407 -0.011581736 0.23640028
v -0.23381245 -0.011102781 0.23621643
v -0.2338085 -0.010854058 0.23576774
v -0.23380407 -0.010951949 0.23526416
v -0.23380122 -0.011350648 0.23494131
v -0.2338013 -0.0118636 0.23495026
v -0.23380426 -0.012250789 0.23528683
v -0.23380872 -0.012331045 0.23579352
v -0.2338126 -0.012066815 0.23623326
v -0.22905896 -0.011393948 0.24720091
v -0.22888342 -0.010911931 0.24719405
v -0.2284391 -0.010655454 0.24719348
v -0.2279339 -0.010744527 0.24719948
v -0.2276042 -0.011137471 0.24720924
v -0.22760428 -0.011650423 0.2472182
v -0.2279341 -0.012043367 0.24722215
v -0.22843933 -0.012132441 0.24721926
v -0.22888357 -0.011875965 0.24721087
v -0.22897094 -0.011568469 0.23720282
v -0.22879556 -0.012050486 0.23721278
v -0.22835132 -0.012306962 0.23722117
v -0.22784609 -0.012217888 0.23722406
v -0.22751627 -0.011824944 0.23722011
v -0.22751619 -0.011311992 0.23721115
v -0.22784589 -0.010919048 0.23720139
v -0.22835109 -0.010829975 0.23719539
v -0.22879541 -0.011086451 0.23719596
v -0.22760428 -0.011650423 0.2472182
v -0.22751627 -0.011824944 0.23722011
v -0.22972422 -0.011581733 0.23643628
v -0.22972261 -0.011102778 0.23625243
v -0.22971866 -0.010854056 0.23580374
v -0.22971422 -0.010951946 0.23530016
v -0.22971138 -0.011350646 0.23497731
v -0.22971146 -0.011863598 0.23498626
v -0.22971442 -0.012250787 0.23532283
v -0.22971888 -0.012331042 0.23582952
v -0.22972275 -0.012066812 0.23626926
v -0.23381407 -0.011581736 0.23640028
v -0.2338126 -0.012066815 0.23623326
v -0.23380872 -0.012331045 0.23579352
v -0.23380426 -0.012250789 0.23528683
v -0.2338013 -0.0118636 0.23495026
v -0.23380122 -0.011350648 0.23494131
v -0.23380407 -0.010951949 0.23526416
v -0.2338085 -0.010854058 0.23576774
v -0.23381245 -0.011102781 0.23621643
v -0.22971146 -0.011863598 0.23498626
v -0.2338013 -0.0118636 0.23495026
v -0.22897094 -0.011568469 0.23720282
v -0.22879541 -0.011086451 0.23719596
v -0.22835109 -0.010829975 0.23719539
v -0.22784589 -0.010919048 0.23720139
v -0.22751619 -0.011311992 0.23721115
v -0.22751627 -0.011824944 0.23722011
v -0.22784609 -0.012217888 0.23722406
v -0.22835132 -0.012306962 0.23722117
v -0.22879556 -0.012050486 0.23721278
v -0.22972422 -0.011581733 0.23643628
v -0.22972275 -0.012066812 0.23626926
v -0.22971888 -0.012331042 0.23582952
v -0.22971442 -0.012250787 0.23532283
v -0.22971146 -0.011863598 0.23498626
v -0.22971138 -0.011350646 0.23497731
v -0.22971422 -0.010951946 0.23530016
v -0.22971866 -0.010854056 0.23580374
v -0.22972261 -0.011102778 0.23625243
v -0.22897094 -0.011568469 0.23720282
v -0.22972422 -0.011581733 0.23643628
v -0.22902623 -0.011573545 0.23691153
v -0.22902623 -0.011573545 0.23691153
v -0.2291888 -0.011577848 0.23666357
v -0.2291888 -0.011577848 0.23666357
v -0.22943391 -0.011580723 0.23649668
v -0.22943391 -0.011580723 0.23649668
v -0.22886361 -0.012056734 0.23685424
v -0.22845169 -0.012316177 0.23669233
v -0.22798322 -0.012230478 0.23650158
v -0.22767739 -0.011839736 0.23637123
v -0.22767731 -0.011326783 0.23636228
v -0.22798302 -0.010931637 0.23647891
v -0.22845147 -0.01083919 0.23666655
v -0.22886346 -0.011092699 0.23683741
v -0.22936526 -0.011101535 0.23632678
v -0.22919159 -0.010852222 0.2359134
v -0.22899416 -0.010949442 0.23544997
v -0.22886534 -0.011347703 0.23515333
v -0.22886542 -0.011860655 0.23516228
v -0.22899435 -0.012248282 0.23547264
v -0.22919181 -0.012329209 0.23593918
v -0.22936541 -0.012065569 0.23634361
v -0.22906372 -0.01206203 0.23654902
v -0.22874684 -0.012323989 0.23624216
v -0.22838644 -0.01224115 0.23588656
v -0.22815115 -0.011852276 0.23564862
v -0.22815107 -0.011339323 0.23563966
v -0.22838624 -0.01094231 0.23586389
v -0.22874661 -0.010847002 0.23621638
v -0.22906357 -0.011097996 0.2365322
f 1 2 9
f 9 2 3
f 9 3 8
f 8 3 4
f 8 4 7
f 7 4 5
f 7 5 6
f 10 11 18
f 18 11 17
f 17 11 12
f 17 12 16
f 16 12 13
f 16 13 15
f 15 13 14
f 20 28 19
f 19 28 29
f 19 29 27
f 27 29 30
f 27 30 26
f 26 30 31
f 26 31 25
f 25 31 38
f 25 38 24
f 37 32 33
f 37 33 23
f 23 33 34
f 23 34 22
f 22 34 35
f 22 35 21
f 21 35 36
f 21 36 20
f 20 36 28
f 40 48 39
f 39 48 49
f 39 49 47
f 47 49 50
f 47 50 46
f 46 50 51
f 46 51 45
f 45 51 58
f 45 58 44
f 57 52 53
f 57 53 43
f 43 53 54
f 43 54 42
f 42 54 55
f 42 55 41
f 41 55 56
f 41 56 40
f 40 56 48
f 60 80 59
f 77 79 85
f 77 85 67
f 67 85 86
f 67 86 66
f 66 86 87
f 66 87 65
f 65 87 88
f 65 88 64
f 64 88 89
f 64 89 63
f 63 89 90
f 63 90 62
f 62 90 91
f 62 91 61
f 61 91 92
f 61 92 60
f 60 92 80
f 69 83 68
f 78 84 93
f 78 93 76
f 76 93 94
f 76 94 75
f 75 94 95
f 75 95 74
f 74 95 96
f 74 96 73
f 73 96 97
f 73 97 72
f 72 97 98
f 72 98 71
f 71 98 99
f 71 99 70
f 70 99 100
f 70 100 69
f 69 100 83
f 79 81 101
f 101 81 100
f 101 100 99
f 100 81 83
f 84 82 108
f 84 108 93
f 93 108 107
f 93 107 94
f 94 107 106
f 94 106 95
f 95 106 105
f 95 105 96
f 96 105 104
f 96 104 97
f 97 104 103
f 97 103 98
f 98 103 102
f 98 102 99
f 99 102 101
f 108 82 92
f 92 82 80
f 85 79 101
f 101 102 85
f 85 102 86
f 102 103 86
f 86 103 87
f 103 104 87
f 87 104 88
f 104 105 88
f 88 105 89
f 105 106 89
f 89 106 90
f 108 92 91
f 106 107 90
f 90 107 91
f 107 108 91
