v -0.022616709 -0.0038101852 0.10600456
v -0.022616709 -0.0010389039 0.10600456
v -0.023016709 -0.0010389039 0.10600456
v -0.023016709 -0.0038101852 0.10600456
v -0.022616709 -0.0038101853 0.10640456
v -0.023016709 -0.0038101853 0.10640456
v -0.023016709 -0.001038904 0.10640456
v -0.022616709 -0.001038904 0.10640456
v -0.023016709 -0.001038904 0.10640456
v -0.023016709 -0.0038101853 0.10640456
v -0.023016709 -0.0038229466 0.10627143
v -0.023016709 -0.0038229466 0.10613769
v -0.023016709 -0.0038101852 0.10600456
v -0.023016709 -0.0010389039 0.10600456
v -0.023016709 -0.0010261425 0.10613769
v -0.023016709 -0.0010261425 0.10627143
v -0.025616709 -0.0010245446 0.10620456
v -0.025616709 -0.0011004004 0.10574998
v -0.025616709 -0.0013197477 0.10534466
v -0.025616709 -0.001658817 0.10503253
v -0.025616709 -0.0020808647 0.1048474
v -0.025616709 -0.0025401554 0.10480934
v -0.025616709 -0.002986918 0.10492248
v -0.025616709 -0.0033727385 0.10517455
v -0.025616709 -0.0036558079 0.10553824
v -0.025616709 -0.0038054505 0.10597413
v -0.025616709 -0.0038054506 0.10643499
v -0.025616709 -0.0036558081 0.10687089
v -0.025616709 -0.0033727389 0.10723458
v -0.025616709 -0.0029869185 0.10748664
v -0.025616709 -0.0025401559 0.10759978
v -0.025616709 -0.0020808652 0.10756172
v -0.025616709 -0.0016588174 0.1073766
v -0.025616709 -0.001319748 0.10706446
v -0.025616709 -0.0011004005 0.10665914
v -0.022616709 -0.0010389039 0.10600456
v -0.022616709 -0.0038101852 0.10600456
v -0.022616709 -0.0036786707 0.10558233
v -0.022616709 -0.0034220172 0.10522219
v -0.022616709 -0.0030658343 0.10496008
v -0.022616709 -0.0026456622 0.10482213
v -0.022616709 -0.0022034266 0.10482213
v -0.022616709 -0.0017832545 0.10496008
v -0.022616709 -0.0014270715 0.10522219
v -0.022616709 -0.0011704183 0.10558233
v -0.022616709 -0.001038904 0.10640456
v -0.022616709 -0.0011704185 0.10682679
v -0.022616709 -0.0014270719 0.10718693
v -0.022616709 -0.001783255 0.10744905
v -0.022616709 -0.0022034271 0.10758699
v -0.022616709 -0.0026456627 0.10758699
v -0.022616709 -0.0030658347 0.10744905
v -0.022616709 -0.0034220176 0.10718693
v -0.022616709 -0.003678671 0.10682679
v -0.022616709 -0.0038101853 0.10640456
v -0.023016709 -0.001038904 0.10640456
v -0.023016709 -0.0010261425 0.10627143
v -0.023016709 -0.0010261425 0.10613769
v -0.023016709 -0.0010389039 0.10600456
v -0.022616709 -0.0010389039 0.10600456
v -0.022616709 -0.0011704183 0.10558233
v -0.022616709 -0.0014270715 0.10522219
v -0.022616709 -0.0017832545 0.10496008
v -0.022616709 -0.0022034266 0.10482213
v -0.022616709 -0.0026456622 0.10482213
v -0.022616709 -0.0030658343 0.10496008
v -0.022616709 -0.0034220172 0.10522219
v -0.022616709 -0.0036786707 0.10558233
v -0.022616709 -0.0038101852 0.10600456
v -0.023016709 -0.0038101852 0.10600456
v -0.023016709 -0.0038229466 0.10613769
v -0.023016709 -0.0038229466 0.10627143
v -0.023016709 -0.0038101853 0.10640456
v -0.022616709 -0.0038101853 0.10640456
v -0.022616709 -0.003678671 0.10682679
v -0.022616709 -0.0034220176 0.10718693
v -0.022616709 -0.0030658347 0.10744905
v -0.022616709 -0.0026456627 0.10758699
v -0.022616709 -0.0022034271 0.10758699
v -0.022616709 -0.001783255 0.10744905
v -0.022616709 -0.0014270719 0.10718693
v -0.022616709 -0.0011704185 0.10682679
v -0.022616709 -0.001038904 0.10640456
v -0.025616709 -0.0010245446 0.10620456
v -0.025616709 -0.0011004005 0.10665914
v -0.025616709 -0.001319748 0.10706446
v -0.025616709 -0.0016588174 0.1073766
v -0.025616709 -0.0020808652 0.10756172
v -0.025616709 -0.0025401559 0.10759978
v -0.025616709 -0.0029869185 0.10748664
v -0.025616709 -0.0033727389 0.10723458
v -0.025616709 -0.0036558081 0.10687089
v -0.025616709 -0.0038054506 0.10643499
v -0.025616709 -0.0038054505 0.10597413
v -0.025616709 -0.0036558079 0.10553824
v -0.025616709 -0.0033727385 0.10517455
v -0.025616709 -0.002986918 0.10492248
v -0.025616709 -0.0025401554 0.10480934
v -0.025616709 -0.0020808647 0.1048474
v -0.025616709 -0.001658817 0.10503253
v -0.025616709 -0.0013197477 0.10534466
v -0.025616709 -0.0011004004 0.10574998
v -0.025616709 -0.0010245446 0.10620456
v -0.023016709 -0.0010261425 0.10627143
f 2 3 1
f 1 3 4
f 5 6 8
f 8 6 7
f 9 10 16
f 16 10 11
f 16 11 15
f 15 11 12
f 15 12 14
f 14 12 13
f 17 18 35
f 35 18 34
f 34 18 19
f 34 19 33
f 33 19 20
f 33 20 32
f 32 20 21
f 32 21 31
f 31 21 22
f 31 22 30
f 30 22 29
f 29 22 28
f 28 22 27
f 27 22 26
f 26 22 25
f 25 22 24
f 24 22 23
f 36 37 45
f 45 37 38
f 45 38 44
f 44 38 39
f 44 39 43
f 43 39 40
f 43 40 42
f 42 40 41
f 55 46 54
f 54 46 47
f 54 47 53
f 53 47 48
f 53 48 52
f 52 48 49
f 52 49 51
f 51 49 50
f 104 84 56
f 56 84 85
f 56 85 83
f 83 85 82
f 82 85 86
f 82 86 81
f 81 86 87
f 81 87 80
f 80 87 88
f 80 88 79
f 79 88 89
f 79 89 78
f 78 89 90
f 78 90 77
f 77 90 91
f 77 91 76
f 76 91 92
f 76 92 75
f 75 92 93
f 75 93 74
f 74 93 73
f 73 93 72
f 72 93 94
f 72 94 71
f 71 94 70
f 70 94 69
f 69 94 68
f 68 94 95
f 68 95 67
f 67 95 96
f 67 96 66
f 66 96 97
f 66 97 65
f 65 97 98
f 65 98 64
f 64 98 99
f 64 99 63
f 63 99 100
f 63 100 62
f 62 100 101
f 62 101 61
f 61 101 102
f 61 102 60
f 60 102 59
f 59 102 103
f 59 103 58
f 58 103 57
v -0.022616709 -0.00031018521 0.10600456
v -0.022616709 0.0024610961 0.10600456
v -0.023016709 0.0024610961 0.10600456
v -0.023016709 -0.00031018521 0.10600456
v -0.022616709 -0.00031018528 0.10640456
v -0.023016709 -0.00031018528 0.10640456
v -0.023016709 0.002461096 0.10640456
v -0.022616709 0.002461096 0.10640456
v -0.023016709 0.002461096 0.10640456
v -0.023016709 -0.00031018528 0.10640456
v -0.023016709 -0.00032294668 0.10627143
v -0.023016709 -0.00032294666 0.10613769
v -0.023016709 -0.00031018521 0.10600456
v -0.023016709 0.0024610961 0.10600456
v -0.023016709 0.0024738574 0.10613769
v -0.023016709 0.0024738574 0.10627143
v -0.025616709 0.0024754554 0.10620456
v -0.025616709 0.0023995996 0.10574998
v -0.025616709 0.0021802522 0.10534467
v -0.025616709 0.0018411829 0.10503253
v -0.025616709 0.0014191354 0.1048474
v -0.025616709 0.00095984451 0.10480934
v -0.025616709 0.00051308205 0.10492248
v -0.025616709 0.00012726136 0.10517455
v -0.025616709 -0.00015580772 0.10553824
v -0.025616709 -0.00030545039 0.10597413
v -0.025616709 -0.00030545047 0.106435
v -0.025616709 -0.00015580795 0.10687089
v -0.025616709 0.000127261 0.10723458
v -0.025616709 0.0005130816 0.10748665
v -0.025616709 0.00095984402 0.10759978
v -0.025616709 0.0014191349 0.10756172
v -0.025616709 0.0018411825 0.1073766
v -0.025616709 0.0021802519 0.10706446
v -0.025616709 0.0023995994 0.10665914
v -0.022616709 0.0024610961 0.10600456
v -0.022616709 -0.00031018521 0.10600456
v -0.022616709 -0.00017867072 0.10558233
v -0.022616709 7.7982693e-05 0.10522219
v -0.022616709 0.00043416579 0.10496008
v -0.022616709 0.00085433788 0.10482213
v -0.022616709 0.0012965735 0.10482213
v -0.022616709 0.0017167455 0.10496008
v -0.022616709 0.0020729284 0.10522219
v -0.022616709 0.0023295818 0.10558234
v -0.022616709 0.002461096 0.10640456
v -0.022616709 0.0023295815 0.10682679
v -0.022616709 0.0020729281 0.10718693
v -0.022616709 0.0017167451 0.10744905
v -0.022616709 0.001296573 0.10758699
v -0.022616709 0.0008543374 0.10758699
v -0.022616709 0.00043416536 0.10744905
v -0.022616709 7.7982349e-05 0.10718693
v -0.022616709 -0.00017867094 0.10682679
v -0.022616709 -0.00031018528 0.10640456
v -0.023016709 0.002461096 0.10640456
v -0.023016709 0.0024738574 0.10627143
v -0.023016709 0.0024738574 0.10613769
v -0.023016709 0.0024610961 0.10600456
v -0.022616709 0.0024610961 0.10600456
v -0.022616709 0.0023295818 0.10558234
v -0.022616709 0.0020729284 0.10522219
v -0.022616709 0.0017167455 0.10496008
v -0.022616709 0.0012965735 0.10482213
v -0.022616709 0.00085433788 0.10482213
v -0.022616709 0.00043416579 0.10496008
v -0.022616709 7.7982693e-05 0.10522219
v -0.022616709 -0.00017867072 0.10558233
v -0.022616709 -0.00031018521 0.10600456
v -0.023016709 -0.00031018521 0.10600456
v -0.023016709 -0.00032294666 0.10613769
v -0.023016709 -0.00032294668 0.10627143
v -0.023016709 -0.00031018528 0.10640456
v -0.022616709 -0.00031018528 0.10640456
v -0.022616709 -0.00017867094 0.10682679
v -0.022616709 7.7982349e-05 0.10718693
v -0.022616709 0.00043416536 0.10744905
v -0.022616709 0.0008543374 0.10758699
v -0.022616709 0.001296573 0.10758699
v -0.022616709 0.0017167451 0.10744905
v -0.022616709 0.0020729281 0.10718693
v -0.022616709 0.0023295815 0.10682679
v -0.022616709 0.002461096 0.10640456
v -0.025616709 0.0024754554 0.10620456
v -0.025616709 0.0023995994 0.10665914
v -0.025616709 0.0021802519 0.10706446
v -0.025616709 0.0018411825 0.1073766
v -0.025616709 0.0014191349 0.10756172
v -0.025616709 0.00095984402 0.10759978
v -0.025616709 0.0005130816 0.10748665
v -0.025616709 0.000127261 0.10723458
v -0.025616709 -0.00015580795 0.10687089
v -0.025616709 -0.00030545047 0.106435
v -0.025616709 -0.00030545039 0.10597413
v -0.025616709 -0.00015580772 0.10553824
v -0.025616709 0.00012726136 0.10517455
v -0.025616709 0.00051308205 0.10492248
v -0.025616709 0.00095984451 0.10480934
v -0.025616709 0.0014191354 0.1048474
v -0.025616709 0.0018411829 0.10503253
v -0.025616709 0.0021802522 0.10534467
v -0.025616709 0.0023995996 0.10574998
v -0.025616709 0.0024754554 0.10620456
v -0.023016709 0.0024738574 0.10627143
f 106 107 105
f 105 107 108
f 109 110 112
f 112 110 111
f 113 114 120
f 120 114 115
f 120 115 119
f 119 115 116
f 119 116 118
f 118 116 117
f 121 122 139
f 139 122 138
f 138 122 123
f 138 123 137
f 137 123 124
f 137 124 136
f 136 124 125
f 136 125 135
f 135 125 126
f 135 126 134
f 134 126 133
f 133 126 132
f 132 126 131
f 131 126 130
f 130 126 129
f 129 126 128
f 128 126 127
f 140 141 149
f 149 141 142
f 149 142 148
f 148 142 143
f 148 143 147
f 147 143 144
f 147 144 146
f 146 144 145
f 159 150 158
f 158 150 151
f 158 151 157
f 157 151 152
f 157 152 156
f 156 152 153
f 156 153 155
f 155 153 154
f 208 188 160
f 160 188 189
f 160 189 187
f 187 189 186
f 186 189 190
f 186 190 185
f 185 190 191
f 185 191 184
f 184 191 192
f 184 192 183
f 183 192 193
f 183 193 182
f 182 193 194
f 182 194 181
f 181 194 195
f 181 195 180
f 180 195 196
f 180 196 179
f 179 196 197
f 179 197 178
f 178 197 177
f 177 197 176
f 176 197 198
f 176 198 175
f 175 198 174
f 174 198 173
f 173 198 172
f 172 198 199
f 172 199 171
f 171 199 200
f 171 200 170
f 170 200 201
f 170 201 169
f 169 201 202
f 169 202 168
f 168 202 203
f 168 203 167
f 167 203 204
f 167 204 166
f 166 204 205
f 166 205 165
f 165 205 206
f 165 206 164
f 164 206 163
f 163 206 207
f 163 207 162
f 162 207 161
