v -0.030464157 -6.4465482e-05 0.11800235
v -0.030383821 -6.4465469e-05 0.11785049
v -0.030231169 -6.4465458e-05 0.11772784
v -0.030083149 -6.4465447e-05 0.11760494
v -0.030016709 -6.4465434e-05 0.11745235
v -0.029816709 -6.4465434e-05 0.11745235
v -0.029861445 -6.446545e-05 0.11763465
v -0.029977716 -6.4465463e-05 0.1177823
v -0.030125933 -6.4465473e-05 0.11789851
v -0.030265252 -6.4465484e-05 0.11802326
v -0.030317805 -6.4465528e-05 0.11852326
v -0.030516709 -6.4465526e-05 0.11850235
v -0.030464157 0.00033553495 0.11300235
v -0.030383821 0.00033553493 0.11315421
v -0.030231169 0.00033553492 0.11327687
v -0.030083149 0.00033553491 0.11339976
v -0.030016709 0.0003355349 0.11355235
v -0.029816709 0.0003355349 0.11355235
v -0.029861254 0.00033553491 0.11337042
v -0.029977326 0.00033553493 0.11322277
v -0.030125705 0.00033553494 0.11310633
v -0.030265252 0.00033553495 0.11298145
v -0.030317805 0.00033553499 0.11248145
v -0.030516709 0.00033553499 0.11250235
v -0.030317805 -0.00093446497 0.11248145
v -0.030317805 -0.001334465 0.11248145
v -0.030516709 -0.001334465 0.11250235
v -0.030516709 -0.00093446498 0.11250235
v -0.030464157 0.001605535 0.11300235
v -0.030516709 0.001605535 0.11250235
v -0.030516709 0.001205535 0.11250235
v -0.030464157 0.0012055349 0.11300235
v -0.030317805 0.001205535 0.11248145
v -0.030265252 0.0012055349 0.11298145
v -0.030125705 0.0012055349 0.11310633
v -0.029977326 0.0012055349 0.11322277
v -0.029861254 0.0012055349 0.11337042
v -0.029816709 0.0012055349 0.11355235
v -0.030016709 0.0012055349 0.11355235
v -0.030083149 0.0012055349 0.11339976
v -0.030231169 0.0012055349 0.11327687
v -0.030383821 0.0012055349 0.11315421
v -0.030464157 0.0012055349 0.11300235
v -0.030516709 0.001205535 0.11250235
v -0.029716709 -0.003009465 0.11355235
v -0.028916709 -0.0028094652 0.11375235
v -0.028916709 -0.0028094655 0.11725235
v -0.029716709 -0.0030094653 0.11745235
v -0.029816709 -0.0026044651 0.11355235
v -0.029861254 -0.0026044651 0.11337042
v -0.029977326 -0.0026044651 0.11322277
v -0.030125705 -0.0026044651 0.11310633
v -0.030265252 -0.002604465 0.11298145
v -0.030265252 -0.002204465 0.11298145
v -0.030125705 -0.002204465 0.11310633
v -0.029977326 -0.002204465 0.11322277
v -0.029861254 -0.002204465 0.11337042
v -0.029816709 -0.002204465 0.11355235
v -0.030464157 -0.002204465 0.11300235
v -0.030383821 -0.002204465 0.11315421
v -0.030231169 -0.002204465 0.11327687
v -0.030083149 -0.002204465 0.11339976
v -0.030016709 -0.002204465 0.11355235
v -0.029816709 -0.002204465 0.11355235
v -0.029861254 -0.002204465 0.11337042
v -0.029977326 -0.002204465 0.11322277
v -0.030125705 -0.002204465 0.11310633
v -0.030265252 -0.002204465 0.11298145
v -0.030317805 -0.0022044649 0.11248145
v -0.030516709 -0.0022044649 0.11250235
v -0.030016709 0.0012055345 0.11745235
v -0.030083149 0.0012055345 0.11760494
v -0.030231169 0.0012055345 0.11772784
v -0.030383821 0.0012055345 0.11785049
v -0.030464157 0.0012055345 0.11800235
v -0.030464157 0.0016055345 0.11800235
v -0.030383821 0.0016055346 0.11785049
v -0.030231169 0.0016055346 0.11772784
v -0.030083149 0.0016055346 0.11760494
v -0.030016709 0.0016055346 0.11745235
v -0.030265252 -0.00093446546 0.11802326
v -0.030125933 -0.00093446545 0.11789851
v -0.029977716 -0.00093446544 0.1177823
v -0.029861445 -0.00093446542 0.11763465
v -0.029816709 -0.00093446541 0.11745235
v -0.030016709 -0.00093446541 0.11745235
v -0.030083149 -0.00093446542 0.11760494
v -0.030231169 -0.00093446543 0.11772784
v -0.030383821 -0.00093446544 0.11785049
v -0.030464157 -0.00093446546 0.11800235
v -0.030516709 -0.0009344655 0.11850235
v -0.030317805 -0.0009344655 0.11852326
v -0.030464157 -0.0013344654 0.11800235
v -0.030383821 -0.0013344654 0.11785049
v -0.030231169 -0.0013344654 0.11772784
v -0.030083149 -0.0013344654 0.11760494
v -0.030016709 -0.0013344654 0.11745235
v -0.029816709 -0.0013344654 0.11745235
v -0.029861445 -0.0013344654 0.11763465
v -0.029977716 -0.0013344654 0.1177823
v -0.030125933 -0.0013344654 0.11789851
v -0.030265252 -0.0013344654 0.11802326
v -0.030317805 -0.0013344655 0.11852326
v -0.030516709 -0.0013344655 0.11850235
v -0.030016709 -0.0026044654 0.11745235
v -0.030083149 -0.0026044655 0.11760494
v -0.030231169 -0.0026044655 0.11772784
v -0.030383821 -0.0026044655 0.11785049
v -0.030464157 -0.0026044655 0.11800235
v -0.030464157 -0.0022044654 0.11800235
v -0.030383821 -0.0022044654 0.11785049
v -0.030231169 -0.0022044654 0.11772784
v -0.030083149 -0.0022044654 0.11760494
v -0.030016709 -0.0022044654 0.11745235
v -0.028916709 -0.0028094652 0.11375235
v -0.029716709 -0.003009465 0.11355235
v -0.029716709 0.0020105348 0.11355235
v -0.028916709 0.001810535 0.11375235
v -0.028916709 0.0018105347 0.11725235
v -0.029716709 0.0020105344 0.11745235
v -0.029716709 -0.0030094653 0.11745235
v -0.028916709 -0.0028094655 0.11725235
v -0.029816709 -6.4465093e-05 0.11355235
v -0.029861254 -6.4465077e-05 0.11337042
v -0.029977326 -6.4465064e-05 0.11322277
v -0.030125705 -6.4465054e-05 0.11310633
v -0.030265252 -6.4465043e-05 0.11298145
v -0.030265252 0.00033553495 0.11298145
v -0.030125705 0.00033553494 0.11310633
v -0.029977326 0.00033553493 0.11322277
v -0.029861254 0.00033553491 0.11337042
v -0.029816709 0.0003355349 0.11355235
v -0.030464157 0.001605535 0.11300235
v -0.030383821 0.001605535 0.11315421
v -0.030231169 0.001605535 0.11327687
v -0.030083149 0.001605535 0.11339976
v -0.030016709 0.0016055349 0.11355235
v -0.029816709 0.0016055349 0.11355235
v -0.029861254 0.001605535 0.11337042
v -0.029977326 0.001605535 0.11322277
v -0.030125705 0.001605535 0.11310633
v -0.030265252 0.001605535 0.11298145
v -0.030317805 0.001605535 0.11248145
v -0.030516709 0.001605535 0.11250235
v -0.030265252 -0.002604465 0.11298145
v -0.030125705 -0.0026044651 0.11310633
v -0.029977326 -0.0026044651 0.11322277
v -0.029861254 -0.0026044651 0.11337042
v -0.029816709 -0.0026044651 0.11355235
v -0.030016709 -0.0026044651 0.11355235
v -0.030083149 -0.0026044651 0.11339976
v -0.030231169 -0.0026044651 0.11327687
v -0.030383821 -0.0026044651 0.11315421
v -0.030464157 -0.0026044651 0.11300235
v -0.030516709 -0.002604465 0.11250235
v -0.030317805 -0.002604465 0.11248145
v -0.030016709 -6.4465434e-05 0.11745235
v -0.030083149 -6.4465447e-05 0.11760494
v -0.030231169 -6.4465458e-05 0.11772784
v -0.030383821 -6.4465469e-05 0.11785049
v -0.030464157 -6.4465482e-05 0.11800235
v -0.030464157 0.00033553451 0.11800235
v -0.030383821 0.00033553452 0.11785049
v -0.030231169 0.00033553453 0.11772784
v -0.030083149 0.00033553454 0.11760494
v -0.030016709 0.00033553456 0.11745235
v -0.028916709 0.001810535 0.11375235
v -0.029716709 0.0020105348 0.11355235
v -0.029716709 0.0020105344 0.11745235
v -0.028916709 0.0018105347 0.11725235
v -0.030265252 -6.4465043e-05 0.11298145
v -0.030317805 -6.4464999e-05 0.11248145
v -0.030317805 0.00033553499 0.11248145
v -0.030265252 0.00033553495 0.11298145
v -0.029816709 -0.0022044654 0.11745235
v -0.029816709 -0.0026044654 0.11745235
v -0.030016709 -0.0026044654 0.11745235
v -0.030016709 -0.0030094653 0.11745235
v -0.029716709 -0.0030094653 0.11745235
v -0.029716709 0.0020105344 0.11745235
v -0.030016709 0.0020105344 0.11745235
v -0.030016709 0.0016055346 0.11745235
v -0.029816709 0.0016055346 0.11745235
v -0.029816709 0.0012055345 0.11745235
v -0.030016709 0.0012055345 0.11745235
v -0.030016709 0.00033553456 0.11745235
v -0.029816709 0.00033553456 0.11745235
v -0.029816709 -6.4465434e-05 0.11745235
v -0.030016709 -6.4465434e-05 0.11745235
v -0.030016709 -0.00093446541 0.11745235
v -0.029816709 -0.00093446541 0.11745235
v -0.029816709 -0.0013344654 0.11745235
v -0.030016709 -0.0013344654 0.11745235
v -0.030016709 -0.0022044654 0.11745235
v -0.029716709 -0.0030094653 0.11745235
v -0.030016709 -0.0030094653 0.11745235
v -0.030016709 -0.003009465 0.11355235
v -0.029716709 -0.003009465 0.11355235
v -0.030016709 -0.0013344654 0.11745235
v -0.030083149 -0.0013344654 0.11760494
v -0.030231169 -0.0013344654 0.11772784
v -0.030383821 -0.0013344654 0.11785049
v -0.030464157 -0.0013344654 0.11800235
v -0.030464157 -0.00093446546 0.11800235
v -0.030383821 -0.00093446544 0.11785049
v -0.030231169 -0.00093446543 0.11772784
v -0.030083149 -0.00093446542 0.11760494
v -0.030016709 -0.00093446541 0.11745235
v -0.030016709 -0.002204465 0.11355235
v -0.030083149 -0.002204465 0.11339976
v -0.030231169 -0.002204465 0.11327687
v -0.030383821 -0.002204465 0.11315421
v -0.030464157 -0.002204465 0.11300235
v -0.030464157 -0.0026044651 0.11300235
v -0.030383821 -0.0026044651 0.11315421
v -0.030231169 -0.0026044651 0.11327687
v -0.030083149 -0.0026044651 0.11339976
v -0.030016709 -0.0026044651 0.11355235
v -0.030317805 0.00033553499 0.11248145
v -0.030317805 -6.4464999e-05 0.11248145
v -0.030516709 -6.4465001e-05 0.11250235
v -0.030516709 0.00033553499 0.11250235
v -0.030016709 -0.003009465 0.11355235
v -0.030016709 -0.0026044651 0.11355235
v -0.029816709 -0.0026044651 0.11355235
v -0.029816709 -0.002204465 0.11355235
v -0.030016709 -0.002204465 0.11355235
v -0.030016709 -0.0013344651 0.11355235
v -0.029816709 -0.0013344651 0.11355235
v -0.029816709 -0.00093446507 0.11355235
v -0.030016709 -0.00093446507 0.11355235
v -0.030016709 -6.4465093e-05 0.11355235
v -0.029816709 -6.4465093e-05 0.11355235
v -0.029816709 0.0003355349 0.11355235
v -0.030016709 0.0003355349 0.11355235
v -0.030016709 0.0012055349 0.11355235
v -0.029816709 0.0012055349 0.11355235
v -0.029816709 0.0016055349 0.11355235
v -0.030016709 0.0016055349 0.11355235
v -0.030016709 0.0020105348 0.11355235
v -0.029716709 0.0020105348 0.11355235
v -0.029716709 -0.003009465 0.11355235
v -0.030016709 -0.00093446507 0.11355235
v -0.030083149 -0.00093446505 0.11339976
v -0.030231169 -0.00093446504 0.11327687
v -0.030383821 -0.00093446503 0.11315421
v -0.030464157 -0.00093446502 0.11300235
v -0.030464157 -0.001334465 0.11300235
v -0.030383821 -0.001334465 0.11315421
v -0.030231169 -0.001334465 0.11327687
v -0.030083149 -0.001334465 0.11339976
v -0.030016709 -0.0013344651 0.11355235
v -0.030265252 0.0012055349 0.11298145
v -0.030265252 0.001605535 0.11298145
v -0.030125705 0.001605535 0.11310633
v -0.029977326 0.001605535 0.11322277
v -0.029861254 0.001605535 0.11337042
v -0.029816709 0.0016055349 0.11355235
v -0.029816709 0.0012055349 0.11355235
v -0.029861254 0.0012055349 0.11337042
v -0.029977326 0.0012055349 0.11322277
v -0.030125705 0.0012055349 0.11310633
v -0.030016709 0.0003355349 0.11355235
v -0.030083149 0.00033553491 0.11339976
v -0.030231169 0.00033553492 0.11327687
v -0.030383821 0.00033553493 0.11315421
v -0.030464157 0.00033553495 0.11300235
v -0.030464157 -6.4465045e-05 0.11300235
v -0.030383821 -6.4465058e-05 0.11315421
v -0.030231169 -6.4465069e-05 0.11327687
v -0.030083149 -6.446508e-05 0.11339976
v -0.030016709 -6.4465093e-05 0.11355235
v -0.030265252 0.0012055349 0.11298145
v -0.030317805 0.001205535 0.11248145
v -0.030317805 0.001605535 0.11248145
v -0.030265252 0.001605535 0.11298145
v -0.030016709 0.0016055349 0.11355235
v -0.030083149 0.001605535 0.11339976
v -0.030231169 0.001605535 0.11327687
v -0.030383821 0.001605535 0.11315421
v -0.030464157 0.001605535 0.11300235
v -0.030464157 0.0012055349 0.11300235
v -0.030383821 0.0012055349 0.11315421
v -0.030231169 0.0012055349 0.11327687
v -0.030083149 0.0012055349 0.11339976
v -0.030016709 0.0012055349 0.11355235
v -0.030317805 0.001605535 0.11248145
v -0.030317805 0.001205535 0.11248145
v -0.030516709 0.001205535 0.11250235
v -0.030516709 0.001605535 0.11250235
v -0.030016709 0.0020105344 0.11745235
v -0.029716709 0.0020105344 0.11745235
v -0.029716709 0.0020105348 0.11355235
v -0.030016709 0.0020105348 0.11355235
v -0.028916709 0.001810535 0.11375235
v -0.028916709 0.0018105347 0.11725235
v -0.028916709 -0.0028094655 0.11725235
v -0.028916709 -0.0028094652 0.11375235
v -0.028916709 0.0013605347 0.11650235
v -0.028916709 0.0012475817 0.1162678
v -0.028916709 0.00099377841 0.11620987
v -0.028916709 0.00079024403 0.11637219
v -0.028916709 0.00079024401 0.11663252
v -0.028916709 0.00099377836 0.11679483
v -0.028916709 0.0012475816 0.1167369
v -0.030016709 -0.0013344654 0.11745235
v -0.030016709 -0.00093446541 0.11745235
v -0.030016709 -6.4465434e-05 0.11745235
v -0.030016709 0.00033553456 0.11745235
v -0.030016709 0.0012055345 0.11745235
v -0.030016709 0.0016055346 0.11745235
v -0.030016709 0.0020105344 0.11745235
v -0.030416709 0.0018105347 0.11725235
v -0.030416709 -0.0028094655 0.11725235
v -0.030016709 -0.0030094653 0.11745235
v -0.030016709 -0.0026044654 0.11745235
v -0.030016709 -0.0022044654 0.11745235
v -0.030416709 -0.0028094652 0.11375235
v -0.030016709 -0.003009465 0.11355235
v -0.030016709 -0.0030094653 0.11745235
v -0.030416709 -0.0028094655 0.11725235
v -0.030016709 -0.003009465 0.11355235
v -0.030416709 -0.0028094652 0.11375235
v -0.030416709 0.001810535 0.11375235
v -0.030016709 0.0020105348 0.11355235
v -0.030016709 0.0016055349 0.11355235
v -0.030016709 0.0012055349 0.11355235
v -0.030016709 0.0003355349 0.11355235
v -0.030016709 -6.4465093e-05 0.11355235
v -0.030016709 -0.00093446507 0.11355235
v -0.030016709 -0.0013344651 0.11355235
v -0.030016709 -0.002204465 0.11355235
v -0.030016709 -0.0026044651 0.11355235
v -0.030016709 0.0020105348 0.11355235
v -0.030416709 0.001810535 0.11375235
v -0.030416709 0.0018105347 0.11725235
v -0.030016709 0.0020105344 0.11745235
v -0.030416709 0.001810535 0.11375235
v -0.030416709 -0.0028094652 0.11375235
v -0.030416709 -0.0028094655 0.11725235
v -0.030416709 0.0018105347 0.11725235
v -0.028916709 0.0013605347 0.11650235
v -0.028916709 0.0012475816 0.1167369
v -0.028916709 0.00099377836 0.11679483
v -0.028916709 0.00079024401 0.11663252
v -0.028916709 0.00079024403 0.11637219
v -0.028916709 0.00099377841 0.11620987
v -0.028916709 0.0012475817 0.1162678
v -0.029216709 0.0010605347 0.11650235
v -0.028916709 0.0013605347 0.11650235
v -0.029216709 0.0010605347 0.11650235
v -0.029216709 0.0010605347 0.11650235
v -0.029216709 0.0010605347 0.11650235
v -0.029216709 0.0010605347 0.11650235
v -0.029216709 0.0010605347 0.11650235
v -0.029216709 0.0010605347 0.11650235
v -0.029216709 0.0010605347 0.11650235
v -0.029216709 0.0010605347 0.11650235
v -0.029216709 0.0010605347 0.11650235
v -0.029128841 0.0012726667 0.11650235
v -0.029128841 0.0012726667 0.11650235
v -0.029128841 0.0011927968 0.1166682
v -0.029128841 0.0010133308 0.11670916
v -0.029128841 0.00086941031 0.11659439
v -0.029128841 0.00086941032 0.11641031
v -0.029128841 0.0010133308 0.11629554
v -0.029128841 0.0011927968 0.1163365
v -0.030317805 -0.0026044655 0.11852326
v -0.030265252 -0.0026044655 0.11802326
v -0.030265252 -0.0022044654 0.11802326
v -0.030317805 -0.0022044655 0.11852326
v -0.030317805 0.0012055344 0.11852326
v -0.030265252 0.0012055345 0.11802326
v -0.030265252 0.0016055345 0.11802326
v -0.030317805 0.0016055345 0.11852326
v -0.030317805 -6.4465528e-05 0.11852326
v -0.030265252 -6.4465484e-05 0.11802326
v -0.030265252 0.00033553451 0.11802326
v -0.030317805 0.00033553446 0.11852326
v -0.030317805 -0.0022044655 0.11852326
v -0.030516709 -0.0022044655 0.11850235
v -0.030516709 -0.0026044655 0.11850235
v -0.030317805 -0.0026044655 0.11852326
v -0.030516709 0.0016055345 0.11850235
v -0.030464157 0.0016055345 0.11800235
v -0.030464157 0.0012055345 0.11800235
v -0.030516709 0.0012055344 0.11850235
v -0.030317805 -0.0022044649 0.11248145
v -0.030317805 -0.002604465 0.11248145
v -0.030516709 -0.002604465 0.11250235
v -0.030516709 -0.0022044649 0.11250235
v -0.030317805 0.0016055345 0.11852326
v -0.030516709 0.0016055345 0.11850235
v -0.030516709 0.0012055344 0.11850235
v -0.030317805 0.0012055344 0.11852326
v -0.030317805 0.00033553446 0.11852326
v -0.030516709 0.00033553447 0.11850235
v -0.030516709 -6.4465526e-05 0.11850235
v -0.030317805 -6.4465528e-05 0.11852326
v -0.030464157 -0.00093446502 0.11300235
v -0.030516709 -0.00093446498 0.11250235
v -0.030516709 -0.001334465 0.11250235
v -0.030464157 -0.001334465 0.11300235
v -0.030516709 -0.0022044655 0.11850235
v -0.030464157 -0.0022044654 0.11800235
v -0.030464157 -0.0026044655 0.11800235
v -0.030516709 -0.0026044655 0.11850235
v -0.030265252 -6.4465043e-05 0.11298145
v -0.030125705 -6.4465054e-05 0.11310633
v -0.029977326 -6.4465064e-05 0.11322277
v -0.029861254 -6.4465077e-05 0.11337042
v -0.029816709 -6.4465093e-05 0.11355235
v -0.030016709 -6.4465093e-05 0.11355235
v -0.030083149 -6.446508e-05 0.11339976
v -0.030231169 -6.4465069e-05 0.11327687
v -0.030383821 -6.4465058e-05 0.11315421
v -0.030464157 -6.4465045e-05 0.11300235
v -0.030516709 -6.4465001e-05 0.11250235
v -0.030317805 -6.4464999e-05 0.11248145
v -0.029816709 0.0016055346 0.11745235
v -0.029861433 0.0016055346 0.11763466
v -0.029977544 0.0016055346 0.11778213
v -0.030125843 0.0016055346 0.11789845
v -0.030265252 0.0016055345 0.11802326
v -0.030265252 0.0012055345 0.11802326
v -0.030125843 0.0012055345 0.11789845
v -0.029977544 0.0012055345 0.11778213
v -0.029861433 0.0012055345 0.11763466
v -0.029816709 0.0012055345 0.11745235
v -0.030464157 0.0012055345 0.11800235
v -0.030383821 0.0012055345 0.11785049
v -0.030231169 0.0012055345 0.11772784
v -0.030083149 0.0012055345 0.11760494
v -0.030016709 0.0012055345 0.11745235
v -0.029816709 0.0012055345 0.11745235
v -0.029861433 0.0012055345 0.11763466
v -0.029977544 0.0012055345 0.11778213
v -0.030125843 0.0012055345 0.11789845
v -0.030265252 0.0012055345 0.11802326
v -0.030317805 0.0012055344 0.11852326
v -0.030516709 0.0012055344 0.11850235
v -0.030265252 -0.002604465 0.11298145
v -0.030317805 -0.002604465 0.11248145
v -0.030317805 -0.0022044649 0.11248145
v -0.030265252 -0.002204465 0.11298145
v -0.030317805 -0.0013344655 0.11852326
v -0.030265252 -0.0013344654 0.11802326
v -0.030265252 -0.00093446546 0.11802326
v -0.030317805 -0.0009344655 0.11852326
v -0.029816709 -0.0013344651 0.11355235
v -0.029861254 -0.001334465 0.11337042
v -0.029977326 -0.001334465 0.11322277
v -0.030125705 -0.001334465 0.11310633
v -0.030265252 -0.001334465 0.11298145
v -0.030265252 -0.00093446502 0.11298145
v -0.030125705 -0.00093446503 0.11310633
v -0.029977326 -0.00093446504 0.11322277
v -0.029861254 -0.00093446505 0.11337042
v -0.029816709 -0.00093446507 0.11355235
v -0.030516709 0.00033553447 0.11850235
v -0.030464157 0.00033553451 0.11800235
v -0.030464157 -6.4465482e-05 0.11800235
v -0.030516709 -6.4465526e-05 0.11850235
v -0.029816709 0.00033553456 0.11745235
v -0.029861445 0.00033553454 0.11763465
v -0.029977716 0.00033553453 0.1177823
v -0.030125933 0.00033553452 0.11789851
v -0.030265252 0.00033553451 0.11802326
v -0.030265252 -6.4465484e-05 0.11802326
v -0.030125933 -6.4465473e-05 0.11789851
v -0.029977716 -6.4465463e-05 0.1177823
v -0.029861445 -6.446545e-05 0.11763465
v -0.029816709 -6.4465434e-05 0.11745235
v -0.029816709 -0.00093446541 0.11745235
v -0.029861445 -0.00093446542 0.11763465
v -0.029977716 -0.00093446544 0.1177823
v -0.030125933 -0.00093446545 0.11789851
v -0.030265252 -0.00093446546 0.11802326
v -0.030265252 -0.0013344654 0.11802326
v -0.030125933 -0.0013344654 0.11789851
v -0.029977716 -0.0013344654 0.1177823
v -0.029861445 -0.0013344654 0.11763465
v -0.029816709 -0.0013344654 0.11745235
v -0.030265252 0.00033553451 0.11802326
v -0.030125933 0.00033553452 0.11789851
v -0.029977716 0.00033553453 0.1177823
v -0.029861445 0.00033553454 0.11763465
v -0.029816709 0.00033553456 0.11745235
v -0.030016709 0.00033553456 0.11745235
v -0.030083149 0.00033553454 0.11760494
v -0.030231169 0.00033553453 0.11772784
v -0.030383821 0.00033553452 0.11785049
v -0.030464157 0.00033553451 0.11800235
v -0.030516709 0.00033553447 0.11850235
v -0.030317805 0.00033553446 0.11852326
v -0.030464157 0.00033553495 0.11300235
v -0.030516709 0.00033553499 0.11250235
v -0.030516709 -6.4465001e-05 0.11250235
v -0.030464157 -6.4465045e-05 0.11300235
v -0.030464157 -0.00093446502 0.11300235
v -0.030383821 -0.00093446503 0.11315421
v -0.030231169 -0.00093446504 0.11327687
v -0.030083149 -0.00093446505 0.11339976
v -0.030016709 -0.00093446507 0.11355235
v -0.029816709 -0.00093446507 0.11355235
v -0.029861254 -0.00093446505 0.11337042
v -0.029977326 -0.00093446504 0.11322277
v -0.030125705 -0.00093446503 0.11310633
v -0.030265252 -0.00093446502 0.11298145
v -0.030317805 -0.00093446497 0.11248145
v -0.030516709 -0.00093446498 0.11250235
v -0.030265252 -0.001334465 0.11298145
v -0.030317805 -0.001334465 0.11248145
v -0.030317805 -0.00093446497 0.11248145
v -0.030265252 -0.00093446502 0.11298145
v -0.030464157 -0.0026044655 0.11800235
v -0.030383821 -0.0026044655 0.11785049
v -0.030231169 -0.0026044655 0.11772784
v -0.030083149 -0.0026044655 0.11760494
v -0.030016709 -0.0026044654 0.11745235
v -0.029816709 -0.0026044654 0.11745235
v -0.029861445 -0.0026044655 0.11763465
v -0.029977716 -0.0026044655 0.1177823
v -0.030125933 -0.0026044655 0.11789851
v -0.030265252 -0.0026044655 0.11802326
v -0.030317805 -0.0026044655 0.11852326
v -0.030516709 -0.0026044655 0.11850235
v -0.029816709 -0.0022044654 0.11745235
v -0.029861445 -0.0022044654 0.11763465
v -0.029977716 -0.0022044654 0.1177823
v -0.030125933 -0.0022044654 0.11789851
v -0.030265252 -0.0022044654 0.11802326
v -0.030265252 -0.0026044655 0.11802326
v -0.030125933 -0.0026044655 0.11789851
v -0.029977716 -0.0026044655 0.1177823
v -0.029861445 -0.0026044655 0.11763465
v -0.029816709 -0.0026044654 0.11745235
v -0.030265252 0.0016055345 0.11802326
v -0.030125843 0.0016055346 0.11789845
v -0.029977544 0.0016055346 0.11778213
v -0.029861433 0.0016055346 0.11763466
v -0.029816709 0.0016055346 0.11745235
v -0.030016709 0.0016055346 0.11745235
v -0.030083149 0.0016055346 0.11760494
v -0.030231169 0.0016055346 0.11772784
v -0.030383821 0.0016055346 0.11785049
v -0.030464157 0.0016055345 0.11800235
v -0.030516709 0.0016055345 0.11850235
v -0.030317805 0.0016055345 0.11852326
v -0.030317805 -0.0009344655 0.11852326
v -0.030516709 -0.0009344655 0.11850235
v -0.030516709 -0.0013344655 0.11850235
v -0.030317805 -0.0013344655 0.11852326
v -0.030464157 -0.002204465 0.11300235
v -0.030516709 -0.0022044649 0.11250235
v -0.030516709 -0.002604465 0.11250235
v -0.030464157 -0.0026044651 0.11300235
v -0.030265252 -0.001334465 0.11298145
v -0.030125705 -0.001334465 0.11310633
v -0.029977326 -0.001334465 0.11322277
v -0.029861254 -0.001334465 0.11337042
v -0.029816709 -0.0013344651 0.11355235
v -0.030016709 -0.0013344651 0.11355235
v -0.030083149 -0.001334465 0.11339976
v -0.030231169 -0.001334465 0.11327687
v -0.030383821 -0.001334465 0.11315421
v -0.030464157 -0.001334465 0.11300235
v -0.030516709 -0.001334465 0.11250235
v -0.030317805 -0.001334465 0.11248145
v -0.030516709 -0.0009344655 0.11850235
v -0.030464157 -0.00093446546 0.11800235
v -0.030464157 -0.0013344654 0.11800235
v -0.030516709 -0.0013344655 0.11850235
v -0.030265252 -0.0022044654 0.11802326
v -0.030125933 -0.0022044654 0.11789851
v -0.029977716 -0.0022044654 0.1177823
v -0.029861445 -0.0022044654 0.11763465
v -0.029816709 -0.0022044654 0.11745235
v -0.030016709 -0.0022044654 0.11745235
v -0.030083149 -0.0022044654 0.11760494
v -0.030231169 -0.0022044654 0.11772784
v -0.030383821 -0.0022044654 0.11785049
v -0.030464157 -0.0022044654 0.11800235
v -0.030516709 -0.0022044655 0.11850235
v -0.030317805 -0.0022044655 0.11852326
f 2 10 1
f 1 10 11
f 1 11 12
f 2 3 10
f 10 3 9
f 9 3 4
f 9 4 8
f 8 4 7
f 7 4 5
f 7 5 6
f 14 22 13
f 13 22 23
f 13 23 24
f 14 15 22
f 22 15 21
f 21 15 16
f 21 16 20
f 20 16 19
f 19 16 17
f 19 17 18
f 26 27 25
f 25 27 28
f 29 30 32
f 32 30 31
f 44 33 43
f 43 33 34
f 43 34 42
f 42 34 41
f 41 34 35
f 41 35 40
f 40 35 36
f 40 36 37
f 38 39 37
f 37 39 40
f 45 46 48
f 48 46 47
f 49 50 58
f 58 50 57
f 57 50 51
f 57 51 56
f 56 51 52
f 56 52 55
f 55 52 53
f 55 53 54
f 60 68 59
f 59 68 69
f 59 69 70
f 60 61 68
f 68 61 67
f 67 61 62
f 67 62 66
f 66 62 65
f 65 62 63
f 65 63 64
f 71 72 80
f 80 72 79
f 79 72 78
f 78 72 73
f 78 73 74
f 78 74 77
f 77 74 75
f 77 75 76
f 82 88 81
f 81 88 89
f 81 89 90
f 88 82 87
f 87 82 83
f 87 83 84
f 85 86 84
f 84 86 87
f 91 92 90
f 90 92 81
f 94 102 93
f 93 102 103
f 93 103 104
f 94 95 102
f 102 95 101
f 101 95 96
f 101 96 100
f 100 96 99
f 99 96 97
f 99 97 98
f 105 106 114
f 114 106 113
f 113 106 107
f 113 107 112
f 112 107 108
f 112 108 111
f 111 108 109
f 111 109 110
f 116 117 115
f 115 117 118
f 119 120 122
f 122 120 121
f 123 124 132
f 132 124 131
f 131 124 125
f 131 125 130
f 130 125 126
f 130 126 129
f 129 126 127
f 129 127 128
f 134 142 133
f 133 142 143
f 133 143 144
f 134 135 142
f 142 135 141
f 141 135 136
f 141 136 140
f 140 136 139
f 139 136 137
f 139 137 138
f 146 152 145
f 145 152 153
f 145 153 154
f 152 146 151
f 151 146 147
f 151 147 148
f 149 150 148
f 148 150 151
f 155 156 154
f 154 156 145
f 157 158 166
f 166 158 165
f 165 158 159
f 165 159 164
f 164 159 160
f 164 160 163
f 163 160 161
f 163 161 162
f 168 169 167
f 167 169 170
f 171 172 174
f 174 172 173
f 176 179 175
f 175 179 192
f 175 192 193
f 177 178 176
f 176 178 179
f 192 179 191
f 191 179 180
f 191 180 188
f 188 180 187
f 187 180 184
f 187 184 185
f 184 180 183
f 183 180 181
f 183 181 182
f 185 186 187
f 188 189 191
f 191 189 190
f 193 194 175
f 195 196 198
f 198 196 197
f 199 200 208
f 208 200 207
f 207 200 201
f 207 201 206
f 206 201 202
f 206 202 205
f 205 202 203
f 205 203 204
f 209 210 218
f 218 210 217
f 217 210 211
f 217 211 216
f 216 211 212
f 216 212 215
f 215 212 213
f 215 213 214
f 220 221 219
f 219 221 222
f 224 225 223
f 223 225 242
f 242 225 226
f 242 226 229
f 229 226 227
f 229 227 228
f 229 230 242
f 242 230 241
f 241 230 233
f 241 233 234
f 230 231 233
f 233 231 232
f 241 234 237
f 237 234 235
f 237 235 236
f 237 238 241
f 241 238 240
f 240 238 239
f 243 244 252
f 252 244 251
f 251 244 245
f 251 245 250
f 250 245 246
f 250 246 249
f 249 246 247
f 249 247 248
f 254 255 253
f 253 255 262
f 262 255 256
f 262 256 261
f 261 256 257
f 261 257 260
f 260 257 258
f 260 258 259
f 263 264 272
f 272 264 271
f 271 264 265
f 271 265 270
f 270 265 266
f 270 266 269
f 269 266 267
f 269 267 268
f 273 274 276
f 276 274 275
f 277 278 286
f 286 278 285
f 285 278 279
f 285 279 284
f 284 279 280
f 284 280 283
f 283 280 281
f 283 281 282
f 288 289 287
f 287 289 290
f 291 292 294
f 294 292 293
f 296 299 295
f 295 299 300
f 295 300 301
f 297 304 296
f 296 304 305
f 296 305 299
f 298 302 297
f 297 302 303
f 297 303 304
f 302 298 301
f 301 298 295
f 317 306 314
f 314 306 307
f 314 307 313
f 313 307 308
f 313 308 309
f 309 310 313
f 313 310 311
f 313 311 312
f 315 316 314
f 314 316 317
f 319 320 318
f 318 320 321
f 322 323 333
f 333 323 332
f 332 323 331
f 331 323 330
f 330 323 324
f 330 324 329
f 329 324 328
f 328 324 327
f 327 324 326
f 326 324 325
f 334 335 337
f 337 335 336
f 338 339 341
f 341 339 340
f 343 362 342
f 342 362 361
f 350 360 348
f 348 360 367
f 348 367 347
f 347 367 366
f 347 366 346
f 346 366 365
f 346 365 345
f 345 365 364
f 345 364 344
f 344 364 363
f 344 363 343
f 343 363 362
f 360 349 367
f 367 354 366
f 366 355 365
f 364 357 363
f 362 359 361
f 358 362 363
f 356 364 365
f 368 369 371
f 371 369 370
f 372 373 375
f 375 373 374
f 376 377 379
f 379 377 378
f 380 381 383
f 383 381 382
f 384 385 387
f 387 385 386
f 389 390 388
f 388 390 391
f 392 393 395
f 395 393 394
f 396 397 399
f 399 397 398
f 400 401 403
f 403 401 402
f 404 405 407
f 407 405 406
f 409 415 408
f 408 415 416
f 408 416 417
f 415 409 414
f 414 409 410
f 414 410 411
f 412 413 411
f 411 413 414
f 418 419 417
f 417 419 408
f 420 421 429
f 429 421 428
f 428 421 422
f 428 422 427
f 427 422 423
f 427 423 426
f 426 423 424
f 426 424 425
f 431 439 430
f 430 439 440
f 430 440 441
f 431 432 439
f 439 432 438
f 438 432 433
f 438 433 437
f 437 433 436
f 436 433 434
f 436 434 435
f 442 443 445
f 445 443 444
f 446 447 449
f 449 447 448
f 450 451 459
f 459 451 458
f 458 451 452
f 458 452 457
f 457 452 453
f 457 453 456
f 456 453 454
f 456 454 455
f 460 461 463
f 463 461 462
f 464 465 473
f 473 465 472
f 472 465 466
f 472 466 471
f 471 466 467
f 471 467 470
f 470 467 468
f 470 468 469
f 474 475 483
f 483 475 482
f 482 475 476
f 482 476 481
f 481 476 477
f 481 477 480
f 480 477 478
f 480 478 479
f 485 491 484
f 484 491 492
f 484 492 493
f 491 485 490
f 490 485 486
f 490 486 487
f 488 489 487
f 487 489 490
f 494 495 493
f 493 495 484
f 496 497 499
f 499 497 498
f 501 509 500
f 500 509 510
f 500 510 511
f 501 502 509
f 509 502 508
f 508 502 503
f 508 503 507
f 507 503 506
f 506 503 504
f 506 504 505
f 512 513 515
f 515 513 514
f 517 525 516
f 516 525 526
f 516 526 527
f 517 518 525
f 525 518 524
f 524 518 519
f 524 519 523
f 523 519 522
f 522 519 520
f 522 520 521
f 528 529 537
f 537 529 536
f 536 529 530
f 536 530 535
f 535 530 531
f 535 531 534
f 534 531 532
f 534 532 533
f 539 545 538
f 538 545 546
f 538 546 547
f 545 539 544
f 544 539 540
f 544 540 541
f 542 543 541
f 541 543 544
f 548 549 547
f 547 549 538
f 550 551 553
f 553 551 552
f 554 555 557
f 557 555 556
f 559 565 558
f 558 565 566
f 558 566 567
f 565 559 564
f 564 559 560
f 564 560 561
f 562 563 561
f 561 563 564
f 568 569 567
f 567 569 558
f 570 571 573
f 573 571 572
f 575 581 574
f 574 581 582
f 574 582 583
f 581 575 580
f 580 575 576
f 580 576 577
f 578 579 577
f 577 579 580
f 584 585 583
f 583 585 574
