v -0.030266709 0.018678614 0.11230583
v -0.030316709 0.018678614 0.11230583
v -0.030316709 0.018678614 0.11330583
v -0.030266709 0.018678614 0.11330583
v -0.029935001 0.018650182 0.1132774
v -0.029935001 0.018007046 0.1132774
v -0.029921975 0.018013448 0.113271
v -0.029916709 0.018026973 0.11325747
v -0.029916709 0.018630255 0.11325747
v -0.029921975 0.01864378 0.113271
v -0.030266709 0.017978614 0.11230583
v -0.030266709 0.018678614 0.11230583
v -0.029935001 0.018650182 0.11233427
v -0.029935001 0.018007046 0.11233427
v -0.029916709 0.018026973 0.11325747
v -0.029921975 0.018013448 0.113271
v -0.029935001 0.018007046 0.1132774
v -0.029935001 0.018007046 0.11233427
v -0.029921975 0.018013448 0.11234067
v -0.029916709 0.018026973 0.11235419
v -0.030266709 0.017978614 0.11330583
v -0.030316709 0.017978614 0.11330583
v -0.030316709 0.017978614 0.11230583
v -0.030266709 0.017978614 0.11230583
v -0.030266709 0.017978614 0.11230583
v -0.030316709 0.017978614 0.11230583
v -0.030316709 0.018678614 0.11230583
v -0.030266709 0.018678614 0.11230583
v -0.030316709 0.017978614 0.11330583
v -0.030316709 0.018678614 0.11330583
v -0.030316709 0.018678614 0.11230583
v -0.030316709 0.017978614 0.11230583
v -0.029916709 0.018026973 0.11235419
v -0.029921975 0.018013448 0.11234067
v -0.029935001 0.018007046 0.11233427
v -0.029935001 0.018650182 0.11233427
v -0.029921975 0.01864378 0.11234067
v -0.029916709 0.018630255 0.11235419
v -0.029935001 0.018650182 0.11233427
v -0.029935001 0.018650182 0.1132774
v -0.029921975 0.01864378 0.113271
v -0.029916709 0.018630255 0.11325747
v -0.029916709 0.018630255 0.11235419
v -0.029921975 0.01864378 0.11234067
v -0.029916709 0.018630255 0.11235419
v -0.029916709 0.018630255 0.11325747
v -0.029916709 0.018026973 0.11325747
v -0.029916709 0.018026973 0.11235419
v -0.030266709 0.018678614 0.11230583
v -0.030266709 0.018678614 0.11330583
v -0.029935001 0.018650182 0.1132774
v -0.029935001 0.018650182 0.11233427
v -0.030266709 0.017978614 0.11330583
v -0.030266709 0.017978614 0.11230583
v -0.029935001 0.018007046 0.11233427
v -0.029935001 0.018007046 0.1132774
v -0.030266709 0.018678614 0.11330583
v -0.030316709 0.018678614 0.11330583
v -0.030316709 0.017978614 0.11330583
v -0.030266709 0.017978614 0.11330583
v -0.030266709 0.018678614 0.11330583
v -0.030266709 0.017978614 0.11330583
v -0.029935001 0.018007046 0.1132774
v -0.029935001 0.018650182 0.1132774
f 1 2 4
f 4 2 3
f 5 6 10
f 10 6 7
f 10 7 9
f 9 7 8
f 11 12 14
f 14 12 13
f 20 15 19
f 19 15 16
f 19 16 18
f 18 16 17
f 21 22 24
f 24 22 23
f 25 26 28
f 28 26 27
f 30 31 29
f 29 31 32
f 38 33 37
f 37 33 34
f 37 34 36
f 36 34 35
f 39 40 44
f 44 40 41
f 44 41 43
f 43 41 42
f 45 46 48
f 48 46 47
f 50 51 49
f 49 51 52
f 53 54 56
f 56 54 55
f 57 58 60
f 60 58 59
f 62 63 61
f 61 63 64
