v -0.5165 -0.0448575 0.31700001
v -0.51490161 -0.035278865 0.31700001
v -0.51027965 -0.026738225 0.31700001
v -0.50313497 -0.020161091 0.31700001
v -0.49424182 -0.016260191 0.31700001
v -0.48456391 -0.015458256 0.31700001
v -0.47514998 -0.017842189 0.31700001
v -0.4670202 -0.023153644 0.31700001
v -0.46105553 -0.030817052 0.31700001
v -0.45790235 -0.040001961 0.31700001
v -0.45790235 -0.04971304 0.31700001
v -0.46105553 -0.058897948 0.31700001
v -0.4670202 -0.066561355 0.31700001
v -0.47514998 -0.071872813 0.31700001
v -0.48456391 -0.074256743 0.31700001
v -0.49424182 -0.073454808 0.31700001
v -0.50313497 -0.069553911 0.31700001
v -0.51027965 -0.062976775 0.31700001
v -0.51490161 -0.054436134 0.31700001
v -0.5165 -0.0448575 0.39
v -0.51490161 -0.054436134 0.39
v -0.51027965 -0.062976775 0.39
v -0.50313497 -0.069553911 0.39
v -0.49424182 -0.073454808 0.39
v -0.48456391 -0.074256743 0.39
v -0.47514998 -0.071872813 0.39
v -0.4670202 -0.066561355 0.39
v -0.46105553 -0.058897948 0.39
v -0.45790235 -0.04971304 0.39
v -0.45790235 -0.040001961 0.39
v -0.46105553 -0.030817052 0.39
v -0.4670202 -0.023153644 0.39
v -0.47514998 -0.017842189 0.39
v -0.48456391 -0.015458256 0.39
v -0.49424182 -0.016260191 0.39
v -0.50313497 -0.020161091 0.39
v -0.51027965 -0.026738225 0.39
v -0.51490161 -0.035278865 0.39
v -0.5165 -0.0448575 0.39
v -0.51490161 -0.035278865 0.39
v -0.51027965 -0.026738225 0.39
v -0.50313497 -0.020161091 0.39
v -0.49424182 -0.016260191 0.39
v -0.48456391 -0.015458256 0.39
v -0.47514998 -0.017842189 0.39
v -0.4670202 -0.023153644 0.39
v -0.46105553 -0.030817052 0.39
v -0.45790235 -0.040001961 0.39
v -0.45790235 -0.04971304 0.39
v -0.46105553 -0.058897948 0.39
v -0.4670202 -0.066561355 0.39
v -0.47514998 -0.071872813 0.39
v -0.48456391 -0.074256743 0.39
v -0.49424182 -0.073454808 0.39
v -0.50313497 -0.069553911 0.39
v -0.51027965 -0.062976775 0.39
v -0.51490161 -0.054436134 0.39
v -0.5165 -0.0448575 0.31700001
v -0.51490161 -0.054436134 0.31700001
v -0.51027965 -0.062976775 0.31700001
v -0.50313497 -0.069553911 0.31700001
v -0.49424182 -0.073454808 0.31700001
v -0.48456391 -0.074256743 0.31700001
v -0.47514998 -0.071872813 0.31700001
v -0.4670202 -0.066561355 0.31700001
v -0.46105553 -0.058897948 0.31700001
v -0.45790235 -0.04971304 0.31700001
v -0.45790235 -0.040001961 0.31700001
v -0.46105553 -0.030817052 0.31700001
v -0.4670202 -0.023153644 0.31700001
v -0.47514998 -0.017842189 0.31700001
v -0.48456391 -0.015458256 0.31700001
v -0.49424182 -0.016260191 0.31700001
v -0.50313497 -0.020161091 0.31700001
v -0.51027965 -0.026738225 0.31700001
v -0.51490161 -0.035278865 0.31700001
v -0.5165 -0.0448575 0.31700001
v -0.5165 -0.0448575 0.39
f 1 2 19
f 19 2 3
f 19 3 18
f 18 3 4
f 18 4 17
f 17 4 5
f 17 5 16
f 16 5 6
f 16 6 15
f 15 6 7
f 15 7 8
f 8 9 15
f 15 9 10
f 15 10 11
f 11 12 15
f 15 12 13
f 15 13 14
f 20 21 38
f 38 21 37
f 37 21 22
f 37 22 36
f 36 22 23
f 36 23 35
f 35 23 24
f 35 24 34
f 34 24 25
f 34 25 33
f 33 25 32
f 32 25 31
f 31 25 30
f 30 25 29
f 29 25 28
f 28 25 27
f 27 25 26
f 40 76 39
f 39 76 77
f 78 58 57
f 57 58 59
f 57 59 56
f 56 59 60
f 56 60 55
f 55 60 61
f 55 61 54
f 54 61 62
f 54 62 53
f 53 62 63
f 53 63 52
f 52 63 64
f 52 64 51
f 51 64 65
f 51 65 50
f 50 65 66
f 50 66 49
f 49 66 67
f 49 67 48
f 48 67 68
f 48 68 47
f 47 68 69
f 47 69 46
f 46 69 70
f 46 70 45
f 45 70 71
f 45 71 44
f 44 71 72
f 44 72 43
f 43 72 73
f 43 73 42
f 42 73 74
f 42 74 41
f 41 74 75
f 41 75 40
f 40 75 76
v -0.14143984 0.27871296 0.513
v 0.25768181 0.25221936 0.513
v 0.25768181 0.25221936 0.52099999
v -0.14143984 0.27871296 0.52099999
v -0.13680346 0.34855925 0.513
v -0.14143984 0.27871296 0.513
v -0.14143984 0.27871296 0.52099999
v -0.13680346 0.34855925 0.52099999
v 0.26231819 0.32206564 0.52099999
v -0.13680346 0.34855925 0.52099999
v -0.14143984 0.27871296 0.52099999
v 0.25768181 0.25221936 0.52099999
v 0.25768181 0.25221936 0.513
v 0.26231819 0.32206564 0.513
v 0.26231819 0.32206564 0.52099999
v 0.25768181 0.25221936 0.52099999
v 0.26231819 0.32206564 0.513
v -0.13680346 0.34855925 0.513
v -0.13680346 0.34855925 0.52099999
v 0.26231819 0.32206564 0.52099999
v -0.13680346 0.34855925 0.513
v 0.26231819 0.32206564 0.513
v 0.25768181 0.25221936 0.513
v -0.14143984 0.27871296 0.513
f 79 80 82
f 82 80 81
f 83 84 86
f 86 84 85
f 88 89 87
f 87 89 90
f 91 92 94
f 94 92 93
f 95 96 98
f 98 96 97
f 100 101 99
f 99 101 102
v -0.13680346 0.34855925 0.52099999
v -0.14720022 0.34769102 0.52099999
v -0.15687918 0.34379683 0.52099999
v -0.16498029 0.33722275 0.52099999
v -0.17078376 0.32855291 0.52099999
v -0.1737739 0.31855762 0.52099999
v -0.17368505 0.30812504 0.52099999
v -0.17052508 0.29818215 0.52099999
v -0.16457476 0.2896124 0.52099999
v -0.15636285 0.28317725 0.52099999
v -0.14661897 0.27944854 0.52099999
v -0.13620892 0.27875753 0.52099999
v -0.12605768 0.2811656 0.52099999
v -0.11706724 0.28645886 0.52099999
v -0.1100364 0.29416692 0.52099999
v -0.10558994 0.3036049 0.52099999
v -0.10412292 0.3139342 0.52099999
v -0.10576567 0.32423703 0.52099999
v -0.11037227 0.33359788 0.52099999
v -0.11753336 0.34118507 0.52099999
v -0.12661267 0.34632442 0.52099999
v -0.13680346 0.34855925 0.513
v -0.12661267 0.34632442 0.513
v -0.11753336 0.34118507 0.513
v -0.11037227 0.33359788 0.513
v -0.10576567 0.32423703 0.513
v -0.10412292 0.3139342 0.513
v -0.10558994 0.3036049 0.513
v -0.1100364 0.29416692 0.513
v -0.11706724 0.28645886 0.513
v -0.12605768 0.2811656 0.513
v -0.13620892 0.27875753 0.513
v -0.14661897 0.27944854 0.513
v -0.15636285 0.28317725 0.513
v -0.16457476 0.2896124 0.513
v -0.17052508 0.29818215 0.513
v -0.17368505 0.30812504 0.513
v -0.1737739 0.31855762 0.513
v -0.17078376 0.32855291 0.513
v -0.16498029 0.33722275 0.513
v -0.15687918 0.34379683 0.513
v -0.14720022 0.34769102 0.513
v -0.13680346 0.34855925 0.52099999
v -0.12661267 0.34632442 0.52099999
v -0.11753336 0.34118507 0.52099999
v -0.11037227 0.33359788 0.52099999
v -0.10576567 0.32423703 0.52099999
v -0.10412292 0.3139342 0.52099999
v -0.10558994 0.3036049 0.52099999
v -0.1100364 0.29416692 0.52099999
v -0.11706724 0.28645886 0.52099999
v -0.12605768 0.2811656 0.52099999
v -0.13620892 0.27875753 0.52099999
v -0.14661897 0.27944854 0.52099999
v -0.15636285 0.28317725 0.52099999
v -0.16457476 0.2896124 0.52099999
v -0.17052508 0.29818215 0.52099999
v -0.17368505 0.30812504 0.52099999
v -0.1737739 0.31855762 0.52099999
v -0.17078376 0.32855291 0.52099999
v -0.16498029 0.33722275 0.52099999
v -0.15687918 0.34379683 0.52099999
v -0.14720022 0.34769102 0.52099999
v -0.13680346 0.34855925 0.513
v -0.14720022 0.34769102 0.513
v -0.15687918 0.34379683 0.513
v -0.16498029 0.33722275 0.513
v -0.17078376 0.32855291 0.513
v -0.1737739 0.31855762 0.513
v -0.17368505 0.30812504 0.513
v -0.17052508 0.29818215 0.513
v -0.16457476 0.2896124 0.513
v -0.15636285 0.28317725 0.513
v -0.14661897 0.27944854 0.513
v -0.13620892 0.27875753 0.513
v -0.12605768 0.2811656 0.513
v -0.11706724 0.28645886 0.513
v -0.1100364 0.29416692 0.513
v -0.10558994 0.3036049 0.513
v -0.10412292 0.3139342 0.513
v -0.10576567 0.32423703 0.513
v -0.11037227 0.33359788 0.513
v -0.11753336 0.34118507 0.513
v -0.12661267 0.34632442 0.513
v -0.13680346 0.34855925 0.513
v -0.13680346 0.34855925 0.52099999
f 123 103 109
f 109 103 104
f 109 104 105
f 105 106 109
f 109 106 107
f 109 107 108
f 110 118 109
f 109 118 119
f 109 119 120
f 118 110 117
f 117 110 111
f 117 111 116
f 116 111 112
f 116 112 115
f 115 112 113
f 115 113 114
f 120 121 109
f 109 121 122
f 109 122 123
f 144 124 139
f 139 124 125
f 139 125 126
f 126 127 139
f 139 127 128
f 139 128 129
f 129 130 139
f 139 130 138
f 138 130 131
f 138 131 137
f 137 131 132
f 137 132 136
f 136 132 133
f 136 133 135
f 135 133 134
f 140 141 139
f 139 141 142
f 139 142 143
f 143 144 139
f 146 186 145
f 145 186 187
f 188 166 165
f 165 166 167
f 165 167 164
f 164 167 168
f 164 168 163
f 163 168 169
f 163 169 162
f 162 169 170
f 162 170 161
f 161 170 171
f 161 171 160
f 160 171 172
f 160 172 159
f 159 172 173
f 159 173 158
f 158 173 174
f 158 174 157
f 157 174 175
f 157 175 156
f 156 175 176
f 156 176 155
f 155 176 177
f 155 177 154
f 154 177 178
f 154 178 153
f 153 178 179
f 153 179 152
f 152 179 180
f 152 180 151
f 151 180 181
f 151 181 150
f 150 181 182
f 150 182 149
f 149 182 183
f 149 183 148
f 148 183 184
f 148 184 147
f 147 184 185
f 147 185 146
f 146 185 186
v 0.26231819 0.32206564 0.52099999
v 0.25192139 0.32119741 0.52099999
v 0.24224249 0.31730322 0.52099999
v 0.23414134 0.31072915 0.52099999
v 0.22833791 0.3020593 0.52099999
v 0.22534776 0.29206401 0.52099999
v 0.22543662 0.28163143 0.52099999
v 0.22859657 0.27168854 0.52099999
v 0.23454688 0.26311879 0.52099999
v 0.2427588 0.25668364 0.52099999
v 0.25250271 0.25295493 0.52099999
v 0.26291269 0.25226392 0.52099999
v 0.27306396 0.25467199 0.52099999
v 0.28205445 0.25996525 0.52099999
v 0.28908524 0.26767332 0.52099999
v 0.29353169 0.2771113 0.52099999
v 0.29499871 0.2874406 0.52099999
v 0.29335595 0.29774342 0.52099999
v 0.2887494 0.30710427 0.52099999
v 0.28158827 0.31469146 0.52099999
v 0.27250901 0.31983081 0.52099999
v 0.26231819 0.32206564 0.513
v 0.27250901 0.31983081 0.513
v 0.28158827 0.31469146 0.513
v 0.2887494 0.30710427 0.513
v 0.29335595 0.29774342 0.513
v 0.29499871 0.2874406 0.513
v 0.29353169 0.2771113 0.513
v 0.28908524 0.26767332 0.513
v 0.28205445 0.25996525 0.513
v 0.27306396 0.25467199 0.513
v 0.26291269 0.25226392 0.513
v 0.25250271 0.25295493 0.513
v 0.2427588 0.25668364 0.513
v 0.23454688 0.26311879 0.513
v 0.22859657 0.27168854 0.513
v 0.22543662 0.28163143 0.513
v 0.22534776 0.29206401 0.513
v 0.22833791 0.3020593 0.513
v 0.23414134 0.31072915 0.513
v 0.24224249 0.31730322 0.513
v 0.25192139 0.32119741 0.513
v 0.26231819 0.32206564 0.52099999
v 0.27250901 0.31983081 0.52099999
v 0.28158827 0.31469146 0.52099999
v 0.2887494 0.30710427 0.52099999
v 0.29335595 0.29774342 0.52099999
v 0.29499871 0.2874406 0.52099999
v 0.29353169 0.2771113 0.52099999
v 0.28908524 0.26767332 0.52099999
v 0.28205445 0.25996525 0.52099999
v 0.27306396 0.25467199 0.52099999
v 0.26291269 0.25226392 0.52099999
v 0.25250271 0.25295493 0.52099999
v 0.2427588 0.25668364 0.52099999
v 0.23454688 0.26311879 0.52099999
v 0.22859657 0.27168854 0.52099999
v 0.22543662 0.28163143 0.52099999
v 0.22534776 0.29206401 0.52099999
v 0.22833791 0.3020593 0.52099999
v 0.23414134 0.31072915 0.52099999
v 0.24224249 0.31730322 0.52099999
v 0.25192139 0.32119741 0.52099999
v 0.26231819 0.32206564 0.513
v 0.25192139 0.32119741 0.513
v 0.24224249 0.31730322 0.513
v 0.23414134 0.31072915 0.513
v 0.22833791 0.3020593 0.513
v 0.22534776 0.29206401 0.513
v 0.22543662 0.28163143 0.513
v 0.22859657 0.27168854 0.513
v 0.23454688 0.26311879 0.513
v 0.2427588 0.25668364 0.513
v 0.25250271 0.25295493 0.513
v 0.26291269 0.25226392 0.513
v 0.27306396 0.25467199 0.513
v 0.28205445 0.25996525 0.513
v 0.28908524 0.26767332 0.513
v 0.29353169 0.2771113 0.513
v 0.29499871 0.2874406 0.513
v 0.29335595 0.29774342 0.513
v 0.2887494 0.30710427 0.513
v 0.28158827 0.31469146 0.513
v 0.27250901 0.31983081 0.513
v 0.26231819 0.32206564 0.513
v 0.26231819 0.32206564 0.52099999
f 209 189 195
f 195 189 190
f 195 190 191
f 191 192 195
f 195 192 193
f 195 193 194
f 196 204 195
f 195 204 205
f 195 205 206
f 204 196 203
f 203 196 197
f 203 197 202
f 202 197 198
f 202 198 201
f 201 198 199
f 201 199 200
f 206 207 195
f 195 207 208
f 195 208 209
f 230 210 225
f 225 210 211
f 225 211 212
f 212 213 225
f 225 213 214
f 225 214 215
f 215 216 225
f 225 216 224
f 224 216 217
f 224 217 223
f 223 217 218
f 223 218 222
f 222 218 219
f 222 219 221
f 221 219 220
f 226 227 225
f 225 227 228
f 225 228 229
f 229 230 225
f 232 272 231
f 231 272 273
f 274 252 251
f 251 252 253
f 251 253 250
f 250 253 254
f 250 254 249
f 249 254 255
f 249 255 248
f 248 255 256
f 248 256 247
f 247 256 257
f 247 257 246
f 246 257 258
f 246 258 245
f 245 258 259
f 245 259 244
f 244 259 260
f 244 260 243
f 243 260 261
f 243 261 242
f 242 261 262
f 242 262 241
f 241 262 263
f 241 263 240
f 240 263 264
f 240 264 239
f 239 264 265
f 239 265 238
f 238 265 266
f 238 266 237
f 237 266 267
f 237 267 236
f 236 267 268
f 236 268 235
f 235 268 269
f 235 269 234
f 234 269 270
f 234 270 233
f 233 270 271
f 233 271 232
f 232 271 272
v -0.076382503 0.10141029 0.46700002
v -0.11550416 0.31790392 0.46700002
v -0.11550416 0.31790392 0.473
v -0.076382503 0.10141029 0.473
v -0.12361747 0.092874652 0.46700002
v -0.076382503 0.10141029 0.46700002
v -0.076382503 0.10141029 0.473
v -0.12361747 0.092874652 0.473
v -0.16273913 0.30936829 0.46700002
v -0.11550416 0.31790392 0.46700002
v -0.076382503 0.10141029 0.46700002
v -0.12361747 0.092874652 0.46700002
v -0.11550416 0.31790392 0.473
v -0.16273913 0.30936829 0.473
v -0.12361747 0.092874652 0.473
v -0.076382503 0.10141029 0.473
v -0.11550416 0.31790392 0.46700002
v -0.16273913 0.30936829 0.46700002
v -0.16273913 0.30936829 0.473
v -0.11550416 0.31790392 0.473
v -0.16273913 0.30936829 0.46700002
v -0.12361747 0.092874652 0.46700002
v -0.12361747 0.092874652 0.473
v -0.16273913 0.30936829 0.473
f 276 277 275
f 275 277 278
f 280 281 279
f 279 281 282
f 284 285 283
f 283 285 286
f 288 289 287
f 287 289 290
f 292 293 291
f 291 293 294
f 296 297 295
f 295 297 298
v -0.14338947 0.33725361 0.473
v -0.13588238 0.3374165 0.473
v -0.12869237 0.3352516 0.473
v -0.12252326 0.33097087 0.473
v -0.11797891 0.32499326 0.473
v -0.11550416 0.31790392 0.473
v -0.11534125 0.31039683 0.473
v -0.11750613 0.30320682 0.473
v -0.1217869 0.29703774 0.473
v -0.12776451 0.29249337 0.473
v -0.13485383 0.29001861 0.473
v -0.14236091 0.28985572 0.473
v -0.14955092 0.29202062 0.473
v -0.15572003 0.29630134 0.473
v -0.16026438 0.30227896 0.473
v -0.16273913 0.30936829 0.473
v -0.16290204 0.31687539 0.473
v -0.16073716 0.3240654 0.473
v -0.15645639 0.33023448 0.473
v -0.15047878 0.33477885 0.473
v -0.14338947 0.33725361 0.46700002
v -0.15047878 0.33477885 0.46700002
v -0.15645639 0.33023448 0.46700002
v -0.16073716 0.3240654 0.46700002
v -0.16290204 0.31687539 0.46700002
v -0.16273913 0.30936829 0.46700002
v -0.16026438 0.30227896 0.46700002
v -0.15572003 0.29630134 0.46700002
v -0.14955092 0.29202062 0.46700002
v -0.14236091 0.28985572 0.46700002
v -0.13485383 0.29001861 0.46700002
v -0.12776451 0.29249337 0.46700002
v -0.1217869 0.29703774 0.46700002
v -0.11750613 0.30320682 0.46700002
v -0.11534125 0.31039683 0.46700002
v -0.11550416 0.31790392 0.46700002
v -0.11797891 0.32499326 0.46700002
v -0.12252326 0.33097087 0.46700002
v -0.12869237 0.3352516 0.46700002
v -0.13588238 0.3374165 0.46700002
v -0.14338947 0.33725361 0.46700002
v -0.14338947 0.33725361 0.473
v -0.14338947 0.33725361 0.473
v -0.15047878 0.33477885 0.473
v -0.15645639 0.33023448 0.473
v -0.16073716 0.3240654 0.473
v -0.16290204 0.31687539 0.473
v -0.16273913 0.30936829 0.473
v -0.16026438 0.30227896 0.473
v -0.15572003 0.29630134 0.473
v -0.14955092 0.29202062 0.473
v -0.14236091 0.28985572 0.473
v -0.13485383 0.29001861 0.473
v -0.12776451 0.29249337 0.473
v -0.1217869 0.29703774 0.473
v -0.11750613 0.30320682 0.473
v -0.11534125 0.31039683 0.473
v -0.11550416 0.31790392 0.473
v -0.11797891 0.32499326 0.473
v -0.12252326 0.33097087 0.473
v -0.12869237 0.3352516 0.473
v -0.13588238 0.3374165 0.473
v -0.14338947 0.33725361 0.46700002
v -0.13588238 0.3374165 0.46700002
v -0.12869237 0.3352516 0.46700002
v -0.12252326 0.33097087 0.46700002
v -0.11797891 0.32499326 0.46700002
v -0.11550416 0.31790392 0.46700002
v -0.11534125 0.31039683 0.46700002
v -0.11750613 0.30320682 0.46700002
v -0.1217869 0.29703774 0.46700002
v -0.12776451 0.29249337 0.46700002
v -0.13485383 0.29001861 0.46700002
v -0.14236091 0.28985572 0.46700002
v -0.14955092 0.29202062 0.46700002
v -0.15572003 0.29630134 0.46700002
v -0.16026438 0.30227896 0.46700002
v -0.16273913 0.30936829 0.46700002
v -0.16290204 0.31687539 0.46700002
v -0.16073716 0.3240654 0.46700002
v -0.15645639 0.33023448 0.46700002
v -0.15047878 0.33477885 0.46700002
f 300 338 299
f 299 338 339
f 340 319 318
f 318 319 320
f 318 320 317
f 317 320 321
f 317 321 316
f 316 321 322
f 316 322 315
f 315 322 323
f 315 323 314
f 314 323 324
f 314 324 313
f 313 324 325
f 313 325 312
f 312 325 326
f 312 326 311
f 311 326 327
f 311 327 310
f 310 327 328
f 310 328 309
f 309 328 329
f 309 329 308
f 308 329 330
f 308 330 307
f 307 330 331
f 307 331 306
f 306 331 332
f 306 332 305
f 305 332 333
f 305 333 304
f 304 333 334
f 304 334 303
f 303 334 335
f 303 335 302
f 302 335 336
f 302 336 301
f 301 336 337
f 301 337 300
f 300 337 338
f 342 350 341
f 341 350 351
f 341 351 360
f 360 351 352
f 360 352 359
f 359 352 353
f 359 353 358
f 358 353 354
f 358 354 357
f 357 354 355
f 357 355 356
f 350 342 349
f 349 342 343
f 349 343 348
f 348 343 344
f 348 344 347
f 347 344 345
f 347 345 346
f 362 370 361
f 361 370 371
f 361 371 380
f 380 371 372
f 380 372 379
f 379 372 373
f 379 373 378
f 378 373 374
f 378 374 377
f 377 374 375
f 377 375 376
f 370 362 369
f 369 362 363
f 369 363 368
f 368 363 364
f 368 364 367
f 367 364 365
f 367 365 366
v -0.10426781 0.12075997 0.473
v -0.096760731 0.1209229 0.473
v -0.089570716 0.118758 0.473
v -0.083401594 0.1144772 0.473
v -0.078857246 0.10849958 0.473
v -0.076382503 0.10141029 0.473
v -0.076219599 0.093903225 0.473
v -0.078384481 0.086713214 0.473
v -0.082665236 0.080544061 0.473
v -0.088642846 0.075999694 0.473
v -0.095732167 0.073524966 0.473
v -0.10323924 0.07336204 0.473
v -0.11042926 0.07552694 0.473
v -0.11659838 0.07980774 0.473
v -0.12114273 0.085785354 0.473
v -0.12361747 0.092874652 0.473
v -0.12378038 0.10038171 0.473
v -0.12161549 0.10757172 0.473
v -0.11733474 0.11374088 0.473
v -0.11135713 0.11828524 0.473
v -0.10426781 0.12075997 0.46700002
v -0.11135713 0.11828524 0.46700002
v -0.11733474 0.11374088 0.46700002
v -0.12161549 0.10757172 0.46700002
v -0.12378038 0.10038171 0.46700002
v -0.12361747 0.092874652 0.46700002
v -0.12114273 0.085785354 0.46700002
v -0.11659838 0.07980774 0.46700002
v -0.11042926 0.07552694 0.46700002
v -0.10323924 0.07336204 0.46700002
v -0.095732167 0.073524966 0.46700002
v -0.088642846 0.075999694 0.46700002
v -0.082665236 0.080544061 0.46700002
v -0.078384481 0.086713214 0.46700002
v -0.076219599 0.093903225 0.46700002
v -0.076382503 0.10141029 0.46700002
v -0.078857246 0.10849958 0.46700002
v -0.083401594 0.1144772 0.46700002
v -0.089570716 0.118758 0.46700002
v -0.096760731 0.1209229 0.46700002
v -0.10426781 0.12075997 0.46700002
v -0.10426781 0.12075997 0.473
v -0.10426781 0.12075997 0.46700002
v -0.096760731 0.1209229 0.46700002
v -0.089570716 0.118758 0.46700002
v -0.083401594 0.1144772 0.46700002
v -0.078857246 0.10849958 0.46700002
v -0.076382503 0.10141029 0.46700002
v -0.076219599 0.093903225 0.46700002
v -0.078384481 0.086713214 0.46700002
v -0.082665236 0.080544061 0.46700002
v -0.088642846 0.075999694 0.46700002
v -0.095732167 0.073524966 0.46700002
v -0.10323924 0.07336204 0.46700002
v -0.11042926 0.07552694 0.46700002
v -0.11659838 0.07980774 0.46700002
v -0.12114273 0.085785354 0.46700002
v -0.12361747 0.092874652 0.46700002
v -0.12378038 0.10038171 0.46700002
v -0.12161549 0.10757172 0.46700002
v -0.11733474 0.11374088 0.46700002
v -0.11135713 0.11828524 0.46700002
v -0.10426781 0.12075997 0.473
v -0.11135713 0.11828524 0.473
v -0.11733474 0.11374088 0.473
v -0.12161549 0.10757172 0.473
v -0.12378038 0.10038171 0.473
v -0.12361747 0.092874652 0.473
v -0.12114273 0.085785354 0.473
v -0.11659838 0.07980774 0.473
v -0.11042926 0.07552694 0.473
v -0.10323924 0.07336204 0.473
v -0.095732167 0.073524966 0.473
v -0.088642846 0.075999694 0.473
v -0.082665236 0.080544061 0.473
v -0.078384481 0.086713214 0.473
v -0.076219599 0.093903225 0.473
v -0.076382503 0.10141029 0.473
v -0.078857246 0.10849958 0.473
v -0.083401594 0.1144772 0.473
v -0.089570716 0.118758 0.473
v -0.096760731 0.1209229 0.473
f 382 420 381
f 381 420 421
f 422 401 400
f 400 401 402
f 400 402 399
f 399 402 403
f 399 403 398
f 398 403 404
f 398 404 397
f 397 404 405
f 397 405 396
f 396 405 406
f 396 406 395
f 395 406 407
f 395 407 394
f 394 407 408
f 394 408 393
f 393 408 409
f 393 409 392
f 392 409 410
f 392 410 391
f 391 410 411
f 391 411 390
f 390 411 412
f 390 412 389
f 389 412 413
f 389 413 388
f 388 413 414
f 388 414 387
f 387 414 415
f 387 415 386
f 386 415 416
f 386 416 385
f 385 416 417
f 385 417 384
f 384 417 418
f 384 418 383
f 383 418 419
f 383 419 382
f 382 419 420
f 424 432 423
f 423 432 433
f 423 433 442
f 442 433 434
f 442 434 441
f 441 434 435
f 441 435 440
f 440 435 436
f 440 436 439
f 439 436 437
f 439 437 438
f 432 424 431
f 431 424 425
f 431 425 430
f 430 425 426
f 430 426 429
f 429 426 427
f 429 427 428
f 444 452 443
f 443 452 453
f 443 453 462
f 462 453 454
f 462 454 461
f 461 454 455
f 461 455 460
f 460 455 456
f 460 456 459
f 459 456 457
f 459 457 458
f 452 444 451
f 451 444 445
f 451 445 450
f 450 445 446
f 450 446 449
f 449 446 447
f 449 447 448
