v 0.56684998 -0.27619991 0.32604404
v 0.56684998 -0.27636625 0.32629372
v 0.56684998 -0.14968144 0.4107011
v 0.56684998 -0.1495151 0.41045147
v 0.73084999 -0.27636625 0.32629372
v 0.73084999 -0.27619991 0.32604404
v 0.73084999 -0.1495151 0.41045147
v 0.73084999 -0.14968144 0.4107011
v 0.56684998 -0.27636625 0.32629372
v 0.56684998 -0.27619991 0.32604404
v 0.73084999 -0.27619991 0.32604404
v 0.73084999 -0.27636625 0.32629372
v 0.56684998 -0.27619991 0.32604404
v 0.56684998 -0.1495151 0.41045147
v 0.73084999 -0.1495151 0.41045147
v 0.73084999 -0.27619991 0.32604404
v 0.56684998 -0.1495151 0.41045147
v 0.56684998 -0.14968144 0.4107011
v 0.73084999 -0.14968144 0.4107011
v 0.73084999 -0.1495151 0.41045147
v 0.56684998 -0.14968144 0.4107011
v 0.56684998 -0.27636625 0.32629372
v 0.73084999 -0.27636625 0.32629372
v 0.73084999 -0.14968144 0.4107011
f 1 2 4
f 4 2 3
f 6 7 5
f 5 7 8
f 9 10 12
f 12 10 11
f 13 14 16
f 16 14 15
f 17 18 20
f 20 18 19
f 21 22 24
f 24 22 23
v 0.49885002 -0.0728575 0.585
v 0.49885002 0.3771425 0.585
v 0.49885002 0.3771425 0.59
v 0.49885002 -0.0728575 0.59
v 0.49885002 -0.1655626 0.57420105
v 0.49885002 -0.24919307 0.52835068
v 0.49885002 -0.28584804 0.49452656
v 0.49885002 -0.3155626 0.45693707
v 0.49885002 -0.3503651 0.38983349
v 0.49885002 -0.35817445 0.36695068
v 0.49885002 -0.36719367 0.32962858
v 0.49885002 -0.3728575 0.26719999
v 0.49885002 -0.3728575 0.26219999
v 0.49885002 -0.37282152 0.26719948
v 0.49885002 -0.3662729 0.3294599
v 0.49885002 -0.34866907 0.38918613
v 0.49885002 -0.32067329 0.44412781
v 0.49885002 -0.28334038 0.49221485
v 0.49885002 -0.23807697 0.53163548
v 0.49885002 -0.18658846 0.56090439
v 0.49885002 -0.13081482 0.5789188
v -0.206 0.3771425 0.585
v -0.206 -0.0728575 0.585
v -0.206 -0.13081482 0.5789188
v -0.206 -0.18658846 0.56090439
v -0.206 -0.23807697 0.53163548
v -0.206 -0.28334038 0.49221485
v -0.206 -0.32067329 0.44412781
v -0.206 -0.34866907 0.38918613
v -0.206 -0.3662729 0.3294599
v -0.206 -0.37282152 0.26719948
v -0.206 -0.3728575 0.26219999
v -0.206 -0.3728575 0.26719999
v -0.206 -0.36719367 0.32962858
v -0.206 -0.35817445 0.36695068
v -0.206 -0.3503651 0.38983349
v -0.206 -0.3155626 0.45693707
v -0.206 -0.28584804 0.49452656
v -0.206 -0.24919307 0.52835068
v -0.206 -0.1655626 0.57420105
v -0.206 -0.0728575 0.59
v -0.206 0.3771425 0.59
v -0.206 -0.0728575 0.585
v -0.206 0.3771425 0.585
v 0.49885002 0.3771425 0.585
v 0.49885002 -0.0728575 0.585
v -0.206 0.3771425 0.585
v -0.206 0.3771425 0.59
v 0.49885002 0.3771425 0.59
v 0.49885002 0.3771425 0.585
v -0.206 0.3771425 0.59
v -0.206 -0.0728575 0.59
v 0.49885002 -0.0728575 0.59
v 0.49885002 0.3771425 0.59
v -0.206 -0.0728575 0.59
v -0.206 -0.1655626 0.57420105
v -0.206 -0.24919307 0.52835068
v -0.206 -0.28584804 0.49452656
v -0.206 -0.3155626 0.45693707
v -0.206 -0.3503651 0.38983349
v -0.206 -0.35817445 0.36695068
v -0.206 -0.36719367 0.32962858
v -0.206 -0.3728575 0.26719999
v 0.49885002 -0.3728575 0.26719999
v 0.49885002 -0.36719367 0.32962858
v 0.49885002 -0.35817445 0.36695068
v 0.49885002 -0.3503651 0.38983349
v 0.49885002 -0.3155626 0.45693707
v 0.49885002 -0.28584804 0.49452656
v 0.49885002 -0.24919307 0.52835068
v 0.49885002 -0.1655626 0.57420105
v 0.49885002 -0.0728575 0.59
v -0.206 -0.3728575 0.26719999
v -0.206 -0.3728575 0.26219999
v 0.49885002 -0.3728575 0.26219999
v 0.49885002 -0.3728575 0.26719999
v -0.206 -0.3728575 0.26219999
v -0.206 -0.37282152 0.26719948
v -0.206 -0.3662729 0.3294599
v -0.206 -0.34866907 0.38918613
v -0.206 -0.32067329 0.44412781
v -0.206 -0.28334038 0.49221485
v -0.206 -0.23807697 0.53163548
v -0.206 -0.18658846 0.56090439
v -0.206 -0.13081482 0.5789188
v -0.206 -0.0728575 0.585
v 0.49885002 -0.0728575 0.585
v 0.49885002 -0.13081482 0.5789188
v 0.49885002 -0.18658846 0.56090439
v 0.49885002 -0.23807697 0.53163548
v 0.49885002 -0.28334038 0.49221485
v 0.49885002 -0.32067329 0.44412781
v 0.49885002 -0.34866907 0.38918613
v 0.49885002 -0.3662729 0.3294599
v 0.49885002 -0.37282152 0.26719948
v 0.49885002 -0.3728575 0.26219999
f 26 27 25
f 25 27 28
f 25 28 45
f 45 28 29
f 45 29 44
f 44 29 30
f 44 30 43
f 43 30 42
f 42 30 31
f 42 31 32
f 42 32 41
f 41 32 33
f 41 33 40
f 40 33 34
f 40 34 39
f 39 34 35
f 39 35 36
f 37 38 36
f 36 38 39
f 66 46 65
f 65 46 47
f 65 47 48
f 65 48 64
f 64 48 49
f 64 49 63
f 63 49 50
f 63 50 51
f 52 61 51
f 51 61 62
f 51 62 63
f 61 52 60
f 60 52 53
f 60 53 59
f 59 53 54
f 59 54 58
f 58 54 57
f 57 54 55
f 57 55 56
f 67 68 70
f 70 68 69
f 71 72 74
f 74 72 73
f 75 76 78
f 78 76 77
f 96 79 95
f 95 79 80
f 95 80 94
f 94 80 81
f 94 81 93
f 93 81 82
f 93 82 92
f 92 82 83
f 92 83 91
f 91 83 84
f 91 84 90
f 90 84 85
f 90 85 89
f 89 85 86
f 89 86 88
f 88 86 87
f 97 98 100
f 100 98 99
f 120 101 119
f 119 101 102
f 119 102 118
f 118 102 103
f 118 103 104
f 105 116 104
f 104 116 117
f 104 117 118
f 105 106 116
f 116 106 115
f 115 106 107
f 115 107 114
f 114 107 113
f 113 107 108
f 113 108 109
f 110 111 109
f 109 111 112
f 109 112 113
v 0.49584999 -0.0728575 0.585
v 0.49584999 0.19463338 0.585
v 0.49584999 0.044053244 0.51781029
v 0.49584999 -0.10123141 0.43982822
v 0.49584999 -0.24044832 0.35146822
v 0.49584999 -0.3728575 0.2532
v 0.49584999 -0.3728575 0.26219999
v 0.49584999 -0.36533587 0.33402975
v 0.49584999 -0.34314816 0.40225765
v 0.49584999 -0.30740695 0.46346252
v 0.49584999 -0.25990444 0.5145752
v 0.49584999 -0.20302262 0.55303276
v 0.49584999 -0.13961379 0.57690674
v 0.49885002 0.19463338 0.585
v 0.49885002 -0.0728575 0.585
v 0.49885002 -0.13961379 0.57690674
v 0.49885002 -0.20302262 0.55303276
v 0.49885002 -0.25990444 0.5145752
v 0.49885002 -0.30740695 0.46346252
v 0.49885002 -0.34314816 0.40225765
v 0.49885002 -0.36533587 0.33402975
v 0.49885002 -0.3728575 0.26219999
v 0.49885002 -0.3728575 0.2532
v 0.49885002 -0.24044832 0.35146822
v 0.49885002 -0.10123141 0.43982822
v 0.49885002 0.044053244 0.51781029
v 0.49584999 0.19463338 0.585
v 0.49584999 -0.0728575 0.585
v 0.49885002 -0.0728575 0.585
v 0.49885002 0.19463338 0.585
v 0.49584999 -0.0728575 0.585
v 0.49584999 -0.13961379 0.57690674
v 0.49584999 -0.20302262 0.55303276
v 0.49584999 -0.25990444 0.5145752
v 0.49584999 -0.30740695 0.46346252
v 0.49584999 -0.34314816 0.40225765
v 0.49584999 -0.36533587 0.33402975
v 0.49584999 -0.3728575 0.26219999
v 0.49885002 -0.3728575 0.26219999
v 0.49885002 -0.36533587 0.33402975
v 0.49885002 -0.34314816 0.40225765
v 0.49885002 -0.30740695 0.46346252
v 0.49885002 -0.25990444 0.5145752
v 0.49885002 -0.20302262 0.55303276
v 0.49885002 -0.13961379 0.57690674
v 0.49885002 -0.0728575 0.585
v 0.49584999 -0.3728575 0.26219999
v 0.49584999 -0.3728575 0.2532
v 0.49885002 -0.3728575 0.2532
v 0.49885002 -0.3728575 0.26219999
v 0.49584999 -0.3728575 0.2532
v 0.49584999 -0.24044832 0.35146822
v 0.49584999 -0.10123141 0.43982822
v 0.49584999 0.044053244 0.51781029
v 0.49584999 0.19463338 0.585
v 0.49885002 0.19463338 0.585
v 0.49885002 0.044053244 0.51781029
v 0.49885002 -0.10123141 0.43982822
v 0.49885002 -0.24044832 0.35146822
v 0.49885002 -0.3728575 0.2532
f 122 123 121
f 121 123 124
f 121 124 133
f 133 124 132
f 132 124 131
f 131 124 130
f 130 124 125
f 130 125 129
f 129 125 128
f 128 125 127
f 127 125 126
f 134 135 146
f 146 135 145
f 145 135 136
f 145 136 137
f 137 138 145
f 145 138 139
f 145 139 144
f 144 139 140
f 144 140 141
f 141 142 144
f 144 142 143
f 147 148 150
f 150 148 149
f 166 151 165
f 165 151 152
f 165 152 164
f 164 152 153
f 164 153 163
f 163 153 154
f 163 154 162
f 162 154 155
f 162 155 161
f 161 155 156
f 161 156 160
f 160 156 157
f 160 157 159
f 159 157 158
f 167 168 170
f 170 168 169
f 180 171 179
f 179 171 172
f 179 172 173
f 179 173 178
f 178 173 174
f 178 174 177
f 177 174 176
f 176 174 175
