v 0.56985 -0.16744243 0.39907162
v 0.56985 -0.17826102 0.39186342
v 0.60785 -0.17826102 0.39186342
v 0.60785 -0.16744243 0.39907162
v 0.56985 -0.16742025 0.39903833
v 0.56985 -0.17823884 0.39183014
v 0.56985 -0.17826102 0.39186342
v 0.56985 -0.16744243 0.39907162
v 0.56985 -0.17823884 0.39183014
v 0.60785 -0.17823884 0.39183014
v 0.60785 -0.17826102 0.39186342
v 0.56985 -0.17826102 0.39186342
v 0.56985 -0.17823884 0.39183014
v 0.56985 -0.16742025 0.39903833
v 0.60785 -0.16742025 0.39903833
v 0.60785 -0.17823884 0.39183014
v 0.60785 -0.17823884 0.39183014
v 0.60785 -0.16742025 0.39903833
v 0.60785 -0.16744243 0.39907162
v 0.60785 -0.17826102 0.39186342
v 0.60785 -0.16742025 0.39903833
v 0.56985 -0.16742025 0.39903833
v 0.56985 -0.16744243 0.39907162
v 0.60785 -0.16744243 0.39907162
f 2 3 1
f 1 3 4
f 5 6 8
f 8 6 7
f 9 10 12
f 12 10 11
f 14 15 13
f 13 15 16
f 17 18 20
f 20 18 19
f 21 22 24
f 24 22 23
v 0.60985 -0.16744243 0.39907162
v 0.60985 -0.17826102 0.39186342
v 0.64785 -0.17826102 0.39186342
v 0.64785 -0.16744243 0.39907162
v 0.60985 -0.16742025 0.39903833
v 0.60985 -0.17823884 0.39183014
v 0.60985 -0.17826102 0.39186342
v 0.60985 -0.16744243 0.39907162
v 0.60985 -0.17823884 0.39183014
v 0.64785 -0.17823884 0.39183014
v 0.64785 -0.17826102 0.39186342
v 0.60985 -0.17826102 0.39186342
v 0.60985 -0.17823884 0.39183014
v 0.60985 -0.16742025 0.39903833
v 0.64785 -0.16742025 0.39903833
v 0.64785 -0.17823884 0.39183014
v 0.64785 -0.17823884 0.39183014
v 0.64785 -0.16742025 0.39903833
v 0.64785 -0.16744243 0.39907162
v 0.64785 -0.17826102 0.39186342
v 0.64785 -0.16742025 0.39903833
v 0.60985 -0.16742025 0.39903833
v 0.60985 -0.16744243 0.39907162
v 0.64785 -0.16744243 0.39907162
f 26 27 25
f 25 27 28
f 29 30 32
f 32 30 31
f 33 34 36
f 36 34 35
f 38 39 37
f 37 39 40
f 41 42 44
f 44 42 43
f 45 46 48
f 48 46 47
v 0.64985 -0.16744243 0.39907162
v 0.64985 -0.17826102 0.39186342
v 0.68785 -0.17826102 0.39186342
v 0.68785 -0.16744243 0.39907162
v 0.64985 -0.16742025 0.39903833
v 0.64985 -0.17823884 0.39183014
v 0.64985 -0.17826102 0.39186342
v 0.64985 -0.16744243 0.39907162
v 0.64985 -0.17823884 0.39183014
v 0.68785 -0.17823884 0.39183014
v 0.68785 -0.17826102 0.39186342
v 0.64985 -0.17826102 0.39186342
v 0.64985 -0.17823884 0.39183014
v 0.64985 -0.16742025 0.39903833
v 0.68785 -0.16742025 0.39903833
v 0.68785 -0.17823884 0.39183014
v 0.68785 -0.17823884 0.39183014
v 0.68785 -0.16742025 0.39903833
v 0.68785 -0.16744243 0.39907162
v 0.68785 -0.17826102 0.39186342
v 0.68785 -0.16742025 0.39903833
v 0.64985 -0.16742025 0.39903833
v 0.64985 -0.16744243 0.39907162
v 0.68785 -0.16744243 0.39907162
f 50 51 49
f 49 51 52
f 53 54 56
f 56 54 55
f 57 58 60
f 60 58 59
f 62 63 61
f 61 63 64
f 65 66 68
f 68 66 67
f 69 70 72
f 72 70 71
v 0.68985 -0.16744243 0.39907162
v 0.68985 -0.17826102 0.39186342
v 0.72785 -0.17826102 0.39186342
v 0.72785 -0.16744243 0.39907162
v 0.68985 -0.16742025 0.39903833
v 0.68985 -0.17823884 0.39183014
v 0.68985 -0.17826102 0.39186342
v 0.68985 -0.16744243 0.39907162
v 0.68985 -0.17823884 0.39183014
v 0.72785 -0.17823884 0.39183014
v 0.72785 -0.17826102 0.39186342
v 0.68985 -0.17826102 0.39186342
v 0.68985 -0.17823884 0.39183014
v 0.68985 -0.16742025 0.39903833
v 0.72785 -0.16742025 0.39903833
v 0.72785 -0.17823884 0.39183014
v 0.72785 -0.17823884 0.39183014
v 0.72785 -0.16742025 0.39903833
v 0.72785 -0.16744243 0.39907162
v 0.72785 -0.17826102 0.39186342
v 0.72785 -0.16742025 0.39903833
v 0.68985 -0.16742025 0.39903833
v 0.68985 -0.16744243 0.39907162
v 0.72785 -0.16744243 0.39907162
f 74 75 73
f 73 75 76
f 77 78 80
f 80 78 79
f 81 82 84
f 84 82 83
f 86 87 85
f 85 87 88
f 89 90 92
f 92 90 91
f 93 94 96
f 96 94 95
v 0.56985 -0.26229097 0.33582799
v 0.56985 -0.27394176 0.32806531
v 0.56985 -0.27396394 0.3280986
v 0.56985 -0.26231315 0.33586128
v 0.56985 -0.27394176 0.32806531
v 0.62085 -0.27394176 0.32806531
v 0.62085 -0.27396394 0.3280986
v 0.56985 -0.27396394 0.3280986
v 0.56985 -0.27394176 0.32806531
v 0.56985 -0.26229097 0.33582799
v 0.62085 -0.26229097 0.33582799
v 0.62085 -0.27394176 0.32806531
v 0.56985 -0.26231315 0.33586128
v 0.56985 -0.27396394 0.3280986
v 0.62085 -0.27396394 0.3280986
v 0.62085 -0.26231315 0.33586128
v 0.62085 -0.27394176 0.32806531
v 0.62085 -0.26229097 0.33582799
v 0.62085 -0.26231315 0.33586128
v 0.62085 -0.27396394 0.3280986
v 0.62085 -0.26229097 0.33582799
v 0.56985 -0.26229097 0.33582799
v 0.56985 -0.26231315 0.33586128
v 0.62085 -0.26231315 0.33586128
f 97 98 100
f 100 98 99
f 101 102 104
f 104 102 103
f 106 107 105
f 105 107 108
f 110 111 109
f 109 111 112
f 113 114 116
f 116 114 115
f 117 118 120
f 120 118 119
v 0.62285 -0.26229097 0.33582799
v 0.62285 -0.27394176 0.32806531
v 0.62285 -0.27396394 0.3280986
v 0.62285 -0.26231315 0.33586128
v 0.62285 -0.27394176 0.32806531
v 0.67385 -0.27394176 0.32806531
v 0.67385 -0.27396394 0.3280986
v 0.62285 -0.27396394 0.3280986
v 0.62285 -0.27394176 0.32806531
v 0.62285 -0.26229097 0.33582799
v 0.67385 -0.26229097 0.33582799
v 0.67385 -0.27394176 0.32806531
v 0.62285 -0.26231315 0.33586128
v 0.62285 -0.27396394 0.3280986
v 0.67385 -0.27396394 0.3280986
v 0.67385 -0.26231315 0.33586128
v 0.67385 -0.27394176 0.32806531
v 0.67385 -0.26229097 0.33582799
v 0.67385 -0.26231315 0.33586128
v 0.67385 -0.27396394 0.3280986
v 0.67385 -0.26229097 0.33582799
v 0.62285 -0.26229097 0.33582799
v 0.62285 -0.26231315 0.33586128
v 0.67385 -0.26231315 0.33586128
f 121 122 124
f 124 122 123
f 125 126 128
f 128 126 127
f 130 131 129
f 129 131 132
f 134 135 133
f 133 135 136
f 137 138 140
f 140 138 139
f 141 142 144
f 144 142 143
v 0.67585 -0.26229097 0.33582799
v 0.67585 -0.27394176 0.32806531
v 0.67585 -0.27396394 0.3280986
v 0.67585 -0.26231315 0.33586128
v 0.67585 -0.27394176 0.32806531
v 0.72685 -0.27394176 0.32806531
v 0.72685 -0.27396394 0.3280986
v 0.67585 -0.27396394 0.3280986
v 0.72685 -0.27394176 0.32806531
v 0.72685 -0.26229097 0.33582799
v 0.72685 -0.26231315 0.33586128
v 0.72685 -0.27396394 0.3280986
v 0.67585 -0.27394176 0.32806531
v 0.67585 -0.26229097 0.33582799
v 0.72685 -0.26229097 0.33582799
v 0.72685 -0.27394176 0.32806531
v 0.67585 -0.26231315 0.33586128
v 0.67585 -0.27396394 0.3280986
v 0.72685 -0.27396394 0.3280986
v 0.72685 -0.26231315 0.33586128
v 0.72685 -0.26229097 0.33582799
v 0.67585 -0.26229097 0.33582799
v 0.67585 -0.26231315 0.33586128
v 0.72685 -0.26231315 0.33586128
f 145 146 148
f 148 146 147
f 149 150 152
f 152 150 151
f 153 154 156
f 156 154 155
f 158 159 157
f 157 159 160
f 162 163 161
f 161 163 164
f 165 166 168
f 168 166 167
v 0.772 -0.3755575 0.041
v 0.772 -0.3755575 0.066999999
v 0.788 -0.3755575 0.066999999
v 0.788 -0.3755575 0.041
v 0.772 -0.3770575 0.066999999
v 0.772 -0.3770575 0.041
v 0.788 -0.3770575 0.041
v 0.788 -0.3770575 0.066999999
v 0.772 -0.3755575 0.066999999
v 0.772 -0.3755575 0.041
v 0.772 -0.3770575 0.041
v 0.772 -0.3770575 0.066999999
v 0.772 -0.3755575 0.041
v 0.788 -0.3755575 0.041
v 0.788 -0.3770575 0.041
v 0.772 -0.3770575 0.041
v 0.788 -0.3755575 0.041
v 0.788 -0.3755575 0.066999999
v 0.788 -0.3770575 0.066999999
v 0.788 -0.3770575 0.041
v 0.788 -0.3755575 0.066999999
v 0.772 -0.3755575 0.066999999
v 0.772 -0.3770575 0.066999999
v 0.788 -0.3770575 0.066999999
f 170 171 169
f 169 171 172
f 174 175 173
f 173 175 176
f 177 178 180
f 180 178 179
f 181 182 184
f 184 182 183
f 185 186 188
f 188 186 187
f 189 190 192
f 192 190 191
