v 0.777 -0.2817 0.061
v 0.777 -0.2817 0.063
v 0.783 -0.2817 0.063
v 0.783 -0.2817 0.061
v 0.777 -0.28175 0.063
v 0.777 -0.28175 0.061
v 0.783 -0.28175 0.061
v 0.783 -0.28175 0.063
v 0.777 -0.2817 0.063
v 0.777 -0.2817 0.061
v 0.777 -0.28175 0.061
v 0.777 -0.28175 0.063
v 0.777 -0.2817 0.061
v 0.783 -0.2817 0.061
v 0.783 -0.28175 0.061
v 0.777 -0.28175 0.061
v 0.783 -0.2817 0.061
v 0.783 -0.2817 0.063
v 0.783 -0.28175 0.063
v 0.783 -0.28175 0.061
v 0.783 -0.2817 0.063
v 0.777 -0.2817 0.063
v 0.777 -0.28175 0.063
v 0.783 -0.28175 0.063
f 2 3 1
f 1 3 4
f 6 7 5
f 5 7 8
f 9 10 12
f 12 10 11
f 13 14 16
f 16 14 15
f 17 18 20
f 20 18 19
f 21 22 24
f 24 22 23
