v 0.0082952184 -0.00097435461 0.44049999
v -0.011400937 -0.0044473182 0.44049999
v 0.048959169 -0.34676649 0.44049999
v 0.068655325 -0.34329353 0.44049999
v -0.011400937 -0.0044473182 0.11
v 0.0082952184 -0.00097435461 0.11
v 0.068655325 -0.34329353 0.11
v 0.048959169 -0.34676649 0.11
v -0.011400937 -0.0044473182 0.44049999
v -0.011400937 -0.0044473182 0.11
v 0.048959169 -0.34676649 0.11
v 0.048959169 -0.34676649 0.44049999
v 0.0082952184 -0.00097435461 0.44049999
v 0.0082952184 -0.00097435461 0.11
v -0.011400937 -0.0044473182 0.11
v -0.011400937 -0.0044473182 0.44049999
v 0.048959169 -0.34676649 0.44049999
v 0.048959169 -0.34676649 0.11
v 0.068655325 -0.34329353 0.11
v 0.068655325 -0.34329353 0.44049999
v 0.068655325 -0.34329353 0.44049999
v 0.068655325 -0.34329353 0.11
v 0.0082952184 -0.00097435461 0.11
v 0.0082952184 -0.00097435461 0.44049999
f 2 3 1
f 1 3 4
f 6 7 5
f 5 7 8
f 9 10 12
f 12 10 11
f 13 14 16
f 16 14 15
f 17 18 20
f 20 18 19
f 21 22 24
f 24 22 23
