v -0.21356733 0.034308241 0.096999998
v -0.21356733 0.034308241 0.02
v 0.12403267 0.034308241 0.02
v 0.12403267 0.034308241 0.096999998
v 0.12403267 0.035808241 0.02
v 0.12403267 0.034308241 0.02
v -0.21356733 0.034308241 0.02
v -0.21356733 0.035808241 0.02
v 0.12403267 0.035808241 0.096999998
v 0.12403267 0.035808241 0.02
v -0.21356733 0.035808241 0.02
v -0.21356733 0.035808241 0.096999998
v -0.21356733 0.035808241 0.096999998
v -0.21356733 0.035808241 0.02
v -0.21356733 0.034308241 0.02
v -0.21356733 0.034308241 0.096999998
v 0.12403267 0.034308241 0.096999998
v 0.12403267 0.034308241 0.02
v 0.12403267 0.035808241 0.02
v 0.12403267 0.035808241 0.096999998
v 0.12403267 0.034308241 0.096999998
v 0.12403267 0.035808241 0.096999998
v -0.21356733 0.035808241 0.096999998
v -0.21356733 0.034308241 0.096999998
f 1 2 4
f 4 2 3
f 6 7 5
f 5 7 8
f 9 10 12
f 12 10 11
f 13 14 16
f 16 14 15
f 17 18 20
f 20 18 19
f 22 23 21
f 21 23 24
v -0.027767335 0.022808242 0.056999998
v -0.028522588 0.022808242 0.062010837
v -0.030721265 0.022808242 0.066576443
v -0.034167996 0.022808242 0.070291133
v -0.038556538 0.022808242 0.072824855
v -0.043496915 0.022808242 0.073952465
v -0.048550187 0.022808242 0.073573775
v -0.053267327 0.022808242 0.071722431
v -0.057229214 0.022808242 0.068562937
v -0.06008381 0.022808242 0.064376025
v -0.061577454 0.022808242 0.05953372
v -0.061577454 0.022808242 0.054466281
v -0.06008381 0.022808242 0.049623976
v -0.057229214 0.022808242 0.045437064
v -0.053267327 0.022808242 0.04227757
v -0.048550187 0.022808242 0.040426226
v -0.043496915 0.022808242 0.040047536
v -0.038556538 0.022808242 0.041175146
v -0.034167996 0.022808242 0.043708863
v -0.030721265 0.022808242 0.047423558
v -0.028522588 0.022808242 0.051989164
v -0.027767335 0.0088082408 0.056999998
v -0.028522588 0.0088082408 0.051989164
v -0.030721265 0.0088082408 0.047423558
v -0.034167996 0.0088082408 0.043708863
v -0.038556538 0.0088082408 0.041175146
v -0.043496915 0.0088082408 0.040047536
v -0.048550187 0.0088082408 0.040426226
v -0.053267327 0.0088082408 0.04227757
v -0.057229214 0.0088082408 0.045437064
v -0.06008381 0.0088082408 0.049623976
v -0.061577454 0.0088082408 0.054466281
v -0.061577454 0.0088082408 0.05953372
v -0.06008381 0.0088082408 0.064376025
v -0.057229214 0.0088082408 0.068562937
v -0.053267327 0.0088082408 0.071722431
v -0.048550187 0.0088082408 0.073573775
v -0.043496915 0.0088082408 0.073952465
v -0.038556538 0.0088082408 0.072824855
v -0.034167996 0.0088082408 0.070291133
v -0.030721265 0.0088082408 0.066576443
v -0.028522588 0.0088082408 0.062010837
v -0.061577454 0.022808242 0.054466281
v -0.061577454 0.0088082408 0.054466281
v -0.027767335 0.022808242 0.056999998
v -0.028522588 0.022808242 0.051989164
v -0.030721265 0.022808242 0.047423558
v -0.034167996 0.022808242 0.043708863
v -0.038556538 0.022808242 0.041175146
v -0.043496915 0.022808242 0.040047536
v -0.048550187 0.022808242 0.040426226
v -0.053267327 0.022808242 0.04227757
v -0.057229214 0.022808242 0.045437064
v -0.06008381 0.022808242 0.049623976
v -0.061577454 0.022808242 0.054466281
v -0.061577454 0.022808242 0.05953372
v -0.06008381 0.022808242 0.064376025
v -0.057229214 0.022808242 0.068562937
v -0.053267327 0.022808242 0.071722431
v -0.048550187 0.022808242 0.073573775
v -0.043496915 0.022808242 0.073952465
v -0.038556538 0.022808242 0.072824855
v -0.034167996 0.022808242 0.070291133
v -0.030721265 0.022808242 0.066576443
v -0.028522588 0.022808242 0.062010837
v -0.027767335 0.0088082408 0.056999998
v -0.028522588 0.0088082408 0.062010837
v -0.030721265 0.0088082408 0.066576443
v -0.034167996 0.0088082408 0.070291133
v -0.038556538 0.0088082408 0.072824855
v -0.043496915 0.0088082408 0.073952465
v -0.048550187 0.0088082408 0.073573775
v -0.053267327 0.0088082408 0.071722431
v -0.057229214 0.0088082408 0.068562937
v -0.06008381 0.0088082408 0.064376025
v -0.061577454 0.0088082408 0.05953372
v -0.061577454 0.0088082408 0.054466281
v -0.06008381 0.0088082408 0.049623976
v -0.057229214 0.0088082408 0.045437064
v -0.053267327 0.0088082408 0.04227757
v -0.048550187 0.0088082408 0.040426226
v -0.043496915 0.0088082408 0.040047536
v -0.038556538 0.0088082408 0.041175146
v -0.034167996 0.0088082408 0.043708863
v -0.030721265 0.0088082408 0.047423558
v -0.028522588 0.0088082408 0.051989164
f 26 46 25
f 25 46 47
f 25 47 45
f 45 47 48
f 45 48 44
f 44 48 49
f 44 49 43
f 43 49 50
f 43 50 42
f 42 50 51
f 42 51 41
f 41 51 52
f 41 52 40
f 40 52 53
f 40 53 39
f 39 53 54
f 39 54 38
f 38 54 55
f 38 55 37
f 37 55 68
f 37 68 36
f 67 56 57
f 67 57 35
f 35 57 58
f 35 58 34
f 34 58 59
f 34 59 33
f 33 59 60
f 33 60 32
f 32 60 61
f 32 61 31
f 31 61 62
f 31 62 30
f 30 62 63
f 30 63 29
f 29 63 64
f 29 64 28
f 28 64 65
f 28 65 27
f 27 65 66
f 27 66 26
f 26 66 46
f 89 69 75
f 75 69 70
f 75 70 71
f 71 72 75
f 75 72 73
f 75 73 74
f 76 84 75
f 75 84 85
f 75 85 86
f 84 76 83
f 83 76 77
f 83 77 82
f 82 77 78
f 82 78 81
f 81 78 79
f 81 79 80
f 86 87 75
f 75 87 88
f 75 88 89
f 110 90 105
f 105 90 91
f 105 91 92
f 92 93 105
f 105 93 94
f 105 94 95
f 95 96 105
f 105 96 104
f 104 96 97
f 104 97 103
f 103 97 98
f 103 98 102
f 102 98 99
f 102 99 101
f 101 99 100
f 106 107 105
f 105 107 108
f 105 108 109
f 109 110 105
v -0.13456733 0.028808241 0.068000002
v -0.13456733 0.031808241 0.068000002
v -0.14756733 0.031808241 0.068000002
v -0.14756733 0.028808241 0.068000002
v -0.13456733 0.031808241 0.068000002
v -0.13456733 0.031808241 0.045999999
v -0.14756733 0.031808241 0.045999999
v -0.14756733 0.031808241 0.068000002
v -0.14756733 0.031808241 0.068000002
v -0.14756733 0.031808241 0.045999999
v -0.14756733 0.028808241 0.045999999
v -0.14756733 0.028808241 0.068000002
v -0.13456733 0.028808241 0.068000002
v -0.13456733 0.028808241 0.045999999
v -0.13456733 0.031808241 0.045999999
v -0.13456733 0.031808241 0.068000002
v -0.14756733 0.028808241 0.068000002
v -0.14756733 0.028808241 0.045999999
v -0.13456733 0.028808241 0.045999999
v -0.13456733 0.028808241 0.068000002
v -0.13456733 0.031808241 0.045999999
v -0.13456733 0.028808241 0.045999999
v -0.14756733 0.028808241 0.045999999
v -0.14756733 0.031808241 0.045999999
f 112 113 111
f 111 113 114
f 115 116 118
f 118 116 117
f 119 120 122
f 122 120 121
f 123 124 126
f 126 124 125
f 127 128 130
f 130 128 129
f 132 133 131
f 131 133 134
