v -0.18656733 0.047808242 0.0127
v -0.18656733 0.072808242 0.0127
v -0.20456733 0.072808242 0.0127
v -0.20456733 0.047808242 0.0127
v -0.18656733 0.072808242 0
v -0.18656733 0.047808242 0
v -0.20456733 0.047808242 0
v -0.20456733 0.072808242 0
v -0.18656733 0.047808242 0.0127
v -0.18656733 0.047808242 0
v -0.18656733 0.072808242 0
v -0.18656733 0.072808242 0.0127
v -0.18656733 0.072808242 0.0127
v -0.18656733 0.072808242 0
v -0.20456733 0.072808242 0
v -0.20456733 0.072808242 0.0127
v -0.20456733 0.047808242 0.0127
v -0.20456733 0.047808242 0
v -0.18656733 0.047808242 0
v -0.18656733 0.047808242 0.0127
v -0.20456733 0.072808242 0.0127
v -0.20456733 0.072808242 0
v -0.20456733 0.047808242 0
v -0.20456733 0.047808242 0.0127
f 2 3 1
f 1 3 4
f 6 7 5
f 5 7 8
f 9 10 12
f 12 10 11
f 13 14 16
f 16 14 15
f 17 18 20
f 20 18 19
f 21 22 24
f 24 22 23
v -0.18656733 0.28495825 0.0127
v -0.18656733 0.30995825 0.0127
v -0.20456733 0.30995825 0.0127
v -0.20456733 0.28495825 0.0127
v -0.18656733 0.28495825 0.0127
v -0.18656733 0.28495825 0
v -0.18656733 0.30995825 0
v -0.18656733 0.30995825 0.0127
v -0.18656733 0.30995825 0.0127
v -0.18656733 0.30995825 0
v -0.20456733 0.30995825 0
v -0.20456733 0.30995825 0.0127
v -0.18656733 0.30995825 0
v -0.18656733 0.28495825 0
v -0.20456733 0.28495825 0
v -0.20456733 0.30995825 0
v -0.20456733 0.30995825 0.0127
v -0.20456733 0.30995825 0
v -0.20456733 0.28495825 0
v -0.20456733 0.28495825 0.0127
v -0.20456733 0.28495825 0.0127
v -0.20456733 0.28495825 0
v -0.18656733 0.28495825 0
v -0.18656733 0.28495825 0.0127
f 26 27 25
f 25 27 28
f 29 30 32
f 32 30 31
f 33 34 36
f 36 34 35
f 38 39 37
f 37 39 40
f 41 42 44
f 44 42 43
f 45 46 48
f 48 46 47
v 0.11503265 0.047808242 0.0127
v 0.11503265 0.072808242 0.0127
v 0.097032661 0.072808242 0.0127
v 0.097032661 0.047808242 0.0127
v 0.11503265 0.072808242 0
v 0.11503265 0.047808242 0
v 0.097032661 0.047808242 0
v 0.097032661 0.072808242 0
v 0.11503265 0.047808242 0.0127
v 0.11503265 0.047808242 0
v 0.11503265 0.072808242 0
v 0.11503265 0.072808242 0.0127
v 0.097032661 0.047808242 0.0127
v 0.097032661 0.047808242 0
v 0.11503265 0.047808242 0
v 0.11503265 0.047808242 0.0127
v 0.11503265 0.072808242 0.0127
v 0.11503265 0.072808242 0
v 0.097032661 0.072808242 0
v 0.097032661 0.072808242 0.0127
v 0.097032661 0.072808242 0.0127
v 0.097032661 0.072808242 0
v 0.097032661 0.047808242 0
v 0.097032661 0.047808242 0.0127
f 50 51 49
f 49 51 52
f 54 55 53
f 53 55 56
f 57 58 60
f 60 58 59
f 61 62 64
f 64 62 63
f 65 66 68
f 68 66 67
f 69 70 72
f 72 70 71
v 0.11503265 0.28495825 0.0127
v 0.11503265 0.30995825 0.0127
v 0.097032661 0.30995825 0.0127
v 0.097032661 0.28495825 0.0127
v 0.097032661 0.30995825 0.0127
v 0.097032661 0.30995825 0
v 0.097032661 0.28495825 0
v 0.097032661 0.28495825 0.0127
v 0.097032661 0.28495825 0.0127
v 0.097032661 0.28495825 0
v 0.11503265 0.28495825 0
v 0.11503265 0.28495825 0.0127
v 0.11503265 0.30995825 0
v 0.11503265 0.28495825 0
v 0.097032661 0.28495825 0
v 0.097032661 0.30995825 0
v 0.11503265 0.28495825 0.0127
v 0.11503265 0.28495825 0
v 0.11503265 0.30995825 0
v 0.11503265 0.30995825 0.0127
v 0.11503265 0.30995825 0.0127
v 0.11503265 0.30995825 0
v 0.097032661 0.30995825 0
v 0.097032661 0.30995825 0.0127
f 74 75 73
f 73 75 76
f 77 78 80
f 80 78 79
f 81 82 84
f 84 82 83
f 86 87 85
f 85 87 88
f 89 90 92
f 92 90 91
f 93 94 96
f 96 94 95
