v -0.0078870521 -0.021496166 0.1397
v -0.0088718598 -0.021669814 0.1397
v 0.045097991 -0.32774805 0.1397
v 0.046082799 -0.3275744 0.1397
v -0.0078870521 -0.021496166 0.1397
v -0.0078870521 -0.021496166 0.1367
v -0.0088718598 -0.021669814 0.1367
v -0.0088718598 -0.021669814 0.1397
v 0.046082799 -0.3275744 0.1397
v 0.046082799 -0.3275744 0.1367
v -0.0078870521 -0.021496166 0.1367
v -0.0078870521 -0.021496166 0.1397
v -0.0088718598 -0.021669814 0.1367
v -0.0078870521 -0.021496166 0.1367
v 0.046082799 -0.3275744 0.1367
v 0.045097991 -0.32774805 0.1367
v 0.045097991 -0.32774805 0.1397
v 0.045097991 -0.32774805 0.1367
v 0.046082799 -0.3275744 0.1367
v 0.046082799 -0.3275744 0.1397
v -0.0088718598 -0.021669814 0.1397
v -0.0088718598 -0.021669814 0.1367
v 0.045097991 -0.32774805 0.1367
v 0.045097991 -0.32774805 0.1397
f 2 3 1
f 1 3 4
f 5 6 8
f 8 6 7
f 9 10 12
f 12 10 11
f 14 15 13
f 13 15 16
f 17 18 20
f 20 18 19
f 21 22 24
f 24 22 23
v -0.0078870521 -0.021496166 0.39669998
v -0.0088718598 -0.021669814 0.39669998
v 0.045097991 -0.32774805 0.39669998
v 0.046082799 -0.3275744 0.39669998
v -0.0088718598 -0.021669814 0.39369999
v -0.0078870521 -0.021496166 0.39369999
v 0.046082799 -0.3275744 0.39369999
v 0.045097991 -0.32774805 0.39369999
v -0.0088718598 -0.021669814 0.39669998
v -0.0088718598 -0.021669814 0.39369999
v 0.045097991 -0.32774805 0.39369999
v 0.045097991 -0.32774805 0.39669998
v 0.045097991 -0.32774805 0.39669998
v 0.045097991 -0.32774805 0.39369999
v 0.046082799 -0.3275744 0.39369999
v 0.046082799 -0.3275744 0.39669998
v 0.046082799 -0.3275744 0.39669998
v 0.046082799 -0.3275744 0.39369999
v -0.0078870521 -0.021496166 0.39369999
v -0.0078870521 -0.021496166 0.39669998
v -0.0078870521 -0.021496166 0.39669998
v -0.0078870521 -0.021496166 0.39369999
v -0.0088718598 -0.021669814 0.39369999
v -0.0088718598 -0.021669814 0.39669998
f 26 27 25
f 25 27 28
f 30 31 29
f 29 31 32
f 33 34 36
f 36 34 35
f 37 38 40
f 40 38 39
f 41 42 44
f 44 42 43
f 45 46 48
f 48 46 47
v 0.045561854 -0.32461997 0.39369999
v 0.044577046 -0.32479362 0.39369999
v 0.045097991 -0.32774805 0.39369999
v 0.046082799 -0.3275744 0.39369999
v 0.046082799 -0.3275744 0.39369999
v 0.046082799 -0.3275744 0.1397
v 0.045561854 -0.32461997 0.1397
v 0.045561854 -0.32461997 0.39369999
v 0.045097991 -0.32774805 0.39369999
v 0.045097991 -0.32774805 0.1397
v 0.046082799 -0.3275744 0.1397
v 0.046082799 -0.3275744 0.39369999
v 0.044577046 -0.32479362 0.1397
v 0.045561854 -0.32461997 0.1397
v 0.046082799 -0.3275744 0.1397
v 0.045097991 -0.32774805 0.1397
v 0.044577046 -0.32479362 0.39369999
v 0.044577046 -0.32479362 0.1397
v 0.045097991 -0.32774805 0.1397
v 0.045097991 -0.32774805 0.39369999
v 0.045561854 -0.32461997 0.39369999
v 0.045561854 -0.32461997 0.1397
v 0.044577046 -0.32479362 0.1397
v 0.044577046 -0.32479362 0.39369999
f 50 51 49
f 49 51 52
f 53 54 56
f 56 54 55
f 57 58 60
f 60 58 59
f 62 63 61
f 61 63 64
f 65 66 68
f 68 66 67
f 69 70 72
f 72 70 71
v -0.0078870521 -0.021496166 0.39369999
v -0.0088718598 -0.021669814 0.39369999
v -0.0083509165 -0.024624229 0.39369999
v -0.0073661089 -0.024450581 0.39369999
v -0.0088718598 -0.021669814 0.1397
v -0.0078870521 -0.021496166 0.1397
v -0.0073661089 -0.024450581 0.1397
v -0.0083509165 -0.024624229 0.1397
v -0.0073661089 -0.024450581 0.39369999
v -0.0073661089 -0.024450581 0.1397
v -0.0078870521 -0.021496166 0.1397
v -0.0078870521 -0.021496166 0.39369999
v -0.0083509165 -0.024624229 0.39369999
v -0.0083509165 -0.024624229 0.1397
v -0.0073661089 -0.024450581 0.1397
v -0.0073661089 -0.024450581 0.39369999
v -0.0088718598 -0.021669814 0.39369999
v -0.0088718598 -0.021669814 0.1397
v -0.0083509165 -0.024624229 0.1397
v -0.0083509165 -0.024624229 0.39369999
v -0.0078870521 -0.021496166 0.39369999
v -0.0078870521 -0.021496166 0.1397
v -0.0088718598 -0.021669814 0.1397
v -0.0088718598 -0.021669814 0.39369999
f 74 75 73
f 73 75 76
f 78 79 77
f 77 79 80
f 81 82 84
f 84 82 83
f 85 86 88
f 88 86 87
f 89 90 92
f 92 90 91
f 93 94 96
f 96 94 95
