v -0.007511215 -0.026507028 0.3927
v -0.0089884267 -0.026767501 0.3927
v 0.043592238 -0.32496727 0.3927
v 0.04506945 -0.3247068 0.3927
v 0.043592238 -0.32496727 0.3927
v 0.043592238 -0.32496727 0.1407
v 0.04506945 -0.3247068 0.1407
v 0.04506945 -0.3247068 0.3927
v -0.0089884267 -0.026767501 0.3927
v -0.0089884267 -0.026767501 0.1407
v 0.043592238 -0.32496727 0.1407
v 0.043592238 -0.32496727 0.3927
v -0.007511215 -0.026507028 0.3927
v -0.007511215 -0.026507028 0.1407
v -0.0089884267 -0.026767501 0.1407
v -0.0089884267 -0.026767501 0.3927
v 0.04506945 -0.3247068 0.3927
v 0.04506945 -0.3247068 0.1407
v -0.007511215 -0.026507028 0.1407
v -0.007511215 -0.026507028 0.3927
v -0.0089884267 -0.026767501 0.1407
v -0.007511215 -0.026507028 0.1407
v 0.04506945 -0.3247068 0.1407
v 0.043592238 -0.32496727 0.1407
f 2 3 1
f 1 3 4
f 5 6 8
f 8 6 7
f 9 10 12
f 12 10 11
f 13 14 16
f 16 14 15
f 17 18 20
f 20 18 19
f 22 23 21
f 21 23 24
v 0.0088632667 0.0015628485 0.1965
v 0.0088632667 0.0015628485 0.1785
v -2.8844574e-09 1.4985573e-08 0.1785
v -2.8844574e-09 1.4985573e-08 0.1965
v -2.8844574e-09 1.4985573e-08 0.1785
v 0.0088632667 0.0015628485 0.1785
v 0.012509882 -0.019118137 0.1785
v 0.0036466128 -0.02068097 0.1785
v 0.0036466128 -0.02068097 0.1965
v 0.0036466128 -0.02068097 0.1785
v 0.012509882 -0.019118137 0.1785
v 0.012509882 -0.019118137 0.1965
v 0.0088632667 0.0015628485 0.1965
v -2.8844574e-09 1.4985573e-08 0.1965
v 0.0036466128 -0.02068097 0.1965
v 0.012509882 -0.019118137 0.1965
v -2.8844574e-09 1.4985573e-08 0.1965
v -2.8844574e-09 1.4985573e-08 0.1785
v 0.0036466128 -0.02068097 0.1785
v 0.0036466128 -0.02068097 0.1965
v 0.012509882 -0.019118137 0.1965
v 0.012509882 -0.019118137 0.1785
v 0.0088632667 0.0015628485 0.1785
v 0.0088632667 0.0015628485 0.1965
f 25 26 28
f 28 26 27
f 30 31 29
f 29 31 32
f 33 34 36
f 36 34 35
f 38 39 37
f 37 39 40
f 41 42 44
f 44 42 43
f 45 46 48
f 48 46 47
v 0.012509882 -0.019118137 0.38849998
v 0.012509882 -0.019118137 0.37049999
v 0.0088632667 0.0015628485 0.37049999
v 0.0088632667 0.0015628485 0.38849998
v -2.8844574e-09 1.4985573e-08 0.38849998
v -2.8844574e-09 1.4985573e-08 0.37049999
v 0.0036466128 -0.02068097 0.37049999
v 0.0036466128 -0.02068097 0.38849998
v 0.0036466128 -0.02068097 0.38849998
v 0.0036466128 -0.02068097 0.37049999
v 0.012509882 -0.019118137 0.37049999
v 0.012509882 -0.019118137 0.38849998
v 0.0088632667 0.0015628485 0.38849998
v 0.0088632667 0.0015628485 0.37049999
v -2.8844574e-09 1.4985573e-08 0.37049999
v -2.8844574e-09 1.4985573e-08 0.38849998
v -2.8844574e-09 1.4985573e-08 0.37049999
v 0.0088632667 0.0015628485 0.37049999
v 0.012509882 -0.019118137 0.37049999
v 0.0036466128 -0.02068097 0.37049999
v 0.0088632667 0.0015628485 0.38849998
v -2.8844574e-09 1.4985573e-08 0.38849998
v 0.0036466128 -0.02068097 0.38849998
v 0.012509882 -0.019118137 0.38849998
f 49 50 52
f 52 50 51
f 53 54 56
f 56 54 55
f 57 58 60
f 60 58 59
f 61 62 64
f 64 62 63
f 66 67 65
f 65 67 68
f 70 71 69
f 69 71 72
