v -0.57609646 -0.33751001 0.62820023
v -0.577742 -0.33751001 0.62580036
v -0.577742 -0.33766001 0.62580036
v -0.57609646 -0.33766001 0.62820023
v -0.57069548 -0.33751001 0.57452194
v -0.57230618 -0.33751001 0.5765789
v -0.57230618 -0.33766001 0.5765789
v -0.57069548 -0.33766001 0.57452194
v -0.55283247 -0.33751001 0.55712902
v -0.55003101 -0.33751001 0.55634224
v -0.55003101 -0.33766001 0.55634224
v -0.55283247 -0.33766001 0.55712902
v -0.57631548 -0.33751001 0.61869873
v -0.5751218 -0.33751001 0.62102264
v -0.5751218 -0.33766001 0.62102264
v -0.57631548 -0.33766001 0.61869873
v -0.58463223 -0.33751001 0.60680515
v -0.58490797 -0.33751001 0.60390839
v -0.58490797 -0.33766001 0.60390839
v -0.58463223 -0.33766001 0.60680515
v -0.58463223 -0.33751001 0.59519485
v -0.58417389 -0.33751001 0.59232132
v -0.58417389 -0.33766001 0.59232132
v -0.58463223 -0.33766001 0.59519485
v -0.585 -0.33751001 0.60099998
v -0.58490797 -0.33751001 0.59809162
v -0.58490797 -0.33766001 0.59809162
v -0.585 -0.33766001 0.60099998
v -0.58172523 -0.33751001 0.61804565
v -0.58271749 -0.33751001 0.61531021
v -0.58271749 -0.33766001 0.61531021
v -0.58172523 -0.33766001 0.61804565
v -0.52089527 -0.33751001 0.56387981
v -0.52327846 -0.33751001 0.56280937
v -0.52327846 -0.33766001 0.56280937
v -0.52089527 -0.33766001 0.56387981
v -0.56810446 -0.33751001 0.56537792
v -0.56579397 -0.33751001 0.56360905
v -0.56579397 -0.33766001 0.56360905
v -0.56810446 -0.33766001 0.56537792
v -0.56710056 -0.33751001 0.57073372
v -0.56895796 -0.33751001 0.57257095
v -0.56895796 -0.33766001 0.57257095
v -0.56710056 -0.33766001 0.57073372
v -0.56810446 -0.33751001 0.63662205
v -0.57029846 -0.33751001 0.63471062
v -0.57029846 -0.33766001 0.63471062
v -0.56810446 -0.33766001 0.63662205
v -0.58353479 -0.33751001 0.58948254
v -0.58271749 -0.33751001 0.5866898
v -0.58271749 -0.33766001 0.5866898
v -0.58353479 -0.33766001 0.58948254
v -0.51626122 -0.33751001 0.56101315
v -0.51377851 -0.33751001 0.56253082
v -0.51377851 -0.33766001 0.56253082
v -0.51626122 -0.33766001 0.56101315
v -0.57825069 -0.33751001 0.61384808
v -0.57735983 -0.33751001 0.61630402
v -0.57735983 -0.33766001 0.61630402
v -0.57825069 -0.33766001 0.61384808
v -0.57236723 -0.33751001 0.56933567
v -0.57029846 -0.33751001 0.56728935
v -0.57029846 -0.33766001 0.56728935
v -0.57236723 -0.33766001 0.56933567
v -0.57898451 -0.33751001 0.59065929
v -0.5795583 -0.33751001 0.59320805
v -0.5795583 -0.33766001 0.59320805
v -0.57898451 -0.33766001 0.59065929
v -0.56086105 -0.33751001 0.64147339
v -0.56337629 -0.33751001 0.64001022
v -0.56337629 -0.33766001 0.64001022
v -0.56086105 -0.33766001 0.64147339
v -0.5069736 -0.33751001 0.56798016
v -0.50494997 -0.33751001 0.57007114
v -0.50494997 -0.33766001 0.57007114
v -0.5069736 -0.33766001 0.56798016
v -0.50131901 -0.33751001 0.57461548
v -0.50516902 -0.33751001 0.57731129
v -0.50516902 -0.33766001 0.57731129
v -0.50131901 -0.33766001 0.57461548
v -0.55825834 -0.33751001 0.55922543
v -0.55557858 -0.33751001 0.55809135
v -0.55557858 -0.33766001 0.55809135
v -0.55825834 -0.33766001 0.55922543
v -0.58271749 -0.33751001 0.5866898
v -0.58172523 -0.33751001 0.58395435
v -0.58172523 -0.33766001 0.58395435
v -0.58271749 -0.33766001 0.5866898
v -0.58490797 -0.33751001 0.59809162
v -0.58463223 -0.33751001 0.59519485
v -0.58463223 -0.33766001 0.59519485
v -0.58490797 -0.33766001 0.59809162
v -0.55003101 -0.33751001 0.55634224
v -0.5471854 -0.33751001 0.55573414
v -0.5471854 -0.33766001 0.55573414
v -0.55003101 -0.33766001 0.55634224
v -0.57430246 -0.33751001 0.57150871
v -0.57236723 -0.33751001 0.56933567
v -0.57236723 -0.33766001 0.56933567
v -0.57430246 -0.33766001 0.57150871
v -0.51024587 -0.33751001 0.57135391
v -0.5121778 -0.33751001 0.56959522
v -0.5121778 -0.33766001 0.56959522
v -0.51024587 -0.33766001 0.57135391
v -0.54634907 -0.33751001 0.56035912
v -0.54890392 -0.33751001 0.56090508
v -0.54890392 -0.33766001 0.56090508
v -0.54634907 -0.33766001 0.56035912
v -0.58271749 -0.33751001 0.61531021
v -0.58353479 -0.33751001 0.61251747
v -0.58353479 -0.33766001 0.61251747
v -0.58271749 -0.33766001 0.61531021
v -0.57609646 -0.33751001 0.57379974
v -0.57430246 -0.33751001 0.57150871
v -0.57430246 -0.33766001 0.57150871
v -0.57609646 -0.33766001 0.57379974
v -0.56088568 -0.33751001 0.56597561
v -0.56305634 -0.33751001 0.56742943
v -0.56305634 -0.33766001 0.56742943
v -0.56088568 -0.33766001 0.56597561
v -0.58021738 -0.33751001 0.60361122
v -0.57996981 -0.33751001 0.60621201
v -0.57996981 -0.33766001 0.60621201
v -0.58021738 -0.33766001 0.60361122
v -0.57825069 -0.33751001 0.58815193
v -0.57898451 -0.33751001 0.59065929
v -0.57898451 -0.33766001 0.59065929
v -0.57825069 -0.33766001 0.58815193
v -0.54116148 -0.33751001 0.55975658
v -0.5437648 -0.33751001 0.55997578
v -0.5437648 -0.33766001 0.55997578
v -0.54116148 -0.33766001 0.55975658
v -0.54890392 -0.33751001 0.56090508
v -0.55141916 -0.33751001 0.56161148
v -0.55141916 -0.33766001 0.56161148
v -0.54890392 -0.33766001 0.56090508
v -0.58490797 -0.33751001 0.60390839
v -0.585 -0.33751001 0.60099998
v -0.585 -0.33766001 0.60099998
v -0.58490797 -0.33766001 0.60390839
v -0.55825834 -0.33751001 0.64277458
v -0.56086105 -0.33751001 0.64147339
v -0.56086105 -0.33766001 0.64147339
v -0.55825834 -0.33766001 0.64277458
v -0.58417389 -0.33751001 0.60967869
v -0.58463223 -0.33751001 0.60680515
v -0.58463223 -0.33766001 0.60680515
v -0.58417389 -0.33766001 0.60967869
v -0.50673446 -0.33751001 0.57521969
v -0.50842899 -0.33751001 0.57323124
v -0.50842899 -0.33766001 0.57323124
v -0.50673446 -0.33766001 0.57521969
v -0.56579397 -0.33751001 0.56360905
v -0.56337629 -0.33751001 0.56198978
v -0.56337629 -0.33766001 0.56198978
v -0.56579397 -0.33766001 0.56360905
v -0.58417389 -0.33751001 0.59232132
v -0.58353479 -0.33751001 0.58948254
v -0.58353479 -0.33766001 0.58948254
v -0.58417389 -0.33766001 0.59232132
v -0.50306259 -0.33751001 0.57228584
v -0.50131901 -0.33751001 0.57461548
v -0.50131901 -0.33766001 0.57461548
v -0.50306259 -0.33766001 0.57228584
v -0.54430704 -0.33751001 0.55530716
v -0.54140745 -0.33751001 0.55506306
v -0.54140745 -0.33766001 0.55506306
v -0.54430704 -0.33766001 0.55530716
v -0.56579397 -0.33751001 0.63839096
v -0.56810446 -0.33751001 0.63662205
v -0.56810446 -0.33766001 0.63662205
v -0.56579397 -0.33766001 0.63839096
v -0.57230618 -0.33751001 0.5765789
v -0.57378357 -0.33751001 0.5787336
v -0.57378357 -0.33766001 0.5787336
v -0.57230618 -0.33766001 0.5765789
v -0.5121778 -0.33751001 0.56959522
v -0.51421706 -0.33751001 0.56796219
v -0.51421706 -0.33766001 0.56796219
v -0.5121778 -0.33766001 0.56959522
v -0.5385495 -0.33751001 0.55970245
v -0.54116148 -0.33751001 0.55975658
v -0.54116148 -0.33766001 0.55975658
v -0.5385495 -0.33766001 0.55970245
v -0.577742 -0.33751001 0.62580036
v -0.5792325 -0.33751001 0.62330124
v -0.5792325 -0.33766001 0.62330124
v -0.577742 -0.33766001 0.62580036
v -0.52572455 -0.33751001 0.56189178
v -0.52822377 -0.33751001 0.56113068
v -0.52822377 -0.33766001 0.56113068
v -0.52572455 -0.33766001 0.56189178
v -0.51858454 -0.33751001 0.56509876
v -0.52089527 -0.33751001 0.56387981
v -0.52089527 -0.33766001 0.56387981
v -0.51858454 -0.33766001 0.56509876
v -0.57631548 -0.33751001 0.58330128
v -0.57735983 -0.33751001 0.58569599
v -0.57735983 -0.33766001 0.58569599
v -0.57631548 -0.33766001 0.58330128
v -0.56305634 -0.33751001 0.56742943
v -0.56513073 -0.33751001 0.5690176
v -0.56513073 -0.33766001 0.5690176
v -0.56305634 -0.33766001 0.56742943
v -0.53559101 -0.33751001 0.5551265
v -0.53269744 -0.33751001 0.55543381
v -0.53269744 -0.33766001 0.55543381
v -0.53559101 -0.33766001 0.5551265
v -0.58172523 -0.33751001 0.58395435
v -0.58056204 -0.33751001 0.58128712
v -0.58056204 -0.33766001 0.58128712
v -0.58172523 -0.33766001 0.58395435
v -0.55862743 -0.33751001 0.56466194
v -0.56088568 -0.33751001 0.56597561
v -0.56088568 -0.33766001 0.56597561
v -0.55862743 -0.33766001 0.56466194
v -0.5792325 -0.33751001 0.62330124
v -0.58056204 -0.33751001 0.62071289
v -0.58056204 -0.33766001 0.62071289
v -0.5792325 -0.33766001 0.62330124
v -0.54140745 -0.33751001 0.55506306
v -0.53849823 -0.33751001 0.55500275
v -0.53849823 -0.33766001 0.55500275
v -0.54140745 -0.33766001 0.55506306
v -0.57236723 -0.33751001 0.6326643
v -0.57430246 -0.33751001 0.63049129
v -0.57430246 -0.33766001 0.63049129
v -0.57236723 -0.33766001 0.6326643
v -0.55629065 -0.33751001 0.56349369
v -0.55862743 -0.33751001 0.56466194
v -0.55862743 -0.33766001 0.56466194
v -0.55629065 -0.33766001 0.56349369
v -0.56895796 -0.33751001 0.57257095
v -0.57069548 -0.33751001 0.57452194
v -0.57069548 -0.33766001 0.57452194
v -0.56895796 -0.33766001 0.57257095
v -0.57735983 -0.33751001 0.61630402
v -0.57631548 -0.33751001 0.61869873
v -0.57631548 -0.33766001 0.61869873
v -0.57735983 -0.33766001 0.61630402
v -0.58353479 -0.33751001 0.61251747
v -0.58417389 -0.33751001 0.60967869
v -0.58417389 -0.33766001 0.60967869
v -0.58353479 -0.33766001 0.61251747
v -0.52148932 -0.33751001 0.55846325
v -0.51883493 -0.33751001 0.55965546
v -0.51883493 -0.33766001 0.55965546
v -0.52148932 -0.33766001 0.55846325
v -0.50912539 -0.33751001 0.56602131
v -0.5069736 -0.33751001 0.56798016
v -0.5069736 -0.33766001 0.56798016
v -0.50912539 -0.33766001 0.56602131
v -0.56337629 -0.33751001 0.56198978
v -0.56086105 -0.33751001 0.56052662
v -0.56086105 -0.33766001 0.56052662
v -0.56337629 -0.33766001 0.56198978
v -0.53269744 -0.33751001 0.55543381
v -0.52982908 -0.33751001 0.55592346
v -0.52982908 -0.33766001 0.55592346
v -0.53269744 -0.33766001 0.55543381
v -0.52982908 -0.33751001 0.55592346
v -0.52699742 -0.33751001 0.55659348
v -0.52699742 -0.33766001 0.55659348
v -0.52982908 -0.33766001 0.55592346
v -0.57029846 -0.33751001 0.56728935
v -0.56810446 -0.33751001 0.56537792
v -0.56810446 -0.33766001 0.56537792
v -0.57029846 -0.33766001 0.56728935
v -0.5437648 -0.33751001 0.55997578
v -0.54634907 -0.33751001 0.56035912
v -0.54634907 -0.33766001 0.56035912
v -0.5437648 -0.33766001 0.55997578
v -0.55557858 -0.33751001 0.55809135
v -0.55283247 -0.33751001 0.55712902
v -0.55283247 -0.33766001 0.55712902
v -0.55557858 -0.33766001 0.55809135
v -0.58056204 -0.33751001 0.58128712
v -0.5792325 -0.33751001 0.57869877
v -0.5792325 -0.33766001 0.57869877
v -0.58056204 -0.33766001 0.58128712
v -0.5333414 -0.33751001 0.56008949
v -0.53593932 -0.33751001 0.55981358
v -0.53593932 -0.33766001 0.55981358
v -0.5333414 -0.33766001 0.56008949
v -0.58021738 -0.33751001 0.59838875
v -0.58030001 -0.33751001 0.60099998
v -0.58030001 -0.33766001 0.60099998
v -0.58021738 -0.33766001 0.59838875
v -0.57898451 -0.33751001 0.61134068
v -0.57825069 -0.33751001 0.61384808
v -0.57825069 -0.33766001 0.61384808
v -0.57898451 -0.33766001 0.61134068
v -0.57735983 -0.33751001 0.58569599
v -0.57825069 -0.33751001 0.58815193
v -0.57825069 -0.33766001 0.58815193
v -0.57735983 -0.33766001 0.58569599
v -0.50842899 -0.33751001 0.57323124
v -0.51024587 -0.33751001 0.57135391
v -0.51024587 -0.33766001 0.57135391
v -0.50842899 -0.33766001 0.57323124
v -0.52421379 -0.33751001 0.55744122
v -0.52148932 -0.33751001 0.55846325
v -0.52148932 -0.33766001 0.55846325
v -0.52421379 -0.33766001 0.55744122
v -0.57430246 -0.33751001 0.63049129
v -0.57609646 -0.33751001 0.62820023
v -0.57609646 -0.33766001 0.62820023
v -0.57430246 -0.33766001 0.63049129
v -0.53593932 -0.33751001 0.55981358
v -0.5385495 -0.33751001 0.55970245
v -0.5385495 -0.33766001 0.55970245
v -0.53593932 -0.33766001 0.55981358
v -0.5751218 -0.33751001 0.58097736
v -0.57631548 -0.33751001 0.58330128
v -0.57631548 -0.33766001 0.58330128
v -0.5751218 -0.33766001 0.58097736
v -0.5163555 -0.33751001 0.56646137
v -0.51858454 -0.33751001 0.56509876
v -0.51858454 -0.33766001 0.56509876
v -0.5163555 -0.33766001 0.56646137
v -0.55141916 -0.33751001 0.56161148
v -0.55388468 -0.33751001 0.56247551
v -0.55388468 -0.33766001 0.56247551
v -0.55141916 -0.33766001 0.56161148
v -0.53849823 -0.33751001 0.55500275
v -0.53559101 -0.33751001 0.5551265
v -0.53559101 -0.33766001 0.5551265
v -0.53849823 -0.33766001 0.55500275
v -0.58056204 -0.33751001 0.62071289
v -0.58172523 -0.33751001 0.61804565
v -0.58172523 -0.33766001 0.61804565
v -0.58056204 -0.33766001 0.62071289
v -0.57996981 -0.33751001 0.59578796
v -0.58021738 -0.33751001 0.59838875
v -0.58021738 -0.33766001 0.59838875
v -0.57996981 -0.33766001 0.59578796
v -0.58030001 -0.33751001 0.60099998
v -0.58021738 -0.33751001 0.60361122
v -0.58021738 -0.33766001 0.60361122
v -0.58030001 -0.33766001 0.60099998
v -0.51883493 -0.33751001 0.55965546
v -0.51626122 -0.33751001 0.56101315
v -0.51626122 -0.33766001 0.56101315
v -0.51883493 -0.33766001 0.55965546
v -0.52699742 -0.33751001 0.55659348
v -0.52421379 -0.33751001 0.55744122
v -0.52421379 -0.33766001 0.55744122
v -0.52699742 -0.33766001 0.55659348
v -0.56086105 -0.33751001 0.56052662
v -0.55825834 -0.33751001 0.55922543
v -0.55825834 -0.33766001 0.55922543
v -0.56086105 -0.33766001 0.56052662
v -0.53076611 -0.33751001 0.5605291
v -0.5333414 -0.33751001 0.56008949
v -0.5333414 -0.33766001 0.56008949
v -0.53076611 -0.33766001 0.5605291
v -0.56337629 -0.33751001 0.64001022
v -0.56579397 -0.33751001 0.63839096
v -0.56579397 -0.33766001 0.63839096
v -0.56337629 -0.33766001 0.64001022
v -0.51377851 -0.33751001 0.56253082
v -0.51139672 -0.33751001 0.56420246
v -0.51139672 -0.33766001 0.56420246
v -0.51377851 -0.33766001 0.56253082
v -0.5795583 -0.33751001 0.59320805
v -0.57996981 -0.33751001 0.59578796
v -0.57996981 -0.33766001 0.59578796
v -0.5795583 -0.33766001 0.59320805
v -0.57996981 -0.33751001 0.60621201
v -0.5795583 -0.33751001 0.60879196
v -0.5795583 -0.33766001 0.60879196
v -0.57996981 -0.33766001 0.60621201
v -0.50516902 -0.33751001 0.57731129
v -0.50673446 -0.33751001 0.57521969
v -0.50673446 -0.33766001 0.57521969
v -0.50516902 -0.33766001 0.57731129
v -0.51421706 -0.33751001 0.56796219
v -0.5163555 -0.33751001 0.56646137
v -0.5163555 -0.33766001 0.56646137
v -0.51421706 -0.33766001 0.56796219
v -0.51139672 -0.33751001 0.56420246
v -0.50912539 -0.33751001 0.56602131
v -0.50912539 -0.33766001 0.56602131
v -0.51139672 -0.33766001 0.56420246
v -0.5751218 -0.33751001 0.62102264
v -0.57378357 -0.33751001 0.62326641
v -0.57378357 -0.33766001 0.62326641
v -0.5751218 -0.33766001 0.62102264
v -0.5792325 -0.33751001 0.57869877
v -0.577742 -0.33751001 0.57619965
v -0.577742 -0.33766001 0.57619965
v -0.5792325 -0.33766001 0.57869877
v -0.57029846 -0.33751001 0.63471062
v -0.57236723 -0.33751001 0.6326643
v -0.57236723 -0.33766001 0.6326643
v -0.57029846 -0.33766001 0.63471062
v -0.57378357 -0.33751001 0.5787336
v -0.5751218 -0.33751001 0.58097736
v -0.5751218 -0.33766001 0.58097736
v -0.57378357 -0.33766001 0.5787336
v -0.5471854 -0.33751001 0.55573414
v -0.54430704 -0.33751001 0.55530716
v -0.54430704 -0.33766001 0.55530716
v -0.5471854 -0.33766001 0.55573414
v -0.5795583 -0.33751001 0.60879196
v -0.57898451 -0.33751001 0.61134068
v -0.57898451 -0.33766001 0.61134068
v -0.5795583 -0.33766001 0.60879196
v -0.52327846 -0.33751001 0.56280937
v -0.52572455 -0.33751001 0.56189178
v -0.52572455 -0.33766001 0.56189178
v -0.52327846 -0.33766001 0.56280937
v -0.52822377 -0.33751001 0.56113068
v -0.53076611 -0.33751001 0.5605291
v -0.53076611 -0.33766001 0.5605291
v -0.52822377 -0.33766001 0.56113068
v -0.50494997 -0.33751001 0.57007114
v -0.50306259 -0.33751001 0.57228584
v -0.50306259 -0.33766001 0.57228584
v -0.50494997 -0.33766001 0.57007114
v -0.577742 -0.33751001 0.57619965
v -0.57609646 -0.33751001 0.57379974
v -0.57609646 -0.33766001 0.57379974
v -0.577742 -0.33766001 0.57619965
v -0.55388468 -0.33751001 0.56247551
v -0.55629065 -0.33751001 0.56349369
v -0.55629065 -0.33766001 0.56349369
v -0.55388468 -0.33766001 0.56247551
v -0.56513073 -0.33751001 0.5690176
v -0.56710056 -0.33751001 0.57073372
v -0.56710056 -0.33766001 0.57073372
v -0.56513073 -0.33766001 0.5690176
v -0.52822377 -0.33751001 0.64086929
v -0.52572455 -0.33751001 0.64010818
v -0.52572455 -0.33766001 0.64010818
v -0.52822377 -0.33766001 0.64086929
v -0.50912539 -0.33751001 0.63597866
v -0.51139672 -0.33751001 0.63779755
v -0.51139672 -0.33766001 0.63779755
v -0.50912539 -0.33766001 0.63597866
v -0.5121778 -0.33751001 0.63240479
v -0.51024587 -0.33751001 0.63064606
v -0.51024587 -0.33766001 0.63064606
v -0.5121778 -0.33766001 0.63240479
v -0.53593932 -0.33751001 0.64218643
v -0.5333414 -0.33751001 0.64191048
v -0.5333414 -0.33766001 0.64191048
v -0.53593932 -0.33766001 0.64218643
v -0.50516902 -0.33751001 0.62468872
v -0.50131901 -0.33751001 0.62738453
v -0.50131901 -0.33766001 0.62738453
v -0.50516902 -0.33766001 0.62468872
v -0.51139672 -0.33751001 0.63779755
v -0.51377851 -0.33751001 0.63946915
v -0.51377851 -0.33766001 0.63946915
v -0.51139672 -0.33766001 0.63779755
v -0.5333414 -0.33751001 0.64191048
v -0.53076611 -0.33751001 0.64147087
v -0.53076611 -0.33766001 0.64147087
v -0.5333414 -0.33766001 0.64191048
v -0.50673446 -0.33751001 0.62678032
v -0.50516902 -0.33751001 0.62468872
v -0.50516902 -0.33766001 0.62468872
v -0.50673446 -0.33766001 0.62678032
v -0.50494997 -0.33751001 0.63192886
v -0.5069736 -0.33751001 0.63401985
v -0.5069736 -0.33766001 0.63401985
v -0.50494997 -0.33766001 0.63192886
v -0.53076611 -0.33751001 0.64147087
v -0.52822377 -0.33751001 0.64086929
v -0.52822377 -0.33766001 0.64086929
v -0.53076611 -0.33766001 0.64147087
v -0.50516902 -0.33766001 0.62468872
v -0.50131901 -0.33766001 0.62738453
v -0.50306259 -0.33766001 0.62971413
v -0.50494997 -0.33766001 0.63192886
v -0.5069736 -0.33766001 0.63401985
v -0.50912539 -0.33766001 0.63597866
v -0.51139672 -0.33766001 0.63779755
v -0.51377851 -0.33766001 0.63946915
v -0.51626122 -0.33766001 0.64098686
v -0.51883493 -0.33766001 0.64234451
v -0.52148932 -0.33766001 0.64353676
v -0.52421379 -0.33766001 0.64455879
v -0.52699742 -0.33766001 0.64540649
v -0.52982908 -0.33766001 0.64607651
v -0.53269744 -0.33766001 0.64656616
v -0.53559101 -0.33766001 0.64687347
v -0.53849823 -0.33766001 0.6469973
v -0.54140745 -0.33766001 0.64693695
v -0.54430704 -0.33766001 0.64669281
v -0.5471854 -0.33766001 0.64626587
v -0.55003101 -0.33766001 0.64565781
v -0.55283247 -0.33766001 0.64487099
v -0.55557858 -0.33766001 0.64390862
v -0.55825834 -0.33766001 0.64277458
v -0.56086105 -0.33766001 0.64147339
v -0.56337629 -0.33766001 0.64001022
v -0.56579397 -0.33766001 0.63839096
v -0.56810446 -0.33766001 0.63662205
v -0.57029846 -0.33766001 0.63471062
v -0.57236723 -0.33766001 0.6326643
v -0.57430246 -0.33766001 0.63049129
v -0.57609646 -0.33766001 0.62820023
v -0.577742 -0.33766001 0.62580036
v -0.5792325 -0.33766001 0.62330124
v -0.58056204 -0.33766001 0.62071289
v -0.58172523 -0.33766001 0.61804565
v -0.58271749 -0.33766001 0.61531021
v -0.58353479 -0.33766001 0.61251747
v -0.58417389 -0.33766001 0.60967869
v -0.58463223 -0.33766001 0.60680515
v -0.58490797 -0.33766001 0.60390839
v -0.585 -0.33766001 0.60099998
v -0.58490797 -0.33766001 0.59809162
v -0.58463223 -0.33766001 0.59519485
v -0.58417389 -0.33766001 0.59232132
v -0.58353479 -0.33766001 0.58948254
v -0.58271749 -0.33766001 0.5866898
v -0.58172523 -0.33766001 0.58395435
v -0.58056204 -0.33766001 0.58128712
v -0.5792325 -0.33766001 0.57869877
v -0.577742 -0.33766001 0.57619965
v -0.57609646 -0.33766001 0.57379974
v -0.57430246 -0.33766001 0.57150871
v -0.57236723 -0.33766001 0.56933567
v -0.57029846 -0.33766001 0.56728935
v -0.56810446 -0.33766001 0.56537792
v -0.56579397 -0.33766001 0.56360905
v -0.56337629 -0.33766001 0.56198978
v -0.56086105 -0.33766001 0.56052662
v -0.55825834 -0.33766001 0.55922543
v -0.55557858 -0.33766001 0.55809135
v -0.55283247 -0.33766001 0.55712902
v -0.55003101 -0.33766001 0.55634224
v -0.5471854 -0.33766001 0.55573414
v -0.54430704 -0.33766001 0.55530716
v -0.54140745 -0.33766001 0.55506306
v -0.53849823 -0.33766001 0.55500275
v -0.53559101 -0.33766001 0.5551265
v -0.53269744 -0.33766001 0.55543381
v -0.52982908 -0.33766001 0.55592346
v -0.52699742 -0.33766001 0.55659348
v -0.52421379 -0.33766001 0.55744122
v -0.52148932 -0.33766001 0.55846325
v -0.51883493 -0.33766001 0.55965546
v -0.51626122 -0.33766001 0.56101315
v -0.51377851 -0.33766001 0.56253082
v -0.51139672 -0.33766001 0.56420246
v -0.50912539 -0.33766001 0.56602131
v -0.5069736 -0.33766001 0.56798016
v -0.50494997 -0.33766001 0.57007114
v -0.50306259 -0.33766001 0.57228584
v -0.50131901 -0.33766001 0.57461548
v -0.50516902 -0.33766001 0.57731129
v -0.50673446 -0.33766001 0.57521969
v -0.50842899 -0.33766001 0.57323124
v -0.51024587 -0.33766001 0.57135391
v -0.5121778 -0.33766001 0.56959522
v -0.51421706 -0.33766001 0.56796219
v -0.5163555 -0.33766001 0.56646137
v -0.51858454 -0.33766001 0.56509876
v -0.52089527 -0.33766001 0.56387981
v -0.52327846 -0.33766001 0.56280937
v -0.52572455 -0.33766001 0.56189178
v -0.52822377 -0.33766001 0.56113068
v -0.53076611 -0.33766001 0.5605291
v -0.5333414 -0.33766001 0.56008949
v -0.53593932 -0.33766001 0.55981358
v -0.5385495 -0.33766001 0.55970245
v -0.54116148 -0.33766001 0.55975658
v -0.5437648 -0.33766001 0.55997578
v -0.54634907 -0.33766001 0.56035912
v -0.54890392 -0.33766001 0.56090508
v -0.55141916 -0.33766001 0.56161148
v -0.55388468 -0.33766001 0.56247551
v -0.55629065 -0.33766001 0.56349369
v -0.55862743 -0.33766001 0.56466194
v -0.56088568 -0.33766001 0.56597561
v -0.56305634 -0.33766001 0.56742943
v -0.56513073 -0.33766001 0.5690176
v -0.56710056 -0.33766001 0.57073372
v -0.56895796 -0.33766001 0.57257095
v -0.57069548 -0.33766001 0.57452194
v -0.57230618 -0.33766001 0.5765789
v -0.57378357 -0.33766001 0.5787336
v -0.5751218 -0.33766001 0.58097736
v -0.57631548 -0.33766001 0.58330128
v -0.57735983 -0.33766001 0.58569599
v -0.57825069 -0.33766001 0.58815193
v -0.57898451 -0.33766001 0.59065929
v -0.5795583 -0.33766001 0.59320805
v -0.57996981 -0.33766001 0.59578796
v -0.58021738 -0.33766001 0.59838875
v -0.58030001 -0.33766001 0.60099998
v -0.58021738 -0.33766001 0.60361122
v -0.57996981 -0.33766001 0.60621201
v -0.5795583 -0.33766001 0.60879196
v -0.57898451 -0.33766001 0.61134068
v -0.57825069 -0.33766001 0.61384808
v -0.57735983 -0.33766001 0.61630402
v -0.57631548 -0.33766001 0.61869873
v -0.5751218 -0.33766001 0.62102264
v -0.57378357 -0.33766001 0.62326641
v -0.57230618 -0.33766001 0.6254211
v -0.57069548 -0.33766001 0.62747803
v -0.56895796 -0.33766001 0.62942905
v -0.56710056 -0.33766001 0.63126629
v -0.56513073 -0.33766001 0.63298241
v -0.56305634 -0.33766001 0.63457058
v -0.56088568 -0.33766001 0.6360244
v -0.55862743 -0.33766001 0.63733807
v -0.55629065 -0.33766001 0.63850632
v -0.55388468 -0.33766001 0.6395245
v -0.55141916 -0.33766001 0.64038849
v -0.54890392 -0.33766001 0.64109489
v -0.54634907 -0.33766001 0.64164085
v -0.5437648 -0.33766001 0.64202423
v -0.54116148 -0.33766001 0.64224342
v -0.5385495 -0.33766001 0.64229752
v -0.53593932 -0.33766001 0.64218643
v -0.5333414 -0.33766001 0.64191048
v -0.53076611 -0.33766001 0.64147087
v -0.52822377 -0.33766001 0.64086929
v -0.52572455 -0.33766001 0.64010818
v -0.52327846 -0.33766001 0.6391906
v -0.52089527 -0.33766001 0.63812019
v -0.51858454 -0.33766001 0.63690125
v -0.5163555 -0.33766001 0.63553864
v -0.51421706 -0.33766001 0.63403778
v -0.5121778 -0.33766001 0.63240479
v -0.51024587 -0.33766001 0.63064606
v -0.50842899 -0.33766001 0.62876873
v -0.50673446 -0.33766001 0.62678032
v -0.50842899 -0.33751001 0.62876873
v -0.50673446 -0.33751001 0.62678032
v -0.50673446 -0.33766001 0.62678032
v -0.50842899 -0.33766001 0.62876873
v -0.50131901 -0.33751001 0.62738453
v -0.50306259 -0.33751001 0.62971413
v -0.50306259 -0.33766001 0.62971413
v -0.50131901 -0.33766001 0.62738453
v -0.52572455 -0.33751001 0.64010818
v -0.52327846 -0.33751001 0.6391906
v -0.52327846 -0.33766001 0.6391906
v -0.52572455 -0.33766001 0.64010818
v -0.52327846 -0.33751001 0.6391906
v -0.52089527 -0.33751001 0.63812019
v -0.52089527 -0.33766001 0.63812019
v -0.52327846 -0.33766001 0.6391906
v -0.51858454 -0.33751001 0.63690125
v -0.5163555 -0.33751001 0.63553864
v -0.5163555 -0.33766001 0.63553864
v -0.51858454 -0.33766001 0.63690125
v -0.50131901 -0.33751001 0.62738453
v -0.50516902 -0.33751001 0.62468872
v -0.50673446 -0.33751001 0.62678032
v -0.50842899 -0.33751001 0.62876873
v -0.51024587 -0.33751001 0.63064606
v -0.5121778 -0.33751001 0.63240479
v -0.51421706 -0.33751001 0.63403778
v -0.5163555 -0.33751001 0.63553864
v -0.51858454 -0.33751001 0.63690125
v -0.52089527 -0.33751001 0.63812019
v -0.52327846 -0.33751001 0.6391906
v -0.52572455 -0.33751001 0.64010818
v -0.52822377 -0.33751001 0.64086929
v -0.53076611 -0.33751001 0.64147087
v -0.5333414 -0.33751001 0.64191048
v -0.53593932 -0.33751001 0.64218643
v -0.5385495 -0.33751001 0.64229752
v -0.54116148 -0.33751001 0.64224342
v -0.5437648 -0.33751001 0.64202423
v -0.54634907 -0.33751001 0.64164085
v -0.54890392 -0.33751001 0.64109489
v -0.55141916 -0.33751001 0.64038849
v -0.55388468 -0.33751001 0.6395245
v -0.55629065 -0.33751001 0.63850632
v -0.55862743 -0.33751001 0.63733807
v -0.56088568 -0.33751001 0.6360244
v -0.56305634 -0.33751001 0.63457058
v -0.56513073 -0.33751001 0.63298241
v -0.56710056 -0.33751001 0.63126629
v -0.56895796 -0.33751001 0.62942905
v -0.57069548 -0.33751001 0.62747803
v -0.57230618 -0.33751001 0.6254211
v -0.57378357 -0.33751001 0.62326641
v -0.5751218 -0.33751001 0.62102264
v -0.57631548 -0.33751001 0.61869873
v -0.57735983 -0.33751001 0.61630402
v -0.57825069 -0.33751001 0.61384808
v -0.57898451 -0.33751001 0.61134068
v -0.5795583 -0.33751001 0.60879196
v -0.57996981 -0.33751001 0.60621201
v -0.58021738 -0.33751001 0.60361122
v -0.58030001 -0.33751001 0.60099998
v -0.58021738 -0.33751001 0.59838875
v -0.57996981 -0.33751001 0.59578796
v -0.5795583 -0.33751001 0.59320805
v -0.57898451 -0.33751001 0.59065929
v -0.57825069 -0.33751001 0.58815193
v -0.57735983 -0.33751001 0.58569599
v -0.57631548 -0.33751001 0.58330128
v -0.5751218 -0.33751001 0.58097736
v -0.57378357 -0.33751001 0.5787336
v -0.57230618 -0.33751001 0.5765789
v -0.57069548 -0.33751001 0.57452194
v -0.56895796 -0.33751001 0.57257095
v -0.56710056 -0.33751001 0.57073372
v -0.56513073 -0.33751001 0.5690176
v -0.56305634 -0.33751001 0.56742943
v -0.56088568 -0.33751001 0.56597561
v -0.55862743 -0.33751001 0.56466194
v -0.55629065 -0.33751001 0.56349369
v -0.55388468 -0.33751001 0.56247551
v -0.55141916 -0.33751001 0.56161148
v -0.54890392 -0.33751001 0.56090508
v -0.54634907 -0.33751001 0.56035912
v -0.5437648 -0.33751001 0.55997578
v -0.54116148 -0.33751001 0.55975658
v -0.5385495 -0.33751001 0.55970245
v -0.53593932 -0.33751001 0.55981358
v -0.5333414 -0.33751001 0.56008949
v -0.53076611 -0.33751001 0.5605291
v -0.52822377 -0.33751001 0.56113068
v -0.52572455 -0.33751001 0.56189178
v -0.52327846 -0.33751001 0.56280937
v -0.52089527 -0.33751001 0.56387981
v -0.51858454 -0.33751001 0.56509876
v -0.5163555 -0.33751001 0.56646137
v -0.51421706 -0.33751001 0.56796219
v -0.5121778 -0.33751001 0.56959522
v -0.51024587 -0.33751001 0.57135391
v -0.50842899 -0.33751001 0.57323124
v -0.50673446 -0.33751001 0.57521969
v -0.50516902 -0.33751001 0.57731129
v -0.50131901 -0.33751001 0.57461548
v -0.50306259 -0.33751001 0.57228584
v -0.50494997 -0.33751001 0.57007114
v -0.5069736 -0.33751001 0.56798016
v -0.50912539 -0.33751001 0.56602131
v -0.51139672 -0.33751001 0.56420246
v -0.51377851 -0.33751001 0.56253082
v -0.51626122 -0.33751001 0.56101315
v -0.51883493 -0.33751001 0.55965546
v -0.52148932 -0.33751001 0.55846325
v -0.52421379 -0.33751001 0.55744122
v -0.52699742 -0.33751001 0.55659348
v -0.52982908 -0.33751001 0.55592346
v -0.53269744 -0.33751001 0.55543381
v -0.53559101 -0.33751001 0.5551265
v -0.53849823 -0.33751001 0.55500275
v -0.54140745 -0.33751001 0.55506306
v -0.54430704 -0.33751001 0.55530716
v -0.5471854 -0.33751001 0.55573414
v -0.55003101 -0.33751001 0.55634224
v -0.55283247 -0.33751001 0.55712902
v -0.55557858 -0.33751001 0.55809135
v -0.55825834 -0.33751001 0.55922543
v -0.56086105 -0.33751001 0.56052662
v -0.56337629 -0.33751001 0.56198978
v -0.56579397 -0.33751001 0.56360905
v -0.56810446 -0.33751001 0.56537792
v -0.57029846 -0.33751001 0.56728935
v -0.57236723 -0.33751001 0.56933567
v -0.57430246 -0.33751001 0.57150871
v -0.57609646 -0.33751001 0.57379974
v -0.577742 -0.33751001 0.57619965
v -0.5792325 -0.33751001 0.57869877
v -0.58056204 -0.33751001 0.58128712
v -0.58172523 -0.33751001 0.58395435
v -0.58271749 -0.33751001 0.5866898
v -0.58353479 -0.33751001 0.58948254
v -0.58417389 -0.33751001 0.59232132
v -0.58463223 -0.33751001 0.59519485
v -0.58490797 -0.33751001 0.59809162
v -0.585 -0.33751001 0.60099998
v -0.58490797 -0.33751001 0.60390839
v -0.58463223 -0.33751001 0.60680515
v -0.58417389 -0.33751001 0.60967869
v -0.58353479 -0.33751001 0.61251747
v -0.58271749 -0.33751001 0.61531021
v -0.58172523 -0.33751001 0.61804565
v -0.58056204 -0.33751001 0.62071289
v -0.5792325 -0.33751001 0.62330124
v -0.577742 -0.33751001 0.62580036
v -0.57609646 -0.33751001 0.62820023
v -0.57430246 -0.33751001 0.63049129
v -0.57236723 -0.33751001 0.6326643
v -0.57029846 -0.33751001 0.63471062
v -0.56810446 -0.33751001 0.63662205
v -0.56579397 -0.33751001 0.63839096
v -0.56337629 -0.33751001 0.64001022
v -0.56086105 -0.33751001 0.64147339
v -0.55825834 -0.33751001 0.64277458
v -0.55557858 -0.33751001 0.64390862
v -0.55283247 -0.33751001 0.64487099
v -0.55003101 -0.33751001 0.64565781
v -0.5471854 -0.33751001 0.64626587
v -0.54430704 -0.33751001 0.64669281
v -0.54140745 -0.33751001 0.64693695
v -0.53849823 -0.33751001 0.6469973
v -0.53559101 -0.33751001 0.64687347
v -0.53269744 -0.33751001 0.64656616
v -0.52982908 -0.33751001 0.64607651
v -0.52699742 -0.33751001 0.64540649
v -0.52421379 -0.33751001 0.64455879
v -0.52148932 -0.33751001 0.64353676
v -0.51883493 -0.33751001 0.64234451
v -0.51626122 -0.33751001 0.64098686
v -0.51377851 -0.33751001 0.63946915
v -0.51139672 -0.33751001 0.63779755
v -0.50912539 -0.33751001 0.63597866
v -0.5069736 -0.33751001 0.63401985
v -0.50494997 -0.33751001 0.63192886
v -0.50306259 -0.33751001 0.62971413
v -0.50306259 -0.33751001 0.62971413
v -0.50494997 -0.33751001 0.63192886
v -0.50494997 -0.33766001 0.63192886
v -0.50306259 -0.33766001 0.62971413
v -0.51421706 -0.33751001 0.63403778
v -0.5121778 -0.33751001 0.63240479
v -0.5121778 -0.33766001 0.63240479
v -0.51421706 -0.33766001 0.63403778
v -0.5069736 -0.33751001 0.63401985
v -0.50912539 -0.33751001 0.63597866
v -0.50912539 -0.33766001 0.63597866
v -0.5069736 -0.33766001 0.63401985
v -0.51024587 -0.33751001 0.63064606
v -0.50842899 -0.33751001 0.62876873
v -0.50842899 -0.33766001 0.62876873
v -0.51024587 -0.33766001 0.63064606
v -0.5163555 -0.33751001 0.63553864
v -0.51421706 -0.33751001 0.63403778
v -0.51421706 -0.33766001 0.63403778
v -0.5163555 -0.33766001 0.63553864
v -0.52089527 -0.33751001 0.63812019
v -0.51858454 -0.33751001 0.63690125
v -0.51858454 -0.33766001 0.63690125
v -0.52089527 -0.33766001 0.63812019
v -0.51626122 -0.33751001 0.64098686
v -0.51883493 -0.33751001 0.64234451
v -0.51883493 -0.33766001 0.64234451
v -0.51626122 -0.33766001 0.64098686
v -0.55388468 -0.33751001 0.6395245
v -0.55141916 -0.33751001 0.64038849
v -0.55141916 -0.33766001 0.64038849
v -0.55388468 -0.33766001 0.6395245
v -0.52699742 -0.33751001 0.64540649
v -0.52982908 -0.33751001 0.64607651
v -0.52982908 -0.33766001 0.64607651
v -0.52699742 -0.33766001 0.64540649
v -0.55862743 -0.33751001 0.63733807
v -0.55629065 -0.33751001 0.63850632
v -0.55629065 -0.33766001 0.63850632
v -0.55862743 -0.33766001 0.63733807
v -0.5437648 -0.33751001 0.64202423
v -0.54116148 -0.33751001 0.64224342
v -0.54116148 -0.33766001 0.64224342
v -0.5437648 -0.33766001 0.64202423
v -0.53849823 -0.33751001 0.6469973
v -0.54140745 -0.33751001 0.64693695
v -0.54140745 -0.33766001 0.64693695
v -0.53849823 -0.33766001 0.6469973
v -0.55557858 -0.33751001 0.64390862
v -0.55825834 -0.33751001 0.64277458
v -0.55825834 -0.33766001 0.64277458
v -0.55557858 -0.33766001 0.64390862
v -0.56088568 -0.33751001 0.6360244
v -0.55862743 -0.33751001 0.63733807
v -0.55862743 -0.33766001 0.63733807
v -0.56088568 -0.33766001 0.6360244
v -0.56305634 -0.33751001 0.63457058
v -0.56088568 -0.33751001 0.6360244
v -0.56088568 -0.33766001 0.6360244
v -0.56305634 -0.33766001 0.63457058
v -0.51883493 -0.33751001 0.64234451
v -0.52148932 -0.33751001 0.64353676
v -0.52148932 -0.33766001 0.64353676
v -0.51883493 -0.33766001 0.64234451
v -0.57230618 -0.33751001 0.6254211
v -0.57069548 -0.33751001 0.62747803
v -0.57069548 -0.33766001 0.62747803
v -0.57230618 -0.33766001 0.6254211
v -0.55629065 -0.33751001 0.63850632
v -0.55388468 -0.33751001 0.6395245
v -0.55388468 -0.33766001 0.6395245
v -0.55629065 -0.33766001 0.63850632
v -0.52982908 -0.33751001 0.64607651
v -0.53269744 -0.33751001 0.64656616
v -0.53269744 -0.33766001 0.64656616
v -0.52982908 -0.33766001 0.64607651
v -0.51377851 -0.33751001 0.63946915
v -0.51626122 -0.33751001 0.64098686
v -0.51626122 -0.33766001 0.64098686
v -0.51377851 -0.33766001 0.63946915
v -0.56513073 -0.33751001 0.63298241
v -0.56305634 -0.33751001 0.63457058
v -0.56305634 -0.33766001 0.63457058
v -0.56513073 -0.33766001 0.63298241
v -0.56895796 -0.33751001 0.62942905
v -0.56710056 -0.33751001 0.63126629
v -0.56710056 -0.33766001 0.63126629
v -0.56895796 -0.33766001 0.62942905
v -0.55003101 -0.33751001 0.64565781
v -0.55283247 -0.33751001 0.64487099
v -0.55283247 -0.33766001 0.64487099
v -0.55003101 -0.33766001 0.64565781
v -0.57378357 -0.33751001 0.62326641
v -0.57230618 -0.33751001 0.6254211
v -0.57230618 -0.33766001 0.6254211
v -0.57378357 -0.33766001 0.62326641
v -0.54116148 -0.33751001 0.64224342
v -0.5385495 -0.33751001 0.64229752
v -0.5385495 -0.33766001 0.64229752
v -0.54116148 -0.33766001 0.64224342
v -0.53559101 -0.33751001 0.64687347
v -0.53849823 -0.33751001 0.6469973
v -0.53849823 -0.33766001 0.6469973
v -0.53559101 -0.33766001 0.64687347
v -0.5471854 -0.33751001 0.64626587
v -0.55003101 -0.33751001 0.64565781
v -0.55003101 -0.33766001 0.64565781
v -0.5471854 -0.33766001 0.64626587
v -0.5385495 -0.33751001 0.64229752
v -0.53593932 -0.33751001 0.64218643
v -0.53593932 -0.33766001 0.64218643
v -0.5385495 -0.33766001 0.64229752
v -0.54140745 -0.33751001 0.64693695
v -0.54430704 -0.33751001 0.64669281
v -0.54430704 -0.33766001 0.64669281
v -0.54140745 -0.33766001 0.64693695
v -0.54430704 -0.33751001 0.64669281
v -0.5471854 -0.33751001 0.64626587
v -0.5471854 -0.33766001 0.64626587
v -0.54430704 -0.33766001 0.64669281
v -0.55141916 -0.33751001 0.64038849
v -0.54890392 -0.33751001 0.64109489
v -0.54890392 -0.33766001 0.64109489
v -0.55141916 -0.33766001 0.64038849
v -0.56710056 -0.33751001 0.63126629
v -0.56513073 -0.33751001 0.63298241
v -0.56513073 -0.33766001 0.63298241
v -0.56710056 -0.33766001 0.63126629
v -0.54890392 -0.33751001 0.64109489
v -0.54634907 -0.33751001 0.64164085
v -0.54634907 -0.33766001 0.64164085
v -0.54890392 -0.33766001 0.64109489
v -0.57069548 -0.33751001 0.62747803
v -0.56895796 -0.33751001 0.62942905
v -0.56895796 -0.33766001 0.62942905
v -0.57069548 -0.33766001 0.62747803
v -0.55283247 -0.33751001 0.64487099
v -0.55557858 -0.33751001 0.64390862
v -0.55557858 -0.33766001 0.64390862
v -0.55283247 -0.33766001 0.64487099
v -0.52421379 -0.33751001 0.64455879
v -0.52699742 -0.33751001 0.64540649
v -0.52699742 -0.33766001 0.64540649
v -0.52421379 -0.33766001 0.64455879
v -0.52148932 -0.33751001 0.64353676
v -0.52421379 -0.33751001 0.64455879
v -0.52421379 -0.33766001 0.64455879
v -0.52148932 -0.33766001 0.64353676
v -0.53269744 -0.33751001 0.64656616
v -0.53559101 -0.33751001 0.64687347
v -0.53559101 -0.33766001 0.64687347
v -0.53269744 -0.33766001 0.64656616
v -0.54634907 -0.33751001 0.64164085
v -0.5437648 -0.33751001 0.64202423
v -0.5437648 -0.33766001 0.64202423
v -0.54634907 -0.33766001 0.64164085
f 1 2 4
f 4 2 3
f 5 6 8
f 8 6 7
f 9 10 12
f 12 10 11
f 13 14 16
f 16 14 15
f 17 18 20
f 20 18 19
f 21 22 24
f 24 22 23
f 25 26 28
f 28 26 27
f 29 30 32
f 32 30 31
f 33 34 36
f 36 34 35
f 37 38 40
f 40 38 39
f 41 42 44
f 44 42 43
f 45 46 48
f 48 46 47
f 49 50 52
f 52 50 51
f 53 54 56
f 56 54 55
f 57 58 60
f 60 58 59
f 61 62 64
f 64 62 63
f 65 66 68
f 68 66 67
f 69 70 72
f 72 70 71
f 73 74 76
f 76 74 75
f 77 78 80
f 80 78 79
f 81 82 84
f 84 82 83
f 85 86 88
f 88 86 87
f 89 90 92
f 92 90 91
f 93 94 96
f 96 94 95
f 97 98 100
f 100 98 99
f 101 102 104
f 104 102 103
f 105 106 108
f 108 106 107
f 109 110 112
f 112 110 111
f 113 114 116
f 116 114 115
f 117 118 120
f 120 118 119
f 121 122 124
f 124 122 123
f 125 126 128
f 128 126 127
f 129 130 132
f 132 130 131
f 133 134 136
f 136 134 135
f 137 138 140
f 140 138 139
f 141 142 144
f 144 142 143
f 145 146 148
f 148 146 147
f 149 150 152
f 152 150 151
f 153 154 156
f 156 154 155
f 157 158 160
f 160 158 159
f 161 162 164
f 164 162 163
f 165 166 168
f 168 166 167
f 169 170 172
f 172 170 171
f 173 174 176
f 176 174 175
f 177 178 180
f 180 178 179
f 181 182 184
f 184 182 183
f 185 186 188
f 188 186 187
f 189 190 192
f 192 190 191
f 193 194 196
f 196 194 195
f 197 198 200
f 200 198 199
f 201 202 204
f 204 202 203
f 205 206 208
f 208 206 207
f 209 210 212
f 212 210 211
f 213 214 216
f 216 214 215
f 217 218 220
f 220 218 219
f 221 222 224
f 224 222 223
f 225 226 228
f 228 226 227
f 229 230 232
f 232 230 231
f 233 234 236
f 236 234 235
f 237 238 240
f 240 238 239
f 241 242 244
f 244 242 243
f 245 246 248
f 248 246 247
f 249 250 252
f 252 250 251
f 253 254 256
f 256 254 255
f 257 258 260
f 260 258 259
f 261 262 264
f 264 262 263
f 265 266 268
f 268 266 267
f 269 270 272
f 272 270 271
f 273 274 276
f 276 274 275
f 277 278 280
f 280 278 279
f 281 282 284
f 284 282 283
f 285 286 288
f 288 286 287
f 289 290 292
f 292 290 291
f 293 294 296
f 296 294 295
f 297 298 300
f 300 298 299
f 301 302 304
f 304 302 303
f 305 306 308
f 308 306 307
f 309 310 312
f 312 310 311
f 313 314 316
f 316 314 315
f 317 318 320
f 320 318 319
f 321 322 324
f 324 322 323
f 325 326 328
f 328 326 327
f 329 330 332
f 332 330 331
f 333 334 336
f 336 334 335
f 337 338 340
f 340 338 339
f 341 342 344
f 344 342 343
f 345 346 348
f 348 346 347
f 349 350 352
f 352 350 351
f 353 354 356
f 356 354 355
f 357 358 360
f 360 358 359
f 361 362 364
f 364 362 363
f 365 366 368
f 368 366 367
f 369 370 372
f 372 370 371
f 373 374 376
f 376 374 375
f 377 378 380
f 380 378 379
f 381 382 384
f 384 382 383
f 385 386 388
f 388 386 387
f 389 390 392
f 392 390 391
f 393 394 396
f 396 394 395
f 397 398 400
f 400 398 399
f 401 402 404
f 404 402 403
f 405 406 408
f 408 406 407
f 409 410 412
f 412 410 411
f 413 414 416
f 416 414 415
f 417 418 420
f 420 418 419
f 421 422 424
f 424 422 423
f 425 426 428
f 428 426 427
f 429 430 432
f 432 430 431
f 433 434 436
f 436 434 435
f 437 438 440
f 440 438 439
f 441 442 444
f 444 442 443
f 445 446 448
f 448 446 447
f 449 450 452
f 452 450 451
f 453 454 456
f 456 454 455
f 457 458 460
f 460 458 459
f 461 462 464
f 464 462 463
f 465 466 468
f 468 466 467
f 469 470 472
f 472 470 471
f 474 475 473
f 473 475 634
f 634 475 476
f 634 476 633
f 633 476 477
f 633 477 632
f 632 477 478
f 632 478 631
f 631 478 479
f 631 479 630
f 630 479 480
f 630 480 629
f 629 480 481
f 629 481 628
f 628 481 482
f 628 482 627
f 627 482 483
f 627 483 626
f 626 483 484
f 626 484 625
f 625 484 485
f 625 485 624
f 624 485 486
f 624 486 623
f 623 486 487
f 623 487 622
f 622 487 488
f 622 488 621
f 621 488 489
f 621 489 620
f 620 489 619
f 619 489 490
f 619 490 618
f 618 490 491
f 618 491 617
f 617 491 492
f 617 492 616
f 616 492 493
f 616 493 615
f 615 493 494
f 615 494 614
f 614 494 495
f 614 495 613
f 613 495 496
f 613 496 612
f 612 496 497
f 612 497 611
f 611 497 498
f 611 498 610
f 610 498 499
f 610 499 609
f 609 499 500
f 609 500 608
f 608 500 501
f 608 501 607
f 607 501 502
f 607 502 606
f 606 502 503
f 606 503 605
f 605 503 504
f 605 504 604
f 604 504 505
f 604 505 603
f 603 505 506
f 603 506 602
f 602 506 507
f 602 507 601
f 601 507 508
f 601 508 600
f 600 508 509
f 600 509 599
f 599 509 510
f 599 510 598
f 598 510 511
f 598 511 597
f 597 511 512
f 597 512 596
f 596 512 513
f 596 513 595
f 595 513 514
f 595 514 515
f 595 515 594
f 594 515 516
f 594 516 593
f 593 516 517
f 593 517 592
f 592 517 518
f 592 518 591
f 591 518 519
f 591 519 590
f 590 519 520
f 590 520 589
f 589 520 521
f 589 521 588
f 588 521 522
f 588 522 587
f 587 522 523
f 587 523 586
f 586 523 524
f 586 524 585
f 585 524 525
f 585 525 584
f 584 525 526
f 584 526 583
f 583 526 527
f 583 527 582
f 582 527 528
f 582 528 581
f 581 528 529
f 581 529 580
f 580 529 530
f 580 530 579
f 579 530 531
f 579 531 578
f 578 531 532
f 578 532 577
f 577 532 533
f 577 533 576
f 576 533 534
f 576 534 575
f 575 534 535
f 575 535 574
f 574 535 536
f 574 536 573
f 573 536 537
f 573 537 572
f 572 537 538
f 572 538 571
f 571 538 539
f 571 539 570
f 570 539 569
f 569 539 540
f 569 540 568
f 568 540 541
f 568 541 567
f 567 541 542
f 567 542 566
f 566 542 543
f 566 543 565
f 565 543 544
f 565 544 564
f 564 544 545
f 564 545 563
f 563 545 546
f 563 546 562
f 562 546 547
f 562 547 561
f 561 547 548
f 561 548 560
f 560 548 549
f 560 549 559
f 559 549 550
f 559 550 558
f 558 550 551
f 558 551 557
f 557 551 552
f 557 552 556
f 556 552 553
f 556 553 555
f 555 553 554
f 635 636 638
f 638 636 637
f 639 640 642
f 642 640 641
f 643 644 646
f 646 644 645
f 647 648 650
f 650 648 649
f 651 652 654
f 654 652 653
f 655 656 816
f 816 656 657
f 816 657 815
f 815 657 658
f 815 658 814
f 814 658 659
f 814 659 813
f 813 659 660
f 813 660 812
f 812 660 661
f 812 661 811
f 811 661 662
f 811 662 810
f 810 662 663
f 810 663 809
f 809 663 664
f 809 664 808
f 808 664 665
f 808 665 807
f 807 665 666
f 807 666 806
f 806 666 667
f 806 667 805
f 805 667 668
f 805 668 804
f 804 668 669
f 804 669 803
f 803 669 670
f 803 670 802
f 802 670 671
f 802 671 672
f 802 672 801
f 801 672 673
f 801 673 800
f 800 673 674
f 800 674 799
f 799 674 675
f 799 675 798
f 798 675 676
f 798 676 797
f 797 676 677
f 797 677 796
f 796 677 678
f 796 678 795
f 795 678 679
f 795 679 794
f 794 679 680
f 794 680 793
f 793 680 681
f 793 681 792
f 792 681 682
f 792 682 791
f 791 682 683
f 791 683 790
f 790 683 684
f 790 684 789
f 789 684 685
f 789 685 788
f 788 685 686
f 788 686 787
f 787 686 687
f 787 687 786
f 786 687 688
f 786 688 785
f 785 688 689
f 785 689 784
f 784 689 690
f 784 690 783
f 783 690 691
f 783 691 782
f 782 691 692
f 782 692 781
f 781 692 693
f 781 693 780
f 780 693 694
f 780 694 779
f 779 694 695
f 779 695 778
f 778 695 696
f 778 696 777
f 777 696 776
f 776 696 697
f 776 697 775
f 775 697 698
f 775 698 774
f 774 698 699
f 774 699 773
f 773 699 700
f 773 700 772
f 772 700 701
f 772 701 771
f 771 701 702
f 771 702 770
f 770 702 703
f 770 703 769
f 769 703 704
f 769 704 768
f 768 704 705
f 768 705 767
f 767 705 706
f 767 706 766
f 766 706 707
f 766 707 765
f 765 707 708
f 765 708 764
f 764 708 709
f 764 709 763
f 763 709 710
f 763 710 762
f 762 710 711
f 762 711 761
f 761 711 712
f 761 712 760
f 760 712 713
f 760 713 759
f 759 713 714
f 759 714 758
f 758 714 715
f 758 715 757
f 757 715 716
f 757 716 756
f 756 716 717
f 756 717 755
f 755 717 718
f 755 718 754
f 754 718 719
f 754 719 753
f 753 719 720
f 753 720 752
f 752 720 721
f 752 721 722
f 752 722 751
f 751 722 723
f 751 723 750
f 750 723 724
f 750 724 749
f 749 724 725
f 749 725 748
f 748 725 726
f 748 726 747
f 747 726 727
f 747 727 746
f 746 727 728
f 746 728 745
f 745 728 729
f 745 729 744
f 744 729 730
f 744 730 743
f 743 730 731
f 743 731 742
f 742 731 732
f 742 732 741
f 741 732 733
f 741 733 740
f 740 733 734
f 740 734 739
f 739 734 735
f 739 735 738
f 738 735 736
f 738 736 737
f 817 818 820
f 820 818 819
f 821 822 824
f 824 822 823
f 825 826 828
f 828 826 827
f 829 830 832
f 832 830 831
f 833 834 836
f 836 834 835
f 837 838 840
f 840 838 839
f 841 842 844
f 844 842 843
f 845 846 848
f 848 846 847
f 849 850 852
f 852 850 851
f 853 854 856
f 856 854 855
f 857 858 860
f 860 858 859
f 861 862 864
f 864 862 863
f 865 866 868
f 868 866 867
f 869 870 872
f 872 870 871
f 873 874 876
f 876 874 875
f 877 878 880
f 880 878 879
f 881 882 884
f 884 882 883
f 885 886 888
f 888 886 887
f 889 890 892
f 892 890 891
f 893 894 896
f 896 894 895
f 897 898 900
f 900 898 899
f 901 902 904
f 904 902 903
f 905 906 908
f 908 906 907
f 909 910 912
f 912 910 911
f 913 914 916
f 916 914 915
f 917 918 920
f 920 918 919
f 921 922 924
f 924 922 923
f 925 926 928
f 928 926 927
f 929 930 932
f 932 930 931
f 933 934 936
f 936 934 935
f 937 938 940
f 940 938 939
f 941 942 944
f 944 942 943
f 945 946 948
f 948 946 947
f 949 950 952
f 952 950 951
f 953 954 956
f 956 954 955
f 957 958 960
f 960 958 959
f 961 962 964
f 964 962 963
f 965 966 968
f 968 966 967
f 969 970 972
f 972 970 971
v -0.483 -0.33751001 0.54349998
v -0.47780001 -0.33751001 0.5475
v -0.47780001 -0.33766001 0.5475
v -0.483 -0.33766001 0.54349998
v -0.47780001 -0.33751001 0.5475
v -0.5058 -0.33751001 0.57150002
v -0.5058 -0.33766001 0.57150002
v -0.47780001 -0.33766001 0.5475
v -0.511 -0.33751001 0.5675
v -0.483 -0.33751001 0.54349998
v -0.483 -0.33766001 0.54349998
v -0.511 -0.33766001 0.5675
v -0.47780001 -0.33751001 0.5475
v -0.483 -0.33751001 0.54349998
v -0.511 -0.33751001 0.5675
v -0.5058 -0.33751001 0.57150002
v -0.483 -0.33766001 0.54349998
v -0.47780001 -0.33766001 0.5475
v -0.5058 -0.33766001 0.57150002
v -0.511 -0.33766001 0.5675
v -0.5058 -0.33751001 0.57150002
v -0.511 -0.33751001 0.5675
v -0.511 -0.33766001 0.5675
v -0.5058 -0.33766001 0.57150002
f 973 974 976
f 976 974 975
f 977 978 980
f 980 978 979
f 981 982 984
f 984 982 983
f 985 986 988
f 988 986 987
f 990 991 989
f 989 991 992
f 993 994 996
f 996 994 995
