v 0.088802528 0.079721146 9.9999998e-05
v 0.088439236 0.079140077 9.9999998e-05
v 0.088318148 0.078398771 9.9999998e-05
v 0.088318148 0.078398771 0.000125
v 0.088439236 0.079140077 0.000125
v 0.088802528 0.079721146 0.000125
v 0.088318148 0.078398771 9.9999998e-05
v 0.088434172 0.077680492 9.9999998e-05
v 0.088782263 0.077116919 9.9999998e-05
v 0.088782263 0.077116919 0.000125
v 0.088434172 0.077680492 0.000125
v 0.088318148 0.078398771 0.000125
v 0.090016232 0.080222101 9.9999998e-05
v 0.089348145 0.080096865 9.9999998e-05
v 0.088802528 0.079721146 9.9999998e-05
v 0.088802528 0.079721146 0.000125
v 0.089348145 0.080096865 0.000125
v 0.090016232 0.080222101 0.000125
v 0.088782263 0.077116919 9.9999998e-05
v 0.089297953 0.076752253 9.9999998e-05
v 0.089916782 0.076630697 9.9999998e-05
v 0.089916782 0.076630697 0.000125
v 0.089297953 0.076752253 0.000125
v 0.088782263 0.077116919 0.000125
v 0.090979471 0.079938474 9.9999998e-05
v 0.090520411 0.080151196 9.9999998e-05
v 0.090016232 0.080222101 9.9999998e-05
v 0.090016232 0.080222101 0.000125
v 0.090520411 0.080151196 0.000125
v 0.090979471 0.079938474 0.000125
v 0.089916782 0.076630697 9.9999998e-05
v 0.090304012 0.076679964 9.9999998e-05
v 0.090662689 0.076827765 9.9999998e-05
v 0.090662689 0.076827765 0.000125
v 0.090304012 0.076679964 0.000125
v 0.089916782 0.076630697 0.000125
v 0.091642494 0.079129944 9.9999998e-05
v 0.091363468 0.079594526 9.9999998e-05
v 0.090979471 0.079938474 9.9999998e-05
v 0.090979471 0.079938474 0.000125
v 0.091363468 0.079594526 0.000125
v 0.091642494 0.079129944 0.000125
v 0.090662689 0.076827765 9.9999998e-05
v 0.091206007 0.077341609 9.9999998e-05
v 0.091206007 0.077341609 0.000125
v 0.090662689 0.076827765 0.000125
v 0.09186903 0.077610502 9.9999998e-05
v 0.091812401 0.078487635 9.9999998e-05
v 0.091642494 0.079129944 9.9999998e-05
v 0.091642494 0.079129944 0.000125
v 0.091812401 0.078487635 0.000125
v 0.09186903 0.077610502 0.000125
v 0.091206007 0.077341609 9.9999998e-05
v 0.091209688 0.077209005 9.9999998e-05
v 0.091209688 0.077209005 0.000125
v 0.091206007 0.077341609 0.000125
v 0.091644335 0.075962143 9.9999998e-05
v 0.091812859 0.076680884 9.9999998e-05
v 0.09186903 0.077610502 9.9999998e-05
v 0.09186903 0.077610502 0.000125
v 0.091812859 0.076680884 0.000125
v 0.091644335 0.075962143 0.000125
v 0.091209688 0.077209005 9.9999998e-05
v 0.091110229 0.076398635 9.9999998e-05
v 0.091110229 0.076398635 0.000125
v 0.091209688 0.077209005 0.000125
v 0.09097578 0.075028377 9.9999998e-05
v 0.091364851 0.075422049 9.9999998e-05
v 0.091644335 0.075962143 9.9999998e-05
v 0.091644335 0.075962143 0.000125
v 0.091364851 0.075422049 0.000125
v 0.09097578 0.075028377 0.000125
v 0.091110229 0.076398635 9.9999998e-05
v 0.090863438 0.075766916 9.9999998e-05
v 0.090863438 0.075766916 0.000125
v 0.091110229 0.076398635 0.000125
v 0.089935198 0.074707913 9.9999998e-05
v 0.090493708 0.074788027 9.9999998e-05
v 0.09097578 0.075028377 9.9999998e-05
v 0.09097578 0.075028377 0.000125
v 0.090493708 0.074788027 0.000125
v 0.089935198 0.074707913 0.000125
v 0.090863438 0.075766916 9.9999998e-05
v 0.090485878 0.075393043 9.9999998e-05
v 0.090485878 0.075393043 0.000125
v 0.090863438 0.075766916 0.000125
v 0.088900137 0.075059686 9.9999998e-05
v 0.089359655 0.074795856 9.9999998e-05
v 0.089935198 0.074707913 9.9999998e-05
v 0.089935198 0.074707913 0.000125
v 0.089359655 0.074795856 0.000125
v 0.088900137 0.075059686 0.000125
v 0.090485878 0.075393043 9.9999998e-05
v 0.089949932 0.075253067 9.9999998e-05
v 0.089949932 0.075253067 0.000125
v 0.090485878 0.075393043 0.000125
v 0.088417597 0.076048703 9.9999998e-05
v 0.088578749 0.075482826 9.9999998e-05
v 0.088900137 0.075059686 9.9999998e-05
v 0.088900137 0.075059686 0.000125
v 0.088578749 0.075482826 0.000125
v 0.088417597 0.076048703 0.000125
v 0.089949932 0.075253067 9.9999998e-05
v 0.089624863 0.075303717 9.9999998e-05
v 0.089364252 0.075455661 9.9999998e-05
v 0.089364252 0.075455661 0.000125
v 0.089624863 0.075303717 0.000125
v 0.089949932 0.075253067 0.000125
v 0.089364252 0.075455661 9.9999998e-05
v 0.089172716 0.075719953 9.9999998e-05
v 0.089054842 0.07610764 9.9999998e-05
v 0.089054842 0.07610764 0.000125
v 0.089172716 0.075719953 0.000125
v 0.089364252 0.075455661 0.000125
v 0.089054842 0.07610764 9.9999998e-05
v 0.088417597 0.076048703 9.9999998e-05
v 0.088417597 0.076048703 0.000125
v 0.089054842 0.07610764 0.000125
v 0.091132336 0.078431921 0.000125
v 0.091058207 0.077923141 0.000125
v 0.09083581 0.077538676 0.000125
v 0.090498314 0.077296948 0.000125
v 0.09007885 0.077216372 0.000125
v 0.08965848 0.077296948 0.000125
v 0.089310846 0.077538676 0.000125
v 0.089077406 0.077909327 0.000125
v 0.088999586 0.07837667 0.000125
v 0.089081545 0.078897886 0.000125
v 0.089327421 0.079312277 0.000125
v 0.0896838 0.079583015 0.000125
v 0.090097275 0.079673262 0.000125
v 0.090493708 0.079589462 0.000125
v 0.090828447 0.079338064 0.000125
v 0.091056356 0.07894393 0.000125
v 0.088417597 0.076048703 0.000125
v 0.088578749 0.075482826 0.000125
v 0.088900137 0.075059686 0.000125
v 0.089359655 0.074795856 0.000125
v 0.089935198 0.074707913 0.000125
v 0.090493708 0.074788027 0.000125
v 0.09097578 0.075028377 0.000125
v 0.091364851 0.075422049 0.000125
v 0.091644335 0.075962143 0.000125
v 0.091812859 0.076680884 0.000125
v 0.09186903 0.077610502 0.000125
v 0.091812401 0.078487635 0.000125
v 0.091642494 0.079129944 0.000125
v 0.091363468 0.079594526 0.000125
v 0.090979471 0.079938474 0.000125
v 0.090520411 0.080151196 0.000125
v 0.090016232 0.080222101 0.000125
v 0.089348145 0.080096865 0.000125
v 0.088802528 0.079721146 0.000125
v 0.088439236 0.079140077 0.000125
v 0.088318148 0.078398771 0.000125
v 0.088434172 0.077680492 0.000125
v 0.088782263 0.077116919 0.000125
v 0.089297953 0.076752253 0.000125
v 0.089916782 0.076630697 0.000125
v 0.090304012 0.076679964 0.000125
v 0.090662689 0.076827765 0.000125
v 0.091206007 0.077341609 0.000125
v 0.091209688 0.077209005 0.000125
v 0.091110229 0.076398635 0.000125
v 0.090863438 0.075766916 0.000125
v 0.090485878 0.075393043 0.000125
v 0.089949932 0.075253067 0.000125
v 0.089624863 0.075303717 0.000125
v 0.089364252 0.075455661 0.000125
v 0.089172716 0.075719953 0.000125
v 0.089054842 0.07610764 0.000125
v 0.091132336 0.078431921 9.9999998e-05
v 0.091058207 0.077923141 9.9999998e-05
v 0.09083581 0.077538676 9.9999998e-05
v 0.09083581 0.077538676 0.000125
v 0.091058207 0.077923141 0.000125
v 0.091132336 0.078431921 0.000125
v 0.09083581 0.077538676 9.9999998e-05
v 0.090498314 0.077296948 9.9999998e-05
v 0.09007885 0.077216372 9.9999998e-05
v 0.09007885 0.077216372 0.000125
v 0.090498314 0.077296948 0.000125
v 0.09083581 0.077538676 0.000125
v 0.09083581 0.077538676 9.9999998e-05
v 0.091058207 0.077923141 9.9999998e-05
v 0.091132336 0.078431921 9.9999998e-05
v 0.091056356 0.07894393 9.9999998e-05
v 0.090828447 0.079338064 9.9999998e-05
v 0.090493708 0.079589462 9.9999998e-05
v 0.090097275 0.079673262 9.9999998e-05
v 0.0896838 0.079583015 9.9999998e-05
v 0.089327421 0.079312277 9.9999998e-05
v 0.089081545 0.078897886 9.9999998e-05
v 0.088999586 0.07837667 9.9999998e-05
v 0.089077406 0.077909327 9.9999998e-05
v 0.089310846 0.077538676 9.9999998e-05
v 0.08965848 0.077296948 9.9999998e-05
v 0.09007885 0.077216372 9.9999998e-05
v 0.090498314 0.077296948 9.9999998e-05
v 0.088900137 0.075059686 9.9999998e-05
v 0.088578749 0.075482826 9.9999998e-05
v 0.088417597 0.076048703 9.9999998e-05
v 0.089054842 0.07610764 9.9999998e-05
v 0.089172716 0.075719953 9.9999998e-05
v 0.089364252 0.075455661 9.9999998e-05
v 0.089624863 0.075303717 9.9999998e-05
v 0.089949932 0.075253067 9.9999998e-05
v 0.090485878 0.075393043 9.9999998e-05
v 0.090863438 0.075766916 9.9999998e-05
v 0.091110229 0.076398635 9.9999998e-05
v 0.091209688 0.077209005 9.9999998e-05
v 0.091206007 0.077341609 9.9999998e-05
v 0.090662689 0.076827765 9.9999998e-05
v 0.090304012 0.076679964 9.9999998e-05
v 0.089916782 0.076630697 9.9999998e-05
v 0.089297953 0.076752253 9.9999998e-05
v 0.088782263 0.077116919 9.9999998e-05
v 0.088434172 0.077680492 9.9999998e-05
v 0.088318148 0.078398771 9.9999998e-05
v 0.088439236 0.079140077 9.9999998e-05
v 0.088802528 0.079721146 9.9999998e-05
v 0.089348145 0.080096865 9.9999998e-05
v 0.090016232 0.080222101 9.9999998e-05
v 0.090520411 0.080151196 9.9999998e-05
v 0.090979471 0.079938474 9.9999998e-05
v 0.091363468 0.079594526 9.9999998e-05
v 0.091642494 0.079129944 9.9999998e-05
v 0.091812401 0.078487635 9.9999998e-05
v 0.09186903 0.077610502 9.9999998e-05
v 0.091812859 0.076680884 9.9999998e-05
v 0.091644335 0.075962143 9.9999998e-05
v 0.091364851 0.075422049 9.9999998e-05
v 0.09097578 0.075028377 9.9999998e-05
v 0.090493708 0.074788027 9.9999998e-05
v 0.089935198 0.074707913 9.9999998e-05
v 0.089359655 0.074795856 9.9999998e-05
v 0.09007885 0.077216372 9.9999998e-05
v 0.08965848 0.077296948 9.9999998e-05
v 0.089310846 0.077538676 9.9999998e-05
v 0.089310846 0.077538676 0.000125
v 0.08965848 0.077296948 0.000125
v 0.09007885 0.077216372 0.000125
v 0.089310846 0.077538676 9.9999998e-05
v 0.089077406 0.077909327 9.9999998e-05
v 0.088999586 0.07837667 9.9999998e-05
v 0.088999586 0.07837667 0.000125
v 0.089077406 0.077909327 0.000125
v 0.089310846 0.077538676 0.000125
v 0.088999586 0.07837667 9.9999998e-05
v 0.089081545 0.078897886 9.9999998e-05
v 0.089327421 0.079312277 9.9999998e-05
v 0.089327421 0.079312277 0.000125
v 0.089081545 0.078897886 0.000125
v 0.088999586 0.07837667 0.000125
v 0.089327421 0.079312277 9.9999998e-05
v 0.0896838 0.079583015 9.9999998e-05
v 0.090097275 0.079673262 9.9999998e-05
v 0.090097275 0.079673262 0.000125
v 0.0896838 0.079583015 0.000125
v 0.089327421 0.079312277 0.000125
v 0.090097275 0.079673262 9.9999998e-05
v 0.090493708 0.079589462 9.9999998e-05
v 0.090828447 0.079338064 9.9999998e-05
v 0.090828447 0.079338064 0.000125
v 0.090493708 0.079589462 0.000125
v 0.090097275 0.079673262 0.000125
v 0.090828447 0.079338064 9.9999998e-05
v 0.091056356 0.07894393 9.9999998e-05
v 0.091132336 0.078431921 9.9999998e-05
v 0.091132336 0.078431921 0.000125
v 0.091056356 0.07894393 0.000125
v 0.090828447 0.079338064 0.000125
f 1 2 6
f 6 2 5
f 5 2 3
f 5 3 4
f 7 8 12
f 12 8 11
f 11 8 9
f 11 9 10
f 13 14 18
f 18 14 17
f 17 14 15
f 17 15 16
f 19 20 24
f 24 20 23
f 23 20 21
f 23 21 22
f 25 26 30
f 30 26 29
f 29 26 27
f 29 27 28
f 31 32 36
f 36 32 35
f 35 32 33
f 35 33 34
f 37 38 42
f 42 38 41
f 41 38 39
f 41 39 40
f 43 44 46
f 46 44 45
f 47 48 52
f 52 48 51
f 51 48 49
f 51 49 50
f 53 54 56
f 56 54 55
f 57 58 62
f 62 58 61
f 61 58 59
f 61 59 60
f 63 64 66
f 66 64 65
f 67 68 72
f 72 68 71
f 71 68 69
f 71 69 70
f 73 74 76
f 76 74 75
f 77 78 82
f 82 78 81
f 81 78 79
f 81 79 80
f 83 84 86
f 86 84 85
f 87 88 92
f 92 88 91
f 91 88 89
f 91 89 90
f 93 94 96
f 96 94 95
f 97 98 102
f 102 98 101
f 101 98 99
f 101 99 100
f 103 104 108
f 108 104 107
f 107 104 105
f 107 105 106
f 109 110 114
f 114 110 113
f 113 110 111
f 113 111 112
f 115 116 118
f 118 116 117
f 120 146 119
f 119 146 147
f 119 147 134
f 134 147 148
f 134 148 133
f 133 148 149
f 133 149 132
f 132 149 150
f 132 150 131
f 131 150 151
f 131 151 130
f 130 151 152
f 130 152 129
f 129 152 153
f 129 153 128
f 128 153 154
f 128 154 127
f 127 154 155
f 127 155 156
f 121 162 120
f 120 162 145
f 120 145 146
f 162 121 161
f 161 121 122
f 161 122 160
f 160 122 123
f 160 123 159
f 159 123 124
f 159 124 158
f 158 124 125
f 158 125 157
f 157 125 126
f 157 126 156
f 156 126 127
f 135 136 171
f 171 136 170
f 170 136 137
f 170 137 169
f 169 137 138
f 169 138 168
f 168 138 139
f 168 139 167
f 167 139 140
f 167 140 166
f 166 140 141
f 166 141 165
f 165 141 142
f 165 142 164
f 164 142 143
f 164 143 144
f 164 144 163
f 163 144 145
f 163 145 162
f 172 173 177
f 177 173 176
f 176 173 174
f 176 174 175
f 178 179 183
f 183 179 182
f 182 179 180
f 182 180 181
f 185 212 184
f 184 212 213
f 184 213 199
f 199 213 214
f 199 214 198
f 198 214 215
f 198 215 197
f 197 215 216
f 197 216 196
f 196 216 217
f 196 217 195
f 195 217 218
f 195 218 194
f 194 218 219
f 194 219 220
f 186 228 185
f 185 228 229
f 185 229 212
f 212 229 211
f 211 229 230
f 211 230 210
f 210 230 231
f 210 231 232
f 228 186 227
f 227 186 187
f 227 187 226
f 226 187 188
f 226 188 225
f 225 188 189
f 225 189 224
f 224 189 190
f 224 190 223
f 223 190 191
f 223 191 222
f 222 191 192
f 222 192 221
f 221 192 193
f 221 193 220
f 220 193 194
f 201 204 200
f 200 204 205
f 200 205 236
f 236 205 206
f 236 206 235
f 235 206 207
f 235 207 234
f 234 207 208
f 234 208 233
f 233 208 209
f 233 209 232
f 232 209 210
f 202 203 201
f 201 203 204
f 237 238 242
f 242 238 241
f 241 238 239
f 241 239 240
f 243 244 248
f 248 244 247
f 247 244 245
f 247 245 246
f 249 250 254
f 254 250 253
f 253 250 251
f 253 251 252
f 255 256 260
f 260 256 259
f 259 256 257
f 259 257 258
f 261 262 266
f 266 262 265
f 265 262 263
f 265 263 264
f 267 268 272
f 272 268 271
f 271 268 269
f 271 269 270
