v 0.060940175 0.10307831 9.9999998e-05
v 0.061231174 0.1045296 9.9999998e-05
v 0.061231174 0.1045296 0.000125
v 0.060940175 0.10307831 0.000125
v 0.061960506 0.10341719 9.9999998e-05
v 0.06143837 0.10333247 9.9999998e-05
v 0.060940175 0.10307831 9.9999998e-05
v 0.060940175 0.10307831 0.000125
v 0.06143837 0.10333247 0.000125
v 0.061960506 0.10341719 0.000125
v 0.061231174 0.1045296 9.9999998e-05
v 0.063386016 0.1045296 9.9999998e-05
v 0.063386016 0.1045296 0.000125
v 0.061231174 0.1045296 0.000125
v 0.063153954 0.10292728 9.9999998e-05
v 0.062612481 0.10329472 9.9999998e-05
v 0.061960506 0.10341719 9.9999998e-05
v 0.061960506 0.10341719 0.000125
v 0.062612481 0.10329472 0.000125
v 0.063153954 0.10292728 0.000125
v 0.063386016 0.1045296 9.9999998e-05
v 0.063386016 0.10516316 9.9999998e-05
v 0.063386016 0.10516316 0.000125
v 0.063386016 0.1045296 0.000125
v 0.063640175 0.10166753 9.9999998e-05
v 0.06351862 0.10236739 9.9999998e-05
v 0.063153954 0.10292728 9.9999998e-05
v 0.063153954 0.10292728 0.000125
v 0.06351862 0.10236739 0.000125
v 0.063640175 0.10166753 0.000125
v 0.063386016 0.10516316 9.9999998e-05
v 0.06070075 0.10516316 9.9999998e-05
v 0.06070075 0.10516316 0.000125
v 0.063386016 0.10516316 0.000125
v 0.063212891 0.10040041 9.9999998e-05
v 0.063533354 0.10098424 9.9999998e-05
v 0.063640175 0.10166753 9.9999998e-05
v 0.063640175 0.10166753 0.000125
v 0.063533354 0.10098424 0.000125
v 0.063212891 0.10040041 0.000125
v 0.06070075 0.10516316 9.9999998e-05
v 0.060177693 0.1023895 9.9999998e-05
v 0.060177693 0.1023895 0.000125
v 0.06070075 0.10516316 0.000125
v 0.061794748 0.099744749 9.9999998e-05
v 0.062598667 0.099908667 9.9999998e-05
v 0.063212891 0.10040041 9.9999998e-05
v 0.063212891 0.10040041 0.000125
v 0.062598667 0.099908667 0.000125
v 0.061794748 0.099744749 0.000125
v 0.060177693 0.1023895 9.9999998e-05
v 0.060800204 0.10230845 9.9999998e-05
v 0.060800204 0.10230845 0.000125
v 0.060177693 0.1023895 0.000125
v 0.060592089 0.1001573 9.9999998e-05
v 0.061125731 0.099847889 9.9999998e-05
v 0.061794748 0.099744749 9.9999998e-05
v 0.061794748 0.099744749 0.000125
v 0.061125731 0.099847889 0.000125
v 0.060592089 0.1001573 0.000125
v 0.060800204 0.10230845 9.9999998e-05
v 0.061205387 0.10268601 9.9999998e-05
v 0.061205387 0.10268601 0.000125
v 0.060800204 0.10230845 0.000125
v 0.060059824 0.1012513 0.000125
v 0.06022604 0.10063707 0.000125
v 0.060592089 0.1001573 0.000125
v 0.061125731 0.099847889 0.000125
v 0.061794748 0.099744749 0.000125
v 0.062598667 0.099908667 0.000125
v 0.063212891 0.10040041 0.000125
v 0.063533354 0.10098424 0.000125
v 0.063640175 0.10166753 0.000125
v 0.06351862 0.10236739 0.000125
v 0.063153954 0.10292728 0.000125
v 0.062612481 0.10329472 0.000125
v 0.061960506 0.10341719 0.000125
v 0.06143837 0.10333247 0.000125
v 0.060940175 0.10307831 0.000125
v 0.061231174 0.1045296 0.000125
v 0.063386016 0.1045296 0.000125
v 0.063386016 0.10516316 0.000125
v 0.06070075 0.10516316 0.000125
v 0.060177693 0.1023895 0.000125
v 0.060800204 0.10230845 0.000125
v 0.061205387 0.10268601 0.000125
v 0.061783695 0.10283152 0.000125
v 0.062250118 0.10274956 0.000125
v 0.062618008 0.10250368 0.000125
v 0.062856975 0.10211599 0.000125
v 0.06293663 0.10160859 0.000125
v 0.062853751 0.1010708 0.000125
v 0.062605114 0.10065088 0.000125
v 0.062236767 0.10038015 0.000125
v 0.061794748 0.10028991 0.000125
v 0.061425939 0.10035391 0.000125
v 0.061115141 0.10054591 0.000125
v 0.060884466 0.10086499 0.000125
v 0.060756001 0.10131023 0.000125
v 0.061205387 0.10268601 9.9999998e-05
v 0.061783695 0.10283152 9.9999998e-05
v 0.061783695 0.10283152 0.000125
v 0.061205387 0.10268601 0.000125
v 0.060059824 0.1012513 9.9999998e-05
v 0.06022604 0.10063707 9.9999998e-05
v 0.060592089 0.1001573 9.9999998e-05
v 0.060592089 0.1001573 0.000125
v 0.06022604 0.10063707 0.000125
v 0.060059824 0.1012513 0.000125
v 0.061783695 0.10283152 9.9999998e-05
v 0.062250118 0.10274956 9.9999998e-05
v 0.062618008 0.10250368 9.9999998e-05
v 0.062618008 0.10250368 0.000125
v 0.062250118 0.10274956 0.000125
v 0.061783695 0.10283152 0.000125
v 0.060592089 0.1001573 9.9999998e-05
v 0.06022604 0.10063707 9.9999998e-05
v 0.060059824 0.1012513 9.9999998e-05
v 0.060756001 0.10131023 9.9999998e-05
v 0.060884466 0.10086499 9.9999998e-05
v 0.061115141 0.10054591 9.9999998e-05
v 0.061425939 0.10035391 9.9999998e-05
v 0.061794748 0.10028991 9.9999998e-05
v 0.062236767 0.10038015 9.9999998e-05
v 0.062605114 0.10065088 9.9999998e-05
v 0.062853751 0.1010708 9.9999998e-05
v 0.06293663 0.10160859 9.9999998e-05
v 0.062856975 0.10211599 9.9999998e-05
v 0.062618008 0.10250368 9.9999998e-05
v 0.062250118 0.10274956 9.9999998e-05
v 0.061783695 0.10283152 9.9999998e-05
v 0.061205387 0.10268601 9.9999998e-05
v 0.060800204 0.10230845 9.9999998e-05
v 0.060177693 0.1023895 9.9999998e-05
v 0.06070075 0.10516316 9.9999998e-05
v 0.063386016 0.10516316 9.9999998e-05
v 0.063386016 0.1045296 9.9999998e-05
v 0.061231174 0.1045296 9.9999998e-05
v 0.060940175 0.10307831 9.9999998e-05
v 0.06143837 0.10333247 9.9999998e-05
v 0.061960506 0.10341719 9.9999998e-05
v 0.062612481 0.10329472 9.9999998e-05
v 0.063153954 0.10292728 9.9999998e-05
v 0.06351862 0.10236739 9.9999998e-05
v 0.063640175 0.10166753 9.9999998e-05
v 0.063533354 0.10098424 9.9999998e-05
v 0.063212891 0.10040041 9.9999998e-05
v 0.062598667 0.099908667 9.9999998e-05
v 0.061794748 0.099744749 9.9999998e-05
v 0.061125731 0.099847889 9.9999998e-05
v 0.062618008 0.10250368 9.9999998e-05
v 0.062856975 0.10211599 9.9999998e-05
v 0.06293663 0.10160859 9.9999998e-05
v 0.06293663 0.10160859 0.000125
v 0.062856975 0.10211599 0.000125
v 0.062618008 0.10250368 0.000125
v 0.06293663 0.10160859 9.9999998e-05
v 0.062853751 0.1010708 9.9999998e-05
v 0.062605114 0.10065088 9.9999998e-05
v 0.062605114 0.10065088 0.000125
v 0.062853751 0.1010708 0.000125
v 0.06293663 0.10160859 0.000125
v 0.062605114 0.10065088 9.9999998e-05
v 0.062236767 0.10038015 9.9999998e-05
v 0.061794748 0.10028991 9.9999998e-05
v 0.061794748 0.10028991 0.000125
v 0.062236767 0.10038015 0.000125
v 0.062605114 0.10065088 0.000125
v 0.061794748 0.10028991 9.9999998e-05
v 0.061425939 0.10035391 9.9999998e-05
v 0.061115141 0.10054591 9.9999998e-05
v 0.061115141 0.10054591 0.000125
v 0.061425939 0.10035391 0.000125
v 0.061794748 0.10028991 0.000125
v 0.061115141 0.10054591 9.9999998e-05
v 0.060884466 0.10086499 9.9999998e-05
v 0.060756001 0.10131023 9.9999998e-05
v 0.060756001 0.10131023 0.000125
v 0.060884466 0.10086499 0.000125
v 0.061115141 0.10054591 0.000125
v 0.060756001 0.10131023 9.9999998e-05
v 0.060059824 0.1012513 9.9999998e-05
v 0.060059824 0.1012513 0.000125
v 0.060756001 0.10131023 0.000125
f 1 2 4
f 4 2 3
f 5 6 10
f 10 6 9
f 9 6 7
f 9 7 8
f 11 12 14
f 14 12 13
f 15 16 20
f 20 16 19
f 19 16 17
f 19 17 18
f 21 22 24
f 24 22 23
f 25 26 30
f 30 26 29
f 29 26 27
f 29 27 28
f 31 32 34
f 34 32 33
f 35 36 40
f 40 36 39
f 39 36 37
f 39 37 38
f 41 42 44
f 44 42 43
f 45 46 50
f 50 46 49
f 49 46 47
f 49 47 48
f 51 52 54
f 54 52 53
f 55 56 60
f 60 56 59
f 59 56 57
f 59 57 58
f 61 62 64
f 64 62 63
f 65 66 99
f 99 66 98
f 98 66 67
f 98 67 97
f 97 67 68
f 97 68 96
f 96 68 69
f 96 69 95
f 95 69 94
f 94 69 70
f 94 70 93
f 93 70 71
f 93 71 92
f 92 71 72
f 92 72 91
f 91 72 73
f 91 73 74
f 91 74 90
f 90 74 75
f 90 75 89
f 89 75 76
f 89 76 88
f 88 76 77
f 88 77 87
f 87 77 78
f 87 78 86
f 86 78 79
f 86 79 85
f 85 79 84
f 84 79 83
f 83 79 80
f 83 80 82
f 82 80 81
f 100 101 103
f 103 101 102
f 104 105 109
f 109 105 108
f 108 105 106
f 108 106 107
f 110 111 115
f 115 111 114
f 114 111 112
f 114 112 113
f 117 120 116
f 116 120 121
f 116 121 150
f 150 121 122
f 150 122 149
f 149 122 123
f 149 123 124
f 118 119 117
f 117 119 120
f 149 124 148
f 148 124 125
f 148 125 147
f 147 125 126
f 147 126 146
f 146 126 127
f 146 127 145
f 145 127 144
f 144 127 128
f 144 128 143
f 143 128 129
f 143 129 142
f 142 129 130
f 142 130 141
f 141 130 131
f 141 131 140
f 140 131 132
f 140 132 139
f 139 132 133
f 139 133 134
f 134 135 139
f 139 135 138
f 138 135 136
f 138 136 137
f 151 152 156
f 156 152 155
f 155 152 153
f 155 153 154
f 157 158 162
f 162 158 161
f 161 158 159
f 161 159 160
f 163 164 168
f 168 164 167
f 167 164 165
f 167 165 166
f 169 170 174
f 174 170 173
f 173 170 171
f 173 171 172
f 175 176 180
f 180 176 179
f 179 176 177
f 179 177 178
f 181 182 184
f 184 182 183
