v 0.063005114 -0.29870001 0.22140722
v 0.062755456 -0.29870001 0.2216927
v 0.062755456 -0.29882 0.2216927
v 0.063005114 -0.29882 0.22140722
v 0.062755456 -0.29870001 0.2216927
v 0.062700973 -0.29870001 0.22192932
v 0.06268281 -0.29870001 0.22226875
v 0.06268281 -0.29882 0.22226875
v 0.062700973 -0.29882 0.22192932
v 0.062755456 -0.29882 0.2216927
v 0.063437924 -0.29870001 0.22130695
v 0.063005114 -0.29870001 0.22140722
v 0.063005114 -0.29882 0.22140722
v 0.063437924 -0.29882 0.22130695
v 0.06268281 -0.29870001 0.22226875
v 0.06268281 -0.29870001 0.224
v 0.06268281 -0.29882 0.224
v 0.06268281 -0.29882 0.22226875
v 0.064062076 -0.29870001 0.22150545
v 0.063812928 -0.29870001 0.22135658
v 0.063437924 -0.29870001 0.22130695
v 0.063437924 -0.29882 0.22130695
v 0.063812928 -0.29882 0.22135658
v 0.064062076 -0.29882 0.22150545
v 0.06268281 -0.29870001 0.224
v 0.06228581 -0.29870001 0.224
v 0.06228581 -0.29882 0.224
v 0.06268281 -0.29882 0.224
v 0.064248295 -0.29870001 0.22226875
v 0.064201741 -0.29870001 0.22179554
v 0.064062076 -0.29870001 0.22150545
v 0.064062076 -0.29882 0.22150545
v 0.064201741 -0.29882 0.22179554
v 0.064248295 -0.29882 0.22226875
v 0.06228581 -0.29870001 0.224
v 0.06228581 -0.29870001 0.22226671
v 0.06228581 -0.29882 0.22226671
v 0.06228581 -0.29882 0.224
v 0.064248295 -0.29882 0.224
v 0.064248295 -0.29882 0.22226875
v 0.064201741 -0.29882 0.22179554
v 0.064062076 -0.29882 0.22150545
v 0.063812928 -0.29882 0.22135658
v 0.063437924 -0.29882 0.22130695
v 0.063005114 -0.29882 0.22140722
v 0.062755456 -0.29882 0.2216927
v 0.062700973 -0.29882 0.22192932
v 0.06268281 -0.29882 0.22226875
v 0.06268281 -0.29882 0.224
v 0.06228581 -0.29882 0.224
v 0.06228581 -0.29882 0.22226671
v 0.062314463 -0.29882 0.22184031
v 0.062400408 -0.29882 0.22151466
v 0.062553377 -0.29882 0.22127192
v 0.062783084 -0.29882 0.22109413
v 0.063089528 -0.29882 0.22098516
v 0.063472714 -0.29882 0.22094885
v 0.063864851 -0.29882 0.22099054
v 0.064173603 -0.29882 0.22111563
v 0.064542975 -0.29882 0.22154842
v 0.064619713 -0.29882 0.22186102
v 0.064645295 -0.29882 0.22226671
v 0.064645295 -0.29882 0.224
v 0.06228581 -0.29870001 0.22226671
v 0.062314463 -0.29870001 0.22184031
v 0.062400408 -0.29870001 0.22151466
v 0.062400408 -0.29882 0.22151466
v 0.062314463 -0.29882 0.22184031
v 0.06228581 -0.29882 0.22226671
v 0.064248295 -0.29870001 0.224
v 0.064248295 -0.29870001 0.22226875
v 0.064248295 -0.29882 0.22226875
v 0.064248295 -0.29882 0.224
v 0.062400408 -0.29870001 0.22151466
v 0.062553377 -0.29870001 0.22127192
v 0.062783084 -0.29870001 0.22109413
v 0.062783084 -0.29882 0.22109413
v 0.062553377 -0.29882 0.22127192
v 0.062400408 -0.29882 0.22151466
v 0.064248295 -0.29870001 0.22226875
v 0.064248295 -0.29870001 0.224
v 0.064645295 -0.29870001 0.224
v 0.064645295 -0.29870001 0.22226671
v 0.064619713 -0.29870001 0.22186102
v 0.064542975 -0.29870001 0.22154842
v 0.064173603 -0.29870001 0.22111563
v 0.063864851 -0.29870001 0.22099054
v 0.063472714 -0.29870001 0.22094885
v 0.063089528 -0.29870001 0.22098516
v 0.062783084 -0.29870001 0.22109413
v 0.062553377 -0.29870001 0.22127192
v 0.062400408 -0.29870001 0.22151466
v 0.062314463 -0.29870001 0.22184031
v 0.06228581 -0.29870001 0.22226671
v 0.06228581 -0.29870001 0.224
v 0.06268281 -0.29870001 0.224
v 0.06268281 -0.29870001 0.22226875
v 0.062700973 -0.29870001 0.22192932
v 0.062755456 -0.29870001 0.2216927
v 0.063005114 -0.29870001 0.22140722
v 0.063437924 -0.29870001 0.22130695
v 0.063812928 -0.29870001 0.22135658
v 0.064062076 -0.29870001 0.22150545
v 0.064201741 -0.29870001 0.22179554
v 0.062783084 -0.29870001 0.22109413
v 0.063089528 -0.29870001 0.22098516
v 0.063472714 -0.29870001 0.22094885
v 0.063472714 -0.29882 0.22094885
v 0.063089528 -0.29882 0.22098516
v 0.062783084 -0.29882 0.22109413
v 0.063472714 -0.29870001 0.22094885
v 0.063864851 -0.29870001 0.22099054
v 0.064173603 -0.29870001 0.22111563
v 0.064173603 -0.29882 0.22111563
v 0.063864851 -0.29882 0.22099054
v 0.063472714 -0.29882 0.22094885
v 0.064173603 -0.29870001 0.22111563
v 0.064542975 -0.29870001 0.22154842
v 0.064542975 -0.29882 0.22154842
v 0.064173603 -0.29882 0.22111563
v 0.064542975 -0.29870001 0.22154842
v 0.064619713 -0.29870001 0.22186102
v 0.064645295 -0.29870001 0.22226671
v 0.064645295 -0.29882 0.22226671
v 0.064619713 -0.29882 0.22186102
v 0.064542975 -0.29882 0.22154842
v 0.064645295 -0.29870001 0.22226671
v 0.064645295 -0.29870001 0.224
v 0.064645295 -0.29882 0.224
v 0.064645295 -0.29882 0.22226671
v 0.064645295 -0.29870001 0.224
v 0.064248295 -0.29870001 0.224
v 0.064248295 -0.29882 0.224
v 0.064645295 -0.29882 0.224
f 1 2 4
f 4 2 3
f 5 6 10
f 10 6 9
f 9 6 7
f 9 7 8
f 11 12 14
f 14 12 13
f 15 16 18
f 18 16 17
f 19 20 24
f 24 20 23
f 23 20 21
f 23 21 22
f 25 26 28
f 28 26 27
f 29 30 34
f 34 30 33
f 33 30 31
f 33 31 32
f 35 36 38
f 38 36 37
f 39 40 63
f 63 40 62
f 62 40 61
f 61 40 41
f 61 41 60
f 60 41 42
f 60 42 59
f 59 42 43
f 59 43 58
f 58 43 57
f 57 43 44
f 57 44 56
f 56 44 45
f 56 45 55
f 55 45 46
f 55 46 54
f 54 46 53
f 53 46 47
f 53 47 52
f 52 47 51
f 51 47 48
f 51 48 50
f 50 48 49
f 64 65 69
f 69 65 68
f 68 65 66
f 68 66 67
f 70 71 73
f 73 71 72
f 74 75 79
f 79 75 78
f 78 75 76
f 78 76 77
f 81 82 80
f 80 82 83
f 80 83 84
f 80 84 104
f 104 84 85
f 104 85 103
f 103 85 86
f 103 86 102
f 102 86 87
f 102 87 88
f 102 88 101
f 101 88 89
f 101 89 100
f 100 89 90
f 100 90 99
f 99 90 91
f 99 91 92
f 99 92 98
f 98 92 93
f 98 93 94
f 98 94 97
f 97 94 95
f 97 95 96
f 105 106 110
f 110 106 109
f 109 106 107
f 109 107 108
f 111 112 116
f 116 112 115
f 115 112 113
f 115 113 114
f 117 118 120
f 120 118 119
f 121 122 126
f 126 122 125
f 125 122 123
f 125 123 124
f 127 128 130
f 130 128 129
f 131 132 134
f 134 132 133
