v 0.12662102 0.14200232 9.9999998e-05
v 0.12668214 0.14109263 9.9999998e-05
v 0.12686548 0.14039795 9.9999998e-05
v 0.12686548 0.14039795 0.000125
v 0.12668214 0.14109263 0.000125
v 0.12662102 0.14200232 0.000125
v 0.12762293 0.14077776 9.9999998e-05
v 0.12750669 0.14128254 9.9999998e-05
v 0.12746794 0.14200668 9.9999998e-05
v 0.12746794 0.14200668 0.000125
v 0.12750669 0.14128254 0.000125
v 0.12762293 0.14077776 0.000125
v 0.13080765 0.1457 0.000125
v 0.13080765 0.14200668 0.000125
v 0.13078281 0.14145307 0.000125
v 0.13070833 0.14099713 0.000125
v 0.13058417 0.14063889 0.000125
v 0.13041037 0.14037831 0.000125
v 0.12987886 0.14006071 0.000125
v 0.12907887 0.13995484 0.000125
v 0.12857518 0.14000833 0.000125
v 0.12815554 0.14016876 0.000125
v 0.12783357 0.14042797 0.000125
v 0.12762293 0.14077776 0.000125
v 0.12750669 0.14128254 0.000125
v 0.12746794 0.14200668 0.000125
v 0.12746794 0.1457 0.000125
v 0.12662102 0.1457 0.000125
v 0.12662102 0.14200232 0.000125
v 0.12668214 0.14109263 0.000125
v 0.12686548 0.14039795 0.000125
v 0.12719182 0.13988008 0.000125
v 0.12768187 0.13950082 0.000125
v 0.12833561 0.13926835 0.000125
v 0.12915308 0.13919086 0.000125
v 0.12998963 0.1392798 0.000125
v 0.13064829 0.13954666 0.000125
v 0.13113015 0.13995539 0.000125
v 0.13143629 0.14046999 0.000125
v 0.1316 0.14113684 0.000125
v 0.13165457 0.14200232 0.000125
v 0.13165457 0.1457 0.000125
v 0.13165457 0.1457 9.9999998e-05
v 0.13080765 0.1457 9.9999998e-05
v 0.13080765 0.1457 0.000125
v 0.13165457 0.1457 0.000125
v 0.12746794 0.14200668 9.9999998e-05
v 0.12746794 0.1457 9.9999998e-05
v 0.12746794 0.1457 0.000125
v 0.12746794 0.14200668 0.000125
v 0.12746794 0.1457 9.9999998e-05
v 0.12662102 0.1457 9.9999998e-05
v 0.12662102 0.1457 0.000125
v 0.12746794 0.1457 0.000125
v 0.13143629 0.14046999 9.9999998e-05
v 0.1316 0.14113684 9.9999998e-05
v 0.13165457 0.14200232 9.9999998e-05
v 0.13165457 0.14200232 0.000125
v 0.1316 0.14113684 0.000125
v 0.13143629 0.14046999 0.000125
v 0.12815554 0.14016876 9.9999998e-05
v 0.12783357 0.14042797 9.9999998e-05
v 0.12762293 0.14077776 9.9999998e-05
v 0.12762293 0.14077776 0.000125
v 0.12783357 0.14042797 0.000125
v 0.12815554 0.14016876 0.000125
v 0.13080765 0.14200668 9.9999998e-05
v 0.13078281 0.14145307 9.9999998e-05
v 0.13070833 0.14099713 9.9999998e-05
v 0.13058417 0.14063889 9.9999998e-05
v 0.13041037 0.14037831 9.9999998e-05
v 0.13041037 0.14037831 0.000125
v 0.13058417 0.14063889 0.000125
v 0.13070833 0.14099713 0.000125
v 0.13078281 0.14145307 0.000125
v 0.13080765 0.14200668 0.000125
v 0.12662102 0.1457 9.9999998e-05
v 0.12662102 0.14200232 9.9999998e-05
v 0.12662102 0.14200232 0.000125
v 0.12662102 0.1457 0.000125
v 0.13064829 0.13954666 9.9999998e-05
v 0.13113015 0.13995539 9.9999998e-05
v 0.13143629 0.14046999 9.9999998e-05
v 0.13143629 0.14046999 0.000125
v 0.13113015 0.13995539 0.000125
v 0.13064829 0.13954666 0.000125
v 0.12907887 0.13995484 9.9999998e-05
v 0.12857518 0.14000833 9.9999998e-05
v 0.12815554 0.14016876 9.9999998e-05
v 0.12815554 0.14016876 0.000125
v 0.12857518 0.14000833 0.000125
v 0.12907887 0.13995484 0.000125
v 0.12686548 0.14039795 9.9999998e-05
v 0.12719182 0.13988008 9.9999998e-05
v 0.12768187 0.13950082 9.9999998e-05
v 0.12768187 0.13950082 0.000125
v 0.12719182 0.13988008 0.000125
v 0.12686548 0.14039795 0.000125
v 0.13080765 0.14200668 9.9999998e-05
v 0.13080765 0.1457 9.9999998e-05
v 0.13165457 0.1457 9.9999998e-05
v 0.13165457 0.14200232 9.9999998e-05
v 0.1316 0.14113684 9.9999998e-05
v 0.13143629 0.14046999 9.9999998e-05
v 0.13113015 0.13995539 9.9999998e-05
v 0.13064829 0.13954666 9.9999998e-05
v 0.12998963 0.1392798 9.9999998e-05
v 0.12915308 0.13919086 9.9999998e-05
v 0.12833561 0.13926835 9.9999998e-05
v 0.12768187 0.13950082 9.9999998e-05
v 0.12719182 0.13988008 9.9999998e-05
v 0.12686548 0.14039795 9.9999998e-05
v 0.12668214 0.14109263 9.9999998e-05
v 0.12662102 0.14200232 9.9999998e-05
v 0.12662102 0.1457 9.9999998e-05
v 0.12746794 0.1457 9.9999998e-05
v 0.12746794 0.14200668 9.9999998e-05
v 0.12750669 0.14128254 9.9999998e-05
v 0.12762293 0.14077776 9.9999998e-05
v 0.12783357 0.14042797 9.9999998e-05
v 0.12815554 0.14016876 9.9999998e-05
v 0.12857518 0.14000833 9.9999998e-05
v 0.12907887 0.13995484 9.9999998e-05
v 0.12987886 0.14006071 9.9999998e-05
v 0.13041037 0.14037831 9.9999998e-05
v 0.13058417 0.14063889 9.9999998e-05
v 0.13070833 0.14099713 9.9999998e-05
v 0.13078281 0.14145307 9.9999998e-05
v 0.12915308 0.13919086 9.9999998e-05
v 0.12998963 0.1392798 9.9999998e-05
v 0.13064829 0.13954666 9.9999998e-05
v 0.13064829 0.13954666 0.000125
v 0.12998963 0.1392798 0.000125
v 0.12915308 0.13919086 0.000125
v 0.12768187 0.13950082 9.9999998e-05
v 0.12833561 0.13926835 9.9999998e-05
v 0.12915308 0.13919086 9.9999998e-05
v 0.12915308 0.13919086 0.000125
v 0.12833561 0.13926835 0.000125
v 0.12768187 0.13950082 0.000125
v 0.13165457 0.14200232 9.9999998e-05
v 0.13165457 0.1457 9.9999998e-05
v 0.13165457 0.1457 0.000125
v 0.13165457 0.14200232 0.000125
v 0.13080765 0.1457 9.9999998e-05
v 0.13080765 0.14200668 9.9999998e-05
v 0.13080765 0.14200668 0.000125
v 0.13080765 0.1457 0.000125
v 0.13041037 0.14037831 9.9999998e-05
v 0.12987886 0.14006071 9.9999998e-05
v 0.12907887 0.13995484 9.9999998e-05
v 0.12907887 0.13995484 0.000125
v 0.12987886 0.14006071 0.000125
v 0.13041037 0.14037831 0.000125
f 1 2 6
f 6 2 5
f 5 2 3
f 5 3 4
f 7 8 12
f 12 8 11
f 11 8 9
f 11 9 10
f 13 14 42
f 42 14 41
f 41 14 15
f 41 15 40
f 40 15 16
f 40 16 39
f 39 16 17
f 39 17 38
f 38 17 18
f 38 18 37
f 37 18 19
f 37 19 36
f 36 19 35
f 35 19 20
f 35 20 21
f 35 21 34
f 34 21 22
f 34 22 33
f 33 22 23
f 33 23 32
f 32 23 24
f 32 24 31
f 31 24 25
f 31 25 30
f 30 25 29
f 29 25 26
f 29 26 28
f 28 26 27
f 43 44 46
f 46 44 45
f 47 48 50
f 50 48 49
f 51 52 54
f 54 52 53
f 55 56 60
f 60 56 59
f 59 56 57
f 59 57 58
f 61 62 66
f 66 62 65
f 65 62 63
f 65 63 64
f 67 68 76
f 76 68 75
f 75 68 69
f 75 69 74
f 74 69 70
f 74 70 73
f 73 70 71
f 73 71 72
f 77 78 80
f 80 78 79
f 81 82 86
f 86 82 85
f 85 82 83
f 85 83 84
f 87 88 92
f 92 88 91
f 91 88 89
f 91 89 90
f 93 94 98
f 98 94 97
f 97 94 95
f 97 95 96
f 100 101 99
f 99 101 102
f 99 102 128
f 128 102 103
f 128 103 127
f 127 103 104
f 127 104 126
f 126 104 105
f 126 105 125
f 125 105 106
f 125 106 124
f 124 106 107
f 124 107 108
f 109 122 108
f 108 122 123
f 108 123 124
f 122 109 121
f 121 109 110
f 121 110 120
f 120 110 111
f 120 111 119
f 119 111 112
f 119 112 118
f 118 112 113
f 118 113 114
f 118 114 117
f 117 114 115
f 117 115 116
f 129 130 134
f 134 130 133
f 133 130 131
f 133 131 132
f 135 136 140
f 140 136 139
f 139 136 137
f 139 137 138
f 141 142 144
f 144 142 143
f 145 146 148
f 148 146 147
f 149 150 154
f 154 150 153
f 153 150 151
f 153 151 152
