v 0.12384857 -9.9999998e-05 0.066354704
v 0.12449352 -9.9999998e-05 0.066699862
v 0.12505867 -9.9999998e-05 0.067107778
v 0.12554399 -9.9999998e-05 0.067578444
v 0.12594953 -9.9999998e-05 0.068111868
v 0.12594953 -0.00022 0.068111868
v 0.12554399 -0.00022 0.067578444
v 0.12505867 -0.00022 0.067107778
v 0.12449352 -0.00022 0.066699862
v 0.12384857 -0.00022 0.066354704
v 0.12276262 -9.9999998e-05 0.072603002
v 0.12362483 -9.9999998e-05 0.072175989
v 0.12420327 -9.9999998e-05 0.071658936
v 0.12420327 -0.00022 0.071658936
v 0.12362483 -0.00022 0.072175989
v 0.12276262 -0.00022 0.072603002
v 0.11712551 -9.9999998e-05 0.066360164
v 0.11790348 -9.9999998e-05 0.066083221
v 0.11876945 -9.9999998e-05 0.065885401
v 0.1197234 -9.9999998e-05 0.065766711
v 0.12076535 -9.9999998e-05 0.065727148
v 0.12076535 -0.00022 0.065727148
v 0.1197234 -0.00022 0.065766711
v 0.11876945 -0.00022 0.065885401
v 0.11790348 -0.00022 0.066083221
v 0.11712551 -0.00022 0.066360164
v 0.12463984 -9.9999998e-05 0.07034379
v 0.12452661 -9.9999998e-05 0.069630284
v 0.12418691 -9.9999998e-05 0.068974075
v 0.12418691 -0.00022 0.068974075
v 0.12452661 -0.00022 0.069630284
v 0.12463984 -0.00022 0.07034379
v 0.12420327 -9.9999998e-05 0.071658936
v 0.1245307 -9.9999998e-05 0.071049113
v 0.12463984 -9.9999998e-05 0.07034379
v 0.12463984 -0.00022 0.07034379
v 0.1245307 -0.00022 0.071049113
v 0.12420327 -0.00022 0.071658936
v 0.11511733 -9.9999998e-05 0.075871758
v 0.11582538 -9.9999998e-05 0.075054569
v 0.11682537 -9.9999998e-05 0.07438199
v 0.11682537 -0.00022 0.07438199
v 0.11582538 -0.00022 0.075054569
v 0.11511733 -0.00022 0.075871758
v 0.12594953 -9.9999998e-05 0.068111868
v 0.12649796 -9.9999998e-05 0.069278307
v 0.12668077 -9.9999998e-05 0.070518417
v 0.12668077 -0.00022 0.070518417
v 0.12649796 -0.00022 0.069278307
v 0.12594953 -0.00022 0.068111868
v 0.11394406 -9.9999998e-05 0.071140518
v 0.11401535 -9.9999998e-05 0.070359139
v 0.11418554 -9.9999998e-05 0.06961937
v 0.11445464 -9.9999998e-05 0.068921213
v 0.11482265 -9.9999998e-05 0.068264666
v 0.11482265 -0.00022 0.068264666
v 0.11445464 -0.00022 0.068921213
v 0.11418554 -0.00022 0.06961937
v 0.11401535 -0.00022 0.070359139
v 0.11394406 -0.00022 0.071140518
v 0.11455525 -9.9999998e-05 0.077863574
v 0.11469577 -9.9999998e-05 0.076814461
v 0.11511733 -9.9999998e-05 0.075871758
v 0.11511733 -0.00022 0.075871758
v 0.11469577 -0.00022 0.076814461
v 0.11455525 -0.00022 0.077863574
v 0.11725102 -9.9999998e-05 0.081727152
v 0.11663029 -9.9999998e-05 0.081422577
v 0.11608868 -9.9999998e-05 0.081054573
v 0.11562619 -9.9999998e-05 0.080623121
v 0.11524283 -9.9999998e-05 0.080128241
v 0.11524283 -0.00022 0.080128241
v 0.11562619 -0.00022 0.080623121
v 0.11608868 -0.00022 0.081054573
v 0.11663029 -0.00022 0.081422577
v 0.11725102 -0.00022 0.081727152
v 0.11594133 -9.9999998e-05 0.071315141
v 0.11394406 -9.9999998e-05 0.071140518
v 0.11394406 -0.00022 0.071140518
v 0.11594133 -0.00022 0.071315141
v 0.11821146 -9.9999998e-05 0.068100953
v 0.1172633 -9.9999998e-05 0.068649383
v 0.11660164 -9.9999998e-05 0.069345155
v 0.11660164 -0.00022 0.069345155
v 0.1172633 -0.00022 0.068649383
v 0.11821146 -0.00022 0.068100953
v 0.12668077 -9.9999998e-05 0.070518417
v 0.12651432 -9.9999998e-05 0.071731238
v 0.12601501 -9.9999998e-05 0.072793994
v 0.12601501 -0.00022 0.072793994
v 0.12651432 -0.00022 0.071731238
v 0.12668077 -0.00022 0.070518417
v 0.11682537 -9.9999998e-05 0.07438199
v 0.11734993 -9.9999998e-05 0.074143586
v 0.11803956 -9.9999998e-05 0.073897681
v 0.11889427 -9.9999998e-05 0.073644271
v 0.11991405 -9.9999998e-05 0.073383355
v 0.11991405 -0.00022 0.073383355
v 0.11889427 -0.00022 0.073644271
v 0.11803956 -0.00022 0.073897681
v 0.11734993 -0.00022 0.074143586
v 0.11682537 -0.00022 0.07438199
v 0.11524283 -9.9999998e-05 0.080128241
v 0.11472714 -9.9999998e-05 0.079035468
v 0.11455525 -9.9999998e-05 0.077863574
v 0.11455525 -0.00022 0.077863574
v 0.11472714 -0.00022 0.079035468
v 0.11524283 -0.00022 0.080128241
v 0.12418691 -9.9999998e-05 0.068974075
v 0.12361527 -9.9999998e-05 0.068413367
v 0.12280627 -9.9999998e-05 0.067986355
v 0.12280627 -0.00022 0.067986355
v 0.12361527 -0.00022 0.068413367
v 0.12418691 -0.00022 0.068974075
v 0.11394406 -0.00022 0.071140518
v 0.11401535 -0.00022 0.070359139
v 0.11418554 -0.00022 0.06961937
v 0.11445464 -0.00022 0.068921213
v 0.11482265 -0.00022 0.068264666
v 0.11527967 -0.00022 0.067668824
v 0.11581583 -0.00022 0.067152796
v 0.1164311 -0.00022 0.066716576
v 0.11712551 -0.00022 0.066360164
v 0.11790348 -0.00022 0.066083221
v 0.11876945 -0.00022 0.065885401
v 0.1197234 -0.00022 0.065766711
v 0.12076535 -0.00022 0.065727148
v 0.12239291 -0.00022 0.065884037
v 0.12384857 -0.00022 0.066354704
v 0.12449352 -0.00022 0.066699862
v 0.12505867 -0.00022 0.067107778
v 0.12554399 -0.00022 0.067578444
v 0.12594953 -0.00022 0.068111868
v 0.12649796 -0.00022 0.069278307
v 0.12668077 -0.00022 0.070518417
v 0.12651432 -0.00022 0.071731238
v 0.12601501 -0.00022 0.072793994
v 0.12563643 -0.00022 0.073266368
v 0.12516644 -0.00022 0.073695769
v 0.12460505 -0.00022 0.074082193
v 0.12395226 -0.00022 0.074425645
v 0.12337074 -0.00022 0.074653139
v 0.12258663 -0.00022 0.074899044
v 0.12159993 -0.00022 0.075163369
v 0.12041064 -0.00022 0.07544611
v 0.11924318 -0.00022 0.075736356
v 0.11832196 -0.00022 0.076023192
v 0.117647 -0.00022 0.076306615
v 0.11721828 -0.00022 0.076586628
v 0.11675171 -0.00022 0.077219644
v 0.11659618 -0.00022 0.078005457
v 0.1166511 -0.00022 0.078483968
v 0.11681582 -0.00022 0.07892633
v 0.11709039 -0.00022 0.079332538
v 0.11747477 -0.00022 0.079702592
v 0.11797919 -0.00022 0.080010576
v 0.11861392 -0.00022 0.08023056
v 0.11937892 -0.00022 0.080362549
v 0.12027422 -0.00022 0.080406551
v 0.12114017 -0.00022 0.080358114
v 0.12189359 -0.00022 0.080212822
v 0.12253445 -0.00022 0.07997067
v 0.12306275 -0.00022 0.079631648
v 0.12348601 -0.00022 0.079197817
v 0.12381173 -0.00022 0.078671212
v 0.12403991 -0.00022 0.078051839
v 0.12417053 -0.00022 0.077339697
v 0.12620055 -0.00022 0.077492495
v 0.12597681 -0.00022 0.078826737
v 0.12541473 -0.00022 0.080013638
v 0.12500989 -0.00022 0.080536489
v 0.12452661 -0.00022 0.080991812
v 0.12396487 -0.00022 0.081379604
v 0.12332469 -0.00022 0.081699858
v 0.12186085 -0.00022 0.082129602
v 0.1201869 -0.00022 0.082272854
v 0.1186453 -0.00022 0.082136421
v 0.11725102 -0.00022 0.081727152
v 0.11663029 -0.00022 0.081422577
v 0.11608868 -0.00022 0.081054573
v 0.11562619 -0.00022 0.080623121
v 0.11524283 -0.00022 0.080128241
v 0.11472714 -0.00022 0.079035468
v 0.11455525 -0.00022 0.077863574
v 0.11469577 -0.00022 0.076814461
v 0.11511733 -0.00022 0.075871758
v 0.11582538 -0.00022 0.075054569
v 0.11682537 -0.00022 0.07438199
v 0.11734993 -0.00022 0.074143586
v 0.11803956 -0.00022 0.073897681
v 0.11889427 -0.00022 0.073644271
v 0.11991405 -0.00022 0.073383355
v 0.12091883 -0.00022 0.073136082
v 0.12172852 -0.00022 0.072923598
v 0.12234311 -0.00022 0.072745905
v 0.12276262 -0.00022 0.072603002
v 0.12362483 -0.00022 0.072175989
v 0.12420327 -0.00022 0.071658936
v 0.1245307 -0.00022 0.071049113
v 0.12463984 -0.00022 0.07034379
v 0.12452661 -0.00022 0.069630284
v 0.12418691 -0.00022 0.068974075
v 0.12361527 -0.00022 0.068413367
v 0.12280627 -0.00022 0.067986355
v 0.12180764 -0.00022 0.067716231
v 0.12066712 -0.00022 0.06762619
v 0.11937108 -0.00022 0.067744884
v 0.11821146 -0.00022 0.068100953
v 0.1172633 -0.00022 0.068649383
v 0.11660164 -0.00022 0.069345155
v 0.11617735 -0.00022 0.070222373
v 0.11594133 -0.00022 0.071315141
v 0.11482265 -9.9999998e-05 0.068264666
v 0.11445464 -9.9999998e-05 0.068921213
v 0.11418554 -9.9999998e-05 0.06961937
v 0.11401535 -9.9999998e-05 0.070359139
v 0.11394406 -9.9999998e-05 0.071140518
v 0.11594133 -9.9999998e-05 0.071315141
v 0.11617735 -9.9999998e-05 0.070222373
v 0.11660164 -9.9999998e-05 0.069345155
v 0.1172633 -9.9999998e-05 0.068649383
v 0.11821146 -9.9999998e-05 0.068100953
v 0.11937108 -9.9999998e-05 0.067744884
v 0.12066712 -9.9999998e-05 0.06762619
v 0.12180764 -9.9999998e-05 0.067716231
v 0.12280627 -9.9999998e-05 0.067986355
v 0.12361527 -9.9999998e-05 0.068413367
v 0.12418691 -9.9999998e-05 0.068974075
v 0.12452661 -9.9999998e-05 0.069630284
v 0.12463984 -9.9999998e-05 0.07034379
v 0.1245307 -9.9999998e-05 0.071049113
v 0.12420327 -9.9999998e-05 0.071658936
v 0.12362483 -9.9999998e-05 0.072175989
v 0.12276262 -9.9999998e-05 0.072603002
v 0.12234311 -9.9999998e-05 0.072745905
v 0.12172852 -9.9999998e-05 0.072923598
v 0.12091883 -9.9999998e-05 0.073136082
v 0.11991405 -9.9999998e-05 0.073383355
v 0.11889427 -9.9999998e-05 0.073644271
v 0.11803956 -9.9999998e-05 0.073897681
v 0.11734993 -9.9999998e-05 0.074143586
v 0.11682537 -9.9999998e-05 0.07438199
v 0.11582538 -9.9999998e-05 0.075054569
v 0.11511733 -9.9999998e-05 0.075871758
v 0.11469577 -9.9999998e-05 0.076814461
v 0.11455525 -9.9999998e-05 0.077863574
v 0.11472714 -9.9999998e-05 0.079035468
v 0.11524283 -9.9999998e-05 0.080128241
v 0.11562619 -9.9999998e-05 0.080623121
v 0.11608868 -9.9999998e-05 0.081054573
v 0.11663029 -9.9999998e-05 0.081422577
v 0.11725102 -9.9999998e-05 0.081727152
v 0.1186453 -9.9999998e-05 0.082136421
v 0.1201869 -9.9999998e-05 0.082272854
v 0.12186085 -9.9999998e-05 0.082129602
v 0.12332469 -9.9999998e-05 0.081699858
v 0.12396487 -9.9999998e-05 0.081379604
v 0.12452661 -9.9999998e-05 0.080991812
v 0.12500989 -9.9999998e-05 0.080536489
v 0.12541473 -9.9999998e-05 0.080013638
v 0.12597681 -9.9999998e-05 0.078826737
v 0.12620055 -9.9999998e-05 0.077492495
v 0.12417053 -9.9999998e-05 0.077339697
v 0.12403991 -9.9999998e-05 0.078051839
v 0.12381173 -9.9999998e-05 0.078671212
v 0.12348601 -9.9999998e-05 0.079197817
v 0.12306275 -9.9999998e-05 0.079631648
v 0.12253445 -9.9999998e-05 0.07997067
v 0.12189359 -9.9999998e-05 0.080212822
v 0.12114017 -9.9999998e-05 0.080358114
v 0.12027422 -9.9999998e-05 0.080406551
v 0.11937892 -9.9999998e-05 0.080362549
v 0.11861392 -9.9999998e-05 0.08023056
v 0.11797919 -9.9999998e-05 0.080010576
v 0.11747477 -9.9999998e-05 0.079702592
v 0.11709039 -9.9999998e-05 0.079332538
v 0.11681582 -9.9999998e-05 0.07892633
v 0.1166511 -9.9999998e-05 0.078483968
v 0.11659618 -9.9999998e-05 0.078005457
v 0.11675171 -9.9999998e-05 0.077219644
v 0.11721828 -9.9999998e-05 0.076586628
v 0.117647 -9.9999998e-05 0.076306615
v 0.11832196 -9.9999998e-05 0.076023192
v 0.11924318 -9.9999998e-05 0.075736356
v 0.12041064 -9.9999998e-05 0.07544611
v 0.12159993 -9.9999998e-05 0.075163369
v 0.12258663 -9.9999998e-05 0.074899044
v 0.12337074 -9.9999998e-05 0.074653139
v 0.12395226 -9.9999998e-05 0.074425645
v 0.12460505 -9.9999998e-05 0.074082193
v 0.12516644 -9.9999998e-05 0.073695769
v 0.12563643 -9.9999998e-05 0.073266368
v 0.12601501 -9.9999998e-05 0.072793994
v 0.12651432 -9.9999998e-05 0.071731238
v 0.12668077 -9.9999998e-05 0.070518417
v 0.12649796 -9.9999998e-05 0.069278307
v 0.12594953 -9.9999998e-05 0.068111868
v 0.12554399 -9.9999998e-05 0.067578444
v 0.12505867 -9.9999998e-05 0.067107778
v 0.12449352 -9.9999998e-05 0.066699862
v 0.12384857 -9.9999998e-05 0.066354704
v 0.12239291 -9.9999998e-05 0.065884037
v 0.12076535 -9.9999998e-05 0.065727148
v 0.1197234 -9.9999998e-05 0.065766711
v 0.11876945 -9.9999998e-05 0.065885401
v 0.11790348 -9.9999998e-05 0.066083221
v 0.11712551 -9.9999998e-05 0.066360164
v 0.1164311 -9.9999998e-05 0.066716576
v 0.11581583 -9.9999998e-05 0.067152796
v 0.11527967 -9.9999998e-05 0.067668824
v 0.12076535 -9.9999998e-05 0.065727148
v 0.12239291 -9.9999998e-05 0.065884037
v 0.12384857 -9.9999998e-05 0.066354704
v 0.12384857 -0.00022 0.066354704
v 0.12239291 -0.00022 0.065884037
v 0.12076535 -0.00022 0.065727148
v 0.11991405 -9.9999998e-05 0.073383355
v 0.12091883 -9.9999998e-05 0.073136082
v 0.12172852 -9.9999998e-05 0.072923598
v 0.12234311 -9.9999998e-05 0.072745905
v 0.12276262 -9.9999998e-05 0.072603002
v 0.12276262 -0.00022 0.072603002
v 0.12234311 -0.00022 0.072745905
v 0.12172852 -0.00022 0.072923598
v 0.12091883 -0.00022 0.073136082
v 0.11991405 -0.00022 0.073383355
v 0.11482265 -9.9999998e-05 0.068264666
v 0.11527967 -9.9999998e-05 0.067668824
v 0.11581583 -9.9999998e-05 0.067152796
v 0.1164311 -9.9999998e-05 0.066716576
v 0.11712551 -9.9999998e-05 0.066360164
v 0.11712551 -0.00022 0.066360164
v 0.1164311 -0.00022 0.066716576
v 0.11581583 -0.00022 0.067152796
v 0.11527967 -0.00022 0.067668824
v 0.11482265 -0.00022 0.068264666
v 0.11660164 -9.9999998e-05 0.069345155
v 0.11617735 -9.9999998e-05 0.070222373
v 0.11594133 -9.9999998e-05 0.071315141
v 0.11594133 -0.00022 0.071315141
v 0.11617735 -0.00022 0.070222373
v 0.11660164 -0.00022 0.069345155
v 0.12066712 -9.9999998e-05 0.06762619
v 0.11937108 -9.9999998e-05 0.067744884
v 0.11821146 -9.9999998e-05 0.068100953
v 0.11821146 -0.00022 0.068100953
v 0.11937108 -0.00022 0.067744884
v 0.12066712 -0.00022 0.06762619
v 0.12280627 -9.9999998e-05 0.067986355
v 0.12180764 -9.9999998e-05 0.067716231
v 0.12066712 -9.9999998e-05 0.06762619
v 0.12066712 -0.00022 0.06762619
v 0.12180764 -0.00022 0.067716231
v 0.12280627 -0.00022 0.067986355
v 0.12027422 -9.9999998e-05 0.080406551
v 0.12114017 -9.9999998e-05 0.080358114
v 0.12189359 -9.9999998e-05 0.080212822
v 0.12253445 -9.9999998e-05 0.07997067
v 0.12306275 -9.9999998e-05 0.079631648
v 0.12306275 -0.00022 0.079631648
v 0.12253445 -0.00022 0.07997067
v 0.12189359 -0.00022 0.080212822
v 0.12114017 -0.00022 0.080358114
v 0.12027422 -0.00022 0.080406551
v 0.12306275 -9.9999998e-05 0.079631648
v 0.12348601 -9.9999998e-05 0.079197817
v 0.12381173 -9.9999998e-05 0.078671212
v 0.12403991 -9.9999998e-05 0.078051839
v 0.12417053 -9.9999998e-05 0.077339697
v 0.12417053 -0.00022 0.077339697
v 0.12403991 -0.00022 0.078051839
v 0.12381173 -0.00022 0.078671212
v 0.12348601 -0.00022 0.079197817
v 0.12306275 -0.00022 0.079631648
v 0.11747477 -9.9999998e-05 0.079702592
v 0.11797919 -9.9999998e-05 0.080010576
v 0.11861392 -9.9999998e-05 0.08023056
v 0.11937892 -9.9999998e-05 0.080362549
v 0.12027422 -9.9999998e-05 0.080406551
v 0.12027422 -0.00022 0.080406551
v 0.11937892 -0.00022 0.080362549
v 0.11861392 -0.00022 0.08023056
v 0.11797919 -0.00022 0.080010576
v 0.11747477 -0.00022 0.079702592
v 0.12417053 -9.9999998e-05 0.077339697
v 0.12620055 -9.9999998e-05 0.077492495
v 0.12620055 -0.00022 0.077492495
v 0.12417053 -0.00022 0.077339697
v 0.11659618 -9.9999998e-05 0.078005457
v 0.1166511 -9.9999998e-05 0.078483968
v 0.11681582 -9.9999998e-05 0.07892633
v 0.11709039 -9.9999998e-05 0.079332538
v 0.11747477 -9.9999998e-05 0.079702592
v 0.11747477 -0.00022 0.079702592
v 0.11709039 -0.00022 0.079332538
v 0.11681582 -0.00022 0.07892633
v 0.1166511 -0.00022 0.078483968
v 0.11659618 -0.00022 0.078005457
v 0.12620055 -9.9999998e-05 0.077492495
v 0.12597681 -9.9999998e-05 0.078826737
v 0.12541473 -9.9999998e-05 0.080013638
v 0.12541473 -0.00022 0.080013638
v 0.12597681 -0.00022 0.078826737
v 0.12620055 -0.00022 0.077492495
v 0.11721828 -9.9999998e-05 0.076586628
v 0.11675171 -9.9999998e-05 0.077219644
v 0.11659618 -9.9999998e-05 0.078005457
v 0.11659618 -0.00022 0.078005457
v 0.11675171 -0.00022 0.077219644
v 0.11721828 -0.00022 0.076586628
v 0.12541473 -9.9999998e-05 0.080013638
v 0.12500989 -9.9999998e-05 0.080536489
v 0.12452661 -9.9999998e-05 0.080991812
v 0.12396487 -9.9999998e-05 0.081379604
v 0.12332469 -9.9999998e-05 0.081699858
v 0.12332469 -0.00022 0.081699858
v 0.12396487 -0.00022 0.081379604
v 0.12452661 -0.00022 0.080991812
v 0.12500989 -0.00022 0.080536489
v 0.12541473 -0.00022 0.080013638
v 0.12041064 -9.9999998e-05 0.07544611
v 0.11924318 -9.9999998e-05 0.075736356
v 0.11832196 -9.9999998e-05 0.076023192
v 0.117647 -9.9999998e-05 0.076306615
v 0.11721828 -9.9999998e-05 0.076586628
v 0.11721828 -0.00022 0.076586628
v 0.117647 -0.00022 0.076306615
v 0.11832196 -0.00022 0.076023192
v 0.11924318 -0.00022 0.075736356
v 0.12041064 -0.00022 0.07544611
v 0.12332469 -9.9999998e-05 0.081699858
v 0.12186085 -9.9999998e-05 0.082129602
v 0.1201869 -9.9999998e-05 0.082272854
v 0.1201869 -0.00022 0.082272854
v 0.12186085 -0.00022 0.082129602
v 0.12332469 -0.00022 0.081699858
v 0.12395226 -9.9999998e-05 0.074425645
v 0.12337074 -9.9999998e-05 0.074653139
v 0.12258663 -9.9999998e-05 0.074899044
v 0.12159993 -9.9999998e-05 0.075163369
v 0.12041064 -9.9999998e-05 0.07544611
v 0.12041064 -0.00022 0.07544611
v 0.12159993 -0.00022 0.075163369
v 0.12258663 -0.00022 0.074899044
v 0.12337074 -0.00022 0.074653139
v 0.12395226 -0.00022 0.074425645
v 0.1201869 -9.9999998e-05 0.082272854
v 0.1186453 -9.9999998e-05 0.082136421
v 0.11725102 -9.9999998e-05 0.081727152
v 0.11725102 -0.00022 0.081727152
v 0.1186453 -0.00022 0.082136421
v 0.1201869 -0.00022 0.082272854
v 0.12601501 -9.9999998e-05 0.072793994
v 0.12563643 -9.9999998e-05 0.073266368
v 0.12516644 -9.9999998e-05 0.073695769
v 0.12460505 -9.9999998e-05 0.074082193
v 0.12395226 -9.9999998e-05 0.074425645
v 0.12395226 -0.00022 0.074425645
v 0.12460505 -0.00022 0.074082193
v 0.12516644 -0.00022 0.073695769
v 0.12563643 -0.00022 0.073266368
v 0.12601501 -0.00022 0.072793994
f 1 2 10
f 10 2 9
f 9 2 3
f 9 3 8
f 8 3 4
f 8 4 7
f 7 4 5
f 7 5 6
f 11 12 16
f 16 12 15
f 15 12 13
f 15 13 14
f 17 18 26
f 26 18 25
f 25 18 19
f 25 19 24
f 24 19 20
f 24 20 23
f 23 20 21
f 23 21 22
f 27 28 32
f 32 28 31
f 31 28 29
f 31 29 30
f 33 34 38
f 38 34 37
f 37 34 35
f 37 35 36
f 39 40 44
f 44 40 43
f 43 40 41
f 43 41 42
f 45 46 50
f 50 46 49
f 49 46 47
f 49 47 48
f 51 52 60
f 60 52 59
f 59 52 53
f 59 53 58
f 58 53 54
f 58 54 57
f 57 54 55
f 57 55 56
f 61 62 66
f 66 62 65
f 65 62 63
f 65 63 64
f 67 68 76
f 76 68 75
f 75 68 69
f 75 69 74
f 74 69 70
f 74 70 73
f 73 70 71
f 73 71 72
f 77 78 80
f 80 78 79
f 81 82 86
f 86 82 85
f 85 82 83
f 85 83 84
f 87 88 92
f 92 88 91
f 91 88 89
f 91 89 90
f 93 94 102
f 102 94 101
f 101 94 95
f 101 95 100
f 100 95 96
f 100 96 99
f 99 96 97
f 99 97 98
f 103 104 108
f 108 104 107
f 107 104 105
f 107 105 106
f 109 110 114
f 114 110 113
f 113 110 111
f 113 111 112
f 115 116 212
f 212 116 211
f 211 116 117
f 211 117 118
f 118 119 211
f 211 119 210
f 210 119 120
f 210 120 121
f 210 121 209
f 209 121 122
f 209 122 123
f 209 123 208
f 208 123 124
f 208 124 125
f 208 125 207
f 207 125 126
f 207 126 206
f 206 126 127
f 206 127 205
f 205 127 128
f 205 128 204
f 204 128 129
f 204 129 203
f 203 129 130
f 203 130 202
f 202 130 131
f 202 131 132
f 202 132 201
f 201 132 133
f 201 133 134
f 201 134 200
f 200 134 135
f 200 135 136
f 200 136 199
f 199 136 137
f 199 137 198
f 198 137 138
f 198 138 139
f 139 140 198
f 198 140 197
f 197 140 141
f 197 141 196
f 196 141 142
f 196 142 143
f 144 194 143
f 143 194 195
f 143 195 196
f 194 144 193
f 193 144 145
f 193 145 192
f 192 145 146
f 192 146 191
f 191 146 190
f 190 146 147
f 190 147 189
f 189 147 148
f 189 148 188
f 188 148 149
f 188 149 187
f 187 149 150
f 187 150 186
f 186 150 185
f 185 150 151
f 185 151 184
f 184 151 183
f 183 151 152
f 183 152 182
f 182 152 153
f 182 153 181
f 181 153 154
f 181 154 180
f 180 154 179
f 179 154 155
f 179 155 178
f 178 155 156
f 178 156 157
f 178 157 177
f 177 157 158
f 177 158 176
f 176 158 159
f 176 159 160
f 176 160 175
f 175 160 161
f 175 161 174
f 174 161 162
f 174 162 163
f 174 163 173
f 173 163 164
f 173 164 172
f 172 164 171
f 171 164 165
f 171 165 170
f 170 165 166
f 170 166 169
f 169 166 167
f 169 167 168
f 214 219 213
f 213 219 220
f 213 220 310
f 310 220 309
f 309 220 221
f 309 221 308
f 308 221 307
f 307 221 222
f 307 222 306
f 306 222 305
f 305 222 223
f 305 223 304
f 304 223 224
f 304 224 303
f 303 224 225
f 303 225 302
f 302 225 226
f 302 226 301
f 301 226 227
f 301 227 300
f 300 227 228
f 300 228 299
f 299 228 298
f 298 228 229
f 298 229 297
f 297 229 296
f 296 229 230
f 296 230 295
f 295 230 294
f 294 230 231
f 294 231 293
f 293 231 232
f 293 232 292
f 292 232 291
f 291 232 290
f 290 232 233
f 290 233 289
f 289 233 234
f 289 234 288
f 288 234 287
f 287 234 235
f 287 235 236
f 214 215 219
f 219 215 216
f 219 216 218
f 218 216 217
f 287 236 286
f 286 236 237
f 286 237 285
f 285 237 238
f 285 238 284
f 284 238 239
f 284 239 240
f 284 240 283
f 283 240 241
f 283 241 282
f 282 241 242
f 282 242 281
f 281 242 243
f 281 243 280
f 280 243 244
f 280 244 245
f 280 245 279
f 279 245 246
f 279 246 247
f 279 247 278
f 278 247 248
f 278 248 277
f 277 248 249
f 277 249 276
f 276 249 250
f 276 250 251
f 276 251 275
f 275 251 252
f 275 252 274
f 274 252 273
f 273 252 253
f 273 253 272
f 272 253 254
f 272 254 271
f 271 254 270
f 270 254 255
f 270 255 269
f 269 255 256
f 269 256 268
f 268 256 267
f 267 256 257
f 267 257 266
f 266 257 258
f 266 258 259
f 266 259 265
f 265 259 260
f 265 260 264
f 264 260 261
f 264 261 263
f 263 261 262
f 311 312 316
f 316 312 315
f 315 312 313
f 315 313 314
f 317 318 326
f 326 318 325
f 325 318 319
f 325 319 324
f 324 319 320
f 324 320 323
f 323 320 321
f 323 321 322
f 327 328 336
f 336 328 335
f 335 328 329
f 335 329 334
f 334 329 330
f 334 330 333
f 333 330 331
f 333 331 332
f 337 338 342
f 342 338 341
f 341 338 339
f 341 339 340
f 343 344 348
f 348 344 347
f 347 344 345
f 347 345 346
f 349 350 354
f 354 350 353
f 353 350 351
f 353 351 352
f 355 356 364
f 364 356 363
f 363 356 357
f 363 357 362
f 362 357 358
f 362 358 361
f 361 358 359
f 361 359 360
f 365 366 374
f 374 366 373
f 373 366 367
f 373 367 372
f 372 367 368
f 372 368 371
f 371 368 369
f 371 369 370
f 375 376 384
f 384 376 383
f 383 376 377
f 383 377 382
f 382 377 378
f 382 378 381
f 381 378 379
f 381 379 380
f 385 386 388
f 388 386 387
f 389 390 398
f 398 390 397
f 397 390 391
f 397 391 396
f 396 391 392
f 396 392 395
f 395 392 393
f 395 393 394
f 399 400 404
f 404 400 403
f 403 400 401
f 403 401 402
f 405 406 410
f 410 406 409
f 409 406 407
f 409 407 408
f 411 412 420
f 420 412 419
f 419 412 413
f 419 413 418
f 418 413 414
f 418 414 417
f 417 414 415
f 417 415 416
f 421 422 430
f 430 422 429
f 429 422 423
f 429 423 428
f 428 423 424
f 428 424 427
f 427 424 425
f 427 425 426
f 431 432 436
f 436 432 435
f 435 432 433
f 435 433 434
f 437 438 446
f 446 438 445
f 445 438 439
f 445 439 444
f 444 439 440
f 444 440 443
f 443 440 441
f 443 441 442
f 447 448 452
f 452 448 451
f 451 448 449
f 451 449 450
f 453 454 462
f 462 454 461
f 461 454 455
f 461 455 460
f 460 455 456
f 460 456 459
f 459 456 457
f 459 457 458
