v 0.13576125 -9.9999998e-05 0.080111866
v 0.14105456 -9.9999998e-05 0.080111866
v 0.14105456 -0.00022 0.080111866
v 0.13576125 -0.00022 0.080111866
v 0.13364392 -9.9999998e-05 0.080111866
v 0.13364392 -9.9999998e-05 0.065999999
v 0.13364392 -0.00022 0.065999999
v 0.13364392 -0.00022 0.080111866
v 0.12837244 -9.9999998e-05 0.080111866
v 0.13364392 -9.9999998e-05 0.080111866
v 0.13364392 -0.00022 0.080111866
v 0.12837244 -0.00022 0.080111866
v 0.14105456 -9.9999998e-05 0.081999998
v 0.12837244 -9.9999998e-05 0.081999998
v 0.12837244 -0.00022 0.081999998
v 0.14105456 -0.00022 0.081999998
v 0.14105456 -9.9999998e-05 0.080111866
v 0.14105456 -9.9999998e-05 0.081999998
v 0.14105456 -0.00022 0.081999998
v 0.14105456 -0.00022 0.080111866
v 0.12837244 -9.9999998e-05 0.081999998
v 0.12837244 -9.9999998e-05 0.080111866
v 0.12837244 -0.00022 0.080111866
v 0.12837244 -0.00022 0.081999998
v 0.13364392 -9.9999998e-05 0.065999999
v 0.13576125 -9.9999998e-05 0.065999999
v 0.13576125 -0.00022 0.065999999
v 0.13364392 -0.00022 0.065999999
v 0.13576125 -9.9999998e-05 0.065999999
v 0.13576125 -9.9999998e-05 0.080111866
v 0.13576125 -0.00022 0.080111866
v 0.13576125 -0.00022 0.065999999
v 0.13576125 -9.9999998e-05 0.065999999
v 0.13364392 -9.9999998e-05 0.065999999
v 0.13364392 -9.9999998e-05 0.080111866
v 0.12837244 -9.9999998e-05 0.080111866
v 0.12837244 -9.9999998e-05 0.081999998
v 0.14105456 -9.9999998e-05 0.081999998
v 0.14105456 -9.9999998e-05 0.080111866
v 0.13576125 -9.9999998e-05 0.080111866
v 0.13364392 -0.00022 0.065999999
v 0.13576125 -0.00022 0.065999999
v 0.13576125 -0.00022 0.080111866
v 0.14105456 -0.00022 0.080111866
v 0.14105456 -0.00022 0.081999998
v 0.12837244 -0.00022 0.081999998
v 0.12837244 -0.00022 0.080111866
v 0.13364392 -0.00022 0.080111866
f 1 2 4
f 4 2 3
f 5 6 8
f 8 6 7
f 9 10 12
f 12 10 11
f 13 14 16
f 16 14 15
f 17 18 20
f 20 18 19
f 21 22 24
f 24 22 23
f 25 26 28
f 28 26 27
f 29 30 32
f 32 30 31
f 33 34 40
f 40 34 35
f 40 35 37
f 37 35 36
f 37 38 40
f 40 38 39
f 41 42 48
f 48 42 43
f 48 43 46
f 46 43 45
f 45 43 44
f 46 47 48
