v 0.11056862 0.14494474 9.9999998e-05
v 0.11267721 0.14494474 9.9999998e-05
v 0.11267721 0.14494474 0.000125
v 0.11056862 0.14494474 0.000125
v 0.11564148 0.14494474 9.9999998e-05
v 0.11564148 0.1457 9.9999998e-05
v 0.11564148 0.1457 0.000125
v 0.11564148 0.14494474 0.000125
v 0.11056862 0.1457 9.9999998e-05
v 0.11056862 0.14494474 9.9999998e-05
v 0.11056862 0.14494474 0.000125
v 0.11056862 0.1457 0.000125
v 0.11352415 0.14494474 9.9999998e-05
v 0.11564148 0.14494474 9.9999998e-05
v 0.11564148 0.14494474 0.000125
v 0.11352415 0.14494474 0.000125
v 0.11267721 0.1393 9.9999998e-05
v 0.11352415 0.1393 9.9999998e-05
v 0.11352415 0.1393 0.000125
v 0.11267721 0.1393 0.000125
v 0.11564148 0.1457 9.9999998e-05
v 0.11056862 0.1457 9.9999998e-05
v 0.11056862 0.1457 0.000125
v 0.11564148 0.1457 0.000125
v 0.11352415 0.1393 9.9999998e-05
v 0.11267721 0.1393 9.9999998e-05
v 0.11267721 0.14494474 9.9999998e-05
v 0.11056862 0.14494474 9.9999998e-05
v 0.11056862 0.1457 9.9999998e-05
v 0.11564148 0.1457 9.9999998e-05
v 0.11564148 0.14494474 9.9999998e-05
v 0.11352415 0.14494474 9.9999998e-05
v 0.11267721 0.14494474 9.9999998e-05
v 0.11267721 0.1393 9.9999998e-05
v 0.11267721 0.1393 0.000125
v 0.11267721 0.14494474 0.000125
v 0.11267721 0.1393 0.000125
v 0.11352415 0.1393 0.000125
v 0.11352415 0.14494474 0.000125
v 0.11564148 0.14494474 0.000125
v 0.11564148 0.1457 0.000125
v 0.11056862 0.1457 0.000125
v 0.11056862 0.14494474 0.000125
v 0.11267721 0.14494474 0.000125
v 0.11352415 0.1393 9.9999998e-05
v 0.11352415 0.14494474 9.9999998e-05
v 0.11352415 0.14494474 0.000125
v 0.11352415 0.1393 0.000125
f 1 2 4
f 4 2 3
f 5 6 8
f 8 6 7
f 9 10 12
f 12 10 11
f 13 14 16
f 16 14 15
f 17 18 20
f 20 18 19
f 21 22 24
f 24 22 23
f 25 26 32
f 32 26 27
f 32 27 29
f 29 27 28
f 29 30 32
f 32 30 31
f 33 34 36
f 36 34 35
f 37 38 44
f 44 38 39
f 44 39 42
f 42 39 41
f 41 39 40
f 42 43 44
f 45 46 48
f 48 46 47
