v -0.083999996 0.116 0.31
v -0.083999996 0.16200001 0.31
v -0.083999996 0.16200001 0.315
v -0.083999996 0.116 0.315
v -0.186 0.118 0.315
v -0.095 0.118 0.315
v -0.095 0.118 0.31
v -0.186 0.118 0.31
v -0.095 0.16200001 0.31
v -0.095 0.16200001 0.315
v -0.083999996 0.16200001 0.315
v -0.083999996 0.16200001 0.31
v -0.186 0.16200001 0.315
v -0.186 0.118 0.315
v -0.186 0.118 0.31
v -0.186 0.16200001 0.31
v -0.095 0.118 0.315
v -0.095 0.16200001 0.315
v -0.095 0.16200001 0.31
v -0.095 0.118 0.31
v -0.186 0.16200001 0.315
v -0.186 0.16200001 0.31
v -0.19299999 0.16200001 0.31
v -0.19299999 0.16200001 0.315
v -0.19299999 0.16200001 0.31
v -0.19299999 0.116 0.31
v -0.19299999 0.116 0.315
v -0.19299999 0.16200001 0.315
v -0.19299999 0.116 0.31
v -0.083999996 0.116 0.31
v -0.083999996 0.116 0.315
v -0.19299999 0.116 0.315
v -0.186 0.118 0.315
v -0.186 0.16200001 0.315
v -0.19299999 0.16200001 0.315
v -0.19299999 0.116 0.315
v -0.083999996 0.116 0.315
v -0.083999996 0.16200001 0.315
v -0.095 0.16200001 0.315
v -0.095 0.118 0.315
v -0.186 0.16200001 0.31
v -0.186 0.118 0.31
v -0.095 0.118 0.31
v -0.095 0.16200001 0.31
v -0.083999996 0.16200001 0.31
v -0.083999996 0.116 0.31
v -0.19299999 0.116 0.31
v -0.19299999 0.16200001 0.31
f 1 2 4
f 4 2 3
f 6 7 5
f 5 7 8
f 10 11 9
f 9 11 12
f 14 15 13
f 13 15 16
f 18 19 17
f 17 19 20
f 22 23 21
f 21 23 24
f 25 26 28
f 28 26 27
f 29 30 32
f 32 30 31
f 34 35 33
f 33 35 36
f 33 36 40
f 40 36 37
f 40 37 38
f 38 39 40
f 41 42 48
f 48 42 47
f 47 42 43
f 47 43 46
f 46 43 45
f 45 43 44
