v 0.036598227 -0.29870001 0.19547373
v 0.036802866 -0.29870001 0.19591064
v 0.036802866 -0.29882 0.19591064
v 0.036598227 -0.29882 0.19547373
v 0.036325035 -0.29870001 0.19520157
v 0.036598227 -0.29870001 0.19547373
v 0.036598227 -0.29882 0.19547373
v 0.036325035 -0.29882 0.19520157
v 0.036802866 -0.29870001 0.19591064
v 0.036882675 -0.29870001 0.19651636
v 0.036882675 -0.29882 0.19651636
v 0.036802866 -0.29882 0.19591064
v 0.035966918 -0.29870001 0.19505116
v 0.036325035 -0.29870001 0.19520157
v 0.036325035 -0.29882 0.19520157
v 0.035966918 -0.29882 0.19505116
v 0.036882675 -0.29870001 0.19651636
v 0.036765008 -0.29870001 0.19722954
v 0.036765008 -0.29882 0.19722954
v 0.036882675 -0.29882 0.19651636
v 0.035484993 -0.29870001 0.195
v 0.035966918 -0.29870001 0.19505116
v 0.035966918 -0.29882 0.19505116
v 0.035484993 -0.29882 0.195
v 0.036765008 -0.29870001 0.19722954
v 0.03640996 -0.29870001 0.19774216
v 0.03640996 -0.29882 0.19774216
v 0.036765008 -0.29882 0.19722954
v 0.034402456 -0.29870001 0.195
v 0.035484993 -0.29870001 0.195
v 0.035484993 -0.29882 0.195
v 0.034402456 -0.29882 0.195
v 0.03640996 -0.29870001 0.19774216
v 0.035969987 -0.29870001 0.19795702
v 0.035969987 -0.29882 0.19795702
v 0.03640996 -0.29882 0.19774216
v 0.035969987 -0.29870001 0.19795702
v 0.035435882 -0.29870001 0.19799999
v 0.035435882 -0.29882 0.19799999
v 0.035969987 -0.29882 0.19795702
v 0.035435882 -0.29870001 0.19799999
v 0.034402456 -0.29870001 0.19799999
v 0.034402456 -0.29882 0.19799999
v 0.035435882 -0.29882 0.19799999
v 0.034799454 -0.29870001 0.19764597
v 0.035429742 -0.29870001 0.19764597
v 0.035429742 -0.29882 0.19764597
v 0.034799454 -0.29882 0.19764597
v 0.034402456 -0.29870001 0.19799999
v 0.034402456 -0.29870001 0.195
v 0.034402456 -0.29882 0.195
v 0.034402456 -0.29882 0.19799999
v 0.034402456 -0.29882 0.195
v 0.035484993 -0.29882 0.195
v 0.035966918 -0.29882 0.19505116
v 0.036325035 -0.29882 0.19520157
v 0.036598227 -0.29882 0.19547373
v 0.036802866 -0.29882 0.19591064
v 0.036882675 -0.29882 0.19651636
v 0.036765008 -0.29882 0.19722954
v 0.03640996 -0.29882 0.19774216
v 0.035969987 -0.29882 0.19795702
v 0.035435882 -0.29882 0.19799999
v 0.034402456 -0.29882 0.19799999
v 0.034799454 -0.29882 0.19535402
v 0.034799454 -0.29882 0.19764597
v 0.035429742 -0.29882 0.19764597
v 0.035735164 -0.29882 0.19763063
v 0.035943384 -0.29882 0.19758459
v 0.036318896 -0.29882 0.1972459
v 0.036434772 -0.29882 0.19693869
v 0.036473398 -0.29882 0.1965225
v 0.036394613 -0.29882 0.1959444
v 0.036174626 -0.29882 0.1955648
v 0.035905526 -0.29882 0.19540928
v 0.035439973 -0.29882 0.19535402
v 0.035429742 -0.29870001 0.19764597
v 0.035735164 -0.29870001 0.19763063
v 0.035943384 -0.29870001 0.19758459
v 0.035943384 -0.29882 0.19758459
v 0.035735164 -0.29882 0.19763063
v 0.035429742 -0.29882 0.19764597
v 0.034799454 -0.29870001 0.19535402
v 0.034799454 -0.29870001 0.19764597
v 0.034799454 -0.29882 0.19764597
v 0.034799454 -0.29882 0.19535402
v 0.035943384 -0.29870001 0.19758459
v 0.036318896 -0.29870001 0.1972459
v 0.036318896 -0.29882 0.1972459
v 0.035943384 -0.29882 0.19758459
v 0.035484993 -0.29870001 0.195
v 0.034402456 -0.29870001 0.195
v 0.034402456 -0.29870001 0.19799999
v 0.035435882 -0.29870001 0.19799999
v 0.035969987 -0.29870001 0.19795702
v 0.03640996 -0.29870001 0.19774216
v 0.036765008 -0.29870001 0.19722954
v 0.036882675 -0.29870001 0.19651636
v 0.036802866 -0.29870001 0.19591064
v 0.036598227 -0.29870001 0.19547373
v 0.036325035 -0.29870001 0.19520157
v 0.035966918 -0.29870001 0.19505116
v 0.034799454 -0.29870001 0.19764597
v 0.034799454 -0.29870001 0.19535402
v 0.035439973 -0.29870001 0.19535402
v 0.035905526 -0.29870001 0.19540928
v 0.036174626 -0.29870001 0.1955648
v 0.036394613 -0.29870001 0.1959444
v 0.036473398 -0.29870001 0.1965225
v 0.036434772 -0.29870001 0.19693869
v 0.036318896 -0.29870001 0.1972459
v 0.035943384 -0.29870001 0.19758459
v 0.035735164 -0.29870001 0.19763063
v 0.035429742 -0.29870001 0.19764597
v 0.036318896 -0.29870001 0.1972459
v 0.036434772 -0.29870001 0.19693869
v 0.036473398 -0.29870001 0.1965225
v 0.036473398 -0.29882 0.1965225
v 0.036434772 -0.29882 0.19693869
v 0.036318896 -0.29882 0.1972459
v 0.036473398 -0.29870001 0.1965225
v 0.036394613 -0.29870001 0.1959444
v 0.036394613 -0.29882 0.1959444
v 0.036473398 -0.29882 0.1965225
v 0.036394613 -0.29870001 0.1959444
v 0.036174626 -0.29870001 0.1955648
v 0.036174626 -0.29882 0.1955648
v 0.036394613 -0.29882 0.1959444
v 0.036174626 -0.29870001 0.1955648
v 0.035905526 -0.29870001 0.19540928
v 0.035905526 -0.29882 0.19540928
v 0.036174626 -0.29882 0.1955648
v 0.035905526 -0.29870001 0.19540928
v 0.035439973 -0.29870001 0.19535402
v 0.035439973 -0.29882 0.19535402
v 0.035905526 -0.29882 0.19540928
v 0.035439973 -0.29870001 0.19535402
v 0.034799454 -0.29870001 0.19535402
v 0.034799454 -0.29882 0.19535402
v 0.035439973 -0.29882 0.19535402
f 1 2 4
f 4 2 3
f 5 6 8
f 8 6 7
f 9 10 12
f 12 10 11
f 13 14 16
f 16 14 15
f 17 18 20
f 20 18 19
f 21 22 24
f 24 22 23
f 25 26 28
f 28 26 27
f 29 30 32
f 32 30 31
f 33 34 36
f 36 34 35
f 37 38 40
f 40 38 39
f 41 42 44
f 44 42 43
f 45 46 48
f 48 46 47
f 49 50 52
f 52 50 51
f 54 65 53
f 53 65 66
f 53 66 64
f 64 66 63
f 63 66 67
f 63 67 68
f 55 75 54
f 54 75 76
f 54 76 65
f 55 56 75
f 75 56 74
f 74 56 57
f 74 57 73
f 73 57 58
f 73 58 72
f 72 58 59
f 72 59 71
f 71 59 60
f 71 60 70
f 70 60 61
f 70 61 69
f 69 61 62
f 69 62 68
f 68 62 63
f 77 78 82
f 82 78 81
f 81 78 79
f 81 79 80
f 83 84 86
f 86 84 85
f 87 88 90
f 90 88 89
f 92 104 91
f 91 104 105
f 91 105 106
f 104 92 103
f 103 92 93
f 103 93 94
f 95 113 94
f 94 113 114
f 94 114 103
f 113 95 112
f 112 95 96
f 112 96 111
f 111 96 97
f 111 97 110
f 110 97 98
f 110 98 109
f 109 98 99
f 109 99 108
f 108 99 100
f 108 100 107
f 107 100 101
f 107 101 106
f 106 101 102
f 106 102 91
f 115 116 120
f 120 116 119
f 119 116 117
f 119 117 118
f 121 122 124
f 124 122 123
f 125 126 128
f 128 126 127
f 129 130 132
f 132 130 131
f 133 134 136
f 136 134 135
f 137 138 140
f 140 138 139
