v 0.132 0.048626599 0.49063713
v 0.13263089 0.048824205 0.49091709
v 0.13311726 0.048832994 0.49144516
v 0.13334766 0.048650956 0.4921003
v 0.13326934 0.048319793 0.49273247
v 0.13290023 0.047915363 0.49319683
v 0.13232489 0.047530327 0.49338703
v 0.13167511 0.047252889 0.49325947
v 0.13109977 0.047146602 0.4928434
v 0.13073066 0.047235818 0.49223408
v 0.13065233 0.0475001 0.49157116
v 0.13088275 0.047878904 0.49100647
v 0.13136911 0.048285446 0.4906694
v 0.086999998 0.1356266 0.53063713
v 0.086369114 0.13528544 0.5306694
v 0.08588275 0.1348789 0.53100647
v 0.085652332 0.1345001 0.53157116
v 0.085730658 0.13423582 0.53223408
v 0.086099768 0.1341466 0.5328434
v 0.08667511 0.13425289 0.53325947
v 0.087324886 0.13453032 0.53338703
v 0.087900229 0.13491536 0.53319683
v 0.088269339 0.1353198 0.53273247
v 0.088347664 0.13565096 0.5321003
v 0.088117256 0.135833 0.53144516
v 0.087630892 0.1358242 0.53091709
v 0.086999998 0.1356266 0.53063713
v 0.087630892 0.1358242 0.53091709
v 0.088117256 0.135833 0.53144516
v 0.088347664 0.13565096 0.5321003
v 0.088269339 0.1353198 0.53273247
v 0.087900229 0.13491536 0.53319683
v 0.087324886 0.13453032 0.53338703
v 0.08667511 0.13425289 0.53325947
v 0.086099768 0.1341466 0.5328434
v 0.085730658 0.13423582 0.53223408
v 0.085652332 0.1345001 0.53157116
v 0.08588275 0.1348789 0.53100647
v 0.086369114 0.13528544 0.5306694
v 0.132 0.048626599 0.49063713
v 0.13136911 0.048285446 0.4906694
v 0.13088275 0.047878904 0.49100647
v 0.13065233 0.0475001 0.49157116
v 0.13073066 0.047235818 0.49223408
v 0.13109977 0.047146602 0.4928434
v 0.13167511 0.047252889 0.49325947
v 0.13232489 0.047530327 0.49338703
v 0.13290023 0.047915363 0.49319683
v 0.13326934 0.048319793 0.49273247
v 0.13334766 0.048650956 0.4921003
v 0.13311726 0.048832994 0.49144516
v 0.13263089 0.048824205 0.49091709
v 0.132 0.048626599 0.49063713
v 0.086999998 0.1356266 0.53063713
f 1 2 13
f 13 2 12
f 12 2 3
f 12 3 11
f 11 3 4
f 11 4 10
f 10 4 5
f 10 5 9
f 9 5 6
f 9 6 8
f 8 6 7
f 14 15 26
f 26 15 16
f 26 16 25
f 25 16 17
f 25 17 24
f 24 17 18
f 24 18 23
f 23 18 19
f 23 19 22
f 22 19 20
f 22 20 21
f 28 52 27
f 27 52 53
f 54 40 39
f 39 40 41
f 39 41 38
f 38 41 42
f 38 42 37
f 37 42 43
f 37 43 36
f 36 43 44
f 36 44 35
f 35 44 45
f 35 45 34
f 34 45 46
f 34 46 33
f 33 46 47
f 33 47 32
f 32 47 48
f 32 48 31
f 31 48 49
f 31 49 30
f 30 49 50
f 30 50 29
f 29 50 51
f 29 51 28
f 28 51 52
