v -0.22809999 -0.204 0.41099998
v -0.22809999 -0.204 0.40990002
v -0.21190001 -0.204 0.40990002
v -0.21190001 -0.204 0.41099998
v -0.204 -0.204 0.41099998
v -0.204 -0.204 0.39900002
v -0.23200001 -0.204 0.39900002
v -0.23200001 -0.204 0.41099998
v -0.22809999 -0.236 0.40990002
v -0.21190001 -0.236 0.40990002
v -0.21190001 -0.204 0.40990002
v -0.22809999 -0.204 0.40990002
v -0.23200001 -0.204 0.41099998
v -0.23200001 -0.204 0.39900002
v -0.23200001 -0.236 0.39900002
v -0.23200001 -0.236 0.41099998
v -0.22809999 -0.236 0.40990002
v -0.22809999 -0.236 0.41099998
v -0.23200001 -0.236 0.41099998
v -0.23200001 -0.236 0.39900002
v -0.204 -0.236 0.39900002
v -0.204 -0.236 0.41099998
v -0.21190001 -0.236 0.41099998
v -0.21190001 -0.236 0.40990002
v -0.204 -0.204 0.39900002
v -0.204 -0.236 0.39900002
v -0.23200001 -0.236 0.39900002
v -0.23200001 -0.204 0.39900002
v -0.21190001 -0.204 0.41099998
v -0.21190001 -0.236 0.41099998
v -0.204 -0.236 0.41099998
v -0.204 -0.204 0.41099998
v -0.21190001 -0.236 0.40990002
v -0.21190001 -0.236 0.41099998
v -0.21190001 -0.204 0.41099998
v -0.21190001 -0.204 0.40990002
v -0.22809999 -0.236 0.41099998
v -0.22809999 -0.204 0.41099998
v -0.23200001 -0.204 0.41099998
v -0.23200001 -0.236 0.41099998
v -0.22809999 -0.236 0.41099998
v -0.22809999 -0.236 0.40990002
v -0.22809999 -0.204 0.40990002
v -0.22809999 -0.204 0.41099998
v -0.204 -0.236 0.41099998
v -0.204 -0.236 0.39900002
v -0.204 -0.204 0.39900002
v -0.204 -0.204 0.41099998
f 1 2 8
f 8 2 7
f 7 2 3
f 7 3 6
f 6 3 5
f 5 3 4
f 9 10 12
f 12 10 11
f 13 14 16
f 16 14 15
f 18 19 17
f 17 19 20
f 17 20 24
f 24 20 21
f 24 21 22
f 22 23 24
f 26 27 25
f 25 27 28
f 30 31 29
f 29 31 32
f 33 34 36
f 36 34 35
f 38 39 37
f 37 39 40
f 41 42 44
f 44 42 43
f 45 46 48
f 48 46 47
