v 0.09 0.24700001 0.088999996
v 0.174 0.24700001 0.088999996
v 0.174 0.24700001 0.199
v 0.09 0.24700001 0.199
v 0.174 0.28700001 0.088999996
v 0.09 0.28700001 0.088999996
v 0.09 0.28700001 0.199
v 0.174 0.28700001 0.199
v 0.09 0.24700001 0.088999996
v 0.09 0.28700001 0.088999996
v 0.174 0.28700001 0.088999996
v 0.174 0.24700001 0.088999996
v 0.09 0.28700001 0.199
v 0.09 0.24700001 0.199
v 0.174 0.24700001 0.199
v 0.174 0.28700001 0.199
v 0.09 0.28700001 0.088999996
v 0.09 0.24700001 0.088999996
v 0.09 0.24700001 0.199
v 0.09 0.28700001 0.199
v 0.174 0.24700001 0.088999996
v 0.174 0.28700001 0.088999996
v 0.174 0.28700001 0.199
v 0.174 0.24700001 0.199
f 1 2 4
f 4 2 3
f 5 6 8
f 8 6 7
f 10 11 9
f 9 11 12
f 14 15 13
f 13 15 16
f 17 18 20
f 20 18 19
f 21 22 24
f 24 22 23
