v 0.16728247 -0.29875 0.26092094
v 0.16768332 -0.29875 0.26080956
v 0.16768332 -0.29886999 0.26080956
v 0.16728247 -0.29886999 0.26092094
v 0.16768332 -0.29875 0.26080956
v 0.16784256 -0.29875 0.26048008
v 0.16784256 -0.29886999 0.26048008
v 0.16768332 -0.29886999 0.26080956
v 0.16688005 -0.29875 0.26081974
v 0.16728247 -0.29875 0.26092094
v 0.16728247 -0.29886999 0.26092094
v 0.16688005 -0.29886999 0.26081974
v 0.16784256 -0.29875 0.26048008
v 0.16813438 -0.29875 0.26050205
v 0.16813438 -0.29886999 0.26050205
v 0.16784256 -0.29886999 0.26048008
v 0.16675375 -0.29875 0.26057579
v 0.16688005 -0.29875 0.26081974
v 0.16688005 -0.29886999 0.26081974
v 0.16675375 -0.29886999 0.26057579
v 0.16813438 -0.29875 0.26050205
v 0.16802141 -0.29875 0.26086447
v 0.16802141 -0.29886999 0.26086447
v 0.16813438 -0.29886999 0.26050205
v 0.16684319 -0.29875 0.26037184
v 0.16675375 -0.29875 0.26057579
v 0.16675375 -0.29886999 0.26057579
v 0.16684319 -0.29886999 0.26037184
v 0.16802141 -0.29875 0.26086447
v 0.16772097 -0.29875 0.26110685
v 0.16772097 -0.29886999 0.26110685
v 0.16802141 -0.29886999 0.26086447
v 0.16730207 -0.29875 0.26020788
v 0.16700184 -0.29875 0.26029083
v 0.16684319 -0.29875 0.26037184
v 0.16684319 -0.29886999 0.26037184
v 0.16700184 -0.29886999 0.26029083
v 0.16730207 -0.29886999 0.26020788
v 0.16772097 -0.29875 0.26110685
v 0.16726992 -0.29875 0.26118923
v 0.16726992 -0.29886999 0.26118923
v 0.16772097 -0.29886999 0.26110685
v 0.16781118 -0.29875 0.26006119
v 0.16761488 -0.29875 0.26012924
v 0.16730207 -0.29875 0.26020788
v 0.16730207 -0.29886999 0.26020788
v 0.16761488 -0.29886999 0.26012924
v 0.16781118 -0.29886999 0.26006119
v 0.16726992 -0.29875 0.26118923
v 0.16684788 -0.29875 0.26111078
v 0.16684788 -0.29886999 0.26111078
v 0.16726992 -0.29886999 0.26118923
v 0.1681077 -0.29875 0.25982664
v 0.16781118 -0.29875 0.26006119
v 0.16781118 -0.29886999 0.26006119
v 0.1681077 -0.29886999 0.25982664
v 0.16684788 -0.29875 0.26111078
v 0.1665592 -0.29875 0.26088093
v 0.1665592 -0.29886999 0.26088093
v 0.16684788 -0.29886999 0.26111078
v 0.16820341 -0.29875 0.25949953
v 0.1681077 -0.29875 0.25982664
v 0.1681077 -0.29886999 0.25982664
v 0.16820341 -0.29886999 0.25949953
v 0.1665592 -0.29875 0.26088093
v 0.16646036 -0.29875 0.26055538
v 0.16646036 -0.29886999 0.26055538
v 0.1665592 -0.29886999 0.26088093
v 0.1680983 -0.29875 0.25915358
v 0.16820341 -0.29875 0.25949953
v 0.16820341 -0.29886999 0.25949953
v 0.1680983 -0.29886999 0.25915358
v 0.16646036 -0.29875 0.26055538
v 0.16654116 -0.29875 0.26026907
v 0.16654116 -0.29886999 0.26026907
v 0.16646036 -0.29886999 0.26055538
v 0.16779629 -0.29875 0.25890099
v 0.1680983 -0.29875 0.25915358
v 0.1680983 -0.29886999 0.25915358
v 0.16779629 -0.29886999 0.25890099
v 0.16654116 -0.29875 0.26026907
v 0.16678669 -0.29875 0.26005491
v 0.16678669 -0.29886999 0.26005491
v 0.16654116 -0.29886999 0.26026907
v 0.16735308 -0.29875 0.25881079
v 0.16779629 -0.29875 0.25890099
v 0.16779629 -0.29886999 0.25890099
v 0.16735308 -0.29886999 0.25881079
v 0.16682983 -0.29875 0.25890177
v 0.16735308 -0.29875 0.25881079
v 0.16735308 -0.29886999 0.25881079
v 0.16682983 -0.29886999 0.25890177
v 0.16678669 -0.29875 0.26005491
v 0.1672307 -0.29875 0.25991137
v 0.1672307 -0.29886999 0.25991137
v 0.16678669 -0.29886999 0.26005491
v 0.1672307 -0.29875 0.25991137
v 0.16749153 -0.29875 0.25984528
v 0.16764017 -0.29875 0.25979918
v 0.16764017 -0.29886999 0.25979918
v 0.16749153 -0.29886999 0.25984528
v 0.1672307 -0.29886999 0.25991137
v 0.16764017 -0.29875 0.25979918
v 0.16784727 -0.29875 0.25966347
v 0.16784727 -0.29886999 0.25966347
v 0.16764017 -0.29886999 0.25979918
v 0.16649881 -0.29875 0.25917555
v 0.16682983 -0.29875 0.25890177
v 0.16682983 -0.29886999 0.25890177
v 0.16649881 -0.29886999 0.25917555
v 0.16637251 -0.29875 0.25958895
v 0.16649881 -0.29875 0.25917555
v 0.16649881 -0.29886999 0.25917555
v 0.16637251 -0.29886999 0.25958895
v 0.16637251 -0.29886999 0.25958895
v 0.16649881 -0.29886999 0.25917555
v 0.16682983 -0.29886999 0.25890177
v 0.16735308 -0.29886999 0.25881079
v 0.16779629 -0.29886999 0.25890099
v 0.1680983 -0.29886999 0.25915358
v 0.16820341 -0.29886999 0.25949953
v 0.1681077 -0.29886999 0.25982664
v 0.16781118 -0.29886999 0.26006119
v 0.16761488 -0.29886999 0.26012924
v 0.16730207 -0.29886999 0.26020788
v 0.16700184 -0.29886999 0.26029083
v 0.16684319 -0.29886999 0.26037184
v 0.16675375 -0.29886999 0.26057579
v 0.16688005 -0.29886999 0.26081974
v 0.16728247 -0.29886999 0.26092094
v 0.16768332 -0.29886999 0.26080956
v 0.16784256 -0.29886999 0.26048008
v 0.16813438 -0.29886999 0.26050205
v 0.16802141 -0.29886999 0.26086447
v 0.16772097 -0.29886999 0.26110685
v 0.16726992 -0.29886999 0.26118923
v 0.16684788 -0.29886999 0.26111078
v 0.1665592 -0.29886999 0.26088093
v 0.16646036 -0.29886999 0.26055538
v 0.16654116 -0.29886999 0.26026907
v 0.16678669 -0.29886999 0.26005491
v 0.1672307 -0.29886999 0.25991137
v 0.16749153 -0.29886999 0.25984528
v 0.16764017 -0.29886999 0.25979918
v 0.16784727 -0.29886999 0.25966347
v 0.16791002 -0.29886999 0.25947441
v 0.16784492 -0.29886999 0.25927752
v 0.16764645 -0.29886999 0.25913553
v 0.16733894 -0.29886999 0.25908377
v 0.16698595 -0.29886999 0.25915201
v 0.16675453 -0.29886999 0.25933086
v 0.16665962 -0.29886999 0.25961405
v 0.16784727 -0.29875 0.25966347
v 0.16791002 -0.29875 0.25947441
v 0.16791002 -0.29886999 0.25947441
v 0.16784727 -0.29886999 0.25966347
v 0.16791002 -0.29875 0.25947441
v 0.16784492 -0.29875 0.25927752
v 0.16784492 -0.29886999 0.25927752
v 0.16791002 -0.29886999 0.25947441
v 0.16698595 -0.29875 0.25915201
v 0.16675453 -0.29875 0.25933086
v 0.16675453 -0.29886999 0.25933086
v 0.16698595 -0.29886999 0.25915201
v 0.16764645 -0.29875 0.25913553
v 0.16733894 -0.29875 0.25908377
v 0.16733894 -0.29886999 0.25908377
v 0.16764645 -0.29886999 0.25913553
v 0.16733894 -0.29875 0.25908377
v 0.16698595 -0.29875 0.25915201
v 0.16698595 -0.29886999 0.25915201
v 0.16733894 -0.29886999 0.25908377
v 0.16675453 -0.29875 0.25933086
v 0.16665962 -0.29875 0.25961405
v 0.16665962 -0.29886999 0.25961405
v 0.16675453 -0.29886999 0.25933086
v 0.16665962 -0.29875 0.25961405
v 0.16637251 -0.29875 0.25958895
v 0.16637251 -0.29886999 0.25958895
v 0.16665962 -0.29886999 0.25961405
v 0.16784492 -0.29875 0.25927752
v 0.16764645 -0.29875 0.25913553
v 0.16764645 -0.29886999 0.25913553
v 0.16784492 -0.29886999 0.25927752
v 0.16649881 -0.29875 0.25917555
v 0.16637251 -0.29875 0.25958895
v 0.16665962 -0.29875 0.25961405
v 0.16675453 -0.29875 0.25933086
v 0.16698595 -0.29875 0.25915201
v 0.16733894 -0.29875 0.25908377
v 0.16764645 -0.29875 0.25913553
v 0.16784492 -0.29875 0.25927752
v 0.16791002 -0.29875 0.25947441
v 0.16784727 -0.29875 0.25966347
v 0.16764017 -0.29875 0.25979918
v 0.16749153 -0.29875 0.25984528
v 0.1672307 -0.29875 0.25991137
v 0.16678669 -0.29875 0.26005491
v 0.16654116 -0.29875 0.26026907
v 0.16646036 -0.29875 0.26055538
v 0.1665592 -0.29875 0.26088093
v 0.16684788 -0.29875 0.26111078
v 0.16726992 -0.29875 0.26118923
v 0.16772097 -0.29875 0.26110685
v 0.16802141 -0.29875 0.26086447
v 0.16813438 -0.29875 0.26050205
v 0.16784256 -0.29875 0.26048008
v 0.16768332 -0.29875 0.26080956
v 0.16728247 -0.29875 0.26092094
v 0.16688005 -0.29875 0.26081974
v 0.16675375 -0.29875 0.26057579
v 0.16684319 -0.29875 0.26037184
v 0.16700184 -0.29875 0.26029083
v 0.16730207 -0.29875 0.26020788
v 0.16761488 -0.29875 0.26012924
v 0.16781118 -0.29875 0.26006119
v 0.1681077 -0.29875 0.25982664
v 0.16820341 -0.29875 0.25949953
v 0.1680983 -0.29875 0.25915358
v 0.16779629 -0.29875 0.25890099
v 0.16735308 -0.29875 0.25881079
v 0.16682983 -0.29875 0.25890177
f 1 2 4
f 4 2 3
f 5 6 8
f 8 6 7
f 9 10 12
f 12 10 11
f 13 14 16
f 16 14 15
f 17 18 20
f 20 18 19
f 21 22 24
f 24 22 23
f 25 26 28
f 28 26 27
f 29 30 32
f 32 30 31
f 33 34 38
f 38 34 37
f 37 34 35
f 37 35 36
f 39 40 42
f 42 40 41
f 43 44 48
f 48 44 47
f 47 44 45
f 47 45 46
f 49 50 52
f 52 50 51
f 53 54 56
f 56 54 55
f 57 58 60
f 60 58 59
f 61 62 64
f 64 62 63
f 65 66 68
f 68 66 67
f 69 70 72
f 72 70 71
f 73 74 76
f 76 74 75
f 77 78 80
f 80 78 79
f 81 82 84
f 84 82 83
f 85 86 88
f 88 86 87
f 89 90 92
f 92 90 91
f 93 94 96
f 96 94 95
f 97 98 102
f 102 98 101
f 101 98 99
f 101 99 100
f 103 104 106
f 106 104 105
f 107 108 110
f 110 108 109
f 111 112 114
f 114 112 113
f 115 116 152
f 152 116 151
f 151 116 117
f 151 117 150
f 150 117 118
f 150 118 149
f 149 118 148
f 148 118 119
f 148 119 147
f 147 119 120
f 147 120 146
f 146 120 121
f 146 121 122
f 146 122 145
f 145 122 123
f 145 123 144
f 144 123 124
f 144 124 143
f 143 124 125
f 143 125 142
f 142 125 126
f 142 126 141
f 141 126 127
f 141 127 140
f 140 127 128
f 140 128 139
f 139 128 138
f 138 128 129
f 138 129 137
f 137 129 130
f 137 130 136
f 136 130 135
f 135 130 131
f 135 131 134
f 134 131 132
f 134 132 133
f 153 154 156
f 156 154 155
f 157 158 160
f 160 158 159
f 161 162 164
f 164 162 163
f 165 166 168
f 168 166 167
f 169 170 172
f 172 170 171
f 173 174 176
f 176 174 175
f 177 178 180
f 180 178 179
f 181 182 184
f 184 182 183
f 186 187 185
f 185 187 188
f 185 188 222
f 222 188 189
f 222 189 221
f 221 189 190
f 221 190 191
f 221 191 220
f 220 191 192
f 220 192 219
f 219 192 193
f 219 193 218
f 218 193 217
f 217 193 194
f 217 194 216
f 216 194 195
f 216 195 215
f 215 195 196
f 215 196 214
f 214 196 197
f 214 197 213
f 213 197 198
f 213 198 212
f 212 198 199
f 212 199 211
f 211 199 200
f 211 200 201
f 211 201 210
f 210 201 202
f 210 202 209
f 209 202 203
f 209 203 204
f 209 204 208
f 208 204 205
f 208 205 207
f 207 205 206
