v 0.475 0.26 0.43799999
v 0.47519829 0.26372026 0.43799999
v 0.47579086 0.2673984 0.43799999
v 0.47677109 0.27099268 0.43799999
v 0.47812778 0.27446243 0.43799999
v 0.47984562 0.27776831 0.43799999
v 0.4819051 0.28087286 0.43799999
v 0.48428291 0.28374092 0.43799999
v 0.4869521 0.28633997 0.43799999
v 0.48988243 0.28864059 0.43799999
v 0.49304073 0.2906167 0.43799999
v 0.49639114 0.29224592 0.43799999
v 0.49989578 0.29350977 0.43799999
v 0.5035149 0.29439394 0.43799999
v 0.50720749 0.29488842 0.43799999
v 0.5109317 0.2949876 0.43799999
v 0.51464539 0.29469034 0.43799999
v 0.51830643 0.29400005 0.43799999
v 0.52187336 0.29292452 0.43799999
v 0.52530575 0.29147593 0.43799999
v 0.52856472 0.2896707 0.43799999
v 0.53161335 0.2875293 0.43799999
v 0.53441711 0.28507599 0.43799999
v 0.5369442 0.28233854 0.43799999
v 0.53916599 0.27934801 0.43799999
v 0.54105732 0.27613823 0.43799999
v 0.54259678 0.27274563 0.43799999
v 0.54376686 0.26920858 0.43799999
v 0.54455441 0.26556723 0.43799999
v 0.54495041 0.26186277 0.43799999
v 0.54495041 0.25813723 0.43799999
v 0.54455441 0.25443277 0.43799999
v 0.54376686 0.25079142 0.43799999
v 0.54259678 0.24725437 0.43799999
v 0.54105732 0.24386177 0.43799999
v 0.53916599 0.24065199 0.43799999
v 0.5369442 0.23766146 0.43799999
v 0.53441711 0.23492401 0.43799999
v 0.53161335 0.2324707 0.43799999
v 0.52856472 0.2303293 0.43799999
v 0.52530575 0.22852407 0.43799999
v 0.52187336 0.22707548 0.43799999
v 0.51830643 0.22599995 0.43799999
v 0.51464539 0.22530966 0.43799999
v 0.5109317 0.2250124 0.43799999
v 0.50720749 0.22511158 0.43799999
v 0.5035149 0.22560606 0.43799999
v 0.49989578 0.22649023 0.43799999
v 0.49639114 0.22775408 0.43799999
v 0.49304073 0.2293833 0.43799999
v 0.48988243 0.23135941 0.43799999
v 0.4869521 0.23366003 0.43799999
v 0.48428291 0.23625908 0.43799999
v 0.4819051 0.23912714 0.43799999
v 0.47984562 0.24223169 0.43799999
v 0.47812778 0.24553757 0.43799999
v 0.47677109 0.24900732 0.43799999
v 0.47579086 0.2526016 0.43799999
v 0.47519829 0.25627974 0.43799999
v 0.475 0.26 0.43
v 0.47519829 0.25627974 0.43
v 0.47579086 0.2526016 0.43
v 0.47677109 0.24900732 0.43
v 0.47812778 0.24553757 0.43
v 0.47984562 0.24223169 0.43
v 0.4819051 0.23912714 0.43
v 0.48428291 0.23625908 0.43
v 0.4869521 0.23366003 0.43
v 0.48988243 0.23135941 0.43
v 0.49304073 0.2293833 0.43
v 0.49639114 0.22775408 0.43
v 0.49989578 0.22649023 0.43
v 0.5035149 0.22560606 0.43
v 0.50720749 0.22511158 0.43
v 0.5109317 0.2250124 0.43
v 0.51464539 0.22530966 0.43
v 0.51830643 0.22599995 0.43
v 0.52187336 0.22707548 0.43
v 0.52530575 0.22852407 0.43
v 0.52856472 0.2303293 0.43
v 0.53161335 0.2324707 0.43
v 0.53441711 0.23492401 0.43
v 0.5369442 0.23766146 0.43
v 0.53916599 0.24065199 0.43
v 0.54105732 0.24386177 0.43
v 0.54259678 0.24725437 0.43
v 0.54376686 0.25079142 0.43
v 0.54455441 0.25443277 0.43
v 0.54495041 0.25813723 0.43
v 0.54495041 0.26186277 0.43
v 0.54455441 0.26556723 0.43
v 0.54376686 0.26920858 0.43
v 0.54259678 0.27274563 0.43
v 0.54105732 0.27613823 0.43
v 0.53916599 0.27934801 0.43
v 0.5369442 0.28233854 0.43
v 0.53441711 0.28507599 0.43
v 0.53161335 0.2875293 0.43
v 0.52856472 0.2896707 0.43
v 0.52530575 0.29147593 0.43
v 0.52187336 0.29292452 0.43
v 0.51830643 0.29400005 0.43
v 0.51464539 0.29469034 0.43
v 0.5109317 0.2949876 0.43
v 0.50720749 0.29488842 0.43
v 0.5035149 0.29439394 0.43
v 0.49989578 0.29350977 0.43
v 0.49639114 0.29224592 0.43
v 0.49304073 0.2906167 0.43
v 0.48988243 0.28864059 0.43
v 0.4869521 0.28633997 0.43
v 0.48428291 0.28374092 0.43
v 0.4819051 0.28087286 0.43
v 0.47984562 0.27776831 0.43
v 0.47812778 0.27446243 0.43
v 0.47677109 0.27099268 0.43
v 0.47579086 0.2673984 0.43
v 0.47519829 0.26372026 0.43
v 0.475 0.26 0.43
v 0.475 0.26 0.43799999
v 0.475 0.26 0.43799999
v 0.47519829 0.25627974 0.43799999
v 0.47579086 0.2526016 0.43799999
v 0.47677109 0.24900732 0.43799999
v 0.47812778 0.24553757 0.43799999
v 0.47984562 0.24223169 0.43799999
v 0.4819051 0.23912714 0.43799999
v 0.48428291 0.23625908 0.43799999
v 0.4869521 0.23366003 0.43799999
v 0.48988243 0.23135941 0.43799999
v 0.49304073 0.2293833 0.43799999
v 0.49639114 0.22775408 0.43799999
v 0.49989578 0.22649023 0.43799999
v 0.5035149 0.22560606 0.43799999
v 0.50720749 0.22511158 0.43799999
v 0.5109317 0.2250124 0.43799999
v 0.51464539 0.22530966 0.43799999
v 0.51830643 0.22599995 0.43799999
v 0.52187336 0.22707548 0.43799999
v 0.52530575 0.22852407 0.43799999
v 0.52856472 0.2303293 0.43799999
v 0.53161335 0.2324707 0.43799999
v 0.53441711 0.23492401 0.43799999
v 0.5369442 0.23766146 0.43799999
v 0.53916599 0.24065199 0.43799999
v 0.54105732 0.24386177 0.43799999
v 0.54259678 0.24725437 0.43799999
v 0.54376686 0.25079142 0.43799999
v 0.54455441 0.25443277 0.43799999
v 0.54495041 0.25813723 0.43799999
v 0.54495041 0.26186277 0.43799999
v 0.54455441 0.26556723 0.43799999
v 0.54376686 0.26920858 0.43799999
v 0.54259678 0.27274563 0.43799999
v 0.54105732 0.27613823 0.43799999
v 0.53916599 0.27934801 0.43799999
v 0.5369442 0.28233854 0.43799999
v 0.53441711 0.28507599 0.43799999
v 0.53161335 0.2875293 0.43799999
v 0.52856472 0.2896707 0.43799999
v 0.52530575 0.29147593 0.43799999
v 0.52187336 0.29292452 0.43799999
v 0.51830643 0.29400005 0.43799999
v 0.51464539 0.29469034 0.43799999
v 0.5109317 0.2949876 0.43799999
v 0.50720749 0.29488842 0.43799999
v 0.5035149 0.29439394 0.43799999
v 0.49989578 0.29350977 0.43799999
v 0.49639114 0.29224592 0.43799999
v 0.49304073 0.2906167 0.43799999
v 0.48988243 0.28864059 0.43799999
v 0.4869521 0.28633997 0.43799999
v 0.48428291 0.28374092 0.43799999
v 0.4819051 0.28087286 0.43799999
v 0.47984562 0.27776831 0.43799999
v 0.47812778 0.27446243 0.43799999
v 0.47677109 0.27099268 0.43799999
v 0.47579086 0.2673984 0.43799999
v 0.47519829 0.26372026 0.43799999
v 0.475 0.26 0.43
v 0.47519829 0.26372026 0.43
v 0.47579086 0.2673984 0.43
v 0.47677109 0.27099268 0.43
v 0.47812778 0.27446243 0.43
v 0.47984562 0.27776831 0.43
v 0.4819051 0.28087286 0.43
v 0.48428291 0.28374092 0.43
v 0.4869521 0.28633997 0.43
v 0.48988243 0.28864059 0.43
v 0.49304073 0.2906167 0.43
v 0.49639114 0.29224592 0.43
v 0.49989578 0.29350977 0.43
v 0.5035149 0.29439394 0.43
v 0.50720749 0.29488842 0.43
v 0.5109317 0.2949876 0.43
v 0.51464539 0.29469034 0.43
v 0.51830643 0.29400005 0.43
v 0.52187336 0.29292452 0.43
v 0.52530575 0.29147593 0.43
v 0.52856472 0.2896707 0.43
v 0.53161335 0.2875293 0.43
v 0.53441711 0.28507599 0.43
v 0.5369442 0.28233854 0.43
v 0.53916599 0.27934801 0.43
v 0.54105732 0.27613823 0.43
v 0.54259678 0.27274563 0.43
v 0.54376686 0.26920858 0.43
v 0.54455441 0.26556723 0.43
v 0.54495041 0.26186277 0.43
v 0.54495041 0.25813723 0.43
v 0.54455441 0.25443277 0.43
v 0.54376686 0.25079142 0.43
v 0.54259678 0.24725437 0.43
v 0.54105732 0.24386177 0.43
v 0.53916599 0.24065199 0.43
v 0.5369442 0.23766146 0.43
v 0.53441711 0.23492401 0.43
v 0.53161335 0.2324707 0.43
v 0.52856472 0.2303293 0.43
v 0.52530575 0.22852407 0.43
v 0.52187336 0.22707548 0.43
v 0.51830643 0.22599995 0.43
v 0.51464539 0.22530966 0.43
v 0.5109317 0.2250124 0.43
v 0.50720749 0.22511158 0.43
v 0.5035149 0.22560606 0.43
v 0.49989578 0.22649023 0.43
v 0.49639114 0.22775408 0.43
v 0.49304073 0.2293833 0.43
v 0.48988243 0.23135941 0.43
v 0.4869521 0.23366003 0.43
v 0.48428291 0.23625908 0.43
v 0.4819051 0.23912714 0.43
v 0.47984562 0.24223169 0.43
v 0.47812778 0.24553757 0.43
v 0.47677109 0.24900732 0.43
v 0.47579086 0.2526016 0.43
v 0.47519829 0.25627974 0.43
f 2 118 1
f 1 118 119
f 120 60 59
f 59 60 61
f 59 61 58
f 58 61 62
f 58 62 57
f 57 62 63
f 57 63 56
f 56 63 64
f 56 64 55
f 55 64 65
f 55 65 54
f 54 65 66
f 54 66 53
f 53 66 67
f 53 67 52
f 52 67 68
f 52 68 51
f 51 68 69
f 51 69 50
f 50 69 70
f 50 70 49
f 49 70 71
f 49 71 48
f 48 71 72
f 48 72 47
f 47 72 73
f 47 73 46
f 46 73 74
f 46 74 45
f 45 74 75
f 45 75 44
f 44 75 76
f 44 76 43
f 43 76 77
f 43 77 42
f 42 77 78
f 42 78 41
f 41 78 79
f 41 79 40
f 40 79 80
f 40 80 39
f 39 80 81
f 39 81 38
f 38 81 82
f 38 82 37
f 37 82 83
f 37 83 36
f 36 83 84
f 36 84 35
f 35 84 85
f 35 85 34
f 34 85 86
f 34 86 33
f 33 86 87
f 33 87 32
f 32 87 88
f 32 88 31
f 31 88 89
f 31 89 30
f 30 89 90
f 30 90 29
f 29 90 91
f 29 91 28
f 28 91 92
f 28 92 27
f 27 92 93
f 27 93 26
f 26 93 94
f 26 94 25
f 25 94 95
f 25 95 24
f 24 95 96
f 24 96 23
f 23 96 97
f 23 97 22
f 22 97 98
f 22 98 21
f 21 98 99
f 21 99 20
f 20 99 100
f 20 100 19
f 19 100 101
f 19 101 18
f 18 101 102
f 18 102 17
f 17 102 103
f 17 103 16
f 16 103 104
f 16 104 15
f 15 104 105
f 15 105 14
f 14 105 106
f 14 106 13
f 13 106 107
f 13 107 12
f 12 107 108
f 12 108 11
f 11 108 109
f 11 109 10
f 10 109 110
f 10 110 9
f 9 110 111
f 9 111 8
f 8 111 112
f 8 112 7
f 7 112 113
f 7 113 6
f 6 113 114
f 6 114 5
f 5 114 115
f 5 115 4
f 4 115 116
f 4 116 3
f 3 116 117
f 3 117 2
f 2 117 118
f 121 122 179
f 179 122 178
f 178 122 177
f 177 122 176
f 176 122 175
f 175 122 174
f 174 122 173
f 173 122 172
f 172 122 171
f 171 122 170
f 170 122 169
f 169 122 168
f 168 122 167
f 167 122 166
f 166 122 165
f 165 122 164
f 164 122 163
f 163 122 162
f 162 122 161
f 161 122 160
f 160 122 159
f 159 122 158
f 158 122 157
f 157 122 156
f 156 122 155
f 155 122 154
f 154 122 153
f 153 122 152
f 152 122 151
f 151 122 150
f 150 122 149
f 149 122 123
f 149 123 148
f 148 123 124
f 148 124 147
f 147 124 125
f 147 125 146
f 146 125 126
f 146 126 145
f 145 126 127
f 145 127 144
f 144 127 128
f 144 128 143
f 143 128 129
f 143 129 142
f 142 129 130
f 142 130 141
f 141 130 131
f 141 131 140
f 140 131 132
f 140 132 139
f 139 132 133
f 139 133 138
f 138 133 134
f 138 134 137
f 137 134 135
f 137 135 136
f 180 181 238
f 238 181 182
f 238 182 183
f 183 184 238
f 238 184 185
f 238 185 186
f 186 187 238
f 238 187 188
f 238 188 189
f 189 190 238
f 238 190 191
f 238 191 192
f 192 193 238
f 238 193 194
f 238 194 195
f 195 196 238
f 238 196 197
f 238 197 198
f 198 199 238
f 238 199 200
f 238 200 201
f 201 202 238
f 238 202 203
f 238 203 204
f 204 205 238
f 238 205 206
f 238 206 207
f 207 208 238
f 238 208 209
f 238 209 210
f 210 211 238
f 238 211 237
f 237 211 212
f 237 212 236
f 236 212 213
f 236 213 235
f 235 213 214
f 235 214 234
f 234 214 215
f 234 215 233
f 233 215 216
f 233 216 232
f 232 216 217
f 232 217 231
f 231 217 218
f 231 218 230
f 230 218 219
f 230 219 229
f 229 219 220
f 229 220 228
f 228 220 221
f 228 221 227
f 227 221 222
f 227 222 226
f 226 222 223
f 226 223 225
f 225 223 224
