v 0.13517654 -0.065999999 0.43451042
v 0.13508541 -0.065306582 0.43467266
v 0.13497471 -0.064772019 0.43513893
v 0.13486979 -0.064518771 0.4358025
v 0.13479472 -0.064604855 0.43651131
v 0.13476666 -0.065010548 0.43710297
v 0.13479207 -0.065642915 0.43744198
v 0.1348651 -0.066357083 0.4374506
v 0.13496904 -0.06698945 0.43712696
v 0.13508007 -0.067395144 0.4365451
v 0.13517276 -0.067481232 0.43583839
v 0.13522587 -0.067227983 0.43516872
v 0.13522723 -0.066693416 0.43468945
v 0.0001765422 -0.08 0.41851044
v 0.0002272342 -0.080693417 0.41868946
v 0.0002258696 -0.08122798 0.4191687
v 0.00017276099 -0.081481228 0.41983841
v 8.0074919e-05 -0.081395149 0.42054512
v -3.0955346e-05 -0.080989447 0.42112694
v -0.00013489412 -0.080357084 0.42145061
v -0.00020793026 -0.079642916 0.42144196
v -0.0002333321 -0.079010549 0.42110298
v -0.00020528037 -0.078604856 0.42051128
v -0.00013020137 -0.078518772 0.41980251
v -2.5294807e-05 -0.07877202 0.41913895
v 8.540649e-05 -0.079306583 0.41867264
v 0.0001765422 -0.08 0.41851044
v 8.540649e-05 -0.079306583 0.41867264
v -2.5294807e-05 -0.07877202 0.41913895
v -0.00013020137 -0.078518772 0.41980251
v -0.00020528037 -0.078604856 0.42051128
v -0.0002333321 -0.079010549 0.42110298
v -0.00020793026 -0.079642916 0.42144196
v -0.00013489412 -0.080357084 0.42145061
v -3.0955346e-05 -0.080989447 0.42112694
v 8.0074919e-05 -0.081395149 0.42054512
v 0.00017276099 -0.081481228 0.41983841
v 0.0002258696 -0.08122798 0.4191687
v 0.0002272342 -0.080693417 0.41868946
v 0.13517654 -0.065999999 0.43451042
v 0.13522723 -0.066693416 0.43468945
v 0.13522587 -0.067227983 0.43516872
v 0.13517276 -0.067481232 0.43583839
v 0.13508007 -0.067395144 0.4365451
v 0.13496904 -0.06698945 0.43712696
v 0.1348651 -0.066357083 0.4374506
v 0.13479207 -0.065642915 0.43744198
v 0.13476666 -0.065010548 0.43710297
v 0.13479472 -0.064604855 0.43651131
v 0.13486979 -0.064518771 0.4358025
v 0.13497471 -0.064772019 0.43513893
v 0.13508541 -0.065306582 0.43467266
v 0.13517654 -0.065999999 0.43451042
v 0.0001765422 -0.08 0.41851044
f 1 2 13
f 13 2 12
f 12 2 3
f 12 3 11
f 11 3 4
f 11 4 10
f 10 4 5
f 10 5 9
f 9 5 6
f 9 6 8
f 8 6 7
f 14 15 26
f 26 15 16
f 26 16 25
f 25 16 17
f 25 17 24
f 24 17 18
f 24 18 23
f 23 18 19
f 23 19 22
f 22 19 20
f 22 20 21
f 28 52 27
f 27 52 53
f 54 40 39
f 39 40 41
f 39 41 38
f 38 41 42
f 38 42 37
f 37 42 43
f 37 43 36
f 36 43 44
f 36 44 35
f 35 44 45
f 35 45 34
f 34 45 46
f 34 46 33
f 33 46 47
f 33 47 32
f 32 47 48
f 32 48 31
f 31 48 49
f 31 49 30
f 30 49 50
f 30 50 29
f 29 50 51
f 29 51 28
f 28 51 52
