v 0.17474079 -9.9999998e-05 0.079637108
v 0.17510607 -9.9999998e-05 0.079213161
v 0.17536697 -9.9999998e-05 0.07874352
v 0.17552353 -9.9999998e-05 0.078228168
v 0.17557571 -9.9999998e-05 0.077667122
v 0.17557571 -0.00022 0.077667122
v 0.17552353 -0.00022 0.078228168
v 0.17536697 -0.00022 0.07874352
v 0.17510607 -0.00022 0.079213161
v 0.17474079 -0.00022 0.079637108
v 0.17761663 -0.00022 0.067888131
v 0.16976944 -0.00022 0.067888131
v 0.17059891 -0.00022 0.06895225
v 0.17092905 -0.00022 0.069276605
v 0.17141747 -0.00022 0.069720325
v 0.17206411 -0.00022 0.070283422
v 0.17286903 -0.00022 0.070965891
v 0.17385231 -0.00022 0.071813097
v 0.17468485 -0.00022 0.072564802
v 0.17536665 -0.00022 0.073221006
v 0.17589767 -0.00022 0.073781719
v 0.1766794 -0.00022 0.074783082
v 0.1772019 -0.00022 0.075735331
v 0.17749659 -0.00022 0.076671214
v 0.17759481 -0.00022 0.077623463
v 0.17751091 -0.00022 0.078529329
v 0.1772592 -0.00022 0.079358797
v 0.17683969 -0.00022 0.080111866
v 0.17625238 -0.00022 0.080788536
v 0.17552114 -0.00022 0.081347198
v 0.17466986 -0.00022 0.081746244
v 0.1736985 -0.00022 0.081985674
v 0.1726071 -0.00022 0.082065487
v 0.17152456 -0.00022 0.081991472
v 0.17055798 -0.00022 0.081769438
v 0.16970737 -0.00022 0.081399384
v 0.1689727 -0.00022 0.08088131
v 0.16836767 -0.00022 0.080222034
v 0.16790586 -0.00022 0.079428377
v 0.16758732 -0.00022 0.078500338
v 0.16741199 -0.00022 0.077437925
v 0.1694311 -0.00022 0.077230558
v 0.16948908 -0.00022 0.0779427
v 0.16965212 -0.00022 0.078572989
v 0.1699202 -0.00022 0.079121418
v 0.17029331 -0.00022 0.079587994
v 0.17075443 -0.00022 0.079960437
v 0.17128649 -0.00022 0.080226469
v 0.1718895 -0.00022 0.080386086
v 0.17256344 -0.00022 0.080439291
v 0.17320293 -0.00022 0.080389156
v 0.17377899 -0.00022 0.080238743
v 0.17429161 -0.00022 0.07998806
v 0.17474079 -0.00022 0.079637108
v 0.17510607 -0.00022 0.079213161
v 0.17536697 -0.00022 0.07874352
v 0.17552353 -0.00022 0.078228168
v 0.17557571 -0.00022 0.077667122
v 0.17551842 -0.00022 0.077101979
v 0.17534653 -0.00022 0.07651978
v 0.17506002 -0.00022 0.075920529
v 0.17465893 -0.00022 0.075304227
v 0.17409481 -0.00022 0.074623804
v 0.17331923 -0.00022 0.073832197
v 0.17233219 -0.00022 0.072929397
v 0.17113369 -0.00022 0.071915412
v 0.17034277 -0.00022 0.071248293
v 0.16965075 -0.00022 0.070622101
v 0.16905764 -0.00022 0.070036836
v 0.16856344 -0.00022 0.069492493
v 0.16779535 -0.00022 0.068436561
v 0.16727013 -0.00022 0.067364254
v 0.16708731 -0.00022 0.066695771
v 0.16704092 -0.00022 0.065999999
v 0.17761663 -0.00022 0.065999999
v 0.17256344 -9.9999998e-05 0.080439291
v 0.17320293 -9.9999998e-05 0.080389156
v 0.17377899 -9.9999998e-05 0.080238743
v 0.17429161 -9.9999998e-05 0.07998806
v 0.17474079 -9.9999998e-05 0.079637108
v 0.17474079 -0.00022 0.079637108
v 0.17429161 -0.00022 0.07998806
v 0.17377899 -0.00022 0.080238743
v 0.17320293 -0.00022 0.080389156
v 0.17256344 -0.00022 0.080439291
v 0.16976944 -9.9999998e-05 0.067888131
v 0.17059891 -9.9999998e-05 0.06895225
v 0.17059891 -0.00022 0.06895225
v 0.16976944 -0.00022 0.067888131
v 0.17029331 -9.9999998e-05 0.079587994
v 0.17075443 -9.9999998e-05 0.079960437
v 0.17128649 -9.9999998e-05 0.080226469
v 0.1718895 -9.9999998e-05 0.080386086
v 0.17256344 -9.9999998e-05 0.080439291
v 0.17256344 -0.00022 0.080439291
v 0.1718895 -0.00022 0.080386086
v 0.17128649 -0.00022 0.080226469
v 0.17075443 -0.00022 0.079960437
v 0.17029331 -0.00022 0.079587994
v 0.17059891 -9.9999998e-05 0.06895225
v 0.17092905 -9.9999998e-05 0.069276605
v 0.17141747 -9.9999998e-05 0.069720325
v 0.17206411 -9.9999998e-05 0.070283422
v 0.17286903 -9.9999998e-05 0.070965891
v 0.17286903 -0.00022 0.070965891
v 0.17206411 -0.00022 0.070283422
v 0.17141747 -0.00022 0.069720325
v 0.17092905 -0.00022 0.069276605
v 0.17059891 -0.00022 0.06895225
v 0.1694311 -9.9999998e-05 0.077230558
v 0.16948908 -9.9999998e-05 0.0779427
v 0.16965212 -9.9999998e-05 0.078572989
v 0.1699202 -9.9999998e-05 0.079121418
v 0.17029331 -9.9999998e-05 0.079587994
v 0.17029331 -0.00022 0.079587994
v 0.1699202 -0.00022 0.079121418
v 0.16965212 -0.00022 0.078572989
v 0.16948908 -0.00022 0.0779427
v 0.1694311 -0.00022 0.077230558
v 0.1689727 -9.9999998e-05 0.08088131
v 0.16836767 -9.9999998e-05 0.080222034
v 0.16790586 -9.9999998e-05 0.079428377
v 0.16758732 -9.9999998e-05 0.078500338
v 0.16741199 -9.9999998e-05 0.077437925
v 0.16741199 -0.00022 0.077437925
v 0.16758732 -0.00022 0.078500338
v 0.16790586 -0.00022 0.079428377
v 0.16836767 -0.00022 0.080222034
v 0.1689727 -0.00022 0.08088131
v 0.16741199 -9.9999998e-05 0.077437925
v 0.1694311 -9.9999998e-05 0.077230558
v 0.1694311 -0.00022 0.077230558
v 0.16741199 -0.00022 0.077437925
v 0.17589767 -9.9999998e-05 0.073781719
v 0.1766794 -9.9999998e-05 0.074783082
v 0.1772019 -9.9999998e-05 0.075735331
v 0.1772019 -0.00022 0.075735331
v 0.1766794 -0.00022 0.074783082
v 0.17589767 -0.00022 0.073781719
v 0.1772019 -9.9999998e-05 0.075735331
v 0.17749659 -9.9999998e-05 0.076671214
v 0.17759481 -9.9999998e-05 0.077623463
v 0.17759481 -0.00022 0.077623463
v 0.17749659 -0.00022 0.076671214
v 0.1772019 -0.00022 0.075735331
v 0.1726071 -9.9999998e-05 0.082065487
v 0.17152456 -9.9999998e-05 0.081991472
v 0.17055798 -9.9999998e-05 0.081769438
v 0.16970737 -9.9999998e-05 0.081399384
v 0.1689727 -9.9999998e-05 0.08088131
v 0.1689727 -0.00022 0.08088131
v 0.16970737 -0.00022 0.081399384
v 0.17055798 -0.00022 0.081769438
v 0.17152456 -0.00022 0.081991472
v 0.1726071 -0.00022 0.082065487
v 0.17759481 -9.9999998e-05 0.077623463
v 0.17751091 -9.9999998e-05 0.078529329
v 0.1772592 -9.9999998e-05 0.079358797
v 0.17683969 -9.9999998e-05 0.080111866
v 0.17625238 -9.9999998e-05 0.080788536
v 0.17625238 -0.00022 0.080788536
v 0.17683969 -0.00022 0.080111866
v 0.1772592 -0.00022 0.079358797
v 0.17751091 -0.00022 0.078529329
v 0.17759481 -0.00022 0.077623463
v 0.17625238 -9.9999998e-05 0.080788536
v 0.17552114 -9.9999998e-05 0.081347198
v 0.17466986 -9.9999998e-05 0.081746244
v 0.1736985 -9.9999998e-05 0.081985674
v 0.1726071 -9.9999998e-05 0.082065487
v 0.1726071 -0.00022 0.082065487
v 0.1736985 -0.00022 0.081985674
v 0.17466986 -0.00022 0.081746244
v 0.17552114 -0.00022 0.081347198
v 0.17625238 -0.00022 0.080788536
v 0.16704092 -9.9999998e-05 0.065999999
v 0.17761663 -9.9999998e-05 0.065999999
v 0.17761663 -0.00022 0.065999999
v 0.16704092 -0.00022 0.065999999
v 0.17113369 -9.9999998e-05 0.071915412
v 0.17034277 -9.9999998e-05 0.071248293
v 0.16965075 -9.9999998e-05 0.070622101
v 0.16905764 -9.9999998e-05 0.070036836
v 0.16856344 -9.9999998e-05 0.069492493
v 0.16856344 -0.00022 0.069492493
v 0.16905764 -0.00022 0.070036836
v 0.16965075 -0.00022 0.070622101
v 0.17034277 -0.00022 0.071248293
v 0.17113369 -0.00022 0.071915412
v 0.16856344 -9.9999998e-05 0.069492493
v 0.16779535 -9.9999998e-05 0.068436561
v 0.16727013 -9.9999998e-05 0.067364254
v 0.16727013 -0.00022 0.067364254
v 0.16779535 -0.00022 0.068436561
v 0.16856344 -0.00022 0.069492493
v 0.16727013 -9.9999998e-05 0.067364254
v 0.16708731 -9.9999998e-05 0.066695771
v 0.16704092 -9.9999998e-05 0.065999999
v 0.16704092 -0.00022 0.065999999
v 0.16708731 -0.00022 0.066695771
v 0.16727013 -0.00022 0.067364254
v 0.17761663 -9.9999998e-05 0.065999999
v 0.17761663 -9.9999998e-05 0.067888131
v 0.17761663 -0.00022 0.067888131
v 0.17761663 -0.00022 0.065999999
v 0.16976944 -9.9999998e-05 0.067888131
v 0.17761663 -9.9999998e-05 0.067888131
v 0.17761663 -9.9999998e-05 0.065999999
v 0.16704092 -9.9999998e-05 0.065999999
v 0.16708731 -9.9999998e-05 0.066695771
v 0.16727013 -9.9999998e-05 0.067364254
v 0.16779535 -9.9999998e-05 0.068436561
v 0.16856344 -9.9999998e-05 0.069492493
v 0.16905764 -9.9999998e-05 0.070036836
v 0.16965075 -9.9999998e-05 0.070622101
v 0.17034277 -9.9999998e-05 0.071248293
v 0.17113369 -9.9999998e-05 0.071915412
v 0.17233219 -9.9999998e-05 0.072929397
v 0.17331923 -9.9999998e-05 0.073832197
v 0.17409481 -9.9999998e-05 0.074623804
v 0.17465893 -9.9999998e-05 0.075304227
v 0.17506002 -9.9999998e-05 0.075920529
v 0.17534653 -9.9999998e-05 0.07651978
v 0.17551842 -9.9999998e-05 0.077101979
v 0.17557571 -9.9999998e-05 0.077667122
v 0.17552353 -9.9999998e-05 0.078228168
v 0.17536697 -9.9999998e-05 0.07874352
v 0.17510607 -9.9999998e-05 0.079213161
v 0.17474079 -9.9999998e-05 0.079637108
v 0.17429161 -9.9999998e-05 0.07998806
v 0.17377899 -9.9999998e-05 0.080238743
v 0.17320293 -9.9999998e-05 0.080389156
v 0.17256344 -9.9999998e-05 0.080439291
v 0.1718895 -9.9999998e-05 0.080386086
v 0.17128649 -9.9999998e-05 0.080226469
v 0.17075443 -9.9999998e-05 0.079960437
v 0.17029331 -9.9999998e-05 0.079587994
v 0.1699202 -9.9999998e-05 0.079121418
v 0.16965212 -9.9999998e-05 0.078572989
v 0.16948908 -9.9999998e-05 0.0779427
v 0.1694311 -9.9999998e-05 0.077230558
v 0.16741199 -9.9999998e-05 0.077437925
v 0.16758732 -9.9999998e-05 0.078500338
v 0.16790586 -9.9999998e-05 0.079428377
v 0.16836767 -9.9999998e-05 0.080222034
v 0.1689727 -9.9999998e-05 0.08088131
v 0.16970737 -9.9999998e-05 0.081399384
v 0.17055798 -9.9999998e-05 0.081769438
v 0.17152456 -9.9999998e-05 0.081991472
v 0.1726071 -9.9999998e-05 0.082065487
v 0.1736985 -9.9999998e-05 0.081985674
v 0.17466986 -9.9999998e-05 0.081746244
v 0.17552114 -9.9999998e-05 0.081347198
v 0.17625238 -9.9999998e-05 0.080788536
v 0.17683969 -9.9999998e-05 0.080111866
v 0.1772592 -9.9999998e-05 0.079358797
v 0.17751091 -9.9999998e-05 0.078529329
v 0.17759481 -9.9999998e-05 0.077623463
v 0.17749659 -9.9999998e-05 0.076671214
v 0.1772019 -9.9999998e-05 0.075735331
v 0.1766794 -9.9999998e-05 0.074783082
v 0.17589767 -9.9999998e-05 0.073781719
v 0.17536665 -9.9999998e-05 0.073221006
v 0.17468485 -9.9999998e-05 0.072564802
v 0.17385231 -9.9999998e-05 0.071813097
v 0.17286903 -9.9999998e-05 0.070965891
v 0.17206411 -9.9999998e-05 0.070283422
v 0.17141747 -9.9999998e-05 0.069720325
v 0.17092905 -9.9999998e-05 0.069276605
v 0.17059891 -9.9999998e-05 0.06895225
v 0.17286903 -9.9999998e-05 0.070965891
v 0.17385231 -9.9999998e-05 0.071813097
v 0.17468485 -9.9999998e-05 0.072564802
v 0.17536665 -9.9999998e-05 0.073221006
v 0.17589767 -9.9999998e-05 0.073781719
v 0.17589767 -0.00022 0.073781719
v 0.17536665 -0.00022 0.073221006
v 0.17468485 -0.00022 0.072564802
v 0.17385231 -0.00022 0.071813097
v 0.17286903 -0.00022 0.070965891
v 0.17557571 -9.9999998e-05 0.077667122
v 0.17551842 -9.9999998e-05 0.077101979
v 0.17534653 -9.9999998e-05 0.07651978
v 0.17506002 -9.9999998e-05 0.075920529
v 0.17465893 -9.9999998e-05 0.075304227
v 0.17465893 -0.00022 0.075304227
v 0.17506002 -0.00022 0.075920529
v 0.17534653 -0.00022 0.07651978
v 0.17551842 -0.00022 0.077101979
v 0.17557571 -0.00022 0.077667122
v 0.17761663 -9.9999998e-05 0.067888131
v 0.16976944 -9.9999998e-05 0.067888131
v 0.16976944 -0.00022 0.067888131
v 0.17761663 -0.00022 0.067888131
v 0.17465893 -9.9999998e-05 0.075304227
v 0.17409481 -9.9999998e-05 0.074623804
v 0.17331923 -9.9999998e-05 0.073832197
v 0.17233219 -9.9999998e-05 0.072929397
v 0.17113369 -9.9999998e-05 0.071915412
v 0.17113369 -0.00022 0.071915412
v 0.17233219 -0.00022 0.072929397
v 0.17331923 -0.00022 0.073832197
v 0.17409481 -0.00022 0.074623804
v 0.17465893 -0.00022 0.075304227
f 1 2 10
f 10 2 9
f 9 2 3
f 9 3 8
f 8 3 4
f 8 4 7
f 7 4 5
f 7 5 6
f 11 12 75
f 75 12 74
f 74 12 73
f 73 12 72
f 72 12 71
f 71 12 70
f 70 12 69
f 69 12 13
f 69 13 68
f 68 13 67
f 67 13 14
f 67 14 15
f 67 15 66
f 66 15 16
f 66 16 65
f 65 16 17
f 65 17 18
f 65 18 64
f 64 18 19
f 64 19 63
f 63 19 20
f 63 20 62
f 62 20 21
f 62 21 61
f 61 21 22
f 61 22 60
f 60 22 23
f 60 23 59
f 59 23 24
f 59 24 58
f 58 24 25
f 58 25 26
f 58 26 57
f 57 26 27
f 57 27 28
f 57 28 56
f 56 28 29
f 56 29 55
f 55 29 30
f 55 30 54
f 54 30 31
f 54 31 53
f 53 31 52
f 52 31 32
f 52 32 51
f 51 32 33
f 51 33 50
f 50 33 49
f 49 33 34
f 49 34 48
f 48 34 35
f 48 35 47
f 47 35 36
f 47 36 46
f 46 36 37
f 46 37 45
f 45 37 38
f 45 38 44
f 44 38 39
f 44 39 43
f 43 39 40
f 43 40 42
f 42 40 41
f 76 77 85
f 85 77 84
f 84 77 78
f 84 78 83
f 83 78 79
f 83 79 82
f 82 79 80
f 82 80 81
f 86 87 89
f 89 87 88
f 90 91 99
f 99 91 98
f 98 91 92
f 98 92 97
f 97 92 93
f 97 93 96
f 96 93 94
f 96 94 95
f 100 101 109
f 109 101 108
f 108 101 102
f 108 102 107
f 107 102 103
f 107 103 106
f 106 103 104
f 106 104 105
f 110 111 119
f 119 111 118
f 118 111 112
f 118 112 117
f 117 112 113
f 117 113 116
f 116 113 114
f 116 114 115
f 120 121 129
f 129 121 128
f 128 121 122
f 128 122 127
f 127 122 123
f 127 123 126
f 126 123 124
f 126 124 125
f 130 131 133
f 133 131 132
f 134 135 139
f 139 135 138
f 138 135 136
f 138 136 137
f 140 141 145
f 145 141 144
f 144 141 142
f 144 142 143
f 146 147 155
f 155 147 154
f 154 147 148
f 154 148 153
f 153 148 149
f 153 149 152
f 152 149 150
f 152 150 151
f 156 157 165
f 165 157 164
f 164 157 158
f 164 158 163
f 163 158 159
f 163 159 162
f 162 159 160
f 162 160 161
f 166 167 175
f 175 167 174
f 174 167 168
f 174 168 173
f 173 168 169
f 173 169 172
f 172 169 170
f 172 170 171
f 176 177 179
f 179 177 178
f 180 181 189
f 189 181 188
f 188 181 182
f 188 182 187
f 187 182 183
f 187 183 186
f 186 183 184
f 186 184 185
f 190 191 195
f 195 191 194
f 194 191 192
f 194 192 193
f 196 197 201
f 201 197 200
f 200 197 198
f 200 198 199
f 202 203 205
f 205 203 204
f 207 208 206
f 206 208 209
f 206 209 210
f 210 211 206
f 206 211 212
f 206 212 213
f 213 214 206
f 206 214 270
f 270 214 215
f 270 215 216
f 217 268 216
f 216 268 269
f 216 269 270
f 268 217 267
f 267 217 218
f 267 218 266
f 266 218 265
f 265 218 219
f 265 219 264
f 264 219 220
f 264 220 263
f 263 220 221
f 263 221 262
f 262 221 222
f 262 222 261
f 261 222 223
f 261 223 260
f 260 223 224
f 260 224 259
f 259 224 225
f 259 225 258
f 258 225 257
f 257 225 226
f 257 226 256
f 256 226 255
f 255 226 227
f 255 227 254
f 254 227 228
f 254 228 253
f 253 228 229
f 253 229 252
f 252 229 230
f 252 230 231
f 252 231 251
f 251 231 232
f 251 232 250
f 250 232 233
f 250 233 234
f 250 234 249
f 249 234 235
f 249 235 248
f 248 235 236
f 248 236 247
f 247 236 237
f 247 237 246
f 246 237 238
f 246 238 245
f 245 238 239
f 245 239 244
f 244 239 240
f 244 240 243
f 243 240 241
f 243 241 242
f 271 272 280
f 280 272 279
f 279 272 273
f 279 273 278
f 278 273 274
f 278 274 277
f 277 274 275
f 277 275 276
f 281 282 290
f 290 282 289
f 289 282 283
f 289 283 288
f 288 283 284
f 288 284 287
f 287 284 285
f 287 285 286
f 291 292 294
f 294 292 293
f 295 296 304
f 304 296 303
f 303 296 297
f 303 297 302
f 302 297 298
f 302 298 301
f 301 298 299
f 301 299 300
