v 0.35 0.16 0.258314
v 0.35 0.16 0.03
v 0.34400002 0.16 0.03
v 0.34400002 0.16 0.258314
v 0.35 0.16 0.03
v 0.35 0.146 0.03
v 0.34400002 0.146 0.03
v 0.34400002 0.16 0.03
v 0.34400002 0.16 0.258314
v 0.34400002 0.16 0.03
v 0.34400002 0.146 0.03
v 0.34400002 0.146 0.258314
v 0.35 0.146 0.258314
v 0.35 0.146 0.03
v 0.35 0.16 0.03
v 0.35 0.16 0.258314
v 0.34400002 0.146 0.258314
v 0.34400002 0.146 0.03
v 0.35 0.146 0.03
v 0.35 0.146 0.258314
v 0.35 0.146 0.258314
v 0.35 0.16 0.258314
v 0.34400002 0.16 0.258314
v 0.34400002 0.146 0.258314
f 1 2 4
f 4 2 3
f 6 7 5
f 5 7 8
f 9 10 12
f 12 10 11
f 13 14 16
f 16 14 15
f 17 18 20
f 20 18 19
f 22 23 21
f 21 23 24
