v 0.054186902 -0.2966 0.11201637
v 0.05375102 -0.2966 0.1119485
v 0.053392906 -0.2966 0.11174488
v 0.053392906 -0.29672001 0.11174488
v 0.05375102 -0.29672001 0.1119485
v 0.054186902 -0.29672001 0.11201637
v 0.054789906 -0.2966 0.11187585
v 0.054186902 -0.2966 0.11201637
v 0.054186902 -0.29672001 0.11201637
v 0.054789906 -0.29672001 0.11187585
v 0.053392906 -0.2966 0.11174488
v 0.05313097 -0.2966 0.11141781
v 0.052983627 -0.2966 0.11097954
v 0.052983627 -0.29672001 0.11097954
v 0.05313097 -0.29672001 0.11141781
v 0.053392906 -0.29672001 0.11174488
v 0.055211458 -0.2966 0.1114925
v 0.054789906 -0.2966 0.11187585
v 0.054789906 -0.29672001 0.11187585
v 0.055211458 -0.29672001 0.1114925
v 0.052983627 -0.2966 0.11097954
v 0.05347476 -0.2966 0.11089222
v 0.05347476 -0.29672001 0.11089222
v 0.052983627 -0.29672001 0.11097954
v 0.055357432 -0.2966 0.11097681
v 0.055211458 -0.2966 0.1114925
v 0.055211458 -0.29672001 0.1114925
v 0.055357432 -0.29672001 0.11097681
v 0.05347476 -0.2966 0.11089222
v 0.053563437 -0.2966 0.11120737
v 0.053720326 -0.2966 0.11143247
v 0.053720326 -0.29672001 0.11143247
v 0.053563437 -0.29672001 0.11120737
v 0.05347476 -0.29672001 0.11089222
v 0.055218282 -0.2966 0.11050477
v 0.055357432 -0.2966 0.11097681
v 0.055357432 -0.29672001 0.11097681
v 0.055218282 -0.29672001 0.11050477
v 0.053720326 -0.2966 0.11143247
v 0.053935199 -0.2966 0.11156754
v 0.054197817 -0.2966 0.11161255
v 0.054197817 -0.29672001 0.11161255
v 0.053935199 -0.29672001 0.11156754
v 0.053720326 -0.29672001 0.11143247
v 0.054806275 -0.2966 0.11016644
v 0.055218282 -0.2966 0.11050477
v 0.055218282 -0.29672001 0.11050477
v 0.054806275 -0.29672001 0.11016644
v 0.054197817 -0.2966 0.11161255
v 0.054460435 -0.2966 0.11156821
v 0.054669847 -0.2966 0.11143519
v 0.054669847 -0.29672001 0.11143519
v 0.054460435 -0.29672001 0.11156821
v 0.054197817 -0.29672001 0.11161255
v 0.055357432 -0.2966 0.10982674
v 0.055121417 -0.2966 0.11004059
v 0.054806275 -0.2966 0.11016644
v 0.054806275 -0.29672001 0.11016644
v 0.055121417 -0.29672001 0.11004059
v 0.055357432 -0.29672001 0.10982674
v 0.054669847 -0.2966 0.11143519
v 0.054806957 -0.2966 0.11123466
v 0.054852657 -0.2966 0.11098772
v 0.054852657 -0.29672001 0.11098772
v 0.054806957 -0.29672001 0.11123466
v 0.054669847 -0.29672001 0.11143519
v 0.055553889 -0.2966 0.10918144
v 0.055504775 -0.2966 0.1095365
v 0.055357432 -0.2966 0.10982674
v 0.055357432 -0.29672001 0.10982674
v 0.055504775 -0.29672001 0.1095365
v 0.055553889 -0.29672001 0.10918144
v 0.054852657 -0.2966 0.11098772
v 0.054789906 -0.2966 0.11069099
v 0.054601636 -0.2966 0.11048295
v 0.054601636 -0.29672001 0.11048295
v 0.054789906 -0.29672001 0.11069099
v 0.054852657 -0.29672001 0.11098772
v 0.055171895 -0.2966 0.10829331
v 0.055458388 -0.2966 0.10869748
v 0.055553889 -0.2966 0.10918144
v 0.055553889 -0.29672001 0.10918144
v 0.055458388 -0.29672001 0.10869748
v 0.055171895 -0.29672001 0.10829331
v 0.054601636 -0.2966 0.11048295
v 0.054036832 -0.2966 0.11031923
v 0.054036832 -0.29672001 0.11031923
v 0.054601636 -0.29672001 0.11048295
v 0.054206004 -0.2966 0.10792906
v 0.054739428 -0.2966 0.10802012
v 0.055171895 -0.2966 0.10829331
v 0.055171895 -0.29672001 0.10829331
v 0.054739428 -0.29672001 0.10802012
v 0.054206004 -0.29672001 0.10792906
v 0.054036832 -0.2966 0.11031923
v 0.053957705 -0.2966 0.1103247
v 0.053957705 -0.29672001 0.1103247
v 0.054036832 -0.29672001 0.11031923
v 0.053331513 -0.2966 0.10824284
v 0.053724079 -0.2966 0.10800751
v 0.054206004 -0.2966 0.10792906
v 0.054206004 -0.29672001 0.10792906
v 0.053724079 -0.29672001 0.10800751
v 0.053331513 -0.29672001 0.10824284
v 0.053957705 -0.2966 0.1103247
v 0.053903136 -0.2966 0.10989359
v 0.053903136 -0.29672001 0.10989359
v 0.053957705 -0.29672001 0.1103247
v 0.052934513 -0.29672001 0.10905594
v 0.053058319 -0.29672001 0.108603
v 0.053331513 -0.29672001 0.10824284
v 0.053724079 -0.29672001 0.10800751
v 0.054206004 -0.29672001 0.10792906
v 0.054739428 -0.29672001 0.10802012
v 0.055171895 -0.29672001 0.10829331
v 0.055458388 -0.29672001 0.10869748
v 0.055553889 -0.29672001 0.10918144
v 0.055504775 -0.29672001 0.1095365
v 0.055357432 -0.29672001 0.10982674
v 0.055121417 -0.29672001 0.11004059
v 0.054806275 -0.29672001 0.11016644
v 0.055218282 -0.29672001 0.11050477
v 0.055357432 -0.29672001 0.11097681
v 0.055211458 -0.29672001 0.1114925
v 0.054789906 -0.29672001 0.11187585
v 0.054186902 -0.29672001 0.11201637
v 0.05375102 -0.29672001 0.1119485
v 0.053392906 -0.29672001 0.11174488
v 0.05313097 -0.29672001 0.11141781
v 0.052983627 -0.29672001 0.11097954
v 0.05347476 -0.29672001 0.11089222
v 0.053563437 -0.29672001 0.11120737
v 0.053720326 -0.29672001 0.11143247
v 0.053935199 -0.29672001 0.11156754
v 0.054197817 -0.29672001 0.11161255
v 0.054460435 -0.29672001 0.11156821
v 0.054669847 -0.29672001 0.11143519
v 0.054806957 -0.29672001 0.11123466
v 0.054852657 -0.29672001 0.11098772
v 0.054789906 -0.29672001 0.11069099
v 0.054601636 -0.29672001 0.11048295
v 0.054036832 -0.29672001 0.11031923
v 0.053957705 -0.29672001 0.1103247
v 0.053903136 -0.29672001 0.10989359
v 0.054249659 -0.29672001 0.10994816
v 0.054560709 -0.29672001 0.10989325
v 0.05481173 -0.29672001 0.10972852
v 0.054977489 -0.29672001 0.1094792
v 0.05503274 -0.29672001 0.10917053
v 0.054973054 -0.29672001 0.10884447
v 0.054793997 -0.29672001 0.10857572
v 0.054528308 -0.29672001 0.10839563
v 0.054208732 -0.29672001 0.10833561
v 0.053938947 -0.29672001 0.10838165
v 0.053713508 -0.29672001 0.10851978
v 0.053539906 -0.29672001 0.10876228
v 0.053425646 -0.29672001 0.10912142
v 0.053903136 -0.2966 0.10989359
v 0.054249659 -0.2966 0.10994816
v 0.054249659 -0.29672001 0.10994816
v 0.053903136 -0.29672001 0.10989359
v 0.052934513 -0.2966 0.10905594
v 0.053058319 -0.2966 0.108603
v 0.053331513 -0.2966 0.10824284
v 0.053331513 -0.29672001 0.10824284
v 0.053058319 -0.29672001 0.108603
v 0.052934513 -0.29672001 0.10905594
v 0.054249659 -0.2966 0.10994816
v 0.054560709 -0.2966 0.10989325
v 0.05481173 -0.2966 0.10972852
v 0.05481173 -0.29672001 0.10972852
v 0.054560709 -0.29672001 0.10989325
v 0.054249659 -0.29672001 0.10994816
v 0.053331513 -0.2966 0.10824284
v 0.053058319 -0.2966 0.108603
v 0.052934513 -0.2966 0.10905594
v 0.053425646 -0.2966 0.10912142
v 0.053539906 -0.2966 0.10876228
v 0.053713508 -0.2966 0.10851978
v 0.053938947 -0.2966 0.10838165
v 0.054208732 -0.2966 0.10833561
v 0.054528308 -0.2966 0.10839563
v 0.054793997 -0.2966 0.10857572
v 0.054973054 -0.2966 0.10884447
v 0.05503274 -0.2966 0.10917053
v 0.054977489 -0.2966 0.1094792
v 0.05481173 -0.2966 0.10972852
v 0.054560709 -0.2966 0.10989325
v 0.054249659 -0.2966 0.10994816
v 0.053903136 -0.2966 0.10989359
v 0.053957705 -0.2966 0.1103247
v 0.054036832 -0.2966 0.11031923
v 0.054601636 -0.2966 0.11048295
v 0.054789906 -0.2966 0.11069099
v 0.054852657 -0.2966 0.11098772
v 0.054806957 -0.2966 0.11123466
v 0.054669847 -0.2966 0.11143519
v 0.054460435 -0.2966 0.11156821
v 0.054197817 -0.2966 0.11161255
v 0.053935199 -0.2966 0.11156754
v 0.053720326 -0.2966 0.11143247
v 0.053563437 -0.2966 0.11120737
v 0.05347476 -0.2966 0.11089222
v 0.052983627 -0.2966 0.11097954
v 0.05313097 -0.2966 0.11141781
v 0.053392906 -0.2966 0.11174488
v 0.05375102 -0.2966 0.1119485
v 0.054186902 -0.2966 0.11201637
v 0.054789906 -0.2966 0.11187585
v 0.055211458 -0.2966 0.1114925
v 0.055357432 -0.2966 0.11097681
v 0.055218282 -0.2966 0.11050477
v 0.054806275 -0.2966 0.11016644
v 0.055121417 -0.2966 0.11004059
v 0.055357432 -0.2966 0.10982674
v 0.055504775 -0.2966 0.1095365
v 0.055553889 -0.2966 0.10918144
v 0.055458388 -0.2966 0.10869748
v 0.055171895 -0.2966 0.10829331
v 0.054739428 -0.2966 0.10802012
v 0.054206004 -0.2966 0.10792906
v 0.053724079 -0.2966 0.10800751
v 0.05481173 -0.2966 0.10972852
v 0.054977489 -0.2966 0.1094792
v 0.05503274 -0.2966 0.10917053
v 0.05503274 -0.29672001 0.10917053
v 0.054977489 -0.29672001 0.1094792
v 0.05481173 -0.29672001 0.10972852
v 0.05503274 -0.2966 0.10917053
v 0.054973054 -0.2966 0.10884447
v 0.054793997 -0.2966 0.10857572
v 0.054793997 -0.29672001 0.10857572
v 0.054973054 -0.29672001 0.10884447
v 0.05503274 -0.29672001 0.10917053
v 0.054793997 -0.2966 0.10857572
v 0.054528308 -0.2966 0.10839563
v 0.054208732 -0.2966 0.10833561
v 0.054208732 -0.29672001 0.10833561
v 0.054528308 -0.29672001 0.10839563
v 0.054793997 -0.29672001 0.10857572
v 0.054208732 -0.2966 0.10833561
v 0.053938947 -0.2966 0.10838165
v 0.053713508 -0.2966 0.10851978
v 0.053713508 -0.29672001 0.10851978
v 0.053938947 -0.29672001 0.10838165
v 0.054208732 -0.29672001 0.10833561
v 0.053713508 -0.2966 0.10851978
v 0.053539906 -0.2966 0.10876228
v 0.053425646 -0.2966 0.10912142
v 0.053425646 -0.29672001 0.10912142
v 0.053539906 -0.29672001 0.10876228
v 0.053713508 -0.29672001 0.10851978
v 0.053425646 -0.2966 0.10912142
v 0.052934513 -0.2966 0.10905594
v 0.052934513 -0.29672001 0.10905594
v 0.053425646 -0.29672001 0.10912142
f 1 2 6
f 6 2 5
f 5 2 3
f 5 3 4
f 7 8 10
f 10 8 9
f 11 12 16
f 16 12 15
f 15 12 13
f 15 13 14
f 17 18 20
f 20 18 19
f 21 22 24
f 24 22 23
f 25 26 28
f 28 26 27
f 29 30 34
f 34 30 33
f 33 30 31
f 33 31 32
f 35 36 38
f 38 36 37
f 39 40 44
f 44 40 43
f 43 40 41
f 43 41 42
f 45 46 48
f 48 46 47
f 49 50 54
f 54 50 53
f 53 50 51
f 53 51 52
f 55 56 60
f 60 56 59
f 59 56 57
f 59 57 58
f 61 62 66
f 66 62 65
f 65 62 63
f 65 63 64
f 67 68 72
f 72 68 71
f 71 68 69
f 71 69 70
f 73 74 78
f 78 74 77
f 77 74 75
f 77 75 76
f 79 80 84
f 84 80 83
f 83 80 81
f 83 81 82
f 85 86 88
f 88 86 87
f 89 90 94
f 94 90 93
f 93 90 91
f 93 91 92
f 95 96 98
f 98 96 97
f 99 100 104
f 104 100 103
f 103 100 101
f 103 101 102
f 105 106 108
f 108 106 107
f 109 110 157
f 157 110 156
f 156 110 111
f 156 111 155
f 155 111 112
f 155 112 154
f 154 112 113
f 154 113 153
f 153 113 152
f 152 113 114
f 152 114 151
f 151 114 115
f 151 115 150
f 150 115 116
f 150 116 149
f 149 116 117
f 149 117 118
f 149 118 148
f 148 118 119
f 148 119 120
f 148 120 147
f 147 120 121
f 147 121 146
f 146 121 141
f 146 141 145
f 145 141 142
f 145 142 144
f 144 142 143
f 141 121 140
f 140 121 122
f 140 122 139
f 139 122 123
f 139 123 124
f 139 124 138
f 138 124 125
f 138 125 137
f 137 125 136
f 136 125 126
f 136 126 135
f 135 126 134
f 134 126 127
f 134 127 133
f 133 127 128
f 133 128 132
f 132 128 129
f 132 129 131
f 131 129 130
f 158 159 161
f 161 159 160
f 162 163 167
f 167 163 166
f 166 163 164
f 166 164 165
f 168 169 173
f 173 169 172
f 172 169 170
f 172 170 171
f 175 178 174
f 174 178 179
f 174 179 222
f 222 179 180
f 222 180 221
f 221 180 181
f 221 181 182
f 176 177 175
f 175 177 178
f 221 182 220
f 220 182 183
f 220 183 219
f 219 183 184
f 219 184 218
f 218 184 185
f 218 185 217
f 217 185 216
f 216 185 186
f 216 186 215
f 215 186 214
f 214 186 187
f 214 187 213
f 213 187 188
f 213 188 193
f 193 188 189
f 193 189 192
f 192 189 190
f 192 190 191
f 193 194 213
f 213 194 212
f 212 194 195
f 212 195 211
f 211 195 210
f 210 195 196
f 210 196 209
f 209 196 197
f 209 197 198
f 209 198 208
f 208 198 199
f 208 199 200
f 208 200 207
f 207 200 201
f 207 201 206
f 206 201 202
f 206 202 205
f 205 202 203
f 205 203 204
f 223 224 228
f 228 224 227
f 227 224 225
f 227 225 226
f 229 230 234
f 234 230 233
f 233 230 231
f 233 231 232
f 235 236 240
f 240 236 239
f 239 236 237
f 239 237 238
f 241 242 246
f 246 242 245
f 245 242 243
f 245 243 244
f 247 248 252
f 252 248 251
f 251 248 249
f 251 249 250
f 253 254 256
f 256 254 255
