v 0.46599998 0.70400002 0.086999998
v 0.46619576 0.70523605 0.086999998
v 0.46676392 0.70635117 0.086999998
v 0.46764885 0.7072361 0.086999998
v 0.46876392 0.70780426 0.086999998
v 0.47 0.70800003 0.086999998
v 0.47123608 0.70780426 0.086999998
v 0.47235115 0.7072361 0.086999998
v 0.47323608 0.70635117 0.086999998
v 0.47380424 0.70523605 0.086999998
v 0.47400002 0.70400002 0.086999998
v 0.47380424 0.7027639 0.086999998
v 0.47323608 0.70164886 0.086999998
v 0.47235115 0.70076393 0.086999998
v 0.47123608 0.70019577 0.086999998
v 0.47 0.7 0.086999998
v 0.46876392 0.70019577 0.086999998
v 0.46764885 0.70076393 0.086999998
v 0.46676392 0.70164886 0.086999998
v 0.46619576 0.7027639 0.086999998
v 0.46599998 0.70400002 0.083999996
v 0.46619576 0.7027639 0.083999996
v 0.46676392 0.70164886 0.083999996
v 0.46764885 0.70076393 0.083999996
v 0.46876392 0.70019577 0.083999996
v 0.47 0.7 0.083999996
v 0.47123608 0.70019577 0.083999996
v 0.47235115 0.70076393 0.083999996
v 0.47323608 0.70164886 0.083999996
v 0.47380424 0.7027639 0.083999996
v 0.47400002 0.70400002 0.083999996
v 0.47380424 0.70523605 0.083999996
v 0.47323608 0.70635117 0.083999996
v 0.47235115 0.7072361 0.083999996
v 0.47123608 0.70780426 0.083999996
v 0.47 0.70800003 0.083999996
v 0.46876392 0.70780426 0.083999996
v 0.46764885 0.7072361 0.083999996
v 0.46676392 0.70635117 0.083999996
v 0.46619576 0.70523605 0.083999996
v 0.46599998 0.70400002 0.083999996
v 0.46599998 0.70400002 0.086999998
v 0.46599998 0.70400002 0.083999996
v 0.46619576 0.70523605 0.083999996
v 0.46676392 0.70635117 0.083999996
v 0.46764885 0.7072361 0.083999996
v 0.46876392 0.70780426 0.083999996
v 0.47 0.70800003 0.083999996
v 0.47123608 0.70780426 0.083999996
v 0.47235115 0.7072361 0.083999996
v 0.47323608 0.70635117 0.083999996
v 0.47380424 0.70523605 0.083999996
v 0.47400002 0.70400002 0.083999996
v 0.47380424 0.7027639 0.083999996
v 0.47323608 0.70164886 0.083999996
v 0.47235115 0.70076393 0.083999996
v 0.47123608 0.70019577 0.083999996
v 0.47 0.7 0.083999996
v 0.46876392 0.70019577 0.083999996
v 0.46764885 0.70076393 0.083999996
v 0.46676392 0.70164886 0.083999996
v 0.46619576 0.7027639 0.083999996
v 0.46599998 0.70400002 0.086999998
v 0.46619576 0.7027639 0.086999998
v 0.46676392 0.70164886 0.086999998
v 0.46764885 0.70076393 0.086999998
v 0.46876392 0.70019577 0.086999998
v 0.47 0.7 0.086999998
v 0.47123608 0.70019577 0.086999998
v 0.47235115 0.70076393 0.086999998
v 0.47323608 0.70164886 0.086999998
v 0.47380424 0.7027639 0.086999998
v 0.47400002 0.70400002 0.086999998
v 0.47380424 0.70523605 0.086999998
v 0.47323608 0.70635117 0.086999998
v 0.47235115 0.7072361 0.086999998
v 0.47123608 0.70780426 0.086999998
v 0.47 0.70800003 0.086999998
v 0.46876392 0.70780426 0.086999998
v 0.46764885 0.7072361 0.086999998
v 0.46676392 0.70635117 0.086999998
v 0.46619576 0.70523605 0.086999998
f 2 40 1
f 1 40 41
f 42 21 20
f 20 21 22
f 20 22 19
f 19 22 23
f 19 23 18
f 18 23 24
f 18 24 17
f 17 24 25
f 17 25 16
f 16 25 26
f 16 26 15
f 15 26 27
f 15 27 14
f 14 27 28
f 14 28 13
f 13 28 29
f 13 29 12
f 12 29 30
f 12 30 11
f 11 30 31
f 11 31 10
f 10 31 32
f 10 32 9
f 9 32 33
f 9 33 8
f 8 33 34
f 8 34 7
f 7 34 35
f 7 35 6
f 6 35 36
f 6 36 5
f 5 36 37
f 5 37 4
f 4 37 38
f 4 38 3
f 3 38 39
f 3 39 2
f 2 39 40
f 44 52 43
f 43 52 53
f 43 53 62
f 62 53 54
f 62 54 61
f 61 54 55
f 61 55 60
f 60 55 56
f 60 56 59
f 59 56 57
f 59 57 58
f 52 44 51
f 51 44 45
f 51 45 50
f 50 45 46
f 50 46 49
f 49 46 47
f 49 47 48
f 64 72 63
f 63 72 73
f 63 73 82
f 82 73 74
f 82 74 81
f 81 74 75
f 81 75 80
f 80 75 76
f 80 76 79
f 79 76 77
f 79 77 78
f 72 64 71
f 71 64 65
f 71 65 70
f 70 65 66
f 70 66 69
f 69 66 67
f 69 67 68
