v 0.1625157 -0.29870001 0.221
v 0.1628738 -0.29870001 0.221
v 0.1628738 -0.29882 0.221
v 0.1625157 -0.29882 0.221
v 0.1628738 -0.29870001 0.221
v 0.16374557 -0.29870001 0.22351091
v 0.16374557 -0.29882 0.22351091
v 0.1628738 -0.29882 0.221
v 0.16164803 -0.29870001 0.22355389
v 0.1625157 -0.29870001 0.221
v 0.1625157 -0.29882 0.221
v 0.16164803 -0.29882 0.22355389
v 0.16374557 -0.29870001 0.22351091
v 0.16374557 -0.29870001 0.221
v 0.16374557 -0.29882 0.221
v 0.16374557 -0.29882 0.22351091
v 0.16164803 -0.29870001 0.221
v 0.16164803 -0.29870001 0.22355389
v 0.16164803 -0.29882 0.22355389
v 0.16164803 -0.29882 0.221
v 0.16374557 -0.29870001 0.221
v 0.16412825 -0.29870001 0.221
v 0.16412825 -0.29882 0.221
v 0.16374557 -0.29882 0.221
v 0.16126535 -0.29882 0.221
v 0.16164803 -0.29882 0.221
v 0.16164803 -0.29882 0.22355389
v 0.1625157 -0.29882 0.221
v 0.1628738 -0.29882 0.221
v 0.16374557 -0.29882 0.22351091
v 0.16374557 -0.29882 0.221
v 0.16412825 -0.29882 0.221
v 0.16412825 -0.29882 0.224
v 0.16359413 -0.29882 0.224
v 0.16287584 -0.29882 0.22191269
v 0.16271624 -0.29882 0.22143179
v 0.16257299 -0.29882 0.22187586
v 0.16186289 -0.29882 0.224
v 0.16126535 -0.29882 0.224
v 0.16412825 -0.29870001 0.221
v 0.16412825 -0.29870001 0.224
v 0.16412825 -0.29882 0.224
v 0.16412825 -0.29882 0.221
v 0.16126535 -0.29870001 0.221
v 0.16164803 -0.29870001 0.221
v 0.16164803 -0.29882 0.221
v 0.16126535 -0.29882 0.221
v 0.16412825 -0.29870001 0.224
v 0.16359413 -0.29870001 0.224
v 0.16359413 -0.29882 0.224
v 0.16412825 -0.29882 0.224
v 0.16164803 -0.29870001 0.221
v 0.16126535 -0.29870001 0.221
v 0.16126535 -0.29870001 0.224
v 0.16186289 -0.29870001 0.224
v 0.16257299 -0.29870001 0.22187586
v 0.16271624 -0.29870001 0.22143179
v 0.16287584 -0.29870001 0.22191269
v 0.16359413 -0.29870001 0.224
v 0.16412825 -0.29870001 0.224
v 0.16412825 -0.29870001 0.221
v 0.16374557 -0.29870001 0.221
v 0.16374557 -0.29870001 0.22351091
v 0.1628738 -0.29870001 0.221
v 0.1625157 -0.29870001 0.221
v 0.16164803 -0.29870001 0.22355389
v 0.16359413 -0.29870001 0.224
v 0.16287584 -0.29870001 0.22191269
v 0.16287584 -0.29882 0.22191269
v 0.16359413 -0.29882 0.224
v 0.16287584 -0.29870001 0.22191269
v 0.16271624 -0.29870001 0.22143179
v 0.16271624 -0.29882 0.22143179
v 0.16287584 -0.29882 0.22191269
v 0.16271624 -0.29870001 0.22143179
v 0.16257299 -0.29870001 0.22187586
v 0.16257299 -0.29882 0.22187586
v 0.16271624 -0.29882 0.22143179
v 0.16257299 -0.29870001 0.22187586
v 0.16186289 -0.29870001 0.224
v 0.16186289 -0.29882 0.224
v 0.16257299 -0.29882 0.22187586
v 0.16186289 -0.29870001 0.224
v 0.16126535 -0.29870001 0.224
v 0.16126535 -0.29882 0.224
v 0.16186289 -0.29882 0.224
v 0.16126535 -0.29870001 0.224
v 0.16126535 -0.29870001 0.221
v 0.16126535 -0.29882 0.221
v 0.16126535 -0.29882 0.224
f 1 2 4
f 4 2 3
f 5 6 8
f 8 6 7
f 9 10 12
f 12 10 11
f 13 14 16
f 16 14 15
f 17 18 20
f 20 18 19
f 21 22 24
f 24 22 23
f 26 27 25
f 25 27 39
f 39 27 38
f 38 27 37
f 37 27 28
f 37 28 36
f 36 28 29
f 36 29 35
f 35 29 30
f 35 30 34
f 34 30 33
f 33 30 32
f 32 30 31
f 40 41 43
f 43 41 42
f 44 45 47
f 47 45 46
f 48 49 51
f 51 49 50
f 52 53 66
f 66 53 54
f 66 54 55
f 55 56 66
f 66 56 65
f 65 56 57
f 65 57 64
f 64 57 58
f 64 58 63
f 63 58 59
f 63 59 60
f 60 61 63
f 63 61 62
f 67 68 70
f 70 68 69
f 71 72 74
f 74 72 73
f 75 76 78
f 78 76 77
f 79 80 82
f 82 80 81
f 83 84 86
f 86 84 85
f 87 88 90
f 90 88 89
