v 0.52200001 0.66 0.39
v 0.52180714 0.66214272 0.39
v 0.52123482 0.66421646 0.39
v 0.5203014 0.66615479 0.39
v 0.51903687 0.66789528 0.39
v 0.51748188 0.66938194 0.39
v 0.51568642 0.67056717 0.39
v 0.51370819 0.67141266 0.39
v 0.51161079 0.6718914 0.39
v 0.50946163 0.67198792 0.39
v 0.50732975 0.67169914 0.39
v 0.5052837 0.67103432 0.39
v 0.50338924 0.67001488 0.39
v 0.50170723 0.66867355 0.39
v 0.50029179 0.66705345 0.39
v 0.49918839 0.6652066 0.39
v 0.49843246 0.66319244 0.39
v 0.49804832 0.66107567 0.39
v 0.49804832 0.65892433 0.39
v 0.49843246 0.65680756 0.39
v 0.49918839 0.6547934 0.39
v 0.50029179 0.65294655 0.39
v 0.50170723 0.65132645 0.39
v 0.50338924 0.64998512 0.39
v 0.5052837 0.64896568 0.39
v 0.50732975 0.64830086 0.39
v 0.50946163 0.64801208 0.39
v 0.51161079 0.6481086 0.39
v 0.51370819 0.64858734 0.39
v 0.51568642 0.64943283 0.39
v 0.51748188 0.65061806 0.39
v 0.51903687 0.65210472 0.39
v 0.5203014 0.65384521 0.39
v 0.52123482 0.65578354 0.39
v 0.52180714 0.65785728 0.39
v 0.52200001 0.66 0.365
v 0.52180714 0.65785728 0.365
v 0.52123482 0.65578354 0.365
v 0.5203014 0.65384521 0.365
v 0.51903687 0.65210472 0.365
v 0.51748188 0.65061806 0.365
v 0.51568642 0.64943283 0.365
v 0.51370819 0.64858734 0.365
v 0.51161079 0.6481086 0.365
v 0.50946163 0.64801208 0.365
v 0.50732975 0.64830086 0.365
v 0.5052837 0.64896568 0.365
v 0.50338924 0.64998512 0.365
v 0.50170723 0.65132645 0.365
v 0.50029179 0.65294655 0.365
v 0.49918839 0.6547934 0.365
v 0.49843246 0.65680756 0.365
v 0.49804832 0.65892433 0.365
v 0.49804832 0.66107567 0.365
v 0.49843246 0.66319244 0.365
v 0.49918839 0.6652066 0.365
v 0.50029179 0.66705345 0.365
v 0.50170723 0.66867355 0.365
v 0.50338924 0.67001488 0.365
v 0.5052837 0.67103432 0.365
v 0.50732975 0.67169914 0.365
v 0.50946163 0.67198792 0.365
v 0.51161079 0.6718914 0.365
v 0.51370819 0.67141266 0.365
v 0.51568642 0.67056717 0.365
v 0.51748188 0.66938194 0.365
v 0.51903687 0.66789528 0.365
v 0.5203014 0.66615479 0.365
v 0.52123482 0.66421646 0.365
v 0.52180714 0.66214272 0.365
v 0.52200001 0.66 0.365
v 0.52180714 0.66214272 0.365
v 0.52123482 0.66421646 0.365
v 0.5203014 0.66615479 0.365
v 0.51903687 0.66789528 0.365
v 0.51748188 0.66938194 0.365
v 0.51568642 0.67056717 0.365
v 0.51370819 0.67141266 0.365
v 0.51161079 0.6718914 0.365
v 0.50946163 0.67198792 0.365
v 0.50732975 0.67169914 0.365
v 0.5052837 0.67103432 0.365
v 0.50338924 0.67001488 0.365
v 0.50170723 0.66867355 0.365
v 0.50029179 0.66705345 0.365
v 0.49918839 0.6652066 0.365
v 0.49843246 0.66319244 0.365
v 0.49804832 0.66107567 0.365
v 0.49804832 0.65892433 0.365
v 0.49843246 0.65680756 0.365
v 0.49918839 0.6547934 0.365
v 0.50029179 0.65294655 0.365
v 0.50170723 0.65132645 0.365
v 0.50338924 0.64998512 0.365
v 0.5052837 0.64896568 0.365
v 0.50732975 0.64830086 0.365
v 0.50946163 0.64801208 0.365
v 0.51161079 0.6481086 0.365
v 0.51370819 0.64858734 0.365
v 0.51568642 0.64943283 0.365
v 0.51748188 0.65061806 0.365
v 0.51903687 0.65210472 0.365
v 0.5203014 0.65384521 0.365
v 0.52123482 0.65578354 0.365
v 0.52180714 0.65785728 0.365
v 0.52200001 0.66 0.39
v 0.52180714 0.65785728 0.39
v 0.52123482 0.65578354 0.39
v 0.5203014 0.65384521 0.39
v 0.51903687 0.65210472 0.39
v 0.51748188 0.65061806 0.39
v 0.51568642 0.64943283 0.39
v 0.51370819 0.64858734 0.39
v 0.51161079 0.6481086 0.39
v 0.50946163 0.64801208 0.39
v 0.50732975 0.64830086 0.39
v 0.5052837 0.64896568 0.39
v 0.50338924 0.64998512 0.39
v 0.50170723 0.65132645 0.39
v 0.50029179 0.65294655 0.39
v 0.49918839 0.6547934 0.39
v 0.49843246 0.65680756 0.39
v 0.49804832 0.65892433 0.39
v 0.49804832 0.66107567 0.39
v 0.49843246 0.66319244 0.39
v 0.49918839 0.6652066 0.39
v 0.50029179 0.66705345 0.39
v 0.50170723 0.66867355 0.39
v 0.50338924 0.67001488 0.39
v 0.5052837 0.67103432 0.39
v 0.50732975 0.67169914 0.39
v 0.50946163 0.67198792 0.39
v 0.51161079 0.6718914 0.39
v 0.51370819 0.67141266 0.39
v 0.51568642 0.67056717 0.39
v 0.51748188 0.66938194 0.39
v 0.51903687 0.66789528 0.39
v 0.5203014 0.66615479 0.39
v 0.52123482 0.66421646 0.39
v 0.52180714 0.66214272 0.39
v 0.49804832 0.65892433 0.365
v 0.49804832 0.65892433 0.39
f 1 2 35
f 35 2 3
f 35 3 34
f 34 3 4
f 34 4 33
f 33 4 5
f 33 5 6
f 6 7 33
f 33 7 8
f 33 8 9
f 9 10 33
f 33 10 11
f 33 11 12
f 12 13 33
f 33 13 14
f 33 14 32
f 32 14 15
f 32 15 16
f 16 17 32
f 32 17 18
f 32 18 19
f 19 20 32
f 32 20 21
f 32 21 22
f 22 23 32
f 32 23 31
f 31 23 24
f 31 24 30
f 30 24 25
f 30 25 29
f 29 25 26
f 29 26 28
f 28 26 27
f 36 37 70
f 70 37 69
f 69 37 38
f 69 38 68
f 68 38 39
f 68 39 67
f 67 39 66
f 66 39 65
f 65 39 64
f 64 39 63
f 63 39 62
f 62 39 61
f 61 39 60
f 60 39 59
f 59 39 58
f 58 39 40
f 58 40 57
f 57 40 56
f 56 40 55
f 55 40 54
f 54 40 53
f 53 40 52
f 52 40 51
f 51 40 50
f 50 40 49
f 49 40 41
f 49 41 48
f 48 41 42
f 48 42 47
f 47 42 43
f 47 43 46
f 46 43 44
f 46 44 45
f 72 106 71
f 71 106 107
f 71 107 105
f 105 107 108
f 105 108 104
f 104 108 109
f 104 109 103
f 103 109 110
f 103 110 102
f 102 110 111
f 102 111 101
f 101 111 112
f 101 112 100
f 100 112 113
f 100 113 99
f 99 113 114
f 99 114 98
f 98 114 115
f 98 115 97
f 97 115 116
f 97 116 96
f 96 116 117
f 96 117 95
f 95 117 118
f 95 118 94
f 94 118 119
f 94 119 93
f 93 119 120
f 93 120 92
f 92 120 121
f 92 121 91
f 91 121 122
f 91 122 90
f 90 122 142
f 90 142 89
f 141 123 124
f 141 124 88
f 88 124 125
f 88 125 87
f 87 125 126
f 87 126 86
f 86 126 127
f 86 127 85
f 85 127 128
f 85 128 84
f 84 128 129
f 84 129 83
f 83 129 130
f 83 130 82
f 82 130 131
f 82 131 81
f 81 131 132
f 81 132 80
f 80 132 133
f 80 133 79
f 79 133 134
f 79 134 78
f 78 134 135
f 78 135 77
f 77 135 136
f 77 136 76
f 76 136 137
f 76 137 75
f 75 137 138
f 75 138 74
f 74 138 139
f 74 139 73
f 73 139 140
f 73 140 72
f 72 140 106
