v -0.111 0.29700001 0.6
v -0.111 0.17200001 0.6
v -0.108 0.17200001 0.6
v -0.108 0.29700001 0.6
v -0.111 0.29700001 0.31200001
v -0.111 0.29700001 0.6
v -0.108 0.29700001 0.6
v -0.108 0.29700001 0.31200001
v -0.111 0.143 0.53599998
v -0.111 0.14178226 0.5401228
v -0.111 0.14091405 0.54433311
v -0.111 0.14040148 0.54860134
v -0.111 0.14024814 0.55289749
v -0.111 0.14045511 0.55719139
v -0.111 0.14102094 0.5614529
v -0.111 0.14194165 0.56565205
v -0.111 0.14321078 0.56975933
v -0.111 0.1448194 0.57374588
v -0.111 0.14675623 0.57758377
v -0.111 0.14900764 0.58124596
v -0.111 0.15155784 0.58470673
v -0.111 0.15438888 0.58794178
v -0.111 0.1574809 0.59092842
v -0.111 0.16081217 0.59364559
v -0.111 0.16435926 0.5960743
v -0.111 0.16809731 0.5981974
v -0.111 0.17200001 0.6
v -0.111 0.29700001 0.6
v -0.111 0.29700001 0.31200001
v -0.111 0.143 0.31200001
v -0.111 0.143 0.53599998
v -0.111 0.143 0.31200001
v -0.108 0.143 0.31200001
v -0.108 0.143 0.53599998
v -0.111 0.143 0.31200001
v -0.111 0.29700001 0.31200001
v -0.108 0.29700001 0.31200001
v -0.108 0.143 0.31200001
v -0.108 0.17200001 0.6
v -0.108 0.16809731 0.5981974
v -0.108 0.16435926 0.5960743
v -0.108 0.16081217 0.59364559
v -0.108 0.1574809 0.59092842
v -0.108 0.15438888 0.58794178
v -0.108 0.15155784 0.58470673
v -0.108 0.14900764 0.58124596
v -0.108 0.14675623 0.57758377
v -0.108 0.1448194 0.57374588
v -0.108 0.14321078 0.56975933
v -0.108 0.14194165 0.56565205
v -0.108 0.14102094 0.5614529
v -0.108 0.14045511 0.55719139
v -0.108 0.14024814 0.55289749
v -0.108 0.14040148 0.54860134
v -0.108 0.14091405 0.54433311
v -0.108 0.14178226 0.5401228
v -0.108 0.143 0.53599998
v -0.108 0.143 0.31200001
v -0.108 0.29700001 0.31200001
v -0.108 0.29700001 0.6
v -0.111 0.17200001 0.6
v -0.111 0.16809731 0.5981974
v -0.111 0.16435926 0.5960743
v -0.111 0.16081217 0.59364559
v -0.111 0.1574809 0.59092842
v -0.111 0.15438888 0.58794178
v -0.111 0.15155784 0.58470673
v -0.111 0.14900764 0.58124596
v -0.111 0.14675623 0.57758377
v -0.111 0.1448194 0.57374588
v -0.111 0.14321078 0.56975933
v -0.111 0.14194165 0.56565205
v -0.111 0.14102094 0.5614529
v -0.111 0.14045511 0.55719139
v -0.111 0.14024814 0.55289749
v -0.111 0.14040148 0.54860134
v -0.111 0.14091405 0.54433311
v -0.111 0.14178226 0.5401228
v -0.111 0.143 0.53599998
v -0.108 0.143 0.53599998
v -0.108 0.14178226 0.5401228
v -0.108 0.14091405 0.54433311
v -0.108 0.14040148 0.54860134
v -0.108 0.14024814 0.55289749
v -0.108 0.14045511 0.55719139
v -0.108 0.14102094 0.5614529
v -0.108 0.14194165 0.56565205
v -0.108 0.14321078 0.56975933
v -0.108 0.1448194 0.57374588
v -0.108 0.14675623 0.57758377
v -0.108 0.14900764 0.58124596
v -0.108 0.15155784 0.58470673
v -0.108 0.15438888 0.58794178
v -0.108 0.1574809 0.59092842
v -0.108 0.16081217 0.59364559
v -0.108 0.16435926 0.5960743
v -0.108 0.16809731 0.5981974
v -0.108 0.17200001 0.6
f 1 2 4
f 4 2 3
f 5 6 8
f 8 6 7
f 10 16 9
f 9 16 17
f 9 17 18
f 16 10 15
f 15 10 11
f 15 11 14
f 14 11 12
f 14 12 13
f 18 19 9
f 9 19 20
f 9 20 21
f 21 22 9
f 9 22 23
f 9 23 24
f 24 25 9
f 9 25 26
f 9 26 27
f 28 29 27
f 27 29 9
f 29 30 9
f 31 32 34
f 34 32 33
f 35 36 38
f 38 36 37
f 40 57 39
f 39 57 59
f 39 59 60
f 40 41 57
f 57 41 42
f 57 42 43
f 43 44 57
f 57 44 45
f 57 45 46
f 46 47 57
f 57 47 48
f 57 48 49
f 49 50 57
f 57 50 56
f 56 50 51
f 56 51 55
f 55 51 52
f 55 52 54
f 54 52 53
f 57 58 59
f 98 61 97
f 97 61 62
f 97 62 63
f 97 63 96
f 96 63 64
f 96 64 95
f 95 64 65
f 95 65 94
f 94 65 66
f 94 66 93
f 93 66 67
f 93 67 92
f 92 67 68
f 92 68 91
f 91 68 69
f 91 69 90
f 90 69 70
f 90 70 89
f 89 70 71
f 89 71 88
f 88 71 72
f 88 72 87
f 87 72 73
f 87 73 86
f 86 73 74
f 86 74 85
f 85 74 75
f 85 75 84
f 84 75 76
f 84 76 83
f 83 76 77
f 83 77 82
f 82 77 78
f 82 78 81
f 81 78 80
f 80 78 79
