v -0.102 -0.013 0.31
v -0.075 -0.013 0.31
v -0.075 -0.013 0.31299999
v -0.102 -0.013 0.31299999
v -0.075 -0.030999999 0.31
v -0.075 -0.030999999 0.31299999
v -0.075 -0.29200001 0.31299999
v -0.075 -0.29200001 0.31
v -0.086000004 0.26 0.31299999
v -0.086000004 0.26 0.31
v -0.20799999 0.26 0.31
v -0.20799999 0.26 0.31299999
v -0.102 -0.030999999 0.31
v -0.075 -0.030999999 0.31
v -0.075 -0.29200001 0.31
v -0.20799999 -0.29200001 0.31
v -0.20799999 0.26 0.31
v -0.086000004 0.26 0.31
v -0.086000004 0.083999996 0.31
v -0.075 0.083999996 0.31
v -0.075 -0.013 0.31
v -0.102 -0.013 0.31
v -0.142 -0.016 0.31
v -0.199 -0.016 0.31
v -0.199 -0.136 0.31
v -0.142 -0.136 0.31
v -0.102 -0.030999999 0.31
v -0.102 -0.013 0.31
v -0.102 -0.013 0.31299999
v -0.102 -0.030999999 0.31299999
v -0.20799999 0.26 0.31
v -0.20799999 -0.29200001 0.31
v -0.20799999 -0.29200001 0.31299999
v -0.20799999 0.26 0.31299999
v -0.086000004 0.083999996 0.31
v -0.086000004 0.26 0.31
v -0.086000004 0.26 0.31299999
v -0.086000004 0.083999996 0.31299999
v -0.075 0.083999996 0.31
v -0.086000004 0.083999996 0.31
v -0.086000004 0.083999996 0.31299999
v -0.075 0.083999996 0.31299999
v -0.199 -0.016 0.31299999
v -0.142 -0.016 0.31299999
v -0.142 -0.136 0.31299999
v -0.199 -0.136 0.31299999
v -0.075 -0.030999999 0.31299999
v -0.102 -0.030999999 0.31299999
v -0.102 -0.013 0.31299999
v -0.075 -0.013 0.31299999
v -0.075 0.083999996 0.31299999
v -0.086000004 0.083999996 0.31299999
v -0.086000004 0.26 0.31299999
v -0.20799999 0.26 0.31299999
v -0.20799999 -0.29200001 0.31299999
v -0.075 -0.29200001 0.31299999
v -0.20799999 -0.29200001 0.31
v -0.075 -0.29200001 0.31
v -0.075 -0.29200001 0.31299999
v -0.20799999 -0.29200001 0.31299999
v -0.142 -0.136 0.31299999
v -0.142 -0.016 0.31299999
v -0.142 -0.016 0.31
v -0.142 -0.136 0.31
v -0.199 -0.016 0.31299999
v -0.199 -0.136 0.31299999
v -0.199 -0.136 0.31
v -0.199 -0.016 0.31
v -0.075 -0.030999999 0.31
v -0.102 -0.030999999 0.31
v -0.102 -0.030999999 0.31299999
v -0.075 -0.030999999 0.31299999
v -0.199 -0.136 0.31299999
v -0.142 -0.136 0.31299999
v -0.142 -0.136 0.31
v -0.199 -0.136 0.31
v -0.075 -0.013 0.31299999
v -0.075 -0.013 0.31
v -0.075 0.083999996 0.31
v -0.075 0.083999996 0.31299999
v -0.142 -0.016 0.31299999
v -0.199 -0.016 0.31299999
v -0.199 -0.016 0.31
v -0.142 -0.016 0.31
f 2 3 1
f 1 3 4
f 6 7 5
f 5 7 8
f 10 11 9
f 9 11 12
f 14 15 13
f 13 15 26
f 13 26 23
f 15 16 26
f 26 16 25
f 25 16 24
f 24 16 17
f 24 17 23
f 23 17 18
f 23 18 19
f 20 21 19
f 19 21 22
f 19 22 23
f 23 22 13
f 28 29 27
f 27 29 30
f 31 32 34
f 34 32 33
f 36 37 35
f 35 37 38
f 40 41 39
f 39 41 42
f 44 54 43
f 43 54 55
f 43 55 46
f 46 55 45
f 45 55 56
f 45 56 48
f 48 56 47
f 45 48 44
f 44 48 49
f 44 49 52
f 52 49 50
f 52 50 51
f 52 53 44
f 44 53 54
f 57 58 60
f 60 58 59
f 61 62 64
f 64 62 63
f 65 66 68
f 68 66 67
f 70 71 69
f 69 71 72
f 73 74 76
f 76 74 75
f 78 79 77
f 77 79 80
f 81 82 84
f 84 82 83
