v 0.14997135 -9.9999998e-05 0.068412004
v 0.14945293 -9.9999998e-05 0.067944064
v 0.14887995 -9.9999998e-05 0.06760982
v 0.14825238 -9.9999998e-05 0.067409277
v 0.14757026 -9.9999998e-05 0.067342424
v 0.14757026 -0.00022 0.067342424
v 0.14825238 -0.00022 0.067409277
v 0.14887995 -0.00022 0.06760982
v 0.14945293 -0.00022 0.067944064
v 0.14997135 -0.00022 0.068412004
v 0.14242974 -9.9999998e-05 0.070190992
v 0.14260198 -9.9999998e-05 0.069231238
v 0.14292224 -9.9999998e-05 0.068371077
v 0.14339052 -9.9999998e-05 0.067610502
v 0.14400682 -9.9999998e-05 0.06694952
v 0.14400682 -0.00022 0.06694952
v 0.14339052 -0.00022 0.067610502
v 0.14292224 -0.00022 0.068371077
v 0.14260198 -0.00022 0.069231238
v 0.14242974 -0.00022 0.070190992
v 0.14555662 -9.9999998e-05 0.068100953
v 0.14517701 -9.9999998e-05 0.068526945
v 0.14487312 -9.9999998e-05 0.069046383
v 0.14464496 -9.9999998e-05 0.069659276
v 0.1444925 -9.9999998e-05 0.07036562
v 0.1444925 -0.00022 0.07036562
v 0.14464496 -0.00022 0.069659276
v 0.14487312 -0.00022 0.069046383
v 0.14517701 -0.00022 0.068526945
v 0.14555662 -0.00022 0.068100953
v 0.15095362 -9.9999998e-05 0.071249657
v 0.15089222 -9.9999998e-05 0.070409274
v 0.15070805 -9.9999998e-05 0.069656205
v 0.15040109 -9.9999998e-05 0.06899045
v 0.14997135 -9.9999998e-05 0.068412004
v 0.14997135 -0.00022 0.068412004
v 0.15040109 -0.00022 0.06899045
v 0.15070805 -0.00022 0.069656205
v 0.15089222 -0.00022 0.070409274
v 0.15095362 -0.00022 0.071249657
v 0.14753752 -9.9999998e-05 0.074873123
v 0.14826501 -9.9999998e-05 0.074812412
v 0.14891951 -9.9999998e-05 0.074630284
v 0.14950103 -9.9999998e-05 0.074326739
v 0.15000956 -9.9999998e-05 0.073901772
v 0.15000956 -0.00022 0.073901772
v 0.14950103 -0.00022 0.074326739
v 0.14891951 -0.00022 0.074630284
v 0.14826501 -0.00022 0.074812412
v 0.14753752 -0.00022 0.074873123
v 0.14400682 -9.9999998e-05 0.06694952
v 0.14474728 -9.9999998e-05 0.066414733
v 0.145588 -9.9999998e-05 0.066032743
v 0.14652899 -9.9999998e-05 0.065803547
v 0.14757026 -9.9999998e-05 0.065727148
v 0.14757026 -0.00022 0.065727148
v 0.14652899 -0.00022 0.065803547
v 0.145588 -0.00022 0.066032743
v 0.14474728 -0.00022 0.066414733
v 0.14400682 -0.00022 0.06694952
v 0.14757026 -9.9999998e-05 0.065727148
v 0.14883151 -9.9999998e-05 0.065848565
v 0.14995225 -9.9999998e-05 0.066212821
v 0.15093247 -9.9999998e-05 0.066819916
v 0.15177217 -9.9999998e-05 0.067669849
v 0.15177217 -0.00022 0.067669849
v 0.15093247 -0.00022 0.066819916
v 0.14995225 -0.00022 0.066212821
v 0.14883151 -0.00022 0.065848565
v 0.14757026 -0.00022 0.065727148
v 0.14462347 -9.9999998e-05 0.073323326
v 0.14514189 -9.9999998e-05 0.073946791
v 0.14582401 -9.9999998e-05 0.074442019
v 0.14582401 -0.00022 0.074442019
v 0.14514189 -0.00022 0.073946791
v 0.14462347 -0.00022 0.073323326
v 0.15000956 -9.9999998e-05 0.073901772
v 0.15042258 -9.9999998e-05 0.073371758
v 0.1507176 -9.9999998e-05 0.072753067
v 0.15089461 -9.9999998e-05 0.072045703
v 0.15095362 -9.9999998e-05 0.071249657
v 0.15095362 -0.00022 0.071249657
v 0.15089461 -0.00022 0.072045703
v 0.1507176 -0.00022 0.072753067
v 0.15042258 -0.00022 0.073371758
v 0.15000956 -0.00022 0.073901772
v 0.1444925 -9.9999998e-05 0.07036562
v 0.14242974 -9.9999998e-05 0.070190992
v 0.14242974 -0.00022 0.070190992
v 0.1444925 -0.00022 0.07036562
v 0.14757026 -9.9999998e-05 0.067342424
v 0.14700238 -9.9999998e-05 0.067389836
v 0.14647749 -9.9999998e-05 0.067532058
v 0.14599557 -9.9999998e-05 0.067769098
v 0.14555662 -9.9999998e-05 0.068100953
v 0.14555662 -0.00022 0.068100953
v 0.14599557 -0.00022 0.067769098
v 0.14647749 -0.00022 0.067532058
v 0.14700238 -0.00022 0.067389836
v 0.14757026 -0.00022 0.067342424
v 0.15159755 -9.9999998e-05 0.075156889
v 0.15083629 -9.9999998e-05 0.07579195
v 0.14999318 -9.9999998e-05 0.076245565
v 0.14906821 -9.9999998e-05 0.076517735
v 0.14806139 -9.9999998e-05 0.076608458
v 0.14806139 -0.00022 0.076608458
v 0.14906821 -0.00022 0.076517735
v 0.14999318 -0.00022 0.076245565
v 0.15083629 -0.00022 0.07579195
v 0.15159755 -0.00022 0.075156889
v 0.14277899 -9.9999998e-05 0.073563437
v 0.14462347 -9.9999998e-05 0.073323326
v 0.14462347 -0.00022 0.073323326
v 0.14277899 -0.00022 0.073563437
v 0.14590041 -9.9999998e-05 0.079904499
v 0.15228513 -9.9999998e-05 0.079904499
v 0.15228513 -0.00022 0.079904499
v 0.14590041 -0.00022 0.079904499
v 0.15303821 -9.9999998e-05 0.071424284
v 0.15294816 -9.9999998e-05 0.07251296
v 0.15267804 -9.9999998e-05 0.073497953
v 0.15222783 -9.9999998e-05 0.074379263
v 0.15159755 -9.9999998e-05 0.075156889
v 0.15159755 -0.00022 0.075156889
v 0.15222783 -0.00022 0.074379263
v 0.15267804 -0.00022 0.073497953
v 0.15294816 -0.00022 0.07251296
v 0.15303821 -0.00022 0.071424284
v 0.1450382 -9.9999998e-05 0.075604362
v 0.14590041 -9.9999998e-05 0.079904499
v 0.14590041 -0.00022 0.079904499
v 0.1450382 -0.00022 0.075604362
v 0.14242974 -0.00022 0.070190992
v 0.14260198 -0.00022 0.069231238
v 0.14292224 -0.00022 0.068371077
v 0.14339052 -0.00022 0.067610502
v 0.14400682 -0.00022 0.06694952
v 0.14474728 -0.00022 0.066414733
v 0.145588 -0.00022 0.066032743
v 0.14652899 -0.00022 0.065803547
v 0.14757026 -0.00022 0.065727148
v 0.14883151 -0.00022 0.065848565
v 0.14995225 -0.00022 0.066212821
v 0.15093247 -0.00022 0.066819916
v 0.15177217 -0.00022 0.067669849
v 0.15232606 -0.00022 0.068497953
v 0.1527217 -0.00022 0.069399724
v 0.15295908 -0.00022 0.070375171
v 0.15303821 -0.00022 0.071424284
v 0.15294816 -0.00022 0.07251296
v 0.15267804 -0.00022 0.073497953
v 0.15222783 -0.00022 0.074379263
v 0.15159755 -0.00022 0.075156889
v 0.15083629 -0.00022 0.07579195
v 0.14999318 -0.00022 0.076245565
v 0.14906821 -0.00022 0.076517735
v 0.14806139 -0.00022 0.076608458
v 0.14727899 -0.00022 0.076545701
v 0.14651432 -0.00022 0.076357436
v 0.14576739 -0.00022 0.076043653
v 0.1450382 -0.00022 0.075604362
v 0.14590041 -0.00022 0.079904499
v 0.15228513 -0.00022 0.079904499
v 0.15228513 -0.00022 0.081781721
v 0.14432878 -0.00022 0.081781721
v 0.14277899 -0.00022 0.073563437
v 0.14462347 -0.00022 0.073323326
v 0.14514189 -0.00022 0.073946791
v 0.14582401 -0.00022 0.074442019
v 0.14663438 -0.00022 0.074765348
v 0.14753752 -0.00022 0.074873123
v 0.14826501 -0.00022 0.074812412
v 0.14891951 -0.00022 0.074630284
v 0.14950103 -0.00022 0.074326739
v 0.15000956 -0.00022 0.073901772
v 0.15042258 -0.00022 0.073371758
v 0.1507176 -0.00022 0.072753067
v 0.15089461 -0.00022 0.072045703
v 0.15095362 -0.00022 0.071249657
v 0.15089222 -0.00022 0.070409274
v 0.15070805 -0.00022 0.069656205
v 0.15040109 -0.00022 0.06899045
v 0.14997135 -0.00022 0.068412004
v 0.14945293 -0.00022 0.067944064
v 0.14887995 -0.00022 0.06760982
v 0.14825238 -0.00022 0.067409277
v 0.14757026 -0.00022 0.067342424
v 0.14700238 -0.00022 0.067389836
v 0.14647749 -0.00022 0.067532058
v 0.14599557 -0.00022 0.067769098
v 0.14555662 -0.00022 0.068100953
v 0.14517701 -0.00022 0.068526945
v 0.14487312 -0.00022 0.069046383
v 0.14464496 -0.00022 0.069659276
v 0.1444925 -0.00022 0.07036562
v 0.14432878 -9.9999998e-05 0.081781721
v 0.14277899 -9.9999998e-05 0.073563437
v 0.14277899 -0.00022 0.073563437
v 0.14432878 -0.00022 0.081781721
v 0.14400682 -9.9999998e-05 0.06694952
v 0.14339052 -9.9999998e-05 0.067610502
v 0.14292224 -9.9999998e-05 0.068371077
v 0.14260198 -9.9999998e-05 0.069231238
v 0.14242974 -9.9999998e-05 0.070190992
v 0.1444925 -9.9999998e-05 0.07036562
v 0.14464496 -9.9999998e-05 0.069659276
v 0.14487312 -9.9999998e-05 0.069046383
v 0.14517701 -9.9999998e-05 0.068526945
v 0.14555662 -9.9999998e-05 0.068100953
v 0.14599557 -9.9999998e-05 0.067769098
v 0.14647749 -9.9999998e-05 0.067532058
v 0.14700238 -9.9999998e-05 0.067389836
v 0.14757026 -9.9999998e-05 0.067342424
v 0.14825238 -9.9999998e-05 0.067409277
v 0.14887995 -9.9999998e-05 0.06760982
v 0.14945293 -9.9999998e-05 0.067944064
v 0.14997135 -9.9999998e-05 0.068412004
v 0.15040109 -9.9999998e-05 0.06899045
v 0.15070805 -9.9999998e-05 0.069656205
v 0.15089222 -9.9999998e-05 0.070409274
v 0.15095362 -9.9999998e-05 0.071249657
v 0.15089461 -9.9999998e-05 0.072045703
v 0.1507176 -9.9999998e-05 0.072753067
v 0.15042258 -9.9999998e-05 0.073371758
v 0.15000956 -9.9999998e-05 0.073901772
v 0.14950103 -9.9999998e-05 0.074326739
v 0.14891951 -9.9999998e-05 0.074630284
v 0.14826501 -9.9999998e-05 0.074812412
v 0.14753752 -9.9999998e-05 0.074873123
v 0.14663438 -9.9999998e-05 0.074765348
v 0.14582401 -9.9999998e-05 0.074442019
v 0.14514189 -9.9999998e-05 0.073946791
v 0.14462347 -9.9999998e-05 0.073323326
v 0.14277899 -9.9999998e-05 0.073563437
v 0.14432878 -9.9999998e-05 0.081781721
v 0.15228513 -9.9999998e-05 0.081781721
v 0.15228513 -9.9999998e-05 0.079904499
v 0.14590041 -9.9999998e-05 0.079904499
v 0.1450382 -9.9999998e-05 0.075604362
v 0.14576739 -9.9999998e-05 0.076043653
v 0.14651432 -9.9999998e-05 0.076357436
v 0.14727899 -9.9999998e-05 0.076545701
v 0.14806139 -9.9999998e-05 0.076608458
v 0.14906821 -9.9999998e-05 0.076517735
v 0.14999318 -9.9999998e-05 0.076245565
v 0.15083629 -9.9999998e-05 0.07579195
v 0.15159755 -9.9999998e-05 0.075156889
v 0.15222783 -9.9999998e-05 0.074379263
v 0.15267804 -9.9999998e-05 0.073497953
v 0.15294816 -9.9999998e-05 0.07251296
v 0.15303821 -9.9999998e-05 0.071424284
v 0.15295908 -9.9999998e-05 0.070375171
v 0.1527217 -9.9999998e-05 0.069399724
v 0.15232606 -9.9999998e-05 0.068497953
v 0.15177217 -9.9999998e-05 0.067669849
v 0.15093247 -9.9999998e-05 0.066819916
v 0.14995225 -9.9999998e-05 0.066212821
v 0.14883151 -9.9999998e-05 0.065848565
v 0.14757026 -9.9999998e-05 0.065727148
v 0.14652899 -9.9999998e-05 0.065803547
v 0.145588 -9.9999998e-05 0.066032743
v 0.14474728 -9.9999998e-05 0.066414733
v 0.15177217 -9.9999998e-05 0.067669849
v 0.15232606 -9.9999998e-05 0.068497953
v 0.1527217 -9.9999998e-05 0.069399724
v 0.15295908 -9.9999998e-05 0.070375171
v 0.15303821 -9.9999998e-05 0.071424284
v 0.15303821 -0.00022 0.071424284
v 0.15295908 -0.00022 0.070375171
v 0.1527217 -0.00022 0.069399724
v 0.15232606 -0.00022 0.068497953
v 0.15177217 -0.00022 0.067669849
v 0.14806139 -9.9999998e-05 0.076608458
v 0.14727899 -9.9999998e-05 0.076545701
v 0.14651432 -9.9999998e-05 0.076357436
v 0.14576739 -9.9999998e-05 0.076043653
v 0.1450382 -9.9999998e-05 0.075604362
v 0.1450382 -0.00022 0.075604362
v 0.14576739 -0.00022 0.076043653
v 0.14651432 -0.00022 0.076357436
v 0.14727899 -0.00022 0.076545701
v 0.14806139 -0.00022 0.076608458
v 0.14582401 -9.9999998e-05 0.074442019
v 0.14663438 -9.9999998e-05 0.074765348
v 0.14753752 -9.9999998e-05 0.074873123
v 0.14753752 -0.00022 0.074873123
v 0.14663438 -0.00022 0.074765348
v 0.14582401 -0.00022 0.074442019
v 0.15228513 -9.9999998e-05 0.079904499
v 0.15228513 -9.9999998e-05 0.081781721
v 0.15228513 -0.00022 0.081781721
v 0.15228513 -0.00022 0.079904499
v 0.15228513 -9.9999998e-05 0.081781721
v 0.14432878 -9.9999998e-05 0.081781721
v 0.14432878 -0.00022 0.081781721
v 0.15228513 -0.00022 0.081781721
f 1 2 10
f 10 2 9
f 9 2 3
f 9 3 8
f 8 3 4
f 8 4 7
f 7 4 5
f 7 5 6
f 11 12 20
f 20 12 19
f 19 12 13
f 19 13 18
f 18 13 14
f 18 14 17
f 17 14 15
f 17 15 16
f 21 22 30
f 30 22 29
f 29 22 23
f 29 23 28
f 28 23 24
f 28 24 27
f 27 24 25
f 27 25 26
f 31 32 40
f 40 32 39
f 39 32 33
f 39 33 38
f 38 33 34
f 38 34 37
f 37 34 35
f 37 35 36
f 41 42 50
f 50 42 49
f 49 42 43
f 49 43 48
f 48 43 44
f 48 44 47
f 47 44 45
f 47 45 46
f 51 52 60
f 60 52 59
f 59 52 53
f 59 53 58
f 58 53 54
f 58 54 57
f 57 54 55
f 57 55 56
f 61 62 70
f 70 62 69
f 69 62 63
f 69 63 68
f 68 63 64
f 68 64 67
f 67 64 65
f 67 65 66
f 71 72 76
f 76 72 75
f 75 72 73
f 75 73 74
f 77 78 86
f 86 78 85
f 85 78 79
f 85 79 84
f 84 79 80
f 84 80 83
f 83 80 81
f 83 81 82
f 87 88 90
f 90 88 89
f 91 92 100
f 100 92 99
f 99 92 93
f 99 93 98
f 98 93 94
f 98 94 97
f 97 94 95
f 97 95 96
f 101 102 110
f 110 102 109
f 109 102 103
f 109 103 108
f 108 103 104
f 108 104 107
f 107 104 105
f 107 105 106
f 111 112 114
f 114 112 113
f 115 116 118
f 118 116 117
f 119 120 128
f 128 120 127
f 127 120 121
f 127 121 126
f 126 121 122
f 126 122 125
f 125 122 123
f 125 123 124
f 129 130 132
f 132 130 131
f 133 134 195
f 195 134 194
f 194 134 135
f 194 135 136
f 194 136 193
f 193 136 137
f 193 137 192
f 192 137 138
f 192 138 191
f 191 138 139
f 191 139 190
f 190 139 189
f 189 139 140
f 189 140 188
f 188 140 141
f 188 141 187
f 187 141 186
f 186 141 142
f 186 142 185
f 185 142 143
f 185 143 184
f 184 143 183
f 183 143 144
f 183 144 182
f 182 144 145
f 182 145 181
f 181 145 146
f 181 146 180
f 180 146 147
f 180 147 148
f 180 148 179
f 179 148 149
f 179 149 150
f 179 150 178
f 178 150 151
f 178 151 177
f 177 151 152
f 177 152 153
f 177 153 176
f 176 153 154
f 176 154 175
f 175 154 155
f 175 155 174
f 174 155 173
f 173 155 156
f 173 156 172
f 172 156 157
f 172 157 171
f 171 157 158
f 171 158 170
f 170 158 159
f 170 159 160
f 170 160 169
f 169 160 161
f 169 161 168
f 168 161 167
f 167 161 166
f 166 161 165
f 165 161 162
f 165 162 164
f 164 162 163
f 196 197 199
f 199 197 198
f 201 207 200
f 200 207 208
f 200 208 262
f 262 208 209
f 262 209 261
f 261 209 210
f 261 210 211
f 207 201 206
f 206 201 202
f 206 202 203
f 204 205 203
f 203 205 206
f 261 211 260
f 260 211 212
f 260 212 259
f 259 212 213
f 259 213 214
f 259 214 258
f 258 214 215
f 258 215 257
f 257 215 216
f 257 216 217
f 257 217 256
f 256 217 218
f 256 218 255
f 255 218 219
f 255 219 254
f 254 219 220
f 254 220 253
f 253 220 252
f 252 220 221
f 252 221 251
f 251 221 250
f 250 221 222
f 250 222 249
f 249 222 223
f 249 223 248
f 248 223 247
f 247 223 224
f 247 224 246
f 246 224 225
f 246 225 245
f 245 225 226
f 245 226 227
f 245 227 244
f 244 227 228
f 244 228 243
f 243 228 229
f 243 229 242
f 242 229 230
f 242 230 241
f 241 230 240
f 240 230 231
f 240 231 239
f 239 231 232
f 239 232 233
f 233 234 239
f 239 234 235
f 239 235 238
f 238 235 236
f 238 236 237
f 263 264 272
f 272 264 271
f 271 264 265
f 271 265 270
f 270 265 266
f 270 266 269
f 269 266 267
f 269 267 268
f 273 274 282
f 282 274 281
f 281 274 275
f 281 275 280
f 280 275 276
f 280 276 279
f 279 276 277
f 279 277 278
f 283 284 288
f 288 284 287
f 287 284 285
f 287 285 286
f 289 290 292
f 292 290 291
f 293 294 296
f 296 294 295
