v 0.21200001 0.075 0.54
v 0.21200001 0.075 0.4
v 0.21 0.075 0.4
v 0.21 0.075 0.54
v 0.21 0.075 0.4
v 0.21200001 0.075 0.4
v 0.21200001 0 0.4
v 0.21 0 0.4
v 0.21200001 0.29200001 0.54
v 0.21 0.29200001 0.54
v 0.21 0.29200001 0.59
v 0.21200001 0.29200001 0.59
v 0.21 0.29200001 0.305
v 0.21200001 0.29200001 0.305
v 0.21200001 0.29200001 0.25
v 0.21 0.29200001 0.25
v 0.21 -0.216 0.52599998
v 0.21 -0.274 0.44
v 0.21200001 -0.274 0.44
v 0.21200001 -0.216 0.52599998
v 0.21 -0.137 0.57799999
v 0.21 -0.216 0.52599998
v 0.21200001 -0.216 0.52599998
v 0.21200001 -0.137 0.57799999
v 0.21200001 0.28684662 0.59
v 0.21200001 0.28709278 0.58917389
v 0.21200001 0.28698633 0.58831844
v 0.21200001 0.28654518 0.5875779
v 0.21200001 0.28584366 0.58707691
v 0.21200001 0.285 0.58689999
v 0.21200001 0.28415634 0.58707691
v 0.21200001 0.28345482 0.5875779
v 0.21200001 0.28301367 0.58831844
v 0.21200001 0.28290722 0.58917389
v 0.21200001 0.28315338 0.59
v 0.21200001 -0.08 0.59
v 0.21200001 -0.137 0.57799999
v 0.21200001 -0.216 0.52599998
v 0.21200001 -0.274 0.44
v 0.21200001 -0.29799999 0.35
v 0.21200001 -0.3 0.25
v 0.21200001 0 0.25
v 0.21200001 0 0.4
v 0.21200001 0.075 0.4
v 0.21200001 0.075 0.54
v 0.21200001 0.29200001 0.54
v 0.21200001 0.29200001 0.59
v 0.21 0.28684662 0.59
v 0.21200001 0.28684662 0.59
v 0.21200001 0.29200001 0.59
v 0.21 0.29200001 0.59
v 0.21 -0.274 0.44
v 0.21 -0.29799999 0.35
v 0.21200001 -0.29799999 0.35
v 0.21200001 -0.274 0.44
v 0.21200001 0.25 0.305
v 0.21 0.25 0.305
v 0.21 0.25 0.25
v 0.21200001 0.25 0.25
v 0.21 -0.29799999 0.35
v 0.21 -0.3 0.25
v 0.21200001 -0.3 0.25
v 0.21200001 -0.29799999 0.35
v 0.21200001 0.25 0.25
v 0.21 0.25 0.25
v 0.21 0.29200001 0.25
v 0.21200001 0.29200001 0.25
v 0.21 0.25 0.305
v 0.21 0.29200001 0.305
v 0.21 0.29200001 0.25
v 0.21 0.25 0.25
v 0.21 0.28684662 0.59
v 0.21 0.28709278 0.58917389
v 0.21 0.28698633 0.58831844
v 0.21 0.28654518 0.5875779
v 0.21 0.28584366 0.58707691
v 0.21 0.285 0.58689999
v 0.21 0.28415634 0.58707691
v 0.21 0.28345482 0.5875779
v 0.21 0.28301367 0.58831844
v 0.21 0.28290722 0.58917389
v 0.21 0.28315338 0.59
v 0.21200001 0.28315338 0.59
v 0.21200001 0.28290722 0.58917389
v 0.21200001 0.28301367 0.58831844
v 0.21200001 0.28345482 0.5875779
v 0.21200001 0.28415634 0.58707691
v 0.21200001 0.285 0.58689999
v 0.21200001 0.28584366 0.58707691
v 0.21200001 0.28654518 0.5875779
v 0.21200001 0.28698633 0.58831844
v 0.21200001 0.28709278 0.58917389
v 0.21200001 0.28684662 0.59
v 0.21 0.28315338 0.59
v 0.21 0.28290722 0.58917389
v 0.21 0.28301367 0.58831844
v 0.21 0.28345482 0.5875779
v 0.21 0.28415634 0.58707691
v 0.21 0.285 0.58689999
v 0.21 0.28584366 0.58707691
v 0.21 0.28654518 0.5875779
v 0.21 0.28698633 0.58831844
v 0.21 0.28709278 0.58917389
v 0.21 0.28684662 0.59
v 0.21 0.29200001 0.59
v 0.21 0.29200001 0.54
v 0.21 0.075 0.54
v 0.21 0.075 0.4
v 0.21 0 0.4
v 0.21 0 0.25
v 0.21 -0.3 0.25
v 0.21 -0.29799999 0.35
v 0.21 -0.274 0.44
v 0.21 -0.216 0.52599998
v 0.21 -0.137 0.57799999
v 0.21 -0.08 0.59
v 0.21200001 0 0.25
v 0.21 0 0.25
v 0.21 0 0.4
v 0.21200001 0 0.4
v 0.21200001 0.28315338 0.59
v 0.21 0.28315338 0.59
v 0.21 -0.08 0.59
v 0.21200001 -0.08 0.59
v 0.21200001 0.29200001 0.305
v 0.21200001 0.25 0.305
v 0.21200001 0.25 0.25
v 0.21200001 0.29200001 0.25
v 0.21 0.25 0.305
v 0.21200001 0.25 0.305
v 0.21200001 0.29200001 0.305
v 0.21 0.29200001 0.305
v 0.21200001 0.29200001 0.54
v 0.21200001 0.075 0.54
v 0.21 0.075 0.54
v 0.21 0.29200001 0.54
v 0.21 -0.08 0.59
v 0.21 -0.137 0.57799999
v 0.21200001 -0.137 0.57799999
v 0.21200001 -0.08 0.59
v 0.21 0 0.25
v 0.21200001 0 0.25
v 0.21200001 -0.3 0.25
v 0.21 -0.3 0.25
f 1 2 4
f 4 2 3
f 6 7 5
f 5 7 8
f 10 11 9
f 9 11 12
f 14 15 13
f 13 15 16
f 17 18 20
f 20 18 19
f 21 22 24
f 24 22 23
f 25 26 47
f 47 26 27
f 47 27 28
f 28 29 47
f 47 29 46
f 46 29 30
f 46 30 31
f 31 32 46
f 46 32 45
f 45 32 33
f 45 33 34
f 34 35 45
f 45 35 36
f 45 36 37
f 45 37 43
f 43 37 38
f 43 38 39
f 39 40 43
f 43 40 42
f 42 40 41
f 43 44 45
f 49 50 48
f 48 50 51
f 52 53 55
f 55 53 54
f 57 58 56
f 56 58 59
f 60 61 63
f 63 61 62
f 65 66 64
f 64 66 67
f 69 70 68
f 68 70 71
f 93 72 92
f 92 72 73
f 92 73 91
f 91 73 74
f 91 74 90
f 90 74 75
f 90 75 89
f 89 75 76
f 89 76 88
f 88 76 77
f 88 77 87
f 87 77 78
f 87 78 86
f 86 78 79
f 86 79 85
f 85 79 80
f 85 80 84
f 84 80 81
f 84 81 83
f 83 81 82
f 116 94 107
f 107 94 95
f 107 95 96
f 96 97 107
f 107 97 106
f 106 97 98
f 106 98 99
f 99 100 106
f 106 100 105
f 105 100 101
f 105 101 102
f 102 103 105
f 105 103 104
f 108 109 107
f 107 109 115
f 107 115 116
f 110 112 109
f 109 112 113
f 109 113 114
f 110 111 112
f 114 115 109
f 118 119 117
f 117 119 120
f 122 123 121
f 121 123 124
f 126 127 125
f 125 127 128
f 129 130 132
f 132 130 131
f 134 135 133
f 133 135 136
f 137 138 140
f 140 138 139
f 142 143 141
f 141 143 144
