v 0.74885002 0 -0.03
v 0.74885002 0.25 -0.03
v 1.06 0.25 -0.03
v 1.06 0 -0.03
v 0.74885002 0.25 -0.03
v 0.74885002 0 -0.03
v 0.74885002 0 0.035
v 0.74885002 0.25 0.035
v 0.74885002 0.25 0.035
v 0.74885002 0 0.035
v 1.06 0 0.035
v 1.06 0.25 0.035
v 0.74885002 0 -0.03
v 1.06 0 -0.03
v 1.06 0 0.035
v 0.74885002 0 0.035
v 1.06 0 -0.03
v 1.06 0.25 -0.03
v 1.06 0.25 0.035
v 1.06 0 0.035
v 1.06 0.25 -0.03
v 0.74885002 0.25 -0.03
v 0.74885002 0.25 0.035
v 1.06 0.25 0.035
f 2 3 1
f 1 3 4
f 5 6 8
f 8 6 7
f 10 11 9
f 9 11 12
f 13 14 16
f 16 14 15
f 17 18 20
f 20 18 19
f 21 22 24
f 24 22 23
