v 0.036063437 0.0084948158 9.9999998e-05
v 0.036363573 0.0091356075 9.9999998e-05
v 0.036363573 0.0091356075 0.000125
v 0.036063437 0.0084948158 0.000125
v 0.035662756 0.0080956346 9.9999998e-05
v 0.036063437 0.0084948158 9.9999998e-05
v 0.036063437 0.0084948158 0.000125
v 0.035662756 0.0080956346 0.000125
v 0.036363573 0.0091356075 9.9999998e-05
v 0.036480627 0.010024011 9.9999998e-05
v 0.036480627 0.010024011 0.000125
v 0.036363573 0.0091356075 0.000125
v 0.035137517 0.0078750342 9.9999998e-05
v 0.035662756 0.0080956346 9.9999998e-05
v 0.035662756 0.0080956346 0.000125
v 0.035137517 0.0078750342 0.000125
v 0.036480627 0.010024011 9.9999998e-05
v 0.036437483 0.010579638 9.9999998e-05
v 0.03630805 0.011069987 9.9999998e-05
v 0.03630805 0.011069987 0.000125
v 0.036437483 0.010579638 0.000125
v 0.036480627 0.010024011 0.000125
v 0.034430695 0.0078000003 9.9999998e-05
v 0.035137517 0.0078750342 9.9999998e-05
v 0.035137517 0.0078750342 0.000125
v 0.034430695 0.0078000003 0.000125
v 0.03630805 0.011069987 9.9999998e-05
v 0.036091576 0.011486801 9.9999998e-05
v 0.035787313 0.011821828 9.9999998e-05
v 0.035787313 0.011821828 0.000125
v 0.036091576 0.011486801 0.000125
v 0.03630805 0.011069987 0.000125
v 0.032842975 0.0078000003 9.9999998e-05
v 0.034430695 0.0078000003 9.9999998e-05
v 0.034430695 0.0078000003 0.000125
v 0.032842975 0.0078000003 0.000125
v 0.035787313 0.011821828 9.9999998e-05
v 0.035142021 0.012136972 9.9999998e-05
v 0.035142021 0.012136972 0.000125
v 0.035787313 0.011821828 0.000125
v 0.035142021 0.012136972 9.9999998e-05
v 0.03481112 0.012184243 9.9999998e-05
v 0.034358664 0.0122 9.9999998e-05
v 0.034358664 0.0122 0.000125
v 0.03481112 0.012184243 0.000125
v 0.035142021 0.012136972 0.000125
v 0.034358664 0.0122 9.9999998e-05
v 0.032842975 0.0122 9.9999998e-05
v 0.032842975 0.0122 0.000125
v 0.034358664 0.0122 0.000125
v 0.033425241 0.011680764 9.9999998e-05
v 0.034349661 0.011680764 9.9999998e-05
v 0.034349661 0.011680764 0.000125
v 0.033425241 0.011680764 0.000125
v 0.032842975 0.0122 9.9999998e-05
v 0.032842975 0.0078000003 9.9999998e-05
v 0.032842975 0.0078000003 0.000125
v 0.032842975 0.0122 0.000125
v 0.032842975 0.0078000003 0.000125
v 0.034430695 0.0078000003 0.000125
v 0.035137517 0.0078750342 0.000125
v 0.035662756 0.0080956346 0.000125
v 0.036063437 0.0084948158 0.000125
v 0.036363573 0.0091356075 0.000125
v 0.036480627 0.010024011 0.000125
v 0.036437483 0.010579638 0.000125
v 0.03630805 0.011069987 0.000125
v 0.036091576 0.011486801 0.000125
v 0.035787313 0.011821828 0.000125
v 0.035142021 0.012136972 0.000125
v 0.03481112 0.012184243 0.000125
v 0.034358664 0.0122 0.000125
v 0.032842975 0.0122 0.000125
v 0.033425241 0.008319236 0.000125
v 0.033425241 0.011680764 0.000125
v 0.034349661 0.011680764 0.000125
v 0.034797614 0.011658254 0.000125
v 0.035103002 0.011590723 0.000125
v 0.035402763 0.011403513 0.000125
v 0.035653753 0.011093998 0.000125
v 0.035823705 0.010643418 0.000125
v 0.035880356 0.010033015 0.000125
v 0.035764804 0.00918513 0.000125
v 0.035442157 0.0086283767 0.000125
v 0.035047476 0.0084002733 0.000125
v 0.034752967 0.0083394951 0.000125
v 0.034364667 0.008319236 0.000125
v 0.034349661 0.011680764 9.9999998e-05
v 0.034797614 0.011658254 9.9999998e-05
v 0.035103002 0.011590723 9.9999998e-05
v 0.035103002 0.011590723 0.000125
v 0.034797614 0.011658254 0.000125
v 0.034349661 0.011680764 0.000125
v 0.033425241 0.008319236 9.9999998e-05
v 0.033425241 0.011680764 9.9999998e-05
v 0.033425241 0.011680764 0.000125
v 0.033425241 0.008319236 0.000125
v 0.035103002 0.011590723 9.9999998e-05
v 0.035402763 0.011403513 9.9999998e-05
v 0.035653753 0.011093998 9.9999998e-05
v 0.035653753 0.011093998 0.000125
v 0.035402763 0.011403513 0.000125
v 0.035103002 0.011590723 0.000125
v 0.034430695 0.0078000003 9.9999998e-05
v 0.032842975 0.0078000003 9.9999998e-05
v 0.032842975 0.0122 9.9999998e-05
v 0.034358664 0.0122 9.9999998e-05
v 0.03481112 0.012184243 9.9999998e-05
v 0.035142021 0.012136972 9.9999998e-05
v 0.035787313 0.011821828 9.9999998e-05
v 0.036091576 0.011486801 9.9999998e-05
v 0.03630805 0.011069987 9.9999998e-05
v 0.036437483 0.010579638 9.9999998e-05
v 0.036480627 0.010024011 9.9999998e-05
v 0.036363573 0.0091356075 9.9999998e-05
v 0.036063437 0.0084948158 9.9999998e-05
v 0.035662756 0.0080956346 9.9999998e-05
v 0.035137517 0.0078750342 9.9999998e-05
v 0.033425241 0.011680764 9.9999998e-05
v 0.033425241 0.008319236 9.9999998e-05
v 0.034364667 0.008319236 9.9999998e-05
v 0.034752967 0.0083394951 9.9999998e-05
v 0.035047476 0.0084002733 9.9999998e-05
v 0.035442157 0.0086283767 9.9999998e-05
v 0.035764804 0.00918513 9.9999998e-05
v 0.035880356 0.010033015 9.9999998e-05
v 0.035823705 0.010643418 9.9999998e-05
v 0.035653753 0.011093998 9.9999998e-05
v 0.035402763 0.011403513 9.9999998e-05
v 0.035103002 0.011590723 9.9999998e-05
v 0.034797614 0.011658254 9.9999998e-05
v 0.034349661 0.011680764 9.9999998e-05
v 0.035653753 0.011093998 9.9999998e-05
v 0.035823705 0.010643418 9.9999998e-05
v 0.035880356 0.010033015 9.9999998e-05
v 0.035880356 0.010033015 0.000125
v 0.035823705 0.010643418 0.000125
v 0.035653753 0.011093998 0.000125
v 0.035880356 0.010033015 9.9999998e-05
v 0.035764804 0.00918513 9.9999998e-05
v 0.035764804 0.00918513 0.000125
v 0.035880356 0.010033015 0.000125
v 0.035764804 0.00918513 9.9999998e-05
v 0.035442157 0.0086283767 9.9999998e-05
v 0.035442157 0.0086283767 0.000125
v 0.035764804 0.00918513 0.000125
v 0.035442157 0.0086283767 9.9999998e-05
v 0.035047476 0.0084002733 9.9999998e-05
v 0.035047476 0.0084002733 0.000125
v 0.035442157 0.0086283767 0.000125
v 0.035047476 0.0084002733 9.9999998e-05
v 0.034752967 0.0083394951 9.9999998e-05
v 0.034364667 0.008319236 9.9999998e-05
v 0.034364667 0.008319236 0.000125
v 0.034752967 0.0083394951 0.000125
v 0.035047476 0.0084002733 0.000125
v 0.034364667 0.008319236 9.9999998e-05
v 0.033425241 0.008319236 9.9999998e-05
v 0.033425241 0.008319236 0.000125
v 0.034364667 0.008319236 0.000125
f 1 2 4
f 4 2 3
f 5 6 8
f 8 6 7
f 9 10 12
f 12 10 11
f 13 14 16
f 16 14 15
f 17 18 22
f 22 18 21
f 21 18 19
f 21 19 20
f 23 24 26
f 26 24 25
f 27 28 32
f 32 28 31
f 31 28 29
f 31 29 30
f 33 34 36
f 36 34 35
f 37 38 40
f 40 38 39
f 41 42 46
f 46 42 45
f 45 42 43
f 45 43 44
f 47 48 50
f 50 48 49
f 51 52 54
f 54 52 53
f 55 56 58
f 58 56 57
f 60 74 59
f 59 74 75
f 59 75 73
f 73 75 72
f 72 75 76
f 72 76 71
f 71 76 77
f 71 77 70
f 70 77 78
f 70 78 79
f 61 86 60
f 60 86 87
f 60 87 74
f 86 61 85
f 85 61 62
f 85 62 84
f 84 62 63
f 84 63 83
f 83 63 64
f 83 64 82
f 82 64 65
f 82 65 66
f 82 66 81
f 81 66 67
f 81 67 80
f 80 67 68
f 80 68 69
f 80 69 79
f 79 69 70
f 88 89 93
f 93 89 92
f 92 89 90
f 92 90 91
f 94 95 97
f 97 95 96
f 98 99 103
f 103 99 102
f 102 99 100
f 102 100 101
f 105 120 104
f 104 120 121
f 104 121 122
f 120 105 119
f 119 105 106
f 119 106 107
f 119 107 132
f 132 107 108
f 132 108 131
f 131 108 109
f 131 109 130
f 130 109 129
f 129 109 110
f 129 110 128
f 128 110 111
f 128 111 112
f 128 112 127
f 127 112 113
f 127 113 126
f 126 113 114
f 126 114 115
f 126 115 125
f 125 115 116
f 125 116 124
f 124 116 117
f 124 117 123
f 123 117 118
f 123 118 122
f 122 118 104
f 133 134 138
f 138 134 137
f 137 134 135
f 137 135 136
f 139 140 142
f 142 140 141
f 143 144 146
f 146 144 145
f 147 148 150
f 150 148 149
f 151 152 156
f 156 152 155
f 155 152 153
f 155 153 154
f 157 158 160
f 160 158 159
