v 0.082451572 -9.9999998e-05 0.079577079
v 0.083108797 -9.9999998e-05 0.079963846
v 0.083841743 -9.9999998e-05 0.080240107
v 0.084650412 -9.9999998e-05 0.080405865
v 0.085534792 -9.9999998e-05 0.080461121
v 0.085534792 -0.00022 0.080461121
v 0.084650412 -0.00022 0.080405865
v 0.083841743 -0.00022 0.080240107
v 0.083108797 -0.00022 0.079963846
v 0.082451572 -0.00022 0.079577079
v 0.080710773 -9.9999998e-05 0.077203274
v 0.081007843 -9.9999998e-05 0.077910299
v 0.081396999 -9.9999998e-05 0.078541608
v 0.081878242 -9.9999998e-05 0.079097204
v 0.082451572 -9.9999998e-05 0.079577079
v 0.082451572 -0.00022 0.079577079
v 0.081878242 -0.00022 0.079097204
v 0.081396999 -0.00022 0.078541608
v 0.081007843 -0.00022 0.077910299
v 0.080710773 -0.00022 0.077203274
v 0.085534792 -9.9999998e-05 0.080461121
v 0.086302862 -9.9999998e-05 0.08041132
v 0.087002726 -9.9999998e-05 0.080261936
v 0.087634382 -9.9999998e-05 0.08001296
v 0.088197813 -9.9999998e-05 0.079664392
v 0.088197813 -0.00022 0.079664392
v 0.087634382 -0.00022 0.08001296
v 0.087002726 -0.00022 0.080261936
v 0.086302862 -0.00022 0.08041132
v 0.085534792 -0.00022 0.080461121
v 0.080208731 -9.9999998e-05 0.074130969
v 0.080334244 -9.9999998e-05 0.075690312
v 0.080710773 -9.9999998e-05 0.077203274
v 0.080710773 -0.00022 0.077203274
v 0.080334244 -0.00022 0.075690312
v 0.080208731 -0.00022 0.074130969
v 0.088197813 -9.9999998e-05 0.079664392
v 0.088695774 -9.9999998e-05 0.079206686
v 0.089130964 -9.9999998e-05 0.078630285
v 0.089503412 -9.9999998e-05 0.077935195
v 0.089813099 -9.9999998e-05 0.077121415
v 0.089813099 -0.00022 0.077121415
v 0.089503412 -0.00022 0.077935195
v 0.089130964 -0.00022 0.078630285
v 0.088695774 -0.00022 0.079206686
v 0.088197813 -0.00022 0.079664392
v 0.080803547 -9.9999998e-05 0.070567527
v 0.080357437 -9.9999998e-05 0.072219644
v 0.080208731 -9.9999998e-05 0.074130969
v 0.080208731 -0.00022 0.074130969
v 0.080357437 -0.00022 0.072219644
v 0.080803547 -0.00022 0.070567527
v 0.089813099 -9.9999998e-05 0.077121415
v 0.091897678 -9.9999998e-05 0.077612548
v 0.091897678 -0.00022 0.077612548
v 0.089813099 -0.00022 0.077121415
v 0.082653475 -9.9999998e-05 0.06829195
v 0.082067194 -9.9999998e-05 0.068716574
v 0.081563435 -9.9999998e-05 0.06923738
v 0.081142225 -9.9999998e-05 0.069854364
v 0.080803547 -9.9999998e-05 0.070567527
v 0.080803547 -0.00022 0.070567527
v 0.081142225 -0.00022 0.069854364
v 0.081563435 -0.00022 0.06923738
v 0.082067194 -0.00022 0.068716574
v 0.082653475 -0.00022 0.06829195
v 0.091897678 -9.9999998e-05 0.077612548
v 0.091513643 -9.9999998e-05 0.078658252
v 0.091005459 -9.9999998e-05 0.079579806
v 0.090373125 -9.9999998e-05 0.080377216
v 0.089616642 -9.9999998e-05 0.081050472
v 0.089616642 -0.00022 0.081050472
v 0.090373125 -0.00022 0.080377216
v 0.091005459 -0.00022 0.079579806
v 0.091513643 -0.00022 0.078658252
v 0.091897678 -0.00022 0.077612548
v 0.085371075 -9.9999998e-05 0.067538881
v 0.083960438 -9.9999998e-05 0.067727146
v 0.082653475 -9.9999998e-05 0.06829195
v 0.082653475 -0.00022 0.06829195
v 0.083960438 -0.00022 0.067727146
v 0.085371075 -0.00022 0.067538881
v 0.089616642 -9.9999998e-05 0.081050472
v 0.088750343 -9.9999998e-05 0.081585264
v 0.087788544 -9.9999998e-05 0.081967258
v 0.086731243 -9.9999998e-05 0.082196455
v 0.085578442 -9.9999998e-05 0.082272854
v 0.085578442 -0.00022 0.082272854
v 0.086731243 -0.00022 0.082196455
v 0.087788544 -0.00022 0.081967258
v 0.088750343 -0.00022 0.081585264
v 0.089616642 -0.00022 0.081050472
v 0.08838336 -9.9999998e-05 0.068564801
v 0.087732611 -9.9999998e-05 0.068115959
v 0.087013645 -9.9999998e-05 0.067795362
v 0.086226463 -9.9999998e-05 0.067603002
v 0.085371075 -9.9999998e-05 0.067538881
v 0.085371075 -0.00022 0.067538881
v 0.086226463 -0.00022 0.067603002
v 0.087013645 -0.00022 0.067795362
v 0.087732611 -0.00022 0.068115959
v 0.08838336 -0.00022 0.068564801
v 0.085578442 -9.9999998e-05 0.082272854
v 0.08454195 -9.9999998e-05 0.082212486
v 0.083549795 -9.9999998e-05 0.082031374
v 0.082601976 -9.9999998e-05 0.081729536
v 0.081698503 -9.9999998e-05 0.081306953
v 0.081698503 -0.00022 0.081306953
v 0.082601976 -0.00022 0.081729536
v 0.083549795 -0.00022 0.082031374
v 0.08454195 -0.00022 0.082212486
v 0.085578442 -0.00022 0.082272854
v 0.090053205 -0.00022 0.071609821
v 0.089785128 -0.00022 0.070662346
v 0.089417467 -0.00022 0.069839015
v 0.088950205 -0.00022 0.069139833
v 0.08838336 -0.00022 0.068564801
v 0.087732611 -0.00022 0.068115959
v 0.087013645 -0.00022 0.067795362
v 0.086226463 -0.00022 0.067603002
v 0.085371075 -0.00022 0.067538881
v 0.083960438 -0.00022 0.067727146
v 0.082653475 -0.00022 0.06829195
v 0.082067194 -0.00022 0.068716574
v 0.081563435 -0.00022 0.06923738
v 0.081142225 -0.00022 0.069854364
v 0.080803547 -0.00022 0.070567527
v 0.080357437 -0.00022 0.072219644
v 0.080208731 -0.00022 0.074130969
v 0.080334244 -0.00022 0.075690312
v 0.080710773 -0.00022 0.077203274
v 0.081007843 -0.00022 0.077910299
v 0.081396999 -0.00022 0.078541608
v 0.081878242 -0.00022 0.079097204
v 0.082451572 -0.00022 0.079577079
v 0.083108797 -0.00022 0.079963846
v 0.083841743 -0.00022 0.080240107
v 0.084650412 -0.00022 0.080405865
v 0.085534792 -0.00022 0.080461121
v 0.086302862 -0.00022 0.08041132
v 0.087002726 -0.00022 0.080261936
v 0.087634382 -0.00022 0.08001296
v 0.088197813 -0.00022 0.079664392
v 0.088695774 -0.00022 0.079206686
v 0.089130964 -0.00022 0.078630285
v 0.089503412 -0.00022 0.077935195
v 0.089813099 -0.00022 0.077121415
v 0.091897678 -0.00022 0.077612548
v 0.091513643 -0.00022 0.078658252
v 0.091005459 -0.00022 0.079579806
v 0.090373125 -0.00022 0.080377216
v 0.089616642 -0.00022 0.081050472
v 0.088750343 -0.00022 0.081585264
v 0.087788544 -0.00022 0.081967258
v 0.086731243 -0.00022 0.082196455
v 0.085578442 -0.00022 0.082272854
v 0.08454195 -0.00022 0.082212486
v 0.083549795 -0.00022 0.082031374
v 0.082601976 -0.00022 0.081729536
v 0.081698503 -0.00022 0.081306953
v 0.080867672 -0.00022 0.08076808
v 0.080137787 -0.00022 0.080117321
v 0.079508867 -0.00022 0.079354706
v 0.078980899 -0.00022 0.078480215
v 0.078563094 -0.00022 0.07750989
v 0.078264666 -0.00022 0.076459751
v 0.078085608 -0.00022 0.075329809
v 0.078025923 -0.00022 0.074120054
v 0.078078785 -0.00022 0.072992496
v 0.078237381 -0.00022 0.071901774
v 0.078501706 -0.00022 0.070847883
v 0.07887176 -0.00022 0.069830832
v 0.079343109 -0.00022 0.068891201
v 0.079911323 -0.00022 0.068069577
v 0.080576401 -0.00022 0.067365961
v 0.081338339 -0.00022 0.066780353
v 0.082209072 -0.00022 0.066319575
v 0.08320055 -0.00022 0.065990448
v 0.084312754 -0.00022 0.065792975
v 0.085545702 -0.00022 0.065727148
v 0.086747274 -0.00022 0.065812755
v 0.087852659 -0.00022 0.066069574
v 0.088861866 -0.00022 0.066497612
v 0.089774895 -0.00022 0.067096858
v 0.09057333 -0.00022 0.067859139
v 0.091238747 -0.00022 0.068776259
v 0.091771145 -0.00022 0.069848228
v 0.092170534 -0.00022 0.071075034
v 0.081698503 -9.9999998e-05 0.081306953
v 0.080867672 -9.9999998e-05 0.08076808
v 0.080137787 -9.9999998e-05 0.080117321
v 0.079508867 -9.9999998e-05 0.079354706
v 0.078980899 -9.9999998e-05 0.078480215
v 0.078980899 -0.00022 0.078480215
v 0.079508867 -0.00022 0.079354706
v 0.080137787 -0.00022 0.080117321
v 0.080867672 -0.00022 0.08076808
v 0.081698503 -0.00022 0.081306953
v 0.090053205 -9.9999998e-05 0.071609821
v 0.089785128 -9.9999998e-05 0.070662346
v 0.089417467 -9.9999998e-05 0.069839015
v 0.088950205 -9.9999998e-05 0.069139833
v 0.08838336 -9.9999998e-05 0.068564801
v 0.08838336 -0.00022 0.068564801
v 0.088950205 -0.00022 0.069139833
v 0.089417467 -0.00022 0.069839015
v 0.089785128 -0.00022 0.070662346
v 0.090053205 -0.00022 0.071609821
v 0.078980899 -9.9999998e-05 0.078480215
v 0.078563094 -9.9999998e-05 0.07750989
v 0.078264666 -9.9999998e-05 0.076459751
v 0.078085608 -9.9999998e-05 0.075329809
v 0.078025923 -9.9999998e-05 0.074120054
v 0.078025923 -0.00022 0.074120054
v 0.078085608 -0.00022 0.075329809
v 0.078264666 -0.00022 0.076459751
v 0.078563094 -0.00022 0.07750989
v 0.078980899 -0.00022 0.078480215
v 0.08838336 -9.9999998e-05 0.068564801
v 0.088950205 -9.9999998e-05 0.069139833
v 0.089417467 -9.9999998e-05 0.069839015
v 0.089785128 -9.9999998e-05 0.070662346
v 0.090053205 -9.9999998e-05 0.071609821
v 0.092170534 -9.9999998e-05 0.071075034
v 0.091771145 -9.9999998e-05 0.069848228
v 0.091238747 -9.9999998e-05 0.068776259
v 0.09057333 -9.9999998e-05 0.067859139
v 0.089774895 -9.9999998e-05 0.067096858
v 0.088861866 -9.9999998e-05 0.066497612
v 0.087852659 -9.9999998e-05 0.066069574
v 0.086747274 -9.9999998e-05 0.065812755
v 0.085545702 -9.9999998e-05 0.065727148
v 0.084312754 -9.9999998e-05 0.065792975
v 0.08320055 -9.9999998e-05 0.065990448
v 0.082209072 -9.9999998e-05 0.066319575
v 0.081338339 -9.9999998e-05 0.066780353
v 0.080576401 -9.9999998e-05 0.067365961
v 0.079911323 -9.9999998e-05 0.068069577
v 0.079343109 -9.9999998e-05 0.068891201
v 0.07887176 -9.9999998e-05 0.069830832
v 0.078501706 -9.9999998e-05 0.070847883
v 0.078237381 -9.9999998e-05 0.071901774
v 0.078078785 -9.9999998e-05 0.072992496
v 0.078025923 -9.9999998e-05 0.074120054
v 0.078085608 -9.9999998e-05 0.075329809
v 0.078264666 -9.9999998e-05 0.076459751
v 0.078563094 -9.9999998e-05 0.07750989
v 0.078980899 -9.9999998e-05 0.078480215
v 0.079508867 -9.9999998e-05 0.079354706
v 0.080137787 -9.9999998e-05 0.080117321
v 0.080867672 -9.9999998e-05 0.08076808
v 0.081698503 -9.9999998e-05 0.081306953
v 0.082601976 -9.9999998e-05 0.081729536
v 0.083549795 -9.9999998e-05 0.082031374
v 0.08454195 -9.9999998e-05 0.082212486
v 0.085578442 -9.9999998e-05 0.082272854
v 0.086731243 -9.9999998e-05 0.082196455
v 0.087788544 -9.9999998e-05 0.081967258
v 0.088750343 -9.9999998e-05 0.081585264
v 0.089616642 -9.9999998e-05 0.081050472
v 0.090373125 -9.9999998e-05 0.080377216
v 0.091005459 -9.9999998e-05 0.079579806
v 0.091513643 -9.9999998e-05 0.078658252
v 0.091897678 -9.9999998e-05 0.077612548
v 0.089813099 -9.9999998e-05 0.077121415
v 0.089503412 -9.9999998e-05 0.077935195
v 0.089130964 -9.9999998e-05 0.078630285
v 0.088695774 -9.9999998e-05 0.079206686
v 0.088197813 -9.9999998e-05 0.079664392
v 0.087634382 -9.9999998e-05 0.08001296
v 0.087002726 -9.9999998e-05 0.080261936
v 0.086302862 -9.9999998e-05 0.08041132
v 0.085534792 -9.9999998e-05 0.080461121
v 0.084650412 -9.9999998e-05 0.080405865
v 0.083841743 -9.9999998e-05 0.080240107
v 0.083108797 -9.9999998e-05 0.079963846
v 0.082451572 -9.9999998e-05 0.079577079
v 0.081878242 -9.9999998e-05 0.079097204
v 0.081396999 -9.9999998e-05 0.078541608
v 0.081007843 -9.9999998e-05 0.077910299
v 0.080710773 -9.9999998e-05 0.077203274
v 0.080334244 -9.9999998e-05 0.075690312
v 0.080208731 -9.9999998e-05 0.074130969
v 0.080357437 -9.9999998e-05 0.072219644
v 0.080803547 -9.9999998e-05 0.070567527
v 0.081142225 -9.9999998e-05 0.069854364
v 0.081563435 -9.9999998e-05 0.06923738
v 0.082067194 -9.9999998e-05 0.068716574
v 0.082653475 -9.9999998e-05 0.06829195
v 0.083960438 -9.9999998e-05 0.067727146
v 0.085371075 -9.9999998e-05 0.067538881
v 0.086226463 -9.9999998e-05 0.067603002
v 0.087013645 -9.9999998e-05 0.067795362
v 0.087732611 -9.9999998e-05 0.068115959
v 0.078025923 -9.9999998e-05 0.074120054
v 0.078078785 -9.9999998e-05 0.072992496
v 0.078237381 -9.9999998e-05 0.071901774
v 0.078501706 -9.9999998e-05 0.070847883
v 0.07887176 -9.9999998e-05 0.069830832
v 0.07887176 -0.00022 0.069830832
v 0.078501706 -0.00022 0.070847883
v 0.078237381 -0.00022 0.071901774
v 0.078078785 -0.00022 0.072992496
v 0.078025923 -0.00022 0.074120054
v 0.07887176 -9.9999998e-05 0.069830832
v 0.079343109 -9.9999998e-05 0.068891201
v 0.079911323 -9.9999998e-05 0.068069577
v 0.080576401 -9.9999998e-05 0.067365961
v 0.081338339 -9.9999998e-05 0.066780353
v 0.081338339 -0.00022 0.066780353
v 0.080576401 -0.00022 0.067365961
v 0.079911323 -0.00022 0.068069577
v 0.079343109 -0.00022 0.068891201
v 0.07887176 -0.00022 0.069830832
v 0.081338339 -9.9999998e-05 0.066780353
v 0.082209072 -9.9999998e-05 0.066319575
v 0.08320055 -9.9999998e-05 0.065990448
v 0.084312754 -9.9999998e-05 0.065792975
v 0.085545702 -9.9999998e-05 0.065727148
v 0.085545702 -0.00022 0.065727148
v 0.084312754 -0.00022 0.065792975
v 0.08320055 -0.00022 0.065990448
v 0.082209072 -0.00022 0.066319575
v 0.081338339 -0.00022 0.066780353
v 0.085545702 -9.9999998e-05 0.065727148
v 0.086747274 -9.9999998e-05 0.065812755
v 0.087852659 -9.9999998e-05 0.066069574
v 0.088861866 -9.9999998e-05 0.066497612
v 0.089774895 -9.9999998e-05 0.067096858
v 0.089774895 -0.00022 0.067096858
v 0.088861866 -0.00022 0.066497612
v 0.087852659 -0.00022 0.066069574
v 0.086747274 -0.00022 0.065812755
v 0.085545702 -0.00022 0.065727148
v 0.089774895 -9.9999998e-05 0.067096858
v 0.09057333 -9.9999998e-05 0.067859139
v 0.091238747 -9.9999998e-05 0.068776259
v 0.091771145 -9.9999998e-05 0.069848228
v 0.092170534 -9.9999998e-05 0.071075034
v 0.092170534 -0.00022 0.071075034
v 0.091771145 -0.00022 0.069848228
v 0.091238747 -0.00022 0.068776259
v 0.09057333 -0.00022 0.067859139
v 0.089774895 -0.00022 0.067096858
v 0.092170534 -9.9999998e-05 0.071075034
v 0.090053205 -9.9999998e-05 0.071609821
v 0.090053205 -0.00022 0.071609821
v 0.092170534 -0.00022 0.071075034
f 1 2 10
f 10 2 9
f 9 2 3
f 9 3 8
f 8 3 4
f 8 4 7
f 7 4 5
f 7 5 6
f 11 12 20
f 20 12 19
f 19 12 13
f 19 13 18
f 18 13 14
f 18 14 17
f 17 14 15
f 17 15 16
f 21 22 30
f 30 22 29
f 29 22 23
f 29 23 28
f 28 23 24
f 28 24 27
f 27 24 25
f 27 25 26
f 31 32 36
f 36 32 35
f 35 32 33
f 35 33 34
f 37 38 46
f 46 38 45
f 45 38 39
f 45 39 44
f 44 39 40
f 44 40 43
f 43 40 41
f 43 41 42
f 47 48 52
f 52 48 51
f 51 48 49
f 51 49 50
f 53 54 56
f 56 54 55
f 57 58 66
f 66 58 65
f 65 58 59
f 65 59 64
f 64 59 60
f 64 60 63
f 63 60 61
f 63 61 62
f 67 68 76
f 76 68 75
f 75 68 69
f 75 69 74
f 74 69 70
f 74 70 73
f 73 70 71
f 73 71 72
f 77 78 82
f 82 78 81
f 81 78 79
f 81 79 80
f 83 84 92
f 92 84 91
f 91 84 85
f 91 85 90
f 90 85 86
f 90 86 89
f 89 86 87
f 89 87 88
f 93 94 102
f 102 94 101
f 101 94 95
f 101 95 100
f 100 95 96
f 100 96 99
f 99 96 97
f 99 97 98
f 103 104 112
f 112 104 111
f 111 104 105
f 111 105 110
f 110 105 106
f 110 106 109
f 109 106 107
f 109 107 108
f 188 113 187
f 187 113 114
f 187 114 186
f 186 114 115
f 186 115 185
f 185 115 116
f 185 116 184
f 184 116 117
f 184 117 183
f 183 117 118
f 183 118 182
f 182 118 119
f 182 119 181
f 181 119 120
f 181 120 180
f 180 120 121
f 180 121 179
f 179 121 122
f 179 122 178
f 178 122 123
f 178 123 177
f 177 123 176
f 176 123 124
f 176 124 175
f 175 124 125
f 175 125 174
f 174 125 126
f 174 126 173
f 173 126 127
f 173 127 172
f 172 127 171
f 171 127 128
f 171 128 170
f 170 128 169
f 169 128 129
f 169 129 168
f 168 129 167
f 167 129 130
f 167 130 166
f 166 130 165
f 165 130 131
f 165 131 164
f 164 131 132
f 164 132 163
f 163 132 133
f 163 133 162
f 162 133 134
f 162 134 161
f 161 134 135
f 161 135 160
f 160 135 136
f 160 136 159
f 159 136 137
f 159 137 158
f 158 137 138
f 158 138 157
f 157 138 139
f 157 139 156
f 156 139 140
f 156 140 155
f 155 140 141
f 155 141 154
f 154 141 142
f 154 142 153
f 153 142 143
f 153 143 152
f 152 143 144
f 152 144 151
f 151 144 145
f 151 145 150
f 150 145 146
f 150 146 149
f 149 146 147
f 149 147 148
f 189 190 198
f 198 190 197
f 197 190 191
f 197 191 196
f 196 191 192
f 196 192 195
f 195 192 193
f 195 193 194
f 199 200 208
f 208 200 207
f 207 200 201
f 207 201 206
f 206 201 202
f 206 202 205
f 205 202 203
f 205 203 204
f 209 210 218
f 218 210 217
f 217 210 211
f 217 211 216
f 216 211 212
f 216 212 215
f 215 212 213
f 215 213 214
f 220 228 219
f 219 228 229
f 219 229 294
f 294 229 230
f 294 230 293
f 293 230 231
f 293 231 292
f 292 231 232
f 292 232 291
f 291 232 233
f 291 233 290
f 290 233 234
f 290 234 289
f 289 234 235
f 289 235 236
f 228 220 227
f 227 220 221
f 227 221 226
f 226 221 222
f 226 222 225
f 225 222 223
f 225 223 224
f 289 236 288
f 288 236 237
f 288 237 287
f 287 237 238
f 287 238 286
f 286 238 239
f 286 239 285
f 285 239 240
f 285 240 241
f 285 241 284
f 284 241 242
f 284 242 243
f 284 243 283
f 283 243 244
f 283 244 245
f 283 245 282
f 282 245 246
f 282 246 247
f 282 247 281
f 281 247 248
f 281 248 280
f 280 248 249
f 280 249 279
f 279 249 250
f 279 250 278
f 278 250 251
f 278 251 277
f 277 251 252
f 277 252 276
f 276 252 253
f 276 253 275
f 275 253 254
f 275 254 274
f 274 254 255
f 274 255 273
f 273 255 256
f 273 256 272
f 272 256 257
f 272 257 271
f 271 257 258
f 271 258 270
f 270 258 259
f 270 259 269
f 269 259 260
f 269 260 268
f 268 260 261
f 268 261 267
f 267 261 262
f 267 262 266
f 266 262 263
f 266 263 265
f 265 263 264
f 295 296 304
f 304 296 303
f 303 296 297
f 303 297 302
f 302 297 298
f 302 298 301
f 301 298 299
f 301 299 300
f 305 306 314
f 314 306 313
f 313 306 307
f 313 307 312
f 312 307 308
f 312 308 311
f 311 308 309
f 311 309 310
f 315 316 324
f 324 316 323
f 323 316 317
f 323 317 322
f 322 317 318
f 322 318 321
f 321 318 319
f 321 319 320
f 325 326 334
f 334 326 333
f 333 326 327
f 333 327 332
f 332 327 328
f 332 328 331
f 331 328 329
f 331 329 330
f 335 336 344
f 344 336 343
f 343 336 337
f 343 337 342
f 342 337 338
f 342 338 341
f 341 338 339
f 341 339 340
f 345 346 348
f 348 346 347
