v 0.15780219 -9.9999998e-05 0.068646655
v 0.15739871 -9.9999998e-05 0.069463506
v 0.15711051 -9.9999998e-05 0.070609822
v 0.15693759 -9.9999998e-05 0.072085605
v 0.15687995 -9.9999998e-05 0.073890858
v 0.15687995 -0.00022 0.073890858
v 0.15693759 -0.00022 0.072085605
v 0.15711051 -0.00022 0.070609822
v 0.15739871 -0.00022 0.069463506
v 0.15780219 -0.00022 0.068646655
v 0.16007776 -9.9999998e-05 0.067342424
v 0.15942803 -9.9999998e-05 0.06742394
v 0.1588322 -9.9999998e-05 0.067668486
v 0.15829025 -9.9999998e-05 0.068076057
v 0.15780219 -9.9999998e-05 0.068646655
v 0.15780219 -0.00022 0.068646655
v 0.15829025 -0.00022 0.068076057
v 0.1588322 -0.00022 0.067668486
v 0.15942803 -0.00022 0.06742394
v 0.16007776 -0.00022 0.067342424
v 0.16327559 -9.9999998e-05 0.073890858
v 0.16321795 -9.9999998e-05 0.072090039
v 0.16304502 -9.9999998e-05 0.070616646
v 0.16275682 -9.9999998e-05 0.069470668
v 0.16235334 -9.9999998e-05 0.068652115
v 0.16235334 -0.00022 0.068652115
v 0.16275682 -0.00022 0.069470668
v 0.16304502 -0.00022 0.070616646
v 0.16321795 -0.00022 0.072090039
v 0.16327559 -0.00022 0.073890858
v 0.16235334 -9.9999998e-05 0.079140515
v 0.16275682 -9.9999998e-05 0.078325377
v 0.16304502 -9.9999998e-05 0.077178717
v 0.16321795 -9.9999998e-05 0.075700545
v 0.16327559 -9.9999998e-05 0.073890858
v 0.16327559 -0.00022 0.073890858
v 0.16321795 -0.00022 0.075700545
v 0.16304502 -0.00022 0.077178717
v 0.16275682 -0.00022 0.078325377
v 0.16235334 -0.00022 0.079140515
v 0.16005592 -9.9999998e-05 0.080439291
v 0.16071522 -9.9999998e-05 0.080358114
v 0.16131788 -9.9999998e-05 0.080114594
v 0.16186392 -9.9999998e-05 0.079708729
v 0.16235334 -9.9999998e-05 0.079140515
v 0.16235334 -0.00022 0.079140515
v 0.16186392 -0.00022 0.079708729
v 0.16131788 -0.00022 0.080114594
v 0.16071522 -0.00022 0.080358114
v 0.16005592 -0.00022 0.080439291
v 0.15644339 -9.9999998e-05 0.067386084
v 0.15575103 -9.9999998e-05 0.068541608
v 0.15525648 -9.9999998e-05 0.070010915
v 0.15495975 -9.9999998e-05 0.071793995
v 0.15486085 -9.9999998e-05 0.073890858
v 0.15489735 -9.9999998e-05 0.07524045
v 0.15500683 -9.9999998e-05 0.076451569
v 0.15518929 -9.9999998e-05 0.077524214
v 0.15544476 -9.9999998e-05 0.07845839
v 0.15577217 -9.9999998e-05 0.079273872
v 0.15617054 -9.9999998e-05 0.079990449
v 0.15663984 -9.9999998e-05 0.08060812
v 0.15718009 -9.9999998e-05 0.081126871
v 0.15779298 -9.9999998e-05 0.081537514
v 0.15848022 -9.9999998e-05 0.081830835
v 0.15924181 -9.9999998e-05 0.082006817
v 0.16007776 -9.9999998e-05 0.082065487
v 0.16128649 -9.9999998e-05 0.081935883
v 0.16233698 -9.9999998e-05 0.08154707
v 0.16322374 -9.9999998e-05 0.080914049
v 0.16394133 -9.9999998e-05 0.080051842
v 0.16450615 -9.9999998e-05 0.07896862
v 0.16493452 -9.9999998e-05 0.077672577
v 0.16509209 -9.9999998e-05 0.0769103
v 0.16520464 -9.9999998e-05 0.07602592
v 0.16527218 -9.9999998e-05 0.075019441
v 0.16529469 -9.9999998e-05 0.073890858
v 0.16525852 -9.9999998e-05 0.072550817
v 0.16515007 -9.9999998e-05 0.071346521
v 0.16496931 -9.9999998e-05 0.070277967
v 0.16471622 -9.9999998e-05 0.069345155
v 0.16439119 -9.9999998e-05 0.068529329
v 0.16399454 -9.9999998e-05 0.067811732
v 0.16352627 -9.9999998e-05 0.067192359
v 0.16298635 -9.9999998e-05 0.066671214
v 0.16237278 -9.9999998e-05 0.066258187
v 0.1616835 -9.9999998e-05 0.065963163
v 0.16091848 -9.9999998e-05 0.065786152
v 0.16007776 -9.9999998e-05 0.065727148
v 0.15898294 -9.9999998e-05 0.065830832
v 0.15801228 -9.9999998e-05 0.066141882
v 0.15716576 -9.9999998e-05 0.066660299
v 0.15789495 -9.9999998e-05 0.079293313
v 0.15745089 -9.9999998e-05 0.07840723
v 0.1571337 -9.9999998e-05 0.077211456
v 0.15694339 -9.9999998e-05 0.075706
v 0.15687995 -9.9999998e-05 0.073890858
v 0.15693759 -9.9999998e-05 0.072085605
v 0.15711051 -9.9999998e-05 0.070609822
v 0.15739871 -9.9999998e-05 0.069463506
v 0.15780219 -9.9999998e-05 0.068646655
v 0.15829025 -9.9999998e-05 0.068076057
v 0.1588322 -9.9999998e-05 0.067668486
v 0.15942803 -9.9999998e-05 0.06742394
v 0.16007776 -9.9999998e-05 0.067342424
v 0.16072748 -9.9999998e-05 0.067424283
v 0.16132334 -9.9999998e-05 0.067669849
v 0.16186527 -9.9999998e-05 0.068079128
v 0.16235334 -9.9999998e-05 0.068652115
v 0.16275682 -9.9999998e-05 0.069470668
v 0.16304502 -9.9999998e-05 0.070616646
v 0.16321795 -9.9999998e-05 0.072090039
v 0.16327559 -9.9999998e-05 0.073890858
v 0.16321795 -9.9999998e-05 0.075700545
v 0.16304502 -9.9999998e-05 0.077178717
v 0.16275682 -9.9999998e-05 0.078325377
v 0.16235334 -9.9999998e-05 0.079140515
v 0.16186392 -9.9999998e-05 0.079708729
v 0.16131788 -9.9999998e-05 0.080114594
v 0.16071522 -9.9999998e-05 0.080358114
v 0.16005592 -9.9999998e-05 0.080439291
v 0.15941337 -9.9999998e-05 0.08036767
v 0.15883902 -9.9999998e-05 0.080152798
v 0.15833288 -9.9999998e-05 0.079794679
v 0.15789495 -9.9999998e-05 0.079293313
v 0.15833288 -9.9999998e-05 0.079794679
v 0.15883902 -9.9999998e-05 0.080152798
v 0.15941337 -9.9999998e-05 0.08036767
v 0.16005592 -9.9999998e-05 0.080439291
v 0.16005592 -0.00022 0.080439291
v 0.15941337 -0.00022 0.08036767
v 0.15883902 -0.00022 0.080152798
v 0.15833288 -0.00022 0.079794679
v 0.15789495 -0.00022 0.079293313
v 0.15687995 -9.9999998e-05 0.073890858
v 0.15694339 -9.9999998e-05 0.075706
v 0.1571337 -9.9999998e-05 0.077211456
v 0.15745089 -9.9999998e-05 0.07840723
v 0.15789495 -9.9999998e-05 0.079293313
v 0.15789495 -0.00022 0.079293313
v 0.15745089 -0.00022 0.07840723
v 0.1571337 -0.00022 0.077211456
v 0.15694339 -0.00022 0.075706
v 0.15687995 -0.00022 0.073890858
v 0.15486085 -0.00022 0.073890858
v 0.15495975 -0.00022 0.071793995
v 0.15525648 -0.00022 0.070010915
v 0.15575103 -0.00022 0.068541608
v 0.15644339 -0.00022 0.067386084
v 0.15716576 -0.00022 0.066660299
v 0.15801228 -0.00022 0.066141882
v 0.15898294 -0.00022 0.065830832
v 0.16007776 -0.00022 0.065727148
v 0.16091848 -0.00022 0.065786152
v 0.1616835 -0.00022 0.065963163
v 0.16237278 -0.00022 0.066258187
v 0.16298635 -0.00022 0.066671214
v 0.16352627 -0.00022 0.067192359
v 0.16399454 -0.00022 0.067811732
v 0.16439119 -0.00022 0.068529329
v 0.16471622 -0.00022 0.069345155
v 0.16496931 -0.00022 0.070277967
v 0.16515007 -0.00022 0.071346521
v 0.16525852 -0.00022 0.072550817
v 0.16529469 -0.00022 0.073890858
v 0.16527218 -0.00022 0.075019441
v 0.16520464 -0.00022 0.07602592
v 0.16509209 -0.00022 0.0769103
v 0.16493452 -0.00022 0.077672577
v 0.16450615 -0.00022 0.07896862
v 0.16394133 -0.00022 0.080051842
v 0.16322374 -0.00022 0.080914049
v 0.16233698 -0.00022 0.08154707
v 0.16128649 -0.00022 0.081935883
v 0.16007776 -0.00022 0.082065487
v 0.15924181 -0.00022 0.082006817
v 0.15848022 -0.00022 0.081830835
v 0.15779298 -0.00022 0.081537514
v 0.15718009 -0.00022 0.081126871
v 0.15663984 -0.00022 0.08060812
v 0.15617054 -0.00022 0.079990449
v 0.15577217 -0.00022 0.079273872
v 0.15544476 -0.00022 0.07845839
v 0.15518929 -0.00022 0.077524214
v 0.15500683 -0.00022 0.076451569
v 0.15489735 -0.00022 0.07524045
v 0.15687995 -0.00022 0.073890858
v 0.15694339 -0.00022 0.075706
v 0.1571337 -0.00022 0.077211456
v 0.15745089 -0.00022 0.07840723
v 0.15789495 -0.00022 0.079293313
v 0.15833288 -0.00022 0.079794679
v 0.15883902 -0.00022 0.080152798
v 0.15941337 -0.00022 0.08036767
v 0.16005592 -0.00022 0.080439291
v 0.16071522 -0.00022 0.080358114
v 0.16131788 -0.00022 0.080114594
v 0.16186392 -0.00022 0.079708729
v 0.16235334 -0.00022 0.079140515
v 0.16275682 -0.00022 0.078325377
v 0.16304502 -0.00022 0.077178717
v 0.16321795 -0.00022 0.075700545
v 0.16327559 -0.00022 0.073890858
v 0.16321795 -0.00022 0.072090039
v 0.16304502 -0.00022 0.070616646
v 0.16275682 -0.00022 0.069470668
v 0.16235334 -0.00022 0.068652115
v 0.16186527 -0.00022 0.068079128
v 0.16132334 -0.00022 0.067669849
v 0.16072748 -0.00022 0.067424283
v 0.16007776 -0.00022 0.067342424
v 0.15942803 -0.00022 0.06742394
v 0.1588322 -0.00022 0.067668486
v 0.15829025 -0.00022 0.068076057
v 0.15780219 -0.00022 0.068646655
v 0.15739871 -0.00022 0.069463506
v 0.15711051 -0.00022 0.070609822
v 0.15693759 -0.00022 0.072085605
v 0.16007776 -9.9999998e-05 0.082065487
v 0.15924181 -9.9999998e-05 0.082006817
v 0.15848022 -9.9999998e-05 0.081830835
v 0.15779298 -9.9999998e-05 0.081537514
v 0.15718009 -9.9999998e-05 0.081126871
v 0.15718009 -0.00022 0.081126871
v 0.15779298 -0.00022 0.081537514
v 0.15848022 -0.00022 0.081830835
v 0.15924181 -0.00022 0.082006817
v 0.16007776 -0.00022 0.082065487
v 0.15544476 -9.9999998e-05 0.07845839
v 0.15518929 -9.9999998e-05 0.077524214
v 0.15500683 -9.9999998e-05 0.076451569
v 0.15489735 -9.9999998e-05 0.07524045
v 0.15486085 -9.9999998e-05 0.073890858
v 0.15486085 -0.00022 0.073890858
v 0.15489735 -0.00022 0.07524045
v 0.15500683 -0.00022 0.076451569
v 0.15518929 -0.00022 0.077524214
v 0.15544476 -0.00022 0.07845839
v 0.15718009 -9.9999998e-05 0.081126871
v 0.15663984 -9.9999998e-05 0.08060812
v 0.15617054 -9.9999998e-05 0.079990449
v 0.15577217 -9.9999998e-05 0.079273872
v 0.15544476 -9.9999998e-05 0.07845839
v 0.15544476 -0.00022 0.07845839
v 0.15577217 -0.00022 0.079273872
v 0.15617054 -0.00022 0.079990449
v 0.15663984 -0.00022 0.08060812
v 0.15718009 -0.00022 0.081126871
v 0.16233698 -9.9999998e-05 0.08154707
v 0.16128649 -9.9999998e-05 0.081935883
v 0.16007776 -9.9999998e-05 0.082065487
v 0.16007776 -0.00022 0.082065487
v 0.16128649 -0.00022 0.081935883
v 0.16233698 -0.00022 0.08154707
v 0.15486085 -9.9999998e-05 0.073890858
v 0.15495975 -9.9999998e-05 0.071793995
v 0.15525648 -9.9999998e-05 0.070010915
v 0.15575103 -9.9999998e-05 0.068541608
v 0.15644339 -9.9999998e-05 0.067386084
v 0.15644339 -0.00022 0.067386084
v 0.15575103 -0.00022 0.068541608
v 0.15525648 -0.00022 0.070010915
v 0.15495975 -0.00022 0.071793995
v 0.15486085 -0.00022 0.073890858
v 0.16394133 -9.9999998e-05 0.080051842
v 0.16322374 -9.9999998e-05 0.080914049
v 0.16233698 -9.9999998e-05 0.08154707
v 0.16233698 -0.00022 0.08154707
v 0.16322374 -0.00022 0.080914049
v 0.16394133 -0.00022 0.080051842
v 0.15644339 -9.9999998e-05 0.067386084
v 0.15716576 -9.9999998e-05 0.066660299
v 0.15801228 -9.9999998e-05 0.066141882
v 0.15898294 -9.9999998e-05 0.065830832
v 0.16007776 -9.9999998e-05 0.065727148
v 0.16007776 -0.00022 0.065727148
v 0.15898294 -0.00022 0.065830832
v 0.15801228 -0.00022 0.066141882
v 0.15716576 -0.00022 0.066660299
v 0.15644339 -0.00022 0.067386084
v 0.16298635 -9.9999998e-05 0.066671214
v 0.16352627 -9.9999998e-05 0.067192359
v 0.16399454 -9.9999998e-05 0.067811732
v 0.16439119 -9.9999998e-05 0.068529329
v 0.16471622 -9.9999998e-05 0.069345155
v 0.16471622 -0.00022 0.069345155
v 0.16439119 -0.00022 0.068529329
v 0.16399454 -0.00022 0.067811732
v 0.16352627 -0.00022 0.067192359
v 0.16298635 -0.00022 0.066671214
v 0.16471622 -9.9999998e-05 0.069345155
v 0.16496931 -9.9999998e-05 0.070277967
v 0.16515007 -9.9999998e-05 0.071346521
v 0.16525852 -9.9999998e-05 0.072550817
v 0.16529469 -9.9999998e-05 0.073890858
v 0.16529469 -0.00022 0.073890858
v 0.16525852 -0.00022 0.072550817
v 0.16515007 -0.00022 0.071346521
v 0.16496931 -0.00022 0.070277967
v 0.16471622 -0.00022 0.069345155
v 0.16007776 -9.9999998e-05 0.065727148
v 0.16091848 -9.9999998e-05 0.065786152
v 0.1616835 -9.9999998e-05 0.065963163
v 0.16237278 -9.9999998e-05 0.066258187
v 0.16298635 -9.9999998e-05 0.066671214
v 0.16298635 -0.00022 0.066671214
v 0.16237278 -0.00022 0.066258187
v 0.1616835 -0.00022 0.065963163
v 0.16091848 -0.00022 0.065786152
v 0.16007776 -0.00022 0.065727148
v 0.16493452 -9.9999998e-05 0.077672577
v 0.16450615 -9.9999998e-05 0.07896862
v 0.16394133 -9.9999998e-05 0.080051842
v 0.16394133 -0.00022 0.080051842
v 0.16450615 -0.00022 0.07896862
v 0.16493452 -0.00022 0.077672577
v 0.16529469 -9.9999998e-05 0.073890858
v 0.16527218 -9.9999998e-05 0.075019441
v 0.16520464 -9.9999998e-05 0.07602592
v 0.16509209 -9.9999998e-05 0.0769103
v 0.16493452 -9.9999998e-05 0.077672577
v 0.16493452 -0.00022 0.077672577
v 0.16509209 -0.00022 0.0769103
v 0.16520464 -0.00022 0.07602592
v 0.16527218 -0.00022 0.075019441
v 0.16529469 -0.00022 0.073890858
v 0.16235334 -9.9999998e-05 0.068652115
v 0.16186527 -9.9999998e-05 0.068079128
v 0.16132334 -9.9999998e-05 0.067669849
v 0.16072748 -9.9999998e-05 0.067424283
v 0.16007776 -9.9999998e-05 0.067342424
v 0.16007776 -0.00022 0.067342424
v 0.16072748 -0.00022 0.067424283
v 0.16132334 -0.00022 0.067669849
v 0.16186527 -0.00022 0.068079128
v 0.16235334 -0.00022 0.068652115
f 1 2 10
f 10 2 9
f 9 2 3
f 9 3 8
f 8 3 4
f 8 4 7
f 7 4 5
f 7 5 6
f 11 12 20
f 20 12 19
f 19 12 13
f 19 13 18
f 18 13 14
f 18 14 17
f 17 14 15
f 17 15 16
f 21 22 30
f 30 22 29
f 29 22 23
f 29 23 28
f 28 23 24
f 28 24 27
f 27 24 25
f 27 25 26
f 31 32 40
f 40 32 39
f 39 32 33
f 39 33 38
f 38 33 34
f 38 34 37
f 37 34 35
f 37 35 36
f 41 42 50
f 50 42 49
f 49 42 43
f 49 43 48
f 48 43 44
f 48 44 47
f 47 44 45
f 47 45 46
f 52 100 51
f 51 100 101
f 51 101 92
f 92 101 102
f 92 102 91
f 91 102 103
f 91 103 90
f 90 103 104
f 90 104 89
f 89 104 105
f 89 105 106
f 100 52 99
f 99 52 53
f 99 53 98
f 98 53 54
f 98 54 97
f 97 54 55
f 97 55 56
f 97 56 96
f 96 56 57
f 96 57 58
f 96 58 95
f 95 58 59
f 95 59 60
f 95 60 94
f 94 60 61
f 94 61 62
f 94 62 93
f 93 62 63
f 93 63 124
f 124 63 64
f 124 64 65
f 124 65 123
f 123 65 66
f 123 66 122
f 122 66 67
f 122 67 121
f 121 67 120
f 120 67 68
f 120 68 119
f 119 68 69
f 119 69 118
f 118 69 70
f 118 70 117
f 117 70 71
f 117 71 116
f 116 71 72
f 116 72 115
f 115 72 73
f 115 73 74
f 115 74 114
f 114 74 75
f 114 75 76
f 114 76 113
f 113 76 77
f 113 77 78
f 113 78 112
f 112 78 79
f 112 79 80
f 112 80 111
f 111 80 81
f 111 81 82
f 111 82 110
f 110 82 83
f 110 83 84
f 110 84 109
f 109 84 85
f 109 85 108
f 108 85 86
f 108 86 107
f 107 86 87
f 107 87 88
f 107 88 106
f 106 88 89
f 125 126 134
f 134 126 133
f 133 126 127
f 133 127 132
f 132 127 128
f 132 128 131
f 131 128 129
f 131 129 130
f 135 136 144
f 144 136 143
f 143 136 137
f 143 137 142
f 142 137 138
f 142 138 141
f 141 138 139
f 141 139 140
f 186 145 187
f 187 145 146
f 187 146 218
f 218 146 147
f 218 147 217
f 217 147 148
f 217 148 216
f 216 148 149
f 216 149 215
f 215 149 150
f 215 150 214
f 214 150 151
f 214 151 213
f 213 151 152
f 213 152 212
f 212 152 153
f 212 153 211
f 211 153 210
f 210 153 154
f 210 154 209
f 209 154 155
f 209 155 156
f 209 156 208
f 208 156 157
f 208 157 207
f 207 157 158
f 207 158 206
f 206 158 159
f 206 159 160
f 206 160 205
f 205 160 161
f 205 161 162
f 205 162 204
f 204 162 163
f 204 163 164
f 204 164 203
f 203 164 165
f 203 165 166
f 203 166 202
f 202 166 167
f 202 167 168
f 202 168 201
f 201 168 169
f 201 169 170
f 201 170 200
f 200 170 171
f 200 171 199
f 199 171 172
f 199 172 198
f 198 172 173
f 198 173 197
f 197 173 174
f 197 174 196
f 196 174 175
f 196 175 195
f 195 175 194
f 194 175 176
f 194 176 193
f 193 176 177
f 193 177 192
f 192 177 178
f 192 178 179
f 192 179 191
f 191 179 180
f 191 180 190
f 190 180 181
f 190 181 182
f 190 182 189
f 189 182 183
f 189 183 184
f 189 184 188
f 188 184 185
f 188 185 186
f 188 186 187
f 219 220 228
f 228 220 227
f 227 220 221
f 227 221 226
f 226 221 222
f 226 222 225
f 225 222 223
f 225 223 224
f 229 230 238
f 238 230 237
f 237 230 231
f 237 231 236
f 236 231 232
f 236 232 235
f 235 232 233
f 235 233 234
f 239 240 248
f 248 240 247
f 247 240 241
f 247 241 246
f 246 241 242
f 246 242 245
f 245 242 243
f 245 243 244
f 249 250 254
f 254 250 253
f 253 250 251
f 253 251 252
f 255 256 264
f 264 256 263
f 263 256 257
f 263 257 262
f 262 257 258
f 262 258 261
f 261 258 259
f 261 259 260
f 265 266 270
f 270 266 269
f 269 266 267
f 269 267 268
f 271 272 280
f 280 272 279
f 279 272 273
f 279 273 278
f 278 273 274
f 278 274 277
f 277 274 275
f 277 275 276
f 281 282 290
f 290 282 289
f 289 282 283
f 289 283 288
f 288 283 284
f 288 284 287
f 287 284 285
f 287 285 286
f 291 292 300
f 300 292 299
f 299 292 293
f 299 293 298
f 298 293 294
f 298 294 297
f 297 294 295
f 297 295 296
f 301 302 310
f 310 302 309
f 309 302 303
f 309 303 308
f 308 303 304
f 308 304 307
f 307 304 305
f 307 305 306
f 311 312 316
f 316 312 315
f 315 312 313
f 315 313 314
f 317 318 326
f 326 318 325
f 325 318 319
f 325 319 324
f 324 319 320
f 324 320 323
f 323 320 321
f 323 321 322
f 327 328 336
f 336 328 335
f 335 328 329
f 335 329 334
f 334 329 330
f 334 330 333
f 333 330 331
f 333 331 332
