v 0.10221249 0.10272838 9.9999998e-05
v 0.10256288 0.10291117 9.9999998e-05
v 0.10281105 0.1031575 9.9999998e-05
v 0.10281105 0.1031575 0.000125
v 0.10256288 0.10291117 0.000125
v 0.10221249 0.10272838 0.000125
v 0.10296944 0.10220532 9.9999998e-05
v 0.10265036 0.10251657 9.9999998e-05
v 0.10221249 0.10272838 9.9999998e-05
v 0.10221249 0.10272838 0.000125
v 0.10265036 0.10251657 0.000125
v 0.10296944 0.10220532 0.000125
v 0.10281105 0.1031575 9.9999998e-05
v 0.10295885 0.10346001 9.9999998e-05
v 0.10300812 0.10381132 9.9999998e-05
v 0.10300812 0.10381132 0.000125
v 0.10295885 0.10346001 0.000125
v 0.10281105 0.1031575 0.000125
v 0.10322912 0.10134338 9.9999998e-05
v 0.10316421 0.10180935 9.9999998e-05
v 0.10296944 0.10220532 9.9999998e-05
v 0.10296944 0.10220532 0.000125
v 0.10316421 0.10180935 0.000125
v 0.10322912 0.10134338 0.000125
v 0.10300812 0.10381132 9.9999998e-05
v 0.10290037 0.10435602 9.9999998e-05
v 0.10257715 0.10481139 9.9999998e-05
v 0.10257715 0.10481139 0.000125
v 0.10290037 0.10435602 0.000125
v 0.10300812 0.10381132 0.000125
v 0.10273922 0.1001794 9.9999998e-05
v 0.10310665 0.10070614 9.9999998e-05
v 0.10322912 0.10134338 9.9999998e-05
v 0.10322912 0.10134338 0.000125
v 0.10310665 0.10070614 0.000125
v 0.10273922 0.1001794 0.000125
v 0.10257715 0.10481139 9.9999998e-05
v 0.10207711 0.10511942 9.9999998e-05
v 0.10143895 0.1052221 9.9999998e-05
v 0.10143895 0.1052221 0.000125
v 0.10207711 0.10511942 0.000125
v 0.10257715 0.10481139 0.000125
v 0.10145 0.099707909 9.9999998e-05
v 0.10217196 0.099825783 9.9999998e-05
v 0.10273922 0.1001794 9.9999998e-05
v 0.10273922 0.1001794 0.000125
v 0.10217196 0.099825783 0.000125
v 0.10145 0.099707909 0.000125
v 0.10143895 0.1052221 9.9999998e-05
v 0.10080539 0.10512173 9.9999998e-05
v 0.1003118 0.1048206 9.9999998e-05
v 0.1003118 0.1048206 0.000125
v 0.10080539 0.10512173 0.000125
v 0.10143895 0.1052221 0.000125
v 0.10016078 0.10018125 9.9999998e-05
v 0.10072803 0.099826241 9.9999998e-05
v 0.10145 0.099707909 9.9999998e-05
v 0.10145 0.099707909 0.000125
v 0.10072803 0.099826241 0.000125
v 0.10016078 0.10018125 0.000125
v 0.1003118 0.1048206 9.9999998e-05
v 0.099994097 0.10437214 9.9999998e-05
v 0.099888201 0.10382974 9.9999998e-05
v 0.099888201 0.10382974 0.000125
v 0.099994097 0.10437214 0.000125
v 0.1003118 0.1048206 0.000125
v 0.099670877 0.1013618 9.9999998e-05
v 0.099793348 0.10071304 9.9999998e-05
v 0.10016078 0.10018125 9.9999998e-05
v 0.10016078 0.10018125 0.000125
v 0.099793348 0.10071304 0.000125
v 0.099670877 0.1013618 0.000125
v 0.099888201 0.10382974 9.9999998e-05
v 0.099937925 0.10346692 9.9999998e-05
v 0.10008711 0.10315934 9.9999998e-05
v 0.10008711 0.10315934 0.000125
v 0.099937925 0.10346692 0.000125
v 0.099888201 0.10382974 0.000125
v 0.10081644 0.10443383 9.9999998e-05
v 0.10109915 0.10461617 9.9999998e-05
v 0.10144631 0.10467694 9.9999998e-05
v 0.10144631 0.10467694 0.000125
v 0.10109915 0.10461617 0.000125
v 0.10081644 0.10443383 0.000125
v 0.10144631 0.10467694 9.9999998e-05
v 0.10179118 0.10461478 9.9999998e-05
v 0.10207436 0.10442831 9.9999998e-05
v 0.10207436 0.10442831 0.000125
v 0.10179118 0.10461478 0.000125
v 0.10144631 0.10467694 0.000125
v 0.099937925 0.102244 9.9999998e-05
v 0.099737635 0.10184572 9.9999998e-05
v 0.099670877 0.1013618 9.9999998e-05
v 0.099670877 0.1013618 0.000125
v 0.099737635 0.10184572 0.000125
v 0.099937925 0.102244 0.000125
v 0.10008711 0.10315934 9.9999998e-05
v 0.10033942 0.10291163 9.9999998e-05
v 0.10069857 0.10272838 9.9999998e-05
v 0.10069857 0.10272838 0.000125
v 0.10033942 0.10291163 0.000125
v 0.10008711 0.10315934 0.000125
v 0.10056596 0.10385184 9.9999998e-05
v 0.10062858 0.10416678 9.9999998e-05
v 0.10081644 0.10443383 9.9999998e-05
v 0.10081644 0.10443383 0.000125
v 0.10062858 0.10416678 0.000125
v 0.10056596 0.10385184 0.000125
v 0.10207436 0.10442831 9.9999998e-05
v 0.10226359 0.10415067 9.9999998e-05
v 0.10232667 0.103815 9.9999998e-05
v 0.10232667 0.103815 0.000125
v 0.10226359 0.10415067 0.000125
v 0.10207436 0.10442831 0.000125
v 0.10069857 0.10272838 9.9999998e-05
v 0.10026161 0.10254282 9.9999998e-05
v 0.099937925 0.102244 9.9999998e-05
v 0.099937925 0.102244 0.000125
v 0.10026161 0.10254282 0.000125
v 0.10069857 0.10272838 0.000125
v 0.10232667 0.103815 9.9999998e-05
v 0.10226543 0.10349224 9.9999998e-05
v 0.10208172 0.10322381 9.9999998e-05
v 0.10208172 0.10322381 0.000125
v 0.10226543 0.10349224 0.000125
v 0.10232667 0.103815 0.000125
v 0.10208172 0.10322381 9.9999998e-05
v 0.10180223 0.10304285 9.9999998e-05
v 0.10145369 0.10298254 9.9999998e-05
v 0.10145369 0.10298254 0.000125
v 0.10180223 0.10304285 0.000125
v 0.10208172 0.10322381 0.000125
v 0.10145369 0.10298254 9.9999998e-05
v 0.10109638 0.10304332 9.9999998e-05
v 0.10081276 0.10322565 9.9999998e-05
v 0.10081276 0.10322565 0.000125
v 0.10109638 0.10304332 0.000125
v 0.10145369 0.10298254 0.000125
v 0.10081276 0.10322565 9.9999998e-05
v 0.10062766 0.10350375 9.9999998e-05
v 0.10056596 0.10385184 9.9999998e-05
v 0.10056596 0.10385184 0.000125
v 0.10062766 0.10350375 0.000125
v 0.10081276 0.10322565 0.000125
v 0.10069857 0.10272838 0.000125
v 0.10026161 0.10254282 0.000125
v 0.099937925 0.102244 0.000125
v 0.099737635 0.10184572 0.000125
v 0.099670877 0.1013618 0.000125
v 0.099793348 0.10071304 0.000125
v 0.10016078 0.10018125 0.000125
v 0.10072803 0.099826241 0.000125
v 0.10145 0.099707909 0.000125
v 0.10217196 0.099825783 0.000125
v 0.10273922 0.1001794 0.000125
v 0.10310665 0.10070614 0.000125
v 0.10322912 0.10134338 0.000125
v 0.10316421 0.10180935 0.000125
v 0.10296944 0.10220532 0.000125
v 0.10265036 0.10251657 0.000125
v 0.10221249 0.10272838 0.000125
v 0.10256288 0.10291117 0.000125
v 0.10281105 0.1031575 0.000125
v 0.10295885 0.10346001 0.000125
v 0.10300812 0.10381132 0.000125
v 0.10290037 0.10435602 0.000125
v 0.10257715 0.10481139 0.000125
v 0.10207711 0.10511942 0.000125
v 0.10143895 0.1052221 0.000125
v 0.10080539 0.10512173 0.000125
v 0.1003118 0.1048206 0.000125
v 0.099994097 0.10437214 0.000125
v 0.099888201 0.10382974 0.000125
v 0.099937925 0.10346692 0.000125
v 0.10008711 0.10315934 0.000125
v 0.10033942 0.10291163 0.000125
v 0.10056596 0.10385184 0.000125
v 0.10062858 0.10416678 0.000125
v 0.10081644 0.10443383 0.000125
v 0.10109915 0.10461617 0.000125
v 0.10144631 0.10467694 0.000125
v 0.10179118 0.10461478 0.000125
v 0.10207436 0.10442831 0.000125
v 0.10226359 0.10415067 0.000125
v 0.10232667 0.103815 0.000125
v 0.10226543 0.10349224 0.000125
v 0.10208172 0.10322381 0.000125
v 0.10180223 0.10304285 0.000125
v 0.10145369 0.10298254 0.000125
v 0.10109638 0.10304332 0.000125
v 0.10081276 0.10322565 0.000125
v 0.10062766 0.10350375 0.000125
v 0.10035232 0.10135812 0.000125
v 0.10042921 0.10178356 0.000125
v 0.10065989 0.10213165 0.000125
v 0.10100752 0.10236371 0.000125
v 0.10143527 0.10244106 0.000125
v 0.10187407 0.10236279 0.000125
v 0.10223274 0.10212797 0.000125
v 0.1024717 0.10177343 0.000125
v 0.10255136 0.10133601 0.000125
v 0.10247401 0.10090597 0.000125
v 0.10224195 0.1005588 0.000125
v 0.1018911 0.1003295 0.000125
v 0.10145737 0.10025307 0.000125
v 0.10088642 0.10039857 0.000125
v 0.10048676 0.10080928 0.000125
v 0.10065989 0.10213165 9.9999998e-05
v 0.10100752 0.10236371 9.9999998e-05
v 0.10143527 0.10244106 9.9999998e-05
v 0.10143527 0.10244106 0.000125
v 0.10100752 0.10236371 0.000125
v 0.10065989 0.10213165 0.000125
v 0.10035232 0.10135812 9.9999998e-05
v 0.10042921 0.10178356 9.9999998e-05
v 0.10065989 0.10213165 9.9999998e-05
v 0.10065989 0.10213165 0.000125
v 0.10042921 0.10178356 0.000125
v 0.10035232 0.10135812 0.000125
v 0.10143527 0.10244106 9.9999998e-05
v 0.10187407 0.10236279 9.9999998e-05
v 0.10223274 0.10212797 9.9999998e-05
v 0.10223274 0.10212797 0.000125
v 0.10187407 0.10236279 0.000125
v 0.10143527 0.10244106 0.000125
v 0.099937925 0.102244 9.9999998e-05
v 0.10026161 0.10254282 9.9999998e-05
v 0.10069857 0.10272838 9.9999998e-05
v 0.10033942 0.10291163 9.9999998e-05
v 0.10008711 0.10315934 9.9999998e-05
v 0.099937925 0.10346692 9.9999998e-05
v 0.099888201 0.10382974 9.9999998e-05
v 0.099994097 0.10437214 9.9999998e-05
v 0.1003118 0.1048206 9.9999998e-05
v 0.10080539 0.10512173 9.9999998e-05
v 0.10143895 0.1052221 9.9999998e-05
v 0.10207711 0.10511942 9.9999998e-05
v 0.10257715 0.10481139 9.9999998e-05
v 0.10290037 0.10435602 9.9999998e-05
v 0.10300812 0.10381132 9.9999998e-05
v 0.10295885 0.10346001 9.9999998e-05
v 0.10281105 0.1031575 9.9999998e-05
v 0.10256288 0.10291117 9.9999998e-05
v 0.10221249 0.10272838 9.9999998e-05
v 0.10265036 0.10251657 9.9999998e-05
v 0.10296944 0.10220532 9.9999998e-05
v 0.10316421 0.10180935 9.9999998e-05
v 0.10322912 0.10134338 9.9999998e-05
v 0.10310665 0.10070614 9.9999998e-05
v 0.10273922 0.1001794 9.9999998e-05
v 0.10217196 0.099825783 9.9999998e-05
v 0.10145 0.099707909 9.9999998e-05
v 0.10072803 0.099826241 9.9999998e-05
v 0.10016078 0.10018125 9.9999998e-05
v 0.099793348 0.10071304 9.9999998e-05
v 0.099670877 0.1013618 9.9999998e-05
v 0.099737635 0.10184572 9.9999998e-05
v 0.10081644 0.10443383 9.9999998e-05
v 0.10062858 0.10416678 9.9999998e-05
v 0.10056596 0.10385184 9.9999998e-05
v 0.10062766 0.10350375 9.9999998e-05
v 0.10081276 0.10322565 9.9999998e-05
v 0.10109638 0.10304332 9.9999998e-05
v 0.10145369 0.10298254 9.9999998e-05
v 0.10180223 0.10304285 9.9999998e-05
v 0.10208172 0.10322381 9.9999998e-05
v 0.10226543 0.10349224 9.9999998e-05
v 0.10232667 0.103815 9.9999998e-05
v 0.10226359 0.10415067 9.9999998e-05
v 0.10207436 0.10442831 9.9999998e-05
v 0.10179118 0.10461478 9.9999998e-05
v 0.10144631 0.10467694 9.9999998e-05
v 0.10109915 0.10461617 9.9999998e-05
v 0.10065989 0.10213165 9.9999998e-05
v 0.10042921 0.10178356 9.9999998e-05
v 0.10035232 0.10135812 9.9999998e-05
v 0.10048676 0.10080928 9.9999998e-05
v 0.10088642 0.10039857 9.9999998e-05
v 0.10145737 0.10025307 9.9999998e-05
v 0.1018911 0.1003295 9.9999998e-05
v 0.10224195 0.1005588 9.9999998e-05
v 0.10247401 0.10090597 9.9999998e-05
v 0.10255136 0.10133601 9.9999998e-05
v 0.1024717 0.10177343 9.9999998e-05
v 0.10223274 0.10212797 9.9999998e-05
v 0.10187407 0.10236279 9.9999998e-05
v 0.10143527 0.10244106 9.9999998e-05
v 0.10100752 0.10236371 9.9999998e-05
v 0.10223274 0.10212797 9.9999998e-05
v 0.1024717 0.10177343 9.9999998e-05
v 0.10255136 0.10133601 9.9999998e-05
v 0.10255136 0.10133601 0.000125
v 0.1024717 0.10177343 0.000125
v 0.10223274 0.10212797 0.000125
v 0.10255136 0.10133601 9.9999998e-05
v 0.10247401 0.10090597 9.9999998e-05
v 0.10224195 0.1005588 9.9999998e-05
v 0.10224195 0.1005588 0.000125
v 0.10247401 0.10090597 0.000125
v 0.10255136 0.10133601 0.000125
v 0.10224195 0.1005588 9.9999998e-05
v 0.1018911 0.1003295 9.9999998e-05
v 0.10145737 0.10025307 9.9999998e-05
v 0.10145737 0.10025307 0.000125
v 0.1018911 0.1003295 0.000125
v 0.10224195 0.1005588 0.000125
v 0.10145737 0.10025307 9.9999998e-05
v 0.10088642 0.10039857 9.9999998e-05
v 0.10088642 0.10039857 0.000125
v 0.10145737 0.10025307 0.000125
v 0.10088642 0.10039857 9.9999998e-05
v 0.10048676 0.10080928 9.9999998e-05
v 0.10048676 0.10080928 0.000125
v 0.10088642 0.10039857 0.000125
v 0.10048676 0.10080928 9.9999998e-05
v 0.10035232 0.10135812 9.9999998e-05
v 0.10035232 0.10135812 0.000125
v 0.10048676 0.10080928 0.000125
f 1 2 6
f 6 2 5
f 5 2 3
f 5 3 4
f 7 8 12
f 12 8 11
f 11 8 9
f 11 9 10
f 13 14 18
f 18 14 17
f 17 14 15
f 17 15 16
f 19 20 24
f 24 20 23
f 23 20 21
f 23 21 22
f 25 26 30
f 30 26 29
f 29 26 27
f 29 27 28
f 31 32 36
f 36 32 35
f 35 32 33
f 35 33 34
f 37 38 42
f 42 38 41
f 41 38 39
f 41 39 40
f 43 44 48
f 48 44 47
f 47 44 45
f 47 45 46
f 49 50 54
f 54 50 53
f 53 50 51
f 53 51 52
f 55 56 60
f 60 56 59
f 59 56 57
f 59 57 58
f 61 62 66
f 66 62 65
f 65 62 63
f 65 63 64
f 67 68 72
f 72 68 71
f 71 68 69
f 71 69 70
f 73 74 78
f 78 74 77
f 77 74 75
f 77 75 76
f 79 80 84
f 84 80 83
f 83 80 81
f 83 81 82
f 85 86 90
f 90 86 89
f 89 86 87
f 89 87 88
f 91 92 96
f 96 92 95
f 95 92 93
f 95 93 94
f 97 98 102
f 102 98 101
f 101 98 99
f 101 99 100
f 103 104 108
f 108 104 107
f 107 104 105
f 107 105 106
f 109 110 114
f 114 110 113
f 113 110 111
f 113 111 112
f 115 116 120
f 120 116 119
f 119 116 117
f 119 117 118
f 121 122 126
f 126 122 125
f 125 122 123
f 125 123 124
f 127 128 132
f 132 128 131
f 131 128 129
f 131 129 130
f 133 134 138
f 138 134 137
f 137 134 135
f 137 135 136
f 139 140 144
f 144 140 143
f 143 140 141
f 143 141 142
f 146 195 145
f 145 195 196
f 145 196 190
f 190 196 197
f 190 197 189
f 189 197 198
f 189 198 188
f 188 198 161
f 188 161 187
f 187 161 162
f 187 162 186
f 186 162 163
f 186 163 185
f 185 163 164
f 185 164 165
f 195 146 194
f 194 146 147
f 194 147 148
f 194 148 193
f 193 148 149
f 193 149 150
f 193 150 207
f 207 150 151
f 207 151 206
f 206 151 152
f 206 152 153
f 154 204 153
f 153 204 205
f 153 205 206
f 204 154 203
f 203 154 155
f 203 155 202
f 202 155 156
f 202 156 201
f 201 156 157
f 201 157 158
f 201 158 200
f 200 158 159
f 200 159 160
f 200 160 199
f 199 160 161
f 199 161 198
f 165 166 185
f 185 166 184
f 184 166 167
f 184 167 183
f 183 167 168
f 183 168 182
f 182 168 169
f 182 169 181
f 181 169 180
f 180 169 170
f 180 170 179
f 179 170 171
f 179 171 178
f 178 171 172
f 178 172 177
f 177 172 173
f 177 173 174
f 174 175 177
f 177 175 192
f 192 175 176
f 192 176 191
f 191 176 145
f 191 145 190
f 208 209 213
f 213 209 212
f 212 209 210
f 212 210 211
f 214 215 219
f 219 215 218
f 218 215 216
f 218 216 217
f 220 221 225
f 225 221 224
f 224 221 222
f 224 222 223
f 257 226 275
f 275 226 227
f 275 227 274
f 274 227 228
f 274 228 288
f 288 228 263
f 288 263 287
f 287 263 264
f 287 264 286
f 286 264 265
f 286 265 244
f 244 265 266
f 244 266 243
f 243 266 267
f 243 267 242
f 242 267 268
f 242 268 241
f 241 268 240
f 240 268 239
f 239 268 269
f 239 269 238
f 238 269 270
f 238 270 237
f 237 270 271
f 237 271 236
f 236 271 272
f 236 272 273
f 263 228 262
f 262 228 229
f 262 229 261
f 261 229 230
f 261 230 260
f 260 230 231
f 260 231 232
f 232 233 260
f 260 233 259
f 259 233 234
f 259 234 258
f 258 234 235
f 258 235 273
f 273 235 236
f 286 244 285
f 285 244 245
f 285 245 284
f 284 245 246
f 284 246 247
f 284 247 283
f 283 247 248
f 283 248 249
f 283 249 282
f 282 249 250
f 282 250 281
f 281 250 251
f 281 251 280
f 280 251 252
f 280 252 279
f 279 252 278
f 278 252 253
f 278 253 254
f 278 254 277
f 277 254 255
f 277 255 276
f 276 255 256
f 276 256 257
f 276 257 275
f 289 290 294
f 294 290 293
f 293 290 291
f 293 291 292
f 295 296 300
f 300 296 299
f 299 296 297
f 299 297 298
f 301 302 306
f 306 302 305
f 305 302 303
f 305 303 304
f 307 308 310
f 310 308 309
f 311 312 314
f 314 312 313
f 315 316 318
f 318 316 317
