v 0.058166437 -0.29870001 0.22221964
v 0.058704638 -0.29870001 0.2222859
v 0.059046383 -0.29870001 0.22248465
v 0.059046383 -0.29882 0.22248465
v 0.058704638 -0.29882 0.2222859
v 0.058166437 -0.29882 0.22221964
v 0.059046383 -0.29870001 0.22248465
v 0.059229026 -0.29870001 0.22277908
v 0.059289904 -0.29870001 0.22313232
v 0.059289904 -0.29882 0.22313232
v 0.059229026 -0.29882 0.22277908
v 0.059046383 -0.29882 0.22248465
v 0.057396998 -0.29870001 0.22221964
v 0.058166437 -0.29870001 0.22221964
v 0.058166437 -0.29882 0.22221964
v 0.057396998 -0.29882 0.22221964
v 0.059289904 -0.29870001 0.22313232
v 0.059198842 -0.29870001 0.2235416
v 0.059198842 -0.29882 0.2235416
v 0.059289904 -0.29882 0.22313232
v 0.057396998 -0.29870001 0.221
v 0.057396998 -0.29870001 0.22221964
v 0.057396998 -0.29882 0.22221964
v 0.057396998 -0.29882 0.221
v 0.059198842 -0.29870001 0.2235416
v 0.058958392 -0.29870001 0.22383118
v 0.058958392 -0.29882 0.22383118
v 0.059198842 -0.29882 0.2235416
v 0.056999998 -0.29870001 0.221
v 0.057396998 -0.29870001 0.221
v 0.057396998 -0.29882 0.221
v 0.056999998 -0.29882 0.221
v 0.058958392 -0.29870001 0.22383118
v 0.058587995 -0.29870001 0.22397135
v 0.058587995 -0.29882 0.22397135
v 0.058958392 -0.29882 0.22383118
v 0.058587995 -0.29870001 0.22397135
v 0.058131652 -0.29870001 0.224
v 0.058131652 -0.29882 0.224
v 0.058587995 -0.29882 0.22397135
v 0.058131652 -0.29870001 0.224
v 0.056999998 -0.29870001 0.224
v 0.056999998 -0.29882 0.224
v 0.058131652 -0.29882 0.224
v 0.056999998 -0.29870001 0.224
v 0.056999998 -0.29870001 0.221
v 0.056999998 -0.29882 0.221
v 0.056999998 -0.29882 0.224
v 0.056999998 -0.29882 0.221
v 0.057396998 -0.29882 0.221
v 0.057396998 -0.29882 0.22221964
v 0.058166437 -0.29882 0.22221964
v 0.058704638 -0.29882 0.2222859
v 0.059046383 -0.29882 0.22248465
v 0.059229026 -0.29882 0.22277908
v 0.059289904 -0.29882 0.22313232
v 0.059198842 -0.29882 0.2235416
v 0.058958392 -0.29882 0.22383118
v 0.058587995 -0.29882 0.22397135
v 0.058131652 -0.29882 0.224
v 0.056999998 -0.29882 0.224
v 0.057396998 -0.29882 0.22257366
v 0.057396998 -0.29882 0.22364597
v 0.058164392 -0.29882 0.22364597
v 0.058534789 -0.29882 0.22361937
v 0.058785472 -0.29882 0.22344236
v 0.05888063 -0.29882 0.22312006
v 0.058718963 -0.29882 0.22271692
v 0.058501534 -0.29882 0.22260948
v 0.058172579 -0.29882 0.22257366
v 0.057396998 -0.29870001 0.22257366
v 0.057396998 -0.29870001 0.22364597
v 0.057396998 -0.29882 0.22364597
v 0.057396998 -0.29882 0.22257366
v 0.057396998 -0.29870001 0.22364597
v 0.058164392 -0.29870001 0.22364597
v 0.058164392 -0.29882 0.22364597
v 0.057396998 -0.29882 0.22364597
v 0.057396998 -0.29870001 0.221
v 0.056999998 -0.29870001 0.221
v 0.056999998 -0.29870001 0.224
v 0.058131652 -0.29870001 0.224
v 0.058587995 -0.29870001 0.22397135
v 0.058958392 -0.29870001 0.22383118
v 0.059198842 -0.29870001 0.2235416
v 0.059289904 -0.29870001 0.22313232
v 0.059229026 -0.29870001 0.22277908
v 0.059046383 -0.29870001 0.22248465
v 0.058704638 -0.29870001 0.2222859
v 0.058166437 -0.29870001 0.22221964
v 0.057396998 -0.29870001 0.22221964
v 0.057396998 -0.29870001 0.22364597
v 0.057396998 -0.29870001 0.22257366
v 0.058172579 -0.29870001 0.22257366
v 0.058501534 -0.29870001 0.22260948
v 0.058718963 -0.29870001 0.22271692
v 0.05888063 -0.29870001 0.22312006
v 0.058785472 -0.29870001 0.22344236
v 0.058534789 -0.29870001 0.22361937
v 0.058164392 -0.29870001 0.22364597
v 0.058164392 -0.29870001 0.22364597
v 0.058534789 -0.29870001 0.22361937
v 0.058534789 -0.29882 0.22361937
v 0.058164392 -0.29882 0.22364597
v 0.058534789 -0.29870001 0.22361937
v 0.058785472 -0.29870001 0.22344236
v 0.058785472 -0.29882 0.22344236
v 0.058534789 -0.29882 0.22361937
v 0.058785472 -0.29870001 0.22344236
v 0.05888063 -0.29870001 0.22312006
v 0.05888063 -0.29882 0.22312006
v 0.058785472 -0.29882 0.22344236
v 0.05888063 -0.29870001 0.22312006
v 0.058718963 -0.29870001 0.22271692
v 0.058718963 -0.29882 0.22271692
v 0.05888063 -0.29882 0.22312006
v 0.058718963 -0.29870001 0.22271692
v 0.058501534 -0.29870001 0.22260948
v 0.058172579 -0.29870001 0.22257366
v 0.058172579 -0.29882 0.22257366
v 0.058501534 -0.29882 0.22260948
v 0.058718963 -0.29882 0.22271692
v 0.058172579 -0.29870001 0.22257366
v 0.057396998 -0.29870001 0.22257366
v 0.057396998 -0.29882 0.22257366
v 0.058172579 -0.29882 0.22257366
f 1 2 6
f 6 2 5
f 5 2 3
f 5 3 4
f 7 8 12
f 12 8 11
f 11 8 9
f 11 9 10
f 13 14 16
f 16 14 15
f 17 18 20
f 20 18 19
f 21 22 24
f 24 22 23
f 25 26 28
f 28 26 27
f 29 30 32
f 32 30 31
f 33 34 36
f 36 34 35
f 37 38 40
f 40 38 39
f 41 42 44
f 44 42 43
f 45 46 48
f 48 46 47
f 50 51 49
f 49 51 62
f 49 62 61
f 61 62 63
f 61 63 60
f 60 63 64
f 60 64 59
f 59 64 65
f 59 65 58
f 58 65 66
f 58 66 57
f 57 66 67
f 57 67 56
f 56 67 55
f 55 67 54
f 54 67 68
f 54 68 53
f 53 68 69
f 53 69 52
f 52 69 70
f 52 70 62
f 51 52 62
f 71 72 74
f 74 72 73
f 75 76 78
f 78 76 77
f 79 80 91
f 91 80 93
f 91 93 90
f 90 93 94
f 90 94 95
f 80 81 93
f 93 81 92
f 92 81 82
f 92 82 100
f 100 82 83
f 100 83 99
f 99 83 84
f 99 84 98
f 98 84 85
f 98 85 97
f 97 85 86
f 97 86 87
f 87 88 97
f 97 88 96
f 96 88 89
f 96 89 95
f 95 89 90
f 101 102 104
f 104 102 103
f 105 106 108
f 108 106 107
f 109 110 112
f 112 110 111
f 113 114 116
f 116 114 115
f 117 118 122
f 122 118 121
f 121 118 119
f 121 119 120
f 123 124 126
f 126 124 125
