v 0.04736835 -0.2966 0.1104011
v 0.047583899 -0.2966 0.11147613
v 0.047583899 -0.29672001 0.11147613
v 0.04736835 -0.29672001 0.1104011
v 0.048124146 -0.2966 0.11065211
v 0.047737379 -0.2966 0.11058936
v 0.04736835 -0.2966 0.1104011
v 0.04736835 -0.29672001 0.1104011
v 0.047737379 -0.29672001 0.11058936
v 0.048124146 -0.29672001 0.11065211
v 0.047583899 -0.2966 0.11147613
v 0.049180083 -0.2966 0.11147613
v 0.049180083 -0.29672001 0.11147613
v 0.047583899 -0.29672001 0.11147613
v 0.049008183 -0.2966 0.11028922
v 0.048607092 -0.2966 0.11056139
v 0.048124146 -0.2966 0.11065211
v 0.048124146 -0.29672001 0.11065211
v 0.048607092 -0.29672001 0.11056139
v 0.049008183 -0.29672001 0.11028922
v 0.049180083 -0.2966 0.11147613
v 0.049180083 -0.2966 0.11194543
v 0.049180083 -0.29672001 0.11194543
v 0.049180083 -0.29672001 0.11147613
v 0.049368348 -0.2966 0.10935607
v 0.049278307 -0.2966 0.10987449
v 0.049008183 -0.2966 0.11028922
v 0.049008183 -0.29672001 0.11028922
v 0.049278307 -0.29672001 0.10987449
v 0.049368348 -0.29672001 0.10935607
v 0.049180083 -0.2966 0.11194543
v 0.047190995 -0.2966 0.11194543
v 0.047190995 -0.29672001 0.11194543
v 0.049180083 -0.29672001 0.11194543
v 0.049051843 -0.2966 0.10841746
v 0.049289222 -0.2966 0.10884994
v 0.049368348 -0.2966 0.10935607
v 0.049368348 -0.29672001 0.10935607
v 0.049289222 -0.29672001 0.10884994
v 0.049051843 -0.29672001 0.10841746
v 0.047190995 -0.2966 0.11194543
v 0.046803546 -0.2966 0.10989086
v 0.046803546 -0.29672001 0.10989086
v 0.047190995 -0.29672001 0.11194543
v 0.048001366 -0.2966 0.10793179
v 0.048596864 -0.2966 0.10805321
v 0.049051843 -0.2966 0.10841746
v 0.049051843 -0.29672001 0.10841746
v 0.048596864 -0.29672001 0.10805321
v 0.048001366 -0.29672001 0.10793179
v 0.046803546 -0.2966 0.10989086
v 0.047264667 -0.2966 0.10983083
v 0.047264667 -0.29672001 0.10983083
v 0.046803546 -0.29672001 0.10989086
v 0.047110505 -0.2966 0.10823738
v 0.047505798 -0.2966 0.10800818
v 0.048001366 -0.2966 0.10793179
v 0.048001366 -0.29672001 0.10793179
v 0.047505798 -0.29672001 0.10800818
v 0.047110505 -0.29672001 0.10823738
v 0.047264667 -0.2966 0.10983083
v 0.047564802 -0.2966 0.1101105
v 0.047564802 -0.29672001 0.1101105
v 0.047264667 -0.29672001 0.10983083
v 0.046716232 -0.29672001 0.10904775
v 0.046839356 -0.29672001 0.10859277
v 0.047110505 -0.29672001 0.10823738
v 0.047505798 -0.29672001 0.10800818
v 0.048001366 -0.29672001 0.10793179
v 0.048596864 -0.29672001 0.10805321
v 0.049051843 -0.29672001 0.10841746
v 0.049289222 -0.29672001 0.10884994
v 0.049368348 -0.29672001 0.10935607
v 0.049278307 -0.29672001 0.10987449
v 0.049008183 -0.29672001 0.11028922
v 0.048607092 -0.29672001 0.11056139
v 0.048124146 -0.29672001 0.11065211
v 0.047737379 -0.29672001 0.11058936
v 0.04736835 -0.29672001 0.1104011
v 0.047583899 -0.29672001 0.11147613
v 0.049180083 -0.29672001 0.11147613
v 0.049180083 -0.29672001 0.11194543
v 0.047190995 -0.29672001 0.11194543
v 0.046803546 -0.29672001 0.10989086
v 0.047264667 -0.29672001 0.10983083
v 0.047564802 -0.29672001 0.1101105
v 0.047993178 -0.29672001 0.11021828
v 0.048338675 -0.29672001 0.11015758
v 0.048611188 -0.29672001 0.10997544
v 0.048788199 -0.29672001 0.10968826
v 0.048847203 -0.29672001 0.10931241
v 0.04878581 -0.29672001 0.10891405
v 0.048601637 -0.29672001 0.108603
v 0.048328786 -0.29672001 0.10840245
v 0.048001366 -0.29672001 0.10833561
v 0.047728171 -0.29672001 0.10838302
v 0.047497954 -0.29672001 0.10852524
v 0.04732708 -0.29672001 0.1087616
v 0.047231922 -0.29672001 0.10909141
v 0.047564802 -0.2966 0.1101105
v 0.047993178 -0.2966 0.11021828
v 0.047993178 -0.29672001 0.11021828
v 0.047564802 -0.29672001 0.1101105
v 0.046716232 -0.2966 0.10904775
v 0.046839356 -0.2966 0.10859277
v 0.047110505 -0.2966 0.10823738
v 0.047110505 -0.29672001 0.10823738
v 0.046839356 -0.29672001 0.10859277
v 0.046716232 -0.29672001 0.10904775
v 0.047993178 -0.2966 0.11021828
v 0.048338675 -0.2966 0.11015758
v 0.048611188 -0.2966 0.10997544
v 0.048611188 -0.29672001 0.10997544
v 0.048338675 -0.29672001 0.11015758
v 0.047993178 -0.29672001 0.11021828
v 0.047110505 -0.2966 0.10823738
v 0.046839356 -0.2966 0.10859277
v 0.046716232 -0.2966 0.10904775
v 0.047231922 -0.2966 0.10909141
v 0.04732708 -0.2966 0.1087616
v 0.047497954 -0.2966 0.10852524
v 0.047728171 -0.2966 0.10838302
v 0.048001366 -0.2966 0.10833561
v 0.048328786 -0.2966 0.10840245
v 0.048601637 -0.2966 0.108603
v 0.04878581 -0.2966 0.10891405
v 0.048847203 -0.2966 0.10931241
v 0.048788199 -0.2966 0.10968826
v 0.048611188 -0.2966 0.10997544
v 0.048338675 -0.2966 0.11015758
v 0.047993178 -0.2966 0.11021828
v 0.047564802 -0.2966 0.1101105
v 0.047264667 -0.2966 0.10983083
v 0.046803546 -0.2966 0.10989086
v 0.047190995 -0.2966 0.11194543
v 0.049180083 -0.2966 0.11194543
v 0.049180083 -0.2966 0.11147613
v 0.047583899 -0.2966 0.11147613
v 0.04736835 -0.2966 0.1104011
v 0.047737379 -0.2966 0.11058936
v 0.048124146 -0.2966 0.11065211
v 0.048607092 -0.2966 0.11056139
v 0.049008183 -0.2966 0.11028922
v 0.049278307 -0.2966 0.10987449
v 0.049368348 -0.2966 0.10935607
v 0.049289222 -0.2966 0.10884994
v 0.049051843 -0.2966 0.10841746
v 0.048596864 -0.2966 0.10805321
v 0.048001366 -0.2966 0.10793179
v 0.047505798 -0.2966 0.10800818
v 0.048611188 -0.2966 0.10997544
v 0.048788199 -0.2966 0.10968826
v 0.048847203 -0.2966 0.10931241
v 0.048847203 -0.29672001 0.10931241
v 0.048788199 -0.29672001 0.10968826
v 0.048611188 -0.29672001 0.10997544
v 0.048847203 -0.2966 0.10931241
v 0.04878581 -0.2966 0.10891405
v 0.048601637 -0.2966 0.108603
v 0.048601637 -0.29672001 0.108603
v 0.04878581 -0.29672001 0.10891405
v 0.048847203 -0.29672001 0.10931241
v 0.048601637 -0.2966 0.108603
v 0.048328786 -0.2966 0.10840245
v 0.048001366 -0.2966 0.10833561
v 0.048001366 -0.29672001 0.10833561
v 0.048328786 -0.29672001 0.10840245
v 0.048601637 -0.29672001 0.108603
v 0.048001366 -0.2966 0.10833561
v 0.047728171 -0.2966 0.10838302
v 0.047497954 -0.2966 0.10852524
v 0.047497954 -0.29672001 0.10852524
v 0.047728171 -0.29672001 0.10838302
v 0.048001366 -0.29672001 0.10833561
v 0.047497954 -0.2966 0.10852524
v 0.04732708 -0.2966 0.1087616
v 0.047231922 -0.2966 0.10909141
v 0.047231922 -0.29672001 0.10909141
v 0.04732708 -0.29672001 0.1087616
v 0.047497954 -0.29672001 0.10852524
v 0.047231922 -0.2966 0.10909141
v 0.046716232 -0.2966 0.10904775
v 0.046716232 -0.29672001 0.10904775
v 0.047231922 -0.29672001 0.10909141
f 1 2 4
f 4 2 3
f 5 6 10
f 10 6 9
f 9 6 7
f 9 7 8
f 11 12 14
f 14 12 13
f 15 16 20
f 20 16 19
f 19 16 17
f 19 17 18
f 21 22 24
f 24 22 23
f 25 26 30
f 30 26 29
f 29 26 27
f 29 27 28
f 31 32 34
f 34 32 33
f 35 36 40
f 40 36 39
f 39 36 37
f 39 37 38
f 41 42 44
f 44 42 43
f 45 46 50
f 50 46 49
f 49 46 47
f 49 47 48
f 51 52 54
f 54 52 53
f 55 56 60
f 60 56 59
f 59 56 57
f 59 57 58
f 61 62 64
f 64 62 63
f 65 66 99
f 99 66 98
f 98 66 67
f 98 67 97
f 97 67 68
f 97 68 96
f 96 68 69
f 96 69 95
f 95 69 94
f 94 69 70
f 94 70 93
f 93 70 71
f 93 71 92
f 92 71 72
f 92 72 91
f 91 72 73
f 91 73 74
f 91 74 90
f 90 74 75
f 90 75 89
f 89 75 76
f 89 76 88
f 88 76 77
f 88 77 87
f 87 77 78
f 87 78 86
f 86 78 79
f 86 79 85
f 85 79 84
f 84 79 83
f 83 79 80
f 83 80 82
f 82 80 81
f 100 101 103
f 103 101 102
f 104 105 109
f 109 105 108
f 108 105 106
f 108 106 107
f 110 111 115
f 115 111 114
f 114 111 112
f 114 112 113
f 117 120 116
f 116 120 121
f 116 121 150
f 150 121 122
f 150 122 149
f 149 122 123
f 149 123 124
f 118 119 117
f 117 119 120
f 149 124 148
f 148 124 125
f 148 125 147
f 147 125 126
f 147 126 146
f 146 126 127
f 146 127 145
f 145 127 144
f 144 127 128
f 144 128 143
f 143 128 129
f 143 129 142
f 142 129 130
f 142 130 141
f 141 130 131
f 141 131 140
f 140 131 132
f 140 132 139
f 139 132 133
f 139 133 134
f 134 135 139
f 139 135 138
f 138 135 136
f 138 136 137
f 151 152 156
f 156 152 155
f 155 152 153
f 155 153 154
f 157 158 162
f 162 158 161
f 161 158 159
f 161 159 160
f 163 164 168
f 168 164 167
f 167 164 165
f 167 165 166
f 169 170 174
f 174 170 173
f 173 170 171
f 173 171 172
f 175 176 180
f 180 176 179
f 179 176 177
f 179 177 178
f 181 182 184
f 184 182 183
