v -0.17700001 -0.147 0.32400002
v -0.17700001 -0.147 0.31299999
v -0.18299999 -0.147 0.31299999
v -0.18299999 -0.147 0.32400002
v -0.18299999 -0.153 0.32400002
v -0.17700001 -0.153 0.32400002
v -0.17700001 -0.147 0.32400002
v -0.18299999 -0.147 0.32400002
v -0.17700001 -0.153 0.32400002
v -0.17700001 -0.153 0.31299999
v -0.17700001 -0.147 0.31299999
v -0.17700001 -0.147 0.32400002
v -0.18299999 -0.153 0.32400002
v -0.18299999 -0.153 0.31299999
v -0.17700001 -0.153 0.31299999
v -0.17700001 -0.153 0.32400002
v -0.17700001 -0.153 0.31299999
v -0.18299999 -0.153 0.31299999
v -0.18299999 -0.147 0.31299999
v -0.17700001 -0.147 0.31299999
v -0.18299999 -0.147 0.32400002
v -0.18299999 -0.147 0.31299999
v -0.18299999 -0.153 0.31299999
v -0.18299999 -0.153 0.32400002
f 1 2 4
f 4 2 3
f 6 7 5
f 5 7 8
f 9 10 12
f 12 10 11
f 13 14 16
f 16 14 15
f 18 19 17
f 17 19 20
f 21 22 24
f 24 22 23
