v -0.176 0.239 0.24299999
v -0.176 0.29700001 0.24299999
v -0.144 0.29700001 0.24299999
v -0.144 0.239 0.24299999
v -0.176 0.29700001 0.28299999
v -0.176 0.239 0.28299999
v -0.144 0.239 0.28299999
v -0.144 0.29700001 0.28299999
v -0.176 0.29700001 0.24299999
v -0.176 0.239 0.24299999
v -0.176 0.239 0.28299999
v -0.176 0.29700001 0.28299999
v -0.176 0.29700001 0.26299999
v -0.176 0.26700001 0.26299999
v -0.176 0.29700001 0.26299999
v -0.176 0.239 0.24299999
v -0.144 0.239 0.24299999
v -0.144 0.239 0.28299999
v -0.176 0.239 0.28299999
v -0.144 0.239 0.24299999
v -0.144 0.29700001 0.24299999
v -0.144 0.29700001 0.26299999
v -0.144 0.26700001 0.26299999
v -0.144 0.29700001 0.26299999
v -0.144 0.29700001 0.28299999
v -0.144 0.239 0.28299999
v -0.176 0.26700001 0.26299999
v -0.17580301 0.26700001 0.26550295
v -0.1752169 0.26700001 0.26794428
v -0.1742561 0.26700001 0.27026384
v -0.17294428 0.26700001 0.27240456
v -0.17131371 0.26700001 0.27431372
v -0.16940456 0.26700001 0.27594427
v -0.16726385 0.26700001 0.27725611
v -0.16494427 0.26700001 0.2782169
v -0.16250296 0.26700001 0.27880301
v -0.16 0.26700001 0.279
v -0.15749705 0.26700001 0.27880301
v -0.15505573 0.26700001 0.2782169
v -0.15273615 0.26700001 0.27725611
v -0.15059544 0.26700001 0.27594427
v -0.14868629 0.26700001 0.27431372
v -0.14705573 0.26700001 0.27240456
v -0.14574389 0.26700001 0.27026384
v -0.1447831 0.26700001 0.26794428
v -0.14419699 0.26700001 0.26550295
v -0.144 0.26700001 0.26299999
v -0.14419699 0.26700001 0.26049706
v -0.1447831 0.26700001 0.25805573
v -0.14574389 0.26700001 0.25573616
v -0.14705573 0.26700001 0.25359543
v -0.14868629 0.26700001 0.25168629
v -0.15059544 0.26700001 0.25005573
v -0.15273615 0.26700001 0.2487439
v -0.15505573 0.26700001 0.24778309
v -0.15749705 0.26700001 0.24719698
v -0.16 0.26700001 0.24700001
v -0.16250296 0.26700001 0.24719698
v -0.16494427 0.26700001 0.24778309
v -0.16726385 0.26700001 0.2487439
v -0.16940456 0.26700001 0.25005573
v -0.17131371 0.26700001 0.25168629
v -0.17294428 0.26700001 0.25359543
v -0.1742561 0.26700001 0.25573616
v -0.1752169 0.26700001 0.25805573
v -0.17580301 0.26700001 0.26049706
v -0.176 0.29700001 0.26299999
v -0.176 0.26700001 0.26299999
v -0.17580301 0.26700001 0.26049706
v -0.1752169 0.26700001 0.25805573
v -0.1742561 0.26700001 0.25573616
v -0.17294428 0.26700001 0.25359543
v -0.17131371 0.26700001 0.25168629
v -0.16940456 0.26700001 0.25005573
v -0.16726385 0.26700001 0.2487439
v -0.16494427 0.26700001 0.24778309
v -0.16250296 0.26700001 0.24719698
v -0.16 0.26700001 0.24700001
v -0.15749705 0.26700001 0.24719698
v -0.15505573 0.26700001 0.24778309
v -0.15273615 0.26700001 0.2487439
v -0.15059544 0.26700001 0.25005573
v -0.14868629 0.26700001 0.25168629
v -0.14705573 0.26700001 0.25359543
v -0.14574389 0.26700001 0.25573616
v -0.1447831 0.26700001 0.25805573
v -0.14419699 0.26700001 0.26049706
v -0.144 0.26700001 0.26299999
v -0.144 0.29700001 0.26299999
v -0.14419699 0.29700001 0.26049706
v -0.1447831 0.29700001 0.25805573
v -0.14574389 0.29700001 0.25573616
v -0.14705573 0.29700001 0.25359543
v -0.14868629 0.29700001 0.25168629
v -0.15059544 0.29700001 0.25005573
v -0.15273615 0.29700001 0.2487439
v -0.15505573 0.29700001 0.24778309
v -0.15749705 0.29700001 0.24719698
v -0.16 0.29700001 0.24700001
v -0.16250296 0.29700001 0.24719698
v -0.16494427 0.29700001 0.24778309
v -0.16726385 0.29700001 0.2487439
v -0.16940456 0.29700001 0.25005573
v -0.17131371 0.29700001 0.25168629
v -0.17294428 0.29700001 0.25359543
v -0.1742561 0.29700001 0.25573616
v -0.1752169 0.29700001 0.25805573
v -0.17580301 0.29700001 0.26049706
v -0.176 0.26700001 0.26299999
v -0.176 0.29700001 0.26299999
v -0.17580301 0.29700001 0.26550295
v -0.1752169 0.29700001 0.26794428
v -0.1742561 0.29700001 0.27026384
v -0.17294428 0.29700001 0.27240456
v -0.17131371 0.29700001 0.27431372
v -0.16940456 0.29700001 0.27594427
v -0.16726385 0.29700001 0.27725611
v -0.16494427 0.29700001 0.2782169
v -0.16250296 0.29700001 0.27880301
v -0.16 0.29700001 0.279
v -0.15749705 0.29700001 0.27880301
v -0.15505573 0.29700001 0.2782169
v -0.15273615 0.29700001 0.27725611
v -0.15059544 0.29700001 0.27594427
v -0.14868629 0.29700001 0.27431372
v -0.14705573 0.29700001 0.27240456
v -0.14574389 0.29700001 0.27026384
v -0.1447831 0.29700001 0.26794428
v -0.14419699 0.29700001 0.26550295
v -0.144 0.29700001 0.26299999
v -0.144 0.26700001 0.26299999
v -0.14419699 0.26700001 0.26550295
v -0.1447831 0.26700001 0.26794428
v -0.14574389 0.26700001 0.27026384
v -0.14705573 0.26700001 0.27240456
v -0.14868629 0.26700001 0.27431372
v -0.15059544 0.26700001 0.27594427
v -0.15273615 0.26700001 0.27725611
v -0.15505573 0.26700001 0.2782169
v -0.15749705 0.26700001 0.27880301
v -0.16 0.26700001 0.279
v -0.16250296 0.26700001 0.27880301
v -0.16494427 0.26700001 0.2782169
v -0.16726385 0.26700001 0.27725611
v -0.16940456 0.26700001 0.27594427
v -0.17131371 0.26700001 0.27431372
v -0.17294428 0.26700001 0.27240456
v -0.1742561 0.26700001 0.27026384
v -0.1752169 0.26700001 0.26794428
v -0.17580301 0.26700001 0.26550295
v -0.144 0.29700001 0.26299999
v -0.14419699 0.29700001 0.26550295
v -0.1447831 0.29700001 0.26794428
v -0.14574389 0.29700001 0.27026384
v -0.14705573 0.29700001 0.27240456
v -0.14868629 0.29700001 0.27431372
v -0.15059544 0.29700001 0.27594427
v -0.15273615 0.29700001 0.27725611
v -0.15505573 0.29700001 0.2782169
v -0.15749705 0.29700001 0.27880301
v -0.16 0.29700001 0.279
v -0.16250296 0.29700001 0.27880301
v -0.16494427 0.29700001 0.2782169
v -0.16726385 0.29700001 0.27725611
v -0.16940456 0.29700001 0.27594427
v -0.17131371 0.29700001 0.27431372
v -0.17294428 0.29700001 0.27240456
v -0.1742561 0.29700001 0.27026384
v -0.1752169 0.29700001 0.26794428
v -0.17580301 0.29700001 0.26550295
v -0.176 0.29700001 0.26299999
v -0.176 0.29700001 0.28299999
v -0.144 0.29700001 0.28299999
v -0.176 0.29700001 0.26299999
v -0.17580301 0.29700001 0.26049706
v -0.1752169 0.29700001 0.25805573
v -0.1742561 0.29700001 0.25573616
v -0.17294428 0.29700001 0.25359543
v -0.17131371 0.29700001 0.25168629
v -0.16940456 0.29700001 0.25005573
v -0.16726385 0.29700001 0.2487439
v -0.16494427 0.29700001 0.24778309
v -0.16250296 0.29700001 0.24719698
v -0.16 0.29700001 0.24700001
v -0.15749705 0.29700001 0.24719698
v -0.15505573 0.29700001 0.24778309
v -0.15273615 0.29700001 0.2487439
v -0.15059544 0.29700001 0.25005573
v -0.14868629 0.29700001 0.25168629
v -0.14705573 0.29700001 0.25359543
v -0.14574389 0.29700001 0.25573616
v -0.1447831 0.29700001 0.25805573
v -0.14419699 0.29700001 0.26049706
v -0.144 0.29700001 0.26299999
v -0.144 0.29700001 0.24299999
v -0.176 0.29700001 0.24299999
f 2 3 1
f 1 3 4
f 6 7 5
f 5 7 8
f 15 9 14
f 14 9 10
f 14 10 11
f 11 12 14
f 14 12 13
f 16 17 19
f 19 17 18
f 26 20 23
f 23 20 21
f 23 21 22
f 24 25 23
f 23 25 26
f 28 46 27
f 27 46 47
f 27 47 66
f 66 47 48
f 66 48 65
f 65 48 49
f 65 49 64
f 64 49 50
f 64 50 63
f 63 50 51
f 63 51 62
f 62 51 52
f 62 52 61
f 61 52 53
f 61 53 60
f 60 53 54
f 60 54 59
f 59 54 55
f 59 55 58
f 58 55 56
f 58 56 57
f 46 28 45
f 45 28 29
f 45 29 44
f 44 29 30
f 44 30 43
f 43 30 31
f 43 31 42
f 42 31 32
f 42 32 41
f 41 32 33
f 41 33 40
f 40 33 34
f 40 34 39
f 39 34 35
f 39 35 38
f 38 35 36
f 38 36 37
f 67 68 108
f 108 68 69
f 108 69 107
f 107 69 70
f 107 70 106
f 106 70 71
f 106 71 105
f 105 71 72
f 105 72 104
f 104 72 73
f 104 73 103
f 103 73 74
f 103 74 102
f 102 74 75
f 102 75 101
f 101 75 76
f 101 76 100
f 100 76 77
f 100 77 99
f 99 77 78
f 99 78 98
f 98 78 79
f 98 79 97
f 97 79 80
f 97 80 96
f 96 80 81
f 96 81 95
f 95 81 82
f 95 82 94
f 94 82 83
f 94 83 93
f 93 83 84
f 93 84 92
f 92 84 85
f 92 85 91
f 91 85 86
f 91 86 90
f 90 86 87
f 90 87 89
f 89 87 88
f 109 110 150
f 150 110 111
f 150 111 149
f 149 111 112
f 149 112 148
f 148 112 113
f 148 113 147
f 147 113 114
f 147 114 146
f 146 114 115
f 146 115 145
f 145 115 116
f 145 116 144
f 144 116 117
f 144 117 143
f 143 117 118
f 143 118 142
f 142 118 119
f 142 119 141
f 141 119 120
f 141 120 140
f 140 120 121
f 140 121 139
f 139 121 122
f 139 122 138
f 138 122 123
f 138 123 137
f 137 123 124
f 137 124 136
f 136 124 125
f 136 125 135
f 135 125 126
f 135 126 134
f 134 126 127
f 134 127 133
f 133 127 128
f 133 128 132
f 132 128 129
f 132 129 131
f 131 129 130
f 151 152 173
f 173 152 153
f 173 153 154
f 154 155 173
f 173 155 156
f 173 156 157
f 157 158 173
f 173 158 159
f 173 159 160
f 160 161 173
f 173 161 172
f 172 161 162
f 172 162 163
f 163 164 172
f 172 164 165
f 172 165 166
f 166 167 172
f 172 167 168
f 172 168 169
f 169 170 172
f 172 170 171
f 174 175 196
f 196 175 176
f 196 176 177
f 177 178 196
f 196 178 179
f 196 179 180
f 180 181 196
f 196 181 182
f 196 182 183
f 183 184 196
f 196 184 195
f 195 184 185
f 195 185 186
f 186 187 195
f 195 187 188
f 195 188 189
f 189 190 195
f 195 190 191
f 195 191 192
f 192 193 195
f 195 193 194
