v -0.14459686 -0.2982 0.11355321
v -0.14533676 -0.2982 0.11349806
v -0.14601347 -0.2982 0.11333262
v -0.14662701 -0.2982 0.11305689
v -0.14717735 -0.2982 0.11267087
v -0.14717735 -0.29832001 0.11267087
v -0.14662701 -0.29832001 0.11305689
v -0.14601347 -0.29832001 0.11333262
v -0.14533676 -0.29832001 0.11349806
v -0.14459686 -0.29832001 0.11355321
v -0.1426371 -0.2982 0.11309652
v -0.14357486 -0.2982 0.11343904
v -0.14459686 -0.2982 0.11355321
v -0.14459686 -0.29832001 0.11355321
v -0.14357486 -0.29832001 0.11343904
v -0.1426371 -0.29832001 0.11309652
v -0.14717735 -0.2982 0.11267087
v -0.14764956 -0.2982 0.11218453
v -0.14802865 -0.2982 0.11160786
v -0.14831463 -0.2982 0.11094085
v -0.1485075 -0.2982 0.11018349
v -0.1485075 -0.29832001 0.11018349
v -0.14831463 -0.29832001 0.11094085
v -0.14802865 -0.29832001 0.11160786
v -0.14764956 -0.29832001 0.11218453
v -0.14717735 -0.29832001 0.11267087
v -0.14126705 -0.2982 0.11185061
v -0.14184677 -0.2982 0.11255671
v -0.1426371 -0.2982 0.11309652
v -0.1426371 -0.29832001 0.11309652
v -0.14184677 -0.29832001 0.11255671
v -0.14126705 -0.29832001 0.11185061
v -0.1485075 -0.2982 0.11018349
v -0.14691132 -0.2982 0.10989973
v -0.14691132 -0.29832001 0.10989973
v -0.1485075 -0.29832001 0.11018349
v -0.14079263 -0.2982 0.11017463
v -0.14091124 -0.2982 0.11103701
v -0.14126705 -0.2982 0.11185061
v -0.14126705 -0.29832001 0.11185061
v -0.14091124 -0.29832001 0.11103701
v -0.14079263 -0.29832001 0.11017463
v -0.14691132 -0.2982 0.10989973
v -0.14662313 -0.2982 0.11092394
v -0.14611323 -0.2982 0.11165552
v -0.14611323 -0.29832001 0.11165552
v -0.14662313 -0.29832001 0.11092394
v -0.14691132 -0.29832001 0.10989973
v -0.14124488 -0.2982 0.10864052
v -0.14090569 -0.2982 0.10936988
v -0.14079263 -0.2982 0.11017463
v -0.14079263 -0.29832001 0.11017463
v -0.14090569 -0.29832001 0.10936988
v -0.14124488 -0.29832001 0.10864052
v -0.14611323 -0.2982 0.11165552
v -0.14541491 -0.2982 0.11209448
v -0.14456139 -0.2982 0.11224079
v -0.14456139 -0.29832001 0.11224079
v -0.14541491 -0.29832001 0.11209448
v -0.14611323 -0.29832001 0.11165552
v -0.14258389 -0.2982 0.10754092
v -0.14180576 -0.2982 0.10801978
v -0.14124488 -0.2982 0.10864052
v -0.14124488 -0.29832001 0.10864052
v -0.14180576 -0.29832001 0.10801978
v -0.14258389 -0.29832001 0.10754092
v -0.14456139 -0.2982 0.11224079
v -0.14370788 -0.2982 0.11209669
v -0.14302728 -0.2982 0.11166439
v -0.14302728 -0.29832001 0.11166439
v -0.14370788 -0.29832001 0.11209669
v -0.14456139 -0.29832001 0.11224079
v -0.14079263 -0.2982 0.1064369
v -0.14155969 -0.2982 0.1071319
v -0.14258389 -0.2982 0.10754092
v -0.14258389 -0.29832001 0.10754092
v -0.14155969 -0.29832001 0.1071319
v -0.14079263 -0.29832001 0.1064369
v -0.14302728 -0.2982 0.11166439
v -0.14258168 -0.2982 0.11101262
v -0.14243315 -0.2982 0.11021009
v -0.14243315 -0.29832001 0.11021009
v -0.14258168 -0.29832001 0.11101262
v -0.14302728 -0.29832001 0.11166439
v -0.14015416 -0.2982 0.10433969
v -0.14031378 -0.2982 0.1054936
v -0.14079263 -0.2982 0.1064369
v -0.14079263 -0.29832001 0.1064369
v -0.14031378 -0.29832001 0.1054936
v -0.14015416 -0.29832001 0.10433969
v -0.14243315 -0.2982 0.11021009
v -0.14248414 -0.2982 0.10969189
v -0.14263711 -0.2982 0.10924574
v -0.14289206 -0.2982 0.10887163
v -0.14324898 -0.2982 0.10856957
v -0.14324898 -0.29832001 0.10856957
v -0.14289206 -0.29832001 0.10887163
v -0.14263711 -0.29832001 0.10924574
v -0.14248414 -0.29832001 0.10969189
v -0.14243315 -0.29832001 0.11021009
v -0.14139563 -0.2982 0.10145328
v -0.14085249 -0.2982 0.10207761
v -0.14046453 -0.2982 0.1027668
v -0.14023175 -0.2982 0.10352082
v -0.14015416 -0.2982 0.10433969
v -0.14015416 -0.29832001 0.10433969
v -0.14023175 -0.29832001 0.10352082
v -0.14046453 -0.29832001 0.1027668
v -0.14085249 -0.29832001 0.10207761
v -0.14139563 -0.29832001 0.10145328
v -0.14324898 -0.2982 0.10856957
v -0.14411579 -0.2982 0.10817053
v -0.14508458 -0.2982 0.10803752
v -0.14508458 -0.29832001 0.10803752
v -0.14411579 -0.29832001 0.10817053
v -0.14324898 -0.29832001 0.10856957
v -0.14453479 -0.2982 0.10026944
v -0.14362696 -0.2982 0.10034343
v -0.14280115 -0.2982 0.1005654
v -0.14205738 -0.2982 0.10093534
v -0.14139563 -0.2982 0.10145328
v -0.14139563 -0.29832001 0.10145328
v -0.14205738 -0.29832001 0.10093534
v -0.14280115 -0.29832001 0.1005654
v -0.14362696 -0.29832001 0.10034343
v -0.14453479 -0.29832001 0.10026944
v -0.14508458 -0.2982 0.10803752
v -0.14534174 -0.2982 0.10805525
v -0.14534174 -0.29832001 0.10805525
v -0.14508458 -0.29832001 0.10803752
v -0.14737687 -0.2982 0.10128922
v -0.14677526 -0.2982 0.10084307
v -0.14610104 -0.2982 0.10052439
v -0.14535421 -0.2982 0.10033318
v -0.14453479 -0.2982 0.10026944
v -0.14453479 -0.29832001 0.10026944
v -0.14535421 -0.29832001 0.10033318
v -0.14610104 -0.29832001 0.10052439
v -0.14677526 -0.29832001 0.10084307
v -0.14737687 -0.29832001 0.10128922
v -0.14534174 -0.2982 0.10805525
v -0.14551909 -0.2982 0.10665416
v -0.14551909 -0.29832001 0.10665416
v -0.14534174 -0.29832001 0.10805525
v -0.14866712 -0.29832001 0.10393179
v -0.14852662 -0.29832001 0.10315808
v -0.14826475 -0.29832001 0.10245975
v -0.1478815 -0.29832001 0.1018368
v -0.14737687 -0.29832001 0.10128922
v -0.14677526 -0.29832001 0.10084307
v -0.14610104 -0.29832001 0.10052439
v -0.14535421 -0.29832001 0.10033318
v -0.14453479 -0.29832001 0.10026944
v -0.14362696 -0.29832001 0.10034343
v -0.14280115 -0.29832001 0.1005654
v -0.14205738 -0.29832001 0.10093534
v -0.14139563 -0.29832001 0.10145328
v -0.14085249 -0.29832001 0.10207761
v -0.14046453 -0.29832001 0.1027668
v -0.14023175 -0.29832001 0.10352082
v -0.14015416 -0.29832001 0.10433969
v -0.14031378 -0.29832001 0.1054936
v -0.14079263 -0.29832001 0.1064369
v -0.14155969 -0.29832001 0.1071319
v -0.14258389 -0.29832001 0.10754092
v -0.14180576 -0.29832001 0.10801978
v -0.14124488 -0.29832001 0.10864052
v -0.14090569 -0.29832001 0.10936988
v -0.14079263 -0.29832001 0.11017463
v -0.14091124 -0.29832001 0.11103701
v -0.14126705 -0.29832001 0.11185061
v -0.14184677 -0.29832001 0.11255671
v -0.1426371 -0.29832001 0.11309652
v -0.14357486 -0.29832001 0.11343904
v -0.14459686 -0.29832001 0.11355321
v -0.14533676 -0.29832001 0.11349806
v -0.14601347 -0.29832001 0.11333262
v -0.14662701 -0.29832001 0.11305689
v -0.14717735 -0.29832001 0.11267087
v -0.14764956 -0.29832001 0.11218453
v -0.14802865 -0.29832001 0.11160786
v -0.14831463 -0.29832001 0.11094085
v -0.1485075 -0.29832001 0.11018349
v -0.14691132 -0.29832001 0.10989973
v -0.14662313 -0.29832001 0.11092394
v -0.14611323 -0.29832001 0.11165552
v -0.14541491 -0.29832001 0.11209448
v -0.14456139 -0.29832001 0.11224079
v -0.14370788 -0.29832001 0.11209669
v -0.14302728 -0.29832001 0.11166439
v -0.14258168 -0.29832001 0.11101262
v -0.14243315 -0.29832001 0.11021009
v -0.14248414 -0.29832001 0.10969189
v -0.14263711 -0.29832001 0.10924574
v -0.14289206 -0.29832001 0.10887163
v -0.14324898 -0.29832001 0.10856957
v -0.14411579 -0.29832001 0.10817053
v -0.14508458 -0.29832001 0.10803752
v -0.14534174 -0.29832001 0.10805525
v -0.14551909 -0.29832001 0.10665416
v -0.14490058 -0.29832001 0.10678718
v -0.1443929 -0.29832001 0.10683151
v -0.14386306 -0.29832001 0.1067869
v -0.14338199 -0.29832001 0.10665305
v -0.14294969 -0.29832001 0.10642998
v -0.14256617 -0.29832001 0.10611767
v -0.14225191 -0.29832001 0.10573664
v -0.14202745 -0.29832001 0.10530738
v -0.14189278 -0.29832001 0.10482991
v -0.14184788 -0.29832001 0.10430423
v -0.14189637 -0.29832001 0.10375111
v -0.14204186 -0.29832001 0.10324454
v -0.14228434 -0.29832001 0.10278453
v -0.14262381 -0.29832001 0.10237107
v -0.14303366 -0.29832001 0.10202967
v -0.14348729 -0.29832001 0.10178581
v -0.14398471 -0.29832001 0.10163949
v -0.14452592 -0.29832001 0.10159072
v -0.14540271 -0.29832001 0.10174036
v -0.1461354 -0.29832001 0.10218929
v -0.14644161 -0.29832001 0.10253596
v -0.14669961 -0.29832001 0.1029774
v -0.14690938 -0.29832001 0.10351362
v -0.14707094 -0.29832001 0.10414461
v -0.14551909 -0.2982 0.10665416
v -0.14490058 -0.2982 0.10678718
v -0.1443929 -0.2982 0.10683151
v -0.1443929 -0.29832001 0.10683151
v -0.14490058 -0.29832001 0.10678718
v -0.14551909 -0.29832001 0.10665416
v -0.14866712 -0.2982 0.10393179
v -0.14852662 -0.2982 0.10315808
v -0.14826475 -0.2982 0.10245975
v -0.1478815 -0.2982 0.1018368
v -0.14737687 -0.2982 0.10128922
v -0.14737687 -0.29832001 0.10128922
v -0.1478815 -0.29832001 0.1018368
v -0.14826475 -0.29832001 0.10245975
v -0.14852662 -0.29832001 0.10315808
v -0.14866712 -0.29832001 0.10393179
v -0.1443929 -0.2982 0.10683151
v -0.14386306 -0.2982 0.1067869
v -0.14338199 -0.2982 0.10665305
v -0.14294969 -0.2982 0.10642998
v -0.14256617 -0.2982 0.10611767
v -0.14256617 -0.29832001 0.10611767
v -0.14294969 -0.29832001 0.10642998
v -0.14338199 -0.29832001 0.10665305
v -0.14386306 -0.29832001 0.1067869
v -0.1443929 -0.29832001 0.10683151
v -0.14737687 -0.2982 0.10128922
v -0.1478815 -0.2982 0.1018368
v -0.14826475 -0.2982 0.10245975
v -0.14852662 -0.2982 0.10315808
v -0.14866712 -0.2982 0.10393179
v -0.14707094 -0.2982 0.10414461
v -0.14690938 -0.2982 0.10351362
v -0.14669961 -0.2982 0.1029774
v -0.14644161 -0.2982 0.10253596
v -0.1461354 -0.2982 0.10218929
v -0.14540271 -0.2982 0.10174036
v -0.14452592 -0.2982 0.10159072
v -0.14398471 -0.2982 0.10163949
v -0.14348729 -0.2982 0.10178581
v -0.14303366 -0.2982 0.10202967
v -0.14262381 -0.2982 0.10237107
v -0.14228434 -0.2982 0.10278453
v -0.14204186 -0.2982 0.10324454
v -0.14189637 -0.2982 0.10375111
v -0.14184788 -0.2982 0.10430423
v -0.14189278 -0.2982 0.10482991
v -0.14202745 -0.2982 0.10530738
v -0.14225191 -0.2982 0.10573664
v -0.14256617 -0.2982 0.10611767
v -0.14294969 -0.2982 0.10642998
v -0.14338199 -0.2982 0.10665305
v -0.14386306 -0.2982 0.1067869
v -0.1443929 -0.2982 0.10683151
v -0.14490058 -0.2982 0.10678718
v -0.14551909 -0.2982 0.10665416
v -0.14534174 -0.2982 0.10805525
v -0.14508458 -0.2982 0.10803752
v -0.14411579 -0.2982 0.10817053
v -0.14324898 -0.2982 0.10856957
v -0.14289206 -0.2982 0.10887163
v -0.14263711 -0.2982 0.10924574
v -0.14248414 -0.2982 0.10969189
v -0.14243315 -0.2982 0.11021009
v -0.14258168 -0.2982 0.11101262
v -0.14302728 -0.2982 0.11166439
v -0.14370788 -0.2982 0.11209669
v -0.14456139 -0.2982 0.11224079
v -0.14541491 -0.2982 0.11209448
v -0.14611323 -0.2982 0.11165552
v -0.14662313 -0.2982 0.11092394
v -0.14691132 -0.2982 0.10989973
v -0.1485075 -0.2982 0.11018349
v -0.14831463 -0.2982 0.11094085
v -0.14802865 -0.2982 0.11160786
v -0.14764956 -0.2982 0.11218453
v -0.14717735 -0.2982 0.11267087
v -0.14662701 -0.2982 0.11305689
v -0.14601347 -0.2982 0.11333262
v -0.14533676 -0.2982 0.11349806
v -0.14459686 -0.2982 0.11355321
v -0.14357486 -0.2982 0.11343904
v -0.1426371 -0.2982 0.11309652
v -0.14184677 -0.2982 0.11255671
v -0.14126705 -0.2982 0.11185061
v -0.14091124 -0.2982 0.11103701
v -0.14079263 -0.2982 0.11017463
v -0.14090569 -0.2982 0.10936988
v -0.14124488 -0.2982 0.10864052
v -0.14180576 -0.2982 0.10801978
v -0.14258389 -0.2982 0.10754092
v -0.14155969 -0.2982 0.1071319
v -0.14079263 -0.2982 0.1064369
v -0.14031378 -0.2982 0.1054936
v -0.14015416 -0.2982 0.10433969
v -0.14023175 -0.2982 0.10352082
v -0.14046453 -0.2982 0.1027668
v -0.14085249 -0.2982 0.10207761
v -0.14139563 -0.2982 0.10145328
v -0.14205738 -0.2982 0.10093534
v -0.14280115 -0.2982 0.1005654
v -0.14362696 -0.2982 0.10034343
v -0.14453479 -0.2982 0.10026944
v -0.14535421 -0.2982 0.10033318
v -0.14610104 -0.2982 0.10052439
v -0.14677526 -0.2982 0.10084307
v -0.14256617 -0.2982 0.10611767
v -0.14225191 -0.2982 0.10573664
v -0.14202745 -0.2982 0.10530738
v -0.14189278 -0.2982 0.10482991
v -0.14184788 -0.2982 0.10430423
v -0.14184788 -0.29832001 0.10430423
v -0.14189278 -0.29832001 0.10482991
v -0.14202745 -0.29832001 0.10530738
v -0.14225191 -0.29832001 0.10573664
v -0.14256617 -0.29832001 0.10611767
v -0.14184788 -0.2982 0.10430423
v -0.14189637 -0.2982 0.10375111
v -0.14204186 -0.2982 0.10324454
v -0.14228434 -0.2982 0.10278453
v -0.14262381 -0.2982 0.10237107
v -0.14262381 -0.29832001 0.10237107
v -0.14228434 -0.29832001 0.10278453
v -0.14204186 -0.29832001 0.10324454
v -0.14189637 -0.29832001 0.10375111
v -0.14184788 -0.29832001 0.10430423
v -0.14262381 -0.2982 0.10237107
v -0.14303366 -0.2982 0.10202967
v -0.14348729 -0.2982 0.10178581
v -0.14398471 -0.2982 0.10163949
v -0.14452592 -0.2982 0.10159072
v -0.14452592 -0.29832001 0.10159072
v -0.14398471 -0.29832001 0.10163949
v -0.14348729 -0.29832001 0.10178581
v -0.14303366 -0.29832001 0.10202967
v -0.14262381 -0.29832001 0.10237107
v -0.14452592 -0.2982 0.10159072
v -0.14540271 -0.2982 0.10174036
v -0.1461354 -0.2982 0.10218929
v -0.1461354 -0.29832001 0.10218929
v -0.14540271 -0.29832001 0.10174036
v -0.14452592 -0.29832001 0.10159072
v -0.1461354 -0.2982 0.10218929
v -0.14644161 -0.2982 0.10253596
v -0.14669961 -0.2982 0.1029774
v -0.14690938 -0.2982 0.10351362
v -0.14707094 -0.2982 0.10414461
v -0.14707094 -0.29832001 0.10414461
v -0.14690938 -0.29832001 0.10351362
v -0.14669961 -0.29832001 0.1029774
v -0.14644161 -0.29832001 0.10253596
v -0.1461354 -0.29832001 0.10218929
v -0.14707094 -0.2982 0.10414461
v -0.14866712 -0.2982 0.10393179
v -0.14866712 -0.29832001 0.10393179
v -0.14707094 -0.29832001 0.10414461
f 1 2 10
f 10 2 9
f 9 2 3
f 9 3 8
f 8 3 4
f 8 4 7
f 7 4 5
f 7 5 6
f 11 12 16
f 16 12 15
f 15 12 13
f 15 13 14
f 17 18 26
f 26 18 25
f 25 18 19
f 25 19 24
f 24 19 20
f 24 20 23
f 23 20 21
f 23 21 22
f 27 28 32
f 32 28 31
f 31 28 29
f 31 29 30
f 33 34 36
f 36 34 35
f 37 38 42
f 42 38 41
f 41 38 39
f 41 39 40
f 43 44 48
f 48 44 47
f 47 44 45
f 47 45 46
f 49 50 54
f 54 50 53
f 53 50 51
f 53 51 52
f 55 56 60
f 60 56 59
f 59 56 57
f 59 57 58
f 61 62 66
f 66 62 65
f 65 62 63
f 65 63 64
f 67 68 72
f 72 68 71
f 71 68 69
f 71 69 70
f 73 74 78
f 78 74 77
f 77 74 75
f 77 75 76
f 79 80 84
f 84 80 83
f 83 80 81
f 83 81 82
f 85 86 90
f 90 86 89
f 89 86 87
f 89 87 88
f 91 92 100
f 100 92 99
f 99 92 93
f 99 93 98
f 98 93 94
f 98 94 97
f 97 94 95
f 97 95 96
f 101 102 110
f 110 102 109
f 109 102 103
f 109 103 108
f 108 103 104
f 108 104 107
f 107 104 105
f 107 105 106
f 111 112 116
f 116 112 115
f 115 112 113
f 115 113 114
f 117 118 126
f 126 118 125
f 125 118 119
f 125 119 124
f 124 119 120
f 124 120 123
f 123 120 121
f 123 121 122
f 127 128 130
f 130 128 129
f 131 132 140
f 140 132 139
f 139 132 133
f 139 133 138
f 138 133 134
f 138 134 137
f 137 134 135
f 137 135 136
f 141 142 144
f 144 142 143
f 145 146 224
f 224 146 147
f 224 147 223
f 223 147 148
f 223 148 222
f 222 148 149
f 222 149 221
f 221 149 150
f 221 150 220
f 220 150 151
f 220 151 219
f 219 151 152
f 219 152 218
f 218 152 153
f 218 153 217
f 217 153 154
f 217 154 216
f 216 154 155
f 216 155 215
f 215 155 156
f 215 156 214
f 214 156 213
f 213 156 157
f 213 157 212
f 212 157 158
f 212 158 211
f 211 158 159
f 211 159 160
f 211 160 210
f 210 160 161
f 210 161 162
f 210 162 209
f 209 162 163
f 209 163 208
f 208 163 164
f 208 164 207
f 207 164 206
f 206 164 165
f 206 165 205
f 205 165 204
f 204 165 196
f 204 196 203
f 203 196 197
f 203 197 202
f 202 197 198
f 202 198 201
f 201 198 199
f 201 199 200
f 196 165 195
f 195 165 166
f 195 166 194
f 194 166 193
f 193 166 167
f 193 167 168
f 193 168 192
f 192 168 169
f 192 169 170
f 170 171 192
f 192 171 191
f 191 171 172
f 191 172 190
f 190 172 173
f 190 173 189
f 189 173 174
f 189 174 188
f 188 174 175
f 188 175 176
f 188 176 187
f 187 176 177
f 187 177 186
f 186 177 178
f 186 178 179
f 186 179 185
f 185 179 180
f 185 180 181
f 185 181 184
f 184 181 182
f 184 182 183
f 225 226 230
f 230 226 229
f 229 226 227
f 229 227 228
f 231 232 240
f 240 232 239
f 239 232 233
f 239 233 238
f 238 233 234
f 238 234 237
f 237 234 235
f 237 235 236
f 241 242 250
f 250 242 249
f 249 242 243
f 249 243 248
f 248 243 244
f 248 244 247
f 247 244 245
f 247 245 246
f 252 258 251
f 251 258 259
f 251 259 330
f 330 259 260
f 330 260 329
f 329 260 261
f 329 261 328
f 328 261 262
f 328 262 327
f 327 262 263
f 327 263 326
f 326 263 264
f 326 264 325
f 325 264 265
f 325 265 324
f 324 265 266
f 324 266 267
f 258 252 257
f 257 252 253
f 257 253 256
f 256 253 254
f 256 254 255
f 324 267 323
f 323 267 268
f 323 268 322
f 322 268 269
f 322 269 321
f 321 269 320
f 320 269 270
f 320 270 319
f 319 270 318
f 318 270 271
f 318 271 317
f 317 271 272
f 317 272 316
f 316 272 273
f 316 273 274
f 316 274 315
f 315 274 275
f 315 275 276
f 315 276 284
f 284 276 277
f 284 277 283
f 283 277 278
f 283 278 282
f 282 278 279
f 282 279 281
f 281 279 280
f 284 285 315
f 315 285 314
f 314 285 286
f 314 286 287
f 288 312 287
f 287 312 313
f 287 313 314
f 289 309 288
f 288 309 310
f 288 310 311
f 309 289 308
f 308 289 290
f 308 290 307
f 307 290 291
f 307 291 306
f 306 291 292
f 306 292 305
f 305 292 304
f 304 292 293
f 304 293 303
f 303 293 294
f 303 294 302
f 302 294 301
f 301 294 295
f 301 295 300
f 300 295 299
f 299 295 296
f 299 296 298
f 298 296 297
f 311 312 288
f 331 332 340
f 340 332 339
f 339 332 333
f 339 333 338
f 338 333 334
f 338 334 337
f 337 334 335
f 337 335 336
f 341 342 350
f 350 342 349
f 349 342 343
f 349 343 348
f 348 343 344
f 348 344 347
f 347 344 345
f 347 345 346
f 351 352 360
f 360 352 359
f 359 352 353
f 359 353 358
f 358 353 354
f 358 354 357
f 357 354 355
f 357 355 356
f 361 362 366
f 366 362 365
f 365 362 363
f 365 363 364
f 367 368 376
f 376 368 375
f 375 368 369
f 375 369 374
f 374 369 370
f 374 370 373
f 373 370 371
f 373 371 372
f 377 378 380
f 380 378 379
