v 0.72300003 0.33400002 0.29360001
v 0.72300003 0.3341256 0.29360395
v 0.72300003 0.33425068 0.29361578
v 0.72300003 0.33437477 0.29363543
v 0.72300003 0.33449738 0.29366283
v 0.72300003 0.33461803 0.29369789
v 0.72300003 0.33473625 0.29374044
v 0.72300003 0.33485157 0.29379034
v 0.72300003 0.33496349 0.29384739
v 0.72300003 0.33507164 0.29391134
v 0.72300003 0.33517555 0.29398197
v 0.72300003 0.33527485 0.29405897
v 0.72300003 0.33536911 0.29414206
v 0.72300003 0.33545795 0.2942309
v 0.72300003 0.33554104 0.29432516
v 0.72300003 0.33561802 0.29442444
v 0.72300003 0.33568867 0.29452835
v 0.72300003 0.3357526 0.2946365
v 0.72300003 0.33580967 0.29474844
v 0.72300003 0.33585957 0.29486376
v 0.72300003 0.3359021 0.29498196
v 0.72300003 0.33593716 0.29510262
v 0.72300003 0.33596458 0.29522524
v 0.72300003 0.33598423 0.29534933
v 0.72300003 0.33599606 0.29547441
v 0.72300003 0.33599998 0.29559999
v 0.72300003 0.33599606 0.29572557
v 0.72300003 0.33598423 0.29585066
v 0.72300003 0.33596458 0.29597477
v 0.72300003 0.33593716 0.29609737
v 0.72300003 0.3359021 0.29621803
v 0.72300003 0.33585957 0.29633625
v 0.72300003 0.33580967 0.29645155
v 0.72300003 0.3357526 0.29656351
v 0.72300003 0.33568867 0.29667166
v 0.72300003 0.33561802 0.29677557
v 0.72300003 0.33554104 0.29687485
v 0.72300003 0.33545795 0.29696909
v 0.72300003 0.33536911 0.29705793
v 0.72300003 0.33527485 0.29714102
v 0.72300003 0.33517555 0.29721804
v 0.72300003 0.33507164 0.29728865
v 0.72300003 0.33496349 0.29735262
v 0.72300003 0.33485157 0.29740965
v 0.72300003 0.33473625 0.29745955
v 0.72300003 0.33461803 0.29750212
v 0.72300003 0.33449738 0.29753717
v 0.72300003 0.33437477 0.29756458
v 0.72300003 0.33425068 0.29758423
v 0.72300003 0.3341256 0.29759605
v 0.72300003 0.33400002 0.2976
v 0.72300003 0.33387444 0.29759605
v 0.72300003 0.33374935 0.29758423
v 0.72300003 0.33362522 0.29756458
v 0.72300003 0.33350262 0.29753717
v 0.72300003 0.33338196 0.29750212
v 0.72300003 0.33326374 0.29745955
v 0.72300003 0.33314846 0.29740965
v 0.72300003 0.3330365 0.29735262
v 0.72300003 0.33292835 0.29728865
v 0.72300003 0.33282444 0.29721804
v 0.72300003 0.33272514 0.29714102
v 0.72300003 0.33263092 0.29705793
v 0.72300003 0.33254208 0.29696909
v 0.72300003 0.33245899 0.29687485
v 0.72300003 0.33238197 0.29677557
v 0.72300003 0.33231136 0.29667166
v 0.72300003 0.33224739 0.29656351
v 0.72300003 0.33219036 0.29645155
v 0.72300003 0.33214046 0.29633625
v 0.72300003 0.33209789 0.29621803
v 0.72300003 0.33206284 0.29609737
v 0.72300003 0.33203541 0.29597477
v 0.72300003 0.33201576 0.29585066
v 0.72300003 0.33200394 0.29572557
v 0.72300003 0.33200001 0.29559999
v 0.72300003 0.33200394 0.29547441
v 0.72300003 0.33201576 0.29534933
v 0.72300003 0.33203541 0.29522524
v 0.72300003 0.33206284 0.29510262
v 0.72300003 0.33209789 0.29498196
v 0.72300003 0.33214046 0.29486376
v 0.72300003 0.33219036 0.29474844
v 0.72300003 0.33224739 0.2946365
v 0.72300003 0.33231136 0.29452835
v 0.72300003 0.33238197 0.29442444
v 0.72300003 0.33245899 0.29432516
v 0.72300003 0.33254208 0.2942309
v 0.72300003 0.33263092 0.29414206
v 0.72300003 0.33272514 0.29405897
v 0.72300003 0.33282444 0.29398197
v 0.72300003 0.33292835 0.29391134
v 0.72300003 0.3330365 0.29384739
v 0.72300003 0.33314846 0.29379034
v 0.72300003 0.33326374 0.29374044
v 0.72300003 0.33338196 0.29369789
v 0.72300003 0.33350262 0.29366283
v 0.72300003 0.33362522 0.29363543
v 0.72300003 0.33374935 0.29361578
v 0.72300003 0.33387444 0.29360395
v 0.74199997 0.33400002 0.29360001
v 0.74199997 0.33387444 0.29360395
v 0.74199997 0.33374935 0.29361578
v 0.74199997 0.33362522 0.29363543
v 0.74199997 0.33350262 0.29366283
v 0.74199997 0.33338196 0.29369789
v 0.74199997 0.33326374 0.29374044
v 0.74199997 0.33314846 0.29379034
v 0.74199997 0.3330365 0.29384739
v 0.74199997 0.33292835 0.29391134
v 0.74199997 0.33282444 0.29398197
v 0.74199997 0.33272514 0.29405897
v 0.74199997 0.33263092 0.29414206
v 0.74199997 0.33254208 0.2942309
v 0.74199997 0.33245899 0.29432516
v 0.74199997 0.33238197 0.29442444
v 0.74199997 0.33231136 0.29452835
v 0.74199997 0.33224739 0.2946365
v 0.74199997 0.33219036 0.29474844
v 0.74199997 0.33214046 0.29486376
v 0.74199997 0.33209789 0.29498196
v 0.74199997 0.33206284 0.29510262
v 0.74199997 0.33203541 0.29522524
v 0.74199997 0.33201576 0.29534933
v 0.74199997 0.33200394 0.29547441
v 0.74199997 0.33200001 0.29559999
v 0.74199997 0.33200394 0.29572557
v 0.74199997 0.33201576 0.29585066
v 0.74199997 0.33203541 0.29597477
v 0.74199997 0.33206284 0.29609737
v 0.74199997 0.33209789 0.29621803
v 0.74199997 0.33214046 0.29633625
v 0.74199997 0.33219036 0.29645155
v 0.74199997 0.33224739 0.29656351
v 0.74199997 0.33231136 0.29667166
v 0.74199997 0.33238197 0.29677557
v 0.74199997 0.33245899 0.29687485
v 0.74199997 0.33254208 0.29696909
v 0.74199997 0.33263092 0.29705793
v 0.74199997 0.33272514 0.29714102
v 0.74199997 0.33282444 0.29721804
v 0.74199997 0.33292835 0.29728865
v 0.74199997 0.3330365 0.29735262
v 0.74199997 0.33314846 0.29740965
v 0.74199997 0.33326374 0.29745955
v 0.74199997 0.33338196 0.29750212
v 0.74199997 0.33350262 0.29753717
v 0.74199997 0.33362522 0.29756458
v 0.74199997 0.33374935 0.29758423
v 0.74199997 0.33387444 0.29759605
v 0.74199997 0.33400002 0.2976
v 0.74199997 0.3341256 0.29759605
v 0.74199997 0.33425068 0.29758423
v 0.74199997 0.33437477 0.29756458
v 0.74199997 0.33449738 0.29753717
v 0.74199997 0.33461803 0.29750212
v 0.74199997 0.33473625 0.29745955
v 0.74199997 0.33485157 0.29740965
v 0.74199997 0.33496349 0.29735262
v 0.74199997 0.33507164 0.29728865
v 0.74199997 0.33517555 0.29721804
v 0.74199997 0.33527485 0.29714102
v 0.74199997 0.33536911 0.29705793
v 0.74199997 0.33545795 0.29696909
v 0.74199997 0.33554104 0.29687485
v 0.74199997 0.33561802 0.29677557
v 0.74199997 0.33568867 0.29667166
v 0.74199997 0.3357526 0.29656351
v 0.74199997 0.33580967 0.29645155
v 0.74199997 0.33585957 0.29633625
v 0.74199997 0.3359021 0.29621803
v 0.74199997 0.33593716 0.29609737
v 0.74199997 0.33596458 0.29597477
v 0.74199997 0.33598423 0.29585066
v 0.74199997 0.33599606 0.29572557
v 0.74199997 0.33599998 0.29559999
v 0.74199997 0.33599606 0.29547441
v 0.74199997 0.33598423 0.29534933
v 0.74199997 0.33596458 0.29522524
v 0.74199997 0.33593716 0.29510262
v 0.74199997 0.3359021 0.29498196
v 0.74199997 0.33585957 0.29486376
v 0.74199997 0.33580967 0.29474844
v 0.74199997 0.3357526 0.2946365
v 0.74199997 0.33568867 0.29452835
v 0.74199997 0.33561802 0.29442444
v 0.74199997 0.33554104 0.29432516
v 0.74199997 0.33545795 0.2942309
v 0.74199997 0.33536911 0.29414206
v 0.74199997 0.33527485 0.29405897
v 0.74199997 0.33517555 0.29398197
v 0.74199997 0.33507164 0.29391134
v 0.74199997 0.33496349 0.29384739
v 0.74199997 0.33485157 0.29379034
v 0.74199997 0.33473625 0.29374044
v 0.74199997 0.33461803 0.29369789
v 0.74199997 0.33449738 0.29366283
v 0.74199997 0.33437477 0.29363543
v 0.74199997 0.33425068 0.29361578
v 0.74199997 0.3341256 0.29360395
v 0.72300003 0.33400002 0.2976
v 0.74199997 0.33400002 0.2976
v 0.74199997 0.33400002 0.29360001
v 0.74199997 0.3341256 0.29360395
v 0.74199997 0.33425068 0.29361578
v 0.74199997 0.33437477 0.29363543
v 0.74199997 0.33449738 0.29366283
v 0.74199997 0.33461803 0.29369789
v 0.74199997 0.33473625 0.29374044
v 0.74199997 0.33485157 0.29379034
v 0.74199997 0.33496349 0.29384739
v 0.74199997 0.33507164 0.29391134
v 0.74199997 0.33517555 0.29398197
v 0.74199997 0.33527485 0.29405897
v 0.74199997 0.33536911 0.29414206
v 0.74199997 0.33545795 0.2942309
v 0.74199997 0.33554104 0.29432516
v 0.74199997 0.33561802 0.29442444
v 0.74199997 0.33568867 0.29452835
v 0.74199997 0.3357526 0.2946365
v 0.74199997 0.33580967 0.29474844
v 0.74199997 0.33585957 0.29486376
v 0.74199997 0.3359021 0.29498196
v 0.74199997 0.33593716 0.29510262
v 0.74199997 0.33596458 0.29522524
v 0.74199997 0.33598423 0.29534933
v 0.74199997 0.33599606 0.29547441
v 0.74199997 0.33599998 0.29559999
v 0.74199997 0.33599606 0.29572557
v 0.74199997 0.33598423 0.29585066
v 0.74199997 0.33596458 0.29597477
v 0.74199997 0.33593716 0.29609737
v 0.74199997 0.3359021 0.29621803
v 0.74199997 0.33585957 0.29633625
v 0.74199997 0.33580967 0.29645155
v 0.74199997 0.3357526 0.29656351
v 0.74199997 0.33568867 0.29667166
v 0.74199997 0.33561802 0.29677557
v 0.74199997 0.33554104 0.29687485
v 0.74199997 0.33545795 0.29696909
v 0.74199997 0.33536911 0.29705793
v 0.74199997 0.33527485 0.29714102
v 0.74199997 0.33517555 0.29721804
v 0.74199997 0.33507164 0.29728865
v 0.74199997 0.33496349 0.29735262
v 0.74199997 0.33485157 0.29740965
v 0.74199997 0.33473625 0.29745955
v 0.74199997 0.33461803 0.29750212
v 0.74199997 0.33449738 0.29753717
v 0.74199997 0.33437477 0.29756458
v 0.74199997 0.33425068 0.29758423
v 0.74199997 0.3341256 0.29759605
v 0.74199997 0.33400002 0.2976
v 0.74199997 0.33387444 0.29759605
v 0.74199997 0.33374935 0.29758423
v 0.74199997 0.33362522 0.29756458
v 0.74199997 0.33350262 0.29753717
v 0.74199997 0.33338196 0.29750212
v 0.74199997 0.33326374 0.29745955
v 0.74199997 0.33314846 0.29740965
v 0.74199997 0.3330365 0.29735262
v 0.74199997 0.33292835 0.29728865
v 0.74199997 0.33282444 0.29721804
v 0.74199997 0.33272514 0.29714102
v 0.74199997 0.33263092 0.29705793
v 0.74199997 0.33254208 0.29696909
v 0.74199997 0.33245899 0.29687485
v 0.74199997 0.33238197 0.29677557
v 0.74199997 0.33231136 0.29667166
v 0.74199997 0.33224739 0.29656351
v 0.74199997 0.33219036 0.29645155
v 0.74199997 0.33214046 0.29633625
v 0.74199997 0.33209789 0.29621803
v 0.74199997 0.33206284 0.29609737
v 0.74199997 0.33203541 0.29597477
v 0.74199997 0.33201576 0.29585066
v 0.74199997 0.33200394 0.29572557
v 0.74199997 0.33200001 0.29559999
v 0.74199997 0.33200394 0.29547441
v 0.74199997 0.33201576 0.29534933
v 0.74199997 0.33203541 0.29522524
v 0.74199997 0.33206284 0.29510262
v 0.74199997 0.33209789 0.29498196
v 0.74199997 0.33214046 0.29486376
v 0.74199997 0.33219036 0.29474844
v 0.74199997 0.33224739 0.2946365
v 0.74199997 0.33231136 0.29452835
v 0.74199997 0.33238197 0.29442444
v 0.74199997 0.33245899 0.29432516
v 0.74199997 0.33254208 0.2942309
v 0.74199997 0.33263092 0.29414206
v 0.74199997 0.33272514 0.29405897
v 0.74199997 0.33282444 0.29398197
v 0.74199997 0.33292835 0.29391134
v 0.74199997 0.3330365 0.29384739
v 0.74199997 0.33314846 0.29379034
v 0.74199997 0.33326374 0.29374044
v 0.74199997 0.33338196 0.29369789
v 0.74199997 0.33350262 0.29366283
v 0.74199997 0.33362522 0.29363543
v 0.74199997 0.33374935 0.29361578
v 0.74199997 0.33387444 0.29360395
v 0.72300003 0.33400002 0.29360001
v 0.72300003 0.33387444 0.29360395
v 0.72300003 0.33374935 0.29361578
v 0.72300003 0.33362522 0.29363543
v 0.72300003 0.33350262 0.29366283
v 0.72300003 0.33338196 0.29369789
v 0.72300003 0.33326374 0.29374044
v 0.72300003 0.33314846 0.29379034
v 0.72300003 0.3330365 0.29384739
v 0.72300003 0.33292835 0.29391134
v 0.72300003 0.33282444 0.29398197
v 0.72300003 0.33272514 0.29405897
v 0.72300003 0.33263092 0.29414206
v 0.72300003 0.33254208 0.2942309
v 0.72300003 0.33245899 0.29432516
v 0.72300003 0.33238197 0.29442444
v 0.72300003 0.33231136 0.29452835
v 0.72300003 0.33224739 0.2946365
v 0.72300003 0.33219036 0.29474844
v 0.72300003 0.33214046 0.29486376
v 0.72300003 0.33209789 0.29498196
v 0.72300003 0.33206284 0.29510262
v 0.72300003 0.33203541 0.29522524
v 0.72300003 0.33201576 0.29534933
v 0.72300003 0.33200394 0.29547441
v 0.72300003 0.33200001 0.29559999
v 0.72300003 0.33200394 0.29572557
v 0.72300003 0.33201576 0.29585066
v 0.72300003 0.33203541 0.29597477
v 0.72300003 0.33206284 0.29609737
v 0.72300003 0.33209789 0.29621803
v 0.72300003 0.33214046 0.29633625
v 0.72300003 0.33219036 0.29645155
v 0.72300003 0.33224739 0.29656351
v 0.72300003 0.33231136 0.29667166
v 0.72300003 0.33238197 0.29677557
v 0.72300003 0.33245899 0.29687485
v 0.72300003 0.33254208 0.29696909
v 0.72300003 0.33263092 0.29705793
v 0.72300003 0.33272514 0.29714102
v 0.72300003 0.33282444 0.29721804
v 0.72300003 0.33292835 0.29728865
v 0.72300003 0.3330365 0.29735262
v 0.72300003 0.33314846 0.29740965
v 0.72300003 0.33326374 0.29745955
v 0.72300003 0.33338196 0.29750212
v 0.72300003 0.33350262 0.29753717
v 0.72300003 0.33362522 0.29756458
v 0.72300003 0.33374935 0.29758423
v 0.72300003 0.33387444 0.29759605
v 0.72300003 0.33400002 0.2976
v 0.72300003 0.3341256 0.29759605
v 0.72300003 0.33425068 0.29758423
v 0.72300003 0.33437477 0.29756458
v 0.72300003 0.33449738 0.29753717
v 0.72300003 0.33461803 0.29750212
v 0.72300003 0.33473625 0.29745955
v 0.72300003 0.33485157 0.29740965
v 0.72300003 0.33496349 0.29735262
v 0.72300003 0.33507164 0.29728865
v 0.72300003 0.33517555 0.29721804
v 0.72300003 0.33527485 0.29714102
v 0.72300003 0.33536911 0.29705793
v 0.72300003 0.33545795 0.29696909
v 0.72300003 0.33554104 0.29687485
v 0.72300003 0.33561802 0.29677557
v 0.72300003 0.33568867 0.29667166
v 0.72300003 0.3357526 0.29656351
v 0.72300003 0.33580967 0.29645155
v 0.72300003 0.33585957 0.29633625
v 0.72300003 0.3359021 0.29621803
v 0.72300003 0.33593716 0.29609737
v 0.72300003 0.33596458 0.29597477
v 0.72300003 0.33598423 0.29585066
v 0.72300003 0.33599606 0.29572557
v 0.72300003 0.33599998 0.29559999
v 0.72300003 0.33599606 0.29547441
v 0.72300003 0.33598423 0.29534933
v 0.72300003 0.33596458 0.29522524
v 0.72300003 0.33593716 0.29510262
v 0.72300003 0.3359021 0.29498196
v 0.72300003 0.33585957 0.29486376
v 0.72300003 0.33580967 0.29474844
v 0.72300003 0.3357526 0.2946365
v 0.72300003 0.33568867 0.29452835
v 0.72300003 0.33561802 0.29442444
v 0.72300003 0.33554104 0.29432516
v 0.72300003 0.33545795 0.2942309
v 0.72300003 0.33536911 0.29414206
v 0.72300003 0.33527485 0.29405897
v 0.72300003 0.33517555 0.29398197
v 0.72300003 0.33507164 0.29391134
v 0.72300003 0.33496349 0.29384739
v 0.72300003 0.33485157 0.29379034
v 0.72300003 0.33473625 0.29374044
v 0.72300003 0.33461803 0.29369789
v 0.72300003 0.33449738 0.29366283
v 0.72300003 0.33437477 0.29363543
v 0.72300003 0.33425068 0.29361578
v 0.72300003 0.3341256 0.29360395
f 2 200 1
f 1 200 101
f 1 101 100
f 100 101 102
f 100 102 99
f 99 102 103
f 99 103 98
f 98 103 104
f 98 104 97
f 97 104 105
f 97 105 96
f 96 105 106
f 96 106 95
f 95 106 107
f 95 107 94
f 94 107 108
f 94 108 93
f 93 108 109
f 93 109 92
f 92 109 110
f 92 110 91
f 91 110 111
f 91 111 90
f 90 111 112
f 90 112 89
f 89 112 113
f 89 113 88
f 88 113 114
f 88 114 87
f 87 114 115
f 87 115 86
f 86 115 116
f 86 116 85
f 85 116 117
f 85 117 84
f 84 117 118
f 84 118 83
f 83 118 119
f 83 119 82
f 82 119 120
f 82 120 81
f 81 120 121
f 81 121 80
f 80 121 122
f 80 122 79
f 79 122 123
f 79 123 78
f 78 123 124
f 78 124 77
f 77 124 125
f 77 125 76
f 76 125 126
f 76 126 75
f 75 126 127
f 75 127 74
f 74 127 128
f 74 128 73
f 73 128 129
f 73 129 72
f 72 129 130
f 72 130 71
f 71 130 131
f 71 131 70
f 70 131 132
f 70 132 69
f 69 132 133
f 69 133 68
f 68 133 134
f 68 134 67
f 67 134 135
f 67 135 66
f 66 135 136
f 66 136 65
f 65 136 137
f 65 137 64
f 64 137 138
f 64 138 63
f 63 138 139
f 63 139 62
f 62 139 140
f 62 140 61
f 61 140 141
f 61 141 60
f 60 141 142
f 60 142 59
f 59 142 143
f 59 143 58
f 58 143 144
f 58 144 57
f 57 144 145
f 57 145 56
f 56 145 146
f 56 146 55
f 55 146 147
f 55 147 54
f 54 147 148
f 54 148 53
f 53 148 149
f 53 149 52
f 52 149 150
f 52 150 51
f 51 150 202
f 201 151 50
f 50 151 152
f 50 152 49
f 49 152 153
f 49 153 48
f 48 153 154
f 48 154 47
f 47 154 155
f 47 155 46
f 46 155 156
f 46 156 45
f 45 156 157
f 45 157 44
f 44 157 158
f 44 158 43
f 43 158 159
f 43 159 42
f 42 159 160
f 42 160 41
f 41 160 161
f 41 161 40
f 40 161 162
f 40 162 39
f 39 162 163
f 39 163 38
f 38 163 164
f 38 164 37
f 37 164 165
f 37 165 36
f 36 165 166
f 36 166 35
f 35 166 167
f 35 167 34
f 34 167 168
f 34 168 33
f 33 168 169
f 33 169 32
f 32 169 170
f 32 170 31
f 31 170 171
f 31 171 30
f 30 171 172
f 30 172 29
f 29 172 173
f 29 173 28
f 28 173 174
f 28 174 27
f 27 174 175
f 27 175 26
f 26 175 176
f 26 176 25
f 25 176 177
f 25 177 24
f 24 177 178
f 24 178 23
f 23 178 179
f 23 179 22
f 22 179 180
f 22 180 21
f 21 180 181
f 21 181 20
f 20 181 182
f 20 182 19
f 19 182 183
f 19 183 18
f 18 183 184
f 18 184 17
f 17 184 185
f 17 185 16
f 16 185 186
f 16 186 15
f 15 186 187
f 15 187 14
f 14 187 188
f 14 188 13
f 13 188 189
f 13 189 12
f 12 189 190
f 12 190 11
f 11 190 191
f 11 191 10
f 10 191 192
f 10 192 9
f 9 192 193
f 9 193 8
f 8 193 194
f 8 194 7
f 7 194 195
f 7 195 6
f 6 195 196
f 6 196 5
f 5 196 197
f 5 197 4
f 4 197 198
f 4 198 3
f 3 198 199
f 3 199 2
f 2 199 200
f 204 252 203
f 203 252 253
f 203 253 302
f 302 253 254
f 302 254 301
f 301 254 255
f 301 255 300
f 300 255 256
f 300 256 299
f 299 256 257
f 299 257 298
f 298 257 258
f 298 258 297
f 297 258 259
f 297 259 296
f 296 259 260
f 296 260 295
f 295 260 261
f 295 261 294
f 294 261 262
f 294 262 293
f 293 262 263
f 293 263 292
f 292 263 264
f 292 264 291
f 291 264 265
f 291 265 290
f 290 265 266
f 290 266 289
f 289 266 267
f 289 267 288
f 288 267 268
f 288 268 287
f 287 268 269
f 287 269 286
f 286 269 270
f 286 270 285
f 285 270 271
f 285 271 284
f 284 271 272
f 284 272 283
f 283 272 273
f 283 273 282
f 282 273 274
f 282 274 281
f 281 274 275
f 281 275 280
f 280 275 276
f 280 276 279
f 279 276 277
f 279 277 278
f 252 204 251
f 251 204 205
f 251 205 250
f 250 205 206
f 250 206 249
f 249 206 207
f 249 207 248
f 248 207 208
f 248 208 247
f 247 208 209
f 247 209 246
f 246 209 210
f 246 210 245
f 245 210 211
f 245 211 244
f 244 211 212
f 244 212 243
f 243 212 213
f 243 213 242
f 242 213 214
f 242 214 241
f 241 214 215
f 241 215 240
f 240 215 216
f 240 216 239
f 239 216 217
f 239 217 238
f 238 217 218
f 238 218 237
f 237 218 219
f 237 219 236
f 236 219 220
f 236 220 235
f 235 220 221
f 235 221 234
f 234 221 222
f 234 222 233
f 233 222 223
f 233 223 232
f 232 223 224
f 232 224 231
f 231 224 225
f 231 225 230
f 230 225 226
f 230 226 229
f 229 226 227
f 229 227 228
f 304 352 303
f 303 352 353
f 303 353 402
f 402 353 354
f 402 354 401
f 401 354 355
f 401 355 400
f 400 355 356
f 400 356 399
f 399 356 357
f 399 357 398
f 398 357 358
f 398 358 397
f 397 358 359
f 397 359 396
f 396 359 360
f 396 360 395
f 395 360 361
f 395 361 394
f 394 361 362
f 394 362 393
f 393 362 363
f 393 363 392
f 392 363 364
f 392 364 391
f 391 364 365
f 391 365 390
f 390 365 366
f 390 366 389
f 389 366 367
f 389 367 388
f 388 367 368
f 388 368 387
f 387 368 369
f 387 369 386
f 386 369 370
f 386 370 385
f 385 370 371
f 385 371 384
f 384 371 372
f 384 372 383
f 383 372 373
f 383 373 382
f 382 373 374
f 382 374 381
f 381 374 375
f 381 375 380
f 380 375 376
f 380 376 379
f 379 376 377
f 379 377 378
f 352 304 351
f 351 304 305
f 351 305 350
f 350 305 306
f 350 306 349
f 349 306 307
f 349 307 348
f 348 307 308
f 348 308 347
f 347 308 309
f 347 309 346
f 346 309 310
f 346 310 345
f 345 310 311
f 345 311 344
f 344 311 312
f 344 312 343
f 343 312 313
f 343 313 342
f 342 313 314
f 342 314 341
f 341 314 315
f 341 315 340
f 340 315 316
f 340 316 339
f 339 316 317
f 339 317 338
f 338 317 318
f 338 318 337
f 337 318 319
f 337 319 336
f 336 319 320
f 336 320 335
f 335 320 321
f 335 321 334
f 334 321 322
f 334 322 333
f 333 322 323
f 333 323 332
f 332 323 324
f 332 324 331
f 331 324 325
f 331 325 330
f 330 325 326
f 330 326 329
f 329 326 327
f 329 327 328
