v 0.71099998 0.26 0.34200001
v 0.71119339 0.26270399 0.34200001
v 0.71176964 0.26535292 0.34200001
v 0.71271698 0.26789289 0.34200001
v 0.71401619 0.27027218 0.34200001
v 0.71564079 0.27244236 0.34200001
v 0.71755768 0.27435925 0.34200001
v 0.71972786 0.27598381 0.34200001
v 0.72210709 0.277283 0.34200001
v 0.72464706 0.27823036 0.34200001
v 0.72729599 0.27880661 0.34200001
v 0.73 0.279 0.34200001
v 0.73270401 0.27880661 0.34200001
v 0.73535294 0.27823036 0.34200001
v 0.73789291 0.277283 0.34200001
v 0.74027214 0.27598381 0.34200001
v 0.74244232 0.27435925 0.34200001
v 0.74435921 0.27244236 0.34200001
v 0.74598381 0.27027218 0.34200001
v 0.74728302 0.26789289 0.34200001
v 0.74823036 0.26535292 0.34200001
v 0.74880661 0.26270399 0.34200001
v 0.74900002 0.26 0.34200001
v 0.74880661 0.25729601 0.34200001
v 0.74823036 0.25464708 0.34200001
v 0.74728302 0.25210711 0.34200001
v 0.74598381 0.24972782 0.34200001
v 0.74435921 0.24755764 0.34200001
v 0.74244232 0.24564075 0.34200001
v 0.74027214 0.24401619 0.34200001
v 0.73789291 0.242717 0.34200001
v 0.73535294 0.24176964 0.34200001
v 0.73270401 0.24119339 0.34200001
v 0.73 0.241 0.34200001
v 0.72729599 0.24119339 0.34200001
v 0.72464706 0.24176964 0.34200001
v 0.72210709 0.242717 0.34200001
v 0.71972786 0.24401619 0.34200001
v 0.71755768 0.24564075 0.34200001
v 0.71564079 0.24755764 0.34200001
v 0.71401619 0.24972782 0.34200001
v 0.71271698 0.25210711 0.34200001
v 0.71176964 0.25464708 0.34200001
v 0.71119339 0.25729601 0.34200001
v 0.71099998 0.26 0.35200001
v 0.71119339 0.26270399 0.35200001
v 0.71176964 0.26535292 0.35200001
v 0.71271698 0.26789289 0.35200001
v 0.71401619 0.27027218 0.35200001
v 0.71564079 0.27244236 0.35200001
v 0.71755768 0.27435925 0.35200001
v 0.71972786 0.27598381 0.35200001
v 0.72210709 0.277283 0.35200001
v 0.72464706 0.27823036 0.35200001
v 0.72729599 0.27880661 0.35200001
v 0.73 0.279 0.35200001
v 0.73270401 0.27880661 0.35200001
v 0.73535294 0.27823036 0.35200001
v 0.73789291 0.277283 0.35200001
v 0.74027214 0.27598381 0.35200001
v 0.74244232 0.27435925 0.35200001
v 0.74435921 0.27244236 0.35200001
v 0.74598381 0.27027218 0.35200001
v 0.74728302 0.26789289 0.35200001
v 0.74823036 0.26535292 0.35200001
v 0.74880661 0.26270399 0.35200001
v 0.74900002 0.26 0.35200001
v 0.74880661 0.25729601 0.35200001
v 0.74823036 0.25464708 0.35200001
v 0.74728302 0.25210711 0.35200001
v 0.74598381 0.24972782 0.35200001
v 0.74435921 0.24755764 0.35200001
v 0.74244232 0.24564075 0.35200001
v 0.74027214 0.24401619 0.35200001
v 0.73789291 0.242717 0.35200001
v 0.73535294 0.24176964 0.35200001
v 0.73270401 0.24119339 0.35200001
v 0.73 0.241 0.35200001
v 0.72729599 0.24119339 0.35200001
v 0.72464706 0.24176964 0.35200001
v 0.72210709 0.242717 0.35200001
v 0.71972786 0.24401619 0.35200001
v 0.71755768 0.24564075 0.35200001
v 0.71564079 0.24755764 0.35200001
v 0.71401619 0.24972782 0.35200001
v 0.71271698 0.25210711 0.35200001
v 0.71176964 0.25464708 0.35200001
v 0.71119339 0.25729601 0.35200001
v 0.71099998 0.26 0.34200001
v 0.71119339 0.25729601 0.34200001
v 0.71176964 0.25464708 0.34200001
v 0.71271698 0.25210711 0.34200001
v 0.71401619 0.24972782 0.34200001
v 0.71564079 0.24755764 0.34200001
v 0.71755768 0.24564075 0.34200001
v 0.71972786 0.24401619 0.34200001
v 0.72210709 0.242717 0.34200001
v 0.72464706 0.24176964 0.34200001
v 0.72729599 0.24119339 0.34200001
v 0.73 0.241 0.34200001
v 0.73270401 0.24119339 0.34200001
v 0.73535294 0.24176964 0.34200001
v 0.73789291 0.242717 0.34200001
v 0.74027214 0.24401619 0.34200001
v 0.74244232 0.24564075 0.34200001
v 0.74435921 0.24755764 0.34200001
v 0.74598381 0.24972782 0.34200001
v 0.74728302 0.25210711 0.34200001
v 0.74823036 0.25464708 0.34200001
v 0.74880661 0.25729601 0.34200001
v 0.74900002 0.26 0.34200001
v 0.74880661 0.26270399 0.34200001
v 0.74823036 0.26535292 0.34200001
v 0.74728302 0.26789289 0.34200001
v 0.74598381 0.27027218 0.34200001
v 0.74435921 0.27244236 0.34200001
v 0.74244232 0.27435925 0.34200001
v 0.74027214 0.27598381 0.34200001
v 0.73789291 0.277283 0.34200001
v 0.73535294 0.27823036 0.34200001
v 0.73270401 0.27880661 0.34200001
v 0.73 0.279 0.34200001
v 0.72729599 0.27880661 0.34200001
v 0.72464706 0.27823036 0.34200001
v 0.72210709 0.277283 0.34200001
v 0.71972786 0.27598381 0.34200001
v 0.71755768 0.27435925 0.34200001
v 0.71564079 0.27244236 0.34200001
v 0.71401619 0.27027218 0.34200001
v 0.71271698 0.26789289 0.34200001
v 0.71176964 0.26535292 0.34200001
v 0.71119339 0.26270399 0.34200001
v 0.71099998 0.26 0.34200001
v 0.71099998 0.26 0.35200001
v 0.71099998 0.26 0.35200001
v 0.71119339 0.25729601 0.35200001
v 0.71176964 0.25464708 0.35200001
v 0.71271698 0.25210711 0.35200001
v 0.71401619 0.24972782 0.35200001
v 0.71564079 0.24755764 0.35200001
v 0.71755768 0.24564075 0.35200001
v 0.71972786 0.24401619 0.35200001
v 0.72210709 0.242717 0.35200001
v 0.72464706 0.24176964 0.35200001
v 0.72729599 0.24119339 0.35200001
v 0.73 0.241 0.35200001
v 0.73270401 0.24119339 0.35200001
v 0.73535294 0.24176964 0.35200001
v 0.73789291 0.242717 0.35200001
v 0.74027214 0.24401619 0.35200001
v 0.74244232 0.24564075 0.35200001
v 0.74435921 0.24755764 0.35200001
v 0.74598381 0.24972782 0.35200001
v 0.74728302 0.25210711 0.35200001
v 0.74823036 0.25464708 0.35200001
v 0.74880661 0.25729601 0.35200001
v 0.74900002 0.26 0.35200001
v 0.74880661 0.26270399 0.35200001
v 0.74823036 0.26535292 0.35200001
v 0.74728302 0.26789289 0.35200001
v 0.74598381 0.27027218 0.35200001
v 0.74435921 0.27244236 0.35200001
v 0.74244232 0.27435925 0.35200001
v 0.74027214 0.27598381 0.35200001
v 0.73789291 0.277283 0.35200001
v 0.73535294 0.27823036 0.35200001
v 0.73270401 0.27880661 0.35200001
v 0.73 0.279 0.35200001
v 0.72729599 0.27880661 0.35200001
v 0.72464706 0.27823036 0.35200001
v 0.72210709 0.277283 0.35200001
v 0.71972786 0.27598381 0.35200001
v 0.71755768 0.27435925 0.35200001
v 0.71564079 0.27244236 0.35200001
v 0.71401619 0.27027218 0.35200001
v 0.71271698 0.26789289 0.35200001
v 0.71176964 0.26535292 0.35200001
v 0.71119339 0.26270399 0.35200001
f 2 22 1
f 1 22 23
f 1 23 44
f 44 23 24
f 44 24 43
f 43 24 25
f 43 25 42
f 42 25 26
f 42 26 41
f 41 26 27
f 41 27 40
f 40 27 28
f 40 28 39
f 39 28 29
f 39 29 38
f 38 29 30
f 38 30 37
f 37 30 31
f 37 31 36
f 36 31 32
f 36 32 35
f 35 32 33
f 35 33 34
f 22 2 21
f 21 2 3
f 21 3 20
f 20 3 4
f 20 4 19
f 19 4 5
f 19 5 18
f 18 5 6
f 18 6 17
f 17 6 7
f 17 7 16
f 16 7 8
f 16 8 15
f 15 8 9
f 15 9 14
f 14 9 10
f 14 10 13
f 13 10 11
f 13 11 12
f 46 132 45
f 45 132 133
f 134 89 88
f 88 89 90
f 88 90 87
f 87 90 91
f 87 91 86
f 86 91 92
f 86 92 85
f 85 92 93
f 85 93 84
f 84 93 94
f 84 94 83
f 83 94 95
f 83 95 82
f 82 95 96
f 82 96 81
f 81 96 97
f 81 97 80
f 80 97 98
f 80 98 79
f 79 98 99
f 79 99 78
f 78 99 100
f 78 100 77
f 77 100 101
f 77 101 76
f 76 101 102
f 76 102 75
f 75 102 103
f 75 103 74
f 74 103 104
f 74 104 73
f 73 104 105
f 73 105 72
f 72 105 106
f 72 106 71
f 71 106 107
f 71 107 70
f 70 107 108
f 70 108 69
f 69 108 109
f 69 109 68
f 68 109 110
f 68 110 67
f 67 110 111
f 67 111 66
f 66 111 112
f 66 112 65
f 65 112 113
f 65 113 64
f 64 113 114
f 64 114 63
f 63 114 115
f 63 115 62
f 62 115 116
f 62 116 61
f 61 116 117
f 61 117 60
f 60 117 118
f 60 118 59
f 59 118 119
f 59 119 58
f 58 119 120
f 58 120 57
f 57 120 121
f 57 121 56
f 56 121 122
f 56 122 55
f 55 122 123
f 55 123 54
f 54 123 124
f 54 124 53
f 53 124 125
f 53 125 52
f 52 125 126
f 52 126 51
f 51 126 127
f 51 127 50
f 50 127 128
f 50 128 49
f 49 128 129
f 49 129 48
f 48 129 130
f 48 130 47
f 47 130 131
f 47 131 46
f 46 131 132
f 136 156 135
f 135 156 157
f 135 157 178
f 178 157 158
f 178 158 177
f 177 158 159
f 177 159 176
f 176 159 160
f 176 160 175
f 175 160 161
f 175 161 174
f 174 161 162
f 174 162 173
f 173 162 163
f 173 163 172
f 172 163 164
f 172 164 171
f 171 164 165
f 171 165 170
f 170 165 166
f 170 166 169
f 169 166 167
f 169 167 168
f 156 136 155
f 155 136 137
f 155 137 154
f 154 137 138
f 154 138 153
f 153 138 139
f 153 139 152
f 152 139 140
f 152 140 151
f 151 140 141
f 151 141 150
f 150 141 142
f 150 142 149
f 149 142 143
f 149 143 148
f 148 143 144
f 148 144 147
f 147 144 145
f 147 145 146
