v 0.133 0.0032017428 0.48126995
v 0.13369688 0.0033074501 0.48113346
v 0.13423411 0.0035718125 0.4807373
v 0.13448863 0.0039342675 0.48017223
v 0.13440211 0.0043117809 0.47956772
v 0.13399439 0.0046178693 0.47906223
v 0.13335887 0.0047824109 0.47877155
v 0.13264113 0.0047677118 0.47876232
v 0.13200561 0.0045771393 0.47903664
v 0.13159788 0.004254351 0.47953163
v 0.13151137 0.003873294 0.4801339
v 0.13176588 0.0035212636 0.48070553
v 0.13230312 0.0032789063 0.48111553
v 0.135 -0.066798258 0.43726997
v 0.13430312 -0.066721096 0.43711552
v 0.13376589 -0.066478734 0.43670551
v 0.13351137 -0.066126704 0.43613392
v 0.13359789 -0.065745649 0.43553162
v 0.1340056 -0.065422859 0.43503662
v 0.13464113 -0.065232286 0.43476234
v 0.13535887 -0.06521759 0.43477158
v 0.1359944 -0.065382133 0.43506222
v 0.13640211 -0.065688219 0.4355677
v 0.13648863 -0.066065731 0.43617226
v 0.13623411 -0.066428189 0.43673729
v 0.13569688 -0.066692548 0.43713345
v 0.135 -0.066798258 0.43726997
v 0.13569688 -0.066692548 0.43713345
v 0.13623411 -0.066428189 0.43673729
v 0.13648863 -0.066065731 0.43617226
v 0.13640211 -0.065688219 0.4355677
v 0.1359944 -0.065382133 0.43506222
v 0.13535887 -0.06521759 0.43477158
v 0.13464113 -0.065232286 0.43476234
v 0.1340056 -0.065422859 0.43503662
v 0.13359789 -0.065745649 0.43553162
v 0.13351137 -0.066126704 0.43613392
v 0.13376589 -0.066478734 0.43670551
v 0.13430312 -0.066721096 0.43711552
v 0.133 0.0032017428 0.48126995
v 0.13230312 0.0032789063 0.48111553
v 0.13176588 0.0035212636 0.48070553
v 0.13151137 0.003873294 0.4801339
v 0.13159788 0.004254351 0.47953163
v 0.13200561 0.0045771393 0.47903664
v 0.13264113 0.0047677118 0.47876232
v 0.13335887 0.0047824109 0.47877155
v 0.13399439 0.0046178693 0.47906223
v 0.13440211 0.0043117809 0.47956772
v 0.13448863 0.0039342675 0.48017223
v 0.13423411 0.0035718125 0.4807373
v 0.13369688 0.0033074501 0.48113346
v 0.133 0.0032017428 0.48126995
v 0.135 -0.066798258 0.43726997
f 1 2 13
f 13 2 12
f 12 2 3
f 12 3 11
f 11 3 4
f 11 4 10
f 10 4 5
f 10 5 9
f 9 5 6
f 9 6 8
f 8 6 7
f 14 15 26
f 26 15 16
f 26 16 25
f 25 16 17
f 25 17 24
f 24 17 18
f 24 18 23
f 23 18 19
f 23 19 22
f 22 19 20
f 22 20 21
f 28 52 27
f 27 52 53
f 54 40 39
f 39 40 41
f 39 41 38
f 38 41 42
f 38 42 37
f 37 42 43
f 37 43 36
f 36 43 44
f 36 44 35
f 35 44 45
f 35 45 34
f 34 45 46
f 34 46 33
f 33 46 47
f 33 47 32
f 32 47 48
f 32 48 31
f 31 48 49
f 31 49 30
f 30 49 50
f 30 50 29
f 29 50 51
f 29 51 28
f 28 51 52
