v 0.21200001 0.28315338 0.59
v 0.21200001 0.28292868 0.58934586
v 0.21200001 0.28292868 0.58865417
v 0.21200001 0.28315338 0.58799999
v 0.21200001 -0.08 0.58799999
v 0.21200001 -0.136 0.57599998
v 0.21200001 -0.214 0.52400002
v 0.21200001 -0.27200001 0.43900002
v 0.21200001 -0.296 0.35
v 0.21200001 -0.29799999 0.25
v 0.21200001 -0.3 0.25
v 0.21200001 -0.29799999 0.35
v 0.21200001 -0.274 0.44
v 0.21200001 -0.216 0.52599998
v 0.21200001 -0.137 0.57799999
v 0.21200001 -0.08 0.59
v 0.21200001 -0.29799999 0.25
v 0.21200001 -0.296 0.35
v 0.34799999 -0.296 0.35
v 0.34799999 -0.29799999 0.25
v 0.21200001 0.28315338 0.58799999
v 0.34799999 0.28315338 0.58799999
v 0.34799999 -0.08 0.58799999
v 0.21200001 -0.08 0.58799999
v 0.21200001 -0.08 0.59
v 0.21200001 -0.137 0.57799999
v 0.34799999 -0.137 0.57799999
v 0.34799999 -0.08 0.59
v 0.21200001 -0.27200001 0.43900002
v 0.21200001 -0.214 0.52400002
v 0.34799999 -0.214 0.52400002
v 0.34799999 -0.27200001 0.43900002
v 0.21200001 -0.3 0.25
v 0.21200001 -0.29799999 0.25
v 0.34799999 -0.29799999 0.25
v 0.34799999 -0.3 0.25
v 0.21200001 -0.216 0.52599998
v 0.21200001 -0.274 0.44
v 0.34799999 -0.274 0.44
v 0.34799999 -0.216 0.52599998
v 0.34799999 0.28315338 0.59
v 0.21200001 0.28315338 0.59
v 0.21200001 -0.08 0.59
v 0.34799999 -0.08 0.59
v 0.21200001 0.28684662 0.58799999
v 0.34799999 0.28684662 0.58799999
v 0.34799999 0.28707132 0.58865417
v 0.34799999 0.28707132 0.58934586
v 0.34799999 0.28684662 0.59
v 0.21200001 0.28684662 0.59
v 0.21200001 0.28707132 0.58934586
v 0.21200001 0.28707132 0.58865417
v 0.21200001 -0.214 0.52400002
v 0.21200001 -0.136 0.57599998
v 0.34799999 -0.136 0.57599998
v 0.34799999 -0.214 0.52400002
v 0.34799999 0.28684662 0.58799999
v 0.21200001 0.28684662 0.58799999
v 0.21200001 0.29200001 0.58799999
v 0.34799999 0.29200001 0.58799999
v 0.21200001 -0.29799999 0.35
v 0.21200001 -0.3 0.25
v 0.34799999 -0.3 0.25
v 0.34799999 -0.29799999 0.35
v 0.21200001 -0.296 0.35
v 0.21200001 -0.27200001 0.43900002
v 0.34799999 -0.27200001 0.43900002
v 0.34799999 -0.296 0.35
v 0.21200001 0.28684662 0.59
v 0.34799999 0.28684662 0.59
v 0.34799999 0.29200001 0.59
v 0.21200001 0.29200001 0.59
v 0.34799999 0.28315338 0.58799999
v 0.21200001 0.28315338 0.58799999
v 0.21200001 0.28292868 0.58865417
v 0.21200001 0.28292868 0.58934586
v 0.21200001 0.28315338 0.59
v 0.34799999 0.28315338 0.59
v 0.34799999 0.28292868 0.58934586
v 0.34799999 0.28292868 0.58865417
v 0.21200001 0.29200001 0.58799999
v 0.21200001 0.29200001 0.59
v 0.34799999 0.29200001 0.59
v 0.34799999 0.29200001 0.58799999
v 0.21200001 0.28684662 0.58799999
v 0.21200001 0.28707132 0.58865417
v 0.21200001 0.28707132 0.58934586
v 0.21200001 0.28684662 0.59
v 0.21200001 0.29200001 0.59
v 0.21200001 0.29200001 0.58799999
v 0.34799999 0.28315338 0.58799999
v 0.34799999 0.28292868 0.58865417
v 0.34799999 0.28292868 0.58934586
v 0.34799999 0.28315338 0.59
v 0.34799999 -0.08 0.59
v 0.34799999 -0.137 0.57799999
v 0.34799999 -0.216 0.52599998
v 0.34799999 -0.274 0.44
v 0.34799999 -0.29799999 0.35
v 0.34799999 -0.3 0.25
v 0.34799999 -0.29799999 0.25
v 0.34799999 -0.296 0.35
v 0.34799999 -0.27200001 0.43900002
v 0.34799999 -0.214 0.52400002
v 0.34799999 -0.136 0.57599998
v 0.34799999 -0.08 0.58799999
v 0.21200001 -0.137 0.57799999
v 0.21200001 -0.216 0.52599998
v 0.34799999 -0.216 0.52599998
v 0.34799999 -0.137 0.57799999
v 0.21200001 -0.136 0.57599998
v 0.21200001 -0.08 0.58799999
v 0.34799999 -0.08 0.58799999
v 0.34799999 -0.136 0.57599998
v 0.34799999 0.28684662 0.59
v 0.34799999 0.28707132 0.58934586
v 0.34799999 0.28707132 0.58865417
v 0.34799999 0.28684662 0.58799999
v 0.34799999 0.29200001 0.58799999
v 0.34799999 0.29200001 0.59
v 0.21200001 -0.274 0.44
v 0.21200001 -0.29799999 0.35
v 0.34799999 -0.29799999 0.35
v 0.34799999 -0.274 0.44
f 1 2 16
f 16 2 3
f 16 3 5
f 5 3 4
f 16 5 15
f 15 5 6
f 15 6 14
f 14 6 7
f 14 7 13
f 13 7 8
f 13 8 12
f 12 8 9
f 12 9 10
f 10 11 12
f 17 18 20
f 20 18 19
f 22 23 21
f 21 23 24
f 25 26 28
f 28 26 27
f 29 30 32
f 32 30 31
f 33 34 36
f 36 34 35
f 37 38 40
f 40 38 39
f 42 43 41
f 41 43 44
f 45 46 52
f 52 46 47
f 52 47 51
f 51 47 48
f 51 48 50
f 50 48 49
f 53 54 56
f 56 54 55
f 58 59 57
f 57 59 60
f 61 62 64
f 64 62 63
f 65 66 68
f 68 66 67
f 70 71 69
f 69 71 72
f 73 74 80
f 80 74 75
f 80 75 79
f 79 75 76
f 79 76 78
f 78 76 77
f 81 82 84
f 84 82 83
f 85 86 90
f 90 86 87
f 90 87 89
f 89 87 88
f 91 92 106
f 106 92 93
f 106 93 95
f 95 93 94
f 95 96 106
f 106 96 105
f 105 96 97
f 105 97 104
f 104 97 98
f 104 98 103
f 103 98 99
f 103 99 102
f 102 99 101
f 101 99 100
f 107 108 110
f 110 108 109
f 111 112 114
f 114 112 113
f 115 116 120
f 120 116 117
f 120 117 119
f 119 117 118
f 121 122 124
f 124 122 123
