v -0.0030000001 0.018907 0.091309996
v -0.0030000001 0.018907 0.086309996
v -0.0030000001 0.018887 0.086309996
v -0.0030000001 0.018887 0.091309996
v 0.0030000001 0.018887 0.091309996
v 0.0030000001 0.018907 0.091309996
v -0.0030000001 0.018907 0.091309996
v -0.0030000001 0.018887 0.091309996
v 0.0030000001 0.018887 0.091309996
v 0.0030000001 0.018887 0.086309996
v 0.0030000001 0.018907 0.086309996
v 0.0030000001 0.018907 0.091309996
v 0.0030000001 0.018907 0.086309996
v 0.0030000001 0.018887 0.086309996
v -0.0030000001 0.018887 0.086309996
v -0.0030000001 0.018907 0.086309996
v 0.0030000001 0.018907 0.091309996
v 0.0030000001 0.018907 0.086309996
v -0.0030000001 0.018907 0.086309996
v -0.0030000001 0.018907 0.091309996
v -0.0030000001 0.018887 0.091309996
v -0.0030000001 0.018887 0.086309996
v 0.0030000001 0.018887 0.086309996
v 0.0030000001 0.018887 0.091309996
f 1 2 4
f 4 2 3
f 6 7 5
f 5 7 8
f 9 10 12
f 12 10 11
f 14 15 13
f 13 15 16
f 17 18 20
f 20 18 19
f 21 22 24
f 24 22 23
