v 0.33200001 -0.28200001 0.185
v 0.33200001 0.25799999 0.255
v 0.33400002 0.25799999 0.255
v 0.33400002 -0.28200001 0.185
v 0.33400002 0.18085714 0.26299999
v 0.33200001 0.18085714 0.26299999
v 0.33200001 -0.28200001 0.20299999
v 0.33400002 -0.28200001 0.20299999
v 0.33200001 -0.28200001 0.20299999
v 0.33200001 -0.28200001 0.185
v 0.33400002 -0.28200001 0.185
v 0.33400002 -0.28200001 0.20299999
v 0.33200001 0.25200001 0.269
v 0.33400002 0.25200001 0.269
v 0.33400002 0.22714285 0.269
v 0.33200001 0.22714285 0.269
v 0.33400002 0.25200001 0.269
v 0.33200001 0.25200001 0.269
v 0.33200001 0.25200001 0.27222221
v 0.33400002 0.25200001 0.27222221
v 0.33200001 0.25799999 0.26299999
v 0.33400002 0.25799999 0.26299999
v 0.33400002 0.25799999 0.255
v 0.33200001 0.25799999 0.255
v 0.33200001 0.25799999 0.26299999
v 0.33200001 0.18085714 0.26299999
v 0.33400002 0.18085714 0.26299999
v 0.33400002 0.25799999 0.26299999
v 0.33200001 0.25200001 0.27222221
v 0.33200001 0.25200001 0.269
v 0.33200001 0.22714285 0.269
v 0.33400002 0.25799999 0.26299999
v 0.33400002 0.18085714 0.26299999
v 0.33400002 -0.28200001 0.20299999
v 0.33400002 -0.28200001 0.185
v 0.33400002 0.25799999 0.255
v 0.33200001 0.18085714 0.26299999
v 0.33200001 0.25799999 0.26299999
v 0.33200001 0.25799999 0.255
v 0.33200001 -0.28200001 0.185
v 0.33200001 -0.28200001 0.20299999
v 0.33400002 0.25200001 0.269
v 0.33400002 0.25200001 0.27222221
v 0.33400002 0.22714285 0.269
v 0.33400002 0.25200001 0.27222221
v 0.33200001 0.25200001 0.27222221
v 0.33200001 0.22714285 0.269
v 0.33400002 0.22714285 0.269
f 1 2 4
f 4 2 3
f 6 7 5
f 5 7 8
f 9 10 12
f 12 10 11
f 13 14 16
f 16 14 15
f 18 19 17
f 17 19 20
f 22 23 21
f 21 23 24
f 26 27 25
f 25 27 28
f 29 30 31
f 32 33 36
f 36 33 34
f 36 34 35
f 38 39 37
f 37 39 41
f 41 39 40
f 42 43 44
f 46 47 45
f 45 47 48
