v 0.10515927 0.075928988 9.9999998e-05
v 0.1053057 0.076604452 9.9999998e-05
v 0.1053545 0.077463164 9.9999998e-05
v 0.1053545 0.077463164 0.000125
v 0.1053057 0.076604452 0.000125
v 0.10515927 0.075928988 0.000125
v 0.1053545 0.077463164 9.9999998e-05
v 0.10532412 0.078183746 9.9999998e-05
v 0.10523294 0.078739495 9.9999998e-05
v 0.10523294 0.078739495 0.000125
v 0.10532412 0.078183746 0.000125
v 0.1053545 0.077463164 0.000125
v 0.10457544 0.075026536 9.9999998e-05
v 0.1049157 0.075411458 9.9999998e-05
v 0.10515927 0.075928988 9.9999998e-05
v 0.10515927 0.075928988 0.000125
v 0.1049157 0.075411458 0.000125
v 0.10457544 0.075026536 0.000125
v 0.10523294 0.078739495 9.9999998e-05
v 0.10489775 0.079542499 9.9999998e-05
v 0.10489775 0.079542499 0.000125
v 0.10523294 0.078739495 0.000125
v 0.1035938 0.074707913 9.9999998e-05
v 0.10413572 0.074787569 9.9999998e-05
v 0.10457544 0.075026536 9.9999998e-05
v 0.10457544 0.075026536 0.000125
v 0.10413572 0.074787569 0.000125
v 0.1035938 0.074707913 0.000125
v 0.10489775 0.079542499 9.9999998e-05
v 0.10435628 0.080047131 9.9999998e-05
v 0.10435628 0.080047131 0.000125
v 0.10489775 0.079542499 0.000125
v 0.10236719 0.075267801 9.9999998e-05
v 0.10289669 0.074847884 9.9999998e-05
v 0.1035938 0.074707913 9.9999998e-05
v 0.1035938 0.074707913 0.000125
v 0.10289669 0.074847884 0.000125
v 0.10236719 0.075267801 0.000125
v 0.10435628 0.080047131 9.9999998e-05
v 0.10400174 0.080178356 9.9999998e-05
v 0.1035938 0.080222101 9.9999998e-05
v 0.1035938 0.080222101 0.000125
v 0.10400174 0.080178356 0.000125
v 0.10435628 0.080047131 0.000125
v 0.10183309 0.077463164 9.9999998e-05
v 0.10186646 0.076755476 9.9999998e-05
v 0.10196661 0.076153684 9.9999998e-05
v 0.10213352 0.075657792 9.9999998e-05
v 0.10236719 0.075267801 9.9999998e-05
v 0.10236719 0.075267801 0.000125
v 0.10213352 0.075657792 0.000125
v 0.10196661 0.076153684 0.000125
v 0.10186646 0.076755476 0.000125
v 0.10183309 0.077463164 0.000125
v 0.1035938 0.080222101 9.9999998e-05
v 0.10305462 0.080142908 9.9999998e-05
v 0.10261582 0.079905319 9.9999998e-05
v 0.10261582 0.079905319 0.000125
v 0.10305462 0.080142908 0.000125
v 0.1035938 0.080222101 0.000125
v 0.10261582 0.079905319 9.9999998e-05
v 0.1022751 0.079521775 9.9999998e-05
v 0.10203015 0.079004707 9.9999998e-05
v 0.10203015 0.079004707 0.000125
v 0.1022751 0.079521775 0.000125
v 0.10261582 0.079905319 0.000125
v 0.10203015 0.079004707 9.9999998e-05
v 0.10188235 0.078327403 9.9999998e-05
v 0.10183309 0.077463164 9.9999998e-05
v 0.10183309 0.077463164 0.000125
v 0.10188235 0.078327403 0.000125
v 0.10203015 0.079004707 0.000125
v 0.10251453 0.077463164 0.000125
v 0.10253594 0.078075776 0.000125
v 0.10260017 0.078583865 0.000125
v 0.10270722 0.078987441 0.000125
v 0.10285709 0.079286494 0.000125
v 0.10317572 0.079576569 0.000125
v 0.10358643 0.079673262 0.000125
v 0.10401233 0.079563675 0.000125
v 0.1043618 0.079234924 0.000125
v 0.10449798 0.078959813 0.000125
v 0.10459524 0.078572817 0.000125
v 0.10465361 0.078073936 0.000125
v 0.10467305 0.077463164 0.000125
v 0.10465361 0.076855388 0.000125
v 0.10459524 0.076358118 0.000125
v 0.10449798 0.075971351 0.000125
v 0.1043618 0.07569509 0.000125
v 0.10401417 0.075363574 0.000125
v 0.1035938 0.075253067 0.000125
v 0.10317342 0.075363111 0.000125
v 0.10282578 0.075693245 0.000125
v 0.10268961 0.075968933 0.000125
v 0.10259234 0.076355815 0.000125
v 0.10253398 0.07685389 0.000125
v 0.10183309 0.077463164 0.000125
v 0.10186646 0.076755476 0.000125
v 0.10196661 0.076153684 0.000125
v 0.10213352 0.075657792 0.000125
v 0.10236719 0.075267801 0.000125
v 0.10289669 0.074847884 0.000125
v 0.1035938 0.074707913 0.000125
v 0.10413572 0.074787569 0.000125
v 0.10457544 0.075026536 0.000125
v 0.1049157 0.075411458 0.000125
v 0.10515927 0.075928988 0.000125
v 0.1053057 0.076604452 0.000125
v 0.1053545 0.077463164 0.000125
v 0.10532412 0.078183746 0.000125
v 0.10523294 0.078739495 0.000125
v 0.10489775 0.079542499 0.000125
v 0.10435628 0.080047131 0.000125
v 0.10400174 0.080178356 0.000125
v 0.1035938 0.080222101 0.000125
v 0.10305462 0.080142908 0.000125
v 0.10261582 0.079905319 0.000125
v 0.1022751 0.079521775 0.000125
v 0.10203015 0.079004707 0.000125
v 0.10188235 0.078327403 0.000125
v 0.10251453 0.077463164 9.9999998e-05
v 0.10253594 0.078075776 9.9999998e-05
v 0.10260017 0.078583865 9.9999998e-05
v 0.10270722 0.078987441 9.9999998e-05
v 0.10285709 0.079286494 9.9999998e-05
v 0.10285709 0.079286494 0.000125
v 0.10270722 0.078987441 0.000125
v 0.10260017 0.078583865 0.000125
v 0.10253594 0.078075776 0.000125
v 0.10251453 0.077463164 0.000125
v 0.10285709 0.079286494 9.9999998e-05
v 0.10317572 0.079576569 9.9999998e-05
v 0.10358643 0.079673262 9.9999998e-05
v 0.10358643 0.079673262 0.000125
v 0.10317572 0.079576569 0.000125
v 0.10285709 0.079286494 0.000125
v 0.10285709 0.079286494 9.9999998e-05
v 0.10270722 0.078987441 9.9999998e-05
v 0.10260017 0.078583865 9.9999998e-05
v 0.10253594 0.078075776 9.9999998e-05
v 0.10251453 0.077463164 9.9999998e-05
v 0.10253398 0.07685389 9.9999998e-05
v 0.10259234 0.076355815 9.9999998e-05
v 0.10268961 0.075968933 9.9999998e-05
v 0.10282578 0.075693245 9.9999998e-05
v 0.10317342 0.075363111 9.9999998e-05
v 0.1035938 0.075253067 9.9999998e-05
v 0.10401417 0.075363574 9.9999998e-05
v 0.1043618 0.07569509 9.9999998e-05
v 0.10449798 0.075971351 9.9999998e-05
v 0.10459524 0.076358118 9.9999998e-05
v 0.10465361 0.076855388 9.9999998e-05
v 0.10467305 0.077463164 9.9999998e-05
v 0.10465361 0.078073936 9.9999998e-05
v 0.10459524 0.078572817 9.9999998e-05
v 0.10449798 0.078959813 9.9999998e-05
v 0.1043618 0.079234924 9.9999998e-05
v 0.10401233 0.079563675 9.9999998e-05
v 0.10358643 0.079673262 9.9999998e-05
v 0.10317572 0.079576569 9.9999998e-05
v 0.10236719 0.075267801 9.9999998e-05
v 0.10213352 0.075657792 9.9999998e-05
v 0.10196661 0.076153684 9.9999998e-05
v 0.10186646 0.076755476 9.9999998e-05
v 0.10183309 0.077463164 9.9999998e-05
v 0.10188235 0.078327403 9.9999998e-05
v 0.10203015 0.079004707 9.9999998e-05
v 0.1022751 0.079521775 9.9999998e-05
v 0.10261582 0.079905319 9.9999998e-05
v 0.10305462 0.080142908 9.9999998e-05
v 0.1035938 0.080222101 9.9999998e-05
v 0.10400174 0.080178356 9.9999998e-05
v 0.10435628 0.080047131 9.9999998e-05
v 0.10489775 0.079542499 9.9999998e-05
v 0.10523294 0.078739495 9.9999998e-05
v 0.10532412 0.078183746 9.9999998e-05
v 0.1053545 0.077463164 9.9999998e-05
v 0.1053057 0.076604452 9.9999998e-05
v 0.10515927 0.075928988 9.9999998e-05
v 0.1049157 0.075411458 9.9999998e-05
v 0.10457544 0.075026536 9.9999998e-05
v 0.10413572 0.074787569 9.9999998e-05
v 0.1035938 0.074707913 9.9999998e-05
v 0.10289669 0.074847884 9.9999998e-05
v 0.10358643 0.079673262 9.9999998e-05
v 0.10401233 0.079563675 9.9999998e-05
v 0.1043618 0.079234924 9.9999998e-05
v 0.1043618 0.079234924 0.000125
v 0.10401233 0.079563675 0.000125
v 0.10358643 0.079673262 0.000125
v 0.1043618 0.079234924 9.9999998e-05
v 0.10449798 0.078959813 9.9999998e-05
v 0.10459524 0.078572817 9.9999998e-05
v 0.10465361 0.078073936 9.9999998e-05
v 0.10467305 0.077463164 9.9999998e-05
v 0.10467305 0.077463164 0.000125
v 0.10465361 0.078073936 0.000125
v 0.10459524 0.078572817 0.000125
v 0.10449798 0.078959813 0.000125
v 0.1043618 0.079234924 0.000125
v 0.10467305 0.077463164 9.9999998e-05
v 0.10465361 0.076855388 9.9999998e-05
v 0.10459524 0.076358118 9.9999998e-05
v 0.10449798 0.075971351 9.9999998e-05
v 0.1043618 0.07569509 9.9999998e-05
v 0.1043618 0.07569509 0.000125
v 0.10449798 0.075971351 0.000125
v 0.10459524 0.076358118 0.000125
v 0.10465361 0.076855388 0.000125
v 0.10467305 0.077463164 0.000125
v 0.1043618 0.07569509 9.9999998e-05
v 0.10401417 0.075363574 9.9999998e-05
v 0.1035938 0.075253067 9.9999998e-05
v 0.1035938 0.075253067 0.000125
v 0.10401417 0.075363574 0.000125
v 0.1043618 0.07569509 0.000125
v 0.1035938 0.075253067 9.9999998e-05
v 0.10317342 0.075363111 9.9999998e-05
v 0.10282578 0.075693245 9.9999998e-05
v 0.10282578 0.075693245 0.000125
v 0.10317342 0.075363111 0.000125
v 0.1035938 0.075253067 0.000125
v 0.10282578 0.075693245 9.9999998e-05
v 0.10268961 0.075968933 9.9999998e-05
v 0.10259234 0.076355815 9.9999998e-05
v 0.10253398 0.07685389 9.9999998e-05
v 0.10251453 0.077463164 9.9999998e-05
v 0.10251453 0.077463164 0.000125
v 0.10253398 0.07685389 0.000125
v 0.10259234 0.076355815 0.000125
v 0.10268961 0.075968933 0.000125
v 0.10282578 0.075693245 0.000125
f 1 2 6
f 6 2 5
f 5 2 3
f 5 3 4
f 7 8 12
f 12 8 11
f 11 8 9
f 11 9 10
f 13 14 18
f 18 14 17
f 17 14 15
f 17 15 16
f 19 20 22
f 22 20 21
f 23 24 28
f 28 24 27
f 27 24 25
f 27 25 26
f 29 30 32
f 32 30 31
f 33 34 38
f 38 34 37
f 37 34 35
f 37 35 36
f 39 40 44
f 44 40 43
f 43 40 41
f 43 41 42
f 45 46 54
f 54 46 53
f 53 46 47
f 53 47 52
f 52 47 48
f 52 48 51
f 51 48 49
f 51 49 50
f 55 56 60
f 60 56 59
f 59 56 57
f 59 57 58
f 61 62 66
f 66 62 65
f 65 62 63
f 65 63 64
f 67 68 72
f 72 68 71
f 71 68 69
f 71 69 70
f 74 97 73
f 73 97 98
f 73 98 96
f 96 98 99
f 96 99 95
f 95 99 100
f 95 100 94
f 94 100 101
f 94 101 93
f 93 101 102
f 93 102 92
f 92 102 103
f 92 103 91
f 91 103 104
f 91 104 90
f 90 104 105
f 90 105 89
f 89 105 106
f 89 106 88
f 88 106 107
f 88 107 87
f 87 107 108
f 87 108 86
f 86 108 109
f 86 109 85
f 85 109 110
f 85 110 84
f 84 110 111
f 84 111 83
f 83 111 82
f 82 111 112
f 82 112 81
f 81 112 113
f 81 113 80
f 80 113 114
f 80 114 79
f 79 114 115
f 79 115 116
f 97 74 120
f 120 74 75
f 120 75 119
f 119 75 76
f 119 76 118
f 118 76 77
f 118 77 117
f 117 77 78
f 117 78 116
f 116 78 79
f 121 122 130
f 130 122 129
f 129 122 123
f 129 123 128
f 128 123 124
f 128 124 127
f 127 124 125
f 127 125 126
f 131 132 136
f 136 132 135
f 135 132 133
f 135 133 134
f 138 168 137
f 137 168 169
f 137 169 160
f 160 169 170
f 160 170 159
f 159 170 171
f 159 171 172
f 168 138 167
f 167 138 139
f 167 139 166
f 166 139 140
f 166 140 165
f 165 140 141
f 165 141 164
f 164 141 142
f 164 142 163
f 163 142 143
f 163 143 162
f 162 143 144
f 162 144 161
f 161 144 145
f 161 145 184
f 184 145 146
f 184 146 183
f 183 146 147
f 183 147 182
f 182 147 148
f 182 148 181
f 181 148 149
f 181 149 180
f 180 149 150
f 180 150 179
f 179 150 151
f 179 151 178
f 178 151 152
f 178 152 177
f 177 152 153
f 177 153 176
f 176 153 154
f 176 154 175
f 175 154 155
f 175 155 156
f 175 156 174
f 174 156 157
f 174 157 173
f 173 157 158
f 173 158 172
f 172 158 159
f 185 186 190
f 190 186 189
f 189 186 187
f 189 187 188
f 191 192 200
f 200 192 199
f 199 192 193
f 199 193 198
f 198 193 194
f 198 194 197
f 197 194 195
f 197 195 196
f 201 202 210
f 210 202 209
f 209 202 203
f 209 203 208
f 208 203 204
f 208 204 207
f 207 204 205
f 207 205 206
f 211 212 216
f 216 212 215
f 215 212 213
f 215 213 214
f 217 218 222
f 222 218 221
f 221 218 219
f 221 219 220
f 223 224 232
f 232 224 231
f 231 224 225
f 231 225 230
f 230 225 226
f 230 226 229
f 229 226 227
f 229 227 228
