v 0.74885002 0.3 0.535
v 0.74885002 0.75 0.535
v 0.74885002 0.75 0.54
v 0.74885002 0.3 0.54
v 0.74885002 0.28953014 0.53980335
v 0.74885002 0.27907307 0.53921368
v 0.74885002 0.26864145 0.53823166
v 0.74885002 0.25824806 0.53685852
v 0.74885002 0.24790554 0.53509594
v 0.74885002 0.2376265 0.53294605
v 0.74885002 0.22742344 0.53041145
v 0.74885002 0.21730879 0.52749527
v 0.74885002 0.2072949 0.52420105
v 0.74885002 0.19739395 0.52053276
v 0.74885002 0.18761803 0.51649494
v 0.74885002 0.17797901 0.51209248
v 0.74885002 0.16848866 0.5073307
v 0.74885002 0.15915854 0.5022155
v 0.74885002 0.15 0.49675301
v 0.74885002 0.14102422 0.49094994
v 0.74885002 0.13224213 0.48481335
v 0.74885002 0.12366443 0.47835068
v 0.74885002 0.11530156 0.47156986
v 0.74885002 0.10716372 0.46447914
v 0.74885002 0.099260817 0.45708714
v 0.74885002 0.091602488 0.44940289
v 0.74885002 0.084198055 0.44143574
v 0.74885002 0.077056551 0.43319534
v 0.74885002 0.070186667 0.42469185
v 0.74885002 0.063596773 0.41593552
v 0.74885002 0.057294903 0.40693707
v 0.74885002 0.051288729 0.39770748
v 0.74885002 0.04558557 0.38825794
v 0.74885002 0.04019238 0.37860001
v 0.74885002 0.035115721 0.36874542
v 0.74885002 0.030361786 0.35870621
v 0.74885002 0.025936363 0.34849461
v 0.74885002 0.021844845 0.33812302
v 0.74885002 0.018092214 0.3276041
v 0.74885002 0.014683045 0.31695068
v 0.74885002 0.011621491 0.30617575
v 0.74885002 0.0089112818 0.2952924
v 0.74885002 0.00655572 0.28431389
v 0.74885002 0.0045576742 0.27325363
v 0.74885002 0.0029195794 0.26212507
v 0.74885002 0.0016434313 0.25094179
v 0.74885002 0.00073078491 0.23971739
v 0.74885002 0.0001827519 0.22846556
v 0.74885002 0 0.21719999
v 0.74885002 0 0.21219999
v 0.74885002 3.598324e-05 0.21719948
v 0.74885002 0.00023745727 0.22504087
v 0.74885002 0.00061595391 0.23287468
v 0.74885002 0.0011712497 0.2406963
v 0.74885002 0.0019030166 0.24850107
v 0.74885002 0.0028108227 0.25628441
v 0.74885002 0.0038941315 0.26404171
v 0.74885002 0.0051523036 0.2717684
v 0.74885002 0.006584596 0.2794599
v 0.74885002 0.0081901628 0.2871117
v 0.74885002 0.0099680555 0.29471924
v 0.74885002 0.011917225 0.30227806
v 0.74885002 0.01403652 0.30978369
v 0.74885002 0.016324687 0.31723169
v 0.74885002 0.018780378 0.32461765
v 0.74885002 0.02140214 0.33193726
v 0.74885002 0.024188428 0.33918613
v 0.74885002 0.027137592 0.34636002
v 0.74885002 0.030247893 0.35345467
v 0.74885002 0.033517497 0.36046593
v 0.74885002 0.036944468 0.3673896
v 0.74885002 0.040526786 0.37422165
v 0.74885002 0.044262333 0.38095798
v 0.74885002 0.048148904 0.38759468
v 0.74885002 0.052184205 0.39412781
v 0.74885002 0.056365852 0.40055347
v 0.74885002 0.060691371 0.40686794
v 0.74885002 0.065158219 0.41306744
v 0.74885002 0.069763746 0.41914829
v 0.74885002 0.074505239 0.42510696
v 0.74885002 0.079379897 0.4309399
v 0.74885002 0.084384842 0.43664364
v 0.74885002 0.089517117 0.44221485
v 0.74885002 0.094773684 0.44765022
v 0.74885002 0.10015145 0.45294659
v 0.74885002 0.10564724 0.45810074
v 0.74885002 0.1112578 0.46310966
v 0.74885002 0.11697982 0.46797047
v 0.74885002 0.12280992 0.47268021
v 0.74885002 0.12874466 0.4772361
v 0.74885002 0.13478053 0.48163548
v 0.74885002 0.14091397 0.48587578
v 0.74885002 0.14714136 0.48995441
v 0.74885002 0.15345902 0.49386906
v 0.74885002 0.15986322 0.49761734
v 0.74885002 0.16635017 0.50119709
v 0.74885002 0.17291605 0.50460617
v 0.74885002 0.17955698 0.5078426
v 0.74885002 0.18626904 0.51090439
v 0.74885002 0.19304827 0.51378983
v 0.74885002 0.19989063 0.51649712
v 0.74885002 0.20679213 0.51902473
v 0.74885002 0.21374868 0.52137115
v 0.74885002 0.22075615 0.523535
v 0.74885002 0.22781042 0.52551498
v 0.74885002 0.23490732 0.52730995
v 0.74885002 0.24204268 0.5289188
v 0.74885002 0.24921225 0.53034065
v 0.74885002 0.2564118 0.53157463
v 0.74885002 0.2636371 0.53261997
v 0.74885002 0.27088388 0.5334761
v 0.74885002 0.27814785 0.53414253
v 0.74885002 0.28542473 0.5346188
v 0.74885002 0.29271021 0.53490467
v 0.044000001 0.75 0.535
v 0.044000001 0.3 0.535
v 0.044000001 0.29271021 0.53490467
v 0.044000001 0.28542473 0.5346188
v 0.044000001 0.27814785 0.53414253
v 0.044000001 0.27088388 0.5334761
v 0.044000001 0.2636371 0.53261997
v 0.044000001 0.2564118 0.53157463
v 0.044000001 0.24921225 0.53034065
v 0.044000001 0.24204268 0.5289188
v 0.044000001 0.23490732 0.52730995
v 0.044000001 0.22781042 0.52551498
v 0.044000001 0.22075615 0.523535
v 0.044000001 0.21374868 0.52137115
v 0.044000001 0.20679213 0.51902473
v 0.044000001 0.19989063 0.51649712
v 0.044000001 0.19304827 0.51378983
v 0.044000001 0.18626904 0.51090439
v 0.044000001 0.17955698 0.5078426
v 0.044000001 0.17291605 0.50460617
v 0.044000001 0.16635017 0.50119709
v 0.044000001 0.15986322 0.49761734
v 0.044000001 0.15345902 0.49386906
v 0.044000001 0.14714136 0.48995441
v 0.044000001 0.14091397 0.48587578
v 0.044000001 0.13478053 0.48163548
v 0.044000001 0.12874466 0.4772361
v 0.044000001 0.12280992 0.47268021
v 0.044000001 0.11697982 0.46797047
v 0.044000001 0.1112578 0.46310966
v 0.044000001 0.10564724 0.45810074
v 0.044000001 0.10015145 0.45294659
v 0.044000001 0.094773684 0.44765022
v 0.044000001 0.089517117 0.44221485
v 0.044000001 0.084384842 0.43664364
v 0.044000001 0.079379897 0.4309399
v 0.044000001 0.074505239 0.42510696
v 0.044000001 0.069763746 0.41914829
v 0.044000001 0.065158219 0.41306744
v 0.044000001 0.060691371 0.40686794
v 0.044000001 0.056365852 0.40055347
v 0.044000001 0.052184205 0.39412781
v 0.044000001 0.048148904 0.38759468
v 0.044000001 0.044262333 0.38095798
v 0.044000001 0.040526786 0.37422165
v 0.044000001 0.036944468 0.3673896
v 0.044000001 0.033517497 0.36046593
v 0.044000001 0.030247893 0.35345467
v 0.044000001 0.027137592 0.34636002
v 0.044000001 0.024188428 0.33918613
v 0.044000001 0.02140214 0.33193726
v 0.044000001 0.018780378 0.32461765
v 0.044000001 0.016324687 0.31723169
v 0.044000001 0.01403652 0.30978369
v 0.044000001 0.011917225 0.30227806
v 0.044000001 0.0099680555 0.29471924
v 0.044000001 0.0081901628 0.2871117
v 0.044000001 0.006584596 0.2794599
v 0.044000001 0.0051523036 0.2717684
v 0.044000001 0.0038941315 0.26404171
v 0.044000001 0.0028108227 0.25628441
v 0.044000001 0.0019030166 0.24850107
v 0.044000001 0.0011712497 0.2406963
v 0.044000001 0.00061595391 0.23287468
v 0.044000001 0.00023745727 0.22504087
v 0.044000001 3.598324e-05 0.21719948
v 0.044000001 0 0.21219999
v 0.044000001 0 0.21719999
v 0.044000001 0.0001827519 0.22846556
v 0.044000001 0.00073078491 0.23971739
v 0.044000001 0.0016434313 0.25094179
v 0.044000001 0.0029195794 0.26212507
v 0.044000001 0.0045576742 0.27325363
v 0.044000001 0.00655572 0.28431389
v 0.044000001 0.0089112818 0.2952924
v 0.044000001 0.011621491 0.30617575
v 0.044000001 0.014683045 0.31695068
v 0.044000001 0.018092214 0.3276041
v 0.044000001 0.021844845 0.33812302
v 0.044000001 0.025936363 0.34849461
v 0.044000001 0.030361786 0.35870621
v 0.044000001 0.035115721 0.36874542
v 0.044000001 0.04019238 0.37860001
v 0.044000001 0.04558557 0.38825794
v 0.044000001 0.051288729 0.39770748
v 0.044000001 0.057294903 0.40693707
v 0.044000001 0.063596773 0.41593552
v 0.044000001 0.070186667 0.42469185
v 0.044000001 0.077056551 0.43319534
v 0.044000001 0.084198055 0.44143574
v 0.044000001 0.091602488 0.44940289
v 0.044000001 0.099260817 0.45708714
v 0.044000001 0.10716372 0.46447914
v 0.044000001 0.11530156 0.47156986
v 0.044000001 0.12366443 0.47835068
v 0.044000001 0.13224213 0.48481335
v 0.044000001 0.14102422 0.49094994
v 0.044000001 0.15 0.49675301
v 0.044000001 0.15915854 0.5022155
v 0.044000001 0.16848866 0.5073307
v 0.044000001 0.17797901 0.51209248
v 0.044000001 0.18761803 0.51649494
v 0.044000001 0.19739395 0.52053276
v 0.044000001 0.2072949 0.52420105
v 0.044000001 0.21730879 0.52749527
v 0.044000001 0.22742344 0.53041145
v 0.044000001 0.2376265 0.53294605
v 0.044000001 0.24790554 0.53509594
v 0.044000001 0.25824806 0.53685852
v 0.044000001 0.26864145 0.53823166
v 0.044000001 0.27907307 0.53921368
v 0.044000001 0.28953014 0.53980335
v 0.044000001 0.3 0.54
v 0.044000001 0.75 0.54
v 0.044000001 0.3 0.535
v 0.044000001 0.75 0.535
v 0.74885002 0.75 0.535
v 0.74885002 0.3 0.535
v 0.044000001 0.75 0.535
v 0.044000001 0.75 0.54
v 0.74885002 0.75 0.54
v 0.74885002 0.75 0.535
v 0.044000001 0.75 0.54
v 0.044000001 0.3 0.54
v 0.74885002 0.3 0.54
v 0.74885002 0.75 0.54
v 0.044000001 0.3 0.54
v 0.044000001 0.28953014 0.53980335
v 0.044000001 0.27907307 0.53921368
v 0.044000001 0.26864145 0.53823166
v 0.044000001 0.25824806 0.53685852
v 0.044000001 0.24790554 0.53509594
v 0.044000001 0.2376265 0.53294605
v 0.044000001 0.22742344 0.53041145
v 0.044000001 0.21730879 0.52749527
v 0.044000001 0.2072949 0.52420105
v 0.044000001 0.19739395 0.52053276
v 0.044000001 0.18761803 0.51649494
v 0.044000001 0.17797901 0.51209248
v 0.044000001 0.16848866 0.5073307
v 0.044000001 0.15915854 0.5022155
v 0.044000001 0.15 0.49675301
v 0.044000001 0.14102422 0.49094994
v 0.044000001 0.13224213 0.48481335
v 0.044000001 0.12366443 0.47835068
v 0.044000001 0.11530156 0.47156986
v 0.044000001 0.10716372 0.46447914
v 0.044000001 0.099260817 0.45708714
v 0.044000001 0.091602488 0.44940289
v 0.044000001 0.084198055 0.44143574
v 0.044000001 0.077056551 0.43319534
v 0.044000001 0.070186667 0.42469185
v 0.044000001 0.063596773 0.41593552
v 0.044000001 0.057294903 0.40693707
v 0.044000001 0.051288729 0.39770748
v 0.044000001 0.04558557 0.38825794
v 0.044000001 0.04019238 0.37860001
v 0.044000001 0.035115721 0.36874542
v 0.044000001 0.030361786 0.35870621
v 0.044000001 0.025936363 0.34849461
v 0.044000001 0.021844845 0.33812302
v 0.044000001 0.018092214 0.3276041
v 0.044000001 0.014683045 0.31695068
v 0.044000001 0.011621491 0.30617575
v 0.044000001 0.0089112818 0.2952924
v 0.044000001 0.00655572 0.28431389
v 0.044000001 0.0045576742 0.27325363
v 0.044000001 0.0029195794 0.26212507
v 0.044000001 0.0016434313 0.25094179
v 0.044000001 0.00073078491 0.23971739
v 0.044000001 0.0001827519 0.22846556
v 0.044000001 0 0.21719999
v 0.74885002 0 0.21719999
v 0.74885002 0.0001827519 0.22846556
v 0.74885002 0.00073078491 0.23971739
v 0.74885002 0.0016434313 0.25094179
v 0.74885002 0.0029195794 0.26212507
v 0.74885002 0.0045576742 0.27325363
v 0.74885002 0.00655572 0.28431389
v 0.74885002 0.0089112818 0.2952924
v 0.74885002 0.011621491 0.30617575
v 0.74885002 0.014683045 0.31695068
v 0.74885002 0.018092214 0.3276041
v 0.74885002 0.021844845 0.33812302
v 0.74885002 0.025936363 0.34849461
v 0.74885002 0.030361786 0.35870621
v 0.74885002 0.035115721 0.36874542
v 0.74885002 0.04019238 0.37860001
v 0.74885002 0.04558557 0.38825794
v 0.74885002 0.051288729 0.39770748
v 0.74885002 0.057294903 0.40693707
v 0.74885002 0.063596773 0.41593552
v 0.74885002 0.070186667 0.42469185
v 0.74885002 0.077056551 0.43319534
v 0.74885002 0.084198055 0.44143574
v 0.74885002 0.091602488 0.44940289
v 0.74885002 0.099260817 0.45708714
v 0.74885002 0.10716372 0.46447914
v 0.74885002 0.11530156 0.47156986
v 0.74885002 0.12366443 0.47835068
v 0.74885002 0.13224213 0.48481335
v 0.74885002 0.14102422 0.49094994
v 0.74885002 0.15 0.49675301
v 0.74885002 0.15915854 0.5022155
v 0.74885002 0.16848866 0.5073307
v 0.74885002 0.17797901 0.51209248
v 0.74885002 0.18761803 0.51649494
v 0.74885002 0.19739395 0.52053276
v 0.74885002 0.2072949 0.52420105
v 0.74885002 0.21730879 0.52749527
v 0.74885002 0.22742344 0.53041145
v 0.74885002 0.2376265 0.53294605
v 0.74885002 0.24790554 0.53509594
v 0.74885002 0.25824806 0.53685852
v 0.74885002 0.26864145 0.53823166
v 0.74885002 0.27907307 0.53921368
v 0.74885002 0.28953014 0.53980335
v 0.74885002 0.3 0.54
v 0.044000001 0 0.21719999
v 0.044000001 0 0.21219999
v 0.74885002 0 0.21219999
v 0.74885002 0 0.21719999
v 0.044000001 0 0.21219999
v 0.044000001 3.598324e-05 0.21719948
v 0.044000001 0.00023745727 0.22504087
v 0.044000001 0.00061595391 0.23287468
v 0.044000001 0.0011712497 0.2406963
v 0.044000001 0.0019030166 0.24850107
v 0.044000001 0.0028108227 0.25628441
v 0.044000001 0.0038941315 0.26404171
v 0.044000001 0.0051523036 0.2717684
v 0.044000001 0.006584596 0.2794599
v 0.044000001 0.0081901628 0.2871117
v 0.044000001 0.0099680555 0.29471924
v 0.044000001 0.011917225 0.30227806
v 0.044000001 0.01403652 0.30978369
v 0.044000001 0.016324687 0.31723169
v 0.044000001 0.018780378 0.32461765
v 0.044000001 0.02140214 0.33193726
v 0.044000001 0.024188428 0.33918613
v 0.044000001 0.027137592 0.34636002
v 0.044000001 0.030247893 0.35345467
v 0.044000001 0.033517497 0.36046593
v 0.044000001 0.036944468 0.3673896
v 0.044000001 0.040526786 0.37422165
v 0.044000001 0.044262333 0.38095798
v 0.044000001 0.048148904 0.38759468
v 0.044000001 0.052184205 0.39412781
v 0.044000001 0.056365852 0.40055347
v 0.044000001 0.060691371 0.40686794
v 0.044000001 0.065158219 0.41306744
v 0.044000001 0.069763746 0.41914829
v 0.044000001 0.074505239 0.42510696
v 0.044000001 0.079379897 0.4309399
v 0.044000001 0.084384842 0.43664364
v 0.044000001 0.089517117 0.44221485
v 0.044000001 0.094773684 0.44765022
v 0.044000001 0.10015145 0.45294659
v 0.044000001 0.10564724 0.45810074
v 0.044000001 0.1112578 0.46310966
v 0.044000001 0.11697982 0.46797047
v 0.044000001 0.12280992 0.47268021
v 0.044000001 0.12874466 0.4772361
v 0.044000001 0.13478053 0.48163548
v 0.044000001 0.14091397 0.48587578
v 0.044000001 0.14714136 0.48995441
v 0.044000001 0.15345902 0.49386906
v 0.044000001 0.15986322 0.49761734
v 0.044000001 0.16635017 0.50119709
v 0.044000001 0.17291605 0.50460617
v 0.044000001 0.17955698 0.5078426
v 0.044000001 0.18626904 0.51090439
v 0.044000001 0.19304827 0.51378983
v 0.044000001 0.19989063 0.51649712
v 0.044000001 0.20679213 0.51902473
v 0.044000001 0.21374868 0.52137115
v 0.044000001 0.22075615 0.523535
v 0.044000001 0.22781042 0.52551498
v 0.044000001 0.23490732 0.52730995
v 0.044000001 0.24204268 0.5289188
v 0.044000001 0.24921225 0.53034065
v 0.044000001 0.2564118 0.53157463
v 0.044000001 0.2636371 0.53261997
v 0.044000001 0.27088388 0.5334761
v 0.044000001 0.27814785 0.53414253
v 0.044000001 0.28542473 0.5346188
v 0.044000001 0.29271021 0.53490467
v 0.044000001 0.3 0.535
v 0.74885002 0.3 0.535
v 0.74885002 0.29271021 0.53490467
v 0.74885002 0.28542473 0.5346188
v 0.74885002 0.27814785 0.53414253
v 0.74885002 0.27088388 0.5334761
v 0.74885002 0.2636371 0.53261997
v 0.74885002 0.2564118 0.53157463
v 0.74885002 0.24921225 0.53034065
v 0.74885002 0.24204268 0.5289188
v 0.74885002 0.23490732 0.52730995
v 0.74885002 0.22781042 0.52551498
v 0.74885002 0.22075615 0.523535
v 0.74885002 0.21374868 0.52137115
v 0.74885002 0.20679213 0.51902473
v 0.74885002 0.19989063 0.51649712
v 0.74885002 0.19304827 0.51378983
v 0.74885002 0.18626904 0.51090439
v 0.74885002 0.17955698 0.5078426
v 0.74885002 0.17291605 0.50460617
v 0.74885002 0.16635017 0.50119709
v 0.74885002 0.15986322 0.49761734
v 0.74885002 0.15345902 0.49386906
v 0.74885002 0.14714136 0.48995441
v 0.74885002 0.14091397 0.48587578
v 0.74885002 0.13478053 0.48163548
v 0.74885002 0.12874466 0.4772361
v 0.74885002 0.12280992 0.47268021
v 0.74885002 0.11697982 0.46797047
v 0.74885002 0.1112578 0.46310966
v 0.74885002 0.10564724 0.45810074
v 0.74885002 0.10015145 0.45294659
v 0.74885002 0.094773684 0.44765022
v 0.74885002 0.089517117 0.44221485
v 0.74885002 0.084384842 0.43664364
v 0.74885002 0.079379897 0.4309399
v 0.74885002 0.074505239 0.42510696
v 0.74885002 0.069763746 0.41914829
v 0.74885002 0.065158219 0.41306744
v 0.74885002 0.060691371 0.40686794
v 0.74885002 0.056365852 0.40055347
v 0.74885002 0.052184205 0.39412781
v 0.74885002 0.048148904 0.38759468
v 0.74885002 0.044262333 0.38095798
v 0.74885002 0.040526786 0.37422165
v 0.74885002 0.036944468 0.3673896
v 0.74885002 0.033517497 0.36046593
v 0.74885002 0.030247893 0.35345467
v 0.74885002 0.027137592 0.34636002
v 0.74885002 0.024188428 0.33918613
v 0.74885002 0.02140214 0.33193726
v 0.74885002 0.018780378 0.32461765
v 0.74885002 0.016324687 0.31723169
v 0.74885002 0.01403652 0.30978369
v 0.74885002 0.011917225 0.30227806
v 0.74885002 0.0099680555 0.29471924
v 0.74885002 0.0081901628 0.2871117
v 0.74885002 0.006584596 0.2794599
v 0.74885002 0.0051523036 0.2717684
v 0.74885002 0.0038941315 0.26404171
v 0.74885002 0.0028108227 0.25628441
v 0.74885002 0.0019030166 0.24850107
v 0.74885002 0.0011712497 0.2406963
v 0.74885002 0.00061595391 0.23287468
v 0.74885002 0.00023745727 0.22504087
v 0.74885002 3.598324e-05 0.21719948
v 0.74885002 0 0.21219999
f 2 3 1
f 1 3 4
f 1 4 114
f 114 4 5
f 114 5 113
f 113 5 6
f 113 6 112
f 112 6 7
f 112 7 111
f 111 7 110
f 110 7 8
f 110 8 109
f 109 8 9
f 109 9 108
f 108 9 10
f 108 10 107
f 107 10 106
f 106 10 11
f 106 11 105
f 105 11 12
f 105 12 104
f 104 12 13
f 104 13 103
f 103 13 102
f 102 13 14
f 102 14 101
f 101 14 15
f 101 15 100
f 100 15 99
f 99 15 16
f 99 16 98
f 98 16 17
f 98 17 97
f 97 17 96
f 96 17 18
f 96 18 95
f 95 18 19
f 95 19 94
f 94 19 20
f 94 20 93
f 93 20 92
f 92 20 21
f 92 21 91
f 91 21 22
f 91 22 90
f 90 22 89
f 89 22 23
f 89 23 88
f 88 23 24
f 88 24 87
f 87 24 86
f 86 24 25
f 86 25 85
f 85 25 26
f 85 26 84
f 84 26 83
f 83 26 27
f 83 27 82
f 82 27 28
f 82 28 81
f 81 28 29
f 81 29 80
f 80 29 79
f 79 29 30
f 79 30 78
f 78 30 31
f 78 31 77
f 77 31 76
f 76 31 32
f 76 32 75
f 75 32 33
f 75 33 74
f 74 33 73
f 73 33 34
f 73 34 72
f 72 34 35
f 72 35 71
f 71 35 70
f 70 35 36
f 70 36 69
f 69 36 37
f 69 37 68
f 68 37 38
f 68 38 67
f 67 38 66
f 66 38 39
f 66 39 65
f 65 39 40
f 65 40 64
f 64 40 63
f 63 40 41
f 63 41 62
f 62 41 42
f 62 42 61
f 61 42 60
f 60 42 43
f 60 43 59
f 59 43 44
f 59 44 58
f 58 44 57
f 57 44 45
f 57 45 56
f 56 45 46
f 56 46 55
f 55 46 47
f 55 47 54
f 54 47 53
f 53 47 48
f 53 48 52
f 52 48 49
f 52 49 51
f 51 49 50
f 228 115 227
f 227 115 116
f 227 116 117
f 227 117 226
f 226 117 118
f 226 118 225
f 225 118 119
f 225 119 224
f 224 119 120
f 224 120 121
f 224 121 223
f 223 121 122
f 223 122 222
f 222 122 123
f 222 123 221
f 221 123 124
f 221 124 125
f 221 125 220
f 220 125 126
f 220 126 219
f 219 126 127
f 219 127 218
f 218 127 128
f 218 128 129
f 218 129 217
f 217 129 130
f 217 130 216
f 216 130 131
f 216 131 132
f 216 132 215
f 215 132 133
f 215 133 214
f 214 133 134
f 214 134 135
f 214 135 213
f 213 135 136
f 213 136 212
f 212 136 137
f 212 137 211
f 211 137 138
f 211 138 139
f 211 139 210
f 210 139 140
f 210 140 209
f 209 140 141
f 209 141 142
f 209 142 208
f 208 142 143
f 208 143 207
f 207 143 144
f 207 144 145
f 207 145 206
f 206 145 146
f 206 146 205
f 205 146 147
f 205 147 148
f 205 148 204
f 204 148 149
f 204 149 203
f 203 149 150
f 203 150 202
f 202 150 151
f 202 151 152
f 202 152 201
f 201 152 153
f 201 153 200
f 200 153 154
f 200 154 155
f 200 155 199
f 199 155 156
f 199 156 198
f 198 156 157
f 198 157 158
f 198 158 197
f 197 158 159
f 197 159 196
f 196 159 160
f 196 160 161
f 196 161 195
f 195 161 162
f 195 162 194
f 194 162 163
f 194 163 193
f 193 163 164
f 193 164 165
f 193 165 192
f 192 165 166
f 192 166 191
f 191 166 167
f 191 167 168
f 191 168 190
f 190 168 169
f 190 169 189
f 189 169 170
f 189 170 171
f 189 171 188
f 188 171 172
f 188 172 187
f 187 172 173
f 187 173 174
f 187 174 186
f 186 174 175
f 186 175 185
f 185 175 176
f 185 176 184
f 184 176 177
f 184 177 178
f 184 178 183
f 183 178 179
f 183 179 182
f 182 179 180
f 182 180 181
f 229 230 232
f 232 230 231
f 233 234 236
f 236 234 235
f 237 238 240
f 240 238 239
f 241 242 332
f 332 242 331
f 331 242 243
f 331 243 330
f 330 243 244
f 330 244 329
f 329 244 245
f 329 245 328
f 328 245 246
f 328 246 327
f 327 246 247
f 327 247 326
f 326 247 248
f 326 248 325
f 325 248 249
f 325 249 324
f 324 249 250
f 324 250 323
f 323 250 251
f 323 251 322
f 322 251 252
f 322 252 321
f 321 252 253
f 321 253 320
f 320 253 254
f 320 254 319
f 319 254 255
f 319 255 318
f 318 255 256
f 318 256 317
f 317 256 257
f 317 257 316
f 316 257 258
f 316 258 315
f 315 258 259
f 315 259 314
f 314 259 260
f 314 260 313
f 313 260 261
f 313 261 312
f 312 261 262
f 312 262 311
f 311 262 263
f 311 263 310
f 310 263 264
f 310 264 309
f 309 264 265
f 309 265 308
f 308 265 266
f 308 266 307
f 307 266 267
f 307 267 306
f 306 267 268
f 306 268 305
f 305 268 269
f 305 269 304
f 304 269 270
f 304 270 303
f 303 270 271
f 303 271 302
f 302 271 272
f 302 272 301
f 301 272 273
f 301 273 300
f 300 273 274
f 300 274 299
f 299 274 275
f 299 275 298
f 298 275 276
f 298 276 297
f 297 276 277
f 297 277 296
f 296 277 278
f 296 278 295
f 295 278 279
f 295 279 294
f 294 279 280
f 294 280 293
f 293 280 281
f 293 281 292
f 292 281 282
f 292 282 291
f 291 282 283
f 291 283 290
f 290 283 284
f 290 284 289
f 289 284 285
f 289 285 288
f 288 285 286
f 288 286 287
f 333 334 336
f 336 334 335
f 468 337 467
f 467 337 338
f 467 338 339
f 340 465 339
f 339 465 466
f 339 466 467
f 340 341 465
f 465 341 464
f 464 341 342
f 464 342 463
f 463 342 343
f 463 343 462
f 462 343 461
f 461 343 344
f 461 344 345
f 461 345 460
f 460 345 346
f 460 346 459
f 459 346 458
f 458 346 347
f 458 347 457
f 457 347 348
f 457 348 349
f 457 349 456
f 456 349 350
f 456 350 455
f 455 350 454
f 454 350 351
f 454 351 352
f 454 352 453
f 453 352 353
f 453 353 452
f 452 353 354
f 452 354 451
f 451 354 450
f 450 354 355
f 450 355 356
f 450 356 449
f 449 356 357
f 449 357 448
f 448 357 447
f 447 357 358
f 447 358 446
f 446 358 359
f 446 359 360
f 446 360 445
f 445 360 361
f 445 361 444
f 444 361 443
f 443 361 362
f 443 362 363
f 443 363 442
f 442 363 364
f 442 364 441
f 441 364 365
f 441 365 440
f 440 365 439
f 439 365 366
f 439 366 367
f 439 367 438
f 438 367 368
f 438 368 437
f 437 368 436
f 436 368 369
f 436 369 435
f 435 369 370
f 435 370 371
f 435 371 434
f 434 371 372
f 434 372 433
f 433 372 432
f 432 372 373
f 432 373 374
f 432 374 431
f 431 374 375
f 431 375 430
f 430 375 376
f 430 376 429
f 429 376 428
f 428 376 377
f 428 377 378
f 428 378 427
f 427 378 379
f 427 379 426
f 426 379 425
f 425 379 380
f 425 380 424
f 424 380 381
f 424 381 382
f 424 382 423
f 423 382 383
f 423 383 422
f 422 383 421
f 421 383 384
f 421 384 385
f 421 385 420
f 420 385 386
f 420 386 419
f 419 386 387
f 419 387 418
f 418 387 417
f 417 387 388
f 417 388 389
f 417 389 416
f 416 389 390
f 416 390 415
f 415 390 414
f 414 390 391
f 414 391 413
f 413 391 392
f 413 392 393
f 413 393 412
f 412 393 394
f 412 394 411
f 411 394 410
f 410 394 395
f 410 395 396
f 410 396 409
f 409 396 397
f 409 397 408
f 408 397 398
f 408 398 407
f 407 398 406
f 406 398 399
f 406 399 400
f 406 400 405
f 405 400 401
f 405 401 404
f 404 401 403
f 403 401 402
