v 0.096780834 0.12477476 9.9999998e-05
v 0.096505423 0.12463868 9.9999998e-05
v 0.096088743 0.12459332 9.9999998e-05
v 0.096088743 0.12459332 0.000125
v 0.096505423 0.12463868 0.000125
v 0.096780834 0.12477476 0.000125
v 0.096088743 0.12459332 9.9999998e-05
v 0.095106344 0.12459332 9.9999998e-05
v 0.095106344 0.12459332 0.000125
v 0.096088743 0.12459332 0.000125
v 0.096080971 0.12414489 9.9999998e-05
v 0.096762686 0.1242288 9.9999998e-05
v 0.097195568 0.12448056 9.9999998e-05
v 0.097195568 0.12448056 0.000125
v 0.096762686 0.1242288 0.000125
v 0.096080971 0.12414489 0.000125
v 0.097195568 0.12448056 9.9999998e-05
v 0.09742691 0.1248535 9.9999998e-05
v 0.097504025 0.12530095 9.9999998e-05
v 0.097504025 0.12530095 0.000125
v 0.09742691 0.1248535 0.000125
v 0.097195568 0.12448056 0.000125
v 0.095106344 0.12414489 9.9999998e-05
v 0.096080971 0.12414489 9.9999998e-05
v 0.096080971 0.12414489 0.000125
v 0.095106344 0.12414489 0.000125
v 0.097504025 0.12530095 9.9999998e-05
v 0.097388678 0.12581937 9.9999998e-05
v 0.097388678 0.12581937 0.000125
v 0.097504025 0.12530095 0.000125
v 0.095106344 0.1226 9.9999998e-05
v 0.095106344 0.12414489 9.9999998e-05
v 0.095106344 0.12414489 0.000125
v 0.095106344 0.1226 0.000125
v 0.097388678 0.12581937 9.9999998e-05
v 0.097084103 0.12618615 9.9999998e-05
v 0.097084103 0.12618615 0.000125
v 0.097388678 0.12581937 0.000125
v 0.094603481 0.1226 9.9999998e-05
v 0.095106344 0.1226 9.9999998e-05
v 0.095106344 0.1226 0.000125
v 0.094603481 0.1226 0.000125
v 0.097084103 0.12618615 9.9999998e-05
v 0.096614943 0.12636371 9.9999998e-05
v 0.096614943 0.12636371 0.000125
v 0.097084103 0.12618615 0.000125
v 0.096614943 0.12636371 9.9999998e-05
v 0.096036901 0.1264 9.9999998e-05
v 0.096036901 0.1264 0.000125
v 0.096614943 0.12636371 0.000125
v 0.096036901 0.1264 9.9999998e-05
v 0.094603481 0.1264 9.9999998e-05
v 0.094603481 0.1264 0.000125
v 0.096036901 0.1264 0.000125
v 0.094603481 0.1264 9.9999998e-05
v 0.094603481 0.1226 9.9999998e-05
v 0.094603481 0.1226 0.000125
v 0.094603481 0.1264 0.000125
v 0.094603481 0.1226 0.000125
v 0.095106344 0.1226 0.000125
v 0.095106344 0.12414489 0.000125
v 0.096080971 0.12414489 0.000125
v 0.096762686 0.1242288 0.000125
v 0.097195568 0.12448056 0.000125
v 0.09742691 0.1248535 0.000125
v 0.097504025 0.12530095 0.000125
v 0.097388678 0.12581937 0.000125
v 0.097084103 0.12618615 0.000125
v 0.096614943 0.12636371 0.000125
v 0.096036901 0.1264 0.000125
v 0.094603481 0.1264 0.000125
v 0.095106344 0.12459332 0.000125
v 0.095106344 0.12595157 0.000125
v 0.096078377 0.12595157 0.000125
v 0.096366749 0.12594315 0.000125
v 0.096547546 0.12591787 0.000125
v 0.096865072 0.12569366 0.000125
v 0.096985607 0.12528541 0.000125
v 0.096934414 0.12499314 0.000125
v 0.096780834 0.12477476 0.000125
v 0.096505423 0.12463868 0.000125
v 0.096088743 0.12459332 0.000125
v 0.095106344 0.12459332 9.9999998e-05
v 0.095106344 0.12595157 9.9999998e-05
v 0.095106344 0.12595157 0.000125
v 0.095106344 0.12459332 0.000125
v 0.095106344 0.12595157 9.9999998e-05
v 0.096078377 0.12595157 9.9999998e-05
v 0.096078377 0.12595157 0.000125
v 0.095106344 0.12595157 0.000125
v 0.095106344 0.1226 9.9999998e-05
v 0.094603481 0.1226 9.9999998e-05
v 0.094603481 0.1264 9.9999998e-05
v 0.096036901 0.1264 9.9999998e-05
v 0.096614943 0.12636371 9.9999998e-05
v 0.097084103 0.12618615 9.9999998e-05
v 0.097388678 0.12581937 9.9999998e-05
v 0.097504025 0.12530095 9.9999998e-05
v 0.09742691 0.1248535 9.9999998e-05
v 0.097195568 0.12448056 9.9999998e-05
v 0.096762686 0.1242288 9.9999998e-05
v 0.096080971 0.12414489 9.9999998e-05
v 0.095106344 0.12414489 9.9999998e-05
v 0.095106344 0.12595157 9.9999998e-05
v 0.095106344 0.12459332 9.9999998e-05
v 0.096088743 0.12459332 9.9999998e-05
v 0.096505423 0.12463868 9.9999998e-05
v 0.096780834 0.12477476 9.9999998e-05
v 0.096934414 0.12499314 9.9999998e-05
v 0.096985607 0.12528541 9.9999998e-05
v 0.096865072 0.12569366 9.9999998e-05
v 0.096547546 0.12591787 9.9999998e-05
v 0.096366749 0.12594315 9.9999998e-05
v 0.096078377 0.12595157 9.9999998e-05
v 0.096078377 0.12595157 9.9999998e-05
v 0.096366749 0.12594315 9.9999998e-05
v 0.096547546 0.12591787 9.9999998e-05
v 0.096547546 0.12591787 0.000125
v 0.096366749 0.12594315 0.000125
v 0.096078377 0.12595157 0.000125
v 0.096547546 0.12591787 9.9999998e-05
v 0.096865072 0.12569366 9.9999998e-05
v 0.096865072 0.12569366 0.000125
v 0.096547546 0.12591787 0.000125
v 0.096865072 0.12569366 9.9999998e-05
v 0.096985607 0.12528541 9.9999998e-05
v 0.096985607 0.12528541 0.000125
v 0.096865072 0.12569366 0.000125
v 0.096985607 0.12528541 9.9999998e-05
v 0.096934414 0.12499314 9.9999998e-05
v 0.096780834 0.12477476 9.9999998e-05
v 0.096780834 0.12477476 0.000125
v 0.096934414 0.12499314 0.000125
v 0.096985607 0.12528541 0.000125
f 1 2 6
f 6 2 5
f 5 2 3
f 5 3 4
f 7 8 10
f 10 8 9
f 11 12 16
f 16 12 15
f 15 12 13
f 15 13 14
f 17 18 22
f 22 18 21
f 21 18 19
f 21 19 20
f 23 24 26
f 26 24 25
f 27 28 30
f 30 28 29
f 31 32 34
f 34 32 33
f 35 36 38
f 38 36 37
f 39 40 42
f 42 40 41
f 43 44 46
f 46 44 45
f 47 48 50
f 50 48 49
f 51 52 54
f 54 52 53
f 55 56 58
f 58 56 57
f 60 61 59
f 59 61 72
f 59 72 71
f 71 72 73
f 71 73 70
f 70 73 74
f 70 74 75
f 61 62 72
f 72 62 82
f 82 62 81
f 81 62 63
f 81 63 80
f 80 63 64
f 80 64 79
f 79 64 65
f 79 65 78
f 78 65 66
f 78 66 67
f 78 67 77
f 77 67 68
f 77 68 76
f 76 68 69
f 76 69 75
f 75 69 70
f 83 84 86
f 86 84 85
f 87 88 90
f 90 88 89
f 91 92 103
f 103 92 105
f 103 105 102
f 102 105 106
f 102 106 107
f 92 93 105
f 105 93 104
f 104 93 94
f 104 94 114
f 114 94 113
f 113 94 95
f 113 95 112
f 112 95 96
f 112 96 111
f 111 96 97
f 111 97 110
f 110 97 98
f 110 98 99
f 110 99 109
f 109 99 100
f 109 100 108
f 108 100 101
f 108 101 107
f 107 101 102
f 115 116 120
f 120 116 119
f 119 116 117
f 119 117 118
f 121 122 124
f 124 122 123
f 125 126 128
f 128 126 127
f 129 130 134
f 134 130 133
f 133 130 131
f 133 131 132
