v 0.1675 -0.29885 0.24
v 0.16767181 -0.29885 0.24069708
v 0.16814791 -0.29885 0.24123447
v 0.1688192 -0.29885 0.24148907
v 0.1695319 -0.29885 0.24140253
v 0.17012276 -0.29885 0.24099468
v 0.17045641 -0.29885 0.24035898
v 0.17045641 -0.29885 0.23964102
v 0.17012276 -0.29885 0.23900532
v 0.1695319 -0.29885 0.23859747
v 0.1688192 -0.29885 0.23851093
v 0.16814791 -0.29885 0.23876553
v 0.16767181 -0.29885 0.23930292
v 0.1675 -0.29860001 0.24
v 0.16767181 -0.29860001 0.23930292
v 0.16814791 -0.29860001 0.23876553
v 0.1688192 -0.29860001 0.23851093
v 0.1695319 -0.29860001 0.23859747
v 0.17012276 -0.29860001 0.23900532
v 0.17045641 -0.29860001 0.23964102
v 0.17045641 -0.29860001 0.24035898
v 0.17012276 -0.29860001 0.24099468
v 0.1695319 -0.29860001 0.24140253
v 0.1688192 -0.29860001 0.24148907
v 0.16814791 -0.29860001 0.24123447
v 0.16767181 -0.29860001 0.24069708
v 0.1675 -0.29860001 0.24
v 0.1675 -0.29885 0.24
v 0.1675 -0.29885 0.24
v 0.16767181 -0.29885 0.23930292
v 0.16814791 -0.29885 0.23876553
v 0.1688192 -0.29885 0.23851093
v 0.1695319 -0.29885 0.23859747
v 0.17012276 -0.29885 0.23900532
v 0.17045641 -0.29885 0.23964102
v 0.17045641 -0.29885 0.24035898
v 0.17012276 -0.29885 0.24099468
v 0.1695319 -0.29885 0.24140253
v 0.1688192 -0.29885 0.24148907
v 0.16814791 -0.29885 0.24123447
v 0.16767181 -0.29885 0.24069708
v 0.1675 -0.29860001 0.24
v 0.16767181 -0.29860001 0.24069708
v 0.16814791 -0.29860001 0.24123447
v 0.1688192 -0.29860001 0.24148907
v 0.1695319 -0.29860001 0.24140253
v 0.17012276 -0.29860001 0.24099468
v 0.17045641 -0.29860001 0.24035898
v 0.17045641 -0.29860001 0.23964102
v 0.17012276 -0.29860001 0.23900532
v 0.1695319 -0.29860001 0.23859747
v 0.1688192 -0.29860001 0.23851093
v 0.16814791 -0.29860001 0.23876553
v 0.16767181 -0.29860001 0.23930292
f 2 26 1
f 1 26 27
f 28 14 13
f 13 14 15
f 13 15 12
f 12 15 16
f 12 16 11
f 11 16 17
f 11 17 10
f 10 17 18
f 10 18 9
f 9 18 19
f 9 19 8
f 8 19 20
f 8 20 7
f 7 20 21
f 7 21 6
f 6 21 22
f 6 22 5
f 5 22 23
f 5 23 4
f 4 23 24
f 4 24 3
f 3 24 25
f 3 25 2
f 2 25 26
f 29 30 41
f 41 30 31
f 41 31 40
f 40 31 32
f 40 32 39
f 39 32 33
f 39 33 38
f 38 33 34
f 38 34 37
f 37 34 35
f 37 35 36
f 42 43 54
f 54 43 53
f 53 43 44
f 53 44 52
f 52 44 45
f 52 45 51
f 51 45 46
f 51 46 50
f 50 46 47
f 50 47 49
f 49 47 48
