v 0.1675 -0.29885 0.256
v 0.16767181 -0.29885 0.25669708
v 0.16814791 -0.29885 0.25723448
v 0.1688192 -0.29885 0.25748907
v 0.1695319 -0.29885 0.25740252
v 0.17012276 -0.29885 0.25699469
v 0.17045641 -0.29885 0.25635897
v 0.17045641 -0.29885 0.25564102
v 0.17012276 -0.29885 0.25500532
v 0.1695319 -0.29885 0.25459747
v 0.1688192 -0.29885 0.25451094
v 0.16814791 -0.29885 0.25476553
v 0.16767181 -0.29885 0.25530291
v 0.1675 -0.29860001 0.256
v 0.16767181 -0.29860001 0.25530291
v 0.16814791 -0.29860001 0.25476553
v 0.1688192 -0.29860001 0.25451094
v 0.1695319 -0.29860001 0.25459747
v 0.17012276 -0.29860001 0.25500532
v 0.17045641 -0.29860001 0.25564102
v 0.17045641 -0.29860001 0.25635897
v 0.17012276 -0.29860001 0.25699469
v 0.1695319 -0.29860001 0.25740252
v 0.1688192 -0.29860001 0.25748907
v 0.16814791 -0.29860001 0.25723448
v 0.16767181 -0.29860001 0.25669708
v 0.1675 -0.29860001 0.256
v 0.1675 -0.29885 0.256
v 0.1675 -0.29860001 0.256
v 0.16767181 -0.29860001 0.25669708
v 0.16814791 -0.29860001 0.25723448
v 0.1688192 -0.29860001 0.25748907
v 0.1695319 -0.29860001 0.25740252
v 0.17012276 -0.29860001 0.25699469
v 0.17045641 -0.29860001 0.25635897
v 0.17045641 -0.29860001 0.25564102
v 0.17012276 -0.29860001 0.25500532
v 0.1695319 -0.29860001 0.25459747
v 0.1688192 -0.29860001 0.25451094
v 0.16814791 -0.29860001 0.25476553
v 0.16767181 -0.29860001 0.25530291
v 0.1675 -0.29885 0.256
v 0.16767181 -0.29885 0.25530291
v 0.16814791 -0.29885 0.25476553
v 0.1688192 -0.29885 0.25451094
v 0.1695319 -0.29885 0.25459747
v 0.17012276 -0.29885 0.25500532
v 0.17045641 -0.29885 0.25564102
v 0.17045641 -0.29885 0.25635897
v 0.17012276 -0.29885 0.25699469
v 0.1695319 -0.29885 0.25740252
v 0.1688192 -0.29885 0.25748907
v 0.16814791 -0.29885 0.25723448
v 0.16767181 -0.29885 0.25669708
f 2 26 1
f 1 26 27
f 28 14 13
f 13 14 15
f 13 15 12
f 12 15 16
f 12 16 11
f 11 16 17
f 11 17 10
f 10 17 18
f 10 18 9
f 9 18 19
f 9 19 8
f 8 19 20
f 8 20 7
f 7 20 21
f 7 21 6
f 6 21 22
f 6 22 5
f 5 22 23
f 5 23 4
f 4 23 24
f 4 24 3
f 3 24 25
f 3 25 2
f 2 25 26
f 29 30 41
f 41 30 40
f 40 30 31
f 40 31 39
f 39 31 32
f 39 32 38
f 38 32 33
f 38 33 37
f 37 33 34
f 37 34 36
f 36 34 35
f 42 43 54
f 54 43 44
f 54 44 53
f 53 44 45
f 53 45 52
f 52 45 46
f 52 46 51
f 51 46 47
f 51 47 50
f 50 47 48
f 50 48 49
