v -0.19209999 -0.224 0.39900002
v -0.19191305 -0.22506025 0.39900002
v -0.19137474 -0.22599264 0.39900002
v -0.19055 -0.22668468 0.39900002
v -0.18953831 -0.2270529 0.39900002
v -0.18846169 -0.2270529 0.39900002
v -0.18745001 -0.22668468 0.39900002
v -0.18662527 -0.22599264 0.39900002
v -0.18608696 -0.22506025 0.39900002
v -0.1859 -0.224 0.39900002
v -0.18608696 -0.22293974 0.39900002
v -0.18662527 -0.22200735 0.39900002
v -0.18745001 -0.22131533 0.39900002
v -0.18846169 -0.22094709 0.39900002
v -0.18953831 -0.22094709 0.39900002
v -0.19055 -0.22131533 0.39900002
v -0.19137474 -0.22200735 0.39900002
v -0.19191305 -0.22293974 0.39900002
v -0.18299999 -0.21799999 0.39900002
v -0.18299999 -0.23 0.39900002
v -0.204 -0.23 0.39900002
v -0.204 -0.21799999 0.39900002
v -0.18299999 -0.23 0.41099998
v -0.18299999 -0.23 0.39900002
v -0.18299999 -0.21799999 0.39900002
v -0.18299999 -0.21799999 0.41099998
v -0.19209999 -0.224 0.41099998
v -0.19191305 -0.22293974 0.41099998
v -0.19137474 -0.22200735 0.41099998
v -0.19055 -0.22131533 0.41099998
v -0.18953831 -0.22094709 0.41099998
v -0.18846169 -0.22094709 0.41099998
v -0.18745001 -0.22131533 0.41099998
v -0.18662527 -0.22200735 0.41099998
v -0.18608696 -0.22293974 0.41099998
v -0.1859 -0.224 0.41099998
v -0.18608696 -0.22506025 0.41099998
v -0.18662527 -0.22599264 0.41099998
v -0.18745001 -0.22668468 0.41099998
v -0.18846169 -0.2270529 0.41099998
v -0.18953831 -0.2270529 0.41099998
v -0.19055 -0.22668468 0.41099998
v -0.19137474 -0.22599264 0.41099998
v -0.19191305 -0.22506025 0.41099998
v -0.18299999 -0.23 0.41099998
v -0.18299999 -0.21799999 0.41099998
v -0.204 -0.21799999 0.41099998
v -0.204 -0.23 0.41099998
v -0.19209999 -0.224 0.41099998
v -0.19191305 -0.22506025 0.41099998
v -0.19137474 -0.22599264 0.41099998
v -0.19055 -0.22668468 0.41099998
v -0.18953831 -0.2270529 0.41099998
v -0.18846169 -0.2270529 0.41099998
v -0.18745001 -0.22668468 0.41099998
v -0.18662527 -0.22599264 0.41099998
v -0.18608696 -0.22506025 0.41099998
v -0.1859 -0.224 0.41099998
v -0.18608696 -0.22293974 0.41099998
v -0.18662527 -0.22200735 0.41099998
v -0.18745001 -0.22131533 0.41099998
v -0.18846169 -0.22094709 0.41099998
v -0.18953831 -0.22094709 0.41099998
v -0.19055 -0.22131533 0.41099998
v -0.19137474 -0.22200735 0.41099998
v -0.19191305 -0.22293974 0.41099998
v -0.19209999 -0.224 0.39900002
v -0.19191305 -0.22293974 0.39900002
v -0.19137474 -0.22200735 0.39900002
v -0.19055 -0.22131533 0.39900002
v -0.18953831 -0.22094709 0.39900002
v -0.18846169 -0.22094709 0.39900002
v -0.18745001 -0.22131533 0.39900002
v -0.18662527 -0.22200735 0.39900002
v -0.18608696 -0.22293974 0.39900002
v -0.1859 -0.224 0.39900002
v -0.18608696 -0.22506025 0.39900002
v -0.18662527 -0.22599264 0.39900002
v -0.18745001 -0.22668468 0.39900002
v -0.18846169 -0.2270529 0.39900002
v -0.18953831 -0.2270529 0.39900002
v -0.19055 -0.22668468 0.39900002
v -0.19137474 -0.22599264 0.39900002
v -0.19191305 -0.22506025 0.39900002
v -0.19209999 -0.224 0.41099998
v -0.19209999 -0.224 0.39900002
v -0.18299999 -0.21799999 0.41099998
v -0.18299999 -0.21799999 0.39900002
v -0.204 -0.21799999 0.39900002
v -0.204 -0.21799999 0.41099998
v -0.204 -0.21799999 0.41099998
v -0.204 -0.21799999 0.39900002
v -0.204 -0.23 0.39900002
v -0.204 -0.23 0.41099998
v -0.204 -0.23 0.41099998
v -0.204 -0.23 0.39900002
v -0.18299999 -0.23 0.39900002
v -0.18299999 -0.23 0.41099998
f 2 21 1
f 1 21 22
f 1 22 18
f 18 22 17
f 17 22 16
f 16 22 15
f 15 22 19
f 15 19 14
f 14 19 13
f 13 19 12
f 12 19 11
f 11 19 10
f 10 19 20
f 10 20 9
f 9 20 8
f 8 20 7
f 7 20 6
f 6 20 5
f 5 20 21
f 5 21 4
f 4 21 3
f 3 21 2
f 23 24 26
f 26 24 25
f 28 47 27
f 27 47 48
f 27 48 44
f 44 48 43
f 43 48 42
f 42 48 41
f 41 48 45
f 41 45 40
f 40 45 39
f 39 45 38
f 38 45 37
f 37 45 36
f 36 45 46
f 36 46 35
f 35 46 34
f 34 46 33
f 33 46 32
f 32 46 31
f 31 46 47
f 31 47 30
f 30 47 29
f 29 47 28
f 50 84 49
f 49 84 86
f 85 67 66
f 66 67 68
f 66 68 65
f 65 68 69
f 65 69 64
f 64 69 70
f 64 70 63
f 63 70 71
f 63 71 62
f 62 71 72
f 62 72 61
f 61 72 73
f 61 73 60
f 60 73 74
f 60 74 59
f 59 74 75
f 59 75 58
f 58 75 76
f 58 76 57
f 57 76 77
f 57 77 56
f 56 77 78
f 56 78 55
f 55 78 79
f 55 79 54
f 54 79 80
f 54 80 53
f 53 80 81
f 53 81 52
f 52 81 82
f 52 82 51
f 51 82 83
f 51 83 50
f 50 83 84
f 87 88 90
f 90 88 89
f 91 92 94
f 94 92 93
f 95 96 98
f 98 96 97
