v 0.12190382 -0.29870001 0.195
v 0.12223329 -0.29870001 0.19590858
v 0.12223329 -0.29882 0.19590858
v 0.12190382 -0.29882 0.195
v 0.12148227 -0.29870001 0.195
v 0.12190382 -0.29870001 0.195
v 0.12190382 -0.29882 0.195
v 0.12148227 -0.29882 0.195
v 0.12223329 -0.29870001 0.19590858
v 0.12348772 -0.29870001 0.19590858
v 0.12348772 -0.29882 0.19590858
v 0.12223329 -0.29882 0.19590858
v 0.12348772 -0.29870001 0.19590858
v 0.12383765 -0.29870001 0.195
v 0.12383765 -0.29882 0.195
v 0.12348772 -0.29882 0.19590858
v 0.12383765 -0.29870001 0.195
v 0.1242899 -0.29870001 0.195
v 0.1242899 -0.29882 0.195
v 0.12383765 -0.29882 0.195
v 0.12148227 -0.29882 0.195
v 0.12190382 -0.29882 0.195
v 0.12223329 -0.29882 0.19590858
v 0.12348772 -0.29882 0.19590858
v 0.12383765 -0.29882 0.195
v 0.1242899 -0.29882 0.195
v 0.12306208 -0.29882 0.19799999
v 0.12263438 -0.29882 0.19799999
v 0.12234789 -0.29882 0.19623192
v 0.12267735 -0.29882 0.19711187
v 0.12283902 -0.29882 0.19768486
v 0.12305184 -0.29882 0.19706276
v 0.12336493 -0.29882 0.19623192
v 0.1242899 -0.29870001 0.195
v 0.12306208 -0.29870001 0.19799999
v 0.12306208 -0.29882 0.19799999
v 0.1242899 -0.29882 0.195
v 0.12306208 -0.29870001 0.19799999
v 0.12263438 -0.29870001 0.19799999
v 0.12263438 -0.29882 0.19799999
v 0.12306208 -0.29882 0.19799999
v 0.12190382 -0.29870001 0.195
v 0.12148227 -0.29870001 0.195
v 0.12263438 -0.29870001 0.19799999
v 0.12306208 -0.29870001 0.19799999
v 0.1242899 -0.29870001 0.195
v 0.12383765 -0.29870001 0.195
v 0.12348772 -0.29870001 0.19590858
v 0.12223329 -0.29870001 0.19590858
v 0.12267735 -0.29870001 0.19711187
v 0.12234789 -0.29870001 0.19623192
v 0.12336493 -0.29870001 0.19623192
v 0.12305184 -0.29870001 0.19706276
v 0.12283902 -0.29870001 0.19768486
v 0.12263438 -0.29870001 0.19799999
v 0.12148227 -0.29870001 0.195
v 0.12148227 -0.29882 0.195
v 0.12263438 -0.29882 0.19799999
v 0.12234789 -0.29870001 0.19623192
v 0.12267735 -0.29870001 0.19711187
v 0.12267735 -0.29882 0.19711187
v 0.12234789 -0.29882 0.19623192
v 0.12267735 -0.29870001 0.19711187
v 0.12283902 -0.29870001 0.19768486
v 0.12283902 -0.29882 0.19768486
v 0.12267735 -0.29882 0.19711187
v 0.12283902 -0.29870001 0.19768486
v 0.12305184 -0.29870001 0.19706276
v 0.12305184 -0.29882 0.19706276
v 0.12283902 -0.29882 0.19768486
v 0.12305184 -0.29870001 0.19706276
v 0.12336493 -0.29870001 0.19623192
v 0.12336493 -0.29882 0.19623192
v 0.12305184 -0.29882 0.19706276
v 0.12336493 -0.29870001 0.19623192
v 0.12234789 -0.29870001 0.19623192
v 0.12234789 -0.29882 0.19623192
v 0.12336493 -0.29882 0.19623192
f 1 2 4
f 4 2 3
f 5 6 8
f 8 6 7
f 9 10 12
f 12 10 11
f 13 14 16
f 16 14 15
f 17 18 20
f 20 18 19
f 22 23 21
f 21 23 29
f 21 29 28
f 28 29 30
f 28 30 31
f 29 23 33
f 33 23 24
f 33 24 26
f 26 24 25
f 26 27 33
f 33 27 32
f 32 27 31
f 31 27 28
f 34 35 37
f 37 35 36
f 38 39 41
f 41 39 40
f 42 43 49
f 49 43 51
f 49 51 52
f 43 44 51
f 51 44 50
f 50 44 54
f 54 44 45
f 54 45 53
f 53 45 52
f 52 45 46
f 52 46 48
f 48 46 47
f 48 49 52
f 55 56 58
f 58 56 57
f 59 60 62
f 62 60 61
f 63 64 66
f 66 64 65
f 67 68 70
f 70 68 69
f 71 72 74
f 74 72 73
f 75 76 78
f 78 76 77
