v -0.078000002 -0.027 0.53
v -0.078000002 -0.027 0.175
v -0.078000002 -0.016 0.175
v -0.078000002 -0.016 0.53
v -0.078000002 -0.027 0.53
v -0.078000002 -0.016 0.53
v -0.08 -0.016 0.53
v -0.08 -0.027 0.53
v -0.08 -0.016 0.53
v -0.08 -0.016 0.175
v -0.08 -0.027 0.175
v -0.08 -0.027 0.53
v -0.078000002 -0.016 0.53
v -0.078000002 -0.016 0.175
v -0.08 -0.016 0.175
v -0.08 -0.016 0.53
v -0.08 -0.027 0.53
v -0.08 -0.027 0.175
v -0.078000002 -0.027 0.175
v -0.078000002 -0.027 0.53
v -0.078000002 -0.016 0.175
v -0.078000002 -0.027 0.175
v -0.08 -0.027 0.175
v -0.08 -0.016 0.175
f 1 2 4
f 4 2 3
f 6 7 5
f 5 7 8
f 9 10 12
f 12 10 11
f 13 14 16
f 16 14 15
f 17 18 20
f 20 18 19
f 22 23 21
f 21 23 24
