v 0.1406678 0.0083972716 9.9999998e-05
v 0.14030164 0.0088159621 9.9999998e-05
v 0.14030164 0.0088159621 0.000125
v 0.1406678 0.0083972716 0.000125
v 0.14030164 0.0088159621 9.9999998e-05
v 0.14022173 0.0091629946 9.9999998e-05
v 0.14019509 0.009660846 9.9999998e-05
v 0.14019509 0.009660846 0.000125
v 0.14022173 0.0091629946 0.000125
v 0.14030164 0.0088159621 0.000125
v 0.1413026 0.0082502049 9.9999998e-05
v 0.1406678 0.0083972716 9.9999998e-05
v 0.1406678 0.0083972716 0.000125
v 0.1413026 0.0082502049 0.000125
v 0.14019509 0.009660846 9.9999998e-05
v 0.14019509 0.0122 9.9999998e-05
v 0.14019509 0.0122 0.000125
v 0.14019509 0.009660846 0.000125
v 0.14221801 0.0085413373 9.9999998e-05
v 0.14185259 0.0083229876 9.9999998e-05
v 0.1413026 0.0082502049 9.9999998e-05
v 0.1413026 0.0082502049 0.000125
v 0.14185259 0.0083229876 0.000125
v 0.14221801 0.0085413373 0.000125
v 0.14019509 0.0122 9.9999998e-05
v 0.13961283 0.0122 9.9999998e-05
v 0.13961283 0.0122 0.000125
v 0.14019509 0.0122 0.000125
v 0.14249113 0.009660846 9.9999998e-05
v 0.14242285 0.0089667803 9.9999998e-05
v 0.14221801 0.0085413373 9.9999998e-05
v 0.14221801 0.0085413373 0.000125
v 0.14242285 0.0089667803 0.000125
v 0.14249113 0.009660846 0.000125
v 0.13961283 0.0122 9.9999998e-05
v 0.13961283 0.0096578449 9.9999998e-05
v 0.13961283 0.0096578449 0.000125
v 0.13961283 0.0122 0.000125
v 0.14249113 0.0122 0.000125
v 0.14249113 0.009660846 0.000125
v 0.14242285 0.0089667803 0.000125
v 0.14221801 0.0085413373 0.000125
v 0.14185259 0.0083229876 0.000125
v 0.1413026 0.0082502049 0.000125
v 0.1406678 0.0083972716 0.000125
v 0.14030164 0.0088159621 0.000125
v 0.14022173 0.0091629946 0.000125
v 0.14019509 0.009660846 0.000125
v 0.14019509 0.0122 0.000125
v 0.13961283 0.0122 0.000125
v 0.13961283 0.0096578449 0.000125
v 0.13965485 0.0090324354 0.000125
v 0.1397809 0.0085548437 0.000125
v 0.14000525 0.0081988066 0.000125
v 0.14034216 0.0079380631 0.000125
v 0.14079161 0.0077782404 0.000125
v 0.14135362 0.0077249664 0.000125
v 0.14192875 0.007786119 0.000125
v 0.14238158 0.0079695773 0.000125
v 0.14271286 0.0082505798 0.000125
v 0.14292333 0.0086043656 0.000125
v 0.14303588 0.0090628242 0.000125
v 0.1430734 0.0096578449 0.000125
v 0.1430734 0.0122 0.000125
v 0.13961283 0.0096578449 9.9999998e-05
v 0.13965485 0.0090324354 9.9999998e-05
v 0.1397809 0.0085548437 9.9999998e-05
v 0.1397809 0.0085548437 0.000125
v 0.13965485 0.0090324354 0.000125
v 0.13961283 0.0096578449 0.000125
v 0.14249113 0.0122 9.9999998e-05
v 0.14249113 0.009660846 9.9999998e-05
v 0.14249113 0.009660846 0.000125
v 0.14249113 0.0122 0.000125
v 0.1397809 0.0085548437 9.9999998e-05
v 0.14000525 0.0081988066 9.9999998e-05
v 0.14034216 0.0079380631 9.9999998e-05
v 0.14034216 0.0079380631 0.000125
v 0.14000525 0.0081988066 0.000125
v 0.1397809 0.0085548437 0.000125
v 0.14249113 0.009660846 9.9999998e-05
v 0.14249113 0.0122 9.9999998e-05
v 0.1430734 0.0122 9.9999998e-05
v 0.1430734 0.0096578449 9.9999998e-05
v 0.14303588 0.0090628242 9.9999998e-05
v 0.14292333 0.0086043656 9.9999998e-05
v 0.14271286 0.0082505798 9.9999998e-05
v 0.14238158 0.0079695773 9.9999998e-05
v 0.14192875 0.007786119 9.9999998e-05
v 0.14135362 0.0077249664 9.9999998e-05
v 0.14079161 0.0077782404 9.9999998e-05
v 0.14034216 0.0079380631 9.9999998e-05
v 0.14000525 0.0081988066 9.9999998e-05
v 0.1397809 0.0085548437 9.9999998e-05
v 0.13965485 0.0090324354 9.9999998e-05
v 0.13961283 0.0096578449 9.9999998e-05
v 0.13961283 0.0122 9.9999998e-05
v 0.14019509 0.0122 9.9999998e-05
v 0.14019509 0.009660846 9.9999998e-05
v 0.14022173 0.0091629946 9.9999998e-05
v 0.14030164 0.0088159621 9.9999998e-05
v 0.1406678 0.0083972716 9.9999998e-05
v 0.1413026 0.0082502049 9.9999998e-05
v 0.14185259 0.0083229876 9.9999998e-05
v 0.14221801 0.0085413373 9.9999998e-05
v 0.14242285 0.0089667803 9.9999998e-05
v 0.14034216 0.0079380631 9.9999998e-05
v 0.14079161 0.0077782404 9.9999998e-05
v 0.14135362 0.0077249664 9.9999998e-05
v 0.14135362 0.0077249664 0.000125
v 0.14079161 0.0077782404 0.000125
v 0.14034216 0.0079380631 0.000125
v 0.14135362 0.0077249664 9.9999998e-05
v 0.14192875 0.007786119 9.9999998e-05
v 0.14238158 0.0079695773 9.9999998e-05
v 0.14238158 0.0079695773 0.000125
v 0.14192875 0.007786119 0.000125
v 0.14135362 0.0077249664 0.000125
v 0.14238158 0.0079695773 9.9999998e-05
v 0.14271286 0.0082505798 9.9999998e-05
v 0.14292333 0.0086043656 9.9999998e-05
v 0.14292333 0.0086043656 0.000125
v 0.14271286 0.0082505798 0.000125
v 0.14238158 0.0079695773 0.000125
v 0.14292333 0.0086043656 9.9999998e-05
v 0.14303588 0.0090628242 9.9999998e-05
v 0.1430734 0.0096578449 9.9999998e-05
v 0.1430734 0.0096578449 0.000125
v 0.14303588 0.0090628242 0.000125
v 0.14292333 0.0086043656 0.000125
v 0.1430734 0.0096578449 9.9999998e-05
v 0.1430734 0.0122 9.9999998e-05
v 0.1430734 0.0122 0.000125
v 0.1430734 0.0096578449 0.000125
v 0.1430734 0.0122 9.9999998e-05
v 0.14249113 0.0122 9.9999998e-05
v 0.14249113 0.0122 0.000125
v 0.1430734 0.0122 0.000125
f 1 2 4
f 4 2 3
f 5 6 10
f 10 6 9
f 9 6 7
f 9 7 8
f 11 12 14
f 14 12 13
f 15 16 18
f 18 16 17
f 19 20 24
f 24 20 23
f 23 20 21
f 23 21 22
f 25 26 28
f 28 26 27
f 29 30 34
f 34 30 33
f 33 30 31
f 33 31 32
f 35 36 38
f 38 36 37
f 39 40 64
f 64 40 63
f 63 40 62
f 62 40 41
f 62 41 61
f 61 41 60
f 60 41 42
f 60 42 59
f 59 42 43
f 59 43 58
f 58 43 57
f 57 43 44
f 57 44 56
f 56 44 45
f 56 45 55
f 55 45 46
f 55 46 54
f 54 46 53
f 53 46 47
f 53 47 52
f 52 47 51
f 51 47 48
f 51 48 50
f 50 48 49
f 65 66 70
f 70 66 69
f 69 66 67
f 69 67 68
f 71 72 74
f 74 72 73
f 75 76 80
f 80 76 79
f 79 76 77
f 79 77 78
f 82 83 81
f 81 83 84
f 81 84 85
f 81 85 106
f 106 85 86
f 106 86 87
f 106 87 105
f 105 87 88
f 105 88 104
f 104 88 89
f 104 89 90
f 104 90 103
f 103 90 91
f 103 91 102
f 102 91 92
f 102 92 101
f 101 92 93
f 101 93 94
f 101 94 100
f 100 94 95
f 100 95 96
f 100 96 99
f 99 96 97
f 99 97 98
f 107 108 112
f 112 108 111
f 111 108 109
f 111 109 110
f 113 114 118
f 118 114 117
f 117 114 115
f 117 115 116
f 119 120 124
f 124 120 123
f 123 120 121
f 123 121 122
f 125 126 130
f 130 126 129
f 129 126 127
f 129 127 128
f 131 132 134
f 134 132 133
f 135 136 138
f 138 136 137
