v -0.0060000002 -7.3478811e-19 0.03
v -0.0058114988 -0.0014921393 0.03
v -0.0052578402 -0.0028905222 0.03
v -0.0043738118 -0.0041072828 0.03
v -0.0032149607 -0.0050659674 0.03
v -0.001854102 -0.0057063389 0.03
v -0.00037674312 -0.0059881604 0.03
v 0.0011242879 -0.0058937234 0.03
v 0.0025546756 -0.0054289621 0.03
v 0.003824544 -0.0046230796 0.03
v 0.0048541018 -0.0035267115 0.03
v 0.0055786592 -0.0022087473 0.03
v 0.0059526885 -0.00075199939 0.03
v 0.0059526885 0.00075199939 0.03
v 0.0055786592 0.0022087473 0.03
v 0.0048541018 0.0035267115 0.03
v 0.003824544 0.0046230796 0.03
v 0.0025546756 0.0054289621 0.03
v 0.0011242879 0.0058937234 0.03
v -0.00037674312 0.0059881604 0.03
v -0.001854102 0.0057063389 0.03
v -0.0032149607 0.0050659674 0.03
v -0.0043738118 0.0041072828 0.03
v -0.0052578402 0.0028905222 0.03
v -0.0058114988 0.0014921393 0.03
v -0.0060000002 -7.3478811e-19 0.022
v -0.0058114988 0.0014921393 0.022
v -0.0052578402 0.0028905222 0.022
v -0.0043738118 0.0041072828 0.022
v -0.0032149607 0.0050659674 0.022
v -0.001854102 0.0057063389 0.022
v -0.00037674312 0.0059881604 0.022
v 0.0011242879 0.0058937234 0.022
v 0.0025546756 0.0054289621 0.022
v 0.003824544 0.0046230796 0.022
v 0.0048541018 0.0035267115 0.022
v 0.0055786592 0.0022087473 0.022
v 0.0059526885 0.00075199939 0.022
v 0.0059526885 -0.00075199939 0.022
v 0.0055786592 -0.0022087473 0.022
v 0.0048541018 -0.0035267115 0.022
v 0.003824544 -0.0046230796 0.022
v 0.0025546756 -0.0054289621 0.022
v 0.0011242879 -0.0058937234 0.022
v -0.00037674312 -0.0059881604 0.022
v -0.001854102 -0.0057063389 0.022
v -0.0032149607 -0.0050659674 0.022
v -0.0043738118 -0.0041072828 0.022
v -0.0052578402 -0.0028905222 0.022
v -0.0058114988 -0.0014921393 0.022
v -0.0060000002 -7.3478811e-19 0.03
v -0.0060000002 -7.3478811e-19 0.022
v -2.3332655e-18 -0.012701706 0.022
v 0.011 -0.0063508528 0.022
v 0.011 -0.0063508528 0.03
v -2.220446e-18 -0.012701706 0.03
v -0.011 0.0063508528 0.022
v -0.011 -0.0063508528 0.022
v -0.011 -0.0063508528 0.03
v -0.011 0.0063508528 0.03
v -0.0060000002 -7.3478811e-19 0.03
v -0.0058114988 0.0014921393 0.03
v -0.0052578402 0.0028905222 0.03
v -0.0043738118 0.0041072828 0.03
v -0.0032149607 0.0050659674 0.03
v -0.001854102 0.0057063389 0.03
v -0.00037674312 0.0059881604 0.03
v 0.0011242879 0.0058937234 0.03
v 0.0025546756 0.0054289621 0.03
v 0.003824544 0.0046230796 0.03
v 0.0048541018 0.0035267115 0.03
v 0.0055786592 0.0022087473 0.03
v 0.0059526885 0.00075199939 0.03
v 0.0059526885 -0.00075199939 0.03
v 0.0055786592 -0.0022087473 0.03
v 0.0048541018 -0.0035267115 0.03
v 0.003824544 -0.0046230796 0.03
v 0.0025546756 -0.0054289621 0.03
v 0.0011242879 -0.0058937234 0.03
v -0.00037674312 -0.0059881604 0.03
v -0.001854102 -0.0057063389 0.03
v -0.0032149607 -0.0050659674 0.03
v -0.0043738118 -0.0041072828 0.03
v -0.0052578402 -0.0028905222 0.03
v -0.0058114988 -0.0014921393 0.03
v 0.011 -0.0063508528 0.03
v 0.011 0.0063508528 0.03
v 1.110223e-18 0.012701706 0.03
v -0.011 0.0063508528 0.03
v -0.011 -0.0063508528 0.03
v -2.220446e-18 -0.012701706 0.03
v -0.011 -0.0063508528 0.022
v -2.3332655e-18 -0.012701706 0.022
v -2.220446e-18 -0.012701706 0.03
v -0.011 -0.0063508528 0.03
v 7.7775518e-19 0.012701706 0.022
v -0.011 0.0063508528 0.022
v -0.011 0.0063508528 0.03
v 1.110223e-18 0.012701706 0.03
v -0.0060000002 -7.3478811e-19 0.022
v -0.0058114988 -0.0014921393 0.022
v -0.0052578402 -0.0028905222 0.022
v -0.0043738118 -0.0041072828 0.022
v -0.0032149607 -0.0050659674 0.022
v -0.001854102 -0.0057063389 0.022
v -0.00037674312 -0.0059881604 0.022
v 0.0011242879 -0.0058937234 0.022
v 0.0025546756 -0.0054289621 0.022
v 0.003824544 -0.0046230796 0.022
v 0.0048541018 -0.0035267115 0.022
v 0.0055786592 -0.0022087473 0.022
v 0.0059526885 -0.00075199939 0.022
v 0.0059526885 0.00075199939 0.022
v 0.0055786592 0.0022087473 0.022
v 0.0048541018 0.0035267115 0.022
v 0.003824544 0.0046230796 0.022
v 0.0025546756 0.0054289621 0.022
v 0.0011242879 0.0058937234 0.022
v -0.00037674312 0.0059881604 0.022
v -0.001854102 0.0057063389 0.022
v -0.0032149607 0.0050659674 0.022
v -0.0043738118 0.0041072828 0.022
v -0.0052578402 0.0028905222 0.022
v -0.0058114988 0.0014921393 0.022
v 0.011 0.0063508528 0.022
v 0.011 -0.0063508528 0.022
v -2.3332655e-18 -0.012701706 0.022
v -0.011 -0.0063508528 0.022
v -0.011 0.0063508528 0.022
v 7.7775518e-19 0.012701706 0.022
v 0.011 -0.0063508528 0.022
v 0.011 0.0063508528 0.022
v 0.011 0.0063508528 0.03
v 0.011 -0.0063508528 0.03
v 0.011 0.0063508528 0.022
v 7.7775518e-19 0.012701706 0.022
v 1.110223e-18 0.012701706 0.03
v 0.011 0.0063508528 0.03
f 2 50 1
f 1 50 52
f 51 26 25
f 25 26 27
f 25 27 24
f 24 27 28
f 24 28 23
f 23 28 29
f 23 29 22
f 22 29 30
f 22 30 21
f 21 30 31
f 21 31 20
f 20 31 32
f 20 32 19
f 19 32 33
f 19 33 18
f 18 33 34
f 18 34 17
f 17 34 35
f 17 35 16
f 16 35 36
f 16 36 15
f 15 36 37
f 15 37 14
f 14 37 38
f 14 38 13
f 13 38 39
f 13 39 12
f 12 39 40
f 12 40 11
f 11 40 41
f 11 41 10
f 10 41 42
f 10 42 9
f 9 42 43
f 9 43 8
f 8 43 44
f 8 44 7
f 7 44 45
f 7 45 6
f 6 45 46
f 6 46 5
f 5 46 47
f 5 47 4
f 4 47 48
f 4 48 3
f 3 48 49
f 3 49 2
f 2 49 50
f 53 54 56
f 56 54 55
f 57 58 60
f 60 58 59
f 62 89 61
f 61 89 90
f 61 90 85
f 85 90 84
f 84 90 83
f 83 90 82
f 82 90 91
f 82 91 81
f 81 91 80
f 80 91 79
f 79 91 78
f 78 91 77
f 77 91 86
f 77 86 76
f 76 86 75
f 75 86 74
f 74 86 73
f 73 86 87
f 73 87 72
f 72 87 71
f 71 87 70
f 70 87 88
f 70 88 69
f 69 88 68
f 68 88 67
f 67 88 66
f 66 88 65
f 65 88 89
f 65 89 64
f 64 89 63
f 63 89 62
f 92 93 95
f 95 93 94
f 96 97 99
f 99 97 98
f 101 128 100
f 100 128 129
f 100 129 124
f 124 129 123
f 123 129 122
f 122 129 121
f 121 129 130
f 121 130 120
f 120 130 119
f 119 130 118
f 118 130 117
f 117 130 116
f 116 130 125
f 116 125 115
f 115 125 114
f 114 125 113
f 113 125 126
f 113 126 112
f 112 126 111
f 111 126 110
f 110 126 109
f 109 126 127
f 109 127 108
f 108 127 107
f 107 127 106
f 106 127 105
f 105 127 104
f 104 127 128
f 104 128 103
f 103 128 102
f 102 128 101
f 131 132 134
f 134 132 133
f 135 136 138
f 138 136 137
