v 0.70400002 0.26 0.38400002
v 0.70419708 0.2568049 0.38400002
v 0.70478531 0.25365824 0.38400002
v 0.70575569 0.25060772 0.38400002
v 0.70709366 0.24769957 0.38400002
v 0.70877892 0.24497787 0.38400002
v 0.71078575 0.24248392 0.38400002
v 0.71308395 0.24025547 0.38400002
v 0.7156385 0.23832634 0.38400002
v 0.7184108 0.23672575 0.38400002
v 0.7213588 0.23547798 0.38400002
v 0.72443771 0.23460194 0.38400002
v 0.72760101 0.23411091 0.38400002
v 0.7308007 0.23401234 0.38400002
v 0.73398819 0.23430769 0.38400002
v 0.73711525 0.23499254 0.38400002
v 0.74013443 0.23605646 0.38400002
v 0.74300003 0.23748335 0.38400002
v 0.74566849 0.23925156 0.38400002
v 0.74809952 0.24133429 0.38400002
v 0.75025612 0.24369999 0.38400002
v 0.75210564 0.24631277 0.38400002
v 0.75362007 0.24913303 0.38400002
v 0.75477646 0.25211803 0.38400002
v 0.75555733 0.25522251 0.38400002
v 0.7559507 0.25839941 0.38400002
v 0.7559507 0.26160059 0.38400002
v 0.75555733 0.26477749 0.38400002
v 0.75477646 0.26788197 0.38400002
v 0.75362007 0.27086697 0.38400002
v 0.75210564 0.27368723 0.38400002
v 0.75025612 0.27630001 0.38400002
v 0.74809952 0.27866571 0.38400002
v 0.74566849 0.28074844 0.38400002
v 0.74300003 0.28251665 0.38400002
v 0.74013443 0.28394354 0.38400002
v 0.73711525 0.28500746 0.38400002
v 0.73398819 0.28569231 0.38400002
v 0.7308007 0.28598766 0.38400002
v 0.72760101 0.28588909 0.38400002
v 0.72443771 0.28539806 0.38400002
v 0.7213588 0.28452202 0.38400002
v 0.7184108 0.28327425 0.38400002
v 0.7156385 0.28167366 0.38400002
v 0.71308395 0.27974453 0.38400002
v 0.71078575 0.27751608 0.38400002
v 0.70877892 0.27502213 0.38400002
v 0.70709366 0.27230043 0.38400002
v 0.70575569 0.26939228 0.38400002
v 0.70478531 0.26634176 0.38400002
v 0.70419708 0.2631951 0.38400002
v 0.70400002 0.26 0.35200001
v 0.70419708 0.2631951 0.35200001
v 0.70478531 0.26634176 0.35200001
v 0.70575569 0.26939228 0.35200001
v 0.70709366 0.27230043 0.35200001
v 0.70877892 0.27502213 0.35200001
v 0.71078575 0.27751608 0.35200001
v 0.71308395 0.27974453 0.35200001
v 0.7156385 0.28167366 0.35200001
v 0.7184108 0.28327425 0.35200001
v 0.7213588 0.28452202 0.35200001
v 0.72443771 0.28539806 0.35200001
v 0.72760101 0.28588909 0.35200001
v 0.7308007 0.28598766 0.35200001
v 0.73398819 0.28569231 0.35200001
v 0.73711525 0.28500746 0.35200001
v 0.74013443 0.28394354 0.35200001
v 0.74300003 0.28251665 0.35200001
v 0.74566849 0.28074844 0.35200001
v 0.74809952 0.27866571 0.35200001
v 0.75025612 0.27630001 0.35200001
v 0.75210564 0.27368723 0.35200001
v 0.75362007 0.27086697 0.35200001
v 0.75477646 0.26788197 0.35200001
v 0.75555733 0.26477749 0.35200001
v 0.7559507 0.26160059 0.35200001
v 0.7559507 0.25839941 0.35200001
v 0.75555733 0.25522251 0.35200001
v 0.75477646 0.25211803 0.35200001
v 0.75362007 0.24913303 0.35200001
v 0.75210564 0.24631277 0.35200001
v 0.75025612 0.24369999 0.35200001
v 0.74809952 0.24133429 0.35200001
v 0.74566849 0.23925156 0.35200001
v 0.74300003 0.23748335 0.35200001
v 0.74013443 0.23605646 0.35200001
v 0.73711525 0.23499254 0.35200001
v 0.73398819 0.23430769 0.35200001
v 0.7308007 0.23401234 0.35200001
v 0.72760101 0.23411091 0.35200001
v 0.72443771 0.23460194 0.35200001
v 0.7213588 0.23547798 0.35200001
v 0.7184108 0.23672575 0.35200001
v 0.7156385 0.23832634 0.35200001
v 0.71308395 0.24025547 0.35200001
v 0.71078575 0.24248392 0.35200001
v 0.70877892 0.24497787 0.35200001
v 0.70709366 0.24769957 0.35200001
v 0.70575569 0.25060772 0.35200001
v 0.70478531 0.25365824 0.35200001
v 0.70419708 0.2568049 0.35200001
v 0.70400002 0.26 0.38400002
v 0.70419708 0.2631951 0.38400002
v 0.70478531 0.26634176 0.38400002
v 0.70575569 0.26939228 0.38400002
v 0.70709366 0.27230043 0.38400002
v 0.70877892 0.27502213 0.38400002
v 0.71078575 0.27751608 0.38400002
v 0.71308395 0.27974453 0.38400002
v 0.7156385 0.28167366 0.38400002
v 0.7184108 0.28327425 0.38400002
v 0.7213588 0.28452202 0.38400002
v 0.72443771 0.28539806 0.38400002
v 0.72760101 0.28588909 0.38400002
v 0.7308007 0.28598766 0.38400002
v 0.73398819 0.28569231 0.38400002
v 0.73711525 0.28500746 0.38400002
v 0.74013443 0.28394354 0.38400002
v 0.74300003 0.28251665 0.38400002
v 0.74566849 0.28074844 0.38400002
v 0.74809952 0.27866571 0.38400002
v 0.75025612 0.27630001 0.38400002
v 0.75210564 0.27368723 0.38400002
v 0.75362007 0.27086697 0.38400002
v 0.75477646 0.26788197 0.38400002
v 0.75555733 0.26477749 0.38400002
v 0.7559507 0.26160059 0.38400002
v 0.7559507 0.25839941 0.38400002
v 0.75555733 0.25522251 0.38400002
v 0.75477646 0.25211803 0.38400002
v 0.75362007 0.24913303 0.38400002
v 0.75210564 0.24631277 0.38400002
v 0.75025612 0.24369999 0.38400002
v 0.74809952 0.24133429 0.38400002
v 0.74566849 0.23925156 0.38400002
v 0.74300003 0.23748335 0.38400002
v 0.74013443 0.23605646 0.38400002
v 0.73711525 0.23499254 0.38400002
v 0.73398819 0.23430769 0.38400002
v 0.7308007 0.23401234 0.38400002
v 0.72760101 0.23411091 0.38400002
v 0.72443771 0.23460194 0.38400002
v 0.7213588 0.23547798 0.38400002
v 0.7184108 0.23672575 0.38400002
v 0.7156385 0.23832634 0.38400002
v 0.71308395 0.24025547 0.38400002
v 0.71078575 0.24248392 0.38400002
v 0.70877892 0.24497787 0.38400002
v 0.70709366 0.24769957 0.38400002
v 0.70575569 0.25060772 0.38400002
v 0.70478531 0.25365824 0.38400002
v 0.70419708 0.2568049 0.38400002
v 0.70400002 0.26 0.35200001
v 0.70419708 0.2568049 0.35200001
v 0.70478531 0.25365824 0.35200001
v 0.70575569 0.25060772 0.35200001
v 0.70709366 0.24769957 0.35200001
v 0.70877892 0.24497787 0.35200001
v 0.71078575 0.24248392 0.35200001
v 0.71308395 0.24025547 0.35200001
v 0.7156385 0.23832634 0.35200001
v 0.7184108 0.23672575 0.35200001
v 0.7213588 0.23547798 0.35200001
v 0.72443771 0.23460194 0.35200001
v 0.72760101 0.23411091 0.35200001
v 0.7308007 0.23401234 0.35200001
v 0.73398819 0.23430769 0.35200001
v 0.73711525 0.23499254 0.35200001
v 0.74013443 0.23605646 0.35200001
v 0.74300003 0.23748335 0.35200001
v 0.74566849 0.23925156 0.35200001
v 0.74809952 0.24133429 0.35200001
v 0.75025612 0.24369999 0.35200001
v 0.75210564 0.24631277 0.35200001
v 0.75362007 0.24913303 0.35200001
v 0.75477646 0.25211803 0.35200001
v 0.75555733 0.25522251 0.35200001
v 0.7559507 0.25839941 0.35200001
v 0.7559507 0.26160059 0.35200001
v 0.75555733 0.26477749 0.35200001
v 0.75477646 0.26788197 0.35200001
v 0.75362007 0.27086697 0.35200001
v 0.75210564 0.27368723 0.35200001
v 0.75025612 0.27630001 0.35200001
v 0.74809952 0.27866571 0.35200001
v 0.74566849 0.28074844 0.35200001
v 0.74300003 0.28251665 0.35200001
v 0.74013443 0.28394354 0.35200001
v 0.73711525 0.28500746 0.35200001
v 0.73398819 0.28569231 0.35200001
v 0.7308007 0.28598766 0.35200001
v 0.72760101 0.28588909 0.35200001
v 0.72443771 0.28539806 0.35200001
v 0.7213588 0.28452202 0.35200001
v 0.7184108 0.28327425 0.35200001
v 0.7156385 0.28167366 0.35200001
v 0.71308395 0.27974453 0.35200001
v 0.71078575 0.27751608 0.35200001
v 0.70877892 0.27502213 0.35200001
v 0.70709366 0.27230043 0.35200001
v 0.70575569 0.26939228 0.35200001
v 0.70478531 0.26634176 0.35200001
v 0.70419708 0.2631951 0.35200001
v 0.70400002 0.26 0.35200001
v 0.70400002 0.26 0.38400002
f 1 2 51
f 51 2 50
f 50 2 3
f 50 3 49
f 49 3 48
f 48 3 47
f 47 3 46
f 46 3 45
f 45 3 44
f 44 3 43
f 43 3 42
f 42 3 41
f 41 3 40
f 40 3 39
f 39 3 38
f 38 3 37
f 37 3 36
f 36 3 35
f 35 3 34
f 34 3 33
f 33 3 32
f 32 3 31
f 31 3 30
f 30 3 29
f 29 3 28
f 28 3 27
f 27 3 26
f 26 3 25
f 25 3 24
f 24 3 4
f 24 4 23
f 23 4 5
f 23 5 22
f 22 5 6
f 22 6 21
f 21 6 7
f 21 7 20
f 20 7 8
f 20 8 19
f 19 8 9
f 19 9 18
f 18 9 10
f 18 10 17
f 17 10 11
f 17 11 16
f 16 11 12
f 16 12 15
f 15 12 13
f 15 13 14
f 52 53 102
f 102 53 54
f 102 54 101
f 101 54 55
f 101 55 56
f 56 57 101
f 101 57 58
f 101 58 59
f 59 60 101
f 101 60 61
f 101 61 62
f 62 63 101
f 101 63 64
f 101 64 65
f 65 66 101
f 101 66 67
f 101 67 68
f 68 69 101
f 101 69 70
f 101 70 71
f 71 72 101
f 101 72 73
f 101 73 74
f 74 75 101
f 101 75 76
f 101 76 77
f 77 78 101
f 101 78 79
f 101 79 80
f 101 80 100
f 100 80 81
f 100 81 99
f 99 81 82
f 99 82 98
f 98 82 83
f 98 83 97
f 97 83 84
f 97 84 96
f 96 84 85
f 96 85 95
f 95 85 86
f 95 86 94
f 94 86 87
f 94 87 93
f 93 87 88
f 93 88 92
f 92 88 89
f 92 89 91
f 91 89 90
f 104 204 103
f 103 204 205
f 206 154 153
f 153 154 155
f 153 155 152
f 152 155 156
f 152 156 151
f 151 156 157
f 151 157 150
f 150 157 158
f 150 158 149
f 149 158 159
f 149 159 148
f 148 159 160
f 148 160 147
f 147 160 161
f 147 161 146
f 146 161 162
f 146 162 145
f 145 162 163
f 145 163 144
f 144 163 164
f 144 164 143
f 143 164 165
f 143 165 142
f 142 165 166
f 142 166 141
f 141 166 167
f 141 167 140
f 140 167 168
f 140 168 139
f 139 168 169
f 139 169 138
f 138 169 170
f 138 170 137
f 137 170 171
f 137 171 136
f 136 171 172
f 136 172 135
f 135 172 173
f 135 173 134
f 134 173 174
f 134 174 133
f 133 174 175
f 133 175 132
f 132 175 176
f 132 176 131
f 131 176 177
f 131 177 130
f 130 177 178
f 130 178 129
f 129 178 179
f 129 179 128
f 128 179 180
f 128 180 127
f 127 180 181
f 127 181 126
f 126 181 182
f 126 182 125
f 125 182 183
f 125 183 124
f 124 183 184
f 124 184 123
f 123 184 185
f 123 185 122
f 122 185 186
f 122 186 121
f 121 186 187
f 121 187 120
f 120 187 188
f 120 188 119
f 119 188 189
f 119 189 118
f 118 189 190
f 118 190 117
f 117 190 191
f 117 191 116
f 116 191 192
f 116 192 115
f 115 192 193
f 115 193 114
f 114 193 194
f 114 194 113
f 113 194 195
f 113 195 112
f 112 195 196
f 112 196 111
f 111 196 197
f 111 197 110
f 110 197 198
f 110 198 109
f 109 198 199
f 109 199 108
f 108 199 200
f 108 200 107
f 107 200 201
f 107 201 106
f 106 201 202
f 106 202 105
f 105 202 203
f 105 203 104
f 104 203 204
