v 0.089146929 0.10452776 9.9999998e-05
v 0.088656569 0.10388729 9.9999998e-05
v 0.088194752 0.10311514 9.9999998e-05
v 0.088194752 0.10311514 0.000125
v 0.088656569 0.10388729 0.000125
v 0.089146929 0.10452776 0.000125
v 0.088194752 0.10311514 9.9999998e-05
v 0.087799234 0.10226103 9.9999998e-05
v 0.087507772 0.10137469 9.9999998e-05
v 0.087507772 0.10137469 0.000125
v 0.087799234 0.10226103 0.000125
v 0.088194752 0.10311514 0.000125
v 0.08650218 0.10452776 0.000125
v 0.089146929 0.10452776 0.000125
v 0.088656569 0.10388729 0.000125
v 0.088194752 0.10311514 0.000125
v 0.087799234 0.10226103 0.000125
v 0.087507772 0.10137469 0.000125
v 0.087325439 0.10053854 0.000125
v 0.087257299 0.099834995 0.000125
v 0.087938747 0.099834995 0.000125
v 0.088192902 0.10131944 0.000125
v 0.088526726 0.10226794 0.000125
v 0.088975649 0.10319065 0.000125
v 0.089484434 0.10401023 0.000125
v 0.089997816 0.10464931 0.000125
v 0.089997816 0.105165 0.000125
v 0.08650218 0.105165 0.000125
v 0.087507772 0.10137469 9.9999998e-05
v 0.087325439 0.10053854 9.9999998e-05
v 0.087257299 0.099834995 9.9999998e-05
v 0.087257299 0.099834995 0.000125
v 0.087325439 0.10053854 0.000125
v 0.087507772 0.10137469 0.000125
v 0.08650218 0.10452776 9.9999998e-05
v 0.089146929 0.10452776 9.9999998e-05
v 0.089146929 0.10452776 0.000125
v 0.08650218 0.10452776 0.000125
v 0.087257299 0.099834995 9.9999998e-05
v 0.087938747 0.099834995 9.9999998e-05
v 0.087938747 0.099834995 0.000125
v 0.087257299 0.099834995 0.000125
v 0.089146929 0.10452776 9.9999998e-05
v 0.08650218 0.10452776 9.9999998e-05
v 0.08650218 0.105165 9.9999998e-05
v 0.089997816 0.105165 9.9999998e-05
v 0.089997816 0.10464931 9.9999998e-05
v 0.089484434 0.10401023 9.9999998e-05
v 0.088975649 0.10319065 9.9999998e-05
v 0.088526726 0.10226794 9.9999998e-05
v 0.088192902 0.10131944 9.9999998e-05
v 0.087938747 0.099834995 9.9999998e-05
v 0.087257299 0.099834995 9.9999998e-05
v 0.087325439 0.10053854 9.9999998e-05
v 0.087507772 0.10137469 9.9999998e-05
v 0.087799234 0.10226103 9.9999998e-05
v 0.088194752 0.10311514 9.9999998e-05
v 0.088656569 0.10388729 9.9999998e-05
v 0.087938747 0.099834995 9.9999998e-05
v 0.088192902 0.10131944 9.9999998e-05
v 0.088192902 0.10131944 0.000125
v 0.087938747 0.099834995 0.000125
v 0.088192902 0.10131944 9.9999998e-05
v 0.088526726 0.10226794 9.9999998e-05
v 0.088975649 0.10319065 9.9999998e-05
v 0.088975649 0.10319065 0.000125
v 0.088526726 0.10226794 0.000125
v 0.088192902 0.10131944 0.000125
v 0.088975649 0.10319065 9.9999998e-05
v 0.089484434 0.10401023 9.9999998e-05
v 0.089997816 0.10464931 9.9999998e-05
v 0.089997816 0.10464931 0.000125
v 0.089484434 0.10401023 0.000125
v 0.088975649 0.10319065 0.000125
v 0.089997816 0.10464931 9.9999998e-05
v 0.089997816 0.105165 9.9999998e-05
v 0.089997816 0.105165 0.000125
v 0.089997816 0.10464931 0.000125
v 0.089997816 0.105165 9.9999998e-05
v 0.08650218 0.105165 9.9999998e-05
v 0.08650218 0.105165 0.000125
v 0.089997816 0.105165 0.000125
v 0.08650218 0.105165 9.9999998e-05
v 0.08650218 0.10452776 9.9999998e-05
v 0.08650218 0.10452776 0.000125
v 0.08650218 0.105165 0.000125
f 1 2 6
f 6 2 5
f 5 2 3
f 5 3 4
f 7 8 12
f 12 8 11
f 11 8 9
f 11 9 10
f 13 14 28
f 28 14 27
f 27 14 26
f 26 14 25
f 25 14 15
f 25 15 24
f 24 15 16
f 24 16 23
f 23 16 17
f 23 17 22
f 22 17 18
f 22 18 19
f 20 21 19
f 19 21 22
f 29 30 34
f 34 30 33
f 33 30 31
f 33 31 32
f 35 36 38
f 38 36 37
f 39 40 42
f 42 40 41
f 44 45 43
f 43 45 46
f 43 46 47
f 47 48 43
f 43 48 58
f 58 48 49
f 58 49 57
f 57 49 50
f 57 50 56
f 56 50 51
f 56 51 55
f 55 51 54
f 54 51 52
f 54 52 53
f 59 60 62
f 62 60 61
f 63 64 68
f 68 64 67
f 67 64 65
f 67 65 66
f 69 70 74
f 74 70 73
f 73 70 71
f 73 71 72
f 75 76 78
f 78 76 77
f 79 80 82
f 82 80 81
f 83 84 86
f 86 84 85
