v 0.21692499 0.41799999 0.071999998
v 0.21692499 0.54200001 0.071999998
v 0.22092501 0.545 0.19200001
v 0.22092501 0.415 0.19200001
v 0.17692499 0.54200001 0.071999998
v 0.17692499 0.41799999 0.071999998
v 0.172925 0.415 0.19200001
v 0.172925 0.545 0.19200001
v 0.21692499 0.54200001 0.071999998
v 0.21692499 0.41799999 0.071999998
v 0.17692499 0.41799999 0.071999998
v 0.17692499 0.54200001 0.071999998
v 0.178825 0.419925 0.075
v 0.178825 0.540075 0.075
v 0.174925 0.54299999 0.19200001
v 0.174925 0.41700001 0.19200001
v 0.21502501 0.540075 0.075
v 0.21502501 0.419925 0.075
v 0.218925 0.41700001 0.19200001
v 0.218925 0.54299999 0.19200001
v 0.19842501 0.54490002 0.18799999
v 0.20092501 0.545 0.19200001
v 0.22092501 0.545 0.19200001
v 0.21692499 0.54200001 0.071999998
v 0.17692499 0.54200001 0.071999998
v 0.172925 0.545 0.19200001
v 0.192925 0.545 0.19200001
v 0.195425 0.54490002 0.18799999
v 0.20092501 0.545 0.19200001
v 0.20092501 0.54299999 0.19200001
v 0.218925 0.54299999 0.19200001
v 0.218925 0.41700001 0.19200001
v 0.20092501 0.41700001 0.19200001
v 0.20092501 0.415 0.19200001
v 0.22092501 0.415 0.19200001
v 0.22092501 0.545 0.19200001
v 0.21502501 0.419925 0.075
v 0.21502501 0.540075 0.075
v 0.178825 0.540075 0.075
v 0.178825 0.419925 0.075
v 0.195425 0.41509998 0.18799999
v 0.192925 0.415 0.19200001
v 0.172925 0.415 0.19200001
v 0.17692499 0.41799999 0.071999998
v 0.21692499 0.41799999 0.071999998
v 0.22092501 0.415 0.19200001
v 0.20092501 0.415 0.19200001
v 0.19842501 0.41509998 0.18799999
v 0.192925 0.54299999 0.19200001
v 0.192925 0.545 0.19200001
v 0.172925 0.545 0.19200001
v 0.172925 0.415 0.19200001
v 0.192925 0.415 0.19200001
v 0.192925 0.41700001 0.19200001
v 0.174925 0.41700001 0.19200001
v 0.174925 0.54299999 0.19200001
v 0.20092501 0.54299999 0.19200001
v 0.19842501 0.54290001 0.18799999
v 0.195425 0.54290001 0.18799999
v 0.192925 0.54299999 0.19200001
v 0.174925 0.54299999 0.19200001
v 0.178825 0.540075 0.075
v 0.21502501 0.540075 0.075
v 0.218925 0.54299999 0.19200001
v 0.192925 0.41700001 0.19200001
v 0.195425 0.41709999 0.18799999
v 0.19842501 0.41709999 0.18799999
v 0.20092501 0.41700001 0.19200001
v 0.218925 0.41700001 0.19200001
v 0.21502501 0.419925 0.075
v 0.178825 0.419925 0.075
v 0.174925 0.41700001 0.19200001
v 0.19842501 0.54290001 0.18799999
v 0.20092501 0.54299999 0.19200001
v 0.20092501 0.545 0.19200001
v 0.19842501 0.54490002 0.18799999
v 0.195425 0.54290001 0.18799999
v 0.19842501 0.54290001 0.18799999
v 0.19842501 0.54490002 0.18799999
v 0.195425 0.54490002 0.18799999
v 0.19842501 0.41709999 0.18799999
v 0.195425 0.41709999 0.18799999
v 0.195425 0.41509998 0.18799999
v 0.19842501 0.41509998 0.18799999
v 0.20092501 0.41700001 0.19200001
v 0.19842501 0.41709999 0.18799999
v 0.19842501 0.41509998 0.18799999
v 0.20092501 0.415 0.19200001
v 0.192925 0.54299999 0.19200001
v 0.195425 0.54290001 0.18799999
v 0.195425 0.54490002 0.18799999
v 0.192925 0.545 0.19200001
v 0.195425 0.41709999 0.18799999
v 0.192925 0.41700001 0.19200001
v 0.192925 0.415 0.19200001
v 0.195425 0.41509998 0.18799999
f 1 2 4
f 4 2 3
f 6 7 5
f 5 7 8
f 10 11 9
f 9 11 12
f 13 14 16
f 16 14 15
f 18 19 17
f 17 19 20
f 22 23 21
f 21 23 24
f 21 24 25
f 21 25 28
f 28 25 26
f 28 26 27
f 30 31 29
f 29 31 36
f 36 31 35
f 35 31 32
f 35 32 34
f 34 32 33
f 38 39 37
f 37 39 40
f 42 43 41
f 41 43 44
f 41 44 48
f 48 44 45
f 48 45 46
f 46 47 48
f 49 50 56
f 56 50 51
f 56 51 52
f 56 52 55
f 55 52 53
f 55 53 54
f 57 58 64
f 64 58 63
f 63 58 62
f 62 58 59
f 62 59 61
f 61 59 60
f 65 66 72
f 72 66 71
f 71 66 67
f 71 67 70
f 70 67 69
f 69 67 68
f 73 74 76
f 76 74 75
f 77 78 80
f 80 78 79
f 81 82 84
f 84 82 83
f 86 87 85
f 85 87 88
f 90 91 89
f 89 91 92
f 93 94 96
f 96 94 95
