v -0.073000002 -0.165 0.33813
v -0.073000002 -0.165 0.33796001
v -0.073000002 -0.225 0.33796001
v -0.073000002 -0.225 0.33813
v -0.049000001 -0.165 0.33796001
v -0.049000001 -0.225 0.33796001
v -0.073000002 -0.225 0.33796001
v -0.073000002 -0.165 0.33796001
v -0.049000001 -0.165 0.33813
v -0.049000001 -0.165 0.33796001
v -0.073000002 -0.165 0.33796001
v -0.073000002 -0.165 0.33813
v -0.049000001 -0.225 0.33813
v -0.049000001 -0.225 0.33796001
v -0.049000001 -0.165 0.33796001
v -0.049000001 -0.165 0.33813
v -0.073000002 -0.225 0.33813
v -0.073000002 -0.225 0.33796001
v -0.049000001 -0.225 0.33796001
v -0.049000001 -0.225 0.33813
v -0.049000001 -0.225 0.33813
v -0.049000001 -0.165 0.33813
v -0.073000002 -0.165 0.33813
v -0.073000002 -0.225 0.33813
f 1 2 4
f 4 2 3
f 6 7 5
f 5 7 8
f 9 10 12
f 12 10 11
f 13 14 16
f 16 14 15
f 17 18 20
f 20 18 19
f 22 23 21
f 21 23 24
