v 0.59192501 0.54299999 0.19200001
v 0.59192501 0.545 0.19200001
v 0.57192501 0.545 0.19200001
v 0.57192501 0.415 0.19200001
v 0.59192501 0.415 0.19200001
v 0.59192501 0.41700001 0.19200001
v 0.57392502 0.41700001 0.19200001
v 0.57392502 0.54299999 0.19200001
v 0.599925 0.54299999 0.19200001
v 0.597425 0.54290001 0.18799999
v 0.59442501 0.54290001 0.18799999
v 0.59192501 0.54299999 0.19200001
v 0.57392502 0.54299999 0.19200001
v 0.57782501 0.540075 0.075
v 0.614025 0.540075 0.075
v 0.617925 0.54299999 0.19200001
v 0.59192501 0.41700001 0.19200001
v 0.59442501 0.41709999 0.18799999
v 0.597425 0.41709999 0.18799999
v 0.599925 0.41700001 0.19200001
v 0.617925 0.41700001 0.19200001
v 0.614025 0.419925 0.075
v 0.57782501 0.419925 0.075
v 0.57392502 0.41700001 0.19200001
v 0.597425 0.54290001 0.18799999
v 0.599925 0.54299999 0.19200001
v 0.599925 0.545 0.19200001
v 0.597425 0.54490002 0.18799999
v 0.59442501 0.54290001 0.18799999
v 0.597425 0.54290001 0.18799999
v 0.597425 0.54490002 0.18799999
v 0.59442501 0.54490002 0.18799999
v 0.597425 0.41709999 0.18799999
v 0.59442501 0.41709999 0.18799999
v 0.59442501 0.41509998 0.18799999
v 0.597425 0.41509998 0.18799999
v 0.599925 0.41700001 0.19200001
v 0.597425 0.41709999 0.18799999
v 0.597425 0.41509998 0.18799999
v 0.599925 0.415 0.19200001
v 0.59192501 0.54299999 0.19200001
v 0.59442501 0.54290001 0.18799999
v 0.59442501 0.54490002 0.18799999
v 0.59192501 0.545 0.19200001
v 0.59442501 0.41709999 0.18799999
v 0.59192501 0.41700001 0.19200001
v 0.59192501 0.415 0.19200001
v 0.59442501 0.41509998 0.18799999
v 0.61592499 0.41799999 0.071999998
v 0.61592499 0.54200001 0.071999998
v 0.619925 0.545 0.19200001
v 0.619925 0.415 0.19200001
v 0.57592499 0.54200001 0.071999998
v 0.57592499 0.41799999 0.071999998
v 0.57192501 0.415 0.19200001
v 0.57192501 0.545 0.19200001
v 0.61592499 0.54200001 0.071999998
v 0.61592499 0.41799999 0.071999998
v 0.57592499 0.41799999 0.071999998
v 0.57592499 0.54200001 0.071999998
v 0.57782501 0.419925 0.075
v 0.57782501 0.540075 0.075
v 0.57392502 0.54299999 0.19200001
v 0.57392502 0.41700001 0.19200001
v 0.614025 0.540075 0.075
v 0.614025 0.419925 0.075
v 0.617925 0.41700001 0.19200001
v 0.617925 0.54299999 0.19200001
v 0.597425 0.54490002 0.18799999
v 0.599925 0.545 0.19200001
v 0.619925 0.545 0.19200001
v 0.61592499 0.54200001 0.071999998
v 0.57592499 0.54200001 0.071999998
v 0.57192501 0.545 0.19200001
v 0.59192501 0.545 0.19200001
v 0.59442501 0.54490002 0.18799999
v 0.599925 0.545 0.19200001
v 0.599925 0.54299999 0.19200001
v 0.617925 0.54299999 0.19200001
v 0.617925 0.41700001 0.19200001
v 0.599925 0.41700001 0.19200001
v 0.599925 0.415 0.19200001
v 0.619925 0.415 0.19200001
v 0.619925 0.545 0.19200001
v 0.614025 0.419925 0.075
v 0.614025 0.540075 0.075
v 0.57782501 0.540075 0.075
v 0.57782501 0.419925 0.075
v 0.59442501 0.41509998 0.18799999
v 0.59192501 0.415 0.19200001
v 0.57192501 0.415 0.19200001
v 0.57592499 0.41799999 0.071999998
v 0.61592499 0.41799999 0.071999998
v 0.619925 0.415 0.19200001
v 0.599925 0.415 0.19200001
v 0.597425 0.41509998 0.18799999
f 1 2 8
f 8 2 3
f 8 3 4
f 8 4 7
f 7 4 5
f 7 5 6
f 9 10 16
f 16 10 15
f 15 10 14
f 14 10 11
f 14 11 13
f 13 11 12
f 17 18 24
f 24 18 23
f 23 18 19
f 23 19 22
f 22 19 21
f 21 19 20
f 25 26 28
f 28 26 27
f 29 30 32
f 32 30 31
f 33 34 36
f 36 34 35
f 38 39 37
f 37 39 40
f 42 43 41
f 41 43 44
f 45 46 48
f 48 46 47
f 49 50 52
f 52 50 51
f 54 55 53
f 53 55 56
f 58 59 57
f 57 59 60
f 61 62 64
f 64 62 63
f 66 67 65
f 65 67 68
f 70 71 69
f 69 71 72
f 69 72 73
f 69 73 76
f 76 73 74
f 76 74 75
f 78 79 77
f 77 79 84
f 84 79 83
f 83 79 80
f 83 80 82
f 82 80 81
f 86 87 85
f 85 87 88
f 90 91 89
f 89 91 92
f 89 92 96
f 96 92 93
f 96 93 94
f 94 95 96
