v -0.185 -0.204 0.31799999
v -0.185 -0.17200001 0.31799999
v -0.18200001 -0.17200001 0.31799999
v -0.18200001 -0.204 0.31799999
v -0.18200001 -0.17200001 0.31799999
v -0.185 -0.17200001 0.31799999
v -0.185 -0.17200001 0.34799999
v -0.18200001 -0.17200001 0.34799999
v -0.185 -0.204 0.31799999
v -0.18200001 -0.204 0.31799999
v -0.18200001 -0.204 0.34799999
v -0.185 -0.204 0.34799999
v -0.185 -0.17200001 0.31799999
v -0.185 -0.204 0.31799999
v -0.185 -0.204 0.34799999
v -0.185 -0.17200001 0.34799999
v -0.185 -0.17200001 0.34799999
v -0.185 -0.204 0.34799999
v -0.18200001 -0.204 0.34799999
v -0.18200001 -0.17200001 0.34799999
v -0.18200001 -0.204 0.31799999
v -0.18200001 -0.17200001 0.31799999
v -0.18200001 -0.17200001 0.34799999
v -0.18200001 -0.204 0.34799999
f 2 3 1
f 1 3 4
f 5 6 8
f 8 6 7
f 9 10 12
f 12 10 11
f 13 14 16
f 16 14 15
f 18 19 17
f 17 19 20
f 21 22 24
f 24 22 23
