v 0.33599998 0.285 0.58549999
v 0.33599998 0.28613646 0.58568962
v 0.33599998 0.28714975 0.58623802
v 0.33599998 0.28793009 0.58708569
v 0.33599998 0.28839291 0.58814079
v 0.33599998 0.28848804 0.58928902
v 0.33599998 0.2882052 0.59040592
v 0.33599998 0.28757504 0.59137047
v 0.33599998 0.28666582 0.59207817
v 0.33599998 0.28557608 0.59245228
v 0.33599998 0.28442392 0.59245228
v 0.33599998 0.28333418 0.59207817
v 0.33599998 0.28242496 0.59137047
v 0.33599998 0.2817948 0.59040592
v 0.33599998 0.28151196 0.58928902
v 0.33599998 0.28160709 0.58814079
v 0.33599998 0.28206991 0.58708569
v 0.33599998 0.28285025 0.58623802
v 0.33599998 0.28386354 0.58568962
v 0.34400002 0.285 0.58549999
v 0.34400002 0.28386354 0.58568962
v 0.34400002 0.28285025 0.58623802
v 0.34400002 0.28206991 0.58708569
v 0.34400002 0.28160709 0.58814079
v 0.34400002 0.28151196 0.58928902
v 0.34400002 0.2817948 0.59040592
v 0.34400002 0.28242496 0.59137047
v 0.34400002 0.28333418 0.59207817
v 0.34400002 0.28442392 0.59245228
v 0.34400002 0.28557608 0.59245228
v 0.34400002 0.28666582 0.59207817
v 0.34400002 0.28757504 0.59137047
v 0.34400002 0.2882052 0.59040592
v 0.34400002 0.28848804 0.58928902
v 0.34400002 0.28839291 0.58814079
v 0.34400002 0.28793009 0.58708569
v 0.34400002 0.28714975 0.58623802
v 0.34400002 0.28613646 0.58568962
v 0.33599998 0.28442392 0.59245228
v 0.34400002 0.28442392 0.59245228
v 0.34400002 0.285 0.59110001
v 0.34400002 0.28585415 0.59091843
v 0.34400002 0.28656061 0.59040516
v 0.34400002 0.28699722 0.58964893
v 0.34400002 0.28708849 0.58878048
v 0.34400002 0.28681866 0.58794998
v 0.34400002 0.28623434 0.58730106
v 0.34400002 0.28543661 0.58694588
v 0.34400002 0.28456339 0.58694588
v 0.34400002 0.28376566 0.58730106
v 0.34400002 0.28318134 0.58794998
v 0.34400002 0.28291151 0.58878048
v 0.34400002 0.28300278 0.58964893
v 0.34400002 0.28343939 0.59040516
v 0.34400002 0.28414585 0.59091843
v 0.34400002 0.285 0.58549999
v 0.34400002 0.28613646 0.58568962
v 0.34400002 0.28714975 0.58623802
v 0.34400002 0.28793009 0.58708569
v 0.34400002 0.28839291 0.58814079
v 0.34400002 0.28848804 0.58928902
v 0.34400002 0.2882052 0.59040592
v 0.34400002 0.28757504 0.59137047
v 0.34400002 0.28666582 0.59207817
v 0.34400002 0.28557608 0.59245228
v 0.34400002 0.28442392 0.59245228
v 0.34400002 0.28333418 0.59207817
v 0.34400002 0.28242496 0.59137047
v 0.34400002 0.2817948 0.59040592
v 0.34400002 0.28151196 0.58928902
v 0.34400002 0.28160709 0.58814079
v 0.34400002 0.28206991 0.58708569
v 0.34400002 0.28285025 0.58623802
v 0.34400002 0.28386354 0.58568962
v 0.33599998 0.285 0.59110001
v 0.33599998 0.28585415 0.59091843
v 0.33599998 0.28656061 0.59040516
v 0.33599998 0.28699722 0.58964893
v 0.33599998 0.28708849 0.58878048
v 0.33599998 0.28681866 0.58794998
v 0.33599998 0.28623434 0.58730106
v 0.33599998 0.28543661 0.58694588
v 0.33599998 0.28456339 0.58694588
v 0.33599998 0.28376566 0.58730106
v 0.33599998 0.28318134 0.58794998
v 0.33599998 0.28291151 0.58878048
v 0.33599998 0.28300278 0.58964893
v 0.33599998 0.28343939 0.59040516
v 0.33599998 0.28414585 0.59091843
v 0.34400002 0.285 0.59110001
v 0.34400002 0.28414585 0.59091843
v 0.34400002 0.28343939 0.59040516
v 0.34400002 0.28300278 0.58964893
v 0.34400002 0.28291151 0.58878048
v 0.34400002 0.28318134 0.58794998
v 0.34400002 0.28376566 0.58730106
v 0.34400002 0.28456339 0.58694588
v 0.34400002 0.28543661 0.58694588
v 0.34400002 0.28623434 0.58730106
v 0.34400002 0.28681866 0.58794998
v 0.34400002 0.28708849 0.58878048
v 0.34400002 0.28699722 0.58964893
v 0.34400002 0.28656061 0.59040516
v 0.34400002 0.28585415 0.59091843
v 0.34400002 0.285 0.59110001
v 0.33599998 0.285 0.59110001
v 0.33599998 0.285 0.59110001
v 0.33599998 0.28414585 0.59091843
v 0.33599998 0.28343939 0.59040516
v 0.33599998 0.28300278 0.58964893
v 0.33599998 0.28291151 0.58878048
v 0.33599998 0.28318134 0.58794998
v 0.33599998 0.28376566 0.58730106
v 0.33599998 0.28456339 0.58694588
v 0.33599998 0.28543661 0.58694588
v 0.33599998 0.28623434 0.58730106
v 0.33599998 0.28681866 0.58794998
v 0.33599998 0.28708849 0.58878048
v 0.33599998 0.28699722 0.58964893
v 0.33599998 0.28656061 0.59040516
v 0.33599998 0.28585415 0.59091843
v 0.33599998 0.285 0.58549999
v 0.33599998 0.28386354 0.58568962
v 0.33599998 0.28285025 0.58623802
v 0.33599998 0.28206991 0.58708569
v 0.33599998 0.28160709 0.58814079
v 0.33599998 0.28151196 0.58928902
v 0.33599998 0.2817948 0.59040592
v 0.33599998 0.28242496 0.59137047
v 0.33599998 0.28333418 0.59207817
v 0.33599998 0.28442392 0.59245228
v 0.33599998 0.28557608 0.59245228
v 0.33599998 0.28666582 0.59207817
v 0.33599998 0.28757504 0.59137047
v 0.33599998 0.2882052 0.59040592
v 0.33599998 0.28848804 0.58928902
v 0.33599998 0.28839291 0.58814079
v 0.33599998 0.28793009 0.58708569
v 0.33599998 0.28714975 0.58623802
v 0.33599998 0.28613646 0.58568962
f 2 20 1
f 1 20 21
f 1 21 19
f 19 21 22
f 19 22 18
f 18 22 23
f 18 23 17
f 17 23 24
f 17 24 16
f 16 24 25
f 16 25 15
f 15 25 26
f 15 26 14
f 14 26 27
f 14 27 13
f 13 27 28
f 13 28 12
f 12 28 40
f 12 40 11
f 39 29 30
f 39 30 10
f 10 30 31
f 10 31 9
f 9 31 32
f 9 32 8
f 8 32 33
f 8 33 7
f 7 33 34
f 7 34 6
f 6 34 35
f 6 35 5
f 5 35 36
f 5 36 4
f 4 36 37
f 4 37 3
f 3 37 38
f 3 38 2
f 2 38 20
f 42 65 41
f 41 65 66
f 41 66 55
f 55 66 67
f 55 67 54
f 54 67 68
f 54 68 69
f 65 42 64
f 64 42 43
f 64 43 63
f 63 43 62
f 62 43 44
f 62 44 61
f 61 44 45
f 61 45 60
f 60 45 46
f 60 46 59
f 59 46 47
f 59 47 58
f 58 47 57
f 57 47 48
f 57 48 56
f 56 48 49
f 56 49 74
f 74 49 50
f 74 50 73
f 73 50 72
f 72 50 51
f 72 51 71
f 71 51 52
f 71 52 70
f 70 52 53
f 70 53 69
f 69 53 54
f 76 104 75
f 75 104 105
f 106 90 89
f 89 90 91
f 89 91 88
f 88 91 92
f 88 92 87
f 87 92 93
f 87 93 86
f 86 93 94
f 86 94 85
f 85 94 95
f 85 95 84
f 84 95 96
f 84 96 83
f 83 96 97
f 83 97 82
f 82 97 98
f 82 98 81
f 81 98 99
f 81 99 80
f 80 99 100
f 80 100 79
f 79 100 101
f 79 101 78
f 78 101 102
f 78 102 77
f 77 102 103
f 77 103 76
f 76 103 104
f 108 131 107
f 107 131 132
f 107 132 121
f 121 132 133
f 121 133 120
f 120 133 134
f 120 134 135
f 131 108 130
f 130 108 109
f 130 109 129
f 129 109 128
f 128 109 110
f 128 110 127
f 127 110 111
f 127 111 126
f 126 111 112
f 126 112 125
f 125 112 113
f 125 113 124
f 124 113 123
f 123 113 114
f 123 114 122
f 122 114 115
f 122 115 140
f 140 115 116
f 140 116 139
f 139 116 138
f 138 116 117
f 138 117 137
f 137 117 118
f 137 118 136
f 136 118 119
f 136 119 135
f 135 119 120
