v 0.083500004 0.028 0.39
v 0.083699465 0.031424742 0.39
v 0.084295177 0.034803169 0.39
v 0.085279064 0.038089595 0.39
v 0.08663784 0.041239576 0.39
v 0.088353109 0.044210515 0.39
v 0.090401688 0.046962233 0.39
v 0.092755871 0.049457521 0.39
v 0.095383825 0.051662636 0.39
v 0.098249998 0.05354775 0.39
v 0.10131565 0.055087376 0.39
v 0.10453931 0.056260691 0.39
v 0.10787738 0.05705183 0.39
v 0.11128472 0.057450089 0.39
v 0.11471527 0.057450089 0.39
v 0.11812263 0.05705183 0.39
v 0.1214607 0.056260691 0.39
v 0.12468435 0.055087376 0.39
v 0.12775 0.05354775 0.39
v 0.13061618 0.051662636 0.39
v 0.13324413 0.049457521 0.39
v 0.13559831 0.046962233 0.39
v 0.13764689 0.044210515 0.39
v 0.13936216 0.041239576 0.39
v 0.14072093 0.038089595 0.39
v 0.14170483 0.034803169 0.39
v 0.14230053 0.031424742 0.39
v 0.1425 0.028 0.39
v 0.14230053 0.02457526 0.39
v 0.14170483 0.021196833 0.39
v 0.14072093 0.017910405 0.39
v 0.13936216 0.014760424 0.39
v 0.13764689 0.011789485 0.39
v 0.13559831 0.0090377653 0.39
v 0.13324413 0.0065424776 0.39
v 0.13061618 0.0043373659 0.39
v 0.12775 0.0024522506 0.39
v 0.12468435 0.00091262482 0.39
v 0.1214607 -0.00026069062 0.39
v 0.11812263 -0.0010518287 0.39
v 0.11471527 -0.0014500907 0.39
v 0.11128472 -0.0014500907 0.39
v 0.10787738 -0.0010518287 0.39
v 0.10453931 -0.00026069062 0.39
v 0.10131565 0.00091262482 0.39
v 0.098249998 0.0024522506 0.39
v 0.095383825 0.0043373659 0.39
v 0.092755871 0.0065424776 0.39
v 0.090401688 0.0090377653 0.39
v 0.088353109 0.011789485 0.39
v 0.08663784 0.014760424 0.39
v 0.085279064 0.017910405 0.39
v 0.084295177 0.021196833 0.39
v 0.083699465 0.02457526 0.39
v 0.083500004 0.028 0.31700001
v 0.083699465 0.02457526 0.31700001
v 0.084295177 0.021196833 0.31700001
v 0.085279064 0.017910405 0.31700001
v 0.08663784 0.014760424 0.31700001
v 0.088353109 0.011789485 0.31700001
v 0.090401688 0.0090377653 0.31700001
v 0.092755871 0.0065424776 0.31700001
v 0.095383825 0.0043373659 0.31700001
v 0.098249998 0.0024522506 0.31700001
v 0.10131565 0.00091262482 0.31700001
v 0.10453931 -0.00026069062 0.31700001
v 0.10787738 -0.0010518287 0.31700001
v 0.11128472 -0.0014500907 0.31700001
v 0.11471527 -0.0014500907 0.31700001
v 0.11812263 -0.0010518287 0.31700001
v 0.1214607 -0.00026069062 0.31700001
v 0.12468435 0.00091262482 0.31700001
v 0.12775 0.0024522506 0.31700001
v 0.13061618 0.0043373659 0.31700001
v 0.13324413 0.0065424776 0.31700001
v 0.13559831 0.0090377653 0.31700001
v 0.13764689 0.011789485 0.31700001
v 0.13936216 0.014760424 0.31700001
v 0.14072093 0.017910405 0.31700001
v 0.14170483 0.021196833 0.31700001
v 0.14230053 0.02457526 0.31700001
v 0.1425 0.028 0.31700001
v 0.14230053 0.031424742 0.31700001
v 0.14170483 0.034803169 0.31700001
v 0.14072093 0.038089595 0.31700001
v 0.13936216 0.041239576 0.31700001
v 0.13764689 0.044210515 0.31700001
v 0.13559831 0.046962233 0.31700001
v 0.13324413 0.049457521 0.31700001
v 0.13061618 0.051662636 0.31700001
v 0.12775 0.05354775 0.31700001
v 0.12468435 0.055087376 0.31700001
v 0.1214607 0.056260691 0.31700001
v 0.11812263 0.05705183 0.31700001
v 0.11471527 0.057450089 0.31700001
v 0.11128472 0.057450089 0.31700001
v 0.10787738 0.05705183 0.31700001
v 0.10453931 0.056260691 0.31700001
v 0.10131565 0.055087376 0.31700001
v 0.098249998 0.05354775 0.31700001
v 0.095383825 0.051662636 0.31700001
v 0.092755871 0.049457521 0.31700001
v 0.090401688 0.046962233 0.31700001
v 0.088353109 0.044210515 0.31700001
v 0.08663784 0.041239576 0.31700001
v 0.085279064 0.038089595 0.31700001
v 0.084295177 0.034803169 0.31700001
v 0.083699465 0.031424742 0.31700001
v 0.083500004 0.028 0.31700001
v 0.083500004 0.028 0.39
v 0.083500004 0.028 0.39
v 0.083699465 0.02457526 0.39
v 0.084295177 0.021196833 0.39
v 0.085279064 0.017910405 0.39
v 0.08663784 0.014760424 0.39
v 0.088353109 0.011789485 0.39
v 0.090401688 0.0090377653 0.39
v 0.092755871 0.0065424776 0.39
v 0.095383825 0.0043373659 0.39
v 0.098249998 0.0024522506 0.39
v 0.10131565 0.00091262482 0.39
v 0.10453931 -0.00026069062 0.39
v 0.10787738 -0.0010518287 0.39
v 0.11128472 -0.0014500907 0.39
v 0.11471527 -0.0014500907 0.39
v 0.11812263 -0.0010518287 0.39
v 0.1214607 -0.00026069062 0.39
v 0.12468435 0.00091262482 0.39
v 0.12775 0.0024522506 0.39
v 0.13061618 0.0043373659 0.39
v 0.13324413 0.0065424776 0.39
v 0.13559831 0.0090377653 0.39
v 0.13764689 0.011789485 0.39
v 0.13936216 0.014760424 0.39
v 0.14072093 0.017910405 0.39
v 0.14170483 0.021196833 0.39
v 0.14230053 0.02457526 0.39
v 0.1425 0.028 0.39
v 0.14230053 0.031424742 0.39
v 0.14170483 0.034803169 0.39
v 0.14072093 0.038089595 0.39
v 0.13936216 0.041239576 0.39
v 0.13764689 0.044210515 0.39
v 0.13559831 0.046962233 0.39
v 0.13324413 0.049457521 0.39
v 0.13061618 0.051662636 0.39
v 0.12775 0.05354775 0.39
v 0.12468435 0.055087376 0.39
v 0.1214607 0.056260691 0.39
v 0.11812263 0.05705183 0.39
v 0.11471527 0.057450089 0.39
v 0.11128472 0.057450089 0.39
v 0.10787738 0.05705183 0.39
v 0.10453931 0.056260691 0.39
v 0.10131565 0.055087376 0.39
v 0.098249998 0.05354775 0.39
v 0.095383825 0.051662636 0.39
v 0.092755871 0.049457521 0.39
v 0.090401688 0.046962233 0.39
v 0.088353109 0.044210515 0.39
v 0.08663784 0.041239576 0.39
v 0.085279064 0.038089595 0.39
v 0.084295177 0.034803169 0.39
v 0.083699465 0.031424742 0.39
v 0.083500004 0.028 0.31700001
v 0.083699465 0.031424742 0.31700001
v 0.084295177 0.034803169 0.31700001
v 0.085279064 0.038089595 0.31700001
v 0.08663784 0.041239576 0.31700001
v 0.088353109 0.044210515 0.31700001
v 0.090401688 0.046962233 0.31700001
v 0.092755871 0.049457521 0.31700001
v 0.095383825 0.051662636 0.31700001
v 0.098249998 0.05354775 0.31700001
v 0.10131565 0.055087376 0.31700001
v 0.10453931 0.056260691 0.31700001
v 0.10787738 0.05705183 0.31700001
v 0.11128472 0.057450089 0.31700001
v 0.11471527 0.057450089 0.31700001
v 0.11812263 0.05705183 0.31700001
v 0.1214607 0.056260691 0.31700001
v 0.12468435 0.055087376 0.31700001
v 0.12775 0.05354775 0.31700001
v 0.13061618 0.051662636 0.31700001
v 0.13324413 0.049457521 0.31700001
v 0.13559831 0.046962233 0.31700001
v 0.13764689 0.044210515 0.31700001
v 0.13936216 0.041239576 0.31700001
v 0.14072093 0.038089595 0.31700001
v 0.14170483 0.034803169 0.31700001
v 0.14230053 0.031424742 0.31700001
v 0.1425 0.028 0.31700001
v 0.14230053 0.02457526 0.31700001
v 0.14170483 0.021196833 0.31700001
v 0.14072093 0.017910405 0.31700001
v 0.13936216 0.014760424 0.31700001
v 0.13764689 0.011789485 0.31700001
v 0.13559831 0.0090377653 0.31700001
v 0.13324413 0.0065424776 0.31700001
v 0.13061618 0.0043373659 0.31700001
v 0.12775 0.0024522506 0.31700001
v 0.12468435 0.00091262482 0.31700001
v 0.1214607 -0.00026069062 0.31700001
v 0.11812263 -0.0010518287 0.31700001
v 0.11471527 -0.0014500907 0.31700001
v 0.11128472 -0.0014500907 0.31700001
v 0.10787738 -0.0010518287 0.31700001
v 0.10453931 -0.00026069062 0.31700001
v 0.10131565 0.00091262482 0.31700001
v 0.098249998 0.0024522506 0.31700001
v 0.095383825 0.0043373659 0.31700001
v 0.092755871 0.0065424776 0.31700001
v 0.090401688 0.0090377653 0.31700001
v 0.088353109 0.011789485 0.31700001
v 0.08663784 0.014760424 0.31700001
v 0.085279064 0.017910405 0.31700001
v 0.084295177 0.021196833 0.31700001
v 0.083699465 0.02457526 0.31700001
f 2 108 1
f 1 108 109
f 110 55 54
f 54 55 56
f 54 56 53
f 53 56 57
f 53 57 52
f 52 57 58
f 52 58 51
f 51 58 59
f 51 59 50
f 50 59 60
f 50 60 49
f 49 60 61
f 49 61 48
f 48 61 62
f 48 62 47
f 47 62 63
f 47 63 46
f 46 63 64
f 46 64 45
f 45 64 65
f 45 65 44
f 44 65 66
f 44 66 43
f 43 66 67
f 43 67 42
f 42 67 68
f 42 68 41
f 41 68 69
f 41 69 40
f 40 69 70
f 40 70 39
f 39 70 71
f 39 71 38
f 38 71 72
f 38 72 37
f 37 72 73
f 37 73 36
f 36 73 74
f 36 74 35
f 35 74 75
f 35 75 34
f 34 75 76
f 34 76 33
f 33 76 77
f 33 77 32
f 32 77 78
f 32 78 31
f 31 78 79
f 31 79 30
f 30 79 80
f 30 80 29
f 29 80 81
f 29 81 28
f 28 81 82
f 28 82 27
f 27 82 83
f 27 83 26
f 26 83 84
f 26 84 25
f 25 84 85
f 25 85 24
f 24 85 86
f 24 86 23
f 23 86 87
f 23 87 22
f 22 87 88
f 22 88 21
f 21 88 89
f 21 89 20
f 20 89 90
f 20 90 19
f 19 90 91
f 19 91 18
f 18 91 92
f 18 92 17
f 17 92 93
f 17 93 16
f 16 93 94
f 16 94 15
f 15 94 95
f 15 95 14
f 14 95 96
f 14 96 13
f 13 96 97
f 13 97 12
f 12 97 98
f 12 98 11
f 11 98 99
f 11 99 10
f 10 99 100
f 10 100 9
f 9 100 101
f 9 101 8
f 8 101 102
f 8 102 7
f 7 102 103
f 7 103 6
f 6 103 104
f 6 104 5
f 5 104 105
f 5 105 4
f 4 105 106
f 4 106 3
f 3 106 107
f 3 107 2
f 2 107 108
f 112 137 111
f 111 137 138
f 111 138 164
f 164 138 139
f 164 139 163
f 163 139 140
f 163 140 162
f 162 140 141
f 162 141 161
f 161 141 142
f 161 142 160
f 160 142 143
f 160 143 159
f 159 143 144
f 159 144 158
f 158 144 145
f 158 145 157
f 157 145 146
f 157 146 156
f 156 146 147
f 156 147 155
f 155 147 148
f 155 148 154
f 154 148 149
f 154 149 153
f 153 149 150
f 153 150 152
f 152 150 151
f 137 112 136
f 136 112 113
f 136 113 135
f 135 113 114
f 135 114 134
f 134 114 115
f 134 115 133
f 133 115 116
f 133 116 132
f 132 116 117
f 132 117 131
f 131 117 118
f 131 118 130
f 130 118 119
f 130 119 129
f 129 119 120
f 129 120 128
f 128 120 121
f 128 121 127
f 127 121 122
f 127 122 126
f 126 122 123
f 126 123 125
f 125 123 124
f 166 191 165
f 165 191 192
f 165 192 218
f 218 192 193
f 218 193 217
f 217 193 194
f 217 194 216
f 216 194 195
f 216 195 215
f 215 195 196
f 215 196 214
f 214 196 197
f 214 197 213
f 213 197 198
f 213 198 212
f 212 198 199
f 212 199 211
f 211 199 200
f 211 200 210
f 210 200 201
f 210 201 209
f 209 201 202
f 209 202 208
f 208 202 203
f 208 203 207
f 207 203 204
f 207 204 206
f 206 204 205
f 191 166 190
f 190 166 167
f 190 167 189
f 189 167 168
f 189 168 188
f 188 168 169
f 188 169 187
f 187 169 170
f 187 170 186
f 186 170 171
f 186 171 185
f 185 171 172
f 185 172 184
f 184 172 173
f 184 173 183
f 183 173 174
f 183 174 182
f 182 174 175
f 182 175 181
f 181 175 176
f 181 176 180
f 180 176 177
f 180 177 179
f 179 177 178
