v 0.144 -0.071999998 0.39200001
v 0.144 -0.071999998 0.38700001
v -0.060999999 -0.071999998 0.38700001
v -0.060999999 -0.071999998 0.39200001
v -0.060999999 -0.08 0.39200001
v -0.060999999 -0.08 0.38700001
v 0.144 -0.08 0.38700001
v 0.144 -0.08 0.39200001
v 0.144 -0.08 0.39200001
v 0.144 -0.071999998 0.39200001
v -0.060999999 -0.071999998 0.39200001
v -0.060999999 -0.08 0.39200001
v 0.144 -0.071999998 0.38700001
v 0.144 -0.08 0.38700001
v -0.060999999 -0.08 0.38700001
v -0.060999999 -0.071999998 0.38700001
v 0.144 -0.08 0.39200001
v 0.144 -0.08 0.38700001
v 0.144 -0.071999998 0.38700001
v 0.144 -0.071999998 0.39200001
v -0.060999999 -0.071999998 0.39200001
v -0.060999999 -0.071999998 0.38700001
v -0.060999999 -0.08 0.38700001
v -0.060999999 -0.08 0.39200001
f 1 2 4
f 4 2 3
f 5 6 8
f 8 6 7
f 10 11 9
f 9 11 12
f 14 15 13
f 13 15 16
f 17 18 20
f 20 18 19
f 21 22 24
f 24 22 23
