v 0.74885002 0.0080000001 0.035
v 0.74707497 0.0080000001 0.035
v 0.74707497 0.0080000001 0.2032
v 0.74885002 0.0080000001 0.2032
v 0.74885002 0 0.035
v 0.74885002 0.0080000001 0.035
v 0.74885002 0.0080000001 0.2032
v 0.74885002 0 0.2032
v 0.74707497 0 0.035
v 0.74885002 0 0.035
v 0.74885002 0 0.2032
v 0.74707497 0 0.2032
v 0.74707497 0.0080000001 0.035
v 0.74707497 0 0.035
v 0.74707497 0 0.2032
v 0.74707497 0.0080000001 0.2032
v 0.74707497 0 0.035
v 0.74707497 0.0080000001 0.035
v 0.74885002 0.0080000001 0.035
v 0.74885002 0 0.035
v 0.74707497 0.0080000001 0.2032
v 0.74707497 0 0.2032
v 0.74885002 0 0.2032
v 0.74885002 0.0080000001 0.2032
f 1 2 4
f 4 2 3
f 5 6 8
f 8 6 7
f 9 10 12
f 12 10 11
f 13 14 16
f 16 14 15
f 18 19 17
f 17 19 20
f 22 23 21
f 21 23 24
