v 0.055229468 0.1226 9.9999998e-05
v 0.055646796 0.12375089 9.9999998e-05
v 0.055646796 0.12375089 0.000125
v 0.055229468 0.1226 0.000125
v 0.054695497 0.1226 9.9999998e-05
v 0.055229468 0.1226 9.9999998e-05
v 0.055229468 0.1226 0.000125
v 0.054695497 0.1226 0.000125
v 0.055646796 0.12375089 9.9999998e-05
v 0.057235742 0.12375089 9.9999998e-05
v 0.057235742 0.12375089 0.000125
v 0.055646796 0.12375089 0.000125
v 0.057235742 0.12375089 9.9999998e-05
v 0.05767899 0.1226 9.9999998e-05
v 0.05767899 0.1226 0.000125
v 0.057235742 0.12375089 0.000125
v 0.05767899 0.1226 9.9999998e-05
v 0.058251843 0.1226 9.9999998e-05
v 0.058251843 0.1226 0.000125
v 0.05767899 0.1226 0.000125
v 0.054695497 0.1226 0.000125
v 0.055229468 0.1226 0.000125
v 0.055646796 0.12375089 0.000125
v 0.057235742 0.12375089 0.000125
v 0.05767899 0.1226 0.000125
v 0.058251843 0.1226 0.000125
v 0.056696591 0.1264 0.000125
v 0.056154842 0.1264 0.000125
v 0.05579195 0.12416043 0.000125
v 0.056209278 0.12527503 0.000125
v 0.056414051 0.12600081 0.000125
v 0.056683631 0.12521282 0.000125
v 0.057080216 0.12416043 0.000125
v 0.058251843 0.1226 9.9999998e-05
v 0.056696591 0.1264 9.9999998e-05
v 0.056696591 0.1264 0.000125
v 0.058251843 0.1226 0.000125
v 0.056696591 0.1264 9.9999998e-05
v 0.056154842 0.1264 9.9999998e-05
v 0.056154842 0.1264 0.000125
v 0.056696591 0.1264 0.000125
v 0.055229468 0.1226 9.9999998e-05
v 0.054695497 0.1226 9.9999998e-05
v 0.056154842 0.1264 9.9999998e-05
v 0.056696591 0.1264 9.9999998e-05
v 0.058251843 0.1226 9.9999998e-05
v 0.05767899 0.1226 9.9999998e-05
v 0.057235742 0.12375089 9.9999998e-05
v 0.055646796 0.12375089 9.9999998e-05
v 0.056209278 0.12527503 9.9999998e-05
v 0.05579195 0.12416043 9.9999998e-05
v 0.057080216 0.12416043 9.9999998e-05
v 0.056683631 0.12521282 9.9999998e-05
v 0.056414051 0.12600081 9.9999998e-05
v 0.056154842 0.1264 9.9999998e-05
v 0.054695497 0.1226 9.9999998e-05
v 0.054695497 0.1226 0.000125
v 0.056154842 0.1264 0.000125
v 0.05579195 0.12416043 9.9999998e-05
v 0.056209278 0.12527503 9.9999998e-05
v 0.056209278 0.12527503 0.000125
v 0.05579195 0.12416043 0.000125
v 0.056209278 0.12527503 9.9999998e-05
v 0.056414051 0.12600081 9.9999998e-05
v 0.056414051 0.12600081 0.000125
v 0.056209278 0.12527503 0.000125
v 0.056414051 0.12600081 9.9999998e-05
v 0.056683631 0.12521282 9.9999998e-05
v 0.056683631 0.12521282 0.000125
v 0.056414051 0.12600081 0.000125
v 0.056683631 0.12521282 9.9999998e-05
v 0.057080216 0.12416043 9.9999998e-05
v 0.057080216 0.12416043 0.000125
v 0.056683631 0.12521282 0.000125
v 0.057080216 0.12416043 9.9999998e-05
v 0.05579195 0.12416043 9.9999998e-05
v 0.05579195 0.12416043 0.000125
v 0.057080216 0.12416043 0.000125
f 1 2 4
f 4 2 3
f 5 6 8
f 8 6 7
f 9 10 12
f 12 10 11
f 13 14 16
f 16 14 15
f 17 18 20
f 20 18 19
f 22 23 21
f 21 23 29
f 21 29 28
f 28 29 30
f 28 30 31
f 29 23 33
f 33 23 24
f 33 24 26
f 26 24 25
f 26 27 33
f 33 27 32
f 32 27 31
f 31 27 28
f 34 35 37
f 37 35 36
f 38 39 41
f 41 39 40
f 42 43 49
f 49 43 51
f 49 51 52
f 43 44 51
f 51 44 50
f 50 44 54
f 54 44 45
f 54 45 53
f 53 45 52
f 52 45 46
f 52 46 48
f 48 46 47
f 48 49 52
f 55 56 58
f 58 56 57
f 59 60 62
f 62 60 61
f 63 64 66
f 66 64 65
f 67 68 70
f 70 68 69
f 71 72 74
f 74 72 73
f 75 76 78
f 78 76 77
