v 0.10531678 0.1449513 9.9999998e-05
v 0.10511051 0.14451419 9.9999998e-05
v 0.10504175 0.14404543 9.9999998e-05
v 0.10504175 0.14404543 0.000125
v 0.10511051 0.14451419 0.000125
v 0.10531678 0.1449513 0.000125
v 0.10479727 0.14135621 0.000125
v 0.10489387 0.14074775 0.000125
v 0.10514871 0.14020587 0.000125
v 0.10554598 0.13976111 0.000125
v 0.10606985 0.13944407 0.000125
v 0.10672743 0.13925416 0.000125
v 0.10752579 0.13919086 0.000125
v 0.10817681 0.13925362 0.000125
v 0.10875908 0.13944188 0.000125
v 0.10924312 0.13974311 0.000125
v 0.10959946 0.14014475 0.000125
v 0.10981883 0.14061132 0.000125
v 0.10989195 0.14110737 0.000125
v 0.10982537 0.14159249 0.000125
v 0.10962564 0.1420176 0.000125
v 0.10928622 0.14237831 0.000125
v 0.10880054 0.14267026 0.000125
v 0.1082543 0.14285962 0.000125
v 0.1073839 0.14307844 0.000125
v 0.10654843 0.14330928 0.000125
v 0.10610697 0.14353465 0.000125
v 0.10592033 0.14378786 0.000125
v 0.10585812 0.14410218 0.000125
v 0.10594598 0.14447053 0.000125
v 0.10620955 0.14478104 0.000125
v 0.10666521 0.14499223 0.000125
v 0.10732933 0.14506262 0.000125
v 0.10797709 0.14498513 0.000125
v 0.10844475 0.14475266 0.000125
v 0.10874434 0.14436849 0.000125
v 0.10888786 0.14383588 0.000125
v 0.10969986 0.143897 0.000125
v 0.10961038 0.14443069 0.000125
v 0.10938555 0.14490546 0.000125
v 0.10903028 0.14529673 0.000125
v 0.10854952 0.14557995 0.000125
v 0.10796398 0.14575184 0.000125
v 0.10729441 0.14580914 0.000125
v 0.10667776 0.14575457 0.000125
v 0.10612005 0.14559086 0.000125
v 0.10565512 0.14532183 0.000125
v 0.10531678 0.1449513 0.000125
v 0.10511051 0.14451419 0.000125
v 0.10504175 0.14404543 0.000125
v 0.10509796 0.14362578 0.000125
v 0.10526657 0.1432487 0.000125
v 0.1055498 0.14292183 0.000125
v 0.1059498 0.1426528 0.000125
v 0.10643547 0.14245907 0.000125
v 0.10718527 0.14225334 0.000125
v 0.10791106 0.14206944 0.000125
v 0.1083247 0.1419412 0.000125
v 0.10866958 0.14177039 0.000125
v 0.10890095 0.14156358 0.000125
v 0.10907558 0.14103752 0.000125
v 0.10889441 0.14048964 0.000125
v 0.10866575 0.14026535 0.000125
v 0.10834215 0.14009455 0.000125
v 0.1074865 0.13995048 0.000125
v 0.10696808 0.13999795 0.000125
v 0.10650423 0.14014038 0.000125
v 0.10612497 0.14035975 0.000125
v 0.10586031 0.14063807 0.000125
v 0.10569059 0.14098895 0.000125
v 0.10559618 0.14142606 0.000125
v 0.1074865 0.13995048 9.9999998e-05
v 0.10696808 0.13999795 9.9999998e-05
v 0.10650423 0.14014038 9.9999998e-05
v 0.10650423 0.14014038 0.000125
v 0.10696808 0.13999795 0.000125
v 0.1074865 0.13995048 0.000125
v 0.10888786 0.14383588 9.9999998e-05
v 0.10969986 0.143897 9.9999998e-05
v 0.10969986 0.143897 0.000125
v 0.10888786 0.14383588 0.000125
v 0.10606985 0.13944407 9.9999998e-05
v 0.10672743 0.13925416 9.9999998e-05
v 0.10752579 0.13919086 9.9999998e-05
v 0.10752579 0.13919086 0.000125
v 0.10672743 0.13925416 0.000125
v 0.10606985 0.13944407 0.000125
v 0.10718527 0.14225334 9.9999998e-05
v 0.10791106 0.14206944 9.9999998e-05
v 0.1083247 0.1419412 9.9999998e-05
v 0.1083247 0.1419412 0.000125
v 0.10791106 0.14206944 0.000125
v 0.10718527 0.14225334 0.000125
v 0.10586031 0.14063807 9.9999998e-05
v 0.10569059 0.14098895 9.9999998e-05
v 0.10559618 0.14142606 9.9999998e-05
v 0.10559618 0.14142606 0.000125
v 0.10569059 0.14098895 0.000125
v 0.10586031 0.14063807 0.000125
v 0.10514871 0.14020587 9.9999998e-05
v 0.10554598 0.13976111 9.9999998e-05
v 0.10606985 0.13944407 9.9999998e-05
v 0.10606985 0.13944407 0.000125
v 0.10554598 0.13976111 0.000125
v 0.10514871 0.14020587 0.000125
v 0.10752579 0.13919086 9.9999998e-05
v 0.10817681 0.13925362 9.9999998e-05
v 0.10875908 0.13944188 9.9999998e-05
v 0.10875908 0.13944188 0.000125
v 0.10817681 0.13925362 0.000125
v 0.10752579 0.13919086 0.000125
v 0.10907558 0.14103752 9.9999998e-05
v 0.10889441 0.14048964 9.9999998e-05
v 0.10889441 0.14048964 0.000125
v 0.10907558 0.14103752 0.000125
v 0.10732933 0.14506262 9.9999998e-05
v 0.10797709 0.14498513 9.9999998e-05
v 0.10844475 0.14475266 9.9999998e-05
v 0.10844475 0.14475266 0.000125
v 0.10797709 0.14498513 0.000125
v 0.10732933 0.14506262 0.000125
v 0.10559618 0.14142606 9.9999998e-05
v 0.10479727 0.14135621 9.9999998e-05
v 0.10479727 0.14135621 0.000125
v 0.10559618 0.14142606 0.000125
v 0.10834215 0.14009455 9.9999998e-05
v 0.1074865 0.13995048 9.9999998e-05
v 0.1074865 0.13995048 0.000125
v 0.10834215 0.14009455 0.000125
v 0.10479727 0.14135621 9.9999998e-05
v 0.10489387 0.14074775 9.9999998e-05
v 0.10514871 0.14020587 9.9999998e-05
v 0.10514871 0.14020587 0.000125
v 0.10489387 0.14074775 0.000125
v 0.10479727 0.14135621 0.000125
v 0.10880054 0.14267026 9.9999998e-05
v 0.1082543 0.14285962 9.9999998e-05
v 0.1073839 0.14307844 9.9999998e-05
v 0.1073839 0.14307844 0.000125
v 0.1082543 0.14285962 0.000125
v 0.10880054 0.14267026 0.000125
v 0.10938555 0.14490546 9.9999998e-05
v 0.10903028 0.14529673 9.9999998e-05
v 0.10854952 0.14557995 9.9999998e-05
v 0.10854952 0.14557995 0.000125
v 0.10903028 0.14529673 0.000125
v 0.10938555 0.14490546 0.000125
v 0.10854952 0.14557995 9.9999998e-05
v 0.10796398 0.14575184 9.9999998e-05
v 0.10729441 0.14580914 9.9999998e-05
v 0.10729441 0.14580914 0.000125
v 0.10796398 0.14575184 0.000125
v 0.10854952 0.14557995 0.000125
v 0.10729441 0.14580914 9.9999998e-05
v 0.10667776 0.14575457 9.9999998e-05
v 0.10612005 0.14559086 9.9999998e-05
v 0.10612005 0.14559086 0.000125
v 0.10667776 0.14575457 0.000125
v 0.10729441 0.14580914 0.000125
v 0.10889441 0.14048964 9.9999998e-05
v 0.10866575 0.14026535 9.9999998e-05
v 0.10834215 0.14009455 9.9999998e-05
v 0.10834215 0.14009455 0.000125
v 0.10866575 0.14026535 0.000125
v 0.10889441 0.14048964 0.000125
v 0.10962564 0.1420176 9.9999998e-05
v 0.10928622 0.14237831 9.9999998e-05
v 0.10880054 0.14267026 9.9999998e-05
v 0.10880054 0.14267026 0.000125
v 0.10928622 0.14237831 0.000125
v 0.10962564 0.1420176 0.000125
v 0.10585812 0.14410218 9.9999998e-05
v 0.10594598 0.14447053 9.9999998e-05
v 0.10620955 0.14478104 9.9999998e-05
v 0.10620955 0.14478104 0.000125
v 0.10594598 0.14447053 0.000125
v 0.10585812 0.14410218 0.000125
v 0.10989195 0.14110737 9.9999998e-05
v 0.10982537 0.14159249 9.9999998e-05
v 0.10962564 0.1420176 9.9999998e-05
v 0.10962564 0.1420176 0.000125
v 0.10982537 0.14159249 0.000125
v 0.10989195 0.14110737 0.000125
v 0.10969986 0.143897 9.9999998e-05
v 0.10961038 0.14443069 9.9999998e-05
v 0.10938555 0.14490546 9.9999998e-05
v 0.10938555 0.14490546 0.000125
v 0.10961038 0.14443069 0.000125
v 0.10969986 0.143897 0.000125
v 0.1083247 0.1419412 9.9999998e-05
v 0.10866958 0.14177039 9.9999998e-05
v 0.10890095 0.14156358 9.9999998e-05
v 0.10890095 0.14156358 0.000125
v 0.10866958 0.14177039 0.000125
v 0.1083247 0.1419412 0.000125
v 0.10844475 0.14475266 9.9999998e-05
v 0.10874434 0.14436849 9.9999998e-05
v 0.10888786 0.14383588 9.9999998e-05
v 0.10888786 0.14383588 0.000125
v 0.10874434 0.14436849 0.000125
v 0.10844475 0.14475266 0.000125
v 0.1059498 0.1426528 9.9999998e-05
v 0.10643547 0.14245907 9.9999998e-05
v 0.10718527 0.14225334 9.9999998e-05
v 0.10718527 0.14225334 0.000125
v 0.10643547 0.14245907 0.000125
v 0.1059498 0.1426528 0.000125
v 0.10526657 0.1432487 9.9999998e-05
v 0.1055498 0.14292183 9.9999998e-05
v 0.1059498 0.1426528 9.9999998e-05
v 0.1059498 0.1426528 0.000125
v 0.1055498 0.14292183 0.000125
v 0.10526657 0.1432487 0.000125
v 0.10650423 0.14014038 9.9999998e-05
v 0.10612497 0.14035975 9.9999998e-05
v 0.10586031 0.14063807 9.9999998e-05
v 0.10586031 0.14063807 0.000125
v 0.10612497 0.14035975 0.000125
v 0.10650423 0.14014038 0.000125
v 0.10514871 0.14020587 9.9999998e-05
v 0.10489387 0.14074775 9.9999998e-05
v 0.10479727 0.14135621 9.9999998e-05
v 0.10559618 0.14142606 9.9999998e-05
v 0.10569059 0.14098895 9.9999998e-05
v 0.10586031 0.14063807 9.9999998e-05
v 0.10612497 0.14035975 9.9999998e-05
v 0.10650423 0.14014038 9.9999998e-05
v 0.10696808 0.13999795 9.9999998e-05
v 0.1074865 0.13995048 9.9999998e-05
v 0.10834215 0.14009455 9.9999998e-05
v 0.10866575 0.14026535 9.9999998e-05
v 0.10889441 0.14048964 9.9999998e-05
v 0.10907558 0.14103752 9.9999998e-05
v 0.10890095 0.14156358 9.9999998e-05
v 0.10866958 0.14177039 9.9999998e-05
v 0.1083247 0.1419412 9.9999998e-05
v 0.10791106 0.14206944 9.9999998e-05
v 0.10718527 0.14225334 9.9999998e-05
v 0.10643547 0.14245907 9.9999998e-05
v 0.1059498 0.1426528 9.9999998e-05
v 0.1055498 0.14292183 9.9999998e-05
v 0.10526657 0.1432487 9.9999998e-05
v 0.10509796 0.14362578 9.9999998e-05
v 0.10504175 0.14404543 9.9999998e-05
v 0.10511051 0.14451419 9.9999998e-05
v 0.10531678 0.1449513 9.9999998e-05
v 0.10565512 0.14532183 9.9999998e-05
v 0.10612005 0.14559086 9.9999998e-05
v 0.10667776 0.14575457 9.9999998e-05
v 0.10729441 0.14580914 9.9999998e-05
v 0.10796398 0.14575184 9.9999998e-05
v 0.10854952 0.14557995 9.9999998e-05
v 0.10903028 0.14529673 9.9999998e-05
v 0.10938555 0.14490546 9.9999998e-05
v 0.10961038 0.14443069 9.9999998e-05
v 0.10969986 0.143897 9.9999998e-05
v 0.10888786 0.14383588 9.9999998e-05
v 0.10874434 0.14436849 9.9999998e-05
v 0.10844475 0.14475266 9.9999998e-05
v 0.10797709 0.14498513 9.9999998e-05
v 0.10732933 0.14506262 9.9999998e-05
v 0.10666521 0.14499223 9.9999998e-05
v 0.10620955 0.14478104 9.9999998e-05
v 0.10594598 0.14447053 9.9999998e-05
v 0.10585812 0.14410218 9.9999998e-05
v 0.10592033 0.14378786 9.9999998e-05
v 0.10610697 0.14353465 9.9999998e-05
v 0.10654843 0.14330928 9.9999998e-05
v 0.1073839 0.14307844 9.9999998e-05
v 0.1082543 0.14285962 9.9999998e-05
v 0.10880054 0.14267026 9.9999998e-05
v 0.10928622 0.14237831 9.9999998e-05
v 0.10962564 0.1420176 9.9999998e-05
v 0.10982537 0.14159249 9.9999998e-05
v 0.10989195 0.14110737 9.9999998e-05
v 0.10981883 0.14061132 9.9999998e-05
v 0.10959946 0.14014475 9.9999998e-05
v 0.10924312 0.13974311 9.9999998e-05
v 0.10875908 0.13944188 9.9999998e-05
v 0.10817681 0.13925362 9.9999998e-05
v 0.10752579 0.13919086 9.9999998e-05
v 0.10672743 0.13925416 9.9999998e-05
v 0.10606985 0.13944407 9.9999998e-05
v 0.10554598 0.13976111 9.9999998e-05
v 0.10875908 0.13944188 9.9999998e-05
v 0.10924312 0.13974311 9.9999998e-05
v 0.10959946 0.14014475 9.9999998e-05
v 0.10959946 0.14014475 0.000125
v 0.10924312 0.13974311 0.000125
v 0.10875908 0.13944188 0.000125
v 0.10890095 0.14156358 9.9999998e-05
v 0.10907558 0.14103752 9.9999998e-05
v 0.10907558 0.14103752 0.000125
v 0.10890095 0.14156358 0.000125
v 0.10959946 0.14014475 9.9999998e-05
v 0.10981883 0.14061132 9.9999998e-05
v 0.10989195 0.14110737 9.9999998e-05
v 0.10989195 0.14110737 0.000125
v 0.10981883 0.14061132 0.000125
v 0.10959946 0.14014475 0.000125
v 0.10612005 0.14559086 9.9999998e-05
v 0.10565512 0.14532183 9.9999998e-05
v 0.10531678 0.1449513 9.9999998e-05
v 0.10531678 0.1449513 0.000125
v 0.10565512 0.14532183 0.000125
v 0.10612005 0.14559086 0.000125
v 0.10504175 0.14404543 9.9999998e-05
v 0.10509796 0.14362578 9.9999998e-05
v 0.10526657 0.1432487 9.9999998e-05
v 0.10526657 0.1432487 0.000125
v 0.10509796 0.14362578 0.000125
v 0.10504175 0.14404543 0.000125
v 0.1073839 0.14307844 9.9999998e-05
v 0.10654843 0.14330928 9.9999998e-05
v 0.10610697 0.14353465 9.9999998e-05
v 0.10610697 0.14353465 0.000125
v 0.10654843 0.14330928 0.000125
v 0.1073839 0.14307844 0.000125
v 0.10620955 0.14478104 9.9999998e-05
v 0.10666521 0.14499223 9.9999998e-05
v 0.10732933 0.14506262 9.9999998e-05
v 0.10732933 0.14506262 0.000125
v 0.10666521 0.14499223 0.000125
v 0.10620955 0.14478104 0.000125
v 0.10610697 0.14353465 9.9999998e-05
v 0.10592033 0.14378786 9.9999998e-05
v 0.10585812 0.14410218 9.9999998e-05
v 0.10585812 0.14410218 0.000125
v 0.10592033 0.14378786 0.000125
v 0.10610697 0.14353465 0.000125
f 1 2 6
f 6 2 5
f 5 2 3
f 5 3 4
f 7 8 71
f 71 8 70
f 70 8 9
f 70 9 69
f 69 9 10
f 69 10 68
f 68 10 11
f 68 11 67
f 67 11 12
f 67 12 66
f 66 12 13
f 66 13 65
f 65 13 14
f 65 14 64
f 64 14 15
f 64 15 63
f 63 15 16
f 63 16 62
f 62 16 17
f 62 17 61
f 61 17 18
f 61 18 19
f 19 20 61
f 61 20 21
f 61 21 60
f 60 21 22
f 60 22 59
f 59 22 23
f 59 23 58
f 58 23 24
f 58 24 57
f 57 24 25
f 57 25 56
f 56 25 26
f 56 26 55
f 55 26 54
f 54 26 27
f 54 27 53
f 53 27 28
f 53 28 52
f 52 28 51
f 51 28 29
f 51 29 50
f 50 29 49
f 49 29 30
f 49 30 48
f 48 30 47
f 47 30 31
f 47 31 46
f 46 31 32
f 46 32 45
f 45 32 33
f 45 33 44
f 44 33 43
f 43 33 34
f 43 34 42
f 42 34 35
f 42 35 41
f 41 35 36
f 41 36 40
f 40 36 39
f 39 36 37
f 39 37 38
f 72 73 77
f 77 73 76
f 76 73 74
f 76 74 75
f 78 79 81
f 81 79 80
f 82 83 87
f 87 83 86
f 86 83 84
f 86 84 85
f 88 89 93
f 93 89 92
f 92 89 90
f 92 90 91
f 94 95 99
f 99 95 98
f 98 95 96
f 98 96 97
f 100 101 105
f 105 101 104
f 104 101 102
f 104 102 103
f 106 107 111
f 111 107 110
f 110 107 108
f 110 108 109
f 112 113 115
f 115 113 114
f 116 117 121
f 121 117 120
f 120 117 118
f 120 118 119
f 122 123 125
f 125 123 124
f 126 127 129
f 129 127 128
f 130 131 135
f 135 131 134
f 134 131 132
f 134 132 133
f 136 137 141
f 141 137 140
f 140 137 138
f 140 138 139
f 142 143 147
f 147 143 146
f 146 143 144
f 146 144 145
f 148 149 153
f 153 149 152
f 152 149 150
f 152 150 151
f 154 155 159
f 159 155 158
f 158 155 156
f 158 156 157
f 160 161 165
f 165 161 164
f 164 161 162
f 164 162 163
f 166 167 171
f 171 167 170
f 170 167 168
f 170 168 169
f 172 173 177
f 177 173 176
f 176 173 174
f 176 174 175
f 178 179 183
f 183 179 182
f 182 179 180
f 182 180 181
f 184 185 189
f 189 185 188
f 188 185 186
f 188 186 187
f 190 191 195
f 195 191 194
f 194 191 192
f 194 192 193
f 196 197 201
f 201 197 200
f 200 197 198
f 200 198 199
f 202 203 207
f 207 203 206
f 206 203 204
f 206 204 205
f 208 209 213
f 213 209 212
f 212 209 210
f 212 210 211
f 214 215 219
f 219 215 218
f 218 215 216
f 218 216 217
f 221 224 220
f 220 224 225
f 220 225 284
f 284 225 226
f 284 226 283
f 283 226 227
f 283 227 282
f 282 227 228
f 282 228 281
f 281 228 229
f 281 229 280
f 280 229 230
f 280 230 279
f 279 230 231
f 279 231 278
f 278 231 232
f 278 232 277
f 277 232 233
f 277 233 276
f 276 233 275
f 275 233 274
f 274 233 273
f 273 233 234
f 273 234 272
f 272 234 235
f 272 235 271
f 271 235 236
f 271 236 270
f 270 236 237
f 270 237 269
f 269 237 238
f 269 238 268
f 268 238 239
f 268 239 240
f 222 223 221
f 221 223 224
f 268 240 267
f 267 240 241
f 267 241 266
f 266 241 242
f 266 242 243
f 266 243 265
f 265 243 244
f 265 244 245
f 265 245 264
f 264 245 246
f 264 246 247
f 264 247 263
f 263 247 248
f 263 248 262
f 262 248 249
f 262 249 261
f 261 249 250
f 261 250 251
f 261 251 260
f 260 251 252
f 260 252 259
f 259 252 253
f 259 253 258
f 258 253 254
f 258 254 255
f 256 257 255
f 255 257 258
f 285 286 290
f 290 286 289
f 289 286 287
f 289 287 288
f 291 292 294
f 294 292 293
f 295 296 300
f 300 296 299
f 299 296 297
f 299 297 298
f 301 302 306
f 306 302 305
f 305 302 303
f 305 303 304
f 307 308 312
f 312 308 311
f 311 308 309
f 311 309 310
f 313 314 318
f 318 314 317
f 317 314 315
f 317 315 316
f 319 320 324
f 324 320 323
f 323 320 321
f 323 321 322
f 325 326 330
f 330 326 329
f 329 326 327
f 329 327 328
