v 0.124 0.029292901 0.45723946
v 0.12468318 0.029074557 0.45720715
v 0.12520985 0.028610046 0.45735649
v 0.12545936 0.028005781 0.45765324
v 0.12537454 0.027400191 0.4580294
v 0.12497484 0.026932008 0.45839886
v 0.12435181 0.026708493 0.45867695
v 0.12364819 0.026780844 0.45879993
v 0.12302516 0.02713249 0.45873966
v 0.12262546 0.027682872 0.45850998
v 0.12254065 0.028305905 0.45816345
v 0.12279016 0.028858857 0.45777946
v 0.12331682 0.029215057 0.45744602
v 0.132 0.049292903 0.49123947
v 0.13131682 0.049215055 0.491446
v 0.13079016 0.048858857 0.49177944
v 0.13054065 0.048305902 0.49216343
v 0.13062546 0.047682872 0.49250996
v 0.13102516 0.047132492 0.49273968
v 0.13164819 0.046780844 0.49279991
v 0.13235181 0.046708493 0.49267693
v 0.13297483 0.046932011 0.49239887
v 0.13337454 0.047400188 0.49202942
v 0.13345935 0.048005781 0.49165321
v 0.13320985 0.048610048 0.49135647
v 0.13268317 0.049074559 0.49120716
v 0.132 0.049292903 0.49123947
v 0.13268317 0.049074559 0.49120716
v 0.13320985 0.048610048 0.49135647
v 0.13345935 0.048005781 0.49165321
v 0.13337454 0.047400188 0.49202942
v 0.13297483 0.046932011 0.49239887
v 0.13235181 0.046708493 0.49267693
v 0.13164819 0.046780844 0.49279991
v 0.13102516 0.047132492 0.49273968
v 0.13062546 0.047682872 0.49250996
v 0.13054065 0.048305902 0.49216343
v 0.13079016 0.048858857 0.49177944
v 0.13131682 0.049215055 0.491446
v 0.124 0.029292901 0.45723946
v 0.12331682 0.029215057 0.45744602
v 0.12279016 0.028858857 0.45777946
v 0.12254065 0.028305905 0.45816345
v 0.12262546 0.027682872 0.45850998
v 0.12302516 0.02713249 0.45873966
v 0.12364819 0.026780844 0.45879993
v 0.12435181 0.026708493 0.45867695
v 0.12497484 0.026932008 0.45839886
v 0.12537454 0.027400191 0.4580294
v 0.12545936 0.028005781 0.45765324
v 0.12520985 0.028610046 0.45735649
v 0.12468318 0.029074557 0.45720715
v 0.124 0.029292901 0.45723946
v 0.132 0.049292903 0.49123947
f 1 2 13
f 13 2 12
f 12 2 3
f 12 3 11
f 11 3 4
f 11 4 10
f 10 4 5
f 10 5 9
f 9 5 6
f 9 6 8
f 8 6 7
f 14 15 26
f 26 15 16
f 26 16 25
f 25 16 17
f 25 17 24
f 24 17 18
f 24 18 23
f 23 18 19
f 23 19 22
f 22 19 20
f 22 20 21
f 28 52 27
f 27 52 53
f 54 40 39
f 39 40 41
f 39 41 38
f 38 41 42
f 38 42 37
f 37 42 43
f 37 43 36
f 36 43 44
f 36 44 35
f 35 44 45
f 35 45 34
f 34 45 46
f 34 46 33
f 33 46 47
f 33 47 32
f 32 47 48
f 32 48 31
f 31 48 49
f 31 49 30
f 30 49 50
f 30 50 29
f 29 50 51
f 29 51 28
f 28 51 52
