v 0.80885002 0.23 0.36488728
v 0.80885002 0.09 0.27160824
v 0.98885002 0.09 0.27160824
v 0.98885002 0.23 0.36488728
v 0.80885002 0.23155254 0.36255711
v 0.80885002 0.23 0.36488728
v 0.98885002 0.23 0.36488728
v 0.98885002 0.23155254 0.36255711
v 0.80885002 0.091552534 0.26927809
v 0.80885002 0.23155254 0.36255711
v 0.98885002 0.23155254 0.36255711
v 0.98885002 0.091552534 0.26927809
v 0.80885002 0.09 0.27160824
v 0.80885002 0.091552534 0.26927809
v 0.98885002 0.091552534 0.26927809
v 0.98885002 0.09 0.27160824
v 0.98885002 0.09 0.27160824
v 0.98885002 0.091552534 0.26927809
v 0.98885002 0.23155254 0.36255711
v 0.98885002 0.23 0.36488728
v 0.80885002 0.091552534 0.26927809
v 0.80885002 0.09 0.27160824
v 0.80885002 0.23 0.36488728
v 0.80885002 0.23155254 0.36255711
f 1 2 4
f 4 2 3
f 5 6 8
f 8 6 7
f 9 10 12
f 12 10 11
f 13 14 16
f 16 14 15
f 18 19 17
f 17 19 20
f 21 22 24
f 24 22 23
