v 0.058503413 -0.2966 0.10883629
v 0.05861187 -0.2966 0.10933663
v 0.058648024 -0.2966 0.10997272
v 0.058648024 -0.29672001 0.10997272
v 0.05861187 -0.29672001 0.10933663
v 0.058503413 -0.29672001 0.10883629
v 0.058070941 -0.2966 0.1081678
v 0.058322988 -0.2966 0.10845293
v 0.058503413 -0.2966 0.10883629
v 0.058503413 -0.29672001 0.10883629
v 0.058322988 -0.29672001 0.10845293
v 0.058070941 -0.29672001 0.1081678
v 0.058648024 -0.2966 0.10997272
v 0.058625512 -0.2966 0.11050648
v 0.058557982 -0.2966 0.11091814
v 0.058557982 -0.29672001 0.11091814
v 0.058625512 -0.29672001 0.11050648
v 0.058648024 -0.29672001 0.10997272
v 0.057343793 -0.2966 0.10793179
v 0.057745223 -0.2966 0.10799079
v 0.058070941 -0.2966 0.1081678
v 0.058070941 -0.29672001 0.1081678
v 0.057745223 -0.29672001 0.10799079
v 0.057343793 -0.29672001 0.10793179
v 0.058557982 -0.2966 0.11091814
v 0.058309689 -0.2966 0.11151296
v 0.058309689 -0.29672001 0.11151296
v 0.058557982 -0.29672001 0.11091814
v 0.056435199 -0.2966 0.10834652
v 0.056827421 -0.2966 0.10803547
v 0.057343793 -0.2966 0.10793179
v 0.057343793 -0.29672001 0.10793179
v 0.056827421 -0.29672001 0.10803547
v 0.056435199 -0.29672001 0.10834652
v 0.058309689 -0.2966 0.11151296
v 0.057908597 -0.2966 0.11188677
v 0.057908597 -0.29672001 0.11188677
v 0.058309689 -0.29672001 0.11151296
v 0.056039562 -0.2966 0.10997272
v 0.056138473 -0.2966 0.10900273
v 0.056435199 -0.2966 0.10834652
v 0.056435199 -0.29672001 0.10834652
v 0.056138473 -0.29672001 0.10900273
v 0.056039562 -0.29672001 0.10997272
v 0.057908597 -0.2966 0.11188677
v 0.057343793 -0.2966 0.11201637
v 0.057343793 -0.29672001 0.11201637
v 0.057908597 -0.29672001 0.11188677
v 0.057343793 -0.2966 0.11201637
v 0.056944408 -0.2966 0.11195771
v 0.056619372 -0.2966 0.11178172
v 0.056619372 -0.29672001 0.11178172
v 0.056944408 -0.29672001 0.11195771
v 0.057343793 -0.29672001 0.11201637
v 0.056619372 -0.2966 0.11178172
v 0.056366987 -0.2966 0.11149761
v 0.056185541 -0.2966 0.1111146
v 0.056185541 -0.29672001 0.1111146
v 0.056366987 -0.29672001 0.11149761
v 0.056619372 -0.29672001 0.11178172
v 0.056185541 -0.2966 0.1111146
v 0.056076059 -0.2966 0.11061289
v 0.056039562 -0.2966 0.10997272
v 0.056039562 -0.29672001 0.10997272
v 0.056076059 -0.29672001 0.11061289
v 0.056185541 -0.29672001 0.1111146
v 0.056039562 -0.29672001 0.10997272
v 0.056138473 -0.29672001 0.10900273
v 0.056435199 -0.29672001 0.10834652
v 0.056827421 -0.29672001 0.10803547
v 0.057343793 -0.29672001 0.10793179
v 0.057745223 -0.29672001 0.10799079
v 0.058070941 -0.29672001 0.1081678
v 0.058322988 -0.29672001 0.10845293
v 0.058503413 -0.29672001 0.10883629
v 0.05861187 -0.29672001 0.10933663
v 0.058648024 -0.29672001 0.10997272
v 0.058625512 -0.29672001 0.11050648
v 0.058557982 -0.29672001 0.11091814
v 0.058309689 -0.29672001 0.11151296
v 0.057908597 -0.29672001 0.11188677
v 0.057343793 -0.29672001 0.11201637
v 0.056944408 -0.29672001 0.11195771
v 0.056619372 -0.29672001 0.11178172
v 0.056366987 -0.29672001 0.11149761
v 0.056185541 -0.29672001 0.1111146
v 0.056076059 -0.29672001 0.11061289
v 0.056544337 -0.29672001 0.10997272
v 0.056607776 -0.29672001 0.11080287
v 0.056798091 -0.29672001 0.11132333
v 0.057034106 -0.29672001 0.1115382
v 0.057338338 -0.29672001 0.11160982
v 0.057653818 -0.29672001 0.11152865
v 0.057912688 -0.29672001 0.11128513
v 0.058085608 -0.29672001 0.11079468
v 0.058143249 -0.29672001 0.10997272
v 0.058085608 -0.29672001 0.10915416
v 0.057912688 -0.29672001 0.10866302
v 0.057655187 -0.29672001 0.10841746
v 0.057343793 -0.29672001 0.10833561
v 0.057032399 -0.29672001 0.10841712
v 0.056774898 -0.29672001 0.10866166
v 0.056601977 -0.29672001 0.10915246
v 0.056544337 -0.2966 0.10997272
v 0.056607776 -0.2966 0.11080287
v 0.056798091 -0.2966 0.11132333
v 0.056798091 -0.29672001 0.11132333
v 0.056607776 -0.29672001 0.11080287
v 0.056544337 -0.29672001 0.10997272
v 0.056798091 -0.2966 0.11132333
v 0.057034106 -0.2966 0.1115382
v 0.057338338 -0.2966 0.11160982
v 0.057338338 -0.29672001 0.11160982
v 0.057034106 -0.29672001 0.1115382
v 0.056798091 -0.29672001 0.11132333
v 0.056435199 -0.2966 0.10834652
v 0.056138473 -0.2966 0.10900273
v 0.056039562 -0.2966 0.10997272
v 0.056076059 -0.2966 0.11061289
v 0.056185541 -0.2966 0.1111146
v 0.056366987 -0.2966 0.11149761
v 0.056619372 -0.2966 0.11178172
v 0.056944408 -0.2966 0.11195771
v 0.057343793 -0.2966 0.11201637
v 0.057908597 -0.2966 0.11188677
v 0.058309689 -0.2966 0.11151296
v 0.058557982 -0.2966 0.11091814
v 0.058625512 -0.2966 0.11050648
v 0.058648024 -0.2966 0.10997272
v 0.05861187 -0.2966 0.10933663
v 0.058503413 -0.2966 0.10883629
v 0.058322988 -0.2966 0.10845293
v 0.058070941 -0.2966 0.1081678
v 0.057745223 -0.2966 0.10799079
v 0.057343793 -0.2966 0.10793179
v 0.056827421 -0.2966 0.10803547
v 0.056798091 -0.2966 0.11132333
v 0.056607776 -0.2966 0.11080287
v 0.056544337 -0.2966 0.10997272
v 0.056601977 -0.2966 0.10915246
v 0.056774898 -0.2966 0.10866166
v 0.057032399 -0.2966 0.10841712
v 0.057343793 -0.2966 0.10833561
v 0.057655187 -0.2966 0.10841746
v 0.057912688 -0.2966 0.10866302
v 0.058085608 -0.2966 0.10915416
v 0.058143249 -0.2966 0.10997272
v 0.058085608 -0.2966 0.11079468
v 0.057912688 -0.2966 0.11128513
v 0.057653818 -0.2966 0.11152865
v 0.057338338 -0.2966 0.11160982
v 0.057034106 -0.2966 0.1115382
v 0.057338338 -0.2966 0.11160982
v 0.057653818 -0.2966 0.11152865
v 0.057912688 -0.2966 0.11128513
v 0.057912688 -0.29672001 0.11128513
v 0.057653818 -0.29672001 0.11152865
v 0.057338338 -0.29672001 0.11160982
v 0.057912688 -0.2966 0.11128513
v 0.058085608 -0.2966 0.11079468
v 0.058143249 -0.2966 0.10997272
v 0.058143249 -0.29672001 0.10997272
v 0.058085608 -0.29672001 0.11079468
v 0.057912688 -0.29672001 0.11128513
v 0.058143249 -0.2966 0.10997272
v 0.058085608 -0.2966 0.10915416
v 0.057912688 -0.2966 0.10866302
v 0.057912688 -0.29672001 0.10866302
v 0.058085608 -0.29672001 0.10915416
v 0.058143249 -0.29672001 0.10997272
v 0.057912688 -0.2966 0.10866302
v 0.057655187 -0.2966 0.10841746
v 0.057343793 -0.2966 0.10833561
v 0.057343793 -0.29672001 0.10833561
v 0.057655187 -0.29672001 0.10841746
v 0.057912688 -0.29672001 0.10866302
v 0.057343793 -0.2966 0.10833561
v 0.057032399 -0.2966 0.10841712
v 0.056774898 -0.2966 0.10866166
v 0.056774898 -0.29672001 0.10866166
v 0.057032399 -0.29672001 0.10841712
v 0.057343793 -0.29672001 0.10833561
v 0.056774898 -0.2966 0.10866166
v 0.056601977 -0.2966 0.10915246
v 0.056544337 -0.2966 0.10997272
v 0.056544337 -0.29672001 0.10997272
v 0.056601977 -0.29672001 0.10915246
v 0.056774898 -0.29672001 0.10866166
f 1 2 6
f 6 2 5
f 5 2 3
f 5 3 4
f 7 8 12
f 12 8 11
f 11 8 9
f 11 9 10
f 13 14 18
f 18 14 17
f 17 14 15
f 17 15 16
f 19 20 24
f 24 20 23
f 23 20 21
f 23 21 22
f 25 26 28
f 28 26 27
f 29 30 34
f 34 30 33
f 33 30 31
f 33 31 32
f 35 36 38
f 38 36 37
f 39 40 44
f 44 40 43
f 43 40 41
f 43 41 42
f 45 46 48
f 48 46 47
f 49 50 54
f 54 50 53
f 53 50 51
f 53 51 52
f 55 56 60
f 60 56 59
f 59 56 57
f 59 57 58
f 61 62 66
f 66 62 65
f 65 62 63
f 65 63 64
f 87 67 88
f 88 67 68
f 88 68 103
f 103 68 69
f 103 69 102
f 102 69 70
f 102 70 101
f 101 70 71
f 101 71 100
f 100 71 72
f 100 72 99
f 99 72 73
f 99 73 98
f 98 73 74
f 98 74 97
f 97 74 75
f 97 75 76
f 97 76 96
f 96 76 77
f 96 77 78
f 96 78 95
f 95 78 79
f 95 79 80
f 95 80 94
f 94 80 81
f 94 81 93
f 93 81 82
f 93 82 92
f 92 82 83
f 92 83 91
f 91 83 84
f 91 84 90
f 90 84 85
f 90 85 89
f 89 85 86
f 89 86 87
f 89 87 88
f 104 105 109
f 109 105 108
f 108 105 106
f 108 106 107
f 110 111 115
f 115 111 114
f 114 111 112
f 114 112 113
f 117 140 116
f 116 140 141
f 116 141 136
f 136 141 142
f 136 142 135
f 135 142 143
f 135 143 134
f 134 143 144
f 134 144 133
f 133 144 145
f 133 145 132
f 132 145 146
f 132 146 131
f 131 146 130
f 130 146 147
f 130 147 129
f 129 147 128
f 128 147 148
f 128 148 127
f 127 148 126
f 126 148 149
f 126 149 125
f 125 149 150
f 125 150 124
f 124 150 151
f 124 151 123
f 123 151 152
f 123 152 122
f 122 152 137
f 122 137 121
f 121 137 138
f 121 138 120
f 120 138 119
f 119 138 139
f 119 139 118
f 118 139 117
f 117 139 140
f 153 154 158
f 158 154 157
f 157 154 155
f 157 155 156
f 159 160 164
f 164 160 163
f 163 160 161
f 163 161 162
f 165 166 170
f 170 166 169
f 169 166 167
f 169 167 168
f 171 172 176
f 176 172 175
f 175 172 173
f 175 173 174
f 177 178 182
f 182 178 181
f 181 178 179
f 181 179 180
f 183 184 188
f 188 184 187
f 187 184 185
f 187 185 186
