v 0.14718287 0.12414489 9.9999998e-05
v 0.1478646 0.1242288 9.9999998e-05
v 0.14829747 0.12448056 9.9999998e-05
v 0.14829747 0.12448056 0.000125
v 0.1478646 0.1242288 0.000125
v 0.14718287 0.12414489 0.000125
v 0.14829747 0.12448056 9.9999998e-05
v 0.14852882 0.1248535 9.9999998e-05
v 0.14860594 0.12530095 9.9999998e-05
v 0.14860594 0.12530095 0.000125
v 0.14852882 0.1248535 0.000125
v 0.14829747 0.12448056 0.000125
v 0.14620826 0.12414489 9.9999998e-05
v 0.14718287 0.12414489 9.9999998e-05
v 0.14718287 0.12414489 0.000125
v 0.14620826 0.12414489 0.000125
v 0.14860594 0.12530095 9.9999998e-05
v 0.14849059 0.12581937 9.9999998e-05
v 0.14849059 0.12581937 0.000125
v 0.14860594 0.12530095 0.000125
v 0.14620826 0.1226 9.9999998e-05
v 0.14620826 0.12414489 9.9999998e-05
v 0.14620826 0.12414489 0.000125
v 0.14620826 0.1226 0.000125
v 0.14849059 0.12581937 9.9999998e-05
v 0.14818602 0.12618615 9.9999998e-05
v 0.14818602 0.12618615 0.000125
v 0.14849059 0.12581937 0.000125
v 0.14570539 0.1226 9.9999998e-05
v 0.14620826 0.1226 9.9999998e-05
v 0.14620826 0.1226 0.000125
v 0.14570539 0.1226 0.000125
v 0.14818602 0.12618615 9.9999998e-05
v 0.14771685 0.12636371 9.9999998e-05
v 0.14771685 0.12636371 0.000125
v 0.14818602 0.12618615 0.000125
v 0.14771685 0.12636371 9.9999998e-05
v 0.14713881 0.1264 9.9999998e-05
v 0.14713881 0.1264 0.000125
v 0.14771685 0.12636371 0.000125
v 0.14713881 0.1264 9.9999998e-05
v 0.14570539 0.1264 9.9999998e-05
v 0.14570539 0.1264 0.000125
v 0.14713881 0.1264 0.000125
v 0.14570539 0.1264 9.9999998e-05
v 0.14570539 0.1226 9.9999998e-05
v 0.14570539 0.1226 0.000125
v 0.14570539 0.1264 0.000125
v 0.14570539 0.1226 0.000125
v 0.14620826 0.1226 0.000125
v 0.14620826 0.12414489 0.000125
v 0.14718287 0.12414489 0.000125
v 0.1478646 0.1242288 0.000125
v 0.14829747 0.12448056 0.000125
v 0.14852882 0.1248535 0.000125
v 0.14860594 0.12530095 0.000125
v 0.14849059 0.12581937 0.000125
v 0.14818602 0.12618615 0.000125
v 0.14771685 0.12636371 0.000125
v 0.14713881 0.1264 0.000125
v 0.14570539 0.1264 0.000125
v 0.14620826 0.12459332 0.000125
v 0.14620826 0.12595157 0.000125
v 0.14718029 0.12595157 0.000125
v 0.14746865 0.12594315 0.000125
v 0.14764945 0.12591787 0.000125
v 0.14796699 0.12569366 0.000125
v 0.14808752 0.12528541 0.000125
v 0.14803633 0.12499314 0.000125
v 0.14788274 0.12477476 0.000125
v 0.14760734 0.12463868 0.000125
v 0.14719066 0.12459332 0.000125
v 0.14620826 0.12459332 9.9999998e-05
v 0.14620826 0.12595157 9.9999998e-05
v 0.14620826 0.12595157 0.000125
v 0.14620826 0.12459332 0.000125
v 0.14620826 0.12595157 9.9999998e-05
v 0.14718029 0.12595157 9.9999998e-05
v 0.14718029 0.12595157 0.000125
v 0.14620826 0.12595157 0.000125
v 0.14620826 0.1226 9.9999998e-05
v 0.14570539 0.1226 9.9999998e-05
v 0.14570539 0.1264 9.9999998e-05
v 0.14713881 0.1264 9.9999998e-05
v 0.14771685 0.12636371 9.9999998e-05
v 0.14818602 0.12618615 9.9999998e-05
v 0.14849059 0.12581937 9.9999998e-05
v 0.14860594 0.12530095 9.9999998e-05
v 0.14852882 0.1248535 9.9999998e-05
v 0.14829747 0.12448056 9.9999998e-05
v 0.1478646 0.1242288 9.9999998e-05
v 0.14718287 0.12414489 9.9999998e-05
v 0.14620826 0.12414489 9.9999998e-05
v 0.14620826 0.12595157 9.9999998e-05
v 0.14620826 0.12459332 9.9999998e-05
v 0.14719066 0.12459332 9.9999998e-05
v 0.14760734 0.12463868 9.9999998e-05
v 0.14788274 0.12477476 9.9999998e-05
v 0.14803633 0.12499314 9.9999998e-05
v 0.14808752 0.12528541 9.9999998e-05
v 0.14796699 0.12569366 9.9999998e-05
v 0.14764945 0.12591787 9.9999998e-05
v 0.14746865 0.12594315 9.9999998e-05
v 0.14718029 0.12595157 9.9999998e-05
v 0.14718029 0.12595157 9.9999998e-05
v 0.14746865 0.12594315 9.9999998e-05
v 0.14764945 0.12591787 9.9999998e-05
v 0.14764945 0.12591787 0.000125
v 0.14746865 0.12594315 0.000125
v 0.14718029 0.12595157 0.000125
v 0.14764945 0.12591787 9.9999998e-05
v 0.14796699 0.12569366 9.9999998e-05
v 0.14796699 0.12569366 0.000125
v 0.14764945 0.12591787 0.000125
v 0.14796699 0.12569366 9.9999998e-05
v 0.14808752 0.12528541 9.9999998e-05
v 0.14808752 0.12528541 0.000125
v 0.14796699 0.12569366 0.000125
v 0.14808752 0.12528541 9.9999998e-05
v 0.14803633 0.12499314 9.9999998e-05
v 0.14788274 0.12477476 9.9999998e-05
v 0.14788274 0.12477476 0.000125
v 0.14803633 0.12499314 0.000125
v 0.14808752 0.12528541 0.000125
v 0.14788274 0.12477476 9.9999998e-05
v 0.14760734 0.12463868 9.9999998e-05
v 0.14719066 0.12459332 9.9999998e-05
v 0.14719066 0.12459332 0.000125
v 0.14760734 0.12463868 0.000125
v 0.14788274 0.12477476 0.000125
v 0.14719066 0.12459332 9.9999998e-05
v 0.14620826 0.12459332 9.9999998e-05
v 0.14620826 0.12459332 0.000125
v 0.14719066 0.12459332 0.000125
f 1 2 6
f 6 2 5
f 5 2 3
f 5 3 4
f 7 8 12
f 12 8 11
f 11 8 9
f 11 9 10
f 13 14 16
f 16 14 15
f 17 18 20
f 20 18 19
f 21 22 24
f 24 22 23
f 25 26 28
f 28 26 27
f 29 30 32
f 32 30 31
f 33 34 36
f 36 34 35
f 37 38 40
f 40 38 39
f 41 42 44
f 44 42 43
f 45 46 48
f 48 46 47
f 50 51 49
f 49 51 62
f 49 62 61
f 61 62 63
f 61 63 60
f 60 63 64
f 60 64 65
f 51 52 62
f 62 52 72
f 72 52 71
f 71 52 53
f 71 53 70
f 70 53 54
f 70 54 69
f 69 54 55
f 69 55 68
f 68 55 56
f 68 56 57
f 68 57 67
f 67 57 58
f 67 58 66
f 66 58 59
f 66 59 65
f 65 59 60
f 73 74 76
f 76 74 75
f 77 78 80
f 80 78 79
f 81 82 93
f 93 82 95
f 93 95 92
f 92 95 96
f 92 96 97
f 82 83 95
f 95 83 94
f 94 83 84
f 94 84 104
f 104 84 103
f 103 84 85
f 103 85 102
f 102 85 86
f 102 86 101
f 101 86 87
f 101 87 100
f 100 87 88
f 100 88 89
f 100 89 99
f 99 89 90
f 99 90 98
f 98 90 91
f 98 91 97
f 97 91 92
f 105 106 110
f 110 106 109
f 109 106 107
f 109 107 108
f 111 112 114
f 114 112 113
f 115 116 118
f 118 116 117
f 119 120 124
f 124 120 123
f 123 120 121
f 123 121 122
f 125 126 130
f 130 126 129
f 129 126 127
f 129 127 128
f 131 132 134
f 134 132 133
