v 0.064612617 0.079492769 9.9999998e-05
v 0.064122252 0.078852301 9.9999998e-05
v 0.063660436 0.078080149 9.9999998e-05
v 0.063660436 0.078080149 0.000125
v 0.064122252 0.078852301 0.000125
v 0.064612617 0.079492769 0.000125
v 0.063660436 0.078080149 9.9999998e-05
v 0.063264923 0.077226038 9.9999998e-05
v 0.062973466 0.076339698 9.9999998e-05
v 0.062973466 0.076339698 0.000125
v 0.063264923 0.077226038 0.000125
v 0.063660436 0.078080149 0.000125
v 0.061967874 0.079492769 0.000125
v 0.064612617 0.079492769 0.000125
v 0.064122252 0.078852301 0.000125
v 0.063660436 0.078080149 0.000125
v 0.063264923 0.077226038 0.000125
v 0.062973466 0.076339698 0.000125
v 0.062791133 0.075503545 0.000125
v 0.062722988 0.0748 0.000125
v 0.063404436 0.0748 0.000125
v 0.063658595 0.076284447 0.000125
v 0.06399241 0.077232947 0.000125
v 0.064441338 0.078155661 0.000125
v 0.064950118 0.078975239 0.000125
v 0.065463505 0.079614325 0.000125
v 0.065463505 0.080130014 0.000125
v 0.061967874 0.080130014 0.000125
v 0.062973466 0.076339698 9.9999998e-05
v 0.062791133 0.075503545 9.9999998e-05
v 0.062722988 0.0748 9.9999998e-05
v 0.062722988 0.0748 0.000125
v 0.062791133 0.075503545 0.000125
v 0.062973466 0.076339698 0.000125
v 0.061967874 0.079492769 9.9999998e-05
v 0.064612617 0.079492769 9.9999998e-05
v 0.064612617 0.079492769 0.000125
v 0.061967874 0.079492769 0.000125
v 0.062722988 0.0748 9.9999998e-05
v 0.063404436 0.0748 9.9999998e-05
v 0.063404436 0.0748 0.000125
v 0.062722988 0.0748 0.000125
v 0.064612617 0.079492769 9.9999998e-05
v 0.061967874 0.079492769 9.9999998e-05
v 0.061967874 0.080130014 9.9999998e-05
v 0.065463505 0.080130014 9.9999998e-05
v 0.065463505 0.079614325 9.9999998e-05
v 0.064950118 0.078975239 9.9999998e-05
v 0.064441338 0.078155661 9.9999998e-05
v 0.06399241 0.077232947 9.9999998e-05
v 0.063658595 0.076284447 9.9999998e-05
v 0.063404436 0.0748 9.9999998e-05
v 0.062722988 0.0748 9.9999998e-05
v 0.062791133 0.075503545 9.9999998e-05
v 0.062973466 0.076339698 9.9999998e-05
v 0.063264923 0.077226038 9.9999998e-05
v 0.063660436 0.078080149 9.9999998e-05
v 0.064122252 0.078852301 9.9999998e-05
v 0.063404436 0.0748 9.9999998e-05
v 0.063658595 0.076284447 9.9999998e-05
v 0.063658595 0.076284447 0.000125
v 0.063404436 0.0748 0.000125
v 0.063658595 0.076284447 9.9999998e-05
v 0.06399241 0.077232947 9.9999998e-05
v 0.064441338 0.078155661 9.9999998e-05
v 0.064441338 0.078155661 0.000125
v 0.06399241 0.077232947 0.000125
v 0.063658595 0.076284447 0.000125
v 0.064441338 0.078155661 9.9999998e-05
v 0.064950118 0.078975239 9.9999998e-05
v 0.065463505 0.079614325 9.9999998e-05
v 0.065463505 0.079614325 0.000125
v 0.064950118 0.078975239 0.000125
v 0.064441338 0.078155661 0.000125
v 0.065463505 0.079614325 9.9999998e-05
v 0.065463505 0.080130014 9.9999998e-05
v 0.065463505 0.080130014 0.000125
v 0.065463505 0.079614325 0.000125
v 0.065463505 0.080130014 9.9999998e-05
v 0.061967874 0.080130014 9.9999998e-05
v 0.061967874 0.080130014 0.000125
v 0.065463505 0.080130014 0.000125
v 0.061967874 0.080130014 9.9999998e-05
v 0.061967874 0.079492769 9.9999998e-05
v 0.061967874 0.079492769 0.000125
v 0.061967874 0.080130014 0.000125
f 1 2 6
f 6 2 5
f 5 2 3
f 5 3 4
f 7 8 12
f 12 8 11
f 11 8 9
f 11 9 10
f 13 14 28
f 28 14 27
f 27 14 26
f 26 14 25
f 25 14 15
f 25 15 24
f 24 15 16
f 24 16 23
f 23 16 17
f 23 17 22
f 22 17 18
f 22 18 19
f 20 21 19
f 19 21 22
f 29 30 34
f 34 30 33
f 33 30 31
f 33 31 32
f 35 36 38
f 38 36 37
f 39 40 42
f 42 40 41
f 44 45 43
f 43 45 46
f 43 46 47
f 47 48 43
f 43 48 58
f 58 48 49
f 58 49 57
f 57 49 50
f 57 50 56
f 56 50 51
f 56 51 55
f 55 51 54
f 54 51 52
f 54 52 53
f 59 60 62
f 62 60 61
f 63 64 68
f 68 64 67
f 67 64 65
f 67 65 66
f 69 70 74
f 74 70 73
f 73 70 71
f 73 71 72
f 75 76 78
f 78 76 77
f 79 80 82
f 82 80 81
f 83 84 86
f 86 84 85
