v 0.038566442 0.14314175 9.9999998e-05
v 0.038911328 0.1448618 9.9999998e-05
v 0.038911328 0.1448618 0.000125
v 0.038566442 0.14314175 0.000125
v 0.03977572 0.14354339 9.9999998e-05
v 0.039156892 0.14344297 9.9999998e-05
v 0.038566442 0.14314175 9.9999998e-05
v 0.038566442 0.14314175 0.000125
v 0.039156892 0.14344297 0.000125
v 0.03977572 0.14354339 0.000125
v 0.038911328 0.1448618 9.9999998e-05
v 0.041465216 0.1448618 9.9999998e-05
v 0.041465216 0.1448618 0.000125
v 0.038911328 0.1448618 0.000125
v 0.041190181 0.14296275 9.9999998e-05
v 0.040548434 0.14339823 9.9999998e-05
v 0.03977572 0.14354339 9.9999998e-05
v 0.03977572 0.14354339 0.000125
v 0.040548434 0.14339823 0.000125
v 0.041190181 0.14296275 0.000125
v 0.041465216 0.1448618 9.9999998e-05
v 0.041465216 0.14561269 9.9999998e-05
v 0.041465216 0.14561269 0.000125
v 0.041465216 0.1448618 0.000125
v 0.041766443 0.14146972 9.9999998e-05
v 0.041622376 0.14229918 9.9999998e-05
v 0.041190181 0.14296275 9.9999998e-05
v 0.041190181 0.14296275 0.000125
v 0.041622376 0.14229918 0.000125
v 0.041766443 0.14146972 0.000125
v 0.041465216 0.14561269 9.9999998e-05
v 0.038282678 0.14561269 9.9999998e-05
v 0.038282678 0.14561269 0.000125
v 0.041465216 0.14561269 0.000125
v 0.041260033 0.13996794 9.9999998e-05
v 0.041639843 0.14065989 9.9999998e-05
v 0.041766443 0.14146972 9.9999998e-05
v 0.041766443 0.14146972 0.000125
v 0.041639843 0.14065989 0.000125
v 0.041260033 0.13996794 0.000125
v 0.038282678 0.14561269 9.9999998e-05
v 0.037662759 0.14232537 9.9999998e-05
v 0.037662759 0.14232537 0.000125
v 0.038282678 0.14561269 0.000125
v 0.039579268 0.13919086 9.9999998e-05
v 0.040083771 0.13923943 9.9999998e-05
v 0.040532064 0.13938513 9.9999998e-05
v 0.040924153 0.13962797 9.9999998e-05
v 0.041260033 0.13996794 9.9999998e-05
v 0.041260033 0.13996794 0.000125
v 0.040924153 0.13962797 0.000125
v 0.040532064 0.13938513 0.000125
v 0.040083771 0.13923943 0.000125
v 0.039579268 0.13919086 0.000125
v 0.037662759 0.14232537 9.9999998e-05
v 0.03840055 0.14222933 9.9999998e-05
v 0.03840055 0.14222933 0.000125
v 0.037662759 0.14232537 0.000125
v 0.038153892 0.13967981 9.9999998e-05
v 0.038786361 0.1393131 9.9999998e-05
v 0.039579268 0.13919086 9.9999998e-05
v 0.039579268 0.13919086 0.000125
v 0.038786361 0.1393131 0.000125
v 0.038153892 0.13967981 0.000125
v 0.03840055 0.14222933 9.9999998e-05
v 0.038880768 0.14267681 9.9999998e-05
v 0.038880768 0.14267681 0.000125
v 0.03840055 0.14222933 0.000125
v 0.03752306 0.1409764 0.000125
v 0.03772006 0.14024843 0.000125
v 0.038153892 0.13967981 0.000125
v 0.038786361 0.1393131 0.000125
v 0.039579268 0.13919086 0.000125
v 0.040083771 0.13923943 0.000125
v 0.040532064 0.13938513 0.000125
v 0.040924153 0.13962797 0.000125
v 0.041260033 0.13996794 0.000125
v 0.041639843 0.14065989 0.000125
v 0.041766443 0.14146972 0.000125
v 0.041622376 0.14229918 0.000125
v 0.041190181 0.14296275 0.000125
v 0.040548434 0.14339823 0.000125
v 0.03977572 0.14354339 0.000125
v 0.039156892 0.14344297 0.000125
v 0.038566442 0.14314175 0.000125
v 0.038911328 0.1448618 0.000125
v 0.041465216 0.1448618 0.000125
v 0.041465216 0.14561269 0.000125
v 0.038282678 0.14561269 0.000125
v 0.037662759 0.14232537 0.000125
v 0.03840055 0.14222933 0.000125
v 0.038880768 0.14267681 0.000125
v 0.039566169 0.14284925 0.000125
v 0.040118966 0.14275211 0.000125
v 0.040554986 0.14246071 0.000125
v 0.040838203 0.14200123 0.000125
v 0.040932612 0.14139986 0.000125
v 0.040834384 0.14076248 0.000125
v 0.040539703 0.14026481 0.000125
v 0.040103145 0.13994393 0.000125
v 0.039579268 0.13983697 0.000125
v 0.03914216 0.13991282 0.000125
v 0.038773808 0.14014038 0.000125
v 0.038500414 0.14051855 0.000125
v 0.038348162 0.14104625 0.000125
v 0.038880768 0.14267681 9.9999998e-05
v 0.039566169 0.14284925 9.9999998e-05
v 0.039566169 0.14284925 0.000125
v 0.038880768 0.14267681 0.000125
v 0.03752306 0.1409764 9.9999998e-05
v 0.03772006 0.14024843 9.9999998e-05
v 0.038153892 0.13967981 9.9999998e-05
v 0.038153892 0.13967981 0.000125
v 0.03772006 0.14024843 0.000125
v 0.03752306 0.1409764 0.000125
v 0.039566169 0.14284925 9.9999998e-05
v 0.040118966 0.14275211 9.9999998e-05
v 0.040554986 0.14246071 9.9999998e-05
v 0.040554986 0.14246071 0.000125
v 0.040118966 0.14275211 0.000125
v 0.039566169 0.14284925 0.000125
v 0.038153892 0.13967981 9.9999998e-05
v 0.03772006 0.14024843 9.9999998e-05
v 0.03752306 0.1409764 9.9999998e-05
v 0.038348162 0.14104625 9.9999998e-05
v 0.038500414 0.14051855 9.9999998e-05
v 0.038773808 0.14014038 9.9999998e-05
v 0.03914216 0.13991282 9.9999998e-05
v 0.039579268 0.13983697 9.9999998e-05
v 0.040103145 0.13994393 9.9999998e-05
v 0.040539703 0.14026481 9.9999998e-05
v 0.040834384 0.14076248 9.9999998e-05
v 0.040932612 0.14139986 9.9999998e-05
v 0.040838203 0.14200123 9.9999998e-05
v 0.040554986 0.14246071 9.9999998e-05
v 0.040118966 0.14275211 9.9999998e-05
v 0.039566169 0.14284925 9.9999998e-05
v 0.038880768 0.14267681 9.9999998e-05
v 0.03840055 0.14222933 9.9999998e-05
v 0.037662759 0.14232537 9.9999998e-05
v 0.038282678 0.14561269 9.9999998e-05
v 0.041465216 0.14561269 9.9999998e-05
v 0.041465216 0.1448618 9.9999998e-05
v 0.038911328 0.1448618 9.9999998e-05
v 0.038566442 0.14314175 9.9999998e-05
v 0.039156892 0.14344297 9.9999998e-05
v 0.03977572 0.14354339 9.9999998e-05
v 0.040548434 0.14339823 9.9999998e-05
v 0.041190181 0.14296275 9.9999998e-05
v 0.041622376 0.14229918 9.9999998e-05
v 0.041766443 0.14146972 9.9999998e-05
v 0.041639843 0.14065989 9.9999998e-05
v 0.041260033 0.13996794 9.9999998e-05
v 0.040924153 0.13962797 9.9999998e-05
v 0.040532064 0.13938513 9.9999998e-05
v 0.040083771 0.13923943 9.9999998e-05
v 0.039579268 0.13919086 9.9999998e-05
v 0.038786361 0.1393131 9.9999998e-05
v 0.040554986 0.14246071 9.9999998e-05
v 0.040838203 0.14200123 9.9999998e-05
v 0.040932612 0.14139986 9.9999998e-05
v 0.040932612 0.14139986 0.000125
v 0.040838203 0.14200123 0.000125
v 0.040554986 0.14246071 0.000125
v 0.040932612 0.14139986 9.9999998e-05
v 0.040834384 0.14076248 9.9999998e-05
v 0.040539703 0.14026481 9.9999998e-05
v 0.040539703 0.14026481 0.000125
v 0.040834384 0.14076248 0.000125
v 0.040932612 0.14139986 0.000125
v 0.040539703 0.14026481 9.9999998e-05
v 0.040103145 0.13994393 9.9999998e-05
v 0.039579268 0.13983697 9.9999998e-05
v 0.039579268 0.13983697 0.000125
v 0.040103145 0.13994393 0.000125
v 0.040539703 0.14026481 0.000125
v 0.039579268 0.13983697 9.9999998e-05
v 0.03914216 0.13991282 9.9999998e-05
v 0.038773808 0.14014038 9.9999998e-05
v 0.038773808 0.14014038 0.000125
v 0.03914216 0.13991282 0.000125
v 0.039579268 0.13983697 0.000125
v 0.038773808 0.14014038 9.9999998e-05
v 0.038500414 0.14051855 9.9999998e-05
v 0.038348162 0.14104625 9.9999998e-05
v 0.038348162 0.14104625 0.000125
v 0.038500414 0.14051855 0.000125
v 0.038773808 0.14014038 0.000125
v 0.038348162 0.14104625 9.9999998e-05
v 0.03752306 0.1409764 9.9999998e-05
v 0.03752306 0.1409764 0.000125
v 0.038348162 0.14104625 0.000125
f 1 2 4
f 4 2 3
f 5 6 10
f 10 6 9
f 9 6 7
f 9 7 8
f 11 12 14
f 14 12 13
f 15 16 20
f 20 16 19
f 19 16 17
f 19 17 18
f 21 22 24
f 24 22 23
f 25 26 30
f 30 26 29
f 29 26 27
f 29 27 28
f 31 32 34
f 34 32 33
f 35 36 40
f 40 36 39
f 39 36 37
f 39 37 38
f 41 42 44
f 44 42 43
f 45 46 54
f 54 46 53
f 53 46 47
f 53 47 52
f 52 47 48
f 52 48 51
f 51 48 49
f 51 49 50
f 55 56 58
f 58 56 57
f 59 60 64
f 64 60 63
f 63 60 61
f 63 61 62
f 65 66 68
f 68 66 67
f 69 70 105
f 105 70 104
f 104 70 71
f 104 71 103
f 103 71 72
f 103 72 102
f 102 72 73
f 102 73 101
f 101 73 74
f 101 74 100
f 100 74 75
f 100 75 99
f 99 75 76
f 99 76 98
f 98 76 77
f 98 77 78
f 98 78 97
f 97 78 79
f 97 79 80
f 97 80 96
f 96 80 81
f 96 81 95
f 95 81 82
f 95 82 94
f 94 82 83
f 94 83 93
f 93 83 84
f 93 84 92
f 92 84 85
f 92 85 91
f 91 85 90
f 90 85 89
f 89 85 86
f 89 86 88
f 88 86 87
f 106 107 109
f 109 107 108
f 110 111 115
f 115 111 114
f 114 111 112
f 114 112 113
f 116 117 121
f 121 117 120
f 120 117 118
f 120 118 119
f 123 126 122
f 122 126 127
f 122 127 158
f 158 127 128
f 158 128 157
f 157 128 129
f 157 129 156
f 156 129 130
f 156 130 155
f 155 130 131
f 155 131 154
f 154 131 132
f 154 132 153
f 153 132 152
f 152 132 133
f 152 133 151
f 151 133 150
f 150 133 134
f 150 134 149
f 149 134 135
f 149 135 148
f 148 135 136
f 148 136 147
f 147 136 137
f 147 137 146
f 146 137 138
f 146 138 145
f 145 138 139
f 145 139 140
f 124 125 123
f 123 125 126
f 140 141 145
f 145 141 144
f 144 141 142
f 144 142 143
f 159 160 164
f 164 160 163
f 163 160 161
f 163 161 162
f 165 166 170
f 170 166 169
f 169 166 167
f 169 167 168
f 171 172 176
f 176 172 175
f 175 172 173
f 175 173 174
f 177 178 182
f 182 178 181
f 181 178 179
f 181 179 180
f 183 184 188
f 188 184 187
f 187 184 185
f 187 185 186
f 189 190 192
f 192 190 191
