v 0.0030000001 0.131 4.9999999e-05
v 0.0030000001 0.118 4.9999999e-05
v 0.0030000001 0.118 8.9999996e-05
v 0.0030000001 0.131 8.9999996e-05
v 0.040999999 0.118 4.9999999e-05
v 0.040999999 0.131 4.9999999e-05
v 0.040999999 0.131 8.9999996e-05
v 0.040999999 0.118 8.9999996e-05
v 0.0030000001 0.118 4.9999999e-05
v 0.040999999 0.118 4.9999999e-05
v 0.040999999 0.118 8.9999996e-05
v 0.0030000001 0.118 8.9999996e-05
v 0.0030000001 0.118 4.9999999e-05
v 0.0030000001 0.131 4.9999999e-05
v 0.040999999 0.131 4.9999999e-05
v 0.040999999 0.118 4.9999999e-05
v 0.0030000001 0.131 8.9999996e-05
v 0.0030000001 0.118 8.9999996e-05
v 0.040999999 0.118 8.9999996e-05
v 0.040999999 0.131 8.9999996e-05
v 0.040999999 0.131 4.9999999e-05
v 0.0030000001 0.131 4.9999999e-05
v 0.0030000001 0.131 8.9999996e-05
v 0.040999999 0.131 8.9999996e-05
f 1 2 4
f 4 2 3
f 5 6 8
f 8 6 7
f 9 10 12
f 12 10 11
f 14 15 13
f 13 15 16
f 18 19 17
f 17 19 20
f 21 22 24
f 24 22 23
