v 0.025 0 0
v 0.024802868 -0.0031333309 0
v 0.02421458 -0.0062172472 0
v 0.023244412 -0.0092031139 0
v 0.021907668 -0.012043842 0
v 0.020225425 -0.014694631 0
v 0.018224216 -0.017113677 0
v 0.0159356 -0.019262831 0
v 0.013395669 -0.021108198 0
v 0.010644482 -0.022620676 0
v 0.0077254248 -0.023776412 0
v 0.0046845329 -0.02455718 0
v 0.001569763 -0.024950669 0
v -0.001569763 -0.024950669 0
v -0.0046845329 -0.02455718 0
v -0.0077254248 -0.023776412 0
v -0.010644482 -0.022620676 0
v -0.013395669 -0.021108198 0
v -0.0159356 -0.019262831 0
v -0.018224216 -0.017113677 0
v -0.020225425 -0.014694631 0
v -0.021907668 -0.012043842 0
v -0.023244412 -0.0092031139 0
v -0.02421458 -0.0062172472 0
v -0.024802868 -0.0031333309 0
v -0.025 -8.0406132e-18 0
v -0.024802868 0.0031333309 0
v -0.02421458 0.0062172472 0
v -0.023244412 0.0092031139 0
v -0.021907668 0.012043842 0
v -0.020225425 0.014694631 0
v -0.018224216 0.017113677 0
v -0.0159356 0.019262831 0
v -0.013395669 0.021108198 0
v -0.010644482 0.022620676 0
v -0.0077254248 0.023776412 0
v -0.0046845329 0.02455718 0
v -0.001569763 0.024950669 0
v 0.001569763 0.024950669 0
v 0.0046845329 0.02455718 0
v 0.0077254248 0.023776412 0
v 0.010644482 0.022620676 0
v 0.013395669 0.021108198 0
v 0.0159356 0.019262831 0
v 0.018224216 0.017113677 0
v 0.020225425 0.014694631 0
v 0.021907668 0.012043842 0
v 0.023244412 0.0092031139 0
v 0.02421458 0.0062172472 0
v 0.024802868 0.0031333309 0
v 0.025 0 0
v 0.024802868 0.0031333309 0
v 0.02421458 0.0062172472 0
v 0.023244412 0.0092031139 0
v 0.021907668 0.012043842 0
v 0.020225425 0.014694631 0
v 0.018224216 0.017113677 0
v 0.0159356 0.019262831 0
v 0.013395669 0.021108198 0
v 0.010644482 0.022620676 0
v 0.0077254248 0.023776412 0
v 0.0046845329 0.02455718 0
v 0.001569763 0.024950669 0
v -0.001569763 0.024950669 0
v -0.0046845329 0.02455718 0
v -0.0077254248 0.023776412 0
v -0.010644482 0.022620676 0
v -0.013395669 0.021108198 0
v -0.0159356 0.019262831 0
v -0.018224216 0.017113677 0
v -0.020225425 0.014694631 0
v -0.021907668 0.012043842 0
v -0.023244412 0.0092031139 0
v -0.02421458 0.0062172472 0
v -0.024802868 0.0031333309 0
v -0.025 -8.0406132e-18 0
v -0.024802868 -0.0031333309 0
v -0.02421458 -0.0062172472 0
v -0.023244412 -0.0092031139 0
v -0.021907668 -0.012043842 0
v -0.020225425 -0.014694631 0
v -0.018224216 -0.017113677 0
v -0.0159356 -0.019262831 0
v -0.013395669 -0.021108198 0
v -0.010644482 -0.022620676 0
v -0.0077254248 -0.023776412 0
v -0.0046845329 -0.02455718 0
v -0.001569763 -0.024950669 0
v 0.001569763 -0.024950669 0
v 0.0046845329 -0.02455718 0
v 0.0077254248 -0.023776412 0
v 0.010644482 -0.022620676 0
v 0.013395669 -0.021108198 0
v 0.0159356 -0.019262831 0
v 0.018224216 -0.017113677 0
v 0.020225425 -0.014694631 0
v 0.021907668 -0.012043842 0
v 0.023244412 -0.0092031139 0
v 0.02421458 -0.0062172472 0
v 0.024802868 -0.0031333309 0
v 0.025 0 0.0060000002
v 0.024802868 -0.0031333309 0.0060000002
v 0.02421458 -0.0062172472 0.0060000002
v 0.023244412 -0.0092031139 0.0060000002
v 0.021907668 -0.012043842 0.0060000002
v 0.020225425 -0.014694631 0.0060000002
v 0.018224216 -0.017113677 0.0060000002
v 0.0159356 -0.019262831 0.0060000002
v 0.013395669 -0.021108198 0.0060000002
v 0.010644482 -0.022620676 0.0060000002
v 0.0077254248 -0.023776412 0.0060000002
v 0.0046845329 -0.02455718 0.0060000002
v 0.001569763 -0.024950669 0.0060000002
v -0.001569763 -0.024950669 0.0060000002
v -0.0046845329 -0.02455718 0.0060000002
v -0.0077254248 -0.023776412 0.0060000002
v -0.010644482 -0.022620676 0.0060000002
v -0.013395669 -0.021108198 0.0060000002
v -0.0159356 -0.019262831 0.0060000002
v -0.018224216 -0.017113677 0.0060000002
v -0.020225425 -0.014694631 0.0060000002
v -0.021907668 -0.012043842 0.0060000002
v -0.023244412 -0.0092031139 0.0060000002
v -0.02421458 -0.0062172472 0.0060000002
v -0.024802868 -0.0031333309 0.0060000002
v -0.025 -8.0406132e-18 0.0060000002
v -0.024802868 0.0031333309 0.0060000002
v -0.02421458 0.0062172472 0.0060000002
v -0.023244412 0.0092031139 0.0060000002
v -0.021907668 0.012043842 0.0060000002
v -0.020225425 0.014694631 0.0060000002
v -0.018224216 0.017113677 0.0060000002
v -0.0159356 0.019262831 0.0060000002
v -0.013395669 0.021108198 0.0060000002
v -0.010644482 0.022620676 0.0060000002
v -0.0077254248 0.023776412 0.0060000002
v -0.0046845329 0.02455718 0.0060000002
v -0.001569763 0.024950669 0.0060000002
v 0.001569763 0.024950669 0.0060000002
v 0.0046845329 0.02455718 0.0060000002
v 0.0077254248 0.023776412 0.0060000002
v 0.010644482 0.022620676 0.0060000002
v 0.013395669 0.021108198 0.0060000002
v 0.0159356 0.019262831 0.0060000002
v 0.018224216 0.017113677 0.0060000002
v 0.020225425 0.014694631 0.0060000002
v 0.021907668 0.012043842 0.0060000002
v 0.023244412 0.0092031139 0.0060000002
v 0.02421458 0.0062172472 0.0060000002
v 0.024802868 0.0031333309 0.0060000002
v -0.025 -8.0406132e-18 0
v -0.025 -8.0406132e-18 0.0060000002
v 0.025 0 0.0060000002
v 0.024802868 0.0031333309 0.0060000002
v 0.02421458 0.0062172472 0.0060000002
v 0.023244412 0.0092031139 0.0060000002
v 0.021907668 0.012043842 0.0060000002
v 0.020225425 0.014694631 0.0060000002
v 0.018224216 0.017113677 0.0060000002
v 0.0159356 0.019262831 0.0060000002
v 0.013395669 0.021108198 0.0060000002
v 0.010644482 0.022620676 0.0060000002
v 0.0077254248 0.023776412 0.0060000002
v 0.0046845329 0.02455718 0.0060000002
v 0.001569763 0.024950669 0.0060000002
v -0.001569763 0.024950669 0.0060000002
v -0.0046845329 0.02455718 0.0060000002
v -0.0077254248 0.023776412 0.0060000002
v -0.010644482 0.022620676 0.0060000002
v -0.013395669 0.021108198 0.0060000002
v -0.0159356 0.019262831 0.0060000002
v -0.018224216 0.017113677 0.0060000002
v -0.020225425 0.014694631 0.0060000002
v -0.021907668 0.012043842 0.0060000002
v -0.023244412 0.0092031139 0.0060000002
v -0.02421458 0.0062172472 0.0060000002
v -0.024802868 0.0031333309 0.0060000002
v -0.025 -8.0406132e-18 0.0060000002
v -0.024802868 -0.0031333309 0.0060000002
v -0.02421458 -0.0062172472 0.0060000002
v -0.023244412 -0.0092031139 0.0060000002
v -0.021907668 -0.012043842 0.0060000002
v -0.020225425 -0.014694631 0.0060000002
v -0.018224216 -0.017113677 0.0060000002
v -0.0159356 -0.019262831 0.0060000002
v -0.013395669 -0.021108198 0.0060000002
v -0.010644482 -0.022620676 0.0060000002
v -0.0077254248 -0.023776412 0.0060000002
v -0.0046845329 -0.02455718 0.0060000002
v -0.001569763 -0.024950669 0.0060000002
v 0.001569763 -0.024950669 0.0060000002
v 0.0046845329 -0.02455718 0.0060000002
v 0.0077254248 -0.023776412 0.0060000002
v 0.010644482 -0.022620676 0.0060000002
v 0.013395669 -0.021108198 0.0060000002
v 0.0159356 -0.019262831 0.0060000002
v 0.018224216 -0.017113677 0.0060000002
v 0.020225425 -0.014694631 0.0060000002
v 0.021907668 -0.012043842 0.0060000002
v 0.023244412 -0.0092031139 0.0060000002
v 0.02421458 -0.0062172472 0.0060000002
v 0.024802868 -0.0031333309 0.0060000002
v 0.0089999998 0 0.014
v 0.0088033283 -0.0018712053 0.014
v 0.0082219094 -0.0036606297 0.014
v 0.0072811532 -0.0052900672 0.014
v 0.0060221756 -0.0066883034 0.014
v 0.0044999999 -0.0077942288 0.014
v 0.002781153 -0.0085595089 0.014
v 0.0009407562 -0.0089506972 0.014
v -0.0009407562 -0.0089506972 0.014
v -0.002781153 -0.0085595089 0.014
v -0.0044999999 -0.0077942288 0.014
v -0.0060221756 -0.0066883034 0.014
v -0.0072811532 -0.0052900672 0.014
v -0.0082219094 -0.0036606297 0.014
v -0.0088033283 -0.0018712053 0.014
v -0.0089999998 1.1021821e-18 0.014
v -0.0088033283 0.0018712053 0.014
v -0.0082219094 0.0036606297 0.014
v -0.0072811532 0.0052900672 0.014
v -0.0060221756 0.0066883034 0.014
v -0.0044999999 0.0077942288 0.014
v -0.002781153 0.0085595089 0.014
v -0.0009407562 0.0089506972 0.014
v 0.0009407562 0.0089506972 0.014
v 0.002781153 0.0085595089 0.014
v 0.0044999999 0.0077942288 0.014
v 0.0060221756 0.0066883034 0.014
v 0.0072811532 0.0052900672 0.014
v 0.0082219094 0.0036606297 0.014
v 0.0088033283 0.0018712053 0.014
v -0.025 -8.0406132e-18 0.0060000002
v -0.0089999998 1.1021821e-18 0.014
v 0.0089999998 0 0.014
v 0.0088033283 0.0018712053 0.014
v 0.0082219094 0.0036606297 0.014
v 0.0072811532 0.0052900672 0.014
v 0.0060221756 0.0066883034 0.014
v 0.0044999999 0.0077942288 0.014
v 0.002781153 0.0085595089 0.014
v 0.0009407562 0.0089506972 0.014
v -0.0009407562 0.0089506972 0.014
v -0.002781153 0.0085595089 0.014
v -0.0044999999 0.0077942288 0.014
v -0.0060221756 0.0066883034 0.014
v -0.0072811532 0.0052900672 0.014
v -0.0082219094 0.0036606297 0.014
v -0.0088033283 0.0018712053 0.014
v -0.0089999998 1.1021821e-18 0.014
v -0.0088033283 -0.0018712053 0.014
v -0.0082219094 -0.0036606297 0.014
v -0.0072811532 -0.0052900672 0.014
v -0.0060221756 -0.0066883034 0.014
v -0.0044999999 -0.0077942288 0.014
v -0.002781153 -0.0085595089 0.014
v -0.0009407562 -0.0089506972 0.014
v 0.0009407562 -0.0089506972 0.014
v 0.002781153 -0.0085595089 0.014
v 0.0044999999 -0.0077942288 0.014
v 0.0060221756 -0.0066883034 0.014
v 0.0072811532 -0.0052900672 0.014
v 0.0082219094 -0.0036606297 0.014
v 0.0088033283 -0.0018712053 0.014
v 0.0089999998 0 0.018
v 0.0088033283 -0.0018712053 0.018
v 0.0082219094 -0.0036606297 0.018
v 0.0072811532 -0.0052900672 0.018
v 0.0060221756 -0.0066883034 0.018
v 0.0044999999 -0.0077942288 0.018
v 0.002781153 -0.0085595089 0.018
v 0.0009407562 -0.0089506972 0.018
v -0.0009407562 -0.0089506972 0.018
v -0.002781153 -0.0085595089 0.018
v -0.0044999999 -0.0077942288 0.018
v -0.0060221756 -0.0066883034 0.018
v -0.0072811532 -0.0052900672 0.018
v -0.0082219094 -0.0036606297 0.018
v -0.0088033283 -0.0018712053 0.018
v -0.0089999998 1.1021821e-18 0.018
v -0.0088033283 0.0018712053 0.018
v -0.0082219094 0.0036606297 0.018
v -0.0072811532 0.0052900672 0.018
v -0.0060221756 0.0066883034 0.018
v -0.0044999999 0.0077942288 0.018
v -0.002781153 0.0085595089 0.018
v -0.0009407562 0.0089506972 0.018
v 0.0009407562 0.0089506972 0.018
v 0.002781153 0.0085595089 0.018
v 0.0044999999 0.0077942288 0.018
v 0.0060221756 0.0066883034 0.018
v 0.0072811532 0.0052900672 0.018
v 0.0082219094 0.0036606297 0.018
v 0.0088033283 0.0018712053 0.018
v -0.0089999998 1.1021821e-18 0.014
v -0.0089999998 1.1021821e-18 0.018
v 0.0089999998 0 0.018
v 0.0088033283 0.0018712053 0.018
v 0.0082219094 0.0036606297 0.018
v 0.0072811532 0.0052900672 0.018
v 0.0060221756 0.0066883034 0.018
v 0.0044999999 0.0077942288 0.018
v 0.002781153 0.0085595089 0.018
v 0.0009407562 0.0089506972 0.018
v -0.0009407562 0.0089506972 0.018
v -0.002781153 0.0085595089 0.018
v -0.0044999999 0.0077942288 0.018
v -0.0060221756 0.0066883034 0.018
v -0.0072811532 0.0052900672 0.018
v -0.0082219094 0.0036606297 0.018
v -0.0088033283 0.0018712053 0.018
v -0.0089999998 1.1021821e-18 0.018
v -0.0088033283 -0.0018712053 0.018
v -0.0082219094 -0.0036606297 0.018
v -0.0072811532 -0.0052900672 0.018
v -0.0060221756 -0.0066883034 0.018
v -0.0044999999 -0.0077942288 0.018
v -0.002781153 -0.0085595089 0.018
v -0.0009407562 -0.0089506972 0.018
v 0.0009407562 -0.0089506972 0.018
v 0.002781153 -0.0085595089 0.018
v 0.0044999999 -0.0077942288 0.018
v 0.0060221756 -0.0066883034 0.018
v 0.0072811532 -0.0052900672 0.018
v 0.0082219094 -0.0036606297 0.018
v 0.0088033283 -0.0018712053 0.018
v -0.0059167498 7.2459288e-19 0.018
v -0.0057308644 0.0014714359 0.018
v -0.0051848876 0.002850416 0.018
v -0.004313125 0.0040502942 0.018
v -0.0031703532 0.0049956772 0.018
v -0.0018283764 0.0056271636 0.018
v -0.00037151579 0.0059050745 0.018
v 0.0011086884 0.0058119482 0.018
v 0.0025192297 0.0053536355 0.018
v 0.0037714785 0.0045589343 0.018
v 0.0047867513 0.0034777784 0.018
v 0.0055012548 0.0021781009 0.018
v 0.0058700949 0.00074156538 0.018
v 0.0058700949 -0.00074156538 0.018
v 0.0055012548 -0.0021781009 0.018
v 0.0047867513 -0.0034777784 0.018
v 0.0037714785 -0.0045589343 0.018
v 0.0025192297 -0.0053536355 0.018
v 0.0011086884 -0.0058119482 0.018
v -0.00037151579 -0.0059050745 0.018
v -0.0018283764 -0.0056271636 0.018
v -0.0031703532 -0.0049956772 0.018
v -0.004313125 -0.0040502942 0.018
v -0.0051848876 -0.002850416 0.018
v -0.0057308644 -0.0014714359 0.018
v -0.0059167498 7.2459288e-19 0.018
v -0.0057308644 -0.0014714359 0.018
v -0.0051848876 -0.002850416 0.018
v -0.004313125 -0.0040502942 0.018
v -0.0031703532 -0.0049956772 0.018
v -0.0018283764 -0.0056271636 0.018
v -0.00037151579 -0.0059050745 0.018
v 0.0011086884 -0.0058119482 0.018
v 0.0025192297 -0.0053536355 0.018
v 0.0037714785 -0.0045589343 0.018
v 0.0047867513 -0.0034777784 0.018
v 0.0055012548 -0.0021781009 0.018
v 0.0058700949 -0.00074156538 0.018
v 0.0058700949 0.00074156538 0.018
v 0.0055012548 0.0021781009 0.018
v 0.0047867513 0.0034777784 0.018
v 0.0037714785 0.0045589343 0.018
v 0.0025192297 0.0053536355 0.018
v 0.0011086884 0.0058119482 0.018
v -0.00037151579 0.0059050745 0.018
v -0.0018283764 0.0056271636 0.018
v -0.0031703532 0.0049956772 0.018
v -0.004313125 0.0040502942 0.018
v -0.0051848876 0.002850416 0.018
v -0.0057308644 0.0014714359 0.018
v -0.0059167498 7.2459288e-19 0.055999999
v -0.0057308644 0.0014714359 0.055999999
v -0.0051848876 0.002850416 0.055999999
v -0.004313125 0.0040502942 0.055999999
v -0.0031703532 0.0049956772 0.055999999
v -0.0018283764 0.0056271636 0.055999999
v -0.00037151579 0.0059050745 0.055999999
v 0.0011086884 0.0058119482 0.055999999
v 0.0025192297 0.0053536355 0.055999999
v 0.0037714785 0.0045589343 0.055999999
v 0.0047867513 0.0034777784 0.055999999
v 0.0055012548 0.0021781009 0.055999999
v 0.0058700949 0.00074156538 0.055999999
v 0.0058700949 -0.00074156538 0.055999999
v 0.0055012548 -0.0021781009 0.055999999
v 0.0047867513 -0.0034777784 0.055999999
v 0.0037714785 -0.0045589343 0.055999999
v 0.0025192297 -0.0053536355 0.055999999
v 0.0011086884 -0.0058119482 0.055999999
v -0.00037151579 -0.0059050745 0.055999999
v -0.0018283764 -0.0056271636 0.055999999
v -0.0031703532 -0.0049956772 0.055999999
v -0.004313125 -0.0040502942 0.055999999
v -0.0051848876 -0.002850416 0.055999999
v -0.0057308644 -0.0014714359 0.055999999
v -0.0059167498 7.2459288e-19 0.018
v -0.0059167498 7.2459288e-19 0.055999999
v -0.0059167498 7.2459288e-19 0.055999999
v -0.0057308644 -0.0014714359 0.055999999
v -0.0051848876 -0.002850416 0.055999999
v -0.004313125 -0.0040502942 0.055999999
v -0.0031703532 -0.0049956772 0.055999999
v -0.0018283764 -0.0056271636 0.055999999
v -0.00037151579 -0.0059050745 0.055999999
v 0.0011086884 -0.0058119482 0.055999999
v 0.0025192297 -0.0053536355 0.055999999
v 0.0037714785 -0.0045589343 0.055999999
v 0.0047867513 -0.0034777784 0.055999999
v 0.0055012548 -0.0021781009 0.055999999
v 0.0058700949 -0.00074156538 0.055999999
v 0.0058700949 0.00074156538 0.055999999
v 0.0055012548 0.0021781009 0.055999999
v 0.0047867513 0.0034777784 0.055999999
v 0.0037714785 0.0045589343 0.055999999
v 0.0025192297 0.0053536355 0.055999999
v 0.0011086884 0.0058119482 0.055999999
v -0.00037151579 0.0059050745 0.055999999
v -0.0018283764 0.0056271636 0.055999999
v -0.0031703532 0.0049956772 0.055999999
v -0.004313125 0.0040502942 0.055999999
v -0.0051848876 0.002850416 0.055999999
v -0.0057308644 0.0014714359 0.055999999
f 2 25 1
f 1 25 26
f 1 26 50
f 50 26 27
f 50 27 49
f 49 27 28
f 49 28 48
f 48 28 29
f 48 29 47
f 47 29 30
f 47 30 46
f 46 30 31
f 46 31 45
f 45 31 32
f 45 32 44
f 44 32 33
f 44 33 43
f 43 33 34
f 43 34 42
f 42 34 35
f 42 35 41
f 41 35 36
f 41 36 40
f 40 36 37
f 40 37 39
f 39 37 38
f 25 2 24
f 24 2 3
f 24 3 23
f 23 3 4
f 23 4 22
f 22 4 5
f 22 5 21
f 21 5 6
f 21 6 20
f 20 6 7
f 20 7 19
f 19 7 8
f 19 8 18
f 18 8 9
f 18 9 17
f 17 9 10
f 17 10 16
f 16 10 11
f 16 11 15
f 15 11 12
f 15 12 14
f 14 12 13
f 52 150 51
f 51 150 101
f 51 101 100
f 100 101 102
f 100 102 99
f 99 102 103
f 99 103 98
f 98 103 104
f 98 104 97
f 97 104 105
f 97 105 96
f 96 105 106
f 96 106 95
f 95 106 107
f 95 107 94
f 94 107 108
f 94 108 93
f 93 108 109
f 93 109 92
f 92 109 110
f 92 110 91
f 91 110 111
f 91 111 90
f 90 111 112
f 90 112 89
f 89 112 113
f 89 113 88
f 88 113 114
f 88 114 87
f 87 114 115
f 87 115 86
f 86 115 116
f 86 116 85
f 85 116 117
f 85 117 84
f 84 117 118
f 84 118 83
f 83 118 119
f 83 119 82
f 82 119 120
f 82 120 81
f 81 120 121
f 81 121 80
f 80 121 122
f 80 122 79
f 79 122 123
f 79 123 78
f 78 123 124
f 78 124 77
f 77 124 125
f 77 125 76
f 76 125 152
f 151 126 75
f 75 126 127
f 75 127 74
f 74 127 128
f 74 128 73
f 73 128 129
f 73 129 72
f 72 129 130
f 72 130 71
f 71 130 131
f 71 131 70
f 70 131 132
f 70 132 69
f 69 132 133
f 69 133 68
f 68 133 134
f 68 134 67
f 67 134 135
f 67 135 66
f 66 135 136
f 66 136 65
f 65 136 137
f 65 137 64
f 64 137 138
f 64 138 63
f 63 138 139
f 63 139 62
f 62 139 140
f 62 140 61
f 61 140 141
f 61 141 60
f 60 141 142
f 60 142 59
f 59 142 143
f 59 143 58
f 58 143 144
f 58 144 57
f 57 144 145
f 57 145 56
f 56 145 146
f 56 146 55
f 55 146 147
f 55 147 54
f 54 147 148
f 54 148 53
f 53 148 149
f 53 149 52
f 52 149 150
f 202 153 203
f 203 153 154
f 203 154 232
f 232 154 155
f 232 155 156
f 232 156 231
f 231 156 157
f 231 157 230
f 230 157 158
f 230 158 159
f 230 159 229
f 229 159 160
f 229 160 161
f 229 161 228
f 228 161 162
f 228 162 227
f 227 162 163
f 227 163 164
f 227 164 226
f 226 164 165
f 226 165 166
f 226 166 225
f 225 166 167
f 225 167 224
f 224 167 168
f 224 168 169
f 224 169 223
f 223 169 170
f 223 170 171
f 223 171 222
f 222 171 172
f 222 172 221
f 221 172 173
f 221 173 174
f 221 174 220
f 220 174 175
f 220 175 176
f 220 176 219
f 219 176 177
f 219 177 218
f 218 177 233
f 234 178 179
f 234 179 217
f 217 179 180
f 217 180 181
f 217 181 216
f 216 181 182
f 216 182 215
f 215 182 183
f 215 183 184
f 215 184 214
f 214 184 185
f 214 185 186
f 214 186 213
f 213 186 187
f 213 187 212
f 212 187 188
f 212 188 189
f 212 189 211
f 211 189 190
f 211 190 191
f 211 191 210
f 210 191 192
f 210 192 209
f 209 192 193
f 209 193 194
f 209 194 208
f 208 194 195
f 208 195 196
f 208 196 207
f 207 196 197
f 207 197 206
f 206 197 198
f 206 198 199
f 206 199 205
f 205 199 200
f 205 200 201
f 205 201 204
f 204 201 202
f 204 202 203
f 236 294 235
f 235 294 265
f 235 265 264
f 264 265 266
f 264 266 263
f 263 266 267
f 263 267 262
f 262 267 268
f 262 268 261
f 261 268 269
f 261 269 260
f 260 269 270
f 260 270 259
f 259 270 271
f 259 271 258
f 258 271 272
f 258 272 257
f 257 272 273
f 257 273 256
f 256 273 274
f 256 274 255
f 255 274 275
f 255 275 254
f 254 275 276
f 254 276 253
f 253 276 277
f 253 277 252
f 252 277 278
f 252 278 251
f 251 278 279
f 251 279 250
f 250 279 296
f 295 280 249
f 249 280 281
f 249 281 248
f 248 281 282
f 248 282 247
f 247 282 283
f 247 283 246
f 246 283 284
f 246 284 245
f 245 284 285
f 245 285 244
f 244 285 286
f 244 286 243
f 243 286 287
f 243 287 242
f 242 287 288
f 242 288 241
f 241 288 289
f 241 289 240
f 240 289 290
f 240 290 239
f 239 290 291
f 239 291 238
f 238 291 292
f 238 292 237
f 237 292 293
f 237 293 236
f 236 293 294
f 298 339 297
f 297 339 340
f 297 340 326
f 326 340 341
f 326 341 325
f 325 341 342
f 325 342 324
f 324 342 323
f 323 342 343
f 323 343 322
f 322 343 344
f 322 344 321
f 321 344 345
f 321 345 320
f 320 345 346
f 320 346 319
f 319 346 347
f 319 347 318
f 318 347 317
f 317 347 348
f 317 348 316
f 316 348 349
f 316 349 315
f 315 349 350
f 315 350 314
f 314 350 351
f 314 351 313
f 313 351 327
f 313 327 312
f 312 327 311
f 311 327 328
f 311 328 310
f 310 328 329
f 310 329 309
f 309 329 330
f 309 330 308
f 308 330 331
f 308 331 307
f 307 331 332
f 307 332 306
f 306 332 305
f 305 332 333
f 305 333 304
f 304 333 334
f 304 334 303
f 303 334 335
f 303 335 302
f 302 335 336
f 302 336 301
f 301 336 337
f 301 337 300
f 300 337 299
f 299 337 338
f 299 338 298
f 298 338 339
f 353 401 352
f 352 401 403
f 402 377 376
f 376 377 378
f 376 378 375
f 375 378 379
f 375 379 374
f 374 379 380
f 374 380 373
f 373 380 381
f 373 381 372
f 372 381 382
f 372 382 371
f 371 382 383
f 371 383 370
f 370 383 384
f 370 384 369
f 369 384 385
f 369 385 368
f 368 385 386
f 368 386 367
f 367 386 387
f 367 387 366
f 366 387 388
f 366 388 365
f 365 388 389
f 365 389 364
f 364 389 390
f 364 390 363
f 363 390 391
f 363 391 362
f 362 391 392
f 362 392 361
f 361 392 393
f 361 393 360
f 360 393 394
f 360 394 359
f 359 394 395
f 359 395 358
f 358 395 396
f 358 396 357
f 357 396 397
f 357 397 356
f 356 397 398
f 356 398 355
f 355 398 399
f 355 399 354
f 354 399 400
f 354 400 353
f 353 400 401
f 428 404 412
f 412 404 405
f 412 405 406
f 406 407 412
f 412 407 408
f 412 408 409
f 410 411 409
f 409 411 412
f 413 421 412
f 412 421 422
f 412 422 423
f 421 413 420
f 420 413 414
f 420 414 419
f 419 414 415
f 419 415 418
f 418 415 416
f 418 416 417
f 423 424 412
f 412 424 425
f 412 425 426
f 426 427 412
f 412 427 428
