v 0.47099998 0.61099998 0.37799999
v 0.47099998 0.61099998 0.34299999
v 0.54900002 0.61099998 0.34299999
v 0.54900002 0.61099998 0.37799999
v 0.54900002 0.69800003 0.37799999
v 0.54900002 0.69800003 0.34299999
v 0.47099998 0.69800003 0.34299999
v 0.47099998 0.69800003 0.37799999
v 0.49775002 0.66 0.37799999
v 0.49794685 0.65781265 0.37799999
v 0.49853111 0.65569565 0.37799999
v 0.49948399 0.65371696 0.37799999
v 0.50077488 0.65194023 0.37799999
v 0.50236225 0.65042259 0.37799999
v 0.5041951 0.64921272 0.37799999
v 0.50621452 0.64834953 0.37799999
v 0.50835564 0.64786087 0.37799999
v 0.51054958 0.6477623 0.37799999
v 0.51272587 0.6480571 0.37799999
v 0.51481457 0.64873581 0.37799999
v 0.5167485 0.64977646 0.37799999
v 0.5184655 0.65114578 0.37799999
v 0.51991047 0.65279961 0.37799999
v 0.52103687 0.65468491 0.37799999
v 0.52180855 0.65674103 0.37799999
v 0.5222007 0.6589019 0.37799999
v 0.5222007 0.6610981 0.37799999
v 0.52180855 0.66325897 0.37799999
v 0.52103687 0.66531509 0.37799999
v 0.51991047 0.66720039 0.37799999
v 0.5184655 0.66885422 0.37799999
v 0.5167485 0.67022354 0.37799999
v 0.51481457 0.67126419 0.37799999
v 0.51272587 0.6719429 0.37799999
v 0.51054958 0.6722377 0.37799999
v 0.50835564 0.67213913 0.37799999
v 0.50621452 0.67165047 0.37799999
v 0.5041951 0.67078728 0.37799999
v 0.50236225 0.66957741 0.37799999
v 0.50077488 0.66805977 0.37799999
v 0.49948399 0.66628304 0.37799999
v 0.49853111 0.66430435 0.37799999
v 0.49794685 0.66218735 0.37799999
v 0.49775002 0.66 0.34299999
v 0.49794685 0.66218735 0.34299999
v 0.49853111 0.66430435 0.34299999
v 0.49948399 0.66628304 0.34299999
v 0.50077488 0.66805977 0.34299999
v 0.50236225 0.66957741 0.34299999
v 0.5041951 0.67078728 0.34299999
v 0.50621452 0.67165047 0.34299999
v 0.50835564 0.67213913 0.34299999
v 0.51054958 0.6722377 0.34299999
v 0.51272587 0.6719429 0.34299999
v 0.51481457 0.67126419 0.34299999
v 0.5167485 0.67022354 0.34299999
v 0.5184655 0.66885422 0.34299999
v 0.51991047 0.66720039 0.34299999
v 0.52103687 0.66531509 0.34299999
v 0.52180855 0.66325897 0.34299999
v 0.5222007 0.6610981 0.34299999
v 0.5222007 0.6589019 0.34299999
v 0.52180855 0.65674103 0.34299999
v 0.52103687 0.65468491 0.34299999
v 0.51991047 0.65279961 0.34299999
v 0.5184655 0.65114578 0.34299999
v 0.5167485 0.64977646 0.34299999
v 0.51481457 0.64873581 0.34299999
v 0.51272587 0.6480571 0.34299999
v 0.51054958 0.6477623 0.34299999
v 0.50835564 0.64786087 0.34299999
v 0.50621452 0.64834953 0.34299999
v 0.5041951 0.64921272 0.34299999
v 0.50236225 0.65042259 0.34299999
v 0.50077488 0.65194023 0.34299999
v 0.49948399 0.65371696 0.34299999
v 0.49853111 0.65569565 0.34299999
v 0.49794685 0.65781265 0.34299999
v 0.49775002 0.66 0.37799999
v 0.49775002 0.66 0.34299999
v 0.47099998 0.69800003 0.37799999
v 0.47099998 0.69800003 0.34299999
v 0.47099998 0.61099998 0.34299999
v 0.47099998 0.61099998 0.37799999
v 0.49775002 0.66 0.37799999
v 0.49794685 0.66218735 0.37799999
v 0.49853111 0.66430435 0.37799999
v 0.49948399 0.66628304 0.37799999
v 0.50077488 0.66805977 0.37799999
v 0.50236225 0.66957741 0.37799999
v 0.5041951 0.67078728 0.37799999
v 0.50621452 0.67165047 0.37799999
v 0.50835564 0.67213913 0.37799999
v 0.51054958 0.6722377 0.37799999
v 0.51272587 0.6719429 0.37799999
v 0.51481457 0.67126419 0.37799999
v 0.5167485 0.67022354 0.37799999
v 0.5184655 0.66885422 0.37799999
v 0.51991047 0.66720039 0.37799999
v 0.52103687 0.66531509 0.37799999
v 0.52180855 0.66325897 0.37799999
v 0.5222007 0.6610981 0.37799999
v 0.5222007 0.6589019 0.37799999
v 0.52180855 0.65674103 0.37799999
v 0.52103687 0.65468491 0.37799999
v 0.51991047 0.65279961 0.37799999
v 0.5184655 0.65114578 0.37799999
v 0.5167485 0.64977646 0.37799999
v 0.51481457 0.64873581 0.37799999
v 0.51272587 0.6480571 0.37799999
v 0.51054958 0.6477623 0.37799999
v 0.50835564 0.64786087 0.37799999
v 0.50621452 0.64834953 0.37799999
v 0.5041951 0.64921272 0.37799999
v 0.50236225 0.65042259 0.37799999
v 0.50077488 0.65194023 0.37799999
v 0.49948399 0.65371696 0.37799999
v 0.49853111 0.65569565 0.37799999
v 0.49794685 0.65781265 0.37799999
v 0.54900002 0.61099998 0.37799999
v 0.54900002 0.69800003 0.37799999
v 0.47099998 0.69800003 0.37799999
v 0.47099998 0.61099998 0.37799999
v 0.49775002 0.66 0.34299999
v 0.49794685 0.65781265 0.34299999
v 0.49853111 0.65569565 0.34299999
v 0.49948399 0.65371696 0.34299999
v 0.50077488 0.65194023 0.34299999
v 0.50236225 0.65042259 0.34299999
v 0.5041951 0.64921272 0.34299999
v 0.50621452 0.64834953 0.34299999
v 0.50835564 0.64786087 0.34299999
v 0.51054958 0.6477623 0.34299999
v 0.51272587 0.6480571 0.34299999
v 0.51481457 0.64873581 0.34299999
v 0.5167485 0.64977646 0.34299999
v 0.5184655 0.65114578 0.34299999
v 0.51991047 0.65279961 0.34299999
v 0.52103687 0.65468491 0.34299999
v 0.52180855 0.65674103 0.34299999
v 0.5222007 0.6589019 0.34299999
v 0.5222007 0.6610981 0.34299999
v 0.52180855 0.66325897 0.34299999
v 0.52103687 0.66531509 0.34299999
v 0.51991047 0.66720039 0.34299999
v 0.5184655 0.66885422 0.34299999
v 0.5167485 0.67022354 0.34299999
v 0.51481457 0.67126419 0.34299999
v 0.51272587 0.6719429 0.34299999
v 0.51054958 0.6722377 0.34299999
v 0.50835564 0.67213913 0.34299999
v 0.50621452 0.67165047 0.34299999
v 0.5041951 0.67078728 0.34299999
v 0.50236225 0.66957741 0.34299999
v 0.50077488 0.66805977 0.34299999
v 0.49948399 0.66628304 0.34299999
v 0.49853111 0.66430435 0.34299999
v 0.49794685 0.66218735 0.34299999
v 0.54900002 0.69800003 0.34299999
v 0.54900002 0.61099998 0.34299999
v 0.47099998 0.61099998 0.34299999
v 0.47099998 0.69800003 0.34299999
v 0.54900002 0.61099998 0.37799999
v 0.54900002 0.61099998 0.34299999
v 0.54900002 0.69800003 0.34299999
v 0.54900002 0.69800003 0.37799999
f 1 2 4
f 4 2 3
f 5 6 8
f 8 6 7
f 10 78 9
f 9 78 80
f 79 44 43
f 43 44 45
f 43 45 42
f 42 45 46
f 42 46 41
f 41 46 47
f 41 47 40
f 40 47 48
f 40 48 39
f 39 48 49
f 39 49 38
f 38 49 50
f 38 50 37
f 37 50 51
f 37 51 36
f 36 51 52
f 36 52 35
f 35 52 53
f 35 53 34
f 34 53 54
f 34 54 33
f 33 54 55
f 33 55 32
f 32 55 56
f 32 56 31
f 31 56 57
f 31 57 30
f 30 57 58
f 30 58 29
f 29 58 59
f 29 59 28
f 28 59 60
f 28 60 27
f 27 60 61
f 27 61 26
f 26 61 62
f 26 62 25
f 25 62 63
f 25 63 24
f 24 63 64
f 24 64 23
f 23 64 65
f 23 65 22
f 22 65 66
f 22 66 21
f 21 66 67
f 21 67 20
f 20 67 68
f 20 68 19
f 19 68 69
f 19 69 18
f 18 69 70
f 18 70 17
f 17 70 71
f 17 71 16
f 16 71 72
f 16 72 15
f 15 72 73
f 15 73 14
f 14 73 74
f 14 74 13
f 13 74 75
f 13 75 12
f 12 75 76
f 12 76 11
f 11 76 77
f 11 77 10
f 10 77 78
f 81 82 84
f 84 82 83
f 86 122 85
f 85 122 123
f 85 123 119
f 119 123 118
f 118 123 117
f 117 123 116
f 116 123 115
f 115 123 114
f 114 123 113
f 113 123 112
f 112 123 111
f 111 123 120
f 111 120 110
f 110 120 109
f 109 120 108
f 108 120 107
f 107 120 106
f 106 120 105
f 105 120 104
f 104 120 103
f 103 120 121
f 103 121 102
f 102 121 101
f 101 121 100
f 100 121 99
f 99 121 98
f 98 121 97
f 97 121 96
f 96 121 95
f 95 121 94
f 94 121 122
f 94 122 93
f 93 122 92
f 92 122 91
f 91 122 90
f 90 122 89
f 89 122 88
f 88 122 87
f 87 122 86
f 125 161 124
f 124 161 162
f 124 162 158
f 158 162 157
f 157 162 156
f 156 162 155
f 155 162 154
f 154 162 153
f 153 162 152
f 152 162 151
f 151 162 150
f 150 162 159
f 150 159 149
f 149 159 148
f 148 159 147
f 147 159 146
f 146 159 145
f 145 159 144
f 144 159 143
f 143 159 142
f 142 159 141
f 141 159 160
f 141 160 140
f 140 160 139
f 139 160 138
f 138 160 137
f 137 160 136
f 136 160 135
f 135 160 134
f 134 160 133
f 133 160 161
f 133 161 132
f 132 161 131
f 131 161 130
f 130 161 129
f 129 161 128
f 128 161 127
f 127 161 126
f 126 161 125
f 163 164 166
f 166 164 165
