v -0.01 -0.149 0.335
v -0.01 -0.149 0.31299999
v 0.0080000001 -0.149 0.31299999
v 0.0080000001 -0.149 0.335
v 0.005 -0.134 0.335
v -0.0069999999 -0.134 0.335
v -0.0069999999 -0.134 0.316
v 0.005 -0.134 0.316
v 0.0080000001 -0.131 0.335
v 0.0080000001 -0.131 0.31299999
v -0.01 -0.131 0.31299999
v -0.01 -0.131 0.335
v -0.0069999999 -0.134 0.335
v -0.0069999999 -0.146 0.335
v -0.0069999999 -0.146 0.316
v -0.0069999999 -0.134 0.316
v 0.0080000001 -0.131 0.31299999
v 0.0080000001 -0.149 0.31299999
v -0.01 -0.149 0.31299999
v -0.01 -0.131 0.31299999
v -0.01 -0.131 0.335
v -0.01 -0.131 0.31299999
v -0.01 -0.149 0.31299999
v -0.01 -0.149 0.335
v 0.005 -0.146 0.316
v 0.005 -0.134 0.316
v -0.0069999999 -0.134 0.316
v -0.0069999999 -0.146 0.316
v 0.005 -0.146 0.335
v 0.005 -0.134 0.335
v 0.005 -0.134 0.316
v 0.005 -0.146 0.316
v -0.0069999999 -0.146 0.335
v 0.005 -0.146 0.335
v 0.005 -0.146 0.316
v -0.0069999999 -0.146 0.316
v 0.005 -0.146 0.335
v -0.0069999999 -0.146 0.335
v -0.0069999999 -0.134 0.335
v 0.005 -0.134 0.335
v 0.0080000001 -0.149 0.335
v 0.0080000001 -0.131 0.335
v -0.01 -0.131 0.335
v -0.01 -0.149 0.335
v 0.0080000001 -0.149 0.335
v 0.0080000001 -0.149 0.31299999
v 0.0080000001 -0.131 0.31299999
v 0.0080000001 -0.131 0.335
f 1 2 4
f 4 2 3
f 6 7 5
f 5 7 8
f 9 10 12
f 12 10 11
f 14 15 13
f 13 15 16
f 18 19 17
f 17 19 20
f 21 22 24
f 24 22 23
f 26 27 25
f 25 27 28
f 30 31 29
f 29 31 32
f 34 35 33
f 33 35 36
f 40 37 41
f 41 37 38
f 41 38 44
f 44 38 39
f 44 39 43
f 43 39 40
f 43 40 42
f 42 40 41
f 45 46 48
f 48 46 47
