v 0.22 0.25799999 0.33799999
v 0.214 0.25799999 0.33799999
v 0.214 0.25799999 0.044000001
v 0.22 0.25799999 0.044000001
v 0.22 0.28 0.33799999
v 0.214 0.28 0.33799999
v 0.214 0.25799999 0.33799999
v 0.22 0.25799999 0.33799999
v 0.214 0.25799999 0.33799999
v 0.214 0.28 0.33799999
v 0.214 0.28 0.044000001
v 0.214 0.25799999 0.044000001
v 0.214 0.25799999 0.044000001
v 0.214 0.28 0.044000001
v 0.22 0.28 0.044000001
v 0.22 0.25799999 0.044000001
v 0.214 0.28 0.33799999
v 0.22 0.28 0.33799999
v 0.22 0.28 0.044000001
v 0.214 0.28 0.044000001
v 0.22 0.28 0.33799999
v 0.22 0.25799999 0.33799999
v 0.22 0.25799999 0.044000001
v 0.22 0.28 0.044000001
f 1 2 4
f 4 2 3
f 5 6 8
f 8 6 7
f 9 10 12
f 12 10 11
f 14 15 13
f 13 15 16
f 17 18 20
f 20 18 19
f 21 22 24
f 24 22 23
