v 0.205 -0.145 0.6
v 0.205 -0.151062 0.59960629
v 0.205 -0.15708824 0.59883991
v 0.205 -0.16305584 0.59770374
v 0.205 -0.16894209 0.59620216
v 0.205 -0.17472467 0.59434078
v 0.205 -0.18038162 0.59212677
v 0.205 -0.18589144 0.58956844
v 0.205 -0.19123318 0.58667561
v 0.205 -0.19638659 0.58345921
v 0.205 -0.20133207 0.57993145
v 0.205 -0.20605085 0.57610573
v 0.205 -0.210525 0.57199661
v 0.205 -0.21473753 0.56761967
v 0.205 -0.21867243 0.56299156
v 0.205 -0.22231476 0.55812981
v 0.205 -0.22565069 0.55305298
v 0.205 -0.22866753 0.54778027
v 0.205 -0.23135386 0.5423317
v 0.205 -0.23369944 0.53672802
v 0.205 -0.23569536 0.53099052
v 0.205 -0.23733408 0.52514095
v 0.205 -0.23860933 0.51920151
v 0.205 -0.23951628 0.51319485
v 0.205 -0.2400515 0.50714367
v 0.205 -0.24021294 0.50107105
v 0.205 -0.24 0.495
v 0.205 -0.3 0.315
v 0.205 -0.29700001 0.315
v 0.205 -0.23700001 0.495
v 0.205 -0.23713108 0.50110279
v 0.205 -0.23687801 0.50720173
v 0.205 -0.23624178 0.51327267
v 0.205 -0.2352249 0.51929157
v 0.205 -0.23383141 0.52523457
v 0.205 -0.23206682 0.53107815
v 0.205 -0.22993813 0.53679916
v 0.205 -0.22745378 0.54237492
v 0.205 -0.22462358 0.54778336
v 0.205 -0.22145878 0.55300304
v 0.205 -0.2179719 0.55801334
v 0.205 -0.21417673 0.56279434
v 0.205 -0.21008835 0.56732712
v 0.205 -0.2057229 0.57159374
v 0.205 -0.2010977 0.57557732
v 0.205 -0.19623108 0.57926201
v 0.205 -0.19114231 0.58263329
v 0.205 -0.18585154 0.5856778
v 0.205 -0.18037971 0.58838341
v 0.205 -0.17474855 0.59073948
v 0.205 -0.16898031 0.59273666
v 0.205 -0.16309788 0.59436699
v 0.205 -0.15712452 0.59562408
v 0.205 -0.15108392 0.59650291
v 0.205 -0.145 0.59700001
v 0.205 0.14 0.59700001
v 0.205 0.14 0.6
v -0.11 -0.145 0.6
v -0.11 -0.151062 0.59960629
v -0.11 -0.15708824 0.59883991
v -0.11 -0.16305584 0.59770374
v -0.11 -0.16894209 0.59620216
v -0.11 -0.17472467 0.59434078
v -0.11 -0.18038162 0.59212677
v -0.11 -0.18589144 0.58956844
v -0.11 -0.19123318 0.58667561
v -0.11 -0.19638659 0.58345921
v -0.11 -0.20133207 0.57993145
v -0.11 -0.20605085 0.57610573
v -0.11 -0.210525 0.57199661
v -0.11 -0.21473753 0.56761967
v -0.11 -0.21867243 0.56299156
v -0.11 -0.22231476 0.55812981
v -0.11 -0.22565069 0.55305298
v -0.11 -0.22866753 0.54778027
v -0.11 -0.23135386 0.5423317
v -0.11 -0.23369944 0.53672802
v -0.11 -0.23569536 0.53099052
v -0.11 -0.23733408 0.52514095
v -0.11 -0.23860933 0.51920151
v -0.11 -0.23951628 0.51319485
v -0.11 -0.2400515 0.50714367
v -0.11 -0.24021294 0.50107105
v -0.11 -0.24 0.495
v 0.205 -0.24 0.495
v 0.205 -0.24021294 0.50107105
v 0.205 -0.2400515 0.50714367
v 0.205 -0.23951628 0.51319485
v 0.205 -0.23860933 0.51920151
v 0.205 -0.23733408 0.52514095
v 0.205 -0.23569536 0.53099052
v 0.205 -0.23369944 0.53672802
v 0.205 -0.23135386 0.5423317
v 0.205 -0.22866753 0.54778027
v 0.205 -0.22565069 0.55305298
v 0.205 -0.22231476 0.55812981
v 0.205 -0.21867243 0.56299156
v 0.205 -0.21473753 0.56761967
v 0.205 -0.210525 0.57199661
v 0.205 -0.20605085 0.57610573
v 0.205 -0.20133207 0.57993145
v 0.205 -0.19638659 0.58345921
v 0.205 -0.19123318 0.58667561
v 0.205 -0.18589144 0.58956844
v 0.205 -0.18038162 0.59212677
v 0.205 -0.17472467 0.59434078
v 0.205 -0.16894209 0.59620216
v 0.205 -0.16305584 0.59770374
v 0.205 -0.15708824 0.59883991
v 0.205 -0.151062 0.59960629
v 0.205 -0.145 0.6
v -0.11 -0.24 0.495
v -0.11 -0.3 0.315
v 0.205 -0.3 0.315
v 0.205 -0.24 0.495
v -0.11 -0.24 0.495
v -0.11 -0.24021294 0.50107105
v -0.11 -0.2400515 0.50714367
v -0.11 -0.23951628 0.51319485
v -0.11 -0.23860933 0.51920151
v -0.11 -0.23733408 0.52514095
v -0.11 -0.23569536 0.53099052
v -0.11 -0.23369944 0.53672802
v -0.11 -0.23135386 0.5423317
v -0.11 -0.22866753 0.54778027
v -0.11 -0.22565069 0.55305298
v -0.11 -0.22231476 0.55812981
v -0.11 -0.21867243 0.56299156
v -0.11 -0.21473753 0.56761967
v -0.11 -0.210525 0.57199661
v -0.11 -0.20605085 0.57610573
v -0.11 -0.20133207 0.57993145
v -0.11 -0.19638659 0.58345921
v -0.11 -0.19123318 0.58667561
v -0.11 -0.18589144 0.58956844
v -0.11 -0.18038162 0.59212677
v -0.11 -0.17472467 0.59434078
v -0.11 -0.16894209 0.59620216
v -0.11 -0.16305584 0.59770374
v -0.11 -0.15708824 0.59883991
v -0.11 -0.151062 0.59960629
v -0.11 -0.145 0.6
v -0.11 0.14 0.6
v -0.11 0.14 0.59700001
v -0.11 -0.145 0.59700001
v -0.11 -0.15108392 0.59650291
v -0.11 -0.15712452 0.59562408
v -0.11 -0.16309788 0.59436699
v -0.11 -0.16898031 0.59273666
v -0.11 -0.17474855 0.59073948
v -0.11 -0.18037971 0.58838341
v -0.11 -0.18585154 0.5856778
v -0.11 -0.19114231 0.58263329
v -0.11 -0.19623108 0.57926201
v -0.11 -0.2010977 0.57557732
v -0.11 -0.2057229 0.57159374
v -0.11 -0.21008835 0.56732712
v -0.11 -0.21417673 0.56279434
v -0.11 -0.2179719 0.55801334
v -0.11 -0.22145878 0.55300304
v -0.11 -0.22462358 0.54778336
v -0.11 -0.22745378 0.54237492
v -0.11 -0.22993813 0.53679916
v -0.11 -0.23206682 0.53107815
v -0.11 -0.23383141 0.52523457
v -0.11 -0.2352249 0.51929157
v -0.11 -0.23624178 0.51327267
v -0.11 -0.23687801 0.50720173
v -0.11 -0.23713108 0.50110279
v -0.11 -0.23700001 0.495
v -0.11 -0.29700001 0.315
v -0.11 -0.3 0.315
v -0.11 -0.3 0.315
v -0.11 -0.29700001 0.315
v 0.205 -0.29700001 0.315
v 0.205 -0.3 0.315
v -0.11 -0.29700001 0.315
v -0.11 -0.23700001 0.495
v 0.205 -0.23700001 0.495
v 0.205 -0.29700001 0.315
v -0.11 -0.23700001 0.495
v -0.11 -0.23713108 0.50110279
v -0.11 -0.23687801 0.50720173
v -0.11 -0.23624178 0.51327267
v -0.11 -0.2352249 0.51929157
v -0.11 -0.23383141 0.52523457
v -0.11 -0.23206682 0.53107815
v -0.11 -0.22993813 0.53679916
v -0.11 -0.22745378 0.54237492
v -0.11 -0.22462358 0.54778336
v -0.11 -0.22145878 0.55300304
v -0.11 -0.2179719 0.55801334
v -0.11 -0.21417673 0.56279434
v -0.11 -0.21008835 0.56732712
v -0.11 -0.2057229 0.57159374
v -0.11 -0.2010977 0.57557732
v -0.11 -0.19623108 0.57926201
v -0.11 -0.19114231 0.58263329
v -0.11 -0.18585154 0.5856778
v -0.11 -0.18037971 0.58838341
v -0.11 -0.17474855 0.59073948
v -0.11 -0.16898031 0.59273666
v -0.11 -0.16309788 0.59436699
v -0.11 -0.15712452 0.59562408
v -0.11 -0.15108392 0.59650291
v -0.11 -0.145 0.59700001
v 0.205 -0.145 0.59700001
v 0.205 -0.15108392 0.59650291
v 0.205 -0.15712452 0.59562408
v 0.205 -0.16309788 0.59436699
v 0.205 -0.16898031 0.59273666
v 0.205 -0.17474855 0.59073948
v 0.205 -0.18037971 0.58838341
v 0.205 -0.18585154 0.5856778
v 0.205 -0.19114231 0.58263329
v 0.205 -0.19623108 0.57926201
v 0.205 -0.2010977 0.57557732
v 0.205 -0.2057229 0.57159374
v 0.205 -0.21008835 0.56732712
v 0.205 -0.21417673 0.56279434
v 0.205 -0.2179719 0.55801334
v 0.205 -0.22145878 0.55300304
v 0.205 -0.22462358 0.54778336
v 0.205 -0.22745378 0.54237492
v 0.205 -0.22993813 0.53679916
v 0.205 -0.23206682 0.53107815
v 0.205 -0.23383141 0.52523457
v 0.205 -0.2352249 0.51929157
v 0.205 -0.23624178 0.51327267
v 0.205 -0.23687801 0.50720173
v 0.205 -0.23713108 0.50110279
v 0.205 -0.23700001 0.495
v -0.11 -0.145 0.59700001
v -0.11 0.14 0.59700001
v 0.205 0.14 0.59700001
v 0.205 -0.145 0.59700001
v -0.11 0.14 0.59700001
v -0.11 0.14 0.6
v 0.205 0.14 0.6
v 0.205 0.14 0.59700001
v -0.11 0.14 0.6
v -0.11 -0.145 0.6
v 0.205 -0.145 0.6
v 0.205 0.14 0.6
f 57 1 55
f 55 1 2
f 55 2 54
f 54 2 3
f 54 3 53
f 53 3 4
f 53 4 52
f 52 4 5
f 52 5 51
f 51 5 6
f 51 6 50
f 50 6 7
f 50 7 49
f 49 7 8
f 49 8 48
f 48 8 9
f 48 9 47
f 47 9 10
f 47 10 46
f 46 10 11
f 46 11 45
f 45 11 12
f 45 12 44
f 44 12 13
f 44 13 43
f 43 13 14
f 43 14 42
f 42 14 15
f 42 15 41
f 41 15 16
f 41 16 40
f 40 16 17
f 40 17 39
f 39 17 18
f 39 18 38
f 38 18 19
f 38 19 37
f 37 19 20
f 37 20 36
f 36 20 21
f 36 21 35
f 35 21 22
f 35 22 34
f 34 22 23
f 34 23 33
f 33 23 24
f 33 24 32
f 32 24 25
f 32 25 31
f 31 25 26
f 31 26 27
f 28 29 27
f 27 29 30
f 27 30 31
f 55 56 57
f 111 58 110
f 110 58 59
f 110 59 109
f 109 59 60
f 109 60 108
f 108 60 61
f 108 61 107
f 107 61 62
f 107 62 106
f 106 62 63
f 106 63 105
f 105 63 64
f 105 64 104
f 104 64 65
f 104 65 103
f 103 65 66
f 103 66 102
f 102 66 67
f 102 67 101
f 101 67 68
f 101 68 100
f 100 68 69
f 100 69 99
f 99 69 70
f 99 70 98
f 98 70 71
f 98 71 97
f 97 71 72
f 97 72 96
f 96 72 73
f 96 73 95
f 95 73 74
f 95 74 94
f 94 74 75
f 94 75 93
f 93 75 76
f 93 76 92
f 92 76 77
f 92 77 91
f 91 77 78
f 91 78 90
f 90 78 79
f 90 79 89
f 89 79 80
f 89 80 88
f 88 80 81
f 88 81 87
f 87 81 82
f 87 82 86
f 86 82 83
f 86 83 85
f 85 83 84
f 112 113 115
f 115 113 114
f 117 169 116
f 116 169 170
f 116 170 171
f 117 118 169
f 169 118 168
f 168 118 119
f 168 119 167
f 167 119 120
f 167 120 166
f 166 120 121
f 166 121 165
f 165 121 122
f 165 122 164
f 164 122 123
f 164 123 163
f 163 123 124
f 163 124 162
f 162 124 125
f 162 125 161
f 161 125 126
f 161 126 160
f 160 126 127
f 160 127 159
f 159 127 128
f 159 128 158
f 158 128 129
f 158 129 157
f 157 129 130
f 157 130 156
f 156 130 131
f 156 131 155
f 155 131 132
f 155 132 154
f 154 132 133
f 154 133 153
f 153 133 134
f 153 134 152
f 152 134 135
f 152 135 151
f 151 135 136
f 151 136 150
f 150 136 137
f 150 137 149
f 149 137 138
f 149 138 148
f 148 138 139
f 148 139 147
f 147 139 140
f 147 140 146
f 146 140 141
f 146 141 145
f 145 141 142
f 145 142 144
f 144 142 143
f 171 172 116
f 173 174 176
f 176 174 175
f 177 178 180
f 180 178 179
f 232 181 231
f 231 181 182
f 231 182 230
f 230 182 183
f 230 183 229
f 229 183 184
f 229 184 228
f 228 184 185
f 228 185 227
f 227 185 186
f 227 186 226
f 226 186 187
f 226 187 225
f 225 187 188
f 225 188 224
f 224 188 189
f 224 189 223
f 223 189 190
f 223 190 222
f 222 190 191
f 222 191 221
f 221 191 192
f 221 192 220
f 220 192 193
f 220 193 219
f 219 193 194
f 219 194 218
f 218 194 195
f 218 195 217
f 217 195 196
f 217 196 216
f 216 196 197
f 216 197 215
f 215 197 198
f 215 198 214
f 214 198 199
f 214 199 213
f 213 199 200
f 213 200 212
f 212 200 201
f 212 201 211
f 211 201 202
f 211 202 210
f 210 202 203
f 210 203 209
f 209 203 204
f 209 204 208
f 208 204 205
f 208 205 207
f 207 205 206
f 233 234 236
f 236 234 235
f 237 238 240
f 240 238 239
f 241 242 244
f 244 242 243
