v -0.036500001 0.029000001 0.1073
v -0.039000001 0.029000001 0.1073
v -0.039000001 0.029000001 0.1055
v -0.036500001 0.029000001 0.1055
v -0.036500001 0.029000001 0.1038
v -0.039000001 0.029000001 0.1038
v -0.039000001 0.029000001 0.102
v -0.036500001 0.029000001 0.102
v -0.036500001 0.029000001 0.1003
v -0.039000001 0.029000001 0.1003
v -0.039000001 0.029000001 0.098500004
v -0.036500001 0.029000001 0.098500004
v -0.036500001 0.029000001 0.096800003
v -0.039000001 0.029000001 0.096800003
v -0.039000001 0.029000001 0.095
v -0.036500001 0.029000001 0.095
v -0.036500001 0.029000001 0.093299999
v -0.039000001 0.029000001 0.093299999
v -0.039000001 0.029000001 0.091499996
v -0.036500001 0.029000001 0.091499996
v -0.036500001 0.029000001 0.089799995
v -0.039000001 0.029000001 0.089799995
v -0.039000001 0.029000001 0.088000002
v -0.036500001 0.029000001 0.088000002
v -0.036500001 0.029000001 0.086300001
v -0.039000001 0.029000001 0.086300001
v -0.039000001 0.029000001 0.084499998
v -0.036500001 0.029000001 0.084499998
v -0.036500001 0.029000001 0.082799997
v -0.039000001 0.029000001 0.082799997
v -0.039000001 0.029000001 0.081000004
v -0.036500001 0.029000001 0.081000004
v -0.036500001 0.029000001 0.079299998
v -0.039000001 0.029000001 0.079299998
v -0.039000001 0.029000001 0.0775
v -0.036500001 0.029000001 0.0775
v -0.036500001 0.029000001 0.075799999
v -0.039000001 0.029000001 0.075799999
v -0.039000001 0.029000001 0.074000001
v -0.036500001 0.029000001 0.074000001
v -0.036500001 0.029000001 0.0723
v -0.039000001 0.029000001 0.0723
v -0.039000001 0.029000001 0.070500002
v -0.036500001 0.029000001 0.070500002
v -0.036500001 0.029000001 0.068800001
v -0.039000001 0.029000001 0.068800001
v -0.039000001 0.029000001 0.066999998
v -0.036500001 0.029000001 0.066999998
v -0.036500001 0.029000001 0.065300002
v -0.039000001 0.029000001 0.065300002
v -0.039000001 0.029000001 0.063499999
v -0.036500001 0.029000001 0.063499999
v -0.036500001 0.029000001 0.061799998
v -0.039000001 0.029000001 0.061799998
v -0.039000001 0.029000001 0.06
v -0.036500001 0.029000001 0.06
v -0.036500001 0.029000001 0.058299999
v -0.039000001 0.029000001 0.058299999
v -0.039000001 0.029000001 0.056500001
v -0.036500001 0.029000001 0.056500001
v -0.036500001 0.029000001 0.0548
v -0.039000001 0.029000001 0.0548
v -0.039000001 0.029000001 0.053000002
v -0.036500001 0.029000001 0.053000002
v -0.036500001 0.029000001 0.051300001
v -0.039000001 0.029000001 0.051300001
v -0.039000001 0.029000001 0.049499998
v -0.036500001 0.029000001 0.049499998
v -0.036500001 0.029000001 0.047800002
v -0.039000001 0.029000001 0.047800002
v -0.039000001 0.029000001 0.045999999
v -0.036500001 0.029000001 0.045999999
v -0.036500001 0.029000001 0.044299998
v -0.039000001 0.029000001 0.044299998
v -0.039000001 0.029000001 0.0425
v -0.036500001 0.029000001 0.0425
v -0.036500001 0.029000001 0.040799999
v -0.039000001 0.029000001 0.040799999
v -0.039000001 0.029000001 0.039000001
v -0.036500001 0.029000001 0.039000001
v -0.036500001 0.029000001 0.0373
v -0.039000001 0.029000001 0.0373
v -0.039000001 0.029000001 0.0355
v -0.036500001 0.029000001 0.0355
v -0.036500001 0.029000001 0.033800001
v -0.039000001 0.029000001 0.033800001
v -0.039000001 0.029000001 0.032
v -0.036500001 0.029000001 0.032
v -0.036500001 0.029000001 0.0303
v -0.039000001 0.029000001 0.0303
v -0.039000001 0.029000001 0.028499999
v -0.036500001 0.029000001 0.028499999
v -0.036500001 0.029000001 0.026800001
v -0.039000001 0.029000001 0.026800001
v -0.039000001 0.029000001 0.025
v -0.036500001 0.029000001 0.025
v -0.036500001 0.029000001 0.023299999
v -0.039000001 0.029000001 0.023299999
v -0.039000001 0.029000001 0.021500001
v -0.036500001 0.029000001 0.021500001
v -0.036500001 0.029000001 0.0198
v -0.039000001 0.029000001 0.0198
v -0.039000001 0.029000001 0.018
v -0.036500001 0.029000001 0.018
v -0.036500001 0.029000001 0.0163
v -0.039000001 0.029000001 0.0163
v -0.039000001 0.029000001 0.0145
v -0.036500001 0.029000001 0.0145
v -0.036500001 0.029000001 0.0128
v -0.039000001 0.029000001 0.0128
v -0.039000001 0.029000001 0.011
v -0.036500001 0.029000001 0.011
v -0.036500001 0.029000001 0.0093000001
v -0.039000001 0.029000001 0.0093000001
v -0.039000001 0.029000001 0.0075
v -0.036500001 0.029000001 0.0075
v -0.036500001 0.029000001 0.0057999998
v -0.039000001 0.029000001 0.0057999998
v -0.039000001 0.029000001 0.0040000001
v -0.036500001 0.029000001 0.0040000001
v -0.036500001 0.029000001 0.0030000001
v -0.041999998 0.029000001 0.0030000001
v -0.041999998 0.029000001 0.11
v -0.036500001 0.029000001 0.11
v -0.036500001 0.029000001 0.1055
v -0.036500001 0 0.1055
v -0.036500001 0 0.1038
v -0.036500001 0.029000001 0.1038
v -0.036500001 0.029000001 0.102
v -0.036500001 0 0.102
v -0.036500001 0 0.1003
v -0.036500001 0.029000001 0.1003
v -0.036500001 0.029000001 0.098500004
v -0.036500001 0 0.098500004
v -0.036500001 0 0.096800003
v -0.036500001 0.029000001 0.096800003
v -0.036500001 0.029000001 0.095
v -0.036500001 0 0.095
v -0.036500001 0 0.093299999
v -0.036500001 0.029000001 0.093299999
v -0.036500001 0.029000001 0.091499996
v -0.036500001 0 0.091499996
v -0.036500001 0 0.089799995
v -0.036500001 0.029000001 0.089799995
v -0.036500001 0.029000001 0.088000002
v -0.036500001 0 0.088000002
v -0.036500001 0 0.086300001
v -0.036500001 0.029000001 0.086300001
v -0.036500001 0.029000001 0.084499998
v -0.036500001 0 0.084499998
v -0.036500001 0 0.082799997
v -0.036500001 0.029000001 0.082799997
v -0.036500001 0.029000001 0.081000004
v -0.036500001 0 0.081000004
v -0.036500001 0 0.079299998
v -0.036500001 0.029000001 0.079299998
v -0.036500001 0.029000001 0.0775
v -0.036500001 0 0.0775
v -0.036500001 0 0.075799999
v -0.036500001 0.029000001 0.075799999
v -0.036500001 0.029000001 0.074000001
v -0.036500001 0 0.074000001
v -0.036500001 0 0.0723
v -0.036500001 0.029000001 0.0723
v -0.036500001 0.029000001 0.070500002
v -0.036500001 0 0.070500002
v -0.036500001 0 0.068800001
v -0.036500001 0.029000001 0.068800001
v -0.036500001 0.029000001 0.066999998
v -0.036500001 0 0.066999998
v -0.036500001 0 0.065300002
v -0.036500001 0.029000001 0.065300002
v -0.036500001 0.029000001 0.063499999
v -0.036500001 0 0.063499999
v -0.036500001 0 0.061799998
v -0.036500001 0.029000001 0.061799998
v -0.036500001 0.029000001 0.06
v -0.036500001 0 0.06
v -0.036500001 0 0.058299999
v -0.036500001 0.029000001 0.058299999
v -0.036500001 0.029000001 0.056500001
v -0.036500001 0 0.056500001
v -0.036500001 0 0.0548
v -0.036500001 0.029000001 0.0548
v -0.036500001 0.029000001 0.053000002
v -0.036500001 0 0.053000002
v -0.036500001 0 0.051300001
v -0.036500001 0.029000001 0.051300001
v -0.036500001 0.029000001 0.049499998
v -0.036500001 0 0.049499998
v -0.036500001 0 0.047800002
v -0.036500001 0.029000001 0.047800002
v -0.039000001 0.029000001 0.1055
v -0.039000001 0 0.1055
v -0.036500001 0 0.1055
v -0.036500001 0.029000001 0.1055
v -0.039000001 0 0.1073
v -0.039000001 0.029000001 0.1073
v -0.036500001 0.029000001 0.1073
v -0.036500001 0 0.1073
v -0.036500001 0.029000001 0.045999999
v -0.036500001 0 0.045999999
v -0.036500001 0 0.044299998
v -0.036500001 0.029000001 0.044299998
v -0.039000001 0 0.1055
v -0.039000001 0.029000001 0.1055
v -0.039000001 0.029000001 0.1073
v -0.039000001 0 0.1073
v -0.039000001 0.029000001 0.102
v -0.039000001 0 0.102
v -0.036500001 0 0.102
v -0.036500001 0.029000001 0.102
v -0.036500001 0.029000001 0.0425
v -0.036500001 0 0.0425
v -0.036500001 0 0.040799999
v -0.036500001 0.029000001 0.040799999
v -0.039000001 0.029000001 0.098500004
v -0.039000001 0 0.098500004
v -0.036500001 0 0.098500004
v -0.036500001 0.029000001 0.098500004
v -0.039000001 0 0.1038
v -0.039000001 0.029000001 0.1038
v -0.036500001 0.029000001 0.1038
v -0.036500001 0 0.1038
v -0.036500001 0.029000001 0.039000001
v -0.036500001 0 0.039000001
v -0.036500001 0 0.0373
v -0.036500001 0.029000001 0.0373
v -0.039000001 0 0.1003
v -0.039000001 0.029000001 0.1003
v -0.036500001 0.029000001 0.1003
v -0.036500001 0 0.1003
v -0.036500001 0.029000001 0.0355
v -0.036500001 0 0.0355
v -0.036500001 0 0.033800001
v -0.036500001 0.029000001 0.033800001
v -0.039000001 0.029000001 0.095
v -0.039000001 0 0.095
v -0.036500001 0 0.095
v -0.036500001 0.029000001 0.095
v -0.036500001 0.029000001 0.032
v -0.036500001 0 0.032
v -0.036500001 0 0.0303
v -0.036500001 0.029000001 0.0303
v -0.039000001 0 0.102
v -0.039000001 0.029000001 0.102
v -0.039000001 0.029000001 0.1038
v -0.039000001 0 0.1038
v -0.039000001 0.029000001 0.091499996
v -0.039000001 0 0.091499996
v -0.036500001 0 0.091499996
v -0.036500001 0.029000001 0.091499996
v -0.039000001 0 0.096800003
v -0.039000001 0.029000001 0.096800003
v -0.036500001 0.029000001 0.096800003
v -0.036500001 0 0.096800003
v -0.039000001 0.029000001 0.081000004
v -0.039000001 0 0.081000004
v -0.036500001 0 0.081000004
v -0.036500001 0.029000001 0.081000004
v -0.039000001 0 0.082799997
v -0.039000001 0.029000001 0.082799997
v -0.036500001 0.029000001 0.082799997
v -0.036500001 0 0.082799997
v -0.039000001 0.029000001 0.074000001
v -0.039000001 0 0.074000001
v -0.036500001 0 0.074000001
v -0.036500001 0.029000001 0.074000001
v -0.036500001 0.029000001 0.028499999
v -0.036500001 0 0.028499999
v -0.036500001 0 0.026800001
v -0.036500001 0.029000001 0.026800001
v -0.039000001 0 0.098500004
v -0.039000001 0.029000001 0.098500004
v -0.039000001 0.029000001 0.1003
v -0.039000001 0 0.1003
v -0.039000001 0 0.079299998
v -0.039000001 0.029000001 0.079299998
v -0.036500001 0.029000001 0.079299998
v -0.036500001 0 0.079299998
v -0.036500001 0.029000001 0.025
v -0.036500001 0 0.025
v -0.036500001 0 0.023299999
v -0.036500001 0.029000001 0.023299999
v -0.039000001 0.029000001 0.066999998
v -0.039000001 0 0.066999998
v -0.036500001 0 0.066999998
v -0.036500001 0.029000001 0.066999998
v -0.036500001 0.029000001 0.021500001
v -0.036500001 0 0.021500001
v -0.036500001 0 0.0198
v -0.036500001 0.029000001 0.0198
v -0.039000001 0 0.058299999
v -0.039000001 0.029000001 0.058299999
v -0.036500001 0.029000001 0.058299999
v -0.036500001 0 0.058299999
v -0.039000001 0 0.093299999
v -0.039000001 0.029000001 0.093299999
v -0.036500001 0.029000001 0.093299999
v -0.036500001 0 0.093299999
v -0.039000001 0 0.075799999
v -0.039000001 0.029000001 0.075799999
v -0.036500001 0.029000001 0.075799999
v -0.036500001 0 0.075799999
v -0.039000001 0.029000001 0.056500001
v -0.039000001 0 0.056500001
v -0.036500001 0 0.056500001
v -0.036500001 0.029000001 0.056500001
v -0.039000001 0.029000001 0.063499999
v -0.039000001 0 0.063499999
v -0.036500001 0 0.063499999
v -0.036500001 0.029000001 0.063499999
v -0.039000001 0 0.095
v -0.039000001 0.029000001 0.095
v -0.039000001 0.029000001 0.096800003
v -0.039000001 0 0.096800003
v -0.039000001 0.029000001 0.070500002
v -0.039000001 0 0.070500002
v -0.036500001 0 0.070500002
v -0.036500001 0.029000001 0.070500002
v -0.036500001 0.029000001 0.018
v -0.036500001 0 0.018
v -0.036500001 0 0.0163
v -0.036500001 0.029000001 0.0163
v -0.039000001 0.029000001 0.088000002
v -0.039000001 0 0.088000002
v -0.036500001 0 0.088000002
v -0.036500001 0.029000001 0.088000002
v -0.039000001 0.029000001 0.084499998
v -0.039000001 0 0.084499998
v -0.036500001 0 0.084499998
v -0.036500001 0.029000001 0.084499998
v -0.036500001 0.029000001 0.0145
v -0.036500001 0 0.0145
v -0.036500001 0 0.0128
v -0.036500001 0.029000001 0.0128
v -0.039000001 0 0.070500002
v -0.039000001 0.029000001 0.070500002
v -0.039000001 0.029000001 0.0723
v -0.039000001 0 0.0723
v -0.036500001 0.029000001 0.011
v -0.036500001 0 0.011
v -0.036500001 0 0.0093000001
v -0.036500001 0.029000001 0.0093000001
v -0.039000001 0 0.074000001
v -0.039000001 0.029000001 0.074000001
v -0.039000001 0.029000001 0.075799999
v -0.039000001 0 0.075799999
v -0.039000001 0.029000001 0.045999999
v -0.039000001 0 0.045999999
v -0.036500001 0 0.045999999
v -0.036500001 0.029000001 0.045999999
v -0.039000001 0 0.086300001
v -0.039000001 0.029000001 0.086300001
v -0.036500001 0.029000001 0.086300001
v -0.036500001 0 0.086300001
v -0.039000001 0 0.089799995
v -0.039000001 0.029000001 0.089799995
v -0.036500001 0.029000001 0.089799995
v -0.036500001 0 0.089799995
v -0.039000001 0 0.065300002
v -0.039000001 0.029000001 0.065300002
v -0.036500001 0.029000001 0.065300002
v -0.036500001 0 0.065300002
v -0.036500001 0.029000001 0.0075
v -0.036500001 0 0.0075
v -0.036500001 0 0.0057999998
v -0.036500001 0.029000001 0.0057999998
v -0.039000001 0 0.061799998
v -0.039000001 0.029000001 0.061799998
v -0.036500001 0.029000001 0.061799998
v -0.036500001 0 0.061799998
v -0.039000001 0 0.068800001
v -0.039000001 0.029000001 0.068800001
v -0.036500001 0.029000001 0.068800001
v -0.036500001 0 0.068800001
v -0.039000001 0.029000001 0.028499999
v -0.039000001 0 0.028499999
v -0.036500001 0 0.028499999
v -0.036500001 0.029000001 0.028499999
v -0.039000001 0.029000001 0.0355
v -0.039000001 0 0.0355
v -0.036500001 0 0.0355
v -0.036500001 0.029000001 0.0355
v -0.039000001 0.029000001 0.0425
v -0.039000001 0 0.0425
v -0.036500001 0 0.0425
v -0.036500001 0.029000001 0.0425
v -0.039000001 0 0.0775
v -0.039000001 0.029000001 0.0775
v -0.039000001 0.029000001 0.079299998
v -0.039000001 0 0.079299998
v -0.039000001 0.029000001 0.039000001
v -0.039000001 0 0.039000001
v -0.036500001 0 0.039000001
v -0.036500001 0.029000001 0.039000001
v -0.039000001 0.029000001 0.053000002
v -0.039000001 0 0.053000002
v -0.036500001 0 0.053000002
v -0.036500001 0.029000001 0.053000002
v -0.039000001 0 0.0373
v -0.039000001 0.029000001 0.0373
v -0.036500001 0.029000001 0.0373
v -0.036500001 0 0.0373
v -0.036500001 0.029000001 0.0040000001
v -0.036500001 0 0.0040000001
v -0.036500001 0 0.0030000001
v -0.036500001 0.029000001 0.0030000001
v -0.039000001 0.029000001 0.06
v -0.039000001 0 0.06
v -0.036500001 0 0.06
v -0.036500001 0.029000001 0.06
v -0.039000001 0 0.040799999
v -0.039000001 0.029000001 0.040799999
v -0.036500001 0.029000001 0.040799999
v -0.036500001 0 0.040799999
v -0.039000001 0.029000001 0.0075
v -0.039000001 0 0.0075
v -0.036500001 0 0.0075
v -0.036500001 0.029000001 0.0075
v -0.039000001 0.029000001 0.032
v -0.039000001 0 0.032
v -0.036500001 0 0.032
v -0.036500001 0.029000001 0.032
v -0.039000001 0.029000001 0.021500001
v -0.039000001 0 0.021500001
v -0.036500001 0 0.021500001
v -0.036500001 0.029000001 0.021500001
v -0.039000001 0.029000001 0.011
v -0.039000001 0 0.011
v -0.036500001 0 0.011
v -0.036500001 0.029000001 0.011
v -0.039000001 0 0.023299999
v -0.039000001 0.029000001 0.023299999
v -0.036500001 0.029000001 0.023299999
v -0.036500001 0 0.023299999
v -0.039000001 0 0.0128
v -0.039000001 0.029000001 0.0128
v -0.036500001 0.029000001 0.0128
v -0.036500001 0 0.0128
v -0.039000001 0.029000001 0.025
v -0.039000001 0 0.025
v -0.036500001 0 0.025
v -0.036500001 0.029000001 0.025
v -0.039000001 0 0.066999998
v -0.039000001 0.029000001 0.066999998
v -0.039000001 0.029000001 0.068800001
v -0.039000001 0 0.068800001
v -0.039000001 0 0.091499996
v -0.039000001 0.029000001 0.091499996
v -0.039000001 0.029000001 0.093299999
v -0.039000001 0 0.093299999
v -0.039000001 0 0.0163
v -0.039000001 0.029000001 0.0163
v -0.036500001 0.029000001 0.0163
v -0.036500001 0 0.0163
v -0.039000001 0 0.0303
v -0.039000001 0.029000001 0.0303
v -0.036500001 0.029000001 0.0303
v -0.036500001 0 0.0303
v -0.039000001 0 0.0548
v -0.039000001 0.029000001 0.0548
v -0.036500001 0.029000001 0.0548
v -0.036500001 0 0.0548
v -0.039000001 0 0.088000002
v -0.039000001 0.029000001 0.088000002
v -0.039000001 0.029000001 0.089799995
v -0.039000001 0 0.089799995
v -0.039000001 0 0.051300001
v -0.039000001 0.029000001 0.051300001
v -0.036500001 0.029000001 0.051300001
v -0.036500001 0 0.051300001
v -0.039000001 0 0.021500001
v -0.039000001 0.029000001 0.021500001
v -0.039000001 0.029000001 0.023299999
v -0.039000001 0 0.023299999
v -0.039000001 0 0.049499998
v -0.039000001 0.029000001 0.049499998
v -0.039000001 0.029000001 0.051300001
v -0.039000001 0 0.051300001
v -0.039000001 0 0.044299998
v -0.039000001 0.029000001 0.044299998
v -0.036500001 0.029000001 0.044299998
v -0.036500001 0 0.044299998
v -0.039000001 0 0.084499998
v -0.039000001 0.029000001 0.084499998
v -0.039000001 0.029000001 0.086300001
v -0.039000001 0 0.086300001
v -0.039000001 0 0.063499999
v -0.039000001 0.029000001 0.063499999
v -0.039000001 0.029000001 0.065300002
v -0.039000001 0 0.065300002
v -0.039000001 0 0.0355
v -0.039000001 0.029000001 0.0355
v -0.039000001 0.029000001 0.0373
v -0.039000001 0 0.0373
v -0.039000001 0 0.053000002
v -0.039000001 0.029000001 0.053000002
v -0.039000001 0.029000001 0.0548
v -0.039000001 0 0.0548
v -0.039000001 0 0.0198
v -0.039000001 0.029000001 0.0198
v -0.036500001 0.029000001 0.0198
v -0.036500001 0 0.0198
v -0.039000001 0 0.0093000001
v -0.039000001 0.029000001 0.0093000001
v -0.036500001 0.029000001 0.0093000001
v -0.036500001 0 0.0093000001
v -0.039000001 0 0.039000001
v -0.039000001 0.029000001 0.039000001
v -0.039000001 0.029000001 0.040799999
v -0.039000001 0 0.040799999
v -0.039000001 0 0.033800001
v -0.039000001 0.029000001 0.033800001
v -0.036500001 0.029000001 0.033800001
v -0.036500001 0 0.033800001
v -0.039000001 0.029000001 0.0145
v -0.039000001 0 0.0145
v -0.036500001 0 0.0145
v -0.036500001 0.029000001 0.0145
v -0.039000001 0 0.0145
v -0.039000001 0.029000001 0.0145
v -0.039000001 0.029000001 0.0163
v -0.039000001 0 0.0163
v -0.039000001 0 0.0723
v -0.039000001 0.029000001 0.0723
v -0.036500001 0.029000001 0.0723
v -0.036500001 0 0.0723
v -0.039000001 0.029000001 0.0775
v -0.039000001 0 0.0775
v -0.036500001 0 0.0775
v -0.036500001 0.029000001 0.0775
v -0.039000001 0.029000001 0.018
v -0.039000001 0 0.018
v -0.036500001 0 0.018
v -0.036500001 0.029000001 0.018
v -0.039000001 0 0.018
v -0.039000001 0.029000001 0.018
v -0.039000001 0.029000001 0.0198
v -0.039000001 0 0.0198
v -0.039000001 0 0.056500001
v -0.039000001 0.029000001 0.056500001
v -0.039000001 0.029000001 0.058299999
v -0.039000001 0 0.058299999
v -0.039000001 0 0.0075
v -0.039000001 0.029000001 0.0075
v -0.039000001 0.029000001 0.0093000001
v -0.039000001 0 0.0093000001
v -0.039000001 0 0.0425
v -0.039000001 0.029000001 0.0425
v -0.039000001 0.029000001 0.044299998
v -0.039000001 0 0.044299998
v -0.039000001 0 0.026800001
v -0.039000001 0.029000001 0.026800001
v -0.036500001 0.029000001 0.026800001
v -0.036500001 0 0.026800001
v -0.039000001 0 0.032
v -0.039000001 0.029000001 0.032
v -0.039000001 0.029000001 0.033800001
v -0.039000001 0 0.033800001
v -0.039000001 0 0.011
v -0.039000001 0.029000001 0.011
v -0.039000001 0.029000001 0.0128
v -0.039000001 0 0.0128
v -0.039000001 0 0.06
v -0.039000001 0.029000001 0.06
v -0.039000001 0.029000001 0.061799998
v -0.039000001 0 0.061799998
v -0.039000001 0 0.081000004
v -0.039000001 0.029000001 0.081000004
v -0.039000001 0.029000001 0.082799997
v -0.039000001 0 0.082799997
v -0.039000001 0 0.045999999
v -0.039000001 0.029000001 0.045999999
v -0.039000001 0.029000001 0.047800002
v -0.039000001 0 0.047800002
v -0.039000001 0.029000001 0.0040000001
v -0.039000001 0 0.0040000001
v -0.036500001 0 0.0040000001
v -0.036500001 0.029000001 0.0040000001
v -0.039000001 0.029000001 0.049499998
v -0.039000001 0 0.049499998
v -0.036500001 0 0.049499998
v -0.036500001 0.029000001 0.049499998
v -0.039000001 0 0.028499999
v -0.039000001 0.029000001 0.028499999
v -0.039000001 0.029000001 0.0303
v -0.039000001 0 0.0303
v -0.039000001 0 0.025
v -0.039000001 0.029000001 0.025
v -0.039000001 0.029000001 0.026800001
v -0.039000001 0 0.026800001
v -0.039000001 0 0.0057999998
v -0.039000001 0.029000001 0.0057999998
v -0.036500001 0.029000001 0.0057999998
v -0.036500001 0 0.0057999998
v -0.039000001 0 0.0040000001
v -0.039000001 0.029000001 0.0040000001
v -0.039000001 0.029000001 0.0057999998
v -0.039000001 0 0.0057999998
v -0.039000001 0 0.047800002
v -0.039000001 0.029000001 0.047800002
v -0.036500001 0.029000001 0.047800002
v -0.036500001 0 0.047800002
v -0.041999998 0 0.0030000001
v -0.041999998 0.029000001 0.0030000001
v -0.036500001 0.029000001 0.0030000001
v -0.036500001 0 0.0030000001
v -0.041999998 0.029000001 0.11
v -0.041999998 0 0.11
v -0.036500001 0 0.11
v -0.036500001 0.029000001 0.11
v -0.041999998 0.029000001 0.0030000001
v -0.041999998 0 0.0030000001
v -0.041999998 0 0.11
v -0.041999998 0.029000001 0.11
v -0.039000001 0 0.1073
v -0.036500001 0 0.1073
v -0.036500001 0 0.11
v -0.041999998 0 0.11
v -0.041999998 0 0.0030000001
v -0.036500001 0 0.0030000001
v -0.036500001 0 0.0040000001
v -0.039000001 0 0.0040000001
v -0.039000001 0 0.0057999998
v -0.036500001 0 0.0057999998
v -0.036500001 0 0.0075
v -0.039000001 0 0.0075
v -0.039000001 0 0.0093000001
v -0.036500001 0 0.0093000001
v -0.036500001 0 0.011
v -0.039000001 0 0.011
v -0.039000001 0 0.0128
v -0.036500001 0 0.0128
v -0.036500001 0 0.0145
v -0.039000001 0 0.0145
v -0.039000001 0 0.0163
v -0.036500001 0 0.0163
v -0.036500001 0 0.018
v -0.039000001 0 0.018
v -0.039000001 0 0.0198
v -0.036500001 0 0.0198
v -0.036500001 0 0.021500001
v -0.039000001 0 0.021500001
v -0.039000001 0 0.023299999
v -0.036500001 0 0.023299999
v -0.036500001 0 0.025
v -0.039000001 0 0.025
v -0.039000001 0 0.026800001
v -0.036500001 0 0.026800001
v -0.036500001 0 0.028499999
v -0.039000001 0 0.028499999
v -0.039000001 0 0.0303
v -0.036500001 0 0.0303
v -0.036500001 0 0.032
v -0.039000001 0 0.032
v -0.039000001 0 0.033800001
v -0.036500001 0 0.033800001
v -0.036500001 0 0.0355
v -0.039000001 0 0.0355
v -0.039000001 0 0.0373
v -0.036500001 0 0.0373
v -0.036500001 0 0.039000001
v -0.039000001 0 0.039000001
v -0.039000001 0 0.040799999
v -0.036500001 0 0.040799999
v -0.036500001 0 0.0425
v -0.039000001 0 0.0425
v -0.039000001 0 0.044299998
v -0.036500001 0 0.044299998
v -0.036500001 0 0.045999999
v -0.039000001 0 0.045999999
v -0.039000001 0 0.047800002
v -0.036500001 0 0.047800002
v -0.036500001 0 0.049499998
v -0.039000001 0 0.049499998
v -0.039000001 0 0.051300001
v -0.036500001 0 0.051300001
v -0.036500001 0 0.053000002
v -0.039000001 0 0.053000002
v -0.039000001 0 0.0548
v -0.036500001 0 0.0548
v -0.036500001 0 0.056500001
v -0.039000001 0 0.056500001
v -0.039000001 0 0.058299999
v -0.036500001 0 0.058299999
v -0.036500001 0 0.06
v -0.039000001 0 0.06
v -0.039000001 0 0.061799998
v -0.036500001 0 0.061799998
v -0.036500001 0 0.063499999
v -0.039000001 0 0.063499999
v -0.039000001 0 0.065300002
v -0.036500001 0 0.065300002
v -0.036500001 0 0.066999998
v -0.039000001 0 0.066999998
v -0.039000001 0 0.068800001
v -0.036500001 0 0.068800001
v -0.036500001 0 0.070500002
v -0.039000001 0 0.070500002
v -0.039000001 0 0.0723
v -0.036500001 0 0.0723
v -0.036500001 0 0.074000001
v -0.039000001 0 0.074000001
v -0.039000001 0 0.075799999
v -0.036500001 0 0.075799999
v -0.036500001 0 0.0775
v -0.039000001 0 0.0775
v -0.039000001 0 0.079299998
v -0.036500001 0 0.079299998
v -0.036500001 0 0.081000004
v -0.039000001 0 0.081000004
v -0.039000001 0 0.082799997
v -0.036500001 0 0.082799997
v -0.036500001 0 0.084499998
v -0.039000001 0 0.084499998
v -0.039000001 0 0.086300001
v -0.036500001 0 0.086300001
v -0.036500001 0 0.088000002
v -0.039000001 0 0.088000002
v -0.039000001 0 0.089799995
v -0.036500001 0 0.089799995
v -0.036500001 0 0.091499996
v -0.039000001 0 0.091499996
v -0.039000001 0 0.093299999
v -0.036500001 0 0.093299999
v -0.036500001 0 0.095
v -0.039000001 0 0.095
v -0.039000001 0 0.096800003
v -0.036500001 0 0.096800003
v -0.036500001 0 0.098500004
v -0.039000001 0 0.098500004
v -0.039000001 0 0.1003
v -0.036500001 0 0.1003
v -0.036500001 0 0.102
v -0.039000001 0 0.102
v -0.039000001 0 0.1038
v -0.036500001 0 0.1038
v -0.036500001 0 0.1055
v -0.039000001 0 0.1055
v -0.036500001 0 0.1073
v -0.036500001 0.029000001 0.1073
v -0.036500001 0.029000001 0.11
v -0.036500001 0 0.11
f 1 2 124
f 124 2 123
f 123 2 3
f 123 3 6
f 6 3 4
f 6 4 5
f 6 7 123
f 123 7 10
f 123 10 11
f 7 8 10
f 10 8 9
f 123 11 14
f 14 11 12
f 14 12 13
f 14 15 123
f 123 15 18
f 123 18 19
f 15 16 18
f 18 16 17
f 123 19 22
f 22 19 20
f 22 20 21
f 22 23 123
f 123 23 26
f 123 26 27
f 23 24 26
f 26 24 25
f 123 27 30
f 30 27 28
f 30 28 29
f 30 31 123
f 123 31 34
f 123 34 35
f 31 32 34
f 34 32 33
f 123 35 38
f 38 35 36
f 38 36 37
f 38 39 123
f 123 39 42
f 123 42 43
f 39 40 42
f 42 40 41
f 123 43 46
f 46 43 44
f 46 44 45
f 46 47 123
f 123 47 50
f 123 50 51
f 47 48 50
f 50 48 49
f 123 51 54
f 54 51 52
f 54 52 53
f 54 55 123
f 123 55 58
f 123 58 59
f 55 56 58
f 58 56 57
f 60 62 59
f 59 62 122
f 59 122 123
f 60 61 62
f 62 63 122
f 122 63 66
f 122 66 67
f 63 64 66
f 66 64 65
f 122 67 70
f 70 67 68
f 70 68 69
f 70 71 122
f 122 71 74
f 122 74 75
f 71 72 74
f 74 72 73
f 122 75 78
f 78 75 76
f 78 76 77
f 78 79 122
f 122 79 82
f 122 82 83
f 79 80 82
f 82 80 81
f 122 83 86
f 86 83 84
f 86 84 85
f 86 87 122
f 122 87 90
f 122 90 91
f 87 88 90
f 90 88 89
f 122 91 94
f 94 91 92
f 94 92 93
f 94 95 122
f 122 95 98
f 122 98 99
f 95 96 98
f 98 96 97
f 122 99 102
f 102 99 100
f 102 100 101
f 102 103 122
f 122 103 106
f 122 106 107
f 103 104 106
f 106 104 105
f 122 107 110
f 110 107 108
f 110 108 109
f 110 111 122
f 122 111 114
f 122 114 115
f 111 112 114
f 114 112 113
f 122 115 118
f 118 115 116
f 118 116 117
f 118 119 122
f 122 119 121
f 121 119 120
f 125 126 128
f 128 126 127
f 129 130 132
f 132 130 131
f 133 134 136
f 136 134 135
f 137 138 140
f 140 138 139
f 141 142 144
f 144 142 143
f 145 146 148
f 148 146 147
f 149 150 152
f 152 150 151
f 153 154 156
f 156 154 155
f 157 158 160
f 160 158 159
f 161 162 164
f 164 162 163
f 165 166 168
f 168 166 167
f 169 170 172
f 172 170 171
f 173 174 176
f 176 174 175
f 177 178 180
f 180 178 179
f 181 182 184
f 184 182 183
f 185 186 188
f 188 186 187
f 189 190 192
f 192 190 191
f 194 195 193
f 193 195 196
f 198 199 197
f 197 199 200
f 201 202 204
f 204 202 203
f 205 206 208
f 208 206 207
f 210 211 209
f 209 211 212
f 213 214 216
f 216 214 215
f 218 219 217
f 217 219 220
f 222 223 221
f 221 223 224
f 225 226 228
f 228 226 227
f 230 231 229
f 229 231 232
f 233 234 236
f 236 234 235
f 238 239 237
f 237 239 240
f 241 242 244
f 244 242 243
f 245 246 248
f 248 246 247
f 250 251 249
f 249 251 252
f 254 255 253
f 253 255 256
f 258 259 257
f 257 259 260
f 262 263 261
f 261 263 264
f 266 267 265
f 265 267 268
f 269 270 272
f 272 270 271
f 273 274 276
f 276 274 275
f 278 279 277
f 277 279 280
f 281 282 284
f 284 282 283
f 286 287 285
f 285 287 288
f 289 290 292
f 292 290 291
f 294 295 293
f 293 295 296
f 298 299 297
f 297 299 300
f 302 303 301
f 301 303 304
f 306 307 305
f 305 307 308
f 310 311 309
f 309 311 312
f 313 314 316
f 316 314 315
f 318 319 317
f 317 319 320
f 321 322 324
f 324 322 323
f 326 327 325
f 325 327 328
f 330 331 329
f 329 331 332
f 333 334 336
f 336 334 335
f 337 338 340
f 340 338 339
f 341 342 344
f 344 342 343
f 345 346 348
f 348 346 347
f 350 351 349
f 349 351 352
f 354 355 353
f 353 355 356
f 358 359 357
f 357 359 360
f 362 363 361
f 361 363 364
f 365 366 368
f 368 366 367
f 370 371 369
f 369 371 372
f 374 375 373
f 373 375 376
f 378 379 377
f 377 379 380
f 382 383 381
f 381 383 384
f 386 387 385
f 385 387 388
f 389 390 392
f 392 390 391
f 394 395 393
f 393 395 396
f 398 399 397
f 397 399 400
f 402 403 401
f 401 403 404
f 405 406 408
f 408 406 407
f 410 411 409
f 409 411 412
f 414 415 413
f 413 415 416
f 418 419 417
f 417 419 420
f 422 423 421
f 421 423 424
f 426 427 425
f 425 427 428
f 430 431 429
f 429 431 432
f 434 435 433
f 433 435 436
f 438 439 437
f 437 439 440
f 442 443 441
f 441 443 444
f 445 446 448
f 448 446 447
f 449 450 452
f 452 450 451
f 454 455 453
f 453 455 456
f 458 459 457
f 457 459 460
f 462 463 461
f 461 463 464
f 465 466 468
f 468 466 467
f 470 471 469
f 469 471 472
f 473 474 476
f 476 474 475
f 477 478 480
f 480 478 479
f 482 483 481
f 481 483 484
f 485 486 488
f 488 486 487
f 489 490 492
f 492 490 491
f 493 494 496
f 496 494 495
f 497 498 500
f 500 498 499
f 502 503 501
f 501 503 504
f 506 507 505
f 505 507 508
f 509 510 512
f 512 510 511
f 514 515 513
f 513 515 516
f 518 519 517
f 517 519 520
f 521 522 524
f 524 522 523
f 526 527 525
f 525 527 528
f 530 531 529
f 529 531 532
f 534 535 533
f 533 535 536
f 537 538 540
f 540 538 539
f 541 542 544
f 544 542 543
f 545 546 548
f 548 546 547
f 549 550 552
f 552 550 551
f 554 555 553
f 553 555 556
f 557 558 560
f 560 558 559
f 561 562 564
f 564 562 563
f 565 566 568
f 568 566 567
f 569 570 572
f 572 570 571
f 573 574 576
f 576 574 575
f 578 579 577
f 577 579 580
f 582 583 581
f 581 583 584
f 585 586 588
f 588 586 587
f 589 590 592
f 592 590 591
f 594 595 593
f 593 595 596
f 597 598 600
f 600 598 599
f 602 603 601
f 601 603 604
f 606 607 605
f 605 607 608
f 610 611 609
f 609 611 612
f 613 614 616
f 616 614 615
f 618 619 617
f 617 619 620
f 617 620 740
f 740 620 737
f 740 737 738
f 621 684 620
f 620 684 685
f 620 685 688
f 688 685 686
f 688 686 687
f 622 624 621
f 621 624 625
f 621 625 628
f 628 625 626
f 628 626 627
f 622 623 624
f 628 629 621
f 621 629 632
f 621 632 633
f 629 630 632
f 632 630 631
f 621 633 636
f 636 633 634
f 636 634 635
f 636 637 621
f 621 637 640
f 621 640 641
f 637 638 640
f 640 638 639
f 621 641 644
f 644 641 642
f 644 642 643
f 644 645 621
f 621 645 648
f 621 648 649
f 645 646 648
f 648 646 647
f 621 649 652
f 652 649 650
f 652 650 651
f 652 653 621
f 621 653 656
f 621 656 657
f 653 654 656
f 656 654 655
f 621 657 660
f 660 657 658
f 660 658 659
f 660 661 621
f 621 661 664
f 621 664 665
f 661 662 664
f 664 662 663
f 621 665 668
f 668 665 666
f 668 666 667
f 668 669 621
f 621 669 672
f 621 672 673
f 669 670 672
f 672 670 671
f 621 673 676
f 676 673 674
f 676 674 675
f 676 677 621
f 621 677 680
f 621 680 681
f 677 678 680
f 680 678 679
f 621 681 684
f 684 681 682
f 684 682 683
f 688 689 620
f 620 689 692
f 620 692 693
f 689 690 692
f 692 690 691
f 620 693 696
f 696 693 694
f 696 694 695
f 696 697 620
f 620 697 700
f 620 700 701
f 697 698 700
f 700 698 699
f 620 701 704
f 704 701 702
f 704 702 703
f 704 705 620
f 620 705 708
f 620 708 709
f 705 706 708
f 708 706 707
f 620 709 712
f 712 709 710
f 712 710 711
f 712 713 620
f 620 713 716
f 620 716 717
f 713 714 716
f 716 714 715
f 620 717 720
f 720 717 718
f 720 718 719
f 720 721 620
f 620 721 724
f 620 724 725
f 721 722 724
f 724 722 723
f 620 725 728
f 728 725 726
f 728 726 727
f 728 729 620
f 620 729 732
f 620 732 733
f 729 730 732
f 732 730 731
f 620 733 736
f 736 733 734
f 736 734 735
f 736 737 620
f 738 739 740
f 741 742 744
f 744 742 743
