v 0.0095899997 -0.0023950039 0.044021046
v 0.0095899997 0.0023049987 0.044021046
v 0.0095899997 0.0023049987 0.076298206
v 0.0095899997 -0.0023950039 0.076298206
v -0.0075099995 -0.0010450016 0.091813605
v -0.0075099995 0.00095499646 0.091813605
v -0.0075099995 0.00095499646 0.076298206
v -0.0075099995 -0.0010450016 0.076298206
v 0.0074899993 0.0023049987 0.020298205
v 0.0074899993 -0.0023950039 0.020298205
v -0.0075099995 -0.0023950039 0.020298205
v -0.0075099995 0.0023049987 0.020298205
v -0.0082599999 0.0023049987 0.040798204
v -0.0082599999 -0.0023950039 0.040798204
v -0.0096099998 -0.0023950039 0.040798204
v -0.0096099998 0.0023049987 0.040798204
v -0.0096099998 0.0023049987 0.042575364
v -0.0096099998 -0.0023950039 0.042575364
v -0.010423195 -0.0023950039 0.042866359
v -0.010423195 -0.0023950039 0.043730051
v -0.0096099998 -0.0023950039 0.044021046
v -0.0096099998 0.0023049987 0.044021046
v -0.010423195 0.0023049987 0.043730051
v -0.010423195 0.0023049987 0.042866359
v 0.0045000015 -0.0010450016 0.10230821
v 0.010200001 -0.0010450016 0.10230821
v 0.010200001 0.00095499646 0.10230821
v 0.0045000015 0.00095499646 0.10230821
v 0.0074899993 0.0023049987 0.067298205
v 0.0074899993 -0.0023950039 0.067298205
v 0.0074899993 -0.0023950039 0.020298205
v 0.0074899993 0.0023049987 0.020298205
v -0.0099999996 -0.0010450016 0.1128082
v 0.010000001 -0.0010450016 0.1128082
v 0.010000001 0.00095499646 0.1128082
v -0.0099999996 0.00095499646 0.1128082
v 0.0074899993 -0.0010450016 0.076298206
v -0.0075099995 -0.0010450016 0.076298206
v -0.0075099995 0.00095499646 0.076298206
v 0.0074899993 0.00095499646 0.076298206
v -0.0096099998 -0.0023950039 0.076298206
v 0.0095899997 -0.0023950039 0.076298206
v 0.0095899997 0.0023049987 0.076298206
v -0.0096099998 0.0023049987 0.076298206
v 0.0082399998 -0.0023950039 0.067298205
v 0.0082399998 0.0023049987 0.067298205
v 0.0082399998 0.0023049987 0.040798204
v 0.0082399998 -0.0023950039 0.040798204
v 0.0045000015 -0.0010450016 0.10980821
v 0.0045000015 -0.0010450016 0.10230821
v 0.0045000015 0.00095499646 0.10230821
v 0.0045000015 0.00095499646 0.10980821
v -0.010409892 0.00095499646 0.091813605
v -0.010409892 -0.0010450016 0.091813605
v -0.0102 -0.0010450016 0.10230821
v -0.0102 0.00095499646 0.10230821
v -0.0075099995 0.00095499646 0.091813605
v -0.0075099995 -0.0010450016 0.091813605
v -0.010409892 -0.0010450016 0.091813605
v -0.010409892 0.00095499646 0.091813605
v 0.010409893 -0.0010450016 0.091813605
v 0.010409893 0.00095499646 0.091813605
v 0.010200001 0.00095499646 0.10230821
v 0.010200001 -0.0010450016 0.10230821
v 0.0095899997 -0.0023950039 0.042575364
v 0.0095899997 0.0023049987 0.042575364
v 0.010403195 0.0023049987 0.042866359
v 0.010403195 0.0023049987 0.043730051
v 0.0095899997 0.0023049987 0.044021046
v 0.0095899997 -0.0023950039 0.044021046
v 0.010403195 -0.0023950039 0.043730051
v 0.010403195 -0.0023950039 0.042866359
v 0.010000001 -0.0010450016 0.10980821
v 0.0045000015 -0.0010450016 0.10980821
v 0.0045000015 0.00095499646 0.10980821
v 0.010000001 0.00095499646 0.10980821
v -0.0082599999 0.0023049987 0.067298205
v -0.0082599999 -0.0023950039 0.067298205
v -0.0082599999 -0.0023950039 0.040798204
v -0.0082599999 0.0023049987 0.040798204
v 0.0074899993 0.00095499646 0.091813605
v 0.0074899993 0.00095499646 0.076298206
v -0.0075099995 0.00095499646 0.076298206
v -0.0075099995 0.00095499646 0.091813605
v -0.010409892 0.00095499646 0.091813605
v -0.0102 0.00095499646 0.10230821
v -0.0044999995 0.00095499646 0.10230821
v -0.0044999995 0.00095499646 0.10980821
v -0.0099999996 0.00095499646 0.10980821
v -0.0099999996 0.00095499646 0.1128082
v 0.010000001 0.00095499646 0.1128082
v 0.010000001 0.00095499646 0.10980821
v 0.0045000015 0.00095499646 0.10980821
v 0.0045000015 0.00095499646 0.10230821
v 0.010200001 0.00095499646 0.10230821
v 0.010409893 0.00095499646 0.091813605
v 0.0074899993 -0.0023950039 0.067298205
v 0.0074899993 0.0023049987 0.067298205
v 0.0082399998 0.0023049987 0.067298205
v 0.0082399998 -0.0023950039 0.067298205
v 0.0074899993 -0.0010450016 0.091813605
v 0.0074899993 0.00095499646 0.091813605
v 0.010409893 0.00095499646 0.091813605
v 0.010409893 -0.0010450016 0.091813605
v 0.0095899997 -0.0023950039 0.076298206
v -0.0096099998 -0.0023950039 0.076298206
v -0.0096099998 -0.0023950039 0.044021046
v -0.010423195 -0.0023950039 0.043730051
v -0.010423195 -0.0023950039 0.042866359
v -0.0096099998 -0.0023950039 0.042575364
v -0.0096099998 -0.0023950039 0.040798204
v -0.0082599999 -0.0023950039 0.040798204
v -0.0082599999 -0.0023950039 0.067298205
v -0.0075099995 -0.0023950039 0.067298205
v -0.0075099995 -0.0023950039 0.020298205
v 0.0074899993 -0.0023950039 0.020298205
v 0.0074899993 -0.0023950039 0.067298205
v 0.0082399998 -0.0023950039 0.067298205
v 0.0082399998 -0.0023950039 0.040798204
v 0.0095899997 -0.0023950039 0.040798204
v 0.0095899997 -0.0023950039 0.042575364
v 0.010403195 -0.0023950039 0.042866359
v 0.010403195 -0.0023950039 0.043730051
v 0.0095899997 -0.0023950039 0.044021046
v -0.0096099998 -0.0023950039 0.042575364
v -0.0096099998 0.0023049987 0.042575364
v -0.0096099998 0.0023049987 0.040798204
v -0.0096099998 -0.0023950039 0.040798204
v -0.0044999995 -0.0010450016 0.10980821
v -0.0099999996 -0.0010450016 0.10980821
v -0.0099999996 0.00095499646 0.10980821
v -0.0044999995 0.00095499646 0.10980821
v 0.0095899997 0.0023049987 0.042575364
v 0.0095899997 -0.0023950039 0.042575364
v 0.0095899997 -0.0023950039 0.040798204
v 0.0095899997 0.0023049987 0.040798204
v -0.0082599999 -0.0023950039 0.067298205
v -0.0082599999 0.0023049987 0.067298205
v -0.0075099995 0.0023049987 0.067298205
v -0.0075099995 -0.0023950039 0.067298205
v -0.0096099998 0.0023049987 0.044021046
v -0.0096099998 -0.0023950039 0.044021046
v -0.0096099998 -0.0023950039 0.076298206
v -0.0096099998 0.0023049987 0.076298206
v 0.010000001 -0.0010450016 0.1128082
v 0.010000001 -0.0010450016 0.10980821
v 0.010000001 0.00095499646 0.10980821
v 0.010000001 0.00095499646 0.1128082
v -0.0044999995 -0.0010450016 0.10230821
v -0.0044999995 -0.0010450016 0.10980821
v -0.0044999995 0.00095499646 0.10980821
v -0.0044999995 0.00095499646 0.10230821
v -0.0075099995 -0.0023950039 0.067298205
v -0.0075099995 0.0023049987 0.067298205
v -0.0075099995 0.0023049987 0.020298205
v -0.0075099995 -0.0023950039 0.020298205
v -0.0102 -0.0010450016 0.10230821
v -0.0044999995 -0.0010450016 0.10230821
v -0.0044999995 0.00095499646 0.10230821
v -0.0102 0.00095499646 0.10230821
v 0.0074899993 -0.0010450016 0.091813605
v 0.010409893 -0.0010450016 0.091813605
v 0.010200001 -0.0010450016 0.10230821
v 0.0045000015 -0.0010450016 0.10230821
v 0.0045000015 -0.0010450016 0.10980821
v 0.010000001 -0.0010450016 0.10980821
v 0.010000001 -0.0010450016 0.1128082
v -0.0099999996 -0.0010450016 0.1128082
v -0.0099999996 -0.0010450016 0.10980821
v -0.0044999995 -0.0010450016 0.10980821
v -0.0044999995 -0.0010450016 0.10230821
v -0.0102 -0.0010450016 0.10230821
v -0.010409892 -0.0010450016 0.091813605
v -0.0075099995 -0.0010450016 0.091813605
v -0.0075099995 -0.0010450016 0.076298206
v 0.0074899993 -0.0010450016 0.076298206
v -0.0099999996 -0.0010450016 0.10980821
v -0.0099999996 -0.0010450016 0.1128082
v -0.0099999996 0.00095499646 0.1128082
v -0.0099999996 0.00095499646 0.10980821
v 0.0074899993 0.00095499646 0.091813605
v 0.0074899993 -0.0010450016 0.091813605
v 0.0074899993 -0.0010450016 0.076298206
v 0.0074899993 0.00095499646 0.076298206
v 0.0095899997 0.0023049987 0.040798204
v 0.0095899997 -0.0023950039 0.040798204
v 0.0082399998 -0.0023950039 0.040798204
v 0.0082399998 0.0023049987 0.040798204
v -0.0096099998 0.0023049987 0.076298206
v 0.0095899997 0.0023049987 0.076298206
v 0.0095899997 0.0023049987 0.044021046
v 0.010403195 0.0023049987 0.043730051
v 0.010403195 0.0023049987 0.042866359
v 0.0095899997 0.0023049987 0.042575364
v 0.0095899997 0.0023049987 0.040798204
v 0.0082399998 0.0023049987 0.040798204
v 0.0082399998 0.0023049987 0.067298205
v 0.0074899993 0.0023049987 0.067298205
v 0.0074899993 0.0023049987 0.020298205
v -0.0075099995 0.0023049987 0.020298205
v -0.0075099995 0.0023049987 0.067298205
v -0.0082599999 0.0023049987 0.067298205
v -0.0082599999 0.0023049987 0.040798204
v -0.0096099998 0.0023049987 0.040798204
v -0.0096099998 0.0023049987 0.042575364
v -0.010423195 0.0023049987 0.042866359
v -0.010423195 0.0023049987 0.043730051
v -0.0096099998 0.0023049987 0.044021046
f 2 3 1
f 1 3 4
f 6 7 5
f 5 7 8
f 10 11 9
f 9 11 12
f 14 15 13
f 13 15 16
f 17 18 24
f 24 18 19
f 24 19 23
f 23 19 20
f 23 20 22
f 22 20 21
f 26 27 25
f 25 27 28
f 30 31 29
f 29 31 32
f 34 35 33
f 33 35 36
f 40 37 42
f 42 37 38
f 42 38 41
f 41 38 39
f 41 39 44
f 44 39 40
f 44 40 43
f 43 40 42
f 46 47 45
f 45 47 48
f 49 50 52
f 52 50 51
f 54 55 53
f 53 55 56
f 57 58 60
f 60 58 59
f 62 63 61
f 61 63 64
f 65 66 72
f 72 66 67
f 72 67 71
f 71 67 68
f 71 68 70
f 70 68 69
f 74 75 73
f 73 75 76
f 78 79 77
f 77 79 80
f 82 83 81
f 81 83 84
f 81 84 87
f 87 84 86
f 86 84 85
f 81 87 94
f 94 87 88
f 94 88 93
f 93 88 90
f 93 90 91
f 88 89 90
f 91 92 93
f 94 95 81
f 81 95 96
f 98 99 97
f 97 99 100
f 101 102 104
f 104 102 103
f 106 117 105
f 105 117 118
f 105 118 124
f 124 118 119
f 124 119 121
f 121 119 120
f 107 113 106
f 106 113 114
f 106 114 117
f 117 114 115
f 117 115 116
f 108 109 107
f 107 109 110
f 107 110 112
f 112 110 111
f 112 113 107
f 122 123 121
f 121 123 124
f 126 127 125
f 125 127 128
f 130 131 129
f 129 131 132
f 134 135 133
f 133 135 136
f 138 139 137
f 137 139 140
f 142 143 141
f 141 143 144
f 145 146 148
f 148 146 147
f 149 150 152
f 152 150 151
f 154 155 153
f 153 155 156
f 158 159 157
f 157 159 160
f 162 163 161
f 161 163 164
f 161 164 171
f 171 164 165
f 171 165 170
f 170 165 168
f 170 168 169
f 166 167 165
f 165 167 168
f 161 171 174
f 174 171 172
f 174 172 173
f 174 175 161
f 161 175 176
f 177 178 180
f 180 178 179
f 182 183 181
f 181 183 184
f 186 187 185
f 185 187 188
f 190 198 189
f 189 198 201
f 189 201 202
f 198 190 197
f 197 190 191
f 197 191 196
f 196 191 194
f 196 194 195
f 192 193 191
f 191 193 194
f 198 199 201
f 201 199 200
f 189 202 208
f 208 202 203
f 208 203 205
f 205 203 204
f 206 207 205
f 205 207 208
