v -0.01 0.040114899 0.085310001
v -0.01 0.040114899 0.030309999
v -0.01 0.0400949 0.030309999
v -0.01 0.0400949 0.085310001
v -0.01 0.0400949 0.085310001
v -0.01 0.0400949 0.030309999
v 0.01 0.0400949 0.030309999
v 0.01 0.0400949 0.085310001
v 0.01 0.040114899 0.085310001
v 0.01 0.040114899 0.030309999
v -0.01 0.040114899 0.030309999
v -0.01 0.040114899 0.085310001
v 0.01 0.040114899 0.030309999
v 0.01 0.0400949 0.030309999
v -0.01 0.0400949 0.030309999
v -0.01 0.040114899 0.030309999
v 0.01 0.0400949 0.085310001
v 0.01 0.040114899 0.085310001
v -0.01 0.040114899 0.085310001
v -0.01 0.0400949 0.085310001
v 0.01 0.0400949 0.085310001
v 0.01 0.0400949 0.030309999
v 0.01 0.040114899 0.030309999
v 0.01 0.040114899 0.085310001
f 1 2 4
f 4 2 3
f 5 6 8
f 8 6 7
f 9 10 12
f 12 10 11
f 14 15 13
f 13 15 16
f 18 19 17
f 17 19 20
f 21 22 24
f 24 22 23
