v 0.094728518 -0.29870001 0.22094885
v 0.095457029 -0.29870001 0.22113403
v 0.095457029 -0.29882 0.22113403
v 0.094728518 -0.29882 0.22094885
v 0.095457029 -0.29870001 0.22113403
v 0.095756311 -0.29870001 0.22136297
v 0.095978851 -0.29870001 0.2216794
v 0.095978851 -0.29882 0.2216794
v 0.095756311 -0.29882 0.22136297
v 0.095457029 -0.29882 0.22113403
v 0.093971348 -0.29870001 0.22115347
v 0.094327421 -0.29870001 0.221
v 0.094728518 -0.29870001 0.22094885
v 0.094728518 -0.29882 0.22094885
v 0.094327421 -0.29882 0.221
v 0.093971348 -0.29882 0.22115347
v 0.095978851 -0.29870001 0.2216794
v 0.096116982 -0.29870001 0.2220636
v 0.096163025 -0.29870001 0.2224959
v 0.096163025 -0.29882 0.2224959
v 0.096116982 -0.29882 0.2220636
v 0.095978851 -0.29882 0.2216794
v 0.093465891 -0.29870001 0.22171215
v 0.093678207 -0.29870001 0.22139545
v 0.093971348 -0.29870001 0.22115347
v 0.093971348 -0.29882 0.22115347
v 0.093678207 -0.29882 0.22139545
v 0.093465891 -0.29882 0.22171215
v 0.096163025 -0.29870001 0.2224959
v 0.095988064 -0.29870001 0.22330116
v 0.095988064 -0.29882 0.22330116
v 0.096163025 -0.29882 0.2224959
v 0.093294001 -0.29870001 0.22246111
v 0.093465891 -0.29870001 0.22171215
v 0.093465891 -0.29882 0.22171215
v 0.093294001 -0.29882 0.22246111
v 0.095988064 -0.29870001 0.22330116
v 0.095773449 -0.29870001 0.22361708
v 0.095479536 -0.29870001 0.22385471
v 0.095479536 -0.29882 0.22385471
v 0.095773449 -0.29882 0.22361708
v 0.095988064 -0.29882 0.22330116
v 0.095479536 -0.29870001 0.22385471
v 0.095125513 -0.29870001 0.22400358
v 0.094730558 -0.29870001 0.22405321
v 0.094730558 -0.29882 0.22405321
v 0.095125513 -0.29882 0.22400358
v 0.095479536 -0.29882 0.22385471
v 0.094730558 -0.29870001 0.22405321
v 0.094154501 -0.29870001 0.22394756
v 0.093695087 -0.29870001 0.22363062
v 0.093695087 -0.29882 0.22363062
v 0.094154501 -0.29882 0.22394756
v 0.094730558 -0.29882 0.22405321
v 0.09370327 -0.29870001 0.22245499
v 0.093779249 -0.29870001 0.22303539
v 0.094007158 -0.29870001 0.2234219
v 0.094007158 -0.29882 0.2234219
v 0.093779249 -0.29882 0.22303539
v 0.09370327 -0.29882 0.22245499
v 0.093695087 -0.29870001 0.22363062
v 0.09339427 -0.29870001 0.22312696
v 0.093294001 -0.29870001 0.22246111
v 0.093294001 -0.29882 0.22246111
v 0.09339427 -0.29882 0.22312696
v 0.093695087 -0.29882 0.22363062
v 0.095753756 -0.29870001 0.22249796
v 0.095681362 -0.29870001 0.22198483
v 0.095464191 -0.29870001 0.22160368
v 0.095464191 -0.29882 0.22160368
v 0.095681362 -0.29882 0.22198483
v 0.095753756 -0.29882 0.22249796
v 0.095464191 -0.29870001 0.22160368
v 0.095134974 -0.29870001 0.22136732
v 0.094726467 -0.29870001 0.22128855
v 0.094726467 -0.29882 0.22128855
v 0.095134974 -0.29882 0.22136732
v 0.095464191 -0.29882 0.22160368
v 0.094726467 -0.29870001 0.22128855
v 0.094323587 -0.29870001 0.22136656
v 0.093994884 -0.29870001 0.22160061
v 0.093994884 -0.29882 0.22160061
v 0.094323587 -0.29882 0.22136656
v 0.094726467 -0.29882 0.22128855
v 0.094007158 -0.29870001 0.2234219
v 0.094340467 -0.29870001 0.22363907
v 0.094732609 -0.29870001 0.22371145
v 0.094732609 -0.29882 0.22371145
v 0.094340467 -0.29882 0.22363907
v 0.094007158 -0.29882 0.2234219
v 0.093294001 -0.29882 0.22246111
v 0.093465891 -0.29882 0.22171215
v 0.093678207 -0.29882 0.22139545
v 0.093971348 -0.29882 0.22115347
v 0.094327421 -0.29882 0.221
v 0.094728518 -0.29882 0.22094885
v 0.095457029 -0.29882 0.22113403
v 0.095756311 -0.29882 0.22136297
v 0.095978851 -0.29882 0.2216794
v 0.096116982 -0.29882 0.2220636
v 0.096163025 -0.29882 0.2224959
v 0.095988064 -0.29882 0.22330116
v 0.095773449 -0.29882 0.22361708
v 0.095479536 -0.29882 0.22385471
v 0.095125513 -0.29882 0.22400358
v 0.094730558 -0.29882 0.22405321
v 0.094154501 -0.29882 0.22394756
v 0.093695087 -0.29882 0.22363062
v 0.09339427 -0.29882 0.22312696
v 0.09370327 -0.29882 0.22245499
v 0.093779249 -0.29882 0.22303539
v 0.094007158 -0.29882 0.2234219
v 0.094340467 -0.29882 0.22363907
v 0.094732609 -0.29882 0.22371145
v 0.095267735 -0.29882 0.22356106
v 0.09562995 -0.29882 0.22313745
v 0.095753756 -0.29882 0.22249796
v 0.095681362 -0.29882 0.22198483
v 0.095464191 -0.29882 0.22160368
v 0.095134974 -0.29882 0.22136732
v 0.094726467 -0.29882 0.22128855
v 0.094323587 -0.29882 0.22136656
v 0.093994884 -0.29882 0.22160061
v 0.093776178 -0.29882 0.22197023
v 0.093994884 -0.29870001 0.22160061
v 0.093776178 -0.29870001 0.22197023
v 0.09370327 -0.29870001 0.22245499
v 0.09370327 -0.29882 0.22245499
v 0.093776178 -0.29882 0.22197023
v 0.093994884 -0.29882 0.22160061
v 0.094732609 -0.29870001 0.22371145
v 0.095267735 -0.29870001 0.22356106
v 0.095267735 -0.29882 0.22356106
v 0.094732609 -0.29882 0.22371145
v 0.09562995 -0.29870001 0.22313745
v 0.095753756 -0.29870001 0.22249796
v 0.095753756 -0.29882 0.22249796
v 0.09562995 -0.29882 0.22313745
v 0.093465891 -0.29870001 0.22171215
v 0.093294001 -0.29870001 0.22246111
v 0.09339427 -0.29870001 0.22312696
v 0.093695087 -0.29870001 0.22363062
v 0.094154501 -0.29870001 0.22394756
v 0.094730558 -0.29870001 0.22405321
v 0.095125513 -0.29870001 0.22400358
v 0.095479536 -0.29870001 0.22385471
v 0.095773449 -0.29870001 0.22361708
v 0.095988064 -0.29870001 0.22330116
v 0.096163025 -0.29870001 0.2224959
v 0.096116982 -0.29870001 0.2220636
v 0.095978851 -0.29870001 0.2216794
v 0.095756311 -0.29870001 0.22136297
v 0.095457029 -0.29870001 0.22113403
v 0.094728518 -0.29870001 0.22094885
v 0.094327421 -0.29870001 0.221
v 0.093971348 -0.29870001 0.22115347
v 0.093678207 -0.29870001 0.22139545
v 0.094007158 -0.29870001 0.2234219
v 0.093779249 -0.29870001 0.22303539
v 0.09370327 -0.29870001 0.22245499
v 0.093776178 -0.29870001 0.22197023
v 0.093994884 -0.29870001 0.22160061
v 0.094323587 -0.29870001 0.22136656
v 0.094726467 -0.29870001 0.22128855
v 0.095134974 -0.29870001 0.22136732
v 0.095464191 -0.29870001 0.22160368
v 0.095681362 -0.29870001 0.22198483
v 0.095753756 -0.29870001 0.22249796
v 0.09562995 -0.29870001 0.22313745
v 0.095267735 -0.29870001 0.22356106
v 0.094732609 -0.29870001 0.22371145
v 0.094340467 -0.29870001 0.22363907
v 0.095267735 -0.29870001 0.22356106
v 0.09562995 -0.29870001 0.22313745
v 0.09562995 -0.29882 0.22313745
v 0.095267735 -0.29882 0.22356106
f 1 2 4
f 4 2 3
f 5 6 10
f 10 6 9
f 9 6 7
f 9 7 8
f 11 12 16
f 16 12 15
f 15 12 13
f 15 13 14
f 17 18 22
f 22 18 21
f 21 18 19
f 21 19 20
f 23 24 28
f 28 24 27
f 27 24 25
f 27 25 26
f 29 30 32
f 32 30 31
f 33 34 36
f 36 34 35
f 37 38 42
f 42 38 41
f 41 38 39
f 41 39 40
f 43 44 48
f 48 44 47
f 47 44 45
f 47 45 46
f 49 50 54
f 54 50 53
f 53 50 51
f 53 51 52
f 55 56 60
f 60 56 59
f 59 56 57
f 59 57 58
f 61 62 66
f 66 62 65
f 65 62 63
f 65 63 64
f 67 68 72
f 72 68 71
f 71 68 69
f 71 69 70
f 73 74 78
f 78 74 77
f 77 74 75
f 77 75 76
f 79 80 84
f 84 80 83
f 83 80 81
f 83 81 82
f 85 86 90
f 90 86 89
f 89 86 87
f 89 87 88
f 92 124 91
f 91 124 110
f 91 110 109
f 109 110 111
f 109 111 108
f 108 111 112
f 108 112 107
f 107 112 113
f 107 113 106
f 106 113 114
f 106 114 105
f 105 114 115
f 105 115 104
f 104 115 103
f 103 115 116
f 103 116 102
f 102 116 101
f 101 116 117
f 101 117 100
f 100 117 118
f 100 118 99
f 99 118 119
f 99 119 98
f 98 119 97
f 97 119 120
f 97 120 96
f 96 120 121
f 96 121 95
f 95 121 122
f 95 122 94
f 94 122 123
f 94 123 93
f 93 123 124
f 93 124 92
f 125 126 130
f 130 126 129
f 129 126 127
f 129 127 128
f 131 132 134
f 134 132 133
f 135 136 138
f 138 136 137
f 157 139 161
f 161 139 140
f 161 140 160
f 160 140 141
f 160 141 159
f 159 141 142
f 159 142 158
f 158 142 143
f 158 143 172
f 172 143 144
f 172 144 171
f 171 144 145
f 171 145 170
f 170 145 146
f 170 146 147
f 170 147 169
f 169 147 148
f 169 148 149
f 169 149 168
f 168 149 150
f 168 150 167
f 167 150 151
f 167 151 166
f 166 151 152
f 166 152 153
f 166 153 165
f 165 153 154
f 165 154 164
f 164 154 155
f 164 155 163
f 163 155 156
f 163 156 162
f 162 156 157
f 162 157 161
f 173 174 176
f 176 174 175
