v 0.058186903 -0.29870001 0.19770123
v 0.058490534 -0.29870001 0.19766491
v 0.058709755 -0.29870001 0.19755594
v 0.058709755 -0.29882 0.19755594
v 0.058490534 -0.29882 0.19766491
v 0.058186903 -0.29882 0.19770123
v 0.058709755 -0.29870001 0.19755594
v 0.058850188 -0.29870001 0.19737585
v 0.05891746 -0.29870001 0.1971262
v 0.05891746 -0.29882 0.1971262
v 0.058850188 -0.29882 0.19737585
v 0.058709755 -0.29882 0.19755594
v 0.057662005 -0.29870001 0.19756924
v 0.057875595 -0.29870001 0.19766823
v 0.058186903 -0.29870001 0.19770123
v 0.058186903 -0.29882 0.19770123
v 0.057875595 -0.29882 0.19766823
v 0.057662005 -0.29882 0.19756924
v 0.05891746 -0.29870001 0.1971262
v 0.059298091 -0.29870001 0.19715485
v 0.059298091 -0.29882 0.19715485
v 0.05891746 -0.29882 0.1971262
v 0.057497272 -0.29870001 0.19725101
v 0.057662005 -0.29870001 0.19756924
v 0.057662005 -0.29882 0.19756924
v 0.057497272 -0.29882 0.19725101
v 0.059298091 -0.29870001 0.19715485
v 0.059150748 -0.29870001 0.19762756
v 0.059150748 -0.29882 0.19762756
v 0.059298091 -0.29882 0.19715485
v 0.057613916 -0.29870001 0.196985
v 0.057497272 -0.29870001 0.19725101
v 0.057497272 -0.29882 0.19725101
v 0.057613916 -0.29882 0.196985
v 0.059150748 -0.29870001 0.19762756
v 0.058758869 -0.29870001 0.19794373
v 0.058758869 -0.29882 0.19794373
v 0.059150748 -0.29882 0.19762756
v 0.058212485 -0.29870001 0.19677114
v 0.057820854 -0.29870001 0.19687935
v 0.057613916 -0.29870001 0.196985
v 0.057613916 -0.29882 0.196985
v 0.057820854 -0.29882 0.19687935
v 0.058212485 -0.29882 0.19677114
v 0.058758869 -0.29870001 0.19794373
v 0.058170533 -0.29870001 0.19805117
v 0.058170533 -0.29882 0.19805117
v 0.058758869 -0.29882 0.19794373
v 0.058876534 -0.29870001 0.1965798
v 0.058620481 -0.29870001 0.19666857
v 0.058212485 -0.29870001 0.19677114
v 0.058212485 -0.29882 0.19677114
v 0.058620481 -0.29882 0.19666857
v 0.058876534 -0.29882 0.1965798
v 0.058170533 -0.29870001 0.19805117
v 0.057620053 -0.29870001 0.19794884
v 0.057620053 -0.29882 0.19794884
v 0.058170533 -0.29882 0.19805117
v 0.059263301 -0.29870001 0.19627388
v 0.058876534 -0.29870001 0.1965798
v 0.058876534 -0.29882 0.1965798
v 0.059263301 -0.29882 0.19627388
v 0.057620053 -0.29870001 0.19794884
v 0.057243519 -0.29870001 0.19764904
v 0.057243519 -0.29882 0.19764904
v 0.057620053 -0.29882 0.19794884
v 0.059388132 -0.29870001 0.19584721
v 0.059263301 -0.29870001 0.19627388
v 0.059263301 -0.29882 0.19627388
v 0.059388132 -0.29882 0.19584721
v 0.057243519 -0.29870001 0.19764904
v 0.057114596 -0.29870001 0.19722443
v 0.057114596 -0.29882 0.19722443
v 0.057243519 -0.29882 0.19764904
v 0.059251022 -0.29870001 0.19539597
v 0.059388132 -0.29870001 0.19584721
v 0.059388132 -0.29882 0.19584721
v 0.059251022 -0.29882 0.19539597
v 0.057114596 -0.29870001 0.19722443
v 0.057219987 -0.29870001 0.19685095
v 0.057219987 -0.29882 0.19685095
v 0.057114596 -0.29882 0.19722443
v 0.058857093 -0.29870001 0.19506651
v 0.059251022 -0.29870001 0.19539597
v 0.059251022 -0.29882 0.19539597
v 0.058857093 -0.29882 0.19506651
v 0.057219987 -0.29870001 0.19685095
v 0.057540245 -0.29870001 0.19657162
v 0.057540245 -0.29882 0.19657162
v 0.057219987 -0.29882 0.19685095
v 0.05827899 -0.29870001 0.19494884
v 0.058857093 -0.29870001 0.19506651
v 0.058857093 -0.29882 0.19506651
v 0.05827899 -0.29882 0.19494884
v 0.057540245 -0.29870001 0.19657162
v 0.057767906 -0.29870001 0.19648081
v 0.058119373 -0.29870001 0.19638437
v 0.058119373 -0.29882 0.19638437
v 0.057767906 -0.29882 0.19648081
v 0.057540245 -0.29882 0.19657162
v 0.057596521 -0.29870001 0.19506754
v 0.05827899 -0.29870001 0.19494884
v 0.05827899 -0.29882 0.19494884
v 0.057596521 -0.29882 0.19506754
v 0.058119373 -0.29870001 0.19638437
v 0.058459582 -0.29870001 0.19629818
v 0.058653479 -0.29870001 0.19623806
v 0.058653479 -0.29882 0.19623806
v 0.058459582 -0.29882 0.19629818
v 0.058119373 -0.29882 0.19638437
v 0.057164736 -0.29870001 0.19542463
v 0.057596521 -0.29870001 0.19506754
v 0.057596521 -0.29882 0.19506754
v 0.057164736 -0.29882 0.19542463
v 0.058653479 -0.29870001 0.19623806
v 0.058923602 -0.29870001 0.19606106
v 0.058923602 -0.29882 0.19606106
v 0.058653479 -0.29882 0.19623806
v 0.056999998 -0.29882 0.19596384
v 0.057164736 -0.29882 0.19542463
v 0.057596521 -0.29882 0.19506754
v 0.05827899 -0.29882 0.19494884
v 0.058857093 -0.29882 0.19506651
v 0.059251022 -0.29882 0.19539597
v 0.059388132 -0.29882 0.19584721
v 0.059263301 -0.29882 0.19627388
v 0.058876534 -0.29882 0.1965798
v 0.058620481 -0.29882 0.19666857
v 0.058212485 -0.29882 0.19677114
v 0.057820854 -0.29882 0.19687935
v 0.057613916 -0.29882 0.196985
v 0.057497272 -0.29882 0.19725101
v 0.057662005 -0.29882 0.19756924
v 0.057875595 -0.29882 0.19766823
v 0.058186903 -0.29882 0.19770123
v 0.058490534 -0.29882 0.19766491
v 0.058709755 -0.29882 0.19755594
v 0.058850188 -0.29882 0.19737585
v 0.05891746 -0.29882 0.1971262
v 0.059298091 -0.29882 0.19715485
v 0.059150748 -0.29882 0.19762756
v 0.058758869 -0.29882 0.19794373
v 0.058170533 -0.29882 0.19805117
v 0.057620053 -0.29882 0.19794884
v 0.057243519 -0.29882 0.19764904
v 0.057114596 -0.29882 0.19722443
v 0.057219987 -0.29882 0.19685095
v 0.057540245 -0.29882 0.19657162
v 0.057767906 -0.29882 0.19648081
v 0.058119373 -0.29882 0.19638437
v 0.058459582 -0.29882 0.19629818
v 0.058653479 -0.29882 0.19623806
v 0.058923602 -0.29882 0.19606106
v 0.059005456 -0.29882 0.19581446
v 0.058920531 -0.29882 0.19555763
v 0.058661666 -0.29882 0.19537245
v 0.058260574 -0.29882 0.19530491
v 0.057800136 -0.29882 0.19539392
v 0.057498293 -0.29882 0.19562721
v 0.057374487 -0.29882 0.19599659
v 0.058923602 -0.29870001 0.19606106
v 0.059005456 -0.29870001 0.19581446
v 0.059005456 -0.29882 0.19581446
v 0.058923602 -0.29882 0.19606106
v 0.056999998 -0.29870001 0.19596384
v 0.057164736 -0.29870001 0.19542463
v 0.057164736 -0.29882 0.19542463
v 0.056999998 -0.29882 0.19596384
v 0.059005456 -0.29870001 0.19581446
v 0.058920531 -0.29870001 0.19555763
v 0.058920531 -0.29882 0.19555763
v 0.059005456 -0.29882 0.19581446
v 0.057164736 -0.29870001 0.19542463
v 0.056999998 -0.29870001 0.19596384
v 0.057374487 -0.29870001 0.19599659
v 0.057498293 -0.29870001 0.19562721
v 0.057800136 -0.29870001 0.19539392
v 0.058260574 -0.29870001 0.19530491
v 0.058661666 -0.29870001 0.19537245
v 0.058920531 -0.29870001 0.19555763
v 0.059005456 -0.29870001 0.19581446
v 0.058923602 -0.29870001 0.19606106
v 0.058653479 -0.29870001 0.19623806
v 0.058459582 -0.29870001 0.19629818
v 0.058119373 -0.29870001 0.19638437
v 0.057767906 -0.29870001 0.19648081
v 0.057540245 -0.29870001 0.19657162
v 0.057219987 -0.29870001 0.19685095
v 0.057114596 -0.29870001 0.19722443
v 0.057243519 -0.29870001 0.19764904
v 0.057620053 -0.29870001 0.19794884
v 0.058170533 -0.29870001 0.19805117
v 0.058758869 -0.29870001 0.19794373
v 0.059150748 -0.29870001 0.19762756
v 0.059298091 -0.29870001 0.19715485
v 0.05891746 -0.29870001 0.1971262
v 0.058850188 -0.29870001 0.19737585
v 0.058709755 -0.29870001 0.19755594
v 0.058490534 -0.29870001 0.19766491
v 0.058186903 -0.29870001 0.19770123
v 0.057875595 -0.29870001 0.19766823
v 0.057662005 -0.29870001 0.19756924
v 0.057497272 -0.29870001 0.19725101
v 0.057613916 -0.29870001 0.196985
v 0.057820854 -0.29870001 0.19687935
v 0.058212485 -0.29870001 0.19677114
v 0.058620481 -0.29870001 0.19666857
v 0.058876534 -0.29870001 0.1965798
v 0.059263301 -0.29870001 0.19627388
v 0.059388132 -0.29870001 0.19584721
v 0.059251022 -0.29870001 0.19539597
v 0.058857093 -0.29870001 0.19506651
v 0.05827899 -0.29870001 0.19494884
v 0.057596521 -0.29870001 0.19506754
v 0.058920531 -0.29870001 0.19555763
v 0.058661666 -0.29870001 0.19537245
v 0.058661666 -0.29882 0.19537245
v 0.058920531 -0.29882 0.19555763
v 0.058661666 -0.29870001 0.19537245
v 0.058260574 -0.29870001 0.19530491
v 0.058260574 -0.29882 0.19530491
v 0.058661666 -0.29882 0.19537245
v 0.058260574 -0.29870001 0.19530491
v 0.057800136 -0.29870001 0.19539392
v 0.057800136 -0.29882 0.19539392
v 0.058260574 -0.29882 0.19530491
v 0.057800136 -0.29870001 0.19539392
v 0.057498293 -0.29870001 0.19562721
v 0.057498293 -0.29882 0.19562721
v 0.057800136 -0.29882 0.19539392
v 0.057498293 -0.29870001 0.19562721
v 0.057374487 -0.29870001 0.19599659
v 0.057374487 -0.29882 0.19599659
v 0.057498293 -0.29882 0.19562721
v 0.057374487 -0.29870001 0.19599659
v 0.056999998 -0.29870001 0.19596384
v 0.056999998 -0.29882 0.19596384
v 0.057374487 -0.29882 0.19599659
f 1 2 6
f 6 2 5
f 5 2 3
f 5 3 4
f 7 8 12
f 12 8 11
f 11 8 9
f 11 9 10
f 13 14 18
f 18 14 17
f 17 14 15
f 17 15 16
f 19 20 22
f 22 20 21
f 23 24 26
f 26 24 25
f 27 28 30
f 30 28 29
f 31 32 34
f 34 32 33
f 35 36 38
f 38 36 37
f 39 40 44
f 44 40 43
f 43 40 41
f 43 41 42
f 45 46 48
f 48 46 47
f 49 50 54
f 54 50 53
f 53 50 51
f 53 51 52
f 55 56 58
f 58 56 57
f 59 60 62
f 62 60 61
f 63 64 66
f 66 64 65
f 67 68 70
f 70 68 69
f 71 72 74
f 74 72 73
f 75 76 78
f 78 76 77
f 79 80 82
f 82 80 81
f 83 84 86
f 86 84 85
f 87 88 90
f 90 88 89
f 91 92 94
f 94 92 93
f 95 96 100
f 100 96 99
f 99 96 97
f 99 97 98
f 101 102 104
f 104 102 103
f 105 106 110
f 110 106 109
f 109 106 107
f 109 107 108
f 111 112 114
f 114 112 113
f 115 116 118
f 118 116 117
f 119 120 160
f 160 120 159
f 159 120 121
f 159 121 158
f 158 121 122
f 158 122 157
f 157 122 156
f 156 122 123
f 156 123 155
f 155 123 124
f 155 124 154
f 154 124 125
f 154 125 126
f 154 126 153
f 153 126 127
f 153 127 152
f 152 127 128
f 152 128 151
f 151 128 129
f 151 129 150
f 150 129 130
f 150 130 149
f 149 130 148
f 148 130 131
f 148 131 147
f 147 131 132
f 147 132 146
f 146 132 145
f 145 132 133
f 145 133 144
f 144 133 134
f 144 134 143
f 143 134 135
f 143 135 136
f 143 136 142
f 142 136 137
f 142 137 141
f 141 137 138
f 141 138 139
f 139 140 141
f 161 162 164
f 164 162 163
f 165 166 168
f 168 166 167
f 169 170 172
f 172 170 171
f 174 175 173
f 173 175 176
f 173 176 214
f 214 176 177
f 214 177 213
f 213 177 178
f 213 178 179
f 213 179 212
f 212 179 180
f 212 180 211
f 211 180 181
f 211 181 210
f 210 181 209
f 209 181 182
f 209 182 208
f 208 182 183
f 208 183 207
f 207 183 184
f 207 184 206
f 206 184 185
f 206 185 205
f 205 185 186
f 205 186 187
f 205 187 204
f 204 187 188
f 204 188 203
f 203 188 189
f 203 189 190
f 203 190 202
f 202 190 191
f 202 191 201
f 201 191 192
f 201 192 200
f 200 192 199
f 199 192 193
f 199 193 198
f 198 193 194
f 198 194 197
f 197 194 196
f 196 194 195
f 215 216 218
f 218 216 217
f 219 220 222
f 222 220 221
f 223 224 226
f 226 224 225
f 227 228 230
f 230 228 229
f 231 232 234
f 234 232 233
f 235 236 238
f 238 236 237
