v 0.040106411 -0.2966 0.11139427
v 0.040453959 -0.2966 0.11156003
v 0.040877218 -0.2966 0.11161528
v 0.040877218 -0.29672001 0.11161528
v 0.040453959 -0.29672001 0.11156003
v 0.040106411 -0.29672001 0.11139427
v 0.039671214 -0.2966 0.11080082
v 0.03984277 -0.2966 0.11113541
v 0.040106411 -0.2966 0.11139427
v 0.040106411 -0.29672001 0.11139427
v 0.03984277 -0.29672001 0.11113541
v 0.039671214 -0.29672001 0.11080082
v 0.040877218 -0.2966 0.11161528
v 0.041244202 -0.2966 0.11156549
v 0.041542974 -0.2966 0.1114161
v 0.041542974 -0.29672001 0.1114161
v 0.041244202 -0.29672001 0.11156549
v 0.040877218 -0.29672001 0.11161528
v 0.039545703 -0.2966 0.11003274
v 0.039671214 -0.2966 0.11080082
v 0.039671214 -0.29672001 0.11080082
v 0.039545703 -0.29672001 0.11003274
v 0.041542974 -0.2966 0.1114161
v 0.041776261 -0.2966 0.11115757
v 0.041946793 -0.2966 0.11078035
v 0.041946793 -0.29672001 0.11078035
v 0.041776261 -0.29672001 0.11115757
v 0.041542974 -0.29672001 0.1114161
v 0.039694407 -0.2966 0.10914188
v 0.039545703 -0.2966 0.11003274
v 0.039545703 -0.29672001 0.11003274
v 0.039694407 -0.29672001 0.10914188
v 0.041946793 -0.2966 0.11078035
v 0.042467942 -0.2966 0.11090314
v 0.042467942 -0.29672001 0.11090314
v 0.041946793 -0.29672001 0.11078035
v 0.040156889 -0.2966 0.10857299
v 0.039884379 -0.2966 0.10880935
v 0.039694407 -0.2966 0.10914188
v 0.039694407 -0.29672001 0.10914188
v 0.039884379 -0.29672001 0.10880935
v 0.040156889 -0.29672001 0.10857299
v 0.042467942 -0.2966 0.11090314
v 0.042244883 -0.2966 0.11139495
v 0.041897683 -0.2966 0.11176262
v 0.041897683 -0.29672001 0.11176262
v 0.042244883 -0.29672001 0.11139495
v 0.042467942 -0.29672001 0.11090314
v 0.040836291 -0.2966 0.10838472
v 0.040156889 -0.2966 0.10857299
v 0.040156889 -0.29672001 0.10857299
v 0.040836291 -0.29672001 0.10838472
v 0.041897683 -0.2966 0.11176262
v 0.041440654 -0.2966 0.11199182
v 0.040888133 -0.2966 0.11206821
v 0.040888133 -0.29672001 0.11206821
v 0.041440654 -0.29672001 0.11199182
v 0.041897683 -0.29672001 0.11176262
v 0.04158936 -0.2966 0.1086412
v 0.041246929 -0.2966 0.10844884
v 0.040836291 -0.2966 0.10838472
v 0.040836291 -0.29672001 0.10838472
v 0.041246929 -0.29672001 0.10844884
v 0.04158936 -0.29672001 0.1086412
v 0.040888133 -0.2966 0.11206821
v 0.040380969 -0.2966 0.11200785
v 0.039918144 -0.2966 0.11182674
v 0.039918144 -0.29672001 0.11182674
v 0.040380969 -0.29672001 0.11200785
v 0.040888133 -0.29672001 0.11206821
v 0.042006822 -0.29672001 0.10940246
v 0.041847887 -0.29672001 0.10895975
v 0.04158936 -0.29672001 0.1086412
v 0.041246929 -0.29672001 0.10844884
v 0.040836291 -0.29672001 0.10838472
v 0.040156889 -0.29672001 0.10857299
v 0.039884379 -0.29672001 0.10880935
v 0.039694407 -0.29672001 0.10914188
v 0.039545703 -0.29672001 0.11003274
v 0.039671214 -0.29672001 0.11080082
v 0.03984277 -0.29672001 0.11113541
v 0.040106411 -0.29672001 0.11139427
v 0.040453959 -0.29672001 0.11156003
v 0.040877218 -0.29672001 0.11161528
v 0.041244202 -0.29672001 0.11156549
v 0.041542974 -0.29672001 0.1114161
v 0.041776261 -0.29672001 0.11115757
v 0.041946793 -0.29672001 0.11078035
v 0.042467942 -0.29672001 0.11090314
v 0.042244883 -0.29672001 0.11139495
v 0.041897683 -0.29672001 0.11176262
v 0.041440654 -0.29672001 0.11199182
v 0.040888133 -0.29672001 0.11206821
v 0.040380969 -0.29672001 0.11200785
v 0.039918144 -0.29672001 0.11182674
v 0.039527967 -0.29672001 0.11152933
v 0.039238744 -0.29672001 0.11112005
v 0.039059687 -0.29672001 0.11061494
v 0.039000001 -0.29672001 0.11003001
v 0.039052866 -0.29672001 0.10947544
v 0.039211459 -0.29672001 0.10895771
v 0.03947135 -0.29672001 0.1085174
v 0.039828103 -0.29672001 0.10819509
v 0.040293655 -0.29672001 0.10799761
v 0.040879946 -0.29672001 0.10793179
v 0.041456685 -0.29672001 0.1080174
v 0.041937246 -0.29672001 0.10827421
v 0.042303205 -0.29672001 0.10869407
v 0.042536154 -0.29672001 0.10926876
v 0.039918144 -0.2966 0.11182674
v 0.039527967 -0.2966 0.11152933
v 0.039238744 -0.2966 0.11112005
v 0.039238744 -0.29672001 0.11112005
v 0.039527967 -0.29672001 0.11152933
v 0.039918144 -0.29672001 0.11182674
v 0.042006822 -0.2966 0.10940246
v 0.041847887 -0.2966 0.10895975
v 0.04158936 -0.2966 0.1086412
v 0.04158936 -0.29672001 0.1086412
v 0.041847887 -0.29672001 0.10895975
v 0.042006822 -0.29672001 0.10940246
v 0.039238744 -0.2966 0.11112005
v 0.039059687 -0.2966 0.11061494
v 0.039000001 -0.2966 0.11003001
v 0.039000001 -0.29672001 0.11003001
v 0.039059687 -0.29672001 0.11061494
v 0.039238744 -0.29672001 0.11112005
v 0.04158936 -0.2966 0.1086412
v 0.041847887 -0.2966 0.10895975
v 0.042006822 -0.2966 0.10940246
v 0.042536154 -0.2966 0.10926876
v 0.042303205 -0.2966 0.10869407
v 0.041937246 -0.2966 0.10827421
v 0.041456685 -0.2966 0.1080174
v 0.040879946 -0.2966 0.10793179
v 0.040293655 -0.2966 0.10799761
v 0.039828103 -0.2966 0.10819509
v 0.03947135 -0.2966 0.1085174
v 0.039211459 -0.2966 0.10895771
v 0.039052866 -0.2966 0.10947544
v 0.039000001 -0.2966 0.11003001
v 0.039059687 -0.2966 0.11061494
v 0.039238744 -0.2966 0.11112005
v 0.039527967 -0.2966 0.11152933
v 0.039918144 -0.2966 0.11182674
v 0.040380969 -0.2966 0.11200785
v 0.040888133 -0.2966 0.11206821
v 0.041440654 -0.2966 0.11199182
v 0.041897683 -0.2966 0.11176262
v 0.042244883 -0.2966 0.11139495
v 0.042467942 -0.2966 0.11090314
v 0.041946793 -0.2966 0.11078035
v 0.041776261 -0.2966 0.11115757
v 0.041542974 -0.2966 0.1114161
v 0.041244202 -0.2966 0.11156549
v 0.040877218 -0.2966 0.11161528
v 0.040453959 -0.2966 0.11156003
v 0.040106411 -0.2966 0.11139427
v 0.03984277 -0.2966 0.11113541
v 0.039671214 -0.2966 0.11080082
v 0.039545703 -0.2966 0.11003274
v 0.039694407 -0.2966 0.10914188
v 0.039884379 -0.2966 0.10880935
v 0.040156889 -0.2966 0.10857299
v 0.040836291 -0.2966 0.10838472
v 0.041246929 -0.2966 0.10844884
v 0.039000001 -0.2966 0.11003001
v 0.039052866 -0.2966 0.10947544
v 0.039211459 -0.2966 0.10895771
v 0.039211459 -0.29672001 0.10895771
v 0.039052866 -0.29672001 0.10947544
v 0.039000001 -0.29672001 0.11003001
v 0.039211459 -0.2966 0.10895771
v 0.03947135 -0.2966 0.1085174
v 0.039828103 -0.2966 0.10819509
v 0.039828103 -0.29672001 0.10819509
v 0.03947135 -0.29672001 0.1085174
v 0.039211459 -0.29672001 0.10895771
v 0.039828103 -0.2966 0.10819509
v 0.040293655 -0.2966 0.10799761
v 0.040879946 -0.2966 0.10793179
v 0.040879946 -0.29672001 0.10793179
v 0.040293655 -0.29672001 0.10799761
v 0.039828103 -0.29672001 0.10819509
v 0.040879946 -0.2966 0.10793179
v 0.041456685 -0.2966 0.1080174
v 0.041937246 -0.2966 0.10827421
v 0.041937246 -0.29672001 0.10827421
v 0.041456685 -0.29672001 0.1080174
v 0.040879946 -0.29672001 0.10793179
v 0.041937246 -0.2966 0.10827421
v 0.042303205 -0.2966 0.10869407
v 0.042536154 -0.2966 0.10926876
v 0.042536154 -0.29672001 0.10926876
v 0.042303205 -0.29672001 0.10869407
v 0.041937246 -0.29672001 0.10827421
v 0.042536154 -0.2966 0.10926876
v 0.042006822 -0.2966 0.10940246
v 0.042006822 -0.29672001 0.10940246
v 0.042536154 -0.29672001 0.10926876
f 1 2 6
f 6 2 5
f 5 2 3
f 5 3 4
f 7 8 12
f 12 8 11
f 11 8 9
f 11 9 10
f 13 14 18
f 18 14 17
f 17 14 15
f 17 15 16
f 19 20 22
f 22 20 21
f 23 24 28
f 28 24 27
f 27 24 25
f 27 25 26
f 29 30 32
f 32 30 31
f 33 34 36
f 36 34 35
f 37 38 42
f 42 38 41
f 41 38 39
f 41 39 40
f 43 44 48
f 48 44 47
f 47 44 45
f 47 45 46
f 49 50 52
f 52 50 51
f 53 54 58
f 58 54 57
f 57 54 55
f 57 55 56
f 59 60 64
f 64 60 63
f 63 60 61
f 63 61 62
f 65 66 70
f 70 66 69
f 69 66 67
f 69 67 68
f 109 71 108
f 108 71 72
f 108 72 107
f 107 72 73
f 107 73 106
f 106 73 74
f 106 74 105
f 105 74 75
f 105 75 104
f 104 75 76
f 104 76 103
f 103 76 77
f 103 77 102
f 102 77 78
f 102 78 101
f 101 78 100
f 100 78 79
f 100 79 99
f 99 79 98
f 98 79 80
f 98 80 97
f 97 80 81
f 97 81 96
f 96 81 82
f 96 82 95
f 95 82 83
f 95 83 94
f 94 83 84
f 94 84 93
f 93 84 85
f 93 85 92
f 92 85 86
f 92 86 91
f 91 86 87
f 91 87 90
f 90 87 88
f 90 88 89
f 110 111 115
f 115 111 114
f 114 111 112
f 114 112 113
f 116 117 121
f 121 117 120
f 120 117 118
f 120 118 119
f 122 123 127
f 127 123 126
f 126 123 124
f 126 124 125
f 129 133 128
f 128 133 134
f 128 134 166
f 166 134 135
f 166 135 165
f 165 135 136
f 165 136 164
f 164 136 137
f 164 137 163
f 163 137 138
f 163 138 162
f 162 138 139
f 162 139 140
f 133 129 132
f 132 129 130
f 132 130 131
f 162 140 161
f 161 140 141
f 161 141 142
f 161 142 160
f 160 142 143
f 160 143 159
f 159 143 144
f 159 144 158
f 158 144 145
f 158 145 157
f 157 145 146
f 157 146 156
f 156 146 147
f 156 147 155
f 155 147 148
f 155 148 154
f 154 148 149
f 154 149 153
f 153 149 150
f 153 150 152
f 152 150 151
f 167 168 172
f 172 168 171
f 171 168 169
f 171 169 170
f 173 174 178
f 178 174 177
f 177 174 175
f 177 175 176
f 179 180 184
f 184 180 183
f 183 180 181
f 183 181 182
f 185 186 190
f 190 186 189
f 189 186 187
f 189 187 188
f 191 192 196
f 196 192 195
f 195 192 193
f 195 193 194
f 197 198 200
f 200 198 199
