v 0.16598499 -0.29875 0.26887857
v 0.16598499 -0.29875 0.26915001
v 0.16598499 -0.29886999 0.26915001
v 0.16598499 -0.29886999 0.26887857
v 0.1658987 -0.29875 0.2679043
v 0.1658987 -0.29875 0.26817415
v 0.1658987 -0.29886999 0.26817415
v 0.1658987 -0.29886999 0.2679043
v 0.16598499 -0.29875 0.26915001
v 0.16432196 -0.29875 0.26915001
v 0.16432196 -0.29886999 0.26915001
v 0.16598499 -0.29886999 0.26915001
v 0.16603834 -0.29875 0.26712141
v 0.16462633 -0.29875 0.26712141
v 0.16462633 -0.29886999 0.26712141
v 0.16603834 -0.29886999 0.26712141
v 0.16462633 -0.29875 0.2679043
v 0.1658987 -0.29875 0.2679043
v 0.1658987 -0.29886999 0.2679043
v 0.16462633 -0.29886999 0.2679043
v 0.16603834 -0.29875 0.26684999
v 0.16603834 -0.29875 0.26712141
v 0.16603834 -0.29886999 0.26712141
v 0.16603834 -0.29886999 0.26684999
v 0.16462633 -0.29875 0.26712141
v 0.16462633 -0.29875 0.2679043
v 0.16462633 -0.29886999 0.2679043
v 0.16462633 -0.29886999 0.26712141
v 0.16432196 -0.29886999 0.26684999
v 0.16603834 -0.29886999 0.26684999
v 0.16603834 -0.29886999 0.26712141
v 0.16462633 -0.29886999 0.26712141
v 0.16462633 -0.29886999 0.2679043
v 0.1658987 -0.29886999 0.2679043
v 0.1658987 -0.29886999 0.26817415
v 0.16462633 -0.29886999 0.26817415
v 0.16462633 -0.29886999 0.26887857
v 0.16598499 -0.29886999 0.26887857
v 0.16598499 -0.29886999 0.26915001
v 0.16432196 -0.29886999 0.26915001
v 0.16462633 -0.29875 0.26887857
v 0.16598499 -0.29875 0.26887857
v 0.16598499 -0.29886999 0.26887857
v 0.16462633 -0.29886999 0.26887857
v 0.16432196 -0.29875 0.26915001
v 0.16432196 -0.29875 0.26684999
v 0.16432196 -0.29886999 0.26684999
v 0.16432196 -0.29886999 0.26915001
v 0.16462633 -0.29875 0.26817415
v 0.16462633 -0.29875 0.26887857
v 0.16462633 -0.29886999 0.26887857
v 0.16462633 -0.29886999 0.26817415
v 0.16432196 -0.29875 0.26684999
v 0.16603834 -0.29875 0.26684999
v 0.16603834 -0.29886999 0.26684999
v 0.16432196 -0.29886999 0.26684999
v 0.1658987 -0.29875 0.26817415
v 0.16462633 -0.29875 0.26817415
v 0.16462633 -0.29886999 0.26817415
v 0.1658987 -0.29886999 0.26817415
v 0.16603834 -0.29875 0.26684999
v 0.16432196 -0.29875 0.26684999
v 0.16432196 -0.29875 0.26915001
v 0.16598499 -0.29875 0.26915001
v 0.16598499 -0.29875 0.26887857
v 0.16462633 -0.29875 0.26887857
v 0.16462633 -0.29875 0.26817415
v 0.1658987 -0.29875 0.26817415
v 0.1658987 -0.29875 0.2679043
v 0.16462633 -0.29875 0.2679043
v 0.16462633 -0.29875 0.26712141
v 0.16603834 -0.29875 0.26712141
f 1 2 4
f 4 2 3
f 5 6 8
f 8 6 7
f 9 10 12
f 12 10 11
f 13 14 16
f 16 14 15
f 17 18 20
f 20 18 19
f 21 22 24
f 24 22 23
f 25 26 28
f 28 26 27
f 30 32 29
f 29 32 33
f 29 33 40
f 40 33 36
f 40 36 37
f 30 31 32
f 33 34 36
f 36 34 35
f 38 39 37
f 37 39 40
f 41 42 44
f 44 42 43
f 45 46 48
f 48 46 47
f 49 50 52
f 52 50 51
f 53 54 56
f 56 54 55
f 57 58 60
f 60 58 59
f 72 61 71
f 71 61 62
f 71 62 70
f 70 62 63
f 70 63 67
f 67 63 66
f 66 63 64
f 66 64 65
f 67 68 70
f 70 68 69
